<?xml version="1.0" encoding="UTF-8" standalone="no"?>
<!DOCTYPE svg PUBLIC "-//W3C//DTD SVG 1.1//EN" "http://www.w3.org/Graphics/SVG/1.1/DTD/svg11.dtd">
<svg xmlns="http://www.w3.org/2000/svg" version="1.1" viewBox="0.00 0.00 66.00 88.00">
<g stroke-width="2.00" fill="none" stroke-linecap="butt">
<path stroke="#2f2f2f" vector-effect="non-scaling-stroke" d="
  M 33.43 86.54
  C 34.03 86.54 33.59 86.58 33.78 86.41
  Q 48.27 73.21 57.53 56.53
  Q 62.65 47.31 63.90 37.77
  Q 65.99 21.77 54.86 11.11
  C 49.14 5.63 41.61 2.58 33.51 2.57
  C 25.40 2.56 17.87 5.60 12.13 11.08
  Q 0.99 21.71 3.05 37.72
  Q 4.28 47.26 9.39 56.49
  Q 18.62 73.18 33.09 86.41
  C 33.28 86.58 32.83 86.54 33.43 86.54"
/>
<path stroke="#9e9e9e" vector-effect="non-scaling-stroke" d="
  M 49.12 49.15
  Q 48.58 48.87 47.37 48.74
  A 2.23 2.21 73.9 0 1 45.86 47.90
  Q 44.36 45.97 43.31 43.42
  Q 41.81 39.75 33.90 19.70
  A 0.67 0.67 0.0 0 0 32.66 19.70
  Q 27.70 32.08 22.64 44.63
  C 22.04 46.12 21.03 48.66 19.53 48.66
  Q 18.37 48.66 17.67 49.13
  A 0.18 0.18 0.0 0 0 17.77 49.46
  L 26.84 49.58
  A 0.28 0.26 -78.6 0 0 27.09 49.40
  L 27.09 49.39
  A 0.11 0.10 9.1 0 0 27.00 49.28
  Q 25.02 48.82 24.74 47.84
  A 1.08 1.07 47.2 0 1 24.76 47.17
  L 27.31 40.05
  A 0.84 0.83 -79.9 0 1 28.09 39.50
  L 36.29 39.50
  A 0.84 0.84 0.0 0 1 37.08 40.05
  L 39.82 47.64
  A 0.85 0.83 -44.5 0 1 39.81 48.24
  L 39.42 49.27
  A 0.19 0.18 -79.9 0 0 39.59 49.52
  L 49.03 49.52
  A 0.20 0.20 0.0 0 0 49.12 49.15"
/>
<path stroke="#9e9e9e" vector-effect="non-scaling-stroke" d="
  M 32.53 27.80
  A 0.27 0.27 0.0 0 0 32.03 27.79
  L 28.53 37.04
  A 0.33 0.33 0.0 0 0 28.84 37.49
  L 35.60 37.49
  A 0.31 0.30 -9.5 0 0 35.89 37.09
  L 32.53 27.80"
/>
</g>
<path fill="#202120" d="
  M 33.81 88.00
  L 33.03 88.00
  C 16.61 73.07 -6.70 43.77 4.31 19.87
  C 12.29 2.54 34.13 -4.08 50.44 6.14
  Q 62.31 13.59 64.91 27.04
  C 69.21 49.27 49.10 74.04 33.81 88.00
  Z
  M 33.43 86.54
  C 34.03 86.54 33.59 86.58 33.78 86.41
  Q 48.27 73.21 57.53 56.53
  Q 62.65 47.31 63.90 37.77
  Q 65.99 21.77 54.86 11.11
  C 49.14 5.63 41.61 2.58 33.51 2.57
  C 25.40 2.56 17.87 5.60 12.13 11.08
  Q 0.99 21.71 3.05 37.72
  Q 4.28 47.26 9.39 56.49
  Q 18.62 73.18 33.09 86.41
  C 33.28 86.58 32.83 86.54 33.43 86.54
  Z"
/>
<path fill="#3d3c3d" d="
  M 33.51 2.57
  C 41.61 2.58 49.14 5.63 54.86 11.11
  Q 65.99 21.77 63.90 37.77
  Q 62.65 47.31 57.53 56.53
  Q 48.27 73.21 33.78 86.41
  C 33.59 86.58 34.03 86.54 33.43 86.54
  C 32.83 86.54 33.28 86.58 33.09 86.41
  Q 18.62 73.18 9.39 56.49
  Q 4.28 47.26 3.05 37.72
  Q 0.99 21.71 12.13 11.08
  C 17.87 5.60 25.40 2.56 33.51 2.57
  Z
  M 49.12 49.15
  Q 48.58 48.87 47.37 48.74
  A 2.23 2.21 73.9 0 1 45.86 47.90
  Q 44.36 45.97 43.31 43.42
  Q 41.81 39.75 33.90 19.70
  A 0.67 0.67 0.0 0 0 32.66 19.70
  Q 27.70 32.08 22.64 44.63
  C 22.04 46.12 21.03 48.66 19.53 48.66
  Q 18.37 48.66 17.67 49.13
  A 0.18 0.18 0.0 0 0 17.77 49.46
  L 26.84 49.58
  A 0.28 0.26 -78.6 0 0 27.09 49.40
  L 27.09 49.39
  A 0.11 0.10 9.1 0 0 27.00 49.28
  Q 25.02 48.82 24.74 47.84
  A 1.08 1.07 47.2 0 1 24.76 47.17
  L 27.31 40.05
  A 0.84 0.83 -79.9 0 1 28.09 39.50
  L 36.29 39.50
  A 0.84 0.84 0.0 0 1 37.08 40.05
  L 39.82 47.64
  A 0.85 0.83 -44.5 0 1 39.81 48.24
  L 39.42 49.27
  A 0.19 0.18 -79.9 0 0 39.59 49.52
  L 49.03 49.52
  A 0.20 0.20 0.0 0 0 49.12 49.15
  Z"
/>
<path fill="#ffffff" d="
  M 49.12 49.15
  A 0.20 0.20 0.0 0 1 49.03 49.52
  L 39.59 49.52
  A 0.19 0.18 -79.9 0 1 39.42 49.27
  L 39.81 48.24
  A 0.85 0.83 -44.5 0 0 39.82 47.64
  L 37.08 40.05
  A 0.84 0.84 0.0 0 0 36.29 39.50
  L 28.09 39.50
  A 0.84 0.83 -79.9 0 0 27.31 40.05
  L 24.76 47.17
  A 1.08 1.07 47.2 0 0 24.74 47.84
  Q 25.02 48.82 27.00 49.28
  A 0.11 0.10 9.1 0 1 27.09 49.39
  L 27.09 49.40
  A 0.28 0.26 -78.6 0 1 26.84 49.58
  L 17.77 49.46
  A 0.18 0.18 0.0 0 1 17.67 49.13
  Q 18.37 48.66 19.53 48.66
  C 21.03 48.66 22.04 46.12 22.64 44.63
  Q 27.70 32.08 32.66 19.70
  A 0.67 0.67 0.0 0 1 33.90 19.70
  Q 41.81 39.75 43.31 43.42
  Q 44.36 45.97 45.86 47.90
  A 2.23 2.21 73.9 0 0 47.37 48.74
  Q 48.58 48.87 49.12 49.15
  Z
  M 32.53 27.80
  A 0.27 0.27 0.0 0 0 32.03 27.79
  L 28.53 37.04
  A 0.33 0.33 0.0 0 0 28.84 37.49
  L 35.60 37.49
  A 0.31 0.30 -9.5 0 0 35.89 37.09
  L 32.53 27.80
  Z"
/>
<path fill="#3d3c3d" d="
  M 32.53 27.80
  L 35.89 37.09
  A 0.31 0.30 -9.5 0 1 35.60 37.49
  L 28.84 37.49
  A 0.33 0.33 0.0 0 1 28.53 37.04
  L 32.03 27.79
  A 0.27 0.27 0.0 0 1 32.53 27.80
  Z"
/>
</svg>
