<?xml version="1.0" encoding="UTF-8" standalone="no"?>
<!DOCTYPE svg PUBLIC "-//W3C//DTD SVG 1.1//EN" "http://www.w3.org/Graphics/SVG/1.1/DTD/svg11.dtd">
<svg xmlns="http://www.w3.org/2000/svg" version="1.1" viewBox="0.00 0.00 66.00 88.00">
<g stroke-width="2.00" fill="none" stroke-linecap="butt">
<path stroke="#774c79" vector-effect="non-scaling-stroke" d="
  M 33.40 86.69
  Q 33.54 86.69 33.68 86.66
  A 0.04 0.03 -61.4 0 0 33.70 86.65
  Q 47.12 74.14 56.40 58.66
  C 66.09 42.49 68.97 21.64 52.22 8.79
  C 47.16 4.90 40.41 2.47 33.54 2.46
  C 26.67 2.45 19.90 4.86 14.83 8.73
  C -1.96 21.53 0.85 42.38 10.49 58.59
  Q 19.72 74.10 33.10 86.65
  A 0.04 0.03 61.6 0 0 33.12 86.66
  Q 33.26 86.69 33.40 86.69"
/>
<path stroke="#ceb2cf" vector-effect="non-scaling-stroke" d="
  M 43.99 31.24
  Q 45.57 31.24 45.67 31.26
  A 0.41 0.41 0.0 0 0 46.16 30.85
  L 46.14 23.35
  A 0.60 0.60 0.0 0 1 46.74 22.75
  L 50.67 22.75
  A 0.24 0.24 0.0 0 0 50.84 22.34
  Q 48.22 19.72 44.22 15.99
  Q 44.16 15.93 44.00 15.93
  Q 43.83 15.93 43.78 15.99
  Q 39.77 19.72 37.15 22.33
  A 0.24 0.24 0.0 0 0 37.32 22.74
  L 41.25 22.75
  A 0.60 0.60 0.0 0 1 41.85 23.35
  L 41.83 30.85
  A 0.41 0.41 0.0 0 0 42.31 31.26
  Q 42.41 31.24 43.99 31.24"
/>
<path stroke="#ceb2cf" vector-effect="non-scaling-stroke" d="
  M 15.27 20.81
  Q 14.32 21.75 14.93 22.99
  C 15.39 23.93 16.09 23.82 17.08 23.98
  A 1.46 1.44 75.1 0 1 17.98 24.51
  L 22.12 29.81
  A 0.73 0.73 0.0 0 0 23.06 29.99
  Q 23.47 29.76 23.82 29.41
  Q 24.17 29.06 24.40 28.66
  A 0.73 0.73 0.0 0 0 24.23 27.71
  L 18.95 23.55
  A 1.46 1.44 15.2 0 1 18.42 22.64
  C 18.27 21.65 18.38 20.95 17.45 20.49
  Q 16.21 19.87 15.27 20.81"
/>
<path stroke="#ceb2cf" vector-effect="non-scaling-stroke" d="
  M 24.97 30.59
  Q 23.30 32.26 21.62 34.02
  A 1.57 1.56 -68.4 0 1 20.52 34.50
  Q 20.42 34.50 20.13 34.40
  A 0.56 0.56 0.0 0 0 19.41 35.01
  Q 19.55 36.10 20.32 37.12
  A 0.56 0.56 0.0 0 0 21.11 37.23
  L 24.56 34.53
  A 0.59 0.58 48.8 0 1 25.34 34.59
  Q 31.75 41.15 39.77 48.93
  Q 41.38 50.49 46.38 52.16
  A 0.11 0.05 -43.2 0 0 46.46 52.13
  Q 46.48 52.11 46.50 52.10
  Q 46.51 52.09 46.53 52.06
  A 0.11 0.05 -46.9 0 0 46.56 51.98
  Q 44.88 46.98 43.32 45.38
  Q 35.54 37.36 28.98 30.95
  A 0.59 0.58 41.1 0 1 28.92 30.17
  L 31.62 26.72
  A 0.56 0.56 0.0 0 0 31.51 25.93
  Q 30.49 25.16 29.40 25.02
  A 0.56 0.56 0.0 0 0 28.79 25.74
  Q 28.89 26.03 28.89 26.13
  A 1.57 1.56 -21.6 0 1 28.41 27.23
  Q 26.65 28.91 24.97 30.59"
/>
<path stroke="#ceb2cf" vector-effect="non-scaling-stroke" d="
  M 28.09 33.89
  Q 27.68 34.29 26.88 34.49
  A 0.18 0.18 0.0 0 0 26.86 34.83
  Q 28.27 35.33 28.90 34.70
  Q 29.53 34.07 29.04 32.66
  A 0.18 0.18 0.0 0 0 28.70 32.68
  Q 28.49 33.48 28.09 33.89"
/>
</g>
<path fill="#503253" d="
  M 33.79 88.00
  L 33.11 88.00
  Q 16.13 72.87 6.60 53.84
  Q 3.38 47.44 2.01 39.00
  Q 0.32 28.64 4.22 20.06
  C 11.95 3.08 32.61 -3.68 49.04 5.31
  C 59.45 11.00 65.86 21.88 65.44 33.85
  Q 65.16 41.86 62.33 49.05
  C 56.49 63.89 45.53 77.33 33.79 88.00
  Z
  M 33.40 86.69
  Q 33.54 86.69 33.68 86.66
  A 0.04 0.03 -61.4 0 0 33.70 86.65
  Q 47.12 74.14 56.40 58.66
  C 66.09 42.49 68.97 21.64 52.22 8.79
  C 47.16 4.90 40.41 2.47 33.54 2.46
  C 26.67 2.45 19.90 4.86 14.83 8.73
  C -1.96 21.53 0.85 42.38 10.49 58.59
  Q 19.72 74.10 33.10 86.65
  A 0.04 0.03 61.6 0 0 33.12 86.66
  Q 33.26 86.69 33.40 86.69
  Z"
/>
<path fill="#9d659e" d="
  M 33.54 2.46
  C 40.41 2.47 47.16 4.90 52.22 8.79
  C 68.97 21.64 66.09 42.49 56.40 58.66
  Q 47.12 74.14 33.70 86.65
  A 0.04 0.03 -61.4 0 1 33.68 86.66
  Q 33.54 86.69 33.40 86.69
  Q 33.26 86.69 33.12 86.66
  A 0.04 0.03 61.6 0 1 33.10 86.65
  Q 19.72 74.10 10.49 58.59
  C 0.85 42.38 -1.96 21.53 14.83 8.73
  C 19.90 4.86 26.67 2.45 33.54 2.46
  Z
  M 43.99 31.24
  Q 45.57 31.24 45.67 31.26
  A 0.41 0.41 0.0 0 0 46.16 30.85
  L 46.14 23.35
  A 0.60 0.60 0.0 0 1 46.74 22.75
  L 50.67 22.75
  A 0.24 0.24 0.0 0 0 50.84 22.34
  Q 48.22 19.72 44.22 15.99
  Q 44.16 15.93 44.00 15.93
  Q 43.83 15.93 43.78 15.99
  Q 39.77 19.72 37.15 22.33
  A 0.24 0.24 0.0 0 0 37.32 22.74
  L 41.25 22.75
  A 0.60 0.60 0.0 0 1 41.85 23.35
  L 41.83 30.85
  A 0.41 0.41 0.0 0 0 42.31 31.26
  Q 42.41 31.24 43.99 31.24
  Z
  M 15.27 20.81
  Q 14.32 21.75 14.93 22.99
  C 15.39 23.93 16.09 23.82 17.08 23.98
  A 1.46 1.44 75.1 0 1 17.98 24.51
  L 22.12 29.81
  A 0.73 0.73 0.0 0 0 23.06 29.99
  Q 23.47 29.76 23.82 29.41
  Q 24.17 29.06 24.40 28.66
  A 0.73 0.73 0.0 0 0 24.23 27.71
  L 18.95 23.55
  A 1.46 1.44 15.2 0 1 18.42 22.64
  C 18.27 21.65 18.38 20.95 17.45 20.49
  Q 16.21 19.87 15.27 20.81
  Z
  M 24.97 30.59
  Q 23.30 32.26 21.62 34.02
  A 1.57 1.56 -68.4 0 1 20.52 34.50
  Q 20.42 34.50 20.13 34.40
  A 0.56 0.56 0.0 0 0 19.41 35.01
  Q 19.55 36.10 20.32 37.12
  A 0.56 0.56 0.0 0 0 21.11 37.23
  L 24.56 34.53
  A 0.59 0.58 48.8 0 1 25.34 34.59
  Q 31.75 41.15 39.77 48.93
  Q 41.38 50.49 46.38 52.16
  A 0.11 0.05 -43.2 0 0 46.46 52.13
  Q 46.48 52.11 46.50 52.10
  Q 46.51 52.09 46.53 52.06
  A 0.11 0.05 -46.9 0 0 46.56 51.98
  Q 44.88 46.98 43.32 45.38
  Q 35.54 37.36 28.98 30.95
  A 0.59 0.58 41.1 0 1 28.92 30.17
  L 31.62 26.72
  A 0.56 0.56 0.0 0 0 31.51 25.93
  Q 30.49 25.16 29.40 25.02
  A 0.56 0.56 0.0 0 0 28.79 25.74
  Q 28.89 26.03 28.89 26.13
  A 1.57 1.56 -21.6 0 1 28.41 27.23
  Q 26.65 28.91 24.97 30.59
  Z"
/>
<path fill="#ffffff" d="
  M 44.00 15.93
  Q 44.16 15.93 44.22 15.99
  Q 48.22 19.72 50.84 22.34
  A 0.24 0.24 0.0 0 1 50.67 22.75
  L 46.74 22.75
  A 0.60 0.60 0.0 0 0 46.14 23.35
  L 46.16 30.85
  A 0.41 0.41 0.0 0 1 45.67 31.26
  Q 45.57 31.24 43.99 31.24
  Q 42.41 31.24 42.31 31.26
  A 0.41 0.41 0.0 0 1 41.83 30.85
  L 41.85 23.35
  A 0.60 0.60 0.0 0 0 41.25 22.75
  L 37.32 22.74
  A 0.24 0.24 0.0 0 1 37.15 22.33
  Q 39.77 19.72 43.78 15.99
  Q 43.83 15.93 44.00 15.93
  Z"
/>
<path fill="#ffffff" d="
  M 23.82 29.41
  Q 23.47 29.76 23.06 29.99
  A 0.73 0.73 0.0 0 1 22.12 29.81
  L 17.98 24.51
  A 1.46 1.44 75.1 0 0 17.08 23.98
  C 16.09 23.82 15.39 23.93 14.93 22.99
  Q 14.32 21.75 15.27 20.81
  Q 16.21 19.87 17.45 20.49
  C 18.38 20.95 18.27 21.65 18.42 22.64
  A 1.46 1.44 15.2 0 0 18.95 23.55
  L 24.23 27.71
  A 0.73 0.73 0.0 0 1 24.40 28.66
  Q 24.17 29.06 23.82 29.41
  Z"
/>
<path fill="#ffffff" d="
  M 46.50 52.10
  Q 46.48 52.11 46.46 52.13
  A 0.11 0.05 -43.2 0 1 46.38 52.16
  Q 41.38 50.49 39.77 48.93
  Q 31.75 41.15 25.34 34.59
  A 0.59 0.58 48.8 0 0 24.56 34.53
  L 21.11 37.23
  A 0.56 0.56 0.0 0 1 20.32 37.12
  Q 19.55 36.10 19.41 35.01
  A 0.56 0.56 0.0 0 1 20.13 34.40
  Q 20.42 34.50 20.52 34.50
  A 1.57 1.56 -68.4 0 0 21.62 34.02
  Q 23.30 32.26 24.97 30.59
  Q 26.65 28.91 28.41 27.23
  A 1.57 1.56 -21.6 0 0 28.89 26.13
  Q 28.89 26.03 28.79 25.74
  A 0.56 0.56 0.0 0 1 29.40 25.02
  Q 30.49 25.16 31.51 25.93
  A 0.56 0.56 0.0 0 1 31.62 26.72
  L 28.92 30.17
  A 0.59 0.58 41.1 0 0 28.98 30.95
  Q 35.54 37.36 43.32 45.38
  Q 44.88 46.98 46.56 51.98
  A 0.11 0.05 -46.9 0 1 46.53 52.06
  Q 46.51 52.09 46.50 52.10
  Z
  M 28.09 33.89
  Q 27.68 34.29 26.88 34.49
  A 0.18 0.18 0.0 0 0 26.86 34.83
  Q 28.27 35.33 28.90 34.70
  Q 29.53 34.07 29.04 32.66
  A 0.18 0.18 0.0 0 0 28.70 32.68
  Q 28.49 33.48 28.09 33.89
  Z"
/>
<path fill="#9d659e" d="
  M 28.90 34.70
  Q 28.27 35.33 26.86 34.83
  A 0.18 0.18 0.0 0 1 26.88 34.49
  Q 27.68 34.29 28.09 33.89
  Q 28.49 33.48 28.70 32.68
  A 0.18 0.18 0.0 0 1 29.04 32.66
  Q 29.53 34.07 28.90 34.70
  Z"
/>
</svg>
