<?xml version="1.0" encoding="UTF-8" standalone="no"?>
<!DOCTYPE svg PUBLIC "-//W3C//DTD SVG 1.1//EN" "http://www.w3.org/Graphics/SVG/1.1/DTD/svg11.dtd">
<svg xmlns="http://www.w3.org/2000/svg" version="1.1" viewBox="0.00 0.00 66.00 88.00">
<g stroke-width="2.00" fill="none" stroke-linecap="butt">
<path stroke="#5e5656" vector-effect="non-scaling-stroke" d="
  M 33.40 86.68
  Q 33.54 86.68 33.67 86.65
  A 0.29 0.14 -53.4 0 0 33.73 86.62
  Q 47.61 73.72 56.65 58.19
  C 66.44 41.35 68.75 20.95 51.42 8.24
  Q 43.58 2.48 33.53 2.47
  Q 23.48 2.45 15.62 8.19
  C -1.75 20.84 0.50 41.25 10.24 58.12
  Q 19.23 73.68 33.08 86.62
  A 0.29 0.14 53.6 0 0 33.13 86.65
  Q 33.27 86.68 33.40 86.68"
/>
<path stroke="#beb8b9" vector-effect="non-scaling-stroke" d="
  M 36.66 51.64
  L 37.63 46.00
  A 0.66 0.66 0.0 0 1 38.28 45.45
  L 43.08 45.45
  A 1.08 1.07 90.0 0 0 44.15 44.37
  L 44.15 36.85
  A 0.75 0.75 0.0 0 1 44.68 36.13
  Q 46.38 35.58 47.44 34.37
  A 0.76 0.75 -43.7 0 0 47.47 33.42
  L 44.08 28.97
  A 3.42 3.41 26.9 0 1 43.37 26.80
  C 43.71 10.08 13.56 12.85 17.96 30.34
  C 18.53 32.60 20.74 35.11 21.34 37.16
  Q 22.06 39.58 21.41 45.46
  A 0.75 0.74 -76.0 0 0 21.87 46.23
  L 36.06 51.98
  A 0.44 0.44 0.0 0 0 36.66 51.64"
/>
</g>
<path fill="#3f3a39" d="
  M 33.79 88.00
  L 33.04 88.00
  C 21.77 77.76 11.94 65.51 5.58 51.41
  Q 2.09 43.67 1.58 34.57
  C 0.15 9.40 27.25 -6.39 48.94 5.25
  Q 55.23 8.63 59.28 14.18
  Q 67.40 25.33 64.93 39.27
  Q 62.69 51.87 55.07 63.31
  Q 46.02 76.90 33.79 88.00
  Z
  M 33.40 86.68
  Q 33.54 86.68 33.67 86.65
  A 0.29 0.14 -53.4 0 0 33.73 86.62
  Q 47.61 73.72 56.65 58.19
  C 66.44 41.35 68.75 20.95 51.42 8.24
  Q 43.58 2.48 33.53 2.47
  Q 23.48 2.45 15.62 8.19
  C -1.75 20.84 0.50 41.25 10.24 58.12
  Q 19.23 73.68 33.08 86.62
  A 0.29 0.14 53.6 0 0 33.13 86.65
  Q 33.27 86.68 33.40 86.68
  Z"
/>
<path fill="#7c7173" d="
  M 33.53 2.47
  Q 43.58 2.48 51.42 8.24
  C 68.75 20.95 66.44 41.35 56.65 58.19
  Q 47.61 73.72 33.73 86.62
  A 0.29 0.14 -53.4 0 1 33.67 86.65
  Q 33.54 86.68 33.40 86.68
  Q 33.27 86.68 33.13 86.65
  A 0.29 0.14 53.6 0 1 33.08 86.62
  Q 19.23 73.68 10.24 58.12
  C 0.50 41.25 -1.75 20.84 15.62 8.19
  Q 23.48 2.45 33.53 2.47
  Z
  M 36.66 51.64
  L 37.63 46.00
  A 0.66 0.66 0.0 0 1 38.28 45.45
  L 43.08 45.45
  A 1.08 1.07 90.0 0 0 44.15 44.37
  L 44.15 36.85
  A 0.75 0.75 0.0 0 1 44.68 36.13
  Q 46.38 35.58 47.44 34.37
  A 0.76 0.75 -43.7 0 0 47.47 33.42
  L 44.08 28.97
  A 3.42 3.41 26.9 0 1 43.37 26.80
  C 43.71 10.08 13.56 12.85 17.96 30.34
  C 18.53 32.60 20.74 35.11 21.34 37.16
  Q 22.06 39.58 21.41 45.46
  A 0.75 0.74 -76.0 0 0 21.87 46.23
  L 36.06 51.98
  A 0.44 0.44 0.0 0 0 36.66 51.64
  Z"
/>
<path fill="#ffffff" d="
  M 36.06 51.98
  L 21.87 46.23
  A 0.75 0.74 -76.0 0 1 21.41 45.46
  Q 22.06 39.58 21.34 37.16
  C 20.74 35.11 18.53 32.60 17.96 30.34
  C 13.56 12.85 43.71 10.08 43.37 26.80
  A 3.42 3.41 26.9 0 0 44.08 28.97
  L 47.47 33.42
  A 0.76 0.75 -43.7 0 1 47.44 34.37
  Q 46.38 35.58 44.68 36.13
  A 0.75 0.75 0.0 0 0 44.15 36.85
  L 44.15 44.37
  A 1.08 1.07 90.0 0 1 43.08 45.45
  L 38.28 45.45
  A 0.66 0.66 0.0 0 0 37.63 46.00
  L 36.66 51.64
  A 0.44 0.44 0.0 0 1 36.06 51.98
  Z"
/>
</svg>
