<?xml version="1.0" encoding="UTF-8" standalone="no"?>
<!DOCTYPE svg PUBLIC "-//W3C//DTD SVG 1.1//EN" "http://www.w3.org/Graphics/SVG/1.1/DTD/svg11.dtd">
<svg xmlns="http://www.w3.org/2000/svg" version="1.1" viewBox="0.00 0.00 66.00 88.00">
<g stroke-width="2.00" fill="none" stroke-linecap="butt">
<path stroke="#774c79" vector-effect="non-scaling-stroke" d="
  M 33.41 86.69
  Q 33.55 86.69 33.69 86.66
  A 0.13 0.08 3.8 0 0 33.74 86.63
  C 51.49 70.22 78.90 34.51 55.04 11.23
  C 49.39 5.71 41.64 2.47 33.53 2.46
  C 25.42 2.45 17.66 5.67 12.00 11.16
  C -11.93 34.38 15.37 70.17 33.07 86.63
  A 0.13 0.08 -3.6 0 0 33.13 86.66
  Q 33.27 86.69 33.41 86.69"
/>
<path stroke="#ceb2cf" vector-effect="non-scaling-stroke" d="
  M 47.23 36.04
  L 41.87 40.30
  A 2.36 2.29 -5.9 0 0 41.29 40.99
  L 38.43 46.32
  A 0.28 0.28 0.0 0 0 38.68 46.74
  L 41.78 46.74
  A 1.50 1.48 22.9 0 0 42.81 46.33
  Q 45.62 43.62 48.39 40.69
  Q 49.54 39.47 51.02 35.11
  A 0.75 0.73 -60.9 0 0 50.80 34.31
  L 43.93 28.35
  A 1.43 1.41 64.9 0 0 43.01 28.01
  L 38.60 28.01
  A 2.22 2.21 -24.6 0 1 37.16 27.48
  L 31.21 22.33
  A 0.87 0.86 -37.6 0 0 30.24 22.21
  Q 25.51 24.65 20.20 24.65
  A 1.07 1.07 0.0 0 0 19.33 25.10
  L 14.94 31.34
  A 1.23 1.18 -32.6 0 0 14.73 32.21
  L 16.34 43.19
  A 1.04 1.03 7.7 0 0 16.96 44.00
  L 23.27 46.66
  A 1.30 1.30 0.0 0 0 23.77 46.76
  L 33.31 46.76
  A 0.64 0.63 14.1 0 0 33.87 46.43
  L 38.07 39.17
  A 0.89 0.86 4.4 0 1 38.54 38.78
  L 47.08 35.76
  A 0.16 0.16 0.0 0 1 47.23 36.04"
/>
<path stroke="#ceb2cf" vector-effect="non-scaling-stroke" d="
  M 40.33 29.63
  L 36.93 30.13
  A 2.11 2.10 61.1 0 1 35.25 29.64
  L 31.49 26.38
  A 0.33 0.33 0.0 0 0 30.97 26.74
  L 32.55 31.20
  A 0.60 0.59 -24.8 0 1 32.28 31.91
  L 28.31 34.20
  A 0.77 0.76 70.5 0 0 27.95 34.96
  L 29.04 42.44
  A 0.09 0.09 0.0 0 0 29.22 42.45
  L 31.12 36.43
  A 1.97 1.90 84.5 0 1 31.99 35.34
  L 40.59 30.38
  A 0.40 0.40 0.0 0 0 40.33 29.63"
/>
<path stroke="#ceb2cf" vector-effect="non-scaling-stroke" d="
  M 22.59 43.97
  L 20.70 36.29
  A 5.27 5.24 46.4 0 1 20.76 33.55
  Q 21.38 31.42 22.18 28.30
  A 0.10 0.10 0.0 0 0 22.01 28.22
  L 17.35 33.61
  A 1.15 1.13 50.6 0 0 17.23 34.93
  L 22.47 44.01
  A 0.07 0.06 24.9 0 0 22.59 43.97"
/>
</g>
<path fill="#503253" d="
  M 33.80 88.00
  L 33.11 88.00
  Q 16.13 72.87 6.60 53.84
  Q 3.40 47.46 2.01 39.00
  Q 0.34 28.85 4.12 20.30
  C 11.69 3.19 32.51 -3.71 48.96 5.27
  Q 61.26 11.99 64.85 26.26
  Q 65.57 29.14 65.37 35.27
  Q 65.22 39.55 63.91 44.16
  C 59.15 60.87 46.47 76.48 33.80 88.00
  Z
  M 33.41 86.69
  Q 33.55 86.69 33.69 86.66
  A 0.13 0.08 3.8 0 0 33.74 86.63
  C 51.49 70.22 78.90 34.51 55.04 11.23
  C 49.39 5.71 41.64 2.47 33.53 2.46
  C 25.42 2.45 17.66 5.67 12.00 11.16
  C -11.93 34.38 15.37 70.17 33.07 86.63
  A 0.13 0.08 -3.6 0 0 33.13 86.66
  Q 33.27 86.69 33.41 86.69
  Z"
/>
<path fill="#9d659e" d="
  M 33.53 2.46
  C 41.64 2.47 49.39 5.71 55.04 11.23
  C 78.90 34.51 51.49 70.22 33.74 86.63
  A 0.13 0.08 3.8 0 1 33.69 86.66
  Q 33.55 86.69 33.41 86.69
  Q 33.27 86.69 33.13 86.66
  A 0.13 0.08 -3.6 0 1 33.07 86.63
  C 15.37 70.17 -11.93 34.38 12.00 11.16
  C 17.66 5.67 25.42 2.45 33.53 2.46
  Z
  M 47.23 36.04
  L 41.87 40.30
  A 2.36 2.29 -5.9 0 0 41.29 40.99
  L 38.43 46.32
  A 0.28 0.28 0.0 0 0 38.68 46.74
  L 41.78 46.74
  A 1.50 1.48 22.9 0 0 42.81 46.33
  Q 45.62 43.62 48.39 40.69
  Q 49.54 39.47 51.02 35.11
  A 0.75 0.73 -60.9 0 0 50.80 34.31
  L 43.93 28.35
  A 1.43 1.41 64.9 0 0 43.01 28.01
  L 38.60 28.01
  A 2.22 2.21 -24.6 0 1 37.16 27.48
  L 31.21 22.33
  A 0.87 0.86 -37.6 0 0 30.24 22.21
  Q 25.51 24.65 20.20 24.65
  A 1.07 1.07 0.0 0 0 19.33 25.10
  L 14.94 31.34
  A 1.23 1.18 -32.6 0 0 14.73 32.21
  L 16.34 43.19
  A 1.04 1.03 7.7 0 0 16.96 44.00
  L 23.27 46.66
  A 1.30 1.30 0.0 0 0 23.77 46.76
  L 33.31 46.76
  A 0.64 0.63 14.1 0 0 33.87 46.43
  L 38.07 39.17
  A 0.89 0.86 4.4 0 1 38.54 38.78
  L 47.08 35.76
  A 0.16 0.16 0.0 0 1 47.23 36.04
  Z"
/>
<path fill="#ffffff" d="
  M 47.08 35.76
  L 38.54 38.78
  A 0.89 0.86 4.4 0 0 38.07 39.17
  L 33.87 46.43
  A 0.64 0.63 14.1 0 1 33.31 46.76
  L 23.77 46.76
  A 1.30 1.30 0.0 0 1 23.27 46.66
  L 16.96 44.00
  A 1.04 1.03 7.7 0 1 16.34 43.19
  L 14.73 32.21
  A 1.23 1.18 -32.6 0 1 14.94 31.34
  L 19.33 25.10
  A 1.07 1.07 0.0 0 1 20.20 24.65
  Q 25.51 24.65 30.24 22.21
  A 0.87 0.86 -37.6 0 1 31.21 22.33
  L 37.16 27.48
  A 2.22 2.21 -24.6 0 0 38.60 28.01
  L 43.01 28.01
  A 1.43 1.41 64.9 0 1 43.93 28.35
  L 50.80 34.31
  A 0.75 0.73 -60.9 0 1 51.02 35.11
  Q 49.54 39.47 48.39 40.69
  Q 45.62 43.62 42.81 46.33
  A 1.50 1.48 22.9 0 1 41.78 46.74
  L 38.68 46.74
  A 0.28 0.28 0.0 0 1 38.43 46.32
  L 41.29 40.99
  A 2.36 2.29 -5.9 0 1 41.87 40.30
  L 47.23 36.04
  A 0.16 0.16 0.0 0 0 47.08 35.76
  Z
  M 40.33 29.63
  L 36.93 30.13
  A 2.11 2.10 61.1 0 1 35.25 29.64
  L 31.49 26.38
  A 0.33 0.33 0.0 0 0 30.97 26.74
  L 32.55 31.20
  A 0.60 0.59 -24.8 0 1 32.28 31.91
  L 28.31 34.20
  A 0.77 0.76 70.5 0 0 27.95 34.96
  L 29.04 42.44
  A 0.09 0.09 0.0 0 0 29.22 42.45
  L 31.12 36.43
  A 1.97 1.90 84.5 0 1 31.99 35.34
  L 40.59 30.38
  A 0.40 0.40 0.0 0 0 40.33 29.63
  Z
  M 22.59 43.97
  L 20.70 36.29
  A 5.27 5.24 46.4 0 1 20.76 33.55
  Q 21.38 31.42 22.18 28.30
  A 0.10 0.10 0.0 0 0 22.01 28.22
  L 17.35 33.61
  A 1.15 1.13 50.6 0 0 17.23 34.93
  L 22.47 44.01
  A 0.07 0.06 24.9 0 0 22.59 43.97
  Z"
/>
<path fill="#9d659e" d="
  M 40.59 30.38
  L 31.99 35.34
  A 1.97 1.90 84.5 0 0 31.12 36.43
  L 29.22 42.45
  A 0.09 0.09 0.0 0 1 29.04 42.44
  L 27.95 34.96
  A 0.77 0.76 70.5 0 1 28.31 34.20
  L 32.28 31.91
  A 0.60 0.59 -24.8 0 0 32.55 31.20
  L 30.97 26.74
  A 0.33 0.33 0.0 0 1 31.49 26.38
  L 35.25 29.64
  A 2.11 2.10 61.1 0 0 36.93 30.13
  L 40.33 29.63
  A 0.40 0.40 0.0 0 1 40.59 30.38
  Z"
/>
<path fill="#9d659e" d="
  M 22.47 44.01
  L 17.23 34.93
  A 1.15 1.13 50.6 0 1 17.35 33.61
  L 22.01 28.22
  A 0.10 0.10 0.0 0 1 22.18 28.30
  Q 21.38 31.42 20.76 33.55
  A 5.27 5.24 46.4 0 0 20.70 36.29
  L 22.59 43.97
  A 0.07 0.06 24.9 0 1 22.47 44.01
  Z"
/>
</svg>
