<?xml version="1.0" encoding="UTF-8" standalone="no"?>
<!DOCTYPE svg PUBLIC "-//W3C//DTD SVG 1.1//EN" "http://www.w3.org/Graphics/SVG/1.1/DTD/svg11.dtd">
<svg xmlns="http://www.w3.org/2000/svg" version="1.1" viewBox="0.00 0.00 66.00 88.00">
<g stroke-width="2.00" fill="none" stroke-linecap="butt">
<path stroke="#774c79" vector-effect="non-scaling-stroke" d="
  M 33.41 86.70
  Q 33.55 86.70 33.69 86.66
  A 0.15 0.11 3.5 0 0 33.74 86.63
  C 50.19 71.22 74.08 41.10 60.07 17.54
  C 54.48 8.14 44.68 2.76 33.75 2.47
  Q 33.64 2.46 33.53 2.46
  Q 33.42 2.46 33.31 2.47
  C 22.38 2.73 12.56 8.08 6.95 17.46
  C -7.13 40.99 16.67 71.17 33.08 86.63
  A 0.15 0.11 -3.3 0 0 33.13 86.66
  Q 33.27 86.70 33.41 86.70"
/>
<path stroke="#ceb2cf" vector-effect="non-scaling-stroke" d="
  M 14.91 33.52
  A 0.32 0.32 0.0 0 0 14.91 33.98
  L 32.43 51.50
  A 0.32 0.32 0.0 0 0 32.89 51.50
  L 50.41 33.98
  A 0.32 0.32 0.0 0 0 50.41 33.52
  L 48.91 32.02
  A 0.32 0.32 0.0 0 0 48.45 32.02
  L 39.06 41.42
  A 0.32 0.32 0.0 0 1 38.51 41.20
  L 38.51 37.92
  A 0.32 0.32 0.0 0 1 38.60 37.70
  L 46.41 29.89
  A 0.32 0.32 0.0 0 0 46.41 29.43
  L 39.07 22.09
  A 0.32 0.32 0.0 0 0 38.85 22.00
  L 36.10 22.00
  A 0.32 0.32 0.0 0 0 35.78 22.32
  L 35.78 44.56
  A 0.32 0.32 0.0 0 1 35.69 44.78
  L 32.90 47.56
  A 0.32 0.32 0.0 0 1 32.44 47.56
  L 30.00 45.12
  A 0.32 0.32 0.0 0 1 29.91 44.90
  L 29.91 22.36
  A 0.32 0.32 0.0 0 1 30.00 22.14
  L 34.32 17.82
  A 0.32 0.32 0.0 0 0 34.32 17.36
  L 32.93 15.96
  A 0.32 0.32 0.0 0 0 32.47 15.96
  L 14.91 33.52"
/>
<path stroke="#ceb2cf" vector-effect="non-scaling-stroke" d="
  M 27.16 25.76
  A 0.30 0.30 0.0 0 0 26.65 25.55
  L 20.48 31.72
  A 0.30 0.30 0.0 0 0 20.69 32.23
  L 26.88 32.25
  A 0.30 0.30 0.0 0 0 27.18 31.95
  L 27.16 25.76"
/>
<path stroke="#ceb2cf" vector-effect="non-scaling-stroke" d="
  M 38.53 29.74
  Q 38.52 32.48 38.54 33.43
  A 0.22 0.22 0.0 0 0 38.92 33.58
  C 40.61 31.91 42.56 30.13 42.56 29.75
  C 42.56 29.37 40.62 27.58 38.94 25.91
  A 0.22 0.22 0.0 0 0 38.56 26.06
  Q 38.53 27.01 38.53 29.74"
/>
<path stroke="#ceb2cf" vector-effect="non-scaling-stroke" d="
  M 20.67 35.05
  A 0.30 0.30 0.0 0 0 20.46 35.56
  L 26.66 41.70
  A 0.30 0.30 0.0 0 0 27.17 41.49
  L 27.16 35.30
  A 0.30 0.30 0.0 0 0 26.86 35.00
  L 20.67 35.05"
/>
</g>
<path fill="#503253" d="
  M 33.80 88.00
  L 33.13 88.00
  Q 16.42 73.17 6.63 53.83
  Q 2.34 45.33 1.64 35.47
  Q 0.95 25.69 5.37 17.76
  C 11.57 6.66 23.78 0.19 36.85 1.51
  C 53.44 3.18 66.06 17.31 65.46 33.92
  C 64.72 54.50 48.41 74.69 33.80 88.00
  Z
  M 33.41 86.70
  Q 33.55 86.70 33.69 86.66
  A 0.15 0.11 3.5 0 0 33.74 86.63
  C 50.19 71.22 74.08 41.10 60.07 17.54
  C 54.48 8.14 44.68 2.76 33.75 2.47
  Q 33.64 2.46 33.53 2.46
  Q 33.42 2.46 33.31 2.47
  C 22.38 2.73 12.56 8.08 6.95 17.46
  C -7.13 40.99 16.67 71.17 33.08 86.63
  A 0.15 0.11 -3.3 0 0 33.13 86.66
  Q 33.27 86.70 33.41 86.70
  Z"
/>
<path fill="#9d659e" d="
  M 33.53 2.46
  Q 33.64 2.46 33.75 2.47
  C 44.68 2.76 54.48 8.14 60.07 17.54
  C 74.08 41.10 50.19 71.22 33.74 86.63
  A 0.15 0.11 3.5 0 1 33.69 86.66
  Q 33.55 86.70 33.41 86.70
  Q 33.27 86.70 33.13 86.66
  A 0.15 0.11 -3.3 0 1 33.08 86.63
  C 16.67 71.17 -7.13 40.99 6.95 17.46
  C 12.56 8.08 22.38 2.73 33.31 2.47
  Q 33.42 2.46 33.53 2.46
  Z
  M 14.91 33.52
  A 0.32 0.32 0.0 0 0 14.91 33.98
  L 32.43 51.50
  A 0.32 0.32 0.0 0 0 32.89 51.50
  L 50.41 33.98
  A 0.32 0.32 0.0 0 0 50.41 33.52
  L 48.91 32.02
  A 0.32 0.32 0.0 0 0 48.45 32.02
  L 39.06 41.42
  A 0.32 0.32 0.0 0 1 38.51 41.20
  L 38.51 37.92
  A 0.32 0.32 0.0 0 1 38.60 37.70
  L 46.41 29.89
  A 0.32 0.32 0.0 0 0 46.41 29.43
  L 39.07 22.09
  A 0.32 0.32 0.0 0 0 38.85 22.00
  L 36.10 22.00
  A 0.32 0.32 0.0 0 0 35.78 22.32
  L 35.78 44.56
  A 0.32 0.32 0.0 0 1 35.69 44.78
  L 32.90 47.56
  A 0.32 0.32 0.0 0 1 32.44 47.56
  L 30.00 45.12
  A 0.32 0.32 0.0 0 1 29.91 44.90
  L 29.91 22.36
  A 0.32 0.32 0.0 0 1 30.00 22.14
  L 34.32 17.82
  A 0.32 0.32 0.0 0 0 34.32 17.36
  L 32.93 15.96
  A 0.32 0.32 0.0 0 0 32.47 15.96
  L 14.91 33.52
  Z"
/>
<path fill="#ffffff" d="
  M 14.91 33.52
  L 32.47 15.96
  A 0.32 0.32 0.0 0 1 32.93 15.96
  L 34.32 17.36
  A 0.32 0.32 0.0 0 1 34.32 17.82
  L 30.00 22.14
  A 0.32 0.32 0.0 0 0 29.91 22.36
  L 29.91 44.90
  A 0.32 0.32 0.0 0 0 30.00 45.12
  L 32.44 47.56
  A 0.32 0.32 0.0 0 0 32.90 47.56
  L 35.69 44.78
  A 0.32 0.32 0.0 0 0 35.78 44.56
  L 35.78 22.32
  A 0.32 0.32 0.0 0 1 36.10 22.00
  L 38.85 22.00
  A 0.32 0.32 0.0 0 1 39.07 22.09
  L 46.41 29.43
  A 0.32 0.32 0.0 0 1 46.41 29.89
  L 38.60 37.70
  A 0.32 0.32 0.0 0 0 38.51 37.92
  L 38.51 41.20
  A 0.32 0.32 0.0 0 0 39.06 41.42
  L 48.45 32.02
  A 0.32 0.32 0.0 0 1 48.91 32.02
  L 50.41 33.52
  A 0.32 0.32 0.0 0 1 50.41 33.98
  L 32.89 51.50
  A 0.32 0.32 0.0 0 1 32.43 51.50
  L 14.91 33.98
  A 0.32 0.32 0.0 0 1 14.91 33.52
  Z
  M 27.16 25.76
  A 0.30 0.30 0.0 0 0 26.65 25.55
  L 20.48 31.72
  A 0.30 0.30 0.0 0 0 20.69 32.23
  L 26.88 32.25
  A 0.30 0.30 0.0 0 0 27.18 31.95
  L 27.16 25.76
  Z
  M 38.53 29.74
  Q 38.52 32.48 38.54 33.43
  A 0.22 0.22 0.0 0 0 38.92 33.58
  C 40.61 31.91 42.56 30.13 42.56 29.75
  C 42.56 29.37 40.62 27.58 38.94 25.91
  A 0.22 0.22 0.0 0 0 38.56 26.06
  Q 38.53 27.01 38.53 29.74
  Z
  M 20.67 35.05
  A 0.30 0.30 0.0 0 0 20.46 35.56
  L 26.66 41.70
  A 0.30 0.30 0.0 0 0 27.17 41.49
  L 27.16 35.30
  A 0.30 0.30 0.0 0 0 26.86 35.00
  L 20.67 35.05
  Z"
/>
<path fill="#9d659e" d="
  M 27.16 25.76
  L 27.18 31.95
  A 0.30 0.30 0.0 0 1 26.88 32.25
  L 20.69 32.23
  A 0.30 0.30 0.0 0 1 20.48 31.72
  L 26.65 25.55
  A 0.30 0.30 0.0 0 1 27.16 25.76
  Z"
/>
<path fill="#9d659e" d="
  M 42.56 29.75
  C 42.56 30.13 40.61 31.91 38.92 33.58
  A 0.22 0.22 0.0 0 1 38.54 33.43
  Q 38.52 32.48 38.53 29.74
  Q 38.53 27.01 38.56 26.06
  A 0.22 0.22 0.0 0 1 38.94 25.91
  C 40.62 27.58 42.56 29.37 42.56 29.75
  Z"
/>
<path fill="#9d659e" d="
  M 20.67 35.05
  L 26.86 35.00
  A 0.30 0.30 0.0 0 1 27.16 35.30
  L 27.17 41.49
  A 0.30 0.30 0.0 0 1 26.66 41.70
  L 20.46 35.56
  A 0.30 0.30 0.0 0 1 20.67 35.05
  Z"
/>
</svg>
