<?xml version="1.0" encoding="UTF-8" standalone="no"?>
<!DOCTYPE svg PUBLIC "-//W3C//DTD SVG 1.1//EN" "http://www.w3.org/Graphics/SVG/1.1/DTD/svg11.dtd">
<svg xmlns="http://www.w3.org/2000/svg" version="1.1" viewBox="0.00 0.00 66.00 88.00">
<g stroke-width="2.00" fill="none" stroke-linecap="butt">
<path stroke="#6d201d" vector-effect="non-scaling-stroke" d="
  M 33.41 86.64
  Q 33.61 86.64 33.73 86.54
  C 46.70 74.47 59.81 58.07 63.49 40.57
  C 66.18 27.77 61.96 15.63 51.15 8.01
  C 46.26 4.56 39.96 2.54 33.53 2.53
  C 27.10 2.52 20.79 4.53 15.89 7.96
  C 5.06 15.55 0.80 27.67 3.46 40.48
  C 7.09 57.99 20.15 74.43 33.09 86.54
  Q 33.20 86.64 33.41 86.64"
/>
<path stroke="#c79593" vector-effect="non-scaling-stroke" d="
  M 32.66 48.64
  Q 33.13 48.64 33.91 46.38
  A 0.31 0.31 0.0 0 1 34.47 46.32
  L 35.65 48.38
  A 0.33 0.32 -52.5 0 0 36.23 48.34
  Q 36.57 47.58 36.69 46.45
  A 0.30 0.30 0.0 0 1 37.27 46.37
  Q 38.28 48.83 38.00 51.36
  A 0.47 0.47 0.0 0 0 38.86 51.67
  Q 42.93 45.67 39.50 39.95
  A 0.38 0.38 0.0 0 1 39.89 39.38
  L 44.09 40.10
  A 1.13 1.12 29.6 0 0 45.01 39.85
  Q 46.13 38.90 45.74 37.88
  C 44.84 35.56 45.17 32.54 44.99 30.83
  A 1.02 1.02 0.0 0 0 43.87 29.91
  L 36.96 30.56
  A 0.27 0.27 0.0 0 1 36.74 30.10
  C 38.59 28.20 41.31 27.77 44.07 27.46
  A 0.55 0.55 0.0 0 0 44.56 26.87
  C 44.03 20.37 39.00 15.80 32.67 15.80
  C 26.33 15.80 21.31 20.37 20.77 26.86
  A 0.55 0.55 0.0 0 0 21.26 27.45
  C 24.02 27.76 26.74 28.20 28.59 30.10
  A 0.27 0.27 0.0 0 1 28.37 30.56
  L 21.46 29.90
  A 1.02 1.02 0.0 0 0 20.34 30.82
  C 20.15 32.53 20.48 35.55 19.58 37.87
  Q 19.19 38.89 20.31 39.84
  A 1.13 1.12 -29.6 0 0 21.23 40.09
  L 25.43 39.38
  A 0.38 0.38 0.0 0 1 25.82 39.95
  Q 22.39 45.66 26.45 51.67
  A 0.47 0.47 0.0 0 0 27.31 51.36
  Q 27.03 48.83 28.05 46.37
  A 0.30 0.30 0.0 0 1 28.63 46.45
  Q 28.75 47.58 29.09 48.34
  A 0.33 0.32 -87.8 0 0 29.67 48.38
  L 30.85 46.32
  A 0.31 0.31 0.0 0 1 31.40 46.37
  Q 32.19 48.64 32.66 48.64"
/>
<path stroke="#c79593" vector-effect="non-scaling-stroke" d="
  M 30.50 34.69
  A 0.32 0.31 40.4 0 0 30.45 34.12
  L 22.67 31.23
  A 0.66 0.66 0.0 0 0 21.81 31.62
  L 20.91 34.05
  A 0.82 0.82 0.0 0 0 21.10 34.91
  L 23.53 37.34
  A 1.63 1.61 -37.3 0 0 25.48 37.59
  L 30.50 34.69"
/>
<path stroke="#c79593" vector-effect="non-scaling-stroke" d="
  M 34.92 34.70
  L 39.92 37.59
  A 1.62 1.60 37.4 0 0 41.86 37.34
  L 44.28 34.92
  A 0.82 0.81 -32.6 0 0 44.47 34.07
  L 43.58 31.64
  A 0.66 0.66 0.0 0 0 42.72 31.26
  L 34.97 34.13
  A 0.32 0.31 -40.3 0 0 34.92 34.70"
/>
<path stroke="#c79593" vector-effect="non-scaling-stroke" d="
  M 32.68 40.58
  Q 33.53 40.57 34.73 41.66
  A 0.35 0.35 0.0 0 0 35.27 41.24
  L 32.77 36.48
  A 0.17 0.16 85.8 0 0 32.68 36.40
  Q 32.66 36.39 32.63 36.39
  Q 32.61 36.39 32.58 36.40
  A 0.17 0.16 -87.1 0 0 32.50 36.48
  L 30.10 41.30
  A 0.35 0.35 0.0 0 0 30.66 41.71
  Q 31.82 40.59 32.68 40.58"
/>
</g>
<path fill="#4b1512" d="
  M 33.82 88.00
  L 33.04 88.00
  C 21.78 77.76 12.08 65.65 5.65 51.57
  Q 2.21 44.05 1.60 34.90
  C 0.54 18.98 11.21 5.65 26.49 2.10
  C 40.58 -1.17 55.22 5.58 62.14 18.80
  C 67.44 28.91 65.84 41.37 61.23 51.71
  C 55.09 65.51 44.93 77.84 33.82 88.00
  Z
  M 33.41 86.64
  Q 33.61 86.64 33.73 86.54
  C 46.70 74.47 59.81 58.07 63.49 40.57
  C 66.18 27.77 61.96 15.63 51.15 8.01
  C 46.26 4.56 39.96 2.54 33.53 2.53
  C 27.10 2.52 20.79 4.53 15.89 7.96
  C 5.06 15.55 0.80 27.67 3.46 40.48
  C 7.09 57.99 20.15 74.43 33.09 86.54
  Q 33.20 86.64 33.41 86.64
  Z"
/>
<path fill="#8e2b27" d="
  M 33.53 2.53
  C 39.96 2.54 46.26 4.56 51.15 8.01
  C 61.96 15.63 66.18 27.77 63.49 40.57
  C 59.81 58.07 46.70 74.47 33.73 86.54
  Q 33.61 86.64 33.41 86.64
  Q 33.20 86.64 33.09 86.54
  C 20.15 74.43 7.09 57.99 3.46 40.48
  C 0.80 27.67 5.06 15.55 15.89 7.96
  C 20.79 4.53 27.10 2.52 33.53 2.53
  Z
  M 32.66 48.64
  Q 33.13 48.64 33.91 46.38
  A 0.31 0.31 0.0 0 1 34.47 46.32
  L 35.65 48.38
  A 0.33 0.32 -52.5 0 0 36.23 48.34
  Q 36.57 47.58 36.69 46.45
  A 0.30 0.30 0.0 0 1 37.27 46.37
  Q 38.28 48.83 38.00 51.36
  A 0.47 0.47 0.0 0 0 38.86 51.67
  Q 42.93 45.67 39.50 39.95
  A 0.38 0.38 0.0 0 1 39.89 39.38
  L 44.09 40.10
  A 1.13 1.12 29.6 0 0 45.01 39.85
  Q 46.13 38.90 45.74 37.88
  C 44.84 35.56 45.17 32.54 44.99 30.83
  A 1.02 1.02 0.0 0 0 43.87 29.91
  L 36.96 30.56
  A 0.27 0.27 0.0 0 1 36.74 30.10
  C 38.59 28.20 41.31 27.77 44.07 27.46
  A 0.55 0.55 0.0 0 0 44.56 26.87
  C 44.03 20.37 39.00 15.80 32.67 15.80
  C 26.33 15.80 21.31 20.37 20.77 26.86
  A 0.55 0.55 0.0 0 0 21.26 27.45
  C 24.02 27.76 26.74 28.20 28.59 30.10
  A 0.27 0.27 0.0 0 1 28.37 30.56
  L 21.46 29.90
  A 1.02 1.02 0.0 0 0 20.34 30.82
  C 20.15 32.53 20.48 35.55 19.58 37.87
  Q 19.19 38.89 20.31 39.84
  A 1.13 1.12 -29.6 0 0 21.23 40.09
  L 25.43 39.38
  A 0.38 0.38 0.0 0 1 25.82 39.95
  Q 22.39 45.66 26.45 51.67
  A 0.47 0.47 0.0 0 0 27.31 51.36
  Q 27.03 48.83 28.05 46.37
  A 0.30 0.30 0.0 0 1 28.63 46.45
  Q 28.75 47.58 29.09 48.34
  A 0.33 0.32 -87.8 0 0 29.67 48.38
  L 30.85 46.32
  A 0.31 0.31 0.0 0 1 31.40 46.37
  Q 32.19 48.64 32.66 48.64
  Z"
/>
<path fill="#ffffff" d="
  M 32.67 15.80
  C 39.00 15.80 44.03 20.37 44.56 26.87
  A 0.55 0.55 0.0 0 1 44.07 27.46
  C 41.31 27.77 38.59 28.20 36.74 30.10
  A 0.27 0.27 0.0 0 0 36.96 30.56
  L 43.87 29.91
  A 1.02 1.02 0.0 0 1 44.99 30.83
  C 45.17 32.54 44.84 35.56 45.74 37.88
  Q 46.13 38.90 45.01 39.85
  A 1.13 1.12 29.6 0 1 44.09 40.10
  L 39.89 39.38
  A 0.38 0.38 0.0 0 0 39.50 39.95
  Q 42.93 45.67 38.86 51.67
  A 0.47 0.47 0.0 0 1 38.00 51.36
  Q 38.28 48.83 37.27 46.37
  A 0.30 0.30 0.0 0 0 36.69 46.45
  Q 36.57 47.58 36.23 48.34
  A 0.33 0.32 -13.0 0 1 35.65 48.38
  L 34.47 46.32
  A 0.31 0.31 0.0 0 0 33.91 46.38
  Q 33.13 48.64 32.66 48.64
  Q 32.19 48.64 31.40 46.37
  A 0.31 0.31 0.0 0 0 30.85 46.32
  L 29.67 48.38
  A 0.32 0.32 0.0 0 1 29.09 48.34
  Q 28.75 47.58 28.63 46.45
  A 0.30 0.30 0.0 0 0 28.05 46.37
  Q 27.03 48.83 27.31 51.36
  A 0.47 0.47 0.0 0 1 26.45 51.67
  Q 22.39 45.66 25.82 39.95
  A 0.38 0.38 0.0 0 0 25.43 39.38
  L 21.23 40.09
  A 1.13 1.12 -29.6 0 1 20.31 39.84
  Q 19.19 38.89 19.58 37.87
  C 20.48 35.55 20.15 32.53 20.34 30.82
  A 1.02 1.02 0.0 0 1 21.46 29.90
  L 28.37 30.56
  A 0.27 0.27 0.0 0 0 28.59 30.10
  C 26.74 28.20 24.02 27.76 21.26 27.45
  A 0.55 0.55 0.0 0 1 20.77 26.86
  C 21.31 20.37 26.33 15.80 32.67 15.80
  Z
  M 30.50 34.69
  A 0.32 0.31 40.4 0 0 30.45 34.12
  L 22.67 31.23
  A 0.66 0.66 0.0 0 0 21.81 31.62
  L 20.91 34.05
  A 0.82 0.82 0.0 0 0 21.10 34.91
  L 23.53 37.34
  A 1.63 1.61 -37.3 0 0 25.48 37.59
  L 30.50 34.69
  Z
  M 34.92 34.70
  L 39.92 37.59
  A 1.62 1.60 37.4 0 0 41.86 37.34
  L 44.28 34.92
  A 0.82 0.81 -32.6 0 0 44.47 34.07
  L 43.58 31.64
  A 0.66 0.66 0.0 0 0 42.72 31.26
  L 34.97 34.13
  A 0.32 0.31 -40.3 0 0 34.92 34.70
  Z
  M 32.68 40.58
  Q 33.53 40.57 34.73 41.66
  A 0.35 0.35 0.0 0 0 35.27 41.24
  L 32.77 36.48
  A 0.17 0.16 85.8 0 0 32.68 36.40
  Q 32.66 36.39 32.63 36.39
  Q 32.61 36.39 32.58 36.40
  A 0.17 0.16 -87.1 0 0 32.50 36.48
  L 30.10 41.30
  A 0.35 0.35 0.0 0 0 30.66 41.71
  Q 31.82 40.59 32.68 40.58
  Z"
/>
<path fill="#8e2b27" d="
  M 30.50 34.69
  L 25.48 37.59
  A 1.63 1.61 -37.3 0 1 23.53 37.34
  L 21.10 34.91
  A 0.82 0.82 0.0 0 1 20.91 34.05
  L 21.81 31.62
  A 0.66 0.66 0.0 0 1 22.67 31.23
  L 30.45 34.12
  A 0.32 0.31 40.4 0 1 30.50 34.69
  Z"
/>
<path fill="#8e2b27" d="
  M 34.92 34.70
  A 0.32 0.31 -40.3 0 1 34.97 34.13
  L 42.72 31.26
  A 0.66 0.66 0.0 0 1 43.58 31.64
  L 44.47 34.07
  A 0.82 0.81 -32.6 0 1 44.28 34.92
  L 41.86 37.34
  A 1.62 1.60 37.4 0 1 39.92 37.59
  L 34.92 34.70
  Z"
/>
<path fill="#8e2b27" d="
  M 32.63 36.39
  Q 32.66 36.39 32.68 36.40
  A 0.17 0.16 85.8 0 1 32.77 36.48
  L 35.27 41.24
  A 0.35 0.35 0.0 0 1 34.73 41.66
  Q 33.53 40.57 32.68 40.58
  Q 31.82 40.59 30.66 41.71
  A 0.35 0.35 0.0 0 1 30.10 41.30
  L 32.50 36.48
  A 0.17 0.16 -87.1 0 1 32.58 36.40
  Q 32.61 36.39 32.63 36.39
  Z"
/>
</svg>
