<?xml version="1.0" encoding="UTF-8" standalone="no"?>
<!DOCTYPE svg PUBLIC "-//W3C//DTD SVG 1.1//EN" "http://www.w3.org/Graphics/SVG/1.1/DTD/svg11.dtd">
<svg xmlns="http://www.w3.org/2000/svg" version="1.1" viewBox="0.00 0.00 66.00 88.00">
<g stroke-width="2.00" fill="none" stroke-linecap="butt">
<path stroke="#5e5656" vector-effect="non-scaling-stroke" d="
  M 33.40 86.68
  Q 33.54 86.68 33.67 86.65
  A 0.27 0.12 -51.4 0 0 33.73 86.62
  Q 47.49 73.65 56.32 58.83
  C 64.84 44.55 68.85 25.72 56.06 12.25
  Q 47.14 2.84 33.75 2.47
  Q 33.64 2.47 33.52 2.47
  Q 33.41 2.47 33.30 2.47
  Q 19.91 2.80 10.96 12.19
  C -1.87 25.62 2.09 44.46 10.57 58.76
  Q 19.36 73.61 33.08 86.62
  A 0.27 0.12 51.5 0 0 33.14 86.65
  Q 33.27 86.68 33.40 86.68"
/>
<path stroke="#beb8b9" vector-effect="non-scaling-stroke" d="
  M 50.71 28.47
  Q 52.44 23.66 49.03 20.54
  C 45.11 16.94 41.91 18.40 38.43 22.00
  Q 35.29 25.24 31.90 28.52
  A 0.61 0.61 0.0 0 0 32.17 29.54
  C 33.17 29.80 33.82 29.07 34.61 28.59
  Q 38.45 26.25 42.12 22.43
  C 45.86 18.54 49.56 25.38 50.18 28.43
  A 0.28 0.27 49.1 0 0 50.71 28.47"
/>
<path stroke="#beb8b9" vector-effect="non-scaling-stroke" d="
  M 40.20 27.25
  Q 40.22 27.25 42.07 25.86
  A 1.87 1.86 -39.7 0 1 44.56 26.09
  Q 46.76 28.47 46.59 31.10
  A 0.33 0.33 0.0 0 0 47.22 31.26
  Q 49.20 27.02 45.18 23.96
  A 1.74 1.74 0.0 0 0 42.93 24.07
  L 40.01 26.81
  A 0.26 0.25 -68.5 0 0 40.20 27.25"
/>
<path stroke="#beb8b9" vector-effect="non-scaling-stroke" d="
  M 25.98 34.08
  Q 28.74 32.89 29.93 35.73
  A 0.29 0.29 0.0 0 0 30.49 35.67
  Q 30.88 33.40 28.08 32.53
  A 0.31 0.31 0.0 0 1 28.07 31.95
  Q 30.90 30.93 32.04 34.01
  A 0.24 0.24 0.0 0 0 32.50 33.93
  Q 32.51 30.24 29.09 30.50
  A 1.78 1.78 0.0 0 0 27.95 31.03
  L 22.89 36.09
  A 0.22 0.22 0.0 0 0 23.16 36.44
  Q 26.45 34.58 28.20 37.96
  A 0.21 0.21 0.0 0 0 28.60 37.86
  Q 28.57 34.93 26.05 34.61
  A 0.28 0.27 -53.0 0 1 25.98 34.08"
/>
<path stroke="#beb8b9" vector-effect="non-scaling-stroke" d="
  M 25.72 38.02
  A 0.82 0.81 -55.4 0 0 24.40 38.27
  Q 22.55 42.36 19.00 42.53
  C 14.81 42.73 16.56 35.33 20.99 39.21
  A 0.50 0.49 -46.3 0 0 21.66 39.19
  L 21.92 38.93
  A 0.97 0.97 0.0 0 0 21.79 37.45
  Q 18.30 35.00 15.54 37.65
  Q 14.50 38.66 14.69 40.27
  C 15.15 44.03 18.06 45.26 21.43 43.85
  Q 24.67 42.51 26.13 38.97
  A 0.61 0.61 0.0 0 0 26.00 38.30
  L 25.72 38.02"
/>
<path stroke="#beb8b9" vector-effect="non-scaling-stroke" d="
  M 25.18 43.49
  Q 24.59 43.82 23.01 46.28
  A 1.60 1.58 8.7 0 1 22.09 46.95
  L 18.51 47.87
  A 0.75 0.75 0.0 0 0 18.66 49.35
  C 21.97 49.52 26.07 47.53 25.82 43.84
  A 0.43 0.43 0.0 0 0 25.18 43.49"
/>
</g>
<path fill="#3f3a39" d="
  M 33.79 88.00
  L 33.04 88.00
  C 21.77 77.76 11.95 65.52 5.58 51.41
  Q 2.15 43.80 1.59 34.82
  C 0.35 15.10 17.22 -0.31 36.51 1.46
  C 45.42 2.28 53.99 6.93 59.27 14.17
  Q 67.41 25.33 64.93 39.27
  Q 62.66 51.96 54.98 63.46
  Q 45.96 76.96 33.79 88.00
  Z
  M 33.40 86.68
  Q 33.54 86.68 33.67 86.65
  A 0.27 0.12 -51.4 0 0 33.73 86.62
  Q 47.49 73.65 56.32 58.83
  C 64.84 44.55 68.85 25.72 56.06 12.25
  Q 47.14 2.84 33.75 2.47
  Q 33.64 2.47 33.52 2.47
  Q 33.41 2.47 33.30 2.47
  Q 19.91 2.80 10.96 12.19
  C -1.87 25.62 2.09 44.46 10.57 58.76
  Q 19.36 73.61 33.08 86.62
  A 0.27 0.12 51.5 0 0 33.14 86.65
  Q 33.27 86.68 33.40 86.68
  Z"
/>
<path fill="#7c7173" d="
  M 33.52 2.47
  Q 33.64 2.47 33.75 2.47
  Q 47.14 2.84 56.06 12.25
  C 68.85 25.72 64.84 44.55 56.32 58.83
  Q 47.49 73.65 33.73 86.62
  A 0.27 0.12 -51.4 0 1 33.67 86.65
  Q 33.54 86.68 33.40 86.68
  Q 33.27 86.68 33.14 86.65
  A 0.27 0.12 51.5 0 1 33.08 86.62
  Q 19.36 73.61 10.57 58.76
  C 2.09 44.46 -1.87 25.62 10.96 12.19
  Q 19.91 2.80 33.30 2.47
  Q 33.41 2.47 33.52 2.47
  Z
  M 50.71 28.47
  Q 52.44 23.66 49.03 20.54
  C 45.11 16.94 41.91 18.40 38.43 22.00
  Q 35.29 25.24 31.90 28.52
  A 0.61 0.61 0.0 0 0 32.17 29.54
  C 33.17 29.80 33.82 29.07 34.61 28.59
  Q 38.45 26.25 42.12 22.43
  C 45.86 18.54 49.56 25.38 50.18 28.43
  A 0.28 0.27 49.1 0 0 50.71 28.47
  Z
  M 40.20 27.25
  Q 40.22 27.25 42.07 25.86
  A 1.87 1.86 -39.7 0 1 44.56 26.09
  Q 46.76 28.47 46.59 31.10
  A 0.33 0.33 0.0 0 0 47.22 31.26
  Q 49.20 27.02 45.18 23.96
  A 1.74 1.74 0.0 0 0 42.93 24.07
  L 40.01 26.81
  A 0.26 0.25 -68.5 0 0 40.20 27.25
  Z
  M 25.98 34.08
  Q 28.74 32.89 29.93 35.73
  A 0.29 0.29 0.0 0 0 30.49 35.67
  Q 30.88 33.40 28.08 32.53
  A 0.31 0.31 0.0 0 1 28.07 31.95
  Q 30.90 30.93 32.04 34.01
  A 0.24 0.24 0.0 0 0 32.50 33.93
  Q 32.51 30.24 29.09 30.50
  A 1.78 1.78 0.0 0 0 27.95 31.03
  L 22.89 36.09
  A 0.22 0.22 0.0 0 0 23.16 36.44
  Q 26.45 34.58 28.20 37.96
  A 0.21 0.21 0.0 0 0 28.60 37.86
  Q 28.57 34.93 26.05 34.61
  A 0.28 0.27 -53.0 0 1 25.98 34.08
  Z
  M 25.72 38.02
  A 0.82 0.81 -55.4 0 0 24.40 38.27
  Q 22.55 42.36 19.00 42.53
  C 14.81 42.73 16.56 35.33 20.99 39.21
  A 0.50 0.49 -46.3 0 0 21.66 39.19
  L 21.92 38.93
  A 0.97 0.97 0.0 0 0 21.79 37.45
  Q 18.30 35.00 15.54 37.65
  Q 14.50 38.66 14.69 40.27
  C 15.15 44.03 18.06 45.26 21.43 43.85
  Q 24.67 42.51 26.13 38.97
  A 0.61 0.61 0.0 0 0 26.00 38.30
  L 25.72 38.02
  Z
  M 25.18 43.49
  Q 24.59 43.82 23.01 46.28
  A 1.60 1.58 8.7 0 1 22.09 46.95
  L 18.51 47.87
  A 0.75 0.75 0.0 0 0 18.66 49.35
  C 21.97 49.52 26.07 47.53 25.82 43.84
  A 0.43 0.43 0.0 0 0 25.18 43.49
  Z"
/>
<path fill="#ffffff" d="
  M 50.71 28.47
  A 0.28 0.27 49.1 0 1 50.18 28.43
  C 49.56 25.38 45.86 18.54 42.12 22.43
  Q 38.45 26.25 34.61 28.59
  C 33.82 29.07 33.17 29.80 32.17 29.54
  A 0.61 0.61 0.0 0 1 31.90 28.52
  Q 35.29 25.24 38.43 22.00
  C 41.91 18.40 45.11 16.94 49.03 20.54
  Q 52.44 23.66 50.71 28.47
  Z"
/>
<path fill="#ffffff" d="
  M 40.01 26.81
  L 42.93 24.07
  A 1.74 1.74 0.0 0 1 45.18 23.96
  Q 49.20 27.02 47.22 31.26
  A 0.33 0.33 0.0 0 1 46.59 31.10
  Q 46.76 28.47 44.56 26.09
  A 1.87 1.86 -39.7 0 0 42.07 25.86
  Q 40.22 27.25 40.20 27.25
  A 0.26 0.25 -68.5 0 1 40.01 26.81
  Z"
/>
<path fill="#ffffff" d="
  M 26.05 34.61
  Q 28.57 34.93 28.60 37.86
  A 0.21 0.21 0.0 0 1 28.20 37.96
  Q 26.45 34.58 23.16 36.44
  A 0.22 0.22 0.0 0 1 22.89 36.09
  L 27.95 31.03
  A 1.78 1.78 0.0 0 1 29.09 30.50
  Q 32.51 30.24 32.50 33.93
  A 0.24 0.24 0.0 0 1 32.04 34.01
  Q 30.90 30.93 28.07 31.95
  A 0.31 0.31 0.0 0 0 28.08 32.53
  Q 30.88 33.40 30.49 35.67
  A 0.29 0.29 0.0 0 1 29.93 35.73
  Q 28.74 32.89 25.98 34.08
  A 0.28 0.27 -53.0 0 0 26.05 34.61
  Z"
/>
<path fill="#ffffff" d="
  M 25.72 38.02
  L 26.00 38.30
  A 0.61 0.61 0.0 0 1 26.13 38.97
  Q 24.67 42.51 21.43 43.85
  C 18.06 45.26 15.15 44.03 14.69 40.27
  Q 14.50 38.66 15.54 37.65
  Q 18.30 35.00 21.79 37.45
  A 0.97 0.97 0.0 0 1 21.92 38.93
  L 21.66 39.19
  A 0.50 0.49 -46.3 0 1 20.99 39.21
  C 16.56 35.33 14.81 42.73 19.00 42.53
  Q 22.55 42.36 24.40 38.27
  A 0.82 0.81 -55.4 0 1 25.72 38.02
  Z"
/>
<path fill="#ffffff" d="
  M 25.82 43.84
  C 26.07 47.53 21.97 49.52 18.66 49.35
  A 0.75 0.75 0.0 0 1 18.51 47.87
  L 22.09 46.95
  A 1.60 1.58 8.7 0 0 23.01 46.28
  Q 24.59 43.82 25.18 43.49
  A 0.43 0.43 0.0 0 1 25.82 43.84
  Z"
/>
</svg>
