<?xml version="1.0" encoding="UTF-8" standalone="no"?>
<!DOCTYPE svg PUBLIC "-//W3C//DTD SVG 1.1//EN" "http://www.w3.org/Graphics/SVG/1.1/DTD/svg11.dtd">
<svg xmlns="http://www.w3.org/2000/svg" version="1.1" viewBox="0.00 0.00 66.00 88.00">
<g stroke-width="2.00" fill="none" stroke-linecap="butt">
<path stroke="#905c35" vector-effect="non-scaling-stroke" d="
  M 33.39 86.69
  Q 33.51 86.69 33.61 86.67
  Q 33.64 86.66 33.76 86.55
  C 49.44 71.83 72.70 42.97 61.37 19.88
  Q 55.90 8.76 43.99 4.35
  Q 38.91 2.47 33.55 2.46
  Q 28.19 2.45 23.10 4.31
  Q 11.18 8.67 5.67 19.77
  C -5.75 42.82 17.40 71.77 33.02 86.55
  Q 33.14 86.66 33.17 86.66
  Q 33.27 86.69 33.39 86.69"
/>
<path stroke="#debda4" vector-effect="non-scaling-stroke" d="
  M 47.58 18.16
  Q 44.59 14.41 39.61 16.68
  A 0.98 0.91 -78.0 0 0 39.34 16.87
  L 37.38 18.83
  A 0.41 0.32 7.0 0 1 37.23 18.92
  Q 30.62 20.66 32.02 27.01
  Q 32.07 27.25 32.49 27.91
  Q 32.91 28.57 33.02 28.74
  A 0.73 0.73 0.0 0 1 33.03 29.49
  L 30.84 33.29
  A 0.27 0.27 0.0 0 1 30.37 33.29
  L 28.31 29.72
  A 1.10 1.08 -44.5 0 1 28.33 28.58
  Q 30.60 25.00 28.35 21.65
  C 24.24 15.58 15.22 20.78 17.96 27.32
  Q 19.51 31.00 23.98 31.06
  A 0.90 0.89 -13.8 0 1 24.75 31.52
  L 27.48 36.23
  A 1.01 1.01 0.0 0 0 28.36 36.74
  L 33.01 36.74
  A 0.76 0.73 14.2 0 0 33.66 36.37
  L 36.41 31.61
  A 1.15 1.15 0.0 0 1 37.31 31.04
  L 39.16 30.89
  A 1.41 1.21 26.2 0 0 39.59 30.78
  Q 45.04 28.36 43.41 22.72
  A 3.43 3.36 -75.8 0 0 42.57 21.28
  L 41.74 20.46
  A 0.60 0.59 -42.2 0 1 41.79 19.58
  Q 43.77 17.99 47.20 18.77
  A 0.38 0.38 0.0 0 0 47.58 18.16"
/>
<path stroke="#debda4" vector-effect="non-scaling-stroke" d="
  M 30.61 42.35
  Q 30.69 42.35 30.86 42.42
  A 0.14 0.09 75.9 0 1 30.91 42.46
  L 36.30 51.99
  A 0.47 0.46 -57.0 0 0 37.17 51.80
  Q 37.80 45.23 33.62 39.23
  A 1.01 0.99 74.8 0 0 32.88 38.80
  Q 32.51 38.77 30.61 38.77
  Q 28.71 38.77 28.34 38.80
  A 1.01 0.99 -74.7 0 0 27.61 39.23
  Q 23.42 45.22 24.05 51.79
  A 0.47 0.46 57.1 0 0 24.92 51.99
  L 30.31 42.46
  A 0.14 0.09 -75.9 0 1 30.36 42.42
  Q 30.53 42.35 30.61 42.35"
/>
<path stroke="#debda4" vector-effect="non-scaling-stroke" d="
  M 26.41 25.02
  A 2.97 2.97 0.0 0 0 23.44 22.05
  A 2.97 2.97 0.0 0 0 20.47 25.02
  A 2.97 2.97 0.0 0 0 23.44 27.99
  A 2.97 2.97 0.0 0 0 26.41 25.02"
/>
<path stroke="#debda4" vector-effect="non-scaling-stroke" d="
  M 40.75 25.01
  A 2.97 2.97 0.0 0 0 37.78 22.04
  A 2.97 2.97 0.0 0 0 34.81 25.01
  A 2.97 2.97 0.0 0 0 37.78 27.98
  A 2.97 2.97 0.0 0 0 40.75 25.01"
/>
</g>
<path fill="#623d22" d="
  M 33.81 88.00
  L 33.03 88.00
  C 21.98 77.95 11.88 65.48 5.66 51.61
  Q 0.17 39.37 2.06 26.66
  Q 2.84 21.44 6.59 15.83
  C 20.35 -4.71 51.33 -3.32 62.46 19.44
  C 67.02 28.76 65.95 40.16 62.13 49.57
  C 56.15 64.25 45.46 77.37 33.81 88.00
  Z
  M 33.39 86.69
  Q 33.51 86.69 33.61 86.67
  Q 33.64 86.66 33.76 86.55
  C 49.44 71.83 72.70 42.97 61.37 19.88
  Q 55.90 8.76 43.99 4.35
  Q 38.91 2.47 33.55 2.46
  Q 28.19 2.45 23.10 4.31
  Q 11.18 8.67 5.67 19.77
  C -5.75 42.82 17.40 71.77 33.02 86.55
  Q 33.14 86.66 33.17 86.66
  Q 33.27 86.69 33.39 86.69
  Z"
/>
<path fill="#bd7b48" d="
  M 33.55 2.46
  Q 38.91 2.47 43.99 4.35
  Q 55.90 8.76 61.37 19.88
  C 72.70 42.97 49.44 71.83 33.76 86.55
  Q 33.64 86.66 33.61 86.67
  Q 33.51 86.69 33.39 86.69
  Q 33.27 86.69 33.17 86.66
  Q 33.14 86.66 33.02 86.55
  C 17.40 71.77 -5.75 42.82 5.67 19.77
  Q 11.18 8.67 23.10 4.31
  Q 28.19 2.45 33.55 2.46
  Z
  M 47.58 18.16
  Q 44.59 14.41 39.61 16.68
  A 0.98 0.91 -78.0 0 0 39.34 16.87
  L 37.38 18.83
  A 0.41 0.32 7.0 0 1 37.23 18.92
  Q 30.62 20.66 32.02 27.01
  Q 32.07 27.25 32.49 27.91
  Q 32.91 28.57 33.02 28.74
  A 0.73 0.73 0.0 0 1 33.03 29.49
  L 30.84 33.29
  A 0.27 0.27 0.0 0 1 30.37 33.29
  L 28.31 29.72
  A 1.10 1.08 -44.5 0 1 28.33 28.58
  Q 30.60 25.00 28.35 21.65
  C 24.24 15.58 15.22 20.78 17.96 27.32
  Q 19.51 31.00 23.98 31.06
  A 0.90 0.89 -13.8 0 1 24.75 31.52
  L 27.48 36.23
  A 1.01 1.01 0.0 0 0 28.36 36.74
  L 33.01 36.74
  A 0.76 0.73 14.2 0 0 33.66 36.37
  L 36.41 31.61
  A 1.15 1.15 0.0 0 1 37.31 31.04
  L 39.16 30.89
  A 1.41 1.21 26.2 0 0 39.59 30.78
  Q 45.04 28.36 43.41 22.72
  A 3.43 3.36 -75.8 0 0 42.57 21.28
  L 41.74 20.46
  A 0.60 0.59 -42.2 0 1 41.79 19.58
  Q 43.77 17.99 47.20 18.77
  A 0.38 0.38 0.0 0 0 47.58 18.16
  Z
  M 30.61 42.35
  Q 30.69 42.35 30.86 42.42
  A 0.14 0.09 75.9 0 1 30.91 42.46
  L 36.30 51.99
  A 0.47 0.46 -57.0 0 0 37.17 51.80
  Q 37.80 45.23 33.62 39.23
  A 1.01 0.99 74.8 0 0 32.88 38.80
  Q 32.51 38.77 30.61 38.77
  Q 28.71 38.77 28.34 38.80
  A 1.01 0.99 -74.7 0 0 27.61 39.23
  Q 23.42 45.22 24.05 51.79
  A 0.47 0.46 57.1 0 0 24.92 51.99
  L 30.31 42.46
  A 0.14 0.09 -75.9 0 1 30.36 42.42
  Q 30.53 42.35 30.61 42.35
  Z"
/>
<path fill="#ffffff" d="
  M 47.58 18.16
  A 0.38 0.38 0.0 0 1 47.20 18.77
  Q 43.77 17.99 41.79 19.58
  A 0.60 0.59 -42.2 0 0 41.74 20.46
  L 42.57 21.28
  A 3.43 3.36 -75.8 0 1 43.41 22.72
  Q 45.04 28.36 39.59 30.78
  A 1.41 1.21 26.2 0 1 39.16 30.89
  L 37.31 31.04
  A 1.15 1.15 0.0 0 0 36.41 31.61
  L 33.66 36.37
  A 0.76 0.73 14.2 0 1 33.01 36.74
  L 28.36 36.74
  A 1.01 1.01 0.0 0 1 27.48 36.23
  L 24.75 31.52
  A 0.90 0.89 -13.8 0 0 23.98 31.06
  Q 19.51 31.00 17.96 27.32
  C 15.22 20.78 24.24 15.58 28.35 21.65
  Q 30.60 25.00 28.33 28.58
  A 1.10 1.08 -44.5 0 0 28.31 29.72
  L 30.37 33.29
  A 0.27 0.27 0.0 0 0 30.84 33.29
  L 33.03 29.49
  A 0.73 0.73 0.0 0 0 33.02 28.74
  Q 32.91 28.57 32.49 27.91
  Q 32.07 27.25 32.02 27.01
  Q 30.62 20.66 37.23 18.92
  A 0.41 0.32 7.0 0 0 37.38 18.83
  L 39.34 16.87
  A 0.98 0.91 -78.0 0 1 39.61 16.68
  Q 44.59 14.41 47.58 18.16
  Z
  M 26.41 25.02
  A 2.97 2.97 0.0 0 0 23.44 22.05
  A 2.97 2.97 0.0 0 0 20.47 25.02
  A 2.97 2.97 0.0 0 0 23.44 27.99
  A 2.97 2.97 0.0 0 0 26.41 25.02
  Z
  M 40.75 25.01
  A 2.97 2.97 0.0 0 0 37.78 22.04
  A 2.97 2.97 0.0 0 0 34.81 25.01
  A 2.97 2.97 0.0 0 0 37.78 27.98
  A 2.97 2.97 0.0 0 0 40.75 25.01
  Z"
/>
<circle fill="#bd7b48" cx="23.44" cy="25.02" r="2.97"/>
<circle fill="#bd7b48" cx="37.78" cy="25.01" r="2.97"/>
<path fill="#ffffff" d="
  M 30.61 38.77
  Q 32.51 38.77 32.88 38.80
  A 1.01 0.99 74.8 0 1 33.62 39.23
  Q 37.80 45.23 37.17 51.80
  A 0.47 0.46 -57.0 0 1 36.30 51.99
  L 30.91 42.46
  A 0.14 0.09 75.9 0 0 30.86 42.42
  Q 30.69 42.35 30.61 42.35
  Q 30.53 42.35 30.36 42.42
  A 0.14 0.09 -75.9 0 0 30.31 42.46
  L 24.92 51.99
  A 0.47 0.46 57.1 0 1 24.05 51.79
  Q 23.42 45.22 27.61 39.23
  A 1.01 0.99 -74.7 0 1 28.34 38.80
  Q 28.71 38.77 30.61 38.77
  Z"
/>
</svg>
