<?xml version="1.0" encoding="UTF-8" standalone="no"?>
<!DOCTYPE svg PUBLIC "-//W3C//DTD SVG 1.1//EN" "http://www.w3.org/Graphics/SVG/1.1/DTD/svg11.dtd">
<svg xmlns="http://www.w3.org/2000/svg" version="1.1" viewBox="0.00 0.00 66.00 88.00">
<g stroke-width="2.00" fill="none" stroke-linecap="butt">
<path stroke="#5e5656" vector-effect="non-scaling-stroke" d="
  M 33.40 86.68
  Q 33.54 86.68 33.68 86.65
  A 0.08 0.07 -74.2 0 0 33.73 86.62
  C 50.95 70.59 77.67 36.43 56.64 12.88
  C 50.81 6.35 42.49 2.47 33.52 2.46
  C 24.56 2.45 16.23 6.30 10.38 12.81
  C -10.72 36.30 15.91 70.54 33.08 86.62
  A 0.08 0.07 74.4 0 0 33.13 86.65
  Q 33.27 86.68 33.40 86.68"
/>
<path stroke="#beb8b9" vector-effect="non-scaling-stroke" d="
  M 37.60 35.50
  Q 38.21 35.75 38.30 35.78
  A 0.66 0.66 0.0 0 0 39.08 35.39
  L 42.34 27.34
  A 0.82 0.81 -78.6 0 1 43.09 26.84
  Q 44.39 26.85 44.77 25.98
  Q 46.47 22.07 47.74 18.74
  A 1.28 1.28 0.0 0 0 47.45 17.37
  Q 46.89 16.82 45.49 16.25
  Q 44.08 15.67 43.30 15.67
  A 1.28 1.28 0.0 0 0 42.13 16.44
  Q 40.70 19.70 39.17 23.68
  Q 38.83 24.57 39.76 25.47
  A 0.82 0.81 -56.9 0 1 39.94 26.36
  L 36.61 34.38
  A 0.66 0.66 0.0 0 0 36.90 35.20
  Q 36.98 35.25 37.60 35.50"
/>
<path stroke="#beb8b9" vector-effect="non-scaling-stroke" d="
  M 32.62 45.00
  Q 40.82 44.99 42.41 44.89
  A 0.28 0.28 0.0 0 0 42.65 44.50
  C 40.85 40.31 37.28 37.53 32.61 37.54
  C 27.94 37.54 24.38 40.33 22.60 44.53
  A 0.28 0.28 0.0 0 0 22.84 44.92
  Q 24.42 45.02 32.62 45.00"
/>
<path stroke="#beb8b9" vector-effect="non-scaling-stroke" d="
  M 47.81 48.43
  A 0.37 0.37 0.0 0 0 47.44 48.06
  L 17.78 48.06
  A 0.37 0.37 0.0 0 0 17.41 48.43
  L 17.41 51.95
  A 0.37 0.37 0.0 0 0 17.78 52.32
  L 47.44 52.32
  A 0.37 0.37 0.0 0 0 47.81 51.95
  L 47.81 48.43"
/>
</g>
<path fill="#3f3a39" d="
  M 33.80 88.00
  L 33.04 88.00
  C 21.80 77.79 12.03 65.61 5.64 51.56
  C 1.01 41.37 -0.43 28.49 5.12 18.25
  C 17.84 -5.20 51.93 -4.04 62.92 20.44
  C 66.88 29.25 65.84 40.03 62.41 48.84
  C 56.57 63.79 45.59 77.26 33.80 88.00
  Z
  M 33.40 86.68
  Q 33.54 86.68 33.68 86.65
  A 0.08 0.07 -74.2 0 0 33.73 86.62
  C 50.95 70.59 77.67 36.43 56.64 12.88
  C 50.81 6.35 42.49 2.47 33.52 2.46
  C 24.56 2.45 16.23 6.30 10.38 12.81
  C -10.72 36.30 15.91 70.54 33.08 86.62
  A 0.08 0.07 74.4 0 0 33.13 86.65
  Q 33.27 86.68 33.40 86.68
  Z"
/>
<path fill="#7c7173" d="
  M 33.52 2.46
  C 42.49 2.47 50.81 6.35 56.64 12.88
  C 77.67 36.43 50.95 70.59 33.73 86.62
  A 0.08 0.07 -74.2 0 1 33.68 86.65
  Q 33.54 86.68 33.40 86.68
  Q 33.27 86.68 33.13 86.65
  A 0.08 0.07 74.4 0 1 33.08 86.62
  C 15.91 70.54 -10.72 36.30 10.38 12.81
  C 16.23 6.30 24.56 2.45 33.52 2.46
  Z
  M 37.60 35.50
  Q 38.21 35.75 38.30 35.78
  A 0.66 0.66 0.0 0 0 39.08 35.39
  L 42.34 27.34
  A 0.82 0.81 -78.6 0 1 43.09 26.84
  Q 44.39 26.85 44.77 25.98
  Q 46.47 22.07 47.74 18.74
  A 1.28 1.28 0.0 0 0 47.45 17.37
  Q 46.89 16.82 45.49 16.25
  Q 44.08 15.67 43.30 15.67
  A 1.28 1.28 0.0 0 0 42.13 16.44
  Q 40.70 19.70 39.17 23.68
  Q 38.83 24.57 39.76 25.47
  A 0.82 0.81 -56.9 0 1 39.94 26.36
  L 36.61 34.38
  A 0.66 0.66 0.0 0 0 36.90 35.20
  Q 36.98 35.25 37.60 35.50
  Z
  M 32.62 45.00
  Q 40.82 44.99 42.41 44.89
  A 0.28 0.28 0.0 0 0 42.65 44.50
  C 40.85 40.31 37.28 37.53 32.61 37.54
  C 27.94 37.54 24.38 40.33 22.60 44.53
  A 0.28 0.28 0.0 0 0 22.84 44.92
  Q 24.42 45.02 32.62 45.00
  Z
  M 47.81 48.43
  A 0.37 0.37 0.0 0 0 47.44 48.06
  L 17.78 48.06
  A 0.37 0.37 0.0 0 0 17.41 48.43
  L 17.41 51.95
  A 0.37 0.37 0.0 0 0 17.78 52.32
  L 47.44 52.32
  A 0.37 0.37 0.0 0 0 47.81 51.95
  L 47.81 48.43
  Z"
/>
<path fill="#ffffff" d="
  M 45.49 16.25
  Q 46.89 16.82 47.45 17.37
  A 1.28 1.28 0.0 0 1 47.74 18.74
  Q 46.47 22.07 44.77 25.98
  Q 44.39 26.85 43.09 26.84
  A 0.82 0.81 -78.6 0 0 42.34 27.34
  L 39.08 35.39
  A 0.66 0.66 0.0 0 1 38.30 35.78
  Q 38.21 35.75 37.60 35.50
  Q 36.98 35.25 36.90 35.20
  A 0.66 0.66 0.0 0 1 36.61 34.38
  L 39.94 26.36
  A 0.82 0.81 -56.9 0 0 39.76 25.47
  Q 38.83 24.57 39.17 23.68
  Q 40.70 19.70 42.13 16.44
  A 1.28 1.28 0.0 0 1 43.30 15.67
  Q 44.08 15.67 45.49 16.25
  Z"
/>
<path fill="#ffffff" d="
  M 32.61 37.54
  C 37.28 37.53 40.85 40.31 42.65 44.50
  A 0.28 0.28 0.0 0 1 42.41 44.89
  Q 40.82 44.99 32.62 45.00
  Q 24.42 45.02 22.84 44.92
  A 0.28 0.28 0.0 0 1 22.60 44.53
  C 24.38 40.33 27.94 37.54 32.61 37.54
  Z"
/>
<rect fill="#ffffff" x="17.41" y="48.06" width="30.40" height="4.26" rx="0.37"/>
</svg>
