<?xml version="1.0" encoding="UTF-8" standalone="no"?>
<!DOCTYPE svg PUBLIC "-//W3C//DTD SVG 1.1//EN" "http://www.w3.org/Graphics/SVG/1.1/DTD/svg11.dtd">
<svg xmlns="http://www.w3.org/2000/svg" version="1.1" viewBox="0.00 0.00 66.00 88.00">
<g stroke-width="2.00" fill="none" stroke-linecap="butt">
<path stroke="#8f5c35" vector-effect="non-scaling-stroke" d="
  M 33.39 86.69
  Q 33.60 86.69 33.62 86.68
  C 41.13 79.69 47.79 71.86 53.46 63.46
  C 59.25 54.89 63.98 44.33 64.27 33.81
  C 64.76 16.23 50.85 2.91 33.75 2.46
  Q 33.65 2.46 33.55 2.46
  Q 33.46 2.46 33.36 2.46
  C 16.25 2.84 2.29 16.11 2.71 33.69
  C 2.96 44.21 7.65 54.79 13.41 63.38
  C 19.05 71.80 25.67 79.66 33.16 86.68
  Q 33.17 86.69 33.39 86.69"
/>
<path stroke="#debda4" vector-effect="non-scaling-stroke" d="
  M 29.93 40.69
  A 0.31 0.31 0.0 0 0 30.24 40.62
  L 44.09 26.78
  A 0.31 0.31 0.0 0 0 43.97 26.26
  L 30.65 21.87
  A 0.31 0.31 0.0 0 0 30.36 21.93
  L 14.79 34.43
  A 0.31 0.31 0.0 0 0 14.67 34.67
  L 14.67 40.77
  A 0.31 0.31 0.0 0 0 14.88 41.06
  L 30.58 46.22
  A 0.31 0.31 0.0 0 0 30.89 46.15
  L 38.77 38.27
  A 0.31 0.31 0.0 0 0 38.65 37.75
  L 37.28 37.30
  A 0.31 0.31 0.0 0 0 36.96 37.38
  L 30.34 44.00
  A 0.31 0.31 0.0 0 1 30.03 44.08
  L 16.75 39.71
  A 0.31 0.31 0.0 0 1 16.54 39.42
  L 16.54 36.71
  A 0.31 0.31 0.0 0 1 16.95 36.41
  L 29.93 40.69"
/>
<path stroke="#debda4" vector-effect="non-scaling-stroke" d="
  M 50.41 34.82
  A 0.40 0.40 0.0 0 0 50.54 34.04
  L 44.70 32.12
  A 1.15 1.15 0.0 0 0 43.53 32.40
  L 41.30 34.63
  A 0.42 0.42 0.0 0 0 41.47 35.33
  L 48.47 37.64
  A 0.14 0.14 0.0 0 0 48.65 37.50
  L 48.65 35.17
  A 0.35 0.35 0.0 0 1 49.00 34.82
  L 50.41 34.82"
/>
</g>
<path fill="#613d22" d="
  M 33.78 88.00
  L 33.14 88.00
  Q 16.02 72.83 6.32 53.19
  Q 2.23 44.91 1.61 35.02
  Q 1.02 25.69 5.18 18.13
  C 16.32 -2.12 45.05 -4.71 59.06 13.88
  C 77.74 38.68 51.64 71.85 33.78 88.00
  Z
  M 33.39 86.69
  Q 33.60 86.69 33.62 86.68
  C 41.13 79.69 47.79 71.86 53.46 63.46
  C 59.25 54.89 63.98 44.33 64.27 33.81
  C 64.76 16.23 50.85 2.91 33.75 2.46
  Q 33.65 2.46 33.55 2.46
  Q 33.46 2.46 33.36 2.46
  C 16.25 2.84 2.29 16.11 2.71 33.69
  C 2.96 44.21 7.65 54.79 13.41 63.38
  C 19.05 71.80 25.67 79.66 33.16 86.68
  Q 33.17 86.69 33.39 86.69
  Z"
/>
<path fill="#bd7b48" d="
  M 33.55 2.46
  Q 33.65 2.46 33.75 2.46
  C 50.85 2.91 64.76 16.23 64.27 33.81
  C 63.98 44.33 59.25 54.89 53.46 63.46
  C 47.79 71.86 41.13 79.69 33.62 86.68
  Q 33.60 86.69 33.39 86.69
  Q 33.17 86.69 33.16 86.68
  C 25.67 79.66 19.05 71.80 13.41 63.38
  C 7.65 54.79 2.96 44.21 2.71 33.69
  C 2.29 16.11 16.25 2.84 33.36 2.46
  Q 33.46 2.46 33.55 2.46
  Z
  M 29.93 40.69
  A 0.31 0.31 0.0 0 0 30.24 40.62
  L 44.09 26.78
  A 0.31 0.31 0.0 0 0 43.97 26.26
  L 30.65 21.87
  A 0.31 0.31 0.0 0 0 30.36 21.93
  L 14.79 34.43
  A 0.31 0.31 0.0 0 0 14.67 34.67
  L 14.67 40.77
  A 0.31 0.31 0.0 0 0 14.88 41.06
  L 30.58 46.22
  A 0.31 0.31 0.0 0 0 30.89 46.15
  L 38.77 38.27
  A 0.31 0.31 0.0 0 0 38.65 37.75
  L 37.28 37.30
  A 0.31 0.31 0.0 0 0 36.96 37.38
  L 30.34 44.00
  A 0.31 0.31 0.0 0 1 30.03 44.08
  L 16.75 39.71
  A 0.31 0.31 0.0 0 1 16.54 39.42
  L 16.54 36.71
  A 0.31 0.31 0.0 0 1 16.95 36.41
  L 29.93 40.69
  Z
  M 50.41 34.82
  A 0.40 0.40 0.0 0 0 50.54 34.04
  L 44.70 32.12
  A 1.15 1.15 0.0 0 0 43.53 32.40
  L 41.30 34.63
  A 0.42 0.42 0.0 0 0 41.47 35.33
  L 48.47 37.64
  A 0.14 0.14 0.0 0 0 48.65 37.50
  L 48.65 35.17
  A 0.35 0.35 0.0 0 1 49.00 34.82
  L 50.41 34.82
  Z"
/>
<path fill="#ffffff" d="
  M 29.93 40.69
  L 16.95 36.41
  A 0.31 0.31 0.0 0 0 16.54 36.71
  L 16.54 39.42
  A 0.31 0.31 0.0 0 0 16.75 39.71
  L 30.03 44.08
  A 0.31 0.31 0.0 0 0 30.34 44.00
  L 36.96 37.38
  A 0.31 0.31 0.0 0 1 37.28 37.30
  L 38.65 37.75
  A 0.31 0.31 0.0 0 1 38.77 38.27
  L 30.89 46.15
  A 0.31 0.31 0.0 0 1 30.58 46.22
  L 14.88 41.06
  A 0.31 0.31 0.0 0 1 14.67 40.77
  L 14.67 34.67
  A 0.31 0.31 0.0 0 1 14.79 34.43
  L 30.36 21.93
  A 0.31 0.31 0.0 0 1 30.65 21.87
  L 43.97 26.26
  A 0.31 0.31 0.0 0 1 44.09 26.78
  L 30.24 40.62
  A 0.31 0.31 0.0 0 1 29.93 40.69
  Z"
/>
<path fill="#ffffff" d="
  M 50.41 34.82
  L 49.00 34.82
  A 0.35 0.35 0.0 0 0 48.65 35.17
  L 48.65 37.50
  A 0.14 0.14 0.0 0 1 48.47 37.64
  L 41.47 35.33
  A 0.42 0.42 0.0 0 1 41.30 34.63
  L 43.53 32.40
  A 1.15 1.15 0.0 0 1 44.70 32.12
  L 50.54 34.04
  A 0.40 0.40 0.0 0 1 50.41 34.82
  Z"
/>
</svg>
