<?xml version="1.0" encoding="UTF-8" standalone="no"?>
<!DOCTYPE svg PUBLIC "-//W3C//DTD SVG 1.1//EN" "http://www.w3.org/Graphics/SVG/1.1/DTD/svg11.dtd">
<svg xmlns="http://www.w3.org/2000/svg" version="1.1" viewBox="0.00 0.00 66.00 88.00">
<g stroke-width="2.00" fill="none" stroke-linecap="butt">
<path stroke="#905c35" vector-effect="non-scaling-stroke" d="
  M 33.39 86.69
  Q 33.59 86.69 33.61 86.67
  Q 33.69 86.54 33.72 86.51
  C 49.90 71.66 73.28 42.04 60.76 18.70
  C 55.47 8.83 44.91 2.48 33.55 2.46
  C 22.20 2.44 11.62 8.75 6.29 18.59
  C -6.33 41.88 16.94 71.59 33.06 86.51
  Q 33.09 86.54 33.17 86.66
  Q 33.19 86.69 33.39 86.69"
/>
<path stroke="#debda4" vector-effect="non-scaling-stroke" d="
  M 29.62 27.13
  Q 28.00 21.56 25.34 17.54
  A 1.12 1.12 0.0 0 0 23.84 17.18
  L 20.49 19.11
  A 0.62 0.61 51.7 0 0 20.38 20.09
  Q 23.37 22.92 26.01 28.44
  A 0.20 0.20 0.0 0 1 25.94 28.70
  L 25.92 28.71
  A 0.19 0.19 0.0 0 1 25.67 28.66
  Q 22.74 24.50 18.06 21.35
  A 0.52 0.51 39.3 0 0 17.40 21.41
  L 14.93 23.88
  A 0.54 0.54 0.0 0 0 15.08 24.75
  Q 20.09 27.13 23.80 31.74
  A 0.78 0.78 0.0 0 0 24.76 31.94
  Q 33.00 27.65 41.24 31.96
  A 0.71 0.70 32.7 0 0 42.12 31.77
  Q 45.67 27.28 50.91 24.76
  A 0.54 0.54 0.0 0 0 51.06 23.89
  L 48.60 21.43
  A 0.56 0.56 0.0 0 0 47.88 21.36
  Q 43.09 24.64 40.33 28.56
  A 0.19 0.19 0.0 0 1 40.08 28.61
  L 40.07 28.61
  A 0.17 0.16 28.4 0 1 40.00 28.40
  Q 42.15 23.43 45.72 19.94
  A 0.47 0.47 0.0 0 0 45.63 19.20
  L 42.02 17.12
  A 0.89 0.89 0.0 0 0 40.85 17.37
  Q 37.88 21.48 36.68 26.38
  A 0.20 0.20 0.0 0 1 36.46 26.53
  A 0.20 0.20 0.0 0 1 36.29 26.32
  Q 36.59 21.33 38.64 16.74
  A 0.31 0.30 -73.8 0 0 38.41 16.31
  Q 33.08 15.38 27.65 16.29
  A 0.38 0.38 0.0 0 0 27.36 16.82
  Q 29.59 21.73 29.62 27.13"
/>
<path stroke="#debda4" vector-effect="non-scaling-stroke" d="
  M 33.00 37.31
  Q 36.19 37.30 39.48 38.29
  A 0.46 0.45 8.2 0 0 40.06 37.86
  L 40.06 34.84
  A 0.89 0.88 11.7 0 0 39.53 34.03
  Q 35.95 32.48 32.99 32.48
  Q 30.04 32.48 26.46 34.04
  A 0.89 0.88 -11.8 0 0 25.93 34.85
  L 25.94 37.87
  A 0.46 0.45 -8.3 0 0 26.52 38.30
  Q 29.81 37.31 33.00 37.31"
/>
<path stroke="#debda4" vector-effect="non-scaling-stroke" d="
  M 27.86 51.87
  L 38.14 51.89
  A 0.25 0.25 0.0 0 0 38.39 51.64
  L 38.40 43.09
  A 3.10 2.68 -89.9 0 0 35.73 39.98
  L 30.31 39.98
  A 3.10 2.68 -89.9 0 0 27.62 43.07
  L 27.61 51.62
  A 0.25 0.25 0.0 0 0 27.86 51.87"
/>
</g>
<path fill="#623d22" d="
  M 33.81 88.00
  L 33.14 88.00
  Q 15.61 72.48 6.00 52.51
  Q 2.30 44.83 1.62 35.22
  Q 0.95 25.69 5.27 17.98
  C 17.99 -4.67 50.72 -4.21 62.45 19.42
  C 67.05 28.69 65.93 40.25 62.13 49.57
  C 56.16 64.25 45.45 77.39 33.81 88.00
  Z
  M 33.39 86.69
  Q 33.59 86.69 33.61 86.67
  Q 33.69 86.54 33.72 86.51
  C 49.90 71.66 73.28 42.04 60.76 18.70
  C 55.47 8.83 44.91 2.48 33.55 2.46
  C 22.20 2.44 11.62 8.75 6.29 18.59
  C -6.33 41.88 16.94 71.59 33.06 86.51
  Q 33.09 86.54 33.17 86.66
  Q 33.19 86.69 33.39 86.69
  Z"
/>
<path fill="#bd7b48" d="
  M 33.55 2.46
  C 44.91 2.48 55.47 8.83 60.76 18.70
  C 73.28 42.04 49.90 71.66 33.72 86.51
  Q 33.69 86.54 33.61 86.67
  Q 33.59 86.69 33.39 86.69
  Q 33.19 86.69 33.17 86.66
  Q 33.09 86.54 33.06 86.51
  C 16.94 71.59 -6.33 41.88 6.29 18.59
  C 11.62 8.75 22.20 2.44 33.55 2.46
  Z
  M 29.62 27.13
  Q 28.00 21.56 25.34 17.54
  A 1.12 1.12 0.0 0 0 23.84 17.18
  L 20.49 19.11
  A 0.62 0.61 51.7 0 0 20.38 20.09
  Q 23.37 22.92 26.01 28.44
  A 0.20 0.20 0.0 0 1 25.94 28.70
  L 25.92 28.71
  A 0.19 0.19 0.0 0 1 25.67 28.66
  Q 22.74 24.50 18.06 21.35
  A 0.52 0.51 39.3 0 0 17.40 21.41
  L 14.93 23.88
  A 0.54 0.54 0.0 0 0 15.08 24.75
  Q 20.09 27.13 23.80 31.74
  A 0.78 0.78 0.0 0 0 24.76 31.94
  Q 33.00 27.65 41.24 31.96
  A 0.71 0.70 32.7 0 0 42.12 31.77
  Q 45.67 27.28 50.91 24.76
  A 0.54 0.54 0.0 0 0 51.06 23.89
  L 48.60 21.43
  A 0.56 0.56 0.0 0 0 47.88 21.36
  Q 43.09 24.64 40.33 28.56
  A 0.19 0.19 0.0 0 1 40.08 28.61
  L 40.07 28.61
  A 0.17 0.16 28.4 0 1 40.00 28.40
  Q 42.15 23.43 45.72 19.94
  A 0.47 0.47 0.0 0 0 45.63 19.20
  L 42.02 17.12
  A 0.89 0.89 0.0 0 0 40.85 17.37
  Q 37.88 21.48 36.68 26.38
  A 0.20 0.20 0.0 0 1 36.46 26.53
  A 0.20 0.20 0.0 0 1 36.29 26.32
  Q 36.59 21.33 38.64 16.74
  A 0.31 0.30 -73.8 0 0 38.41 16.31
  Q 33.08 15.38 27.65 16.29
  A 0.38 0.38 0.0 0 0 27.36 16.82
  Q 29.59 21.73 29.62 27.13
  Z
  M 33.00 37.31
  Q 36.19 37.30 39.48 38.29
  A 0.46 0.45 8.2 0 0 40.06 37.86
  L 40.06 34.84
  A 0.89 0.88 11.7 0 0 39.53 34.03
  Q 35.95 32.48 32.99 32.48
  Q 30.04 32.48 26.46 34.04
  A 0.89 0.88 -11.8 0 0 25.93 34.85
  L 25.94 37.87
  A 0.46 0.45 -8.3 0 0 26.52 38.30
  Q 29.81 37.31 33.00 37.31
  Z
  M 27.86 51.87
  L 38.14 51.89
  A 0.25 0.25 0.0 0 0 38.39 51.64
  L 38.40 43.09
  A 3.10 2.68 -89.9 0 0 35.73 39.98
  L 30.31 39.98
  A 3.10 2.68 -89.9 0 0 27.62 43.07
  L 27.61 51.62
  A 0.25 0.25 0.0 0 0 27.86 51.87
  Z"
/>
<path fill="#ffffff" d="
  M 29.62 27.13
  Q 29.59 21.73 27.36 16.82
  A 0.38 0.38 0.0 0 1 27.65 16.29
  Q 33.08 15.38 38.41 16.31
  A 0.31 0.30 -73.8 0 1 38.64 16.74
  Q 36.59 21.33 36.29 26.32
  A 0.20 0.20 0.0 0 0 36.46 26.53
  A 0.20 0.20 0.0 0 0 36.68 26.38
  Q 37.88 21.48 40.85 17.37
  A 0.89 0.89 0.0 0 1 42.02 17.12
  L 45.63 19.20
  A 0.47 0.47 0.0 0 1 45.72 19.94
  Q 42.15 23.43 40.00 28.40
  A 0.17 0.16 28.4 0 0 40.07 28.61
  L 40.08 28.61
  A 0.19 0.19 0.0 0 0 40.33 28.56
  Q 43.09 24.64 47.88 21.36
  A 0.56 0.56 0.0 0 1 48.60 21.43
  L 51.06 23.89
  A 0.54 0.54 0.0 0 1 50.91 24.76
  Q 45.67 27.28 42.12 31.77
  A 0.71 0.70 32.7 0 1 41.24 31.96
  Q 33.00 27.65 24.76 31.94
  A 0.78 0.78 0.0 0 1 23.80 31.74
  Q 20.09 27.13 15.08 24.75
  A 0.54 0.54 0.0 0 1 14.93 23.88
  L 17.40 21.41
  A 0.52 0.51 39.3 0 1 18.06 21.35
  Q 22.74 24.50 25.67 28.66
  A 0.19 0.19 0.0 0 0 25.92 28.71
  L 25.94 28.70
  A 0.20 0.20 0.0 0 0 26.01 28.44
  Q 23.37 22.92 20.38 20.09
  A 0.62 0.61 51.7 0 1 20.49 19.11
  L 23.84 17.18
  A 1.12 1.12 0.0 0 1 25.34 17.54
  Q 28.00 21.56 29.62 27.13
  Z"
/>
<path fill="#ffffff" d="
  M 32.99 32.48
  Q 35.95 32.48 39.53 34.03
  A 0.89 0.88 11.7 0 1 40.06 34.84
  L 40.06 37.86
  A 0.46 0.45 8.2 0 1 39.48 38.29
  Q 36.19 37.30 33.00 37.31
  Q 29.81 37.31 26.52 38.30
  A 0.46 0.45 -8.3 0 1 25.94 37.87
  L 25.93 34.85
  A 0.89 0.88 -11.8 0 1 26.46 34.04
  Q 30.04 32.48 32.99 32.48
  Z"
/>
<path fill="#ffffff" d="
  M 27.86 51.87
  A 0.25 0.25 0.0 0 1 27.61 51.62
  L 27.62 43.07
  A 3.10 2.68 -89.9 0 1 30.31 39.98
  L 35.73 39.98
  A 3.10 2.68 -89.9 0 1 38.40 43.09
  L 38.39 51.64
  A 0.25 0.25 0.0 0 1 38.14 51.89
  L 27.86 51.87
  Z"
/>
</svg>
