<?xml version="1.0" encoding="UTF-8" standalone="no"?>
<!DOCTYPE svg PUBLIC "-//W3C//DTD SVG 1.1//EN" "http://www.w3.org/Graphics/SVG/1.1/DTD/svg11.dtd">
<svg xmlns="http://www.w3.org/2000/svg" version="1.1" viewBox="0.00 0.00 66.00 88.00">
<g stroke-width="2.00" fill="none" stroke-linecap="butt">
<path stroke="#2f2e2e" vector-effect="non-scaling-stroke" d="
  M 33.44 86.55
  C 33.98 86.55 33.60 86.60 33.78 86.43
  Q 50.83 70.61 59.55 52.56
  Q 63.67 44.05 64.19 33.79
  C 65.08 16.41 50.32 2.58 33.51 2.57
  C 16.70 2.55 1.91 16.35 2.77 33.73
  Q 3.28 44.00 7.38 52.51
  Q 16.07 70.58 33.09 86.43
  C 33.27 86.60 32.89 86.55 33.44 86.55"
/>
<path stroke="#9e9e9e" vector-effect="non-scaling-stroke" d="
  M 33.2687 15.9829
  A 0.38 0.38 0.0 0 0 32.7313 15.9829
  L 14.9829 33.7313
  A 0.38 0.38 0.0 0 0 14.9829 34.2687
  L 32.7313 52.0171
  A 0.38 0.38 0.0 0 0 33.2687 52.0171
  L 51.0171 34.2687
  A 0.38 0.38 0.0 0 0 51.0171 33.7313
  L 33.2687 15.9829"
/>
<path stroke="#90908f" vector-effect="non-scaling-stroke" d="
  M 30.81 20.68
  Q 30.46 21.04 30.14 21.40
  A 0.33 0.33 0.0 0 0 30.30 21.93
  Q 31.48 22.26 31.94 21.79
  Q 32.40 21.33 32.05 20.15
  A 0.33 0.33 0.0 0 0 31.52 20.00
  Q 31.16 20.32 30.81 20.68"
/>
<path stroke="#90908f" vector-effect="non-scaling-stroke" d="
  M 34.11 21.83
  Q 34.66 22.35 36.04 21.79
  A 0.27 0.27 0.0 0 0 36.09 21.32
  Q 35.30 20.77 35.20 20.68
  Q 35.10 20.58 34.51 19.82
  A 0.27 0.27 0.0 0 0 34.05 19.90
  Q 33.56 21.31 34.11 21.83"
/>
<path stroke="#9e9e9e" vector-effect="non-scaling-stroke" d="
  M 31.62 33.99
  Q 31.62 34.13 31.45 34.22
  Q 23.24 38.88 23.12 38.95
  A 0.49 0.48 52.8 0 0 23.02 39.71
  L 27.19 44.01
  A 0.50 0.49 -52.0 0 0 27.97 43.91
  Q 30.37 39.84 32.70 35.64
  Q 32.76 35.53 32.99 35.53
  Q 33.23 35.53 33.29 35.64
  Q 35.61 39.84 38.01 43.91
  A 0.50 0.49 52.0 0 0 38.79 44.01
  L 42.96 39.72
  A 0.49 0.48 -52.8 0 0 42.87 38.96
  Q 42.75 38.89 34.54 34.22
  Q 34.37 34.13 34.37 33.99
  Q 34.37 33.86 34.54 33.76
  Q 42.75 29.10 42.87 29.03
  A 0.49 0.48 52.8 0 0 42.97 28.27
  L 38.80 23.97
  A 0.50 0.49 -52.0 0 0 38.02 24.07
  Q 35.62 28.14 33.29 32.35
  Q 33.23 32.46 32.99 32.46
  Q 32.76 32.46 32.70 32.34
  Q 30.37 28.14 27.98 24.07
  A 0.50 0.49 52.0 0 0 27.20 23.97
  L 23.02 28.27
  A 0.49 0.48 -52.8 0 0 23.12 29.03
  Q 23.24 29.10 31.45 33.76
  Q 31.62 33.85 31.62 33.99"
/>
<path stroke="#9e9e9e" vector-effect="non-scaling-stroke" d="
  M 32.70 28.61
  A 0.38 0.38 0.0 0 0 33.36 28.60
  L 35.81 24.29
  A 0.38 0.38 0.0 0 0 35.48 23.72
  L 30.52 23.75
  A 0.38 0.38 0.0 0 0 30.19 24.32
  L 32.70 28.61"
/>
<path stroke="#9e9e9e" vector-effect="non-scaling-stroke" d="
  M 19.60 31.64
  Q 19.13 32.09 18.67 32.44
  A 0.25 0.25 0.0 0 0 18.75 32.88
  Q 20.26 33.32 20.76 32.85
  Q 21.25 32.38 20.87 30.85
  A 0.25 0.25 0.0 0 0 20.43 30.75
  Q 20.06 31.20 19.60 31.64"
/>
<path stroke="#9e9e9e" vector-effect="non-scaling-stroke" d="
  M 45.28 32.87
  Q 45.84 33.39 47.00 32.90
  A 0.36 0.36 0.0 0 0 47.11 32.32
  Q 46.78 31.97 46.42 31.64
  Q 46.06 31.30 45.69 31.00
  A 0.36 0.36 0.0 0 0 45.12 31.16
  Q 44.72 32.35 45.28 32.87"
/>
<path stroke="#9e9e9e" vector-effect="non-scaling-stroke" d="
  M 22.71 34.00
  Q 22.71 36.45 22.72 36.58
  A 0.40 0.39 -16.5 0 0 23.31 36.90
  Q 24.69 36.13 27.72 34.26
  Q 27.73 34.25 27.77 34.11
  Q 27.78 34.05 27.78 33.99
  Q 27.78 33.92 27.77 33.86
  Q 27.73 33.73 27.72 33.72
  Q 24.68 31.86 23.30 31.09
  A 0.40 0.39 16.3 0 0 22.71 31.41
  Q 22.70 31.55 22.71 34.00"
/>
<path stroke="#9e9e9e" vector-effect="non-scaling-stroke" d="
  M 42.79 36.95
  A 0.33 0.33 0.0 0 0 43.29 36.66
  L 43.29 31.34
  A 0.33 0.33 0.0 0 0 42.79 31.05
  L 38.29 33.72
  A 0.33 0.33 0.0 0 0 38.29 34.28
  L 42.79 36.95"
/>
<path stroke="#9e9e9e" vector-effect="non-scaling-stroke" d="
  M 19.58 36.38
  Q 20.05 36.82 20.44 37.25
  A 0.26 0.26 0.0 0 0 20.88 37.14
  Q 21.28 35.66 20.73 35.15
  Q 20.19 34.64 18.73 35.14
  A 0.26 0.26 0.0 0 0 18.66 35.59
  Q 19.11 35.95 19.58 36.38"
/>
<path stroke="#9e9e9e" vector-effect="non-scaling-stroke" d="
  M 45.20 35.19
  Q 44.67 35.73 45.17 36.92
  A 0.35 0.35 0.0 0 0 45.74 37.03
  Q 46.06 36.71 46.40 36.36
  Q 46.75 36.00 47.05 35.67
  A 0.35 0.35 0.0 0 0 46.93 35.11
  Q 45.72 34.64 45.20 35.19"
/>
<path stroke="#9e9e9e" vector-effect="non-scaling-stroke" d="
  M 33.24 39.30
  A 0.32 0.32 0.0 0 0 32.69 39.30
  L 30.12 43.77
  A 0.32 0.32 0.0 0 0 30.39 44.25
  L 35.55 44.25
  A 0.32 0.32 0.0 0 0 35.83 43.76
  L 33.24 39.30"
/>
<path stroke="#9e9e9e" vector-effect="non-scaling-stroke" d="
  M 30.76 47.35
  Q 31.19 47.78 31.56 48.18
  A 0.27 0.27 0.0 0 0 32.01 48.07
  Q 32.38 46.66 31.92 46.19
  Q 31.45 45.73 30.04 46.10
  A 0.27 0.27 0.0 0 0 29.93 46.56
  Q 30.33 46.93 30.76 47.35"
/>
<path stroke="#90908f" vector-effect="non-scaling-stroke" d="
  M 34.12 46.22
  Q 33.78 46.56 34.05 48.08
  A 0.28 0.28 0.0 0 0 34.55 48.19
  Q 35.09 47.44 35.22 47.31
  Q 35.35 47.18 36.09 46.63
  A 0.28 0.28 0.0 0 0 35.97 46.13
  Q 34.45 45.88 34.12 46.22"
/>
</g>
<path fill="#20201f" d="
  M 33.81 88.00
  L 33.03 88.00
  C 16.92 73.35 -5.83 44.86 3.70 21.28
  C 11.13 2.89 33.62 -4.34 50.42 6.15
  Q 62.35 13.60 64.92 27.03
  C 69.18 49.29 49.14 74.01 33.81 88.00
  Z
  M 33.44 86.55
  C 33.98 86.55 33.60 86.60 33.78 86.43
  Q 50.83 70.61 59.55 52.56
  Q 63.67 44.05 64.19 33.79
  C 65.08 16.41 50.32 2.58 33.51 2.57
  C 16.70 2.55 1.91 16.35 2.77 33.73
  Q 3.28 44.00 7.38 52.51
  Q 16.07 70.58 33.09 86.43
  C 33.27 86.60 32.89 86.55 33.44 86.55
  Z"
/>
<path fill="#3d3c3d" d="
  M 33.51 2.57
  C 50.32 2.58 65.08 16.41 64.19 33.79
  Q 63.67 44.05 59.55 52.56
  Q 50.83 70.61 33.78 86.43
  C 33.60 86.60 33.98 86.55 33.44 86.55
  C 32.89 86.55 33.27 86.60 33.09 86.43
  Q 16.07 70.58 7.38 52.51
  Q 3.28 44.00 2.77 33.73
  C 1.91 16.35 16.70 2.55 33.51 2.57
  Z
  M 33.2687 15.9829
  A 0.38 0.38 0.0 0 0 32.7313 15.9829
  L 14.9829 33.7313
  A 0.38 0.38 0.0 0 0 14.9829 34.2687
  L 32.7313 52.0171
  A 0.38 0.38 0.0 0 0 33.2687 52.0171
  L 51.0171 34.2687
  A 0.38 0.38 0.0 0 0 51.0171 33.7313
  L 33.2687 15.9829
  Z"
/>
<path fill="#ffffff" d="
  M 51.0171 33.7313
  A 0.38 0.38 0.0 0 1 51.0171 34.2687
  L 33.2687 52.0171
  A 0.38 0.38 0.0 0 1 32.7313 52.0171
  L 14.9829 34.2687
  A 0.38 0.38 0.0 0 1 14.9829 33.7313
  L 32.7313 15.9829
  A 0.38 0.38 0.0 0 1 33.2687 15.9829
  L 51.0171 33.7313
  Z
  M 30.81 20.68
  Q 30.46 21.04 30.14 21.40
  A 0.33 0.33 0.0 0 0 30.30 21.93
  Q 31.48 22.26 31.94 21.79
  Q 32.40 21.33 32.05 20.15
  A 0.33 0.33 0.0 0 0 31.52 20.00
  Q 31.16 20.32 30.81 20.68
  Z
  M 34.11 21.83
  Q 34.66 22.35 36.04 21.79
  A 0.27 0.27 0.0 0 0 36.09 21.32
  Q 35.30 20.77 35.20 20.68
  Q 35.10 20.58 34.51 19.82
  A 0.27 0.27 0.0 0 0 34.05 19.90
  Q 33.56 21.31 34.11 21.83
  Z
  M 31.62 33.99
  Q 31.62 34.13 31.45 34.22
  Q 23.24 38.88 23.12 38.95
  A 0.49 0.48 52.8 0 0 23.02 39.71
  L 27.19 44.01
  A 0.50 0.49 -52.0 0 0 27.97 43.91
  Q 30.37 39.84 32.70 35.64
  Q 32.76 35.53 32.99 35.53
  Q 33.23 35.53 33.29 35.64
  Q 35.61 39.84 38.01 43.91
  A 0.50 0.49 52.0 0 0 38.79 44.01
  L 42.96 39.72
  A 0.49 0.48 -52.8 0 0 42.87 38.96
  Q 42.75 38.89 34.54 34.22
  Q 34.37 34.13 34.37 33.99
  Q 34.37 33.86 34.54 33.76
  Q 42.75 29.10 42.87 29.03
  A 0.49 0.48 52.8 0 0 42.97 28.27
  L 38.80 23.97
  A 0.50 0.49 -52.0 0 0 38.02 24.07
  Q 35.62 28.14 33.29 32.35
  Q 33.23 32.46 32.99 32.46
  Q 32.76 32.46 32.70 32.34
  Q 30.37 28.14 27.98 24.07
  A 0.50 0.49 52.0 0 0 27.20 23.97
  L 23.02 28.27
  A 0.49 0.48 -52.8 0 0 23.12 29.03
  Q 23.24 29.10 31.45 33.76
  Q 31.62 33.85 31.62 33.99
  Z
  M 32.70 28.61
  A 0.38 0.38 0.0 0 0 33.36 28.60
  L 35.81 24.29
  A 0.38 0.38 0.0 0 0 35.48 23.72
  L 30.52 23.75
  A 0.38 0.38 0.0 0 0 30.19 24.32
  L 32.70 28.61
  Z
  M 19.60 31.64
  Q 19.13 32.09 18.67 32.44
  A 0.25 0.25 0.0 0 0 18.75 32.88
  Q 20.26 33.32 20.76 32.85
  Q 21.25 32.38 20.87 30.85
  A 0.25 0.25 0.0 0 0 20.43 30.75
  Q 20.06 31.20 19.60 31.64
  Z
  M 45.28 32.87
  Q 45.84 33.39 47.00 32.90
  A 0.36 0.36 0.0 0 0 47.11 32.32
  Q 46.78 31.97 46.42 31.64
  Q 46.06 31.30 45.69 31.00
  A 0.36 0.36 0.0 0 0 45.12 31.16
  Q 44.72 32.35 45.28 32.87
  Z
  M 22.71 34.00
  Q 22.71 36.45 22.72 36.58
  A 0.40 0.39 -16.5 0 0 23.31 36.90
  Q 24.69 36.13 27.72 34.26
  Q 27.73 34.25 27.77 34.11
  Q 27.78 34.05 27.78 33.99
  Q 27.78 33.92 27.77 33.86
  Q 27.73 33.73 27.72 33.72
  Q 24.68 31.86 23.30 31.09
  A 0.40 0.39 16.3 0 0 22.71 31.41
  Q 22.70 31.55 22.71 34.00
  Z
  M 42.79 36.95
  A 0.33 0.33 0.0 0 0 43.29 36.66
  L 43.29 31.34
  A 0.33 0.33 0.0 0 0 42.79 31.05
  L 38.29 33.72
  A 0.33 0.33 0.0 0 0 38.29 34.28
  L 42.79 36.95
  Z
  M 19.58 36.38
  Q 20.05 36.82 20.44 37.25
  A 0.26 0.26 0.0 0 0 20.88 37.14
  Q 21.28 35.66 20.73 35.15
  Q 20.19 34.64 18.73 35.14
  A 0.26 0.26 0.0 0 0 18.66 35.59
  Q 19.11 35.95 19.58 36.38
  Z
  M 45.20 35.19
  Q 44.67 35.73 45.17 36.92
  A 0.35 0.35 0.0 0 0 45.74 37.03
  Q 46.06 36.71 46.40 36.36
  Q 46.75 36.00 47.05 35.67
  A 0.35 0.35 0.0 0 0 46.93 35.11
  Q 45.72 34.64 45.20 35.19
  Z
  M 33.24 39.30
  A 0.32 0.32 0.0 0 0 32.69 39.30
  L 30.12 43.77
  A 0.32 0.32 0.0 0 0 30.39 44.25
  L 35.55 44.25
  A 0.32 0.32 0.0 0 0 35.83 43.76
  L 33.24 39.30
  Z
  M 30.76 47.35
  Q 31.19 47.78 31.56 48.18
  A 0.27 0.27 0.0 0 0 32.01 48.07
  Q 32.38 46.66 31.92 46.19
  Q 31.45 45.73 30.04 46.10
  A 0.27 0.27 0.0 0 0 29.93 46.56
  Q 30.33 46.93 30.76 47.35
  Z
  M 34.12 46.22
  Q 33.78 46.56 34.05 48.08
  A 0.28 0.28 0.0 0 0 34.55 48.19
  Q 35.09 47.44 35.22 47.31
  Q 35.35 47.18 36.09 46.63
  A 0.28 0.28 0.0 0 0 35.97 46.13
  Q 34.45 45.88 34.12 46.22
  Z"
/>
<path fill="#20201f" d="
  M 31.94 21.79
  Q 31.48 22.26 30.30 21.93
  A 0.33 0.33 0.0 0 1 30.14 21.40
  Q 30.46 21.04 30.81 20.68
  Q 31.16 20.32 31.52 20.00
  A 0.33 0.33 0.0 0 1 32.05 20.15
  Q 32.40 21.33 31.94 21.79
  Z"
/>
<path fill="#20201f" d="
  M 35.20 20.68
  Q 35.30 20.77 36.09 21.32
  A 0.27 0.27 0.0 0 1 36.04 21.79
  Q 34.66 22.35 34.11 21.83
  Q 33.56 21.31 34.05 19.90
  A 0.27 0.27 0.0 0 1 34.51 19.82
  Q 35.10 20.58 35.20 20.68
  Z"
/>
<path fill="#3d3c3d" d="
  M 32.99 32.46
  Q 33.23 32.46 33.29 32.35
  Q 35.62 28.14 38.02 24.07
  A 0.50 0.49 -52.0 0 1 38.80 23.97
  L 42.97 28.27
  A 0.49 0.48 52.8 0 1 42.87 29.03
  Q 42.75 29.10 34.54 33.76
  Q 34.37 33.86 34.37 33.99
  Q 34.37 34.13 34.54 34.22
  Q 42.75 38.89 42.87 38.96
  A 0.49 0.48 -52.8 0 1 42.96 39.72
  L 38.79 44.01
  A 0.50 0.49 52.0 0 1 38.01 43.91
  Q 35.61 39.84 33.29 35.64
  Q 33.23 35.53 32.99 35.53
  Q 32.76 35.53 32.70 35.64
  Q 30.37 39.84 27.97 43.91
  A 0.50 0.49 -52.0 0 1 27.19 44.01
  L 23.02 39.71
  A 0.49 0.48 52.8 0 1 23.12 38.95
  Q 23.24 38.88 31.45 34.22
  Q 31.62 34.13 31.62 33.99
  Q 31.62 33.85 31.45 33.76
  Q 23.24 29.10 23.12 29.03
  A 0.49 0.48 -52.8 0 1 23.02 28.27
  L 27.20 23.97
  A 0.50 0.49 52.0 0 1 27.98 24.07
  Q 30.37 28.14 32.70 32.34
  Q 32.76 32.46 32.99 32.46
  Z"
/>
<path fill="#3d3c3d" d="
  M 32.70 28.61
  L 30.19 24.32
  A 0.38 0.38 0.0 0 1 30.52 23.75
  L 35.48 23.72
  A 0.38 0.38 0.0 0 1 35.81 24.29
  L 33.36 28.60
  A 0.38 0.38 0.0 0 1 32.70 28.61
  Z"
/>
<path fill="#3d3c3d" d="
  M 20.76 32.85
  Q 20.26 33.32 18.75 32.88
  A 0.25 0.25 0.0 0 1 18.67 32.44
  Q 19.13 32.09 19.60 31.64
  Q 20.06 31.20 20.43 30.75
  A 0.25 0.25 0.0 0 1 20.87 30.85
  Q 21.25 32.38 20.76 32.85
  Z"
/>
<path fill="#3d3c3d" d="
  M 46.42 31.64
  Q 46.78 31.97 47.11 32.32
  A 0.36 0.36 0.0 0 1 47.00 32.90
  Q 45.84 33.39 45.28 32.87
  Q 44.72 32.35 45.12 31.16
  A 0.36 0.36 0.0 0 1 45.69 31.00
  Q 46.06 31.30 46.42 31.64
  Z"
/>
<path fill="#3d3c3d" d="
  M 27.78 33.99
  Q 27.78 34.05 27.77 34.11
  Q 27.73 34.25 27.72 34.26
  Q 24.69 36.13 23.31 36.90
  A 0.40 0.39 -16.5 0 1 22.72 36.58
  Q 22.71 36.45 22.71 34.00
  Q 22.70 31.55 22.71 31.41
  A 0.40 0.39 16.3 0 1 23.30 31.09
  Q 24.68 31.86 27.72 33.72
  Q 27.73 33.73 27.77 33.86
  Q 27.78 33.92 27.78 33.99
  Z"
/>
<path fill="#3d3c3d" d="
  M 42.79 36.95
  L 38.29 34.28
  A 0.33 0.33 0.0 0 1 38.29 33.72
  L 42.79 31.05
  A 0.33 0.33 0.0 0 1 43.29 31.34
  L 43.29 36.66
  A 0.33 0.33 0.0 0 1 42.79 36.95
  Z"
/>
<path fill="#3d3c3d" d="
  M 20.73 35.15
  Q 21.28 35.66 20.88 37.14
  A 0.26 0.26 0.0 0 1 20.44 37.25
  Q 20.05 36.82 19.58 36.38
  Q 19.11 35.95 18.66 35.59
  A 0.26 0.26 0.0 0 1 18.73 35.14
  Q 20.19 34.64 20.73 35.15
  Z"
/>
<path fill="#3d3c3d" d="
  M 46.40 36.36
  Q 46.06 36.71 45.74 37.03
  A 0.35 0.35 0.0 0 1 45.17 36.92
  Q 44.67 35.73 45.20 35.19
  Q 45.72 34.64 46.93 35.11
  A 0.35 0.35 0.0 0 1 47.05 35.67
  Q 46.75 36.00 46.40 36.36
  Z"
/>
<path fill="#3d3c3d" d="
  M 33.24 39.30
  L 35.83 43.76
  A 0.32 0.32 0.0 0 1 35.55 44.25
  L 30.39 44.25
  A 0.32 0.32 0.0 0 1 30.12 43.77
  L 32.69 39.30
  A 0.32 0.32 0.0 0 1 33.24 39.30
  Z"
/>
<path fill="#3d3c3d" d="
  M 31.92 46.19
  Q 32.38 46.66 32.01 48.07
  A 0.27 0.27 0.0 0 1 31.56 48.18
  Q 31.19 47.78 30.76 47.35
  Q 30.33 46.93 29.93 46.56
  A 0.27 0.27 0.0 0 1 30.04 46.10
  Q 31.45 45.73 31.92 46.19
  Z"
/>
<path fill="#20201f" d="
  M 35.22 47.31
  Q 35.09 47.44 34.55 48.19
  A 0.28 0.28 0.0 0 1 34.05 48.08
  Q 33.78 46.56 34.12 46.22
  Q 34.45 45.88 35.97 46.13
  A 0.28 0.28 0.0 0 1 36.09 46.63
  Q 35.35 47.18 35.22 47.31
  Z"
/>
</svg>
