<?xml version="1.0" encoding="UTF-8" standalone="no"?>
<!DOCTYPE svg PUBLIC "-//W3C//DTD SVG 1.1//EN" "http://www.w3.org/Graphics/SVG/1.1/DTD/svg11.dtd">
<svg xmlns="http://www.w3.org/2000/svg" version="1.1" viewBox="0.00 0.00 66.00 88.00">
<g stroke-width="2.00" fill="none" stroke-linecap="butt">
<path stroke="#905c35" vector-effect="non-scaling-stroke" d="
  M 33.39 86.69
  Q 33.50 86.69 33.61 86.67
  Q 33.62 86.66 33.75 86.54
  C 47.12 74.05 60.78 56.95 63.83 38.78
  C 67.01 19.79 53.65 3.43 34.50 2.49
  Q 34.03 2.46 33.55 2.46
  Q 33.08 2.46 32.60 2.48
  C 13.45 3.35 0.03 19.66 3.13 38.66
  C 6.11 56.85 19.71 74.00 33.03 86.54
  Q 33.16 86.66 33.17 86.66
  Q 33.28 86.69 33.39 86.69"
/>
<path stroke="#debda4" vector-effect="non-scaling-stroke" d="
  M 42.15 43.52
  Q 51.43 35.84 43.76 25.69
  Q 38.96 19.32 38.28 16.72
  A 0.85 0.83 86.7 0 0 37.59 16.09
  L 35.57 15.82
  A 0.47 0.46 -81.8 0 0 35.05 16.21
  L 31.70 40.69
  A 0.42 0.41 13.8 0 1 31.15 41.02
  Q 25.05 38.88 21.81 41.50
  C 19.32 43.51 18.20 47.15 20.42 49.55
  C 24.66 54.12 33.08 53.09 34.17 46.20
  Q 34.45 44.43 36.82 27.10
  A 0.34 0.34 0.0 0 1 37.39 26.91
  Q 44.38 33.81 41.56 43.13
  A 0.37 0.37 0.0 0 0 42.15 43.52"
/>
</g>
<path fill="#623d22" d="
  M 33.81 88.00
  L 33.05 88.00
  Q 25.00 80.74 14.94 67.58
  Q 4.95 54.51 2.13 39.77
  Q 0.33 30.36 3.54 21.72
  C 7.96 9.85 19.82 1.66 32.29 1.35
  C 45.64 1.02 57.42 8.19 62.90 20.39
  C 66.90 29.28 65.84 40.15 62.33 49.05
  C 56.47 63.91 45.55 77.30 33.81 88.00
  Z
  M 33.39 86.69
  Q 33.50 86.69 33.61 86.67
  Q 33.62 86.66 33.75 86.54
  C 47.12 74.05 60.78 56.95 63.83 38.78
  C 67.01 19.79 53.65 3.43 34.50 2.49
  Q 34.03 2.46 33.55 2.46
  Q 33.08 2.46 32.60 2.48
  C 13.45 3.35 0.03 19.66 3.13 38.66
  C 6.11 56.85 19.71 74.00 33.03 86.54
  Q 33.16 86.66 33.17 86.66
  Q 33.28 86.69 33.39 86.69
  Z"
/>
<path fill="#bd7b48" d="
  M 33.55 2.46
  Q 34.03 2.46 34.50 2.49
  C 53.65 3.43 67.01 19.79 63.83 38.78
  C 60.78 56.95 47.12 74.05 33.75 86.54
  Q 33.62 86.66 33.61 86.67
  Q 33.50 86.69 33.39 86.69
  Q 33.28 86.69 33.17 86.66
  Q 33.16 86.66 33.03 86.54
  C 19.71 74.00 6.11 56.85 3.13 38.66
  C 0.03 19.66 13.45 3.35 32.60 2.48
  Q 33.08 2.46 33.55 2.46
  Z
  M 42.15 43.52
  Q 51.43 35.84 43.76 25.69
  Q 38.96 19.32 38.28 16.72
  A 0.85 0.83 86.7 0 0 37.59 16.09
  L 35.57 15.82
  A 0.47 0.46 -81.8 0 0 35.05 16.21
  L 31.70 40.69
  A 0.42 0.41 13.8 0 1 31.15 41.02
  Q 25.05 38.88 21.81 41.50
  C 19.32 43.51 18.20 47.15 20.42 49.55
  C 24.66 54.12 33.08 53.09 34.17 46.20
  Q 34.45 44.43 36.82 27.10
  A 0.34 0.34 0.0 0 1 37.39 26.91
  Q 44.38 33.81 41.56 43.13
  A 0.37 0.37 0.0 0 0 42.15 43.52
  Z"
/>
<path fill="#ffffff" d="
  M 41.56 43.13
  Q 44.38 33.81 37.39 26.91
  A 0.34 0.34 0.0 0 0 36.82 27.10
  Q 34.45 44.43 34.17 46.20
  C 33.08 53.09 24.66 54.12 20.42 49.55
  C 18.20 47.15 19.32 43.51 21.81 41.50
  Q 25.05 38.88 31.15 41.02
  A 0.42 0.41 13.8 0 0 31.70 40.69
  L 35.05 16.21
  A 0.47 0.46 -81.8 0 1 35.57 15.82
  L 37.59 16.09
  A 0.85 0.83 86.7 0 1 38.28 16.72
  Q 38.96 19.32 43.76 25.69
  Q 51.43 35.84 42.15 43.52
  A 0.37 0.37 0.0 0 1 41.56 43.13
  Z"
/>
</svg>
