<?xml version="1.0" encoding="UTF-8" standalone="no"?>
<!DOCTYPE svg PUBLIC "-//W3C//DTD SVG 1.1//EN" "http://www.w3.org/Graphics/SVG/1.1/DTD/svg11.dtd">
<svg xmlns="http://www.w3.org/2000/svg" version="1.1" viewBox="0.00 0.00 66.00 88.00">
<g stroke-width="2.00" fill="none" stroke-linecap="butt">
<path stroke="#5e5657" vector-effect="non-scaling-stroke" d="
  M 33.41 86.68
  Q 33.54 86.68 33.68 86.65
  A 0.19 0.18 -71.6 0 0 33.77 86.60
  C 50.13 71.43 74.23 40.82 59.97 17.34
  C 54.33 8.06 44.61 2.76 33.75 2.48
  Q 33.64 2.48 33.53 2.48
  Q 33.43 2.48 33.32 2.48
  C 22.45 2.73 12.72 8.00 7.05 17.26
  C -7.28 40.70 16.73 71.38 33.05 86.60
  A 0.19 0.18 71.8 0 0 33.14 86.65
  Q 33.28 86.68 33.41 86.68"
/>
<path stroke="#beb8b9" vector-effect="non-scaling-stroke" d="
  M 40.66 32.86
  Q 38.58 29.82 35.83 27.88
  A 1.93 1.92 -62.4 0 1 35.13 25.64
  Q 36.15 22.84 38.95 20.28
  A 0.45 0.45 0.0 0 0 38.79 19.52
  L 30.28 16.59
  A 0.72 0.71 53.6 0 0 29.97 16.54
  Q 24.59 16.67 23.07 17.77
  Q 16.86 22.26 16.60 22.32
  A 0.26 0.26 0.0 0 0 16.49 22.78
  L 21.63 26.82
  A 0.61 0.60 46.0 0 1 21.62 27.79
  Q 18.48 30.06 16.19 33.66
  C 13.45 37.98 14.08 44.39 20.17 44.85
  A 0.44 0.44 0.0 0 0 20.62 44.26
  Q 19.54 41.41 19.79 40.52
  A 0.26 0.26 0.0 0 1 20.28 40.49
  C 21.88 44.19 25.18 47.06 29.32 46.76
  A 0.64 0.63 -2.5 0 0 29.91 46.13
  L 29.91 37.92
  A 2.88 2.84 -30.2 0 1 30.30 36.48
  C 32.24 33.22 36.88 32.89 40.34 33.37
  A 0.33 0.33 0.0 0 0 40.66 32.86"
/>
<path stroke="#beb8b9" vector-effect="non-scaling-stroke" d="
  M 32.7300 38.1900
  A 5.23 2.09 -180.0 0 0 37.9600 40.2800
  A 5.23 2.09 -180.0 0 0 43.1900 38.1900
  A 5.23 2.09 -180.0 0 0 37.9600 36.1000
  A 5.23 2.09 -180.0 0 0 32.7300 38.1900"
/>
<path stroke="#beb8b9" vector-effect="non-scaling-stroke" d="
  M 46.03 38.97
  L 46.01 42.43
  A 0.32 0.32 0.0 0 0 46.33 42.75
  L 46.48 42.75
  A 4.73 1.99 0.3 0 0 51.22 40.78
  L 51.22 40.66
  A 4.73 1.99 0.3 0 0 46.50 38.65
  L 46.35 38.65
  A 0.32 0.32 0.0 0 0 46.03 38.97"
/>
<path stroke="#beb8b9" vector-effect="non-scaling-stroke" d="
  M 37.95 45.54
  C 39.72 45.54 43.19 45.08 43.34 43.04
  A 0.56 0.56 0.0 0 0 42.67 42.46
  Q 40.29 42.99 37.95 42.99
  Q 35.62 42.99 33.24 42.45
  A 0.56 0.56 0.0 0 0 32.57 43.03
  C 32.71 45.07 36.18 45.53 37.95 45.54"
/>
<path stroke="#beb8b9" vector-effect="non-scaling-stroke" d="
  M 50.83 44.72
  L 46.89 45.45
  A 1.30 1.30 0.0 0 0 47.05 48.02
  C 48.54 48.11 51.36 47.36 51.40 45.21
  A 0.49 0.49 0.0 0 0 50.83 44.72"
/>
<path stroke="#beb8b9" vector-effect="non-scaling-stroke" d="
  M 37.95 50.67
  C 39.69 50.67 43.12 50.21 43.26 48.20
  A 0.55 0.55 0.0 0 0 42.59 47.63
  Q 40.25 48.16 37.95 48.16
  Q 35.64 48.17 33.30 47.64
  A 0.55 0.55 0.0 0 0 32.63 48.21
  C 32.78 50.22 36.21 50.68 37.95 50.67"
/>
<path stroke="#beb8b9" vector-effect="non-scaling-stroke" d="
  M 28.10 22.73
  Q 32.28 22.21 35.41 20.75
  A 0.27 0.27 0.0 0 0 35.39 20.25
  C 33.05 19.35 30.00 18.57 27.61 18.87
  C 25.23 19.17 22.47 20.69 20.42 22.14
  A 0.27 0.27 0.0 0 0 20.53 22.63
  Q 23.92 23.26 28.10 22.73"
/>
<path stroke="#beb8b9" vector-effect="non-scaling-stroke" d="
  M 32.50 26.50
  A 0.27 0.27 0.0 0 0 32.14 26.40
  Q 28.52 28.19 24.80 26.28
  A 0.41 0.40 4.1 0 0 24.23 26.77
  Q 24.56 27.73 23.65 28.20
  A 0.40 0.40 0.0 0 0 23.68 28.93
  Q 28.55 30.87 33.36 28.71
  A 0.33 0.32 -27.3 0 0 33.51 28.25
  L 32.50 26.50"
/>
</g>
<path fill="#3f3a3a" d="
  M 33.80 88.00
  L 33.04 88.00
  C 16.67 73.12 -6.66 43.81 4.25 19.99
  C 12.01 3.06 32.68 -3.68 49.06 5.32
  C 59.83 11.24 66.20 22.59 65.43 34.91
  C 64.14 55.23 48.19 74.87 33.80 88.00
  Z
  M 33.41 86.68
  Q 33.54 86.68 33.68 86.65
  A 0.19 0.18 -71.6 0 0 33.77 86.60
  C 50.13 71.43 74.23 40.82 59.97 17.34
  C 54.33 8.06 44.61 2.76 33.75 2.48
  Q 33.64 2.48 33.53 2.48
  Q 33.43 2.48 33.32 2.48
  C 22.45 2.73 12.72 8.00 7.05 17.26
  C -7.28 40.70 16.73 71.38 33.05 86.60
  A 0.19 0.18 71.8 0 0 33.14 86.65
  Q 33.28 86.68 33.41 86.68
  Z"
/>
<path fill="#7c7173" d="
  M 33.53 2.48
  Q 33.64 2.48 33.75 2.48
  C 44.61 2.76 54.33 8.06 59.97 17.34
  C 74.23 40.82 50.13 71.43 33.77 86.60
  A 0.19 0.18 -71.6 0 1 33.68 86.65
  Q 33.54 86.68 33.41 86.68
  Q 33.28 86.68 33.14 86.65
  A 0.19 0.18 71.8 0 1 33.05 86.60
  C 16.73 71.38 -7.28 40.70 7.05 17.26
  C 12.72 8.00 22.45 2.73 33.32 2.48
  Q 33.43 2.48 33.53 2.48
  Z
  M 40.66 32.86
  Q 38.58 29.82 35.83 27.88
  A 1.93 1.92 -62.4 0 1 35.13 25.64
  Q 36.15 22.84 38.95 20.28
  A 0.45 0.45 0.0 0 0 38.79 19.52
  L 30.28 16.59
  A 0.72 0.71 53.6 0 0 29.97 16.54
  Q 24.59 16.67 23.07 17.77
  Q 16.86 22.26 16.60 22.32
  A 0.26 0.26 0.0 0 0 16.49 22.78
  L 21.63 26.82
  A 0.61 0.60 46.0 0 1 21.62 27.79
  Q 18.48 30.06 16.19 33.66
  C 13.45 37.98 14.08 44.39 20.17 44.85
  A 0.44 0.44 0.0 0 0 20.62 44.26
  Q 19.54 41.41 19.79 40.52
  A 0.26 0.26 0.0 0 1 20.28 40.49
  C 21.88 44.19 25.18 47.06 29.32 46.76
  A 0.64 0.63 -2.5 0 0 29.91 46.13
  L 29.91 37.92
  A 2.88 2.84 -30.2 0 1 30.30 36.48
  C 32.24 33.22 36.88 32.89 40.34 33.37
  A 0.33 0.33 0.0 0 0 40.66 32.86
  Z
  M 32.7300 38.1900
  A 5.23 2.09 -180.0 0 0 37.9600 40.2800
  A 5.23 2.09 -180.0 0 0 43.1900 38.1900
  A 5.23 2.09 -180.0 0 0 37.9600 36.1000
  A 5.23 2.09 -180.0 0 0 32.7300 38.1900
  Z
  M 46.03 38.97
  L 46.01 42.43
  A 0.32 0.32 0.0 0 0 46.33 42.75
  L 46.48 42.75
  A 4.73 1.99 0.3 0 0 51.22 40.78
  L 51.22 40.66
  A 4.73 1.99 0.3 0 0 46.50 38.65
  L 46.35 38.65
  A 0.32 0.32 0.0 0 0 46.03 38.97
  Z
  M 37.95 45.54
  C 39.72 45.54 43.19 45.08 43.34 43.04
  A 0.56 0.56 0.0 0 0 42.67 42.46
  Q 40.29 42.99 37.95 42.99
  Q 35.62 42.99 33.24 42.45
  A 0.56 0.56 0.0 0 0 32.57 43.03
  C 32.71 45.07 36.18 45.53 37.95 45.54
  Z
  M 50.83 44.72
  L 46.89 45.45
  A 1.30 1.30 0.0 0 0 47.05 48.02
  C 48.54 48.11 51.36 47.36 51.40 45.21
  A 0.49 0.49 0.0 0 0 50.83 44.72
  Z
  M 37.95 50.67
  C 39.69 50.67 43.12 50.21 43.26 48.20
  A 0.55 0.55 0.0 0 0 42.59 47.63
  Q 40.25 48.16 37.95 48.16
  Q 35.64 48.17 33.30 47.64
  A 0.55 0.55 0.0 0 0 32.63 48.21
  C 32.78 50.22 36.21 50.68 37.95 50.67
  Z"
/>
<path fill="#ffffff" d="
  M 40.34 33.37
  C 36.88 32.89 32.24 33.22 30.30 36.48
  A 2.88 2.84 -30.2 0 0 29.91 37.92
  L 29.91 46.13
  A 0.64 0.63 -2.5 0 1 29.32 46.76
  C 25.18 47.06 21.88 44.19 20.28 40.49
  A 0.26 0.26 0.0 0 0 19.79 40.52
  Q 19.54 41.41 20.62 44.26
  A 0.44 0.44 0.0 0 1 20.17 44.85
  C 14.08 44.39 13.45 37.98 16.19 33.66
  Q 18.48 30.06 21.62 27.79
  A 0.61 0.60 46.0 0 0 21.63 26.82
  L 16.49 22.78
  A 0.26 0.26 0.0 0 1 16.60 22.32
  Q 16.86 22.26 23.07 17.77
  Q 24.59 16.67 29.97 16.54
  A 0.72 0.71 53.6 0 1 30.28 16.59
  L 38.79 19.52
  A 0.45 0.45 0.0 0 1 38.95 20.28
  Q 36.15 22.84 35.13 25.64
  A 1.93 1.92 -62.4 0 0 35.83 27.88
  Q 38.58 29.82 40.66 32.86
  A 0.33 0.33 0.0 0 1 40.34 33.37
  Z
  M 28.10 22.73
  Q 32.28 22.21 35.41 20.75
  A 0.27 0.27 0.0 0 0 35.39 20.25
  C 33.05 19.35 30.00 18.57 27.61 18.87
  C 25.23 19.17 22.47 20.69 20.42 22.14
  A 0.27 0.27 0.0 0 0 20.53 22.63
  Q 23.92 23.26 28.10 22.73
  Z
  M 32.50 26.50
  A 0.27 0.27 0.0 0 0 32.14 26.40
  Q 28.52 28.19 24.80 26.28
  A 0.41 0.40 4.1 0 0 24.23 26.77
  Q 24.56 27.73 23.65 28.20
  A 0.40 0.40 0.0 0 0 23.68 28.93
  Q 28.55 30.87 33.36 28.71
  A 0.33 0.32 -27.3 0 0 33.51 28.25
  L 32.50 26.50
  Z"
/>
<path fill="#7c7173" d="
  M 28.10 22.73
  Q 23.92 23.26 20.53 22.63
  A 0.27 0.27 0.0 0 1 20.42 22.14
  C 22.47 20.69 25.23 19.17 27.61 18.87
  C 30.00 18.57 33.05 19.35 35.39 20.25
  A 0.27 0.27 0.0 0 1 35.41 20.75
  Q 32.28 22.21 28.10 22.73
  Z"
/>
<path fill="#7c7173" d="
  M 33.36 28.71
  Q 28.55 30.87 23.68 28.93
  A 0.40 0.40 0.0 0 1 23.65 28.20
  Q 24.56 27.73 24.23 26.77
  A 0.41 0.40 4.1 0 1 24.80 26.28
  Q 28.52 28.19 32.14 26.40
  A 0.27 0.27 0.0 0 1 32.50 26.50
  L 33.51 28.25
  A 0.33 0.32 -27.3 0 1 33.36 28.71
  Z"
/>
<ellipse fill="#ffffff" cx="0.00" cy="0.00" transform="translate(37.96,38.19) rotate(-180.0)" rx="5.23" ry="2.09"/>
<path fill="#ffffff" d="
  M 46.03 38.97
  A 0.32 0.32 0.0 0 1 46.35 38.65
  L 46.50 38.65
  A 4.73 1.99 0.3 0 1 51.22 40.66
  L 51.22 40.78
  A 4.73 1.99 0.3 0 1 46.48 42.75
  L 46.33 42.75
  A 0.32 0.32 0.0 0 1 46.01 42.43
  L 46.03 38.97
  Z"
/>
<path fill="#ffffff" d="
  M 37.95 42.99
  Q 40.29 42.99 42.67 42.46
  A 0.56 0.56 0.0 0 1 43.34 43.04
  C 43.19 45.08 39.72 45.54 37.95 45.54
  C 36.18 45.53 32.71 45.07 32.57 43.03
  A 0.56 0.56 0.0 0 1 33.24 42.45
  Q 35.62 42.99 37.95 42.99
  Z"
/>
<path fill="#ffffff" d="
  M 51.40 45.21
  C 51.36 47.36 48.54 48.11 47.05 48.02
  A 1.30 1.30 0.0 0 1 46.89 45.45
  L 50.83 44.72
  A 0.49 0.49 0.0 0 1 51.40 45.21
  Z"
/>
<path fill="#ffffff" d="
  M 37.95 50.67
  C 36.21 50.68 32.78 50.22 32.63 48.21
  A 0.55 0.55 0.0 0 1 33.30 47.64
  Q 35.64 48.17 37.95 48.16
  Q 40.25 48.16 42.59 47.63
  A 0.55 0.55 0.0 0 1 43.26 48.20
  C 43.12 50.21 39.69 50.67 37.95 50.67
  Z"
/>
</svg>
