<?xml version="1.0" encoding="UTF-8" standalone="no"?>
<!DOCTYPE svg PUBLIC "-//W3C//DTD SVG 1.1//EN" "http://www.w3.org/Graphics/SVG/1.1/DTD/svg11.dtd">
<svg xmlns="http://www.w3.org/2000/svg" version="1.1" viewBox="0.00 0.00 66.00 88.00">
<g stroke-width="2.00" fill="none" stroke-linecap="butt">
<path stroke="#5e5656" vector-effect="non-scaling-stroke" d="
  M 33.41 86.68
  Q 33.54 86.68 33.68 86.65
  A 0.14 0.09 1.4 0 0 33.73 86.62
  Q 49.81 71.08 57.60 56.55
  Q 62.68 47.07 63.89 38.25
  C 65.98 23.10 58.59 10.05 44.48 4.52
  Q 39.27 2.48 33.54 2.47
  Q 27.82 2.46 22.60 4.49
  C 8.47 9.97 1.04 22.99 3.08 38.15
  Q 4.26 46.98 9.31 56.47
  Q 17.05 71.03 33.08 86.62
  A 0.14 0.09 -1.2 0 0 33.14 86.65
  Q 33.27 86.68 33.41 86.68"
/>
<path stroke="#beb8b9" vector-effect="non-scaling-stroke" d="
  M 33.96 41.11
  C 32.78 38.20 33.28 36.92 35.46 34.78
  C 39.12 31.17 43.03 27.94 42.32 22.85
  C 41.13 14.20 30.66 15.33 24.70 17.13
  A 0.82 0.81 -8.7 0 0 24.12 17.91
  L 24.12 22.11
  A 0.46 0.46 0.0 0 0 24.90 22.44
  C 27.03 20.38 32.28 18.51 34.87 20.67
  C 37.09 22.52 36.67 25.92 34.80 28.05
  C 31.48 31.83 25.43 36.35 30.36 41.75
  A 0.71 0.70 67.8 0 0 30.87 41.97
  L 33.38 41.97
  A 0.63 0.62 -11.1 0 0 33.96 41.11"
/>
<path stroke="#beb8b9" vector-effect="non-scaling-stroke" d="
  M 35.53 49.04
  A 3.24 3.24 0.0 0 0 32.29 45.80
  A 3.24 3.24 0.0 0 0 29.05 49.04
  A 3.24 3.24 0.0 0 0 32.29 52.28
  A 3.24 3.24 0.0 0 0 35.53 49.04"
/>
</g>
<path fill="#3f3a39" d="
  M 33.80 88.00
  L 33.13 88.00
  Q 15.42 72.27 5.96 52.53
  Q 3.45 47.28 2.05 39.26
  Q 0.39 29.71 3.64 21.46
  C 9.97 5.39 28.28 -2.75 44.70 3.34
  Q 56.22 7.62 62.02 18.55
  C 67.42 28.74 65.92 41.10 61.31 51.54
  C 55.21 65.38 44.94 77.85 33.80 88.00
  Z
  M 33.41 86.68
  Q 33.54 86.68 33.68 86.65
  A 0.14 0.09 1.4 0 0 33.73 86.62
  Q 49.81 71.08 57.60 56.55
  Q 62.68 47.07 63.89 38.25
  C 65.98 23.10 58.59 10.05 44.48 4.52
  Q 39.27 2.48 33.54 2.47
  Q 27.82 2.46 22.60 4.49
  C 8.47 9.97 1.04 22.99 3.08 38.15
  Q 4.26 46.98 9.31 56.47
  Q 17.05 71.03 33.08 86.62
  A 0.14 0.09 -1.2 0 0 33.14 86.65
  Q 33.27 86.68 33.41 86.68
  Z"
/>
<path fill="#7c7173" d="
  M 33.54 2.47
  Q 39.27 2.48 44.48 4.52
  C 58.59 10.05 65.98 23.10 63.89 38.25
  Q 62.68 47.07 57.60 56.55
  Q 49.81 71.08 33.73 86.62
  A 0.14 0.09 1.4 0 1 33.68 86.65
  Q 33.54 86.68 33.41 86.68
  Q 33.27 86.68 33.14 86.65
  A 0.14 0.09 -1.2 0 1 33.08 86.62
  Q 17.05 71.03 9.31 56.47
  Q 4.26 46.98 3.08 38.15
  C 1.04 22.99 8.47 9.97 22.60 4.49
  Q 27.82 2.46 33.54 2.47
  Z
  M 33.96 41.11
  C 32.78 38.20 33.28 36.92 35.46 34.78
  C 39.12 31.17 43.03 27.94 42.32 22.85
  C 41.13 14.20 30.66 15.33 24.70 17.13
  A 0.82 0.81 -8.7 0 0 24.12 17.91
  L 24.12 22.11
  A 0.46 0.46 0.0 0 0 24.90 22.44
  C 27.03 20.38 32.28 18.51 34.87 20.67
  C 37.09 22.52 36.67 25.92 34.80 28.05
  C 31.48 31.83 25.43 36.35 30.36 41.75
  A 0.71 0.70 67.8 0 0 30.87 41.97
  L 33.38 41.97
  A 0.63 0.62 -11.1 0 0 33.96 41.11
  Z
  M 35.53 49.04
  A 3.24 3.24 0.0 0 0 32.29 45.80
  A 3.24 3.24 0.0 0 0 29.05 49.04
  A 3.24 3.24 0.0 0 0 32.29 52.28
  A 3.24 3.24 0.0 0 0 35.53 49.04
  Z"
/>
<path fill="#ffffff" d="
  M 33.38 41.97
  L 30.87 41.97
  A 0.71 0.70 67.8 0 1 30.36 41.75
  C 25.43 36.35 31.48 31.83 34.80 28.05
  C 36.67 25.92 37.09 22.52 34.87 20.67
  C 32.28 18.51 27.03 20.38 24.90 22.44
  A 0.46 0.46 0.0 0 1 24.12 22.11
  L 24.12 17.91
  A 0.82 0.81 -8.7 0 1 24.70 17.13
  C 30.66 15.33 41.13 14.20 42.32 22.85
  C 43.03 27.94 39.12 31.17 35.46 34.78
  C 33.28 36.92 32.78 38.20 33.96 41.11
  A 0.63 0.62 -11.1 0 1 33.38 41.97
  Z"
/>
<circle fill="#ffffff" cx="32.29" cy="49.04" r="3.24"/>
</svg>
