<?xml version="1.0" encoding="UTF-8" standalone="no"?>
<!DOCTYPE svg PUBLIC "-//W3C//DTD SVG 1.1//EN" "http://www.w3.org/Graphics/SVG/1.1/DTD/svg11.dtd">
<svg xmlns="http://www.w3.org/2000/svg" version="1.1" viewBox="0.00 0.00 66.00 88.00">
<g stroke-width="2.00" fill="none" stroke-linecap="butt">
<path stroke="#6d201d" vector-effect="non-scaling-stroke" d="
  M 33.44 86.64
  Q 33.65 86.64 33.75 86.55
  Q 44.51 76.51 52.84 64.36
  C 62.49 50.27 70.08 29.89 58.22 14.78
  C 52.20 7.11 43.42 2.49 33.50 2.48
  C 23.58 2.47 14.79 7.09 8.76 14.74
  C -3.13 29.84 4.43 50.23 14.06 64.33
  Q 22.38 76.49 33.13 86.55
  Q 33.22 86.64 33.44 86.64"
/>
<path stroke="#c79593" vector-effect="non-scaling-stroke" d="
  M 33.02 49.17
  Q 33.46 49.17 34.07 47.57
  A 0.48 0.48 0.0 0 1 34.99 47.77
  Q 34.91 48.81 35.21 49.06
  A 0.51 0.51 0.0 0 0 36.03 48.76
  Q 36.28 47.57 36.39 47.46
  A 0.40 0.39 -31.6 0 1 37.05 47.61
  Q 37.69 49.79 37.42 51.29
  A 0.46 0.46 0.0 0 0 38.26 51.63
  Q 41.45 46.69 38.74 42.42
  A 0.32 0.31 -15.9 0 1 39.01 41.94
  L 42.58 41.94
  A 1.16 1.16 0.0 0 0 43.74 40.68
  L 43.19 34.39
  A 0.65 0.64 -0.5 0 0 42.59 33.81
  Q 39.48 33.63 36.68 34.42
  A 0.30 0.30 0.0 0 1 36.42 33.89
  Q 39.00 31.98 42.27 31.77
  A 0.49 0.49 0.0 0 0 42.72 31.24
  L 42.40 27.62
  A 0.67 0.65 72.0 0 1 42.70 27.01
  C 46.62 24.50 50.97 22.00 47.26 16.64
  A 0.27 0.27 0.0 0 0 46.77 16.74
  C 45.77 21.63 40.62 23.79 36.44 25.82
  A 0.36 0.36 0.0 0 1 36.02 25.24
  L 37.34 23.92
  A 0.68 0.68 0.0 0 0 37.21 22.86
  Q 35.86 22.06 33.02 22.06
  Q 30.19 22.06 28.84 22.86
  A 0.68 0.68 0.0 0 0 28.71 23.92
  L 30.03 25.24
  A 0.36 0.36 0.0 0 1 29.61 25.82
  C 25.43 23.79 20.28 21.63 19.28 16.74
  A 0.27 0.27 0.0 0 0 18.79 16.64
  C 15.08 22.00 19.43 24.50 23.35 27.01
  A 0.67 0.65 -72.0 0 1 23.65 27.62
  L 23.33 31.24
  A 0.49 0.49 0.0 0 0 23.78 31.77
  Q 27.05 31.98 29.63 33.89
  A 0.30 0.30 0.0 0 1 29.37 34.42
  Q 26.57 33.63 23.46 33.81
  A 0.65 0.64 0.5 0 0 22.86 34.39
  L 22.31 40.68
  A 1.16 1.16 0.0 0 0 23.47 41.94
  L 27.04 41.94
  A 0.32 0.31 15.9 0 1 27.31 42.42
  Q 24.60 46.69 27.79 51.63
  A 0.46 0.46 0.0 0 0 28.63 51.29
  Q 28.36 49.79 29.00 47.61
  A 0.40 0.39 31.6 0 1 29.66 47.46
  Q 29.77 47.57 30.02 48.76
  A 0.51 0.51 0.0 0 0 30.84 49.06
  Q 31.14 48.81 31.06 47.77
  A 0.48 0.48 0.0 0 1 31.98 47.57
  Q 32.59 49.17 33.02 49.17"
/>
<path stroke="#c79593" vector-effect="non-scaling-stroke" d="
  M 31.19 37.21
  L 24.74 34.94
  A 0.62 0.62 0.0 0 0 23.95 35.31
  L 23.35 37.02
  A 0.98 0.97 32.6 0 0 23.58 38.04
  L 25.67 40.13
  A 0.86 0.86 0.0 0 0 26.72 40.27
  L 31.23 37.67
  A 0.26 0.25 -50.3 0 0 31.19 37.21"
/>
<path stroke="#c79593" vector-effect="non-scaling-stroke" d="
  M 34.87 37.22
  A 0.26 0.25 50.2 0 0 34.83 37.68
  L 39.36 40.28
  A 0.86 0.86 0.0 0 0 40.41 40.13
  L 42.50 38.03
  A 0.98 0.97 -32.7 0 0 42.73 37.01
  L 42.12 35.30
  A 0.62 0.62 0.0 0 0 41.33 34.93
  L 34.87 37.22"
/>
<path stroke="#c79593" vector-effect="non-scaling-stroke" d="
  M 33.04 42.58
  Q 33.76 42.58 34.57 43.09
  A 0.32 0.32 0.0 0 0 35.02 42.67
  L 33.22 39.27
  A 0.14 0.06 -1.1 0 0 33.11 39.22
  Q 33.07 39.22 33.04 39.22
  Q 33.00 39.22 32.96 39.22
  A 0.14 0.06 0.8 0 0 32.85 39.27
  L 31.07 42.68
  A 0.32 0.32 0.0 0 0 31.52 43.10
  Q 32.33 42.59 33.04 42.58"
/>
</g>
<path fill="#4b1412" d="
  M 33.82 88.00
  L 33.04 88.00
  C 21.78 77.77 12.07 65.64 5.64 51.57
  Q 2.21 44.05 1.60 34.90
  C 0.54 18.98 11.22 5.65 26.49 2.10
  C 40.57 -1.17 55.22 5.58 62.14 18.80
  C 67.44 28.91 65.84 41.38 61.23 51.71
  C 55.09 65.51 44.93 77.84 33.82 88.00
  Z
  M 33.44 86.64
  Q 33.65 86.64 33.75 86.55
  Q 44.51 76.51 52.84 64.36
  C 62.49 50.27 70.08 29.89 58.22 14.78
  C 52.20 7.11 43.42 2.49 33.50 2.48
  C 23.58 2.47 14.79 7.09 8.76 14.74
  C -3.13 29.84 4.43 50.23 14.06 64.33
  Q 22.38 76.49 33.13 86.55
  Q 33.22 86.64 33.44 86.64
  Z"
/>
<path fill="#8e2b27" d="
  M 33.50 2.48
  C 43.42 2.49 52.20 7.11 58.22 14.78
  C 70.08 29.89 62.49 50.27 52.84 64.36
  Q 44.51 76.51 33.75 86.55
  Q 33.65 86.64 33.44 86.64
  Q 33.22 86.64 33.13 86.55
  Q 22.38 76.49 14.06 64.33
  C 4.43 50.23 -3.13 29.84 8.76 14.74
  C 14.79 7.09 23.58 2.47 33.50 2.48
  Z
  M 33.02 49.17
  Q 33.46 49.17 34.07 47.57
  A 0.48 0.48 0.0 0 1 34.99 47.77
  Q 34.91 48.81 35.21 49.06
  A 0.51 0.51 0.0 0 0 36.03 48.76
  Q 36.28 47.57 36.39 47.46
  A 0.40 0.39 -31.6 0 1 37.05 47.61
  Q 37.69 49.79 37.42 51.29
  A 0.46 0.46 0.0 0 0 38.26 51.63
  Q 41.45 46.69 38.74 42.42
  A 0.32 0.31 -15.9 0 1 39.01 41.94
  L 42.58 41.94
  A 1.16 1.16 0.0 0 0 43.74 40.68
  L 43.19 34.39
  A 0.65 0.64 -0.5 0 0 42.59 33.81
  Q 39.48 33.63 36.68 34.42
  A 0.30 0.30 0.0 0 1 36.42 33.89
  Q 39.00 31.98 42.27 31.77
  A 0.49 0.49 0.0 0 0 42.72 31.24
  L 42.40 27.62
  A 0.67 0.65 72.0 0 1 42.70 27.01
  C 46.62 24.50 50.97 22.00 47.26 16.64
  A 0.27 0.27 0.0 0 0 46.77 16.74
  C 45.77 21.63 40.62 23.79 36.44 25.82
  A 0.36 0.36 0.0 0 1 36.02 25.24
  L 37.34 23.92
  A 0.68 0.68 0.0 0 0 37.21 22.86
  Q 35.86 22.06 33.02 22.06
  Q 30.19 22.06 28.84 22.86
  A 0.68 0.68 0.0 0 0 28.71 23.92
  L 30.03 25.24
  A 0.36 0.36 0.0 0 1 29.61 25.82
  C 25.43 23.79 20.28 21.63 19.28 16.74
  A 0.27 0.27 0.0 0 0 18.79 16.64
  C 15.08 22.00 19.43 24.50 23.35 27.01
  A 0.67 0.65 -72.0 0 1 23.65 27.62
  L 23.33 31.24
  A 0.49 0.49 0.0 0 0 23.78 31.77
  Q 27.05 31.98 29.63 33.89
  A 0.30 0.30 0.0 0 1 29.37 34.42
  Q 26.57 33.63 23.46 33.81
  A 0.65 0.64 0.5 0 0 22.86 34.39
  L 22.31 40.68
  A 1.16 1.16 0.0 0 0 23.47 41.94
  L 27.04 41.94
  A 0.32 0.31 15.9 0 1 27.31 42.42
  Q 24.60 46.69 27.79 51.63
  A 0.46 0.46 0.0 0 0 28.63 51.29
  Q 28.36 49.79 29.00 47.61
  A 0.40 0.39 31.6 0 1 29.66 47.46
  Q 29.77 47.57 30.02 48.76
  A 0.51 0.51 0.0 0 0 30.84 49.06
  Q 31.14 48.81 31.06 47.77
  A 0.48 0.48 0.0 0 1 31.98 47.57
  Q 32.59 49.17 33.02 49.17
  Z"
/>
<path fill="#ffffff" d="
  M 33.02 22.06
  Q 35.86 22.06 37.21 22.86
  A 0.68 0.68 0.0 0 1 37.34 23.92
  L 36.02 25.24
  A 0.36 0.36 0.0 0 0 36.44 25.82
  C 40.62 23.79 45.77 21.63 46.77 16.74
  A 0.27 0.27 0.0 0 1 47.26 16.64
  C 50.97 22.00 46.62 24.50 42.70 27.01
  A 0.67 0.65 72.0 0 0 42.40 27.62
  L 42.72 31.24
  A 0.49 0.49 0.0 0 1 42.27 31.77
  Q 39.00 31.98 36.42 33.89
  A 0.30 0.30 0.0 0 0 36.68 34.42
  Q 39.48 33.63 42.59 33.81
  A 0.65 0.64 -0.5 0 1 43.19 34.39
  L 43.74 40.68
  A 1.16 1.16 0.0 0 1 42.58 41.94
  L 39.01 41.94
  A 0.32 0.31 -15.9 0 0 38.74 42.42
  Q 41.45 46.69 38.26 51.63
  A 0.46 0.46 0.0 0 1 37.42 51.29
  Q 37.69 49.79 37.05 47.61
  A 0.40 0.39 -31.6 0 0 36.39 47.46
  Q 36.28 47.57 36.03 48.76
  A 0.51 0.51 0.0 0 1 35.21 49.06
  Q 34.91 48.81 34.99 47.77
  A 0.48 0.48 0.0 0 0 34.07 47.57
  Q 33.46 49.17 33.02 49.17
  Q 32.59 49.17 31.98 47.57
  A 0.48 0.48 0.0 0 0 31.06 47.77
  Q 31.14 48.81 30.84 49.06
  A 0.51 0.51 0.0 0 1 30.02 48.76
  Q 29.77 47.57 29.66 47.46
  A 0.40 0.39 31.6 0 0 29.00 47.61
  Q 28.36 49.79 28.63 51.29
  A 0.46 0.46 0.0 0 1 27.79 51.63
  Q 24.60 46.69 27.31 42.42
  A 0.32 0.31 15.9 0 0 27.04 41.94
  L 23.47 41.94
  A 1.16 1.16 0.0 0 1 22.31 40.68
  L 22.86 34.39
  A 0.65 0.64 0.5 0 1 23.46 33.81
  Q 26.57 33.63 29.37 34.42
  A 0.30 0.30 0.0 0 0 29.63 33.89
  Q 27.05 31.98 23.78 31.77
  A 0.49 0.49 0.0 0 1 23.33 31.24
  L 23.65 27.62
  A 0.67 0.65 -72.0 0 0 23.35 27.01
  C 19.43 24.50 15.08 22.00 18.79 16.64
  A 0.27 0.27 0.0 0 1 19.28 16.74
  C 20.28 21.63 25.43 23.79 29.61 25.82
  A 0.36 0.36 0.0 0 0 30.03 25.24
  L 28.71 23.92
  A 0.68 0.68 0.0 0 1 28.84 22.86
  Q 30.19 22.06 33.02 22.06
  Z
  M 31.19 37.21
  L 24.74 34.94
  A 0.62 0.62 0.0 0 0 23.95 35.31
  L 23.35 37.02
  A 0.98 0.97 32.6 0 0 23.58 38.04
  L 25.67 40.13
  A 0.86 0.86 0.0 0 0 26.72 40.27
  L 31.23 37.67
  A 0.26 0.25 -50.3 0 0 31.19 37.21
  Z
  M 34.87 37.22
  A 0.26 0.25 50.2 0 0 34.83 37.68
  L 39.36 40.28
  A 0.86 0.86 0.0 0 0 40.41 40.13
  L 42.50 38.03
  A 0.98 0.97 -32.7 0 0 42.73 37.01
  L 42.12 35.30
  A 0.62 0.62 0.0 0 0 41.33 34.93
  L 34.87 37.22
  Z
  M 33.04 42.58
  Q 33.76 42.58 34.57 43.09
  A 0.32 0.32 0.0 0 0 35.02 42.67
  L 33.22 39.27
  A 0.14 0.06 -1.1 0 0 33.11 39.22
  Q 33.07 39.22 33.04 39.22
  Q 33.00 39.22 32.96 39.22
  A 0.14 0.06 0.8 0 0 32.85 39.27
  L 31.07 42.68
  A 0.32 0.32 0.0 0 0 31.52 43.10
  Q 32.33 42.59 33.04 42.58
  Z"
/>
<path fill="#8e2b27" d="
  M 31.19 37.21
  A 0.26 0.25 -50.3 0 1 31.23 37.67
  L 26.72 40.27
  A 0.86 0.86 0.0 0 1 25.67 40.13
  L 23.58 38.04
  A 0.98 0.97 32.6 0 1 23.35 37.02
  L 23.95 35.31
  A 0.62 0.62 0.0 0 1 24.74 34.94
  L 31.19 37.21
  Z"
/>
<path fill="#8e2b27" d="
  M 34.87 37.22
  L 41.33 34.93
  A 0.62 0.62 0.0 0 1 42.12 35.30
  L 42.73 37.01
  A 0.98 0.97 -32.7 0 1 42.50 38.03
  L 40.41 40.13
  A 0.86 0.86 0.0 0 1 39.36 40.28
  L 34.83 37.68
  A 0.26 0.25 50.2 0 1 34.87 37.22
  Z"
/>
<path fill="#8e2b27" d="
  M 33.04 39.22
  Q 33.07 39.22 33.11 39.22
  A 0.14 0.06 -1.1 0 1 33.22 39.27
  L 35.02 42.67
  A 0.32 0.32 0.0 0 1 34.57 43.09
  Q 33.76 42.58 33.04 42.58
  Q 32.33 42.59 31.52 43.10
  A 0.32 0.32 0.0 0 1 31.07 42.68
  L 32.85 39.27
  A 0.14 0.06 0.8 0 1 32.96 39.22
  Q 33.00 39.22 33.04 39.22
  Z"
/>
</svg>
