<?xml version="1.0" encoding="UTF-8" standalone="no"?>
<!DOCTYPE svg PUBLIC "-//W3C//DTD SVG 1.1//EN" "http://www.w3.org/Graphics/SVG/1.1/DTD/svg11.dtd">
<svg xmlns="http://www.w3.org/2000/svg" version="1.1" viewBox="0.00 0.00 66.00 88.00">
<g stroke-width="2.00" fill="none" stroke-linecap="butt">
<path stroke="#905c35" vector-effect="non-scaling-stroke" d="
  M 33.39 86.69
  Q 33.54 86.69 33.61 86.67
  Q 33.62 86.66 33.75 86.54
  Q 47.73 73.44 56.59 58.32
  C 64.04 45.63 68.33 28.42 58.78 15.49
  Q 49.56 3.03 33.75 2.47
  Q 33.65 2.46 33.55 2.46
  Q 33.45 2.46 33.35 2.46
  Q 17.54 2.97 8.27 15.39
  C -1.33 28.29 2.90 45.51 10.30 58.23
  Q 19.10 73.39 33.03 86.54
  Q 33.16 86.66 33.17 86.66
  Q 33.24 86.69 33.39 86.69"
/>
<path stroke="#debda4" vector-effect="non-scaling-stroke" d="
  M 32.99 48.75
  Q 39.88 48.75 40.25 48.71
  A 2.12 2.12 0.0 0 0 42.15 46.61
  L 42.15 32.47
  A 1.05 1.04 -76.7 0 1 43.66 31.53
  L 46.77 33.07
  A 0.87 0.87 0.0 0 0 47.94 32.68
  L 51.22 26.07
  A 0.98 0.98 0.0 0 0 50.78 24.75
  L 40.27 19.53
  A 0.84 0.83 36.9 0 0 39.34 19.66
  Q 36.78 21.95 32.99 21.95
  Q 29.21 21.95 26.64 19.66
  A 0.84 0.83 -36.9 0 0 25.72 19.53
  L 15.21 24.75
  A 0.98 0.98 0.0 0 0 14.77 26.07
  L 18.05 32.68
  A 0.87 0.87 0.0 0 0 19.22 33.07
  L 22.33 31.53
  A 1.05 1.04 76.7 0 1 23.84 32.47
  L 23.84 46.61
  A 2.12 2.12 0.0 0 0 25.74 48.71
  Q 26.11 48.75 32.99 48.75"
/>
</g>
<path fill="#623d22" d="
  M 33.81 88.00
  L 33.13 88.00
  Q 16.42 73.17 6.64 53.83
  Q 2.43 45.52 1.65 35.70
  Q 0.84 25.61 5.50 17.56
  C 18.76 -5.30 51.61 -3.68 62.85 20.27
  C 66.64 28.34 65.97 38.65 63.05 47.02
  C 57.60 62.66 45.95 76.93 33.81 88.00
  Z
  M 33.39 86.69
  Q 33.54 86.69 33.61 86.67
  Q 33.62 86.66 33.75 86.54
  Q 47.73 73.44 56.59 58.32
  C 64.04 45.63 68.33 28.42 58.78 15.49
  Q 49.56 3.03 33.75 2.47
  Q 33.65 2.46 33.55 2.46
  Q 33.45 2.46 33.35 2.46
  Q 17.54 2.97 8.27 15.39
  C -1.33 28.29 2.90 45.51 10.30 58.23
  Q 19.10 73.39 33.03 86.54
  Q 33.16 86.66 33.17 86.66
  Q 33.24 86.69 33.39 86.69
  Z"
/>
<path fill="#bd7b48" d="
  M 33.55 2.46
  Q 33.65 2.46 33.75 2.47
  Q 49.56 3.03 58.78 15.49
  C 68.33 28.42 64.04 45.63 56.59 58.32
  Q 47.73 73.44 33.75 86.54
  Q 33.62 86.66 33.61 86.67
  Q 33.54 86.69 33.39 86.69
  Q 33.24 86.69 33.17 86.66
  Q 33.16 86.66 33.03 86.54
  Q 19.10 73.39 10.30 58.23
  C 2.90 45.51 -1.33 28.29 8.27 15.39
  Q 17.54 2.97 33.35 2.46
  Q 33.45 2.46 33.55 2.46
  Z
  M 32.99 48.75
  Q 39.88 48.75 40.25 48.71
  A 2.12 2.12 0.0 0 0 42.15 46.61
  L 42.15 32.47
  A 1.05 1.04 -76.7 0 1 43.66 31.53
  L 46.77 33.07
  A 0.87 0.87 0.0 0 0 47.94 32.68
  L 51.22 26.07
  A 0.98 0.98 0.0 0 0 50.78 24.75
  L 40.27 19.53
  A 0.84 0.83 36.9 0 0 39.34 19.66
  Q 36.78 21.95 32.99 21.95
  Q 29.21 21.95 26.64 19.66
  A 0.84 0.83 -36.9 0 0 25.72 19.53
  L 15.21 24.75
  A 0.98 0.98 0.0 0 0 14.77 26.07
  L 18.05 32.68
  A 0.87 0.87 0.0 0 0 19.22 33.07
  L 22.33 31.53
  A 1.05 1.04 76.7 0 1 23.84 32.47
  L 23.84 46.61
  A 2.12 2.12 0.0 0 0 25.74 48.71
  Q 26.11 48.75 32.99 48.75
  Z"
/>
<path fill="#ffffff" d="
  M 32.99 21.95
  Q 36.78 21.95 39.34 19.66
  A 0.84 0.83 36.9 0 1 40.27 19.53
  L 50.78 24.75
  A 0.98 0.98 0.0 0 1 51.22 26.07
  L 47.94 32.68
  A 0.87 0.87 0.0 0 1 46.77 33.07
  L 43.66 31.53
  A 1.05 1.04 -76.7 0 0 42.15 32.47
  L 42.15 46.61
  A 2.12 2.12 0.0 0 1 40.25 48.71
  Q 39.88 48.75 32.99 48.75
  Q 26.11 48.75 25.74 48.71
  A 2.12 2.12 0.0 0 1 23.84 46.61
  L 23.84 32.47
  A 1.05 1.04 76.7 0 0 22.33 31.53
  L 19.22 33.07
  A 0.87 0.87 0.0 0 1 18.05 32.68
  L 14.77 26.07
  A 0.98 0.98 0.0 0 1 15.21 24.75
  L 25.72 19.53
  A 0.84 0.83 -36.9 0 1 26.64 19.66
  Q 29.21 21.95 32.99 21.95
  Z"
/>
</svg>
