<?xml version="1.0" encoding="UTF-8" standalone="no"?>
<!DOCTYPE svg PUBLIC "-//W3C//DTD SVG 1.1//EN" "http://www.w3.org/Graphics/SVG/1.1/DTD/svg11.dtd">
<svg xmlns="http://www.w3.org/2000/svg" version="1.1" viewBox="0.00 0.00 66.00 88.00">
<g stroke-width="2.00" fill="none" stroke-linecap="butt">
<path stroke="#905c35" vector-effect="non-scaling-stroke" d="
  M 33.39 86.69
  Q 33.54 86.69 33.61 86.67
  Q 33.63 86.66 33.75 86.54
  C 47.15 74.01 60.78 56.95 63.83 38.76
  C 67.00 19.78 53.65 3.43 34.50 2.49
  Q 34.03 2.46 33.55 2.46
  Q 33.08 2.46 32.60 2.48
  C 13.45 3.35 0.04 19.65 3.14 38.64
  C 6.12 56.84 19.68 73.96 33.03 86.54
  Q 33.15 86.66 33.17 86.66
  Q 33.24 86.69 33.39 86.69"
/>
<path stroke="#debda4" vector-effect="non-scaling-stroke" d="
  M 38.57 30.26
  A 0.33 0.33 0.0 0 0 38.36 30.34
  L 28.02 39.06
  A 0.33 0.33 0.0 0 1 27.48 38.81
  L 27.48 25.33
  A 0.33 0.33 0.0 0 1 27.81 25.00
  L 41.59 25.00
  A 0.33 0.33 0.0 0 0 41.92 24.67
  L 41.92 22.58
  A 0.33 0.33 0.0 0 0 41.59 22.25
  L 30.30 22.25
  A 0.33 0.33 0.0 0 1 30.06 21.69
  L 31.86 19.89
  A 0.33 0.33 0.0 0 1 32.35 19.91
  L 33.34 21.09
  A 0.33 0.33 0.0 0 0 33.80 21.13
  L 35.46 19.73
  A 0.33 0.33 0.0 0 0 35.48 19.25
  L 32.21 15.97
  A 0.33 0.33 0.0 0 0 31.75 15.97
  L 14.94 32.78
  A 0.33 0.33 0.0 0 0 14.94 33.24
  L 33.75 52.04
  A 0.33 0.33 0.0 0 0 34.21 52.04
  L 51.06 35.20
  A 0.33 0.33 0.0 0 0 51.06 34.74
  L 47.82 31.50
  A 0.33 0.33 0.0 0 0 47.36 31.50
  L 45.85 33.01
  A 0.33 0.33 0.0 0 0 45.85 33.47
  L 47.13 34.75
  A 0.33 0.33 0.0 0 1 47.13 35.21
  L 43.83 38.51
  A 0.33 0.33 0.0 0 1 43.27 38.28
  L 43.27 30.59
  A 0.33 0.33 0.0 0 0 42.94 30.26
  L 38.57 30.26"
/>
<path stroke="#debda4" vector-effect="non-scaling-stroke" d="
  M 24.16 38.52
  A 0.30 0.30 0.0 0 0 24.67 38.31
  L 24.69 27.70
  A 0.30 0.30 0.0 0 0 24.18 27.48
  L 18.86 32.78
  A 0.30 0.30 0.0 0 0 18.86 33.21
  L 24.16 38.52"
/>
<path stroke="#debda4" vector-effect="non-scaling-stroke" d="
  M 30.81 40.98
  L 39.99 40.98
  A 0.48 0.48 0.0 0 0 40.47 40.50
  L 40.47 33.63
  A 0.64 0.64 0.0 0 0 39.42 33.14
  L 30.65 40.54
  A 0.25 0.25 0.0 0 0 30.81 40.98"
/>
<path stroke="#debda4" vector-effect="non-scaling-stroke" d="
  M 34.01 48.07
  Q 34.14 48.07 34.26 47.95
  Q 36.70 45.61 37.96 44.31
  A 0.31 0.31 0.0 0 0 37.77 43.78
  Q 37.34 43.73 34.00 43.74
  Q 30.66 43.74 30.22 43.80
  A 0.31 0.31 0.0 0 0 30.04 44.33
  Q 31.30 45.62 33.75 47.95
  Q 33.87 48.07 34.01 48.07"
/>
</g>
<path fill="#623d22" d="
  M 33.80 88.00
  L 33.03 88.00
  C 21.89 77.87 12.02 65.57 5.64 51.57
  Q 0.20 39.61 2.09 26.80
  Q 3.06 20.20 8.05 13.78
  C 17.23 2.00 33.24 -2.07 47.01 4.31
  C 58.74 9.74 65.98 21.22 65.44 34.20
  Q 65.12 41.81 62.41 48.84
  C 56.68 63.72 45.53 77.35 33.80 88.00
  Z
  M 33.39 86.69
  Q 33.54 86.69 33.61 86.67
  Q 33.63 86.66 33.75 86.54
  C 47.15 74.01 60.78 56.95 63.83 38.76
  C 67.00 19.78 53.65 3.43 34.50 2.49
  Q 34.03 2.46 33.55 2.46
  Q 33.08 2.46 32.60 2.48
  C 13.45 3.35 0.04 19.65 3.14 38.64
  C 6.12 56.84 19.68 73.96 33.03 86.54
  Q 33.15 86.66 33.17 86.66
  Q 33.24 86.69 33.39 86.69
  Z"
/>
<path fill="#bd7b48" d="
  M 33.55 2.46
  Q 34.03 2.46 34.50 2.49
  C 53.65 3.43 67.00 19.78 63.83 38.76
  C 60.78 56.95 47.15 74.01 33.75 86.54
  Q 33.63 86.66 33.61 86.67
  Q 33.54 86.69 33.39 86.69
  Q 33.24 86.69 33.17 86.66
  Q 33.15 86.66 33.03 86.54
  C 19.68 73.96 6.12 56.84 3.14 38.64
  C 0.04 19.65 13.45 3.35 32.60 2.48
  Q 33.08 2.46 33.55 2.46
  Z
  M 38.57 30.26
  A 0.33 0.33 0.0 0 0 38.36 30.34
  L 28.02 39.06
  A 0.33 0.33 0.0 0 1 27.48 38.81
  L 27.48 25.33
  A 0.33 0.33 0.0 0 1 27.81 25.00
  L 41.59 25.00
  A 0.33 0.33 0.0 0 0 41.92 24.67
  L 41.92 22.58
  A 0.33 0.33 0.0 0 0 41.59 22.25
  L 30.30 22.25
  A 0.33 0.33 0.0 0 1 30.06 21.69
  L 31.86 19.89
  A 0.33 0.33 0.0 0 1 32.35 19.91
  L 33.34 21.09
  A 0.33 0.33 0.0 0 0 33.80 21.13
  L 35.46 19.73
  A 0.33 0.33 0.0 0 0 35.48 19.25
  L 32.21 15.97
  A 0.33 0.33 0.0 0 0 31.75 15.97
  L 14.94 32.78
  A 0.33 0.33 0.0 0 0 14.94 33.24
  L 33.75 52.04
  A 0.33 0.33 0.0 0 0 34.21 52.04
  L 51.06 35.20
  A 0.33 0.33 0.0 0 0 51.06 34.74
  L 47.82 31.50
  A 0.33 0.33 0.0 0 0 47.36 31.50
  L 45.85 33.01
  A 0.33 0.33 0.0 0 0 45.85 33.47
  L 47.13 34.75
  A 0.33 0.33 0.0 0 1 47.13 35.21
  L 43.83 38.51
  A 0.33 0.33 0.0 0 1 43.27 38.28
  L 43.27 30.59
  A 0.33 0.33 0.0 0 0 42.94 30.26
  L 38.57 30.26
  Z"
/>
<path fill="#ffffff" d="
  M 38.57 30.26
  L 42.94 30.26
  A 0.33 0.33 0.0 0 1 43.27 30.59
  L 43.27 38.28
  A 0.33 0.33 0.0 0 0 43.83 38.51
  L 47.13 35.21
  A 0.33 0.33 0.0 0 0 47.13 34.75
  L 45.85 33.47
  A 0.33 0.33 0.0 0 1 45.85 33.01
  L 47.36 31.50
  A 0.33 0.33 0.0 0 1 47.82 31.50
  L 51.06 34.74
  A 0.33 0.33 0.0 0 1 51.06 35.20
  L 34.21 52.04
  A 0.33 0.33 0.0 0 1 33.75 52.04
  L 14.94 33.24
  A 0.33 0.33 0.0 0 1 14.94 32.78
  L 31.75 15.97
  A 0.33 0.33 0.0 0 1 32.21 15.97
  L 35.48 19.25
  A 0.33 0.33 0.0 0 1 35.46 19.73
  L 33.80 21.13
  A 0.33 0.33 0.0 0 1 33.34 21.09
  L 32.35 19.91
  A 0.33 0.33 0.0 0 0 31.86 19.89
  L 30.06 21.69
  A 0.33 0.33 0.0 0 0 30.30 22.25
  L 41.59 22.25
  A 0.33 0.33 0.0 0 1 41.92 22.58
  L 41.92 24.67
  A 0.33 0.33 0.0 0 1 41.59 25.00
  L 27.81 25.00
  A 0.33 0.33 0.0 0 0 27.48 25.33
  L 27.48 38.81
  A 0.33 0.33 0.0 0 0 28.02 39.06
  L 38.36 30.34
  A 0.33 0.33 0.0 0 1 38.57 30.26
  Z
  M 24.16 38.52
  A 0.30 0.30 0.0 0 0 24.67 38.31
  L 24.69 27.70
  A 0.30 0.30 0.0 0 0 24.18 27.48
  L 18.86 32.78
  A 0.30 0.30 0.0 0 0 18.86 33.21
  L 24.16 38.52
  Z
  M 30.81 40.98
  L 39.99 40.98
  A 0.48 0.48 0.0 0 0 40.47 40.50
  L 40.47 33.63
  A 0.64 0.64 0.0 0 0 39.42 33.14
  L 30.65 40.54
  A 0.25 0.25 0.0 0 0 30.81 40.98
  Z
  M 34.01 48.07
  Q 34.14 48.07 34.26 47.95
  Q 36.70 45.61 37.96 44.31
  A 0.31 0.31 0.0 0 0 37.77 43.78
  Q 37.34 43.73 34.00 43.74
  Q 30.66 43.74 30.22 43.80
  A 0.31 0.31 0.0 0 0 30.04 44.33
  Q 31.30 45.62 33.75 47.95
  Q 33.87 48.07 34.01 48.07
  Z"
/>
<path fill="#bd7b48" d="
  M 24.16 38.52
  L 18.86 33.21
  A 0.30 0.30 0.0 0 1 18.86 32.78
  L 24.18 27.48
  A 0.30 0.30 0.0 0 1 24.69 27.70
  L 24.67 38.31
  A 0.30 0.30 0.0 0 1 24.16 38.52
  Z"
/>
<path fill="#bd7b48" d="
  M 30.81 40.98
  A 0.25 0.25 0.0 0 1 30.65 40.54
  L 39.42 33.14
  A 0.64 0.64 0.0 0 1 40.47 33.63
  L 40.47 40.50
  A 0.48 0.48 0.0 0 1 39.99 40.98
  L 30.81 40.98
  Z"
/>
<path fill="#bd7b48" d="
  M 34.00 43.74
  Q 37.34 43.73 37.77 43.78
  A 0.31 0.31 0.0 0 1 37.96 44.31
  Q 36.70 45.61 34.26 47.95
  Q 34.14 48.07 34.01 48.07
  Q 33.87 48.07 33.75 47.95
  Q 31.30 45.62 30.04 44.33
  A 0.31 0.31 0.0 0 1 30.22 43.80
  Q 30.66 43.74 34.00 43.74
  Z"
/>
</svg>
