<?xml version="1.0" encoding="UTF-8" standalone="no"?>
<!DOCTYPE svg PUBLIC "-//W3C//DTD SVG 1.1//EN" "http://www.w3.org/Graphics/SVG/1.1/DTD/svg11.dtd">
<svg xmlns="http://www.w3.org/2000/svg" version="1.1" viewBox="0.00 0.00 66.00 88.00">
<g stroke-width="2.00" fill="none" stroke-linecap="butt">
<path stroke="#5e5656" vector-effect="non-scaling-stroke" d="
  M 33.40 86.68
  Q 33.54 86.68 33.68 86.65
  A 0.08 0.07 -74.6 0 0 33.73 86.62
  Q 47.44 73.85 56.59 58.34
  C 65.20 43.72 68.51 25.31 55.93 12.11
  Q 47.51 3.28 35.00 2.53
  Q 34.17 2.48 33.53 2.48
  Q 32.88 2.48 32.05 2.53
  Q 19.54 3.24 11.09 12.05
  C -1.53 25.21 1.73 43.63 10.30 58.27
  Q 19.40 73.81 33.08 86.62
  A 0.08 0.07 74.7 0 0 33.13 86.65
  Q 33.27 86.68 33.40 86.68"
/>
<path stroke="#beb8b9" vector-effect="non-scaling-stroke" d="
  M 33.46 52.25
  Q 47.07 52.23 47.23 52.21
  A 1.39 1.39 0.0 0 0 48.50 50.84
  Q 48.60 42.65 48.49 32.26
  Q 48.47 29.89 45.39 30.56
  A 0.72 0.71 85.7 0 1 44.53 29.82
  C 44.67 26.84 44.53 23.97 43.16 21.57
  C 41.26 18.22 37.40 15.80 33.40 15.80
  C 29.41 15.81 25.56 18.24 23.66 21.60
  C 22.30 24.00 22.17 26.87 22.32 29.85
  A 0.72 0.71 -85.8 0 1 21.46 30.59
  Q 18.38 29.93 18.36 32.30
  Q 18.28 42.69 18.41 50.88
  A 1.39 1.39 0.0 0 0 19.68 52.25
  Q 19.84 52.27 33.46 52.25"
/>
<path stroke="#beb8b9" vector-effect="non-scaling-stroke" d="
  M 27.07 30.50
  L 39.77 30.48
  A 0.36 0.36 0.0 0 0 40.13 30.12
  L 40.12 27.15
  A 6.81 6.58 89.9 0 0 33.53 20.35
  L 33.27 20.35
  A 6.81 6.58 89.9 0 0 26.70 27.17
  L 26.71 30.14
  A 0.36 0.36 0.0 0 0 27.07 30.50"
/>
<path stroke="#beb8b9" vector-effect="non-scaling-stroke" d="
  M 35.15 45.81
  L 35.15 42.98
  A 0.94 0.93 -17.0 0 1 35.57 42.20
  C 40.61 38.83 37.04 31.50 31.09 34.08
  A 2.04 2.01 -84.1 0 0 30.23 34.79
  Q 27.14 39.26 31.27 42.17
  A 1.05 1.04 -72.8 0 1 31.72 43.03
  L 31.72 48.75
  A 0.50 0.50 0.0 0 0 32.22 49.25
  L 36.32 49.25
  A 0.53 0.53 0.0 0 0 36.85 48.72
  L 36.85 46.96
  A 0.52 0.51 -4.8 0 0 36.25 46.46
  Q 36.05 46.50 35.95 46.51
  A 0.71 0.70 86.1 0 1 35.15 45.81"
/>
</g>
<path fill="#3f3a39" d="
  M 33.80 88.00
  L 33.04 88.00
  C 16.69 73.14 -6.66 43.82 4.24 20.03
  Q 8.36 11.04 16.82 5.95
  C 38.28 -6.95 66.42 8.57 65.43 34.05
  Q 65.13 41.83 62.41 48.84
  C 56.59 63.79 45.58 77.27 33.80 88.00
  Z
  M 33.40 86.68
  Q 33.54 86.68 33.68 86.65
  A 0.08 0.07 -74.6 0 0 33.73 86.62
  Q 47.44 73.85 56.59 58.34
  C 65.20 43.72 68.51 25.31 55.93 12.11
  Q 47.51 3.28 35.00 2.53
  Q 34.17 2.48 33.53 2.48
  Q 32.88 2.48 32.05 2.53
  Q 19.54 3.24 11.09 12.05
  C -1.53 25.21 1.73 43.63 10.30 58.27
  Q 19.40 73.81 33.08 86.62
  A 0.08 0.07 74.7 0 0 33.13 86.65
  Q 33.27 86.68 33.40 86.68
  Z"
/>
<path fill="#7c7173" d="
  M 33.53 2.48
  Q 34.17 2.48 35.00 2.53
  Q 47.51 3.28 55.93 12.11
  C 68.51 25.31 65.20 43.72 56.59 58.34
  Q 47.44 73.85 33.73 86.62
  A 0.08 0.07 -74.6 0 1 33.68 86.65
  Q 33.54 86.68 33.40 86.68
  Q 33.27 86.68 33.13 86.65
  A 0.08 0.07 74.7 0 1 33.08 86.62
  Q 19.40 73.81 10.30 58.27
  C 1.73 43.63 -1.53 25.21 11.09 12.05
  Q 19.54 3.24 32.05 2.53
  Q 32.88 2.48 33.53 2.48
  Z
  M 33.46 52.25
  Q 47.07 52.23 47.23 52.21
  A 1.39 1.39 0.0 0 0 48.50 50.84
  Q 48.60 42.65 48.49 32.26
  Q 48.47 29.89 45.39 30.56
  A 0.72 0.71 85.7 0 1 44.53 29.82
  C 44.67 26.84 44.53 23.97 43.16 21.57
  C 41.26 18.22 37.40 15.80 33.40 15.80
  C 29.41 15.81 25.56 18.24 23.66 21.60
  C 22.30 24.00 22.17 26.87 22.32 29.85
  A 0.72 0.71 -85.8 0 1 21.46 30.59
  Q 18.38 29.93 18.36 32.30
  Q 18.28 42.69 18.41 50.88
  A 1.39 1.39 0.0 0 0 19.68 52.25
  Q 19.84 52.27 33.46 52.25
  Z"
/>
<path fill="#ffffff" d="
  M 33.40 15.80
  C 37.40 15.80 41.26 18.22 43.16 21.57
  C 44.53 23.97 44.67 26.84 44.53 29.82
  A 0.72 0.71 85.7 0 0 45.39 30.56
  Q 48.47 29.89 48.49 32.26
  Q 48.60 42.65 48.50 50.84
  A 1.39 1.39 0.0 0 1 47.23 52.21
  Q 47.07 52.23 33.46 52.25
  Q 19.84 52.27 19.68 52.25
  A 1.39 1.39 0.0 0 1 18.41 50.88
  Q 18.28 42.69 18.36 32.30
  Q 18.38 29.93 21.46 30.59
  A 0.72 0.71 -85.8 0 0 22.32 29.85
  C 22.17 26.87 22.30 24.00 23.66 21.60
  C 25.56 18.24 29.41 15.81 33.40 15.80
  Z
  M 27.07 30.50
  L 39.77 30.48
  A 0.36 0.36 0.0 0 0 40.13 30.12
  L 40.12 27.15
  A 6.81 6.58 89.9 0 0 33.53 20.35
  L 33.27 20.35
  A 6.81 6.58 89.9 0 0 26.70 27.17
  L 26.71 30.14
  A 0.36 0.36 0.0 0 0 27.07 30.50
  Z
  M 35.15 45.81
  L 35.15 42.98
  A 0.94 0.93 -17.0 0 1 35.57 42.20
  C 40.61 38.83 37.04 31.50 31.09 34.08
  A 2.04 2.01 -84.1 0 0 30.23 34.79
  Q 27.14 39.26 31.27 42.17
  A 1.05 1.04 -72.8 0 1 31.72 43.03
  L 31.72 48.75
  A 0.50 0.50 0.0 0 0 32.22 49.25
  L 36.32 49.25
  A 0.53 0.53 0.0 0 0 36.85 48.72
  L 36.85 46.96
  A 0.52 0.51 -4.8 0 0 36.25 46.46
  Q 36.05 46.50 35.95 46.51
  A 0.71 0.70 86.1 0 1 35.15 45.81
  Z"
/>
<path fill="#7c7173" d="
  M 27.07 30.50
  A 0.36 0.36 0.0 0 1 26.71 30.14
  L 26.70 27.17
  A 6.81 6.58 89.9 0 1 33.27 20.35
  L 33.53 20.35
  A 6.81 6.58 89.9 0 1 40.12 27.15
  L 40.13 30.12
  A 0.36 0.36 0.0 0 1 39.77 30.48
  L 27.07 30.50
  Z"
/>
<path fill="#7c7173" d="
  M 35.95 46.51
  Q 36.05 46.50 36.25 46.46
  A 0.52 0.51 -4.8 0 1 36.85 46.96
  L 36.85 48.72
  A 0.53 0.53 0.0 0 1 36.32 49.25
  L 32.22 49.25
  A 0.50 0.50 0.0 0 1 31.72 48.75
  L 31.72 43.03
  A 1.05 1.04 -72.8 0 0 31.27 42.17
  Q 27.14 39.26 30.23 34.79
  A 2.04 2.01 -84.1 0 1 31.09 34.08
  C 37.04 31.50 40.61 38.83 35.57 42.20
  A 0.94 0.93 -17.0 0 0 35.15 42.98
  L 35.15 45.81
  A 0.71 0.70 86.1 0 0 35.95 46.51
  Z"
/>
</svg>
