<?xml version="1.0" encoding="UTF-8" standalone="no"?>
<!DOCTYPE svg PUBLIC "-//W3C//DTD SVG 1.1//EN" "http://www.w3.org/Graphics/SVG/1.1/DTD/svg11.dtd">
<svg xmlns="http://www.w3.org/2000/svg" version="1.1" viewBox="0.00 0.00 66.00 88.00">
<g stroke-width="2.00" fill="none" stroke-linecap="butt">
<path stroke="#49697f" vector-effect="non-scaling-stroke" d="
  M 33.40 86.71
  Q 33.50 86.71 33.61 86.68
  Q 33.71 86.66 33.78 86.59
  Q 49.97 70.85 57.57 56.54
  Q 62.69 46.89 63.84 38.55
  Q 66.73 17.55 48.74 6.51
  Q 42.20 2.51 33.54 2.49
  Q 24.88 2.48 18.33 6.46
  Q 0.30 17.44 3.12 38.45
  Q 4.24 46.79 9.33 56.46
  Q 16.88 70.79 33.02 86.59
  Q 33.08 86.66 33.19 86.68
  Q 33.30 86.70 33.40 86.71"
/>
<path stroke="#b1c5d3" vector-effect="non-scaling-stroke" d="
  M 33.44 33.62
  Q 33.71 33.62 36.65 19.94
  A 1.39 1.37 37.5 0 0 36.52 19.02
  Q 35.92 17.87 34.85 17.05
  Q 34.56 16.83 34.20 16.41
  Q 33.80 15.94 33.42 15.94
  Q 33.03 15.94 32.64 16.41
  Q 32.28 16.83 31.99 17.05
  Q 30.92 17.88 30.32 19.03
  A 1.39 1.37 -37.6 0 0 30.20 19.95
  Q 33.17 33.62 33.44 33.62"
/>
<path stroke="#b1c5d3" vector-effect="non-scaling-stroke" d="
  M 33.44 52.03
  Q 33.66 52.03 33.86 51.83
  Q 36.89 48.87 39.98 45.87
  A 0.90 0.89 37.9 0 1 41.04 45.74
  L 46.18 48.71
  A 0.34 0.33 89.8 0 0 46.63 48.25
  L 43.60 43.00
  A 0.73 0.72 -37.5 0 1 43.72 42.11
  L 49.94 35.88
  A 0.58 0.58 0.0 0 0 49.94 35.06
  L 43.81 28.93
  A 0.96 0.96 0.0 0 1 43.66 27.78
  L 46.61 22.68
  A 0.31 0.31 0.0 0 0 46.19 22.26
  L 40.96 25.28
  A 0.86 0.86 0.0 0 1 39.78 24.97
  L 39.36 24.25
  A 0.52 0.52 0.0 0 0 38.39 24.51
  L 38.39 26.77
  A 0.48 0.48 0.0 0 0 38.53 27.11
  L 46.60 35.18
  A 0.42 0.42 0.0 0 1 46.60 35.78
  Q 42.94 39.42 33.71 48.50
  Q 33.63 48.57 33.44 48.57
  Q 33.24 48.57 33.16 48.50
  Q 23.92 39.43 20.26 35.79
  A 0.42 0.42 0.0 0 1 20.26 35.19
  L 28.32 27.12
  A 0.48 0.48 0.0 0 0 28.46 26.78
  L 28.45 24.52
  A 0.52 0.52 0.0 0 0 27.48 24.26
  L 27.06 24.98
  A 0.86 0.86 0.0 0 1 25.88 25.29
  L 20.65 22.27
  A 0.31 0.31 0.0 0 0 20.23 22.69
  L 23.19 27.79
  A 0.96 0.96 0.0 0 1 23.04 28.94
  L 16.92 35.08
  A 0.58 0.58 0.0 0 0 16.92 35.90
  L 23.14 42.12
  A 0.73 0.72 37.4 0 1 23.26 43.01
  L 20.24 48.26
  A 0.34 0.33 -89.8 0 0 20.69 48.72
  L 25.83 45.75
  A 0.90 0.89 -38.0 0 1 26.89 45.88
  Q 29.98 48.87 33.01 51.83
  Q 33.22 52.03 33.44 52.03"
/>
<path stroke="#b1c5d3" vector-effect="non-scaling-stroke" d="
  M 36.4548 41.7030
  A 0.37 0.37 0.0 0 0 36.4493 41.1798
  L 33.6771 38.4651
  A 0.37 0.37 0.0 0 0 33.1539 38.4706
  L 30.4252 41.2570
  A 0.37 0.37 0.0 0 0 30.4307 41.7802
  L 33.2029 44.4949
  A 0.37 0.37 0.0 0 0 33.7261 44.4894
  L 36.4548 41.7030"
/>
</g>
<path fill="#2f4857" d="
  M 33.80 88.00
  L 33.04 88.00
  C 21.89 77.86 12.04 65.64 5.74 51.77
  Q 2.92 45.56 1.98 38.97
  Q -0.25 23.48 8.75 12.88
  C 24.13 -5.25 52.92 -1.47 62.85 20.27
  C 66.61 28.50 66.00 38.51 63.05 47.02
  C 57.64 62.64 45.92 76.96 33.80 88.00
  Z
  M 33.40 86.71
  Q 33.50 86.71 33.61 86.68
  Q 33.71 86.66 33.78 86.59
  Q 49.97 70.85 57.57 56.54
  Q 62.69 46.89 63.84 38.55
  Q 66.73 17.55 48.74 6.51
  Q 42.20 2.51 33.54 2.49
  Q 24.88 2.48 18.33 6.46
  Q 0.30 17.44 3.12 38.45
  Q 4.24 46.79 9.33 56.46
  Q 16.88 70.79 33.02 86.59
  Q 33.08 86.66 33.19 86.68
  Q 33.30 86.70 33.40 86.71
  Z"
/>
<path fill="#638aa7" d="
  M 33.54 2.49
  Q 42.20 2.51 48.74 6.51
  Q 66.73 17.55 63.84 38.55
  Q 62.69 46.89 57.57 56.54
  Q 49.97 70.85 33.78 86.59
  Q 33.71 86.66 33.61 86.68
  Q 33.50 86.71 33.40 86.71
  Q 33.30 86.70 33.19 86.68
  Q 33.08 86.66 33.02 86.59
  Q 16.88 70.79 9.33 56.46
  Q 4.24 46.79 3.12 38.45
  Q 0.30 17.44 18.33 6.46
  Q 24.88 2.48 33.54 2.49
  Z
  M 33.44 33.62
  Q 33.71 33.62 36.65 19.94
  A 1.39 1.37 37.5 0 0 36.52 19.02
  Q 35.92 17.87 34.85 17.05
  Q 34.56 16.83 34.20 16.41
  Q 33.80 15.94 33.42 15.94
  Q 33.03 15.94 32.64 16.41
  Q 32.28 16.83 31.99 17.05
  Q 30.92 17.88 30.32 19.03
  A 1.39 1.37 -37.6 0 0 30.20 19.95
  Q 33.17 33.62 33.44 33.62
  Z
  M 33.44 52.03
  Q 33.66 52.03 33.86 51.83
  Q 36.89 48.87 39.98 45.87
  A 0.90 0.89 37.9 0 1 41.04 45.74
  L 46.18 48.71
  A 0.34 0.33 89.8 0 0 46.63 48.25
  L 43.60 43.00
  A 0.73 0.72 -37.5 0 1 43.72 42.11
  L 49.94 35.88
  A 0.58 0.58 0.0 0 0 49.94 35.06
  L 43.81 28.93
  A 0.96 0.96 0.0 0 1 43.66 27.78
  L 46.61 22.68
  A 0.31 0.31 0.0 0 0 46.19 22.26
  L 40.96 25.28
  A 0.86 0.86 0.0 0 1 39.78 24.97
  L 39.36 24.25
  A 0.52 0.52 0.0 0 0 38.39 24.51
  L 38.39 26.77
  A 0.48 0.48 0.0 0 0 38.53 27.11
  L 46.60 35.18
  A 0.42 0.42 0.0 0 1 46.60 35.78
  Q 42.94 39.42 33.71 48.50
  Q 33.63 48.57 33.44 48.57
  Q 33.24 48.57 33.16 48.50
  Q 23.92 39.43 20.26 35.79
  A 0.42 0.42 0.0 0 1 20.26 35.19
  L 28.32 27.12
  A 0.48 0.48 0.0 0 0 28.46 26.78
  L 28.45 24.52
  A 0.52 0.52 0.0 0 0 27.48 24.26
  L 27.06 24.98
  A 0.86 0.86 0.0 0 1 25.88 25.29
  L 20.65 22.27
  A 0.31 0.31 0.0 0 0 20.23 22.69
  L 23.19 27.79
  A 0.96 0.96 0.0 0 1 23.04 28.94
  L 16.92 35.08
  A 0.58 0.58 0.0 0 0 16.92 35.90
  L 23.14 42.12
  A 0.73 0.72 37.4 0 1 23.26 43.01
  L 20.24 48.26
  A 0.34 0.33 -89.8 0 0 20.69 48.72
  L 25.83 45.75
  A 0.90 0.89 -38.0 0 1 26.89 45.88
  Q 29.98 48.87 33.01 51.83
  Q 33.22 52.03 33.44 52.03
  Z
  M 36.4548 41.7030
  A 0.37 0.37 0.0 0 0 36.4493 41.1798
  L 33.6771 38.4651
  A 0.37 0.37 0.0 0 0 33.1539 38.4706
  L 30.4252 41.2570
  A 0.37 0.37 0.0 0 0 30.4307 41.7802
  L 33.2029 44.4949
  A 0.37 0.37 0.0 0 0 33.7261 44.4894
  L 36.4548 41.7030
  Z"
/>
<path fill="#ffffff" d="
  M 33.42 15.94
  Q 33.80 15.94 34.20 16.41
  Q 34.56 16.83 34.85 17.05
  Q 35.92 17.87 36.52 19.02
  A 1.39 1.37 37.5 0 1 36.65 19.94
  Q 33.71 33.62 33.44 33.62
  Q 33.17 33.62 30.20 19.95
  A 1.39 1.37 -37.6 0 1 30.32 19.03
  Q 30.92 17.88 31.99 17.05
  Q 32.28 16.83 32.64 16.41
  Q 33.03 15.94 33.42 15.94
  Z"
/>
<path fill="#ffffff" d="
  M 33.44 48.57
  Q 33.63 48.57 33.71 48.50
  Q 42.94 39.42 46.60 35.78
  A 0.42 0.42 0.0 0 0 46.60 35.18
  L 38.53 27.11
  A 0.48 0.48 0.0 0 1 38.39 26.77
  L 38.39 24.51
  A 0.52 0.52 0.0 0 1 39.36 24.25
  L 39.78 24.97
  A 0.86 0.86 0.0 0 0 40.96 25.28
  L 46.19 22.26
  A 0.31 0.31 0.0 0 1 46.61 22.68
  L 43.66 27.78
  A 0.96 0.96 0.0 0 0 43.81 28.93
  L 49.94 35.06
  A 0.58 0.58 0.0 0 1 49.94 35.88
  L 43.72 42.11
  A 0.73 0.72 -37.5 0 0 43.60 43.00
  L 46.63 48.25
  A 0.34 0.33 89.8 0 1 46.18 48.71
  L 41.04 45.74
  A 0.90 0.89 37.9 0 0 39.98 45.87
  Q 36.89 48.87 33.86 51.83
  Q 33.66 52.03 33.44 52.03
  Q 33.22 52.03 33.01 51.83
  Q 29.98 48.87 26.89 45.88
  A 0.90 0.89 -38.0 0 0 25.83 45.75
  L 20.69 48.72
  A 0.34 0.33 -89.8 0 1 20.24 48.26
  L 23.26 43.01
  A 0.73 0.72 37.4 0 0 23.14 42.12
  L 16.92 35.90
  A 0.58 0.58 0.0 0 1 16.92 35.08
  L 23.04 28.94
  A 0.96 0.96 0.0 0 0 23.19 27.79
  L 20.23 22.69
  A 0.31 0.31 0.0 0 1 20.65 22.27
  L 25.88 25.29
  A 0.86 0.86 0.0 0 0 27.06 24.98
  L 27.48 24.26
  A 0.52 0.52 0.0 0 1 28.45 24.52
  L 28.46 26.78
  A 0.48 0.48 0.0 0 1 28.32 27.12
  L 20.26 35.19
  A 0.42 0.42 0.0 0 0 20.26 35.79
  Q 23.92 39.43 33.16 48.50
  Q 33.24 48.57 33.44 48.57
  Z"
/>
<rect fill="#ffffff" x="-2.31" y="-2.32" transform="translate(33.44,41.48) rotate(44.4)" width="4.62" height="4.64" rx="0.37"/>
</svg>
