<?xml version="1.0" encoding="UTF-8" standalone="no"?>
<!DOCTYPE svg PUBLIC "-//W3C//DTD SVG 1.1//EN" "http://www.w3.org/Graphics/SVG/1.1/DTD/svg11.dtd">
<svg xmlns="http://www.w3.org/2000/svg" version="1.1" viewBox="0.00 0.00 66.00 88.00">
<g stroke-width="2.00" fill="none" stroke-linecap="butt">
<path stroke="#2f2e2f" vector-effect="non-scaling-stroke" d="
  M 33.44 86.55
  C 33.77 86.55 33.65 86.57 33.80 86.43
  Q 44.72 76.31 53.16 63.92
  C 61.15 52.20 67.86 35.54 62.09 21.54
  C 57.37 10.06 45.94 2.56 33.51 2.55
  C 21.08 2.54 9.64 10.02 4.89 21.49
  C -0.90 35.48 5.78 52.15 13.75 63.89
  Q 22.17 76.29 33.07 86.43
  C 33.22 86.56 33.10 86.55 33.44 86.55"
/>
<path stroke="#9e9e9e" vector-effect="non-scaling-stroke" d="
  M 32.9323 16.1130
  A 0.47 0.47 0.0 0 0 32.2677 16.1130
  L 23.4430 24.9377
  A 0.47 0.47 0.0 0 0 23.4430 25.6023
  L 32.2677 34.4270
  A 0.47 0.47 0.0 0 0 32.9323 34.4270
  L 41.7570 25.6023
  A 0.47 0.47 0.0 0 0 41.7570 24.9377
  L 32.9323 16.1130"
/>
<path stroke="#9e9e9e" vector-effect="non-scaling-stroke" d="
  M 32.62 41.62
  Q 32.48 41.62 32.30 41.44
  Q 25.95 34.99 20.89 30.00
  A 0.15 0.14 8.1 0 0 20.66 30.17
  L 32.38 51.30
  A 0.23 0.21 80.2 0 0 32.52 51.41
  Q 32.57 51.42 32.62 51.42
  Q 32.67 51.42 32.72 51.41
  A 0.23 0.21 -80.2 0 0 32.87 51.30
  L 44.57 30.16
  A 0.15 0.14 -8.1 0 0 44.34 29.99
  Q 39.28 34.98 32.94 41.44
  Q 32.76 41.62 32.62 41.62"
/>
<path stroke="#9e9e9e" vector-effect="non-scaling-stroke" d="
  M 32.9613 21.0866
  A 0.41 0.41 0.0 0 0 32.3815 21.0795
  L 28.4166 24.9487
  A 0.41 0.41 0.0 0 0 28.4095 25.5285
  L 32.2787 29.4934
  A 0.41 0.41 0.0 0 0 32.8585 29.5005
  L 36.8234 25.6313
  A 0.41 0.41 0.0 0 0 36.8305 25.0515
  L 32.9613 21.0866"
/>
</g>
<path fill="#202020" d="
  M 33.78 88.00
  L 33.03 88.00
  C 21.88 77.86 12.03 65.64 5.74 51.77
  Q 2.90 45.52 1.98 39.01
  Q -0.19 23.62 8.48 13.18
  Q 17.60 2.22 32.00 1.35
  C 40.48 0.84 49.69 4.21 55.88 10.34
  Q 68.35 22.68 64.60 41.25
  C 61.04 58.84 46.83 76.20 33.78 88.00
  Z
  M 33.44 86.55
  C 33.77 86.55 33.65 86.57 33.80 86.43
  Q 44.72 76.31 53.16 63.92
  C 61.15 52.20 67.86 35.54 62.09 21.54
  C 57.37 10.06 45.94 2.56 33.51 2.55
  C 21.08 2.54 9.64 10.02 4.89 21.49
  C -0.90 35.48 5.78 52.15 13.75 63.89
  Q 22.17 76.29 33.07 86.43
  C 33.22 86.56 33.10 86.55 33.44 86.55
  Z"
/>
<path fill="#3d3c3d" d="
  M 33.51 2.55
  C 45.94 2.56 57.37 10.06 62.09 21.54
  C 67.86 35.54 61.15 52.20 53.16 63.92
  Q 44.72 76.31 33.80 86.43
  C 33.65 86.57 33.77 86.55 33.44 86.55
  C 33.10 86.55 33.22 86.56 33.07 86.43
  Q 22.17 76.29 13.75 63.89
  C 5.78 52.15 -0.90 35.48 4.89 21.49
  C 9.64 10.02 21.08 2.54 33.51 2.55
  Z
  M 32.9323 16.1130
  A 0.47 0.47 0.0 0 0 32.2677 16.1130
  L 23.4430 24.9377
  A 0.47 0.47 0.0 0 0 23.4430 25.6023
  L 32.2677 34.4270
  A 0.47 0.47 0.0 0 0 32.9323 34.4270
  L 41.7570 25.6023
  A 0.47 0.47 0.0 0 0 41.7570 24.9377
  L 32.9323 16.1130
  Z
  M 32.62 41.62
  Q 32.48 41.62 32.30 41.44
  Q 25.95 34.99 20.89 30.00
  A 0.15 0.14 8.1 0 0 20.66 30.17
  L 32.38 51.30
  A 0.23 0.21 80.2 0 0 32.52 51.41
  Q 32.57 51.42 32.62 51.42
  Q 32.67 51.42 32.72 51.41
  A 0.23 0.21 -80.2 0 0 32.87 51.30
  L 44.57 30.16
  A 0.15 0.14 -8.1 0 0 44.34 29.99
  Q 39.28 34.98 32.94 41.44
  Q 32.76 41.62 32.62 41.62
  Z"
/>
<path fill="#ffffff" d="
  M 41.7570 24.9377
  A 0.47 0.47 0.0 0 1 41.7570 25.6023
  L 32.9323 34.4270
  A 0.47 0.47 0.0 0 1 32.2677 34.4270
  L 23.4430 25.6023
  A 0.47 0.47 0.0 0 1 23.4430 24.9377
  L 32.2677 16.1130
  A 0.47 0.47 0.0 0 1 32.9323 16.1130
  L 41.7570 24.9377
  Z
  M 32.9613 21.0866
  A 0.41 0.41 0.0 0 0 32.3815 21.0795
  L 28.4166 24.9487
  A 0.41 0.41 0.0 0 0 28.4095 25.5285
  L 32.2787 29.4934
  A 0.41 0.41 0.0 0 0 32.8585 29.5005
  L 36.8234 25.6313
  A 0.41 0.41 0.0 0 0 36.8305 25.0515
  L 32.9613 21.0866
  Z"
/>
<rect fill="#3d3c3d" x="-3.18" y="-3.18" transform="translate(32.62,25.29) rotate(-44.3)" width="6.36" height="6.36" rx="0.41"/>
<path fill="#ffffff" d="
  M 32.62 51.42
  Q 32.57 51.42 32.52 51.41
  A 0.23 0.21 80.2 0 1 32.38 51.30
  L 20.66 30.17
  A 0.15 0.14 8.1 0 1 20.89 30.00
  Q 25.95 34.99 32.30 41.44
  Q 32.48 41.62 32.62 41.62
  Q 32.76 41.62 32.94 41.44
  Q 39.28 34.98 44.34 29.99
  A 0.15 0.14 -8.1 0 1 44.57 30.16
  L 32.87 51.30
  A 0.23 0.21 -80.2 0 1 32.72 51.41
  Q 32.67 51.42 32.62 51.42
  Z"
/>
</svg>
