<?xml version="1.0" encoding="UTF-8" standalone="no"?>
<!DOCTYPE svg PUBLIC "-//W3C//DTD SVG 1.1//EN" "http://www.w3.org/Graphics/SVG/1.1/DTD/svg11.dtd">
<svg xmlns="http://www.w3.org/2000/svg" version="1.1" viewBox="0.00 0.00 66.00 88.00">
<g stroke-width="2.00" fill="none" stroke-linecap="butt">
<path stroke="#905c35" vector-effect="non-scaling-stroke" d="
  M 33.39 86.69
  Q 33.50 86.69 33.61 86.66
  Q 33.62 86.66 33.75 86.54
  Q 46.75 74.40 55.64 59.92
  C 64.88 44.85 69.09 25.95 55.91 12.09
  C 50.17 6.06 42.12 2.48 33.55 2.47
  C 24.99 2.45 16.93 5.99 11.16 12.01
  C -2.07 25.81 2.06 44.73 11.24 59.83
  Q 20.07 74.35 33.03 86.54
  Q 33.16 86.66 33.17 86.66
  Q 33.28 86.69 33.39 86.69"
/>
<path stroke="#debda4" vector-effect="non-scaling-stroke" d="
  M 26.10 43.91
  Q 22.90 40.68 23.02 36.62
  A 2.77 2.76 -5.5 0 1 25.19 34.00
  Q 30.41 32.86 34.34 37.33
  A 0.70 0.70 0.0 0 1 34.42 38.14
  L 34.24 38.46
  A 0.57 0.57 0.0 0 1 33.29 38.51
  Q 31.34 35.91 29.13 35.39
  A 0.52 0.52 0.0 0 0 28.49 35.82
  C 27.98 39.23 29.52 42.00 33.09 42.67
  Q 35.13 43.05 36.71 41.75
  C 39.56 39.40 38.60 36.03 36.25 33.68
  A 0.69 0.69 0.0 0 1 36.45 32.57
  C 40.38 30.75 42.89 33.89 42.78 37.52
  Q 42.66 41.28 39.67 44.40
  A 0.06 0.06 0.0 0 0 39.71 44.50
  L 44.42 44.50
  A 0.46 0.45 15.0 0 0 44.81 44.28
  Q 46.47 41.57 46.87 38.33
  A 1.70 1.70 0.0 0 1 47.52 37.20
  L 50.80 34.72
  A 0.24 0.23 35.5 0 0 50.73 34.31
  L 46.09 32.78
  A 1.00 0.97 82.3 0 1 45.57 32.37
  Q 44.19 30.14 42.24 28.95
  A 1.20 1.16 10.0 0 1 41.71 28.22
  L 40.87 24.57
  A 0.30 0.29 -32.8 0 0 40.35 24.46
  L 38.15 27.29
  A 2.34 2.29 11.1 0 1 36.90 28.11
  Q 34.41 28.74 32.94 30.04
  A 1.77 1.77 0.0 0 1 30.10 29.32
  L 28.82 25.79
  A 0.30 0.30 0.0 0 0 28.28 25.74
  L 26.56 28.71
  A 3.06 3.06 0.0 0 1 22.95 30.09
  L 18.67 28.67
  A 0.30 0.30 0.0 0 0 18.29 29.06
  L 19.66 32.83
  A 1.52 1.49 -52.6 0 1 19.74 33.47
  Q 19.62 34.62 18.89 36.08
  A 1.32 1.27 -2.1 0 1 18.34 36.65
  L 15.17 38.29
  A 0.39 0.39 0.0 0 0 15.23 39.01
  L 18.74 40.17
  A 1.77 1.76 -0.7 0 1 19.84 41.24
  L 20.79 43.88
  A 0.98 0.97 -9.7 0 0 21.71 44.52
  L 25.85 44.52
  A 0.36 0.36 0.0 0 0 26.10 43.91"
/>
</g>
<path fill="#623d22" d="
  M 33.81 88.00
  L 33.03 88.00
  C 21.98 77.95 11.87 65.48 5.66 51.61
  Q 0.17 39.37 2.06 26.66
  Q 2.84 21.44 6.59 15.84
  C 20.35 -4.71 51.33 -3.33 62.46 19.44
  C 67.02 28.76 65.95 40.16 62.13 49.57
  C 56.15 64.25 45.46 77.37 33.81 88.00
  Z
  M 33.39 86.69
  Q 33.50 86.69 33.61 86.66
  Q 33.62 86.66 33.75 86.54
  Q 46.75 74.40 55.64 59.92
  C 64.88 44.85 69.09 25.95 55.91 12.09
  C 50.17 6.06 42.12 2.48 33.55 2.47
  C 24.99 2.45 16.93 5.99 11.16 12.01
  C -2.07 25.81 2.06 44.73 11.24 59.83
  Q 20.07 74.35 33.03 86.54
  Q 33.16 86.66 33.17 86.66
  Q 33.28 86.69 33.39 86.69
  Z"
/>
<path fill="#bd7b48" d="
  M 33.55 2.47
  C 42.12 2.48 50.17 6.06 55.91 12.09
  C 69.09 25.95 64.88 44.85 55.64 59.92
  Q 46.75 74.40 33.75 86.54
  Q 33.62 86.66 33.61 86.66
  Q 33.50 86.69 33.39 86.69
  Q 33.28 86.69 33.17 86.66
  Q 33.16 86.66 33.03 86.54
  Q 20.07 74.35 11.24 59.83
  C 2.06 44.73 -2.07 25.81 11.16 12.01
  C 16.93 5.99 24.99 2.45 33.55 2.47
  Z
  M 26.10 43.91
  Q 22.90 40.68 23.02 36.62
  A 2.77 2.76 -5.5 0 1 25.19 34.00
  Q 30.41 32.86 34.34 37.33
  A 0.70 0.70 0.0 0 1 34.42 38.14
  L 34.24 38.46
  A 0.57 0.57 0.0 0 1 33.29 38.51
  Q 31.34 35.91 29.13 35.39
  A 0.52 0.52 0.0 0 0 28.49 35.82
  C 27.98 39.23 29.52 42.00 33.09 42.67
  Q 35.13 43.05 36.71 41.75
  C 39.56 39.40 38.60 36.03 36.25 33.68
  A 0.69 0.69 0.0 0 1 36.45 32.57
  C 40.38 30.75 42.89 33.89 42.78 37.52
  Q 42.66 41.28 39.67 44.40
  A 0.06 0.06 0.0 0 0 39.71 44.50
  L 44.42 44.50
  A 0.46 0.45 15.0 0 0 44.81 44.28
  Q 46.47 41.57 46.87 38.33
  A 1.70 1.70 0.0 0 1 47.52 37.20
  L 50.80 34.72
  A 0.24 0.23 35.5 0 0 50.73 34.31
  L 46.09 32.78
  A 1.00 0.97 82.3 0 1 45.57 32.37
  Q 44.19 30.14 42.24 28.95
  A 1.20 1.16 10.0 0 1 41.71 28.22
  L 40.87 24.57
  A 0.30 0.29 -32.8 0 0 40.35 24.46
  L 38.15 27.29
  A 2.34 2.29 11.1 0 1 36.90 28.11
  Q 34.41 28.74 32.94 30.04
  A 1.77 1.77 0.0 0 1 30.10 29.32
  L 28.82 25.79
  A 0.30 0.30 0.0 0 0 28.28 25.74
  L 26.56 28.71
  A 3.06 3.06 0.0 0 1 22.95 30.09
  L 18.67 28.67
  A 0.30 0.30 0.0 0 0 18.29 29.06
  L 19.66 32.83
  A 1.52 1.49 -52.6 0 1 19.74 33.47
  Q 19.62 34.62 18.89 36.08
  A 1.32 1.27 -2.1 0 1 18.34 36.65
  L 15.17 38.29
  A 0.39 0.39 0.0 0 0 15.23 39.01
  L 18.74 40.17
  A 1.77 1.76 -0.7 0 1 19.84 41.24
  L 20.79 43.88
  A 0.98 0.97 -9.7 0 0 21.71 44.52
  L 25.85 44.52
  A 0.36 0.36 0.0 0 0 26.10 43.91
  Z"
/>
<path fill="#ffffff" d="
  M 25.85 44.52
  L 21.71 44.52
  A 0.98 0.97 -9.7 0 1 20.79 43.88
  L 19.84 41.24
  A 1.77 1.76 -0.7 0 0 18.74 40.17
  L 15.23 39.01
  A 0.39 0.39 0.0 0 1 15.17 38.29
  L 18.34 36.65
  A 1.32 1.27 -2.1 0 0 18.89 36.08
  Q 19.62 34.62 19.74 33.47
  A 1.52 1.49 -52.6 0 0 19.66 32.83
  L 18.29 29.06
  A 0.30 0.30 0.0 0 1 18.67 28.67
  L 22.95 30.09
  A 3.06 3.06 0.0 0 0 26.56 28.71
  L 28.28 25.74
  A 0.30 0.30 0.0 0 1 28.82 25.79
  L 30.10 29.32
  A 1.77 1.77 0.0 0 0 32.94 30.04
  Q 34.41 28.74 36.90 28.11
  A 2.34 2.29 11.1 0 0 38.15 27.29
  L 40.35 24.46
  A 0.30 0.29 -32.8 0 1 40.87 24.57
  L 41.71 28.22
  A 1.20 1.16 10.0 0 0 42.24 28.95
  Q 44.19 30.14 45.57 32.37
  A 1.00 0.97 82.3 0 0 46.09 32.78
  L 50.73 34.31
  A 0.24 0.23 35.5 0 1 50.80 34.72
  L 47.52 37.20
  A 1.70 1.70 0.0 0 0 46.87 38.33
  Q 46.47 41.57 44.81 44.28
  A 0.46 0.45 15.0 0 1 44.42 44.50
  L 39.71 44.50
  A 0.06 0.06 0.0 0 1 39.67 44.40
  Q 42.66 41.28 42.78 37.52
  C 42.89 33.89 40.38 30.75 36.45 32.57
  A 0.69 0.69 0.0 0 0 36.25 33.68
  C 38.60 36.03 39.56 39.40 36.71 41.75
  Q 35.13 43.05 33.09 42.67
  C 29.52 42.00 27.98 39.23 28.49 35.82
  A 0.52 0.52 0.0 0 1 29.13 35.39
  Q 31.34 35.91 33.29 38.51
  A 0.57 0.57 0.0 0 0 34.24 38.46
  L 34.42 38.14
  A 0.70 0.70 0.0 0 0 34.34 37.33
  Q 30.41 32.86 25.19 34.00
  A 2.77 2.76 -5.5 0 0 23.02 36.62
  Q 22.90 40.68 26.10 43.91
  A 0.36 0.36 0.0 0 1 25.85 44.52
  Z"
/>
</svg>
