<?xml version="1.0" encoding="UTF-8" standalone="no"?>
<!DOCTYPE svg PUBLIC "-//W3C//DTD SVG 1.1//EN" "http://www.w3.org/Graphics/SVG/1.1/DTD/svg11.dtd">
<svg xmlns="http://www.w3.org/2000/svg" version="1.1" viewBox="0.00 0.00 66.00 88.00">
<g stroke-width="2.00" fill="none" stroke-linecap="butt">
<path stroke="#905c35" vector-effect="non-scaling-stroke" d="
  M 33.39 86.69
  Q 33.50 86.69 33.60 86.66
  Q 33.63 86.66 33.75 86.55
  C 50.36 71.02 74.25 40.95 59.87 17.19
  C 54.40 8.15 44.21 2.48 33.55 2.46
  C 22.90 2.44 12.68 8.07 7.17 17.09
  C -7.30 40.79 16.48 70.95 33.02 86.55
  Q 33.14 86.66 33.17 86.66
  Q 33.27 86.69 33.39 86.69"
/>
<path stroke="#debda4" vector-effect="non-scaling-stroke" d="
  M 29.09 41.57
  L 27.75 40.22
  A 0.59 0.58 45.3 0 1 27.75 39.39
  L 32.35 34.78
  A 0.94 0.93 -55.8 0 1 33.38 34.58
  Q 41.74 38.11 46.56 31.83
  C 50.06 27.28 49.12 20.29 43.94 17.34
  C 34.72 12.10 24.86 21.35 29.93 30.96
  A 0.73 0.72 54.1 0 1 29.80 31.80
  L 16.90 44.70
  A 0.49 0.49 0.0 0 0 16.90 45.40
  L 23.38 51.89
  A 0.51 0.50 44.6 0 0 24.09 51.89
  L 26.13 49.85
  A 0.48 0.47 -45.4 0 0 26.13 49.18
  L 22.45 45.50
  A 0.66 0.66 0.0 0 1 22.45 44.56
  L 24.15 42.85
  A 0.54 0.53 44.6 0 1 24.90 42.85
  L 26.39 44.35
  A 0.55 0.55 0.0 0 0 27.17 44.35
  L 29.09 42.43
  A 0.61 0.61 0.0 0 0 29.09 41.57"
/>
<path stroke="#debda4" vector-effect="non-scaling-stroke" d="
  M 44.78 25.77
  A 6.18 6.18 0.0 0 0 38.60 19.59
  A 6.18 6.18 0.0 0 0 32.42 25.77
  A 6.18 6.18 0.0 0 0 38.60 31.95
  A 6.18 6.18 0.0 0 0 44.78 25.77"
/>
</g>
<path fill="#623d22" d="
  M 33.79 88.00
  L 33.14 88.00
  Q 15.61 72.48 6.00 52.51
  Q 2.23 44.69 1.62 35.02
  Q 1.02 25.68 5.19 18.11
  C 18.02 -5.22 52.13 -3.99 62.97 20.56
  C 66.61 28.79 65.94 38.61 63.06 47.03
  C 57.77 62.53 45.82 77.10 33.79 88.00
  Z
  M 33.39 86.69
  Q 33.50 86.69 33.60 86.66
  Q 33.63 86.66 33.75 86.55
  C 50.36 71.02 74.25 40.95 59.87 17.19
  C 54.40 8.15 44.21 2.48 33.55 2.46
  C 22.90 2.44 12.68 8.07 7.17 17.09
  C -7.30 40.79 16.48 70.95 33.02 86.55
  Q 33.14 86.66 33.17 86.66
  Q 33.27 86.69 33.39 86.69
  Z"
/>
<path fill="#bd7b48" d="
  M 33.55 2.46
  C 44.21 2.48 54.40 8.15 59.87 17.19
  C 74.25 40.95 50.36 71.02 33.75 86.55
  Q 33.63 86.66 33.60 86.66
  Q 33.50 86.69 33.39 86.69
  Q 33.27 86.69 33.17 86.66
  Q 33.14 86.66 33.02 86.55
  C 16.48 70.95 -7.30 40.79 7.17 17.09
  C 12.68 8.07 22.90 2.44 33.55 2.46
  Z
  M 29.09 41.57
  L 27.75 40.22
  A 0.59 0.58 45.3 0 1 27.75 39.39
  L 32.35 34.78
  A 0.94 0.93 -55.8 0 1 33.38 34.58
  Q 41.74 38.11 46.56 31.83
  C 50.06 27.28 49.12 20.29 43.94 17.34
  C 34.72 12.10 24.86 21.35 29.93 30.96
  A 0.73 0.72 54.1 0 1 29.80 31.80
  L 16.90 44.70
  A 0.49 0.49 0.0 0 0 16.90 45.40
  L 23.38 51.89
  A 0.51 0.50 44.6 0 0 24.09 51.89
  L 26.13 49.85
  A 0.48 0.47 -45.4 0 0 26.13 49.18
  L 22.45 45.50
  A 0.66 0.66 0.0 0 1 22.45 44.56
  L 24.15 42.85
  A 0.54 0.53 44.6 0 1 24.90 42.85
  L 26.39 44.35
  A 0.55 0.55 0.0 0 0 27.17 44.35
  L 29.09 42.43
  A 0.61 0.61 0.0 0 0 29.09 41.57
  Z"
/>
<path fill="#ffffff" d="
  M 29.09 41.57
  A 0.61 0.61 0.0 0 1 29.09 42.43
  L 27.17 44.35
  A 0.55 0.55 0.0 0 1 26.39 44.35
  L 24.90 42.85
  A 0.54 0.53 44.6 0 0 24.15 42.85
  L 22.45 44.56
  A 0.66 0.66 0.0 0 0 22.45 45.50
  L 26.13 49.18
  A 0.48 0.47 -45.4 0 1 26.13 49.85
  L 24.09 51.89
  A 0.51 0.50 44.6 0 1 23.38 51.89
  L 16.90 45.40
  A 0.49 0.49 0.0 0 1 16.90 44.70
  L 29.80 31.80
  A 0.73 0.72 54.1 0 0 29.93 30.96
  C 24.86 21.35 34.72 12.10 43.94 17.34
  C 49.12 20.29 50.06 27.28 46.56 31.83
  Q 41.74 38.11 33.38 34.58
  A 0.94 0.93 -55.8 0 0 32.35 34.78
  L 27.75 39.39
  A 0.59 0.58 45.3 0 0 27.75 40.22
  L 29.09 41.57
  Z
  M 44.78 25.77
  A 6.18 6.18 0.0 0 0 38.60 19.59
  A 6.18 6.18 0.0 0 0 32.42 25.77
  A 6.18 6.18 0.0 0 0 38.60 31.95
  A 6.18 6.18 0.0 0 0 44.78 25.77
  Z"
/>
<circle fill="#bd7b48" cx="38.60" cy="25.77" r="6.18"/>
</svg>
