<?xml version="1.0" encoding="UTF-8" standalone="no"?>
<!DOCTYPE svg PUBLIC "-//W3C//DTD SVG 1.1//EN" "http://www.w3.org/Graphics/SVG/1.1/DTD/svg11.dtd">
<svg xmlns="http://www.w3.org/2000/svg" version="1.1" viewBox="0.00 0.00 66.00 88.00">
<g stroke-width="2.00" fill="none" stroke-linecap="butt">
<path stroke="#5e5656" vector-effect="non-scaling-stroke" d="
  M 33.40 86.68
  Q 33.54 86.68 33.67 86.65
  A 0.15 0.08 -0.4 0 0 33.73 86.62
  C 46.97 74.27 61.27 56.39 63.85 38.48
  C 66.06 23.22 58.82 10.37 44.48 4.51
  Q 39.50 2.48 33.53 2.47
  Q 27.56 2.46 22.57 4.48
  C 8.22 10.29 0.94 23.12 3.10 38.39
  C 5.63 56.31 19.88 74.23 33.08 86.62
  A 0.15 0.08 0.6 0 0 33.13 86.65
  Q 33.27 86.68 33.40 86.68"
/>
<path stroke="#beb8b9" vector-effect="non-scaling-stroke" d="
  M 25.69 33.99
  Q 25.69 50.57 25.69 51.53
  A 0.72 0.72 0.0 0 0 26.41 52.25
  L 28.65 52.25
  A 0.53 0.52 90.0 0 0 29.17 51.72
  L 29.17 49.52
  A 0.74 0.73 -0.8 0 1 29.88 48.79
  Q 31.26 48.75 32.66 48.75
  Q 34.05 48.74 35.43 48.79
  A 0.74 0.73 0.8 0 1 36.14 49.52
  L 36.14 51.72
  A 0.53 0.52 90.0 0 0 36.66 52.25
  L 38.90 52.25
  A 0.72 0.72 0.0 0 0 39.62 51.53
  Q 39.63 50.57 39.62 33.99
  Q 39.62 17.40 39.62 16.44
  A 0.72 0.72 0.0 0 0 38.90 15.72
  L 36.66 15.72
  A 0.53 0.52 -90.0 0 0 36.14 16.25
  L 36.14 18.45
  A 0.74 0.73 -0.8 0 1 35.43 19.18
  Q 34.05 19.23 32.65 19.23
  Q 31.26 19.23 29.88 19.18
  A 0.74 0.73 0.8 0 1 29.17 18.45
  L 29.17 16.25
  A 0.53 0.52 90.0 0 0 28.65 15.72
  L 26.41 15.72
  A 0.72 0.72 0.0 0 0 25.69 16.44
  Q 25.68 17.40 25.69 33.99"
/>
<path stroke="#beb8b9" vector-effect="non-scaling-stroke" d="
  M 36.1575 23.2322
  A 0.47 0.47 0.0 0 0 35.6891 22.7606
  L 29.6492 22.7395
  A 0.47 0.47 0.0 0 0 29.1775 23.2078
  L 29.1625 27.5078
  A 0.47 0.47 0.0 0 0 29.6309 27.9794
  L 35.6708 28.0005
  A 0.47 0.47 0.0 0 0 36.1425 27.5322
  L 36.1575 23.2322"
/>
<path stroke="#beb8b9" vector-effect="non-scaling-stroke" d="
  M 36.1630 32.1345
  A 0.62 0.62 0.0 0 0 35.5473 31.5102
  L 29.7875 31.4700
  A 0.62 0.62 0.0 0 0 29.1631 32.0856
  L 29.1370 35.8255
  A 0.62 0.62 0.0 0 0 29.7527 36.4498
  L 35.5125 36.4900
  A 0.62 0.62 0.0 0 0 36.1369 35.8744
  L 36.1630 32.1345"
/>
<path stroke="#beb8b9" vector-effect="non-scaling-stroke" d="
  M 36.1737 40.4961
  A 0.47 0.47 0.0 0 0 35.7045 40.0253
  L 29.6445 40.0147
  A 0.47 0.47 0.0 0 0 29.1737 40.4839
  L 29.1663 44.7439
  A 0.47 0.47 0.0 0 0 29.6355 45.2147
  L 35.6955 45.2253
  A 0.47 0.47 0.0 0 0 36.1663 44.7561
  L 36.1737 40.4961"
/>
</g>
<path fill="#3f3a39" d="
  M 33.80 88.00
  L 33.14 88.00
  Q 15.62 72.50 6.00 52.51
  Q 2.20 44.62 1.61 35.11
  Q 1.03 25.60 5.37 17.78
  C 11.55 6.67 23.77 0.19 36.85 1.51
  C 53.98 3.24 66.53 18.02 65.42 35.06
  C 64.10 55.28 48.13 74.94 33.80 88.00
  Z
  M 33.40 86.68
  Q 33.54 86.68 33.67 86.65
  A 0.15 0.08 -0.4 0 0 33.73 86.62
  C 46.97 74.27 61.27 56.39 63.85 38.48
  C 66.06 23.22 58.82 10.37 44.48 4.51
  Q 39.50 2.48 33.53 2.47
  Q 27.56 2.46 22.57 4.48
  C 8.22 10.29 0.94 23.12 3.10 38.39
  C 5.63 56.31 19.88 74.23 33.08 86.62
  A 0.15 0.08 0.6 0 0 33.13 86.65
  Q 33.27 86.68 33.40 86.68
  Z"
/>
<path fill="#7c7173" d="
  M 33.53 2.47
  Q 39.50 2.48 44.48 4.51
  C 58.82 10.37 66.06 23.22 63.85 38.48
  C 61.27 56.39 46.97 74.27 33.73 86.62
  A 0.15 0.08 -0.4 0 1 33.67 86.65
  Q 33.54 86.68 33.40 86.68
  Q 33.27 86.68 33.13 86.65
  A 0.15 0.08 0.6 0 1 33.08 86.62
  C 19.88 74.23 5.63 56.31 3.10 38.39
  C 0.94 23.12 8.22 10.29 22.57 4.48
  Q 27.56 2.46 33.53 2.47
  Z
  M 25.69 33.99
  Q 25.69 50.57 25.69 51.53
  A 0.72 0.72 0.0 0 0 26.41 52.25
  L 28.65 52.25
  A 0.53 0.52 90.0 0 0 29.17 51.72
  L 29.17 49.52
  A 0.74 0.73 -0.8 0 1 29.88 48.79
  Q 31.26 48.75 32.66 48.75
  Q 34.05 48.74 35.43 48.79
  A 0.74 0.73 0.8 0 1 36.14 49.52
  L 36.14 51.72
  A 0.53 0.52 90.0 0 0 36.66 52.25
  L 38.90 52.25
  A 0.72 0.72 0.0 0 0 39.62 51.53
  Q 39.63 50.57 39.62 33.99
  Q 39.62 17.40 39.62 16.44
  A 0.72 0.72 0.0 0 0 38.90 15.72
  L 36.66 15.72
  A 0.53 0.52 -90.0 0 0 36.14 16.25
  L 36.14 18.45
  A 0.74 0.73 -0.8 0 1 35.43 19.18
  Q 34.05 19.23 32.65 19.23
  Q 31.26 19.23 29.88 19.18
  A 0.74 0.73 0.8 0 1 29.17 18.45
  L 29.17 16.25
  A 0.53 0.52 90.0 0 0 28.65 15.72
  L 26.41 15.72
  A 0.72 0.72 0.0 0 0 25.69 16.44
  Q 25.68 17.40 25.69 33.99
  Z"
/>
<path fill="#ffffff" d="
  M 32.65 19.23
  Q 34.05 19.23 35.43 19.18
  A 0.74 0.73 -0.8 0 0 36.14 18.45
  L 36.14 16.25
  A 0.53 0.52 -90.0 0 1 36.66 15.72
  L 38.90 15.72
  A 0.72 0.72 0.0 0 1 39.62 16.44
  Q 39.62 17.40 39.62 33.99
  Q 39.63 50.57 39.62 51.53
  A 0.72 0.72 0.0 0 1 38.90 52.25
  L 36.66 52.25
  A 0.53 0.52 90.0 0 1 36.14 51.72
  L 36.14 49.52
  A 0.74 0.73 0.8 0 0 35.43 48.79
  Q 34.05 48.74 32.66 48.75
  Q 31.26 48.75 29.88 48.79
  A 0.74 0.73 -0.8 0 0 29.17 49.52
  L 29.17 51.72
  A 0.53 0.52 90.0 0 1 28.65 52.25
  L 26.41 52.25
  A 0.72 0.72 0.0 0 1 25.69 51.53
  Q 25.69 50.57 25.69 33.99
  Q 25.68 17.40 25.69 16.44
  A 0.72 0.72 0.0 0 1 26.41 15.72
  L 28.65 15.72
  A 0.53 0.52 90.0 0 1 29.17 16.25
  L 29.17 18.45
  A 0.74 0.73 0.8 0 0 29.88 19.18
  Q 31.26 19.23 32.65 19.23
  Z
  M 36.1575 23.2322
  A 0.47 0.47 0.0 0 0 35.6891 22.7606
  L 29.6492 22.7395
  A 0.47 0.47 0.0 0 0 29.1775 23.2078
  L 29.1625 27.5078
  A 0.47 0.47 0.0 0 0 29.6309 27.9794
  L 35.6708 28.0005
  A 0.47 0.47 0.0 0 0 36.1425 27.5322
  L 36.1575 23.2322
  Z
  M 36.1630 32.1345
  A 0.62 0.62 0.0 0 0 35.5473 31.5102
  L 29.7875 31.4700
  A 0.62 0.62 0.0 0 0 29.1631 32.0856
  L 29.1370 35.8255
  A 0.62 0.62 0.0 0 0 29.7527 36.4498
  L 35.5125 36.4900
  A 0.62 0.62 0.0 0 0 36.1369 35.8744
  L 36.1630 32.1345
  Z
  M 36.1737 40.4961
  A 0.47 0.47 0.0 0 0 35.7045 40.0253
  L 29.6445 40.0147
  A 0.47 0.47 0.0 0 0 29.1737 40.4839
  L 29.1663 44.7439
  A 0.47 0.47 0.0 0 0 29.6355 45.2147
  L 35.6955 45.2253
  A 0.47 0.47 0.0 0 0 36.1663 44.7561
  L 36.1737 40.4961
  Z"
/>
<rect fill="#7c7173" x="-3.49" y="-2.62" transform="translate(32.66,25.37) rotate(0.2)" width="6.98" height="5.24" rx="0.47"/>
<rect fill="#7c7173" x="-3.50" y="-2.49" transform="translate(32.65,33.98) rotate(0.4)" width="7.00" height="4.98" rx="0.62"/>
<rect fill="#7c7173" x="-3.50" y="-2.60" transform="translate(32.67,42.62) rotate(0.1)" width="7.00" height="5.20" rx="0.47"/>
</svg>
