<?xml version="1.0" encoding="UTF-8" standalone="no"?>
<!DOCTYPE svg PUBLIC "-//W3C//DTD SVG 1.1//EN" "http://www.w3.org/Graphics/SVG/1.1/DTD/svg11.dtd">
<svg xmlns="http://www.w3.org/2000/svg" version="1.1" viewBox="0.00 0.00 66.00 88.00">
<g stroke-width="2.00" fill="none" stroke-linecap="butt">
<path stroke="#774c79" vector-effect="non-scaling-stroke" d="
  M 33.39 86.70
  Q 33.50 86.70 33.60 86.68
  Q 33.70 86.66 33.78 86.58
  Q 47.14 74.12 56.40 58.66
  C 66.01 42.60 68.98 21.87 52.45 8.96
  C 47.34 4.96 40.52 2.48 33.54 2.46
  C 26.56 2.45 19.74 4.91 14.61 8.89
  C -1.97 21.74 0.93 42.48 10.48 58.58
  Q 19.68 74.07 33.00 86.58
  Q 33.08 86.66 33.17 86.67
  Q 33.28 86.70 33.39 86.70"
/>
<path stroke="#ceb2cf" vector-effect="non-scaling-stroke" d="
  M 34.58 16.44
  L 39.48 20.26
  A 2.05 2.02 14.5 0 1 40.24 21.53
  L 41.33 27.98
  A 1.22 1.19 11.2 0 0 41.91 28.82
  L 45.25 30.74
  A 1.19 1.18 49.9 0 0 46.27 30.83
  L 50.12 29.42
  A 0.68 0.68 0.0 0 0 50.53 28.54
  Q 46.36 17.64 34.88 15.74
  A 0.39 0.39 0.0 0 0 34.58 16.44"
/>
<path stroke="#ceb2cf" vector-effect="non-scaling-stroke" d="
  M 25.64 50.19
  L 27.23 38.93
  A 1.62 1.62 0.0 0 1 27.67 38.05
  L 35.60 30.13
  A 1.16 1.15 62.8 0 0 35.92 29.12
  L 35.14 24.48
  A 1.95 1.94 -76.1 0 0 34.42 23.28
  L 26.81 17.35
  A 0.89 0.88 50.5 0 0 25.88 17.25
  Q 15.89 21.97 14.80 32.15
  C 14.00 39.68 18.13 47.18 25.10 50.48
  A 0.38 0.38 0.0 0 0 25.64 50.19"
/>
<path stroke="#ceb2cf" vector-effect="non-scaling-stroke" d="
  M 50.58 35.00
  L 45.64 36.81
  A 1.25 1.23 -39.6 0 1 44.59 36.72
  L 39.95 34.04
  A 0.75 0.74 36.1 0 0 39.03 34.18
  L 32.78 40.94
  A 1.41 1.41 0.0 0 0 32.41 41.72
  L 31.01 51.58
  A 0.55 0.54 -84.7 0 0 31.52 52.20
  C 41.88 52.74 49.97 45.59 51.19 35.49
  A 0.46 0.46 0.0 0 0 50.58 35.00"
/>
</g>
<path fill="#503253" d="
  M 33.81 88.00
  L 33.13 88.00
  Q 16.68 73.40 6.79 53.99
  Q 2.26 45.10 1.62 35.47
  Q 0.96 25.72 5.38 17.78
  C 11.54 6.68 23.77 0.19 36.85 1.51
  C 53.96 3.24 66.55 18.02 65.42 35.06
  C 64.08 55.31 48.16 74.91 33.81 88.00
  Z
  M 33.39 86.70
  Q 33.50 86.70 33.60 86.68
  Q 33.70 86.66 33.78 86.58
  Q 47.14 74.12 56.40 58.66
  C 66.01 42.60 68.98 21.87 52.45 8.96
  C 47.34 4.96 40.52 2.48 33.54 2.46
  C 26.56 2.45 19.74 4.91 14.61 8.89
  C -1.97 21.74 0.93 42.48 10.48 58.58
  Q 19.68 74.07 33.00 86.58
  Q 33.08 86.66 33.17 86.67
  Q 33.28 86.70 33.39 86.70
  Z"
/>
<path fill="#9d659e" d="
  M 33.54 2.46
  C 40.52 2.48 47.34 4.96 52.45 8.96
  C 68.98 21.87 66.01 42.60 56.40 58.66
  Q 47.14 74.12 33.78 86.58
  Q 33.70 86.66 33.60 86.68
  Q 33.50 86.70 33.39 86.70
  Q 33.28 86.70 33.17 86.67
  Q 33.08 86.66 33.00 86.58
  Q 19.68 74.07 10.48 58.58
  C 0.93 42.48 -1.97 21.74 14.61 8.89
  C 19.74 4.91 26.56 2.45 33.54 2.46
  Z
  M 34.58 16.44
  L 39.48 20.26
  A 2.05 2.02 14.5 0 1 40.24 21.53
  L 41.33 27.98
  A 1.22 1.19 11.2 0 0 41.91 28.82
  L 45.25 30.74
  A 1.19 1.18 49.9 0 0 46.27 30.83
  L 50.12 29.42
  A 0.68 0.68 0.0 0 0 50.53 28.54
  Q 46.36 17.64 34.88 15.74
  A 0.39 0.39 0.0 0 0 34.58 16.44
  Z
  M 25.64 50.19
  L 27.23 38.93
  A 1.62 1.62 0.0 0 1 27.67 38.05
  L 35.60 30.13
  A 1.16 1.15 62.8 0 0 35.92 29.12
  L 35.14 24.48
  A 1.95 1.94 -76.1 0 0 34.42 23.28
  L 26.81 17.35
  A 0.89 0.88 50.5 0 0 25.88 17.25
  Q 15.89 21.97 14.80 32.15
  C 14.00 39.68 18.13 47.18 25.10 50.48
  A 0.38 0.38 0.0 0 0 25.64 50.19
  Z
  M 50.58 35.00
  L 45.64 36.81
  A 1.25 1.23 -39.6 0 1 44.59 36.72
  L 39.95 34.04
  A 0.75 0.74 36.1 0 0 39.03 34.18
  L 32.78 40.94
  A 1.41 1.41 0.0 0 0 32.41 41.72
  L 31.01 51.58
  A 0.55 0.54 -84.7 0 0 31.52 52.20
  C 41.88 52.74 49.97 45.59 51.19 35.49
  A 0.46 0.46 0.0 0 0 50.58 35.00
  Z"
/>
<path fill="#ffffff" d="
  M 34.88 15.74
  Q 46.36 17.64 50.53 28.54
  A 0.68 0.68 0.0 0 1 50.12 29.42
  L 46.27 30.83
  A 1.19 1.18 49.9 0 1 45.25 30.74
  L 41.91 28.82
  A 1.22 1.19 11.2 0 1 41.33 27.98
  L 40.24 21.53
  A 2.05 2.02 14.5 0 0 39.48 20.26
  L 34.58 16.44
  A 0.39 0.39 0.0 0 1 34.88 15.74
  Z"
/>
<path fill="#ffffff" d="
  M 25.64 50.19
  A 0.38 0.38 0.0 0 1 25.10 50.48
  C 18.13 47.18 14.00 39.68 14.80 32.15
  Q 15.89 21.97 25.88 17.25
  A 0.89 0.88 50.5 0 1 26.81 17.35
  L 34.42 23.28
  A 1.95 1.94 -76.1 0 1 35.14 24.48
  L 35.92 29.12
  A 1.16 1.15 62.8 0 1 35.60 30.13
  L 27.67 38.05
  A 1.62 1.62 0.0 0 0 27.23 38.93
  L 25.64 50.19
  Z"
/>
<path fill="#ffffff" d="
  M 51.19 35.49
  C 49.97 45.59 41.88 52.74 31.52 52.20
  A 0.55 0.54 -84.7 0 1 31.01 51.58
  L 32.41 41.72
  A 1.41 1.41 0.0 0 1 32.78 40.94
  L 39.03 34.18
  A 0.75 0.74 36.1 0 1 39.95 34.04
  L 44.59 36.72
  A 1.25 1.23 -39.6 0 0 45.64 36.81
  L 50.58 35.00
  A 0.46 0.46 0.0 0 1 51.19 35.49
  Z"
/>
</svg>
