<?xml version="1.0" encoding="UTF-8" standalone="no"?>
<!DOCTYPE svg PUBLIC "-//W3C//DTD SVG 1.1//EN" "http://www.w3.org/Graphics/SVG/1.1/DTD/svg11.dtd">
<svg xmlns="http://www.w3.org/2000/svg" version="1.1" viewBox="0.00 0.00 66.00 88.00">
<g stroke-width="2.00" fill="none" stroke-linecap="butt">
<path stroke="#2f2e2e" vector-effect="non-scaling-stroke" d="
  M 33.42 86.55
  C 34.04 86.55 33.58 86.60 33.78 86.41
  C 47.21 74.06 60.61 57.11 63.75 38.82
  Q 66.10 25.10 58.12 14.74
  C 52.20 7.07 43.49 2.58 33.52 2.57
  C 23.55 2.56 14.82 7.03 8.89 14.69
  Q 0.89 25.03 3.21 38.75
  C 6.30 57.05 19.67 74.03 33.07 86.41
  C 33.27 86.60 32.81 86.55 33.42 86.55"
/>
<path stroke="#9e9e9e" vector-effect="non-scaling-stroke" d="
  M 26.79 35.32
  A 0.19 0.19 0.0 0 1 26.86 35.08
  L 33.56 30.73
  A 0.25 0.25 0.0 0 1 33.93 30.85
  C 35.90 35.66 40.62 33.55 43.38 30.90
  Q 49.45 25.07 50.81 16.93
  A 0.31 0.31 0.0 0 0 50.34 16.61
  Q 44.86 19.93 39.62 21.27
  A 3.73 3.71 -30.4 0 1 36.16 20.38
  C 34.10 18.46 31.70 14.74 28.09 16.09
  Q 25.48 17.07 20.50 20.70
  A 0.44 0.43 -30.2 0 1 19.85 20.53
  L 18.54 17.74
  A 0.55 0.54 65.1 0 0 17.82 17.47
  L 16.14 18.26
  A 0.61 0.60 65.4 0 0 15.85 19.06
  L 31.09 51.69
  A 0.66 0.66 0.0 0 0 31.96 52.01
  L 33.55 51.26
  A 0.61 0.61 0.0 0 0 33.85 50.44
  L 26.79 35.32"
/>
<path stroke="#9e9e9e" vector-effect="non-scaling-stroke" d="
  M 21.52 24.19
  L 25.22 31.98
  A 0.12 0.12 0.0 0 0 25.38 32.04
  L 25.44 32.01
  A 4.27 3.67 64.6 0 0 26.92 26.58
  L 26.78 26.29
  A 4.27 3.67 64.6 0 0 21.64 24.00
  L 21.57 24.03
  A 0.12 0.12 0.0 0 0 21.52 24.19"
/>
</g>
<path fill="#20201f" d="
  M 33.79 88.00
  L 33.03 88.00
  C 16.92 73.35 -5.83 44.85 3.70 21.29
  C 8.42 9.62 19.29 2.08 31.96 1.37
  C 44.86 0.66 56.93 7.87 62.58 19.67
  C 66.90 28.70 65.97 39.66 62.41 48.85
  C 56.64 63.73 45.55 77.34 33.79 88.00
  Z
  M 33.42 86.55
  C 34.04 86.55 33.58 86.60 33.78 86.41
  C 47.21 74.06 60.61 57.11 63.75 38.82
  Q 66.10 25.10 58.12 14.74
  C 52.20 7.07 43.49 2.58 33.52 2.57
  C 23.55 2.56 14.82 7.03 8.89 14.69
  Q 0.89 25.03 3.21 38.75
  C 6.30 57.05 19.67 74.03 33.07 86.41
  C 33.27 86.60 32.81 86.55 33.42 86.55
  Z"
/>
<path fill="#3d3c3d" d="
  M 33.52 2.57
  C 43.49 2.58 52.20 7.07 58.12 14.74
  Q 66.10 25.10 63.75 38.82
  C 60.61 57.11 47.21 74.06 33.78 86.41
  C 33.58 86.60 34.04 86.55 33.42 86.55
  C 32.81 86.55 33.27 86.60 33.07 86.41
  C 19.67 74.03 6.30 57.05 3.21 38.75
  Q 0.89 25.03 8.89 14.69
  C 14.82 7.03 23.55 2.56 33.52 2.57
  Z
  M 26.79 35.32
  A 0.19 0.19 0.0 0 1 26.86 35.08
  L 33.56 30.73
  A 0.25 0.25 0.0 0 1 33.93 30.85
  C 35.90 35.66 40.62 33.55 43.38 30.90
  Q 49.45 25.07 50.81 16.93
  A 0.31 0.31 0.0 0 0 50.34 16.61
  Q 44.86 19.93 39.62 21.27
  A 3.73 3.71 -30.4 0 1 36.16 20.38
  C 34.10 18.46 31.70 14.74 28.09 16.09
  Q 25.48 17.07 20.50 20.70
  A 0.44 0.43 -30.2 0 1 19.85 20.53
  L 18.54 17.74
  A 0.55 0.54 65.1 0 0 17.82 17.47
  L 16.14 18.26
  A 0.61 0.60 65.4 0 0 15.85 19.06
  L 31.09 51.69
  A 0.66 0.66 0.0 0 0 31.96 52.01
  L 33.55 51.26
  A 0.61 0.61 0.0 0 0 33.85 50.44
  L 26.79 35.32
  Z"
/>
<path fill="#ffffff" d="
  M 26.79 35.32
  L 33.85 50.44
  A 0.61 0.61 0.0 0 1 33.55 51.26
  L 31.96 52.01
  A 0.66 0.66 0.0 0 1 31.09 51.69
  L 15.85 19.06
  A 0.61 0.60 65.4 0 1 16.14 18.26
  L 17.82 17.47
  A 0.55 0.54 65.1 0 1 18.54 17.74
  L 19.85 20.53
  A 0.44 0.43 -30.2 0 0 20.50 20.70
  Q 25.48 17.07 28.09 16.09
  C 31.70 14.74 34.10 18.46 36.16 20.38
  A 3.73 3.71 -30.4 0 0 39.62 21.27
  Q 44.86 19.93 50.34 16.61
  A 0.31 0.31 0.0 0 1 50.81 16.93
  Q 49.45 25.07 43.38 30.90
  C 40.62 33.55 35.90 35.66 33.93 30.85
  A 0.25 0.25 0.0 0 0 33.56 30.73
  L 26.86 35.08
  A 0.19 0.19 0.0 0 0 26.79 35.32
  Z
  M 21.52 24.19
  L 25.22 31.98
  A 0.12 0.12 0.0 0 0 25.38 32.04
  L 25.44 32.01
  A 4.27 3.67 64.6 0 0 26.92 26.58
  L 26.78 26.29
  A 4.27 3.67 64.6 0 0 21.64 24.00
  L 21.57 24.03
  A 0.12 0.12 0.0 0 0 21.52 24.19
  Z"
/>
<path fill="#3d3c3d" d="
  M 21.52 24.19
  A 0.12 0.12 0.0 0 1 21.57 24.03
  L 21.64 24.00
  A 4.27 3.67 64.6 0 1 26.78 26.29
  L 26.92 26.58
  A 4.27 3.67 64.6 0 1 25.44 32.01
  L 25.38 32.04
  A 0.12 0.12 0.0 0 1 25.22 31.98
  L 21.52 24.19
  Z"
/>
</svg>
