<?xml version="1.0" encoding="UTF-8" standalone="no"?>
<!DOCTYPE svg PUBLIC "-//W3C//DTD SVG 1.1//EN" "http://www.w3.org/Graphics/SVG/1.1/DTD/svg11.dtd">
<svg xmlns="http://www.w3.org/2000/svg" version="1.1" viewBox="0.00 0.00 66.00 88.00">
<g stroke-width="2.00" fill="none" stroke-linecap="butt">
<path stroke="#49697f" vector-effect="non-scaling-stroke" d="
  M 33.39 86.71
  Q 33.50 86.71 33.60 86.68
  Q 33.69 86.66 33.77 86.59
  C 51.50 70.17 78.90 34.49 55.05 11.23
  C 49.40 5.71 41.65 2.48 33.55 2.47
  C 25.45 2.45 17.69 5.65 12.01 11.15
  C -11.92 34.32 15.35 70.10 33.02 86.59
  Q 33.10 86.66 33.18 86.68
  Q 33.28 86.71 33.39 86.71"
/>
<path stroke="#b1c5d3" vector-effect="non-scaling-stroke" d="
  M 32.69 38.46
  Q 32.75 38.46 32.76 38.46
  A 0.15 0.08 -5.1 0 0 32.89 38.38
  L 36.84 20.80
  A 1.40 1.38 30.9 0 0 36.53 19.59
  Q 35.04 17.90 32.93 16.03
  Q 32.84 15.94 32.72 15.94
  Q 32.61 15.94 32.51 16.03
  Q 30.40 17.89 28.91 19.58
  A 1.40 1.38 -30.7 0 0 28.59 20.79
  L 32.49 38.38
  A 0.15 0.08 5.3 0 0 32.62 38.46
  Q 32.63 38.46 32.69 38.46"
/>
<path stroke="#b1c5d3" vector-effect="non-scaling-stroke" d="
  M 36.4860 48.5370
  A 0.42 0.42 0.0 0 0 36.4860 47.9430
  L 33.0070 44.4640
  A 0.42 0.42 0.0 0 0 32.4130 44.4640
  L 28.9340 47.9430
  A 0.42 0.42 0.0 0 0 28.9340 48.5370
  L 32.4130 52.0160
  A 0.42 0.42 0.0 0 0 33.0070 52.0160
  L 36.4860 48.5370"
/>
</g>
<path fill="#2f4757" d="
  M 33.80 88.00
  L 33.13 88.00
  Q 16.68 73.40 6.79 53.99
  Q 2.26 45.08 1.62 35.45
  Q 0.97 25.72 5.37 17.79
  C 11.52 6.68 23.77 0.19 36.85 1.51
  C 53.43 3.18 66.06 17.31 65.46 33.91
  Q 65.18 41.55 62.40 48.84
  C 56.71 63.72 45.50 77.35 33.80 88.00
  Z
  M 33.39 86.71
  Q 33.50 86.71 33.60 86.68
  Q 33.69 86.66 33.77 86.59
  C 51.50 70.17 78.90 34.49 55.05 11.23
  C 49.40 5.71 41.65 2.48 33.55 2.47
  C 25.45 2.45 17.69 5.65 12.01 11.15
  C -11.92 34.32 15.35 70.10 33.02 86.59
  Q 33.10 86.66 33.18 86.68
  Q 33.28 86.71 33.39 86.71
  Z"
/>
<path fill="#638aa7" d="
  M 33.55 2.47
  C 41.65 2.48 49.40 5.71 55.05 11.23
  C 78.90 34.49 51.50 70.17 33.77 86.59
  Q 33.69 86.66 33.60 86.68
  Q 33.50 86.71 33.39 86.71
  Q 33.28 86.71 33.18 86.68
  Q 33.10 86.66 33.02 86.59
  C 15.35 70.10 -11.92 34.32 12.01 11.15
  C 17.69 5.65 25.45 2.45 33.55 2.47
  Z
  M 32.69 38.46
  Q 32.75 38.46 32.76 38.46
  A 0.15 0.08 -5.1 0 0 32.89 38.38
  L 36.84 20.80
  A 1.40 1.38 30.9 0 0 36.53 19.59
  Q 35.04 17.90 32.93 16.03
  Q 32.84 15.94 32.72 15.94
  Q 32.61 15.94 32.51 16.03
  Q 30.40 17.89 28.91 19.58
  A 1.40 1.38 -30.7 0 0 28.59 20.79
  L 32.49 38.38
  A 0.15 0.08 5.3 0 0 32.62 38.46
  Q 32.63 38.46 32.69 38.46
  Z
  M 36.4860 48.5370
  A 0.42 0.42 0.0 0 0 36.4860 47.9430
  L 33.0070 44.4640
  A 0.42 0.42 0.0 0 0 32.4130 44.4640
  L 28.9340 47.9430
  A 0.42 0.42 0.0 0 0 28.9340 48.5370
  L 32.4130 52.0160
  A 0.42 0.42 0.0 0 0 33.0070 52.0160
  L 36.4860 48.5370
  Z"
/>
<path fill="#ffffff" d="
  M 32.72 15.94
  Q 32.84 15.94 32.93 16.03
  Q 35.04 17.90 36.53 19.59
  A 1.40 1.38 30.9 0 1 36.84 20.80
  L 32.89 38.38
  A 0.15 0.08 -5.1 0 1 32.76 38.46
  Q 32.75 38.46 32.69 38.46
  Q 32.63 38.46 32.62 38.46
  A 0.15 0.08 5.3 0 1 32.49 38.38
  L 28.59 20.79
  A 1.40 1.38 -30.7 0 1 28.91 19.58
  Q 30.40 17.89 32.51 16.03
  Q 32.61 15.94 32.72 15.94
  Z"
/>
<rect fill="#ffffff" x="-2.88" y="-2.88" transform="translate(32.71,48.24) rotate(45.0)" width="5.76" height="5.76" rx="0.42"/>
</svg>
