<?xml version="1.0" encoding="UTF-8" standalone="no"?>
<!DOCTYPE svg PUBLIC "-//W3C//DTD SVG 1.1//EN" "http://www.w3.org/Graphics/SVG/1.1/DTD/svg11.dtd">
<svg xmlns="http://www.w3.org/2000/svg" version="1.1" viewBox="0.00 0.00 66.00 88.00">
<g stroke-width="2.00" fill="none" stroke-linecap="butt">
<path stroke="#2f2e2f" vector-effect="non-scaling-stroke" d="
  M 33.43 86.55
  C 33.93 86.55 33.61 86.58 33.79 86.41
  Q 46.82 74.38 55.73 59.80
  C 63.95 46.36 68.49 28.99 58.54 15.34
  C 52.71 7.35 43.75 2.59 33.52 2.58
  C 23.29 2.57 14.32 7.31 8.47 15.29
  C -1.51 28.91 2.99 46.29 11.18 59.75
  Q 20.06 74.35 33.07 86.41
  C 33.25 86.58 32.93 86.55 33.43 86.55"
/>
<path stroke="#9e9e9e" vector-effect="non-scaling-stroke" d="
  M 32.58 33.57
  Q 32.59 41.88 32.58 42.88
  A 0.71 0.71 0.0 0 1 31.87 43.58
  L 25.43 43.58
  A 0.59 0.59 0.0 0 1 24.84 42.99
  L 24.84 39.44
  A 0.48 0.48 0.0 0 0 24.36 38.96
  L 22.88 38.96
  A 0.47 0.47 0.0 0 0 22.41 39.43
  L 22.41 44.75
  A 1.21 1.21 0.0 0 0 23.62 45.96
  L 34.24 45.92
  A 0.74 0.73 1.6 0 0 34.98 45.23
  Q 35.06 44.43 35.05 33.57
  Q 35.05 22.72 34.97 21.92
  A 0.74 0.73 -1.7 0 0 34.23 21.23
  L 23.61 21.20
  A 1.21 1.21 0.0 0 0 22.40 22.41
  L 22.41 27.73
  A 0.47 0.47 0.0 0 0 22.88 28.20
  L 24.36 28.20
  A 0.48 0.48 0.0 0 0 24.84 27.71
  L 24.83 24.16
  A 0.59 0.59 0.0 0 1 25.42 23.57
  L 31.86 23.57
  A 0.71 0.71 0.0 0 1 32.57 24.27
  Q 32.58 25.26 32.58 33.57"
/>
<path stroke="#9e9e9e" vector-effect="non-scaling-stroke" d="
  M 39.18 33.58
  Q 39.18 34.33 39.19 34.56
  A 0.68 0.68 0.0 0 0 39.87 35.22
  L 45.38 35.22
  A 0.34 0.34 0.0 0 1 45.62 35.80
  L 40.41 41.01
  A 0.34 0.34 0.0 0 0 40.65 41.59
  L 43.39 41.59
  A 1.60 1.57 20.7 0 0 44.57 41.07
  Q 47.64 37.65 51.06 33.82
  C 51.09 33.79 51.12 33.64 51.12 33.61
  C 51.12 33.57 51.09 33.42 51.06 33.39
  Q 47.66 29.55 44.60 26.11
  A 1.60 1.57 -20.5 0 0 43.43 25.59
  L 40.69 25.57
  A 0.34 0.34 0.0 0 0 40.44 26.15
  L 45.63 31.39
  A 0.34 0.34 0.0 0 1 45.39 31.97
  L 39.88 31.94
  A 0.68 0.68 0.0 0 0 39.19 32.60
  Q 39.18 32.83 39.18 33.58"
/>
<path stroke="#9e9e9e" vector-effect="non-scaling-stroke" d="
  M 28.52 32.41
  A 0.37 0.37 0.0 0 0 28.15 32.04
  L 15.03 32.04
  A 0.37 0.37 0.0 0 0 14.66 32.41
  L 14.66 34.75
  A 0.37 0.37 0.0 0 0 15.03 35.12
  L 28.15 35.12
  A 0.37 0.37 0.0 0 0 28.52 34.75
  L 28.52 32.41"
/>
</g>
<path fill="#202020" d="
  M 33.78 88.00
  L 33.03 88.00
  C 16.73 73.18 -6.40 44.14 4.08 20.38
  Q 7.76 12.04 15.42 6.82
  C 27.60 -1.47 45.02 -0.38 55.82 10.28
  Q 68.36 22.65 64.60 41.24
  C 61.04 58.83 46.82 76.20 33.78 88.00
  Z
  M 33.43 86.55
  C 33.93 86.55 33.61 86.58 33.79 86.41
  Q 46.82 74.38 55.73 59.80
  C 63.95 46.36 68.49 28.99 58.54 15.34
  C 52.71 7.35 43.75 2.59 33.52 2.58
  C 23.29 2.57 14.32 7.31 8.47 15.29
  C -1.51 28.91 2.99 46.29 11.18 59.75
  Q 20.06 74.35 33.07 86.41
  C 33.25 86.58 32.93 86.55 33.43 86.55
  Z"
/>
<path fill="#3d3c3d" d="
  M 33.52 2.58
  C 43.75 2.59 52.71 7.35 58.54 15.34
  C 68.49 28.99 63.95 46.36 55.73 59.80
  Q 46.82 74.38 33.79 86.41
  C 33.61 86.58 33.93 86.55 33.43 86.55
  C 32.93 86.55 33.25 86.58 33.07 86.41
  Q 20.06 74.35 11.18 59.75
  C 2.99 46.29 -1.51 28.91 8.47 15.29
  C 14.32 7.31 23.29 2.57 33.52 2.58
  Z
  M 32.58 33.57
  Q 32.59 41.88 32.58 42.88
  A 0.71 0.71 0.0 0 1 31.87 43.58
  L 25.43 43.58
  A 0.59 0.59 0.0 0 1 24.84 42.99
  L 24.84 39.44
  A 0.48 0.48 0.0 0 0 24.36 38.96
  L 22.88 38.96
  A 0.47 0.47 0.0 0 0 22.41 39.43
  L 22.41 44.75
  A 1.21 1.21 0.0 0 0 23.62 45.96
  L 34.24 45.92
  A 0.74 0.73 1.6 0 0 34.98 45.23
  Q 35.06 44.43 35.05 33.57
  Q 35.05 22.72 34.97 21.92
  A 0.74 0.73 -1.7 0 0 34.23 21.23
  L 23.61 21.20
  A 1.21 1.21 0.0 0 0 22.40 22.41
  L 22.41 27.73
  A 0.47 0.47 0.0 0 0 22.88 28.20
  L 24.36 28.20
  A 0.48 0.48 0.0 0 0 24.84 27.71
  L 24.83 24.16
  A 0.59 0.59 0.0 0 1 25.42 23.57
  L 31.86 23.57
  A 0.71 0.71 0.0 0 1 32.57 24.27
  Q 32.58 25.26 32.58 33.57
  Z
  M 39.18 33.58
  Q 39.18 34.33 39.19 34.56
  A 0.68 0.68 0.0 0 0 39.87 35.22
  L 45.38 35.22
  A 0.34 0.34 0.0 0 1 45.62 35.80
  L 40.41 41.01
  A 0.34 0.34 0.0 0 0 40.65 41.59
  L 43.39 41.59
  A 1.60 1.57 20.7 0 0 44.57 41.07
  Q 47.64 37.65 51.06 33.82
  C 51.09 33.79 51.12 33.64 51.12 33.61
  C 51.12 33.57 51.09 33.42 51.06 33.39
  Q 47.66 29.55 44.60 26.11
  A 1.60 1.57 -20.5 0 0 43.43 25.59
  L 40.69 25.57
  A 0.34 0.34 0.0 0 0 40.44 26.15
  L 45.63 31.39
  A 0.34 0.34 0.0 0 1 45.39 31.97
  L 39.88 31.94
  A 0.68 0.68 0.0 0 0 39.19 32.60
  Q 39.18 32.83 39.18 33.58
  Z
  M 28.52 32.41
  A 0.37 0.37 0.0 0 0 28.15 32.04
  L 15.03 32.04
  A 0.37 0.37 0.0 0 0 14.66 32.41
  L 14.66 34.75
  A 0.37 0.37 0.0 0 0 15.03 35.12
  L 28.15 35.12
  A 0.37 0.37 0.0 0 0 28.52 34.75
  L 28.52 32.41
  Z"
/>
<path fill="#ffffff" d="
  M 35.05 33.57
  Q 35.06 44.43 34.98 45.23
  A 0.74 0.73 1.6 0 1 34.24 45.92
  L 23.62 45.96
  A 1.21 1.21 0.0 0 1 22.41 44.75
  L 22.41 39.43
  A 0.47 0.47 0.0 0 1 22.88 38.96
  L 24.36 38.96
  A 0.48 0.48 0.0 0 1 24.84 39.44
  L 24.84 42.99
  A 0.59 0.59 0.0 0 0 25.43 43.58
  L 31.87 43.58
  A 0.71 0.71 0.0 0 0 32.58 42.88
  Q 32.59 41.88 32.58 33.57
  Q 32.58 25.26 32.57 24.27
  A 0.71 0.71 0.0 0 0 31.86 23.57
  L 25.42 23.57
  A 0.59 0.59 0.0 0 0 24.83 24.16
  L 24.84 27.71
  A 0.48 0.48 0.0 0 1 24.36 28.20
  L 22.88 28.20
  A 0.47 0.47 0.0 0 1 22.41 27.73
  L 22.40 22.41
  A 1.21 1.21 0.0 0 1 23.61 21.20
  L 34.23 21.23
  A 0.74 0.73 -1.7 0 1 34.97 21.92
  Q 35.05 22.72 35.05 33.57
  Z"
/>
<path fill="#ffffff" d="
  M 51.12 33.61
  C 51.12 33.64 51.09 33.79 51.06 33.82
  Q 47.64 37.65 44.57 41.07
  A 1.60 1.57 20.7 0 1 43.39 41.59
  L 40.65 41.59
  A 0.34 0.34 0.0 0 1 40.41 41.01
  L 45.62 35.80
  A 0.34 0.34 0.0 0 0 45.38 35.22
  L 39.87 35.22
  A 0.68 0.68 0.0 0 1 39.19 34.56
  Q 39.18 34.33 39.18 33.58
  Q 39.18 32.83 39.19 32.60
  A 0.68 0.68 0.0 0 1 39.88 31.94
  L 45.39 31.97
  A 0.34 0.34 0.0 0 0 45.63 31.39
  L 40.44 26.15
  A 0.34 0.34 0.0 0 1 40.69 25.57
  L 43.43 25.59
  A 1.60 1.57 -20.5 0 1 44.60 26.11
  Q 47.66 29.55 51.06 33.39
  C 51.09 33.42 51.12 33.57 51.12 33.61
  Z"
/>
<rect fill="#ffffff" x="14.66" y="32.04" width="13.86" height="3.08" rx="0.37"/>
</svg>
