<?xml version="1.0" encoding="UTF-8" standalone="no"?>
<!DOCTYPE svg PUBLIC "-//W3C//DTD SVG 1.1//EN" "http://www.w3.org/Graphics/SVG/1.1/DTD/svg11.dtd">
<svg xmlns="http://www.w3.org/2000/svg" version="1.1" viewBox="0.00 0.00 66.00 88.00">
<g stroke-width="2.00" fill="none" stroke-linecap="butt">
<path stroke="#6d201d" vector-effect="non-scaling-stroke" d="
  M 33.43 86.65
  Q 33.63 86.65 33.74 86.55
  Q 45.03 76.03 53.65 63.17
  C 64.76 46.58 70.95 23.28 52.34 8.90
  C 47.18 4.91 40.37 2.48 33.51 2.47
  C 26.64 2.46 19.83 4.88 14.66 8.86
  C -3.98 23.21 2.17 46.52 13.25 63.13
  Q 21.84 76.01 33.11 86.55
  Q 33.22 86.65 33.43 86.65"
/>
<path stroke="#c79593" vector-effect="non-scaling-stroke" d="
  M 32.99 46.62
  Q 33.54 46.62 33.61 46.60
  A 1.74 1.65 -65.3 0 0 34.19 46.37
  L 35.64 45.42
  A 0.23 0.23 0.0 0 1 36.00 45.61
  L 36.00 47.37
  A 0.29 0.29 0.0 0 0 36.53 47.54
  Q 38.68 44.42 36.77 41.78
  A 0.33 0.33 0.0 0 1 37.04 41.25
  L 38.82 41.25
  A 0.72 0.70 -66.8 0 0 39.32 41.04
  L 41.18 39.18
  A 0.97 0.96 53.0 0 0 41.34 38.01
  L 39.90 35.52
  A 1.94 1.93 -27.7 0 1 40.75 32.80
  C 44.03 31.26 49.94 29.51 50.86 27.03
  Q 52.10 23.69 48.78 20.15
  A 0.28 0.28 0.0 0 0 48.30 20.36
  C 48.72 26.67 41.77 24.39 41.24 28.02
  C 40.98 29.78 39.78 32.06 38.68 33.07
  A 0.76 0.75 40.4 0 1 37.76 33.14
  L 37.68 33.09
  A 0.60 0.59 -53.0 0 1 37.56 32.20
  Q 40.92 28.28 40.02 22.39
  A 0.23 0.23 0.0 0 0 39.57 22.38
  Q 38.89 26.19 36.28 29.87
  A 0.85 0.84 32.5 0 1 35.18 30.11
  L 35.16 30.10
  A 0.63 0.62 -57.4 0 1 34.98 29.26
  L 36.47 26.85
  A 0.55 0.55 0.0 0 0 36.11 26.02
  Q 33.86 25.57 32.99 25.57
  Q 32.11 25.57 29.86 26.03
  A 0.55 0.55 0.0 0 0 29.50 26.85
  L 30.99 29.26
  A 0.63 0.62 57.4 0 1 30.81 30.10
  L 30.79 30.11
  A 0.85 0.84 -32.6 0 1 29.69 29.87
  Q 27.08 26.19 26.40 22.38
  A 0.23 0.23 0.0 0 0 25.95 22.39
  Q 25.05 28.28 28.42 32.20
  A 0.60 0.59 53.0 0 1 28.30 33.09
  L 28.22 33.14
  A 0.76 0.75 -40.4 0 1 27.30 33.07
  C 26.20 32.06 24.99 29.78 24.73 28.02
  C 24.20 24.39 17.25 26.68 17.67 20.37
  A 0.28 0.28 0.0 0 0 17.19 20.16
  Q 13.87 23.70 15.11 27.04
  C 16.03 29.52 21.94 31.27 25.23 32.80
  A 1.94 1.93 27.7 0 1 26.08 35.52
  L 24.64 38.01
  A 0.97 0.96 -53.0 0 0 24.80 39.18
  L 26.66 41.04
  A 0.72 0.70 66.8 0 0 27.16 41.25
  L 28.94 41.25
  A 0.33 0.33 0.0 0 1 29.21 41.78
  Q 27.30 44.42 29.45 47.54
  A 0.29 0.29 0.0 0 0 29.98 47.37
  L 29.98 45.61
  A 0.23 0.23 0.0 0 1 30.34 45.42
  L 31.79 46.37
  A 1.74 1.65 65.2 0 0 32.37 46.60
  Q 32.45 46.62 32.99 46.62"
/>
<path stroke="#c79593" vector-effect="non-scaling-stroke" d="
  M 32.96 37.33
  Q 33.24 37.33 33.42 37.21
  Q 33.61 37.09 33.61 36.82
  Q 33.61 33.71 32.99 33.70
  Q 32.36 33.70 32.33 36.81
  Q 32.32 37.08 32.51 37.21
  Q 32.69 37.32 32.96 37.33"
/>
<path stroke="#c79593" vector-effect="non-scaling-stroke" d="
  M 31.65 37.47
  L 30.33 35.18
  A 0.42 0.42 0.0 0 0 29.76 35.03
  L 29.30 35.29
  A 0.29 0.29 0.0 0 0 29.24 35.74
  Q 30.43 37.01 31.37 37.72
  A 0.19 0.19 0.0 0 0 31.65 37.47"
/>
<path stroke="#c79593" vector-effect="non-scaling-stroke" d="
  M 34.72 37.79
  L 36.97 35.55
  A 0.18 0.17 -55.9 0 0 36.92 35.27
  L 36.26 34.95
  A 0.03 0.02 -31.7 0 0 36.23 34.95
  Q 35.03 35.98 34.21 37.41
  A 0.32 0.32 0.0 0 0 34.72 37.79"
/>
<path stroke="#c79593" vector-effect="non-scaling-stroke" d="
  M 30.77 39.20
  L 27.95 36.37
  A 0.50 0.50 0.0 0 0 27.18 36.45
  Q 25.25 39.31 27.85 39.73
  A 1.77 1.64 47.2 0 0 28.11 39.75
  L 30.54 39.75
  A 0.32 0.32 0.0 0 0 30.77 39.20"
/>
<path stroke="#c79593" vector-effect="non-scaling-stroke" d="
  M 35.19 39.20
  A 0.32 0.32 0.0 0 0 35.43 39.75
  L 37.85 39.74
  A 1.77 1.64 -47.5 0 0 38.11 39.71
  Q 40.70 39.28 38.76 36.44
  A 0.50 0.50 0.0 0 0 37.99 36.36
  L 35.19 39.20"
/>
<path stroke="#c79593" vector-effect="non-scaling-stroke" d="
  M 32.99 41.93
  Q 33.17 41.93 34.51 42.34
  A 0.07 0.07 0.0 0 0 34.60 42.25
  Q 33.80 39.87 32.98 39.87
  Q 32.15 39.88 31.39 42.27
  A 0.07 0.07 0.0 0 0 31.48 42.36
  Q 32.82 41.94 32.99 41.93"
/>
</g>
<path fill="#4b1512" d="
  M 33.82 88.00
  L 33.04 88.00
  C 21.77 77.76 12.09 65.66 5.65 51.57
  Q 2.21 44.05 1.60 34.90
  C 0.54 18.98 11.21 5.65 26.49 2.10
  C 40.58 -1.17 55.22 5.58 62.14 18.80
  C 67.44 28.91 65.84 41.37 61.23 51.71
  C 55.09 65.51 44.93 77.84 33.82 88.00
  Z
  M 33.43 86.65
  Q 33.63 86.65 33.74 86.55
  Q 45.03 76.03 53.65 63.17
  C 64.76 46.58 70.95 23.28 52.34 8.90
  C 47.18 4.91 40.37 2.48 33.51 2.47
  C 26.64 2.46 19.83 4.88 14.66 8.86
  C -3.98 23.21 2.17 46.52 13.25 63.13
  Q 21.84 76.01 33.11 86.55
  Q 33.22 86.65 33.43 86.65
  Z"
/>
<path fill="#8e2b27" d="
  M 33.51 2.47
  C 40.37 2.48 47.18 4.91 52.34 8.90
  C 70.95 23.28 64.76 46.58 53.65 63.17
  Q 45.03 76.03 33.74 86.55
  Q 33.63 86.65 33.43 86.65
  Q 33.22 86.65 33.11 86.55
  Q 21.84 76.01 13.25 63.13
  C 2.17 46.52 -3.98 23.21 14.66 8.86
  C 19.83 4.88 26.64 2.46 33.51 2.47
  Z
  M 32.99 46.62
  Q 33.54 46.62 33.61 46.60
  A 1.74 1.65 -65.3 0 0 34.19 46.37
  L 35.64 45.42
  A 0.23 0.23 0.0 0 1 36.00 45.61
  L 36.00 47.37
  A 0.29 0.29 0.0 0 0 36.53 47.54
  Q 38.68 44.42 36.77 41.78
  A 0.33 0.33 0.0 0 1 37.04 41.25
  L 38.82 41.25
  A 0.72 0.70 -66.8 0 0 39.32 41.04
  L 41.18 39.18
  A 0.97 0.96 53.0 0 0 41.34 38.01
  L 39.90 35.52
  A 1.94 1.93 -27.7 0 1 40.75 32.80
  C 44.03 31.26 49.94 29.51 50.86 27.03
  Q 52.10 23.69 48.78 20.15
  A 0.28 0.28 0.0 0 0 48.30 20.36
  C 48.72 26.67 41.77 24.39 41.24 28.02
  C 40.98 29.78 39.78 32.06 38.68 33.07
  A 0.76 0.75 40.4 0 1 37.76 33.14
  L 37.68 33.09
  A 0.60 0.59 -53.0 0 1 37.56 32.20
  Q 40.92 28.28 40.02 22.39
  A 0.23 0.23 0.0 0 0 39.57 22.38
  Q 38.89 26.19 36.28 29.87
  A 0.85 0.84 32.5 0 1 35.18 30.11
  L 35.16 30.10
  A 0.63 0.62 -57.4 0 1 34.98 29.26
  L 36.47 26.85
  A 0.55 0.55 0.0 0 0 36.11 26.02
  Q 33.86 25.57 32.99 25.57
  Q 32.11 25.57 29.86 26.03
  A 0.55 0.55 0.0 0 0 29.50 26.85
  L 30.99 29.26
  A 0.63 0.62 57.4 0 1 30.81 30.10
  L 30.79 30.11
  A 0.85 0.84 -32.6 0 1 29.69 29.87
  Q 27.08 26.19 26.40 22.38
  A 0.23 0.23 0.0 0 0 25.95 22.39
  Q 25.05 28.28 28.42 32.20
  A 0.60 0.59 53.0 0 1 28.30 33.09
  L 28.22 33.14
  A 0.76 0.75 -40.4 0 1 27.30 33.07
  C 26.20 32.06 24.99 29.78 24.73 28.02
  C 24.20 24.39 17.25 26.68 17.67 20.37
  A 0.28 0.28 0.0 0 0 17.19 20.16
  Q 13.87 23.70 15.11 27.04
  C 16.03 29.52 21.94 31.27 25.23 32.80
  A 1.94 1.93 27.7 0 1 26.08 35.52
  L 24.64 38.01
  A 0.97 0.96 -53.0 0 0 24.80 39.18
  L 26.66 41.04
  A 0.72 0.70 66.8 0 0 27.16 41.25
  L 28.94 41.25
  A 0.33 0.33 0.0 0 1 29.21 41.78
  Q 27.30 44.42 29.45 47.54
  A 0.29 0.29 0.0 0 0 29.98 47.37
  L 29.98 45.61
  A 0.23 0.23 0.0 0 1 30.34 45.42
  L 31.79 46.37
  A 1.74 1.65 65.2 0 0 32.37 46.60
  Q 32.45 46.62 32.99 46.62
  Z"
/>
<path fill="#ffffff" d="
  M 32.99 25.57
  Q 33.86 25.57 36.11 26.02
  A 0.55 0.55 0.0 0 1 36.47 26.85
  L 34.98 29.26
  A 0.63 0.62 -57.4 0 0 35.16 30.10
  L 35.18 30.11
  A 0.85 0.84 32.5 0 0 36.28 29.87
  Q 38.89 26.19 39.57 22.38
  A 0.23 0.23 0.0 0 1 40.02 22.39
  Q 40.92 28.28 37.56 32.20
  A 0.60 0.59 -53.0 0 0 37.68 33.09
  L 37.76 33.14
  A 0.76 0.75 40.4 0 0 38.68 33.07
  C 39.78 32.06 40.98 29.78 41.24 28.02
  C 41.77 24.39 48.72 26.67 48.30 20.36
  A 0.28 0.28 0.0 0 1 48.78 20.15
  Q 52.10 23.69 50.86 27.03
  C 49.94 29.51 44.03 31.26 40.75 32.80
  A 1.94 1.93 -27.7 0 0 39.90 35.52
  L 41.34 38.01
  A 0.97 0.96 53.0 0 1 41.18 39.18
  L 39.32 41.04
  A 0.72 0.70 -66.8 0 1 38.82 41.25
  L 37.04 41.25
  A 0.33 0.33 0.0 0 0 36.77 41.78
  Q 38.68 44.42 36.53 47.54
  A 0.29 0.29 0.0 0 1 36.00 47.37
  L 36.00 45.61
  A 0.23 0.23 0.0 0 0 35.64 45.42
  L 34.19 46.37
  A 1.74 1.65 -65.3 0 1 33.61 46.60
  Q 33.54 46.62 32.99 46.62
  Q 32.45 46.62 32.37 46.60
  A 1.74 1.65 65.2 0 1 31.79 46.37
  L 30.34 45.42
  A 0.23 0.23 0.0 0 0 29.98 45.61
  L 29.98 47.37
  A 0.29 0.29 0.0 0 1 29.45 47.54
  Q 27.30 44.42 29.21 41.78
  A 0.33 0.33 0.0 0 0 28.94 41.25
  L 27.16 41.25
  A 0.72 0.70 66.8 0 1 26.66 41.04
  L 24.80 39.18
  A 0.97 0.96 -53.0 0 1 24.64 38.01
  L 26.08 35.52
  A 1.94 1.93 27.7 0 0 25.23 32.80
  C 21.94 31.27 16.03 29.52 15.11 27.04
  Q 13.87 23.70 17.19 20.16
  A 0.28 0.28 0.0 0 1 17.67 20.37
  C 17.25 26.68 24.20 24.39 24.73 28.02
  C 24.99 29.78 26.20 32.06 27.30 33.07
  A 0.76 0.75 -40.4 0 0 28.22 33.14
  L 28.30 33.09
  A 0.60 0.59 53.0 0 0 28.42 32.20
  Q 25.05 28.28 25.95 22.39
  A 0.23 0.23 0.0 0 1 26.40 22.38
  Q 27.08 26.19 29.69 29.87
  A 0.85 0.84 -32.6 0 0 30.79 30.11
  L 30.81 30.10
  A 0.63 0.62 57.4 0 0 30.99 29.26
  L 29.50 26.85
  A 0.55 0.55 0.0 0 1 29.86 26.03
  Q 32.11 25.57 32.99 25.57
  Z
  M 32.96 37.33
  Q 33.24 37.33 33.42 37.21
  Q 33.61 37.09 33.61 36.82
  Q 33.61 33.71 32.99 33.70
  Q 32.36 33.70 32.33 36.81
  Q 32.32 37.08 32.51 37.21
  Q 32.69 37.32 32.96 37.33
  Z
  M 31.65 37.47
  L 30.33 35.18
  A 0.42 0.42 0.0 0 0 29.76 35.03
  L 29.30 35.29
  A 0.29 0.29 0.0 0 0 29.24 35.74
  Q 30.43 37.01 31.37 37.72
  A 0.19 0.19 0.0 0 0 31.65 37.47
  Z
  M 34.72 37.79
  L 36.97 35.55
  A 0.18 0.17 -55.9 0 0 36.92 35.27
  L 36.26 34.95
  A 0.03 0.02 -31.7 0 0 36.23 34.95
  Q 35.03 35.98 34.21 37.41
  A 0.32 0.32 0.0 0 0 34.72 37.79
  Z
  M 30.77 39.20
  L 27.95 36.37
  A 0.50 0.50 0.0 0 0 27.18 36.45
  Q 25.25 39.31 27.85 39.73
  A 1.77 1.64 47.2 0 0 28.11 39.75
  L 30.54 39.75
  A 0.32 0.32 0.0 0 0 30.77 39.20
  Z
  M 35.19 39.20
  A 0.32 0.32 0.0 0 0 35.43 39.75
  L 37.85 39.74
  A 1.77 1.64 -47.5 0 0 38.11 39.71
  Q 40.70 39.28 38.76 36.44
  A 0.50 0.50 0.0 0 0 37.99 36.36
  L 35.19 39.20
  Z
  M 32.99 41.93
  Q 33.17 41.93 34.51 42.34
  A 0.07 0.07 0.0 0 0 34.60 42.25
  Q 33.80 39.87 32.98 39.87
  Q 32.15 39.88 31.39 42.27
  A 0.07 0.07 0.0 0 0 31.48 42.36
  Q 32.82 41.94 32.99 41.93
  Z"
/>
<path fill="#8e2b27" d="
  M 32.99 33.70
  Q 33.61 33.71 33.61 36.82
  Q 33.61 37.09 33.42 37.21
  Q 33.24 37.33 32.96 37.33
  Q 32.69 37.32 32.51 37.21
  Q 32.32 37.08 32.33 36.81
  Q 32.36 33.70 32.99 33.70
  Z"
/>
<path fill="#8e2b27" d="
  M 31.65 37.47
  A 0.19 0.19 0.0 0 1 31.37 37.72
  Q 30.43 37.01 29.24 35.74
  A 0.29 0.29 0.0 0 1 29.30 35.29
  L 29.76 35.03
  A 0.42 0.42 0.0 0 1 30.33 35.18
  L 31.65 37.47
  Z"
/>
<path fill="#8e2b27" d="
  M 34.72 37.79
  A 0.32 0.32 0.0 0 1 34.21 37.41
  Q 35.03 35.98 36.23 34.95
  A 0.03 0.02 -31.7 0 1 36.26 34.95
  L 36.92 35.27
  A 0.18 0.17 -55.9 0 1 36.97 35.55
  L 34.72 37.79
  Z"
/>
<path fill="#8e2b27" d="
  M 30.77 39.20
  A 0.32 0.32 0.0 0 1 30.54 39.75
  L 28.11 39.75
  A 1.77 1.64 47.2 0 1 27.85 39.73
  Q 25.25 39.31 27.18 36.45
  A 0.50 0.50 0.0 0 1 27.95 36.37
  L 30.77 39.20
  Z"
/>
<path fill="#8e2b27" d="
  M 35.19 39.20
  L 37.99 36.36
  A 0.50 0.50 0.0 0 1 38.76 36.44
  Q 40.70 39.28 38.11 39.71
  A 1.77 1.64 -47.5 0 1 37.85 39.74
  L 35.43 39.75
  A 0.32 0.32 0.0 0 1 35.19 39.20
  Z"
/>
<path fill="#8e2b27" d="
  M 32.98 39.87
  Q 33.80 39.87 34.60 42.25
  A 0.07 0.07 0.0 0 1 34.51 42.34
  Q 33.17 41.93 32.99 41.93
  Q 32.82 41.94 31.48 42.36
  A 0.07 0.07 0.0 0 1 31.39 42.27
  Q 32.15 39.88 32.98 39.87
  Z"
/>
</svg>
