<?xml version="1.0" encoding="UTF-8" standalone="no"?>
<!DOCTYPE svg PUBLIC "-//W3C//DTD SVG 1.1//EN" "http://www.w3.org/Graphics/SVG/1.1/DTD/svg11.dtd">
<svg xmlns="http://www.w3.org/2000/svg" version="1.1" viewBox="0.00 0.00 66.00 88.00">
<g stroke-width="2.00" fill="none" stroke-linecap="butt">
<path stroke="#905c35" vector-effect="non-scaling-stroke" d="
  M 33.39 86.69
  Q 33.50 86.69 33.61 86.67
  Q 33.62 86.66 33.75 86.54
  C 49.31 72.07 72.17 43.52 61.73 20.67
  Q 56.36 8.93 44.00 4.35
  Q 38.95 2.47 33.55 2.46
  Q 28.15 2.45 23.10 4.31
  Q 10.72 8.84 5.30 20.56
  C -5.22 43.37 17.53 72.01 33.03 86.54
  Q 33.16 86.66 33.17 86.66
  Q 33.28 86.69 33.39 86.69"
/>
<path stroke="#debda4" vector-effect="non-scaling-stroke" d="
  M 35.9786 16.1840
  A 0.52 0.52 0.0 0 0 35.4577 15.6649
  L 29.6377 15.6751
  A 0.52 0.52 0.0 0 0 29.1186 16.1960
  L 29.1214 17.7960
  A 0.52 0.52 0.0 0 0 29.6423 18.3151
  L 35.4623 18.3049
  A 0.52 0.52 0.0 0 0 35.9814 17.7840
  L 35.9786 16.1840"
/>
<path stroke="#debda4" vector-effect="non-scaling-stroke" d="
  M 38.66 20.98
  A 0.52 0.52 0.0 0 0 38.14 20.46
  L 27.00 20.46
  A 0.52 0.52 0.0 0 0 26.48 20.98
  L 26.48 22.60
  A 0.52 0.52 0.0 0 0 27.00 23.12
  L 38.14 23.12
  A 0.52 0.52 0.0 0 0 38.66 22.60
  L 38.66 20.98"
/>
<path stroke="#debda4" vector-effect="non-scaling-stroke" d="
  M 32.56 52.24
  Q 38.69 52.24 38.74 52.23
  A 0.71 0.71 0.0 0 0 39.32 51.60
  L 41.27 31.22
  A 1.30 1.28 -65.4 0 0 40.90 30.20
  L 36.41 25.70
  A 1.50 1.50 0.0 0 0 35.43 25.28
  Q 34.81 25.25 32.57 25.25
  Q 30.32 25.25 29.71 25.27
  A 1.50 1.50 0.0 0 0 28.72 25.70
  L 24.23 30.20
  A 1.30 1.28 65.5 0 0 23.86 31.22
  L 25.81 51.60
  A 0.71 0.71 0.0 0 0 26.38 52.23
  Q 26.44 52.24 32.56 52.24"
/>
<path stroke="#debda4" vector-effect="non-scaling-stroke" d="
  M 28.78 39.82
  L 36.40 39.78
  A 1.94 1.94 0.0 0 0 38.33 37.83
  L 38.31 33.62
  A 5.75 5.60 89.7 0 0 32.68 27.90
  L 32.38 27.90
  A 5.75 5.60 89.7 0 0 26.81 33.68
  L 26.83 37.89
  A 1.94 1.94 0.0 0 0 28.78 39.82"
/>
</g>
<path fill="#623d22" d="
  M 33.81 88.00
  L 33.03 88.00
  C 21.98 77.95 11.88 65.48 5.66 51.61
  Q 0.17 39.37 2.06 26.66
  Q 2.84 21.44 6.59 15.83
  C 20.16 -4.42 50.61 -3.46 62.14 18.77
  C 67.43 28.98 65.86 41.31 61.23 51.73
  C 55.10 65.50 44.90 77.87 33.81 88.00
  Z
  M 33.39 86.69
  Q 33.50 86.69 33.61 86.67
  Q 33.62 86.66 33.75 86.54
  C 49.31 72.07 72.17 43.52 61.73 20.67
  Q 56.36 8.93 44.00 4.35
  Q 38.95 2.47 33.55 2.46
  Q 28.15 2.45 23.10 4.31
  Q 10.72 8.84 5.30 20.56
  C -5.22 43.37 17.53 72.01 33.03 86.54
  Q 33.16 86.66 33.17 86.66
  Q 33.28 86.69 33.39 86.69
  Z"
/>
<path fill="#bd7b48" d="
  M 33.55 2.46
  Q 38.95 2.47 44.00 4.35
  Q 56.36 8.93 61.73 20.67
  C 72.17 43.52 49.31 72.07 33.75 86.54
  Q 33.62 86.66 33.61 86.67
  Q 33.50 86.69 33.39 86.69
  Q 33.28 86.69 33.17 86.66
  Q 33.16 86.66 33.03 86.54
  C 17.53 72.01 -5.22 43.37 5.30 20.56
  Q 10.72 8.84 23.10 4.31
  Q 28.15 2.45 33.55 2.46
  Z
  M 35.9786 16.1840
  A 0.52 0.52 0.0 0 0 35.4577 15.6649
  L 29.6377 15.6751
  A 0.52 0.52 0.0 0 0 29.1186 16.1960
  L 29.1214 17.7960
  A 0.52 0.52 0.0 0 0 29.6423 18.3151
  L 35.4623 18.3049
  A 0.52 0.52 0.0 0 0 35.9814 17.7840
  L 35.9786 16.1840
  Z
  M 38.66 20.98
  A 0.52 0.52 0.0 0 0 38.14 20.46
  L 27.00 20.46
  A 0.52 0.52 0.0 0 0 26.48 20.98
  L 26.48 22.60
  A 0.52 0.52 0.0 0 0 27.00 23.12
  L 38.14 23.12
  A 0.52 0.52 0.0 0 0 38.66 22.60
  L 38.66 20.98
  Z
  M 32.56 52.24
  Q 38.69 52.24 38.74 52.23
  A 0.71 0.71 0.0 0 0 39.32 51.60
  L 41.27 31.22
  A 1.30 1.28 -65.4 0 0 40.90 30.20
  L 36.41 25.70
  A 1.50 1.50 0.0 0 0 35.43 25.28
  Q 34.81 25.25 32.57 25.25
  Q 30.32 25.25 29.71 25.27
  A 1.50 1.50 0.0 0 0 28.72 25.70
  L 24.23 30.20
  A 1.30 1.28 65.5 0 0 23.86 31.22
  L 25.81 51.60
  A 0.71 0.71 0.0 0 0 26.38 52.23
  Q 26.44 52.24 32.56 52.24
  Z"
/>
<rect fill="#ffffff" x="-3.43" y="-1.32" transform="translate(32.55,16.99) rotate(-0.1)" width="6.86" height="2.64" rx="0.52"/>
<rect fill="#ffffff" x="26.48" y="20.46" width="12.18" height="2.66" rx="0.52"/>
<path fill="#ffffff" d="
  M 32.57 25.25
  Q 34.81 25.25 35.43 25.28
  A 1.50 1.50 0.0 0 1 36.41 25.70
  L 40.90 30.20
  A 1.30 1.28 -65.4 0 1 41.27 31.22
  L 39.32 51.60
  A 0.71 0.71 0.0 0 1 38.74 52.23
  Q 38.69 52.24 32.56 52.24
  Q 26.44 52.24 26.38 52.23
  A 0.71 0.71 0.0 0 1 25.81 51.60
  L 23.86 31.22
  A 1.30 1.28 65.5 0 1 24.23 30.20
  L 28.72 25.70
  A 1.50 1.50 0.0 0 1 29.71 25.27
  Q 30.32 25.25 32.57 25.25
  Z
  M 28.78 39.82
  L 36.40 39.78
  A 1.94 1.94 0.0 0 0 38.33 37.83
  L 38.31 33.62
  A 5.75 5.60 89.7 0 0 32.68 27.90
  L 32.38 27.90
  A 5.75 5.60 89.7 0 0 26.81 33.68
  L 26.83 37.89
  A 1.94 1.94 0.0 0 0 28.78 39.82
  Z"
/>
<path fill="#bd7b48" d="
  M 28.78 39.82
  A 1.94 1.94 0.0 0 1 26.83 37.89
  L 26.81 33.68
  A 5.75 5.60 89.7 0 1 32.38 27.90
  L 32.68 27.90
  A 5.75 5.60 89.7 0 1 38.31 33.62
  L 38.33 37.83
  A 1.94 1.94 0.0 0 1 36.40 39.78
  L 28.78 39.82
  Z"
/>
</svg>
