<?xml version="1.0" encoding="UTF-8" standalone="no"?>
<!DOCTYPE svg PUBLIC "-//W3C//DTD SVG 1.1//EN" "http://www.w3.org/Graphics/SVG/1.1/DTD/svg11.dtd">
<svg xmlns="http://www.w3.org/2000/svg" version="1.1" viewBox="0.00 0.00 66.00 88.00">
<g stroke-width="2.00" fill="none" stroke-linecap="butt">
<path stroke="#2f2e2e" vector-effect="non-scaling-stroke" d="
  M 33.42 86.56
  C 34.15 86.56 33.56 86.62 33.78 86.42
  Q 47.47 73.81 56.47 58.50
  C 65.49 43.16 68.72 24.15 54.61 10.87
  C 48.98 5.57 41.45 2.56 33.53 2.55
  C 25.60 2.54 18.06 5.53 12.42 10.82
  C -1.72 24.07 1.46 43.08 10.45 58.44
  Q 19.41 73.78 33.07 86.42
  C 33.29 86.62 32.70 86.56 33.42 86.56"
/>
<path stroke="#9e9e9e" vector-effect="non-scaling-stroke" d="
  M 33.08 53.13
  Q 33.38 53.13 33.75 52.75
  Q 41.07 45.06 47.74 37.70
  A 0.83 0.83 0.0 0 0 47.12 36.31
  L 42.03 36.31
  A 0.65 0.65 0.0 0 1 41.38 35.67
  L 41.15 14.34
  A 0.64 0.64 0.0 0 0 40.60 13.72
  Q 40.55 13.71 32.86 13.75
  Q 25.17 13.79 25.12 13.80
  A 0.64 0.64 0.0 0 0 24.57 14.43
  L 24.58 35.76
  A 0.65 0.65 0.0 0 1 23.94 36.41
  L 18.85 36.47
  A 0.83 0.83 0.0 0 0 18.24 37.87
  Q 25.00 45.15 32.41 52.75
  Q 32.78 53.13 33.08 53.13"
/>
</g>
<path fill="#20201f" d="
  M 33.78 88.00
  L 33.13 88.00
  Q 15.43 72.28 5.97 52.53
  Q 3.28 46.93 1.98 38.76
  C -0.11 25.64 5.03 13.59 16.05 6.41
  C 27.71 -1.19 44.58 -0.36 55.23 9.71
  Q 68.51 22.27 64.57 41.40
  C 60.96 58.93 46.80 76.22 33.78 88.00
  Z
  M 33.42 86.56
  C 34.15 86.56 33.56 86.62 33.78 86.42
  Q 47.47 73.81 56.47 58.50
  C 65.49 43.16 68.72 24.15 54.61 10.87
  C 48.98 5.57 41.45 2.56 33.53 2.55
  C 25.60 2.54 18.06 5.53 12.42 10.82
  C -1.72 24.07 1.46 43.08 10.45 58.44
  Q 19.41 73.78 33.07 86.42
  C 33.29 86.62 32.70 86.56 33.42 86.56
  Z"
/>
<path fill="#3d3c3d" d="
  M 33.53 2.55
  C 41.45 2.56 48.98 5.57 54.61 10.87
  C 68.72 24.15 65.49 43.16 56.47 58.50
  Q 47.47 73.81 33.78 86.42
  C 33.56 86.62 34.15 86.56 33.42 86.56
  C 32.70 86.56 33.29 86.62 33.07 86.42
  Q 19.41 73.78 10.45 58.44
  C 1.46 43.08 -1.72 24.07 12.42 10.82
  C 18.06 5.53 25.60 2.54 33.53 2.55
  Z
  M 33.08 53.13
  Q 33.38 53.13 33.75 52.75
  Q 41.07 45.06 47.74 37.70
  A 0.83 0.83 0.0 0 0 47.12 36.31
  L 42.03 36.31
  A 0.65 0.65 0.0 0 1 41.38 35.67
  L 41.15 14.34
  A 0.64 0.64 0.0 0 0 40.60 13.72
  Q 40.55 13.71 32.86 13.75
  Q 25.17 13.79 25.12 13.80
  A 0.64 0.64 0.0 0 0 24.57 14.43
  L 24.58 35.76
  A 0.65 0.65 0.0 0 1 23.94 36.41
  L 18.85 36.47
  A 0.83 0.83 0.0 0 0 18.24 37.87
  Q 25.00 45.15 32.41 52.75
  Q 32.78 53.13 33.08 53.13
  Z"
/>
<path fill="#ffffff" d="
  M 32.86 13.75
  Q 40.55 13.71 40.60 13.72
  A 0.64 0.64 0.0 0 1 41.15 14.34
  L 41.38 35.67
  A 0.65 0.65 0.0 0 0 42.03 36.31
  L 47.12 36.31
  A 0.83 0.83 0.0 0 1 47.74 37.70
  Q 41.07 45.06 33.75 52.75
  Q 33.38 53.13 33.08 53.13
  Q 32.78 53.13 32.41 52.75
  Q 25.00 45.15 18.24 37.87
  A 0.83 0.83 0.0 0 1 18.85 36.47
  L 23.94 36.41
  A 0.65 0.65 0.0 0 0 24.58 35.76
  L 24.57 14.43
  A 0.64 0.64 0.0 0 1 25.12 13.80
  Q 25.17 13.79 32.86 13.75
  Z"
/>
</svg>
