<?xml version="1.0" encoding="UTF-8" standalone="no"?>
<!DOCTYPE svg PUBLIC "-//W3C//DTD SVG 1.1//EN" "http://www.w3.org/Graphics/SVG/1.1/DTD/svg11.dtd">
<svg xmlns="http://www.w3.org/2000/svg" version="1.1" viewBox="0.00 0.00 66.00 88.00">
<g stroke-width="2.00" fill="none" stroke-linecap="butt">
<path stroke="#905c35" vector-effect="non-scaling-stroke" d="
  M 33.39 86.69
  Q 33.50 86.69 33.60 86.67
  Q 33.64 86.66 33.76 86.55
  C 47.28 73.86 62.69 55.00 64.18 35.59
  C 65.27 21.40 57.22 9.25 43.99 4.34
  Q 38.95 2.47 33.55 2.46
  Q 28.16 2.45 23.11 4.30
  C 9.86 9.16 1.76 21.27 2.80 35.47
  C 4.21 54.88 19.55 73.80 33.01 86.55
  Q 33.13 86.66 33.17 86.66
  Q 33.27 86.69 33.39 86.69"
/>
<path stroke="#debda4" vector-effect="non-scaling-stroke" d="
  M 15.23 18.06
  Q 14.24 19.05 15.10 20.85
  A 0.86 0.85 -12.4 0 0 15.88 21.34
  L 17.14 21.34
  A 0.91 0.90 -19.4 0 1 17.84 21.67
  L 22.67 27.60
  A 0.68 0.68 0.0 0 0 23.53 27.77
  Q 23.98 27.52 24.37 27.13
  Q 24.76 26.73 25.00 26.28
  A 0.68 0.68 0.0 0 0 24.83 25.43
  L 18.86 20.64
  A 0.91 0.90 -71.0 0 1 18.53 19.94
  L 18.52 18.68
  A 0.86 0.85 -78.0 0 0 18.02 17.90
  Q 16.22 17.06 15.23 18.06"
/>
<path stroke="#debda4" vector-effect="non-scaling-stroke" d="
  M 25.69 28.46
  Q 22.59 31.55 22.03 32.08
  A 1.49 1.44 -66.1 0 1 21.02 32.49
  L 19.97 32.49
  A 0.38 0.37 -6.6 0 0 19.60 32.95
  Q 20.00 34.59 20.91 35.44
  A 0.50 0.49 -42.6 0 0 21.56 35.46
  L 25.13 32.55
  A 0.61 0.61 0.0 0 1 25.95 32.59
  Q 38.64 45.30 40.87 47.38
  Q 43.50 49.84 48.42 51.31
  A 0.02 0.02 0.0 0 0 48.45 51.31
  Q 48.45 51.30 48.46 51.29
  Q 48.47 51.29 48.47 51.28
  A 0.02 0.02 0.0 0 0 48.48 51.25
  Q 47.02 46.33 44.57 43.69
  Q 42.50 41.46 29.82 28.73
  A 0.61 0.61 0.0 0 1 29.79 27.91
  L 32.71 24.35
  A 0.50 0.49 -47.2 0 0 32.69 23.70
  Q 31.84 22.78 30.20 22.38
  A 0.38 0.37 -83.2 0 0 29.74 22.75
  L 29.74 23.80
  A 1.49 1.44 -23.8 0 1 29.33 24.81
  Q 28.79 25.36 25.69 28.46"
/>
<path stroke="#debda4" vector-effect="non-scaling-stroke" d="
  M 28.90 31.80
  Q 28.46 32.28 27.56 32.52
  A 0.15 0.15 0.0 0 0 27.56 32.81
  Q 29.12 33.32 29.78 32.61
  Q 30.44 31.90 29.81 30.39
  A 0.15 0.15 0.0 0 0 29.52 30.41
  Q 29.34 31.33 28.90 31.80"
/>
</g>
<path fill="#623d22" d="
  M 33.78 88.00
  L 33.14 88.00
  Q 15.61 72.48 6.00 52.51
  Q 2.23 44.68 1.63 35.22
  Q 1.02 25.70 5.25 17.97
  C 14.34 1.36 36.92 -4.34 52.84 7.78
  Q 68.04 19.34 64.88 39.87
  Q 63.53 48.60 57.54 58.84
  Q 47.97 75.17 33.78 88.00
  Z
  M 33.39 86.69
  Q 33.50 86.69 33.60 86.67
  Q 33.64 86.66 33.76 86.55
  C 47.28 73.86 62.69 55.00 64.18 35.59
  C 65.27 21.40 57.22 9.25 43.99 4.34
  Q 38.95 2.47 33.55 2.46
  Q 28.16 2.45 23.11 4.30
  C 9.86 9.16 1.76 21.27 2.80 35.47
  C 4.21 54.88 19.55 73.80 33.01 86.55
  Q 33.13 86.66 33.17 86.66
  Q 33.27 86.69 33.39 86.69
  Z"
/>
<path fill="#bd7b48" d="
  M 33.55 2.46
  Q 38.95 2.47 43.99 4.34
  C 57.22 9.25 65.27 21.40 64.18 35.59
  C 62.69 55.00 47.28 73.86 33.76 86.55
  Q 33.64 86.66 33.60 86.67
  Q 33.50 86.69 33.39 86.69
  Q 33.27 86.69 33.17 86.66
  Q 33.13 86.66 33.01 86.55
  C 19.55 73.80 4.21 54.88 2.80 35.47
  C 1.76 21.27 9.86 9.16 23.11 4.30
  Q 28.16 2.45 33.55 2.46
  Z
  M 15.23 18.06
  Q 14.24 19.05 15.10 20.85
  A 0.86 0.85 -12.4 0 0 15.88 21.34
  L 17.14 21.34
  A 0.91 0.90 -19.4 0 1 17.84 21.67
  L 22.67 27.60
  A 0.68 0.68 0.0 0 0 23.53 27.77
  Q 23.98 27.52 24.37 27.13
  Q 24.76 26.73 25.00 26.28
  A 0.68 0.68 0.0 0 0 24.83 25.43
  L 18.86 20.64
  A 0.91 0.90 -71.0 0 1 18.53 19.94
  L 18.52 18.68
  A 0.86 0.85 -78.0 0 0 18.02 17.90
  Q 16.22 17.06 15.23 18.06
  Z
  M 25.69 28.46
  Q 22.59 31.55 22.03 32.08
  A 1.49 1.44 -66.1 0 1 21.02 32.49
  L 19.97 32.49
  A 0.38 0.37 -6.6 0 0 19.60 32.95
  Q 20.00 34.59 20.91 35.44
  A 0.50 0.49 -42.6 0 0 21.56 35.46
  L 25.13 32.55
  A 0.61 0.61 0.0 0 1 25.95 32.59
  Q 38.64 45.30 40.87 47.38
  Q 43.50 49.84 48.42 51.31
  A 0.02 0.02 0.0 0 0 48.45 51.31
  Q 48.45 51.30 48.46 51.29
  Q 48.47 51.29 48.47 51.28
  A 0.02 0.02 0.0 0 0 48.48 51.25
  Q 47.02 46.33 44.57 43.69
  Q 42.50 41.46 29.82 28.73
  A 0.61 0.61 0.0 0 1 29.79 27.91
  L 32.71 24.35
  A 0.50 0.49 -47.2 0 0 32.69 23.70
  Q 31.84 22.78 30.20 22.38
  A 0.38 0.37 -83.2 0 0 29.74 22.75
  L 29.74 23.80
  A 1.49 1.44 -23.8 0 1 29.33 24.81
  Q 28.79 25.36 25.69 28.46
  Z"
/>
<path fill="#ffffff" d="
  M 24.37 27.13
  Q 23.98 27.52 23.53 27.77
  A 0.68 0.68 0.0 0 1 22.67 27.60
  L 17.84 21.67
  A 0.91 0.90 -19.4 0 0 17.14 21.34
  L 15.88 21.34
  A 0.86 0.85 -12.4 0 1 15.10 20.85
  Q 14.24 19.05 15.23 18.06
  Q 16.22 17.06 18.02 17.90
  A 0.86 0.85 -78.0 0 1 18.52 18.68
  L 18.53 19.94
  A 0.91 0.90 -71.0 0 0 18.86 20.64
  L 24.83 25.43
  A 0.68 0.68 0.0 0 1 25.00 26.28
  Q 24.76 26.73 24.37 27.13
  Z"
/>
<path fill="#ffffff" d="
  M 48.46 51.29
  Q 48.45 51.30 48.45 51.31
  A 0.02 0.02 0.0 0 1 48.42 51.31
  Q 43.50 49.84 40.87 47.38
  Q 38.64 45.30 25.95 32.59
  A 0.61 0.61 0.0 0 0 25.13 32.55
  L 21.56 35.46
  A 0.50 0.49 -42.6 0 1 20.91 35.44
  Q 20.00 34.59 19.60 32.95
  A 0.38 0.37 -6.6 0 1 19.97 32.49
  L 21.02 32.49
  A 1.49 1.44 -66.1 0 0 22.03 32.08
  Q 22.59 31.55 25.69 28.46
  Q 28.79 25.36 29.33 24.81
  A 1.49 1.44 -23.8 0 0 29.74 23.80
  L 29.74 22.75
  A 0.38 0.37 -83.2 0 1 30.20 22.38
  Q 31.84 22.78 32.69 23.70
  A 0.50 0.49 -47.2 0 1 32.71 24.35
  L 29.79 27.91
  A 0.61 0.61 0.0 0 0 29.82 28.73
  Q 42.50 41.46 44.57 43.69
  Q 47.02 46.33 48.48 51.25
  A 0.02 0.02 0.0 0 1 48.47 51.28
  Q 48.47 51.29 48.46 51.29
  Z
  M 28.90 31.80
  Q 28.46 32.28 27.56 32.52
  A 0.15 0.15 0.0 0 0 27.56 32.81
  Q 29.12 33.32 29.78 32.61
  Q 30.44 31.90 29.81 30.39
  A 0.15 0.15 0.0 0 0 29.52 30.41
  Q 29.34 31.33 28.90 31.80
  Z"
/>
<path fill="#bd7b48" d="
  M 29.78 32.61
  Q 29.12 33.32 27.56 32.81
  A 0.15 0.15 0.0 0 1 27.56 32.52
  Q 28.46 32.28 28.90 31.80
  Q 29.34 31.33 29.52 30.41
  A 0.15 0.15 0.0 0 1 29.81 30.39
  Q 30.44 31.90 29.78 32.61
  Z"
/>
</svg>
