<?xml version="1.0" encoding="UTF-8" standalone="no"?>
<!DOCTYPE svg PUBLIC "-//W3C//DTD SVG 1.1//EN" "http://www.w3.org/Graphics/SVG/1.1/DTD/svg11.dtd">
<svg xmlns="http://www.w3.org/2000/svg" version="1.1" viewBox="0.00 0.00 66.00 88.00">
<g stroke-width="2.00" fill="none" stroke-linecap="butt">
<path stroke="#97701e" vector-effect="non-scaling-stroke" d="
  M 33.39 86.69
  Q 33.53 86.69 33.66 86.66
  A 0.04 0.04 0.0 0 0 33.70 86.64
  Q 47.43 73.82 56.58 58.30
  C 65.17 43.74 68.52 25.48 56.08 12.26
  C 50.24 6.07 42.18 2.47 33.56 2.46
  C 24.93 2.44 16.86 6.00 11.00 12.17
  C -1.49 25.34 1.78 43.62 10.32 58.21
  Q 19.41 73.77 33.09 86.64
  A 0.04 0.04 0.0 0 0 33.12 86.66
  Q 33.26 86.69 33.39 86.69"
/>
<path stroke="#dcba75" vector-effect="non-scaling-stroke" d="
  M 33.2437 17.8323
  A 0.47 0.47 0.0 0 0 32.5790 17.8311
  L 26.4023 23.9863
  A 0.47 0.47 0.0 0 0 26.4011 24.6510
  L 32.5563 30.8277
  A 0.47 0.47 0.0 0 0 33.2210 30.8289
  L 39.3977 24.6737
  A 0.47 0.47 0.0 0 0 39.3989 24.0090
  L 33.2437 17.8323"
/>
<path stroke="#dcba75" vector-effect="non-scaling-stroke" d="
  M 23.6071 27.4880
  A 0.39 0.39 0.0 0 0 23.0556 27.4871
  L 16.8080 33.7129
  A 0.39 0.39 0.0 0 0 16.8071 34.2644
  L 23.0329 40.5120
  A 0.39 0.39 0.0 0 0 23.5844 40.5129
  L 29.8320 34.2871
  A 0.39 0.39 0.0 0 0 29.8329 33.7356
  L 23.6071 27.4880"
/>
<path stroke="#dcba75" vector-effect="non-scaling-stroke" d="
  M 42.9253 27.5370
  A 0.46 0.46 0.0 0 0 42.2747 27.5370
  L 36.1370 33.6747
  A 0.46 0.46 0.0 0 0 36.1370 34.3253
  L 42.2747 40.4630
  A 0.46 0.46 0.0 0 0 42.9253 40.4630
  L 49.0630 34.3253
  A 0.46 0.46 0.0 0 0 49.0630 33.6747
  L 42.9253 27.5370"
/>
<path stroke="#dcba75" vector-effect="non-scaling-stroke" d="
  M 39.5224 43.9414
  A 0.40 0.40 0.0 0 0 39.5214 43.3757
  L 33.2314 37.1076
  A 0.40 0.40 0.0 0 0 32.6657 37.1086
  L 26.3976 43.3986
  A 0.40 0.40 0.0 0 0 26.3986 43.9643
  L 32.6886 50.2324
  A 0.40 0.40 0.0 0 0 33.2543 50.2314
  L 39.5224 43.9414"
/>
</g>
<path fill="#664a13" d="
  M 33.80 88.00
  L 33.03 88.00
  C 16.68 73.19 -6.50 43.95 4.17 20.19
  C 15.25 -4.49 50.33 -5.01 62.39 19.27
  C 66.64 27.85 66.12 38.11 63.06 47.02
  C 57.71 62.58 45.86 77.05 33.80 88.00
  Z
  M 33.39 86.69
  Q 33.53 86.69 33.66 86.66
  A 0.04 0.04 0.0 0 0 33.70 86.64
  Q 47.43 73.82 56.58 58.30
  C 65.17 43.74 68.52 25.48 56.08 12.26
  C 50.24 6.07 42.18 2.47 33.56 2.46
  C 24.93 2.44 16.86 6.00 11.00 12.17
  C -1.49 25.34 1.78 43.62 10.32 58.21
  Q 19.41 73.77 33.09 86.64
  A 0.04 0.04 0.0 0 0 33.12 86.66
  Q 33.26 86.69 33.39 86.69
  Z"
/>
<path fill="#c79528" d="
  M 33.56 2.46
  C 42.18 2.47 50.24 6.07 56.08 12.26
  C 68.52 25.48 65.17 43.74 56.58 58.30
  Q 47.43 73.82 33.70 86.64
  A 0.04 0.04 0.0 0 1 33.66 86.66
  Q 33.53 86.69 33.39 86.69
  Q 33.26 86.69 33.12 86.66
  A 0.04 0.04 0.0 0 1 33.09 86.64
  Q 19.41 73.77 10.32 58.21
  C 1.78 43.62 -1.49 25.34 11.00 12.17
  C 16.86 6.00 24.93 2.44 33.56 2.46
  Z
  M 33.2437 17.8323
  A 0.47 0.47 0.0 0 0 32.5790 17.8311
  L 26.4023 23.9863
  A 0.47 0.47 0.0 0 0 26.4011 24.6510
  L 32.5563 30.8277
  A 0.47 0.47 0.0 0 0 33.2210 30.8289
  L 39.3977 24.6737
  A 0.47 0.47 0.0 0 0 39.3989 24.0090
  L 33.2437 17.8323
  Z
  M 23.6071 27.4880
  A 0.39 0.39 0.0 0 0 23.0556 27.4871
  L 16.8080 33.7129
  A 0.39 0.39 0.0 0 0 16.8071 34.2644
  L 23.0329 40.5120
  A 0.39 0.39 0.0 0 0 23.5844 40.5129
  L 29.8320 34.2871
  A 0.39 0.39 0.0 0 0 29.8329 33.7356
  L 23.6071 27.4880
  Z
  M 42.9253 27.5370
  A 0.46 0.46 0.0 0 0 42.2747 27.5370
  L 36.1370 33.6747
  A 0.46 0.46 0.0 0 0 36.1370 34.3253
  L 42.2747 40.4630
  A 0.46 0.46 0.0 0 0 42.9253 40.4630
  L 49.0630 34.3253
  A 0.46 0.46 0.0 0 0 49.0630 33.6747
  L 42.9253 27.5370
  Z
  M 39.5224 43.9414
  A 0.40 0.40 0.0 0 0 39.5214 43.3757
  L 33.2314 37.1076
  A 0.40 0.40 0.0 0 0 32.6657 37.1086
  L 26.3976 43.3986
  A 0.40 0.40 0.0 0 0 26.3986 43.9643
  L 32.6886 50.2324
  A 0.40 0.40 0.0 0 0 33.2543 50.2314
  L 39.5224 43.9414
  Z"
/>
<rect fill="#f0dfc1" x="-4.83" y="-4.83" transform="translate(32.90,24.33) rotate(-44.9)" width="9.66" height="9.66" rx="0.47"/>
<rect fill="#f0dfc1" x="-4.80" y="-4.80" transform="translate(23.32,34.00) rotate(-44.9)" width="9.60" height="9.60" rx="0.39"/>
<rect fill="#f0dfc1" x="-4.80" y="-4.80" transform="translate(42.60,34.00) rotate(-45.0)" width="9.60" height="9.60" rx="0.46"/>
<rect fill="#f0dfc1" x="-4.84" y="-4.84" transform="translate(32.96,43.67) rotate(44.9)" width="9.68" height="9.68" rx="0.40"/>
</svg>
