<?xml version="1.0" encoding="UTF-8" standalone="no"?>
<!DOCTYPE svg PUBLIC "-//W3C//DTD SVG 1.1//EN" "http://www.w3.org/Graphics/SVG/1.1/DTD/svg11.dtd">
<svg xmlns="http://www.w3.org/2000/svg" version="1.1" viewBox="0.00 0.00 66.00 88.00">
<g stroke-width="2.00" fill="none" stroke-linecap="butt">
<path stroke="#33652a" vector-effect="non-scaling-stroke" d="
  M 33.40 86.68
  Q 33.54 86.68 33.67 86.65
  A 0.05 0.04 8.3 0 0 33.71 86.63
  Q 47.60 73.58 56.49 58.52
  C 63.89 45.98 68.27 28.86 59.07 15.93
  C 53.17 7.63 44.01 2.49 33.54 2.47
  C 23.06 2.45 13.88 7.57 7.96 15.85
  C -1.28 28.75 3.04 45.88 10.40 58.45
  Q 19.24 73.53 33.09 86.63
  A 0.05 0.04 -8.2 0 0 33.13 86.65
  Q 33.26 86.68 33.40 86.68"
/>
<path stroke="#9ab27d" vector-effect="non-scaling-stroke" d="
  M 39.9891 16.4072
  A 6.80 4.73 -78.9 0 0 34.0385 22.1694
  A 6.80 4.73 -78.9 0 0 37.3709 29.7528
  A 6.80 4.73 -78.9 0 0 43.3215 23.9906
  A 6.80 4.73 -78.9 0 0 39.9891 16.4072"
/>
<path stroke="#9ab27d" vector-effect="non-scaling-stroke" d="
  M 25.2079 16.5710
  A 6.81 4.73 -104.3 0 0 22.3066 24.3383
  A 6.81 4.73 -104.3 0 0 28.5721 29.7690
  A 6.81 4.73 -104.3 0 0 31.4734 22.0017
  A 6.81 4.73 -104.3 0 0 25.2079 16.5710"
/>
<path stroke="#9ab27d" vector-effect="non-scaling-stroke" d="
  M 49.0853 27.2959
  A 6.43 4.44 -66.0 0 0 42.4139 31.3641
  A 6.43 4.44 -66.0 0 0 43.8547 39.0441
  A 6.43 4.44 -66.0 0 0 50.5261 34.9759
  A 6.43 4.44 -66.0 0 0 49.0853 27.2959"
/>
<path stroke="#9ab27d" vector-effect="non-scaling-stroke" d="
  M 16.9351 27.7824
  A 6.46 4.42 -113.2 0 0 15.4174 35.4612
  A 6.46 4.42 -113.2 0 0 22.0249 39.6576
  A 6.46 4.42 -113.2 0 0 23.5426 31.9788
  A 6.46 4.42 -113.2 0 0 16.9351 27.7824"
/>
<path stroke="#9ab27d" vector-effect="non-scaling-stroke" d="
  M 22.88 51.00
  C 25.24 52.58 29.39 50.59 31.89 49.51
  A 2.76 2.63 30.8 0 1 32.86 49.29
  Q 35.88 49.21 36.49 49.56
  C 39.37 51.19 44.24 53.81 45.71 49.04
  A 2.18 2.13 48.3 0 0 45.76 47.94
  Q 44.78 43.24 40.48 38.52
  Q 35.46 33.03 29.63 35.51
  Q 26.01 37.04 24.00 40.71
  C 22.65 43.20 19.96 49.04 22.88 51.00"
/>
</g>
<path fill="#21451b" d="
  M 33.81 88.00
  L 33.04 88.00
  C 21.75 77.74 12.13 65.69 5.65 51.56
  Q 2.19 44.03 1.60 34.89
  C 0.60 19.52 10.52 6.48 25.12 2.43
  Q 35.64 -0.49 46.64 4.14
  Q 56.42 8.25 62.01 18.56
  C 67.45 28.59 65.89 41.21 61.31 51.54
  C 55.16 65.42 44.98 77.80 33.81 88.00
  Z
  M 33.40 86.68
  Q 33.54 86.68 33.67 86.65
  A 0.05 0.04 8.3 0 0 33.71 86.63
  Q 47.60 73.58 56.49 58.52
  C 63.89 45.98 68.27 28.86 59.07 15.93
  C 53.17 7.63 44.01 2.49 33.54 2.47
  C 23.06 2.45 13.88 7.57 7.96 15.85
  C -1.28 28.75 3.04 45.88 10.40 58.45
  Q 19.24 73.53 33.09 86.63
  A 0.05 0.04 -8.2 0 0 33.13 86.65
  Q 33.26 86.68 33.40 86.68
  Z"
/>
<path fill="#448538" d="
  M 33.54 2.47
  C 44.01 2.49 53.17 7.63 59.07 15.93
  C 68.27 28.86 63.89 45.98 56.49 58.52
  Q 47.60 73.58 33.71 86.63
  A 0.05 0.04 8.3 0 1 33.67 86.65
  Q 33.54 86.68 33.40 86.68
  Q 33.26 86.68 33.13 86.65
  A 0.05 0.04 -8.2 0 1 33.09 86.63
  Q 19.24 73.53 10.40 58.45
  C 3.04 45.88 -1.28 28.75 7.96 15.85
  C 13.88 7.57 23.06 2.45 33.54 2.47
  Z
  M 39.9891 16.4072
  A 6.80 4.73 -78.9 0 0 34.0385 22.1694
  A 6.80 4.73 -78.9 0 0 37.3709 29.7528
  A 6.80 4.73 -78.9 0 0 43.3215 23.9906
  A 6.80 4.73 -78.9 0 0 39.9891 16.4072
  Z
  M 25.2079 16.5710
  A 6.81 4.73 -104.3 0 0 22.3066 24.3383
  A 6.81 4.73 -104.3 0 0 28.5721 29.7690
  A 6.81 4.73 -104.3 0 0 31.4734 22.0017
  A 6.81 4.73 -104.3 0 0 25.2079 16.5710
  Z
  M 49.0853 27.2959
  A 6.43 4.44 -66.0 0 0 42.4139 31.3641
  A 6.43 4.44 -66.0 0 0 43.8547 39.0441
  A 6.43 4.44 -66.0 0 0 50.5261 34.9759
  A 6.43 4.44 -66.0 0 0 49.0853 27.2959
  Z
  M 16.9351 27.7824
  A 6.46 4.42 -113.2 0 0 15.4174 35.4612
  A 6.46 4.42 -113.2 0 0 22.0249 39.6576
  A 6.46 4.42 -113.2 0 0 23.5426 31.9788
  A 6.46 4.42 -113.2 0 0 16.9351 27.7824
  Z
  M 22.88 51.00
  C 25.24 52.58 29.39 50.59 31.89 49.51
  A 2.76 2.63 30.8 0 1 32.86 49.29
  Q 35.88 49.21 36.49 49.56
  C 39.37 51.19 44.24 53.81 45.71 49.04
  A 2.18 2.13 48.3 0 0 45.76 47.94
  Q 44.78 43.24 40.48 38.52
  Q 35.46 33.03 29.63 35.51
  Q 26.01 37.04 24.00 40.71
  C 22.65 43.20 19.96 49.04 22.88 51.00
  Z"
/>
<ellipse fill="#f0dfc1" cx="0.00" cy="0.00" transform="translate(38.68,23.08) rotate(-78.9)" rx="6.80" ry="4.73"/>
<ellipse fill="#f0dfc1" cx="0.00" cy="0.00" transform="translate(26.89,23.17) rotate(-104.3)" rx="6.81" ry="4.73"/>
<ellipse fill="#f0dfc1" cx="0.00" cy="0.00" transform="translate(46.47,33.17) rotate(-66.0)" rx="6.43" ry="4.44"/>
<ellipse fill="#f0dfc1" cx="0.00" cy="0.00" transform="translate(19.48,33.72) rotate(-113.2)" rx="6.46" ry="4.42"/>
<path fill="#f0dfc1" d="
  M 22.88 51.00
  C 19.96 49.04 22.65 43.20 24.00 40.71
  Q 26.01 37.04 29.63 35.51
  Q 35.46 33.03 40.48 38.52
  Q 44.78 43.24 45.76 47.94
  A 2.18 2.13 48.3 0 1 45.71 49.04
  C 44.24 53.81 39.37 51.19 36.49 49.56
  Q 35.88 49.21 32.86 49.29
  A 2.76 2.63 30.8 0 0 31.89 49.51
  C 29.39 50.59 25.24 52.58 22.88 51.00
  Z"
/>
</svg>
