<?xml version="1.0" encoding="UTF-8" standalone="no"?>
<!DOCTYPE svg PUBLIC "-//W3C//DTD SVG 1.1//EN" "http://www.w3.org/Graphics/SVG/1.1/DTD/svg11.dtd">
<svg xmlns="http://www.w3.org/2000/svg" version="1.1" viewBox="0.00 0.00 66.00 88.00">
<g stroke-width="2.00" fill="none" stroke-linecap="butt">
<path stroke="#313930" vector-effect="non-scaling-stroke" d="
  M 33.41 86.59
  C 33.54 86.59 33.72 86.58 33.82 86.48
  Q 49.85 71.05 57.57 56.54
  Q 62.56 47.13 63.76 38.86
  Q 66.82 17.59 48.80 6.57
  Q 42.16 2.52 33.53 2.51
  Q 24.90 2.49 18.25 6.53
  Q 0.20 17.50 3.20 38.78
  Q 4.38 47.05 9.34 56.47
  Q 17.02 71.01 33.01 86.48
  C 33.10 86.57 33.29 86.59 33.41 86.59"
/>
<path stroke="#989580" vector-effect="non-scaling-stroke" d="
  M 20.59 23.84
  Q 22.79 22.70 25.74 22.36
  A 0.11 0.11 0.0 0 1 25.81 22.57
  Q 15.66 27.76 15.53 39.17
  A 0.18 0.18 0.0 0 0 15.89 39.21
  Q 16.86 35.32 19.47 32.31
  A 0.12 0.12 0.0 0 1 19.68 32.43
  Q 16.36 41.15 22.34 47.48
  A 0.18 0.18 0.0 0 0 22.64 47.29
  Q 20.66 42.40 21.26 39.55
  A 0.22 0.22 0.0 0 1 21.67 39.50
  Q 21.70 39.56 21.70 40.22
  Q 21.71 40.89 21.86 41.34
  Q 24.87 50.47 34.76 51.55
  A 0.17 0.17 0.0 0 0 34.84 51.22
  Q 30.50 49.45 27.59 46.08
  A 0.14 0.13 -3.4 0 1 27.77 45.88
  Q 36.62 51.71 45.98 45.53
  A 0.22 0.22 0.0 0 0 45.79 45.14
  C 38.86 47.29 31.87 47.12 26.25 41.79
  Q 21.96 37.73 23.30 32.39
  C 26.06 21.31 41.46 22.03 42.89 33.59
  Q 43.22 36.32 41.86 37.75
  Q 38.84 40.91 35.70 38.07
  Q 34.34 36.84 34.31 36.04
  A 0.34 0.34 0.0 0 1 34.82 35.73
  Q 34.84 35.74 35.32 36.38
  C 36.99 38.57 41.62 35.67 40.24 32.49
  Q 39.27 30.27 36.24 30.53
  C 26.97 31.32 27.60 44.63 37.68 43.65
  Q 43.71 43.07 47.91 39.42
  A 0.45 0.45 0.0 0 0 47.39 38.70
  L 45.65 39.70
  A 0.42 0.41 4.7 0 1 45.12 39.08
  Q 49.57 33.74 49.98 27.02
  A 0.28 0.28 0.0 0 0 49.76 26.72
  L 49.71 26.71
  A 0.41 0.41 0.0 0 0 49.21 27.02
  Q 48.90 28.35 48.33 29.06
  A 0.34 0.34 0.0 0 1 47.73 28.89
  Q 47.20 24.69 44.07 21.42
  A 0.23 0.23 0.0 0 0 43.70 21.68
  Q 45.49 25.27 45.37 29.94
  A 0.14 0.13 -50.5 0 1 45.10 29.97
  Q 42.89 18.60 31.81 17.29
  A 0.25 0.25 0.0 0 0 31.68 17.77
  Q 35.80 19.52 38.91 22.94
  A 0.13 0.13 0.0 0 1 38.74 23.13
  C 33.17 18.63 25.46 18.56 20.35 23.52
  A 0.20 0.20 0.0 0 0 20.59 23.84"
/>
</g>
<path fill="#212820" d="
  M 33.81 88.00
  L 33.04 88.00
  C 21.72 77.71 12.19 65.75 5.68 51.55
  Q 2.14 43.84 1.57 34.90
  Q 1.01 25.99 5.11 18.29
  C 11.60 6.08 24.89 -0.38 38.84 1.78
  C 51.85 3.80 62.17 13.87 64.83 26.51
  C 69.52 48.81 49.24 73.92 33.81 88.00
  Z
  M 33.41 86.59
  C 33.54 86.59 33.72 86.58 33.82 86.48
  Q 49.85 71.05 57.57 56.54
  Q 62.56 47.13 63.76 38.86
  Q 66.82 17.59 48.80 6.57
  Q 42.16 2.52 33.53 2.51
  Q 24.90 2.49 18.25 6.53
  Q 0.20 17.50 3.20 38.78
  Q 4.38 47.05 9.34 56.47
  Q 17.02 71.01 33.01 86.48
  C 33.10 86.57 33.29 86.59 33.41 86.59
  Z"
/>
<path fill="#404a3f" d="
  M 33.53 2.51
  Q 42.16 2.52 48.80 6.57
  Q 66.82 17.59 63.76 38.86
  Q 62.56 47.13 57.57 56.54
  Q 49.85 71.05 33.82 86.48
  C 33.72 86.58 33.54 86.59 33.41 86.59
  C 33.29 86.59 33.10 86.57 33.01 86.48
  Q 17.02 71.01 9.34 56.47
  Q 4.38 47.05 3.20 38.78
  Q 0.20 17.50 18.25 6.53
  Q 24.90 2.49 33.53 2.51
  Z
  M 20.59 23.84
  Q 22.79 22.70 25.74 22.36
  A 0.11 0.11 0.0 0 1 25.81 22.57
  Q 15.66 27.76 15.53 39.17
  A 0.18 0.18 0.0 0 0 15.89 39.21
  Q 16.86 35.32 19.47 32.31
  A 0.12 0.12 0.0 0 1 19.68 32.43
  Q 16.36 41.15 22.34 47.48
  A 0.18 0.18 0.0 0 0 22.64 47.29
  Q 20.66 42.40 21.26 39.55
  A 0.22 0.22 0.0 0 1 21.67 39.50
  Q 21.70 39.56 21.70 40.22
  Q 21.71 40.89 21.86 41.34
  Q 24.87 50.47 34.76 51.55
  A 0.17 0.17 0.0 0 0 34.84 51.22
  Q 30.50 49.45 27.59 46.08
  A 0.14 0.13 -3.4 0 1 27.77 45.88
  Q 36.62 51.71 45.98 45.53
  A 0.22 0.22 0.0 0 0 45.79 45.14
  C 38.86 47.29 31.87 47.12 26.25 41.79
  Q 21.96 37.73 23.30 32.39
  C 26.06 21.31 41.46 22.03 42.89 33.59
  Q 43.22 36.32 41.86 37.75
  Q 38.84 40.91 35.70 38.07
  Q 34.34 36.84 34.31 36.04
  A 0.34 0.34 0.0 0 1 34.82 35.73
  Q 34.84 35.74 35.32 36.38
  C 36.99 38.57 41.62 35.67 40.24 32.49
  Q 39.27 30.27 36.24 30.53
  C 26.97 31.32 27.60 44.63 37.68 43.65
  Q 43.71 43.07 47.91 39.42
  A 0.45 0.45 0.0 0 0 47.39 38.70
  L 45.65 39.70
  A 0.42 0.41 4.7 0 1 45.12 39.08
  Q 49.57 33.74 49.98 27.02
  A 0.28 0.28 0.0 0 0 49.76 26.72
  L 49.71 26.71
  A 0.41 0.41 0.0 0 0 49.21 27.02
  Q 48.90 28.35 48.33 29.06
  A 0.34 0.34 0.0 0 1 47.73 28.89
  Q 47.20 24.69 44.07 21.42
  A 0.23 0.23 0.0 0 0 43.70 21.68
  Q 45.49 25.27 45.37 29.94
  A 0.14 0.13 -50.5 0 1 45.10 29.97
  Q 42.89 18.60 31.81 17.29
  A 0.25 0.25 0.0 0 0 31.68 17.77
  Q 35.80 19.52 38.91 22.94
  A 0.13 0.13 0.0 0 1 38.74 23.13
  C 33.17 18.63 25.46 18.56 20.35 23.52
  A 0.20 0.20 0.0 0 0 20.59 23.84
  Z"
/>
<path fill="#f0dfc1" d="
  M 20.59 23.84
  A 0.20 0.20 0.0 0 1 20.35 23.52
  C 25.46 18.56 33.17 18.63 38.74 23.13
  A 0.13 0.13 0.0 0 0 38.91 22.94
  Q 35.80 19.52 31.68 17.77
  A 0.25 0.25 0.0 0 1 31.81 17.29
  Q 42.89 18.60 45.10 29.97
  A 0.14 0.13 -50.5 0 0 45.37 29.94
  Q 45.49 25.27 43.70 21.68
  A 0.23 0.23 0.0 0 1 44.07 21.42
  Q 47.20 24.69 47.73 28.89
  A 0.34 0.34 0.0 0 0 48.33 29.06
  Q 48.90 28.35 49.21 27.02
  A 0.41 0.41 0.0 0 1 49.71 26.71
  L 49.76 26.72
  A 0.28 0.28 0.0 0 1 49.98 27.02
  Q 49.57 33.74 45.12 39.08
  A 0.42 0.41 4.7 0 0 45.65 39.70
  L 47.39 38.70
  A 0.45 0.45 0.0 0 1 47.91 39.42
  Q 43.71 43.07 37.68 43.65
  C 27.60 44.63 26.97 31.32 36.24 30.53
  Q 39.27 30.27 40.24 32.49
  C 41.62 35.67 36.99 38.57 35.32 36.38
  Q 34.84 35.74 34.82 35.73
  A 0.34 0.34 0.0 0 0 34.31 36.04
  Q 34.34 36.84 35.70 38.07
  Q 38.84 40.91 41.86 37.75
  Q 43.22 36.32 42.89 33.59
  C 41.46 22.03 26.06 21.31 23.30 32.39
  Q 21.96 37.73 26.25 41.79
  C 31.87 47.12 38.86 47.29 45.79 45.14
  A 0.22 0.22 0.0 0 1 45.98 45.53
  Q 36.62 51.71 27.77 45.88
  A 0.14 0.13 -3.4 0 0 27.59 46.08
  Q 30.50 49.45 34.84 51.22
  A 0.17 0.17 0.0 0 1 34.76 51.55
  Q 24.87 50.47 21.86 41.34
  Q 21.71 40.89 21.70 40.22
  Q 21.70 39.56 21.67 39.50
  A 0.22 0.22 0.0 0 0 21.26 39.55
  Q 20.66 42.40 22.64 47.29
  A 0.18 0.18 0.0 0 1 22.34 47.48
  Q 16.36 41.15 19.68 32.43
  A 0.12 0.12 0.0 0 0 19.47 32.31
  Q 16.86 35.32 15.89 39.21
  A 0.18 0.18 0.0 0 1 15.53 39.17
  Q 15.66 27.76 25.81 22.57
  A 0.11 0.11 0.0 0 0 25.74 22.36
  Q 22.79 22.70 20.59 23.84
  Z"
/>
</svg>
