<?xml version="1.0" encoding="UTF-8" standalone="no"?>
<!DOCTYPE svg PUBLIC "-//W3C//DTD SVG 1.1//EN" "http://www.w3.org/Graphics/SVG/1.1/DTD/svg11.dtd">
<svg xmlns="http://www.w3.org/2000/svg" version="1.1" viewBox="0.00 0.00 66.00 88.00">
<g stroke-width="2.00" fill="none" stroke-linecap="butt">
<path stroke="#3a3882" vector-effect="non-scaling-stroke" d="
  M 33.42 86.71
  Q 33.52 86.71 33.62 86.68
  Q 33.68 86.67 33.78 86.57
  C 47.26 73.55 61.77 56.13 64.03 37.25
  C 66.25 18.81 52.56 2.53 33.51 2.51
  C 14.46 2.49 0.74 18.74 2.91 37.18
  C 5.14 56.07 19.61 73.52 33.06 86.57
  Q 33.16 86.67 33.22 86.68
  Q 33.32 86.71 33.42 86.71"
/>
<path stroke="#9f95b6" vector-effect="non-scaling-stroke" d="
  M 30.07 19.49
  A 0.35 0.35 0.0 0 0 29.75 19.87
  L 31.22 38.09
  A 0.35 0.35 0.0 0 0 31.68 38.39
  L 34.38 37.58
  A 0.35 0.35 0.0 0 0 34.62 37.28
  L 36.36 19.40
  A 0.35 0.35 0.0 0 0 35.98 19.01
  L 30.07 19.49"
/>
<path stroke="#9f95b6" vector-effect="non-scaling-stroke" d="
  M 36.73 44.50
  A 3.71 3.71 0.0 0 0 33.02 40.79
  A 3.71 3.71 0.0 0 0 29.31 44.50
  A 3.71 3.71 0.0 0 0 33.02 48.21
  A 3.71 3.71 0.0 0 0 36.73 44.50"
/>
</g>
<path fill="#262659" d="
  M 33.81 88.00
  L 33.04 88.00
  C 21.72 77.71 12.19 65.75 5.68 51.55
  Q 2.14 43.84 1.58 34.90
  C 0.30 14.67 18.06 -1.28 38.33 1.70
  C 54.30 4.05 66.10 17.94 65.46 34.06
  C 64.63 54.62 48.40 74.68 33.81 88.00
  Z
  M 33.42 86.71
  Q 33.52 86.71 33.62 86.68
  Q 33.68 86.67 33.78 86.57
  C 47.26 73.55 61.77 56.13 64.03 37.25
  C 66.25 18.81 52.56 2.53 33.51 2.51
  C 14.46 2.49 0.74 18.74 2.91 37.18
  C 5.14 56.07 19.61 73.52 33.06 86.57
  Q 33.16 86.67 33.22 86.68
  Q 33.32 86.71 33.42 86.71
  Z"
/>
<path fill="#4e4aab" d="
  M 33.51 2.51
  C 52.56 2.53 66.25 18.81 64.03 37.25
  C 61.77 56.13 47.26 73.55 33.78 86.57
  Q 33.68 86.67 33.62 86.68
  Q 33.52 86.71 33.42 86.71
  Q 33.32 86.71 33.22 86.68
  Q 33.16 86.67 33.06 86.57
  C 19.61 73.52 5.14 56.07 2.91 37.18
  C 0.74 18.74 14.46 2.49 33.51 2.51
  Z
  M 30.07 19.49
  A 0.35 0.35 0.0 0 0 29.75 19.87
  L 31.22 38.09
  A 0.35 0.35 0.0 0 0 31.68 38.39
  L 34.38 37.58
  A 0.35 0.35 0.0 0 0 34.62 37.28
  L 36.36 19.40
  A 0.35 0.35 0.0 0 0 35.98 19.01
  L 30.07 19.49
  Z
  M 36.73 44.50
  A 3.71 3.71 0.0 0 0 33.02 40.79
  A 3.71 3.71 0.0 0 0 29.31 44.50
  A 3.71 3.71 0.0 0 0 33.02 48.21
  A 3.71 3.71 0.0 0 0 36.73 44.50
  Z"
/>
<path fill="#f0dfc1" d="
  M 30.07 19.49
  L 35.98 19.01
  A 0.35 0.35 0.0 0 1 36.36 19.40
  L 34.62 37.28
  A 0.35 0.35 0.0 0 1 34.38 37.58
  L 31.68 38.39
  A 0.35 0.35 0.0 0 1 31.22 38.09
  L 29.75 19.87
  A 0.35 0.35 0.0 0 1 30.07 19.49
  Z"
/>
<circle fill="#f0dfc1" cx="33.02" cy="44.50" r="3.71"/>
</svg>
