<?xml version="1.0" encoding="UTF-8" standalone="no"?>
<!DOCTYPE svg PUBLIC "-//W3C//DTD SVG 1.1//EN" "http://www.w3.org/Graphics/SVG/1.1/DTD/svg11.dtd">
<svg xmlns="http://www.w3.org/2000/svg" version="1.1" viewBox="0.00 0.00 66.00 88.00">
<g stroke-width="2.00" fill="none" stroke-linecap="butt">
<path stroke="#476099" vector-effect="non-scaling-stroke" d="
  M 33.40 86.72
  Q 33.53 86.72 33.62 86.69
  Q 33.66 86.68 33.77 86.57
  C 45.39 75.45 56.18 62.27 61.52 47.75
  C 66.35 34.63 65.24 21.16 55.03 11.21
  C 49.37 5.71 41.69 2.51 33.53 2.49
  C 25.36 2.48 17.67 5.66 12.00 11.15
  C 1.76 21.07 0.61 34.53 5.40 47.67
  C 10.70 62.20 21.45 75.41 33.04 86.57
  Q 33.15 86.68 33.19 86.69
  Q 33.28 86.72 33.40 86.72"
/>
<path stroke="#a8afc5" vector-effect="non-scaling-stroke" d="
  M 32.99 29.49
  Q 33.71 29.49 34.41 28.65
  Q 36.04 26.68 40.22 21.34
  C 41.93 19.15 41.51 17.77 39.67 16.21
  A 1.78 1.76 -21.5 0 0 38.70 15.79
  Q 38.40 15.76 32.99 15.76
  Q 27.58 15.76 27.28 15.79
  A 1.78 1.76 21.5 0 0 26.31 16.21
  C 24.47 17.77 24.05 19.15 25.76 21.34
  Q 29.93 26.68 31.57 28.65
  Q 32.26 29.49 32.99 29.49"
/>
<path stroke="#a8afc5" vector-effect="non-scaling-stroke" d="
  M 32.98 52.21
  C 47.20 52.21 52.11 34.87 41.30 26.41
  A 0.49 0.49 0.0 0 0 40.57 26.55
  L 39.16 28.98
  A 0.35 0.34 34.0 0 0 39.25 29.41
  C 47.37 35.63 43.54 48.69 32.98 48.69
  C 22.42 48.69 18.58 35.63 26.70 29.41
  A 0.35 0.34 -34.0 0 0 26.79 28.98
  L 25.38 26.55
  A 0.49 0.49 0.0 0 0 24.65 26.41
  C 13.84 34.87 18.76 52.21 32.98 52.21"
/>
</g>
<path fill="#2d416a" d="
  M 33.80 88.00
  L 33.04 88.00
  C 21.76 77.75 12.11 65.67 5.65 51.56
  Q 2.20 44.04 1.60 34.89
  C 0.55 18.86 11.32 5.55 26.73 2.05
  Q 36.74 -0.21 46.82 4.21
  Q 57.53 8.91 62.85 20.27
  C 66.64 28.35 65.97 38.65 63.05 47.02
  C 57.59 62.67 45.95 76.93 33.80 88.00
  Z
  M 33.40 86.72
  Q 33.53 86.72 33.62 86.69
  Q 33.66 86.68 33.77 86.57
  C 45.39 75.45 56.18 62.27 61.52 47.75
  C 66.35 34.63 65.24 21.16 55.03 11.21
  C 49.37 5.71 41.69 2.51 33.53 2.49
  C 25.36 2.48 17.67 5.66 12.00 11.15
  C 1.76 21.07 0.61 34.53 5.40 47.67
  C 10.70 62.20 21.45 75.41 33.04 86.57
  Q 33.15 86.68 33.19 86.69
  Q 33.28 86.72 33.40 86.72
  Z"
/>
<path fill="#607fc8" d="
  M 33.53 2.49
  C 41.69 2.51 49.37 5.71 55.03 11.21
  C 65.24 21.16 66.35 34.63 61.52 47.75
  C 56.18 62.27 45.39 75.45 33.77 86.57
  Q 33.66 86.68 33.62 86.69
  Q 33.53 86.72 33.40 86.72
  Q 33.28 86.72 33.19 86.69
  Q 33.15 86.68 33.04 86.57
  C 21.45 75.41 10.70 62.20 5.40 47.67
  C 0.61 34.53 1.76 21.07 12.00 11.15
  C 17.67 5.66 25.36 2.48 33.53 2.49
  Z
  M 32.99 29.49
  Q 33.71 29.49 34.41 28.65
  Q 36.04 26.68 40.22 21.34
  C 41.93 19.15 41.51 17.77 39.67 16.21
  A 1.78 1.76 -21.5 0 0 38.70 15.79
  Q 38.40 15.76 32.99 15.76
  Q 27.58 15.76 27.28 15.79
  A 1.78 1.76 21.5 0 0 26.31 16.21
  C 24.47 17.77 24.05 19.15 25.76 21.34
  Q 29.93 26.68 31.57 28.65
  Q 32.26 29.49 32.99 29.49
  Z
  M 32.98 52.21
  C 47.20 52.21 52.11 34.87 41.30 26.41
  A 0.49 0.49 0.0 0 0 40.57 26.55
  L 39.16 28.98
  A 0.35 0.34 34.0 0 0 39.25 29.41
  C 47.37 35.63 43.54 48.69 32.98 48.69
  C 22.42 48.69 18.58 35.63 26.70 29.41
  A 0.35 0.34 -34.0 0 0 26.79 28.98
  L 25.38 26.55
  A 0.49 0.49 0.0 0 0 24.65 26.41
  C 13.84 34.87 18.76 52.21 32.98 52.21
  Z"
/>
<path fill="#f0dfc1" d="
  M 32.99 15.76
  Q 38.40 15.76 38.70 15.79
  A 1.78 1.76 -21.5 0 1 39.67 16.21
  C 41.51 17.77 41.93 19.15 40.22 21.34
  Q 36.04 26.68 34.41 28.65
  Q 33.71 29.49 32.99 29.49
  Q 32.26 29.49 31.57 28.65
  Q 29.93 26.68 25.76 21.34
  C 24.05 19.15 24.47 17.77 26.31 16.21
  A 1.78 1.76 21.5 0 1 27.28 15.79
  Q 27.58 15.76 32.99 15.76
  Z"
/>
<path fill="#f0dfc1" d="
  M 32.98 48.69
  C 43.54 48.69 47.37 35.63 39.25 29.41
  A 0.35 0.34 34.0 0 1 39.16 28.98
  L 40.57 26.55
  A 0.49 0.49 0.0 0 1 41.30 26.41
  C 52.11 34.87 47.20 52.21 32.98 52.21
  C 18.76 52.21 13.84 34.87 24.65 26.41
  A 0.49 0.49 0.0 0 1 25.38 26.55
  L 26.79 28.98
  A 0.35 0.34 -34.0 0 1 26.70 29.41
  C 18.58 35.63 22.42 48.69 32.98 48.69
  Z"
/>
</svg>
