<?xml version="1.0" encoding="UTF-8" standalone="no"?>
<!DOCTYPE svg PUBLIC "-//W3C//DTD SVG 1.1//EN" "http://www.w3.org/Graphics/SVG/1.1/DTD/svg11.dtd">
<svg xmlns="http://www.w3.org/2000/svg" version="1.1" viewBox="0.00 0.00 66.00 88.00">
<g stroke-width="2.00" fill="none" stroke-linecap="butt">
<path stroke="#3a3882" vector-effect="non-scaling-stroke" d="
  M 33.42 86.70
  Q 33.53 86.70 33.62 86.68
  Q 33.65 86.67 33.77 86.56
  Q 47.61 73.57 56.49 58.51
  C 63.97 45.85 68.28 28.77 58.96 15.81
  C 52.99 7.51 43.97 2.52 33.51 2.51
  C 23.04 2.50 14.01 7.47 8.03 15.76
  C -1.32 28.70 2.96 45.79 10.41 58.46
  Q 19.26 73.54 33.07 86.56
  Q 33.19 86.67 33.22 86.68
  Q 33.31 86.70 33.42 86.70"
/>
<path stroke="#9f95b6" vector-effect="non-scaling-stroke" d="
  M 44.64 18.70
  L 39.26 16.03
  A 0.30 0.30 0.0 0 0 38.86 16.17
  L 38.76 16.37
  A 3.43 2.46 -63.6 0 0 39.44 20.54
  L 40.94 21.29
  A 3.43 2.46 -63.6 0 0 44.67 19.31
  L 44.77 19.10
  A 0.30 0.30 0.0 0 0 44.64 18.70"
/>
<path stroke="#9f95b6" vector-effect="non-scaling-stroke" d="
  M 32.40 25.46
  A 0.43 0.42 29.7 0 0 32.56 26.03
  L 34.06 26.90
  A 0.44 0.44 0.0 0 1 34.22 27.51
  L 33.06 29.52
  A 0.94 0.93 12.9 0 1 32.30 29.99
  C 23.07 30.44 17.02 40.28 23.18 48.09
  C 27.09 53.06 35.40 53.79 39.73 48.98
  C 44.54 43.62 43.69 36.79 38.17 32.29
  A 0.74 0.72 -55.7 0 1 38.00 31.35
  L 38.94 29.73
  A 0.57 0.56 29.7 0 1 39.72 29.52
  L 40.40 29.91
  A 0.74 0.73 -59.9 0 0 41.40 29.64
  L 43.23 26.47
  A 0.48 0.47 30.0 0 0 43.05 25.82
  L 35.41 21.41
  A 0.58 0.58 0.0 0 0 34.62 21.62
  L 32.40 25.46"
/>
<path stroke="#9f95b6" vector-effect="non-scaling-stroke" d="
  M 25.03 43.89
  L 38.97 39.63
  A 0.42 0.42 0.0 0 0 39.25 39.10
  L 39.22 38.99
  A 7.68 7.61 73.0 0 0 29.69 33.87
  L 29.50 33.93
  A 7.68 7.61 73.0 0 0 24.47 43.50
  L 24.51 43.61
  A 0.42 0.42 0.0 0 0 25.03 43.89"
/>
</g>
<path fill="#262659" d="
  M 33.80 88.00
  L 33.15 88.00
  Q 15.61 72.48 6.00 52.51
  Q 2.31 44.84 1.63 35.22
  Q 0.95 25.68 5.27 17.98
  C 18.13 -4.97 50.76 -4.01 62.55 19.62
  C 67.00 28.55 65.90 39.87 62.30 49.12
  C 56.58 63.85 45.44 77.44 33.80 88.00
  Z
  M 33.42 86.70
  Q 33.53 86.70 33.62 86.68
  Q 33.65 86.67 33.77 86.56
  Q 47.61 73.57 56.49 58.51
  C 63.97 45.85 68.28 28.77 58.96 15.81
  C 52.99 7.51 43.97 2.52 33.51 2.51
  C 23.04 2.50 14.01 7.47 8.03 15.76
  C -1.32 28.70 2.96 45.79 10.41 58.46
  Q 19.26 73.54 33.07 86.56
  Q 33.19 86.67 33.22 86.68
  Q 33.31 86.70 33.42 86.70
  Z"
/>
<path fill="#4e4aab" d="
  M 33.51 2.51
  C 43.97 2.52 52.99 7.51 58.96 15.81
  C 68.28 28.77 63.97 45.85 56.49 58.51
  Q 47.61 73.57 33.77 86.56
  Q 33.65 86.67 33.62 86.68
  Q 33.53 86.70 33.42 86.70
  Q 33.31 86.70 33.22 86.68
  Q 33.19 86.67 33.07 86.56
  Q 19.26 73.54 10.41 58.46
  C 2.96 45.79 -1.32 28.70 8.03 15.76
  C 14.01 7.47 23.04 2.50 33.51 2.51
  Z
  M 44.64 18.70
  L 39.26 16.03
  A 0.30 0.30 0.0 0 0 38.86 16.17
  L 38.76 16.37
  A 3.43 2.46 -63.6 0 0 39.44 20.54
  L 40.94 21.29
  A 3.43 2.46 -63.6 0 0 44.67 19.31
  L 44.77 19.10
  A 0.30 0.30 0.0 0 0 44.64 18.70
  Z
  M 32.40 25.46
  A 0.43 0.42 29.7 0 0 32.56 26.03
  L 34.06 26.90
  A 0.44 0.44 0.0 0 1 34.22 27.51
  L 33.06 29.52
  A 0.94 0.93 12.9 0 1 32.30 29.99
  C 23.07 30.44 17.02 40.28 23.18 48.09
  C 27.09 53.06 35.40 53.79 39.73 48.98
  C 44.54 43.62 43.69 36.79 38.17 32.29
  A 0.74 0.72 -55.7 0 1 38.00 31.35
  L 38.94 29.73
  A 0.57 0.56 29.7 0 1 39.72 29.52
  L 40.40 29.91
  A 0.74 0.73 -59.9 0 0 41.40 29.64
  L 43.23 26.47
  A 0.48 0.47 30.0 0 0 43.05 25.82
  L 35.41 21.41
  A 0.58 0.58 0.0 0 0 34.62 21.62
  L 32.40 25.46
  Z"
/>
<path fill="#f0dfc1" d="
  M 44.64 18.70
  A 0.30 0.30 0.0 0 1 44.77 19.10
  L 44.67 19.31
  A 3.43 2.46 -63.6 0 1 40.94 21.29
  L 39.44 20.54
  A 3.43 2.46 -63.6 0 1 38.76 16.37
  L 38.86 16.17
  A 0.30 0.30 0.0 0 1 39.26 16.03
  L 44.64 18.70
  Z"
/>
<path fill="#f0dfc1" d="
  M 35.41 21.41
  L 43.05 25.82
  A 0.48 0.47 30.0 0 1 43.23 26.47
  L 41.40 29.64
  A 0.74 0.73 -59.9 0 1 40.40 29.91
  L 39.72 29.52
  A 0.57 0.56 29.7 0 0 38.94 29.73
  L 38.00 31.35
  A 0.74 0.72 -55.7 0 0 38.17 32.29
  C 43.69 36.79 44.54 43.62 39.73 48.98
  C 35.40 53.79 27.09 53.06 23.18 48.09
  C 17.02 40.28 23.07 30.44 32.30 29.99
  A 0.94 0.93 12.9 0 0 33.06 29.52
  L 34.22 27.51
  A 0.44 0.44 0.0 0 0 34.06 26.90
  L 32.56 26.03
  A 0.43 0.42 29.7 0 1 32.40 25.46
  L 34.62 21.62
  A 0.58 0.58 0.0 0 1 35.41 21.41
  Z
  M 25.03 43.89
  L 38.97 39.63
  A 0.42 0.42 0.0 0 0 39.25 39.10
  L 39.22 38.99
  A 7.68 7.61 73.0 0 0 29.69 33.87
  L 29.50 33.93
  A 7.68 7.61 73.0 0 0 24.47 43.50
  L 24.51 43.61
  A 0.42 0.42 0.0 0 0 25.03 43.89
  Z"
/>
<path fill="#4e4aab" d="
  M 25.03 43.89
  A 0.42 0.42 0.0 0 1 24.51 43.61
  L 24.47 43.50
  A 7.68 7.61 73.0 0 1 29.50 33.93
  L 29.69 33.87
  A 7.68 7.61 73.0 0 1 39.22 38.99
  L 39.25 39.10
  A 0.42 0.42 0.0 0 1 38.97 39.63
  L 25.03 43.89
  Z"
/>
</svg>
