<?xml version="1.0" encoding="UTF-8" standalone="no"?>
<!DOCTYPE svg PUBLIC "-//W3C//DTD SVG 1.1//EN" "http://www.w3.org/Graphics/SVG/1.1/DTD/svg11.dtd">
<svg xmlns="http://www.w3.org/2000/svg" version="1.1" viewBox="0.00 0.00 66.00 88.00">
<g stroke-width="2.00" fill="none" stroke-linecap="butt">
<path stroke="#313930" vector-effect="non-scaling-stroke" d="
  M 33.42 86.59
  C 34.14 86.59 33.57 86.65 33.79 86.45
  C 46.98 74.26 61.45 56.18 63.84 38.29
  Q 66.62 17.38 48.60 6.45
  Q 42.14 2.53 33.51 2.52
  Q 24.89 2.51 18.42 6.42
  Q 0.38 17.31 3.11 38.22
  C 5.46 56.12 19.89 74.23 33.06 86.45
  C 33.28 86.65 32.71 86.59 33.42 86.59"
/>
<path stroke="#989580" vector-effect="non-scaling-stroke" d="
  M 37.09 39.27
  A 0.39 0.39 0.0 0 0 37.06 39.85
  L 49.08 51.87
  A 0.57 0.56 -44.6 0 0 49.87 51.87
  L 50.93 50.80
  A 0.45 0.45 0.0 0 0 50.93 50.16
  L 40.93 40.16
  A 0.67 0.67 0.0 0 1 40.86 39.30
  C 45.26 33.00 44.80 24.30 38.78 19.25
  C 33.08 14.47 25.25 14.56 19.69 19.42
  C 12.88 25.38 13.03 36.08 20.22 41.57
  Q 27.48 47.11 35.63 43.38
  A 0.64 0.63 55.1 0 0 35.81 42.35
  L 35.02 41.56
  A 1.38 1.37 57.9 0 0 33.60 41.23
  Q 26.90 43.58 22.02 39.66
  C 16.05 34.87 15.59 25.91 21.82 20.98
  C 26.35 17.40 32.99 17.48 37.20 21.31
  C 42.36 26.00 42.68 34.63 37.09 39.27"
/>
<path stroke="#989580" vector-effect="non-scaling-stroke" d="
  M 35.59 28.58
  Q 36.60 32.34 33.46 35.45
  A 0.65 0.65 0.0 0 0 33.45 36.36
  L 34.36 37.27
  A 0.78 0.78 0.0 0 0 35.49 37.24
  Q 39.48 32.74 38.18 27.89
  Q 36.88 23.03 31.17 21.14
  A 0.78 0.78 0.0 0 0 30.18 21.67
  L 29.85 22.92
  A 0.65 0.65 0.0 0 0 30.31 23.71
  Q 34.58 24.83 35.59 28.58"
/>
</g>
<path fill="#212820" d="
  M 33.78 88.00
  L 33.04 88.00
  C 21.72 77.72 12.19 65.75 5.68 51.55
  Q 2.13 43.81 1.57 34.89
  C 0.57 18.86 11.16 5.76 26.65 2.05
  C 37.39 -0.51 49.52 3.33 57.14 11.63
  Q 68.23 23.73 64.57 41.42
  C 60.94 58.94 46.81 76.21 33.78 88.00
  Z
  M 33.42 86.59
  C 34.14 86.59 33.57 86.65 33.79 86.45
  C 46.98 74.26 61.45 56.18 63.84 38.29
  Q 66.62 17.38 48.60 6.45
  Q 42.14 2.53 33.51 2.52
  Q 24.89 2.51 18.42 6.42
  Q 0.38 17.31 3.11 38.22
  C 5.46 56.12 19.89 74.23 33.06 86.45
  C 33.28 86.65 32.71 86.59 33.42 86.59
  Z"
/>
<path fill="#404a3f" d="
  M 33.51 2.52
  Q 42.14 2.53 48.60 6.45
  Q 66.62 17.38 63.84 38.29
  C 61.45 56.18 46.98 74.26 33.79 86.45
  C 33.57 86.65 34.14 86.59 33.42 86.59
  C 32.71 86.59 33.28 86.65 33.06 86.45
  C 19.89 74.23 5.46 56.12 3.11 38.22
  Q 0.38 17.31 18.42 6.42
  Q 24.89 2.51 33.51 2.52
  Z
  M 37.09 39.27
  A 0.39 0.39 0.0 0 0 37.06 39.85
  L 49.08 51.87
  A 0.57 0.56 -44.6 0 0 49.87 51.87
  L 50.93 50.80
  A 0.45 0.45 0.0 0 0 50.93 50.16
  L 40.93 40.16
  A 0.67 0.67 0.0 0 1 40.86 39.30
  C 45.26 33.00 44.80 24.30 38.78 19.25
  C 33.08 14.47 25.25 14.56 19.69 19.42
  C 12.88 25.38 13.03 36.08 20.22 41.57
  Q 27.48 47.11 35.63 43.38
  A 0.64 0.63 55.1 0 0 35.81 42.35
  L 35.02 41.56
  A 1.38 1.37 57.9 0 0 33.60 41.23
  Q 26.90 43.58 22.02 39.66
  C 16.05 34.87 15.59 25.91 21.82 20.98
  C 26.35 17.40 32.99 17.48 37.20 21.31
  C 42.36 26.00 42.68 34.63 37.09 39.27
  Z
  M 35.59 28.58
  Q 36.60 32.34 33.46 35.45
  A 0.65 0.65 0.0 0 0 33.45 36.36
  L 34.36 37.27
  A 0.78 0.78 0.0 0 0 35.49 37.24
  Q 39.48 32.74 38.18 27.89
  Q 36.88 23.03 31.17 21.14
  A 0.78 0.78 0.0 0 0 30.18 21.67
  L 29.85 22.92
  A 0.65 0.65 0.0 0 0 30.31 23.71
  Q 34.58 24.83 35.59 28.58
  Z"
/>
<path fill="#f0dfc1" d="
  M 37.09 39.27
  C 42.68 34.63 42.36 26.00 37.20 21.31
  C 32.99 17.48 26.35 17.40 21.82 20.98
  C 15.59 25.91 16.05 34.87 22.02 39.66
  Q 26.90 43.58 33.60 41.23
  A 1.38 1.37 57.9 0 1 35.02 41.56
  L 35.81 42.35
  A 0.64 0.63 55.1 0 1 35.63 43.38
  Q 27.48 47.11 20.22 41.57
  C 13.03 36.08 12.88 25.38 19.69 19.42
  C 25.25 14.56 33.08 14.47 38.78 19.25
  C 44.80 24.30 45.26 33.00 40.86 39.30
  A 0.67 0.67 0.0 0 0 40.93 40.16
  L 50.93 50.16
  A 0.45 0.45 0.0 0 1 50.93 50.80
  L 49.87 51.87
  A 0.57 0.56 -44.6 0 1 49.08 51.87
  L 37.06 39.85
  A 0.39 0.39 0.0 0 1 37.09 39.27
  Z"
/>
<path fill="#f0dfc1" d="
  M 38.18 27.89
  Q 39.48 32.74 35.49 37.24
  A 0.78 0.78 0.0 0 1 34.36 37.27
  L 33.45 36.36
  A 0.65 0.65 0.0 0 1 33.46 35.45
  Q 36.60 32.34 35.59 28.58
  Q 34.58 24.83 30.31 23.71
  A 0.65 0.65 0.0 0 1 29.85 22.92
  L 30.18 21.67
  A 0.78 0.78 0.0 0 1 31.17 21.14
  Q 36.88 23.03 38.18 27.89
  Z"
/>
</svg>
