<?xml version="1.0" encoding="UTF-8" standalone="no"?>
<!DOCTYPE svg PUBLIC "-//W3C//DTD SVG 1.1//EN" "http://www.w3.org/Graphics/SVG/1.1/DTD/svg11.dtd">
<svg xmlns="http://www.w3.org/2000/svg" version="1.1" viewBox="0.00 0.00 66.00 88.00">
<g stroke-width="2.00" fill="none" stroke-linecap="butt">
<path stroke="#97701e" vector-effect="non-scaling-stroke" d="
  M 33.40 86.69
  Q 33.54 86.69 33.68 86.66
  A 0.13 0.08 3.9 0 0 33.73 86.63
  Q 47.46 73.82 56.67 58.17
  C 65.25 43.59 68.48 25.23 55.93 12.09
  C 50.15 6.04 42.12 2.47 33.56 2.46
  C 25.00 2.44 16.95 5.98 11.15 12.00
  C -1.45 25.09 1.71 43.47 10.23 58.08
  Q 19.38 73.77 33.06 86.63
  A 0.13 0.08 -3.6 0 0 33.12 86.66
  Q 33.26 86.69 33.40 86.69"
/>
<path stroke="#dcba75" vector-effect="non-scaling-stroke" d="
  M 38.13 29.04
  A 0.31 0.31 0.0 0 1 37.95 28.86
  L 33.28 16.44
  A 0.31 0.31 0.0 0 0 32.70 16.44
  L 28.03 28.86
  A 0.31 0.31 0.0 0 1 27.85 29.04
  L 15.43 33.71
  A 0.31 0.31 0.0 0 0 15.43 34.29
  L 27.85 38.96
  A 0.31 0.31 0.0 0 1 28.03 39.14
  L 32.70 51.56
  A 0.31 0.31 0.0 0 0 33.28 51.56
  L 37.95 39.14
  A 0.31 0.31 0.0 0 1 38.13 38.96
  L 50.55 34.29
  A 0.31 0.31 0.0 0 0 50.55 33.71
  L 38.13 29.04"
/>
<path stroke="#dcba75" vector-effect="non-scaling-stroke" d="
  M 35.58 31.60
  A 0.31 0.31 0.0 0 1 35.40 31.42
  L 33.29 25.86
  A 0.31 0.31 0.0 0 0 32.71 25.86
  L 30.60 31.42
  A 0.31 0.31 0.0 0 1 30.42 31.60
  L 24.86 33.71
  A 0.31 0.31 0.0 0 0 24.86 34.29
  L 30.42 36.40
  A 0.31 0.31 0.0 0 1 30.60 36.58
  L 32.71 42.14
  A 0.31 0.31 0.0 0 0 33.29 42.14
  L 35.40 36.58
  A 0.31 0.31 0.0 0 1 35.58 36.40
  L 41.14 34.29
  A 0.31 0.31 0.0 0 0 41.14 33.71
  L 35.58 31.60"
/>
</g>
<path fill="#664a13" d="
  M 33.81 88.00
  L 33.04 88.00
  C 22.21 78.22 11.93 65.54 5.75 51.76
  Q 2.15 43.72 1.56 34.97
  C 0.19 14.51 18.41 -1.49 38.77 1.77
  C 48.75 3.36 57.42 9.66 62.04 18.58
  C 74.57 42.79 50.54 72.75 33.81 88.00
  Z
  M 33.40 86.69
  Q 33.54 86.69 33.68 86.66
  A 0.13 0.08 3.9 0 0 33.73 86.63
  Q 47.46 73.82 56.67 58.17
  C 65.25 43.59 68.48 25.23 55.93 12.09
  C 50.15 6.04 42.12 2.47 33.56 2.46
  C 25.00 2.44 16.95 5.98 11.15 12.00
  C -1.45 25.09 1.71 43.47 10.23 58.08
  Q 19.38 73.77 33.06 86.63
  A 0.13 0.08 -3.6 0 0 33.12 86.66
  Q 33.26 86.69 33.40 86.69
  Z"
/>
<path fill="#c79528" d="
  M 33.56 2.46
  C 42.12 2.47 50.15 6.04 55.93 12.09
  C 68.48 25.23 65.25 43.59 56.67 58.17
  Q 47.46 73.82 33.73 86.63
  A 0.13 0.08 3.9 0 1 33.68 86.66
  Q 33.54 86.69 33.40 86.69
  Q 33.26 86.69 33.12 86.66
  A 0.13 0.08 -3.6 0 1 33.06 86.63
  Q 19.38 73.77 10.23 58.08
  C 1.71 43.47 -1.45 25.09 11.15 12.00
  C 16.95 5.98 25.00 2.44 33.56 2.46
  Z
  M 38.13 29.04
  A 0.31 0.31 0.0 0 1 37.95 28.86
  L 33.28 16.44
  A 0.31 0.31 0.0 0 0 32.70 16.44
  L 28.03 28.86
  A 0.31 0.31 0.0 0 1 27.85 29.04
  L 15.43 33.71
  A 0.31 0.31 0.0 0 0 15.43 34.29
  L 27.85 38.96
  A 0.31 0.31 0.0 0 1 28.03 39.14
  L 32.70 51.56
  A 0.31 0.31 0.0 0 0 33.28 51.56
  L 37.95 39.14
  A 0.31 0.31 0.0 0 1 38.13 38.96
  L 50.55 34.29
  A 0.31 0.31 0.0 0 0 50.55 33.71
  L 38.13 29.04
  Z"
/>
<path fill="#f0dfc1" d="
  M 38.13 29.04
  L 50.55 33.71
  A 0.31 0.31 0.0 0 1 50.55 34.29
  L 38.13 38.96
  A 0.31 0.31 0.0 0 0 37.95 39.14
  L 33.28 51.56
  A 0.31 0.31 0.0 0 1 32.70 51.56
  L 28.03 39.14
  A 0.31 0.31 0.0 0 0 27.85 38.96
  L 15.43 34.29
  A 0.31 0.31 0.0 0 1 15.43 33.71
  L 27.85 29.04
  A 0.31 0.31 0.0 0 0 28.03 28.86
  L 32.70 16.44
  A 0.31 0.31 0.0 0 1 33.28 16.44
  L 37.95 28.86
  A 0.31 0.31 0.0 0 0 38.13 29.04
  Z
  M 35.58 31.60
  A 0.31 0.31 0.0 0 1 35.40 31.42
  L 33.29 25.86
  A 0.31 0.31 0.0 0 0 32.71 25.86
  L 30.60 31.42
  A 0.31 0.31 0.0 0 1 30.42 31.60
  L 24.86 33.71
  A 0.31 0.31 0.0 0 0 24.86 34.29
  L 30.42 36.40
  A 0.31 0.31 0.0 0 1 30.60 36.58
  L 32.71 42.14
  A 0.31 0.31 0.0 0 0 33.29 42.14
  L 35.40 36.58
  A 0.31 0.31 0.0 0 1 35.58 36.40
  L 41.14 34.29
  A 0.31 0.31 0.0 0 0 41.14 33.71
  L 35.58 31.60
  Z"
/>
<path fill="#c79528" d="
  M 35.58 31.60
  L 41.14 33.71
  A 0.31 0.31 0.0 0 1 41.14 34.29
  L 35.58 36.40
  A 0.31 0.31 0.0 0 0 35.40 36.58
  L 33.29 42.14
  A 0.31 0.31 0.0 0 1 32.71 42.14
  L 30.60 36.58
  A 0.31 0.31 0.0 0 0 30.42 36.40
  L 24.86 34.29
  A 0.31 0.31 0.0 0 1 24.86 33.71
  L 30.42 31.60
  A 0.31 0.31 0.0 0 0 30.60 31.42
  L 32.71 25.86
  A 0.31 0.31 0.0 0 1 33.29 25.86
  L 35.40 31.42
  A 0.31 0.31 0.0 0 0 35.58 31.60
  Z"
/>
</svg>
