<?xml version="1.0" encoding="UTF-8" standalone="no"?>
<!DOCTYPE svg PUBLIC "-//W3C//DTD SVG 1.1//EN" "http://www.w3.org/Graphics/SVG/1.1/DTD/svg11.dtd">
<svg xmlns="http://www.w3.org/2000/svg" version="1.1" viewBox="0.00 0.00 66.00 88.00">
<g stroke-width="2.00" fill="none" stroke-linecap="butt">
<path stroke="#602e09" vector-effect="non-scaling-stroke" d="
  M 33.43 86.67
  Q 33.52 86.67 33.60 86.66
  Q 33.64 86.65 33.73 86.57
  C 44.22 76.74 53.80 65.00 59.85 51.80
  C 66.00 38.39 66.61 22.91 55.67 11.85
  Q 47.09 3.17 34.75 2.52
  Q 33.85 2.47 33.52 2.47
  Q 33.19 2.47 32.29 2.52
  Q 19.95 3.14 11.35 11.80
  C 0.39 22.84 0.97 38.32 7.09 51.74
  C 13.11 64.96 22.67 76.72 33.13 86.57
  Q 33.22 86.65 33.26 86.66
  Q 33.34 86.67 33.43 86.67"
/>
<path stroke="#b78e67" vector-effect="non-scaling-stroke" d="
  M 28.76 18.16
  Q 26.35 19.18 25.90 21.07
  C 24.38 27.45 34.46 23.20 35.24 27.70
  C 36.18 33.15 25.57 36.24 28.50 40.13
  A 2.49 2.48 -23.7 0 0 30.92 41.07
  L 34.27 40.45
  A 0.54 0.54 0.0 0 0 34.36 39.41
  Q 31.42 38.34 33.57 36.02
  Q 35.39 34.04 38.27 31.56
  A 3.14 3.09 -6.7 0 0 39.01 30.64
  C 41.26 26.45 39.69 22.16 34.93 21.49
  Q 31.11 20.96 30.94 20.97
  A 1.73 1.73 0.0 0 1 29.09 19.13
  L 29.14 18.42
  A 0.28 0.27 -9.7 0 0 28.76 18.16"
/>
<path stroke="#b78e67" vector-effect="non-scaling-stroke" d="
  M 34.76 46.88
  A 3.65 3.65 0.0 0 0 31.11 43.23
  A 3.65 3.65 0.0 0 0 27.46 46.88
  A 3.65 3.65 0.0 0 0 31.11 50.53
  A 3.65 3.65 0.0 0 0 34.76 46.88"
/>
</g>
<path fill="#421e05" d="
  M 33.81 88.00
  L 33.04 88.00
  C 22.18 78.19 12.04 65.64 5.74 51.77
  C 1.06 41.47 -0.50 28.48 5.15 18.22
  C 17.80 -4.74 50.78 -4.34 62.57 19.69
  C 66.94 28.59 65.92 39.75 62.40 48.88
  C 56.69 63.72 45.50 77.36 33.81 88.00
  Z
  M 33.43 86.67
  Q 33.52 86.67 33.60 86.66
  Q 33.64 86.65 33.73 86.57
  C 44.22 76.74 53.80 65.00 59.85 51.80
  C 66.00 38.39 66.61 22.91 55.67 11.85
  Q 47.09 3.17 34.75 2.52
  Q 33.85 2.47 33.52 2.47
  Q 33.19 2.47 32.29 2.52
  Q 19.95 3.14 11.35 11.80
  C 0.39 22.84 0.97 38.32 7.09 51.74
  C 13.11 64.96 22.67 76.72 33.13 86.57
  Q 33.22 86.65 33.26 86.66
  Q 33.34 86.67 33.43 86.67
  Z"
/>
<path fill="#7e3d0c" d="
  M 33.52 2.47
  Q 33.85 2.47 34.75 2.52
  Q 47.09 3.17 55.67 11.85
  C 66.61 22.91 66.00 38.39 59.85 51.80
  C 53.80 65.00 44.22 76.74 33.73 86.57
  Q 33.64 86.65 33.60 86.66
  Q 33.52 86.67 33.43 86.67
  Q 33.34 86.67 33.26 86.66
  Q 33.22 86.65 33.13 86.57
  C 22.67 76.72 13.11 64.96 7.09 51.74
  C 0.97 38.32 0.39 22.84 11.35 11.80
  Q 19.95 3.14 32.29 2.52
  Q 33.19 2.47 33.52 2.47
  Z
  M 28.76 18.16
  Q 26.35 19.18 25.90 21.07
  C 24.38 27.45 34.46 23.20 35.24 27.70
  C 36.18 33.15 25.57 36.24 28.50 40.13
  A 2.49 2.48 -23.7 0 0 30.92 41.07
  L 34.27 40.45
  A 0.54 0.54 0.0 0 0 34.36 39.41
  Q 31.42 38.34 33.57 36.02
  Q 35.39 34.04 38.27 31.56
  A 3.14 3.09 -6.7 0 0 39.01 30.64
  C 41.26 26.45 39.69 22.16 34.93 21.49
  Q 31.11 20.96 30.94 20.97
  A 1.73 1.73 0.0 0 1 29.09 19.13
  L 29.14 18.42
  A 0.28 0.27 -9.7 0 0 28.76 18.16
  Z
  M 34.76 46.88
  A 3.65 3.65 0.0 0 0 31.11 43.23
  A 3.65 3.65 0.0 0 0 27.46 46.88
  A 3.65 3.65 0.0 0 0 31.11 50.53
  A 3.65 3.65 0.0 0 0 34.76 46.88
  Z"
/>
<path fill="#f0dfc1" d="
  M 29.14 18.42
  L 29.09 19.13
  A 1.73 1.73 0.0 0 0 30.94 20.97
  Q 31.11 20.96 34.93 21.49
  C 39.69 22.16 41.26 26.45 39.01 30.64
  A 3.14 3.09 -6.7 0 1 38.27 31.56
  Q 35.39 34.04 33.57 36.02
  Q 31.42 38.34 34.36 39.41
  A 0.54 0.54 0.0 0 1 34.27 40.45
  L 30.92 41.07
  A 2.49 2.48 -23.7 0 1 28.50 40.13
  C 25.57 36.24 36.18 33.15 35.24 27.70
  C 34.46 23.20 24.38 27.45 25.90 21.07
  Q 26.35 19.18 28.76 18.16
  A 0.28 0.27 -9.7 0 1 29.14 18.42
  Z"
/>
<circle fill="#f0dfc1" cx="31.11" cy="46.88" r="3.65"/>
</svg>
