<?xml version="1.0" encoding="UTF-8" standalone="no"?>
<!DOCTYPE svg PUBLIC "-//W3C//DTD SVG 1.1//EN" "http://www.w3.org/Graphics/SVG/1.1/DTD/svg11.dtd">
<svg xmlns="http://www.w3.org/2000/svg" version="1.1" viewBox="0.00 0.00 66.00 88.00">
<g stroke-width="2.00" fill="none" stroke-linecap="butt">
<path stroke="#476099" vector-effect="non-scaling-stroke" d="
  M 33.40 86.72
  Q 33.51 86.72 33.61 86.69
  Q 33.70 86.67 33.79 86.59
  C 50.53 70.99 75.72 38.70 58.74 15.50
  C 52.82 7.41 43.82 2.51 33.54 2.49
  C 23.27 2.47 14.25 7.34 8.30 15.42
  C -8.76 38.55 16.32 70.93 33.00 86.59
  Q 33.09 86.67 33.18 86.69
  Q 33.29 86.72 33.40 86.72"
/>
<path stroke="#a8afc5" vector-effect="non-scaling-stroke" d="
  M 40.29 23.01
  Q 40.92 23.38 40.25 25.01
  Q 39.54 26.70 33.88 36.24
  A 2.03 2.01 53.3 0 0 33.66 37.80
  L 34.12 39.58
  A 0.40 0.40 0.0 0 0 34.86 39.68
  L 42.48 26.48
  A 1.42 1.17 -29.9 0 0 42.62 26.11
  Q 43.61 21.13 44.38 16.26
  A 0.13 0.01 35.4 0 0 44.28 16.18
  Q 44.26 16.17 44.24 16.15
  Q 44.22 16.14 44.20 16.13
  A 0.13 0.01 24.5 0 0 44.08 16.09
  Q 40.25 19.19 36.44 22.54
  A 1.42 1.17 89.8 0 0 36.19 22.85
  L 28.58 36.06
  A 0.40 0.40 0.0 0 0 29.04 36.65
  L 30.81 36.15
  A 2.03 2.01 6.6 0 0 32.05 35.18
  Q 37.47 25.51 38.58 24.05
  Q 39.65 22.65 40.29 23.01"
/>
<path stroke="#a8afc5" vector-effect="non-scaling-stroke" d="
  M 23.58 51.94
  C 26.37 53.55 28.61 50.51 27.54 47.90
  A 0.78 0.77 -41.3 0 1 27.59 47.22
  L 29.41 44.06
  A 1.45 1.44 -59.8 0 1 31.39 43.53
  L 35.34 45.81
  A 1.32 1.31 52.5 0 0 36.31 45.94
  L 39.05 45.22
  A 0.95 0.95 0.0 0 0 39.73 44.05
  L 39.63 43.65
  A 1.03 1.03 0.0 0 0 38.21 42.98
  Q 35.78 44.07 32.65 41.30
  A 1.87 1.84 -77.7 0 1 32.09 40.41
  Q 31.83 39.52 31.55 38.56
  C 31.54 38.50 31.46 38.43 31.40 38.40
  C 31.34 38.36 31.24 38.33 31.18 38.34
  Q 30.21 38.58 29.31 38.80
  A 1.87 1.84 -42.3 0 1 28.26 38.76
  Q 24.29 37.44 24.02 34.79
  A 1.03 1.03 0.0 0 0 22.73 33.90
  L 22.34 34.01
  A 0.95 0.95 0.0 0 0 21.66 35.18
  L 22.41 37.92
  A 1.32 1.31 7.5 0 0 23.01 38.69
  L 26.96 40.97
  A 1.45 1.44 -60.2 0 1 27.49 42.95
  L 25.66 46.11
  A 0.78 0.77 -78.8 0 1 25.10 46.49
  C 22.30 46.88 20.79 50.33 23.58 51.94"
/>
<path stroke="#a8afc5" vector-effect="non-scaling-stroke" d="
  M 26.30 49.37
  A 1.25 1.25 0.0 0 0 25.05 48.12
  A 1.25 1.25 0.0 0 0 23.80 49.37
  A 1.25 1.25 0.0 0 0 25.05 50.62
  A 1.25 1.25 0.0 0 0 26.30 49.37"
/>
</g>
<path fill="#2d416a" d="
  M 33.81 88.00
  L 33.15 88.00
  Q 15.62 72.49 6.00 52.51
  Q 2.27 44.76 1.62 35.11
  Q 0.97 25.50 5.38 17.78
  C 18.29 -4.80 51.02 -4.08 62.55 19.65
  C 66.92 28.64 65.97 39.76 62.40 48.84
  C 56.52 63.84 45.62 77.22 33.81 88.00
  Z
  M 33.40 86.72
  Q 33.51 86.72 33.61 86.69
  Q 33.70 86.67 33.79 86.59
  C 50.53 70.99 75.72 38.70 58.74 15.50
  C 52.82 7.41 43.82 2.51 33.54 2.49
  C 23.27 2.47 14.25 7.34 8.30 15.42
  C -8.76 38.55 16.32 70.93 33.00 86.59
  Q 33.09 86.67 33.18 86.69
  Q 33.29 86.72 33.40 86.72
  Z"
/>
<path fill="#607fc8" d="
  M 33.54 2.49
  C 43.82 2.51 52.82 7.41 58.74 15.50
  C 75.72 38.70 50.53 70.99 33.79 86.59
  Q 33.70 86.67 33.61 86.69
  Q 33.51 86.72 33.40 86.72
  Q 33.29 86.72 33.18 86.69
  Q 33.09 86.67 33.00 86.59
  C 16.32 70.93 -8.76 38.55 8.30 15.42
  C 14.25 7.34 23.27 2.47 33.54 2.49
  Z
  M 40.29 23.01
  Q 40.92 23.38 40.25 25.01
  Q 39.54 26.70 33.88 36.24
  A 2.03 2.01 53.3 0 0 33.66 37.80
  L 34.12 39.58
  A 0.40 0.40 0.0 0 0 34.86 39.68
  L 42.48 26.48
  A 1.42 1.17 -29.9 0 0 42.62 26.11
  Q 43.61 21.13 44.38 16.26
  A 0.13 0.01 35.4 0 0 44.28 16.18
  Q 44.26 16.17 44.24 16.15
  Q 44.22 16.14 44.20 16.13
  A 0.13 0.01 24.5 0 0 44.08 16.09
  Q 40.25 19.19 36.44 22.54
  A 1.42 1.17 89.8 0 0 36.19 22.85
  L 28.58 36.06
  A 0.40 0.40 0.0 0 0 29.04 36.65
  L 30.81 36.15
  A 2.03 2.01 6.6 0 0 32.05 35.18
  Q 37.47 25.51 38.58 24.05
  Q 39.65 22.65 40.29 23.01
  Z
  M 23.58 51.94
  C 26.37 53.55 28.61 50.51 27.54 47.90
  A 0.78 0.77 -41.3 0 1 27.59 47.22
  L 29.41 44.06
  A 1.45 1.44 -59.8 0 1 31.39 43.53
  L 35.34 45.81
  A 1.32 1.31 52.5 0 0 36.31 45.94
  L 39.05 45.22
  A 0.95 0.95 0.0 0 0 39.73 44.05
  L 39.63 43.65
  A 1.03 1.03 0.0 0 0 38.21 42.98
  Q 35.78 44.07 32.65 41.30
  A 1.87 1.84 -77.7 0 1 32.09 40.41
  Q 31.83 39.52 31.55 38.56
  C 31.54 38.50 31.46 38.43 31.40 38.40
  C 31.34 38.36 31.24 38.33 31.18 38.34
  Q 30.21 38.58 29.31 38.80
  A 1.87 1.84 -42.3 0 1 28.26 38.76
  Q 24.29 37.44 24.02 34.79
  A 1.03 1.03 0.0 0 0 22.73 33.90
  L 22.34 34.01
  A 0.95 0.95 0.0 0 0 21.66 35.18
  L 22.41 37.92
  A 1.32 1.31 7.5 0 0 23.01 38.69
  L 26.96 40.97
  A 1.45 1.44 -60.2 0 1 27.49 42.95
  L 25.66 46.11
  A 0.78 0.77 -78.8 0 1 25.10 46.49
  C 22.30 46.88 20.79 50.33 23.58 51.94
  Z"
/>
<path fill="#f0dfc1" d="
  M 44.24 16.15
  Q 44.26 16.17 44.28 16.18
  A 0.13 0.01 35.4 0 1 44.38 16.26
  Q 43.61 21.13 42.62 26.11
  A 1.42 1.17 -29.9 0 1 42.48 26.48
  L 34.86 39.68
  A 0.40 0.40 0.0 0 1 34.12 39.58
  L 33.66 37.80
  A 2.03 2.01 53.3 0 1 33.88 36.24
  Q 39.54 26.70 40.25 25.01
  Q 40.92 23.38 40.29 23.01
  Q 39.65 22.65 38.58 24.05
  Q 37.47 25.51 32.05 35.18
  A 2.03 2.01 6.6 0 1 30.81 36.15
  L 29.04 36.65
  A 0.40 0.40 0.0 0 1 28.58 36.06
  L 36.19 22.85
  A 1.42 1.17 89.8 0 1 36.44 22.54
  Q 40.25 19.19 44.08 16.09
  A 0.13 0.01 24.5 0 1 44.20 16.13
  Q 44.22 16.14 44.24 16.15
  Z"
/>
<path fill="#f0dfc1" d="
  M 31.40 38.40
  C 31.46 38.43 31.54 38.50 31.55 38.56
  Q 31.83 39.52 32.09 40.41
  A 1.87 1.84 -77.7 0 0 32.65 41.30
  Q 35.78 44.07 38.21 42.98
  A 1.03 1.03 0.0 0 1 39.63 43.65
  L 39.73 44.05
  A 0.95 0.95 0.0 0 1 39.05 45.22
  L 36.31 45.94
  A 1.32 1.31 52.5 0 1 35.34 45.81
  L 31.39 43.53
  A 1.45 1.44 -59.8 0 0 29.41 44.06
  L 27.59 47.22
  A 0.78 0.77 -41.3 0 0 27.54 47.90
  C 28.61 50.51 26.37 53.55 23.58 51.94
  C 20.79 50.33 22.30 46.88 25.10 46.49
  A 0.78 0.77 -78.8 0 0 25.66 46.11
  L 27.49 42.95
  A 1.45 1.44 -60.2 0 0 26.96 40.97
  L 23.01 38.69
  A 1.32 1.31 7.5 0 1 22.41 37.92
  L 21.66 35.18
  A 0.95 0.95 0.0 0 1 22.34 34.01
  L 22.73 33.90
  A 1.03 1.03 0.0 0 1 24.02 34.79
  Q 24.29 37.44 28.26 38.76
  A 1.87 1.84 -42.3 0 0 29.31 38.80
  Q 30.21 38.58 31.18 38.34
  C 31.24 38.33 31.34 38.36 31.40 38.40
  Z
  M 26.30 49.37
  A 1.25 1.25 0.0 0 0 25.05 48.12
  A 1.25 1.25 0.0 0 0 23.80 49.37
  A 1.25 1.25 0.0 0 0 25.05 50.62
  A 1.25 1.25 0.0 0 0 26.30 49.37
  Z"
/>
<circle fill="#607fc8" cx="25.05" cy="49.37" r="1.25"/>
</svg>
