<?xml version="1.0" encoding="UTF-8" standalone="no"?>
<!DOCTYPE svg PUBLIC "-//W3C//DTD SVG 1.1//EN" "http://www.w3.org/Graphics/SVG/1.1/DTD/svg11.dtd">
<svg xmlns="http://www.w3.org/2000/svg" version="1.1" viewBox="0.00 0.00 66.00 88.00">
<g stroke-width="2.00" fill="none" stroke-linecap="butt">
<path stroke="#33652a" vector-effect="non-scaling-stroke" d="
  M 33.40 86.69
  Q 33.54 86.69 33.67 86.65
  A 0.08 0.07 -67.2 0 0 33.72 86.63
  Q 46.77 74.38 55.75 59.78
  C 64.82 45.01 68.98 26.08 56.17 12.36
  Q 47.70 3.30 35.01 2.52
  Q 34.15 2.47 33.53 2.46
  Q 32.92 2.46 32.06 2.51
  Q 19.37 3.26 10.87 12.29
  C -1.99 25.97 2.11 44.91 11.14 59.71
  Q 20.07 74.34 33.08 86.63
  A 0.08 0.07 67.4 0 0 33.13 86.65
  Q 33.26 86.68 33.40 86.69"
/>
<path stroke="#9ab27d" vector-effect="non-scaling-stroke" d="
  M 51.23 34.05
  A 18.26 18.26 0.0 0 0 32.97 15.79
  A 18.26 18.26 0.0 0 0 14.71 34.05
  A 18.26 18.26 0.0 0 0 32.97 52.31
  A 18.26 18.26 0.0 0 0 51.23 34.05"
/>
<path stroke="#9ab27d" vector-effect="non-scaling-stroke" d="
  M 38.4074 26.3789
  A 5.03 5.03 0.0 0 0 33.3950 21.3314
  L 32.6150 21.3287
  A 5.03 5.03 0.0 0 0 27.5675 26.3411
  L 27.5526 30.6211
  A 5.03 5.03 0.0 0 0 32.5650 35.6686
  L 33.3450 35.6713
  A 5.03 5.03 0.0 0 0 38.3925 30.6589
  L 38.4074 26.3789"
/>
<path stroke="#9ab27d" vector-effect="non-scaling-stroke" d="
  M 32.95 48.71
  Q 39.41 48.72 44.60 43.30
  A 0.85 0.85 0.0 0 0 44.39 41.97
  C 41.15 40.18 36.07 39.54 32.95 39.54
  C 29.84 39.54 24.76 40.17 21.51 41.96
  A 0.85 0.85 0.0 0 0 21.31 43.28
  Q 26.48 48.71 32.95 48.71"
/>
</g>
<path fill="#21451b" d="
  M 33.80 88.00
  L 33.04 88.00
  C 21.79 77.78 12.04 65.61 5.64 51.56
  Q 2.18 43.94 1.59 34.88
  C 0.82 22.82 6.92 11.62 17.26 5.68
  C 38.57 -6.54 65.92 8.38 65.45 33.46
  C 65.06 54.13 48.39 74.74 33.80 88.00
  Z
  M 33.40 86.69
  Q 33.54 86.69 33.67 86.65
  A 0.08 0.07 -67.2 0 0 33.72 86.63
  Q 46.77 74.38 55.75 59.78
  C 64.82 45.01 68.98 26.08 56.17 12.36
  Q 47.70 3.30 35.01 2.52
  Q 34.15 2.47 33.53 2.46
  Q 32.92 2.46 32.06 2.51
  Q 19.37 3.26 10.87 12.29
  C -1.99 25.97 2.11 44.91 11.14 59.71
  Q 20.07 74.34 33.08 86.63
  A 0.08 0.07 67.4 0 0 33.13 86.65
  Q 33.26 86.68 33.40 86.69
  Z"
/>
<path fill="#448538" d="
  M 33.53 2.46
  Q 34.15 2.47 35.01 2.52
  Q 47.70 3.30 56.17 12.36
  C 68.98 26.08 64.82 45.01 55.75 59.78
  Q 46.77 74.38 33.72 86.63
  A 0.08 0.07 -67.2 0 1 33.67 86.65
  Q 33.54 86.69 33.40 86.69
  Q 33.26 86.68 33.13 86.65
  A 0.08 0.07 67.4 0 1 33.08 86.63
  Q 20.07 74.34 11.14 59.71
  C 2.11 44.91 -1.99 25.97 10.87 12.29
  Q 19.37 3.26 32.06 2.51
  Q 32.92 2.46 33.53 2.46
  Z
  M 51.23 34.05
  A 18.26 18.26 0.0 0 0 32.97 15.79
  A 18.26 18.26 0.0 0 0 14.71 34.05
  A 18.26 18.26 0.0 0 0 32.97 52.31
  A 18.26 18.26 0.0 0 0 51.23 34.05
  Z"
/>
<path fill="#f0dfc1" d="
  M 51.23 34.05
  A 18.26 18.26 0.0 0 1 32.97 52.31
  A 18.26 18.26 0.0 0 1 14.71 34.05
  A 18.26 18.26 0.0 0 1 32.97 15.79
  A 18.26 18.26 0.0 0 1 51.23 34.05
  Z
  M 38.4074 26.3789
  A 5.03 5.03 0.0 0 0 33.3950 21.3314
  L 32.6150 21.3287
  A 5.03 5.03 0.0 0 0 27.5675 26.3411
  L 27.5526 30.6211
  A 5.03 5.03 0.0 0 0 32.5650 35.6686
  L 33.3450 35.6713
  A 5.03 5.03 0.0 0 0 38.3925 30.6589
  L 38.4074 26.3789
  Z
  M 32.95 48.71
  Q 39.41 48.72 44.60 43.30
  A 0.85 0.85 0.0 0 0 44.39 41.97
  C 41.15 40.18 36.07 39.54 32.95 39.54
  C 29.84 39.54 24.76 40.17 21.51 41.96
  A 0.85 0.85 0.0 0 0 21.31 43.28
  Q 26.48 48.71 32.95 48.71
  Z"
/>
<rect fill="#448538" x="-5.42" y="-7.17" transform="translate(32.98,28.50) rotate(0.2)" width="10.84" height="14.34" rx="5.03"/>
<path fill="#448538" d="
  M 32.95 39.54
  C 36.07 39.54 41.15 40.18 44.39 41.97
  A 0.85 0.85 0.0 0 1 44.60 43.30
  Q 39.41 48.72 32.95 48.71
  Q 26.48 48.71 21.31 43.28
  A 0.85 0.85 0.0 0 1 21.51 41.96
  C 24.76 40.17 29.84 39.54 32.95 39.54
  Z"
/>
</svg>
