<?xml version="1.0" encoding="UTF-8" standalone="no"?>
<!DOCTYPE svg PUBLIC "-//W3C//DTD SVG 1.1//EN" "http://www.w3.org/Graphics/SVG/1.1/DTD/svg11.dtd">
<svg xmlns="http://www.w3.org/2000/svg" version="1.1" viewBox="0.00 0.00 66.00 88.00">
<g stroke-width="2.00" fill="none" stroke-linecap="butt">
<path stroke="#3a3882" vector-effect="non-scaling-stroke" d="
  M 33.41 86.70
  Q 33.52 86.70 33.62 86.68
  Q 33.70 86.66 33.78 86.58
  C 50.23 71.19 74.43 40.67 59.81 17.14
  C 54.17 8.05 44.30 2.52 33.51 2.51
  C 22.72 2.49 12.84 8.00 7.17 17.07
  C -7.50 40.57 16.62 71.15 33.04 86.58
  Q 33.12 86.66 33.20 86.68
  Q 33.29 86.70 33.41 86.70"
/>
<path stroke="#9f95b6" vector-effect="non-scaling-stroke" d="
  M 16.93 23.79
  A 0.31 0.31 0.0 0 0 16.69 23.43
  L 16.44 23.39
  A 0.10 0.09 18.2 0 0 16.33 23.44
  Q 14.95 26.21 14.67 29.70
  A 0.80 0.79 -77.7 0 0 15.17 30.50
  C 17.02 31.24 18.08 30.40 19.65 30.45
  Q 25.43 30.63 30.50 30.44
  A 1.99 1.98 88.9 0 0 32.40 28.45
  L 32.40 24.10
  A 0.90 0.90 0.0 0 0 31.50 23.20
  L 26.67 23.21
  A 0.75 0.74 -84.4 0 0 25.94 23.81
  L 24.76 30.01
  A 0.13 0.13 0.0 0 1 24.60 30.11
  L 24.33 30.06
  A 0.58 0.58 0.0 0 1 23.87 29.38
  L 24.95 23.69
  A 0.39 0.39 0.0 0 0 24.57 23.23
  L 19.68 23.24
  A 0.68 0.68 0.0 0 0 19.01 23.79
  L 17.89 29.69
  A 0.89 0.88 5.4 0 1 17.02 30.40
  L 16.54 30.40
  A 0.72 0.72 0.0 0 1 15.83 29.55
  L 16.93 23.79"
/>
<path stroke="#9f95b6" vector-effect="non-scaling-stroke" d="
  M 49.05 23.80
  L 50.16 29.57
  A 0.72 0.72 0.0 0 1 49.45 30.42
  L 48.97 30.42
  A 0.89 0.88 -5.5 0 1 48.10 29.71
  L 46.97 23.81
  A 0.68 0.68 0.0 0 0 46.30 23.26
  L 41.40 23.26
  A 0.39 0.39 0.0 0 0 41.02 23.72
  L 42.11 29.41
  A 0.58 0.58 0.0 0 1 41.65 30.09
  L 41.38 30.14
  A 0.13 0.13 0.0 0 1 41.22 30.04
  L 40.03 23.84
  A 0.75 0.74 84.3 0 0 39.30 23.24
  L 34.47 23.24
  A 0.90 0.90 0.0 0 0 33.57 24.14
  L 33.57 28.49
  A 1.99 1.98 -89.0 0 0 35.48 30.48
  Q 40.55 30.66 46.34 30.47
  C 47.91 30.42 48.97 31.26 50.82 30.52
  A 0.80 0.79 77.6 0 0 51.32 29.72
  Q 51.03 26.22 49.65 23.45
  A 0.10 0.09 -18.3 0 0 49.54 23.40
  L 49.29 23.44
  A 0.31 0.31 0.0 0 0 49.05 23.80"
/>
<path stroke="#9f95b6" vector-effect="non-scaling-stroke" d="
  M 32.9404 29.9800
  A 1.84 1.32 -90.3 0 0 31.6300 31.8269
  A 1.84 1.32 -90.3 0 0 32.9596 33.6600
  A 1.84 1.32 -90.3 0 0 34.2700 31.8131
  A 1.84 1.32 -90.3 0 0 32.9404 29.9800"
/>
<path stroke="#9f95b6" vector-effect="non-scaling-stroke" d="
  M 32.70 41.01
  Q 32.21 39.95 32.50 37.79
  A 0.83 0.79 -67.6 0 0 32.21 37.05
  Q 31.01 36.08 31.39 33.87
  A 0.97 0.97 0.0 0 0 30.44 32.73
  L 25.74 32.73
  A 0.67 0.66 -90.0 0 0 25.08 33.40
  L 25.08 40.80
  A 0.30 0.30 0.0 0 1 24.78 41.10
  L 24.52 41.10
  A 0.42 0.41 -90.0 0 1 24.11 40.68
  L 24.11 32.99
  A 0.28 0.28 0.0 0 0 23.83 32.71
  L 15.59 32.71
  A 0.94 0.93 90.0 0 0 14.66 33.65
  L 14.66 40.58
  A 0.98 0.98 0.0 0 0 15.64 41.56
  L 32.35 41.56
  A 0.39 0.39 0.0 0 0 32.70 41.01"
/>
<path stroke="#9f95b6" vector-effect="non-scaling-stroke" d="
  M 33.57 41.45
  L 50.46 41.67
  A 0.86 0.86 0.0 0 0 51.33 40.81
  L 51.33 33.49
  A 0.77 0.76 -0.0 0 0 50.56 32.73
  L 35.40 32.73
  A 0.78 0.77 85.0 0 0 34.64 33.64
  Q 34.97 35.62 33.89 36.89
  A 1.50 1.48 -27.4 0 0 33.55 37.94
  Q 33.75 40.76 33.42 41.06
  A 0.23 0.23 0.0 0 0 33.57 41.45"
/>
<path stroke="#9f95b6" vector-effect="non-scaling-stroke" d="
  M 33.50 34.52
  Q 32.81 34.30 32.33 34.56
  A 0.81 0.76 55.1 0 0 32.15 35.76
  Q 32.72 36.44 33.50 35.93
  A 0.84 0.71 -49.7 0 0 33.50 34.52"
/>
<path stroke="#9f95b6" vector-effect="non-scaling-stroke" d="
  M 51.32 44.25
  A 0.54 0.54 0.0 0 0 50.78 43.71
  L 15.18 43.71
  A 0.54 0.54 0.0 0 0 14.64 44.25
  L 14.64 44.29
  A 0.54 0.54 0.0 0 0 15.18 44.83
  L 50.78 44.83
  A 0.54 0.54 0.0 0 0 51.32 44.29
  L 51.32 44.25"
/>
<path stroke="#9f95b6" vector-effect="non-scaling-stroke" d="
  M 17.91 34.00
  A 0.93 0.93 0.0 0 0 16.98 33.07
  L 16.84 33.07
  A 0.93 0.93 0.0 0 0 15.91 34.00
  L 15.91 40.48
  A 0.93 0.93 0.0 0 0 16.84 41.41
  L 16.98 41.41
  A 0.93 0.93 0.0 0 0 17.91 40.48
  L 17.91 34.00"
/>
<path stroke="#9f95b6" vector-effect="non-scaling-stroke" d="
  M 41.9263 33.5009
  A 0.47 0.47 0.0 0 0 41.4571 33.0300
  L 41.4171 33.0300
  A 0.47 0.47 0.0 0 0 40.9463 33.4992
  L 40.9337 40.6791
  A 0.47 0.47 0.0 0 0 41.4029 41.1500
  L 41.4429 41.1500
  A 0.47 0.47 0.0 0 0 41.9137 40.6808
  L 41.9263 33.5009"
/>
<path stroke="#9f95b6" vector-effect="non-scaling-stroke" d="
  M 50.0643 33.9683
  A 0.90 0.90 0.0 0 0 49.1627 33.0699
  L 49.0027 33.0701
  A 0.90 0.90 0.0 0 0 48.1043 33.9717
  L 48.1157 40.4917
  A 0.90 0.90 0.0 0 0 49.0173 41.3901
  L 49.1773 41.3899
  A 0.90 0.90 0.0 0 0 50.0757 40.4883
  L 50.0643 33.9683"
/>
</g>
<path fill="#262659" d="
  M 33.79 88.00
  L 33.04 88.00
  C 21.72 77.71 12.19 65.74 5.68 51.55
  Q 2.12 43.81 1.57 34.90
  C 0.57 18.87 11.15 5.76 26.65 2.06
  C 37.19 -0.46 49.24 3.22 56.82 11.29
  Q 67.82 23.01 64.84 40.02
  C 61.68 58.05 47.10 75.95 33.79 88.00
  Z
  M 33.41 86.70
  Q 33.52 86.70 33.62 86.68
  Q 33.70 86.66 33.78 86.58
  C 50.23 71.19 74.43 40.67 59.81 17.14
  C 54.17 8.05 44.30 2.52 33.51 2.51
  C 22.72 2.49 12.84 8.00 7.17 17.07
  C -7.50 40.57 16.62 71.15 33.04 86.58
  Q 33.12 86.66 33.20 86.68
  Q 33.29 86.70 33.41 86.70
  Z"
/>
<path fill="#4e4aab" d="
  M 33.51 2.51
  C 44.30 2.52 54.17 8.05 59.81 17.14
  C 74.43 40.67 50.23 71.19 33.78 86.58
  Q 33.70 86.66 33.62 86.68
  Q 33.52 86.70 33.41 86.70
  Q 33.29 86.70 33.20 86.68
  Q 33.12 86.66 33.04 86.58
  C 16.62 71.15 -7.50 40.57 7.17 17.07
  C 12.84 8.00 22.72 2.49 33.51 2.51
  Z
  M 16.93 23.79
  A 0.31 0.31 0.0 0 0 16.69 23.43
  L 16.44 23.39
  A 0.10 0.09 18.2 0 0 16.33 23.44
  Q 14.95 26.21 14.67 29.70
  A 0.80 0.79 -77.7 0 0 15.17 30.50
  C 17.02 31.24 18.08 30.40 19.65 30.45
  Q 25.43 30.63 30.50 30.44
  A 1.99 1.98 88.9 0 0 32.40 28.45
  L 32.40 24.10
  A 0.90 0.90 0.0 0 0 31.50 23.20
  L 26.67 23.21
  A 0.75 0.74 -84.4 0 0 25.94 23.81
  L 24.76 30.01
  A 0.13 0.13 0.0 0 1 24.60 30.11
  L 24.33 30.06
  A 0.58 0.58 0.0 0 1 23.87 29.38
  L 24.95 23.69
  A 0.39 0.39 0.0 0 0 24.57 23.23
  L 19.68 23.24
  A 0.68 0.68 0.0 0 0 19.01 23.79
  L 17.89 29.69
  A 0.89 0.88 5.4 0 1 17.02 30.40
  L 16.54 30.40
  A 0.72 0.72 0.0 0 1 15.83 29.55
  L 16.93 23.79
  Z
  M 49.05 23.80
  L 50.16 29.57
  A 0.72 0.72 0.0 0 1 49.45 30.42
  L 48.97 30.42
  A 0.89 0.88 -5.5 0 1 48.10 29.71
  L 46.97 23.81
  A 0.68 0.68 0.0 0 0 46.30 23.26
  L 41.40 23.26
  A 0.39 0.39 0.0 0 0 41.02 23.72
  L 42.11 29.41
  A 0.58 0.58 0.0 0 1 41.65 30.09
  L 41.38 30.14
  A 0.13 0.13 0.0 0 1 41.22 30.04
  L 40.03 23.84
  A 0.75 0.74 84.3 0 0 39.30 23.24
  L 34.47 23.24
  A 0.90 0.90 0.0 0 0 33.57 24.14
  L 33.57 28.49
  A 1.99 1.98 -89.0 0 0 35.48 30.48
  Q 40.55 30.66 46.34 30.47
  C 47.91 30.42 48.97 31.26 50.82 30.52
  A 0.80 0.79 77.6 0 0 51.32 29.72
  Q 51.03 26.22 49.65 23.45
  A 0.10 0.09 -18.3 0 0 49.54 23.40
  L 49.29 23.44
  A 0.31 0.31 0.0 0 0 49.05 23.80
  Z
  M 32.9404 29.9800
  A 1.84 1.32 -90.3 0 0 31.6300 31.8269
  A 1.84 1.32 -90.3 0 0 32.9596 33.6600
  A 1.84 1.32 -90.3 0 0 34.2700 31.8131
  A 1.84 1.32 -90.3 0 0 32.9404 29.9800
  Z
  M 32.70 41.01
  Q 32.21 39.95 32.50 37.79
  A 0.83 0.79 -67.6 0 0 32.21 37.05
  Q 31.01 36.08 31.39 33.87
  A 0.97 0.97 0.0 0 0 30.44 32.73
  L 25.74 32.73
  A 0.67 0.66 -90.0 0 0 25.08 33.40
  L 25.08 40.80
  A 0.30 0.30 0.0 0 1 24.78 41.10
  L 24.52 41.10
  A 0.42 0.41 -90.0 0 1 24.11 40.68
  L 24.11 32.99
  A 0.28 0.28 0.0 0 0 23.83 32.71
  L 15.59 32.71
  A 0.94 0.93 90.0 0 0 14.66 33.65
  L 14.66 40.58
  A 0.98 0.98 0.0 0 0 15.64 41.56
  L 32.35 41.56
  A 0.39 0.39 0.0 0 0 32.70 41.01
  Z
  M 33.57 41.45
  L 50.46 41.67
  A 0.86 0.86 0.0 0 0 51.33 40.81
  L 51.33 33.49
  A 0.77 0.76 -0.0 0 0 50.56 32.73
  L 35.40 32.73
  A 0.78 0.77 85.0 0 0 34.64 33.64
  Q 34.97 35.62 33.89 36.89
  A 1.50 1.48 -27.4 0 0 33.55 37.94
  Q 33.75 40.76 33.42 41.06
  A 0.23 0.23 0.0 0 0 33.57 41.45
  Z
  M 33.50 34.52
  Q 32.81 34.30 32.33 34.56
  A 0.81 0.76 55.1 0 0 32.15 35.76
  Q 32.72 36.44 33.50 35.93
  A 0.84 0.71 -49.7 0 0 33.50 34.52
  Z
  M 51.32 44.25
  A 0.54 0.54 0.0 0 0 50.78 43.71
  L 15.18 43.71
  A 0.54 0.54 0.0 0 0 14.64 44.25
  L 14.64 44.29
  A 0.54 0.54 0.0 0 0 15.18 44.83
  L 50.78 44.83
  A 0.54 0.54 0.0 0 0 51.32 44.29
  L 51.32 44.25
  Z"
/>
<path fill="#f0dfc1" d="
  M 16.93 23.79
  L 15.83 29.55
  A 0.72 0.72 0.0 0 0 16.54 30.40
  L 17.02 30.40
  A 0.89 0.88 5.4 0 0 17.89 29.69
  L 19.01 23.79
  A 0.68 0.68 0.0 0 1 19.68 23.24
  L 24.57 23.23
  A 0.39 0.39 0.0 0 1 24.95 23.69
  L 23.87 29.38
  A 0.58 0.58 0.0 0 0 24.33 30.06
  L 24.60 30.11
  A 0.13 0.13 0.0 0 0 24.76 30.01
  L 25.94 23.81
  A 0.75 0.74 -84.4 0 1 26.67 23.21
  L 31.50 23.20
  A 0.90 0.90 0.0 0 1 32.40 24.10
  L 32.40 28.45
  A 1.99 1.98 88.9 0 1 30.50 30.44
  Q 25.43 30.63 19.65 30.45
  C 18.08 30.40 17.02 31.24 15.17 30.50
  A 0.80 0.79 -77.7 0 1 14.67 29.70
  Q 14.95 26.21 16.33 23.44
  A 0.10 0.09 18.2 0 1 16.44 23.39
  L 16.69 23.43
  A 0.31 0.31 0.0 0 1 16.93 23.79
  Z"
/>
<path fill="#f0dfc1" d="
  M 49.05 23.80
  A 0.31 0.31 0.0 0 1 49.29 23.44
  L 49.54 23.40
  A 0.10 0.09 -18.3 0 1 49.65 23.45
  Q 51.03 26.22 51.32 29.72
  A 0.80 0.79 77.6 0 1 50.82 30.52
  C 48.97 31.26 47.91 30.42 46.34 30.47
  Q 40.55 30.66 35.48 30.48
  A 1.99 1.98 -89.0 0 1 33.57 28.49
  L 33.57 24.14
  A 0.90 0.90 0.0 0 1 34.47 23.24
  L 39.30 23.24
  A 0.75 0.74 84.3 0 1 40.03 23.84
  L 41.22 30.04
  A 0.13 0.13 0.0 0 0 41.38 30.14
  L 41.65 30.09
  A 0.58 0.58 0.0 0 0 42.11 29.41
  L 41.02 23.72
  A 0.39 0.39 0.0 0 1 41.40 23.26
  L 46.30 23.26
  A 0.68 0.68 0.0 0 1 46.97 23.81
  L 48.10 29.71
  A 0.89 0.88 -5.5 0 0 48.97 30.42
  L 49.45 30.42
  A 0.72 0.72 0.0 0 0 50.16 29.57
  L 49.05 23.80
  Z"
/>
<ellipse fill="#f0dfc1" cx="0.00" cy="0.00" transform="translate(32.95,31.82) rotate(-90.3)" rx="1.84" ry="1.32"/>
<path fill="#f0dfc1" d="
  M 32.35 41.56
  L 15.64 41.56
  A 0.98 0.98 0.0 0 1 14.66 40.58
  L 14.66 33.65
  A 0.94 0.93 90.0 0 1 15.59 32.71
  L 23.83 32.71
  A 0.28 0.28 0.0 0 1 24.11 32.99
  L 24.11 40.68
  A 0.42 0.41 90.0 0 0 24.52 41.10
  L 24.78 41.10
  A 0.30 0.30 0.0 0 0 25.08 40.80
  L 25.08 33.40
  A 0.67 0.66 -90.0 0 1 25.74 32.73
  L 30.44 32.73
  A 0.97 0.97 0.0 0 1 31.39 33.87
  Q 31.01 36.08 32.21 37.05
  A 0.83 0.79 -67.6 0 1 32.50 37.79
  Q 32.21 39.95 32.70 41.01
  A 0.39 0.39 0.0 0 1 32.35 41.56
  Z
  M 17.91 34.00
  A 0.93 0.93 0.0 0 0 16.98 33.07
  L 16.84 33.07
  A 0.93 0.93 0.0 0 0 15.91 34.00
  L 15.91 40.48
  A 0.93 0.93 0.0 0 0 16.84 41.41
  L 16.98 41.41
  A 0.93 0.93 0.0 0 0 17.91 40.48
  L 17.91 34.00
  Z"
/>
<path fill="#f0dfc1" d="
  M 33.42 41.06
  Q 33.75 40.76 33.55 37.94
  A 1.50 1.48 -27.4 0 1 33.89 36.89
  Q 34.97 35.62 34.64 33.64
  A 0.78 0.77 85.0 0 1 35.40 32.73
  L 50.56 32.73
  A 0.77 0.76 -0.0 0 1 51.33 33.49
  L 51.33 40.81
  A 0.86 0.86 0.0 0 1 50.46 41.67
  L 33.57 41.45
  A 0.23 0.23 0.0 0 1 33.42 41.06
  Z
  M 41.9263 33.5009
  A 0.47 0.47 0.0 0 0 41.4571 33.0300
  L 41.4171 33.0300
  A 0.47 0.47 0.0 0 0 40.9463 33.4992
  L 40.9337 40.6791
  A 0.47 0.47 0.0 0 0 41.4029 41.1500
  L 41.4429 41.1500
  A 0.47 0.47 0.0 0 0 41.9137 40.6808
  L 41.9263 33.5009
  Z
  M 50.0643 33.9683
  A 0.90 0.90 0.0 0 0 49.1627 33.0699
  L 49.0027 33.0701
  A 0.90 0.90 0.0 0 0 48.1043 33.9717
  L 48.1157 40.4917
  A 0.90 0.90 0.0 0 0 49.0173 41.3901
  L 49.1773 41.3899
  A 0.90 0.90 0.0 0 0 50.0757 40.4883
  L 50.0643 33.9683
  Z"
/>
<rect fill="#4e4aab" x="15.91" y="33.07" width="2.00" height="8.34" rx="0.93"/>
<rect fill="#4e4aab" x="-0.49" y="-4.06" transform="translate(41.43,37.09) rotate(0.1)" width="0.98" height="8.12" rx="0.47"/>
<rect fill="#4e4aab" x="-0.98" y="-4.16" transform="translate(49.09,37.23) rotate(-0.1)" width="1.96" height="8.32" rx="0.90"/>
<path fill="#f0dfc1" d="
  M 33.50 34.52
  A 0.84 0.71 -49.7 0 1 33.50 35.93
  Q 32.72 36.44 32.15 35.76
  A 0.81 0.76 55.1 0 1 32.33 34.56
  Q 32.81 34.30 33.50 34.52
  Z"
/>
<rect fill="#f0dfc1" x="14.64" y="43.71" width="36.68" height="1.12" rx="0.54"/>
</svg>
