<?xml version="1.0" encoding="UTF-8" standalone="no"?>
<!DOCTYPE svg PUBLIC "-//W3C//DTD SVG 1.1//EN" "http://www.w3.org/Graphics/SVG/1.1/DTD/svg11.dtd">
<svg xmlns="http://www.w3.org/2000/svg" version="1.1" viewBox="0.00 0.00 66.00 88.00">
<g stroke-width="2.00" fill="none" stroke-linecap="butt">
<path stroke="#612e09" vector-effect="non-scaling-stroke" d="
  M 33.43 86.67
  Q 33.52 86.67 33.59 86.65
  Q 33.61 86.65 33.71 86.55
  Q 46.96 74.25 56.02 59.27
  C 65.04 44.32 68.86 25.43 55.67 11.87
  C 49.87 5.90 42.00 2.52 33.53 2.51
  C 25.05 2.50 17.17 5.86 11.36 11.82
  C -1.86 25.35 1.91 44.25 10.90 59.22
  Q 19.92 74.22 33.14 86.55
  Q 33.24 86.65 33.26 86.65
  Q 33.34 86.67 33.43 86.67"
/>
<path stroke="#b78e67" vector-effect="non-scaling-stroke" d="
  M 37.97 35.51
  Q 38.33 35.66 38.81 35.78
  A 0.52 0.52 0.0 0 0 39.43 35.47
  L 42.85 27.04
  A 0.73 0.72 -67.5 0 1 43.80 26.64
  L 44.10 26.76
  A 0.72 0.71 -67.9 0 0 45.03 26.36
  L 48.09 18.82
  A 1.44 1.44 0.0 0 0 47.46 17.02
  Q 46.71 16.60 45.86 16.25
  Q 45.00 15.90 44.17 15.68
  A 1.44 1.44 0.0 0 0 42.46 16.52
  L 39.36 24.04
  A 0.72 0.71 -67.6 0 0 39.74 24.98
  L 40.04 25.10
  A 0.73 0.72 -68.0 0 1 40.43 26.05
  L 36.96 34.46
  A 0.52 0.52 0.0 0 0 37.18 35.12
  Q 37.61 35.36 37.97 35.51"
/>
<path stroke="#b78e67" vector-effect="non-scaling-stroke" d="
  M 32.99 45.00
  Q 41.63 44.99 42.67 44.91
  A 0.34 0.34 0.0 0 0 42.96 44.45
  C 41.28 40.29 37.57 37.53 32.97 37.54
  C 28.38 37.55 24.68 40.32 23.02 44.49
  A 0.34 0.34 0.0 0 0 23.31 44.95
  Q 24.35 45.02 32.99 45.00"
/>
<path stroke="#b78e67" vector-effect="non-scaling-stroke" d="
  M 48.20 48.32
  A 0.32 0.32 0.0 0 0 47.88 48.00
  L 18.12 48.00
  A 0.32 0.32 0.0 0 0 17.80 48.32
  L 17.80 51.92
  A 0.32 0.32 0.0 0 0 18.12 52.24
  L 47.88 52.24
  A 0.32 0.32 0.0 0 0 48.20 51.92
  L 48.20 48.32"
/>
</g>
<path fill="#431e05" d="
  M 33.81 88.00
  L 33.14 88.00
  C 16.27 73.04 -8.52 41.27 5.61 17.38
  C 18.82 -4.94 51.26 -3.89 62.68 19.92
  C 66.95 28.81 65.88 40.04 62.33 49.05
  C 56.46 63.91 45.56 77.31 33.81 88.00
  Z
  M 33.43 86.67
  Q 33.52 86.67 33.59 86.65
  Q 33.61 86.65 33.71 86.55
  Q 46.96 74.25 56.02 59.27
  C 65.04 44.32 68.86 25.43 55.67 11.87
  C 49.87 5.90 42.00 2.52 33.53 2.51
  C 25.05 2.50 17.17 5.86 11.36 11.82
  C -1.86 25.35 1.91 44.25 10.90 59.22
  Q 19.92 74.22 33.14 86.55
  Q 33.24 86.65 33.26 86.65
  Q 33.34 86.67 33.43 86.67
  Z"
/>
<path fill="#7e3d0c" d="
  M 33.53 2.51
  C 42.00 2.52 49.87 5.90 55.67 11.87
  C 68.86 25.43 65.04 44.32 56.02 59.27
  Q 46.96 74.25 33.71 86.55
  Q 33.61 86.65 33.59 86.65
  Q 33.52 86.67 33.43 86.67
  Q 33.34 86.67 33.26 86.65
  Q 33.24 86.65 33.14 86.55
  Q 19.92 74.22 10.90 59.22
  C 1.91 44.25 -1.86 25.35 11.36 11.82
  C 17.17 5.86 25.05 2.50 33.53 2.51
  Z
  M 37.97 35.51
  Q 38.33 35.66 38.81 35.78
  A 0.52 0.52 0.0 0 0 39.43 35.47
  L 42.85 27.04
  A 0.73 0.72 -67.5 0 1 43.80 26.64
  L 44.10 26.76
  A 0.72 0.71 -67.9 0 0 45.03 26.36
  L 48.09 18.82
  A 1.44 1.44 0.0 0 0 47.46 17.02
  Q 46.71 16.60 45.86 16.25
  Q 45.00 15.90 44.17 15.68
  A 1.44 1.44 0.0 0 0 42.46 16.52
  L 39.36 24.04
  A 0.72 0.71 -67.6 0 0 39.74 24.98
  L 40.04 25.10
  A 0.73 0.72 -68.0 0 1 40.43 26.05
  L 36.96 34.46
  A 0.52 0.52 0.0 0 0 37.18 35.12
  Q 37.61 35.36 37.97 35.51
  Z
  M 32.99 45.00
  Q 41.63 44.99 42.67 44.91
  A 0.34 0.34 0.0 0 0 42.96 44.45
  C 41.28 40.29 37.57 37.53 32.97 37.54
  C 28.38 37.55 24.68 40.32 23.02 44.49
  A 0.34 0.34 0.0 0 0 23.31 44.95
  Q 24.35 45.02 32.99 45.00
  Z
  M 48.20 48.32
  A 0.32 0.32 0.0 0 0 47.88 48.00
  L 18.12 48.00
  A 0.32 0.32 0.0 0 0 17.80 48.32
  L 17.80 51.92
  A 0.32 0.32 0.0 0 0 18.12 52.24
  L 47.88 52.24
  A 0.32 0.32 0.0 0 0 48.20 51.92
  L 48.20 48.32
  Z"
/>
<path fill="#f0dfc1" d="
  M 45.86 16.25
  Q 46.71 16.60 47.46 17.02
  A 1.44 1.44 0.0 0 1 48.09 18.82
  L 45.03 26.36
  A 0.72 0.71 -67.9 0 1 44.10 26.76
  L 43.80 26.64
  A 0.73 0.72 -67.5 0 0 42.85 27.04
  L 39.43 35.47
  A 0.52 0.52 0.0 0 1 38.81 35.78
  Q 38.33 35.66 37.97 35.51
  Q 37.61 35.36 37.18 35.12
  A 0.52 0.52 0.0 0 1 36.96 34.46
  L 40.43 26.05
  A 0.73 0.72 -68.0 0 0 40.04 25.10
  L 39.74 24.98
  A 0.72 0.71 -67.6 0 1 39.36 24.04
  L 42.46 16.52
  A 1.44 1.44 0.0 0 1 44.17 15.68
  Q 45.00 15.90 45.86 16.25
  Z"
/>
<path fill="#f0dfc1" d="
  M 32.97 37.54
  C 37.57 37.53 41.28 40.29 42.96 44.45
  A 0.34 0.34 0.0 0 1 42.67 44.91
  Q 41.63 44.99 32.99 45.00
  Q 24.35 45.02 23.31 44.95
  A 0.34 0.34 0.0 0 1 23.02 44.49
  C 24.68 40.32 28.38 37.55 32.97 37.54
  Z"
/>
<rect fill="#f0dfc1" x="17.80" y="48.00" width="30.40" height="4.24" rx="0.32"/>
</svg>
