<?xml version="1.0" encoding="UTF-8" standalone="no"?>
<!DOCTYPE svg PUBLIC "-//W3C//DTD SVG 1.1//EN" "http://www.w3.org/Graphics/SVG/1.1/DTD/svg11.dtd">
<svg xmlns="http://www.w3.org/2000/svg" version="1.1" viewBox="0.00 0.00 66.00 88.00">
<g stroke-width="2.00" fill="none" stroke-linecap="butt">
<path stroke="#750d21" vector-effect="non-scaling-stroke" d="
  M 33.41 86.63
  Q 33.63 86.63 33.72 86.55
  Q 46.48 74.67 55.10 60.84
  C 63.60 47.19 69.16 28.78 58.08 14.66
  C 52.11 7.05 43.41 2.51 33.52 2.50
  C 23.63 2.48 14.92 7.00 8.92 14.60
  C -2.19 28.69 3.32 47.11 11.79 60.78
  Q 20.37 74.64 33.10 86.55
  Q 33.19 86.63 33.41 86.63"
/>
<path stroke="#c57977" vector-effect="non-scaling-stroke" d="
  M 15.61 16.65
  Q 15.56 16.70 15.65 17.37
  C 15.77 18.28 15.35 19.25 14.94 19.75
  A 0.29 0.28 20.1 0 0 15.16 20.22
  L 16.86 20.22
  A 1.27 1.27 0.0 0 1 17.89 20.75
  L 19.44 22.86
  A 0.70 0.69 50.3 0 0 20.46 22.96
  Q 20.68 22.76 21.19 22.25
  Q 21.72 21.74 21.92 21.52
  A 0.70 0.69 40.4 0 0 21.83 20.50
  L 19.74 18.92
  A 1.27 1.27 0.0 0 1 19.23 17.88
  L 19.25 16.18
  A 0.29 0.28 70.7 0 0 18.78 15.96
  C 18.28 16.36 17.30 16.77 16.40 16.63
  Q 15.73 16.53 15.61 16.65"
/>
<path stroke="#c57977" vector-effect="non-scaling-stroke" d="
  M 50.38 16.65
  Q 50.26 16.54 49.60 16.64
  C 48.69 16.77 47.72 16.37 47.22 15.96
  A 0.29 0.28 -70.7 0 0 46.75 16.19
  L 46.77 17.88
  A 1.27 1.26 -18.6 0 1 46.26 18.92
  L 44.17 20.49
  A 0.69 0.69 0.0 0 0 44.09 21.51
  Q 44.29 21.73 44.81 22.24
  Q 45.32 22.75 45.54 22.95
  A 0.69 0.69 0.0 0 0 46.56 22.85
  L 48.11 20.75
  A 1.27 1.26 -72.1 0 1 49.14 20.22
  L 50.83 20.22
  A 0.29 0.28 -20.1 0 0 51.05 19.75
  C 50.64 19.25 50.22 18.28 50.35 17.37
  Q 50.44 16.71 50.38 16.65"
/>
<path stroke="#c57977" vector-effect="non-scaling-stroke" d="
  M 23.74 24.80
  Q 20.87 27.70 20.66 27.99
  A 4.19 4.05 74.9 0 0 20.18 28.85
  Q 19.08 31.47 19.29 31.67
  Q 19.49 31.87 22.10 30.76
  A 4.19 4.05 14.8 0 0 22.96 30.28
  Q 23.25 30.07 26.13 27.17
  Q 29.01 24.28 29.22 23.99
  A 4.19 4.05 74.9 0 0 29.69 23.12
  Q 30.79 20.50 30.59 20.30
  Q 30.39 20.10 27.78 21.21
  A 4.19 4.05 14.8 0 0 26.91 21.70
  Q 26.62 21.91 23.74 24.80"
/>
<path stroke="#c57977" vector-effect="non-scaling-stroke" d="
  M 35.4821 20.3634
  A 7.93 1.76 -134.7 0 0 39.8090 27.2380
  A 7.93 1.76 -134.7 0 0 46.6379 31.6366
  A 7.93 1.76 -134.7 0 0 42.3110 24.7620
  A 7.93 1.76 -134.7 0 0 35.4821 20.3634"
/>
<path stroke="#c57977" vector-effect="non-scaling-stroke" d="
  M 15.00 51.99
  Q 15.03 52.03 15.06 52.04
  A 0.19 0.06 28.1 0 0 15.21 52.07
  L 25.25 48.18
  A 1.96 1.94 -83.4 0 0 26.15 47.46
  Q 32.01 38.92 38.63 32.29
  A 0.76 0.76 0.0 0 0 38.80 31.48
  L 38.63 31.03
  A 0.68 0.67 -31.4 0 0 37.55 30.77
  Q 26.94 40.20 26.89 40.10
  Q 26.79 40.05 36.21 29.44
  A 0.68 0.67 -58.6 0 0 35.95 28.36
  L 35.50 28.19
  A 0.76 0.76 0.0 0 0 34.69 28.36
  Q 28.07 34.98 19.53 40.84
  A 1.96 1.94 -6.6 0 0 18.81 41.74
  L 14.92 51.78
  A 0.19 0.06 61.9 0 0 14.95 51.93
  Q 14.96 51.96 15.00 51.99"
/>
<path stroke="#c57977" vector-effect="non-scaling-stroke" d="
  M 37.67 38.75
  Q 35.78 40.67 35.68 40.85
  A 0.86 0.86 0.0 0 0 35.74 41.77
  L 40.01 47.58
  A 1.89 1.87 82.1 0 0 40.90 48.26
  L 50.74 52.00
  A 0.19 0.05 -38.9 0 0 50.90 51.93
  Q 50.93 51.91 50.96 51.88
  Q 50.99 51.85 51.01 51.82
  A 0.19 0.05 -51.8 0 0 51.08 51.66
  L 47.21 41.87
  A 1.89 1.87 7.2 0 0 46.52 40.99
  L 40.66 36.79
  A 0.86 0.86 0.0 0 0 39.74 36.74
  Q 39.56 36.84 37.67 38.75"
/>
</g>
<path fill="#500815" d="
  M 33.80 88.00
  L 33.04 88.00
  C 17.15 73.55 -4.59 46.35 3.04 23.09
  Q 5.52 15.56 11.51 9.92
  C 20.03 1.89 33.45 -1.08 44.71 3.35
  Q 61.00 9.76 64.85 26.54
  C 67.41 37.71 62.62 51.02 56.34 61.07
  Q 47.00 76.02 33.80 88.00
  Z
  M 33.41 86.63
  Q 33.63 86.63 33.72 86.55
  Q 46.48 74.67 55.10 60.84
  C 63.60 47.19 69.16 28.78 58.08 14.66
  C 52.11 7.05 43.41 2.51 33.52 2.50
  C 23.63 2.48 14.92 7.00 8.92 14.60
  C -2.19 28.69 3.32 47.11 11.79 60.78
  Q 20.37 74.64 33.10 86.55
  Q 33.19 86.63 33.41 86.63
  Z"
/>
<path fill="#99122d" d="
  M 33.52 2.50
  C 43.41 2.51 52.11 7.05 58.08 14.66
  C 69.16 28.78 63.60 47.19 55.10 60.84
  Q 46.48 74.67 33.72 86.55
  Q 33.63 86.63 33.41 86.63
  Q 33.19 86.63 33.10 86.55
  Q 20.37 74.64 11.79 60.78
  C 3.32 47.11 -2.19 28.69 8.92 14.60
  C 14.92 7.00 23.63 2.48 33.52 2.50
  Z
  M 15.61 16.65
  Q 15.56 16.70 15.65 17.37
  C 15.77 18.28 15.35 19.25 14.94 19.75
  A 0.29 0.28 20.1 0 0 15.16 20.22
  L 16.86 20.22
  A 1.27 1.27 0.0 0 1 17.89 20.75
  L 19.44 22.86
  A 0.70 0.69 50.3 0 0 20.46 22.96
  Q 20.68 22.76 21.19 22.25
  Q 21.72 21.74 21.92 21.52
  A 0.70 0.69 40.4 0 0 21.83 20.50
  L 19.74 18.92
  A 1.27 1.27 0.0 0 1 19.23 17.88
  L 19.25 16.18
  A 0.29 0.28 70.7 0 0 18.78 15.96
  C 18.28 16.36 17.30 16.77 16.40 16.63
  Q 15.73 16.53 15.61 16.65
  Z
  M 50.38 16.65
  Q 50.26 16.54 49.60 16.64
  C 48.69 16.77 47.72 16.37 47.22 15.96
  A 0.29 0.28 -70.7 0 0 46.75 16.19
  L 46.77 17.88
  A 1.27 1.26 -18.6 0 1 46.26 18.92
  L 44.17 20.49
  A 0.69 0.69 0.0 0 0 44.09 21.51
  Q 44.29 21.73 44.81 22.24
  Q 45.32 22.75 45.54 22.95
  A 0.69 0.69 0.0 0 0 46.56 22.85
  L 48.11 20.75
  A 1.27 1.26 -72.1 0 1 49.14 20.22
  L 50.83 20.22
  A 0.29 0.28 -20.1 0 0 51.05 19.75
  C 50.64 19.25 50.22 18.28 50.35 17.37
  Q 50.44 16.71 50.38 16.65
  Z
  M 23.74 24.80
  Q 20.87 27.70 20.66 27.99
  A 4.19 4.05 74.9 0 0 20.18 28.85
  Q 19.08 31.47 19.29 31.67
  Q 19.49 31.87 22.10 30.76
  A 4.19 4.05 14.8 0 0 22.96 30.28
  Q 23.25 30.07 26.13 27.17
  Q 29.01 24.28 29.22 23.99
  A 4.19 4.05 74.9 0 0 29.69 23.12
  Q 30.79 20.50 30.59 20.30
  Q 30.39 20.10 27.78 21.21
  A 4.19 4.05 14.8 0 0 26.91 21.70
  Q 26.62 21.91 23.74 24.80
  Z
  M 35.4821 20.3634
  A 7.93 1.76 -134.7 0 0 39.8090 27.2380
  A 7.93 1.76 -134.7 0 0 46.6379 31.6366
  A 7.93 1.76 -134.7 0 0 42.3110 24.7620
  A 7.93 1.76 -134.7 0 0 35.4821 20.3634
  Z
  M 15.00 51.99
  Q 15.03 52.03 15.06 52.04
  A 0.19 0.06 28.1 0 0 15.21 52.07
  L 25.25 48.18
  A 1.96 1.94 -83.4 0 0 26.15 47.46
  Q 32.01 38.92 38.63 32.29
  A 0.76 0.76 0.0 0 0 38.80 31.48
  L 38.63 31.03
  A 0.68 0.67 -31.4 0 0 37.55 30.77
  Q 26.94 40.20 26.89 40.10
  Q 26.79 40.05 36.21 29.44
  A 0.68 0.67 -58.6 0 0 35.95 28.36
  L 35.50 28.19
  A 0.76 0.76 0.0 0 0 34.69 28.36
  Q 28.07 34.98 19.53 40.84
  A 1.96 1.94 -6.6 0 0 18.81 41.74
  L 14.92 51.78
  A 0.19 0.06 61.9 0 0 14.95 51.93
  Q 14.96 51.96 15.00 51.99
  Z
  M 37.67 38.75
  Q 35.78 40.67 35.68 40.85
  A 0.86 0.86 0.0 0 0 35.74 41.77
  L 40.01 47.58
  A 1.89 1.87 82.1 0 0 40.90 48.26
  L 50.74 52.00
  A 0.19 0.05 -38.9 0 0 50.90 51.93
  Q 50.93 51.91 50.96 51.88
  Q 50.99 51.85 51.01 51.82
  A 0.19 0.05 -51.8 0 0 51.08 51.66
  L 47.21 41.87
  A 1.89 1.87 7.2 0 0 46.52 40.99
  L 40.66 36.79
  A 0.86 0.86 0.0 0 0 39.74 36.74
  Q 39.56 36.84 37.67 38.75
  Z"
/>
<path fill="#f0dfc1" d="
  M 21.19 22.25
  Q 20.68 22.76 20.46 22.96
  A 0.70 0.69 50.3 0 1 19.44 22.86
  L 17.89 20.75
  A 1.27 1.27 0.0 0 0 16.86 20.22
  L 15.16 20.22
  A 0.29 0.28 20.1 0 1 14.94 19.75
  C 15.35 19.25 15.77 18.28 15.65 17.37
  Q 15.56 16.70 15.61 16.65
  Q 15.73 16.53 16.40 16.63
  C 17.30 16.77 18.28 16.36 18.78 15.96
  A 0.29 0.28 70.7 0 1 19.25 16.18
  L 19.23 17.88
  A 1.27 1.27 0.0 0 0 19.74 18.92
  L 21.83 20.50
  A 0.70 0.69 40.4 0 1 21.92 21.52
  Q 21.72 21.74 21.19 22.25
  Z"
/>
<path fill="#f0dfc1" d="
  M 50.38 16.65
  Q 50.44 16.71 50.35 17.37
  C 50.22 18.28 50.64 19.25 51.05 19.75
  A 0.29 0.28 -20.1 0 1 50.83 20.22
  L 49.14 20.22
  A 1.27 1.26 -72.1 0 0 48.11 20.75
  L 46.56 22.85
  A 0.69 0.69 0.0 0 1 45.54 22.95
  Q 45.32 22.75 44.81 22.24
  Q 44.29 21.73 44.09 21.51
  A 0.69 0.69 0.0 0 1 44.17 20.49
  L 46.26 18.92
  A 1.27 1.26 -18.6 0 0 46.77 17.88
  L 46.75 16.19
  A 0.29 0.28 -70.7 0 1 47.22 15.96
  C 47.72 16.37 48.69 16.77 49.60 16.64
  Q 50.26 16.54 50.38 16.65
  Z"
/>
<path fill="#f0dfc1" d="
  M 30.59 20.30
  Q 30.79 20.50 29.69 23.12
  A 4.19 4.05 74.9 0 1 29.22 23.99
  Q 29.01 24.28 26.13 27.17
  Q 23.25 30.07 22.96 30.28
  A 4.19 4.05 14.8 0 1 22.10 30.76
  Q 19.49 31.87 19.29 31.67
  Q 19.08 31.47 20.18 28.85
  A 4.19 4.05 74.9 0 1 20.66 27.99
  Q 20.87 27.70 23.74 24.80
  Q 26.62 21.91 26.91 21.70
  A 4.19 4.05 14.8 0 1 27.78 21.21
  Q 30.39 20.10 30.59 20.30
  Z"
/>
<ellipse fill="#f0dfc1" cx="0.00" cy="0.00" transform="translate(41.06,26.00) rotate(-134.7)" rx="7.93" ry="1.76"/>
<path fill="#f0dfc1" d="
  M 26.89 40.10
  Q 26.94 40.20 37.55 30.77
  A 0.68 0.67 -31.4 0 1 38.63 31.03
  L 38.80 31.48
  A 0.76 0.76 0.0 0 1 38.63 32.29
  Q 32.01 38.92 26.15 47.46
  A 1.96 1.94 -83.4 0 1 25.25 48.18
  L 15.21 52.07
  A 0.19 0.06 28.1 0 1 15.06 52.04
  Q 15.03 52.03 15.00 51.99
  Q 14.96 51.96 14.95 51.93
  A 0.19 0.06 61.9 0 1 14.92 51.78
  L 18.81 41.74
  A 1.96 1.94 -6.6 0 1 19.53 40.84
  Q 28.07 34.98 34.69 28.36
  A 0.76 0.76 0.0 0 1 35.50 28.19
  L 35.95 28.36
  A 0.68 0.67 -58.6 0 1 36.21 29.44
  Q 26.79 40.05 26.89 40.10
  Z"
/>
<path fill="#f0dfc1" d="
  M 50.96 51.88
  Q 50.93 51.91 50.90 51.93
  A 0.19 0.05 -38.9 0 1 50.74 52.00
  L 40.90 48.26
  A 1.89 1.87 82.1 0 1 40.01 47.58
  L 35.74 41.77
  A 0.86 0.86 0.0 0 1 35.68 40.85
  Q 35.78 40.67 37.67 38.75
  Q 39.56 36.84 39.74 36.74
  A 0.86 0.86 0.0 0 1 40.66 36.79
  L 46.52 40.99
  A 1.89 1.87 7.2 0 1 47.21 41.87
  L 51.08 51.66
  A 0.19 0.05 -51.8 0 1 51.01 51.82
  Q 50.99 51.85 50.96 51.88
  Z"
/>
</svg>
