<?xml version="1.0" encoding="UTF-8" standalone="no"?>
<!DOCTYPE svg PUBLIC "-//W3C//DTD SVG 1.1//EN" "http://www.w3.org/Graphics/SVG/1.1/DTD/svg11.dtd">
<svg xmlns="http://www.w3.org/2000/svg" version="1.1" viewBox="0.00 0.00 66.00 88.00">
<g stroke-width="2.00" fill="none" stroke-linecap="butt">
<path stroke="#33662a" vector-effect="non-scaling-stroke" d="
  M 33.41 86.68
  Q 33.54 86.68 33.68 86.65
  A 0.08 0.06 -63.2 0 0 33.72 86.63
  Q 47.24 74.03 56.40 58.66
  C 64.89 44.39 68.56 26.13 56.63 12.88
  C 50.77 6.36 42.50 2.49 33.53 2.47
  C 24.56 2.46 16.28 6.31 10.39 12.81
  C -1.57 26.03 2.05 44.30 10.50 58.59
  Q 19.61 73.99 33.10 86.63
  A 0.08 0.06 63.3 0 0 33.14 86.65
  Q 33.27 86.68 33.41 86.68"
/>
<path stroke="#9ab27d" vector-effect="non-scaling-stroke" d="
  M 14.7100 21.8206
  A 11.11 6.04 -179.9 0 0 25.8095 27.8800
  A 11.11 6.04 -179.9 0 0 36.9300 21.8594
  A 11.11 6.04 -179.9 0 0 25.8305 15.8000
  A 11.11 6.04 -179.9 0 0 14.7100 21.8206"
/>
<path stroke="#9ab27d" vector-effect="non-scaling-stroke" d="
  M 25.70 32.26
  C 29.65 32.27 37.16 30.78 36.83 25.56
  A 0.22 0.22 0.0 0 0 36.41 25.48
  C 34.95 28.85 28.93 29.80 25.71 29.78
  C 22.48 29.77 16.47 28.78 15.04 25.40
  A 0.22 0.22 0.0 0 0 14.62 25.47
  C 14.24 30.69 21.74 32.24 25.70 32.26"
/>
<path stroke="#9ab27d" vector-effect="non-scaling-stroke" d="
  M 14.57 29.81
  C 14.50 35.23 22.36 36.84 26.56 36.60
  A 0.76 0.76 0.0 0 0 27.28 35.84
  L 27.28 34.62
  A 0.53 0.53 0.0 0 0 26.72 34.09
  C 22.43 34.30 17.64 33.16 14.95 29.68
  A 0.21 0.21 0.0 0 0 14.57 29.81"
/>
<path stroke="#9ab27d" vector-effect="non-scaling-stroke" d="
  M 29.0000 37.5800
  A 11.12 6.04 -180.0 0 0 40.1200 43.6200
  A 11.12 6.04 -180.0 0 0 51.2400 37.5800
  A 11.12 6.04 -180.0 0 0 40.1200 31.5400
  A 11.12 6.04 -180.0 0 0 29.0000 37.5800"
/>
<path stroke="#9ab27d" vector-effect="non-scaling-stroke" d="
  M 14.66 34.09
  C 14.50 39.36 22.12 41.05 26.21 40.89
  A 0.74 0.74 0.0 0 0 26.92 40.16
  L 26.94 38.97
  A 0.52 0.52 0.0 0 0 26.41 38.45
  C 22.23 38.58 17.59 37.40 15.03 33.97
  A 0.21 0.21 0.0 0 0 14.66 34.09"
/>
<path stroke="#9ab27d" vector-effect="non-scaling-stroke" d="
  M 14.58 38.22
  C 14.38 43.51 22.01 45.28 26.12 45.15
  A 0.74 0.74 0.0 0 0 26.84 44.43
  L 26.87 43.24
  A 0.52 0.52 0.0 0 0 26.34 42.71
  C 22.14 42.80 17.50 41.57 14.96 38.11
  A 0.21 0.21 0.0 0 0 14.58 38.22"
/>
<path stroke="#9ab27d" vector-effect="non-scaling-stroke" d="
  M 40.38 47.92
  C 44.33 47.84 51.78 46.18 51.33 40.98
  A 0.22 0.22 0.0 0 0 50.91 40.92
  C 49.53 44.31 43.55 45.39 40.34 45.45
  C 37.12 45.51 31.10 44.67 29.60 41.33
  A 0.22 0.22 0.0 0 0 29.18 41.41
  C 28.93 46.62 36.44 47.99 40.38 47.92"
/>
<path stroke="#9ab27d" vector-effect="non-scaling-stroke" d="
  M 40.35 52.28
  C 44.32 52.21 51.81 50.57 51.37 45.34
  A 0.22 0.22 0.0 0 0 50.95 45.27
  C 49.55 48.68 43.54 49.74 40.31 49.80
  C 37.08 49.85 31.04 48.98 29.54 45.63
  A 0.22 0.22 0.0 0 0 29.12 45.71
  C 28.85 50.94 36.39 52.34 40.35 52.28"
/>
</g>
<path fill="#21461b" d="
  M 33.81 88.00
  L 33.04 88.00
  C 21.80 77.79 12.02 65.60 5.64 51.56
  Q 2.17 43.91 1.59 34.88
  Q 1.01 25.89 5.12 18.24
  C 17.31 -4.42 49.63 -4.14 61.85 18.21
  C 67.44 28.45 65.97 40.99 61.31 51.54
  C 55.19 65.40 44.96 77.82 33.81 88.00
  Z
  M 33.41 86.68
  Q 33.54 86.68 33.68 86.65
  A 0.08 0.06 -63.2 0 0 33.72 86.63
  Q 47.24 74.03 56.40 58.66
  C 64.89 44.39 68.56 26.13 56.63 12.88
  C 50.77 6.36 42.50 2.49 33.53 2.47
  C 24.56 2.46 16.28 6.31 10.39 12.81
  C -1.57 26.03 2.05 44.30 10.50 58.59
  Q 19.61 73.99 33.10 86.63
  A 0.08 0.06 63.3 0 0 33.14 86.65
  Q 33.27 86.68 33.41 86.68
  Z"
/>
<path fill="#448538" d="
  M 33.53 2.47
  C 42.50 2.49 50.77 6.36 56.63 12.88
  C 68.56 26.13 64.89 44.39 56.40 58.66
  Q 47.24 74.03 33.72 86.63
  A 0.08 0.06 -63.2 0 1 33.68 86.65
  Q 33.54 86.68 33.41 86.68
  Q 33.27 86.68 33.14 86.65
  A 0.08 0.06 63.3 0 1 33.10 86.63
  Q 19.61 73.99 10.50 58.59
  C 2.05 44.30 -1.57 26.03 10.39 12.81
  C 16.28 6.31 24.56 2.46 33.53 2.47
  Z
  M 14.7100 21.8206
  A 11.11 6.04 -179.9 0 0 25.8095 27.8800
  A 11.11 6.04 -179.9 0 0 36.9300 21.8594
  A 11.11 6.04 -179.9 0 0 25.8305 15.8000
  A 11.11 6.04 -179.9 0 0 14.7100 21.8206
  Z
  M 25.70 32.26
  C 29.65 32.27 37.16 30.78 36.83 25.56
  A 0.22 0.22 0.0 0 0 36.41 25.48
  C 34.95 28.85 28.93 29.80 25.71 29.78
  C 22.48 29.77 16.47 28.78 15.04 25.40
  A 0.22 0.22 0.0 0 0 14.62 25.47
  C 14.24 30.69 21.74 32.24 25.70 32.26
  Z
  M 14.57 29.81
  C 14.50 35.23 22.36 36.84 26.56 36.60
  A 0.76 0.76 0.0 0 0 27.28 35.84
  L 27.28 34.62
  A 0.53 0.53 0.0 0 0 26.72 34.09
  C 22.43 34.30 17.64 33.16 14.95 29.68
  A 0.21 0.21 0.0 0 0 14.57 29.81
  Z
  M 29.0000 37.5800
  A 11.12 6.04 -180.0 0 0 40.1200 43.6200
  A 11.12 6.04 -180.0 0 0 51.2400 37.5800
  A 11.12 6.04 -180.0 0 0 40.1200 31.5400
  A 11.12 6.04 -180.0 0 0 29.0000 37.5800
  Z
  M 14.66 34.09
  C 14.50 39.36 22.12 41.05 26.21 40.89
  A 0.74 0.74 0.0 0 0 26.92 40.16
  L 26.94 38.97
  A 0.52 0.52 0.0 0 0 26.41 38.45
  C 22.23 38.58 17.59 37.40 15.03 33.97
  A 0.21 0.21 0.0 0 0 14.66 34.09
  Z
  M 14.58 38.22
  C 14.38 43.51 22.01 45.28 26.12 45.15
  A 0.74 0.74 0.0 0 0 26.84 44.43
  L 26.87 43.24
  A 0.52 0.52 0.0 0 0 26.34 42.71
  C 22.14 42.80 17.50 41.57 14.96 38.11
  A 0.21 0.21 0.0 0 0 14.58 38.22
  Z
  M 40.38 47.92
  C 44.33 47.84 51.78 46.18 51.33 40.98
  A 0.22 0.22 0.0 0 0 50.91 40.92
  C 49.53 44.31 43.55 45.39 40.34 45.45
  C 37.12 45.51 31.10 44.67 29.60 41.33
  A 0.22 0.22 0.0 0 0 29.18 41.41
  C 28.93 46.62 36.44 47.99 40.38 47.92
  Z
  M 40.35 52.28
  C 44.32 52.21 51.81 50.57 51.37 45.34
  A 0.22 0.22 0.0 0 0 50.95 45.27
  C 49.55 48.68 43.54 49.74 40.31 49.80
  C 37.08 49.85 31.04 48.98 29.54 45.63
  A 0.22 0.22 0.0 0 0 29.12 45.71
  C 28.85 50.94 36.39 52.34 40.35 52.28
  Z"
/>
<ellipse fill="#f0dfc1" cx="0.00" cy="0.00" transform="translate(25.82,21.84) rotate(-179.9)" rx="11.11" ry="6.04"/>
<path fill="#f0dfc1" d="
  M 25.71 29.78
  C 28.93 29.80 34.95 28.85 36.41 25.48
  A 0.22 0.22 0.0 0 1 36.83 25.56
  C 37.16 30.78 29.65 32.27 25.70 32.26
  C 21.74 32.24 14.24 30.69 14.62 25.47
  A 0.22 0.22 0.0 0 1 15.04 25.40
  C 16.47 28.78 22.48 29.77 25.71 29.78
  Z"
/>
<path fill="#f0dfc1" d="
  M 14.95 29.68
  C 17.64 33.16 22.43 34.30 26.72 34.09
  A 0.53 0.53 0.0 0 1 27.28 34.62
  L 27.28 35.84
  A 0.76 0.76 0.0 0 1 26.56 36.60
  C 22.36 36.84 14.50 35.23 14.57 29.81
  A 0.21 0.21 0.0 0 1 14.95 29.68
  Z"
/>
<ellipse fill="#f0dfc1" cx="0.00" cy="0.00" transform="translate(40.12,37.58) rotate(-180.0)" rx="11.12" ry="6.04"/>
<path fill="#f0dfc1" d="
  M 14.66 34.09
  A 0.21 0.21 0.0 0 1 15.03 33.97
  C 17.59 37.40 22.23 38.58 26.41 38.45
  A 0.52 0.52 0.0 0 1 26.94 38.97
  L 26.92 40.16
  A 0.74 0.74 0.0 0 1 26.21 40.89
  C 22.12 41.05 14.50 39.36 14.66 34.09
  Z"
/>
<path fill="#f0dfc1" d="
  M 14.58 38.22
  A 0.21 0.21 0.0 0 1 14.96 38.11
  C 17.50 41.57 22.14 42.80 26.34 42.71
  A 0.52 0.52 0.0 0 1 26.87 43.24
  L 26.84 44.43
  A 0.74 0.74 0.0 0 1 26.12 45.15
  C 22.01 45.28 14.38 43.51 14.58 38.22
  Z"
/>
<path fill="#f0dfc1" d="
  M 40.38 47.92
  C 36.44 47.99 28.93 46.62 29.18 41.41
  A 0.22 0.22 0.0 0 1 29.60 41.33
  C 31.10 44.67 37.12 45.51 40.34 45.45
  C 43.55 45.39 49.53 44.31 50.91 40.92
  A 0.22 0.22 0.0 0 1 51.33 40.98
  C 51.78 46.18 44.33 47.84 40.38 47.92
  Z"
/>
<path fill="#f0dfc1" d="
  M 40.35 52.28
  C 36.39 52.34 28.85 50.94 29.12 45.71
  A 0.22 0.22 0.0 0 1 29.54 45.63
  C 31.04 48.98 37.08 49.85 40.31 49.80
  C 43.54 49.74 49.55 48.68 50.95 45.27
  A 0.22 0.22 0.0 0 1 51.37 45.34
  C 51.81 50.57 44.32 52.21 40.35 52.28
  Z"
/>
</svg>
