<?xml version="1.0" encoding="UTF-8" standalone="no"?>
<!DOCTYPE svg PUBLIC "-//W3C//DTD SVG 1.1//EN" "http://www.w3.org/Graphics/SVG/1.1/DTD/svg11.dtd">
<svg xmlns="http://www.w3.org/2000/svg" version="1.1" viewBox="0.00 0.00 66.00 88.00">
<g stroke-width="2.00" fill="none" stroke-linecap="butt">
<path stroke="#750d21" vector-effect="non-scaling-stroke" d="
  M 33.44 86.63
  Q 33.68 86.63 33.74 86.57
  Q 44.68 76.38 53.26 63.76
  C 62.80 49.74 70.03 29.30 57.88 14.33
  C 51.87 6.93 43.23 2.48 33.49 2.47
  C 23.76 2.46 15.11 6.91 9.09 14.31
  C -3.08 29.26 4.13 49.71 13.65 63.74
  Q 22.22 76.37 33.15 86.57
  Q 33.21 86.63 33.44 86.63"
/>
<path stroke="#c57977" vector-effect="non-scaling-stroke" d="
  M 32.82 50.70
  Q 36.47 50.70 39.99 49.36
  A 1.36 1.34 -2.3 0 0 40.80 48.49
  L 41.87 45.00
  A 1.16 1.16 0.0 0 1 42.70 44.21
  L 45.99 43.39
  A 1.84 1.79 -75.0 0 0 46.85 42.88
  C 48.97 40.61 46.61 38.04 46.26 36.40
  A 3.78 3.71 -42.2 0 1 46.37 34.48
  L 47.37 31.38
  A 2.67 2.51 57.3 0 0 47.49 30.74
  Q 47.88 24.62 43.96 20.76
  C 40.75 17.60 37.32 16.77 32.77 16.77
  C 28.22 16.78 24.80 17.62 21.60 20.79
  Q 17.69 24.66 18.09 30.78
  A 2.67 2.51 -57.5 0 0 18.22 31.42
  L 19.22 34.51
  A 3.78 3.71 42.1 0 1 19.34 36.43
  C 18.99 38.07 16.64 40.65 18.77 42.92
  A 1.84 1.79 74.8 0 0 19.63 43.42
  L 22.92 44.24
  A 1.16 1.16 0.0 0 1 23.75 45.02
  L 24.83 48.51
  A 1.36 1.34 2.2 0 0 25.64 49.38
  Q 29.17 50.71 32.82 50.70"
/>
<path stroke="#c57977" vector-effect="non-scaling-stroke" d="
  M 30.9381 36.7738
  A 4.76 3.94 -5.5 0 0 25.8224 33.3081
  A 4.76 3.94 -5.5 0 0 21.4619 37.6862
  A 4.76 3.94 -5.5 0 0 26.5776 41.1519
  A 4.76 3.94 -5.5 0 0 30.9381 36.7738"
/>
<path stroke="#c57977" vector-effect="non-scaling-stroke" d="
  M 44.2091 37.1284
  A 4.77 3.87 -1.1 0 0 39.3657 33.3507
  A 4.77 3.87 -1.1 0 0 34.6709 37.3116
  A 4.77 3.87 -1.1 0 0 39.5143 41.0893
  A 4.77 3.87 -1.1 0 0 44.2091 37.1284"
/>
<path stroke="#c57977" vector-effect="non-scaling-stroke" d="
  M 33.05 45.63
  L 34.54 46.08
  A 1.00 1.00 0.0 0 0 35.81 44.88
  Q 35.32 42.94 33.89 40.93
  A 1.31 1.30 46.2 0 0 31.80 40.88
  Q 30.32 42.80 29.86 44.60
  A 1.31 1.31 0.0 0 0 31.90 45.98
  L 32.17 45.78
  A 0.98 0.98 0.0 0 1 33.05 45.63"
/>
</g>
<path fill="#500815" d="
  M 33.81 88.00
  L 33.05 88.00
  C 21.75 77.74 12.14 65.70 5.66 51.55
  C 0.31 39.87 -0.71 24.78 7.83 13.97
  C 16.57 2.89 31.42 -1.86 44.84 3.42
  Q 61.12 9.81 64.87 26.79
  C 67.60 39.14 61.48 53.79 54.23 64.46
  Q 45.46 77.37 33.81 88.00
  Z
  M 33.44 86.63
  Q 33.68 86.63 33.74 86.57
  Q 44.68 76.38 53.26 63.76
  C 62.80 49.74 70.03 29.30 57.88 14.33
  C 51.87 6.93 43.23 2.48 33.49 2.47
  C 23.76 2.46 15.11 6.91 9.09 14.31
  C -3.08 29.26 4.13 49.71 13.65 63.74
  Q 22.22 76.37 33.15 86.57
  Q 33.21 86.63 33.44 86.63
  Z"
/>
<path fill="#99122d" d="
  M 33.49 2.47
  C 43.23 2.48 51.87 6.93 57.88 14.33
  C 70.03 29.30 62.80 49.74 53.26 63.76
  Q 44.68 76.38 33.74 86.57
  Q 33.68 86.63 33.44 86.63
  Q 33.21 86.63 33.15 86.57
  Q 22.22 76.37 13.65 63.74
  C 4.13 49.71 -3.08 29.26 9.09 14.31
  C 15.11 6.91 23.76 2.46 33.49 2.47
  Z
  M 32.82 50.70
  Q 36.47 50.70 39.99 49.36
  A 1.36 1.34 -2.3 0 0 40.80 48.49
  L 41.87 45.00
  A 1.16 1.16 0.0 0 1 42.70 44.21
  L 45.99 43.39
  A 1.84 1.79 -75.0 0 0 46.85 42.88
  C 48.97 40.61 46.61 38.04 46.26 36.40
  A 3.78 3.71 -42.2 0 1 46.37 34.48
  L 47.37 31.38
  A 2.67 2.51 57.3 0 0 47.49 30.74
  Q 47.88 24.62 43.96 20.76
  C 40.75 17.60 37.32 16.77 32.77 16.77
  C 28.22 16.78 24.80 17.62 21.60 20.79
  Q 17.69 24.66 18.09 30.78
  A 2.67 2.51 -57.5 0 0 18.22 31.42
  L 19.22 34.51
  A 3.78 3.71 42.1 0 1 19.34 36.43
  C 18.99 38.07 16.64 40.65 18.77 42.92
  A 1.84 1.79 74.8 0 0 19.63 43.42
  L 22.92 44.24
  A 1.16 1.16 0.0 0 1 23.75 45.02
  L 24.83 48.51
  A 1.36 1.34 2.2 0 0 25.64 49.38
  Q 29.17 50.71 32.82 50.70
  Z"
/>
<path fill="#f0dfc1" d="
  M 32.77 16.77
  C 37.32 16.77 40.75 17.60 43.96 20.76
  Q 47.88 24.62 47.49 30.74
  A 2.67 2.51 57.3 0 1 47.37 31.38
  L 46.37 34.48
  A 3.78 3.71 -42.2 0 0 46.26 36.40
  C 46.61 38.04 48.97 40.61 46.85 42.88
  A 1.84 1.79 -75.0 0 1 45.99 43.39
  L 42.70 44.21
  A 1.16 1.16 0.0 0 0 41.87 45.00
  L 40.80 48.49
  A 1.36 1.34 -2.3 0 1 39.99 49.36
  Q 36.47 50.70 32.82 50.70
  Q 29.17 50.71 25.64 49.38
  A 1.36 1.34 2.2 0 1 24.83 48.51
  L 23.75 45.02
  A 1.16 1.16 0.0 0 0 22.92 44.24
  L 19.63 43.42
  A 1.84 1.79 74.8 0 1 18.77 42.92
  C 16.64 40.65 18.99 38.07 19.34 36.43
  A 3.78 3.71 42.1 0 0 19.22 34.51
  L 18.22 31.42
  A 2.67 2.51 -57.5 0 1 18.09 30.78
  Q 17.69 24.66 21.60 20.79
  C 24.80 17.62 28.22 16.78 32.77 16.77
  Z
  M 30.9381 36.7738
  A 4.76 3.94 -5.5 0 0 25.8224 33.3081
  A 4.76 3.94 -5.5 0 0 21.4619 37.6862
  A 4.76 3.94 -5.5 0 0 26.5776 41.1519
  A 4.76 3.94 -5.5 0 0 30.9381 36.7738
  Z
  M 44.2091 37.1284
  A 4.77 3.87 -1.1 0 0 39.3657 33.3507
  A 4.77 3.87 -1.1 0 0 34.6709 37.3116
  A 4.77 3.87 -1.1 0 0 39.5143 41.0893
  A 4.77 3.87 -1.1 0 0 44.2091 37.1284
  Z
  M 33.05 45.63
  L 34.54 46.08
  A 1.00 1.00 0.0 0 0 35.81 44.88
  Q 35.32 42.94 33.89 40.93
  A 1.31 1.30 46.2 0 0 31.80 40.88
  Q 30.32 42.80 29.86 44.60
  A 1.31 1.31 0.0 0 0 31.90 45.98
  L 32.17 45.78
  A 0.98 0.98 0.0 0 1 33.05 45.63
  Z"
/>
<ellipse fill="#99122d" cx="0.00" cy="0.00" transform="translate(26.20,37.23) rotate(-5.5)" rx="4.76" ry="3.94"/>
<ellipse fill="#99122d" cx="0.00" cy="0.00" transform="translate(39.44,37.22) rotate(-1.1)" rx="4.77" ry="3.87"/>
<path fill="#99122d" d="
  M 32.17 45.78
  L 31.90 45.98
  A 1.31 1.31 0.0 0 1 29.86 44.60
  Q 30.32 42.80 31.80 40.88
  A 1.31 1.30 46.2 0 1 33.89 40.93
  Q 35.32 42.94 35.81 44.88
  A 1.00 1.00 0.0 0 1 34.54 46.08
  L 33.05 45.63
  A 0.98 0.98 0.0 0 0 32.17 45.78
  Z"
/>
</svg>
