<?xml version="1.0" encoding="UTF-8" standalone="no"?>
<!DOCTYPE svg PUBLIC "-//W3C//DTD SVG 1.1//EN" "http://www.w3.org/Graphics/SVG/1.1/DTD/svg11.dtd">
<svg xmlns="http://www.w3.org/2000/svg" version="1.1" viewBox="0.00 0.00 66.00 88.00">
<g stroke-width="2.00" fill="none" stroke-linecap="butt">
<path stroke="#313930" vector-effect="non-scaling-stroke" d="
  M 33.42 86.60
  C 33.58 86.60 33.72 86.59 33.82 86.49
  Q 49.88 71.02 57.56 56.53
  Q 62.65 46.93 63.80 38.50
  Q 66.72 17.11 48.08 6.21
  Q 41.71 2.48 33.51 2.47
  Q 25.31 2.46 18.94 6.17
  Q 0.27 17.04 3.15 38.43
  Q 4.28 46.86 9.35 56.48
  Q 16.99 70.98 33.02 86.49
  C 33.12 86.59 33.26 86.60 33.42 86.60"
/>
<path stroke="#989580" vector-effect="non-scaling-stroke" d="
  M 47.21 33.99
  Q 47.22 47.46 47.19 47.72
  A 0.60 0.59 -86.3 0 1 46.60 48.24
  L 19.33 48.25
  A 0.55 0.54 89.5 0 1 18.78 47.70
  L 18.78 40.48
  A 0.47 0.47 0.0 0 0 18.31 40.01
  L 15.15 40.01
  A 0.48 0.48 0.0 0 0 14.67 40.48
  Q 14.65 42.03 14.69 47.93
  C 14.71 49.84 16.00 52.24 17.79 52.24
  Q 44.67 52.24 46.75 52.24
  Q 49.40 52.25 50.61 50.36
  Q 51.30 49.27 51.33 46.02
  Q 51.34 45.35 51.33 33.99
  Q 51.33 22.63 51.32 21.95
  Q 51.28 18.71 50.59 17.62
  Q 49.38 15.73 46.73 15.74
  Q 44.65 15.74 17.77 15.77
  C 15.98 15.78 14.69 18.18 14.67 20.09
  Q 14.64 25.99 14.66 27.54
  A 0.48 0.48 0.0 0 0 15.14 28.01
  L 18.30 28.00
  A 0.47 0.47 0.0 0 0 18.77 27.53
  L 18.76 20.31
  A 0.55 0.54 -89.6 0 1 19.31 19.76
  L 46.58 19.74
  A 0.60 0.59 86.2 0 1 47.17 20.27
  Q 47.20 20.52 47.21 33.99"
/>
<path stroke="#989580" vector-effect="non-scaling-stroke" d="
  M 14.68 33.99
  Q 14.68 34.63 14.70 35.35
  A 0.69 0.69 0.0 0 0 15.39 36.01
  L 33.56 36.01
  A 0.32 0.32 0.0 0 1 33.79 36.56
  L 29.54 40.81
  A 0.71 0.70 45.3 0 0 29.54 41.80
  L 31.55 43.81
  A 0.59 0.59 0.0 0 0 32.39 43.81
  Q 38.50 37.70 41.91 34.26
  Q 41.92 34.25 41.95 34.12
  Q 41.96 34.06 41.96 34.00
  Q 41.96 33.94 41.95 33.88
  Q 41.92 33.75 41.91 33.74
  Q 38.50 30.30 32.40 24.19
  A 0.59 0.59 0.0 0 0 31.56 24.19
  L 29.54 26.20
  A 0.71 0.70 -45.3 0 0 29.54 27.19
  L 33.79 31.44
  A 0.32 0.32 0.0 0 1 33.56 31.99
  L 15.39 31.98
  A 0.69 0.69 0.0 0 0 14.70 32.64
  Q 14.68 33.36 14.68 33.99"
/>
</g>
<path fill="#212820" d="
  M 33.81 88.00
  L 33.04 88.00
  C 21.71 77.71 12.21 65.76 5.68 51.55
  Q 2.12 43.82 1.58 34.89
  C 0.42 15.85 16.17 0.23 35.42 1.38
  C 51.95 2.38 65.57 15.94 65.47 32.66
  Q 65.42 39.37 63.58 45.31
  C 58.53 61.58 46.33 76.57 33.81 88.00
  Z
  M 33.42 86.60
  C 33.58 86.60 33.72 86.59 33.82 86.49
  Q 49.88 71.02 57.56 56.53
  Q 62.65 46.93 63.80 38.50
  Q 66.72 17.11 48.08 6.21
  Q 41.71 2.48 33.51 2.47
  Q 25.31 2.46 18.94 6.17
  Q 0.27 17.04 3.15 38.43
  Q 4.28 46.86 9.35 56.48
  Q 16.99 70.98 33.02 86.49
  C 33.12 86.59 33.26 86.60 33.42 86.60
  Z"
/>
<path fill="#404a3f" d="
  M 33.51 2.47
  Q 41.71 2.48 48.08 6.21
  Q 66.72 17.11 63.80 38.50
  Q 62.65 46.93 57.56 56.53
  Q 49.88 71.02 33.82 86.49
  C 33.72 86.59 33.58 86.60 33.42 86.60
  C 33.26 86.60 33.12 86.59 33.02 86.49
  Q 16.99 70.98 9.35 56.48
  Q 4.28 46.86 3.15 38.43
  Q 0.27 17.04 18.94 6.17
  Q 25.31 2.46 33.51 2.47
  Z
  M 47.21 33.99
  Q 47.22 47.46 47.19 47.72
  A 0.60 0.59 -86.3 0 1 46.60 48.24
  L 19.33 48.25
  A 0.55 0.54 89.5 0 1 18.78 47.70
  L 18.78 40.48
  A 0.47 0.47 0.0 0 0 18.31 40.01
  L 15.15 40.01
  A 0.48 0.48 0.0 0 0 14.67 40.48
  Q 14.65 42.03 14.69 47.93
  C 14.71 49.84 16.00 52.24 17.79 52.24
  Q 44.67 52.24 46.75 52.24
  Q 49.40 52.25 50.61 50.36
  Q 51.30 49.27 51.33 46.02
  Q 51.34 45.35 51.33 33.99
  Q 51.33 22.63 51.32 21.95
  Q 51.28 18.71 50.59 17.62
  Q 49.38 15.73 46.73 15.74
  Q 44.65 15.74 17.77 15.77
  C 15.98 15.78 14.69 18.18 14.67 20.09
  Q 14.64 25.99 14.66 27.54
  A 0.48 0.48 0.0 0 0 15.14 28.01
  L 18.30 28.00
  A 0.47 0.47 0.0 0 0 18.77 27.53
  L 18.76 20.31
  A 0.55 0.54 -89.6 0 1 19.31 19.76
  L 46.58 19.74
  A 0.60 0.59 86.2 0 1 47.17 20.27
  Q 47.20 20.52 47.21 33.99
  Z
  M 14.68 33.99
  Q 14.68 34.63 14.70 35.35
  A 0.69 0.69 0.0 0 0 15.39 36.01
  L 33.56 36.01
  A 0.32 0.32 0.0 0 1 33.79 36.56
  L 29.54 40.81
  A 0.71 0.70 45.3 0 0 29.54 41.80
  L 31.55 43.81
  A 0.59 0.59 0.0 0 0 32.39 43.81
  Q 38.50 37.70 41.91 34.26
  Q 41.92 34.25 41.95 34.12
  Q 41.96 34.06 41.96 34.00
  Q 41.96 33.94 41.95 33.88
  Q 41.92 33.75 41.91 33.74
  Q 38.50 30.30 32.40 24.19
  A 0.59 0.59 0.0 0 0 31.56 24.19
  L 29.54 26.20
  A 0.71 0.70 -45.3 0 0 29.54 27.19
  L 33.79 31.44
  A 0.32 0.32 0.0 0 1 33.56 31.99
  L 15.39 31.98
  A 0.69 0.69 0.0 0 0 14.70 32.64
  Q 14.68 33.36 14.68 33.99
  Z"
/>
<path fill="#f0dfc1" d="
  M 51.33 33.99
  Q 51.34 45.35 51.33 46.02
  Q 51.30 49.27 50.61 50.36
  Q 49.40 52.25 46.75 52.24
  Q 44.67 52.24 17.79 52.24
  C 16.00 52.24 14.71 49.84 14.69 47.93
  Q 14.65 42.03 14.67 40.48
  A 0.48 0.48 0.0 0 1 15.15 40.01
  L 18.31 40.01
  A 0.47 0.47 0.0 0 1 18.78 40.48
  L 18.78 47.70
  A 0.55 0.54 89.5 0 0 19.33 48.25
  L 46.60 48.24
  A 0.60 0.59 -86.3 0 0 47.19 47.72
  Q 47.22 47.46 47.21 33.99
  Q 47.20 20.52 47.17 20.27
  A 0.60 0.59 86.2 0 0 46.58 19.74
  L 19.31 19.76
  A 0.55 0.54 -89.6 0 0 18.76 20.31
  L 18.77 27.53
  A 0.47 0.47 0.0 0 1 18.30 28.00
  L 15.14 28.01
  A 0.48 0.48 0.0 0 1 14.66 27.54
  Q 14.64 25.99 14.67 20.09
  C 14.69 18.18 15.98 15.78 17.77 15.77
  Q 44.65 15.74 46.73 15.74
  Q 49.38 15.73 50.59 17.62
  Q 51.28 18.71 51.32 21.95
  Q 51.33 22.63 51.33 33.99
  Z"
/>
<path fill="#f0dfc1" d="
  M 41.96 34.00
  Q 41.96 34.06 41.95 34.12
  Q 41.92 34.25 41.91 34.26
  Q 38.50 37.70 32.39 43.81
  A 0.59 0.59 0.0 0 1 31.55 43.81
  L 29.54 41.80
  A 0.71 0.70 45.3 0 1 29.54 40.81
  L 33.79 36.56
  A 0.32 0.32 0.0 0 0 33.56 36.01
  L 15.39 36.01
  A 0.69 0.69 0.0 0 1 14.70 35.35
  Q 14.68 34.63 14.68 33.99
  Q 14.68 33.36 14.70 32.64
  A 0.69 0.69 0.0 0 1 15.39 31.98
  L 33.56 31.99
  A 0.32 0.32 0.0 0 0 33.79 31.44
  L 29.54 27.19
  A 0.71 0.70 -45.3 0 1 29.54 26.20
  L 31.56 24.19
  A 0.59 0.59 0.0 0 1 32.40 24.19
  Q 38.50 30.30 41.91 33.74
  Q 41.92 33.75 41.95 33.88
  Q 41.96 33.94 41.96 34.00
  Z"
/>
</svg>
