<?xml version="1.0" encoding="UTF-8" standalone="no"?>
<!DOCTYPE svg PUBLIC "-//W3C//DTD SVG 1.1//EN" "http://www.w3.org/Graphics/SVG/1.1/DTD/svg11.dtd">
<svg xmlns="http://www.w3.org/2000/svg" version="1.1" viewBox="0.00 0.00 66.00 88.00">
<g stroke-width="2.00" fill="none" stroke-linecap="butt">
<path stroke="#3a3882" vector-effect="non-scaling-stroke" d="
  M 33.41 86.70
  Q 33.54 86.70 33.62 86.68
  Q 33.67 86.67 33.77 86.58
  C 50.54 70.95 75.52 39.00 58.93 15.80
  C 53.02 7.51 43.98 2.53 33.52 2.52
  C 23.06 2.50 14.01 7.46 8.07 15.73
  C -8.57 38.89 16.33 70.91 33.06 86.58
  Q 33.16 86.67 33.21 86.68
  Q 33.28 86.70 33.41 86.70"
/>
<path stroke="#9f95b6" vector-effect="non-scaling-stroke" d="
  M 24.33 32.48
  L 17.86 32.48
  A 0.56 0.56 0.0 0 1 17.30 31.92
  L 17.33 22.63
  A 1.30 1.29 0.2 0 0 16.03 21.33
  L 15.96 21.33
  A 1.29 1.28 90.0 0 0 14.68 22.62
  L 14.67 46.24
  A 0.50 0.49 90.0 0 0 15.16 46.74
  L 16.81 46.74
  A 0.51 0.51 0.0 0 0 17.32 46.23
  L 17.32 35.33
  A 0.58 0.58 0.0 0 1 17.90 34.75
  L 27.75 34.75
  A 0.69 0.69 0.0 0 1 28.44 35.37
  C 28.85 39.32 32.40 41.20 35.81 39.02
  A 2.24 2.21 -6.1 0 0 36.67 37.97
  L 37.18 36.64
  A 2.95 2.94 -79.4 0 1 39.92 34.76
  L 48.14 34.76
  A 0.53 0.53 0.0 0 1 48.67 35.29
  L 48.67 46.25
  A 0.50 0.49 90.0 0 0 49.16 46.75
  L 50.82 46.75
  A 0.52 0.52 0.0 0 0 51.34 46.23
  L 51.33 22.68
  A 1.35 1.34 -88.7 0 0 50.05 21.33
  L 49.98 21.32
  A 1.26 1.26 0.0 0 0 48.67 22.58
  L 48.68 31.93
  A 0.56 0.55 -0.0 0 1 48.12 32.48
  L 41.65 32.48
  A 0.72 0.72 0.0 0 1 40.95 31.94
  Q 39.88 27.77 35.54 27.30
  C 34.27 27.16 33.53 28.31 32.90 28.36
  A 2.07 2.02 -38.6 0 1 32.10 28.28
  Q 26.27 26.61 25.02 31.94
  A 0.71 0.70 6.7 0 1 24.33 32.48"
/>
<path stroke="#9f95b6" vector-effect="non-scaling-stroke" d="
  M 20.06 22.44
  L 20.06 28.63
  A 1.37 1.37 0.0 0 0 22.61 29.32
  Q 25.69 24.10 31.91 25.26
  A 1.78 1.78 0.0 0 0 32.92 25.16
  C 37.45 23.33 40.53 25.98 43.20 29.41
  A 1.54 1.53 -64.0 0 0 45.95 28.46
  L 45.95 22.47
  A 0.69 0.68 -88.2 0 0 45.31 21.78
  Q 32.48 20.92 20.68 21.77
  A 0.67 0.67 0.0 0 0 20.06 22.44"
/>
<path stroke="#9f95b6" vector-effect="non-scaling-stroke" d="
  M 32.98 46.75
  Q 45.22 46.74 45.29 46.75
  A 0.53 0.53 0.0 0 0 45.91 46.22
  L 45.90 38.09
  A 0.63 0.63 0.0 0 0 45.27 37.46
  L 40.80 37.46
  A 1.09 1.07 -74.4 0 0 39.87 37.99
  Q 37.07 42.71 32.97 42.72
  Q 28.88 42.72 26.06 38.01
  A 1.09 1.07 74.2 0 0 25.14 37.48
  L 20.67 37.49
  A 0.63 0.63 0.0 0 0 20.04 38.12
  L 20.05 46.25
  A 0.53 0.53 0.0 0 0 20.67 46.78
  Q 20.74 46.76 32.98 46.75"
/>
<path stroke="#9f95b6" vector-effect="non-scaling-stroke" d="
  M 34.8596 30.0720
  A 2.13 1.32 -137.9 0 0 35.5550 32.4794
  A 2.13 1.32 -137.9 0 0 38.0204 32.9280
  A 2.13 1.32 -137.9 0 0 37.3250 30.5206
  A 2.13 1.32 -137.9 0 0 34.8596 30.0720"
/>
<path stroke="#9f95b6" vector-effect="non-scaling-stroke" d="
  M 31.0482 31.1227
  A 1.70 1.18 -11.1 0 0 29.1528 30.2921
  A 1.70 1.18 -11.1 0 0 27.7118 31.7773
  A 1.70 1.18 -11.1 0 0 29.6072 32.6079
  A 1.70 1.18 -11.1 0 0 31.0482 31.1227"
/>
<path stroke="#9f95b6" vector-effect="non-scaling-stroke" d="
  M 34.46 35.86
  A 1.67 1.67 0.0 0 0 32.79 34.19
  A 1.67 1.67 0.0 0 0 31.12 35.86
  A 1.67 1.67 0.0 0 0 32.79 37.53
  A 1.67 1.67 0.0 0 0 34.46 35.86"
/>
</g>
<path fill="#262659" d="
  M 33.81 88.00
  L 33.13 88.00
  Q 15.43 72.27 5.96 52.53
  Q 3.48 47.36 2.04 39.24
  Q 0.56 30.85 3.05 23.13
  C 7.13 10.49 18.77 2.07 31.97 1.37
  C 44.73 0.69 57.22 7.99 62.61 19.67
  C 73.76 43.86 50.33 72.90 33.81 88.00
  Z
  M 33.41 86.70
  Q 33.54 86.70 33.62 86.68
  Q 33.67 86.67 33.77 86.58
  C 50.54 70.95 75.52 39.00 58.93 15.80
  C 53.02 7.51 43.98 2.53 33.52 2.52
  C 23.06 2.50 14.01 7.46 8.07 15.73
  C -8.57 38.89 16.33 70.91 33.06 86.58
  Q 33.16 86.67 33.21 86.68
  Q 33.28 86.70 33.41 86.70
  Z"
/>
<path fill="#4e4aab" d="
  M 33.52 2.52
  C 43.98 2.53 53.02 7.51 58.93 15.80
  C 75.52 39.00 50.54 70.95 33.77 86.58
  Q 33.67 86.67 33.62 86.68
  Q 33.54 86.70 33.41 86.70
  Q 33.28 86.70 33.21 86.68
  Q 33.16 86.67 33.06 86.58
  C 16.33 70.91 -8.57 38.89 8.07 15.73
  C 14.01 7.46 23.06 2.50 33.52 2.52
  Z
  M 24.33 32.48
  L 17.86 32.48
  A 0.56 0.56 0.0 0 1 17.30 31.92
  L 17.33 22.63
  A 1.30 1.29 0.2 0 0 16.03 21.33
  L 15.96 21.33
  A 1.29 1.28 90.0 0 0 14.68 22.62
  L 14.67 46.24
  A 0.50 0.49 90.0 0 0 15.16 46.74
  L 16.81 46.74
  A 0.51 0.51 0.0 0 0 17.32 46.23
  L 17.32 35.33
  A 0.58 0.58 0.0 0 1 17.90 34.75
  L 27.75 34.75
  A 0.69 0.69 0.0 0 1 28.44 35.37
  C 28.85 39.32 32.40 41.20 35.81 39.02
  A 2.24 2.21 -6.1 0 0 36.67 37.97
  L 37.18 36.64
  A 2.95 2.94 -79.4 0 1 39.92 34.76
  L 48.14 34.76
  A 0.53 0.53 0.0 0 1 48.67 35.29
  L 48.67 46.25
  A 0.50 0.49 90.0 0 0 49.16 46.75
  L 50.82 46.75
  A 0.52 0.52 0.0 0 0 51.34 46.23
  L 51.33 22.68
  A 1.35 1.34 -88.7 0 0 50.05 21.33
  L 49.98 21.32
  A 1.26 1.26 0.0 0 0 48.67 22.58
  L 48.68 31.93
  A 0.56 0.55 -0.0 0 1 48.12 32.48
  L 41.65 32.48
  A 0.72 0.72 0.0 0 1 40.95 31.94
  Q 39.88 27.77 35.54 27.30
  C 34.27 27.16 33.53 28.31 32.90 28.36
  A 2.07 2.02 -38.6 0 1 32.10 28.28
  Q 26.27 26.61 25.02 31.94
  A 0.71 0.70 6.7 0 1 24.33 32.48
  Z
  M 20.06 22.44
  L 20.06 28.63
  A 1.37 1.37 0.0 0 0 22.61 29.32
  Q 25.69 24.10 31.91 25.26
  A 1.78 1.78 0.0 0 0 32.92 25.16
  C 37.45 23.33 40.53 25.98 43.20 29.41
  A 1.54 1.53 -64.0 0 0 45.95 28.46
  L 45.95 22.47
  A 0.69 0.68 -88.2 0 0 45.31 21.78
  Q 32.48 20.92 20.68 21.77
  A 0.67 0.67 0.0 0 0 20.06 22.44
  Z
  M 32.98 46.75
  Q 45.22 46.74 45.29 46.75
  A 0.53 0.53 0.0 0 0 45.91 46.22
  L 45.90 38.09
  A 0.63 0.63 0.0 0 0 45.27 37.46
  L 40.80 37.46
  A 1.09 1.07 -74.4 0 0 39.87 37.99
  Q 37.07 42.71 32.97 42.72
  Q 28.88 42.72 26.06 38.01
  A 1.09 1.07 74.2 0 0 25.14 37.48
  L 20.67 37.49
  A 0.63 0.63 0.0 0 0 20.04 38.12
  L 20.05 46.25
  A 0.53 0.53 0.0 0 0 20.67 46.78
  Q 20.74 46.76 32.98 46.75
  Z"
/>
<path fill="#f0dfc1" d="
  M 25.02 31.94
  Q 26.27 26.61 32.10 28.28
  A 2.07 2.02 -38.6 0 0 32.90 28.36
  C 33.53 28.31 34.27 27.16 35.54 27.30
  Q 39.88 27.77 40.95 31.94
  A 0.72 0.72 0.0 0 0 41.65 32.48
  L 48.12 32.48
  A 0.56 0.55 0.0 0 0 48.68 31.93
  L 48.67 22.58
  A 1.26 1.26 0.0 0 1 49.98 21.32
  L 50.05 21.33
  A 1.35 1.34 -88.7 0 1 51.33 22.68
  L 51.34 46.23
  A 0.52 0.52 0.0 0 1 50.82 46.75
  L 49.16 46.75
  A 0.50 0.49 90.0 0 1 48.67 46.25
  L 48.67 35.29
  A 0.53 0.53 0.0 0 0 48.14 34.76
  L 39.92 34.76
  A 2.95 2.94 -79.4 0 0 37.18 36.64
  L 36.67 37.97
  A 2.24 2.21 -6.1 0 1 35.81 39.02
  C 32.40 41.20 28.85 39.32 28.44 35.37
  A 0.69 0.69 0.0 0 0 27.75 34.75
  L 17.90 34.75
  A 0.58 0.58 0.0 0 0 17.32 35.33
  L 17.32 46.23
  A 0.51 0.51 0.0 0 1 16.81 46.74
  L 15.16 46.74
  A 0.50 0.49 -90.0 0 1 14.67 46.24
  L 14.68 22.62
  A 1.29 1.28 -90.0 0 1 15.96 21.33
  L 16.03 21.33
  A 1.30 1.29 0.2 0 1 17.33 22.63
  L 17.30 31.92
  A 0.56 0.56 0.0 0 0 17.86 32.48
  L 24.33 32.48
  A 0.71 0.70 6.7 0 0 25.02 31.94
  Z
  M 34.8596 30.0720
  A 2.13 1.32 -137.9 0 0 35.5550 32.4794
  A 2.13 1.32 -137.9 0 0 38.0204 32.9280
  A 2.13 1.32 -137.9 0 0 37.3250 30.5206
  A 2.13 1.32 -137.9 0 0 34.8596 30.0720
  Z
  M 31.0482 31.1227
  A 1.70 1.18 -11.1 0 0 29.1528 30.2921
  A 1.70 1.18 -11.1 0 0 27.7118 31.7773
  A 1.70 1.18 -11.1 0 0 29.6072 32.6079
  A 1.70 1.18 -11.1 0 0 31.0482 31.1227
  Z
  M 34.46 35.86
  A 1.67 1.67 0.0 0 0 32.79 34.19
  A 1.67 1.67 0.0 0 0 31.12 35.86
  A 1.67 1.67 0.0 0 0 32.79 37.53
  A 1.67 1.67 0.0 0 0 34.46 35.86
  Z"
/>
<path fill="#f0dfc1" d="
  M 20.68 21.77
  Q 32.48 20.92 45.31 21.78
  A 0.69 0.68 -88.2 0 1 45.95 22.47
  L 45.95 28.46
  A 1.54 1.53 -64.0 0 1 43.20 29.41
  C 40.53 25.98 37.45 23.33 32.92 25.16
  A 1.78 1.78 0.0 0 1 31.91 25.26
  Q 25.69 24.10 22.61 29.32
  A 1.37 1.37 0.0 0 1 20.06 28.63
  L 20.06 22.44
  A 0.67 0.67 0.0 0 1 20.68 21.77
  Z"
/>
<ellipse fill="#4e4aab" cx="0.00" cy="0.00" transform="translate(36.44,31.50) rotate(-137.9)" rx="2.13" ry="1.32"/>
<ellipse fill="#4e4aab" cx="0.00" cy="0.00" transform="translate(29.38,31.45) rotate(-11.1)" rx="1.70" ry="1.18"/>
<circle fill="#4e4aab" cx="32.79" cy="35.86" r="1.67"/>
<path fill="#f0dfc1" d="
  M 32.97 42.72
  Q 37.07 42.71 39.87 37.99
  A 1.09 1.07 -74.4 0 1 40.80 37.46
  L 45.27 37.46
  A 0.63 0.63 0.0 0 1 45.90 38.09
  L 45.91 46.22
  A 0.53 0.53 0.0 0 1 45.29 46.75
  Q 45.22 46.74 32.98 46.75
  Q 20.74 46.76 20.67 46.78
  A 0.53 0.53 0.0 0 1 20.05 46.25
  L 20.04 38.12
  A 0.63 0.63 0.0 0 1 20.67 37.49
  L 25.14 37.48
  A 1.09 1.07 74.2 0 1 26.06 38.01
  Q 28.88 42.72 32.97 42.72
  Z"
/>
</svg>
