<?xml version="1.0" encoding="UTF-8" standalone="no"?>
<!DOCTYPE svg PUBLIC "-//W3C//DTD SVG 1.1//EN" "http://www.w3.org/Graphics/SVG/1.1/DTD/svg11.dtd">
<svg xmlns="http://www.w3.org/2000/svg" version="1.1" viewBox="0.00 0.00 66.00 88.00">
<g stroke-width="2.00" fill="none" stroke-linecap="butt">
<path stroke="#602e09" vector-effect="non-scaling-stroke" d="
  M 33.44 86.67
  Q 33.52 86.67 33.60 86.66
  Q 33.67 86.64 33.74 86.58
  C 46.43 74.56 58.31 59.78 62.91 43.05
  C 66.54 29.85 62.99 16.84 51.90 8.55
  C 46.89 4.80 40.21 2.49 33.52 2.49
  C 26.83 2.48 20.15 4.77 15.13 8.51
  C 4.02 16.78 0.45 29.78 4.05 42.99
  C 8.61 59.73 20.46 74.53 33.13 86.58
  Q 33.20 86.64 33.27 86.66
  Q 33.35 86.67 33.44 86.67"
/>
<path stroke="#b78e67" vector-effect="non-scaling-stroke" d="
  M 32.98 23.53
  Q 35.80 23.53 38.01 25.67
  A 0.59 0.57 -37.2 0 0 38.69 25.76
  L 41.91 23.90
  A 0.46 0.46 0.0 0 0 42.09 23.29
  C 40.30 19.94 37.13 15.83 32.98 15.83
  C 28.83 15.82 25.66 19.93 23.87 23.28
  A 0.46 0.46 0.0 0 0 24.04 23.89
  L 27.26 25.75
  A 0.59 0.57 37.3 0 0 27.94 25.67
  Q 30.15 23.52 32.98 23.53"
/>
<path stroke="#b78e67" vector-effect="non-scaling-stroke" d="
  M 32.99 35.99
  Q 33.22 35.99 33.28 36.05
  Q 36.13 38.89 38.14 40.90
  A 0.49 0.48 -44.6 0 0 38.83 40.90
  L 43.57 36.17
  A 0.60 0.59 44.7 0 1 44.42 36.17
  L 46.22 37.97
  A 0.26 0.26 0.0 0 0 46.66 37.77
  Q 46.19 32.04 43.84 26.80
  A 0.67 0.66 69.4 0 0 43.03 26.43
  Q 40.50 27.20 40.16 29.06
  A 1.68 1.68 0.0 0 1 36.92 29.32
  Q 35.89 26.30 32.98 26.30
  Q 30.08 26.30 29.05 29.32
  A 1.68 1.68 0.0 0 1 25.81 29.07
  Q 25.46 27.21 22.93 26.44
  A 0.67 0.66 -69.5 0 0 22.12 26.81
  Q 19.78 32.05 19.32 37.78
  A 0.26 0.26 0.0 0 0 19.76 37.98
  L 21.55 36.18
  A 0.60 0.59 -44.7 0 1 22.40 36.18
  L 27.15 40.91
  A 0.49 0.48 44.5 0 0 27.84 40.91
  Q 29.85 38.89 32.70 36.05
  Q 32.76 35.99 32.99 35.99"
/>
<path stroke="#b78e67" vector-effect="non-scaling-stroke" d="
  M 33.00 52.25
  C 39.38 52.24 44.17 48.38 46.17 42.53
  A 0.99 0.99 0.0 0 0 45.93 41.51
  L 44.30 39.88
  A 0.49 0.48 -44.6 0 0 43.61 39.88
  L 38.93 44.56
  A 0.60 0.59 42.5 0 1 38.11 44.59
  Q 36.81 43.46 33.88 40.38
  Q 33.15 39.62 32.98 39.62
  Q 32.81 39.62 32.09 40.39
  Q 29.16 43.47 27.86 44.60
  A 0.60 0.59 -42.6 0 1 27.04 44.58
  L 22.35 39.91
  A 0.49 0.48 44.4 0 0 21.66 39.91
  L 20.04 41.55
  A 0.99 0.99 0.0 0 0 19.80 42.57
  C 21.81 48.41 26.62 52.26 33.00 52.25"
/>
</g>
<path fill="#421e05" d="
  M 33.82 88.00
  L 33.04 88.00
  C 22.09 78.14 12.15 65.71 5.82 51.96
  C 1.05 41.61 -0.54 28.44 5.19 18.14
  Q 12.36 5.25 26.68 2.08
  Q 39.27 -0.71 50.69 6.35
  Q 62.41 13.61 64.91 27.06
  C 69.06 49.44 49.23 73.93 33.82 88.00
  Z
  M 33.44 86.67
  Q 33.52 86.67 33.60 86.66
  Q 33.67 86.64 33.74 86.58
  C 46.43 74.56 58.31 59.78 62.91 43.05
  C 66.54 29.85 62.99 16.84 51.90 8.55
  C 46.89 4.80 40.21 2.49 33.52 2.49
  C 26.83 2.48 20.15 4.77 15.13 8.51
  C 4.02 16.78 0.45 29.78 4.05 42.99
  C 8.61 59.73 20.46 74.53 33.13 86.58
  Q 33.20 86.64 33.27 86.66
  Q 33.35 86.67 33.44 86.67
  Z"
/>
<path fill="#7e3d0c" d="
  M 33.52 2.49
  C 40.21 2.49 46.89 4.80 51.90 8.55
  C 62.99 16.84 66.54 29.85 62.91 43.05
  C 58.31 59.78 46.43 74.56 33.74 86.58
  Q 33.67 86.64 33.60 86.66
  Q 33.52 86.67 33.44 86.67
  Q 33.35 86.67 33.27 86.66
  Q 33.20 86.64 33.13 86.58
  C 20.46 74.53 8.61 59.73 4.05 42.99
  C 0.45 29.78 4.02 16.78 15.13 8.51
  C 20.15 4.77 26.83 2.48 33.52 2.49
  Z
  M 32.98 23.53
  Q 35.80 23.53 38.01 25.67
  A 0.59 0.57 -37.2 0 0 38.69 25.76
  L 41.91 23.90
  A 0.46 0.46 0.0 0 0 42.09 23.29
  C 40.30 19.94 37.13 15.83 32.98 15.83
  C 28.83 15.82 25.66 19.93 23.87 23.28
  A 0.46 0.46 0.0 0 0 24.04 23.89
  L 27.26 25.75
  A 0.59 0.57 37.3 0 0 27.94 25.67
  Q 30.15 23.52 32.98 23.53
  Z
  M 32.99 35.99
  Q 33.22 35.99 33.28 36.05
  Q 36.13 38.89 38.14 40.90
  A 0.49 0.48 -44.6 0 0 38.83 40.90
  L 43.57 36.17
  A 0.60 0.59 44.7 0 1 44.42 36.17
  L 46.22 37.97
  A 0.26 0.26 0.0 0 0 46.66 37.77
  Q 46.19 32.04 43.84 26.80
  A 0.67 0.66 69.4 0 0 43.03 26.43
  Q 40.50 27.20 40.16 29.06
  A 1.68 1.68 0.0 0 1 36.92 29.32
  Q 35.89 26.30 32.98 26.30
  Q 30.08 26.30 29.05 29.32
  A 1.68 1.68 0.0 0 1 25.81 29.07
  Q 25.46 27.21 22.93 26.44
  A 0.67 0.66 -69.5 0 0 22.12 26.81
  Q 19.78 32.05 19.32 37.78
  A 0.26 0.26 0.0 0 0 19.76 37.98
  L 21.55 36.18
  A 0.60 0.59 -44.7 0 1 22.40 36.18
  L 27.15 40.91
  A 0.49 0.48 44.5 0 0 27.84 40.91
  Q 29.85 38.89 32.70 36.05
  Q 32.76 35.99 32.99 35.99
  Z
  M 33.00 52.25
  C 39.38 52.24 44.17 48.38 46.17 42.53
  A 0.99 0.99 0.0 0 0 45.93 41.51
  L 44.30 39.88
  A 0.49 0.48 -44.6 0 0 43.61 39.88
  L 38.93 44.56
  A 0.60 0.59 42.5 0 1 38.11 44.59
  Q 36.81 43.46 33.88 40.38
  Q 33.15 39.62 32.98 39.62
  Q 32.81 39.62 32.09 40.39
  Q 29.16 43.47 27.86 44.60
  A 0.60 0.59 -42.6 0 1 27.04 44.58
  L 22.35 39.91
  A 0.49 0.48 44.4 0 0 21.66 39.91
  L 20.04 41.55
  A 0.99 0.99 0.0 0 0 19.80 42.57
  C 21.81 48.41 26.62 52.26 33.00 52.25
  Z"
/>
<path fill="#f0dfc1" d="
  M 32.98 15.83
  C 37.13 15.83 40.30 19.94 42.09 23.29
  A 0.46 0.46 0.0 0 1 41.91 23.90
  L 38.69 25.76
  A 0.59 0.57 -37.2 0 1 38.01 25.67
  Q 35.80 23.53 32.98 23.53
  Q 30.15 23.52 27.94 25.67
  A 0.59 0.57 37.3 0 1 27.26 25.75
  L 24.04 23.89
  A 0.46 0.46 0.0 0 1 23.87 23.28
  C 25.66 19.93 28.83 15.82 32.98 15.83
  Z"
/>
<path fill="#f0dfc1" d="
  M 32.98 26.30
  Q 35.89 26.30 36.92 29.32
  A 1.68 1.68 0.0 0 0 40.16 29.06
  Q 40.50 27.20 43.03 26.43
  A 0.67 0.66 69.4 0 1 43.84 26.80
  Q 46.19 32.04 46.66 37.77
  A 0.26 0.26 0.0 0 1 46.22 37.97
  L 44.42 36.17
  A 0.60 0.59 44.7 0 0 43.57 36.17
  L 38.83 40.90
  A 0.49 0.48 -44.6 0 1 38.14 40.90
  Q 36.13 38.89 33.28 36.05
  Q 33.22 35.99 32.99 35.99
  Q 32.76 35.99 32.70 36.05
  Q 29.85 38.89 27.84 40.91
  A 0.49 0.48 44.5 0 1 27.15 40.91
  L 22.40 36.18
  A 0.60 0.59 -44.7 0 0 21.55 36.18
  L 19.76 37.98
  A 0.26 0.26 0.0 0 1 19.32 37.78
  Q 19.78 32.05 22.12 26.81
  A 0.67 0.66 -69.5 0 1 22.93 26.44
  Q 25.46 27.21 25.81 29.07
  A 1.68 1.68 0.0 0 0 29.05 29.32
  Q 30.08 26.30 32.98 26.30
  Z"
/>
<path fill="#f0dfc1" d="
  M 32.98 39.62
  Q 33.15 39.62 33.88 40.38
  Q 36.81 43.46 38.11 44.59
  A 0.60 0.59 42.5 0 0 38.93 44.56
  L 43.61 39.88
  A 0.49 0.48 -44.6 0 1 44.30 39.88
  L 45.93 41.51
  A 0.99 0.99 0.0 0 1 46.17 42.53
  C 44.17 48.38 39.38 52.24 33.00 52.25
  C 26.62 52.26 21.81 48.41 19.80 42.57
  A 0.99 0.99 0.0 0 1 20.04 41.55
  L 21.66 39.91
  A 0.49 0.48 44.4 0 1 22.35 39.91
  L 27.04 44.58
  A 0.60 0.59 -42.6 0 0 27.86 44.60
  Q 29.16 43.47 32.09 40.39
  Q 32.81 39.62 32.98 39.62
  Z"
/>
</svg>
