<?xml version="1.0" encoding="UTF-8" standalone="no"?>
<!DOCTYPE svg PUBLIC "-//W3C//DTD SVG 1.1//EN" "http://www.w3.org/Graphics/SVG/1.1/DTD/svg11.dtd">
<svg xmlns="http://www.w3.org/2000/svg" version="1.1" viewBox="0.00 0.00 66.00 88.00">
<g stroke-width="2.00" fill="none" stroke-linecap="butt">
<path stroke="#476099" vector-effect="non-scaling-stroke" d="
  M 33.40 86.72
  Q 33.61 86.72 33.62 86.69
  Q 33.65 86.57 33.71 86.51
  C 50.23 71.28 74.22 40.89 59.97 17.36
  C 54.40 8.16 44.37 2.52 33.53 2.50
  C 22.69 2.48 12.65 8.10 7.05 17.28
  C -7.28 40.77 16.62 71.23 33.10 86.51
  Q 33.16 86.57 33.19 86.69
  Q 33.19 86.72 33.40 86.72"
/>
<path stroke="#a8afc5" vector-effect="non-scaling-stroke" d="
  M 42.60 20.26
  A 0.78 0.76 -24.1 0 0 43.18 20.47
  Q 45.14 20.32 47.38 20.91
  A 1.86 1.64 26.0 0 1 48.52 23.65
  C 46.66 25.83 43.49 24.38 41.54 22.44
  C 34.96 15.88 22.67 14.42 16.53 22.48
  C 12.25 28.09 16.03 35.11 23.30 31.22
  A 0.12 0.12 0.0 0 0 23.34 31.04
  L 22.29 29.74
  A 0.34 0.34 0.0 0 0 21.93 29.62
  Q 19.86 30.20 18.65 29.90
  A 2.73 2.27 -76.3 0 1 17.10 26.73
  Q 18.16 22.21 22.65 20.41
  Q 28.40 18.11 35.37 20.89
  C 39.49 22.55 41.72 28.42 47.92 26.76
  C 50.11 26.17 52.04 23.66 51.04 21.41
  C 49.45 17.86 44.63 17.97 41.04 18.47
  A 0.10 0.10 0.0 0 0 40.99 18.64
  L 42.60 20.26"
/>
<path stroke="#a8afc5" vector-effect="non-scaling-stroke" d="
  M 33.87 22.74
  Q 31.06 21.29 29.38 23.86
  A 1.10 1.10 0.0 0 0 30.85 25.42
  L 33.89 23.67
  A 0.53 0.53 0.0 0 0 33.87 22.74"
/>
<path stroke="#a8afc5" vector-effect="non-scaling-stroke" d="
  M 26.3243 24.8502
  A 0.39 0.39 0.0 0 0 25.7786 24.7697
  L 23.4344 26.5106
  A 0.39 0.39 0.0 0 0 23.3538 27.0563
  L 26.2157 30.9098
  A 0.39 0.39 0.0 0 0 26.7614 30.9903
  L 29.1056 29.2494
  A 0.39 0.39 0.0 0 0 29.1862 28.7037
  L 26.3243 24.8502"
/>
<path stroke="#a8afc5" vector-effect="non-scaling-stroke" d="
  M 30.78 31.30
  Q 32.33 33.60 36.26 32.93
  A 1.11 1.11 0.0 0 0 36.07 30.72
  L 31.08 30.72
  A 0.37 0.37 0.0 0 0 30.78 31.30"
/>
<path stroke="#a8afc5" vector-effect="non-scaling-stroke" d="
  M 46.10 41.18
  L 47.35 39.95
  A 0.28 0.28 0.0 0 0 47.36 39.56
  L 40.56 32.62
  A 1.11 1.03 -44.4 0 0 39.05 32.66
  L 38.98 32.73
  A 1.11 1.03 -44.4 0 0 38.91 34.24
  L 45.70 41.18
  A 0.28 0.28 0.0 0 0 46.10 41.18"
/>
<path stroke="#a8afc5" vector-effect="non-scaling-stroke" d="
  M 28.58 33.03
  L 28.72 39.26
  A 0.17 0.17 0.0 0 0 28.89 39.43
  L 28.99 39.43
  A 3.11 2.13 88.8 0 0 31.05 36.27
  L 31.05 35.91
  A 3.11 2.13 88.8 0 0 28.85 32.85
  L 28.75 32.85
  A 0.17 0.17 0.0 0 0 28.58 33.03"
/>
<path stroke="#a8afc5" vector-effect="non-scaling-stroke" d="
  M 37.14 42.43
  C 39.56 44.84 40.75 46.87 43.78 46.09
  Q 43.99 46.04 44.02 46.00
  Q 44.05 45.97 44.10 45.77
  C 44.87 42.73 42.83 41.55 40.41 39.14
  C 37.99 36.74 36.79 34.70 33.76 35.49
  Q 33.56 35.54 33.53 35.57
  Q 33.50 35.60 33.44 35.80
  C 32.68 38.84 34.72 40.02 37.14 42.43"
/>
<path stroke="#a8afc5" vector-effect="non-scaling-stroke" d="
  M 30.00 42.17
  L 37.46 49.63
  A 0.28 0.28 0.0 0 0 37.86 49.63
  L 37.99 49.50
  A 1.99 1.80 -45.0 0 0 38.13 46.82
  L 32.81 41.50
  A 1.99 1.80 -45.0 0 0 30.13 41.64
  L 30.00 41.77
  A 0.28 0.28 0.0 0 0 30.00 42.17"
/>
<path stroke="#a8afc5" vector-effect="non-scaling-stroke" d="
  M 48.36 48.83
  A 0.38 0.37 16.2 0 0 48.95 48.51
  L 48.86 43.42
  A 1.14 1.14 0.0 0 0 46.60 43.26
  Q 45.99 47.29 48.36 48.83"
/>
<path stroke="#a8afc5" vector-effect="non-scaling-stroke" d="
  M 40.28 50.66
  L 46.39 51.05
  A 0.18 0.18 0.0 0 0 46.58 50.89
  L 46.58 50.79
  A 3.07 2.14 3.7 0 0 43.66 48.45
  L 43.32 48.43
  A 3.07 2.14 3.7 0 0 40.12 50.37
  L 40.11 50.47
  A 0.18 0.18 0.0 0 0 40.28 50.66"
/>
</g>
<path fill="#2d416a" d="
  M 33.77 88.00
  L 33.04 88.00
  C 21.77 77.76 11.95 65.52 5.58 51.41
  Q 2.15 43.81 1.59 34.82
  C 0.35 15.13 17.19 -0.29 36.46 1.46
  C 45.39 2.27 53.81 6.85 59.20 14.06
  C 77.67 38.78 51.52 71.97 33.77 88.00
  Z
  M 33.40 86.72
  Q 33.61 86.72 33.62 86.69
  Q 33.65 86.57 33.71 86.51
  C 50.23 71.28 74.22 40.89 59.97 17.36
  C 54.40 8.16 44.37 2.52 33.53 2.50
  C 22.69 2.48 12.65 8.10 7.05 17.28
  C -7.28 40.77 16.62 71.23 33.10 86.51
  Q 33.16 86.57 33.19 86.69
  Q 33.19 86.72 33.40 86.72
  Z"
/>
<path fill="#607fc8" d="
  M 33.53 2.50
  C 44.37 2.52 54.40 8.16 59.97 17.36
  C 74.22 40.89 50.23 71.28 33.71 86.51
  Q 33.65 86.57 33.62 86.69
  Q 33.61 86.72 33.40 86.72
  Q 33.19 86.72 33.19 86.69
  Q 33.16 86.57 33.10 86.51
  C 16.62 71.23 -7.28 40.77 7.05 17.28
  C 12.65 8.10 22.69 2.48 33.53 2.50
  Z
  M 42.60 20.26
  A 0.78 0.76 -24.1 0 0 43.18 20.47
  Q 45.14 20.32 47.38 20.91
  A 1.86 1.64 26.0 0 1 48.52 23.65
  C 46.66 25.83 43.49 24.38 41.54 22.44
  C 34.96 15.88 22.67 14.42 16.53 22.48
  C 12.25 28.09 16.03 35.11 23.30 31.22
  A 0.12 0.12 0.0 0 0 23.34 31.04
  L 22.29 29.74
  A 0.34 0.34 0.0 0 0 21.93 29.62
  Q 19.86 30.20 18.65 29.90
  A 2.73 2.27 -76.3 0 1 17.10 26.73
  Q 18.16 22.21 22.65 20.41
  Q 28.40 18.11 35.37 20.89
  C 39.49 22.55 41.72 28.42 47.92 26.76
  C 50.11 26.17 52.04 23.66 51.04 21.41
  C 49.45 17.86 44.63 17.97 41.04 18.47
  A 0.10 0.10 0.0 0 0 40.99 18.64
  L 42.60 20.26
  Z
  M 33.87 22.74
  Q 31.06 21.29 29.38 23.86
  A 1.10 1.10 0.0 0 0 30.85 25.42
  L 33.89 23.67
  A 0.53 0.53 0.0 0 0 33.87 22.74
  Z
  M 26.3243 24.8502
  A 0.39 0.39 0.0 0 0 25.7786 24.7697
  L 23.4344 26.5106
  A 0.39 0.39 0.0 0 0 23.3538 27.0563
  L 26.2157 30.9098
  A 0.39 0.39 0.0 0 0 26.7614 30.9903
  L 29.1056 29.2494
  A 0.39 0.39 0.0 0 0 29.1862 28.7037
  L 26.3243 24.8502
  Z
  M 30.78 31.30
  Q 32.33 33.60 36.26 32.93
  A 1.11 1.11 0.0 0 0 36.07 30.72
  L 31.08 30.72
  A 0.37 0.37 0.0 0 0 30.78 31.30
  Z
  M 46.10 41.18
  L 47.35 39.95
  A 0.28 0.28 0.0 0 0 47.36 39.56
  L 40.56 32.62
  A 1.11 1.03 -44.4 0 0 39.05 32.66
  L 38.98 32.73
  A 1.11 1.03 -44.4 0 0 38.91 34.24
  L 45.70 41.18
  A 0.28 0.28 0.0 0 0 46.10 41.18
  Z
  M 28.58 33.03
  L 28.72 39.26
  A 0.17 0.17 0.0 0 0 28.89 39.43
  L 28.99 39.43
  A 3.11 2.13 88.8 0 0 31.05 36.27
  L 31.05 35.91
  A 3.11 2.13 88.8 0 0 28.85 32.85
  L 28.75 32.85
  A 0.17 0.17 0.0 0 0 28.58 33.03
  Z
  M 37.14 42.43
  C 39.56 44.84 40.75 46.87 43.78 46.09
  Q 43.99 46.04 44.02 46.00
  Q 44.05 45.97 44.10 45.77
  C 44.87 42.73 42.83 41.55 40.41 39.14
  C 37.99 36.74 36.79 34.70 33.76 35.49
  Q 33.56 35.54 33.53 35.57
  Q 33.50 35.60 33.44 35.80
  C 32.68 38.84 34.72 40.02 37.14 42.43
  Z
  M 30.00 42.17
  L 37.46 49.63
  A 0.28 0.28 0.0 0 0 37.86 49.63
  L 37.99 49.50
  A 1.99 1.80 -45.0 0 0 38.13 46.82
  L 32.81 41.50
  A 1.99 1.80 -45.0 0 0 30.13 41.64
  L 30.00 41.77
  A 0.28 0.28 0.0 0 0 30.00 42.17
  Z
  M 48.36 48.83
  A 0.38 0.37 16.2 0 0 48.95 48.51
  L 48.86 43.42
  A 1.14 1.14 0.0 0 0 46.60 43.26
  Q 45.99 47.29 48.36 48.83
  Z
  M 40.28 50.66
  L 46.39 51.05
  A 0.18 0.18 0.0 0 0 46.58 50.89
  L 46.58 50.79
  A 3.07 2.14 3.7 0 0 43.66 48.45
  L 43.32 48.43
  A 3.07 2.14 3.7 0 0 40.12 50.37
  L 40.11 50.47
  A 0.18 0.18 0.0 0 0 40.28 50.66
  Z"
/>
<path fill="#f0dfc1" d="
  M 41.04 18.47
  C 44.63 17.97 49.45 17.86 51.04 21.41
  C 52.04 23.66 50.11 26.17 47.92 26.76
  C 41.72 28.42 39.49 22.55 35.37 20.89
  Q 28.40 18.11 22.65 20.41
  Q 18.16 22.21 17.10 26.73
  A 2.73 2.27 -76.3 0 0 18.65 29.90
  Q 19.86 30.20 21.93 29.62
  A 0.34 0.34 0.0 0 1 22.29 29.74
  L 23.34 31.04
  A 0.12 0.12 0.0 0 1 23.30 31.22
  C 16.03 35.11 12.25 28.09 16.53 22.48
  C 22.67 14.42 34.96 15.88 41.54 22.44
  C 43.49 24.38 46.66 25.83 48.52 23.65
  A 1.86 1.64 26.0 0 0 47.38 20.91
  Q 45.14 20.32 43.18 20.47
  A 0.78 0.76 -24.1 0 1 42.60 20.26
  L 40.99 18.64
  A 0.10 0.10 0.0 0 1 41.04 18.47
  Z"
/>
<path fill="#f0dfc1" d="
  M 33.89 23.67
  L 30.85 25.42
  A 1.10 1.10 0.0 0 1 29.38 23.86
  Q 31.06 21.29 33.87 22.74
  A 0.53 0.53 0.0 0 1 33.89 23.67
  Z"
/>
<rect fill="#f0dfc1" x="-1.85" y="-2.79" transform="translate(26.27,27.88) rotate(-36.6)" width="3.70" height="5.58" rx="0.39"/>
<path fill="#f0dfc1" d="
  M 31.08 30.72
  L 36.07 30.72
  A 1.11 1.11 0.0 0 1 36.26 32.93
  Q 32.33 33.60 30.78 31.30
  A 0.37 0.37 0.0 0 1 31.08 30.72
  Z"
/>
<path fill="#f0dfc1" d="
  M 46.10 41.18
  A 0.28 0.28 0.0 0 1 45.70 41.18
  L 38.91 34.24
  A 1.11 1.03 -44.4 0 1 38.98 32.73
  L 39.05 32.66
  A 1.11 1.03 -44.4 0 1 40.56 32.62
  L 47.36 39.56
  A 0.28 0.28 0.0 0 1 47.35 39.95
  L 46.10 41.18
  Z"
/>
<path fill="#f0dfc1" d="
  M 28.58 33.03
  A 0.17 0.17 0.0 0 1 28.75 32.85
  L 28.85 32.85
  A 3.11 2.13 88.8 0 1 31.05 35.91
  L 31.05 36.27
  A 3.11 2.13 88.8 0 1 28.99 39.43
  L 28.89 39.43
  A 0.17 0.17 0.0 0 1 28.72 39.26
  L 28.58 33.03
  Z"
/>
<path fill="#f0dfc1" d="
  M 40.41 39.14
  C 42.83 41.55 44.87 42.73 44.10 45.77
  Q 44.05 45.97 44.02 46.00
  Q 43.99 46.04 43.78 46.09
  C 40.75 46.87 39.56 44.84 37.14 42.43
  C 34.72 40.02 32.68 38.84 33.44 35.80
  Q 33.50 35.60 33.53 35.57
  Q 33.56 35.54 33.76 35.49
  C 36.79 34.70 37.99 36.74 40.41 39.14
  Z"
/>
<path fill="#f0dfc1" d="
  M 30.00 42.17
  A 0.28 0.28 0.0 0 1 30.00 41.77
  L 30.13 41.64
  A 1.99 1.80 -45.0 0 1 32.81 41.50
  L 38.13 46.82
  A 1.99 1.80 -45.0 0 1 37.99 49.50
  L 37.86 49.63
  A 0.28 0.28 0.0 0 1 37.46 49.63
  L 30.00 42.17
  Z"
/>
<path fill="#f0dfc1" d="
  M 48.36 48.83
  Q 45.99 47.29 46.60 43.26
  A 1.14 1.14 0.0 0 1 48.86 43.42
  L 48.95 48.51
  A 0.38 0.37 16.2 0 1 48.36 48.83
  Z"
/>
<path fill="#f0dfc1" d="
  M 40.28 50.66
  A 0.18 0.18 0.0 0 1 40.11 50.47
  L 40.12 50.37
  A 3.07 2.14 3.7 0 1 43.32 48.43
  L 43.66 48.45
  A 3.07 2.14 3.7 0 1 46.58 50.79
  L 46.58 50.89
  A 0.18 0.18 0.0 0 1 46.39 51.05
  L 40.28 50.66
  Z"
/>
</svg>
