<?xml version="1.0" encoding="UTF-8" standalone="no"?>
<!DOCTYPE svg PUBLIC "-//W3C//DTD SVG 1.1//EN" "http://www.w3.org/Graphics/SVG/1.1/DTD/svg11.dtd">
<svg xmlns="http://www.w3.org/2000/svg" version="1.1" viewBox="0.00 0.00 66.00 88.00">
<g stroke-width="2.00" fill="none" stroke-linecap="butt">
<path stroke="#612e09" vector-effect="non-scaling-stroke" d="
  M 33.43 86.67
  C 34.04 86.67 33.54 86.72 33.71 86.57
  Q 47.34 73.92 56.46 58.48
  C 65.43 43.28 68.68 24.39 54.90 11.10
  C 49.27 5.67 41.57 2.50 33.52 2.49
  C 25.48 2.48 17.78 5.63 12.13 11.06
  C -1.68 24.31 1.53 43.21 10.47 58.43
  Q 19.55 73.89 33.16 86.57
  C 33.32 86.72 32.82 86.67 33.43 86.67"
/>
<path stroke="#b78e67" vector-effect="non-scaling-stroke" d="
  M 27.87 23.27
  L 33.33 23.27
  A 1.89 1.76 54.7 0 1 34.05 23.42
  Q 37.34 24.86 37.15 28.08
  C 36.86 32.89 31.51 32.61 27.54 32.43
  A 0.68 0.68 0.0 0 0 26.83 33.11
  Q 26.82 46.61 26.81 46.75
  C 26.58 52.63 33.17 51.65 37.77 51.39
  Q 41.87 51.16 42.00 47.49
  Q 42.17 42.56 42.05 20.52
  C 42.03 16.30 38.59 16.47 34.82 16.46
  Q 30.49 16.46 29.67 16.63
  A 3.45 3.44 -2.5 0 0 26.96 19.58
  L 26.68 21.92
  A 1.20 1.20 0.0 0 0 27.87 23.27"
/>
<path stroke="#b78e67" vector-effect="non-scaling-stroke" d="
  M 35.41 27.77
  A 2.76 2.76 0.0 0 0 32.65 25.01
  L 19.39 25.01
  A 2.76 2.76 0.0 0 0 16.63 27.77
  L 16.63 27.97
  A 2.76 2.76 0.0 0 0 19.39 30.73
  L 32.65 30.73
  A 2.76 2.76 0.0 0 0 35.41 27.97
  L 35.41 27.77"
/>
<path stroke="#b78e67" vector-effect="non-scaling-stroke" d="
  M 34.58 44.99
  Q 36.09 44.97 36.13 42.63
  C 36.16 40.79 37.64 39.71 36.67 38.05
  Q 35.92 36.78 34.52 36.79
  Q 33.12 36.80 32.40 38.08
  C 31.45 39.75 32.94 40.81 33.00 42.65
  Q 33.07 45.00 34.58 44.99"
/>
</g>
<path fill="#431e05" d="
  M 33.81 88.00
  L 33.04 88.00
  C 21.98 77.96 11.88 65.46 5.64 51.58
  Q 2.21 43.94 1.61 34.91
  C 0.56 18.96 11.19 5.67 26.49 2.10
  C 40.95 -1.27 55.89 5.93 62.58 19.69
  C 69.07 33.05 63.78 48.91 56.48 60.73
  Q 47.11 75.89 33.81 88.00
  Z
  M 33.43 86.67
  C 34.04 86.67 33.54 86.72 33.71 86.57
  Q 47.34 73.92 56.46 58.48
  C 65.43 43.28 68.68 24.39 54.90 11.10
  C 49.27 5.67 41.57 2.50 33.52 2.49
  C 25.48 2.48 17.78 5.63 12.13 11.06
  C -1.68 24.31 1.53 43.21 10.47 58.43
  Q 19.55 73.89 33.16 86.57
  C 33.32 86.72 32.82 86.67 33.43 86.67
  Z"
/>
<path fill="#7e3d0c" d="
  M 33.52 2.49
  C 41.57 2.50 49.27 5.67 54.90 11.10
  C 68.68 24.39 65.43 43.28 56.46 58.48
  Q 47.34 73.92 33.71 86.57
  C 33.54 86.72 34.04 86.67 33.43 86.67
  C 32.82 86.67 33.32 86.72 33.16 86.57
  Q 19.55 73.89 10.47 58.43
  C 1.53 43.21 -1.68 24.31 12.13 11.06
  C 17.78 5.63 25.48 2.48 33.52 2.49
  Z
  M 27.87 23.27
  L 33.33 23.27
  A 1.89 1.76 54.7 0 1 34.05 23.42
  Q 37.34 24.86 37.15 28.08
  C 36.86 32.89 31.51 32.61 27.54 32.43
  A 0.68 0.68 0.0 0 0 26.83 33.11
  Q 26.82 46.61 26.81 46.75
  C 26.58 52.63 33.17 51.65 37.77 51.39
  Q 41.87 51.16 42.00 47.49
  Q 42.17 42.56 42.05 20.52
  C 42.03 16.30 38.59 16.47 34.82 16.46
  Q 30.49 16.46 29.67 16.63
  A 3.45 3.44 -2.5 0 0 26.96 19.58
  L 26.68 21.92
  A 1.20 1.20 0.0 0 0 27.87 23.27
  Z
  M 35.41 27.77
  A 2.76 2.76 0.0 0 0 32.65 25.01
  L 19.39 25.01
  A 2.76 2.76 0.0 0 0 16.63 27.77
  L 16.63 27.97
  A 2.76 2.76 0.0 0 0 19.39 30.73
  L 32.65 30.73
  A 2.76 2.76 0.0 0 0 35.41 27.97
  L 35.41 27.77
  Z"
/>
<path fill="#f0dfc1" d="
  M 27.87 23.27
  A 1.20 1.20 0.0 0 1 26.68 21.92
  L 26.96 19.58
  A 3.45 3.44 -2.5 0 1 29.67 16.63
  Q 30.49 16.46 34.82 16.46
  C 38.59 16.47 42.03 16.30 42.05 20.52
  Q 42.17 42.56 42.00 47.49
  Q 41.87 51.16 37.77 51.39
  C 33.17 51.65 26.58 52.63 26.81 46.75
  Q 26.82 46.61 26.83 33.11
  A 0.68 0.68 0.0 0 1 27.54 32.43
  C 31.51 32.61 36.86 32.89 37.15 28.08
  Q 37.34 24.86 34.05 23.42
  A 1.89 1.76 54.7 0 0 33.33 23.27
  L 27.87 23.27
  Z
  M 34.58 44.99
  Q 36.09 44.97 36.13 42.63
  C 36.16 40.79 37.64 39.71 36.67 38.05
  Q 35.92 36.78 34.52 36.79
  Q 33.12 36.80 32.40 38.08
  C 31.45 39.75 32.94 40.81 33.00 42.65
  Q 33.07 45.00 34.58 44.99
  Z"
/>
<rect fill="#f0dfc1" x="16.63" y="25.01" width="18.78" height="5.72" rx="2.76"/>
<path fill="#7e3d0c" d="
  M 34.52 36.79
  Q 35.92 36.78 36.67 38.05
  C 37.64 39.71 36.16 40.79 36.13 42.63
  Q 36.09 44.97 34.58 44.99
  Q 33.07 45.00 33.00 42.65
  C 32.94 40.81 31.45 39.75 32.40 38.08
  Q 33.12 36.80 34.52 36.79
  Z"
/>
</svg>
