<?xml version="1.0" encoding="UTF-8" standalone="no"?>
<!DOCTYPE svg PUBLIC "-//W3C//DTD SVG 1.1//EN" "http://www.w3.org/Graphics/SVG/1.1/DTD/svg11.dtd">
<svg xmlns="http://www.w3.org/2000/svg" version="1.1" viewBox="0.00 0.00 66.00 88.00">
<g stroke-width="2.00" fill="none" stroke-linecap="butt">
<path stroke="#3a3882" vector-effect="non-scaling-stroke" d="
  M 33.41 86.69
  Q 33.52 86.69 33.61 86.67
  Q 33.63 86.67 33.75 86.56
  Q 48.86 72.28 57.58 56.56
  C 64.46 44.17 67.88 27.76 58.64 15.36
  C 52.65 7.32 43.77 2.53 33.52 2.52
  C 23.26 2.50 14.38 7.27 8.36 15.29
  C -0.91 27.67 2.47 44.09 9.31 56.50
  Q 17.99 72.24 33.07 86.56
  Q 33.19 86.67 33.20 86.67
  Q 33.30 86.69 33.41 86.69"
/>
<path stroke="#9f95b6" vector-effect="non-scaling-stroke" d="
  M 29.96 17.19
  L 39.82 19.19
  A 0.32 0.32 0.0 0 1 39.79 19.82
  Q 33.14 20.70 29.15 20.92
  C 22.96 21.26 15.57 23.46 15.90 30.89
  Q 16.08 35.01 17.54 37.26
  Q 20.56 41.91 27.44 45.54
  C 28.56 46.13 29.14 47.85 30.19 48.65
  Q 31.51 49.65 35.03 50.24
  C 39.67 51.03 48.71 53.13 49.41 47.14
  Q 49.63 45.30 50.00 44.40
  A 0.61 0.61 0.0 0 0 49.56 43.56
  Q 49.21 43.48 49.12 43.49
  A 0.83 0.83 0.0 0 1 48.43 43.23
  Q 44.09 38.51 36.90 38.07
  A 5.28 5.22 57.4 0 1 35.22 37.69
  Q 28.48 34.91 23.52 30.51
  A 0.66 0.66 0.0 0 1 23.72 29.40
  Q 32.55 26.05 41.80 23.10
  Q 43.38 22.59 43.88 21.28
  A 2.72 2.67 -72.3 0 0 42.06 17.68
  Q 36.56 16.29 29.98 16.88
  A 0.16 0.16 0.0 0 0 29.96 17.19"
/>
<path stroke="#9f95b6" vector-effect="non-scaling-stroke" d="
  M 39.69 47.64
  L 42.55 47.67
  A 1.15 1.15 0.0 0 0 43.72 46.54
  L 43.73 45.60
  A 3.01 2.54 -89.4 0 0 41.22 42.56
  L 41.14 42.56
  A 3.01 2.54 -89.4 0 0 38.57 45.54
  L 38.56 46.48
  A 1.15 1.15 0.0 0 0 39.69 47.64"
/>
</g>
<path fill="#262659" d="
  M 33.81 88.00
  L 33.15 88.00
  Q 15.60 72.47 6.00 52.51
  Q 2.26 44.74 1.63 35.22
  Q 1.00 25.75 5.24 18.04
  C 12.64 4.55 28.15 -1.73 43.19 2.84
  Q 51.42 5.34 57.12 11.62
  C 79.44 36.24 52.37 71.07 33.81 88.00
  Z
  M 33.41 86.69
  Q 33.52 86.69 33.61 86.67
  Q 33.63 86.67 33.75 86.56
  Q 48.86 72.28 57.58 56.56
  C 64.46 44.17 67.88 27.76 58.64 15.36
  C 52.65 7.32 43.77 2.53 33.52 2.52
  C 23.26 2.50 14.38 7.27 8.36 15.29
  C -0.91 27.67 2.47 44.09 9.31 56.50
  Q 17.99 72.24 33.07 86.56
  Q 33.19 86.67 33.20 86.67
  Q 33.30 86.69 33.41 86.69
  Z"
/>
<path fill="#4e4aab" d="
  M 33.52 2.52
  C 43.77 2.53 52.65 7.32 58.64 15.36
  C 67.88 27.76 64.46 44.17 57.58 56.56
  Q 48.86 72.28 33.75 86.56
  Q 33.63 86.67 33.61 86.67
  Q 33.52 86.69 33.41 86.69
  Q 33.30 86.69 33.20 86.67
  Q 33.19 86.67 33.07 86.56
  Q 17.99 72.24 9.31 56.50
  C 2.47 44.09 -0.91 27.67 8.36 15.29
  C 14.38 7.27 23.26 2.50 33.52 2.52
  Z
  M 29.96 17.19
  L 39.82 19.19
  A 0.32 0.32 0.0 0 1 39.79 19.82
  Q 33.14 20.70 29.15 20.92
  C 22.96 21.26 15.57 23.46 15.90 30.89
  Q 16.08 35.01 17.54 37.26
  Q 20.56 41.91 27.44 45.54
  C 28.56 46.13 29.14 47.85 30.19 48.65
  Q 31.51 49.65 35.03 50.24
  C 39.67 51.03 48.71 53.13 49.41 47.14
  Q 49.63 45.30 50.00 44.40
  A 0.61 0.61 0.0 0 0 49.56 43.56
  Q 49.21 43.48 49.12 43.49
  A 0.83 0.83 0.0 0 1 48.43 43.23
  Q 44.09 38.51 36.90 38.07
  A 5.28 5.22 57.4 0 1 35.22 37.69
  Q 28.48 34.91 23.52 30.51
  A 0.66 0.66 0.0 0 1 23.72 29.40
  Q 32.55 26.05 41.80 23.10
  Q 43.38 22.59 43.88 21.28
  A 2.72 2.67 -72.3 0 0 42.06 17.68
  Q 36.56 16.29 29.98 16.88
  A 0.16 0.16 0.0 0 0 29.96 17.19
  Z"
/>
<path fill="#f0dfc1" d="
  M 29.98 16.88
  Q 36.56 16.29 42.06 17.68
  A 2.72 2.67 -72.3 0 1 43.88 21.28
  Q 43.38 22.59 41.80 23.10
  Q 32.55 26.05 23.72 29.40
  A 0.66 0.66 0.0 0 0 23.52 30.51
  Q 28.48 34.91 35.22 37.69
  A 5.28 5.22 57.4 0 0 36.90 38.07
  Q 44.09 38.51 48.43 43.23
  A 0.83 0.83 0.0 0 0 49.12 43.49
  Q 49.21 43.48 49.56 43.56
  A 0.61 0.61 0.0 0 1 50.00 44.40
  Q 49.63 45.30 49.41 47.14
  C 48.71 53.13 39.67 51.03 35.03 50.24
  Q 31.51 49.65 30.19 48.65
  C 29.14 47.85 28.56 46.13 27.44 45.54
  Q 20.56 41.91 17.54 37.26
  Q 16.08 35.01 15.90 30.89
  C 15.57 23.46 22.96 21.26 29.15 20.92
  Q 33.14 20.70 39.79 19.82
  A 0.32 0.32 0.0 0 0 39.82 19.19
  L 29.96 17.19
  A 0.16 0.16 0.0 0 1 29.98 16.88
  Z
  M 39.69 47.64
  L 42.55 47.67
  A 1.15 1.15 0.0 0 0 43.72 46.54
  L 43.73 45.60
  A 3.01 2.54 -89.4 0 0 41.22 42.56
  L 41.14 42.56
  A 3.01 2.54 -89.4 0 0 38.57 45.54
  L 38.56 46.48
  A 1.15 1.15 0.0 0 0 39.69 47.64
  Z"
/>
<path fill="#4e4aab" d="
  M 39.69 47.64
  A 1.15 1.15 0.0 0 1 38.56 46.48
  L 38.57 45.54
  A 3.01 2.54 -89.4 0 1 41.14 42.56
  L 41.22 42.56
  A 3.01 2.54 -89.4 0 1 43.73 45.60
  L 43.72 46.54
  A 1.15 1.15 0.0 0 1 42.55 47.67
  L 39.69 47.64
  Z"
/>
</svg>
