<?xml version="1.0" encoding="UTF-8" standalone="no"?>
<!DOCTYPE svg PUBLIC "-//W3C//DTD SVG 1.1//EN" "http://www.w3.org/Graphics/SVG/1.1/DTD/svg11.dtd">
<svg xmlns="http://www.w3.org/2000/svg" version="1.1" viewBox="0.00 0.00 66.00 88.00">
<g stroke-width="2.00" fill="none" stroke-linecap="butt">
<path stroke="#3a3882" vector-effect="non-scaling-stroke" d="
  M 33.42 86.70
  Q 33.53 86.71 33.63 86.68
  Q 33.67 86.67 33.77 86.58
  Q 48.08 73.15 57.04 57.54
  C 64.21 45.05 68.03 28.41 58.96 15.81
  C 52.99 7.52 43.97 2.52 33.50 2.51
  C 23.04 2.50 14.01 7.48 8.02 15.76
  C -1.07 28.34 2.72 44.99 9.86 57.49
  Q 18.79 73.12 33.08 86.58
  Q 33.18 86.67 33.22 86.68
  Q 33.32 86.70 33.42 86.70"
/>
<path stroke="#9f95b6" vector-effect="non-scaling-stroke" d="
  M 42.28 32.55
  L 50.17 29.07
  A 1.70 1.69 66.3 0 0 51.04 26.83
  L 50.10 24.70
  A 2.57 2.57 0.0 0 0 46.96 23.29
  L 38.26 26.11
  A 0.32 0.31 59.8 0 0 38.13 26.62
  Q 40.44 29.24 41.67 32.30
  A 0.46 0.46 0.0 0 0 42.28 32.55"
/>
<path stroke="#9f95b6" vector-effect="non-scaling-stroke" d="
  M 38.70 41.47
  L 39.61 38.28
  A 0.40 0.40 0.0 0 1 40.27 38.11
  L 42.15 39.99
  A 0.27 0.27 0.0 0 0 42.61 39.78
  Q 41.85 32.08 36.85 26.77
  A 1.48 1.47 -30.6 0 0 35.32 26.38
  L 32.14 27.41
  A 0.58 0.58 0.0 0 0 31.95 28.41
  Q 37.45 32.96 38.20 41.42
  A 0.26 0.26 0.0 0 0 38.70 41.47"
/>
<path stroke="#9f95b6" vector-effect="non-scaling-stroke" d="
  M 26.36 40.12
  C 26.65 37.07 24.12 33.99 20.84 34.99
  A 2.13 2.08 -72.2 0 0 20.08 35.39
  Q 17.35 37.62 19.55 40.39
  Q 20.28 41.31 21.23 41.18
  A 0.74 0.73 57.1 0 0 21.51 39.83
  Q 19.60 38.63 20.66 37.29
  A 1.93 1.93 0.0 0 1 23.54 37.15
  C 27.30 40.96 20.73 46.04 17.67 41.35
  C 14.76 36.88 17.36 33.44 22.25 33.04
  C 24.98 32.81 27.13 35.57 27.79 37.87
  A 0.41 0.41 0.0 0 0 28.31 38.15
  L 32.94 36.65
  A 1.26 1.26 0.0 0 0 33.75 35.06
  L 32.02 29.71
  A 1.67 1.66 -20.6 0 0 29.78 28.70
  Q 25.54 30.55 21.84 31.25
  Q 18.06 31.96 16.75 33.21
  C 12.76 37.02 15.09 44.92 20.85 45.00
  Q 22.57 45.03 23.32 44.58
  Q 28.49 41.49 33.58 39.07
  A 1.16 1.15 73.6 0 0 34.22 37.89
  L 34.17 37.59
  A 0.38 0.37 -16.5 0 0 33.65 37.31
  L 26.71 40.37
  A 0.25 0.25 0.0 0 1 26.36 40.12"
/>
<path stroke="#9f95b6" vector-effect="non-scaling-stroke" d="
  M 50.3691 31.2433
  A 0.82 0.82 0.0 0 0 49.3198 30.7496
  L 42.7901 33.1004
  A 0.82 0.82 0.0 0 0 42.2964 34.1497
  L 42.3709 34.3567
  A 0.82 0.82 0.0 0 0 43.4202 34.8504
  L 49.9499 32.4996
  A 0.82 0.82 0.0 0 0 50.4436 31.4503
  L 50.3691 31.2433"
/>
<path stroke="#9f95b6" vector-effect="non-scaling-stroke" d="
  M 34.23 32.85
  L 35.23 37.76
  A 0.45 0.44 85.7 0 0 35.64 38.12
  Q 36.12 38.14 36.41 37.59
  A 0.58 0.55 -39.0 0 0 36.46 37.22
  Q 36.03 35.48 34.59 32.72
  A 0.19 0.19 0.0 0 0 34.23 32.85"
/>
</g>
<path fill="#262659" d="
  M 33.79 88.00
  L 33.04 88.00
  C 21.79 77.77 12.04 65.62 5.65 51.57
  Q 2.18 43.95 1.59 34.88
  Q 1.01 25.88 5.12 18.25
  C 17.66 -5.04 51.22 -3.97 62.58 19.67
  C 66.90 28.66 65.96 39.69 62.41 48.86
  C 56.63 63.74 45.55 77.33 33.79 88.00
  Z
  M 33.42 86.70
  Q 33.53 86.71 33.63 86.68
  Q 33.67 86.67 33.77 86.58
  Q 48.08 73.15 57.04 57.54
  C 64.21 45.05 68.03 28.41 58.96 15.81
  C 52.99 7.52 43.97 2.52 33.50 2.51
  C 23.04 2.50 14.01 7.48 8.02 15.76
  C -1.07 28.34 2.72 44.99 9.86 57.49
  Q 18.79 73.12 33.08 86.58
  Q 33.18 86.67 33.22 86.68
  Q 33.32 86.70 33.42 86.70
  Z"
/>
<path fill="#4e4aab" d="
  M 33.50 2.51
  C 43.97 2.52 52.99 7.52 58.96 15.81
  C 68.03 28.41 64.21 45.05 57.04 57.54
  Q 48.08 73.15 33.77 86.58
  Q 33.67 86.67 33.63 86.68
  Q 33.53 86.71 33.42 86.70
  Q 33.32 86.70 33.22 86.68
  Q 33.18 86.67 33.08 86.58
  Q 18.79 73.12 9.86 57.49
  C 2.72 44.99 -1.07 28.34 8.02 15.76
  C 14.01 7.48 23.04 2.50 33.50 2.51
  Z
  M 42.28 32.55
  L 50.17 29.07
  A 1.70 1.69 66.3 0 0 51.04 26.83
  L 50.10 24.70
  A 2.57 2.57 0.0 0 0 46.96 23.29
  L 38.26 26.11
  A 0.32 0.31 59.8 0 0 38.13 26.62
  Q 40.44 29.24 41.67 32.30
  A 0.46 0.46 0.0 0 0 42.28 32.55
  Z
  M 38.70 41.47
  L 39.61 38.28
  A 0.40 0.40 0.0 0 1 40.27 38.11
  L 42.15 39.99
  A 0.27 0.27 0.0 0 0 42.61 39.78
  Q 41.85 32.08 36.85 26.77
  A 1.48 1.47 -30.6 0 0 35.32 26.38
  L 32.14 27.41
  A 0.58 0.58 0.0 0 0 31.95 28.41
  Q 37.45 32.96 38.20 41.42
  A 0.26 0.26 0.0 0 0 38.70 41.47
  Z
  M 26.36 40.12
  C 26.65 37.07 24.12 33.99 20.84 34.99
  A 2.13 2.08 -72.2 0 0 20.08 35.39
  Q 17.35 37.62 19.55 40.39
  Q 20.28 41.31 21.23 41.18
  A 0.74 0.73 57.1 0 0 21.51 39.83
  Q 19.60 38.63 20.66 37.29
  A 1.93 1.93 0.0 0 1 23.54 37.15
  C 27.30 40.96 20.73 46.04 17.67 41.35
  C 14.76 36.88 17.36 33.44 22.25 33.04
  C 24.98 32.81 27.13 35.57 27.79 37.87
  A 0.41 0.41 0.0 0 0 28.31 38.15
  L 32.94 36.65
  A 1.26 1.26 0.0 0 0 33.75 35.06
  L 32.02 29.71
  A 1.67 1.66 -20.6 0 0 29.78 28.70
  Q 25.54 30.55 21.84 31.25
  Q 18.06 31.96 16.75 33.21
  C 12.76 37.02 15.09 44.92 20.85 45.00
  Q 22.57 45.03 23.32 44.58
  Q 28.49 41.49 33.58 39.07
  A 1.16 1.15 73.6 0 0 34.22 37.89
  L 34.17 37.59
  A 0.38 0.37 -16.5 0 0 33.65 37.31
  L 26.71 40.37
  A 0.25 0.25 0.0 0 1 26.36 40.12
  Z
  M 50.3691 31.2433
  A 0.82 0.82 0.0 0 0 49.3198 30.7496
  L 42.7901 33.1004
  A 0.82 0.82 0.0 0 0 42.2964 34.1497
  L 42.3709 34.3567
  A 0.82 0.82 0.0 0 0 43.4202 34.8504
  L 49.9499 32.4996
  A 0.82 0.82 0.0 0 0 50.4436 31.4503
  L 50.3691 31.2433
  Z
  M 34.23 32.85
  L 35.23 37.76
  A 0.45 0.44 85.7 0 0 35.64 38.12
  Q 36.12 38.14 36.41 37.59
  A 0.58 0.55 -39.0 0 0 36.46 37.22
  Q 36.03 35.48 34.59 32.72
  A 0.19 0.19 0.0 0 0 34.23 32.85
  Z"
/>
<path fill="#f0dfc1" d="
  M 42.28 32.55
  A 0.46 0.46 0.0 0 1 41.67 32.30
  Q 40.44 29.24 38.13 26.62
  A 0.32 0.31 59.8 0 1 38.26 26.11
  L 46.96 23.29
  A 2.57 2.57 0.0 0 1 50.10 24.70
  L 51.04 26.83
  A 1.70 1.69 66.3 0 1 50.17 29.07
  L 42.28 32.55
  Z"
/>
<path fill="#f0dfc1" d="
  M 38.70 41.47
  A 0.26 0.26 0.0 0 1 38.20 41.42
  Q 37.45 32.96 31.95 28.41
  A 0.58 0.58 0.0 0 1 32.14 27.41
  L 35.32 26.38
  A 1.48 1.47 -30.6 0 1 36.85 26.77
  Q 41.85 32.08 42.61 39.78
  A 0.27 0.27 0.0 0 1 42.15 39.99
  L 40.27 38.11
  A 0.40 0.40 0.0 0 0 39.61 38.28
  L 38.70 41.47
  Z"
/>
<path fill="#f0dfc1" d="
  M 26.36 40.12
  A 0.25 0.25 0.0 0 0 26.71 40.37
  L 33.65 37.31
  A 0.38 0.37 -16.5 0 1 34.17 37.59
  L 34.22 37.89
  A 1.16 1.15 73.6 0 1 33.58 39.07
  Q 28.49 41.49 23.32 44.58
  Q 22.57 45.03 20.85 45.00
  C 15.09 44.92 12.76 37.02 16.75 33.21
  Q 18.06 31.96 21.84 31.25
  Q 25.54 30.55 29.78 28.70
  A 1.67 1.66 -20.6 0 1 32.02 29.71
  L 33.75 35.06
  A 1.26 1.26 0.0 0 1 32.94 36.65
  L 28.31 38.15
  A 0.41 0.41 0.0 0 1 27.79 37.87
  C 27.13 35.57 24.98 32.81 22.25 33.04
  C 17.36 33.44 14.76 36.88 17.67 41.35
  C 20.73 46.04 27.30 40.96 23.54 37.15
  A 1.93 1.93 0.0 0 0 20.66 37.29
  Q 19.60 38.63 21.51 39.83
  A 0.74 0.73 57.1 0 1 21.23 41.18
  Q 20.28 41.31 19.55 40.39
  Q 17.35 37.62 20.08 35.39
  A 2.13 2.08 -72.2 0 1 20.84 34.99
  C 24.12 33.99 26.65 37.07 26.36 40.12
  Z"
/>
<rect fill="#f0dfc1" x="-4.29" y="-0.93" transform="translate(46.37,32.80) rotate(-19.8)" width="8.58" height="1.86" rx="0.82"/>
<path fill="#f0dfc1" d="
  M 34.59 32.72
  Q 36.03 35.48 36.46 37.22
  A 0.58 0.55 -39.0 0 1 36.41 37.59
  Q 36.12 38.14 35.64 38.12
  A 0.45 0.44 85.7 0 1 35.23 37.76
  L 34.23 32.85
  A 0.19 0.19 0.0 0 1 34.59 32.72
  Z"
/>
</svg>
