<?xml version="1.0" encoding="UTF-8" standalone="no"?>
<!DOCTYPE svg PUBLIC "-//W3C//DTD SVG 1.1//EN" "http://www.w3.org/Graphics/SVG/1.1/DTD/svg11.dtd">
<svg xmlns="http://www.w3.org/2000/svg" version="1.1" viewBox="0.00 0.00 66.00 88.00">
<g stroke-width="2.00" fill="none" stroke-linecap="butt">
<path stroke="#3a3882" vector-effect="non-scaling-stroke" d="
  M 33.41 86.70
  Q 33.51 86.70 33.61 86.68
  Q 33.62 86.67 33.75 86.56
  Q 48.29 72.85 57.04 57.55
  C 64.22 45.00 68.11 28.23 58.76 15.52
  C 52.76 7.37 43.82 2.52 33.52 2.51
  C 23.22 2.50 14.27 7.31 8.25 15.45
  C -1.14 28.14 2.71 44.92 9.85 57.49
  Q 18.56 72.81 33.06 86.56
  Q 33.19 86.67 33.20 86.68
  Q 33.30 86.70 33.41 86.70"
/>
<path stroke="#9f95b6" vector-effect="non-scaling-stroke" d="
  M 50.68 44.93
  A 0.36 0.36 0.0 0 0 51.06 44.48
  L 44.10 17.82
  A 0.36 0.36 0.0 0 0 43.79 17.55
  L 21.62 15.73
  A 0.36 0.36 0.0 0 0 21.24 16.18
  L 28.19 42.84
  A 0.36 0.36 0.0 0 0 28.50 43.11
  L 50.68 44.93"
/>
<path stroke="#9f95b6" vector-effect="non-scaling-stroke" d="
  M 16.16 22.19
  Q 17.13 19.34 19.42 17.97
  A 1.04 1.04 0.0 0 0 19.92 16.97
  L 19.89 16.64
  A 0.67 0.66 72.3 0 0 18.91 16.13
  Q 15.31 18.17 15.71 22.13
  A 0.23 0.23 0.0 0 0 16.16 22.19"
/>
<path stroke="#9f95b6" vector-effect="non-scaling-stroke" d="
  M 22.10 43.97
  Q 23.67 41.88 25.56 40.87
  A 0.73 0.72 68.6 0 0 25.92 40.04
  L 20.75 20.21
  A 0.92 0.92 0.0 0 0 19.06 19.98
  L 17.59 22.52
  A 5.20 5.17 -37.4 0 0 17.06 26.43
  L 21.61 43.88
  A 0.28 0.27 -33.9 0 0 22.10 43.97"
/>
<path stroke="#9f95b6" vector-effect="non-scaling-stroke" d="
  M 23.58 49.28
  Q 24.17 46.05 26.41 44.21
  A 1.14 1.13 -26.9 0 0 26.79 43.05
  L 26.70 42.70
  A 0.72 0.72 0.0 0 0 25.56 42.31
  Q 22.02 45.09 23.09 49.29
  A 0.25 0.25 0.0 0 0 23.58 49.28"
/>
<path stroke="#9f95b6" vector-effect="non-scaling-stroke" d="
  M 46.63 49.20
  L 48.60 48.96
  A 0.39 0.34 14.9 0 0 48.80 48.86
  Q 49.11 48.52 48.75 48.11
  Q 48.32 47.59 48.58 47.30
  Q 49.04 46.77 49.53 46.70
  A 0.27 0.27 0.0 0 0 49.51 46.16
  L 29.73 44.54
  A 3.59 3.58 -72.5 0 0 26.33 46.32
  L 25.21 48.27
  A 1.52 1.51 -72.7 0 0 26.40 50.54
  L 47.04 52.24
  A 0.74 0.74 0.0 0 0 47.83 51.61
  Q 48.00 50.47 46.54 49.67
  A 0.25 0.25 0.0 0 1 46.63 49.20"
/>
<path stroke="#9f95b6" vector-effect="non-scaling-stroke" d="
  M 44.2097 24.0992
  A 0.60 0.60 0.0 0 0 43.6497 23.4617
  L 25.7071 22.3014
  A 0.60 0.60 0.0 0 0 25.0697 22.8614
  L 25.0503 23.1608
  A 0.60 0.60 0.0 0 0 25.6103 23.7983
  L 43.5529 24.9586
  A 0.60 0.60 0.0 0 0 44.1903 24.3986
  L 44.2097 24.0992"
/>
<path stroke="#9f95b6" vector-effect="non-scaling-stroke" d="
  M 33.47 31.34
  Q 34.19 30.53 35.15 30.06
  A 0.69 0.68 -20.5 0 0 35.52 29.26
  L 34.89 26.84
  A 0.85 0.85 0.0 0 0 33.86 26.23
  L 30.72 27.05
  A 0.75 0.75 0.0 0 1 29.80 26.51
  L 29.60 25.74
  A 0.76 0.76 0.0 0 0 28.39 25.34
  Q 24.73 28.20 27.58 31.39
  Q 28.41 32.32 29.25 32.48
  A 0.69 0.69 0.0 0 0 29.73 31.20
  Q 27.80 30.10 27.84 28.10
  A 0.54 0.54 0.0 0 1 28.87 27.89
  Q 28.97 28.11 29.39 28.63
  A 0.74 0.73 63.3 0 0 30.15 28.89
  L 33.15 28.11
  A 0.58 0.58 0.0 0 1 33.71 29.08
  Q 32.99 29.81 32.36 30.43
  A 1.67 1.63 40.5 0 0 32.59 32.95
  C 34.72 34.47 39.58 30.15 40.37 28.85
  A 0.72 0.70 -64.7 0 1 41.20 28.54
  Q 42.10 28.85 42.66 29.75
  A 0.49 0.49 0.0 0 1 42.33 30.49
  Q 40.96 30.72 40.36 31.31
  A 0.60 0.60 0.0 0 0 40.32 32.11
  Q 42.80 35.14 46.17 32.96
  A 0.61 0.61 0.0 0 0 45.69 31.86
  L 43.01 32.56
  A 0.40 0.40 0.0 0 1 42.70 31.83
  Q 44.12 30.98 45.18 31.06
  A 0.32 0.32 0.0 0 0 45.43 30.51
  L 41.29 26.37
  A 0.73 0.72 -55.5 0 0 40.11 26.59
  Q 38.38 30.55 33.73 31.75
  A 0.26 0.25 12.9 0 1 33.47 31.34"
/>
<path stroke="#9f95b6" vector-effect="non-scaling-stroke" d="
  M 47.4301 36.2489
  A 0.72 0.72 0.0 0 0 46.7594 35.4828
  L 28.9587 34.3005
  A 0.72 0.72 0.0 0 0 28.1925 34.9712
  L 28.1899 35.0111
  A 0.72 0.72 0.0 0 0 28.8606 35.7772
  L 46.6613 36.9595
  A 0.72 0.72 0.0 0 0 47.4275 36.2888
  L 47.4301 36.2489"
/>
</g>
<path fill="#252659" d="
  M 33.82 88.00
  L 33.15 88.00
  Q 15.61 72.48 6.00 52.51
  Q 2.12 44.45 1.60 34.54
  Q 1.13 25.75 4.97 18.54
  C 17.51 -5.06 51.73 -4.27 62.87 20.33
  C 66.87 29.17 65.86 39.98 62.40 48.84
  C 56.56 63.81 45.61 77.22 33.82 88.00
  Z
  M 33.41 86.70
  Q 33.51 86.70 33.61 86.68
  Q 33.62 86.67 33.75 86.56
  Q 48.29 72.85 57.04 57.55
  C 64.22 45.00 68.11 28.23 58.76 15.52
  C 52.76 7.37 43.82 2.52 33.52 2.51
  C 23.22 2.50 14.27 7.31 8.25 15.45
  C -1.14 28.14 2.71 44.92 9.85 57.49
  Q 18.56 72.81 33.06 86.56
  Q 33.19 86.67 33.20 86.68
  Q 33.30 86.70 33.41 86.70
  Z"
/>
<path fill="#4e4aab" d="
  M 33.52 2.51
  C 43.82 2.52 52.76 7.37 58.76 15.52
  C 68.11 28.23 64.22 45.00 57.04 57.55
  Q 48.29 72.85 33.75 86.56
  Q 33.62 86.67 33.61 86.68
  Q 33.51 86.70 33.41 86.70
  Q 33.30 86.70 33.20 86.68
  Q 33.19 86.67 33.06 86.56
  Q 18.56 72.81 9.85 57.49
  C 2.71 44.92 -1.14 28.14 8.25 15.45
  C 14.27 7.31 23.22 2.50 33.52 2.51
  Z
  M 50.68 44.93
  A 0.36 0.36 0.0 0 0 51.06 44.48
  L 44.10 17.82
  A 0.36 0.36 0.0 0 0 43.79 17.55
  L 21.62 15.73
  A 0.36 0.36 0.0 0 0 21.24 16.18
  L 28.19 42.84
  A 0.36 0.36 0.0 0 0 28.50 43.11
  L 50.68 44.93
  Z
  M 16.16 22.19
  Q 17.13 19.34 19.42 17.97
  A 1.04 1.04 0.0 0 0 19.92 16.97
  L 19.89 16.64
  A 0.67 0.66 72.3 0 0 18.91 16.13
  Q 15.31 18.17 15.71 22.13
  A 0.23 0.23 0.0 0 0 16.16 22.19
  Z
  M 22.10 43.97
  Q 23.67 41.88 25.56 40.87
  A 0.73 0.72 68.6 0 0 25.92 40.04
  L 20.75 20.21
  A 0.92 0.92 0.0 0 0 19.06 19.98
  L 17.59 22.52
  A 5.20 5.17 -37.4 0 0 17.06 26.43
  L 21.61 43.88
  A 0.28 0.27 -33.9 0 0 22.10 43.97
  Z
  M 23.58 49.28
  Q 24.17 46.05 26.41 44.21
  A 1.14 1.13 -26.9 0 0 26.79 43.05
  L 26.70 42.70
  A 0.72 0.72 0.0 0 0 25.56 42.31
  Q 22.02 45.09 23.09 49.29
  A 0.25 0.25 0.0 0 0 23.58 49.28
  Z
  M 46.63 49.20
  L 48.60 48.96
  A 0.39 0.34 14.9 0 0 48.80 48.86
  Q 49.11 48.52 48.75 48.11
  Q 48.32 47.59 48.58 47.30
  Q 49.04 46.77 49.53 46.70
  A 0.27 0.27 0.0 0 0 49.51 46.16
  L 29.73 44.54
  A 3.59 3.58 -72.5 0 0 26.33 46.32
  L 25.21 48.27
  A 1.52 1.51 -72.7 0 0 26.40 50.54
  L 47.04 52.24
  A 0.74 0.74 0.0 0 0 47.83 51.61
  Q 48.00 50.47 46.54 49.67
  A 0.25 0.25 0.0 0 1 46.63 49.20
  Z"
/>
<path fill="#f0dfc1" d="
  M 50.68 44.93
  L 28.50 43.11
  A 0.36 0.36 0.0 0 1 28.19 42.84
  L 21.24 16.18
  A 0.36 0.36 0.0 0 1 21.62 15.73
  L 43.79 17.55
  A 0.36 0.36 0.0 0 1 44.10 17.82
  L 51.06 44.48
  A 0.36 0.36 0.0 0 1 50.68 44.93
  Z
  M 44.2097 24.0992
  A 0.60 0.60 0.0 0 0 43.6497 23.4617
  L 25.7071 22.3014
  A 0.60 0.60 0.0 0 0 25.0697 22.8614
  L 25.0503 23.1608
  A 0.60 0.60 0.0 0 0 25.6103 23.7983
  L 43.5529 24.9586
  A 0.60 0.60 0.0 0 0 44.1903 24.3986
  L 44.2097 24.0992
  Z
  M 33.47 31.34
  Q 34.19 30.53 35.15 30.06
  A 0.69 0.68 -20.5 0 0 35.52 29.26
  L 34.89 26.84
  A 0.85 0.85 0.0 0 0 33.86 26.23
  L 30.72 27.05
  A 0.75 0.75 0.0 0 1 29.80 26.51
  L 29.60 25.74
  A 0.76 0.76 0.0 0 0 28.39 25.34
  Q 24.73 28.20 27.58 31.39
  Q 28.41 32.32 29.25 32.48
  A 0.69 0.69 0.0 0 0 29.73 31.20
  Q 27.80 30.10 27.84 28.10
  A 0.54 0.54 0.0 0 1 28.87 27.89
  Q 28.97 28.11 29.39 28.63
  A 0.74 0.73 63.3 0 0 30.15 28.89
  L 33.15 28.11
  A 0.58 0.58 0.0 0 1 33.71 29.08
  Q 32.99 29.81 32.36 30.43
  A 1.67 1.63 40.5 0 0 32.59 32.95
  C 34.72 34.47 39.58 30.15 40.37 28.85
  A 0.72 0.70 -64.7 0 1 41.20 28.54
  Q 42.10 28.85 42.66 29.75
  A 0.49 0.49 0.0 0 1 42.33 30.49
  Q 40.96 30.72 40.36 31.31
  A 0.60 0.60 0.0 0 0 40.32 32.11
  Q 42.80 35.14 46.17 32.96
  A 0.61 0.61 0.0 0 0 45.69 31.86
  L 43.01 32.56
  A 0.40 0.40 0.0 0 1 42.70 31.83
  Q 44.12 30.98 45.18 31.06
  A 0.32 0.32 0.0 0 0 45.43 30.51
  L 41.29 26.37
  A 0.73 0.72 -55.5 0 0 40.11 26.59
  Q 38.38 30.55 33.73 31.75
  A 0.26 0.25 12.9 0 1 33.47 31.34
  Z
  M 47.4301 36.2489
  A 0.72 0.72 0.0 0 0 46.7594 35.4828
  L 28.9587 34.3005
  A 0.72 0.72 0.0 0 0 28.1925 34.9712
  L 28.1899 35.0111
  A 0.72 0.72 0.0 0 0 28.8606 35.7772
  L 46.6613 36.9595
  A 0.72 0.72 0.0 0 0 47.4275 36.2888
  L 47.4301 36.2489
  Z"
/>
<path fill="#f0dfc1" d="
  M 16.16 22.19
  A 0.23 0.23 0.0 0 1 15.71 22.13
  Q 15.31 18.17 18.91 16.13
  A 0.67 0.66 72.3 0 1 19.89 16.64
  L 19.92 16.97
  A 1.04 1.04 0.0 0 1 19.42 17.97
  Q 17.13 19.34 16.16 22.19
  Z"
/>
<path fill="#f0dfc1" d="
  M 21.61 43.88
  L 17.06 26.43
  A 5.20 5.17 -37.4 0 1 17.59 22.52
  L 19.06 19.98
  A 0.92 0.92 0.0 0 1 20.75 20.21
  L 25.92 40.04
  A 0.73 0.72 68.6 0 1 25.56 40.87
  Q 23.67 41.88 22.10 43.97
  A 0.28 0.27 -33.9 0 1 21.61 43.88
  Z"
/>
<rect fill="#4e4aab" x="-9.59" y="-0.75" transform="translate(34.63,23.63) rotate(3.7)" width="19.18" height="1.50" rx="0.60"/>
<path fill="#4e4aab" d="
  M 33.47 31.34
  A 0.26 0.25 12.9 0 0 33.73 31.75
  Q 38.38 30.55 40.11 26.59
  A 0.73 0.72 -55.5 0 1 41.29 26.37
  L 45.43 30.51
  A 0.32 0.32 0.0 0 1 45.18 31.06
  Q 44.12 30.98 42.70 31.83
  A 0.40 0.40 0.0 0 0 43.01 32.56
  L 45.69 31.86
  A 0.61 0.61 0.0 0 1 46.17 32.96
  Q 42.80 35.14 40.32 32.11
  A 0.60 0.60 0.0 0 1 40.36 31.31
  Q 40.96 30.72 42.33 30.49
  A 0.49 0.49 0.0 0 0 42.66 29.75
  Q 42.10 28.85 41.20 28.54
  A 0.72 0.70 -64.7 0 0 40.37 28.85
  C 39.58 30.15 34.72 34.47 32.59 32.95
  A 1.67 1.63 40.5 0 1 32.36 30.43
  Q 32.99 29.81 33.71 29.08
  A 0.58 0.58 0.0 0 0 33.15 28.11
  L 30.15 28.89
  A 0.74 0.73 63.3 0 1 29.39 28.63
  Q 28.97 28.11 28.87 27.89
  A 0.54 0.54 0.0 0 0 27.84 28.10
  Q 27.80 30.10 29.73 31.20
  A 0.69 0.69 0.0 0 1 29.25 32.48
  Q 28.41 32.32 27.58 31.39
  Q 24.73 28.20 28.39 25.34
  A 0.76 0.76 0.0 0 1 29.60 25.74
  L 29.80 26.51
  A 0.75 0.75 0.0 0 0 30.72 27.05
  L 33.86 26.23
  A 0.85 0.85 0.0 0 1 34.89 26.84
  L 35.52 29.26
  A 0.69 0.68 -20.5 0 1 35.15 30.06
  Q 34.19 30.53 33.47 31.34
  Z"
/>
<rect fill="#4e4aab" x="-9.64" y="-0.74" transform="translate(37.81,35.63) rotate(3.8)" width="19.28" height="1.48" rx="0.72"/>
<path fill="#f0dfc1" d="
  M 23.58 49.28
  A 0.25 0.25 0.0 0 1 23.09 49.29
  Q 22.02 45.09 25.56 42.31
  A 0.72 0.72 0.0 0 1 26.70 42.70
  L 26.79 43.05
  A 1.14 1.13 -26.9 0 1 26.41 44.21
  Q 24.17 46.05 23.58 49.28
  Z"
/>
<path fill="#f0dfc1" d="
  M 46.63 49.20
  A 0.25 0.25 0.0 0 0 46.54 49.67
  Q 48.00 50.47 47.83 51.61
  A 0.74 0.74 0.0 0 1 47.04 52.24
  L 26.40 50.54
  A 1.52 1.51 -72.7 0 1 25.21 48.27
  L 26.33 46.32
  A 3.59 3.58 -72.5 0 1 29.73 44.54
  L 49.51 46.16
  A 0.27 0.27 0.0 0 1 49.53 46.70
  Q 49.04 46.77 48.58 47.30
  Q 48.32 47.59 48.75 48.11
  Q 49.11 48.52 48.80 48.86
  A 0.39 0.34 14.9 0 1 48.60 48.96
  L 46.63 49.20
  Z"
/>
</svg>
