<?xml version="1.0" encoding="UTF-8" standalone="no"?>
<!DOCTYPE svg PUBLIC "-//W3C//DTD SVG 1.1//EN" "http://www.w3.org/Graphics/SVG/1.1/DTD/svg11.dtd">
<svg xmlns="http://www.w3.org/2000/svg" version="1.1" viewBox="0.00 0.00 66.00 88.00">
<g stroke-width="2.00" fill="none" stroke-linecap="butt">
<path stroke="#3a3882" vector-effect="non-scaling-stroke" d="
  M 33.41 86.70
  Q 33.51 86.70 33.61 86.68
  Q 33.63 86.68 33.75 86.56
  Q 48.80 72.35 57.58 56.56
  C 64.30 44.49 67.80 28.23 59.09 15.99
  C 53.11 7.57 44.08 2.54 33.52 2.53
  C 22.96 2.51 13.92 7.52 7.91 15.92
  C -0.83 28.14 2.63 44.41 9.31 56.50
  Q 18.05 72.31 33.06 86.56
  Q 33.18 86.68 33.20 86.68
  Q 33.30 86.70 33.41 86.70"
/>
<path stroke="#a095b6" vector-effect="non-scaling-stroke" d="
  M 40.35 20.21
  Q 40.38 20.21 41.76 17.64
  A 1.10 1.08 58.4 0 0 41.89 17.06
  Q 41.85 15.94 40.86 15.82
  Q 39.88 15.71 39.58 16.79
  A 1.10 1.08 -45.0 0 0 39.57 17.39
  Q 40.32 20.21 40.35 20.21"
/>
<path stroke="#a095b6" vector-effect="non-scaling-stroke" d="
  M 46.21 22.35
  C 45.88 21.06 43.78 20.03 42.28 20.39
  Q 40.92 20.72 40.36 20.70
  A 0.95 0.95 0.0 0 1 39.46 19.90
  Q 39.03 17.28 34.82 17.37
  A 0.24 0.24 0.0 0 0 34.72 17.82
  C 37.40 19.17 40.73 21.27 38.26 24.78
  A 0.47 0.47 0.0 0 1 37.51 24.81
  Q 34.83 21.51 31.47 24.83
  A 0.29 0.29 0.0 0 0 31.74 25.31
  Q 34.32 24.68 36.41 25.30
  A 1.54 1.53 13.5 0 1 37.49 27.06
  L 36.83 30.52
  A 0.29 0.28 10.5 0 0 37.07 30.86
  L 37.37 30.92
  A 0.23 0.22 10.5 0 0 37.63 30.75
  L 38.23 27.59
  A 1.02 1.02 0.0 0 1 38.80 26.86
  Q 41.54 25.54 45.07 27.37
  A 0.33 0.33 0.0 0 0 45.55 27.01
  C 45.01 24.34 41.18 24.19 39.59 25.76
  A 0.53 0.52 82.8 0 1 38.77 25.12
  L 40.43 22.25
  A 0.70 0.69 15.9 0 1 41.07 21.90
  Q 43.50 22.01 45.67 22.84
  A 0.41 0.41 0.0 0 0 46.21 22.35"
/>
<path stroke="#a095b6" vector-effect="non-scaling-stroke" d="
  M 27.37 28.75
  Q 32.99 29.18 35.50 31.75
  A 1.77 1.77 0.0 0 1 35.76 33.87
  L 32.91 38.81
  A 0.56 0.56 0.0 0 1 31.89 38.35
  C 33.94 32.04 25.64 30.32 21.41 31.01
  A 0.37 0.37 0.0 0 0 21.43 31.74
  Q 27.85 32.44 31.14 38.66
  A 2.03 2.03 0.0 0 1 31.10 40.62
  L 28.96 44.33
  A 0.26 0.25 -60.8 0 0 29.05 44.67
  L 29.35 44.85
  A 0.21 0.20 29.9 0 0 29.62 44.78
  L 31.63 41.29
  A 0.88 0.87 -76.2 0 1 32.35 40.85
  Q 35.03 40.73 36.49 41.29
  Q 40.04 42.66 43.12 46.89
  A 0.32 0.31 22.7 0 0 43.69 46.66
  C 43.23 43.74 41.37 40.35 38.31 39.20
  A 1.07 1.07 0.0 0 0 37.39 39.28
  Q 35.59 40.32 33.36 40.08
  A 0.37 0.36 23.7 0 1 33.12 39.48
  Q 35.22 37.09 36.39 34.00
  A 2.54 2.53 -74.8 0 1 39.17 32.40
  Q 42.33 32.93 45.57 35.47
  A 0.36 0.35 -73.2 0 0 46.14 35.16
  Q 46.06 34.14 44.04 32.26
  Q 41.49 29.90 38.58 31.40
  A 2.26 2.17 61.5 0 1 35.66 30.47
  Q 32.52 24.94 27.24 28.23
  A 0.28 0.28 0.0 0 0 27.37 28.75"
/>
<path stroke="#a095b6" vector-effect="non-scaling-stroke" d="
  M 24.90 50.37
  L 24.96 50.03
  A 0.32 0.32 0.0 0 1 25.57 49.96
  Q 25.82 50.52 25.35 50.95
  A 0.45 0.44 -51.6 0 0 25.43 51.67
  Q 26.52 52.29 27.56 52.20
  A 0.81 0.81 0.0 0 0 28.31 51.39
  L 28.31 47.96
  A 1.11 1.10 -17.3 0 1 28.79 47.05
  Q 30.32 45.99 31.36 46.14
  Q 37.19 47.00 41.49 50.73
  A 0.37 0.37 0.0 0 0 42.08 50.32
  C 40.07 44.74 35.13 43.16 29.97 45.74
  A 0.74 0.73 -40.3 0 1 29.21 45.68
  Q 27.64 44.56 28.27 43.13
  C 30.32 38.51 22.86 36.72 19.92 37.32
  A 0.41 0.41 0.0 0 0 19.67 37.97
  Q 21.99 41.10 26.22 43.73
  C 27.15 44.31 27.95 45.86 27.86 46.81
  A 1.02 1.02 0.0 0 1 27.24 47.67
  Q 25.34 48.45 24.27 49.63
  A 0.50 0.49 53.9 0 0 24.19 50.17
  Q 24.25 50.28 24.41 50.48
  A 0.28 0.27 32.2 0 0 24.90 50.37"
/>
</g>
<path fill="#262659" d="
  M 33.79 88.00
  L 33.04 88.00
  C 21.75 77.73 12.13 65.70 5.67 51.56
  Q 0.19 39.60 2.06 26.55
  Q 2.41 24.10 4.29 19.97
  C 11.62 3.80 30.96 -3.12 46.98 4.30
  C 58.77 9.76 66.00 21.25 65.43 34.27
  Q 65.10 41.91 62.34 49.05
  C 56.62 63.80 45.45 77.43 33.79 88.00
  Z
  M 33.41 86.70
  Q 33.51 86.70 33.61 86.68
  Q 33.63 86.68 33.75 86.56
  Q 48.80 72.35 57.58 56.56
  C 64.30 44.49 67.80 28.23 59.09 15.99
  C 53.11 7.57 44.08 2.54 33.52 2.53
  C 22.96 2.51 13.92 7.52 7.91 15.92
  C -0.83 28.14 2.63 44.41 9.31 56.50
  Q 18.05 72.31 33.06 86.56
  Q 33.18 86.68 33.20 86.68
  Q 33.30 86.70 33.41 86.70
  Z"
/>
<path fill="#4e4aab" d="
  M 33.52 2.53
  C 44.08 2.54 53.11 7.57 59.09 15.99
  C 67.80 28.23 64.30 44.49 57.58 56.56
  Q 48.80 72.35 33.75 86.56
  Q 33.63 86.68 33.61 86.68
  Q 33.51 86.70 33.41 86.70
  Q 33.30 86.70 33.20 86.68
  Q 33.18 86.68 33.06 86.56
  Q 18.05 72.31 9.31 56.50
  C 2.63 44.41 -0.83 28.14 7.91 15.92
  C 13.92 7.52 22.96 2.51 33.52 2.53
  Z
  M 40.35 20.21
  Q 40.38 20.21 41.76 17.64
  A 1.10 1.08 58.4 0 0 41.89 17.06
  Q 41.85 15.94 40.86 15.82
  Q 39.88 15.71 39.58 16.79
  A 1.10 1.08 -45.0 0 0 39.57 17.39
  Q 40.32 20.21 40.35 20.21
  Z
  M 46.21 22.35
  C 45.88 21.06 43.78 20.03 42.28 20.39
  Q 40.92 20.72 40.36 20.70
  A 0.95 0.95 0.0 0 1 39.46 19.90
  Q 39.03 17.28 34.82 17.37
  A 0.24 0.24 0.0 0 0 34.72 17.82
  C 37.40 19.17 40.73 21.27 38.26 24.78
  A 0.47 0.47 0.0 0 1 37.51 24.81
  Q 34.83 21.51 31.47 24.83
  A 0.29 0.29 0.0 0 0 31.74 25.31
  Q 34.32 24.68 36.41 25.30
  A 1.54 1.53 13.5 0 1 37.49 27.06
  L 36.83 30.52
  A 0.29 0.28 10.5 0 0 37.07 30.86
  L 37.37 30.92
  A 0.23 0.22 10.5 0 0 37.63 30.75
  L 38.23 27.59
  A 1.02 1.02 0.0 0 1 38.80 26.86
  Q 41.54 25.54 45.07 27.37
  A 0.33 0.33 0.0 0 0 45.55 27.01
  C 45.01 24.34 41.18 24.19 39.59 25.76
  A 0.53 0.52 82.8 0 1 38.77 25.12
  L 40.43 22.25
  A 0.70 0.69 15.9 0 1 41.07 21.90
  Q 43.50 22.01 45.67 22.84
  A 0.41 0.41 0.0 0 0 46.21 22.35
  Z
  M 27.37 28.75
  Q 32.99 29.18 35.50 31.75
  A 1.77 1.77 0.0 0 1 35.76 33.87
  L 32.91 38.81
  A 0.56 0.56 0.0 0 1 31.89 38.35
  C 33.94 32.04 25.64 30.32 21.41 31.01
  A 0.37 0.37 0.0 0 0 21.43 31.74
  Q 27.85 32.44 31.14 38.66
  A 2.03 2.03 0.0 0 1 31.10 40.62
  L 28.96 44.33
  A 0.26 0.25 -60.8 0 0 29.05 44.67
  L 29.35 44.85
  A 0.21 0.20 29.9 0 0 29.62 44.78
  L 31.63 41.29
  A 0.88 0.87 -76.2 0 1 32.35 40.85
  Q 35.03 40.73 36.49 41.29
  Q 40.04 42.66 43.12 46.89
  A 0.32 0.31 22.7 0 0 43.69 46.66
  C 43.23 43.74 41.37 40.35 38.31 39.20
  A 1.07 1.07 0.0 0 0 37.39 39.28
  Q 35.59 40.32 33.36 40.08
  A 0.37 0.36 23.7 0 1 33.12 39.48
  Q 35.22 37.09 36.39 34.00
  A 2.54 2.53 -74.8 0 1 39.17 32.40
  Q 42.33 32.93 45.57 35.47
  A 0.36 0.35 -73.2 0 0 46.14 35.16
  Q 46.06 34.14 44.04 32.26
  Q 41.49 29.90 38.58 31.40
  A 2.26 2.17 61.5 0 1 35.66 30.47
  Q 32.52 24.94 27.24 28.23
  A 0.28 0.28 0.0 0 0 27.37 28.75
  Z
  M 24.90 50.37
  L 24.96 50.03
  A 0.32 0.32 0.0 0 1 25.57 49.96
  Q 25.82 50.52 25.35 50.95
  A 0.45 0.44 -51.6 0 0 25.43 51.67
  Q 26.52 52.29 27.56 52.20
  A 0.81 0.81 0.0 0 0 28.31 51.39
  L 28.31 47.96
  A 1.11 1.10 -17.3 0 1 28.79 47.05
  Q 30.32 45.99 31.36 46.14
  Q 37.19 47.00 41.49 50.73
  A 0.37 0.37 0.0 0 0 42.08 50.32
  C 40.07 44.74 35.13 43.16 29.97 45.74
  A 0.74 0.73 -40.3 0 1 29.21 45.68
  Q 27.64 44.56 28.27 43.13
  C 30.32 38.51 22.86 36.72 19.92 37.32
  A 0.41 0.41 0.0 0 0 19.67 37.97
  Q 21.99 41.10 26.22 43.73
  C 27.15 44.31 27.95 45.86 27.86 46.81
  A 1.02 1.02 0.0 0 1 27.24 47.67
  Q 25.34 48.45 24.27 49.63
  A 0.50 0.49 53.9 0 0 24.19 50.17
  Q 24.25 50.28 24.41 50.48
  A 0.28 0.27 32.2 0 0 24.90 50.37
  Z"
/>
<path fill="#f1dfc1" d="
  M 40.86 15.82
  Q 41.85 15.94 41.89 17.06
  A 1.10 1.08 58.4 0 1 41.76 17.64
  Q 40.38 20.21 40.35 20.21
  Q 40.32 20.21 39.57 17.39
  A 1.10 1.08 -45.0 0 1 39.58 16.79
  Q 39.88 15.71 40.86 15.82
  Z"
/>
<path fill="#f1dfc1" d="
  M 45.67 22.84
  Q 43.50 22.01 41.07 21.90
  A 0.70 0.69 15.9 0 0 40.43 22.25
  L 38.77 25.12
  A 0.53 0.52 82.8 0 0 39.59 25.76
  C 41.18 24.19 45.01 24.34 45.55 27.01
  A 0.33 0.33 0.0 0 1 45.07 27.37
  Q 41.54 25.54 38.80 26.86
  A 1.02 1.02 0.0 0 0 38.23 27.59
  L 37.63 30.75
  A 0.23 0.22 10.5 0 1 37.37 30.92
  L 37.07 30.86
  A 0.29 0.28 10.5 0 1 36.83 30.52
  L 37.49 27.06
  A 1.54 1.53 13.5 0 0 36.41 25.30
  Q 34.32 24.68 31.74 25.31
  A 0.29 0.29 0.0 0 1 31.47 24.83
  Q 34.83 21.51 37.51 24.81
  A 0.47 0.47 0.0 0 0 38.26 24.78
  C 40.73 21.27 37.40 19.17 34.72 17.82
  A 0.24 0.24 0.0 0 1 34.82 17.37
  Q 39.03 17.28 39.46 19.90
  A 0.95 0.95 0.0 0 0 40.36 20.70
  Q 40.92 20.72 42.28 20.39
  C 43.78 20.03 45.88 21.06 46.21 22.35
  A 0.41 0.41 0.0 0 1 45.67 22.84
  Z"
/>
<path fill="#f1dfc1" d="
  M 27.24 28.23
  Q 32.52 24.94 35.66 30.47
  A 2.26 2.17 61.5 0 0 38.58 31.40
  Q 41.49 29.90 44.04 32.26
  Q 46.06 34.14 46.14 35.16
  A 0.36 0.35 -73.2 0 1 45.57 35.47
  Q 42.33 32.93 39.17 32.40
  A 2.54 2.53 -74.8 0 0 36.39 34.00
  Q 35.22 37.09 33.12 39.48
  A 0.37 0.36 23.7 0 0 33.36 40.08
  Q 35.59 40.32 37.39 39.28
  A 1.07 1.07 0.0 0 1 38.31 39.20
  C 41.37 40.35 43.23 43.74 43.69 46.66
  A 0.32 0.31 22.7 0 1 43.12 46.89
  Q 40.04 42.66 36.49 41.29
  Q 35.03 40.73 32.35 40.85
  A 0.88 0.87 -76.2 0 0 31.63 41.29
  L 29.62 44.78
  A 0.21 0.20 29.9 0 1 29.35 44.85
  L 29.05 44.67
  A 0.26 0.25 -60.8 0 1 28.96 44.33
  L 31.10 40.62
  A 2.03 2.03 0.0 0 0 31.14 38.66
  Q 27.85 32.44 21.43 31.74
  A 0.37 0.37 0.0 0 1 21.41 31.01
  C 25.64 30.32 33.94 32.04 31.89 38.35
  A 0.56 0.56 0.0 0 0 32.91 38.81
  L 35.76 33.87
  A 1.77 1.77 0.0 0 0 35.50 31.75
  Q 32.99 29.18 27.37 28.75
  A 0.28 0.28 0.0 0 1 27.24 28.23
  Z"
/>
<path fill="#f1dfc1" d="
  M 24.41 50.48
  Q 24.25 50.28 24.19 50.17
  A 0.50 0.49 53.9 0 1 24.27 49.63
  Q 25.34 48.45 27.24 47.67
  A 1.02 1.02 0.0 0 0 27.86 46.81
  C 27.95 45.86 27.15 44.31 26.22 43.73
  Q 21.99 41.10 19.67 37.97
  A 0.41 0.41 0.0 0 1 19.92 37.32
  C 22.86 36.72 30.32 38.51 28.27 43.13
  Q 27.64 44.56 29.21 45.68
  A 0.74 0.73 -40.3 0 0 29.97 45.74
  C 35.13 43.16 40.07 44.74 42.08 50.32
  A 0.37 0.37 0.0 0 1 41.49 50.73
  Q 37.19 47.00 31.36 46.14
  Q 30.32 45.99 28.79 47.05
  A 1.11 1.10 -17.3 0 0 28.31 47.96
  L 28.31 51.39
  A 0.81 0.81 0.0 0 1 27.56 52.20
  Q 26.52 52.29 25.43 51.67
  A 0.45 0.44 -51.6 0 1 25.35 50.95
  Q 25.82 50.52 25.57 49.96
  A 0.32 0.32 0.0 0 0 24.96 50.03
  L 24.90 50.37
  A 0.28 0.27 32.2 0 1 24.41 50.48
  Z"
/>
</svg>
