<?xml version="1.0" encoding="UTF-8" standalone="no"?>
<!DOCTYPE svg PUBLIC "-//W3C//DTD SVG 1.1//EN" "http://www.w3.org/Graphics/SVG/1.1/DTD/svg11.dtd">
<svg xmlns="http://www.w3.org/2000/svg" version="1.1" viewBox="0.00 0.00 66.00 88.00">
<g stroke-width="2.00" fill="none" stroke-linecap="butt">
<path stroke="#313930" vector-effect="non-scaling-stroke" d="
  M 33.42 86.59
  C 33.79 86.59 33.65 86.61 33.81 86.46
  Q 48.33 73.14 57.57 56.52
  Q 62.49 47.67 63.86 38.27
  Q 66.00 23.59 56.86 13.16
  C 50.92 6.39 42.70 2.58 33.53 2.57
  C 24.36 2.56 16.13 6.34 10.17 13.10
  Q 1.01 23.50 3.11 38.19
  Q 4.45 47.59 9.35 56.46
  Q 18.54 73.10 33.03 86.46
  C 33.19 86.61 33.05 86.59 33.42 86.59"
/>
<path stroke="#989580" vector-effect="non-scaling-stroke" d="
  M 23.21 33.99
  Q 23.21 48.82 23.25 51.21
  A 1.22 1.09 -10.7 0 0 24.85 52.17
  Q 25.46 51.96 25.66 50.64
  A 0.75 0.75 0.0 0 1 26.37 49.99
  Q 26.49 49.99 33.00 49.99
  Q 39.50 49.99 39.62 50.00
  A 0.75 0.75 0.0 0 1 40.33 50.64
  Q 40.53 51.96 41.14 52.17
  A 1.22 1.09 10.7 0 0 42.74 51.21
  Q 42.79 48.82 42.79 33.99
  Q 42.79 19.16 42.74 16.76
  A 1.22 1.09 -10.7 0 0 41.14 15.80
  Q 40.53 16.01 40.33 17.33
  A 0.75 0.75 0.0 0 1 39.62 17.98
  Q 39.51 17.98 33.00 17.98
  Q 26.49 17.98 26.38 17.98
  A 0.75 0.75 0.0 0 1 25.66 17.33
  Q 25.46 16.01 24.85 15.80
  A 1.22 1.09 10.7 0 0 23.26 16.76
  Q 23.21 19.16 23.21 33.99"
/>
<path stroke="#989580" vector-effect="non-scaling-stroke" d="
  M 40.3238 20.8128
  A 0.30 0.30 0.0 0 0 40.0243 20.5123
  L 25.9844 20.4878
  A 0.30 0.30 0.0 0 0 25.6838 20.7872
  L 25.6762 25.1672
  A 0.30 0.30 0.0 0 0 25.9757 25.4677
  L 40.0156 25.4922
  A 0.30 0.30 0.0 0 0 40.3162 25.1928
  L 40.3238 20.8128"
/>
<path stroke="#989580" vector-effect="non-scaling-stroke" d="
  M 40.33 28.36
  A 0.35 0.35 0.0 0 0 39.98 28.01
  L 26.02 28.01
  A 0.35 0.35 0.0 0 0 25.67 28.36
  L 25.67 32.40
  A 0.35 0.35 0.0 0 0 26.02 32.75
  L 39.98 32.75
  A 0.35 0.35 0.0 0 0 40.33 32.40
  L 40.33 28.36"
/>
<path stroke="#989580" vector-effect="non-scaling-stroke" d="
  M 40.33 35.59
  A 0.33 0.33 0.0 0 0 40.00 35.26
  L 26.00 35.26
  A 0.33 0.33 0.0 0 0 25.67 35.59
  L 25.67 39.67
  A 0.33 0.33 0.0 0 0 26.00 40.00
  L 40.00 40.00
  A 0.33 0.33 0.0 0 0 40.33 39.67
  L 40.33 35.59"
/>
<path stroke="#989580" vector-effect="non-scaling-stroke" d="
  M 40.33 42.79
  A 0.30 0.30 0.0 0 0 40.03 42.49
  L 25.97 42.49
  A 0.30 0.30 0.0 0 0 25.67 42.79
  L 25.67 47.19
  A 0.30 0.30 0.0 0 0 25.97 47.49
  L 40.03 47.49
  A 0.30 0.30 0.0 0 0 40.33 47.19
  L 40.33 42.79"
/>
</g>
<path fill="#212820" d="
  M 33.80 88.00
  L 33.04 88.00
  C 21.68 77.69 12.11 65.67 5.62 51.40
  Q 2.10 43.69 1.57 34.83
  C 0.59 18.82 11.18 5.75 26.65 2.05
  C 37.32 -0.50 49.61 3.33 57.12 11.62
  C 79.44 36.24 52.36 71.08 33.80 88.00
  Z
  M 33.42 86.59
  C 33.79 86.59 33.65 86.61 33.81 86.46
  Q 48.33 73.14 57.57 56.52
  Q 62.49 47.67 63.86 38.27
  Q 66.00 23.59 56.86 13.16
  C 50.92 6.39 42.70 2.58 33.53 2.57
  C 24.36 2.56 16.13 6.34 10.17 13.10
  Q 1.01 23.50 3.11 38.19
  Q 4.45 47.59 9.35 56.46
  Q 18.54 73.10 33.03 86.46
  C 33.19 86.61 33.05 86.59 33.42 86.59
  Z"
/>
<path fill="#404a3f" d="
  M 33.53 2.57
  C 42.70 2.58 50.92 6.39 56.86 13.16
  Q 66.00 23.59 63.86 38.27
  Q 62.49 47.67 57.57 56.52
  Q 48.33 73.14 33.81 86.46
  C 33.65 86.61 33.79 86.59 33.42 86.59
  C 33.05 86.59 33.19 86.61 33.03 86.46
  Q 18.54 73.10 9.35 56.46
  Q 4.45 47.59 3.11 38.19
  Q 1.01 23.50 10.17 13.10
  C 16.13 6.34 24.36 2.56 33.53 2.57
  Z
  M 23.21 33.99
  Q 23.21 48.82 23.25 51.21
  A 1.22 1.09 -10.7 0 0 24.85 52.17
  Q 25.46 51.96 25.66 50.64
  A 0.75 0.75 0.0 0 1 26.37 49.99
  Q 26.49 49.99 33.00 49.99
  Q 39.50 49.99 39.62 50.00
  A 0.75 0.75 0.0 0 1 40.33 50.64
  Q 40.53 51.96 41.14 52.17
  A 1.22 1.09 10.7 0 0 42.74 51.21
  Q 42.79 48.82 42.79 33.99
  Q 42.79 19.16 42.74 16.76
  A 1.22 1.09 -10.7 0 0 41.14 15.80
  Q 40.53 16.01 40.33 17.33
  A 0.75 0.75 0.0 0 1 39.62 17.98
  Q 39.51 17.98 33.00 17.98
  Q 26.49 17.98 26.38 17.98
  A 0.75 0.75 0.0 0 1 25.66 17.33
  Q 25.46 16.01 24.85 15.80
  A 1.22 1.09 10.7 0 0 23.26 16.76
  Q 23.21 19.16 23.21 33.99
  Z"
/>
<path fill="#f0dfc1" d="
  M 33.00 17.98
  Q 39.51 17.98 39.62 17.98
  A 0.75 0.75 0.0 0 0 40.33 17.33
  Q 40.53 16.01 41.14 15.80
  A 1.22 1.09 -10.7 0 1 42.74 16.76
  Q 42.79 19.16 42.79 33.99
  Q 42.79 48.82 42.74 51.21
  A 1.22 1.09 10.7 0 1 41.14 52.17
  Q 40.53 51.96 40.33 50.64
  A 0.75 0.75 0.0 0 0 39.62 50.00
  Q 39.50 49.99 33.00 49.99
  Q 26.49 49.99 26.37 49.99
  A 0.75 0.75 0.0 0 0 25.66 50.64
  Q 25.46 51.96 24.85 52.17
  A 1.22 1.09 -10.7 0 1 23.25 51.21
  Q 23.21 48.82 23.21 33.99
  Q 23.21 19.16 23.26 16.76
  A 1.22 1.09 10.7 0 1 24.85 15.80
  Q 25.46 16.01 25.66 17.33
  A 0.75 0.75 0.0 0 0 26.38 17.98
  Q 26.49 17.98 33.00 17.98
  Z
  M 40.3238 20.8128
  A 0.30 0.30 0.0 0 0 40.0243 20.5123
  L 25.9844 20.4878
  A 0.30 0.30 0.0 0 0 25.6838 20.7872
  L 25.6762 25.1672
  A 0.30 0.30 0.0 0 0 25.9757 25.4677
  L 40.0156 25.4922
  A 0.30 0.30 0.0 0 0 40.3162 25.1928
  L 40.3238 20.8128
  Z
  M 40.33 28.36
  A 0.35 0.35 0.0 0 0 39.98 28.01
  L 26.02 28.01
  A 0.35 0.35 0.0 0 0 25.67 28.36
  L 25.67 32.40
  A 0.35 0.35 0.0 0 0 26.02 32.75
  L 39.98 32.75
  A 0.35 0.35 0.0 0 0 40.33 32.40
  L 40.33 28.36
  Z
  M 40.33 35.59
  A 0.33 0.33 0.0 0 0 40.00 35.26
  L 26.00 35.26
  A 0.33 0.33 0.0 0 0 25.67 35.59
  L 25.67 39.67
  A 0.33 0.33 0.0 0 0 26.00 40.00
  L 40.00 40.00
  A 0.33 0.33 0.0 0 0 40.33 39.67
  L 40.33 35.59
  Z
  M 40.33 42.79
  A 0.30 0.30 0.0 0 0 40.03 42.49
  L 25.97 42.49
  A 0.30 0.30 0.0 0 0 25.67 42.79
  L 25.67 47.19
  A 0.30 0.30 0.0 0 0 25.97 47.49
  L 40.03 47.49
  A 0.30 0.30 0.0 0 0 40.33 47.19
  L 40.33 42.79
  Z"
/>
<rect fill="#404a3f" x="-7.32" y="-2.49" transform="translate(33.00,22.99) rotate(0.1)" width="14.64" height="4.98" rx="0.30"/>
<rect fill="#404a3f" x="25.67" y="28.01" width="14.66" height="4.74" rx="0.35"/>
<rect fill="#404a3f" x="25.67" y="35.26" width="14.66" height="4.74" rx="0.33"/>
<rect fill="#404a3f" x="25.67" y="42.49" width="14.66" height="5.00" rx="0.30"/>
</svg>
