<?xml version="1.0" encoding="UTF-8" standalone="no"?>
<!DOCTYPE svg PUBLIC "-//W3C//DTD SVG 1.1//EN" "http://www.w3.org/Graphics/SVG/1.1/DTD/svg11.dtd">
<svg xmlns="http://www.w3.org/2000/svg" version="1.1" viewBox="0.00 0.00 66.00 88.00">
<g stroke-width="2.00" fill="none" stroke-linecap="butt">
<path stroke="#313930" vector-effect="non-scaling-stroke" d="
  M 33.42 86.59
  C 33.74 86.59 33.66 86.61 33.81 86.47
  Q 47.37 73.93 56.38 58.64
  Q 62.24 48.70 63.69 39.34
  Q 67.03 17.71 48.81 6.60
  Q 42.09 2.50 33.53 2.49
  Q 24.96 2.48 18.23 6.56
  Q -0.01 17.62 3.27 39.26
  Q 4.69 48.62 10.53 58.58
  Q 19.49 73.89 33.02 86.47
  C 33.17 86.60 33.09 86.59 33.42 86.59"
/>
<path stroke="#989580" vector-effect="non-scaling-stroke" d="
  M 25.75 51.86
  L 22.12 37.62
  A 0.94 0.93 -24.9 0 1 22.48 36.64
  C 26.57 33.69 30.32 31.36 34.59 34.91
  Q 36.21 36.26 36.96 36.51
  C 42.62 38.41 49.26 27.64 52.19 23.51
  A 0.67 0.67 0.0 0 0 51.40 22.49
  C 45.77 24.66 38.43 26.67 33.99 21.57
  C 29.96 16.95 27.70 13.66 21.12 17.66
  Q 17.15 20.08 13.93 21.16
  A 0.38 0.37 -16.1 0 0 13.68 21.60
  L 21.39 51.84
  A 0.53 0.53 0.0 0 0 21.90 52.24
  L 25.46 52.24
  A 0.30 0.30 0.0 0 0 25.75 51.86"
/>
</g>
<path fill="#212820" d="
  M 33.80 88.00
  L 33.04 88.00
  C 21.68 77.69 12.11 65.67 5.62 51.40
  Q 2.12 43.72 1.57 34.83
  C 0.57 18.83 11.25 5.67 26.71 2.05
  C 37.51 -0.48 49.70 3.36 57.26 11.77
  Q 67.82 23.53 64.84 39.76
  Q 62.54 52.31 54.57 64.07
  Q 45.67 77.20 33.80 88.00
  Z
  M 33.42 86.59
  C 33.74 86.59 33.66 86.61 33.81 86.47
  Q 47.37 73.93 56.38 58.64
  Q 62.24 48.70 63.69 39.34
  Q 67.03 17.71 48.81 6.60
  Q 42.09 2.50 33.53 2.49
  Q 24.96 2.48 18.23 6.56
  Q -0.01 17.62 3.27 39.26
  Q 4.69 48.62 10.53 58.58
  Q 19.49 73.89 33.02 86.47
  C 33.17 86.60 33.09 86.59 33.42 86.59
  Z"
/>
<path fill="#404a3f" d="
  M 33.53 2.49
  Q 42.09 2.50 48.81 6.60
  Q 67.03 17.71 63.69 39.34
  Q 62.24 48.70 56.38 58.64
  Q 47.37 73.93 33.81 86.47
  C 33.66 86.61 33.74 86.59 33.42 86.59
  C 33.09 86.59 33.17 86.60 33.02 86.47
  Q 19.49 73.89 10.53 58.58
  Q 4.69 48.62 3.27 39.26
  Q -0.01 17.62 18.23 6.56
  Q 24.96 2.48 33.53 2.49
  Z
  M 25.75 51.86
  L 22.12 37.62
  A 0.94 0.93 -24.9 0 1 22.48 36.64
  C 26.57 33.69 30.32 31.36 34.59 34.91
  Q 36.21 36.26 36.96 36.51
  C 42.62 38.41 49.26 27.64 52.19 23.51
  A 0.67 0.67 0.0 0 0 51.40 22.49
  C 45.77 24.66 38.43 26.67 33.99 21.57
  C 29.96 16.95 27.70 13.66 21.12 17.66
  Q 17.15 20.08 13.93 21.16
  A 0.38 0.37 -16.1 0 0 13.68 21.60
  L 21.39 51.84
  A 0.53 0.53 0.0 0 0 21.90 52.24
  L 25.46 52.24
  A 0.30 0.30 0.0 0 0 25.75 51.86
  Z"
/>
<path fill="#f0dfc1" d="
  M 25.75 51.86
  A 0.30 0.30 0.0 0 1 25.46 52.24
  L 21.90 52.24
  A 0.53 0.53 0.0 0 1 21.39 51.84
  L 13.68 21.60
  A 0.38 0.37 -16.1 0 1 13.93 21.16
  Q 17.15 20.08 21.12 17.66
  C 27.70 13.66 29.96 16.95 33.99 21.57
  C 38.43 26.67 45.77 24.66 51.40 22.49
  A 0.67 0.67 0.0 0 1 52.19 23.51
  C 49.26 27.64 42.62 38.41 36.96 36.51
  Q 36.21 36.26 34.59 34.91
  C 30.32 31.36 26.57 33.69 22.48 36.64
  A 0.94 0.93 -24.9 0 0 22.12 37.62
  L 25.75 51.86
  Z"
/>
</svg>
