<?xml version="1.0" encoding="UTF-8" standalone="no"?>
<!DOCTYPE svg PUBLIC "-//W3C//DTD SVG 1.1//EN" "http://www.w3.org/Graphics/SVG/1.1/DTD/svg11.dtd">
<svg xmlns="http://www.w3.org/2000/svg" version="1.1" viewBox="0.00 0.00 66.00 88.00">
<g stroke-width="2.00" fill="none" stroke-linecap="butt">
<path stroke="#313930" vector-effect="non-scaling-stroke" d="
  M 33.41 86.59
  C 33.56 86.59 33.72 86.58 33.82 86.48
  Q 49.84 71.07 57.57 56.54
  Q 62.66 46.98 63.81 38.52
  Q 66.68 17.47 48.78 6.56
  Q 42.23 2.56 33.53 2.55
  Q 24.84 2.53 18.27 6.51
  Q 0.34 17.38 3.15 38.43
  Q 4.28 46.90 9.34 56.47
  Q 17.03 71.02 33.01 86.48
  C 33.11 86.58 33.27 86.59 33.41 86.59"
/>
<path stroke="#989580" vector-effect="non-scaling-stroke" d="
  M 24.00 25.02
  Q 20.41 28.60 16.64 33.86
  A 0.16 0.13 71.6 0 0 16.61 33.95
  Q 16.61 33.98 16.61 34.01
  Q 16.61 34.03 16.61 34.06
  A 0.16 0.13 -71.6 0 0 16.64 34.15
  Q 20.41 39.42 23.99 43.01
  Q 27.57 46.59 32.84 50.37
  A 0.16 0.13 -18.4 0 0 32.93 50.40
  Q 32.96 50.40 32.98 50.40
  Q 33.00 50.40 33.03 50.40
  A 0.16 0.13 18.4 0 0 33.12 50.37
  Q 38.39 46.60 41.98 43.02
  Q 45.57 39.44 49.34 34.17
  A 0.16 0.13 71.6 0 0 49.37 34.08
  Q 49.37 34.05 49.37 34.03
  Q 49.37 34.01 49.37 33.98
  A 0.16 0.13 -71.6 0 0 49.34 33.89
  Q 45.57 28.62 41.99 25.03
  Q 38.41 21.44 33.14 17.67
  A 0.16 0.13 -18.4 0 0 33.05 17.64
  Q 33.02 17.63 33.00 17.63
  Q 32.98 17.63 32.95 17.64
  A 0.16 0.13 18.4 0 0 32.86 17.67
  Q 27.59 21.43 24.00 25.02"
/>
</g>
<path fill="#212820" d="
  M 33.78 88.00
  L 33.04 88.00
  C 21.71 77.71 12.19 65.75 5.68 51.55
  Q 2.13 43.82 1.58 34.90
  C 0.37 15.35 16.90 -0.37 36.66 1.49
  C 50.70 2.81 61.47 12.70 64.79 26.13
  Q 66.13 31.54 64.78 40.20
  Q 63.42 48.97 57.38 59.16
  Q 47.83 75.28 33.78 88.00
  Z
  M 33.41 86.59
  C 33.56 86.59 33.72 86.58 33.82 86.48
  Q 49.84 71.07 57.57 56.54
  Q 62.66 46.98 63.81 38.52
  Q 66.68 17.47 48.78 6.56
  Q 42.23 2.56 33.53 2.55
  Q 24.84 2.53 18.27 6.51
  Q 0.34 17.38 3.15 38.43
  Q 4.28 46.90 9.34 56.47
  Q 17.03 71.02 33.01 86.48
  C 33.11 86.58 33.27 86.59 33.41 86.59
  Z"
/>
<path fill="#404a3f" d="
  M 33.53 2.55
  Q 42.23 2.56 48.78 6.56
  Q 66.68 17.47 63.81 38.52
  Q 62.66 46.98 57.57 56.54
  Q 49.84 71.07 33.82 86.48
  C 33.72 86.58 33.56 86.59 33.41 86.59
  C 33.27 86.59 33.11 86.58 33.01 86.48
  Q 17.03 71.02 9.34 56.47
  Q 4.28 46.90 3.15 38.43
  Q 0.34 17.38 18.27 6.51
  Q 24.84 2.53 33.53 2.55
  Z
  M 24.00 25.02
  Q 20.41 28.60 16.64 33.86
  A 0.16 0.13 71.6 0 0 16.61 33.95
  Q 16.61 33.98 16.61 34.01
  Q 16.61 34.03 16.61 34.06
  A 0.16 0.13 -71.6 0 0 16.64 34.15
  Q 20.41 39.42 23.99 43.01
  Q 27.57 46.59 32.84 50.37
  A 0.16 0.13 -18.4 0 0 32.93 50.40
  Q 32.96 50.40 32.98 50.40
  Q 33.00 50.40 33.03 50.40
  A 0.16 0.13 18.4 0 0 33.12 50.37
  Q 38.39 46.60 41.98 43.02
  Q 45.57 39.44 49.34 34.17
  A 0.16 0.13 71.6 0 0 49.37 34.08
  Q 49.37 34.05 49.37 34.03
  Q 49.37 34.01 49.37 33.98
  A 0.16 0.13 -71.6 0 0 49.34 33.89
  Q 45.57 28.62 41.99 25.03
  Q 38.41 21.44 33.14 17.67
  A 0.16 0.13 -18.4 0 0 33.05 17.64
  Q 33.02 17.63 33.00 17.63
  Q 32.98 17.63 32.95 17.64
  A 0.16 0.13 18.4 0 0 32.86 17.67
  Q 27.59 21.43 24.00 25.02
  Z"
/>
<path fill="#f0dfc1" d="
  M 33.00 17.63
  Q 33.02 17.63 33.05 17.64
  A 0.16 0.13 -18.4 0 1 33.14 17.67
  Q 38.41 21.44 41.99 25.03
  Q 45.57 28.62 49.34 33.89
  A 0.16 0.13 -71.6 0 1 49.37 33.98
  Q 49.37 34.01 49.37 34.03
  Q 49.37 34.05 49.37 34.08
  A 0.16 0.13 71.6 0 1 49.34 34.17
  Q 45.57 39.44 41.98 43.02
  Q 38.39 46.60 33.12 50.37
  A 0.16 0.13 18.4 0 1 33.03 50.40
  Q 33.00 50.40 32.98 50.40
  Q 32.96 50.40 32.93 50.40
  A 0.16 0.13 -18.4 0 1 32.84 50.37
  Q 27.57 46.59 23.99 43.01
  Q 20.41 39.42 16.64 34.15
  A 0.16 0.13 -71.6 0 1 16.61 34.06
  Q 16.61 34.03 16.61 34.01
  Q 16.61 33.98 16.61 33.95
  A 0.16 0.13 71.6 0 1 16.64 33.86
  Q 20.41 28.60 24.00 25.02
  Q 27.59 21.43 32.86 17.67
  A 0.16 0.13 18.4 0 1 32.95 17.64
  Q 32.98 17.63 33.00 17.63
  Z"
/>
</svg>
