<?xml version="1.0" encoding="UTF-8" standalone="no"?>
<!DOCTYPE svg PUBLIC "-//W3C//DTD SVG 1.1//EN" "http://www.w3.org/Graphics/SVG/1.1/DTD/svg11.dtd">
<svg xmlns="http://www.w3.org/2000/svg" version="1.1" viewBox="0.00 0.00 66.00 88.00">
<g stroke-width="2.00" fill="none" stroke-linecap="butt">
<path stroke="#3a3882" vector-effect="non-scaling-stroke" d="
  M 33.41 86.70
  Q 33.51 86.70 33.61 86.68
  Q 33.63 86.68 33.76 86.55
  Q 47.64 73.49 56.49 58.51
  C 63.93 45.91 68.25 28.93 59.09 15.99
  C 53.12 7.57 44.08 2.55 33.52 2.53
  C 22.96 2.52 13.90 7.52 7.91 15.93
  C -1.28 28.84 2.99 45.83 10.40 58.45
  Q 19.21 73.45 33.06 86.55
  Q 33.19 86.68 33.20 86.68
  Q 33.30 86.70 33.41 86.70"
/>
<path stroke="#9f95b6" vector-effect="non-scaling-stroke" d="
  M 17.86 24.04
  A 0.94 0.94 0.0 0 0 17.47 24.61
  L 14.76 36.57
  A 0.94 0.94 0.0 0 0 14.92 37.35
  L 21.74 46.37
  A 0.94 0.94 0.0 0 0 22.49 46.74
  L 35.88 46.74
  A 0.94 0.94 0.0 0 0 36.61 46.39
  L 45.60 35.09
  A 0.94 0.94 0.0 0 0 45.79 34.31
  L 42.95 21.02
  A 0.94 0.94 0.0 0 0 42.34 20.33
  L 30.15 16.16
  A 0.94 0.94 0.0 0 0 29.32 16.27
  L 17.86 24.04"
/>
<path stroke="#9f95b6" vector-effect="non-scaling-stroke" d="
  M 51.24 35.17
  L 49.42 26.59
  A 1.99 1.98 -76.9 0 0 48.72 25.46
  L 46.79 23.92
  A 0.23 0.22 13.1 0 0 46.43 24.14
  L 48.56 34.11
  A 1.02 1.02 0.0 0 0 49.21 34.85
  L 50.94 35.44
  A 0.23 0.23 0.0 0 0 51.24 35.17"
/>
<path stroke="#9f95b6" vector-effect="non-scaling-stroke" d="
  M 47.72 37.25
  A 0.39 0.39 0.0 0 0 47.29 37.37
  L 44.41 40.99
  A 0.39 0.39 0.0 0 0 44.40 41.47
  L 46.01 43.60
  A 0.39 0.39 0.0 0 0 46.62 43.61
  L 50.49 38.74
  A 0.39 0.39 0.0 0 0 50.32 38.13
  L 47.72 37.25"
/>
<path stroke="#9f95b6" vector-effect="non-scaling-stroke" d="
  M 40.45 45.98
  Q 39.27 47.40 39.24 47.42
  A 0.68 0.68 0.0 0 0 39.08 48.39
  L 40.19 49.85
  A 0.66 0.65 -40.9 0 0 41.17 49.92
  Q 41.53 49.57 42.80 48.04
  Q 43.98 46.62 44.01 46.60
  A 0.68 0.68 0.0 0 0 44.17 45.63
  L 43.06 44.17
  A 0.66 0.65 -40.9 0 0 42.08 44.10
  Q 41.72 44.45 40.45 45.98"
/>
<path stroke="#9f95b6" vector-effect="non-scaling-stroke" d="
  M 27.66 52.01
  Q 29.62 52.14 30.41 51.98
  A 0.30 0.30 0.0 0 0 30.60 51.50
  L 29.39 49.90
  A 0.88 0.87 -16.4 0 0 28.75 49.55
  Q 28.14 49.51 27.50 49.47
  Q 25.54 49.34 24.75 49.49
  A 0.30 0.30 0.0 0 0 24.56 49.97
  L 25.77 51.57
  A 0.88 0.87 -16.4 0 0 26.42 51.92
  Q 27.02 51.96 27.66 52.01"
/>
<path stroke="#9f95b6" vector-effect="non-scaling-stroke" d="
  M 37.90 51.36
  Q 36.44 48.83 33.17 49.51
  A 0.38 0.38 0.0 0 0 32.90 50.06
  Q 34.32 52.70 37.66 51.91
  A 0.37 0.37 0.0 0 0 37.90 51.36"
/>
<path stroke="#9f95b6" vector-effect="non-scaling-stroke" d="
  M 24.13 31.44
  A 0.40 0.40 0.0 0 0 24.13 31.93
  L 29.32 38.80
  A 0.40 0.40 0.0 0 0 29.95 38.81
  L 35.28 32.10
  A 0.40 0.40 0.0 0 0 35.28 31.61
  L 30.10 24.74
  A 0.40 0.40 0.0 0 0 29.47 24.73
  L 24.13 31.44"
/>
<path stroke="#9f95b6" vector-effect="non-scaling-stroke" d="
  M 27.65 31.74
  Q 27.65 31.78 27.65 31.82
  Q 27.82 33.32 29.42 34.39
  Q 29.54 34.47 29.67 34.47
  Q 29.80 34.47 29.93 34.40
  Q 31.54 33.34 31.73 31.85
  Q 31.74 31.81 31.74 31.77
  Q 31.74 31.73 31.73 31.69
  Q 31.56 30.19 29.96 29.12
  Q 29.84 29.04 29.71 29.04
  Q 29.58 29.03 29.46 29.11
  Q 27.84 30.16 27.65 31.66
  Q 27.65 31.70 27.65 31.74"
/>
</g>
<path fill="#262659" d="
  M 33.82 88.00
  L 33.15 88.00
  Q 15.61 72.48 6.00 52.51
  Q 2.31 44.85 1.62 35.22
  Q 0.94 25.67 5.27 17.99
  C 18.04 -4.66 50.89 -4.32 62.56 19.67
  C 66.92 28.62 65.96 39.75 62.41 48.85
  C 56.57 63.81 45.60 77.23 33.82 88.00
  Z
  M 33.41 86.70
  Q 33.51 86.70 33.61 86.68
  Q 33.63 86.68 33.76 86.55
  Q 47.64 73.49 56.49 58.51
  C 63.93 45.91 68.25 28.93 59.09 15.99
  C 53.12 7.57 44.08 2.55 33.52 2.53
  C 22.96 2.52 13.90 7.52 7.91 15.93
  C -1.28 28.84 2.99 45.83 10.40 58.45
  Q 19.21 73.45 33.06 86.55
  Q 33.19 86.68 33.20 86.68
  Q 33.30 86.70 33.41 86.70
  Z"
/>
<path fill="#4e4aab" d="
  M 33.52 2.53
  C 44.08 2.55 53.12 7.57 59.09 15.99
  C 68.25 28.93 63.93 45.91 56.49 58.51
  Q 47.64 73.49 33.76 86.55
  Q 33.63 86.68 33.61 86.68
  Q 33.51 86.70 33.41 86.70
  Q 33.30 86.70 33.20 86.68
  Q 33.19 86.68 33.06 86.55
  Q 19.21 73.45 10.40 58.45
  C 2.99 45.83 -1.28 28.84 7.91 15.93
  C 13.90 7.52 22.96 2.52 33.52 2.53
  Z
  M 17.86 24.04
  A 0.94 0.94 0.0 0 0 17.47 24.61
  L 14.76 36.57
  A 0.94 0.94 0.0 0 0 14.92 37.35
  L 21.74 46.37
  A 0.94 0.94 0.0 0 0 22.49 46.74
  L 35.88 46.74
  A 0.94 0.94 0.0 0 0 36.61 46.39
  L 45.60 35.09
  A 0.94 0.94 0.0 0 0 45.79 34.31
  L 42.95 21.02
  A 0.94 0.94 0.0 0 0 42.34 20.33
  L 30.15 16.16
  A 0.94 0.94 0.0 0 0 29.32 16.27
  L 17.86 24.04
  Z
  M 51.24 35.17
  L 49.42 26.59
  A 1.99 1.98 -76.9 0 0 48.72 25.46
  L 46.79 23.92
  A 0.23 0.22 13.1 0 0 46.43 24.14
  L 48.56 34.11
  A 1.02 1.02 0.0 0 0 49.21 34.85
  L 50.94 35.44
  A 0.23 0.23 0.0 0 0 51.24 35.17
  Z
  M 47.72 37.25
  A 0.39 0.39 0.0 0 0 47.29 37.37
  L 44.41 40.99
  A 0.39 0.39 0.0 0 0 44.40 41.47
  L 46.01 43.60
  A 0.39 0.39 0.0 0 0 46.62 43.61
  L 50.49 38.74
  A 0.39 0.39 0.0 0 0 50.32 38.13
  L 47.72 37.25
  Z
  M 40.45 45.98
  Q 39.27 47.40 39.24 47.42
  A 0.68 0.68 0.0 0 0 39.08 48.39
  L 40.19 49.85
  A 0.66 0.65 -40.9 0 0 41.17 49.92
  Q 41.53 49.57 42.80 48.04
  Q 43.98 46.62 44.01 46.60
  A 0.68 0.68 0.0 0 0 44.17 45.63
  L 43.06 44.17
  A 0.66 0.65 -40.9 0 0 42.08 44.10
  Q 41.72 44.45 40.45 45.98
  Z
  M 27.66 52.01
  Q 29.62 52.14 30.41 51.98
  A 0.30 0.30 0.0 0 0 30.60 51.50
  L 29.39 49.90
  A 0.88 0.87 -16.4 0 0 28.75 49.55
  Q 28.14 49.51 27.50 49.47
  Q 25.54 49.34 24.75 49.49
  A 0.30 0.30 0.0 0 0 24.56 49.97
  L 25.77 51.57
  A 0.88 0.87 -16.4 0 0 26.42 51.92
  Q 27.02 51.96 27.66 52.01
  Z
  M 37.90 51.36
  Q 36.44 48.83 33.17 49.51
  A 0.38 0.38 0.0 0 0 32.90 50.06
  Q 34.32 52.70 37.66 51.91
  A 0.37 0.37 0.0 0 0 37.90 51.36
  Z"
/>
<path fill="#f0dfc1" d="
  M 17.86 24.04
  L 29.32 16.27
  A 0.94 0.94 0.0 0 1 30.15 16.16
  L 42.34 20.33
  A 0.94 0.94 0.0 0 1 42.95 21.02
  L 45.79 34.31
  A 0.94 0.94 0.0 0 1 45.60 35.09
  L 36.61 46.39
  A 0.94 0.94 0.0 0 1 35.88 46.74
  L 22.49 46.74
  A 0.94 0.94 0.0 0 1 21.74 46.37
  L 14.92 37.35
  A 0.94 0.94 0.0 0 1 14.76 36.57
  L 17.47 24.61
  A 0.94 0.94 0.0 0 1 17.86 24.04
  Z
  M 24.13 31.44
  A 0.40 0.40 0.0 0 0 24.13 31.93
  L 29.32 38.80
  A 0.40 0.40 0.0 0 0 29.95 38.81
  L 35.28 32.10
  A 0.40 0.40 0.0 0 0 35.28 31.61
  L 30.10 24.74
  A 0.40 0.40 0.0 0 0 29.47 24.73
  L 24.13 31.44
  Z"
/>
<path fill="#f0dfc1" d="
  M 51.24 35.17
  A 0.23 0.23 0.0 0 1 50.94 35.44
  L 49.21 34.85
  A 1.02 1.02 0.0 0 1 48.56 34.11
  L 46.43 24.14
  A 0.23 0.22 13.1 0 1 46.79 23.92
  L 48.72 25.46
  A 1.99 1.98 -76.9 0 1 49.42 26.59
  L 51.24 35.17
  Z"
/>
<path fill="#4e4aab" d="
  M 24.13 31.44
  L 29.47 24.73
  A 0.40 0.40 0.0 0 1 30.10 24.74
  L 35.28 31.61
  A 0.40 0.40 0.0 0 1 35.28 32.10
  L 29.95 38.81
  A 0.40 0.40 0.0 0 1 29.32 38.80
  L 24.13 31.93
  A 0.40 0.40 0.0 0 1 24.13 31.44
  Z
  M 27.65 31.74
  Q 27.65 31.78 27.65 31.82
  Q 27.82 33.32 29.42 34.39
  Q 29.54 34.47 29.67 34.47
  Q 29.80 34.47 29.93 34.40
  Q 31.54 33.34 31.73 31.85
  Q 31.74 31.81 31.74 31.77
  Q 31.74 31.73 31.73 31.69
  Q 31.56 30.19 29.96 29.12
  Q 29.84 29.04 29.71 29.04
  Q 29.58 29.03 29.46 29.11
  Q 27.84 30.16 27.65 31.66
  Q 27.65 31.70 27.65 31.74
  Z"
/>
<path fill="#f0dfc1" d="
  M 29.71 29.04
  Q 29.84 29.04 29.96 29.12
  Q 31.56 30.19 31.73 31.69
  Q 31.74 31.73 31.74 31.77
  Q 31.74 31.81 31.73 31.85
  Q 31.54 33.34 29.93 34.40
  Q 29.80 34.47 29.67 34.47
  Q 29.54 34.47 29.42 34.39
  Q 27.82 33.32 27.65 31.82
  Q 27.65 31.78 27.65 31.74
  Q 27.65 31.70 27.65 31.66
  Q 27.84 30.16 29.46 29.11
  Q 29.58 29.03 29.71 29.04
  Z"
/>
<path fill="#f0dfc1" d="
  M 47.72 37.25
  L 50.32 38.13
  A 0.39 0.39 0.0 0 1 50.49 38.74
  L 46.62 43.61
  A 0.39 0.39 0.0 0 1 46.01 43.60
  L 44.40 41.47
  A 0.39 0.39 0.0 0 1 44.41 40.99
  L 47.29 37.37
  A 0.39 0.39 0.0 0 1 47.72 37.25
  Z"
/>
<path fill="#f0dfc1" d="
  M 42.80 48.04
  Q 41.53 49.57 41.17 49.92
  A 0.66 0.65 -40.9 0 1 40.19 49.85
  L 39.08 48.39
  A 0.68 0.68 0.0 0 1 39.24 47.42
  Q 39.27 47.40 40.45 45.98
  Q 41.72 44.45 42.08 44.10
  A 0.66 0.65 -40.9 0 1 43.06 44.17
  L 44.17 45.63
  A 0.68 0.68 0.0 0 1 44.01 46.60
  Q 43.98 46.62 42.80 48.04
  Z"
/>
<path fill="#f0dfc1" d="
  M 27.50 49.47
  Q 28.14 49.51 28.75 49.55
  A 0.88 0.87 -16.4 0 1 29.39 49.90
  L 30.60 51.50
  A 0.30 0.30 0.0 0 1 30.41 51.98
  Q 29.62 52.14 27.66 52.01
  Q 27.02 51.96 26.42 51.92
  A 0.88 0.87 -16.4 0 1 25.77 51.57
  L 24.56 49.97
  A 0.30 0.30 0.0 0 1 24.75 49.49
  Q 25.54 49.34 27.50 49.47
  Z"
/>
<path fill="#f0dfc1" d="
  M 37.66 51.91
  Q 34.32 52.70 32.90 50.06
  A 0.38 0.38 0.0 0 1 33.17 49.51
  Q 36.44 48.83 37.90 51.36
  A 0.37 0.37 0.0 0 1 37.66 51.91
  Z"
/>
</svg>
