<?xml version="1.0" encoding="UTF-8" standalone="no"?>
<!DOCTYPE svg PUBLIC "-//W3C//DTD SVG 1.1//EN" "http://www.w3.org/Graphics/SVG/1.1/DTD/svg11.dtd">
<svg xmlns="http://www.w3.org/2000/svg" version="1.1" viewBox="0.00 0.00 66.00 88.00">
<g stroke-width="2.00" fill="none" stroke-linecap="butt">
<path stroke="#3a3882" vector-effect="non-scaling-stroke" d="
  M 33.41 86.70
  Q 33.57 86.70 33.61 86.68
  Q 33.63 86.67 33.75 86.56
  C 50.51 70.91 75.91 38.85 58.52 15.26
  C 52.64 7.29 43.73 2.52 33.52 2.51
  C 23.31 2.49 14.39 7.24 8.49 15.20
  C -8.97 38.74 16.35 70.86 33.07 86.56
  Q 33.19 86.67 33.20 86.68
  Q 33.25 86.70 33.41 86.70"
/>
<path stroke="#9f95b6" vector-effect="non-scaling-stroke" d="
  M 17.69 18.65
  Q 16.32 19.83 16.90 21.96
  A 2.43 2.43 0.0 0 1 16.94 23.11
  C 16.22 26.62 16.30 30.34 20.58 30.94
  C 24.56 31.49 26.52 28.10 28.56 24.64
  Q 29.56 22.92 28.99 20.26
  C 28.30 17.08 25.33 16.20 22.42 17.28
  Q 21.38 17.66 18.90 18.08
  A 2.41 2.38 19.4 0 0 17.69 18.65"
/>
<path stroke="#9f95b6" vector-effect="non-scaling-stroke" d="
  M 32.2134 25.9483
  A 0.91 0.91 0.0 0 0 31.9855 24.6817
  L 31.5913 24.4078
  A 0.91 0.91 0.0 0 0 30.3247 24.6357
  L 26.5466 30.0717
  A 0.91 0.91 0.0 0 0 26.7745 31.3383
  L 27.1687 31.6122
  A 0.91 0.91 0.0 0 0 28.4353 31.3843
  L 32.2134 25.9483"
/>
<path stroke="#9f95b6" vector-effect="non-scaling-stroke" d="
  M 50.1890 41.4443
  A 0.43 0.43 0.0 0 0 50.0803 40.8460
  L 32.5193 28.6862
  A 0.43 0.43 0.0 0 0 31.9210 28.7949
  L 30.7710 30.4557
  A 0.43 0.43 0.0 0 0 30.8797 31.0540
  L 48.4407 43.2138
  A 0.43 0.43 0.0 0 0 49.0390 43.1051
  L 50.1890 41.4443"
/>
<path stroke="#9f95b6" vector-effect="non-scaling-stroke" d="
  M 42.29 45.58
  Q 41.90 46.51 42.47 46.88
  A 1.01 1.01 0.0 0 1 42.79 48.23
  L 42.51 48.69
  A 1.04 1.04 0.0 0 0 44.12 49.97
  Q 44.58 49.55 45.70 47.94
  A 0.62 0.60 39.4 0 0 45.61 47.14
  Q 43.72 45.39 45.12 42.94
  A 0.70 0.70 0.0 0 0 44.86 41.98
  L 40.41 39.41
  A 0.59 0.58 -53.9 0 0 39.68 39.53
  Q 37.99 41.44 36.03 40.77
  A 0.74 0.73 24.4 0 0 35.15 41.09
  L 33.91 43.25
  A 0.48 0.48 0.0 0 0 34.08 43.91
  L 36.32 45.20
  A 0.52 0.52 0.0 0 0 37.09 44.83
  Q 37.13 44.56 37.12 43.97
  C 37.10 42.83 37.90 42.07 39.02 42.33
  A 1.43 1.41 35.2 0 1 39.49 44.92
  Q 38.71 45.40 38.40 45.63
  A 0.76 0.75 -31.7 0 0 38.17 46.57
  Q 38.38 46.98 39.25 47.47
  A 0.54 0.54 0.0 0 0 39.99 47.26
  Q 40.75 45.81 41.69 45.11
  A 0.40 0.39 -6.8 0 1 42.29 45.58"
/>
<path stroke="#9f95b6" vector-effect="non-scaling-stroke" d="
  M 21.35 20.96
  A 1.65 1.65 0.0 0 0 19.70 19.31
  A 1.65 1.65 0.0 0 0 18.05 20.96
  A 1.65 1.65 0.0 0 0 19.70 22.61
  A 1.65 1.65 0.0 0 0 21.35 20.96"
/>
</g>
<path fill="#262659" d="
  M 33.82 88.00
  L 33.04 88.00
  C 21.77 77.75 12.09 65.65 5.65 51.57
  Q 2.21 44.05 1.60 34.90
  C 0.54 18.89 11.35 5.47 26.73 2.07
  C 41.27 -1.16 55.91 6.03 62.57 19.68
  C 66.92 28.60 65.95 39.77 62.41 48.85
  C 56.57 63.81 45.60 77.23 33.82 88.00
  Z
  M 33.41 86.70
  Q 33.57 86.70 33.61 86.68
  Q 33.63 86.67 33.75 86.56
  C 50.51 70.91 75.91 38.85 58.52 15.26
  C 52.64 7.29 43.73 2.52 33.52 2.51
  C 23.31 2.49 14.39 7.24 8.49 15.20
  C -8.97 38.74 16.35 70.86 33.07 86.56
  Q 33.19 86.67 33.20 86.68
  Q 33.25 86.70 33.41 86.70
  Z"
/>
<path fill="#4e4aab" d="
  M 33.52 2.51
  C 43.73 2.52 52.64 7.29 58.52 15.26
  C 75.91 38.85 50.51 70.91 33.75 86.56
  Q 33.63 86.67 33.61 86.68
  Q 33.57 86.70 33.41 86.70
  Q 33.25 86.70 33.20 86.68
  Q 33.19 86.67 33.07 86.56
  C 16.35 70.86 -8.97 38.74 8.49 15.20
  C 14.39 7.24 23.31 2.49 33.52 2.51
  Z
  M 17.69 18.65
  Q 16.32 19.83 16.90 21.96
  A 2.43 2.43 0.0 0 1 16.94 23.11
  C 16.22 26.62 16.30 30.34 20.58 30.94
  C 24.56 31.49 26.52 28.10 28.56 24.64
  Q 29.56 22.92 28.99 20.26
  C 28.30 17.08 25.33 16.20 22.42 17.28
  Q 21.38 17.66 18.90 18.08
  A 2.41 2.38 19.4 0 0 17.69 18.65
  Z
  M 32.2134 25.9483
  A 0.91 0.91 0.0 0 0 31.9855 24.6817
  L 31.5913 24.4078
  A 0.91 0.91 0.0 0 0 30.3247 24.6357
  L 26.5466 30.0717
  A 0.91 0.91 0.0 0 0 26.7745 31.3383
  L 27.1687 31.6122
  A 0.91 0.91 0.0 0 0 28.4353 31.3843
  L 32.2134 25.9483
  Z
  M 50.1890 41.4443
  A 0.43 0.43 0.0 0 0 50.0803 40.8460
  L 32.5193 28.6862
  A 0.43 0.43 0.0 0 0 31.9210 28.7949
  L 30.7710 30.4557
  A 0.43 0.43 0.0 0 0 30.8797 31.0540
  L 48.4407 43.2138
  A 0.43 0.43 0.0 0 0 49.0390 43.1051
  L 50.1890 41.4443
  Z
  M 42.29 45.58
  Q 41.90 46.51 42.47 46.88
  A 1.01 1.01 0.0 0 1 42.79 48.23
  L 42.51 48.69
  A 1.04 1.04 0.0 0 0 44.12 49.97
  Q 44.58 49.55 45.70 47.94
  A 0.62 0.60 39.4 0 0 45.61 47.14
  Q 43.72 45.39 45.12 42.94
  A 0.70 0.70 0.0 0 0 44.86 41.98
  L 40.41 39.41
  A 0.59 0.58 -53.9 0 0 39.68 39.53
  Q 37.99 41.44 36.03 40.77
  A 0.74 0.73 24.4 0 0 35.15 41.09
  L 33.91 43.25
  A 0.48 0.48 0.0 0 0 34.08 43.91
  L 36.32 45.20
  A 0.52 0.52 0.0 0 0 37.09 44.83
  Q 37.13 44.56 37.12 43.97
  C 37.10 42.83 37.90 42.07 39.02 42.33
  A 1.43 1.41 35.2 0 1 39.49 44.92
  Q 38.71 45.40 38.40 45.63
  A 0.76 0.75 -31.7 0 0 38.17 46.57
  Q 38.38 46.98 39.25 47.47
  A 0.54 0.54 0.0 0 0 39.99 47.26
  Q 40.75 45.81 41.69 45.11
  A 0.40 0.39 -6.8 0 1 42.29 45.58
  Z"
/>
<path fill="#f0dfc1" d="
  M 18.90 18.08
  Q 21.38 17.66 22.42 17.28
  C 25.33 16.20 28.30 17.08 28.99 20.26
  Q 29.56 22.92 28.56 24.64
  C 26.52 28.10 24.56 31.49 20.58 30.94
  C 16.30 30.34 16.22 26.62 16.94 23.11
  A 2.43 2.43 0.0 0 0 16.90 21.96
  Q 16.32 19.83 17.69 18.65
  A 2.41 2.38 19.4 0 1 18.90 18.08
  Z
  M 21.35 20.96
  A 1.65 1.65 0.0 0 0 19.70 19.31
  A 1.65 1.65 0.0 0 0 18.05 20.96
  A 1.65 1.65 0.0 0 0 19.70 22.61
  A 1.65 1.65 0.0 0 0 21.35 20.96
  Z"
/>
<circle fill="#4e4aab" cx="19.70" cy="20.96" r="1.65"/>
<rect fill="#f0dfc1" x="-1.15" y="-4.22" transform="translate(29.38,28.01) rotate(34.8)" width="2.30" height="8.44" rx="0.91"/>
<rect fill="#f0dfc1" x="-11.11" y="-1.44" transform="translate(40.48,35.95) rotate(34.7)" width="22.22" height="2.88" rx="0.43"/>
<path fill="#f0dfc1" d="
  M 42.29 45.58
  A 0.40 0.39 -6.8 0 0 41.69 45.11
  Q 40.75 45.81 39.99 47.26
  A 0.54 0.54 0.0 0 1 39.25 47.47
  Q 38.38 46.98 38.17 46.57
  A 0.76 0.75 -31.7 0 1 38.40 45.63
  Q 38.71 45.40 39.49 44.92
  A 1.43 1.41 35.2 0 0 39.02 42.33
  C 37.90 42.07 37.10 42.83 37.12 43.97
  Q 37.13 44.56 37.09 44.83
  A 0.52 0.52 0.0 0 1 36.32 45.20
  L 34.08 43.91
  A 0.48 0.48 0.0 0 1 33.91 43.25
  L 35.15 41.09
  A 0.74 0.73 24.4 0 1 36.03 40.77
  Q 37.99 41.44 39.68 39.53
  A 0.59 0.58 -53.9 0 1 40.41 39.41
  L 44.86 41.98
  A 0.70 0.70 0.0 0 1 45.12 42.94
  Q 43.72 45.39 45.61 47.14
  A 0.62 0.60 39.4 0 1 45.70 47.94
  Q 44.58 49.55 44.12 49.97
  A 1.04 1.04 0.0 0 1 42.51 48.69
  L 42.79 48.23
  A 1.01 1.01 0.0 0 0 42.47 46.88
  Q 41.90 46.51 42.29 45.58
  Z"
/>
</svg>
