<?xml version="1.0" encoding="UTF-8" standalone="no"?>
<!DOCTYPE svg PUBLIC "-//W3C//DTD SVG 1.1//EN" "http://www.w3.org/Graphics/SVG/1.1/DTD/svg11.dtd">
<svg xmlns="http://www.w3.org/2000/svg" version="1.1" viewBox="0.00 0.00 66.00 88.00">
<g stroke-width="2.00" fill="none" stroke-linecap="butt">
<path stroke="#3a3882" vector-effect="non-scaling-stroke" d="
  M 33.41 86.70
  Q 33.51 86.70 33.61 86.68
  Q 33.63 86.67 33.75 86.56
  C 50.31 71.06 75.37 39.59 59.06 16.04
  C 53.21 7.60 44.11 2.54 33.52 2.53
  C 22.93 2.51 13.82 7.54 7.94 15.97
  C -8.43 39.48 16.54 71.01 33.06 86.56
  Q 33.18 86.67 33.20 86.68
  Q 33.30 86.70 33.41 86.70"
/>
<path stroke="#9f95b6" vector-effect="non-scaling-stroke" d="
  M 42.06 45.33
  Q 42.33 45.14 42.57 45.27
  A 0.33 0.33 0.0 0 1 42.59 45.84
  Q 42.48 45.91 42.40 45.93
  A 0.45 0.45 0.0 0 0 42.13 46.54
  Q 42.31 46.93 42.74 46.98
  Q 43.02 47.01 43.24 46.76
  Q 43.75 46.20 44.04 46.03
  A 0.74 0.74 0.0 0 1 44.98 46.20
  L 45.44 46.76
  A 0.63 0.63 0.0 0 0 46.24 46.90
  L 47.56 46.14
  A 0.56 0.56 0.0 0 0 47.76 45.37
  L 37.60 27.77
  A 0.87 0.86 -36.6 0 1 37.76 26.71
  C 45.67 19.31 35.09 11.69 28.09 18.37
  A 1.35 1.34 -66.2 0 1 27.14 18.74
  C 22.68 18.64 16.77 22.06 18.27 27.46
  Q 19.41 31.57 24.92 31.60
  A 1.68 1.67 81.9 0 1 26.53 32.82
  L 30.14 45.33
  A 0.67 0.66 74.2 0 1 29.69 46.15
  L 28.28 46.55
  A 0.65 0.64 -22.9 0 0 27.90 47.48
  Q 28.87 49.26 29.02 50.97
  A 0.36 0.36 0.0 0 0 29.48 51.29
  L 31.02 50.85
  A 0.68 0.68 0.0 0 1 31.85 51.27
  Q 31.92 51.45 31.98 51.73
  A 0.57 0.57 0.0 0 0 32.70 52.17
  L 34.18 51.75
  A 0.65 0.65 0.0 0 0 34.62 50.95
  L 29.01 31.47
  A 1.00 0.99 -25.4 0 1 29.41 30.37
  Q 31.31 29.07 34.39 28.67
  A 0.89 0.89 0.0 0 1 35.28 29.11
  L 42.17 41.06
  A 0.61 0.60 59.8 0 1 41.96 41.88
  L 40.41 42.77
  A 0.48 0.48 0.0 0 0 40.34 43.55
  Q 40.87 44.00 41.33 45.11
  A 0.50 0.49 -28.1 0 0 42.06 45.33"
/>
<path stroke="#9f95b6" vector-effect="non-scaling-stroke" d="
  M 30.37 19.78
  Q 34.63 21.67 32.99 26.98
  A 0.34 0.34 0.0 0 0 33.41 27.40
  C 37.84 26.04 41.80 20.70 36.23 17.38
  A 3.49 3.48 -37.6 0 0 33.45 17.02
  L 30.50 17.87
  A 1.02 1.02 0.0 0 0 30.37 19.78"
/>
<path stroke="#9f95b6" vector-effect="non-scaling-stroke" d="
  M 19.73 26.97
  C 20.81 30.48 25.79 31.10 28.66 29.28
  A 0.39 0.39 0.0 0 0 28.64 28.60
  Q 26.37 27.36 25.69 25.13
  Q 25.01 22.91 26.18 20.61
  A 0.39 0.39 0.0 0 0 25.82 20.04
  C 22.43 20.15 18.65 23.45 19.73 26.97"
/>
<path stroke="#9f95b6" vector-effect="non-scaling-stroke" d="
  M 28.2476 20.5172
  A 3.65 2.30 -109.4 0 0 27.2906 24.7240
  A 3.65 2.30 -109.4 0 0 30.6724 27.4028
  A 3.65 2.30 -109.4 0 0 31.6294 23.1960
  A 3.65 2.30 -109.4 0 0 28.2476 20.5172"
/>
<path stroke="#9f95b6" vector-effect="non-scaling-stroke" d="
  M 28.96 49.88
  A 0.23 0.23 0.0 0 0 29.38 49.84
  Q 29.46 49.59 29.46 49.56
  A 0.30 0.29 -31.1 0 0 28.92 49.43
  Q 28.81 49.59 28.96 49.88"
/>
</g>
<path fill="#262659" d="
  M 33.79 88.00
  L 33.04 88.00
  C 16.75 73.19 -6.53 43.99 4.14 20.24
  C 15.32 -4.64 50.97 -5.09 62.68 19.91
  C 66.91 28.94 65.92 39.91 62.33 49.05
  C 56.52 63.86 45.52 77.37 33.79 88.00
  Z
  M 33.41 86.70
  Q 33.51 86.70 33.61 86.68
  Q 33.63 86.67 33.75 86.56
  C 50.31 71.06 75.37 39.59 59.06 16.04
  C 53.21 7.60 44.11 2.54 33.52 2.53
  C 22.93 2.51 13.82 7.54 7.94 15.97
  C -8.43 39.48 16.54 71.01 33.06 86.56
  Q 33.18 86.67 33.20 86.68
  Q 33.30 86.70 33.41 86.70
  Z"
/>
<path fill="#4e4aab" d="
  M 33.52 2.53
  C 44.11 2.54 53.21 7.60 59.06 16.04
  C 75.37 39.59 50.31 71.06 33.75 86.56
  Q 33.63 86.67 33.61 86.68
  Q 33.51 86.70 33.41 86.70
  Q 33.30 86.70 33.20 86.68
  Q 33.18 86.67 33.06 86.56
  C 16.54 71.01 -8.43 39.48 7.94 15.97
  C 13.82 7.54 22.93 2.51 33.52 2.53
  Z
  M 42.06 45.33
  Q 42.33 45.14 42.57 45.27
  A 0.33 0.33 0.0 0 1 42.59 45.84
  Q 42.48 45.91 42.40 45.93
  A 0.45 0.45 0.0 0 0 42.13 46.54
  Q 42.31 46.93 42.74 46.98
  Q 43.02 47.01 43.24 46.76
  Q 43.75 46.20 44.04 46.03
  A 0.74 0.74 0.0 0 1 44.98 46.20
  L 45.44 46.76
  A 0.63 0.63 0.0 0 0 46.24 46.90
  L 47.56 46.14
  A 0.56 0.56 0.0 0 0 47.76 45.37
  L 37.60 27.77
  A 0.87 0.86 -36.6 0 1 37.76 26.71
  C 45.67 19.31 35.09 11.69 28.09 18.37
  A 1.35 1.34 -66.2 0 1 27.14 18.74
  C 22.68 18.64 16.77 22.06 18.27 27.46
  Q 19.41 31.57 24.92 31.60
  A 1.68 1.67 81.9 0 1 26.53 32.82
  L 30.14 45.33
  A 0.67 0.66 74.2 0 1 29.69 46.15
  L 28.28 46.55
  A 0.65 0.64 -22.9 0 0 27.90 47.48
  Q 28.87 49.26 29.02 50.97
  A 0.36 0.36 0.0 0 0 29.48 51.29
  L 31.02 50.85
  A 0.68 0.68 0.0 0 1 31.85 51.27
  Q 31.92 51.45 31.98 51.73
  A 0.57 0.57 0.0 0 0 32.70 52.17
  L 34.18 51.75
  A 0.65 0.65 0.0 0 0 34.62 50.95
  L 29.01 31.47
  A 1.00 0.99 -25.4 0 1 29.41 30.37
  Q 31.31 29.07 34.39 28.67
  A 0.89 0.89 0.0 0 1 35.28 29.11
  L 42.17 41.06
  A 0.61 0.60 59.8 0 1 41.96 41.88
  L 40.41 42.77
  A 0.48 0.48 0.0 0 0 40.34 43.55
  Q 40.87 44.00 41.33 45.11
  A 0.50 0.49 -28.1 0 0 42.06 45.33
  Z"
/>
<path fill="#f0dfc1" d="
  M 41.33 45.11
  Q 40.87 44.00 40.34 43.55
  A 0.48 0.48 0.0 0 1 40.41 42.77
  L 41.96 41.88
  A 0.61 0.60 59.8 0 0 42.17 41.06
  L 35.28 29.11
  A 0.89 0.89 0.0 0 0 34.39 28.67
  Q 31.31 29.07 29.41 30.37
  A 1.00 0.99 -25.4 0 0 29.01 31.47
  L 34.62 50.95
  A 0.65 0.65 0.0 0 1 34.18 51.75
  L 32.70 52.17
  A 0.57 0.57 0.0 0 1 31.98 51.73
  Q 31.92 51.45 31.85 51.27
  A 0.68 0.68 0.0 0 0 31.02 50.85
  L 29.48 51.29
  A 0.36 0.36 0.0 0 1 29.02 50.97
  Q 28.87 49.26 27.90 47.48
  A 0.65 0.64 -22.9 0 1 28.28 46.55
  L 29.69 46.15
  A 0.67 0.66 74.2 0 0 30.14 45.33
  L 26.53 32.82
  A 1.68 1.67 81.9 0 0 24.92 31.60
  Q 19.41 31.57 18.27 27.46
  C 16.77 22.06 22.68 18.64 27.14 18.74
  A 1.35 1.34 -66.2 0 0 28.09 18.37
  C 35.09 11.69 45.67 19.31 37.76 26.71
  A 0.87 0.86 -36.6 0 0 37.60 27.77
  L 47.76 45.37
  A 0.56 0.56 0.0 0 1 47.56 46.14
  L 46.24 46.90
  A 0.63 0.63 0.0 0 1 45.44 46.76
  L 44.98 46.20
  A 0.74 0.74 0.0 0 0 44.04 46.03
  Q 43.75 46.20 43.24 46.76
  Q 43.02 47.01 42.74 46.98
  Q 42.31 46.93 42.13 46.54
  A 0.45 0.45 0.0 0 1 42.40 45.93
  Q 42.48 45.91 42.59 45.84
  A 0.33 0.33 0.0 0 0 42.57 45.27
  Q 42.33 45.14 42.06 45.33
  A 0.50 0.49 -28.1 0 1 41.33 45.11
  Z
  M 30.37 19.78
  Q 34.63 21.67 32.99 26.98
  A 0.34 0.34 0.0 0 0 33.41 27.40
  C 37.84 26.04 41.80 20.70 36.23 17.38
  A 3.49 3.48 -37.6 0 0 33.45 17.02
  L 30.50 17.87
  A 1.02 1.02 0.0 0 0 30.37 19.78
  Z
  M 19.73 26.97
  C 20.81 30.48 25.79 31.10 28.66 29.28
  A 0.39 0.39 0.0 0 0 28.64 28.60
  Q 26.37 27.36 25.69 25.13
  Q 25.01 22.91 26.18 20.61
  A 0.39 0.39 0.0 0 0 25.82 20.04
  C 22.43 20.15 18.65 23.45 19.73 26.97
  Z
  M 28.2476 20.5172
  A 3.65 2.30 -109.4 0 0 27.2906 24.7240
  A 3.65 2.30 -109.4 0 0 30.6724 27.4028
  A 3.65 2.30 -109.4 0 0 31.6294 23.1960
  A 3.65 2.30 -109.4 0 0 28.2476 20.5172
  Z
  M 28.96 49.88
  A 0.23 0.23 0.0 0 0 29.38 49.84
  Q 29.46 49.59 29.46 49.56
  A 0.30 0.29 -31.1 0 0 28.92 49.43
  Q 28.81 49.59 28.96 49.88
  Z"
/>
<path fill="#4e4aab" d="
  M 30.37 19.78
  A 1.02 1.02 0.0 0 1 30.50 17.87
  L 33.45 17.02
  A 3.49 3.48 -37.6 0 1 36.23 17.38
  C 41.80 20.70 37.84 26.04 33.41 27.40
  A 0.34 0.34 0.0 0 1 32.99 26.98
  Q 34.63 21.67 30.37 19.78
  Z"
/>
<path fill="#4e4aab" d="
  M 25.69 25.13
  Q 26.37 27.36 28.64 28.60
  A 0.39 0.39 0.0 0 1 28.66 29.28
  C 25.79 31.10 20.81 30.48 19.73 26.97
  C 18.65 23.45 22.43 20.15 25.82 20.04
  A 0.39 0.39 0.0 0 1 26.18 20.61
  Q 25.01 22.91 25.69 25.13
  Z"
/>
<ellipse fill="#4e4aab" cx="0.00" cy="0.00" transform="translate(29.46,23.96) rotate(-109.4)" rx="3.65" ry="2.30"/>
<path fill="#4e4aab" d="
  M 28.96 49.88
  Q 28.81 49.59 28.92 49.43
  A 0.30 0.29 -31.1 0 1 29.46 49.56
  Q 29.46 49.59 29.38 49.84
  A 0.23 0.23 0.0 0 1 28.96 49.88
  Z"
/>
</svg>
