<?xml version="1.0" encoding="UTF-8" standalone="no"?>
<!DOCTYPE svg PUBLIC "-//W3C//DTD SVG 1.1//EN" "http://www.w3.org/Graphics/SVG/1.1/DTD/svg11.dtd">
<svg xmlns="http://www.w3.org/2000/svg" version="1.1" viewBox="0.00 0.00 66.00 88.00">
<g stroke-width="2.00" fill="none" stroke-linecap="butt">
<path stroke="#476099" vector-effect="non-scaling-stroke" d="
  M 33.40 86.72
  Q 33.50 86.72 33.61 86.69
  Q 33.63 86.69 33.75 86.57
  Q 48.91 72.22 57.66 56.41
  C 64.45 44.14 67.82 27.81 58.76 15.50
  C 52.79 7.39 43.82 2.51 33.54 2.49
  C 23.26 2.47 14.27 7.33 8.27 15.41
  C -0.83 27.69 2.49 44.03 9.24 56.33
  Q 17.93 72.17 33.04 86.57
  Q 33.16 86.69 33.18 86.69
  Q 33.29 86.72 33.40 86.72"
/>
<path stroke="#a8afc5" vector-effect="non-scaling-stroke" d="
  M 45.70 30.80
  L 48.92 27.58
  A 1.70 1.70 0.0 0 0 49.19 25.53
  L 45.82 19.69
  A 1.14 1.12 -0.7 0 0 45.38 19.27
  C 40.45 16.78 34.96 15.05 29.29 16.24
  Q 21.75 17.84 21.41 17.92
  A 1.21 1.18 -82.1 0 0 20.61 18.54
  L 16.57 26.28
  A 0.87 0.86 36.3 0 0 16.73 27.29
  L 21.03 31.59
  A 0.40 0.40 0.0 0 0 21.71 31.38
  L 22.14 28.83
  A 0.39 0.39 0.0 0 1 22.91 28.83
  L 23.82 33.63
  A 0.88 0.87 -1.8 0 0 24.57 34.33
  L 28.12 34.73
  A 0.70 0.66 -54.5 0 0 28.54 34.65
  L 32.69 32.25
  A 1.05 1.05 0.0 0 1 33.75 32.25
  L 37.85 34.62
  A 0.85 0.81 -32.3 0 0 38.35 34.72
  L 41.45 34.32
  A 0.83 0.82 -88.6 0 0 42.17 33.63
  L 42.95 29.11
  A 0.71 0.71 0.0 0 1 44.26 28.87
  L 45.34 30.75
  A 0.23 0.23 0.0 0 0 45.70 30.80"
/>
<path stroke="#a8afc5" vector-effect="non-scaling-stroke" d="
  M 41.10 35.59
  Q 38.40 37.46 34.56 34.45
  A 2.04 2.03 49.2 0 0 32.29 34.28
  L 28.93 36.23
  A 1.01 0.97 -53.5 0 1 28.28 36.34
  L 24.72 35.73
  A 0.39 0.39 0.0 0 0 24.28 36.21
  L 25.24 40.32
  A 1.35 1.27 43.2 0 1 25.27 40.80
  L 24.83 45.04
  A 0.57 0.57 0.0 0 0 25.54 45.65
  C 27.49 45.14 27.94 46.95 29.29 47.70
  Q 34.52 50.57 38.35 46.24
  A 0.99 0.99 0.0 0 1 39.27 45.92
  L 40.61 46.15
  A 0.59 0.58 89.3 0 0 41.28 45.46
  Q 40.41 40.93 41.77 36.08
  A 0.44 0.44 0.0 0 0 41.10 35.59"
/>
<path stroke="#a8afc5" vector-effect="non-scaling-stroke" d="
  M 25.28 49.59
  L 25.50 49.46
  A 0.97 0.95 -41.4 0 1 26.57 49.52
  Q 29.71 51.90 33.20 51.96
  Q 36.46 52.02 38.91 49.45
  Q 39.34 49.00 39.91 49.06
  Q 40.32 49.10 40.93 49.42
  A 0.47 0.47 0.0 0 0 41.61 48.94
  L 41.58 48.66
  A 1.16 1.14 -82.9 0 0 40.88 47.75
  Q 38.94 46.96 37.87 48.63
  A 2.20 2.18 -84.9 0 1 36.91 49.44
  Q 30.90 52.00 26.62 47.48
  A 1.26 1.26 0.0 0 0 24.46 48.13
  L 24.32 48.92
  A 0.65 0.65 0.0 0 0 25.28 49.59"
/>
<path stroke="#a8afc5" vector-effect="non-scaling-stroke" d="
  M 32.97 23.64
  Q 33.36 23.65 33.76 23.56
  Q 37.68 22.69 39.72 19.18
  A 0.73 0.73 0.0 0 0 39.26 18.10
  Q 35.97 17.28 33.06 17.24
  Q 30.15 17.20 26.84 17.92
  A 0.73 0.73 0.0 0 0 26.35 18.99
  Q 28.29 22.55 32.18 23.54
  Q 32.58 23.64 32.97 23.64"
/>
</g>
<path fill="#2d4169" d="
  M 33.80 88.00
  L 33.04 88.00
  C 16.70 73.14 -6.47 44.09 4.16 20.23
  C 9.50 8.24 21.90 0.70 34.78 1.35
  C 47.23 1.98 57.78 9.03 62.91 20.37
  C 66.90 29.19 65.83 40.15 62.33 49.05
  C 56.47 63.92 45.54 77.30 33.80 88.00
  Z
  M 33.40 86.72
  Q 33.50 86.72 33.61 86.69
  Q 33.63 86.69 33.75 86.57
  Q 48.91 72.22 57.66 56.41
  C 64.45 44.14 67.82 27.81 58.76 15.50
  C 52.79 7.39 43.82 2.51 33.54 2.49
  C 23.26 2.47 14.27 7.33 8.27 15.41
  C -0.83 27.69 2.49 44.03 9.24 56.33
  Q 17.93 72.17 33.04 86.57
  Q 33.16 86.69 33.18 86.69
  Q 33.29 86.72 33.40 86.72
  Z"
/>
<path fill="#607fc8" d="
  M 33.54 2.49
  C 43.82 2.51 52.79 7.39 58.76 15.50
  C 67.82 27.81 64.45 44.14 57.66 56.41
  Q 48.91 72.22 33.75 86.57
  Q 33.63 86.69 33.61 86.69
  Q 33.50 86.72 33.40 86.72
  Q 33.29 86.72 33.18 86.69
  Q 33.16 86.69 33.04 86.57
  Q 17.93 72.17 9.24 56.33
  C 2.49 44.03 -0.83 27.69 8.27 15.41
  C 14.27 7.33 23.26 2.47 33.54 2.49
  Z
  M 45.70 30.80
  L 48.92 27.58
  A 1.70 1.70 0.0 0 0 49.19 25.53
  L 45.82 19.69
  A 1.14 1.12 -0.7 0 0 45.38 19.27
  C 40.45 16.78 34.96 15.05 29.29 16.24
  Q 21.75 17.84 21.41 17.92
  A 1.21 1.18 -82.1 0 0 20.61 18.54
  L 16.57 26.28
  A 0.87 0.86 36.3 0 0 16.73 27.29
  L 21.03 31.59
  A 0.40 0.40 0.0 0 0 21.71 31.38
  L 22.14 28.83
  A 0.39 0.39 0.0 0 1 22.91 28.83
  L 23.82 33.63
  A 0.88 0.87 -1.8 0 0 24.57 34.33
  L 28.12 34.73
  A 0.70 0.66 -54.5 0 0 28.54 34.65
  L 32.69 32.25
  A 1.05 1.05 0.0 0 1 33.75 32.25
  L 37.85 34.62
  A 0.85 0.81 -32.3 0 0 38.35 34.72
  L 41.45 34.32
  A 0.83 0.82 -88.6 0 0 42.17 33.63
  L 42.95 29.11
  A 0.71 0.71 0.0 0 1 44.26 28.87
  L 45.34 30.75
  A 0.23 0.23 0.0 0 0 45.70 30.80
  Z
  M 41.10 35.59
  Q 38.40 37.46 34.56 34.45
  A 2.04 2.03 49.2 0 0 32.29 34.28
  L 28.93 36.23
  A 1.01 0.97 -53.5 0 1 28.28 36.34
  L 24.72 35.73
  A 0.39 0.39 0.0 0 0 24.28 36.21
  L 25.24 40.32
  A 1.35 1.27 43.2 0 1 25.27 40.80
  L 24.83 45.04
  A 0.57 0.57 0.0 0 0 25.54 45.65
  C 27.49 45.14 27.94 46.95 29.29 47.70
  Q 34.52 50.57 38.35 46.24
  A 0.99 0.99 0.0 0 1 39.27 45.92
  L 40.61 46.15
  A 0.59 0.58 89.3 0 0 41.28 45.46
  Q 40.41 40.93 41.77 36.08
  A 0.44 0.44 0.0 0 0 41.10 35.59
  Z
  M 25.28 49.59
  L 25.50 49.46
  A 0.97 0.95 -41.4 0 1 26.57 49.52
  Q 29.71 51.90 33.20 51.96
  Q 36.46 52.02 38.91 49.45
  Q 39.34 49.00 39.91 49.06
  Q 40.32 49.10 40.93 49.42
  A 0.47 0.47 0.0 0 0 41.61 48.94
  L 41.58 48.66
  A 1.16 1.14 -82.9 0 0 40.88 47.75
  Q 38.94 46.96 37.87 48.63
  A 2.20 2.18 -84.9 0 1 36.91 49.44
  Q 30.90 52.00 26.62 47.48
  A 1.26 1.26 0.0 0 0 24.46 48.13
  L 24.32 48.92
  A 0.65 0.65 0.0 0 0 25.28 49.59
  Z"
/>
<path fill="#f0dfc1" d="
  M 45.34 30.75
  L 44.26 28.87
  A 0.71 0.71 0.0 0 0 42.95 29.11
  L 42.17 33.63
  A 0.83 0.82 -88.6 0 1 41.45 34.32
  L 38.35 34.72
  A 0.85 0.81 -32.3 0 1 37.85 34.62
  L 33.75 32.25
  A 1.05 1.05 0.0 0 0 32.69 32.25
  L 28.54 34.65
  A 0.70 0.66 -54.5 0 1 28.12 34.73
  L 24.57 34.33
  A 0.88 0.87 -1.8 0 1 23.82 33.63
  L 22.91 28.83
  A 0.39 0.39 0.0 0 0 22.14 28.83
  L 21.71 31.38
  A 0.40 0.40 0.0 0 1 21.03 31.59
  L 16.73 27.29
  A 0.87 0.86 36.3 0 1 16.57 26.28
  L 20.61 18.54
  A 1.21 1.18 -82.1 0 1 21.41 17.92
  Q 21.75 17.84 29.29 16.24
  C 34.96 15.05 40.45 16.78 45.38 19.27
  A 1.14 1.12 -0.7 0 1 45.82 19.69
  L 49.19 25.53
  A 1.70 1.70 0.0 0 1 48.92 27.58
  L 45.70 30.80
  A 0.23 0.23 0.0 0 1 45.34 30.75
  Z
  M 32.97 23.64
  Q 33.36 23.65 33.76 23.56
  Q 37.68 22.69 39.72 19.18
  A 0.73 0.73 0.0 0 0 39.26 18.10
  Q 35.97 17.28 33.06 17.24
  Q 30.15 17.20 26.84 17.92
  A 0.73 0.73 0.0 0 0 26.35 18.99
  Q 28.29 22.55 32.18 23.54
  Q 32.58 23.64 32.97 23.64
  Z"
/>
<path fill="#607fc8" d="
  M 33.06 17.24
  Q 35.97 17.28 39.26 18.10
  A 0.73 0.73 0.0 0 1 39.72 19.18
  Q 37.68 22.69 33.76 23.56
  Q 33.36 23.65 32.97 23.64
  Q 32.58 23.64 32.18 23.54
  Q 28.29 22.55 26.35 18.99
  A 0.73 0.73 0.0 0 1 26.84 17.92
  Q 30.15 17.20 33.06 17.24
  Z"
/>
<path fill="#f0dfc1" d="
  M 41.10 35.59
  A 0.44 0.44 0.0 0 1 41.77 36.08
  Q 40.41 40.93 41.28 45.46
  A 0.59 0.58 89.3 0 1 40.61 46.15
  L 39.27 45.92
  A 0.99 0.99 0.0 0 0 38.35 46.24
  Q 34.52 50.57 29.29 47.70
  C 27.94 46.95 27.49 45.14 25.54 45.65
  A 0.57 0.57 0.0 0 1 24.83 45.04
  L 25.27 40.80
  A 1.35 1.27 43.2 0 0 25.24 40.32
  L 24.28 36.21
  A 0.39 0.39 0.0 0 1 24.72 35.73
  L 28.28 36.34
  A 1.01 0.97 -53.5 0 0 28.93 36.23
  L 32.29 34.28
  A 2.04 2.03 49.2 0 1 34.56 34.45
  Q 38.40 37.46 41.10 35.59
  Z"
/>
<path fill="#f0dfc1" d="
  M 24.32 48.92
  L 24.46 48.13
  A 1.26 1.26 0.0 0 1 26.62 47.48
  Q 30.90 52.00 36.91 49.44
  A 2.20 2.18 -84.9 0 0 37.87 48.63
  Q 38.94 46.96 40.88 47.75
  A 1.16 1.14 -82.9 0 1 41.58 48.66
  L 41.61 48.94
  A 0.47 0.47 0.0 0 1 40.93 49.42
  Q 40.32 49.10 39.91 49.06
  Q 39.34 49.00 38.91 49.45
  Q 36.46 52.02 33.20 51.96
  Q 29.71 51.90 26.57 49.52
  A 0.97 0.95 -41.4 0 0 25.50 49.46
  L 25.28 49.59
  A 0.65 0.65 0.0 0 1 24.32 48.92
  Z"
/>
</svg>
