<?xml version="1.0" encoding="UTF-8" standalone="no"?>
<!DOCTYPE svg PUBLIC "-//W3C//DTD SVG 1.1//EN" "http://www.w3.org/Graphics/SVG/1.1/DTD/svg11.dtd">
<svg xmlns="http://www.w3.org/2000/svg" version="1.1" viewBox="0.00 0.00 66.00 88.00">
<g stroke-width="2.00" fill="none" stroke-linecap="butt">
<path stroke="#3a3882" vector-effect="non-scaling-stroke" d="
  M 33.42 86.71
  Q 33.53 86.71 33.63 86.68
  Q 33.68 86.67 33.78 86.57
  C 46.94 73.87 61.08 56.93 63.84 38.72
  C 65.16 29.99 63.56 22.04 58.40 15.06
  C 52.73 7.38 43.71 2.53 33.50 2.52
  C 23.29 2.51 14.27 7.34 8.58 15.01
  C 3.41 21.98 1.80 29.93 3.10 38.66
  C 5.82 56.88 19.93 73.84 33.07 86.57
  Q 33.17 86.67 33.22 86.68
  Q 33.32 86.71 33.42 86.71"
/>
<path stroke="#9f95b6" vector-effect="non-scaling-stroke" d="
  M 21.28 19.50
  A 0.33 0.33 0.0 0 0 21.02 19.63
  L 15.14 27.21
  A 0.33 0.33 0.0 0 0 15.40 27.74
  L 22.14 27.74
  A 0.33 0.33 0.0 0 0 22.43 27.58
  L 26.80 20.00
  A 0.33 0.33 0.0 0 0 26.52 19.50
  L 21.28 19.50"
/>
<path stroke="#9f95b6" vector-effect="non-scaling-stroke" d="
  M 25.83 27.28
  A 0.31 0.31 0.0 0 0 26.10 27.74
  L 39.91 27.74
  A 0.31 0.31 0.0 0 0 40.19 27.30
  L 36.66 19.66
  A 0.31 0.31 0.0 0 0 36.38 19.48
  L 30.50 19.48
  A 0.31 0.31 0.0 0 0 30.23 19.64
  L 25.83 27.28"
/>
<path stroke="#9f95b6" vector-effect="non-scaling-stroke" d="
  M 44.13 27.69
  L 51.18 27.76
  A 0.08 0.08 0.0 0 0 51.24 27.63
  L 45.30 19.72
  A 0.60 0.59 71.5 0 0 44.83 19.48
  L 39.40 19.47
  A 0.13 0.13 0.0 0 0 39.29 19.66
  L 43.68 27.43
  A 0.52 0.52 0.0 0 0 44.13 27.69"
/>
<path stroke="#9f95b6" vector-effect="non-scaling-stroke" d="
  M 28.91 44.62
  L 22.66 31.07
  A 1.04 1.04 0.0 0 0 21.72 30.47
  L 15.91 30.47
  A 0.29 0.29 0.0 0 0 15.70 30.96
  L 28.63 44.82
  A 0.18 0.17 -79.6 0 0 28.91 44.62"
/>
<path stroke="#9f95b6" vector-effect="non-scaling-stroke" d="
  M 40.91 30.97
  A 0.34 0.34 0.0 0 0 40.60 30.49
  L 25.92 30.49
  A 0.34 0.34 0.0 0 0 25.61 30.97
  L 32.95 47.78
  A 0.34 0.34 0.0 0 0 33.57 47.78
  L 40.91 30.97"
/>
<path stroke="#9f95b6" vector-effect="non-scaling-stroke" d="
  M 37.45 44.62
  A 0.18 0.17 79.7 0 0 37.73 44.82
  L 50.67 30.99
  A 0.29 0.29 0.0 0 0 50.46 30.50
  L 44.66 30.49
  A 1.04 1.04 0.0 0 0 43.72 31.09
  L 37.45 44.62"
/>
</g>
<path fill="#262659" d="
  M 33.82 88.00
  L 33.04 88.00
  C 21.78 77.76 12.09 65.65 5.65 51.57
  Q 2.21 44.05 1.60 34.90
  C 0.54 18.89 11.36 5.47 26.73 2.07
  C 41.27 -1.16 55.91 6.03 62.57 19.68
  C 66.92 28.61 65.95 39.76 62.41 48.85
  C 56.57 63.81 45.60 77.23 33.82 88.00
  Z
  M 33.42 86.71
  Q 33.53 86.71 33.63 86.68
  Q 33.68 86.67 33.78 86.57
  C 46.94 73.87 61.08 56.93 63.84 38.72
  C 65.16 29.99 63.56 22.04 58.40 15.06
  C 52.73 7.38 43.71 2.53 33.50 2.52
  C 23.29 2.51 14.27 7.34 8.58 15.01
  C 3.41 21.98 1.80 29.93 3.10 38.66
  C 5.82 56.88 19.93 73.84 33.07 86.57
  Q 33.17 86.67 33.22 86.68
  Q 33.32 86.71 33.42 86.71
  Z"
/>
<path fill="#4e4aab" d="
  M 33.50 2.52
  C 43.71 2.53 52.73 7.38 58.40 15.06
  C 63.56 22.04 65.16 29.99 63.84 38.72
  C 61.08 56.93 46.94 73.87 33.78 86.57
  Q 33.68 86.67 33.63 86.68
  Q 33.53 86.71 33.42 86.71
  Q 33.32 86.71 33.22 86.68
  Q 33.17 86.67 33.07 86.57
  C 19.93 73.84 5.82 56.88 3.10 38.66
  C 1.80 29.93 3.41 21.98 8.58 15.01
  C 14.27 7.34 23.29 2.51 33.50 2.52
  Z
  M 21.28 19.50
  A 0.33 0.33 0.0 0 0 21.02 19.63
  L 15.14 27.21
  A 0.33 0.33 0.0 0 0 15.40 27.74
  L 22.14 27.74
  A 0.33 0.33 0.0 0 0 22.43 27.58
  L 26.80 20.00
  A 0.33 0.33 0.0 0 0 26.52 19.50
  L 21.28 19.50
  Z
  M 25.83 27.28
  A 0.31 0.31 0.0 0 0 26.10 27.74
  L 39.91 27.74
  A 0.31 0.31 0.0 0 0 40.19 27.30
  L 36.66 19.66
  A 0.31 0.31 0.0 0 0 36.38 19.48
  L 30.50 19.48
  A 0.31 0.31 0.0 0 0 30.23 19.64
  L 25.83 27.28
  Z
  M 44.13 27.69
  L 51.18 27.76
  A 0.08 0.08 0.0 0 0 51.24 27.63
  L 45.30 19.72
  A 0.60 0.59 71.5 0 0 44.83 19.48
  L 39.40 19.47
  A 0.13 0.13 0.0 0 0 39.29 19.66
  L 43.68 27.43
  A 0.52 0.52 0.0 0 0 44.13 27.69
  Z
  M 28.91 44.62
  L 22.66 31.07
  A 1.04 1.04 0.0 0 0 21.72 30.47
  L 15.91 30.47
  A 0.29 0.29 0.0 0 0 15.70 30.96
  L 28.63 44.82
  A 0.18 0.17 -79.6 0 0 28.91 44.62
  Z
  M 40.91 30.97
  A 0.34 0.34 0.0 0 0 40.60 30.49
  L 25.92 30.49
  A 0.34 0.34 0.0 0 0 25.61 30.97
  L 32.95 47.78
  A 0.34 0.34 0.0 0 0 33.57 47.78
  L 40.91 30.97
  Z
  M 37.45 44.62
  A 0.18 0.17 79.7 0 0 37.73 44.82
  L 50.67 30.99
  A 0.29 0.29 0.0 0 0 50.46 30.50
  L 44.66 30.49
  A 1.04 1.04 0.0 0 0 43.72 31.09
  L 37.45 44.62
  Z"
/>
<path fill="#f0dfc1" d="
  M 21.28 19.50
  L 26.52 19.50
  A 0.33 0.33 0.0 0 1 26.80 20.00
  L 22.43 27.58
  A 0.33 0.33 0.0 0 1 22.14 27.74
  L 15.40 27.74
  A 0.33 0.33 0.0 0 1 15.14 27.21
  L 21.02 19.63
  A 0.33 0.33 0.0 0 1 21.28 19.50
  Z"
/>
<path fill="#f0dfc1" d="
  M 25.83 27.28
  L 30.23 19.64
  A 0.31 0.31 0.0 0 1 30.50 19.48
  L 36.38 19.48
  A 0.31 0.31 0.0 0 1 36.66 19.66
  L 40.19 27.30
  A 0.31 0.31 0.0 0 1 39.91 27.74
  L 26.10 27.74
  A 0.31 0.31 0.0 0 1 25.83 27.28
  Z"
/>
<path fill="#f0dfc1" d="
  M 44.13 27.69
  A 0.52 0.52 0.0 0 1 43.68 27.43
  L 39.29 19.66
  A 0.13 0.13 0.0 0 1 39.40 19.47
  L 44.83 19.48
  A 0.60 0.59 71.5 0 1 45.30 19.72
  L 51.24 27.63
  A 0.08 0.08 0.0 0 1 51.18 27.76
  L 44.13 27.69
  Z"
/>
<path fill="#f0dfc1" d="
  M 28.63 44.82
  L 15.70 30.96
  A 0.29 0.29 0.0 0 1 15.91 30.47
  L 21.72 30.47
  A 1.04 1.04 0.0 0 1 22.66 31.07
  L 28.91 44.62
  A 0.18 0.17 -79.6 0 1 28.63 44.82
  Z"
/>
<path fill="#f0dfc1" d="
  M 40.91 30.97
  L 33.57 47.78
  A 0.34 0.34 0.0 0 1 32.95 47.78
  L 25.61 30.97
  A 0.34 0.34 0.0 0 1 25.92 30.49
  L 40.60 30.49
  A 0.34 0.34 0.0 0 1 40.91 30.97
  Z"
/>
<path fill="#f0dfc1" d="
  M 37.45 44.62
  L 43.72 31.09
  A 1.04 1.04 0.0 0 1 44.66 30.49
  L 50.46 30.50
  A 0.29 0.29 0.0 0 1 50.67 30.99
  L 37.73 44.82
  A 0.18 0.17 79.7 0 1 37.45 44.62
  Z"
/>
</svg>
