<?xml version="1.0" encoding="UTF-8" standalone="no"?>
<!DOCTYPE svg PUBLIC "-//W3C//DTD SVG 1.1//EN" "http://www.w3.org/Graphics/SVG/1.1/DTD/svg11.dtd">
<svg xmlns="http://www.w3.org/2000/svg" version="1.1" viewBox="0.00 0.00 66.00 88.00">
<g stroke-width="2.00" fill="none" stroke-linecap="butt">
<path stroke="#602e09" vector-effect="non-scaling-stroke" d="
  M 33.43 86.67
  Q 33.52 86.67 33.60 86.66
  Q 33.63 86.65 33.72 86.56
  C 47.53 73.64 63.89 53.62 64.24 33.43
  C 64.54 16.30 50.59 2.49 33.52 2.47
  C 16.46 2.45 2.48 16.22 2.74 33.35
  C 3.04 53.55 19.35 73.61 33.13 86.56
  Q 33.22 86.65 33.25 86.66
  Q 33.34 86.67 33.43 86.67"
/>
<path stroke="#b78e67" vector-effect="non-scaling-stroke" d="
  M 33.00 28.24
  Q 32.93 28.24 32.87 28.26
  A 0.41 0.27 -3.1 0 0 32.65 28.42
  L 28.51 36.83
  A 1.46 1.45 -44.9 0 1 25.90 36.83
  L 21.74 28.37
  A 0.35 0.35 0.0 0 0 21.12 28.37
  L 16.86 36.98
  A 0.91 0.89 -76.5 0 1 16.06 37.48
  L 15.11 37.48
  A 0.46 0.45 -0.0 0 0 14.65 37.93
  L 14.65 39.76
  A 0.49 0.49 0.0 0 0 15.14 40.25
  Q 24.56 40.24 33.00 40.25
  Q 41.43 40.24 50.85 40.25
  A 0.49 0.49 0.0 0 0 51.34 39.76
  L 51.34 37.93
  A 0.46 0.45 0.0 0 0 50.88 37.48
  L 49.93 37.48
  A 0.91 0.89 76.5 0 1 49.13 36.98
  L 44.87 28.37
  A 0.35 0.35 0.0 0 0 44.25 28.37
  L 40.09 36.83
  A 1.46 1.45 45.0 0 1 37.48 36.83
  L 33.34 28.42
  A 0.41 0.27 3.1 0 0 33.12 28.26
  Q 33.07 28.24 33.00 28.24"
/>
</g>
<path fill="#421e05" d="
  M 33.80 88.00
  L 33.04 88.00
  C 21.72 77.71 12.19 65.75 5.68 51.55
  Q 2.13 43.81 1.57 34.90
  C 0.57 18.86 11.16 5.76 26.65 2.05
  C 37.34 -0.50 49.56 3.32 57.11 11.60
  C 79.57 36.21 52.11 71.37 33.80 88.00
  Z
  M 33.43 86.67
  Q 33.52 86.67 33.60 86.66
  Q 33.63 86.65 33.72 86.56
  C 47.53 73.64 63.89 53.62 64.24 33.43
  C 64.54 16.30 50.59 2.49 33.52 2.47
  C 16.46 2.45 2.48 16.22 2.74 33.35
  C 3.04 53.55 19.35 73.61 33.13 86.56
  Q 33.22 86.65 33.25 86.66
  Q 33.34 86.67 33.43 86.67
  Z"
/>
<path fill="#7e3d0c" d="
  M 33.52 2.47
  C 50.59 2.49 64.54 16.30 64.24 33.43
  C 63.89 53.62 47.53 73.64 33.72 86.56
  Q 33.63 86.65 33.60 86.66
  Q 33.52 86.67 33.43 86.67
  Q 33.34 86.67 33.25 86.66
  Q 33.22 86.65 33.13 86.56
  C 19.35 73.61 3.04 53.55 2.74 33.35
  C 2.48 16.22 16.46 2.45 33.52 2.47
  Z
  M 33.00 28.24
  Q 32.93 28.24 32.87 28.26
  A 0.41 0.27 -3.1 0 0 32.65 28.42
  L 28.51 36.83
  A 1.46 1.45 -44.9 0 1 25.90 36.83
  L 21.74 28.37
  A 0.35 0.35 0.0 0 0 21.12 28.37
  L 16.86 36.98
  A 0.91 0.89 -76.5 0 1 16.06 37.48
  L 15.11 37.48
  A 0.46 0.45 -0.0 0 0 14.65 37.93
  L 14.65 39.76
  A 0.49 0.49 0.0 0 0 15.14 40.25
  Q 24.56 40.24 33.00 40.25
  Q 41.43 40.24 50.85 40.25
  A 0.49 0.49 0.0 0 0 51.34 39.76
  L 51.34 37.93
  A 0.46 0.45 0.0 0 0 50.88 37.48
  L 49.93 37.48
  A 0.91 0.89 76.5 0 1 49.13 36.98
  L 44.87 28.37
  A 0.35 0.35 0.0 0 0 44.25 28.37
  L 40.09 36.83
  A 1.46 1.45 45.0 0 1 37.48 36.83
  L 33.34 28.42
  A 0.41 0.27 3.1 0 0 33.12 28.26
  Q 33.07 28.24 33.00 28.24
  Z"
/>
<path fill="#f0dfc1" d="
  M 33.00 40.25
  Q 24.56 40.24 15.14 40.25
  A 0.49 0.49 0.0 0 1 14.65 39.76
  L 14.65 37.93
  A 0.46 0.45 -0.0 0 1 15.11 37.48
  L 16.06 37.48
  A 0.91 0.89 -76.5 0 0 16.86 36.98
  L 21.12 28.37
  A 0.35 0.35 0.0 0 1 21.74 28.37
  L 25.90 36.83
  A 1.46 1.45 -44.9 0 0 28.51 36.83
  L 32.65 28.42
  A 0.41 0.27 -3.1 0 1 32.87 28.26
  Q 32.93 28.24 33.00 28.24
  Q 33.07 28.24 33.12 28.26
  A 0.41 0.27 3.1 0 1 33.34 28.42
  L 37.48 36.83
  A 1.46 1.45 45.0 0 0 40.09 36.83
  L 44.25 28.37
  A 0.35 0.35 0.0 0 1 44.87 28.37
  L 49.13 36.98
  A 0.91 0.89 76.5 0 0 49.93 37.48
  L 50.88 37.48
  A 0.46 0.45 0.0 0 1 51.34 37.93
  L 51.34 39.76
  A 0.49 0.49 0.0 0 1 50.85 40.25
  Q 41.43 40.24 33.00 40.25
  Z"
/>
</svg>
