<?xml version="1.0" encoding="UTF-8" standalone="no"?>
<!DOCTYPE svg PUBLIC "-//W3C//DTD SVG 1.1//EN" "http://www.w3.org/Graphics/SVG/1.1/DTD/svg11.dtd">
<svg xmlns="http://www.w3.org/2000/svg" version="1.1" viewBox="0.00 0.00 66.00 88.00">
<g stroke-width="2.00" fill="none" stroke-linecap="butt">
<path stroke="#3a3882" vector-effect="non-scaling-stroke" d="
  M 33.41 86.70
  Q 33.51 86.70 33.61 86.68
  Q 33.67 86.67 33.77 86.57
  C 47.24 73.55 61.77 56.15 64.04 37.25
  C 66.25 18.82 52.58 2.55 33.52 2.52
  C 14.46 2.49 0.74 18.73 2.91 37.17
  C 5.12 56.07 19.61 73.51 33.04 86.57
  Q 33.14 86.67 33.20 86.68
  Q 33.30 86.70 33.41 86.70"
/>
<path stroke="#9f95b6" vector-effect="non-scaling-stroke" d="
  M 32.97 17.49
  Q 37.76 17.49 41.85 18.76
  A 0.60 0.60 0.0 0 1 41.76 19.93
  L 41.27 20.00
  A 0.61 0.60 -9.5 0 0 40.77 20.69
  L 41.69 26.67
  A 0.51 0.50 78.0 0 0 42.31 27.08
  L 45.90 26.11
  A 0.95 0.95 0.0 0 0 46.58 25.01
  Q 46.04 22.32 45.43 20.06
  Q 44.69 17.31 41.74 16.67
  Q 37.56 15.76 32.96 15.76
  Q 28.37 15.76 24.19 16.68
  Q 21.24 17.32 20.50 20.07
  Q 19.89 22.33 19.36 25.02
  A 0.95 0.95 0.0 0 0 20.04 26.12
  L 23.63 27.09
  A 0.51 0.50 -78.0 0 0 24.25 26.68
  L 25.16 20.70
  A 0.61 0.60 9.5 0 0 24.66 20.01
  L 24.17 19.94
  A 0.60 0.60 0.0 0 1 24.09 18.77
  Q 28.17 17.49 32.97 17.49"
/>
<path stroke="#9f95b6" vector-effect="non-scaling-stroke" d="
  M 32.5881 21.7913
  A 0.62 0.62 0.0 0 0 32.0210 21.1226
  L 27.1375 20.7211
  A 0.62 0.62 0.0 0 0 26.4688 21.2882
  L 25.9919 27.0887
  A 0.62 0.62 0.0 0 0 26.5590 27.7574
  L 31.4425 28.1589
  A 0.62 0.62 0.0 0 0 32.1112 27.5918
  L 32.5881 21.7913"
/>
<path stroke="#9f95b6" vector-effect="non-scaling-stroke" d="
  M 34.32 28.10
  L 39.97 27.57
  A 0.28 0.28 0.0 0 0 40.23 27.27
  L 39.88 23.52
  A 3.02 0.93 84.7 0 0 38.67 20.60
  L 34.31 21.01
  A 3.02 0.93 84.7 0 0 33.67 24.10
  L 34.01 27.84
  A 0.28 0.28 0.0 0 0 34.32 28.10"
/>
<path stroke="#9f95b6" vector-effect="non-scaling-stroke" d="
  M 42.01 35.37
  Q 41.88 40.16 41.92 40.45
  A 0.53 0.52 -14.7 0 0 42.63 40.86
  L 46.67 39.30
  A 0.90 0.90 0.0 0 0 47.25 38.42
  Q 47.25 38.29 47.33 35.49
  Q 47.47 30.70 47.42 30.41
  A 0.53 0.52 -14.7 0 0 46.72 30.00
  L 42.68 31.56
  A 0.90 0.90 0.0 0 0 42.10 32.44
  Q 42.09 32.57 42.01 35.37"
/>
<path stroke="#9f95b6" vector-effect="non-scaling-stroke" d="
  M 23.27 40.72
  A 0.54 0.54 0.0 0 0 24.00 40.21
  L 24.00 32.16
  A 0.54 0.54 0.0 0 0 23.65 31.65
  L 19.36 30.06
  A 0.54 0.54 0.0 0 0 18.63 30.57
  L 18.63 38.62
  A 0.54 0.54 0.0 0 0 18.98 39.13
  L 23.27 40.72"
/>
<path stroke="#9f95b6" vector-effect="non-scaling-stroke" d="
  M 32.06 32.43
  L 25.78 32.37
  A 0.29 0.29 0.0 0 0 25.49 32.66
  L 25.42 40.38
  A 1.11 0.23 -89.5 0 0 25.64 41.49
  L 32.04 41.55
  A 1.11 0.23 -89.5 0 0 32.28 40.44
  L 32.35 32.72
  A 0.29 0.29 0.0 0 0 32.06 32.43"
/>
<path stroke="#9f95b6" vector-effect="non-scaling-stroke" d="
  M 40.20 32.35
  L 34.04 32.39
  A 0.30 0.30 0.0 0 0 33.74 32.69
  L 33.79 40.39
  A 1.14 0.23 89.6 0 0 34.03 41.53
  L 40.33 41.49
  A 1.14 0.23 89.6 0 0 40.55 40.35
  L 40.50 32.65
  A 0.30 0.30 0.0 0 0 40.20 32.35"
/>
<path stroke="#9f95b6" vector-effect="non-scaling-stroke" d="
  M 19.54 44.74
  L 20.53 48.42
  A 3.17 3.15 2.8 0 0 22.48 50.56
  L 25.41 51.65
  A 0.57 0.56 2.6 0 0 26.15 50.98
  L 24.88 46.29
  A 0.77 0.76 3.1 0 0 24.41 45.77
  L 20.14 44.19
  A 0.46 0.46 0.0 0 0 19.54 44.74"
/>
<path stroke="#9f95b6" vector-effect="non-scaling-stroke" d="
  M 46.38 44.73
  A 0.46 0.46 0.0 0 0 45.77 44.18
  L 41.52 45.80
  A 0.77 0.76 -3.6 0 0 41.05 46.32
  L 39.82 51.02
  A 0.56 0.56 0.0 0 0 40.57 51.68
  L 43.48 50.57
  A 3.16 3.15 -3.3 0 0 45.42 48.42
  L 46.38 44.73"
/>
<path stroke="#9f95b6" vector-effect="non-scaling-stroke" d="
  M 26.89 46.08
  A 0.34 0.34 0.0 0 0 26.56 46.50
  L 27.91 51.50
  A 0.94 0.93 82.2 0 0 28.81 52.19
  L 31.72 52.19
  A 0.56 0.56 0.0 0 0 32.28 51.63
  L 32.28 46.58
  A 0.50 0.50 0.0 0 0 31.78 46.08
  L 26.89 46.08"
/>
<path stroke="#9f95b6" vector-effect="non-scaling-stroke" d="
  M 39.13 46.25
  L 34.32 46.22
  A 0.49 0.49 0.0 0 0 33.82 46.71
  L 33.79 51.68
  A 0.55 0.55 0.0 0 0 34.34 52.24
  L 37.21 52.25
  A 0.92 0.92 0.0 0 0 38.10 51.58
  L 39.45 46.66
  A 0.33 0.33 0.0 0 0 39.13 46.25"
/>
</g>
<path fill="#262659" d="
  M 33.80 88.00
  L 33.04 88.00
  C 21.72 77.71 12.19 65.75 5.68 51.55
  Q 2.12 43.81 1.57 34.90
  C 0.39 15.67 16.33 0.11 35.84 1.42
  C 52.90 2.56 66.23 17.12 65.46 34.14
  Q 65.11 41.79 62.33 49.05
  C 56.71 63.75 45.39 77.48 33.80 88.00
  Z
  M 33.41 86.70
  Q 33.51 86.70 33.61 86.68
  Q 33.67 86.67 33.77 86.57
  C 47.24 73.55 61.77 56.15 64.04 37.25
  C 66.25 18.82 52.58 2.55 33.52 2.52
  C 14.46 2.49 0.74 18.73 2.91 37.17
  C 5.12 56.07 19.61 73.51 33.04 86.57
  Q 33.14 86.67 33.20 86.68
  Q 33.30 86.70 33.41 86.70
  Z"
/>
<path fill="#4e4aab" d="
  M 33.52 2.52
  C 52.58 2.55 66.25 18.82 64.04 37.25
  C 61.77 56.15 47.24 73.55 33.77 86.57
  Q 33.67 86.67 33.61 86.68
  Q 33.51 86.70 33.41 86.70
  Q 33.30 86.70 33.20 86.68
  Q 33.14 86.67 33.04 86.57
  C 19.61 73.51 5.12 56.07 2.91 37.17
  C 0.74 18.73 14.46 2.49 33.52 2.52
  Z
  M 32.97 17.49
  Q 37.76 17.49 41.85 18.76
  A 0.60 0.60 0.0 0 1 41.76 19.93
  L 41.27 20.00
  A 0.61 0.60 -9.5 0 0 40.77 20.69
  L 41.69 26.67
  A 0.51 0.50 78.0 0 0 42.31 27.08
  L 45.90 26.11
  A 0.95 0.95 0.0 0 0 46.58 25.01
  Q 46.04 22.32 45.43 20.06
  Q 44.69 17.31 41.74 16.67
  Q 37.56 15.76 32.96 15.76
  Q 28.37 15.76 24.19 16.68
  Q 21.24 17.32 20.50 20.07
  Q 19.89 22.33 19.36 25.02
  A 0.95 0.95 0.0 0 0 20.04 26.12
  L 23.63 27.09
  A 0.51 0.50 -78.0 0 0 24.25 26.68
  L 25.16 20.70
  A 0.61 0.60 9.5 0 0 24.66 20.01
  L 24.17 19.94
  A 0.60 0.60 0.0 0 1 24.09 18.77
  Q 28.17 17.49 32.97 17.49
  Z
  M 32.5881 21.7913
  A 0.62 0.62 0.0 0 0 32.0210 21.1226
  L 27.1375 20.7211
  A 0.62 0.62 0.0 0 0 26.4688 21.2882
  L 25.9919 27.0887
  A 0.62 0.62 0.0 0 0 26.5590 27.7574
  L 31.4425 28.1589
  A 0.62 0.62 0.0 0 0 32.1112 27.5918
  L 32.5881 21.7913
  Z
  M 34.32 28.10
  L 39.97 27.57
  A 0.28 0.28 0.0 0 0 40.23 27.27
  L 39.88 23.52
  A 3.02 0.93 84.7 0 0 38.67 20.60
  L 34.31 21.01
  A 3.02 0.93 84.7 0 0 33.67 24.10
  L 34.01 27.84
  A 0.28 0.28 0.0 0 0 34.32 28.10
  Z
  M 42.01 35.37
  Q 41.88 40.16 41.92 40.45
  A 0.53 0.52 -14.7 0 0 42.63 40.86
  L 46.67 39.30
  A 0.90 0.90 0.0 0 0 47.25 38.42
  Q 47.25 38.29 47.33 35.49
  Q 47.47 30.70 47.42 30.41
  A 0.53 0.52 -14.7 0 0 46.72 30.00
  L 42.68 31.56
  A 0.90 0.90 0.0 0 0 42.10 32.44
  Q 42.09 32.57 42.01 35.37
  Z
  M 23.27 40.72
  A 0.54 0.54 0.0 0 0 24.00 40.21
  L 24.00 32.16
  A 0.54 0.54 0.0 0 0 23.65 31.65
  L 19.36 30.06
  A 0.54 0.54 0.0 0 0 18.63 30.57
  L 18.63 38.62
  A 0.54 0.54 0.0 0 0 18.98 39.13
  L 23.27 40.72
  Z
  M 32.06 32.43
  L 25.78 32.37
  A 0.29 0.29 0.0 0 0 25.49 32.66
  L 25.42 40.38
  A 1.11 0.23 -89.5 0 0 25.64 41.49
  L 32.04 41.55
  A 1.11 0.23 -89.5 0 0 32.28 40.44
  L 32.35 32.72
  A 0.29 0.29 0.0 0 0 32.06 32.43
  Z
  M 40.20 32.35
  L 34.04 32.39
  A 0.30 0.30 0.0 0 0 33.74 32.69
  L 33.79 40.39
  A 1.14 0.23 89.6 0 0 34.03 41.53
  L 40.33 41.49
  A 1.14 0.23 89.6 0 0 40.55 40.35
  L 40.50 32.65
  A 0.30 0.30 0.0 0 0 40.20 32.35
  Z
  M 19.54 44.74
  L 20.53 48.42
  A 3.17 3.15 2.8 0 0 22.48 50.56
  L 25.41 51.65
  A 0.57 0.56 2.6 0 0 26.15 50.98
  L 24.88 46.29
  A 0.77 0.76 3.1 0 0 24.41 45.77
  L 20.14 44.19
  A 0.46 0.46 0.0 0 0 19.54 44.74
  Z
  M 46.38 44.73
  A 0.46 0.46 0.0 0 0 45.77 44.18
  L 41.52 45.80
  A 0.77 0.76 -3.6 0 0 41.05 46.32
  L 39.82 51.02
  A 0.56 0.56 0.0 0 0 40.57 51.68
  L 43.48 50.57
  A 3.16 3.15 -3.3 0 0 45.42 48.42
  L 46.38 44.73
  Z
  M 26.89 46.08
  A 0.34 0.34 0.0 0 0 26.56 46.50
  L 27.91 51.50
  A 0.94 0.93 82.2 0 0 28.81 52.19
  L 31.72 52.19
  A 0.56 0.56 0.0 0 0 32.28 51.63
  L 32.28 46.58
  A 0.50 0.50 0.0 0 0 31.78 46.08
  L 26.89 46.08
  Z
  M 39.13 46.25
  L 34.32 46.22
  A 0.49 0.49 0.0 0 0 33.82 46.71
  L 33.79 51.68
  A 0.55 0.55 0.0 0 0 34.34 52.24
  L 37.21 52.25
  A 0.92 0.92 0.0 0 0 38.10 51.58
  L 39.45 46.66
  A 0.33 0.33 0.0 0 0 39.13 46.25
  Z"
/>
<path fill="#f0dfc1" d="
  M 32.96 15.76
  Q 37.56 15.76 41.74 16.67
  Q 44.69 17.31 45.43 20.06
  Q 46.04 22.32 46.58 25.01
  A 0.95 0.95 0.0 0 1 45.90 26.11
  L 42.31 27.08
  A 0.51 0.50 78.0 0 1 41.69 26.67
  L 40.77 20.69
  A 0.61 0.60 -9.5 0 1 41.27 20.00
  L 41.76 19.93
  A 0.60 0.60 0.0 0 0 41.85 18.76
  Q 37.76 17.49 32.97 17.49
  Q 28.17 17.49 24.09 18.77
  A 0.60 0.60 0.0 0 0 24.17 19.94
  L 24.66 20.01
  A 0.61 0.60 9.5 0 1 25.16 20.70
  L 24.25 26.68
  A 0.51 0.50 -78.0 0 1 23.63 27.09
  L 20.04 26.12
  A 0.95 0.95 0.0 0 1 19.36 25.02
  Q 19.89 22.33 20.50 20.07
  Q 21.24 17.32 24.19 16.68
  Q 28.37 15.76 32.96 15.76
  Z"
/>
<rect fill="#f0dfc1" x="-3.07" y="-3.53" transform="translate(29.29,24.44) rotate(4.7)" width="6.14" height="7.06" rx="0.62"/>
<path fill="#f0dfc1" d="
  M 34.32 28.10
  A 0.28 0.28 0.0 0 1 34.01 27.84
  L 33.67 24.10
  A 3.02 0.93 84.7 0 1 34.31 21.01
  L 38.67 20.60
  A 3.02 0.93 84.7 0 1 39.88 23.52
  L 40.23 27.27
  A 0.28 0.28 0.0 0 1 39.97 27.57
  L 34.32 28.10
  Z"
/>
<path fill="#f0dfc1" d="
  M 47.33 35.49
  Q 47.25 38.29 47.25 38.42
  A 0.90 0.90 0.0 0 1 46.67 39.30
  L 42.63 40.86
  A 0.53 0.52 -14.7 0 1 41.92 40.45
  Q 41.88 40.16 42.01 35.37
  Q 42.09 32.57 42.10 32.44
  A 0.90 0.90 0.0 0 1 42.68 31.56
  L 46.72 30.00
  A 0.53 0.52 -14.7 0 1 47.42 30.41
  Q 47.47 30.70 47.33 35.49
  Z"
/>
<path fill="#f0dfc1" d="
  M 23.27 40.72
  L 18.98 39.13
  A 0.54 0.54 0.0 0 1 18.63 38.62
  L 18.63 30.57
  A 0.54 0.54 0.0 0 1 19.36 30.06
  L 23.65 31.65
  A 0.54 0.54 0.0 0 1 24.00 32.16
  L 24.00 40.21
  A 0.54 0.54 0.0 0 1 23.27 40.72
  Z"
/>
<path fill="#f0dfc1" d="
  M 32.06 32.43
  A 0.29 0.29 0.0 0 1 32.35 32.72
  L 32.28 40.44
  A 1.11 0.23 -89.5 0 1 32.04 41.55
  L 25.64 41.49
  A 1.11 0.23 -89.5 0 1 25.42 40.38
  L 25.49 32.66
  A 0.29 0.29 0.0 0 1 25.78 32.37
  L 32.06 32.43
  Z"
/>
<path fill="#f0dfc1" d="
  M 40.20 32.35
  A 0.30 0.30 0.0 0 1 40.50 32.65
  L 40.55 40.35
  A 1.14 0.23 89.6 0 1 40.33 41.49
  L 34.03 41.53
  A 1.14 0.23 89.6 0 1 33.79 40.39
  L 33.74 32.69
  A 0.30 0.30 0.0 0 1 34.04 32.39
  L 40.20 32.35
  Z"
/>
<path fill="#f0dfc1" d="
  M 19.54 44.74
  A 0.46 0.46 0.0 0 1 20.14 44.19
  L 24.41 45.77
  A 0.77 0.76 3.1 0 1 24.88 46.29
  L 26.15 50.98
  A 0.57 0.56 2.6 0 1 25.41 51.65
  L 22.48 50.56
  A 3.17 3.15 2.8 0 1 20.53 48.42
  L 19.54 44.74
  Z"
/>
<path fill="#f0dfc1" d="
  M 46.38 44.73
  L 45.42 48.42
  A 3.16 3.15 -3.3 0 1 43.48 50.57
  L 40.57 51.68
  A 0.56 0.56 0.0 0 1 39.82 51.02
  L 41.05 46.32
  A 0.77 0.76 -3.6 0 1 41.52 45.80
  L 45.77 44.18
  A 0.46 0.46 0.0 0 1 46.38 44.73
  Z"
/>
<path fill="#f0dfc1" d="
  M 32.28 46.58
  L 32.28 51.63
  A 0.56 0.56 0.0 0 1 31.72 52.19
  L 28.81 52.19
  A 0.94 0.93 82.2 0 1 27.91 51.50
  L 26.56 46.50
  A 0.34 0.34 0.0 0 1 26.89 46.08
  L 31.78 46.08
  A 0.50 0.50 0.0 0 1 32.28 46.58
  Z"
/>
<path fill="#f0dfc1" d="
  M 39.13 46.25
  A 0.33 0.33 0.0 0 1 39.45 46.66
  L 38.10 51.58
  A 0.92 0.92 0.0 0 1 37.21 52.25
  L 34.34 52.24
  A 0.55 0.55 0.0 0 1 33.79 51.68
  L 33.82 46.71
  A 0.49 0.49 0.0 0 1 34.32 46.22
  L 39.13 46.25
  Z"
/>
</svg>
