<?xml version="1.0" encoding="UTF-8" standalone="no"?>
<!DOCTYPE svg PUBLIC "-//W3C//DTD SVG 1.1//EN" "http://www.w3.org/Graphics/SVG/1.1/DTD/svg11.dtd">
<svg xmlns="http://www.w3.org/2000/svg" version="1.1" viewBox="0.00 0.00 66.00 88.00">
<g stroke-width="2.00" fill="none" stroke-linecap="butt">
<path stroke="#3a3882" vector-effect="non-scaling-stroke" d="
  M 33.42 86.71
  Q 33.53 86.71 33.62 86.69
  Q 33.66 86.68 33.76 86.58
  C 50.55 70.81 76.06 38.66 58.41 15.10
  C 52.48 7.18 43.64 2.53 33.51 2.52
  C 23.38 2.51 14.53 7.15 8.58 15.05
  C -9.12 38.57 16.32 70.78 33.08 86.58
  Q 33.18 86.68 33.22 86.69
  Q 33.31 86.71 33.42 86.71"
/>
<path stroke="#9f95b6" vector-effect="non-scaling-stroke" d="
  M 29.62 30.84
  Q 25.57 24.56 22.35 17.34
  Q 21.87 16.27 21.10 15.98
  A 2.02 1.96 7.2 0 0 18.38 18.02
  C 19.16 24.57 22.26 28.79 26.25 35.59
  A 1.18 1.18 0.0 0 1 26.23 36.80
  C 23.37 41.43 20.49 45.89 20.13 51.58
  A 0.67 0.67 0.0 0 0 21.34 52.02
  L 29.75 40.73
  A 0.36 0.35 44.6 0 1 30.32 40.73
  Q 35.18 47.12 42.80 49.54
  A 1.20 1.19 -86.0 0 0 44.34 48.20
  Q 44.33 48.16 43.92 47.62
  Q 40.31 42.88 33.91 36.67
  A 1.25 1.24 -49.5 0 1 33.79 35.03
  Q 39.73 27.25 47.18 19.09
  Q 48.00 18.19 47.34 17.15
  Q 46.39 15.62 44.42 16.69
  C 38.38 19.97 34.36 25.43 30.22 30.87
  A 0.37 0.36 47.7 0 1 29.62 30.84"
/>
</g>
<path fill="#262658" d="
  M 33.79 88.00
  L 33.03 88.00
  C 17.15 73.54 -4.59 46.36 3.05 23.09
  Q 5.54 15.51 11.51 9.95
  C 27.41 -4.87 53.36 0.00 62.69 19.91
  C 66.91 28.94 65.92 39.91 62.33 49.05
  C 56.52 63.86 45.51 77.37 33.79 88.00
  Z
  M 33.42 86.71
  Q 33.53 86.71 33.62 86.69
  Q 33.66 86.68 33.76 86.58
  C 50.55 70.81 76.06 38.66 58.41 15.10
  C 52.48 7.18 43.64 2.53 33.51 2.52
  C 23.38 2.51 14.53 7.15 8.58 15.05
  C -9.12 38.57 16.32 70.78 33.08 86.58
  Q 33.18 86.68 33.22 86.69
  Q 33.31 86.71 33.42 86.71
  Z"
/>
<path fill="#4e4aab" d="
  M 33.51 2.52
  C 43.64 2.53 52.48 7.18 58.41 15.10
  C 76.06 38.66 50.55 70.81 33.76 86.58
  Q 33.66 86.68 33.62 86.69
  Q 33.53 86.71 33.42 86.71
  Q 33.31 86.71 33.22 86.69
  Q 33.18 86.68 33.08 86.58
  C 16.32 70.78 -9.12 38.57 8.58 15.05
  C 14.53 7.15 23.38 2.51 33.51 2.52
  Z
  M 29.62 30.84
  Q 25.57 24.56 22.35 17.34
  Q 21.87 16.27 21.10 15.98
  A 2.02 1.96 7.2 0 0 18.38 18.02
  C 19.16 24.57 22.26 28.79 26.25 35.59
  A 1.18 1.18 0.0 0 1 26.23 36.80
  C 23.37 41.43 20.49 45.89 20.13 51.58
  A 0.67 0.67 0.0 0 0 21.34 52.02
  L 29.75 40.73
  A 0.36 0.35 44.6 0 1 30.32 40.73
  Q 35.18 47.12 42.80 49.54
  A 1.20 1.19 -86.0 0 0 44.34 48.20
  Q 44.33 48.16 43.92 47.62
  Q 40.31 42.88 33.91 36.67
  A 1.25 1.24 -49.5 0 1 33.79 35.03
  Q 39.73 27.25 47.18 19.09
  Q 48.00 18.19 47.34 17.15
  Q 46.39 15.62 44.42 16.69
  C 38.38 19.97 34.36 25.43 30.22 30.87
  A 0.37 0.36 47.7 0 1 29.62 30.84
  Z"
/>
<path fill="#f0dfc1" d="
  M 29.62 30.84
  A 0.37 0.36 47.7 0 0 30.22 30.87
  C 34.36 25.43 38.38 19.97 44.42 16.69
  Q 46.39 15.62 47.34 17.15
  Q 48.00 18.19 47.18 19.09
  Q 39.73 27.25 33.79 35.03
  A 1.25 1.24 -49.5 0 0 33.91 36.67
  Q 40.31 42.88 43.92 47.62
  Q 44.33 48.16 44.34 48.20
  A 1.20 1.19 -86.0 0 1 42.80 49.54
  Q 35.18 47.12 30.32 40.73
  A 0.36 0.35 44.6 0 0 29.75 40.73
  L 21.34 52.02
  A 0.67 0.67 0.0 0 1 20.13 51.58
  C 20.49 45.89 23.37 41.43 26.23 36.80
  A 1.18 1.18 0.0 0 0 26.25 35.59
  C 22.26 28.79 19.16 24.57 18.38 18.02
  A 2.02 1.96 7.2 0 1 21.10 15.98
  Q 21.87 16.27 22.35 17.34
  Q 25.57 24.56 29.62 30.84
  Z"
/>
</svg>
