<?xml version="1.0" encoding="UTF-8" standalone="no"?>
<!DOCTYPE svg PUBLIC "-//W3C//DTD SVG 1.1//EN" "http://www.w3.org/Graphics/SVG/1.1/DTD/svg11.dtd">
<svg xmlns="http://www.w3.org/2000/svg" version="1.1" viewBox="0.00 0.00 66.00 88.00">
<g stroke-width="2.00" fill="none" stroke-linecap="butt">
<path stroke="#313930" vector-effect="non-scaling-stroke" d="
  M 33.42 86.60
  C 33.56 86.60 33.72 86.58 33.82 86.49
  Q 49.85 71.06 57.57 56.54
  Q 62.78 46.75 63.87 38.05
  Q 66.53 16.90 48.09 6.20
  Q 41.80 2.55 33.53 2.54
  Q 25.26 2.53 18.96 6.16
  Q 0.50 16.81 3.10 37.97
  Q 4.17 46.67 9.35 56.48
  Q 17.03 71.02 33.02 86.49
  C 33.12 86.58 33.29 86.60 33.42 86.60"
/>
<path stroke="#989580" vector-effect="non-scaling-stroke" d="
  M 26.00 27.07
  Q 25.97 27.09 25.94 27.11
  A 0.16 0.01 -33.2 0 1 25.82 27.18
  L 15.09 27.19
  A 0.38 0.37 -89.7 0 0 14.72 27.56
  Q 14.71 28.59 14.71 34.07
  Q 14.71 39.55 14.72 40.57
  A 0.38 0.37 89.7 0 0 15.09 40.94
  L 25.82 40.95
  A 0.16 0.01 33.2 0 1 25.94 41.02
  Q 25.97 41.04 26.00 41.07
  Q 26.03 41.09 26.05 41.12
  A 0.16 0.01 56.8 0 1 26.11 41.25
  L 26.12 51.98
  A 0.38 0.37 0.3 0 0 26.50 52.35
  Q 27.52 52.36 33.00 52.36
  Q 38.48 52.36 39.50 52.35
  A 0.38 0.37 -0.3 0 0 39.88 51.97
  L 39.89 41.24
  A 0.16 0.01 -56.8 0 1 39.95 41.12
  Q 39.97 41.09 40.00 41.06
  Q 40.03 41.04 40.05 41.02
  A 0.16 0.01 -33.2 0 1 40.18 40.95
  L 50.91 40.94
  A 0.38 0.37 -89.7 0 0 51.28 40.57
  Q 51.29 39.55 51.29 34.06
  Q 51.29 28.58 51.28 27.56
  A 0.38 0.37 89.7 0 0 50.91 27.19
  L 40.18 27.18
  A 0.16 0.01 33.2 0 1 40.05 27.11
  Q 40.02 27.09 40.00 27.07
  Q 39.97 27.04 39.95 27.01
  A 0.16 0.01 56.8 0 1 39.89 26.89
  L 39.88 16.16
  A 0.38 0.37 0.3 0 0 39.50 15.78
  Q 38.48 15.78 33.00 15.78
  Q 27.52 15.78 26.49 15.78
  A 0.38 0.37 -0.3 0 0 26.12 16.16
  L 26.11 26.89
  A 0.16 0.01 -56.8 0 1 26.05 27.01
  Q 26.03 27.04 26.00 27.07"
/>
</g>
<path fill="#212820" d="
  M 33.81 88.00
  L 33.04 88.00
  C 21.76 77.76 12.10 65.66 5.64 51.56
  Q 2.20 44.06 1.59 34.89
  C 0.54 19.00 11.24 5.61 26.48 2.12
  C 41.13 -1.23 55.85 5.94 62.58 19.70
  C 66.92 28.58 65.94 39.79 62.41 48.85
  C 56.58 63.80 45.59 77.24 33.81 88.00
  Z
  M 33.42 86.60
  C 33.56 86.60 33.72 86.58 33.82 86.49
  Q 49.85 71.06 57.57 56.54
  Q 62.78 46.75 63.87 38.05
  Q 66.53 16.90 48.09 6.20
  Q 41.80 2.55 33.53 2.54
  Q 25.26 2.53 18.96 6.16
  Q 0.50 16.81 3.10 37.97
  Q 4.17 46.67 9.35 56.48
  Q 17.03 71.02 33.02 86.49
  C 33.12 86.58 33.29 86.60 33.42 86.60
  Z"
/>
<path fill="#404a3f" d="
  M 33.53 2.54
  Q 41.80 2.55 48.09 6.20
  Q 66.53 16.90 63.87 38.05
  Q 62.78 46.75 57.57 56.54
  Q 49.85 71.06 33.82 86.49
  C 33.72 86.58 33.56 86.60 33.42 86.60
  C 33.29 86.60 33.12 86.58 33.02 86.49
  Q 17.03 71.02 9.35 56.48
  Q 4.17 46.67 3.10 37.97
  Q 0.50 16.81 18.96 6.16
  Q 25.26 2.53 33.53 2.54
  Z
  M 26.00 27.07
  Q 25.97 27.09 25.94 27.11
  A 0.16 0.01 -33.2 0 1 25.82 27.18
  L 15.09 27.19
  A 0.38 0.37 -89.7 0 0 14.72 27.56
  Q 14.71 28.59 14.71 34.07
  Q 14.71 39.55 14.72 40.57
  A 0.38 0.37 89.7 0 0 15.09 40.94
  L 25.82 40.95
  A 0.16 0.01 33.2 0 1 25.94 41.02
  Q 25.97 41.04 26.00 41.07
  Q 26.03 41.09 26.05 41.12
  A 0.16 0.01 56.8 0 1 26.11 41.25
  L 26.12 51.98
  A 0.38 0.37 0.3 0 0 26.50 52.35
  Q 27.52 52.36 33.00 52.36
  Q 38.48 52.36 39.50 52.35
  A 0.38 0.37 -0.3 0 0 39.88 51.97
  L 39.89 41.24
  A 0.16 0.01 -56.8 0 1 39.95 41.12
  Q 39.97 41.09 40.00 41.06
  Q 40.03 41.04 40.05 41.02
  A 0.16 0.01 -33.2 0 1 40.18 40.95
  L 50.91 40.94
  A 0.38 0.37 -89.7 0 0 51.28 40.57
  Q 51.29 39.55 51.29 34.06
  Q 51.29 28.58 51.28 27.56
  A 0.38 0.37 89.7 0 0 50.91 27.19
  L 40.18 27.18
  A 0.16 0.01 33.2 0 1 40.05 27.11
  Q 40.02 27.09 40.00 27.07
  Q 39.97 27.04 39.95 27.01
  A 0.16 0.01 56.8 0 1 39.89 26.89
  L 39.88 16.16
  A 0.38 0.37 0.3 0 0 39.50 15.78
  Q 38.48 15.78 33.00 15.78
  Q 27.52 15.78 26.49 15.78
  A 0.38 0.37 -0.3 0 0 26.12 16.16
  L 26.11 26.89
  A 0.16 0.01 -56.8 0 1 26.05 27.01
  Q 26.03 27.04 26.00 27.07
  Z"
/>
<path fill="#f0dfc1" d="
  M 33.00 15.78
  Q 38.48 15.78 39.50 15.78
  A 0.38 0.37 0.3 0 1 39.88 16.16
  L 39.89 26.89
  A 0.16 0.01 56.8 0 0 39.95 27.01
  Q 39.97 27.04 40.00 27.07
  Q 40.02 27.09 40.05 27.11
  A 0.16 0.01 33.2 0 0 40.18 27.18
  L 50.91 27.19
  A 0.38 0.37 89.7 0 1 51.28 27.56
  Q 51.29 28.58 51.29 34.06
  Q 51.29 39.55 51.28 40.57
  A 0.38 0.37 -89.7 0 1 50.91 40.94
  L 40.18 40.95
  A 0.16 0.01 -33.2 0 0 40.05 41.02
  Q 40.03 41.04 40.00 41.06
  Q 39.97 41.09 39.95 41.12
  A 0.16 0.01 -56.8 0 0 39.89 41.24
  L 39.88 51.97
  A 0.38 0.37 -0.3 0 1 39.50 52.35
  Q 38.48 52.36 33.00 52.36
  Q 27.52 52.36 26.50 52.35
  A 0.38 0.37 0.3 0 1 26.12 51.98
  L 26.11 41.25
  A 0.16 0.01 56.8 0 0 26.05 41.12
  Q 26.03 41.09 26.00 41.07
  Q 25.97 41.04 25.94 41.02
  A 0.16 0.01 33.2 0 0 25.82 40.95
  L 15.09 40.94
  A 0.38 0.37 89.7 0 1 14.72 40.57
  Q 14.71 39.55 14.71 34.07
  Q 14.71 28.59 14.72 27.56
  A 0.38 0.37 -89.7 0 1 15.09 27.19
  L 25.82 27.18
  A 0.16 0.01 -33.2 0 0 25.94 27.11
  Q 25.97 27.09 26.00 27.07
  Q 26.03 27.04 26.05 27.01
  A 0.16 0.01 -56.8 0 0 26.11 26.89
  L 26.12 16.16
  A 0.38 0.37 -0.3 0 1 26.49 15.78
  Q 27.52 15.78 33.00 15.78
  Z"
/>
</svg>
