<?xml version="1.0" encoding="UTF-8" standalone="no"?>
<!DOCTYPE svg PUBLIC "-//W3C//DTD SVG 1.1//EN" "http://www.w3.org/Graphics/SVG/1.1/DTD/svg11.dtd">
<svg xmlns="http://www.w3.org/2000/svg" version="1.1" viewBox="0.00 0.00 66.00 88.00">
<g stroke-width="2.00" fill="none" stroke-linecap="butt">
<path stroke="#33662a" vector-effect="non-scaling-stroke" d="
  M 33.40 86.68
  Q 33.54 86.68 33.67 86.65
  A 0.08 0.06 -65.5 0 0 33.72 86.63
  Q 47.56 73.62 56.49 58.52
  C 63.82 46.12 68.21 29.10 59.29 16.25
  Q 50.16 3.10 33.75 2.48
  Q 33.57 2.47 33.54 2.47
  Q 33.50 2.47 33.32 2.48
  Q 16.91 3.05 7.74 16.17
  C -1.22 28.99 3.11 46.03 10.41 58.45
  Q 19.29 73.58 33.09 86.63
  A 0.08 0.06 65.7 0 0 33.13 86.65
  Q 33.27 86.68 33.40 86.68"
/>
<path stroke="#9ab27d" vector-effect="non-scaling-stroke" d="
  M 51.28 33.99
  A 18.29 18.29 0.0 0 0 32.99 15.70
  A 18.29 18.29 0.0 0 0 14.70 33.99
  A 18.29 18.29 0.0 0 0 32.99 52.28
  A 18.29 18.29 0.0 0 0 51.28 33.99"
/>
<path stroke="#9ab27d" vector-effect="non-scaling-stroke" d="
  M 32.88 28.77
  A 4.26 4.26 0.0 0 0 28.62 24.51
  A 4.26 4.26 0.0 0 0 24.36 28.77
  A 4.26 4.26 0.0 0 0 28.62 33.03
  A 4.26 4.26 0.0 0 0 32.88 28.77"
/>
<path stroke="#9ab27d" vector-effect="non-scaling-stroke" d="
  M 43.11 30.76
  A 3.47 3.47 0.0 0 0 39.64 27.29
  A 3.47 3.47 0.0 0 0 36.17 30.76
  A 3.47 3.47 0.0 0 0 39.64 34.23
  A 3.47 3.47 0.0 0 0 43.11 30.76"
/>
<path stroke="#9ab27d" vector-effect="non-scaling-stroke" d="
  M 28.65 47.23
  Q 28.61 46.96 28.73 41.01
  Q 28.79 38.16 31.50 36.73
  A 0.41 0.41 0.0 0 0 31.36 35.96
  Q 25.08 35.21 19.97 38.02
  A 1.28 1.27 -27.1 0 0 19.43 39.68
  Q 22.11 45.37 28.06 47.69
  A 0.44 0.44 0.0 0 0 28.65 47.23"
/>
<path stroke="#9ab27d" vector-effect="non-scaling-stroke" d="
  M 32.21 48.60
  C 38.43 49.03 43.87 45.23 46.50 39.77
  A 0.61 0.61 0.0 0 0 46.24 38.96
  Q 41.64 36.49 36.19 37.73
  Q 32.65 38.53 31.73 40.18
  A 1.20 1.19 59.7 0 0 31.58 40.76
  L 31.58 47.93
  A 0.67 0.67 0.0 0 0 32.21 48.60"
/>
</g>
<path fill="#21461b" d="
  M 33.80 88.00
  L 33.04 88.00
  C 21.69 77.68 12.11 65.67 5.62 51.40
  Q 2.10 43.68 1.57 34.83
  C 0.60 18.92 11.07 5.90 26.39 2.10
  C 37.13 -0.56 49.57 3.28 57.15 11.65
  Q 67.90 23.53 64.80 40.00
  Q 62.46 52.40 54.57 64.07
  Q 45.67 77.20 33.80 88.00
  Z
  M 33.40 86.68
  Q 33.54 86.68 33.67 86.65
  A 0.08 0.06 -65.5 0 0 33.72 86.63
  Q 47.56 73.62 56.49 58.52
  C 63.82 46.12 68.21 29.10 59.29 16.25
  Q 50.16 3.10 33.75 2.48
  Q 33.57 2.47 33.54 2.47
  Q 33.50 2.47 33.32 2.48
  Q 16.91 3.05 7.74 16.17
  C -1.22 28.99 3.11 46.03 10.41 58.45
  Q 19.29 73.58 33.09 86.63
  A 0.08 0.06 65.7 0 0 33.13 86.65
  Q 33.27 86.68 33.40 86.68
  Z"
/>
<path fill="#448538" d="
  M 33.54 2.47
  Q 33.57 2.47 33.75 2.48
  Q 50.16 3.10 59.29 16.25
  C 68.21 29.10 63.82 46.12 56.49 58.52
  Q 47.56 73.62 33.72 86.63
  A 0.08 0.06 -65.5 0 1 33.67 86.65
  Q 33.54 86.68 33.40 86.68
  Q 33.27 86.68 33.13 86.65
  A 0.08 0.06 65.7 0 1 33.09 86.63
  Q 19.29 73.58 10.41 58.45
  C 3.11 46.03 -1.22 28.99 7.74 16.17
  Q 16.91 3.05 33.32 2.48
  Q 33.50 2.47 33.54 2.47
  Z
  M 51.28 33.99
  A 18.29 18.29 0.0 0 0 32.99 15.70
  A 18.29 18.29 0.0 0 0 14.70 33.99
  A 18.29 18.29 0.0 0 0 32.99 52.28
  A 18.29 18.29 0.0 0 0 51.28 33.99
  Z"
/>
<path fill="#f0dfc1" d="
  M 51.28 33.99
  A 18.29 18.29 0.0 0 1 32.99 52.28
  A 18.29 18.29 0.0 0 1 14.70 33.99
  A 18.29 18.29 0.0 0 1 32.99 15.70
  A 18.29 18.29 0.0 0 1 51.28 33.99
  Z
  M 32.88 28.77
  A 4.26 4.26 0.0 0 0 28.62 24.51
  A 4.26 4.26 0.0 0 0 24.36 28.77
  A 4.26 4.26 0.0 0 0 28.62 33.03
  A 4.26 4.26 0.0 0 0 32.88 28.77
  Z
  M 43.11 30.76
  A 3.47 3.47 0.0 0 0 39.64 27.29
  A 3.47 3.47 0.0 0 0 36.17 30.76
  A 3.47 3.47 0.0 0 0 39.64 34.23
  A 3.47 3.47 0.0 0 0 43.11 30.76
  Z
  M 28.65 47.23
  Q 28.61 46.96 28.73 41.01
  Q 28.79 38.16 31.50 36.73
  A 0.41 0.41 0.0 0 0 31.36 35.96
  Q 25.08 35.21 19.97 38.02
  A 1.28 1.27 -27.1 0 0 19.43 39.68
  Q 22.11 45.37 28.06 47.69
  A 0.44 0.44 0.0 0 0 28.65 47.23
  Z
  M 32.21 48.60
  C 38.43 49.03 43.87 45.23 46.50 39.77
  A 0.61 0.61 0.0 0 0 46.24 38.96
  Q 41.64 36.49 36.19 37.73
  Q 32.65 38.53 31.73 40.18
  A 1.20 1.19 59.7 0 0 31.58 40.76
  L 31.58 47.93
  A 0.67 0.67 0.0 0 0 32.21 48.60
  Z"
/>
<circle fill="#448538" cx="28.62" cy="28.77" r="4.26"/>
<circle fill="#448538" cx="39.64" cy="30.76" r="3.47"/>
<path fill="#448538" d="
  M 28.06 47.69
  Q 22.11 45.37 19.43 39.68
  A 1.28 1.27 -27.1 0 1 19.97 38.02
  Q 25.08 35.21 31.36 35.96
  A 0.41 0.41 0.0 0 1 31.50 36.73
  Q 28.79 38.16 28.73 41.01
  Q 28.61 46.96 28.65 47.23
  A 0.44 0.44 0.0 0 1 28.06 47.69
  Z"
/>
<path fill="#448538" d="
  M 31.58 47.93
  L 31.58 40.76
  A 1.20 1.19 59.7 0 1 31.73 40.18
  Q 32.65 38.53 36.19 37.73
  Q 41.64 36.49 46.24 38.96
  A 0.61 0.61 0.0 0 1 46.50 39.77
  C 43.87 45.23 38.43 49.03 32.21 48.60
  A 0.67 0.67 0.0 0 1 31.58 47.93
  Z"
/>
</svg>
