<?xml version="1.0" encoding="UTF-8" standalone="no"?>
<!DOCTYPE svg PUBLIC "-//W3C//DTD SVG 1.1//EN" "http://www.w3.org/Graphics/SVG/1.1/DTD/svg11.dtd">
<svg xmlns="http://www.w3.org/2000/svg" version="1.1" viewBox="0.00 0.00 66.00 88.00">
<g stroke-width="2.00" fill="none" stroke-linecap="butt">
<path stroke="#21303f" vector-effect="non-scaling-stroke" d="
  M 33.42 86.59
  C 34.19 86.59 33.56 86.65 33.78 86.44
  C 46.50 74.72 60.81 57.00 63.62 39.87
  Q 67.22 17.86 48.83 6.61
  Q 42.14 2.52 33.51 2.51
  Q 24.88 2.50 18.18 6.58
  Q -0.23 17.79 3.32 39.80
  C 6.10 56.94 20.37 74.69 33.06 86.44
  C 33.29 86.65 32.65 86.59 33.42 86.59"
/>
<path stroke="#969c9f" vector-effect="non-scaling-stroke" d="
  M 44.57 33.98
  L 39.20 47.98
  A 0.80 0.79 -79.1 0 1 38.46 48.49
  L 34.10 48.49
  A 0.54 0.54 0.0 0 1 33.56 47.95
  L 33.56 19.14
  A 1.28 1.28 0.0 0 1 34.20 18.03
  L 37.11 16.35
  A 0.32 0.32 0.0 0 0 36.96 15.75
  L 21.79 15.75
  A 0.33 0.33 0.0 0 0 21.63 16.37
  L 24.59 18.08
  A 1.21 1.21 0.0 0 1 25.20 19.13
  L 25.20 48.87
  A 1.21 1.20 -15.2 0 1 24.60 49.91
  L 21.56 51.67
  A 0.31 0.30 -59.9 0 0 21.71 52.24
  L 44.38 52.24
  A 0.58 0.58 0.0 0 0 44.96 51.66
  L 44.96 34.05
  A 0.20 0.20 0.0 0 0 44.57 33.98"
/>
<path stroke="#969c9f" vector-effect="non-scaling-stroke" d="
  M 28.70 29.67
  L 29.90 29.69
  A 0.18 0.18 0.0 0 0 30.09 29.51
  L 30.09 29.36
  A 9.19 0.68 -89.2 0 0 29.54 20.16
  L 29.34 20.16
  A 9.19 0.68 -89.2 0 0 28.53 29.34
  L 28.53 29.49
  A 0.18 0.18 0.0 0 0 28.70 29.67"
/>
<path stroke="#969c9f" vector-effect="non-scaling-stroke" d="
  M 29.3645 32.6200
  A 1.30 0.93 -89.8 0 0 28.4300 33.9168
  A 1.30 0.93 -89.8 0 0 29.3555 35.2200
  A 1.30 0.93 -89.8 0 0 30.2900 33.9232
  A 1.30 0.93 -89.8 0 0 29.3645 32.6200"
/>
<path stroke="#969c9f" vector-effect="non-scaling-stroke" d="
  M 29.99 38.36
  L 28.69 38.36
  A 0.16 0.16 0.0 0 0 28.53 38.52
  L 28.53 38.66
  A 9.16 0.81 89.7 0 0 29.38 47.82
  A 9.16 0.81 89.7 0 0 30.15 38.66
  L 30.15 38.52
  A 0.16 0.16 0.0 0 0 29.99 38.36"
/>
</g>
<path fill="#16212b" d="
  M 33.81 88.00
  L 33.15 88.00
  Q 15.62 72.49 6.00 52.51
  Q 2.27 44.77 1.62 35.11
  Q 0.96 25.49 5.39 17.76
  C 18.44 -5.01 52.01 -4.11 62.97 20.58
  C 66.64 28.86 65.93 38.66 63.04 47.01
  C 57.65 62.61 45.95 76.91 33.81 88.00
  Z
  M 33.42 86.59
  C 34.19 86.59 33.56 86.65 33.78 86.44
  C 46.50 74.72 60.81 57.00 63.62 39.87
  Q 67.22 17.86 48.83 6.61
  Q 42.14 2.52 33.51 2.51
  Q 24.88 2.50 18.18 6.58
  Q -0.23 17.79 3.32 39.80
  C 6.10 56.94 20.37 74.69 33.06 86.44
  C 33.29 86.65 32.65 86.59 33.42 86.59
  Z"
/>
<path fill="#2c3f52" d="
  M 33.51 2.51
  Q 42.14 2.52 48.83 6.61
  Q 67.22 17.86 63.62 39.87
  C 60.81 57.00 46.50 74.72 33.78 86.44
  C 33.56 86.65 34.19 86.59 33.42 86.59
  C 32.65 86.59 33.29 86.65 33.06 86.44
  C 20.37 74.69 6.10 56.94 3.32 39.80
  Q -0.23 17.79 18.18 6.58
  Q 24.88 2.50 33.51 2.51
  Z
  M 44.57 33.98
  L 39.20 47.98
  A 0.80 0.79 -79.1 0 1 38.46 48.49
  L 34.10 48.49
  A 0.54 0.54 0.0 0 1 33.56 47.95
  L 33.56 19.14
  A 1.28 1.28 0.0 0 1 34.20 18.03
  L 37.11 16.35
  A 0.32 0.32 0.0 0 0 36.96 15.75
  L 21.79 15.75
  A 0.33 0.33 0.0 0 0 21.63 16.37
  L 24.59 18.08
  A 1.21 1.21 0.0 0 1 25.20 19.13
  L 25.20 48.87
  A 1.21 1.20 -15.2 0 1 24.60 49.91
  L 21.56 51.67
  A 0.31 0.30 -59.9 0 0 21.71 52.24
  L 44.38 52.24
  A 0.58 0.58 0.0 0 0 44.96 51.66
  L 44.96 34.05
  A 0.20 0.20 0.0 0 0 44.57 33.98
  Z"
/>
<path fill="#fff8ec" d="
  M 44.57 33.98
  A 0.20 0.20 0.0 0 1 44.96 34.05
  L 44.96 51.66
  A 0.58 0.58 0.0 0 1 44.38 52.24
  L 21.71 52.24
  A 0.31 0.30 -59.9 0 1 21.56 51.67
  L 24.60 49.91
  A 1.21 1.20 -15.2 0 0 25.20 48.87
  L 25.20 19.13
  A 1.21 1.21 0.0 0 0 24.59 18.08
  L 21.63 16.37
  A 0.33 0.33 0.0 0 1 21.79 15.75
  L 36.96 15.75
  A 0.32 0.32 0.0 0 1 37.11 16.35
  L 34.20 18.03
  A 1.28 1.28 0.0 0 0 33.56 19.14
  L 33.56 47.95
  A 0.54 0.54 0.0 0 0 34.10 48.49
  L 38.46 48.49
  A 0.80 0.79 -79.1 0 0 39.20 47.98
  L 44.57 33.98
  Z
  M 28.70 29.67
  L 29.90 29.69
  A 0.18 0.18 0.0 0 0 30.09 29.51
  L 30.09 29.36
  A 9.19 0.68 -89.2 0 0 29.54 20.16
  L 29.34 20.16
  A 9.19 0.68 -89.2 0 0 28.53 29.34
  L 28.53 29.49
  A 0.18 0.18 0.0 0 0 28.70 29.67
  Z
  M 29.3645 32.6200
  A 1.30 0.93 -89.8 0 0 28.4300 33.9168
  A 1.30 0.93 -89.8 0 0 29.3555 35.2200
  A 1.30 0.93 -89.8 0 0 30.2900 33.9232
  A 1.30 0.93 -89.8 0 0 29.3645 32.6200
  Z
  M 29.99 38.36
  L 28.69 38.36
  A 0.16 0.16 0.0 0 0 28.53 38.52
  L 28.53 38.66
  A 9.16 0.81 89.7 0 0 29.38 47.82
  A 9.16 0.81 89.7 0 0 30.15 38.66
  L 30.15 38.52
  A 0.16 0.16 0.0 0 0 29.99 38.36
  Z"
/>
<path fill="#2c3f52" d="
  M 28.70 29.67
  A 0.18 0.18 0.0 0 1 28.53 29.49
  L 28.53 29.34
  A 9.19 0.68 -89.2 0 1 29.34 20.16
  L 29.54 20.16
  A 9.19 0.68 -89.2 0 1 30.09 29.36
  L 30.09 29.51
  A 0.18 0.18 0.0 0 1 29.90 29.69
  L 28.70 29.67
  Z"
/>
<ellipse fill="#2c3f52" cx="0.00" cy="0.00" transform="translate(29.36,33.92) rotate(-89.8)" rx="1.30" ry="0.93"/>
<path fill="#2c3f52" d="
  M 29.99 38.36
  A 0.16 0.16 0.0 0 1 30.15 38.52
  L 30.15 38.66
  A 9.16 0.81 89.7 0 1 29.38 47.82
  A 9.16 0.81 89.7 0 1 28.53 38.66
  L 28.53 38.52
  A 0.16 0.16 0.0 0 1 28.69 38.36
  L 29.99 38.36
  Z"
/>
</svg>
