<?xml version="1.0" encoding="UTF-8" standalone="no"?>
<!DOCTYPE svg PUBLIC "-//W3C//DTD SVG 1.1//EN" "http://www.w3.org/Graphics/SVG/1.1/DTD/svg11.dtd">
<svg xmlns="http://www.w3.org/2000/svg" version="1.1" viewBox="0.00 0.00 66.00 88.00">
<g stroke-width="2.00" fill="none" stroke-linecap="butt">
<path stroke="#428270" vector-effect="non-scaling-stroke" d="
  M 33.40 86.73
  Q 33.48 86.73 33.64 86.59
  Q 47.37 74.04 56.65 58.20
  Q 62.17 48.80 63.83 38.77
  C 67.03 19.41 53.25 3.00 33.75 2.46
  Q 33.64 2.45 33.54 2.45
  Q 33.43 2.45 33.33 2.46
  C 13.83 2.93 -0.01 19.30 3.13 38.67
  Q 4.75 48.70 10.24 58.12
  Q 19.47 73.99 33.16 86.59
  Q 33.31 86.73 33.40 86.73"
/>
<path stroke="#add5c4" vector-effect="non-scaling-stroke" d="
  M 35.87 36.91
  C 30.08 42.70 20.89 42.16 15.29 36.15
  A 0.24 0.24 0.0 0 0 14.88 36.32
  Q 15.00 38.95 15.74 40.49
  Q 22.24 54.00 36.51 51.92
  Q 41.66 51.16 45.89 46.93
  Q 50.12 42.71 50.87 37.55
  Q 52.96 23.28 39.45 16.78
  Q 37.91 16.04 35.28 15.92
  A 0.24 0.24 0.0 0 0 35.10 16.33
  C 41.12 21.93 41.65 31.13 35.87 36.91"
/>
</g>
<path fill="#2a584b" d="
  M 33.80 88.00
  L 33.13 88.00
  Q 15.43 72.28 5.96 52.53
  Q 3.47 47.33 2.04 39.24
  Q 0.52 30.59 3.17 22.75
  C 8.36 7.39 24.61 -1.30 40.29 2.04
  C 50.32 4.18 58.64 10.88 62.90 20.39
  C 66.90 29.29 65.84 40.14 62.33 49.05
  C 56.47 63.92 45.55 77.30 33.80 88.00
  Z
  M 33.40 86.73
  Q 33.48 86.73 33.64 86.59
  Q 47.37 74.04 56.65 58.20
  Q 62.17 48.80 63.83 38.77
  C 67.03 19.41 53.25 3.00 33.75 2.46
  Q 33.64 2.45 33.54 2.45
  Q 33.43 2.45 33.33 2.46
  C 13.83 2.93 -0.01 19.30 3.13 38.67
  Q 4.75 48.70 10.24 58.12
  Q 19.47 73.99 33.16 86.59
  Q 33.31 86.73 33.40 86.73
  Z"
/>
<path fill="#5aab95" d="
  M 33.54 2.45
  Q 33.64 2.45 33.75 2.46
  C 53.25 3.00 67.03 19.41 63.83 38.77
  Q 62.17 48.80 56.65 58.20
  Q 47.37 74.04 33.64 86.59
  Q 33.48 86.73 33.40 86.73
  Q 33.31 86.73 33.16 86.59
  Q 19.47 73.99 10.24 58.12
  Q 4.75 48.70 3.13 38.67
  C -0.01 19.30 13.83 2.93 33.33 2.46
  Q 33.43 2.45 33.54 2.45
  Z
  M 35.87 36.91
  C 30.08 42.70 20.89 42.16 15.29 36.15
  A 0.24 0.24 0.0 0 0 14.88 36.32
  Q 15.00 38.95 15.74 40.49
  Q 22.24 54.00 36.51 51.92
  Q 41.66 51.16 45.89 46.93
  Q 50.12 42.71 50.87 37.55
  Q 52.96 23.28 39.45 16.78
  Q 37.91 16.04 35.28 15.92
  A 0.24 0.24 0.0 0 0 35.10 16.33
  C 41.12 21.93 41.65 31.13 35.87 36.91
  Z"
/>
<path fill="#fffef2" d="
  M 45.89 46.93
  Q 41.66 51.16 36.51 51.92
  Q 22.24 54.00 15.74 40.49
  Q 15.00 38.95 14.88 36.32
  A 0.24 0.24 0.0 0 1 15.29 36.15
  C 20.89 42.16 30.08 42.70 35.87 36.91
  C 41.65 31.13 41.12 21.93 35.10 16.33
  A 0.24 0.24 0.0 0 1 35.28 15.92
  Q 37.91 16.04 39.45 16.78
  Q 52.96 23.28 50.87 37.55
  Q 50.12 42.71 45.89 46.93
  Z"
/>
</svg>
