<?xml version="1.0" encoding="UTF-8" standalone="no"?>
<!DOCTYPE svg PUBLIC "-//W3C//DTD SVG 1.1//EN" "http://www.w3.org/Graphics/SVG/1.1/DTD/svg11.dtd">
<svg xmlns="http://www.w3.org/2000/svg" version="1.1" viewBox="0.00 0.00 50.00 50.00">
<g stroke-width="2.00" fill="none" stroke-linecap="butt">
<path stroke="#a4c2c2" vector-effect="non-scaling-stroke" d="
  M 24.97 22.96
  Q 27.53 22.97 29.84 23.38
  A 2.23 2.20 -24.5 0 1 30.55 23.64
  Q 32.37 24.67 35.31 24.83
  A 1.65 1.65 0.0 0 0 37.05 23.17
  C 36.98 16.12 31.83 11.79 24.99 11.78
  C 18.16 11.77 12.99 16.08 12.90 23.13
  A 1.65 1.65 0.0 0 0 14.63 24.80
  Q 17.57 24.65 19.40 23.62
  A 2.23 2.20 24.7 0 1 20.10 23.37
  Q 22.42 22.96 24.97 22.96"
/>
<path stroke="#a4c2c2" vector-effect="non-scaling-stroke" d="
  M 24.98 38.28
  Q 26.31 38.28 27.43 37.94
  A 1.53 1.53 0.0 0 0 28.19 35.53
  C 26.63 33.55 27.17 29.05 27.20 26.66
  A 0.80 0.80 0.0 0 0 26.54 25.86
  Q 25.78 25.72 24.99 25.71
  Q 24.20 25.71 23.44 25.85
  A 0.80 0.80 0.0 0 0 22.78 26.66
  C 22.80 29.05 23.33 33.55 21.77 35.52
  A 1.53 1.53 0.0 0 0 22.52 37.94
  Q 23.65 38.28 24.98 38.28"
/>
<path stroke="#a4c2c2" vector-effect="non-scaling-stroke" d="
  M 31.2493 16.4845
  A 1.34 1.17 -109.2 0 0 30.5851 18.1348
  A 1.34 1.17 -109.2 0 0 32.1307 19.0155
  A 1.34 1.17 -109.2 0 0 32.7949 17.3652
  A 1.34 1.17 -109.2 0 0 31.2493 16.4845"
/>
<path stroke="#a4c2c2" vector-effect="non-scaling-stroke" d="
  M 29.67 19.58
  A 1.18 1.18 0.0 0 0 28.49 18.40
  A 1.18 1.18 0.0 0 0 27.31 19.58
  A 1.18 1.18 0.0 0 0 28.49 20.76
  A 1.18 1.18 0.0 0 0 29.67 19.58"
/>
</g>
<path fill="#498c97" d="
  M 50.00 23.67
  L 50.00 27.25
  Q 46.84 46.79 27.33 50.00
  L 23.75 50.00
  C 21.67 49.37 19.25 49.21 17.44 48.49
  Q 2.55 42.61 1.01 25.99
  C 0.77 23.43 2.05 18.21 3.33 15.50
  C 8.80 3.88 21.82 -1.85 33.89 2.67
  Q 44.57 6.67 48.85 18.31
  A 0.62 0.46 36.7 0 1 48.88 18.41
  L 50.00 23.67
  Z
  M 24.97 22.96
  Q 27.53 22.97 29.84 23.38
  A 2.23 2.20 -24.5 0 1 30.55 23.64
  Q 32.37 24.67 35.31 24.83
  A 1.65 1.65 0.0 0 0 37.05 23.17
  C 36.98 16.12 31.83 11.79 24.99 11.78
  C 18.16 11.77 12.99 16.08 12.90 23.13
  A 1.65 1.65 0.0 0 0 14.63 24.80
  Q 17.57 24.65 19.40 23.62
  A 2.23 2.20 24.7 0 1 20.10 23.37
  Q 22.42 22.96 24.97 22.96
  Z
  M 24.98 38.28
  Q 26.31 38.28 27.43 37.94
  A 1.53 1.53 0.0 0 0 28.19 35.53
  C 26.63 33.55 27.17 29.05 27.20 26.66
  A 0.80 0.80 0.0 0 0 26.54 25.86
  Q 25.78 25.72 24.99 25.71
  Q 24.20 25.71 23.44 25.85
  A 0.80 0.80 0.0 0 0 22.78 26.66
  C 22.80 29.05 23.33 33.55 21.77 35.52
  A 1.53 1.53 0.0 0 0 22.52 37.94
  Q 23.65 38.28 24.98 38.28
  Z"
/>
<path fill="#fff8ec" d="
  M 24.99 11.78
  C 31.83 11.79 36.98 16.12 37.05 23.17
  A 1.65 1.65 0.0 0 1 35.31 24.83
  Q 32.37 24.67 30.55 23.64
  A 2.23 2.20 -24.5 0 0 29.84 23.38
  Q 27.53 22.97 24.97 22.96
  Q 22.42 22.96 20.10 23.37
  A 2.23 2.20 24.7 0 0 19.40 23.62
  Q 17.57 24.65 14.63 24.80
  A 1.65 1.65 0.0 0 1 12.90 23.13
  C 12.99 16.08 18.16 11.77 24.99 11.78
  Z
  M 31.2493 16.4845
  A 1.34 1.17 -109.2 0 0 30.5851 18.1348
  A 1.34 1.17 -109.2 0 0 32.1307 19.0155
  A 1.34 1.17 -109.2 0 0 32.7949 17.3652
  A 1.34 1.17 -109.2 0 0 31.2493 16.4845
  Z
  M 29.67 19.58
  A 1.18 1.18 0.0 0 0 28.49 18.40
  A 1.18 1.18 0.0 0 0 27.31 19.58
  A 1.18 1.18 0.0 0 0 28.49 20.76
  A 1.18 1.18 0.0 0 0 29.67 19.58
  Z"
/>
<ellipse fill="#498c97" cx="0.00" cy="0.00" transform="translate(31.69,17.75) rotate(-109.2)" rx="1.34" ry="1.17"/>
<circle fill="#498c97" cx="28.49" cy="19.58" r="1.18"/>
<path fill="#fff8ec" d="
  M 24.99 25.71
  Q 25.78 25.72 26.54 25.86
  A 0.80 0.80 0.0 0 1 27.20 26.66
  C 27.17 29.05 26.63 33.55 28.19 35.53
  A 1.53 1.53 0.0 0 1 27.43 37.94
  Q 26.31 38.28 24.98 38.28
  Q 23.65 38.28 22.52 37.94
  A 1.53 1.53 0.0 0 1 21.77 35.52
  C 23.33 33.55 22.80 29.05 22.78 26.66
  A 0.80 0.80 0.0 0 1 23.44 25.85
  Q 24.20 25.71 24.99 25.71
  Z"
/>
</svg>
