<?xml version="1.0" encoding="UTF-8" standalone="no"?>
<!DOCTYPE svg PUBLIC "-//W3C//DTD SVG 1.1//EN" "http://www.w3.org/Graphics/SVG/1.1/DTD/svg11.dtd">
<svg xmlns="http://www.w3.org/2000/svg" version="1.1" viewBox="0.00 0.00 66.00 88.00">
<g stroke-width="2.00" fill="none" stroke-linecap="butt">
<path stroke="#323231" vector-effect="non-scaling-stroke" d="
  M 33.43 86.56
  C 34.15 86.56 33.57 86.62 33.79 86.41
  Q 47.30 74.00 56.39 58.67
  C 63.90 46.00 67.93 29.54 59.53 16.69
  C 53.73 7.82 44.14 2.58 33.51 2.56
  C 22.89 2.55 13.29 7.78 7.47 16.64
  C -0.96 29.47 3.04 45.94 10.52 58.62
  Q 19.58 73.97 33.07 86.41
  C 33.29 86.62 32.71 86.56 33.43 86.56"
/>
<path stroke="#a0a09a" vector-effect="non-scaling-stroke" d="
  M 32.76 49.66
  Q 34.23 49.66 35.71 49.47
  A 1.93 1.92 16.9 0 0 36.92 48.83
  Q 37.85 47.79 38.33 47.59
  A 0.82 0.82 0.0 0 0 38.80 46.61
  L 37.52 42.06
  A 3.56 3.56 0.0 0 1 38.09 38.96
  L 42.92 32.41
  A 1.85 1.85 0.0 0 0 43.01 30.37
  L 40.44 26.16
  A 0.86 0.70 31.2 0 1 40.33 25.85
  Q 40.20 24.73 41.57 24.77
  A 0.46 0.45 5.9 0 0 42.03 24.40
  L 42.51 21.54
  A 0.62 0.62 0.0 0 0 41.80 20.83
  Q 38.79 21.34 36.77 24.22
  Q 36.66 24.38 36.41 24.44
  Q 36.06 24.53 36.04 24.53
  A 0.83 0.82 10.1 0 1 35.28 23.44
  L 36.53 19.66
  A 0.46 0.45 -66.4 0 0 36.33 19.13
  Q 35.44 18.61 34.37 20.16
  A 0.35 0.35 0.0 0 1 33.74 20.04
  Q 33.35 18.38 32.75 18.38
  Q 32.16 18.38 31.77 20.04
  A 0.35 0.35 0.0 0 1 31.14 20.16
  Q 30.07 18.61 29.18 19.13
  A 0.46 0.45 66.3 0 0 28.98 19.66
  L 30.23 23.44
  A 0.83 0.82 -10.2 0 1 29.47 24.53
  Q 29.45 24.53 29.10 24.44
  Q 28.85 24.38 28.74 24.22
  Q 26.72 21.34 23.71 20.83
  A 0.62 0.62 0.0 0 0 23.00 21.55
  L 23.48 24.40
  A 0.46 0.45 -5.9 0 0 23.94 24.77
  Q 25.31 24.73 25.18 25.85
  A 0.86 0.70 -31.2 0 1 25.07 26.16
  L 22.51 30.38
  A 1.85 1.85 0.0 0 0 22.60 32.42
  L 27.43 38.96
  A 3.56 3.56 0.0 0 1 28.00 42.06
  L 26.72 46.61
  A 0.82 0.82 0.0 0 0 27.19 47.59
  Q 27.67 47.79 28.60 48.83
  A 1.93 1.92 -16.9 0 0 29.81 49.47
  Q 31.29 49.66 32.76 49.66"
/>
<path stroke="#a0a09a" vector-effect="non-scaling-stroke" d="
  M 19.39 25.85
  A 0.33 0.33 0.0 0 1 19.17 25.63
  L 18.51 23.60
  A 0.33 0.33 0.0 0 0 17.89 23.60
  L 17.23 25.63
  A 0.33 0.33 0.0 0 1 17.01 25.85
  L 14.98 26.51
  A 0.33 0.33 0.0 0 0 14.98 27.13
  L 17.01 27.79
  A 0.33 0.33 0.0 0 1 17.23 28.01
  L 17.89 30.04
  A 0.33 0.33 0.0 0 0 18.51 30.04
  L 19.17 28.01
  A 0.33 0.33 0.0 0 1 19.39 27.79
  L 21.42 27.13
  A 0.33 0.33 0.0 0 0 21.42 26.51
  L 19.39 25.85"
/>
<path stroke="#a0a09a" vector-effect="non-scaling-stroke" d="
  M 47.53 39.12
  A 0.32 0.32 0.0 0 1 47.33 38.92
  L 46.13 35.43
  A 0.32 0.32 0.0 0 0 45.53 35.43
  L 44.34 38.93
  A 0.32 0.32 0.0 0 1 44.14 39.13
  L 40.65 40.33
  A 0.32 0.32 0.0 0 0 40.65 40.93
  L 44.15 42.12
  A 0.32 0.32 0.0 0 1 44.35 42.32
  L 45.55 45.81
  A 0.32 0.32 0.0 0 0 46.15 45.81
  L 47.34 42.31
  A 0.32 0.32 0.0 0 1 47.54 42.11
  L 51.03 40.91
  A 0.32 0.32 0.0 0 0 51.03 40.31
  L 47.53 39.12"
/>
<path stroke="#a0a09a" vector-effect="non-scaling-stroke" d="
  M 32.38 39.49
  A 0.27 0.27 0.0 0 0 32.90 39.43
  L 34.42 30.37
  A 1.93 1.91 -18.2 0 1 34.94 29.35
  L 35.78 28.52
  A 0.93 0.93 0.0 0 0 35.57 27.04
  Q 34.39 26.40 33.61 25.23
  A 1.07 1.07 0.0 0 0 31.97 25.06
  L 29.51 27.53
  A 0.55 0.55 0.0 0 0 29.53 28.32
  Q 31.19 29.85 31.50 32.54
  Q 32.29 39.25 32.38 39.49"
/>
<path stroke="#a0a09a" vector-effect="non-scaling-stroke" d="
  M 25.3161 30.2850
  A 2.30 1.39 -137.8 0 0 26.0863 32.8597
  A 2.30 1.39 -137.8 0 0 28.7239 33.3750
  A 2.30 1.39 -137.8 0 0 27.9537 30.8003
  A 2.30 1.39 -137.8 0 0 25.3161 30.2850"
/>
<path stroke="#a0a09a" vector-effect="non-scaling-stroke" d="
  M 40.1597 30.3103
  A 2.28 1.37 -41.8 0 0 37.5469 30.8087
  A 2.28 1.37 -41.8 0 0 36.7603 33.3497
  A 2.28 1.37 -41.8 0 0 39.3731 32.8513
  A 2.28 1.37 -41.8 0 0 40.1597 30.3103"
/>
<path stroke="#a0a09a" vector-effect="non-scaling-stroke" d="
  M 32.76 48.01
  C 33.31 48.00 34.39 47.34 35.45 46.74
  A 0.39 0.39 0.0 0 0 35.43 46.05
  Q 33.72 45.22 32.89 42.75
  A 0.17 0.11 77.0 0 0 32.77 42.63
  Q 32.75 42.63 32.74 42.63
  Q 32.73 42.63 32.71 42.63
  A 0.17 0.11 -77.4 0 0 32.58 42.75
  Q 31.77 45.23 30.07 46.07
  A 0.39 0.39 0.0 0 0 30.06 46.76
  C 31.12 47.35 32.20 48.01 32.76 48.01"
/>
</g>
<path fill="#222321" d="
  M 33.81 88.00
  L 33.03 88.00
  C 16.61 73.07 -6.70 43.76 4.31 19.87
  C 12.29 2.55 34.13 -4.09 50.44 6.14
  Q 62.31 13.60 64.91 27.04
  C 69.21 49.27 49.10 74.04 33.81 88.00
  Z
  M 33.43 86.56
  C 34.15 86.56 33.57 86.62 33.79 86.41
  Q 47.30 74.00 56.39 58.67
  C 63.90 46.00 67.93 29.54 59.53 16.69
  C 53.73 7.82 44.14 2.58 33.51 2.56
  C 22.89 2.55 13.29 7.78 7.47 16.64
  C -0.96 29.47 3.04 45.94 10.52 58.62
  Q 19.58 73.97 33.07 86.41
  C 33.29 86.62 32.71 86.56 33.43 86.56
  Z"
/>
<path fill="#414141" d="
  M 33.51 2.56
  C 44.14 2.58 53.73 7.82 59.53 16.69
  C 67.93 29.54 63.90 46.00 56.39 58.67
  Q 47.30 74.00 33.79 86.41
  C 33.57 86.62 34.15 86.56 33.43 86.56
  C 32.71 86.56 33.29 86.62 33.07 86.41
  Q 19.58 73.97 10.52 58.62
  C 3.04 45.94 -0.96 29.47 7.47 16.64
  C 13.29 7.78 22.89 2.55 33.51 2.56
  Z
  M 32.76 49.66
  Q 34.23 49.66 35.71 49.47
  A 1.93 1.92 16.9 0 0 36.92 48.83
  Q 37.85 47.79 38.33 47.59
  A 0.82 0.82 0.0 0 0 38.80 46.61
  L 37.52 42.06
  A 3.56 3.56 0.0 0 1 38.09 38.96
  L 42.92 32.41
  A 1.85 1.85 0.0 0 0 43.01 30.37
  L 40.44 26.16
  A 0.86 0.70 31.2 0 1 40.33 25.85
  Q 40.20 24.73 41.57 24.77
  A 0.46 0.45 5.9 0 0 42.03 24.40
  L 42.51 21.54
  A 0.62 0.62 0.0 0 0 41.80 20.83
  Q 38.79 21.34 36.77 24.22
  Q 36.66 24.38 36.41 24.44
  Q 36.06 24.53 36.04 24.53
  A 0.83 0.82 10.1 0 1 35.28 23.44
  L 36.53 19.66
  A 0.46 0.45 -66.4 0 0 36.33 19.13
  Q 35.44 18.61 34.37 20.16
  A 0.35 0.35 0.0 0 1 33.74 20.04
  Q 33.35 18.38 32.75 18.38
  Q 32.16 18.38 31.77 20.04
  A 0.35 0.35 0.0 0 1 31.14 20.16
  Q 30.07 18.61 29.18 19.13
  A 0.46 0.45 66.3 0 0 28.98 19.66
  L 30.23 23.44
  A 0.83 0.82 -10.2 0 1 29.47 24.53
  Q 29.45 24.53 29.10 24.44
  Q 28.85 24.38 28.74 24.22
  Q 26.72 21.34 23.71 20.83
  A 0.62 0.62 0.0 0 0 23.00 21.55
  L 23.48 24.40
  A 0.46 0.45 -5.9 0 0 23.94 24.77
  Q 25.31 24.73 25.18 25.85
  A 0.86 0.70 -31.2 0 1 25.07 26.16
  L 22.51 30.38
  A 1.85 1.85 0.0 0 0 22.60 32.42
  L 27.43 38.96
  A 3.56 3.56 0.0 0 1 28.00 42.06
  L 26.72 46.61
  A 0.82 0.82 0.0 0 0 27.19 47.59
  Q 27.67 47.79 28.60 48.83
  A 1.93 1.92 -16.9 0 0 29.81 49.47
  Q 31.29 49.66 32.76 49.66
  Z
  M 19.39 25.85
  A 0.33 0.33 0.0 0 1 19.17 25.63
  L 18.51 23.60
  A 0.33 0.33 0.0 0 0 17.89 23.60
  L 17.23 25.63
  A 0.33 0.33 0.0 0 1 17.01 25.85
  L 14.98 26.51
  A 0.33 0.33 0.0 0 0 14.98 27.13
  L 17.01 27.79
  A 0.33 0.33 0.0 0 1 17.23 28.01
  L 17.89 30.04
  A 0.33 0.33 0.0 0 0 18.51 30.04
  L 19.17 28.01
  A 0.33 0.33 0.0 0 1 19.39 27.79
  L 21.42 27.13
  A 0.33 0.33 0.0 0 0 21.42 26.51
  L 19.39 25.85
  Z
  M 47.53 39.12
  A 0.32 0.32 0.0 0 1 47.33 38.92
  L 46.13 35.43
  A 0.32 0.32 0.0 0 0 45.53 35.43
  L 44.34 38.93
  A 0.32 0.32 0.0 0 1 44.14 39.13
  L 40.65 40.33
  A 0.32 0.32 0.0 0 0 40.65 40.93
  L 44.15 42.12
  A 0.32 0.32 0.0 0 1 44.35 42.32
  L 45.55 45.81
  A 0.32 0.32 0.0 0 0 46.15 45.81
  L 47.34 42.31
  A 0.32 0.32 0.0 0 1 47.54 42.11
  L 51.03 40.91
  A 0.32 0.32 0.0 0 0 51.03 40.31
  L 47.53 39.12
  Z"
/>
<path fill="#fffef2" d="
  M 32.75 18.38
  Q 33.35 18.38 33.74 20.04
  A 0.35 0.35 0.0 0 0 34.37 20.16
  Q 35.44 18.61 36.33 19.13
  A 0.46 0.45 -66.4 0 1 36.53 19.66
  L 35.28 23.44
  A 0.83 0.82 10.1 0 0 36.04 24.53
  Q 36.06 24.53 36.41 24.44
  Q 36.66 24.38 36.77 24.22
  Q 38.79 21.34 41.80 20.83
  A 0.62 0.62 0.0 0 1 42.51 21.54
  L 42.03 24.40
  A 0.46 0.45 5.9 0 1 41.57 24.77
  Q 40.20 24.73 40.33 25.85
  A 0.86 0.70 31.2 0 0 40.44 26.16
  L 43.01 30.37
  A 1.85 1.85 0.0 0 1 42.92 32.41
  L 38.09 38.96
  A 3.56 3.56 0.0 0 0 37.52 42.06
  L 38.80 46.61
  A 0.82 0.82 0.0 0 1 38.33 47.59
  Q 37.85 47.79 36.92 48.83
  A 1.93 1.92 16.9 0 1 35.71 49.47
  Q 34.23 49.66 32.76 49.66
  Q 31.29 49.66 29.81 49.47
  A 1.93 1.92 -16.9 0 1 28.60 48.83
  Q 27.67 47.79 27.19 47.59
  A 0.82 0.82 0.0 0 1 26.72 46.61
  L 28.00 42.06
  A 3.56 3.56 0.0 0 0 27.43 38.96
  L 22.60 32.42
  A 1.85 1.85 0.0 0 1 22.51 30.38
  L 25.07 26.16
  A 0.86 0.70 -31.2 0 0 25.18 25.85
  Q 25.31 24.73 23.94 24.77
  A 0.46 0.45 -5.9 0 1 23.48 24.40
  L 23.00 21.55
  A 0.62 0.62 0.0 0 1 23.71 20.83
  Q 26.72 21.34 28.74 24.22
  Q 28.85 24.38 29.10 24.44
  Q 29.45 24.53 29.47 24.53
  A 0.83 0.82 -10.2 0 0 30.23 23.44
  L 28.98 19.66
  A 0.46 0.45 66.3 0 1 29.18 19.13
  Q 30.07 18.61 31.14 20.16
  A 0.35 0.35 0.0 0 0 31.77 20.04
  Q 32.16 18.38 32.75 18.38
  Z
  M 32.38 39.49
  A 0.27 0.27 0.0 0 0 32.90 39.43
  L 34.42 30.37
  A 1.93 1.91 -18.2 0 1 34.94 29.35
  L 35.78 28.52
  A 0.93 0.93 0.0 0 0 35.57 27.04
  Q 34.39 26.40 33.61 25.23
  A 1.07 1.07 0.0 0 0 31.97 25.06
  L 29.51 27.53
  A 0.55 0.55 0.0 0 0 29.53 28.32
  Q 31.19 29.85 31.50 32.54
  Q 32.29 39.25 32.38 39.49
  Z
  M 25.3161 30.2850
  A 2.30 1.39 -137.8 0 0 26.0863 32.8597
  A 2.30 1.39 -137.8 0 0 28.7239 33.3750
  A 2.30 1.39 -137.8 0 0 27.9537 30.8003
  A 2.30 1.39 -137.8 0 0 25.3161 30.2850
  Z
  M 40.1597 30.3103
  A 2.28 1.37 -41.8 0 0 37.5469 30.8087
  A 2.28 1.37 -41.8 0 0 36.7603 33.3497
  A 2.28 1.37 -41.8 0 0 39.3731 32.8513
  A 2.28 1.37 -41.8 0 0 40.1597 30.3103
  Z
  M 32.76 48.01
  C 33.31 48.00 34.39 47.34 35.45 46.74
  A 0.39 0.39 0.0 0 0 35.43 46.05
  Q 33.72 45.22 32.89 42.75
  A 0.17 0.11 77.0 0 0 32.77 42.63
  Q 32.75 42.63 32.74 42.63
  Q 32.73 42.63 32.71 42.63
  A 0.17 0.11 -77.4 0 0 32.58 42.75
  Q 31.77 45.23 30.07 46.07
  A 0.39 0.39 0.0 0 0 30.06 46.76
  C 31.12 47.35 32.20 48.01 32.76 48.01
  Z"
/>
<path fill="#fffef2" d="
  M 19.39 25.85
  L 21.42 26.51
  A 0.33 0.33 0.0 0 1 21.42 27.13
  L 19.39 27.79
  A 0.33 0.33 0.0 0 0 19.17 28.01
  L 18.51 30.04
  A 0.33 0.33 0.0 0 1 17.89 30.04
  L 17.23 28.01
  A 0.33 0.33 0.0 0 0 17.01 27.79
  L 14.98 27.13
  A 0.33 0.33 0.0 0 1 14.98 26.51
  L 17.01 25.85
  A 0.33 0.33 0.0 0 0 17.23 25.63
  L 17.89 23.60
  A 0.33 0.33 0.0 0 1 18.51 23.60
  L 19.17 25.63
  A 0.33 0.33 0.0 0 0 19.39 25.85
  Z"
/>
<path fill="#414141" d="
  M 32.38 39.49
  Q 32.29 39.25 31.50 32.54
  Q 31.19 29.85 29.53 28.32
  A 0.55 0.55 0.0 0 1 29.51 27.53
  L 31.97 25.06
  A 1.07 1.07 0.0 0 1 33.61 25.23
  Q 34.39 26.40 35.57 27.04
  A 0.93 0.93 0.0 0 1 35.78 28.52
  L 34.94 29.35
  A 1.93 1.91 -18.2 0 0 34.42 30.37
  L 32.90 39.43
  A 0.27 0.27 0.0 0 1 32.38 39.49
  Z"
/>
<ellipse fill="#414141" cx="0.00" cy="0.00" transform="translate(27.02,31.83) rotate(-137.8)" rx="2.30" ry="1.39"/>
<ellipse fill="#414141" cx="0.00" cy="0.00" transform="translate(38.46,31.83) rotate(-41.8)" rx="2.28" ry="1.37"/>
<path fill="#fffef2" d="
  M 47.53 39.12
  L 51.03 40.31
  A 0.32 0.32 0.0 0 1 51.03 40.91
  L 47.54 42.11
  A 0.32 0.32 0.0 0 0 47.34 42.31
  L 46.15 45.81
  A 0.32 0.32 0.0 0 1 45.55 45.81
  L 44.35 42.32
  A 0.32 0.32 0.0 0 0 44.15 42.12
  L 40.65 40.93
  A 0.32 0.32 0.0 0 1 40.65 40.33
  L 44.14 39.13
  A 0.32 0.32 0.0 0 0 44.34 38.93
  L 45.53 35.43
  A 0.32 0.32 0.0 0 1 46.13 35.43
  L 47.33 38.92
  A 0.32 0.32 0.0 0 0 47.53 39.12
  Z"
/>
<path fill="#414141" d="
  M 32.74 42.63
  Q 32.75 42.63 32.77 42.63
  A 0.17 0.11 77.0 0 1 32.89 42.75
  Q 33.72 45.22 35.43 46.05
  A 0.39 0.39 0.0 0 1 35.45 46.74
  C 34.39 47.34 33.31 48.00 32.76 48.01
  C 32.20 48.01 31.12 47.35 30.06 46.76
  A 0.39 0.39 0.0 0 1 30.07 46.07
  Q 31.77 45.23 32.58 42.75
  A 0.17 0.11 -77.4 0 1 32.71 42.63
  Q 32.73 42.63 32.74 42.63
  Z"
/>
</svg>
