<?xml version="1.0" encoding="UTF-8" standalone="no"?>
<!DOCTYPE svg PUBLIC "-//W3C//DTD SVG 1.1//EN" "http://www.w3.org/Graphics/SVG/1.1/DTD/svg11.dtd">
<svg xmlns="http://www.w3.org/2000/svg" version="1.1" viewBox="0.00 0.00 66.00 88.00">
<g stroke-width="2.00" fill="none" stroke-linecap="butt">
<path stroke="#323231" vector-effect="non-scaling-stroke" d="
  M 33.43 86.56
  C 34.05 86.56 33.58 86.61 33.79 86.43
  C 52.51 69.66 80.42 31.60 52.48 9.07
  Q 44.42 2.57 33.52 2.56
  Q 22.61 2.55 14.54 9.03
  C -13.45 31.50 14.38 69.62 33.06 86.42
  C 33.27 86.61 32.80 86.56 33.43 86.56"
/>
<path stroke="#a0a09a" vector-effect="non-scaling-stroke" d="
  M 33.23 23.18
  Q 33.28 23.18 33.33 23.16
  A 0.47 0.27 2.2 0 0 33.53 23.06
  L 38.07 18.08
  A 0.39 0.39 0.0 0 0 38.00 17.49
  Q 35.63 15.84 33.26 15.83
  Q 30.90 15.82 28.51 17.45
  A 0.39 0.39 0.0 0 0 28.44 18.04
  L 32.94 23.06
  A 0.47 0.27 -1.7 0 0 33.13 23.16
  Q 33.18 23.18 33.23 23.18"
/>
<path stroke="#a0a09a" vector-effect="non-scaling-stroke" d="
  M 24.68 21.39
  Q 21.25 26.22 19.89 32.29
  A 0.49 0.47 -75.1 0 0 20.21 32.86
  L 24.61 34.21
  A 0.44 0.43 17.1 0 0 25.15 33.93
  Q 26.58 29.63 29.51 26.50
  A 0.99 0.99 0.0 0 0 29.49 25.12
  L 25.68 21.30
  A 0.66 0.66 0.0 0 0 24.68 21.39"
/>
<path stroke="#a0a09a" vector-effect="non-scaling-stroke" d="
  M 41.75 21.32
  A 0.66 0.66 0.0 0 0 40.74 21.23
  L 36.92 25.07
  A 1.00 0.99 45.8 0 0 36.90 26.46
  Q 39.84 29.60 41.28 33.92
  A 0.44 0.44 0.0 0 0 41.83 34.20
  L 46.25 32.84
  A 0.49 0.48 75.0 0 0 46.57 32.27
  Q 45.20 26.17 41.75 21.32"
/>
<path stroke="#a0a09a" vector-effect="non-scaling-stroke" d="
  M 33.24 42.24
  Q 33.36 42.24 33.54 41.99
  Q 35.78 38.95 37.39 37.43
  A 1.05 1.04 61.5 0 0 37.69 36.41
  Q 36.63 31.95 33.52 29.04
  C 33.51 29.03 33.26 28.99 33.26 28.99
  C 33.25 28.99 33.01 29.03 32.99 29.04
  Q 29.88 31.94 28.81 36.40
  A 1.05 1.04 -61.4 0 0 29.11 37.42
  Q 30.71 38.94 32.94 41.99
  Q 33.13 42.24 33.24 42.24"
/>
<path stroke="#a0a09a" vector-effect="non-scaling-stroke" d="
  M 38.18 42.65
  Q 35.18 46.38 34.61 51.98
  A 0.39 0.39 0.0 0 0 35.04 52.41
  Q 41.07 51.75 44.38 47.64
  Q 47.69 43.53 47.05 37.49
  A 0.39 0.39 0.0 0 0 46.54 37.16
  Q 41.18 38.92 38.18 42.65"
/>
<path stroke="#a0a09a" vector-effect="non-scaling-stroke" d="
  M 31.89 51.76
  Q 30.69 40.80 19.90 37.18
  A 0.48 0.47 -78.6 0 0 19.28 37.60
  C 18.70 45.43 23.26 51.76 31.37 52.30
  A 0.49 0.49 0.0 0 0 31.89 51.76"
/>
</g>
<path fill="#222321" d="
  M 33.78 88.00
  L 33.03 88.00
  C 21.71 77.71 12.19 65.75 5.68 51.55
  Q 2.12 43.81 1.57 34.89
  C 0.58 18.96 11.03 5.90 26.40 2.11
  C 37.25 -0.56 49.51 3.28 57.19 11.69
  C 69.85 25.55 66.37 44.01 57.38 59.17
  Q 47.83 75.28 33.78 88.00
  Z
  M 33.43 86.56
  C 34.05 86.56 33.58 86.61 33.79 86.43
  C 52.51 69.66 80.42 31.60 52.48 9.07
  Q 44.42 2.57 33.52 2.56
  Q 22.61 2.55 14.54 9.03
  C -13.45 31.50 14.38 69.62 33.06 86.42
  C 33.27 86.61 32.80 86.56 33.43 86.56
  Z"
/>
<path fill="#414141" d="
  M 33.52 2.56
  Q 44.42 2.57 52.48 9.07
  C 80.42 31.60 52.51 69.66 33.79 86.43
  C 33.58 86.61 34.05 86.56 33.43 86.56
  C 32.80 86.56 33.27 86.61 33.06 86.42
  C 14.38 69.62 -13.45 31.50 14.54 9.03
  Q 22.61 2.55 33.52 2.56
  Z
  M 33.23 23.18
  Q 33.28 23.18 33.33 23.16
  A 0.47 0.27 2.2 0 0 33.53 23.06
  L 38.07 18.08
  A 0.39 0.39 0.0 0 0 38.00 17.49
  Q 35.63 15.84 33.26 15.83
  Q 30.90 15.82 28.51 17.45
  A 0.39 0.39 0.0 0 0 28.44 18.04
  L 32.94 23.06
  A 0.47 0.27 -1.7 0 0 33.13 23.16
  Q 33.18 23.18 33.23 23.18
  Z
  M 24.68 21.39
  Q 21.25 26.22 19.89 32.29
  A 0.49 0.47 -75.1 0 0 20.21 32.86
  L 24.61 34.21
  A 0.44 0.43 17.1 0 0 25.15 33.93
  Q 26.58 29.63 29.51 26.50
  A 0.99 0.99 0.0 0 0 29.49 25.12
  L 25.68 21.30
  A 0.66 0.66 0.0 0 0 24.68 21.39
  Z
  M 41.75 21.32
  A 0.66 0.66 0.0 0 0 40.74 21.23
  L 36.92 25.07
  A 1.00 0.99 45.8 0 0 36.90 26.46
  Q 39.84 29.60 41.28 33.92
  A 0.44 0.44 0.0 0 0 41.83 34.20
  L 46.25 32.84
  A 0.49 0.48 75.0 0 0 46.57 32.27
  Q 45.20 26.17 41.75 21.32
  Z
  M 33.24 42.24
  Q 33.36 42.24 33.54 41.99
  Q 35.78 38.95 37.39 37.43
  A 1.05 1.04 61.5 0 0 37.69 36.41
  Q 36.63 31.95 33.52 29.04
  C 33.51 29.03 33.26 28.99 33.26 28.99
  C 33.25 28.99 33.01 29.03 32.99 29.04
  Q 29.88 31.94 28.81 36.40
  A 1.05 1.04 -61.4 0 0 29.11 37.42
  Q 30.71 38.94 32.94 41.99
  Q 33.13 42.24 33.24 42.24
  Z
  M 38.18 42.65
  Q 35.18 46.38 34.61 51.98
  A 0.39 0.39 0.0 0 0 35.04 52.41
  Q 41.07 51.75 44.38 47.64
  Q 47.69 43.53 47.05 37.49
  A 0.39 0.39 0.0 0 0 46.54 37.16
  Q 41.18 38.92 38.18 42.65
  Z
  M 31.89 51.76
  Q 30.69 40.80 19.90 37.18
  A 0.48 0.47 -78.6 0 0 19.28 37.60
  C 18.70 45.43 23.26 51.76 31.37 52.30
  A 0.49 0.49 0.0 0 0 31.89 51.76
  Z"
/>
<path fill="#fffef2" d="
  M 33.26 15.83
  Q 35.63 15.84 38.00 17.49
  A 0.39 0.39 0.0 0 1 38.07 18.08
  L 33.53 23.06
  A 0.47 0.27 2.2 0 1 33.33 23.16
  Q 33.28 23.18 33.23 23.18
  Q 33.18 23.18 33.13 23.16
  A 0.47 0.27 -1.7 0 1 32.94 23.06
  L 28.44 18.04
  A 0.39 0.39 0.0 0 1 28.51 17.45
  Q 30.90 15.82 33.26 15.83
  Z"
/>
<path fill="#fffef2" d="
  M 24.68 21.39
  A 0.66 0.66 0.0 0 1 25.68 21.30
  L 29.49 25.12
  A 0.99 0.99 0.0 0 1 29.51 26.50
  Q 26.58 29.63 25.15 33.93
  A 0.44 0.43 17.1 0 1 24.61 34.21
  L 20.21 32.86
  A 0.49 0.47 -75.1 0 1 19.89 32.29
  Q 21.25 26.22 24.68 21.39
  Z"
/>
<path fill="#fffef2" d="
  M 41.75 21.32
  Q 45.20 26.17 46.57 32.27
  A 0.49 0.48 75.0 0 1 46.25 32.84
  L 41.83 34.20
  A 0.44 0.44 0.0 0 1 41.28 33.92
  Q 39.84 29.60 36.90 26.46
  A 1.00 0.99 45.8 0 1 36.92 25.07
  L 40.74 21.23
  A 0.66 0.66 0.0 0 1 41.75 21.32
  Z"
/>
<path fill="#fffef2" d="
  M 33.26 28.99
  C 33.26 28.99 33.51 29.03 33.52 29.04
  Q 36.63 31.95 37.69 36.41
  A 1.05 1.04 61.5 0 1 37.39 37.43
  Q 35.78 38.95 33.54 41.99
  Q 33.36 42.24 33.24 42.24
  Q 33.13 42.24 32.94 41.99
  Q 30.71 38.94 29.11 37.42
  A 1.05 1.04 -61.4 0 1 28.81 36.40
  Q 29.88 31.94 32.99 29.04
  C 33.01 29.03 33.25 28.99 33.26 28.99
  Z"
/>
<path fill="#fffef2" d="
  M 44.38 47.64
  Q 41.07 51.75 35.04 52.41
  A 0.39 0.39 0.0 0 1 34.61 51.98
  Q 35.18 46.38 38.18 42.65
  Q 41.18 38.92 46.54 37.16
  A 0.39 0.39 0.0 0 1 47.05 37.49
  Q 47.69 43.53 44.38 47.64
  Z"
/>
<path fill="#fffef2" d="
  M 31.89 51.76
  A 0.49 0.49 0.0 0 1 31.37 52.30
  C 23.26 51.76 18.70 45.43 19.28 37.60
  A 0.48 0.47 -78.6 0 1 19.90 37.18
  Q 30.69 40.80 31.89 51.76
  Z"
/>
</svg>
