<?xml version="1.0" encoding="UTF-8" standalone="no"?>
<!DOCTYPE svg PUBLIC "-//W3C//DTD SVG 1.1//EN" "http://www.w3.org/Graphics/SVG/1.1/DTD/svg11.dtd">
<svg xmlns="http://www.w3.org/2000/svg" version="1.1" viewBox="0.00 0.00 66.00 88.00">
<g stroke-width="2.00" fill="none" stroke-linecap="butt">
<path stroke="#21303f" vector-effect="non-scaling-stroke" d="
  M 33.42 86.58
  Q 33.56 86.58 33.70 86.55
  A 0.07 0.03 -4.8 0 0 33.73 86.53
  C 46.84 74.41 61.78 55.81 63.89 37.98
  Q 66.39 16.87 48.24 6.26
  Q 41.94 2.58 33.51 2.57
  Q 25.08 2.56 18.77 6.23
  Q 0.60 16.80 3.05 37.92
  C 5.13 55.75 20.03 74.38 33.11 86.53
  A 0.07 0.03 4.9 0 0 33.15 86.55
  Q 33.28 86.58 33.42 86.58"
/>
<path stroke="#969fa2" vector-effect="non-scaling-stroke" d="
  M 33.04 21.72
  Q 33.81 21.71 35.69 21.89
  A 0.42 0.41 79.4 0 0 36.10 21.29
  L 33.35 15.80
  A 0.34 0.11 10.7 0 0 33.13 15.68
  Q 33.08 15.67 33.02 15.67
  Q 32.93 15.67 32.88 15.68
  A 0.34 0.11 -11.4 0 0 32.66 15.80
  L 29.98 21.33
  A 0.42 0.41 -80.0 0 0 30.39 21.93
  Q 32.27 21.72 33.04 21.72"
/>
<path stroke="#969fa2" vector-effect="non-scaling-stroke" d="
  M 25.26 24.02
  Q 25.95 23.62 27.72 22.83
  A 0.43 0.43 0.0 0 0 27.78 22.08
  L 22.51 18.56
  A 0.35 0.11 -19.0 0 0 22.25 18.57
  Q 22.20 18.58 22.14 18.61
  Q 22.06 18.66 22.02 18.70
  A 0.35 0.11 -41.1 0 0 21.89 18.92
  L 22.32 25.24
  A 0.43 0.43 0.0 0 0 22.99 25.56
  Q 24.56 24.42 25.26 24.02"
/>
<path stroke="#969fa2" vector-effect="non-scaling-stroke" d="
  M 40.75 23.99
  Q 41.44 24.40 43.01 25.57
  A 0.43 0.43 0.0 0 0 43.69 25.26
  L 44.20 18.90
  A 0.36 0.11 41.8 0 0 44.07 18.68
  Q 44.03 18.63 43.95 18.59
  Q 43.90 18.56 43.84 18.54
  A 0.36 0.11 19.7 0 0 43.58 18.53
  L 38.23 22.01
  A 0.43 0.43 0.0 0 0 38.28 22.76
  Q 40.06 23.58 40.75 23.99"
/>
<path stroke="#969fa2" vector-effect="non-scaling-stroke" d="
  M 33.01 52.19
  C 37.98 52.19 34.06 40.95 34.21 39.03
  A 0.68 0.68 0.0 0 1 34.80 38.41
  Q 40.64 37.67 43.97 32.38
  A 1.54 1.53 8.2 0 1 44.83 31.74
  L 46.43 31.29
  A 1.27 1.24 9.5 0 0 47.09 30.83
  Q 48.29 29.24 46.86 27.32
  A 0.31 0.31 0.0 0 0 46.30 27.52
  L 46.37 28.90
  A 2.13 2.13 0.0 0 1 43.23 29.14
  Q 38.34 24.54 33.00 24.54
  Q 27.66 24.54 22.77 29.15
  A 2.13 2.13 0.0 0 1 19.63 28.91
  L 19.70 27.53
  A 0.31 0.31 0.0 0 0 19.14 27.33
  Q 17.71 29.25 18.92 30.84
  A 1.27 1.24 -9.6 0 0 19.58 31.30
  L 21.18 31.74
  A 1.54 1.53 -8.3 0 1 22.04 32.38
  Q 25.37 37.67 31.21 38.41
  A 0.68 0.68 0.0 0 1 31.80 39.03
  C 31.95 40.95 28.04 52.19 33.01 52.19"
/>
<path stroke="#969fa2" vector-effect="non-scaling-stroke" d="
  M 37.79 31.81
  A 4.79 4.79 0.0 0 0 33.00 27.02
  A 4.79 4.79 0.0 0 0 28.21 31.81
  A 4.79 4.79 0.0 0 0 33.00 36.60
  A 4.79 4.79 0.0 0 0 37.79 31.81"
/>
<path stroke="#969fa2" vector-effect="non-scaling-stroke" d="
  M 26.97 28.80
  L 23.74 30.67
  A 0.73 0.73 0.0 0 0 23.50 31.72
  Q 24.95 33.86 26.91 35.17
  A 0.25 0.25 0.0 0 0 27.26 34.84
  Q 25.75 32.22 27.18 29.00
  A 0.15 0.15 0.0 0 0 26.97 28.80"
/>
<path stroke="#969fa2" vector-effect="non-scaling-stroke" d="
  M 39.15 28.87
  A 0.15 0.15 0.0 0 0 38.94 29.06
  Q 40.34 32.17 38.89 34.72
  A 0.24 0.24 0.0 0 0 39.23 35.04
  Q 41.12 33.76 42.52 31.68
  A 0.71 0.71 0.0 0 0 42.28 30.67
  L 39.15 28.87"
/>
<path stroke="#969fa2" vector-effect="non-scaling-stroke" d="
  M 35.17 31.71
  A 2.14 2.14 0.0 0 0 33.03 29.57
  A 2.14 2.14 0.0 0 0 30.89 31.71
  A 2.14 2.14 0.0 0 0 33.03 33.85
  A 2.14 2.14 0.0 0 0 35.17 31.71"
/>
</g>
<path fill="#16212b" d="
  M 33.80 88.00
  L 33.04 88.00
  C 21.76 77.75 12.10 65.66 5.64 51.56
  Q 2.20 44.06 1.60 34.89
  C 0.53 18.89 11.35 5.50 26.73 2.05
  C 41.12 -1.18 55.95 6.01 62.58 19.70
  C 66.92 28.66 65.94 39.76 62.41 48.86
  C 56.63 63.75 45.55 77.31 33.80 88.00
  Z
  M 33.42 86.58
  Q 33.56 86.58 33.70 86.55
  A 0.07 0.03 -4.8 0 0 33.73 86.53
  C 46.84 74.41 61.78 55.81 63.89 37.98
  Q 66.39 16.87 48.24 6.26
  Q 41.94 2.58 33.51 2.57
  Q 25.08 2.56 18.77 6.23
  Q 0.60 16.80 3.05 37.92
  C 5.13 55.75 20.03 74.38 33.11 86.53
  A 0.07 0.03 4.9 0 0 33.15 86.55
  Q 33.28 86.58 33.42 86.58
  Z"
/>
<path fill="#2c3f52" d="
  M 33.51 2.57
  Q 41.94 2.58 48.24 6.26
  Q 66.39 16.87 63.89 37.98
  C 61.78 55.81 46.84 74.41 33.73 86.53
  A 0.07 0.03 -4.8 0 1 33.70 86.55
  Q 33.56 86.58 33.42 86.58
  Q 33.28 86.58 33.15 86.55
  A 0.07 0.03 4.9 0 1 33.11 86.53
  C 20.03 74.38 5.13 55.75 3.05 37.92
  Q 0.60 16.80 18.77 6.23
  Q 25.08 2.56 33.51 2.57
  Z
  M 33.04 21.72
  Q 33.81 21.71 35.69 21.89
  A 0.42 0.41 79.4 0 0 36.10 21.29
  L 33.35 15.80
  A 0.34 0.11 10.7 0 0 33.13 15.68
  Q 33.08 15.67 33.02 15.67
  Q 32.93 15.67 32.88 15.68
  A 0.34 0.11 -11.4 0 0 32.66 15.80
  L 29.98 21.33
  A 0.42 0.41 -80.0 0 0 30.39 21.93
  Q 32.27 21.72 33.04 21.72
  Z
  M 25.26 24.02
  Q 25.95 23.62 27.72 22.83
  A 0.43 0.43 0.0 0 0 27.78 22.08
  L 22.51 18.56
  A 0.35 0.11 -19.0 0 0 22.25 18.57
  Q 22.20 18.58 22.14 18.61
  Q 22.06 18.66 22.02 18.70
  A 0.35 0.11 -41.1 0 0 21.89 18.92
  L 22.32 25.24
  A 0.43 0.43 0.0 0 0 22.99 25.56
  Q 24.56 24.42 25.26 24.02
  Z
  M 40.75 23.99
  Q 41.44 24.40 43.01 25.57
  A 0.43 0.43 0.0 0 0 43.69 25.26
  L 44.20 18.90
  A 0.36 0.11 41.8 0 0 44.07 18.68
  Q 44.03 18.63 43.95 18.59
  Q 43.90 18.56 43.84 18.54
  A 0.36 0.11 19.7 0 0 43.58 18.53
  L 38.23 22.01
  A 0.43 0.43 0.0 0 0 38.28 22.76
  Q 40.06 23.58 40.75 23.99
  Z
  M 33.01 52.19
  C 37.98 52.19 34.06 40.95 34.21 39.03
  A 0.68 0.68 0.0 0 1 34.80 38.41
  Q 40.64 37.67 43.97 32.38
  A 1.54 1.53 8.2 0 1 44.83 31.74
  L 46.43 31.29
  A 1.27 1.24 9.5 0 0 47.09 30.83
  Q 48.29 29.24 46.86 27.32
  A 0.31 0.31 0.0 0 0 46.30 27.52
  L 46.37 28.90
  A 2.13 2.13 0.0 0 1 43.23 29.14
  Q 38.34 24.54 33.00 24.54
  Q 27.66 24.54 22.77 29.15
  A 2.13 2.13 0.0 0 1 19.63 28.91
  L 19.70 27.53
  A 0.31 0.31 0.0 0 0 19.14 27.33
  Q 17.71 29.25 18.92 30.84
  A 1.27 1.24 -9.6 0 0 19.58 31.30
  L 21.18 31.74
  A 1.54 1.53 -8.3 0 1 22.04 32.38
  Q 25.37 37.67 31.21 38.41
  A 0.68 0.68 0.0 0 1 31.80 39.03
  C 31.95 40.95 28.04 52.19 33.01 52.19
  Z"
/>
<path fill="#fffef2" d="
  M 33.04 21.72
  Q 32.27 21.72 30.39 21.93
  A 0.42 0.41 -80.0 0 1 29.98 21.33
  L 32.66 15.80
  A 0.34 0.11 -11.4 0 1 32.88 15.68
  Q 32.93 15.67 33.02 15.67
  Q 33.08 15.67 33.13 15.68
  A 0.34 0.11 10.7 0 1 33.35 15.80
  L 36.10 21.29
  A 0.42 0.41 79.4 0 1 35.69 21.89
  Q 33.81 21.71 33.04 21.72
  Z"
/>
<path fill="#fffef2" d="
  M 22.14 18.61
  Q 22.20 18.58 22.25 18.57
  A 0.35 0.11 -19.0 0 1 22.51 18.56
  L 27.78 22.08
  A 0.43 0.43 0.0 0 1 27.72 22.83
  Q 25.95 23.62 25.26 24.02
  Q 24.56 24.42 22.99 25.56
  A 0.43 0.43 0.0 0 1 22.32 25.24
  L 21.89 18.92
  A 0.35 0.11 -41.1 0 1 22.02 18.70
  Q 22.06 18.66 22.14 18.61
  Z"
/>
<path fill="#fffef2" d="
  M 40.75 23.99
  Q 40.06 23.58 38.28 22.76
  A 0.43 0.43 0.0 0 1 38.23 22.01
  L 43.58 18.53
  A 0.36 0.11 19.7 0 1 43.84 18.54
  Q 43.90 18.56 43.95 18.59
  Q 44.03 18.63 44.07 18.68
  A 0.36 0.11 41.8 0 1 44.20 18.90
  L 43.69 25.26
  A 0.43 0.43 0.0 0 1 43.01 25.57
  Q 41.44 24.40 40.75 23.99
  Z"
/>
<path fill="#fffef2" d="
  M 33.00 24.54
  Q 38.34 24.54 43.23 29.14
  A 2.13 2.13 0.0 0 0 46.37 28.90
  L 46.30 27.52
  A 0.31 0.31 0.0 0 1 46.86 27.32
  Q 48.29 29.24 47.09 30.83
  A 1.27 1.24 9.5 0 1 46.43 31.29
  L 44.83 31.74
  A 1.54 1.53 8.2 0 0 43.97 32.38
  Q 40.64 37.67 34.80 38.41
  A 0.68 0.68 0.0 0 0 34.21 39.03
  C 34.06 40.95 37.98 52.19 33.01 52.19
  C 28.04 52.19 31.95 40.95 31.80 39.03
  A 0.68 0.68 0.0 0 0 31.21 38.41
  Q 25.37 37.67 22.04 32.38
  A 1.54 1.53 -8.3 0 0 21.18 31.74
  L 19.58 31.30
  A 1.27 1.24 -9.6 0 1 18.92 30.84
  Q 17.71 29.25 19.14 27.33
  A 0.31 0.31 0.0 0 1 19.70 27.53
  L 19.63 28.91
  A 2.13 2.13 0.0 0 0 22.77 29.15
  Q 27.66 24.54 33.00 24.54
  Z
  M 37.79 31.81
  A 4.79 4.79 0.0 0 0 33.00 27.02
  A 4.79 4.79 0.0 0 0 28.21 31.81
  A 4.79 4.79 0.0 0 0 33.00 36.60
  A 4.79 4.79 0.0 0 0 37.79 31.81
  Z
  M 26.97 28.80
  L 23.74 30.67
  A 0.73 0.73 0.0 0 0 23.50 31.72
  Q 24.95 33.86 26.91 35.17
  A 0.25 0.25 0.0 0 0 27.26 34.84
  Q 25.75 32.22 27.18 29.00
  A 0.15 0.15 0.0 0 0 26.97 28.80
  Z
  M 39.15 28.87
  A 0.15 0.15 0.0 0 0 38.94 29.06
  Q 40.34 32.17 38.89 34.72
  A 0.24 0.24 0.0 0 0 39.23 35.04
  Q 41.12 33.76 42.52 31.68
  A 0.71 0.71 0.0 0 0 42.28 30.67
  L 39.15 28.87
  Z"
/>
<path fill="#2c3f52" d="
  M 37.79 31.81
  A 4.79 4.79 0.0 0 1 33.00 36.60
  A 4.79 4.79 0.0 0 1 28.21 31.81
  A 4.79 4.79 0.0 0 1 33.00 27.02
  A 4.79 4.79 0.0 0 1 37.79 31.81
  Z
  M 35.17 31.71
  A 2.14 2.14 0.0 0 0 33.03 29.57
  A 2.14 2.14 0.0 0 0 30.89 31.71
  A 2.14 2.14 0.0 0 0 33.03 33.85
  A 2.14 2.14 0.0 0 0 35.17 31.71
  Z"
/>
<path fill="#2c3f52" d="
  M 27.18 29.00
  Q 25.75 32.22 27.26 34.84
  A 0.25 0.25 0.0 0 1 26.91 35.17
  Q 24.95 33.86 23.50 31.72
  A 0.73 0.73 0.0 0 1 23.74 30.67
  L 26.97 28.80
  A 0.15 0.15 0.0 0 1 27.18 29.00
  Z"
/>
<path fill="#2c3f52" d="
  M 39.15 28.87
  L 42.28 30.67
  A 0.71 0.71 0.0 0 1 42.52 31.68
  Q 41.12 33.76 39.23 35.04
  A 0.24 0.24 0.0 0 1 38.89 34.72
  Q 40.34 32.17 38.94 29.06
  A 0.15 0.15 0.0 0 1 39.15 28.87
  Z"
/>
<circle fill="#fffef2" cx="33.03" cy="31.71" r="2.14"/>
</svg>
