<?xml version="1.0" encoding="UTF-8" standalone="no"?>
<!DOCTYPE svg PUBLIC "-//W3C//DTD SVG 1.1//EN" "http://www.w3.org/Graphics/SVG/1.1/DTD/svg11.dtd">
<svg xmlns="http://www.w3.org/2000/svg" version="1.1" viewBox="0.00 0.00 66.00 88.00">
<g stroke-width="2.00" fill="none" stroke-linecap="butt">
<path stroke="#38728d" vector-effect="non-scaling-stroke" d="
  M 33.40 86.72
  Q 33.53 86.72 33.61 86.69
  Q 33.70 86.67 33.78 86.59
  Q 47.09 74.14 56.20 58.99
  C 65.08 44.23 68.75 25.61 55.93 12.11
  Q 47.61 3.36 35.25 2.53
  Q 34.26 2.47 33.53 2.46
  Q 32.81 2.46 31.81 2.53
  Q 19.45 3.32 11.10 12.04
  C -1.76 25.50 1.85 44.13 10.69 58.92
  Q 19.75 74.10 33.02 86.59
  Q 33.10 86.67 33.19 86.69
  Q 33.27 86.72 33.40 86.72"
/>
<path stroke="#a6cad6" vector-effect="non-scaling-stroke" d="
  M 32.64 52.21
  C 34.73 52.21 36.87 49.46 40.14 46.31
  Q 44.27 42.32 44.91 40.56
  Q 46.86 35.19 42.32 31.40
  A 0.82 0.82 0.0 0 1 42.13 30.36
  L 43.05 28.77
  A 0.60 0.59 28.4 0 1 43.84 28.54
  C 45.08 29.18 46.66 29.95 47.68 28.57
  A 1.74 1.73 -62.0 0 0 46.87 25.90
  Q 46.04 25.60 44.36 26.35
  A 0.38 0.37 -1.1 0 1 43.86 25.87
  Q 44.17 25.10 44.19 24.31
  A 0.57 0.57 0.0 0 1 44.90 23.77
  Q 47.10 24.28 48.25 22.98
  C 49.40 21.68 48.32 20.00 46.76 20.00
  A 1.31 1.30 23.9 0 0 45.89 20.33
  L 44.79 21.34
  A 0.40 0.40 0.0 0 1 44.13 20.94
  C 44.62 19.01 45.55 16.75 43.85 15.91
  Q 42.81 15.39 41.94 16.11
  A 2.37 1.97 51.9 0 0 41.85 19.15
  Q 42.61 20.16 43.04 21.28
  A 0.41 0.41 0.0 0 1 42.60 21.83
  Q 42.53 21.82 41.65 21.10
  C 38.49 18.52 36.31 25.34 42.21 23.87
  A 0.44 0.43 -6.8 0 1 42.75 24.29
  L 42.75 26.05
  A 0.60 0.60 0.0 0 1 41.66 26.39
  Q 40.46 24.69 38.97 25.12
  Q 37.14 25.64 37.71 27.46
  Q 38.21 29.07 41.07 28.40
  A 0.39 0.39 0.0 0 1 41.50 28.97
  L 41.00 29.84
  A 0.97 0.97 0.0 0 1 39.93 30.30
  Q 35.92 29.36 32.81 32.09
  C 32.76 32.14 32.72 32.14 32.63 32.14
  C 32.53 32.14 32.49 32.14 32.44 32.09
  Q 29.33 29.36 25.32 30.31
  A 0.97 0.97 0.0 0 1 24.25 29.85
  L 23.75 28.98
  A 0.39 0.39 0.0 0 1 24.18 28.41
  Q 27.04 29.08 27.54 27.47
  Q 28.10 25.65 26.27 25.13
  Q 24.78 24.70 23.58 26.40
  A 0.60 0.60 0.0 0 1 22.49 26.06
  L 22.49 24.30
  A 0.44 0.43 6.8 0 1 23.03 23.88
  C 28.93 25.34 26.74 18.53 23.59 21.11
  Q 22.71 21.83 22.64 21.84
  A 0.41 0.41 0.0 0 1 22.20 21.29
  Q 22.63 20.17 23.39 19.16
  A 2.37 1.97 -52.0 0 0 23.29 16.12
  Q 22.42 15.40 21.38 15.92
  C 19.68 16.77 20.61 19.02 21.11 20.95
  A 0.40 0.40 0.0 0 1 20.45 21.35
  L 19.35 20.35
  A 1.31 1.30 -23.9 0 0 18.48 20.02
  C 16.92 20.02 15.84 21.70 16.99 23.00
  Q 18.14 24.30 20.34 23.79
  A 0.57 0.57 0.0 0 1 21.05 24.32
  Q 21.07 25.11 21.38 25.88
  A 0.38 0.37 1.0 0 1 20.88 26.36
  Q 19.20 25.62 18.37 25.92
  A 1.74 1.73 62.0 0 0 17.57 28.59
  C 18.59 29.97 20.17 29.20 21.41 28.55
  A 0.60 0.59 -28.4 0 1 22.20 28.78
  L 23.12 30.37
  A 0.82 0.82 0.0 0 1 22.93 31.41
  Q 18.39 35.21 20.35 40.58
  Q 20.99 42.33 25.13 46.32
  C 28.40 49.47 30.54 52.21 32.64 52.21"
/>
<path stroke="#a6cad6" vector-effect="non-scaling-stroke" d="
  M 26.18 40.26
  Q 27.48 41.00 29.20 40.43
  A 1.14 1.13 -39.1 0 1 30.10 40.52
  L 30.71 40.88
  A 0.39 0.39 0.0 0 0 31.28 40.45
  Q 30.55 37.54 28.41 36.33
  Q 26.26 35.11 23.39 35.98
  A 0.39 0.39 0.0 0 0 23.32 36.69
  L 23.94 37.03
  A 1.14 1.13 -81.8 0 1 24.48 37.76
  Q 24.88 39.52 26.18 40.26"
/>
<path stroke="#a6cad6" vector-effect="non-scaling-stroke" d="
  M 39.13 40.24
  Q 40.44 39.50 40.83 37.72
  A 1.15 1.14 81.6 0 1 41.37 36.99
  L 41.99 36.65
  A 0.39 0.39 0.0 0 0 41.91 35.94
  Q 39.03 35.07 36.88 36.30
  Q 34.74 37.53 34.02 40.45
  A 0.39 0.39 0.0 0 0 34.59 40.87
  L 35.20 40.51
  A 1.15 1.14 38.9 0 1 36.11 40.42
  Q 37.84 40.98 39.13 40.24"
/>
<path stroke="#a6cad6" vector-effect="non-scaling-stroke" d="
  M 32.64 45.50
  Q 32.61 45.50 32.57 45.50
  A 0.25 0.14 -14.3 0 1 32.43 45.46
  L 30.69 44.21
  A 0.29 0.28 4.1 0 0 30.27 44.57
  L 32.40 48.56
  A 0.20 0.04 15.7 0 0 32.54 48.63
  Q 32.57 48.64 32.61 48.64
  Q 32.65 48.64 32.68 48.63
  A 0.20 0.04 -14.5 0 0 32.82 48.56
  L 35.03 44.62
  A 0.29 0.28 -2.9 0 0 34.62 44.25
  L 32.85 45.46
  A 0.25 0.14 15.5 0 1 32.71 45.50
  Q 32.68 45.50 32.64 45.50"
/>
</g>
<path fill="#234d60" d="
  M 33.80 88.00
  L 33.04 88.00
  C 21.91 77.89 11.83 65.40 5.58 51.42
  Q 2.19 43.84 1.60 34.83
  C 0.53 18.82 11.36 5.58 26.75 2.03
  C 33.20 0.55 40.54 1.36 46.60 4.10
  Q 60.79 10.53 64.79 26.09
  Q 65.72 29.67 65.38 35.21
  C 64.20 55.09 48.01 75.08 33.80 88.00
  Z
  M 33.40 86.72
  Q 33.53 86.72 33.61 86.69
  Q 33.70 86.67 33.78 86.59
  Q 47.09 74.14 56.20 58.99
  C 65.08 44.23 68.75 25.61 55.93 12.11
  Q 47.61 3.36 35.25 2.53
  Q 34.26 2.47 33.53 2.46
  Q 32.81 2.46 31.81 2.53
  Q 19.45 3.32 11.10 12.04
  C -1.76 25.50 1.85 44.13 10.69 58.92
  Q 19.75 74.10 33.02 86.59
  Q 33.10 86.67 33.19 86.69
  Q 33.27 86.72 33.40 86.72
  Z"
/>
<path fill="#4d96b9" d="
  M 33.53 2.46
  Q 34.26 2.47 35.25 2.53
  Q 47.61 3.36 55.93 12.11
  C 68.75 25.61 65.08 44.23 56.20 58.99
  Q 47.09 74.14 33.78 86.59
  Q 33.70 86.67 33.61 86.69
  Q 33.53 86.72 33.40 86.72
  Q 33.27 86.72 33.19 86.69
  Q 33.10 86.67 33.02 86.59
  Q 19.75 74.10 10.69 58.92
  C 1.85 44.13 -1.76 25.50 11.10 12.04
  Q 19.45 3.32 31.81 2.53
  Q 32.81 2.46 33.53 2.46
  Z
  M 32.64 52.21
  C 34.73 52.21 36.87 49.46 40.14 46.31
  Q 44.27 42.32 44.91 40.56
  Q 46.86 35.19 42.32 31.40
  A 0.82 0.82 0.0 0 1 42.13 30.36
  L 43.05 28.77
  A 0.60 0.59 28.4 0 1 43.84 28.54
  C 45.08 29.18 46.66 29.95 47.68 28.57
  A 1.74 1.73 -62.0 0 0 46.87 25.90
  Q 46.04 25.60 44.36 26.35
  A 0.38 0.37 -1.1 0 1 43.86 25.87
  Q 44.17 25.10 44.19 24.31
  A 0.57 0.57 0.0 0 1 44.90 23.77
  Q 47.10 24.28 48.25 22.98
  C 49.40 21.68 48.32 20.00 46.76 20.00
  A 1.31 1.30 23.9 0 0 45.89 20.33
  L 44.79 21.34
  A 0.40 0.40 0.0 0 1 44.13 20.94
  C 44.62 19.01 45.55 16.75 43.85 15.91
  Q 42.81 15.39 41.94 16.11
  A 2.37 1.97 51.9 0 0 41.85 19.15
  Q 42.61 20.16 43.04 21.28
  A 0.41 0.41 0.0 0 1 42.60 21.83
  Q 42.53 21.82 41.65 21.10
  C 38.49 18.52 36.31 25.34 42.21 23.87
  A 0.44 0.43 -6.8 0 1 42.75 24.29
  L 42.75 26.05
  A 0.60 0.60 0.0 0 1 41.66 26.39
  Q 40.46 24.69 38.97 25.12
  Q 37.14 25.64 37.71 27.46
  Q 38.21 29.07 41.07 28.40
  A 0.39 0.39 0.0 0 1 41.50 28.97
  L 41.00 29.84
  A 0.97 0.97 0.0 0 1 39.93 30.30
  Q 35.92 29.36 32.81 32.09
  C 32.76 32.14 32.72 32.14 32.63 32.14
  C 32.53 32.14 32.49 32.14 32.44 32.09
  Q 29.33 29.36 25.32 30.31
  A 0.97 0.97 0.0 0 1 24.25 29.85
  L 23.75 28.98
  A 0.39 0.39 0.0 0 1 24.18 28.41
  Q 27.04 29.08 27.54 27.47
  Q 28.10 25.65 26.27 25.13
  Q 24.78 24.70 23.58 26.40
  A 0.60 0.60 0.0 0 1 22.49 26.06
  L 22.49 24.30
  A 0.44 0.43 6.8 0 1 23.03 23.88
  C 28.93 25.34 26.74 18.53 23.59 21.11
  Q 22.71 21.83 22.64 21.84
  A 0.41 0.41 0.0 0 1 22.20 21.29
  Q 22.63 20.17 23.39 19.16
  A 2.37 1.97 -52.0 0 0 23.29 16.12
  Q 22.42 15.40 21.38 15.92
  C 19.68 16.77 20.61 19.02 21.11 20.95
  A 0.40 0.40 0.0 0 1 20.45 21.35
  L 19.35 20.35
  A 1.31 1.30 -23.9 0 0 18.48 20.02
  C 16.92 20.02 15.84 21.70 16.99 23.00
  Q 18.14 24.30 20.34 23.79
  A 0.57 0.57 0.0 0 1 21.05 24.32
  Q 21.07 25.11 21.38 25.88
  A 0.38 0.37 1.0 0 1 20.88 26.36
  Q 19.20 25.62 18.37 25.92
  A 1.74 1.73 62.0 0 0 17.57 28.59
  C 18.59 29.97 20.17 29.20 21.41 28.55
  A 0.60 0.59 -28.4 0 1 22.20 28.78
  L 23.12 30.37
  A 0.82 0.82 0.0 0 1 22.93 31.41
  Q 18.39 35.21 20.35 40.58
  Q 20.99 42.33 25.13 46.32
  C 28.40 49.47 30.54 52.21 32.64 52.21
  Z"
/>
<path fill="#fffef2" d="
  M 32.63 32.14
  C 32.72 32.14 32.76 32.14 32.81 32.09
  Q 35.92 29.36 39.93 30.30
  A 0.97 0.97 0.0 0 0 41.00 29.84
  L 41.50 28.97
  A 0.39 0.39 0.0 0 0 41.07 28.40
  Q 38.21 29.07 37.71 27.46
  Q 37.14 25.64 38.97 25.12
  Q 40.46 24.69 41.66 26.39
  A 0.60 0.60 0.0 0 0 42.75 26.05
  L 42.75 24.29
  A 0.44 0.43 -6.8 0 0 42.21 23.87
  C 36.31 25.34 38.49 18.52 41.65 21.10
  Q 42.53 21.82 42.60 21.83
  A 0.41 0.41 0.0 0 0 43.04 21.28
  Q 42.61 20.16 41.85 19.15
  A 2.37 1.97 51.9 0 1 41.94 16.11
  Q 42.81 15.39 43.85 15.91
  C 45.55 16.75 44.62 19.01 44.13 20.94
  A 0.40 0.40 0.0 0 0 44.79 21.34
  L 45.89 20.33
  A 1.31 1.30 23.9 0 1 46.76 20.00
  C 48.32 20.00 49.40 21.68 48.25 22.98
  Q 47.10 24.28 44.90 23.77
  A 0.57 0.57 0.0 0 0 44.19 24.31
  Q 44.17 25.10 43.86 25.87
  A 0.38 0.37 -1.1 0 0 44.36 26.35
  Q 46.04 25.60 46.87 25.90
  A 1.74 1.73 -62.0 0 1 47.68 28.57
  C 46.66 29.95 45.08 29.18 43.84 28.54
  A 0.60 0.59 28.4 0 0 43.05 28.77
  L 42.13 30.36
  A 0.82 0.82 0.0 0 0 42.32 31.40
  Q 46.86 35.19 44.91 40.56
  Q 44.27 42.32 40.14 46.31
  C 36.87 49.46 34.73 52.21 32.64 52.21
  C 30.54 52.21 28.40 49.47 25.13 46.32
  Q 20.99 42.33 20.35 40.58
  Q 18.39 35.21 22.93 31.41
  A 0.82 0.82 0.0 0 0 23.12 30.37
  L 22.20 28.78
  A 0.60 0.59 -28.4 0 0 21.41 28.55
  C 20.17 29.20 18.59 29.97 17.57 28.59
  A 1.74 1.73 62.0 0 1 18.37 25.92
  Q 19.20 25.62 20.88 26.36
  A 0.38 0.37 1.0 0 0 21.38 25.88
  Q 21.07 25.11 21.05 24.32
  A 0.57 0.57 0.0 0 0 20.34 23.79
  Q 18.14 24.30 16.99 23.00
  C 15.84 21.70 16.92 20.02 18.48 20.02
  A 1.31 1.30 -23.9 0 1 19.35 20.35
  L 20.45 21.35
  A 0.40 0.40 0.0 0 0 21.11 20.95
  C 20.61 19.02 19.68 16.77 21.38 15.92
  Q 22.42 15.40 23.29 16.12
  A 2.37 1.97 -52.0 0 1 23.39 19.16
  Q 22.63 20.17 22.20 21.29
  A 0.41 0.41 0.0 0 0 22.64 21.84
  Q 22.71 21.83 23.59 21.11
  C 26.74 18.53 28.93 25.34 23.03 23.88
  A 0.44 0.43 6.8 0 0 22.49 24.30
  L 22.49 26.06
  A 0.60 0.60 0.0 0 0 23.58 26.40
  Q 24.78 24.70 26.27 25.13
  Q 28.10 25.65 27.54 27.47
  Q 27.04 29.08 24.18 28.41
  A 0.39 0.39 0.0 0 0 23.75 28.98
  L 24.25 29.85
  A 0.97 0.97 0.0 0 0 25.32 30.31
  Q 29.33 29.36 32.44 32.09
  C 32.49 32.14 32.53 32.14 32.63 32.14
  Z
  M 26.18 40.26
  Q 27.48 41.00 29.20 40.43
  A 1.14 1.13 -39.1 0 1 30.10 40.52
  L 30.71 40.88
  A 0.39 0.39 0.0 0 0 31.28 40.45
  Q 30.55 37.54 28.41 36.33
  Q 26.26 35.11 23.39 35.98
  A 0.39 0.39 0.0 0 0 23.32 36.69
  L 23.94 37.03
  A 1.14 1.13 -81.8 0 1 24.48 37.76
  Q 24.88 39.52 26.18 40.26
  Z
  M 39.13 40.24
  Q 40.44 39.50 40.83 37.72
  A 1.15 1.14 81.6 0 1 41.37 36.99
  L 41.99 36.65
  A 0.39 0.39 0.0 0 0 41.91 35.94
  Q 39.03 35.07 36.88 36.30
  Q 34.74 37.53 34.02 40.45
  A 0.39 0.39 0.0 0 0 34.59 40.87
  L 35.20 40.51
  A 1.15 1.14 38.9 0 1 36.11 40.42
  Q 37.84 40.98 39.13 40.24
  Z
  M 32.64 45.50
  Q 32.61 45.50 32.57 45.50
  A 0.25 0.14 -14.3 0 1 32.43 45.46
  L 30.69 44.21
  A 0.29 0.28 4.1 0 0 30.27 44.57
  L 32.40 48.56
  A 0.20 0.04 15.7 0 0 32.54 48.63
  Q 32.57 48.64 32.61 48.64
  Q 32.65 48.64 32.68 48.63
  A 0.20 0.04 -14.5 0 0 32.82 48.56
  L 35.03 44.62
  A 0.29 0.28 -2.9 0 0 34.62 44.25
  L 32.85 45.46
  A 0.25 0.14 15.5 0 1 32.71 45.50
  Q 32.68 45.50 32.64 45.50
  Z"
/>
<path fill="#4d96b9" d="
  M 28.41 36.33
  Q 30.55 37.54 31.28 40.45
  A 0.39 0.39 0.0 0 1 30.71 40.88
  L 30.10 40.52
  A 1.14 1.13 -39.1 0 0 29.20 40.43
  Q 27.48 41.00 26.18 40.26
  Q 24.88 39.52 24.48 37.76
  A 1.14 1.13 -81.8 0 0 23.94 37.03
  L 23.32 36.69
  A 0.39 0.39 0.0 0 1 23.39 35.98
  Q 26.26 35.11 28.41 36.33
  Z"
/>
<path fill="#4d96b9" d="
  M 39.13 40.24
  Q 37.84 40.98 36.11 40.42
  A 1.15 1.14 38.9 0 0 35.20 40.51
  L 34.59 40.87
  A 0.39 0.39 0.0 0 1 34.02 40.45
  Q 34.74 37.53 36.88 36.30
  Q 39.03 35.07 41.91 35.94
  A 0.39 0.39 0.0 0 1 41.99 36.65
  L 41.37 36.99
  A 1.15 1.14 81.6 0 0 40.83 37.72
  Q 40.44 39.50 39.13 40.24
  Z"
/>
<path fill="#4d96b9" d="
  M 32.61 48.64
  Q 32.57 48.64 32.54 48.63
  A 0.20 0.04 15.7 0 1 32.40 48.56
  L 30.27 44.57
  A 0.29 0.28 4.1 0 1 30.69 44.21
  L 32.43 45.46
  A 0.25 0.14 -14.3 0 0 32.57 45.50
  Q 32.61 45.50 32.64 45.50
  Q 32.68 45.50 32.71 45.50
  A 0.25 0.14 15.5 0 0 32.85 45.46
  L 34.62 44.25
  A 0.29 0.28 -2.9 0 1 35.03 44.62
  L 32.82 48.56
  A 0.20 0.04 -14.5 0 1 32.68 48.63
  Q 32.65 48.64 32.61 48.64
  Z"
/>
</svg>
