<?xml version="1.0" encoding="UTF-8" standalone="no"?>
<!DOCTYPE svg PUBLIC "-//W3C//DTD SVG 1.1//EN" "http://www.w3.org/Graphics/SVG/1.1/DTD/svg11.dtd">
<svg xmlns="http://www.w3.org/2000/svg" version="1.1" viewBox="0.00 0.00 66.00 88.00">
<g stroke-width="2.00" fill="none" stroke-linecap="butt">
<path stroke="#38728d" vector-effect="non-scaling-stroke" d="
  M 33.40 86.72
  Q 33.52 86.72 33.61 86.69
  Q 33.70 86.67 33.78 86.59
  C 50.09 71.49 74.83 40.02 59.54 16.74
  C 53.75 7.93 44.43 2.50 33.53 2.48
  C 22.64 2.46 13.29 7.87 7.48 16.66
  C -7.88 39.89 16.76 71.44 33.02 86.59
  Q 33.10 86.67 33.19 86.69
  Q 33.28 86.72 33.40 86.72"
/>
<path stroke="#a6cad6" vector-effect="non-scaling-stroke" d="
  M 32.98 48.23
  Q 41.36 48.24 43.63 48.20
  C 46.28 48.16 47.93 47.47 48.57 45.00
  Q 48.90 43.73 50.46 35.93
  A 0.56 0.55 -84.1 0 0 49.92 35.26
  L 40.66 35.26
  A 0.27 0.27 0.0 0 1 40.40 34.93
  L 41.06 31.60
  A 0.46 0.45 -83.6 0 1 41.50 31.24
  L 50.89 31.24
  A 0.43 0.43 0.0 0 0 51.32 30.79
  Q 50.96 23.47 45.14 20.50
  C 41.89 18.84 38.22 19.26 32.99 19.25
  C 27.76 19.25 24.09 18.83 20.84 20.49
  Q 15.01 23.45 14.65 30.77
  A 0.43 0.43 0.0 0 0 15.08 31.22
  L 24.47 31.23
  A 0.46 0.45 83.6 0 1 24.91 31.59
  L 25.56 34.92
  A 0.27 0.27 0.0 0 1 25.30 35.25
  L 16.04 35.25
  A 0.56 0.55 84.1 0 0 15.50 35.91
  Q 17.06 43.72 17.38 44.99
  C 18.02 47.46 19.67 48.15 22.32 48.19
  Q 24.60 48.23 32.98 48.23"
/>
<path stroke="#a6cad6" vector-effect="non-scaling-stroke" d="
  M 33.00 41.26
  Q 34.92 41.26 35.14 41.26
  A 0.45 0.44 -5.0 0 0 35.57 40.75
  L 34.94 36.09
  A 1.09 1.06 64.8 0 1 35.25 35.18
  Q 37.46 33.05 36.85 31.28
  Q 35.63 27.74 32.98 27.74
  Q 30.34 27.75 29.13 31.29
  Q 28.52 33.06 30.74 35.19
  A 1.09 1.06 -64.9 0 1 31.05 36.10
  L 30.43 40.76
  A 0.45 0.44 4.8 0 0 30.87 41.26
  Q 31.09 41.27 33.00 41.26"
/>
</g>
<path fill="#234e60" d="
  M 33.80 88.00
  L 33.04 88.00
  C 21.96 77.93 11.89 65.48 5.64 51.57
  Q 2.20 43.91 1.60 34.88
  C -0.32 6.37 33.94 -9.19 54.87 9.42
  Q 63.12 16.75 64.91 27.09
  C 68.84 49.78 49.32 73.87 33.80 88.00
  Z
  M 33.40 86.72
  Q 33.52 86.72 33.61 86.69
  Q 33.70 86.67 33.78 86.59
  C 50.09 71.49 74.83 40.02 59.54 16.74
  C 53.75 7.93 44.43 2.50 33.53 2.48
  C 22.64 2.46 13.29 7.87 7.48 16.66
  C -7.88 39.89 16.76 71.44 33.02 86.59
  Q 33.10 86.67 33.19 86.69
  Q 33.28 86.72 33.40 86.72
  Z"
/>
<path fill="#4d96b9" d="
  M 33.53 2.48
  C 44.43 2.50 53.75 7.93 59.54 16.74
  C 74.83 40.02 50.09 71.49 33.78 86.59
  Q 33.70 86.67 33.61 86.69
  Q 33.52 86.72 33.40 86.72
  Q 33.28 86.72 33.19 86.69
  Q 33.10 86.67 33.02 86.59
  C 16.76 71.44 -7.88 39.89 7.48 16.66
  C 13.29 7.87 22.64 2.46 33.53 2.48
  Z
  M 32.98 48.23
  Q 41.36 48.24 43.63 48.20
  C 46.28 48.16 47.93 47.47 48.57 45.00
  Q 48.90 43.73 50.46 35.93
  A 0.56 0.55 -84.1 0 0 49.92 35.26
  L 40.66 35.26
  A 0.27 0.27 0.0 0 1 40.40 34.93
  L 41.06 31.60
  A 0.46 0.45 -83.6 0 1 41.50 31.24
  L 50.89 31.24
  A 0.43 0.43 0.0 0 0 51.32 30.79
  Q 50.96 23.47 45.14 20.50
  C 41.89 18.84 38.22 19.26 32.99 19.25
  C 27.76 19.25 24.09 18.83 20.84 20.49
  Q 15.01 23.45 14.65 30.77
  A 0.43 0.43 0.0 0 0 15.08 31.22
  L 24.47 31.23
  A 0.46 0.45 83.6 0 1 24.91 31.59
  L 25.56 34.92
  A 0.27 0.27 0.0 0 1 25.30 35.25
  L 16.04 35.25
  A 0.56 0.55 84.1 0 0 15.50 35.91
  Q 17.06 43.72 17.38 44.99
  C 18.02 47.46 19.67 48.15 22.32 48.19
  Q 24.60 48.23 32.98 48.23
  Z"
/>
<path fill="#fffef2" d="
  M 32.99 19.25
  C 38.22 19.26 41.89 18.84 45.14 20.50
  Q 50.96 23.47 51.32 30.79
  A 0.43 0.43 0.0 0 1 50.89 31.24
  L 41.50 31.24
  A 0.46 0.45 -83.6 0 0 41.06 31.60
  L 40.40 34.93
  A 0.27 0.27 0.0 0 0 40.66 35.26
  L 49.92 35.26
  A 0.56 0.55 -84.1 0 1 50.46 35.93
  Q 48.90 43.73 48.57 45.00
  C 47.93 47.47 46.28 48.16 43.63 48.20
  Q 41.36 48.24 32.98 48.23
  Q 24.60 48.23 22.32 48.19
  C 19.67 48.15 18.02 47.46 17.38 44.99
  Q 17.06 43.72 15.50 35.91
  A 0.56 0.55 84.1 0 1 16.04 35.25
  L 25.30 35.25
  A 0.27 0.27 0.0 0 0 25.56 34.92
  L 24.91 31.59
  A 0.46 0.45 83.6 0 0 24.47 31.23
  L 15.08 31.22
  A 0.43 0.43 0.0 0 1 14.65 30.77
  Q 15.01 23.45 20.84 20.49
  C 24.09 18.83 27.76 19.25 32.99 19.25
  Z
  M 33.00 41.26
  Q 34.92 41.26 35.14 41.26
  A 0.45 0.44 -5.0 0 0 35.57 40.75
  L 34.94 36.09
  A 1.09 1.06 64.8 0 1 35.25 35.18
  Q 37.46 33.05 36.85 31.28
  Q 35.63 27.74 32.98 27.74
  Q 30.34 27.75 29.13 31.29
  Q 28.52 33.06 30.74 35.19
  A 1.09 1.06 -64.9 0 1 31.05 36.10
  L 30.43 40.76
  A 0.45 0.44 4.8 0 0 30.87 41.26
  Q 31.09 41.27 33.00 41.26
  Z"
/>
<path fill="#4d96b9" d="
  M 32.98 27.74
  Q 35.63 27.74 36.85 31.28
  Q 37.46 33.05 35.25 35.18
  A 1.09 1.06 64.8 0 0 34.94 36.09
  L 35.57 40.75
  A 0.45 0.44 -5.0 0 1 35.14 41.26
  Q 34.92 41.26 33.00 41.26
  Q 31.09 41.27 30.87 41.26
  A 0.45 0.44 4.8 0 1 30.43 40.76
  L 31.05 36.10
  A 1.09 1.06 -64.9 0 0 30.74 35.19
  Q 28.52 33.06 29.13 31.29
  Q 30.34 27.75 32.98 27.74
  Z"
/>
</svg>
