<?xml version="1.0" encoding="UTF-8" standalone="no"?>
<!DOCTYPE svg PUBLIC "-//W3C//DTD SVG 1.1//EN" "http://www.w3.org/Graphics/SVG/1.1/DTD/svg11.dtd">
<svg xmlns="http://www.w3.org/2000/svg" version="1.1" viewBox="0.00 0.00 66.00 88.00">
<g stroke-width="2.00" fill="none" stroke-linecap="butt">
<path stroke="#313231" vector-effect="non-scaling-stroke" d="
  M 33.42 86.57
  C 33.90 86.57 33.62 86.61 33.80 86.43
  Q 48.52 72.88 57.64 56.40
  C 62.76 47.16 66.08 34.94 63.21 24.80
  C 59.89 13.05 49.82 4.48 37.75 2.91
  Q 34.61 2.50 33.52 2.50
  Q 32.43 2.50 29.29 2.90
  C 17.22 4.44 7.13 12.99 3.78 24.73
  C 0.89 34.87 4.18 47.09 9.28 56.35
  Q 18.36 72.85 33.04 86.43
  C 33.23 86.60 32.95 86.57 33.42 86.57"
/>
<path stroke="#a0a09a" vector-effect="non-scaling-stroke" d="
  M 23.47 25.79
  Q 25.52 21.14 29.00 19.50
  C 33.68 17.30 38.14 22.37 34.86 26.62
  C 31.74 30.66 28.37 33.32 28.82 40.03
  A 0.22 0.22 0.0 0 0 29.04 40.24
  L 33.92 40.24
  A 0.24 0.24 0.0 0 0 34.16 39.98
  Q 33.99 37.25 34.78 34.86
  A 4.82 4.76 73.3 0 1 35.50 33.50
  Q 35.63 33.33 39.56 30.12
  C 45.49 25.27 42.75 16.66 35.12 15.91
  Q 30.32 15.44 25.89 17.06
  A 1.17 1.14 50.9 0 1 24.84 16.94
  L 23.53 16.05
  A 0.41 0.41 0.0 0 0 22.90 16.39
  L 22.90 25.67
  A 0.30 0.30 0.0 0 0 23.47 25.79"
/>
<path stroke="#a0a09a" vector-effect="non-scaling-stroke" d="
  M 31.8412 45.1319
  A 0.49 0.49 0.0 0 0 31.1483 45.1283
  L 28.0919 48.1529
  A 0.49 0.49 0.0 0 0 28.0882 48.8459
  L 31.0988 51.8881
  A 0.49 0.49 0.0 0 0 31.7917 51.8917
  L 34.8481 48.8671
  A 0.49 0.49 0.0 0 0 34.8518 48.1741
  L 31.8412 45.1319"
/>
</g>
<path fill="#212221" d="
  M 33.80 88.00
  L 33.03 88.00
  C 16.93 73.36 -5.84 44.84 3.70 21.28
  Q 7.14 12.79 14.74 7.29
  C 26.83 -1.47 44.93 -0.62 55.87 10.33
  C 80.46 34.90 52.65 70.84 33.80 88.00
  Z
  M 33.42 86.57
  C 33.90 86.57 33.62 86.61 33.80 86.43
  Q 48.52 72.88 57.64 56.40
  C 62.76 47.16 66.08 34.94 63.21 24.80
  C 59.89 13.05 49.82 4.48 37.75 2.91
  Q 34.61 2.50 33.52 2.50
  Q 32.43 2.50 29.29 2.90
  C 17.22 4.44 7.13 12.99 3.78 24.73
  C 0.89 34.87 4.18 47.09 9.28 56.35
  Q 18.36 72.85 33.04 86.43
  C 33.23 86.60 32.95 86.57 33.42 86.57
  Z"
/>
<path fill="#414141" d="
  M 33.52 2.50
  Q 34.61 2.50 37.75 2.91
  C 49.82 4.48 59.89 13.05 63.21 24.80
  C 66.08 34.94 62.76 47.16 57.64 56.40
  Q 48.52 72.88 33.80 86.43
  C 33.62 86.61 33.90 86.57 33.42 86.57
  C 32.95 86.57 33.23 86.60 33.04 86.43
  Q 18.36 72.85 9.28 56.35
  C 4.18 47.09 0.89 34.87 3.78 24.73
  C 7.13 12.99 17.22 4.44 29.29 2.90
  Q 32.43 2.50 33.52 2.50
  Z
  M 23.47 25.79
  Q 25.52 21.14 29.00 19.50
  C 33.68 17.30 38.14 22.37 34.86 26.62
  C 31.74 30.66 28.37 33.32 28.82 40.03
  A 0.22 0.22 0.0 0 0 29.04 40.24
  L 33.92 40.24
  A 0.24 0.24 0.0 0 0 34.16 39.98
  Q 33.99 37.25 34.78 34.86
  A 4.82 4.76 73.3 0 1 35.50 33.50
  Q 35.63 33.33 39.56 30.12
  C 45.49 25.27 42.75 16.66 35.12 15.91
  Q 30.32 15.44 25.89 17.06
  A 1.17 1.14 50.9 0 1 24.84 16.94
  L 23.53 16.05
  A 0.41 0.41 0.0 0 0 22.90 16.39
  L 22.90 25.67
  A 0.30 0.30 0.0 0 0 23.47 25.79
  Z
  M 31.8412 45.1319
  A 0.49 0.49 0.0 0 0 31.1483 45.1283
  L 28.0919 48.1529
  A 0.49 0.49 0.0 0 0 28.0882 48.8459
  L 31.0988 51.8881
  A 0.49 0.49 0.0 0 0 31.7917 51.8917
  L 34.8481 48.8671
  A 0.49 0.49 0.0 0 0 34.8518 48.1741
  L 31.8412 45.1319
  Z"
/>
<path fill="#fffef2" d="
  M 22.90 25.67
  L 22.90 16.39
  A 0.41 0.41 0.0 0 1 23.53 16.05
  L 24.84 16.94
  A 1.17 1.14 50.9 0 0 25.89 17.06
  Q 30.32 15.44 35.12 15.91
  C 42.75 16.66 45.49 25.27 39.56 30.12
  Q 35.63 33.33 35.50 33.50
  A 4.82 4.76 73.3 0 0 34.78 34.86
  Q 33.99 37.25 34.16 39.98
  A 0.24 0.24 0.0 0 1 33.92 40.24
  L 29.04 40.24
  A 0.22 0.22 0.0 0 1 28.82 40.03
  C 28.37 33.32 31.74 30.66 34.86 26.62
  C 38.14 22.37 33.68 17.30 29.00 19.50
  Q 25.52 21.14 23.47 25.79
  A 0.30 0.30 0.0 0 1 22.90 25.67
  Z"
/>
<rect fill="#fffef2" x="-2.64" y="-2.63" transform="translate(31.47,48.51) rotate(-44.7)" width="5.28" height="5.26" rx="0.49"/>
</svg>
