<?xml version="1.0" encoding="UTF-8" standalone="no"?>
<!DOCTYPE svg PUBLIC "-//W3C//DTD SVG 1.1//EN" "http://www.w3.org/Graphics/SVG/1.1/DTD/svg11.dtd">
<svg xmlns="http://www.w3.org/2000/svg" version="1.1" viewBox="0.00 0.00 66.00 88.00">
<g stroke-width="2.00" fill="none" stroke-linecap="butt">
<path stroke="#38728d" vector-effect="non-scaling-stroke" d="
  M 33.40 86.72
  Q 33.52 86.72 33.61 86.69
  Q 33.70 86.67 33.78 86.59
  Q 47.30 73.98 56.30 58.78
  C 67.02 40.67 68.99 18.88 48.78 6.55
  Q 42.15 2.50 33.53 2.48
  Q 24.92 2.47 18.27 6.50
  C -1.98 18.77 -0.08 40.56 10.59 58.71
  Q 19.54 73.94 33.02 86.59
  Q 33.10 86.67 33.19 86.69
  Q 33.28 86.72 33.40 86.72"
/>
<path stroke="#a6cad6" vector-effect="non-scaling-stroke" d="
  M 14.91 15.91
  Q 14.65 16.17 14.95 17.27
  Q 17.09 25.32 17.50 26.90
  A 0.57 0.57 0.0 0 0 18.45 27.16
  L 20.71 24.90
  A 0.56 0.55 -44.6 0 1 21.50 24.90
  L 40.37 43.76
  A 1.09 1.09 0.0 0 1 40.69 44.53
  L 40.69 48.97
  A 1.27 1.27 0.0 0 0 41.84 50.23
  L 42.35 50.28
  A 1.51 1.51 0.0 0 0 44.00 48.79
  L 44.04 45.29
  A 0.13 0.02 -47.0 0 1 44.10 45.20
  Q 44.11 45.19 44.13 45.17
  Q 44.14 45.16 44.16 45.14
  A 0.13 0.02 -42.9 0 1 44.25 45.08
  L 47.75 45.05
  A 1.51 1.51 0.0 0 0 49.24 43.40
  L 49.19 42.89
  A 1.27 1.27 0.0 0 0 47.93 41.74
  L 43.49 41.73
  A 1.09 1.09 0.0 0 1 42.72 41.41
  L 23.89 22.51
  A 0.56 0.55 -45.3 0 1 23.89 21.72
  L 26.16 19.46
  A 0.57 0.57 0.0 0 0 25.90 18.51
  Q 24.32 18.10 16.28 15.95
  Q 15.17 15.65 14.91 15.91"
/>
<path stroke="#a6cad6" vector-effect="non-scaling-stroke" d="
  M 43.63 28.61
  L 39.83 32.41
  A 0.52 0.52 0.0 0 0 39.83 33.14
  L 41.51 34.82
  A 0.59 0.59 0.0 0 0 42.33 34.82
  L 50.98 26.16
  A 1.39 1.39 0.0 0 0 50.98 24.19
  L 50.76 23.97
  A 1.65 1.64 -44.9 0 0 48.43 23.97
  L 47.08 25.31
  A 0.72 0.71 -49.5 0 1 46.14 25.39
  Q 39.10 20.25 30.57 23.51
  A 0.18 0.17 -32.6 0 0 30.50 23.80
  L 32.89 26.19
  A 0.30 0.29 60.0 0 0 33.17 26.27
  Q 39.11 24.89 43.53 27.68
  A 0.60 0.60 0.0 0 1 43.63 28.61"
/>
<path stroke="#a6cad6" vector-effect="non-scaling-stroke" d="
  M 27.70 44.63
  A 0.60 0.59 -38.5 0 1 26.77 44.52
  Q 24.02 40.13 25.41 34.25
  A 0.30 0.29 30.2 0 0 25.33 33.97
  L 22.97 31.59
  A 0.18 0.17 -57.2 0 0 22.68 31.66
  Q 19.42 40.10 24.49 47.10
  A 0.72 0.71 -40.3 0 1 24.41 48.04
  L 23.08 49.37
  A 1.63 1.63 0.0 0 0 23.07 51.68
  L 23.29 51.90
  A 1.38 1.37 45.1 0 0 25.24 51.91
  L 33.86 43.36
  A 0.58 0.58 0.0 0 0 33.86 42.55
  L 32.20 40.87
  A 0.52 0.51 44.8 0 0 31.48 40.87
  L 27.70 44.63"
/>
</g>
<path fill="#234e60" d="
  M 33.80 88.00
  L 33.04 88.00
  C 22.05 78.01 11.70 65.35 5.65 51.56
  Q 2.12 43.51 1.56 34.89
  C 0.31 15.82 16.21 0.35 35.42 1.39
  C 52.14 2.29 65.73 16.28 65.47 33.04
  Q 65.36 40.24 63.04 47.02
  C 57.71 62.58 45.88 77.00 33.80 88.00
  Z
  M 33.40 86.72
  Q 33.52 86.72 33.61 86.69
  Q 33.70 86.67 33.78 86.59
  Q 47.30 73.98 56.30 58.78
  C 67.02 40.67 68.99 18.88 48.78 6.55
  Q 42.15 2.50 33.53 2.48
  Q 24.92 2.47 18.27 6.50
  C -1.98 18.77 -0.08 40.56 10.59 58.71
  Q 19.54 73.94 33.02 86.59
  Q 33.10 86.67 33.19 86.69
  Q 33.28 86.72 33.40 86.72
  Z"
/>
<path fill="#4d96b9" d="
  M 33.53 2.48
  Q 42.15 2.50 48.78 6.55
  C 68.99 18.88 67.02 40.67 56.30 58.78
  Q 47.30 73.98 33.78 86.59
  Q 33.70 86.67 33.61 86.69
  Q 33.52 86.72 33.40 86.72
  Q 33.28 86.72 33.19 86.69
  Q 33.10 86.67 33.02 86.59
  Q 19.54 73.94 10.59 58.71
  C -0.08 40.56 -1.98 18.77 18.27 6.50
  Q 24.92 2.47 33.53 2.48
  Z
  M 14.91 15.91
  Q 14.65 16.17 14.95 17.27
  Q 17.09 25.32 17.50 26.90
  A 0.57 0.57 0.0 0 0 18.45 27.16
  L 20.71 24.90
  A 0.56 0.55 -44.6 0 1 21.50 24.90
  L 40.37 43.76
  A 1.09 1.09 0.0 0 1 40.69 44.53
  L 40.69 48.97
  A 1.27 1.27 0.0 0 0 41.84 50.23
  L 42.35 50.28
  A 1.51 1.51 0.0 0 0 44.00 48.79
  L 44.04 45.29
  A 0.13 0.02 -47.0 0 1 44.10 45.20
  Q 44.11 45.19 44.13 45.17
  Q 44.14 45.16 44.16 45.14
  A 0.13 0.02 -42.9 0 1 44.25 45.08
  L 47.75 45.05
  A 1.51 1.51 0.0 0 0 49.24 43.40
  L 49.19 42.89
  A 1.27 1.27 0.0 0 0 47.93 41.74
  L 43.49 41.73
  A 1.09 1.09 0.0 0 1 42.72 41.41
  L 23.89 22.51
  A 0.56 0.55 -45.3 0 1 23.89 21.72
  L 26.16 19.46
  A 0.57 0.57 0.0 0 0 25.90 18.51
  Q 24.32 18.10 16.28 15.95
  Q 15.17 15.65 14.91 15.91
  Z
  M 43.63 28.61
  L 39.83 32.41
  A 0.52 0.52 0.0 0 0 39.83 33.14
  L 41.51 34.82
  A 0.59 0.59 0.0 0 0 42.33 34.82
  L 50.98 26.16
  A 1.39 1.39 0.0 0 0 50.98 24.19
  L 50.76 23.97
  A 1.65 1.64 -44.9 0 0 48.43 23.97
  L 47.08 25.31
  A 0.72 0.71 -49.5 0 1 46.14 25.39
  Q 39.10 20.25 30.57 23.51
  A 0.18 0.17 -32.6 0 0 30.50 23.80
  L 32.89 26.19
  A 0.30 0.29 60.0 0 0 33.17 26.27
  Q 39.11 24.89 43.53 27.68
  A 0.60 0.60 0.0 0 1 43.63 28.61
  Z
  M 27.70 44.63
  A 0.60 0.59 -38.5 0 1 26.77 44.52
  Q 24.02 40.13 25.41 34.25
  A 0.30 0.29 30.2 0 0 25.33 33.97
  L 22.97 31.59
  A 0.18 0.17 -57.2 0 0 22.68 31.66
  Q 19.42 40.10 24.49 47.10
  A 0.72 0.71 -40.3 0 1 24.41 48.04
  L 23.08 49.37
  A 1.63 1.63 0.0 0 0 23.07 51.68
  L 23.29 51.90
  A 1.38 1.37 45.1 0 0 25.24 51.91
  L 33.86 43.36
  A 0.58 0.58 0.0 0 0 33.86 42.55
  L 32.20 40.87
  A 0.52 0.51 44.8 0 0 31.48 40.87
  L 27.70 44.63
  Z"
/>
<path fill="#fffef2" d="
  M 44.13 45.17
  Q 44.11 45.19 44.10 45.20
  A 0.13 0.02 -47.0 0 0 44.04 45.29
  L 44.00 48.79
  A 1.51 1.51 0.0 0 1 42.35 50.28
  L 41.84 50.23
  A 1.27 1.27 0.0 0 1 40.69 48.97
  L 40.69 44.53
  A 1.09 1.09 0.0 0 0 40.37 43.76
  L 21.50 24.90
  A 0.56 0.55 -44.6 0 0 20.71 24.90
  L 18.45 27.16
  A 0.57 0.57 0.0 0 1 17.50 26.90
  Q 17.09 25.32 14.95 17.27
  Q 14.65 16.17 14.91 15.91
  Q 15.17 15.65 16.28 15.95
  Q 24.32 18.10 25.90 18.51
  A 0.57 0.57 0.0 0 1 26.16 19.46
  L 23.89 21.72
  A 0.56 0.55 -45.3 0 0 23.89 22.51
  L 42.72 41.41
  A 1.09 1.09 0.0 0 0 43.49 41.73
  L 47.93 41.74
  A 1.27 1.27 0.0 0 1 49.19 42.89
  L 49.24 43.40
  A 1.51 1.51 0.0 0 1 47.75 45.05
  L 44.25 45.08
  A 0.13 0.02 -42.9 0 0 44.16 45.14
  Q 44.14 45.16 44.13 45.17
  Z"
/>
<path fill="#fffef2" d="
  M 43.53 27.68
  Q 39.11 24.89 33.17 26.27
  A 0.30 0.29 60.0 0 1 32.89 26.19
  L 30.50 23.80
  A 0.18 0.17 -32.6 0 1 30.57 23.51
  Q 39.10 20.25 46.14 25.39
  A 0.72 0.71 -49.5 0 0 47.08 25.31
  L 48.43 23.97
  A 1.65 1.64 -44.9 0 1 50.76 23.97
  L 50.98 24.19
  A 1.39 1.39 0.0 0 1 50.98 26.16
  L 42.33 34.82
  A 0.59 0.59 0.0 0 1 41.51 34.82
  L 39.83 33.14
  A 0.52 0.52 0.0 0 1 39.83 32.41
  L 43.63 28.61
  A 0.60 0.60 0.0 0 0 43.53 27.68
  Z"
/>
<path fill="#fffef2" d="
  M 27.70 44.63
  L 31.48 40.87
  A 0.52 0.51 44.8 0 1 32.20 40.87
  L 33.86 42.55
  A 0.58 0.58 0.0 0 1 33.86 43.36
  L 25.24 51.91
  A 1.38 1.37 45.1 0 1 23.29 51.90
  L 23.07 51.68
  A 1.63 1.63 0.0 0 1 23.08 49.37
  L 24.41 48.04
  A 0.72 0.71 -40.3 0 0 24.49 47.10
  Q 19.42 40.10 22.68 31.66
  A 0.18 0.17 -57.2 0 1 22.97 31.59
  L 25.33 33.97
  A 0.30 0.29 30.2 0 1 25.41 34.25
  Q 24.02 40.13 26.77 44.52
  A 0.60 0.59 -38.5 0 0 27.70 44.63
  Z"
/>
</svg>
