<?xml version="1.0" encoding="UTF-8" standalone="no"?>
<!DOCTYPE svg PUBLIC "-//W3C//DTD SVG 1.1//EN" "http://www.w3.org/Graphics/SVG/1.1/DTD/svg11.dtd">
<svg xmlns="http://www.w3.org/2000/svg" version="1.1" viewBox="0.00 0.00 66.00 88.00">
<g stroke-width="2.00" fill="none" stroke-linecap="butt">
<path stroke="#574f7b" vector-effect="non-scaling-stroke" d="
  M 33.40 86.69
  Q 33.54 86.69 33.68 86.66
  A 0.11 0.08 10.6 0 0 33.73 86.63
  Q 48.88 72.33 57.75 56.27
  C 64.39 44.26 67.65 28.24 59.14 16.08
  C 53.25 7.65 44.12 2.52 33.54 2.51
  C 22.96 2.49 13.82 7.59 7.89 15.99
  C -0.65 28.13 2.55 44.16 9.15 56.19
  Q 17.97 72.28 33.07 86.63
  A 0.11 0.08 -10.4 0 0 33.13 86.65
  Q 33.26 86.69 33.40 86.69"
/>
<path stroke="#bab0c7" vector-effect="non-scaling-stroke" d="
  M 38.75 21.26
  A 5.45 5.45 0.0 0 0 33.30 15.81
  L 32.80 15.81
  A 5.45 5.45 0.0 0 0 27.35 21.26
  L 27.35 34.74
  A 5.45 5.45 0.0 0 0 32.80 40.19
  L 33.30 40.19
  A 5.45 5.45 0.0 0 0 38.75 34.74
  L 38.75 21.26"
/>
<path stroke="#bab0c7" vector-effect="non-scaling-stroke" d="
  M 33.03 51.50
  Q 39.47 51.50 39.52 51.49
  A 0.70 0.70 0.0 0 0 40.17 50.80
  L 40.18 49.35
  A 0.61 0.61 0.0 0 0 39.57 48.74
  L 35.31 48.74
  A 1.28 1.27 -51.2 0 1 35.04 46.22
  Q 44.33 44.16 45.01 34.19
  Q 45.05 33.66 45.05 28.54
  A 0.55 0.54 0.0 0 0 44.50 28.00
  L 42.92 28.00
  A 0.53 0.53 0.0 0 0 42.39 28.55
  Q 42.57 34.27 42.35 35.77
  C 41.66 40.39 37.78 43.93 33.03 43.93
  C 28.28 43.93 24.40 40.39 23.72 35.77
  Q 23.50 34.27 23.68 28.55
  A 0.53 0.53 0.0 0 0 23.15 28.00
  L 21.57 27.99
  A 0.55 0.54 0.0 0 0 21.02 28.53
  Q 21.02 33.65 21.06 34.18
  Q 21.73 44.15 31.02 46.22
  A 1.28 1.27 51.2 0 1 30.75 48.74
  L 26.49 48.74
  A 0.61 0.61 0.0 0 0 25.88 49.35
  L 25.89 50.80
  A 0.70 0.70 0.0 0 0 26.54 51.49
  Q 26.59 51.50 33.03 51.50"
/>
</g>
<path fill="#3a3555" d="
  M 33.81 88.00
  L 33.11 88.00
  Q 16.24 72.95 6.69 54.04
  Q 3.49 47.70 2.05 39.26
  Q 0.43 29.82 3.56 21.67
  C 9.79 5.46 28.21 -2.77 44.70 3.35
  Q 56.22 7.62 62.02 18.55
  C 67.42 28.74 65.92 41.10 61.31 51.54
  C 55.20 65.39 44.95 77.83 33.81 88.00
  Z
  M 33.40 86.69
  Q 33.54 86.69 33.68 86.66
  A 0.11 0.08 10.6 0 0 33.73 86.63
  Q 48.88 72.33 57.75 56.27
  C 64.39 44.26 67.65 28.24 59.14 16.08
  C 53.25 7.65 44.12 2.52 33.54 2.51
  C 22.96 2.49 13.82 7.59 7.89 15.99
  C -0.65 28.13 2.55 44.16 9.15 56.19
  Q 17.97 72.28 33.07 86.63
  A 0.11 0.08 -10.4 0 0 33.13 86.65
  Q 33.26 86.69 33.40 86.69
  Z"
/>
<path fill="#7468a1" d="
  M 33.54 2.51
  C 44.12 2.52 53.25 7.65 59.14 16.08
  C 67.65 28.24 64.39 44.26 57.75 56.27
  Q 48.88 72.33 33.73 86.63
  A 0.11 0.08 10.6 0 1 33.68 86.66
  Q 33.54 86.69 33.40 86.69
  Q 33.26 86.69 33.13 86.65
  A 0.11 0.08 -10.4 0 1 33.07 86.63
  Q 17.97 72.28 9.15 56.19
  C 2.55 44.16 -0.65 28.13 7.89 15.99
  C 13.82 7.59 22.96 2.49 33.54 2.51
  Z
  M 38.75 21.26
  A 5.45 5.45 0.0 0 0 33.30 15.81
  L 32.80 15.81
  A 5.45 5.45 0.0 0 0 27.35 21.26
  L 27.35 34.74
  A 5.45 5.45 0.0 0 0 32.80 40.19
  L 33.30 40.19
  A 5.45 5.45 0.0 0 0 38.75 34.74
  L 38.75 21.26
  Z
  M 33.03 51.50
  Q 39.47 51.50 39.52 51.49
  A 0.70 0.70 0.0 0 0 40.17 50.80
  L 40.18 49.35
  A 0.61 0.61 0.0 0 0 39.57 48.74
  L 35.31 48.74
  A 1.28 1.27 -51.2 0 1 35.04 46.22
  Q 44.33 44.16 45.01 34.19
  Q 45.05 33.66 45.05 28.54
  A 0.55 0.54 0.0 0 0 44.50 28.00
  L 42.92 28.00
  A 0.53 0.53 0.0 0 0 42.39 28.55
  Q 42.57 34.27 42.35 35.77
  C 41.66 40.39 37.78 43.93 33.03 43.93
  C 28.28 43.93 24.40 40.39 23.72 35.77
  Q 23.50 34.27 23.68 28.55
  A 0.53 0.53 0.0 0 0 23.15 28.00
  L 21.57 27.99
  A 0.55 0.54 0.0 0 0 21.02 28.53
  Q 21.02 33.65 21.06 34.18
  Q 21.73 44.15 31.02 46.22
  A 1.28 1.27 51.2 0 1 30.75 48.74
  L 26.49 48.74
  A 0.61 0.61 0.0 0 0 25.88 49.35
  L 25.89 50.80
  A 0.70 0.70 0.0 0 0 26.54 51.49
  Q 26.59 51.50 33.03 51.50
  Z"
/>
<rect fill="#fff8ec" x="27.35" y="15.81" width="11.40" height="24.38" rx="5.45"/>
<path fill="#fff8ec" d="
  M 33.03 43.93
  C 37.78 43.93 41.66 40.39 42.35 35.77
  Q 42.57 34.27 42.39 28.55
  A 0.53 0.53 0.0 0 1 42.92 28.00
  L 44.50 28.00
  A 0.55 0.54 0.0 0 1 45.05 28.54
  Q 45.05 33.66 45.01 34.19
  Q 44.33 44.16 35.04 46.22
  A 1.28 1.27 -51.2 0 0 35.31 48.74
  L 39.57 48.74
  A 0.61 0.61 0.0 0 1 40.18 49.35
  L 40.17 50.80
  A 0.70 0.70 0.0 0 1 39.52 51.49
  Q 39.47 51.50 33.03 51.50
  Q 26.59 51.50 26.54 51.49
  A 0.70 0.70 0.0 0 1 25.89 50.80
  L 25.88 49.35
  A 0.61 0.61 0.0 0 1 26.49 48.74
  L 30.75 48.74
  A 1.28 1.27 51.2 0 0 31.02 46.22
  Q 21.73 44.15 21.06 34.18
  Q 21.02 33.65 21.02 28.53
  A 0.55 0.54 0.0 0 1 21.57 27.99
  L 23.15 28.00
  A 0.53 0.53 0.0 0 1 23.68 28.55
  Q 23.50 34.27 23.72 35.77
  C 24.40 40.39 28.28 43.93 33.03 43.93
  Z"
/>
</svg>
