<?xml version="1.0" encoding="UTF-8" standalone="no"?>
<!DOCTYPE svg PUBLIC "-//W3C//DTD SVG 1.1//EN" "http://www.w3.org/Graphics/SVG/1.1/DTD/svg11.dtd">
<svg xmlns="http://www.w3.org/2000/svg" version="1.1" viewBox="0.00 0.00 66.00 88.00">
<g stroke-width="2.00" fill="none" stroke-linecap="butt">
<path stroke="#428270" vector-effect="non-scaling-stroke" d="
  M 33.40 86.73
  Q 33.51 86.73 33.65 86.61
  C 51.56 69.99 78.92 34.72 55.05 11.22
  C 49.44 5.70 41.64 2.47 33.53 2.46
  C 25.42 2.45 17.61 5.65 11.99 11.15
  C -11.96 34.58 15.30 69.94 33.16 86.61
  Q 33.29 86.73 33.40 86.73"
/>
<path stroke="#add5c4" vector-effect="non-scaling-stroke" d="
  M 28.13 19.49
  L 37.79 19.49
  A 0.52 0.52 0.0 0 0 38.31 18.97
  L 38.31 18.47
  A 2.72 2.63 90.0 0 0 35.68 15.75
  L 30.24 15.75
  A 2.72 2.63 -90.0 0 0 27.61 18.47
  L 27.61 18.97
  A 0.52 0.52 0.0 0 0 28.13 19.49"
/>
<path stroke="#add5c4" vector-effect="non-scaling-stroke" d="
  M 32.97 52.24
  C 36.28 52.24 38.97 49.85 39.01 46.69
  Q 39.15 36.11 39.15 27.05
  A 0.94 0.93 -15.0 0 1 39.62 26.24
  L 40.39 25.79
  A 1.43 1.43 0.0 0 0 39.82 23.12
  Q 38.55 22.99 32.98 22.99
  Q 27.41 22.99 26.14 23.12
  A 1.43 1.43 0.0 0 0 25.57 25.79
  L 26.34 26.24
  A 0.94 0.93 15.0 0 1 26.81 27.05
  Q 26.81 36.11 26.94 46.69
  C 26.98 49.84 29.67 52.24 32.97 52.24"
/>
</g>
<path fill="#2a584b" d="
  M 33.80 88.00
  L 33.04 88.00
  C 21.76 77.75 12.06 65.61 5.65 51.56
  Q 2.16 43.89 1.59 34.89
  C 0.30 14.45 18.38 -1.50 38.76 1.77
  C 49.09 3.42 57.95 10.06 62.45 19.41
  C 74.04 43.47 50.33 72.95 33.80 88.00
  Z
  M 33.40 86.73
  Q 33.51 86.73 33.65 86.61
  C 51.56 69.99 78.92 34.72 55.05 11.22
  C 49.44 5.70 41.64 2.47 33.53 2.46
  C 25.42 2.45 17.61 5.65 11.99 11.15
  C -11.96 34.58 15.30 69.94 33.16 86.61
  Q 33.29 86.73 33.40 86.73
  Z"
/>
<path fill="#5aab95" d="
  M 33.53 2.46
  C 41.64 2.47 49.44 5.70 55.05 11.22
  C 78.92 34.72 51.56 69.99 33.65 86.61
  Q 33.51 86.73 33.40 86.73
  Q 33.29 86.73 33.16 86.61
  C 15.30 69.94 -11.96 34.58 11.99 11.15
  C 17.61 5.65 25.42 2.45 33.53 2.46
  Z
  M 28.13 19.49
  L 37.79 19.49
  A 0.52 0.52 0.0 0 0 38.31 18.97
  L 38.31 18.47
  A 2.72 2.63 90.0 0 0 35.68 15.75
  L 30.24 15.75
  A 2.72 2.63 -90.0 0 0 27.61 18.47
  L 27.61 18.97
  A 0.52 0.52 0.0 0 0 28.13 19.49
  Z
  M 32.97 52.24
  C 36.28 52.24 38.97 49.85 39.01 46.69
  Q 39.15 36.11 39.15 27.05
  A 0.94 0.93 -15.0 0 1 39.62 26.24
  L 40.39 25.79
  A 1.43 1.43 0.0 0 0 39.82 23.12
  Q 38.55 22.99 32.98 22.99
  Q 27.41 22.99 26.14 23.12
  A 1.43 1.43 0.0 0 0 25.57 25.79
  L 26.34 26.24
  A 0.94 0.93 15.0 0 1 26.81 27.05
  Q 26.81 36.11 26.94 46.69
  C 26.98 49.84 29.67 52.24 32.97 52.24
  Z"
/>
<path fill="#fffef2" d="
  M 28.13 19.49
  A 0.52 0.52 0.0 0 1 27.61 18.97
  L 27.61 18.47
  A 2.72 2.63 90.0 0 1 30.24 15.75
  L 35.68 15.75
  A 2.72 2.63 -90.0 0 1 38.31 18.47
  L 38.31 18.97
  A 0.52 0.52 0.0 0 1 37.79 19.49
  L 28.13 19.49
  Z"
/>
<path fill="#fffef2" d="
  M 32.98 22.99
  Q 38.55 22.99 39.82 23.12
  A 1.43 1.43 0.0 0 1 40.39 25.79
  L 39.62 26.24
  A 0.94 0.93 -15.0 0 0 39.15 27.05
  Q 39.15 36.11 39.01 46.69
  C 38.97 49.85 36.28 52.24 32.97 52.24
  C 29.67 52.24 26.98 49.84 26.94 46.69
  Q 26.81 36.11 26.81 27.05
  A 0.94 0.93 15.0 0 0 26.34 26.24
  L 25.57 25.79
  A 1.43 1.43 0.0 0 1 26.14 23.12
  Q 27.41 22.99 32.98 22.99
  Z"
/>
</svg>
