<?xml version="1.0" encoding="UTF-8" standalone="no"?>
<!DOCTYPE svg PUBLIC "-//W3C//DTD SVG 1.1//EN" "http://www.w3.org/Graphics/SVG/1.1/DTD/svg11.dtd">
<svg xmlns="http://www.w3.org/2000/svg" version="1.1" viewBox="0.00 0.00 66.00 88.00">
<g stroke-width="2.00" fill="none" stroke-linecap="butt">
<path stroke="#428270" vector-effect="non-scaling-stroke" d="
  M 33.40 86.73
  Q 33.51 86.73 33.65 86.60
  Q 47.84 73.45 56.64 58.17
  C 67.06 40.10 68.78 18.65 48.75 6.52
  Q 42.07 2.47 33.54 2.46
  Q 25.00 2.44 18.31 6.47
  C -1.76 18.53 -0.11 39.99 10.25 58.09
  Q 19.00 73.40 33.15 86.60
  Q 33.29 86.73 33.40 86.73"
/>
<path stroke="#add5c4" vector-effect="non-scaling-stroke" d="
  M 32.64 29.45
  Q 33.40 29.45 34.21 28.48
  Q 37.60 24.41 40.61 20.25
  A 1.79 1.76 60.8 0 0 40.95 19.01
  Q 40.81 17.46 39.34 16.19
  A 1.88 1.85 69.0 0 0 38.40 15.76
  Q 38.38 15.76 32.63 15.76
  Q 26.89 15.77 26.87 15.77
  A 1.88 1.85 -69.1 0 0 25.93 16.20
  Q 24.46 17.47 24.32 19.02
  A 1.79 1.76 -60.9 0 0 24.66 20.26
  Q 27.68 24.42 31.07 28.48
  Q 31.88 29.45 32.64 29.45"
/>
<path stroke="#add5c4" vector-effect="non-scaling-stroke" d="
  M 32.66 52.21
  C 46.83 52.18 51.87 34.73 40.87 26.39
  A 0.47 0.47 0.0 0 0 40.18 26.53
  L 38.79 28.94
  A 0.33 0.32 33.9 0 0 38.88 29.37
  C 47.28 35.63 42.92 48.68 32.65 48.70
  C 22.38 48.72 17.97 35.69 26.35 29.39
  A 0.33 0.32 -34.1 0 0 26.44 28.96
  L 25.04 26.56
  A 0.47 0.47 0.0 0 0 24.35 26.42
  C 13.39 34.80 18.48 52.23 32.66 52.21"
/>
</g>
<path fill="#2a584b" d="
  M 33.78 88.00
  L 33.04 88.00
  C 16.78 73.22 -6.38 44.18 4.06 20.44
  C 11.66 3.15 32.58 -3.77 49.13 5.36
  C 59.52 11.09 65.83 21.89 65.44 33.87
  Q 65.18 41.79 62.33 49.06
  C 56.52 63.86 45.51 77.38 33.78 88.00
  Z
  M 33.40 86.73
  Q 33.51 86.73 33.65 86.60
  Q 47.84 73.45 56.64 58.17
  C 67.06 40.10 68.78 18.65 48.75 6.52
  Q 42.07 2.47 33.54 2.46
  Q 25.00 2.44 18.31 6.47
  C -1.76 18.53 -0.11 39.99 10.25 58.09
  Q 19.00 73.40 33.15 86.60
  Q 33.29 86.73 33.40 86.73
  Z"
/>
<path fill="#5aab95" d="
  M 33.54 2.46
  Q 42.07 2.47 48.75 6.52
  C 68.78 18.65 67.06 40.10 56.64 58.17
  Q 47.84 73.45 33.65 86.60
  Q 33.51 86.73 33.40 86.73
  Q 33.29 86.73 33.15 86.60
  Q 19.00 73.40 10.25 58.09
  C -0.11 39.99 -1.76 18.53 18.31 6.47
  Q 25.00 2.44 33.54 2.46
  Z
  M 32.64 29.45
  Q 33.40 29.45 34.21 28.48
  Q 37.60 24.41 40.61 20.25
  A 1.79 1.76 60.8 0 0 40.95 19.01
  Q 40.81 17.46 39.34 16.19
  A 1.88 1.85 69.0 0 0 38.40 15.76
  Q 38.38 15.76 32.63 15.76
  Q 26.89 15.77 26.87 15.77
  A 1.88 1.85 -69.1 0 0 25.93 16.20
  Q 24.46 17.47 24.32 19.02
  A 1.79 1.76 -60.9 0 0 24.66 20.26
  Q 27.68 24.42 31.07 28.48
  Q 31.88 29.45 32.64 29.45
  Z
  M 32.66 52.21
  C 46.83 52.18 51.87 34.73 40.87 26.39
  A 0.47 0.47 0.0 0 0 40.18 26.53
  L 38.79 28.94
  A 0.33 0.32 33.9 0 0 38.88 29.37
  C 47.28 35.63 42.92 48.68 32.65 48.70
  C 22.38 48.72 17.97 35.69 26.35 29.39
  A 0.33 0.32 -34.1 0 0 26.44 28.96
  L 25.04 26.56
  A 0.47 0.47 0.0 0 0 24.35 26.42
  C 13.39 34.80 18.48 52.23 32.66 52.21
  Z"
/>
<path fill="#fffef2" d="
  M 32.63 15.76
  Q 38.38 15.76 38.40 15.76
  A 1.88 1.85 69.0 0 1 39.34 16.19
  Q 40.81 17.46 40.95 19.01
  A 1.79 1.76 60.8 0 1 40.61 20.25
  Q 37.60 24.41 34.21 28.48
  Q 33.40 29.45 32.64 29.45
  Q 31.88 29.45 31.07 28.48
  Q 27.68 24.42 24.66 20.26
  A 1.79 1.76 -60.9 0 1 24.32 19.02
  Q 24.46 17.47 25.93 16.20
  A 1.88 1.85 -69.1 0 1 26.87 15.77
  Q 26.89 15.77 32.63 15.76
  Z"
/>
<path fill="#fffef2" d="
  M 32.65 48.70
  C 42.92 48.68 47.28 35.63 38.88 29.37
  A 0.33 0.32 33.9 0 1 38.79 28.94
  L 40.18 26.53
  A 0.47 0.47 0.0 0 1 40.87 26.39
  C 51.87 34.73 46.83 52.18 32.66 52.21
  C 18.48 52.23 13.39 34.80 24.35 26.42
  A 0.47 0.47 0.0 0 1 25.04 26.56
  L 26.44 28.96
  A 0.33 0.32 -34.1 0 1 26.35 29.39
  C 17.97 35.69 22.38 48.72 32.65 48.70
  Z"
/>
</svg>
