<?xml version="1.0" encoding="UTF-8" standalone="no"?>
<!DOCTYPE svg PUBLIC "-//W3C//DTD SVG 1.1//EN" "http://www.w3.org/Graphics/SVG/1.1/DTD/svg11.dtd">
<svg xmlns="http://www.w3.org/2000/svg" version="1.1" viewBox="0.00 0.00 66.00 88.00">
<g stroke-width="2.00" fill="none" stroke-linecap="butt">
<path stroke="#38728d" vector-effect="non-scaling-stroke" d="
  M 33.40 86.72
  Q 33.51 86.72 33.61 86.69
  Q 33.69 86.67 33.77 86.59
  Q 48.61 72.78 57.71 56.24
  C 64.71 43.51 67.64 27.65 58.75 15.51
  C 52.80 7.39 43.82 2.49 33.54 2.48
  C 23.25 2.46 14.26 7.33 8.29 15.42
  C -0.65 27.54 2.23 43.41 9.19 56.16
  Q 18.24 72.73 33.03 86.59
  Q 33.11 86.67 33.19 86.69
  Q 33.29 86.72 33.40 86.72"
/>
<path stroke="#a6cad6" vector-effect="non-scaling-stroke" d="
  M 32.60 52.26
  Q 33.96 52.26 35.74 51.17
  Q 44.05 46.06 46.71 36.98
  A 4.09 3.85 55.4 0 0 46.87 35.93
  Q 46.95 30.36 46.92 19.03
  C 46.91 17.24 47.17 15.83 44.75 15.79
  Q 43.83 15.78 32.63 15.76
  Q 21.44 15.75 20.52 15.77
  C 18.10 15.80 18.36 17.21 18.34 19.00
  Q 18.29 30.33 18.36 35.90
  A 4.09 3.85 -55.3 0 0 18.52 36.95
  Q 21.16 46.04 29.46 51.16
  Q 31.24 52.26 32.60 52.26"
/>
<path stroke="#a6cad6" vector-effect="non-scaling-stroke" d="
  M 32.59 47.15
  Q 33.00 47.15 33.05 47.13
  Q 39.97 43.41 42.03 35.64
  A 3.12 2.98 -38.5 0 0 42.14 34.83
  L 42.14 21.22
  A 0.65 0.65 0.0 0 0 41.55 20.58
  Q 41.00 20.50 32.65 20.48
  Q 24.30 20.47 23.74 20.54
  A 0.65 0.65 0.0 0 0 23.15 21.18
  L 23.09 34.79
  A 3.12 2.98 38.8 0 0 23.20 35.60
  Q 25.22 43.38 32.13 47.12
  Q 32.18 47.15 32.59 47.15"
/>
<path stroke="#a6cad6" vector-effect="non-scaling-stroke" d="
  M 37.65 24.52
  L 27.63 24.50
  A 0.44 0.44 0.0 0 0 27.18 24.94
  L 27.18 29.81
  A 12.09 5.32 -89.9 0 0 32.47 41.91
  L 32.73 41.91
  A 12.09 5.32 -89.9 0 0 38.08 29.83
  L 38.08 24.96
  A 0.44 0.44 0.0 0 0 37.65 24.52"
/>
</g>
<path fill="#234e61" d="
  M 33.78 88.00
  L 33.04 88.00
  C 16.75 73.19 -6.39 44.16 4.07 20.41
  C 11.67 3.13 32.69 -3.81 49.21 5.40
  Q 61.32 12.16 64.81 26.23
  Q 66.13 31.51 64.78 40.20
  Q 63.45 48.80 57.55 58.84
  Q 47.97 75.17 33.78 88.00
  Z
  M 33.40 86.72
  Q 33.51 86.72 33.61 86.69
  Q 33.69 86.67 33.77 86.59
  Q 48.61 72.78 57.71 56.24
  C 64.71 43.51 67.64 27.65 58.75 15.51
  C 52.80 7.39 43.82 2.49 33.54 2.48
  C 23.25 2.46 14.26 7.33 8.29 15.42
  C -0.65 27.54 2.23 43.41 9.19 56.16
  Q 18.24 72.73 33.03 86.59
  Q 33.11 86.67 33.19 86.69
  Q 33.29 86.72 33.40 86.72
  Z"
/>
<path fill="#4d96b9" d="
  M 33.54 2.48
  C 43.82 2.49 52.80 7.39 58.75 15.51
  C 67.64 27.65 64.71 43.51 57.71 56.24
  Q 48.61 72.78 33.77 86.59
  Q 33.69 86.67 33.61 86.69
  Q 33.51 86.72 33.40 86.72
  Q 33.29 86.72 33.19 86.69
  Q 33.11 86.67 33.03 86.59
  Q 18.24 72.73 9.19 56.16
  C 2.23 43.41 -0.65 27.54 8.29 15.42
  C 14.26 7.33 23.25 2.46 33.54 2.48
  Z
  M 32.60 52.26
  Q 33.96 52.26 35.74 51.17
  Q 44.05 46.06 46.71 36.98
  A 4.09 3.85 55.4 0 0 46.87 35.93
  Q 46.95 30.36 46.92 19.03
  C 46.91 17.24 47.17 15.83 44.75 15.79
  Q 43.83 15.78 32.63 15.76
  Q 21.44 15.75 20.52 15.77
  C 18.10 15.80 18.36 17.21 18.34 19.00
  Q 18.29 30.33 18.36 35.90
  A 4.09 3.85 -55.3 0 0 18.52 36.95
  Q 21.16 46.04 29.46 51.16
  Q 31.24 52.26 32.60 52.26
  Z"
/>
<path fill="#fffef2" d="
  M 32.63 15.76
  Q 43.83 15.78 44.75 15.79
  C 47.17 15.83 46.91 17.24 46.92 19.03
  Q 46.95 30.36 46.87 35.93
  A 4.09 3.85 55.4 0 1 46.71 36.98
  Q 44.05 46.06 35.74 51.17
  Q 33.96 52.26 32.60 52.26
  Q 31.24 52.26 29.46 51.16
  Q 21.16 46.04 18.52 36.95
  A 4.09 3.85 -55.3 0 1 18.36 35.90
  Q 18.29 30.33 18.34 19.00
  C 18.36 17.21 18.10 15.80 20.52 15.77
  Q 21.44 15.75 32.63 15.76
  Z
  M 32.59 47.15
  Q 33.00 47.15 33.05 47.13
  Q 39.97 43.41 42.03 35.64
  A 3.12 2.98 -38.5 0 0 42.14 34.83
  L 42.14 21.22
  A 0.65 0.65 0.0 0 0 41.55 20.58
  Q 41.00 20.50 32.65 20.48
  Q 24.30 20.47 23.74 20.54
  A 0.65 0.65 0.0 0 0 23.15 21.18
  L 23.09 34.79
  A 3.12 2.98 38.8 0 0 23.20 35.60
  Q 25.22 43.38 32.13 47.12
  Q 32.18 47.15 32.59 47.15
  Z"
/>
<path fill="#4d96b9" d="
  M 32.65 20.48
  Q 41.00 20.50 41.55 20.58
  A 0.65 0.65 0.0 0 1 42.14 21.22
  L 42.14 34.83
  A 3.12 2.98 -38.5 0 1 42.03 35.64
  Q 39.97 43.41 33.05 47.13
  Q 33.00 47.15 32.59 47.15
  Q 32.18 47.15 32.13 47.12
  Q 25.22 43.38 23.20 35.60
  A 3.12 2.98 38.8 0 1 23.09 34.79
  L 23.15 21.18
  A 0.65 0.65 0.0 0 1 23.74 20.54
  Q 24.30 20.47 32.65 20.48
  Z
  M 37.65 24.52
  L 27.63 24.50
  A 0.44 0.44 0.0 0 0 27.18 24.94
  L 27.18 29.81
  A 12.09 5.32 -89.9 0 0 32.47 41.91
  L 32.73 41.91
  A 12.09 5.32 -89.9 0 0 38.08 29.83
  L 38.08 24.96
  A 0.44 0.44 0.0 0 0 37.65 24.52
  Z"
/>
<path fill="#fffef2" d="
  M 37.65 24.52
  A 0.44 0.44 0.0 0 1 38.08 24.96
  L 38.08 29.83
  A 12.09 5.32 -89.9 0 1 32.73 41.91
  L 32.47 41.91
  A 12.09 5.32 -89.9 0 1 27.18 29.81
  L 27.18 24.94
  A 0.44 0.44 0.0 0 1 27.63 24.50
  L 37.65 24.52
  Z"
/>
</svg>
