<?xml version="1.0" encoding="UTF-8" standalone="no"?>
<!DOCTYPE svg PUBLIC "-//W3C//DTD SVG 1.1//EN" "http://www.w3.org/Graphics/SVG/1.1/DTD/svg11.dtd">
<svg xmlns="http://www.w3.org/2000/svg" version="1.1" viewBox="0.00 0.00 66.00 88.00">
<g stroke-width="2.00" fill="none" stroke-linecap="butt">
<path stroke="#38728d" vector-effect="non-scaling-stroke" d="
  M 33.40 86.72
  Q 33.51 86.72 33.61 86.69
  Q 33.65 86.68 33.77 86.58
  C 50.38 71.17 75.46 39.24 58.94 15.83
  C 53.10 7.55 44.00 2.50 33.53 2.48
  C 23.07 2.46 13.96 7.49 8.09 15.75
  C -8.51 39.11 16.47 71.12 33.03 86.58
  Q 33.15 86.68 33.19 86.69
  Q 33.29 86.72 33.40 86.72"
/>
<path stroke="#a6c7d3" vector-effect="non-scaling-stroke" d="
  M 23.78 25.02
  L 27.81 27.44
  A 0.78 0.77 38.9 0 0 28.75 27.34
  L 32.38 23.92
  A 2.35 2.32 69.0 0 0 33.11 22.25
  L 33.19 16.55
  A 0.46 0.46 0.0 0 0 32.43 16.21
  L 23.70 24.31
  A 0.45 0.45 0.0 0 0 23.78 25.02"
/>
<path stroke="#a6c7d3" vector-effect="non-scaling-stroke" d="
  M 43.11 24.29
  A 0.38 0.38 0.0 0 0 43.13 23.69
  L 34.30 16.38
  A 0.38 0.38 0.0 0 0 33.68 16.68
  L 33.68 23.10
  A 0.38 0.38 0.0 0 0 33.79 23.37
  L 38.02 27.60
  A 0.38 0.38 0.0 0 0 38.51 27.64
  L 43.11 24.29"
/>
<path stroke="#a6c7d3" vector-effect="non-scaling-stroke" d="
  M 29.12 34.02
  Q 29.12 38.61 29.17 39.02
  A 1.68 1.66 19.8 0 0 29.63 39.99
  Q 30.73 41.09 33.00 43.08
  C 33.04 43.12 33.18 43.13 33.22 43.13
  C 33.25 43.13 33.40 43.12 33.44 43.08
  Q 35.71 41.09 36.81 39.99
  A 1.68 1.66 -19.8 0 0 37.27 39.02
  Q 37.32 38.61 37.33 34.03
  Q 37.33 29.44 37.28 29.03
  A 1.68 1.66 19.8 0 0 36.81 28.06
  Q 35.71 26.96 33.45 24.97
  C 33.40 24.93 33.26 24.92 33.22 24.92
  C 33.19 24.92 33.04 24.93 33.00 24.97
  Q 30.73 26.96 29.63 28.06
  A 1.68 1.66 -19.8 0 0 29.17 29.03
  Q 29.12 29.44 29.12 34.02"
/>
<path stroke="#a6c7d3" vector-effect="non-scaling-stroke" d="
  M 39.03 28.50
  A 0.36 0.36 0.0 0 0 38.88 28.79
  L 38.88 39.63
  A 0.36 0.36 0.0 0 0 39.06 39.94
  L 43.22 42.34
  A 0.36 0.36 0.0 0 0 43.76 42.03
  L 43.76 25.77
  A 0.36 0.36 0.0 0 0 43.19 25.48
  L 39.03 28.50"
/>
<path stroke="#a6c7d3" vector-effect="non-scaling-stroke" d="
  M 23.60 25.86
  A 0.46 0.46 0.0 0 0 22.91 26.26
  L 22.91 42.16
  A 0.46 0.46 0.0 0 0 23.64 42.53
  L 27.67 39.59
  A 0.46 0.46 0.0 0 0 27.86 39.22
  L 27.86 28.59
  A 0.46 0.46 0.0 0 0 27.63 28.19
  L 23.60 25.86"
/>
<path stroke="#a6c7d3" vector-effect="non-scaling-stroke" d="
  M 33.14 45.11
  A 0.42 0.42 0.0 0 0 33.02 44.82
  L 28.47 40.27
  A 0.42 0.42 0.0 0 0 27.93 40.23
  L 24.07 43.05
  A 0.42 0.42 0.0 0 0 24.02 43.69
  L 32.42 52.09
  A 0.42 0.42 0.0 0 0 33.14 51.80
  L 33.14 45.11"
/>
<path stroke="#a6c7d3" vector-effect="non-scaling-stroke" d="
  M 42.74 42.87
  L 38.85 40.54
  A 0.75 0.75 0.0 0 0 37.95 40.63
  L 34.45 43.93
  A 2.27 2.24 69.0 0 0 33.75 45.55
  L 33.67 51.04
  A 0.44 0.44 0.0 0 0 34.41 51.37
  L 42.81 43.55
  A 0.43 0.43 0.0 0 0 42.74 42.87"
/>
</g>
<path fill="#234d60" d="
  M 33.80 88.00
  L 33.04 88.00
  C 21.99 77.97 11.86 65.43 5.64 51.58
  Q 2.24 44.01 1.61 35.05
  C 0.53 19.63 10.45 6.49 25.12 2.45
  Q 36.17 -0.60 47.17 4.37
  Q 57.61 9.10 62.85 20.27
  C 66.63 28.35 65.97 38.64 63.05 47.02
  C 57.60 62.66 45.95 76.93 33.80 88.00
  Z
  M 33.40 86.72
  Q 33.51 86.72 33.61 86.69
  Q 33.65 86.68 33.77 86.58
  C 50.38 71.17 75.46 39.24 58.94 15.83
  C 53.10 7.55 44.00 2.50 33.53 2.48
  C 23.07 2.46 13.96 7.49 8.09 15.75
  C -8.51 39.11 16.47 71.12 33.03 86.58
  Q 33.15 86.68 33.19 86.69
  Q 33.29 86.72 33.40 86.72
  Z"
/>
<path fill="#4d96b9" d="
  M 33.53 2.48
  C 44.00 2.50 53.10 7.55 58.94 15.83
  C 75.46 39.24 50.38 71.17 33.77 86.58
  Q 33.65 86.68 33.61 86.69
  Q 33.51 86.72 33.40 86.72
  Q 33.29 86.72 33.19 86.69
  Q 33.15 86.68 33.03 86.58
  C 16.47 71.12 -8.51 39.11 8.09 15.75
  C 13.96 7.49 23.07 2.46 33.53 2.48
  Z
  M 23.78 25.02
  L 27.81 27.44
  A 0.78 0.77 38.9 0 0 28.75 27.34
  L 32.38 23.92
  A 2.35 2.32 69.0 0 0 33.11 22.25
  L 33.19 16.55
  A 0.46 0.46 0.0 0 0 32.43 16.21
  L 23.70 24.31
  A 0.45 0.45 0.0 0 0 23.78 25.02
  Z
  M 43.11 24.29
  A 0.38 0.38 0.0 0 0 43.13 23.69
  L 34.30 16.38
  A 0.38 0.38 0.0 0 0 33.68 16.68
  L 33.68 23.10
  A 0.38 0.38 0.0 0 0 33.79 23.37
  L 38.02 27.60
  A 0.38 0.38 0.0 0 0 38.51 27.64
  L 43.11 24.29
  Z
  M 29.12 34.02
  Q 29.12 38.61 29.17 39.02
  A 1.68 1.66 19.8 0 0 29.63 39.99
  Q 30.73 41.09 33.00 43.08
  C 33.04 43.12 33.18 43.13 33.22 43.13
  C 33.25 43.13 33.40 43.12 33.44 43.08
  Q 35.71 41.09 36.81 39.99
  A 1.68 1.66 -19.8 0 0 37.27 39.02
  Q 37.32 38.61 37.33 34.03
  Q 37.33 29.44 37.28 29.03
  A 1.68 1.66 19.8 0 0 36.81 28.06
  Q 35.71 26.96 33.45 24.97
  C 33.40 24.93 33.26 24.92 33.22 24.92
  C 33.19 24.92 33.04 24.93 33.00 24.97
  Q 30.73 26.96 29.63 28.06
  A 1.68 1.66 -19.8 0 0 29.17 29.03
  Q 29.12 29.44 29.12 34.02
  Z
  M 39.03 28.50
  A 0.36 0.36 0.0 0 0 38.88 28.79
  L 38.88 39.63
  A 0.36 0.36 0.0 0 0 39.06 39.94
  L 43.22 42.34
  A 0.36 0.36 0.0 0 0 43.76 42.03
  L 43.76 25.77
  A 0.36 0.36 0.0 0 0 43.19 25.48
  L 39.03 28.50
  Z
  M 23.60 25.86
  A 0.46 0.46 0.0 0 0 22.91 26.26
  L 22.91 42.16
  A 0.46 0.46 0.0 0 0 23.64 42.53
  L 27.67 39.59
  A 0.46 0.46 0.0 0 0 27.86 39.22
  L 27.86 28.59
  A 0.46 0.46 0.0 0 0 27.63 28.19
  L 23.60 25.86
  Z
  M 33.14 45.11
  A 0.42 0.42 0.0 0 0 33.02 44.82
  L 28.47 40.27
  A 0.42 0.42 0.0 0 0 27.93 40.23
  L 24.07 43.05
  A 0.42 0.42 0.0 0 0 24.02 43.69
  L 32.42 52.09
  A 0.42 0.42 0.0 0 0 33.14 51.80
  L 33.14 45.11
  Z
  M 42.74 42.87
  L 38.85 40.54
  A 0.75 0.75 0.0 0 0 37.95 40.63
  L 34.45 43.93
  A 2.27 2.24 69.0 0 0 33.75 45.55
  L 33.67 51.04
  A 0.44 0.44 0.0 0 0 34.41 51.37
  L 42.81 43.55
  A 0.43 0.43 0.0 0 0 42.74 42.87
  Z"
/>
<path fill="#fff8ec" d="
  M 23.78 25.02
  A 0.45 0.45 0.0 0 1 23.70 24.31
  L 32.43 16.21
  A 0.46 0.46 0.0 0 1 33.19 16.55
  L 33.11 22.25
  A 2.35 2.32 69.0 0 1 32.38 23.92
  L 28.75 27.34
  A 0.78 0.77 38.9 0 1 27.81 27.44
  L 23.78 25.02
  Z"
/>
<path fill="#fff8ec" d="
  M 43.11 24.29
  L 38.51 27.64
  A 0.38 0.38 0.0 0 1 38.02 27.60
  L 33.79 23.37
  A 0.38 0.38 0.0 0 1 33.68 23.10
  L 33.68 16.68
  A 0.38 0.38 0.0 0 1 34.30 16.38
  L 43.13 23.69
  A 0.38 0.38 0.0 0 1 43.11 24.29
  Z"
/>
<path fill="#fff8ec" d="
  M 33.22 24.92
  C 33.26 24.92 33.40 24.93 33.45 24.97
  Q 35.71 26.96 36.81 28.06
  A 1.68 1.66 19.8 0 1 37.28 29.03
  Q 37.33 29.44 37.33 34.03
  Q 37.32 38.61 37.27 39.02
  A 1.68 1.66 -19.8 0 1 36.81 39.99
  Q 35.71 41.09 33.44 43.08
  C 33.40 43.12 33.25 43.13 33.22 43.13
  C 33.18 43.13 33.04 43.12 33.00 43.08
  Q 30.73 41.09 29.63 39.99
  A 1.68 1.66 19.8 0 1 29.17 39.02
  Q 29.12 38.61 29.12 34.02
  Q 29.12 29.44 29.17 29.03
  A 1.68 1.66 -19.8 0 1 29.63 28.06
  Q 30.73 26.96 33.00 24.97
  C 33.04 24.93 33.19 24.92 33.22 24.92
  Z"
/>
<path fill="#fff8ec" d="
  M 39.03 28.50
  L 43.19 25.48
  A 0.36 0.36 0.0 0 1 43.76 25.77
  L 43.76 42.03
  A 0.36 0.36 0.0 0 1 43.22 42.34
  L 39.06 39.94
  A 0.36 0.36 0.0 0 1 38.88 39.63
  L 38.88 28.79
  A 0.36 0.36 0.0 0 1 39.03 28.50
  Z"
/>
<path fill="#fff8ec" d="
  M 23.60 25.86
  L 27.63 28.19
  A 0.46 0.46 0.0 0 1 27.86 28.59
  L 27.86 39.22
  A 0.46 0.46 0.0 0 1 27.67 39.59
  L 23.64 42.53
  A 0.46 0.46 0.0 0 1 22.91 42.16
  L 22.91 26.26
  A 0.46 0.46 0.0 0 1 23.60 25.86
  Z"
/>
<path fill="#fff8ec" d="
  M 33.14 45.11
  L 33.14 51.80
  A 0.42 0.42 0.0 0 1 32.42 52.09
  L 24.02 43.69
  A 0.42 0.42 0.0 0 1 24.07 43.05
  L 27.93 40.23
  A 0.42 0.42 0.0 0 1 28.47 40.27
  L 33.02 44.82
  A 0.42 0.42 0.0 0 1 33.14 45.11
  Z"
/>
<path fill="#fff8ec" d="
  M 42.74 42.87
  A 0.43 0.43 0.0 0 1 42.81 43.55
  L 34.41 51.37
  A 0.44 0.44 0.0 0 1 33.67 51.04
  L 33.75 45.55
  A 2.27 2.24 69.0 0 1 34.45 43.93
  L 37.95 40.63
  A 0.75 0.75 0.0 0 1 38.85 40.54
  L 42.74 42.87
  Z"
/>
</svg>
