<?xml version="1.0" encoding="UTF-8" standalone="no"?>
<!DOCTYPE svg PUBLIC "-//W3C//DTD SVG 1.1//EN" "http://www.w3.org/Graphics/SVG/1.1/DTD/svg11.dtd">
<svg xmlns="http://www.w3.org/2000/svg" version="1.1" viewBox="0.00 0.00 66.00 88.00">
<g stroke-width="2.00" fill="none" stroke-linecap="butt">
<path stroke="#323231" vector-effect="non-scaling-stroke" d="
  M 33.43 86.56
  C 33.91 86.56 33.62 86.59 33.80 86.43
  C 44.78 76.39 55.39 63.10 61.00 49.03
  C 65.86 36.87 65.83 23.18 56.84 13.15
  C 50.76 6.36 42.66 2.54 33.52 2.53
  C 24.37 2.52 16.26 6.33 10.17 13.10
  C 1.16 23.11 1.10 36.80 5.93 48.97
  C 11.51 63.05 22.09 76.37 33.06 86.43
  C 33.23 86.59 32.94 86.56 33.43 86.56"
/>
<path stroke="#a0a09a" vector-effect="non-scaling-stroke" d="
  M 51.20 34.07
  A 18.24 18.24 0.0 0 0 32.96 15.83
  A 18.24 18.24 0.0 0 0 14.72 34.07
  A 18.24 18.24 0.0 0 0 32.96 52.31
  A 18.24 18.24 0.0 0 0 51.20 34.07"
/>
<path stroke="#a0a09a" vector-effect="non-scaling-stroke" d="
  M 45.15 34.01
  A 12.19 12.19 0.0 0 0 32.96 21.82
  A 12.19 12.19 0.0 0 0 20.77 34.01
  A 12.19 12.19 0.0 0 0 32.96 46.20
  A 12.19 12.19 0.0 0 0 45.15 34.01"
/>
<path stroke="#a0a09a" vector-effect="non-scaling-stroke" d="
  M 39.08 34.06
  A 6.06 6.06 0.0 0 0 33.02 28.00
  A 6.06 6.06 0.0 0 0 26.96 34.06
  A 6.06 6.06 0.0 0 0 33.02 40.12
  A 6.06 6.06 0.0 0 0 39.08 34.06"
/>
</g>
<path fill="#222321" d="
  M 33.79 88.00
  L 33.03 88.00
  C 16.76 73.20 -6.23 44.35 3.98 20.61
  Q 7.73 11.88 15.94 6.49
  C 23.39 1.58 32.67 0.14 41.70 2.39
  C 56.19 6.00 66.12 19.52 65.45 34.22
  Q 65.11 41.71 62.41 48.84
  C 56.80 63.64 45.44 77.44 33.79 88.00
  Z
  M 33.43 86.56
  C 33.91 86.56 33.62 86.59 33.80 86.43
  C 44.78 76.39 55.39 63.10 61.00 49.03
  C 65.86 36.87 65.83 23.18 56.84 13.15
  C 50.76 6.36 42.66 2.54 33.52 2.53
  C 24.37 2.52 16.26 6.33 10.17 13.10
  C 1.16 23.11 1.10 36.80 5.93 48.97
  C 11.51 63.05 22.09 76.37 33.06 86.43
  C 33.23 86.59 32.94 86.56 33.43 86.56
  Z"
/>
<path fill="#414141" d="
  M 33.52 2.53
  C 42.66 2.54 50.76 6.36 56.84 13.15
  C 65.83 23.18 65.86 36.87 61.00 49.03
  C 55.39 63.10 44.78 76.39 33.80 86.43
  C 33.62 86.59 33.91 86.56 33.43 86.56
  C 32.94 86.56 33.23 86.59 33.06 86.43
  C 22.09 76.37 11.51 63.05 5.93 48.97
  C 1.10 36.80 1.16 23.11 10.17 13.10
  C 16.26 6.33 24.37 2.52 33.52 2.53
  Z
  M 51.20 34.07
  A 18.24 18.24 0.0 0 0 32.96 15.83
  A 18.24 18.24 0.0 0 0 14.72 34.07
  A 18.24 18.24 0.0 0 0 32.96 52.31
  A 18.24 18.24 0.0 0 0 51.20 34.07
  Z"
/>
<path fill="#fffef3" d="
  M 51.20 34.07
  A 18.24 18.24 0.0 0 1 32.96 52.31
  A 18.24 18.24 0.0 0 1 14.72 34.07
  A 18.24 18.24 0.0 0 1 32.96 15.83
  A 18.24 18.24 0.0 0 1 51.20 34.07
  Z
  M 45.15 34.01
  A 12.19 12.19 0.0 0 0 32.96 21.82
  A 12.19 12.19 0.0 0 0 20.77 34.01
  A 12.19 12.19 0.0 0 0 32.96 46.20
  A 12.19 12.19 0.0 0 0 45.15 34.01
  Z"
/>
<path fill="#414141" d="
  M 45.15 34.01
  A 12.19 12.19 0.0 0 1 32.96 46.20
  A 12.19 12.19 0.0 0 1 20.77 34.01
  A 12.19 12.19 0.0 0 1 32.96 21.82
  A 12.19 12.19 0.0 0 1 45.15 34.01
  Z
  M 39.08 34.06
  A 6.06 6.06 0.0 0 0 33.02 28.00
  A 6.06 6.06 0.0 0 0 26.96 34.06
  A 6.06 6.06 0.0 0 0 33.02 40.12
  A 6.06 6.06 0.0 0 0 39.08 34.06
  Z"
/>
<circle fill="#fffef3" cx="33.02" cy="34.06" r="6.06"/>
</svg>
