<?xml version="1.0" encoding="UTF-8" standalone="no"?>
<!DOCTYPE svg PUBLIC "-//W3C//DTD SVG 1.1//EN" "http://www.w3.org/Graphics/SVG/1.1/DTD/svg11.dtd">
<svg xmlns="http://www.w3.org/2000/svg" version="1.1" viewBox="0.00 0.00 66.00 88.00">
<g stroke-width="2.00" fill="none" stroke-linecap="butt">
<path stroke="#816c3e" vector-effect="non-scaling-stroke" d="
  M 33.38 86.69
  Q 33.49 86.69 33.60 86.67
  Q 33.61 86.66 33.74 86.54
  Q 47.13 73.97 55.78 59.72
  C 63.25 47.42 67.92 31.52 60.64 18.45
  C 55.30 8.88 45.74 3.11 34.75 2.49
  Q 34.16 2.46 33.56 2.46
  Q 32.96 2.46 32.36 2.49
  C 21.37 3.06 11.79 8.79 6.41 18.34
  C -0.93 31.38 3.68 47.30 11.10 59.63
  Q 19.69 73.91 33.03 86.54
  Q 33.15 86.66 33.16 86.67
  Q 33.27 86.69 33.38 86.69"
/>
<path stroke="#d5c7a3" vector-effect="non-scaling-stroke" d="
  M 50.6308 35.5354
  A 2.13 2.13 0.0 0 0 50.6255 32.5231
  L 34.4754 16.4292
  A 2.13 2.13 0.0 0 0 31.4631 16.4345
  L 15.3692 32.5846
  A 2.13 2.13 0.0 0 0 15.3745 35.5969
  L 31.5246 51.6908
  A 2.13 2.13 0.0 0 0 34.5369 51.6855
  L 50.6308 35.5354"
/>
<path stroke="#d5c7a3" vector-effect="non-scaling-stroke" d="
  M 33.00 27.06
  Q 35.88 27.06 36.80 29.80
  Q 38.81 35.78 41.46 38.31
  A 0.67 0.66 44.0 0 0 42.38 38.30
  L 46.17 34.51
  A 0.69 0.68 -45.0 0 0 46.18 33.54
  Q 39.86 27.13 33.23 20.49
  Q 33.18 20.44 33.00 20.44
  Q 32.82 20.44 32.77 20.49
  Q 26.14 27.12 19.81 33.53
  A 0.69 0.68 45.1 0 0 19.82 34.50
  L 23.61 38.29
  A 0.67 0.66 -44.0 0 0 24.53 38.30
  Q 27.18 35.77 29.19 29.79
  Q 30.11 27.05 33.00 27.06"
/>
<path stroke="#d5c7a3" vector-effect="non-scaling-stroke" d="
  M 32.99 47.54
  Q 33.19 47.54 33.27 47.47
  Q 34.79 46.01 35.72 44.94
  A 1.71 1.64 -22.6 0 0 36.13 44.00
  Q 36.84 37.31 32.99 37.31
  Q 29.15 37.31 29.85 44.00
  A 1.71 1.64 22.6 0 0 30.27 44.94
  Q 31.20 46.01 32.72 47.47
  Q 32.80 47.54 32.99 47.54"
/>
</g>
<path fill="#574828" d="
  M 33.80 88.00
  L 32.99 88.00
  C 21.72 77.66 12.00 65.57 5.61 51.43
  Q 0.16 39.36 2.07 26.80
  Q 2.80 21.99 6.09 16.55
  C 15.29 1.33 35.36 -2.99 50.27 6.01
  Q 61.44 12.75 64.84 26.25
  Q 65.59 29.21 65.37 35.27
  Q 65.21 39.63 63.91 44.16
  C 59.15 60.87 46.47 76.48 33.80 88.00
  Z
  M 33.38 86.69
  Q 33.49 86.69 33.60 86.67
  Q 33.61 86.66 33.74 86.54
  Q 47.13 73.97 55.78 59.72
  C 63.25 47.42 67.92 31.52 60.64 18.45
  C 55.30 8.88 45.74 3.11 34.75 2.49
  Q 34.16 2.46 33.56 2.46
  Q 32.96 2.46 32.36 2.49
  C 21.37 3.06 11.79 8.79 6.41 18.34
  C -0.93 31.38 3.68 47.30 11.10 59.63
  Q 19.69 73.91 33.03 86.54
  Q 33.15 86.66 33.16 86.67
  Q 33.27 86.69 33.38 86.69
  Z"
/>
<path fill="#aa8f54" d="
  M 33.56 2.46
  Q 34.16 2.46 34.75 2.49
  C 45.74 3.11 55.30 8.88 60.64 18.45
  C 67.92 31.52 63.25 47.42 55.78 59.72
  Q 47.13 73.97 33.74 86.54
  Q 33.61 86.66 33.60 86.67
  Q 33.49 86.69 33.38 86.69
  Q 33.27 86.69 33.16 86.67
  Q 33.15 86.66 33.03 86.54
  Q 19.69 73.91 11.10 59.63
  C 3.68 47.30 -0.93 31.38 6.41 18.34
  C 11.79 8.79 21.37 3.06 32.36 2.49
  Q 32.96 2.46 33.56 2.46
  Z
  M 50.6308 35.5354
  A 2.13 2.13 0.0 0 0 50.6255 32.5231
  L 34.4754 16.4292
  A 2.13 2.13 0.0 0 0 31.4631 16.4345
  L 15.3692 32.5846
  A 2.13 2.13 0.0 0 0 15.3745 35.5969
  L 31.5246 51.6908
  A 2.13 2.13 0.0 0 0 34.5369 51.6855
  L 50.6308 35.5354
  Z"
/>
<path fill="#fffef2" d="
  M 34.5369 51.6855
  A 2.13 2.13 0.0 0 1 31.5246 51.6908
  L 15.3745 35.5969
  A 2.13 2.13 0.0 0 1 15.3692 32.5846
  L 31.4631 16.4345
  A 2.13 2.13 0.0 0 1 34.4754 16.4292
  L 50.6255 32.5231
  A 2.13 2.13 0.0 0 1 50.6308 35.5354
  L 34.5369 51.6855
  Z
  M 33.00 27.06
  Q 35.88 27.06 36.80 29.80
  Q 38.81 35.78 41.46 38.31
  A 0.67 0.66 44.0 0 0 42.38 38.30
  L 46.17 34.51
  A 0.69 0.68 -45.0 0 0 46.18 33.54
  Q 39.86 27.13 33.23 20.49
  Q 33.18 20.44 33.00 20.44
  Q 32.82 20.44 32.77 20.49
  Q 26.14 27.12 19.81 33.53
  A 0.69 0.68 45.1 0 0 19.82 34.50
  L 23.61 38.29
  A 0.67 0.66 -44.0 0 0 24.53 38.30
  Q 27.18 35.77 29.19 29.79
  Q 30.11 27.05 33.00 27.06
  Z
  M 32.99 47.54
  Q 33.19 47.54 33.27 47.47
  Q 34.79 46.01 35.72 44.94
  A 1.71 1.64 -22.6 0 0 36.13 44.00
  Q 36.84 37.31 32.99 37.31
  Q 29.15 37.31 29.85 44.00
  A 1.71 1.64 22.6 0 0 30.27 44.94
  Q 31.20 46.01 32.72 47.47
  Q 32.80 47.54 32.99 47.54
  Z"
/>
<path fill="#aa8f54" d="
  M 33.00 20.44
  Q 33.18 20.44 33.23 20.49
  Q 39.86 27.13 46.18 33.54
  A 0.69 0.68 -45.0 0 1 46.17 34.51
  L 42.38 38.30
  A 0.67 0.66 44.0 0 1 41.46 38.31
  Q 38.81 35.78 36.80 29.80
  Q 35.88 27.06 33.00 27.06
  Q 30.11 27.05 29.19 29.79
  Q 27.18 35.77 24.53 38.30
  A 0.67 0.66 -44.0 0 1 23.61 38.29
  L 19.82 34.50
  A 0.69 0.68 45.1 0 1 19.81 33.53
  Q 26.14 27.12 32.77 20.49
  Q 32.82 20.44 33.00 20.44
  Z"
/>
<path fill="#aa8f54" d="
  M 32.99 37.31
  Q 36.84 37.31 36.13 44.00
  A 1.71 1.64 -22.6 0 1 35.72 44.94
  Q 34.79 46.01 33.27 47.47
  Q 33.19 47.54 32.99 47.54
  Q 32.80 47.54 32.72 47.47
  Q 31.20 46.01 30.27 44.94
  A 1.71 1.64 22.6 0 1 29.85 44.00
  Q 29.15 37.31 32.99 37.31
  Z"
/>
</svg>
