<?xml version="1.0" encoding="UTF-8" standalone="no"?>
<!DOCTYPE svg PUBLIC "-//W3C//DTD SVG 1.1//EN" "http://www.w3.org/Graphics/SVG/1.1/DTD/svg11.dtd">
<svg xmlns="http://www.w3.org/2000/svg" version="1.1" viewBox="0.00 0.00 50.00 50.00">
<g stroke-width="2.00" fill="none" stroke-linecap="butt">
<path stroke="#bcc3bf" vector-effect="non-scaling-stroke" d="
  M 29.52 34.33
  L 31.15 34.33
  A 1.43 1.40 -65.9 0 0 32.11 33.95
  C 34.79 31.41 36.63 30.01 38.07 26.02
  A 0.81 0.80 30.5 0 0 37.83 25.12
  L 33.08 21.04
  A 1.60 1.58 65.2 0 0 32.04 20.65
  L 28.95 20.65
  A 1.91 1.91 0.0 0 1 27.60 20.09
  L 24.42 16.91
  A 1.62 1.60 54.2 0 0 22.57 16.60
  Q 19.17 18.27 16.05 18.19
  A 1.36 1.36 0.0 0 0 14.90 18.77
  L 12.02 22.80
  A 1.46 1.41 59.8 0 0 11.77 23.81
  L 12.82 31.52
  A 0.99 0.96 -83.2 0 0 13.40 32.28
  L 17.69 34.13
  A 2.55 2.48 -32.4 0 0 18.70 34.34
  L 25.15 34.34
  A 0.57 0.55 14.5 0 0 25.64 34.06
  L 28.69 28.78
  A 0.73 0.69 3.9 0 1 29.08 28.46
  L 34.62 26.46
  A 0.28 0.28 0.0 0 1 34.85 26.97
  Q 30.97 29.20 29.10 33.71
  A 0.45 0.45 0.0 0 0 29.52 34.33"
/>
<path stroke="#bcc3bf" vector-effect="non-scaling-stroke" d="
  M 22.43 30.67
  Q 22.64 30.06 23.53 27.13
  A 1.56 1.55 -7.6 0 1 24.20 26.26
  Q 29.99 22.60 29.99 22.59
  A 0.40 0.40 0.0 0 0 29.56 21.99
  Q 26.70 22.71 24.33 19.70
  A 0.41 0.41 0.0 0 0 23.62 20.09
  L 24.61 22.84
  A 0.59 0.58 65.6 0 1 24.35 23.54
  L 21.76 25.04
  A 0.83 0.83 0.0 0 0 21.35 25.88
  L 21.99 30.62
  A 0.23 0.23 0.0 0 0 22.43 30.67"
/>
<path stroke="#bcc3bf" vector-effect="non-scaling-stroke" d="
  M 17.34 31.51
  Q 15.23 26.30 16.99 21.31
  A 0.11 0.10 77.2 0 0 16.82 21.20
  L 13.67 24.35
  A 1.03 1.02 53.5 0 0 13.49 25.57
  L 16.90 31.81
  A 0.21 0.21 0.0 0 0 17.19 31.90
  L 17.19 31.89
  A 0.30 0.29 -23.9 0 0 17.34 31.51"
/>
</g>
<path fill="#798e91" d="
  M 50.00 23.67
  L 50.00 27.25
  Q 46.84 46.79 27.33 50.00
  L 23.75 50.00
  L 18.52 48.90
  A 0.39 0.24 -13.3 0 1 18.43 48.87
  Q 7.67 44.98 3.43 35.70
  C -2.78 22.12 4.06 7.37 18.02 2.32
  C 20.85 1.30 25.16 0.74 28.66 1.34
  Q 43.62 3.89 48.87 18.41
  Q 48.88 18.45 48.89 18.49
  L 50.00 23.67
  Z
  M 29.52 34.33
  L 31.15 34.33
  A 1.43 1.40 -65.9 0 0 32.11 33.95
  C 34.79 31.41 36.63 30.01 38.07 26.02
  A 0.81 0.80 30.5 0 0 37.83 25.12
  L 33.08 21.04
  A 1.60 1.58 65.2 0 0 32.04 20.65
  L 28.95 20.65
  A 1.91 1.91 0.0 0 1 27.60 20.09
  L 24.42 16.91
  A 1.62 1.60 54.2 0 0 22.57 16.60
  Q 19.17 18.27 16.05 18.19
  A 1.36 1.36 0.0 0 0 14.90 18.77
  L 12.02 22.80
  A 1.46 1.41 59.8 0 0 11.77 23.81
  L 12.82 31.52
  A 0.99 0.96 -83.2 0 0 13.40 32.28
  L 17.69 34.13
  A 2.55 2.48 -32.4 0 0 18.70 34.34
  L 25.15 34.34
  A 0.57 0.55 14.5 0 0 25.64 34.06
  L 28.69 28.78
  A 0.73 0.69 3.9 0 1 29.08 28.46
  L 34.62 26.46
  A 0.28 0.28 0.0 0 1 34.85 26.97
  Q 30.97 29.20 29.10 33.71
  A 0.45 0.45 0.0 0 0 29.52 34.33
  Z"
/>
<path fill="#fff8ec" d="
  M 29.10 33.71
  Q 30.97 29.20 34.85 26.97
  A 0.28 0.28 0.0 0 0 34.62 26.46
  L 29.08 28.46
  A 0.73 0.69 3.9 0 0 28.69 28.78
  L 25.64 34.06
  A 0.57 0.55 14.5 0 1 25.15 34.34
  L 18.70 34.34
  A 2.55 2.48 -32.4 0 1 17.69 34.13
  L 13.40 32.28
  A 0.99 0.96 -83.2 0 1 12.82 31.52
  L 11.77 23.81
  A 1.46 1.41 59.8 0 1 12.02 22.80
  L 14.90 18.77
  A 1.36 1.36 0.0 0 1 16.05 18.19
  Q 19.17 18.27 22.57 16.60
  A 1.62 1.60 54.2 0 1 24.42 16.91
  L 27.60 20.09
  A 1.91 1.91 0.0 0 0 28.95 20.65
  L 32.04 20.65
  A 1.60 1.58 65.2 0 1 33.08 21.04
  L 37.83 25.12
  A 0.81 0.80 30.5 0 1 38.07 26.02
  C 36.63 30.01 34.79 31.41 32.11 33.95
  A 1.43 1.40 -65.9 0 1 31.15 34.33
  L 29.52 34.33
  A 0.45 0.45 0.0 0 1 29.10 33.71
  Z
  M 22.43 30.67
  Q 22.64 30.06 23.53 27.13
  A 1.56 1.55 -7.6 0 1 24.20 26.26
  Q 29.99 22.60 29.99 22.59
  A 0.40 0.40 0.0 0 0 29.56 21.99
  Q 26.70 22.71 24.33 19.70
  A 0.41 0.41 0.0 0 0 23.62 20.09
  L 24.61 22.84
  A 0.59 0.58 65.6 0 1 24.35 23.54
  L 21.76 25.04
  A 0.83 0.83 0.0 0 0 21.35 25.88
  L 21.99 30.62
  A 0.23 0.23 0.0 0 0 22.43 30.67
  Z
  M 17.34 31.51
  Q 15.23 26.30 16.99 21.31
  A 0.11 0.10 77.2 0 0 16.82 21.20
  L 13.67 24.35
  A 1.03 1.02 53.5 0 0 13.49 25.57
  L 16.90 31.81
  A 0.21 0.21 0.0 0 0 17.19 31.90
  L 17.19 31.89
  A 0.30 0.29 -23.9 0 0 17.34 31.51
  Z"
/>
<path fill="#798e91" d="
  M 21.99 30.62
  L 21.35 25.88
  A 0.83 0.83 0.0 0 1 21.76 25.04
  L 24.35 23.54
  A 0.59 0.58 65.6 0 0 24.61 22.84
  L 23.62 20.09
  A 0.41 0.41 0.0 0 1 24.33 19.70
  Q 26.70 22.71 29.56 21.99
  A 0.40 0.40 0.0 0 1 29.99 22.59
  Q 29.99 22.60 24.20 26.26
  A 1.56 1.55 -7.6 0 0 23.53 27.13
  Q 22.64 30.06 22.43 30.67
  A 0.23 0.23 0.0 0 1 21.99 30.62
  Z"
/>
<path fill="#798e91" d="
  M 17.34 31.51
  A 0.30 0.29 -23.9 0 1 17.19 31.89
  L 17.19 31.90
  A 0.21 0.21 0.0 0 1 16.90 31.81
  L 13.49 25.57
  A 1.03 1.02 53.5 0 1 13.67 24.35
  L 16.82 21.20
  A 0.11 0.10 77.2 0 1 16.99 21.31
  Q 15.23 26.30 17.34 31.51
  Z"
/>
</svg>
