<?xml version="1.0" encoding="UTF-8" standalone="no"?>
<!DOCTYPE svg PUBLIC "-//W3C//DTD SVG 1.1//EN" "http://www.w3.org/Graphics/SVG/1.1/DTD/svg11.dtd">
<svg xmlns="http://www.w3.org/2000/svg" version="1.1" viewBox="0.00 0.00 66.00 88.00">
<g stroke-width="2.00" fill="none" stroke-linecap="butt">
<path stroke="#38728d" vector-effect="non-scaling-stroke" d="
  M 33.40 86.72
  Q 33.51 86.72 33.61 86.69
  Q 33.66 86.68 33.78 86.57
  C 44.75 76.05 54.18 64.51 60.38 50.74
  Q 61.54 48.16 62.49 44.70
  Q 63.85 39.70 63.98 38.49
  Q 66.29 16.85 48.71 6.52
  Q 41.84 2.48 33.53 2.47
  Q 25.22 2.45 18.34 6.47
  Q 0.73 16.75 2.97 38.40
  Q 3.10 39.61 4.44 44.61
  Q 5.38 48.07 6.53 50.66
  C 12.69 64.45 22.09 76.02 33.02 86.57
  Q 33.14 86.68 33.19 86.69
  Q 33.29 86.72 33.40 86.72"
/>
<path stroke="#a6cad6" vector-effect="non-scaling-stroke" d="
  M 39.47 27.55
  Q 40.70 28.79 39.14 30.40
  Q 35.16 34.50 31.16 38.50
  A 0.63 0.62 -43.3 0 0 31.13 39.36
  L 33.26 41.76
  A 0.67 0.67 0.0 0 0 34.20 41.82
  L 49.95 27.89
  A 1.81 1.81 0.0 0 0 50.55 26.69
  Q 51.06 20.84 51.29 16.75
  Q 51.31 16.26 51.05 16.00
  Q 50.79 15.74 50.31 15.77
  Q 46.21 15.98 40.36 16.47
  A 1.81 1.81 0.0 0 0 39.16 17.07
  L 25.19 32.78
  A 0.67 0.67 0.0 0 0 25.24 33.72
  L 27.64 35.86
  A 0.63 0.62 -46.5 0 0 28.50 35.83
  Q 32.51 31.84 36.62 27.87
  Q 38.24 26.32 39.47 27.55"
/>
<path stroke="#a6cad6" vector-effect="non-scaling-stroke" d="
  M 15.48 51.48
  Q 17.32 53.32 19.92 50.69
  Q 22.20 48.38 24.57 46.07
  A 0.71 0.71 0.0 0 1 25.60 46.11
  L 29.06 50.02
  A 2.29 2.29 0.0 0 0 32.42 50.10
  L 32.68 49.83
  A 2.45 2.44 -43.6 0 0 32.77 46.44
  Q 29.85 43.27 26.78 40.27
  Q 23.80 37.17 20.65 34.23
  A 2.45 2.44 -46.0 0 0 17.25 34.30
  L 16.98 34.56
  A 2.29 2.29 0.0 0 0 17.04 37.92
  L 20.92 41.40
  A 0.71 0.71 0.0 0 1 20.96 42.43
  Q 18.63 44.79 16.31 47.05
  Q 13.65 49.64 15.48 51.48"
/>
</g>
<path fill="#234d60" d="
  M 33.78 88.00
  L 33.04 88.00
  C 21.96 77.93 11.89 65.48 5.64 51.57
  Q 2.20 43.91 1.60 34.88
  C 0.79 22.85 6.85 11.82 17.10 5.77
  C 35.75 -5.23 61.16 5.28 64.91 27.07
  C 68.80 49.70 49.43 73.84 33.78 88.00
  Z
  M 33.40 86.72
  Q 33.51 86.72 33.61 86.69
  Q 33.66 86.68 33.78 86.57
  C 44.75 76.05 54.18 64.51 60.38 50.74
  Q 61.54 48.16 62.49 44.70
  Q 63.85 39.70 63.98 38.49
  Q 66.29 16.85 48.71 6.52
  Q 41.84 2.48 33.53 2.47
  Q 25.22 2.45 18.34 6.47
  Q 0.73 16.75 2.97 38.40
  Q 3.10 39.61 4.44 44.61
  Q 5.38 48.07 6.53 50.66
  C 12.69 64.45 22.09 76.02 33.02 86.57
  Q 33.14 86.68 33.19 86.69
  Q 33.29 86.72 33.40 86.72
  Z"
/>
<path fill="#4d96b9" d="
  M 33.53 2.47
  Q 41.84 2.48 48.71 6.52
  Q 66.29 16.85 63.98 38.49
  Q 63.85 39.70 62.49 44.70
  Q 61.54 48.16 60.38 50.74
  C 54.18 64.51 44.75 76.05 33.78 86.57
  Q 33.66 86.68 33.61 86.69
  Q 33.51 86.72 33.40 86.72
  Q 33.29 86.72 33.19 86.69
  Q 33.14 86.68 33.02 86.57
  C 22.09 76.02 12.69 64.45 6.53 50.66
  Q 5.38 48.07 4.44 44.61
  Q 3.10 39.61 2.97 38.40
  Q 0.73 16.75 18.34 6.47
  Q 25.22 2.45 33.53 2.47
  Z
  M 39.47 27.55
  Q 40.70 28.79 39.14 30.40
  Q 35.16 34.50 31.16 38.50
  A 0.63 0.62 -43.3 0 0 31.13 39.36
  L 33.26 41.76
  A 0.67 0.67 0.0 0 0 34.20 41.82
  L 49.95 27.89
  A 1.81 1.81 0.0 0 0 50.55 26.69
  Q 51.06 20.84 51.29 16.75
  Q 51.31 16.26 51.05 16.00
  Q 50.79 15.74 50.31 15.77
  Q 46.21 15.98 40.36 16.47
  A 1.81 1.81 0.0 0 0 39.16 17.07
  L 25.19 32.78
  A 0.67 0.67 0.0 0 0 25.24 33.72
  L 27.64 35.86
  A 0.63 0.62 -46.5 0 0 28.50 35.83
  Q 32.51 31.84 36.62 27.87
  Q 38.24 26.32 39.47 27.55
  Z
  M 15.48 51.48
  Q 17.32 53.32 19.92 50.69
  Q 22.20 48.38 24.57 46.07
  A 0.71 0.71 0.0 0 1 25.60 46.11
  L 29.06 50.02
  A 2.29 2.29 0.0 0 0 32.42 50.10
  L 32.68 49.83
  A 2.45 2.44 -43.6 0 0 32.77 46.44
  Q 29.85 43.27 26.78 40.27
  Q 23.80 37.17 20.65 34.23
  A 2.45 2.44 -46.0 0 0 17.25 34.30
  L 16.98 34.56
  A 2.29 2.29 0.0 0 0 17.04 37.92
  L 20.92 41.40
  A 0.71 0.71 0.0 0 1 20.96 42.43
  Q 18.63 44.79 16.31 47.05
  Q 13.65 49.64 15.48 51.48
  Z"
/>
<path fill="#fffef2" d="
  M 51.05 16.00
  Q 51.31 16.26 51.29 16.75
  Q 51.06 20.84 50.55 26.69
  A 1.81 1.81 0.0 0 1 49.95 27.89
  L 34.20 41.82
  A 0.67 0.67 0.0 0 1 33.26 41.76
  L 31.13 39.36
  A 0.63 0.62 -43.3 0 1 31.16 38.50
  Q 35.16 34.50 39.14 30.40
  Q 40.70 28.79 39.47 27.55
  Q 38.24 26.32 36.62 27.87
  Q 32.51 31.84 28.50 35.83
  A 0.63 0.62 -46.5 0 1 27.64 35.86
  L 25.24 33.72
  A 0.67 0.67 0.0 0 1 25.19 32.78
  L 39.16 17.07
  A 1.81 1.81 0.0 0 1 40.36 16.47
  Q 46.21 15.98 50.31 15.77
  Q 50.79 15.74 51.05 16.00
  Z"
/>
<path fill="#fffef2" d="
  M 26.78 40.27
  Q 29.85 43.27 32.77 46.44
  A 2.45 2.44 -43.6 0 1 32.68 49.83
  L 32.42 50.10
  A 2.29 2.29 0.0 0 1 29.06 50.02
  L 25.60 46.11
  A 0.71 0.71 0.0 0 0 24.57 46.07
  Q 22.20 48.38 19.92 50.69
  Q 17.32 53.32 15.48 51.48
  Q 13.65 49.64 16.31 47.05
  Q 18.63 44.79 20.96 42.43
  A 0.71 0.71 0.0 0 0 20.92 41.40
  L 17.04 37.92
  A 2.29 2.29 0.0 0 1 16.98 34.56
  L 17.25 34.30
  A 2.45 2.44 -46.0 0 1 20.65 34.23
  Q 23.80 37.17 26.78 40.27
  Z"
/>
</svg>
