<?xml version="1.0" encoding="UTF-8" standalone="no"?>
<!DOCTYPE svg PUBLIC "-//W3C//DTD SVG 1.1//EN" "http://www.w3.org/Graphics/SVG/1.1/DTD/svg11.dtd">
<svg xmlns="http://www.w3.org/2000/svg" version="1.1" viewBox="0.00 0.00 66.00 88.00">
<g stroke-width="2.00" fill="none" stroke-linecap="butt">
<path stroke="#21303f" vector-effect="non-scaling-stroke" d="
  M 33.41 86.58
  Q 33.55 86.58 33.69 86.54
  A 0.08 0.05 -59.6 0 0 33.73 86.52
  Q 47.34 73.98 56.37 58.63
  C 64.00 45.66 68.40 28.65 58.61 15.39
  Q 49.70 3.32 34.50 2.53
  Q 33.95 2.50 33.51 2.50
  Q 33.06 2.50 32.51 2.53
  Q 17.31 3.28 8.37 15.33
  C -1.45 28.57 2.91 45.59 10.51 58.58
  Q 19.51 73.95 33.09 86.52
  A 0.08 0.05 59.7 0 0 33.13 86.54
  Q 33.27 86.58 33.41 86.58"
/>
<path stroke="#969fa2" vector-effect="non-scaling-stroke" d="
  M 24.40 46.39
  C 29.66 46.37 35.22 45.43 39.69 43.10
  C 49.30 38.09 50.38 26.53 47.26 17.09
  A 2.05 2.04 73.3 0 0 44.79 15.76
  C 37.45 17.72 27.17 20.15 22.39 24.79
  C 15.43 31.55 16.88 42.35 20.10 50.91
  A 2.12 2.12 0.0 0 0 22.56 52.22
  L 23.02 52.10
  A 2.14 2.14 0.0 0 0 24.53 49.38
  L 23.83 47.17
  A 0.60 0.60 0.0 0 1 24.40 46.39"
/>
<path stroke="#969fa2" vector-effect="non-scaling-stroke" d="
  M 42.67 21.61
  C 32.15 24.27 20.16 26.66 22.38 40.53
  A 0.29 0.28 -35.2 0 0 22.91 40.62
  Q 26.60 33.93 32.12 30.87
  C 35.90 28.77 41.23 25.61 43.00 22.02
  A 0.29 0.29 0.0 0 0 42.67 21.61"
/>
</g>
<path fill="#16212b" d="
  M 33.81 88.00
  L 33.14 88.00
  Q 15.61 72.48 6.00 52.51
  Q 2.31 44.85 1.62 35.22
  Q 0.94 25.68 5.27 17.99
  C 17.85 -4.37 49.94 -4.37 62.17 18.85
  C 67.42 28.83 65.84 41.29 61.31 51.54
  C 55.17 65.41 44.97 77.80 33.81 88.00
  Z
  M 33.41 86.58
  Q 33.55 86.58 33.69 86.54
  A 0.08 0.05 -59.6 0 0 33.73 86.52
  Q 47.34 73.98 56.37 58.63
  C 64.00 45.66 68.40 28.65 58.61 15.39
  Q 49.70 3.32 34.50 2.53
  Q 33.95 2.50 33.51 2.50
  Q 33.06 2.50 32.51 2.53
  Q 17.31 3.28 8.37 15.33
  C -1.45 28.57 2.91 45.59 10.51 58.58
  Q 19.51 73.95 33.09 86.52
  A 0.08 0.05 59.7 0 0 33.13 86.54
  Q 33.27 86.58 33.41 86.58
  Z"
/>
<path fill="#2c3f52" d="
  M 33.51 2.50
  Q 33.95 2.50 34.50 2.53
  Q 49.70 3.32 58.61 15.39
  C 68.40 28.65 64.00 45.66 56.37 58.63
  Q 47.34 73.98 33.73 86.52
  A 0.08 0.05 -59.6 0 1 33.69 86.54
  Q 33.55 86.58 33.41 86.58
  Q 33.27 86.58 33.13 86.54
  A 0.08 0.05 59.7 0 1 33.09 86.52
  Q 19.51 73.95 10.51 58.58
  C 2.91 45.59 -1.45 28.57 8.37 15.33
  Q 17.31 3.28 32.51 2.53
  Q 33.06 2.50 33.51 2.50
  Z
  M 24.40 46.39
  C 29.66 46.37 35.22 45.43 39.69 43.10
  C 49.30 38.09 50.38 26.53 47.26 17.09
  A 2.05 2.04 73.3 0 0 44.79 15.76
  C 37.45 17.72 27.17 20.15 22.39 24.79
  C 15.43 31.55 16.88 42.35 20.10 50.91
  A 2.12 2.12 0.0 0 0 22.56 52.22
  L 23.02 52.10
  A 2.14 2.14 0.0 0 0 24.53 49.38
  L 23.83 47.17
  A 0.60 0.60 0.0 0 1 24.40 46.39
  Z"
/>
<path fill="#fffef2" d="
  M 23.83 47.17
  L 24.53 49.38
  A 2.14 2.14 0.0 0 1 23.02 52.10
  L 22.56 52.22
  A 2.12 2.12 0.0 0 1 20.10 50.91
  C 16.88 42.35 15.43 31.55 22.39 24.79
  C 27.17 20.15 37.45 17.72 44.79 15.76
  A 2.05 2.04 73.3 0 1 47.26 17.09
  C 50.38 26.53 49.30 38.09 39.69 43.10
  C 35.22 45.43 29.66 46.37 24.40 46.39
  A 0.60 0.60 0.0 0 0 23.83 47.17
  Z
  M 42.67 21.61
  C 32.15 24.27 20.16 26.66 22.38 40.53
  A 0.29 0.28 -35.2 0 0 22.91 40.62
  Q 26.60 33.93 32.12 30.87
  C 35.90 28.77 41.23 25.61 43.00 22.02
  A 0.29 0.29 0.0 0 0 42.67 21.61
  Z"
/>
<path fill="#2c3f52" d="
  M 43.00 22.02
  C 41.23 25.61 35.90 28.77 32.12 30.87
  Q 26.60 33.93 22.91 40.62
  A 0.29 0.28 -35.2 0 1 22.38 40.53
  C 20.16 26.66 32.15 24.27 42.67 21.61
  A 0.29 0.29 0.0 0 1 43.00 22.02
  Z"
/>
</svg>
