<?xml version="1.0" encoding="UTF-8" standalone="no"?>
<!DOCTYPE svg PUBLIC "-//W3C//DTD SVG 1.1//EN" "http://www.w3.org/Graphics/SVG/1.1/DTD/svg11.dtd">
<svg xmlns="http://www.w3.org/2000/svg" version="1.1" viewBox="0.00 0.00 66.00 88.00">
<g stroke-width="2.00" fill="none" stroke-linecap="butt">
<path stroke="#802436" vector-effect="non-scaling-stroke" d="
  M 33.42 86.69
  Q 33.53 86.69 33.62 86.67
  Q 33.70 86.66 33.79 86.57
  Q 47.36 74.03 56.47 58.47
  C 64.08 45.49 68.39 28.63 58.62 15.37
  Q 49.84 3.46 34.74 2.54
  Q 33.52 2.47 33.51 2.47
  Q 33.50 2.47 32.28 2.54
  Q 17.18 3.43 8.37 15.32
  C -1.42 28.56 2.85 45.43 10.43 58.42
  Q 19.51 74.00 33.06 86.57
  Q 33.15 86.66 33.22 86.67
  Q 33.32 86.69 33.42 86.69"
/>
<path stroke="#d4989d" vector-effect="non-scaling-stroke" d="
  M 29.49 21.62
  L 30.76 20.76
  A 0.46 0.46 0.0 0 0 30.89 20.12
  L 30.70 19.85
  A 2.23 1.13 55.9 0 0 28.52 18.63
  L 28.35 18.75
  A 2.23 1.13 55.9 0 0 28.67 21.23
  L 28.85 21.50
  A 0.46 0.46 0.0 0 0 29.49 21.62"
/>
<path stroke="#d4989d" vector-effect="non-scaling-stroke" d="
  M 35.25 20.83
  L 36.55 21.62
  A 0.46 0.46 0.0 0 0 37.18 21.47
  L 37.35 21.20
  A 2.24 1.12 -58.6 0 0 37.56 18.70
  L 37.39 18.60
  A 2.24 1.12 -58.6 0 0 35.27 19.93
  L 35.10 20.20
  A 0.46 0.46 0.0 0 0 35.25 20.83"
/>
<path stroke="#d4989d" vector-effect="non-scaling-stroke" d="
  M 27.8665 23.1570
  A 0.95 0.95 0.0 0 0 27.7611 21.8177
  L 26.7726 20.9734
  A 0.95 0.95 0.0 0 0 25.4332 21.0788
  L 25.1735 21.3830
  A 0.95 0.95 0.0 0 0 25.2789 22.7223
  L 26.2674 23.5666
  A 0.95 0.95 0.0 0 0 27.6068 23.4612
  L 27.8665 23.1570"
/>
<path stroke="#d4989d" vector-effect="non-scaling-stroke" d="
  M 40.4547 20.9974
  A 0.88 0.88 0.0 0 0 39.2109 20.9561
  L 38.1449 21.9537
  A 0.88 0.88 0.0 0 0 38.1036 23.1975
  L 38.4453 23.5626
  A 0.88 0.88 0.0 0 0 39.6891 23.6039
  L 40.7551 22.6063
  A 0.88 0.88 0.0 0 0 40.7964 21.3625
  L 40.4547 20.9974"
/>
<path stroke="#d4989d" vector-effect="non-scaling-stroke" d="
  M 29.00 31.48
  L 37.00 31.48
  A 0.31 0.31 0.0 0 0 37.31 31.17
  L 37.31 27.74
  A 4.88 4.13 90.0 0 0 33.18 22.86
  L 32.82 22.86
  A 4.88 4.13 90.0 0 0 28.69 27.74
  L 28.69 31.17
  A 0.31 0.31 0.0 0 0 29.00 31.48"
/>
<path stroke="#d4989d" vector-effect="non-scaling-stroke" d="
  M 24.78 34.08
  A 0.83 0.82 -39.3 0 0 24.89 33.04
  C 23.81 31.39 21.55 30.06 19.72 31.14
  Q 18.16 32.07 17.82 33.15
  Q 16.76 36.49 16.16 37.69
  A 0.55 0.55 0.0 0 0 16.65 38.48
  L 19.81 38.48
  A 0.49 0.48 -8.0 0 0 20.28 37.86
  Q 19.98 36.85 19.81 36.58
  A 2.63 2.30 -37.7 0 1 20.43 33.44
  Q 22.00 32.05 23.17 35.07
  A 0.31 0.31 0.0 0 0 23.68 35.18
  L 24.78 34.08"
/>
<path stroke="#d4989d" vector-effect="non-scaling-stroke" d="
  M 41.20 34.08
  L 42.30 35.18
  A 0.31 0.31 0.0 0 0 42.81 35.07
  Q 43.98 32.05 45.55 33.44
  A 2.63 2.29 37.8 0 1 46.17 36.58
  Q 46.00 36.85 45.70 37.86
  A 0.49 0.48 8.1 0 0 46.17 38.48
  L 49.32 38.48
  A 0.55 0.55 0.0 0 0 49.81 37.69
  Q 49.21 36.49 48.16 33.15
  Q 47.82 32.07 46.26 31.14
  C 44.43 30.06 42.17 31.39 41.09 33.04
  A 0.83 0.82 39.3 0 0 41.20 34.08"
/>
<path stroke="#d4989d" vector-effect="non-scaling-stroke" d="
  M 33.01 45.74
  Q 34.51 45.74 35.81 45.79
  A 0.31 0.30 70.6 0 0 36.05 45.28
  C 32.54 41.31 36.08 35.95 40.43 39.63
  A 0.32 0.32 0.0 0 0 40.95 39.39
  L 40.95 37.56
  A 1.68 1.67 21.3 0 0 40.40 36.32
  L 38.08 34.26
  A 1.84 1.82 66.7 0 0 36.91 33.79
  Q 36.67 33.76 33.00 33.76
  Q 29.34 33.76 29.10 33.79
  A 1.84 1.82 -66.7 0 0 27.93 34.26
  L 25.61 36.32
  A 1.68 1.67 -21.3 0 0 25.06 37.56
  L 25.06 39.39
  A 0.32 0.32 0.0 0 0 25.58 39.63
  C 29.93 35.95 33.47 41.31 29.96 45.28
  A 0.31 0.30 -70.6 0 0 30.20 45.79
  Q 31.50 45.74 33.01 45.74"
/>
<path stroke="#d4989d" vector-effect="non-scaling-stroke" d="
  M 15.14 49.72
  L 18.38 49.72
  A 0.51 0.51 0.0 0 0 18.80 48.92
  Q 17.27 46.70 18.96 44.53
  A 2.55 2.06 25.3 0 1 21.51 43.91
  Q 22.86 44.33 23.89 44.75
  C 26.01 45.61 28.85 44.12 29.12 41.95
  A 1.03 1.03 0.0 0 0 27.25 41.24
  Q 26.65 42.12 26.19 42.44
  A 1.57 1.56 36.1 0 1 24.81 42.65
  C 23.35 42.18 22.14 41.23 20.26 41.42
  C 15.71 41.88 16.42 46.12 14.77 49.11
  A 0.42 0.42 0.0 0 0 15.14 49.72"
/>
<path stroke="#d4989d" vector-effect="non-scaling-stroke" d="
  M 50.88 49.71
  A 0.42 0.42 0.0 0 0 51.25 49.09
  C 49.58 46.08 50.29 41.81 45.71 41.36
  C 43.81 41.17 42.59 42.13 41.12 42.60
  A 1.59 1.57 -36.2 0 1 39.73 42.39
  Q 39.27 42.07 38.66 41.19
  A 1.04 1.03 -65.9 0 0 36.78 41.91
  C 37.06 44.09 39.92 45.59 42.05 44.72
  Q 43.09 44.29 44.45 43.87
  A 2.56 2.07 -25.4 0 1 47.02 44.49
  Q 48.73 46.67 47.19 48.91
  A 0.51 0.51 0.0 0 0 47.61 49.71
  L 50.88 49.71"
/>
<path stroke="#d4989d" vector-effect="non-scaling-stroke" d="
  M 34.53 27.61
  A 1.53 1.53 0.0 0 0 33.00 26.08
  A 1.53 1.53 0.0 0 0 31.47 27.61
  A 1.53 1.53 0.0 0 0 33.00 29.14
  A 1.53 1.53 0.0 0 0 34.53 27.61"
/>
</g>
<path fill="#581723" d="
  M 33.80 88.00
  L 33.13 88.00
  C 16.30 73.07 -8.34 41.49 5.48 17.61
  C 18.48 -4.83 50.94 -4.02 62.57 19.69
  C 66.93 28.57 65.93 39.80 62.41 48.85
  C 56.62 63.75 45.56 77.30 33.80 88.00
  Z
  M 33.42 86.69
  Q 33.53 86.69 33.62 86.67
  Q 33.70 86.66 33.79 86.57
  Q 47.36 74.03 56.47 58.47
  C 64.08 45.49 68.39 28.63 58.62 15.37
  Q 49.84 3.46 34.74 2.54
  Q 33.52 2.47 33.51 2.47
  Q 33.50 2.47 32.28 2.54
  Q 17.18 3.43 8.37 15.32
  C -1.42 28.56 2.85 45.43 10.43 58.42
  Q 19.51 74.00 33.06 86.57
  Q 33.15 86.66 33.22 86.67
  Q 33.32 86.69 33.42 86.69
  Z"
/>
<path fill="#a83148" d="
  M 33.51 2.47
  Q 33.52 2.47 34.74 2.54
  Q 49.84 3.46 58.62 15.37
  C 68.39 28.63 64.08 45.49 56.47 58.47
  Q 47.36 74.03 33.79 86.57
  Q 33.70 86.66 33.62 86.67
  Q 33.53 86.69 33.42 86.69
  Q 33.32 86.69 33.22 86.67
  Q 33.15 86.66 33.06 86.57
  Q 19.51 74.00 10.43 58.42
  C 2.85 45.43 -1.42 28.56 8.37 15.32
  Q 17.18 3.43 32.28 2.54
  Q 33.50 2.47 33.51 2.47
  Z
  M 29.49 21.62
  L 30.76 20.76
  A 0.46 0.46 0.0 0 0 30.89 20.12
  L 30.70 19.85
  A 2.23 1.13 55.9 0 0 28.52 18.63
  L 28.35 18.75
  A 2.23 1.13 55.9 0 0 28.67 21.23
  L 28.85 21.50
  A 0.46 0.46 0.0 0 0 29.49 21.62
  Z
  M 35.25 20.83
  L 36.55 21.62
  A 0.46 0.46 0.0 0 0 37.18 21.47
  L 37.35 21.20
  A 2.24 1.12 -58.6 0 0 37.56 18.70
  L 37.39 18.60
  A 2.24 1.12 -58.6 0 0 35.27 19.93
  L 35.10 20.20
  A 0.46 0.46 0.0 0 0 35.25 20.83
  Z
  M 27.8665 23.1570
  A 0.95 0.95 0.0 0 0 27.7611 21.8177
  L 26.7726 20.9734
  A 0.95 0.95 0.0 0 0 25.4332 21.0788
  L 25.1735 21.3830
  A 0.95 0.95 0.0 0 0 25.2789 22.7223
  L 26.2674 23.5666
  A 0.95 0.95 0.0 0 0 27.6068 23.4612
  L 27.8665 23.1570
  Z
  M 40.4547 20.9974
  A 0.88 0.88 0.0 0 0 39.2109 20.9561
  L 38.1449 21.9537
  A 0.88 0.88 0.0 0 0 38.1036 23.1975
  L 38.4453 23.5626
  A 0.88 0.88 0.0 0 0 39.6891 23.6039
  L 40.7551 22.6063
  A 0.88 0.88 0.0 0 0 40.7964 21.3625
  L 40.4547 20.9974
  Z
  M 29.00 31.48
  L 37.00 31.48
  A 0.31 0.31 0.0 0 0 37.31 31.17
  L 37.31 27.74
  A 4.88 4.13 90.0 0 0 33.18 22.86
  L 32.82 22.86
  A 4.88 4.13 90.0 0 0 28.69 27.74
  L 28.69 31.17
  A 0.31 0.31 0.0 0 0 29.00 31.48
  Z
  M 24.78 34.08
  A 0.83 0.82 -39.3 0 0 24.89 33.04
  C 23.81 31.39 21.55 30.06 19.72 31.14
  Q 18.16 32.07 17.82 33.15
  Q 16.76 36.49 16.16 37.69
  A 0.55 0.55 0.0 0 0 16.65 38.48
  L 19.81 38.48
  A 0.49 0.48 -8.0 0 0 20.28 37.86
  Q 19.98 36.85 19.81 36.58
  A 2.63 2.30 -37.7 0 1 20.43 33.44
  Q 22.00 32.05 23.17 35.07
  A 0.31 0.31 0.0 0 0 23.68 35.18
  L 24.78 34.08
  Z
  M 41.20 34.08
  L 42.30 35.18
  A 0.31 0.31 0.0 0 0 42.81 35.07
  Q 43.98 32.05 45.55 33.44
  A 2.63 2.29 37.8 0 1 46.17 36.58
  Q 46.00 36.85 45.70 37.86
  A 0.49 0.48 8.1 0 0 46.17 38.48
  L 49.32 38.48
  A 0.55 0.55 0.0 0 0 49.81 37.69
  Q 49.21 36.49 48.16 33.15
  Q 47.82 32.07 46.26 31.14
  C 44.43 30.06 42.17 31.39 41.09 33.04
  A 0.83 0.82 39.3 0 0 41.20 34.08
  Z
  M 33.01 45.74
  Q 34.51 45.74 35.81 45.79
  A 0.31 0.30 70.6 0 0 36.05 45.28
  C 32.54 41.31 36.08 35.95 40.43 39.63
  A 0.32 0.32 0.0 0 0 40.95 39.39
  L 40.95 37.56
  A 1.68 1.67 21.3 0 0 40.40 36.32
  L 38.08 34.26
  A 1.84 1.82 66.7 0 0 36.91 33.79
  Q 36.67 33.76 33.00 33.76
  Q 29.34 33.76 29.10 33.79
  A 1.84 1.82 -66.7 0 0 27.93 34.26
  L 25.61 36.32
  A 1.68 1.67 -21.3 0 0 25.06 37.56
  L 25.06 39.39
  A 0.32 0.32 0.0 0 0 25.58 39.63
  C 29.93 35.95 33.47 41.31 29.96 45.28
  A 0.31 0.30 -70.6 0 0 30.20 45.79
  Q 31.50 45.74 33.01 45.74
  Z
  M 15.14 49.72
  L 18.38 49.72
  A 0.51 0.51 0.0 0 0 18.80 48.92
  Q 17.27 46.70 18.96 44.53
  A 2.55 2.06 25.3 0 1 21.51 43.91
  Q 22.86 44.33 23.89 44.75
  C 26.01 45.61 28.85 44.12 29.12 41.95
  A 1.03 1.03 0.0 0 0 27.25 41.24
  Q 26.65 42.12 26.19 42.44
  A 1.57 1.56 36.1 0 1 24.81 42.65
  C 23.35 42.18 22.14 41.23 20.26 41.42
  C 15.71 41.88 16.42 46.12 14.77 49.11
  A 0.42 0.42 0.0 0 0 15.14 49.72
  Z
  M 50.88 49.71
  A 0.42 0.42 0.0 0 0 51.25 49.09
  C 49.58 46.08 50.29 41.81 45.71 41.36
  C 43.81 41.17 42.59 42.13 41.12 42.60
  A 1.59 1.57 -36.2 0 1 39.73 42.39
  Q 39.27 42.07 38.66 41.19
  A 1.04 1.03 -65.9 0 0 36.78 41.91
  C 37.06 44.09 39.92 45.59 42.05 44.72
  Q 43.09 44.29 44.45 43.87
  A 2.56 2.07 -25.4 0 1 47.02 44.49
  Q 48.73 46.67 47.19 48.91
  A 0.51 0.51 0.0 0 0 47.61 49.71
  L 50.88 49.71
  Z"
/>
<path fill="#fffef2" d="
  M 29.49 21.62
  A 0.46 0.46 0.0 0 1 28.85 21.50
  L 28.67 21.23
  A 2.23 1.13 55.9 0 1 28.35 18.75
  L 28.52 18.63
  A 2.23 1.13 55.9 0 1 30.70 19.85
  L 30.89 20.12
  A 0.46 0.46 0.0 0 1 30.76 20.76
  L 29.49 21.62
  Z"
/>
<path fill="#fffef2" d="
  M 35.25 20.83
  A 0.46 0.46 0.0 0 1 35.10 20.20
  L 35.27 19.93
  A 2.24 1.12 -58.6 0 1 37.39 18.60
  L 37.56 18.70
  A 2.24 1.12 -58.6 0 1 37.35 21.20
  L 37.18 21.47
  A 0.46 0.46 0.0 0 1 36.55 21.62
  L 35.25 20.83
  Z"
/>
<rect fill="#fffef2" x="-1.60" y="-1.15" transform="translate(26.52,22.27) rotate(40.5)" width="3.20" height="2.30" rx="0.95"/>
<rect fill="#fffef2" x="-1.61" y="-1.13" transform="translate(39.45,22.28) rotate(-43.1)" width="3.22" height="2.26" rx="0.88"/>
<path fill="#fffef2" d="
  M 29.00 31.48
  A 0.31 0.31 0.0 0 1 28.69 31.17
  L 28.69 27.74
  A 4.88 4.13 90.0 0 1 32.82 22.86
  L 33.18 22.86
  A 4.88 4.13 -90.0 0 1 37.31 27.74
  L 37.31 31.17
  A 0.31 0.31 0.0 0 1 37.00 31.48
  L 29.00 31.48
  Z
  M 34.53 27.61
  A 1.53 1.53 0.0 0 0 33.00 26.08
  A 1.53 1.53 0.0 0 0 31.47 27.61
  A 1.53 1.53 0.0 0 0 33.00 29.14
  A 1.53 1.53 0.0 0 0 34.53 27.61
  Z"
/>
<circle fill="#a83148" cx="33.00" cy="27.61" r="1.53"/>
<path fill="#fffef2" d="
  M 24.78 34.08
  L 23.68 35.18
  A 0.31 0.31 0.0 0 1 23.17 35.07
  Q 22.00 32.05 20.43 33.44
  A 2.63 2.30 -37.7 0 0 19.81 36.58
  Q 19.98 36.85 20.28 37.86
  A 0.49 0.48 -8.0 0 1 19.81 38.48
  L 16.65 38.48
  A 0.55 0.55 0.0 0 1 16.16 37.69
  Q 16.76 36.49 17.82 33.15
  Q 18.16 32.07 19.72 31.14
  C 21.55 30.06 23.81 31.39 24.89 33.04
  A 0.83 0.82 -39.3 0 1 24.78 34.08
  Z"
/>
<path fill="#fffef2" d="
  M 41.20 34.08
  A 0.83 0.82 39.3 0 1 41.09 33.04
  C 42.17 31.39 44.43 30.06 46.26 31.14
  Q 47.82 32.07 48.16 33.15
  Q 49.21 36.49 49.81 37.69
  A 0.55 0.55 0.0 0 1 49.32 38.48
  L 46.17 38.48
  A 0.49 0.48 8.1 0 1 45.70 37.86
  Q 46.00 36.85 46.17 36.58
  A 2.63 2.29 37.8 0 0 45.55 33.44
  Q 43.98 32.05 42.81 35.07
  A 0.31 0.31 0.0 0 1 42.30 35.18
  L 41.20 34.08
  Z"
/>
<path fill="#fffef2" d="
  M 33.00 33.76
  Q 36.67 33.76 36.91 33.79
  A 1.84 1.82 66.7 0 1 38.08 34.26
  L 40.40 36.32
  A 1.68 1.67 21.3 0 1 40.95 37.56
  L 40.95 39.39
  A 0.32 0.32 0.0 0 1 40.43 39.63
  C 36.08 35.95 32.54 41.31 36.05 45.28
  A 0.31 0.30 70.6 0 1 35.81 45.79
  Q 34.51 45.74 33.01 45.74
  Q 31.50 45.74 30.20 45.79
  A 0.31 0.30 -70.6 0 1 29.96 45.28
  C 33.47 41.31 29.93 35.95 25.58 39.63
  A 0.32 0.32 0.0 0 1 25.06 39.39
  L 25.06 37.56
  A 1.68 1.67 -21.3 0 1 25.61 36.32
  L 27.93 34.26
  A 1.84 1.82 -66.7 0 1 29.10 33.79
  Q 29.34 33.76 33.00 33.76
  Z"
/>
<path fill="#fffef2" d="
  M 15.14 49.72
  A 0.42 0.42 0.0 0 1 14.77 49.11
  C 16.42 46.12 15.71 41.88 20.26 41.42
  C 22.14 41.23 23.35 42.18 24.81 42.65
  A 1.57 1.56 36.1 0 0 26.19 42.44
  Q 26.65 42.12 27.25 41.24
  A 1.03 1.03 0.0 0 1 29.12 41.95
  C 28.85 44.12 26.01 45.61 23.89 44.75
  Q 22.86 44.33 21.51 43.91
  A 2.55 2.06 25.3 0 0 18.96 44.53
  Q 17.27 46.70 18.80 48.92
  A 0.51 0.51 0.0 0 1 18.38 49.72
  L 15.14 49.72
  Z"
/>
<path fill="#fffef2" d="
  M 50.88 49.71
  L 47.61 49.71
  A 0.51 0.51 0.0 0 1 47.19 48.91
  Q 48.73 46.67 47.02 44.49
  A 2.56 2.07 -25.4 0 0 44.45 43.87
  Q 43.09 44.29 42.05 44.72
  C 39.92 45.59 37.06 44.09 36.78 41.91
  A 1.04 1.03 -65.9 0 1 38.66 41.19
  Q 39.27 42.07 39.73 42.39
  A 1.59 1.57 -36.2 0 0 41.12 42.60
  C 42.59 42.13 43.81 41.17 45.71 41.36
  C 50.29 41.81 49.58 46.08 51.25 49.09
  A 0.42 0.42 0.0 0 1 50.88 49.71
  Z"
/>
</svg>
