<?xml version="1.0" encoding="UTF-8" standalone="no"?>
<!DOCTYPE svg PUBLIC "-//W3C//DTD SVG 1.1//EN" "http://www.w3.org/Graphics/SVG/1.1/DTD/svg11.dtd">
<svg xmlns="http://www.w3.org/2000/svg" version="1.1" viewBox="0.00 0.00 66.00 88.00">
<g stroke-width="2.00" fill="none" stroke-linecap="butt">
<path stroke="#428270" vector-effect="non-scaling-stroke" d="
  M 33.40 86.73
  Q 33.49 86.73 33.64 86.60
  Q 48.76 72.60 57.55 56.53
  C 67.30 38.69 68.01 18.03 48.61 6.44
  Q 41.99 2.48 33.53 2.46
  Q 25.07 2.45 18.44 6.39
  C -0.99 17.92 -0.35 38.59 9.35 56.46
  Q 18.09 72.55 33.17 86.60
  Q 33.31 86.73 33.40 86.73"
/>
<path stroke="#add5c4" vector-effect="non-scaling-stroke" d="
  M 32.54 52.24
  Q 35.64 52.24 36.17 52.23
  A 1.13 1.09 21.1 0 0 36.93 51.91
  L 39.43 49.40
  A 0.71 0.71 0.0 0 0 39.62 48.69
  L 38.13 43.61
  A 4.33 4.33 0.0 0 1 38.75 39.89
  L 44.49 31.83
  A 1.82 1.80 47.9 0 0 44.58 29.88
  L 41.68 24.86
  A 1.11 1.10 -23.2 0 1 42.33 23.25
  L 43.26 22.98
  A 0.66 0.66 0.0 0 0 43.73 22.35
  L 43.73 19.11
  A 0.52 0.52 0.0 0 0 43.12 18.60
  C 40.12 19.16 38.98 20.52 36.99 22.60
  A 0.82 0.81 -22.9 0 1 35.58 22.03
  Q 35.61 20.13 36.98 17.39
  A 0.68 0.68 0.0 0 0 36.03 16.49
  L 34.32 17.48
  A 0.45 0.44 68.6 0 1 33.66 17.19
  Q 33.36 15.83 32.54 15.83
  Q 31.72 15.83 31.42 17.19
  A 0.45 0.44 -68.6 0 1 30.76 17.48
  L 29.05 16.49
  A 0.68 0.68 0.0 0 0 28.10 17.39
  Q 29.47 20.13 29.50 22.03
  A 0.82 0.81 22.8 0 1 28.09 22.60
  C 26.10 20.52 24.96 19.16 21.96 18.60
  A 0.52 0.52 0.0 0 0 21.35 19.11
  L 21.35 22.35
  A 0.66 0.66 0.0 0 0 21.82 22.98
  L 22.75 23.25
  A 1.11 1.10 23.2 0 1 23.40 24.86
  L 20.50 29.88
  A 1.82 1.80 -47.9 0 0 20.59 31.83
  L 26.34 39.89
  A 4.33 4.33 0.0 0 1 26.96 43.61
  L 25.47 48.69
  A 0.71 0.71 0.0 0 0 25.66 49.40
  L 28.16 51.91
  A 1.13 1.09 -21.1 0 0 28.92 52.23
  Q 29.45 52.24 32.54 52.24"
/>
<path stroke="#add5c4" vector-effect="non-scaling-stroke" d="
  M 32.54 40.66
  Q 32.76 40.66 34.62 29.38
  A 1.22 1.22 0.0 0 1 34.96 28.71
  L 36.08 27.59
  A 1.11 1.11 0.0 0 0 36.39 26.63
  Q 36.19 25.43 34.90 25.27
  A 0.76 0.74 -4.6 0 1 34.27 24.75
  Q 33.82 23.28 32.53 23.28
  Q 31.24 23.28 30.79 24.75
  A 0.76 0.74 4.5 0 1 30.16 25.27
  Q 28.87 25.43 28.68 26.63
  A 1.11 1.11 0.0 0 0 28.99 27.59
  L 30.11 28.71
  A 1.22 1.22 0.0 0 1 30.45 29.38
  Q 32.33 40.66 32.54 40.66"
/>
<path stroke="#add5c4" vector-effect="non-scaling-stroke" d="
  M 41.2539 29.3200
  A 2.81 1.60 -44.8 0 0 38.1326 30.1647
  A 2.81 1.60 -44.8 0 0 37.2661 33.2800
  A 2.81 1.60 -44.8 0 0 40.3874 32.4353
  A 2.81 1.60 -44.8 0 0 41.2539 29.3200"
/>
<path stroke="#add5c4" vector-effect="non-scaling-stroke" d="
  M 23.8231 29.5254
  A 2.74 1.56 -137.4 0 0 24.7841 32.5283
  A 2.74 1.56 -137.4 0 0 27.8569 33.2346
  A 2.74 1.56 -137.4 0 0 26.8959 30.2317
  A 2.74 1.56 -137.4 0 0 23.8231 29.5254"
/>
<path stroke="#add5c4" vector-effect="non-scaling-stroke" d="
  M 32.54 50.42
  C 32.73 50.42 32.69 50.43 32.79 50.36
  Q 34.20 49.35 35.80 49.18
  A 0.48 0.48 0.0 0 0 35.94 48.27
  Q 34.29 47.55 33.45 45.79
  Q 32.60 44.01 32.52 44.01
  Q 32.45 44.01 31.61 45.79
  Q 30.78 47.56 29.13 48.29
  A 0.48 0.48 0.0 0 0 29.28 49.20
  Q 30.88 49.36 32.30 50.36
  C 32.39 50.43 32.36 50.42 32.54 50.42"
/>
</g>
<path fill="#2a584b" d="
  M 33.78 88.00
  L 33.04 88.00
  C 16.35 72.83 -7.75 42.47 5.08 18.34
  C 16.04 -2.28 45.20 -4.67 59.20 14.06
  C 77.67 38.77 51.52 71.97 33.78 88.00
  Z
  M 33.40 86.73
  Q 33.49 86.73 33.64 86.60
  Q 48.76 72.60 57.55 56.53
  C 67.30 38.69 68.01 18.03 48.61 6.44
  Q 41.99 2.48 33.53 2.46
  Q 25.07 2.45 18.44 6.39
  C -0.99 17.92 -0.35 38.59 9.35 56.46
  Q 18.09 72.55 33.17 86.60
  Q 33.31 86.73 33.40 86.73
  Z"
/>
<path fill="#5aab95" d="
  M 33.53 2.46
  Q 41.99 2.48 48.61 6.44
  C 68.01 18.03 67.30 38.69 57.55 56.53
  Q 48.76 72.60 33.64 86.60
  Q 33.49 86.73 33.40 86.73
  Q 33.31 86.73 33.17 86.60
  Q 18.09 72.55 9.35 56.46
  C -0.35 38.59 -0.99 17.92 18.44 6.39
  Q 25.07 2.45 33.53 2.46
  Z
  M 32.54 52.24
  Q 35.64 52.24 36.17 52.23
  A 1.13 1.09 21.1 0 0 36.93 51.91
  L 39.43 49.40
  A 0.71 0.71 0.0 0 0 39.62 48.69
  L 38.13 43.61
  A 4.33 4.33 0.0 0 1 38.75 39.89
  L 44.49 31.83
  A 1.82 1.80 47.9 0 0 44.58 29.88
  L 41.68 24.86
  A 1.11 1.10 -23.2 0 1 42.33 23.25
  L 43.26 22.98
  A 0.66 0.66 0.0 0 0 43.73 22.35
  L 43.73 19.11
  A 0.52 0.52 0.0 0 0 43.12 18.60
  C 40.12 19.16 38.98 20.52 36.99 22.60
  A 0.82 0.81 -22.9 0 1 35.58 22.03
  Q 35.61 20.13 36.98 17.39
  A 0.68 0.68 0.0 0 0 36.03 16.49
  L 34.32 17.48
  A 0.45 0.44 68.6 0 1 33.66 17.19
  Q 33.36 15.83 32.54 15.83
  Q 31.72 15.83 31.42 17.19
  A 0.45 0.44 -68.6 0 1 30.76 17.48
  L 29.05 16.49
  A 0.68 0.68 0.0 0 0 28.10 17.39
  Q 29.47 20.13 29.50 22.03
  A 0.82 0.81 22.8 0 1 28.09 22.60
  C 26.10 20.52 24.96 19.16 21.96 18.60
  A 0.52 0.52 0.0 0 0 21.35 19.11
  L 21.35 22.35
  A 0.66 0.66 0.0 0 0 21.82 22.98
  L 22.75 23.25
  A 1.11 1.10 23.2 0 1 23.40 24.86
  L 20.50 29.88
  A 1.82 1.80 -47.9 0 0 20.59 31.83
  L 26.34 39.89
  A 4.33 4.33 0.0 0 1 26.96 43.61
  L 25.47 48.69
  A 0.71 0.71 0.0 0 0 25.66 49.40
  L 28.16 51.91
  A 1.13 1.09 -21.1 0 0 28.92 52.23
  Q 29.45 52.24 32.54 52.24
  Z"
/>
<path fill="#fffef2" d="
  M 32.54 15.83
  Q 33.36 15.83 33.66 17.19
  A 0.45 0.44 68.6 0 0 34.32 17.48
  L 36.03 16.49
  A 0.68 0.68 0.0 0 1 36.98 17.39
  Q 35.61 20.13 35.58 22.03
  A 0.82 0.81 -22.9 0 0 36.99 22.60
  C 38.98 20.52 40.12 19.16 43.12 18.60
  A 0.52 0.52 0.0 0 1 43.73 19.11
  L 43.73 22.35
  A 0.66 0.66 0.0 0 1 43.26 22.98
  L 42.33 23.25
  A 1.11 1.10 -23.2 0 0 41.68 24.86
  L 44.58 29.88
  A 1.82 1.80 47.9 0 1 44.49 31.83
  L 38.75 39.89
  A 4.33 4.33 0.0 0 0 38.13 43.61
  L 39.62 48.69
  A 0.71 0.71 0.0 0 1 39.43 49.40
  L 36.93 51.91
  A 1.13 1.09 21.1 0 1 36.17 52.23
  Q 35.64 52.24 32.54 52.24
  Q 29.45 52.24 28.92 52.23
  A 1.13 1.09 -21.1 0 1 28.16 51.91
  L 25.66 49.40
  A 0.71 0.71 0.0 0 1 25.47 48.69
  L 26.96 43.61
  A 4.33 4.33 0.0 0 0 26.34 39.89
  L 20.59 31.83
  A 1.82 1.80 -47.9 0 1 20.50 29.88
  L 23.40 24.86
  A 1.11 1.10 23.2 0 0 22.75 23.25
  L 21.82 22.98
  A 0.66 0.66 0.0 0 1 21.35 22.35
  L 21.35 19.11
  A 0.52 0.52 0.0 0 1 21.96 18.60
  C 24.96 19.16 26.10 20.52 28.09 22.60
  A 0.82 0.81 22.8 0 0 29.50 22.03
  Q 29.47 20.13 28.10 17.39
  A 0.68 0.68 0.0 0 1 29.05 16.49
  L 30.76 17.48
  A 0.45 0.44 -68.6 0 0 31.42 17.19
  Q 31.72 15.83 32.54 15.83
  Z
  M 32.54 40.66
  Q 32.76 40.66 34.62 29.38
  A 1.22 1.22 0.0 0 1 34.96 28.71
  L 36.08 27.59
  A 1.11 1.11 0.0 0 0 36.39 26.63
  Q 36.19 25.43 34.90 25.27
  A 0.76 0.74 -4.6 0 1 34.27 24.75
  Q 33.82 23.28 32.53 23.28
  Q 31.24 23.28 30.79 24.75
  A 0.76 0.74 4.5 0 1 30.16 25.27
  Q 28.87 25.43 28.68 26.63
  A 1.11 1.11 0.0 0 0 28.99 27.59
  L 30.11 28.71
  A 1.22 1.22 0.0 0 1 30.45 29.38
  Q 32.33 40.66 32.54 40.66
  Z
  M 41.2539 29.3200
  A 2.81 1.60 -44.8 0 0 38.1326 30.1647
  A 2.81 1.60 -44.8 0 0 37.2661 33.2800
  A 2.81 1.60 -44.8 0 0 40.3874 32.4353
  A 2.81 1.60 -44.8 0 0 41.2539 29.3200
  Z
  M 23.8231 29.5254
  A 2.74 1.56 -137.4 0 0 24.7841 32.5283
  A 2.74 1.56 -137.4 0 0 27.8569 33.2346
  A 2.74 1.56 -137.4 0 0 26.8959 30.2317
  A 2.74 1.56 -137.4 0 0 23.8231 29.5254
  Z
  M 32.54 50.42
  C 32.73 50.42 32.69 50.43 32.79 50.36
  Q 34.20 49.35 35.80 49.18
  A 0.48 0.48 0.0 0 0 35.94 48.27
  Q 34.29 47.55 33.45 45.79
  Q 32.60 44.01 32.52 44.01
  Q 32.45 44.01 31.61 45.79
  Q 30.78 47.56 29.13 48.29
  A 0.48 0.48 0.0 0 0 29.28 49.20
  Q 30.88 49.36 32.30 50.36
  C 32.39 50.43 32.36 50.42 32.54 50.42
  Z"
/>
<path fill="#5aab95" d="
  M 32.53 23.28
  Q 33.82 23.28 34.27 24.75
  A 0.76 0.74 -4.6 0 0 34.90 25.27
  Q 36.19 25.43 36.39 26.63
  A 1.11 1.11 0.0 0 1 36.08 27.59
  L 34.96 28.71
  A 1.22 1.22 0.0 0 0 34.62 29.38
  Q 32.76 40.66 32.54 40.66
  Q 32.33 40.66 30.45 29.38
  A 1.22 1.22 0.0 0 0 30.11 28.71
  L 28.99 27.59
  A 1.11 1.11 0.0 0 1 28.68 26.63
  Q 28.87 25.43 30.16 25.27
  A 0.76 0.74 4.5 0 0 30.79 24.75
  Q 31.24 23.28 32.53 23.28
  Z"
/>
<ellipse fill="#5aab95" cx="0.00" cy="0.00" transform="translate(39.26,31.30) rotate(-44.8)" rx="2.81" ry="1.60"/>
<ellipse fill="#5aab95" cx="0.00" cy="0.00" transform="translate(25.84,31.38) rotate(-137.4)" rx="2.74" ry="1.56"/>
<path fill="#5aab95" d="
  M 32.52 44.01
  Q 32.60 44.01 33.45 45.79
  Q 34.29 47.55 35.94 48.27
  A 0.48 0.48 0.0 0 1 35.80 49.18
  Q 34.20 49.35 32.79 50.36
  C 32.69 50.43 32.73 50.42 32.54 50.42
  C 32.36 50.42 32.39 50.43 32.30 50.36
  Q 30.88 49.36 29.28 49.20
  A 0.48 0.48 0.0 0 1 29.13 48.29
  Q 30.78 47.56 31.61 45.79
  Q 32.45 44.01 32.52 44.01
  Z"
/>
</svg>
