<?xml version="1.0" encoding="UTF-8" standalone="no"?>
<!DOCTYPE svg PUBLIC "-//W3C//DTD SVG 1.1//EN" "http://www.w3.org/Graphics/SVG/1.1/DTD/svg11.dtd">
<svg xmlns="http://www.w3.org/2000/svg" version="1.1" viewBox="0.00 0.00 66.00 88.00">
<g stroke-width="2.00" fill="none" stroke-linecap="butt">
<path stroke="#816c3e" vector-effect="non-scaling-stroke" d="
  M 33.38 86.69
  Q 33.50 86.69 33.60 86.67
  Q 33.62 86.66 33.75 86.54
  Q 47.71 73.44 56.60 58.33
  C 64.03 45.70 68.32 28.38 58.78 15.48
  Q 49.57 3.03 33.75 2.46
  Q 33.65 2.46 33.56 2.46
  Q 33.46 2.46 33.36 2.46
  Q 17.54 2.96 8.28 15.38
  C -1.31 28.24 2.91 45.58 10.28 58.24
  Q 19.11 73.38 33.02 86.54
  Q 33.15 86.66 33.17 86.67
  Q 33.27 86.69 33.38 86.69"
/>
<path stroke="#d5c7a3" vector-effect="non-scaling-stroke" d="
  M 26.74 43.67
  Q 26.54 44.86 25.37 46.78
  A 0.63 0.63 0.0 0 0 25.98 47.74
  Q 30.60 47.16 32.18 43.23
  A 0.84 0.82 11.0 0 1 32.95 42.72
  C 39.25 42.74 44.79 43.63 48.85 38.47
  C 51.75 34.80 52.09 29.62 49.55 25.66
  C 46.14 20.33 41.26 20.19 35.06 20.25
  C 28.63 20.30 21.00 18.96 16.70 25.13
  Q 13.53 29.68 15.29 34.94
  Q 17.66 41.98 25.98 42.68
  A 0.85 0.85 0.0 0 1 26.74 43.67"
/>
<path stroke="#d5c7a3" vector-effect="non-scaling-stroke" d="
  M 26.73 31.50
  A 2.40 2.40 0.0 0 0 24.33 29.10
  A 2.40 2.40 0.0 0 0 21.93 31.50
  A 2.40 2.40 0.0 0 0 24.33 33.90
  A 2.40 2.40 0.0 0 0 26.73 31.50"
/>
<path stroke="#d5c7a3" vector-effect="non-scaling-stroke" d="
  M 35.27 31.50
  A 2.40 2.40 0.0 0 0 32.87 29.10
  A 2.40 2.40 0.0 0 0 30.47 31.50
  A 2.40 2.40 0.0 0 0 32.87 33.90
  A 2.40 2.40 0.0 0 0 35.27 31.50"
/>
<path stroke="#d5c7a3" vector-effect="non-scaling-stroke" d="
  M 44.05 31.50
  A 2.41 2.41 0.0 0 0 41.64 29.09
  A 2.41 2.41 0.0 0 0 39.23 31.50
  A 2.41 2.41 0.0 0 0 41.64 33.91
  A 2.41 2.41 0.0 0 0 44.05 31.50"
/>
</g>
<path fill="#574828" d="
  M 33.79 88.00
  L 32.99 88.00
  C 21.92 77.84 12.31 65.94 5.89 52.12
  Q 2.25 44.28 1.60 35.00
  C 0.22 15.23 17.16 -0.32 36.52 1.46
  C 45.47 2.29 53.94 6.92 59.29 14.21
  C 77.52 39.03 51.54 71.90 33.79 88.00
  Z
  M 33.38 86.69
  Q 33.50 86.69 33.60 86.67
  Q 33.62 86.66 33.75 86.54
  Q 47.71 73.44 56.60 58.33
  C 64.03 45.70 68.32 28.38 58.78 15.48
  Q 49.57 3.03 33.75 2.46
  Q 33.65 2.46 33.56 2.46
  Q 33.46 2.46 33.36 2.46
  Q 17.54 2.96 8.28 15.38
  C -1.31 28.24 2.91 45.58 10.28 58.24
  Q 19.11 73.38 33.02 86.54
  Q 33.15 86.66 33.17 86.67
  Q 33.27 86.69 33.38 86.69
  Z"
/>
<path fill="#aa8f54" d="
  M 33.56 2.46
  Q 33.65 2.46 33.75 2.46
  Q 49.57 3.03 58.78 15.48
  C 68.32 28.38 64.03 45.70 56.60 58.33
  Q 47.71 73.44 33.75 86.54
  Q 33.62 86.66 33.60 86.67
  Q 33.50 86.69 33.38 86.69
  Q 33.27 86.69 33.17 86.67
  Q 33.15 86.66 33.02 86.54
  Q 19.11 73.38 10.28 58.24
  C 2.91 45.58 -1.31 28.24 8.28 15.38
  Q 17.54 2.96 33.36 2.46
  Q 33.46 2.46 33.56 2.46
  Z
  M 26.74 43.67
  Q 26.54 44.86 25.37 46.78
  A 0.63 0.63 0.0 0 0 25.98 47.74
  Q 30.60 47.16 32.18 43.23
  A 0.84 0.82 11.0 0 1 32.95 42.72
  C 39.25 42.74 44.79 43.63 48.85 38.47
  C 51.75 34.80 52.09 29.62 49.55 25.66
  C 46.14 20.33 41.26 20.19 35.06 20.25
  C 28.63 20.30 21.00 18.96 16.70 25.13
  Q 13.53 29.68 15.29 34.94
  Q 17.66 41.98 25.98 42.68
  A 0.85 0.85 0.0 0 1 26.74 43.67
  Z"
/>
<path fill="#fffef2" d="
  M 26.74 43.67
  A 0.85 0.85 0.0 0 0 25.98 42.68
  Q 17.66 41.98 15.29 34.94
  Q 13.53 29.68 16.70 25.13
  C 21.00 18.96 28.63 20.30 35.06 20.25
  C 41.26 20.19 46.14 20.33 49.55 25.66
  C 52.09 29.62 51.75 34.80 48.85 38.47
  C 44.79 43.63 39.25 42.74 32.95 42.72
  A 0.84 0.82 11.0 0 0 32.18 43.23
  Q 30.60 47.16 25.98 47.74
  A 0.63 0.63 0.0 0 1 25.37 46.78
  Q 26.54 44.86 26.74 43.67
  Z
  M 26.73 31.50
  A 2.40 2.40 0.0 0 0 24.33 29.10
  A 2.40 2.40 0.0 0 0 21.93 31.50
  A 2.40 2.40 0.0 0 0 24.33 33.90
  A 2.40 2.40 0.0 0 0 26.73 31.50
  Z
  M 35.27 31.50
  A 2.40 2.40 0.0 0 0 32.87 29.10
  A 2.40 2.40 0.0 0 0 30.47 31.50
  A 2.40 2.40 0.0 0 0 32.87 33.90
  A 2.40 2.40 0.0 0 0 35.27 31.50
  Z
  M 44.05 31.50
  A 2.41 2.41 0.0 0 0 41.64 29.09
  A 2.41 2.41 0.0 0 0 39.23 31.50
  A 2.41 2.41 0.0 0 0 41.64 33.91
  A 2.41 2.41 0.0 0 0 44.05 31.50
  Z"
/>
<circle fill="#aa8f54" cx="24.33" cy="31.50" r="2.40"/>
<circle fill="#aa8f54" cx="32.87" cy="31.50" r="2.40"/>
<circle fill="#aa8f54" cx="41.64" cy="31.50" r="2.41"/>
</svg>
