<?xml version="1.0" encoding="UTF-8" standalone="no"?>
<!DOCTYPE svg PUBLIC "-//W3C//DTD SVG 1.1//EN" "http://www.w3.org/Graphics/SVG/1.1/DTD/svg11.dtd">
<svg xmlns="http://www.w3.org/2000/svg" version="1.1" viewBox="0.00 0.00 66.00 88.00">
<g stroke-width="2.00" fill="none" stroke-linecap="butt">
<path stroke="#816c3e" vector-effect="non-scaling-stroke" d="
  M 33.38 86.69
  Q 33.55 86.69 33.60 86.67
  Q 33.68 86.63 33.76 86.55
  Q 46.86 74.43 56.03 59.27
  Q 62.14 49.17 63.82 38.76
  C 65.98 25.38 60.37 12.98 48.61 6.43
  Q 41.50 2.47 33.55 2.46
  Q 25.61 2.44 18.48 6.37
  C 6.69 12.87 1.03 25.25 3.14 38.64
  Q 4.78 49.05 10.85 59.18
  Q 19.96 74.38 33.01 86.55
  Q 33.09 86.63 33.17 86.67
  Q 33.21 86.69 33.38 86.69"
/>
<path stroke="#d5c7a3" vector-effect="non-scaling-stroke" d="
  M 24.70 30.91
  A 1.39 1.39 0.0 0 0 25.90 32.99
  L 40.54 33.02
  A 1.39 1.39 0.0 0 0 41.75 30.94
  L 34.45 18.24
  A 1.39 1.39 0.0 0 0 32.04 18.24
  L 24.70 30.91"
/>
<path stroke="#d5c7a3" vector-effect="non-scaling-stroke" d="
  M 30.72 50.00
  A 1.41 1.41 0.0 0 0 31.95 47.89
  L 24.66 35.27
  A 1.41 1.41 0.0 0 0 22.22 35.27
  L 14.93 47.89
  A 1.41 1.41 0.0 0 0 16.15 50.01
  L 30.72 50.00"
/>
<path stroke="#d5c7a3" vector-effect="non-scaling-stroke" d="
  M 34.49 47.91
  A 1.39 1.39 0.0 0 0 35.69 49.99
  L 50.33 50.02
  A 1.39 1.39 0.0 0 0 51.54 47.94
  L 44.24 35.24
  A 1.39 1.39 0.0 0 0 41.83 35.24
  L 34.49 47.91"
/>
</g>
<path fill="#574828" d="
  M 33.81 88.00
  L 32.99 88.00
  C 21.92 77.84 12.26 65.89 5.89 52.11
  Q 2.25 44.25 1.59 35.08
  C 0.13 14.50 18.50 -1.62 38.97 1.80
  C 54.75 4.45 66.20 18.34 65.45 34.32
  C 64.49 54.79 48.33 74.76 33.81 88.00
  Z
  M 33.38 86.69
  Q 33.55 86.69 33.60 86.67
  Q 33.68 86.63 33.76 86.55
  Q 46.86 74.43 56.03 59.27
  Q 62.14 49.17 63.82 38.76
  C 65.98 25.38 60.37 12.98 48.61 6.43
  Q 41.50 2.47 33.55 2.46
  Q 25.61 2.44 18.48 6.37
  C 6.69 12.87 1.03 25.25 3.14 38.64
  Q 4.78 49.05 10.85 59.18
  Q 19.96 74.38 33.01 86.55
  Q 33.09 86.63 33.17 86.67
  Q 33.21 86.69 33.38 86.69
  Z"
/>
<path fill="#aa8f54" d="
  M 33.55 2.46
  Q 41.50 2.47 48.61 6.43
  C 60.37 12.98 65.98 25.38 63.82 38.76
  Q 62.14 49.17 56.03 59.27
  Q 46.86 74.43 33.76 86.55
  Q 33.68 86.63 33.60 86.67
  Q 33.55 86.69 33.38 86.69
  Q 33.21 86.69 33.17 86.67
  Q 33.09 86.63 33.01 86.55
  Q 19.96 74.38 10.85 59.18
  Q 4.78 49.05 3.14 38.64
  C 1.03 25.25 6.69 12.87 18.48 6.37
  Q 25.61 2.44 33.55 2.46
  Z
  M 24.70 30.91
  A 1.39 1.39 0.0 0 0 25.90 32.99
  L 40.54 33.02
  A 1.39 1.39 0.0 0 0 41.75 30.94
  L 34.45 18.24
  A 1.39 1.39 0.0 0 0 32.04 18.24
  L 24.70 30.91
  Z
  M 30.72 50.00
  A 1.41 1.41 0.0 0 0 31.95 47.89
  L 24.66 35.27
  A 1.41 1.41 0.0 0 0 22.22 35.27
  L 14.93 47.89
  A 1.41 1.41 0.0 0 0 16.15 50.01
  L 30.72 50.00
  Z
  M 34.49 47.91
  A 1.39 1.39 0.0 0 0 35.69 49.99
  L 50.33 50.02
  A 1.39 1.39 0.0 0 0 51.54 47.94
  L 44.24 35.24
  A 1.39 1.39 0.0 0 0 41.83 35.24
  L 34.49 47.91
  Z"
/>
<path fill="#fffef2" d="
  M 24.70 30.91
  L 32.04 18.24
  A 1.39 1.39 0.0 0 1 34.45 18.24
  L 41.75 30.94
  A 1.39 1.39 0.0 0 1 40.54 33.02
  L 25.90 32.99
  A 1.39 1.39 0.0 0 1 24.70 30.91
  Z"
/>
<path fill="#fffef2" d="
  M 30.72 50.00
  L 16.15 50.01
  A 1.41 1.41 0.0 0 1 14.93 47.89
  L 22.22 35.27
  A 1.41 1.41 0.0 0 1 24.66 35.27
  L 31.95 47.89
  A 1.41 1.41 0.0 0 1 30.72 50.00
  Z"
/>
<path fill="#fffef2" d="
  M 34.49 47.91
  L 41.83 35.24
  A 1.39 1.39 0.0 0 1 44.24 35.24
  L 51.54 47.94
  A 1.39 1.39 0.0 0 1 50.33 50.02
  L 35.69 49.99
  A 1.39 1.39 0.0 0 1 34.49 47.91
  Z"
/>
</svg>
