<?xml version="1.0" encoding="UTF-8" standalone="no"?>
<!DOCTYPE svg PUBLIC "-//W3C//DTD SVG 1.1//EN" "http://www.w3.org/Graphics/SVG/1.1/DTD/svg11.dtd">
<svg xmlns="http://www.w3.org/2000/svg" version="1.1" viewBox="0.00 0.00 66.00 88.00">
<g stroke-width="2.00" fill="none" stroke-linecap="butt">
<path stroke="#428270" vector-effect="non-scaling-stroke" d="
  M 33.40 86.73
  Q 33.51 86.73 33.65 86.61
  C 51.27 70.26 78.12 35.90 56.05 12.23
  Q 47.70 3.28 35.00 2.51
  Q 34.15 2.46 33.54 2.46
  Q 32.93 2.46 32.07 2.50
  Q 19.38 3.23 11.00 12.15
  C -11.15 35.75 15.58 70.20 33.15 86.60
  Q 33.29 86.73 33.40 86.73"
/>
<path stroke="#add2c1" vector-effect="non-scaling-stroke" d="
  M 28.86 17.06
  Q 24.35 21.14 20.44 25.69
  C 15.50 31.45 11.67 38.42 18.30 44.88
  C 24.49 50.92 33.88 52.30 41.99 49.75
  C 47.49 48.01 52.73 43.17 50.79 36.89
  C 49.71 33.42 45.84 30.75 42.75 28.98
  Q 37.07 25.73 34.10 23.93
  Q 30.97 22.04 29.44 17.22
  A 0.36 0.36 0.0 0 0 28.86 17.06"
/>
<path stroke="#add2c1" vector-effect="non-scaling-stroke" d="
  M 28.14 23.32
  A 0.30 0.30 0.0 0 0 27.64 23.11
  C 24.18 26.35 13.98 35.87 23.58 39.23
  C 27.07 40.46 35.10 40.60 38.05 38.32
  Q 41.02 36.04 38.78 33.30
  A 2.61 2.56 84.2 0 0 38.02 32.67
  C 33.57 30.26 28.15 28.49 28.14 23.32"
/>
</g>
<path fill="#2a584b" d="
  M 33.80 88.00
  L 33.04 88.00
  C 16.42 72.98 -7.92 42.19 5.16 18.19
  C 17.90 -5.21 51.96 -4.01 62.92 20.44
  C 66.91 29.33 65.83 40.19 62.33 49.05
  C 56.45 63.92 45.56 77.29 33.80 88.00
  Z
  M 33.40 86.73
  Q 33.51 86.73 33.65 86.61
  C 51.27 70.26 78.12 35.90 56.05 12.23
  Q 47.70 3.28 35.00 2.51
  Q 34.15 2.46 33.54 2.46
  Q 32.93 2.46 32.07 2.50
  Q 19.38 3.23 11.00 12.15
  C -11.15 35.75 15.58 70.20 33.15 86.60
  Q 33.29 86.73 33.40 86.73
  Z"
/>
<path fill="#5aab95" d="
  M 33.54 2.46
  Q 34.15 2.46 35.00 2.51
  Q 47.70 3.28 56.05 12.23
  C 78.12 35.90 51.27 70.26 33.65 86.61
  Q 33.51 86.73 33.40 86.73
  Q 33.29 86.73 33.15 86.60
  C 15.58 70.20 -11.15 35.75 11.00 12.15
  Q 19.38 3.23 32.07 2.50
  Q 32.93 2.46 33.54 2.46
  Z
  M 28.86 17.06
  Q 24.35 21.14 20.44 25.69
  C 15.50 31.45 11.67 38.42 18.30 44.88
  C 24.49 50.92 33.88 52.30 41.99 49.75
  C 47.49 48.01 52.73 43.17 50.79 36.89
  C 49.71 33.42 45.84 30.75 42.75 28.98
  Q 37.07 25.73 34.10 23.93
  Q 30.97 22.04 29.44 17.22
  A 0.36 0.36 0.0 0 0 28.86 17.06
  Z"
/>
<path fill="#fff8ec" d="
  M 29.44 17.22
  Q 30.97 22.04 34.10 23.93
  Q 37.07 25.73 42.75 28.98
  C 45.84 30.75 49.71 33.42 50.79 36.89
  C 52.73 43.17 47.49 48.01 41.99 49.75
  C 33.88 52.30 24.49 50.92 18.30 44.88
  C 11.67 38.42 15.50 31.45 20.44 25.69
  Q 24.35 21.14 28.86 17.06
  A 0.36 0.36 0.0 0 1 29.44 17.22
  Z
  M 28.14 23.32
  A 0.30 0.30 0.0 0 0 27.64 23.11
  C 24.18 26.35 13.98 35.87 23.58 39.23
  C 27.07 40.46 35.10 40.60 38.05 38.32
  Q 41.02 36.04 38.78 33.30
  A 2.61 2.56 84.2 0 0 38.02 32.67
  C 33.57 30.26 28.15 28.49 28.14 23.32
  Z"
/>
<path fill="#5aab95" d="
  M 28.14 23.32
  C 28.15 28.49 33.57 30.26 38.02 32.67
  A 2.61 2.56 84.2 0 1 38.78 33.30
  Q 41.02 36.04 38.05 38.32
  C 35.10 40.60 27.07 40.46 23.58 39.23
  C 13.98 35.87 24.18 26.35 27.64 23.11
  A 0.30 0.30 0.0 0 1 28.14 23.32
  Z"
/>
</svg>
