<?xml version="1.0" encoding="UTF-8" standalone="no"?>
<!DOCTYPE svg PUBLIC "-//W3C//DTD SVG 1.1//EN" "http://www.w3.org/Graphics/SVG/1.1/DTD/svg11.dtd">
<svg xmlns="http://www.w3.org/2000/svg" version="1.1" viewBox="0.00 0.00 66.00 88.00">
<g stroke-width="2.00" fill="none" stroke-linecap="butt">
<path stroke="#313231" vector-effect="non-scaling-stroke" d="
  M 33.43 86.55
  Q 33.53 86.55 33.64 86.53
  Q 33.74 86.51 33.82 86.44
  Q 44.45 76.49 52.36 65.06
  C 63.33 49.22 71.27 26.75 54.88 11.11
  C 49.13 5.62 41.61 2.57 33.50 2.56
  C 25.40 2.56 17.88 5.59 12.11 11.07
  C -4.31 26.68 3.59 49.17 14.53 65.03
  Q 22.42 76.47 33.03 86.44
  Q 33.11 86.51 33.22 86.53
  Q 33.32 86.55 33.43 86.55"
/>
<path stroke="#a0a09a" vector-effect="non-scaling-stroke" d="
  M 32.97 28.00
  Q 46.08 28.01 46.98 27.96
  A 0.51 0.51 0.0 0 0 47.46 27.39
  Q 47.00 23.54 43.35 22.37
  A 2.35 2.33 -35.7 0 0 42.61 22.25
  L 38.25 22.25
  A 0.67 0.67 0.0 0 1 37.59 21.70
  Q 36.79 17.47 32.97 17.47
  Q 29.16 17.47 28.35 21.70
  A 0.67 0.67 0.0 0 1 27.69 22.25
  L 23.33 22.24
  A 2.35 2.33 35.7 0 0 22.59 22.36
  Q 18.94 23.53 18.48 27.38
  A 0.51 0.51 0.0 0 0 18.96 27.95
  Q 19.86 27.99 32.97 28.00"
/>
<path stroke="#a0a09a" vector-effect="non-scaling-stroke" d="
  M 32.99 51.00
  Q 42.06 51.00 43.25 50.96
  A 1.77 1.69 -56.6 0 0 43.87 50.82
  Q 47.22 49.36 47.32 46.43
  Q 47.52 40.56 47.36 35.78
  Q 47.35 35.39 49.17 35.49
  A 1.86 1.85 4.4 0 0 51.11 33.83
  L 51.12 33.65
  A 1.64 1.63 -86.5 0 0 49.53 31.85
  Q 41.15 31.67 32.98 31.75
  Q 24.82 31.68 16.43 31.85
  A 1.64 1.63 86.5 0 0 14.85 33.66
  L 14.86 33.84
  A 1.86 1.85 -4.4 0 0 16.80 35.49
  Q 18.62 35.39 18.61 35.78
  Q 18.45 40.56 18.65 46.43
  Q 18.75 49.36 22.10 50.82
  A 1.77 1.69 56.6 0 0 22.72 50.97
  Q 23.91 51.00 32.99 51.00"
/>
<path stroke="#a0a09a" vector-effect="non-scaling-stroke" d="
  M 31.44 22.27
  L 34.52 22.25
  A 0.21 0.21 0.0 0 0 34.73 22.04
  L 34.72 21.93
  A 1.63 1.60 -0.4 0 0 33.08 20.34
  L 32.84 20.34
  A 1.63 1.60 -0.4 0 0 31.22 21.95
  L 31.23 22.06
  A 0.21 0.21 0.0 0 0 31.44 22.27"
/>
</g>
<path fill="#212321" d="
  M 33.81 88.00
  L 33.03 88.00
  C 21.77 77.76 12.09 65.66 5.65 51.57
  Q 2.20 44.03 1.60 34.89
  C 0.56 19.04 11.14 5.71 26.37 2.15
  Q 37.11 -0.35 46.84 4.25
  Q 61.64 11.24 64.87 26.80
  Q 66.62 35.28 63.49 45.52
  C 58.58 61.59 46.20 76.68 33.81 88.00
  Z
  M 33.43 86.55
  Q 33.53 86.55 33.64 86.53
  Q 33.74 86.51 33.82 86.44
  Q 44.45 76.49 52.36 65.06
  C 63.33 49.22 71.27 26.75 54.88 11.11
  C 49.13 5.62 41.61 2.57 33.50 2.56
  C 25.40 2.56 17.88 5.59 12.11 11.07
  C -4.31 26.68 3.59 49.17 14.53 65.03
  Q 22.42 76.47 33.03 86.44
  Q 33.11 86.51 33.22 86.53
  Q 33.32 86.55 33.43 86.55
  Z"
/>
<path fill="#414141" d="
  M 33.50 2.56
  C 41.61 2.57 49.13 5.62 54.88 11.11
  C 71.27 26.75 63.33 49.22 52.36 65.06
  Q 44.45 76.49 33.82 86.44
  Q 33.74 86.51 33.64 86.53
  Q 33.53 86.55 33.43 86.55
  Q 33.32 86.55 33.22 86.53
  Q 33.11 86.51 33.03 86.44
  Q 22.42 76.47 14.53 65.03
  C 3.59 49.17 -4.31 26.68 12.11 11.07
  C 17.88 5.59 25.40 2.56 33.50 2.56
  Z
  M 32.97 28.00
  Q 46.08 28.01 46.98 27.96
  A 0.51 0.51 0.0 0 0 47.46 27.39
  Q 47.00 23.54 43.35 22.37
  A 2.35 2.33 -35.7 0 0 42.61 22.25
  L 38.25 22.25
  A 0.67 0.67 0.0 0 1 37.59 21.70
  Q 36.79 17.47 32.97 17.47
  Q 29.16 17.47 28.35 21.70
  A 0.67 0.67 0.0 0 1 27.69 22.25
  L 23.33 22.24
  A 2.35 2.33 35.7 0 0 22.59 22.36
  Q 18.94 23.53 18.48 27.38
  A 0.51 0.51 0.0 0 0 18.96 27.95
  Q 19.86 27.99 32.97 28.00
  Z
  M 32.99 51.00
  Q 42.06 51.00 43.25 50.96
  A 1.77 1.69 -56.6 0 0 43.87 50.82
  Q 47.22 49.36 47.32 46.43
  Q 47.52 40.56 47.36 35.78
  Q 47.35 35.39 49.17 35.49
  A 1.86 1.85 4.4 0 0 51.11 33.83
  L 51.12 33.65
  A 1.64 1.63 -86.5 0 0 49.53 31.85
  Q 41.15 31.67 32.98 31.75
  Q 24.82 31.68 16.43 31.85
  A 1.64 1.63 86.5 0 0 14.85 33.66
  L 14.86 33.84
  A 1.86 1.85 -4.4 0 0 16.80 35.49
  Q 18.62 35.39 18.61 35.78
  Q 18.45 40.56 18.65 46.43
  Q 18.75 49.36 22.10 50.82
  A 1.77 1.69 56.6 0 0 22.72 50.97
  Q 23.91 51.00 32.99 51.00
  Z"
/>
<path fill="#fffef2" d="
  M 32.97 17.47
  Q 36.79 17.47 37.59 21.70
  A 0.67 0.67 0.0 0 0 38.25 22.25
  L 42.61 22.25
  A 2.35 2.33 -35.7 0 1 43.35 22.37
  Q 47.00 23.54 47.46 27.39
  A 0.51 0.51 0.0 0 1 46.98 27.96
  Q 46.08 28.01 32.97 28.00
  Q 19.86 27.99 18.96 27.95
  A 0.51 0.51 0.0 0 1 18.48 27.38
  Q 18.94 23.53 22.59 22.36
  A 2.35 2.33 35.7 0 1 23.33 22.24
  L 27.69 22.25
  A 0.67 0.67 0.0 0 0 28.35 21.70
  Q 29.16 17.47 32.97 17.47
  Z
  M 31.44 22.27
  L 34.52 22.25
  A 0.21 0.21 0.0 0 0 34.73 22.04
  L 34.72 21.93
  A 1.63 1.60 -0.4 0 0 33.08 20.34
  L 32.84 20.34
  A 1.63 1.60 -0.4 0 0 31.22 21.95
  L 31.23 22.06
  A 0.21 0.21 0.0 0 0 31.44 22.27
  Z"
/>
<path fill="#414141" d="
  M 31.44 22.27
  A 0.21 0.21 0.0 0 1 31.23 22.06
  L 31.22 21.95
  A 1.63 1.60 -0.4 0 1 32.84 20.34
  L 33.08 20.34
  A 1.63 1.60 -0.4 0 1 34.72 21.93
  L 34.73 22.04
  A 0.21 0.21 0.0 0 1 34.52 22.25
  L 31.44 22.27
  Z"
/>
<path fill="#fffef2" d="
  M 32.98 31.75
  Q 41.15 31.67 49.53 31.85
  A 1.64 1.63 -86.5 0 1 51.12 33.65
  L 51.11 33.83
  A 1.86 1.85 4.4 0 1 49.17 35.49
  Q 47.35 35.39 47.36 35.78
  Q 47.52 40.56 47.32 46.43
  Q 47.22 49.36 43.87 50.82
  A 1.77 1.69 -56.6 0 1 43.25 50.96
  Q 42.06 51.00 32.99 51.00
  Q 23.91 51.00 22.72 50.97
  A 1.77 1.69 56.6 0 1 22.10 50.82
  Q 18.75 49.36 18.65 46.43
  Q 18.45 40.56 18.61 35.78
  Q 18.62 35.39 16.80 35.49
  A 1.86 1.85 -4.4 0 1 14.86 33.84
  L 14.85 33.66
  A 1.64 1.63 86.5 0 1 16.43 31.85
  Q 24.82 31.68 32.98 31.75
  Z"
/>
</svg>
