<?xml version="1.0" encoding="UTF-8" standalone="no"?>
<!DOCTYPE svg PUBLIC "-//W3C//DTD SVG 1.1//EN" "http://www.w3.org/Graphics/SVG/1.1/DTD/svg11.dtd">
<svg xmlns="http://www.w3.org/2000/svg" version="1.1" viewBox="0.00 0.00 66.00 88.00">
<g stroke-width="2.00" fill="none" stroke-linecap="butt">
<path stroke="#21303f" vector-effect="non-scaling-stroke" d="
  M 33.41 86.58
  Q 33.56 86.58 33.69 86.54
  A 0.09 0.04 -56.6 0 0 33.73 86.52
  C 46.85 74.38 61.61 56.01 63.86 38.24
  Q 66.52 17.23 48.59 6.45
  Q 42.16 2.58 33.51 2.57
  Q 24.87 2.56 18.43 6.41
  Q 0.47 17.15 3.08 38.17
  C 5.29 55.94 20.01 74.35 33.10 86.52
  A 0.09 0.04 56.7 0 0 33.14 86.54
  Q 33.27 86.58 33.41 86.58"
/>
<path stroke="#969fa2" vector-effect="non-scaling-stroke" d="
  M 33.40 52.31
  Q 34.07 52.31 34.81 51.56
  Q 39.71 46.63 46.32 39.87
  A 1.16 1.16 0.0 0 0 46.39 38.32
  Q 44.86 36.45 44.17 35.97
  A 1.40 1.39 86.4 0 0 42.34 38.05
  L 42.86 38.58
  A 0.59 0.59 0.0 0 1 42.87 39.43
  L 36.29 46.01
  A 0.27 0.26 67.7 0 1 35.84 45.82
  L 35.84 39.41
  A 0.64 0.64 0.0 0 1 36.54 38.77
  Q 39.01 38.98 39.25 36.21
  C 39.49 33.43 43.67 32.06 45.01 31.31
  A 1.37 1.37 0.0 0 0 44.34 28.74
  L 41.96 28.74
  A 1.23 1.23 0.0 0 1 40.97 28.24
  Q 36.00 21.32 35.76 20.77
  Q 35.31 19.75 34.83 16.96
  Q 34.64 15.83 33.39 15.83
  Q 32.14 15.83 31.95 16.96
  Q 31.48 19.75 31.03 20.77
  Q 30.79 21.32 25.82 28.25
  A 1.23 1.23 0.0 0 1 24.83 28.75
  L 22.45 28.75
  A 1.37 1.37 0.0 0 0 21.78 31.32
  C 23.12 32.07 27.30 33.43 27.55 36.21
  Q 27.79 38.98 30.26 38.77
  A 0.64 0.64 0.0 0 1 30.96 39.41
  L 30.96 45.82
  A 0.27 0.26 -67.7 0 1 30.51 46.01
  L 23.93 39.44
  A 0.59 0.59 0.0 0 1 23.94 38.59
  L 24.46 38.06
  A 1.40 1.39 -86.4 0 0 22.63 35.98
  Q 21.94 36.46 20.41 38.33
  A 1.16 1.16 0.0 0 0 20.48 39.88
  Q 27.09 46.63 32.00 51.56
  Q 32.74 52.31 33.40 52.31"
/>
<path stroke="#969fa2" vector-effect="non-scaling-stroke" d="
  M 31.37 28.77
  L 35.53 28.73
  A 0.37 0.37 0.0 0 0 35.90 28.35
  L 35.89 27.26
  A 2.46 2.28 89.4 0 0 33.58 24.83
  L 33.24 24.83
  A 2.46 2.28 89.4 0 0 30.99 27.32
  L 31.00 28.41
  A 0.37 0.37 0.0 0 0 31.37 28.77"
/>
</g>
<path fill="#16212b" d="
  M 33.80 88.00
  L 33.04 88.00
  C 21.72 77.71 12.19 65.74 5.68 51.55
  Q 2.14 43.84 1.57 34.89
  C 0.28 14.44 18.54 -1.62 38.85 1.78
  C 54.63 4.41 66.04 18.05 65.44 34.07
  Q 65.14 41.80 62.41 48.85
  C 56.62 63.76 45.56 77.30 33.80 88.00
  Z
  M 33.41 86.58
  Q 33.56 86.58 33.69 86.54
  A 0.09 0.04 -56.6 0 0 33.73 86.52
  C 46.85 74.38 61.61 56.01 63.86 38.24
  Q 66.52 17.23 48.59 6.45
  Q 42.16 2.58 33.51 2.57
  Q 24.87 2.56 18.43 6.41
  Q 0.47 17.15 3.08 38.17
  C 5.29 55.94 20.01 74.35 33.10 86.52
  A 0.09 0.04 56.7 0 0 33.14 86.54
  Q 33.27 86.58 33.41 86.58
  Z"
/>
<path fill="#2c3f52" d="
  M 33.51 2.57
  Q 42.16 2.58 48.59 6.45
  Q 66.52 17.23 63.86 38.24
  C 61.61 56.01 46.85 74.38 33.73 86.52
  A 0.09 0.04 -56.6 0 1 33.69 86.54
  Q 33.56 86.58 33.41 86.58
  Q 33.27 86.58 33.14 86.54
  A 0.09 0.04 56.7 0 1 33.10 86.52
  C 20.01 74.35 5.29 55.94 3.08 38.17
  Q 0.47 17.15 18.43 6.41
  Q 24.87 2.56 33.51 2.57
  Z
  M 33.40 52.31
  Q 34.07 52.31 34.81 51.56
  Q 39.71 46.63 46.32 39.87
  A 1.16 1.16 0.0 0 0 46.39 38.32
  Q 44.86 36.45 44.17 35.97
  A 1.40 1.39 86.4 0 0 42.34 38.05
  L 42.86 38.58
  A 0.59 0.59 0.0 0 1 42.87 39.43
  L 36.29 46.01
  A 0.27 0.26 67.7 0 1 35.84 45.82
  L 35.84 39.41
  A 0.64 0.64 0.0 0 1 36.54 38.77
  Q 39.01 38.98 39.25 36.21
  C 39.49 33.43 43.67 32.06 45.01 31.31
  A 1.37 1.37 0.0 0 0 44.34 28.74
  L 41.96 28.74
  A 1.23 1.23 0.0 0 1 40.97 28.24
  Q 36.00 21.32 35.76 20.77
  Q 35.31 19.75 34.83 16.96
  Q 34.64 15.83 33.39 15.83
  Q 32.14 15.83 31.95 16.96
  Q 31.48 19.75 31.03 20.77
  Q 30.79 21.32 25.82 28.25
  A 1.23 1.23 0.0 0 1 24.83 28.75
  L 22.45 28.75
  A 1.37 1.37 0.0 0 0 21.78 31.32
  C 23.12 32.07 27.30 33.43 27.55 36.21
  Q 27.79 38.98 30.26 38.77
  A 0.64 0.64 0.0 0 1 30.96 39.41
  L 30.96 45.82
  A 0.27 0.26 -67.7 0 1 30.51 46.01
  L 23.93 39.44
  A 0.59 0.59 0.0 0 1 23.94 38.59
  L 24.46 38.06
  A 1.40 1.39 -86.4 0 0 22.63 35.98
  Q 21.94 36.46 20.41 38.33
  A 1.16 1.16 0.0 0 0 20.48 39.88
  Q 27.09 46.63 32.00 51.56
  Q 32.74 52.31 33.40 52.31
  Z"
/>
<path fill="#fffef2" d="
  M 33.39 15.83
  Q 34.64 15.83 34.83 16.96
  Q 35.31 19.75 35.76 20.77
  Q 36.00 21.32 40.97 28.24
  A 1.23 1.23 0.0 0 0 41.96 28.74
  L 44.34 28.74
  A 1.37 1.37 0.0 0 1 45.01 31.31
  C 43.67 32.06 39.49 33.43 39.25 36.21
  Q 39.01 38.98 36.54 38.77
  A 0.64 0.64 0.0 0 0 35.84 39.41
  L 35.84 45.82
  A 0.27 0.26 67.7 0 0 36.29 46.01
  L 42.87 39.43
  A 0.59 0.59 0.0 0 0 42.86 38.58
  L 42.34 38.05
  A 1.40 1.39 86.4 0 1 44.17 35.97
  Q 44.86 36.45 46.39 38.32
  A 1.16 1.16 0.0 0 1 46.32 39.87
  Q 39.71 46.63 34.81 51.56
  Q 34.07 52.31 33.40 52.31
  Q 32.74 52.31 32.00 51.56
  Q 27.09 46.63 20.48 39.88
  A 1.16 1.16 0.0 0 1 20.41 38.33
  Q 21.94 36.46 22.63 35.98
  A 1.40 1.39 -86.4 0 1 24.46 38.06
  L 23.94 38.59
  A 0.59 0.59 0.0 0 0 23.93 39.44
  L 30.51 46.01
  A 0.27 0.26 -67.7 0 0 30.96 45.82
  L 30.96 39.41
  A 0.64 0.64 0.0 0 0 30.26 38.77
  Q 27.79 38.98 27.55 36.21
  C 27.30 33.43 23.12 32.07 21.78 31.32
  A 1.37 1.37 0.0 0 1 22.45 28.75
  L 24.83 28.75
  A 1.23 1.23 0.0 0 0 25.82 28.25
  Q 30.79 21.32 31.03 20.77
  Q 31.48 19.75 31.95 16.96
  Q 32.14 15.83 33.39 15.83
  Z
  M 31.37 28.77
  L 35.53 28.73
  A 0.37 0.37 0.0 0 0 35.90 28.35
  L 35.89 27.26
  A 2.46 2.28 89.4 0 0 33.58 24.83
  L 33.24 24.83
  A 2.46 2.28 89.4 0 0 30.99 27.32
  L 31.00 28.41
  A 0.37 0.37 0.0 0 0 31.37 28.77
  Z"
/>
<path fill="#2c3f52" d="
  M 31.37 28.77
  A 0.37 0.37 0.0 0 1 31.00 28.41
  L 30.99 27.32
  A 2.46 2.28 89.4 0 1 33.24 24.83
  L 33.58 24.83
  A 2.46 2.28 89.4 0 1 35.89 27.26
  L 35.90 28.35
  A 0.37 0.37 0.0 0 1 35.53 28.73
  L 31.37 28.77
  Z"
/>
</svg>
