<?xml version="1.0" encoding="UTF-8" standalone="no"?>
<!DOCTYPE svg PUBLIC "-//W3C//DTD SVG 1.1//EN" "http://www.w3.org/Graphics/SVG/1.1/DTD/svg11.dtd">
<svg xmlns="http://www.w3.org/2000/svg" version="1.1" viewBox="0.00 0.00 66.00 88.00">
<g stroke-width="2.00" fill="none" stroke-linecap="butt">
<path stroke="#323231" vector-effect="non-scaling-stroke" d="
  M 33.43 86.57
  C 34.04 86.57 33.59 86.60 33.79 86.42
  C 46.82 74.49 61.18 56.48 63.73 38.88
  Q 66.82 17.57 48.80 6.60
  Q 42.14 2.55 33.50 2.54
  Q 24.87 2.53 18.20 6.57
  Q 0.16 17.51 3.21 38.83
  C 5.73 56.43 20.06 74.47 33.07 86.42
  C 33.27 86.60 32.82 86.57 33.43 86.57"
/>
<path stroke="#a09e98" vector-effect="non-scaling-stroke" d="
  M 48.53 21.38
  A 1.44 1.43 -0.2 0 0 47.11 22.80
  Q 47.05 33.37 47.14 43.83
  C 47.17 47.52 46.13 49.57 42.29 49.54
  Q 32.10 49.45 22.58 49.51
  A 2.93 2.93 0.0 0 1 19.63 46.55
  L 19.63 46.33
  A 3.11 3.10 -89.5 0 1 22.75 43.25
  Q 31.61 43.28 39.69 43.20
  Q 42.29 43.18 42.31 40.64
  Q 42.40 29.38 42.36 17.95
  Q 42.35 15.81 40.00 15.70
  Q 39.89 15.69 21.87 15.78
  A 2.47 2.45 35.8 0 0 21.11 15.90
  C 17.57 17.01 16.46 19.39 16.48 23.26
  Q 16.52 32.08 16.50 45.76
  Q 16.49 49.47 19.08 51.22
  Q 20.86 52.44 25.12 52.30
  Q 29.72 52.16 45.04 52.24
  A 2.39 2.37 -54.7 0 0 45.95 52.08
  C 50.59 50.31 50.03 47.03 50.04 41.88
  Q 50.07 30.53 50.03 22.81
  A 1.44 1.44 0.0 0 0 48.58 21.38
  L 48.53 21.38"
/>
</g>
<path fill="#222321" d="
  M 33.80 88.00
  L 33.04 88.00
  C 21.88 77.87 11.85 65.48 5.66 51.57
  Q 2.12 43.60 1.56 34.90
  C 0.33 15.90 16.24 0.23 35.42 1.38
  C 50.09 2.26 61.20 12.12 64.86 26.28
  Q 65.73 29.67 65.31 36.10
  Q 64.98 41.00 63.43 45.75
  C 58.08 62.07 46.34 76.58 33.80 88.00
  Z
  M 33.43 86.57
  C 34.04 86.57 33.59 86.60 33.79 86.42
  C 46.82 74.49 61.18 56.48 63.73 38.88
  Q 66.82 17.57 48.80 6.60
  Q 42.14 2.55 33.50 2.54
  Q 24.87 2.53 18.20 6.57
  Q 0.16 17.51 3.21 38.83
  C 5.73 56.43 20.06 74.47 33.07 86.42
  C 33.27 86.60 32.82 86.57 33.43 86.57
  Z"
/>
<path fill="#414141" d="
  M 33.50 2.54
  Q 42.14 2.55 48.80 6.60
  Q 66.82 17.57 63.73 38.88
  C 61.18 56.48 46.82 74.49 33.79 86.42
  C 33.59 86.60 34.04 86.57 33.43 86.57
  C 32.82 86.57 33.27 86.60 33.07 86.42
  C 20.06 74.47 5.73 56.43 3.21 38.83
  Q 0.16 17.51 18.20 6.57
  Q 24.87 2.53 33.50 2.54
  Z
  M 48.53 21.38
  A 1.44 1.43 -0.2 0 0 47.11 22.80
  Q 47.05 33.37 47.14 43.83
  C 47.17 47.52 46.13 49.57 42.29 49.54
  Q 32.10 49.45 22.58 49.51
  A 2.93 2.93 0.0 0 1 19.63 46.55
  L 19.63 46.33
  A 3.11 3.10 -89.5 0 1 22.75 43.25
  Q 31.61 43.28 39.69 43.20
  Q 42.29 43.18 42.31 40.64
  Q 42.40 29.38 42.36 17.95
  Q 42.35 15.81 40.00 15.70
  Q 39.89 15.69 21.87 15.78
  A 2.47 2.45 35.8 0 0 21.11 15.90
  C 17.57 17.01 16.46 19.39 16.48 23.26
  Q 16.52 32.08 16.50 45.76
  Q 16.49 49.47 19.08 51.22
  Q 20.86 52.44 25.12 52.30
  Q 29.72 52.16 45.04 52.24
  A 2.39 2.37 -54.7 0 0 45.95 52.08
  C 50.59 50.31 50.03 47.03 50.04 41.88
  Q 50.07 30.53 50.03 22.81
  A 1.44 1.44 0.0 0 0 48.58 21.38
  L 48.53 21.38
  Z"
/>
<path fill="#fffaee" d="
  M 48.53 21.38
  L 48.58 21.38
  A 1.44 1.44 0.0 0 1 50.03 22.81
  Q 50.07 30.53 50.04 41.88
  C 50.03 47.03 50.59 50.31 45.95 52.08
  A 2.39 2.37 -54.7 0 1 45.04 52.24
  Q 29.72 52.16 25.12 52.30
  Q 20.86 52.44 19.08 51.22
  Q 16.49 49.47 16.50 45.76
  Q 16.52 32.08 16.48 23.26
  C 16.46 19.39 17.57 17.01 21.11 15.90
  A 2.47 2.45 35.8 0 1 21.87 15.78
  Q 39.89 15.69 40.00 15.70
  Q 42.35 15.81 42.36 17.95
  Q 42.40 29.38 42.31 40.64
  Q 42.29 43.18 39.69 43.20
  Q 31.61 43.28 22.75 43.25
  A 3.11 3.10 -89.5 0 0 19.63 46.33
  L 19.63 46.55
  A 2.93 2.93 0.0 0 0 22.58 49.51
  Q 32.10 49.45 42.29 49.54
  C 46.13 49.57 47.17 47.52 47.14 43.83
  Q 47.05 33.37 47.11 22.80
  A 1.44 1.43 -0.2 0 1 48.53 21.38
  Z"
/>
</svg>
