<?xml version="1.0" encoding="UTF-8" standalone="no"?>
<!DOCTYPE svg PUBLIC "-//W3C//DTD SVG 1.1//EN" "http://www.w3.org/Graphics/SVG/1.1/DTD/svg11.dtd">
<svg xmlns="http://www.w3.org/2000/svg" version="1.1" viewBox="0.00 0.00 66.00 88.00">
<g stroke-width="2.00" fill="none" stroke-linecap="butt">
<path stroke="#816c3e" vector-effect="non-scaling-stroke" d="
  M 33.38 86.69
  Q 33.49 86.69 33.60 86.67
  Q 33.66 86.66 33.77 86.55
  C 48.95 72.18 69.30 47.15 63.17 24.72
  C 59.54 11.44 47.60 2.98 33.75 2.46
  Q 33.60 2.46 33.55 2.46
  Q 33.51 2.46 33.35 2.46
  C 19.50 2.92 7.53 11.34 3.84 24.60
  C -2.38 47.01 17.88 72.12 33.00 86.55
  Q 33.11 86.66 33.17 86.67
  Q 33.27 86.69 33.38 86.69"
/>
<path stroke="#d5c7a3" vector-effect="non-scaling-stroke" d="
  M 14.66 34.10
  Q 14.66 49.48 14.68 49.77
  A 2.08 2.07 -2.1 0 0 16.77 51.72
  L 24.32 51.67
  A 1.71 1.71 0.0 0 0 25.43 51.26
  Q 26.25 50.63 26.22 48.57
  A 0.77 0.77 0.0 0 1 26.91 47.80
  Q 26.94 47.79 33.01 47.79
  Q 39.07 47.79 39.11 47.79
  A 0.77 0.77 0.0 0 1 39.79 48.57
  Q 39.76 50.63 40.59 51.26
  A 1.71 1.71 0.0 0 0 41.70 51.67
  L 49.25 51.71
  A 2.08 2.07 2.0 0 0 51.34 49.77
  Q 51.36 49.47 51.35 34.09
  Q 51.35 18.71 51.33 18.42
  A 2.08 2.07 -2.1 0 0 49.24 16.47
  L 41.69 16.52
  A 1.71 1.71 0.0 0 0 40.58 16.93
  Q 39.76 17.56 39.79 19.62
  A 0.77 0.77 0.0 0 1 39.10 20.40
  Q 39.07 20.40 33.00 20.40
  Q 26.93 20.40 26.90 20.40
  A 0.77 0.77 0.0 0 1 26.21 19.63
  Q 26.24 17.57 25.42 16.94
  A 1.71 1.71 0.0 0 0 24.31 16.53
  L 16.76 16.48
  A 2.08 2.07 2.0 0 0 14.67 18.43
  Q 14.65 18.72 14.66 34.10"
/>
<path stroke="#d5c7a3" vector-effect="non-scaling-stroke" d="
  M 22.5013 20.7546
  A 0.49 0.49 0.0 0 0 22.0148 20.2612
  L 18.8348 20.2390
  A 0.49 0.49 0.0 0 0 18.3414 20.7255
  L 18.3187 23.9854
  A 0.49 0.49 0.0 0 0 18.8052 24.4788
  L 21.9852 24.5010
  A 0.49 0.49 0.0 0 0 22.4786 24.0145
  L 22.5013 20.7546"
/>
<path stroke="#d5c7a3" vector-effect="non-scaling-stroke" d="
  M 47.6416 20.7791
  A 0.53 0.53 0.0 0 0 47.1089 20.2519
  L 44.0089 20.2681
  A 0.53 0.53 0.0 0 0 43.4817 20.8009
  L 43.4984 23.9809
  A 0.53 0.53 0.0 0 0 44.0311 24.5081
  L 47.1311 24.4919
  A 0.53 0.53 0.0 0 0 47.6583 23.9591
  L 47.6416 20.7791"
/>
<path stroke="#d5c7a3" vector-effect="non-scaling-stroke" d="
  M 39.7840 24.8181
  A 0.54 0.54 0.0 0 0 39.2431 24.2791
  L 26.7231 24.3009
  A 0.54 0.54 0.0 0 0 26.1840 24.8419
  L 26.1960 31.7019
  A 0.54 0.54 0.0 0 0 26.7369 32.2409
  L 39.2569 32.2191
  A 0.54 0.54 0.0 0 0 39.7960 31.6781
  L 39.7840 24.8181"
/>
<path stroke="#d5c7a3" vector-effect="non-scaling-stroke" d="
  M 22.4959 28.4373
  A 0.40 0.40 0.0 0 0 22.0973 28.0359
  L 18.7373 28.0241
  A 0.40 0.40 0.0 0 0 18.3359 28.4227
  L 18.3241 31.8227
  A 0.40 0.40 0.0 0 0 18.7227 32.2241
  L 22.0827 32.2359
  A 0.40 0.40 0.0 0 0 22.4841 31.8373
  L 22.4959 28.4373"
/>
<path stroke="#d5c7a3" vector-effect="non-scaling-stroke" d="
  M 47.6655 28.5573
  A 0.52 0.52 0.0 0 0 47.1474 28.0355
  L 43.9874 28.0245
  A 0.52 0.52 0.0 0 0 43.4656 28.5427
  L 43.4545 31.7227
  A 0.52 0.52 0.0 0 0 43.9726 32.2445
  L 47.1326 32.2555
  A 0.52 0.52 0.0 0 0 47.6544 31.7373
  L 47.6655 28.5573"
/>
<path stroke="#d5c7a3" vector-effect="non-scaling-stroke" d="
  M 22.5311 36.4157
  A 0.37 0.37 0.0 0 0 22.1656 36.0412
  L 18.7259 35.9991
  A 0.37 0.37 0.0 0 0 18.3514 36.3646
  L 18.3089 39.8443
  A 0.37 0.37 0.0 0 0 18.6744 40.2188
  L 22.1141 40.2609
  A 0.37 0.37 0.0 0 0 22.4886 39.8954
  L 22.5311 36.4157"
/>
<path stroke="#d5c7a3" vector-effect="non-scaling-stroke" d="
  M 39.7940 36.5581
  A 0.57 0.57 0.0 0 0 39.2230 35.9891
  L 26.7430 36.0109
  A 0.57 0.57 0.0 0 0 26.1740 36.5819
  L 26.1860 43.4219
  A 0.57 0.57 0.0 0 0 26.7570 43.9909
  L 39.2370 43.9691
  A 0.57 0.57 0.0 0 0 39.8060 43.3981
  L 39.7940 36.5581"
/>
<path stroke="#d5c7a3" vector-effect="non-scaling-stroke" d="
  M 47.6343 36.5127
  A 0.50 0.50 0.0 0 0 47.1326 36.0145
  L 43.9526 36.0256
  A 0.50 0.50 0.0 0 0 43.4544 36.5273
  L 43.4657 39.7673
  A 0.50 0.50 0.0 0 0 43.9674 40.2655
  L 47.1474 40.2544
  A 0.50 0.50 0.0 0 0 47.6456 39.7527
  L 47.6343 36.5127"
/>
<path stroke="#d5c7a3" vector-effect="non-scaling-stroke" d="
  M 22.5189 44.1610
  A 0.40 0.40 0.0 0 0 22.1210 43.7589
  L 18.7411 43.7412
  A 0.40 0.40 0.0 0 0 18.3390 44.1391
  L 18.3211 47.5590
  A 0.40 0.40 0.0 0 0 18.7190 47.9611
  L 22.0989 47.9788
  A 0.40 0.40 0.0 0 0 22.5010 47.5809
  L 22.5189 44.1610"
/>
<path stroke="#d5c7a3" vector-effect="non-scaling-stroke" d="
  M 47.6683 44.2810
  A 0.50 0.50 0.0 0 0 47.1710 43.7784
  L 43.9710 43.7617
  A 0.50 0.50 0.0 0 0 43.4684 44.2590
  L 43.4517 47.4590
  A 0.50 0.50 0.0 0 0 43.9490 47.9616
  L 47.1490 47.9783
  A 0.50 0.50 0.0 0 0 47.6516 47.4810
  L 47.6683 44.2810"
/>
</g>
<path fill="#574828" d="
  M 33.81 88.00
  L 33.00 88.00
  C 19.76 75.91 6.49 59.19 2.39 41.46
  Q 0.13 31.72 3.45 22.06
  Q 6.46 13.31 14.61 7.39
  C 30.52 -4.16 52.90 1.31 62.01 18.54
  C 67.41 28.74 65.92 41.08 61.31 51.54
  C 55.20 65.39 44.95 77.83 33.81 88.00
  Z
  M 33.38 86.69
  Q 33.49 86.69 33.60 86.67
  Q 33.66 86.66 33.77 86.55
  C 48.95 72.18 69.30 47.15 63.17 24.72
  C 59.54 11.44 47.60 2.98 33.75 2.46
  Q 33.60 2.46 33.55 2.46
  Q 33.51 2.46 33.35 2.46
  C 19.50 2.92 7.53 11.34 3.84 24.60
  C -2.38 47.01 17.88 72.12 33.00 86.55
  Q 33.11 86.66 33.17 86.67
  Q 33.27 86.69 33.38 86.69
  Z"
/>
<path fill="#aa8f54" d="
  M 33.55 2.46
  Q 33.60 2.46 33.75 2.46
  C 47.60 2.98 59.54 11.44 63.17 24.72
  C 69.30 47.15 48.95 72.18 33.77 86.55
  Q 33.66 86.66 33.60 86.67
  Q 33.49 86.69 33.38 86.69
  Q 33.27 86.69 33.17 86.67
  Q 33.11 86.66 33.00 86.55
  C 17.88 72.12 -2.38 47.01 3.84 24.60
  C 7.53 11.34 19.50 2.92 33.35 2.46
  Q 33.51 2.46 33.55 2.46
  Z
  M 14.66 34.10
  Q 14.66 49.48 14.68 49.77
  A 2.08 2.07 -2.1 0 0 16.77 51.72
  L 24.32 51.67
  A 1.71 1.71 0.0 0 0 25.43 51.26
  Q 26.25 50.63 26.22 48.57
  A 0.77 0.77 0.0 0 1 26.91 47.80
  Q 26.94 47.79 33.01 47.79
  Q 39.07 47.79 39.11 47.79
  A 0.77 0.77 0.0 0 1 39.79 48.57
  Q 39.76 50.63 40.59 51.26
  A 1.71 1.71 0.0 0 0 41.70 51.67
  L 49.25 51.71
  A 2.08 2.07 2.0 0 0 51.34 49.77
  Q 51.36 49.47 51.35 34.09
  Q 51.35 18.71 51.33 18.42
  A 2.08 2.07 -2.1 0 0 49.24 16.47
  L 41.69 16.52
  A 1.71 1.71 0.0 0 0 40.58 16.93
  Q 39.76 17.56 39.79 19.62
  A 0.77 0.77 0.0 0 1 39.10 20.40
  Q 39.07 20.40 33.00 20.40
  Q 26.93 20.40 26.90 20.40
  A 0.77 0.77 0.0 0 1 26.21 19.63
  Q 26.24 17.57 25.42 16.94
  A 1.71 1.71 0.0 0 0 24.31 16.53
  L 16.76 16.48
  A 2.08 2.07 2.0 0 0 14.67 18.43
  Q 14.65 18.72 14.66 34.10
  Z"
/>
<path fill="#fffef2" d="
  M 33.00 20.40
  Q 39.07 20.40 39.10 20.40
  A 0.77 0.77 0.0 0 0 39.79 19.62
  Q 39.76 17.56 40.58 16.93
  A 1.71 1.71 0.0 0 1 41.69 16.52
  L 49.24 16.47
  A 2.08 2.07 -2.1 0 1 51.33 18.42
  Q 51.35 18.71 51.35 34.09
  Q 51.36 49.47 51.34 49.77
  A 2.08 2.07 2.0 0 1 49.25 51.71
  L 41.70 51.67
  A 1.71 1.71 0.0 0 1 40.59 51.26
  Q 39.76 50.63 39.79 48.57
  A 0.77 0.77 0.0 0 0 39.11 47.79
  Q 39.07 47.79 33.01 47.79
  Q 26.94 47.79 26.91 47.80
  A 0.77 0.77 0.0 0 0 26.22 48.57
  Q 26.25 50.63 25.43 51.26
  A 1.71 1.71 0.0 0 1 24.32 51.67
  L 16.77 51.72
  A 2.08 2.07 -2.1 0 1 14.68 49.77
  Q 14.66 49.48 14.66 34.10
  Q 14.65 18.72 14.67 18.43
  A 2.08 2.07 2.0 0 1 16.76 16.48
  L 24.31 16.53
  A 1.71 1.71 0.0 0 1 25.42 16.94
  Q 26.24 17.57 26.21 19.63
  A 0.77 0.77 0.0 0 0 26.90 20.40
  Q 26.93 20.40 33.00 20.40
  Z
  M 22.5013 20.7546
  A 0.49 0.49 0.0 0 0 22.0148 20.2612
  L 18.8348 20.2390
  A 0.49 0.49 0.0 0 0 18.3414 20.7255
  L 18.3187 23.9854
  A 0.49 0.49 0.0 0 0 18.8052 24.4788
  L 21.9852 24.5010
  A 0.49 0.49 0.0 0 0 22.4786 24.0145
  L 22.5013 20.7546
  Z
  M 47.6416 20.7791
  A 0.53 0.53 0.0 0 0 47.1089 20.2519
  L 44.0089 20.2681
  A 0.53 0.53 0.0 0 0 43.4817 20.8009
  L 43.4984 23.9809
  A 0.53 0.53 0.0 0 0 44.0311 24.5081
  L 47.1311 24.4919
  A 0.53 0.53 0.0 0 0 47.6583 23.9591
  L 47.6416 20.7791
  Z
  M 39.7840 24.8181
  A 0.54 0.54 0.0 0 0 39.2431 24.2791
  L 26.7231 24.3009
  A 0.54 0.54 0.0 0 0 26.1840 24.8419
  L 26.1960 31.7019
  A 0.54 0.54 0.0 0 0 26.7369 32.2409
  L 39.2569 32.2191
  A 0.54 0.54 0.0 0 0 39.7960 31.6781
  L 39.7840 24.8181
  Z
  M 22.4959 28.4373
  A 0.40 0.40 0.0 0 0 22.0973 28.0359
  L 18.7373 28.0241
  A 0.40 0.40 0.0 0 0 18.3359 28.4227
  L 18.3241 31.8227
  A 0.40 0.40 0.0 0 0 18.7227 32.2241
  L 22.0827 32.2359
  A 0.40 0.40 0.0 0 0 22.4841 31.8373
  L 22.4959 28.4373
  Z
  M 47.6655 28.5573
  A 0.52 0.52 0.0 0 0 47.1474 28.0355
  L 43.9874 28.0245
  A 0.52 0.52 0.0 0 0 43.4656 28.5427
  L 43.4545 31.7227
  A 0.52 0.52 0.0 0 0 43.9726 32.2445
  L 47.1326 32.2555
  A 0.52 0.52 0.0 0 0 47.6544 31.7373
  L 47.6655 28.5573
  Z
  M 22.5311 36.4157
  A 0.37 0.37 0.0 0 0 22.1656 36.0412
  L 18.7259 35.9991
  A 0.37 0.37 0.0 0 0 18.3514 36.3646
  L 18.3089 39.8443
  A 0.37 0.37 0.0 0 0 18.6744 40.2188
  L 22.1141 40.2609
  A 0.37 0.37 0.0 0 0 22.4886 39.8954
  L 22.5311 36.4157
  Z
  M 39.7940 36.5581
  A 0.57 0.57 0.0 0 0 39.2230 35.9891
  L 26.7430 36.0109
  A 0.57 0.57 0.0 0 0 26.1740 36.5819
  L 26.1860 43.4219
  A 0.57 0.57 0.0 0 0 26.7570 43.9909
  L 39.2370 43.9691
  A 0.57 0.57 0.0 0 0 39.8060 43.3981
  L 39.7940 36.5581
  Z
  M 47.6343 36.5127
  A 0.50 0.50 0.0 0 0 47.1326 36.0145
  L 43.9526 36.0256
  A 0.50 0.50 0.0 0 0 43.4544 36.5273
  L 43.4657 39.7673
  A 0.50 0.50 0.0 0 0 43.9674 40.2655
  L 47.1474 40.2544
  A 0.50 0.50 0.0 0 0 47.6456 39.7527
  L 47.6343 36.5127
  Z
  M 22.5189 44.1610
  A 0.40 0.40 0.0 0 0 22.1210 43.7589
  L 18.7411 43.7412
  A 0.40 0.40 0.0 0 0 18.3390 44.1391
  L 18.3211 47.5590
  A 0.40 0.40 0.0 0 0 18.7190 47.9611
  L 22.0989 47.9788
  A 0.40 0.40 0.0 0 0 22.5010 47.5809
  L 22.5189 44.1610
  Z
  M 47.6683 44.2810
  A 0.50 0.50 0.0 0 0 47.1710 43.7784
  L 43.9710 43.7617
  A 0.50 0.50 0.0 0 0 43.4684 44.2590
  L 43.4517 47.4590
  A 0.50 0.50 0.0 0 0 43.9490 47.9616
  L 47.1490 47.9783
  A 0.50 0.50 0.0 0 0 47.6516 47.4810
  L 47.6683 44.2810
  Z"
/>
<rect fill="#aa8f54" x="-2.08" y="-2.12" transform="translate(20.41,22.37) rotate(0.4)" width="4.16" height="4.24" rx="0.49"/>
<rect fill="#aa8f54" x="-2.08" y="-2.12" transform="translate(45.57,22.38) rotate(-0.3)" width="4.16" height="4.24" rx="0.53"/>
<rect fill="#aa8f54" x="-6.80" y="-3.97" transform="translate(32.99,28.26) rotate(-0.1)" width="13.60" height="7.94" rx="0.54"/>
<rect fill="#aa8f54" x="-2.08" y="-2.10" transform="translate(20.41,30.13) rotate(0.2)" width="4.16" height="4.20" rx="0.40"/>
<rect fill="#aa8f54" x="-2.10" y="-2.11" transform="translate(45.56,30.14) rotate(0.2)" width="4.20" height="4.22" rx="0.52"/>
<rect fill="#aa8f54" x="-2.09" y="-2.11" transform="translate(20.42,38.13) rotate(0.7)" width="4.18" height="4.22" rx="0.37"/>
<rect fill="#aa8f54" x="-6.81" y="-3.99" transform="translate(32.99,39.99) rotate(-0.1)" width="13.62" height="7.98" rx="0.57"/>
<rect fill="#aa8f54" x="-2.09" y="-2.12" transform="translate(45.55,38.14) rotate(-0.2)" width="4.18" height="4.24" rx="0.50"/>
<rect fill="#aa8f54" x="-2.09" y="-2.11" transform="translate(20.42,45.86) rotate(0.3)" width="4.18" height="4.22" rx="0.40"/>
<rect fill="#aa8f54" x="-2.10" y="-2.10" transform="translate(45.56,45.87) rotate(0.3)" width="4.20" height="4.20" rx="0.50"/>
</svg>
