<?xml version="1.0" encoding="UTF-8" standalone="no"?>
<!DOCTYPE svg PUBLIC "-//W3C//DTD SVG 1.1//EN" "http://www.w3.org/Graphics/SVG/1.1/DTD/svg11.dtd">
<svg xmlns="http://www.w3.org/2000/svg" version="1.1" viewBox="0.00 0.00 66.00 88.00">
<g stroke-width="2.00" fill="none" stroke-linecap="butt">
<path stroke="#38728d" vector-effect="non-scaling-stroke" d="
  M 33.40 86.72
  Q 33.52 86.72 33.62 86.69
  Q 33.70 86.67 33.79 86.59
  Q 47.29 73.98 56.29 58.78
  C 67.06 40.60 68.97 18.76 48.64 6.44
  Q 42.11 2.49 33.53 2.47
  Q 24.95 2.46 18.41 6.40
  C -1.96 18.66 -0.12 40.50 10.60 58.71
  Q 19.55 73.94 33.02 86.59
  Q 33.11 86.67 33.19 86.69
  Q 33.29 86.72 33.40 86.72"
/>
<path stroke="#a6cad6" vector-effect="non-scaling-stroke" d="
  M 33.00 49.00
  Q 43.48 49.00 43.94 48.98
  A 0.88 0.88 0.0 0 0 44.75 47.98
  L 42.39 30.66
  A 0.36 0.36 0.0 0 1 42.96 30.32
  L 44.95 31.81
  A 1.41 1.40 -49.2 0 0 46.78 31.67
  L 50.99 27.46
  A 1.33 1.32 40.9 0 0 50.84 25.46
  L 41.41 18.44
  A 0.50 0.50 0.0 0 0 40.75 18.49
  Q 37.10 22.21 33.00 22.21
  Q 28.89 22.21 25.25 18.49
  A 0.50 0.50 0.0 0 0 24.59 18.44
  L 15.16 25.46
  A 1.33 1.32 -40.9 0 0 15.01 27.46
  L 19.22 31.67
  A 1.41 1.40 49.2 0 0 21.05 31.81
  L 23.04 30.32
  A 0.36 0.36 0.0 0 1 23.61 30.66
  L 21.25 47.98
  A 0.88 0.88 0.0 0 0 22.06 48.98
  Q 22.52 49.00 33.00 49.00"
/>
<path stroke="#a6cad6" vector-effect="non-scaling-stroke" d="
  M 35.17 29.01
  A 2.17 2.17 0.0 0 0 33.00 26.84
  A 2.17 2.17 0.0 0 0 30.83 29.01
  A 2.17 2.17 0.0 0 0 33.00 31.18
  A 2.17 2.17 0.0 0 0 35.17 29.01"
/>
<path stroke="#a6cad6" vector-effect="non-scaling-stroke" d="
  M 35.15 36.25
  A 2.16 2.16 0.0 0 0 32.99 34.09
  A 2.16 2.16 0.0 0 0 30.83 36.25
  A 2.16 2.16 0.0 0 0 32.99 38.41
  A 2.16 2.16 0.0 0 0 35.15 36.25"
/>
</g>
<path fill="#234d60" d="
  M 33.78 88.00
  L 33.04 88.00
  C 21.96 77.93 11.89 65.48 5.64 51.57
  Q 2.20 43.91 1.60 34.88
  C 0.79 22.90 6.89 11.71 17.11 5.77
  C 33.72 -3.87 54.95 2.67 62.92 20.44
  C 66.91 29.33 65.82 40.17 62.34 49.06
  C 56.54 63.85 45.50 77.39 33.78 88.00
  Z
  M 33.40 86.72
  Q 33.52 86.72 33.62 86.69
  Q 33.70 86.67 33.79 86.59
  Q 47.29 73.98 56.29 58.78
  C 67.06 40.60 68.97 18.76 48.64 6.44
  Q 42.11 2.49 33.53 2.47
  Q 24.95 2.46 18.41 6.40
  C -1.96 18.66 -0.12 40.50 10.60 58.71
  Q 19.55 73.94 33.02 86.59
  Q 33.11 86.67 33.19 86.69
  Q 33.29 86.72 33.40 86.72
  Z"
/>
<path fill="#4d96b9" d="
  M 33.53 2.47
  Q 42.11 2.49 48.64 6.44
  C 68.97 18.76 67.06 40.60 56.29 58.78
  Q 47.29 73.98 33.79 86.59
  Q 33.70 86.67 33.62 86.69
  Q 33.52 86.72 33.40 86.72
  Q 33.29 86.72 33.19 86.69
  Q 33.11 86.67 33.02 86.59
  Q 19.55 73.94 10.60 58.71
  C -0.12 40.50 -1.96 18.66 18.41 6.40
  Q 24.95 2.46 33.53 2.47
  Z
  M 33.00 49.00
  Q 43.48 49.00 43.94 48.98
  A 0.88 0.88 0.0 0 0 44.75 47.98
  L 42.39 30.66
  A 0.36 0.36 0.0 0 1 42.96 30.32
  L 44.95 31.81
  A 1.41 1.40 -49.2 0 0 46.78 31.67
  L 50.99 27.46
  A 1.33 1.32 40.9 0 0 50.84 25.46
  L 41.41 18.44
  A 0.50 0.50 0.0 0 0 40.75 18.49
  Q 37.10 22.21 33.00 22.21
  Q 28.89 22.21 25.25 18.49
  A 0.50 0.50 0.0 0 0 24.59 18.44
  L 15.16 25.46
  A 1.33 1.32 -40.9 0 0 15.01 27.46
  L 19.22 31.67
  A 1.41 1.40 49.2 0 0 21.05 31.81
  L 23.04 30.32
  A 0.36 0.36 0.0 0 1 23.61 30.66
  L 21.25 47.98
  A 0.88 0.88 0.0 0 0 22.06 48.98
  Q 22.52 49.00 33.00 49.00
  Z"
/>
<path fill="#fffef2" d="
  M 33.00 22.21
  Q 37.10 22.21 40.75 18.49
  A 0.50 0.50 0.0 0 1 41.41 18.44
  L 50.84 25.46
  A 1.33 1.32 40.9 0 1 50.99 27.46
  L 46.78 31.67
  A 1.41 1.40 -49.2 0 1 44.95 31.81
  L 42.96 30.32
  A 0.36 0.36 0.0 0 0 42.39 30.66
  L 44.75 47.98
  A 0.88 0.88 0.0 0 1 43.94 48.98
  Q 43.48 49.00 33.00 49.00
  Q 22.52 49.00 22.06 48.98
  A 0.88 0.88 0.0 0 1 21.25 47.98
  L 23.61 30.66
  A 0.36 0.36 0.0 0 0 23.04 30.32
  L 21.05 31.81
  A 1.41 1.40 49.2 0 1 19.22 31.67
  L 15.01 27.46
  A 1.33 1.32 -40.9 0 1 15.16 25.46
  L 24.59 18.44
  A 0.50 0.50 0.0 0 1 25.25 18.49
  Q 28.89 22.21 33.00 22.21
  Z
  M 35.17 29.01
  A 2.17 2.17 0.0 0 0 33.00 26.84
  A 2.17 2.17 0.0 0 0 30.83 29.01
  A 2.17 2.17 0.0 0 0 33.00 31.18
  A 2.17 2.17 0.0 0 0 35.17 29.01
  Z
  M 35.15 36.25
  A 2.16 2.16 0.0 0 0 32.99 34.09
  A 2.16 2.16 0.0 0 0 30.83 36.25
  A 2.16 2.16 0.0 0 0 32.99 38.41
  A 2.16 2.16 0.0 0 0 35.15 36.25
  Z"
/>
<circle fill="#4d96b9" cx="33.00" cy="29.01" r="2.17"/>
<circle fill="#4d96b9" cx="32.99" cy="36.25" r="2.16"/>
</svg>
