<?xml version="1.0" encoding="UTF-8" standalone="no"?>
<!DOCTYPE svg PUBLIC "-//W3C//DTD SVG 1.1//EN" "http://www.w3.org/Graphics/SVG/1.1/DTD/svg11.dtd">
<svg xmlns="http://www.w3.org/2000/svg" version="1.1" viewBox="0.00 0.00 66.00 88.00">
<g stroke-width="2.00" fill="none" stroke-linecap="butt">
<path stroke="#802436" vector-effect="non-scaling-stroke" d="
  M 33.42 86.69
  Q 33.52 86.69 33.62 86.67
  Q 33.66 86.66 33.77 86.57
  C 48.67 72.77 67.47 49.12 63.78 27.46
  C 61.31 13.04 48.12 2.48 33.51 2.47
  C 18.91 2.45 5.69 12.98 3.19 27.40
  C -0.55 49.04 18.20 72.74 33.07 86.57
  Q 33.18 86.66 33.22 86.67
  Q 33.31 86.69 33.42 86.69"
/>
<path stroke="#d4969c" vector-effect="non-scaling-stroke" d="
  M 32.93 51.45
  Q 41.87 51.46 48.44 44.21
  C 50.66 41.76 53.05 37.84 48.86 35.54
  C 41.81 31.67 39.15 25.21 35.37 18.14
  Q 34.54 16.59 32.97 16.59
  Q 31.40 16.59 30.57 18.13
  C 26.77 25.20 24.10 31.65 17.04 35.51
  C 12.85 37.80 15.23 41.72 17.44 44.18
  Q 23.99 51.45 32.93 51.45"
/>
<path stroke="#d4969c" vector-effect="non-scaling-stroke" d="
  M 32.98 48.95
  C 37.56 48.95 41.43 43.65 42.58 39.70
  A 3.00 2.99 -57.3 0 0 41.98 36.91
  C 38.20 32.50 36.22 27.11 33.85 21.89
  Q 33.52 21.15 32.97 21.15
  Q 32.42 21.15 32.09 21.89
  C 29.73 27.11 27.75 32.50 23.98 36.92
  A 3.00 2.99 57.2 0 0 23.37 39.71
  C 24.53 43.66 28.41 48.96 32.98 48.95"
/>
<path stroke="#d4969c" vector-effect="non-scaling-stroke" d="
  M 32.97 46.06
  C 36.06 46.07 38.90 42.07 39.75 39.40
  A 1.05 1.04 -53.7 0 0 39.62 38.49
  L 36.01 33.30
  A 1.03 1.02 -1.8 0 0 35.68 32.99
  Q 34.55 32.32 33.00 32.31
  Q 31.45 32.31 30.31 32.99
  A 1.03 1.02 2.0 0 0 29.98 33.29
  L 26.35 38.47
  A 1.05 1.04 53.9 0 0 26.22 39.38
  C 27.07 42.05 29.89 46.06 32.97 46.06"
/>
</g>
<path fill="#581723" d="
  M 33.79 88.00
  L 33.04 88.00
  C 21.72 77.72 12.19 65.74 5.68 51.55
  C 1.00 41.36 -0.42 28.56 5.06 18.37
  C 12.40 4.72 27.88 -1.72 43.01 2.77
  Q 51.20 5.20 57.05 11.54
  C 69.86 25.40 66.40 43.94 57.38 59.17
  Q 47.83 75.28 33.79 88.00
  Z
  M 33.42 86.69
  Q 33.52 86.69 33.62 86.67
  Q 33.66 86.66 33.77 86.57
  C 48.67 72.77 67.47 49.12 63.78 27.46
  C 61.31 13.04 48.12 2.48 33.51 2.47
  C 18.91 2.45 5.69 12.98 3.19 27.40
  C -0.55 49.04 18.20 72.74 33.07 86.57
  Q 33.18 86.66 33.22 86.67
  Q 33.31 86.69 33.42 86.69
  Z"
/>
<path fill="#a83148" d="
  M 33.51 2.47
  C 48.12 2.48 61.31 13.04 63.78 27.46
  C 67.47 49.12 48.67 72.77 33.77 86.57
  Q 33.66 86.66 33.62 86.67
  Q 33.52 86.69 33.42 86.69
  Q 33.31 86.69 33.22 86.67
  Q 33.18 86.66 33.07 86.57
  C 18.20 72.74 -0.55 49.04 3.19 27.40
  C 5.69 12.98 18.91 2.45 33.51 2.47
  Z
  M 32.93 51.45
  Q 41.87 51.46 48.44 44.21
  C 50.66 41.76 53.05 37.84 48.86 35.54
  C 41.81 31.67 39.15 25.21 35.37 18.14
  Q 34.54 16.59 32.97 16.59
  Q 31.40 16.59 30.57 18.13
  C 26.77 25.20 24.10 31.65 17.04 35.51
  C 12.85 37.80 15.23 41.72 17.44 44.18
  Q 23.99 51.45 32.93 51.45
  Z"
/>
<path fill="#fffbef" d="
  M 32.97 16.59
  Q 34.54 16.59 35.37 18.14
  C 39.15 25.21 41.81 31.67 48.86 35.54
  C 53.05 37.84 50.66 41.76 48.44 44.21
  Q 41.87 51.46 32.93 51.45
  Q 23.99 51.45 17.44 44.18
  C 15.23 41.72 12.85 37.80 17.04 35.51
  C 24.10 31.65 26.77 25.20 30.57 18.13
  Q 31.40 16.59 32.97 16.59
  Z
  M 32.98 48.95
  C 37.56 48.95 41.43 43.65 42.58 39.70
  A 3.00 2.99 -57.3 0 0 41.98 36.91
  C 38.20 32.50 36.22 27.11 33.85 21.89
  Q 33.52 21.15 32.97 21.15
  Q 32.42 21.15 32.09 21.89
  C 29.73 27.11 27.75 32.50 23.98 36.92
  A 3.00 2.99 57.2 0 0 23.37 39.71
  C 24.53 43.66 28.41 48.96 32.98 48.95
  Z"
/>
<path fill="#a83148" d="
  M 32.97 21.15
  Q 33.52 21.15 33.85 21.89
  C 36.22 27.11 38.20 32.50 41.98 36.91
  A 3.00 2.99 -57.3 0 1 42.58 39.70
  C 41.43 43.65 37.56 48.95 32.98 48.95
  C 28.41 48.96 24.53 43.66 23.37 39.71
  A 3.00 2.99 57.2 0 1 23.98 36.92
  C 27.75 32.50 29.73 27.11 32.09 21.89
  Q 32.42 21.15 32.97 21.15
  Z
  M 32.97 46.06
  C 36.06 46.07 38.90 42.07 39.75 39.40
  A 1.05 1.04 -53.7 0 0 39.62 38.49
  L 36.01 33.30
  A 1.03 1.02 -1.8 0 0 35.68 32.99
  Q 34.55 32.32 33.00 32.31
  Q 31.45 32.31 30.31 32.99
  A 1.03 1.02 2.0 0 0 29.98 33.29
  L 26.35 38.47
  A 1.05 1.04 53.9 0 0 26.22 39.38
  C 27.07 42.05 29.89 46.06 32.97 46.06
  Z"
/>
<path fill="#fffbef" d="
  M 33.00 32.31
  Q 34.55 32.32 35.68 32.99
  A 1.03 1.02 -1.8 0 1 36.01 33.30
  L 39.62 38.49
  A 1.05 1.04 -53.7 0 1 39.75 39.40
  C 38.90 42.07 36.06 46.07 32.97 46.06
  C 29.89 46.06 27.07 42.05 26.22 39.38
  A 1.05 1.04 53.9 0 1 26.35 38.47
  L 29.98 33.29
  A 1.03 1.02 2.0 0 1 30.31 32.99
  Q 31.45 32.31 33.00 32.31
  Z"
/>
</svg>
