<?xml version="1.0" encoding="UTF-8" standalone="no"?>
<!DOCTYPE svg PUBLIC "-//W3C//DTD SVG 1.1//EN" "http://www.w3.org/Graphics/SVG/1.1/DTD/svg11.dtd">
<svg xmlns="http://www.w3.org/2000/svg" version="1.1" viewBox="0.00 0.00 66.00 88.00">
<g stroke-width="2.00" fill="none" stroke-linecap="butt">
<path stroke="#802436" vector-effect="non-scaling-stroke" d="
  M 33.42 86.69
  Q 33.53 86.69 33.62 86.67
  Q 33.71 86.65 33.79 86.57
  C 50.42 71.21 75.92 38.64 58.52 15.24
  Q 49.44 3.04 33.75 2.46
  Q 33.60 2.46 33.51 2.46
  Q 33.42 2.46 33.27 2.46
  Q 17.58 3.01 8.47 15.19
  C -8.98 38.55 16.46 71.17 33.05 86.57
  Q 33.13 86.65 33.22 86.67
  Q 33.32 86.69 33.42 86.69"
/>
<path stroke="#d4969c" vector-effect="non-scaling-stroke" d="
  M 27.05 39.20
  L 26.14 39.72
  A 1.07 1.07 0.0 0 0 25.61 40.68
  Q 25.65 41.92 25.21 42.19
  A 2.10 1.96 -49.9 0 0 25.40 45.87
  Q 25.45 45.88 26.52 45.74
  A 1.94 1.84 72.8 0 0 27.88 42.99
  Q 27.86 42.96 27.45 42.70
  A 0.59 0.58 -63.0 0 1 27.22 41.97
  C 28.15 39.79 31.51 40.40 33.54 40.82
  A 1.04 1.04 0.0 0 1 33.98 42.66
  Q 33.89 42.73 33.83 42.79
  A 1.46 1.46 0.0 0 0 34.59 45.37
  L 36.36 45.56
  A 0.77 0.76 7.7 0 0 37.19 44.93
  Q 37.52 43.00 36.36 42.14
  A 1.12 1.11 -70.4 0 1 35.90 41.16
  Q 35.99 39.81 35.25 39.61
  A 1.29 1.18 -43.5 0 1 35.42 37.23
  Q 37.90 36.49 40.15 35.21
  A 0.48 0.48 0.0 0 1 40.86 35.74
  L 39.89 39.83
  A 0.37 0.36 -55.0 0 0 39.93 40.09
  L 41.61 43.00
  A 0.51 0.51 0.0 0 0 42.17 43.24
  L 48.90 41.64
  A 0.96 0.94 -89.3 0 0 49.61 40.93
  L 51.24 34.03
  A 0.71 0.71 0.0 0 0 50.81 33.21
  C 48.65 32.36 47.81 32.20 45.78 32.69
  A 0.64 0.64 0.0 0 1 45.01 31.92
  L 45.33 30.56
  A 0.97 0.96 24.6 0 0 44.95 29.55
  L 44.28 29.07
  A 0.72 0.72 0.0 0 1 44.12 28.07
  L 44.35 27.75
  A 0.62 0.62 0.0 0 0 44.21 26.88
  L 39.25 23.31
  A 1.40 1.40 0.0 0 0 38.13 23.09
  L 22.94 26.70
  A 1.21 1.18 -81.9 0 0 22.15 27.31
  L 20.65 30.12
  A 1.03 1.01 44.4 0 0 20.67 31.12
  L 21.92 33.29
  A 0.75 0.74 47.2 0 1 21.89 34.09
  Q 19.74 37.20 16.82 36.20
  A 0.73 0.72 -73.6 0 0 15.88 36.72
  L 14.91 40.83
  A 0.79 0.79 0.0 0 0 15.04 41.49
  Q 17.33 44.56 20.57 43.20
  A 1.25 1.22 5.9 0 0 21.05 42.82
  L 22.94 40.19
  A 0.75 0.75 0.0 0 0 22.86 39.22
  L 21.92 38.25
  A 0.81 0.81 0.0 0 1 21.86 37.18
  Q 22.15 36.81 23.06 36.50
  A 0.51 0.51 0.0 0 1 23.72 37.06
  Q 23.59 37.81 26.88 38.31
  A 0.48 0.48 0.0 0 1 27.05 39.20"
/>
<path stroke="#d4969c" vector-effect="non-scaling-stroke" d="
  M 28.10 27.47
  C 26.72 27.74 24.92 28.00 24.20 28.94
  Q 23.90 29.33 23.87 29.61
  A 0.38 0.37 79.1 0 0 24.41 29.98
  Q 27.98 28.13 28.29 27.83
  A 0.21 0.21 0.0 0 0 28.10 27.47"
/>
</g>
<path fill="#581723" d="
  M 33.82 88.00
  L 33.15 88.00
  Q 15.61 72.48 6.00 52.51
  Q 2.31 44.84 1.62 35.22
  Q 0.94 25.67 5.27 17.98
  C 17.86 -4.38 49.94 -4.36 62.16 18.84
  C 67.42 28.83 65.84 41.30 61.31 51.53
  C 55.17 65.40 44.98 77.80 33.82 88.00
  Z
  M 33.42 86.69
  Q 33.53 86.69 33.62 86.67
  Q 33.71 86.65 33.79 86.57
  C 50.42 71.21 75.92 38.64 58.52 15.24
  Q 49.44 3.04 33.75 2.46
  Q 33.60 2.46 33.51 2.46
  Q 33.42 2.46 33.27 2.46
  Q 17.58 3.01 8.47 15.19
  C -8.98 38.55 16.46 71.17 33.05 86.57
  Q 33.13 86.65 33.22 86.67
  Q 33.32 86.69 33.42 86.69
  Z"
/>
<path fill="#a83148" d="
  M 33.51 2.46
  Q 33.60 2.46 33.75 2.46
  Q 49.44 3.04 58.52 15.24
  C 75.92 38.64 50.42 71.21 33.79 86.57
  Q 33.71 86.65 33.62 86.67
  Q 33.53 86.69 33.42 86.69
  Q 33.32 86.69 33.22 86.67
  Q 33.13 86.65 33.05 86.57
  C 16.46 71.17 -8.98 38.55 8.47 15.19
  Q 17.58 3.01 33.27 2.46
  Q 33.42 2.46 33.51 2.46
  Z
  M 27.05 39.20
  L 26.14 39.72
  A 1.07 1.07 0.0 0 0 25.61 40.68
  Q 25.65 41.92 25.21 42.19
  A 2.10 1.96 -49.9 0 0 25.40 45.87
  Q 25.45 45.88 26.52 45.74
  A 1.94 1.84 72.8 0 0 27.88 42.99
  Q 27.86 42.96 27.45 42.70
  A 0.59 0.58 -63.0 0 1 27.22 41.97
  C 28.15 39.79 31.51 40.40 33.54 40.82
  A 1.04 1.04 0.0 0 1 33.98 42.66
  Q 33.89 42.73 33.83 42.79
  A 1.46 1.46 0.0 0 0 34.59 45.37
  L 36.36 45.56
  A 0.77 0.76 7.7 0 0 37.19 44.93
  Q 37.52 43.00 36.36 42.14
  A 1.12 1.11 -70.4 0 1 35.90 41.16
  Q 35.99 39.81 35.25 39.61
  A 1.29 1.18 -43.5 0 1 35.42 37.23
  Q 37.90 36.49 40.15 35.21
  A 0.48 0.48 0.0 0 1 40.86 35.74
  L 39.89 39.83
  A 0.37 0.36 -55.0 0 0 39.93 40.09
  L 41.61 43.00
  A 0.51 0.51 0.0 0 0 42.17 43.24
  L 48.90 41.64
  A 0.96 0.94 -89.3 0 0 49.61 40.93
  L 51.24 34.03
  A 0.71 0.71 0.0 0 0 50.81 33.21
  C 48.65 32.36 47.81 32.20 45.78 32.69
  A 0.64 0.64 0.0 0 1 45.01 31.92
  L 45.33 30.56
  A 0.97 0.96 24.6 0 0 44.95 29.55
  L 44.28 29.07
  A 0.72 0.72 0.0 0 1 44.12 28.07
  L 44.35 27.75
  A 0.62 0.62 0.0 0 0 44.21 26.88
  L 39.25 23.31
  A 1.40 1.40 0.0 0 0 38.13 23.09
  L 22.94 26.70
  A 1.21 1.18 -81.9 0 0 22.15 27.31
  L 20.65 30.12
  A 1.03 1.01 44.4 0 0 20.67 31.12
  L 21.92 33.29
  A 0.75 0.74 47.2 0 1 21.89 34.09
  Q 19.74 37.20 16.82 36.20
  A 0.73 0.72 -73.6 0 0 15.88 36.72
  L 14.91 40.83
  A 0.79 0.79 0.0 0 0 15.04 41.49
  Q 17.33 44.56 20.57 43.20
  A 1.25 1.22 5.9 0 0 21.05 42.82
  L 22.94 40.19
  A 0.75 0.75 0.0 0 0 22.86 39.22
  L 21.92 38.25
  A 0.81 0.81 0.0 0 1 21.86 37.18
  Q 22.15 36.81 23.06 36.50
  A 0.51 0.51 0.0 0 1 23.72 37.06
  Q 23.59 37.81 26.88 38.31
  A 0.48 0.48 0.0 0 1 27.05 39.20
  Z"
/>
<path fill="#fffbef" d="
  M 27.05 39.20
  A 0.48 0.48 0.0 0 0 26.88 38.31
  Q 23.59 37.81 23.72 37.06
  A 0.51 0.51 0.0 0 0 23.06 36.50
  Q 22.15 36.81 21.86 37.18
  A 0.81 0.81 0.0 0 0 21.92 38.25
  L 22.86 39.22
  A 0.75 0.75 0.0 0 1 22.94 40.19
  L 21.05 42.82
  A 1.25 1.22 5.9 0 1 20.57 43.20
  Q 17.33 44.56 15.04 41.49
  A 0.79 0.79 0.0 0 1 14.91 40.83
  L 15.88 36.72
  A 0.73 0.72 -73.6 0 1 16.82 36.20
  Q 19.74 37.20 21.89 34.09
  A 0.75 0.74 47.2 0 0 21.92 33.29
  L 20.67 31.12
  A 1.03 1.01 44.4 0 1 20.65 30.12
  L 22.15 27.31
  A 1.21 1.18 -81.9 0 1 22.94 26.70
  L 38.13 23.09
  A 1.40 1.40 0.0 0 1 39.25 23.31
  L 44.21 26.88
  A 0.62 0.62 0.0 0 1 44.35 27.75
  L 44.12 28.07
  A 0.72 0.72 0.0 0 0 44.28 29.07
  L 44.95 29.55
  A 0.97 0.96 24.6 0 1 45.33 30.56
  L 45.01 31.92
  A 0.64 0.64 0.0 0 0 45.78 32.69
  C 47.81 32.20 48.65 32.36 50.81 33.21
  A 0.71 0.71 0.0 0 1 51.24 34.03
  L 49.61 40.93
  A 0.96 0.94 -89.3 0 1 48.90 41.64
  L 42.17 43.24
  A 0.51 0.51 0.0 0 1 41.61 43.00
  L 39.93 40.09
  A 0.37 0.36 -55.0 0 1 39.89 39.83
  L 40.86 35.74
  A 0.48 0.48 0.0 0 0 40.15 35.21
  Q 37.90 36.49 35.42 37.23
  A 1.29 1.18 -43.5 0 0 35.25 39.61
  Q 35.99 39.81 35.90 41.16
  A 1.12 1.11 -70.4 0 0 36.36 42.14
  Q 37.52 43.00 37.19 44.93
  A 0.77 0.76 7.7 0 1 36.36 45.56
  L 34.59 45.37
  A 1.46 1.46 0.0 0 1 33.83 42.79
  Q 33.89 42.73 33.98 42.66
  A 1.04 1.04 0.0 0 0 33.54 40.82
  C 31.51 40.40 28.15 39.79 27.22 41.97
  A 0.59 0.58 -63.0 0 0 27.45 42.70
  Q 27.86 42.96 27.88 42.99
  A 1.94 1.84 72.8 0 1 26.52 45.74
  Q 25.45 45.88 25.40 45.87
  A 2.10 1.96 -49.9 0 1 25.21 42.19
  Q 25.65 41.92 25.61 40.68
  A 1.07 1.07 0.0 0 1 26.14 39.72
  L 27.05 39.20
  Z
  M 28.10 27.47
  C 26.72 27.74 24.92 28.00 24.20 28.94
  Q 23.90 29.33 23.87 29.61
  A 0.38 0.37 79.1 0 0 24.41 29.98
  Q 27.98 28.13 28.29 27.83
  A 0.21 0.21 0.0 0 0 28.10 27.47
  Z"
/>
<path fill="#a83148" d="
  M 28.29 27.83
  Q 27.98 28.13 24.41 29.98
  A 0.38 0.37 79.1 0 1 23.87 29.61
  Q 23.90 29.33 24.20 28.94
  C 24.92 28.00 26.72 27.74 28.10 27.47
  A 0.21 0.21 0.0 0 1 28.29 27.83
  Z"
/>
</svg>
