<?xml version="1.0" encoding="UTF-8" standalone="no"?>
<!DOCTYPE svg PUBLIC "-//W3C//DTD SVG 1.1//EN" "http://www.w3.org/Graphics/SVG/1.1/DTD/svg11.dtd">
<svg xmlns="http://www.w3.org/2000/svg" version="1.1" viewBox="0.00 0.00 66.00 88.00">
<g stroke-width="2.00" fill="none" stroke-linecap="butt">
<path stroke="#21303f" vector-effect="non-scaling-stroke" d="
  M 33.43 86.58
  Q 33.56 86.58 33.70 86.55
  A 0.23 0.15 -59.6 0 0 33.78 86.51
  C 48.60 72.39 64.67 52.32 64.20 32.25
  Q 63.84 16.88 50.71 7.77
  Q 43.18 2.55 33.49 2.54
  Q 23.79 2.53 16.26 7.74
  Q 3.12 16.84 2.73 32.20
  C 2.23 52.27 18.28 72.37 33.07 86.51
  A 0.23 0.15 59.6 0 0 33.16 86.55
  Q 33.29 86.58 33.43 86.58"
/>
<path stroke="#969da1" vector-effect="non-scaling-stroke" d="
  M 33.01 52.24
  Q 37.77 52.23 38.15 52.19
  A 2.68 2.48 -59.8 0 0 39.07 51.91
  Q 41.44 50.67 41.55 48.45
  Q 41.69 45.43 41.65 39.00
  C 41.62 34.16 42.17 30.72 37.98 28.63
  A 0.59 0.58 29.3 0 1 37.74 27.80
  Q 41.57 21.75 36.38 16.90
  Q 35.24 15.83 32.96 15.83
  Q 30.69 15.84 29.55 16.91
  Q 24.37 21.77 28.22 27.81
  A 0.59 0.58 -29.5 0 1 27.98 28.64
  C 23.79 30.74 24.35 34.18 24.33 39.02
  Q 24.31 45.45 24.45 48.47
  Q 24.57 50.69 26.94 51.92
  A 2.68 2.48 59.7 0 0 27.86 52.20
  Q 28.24 52.25 33.01 52.24"
/>
<path stroke="#969da1" vector-effect="non-scaling-stroke" d="
  M 23.75 27.57
  L 16.67 26.22
  A 1.59 1.59 0.0 0 0 14.82 27.43
  Q 14.02 30.98 17.52 32.00
  A 1.12 1.10 88.2 0 1 18.25 32.70
  Q 18.92 34.60 20.90 34.94
  A 0.62 0.62 0.0 0 0 21.63 34.31
  Q 21.57 30.96 24.00 28.32
  A 0.46 0.45 26.8 0 0 23.75 27.57"
/>
<path stroke="#969da1" vector-effect="non-scaling-stroke" d="
  M 42.21 27.56
  A 0.46 0.45 -26.7 0 0 41.96 28.31
  Q 44.38 30.96 44.31 34.31
  A 0.62 0.62 0.0 0 0 45.04 34.94
  Q 47.02 34.61 47.70 32.71
  A 1.12 1.10 -88.0 0 1 48.43 32.01
  Q 51.93 31.00 51.14 27.45
  A 1.59 1.59 0.0 0 0 49.30 26.23
  L 42.21 27.56"
/>
<path stroke="#969da1" vector-effect="non-scaling-stroke" d="
  M 32.9646 18.5100
  A 4.40 3.53 -90.2 0 0 29.4500 22.9223
  A 4.40 3.53 -90.2 0 0 32.9954 27.3100
  A 4.40 3.53 -90.2 0 0 36.5100 22.8977
  A 4.40 3.53 -90.2 0 0 32.9646 18.5100"
/>
</g>
<path fill="#16212b" d="
  M 33.81 88.00
  L 33.04 88.00
  C 21.75 77.74 12.13 65.70 5.66 51.56
  Q 0.20 39.60 2.06 26.55
  Q 2.41 24.09 4.29 19.97
  C 12.33 2.23 34.43 -3.99 50.66 6.29
  Q 62.34 13.70 64.91 27.02
  C 69.20 49.27 49.12 74.02 33.81 88.00
  Z
  M 33.43 86.58
  Q 33.56 86.58 33.70 86.55
  A 0.23 0.15 -59.6 0 0 33.78 86.51
  C 48.60 72.39 64.67 52.32 64.20 32.25
  Q 63.84 16.88 50.71 7.77
  Q 43.18 2.55 33.49 2.54
  Q 23.79 2.53 16.26 7.74
  Q 3.12 16.84 2.73 32.20
  C 2.23 52.27 18.28 72.37 33.07 86.51
  A 0.23 0.15 59.6 0 0 33.16 86.55
  Q 33.29 86.58 33.43 86.58
  Z"
/>
<path fill="#2c3f52" d="
  M 33.49 2.54
  Q 43.18 2.55 50.71 7.77
  Q 63.84 16.88 64.20 32.25
  C 64.67 52.32 48.60 72.39 33.78 86.51
  A 0.23 0.15 -59.6 0 1 33.70 86.55
  Q 33.56 86.58 33.43 86.58
  Q 33.29 86.58 33.16 86.55
  A 0.23 0.15 59.6 0 1 33.07 86.51
  C 18.28 72.37 2.23 52.27 2.73 32.20
  Q 3.12 16.84 16.26 7.74
  Q 23.79 2.53 33.49 2.54
  Z
  M 33.01 52.24
  Q 37.77 52.23 38.15 52.19
  A 2.68 2.48 -59.8 0 0 39.07 51.91
  Q 41.44 50.67 41.55 48.45
  Q 41.69 45.43 41.65 39.00
  C 41.62 34.16 42.17 30.72 37.98 28.63
  A 0.59 0.58 29.3 0 1 37.74 27.80
  Q 41.57 21.75 36.38 16.90
  Q 35.24 15.83 32.96 15.83
  Q 30.69 15.84 29.55 16.91
  Q 24.37 21.77 28.22 27.81
  A 0.59 0.58 -29.5 0 1 27.98 28.64
  C 23.79 30.74 24.35 34.18 24.33 39.02
  Q 24.31 45.45 24.45 48.47
  Q 24.57 50.69 26.94 51.92
  A 2.68 2.48 59.7 0 0 27.86 52.20
  Q 28.24 52.25 33.01 52.24
  Z
  M 23.75 27.57
  L 16.67 26.22
  A 1.59 1.59 0.0 0 0 14.82 27.43
  Q 14.02 30.98 17.52 32.00
  A 1.12 1.10 88.2 0 1 18.25 32.70
  Q 18.92 34.60 20.90 34.94
  A 0.62 0.62 0.0 0 0 21.63 34.31
  Q 21.57 30.96 24.00 28.32
  A 0.46 0.45 26.8 0 0 23.75 27.57
  Z
  M 42.21 27.56
  A 0.46 0.45 -26.7 0 0 41.96 28.31
  Q 44.38 30.96 44.31 34.31
  A 0.62 0.62 0.0 0 0 45.04 34.94
  Q 47.02 34.61 47.70 32.71
  A 1.12 1.10 -88.0 0 1 48.43 32.01
  Q 51.93 31.00 51.14 27.45
  A 1.59 1.59 0.0 0 0 49.30 26.23
  L 42.21 27.56
  Z"
/>
<path fill="#fffbef" d="
  M 32.96 15.83
  Q 35.24 15.83 36.38 16.90
  Q 41.57 21.75 37.74 27.80
  A 0.59 0.58 29.3 0 0 37.98 28.63
  C 42.17 30.72 41.62 34.16 41.65 39.00
  Q 41.69 45.43 41.55 48.45
  Q 41.44 50.67 39.07 51.91
  A 2.68 2.48 -59.8 0 1 38.15 52.19
  Q 37.77 52.23 33.01 52.24
  Q 28.24 52.25 27.86 52.20
  A 2.68 2.48 59.7 0 1 26.94 51.92
  Q 24.57 50.69 24.45 48.47
  Q 24.31 45.45 24.33 39.02
  C 24.35 34.18 23.79 30.74 27.98 28.64
  A 0.59 0.58 -29.5 0 0 28.22 27.81
  Q 24.37 21.77 29.55 16.91
  Q 30.69 15.84 32.96 15.83
  Z
  M 32.9646 18.5100
  A 4.40 3.53 -90.2 0 0 29.4500 22.9223
  A 4.40 3.53 -90.2 0 0 32.9954 27.3100
  A 4.40 3.53 -90.2 0 0 36.5100 22.8977
  A 4.40 3.53 -90.2 0 0 32.9646 18.5100
  Z"
/>
<ellipse fill="#2c3f52" cx="0.00" cy="0.00" transform="translate(32.98,22.91) rotate(-90.2)" rx="4.40" ry="3.53"/>
<path fill="#fffbef" d="
  M 24.00 28.32
  Q 21.57 30.96 21.63 34.31
  A 0.62 0.62 0.0 0 1 20.90 34.94
  Q 18.92 34.60 18.25 32.70
  A 1.12 1.10 88.2 0 0 17.52 32.00
  Q 14.02 30.98 14.82 27.43
  A 1.59 1.59 0.0 0 1 16.67 26.22
  L 23.75 27.57
  A 0.46 0.45 26.8 0 1 24.00 28.32
  Z"
/>
<path fill="#fffbef" d="
  M 42.21 27.56
  L 49.30 26.23
  A 1.59 1.59 0.0 0 1 51.14 27.45
  Q 51.93 31.00 48.43 32.01
  A 1.12 1.10 -88.0 0 0 47.70 32.71
  Q 47.02 34.61 45.04 34.94
  A 0.62 0.62 0.0 0 1 44.31 34.31
  Q 44.38 30.96 41.96 28.31
  A 0.46 0.45 -26.7 0 1 42.21 27.56
  Z"
/>
</svg>
