<?xml version="1.0" encoding="UTF-8" standalone="no"?>
<!DOCTYPE svg PUBLIC "-//W3C//DTD SVG 1.1//EN" "http://www.w3.org/Graphics/SVG/1.1/DTD/svg11.dtd">
<svg xmlns="http://www.w3.org/2000/svg" version="1.1" viewBox="0.00 0.00 66.00 88.00">
<g stroke-width="2.00" fill="none" stroke-linecap="butt">
<path stroke="#21303f" vector-effect="non-scaling-stroke" d="
  M 33.41 86.58
  Q 33.55 86.58 33.69 86.54
  A 0.05 0.04 6.5 0 0 33.73 86.52
  Q 47.31 73.89 56.37 58.66
  Q 62.31 48.67 63.85 38.28
  Q 66.04 23.46 56.62 12.91
  C 50.75 6.32 42.50 2.52 33.52 2.51
  C 24.54 2.50 16.28 6.27 10.39 12.84
  Q 0.94 23.37 3.09 38.20
  Q 4.60 48.59 10.52 58.60
  Q 19.54 73.85 33.08 86.52
  A 0.05 0.04 -6.3 0 0 33.12 86.54
  Q 33.26 86.58 33.41 86.58"
/>
<path stroke="#969fa2" vector-effect="non-scaling-stroke" d="
  M 50.6308 35.5354
  A 2.13 2.13 0.0 0 0 50.6255 32.5231
  L 34.4754 16.4292
  A 2.13 2.13 0.0 0 0 31.4631 16.4345
  L 15.3692 32.5846
  A 2.13 2.13 0.0 0 0 15.3745 35.5969
  L 31.5246 51.6908
  A 2.13 2.13 0.0 0 0 34.5369 51.6855
  L 50.6308 35.5354"
/>
<path stroke="#969fa2" vector-effect="non-scaling-stroke" d="
  M 33.00 27.04
  Q 35.83 27.04 36.72 29.59
  Q 39.03 36.18 41.47 38.28
  A 0.72 0.71 -47.1 0 0 42.44 38.24
  L 46.18 34.50
  A 0.67 0.67 0.0 0 0 46.19 33.55
  Q 39.89 27.18 33.22 20.48
  Q 33.16 20.42 33.00 20.42
  Q 32.84 20.42 32.78 20.48
  Q 26.11 27.17 19.80 33.54
  A 0.67 0.67 0.0 0 0 19.81 34.49
  L 23.55 38.23
  A 0.72 0.71 47.2 0 0 24.52 38.27
  Q 26.96 36.17 29.27 29.59
  Q 30.17 27.04 33.00 27.04"
/>
<path stroke="#969fa2" vector-effect="non-scaling-stroke" d="
  M 33.00 47.54
  Q 33.19 47.54 33.27 47.46
  Q 34.83 45.95 35.73 44.94
  A 1.73 1.68 69.4 0 0 36.14 44.00
  Q 36.83 37.31 32.99 37.31
  Q 29.15 37.31 29.85 44.00
  A 1.73 1.68 -69.4 0 0 30.26 44.94
  Q 31.16 45.95 32.72 47.46
  Q 32.80 47.54 33.00 47.54"
/>
</g>
<path fill="#16212b" d="
  M 33.80 88.00
  L 33.04 88.00
  C 21.80 77.79 12.22 65.79 5.74 51.77
  Q 2.21 44.14 1.59 34.95
  C 0.79 22.89 6.90 11.60 17.26 5.69
  C 38.89 -6.68 66.51 8.79 65.43 34.22
  Q 65.10 41.93 62.41 48.85
  C 56.62 63.75 45.56 77.30 33.80 88.00
  Z
  M 33.41 86.58
  Q 33.55 86.58 33.69 86.54
  A 0.05 0.04 6.5 0 0 33.73 86.52
  Q 47.31 73.89 56.37 58.66
  Q 62.31 48.67 63.85 38.28
  Q 66.04 23.46 56.62 12.91
  C 50.75 6.32 42.50 2.52 33.52 2.51
  C 24.54 2.50 16.28 6.27 10.39 12.84
  Q 0.94 23.37 3.09 38.20
  Q 4.60 48.59 10.52 58.60
  Q 19.54 73.85 33.08 86.52
  A 0.05 0.04 -6.3 0 0 33.12 86.54
  Q 33.26 86.58 33.41 86.58
  Z"
/>
<path fill="#2c3f52" d="
  M 33.52 2.51
  C 42.50 2.52 50.75 6.32 56.62 12.91
  Q 66.04 23.46 63.85 38.28
  Q 62.31 48.67 56.37 58.66
  Q 47.31 73.89 33.73 86.52
  A 0.05 0.04 6.5 0 1 33.69 86.54
  Q 33.55 86.58 33.41 86.58
  Q 33.26 86.58 33.12 86.54
  A 0.05 0.04 -6.3 0 1 33.08 86.52
  Q 19.54 73.85 10.52 58.60
  Q 4.60 48.59 3.09 38.20
  Q 0.94 23.37 10.39 12.84
  C 16.28 6.27 24.54 2.50 33.52 2.51
  Z
  M 50.6308 35.5354
  A 2.13 2.13 0.0 0 0 50.6255 32.5231
  L 34.4754 16.4292
  A 2.13 2.13 0.0 0 0 31.4631 16.4345
  L 15.3692 32.5846
  A 2.13 2.13 0.0 0 0 15.3745 35.5969
  L 31.5246 51.6908
  A 2.13 2.13 0.0 0 0 34.5369 51.6855
  L 50.6308 35.5354
  Z"
/>
<path fill="#fffef2" d="
  M 34.5369 51.6855
  A 2.13 2.13 0.0 0 1 31.5246 51.6908
  L 15.3745 35.5969
  A 2.13 2.13 0.0 0 1 15.3692 32.5846
  L 31.4631 16.4345
  A 2.13 2.13 0.0 0 1 34.4754 16.4292
  L 50.6255 32.5231
  A 2.13 2.13 0.0 0 1 50.6308 35.5354
  L 34.5369 51.6855
  Z
  M 33.00 27.04
  Q 35.83 27.04 36.72 29.59
  Q 39.03 36.18 41.47 38.28
  A 0.72 0.71 -47.1 0 0 42.44 38.24
  L 46.18 34.50
  A 0.67 0.67 0.0 0 0 46.19 33.55
  Q 39.89 27.18 33.22 20.48
  Q 33.16 20.42 33.00 20.42
  Q 32.84 20.42 32.78 20.48
  Q 26.11 27.17 19.80 33.54
  A 0.67 0.67 0.0 0 0 19.81 34.49
  L 23.55 38.23
  A 0.72 0.71 47.2 0 0 24.52 38.27
  Q 26.96 36.17 29.27 29.59
  Q 30.17 27.04 33.00 27.04
  Z
  M 33.00 47.54
  Q 33.19 47.54 33.27 47.46
  Q 34.83 45.95 35.73 44.94
  A 1.73 1.68 69.4 0 0 36.14 44.00
  Q 36.83 37.31 32.99 37.31
  Q 29.15 37.31 29.85 44.00
  A 1.73 1.68 -69.4 0 0 30.26 44.94
  Q 31.16 45.95 32.72 47.46
  Q 32.80 47.54 33.00 47.54
  Z"
/>
<path fill="#2c3f52" d="
  M 33.00 20.42
  Q 33.16 20.42 33.22 20.48
  Q 39.89 27.18 46.19 33.55
  A 0.67 0.67 0.0 0 1 46.18 34.50
  L 42.44 38.24
  A 0.72 0.71 -47.1 0 1 41.47 38.28
  Q 39.03 36.18 36.72 29.59
  Q 35.83 27.04 33.00 27.04
  Q 30.17 27.04 29.27 29.59
  Q 26.96 36.17 24.52 38.27
  A 0.72 0.71 47.2 0 1 23.55 38.23
  L 19.81 34.49
  A 0.67 0.67 0.0 0 1 19.80 33.54
  Q 26.11 27.17 32.78 20.48
  Q 32.84 20.42 33.00 20.42
  Z"
/>
<path fill="#2c3f52" d="
  M 32.99 37.31
  Q 36.83 37.31 36.14 44.00
  A 1.73 1.68 69.4 0 1 35.73 44.94
  Q 34.83 45.95 33.27 47.46
  Q 33.19 47.54 33.00 47.54
  Q 32.80 47.54 32.72 47.46
  Q 31.16 45.95 30.26 44.94
  A 1.73 1.68 -69.4 0 1 29.85 44.00
  Q 29.15 37.31 32.99 37.31
  Z"
/>
</svg>
