<?xml version="1.0" encoding="UTF-8" standalone="no"?>
<!DOCTYPE svg PUBLIC "-//W3C//DTD SVG 1.1//EN" "http://www.w3.org/Graphics/SVG/1.1/DTD/svg11.dtd">
<svg xmlns="http://www.w3.org/2000/svg" version="1.1" viewBox="0.00 0.00 66.00 88.00">
<g stroke-width="2.00" fill="none" stroke-linecap="butt">
<path stroke="#802436" vector-effect="non-scaling-stroke" d="
  M 33.42 86.69
  Q 33.53 86.69 33.62 86.67
  Q 33.71 86.65 33.79 86.57
  C 50.07 71.54 74.85 40.05 59.54 16.76
  Q 50.58 3.13 33.75 2.47
  Q 33.63 2.47 33.51 2.47
  Q 33.39 2.47 33.27 2.47
  Q 16.44 3.09 7.45 16.70
  C -7.91 39.96 16.80 71.50 33.05 86.57
  Q 33.13 86.65 33.22 86.67
  Q 33.31 86.69 33.42 86.69"
/>
<path stroke="#d4989d" vector-effect="non-scaling-stroke" d="
  M 33.00 43.45
  C 37.65 43.45 40.65 40.88 44.24 38.42
  A 1.07 1.06 -49.3 0 1 45.30 38.33
  Q 46.50 38.88 46.26 40.38
  A 0.35 0.35 0.0 0 0 46.90 40.63
  C 48.58 38.05 47.26 36.61 44.67 36.21
  A 1.16 1.13 78.4 0 1 43.86 35.66
  Q 40.70 30.43 34.66 29.59
  A 0.69 0.68 9.3 0 1 34.08 28.79
  L 35.63 20.39
  A 1.12 0.89 55.2 0 0 35.65 20.10
  Q 35.35 15.81 33.00 15.81
  Q 30.65 15.81 30.34 20.10
  A 1.12 0.89 -55.2 0 0 30.36 20.39
  L 31.91 28.79
  A 0.69 0.68 -9.3 0 1 31.33 29.59
  Q 25.29 30.43 22.13 35.66
  A 1.16 1.13 -78.4 0 1 21.32 36.21
  C 18.73 36.61 17.41 38.05 19.09 40.63
  A 0.35 0.35 0.0 0 0 19.73 40.38
  Q 19.49 38.88 20.69 38.33
  A 1.07 1.06 49.3 0 1 21.75 38.42
  C 25.35 40.88 28.35 43.45 33.00 43.45"
/>
<path stroke="#d4989d" vector-effect="non-scaling-stroke" d="
  M 22.06 42.88
  L 22.06 48.95
  A 0.35 0.35 0.0 0 0 22.58 49.25
  L 27.79 46.24
  A 0.58 0.58 0.0 0 0 27.79 45.23
  L 22.89 42.40
  A 0.55 0.55 0.0 0 0 22.06 42.88"
/>
<path stroke="#d4989d" vector-effect="non-scaling-stroke" d="
  M 44.01 43.00
  A 0.54 0.54 0.0 0 0 43.20 42.52
  L 38.36 45.23
  A 0.57 0.57 0.0 0 0 38.34 46.22
  L 43.41 49.24
  A 0.34 0.34 0.0 0 0 43.93 48.95
  L 44.01 43.00"
/>
<path stroke="#d4989d" vector-effect="non-scaling-stroke" d="
  M 36.20 46.98
  A 0.53 0.53 0.0 0 0 35.76 46.18
  L 30.37 46.13
  A 0.56 0.55 -14.6 0 0 29.88 46.96
  L 32.69 51.94
  A 0.33 0.33 0.0 0 0 33.26 51.95
  L 36.20 46.98"
/>
<path stroke="#d4989d" vector-effect="non-scaling-stroke" d="
  M 37.78 36.31
  A 4.79 4.79 0.0 0 0 32.99 31.52
  A 4.79 4.79 0.0 0 0 28.20 36.31
  A 4.79 4.79 0.0 0 0 32.99 41.10
  A 4.79 4.79 0.0 0 0 37.78 36.31"
/>
<path stroke="#d4989d" vector-effect="non-scaling-stroke" d="
  M 26.65 32.95
  L 23.51 36.09
  A 0.76 0.76 0.0 0 0 23.67 37.28
  L 26.81 39.09
  A 0.17 0.17 0.0 0 0 27.05 38.86
  Q 25.82 36.49 27.15 33.28
  A 0.31 0.30 -11.4 0 0 26.65 32.95"
/>
<path stroke="#d4989d" vector-effect="non-scaling-stroke" d="
  M 39.35 32.93
  A 0.31 0.31 0.0 0 0 38.84 33.26
  Q 40.16 36.50 38.91 38.88
  A 0.18 0.17 88.9 0 0 39.15 39.12
  L 42.33 37.31
  A 0.76 0.76 0.0 0 0 42.50 36.11
  L 39.35 32.93"
/>
</g>
<path fill="#581723" d="
  M 33.82 88.00
  L 33.04 88.00
  C 17.16 73.56 -4.59 46.38 3.05 23.10
  C 7.16 10.55 18.59 2.18 31.72 1.38
  C 44.43 0.60 57.07 7.82 62.48 19.42
  Q 65.79 26.51 65.42 34.46
  Q 65.05 42.32 62.12 49.56
  C 56.19 64.24 45.43 77.38 33.82 88.00
  Z
  M 33.42 86.69
  Q 33.53 86.69 33.62 86.67
  Q 33.71 86.65 33.79 86.57
  C 50.07 71.54 74.85 40.05 59.54 16.76
  Q 50.58 3.13 33.75 2.47
  Q 33.63 2.47 33.51 2.47
  Q 33.39 2.47 33.27 2.47
  Q 16.44 3.09 7.45 16.70
  C -7.91 39.96 16.80 71.50 33.05 86.57
  Q 33.13 86.65 33.22 86.67
  Q 33.31 86.69 33.42 86.69
  Z"
/>
<path fill="#a83148" d="
  M 33.51 2.47
  Q 33.63 2.47 33.75 2.47
  Q 50.58 3.13 59.54 16.76
  C 74.85 40.05 50.07 71.54 33.79 86.57
  Q 33.71 86.65 33.62 86.67
  Q 33.53 86.69 33.42 86.69
  Q 33.31 86.69 33.22 86.67
  Q 33.13 86.65 33.05 86.57
  C 16.80 71.50 -7.91 39.96 7.45 16.70
  Q 16.44 3.09 33.27 2.47
  Q 33.39 2.47 33.51 2.47
  Z
  M 33.00 43.45
  C 37.65 43.45 40.65 40.88 44.24 38.42
  A 1.07 1.06 -49.3 0 1 45.30 38.33
  Q 46.50 38.88 46.26 40.38
  A 0.35 0.35 0.0 0 0 46.90 40.63
  C 48.58 38.05 47.26 36.61 44.67 36.21
  A 1.16 1.13 78.4 0 1 43.86 35.66
  Q 40.70 30.43 34.66 29.59
  A 0.69 0.68 9.3 0 1 34.08 28.79
  L 35.63 20.39
  A 1.12 0.89 55.2 0 0 35.65 20.10
  Q 35.35 15.81 33.00 15.81
  Q 30.65 15.81 30.34 20.10
  A 1.12 0.89 -55.2 0 0 30.36 20.39
  L 31.91 28.79
  A 0.69 0.68 -9.3 0 1 31.33 29.59
  Q 25.29 30.43 22.13 35.66
  A 1.16 1.13 -78.4 0 1 21.32 36.21
  C 18.73 36.61 17.41 38.05 19.09 40.63
  A 0.35 0.35 0.0 0 0 19.73 40.38
  Q 19.49 38.88 20.69 38.33
  A 1.07 1.06 49.3 0 1 21.75 38.42
  C 25.35 40.88 28.35 43.45 33.00 43.45
  Z
  M 22.06 42.88
  L 22.06 48.95
  A 0.35 0.35 0.0 0 0 22.58 49.25
  L 27.79 46.24
  A 0.58 0.58 0.0 0 0 27.79 45.23
  L 22.89 42.40
  A 0.55 0.55 0.0 0 0 22.06 42.88
  Z
  M 44.01 43.00
  A 0.54 0.54 0.0 0 0 43.20 42.52
  L 38.36 45.23
  A 0.57 0.57 0.0 0 0 38.34 46.22
  L 43.41 49.24
  A 0.34 0.34 0.0 0 0 43.93 48.95
  L 44.01 43.00
  Z
  M 36.20 46.98
  A 0.53 0.53 0.0 0 0 35.76 46.18
  L 30.37 46.13
  A 0.56 0.55 -14.6 0 0 29.88 46.96
  L 32.69 51.94
  A 0.33 0.33 0.0 0 0 33.26 51.95
  L 36.20 46.98
  Z"
/>
<path fill="#fffef2" d="
  M 33.00 15.81
  Q 35.35 15.81 35.65 20.10
  A 1.12 0.89 55.2 0 1 35.63 20.39
  L 34.08 28.79
  A 0.69 0.68 9.3 0 0 34.66 29.59
  Q 40.70 30.43 43.86 35.66
  A 1.16 1.13 78.4 0 0 44.67 36.21
  C 47.26 36.61 48.58 38.05 46.90 40.63
  A 0.35 0.35 0.0 0 1 46.26 40.38
  Q 46.50 38.88 45.30 38.33
  A 1.07 1.06 -49.3 0 0 44.24 38.42
  C 40.65 40.88 37.65 43.45 33.00 43.45
  C 28.35 43.45 25.35 40.88 21.75 38.42
  A 1.07 1.06 49.3 0 0 20.69 38.33
  Q 19.49 38.88 19.73 40.38
  A 0.35 0.35 0.0 0 1 19.09 40.63
  C 17.41 38.05 18.73 36.61 21.32 36.21
  A 1.16 1.13 -78.4 0 0 22.13 35.66
  Q 25.29 30.43 31.33 29.59
  A 0.69 0.68 -9.3 0 0 31.91 28.79
  L 30.36 20.39
  A 1.12 0.89 -55.2 0 1 30.34 20.10
  Q 30.65 15.81 33.00 15.81
  Z
  M 37.78 36.31
  A 4.79 4.79 0.0 0 0 32.99 31.52
  A 4.79 4.79 0.0 0 0 28.20 36.31
  A 4.79 4.79 0.0 0 0 32.99 41.10
  A 4.79 4.79 0.0 0 0 37.78 36.31
  Z
  M 26.65 32.95
  L 23.51 36.09
  A 0.76 0.76 0.0 0 0 23.67 37.28
  L 26.81 39.09
  A 0.17 0.17 0.0 0 0 27.05 38.86
  Q 25.82 36.49 27.15 33.28
  A 0.31 0.30 -11.4 0 0 26.65 32.95
  Z
  M 39.35 32.93
  A 0.31 0.31 0.0 0 0 38.84 33.26
  Q 40.16 36.50 38.91 38.88
  A 0.18 0.17 88.9 0 0 39.15 39.12
  L 42.33 37.31
  A 0.76 0.76 0.0 0 0 42.50 36.11
  L 39.35 32.93
  Z"
/>
<circle fill="#a83148" cx="32.99" cy="36.31" r="4.79"/>
<path fill="#a83148" d="
  M 27.15 33.28
  Q 25.82 36.49 27.05 38.86
  A 0.17 0.17 0.0 0 1 26.81 39.09
  L 23.67 37.28
  A 0.76 0.76 0.0 0 1 23.51 36.09
  L 26.65 32.95
  A 0.31 0.30 -11.4 0 1 27.15 33.28
  Z"
/>
<path fill="#a83148" d="
  M 39.35 32.93
  L 42.50 36.11
  A 0.76 0.76 0.0 0 1 42.33 37.31
  L 39.15 39.12
  A 0.18 0.17 88.9 0 1 38.91 38.88
  Q 40.16 36.50 38.84 33.26
  A 0.31 0.31 0.0 0 1 39.35 32.93
  Z"
/>
<path fill="#fffef2" d="
  M 22.89 42.40
  L 27.79 45.23
  A 0.58 0.58 0.0 0 1 27.79 46.24
  L 22.58 49.25
  A 0.35 0.35 0.0 0 1 22.06 48.95
  L 22.06 42.88
  A 0.55 0.55 0.0 0 1 22.89 42.40
  Z"
/>
<path fill="#fffef2" d="
  M 44.01 43.00
  L 43.93 48.95
  A 0.34 0.34 0.0 0 1 43.41 49.24
  L 38.34 46.22
  A 0.57 0.57 0.0 0 1 38.36 45.23
  L 43.20 42.52
  A 0.54 0.54 0.0 0 1 44.01 43.00
  Z"
/>
<path fill="#fffef2" d="
  M 36.20 46.98
  L 33.26 51.95
  A 0.33 0.33 0.0 0 1 32.69 51.94
  L 29.88 46.96
  A 0.56 0.55 -14.6 0 1 30.37 46.13
  L 35.76 46.18
  A 0.53 0.53 0.0 0 1 36.20 46.98
  Z"
/>
</svg>
