<?xml version="1.0" encoding="UTF-8" standalone="no"?>
<!DOCTYPE svg PUBLIC "-//W3C//DTD SVG 1.1//EN" "http://www.w3.org/Graphics/SVG/1.1/DTD/svg11.dtd">
<svg xmlns="http://www.w3.org/2000/svg" version="1.1" viewBox="0.00 0.00 66.00 88.00">
<g stroke-width="2.00" fill="none" stroke-linecap="butt">
<path stroke="#802436" vector-effect="non-scaling-stroke" d="
  M 33.42 86.69
  Q 33.52 86.69 33.62 86.67
  Q 33.68 86.66 33.78 86.57
  C 47.35 73.73 62.76 54.94 64.18 35.56
  C 65.20 21.75 57.59 9.80 44.88 4.70
  Q 39.34 2.47 33.51 2.46
  Q 27.68 2.46 22.13 4.67
  C 9.41 9.75 1.78 21.68 2.77 35.49
  C 4.15 54.88 19.52 73.70 33.06 86.57
  Q 33.16 86.66 33.22 86.67
  Q 33.31 86.69 33.42 86.69"
/>
<path stroke="#d4969b" vector-effect="non-scaling-stroke" d="
  M 32.75 28.24
  Q 33.67 28.24 35.23 28.97
  A 1.15 1.13 9.2 0 1 35.87 29.85
  L 35.98 30.81
  A 0.41 0.41 0.0 0 0 36.67 31.05
  L 37.78 29.93
  A 1.00 1.00 0.0 0 1 38.77 29.68
  C 40.60 30.23 43.16 30.59 42.97 33.01
  A 0.76 0.75 11.7 0 0 43.49 33.79
  L 44.85 34.22
  A 0.47 0.47 0.0 0 0 45.46 33.76
  L 45.40 29.79
  A 2.94 2.87 33.6 0 0 45.17 28.71
  L 43.03 23.73
  A 0.58 0.57 -23.4 0 1 43.33 22.98
  L 46.40 21.66
  A 0.30 0.30 0.0 0 0 46.25 21.09
  L 43.39 21.43
  A 0.68 0.68 0.0 0 1 42.64 20.63
  Q 42.82 19.71 43.72 18.75
  A 0.32 0.32 0.0 0 0 43.36 18.23
  L 40.62 19.41
  A 0.58 0.58 0.0 0 1 39.82 18.95
  L 39.53 16.53
  A 0.37 0.36 -34.8 0 0 38.84 16.41
  L 37.68 18.60
  A 1.20 1.19 13.3 0 1 36.63 19.25
  Q 35.90 19.25 32.75 19.25
  Q 29.60 19.25 28.87 19.25
  A 1.20 1.19 -13.4 0 1 27.82 18.60
  L 26.66 16.41
  A 0.37 0.36 34.8 0 0 25.97 16.53
  L 25.68 18.95
  A 0.58 0.58 0.0 0 1 24.88 19.41
  L 22.14 18.23
  A 0.32 0.32 0.0 0 0 21.78 18.75
  Q 22.68 19.71 22.86 20.63
  A 0.68 0.68 0.0 0 1 22.11 21.43
  L 19.25 21.10
  A 0.30 0.30 0.0 0 0 19.10 21.67
  L 22.17 22.98
  A 0.58 0.57 23.4 0 1 22.47 23.73
  L 20.33 28.72
  A 2.94 2.87 -33.6 0 0 20.10 29.80
  L 20.05 33.77
  A 0.47 0.47 0.0 0 0 20.66 34.23
  L 22.02 33.79
  A 0.76 0.75 -11.8 0 0 22.54 33.01
  C 22.34 30.59 24.90 30.23 26.73 29.68
  A 1.00 1.00 0.0 0 1 27.72 29.93
  L 28.83 31.05
  A 0.41 0.41 0.0 0 0 29.52 30.81
  L 29.63 29.85
  A 1.15 1.13 -9.3 0 1 30.27 28.97
  Q 31.83 28.24 32.75 28.24"
/>
<path stroke="#d4969b" vector-effect="non-scaling-stroke" d="
  M 32.74 52.24
  Q 35.78 52.24 36.22 52.17
  A 0.60 0.59 82.4 0 0 36.72 51.51
  L 36.13 46.62
  A 0.23 0.23 0.0 0 1 36.55 46.47
  L 40.02 51.63
  A 1.25 1.25 0.0 0 0 40.80 52.17
  Q 45.40 53.16 46.81 48.87
  A 0.87 0.87 0.0 0 0 46.58 47.97
  Q 43.12 44.73 42.47 44.10
  A 0.33 0.33 0.0 0 1 42.80 43.55
  L 48.37 45.34
  A 0.74 0.72 27.2 0 0 49.18 45.09
  Q 50.51 43.37 50.70 42.08
  A 2.98 2.97 11.0 0 0 48.45 38.75
  Q 45.87 38.13 40.69 37.10
  A 0.92 0.91 2.3 0 1 39.96 36.32
  L 39.67 33.92
  A 0.44 0.44 0.0 0 0 38.93 33.66
  L 36.69 35.91
  A 1.03 1.03 0.0 0 1 35.84 36.19
  Q 34.45 36.00 32.74 36.00
  Q 31.03 36.00 29.64 36.20
  A 1.03 1.03 0.0 0 1 28.79 35.91
  L 26.54 33.66
  A 0.44 0.44 0.0 0 0 25.80 33.93
  L 25.52 36.33
  A 0.92 0.91 -2.3 0 1 24.79 37.11
  Q 19.61 38.14 17.03 38.76
  A 2.98 2.97 -11.1 0 0 14.78 42.09
  Q 14.97 43.38 16.30 45.10
  A 0.74 0.72 -27.2 0 0 17.11 45.35
  L 22.68 43.56
  A 0.33 0.33 0.0 0 1 23.01 44.11
  Q 22.36 44.74 18.90 47.98
  A 0.87 0.87 0.0 0 0 18.68 48.88
  Q 20.09 53.17 24.69 52.18
  A 1.25 1.25 0.0 0 0 25.47 51.64
  L 28.93 46.47
  A 0.23 0.23 0.0 0 1 29.35 46.62
  L 28.77 51.51
  A 0.60 0.59 -82.5 0 0 29.27 52.18
  Q 29.71 52.24 32.74 52.24"
/>
</g>
<path fill="#581723" d="
  M 33.79 88.00
  L 33.14 88.00
  Q 16.68 73.40 6.79 53.99
  Q 2.29 45.15 1.63 35.63
  Q 0.92 25.64 5.42 17.67
  C 15.91 -0.90 42.23 -4.70 57.20 11.70
  C 69.75 25.45 66.42 43.75 57.55 58.85
  Q 47.98 75.16 33.79 88.00
  Z
  M 33.42 86.69
  Q 33.52 86.69 33.62 86.67
  Q 33.68 86.66 33.78 86.57
  C 47.35 73.73 62.76 54.94 64.18 35.56
  C 65.20 21.75 57.59 9.80 44.88 4.70
  Q 39.34 2.47 33.51 2.46
  Q 27.68 2.46 22.13 4.67
  C 9.41 9.75 1.78 21.68 2.77 35.49
  C 4.15 54.88 19.52 73.70 33.06 86.57
  Q 33.16 86.66 33.22 86.67
  Q 33.31 86.69 33.42 86.69
  Z"
/>
<path fill="#a83148" d="
  M 33.51 2.46
  Q 39.34 2.47 44.88 4.70
  C 57.59 9.80 65.20 21.75 64.18 35.56
  C 62.76 54.94 47.35 73.73 33.78 86.57
  Q 33.68 86.66 33.62 86.67
  Q 33.52 86.69 33.42 86.69
  Q 33.31 86.69 33.22 86.67
  Q 33.16 86.66 33.06 86.57
  C 19.52 73.70 4.15 54.88 2.77 35.49
  C 1.78 21.68 9.41 9.75 22.13 4.67
  Q 27.68 2.46 33.51 2.46
  Z
  M 32.75 28.24
  Q 33.67 28.24 35.23 28.97
  A 1.15 1.13 9.2 0 1 35.87 29.85
  L 35.98 30.81
  A 0.41 0.41 0.0 0 0 36.67 31.05
  L 37.78 29.93
  A 1.00 1.00 0.0 0 1 38.77 29.68
  C 40.60 30.23 43.16 30.59 42.97 33.01
  A 0.76 0.75 11.7 0 0 43.49 33.79
  L 44.85 34.22
  A 0.47 0.47 0.0 0 0 45.46 33.76
  L 45.40 29.79
  A 2.94 2.87 33.6 0 0 45.17 28.71
  L 43.03 23.73
  A 0.58 0.57 -23.4 0 1 43.33 22.98
  L 46.40 21.66
  A 0.30 0.30 0.0 0 0 46.25 21.09
  L 43.39 21.43
  A 0.68 0.68 0.0 0 1 42.64 20.63
  Q 42.82 19.71 43.72 18.75
  A 0.32 0.32 0.0 0 0 43.36 18.23
  L 40.62 19.41
  A 0.58 0.58 0.0 0 1 39.82 18.95
  L 39.53 16.53
  A 0.37 0.36 -34.8 0 0 38.84 16.41
  L 37.68 18.60
  A 1.20 1.19 13.3 0 1 36.63 19.25
  Q 35.90 19.25 32.75 19.25
  Q 29.60 19.25 28.87 19.25
  A 1.20 1.19 -13.4 0 1 27.82 18.60
  L 26.66 16.41
  A 0.37 0.36 34.8 0 0 25.97 16.53
  L 25.68 18.95
  A 0.58 0.58 0.0 0 1 24.88 19.41
  L 22.14 18.23
  A 0.32 0.32 0.0 0 0 21.78 18.75
  Q 22.68 19.71 22.86 20.63
  A 0.68 0.68 0.0 0 1 22.11 21.43
  L 19.25 21.10
  A 0.30 0.30 0.0 0 0 19.10 21.67
  L 22.17 22.98
  A 0.58 0.57 23.4 0 1 22.47 23.73
  L 20.33 28.72
  A 2.94 2.87 -33.6 0 0 20.10 29.80
  L 20.05 33.77
  A 0.47 0.47 0.0 0 0 20.66 34.23
  L 22.02 33.79
  A 0.76 0.75 -11.8 0 0 22.54 33.01
  C 22.34 30.59 24.90 30.23 26.73 29.68
  A 1.00 1.00 0.0 0 1 27.72 29.93
  L 28.83 31.05
  A 0.41 0.41 0.0 0 0 29.52 30.81
  L 29.63 29.85
  A 1.15 1.13 -9.3 0 1 30.27 28.97
  Q 31.83 28.24 32.75 28.24
  Z
  M 32.74 52.24
  Q 35.78 52.24 36.22 52.17
  A 0.60 0.59 82.4 0 0 36.72 51.51
  L 36.13 46.62
  A 0.23 0.23 0.0 0 1 36.55 46.47
  L 40.02 51.63
  A 1.25 1.25 0.0 0 0 40.80 52.17
  Q 45.40 53.16 46.81 48.87
  A 0.87 0.87 0.0 0 0 46.58 47.97
  Q 43.12 44.73 42.47 44.10
  A 0.33 0.33 0.0 0 1 42.80 43.55
  L 48.37 45.34
  A 0.74 0.72 27.2 0 0 49.18 45.09
  Q 50.51 43.37 50.70 42.08
  A 2.98 2.97 11.0 0 0 48.45 38.75
  Q 45.87 38.13 40.69 37.10
  A 0.92 0.91 2.3 0 1 39.96 36.32
  L 39.67 33.92
  A 0.44 0.44 0.0 0 0 38.93 33.66
  L 36.69 35.91
  A 1.03 1.03 0.0 0 1 35.84 36.19
  Q 34.45 36.00 32.74 36.00
  Q 31.03 36.00 29.64 36.20
  A 1.03 1.03 0.0 0 1 28.79 35.91
  L 26.54 33.66
  A 0.44 0.44 0.0 0 0 25.80 33.93
  L 25.52 36.33
  A 0.92 0.91 -2.3 0 1 24.79 37.11
  Q 19.61 38.14 17.03 38.76
  A 2.98 2.97 -11.1 0 0 14.78 42.09
  Q 14.97 43.38 16.30 45.10
  A 0.74 0.72 -27.2 0 0 17.11 45.35
  L 22.68 43.56
  A 0.33 0.33 0.0 0 1 23.01 44.11
  Q 22.36 44.74 18.90 47.98
  A 0.87 0.87 0.0 0 0 18.68 48.88
  Q 20.09 53.17 24.69 52.18
  A 1.25 1.25 0.0 0 0 25.47 51.64
  L 28.93 46.47
  A 0.23 0.23 0.0 0 1 29.35 46.62
  L 28.77 51.51
  A 0.60 0.59 -82.5 0 0 29.27 52.18
  Q 29.71 52.24 32.74 52.24
  Z"
/>
<path fill="#fffaee" d="
  M 32.75 19.25
  Q 35.90 19.25 36.63 19.25
  A 1.20 1.19 13.3 0 0 37.68 18.60
  L 38.84 16.41
  A 0.37 0.36 -34.8 0 1 39.53 16.53
  L 39.82 18.95
  A 0.58 0.58 0.0 0 0 40.62 19.41
  L 43.36 18.23
  A 0.32 0.32 0.0 0 1 43.72 18.75
  Q 42.82 19.71 42.64 20.63
  A 0.68 0.68 0.0 0 0 43.39 21.43
  L 46.25 21.09
  A 0.30 0.30 0.0 0 1 46.40 21.66
  L 43.33 22.98
  A 0.58 0.57 -23.4 0 0 43.03 23.73
  L 45.17 28.71
  A 2.94 2.87 33.6 0 1 45.40 29.79
  L 45.46 33.76
  A 0.47 0.47 0.0 0 1 44.85 34.22
  L 43.49 33.79
  A 0.76 0.75 11.7 0 1 42.97 33.01
  C 43.16 30.59 40.60 30.23 38.77 29.68
  A 1.00 1.00 0.0 0 0 37.78 29.93
  L 36.67 31.05
  A 0.41 0.41 0.0 0 1 35.98 30.81
  L 35.87 29.85
  A 1.15 1.13 9.2 0 0 35.23 28.97
  Q 33.67 28.24 32.75 28.24
  Q 31.83 28.24 30.27 28.97
  A 1.15 1.13 -9.3 0 0 29.63 29.85
  L 29.52 30.81
  A 0.41 0.41 0.0 0 1 28.83 31.05
  L 27.72 29.93
  A 1.00 1.00 0.0 0 0 26.73 29.68
  C 24.90 30.23 22.34 30.59 22.54 33.01
  A 0.76 0.75 -11.8 0 1 22.02 33.79
  L 20.66 34.23
  A 0.47 0.47 0.0 0 1 20.05 33.77
  L 20.10 29.80
  A 2.94 2.87 -33.6 0 1 20.33 28.72
  L 22.47 23.73
  A 0.58 0.57 23.4 0 0 22.17 22.98
  L 19.10 21.67
  A 0.30 0.30 0.0 0 1 19.25 21.10
  L 22.11 21.43
  A 0.68 0.68 0.0 0 0 22.86 20.63
  Q 22.68 19.71 21.78 18.75
  A 0.32 0.32 0.0 0 1 22.14 18.23
  L 24.88 19.41
  A 0.58 0.58 0.0 0 0 25.68 18.95
  L 25.97 16.53
  A 0.37 0.36 34.8 0 1 26.66 16.41
  L 27.82 18.60
  A 1.20 1.19 -13.4 0 0 28.87 19.25
  Q 29.60 19.25 32.75 19.25
  Z"
/>
<path fill="#fffaee" d="
  M 32.74 36.00
  Q 34.45 36.00 35.84 36.19
  A 1.03 1.03 0.0 0 0 36.69 35.91
  L 38.93 33.66
  A 0.44 0.44 0.0 0 1 39.67 33.92
  L 39.96 36.32
  A 0.92 0.91 2.3 0 0 40.69 37.10
  Q 45.87 38.13 48.45 38.75
  A 2.98 2.97 11.0 0 1 50.70 42.08
  Q 50.51 43.37 49.18 45.09
  A 0.74 0.72 27.2 0 1 48.37 45.34
  L 42.80 43.55
  A 0.33 0.33 0.0 0 0 42.47 44.10
  Q 43.12 44.73 46.58 47.97
  A 0.87 0.87 0.0 0 1 46.81 48.87
  Q 45.40 53.16 40.80 52.17
  A 1.25 1.25 0.0 0 1 40.02 51.63
  L 36.55 46.47
  A 0.23 0.23 0.0 0 0 36.13 46.62
  L 36.72 51.51
  A 0.60 0.59 82.4 0 1 36.22 52.17
  Q 35.78 52.24 32.74 52.24
  Q 29.71 52.24 29.27 52.18
  A 0.60 0.59 -82.5 0 1 28.77 51.51
  L 29.35 46.62
  A 0.23 0.23 0.0 0 0 28.93 46.47
  L 25.47 51.64
  A 1.25 1.25 0.0 0 1 24.69 52.18
  Q 20.09 53.17 18.68 48.88
  A 0.87 0.87 0.0 0 1 18.90 47.98
  Q 22.36 44.74 23.01 44.11
  A 0.33 0.33 0.0 0 0 22.68 43.56
  L 17.11 45.35
  A 0.74 0.72 -27.2 0 1 16.30 45.10
  Q 14.97 43.38 14.78 42.09
  A 2.98 2.97 -11.1 0 1 17.03 38.76
  Q 19.61 38.14 24.79 37.11
  A 0.92 0.91 -2.3 0 0 25.52 36.33
  L 25.80 33.93
  A 0.44 0.44 0.0 0 1 26.54 33.66
  L 28.79 35.91
  A 1.03 1.03 0.0 0 0 29.64 36.20
  Q 31.03 36.00 32.74 36.00
  Z"
/>
</svg>
