<?xml version="1.0" encoding="UTF-8" standalone="no"?>
<!DOCTYPE svg PUBLIC "-//W3C//DTD SVG 1.1//EN" "http://www.w3.org/Graphics/SVG/1.1/DTD/svg11.dtd">
<svg xmlns="http://www.w3.org/2000/svg" version="1.1" viewBox="0.00 0.00 66.00 88.00">
<g stroke-width="2.00" fill="none" stroke-linecap="butt">
<path stroke="#323231" vector-effect="non-scaling-stroke" d="
  M 33.41 86.57
  C 33.77 86.57 33.65 86.59 33.81 86.44
  Q 48.31 73.15 57.55 56.52
  Q 62.81 47.03 63.97 37.27
  Q 65.82 21.50 54.75 10.98
  C 49.07 5.57 41.55 2.59 33.53 2.58
  C 25.50 2.56 17.98 5.53 12.27 10.92
  Q 1.18 21.41 2.99 37.19
  Q 4.12 46.95 9.36 56.45
  Q 18.55 73.11 33.01 86.44
  C 33.18 86.59 33.05 86.57 33.41 86.57"
/>
<path stroke="#a0a09a" vector-effect="non-scaling-stroke" d="
  M 41.51 24.36
  A 8.59 8.59 0.0 0 0 32.92 15.77
  A 8.59 8.59 0.0 0 0 24.33 24.36
  A 8.59 8.59 0.0 0 0 32.92 32.95
  A 8.59 8.59 0.0 0 0 41.51 24.36"
/>
<path stroke="#a0a09a" vector-effect="non-scaling-stroke" d="
  M 15.95 52.25
  L 49.89 52.25
  A 0.41 0.41 0.0 0 0 50.30 51.84
  L 50.30 50.84
  A 13.85 13.53 90.0 0 0 36.77 36.99
  L 29.07 36.99
  A 13.85 13.53 -90.0 0 0 15.54 50.84
  L 15.54 51.84
  A 0.41 0.41 0.0 0 0 15.95 52.25"
/>
</g>
<path fill="#222321" d="
  M 33.81 88.00
  L 33.03 88.00
  C 21.71 77.71 12.21 65.76 5.68 51.55
  Q 2.12 43.82 1.58 34.90
  C 0.42 15.88 16.12 0.24 35.42 1.38
  C 52.17 2.37 65.73 16.21 65.48 33.05
  Q 65.37 40.25 63.04 47.01
  C 57.69 62.59 45.92 76.94 33.81 88.00
  Z
  M 33.41 86.57
  C 33.77 86.57 33.65 86.59 33.81 86.44
  Q 48.31 73.15 57.55 56.52
  Q 62.81 47.03 63.97 37.27
  Q 65.82 21.50 54.75 10.98
  C 49.07 5.57 41.55 2.59 33.53 2.58
  C 25.50 2.56 17.98 5.53 12.27 10.92
  Q 1.18 21.41 2.99 37.19
  Q 4.12 46.95 9.36 56.45
  Q 18.55 73.11 33.01 86.44
  C 33.18 86.59 33.05 86.57 33.41 86.57
  Z"
/>
<path fill="#414141" d="
  M 33.53 2.58
  C 41.55 2.59 49.07 5.57 54.75 10.98
  Q 65.82 21.50 63.97 37.27
  Q 62.81 47.03 57.55 56.52
  Q 48.31 73.15 33.81 86.44
  C 33.65 86.59 33.77 86.57 33.41 86.57
  C 33.05 86.57 33.18 86.59 33.01 86.44
  Q 18.55 73.11 9.36 56.45
  Q 4.12 46.95 2.99 37.19
  Q 1.18 21.41 12.27 10.92
  C 17.98 5.53 25.50 2.56 33.53 2.58
  Z
  M 41.51 24.36
  A 8.59 8.59 0.0 0 0 32.92 15.77
  A 8.59 8.59 0.0 0 0 24.33 24.36
  A 8.59 8.59 0.0 0 0 32.92 32.95
  A 8.59 8.59 0.0 0 0 41.51 24.36
  Z
  M 15.95 52.25
  L 49.89 52.25
  A 0.41 0.41 0.0 0 0 50.30 51.84
  L 50.30 50.84
  A 13.85 13.53 90.0 0 0 36.77 36.99
  L 29.07 36.99
  A 13.85 13.53 -90.0 0 0 15.54 50.84
  L 15.54 51.84
  A 0.41 0.41 0.0 0 0 15.95 52.25
  Z"
/>
<circle fill="#fffef2" cx="32.92" cy="24.36" r="8.59"/>
<path fill="#fffef2" d="
  M 15.95 52.25
  A 0.41 0.41 0.0 0 1 15.54 51.84
  L 15.54 50.84
  A 13.85 13.53 90.0 0 1 29.07 36.99
  L 36.77 36.99
  A 13.85 13.53 90.0 0 1 50.30 50.84
  L 50.30 51.84
  A 0.41 0.41 0.0 0 1 49.89 52.25
  L 15.95 52.25
  Z"
/>
</svg>
