<?xml version="1.0" encoding="UTF-8" standalone="no"?>
<!DOCTYPE svg PUBLIC "-//W3C//DTD SVG 1.1//EN" "http://www.w3.org/Graphics/SVG/1.1/DTD/svg11.dtd">
<svg xmlns="http://www.w3.org/2000/svg" version="1.1" viewBox="0.00 0.00 50.00 50.00">
<g stroke-width="2.00" fill="none" stroke-linecap="butt">
<path stroke="#8fceb6" vector-effect="non-scaling-stroke" d="
  M 21.69 14.97
  Q 22.00 15.06 22.20 14.97
  Q 22.40 14.89 22.47 14.61
  Q 23.05 12.26 22.49 12.11
  Q 21.94 11.95 21.22 14.26
  Q 21.13 14.53 21.25 14.71
  Q 21.38 14.88 21.69 14.97"
/>
<path stroke="#8fceb6" vector-effect="non-scaling-stroke" d="
  M 26.92 12.24
  L 26.92 14.33
  A 0.64 0.64 0.0 0 0 28.15 14.58
  Q 28.58 13.52 27.28 12.10
  A 0.21 0.21 0.0 0 0 26.92 12.24"
/>
<path stroke="#8fceb6" vector-effect="non-scaling-stroke" d="
  M 28.5952 16.0393
  A 4.05 2.45 -84.4 0 0 25.7617 19.8309
  A 4.05 2.45 -84.4 0 0 27.8048 24.1007
  A 4.05 2.45 -84.4 0 0 30.6383 20.3091
  A 4.05 2.45 -84.4 0 0 28.5952 16.0393"
/>
<path stroke="#8fceb6" vector-effect="non-scaling-stroke" d="
  M 20.52 16.46
  Q 16.89 19.77 20.58 23.83
  A 1.46 1.44 50.2 0 0 22.53 24.02
  C 24.58 22.47 23.76 19.00 22.60 16.82
  A 1.34 1.34 0.0 0 0 20.52 16.46"
/>
<path stroke="#8fceb6" vector-effect="non-scaling-stroke" d="
  M 16.82 20.74
  Q 15.99 21.94 16.20 22.80
  A 0.55 0.54 -22.7 0 0 17.02 23.13
  Q 17.66 22.73 17.36 20.86
  A 0.30 0.30 0.0 0 0 16.82 20.74"
/>
<path stroke="#8fceb6" vector-effect="non-scaling-stroke" d="
  M 32.27 20.62
  Q 32.03 21.90 32.30 22.73
  A 0.56 0.56 0.0 0 0 33.36 22.73
  Q 33.59 21.98 32.76 20.54
  A 0.27 0.26 35.5 0 0 32.27 20.62"
/>
<path stroke="#8fceb6" vector-effect="non-scaling-stroke" d="
  M 30.27 30.09
  A 1.40 1.40 0.0 0 0 32.24 30.10
  Q 35.10 27.30 32.84 24.49
  A 0.95 0.95 0.0 0 0 31.42 24.41
  L 28.89 26.94
  A 1.24 1.24 0.0 0 0 28.89 28.70
  L 30.27 30.09"
/>
<path stroke="#8fceb6" vector-effect="non-scaling-stroke" d="
  M 19.30 30.31
  L 20.71 28.91
  A 1.25 1.25 0.0 0 0 20.72 27.13
  L 18.18 24.56
  A 0.96 0.96 0.0 0 0 16.75 24.63
  Q 14.44 27.45 17.31 30.31
  A 1.42 1.42 0.0 0 0 19.30 30.31"
/>
<path stroke="#8fceb6" vector-effect="non-scaling-stroke" d="
  M 24.80 38.27
  Q 28.68 38.27 30.55 33.72
  A 0.72 0.71 29.1 0 0 30.30 32.87
  Q 28.36 31.47 25.54 28.94
  Q 25.36 28.78 24.78 28.78
  Q 24.21 28.78 24.03 28.94
  Q 21.22 31.48 19.28 32.89
  A 0.72 0.71 -29.2 0 0 19.04 33.74
  Q 20.92 38.28 24.80 38.27"
/>
</g>
<path fill="#1fa37f" d="
  M 50.00 23.68
  L 50.00 27.23
  Q 46.86 46.80 27.32 50.00
  L 23.76 50.00
  L 18.46 48.89
  A 0.57 0.33 -14.9 0 1 18.35 48.86
  Q 7.14 44.77 3.02 34.75
  C -2.48 21.40 4.46 7.16 18.01 2.34
  C 21.10 1.23 25.30 0.73 29.01 1.40
  Q 43.19 3.96 48.50 17.47
  C 49.21 19.25 49.36 21.63 50.00 23.68
  Z
  M 21.69 14.97
  Q 22.00 15.06 22.20 14.97
  Q 22.40 14.89 22.47 14.61
  Q 23.05 12.26 22.49 12.11
  Q 21.94 11.95 21.22 14.26
  Q 21.13 14.53 21.25 14.71
  Q 21.38 14.88 21.69 14.97
  Z
  M 26.92 12.24
  L 26.92 14.33
  A 0.64 0.64 0.0 0 0 28.15 14.58
  Q 28.58 13.52 27.28 12.10
  A 0.21 0.21 0.0 0 0 26.92 12.24
  Z
  M 28.5952 16.0393
  A 4.05 2.45 -84.4 0 0 25.7617 19.8309
  A 4.05 2.45 -84.4 0 0 27.8048 24.1007
  A 4.05 2.45 -84.4 0 0 30.6383 20.3091
  A 4.05 2.45 -84.4 0 0 28.5952 16.0393
  Z
  M 20.52 16.46
  Q 16.89 19.77 20.58 23.83
  A 1.46 1.44 50.2 0 0 22.53 24.02
  C 24.58 22.47 23.76 19.00 22.60 16.82
  A 1.34 1.34 0.0 0 0 20.52 16.46
  Z
  M 16.82 20.74
  Q 15.99 21.94 16.20 22.80
  A 0.55 0.54 -22.7 0 0 17.02 23.13
  Q 17.66 22.73 17.36 20.86
  A 0.30 0.30 0.0 0 0 16.82 20.74
  Z
  M 32.27 20.62
  Q 32.03 21.90 32.30 22.73
  A 0.56 0.56 0.0 0 0 33.36 22.73
  Q 33.59 21.98 32.76 20.54
  A 0.27 0.26 35.5 0 0 32.27 20.62
  Z
  M 30.27 30.09
  A 1.40 1.40 0.0 0 0 32.24 30.10
  Q 35.10 27.30 32.84 24.49
  A 0.95 0.95 0.0 0 0 31.42 24.41
  L 28.89 26.94
  A 1.24 1.24 0.0 0 0 28.89 28.70
  L 30.27 30.09
  Z
  M 19.30 30.31
  L 20.71 28.91
  A 1.25 1.25 0.0 0 0 20.72 27.13
  L 18.18 24.56
  A 0.96 0.96 0.0 0 0 16.75 24.63
  Q 14.44 27.45 17.31 30.31
  A 1.42 1.42 0.0 0 0 19.30 30.31
  Z
  M 24.80 38.27
  Q 28.68 38.27 30.55 33.72
  A 0.72 0.71 29.1 0 0 30.30 32.87
  Q 28.36 31.47 25.54 28.94
  Q 25.36 28.78 24.78 28.78
  Q 24.21 28.78 24.03 28.94
  Q 21.22 31.48 19.28 32.89
  A 0.72 0.71 -29.2 0 0 19.04 33.74
  Q 20.92 38.28 24.80 38.27
  Z"
/>
<path fill="#fff8ec" d="
  M 22.49 12.11
  Q 23.05 12.26 22.47 14.61
  Q 22.40 14.89 22.20 14.97
  Q 22.00 15.06 21.69 14.97
  Q 21.38 14.88 21.25 14.71
  Q 21.13 14.53 21.22 14.26
  Q 21.94 11.95 22.49 12.11
  Z"
/>
<path fill="#fff8ec" d="
  M 27.28 12.10
  Q 28.58 13.52 28.15 14.58
  A 0.64 0.64 0.0 0 1 26.92 14.33
  L 26.92 12.24
  A 0.21 0.21 0.0 0 1 27.28 12.10
  Z"
/>
<ellipse fill="#fff8ec" cx="0.00" cy="0.00" transform="translate(28.20,20.07) rotate(-84.4)" rx="4.05" ry="2.45"/>
<path fill="#fff8ec" d="
  M 20.52 16.46
  A 1.34 1.34 0.0 0 1 22.60 16.82
  C 23.76 19.00 24.58 22.47 22.53 24.02
  A 1.46 1.44 50.2 0 1 20.58 23.83
  Q 16.89 19.77 20.52 16.46
  Z"
/>
<path fill="#fff8ec" d="
  M 17.36 20.86
  Q 17.66 22.73 17.02 23.13
  A 0.55 0.54 -22.7 0 1 16.20 22.80
  Q 15.99 21.94 16.82 20.74
  A 0.30 0.30 0.0 0 1 17.36 20.86
  Z"
/>
<path fill="#fff8ec" d="
  M 32.76 20.54
  Q 33.59 21.98 33.36 22.73
  A 0.56 0.56 0.0 0 1 32.30 22.73
  Q 32.03 21.90 32.27 20.62
  A 0.27 0.26 35.5 0 1 32.76 20.54
  Z"
/>
<path fill="#fff8ec" d="
  M 28.89 26.94
  L 31.42 24.41
  A 0.95 0.95 0.0 0 1 32.84 24.49
  Q 35.10 27.30 32.24 30.10
  A 1.40 1.40 0.0 0 1 30.27 30.09
  L 28.89 28.70
  A 1.24 1.24 0.0 0 1 28.89 26.94
  Z"
/>
<path fill="#fff8ec" d="
  M 19.30 30.31
  A 1.42 1.42 0.0 0 1 17.31 30.31
  Q 14.44 27.45 16.75 24.63
  A 0.96 0.96 0.0 0 1 18.18 24.56
  L 20.72 27.13
  A 1.25 1.25 0.0 0 1 20.71 28.91
  L 19.30 30.31
  Z"
/>
<path fill="#fff8ec" d="
  M 24.78 28.78
  Q 25.36 28.78 25.54 28.94
  Q 28.36 31.47 30.30 32.87
  A 0.72 0.71 29.1 0 1 30.55 33.72
  Q 28.68 38.27 24.80 38.27
  Q 20.92 38.28 19.04 33.74
  A 0.72 0.71 -29.2 0 1 19.28 32.89
  Q 21.22 31.48 24.03 28.94
  Q 24.21 28.78 24.78 28.78
  Z"
/>
</svg>
