<?xml version="1.0" encoding="UTF-8" standalone="no"?>
<!DOCTYPE svg PUBLIC "-//W3C//DTD SVG 1.1//EN" "http://www.w3.org/Graphics/SVG/1.1/DTD/svg11.dtd">
<svg xmlns="http://www.w3.org/2000/svg" version="1.1" viewBox="0.00 0.00 66.00 88.00">
<g stroke-width="2.00" fill="none" stroke-linecap="butt">
<path stroke="#802436" vector-effect="non-scaling-stroke" d="
  M 33.42 86.69
  Q 33.53 86.69 33.62 86.67
  Q 33.67 86.66 33.77 86.57
  C 45.00 76.17 55.92 62.47 61.43 47.99
  C 66.25 35.30 65.34 21.47 55.53 11.70
  C 49.70 5.88 41.88 2.48 33.51 2.47
  C 25.14 2.46 17.31 5.85 11.47 11.65
  C 1.64 21.40 0.70 35.23 5.49 47.93
  C 10.97 62.42 21.86 76.15 33.07 86.57
  Q 33.17 86.66 33.22 86.67
  Q 33.32 86.69 33.42 86.69"
/>
<path stroke="#d4989d" vector-effect="non-scaling-stroke" d="
  M 35.63 40.75
  C 45.52 38.77 42.39 29.22 39.29 23.05
  A 0.48 0.47 35.3 0 0 38.39 23.20
  Q 37.97 26.61 36.96 28.67
  A 0.61 0.61 0.0 0 1 35.80 28.42
  Q 35.45 21.01 30.31 16.05
  A 0.79 0.79 0.0 0 0 28.97 16.54
  C 28.51 20.99 24.76 25.62 23.46 28.18
  C 20.47 34.10 24.06 39.60 30.33 40.68
  A 0.49 0.48 75.6 0 0 30.79 39.90
  Q 26.53 34.47 31.34 29.45
  A 0.48 0.48 0.0 0 1 32.16 29.77
  C 32.23 33.74 36.43 35.82 35.00 40.03
  A 0.55 0.55 0.0 0 0 35.63 40.75"
/>
<path stroke="#d4989d" vector-effect="non-scaling-stroke" d="
  M 25.53 47.67
  Q 25.53 47.75 21.42 48.99
  A 1.71 1.63 71.7 0 0 20.38 51.18
  C 20.78 52.29 21.60 52.47 22.72 52.16
  Q 27.73 50.76 32.26 49.74
  Q 32.48 49.69 32.72 49.69
  Q 32.95 49.69 33.17 49.74
  Q 37.70 50.76 42.71 52.15
  C 43.83 52.46 44.65 52.28 45.05 51.17
  A 1.71 1.63 -71.8 0 0 44.01 48.98
  Q 39.90 47.74 39.90 47.67
  Q 39.90 47.59 44.01 46.35
  A 1.71 1.63 71.7 0 0 45.05 44.16
  C 44.65 43.05 43.83 42.87 42.71 43.18
  Q 37.70 44.58 33.17 45.60
  Q 32.95 45.65 32.71 45.65
  Q 32.48 45.65 32.26 45.60
  Q 27.73 44.58 22.72 43.19
  C 21.60 42.88 20.78 43.06 20.38 44.17
  A 1.71 1.63 -71.8 0 0 21.42 46.36
  Q 25.53 47.60 25.53 47.67"
/>
</g>
<path fill="#581723" d="
  M 33.79 88.00
  L 33.13 88.00
  Q 16.68 73.40 6.79 53.99
  Q 2.25 45.07 1.62 35.47
  Q 0.97 25.66 5.35 17.82
  C 15.79 -0.88 42.17 -4.76 57.20 11.70
  C 69.79 25.50 66.39 43.88 57.47 59.00
  Q 47.91 75.22 33.79 88.00
  Z
  M 33.42 86.69
  Q 33.53 86.69 33.62 86.67
  Q 33.67 86.66 33.77 86.57
  C 45.00 76.17 55.92 62.47 61.43 47.99
  C 66.25 35.30 65.34 21.47 55.53 11.70
  C 49.70 5.88 41.88 2.48 33.51 2.47
  C 25.14 2.46 17.31 5.85 11.47 11.65
  C 1.64 21.40 0.70 35.23 5.49 47.93
  C 10.97 62.42 21.86 76.15 33.07 86.57
  Q 33.17 86.66 33.22 86.67
  Q 33.32 86.69 33.42 86.69
  Z"
/>
<path fill="#a83148" d="
  M 33.51 2.47
  C 41.88 2.48 49.70 5.88 55.53 11.70
  C 65.34 21.47 66.25 35.30 61.43 47.99
  C 55.92 62.47 45.00 76.17 33.77 86.57
  Q 33.67 86.66 33.62 86.67
  Q 33.53 86.69 33.42 86.69
  Q 33.32 86.69 33.22 86.67
  Q 33.17 86.66 33.07 86.57
  C 21.86 76.15 10.97 62.42 5.49 47.93
  C 0.70 35.23 1.64 21.40 11.47 11.65
  C 17.31 5.85 25.14 2.46 33.51 2.47
  Z
  M 35.63 40.75
  C 45.52 38.77 42.39 29.22 39.29 23.05
  A 0.48 0.47 35.3 0 0 38.39 23.20
  Q 37.97 26.61 36.96 28.67
  A 0.61 0.61 0.0 0 1 35.80 28.42
  Q 35.45 21.01 30.31 16.05
  A 0.79 0.79 0.0 0 0 28.97 16.54
  C 28.51 20.99 24.76 25.62 23.46 28.18
  C 20.47 34.10 24.06 39.60 30.33 40.68
  A 0.49 0.48 75.6 0 0 30.79 39.90
  Q 26.53 34.47 31.34 29.45
  A 0.48 0.48 0.0 0 1 32.16 29.77
  C 32.23 33.74 36.43 35.82 35.00 40.03
  A 0.55 0.55 0.0 0 0 35.63 40.75
  Z
  M 25.53 47.67
  Q 25.53 47.75 21.42 48.99
  A 1.71 1.63 71.7 0 0 20.38 51.18
  C 20.78 52.29 21.60 52.47 22.72 52.16
  Q 27.73 50.76 32.26 49.74
  Q 32.48 49.69 32.72 49.69
  Q 32.95 49.69 33.17 49.74
  Q 37.70 50.76 42.71 52.15
  C 43.83 52.46 44.65 52.28 45.05 51.17
  A 1.71 1.63 -71.8 0 0 44.01 48.98
  Q 39.90 47.74 39.90 47.67
  Q 39.90 47.59 44.01 46.35
  A 1.71 1.63 71.7 0 0 45.05 44.16
  C 44.65 43.05 43.83 42.87 42.71 43.18
  Q 37.70 44.58 33.17 45.60
  Q 32.95 45.65 32.71 45.65
  Q 32.48 45.65 32.26 45.60
  Q 27.73 44.58 22.72 43.19
  C 21.60 42.88 20.78 43.06 20.38 44.17
  A 1.71 1.63 -71.8 0 0 21.42 46.36
  Q 25.53 47.60 25.53 47.67
  Z"
/>
<path fill="#fffef2" d="
  M 35.63 40.75
  A 0.55 0.55 0.0 0 1 35.00 40.03
  C 36.43 35.82 32.23 33.74 32.16 29.77
  A 0.48 0.48 0.0 0 0 31.34 29.45
  Q 26.53 34.47 30.79 39.90
  A 0.49 0.48 75.6 0 1 30.33 40.68
  C 24.06 39.60 20.47 34.10 23.46 28.18
  C 24.76 25.62 28.51 20.99 28.97 16.54
  A 0.79 0.79 0.0 0 1 30.31 16.05
  Q 35.45 21.01 35.80 28.42
  A 0.61 0.61 0.0 0 0 36.96 28.67
  Q 37.97 26.61 38.39 23.20
  A 0.48 0.47 35.3 0 1 39.29 23.05
  C 42.39 29.22 45.52 38.77 35.63 40.75
  Z"
/>
<path fill="#fffef2" d="
  M 32.71 45.65
  Q 32.95 45.65 33.17 45.60
  Q 37.70 44.58 42.71 43.18
  C 43.83 42.87 44.65 43.05 45.05 44.16
  A 1.71 1.63 71.7 0 1 44.01 46.35
  Q 39.90 47.59 39.90 47.67
  Q 39.90 47.74 44.01 48.98
  A 1.71 1.63 -71.8 0 1 45.05 51.17
  C 44.65 52.28 43.83 52.46 42.71 52.15
  Q 37.70 50.76 33.17 49.74
  Q 32.95 49.69 32.72 49.69
  Q 32.48 49.69 32.26 49.74
  Q 27.73 50.76 22.72 52.16
  C 21.60 52.47 20.78 52.29 20.38 51.18
  A 1.71 1.63 71.7 0 1 21.42 48.99
  Q 25.53 47.75 25.53 47.67
  Q 25.53 47.60 21.42 46.36
  A 1.71 1.63 -71.8 0 1 20.38 44.17
  C 20.78 43.06 21.60 42.88 22.72 43.19
  Q 27.73 44.58 32.26 45.60
  Q 32.48 45.65 32.71 45.65
  Z"
/>
</svg>
