<?xml version="1.0" encoding="UTF-8" standalone="no"?>
<!DOCTYPE svg PUBLIC "-//W3C//DTD SVG 1.1//EN" "http://www.w3.org/Graphics/SVG/1.1/DTD/svg11.dtd">
<svg xmlns="http://www.w3.org/2000/svg" version="1.1" viewBox="0.00 0.00 66.00 88.00">
<g stroke-width="2.00" fill="none" stroke-linecap="butt">
<path stroke="#323231" vector-effect="non-scaling-stroke" d="
  M 33.41 86.56
  C 34.07 86.56 33.57 86.61 33.79 86.41
  Q 48.18 73.27 57.57 56.52
  Q 62.39 47.92 63.81 38.51
  Q 66.06 23.58 56.76 13.05
  C 50.76 6.26 42.60 2.63 33.53 2.62
  C 24.47 2.60 16.29 6.21 10.28 12.98
  Q 0.94 23.49 3.15 38.42
  Q 4.54 47.84 9.34 56.45
  Q 18.68 73.23 33.03 86.41
  C 33.25 86.61 32.76 86.56 33.41 86.56"
/>
<path stroke="#a0a09a" vector-effect="non-scaling-stroke" d="
  M 38.32 28.75
  C 40.83 31.25 44.68 32.69 47.09 34.45
  A 0.30 0.30 0.0 0 0 47.57 34.16
  Q 47.02 30.44 44.91 26.96
  A 0.43 0.43 0.0 0 1 45.28 26.31
  Q 50.88 26.38 51.22 20.83
  Q 51.33 18.91 49.72 17.30
  Q 48.10 15.69 46.18 15.82
  Q 40.63 16.18 40.73 21.78
  A 0.43 0.43 0.0 0 1 40.08 22.16
  Q 36.59 20.07 32.87 19.53
  A 0.30 0.30 0.0 0 0 32.58 20.02
  C 34.35 22.41 35.81 26.26 38.32 28.75"
/>
<path stroke="#a0a09a" vector-effect="non-scaling-stroke" d="
  M 19.50 47.47
  Q 23.57 51.52 28.72 51.99
  Q 41.31 53.16 46.65 41.46
  A 1.38 1.38 0.0 0 0 46.54 40.12
  Q 44.71 37.38 42.30 36.26
  Q 37.66 34.11 35.22 31.68
  Q 32.77 29.25 30.60 24.62
  Q 29.48 22.21 26.73 20.40
  A 1.38 1.38 0.0 0 0 25.39 20.29
  Q 13.71 25.68 14.93 38.27
  Q 15.43 43.42 19.50 47.47"
/>
<path stroke="#a0a09a" vector-effect="non-scaling-stroke" d="
  M 48.14 21.02
  A 2.17 2.17 0.0 0 0 45.97 18.85
  A 2.17 2.17 0.0 0 0 43.80 21.02
  A 2.17 2.17 0.0 0 0 45.97 23.19
  A 2.17 2.17 0.0 0 0 48.14 21.02"
/>
</g>
<path fill="#222321" d="
  M 33.83 88.00
  L 33.03 88.00
  C 21.76 77.75 12.10 65.66 5.64 51.56
  Q 2.20 44.06 1.60 34.89
  C 0.54 18.96 11.24 5.64 26.54 2.09
  C 37.40 -0.43 49.10 3.17 56.86 11.32
  Q 67.51 22.50 64.95 39.49
  Q 64.19 44.54 61.49 51.02
  C 55.82 64.64 44.99 77.72 33.83 88.00
  Z
  M 33.41 86.56
  C 34.07 86.56 33.57 86.61 33.79 86.41
  Q 48.18 73.27 57.57 56.52
  Q 62.39 47.92 63.81 38.51
  Q 66.06 23.58 56.76 13.05
  C 50.76 6.26 42.60 2.63 33.53 2.62
  C 24.47 2.60 16.29 6.21 10.28 12.98
  Q 0.94 23.49 3.15 38.42
  Q 4.54 47.84 9.34 56.45
  Q 18.68 73.23 33.03 86.41
  C 33.25 86.61 32.76 86.56 33.41 86.56
  Z"
/>
<path fill="#414141" d="
  M 33.41 86.56
  C 32.76 86.56 33.25 86.61 33.03 86.41
  Q 18.68 73.23 9.34 56.45
  Q 4.54 47.84 3.15 38.42
  Q 0.94 23.49 10.28 12.98
  C 16.29 6.21 24.47 2.60 33.53 2.62
  C 42.60 2.63 50.76 6.26 56.76 13.05
  Q 66.06 23.58 63.81 38.51
  Q 62.39 47.92 57.57 56.52
  Q 48.18 73.27 33.79 86.41
  C 33.57 86.61 34.07 86.56 33.41 86.56
  Z
  M 38.32 28.75
  C 40.83 31.25 44.68 32.69 47.09 34.45
  A 0.30 0.30 0.0 0 0 47.57 34.16
  Q 47.02 30.44 44.91 26.96
  A 0.43 0.43 0.0 0 1 45.28 26.31
  Q 50.88 26.38 51.22 20.83
  Q 51.33 18.91 49.72 17.30
  Q 48.10 15.69 46.18 15.82
  Q 40.63 16.18 40.73 21.78
  A 0.43 0.43 0.0 0 1 40.08 22.16
  Q 36.59 20.07 32.87 19.53
  A 0.30 0.30 0.0 0 0 32.58 20.02
  C 34.35 22.41 35.81 26.26 38.32 28.75
  Z
  M 19.50 47.47
  Q 23.57 51.52 28.72 51.99
  Q 41.31 53.16 46.65 41.46
  A 1.38 1.38 0.0 0 0 46.54 40.12
  Q 44.71 37.38 42.30 36.26
  Q 37.66 34.11 35.22 31.68
  Q 32.77 29.25 30.60 24.62
  Q 29.48 22.21 26.73 20.40
  A 1.38 1.38 0.0 0 0 25.39 20.29
  Q 13.71 25.68 14.93 38.27
  Q 15.43 43.42 19.50 47.47
  Z"
/>
<path fill="#fffef2" d="
  M 49.72 17.30
  Q 51.33 18.91 51.22 20.83
  Q 50.88 26.38 45.28 26.31
  A 0.43 0.43 0.0 0 0 44.91 26.96
  Q 47.02 30.44 47.57 34.16
  A 0.30 0.30 0.0 0 1 47.09 34.45
  C 44.68 32.69 40.83 31.25 38.32 28.75
  C 35.81 26.26 34.35 22.41 32.58 20.02
  A 0.30 0.30 0.0 0 1 32.87 19.53
  Q 36.59 20.07 40.08 22.16
  A 0.43 0.43 0.0 0 0 40.73 21.78
  Q 40.63 16.18 46.18 15.82
  Q 48.10 15.69 49.72 17.30
  Z
  M 48.14 21.02
  A 2.17 2.17 0.0 0 0 45.97 18.85
  A 2.17 2.17 0.0 0 0 43.80 21.02
  A 2.17 2.17 0.0 0 0 45.97 23.19
  A 2.17 2.17 0.0 0 0 48.14 21.02
  Z"
/>
<circle fill="#414141" cx="45.97" cy="21.02" r="2.17"/>
<path fill="#fffef2" d="
  M 35.22 31.68
  Q 37.66 34.11 42.30 36.26
  Q 44.71 37.38 46.54 40.12
  A 1.38 1.38 0.0 0 1 46.65 41.46
  Q 41.31 53.16 28.72 51.99
  Q 23.57 51.52 19.50 47.47
  Q 15.43 43.42 14.93 38.27
  Q 13.71 25.68 25.39 20.29
  A 1.38 1.38 0.0 0 1 26.73 20.40
  Q 29.48 22.21 30.60 24.62
  Q 32.77 29.25 35.22 31.68
  Z"
/>
</svg>
