<?xml version="1.0" encoding="UTF-8" standalone="no"?>
<!DOCTYPE svg PUBLIC "-//W3C//DTD SVG 1.1//EN" "http://www.w3.org/Graphics/SVG/1.1/DTD/svg11.dtd">
<svg xmlns="http://www.w3.org/2000/svg" version="1.1" viewBox="0.00 0.00 66.00 88.00">
<g stroke-width="2.00" fill="none" stroke-linecap="butt">
<path stroke="#21303f" vector-effect="non-scaling-stroke" d="
  M 33.41 86.57
  Q 33.55 86.57 33.69 86.53
  A 0.29 0.14 0.3 0 0 33.76 86.50
  Q 47.28 74.06 56.37 58.63
  C 63.95 45.75 68.38 28.75 58.73 15.55
  Q 49.75 3.28 34.26 2.50
  Q 33.89 2.48 33.52 2.48
  Q 33.15 2.48 32.78 2.49
  Q 17.28 3.24 8.27 15.48
  C -1.41 28.66 2.97 45.67 10.52 58.57
  Q 19.57 74.02 33.05 86.50
  A 0.29 0.14 -0.1 0 0 33.13 86.53
  Q 33.26 86.57 33.41 86.57"
/>
<path stroke="#969fa2" vector-effect="non-scaling-stroke" d="
  M 33.00 32.00
  Q 36.15 32.00 36.94 32.07
  A 1.67 1.66 -87.5 0 1 38.46 33.73
  L 38.46 50.36
  A 0.65 0.64 0.0 0 0 39.11 51.00
  L 50.70 51.01
  A 0.64 0.64 0.0 0 0 51.34 50.37
  L 51.34 16.83
  A 0.32 0.32 0.0 0 0 51.02 16.51
  Q 47.30 16.49 33.00 16.49
  Q 18.71 16.48 14.99 16.51
  A 0.32 0.32 0.0 0 0 14.67 16.82
  L 14.66 50.36
  A 0.64 0.64 0.0 0 0 15.30 51.00
  L 26.89 51.00
  A 0.65 0.64 0.0 0 0 27.54 50.36
  L 27.54 33.73
  A 1.67 1.66 87.6 0 1 29.06 32.07
  Q 29.85 32.00 33.00 32.00"
/>
</g>
<path fill="#16212b" d="
  M 33.80 88.00
  L 33.04 88.00
  C 21.80 77.79 12.23 65.79 5.73 51.77
  Q 2.24 44.22 1.60 34.96
  C 0.49 18.92 11.33 5.52 26.74 2.05
  C 41.12 -1.19 55.96 6.02 62.58 19.70
  C 69.06 33.09 63.79 48.90 56.48 60.73
  Q 47.11 75.89 33.80 88.00
  Z
  M 33.41 86.57
  Q 33.55 86.57 33.69 86.53
  A 0.29 0.14 0.3 0 0 33.76 86.50
  Q 47.28 74.06 56.37 58.63
  C 63.95 45.75 68.38 28.75 58.73 15.55
  Q 49.75 3.28 34.26 2.50
  Q 33.89 2.48 33.52 2.48
  Q 33.15 2.48 32.78 2.49
  Q 17.28 3.24 8.27 15.48
  C -1.41 28.66 2.97 45.67 10.52 58.57
  Q 19.57 74.02 33.05 86.50
  A 0.29 0.14 -0.1 0 0 33.13 86.53
  Q 33.26 86.57 33.41 86.57
  Z"
/>
<path fill="#2c3f52" d="
  M 33.52 2.48
  Q 33.89 2.48 34.26 2.50
  Q 49.75 3.28 58.73 15.55
  C 68.38 28.75 63.95 45.75 56.37 58.63
  Q 47.28 74.06 33.76 86.50
  A 0.29 0.14 0.3 0 1 33.69 86.53
  Q 33.55 86.57 33.41 86.57
  Q 33.26 86.57 33.13 86.53
  A 0.29 0.14 -0.1 0 1 33.05 86.50
  Q 19.57 74.02 10.52 58.57
  C 2.97 45.67 -1.41 28.66 8.27 15.48
  Q 17.28 3.24 32.78 2.49
  Q 33.15 2.48 33.52 2.48
  Z
  M 33.00 32.00
  Q 36.15 32.00 36.94 32.07
  A 1.67 1.66 -87.5 0 1 38.46 33.73
  L 38.46 50.36
  A 0.65 0.64 0.0 0 0 39.11 51.00
  L 50.70 51.01
  A 0.64 0.64 0.0 0 0 51.34 50.37
  L 51.34 16.83
  A 0.32 0.32 0.0 0 0 51.02 16.51
  Q 47.30 16.49 33.00 16.49
  Q 18.71 16.48 14.99 16.51
  A 0.32 0.32 0.0 0 0 14.67 16.82
  L 14.66 50.36
  A 0.64 0.64 0.0 0 0 15.30 51.00
  L 26.89 51.00
  A 0.65 0.64 0.0 0 0 27.54 50.36
  L 27.54 33.73
  A 1.67 1.66 87.6 0 1 29.06 32.07
  Q 29.85 32.00 33.00 32.00
  Z"
/>
<path fill="#fffef2" d="
  M 33.00 16.49
  Q 47.30 16.49 51.02 16.51
  A 0.32 0.32 0.0 0 1 51.34 16.83
  L 51.34 50.37
  A 0.64 0.64 0.0 0 1 50.70 51.01
  L 39.11 51.00
  A 0.65 0.64 -0.0 0 1 38.46 50.36
  L 38.46 33.73
  A 1.67 1.66 -87.5 0 0 36.94 32.07
  Q 36.15 32.00 33.00 32.00
  Q 29.85 32.00 29.06 32.07
  A 1.67 1.66 87.6 0 0 27.54 33.73
  L 27.54 50.36
  A 0.65 0.64 0.0 0 1 26.89 51.00
  L 15.30 51.00
  A 0.64 0.64 0.0 0 1 14.66 50.36
  L 14.67 16.82
  A 0.32 0.32 0.0 0 1 14.99 16.51
  Q 18.71 16.48 33.00 16.49
  Z"
/>
</svg>
