<?xml version="1.0" encoding="UTF-8" standalone="no"?>
<!DOCTYPE svg PUBLIC "-//W3C//DTD SVG 1.1//EN" "http://www.w3.org/Graphics/SVG/1.1/DTD/svg11.dtd">
<svg xmlns="http://www.w3.org/2000/svg" version="1.1" viewBox="0.00 0.00 66.00 88.00">
<g stroke-width="2.00" fill="none" stroke-linecap="butt">
<path stroke="#21303f" vector-effect="non-scaling-stroke" d="
  M 33.42 86.58
  Q 33.56 86.58 33.70 86.55
  A 0.14 0.13 16.2 0 0 33.77 86.51
  Q 47.25 74.07 56.37 58.64
  Q 60.94 50.91 62.65 44.17
  Q 69.08 18.74 48.43 6.38
  Q 41.92 2.49 33.50 2.48
  Q 25.07 2.48 18.56 6.36
  Q -2.11 18.68 4.27 44.12
  Q 5.97 50.86 10.53 58.60
  Q 19.62 74.05 33.08 86.51
  A 0.14 0.13 -16.1 0 0 33.15 86.55
  Q 33.29 86.58 33.42 86.58"
/>
<path stroke="#969fa2" vector-effect="non-scaling-stroke" d="
  M 20.74 51.70
  C 18.68 48.55 22.43 44.08 24.86 41.84
  C 28.04 38.92 27.16 36.19 26.61 31.90
  Q 26.42 30.47 27.42 27.21
  A 2.00 1.94 76.4 0 1 27.89 26.41
  C 30.22 23.96 33.07 25.43 35.81 26.53
  A 0.51 0.51 0.0 0 0 36.51 26.07
  C 36.63 21.12 32.65 15.40 27.21 15.85
  C 22.19 16.28 18.59 19.90 16.23 23.96
  Q 13.37 28.89 15.95 34.27
  C 18.10 38.76 15.64 42.91 15.72 46.02
  Q 15.84 50.90 20.42 52.15
  A 0.30 0.29 80.8 0 0 20.74 51.70"
/>
<path stroke="#969fa2" vector-effect="non-scaling-stroke" d="
  M 47.83 17.89
  Q 43.25 19.54 39.72 23.05
  A 1.40 1.40 0.0 0 0 39.31 24.04
  L 39.31 27.84
  A 0.39 0.39 0.0 0 0 39.91 28.17
  Q 42.04 26.76 44.39 26.49
  A 1.56 1.56 0.0 0 0 45.64 25.54
  L 48.47 18.57
  A 0.51 0.51 0.0 0 0 47.83 17.89"
/>
<path stroke="#969fa2" vector-effect="non-scaling-stroke" d="
  M 36.95 32.27
  L 36.95 30.91
  A 0.77 0.75 -74.6 0 0 36.59 30.26
  Q 33.69 28.44 30.65 28.02
  A 0.61 0.60 -78.5 0 0 29.99 28.46
  Q 29.17 31.51 29.90 34.98
  C 30.81 39.36 28.96 42.15 25.73 44.94
  A 0.96 0.96 0.0 0 0 25.99 46.55
  L 28.17 47.43
  A 2.75 2.73 -49.6 0 0 30.67 47.22
  C 33.53 45.43 37.45 41.90 37.79 38.33
  A 0.56 0.56 0.0 0 1 38.37 37.82
  C 41.36 37.92 44.05 32.66 45.33 30.17
  A 0.66 0.65 -89.5 0 0 44.46 29.28
  L 37.54 32.64
  A 0.41 0.41 0.0 0 1 36.95 32.27"
/>
<path stroke="#969fa2" vector-effect="non-scaling-stroke" d="
  M 43.13 40.34
  Q 47.18 40.67 50.82 38.73
  A 0.30 0.29 -37.4 0 0 50.89 38.25
  Q 48.88 36.33 45.92 35.63
  A 0.79 0.78 -67.0 0 0 45.09 35.97
  Q 43.46 38.50 40.58 40.47
  A 1.67 1.66 84.2 0 0 39.98 41.21
  L 39.45 42.52
  A 0.81 0.80 -65.7 0 0 39.83 43.54
  Q 42.36 44.85 46.08 45.34
  A 0.38 0.38 0.0 0 0 46.48 44.83
  Q 45.37 41.83 43.03 40.71
  A 0.20 0.19 60.2 0 1 43.13 40.34"
/>
</g>
<path fill="#16212b" d="
  M 33.81 88.00
  L 33.04 88.00
  C 21.76 77.76 12.10 65.66 5.65 51.56
  C 1.03 41.49 -0.45 28.40 5.12 18.28
  C 14.16 1.83 34.57 -3.70 50.61 6.29
  Q 62.31 13.57 64.90 27.06
  C 69.18 49.30 49.12 74.02 33.81 88.00
  Z
  M 33.42 86.58
  Q 33.56 86.58 33.70 86.55
  A 0.14 0.13 16.2 0 0 33.77 86.51
  Q 47.25 74.07 56.37 58.64
  Q 60.94 50.91 62.65 44.17
  Q 69.08 18.74 48.43 6.38
  Q 41.92 2.49 33.50 2.48
  Q 25.07 2.48 18.56 6.36
  Q -2.11 18.68 4.27 44.12
  Q 5.97 50.86 10.53 58.60
  Q 19.62 74.05 33.08 86.51
  A 0.14 0.13 -16.1 0 0 33.15 86.55
  Q 33.29 86.58 33.42 86.58
  Z"
/>
<path fill="#2c3f52" d="
  M 33.50 2.48
  Q 41.92 2.49 48.43 6.38
  Q 69.08 18.74 62.65 44.17
  Q 60.94 50.91 56.37 58.64
  Q 47.25 74.07 33.77 86.51
  A 0.14 0.13 16.2 0 1 33.70 86.55
  Q 33.56 86.58 33.42 86.58
  Q 33.29 86.58 33.15 86.55
  A 0.14 0.13 -16.1 0 1 33.08 86.51
  Q 19.62 74.05 10.53 58.60
  Q 5.97 50.86 4.27 44.12
  Q -2.11 18.68 18.56 6.36
  Q 25.07 2.48 33.50 2.48
  Z
  M 20.74 51.70
  C 18.68 48.55 22.43 44.08 24.86 41.84
  C 28.04 38.92 27.16 36.19 26.61 31.90
  Q 26.42 30.47 27.42 27.21
  A 2.00 1.94 76.4 0 1 27.89 26.41
  C 30.22 23.96 33.07 25.43 35.81 26.53
  A 0.51 0.51 0.0 0 0 36.51 26.07
  C 36.63 21.12 32.65 15.40 27.21 15.85
  C 22.19 16.28 18.59 19.90 16.23 23.96
  Q 13.37 28.89 15.95 34.27
  C 18.10 38.76 15.64 42.91 15.72 46.02
  Q 15.84 50.90 20.42 52.15
  A 0.30 0.29 80.8 0 0 20.74 51.70
  Z
  M 47.83 17.89
  Q 43.25 19.54 39.72 23.05
  A 1.40 1.40 0.0 0 0 39.31 24.04
  L 39.31 27.84
  A 0.39 0.39 0.0 0 0 39.91 28.17
  Q 42.04 26.76 44.39 26.49
  A 1.56 1.56 0.0 0 0 45.64 25.54
  L 48.47 18.57
  A 0.51 0.51 0.0 0 0 47.83 17.89
  Z
  M 36.95 32.27
  L 36.95 30.91
  A 0.77 0.75 -74.6 0 0 36.59 30.26
  Q 33.69 28.44 30.65 28.02
  A 0.61 0.60 -78.5 0 0 29.99 28.46
  Q 29.17 31.51 29.90 34.98
  C 30.81 39.36 28.96 42.15 25.73 44.94
  A 0.96 0.96 0.0 0 0 25.99 46.55
  L 28.17 47.43
  A 2.75 2.73 -49.6 0 0 30.67 47.22
  C 33.53 45.43 37.45 41.90 37.79 38.33
  A 0.56 0.56 0.0 0 1 38.37 37.82
  C 41.36 37.92 44.05 32.66 45.33 30.17
  A 0.66 0.65 -89.5 0 0 44.46 29.28
  L 37.54 32.64
  A 0.41 0.41 0.0 0 1 36.95 32.27
  Z
  M 43.13 40.34
  Q 47.18 40.67 50.82 38.73
  A 0.30 0.29 -37.4 0 0 50.89 38.25
  Q 48.88 36.33 45.92 35.63
  A 0.79 0.78 -67.0 0 0 45.09 35.97
  Q 43.46 38.50 40.58 40.47
  A 1.67 1.66 84.2 0 0 39.98 41.21
  L 39.45 42.52
  A 0.81 0.80 -65.7 0 0 39.83 43.54
  Q 42.36 44.85 46.08 45.34
  A 0.38 0.38 0.0 0 0 46.48 44.83
  Q 45.37 41.83 43.03 40.71
  A 0.20 0.19 60.2 0 1 43.13 40.34
  Z"
/>
<path fill="#fffef2" d="
  M 20.42 52.15
  Q 15.84 50.90 15.72 46.02
  C 15.64 42.91 18.10 38.76 15.95 34.27
  Q 13.37 28.89 16.23 23.96
  C 18.59 19.90 22.19 16.28 27.21 15.85
  C 32.65 15.40 36.63 21.12 36.51 26.07
  A 0.51 0.51 0.0 0 1 35.81 26.53
  C 33.07 25.43 30.22 23.96 27.89 26.41
  A 2.00 1.94 76.4 0 0 27.42 27.21
  Q 26.42 30.47 26.61 31.90
  C 27.16 36.19 28.04 38.92 24.86 41.84
  C 22.43 44.08 18.68 48.55 20.74 51.70
  A 0.30 0.29 80.8 0 1 20.42 52.15
  Z"
/>
<path fill="#fffef2" d="
  M 47.83 17.89
  A 0.51 0.51 0.0 0 1 48.47 18.57
  L 45.64 25.54
  A 1.56 1.56 0.0 0 1 44.39 26.49
  Q 42.04 26.76 39.91 28.17
  A 0.39 0.39 0.0 0 1 39.31 27.84
  L 39.31 24.04
  A 1.40 1.40 0.0 0 1 39.72 23.05
  Q 43.25 19.54 47.83 17.89
  Z"
/>
<path fill="#fffef2" d="
  M 37.54 32.64
  L 44.46 29.28
  A 0.66 0.65 -89.5 0 1 45.33 30.17
  C 44.05 32.66 41.36 37.92 38.37 37.82
  A 0.56 0.56 0.0 0 0 37.79 38.33
  C 37.45 41.90 33.53 45.43 30.67 47.22
  A 2.75 2.73 -49.6 0 1 28.17 47.43
  L 25.99 46.55
  A 0.96 0.96 0.0 0 1 25.73 44.94
  C 28.96 42.15 30.81 39.36 29.90 34.98
  Q 29.17 31.51 29.99 28.46
  A 0.61 0.60 -78.5 0 1 30.65 28.02
  Q 33.69 28.44 36.59 30.26
  A 0.77 0.75 -74.6 0 1 36.95 30.91
  L 36.95 32.27
  A 0.41 0.41 0.0 0 0 37.54 32.64
  Z"
/>
<path fill="#fffef2" d="
  M 43.03 40.71
  Q 45.37 41.83 46.48 44.83
  A 0.38 0.38 0.0 0 1 46.08 45.34
  Q 42.36 44.85 39.83 43.54
  A 0.81 0.80 -65.7 0 1 39.45 42.52
  L 39.98 41.21
  A 1.67 1.66 84.2 0 1 40.58 40.47
  Q 43.46 38.50 45.09 35.97
  A 0.79 0.78 -67.0 0 1 45.92 35.63
  Q 48.88 36.33 50.89 38.25
  A 0.30 0.29 -37.4 0 1 50.82 38.73
  Q 47.18 40.67 43.13 40.34
  A 0.20 0.19 60.2 0 0 43.03 40.71
  Z"
/>
</svg>
