<?xml version="1.0" encoding="UTF-8" standalone="no"?>
<!DOCTYPE svg PUBLIC "-//W3C//DTD SVG 1.1//EN" "http://www.w3.org/Graphics/SVG/1.1/DTD/svg11.dtd">
<svg xmlns="http://www.w3.org/2000/svg" version="1.1" viewBox="0.00 0.00 50.00 50.00">
<g stroke-width="2.00" fill="none" stroke-linecap="butt">
<path stroke="#a4c2c2" vector-effect="non-scaling-stroke" d="
  M 16.2243 12.0782
  A 4.43 1.77 -132.2 0 0 17.8888 16.5489
  A 4.43 1.77 -132.2 0 0 22.1757 18.6418
  A 4.43 1.77 -132.2 0 0 20.5112 14.1711
  A 4.43 1.77 -132.2 0 0 16.2243 12.0782"
/>
<path stroke="#a4c2c2" vector-effect="non-scaling-stroke" d="
  M 26.7244 15.8827
  A 2.20 1.06 -64.0 0 0 24.8073 17.3953
  A 2.20 1.06 -64.0 0 0 24.7956 19.8373
  A 2.20 1.06 -64.0 0 0 26.7127 18.3247
  A 2.20 1.06 -64.0 0 0 26.7244 15.8827"
/>
<path stroke="#a4c2c2" vector-effect="non-scaling-stroke" d="
  M 24.98 37.70
  Q 25.25 37.70 25.53 37.79
  Q 29.78 39.23 32.60 35.59
  C 35.36 32.01 37.32 27.52 35.48 22.89
  A 2.13 2.08 -81.6 0 0 34.87 22.05
  Q 30.87 18.61 25.75 21.33
  Q 25.66 21.38 24.97 21.38
  Q 24.28 21.38 24.19 21.33
  Q 19.07 18.61 15.07 22.06
  A 2.13 2.08 81.6 0 0 14.46 22.90
  C 12.63 27.53 14.59 32.02 17.35 35.59
  Q 20.17 39.23 24.43 37.79
  Q 24.70 37.70 24.98 37.70"
/>
</g>
<path fill="#498c97" d="
  M 50.00 23.67
  L 50.00 27.25
  Q 46.84 46.79 27.33 50.00
  L 23.75 50.00
  L 18.56 48.91
  A 0.24 0.17 -10.9 0 1 18.49 48.88
  Q 2.72 43.24 1.03 26.24
  C 0.75 23.48 2.01 18.28 3.36 15.44
  C 8.84 3.86 21.83 -1.83 33.86 2.66
  Q 44.57 6.65 48.85 18.31
  A 0.62 0.46 36.7 0 1 48.88 18.41
  L 50.00 23.67
  Z
  M 16.2243 12.0782
  A 4.43 1.77 -132.2 0 0 17.8888 16.5489
  A 4.43 1.77 -132.2 0 0 22.1757 18.6418
  A 4.43 1.77 -132.2 0 0 20.5112 14.1711
  A 4.43 1.77 -132.2 0 0 16.2243 12.0782
  Z
  M 26.7244 15.8827
  A 2.20 1.06 -64.0 0 0 24.8073 17.3953
  A 2.20 1.06 -64.0 0 0 24.7956 19.8373
  A 2.20 1.06 -64.0 0 0 26.7127 18.3247
  A 2.20 1.06 -64.0 0 0 26.7244 15.8827
  Z
  M 24.98 37.70
  Q 25.25 37.70 25.53 37.79
  Q 29.78 39.23 32.60 35.59
  C 35.36 32.01 37.32 27.52 35.48 22.89
  A 2.13 2.08 -81.6 0 0 34.87 22.05
  Q 30.87 18.61 25.75 21.33
  Q 25.66 21.38 24.97 21.38
  Q 24.28 21.38 24.19 21.33
  Q 19.07 18.61 15.07 22.06
  A 2.13 2.08 81.6 0 0 14.46 22.90
  C 12.63 27.53 14.59 32.02 17.35 35.59
  Q 20.17 39.23 24.43 37.79
  Q 24.70 37.70 24.98 37.70
  Z"
/>
<ellipse fill="#fff8ec" cx="0.00" cy="0.00" transform="translate(19.20,15.36) rotate(-132.2)" rx="4.43" ry="1.77"/>
<ellipse fill="#fff8ec" cx="0.00" cy="0.00" transform="translate(25.76,17.86) rotate(-64.0)" rx="2.20" ry="1.06"/>
<path fill="#fff8ec" d="
  M 24.97 21.38
  Q 25.66 21.38 25.75 21.33
  Q 30.87 18.61 34.87 22.05
  A 2.13 2.08 -81.6 0 1 35.48 22.89
  C 37.32 27.52 35.36 32.01 32.60 35.59
  Q 29.78 39.23 25.53 37.79
  Q 25.25 37.70 24.98 37.70
  Q 24.70 37.70 24.43 37.79
  Q 20.17 39.23 17.35 35.59
  C 14.59 32.02 12.63 27.53 14.46 22.90
  A 2.13 2.08 81.6 0 1 15.07 22.06
  Q 19.07 18.61 24.19 21.33
  Q 24.28 21.38 24.97 21.38
  Z"
/>
</svg>
