<?xml version="1.0" encoding="UTF-8" standalone="no"?>
<!DOCTYPE svg PUBLIC "-//W3C//DTD SVG 1.1//EN" "http://www.w3.org/Graphics/SVG/1.1/DTD/svg11.dtd">
<svg xmlns="http://www.w3.org/2000/svg" version="1.1" viewBox="0.00 0.00 50.00 50.00">
<g stroke-width="2.00" fill="none" stroke-linecap="butt">
<path stroke="#8fceb6" vector-effect="non-scaling-stroke" d="
  M 36.09 20.57
  A 0.52 0.52 0.0 0 1 36.16 19.61
  Q 37.00 19.33 37.67 18.12
  Q 38.09 17.38 36.66 16.93
  Q 32.62 15.66 28.91 16.94
  A 2.08 2.06 -49.9 0 1 27.91 17.03
  L 23.79 16.42
  A 1.36 1.33 -60.5 0 0 22.72 16.73
  L 19.62 19.45
  A 0.62 0.61 21.0 0 0 20.10 20.52
  Q 20.49 20.53 21.31 21.00
  A 0.51 0.50 41.1 0 1 21.37 21.84
  Q 20.07 22.85 18.46 25.95
  A 0.83 0.83 0.0 0 1 17.61 26.39
  Q 14.50 25.95 12.70 26.07
  Q 12.00 26.12 11.79 26.72
  Q 11.42 27.78 15.09 28.81
  A 0.71 0.70 12.4 0 1 15.60 29.60
  L 15.12 32.88
  A 0.64 0.64 0.0 0 0 16.13 33.50
  Q 18.19 32.04 19.82 29.33
  A 0.76 0.76 0.0 0 1 21.21 29.56
  L 21.55 31.10
  A 0.91 0.91 0.0 0 0 23.34 31.04
  L 23.55 29.65
  A 0.66 0.65 -2.1 0 1 24.05 29.12
  L 29.55 27.92
  A 0.58 0.58 0.0 0 1 30.24 28.37
  L 30.87 31.23
  A 0.72 0.71 60.5 0 0 32.09 31.57
  Q 34.25 29.27 33.85 26.19
  A 0.86 0.86 0.0 0 1 34.24 25.34
  Q 36.58 23.83 38.15 21.46
  A 0.82 0.82 0.0 0 0 37.07 20.29
  Q 36.34 20.69 36.09 20.57"
/>
<path stroke="#8fceb6" vector-effect="non-scaling-stroke" d="
  M 32.12 20.06
  A 0.98 0.86 29.9 0 0 33.71 19.74
  Q 33.85 19.03 32.81 18.76
  Q 32.21 18.61 31.96 19.16
  Q 31.72 19.67 32.12 20.06"
/>
</g>
<path fill="#1fa37f" d="
  M 50.00 23.68
  L 50.00 27.23
  Q 46.85 46.80 27.32 50.00
  L 23.76 50.00
  L 18.34 48.85
  A 0.45 0.38 -23.2 0 1 18.21 48.81
  Q 7.47 44.84 3.28 35.37
  C -2.69 21.87 4.19 7.34 18.01 2.32
  C 21.00 1.24 25.32 0.73 29.01 1.40
  Q 43.19 3.96 48.50 17.47
  C 49.21 19.25 49.36 21.63 50.00 23.68
  Z
  M 36.09 20.57
  A 0.52 0.52 0.0 0 1 36.16 19.61
  Q 37.00 19.33 37.67 18.12
  Q 38.09 17.38 36.66 16.93
  Q 32.62 15.66 28.91 16.94
  A 2.08 2.06 -49.9 0 1 27.91 17.03
  L 23.79 16.42
  A 1.36 1.33 -60.5 0 0 22.72 16.73
  L 19.62 19.45
  A 0.62 0.61 21.0 0 0 20.10 20.52
  Q 20.49 20.53 21.31 21.00
  A 0.51 0.50 41.1 0 1 21.37 21.84
  Q 20.07 22.85 18.46 25.95
  A 0.83 0.83 0.0 0 1 17.61 26.39
  Q 14.50 25.95 12.70 26.07
  Q 12.00 26.12 11.79 26.72
  Q 11.42 27.78 15.09 28.81
  A 0.71 0.70 12.4 0 1 15.60 29.60
  L 15.12 32.88
  A 0.64 0.64 0.0 0 0 16.13 33.50
  Q 18.19 32.04 19.82 29.33
  A 0.76 0.76 0.0 0 1 21.21 29.56
  L 21.55 31.10
  A 0.91 0.91 0.0 0 0 23.34 31.04
  L 23.55 29.65
  A 0.66 0.65 -2.1 0 1 24.05 29.12
  L 29.55 27.92
  A 0.58 0.58 0.0 0 1 30.24 28.37
  L 30.87 31.23
  A 0.72 0.71 60.5 0 0 32.09 31.57
  Q 34.25 29.27 33.85 26.19
  A 0.86 0.86 0.0 0 1 34.24 25.34
  Q 36.58 23.83 38.15 21.46
  A 0.82 0.82 0.0 0 0 37.07 20.29
  Q 36.34 20.69 36.09 20.57
  Z"
/>
<path fill="#fff8ec" d="
  M 36.09 20.57
  Q 36.34 20.69 37.07 20.29
  A 0.82 0.82 0.0 0 1 38.15 21.46
  Q 36.58 23.83 34.24 25.34
  A 0.86 0.86 0.0 0 0 33.85 26.19
  Q 34.25 29.27 32.09 31.57
  A 0.72 0.71 60.5 0 1 30.87 31.23
  L 30.24 28.37
  A 0.58 0.58 0.0 0 0 29.55 27.92
  L 24.05 29.12
  A 0.66 0.65 -2.1 0 0 23.55 29.65
  L 23.34 31.04
  A 0.91 0.91 0.0 0 1 21.55 31.10
  L 21.21 29.56
  A 0.76 0.76 0.0 0 0 19.82 29.33
  Q 18.19 32.04 16.13 33.50
  A 0.64 0.64 0.0 0 1 15.12 32.88
  L 15.60 29.60
  A 0.71 0.70 12.4 0 0 15.09 28.81
  Q 11.42 27.78 11.79 26.72
  Q 12.00 26.12 12.70 26.07
  Q 14.50 25.95 17.61 26.39
  A 0.83 0.83 0.0 0 0 18.46 25.95
  Q 20.07 22.85 21.37 21.84
  A 0.51 0.50 41.1 0 0 21.31 21.00
  Q 20.49 20.53 20.10 20.52
  A 0.62 0.61 21.0 0 1 19.62 19.45
  L 22.72 16.73
  A 1.36 1.33 -60.5 0 1 23.79 16.42
  L 27.91 17.03
  A 2.08 2.06 -49.9 0 0 28.91 16.94
  Q 32.62 15.66 36.66 16.93
  Q 38.09 17.38 37.67 18.12
  Q 37.00 19.33 36.16 19.61
  A 0.52 0.52 0.0 0 0 36.09 20.57
  Z
  M 32.12 20.06
  A 0.98 0.86 29.9 0 0 33.71 19.74
  Q 33.85 19.03 32.81 18.76
  Q 32.21 18.61 31.96 19.16
  Q 31.72 19.67 32.12 20.06
  Z"
/>
<path fill="#1fa37f" d="
  M 32.12 20.06
  Q 31.72 19.67 31.96 19.16
  Q 32.21 18.61 32.81 18.76
  Q 33.85 19.03 33.71 19.74
  A 0.98 0.86 29.9 0 1 32.12 20.06
  Z"
/>
</svg>
