<?xml version="1.0" encoding="UTF-8" standalone="no"?>
<!DOCTYPE svg PUBLIC "-//W3C//DTD SVG 1.1//EN" "http://www.w3.org/Graphics/SVG/1.1/DTD/svg11.dtd">
<svg xmlns="http://www.w3.org/2000/svg" version="1.1" viewBox="0.00 0.00 66.00 88.00">
<g stroke-width="2.00" fill="none" stroke-linecap="butt">
<path stroke="#802436" vector-effect="non-scaling-stroke" d="
  M 33.42 86.69
  Q 33.52 86.69 33.62 86.67
  Q 33.72 86.65 33.78 86.59
  Q 45.30 75.61 53.44 63.52
  Q 61.46 51.59 63.79 38.93
  C 67.32 19.73 53.15 3.00 33.75 2.46
  Q 33.63 2.46 33.51 2.46
  Q 33.39 2.46 33.28 2.46
  C 13.87 2.96 -0.33 19.66 3.16 38.86
  Q 5.46 51.53 13.45 63.48
  Q 21.57 75.58 33.06 86.59
  Q 33.12 86.65 33.22 86.67
  Q 33.32 86.69 33.42 86.69"
/>
<path stroke="#d4969b" vector-effect="non-scaling-stroke" d="
  M 32.99 47.03
  C 36.30 47.03 37.85 45.86 41.34 43.28
  A 1.80 1.75 -9.0 0 0 41.94 42.47
  L 42.81 40.17
  A 0.86 0.85 -82.2 0 1 43.53 39.62
  Q 48.34 39.20 51.18 34.80
  A 0.51 0.51 0.0 0 0 50.75 34.02
  Q 49.08 34.04 44.63 30.72
  Q 43.87 30.15 41.35 29.47
  A 1.86 1.83 -9.0 0 1 40.26 28.69
  Q 39.06 26.91 36.46 26.35
  A 1.30 1.30 0.0 0 1 35.57 25.69
  Q 34.55 23.82 33.56 21.71
  Q 33.35 21.26 32.99 21.26
  Q 32.63 21.26 32.42 21.71
  Q 31.43 23.82 30.41 25.69
  A 1.30 1.30 0.0 0 1 29.52 26.35
  Q 26.92 26.91 25.72 28.69
  A 1.86 1.83 9.0 0 1 24.63 29.47
  Q 22.11 30.15 21.35 30.72
  Q 16.90 34.04 15.23 34.03
  A 0.51 0.51 0.0 0 0 14.80 34.81
  Q 17.65 39.20 22.46 39.62
  A 0.86 0.85 82.2 0 1 23.18 40.17
  L 24.05 42.47
  A 1.80 1.75 9.0 0 0 24.65 43.28
  C 28.13 45.87 29.68 47.03 32.99 47.03"
/>
<path stroke="#d4969b" vector-effect="non-scaling-stroke" d="
  M 38.45 34.49
  A 5.49 5.49 0.0 0 0 32.96 29.00
  A 5.49 5.49 0.0 0 0 27.47 34.49
  A 5.49 5.49 0.0 0 0 32.96 39.98
  A 5.49 5.49 0.0 0 0 38.45 34.49"
/>
<path stroke="#d4969b" vector-effect="non-scaling-stroke" d="
  M 23.59 32.78
  Q 21.63 33.47 19.40 35.32
  A 0.51 0.51 0.0 0 0 19.48 36.16
  Q 20.72 36.84 22.13 36.91
  A 0.84 0.83 11.2 0 0 22.94 36.37
  L 24.10 33.30
  A 0.40 0.40 0.0 0 0 23.59 32.78"
/>
<path stroke="#d4969b" vector-effect="non-scaling-stroke" d="
  M 42.40 32.80
  A 0.40 0.40 0.0 0 0 41.90 33.32
  L 43.05 36.37
  A 0.83 0.83 0.0 0 0 43.85 36.91
  Q 45.26 36.84 46.49 36.17
  A 0.51 0.51 0.0 0 0 46.57 35.33
  Q 44.35 33.49 42.40 32.80"
/>
<path stroke="#d4969b" vector-effect="non-scaling-stroke" d="
  M 35.58 34.42
  A 2.59 2.59 0.0 0 0 32.99 31.83
  A 2.59 2.59 0.0 0 0 30.40 34.42
  A 2.59 2.59 0.0 0 0 32.99 37.01
  A 2.59 2.59 0.0 0 0 35.58 34.42"
/>
</g>
<path fill="#581723" d="
  M 33.81 88.00
  L 33.15 88.00
  Q 15.61 72.48 6.00 52.51
  Q 2.31 44.84 1.62 35.22
  Q 0.94 25.67 5.27 17.99
  C 18.07 -4.77 50.85 -4.22 62.57 19.69
  C 66.93 28.58 65.93 39.80 62.41 48.85
  C 56.62 63.75 45.56 77.30 33.81 88.00
  Z
  M 33.42 86.69
  Q 33.52 86.69 33.62 86.67
  Q 33.72 86.65 33.78 86.59
  Q 45.30 75.61 53.44 63.52
  Q 61.46 51.59 63.79 38.93
  C 67.32 19.73 53.15 3.00 33.75 2.46
  Q 33.63 2.46 33.51 2.46
  Q 33.39 2.46 33.28 2.46
  C 13.87 2.96 -0.33 19.66 3.16 38.86
  Q 5.46 51.53 13.45 63.48
  Q 21.57 75.58 33.06 86.59
  Q 33.12 86.65 33.22 86.67
  Q 33.32 86.69 33.42 86.69
  Z"
/>
<path fill="#a83148" d="
  M 33.51 2.46
  Q 33.63 2.46 33.75 2.46
  C 53.15 3.00 67.32 19.73 63.79 38.93
  Q 61.46 51.59 53.44 63.52
  Q 45.30 75.61 33.78 86.59
  Q 33.72 86.65 33.62 86.67
  Q 33.52 86.69 33.42 86.69
  Q 33.32 86.69 33.22 86.67
  Q 33.12 86.65 33.06 86.59
  Q 21.57 75.58 13.45 63.48
  Q 5.46 51.53 3.16 38.86
  C -0.33 19.66 13.87 2.96 33.28 2.46
  Q 33.39 2.46 33.51 2.46
  Z
  M 32.99 47.03
  C 36.30 47.03 37.85 45.86 41.34 43.28
  A 1.80 1.75 -9.0 0 0 41.94 42.47
  L 42.81 40.17
  A 0.86 0.85 -82.2 0 1 43.53 39.62
  Q 48.34 39.20 51.18 34.80
  A 0.51 0.51 0.0 0 0 50.75 34.02
  Q 49.08 34.04 44.63 30.72
  Q 43.87 30.15 41.35 29.47
  A 1.86 1.83 -9.0 0 1 40.26 28.69
  Q 39.06 26.91 36.46 26.35
  A 1.30 1.30 0.0 0 1 35.57 25.69
  Q 34.55 23.82 33.56 21.71
  Q 33.35 21.26 32.99 21.26
  Q 32.63 21.26 32.42 21.71
  Q 31.43 23.82 30.41 25.69
  A 1.30 1.30 0.0 0 1 29.52 26.35
  Q 26.92 26.91 25.72 28.69
  A 1.86 1.83 9.0 0 1 24.63 29.47
  Q 22.11 30.15 21.35 30.72
  Q 16.90 34.04 15.23 34.03
  A 0.51 0.51 0.0 0 0 14.80 34.81
  Q 17.65 39.20 22.46 39.62
  A 0.86 0.85 82.2 0 1 23.18 40.17
  L 24.05 42.47
  A 1.80 1.75 9.0 0 0 24.65 43.28
  C 28.13 45.87 29.68 47.03 32.99 47.03
  Z"
/>
<path fill="#fffaee" d="
  M 32.99 21.26
  Q 33.35 21.26 33.56 21.71
  Q 34.55 23.82 35.57 25.69
  A 1.30 1.30 0.0 0 0 36.46 26.35
  Q 39.06 26.91 40.26 28.69
  A 1.86 1.83 -9.0 0 0 41.35 29.47
  Q 43.87 30.15 44.63 30.72
  Q 49.08 34.04 50.75 34.02
  A 0.51 0.51 0.0 0 1 51.18 34.80
  Q 48.34 39.20 43.53 39.62
  A 0.86 0.85 -82.2 0 0 42.81 40.17
  L 41.94 42.47
  A 1.80 1.75 -9.0 0 1 41.34 43.28
  C 37.85 45.86 36.30 47.03 32.99 47.03
  C 29.68 47.03 28.13 45.87 24.65 43.28
  A 1.80 1.75 9.0 0 1 24.05 42.47
  L 23.18 40.17
  A 0.86 0.85 82.2 0 0 22.46 39.62
  Q 17.65 39.20 14.80 34.81
  A 0.51 0.51 0.0 0 1 15.23 34.03
  Q 16.90 34.04 21.35 30.72
  Q 22.11 30.15 24.63 29.47
  A 1.86 1.83 9.0 0 0 25.72 28.69
  Q 26.92 26.91 29.52 26.35
  A 1.30 1.30 0.0 0 0 30.41 25.69
  Q 31.43 23.82 32.42 21.71
  Q 32.63 21.26 32.99 21.26
  Z
  M 38.45 34.49
  A 5.49 5.49 0.0 0 0 32.96 29.00
  A 5.49 5.49 0.0 0 0 27.47 34.49
  A 5.49 5.49 0.0 0 0 32.96 39.98
  A 5.49 5.49 0.0 0 0 38.45 34.49
  Z
  M 23.59 32.78
  Q 21.63 33.47 19.40 35.32
  A 0.51 0.51 0.0 0 0 19.48 36.16
  Q 20.72 36.84 22.13 36.91
  A 0.84 0.83 11.2 0 0 22.94 36.37
  L 24.10 33.30
  A 0.40 0.40 0.0 0 0 23.59 32.78
  Z
  M 42.40 32.80
  A 0.40 0.40 0.0 0 0 41.90 33.32
  L 43.05 36.37
  A 0.83 0.83 0.0 0 0 43.85 36.91
  Q 45.26 36.84 46.49 36.17
  A 0.51 0.51 0.0 0 0 46.57 35.33
  Q 44.35 33.49 42.40 32.80
  Z"
/>
<path fill="#a83148" d="
  M 38.45 34.49
  A 5.49 5.49 0.0 0 1 32.96 39.98
  A 5.49 5.49 0.0 0 1 27.47 34.49
  A 5.49 5.49 0.0 0 1 32.96 29.00
  A 5.49 5.49 0.0 0 1 38.45 34.49
  Z
  M 35.58 34.42
  A 2.59 2.59 0.0 0 0 32.99 31.83
  A 2.59 2.59 0.0 0 0 30.40 34.42
  A 2.59 2.59 0.0 0 0 32.99 37.01
  A 2.59 2.59 0.0 0 0 35.58 34.42
  Z"
/>
<circle fill="#fffaee" cx="32.99" cy="34.42" r="2.59"/>
<path fill="#a83148" d="
  M 24.10 33.30
  L 22.94 36.37
  A 0.84 0.83 11.2 0 1 22.13 36.91
  Q 20.72 36.84 19.48 36.16
  A 0.51 0.51 0.0 0 1 19.40 35.32
  Q 21.63 33.47 23.59 32.78
  A 0.40 0.40 0.0 0 1 24.10 33.30
  Z"
/>
<path fill="#a83148" d="
  M 42.40 32.80
  Q 44.35 33.49 46.57 35.33
  A 0.51 0.51 0.0 0 1 46.49 36.17
  Q 45.26 36.84 43.85 36.91
  A 0.83 0.83 0.0 0 1 43.05 36.37
  L 41.90 33.32
  A 0.40 0.40 0.0 0 1 42.40 32.80
  Z"
/>
</svg>
