<?xml version="1.0" encoding="UTF-8" standalone="no"?>
<!DOCTYPE svg PUBLIC "-//W3C//DTD SVG 1.1//EN" "http://www.w3.org/Graphics/SVG/1.1/DTD/svg11.dtd">
<svg xmlns="http://www.w3.org/2000/svg" version="1.1" viewBox="0.00 0.00 66.00 88.00">
<g stroke-width="2.00" fill="none" stroke-linecap="butt">
<path stroke="#21303f" vector-effect="non-scaling-stroke" d="
  M 33.41 86.58
  Q 33.55 86.58 33.69 86.55
  A 0.13 0.12 -70.1 0 0 33.76 86.51
  Q 47.32 74.02 56.36 58.63
  C 63.87 45.85 68.32 28.97 58.92 15.82
  Q 49.82 3.08 33.75 2.49
  Q 33.63 2.48 33.51 2.48
  Q 33.39 2.48 33.27 2.49
  Q 17.20 3.04 8.07 15.76
  C -1.37 28.89 3.04 45.78 10.52 58.57
  Q 19.53 73.99 33.06 86.51
  A 0.13 0.12 70.3 0 0 33.13 86.55
  Q 33.26 86.58 33.41 86.58"
/>
<path stroke="#969fa2" vector-effect="non-scaling-stroke" d="
  M 51.2876 23.9719
  A 8.18 8.18 0.0 0 0 43.1219 15.7777
  L 22.9019 15.7424
  A 8.18 8.18 0.0 0 0 14.7077 23.9081
  L 14.6724 44.1281
  A 8.18 8.18 0.0 0 0 22.8381 52.3223
  L 43.0581 52.3576
  A 8.18 8.18 0.0 0 0 51.2523 44.1919
  L 51.2876 23.9719"
/>
<path stroke="#969fa2" vector-effect="non-scaling-stroke" d="
  M 36.19 19.82
  Q 29.63 19.61 23.10 19.82
  Q 18.79 19.97 18.78 24.08
  Q 18.73 41.66 18.69 43.82
  A 4.45 4.44 -80.7 0 0 21.79 48.14
  L 22.61 48.48
  A 2.13 2.13 0.0 0 0 25.54 46.51
  L 25.55 29.93
  A 1.82 1.71 55.9 0 1 25.64 29.37
  C 26.97 25.21 32.69 26.59 36.13 26.52
  A 0.26 0.26 0.0 0 0 36.39 26.26
  L 36.39 20.04
  A 0.22 0.21 -88.6 0 0 36.19 19.82"
/>
<path stroke="#969fa2" vector-effect="non-scaling-stroke" d="
  M 29.80 48.19
  Q 36.37 48.40 42.90 48.18
  Q 47.21 48.03 47.22 43.92
  Q 47.25 26.33 47.29 24.17
  A 4.45 4.44 -80.7 0 0 44.19 19.85
  L 43.37 19.51
  A 2.13 2.13 0.0 0 0 40.44 21.48
  L 40.44 38.07
  A 1.82 1.71 55.8 0 1 40.35 38.63
  C 39.02 42.79 33.30 41.42 29.86 41.49
  A 0.26 0.26 0.0 0 0 29.60 41.75
  L 29.60 47.97
  A 0.22 0.21 -88.6 0 0 29.80 48.19"
/>
<path stroke="#969fa2" vector-effect="non-scaling-stroke" d="
  M 36.4445 30.8140
  A 0.28 0.28 0.0 0 0 36.1640 30.5345
  L 29.8240 30.5455
  A 0.28 0.28 0.0 0 0 29.5445 30.8260
  L 29.5555 37.1660
  A 0.28 0.28 0.0 0 0 29.8360 37.4455
  L 36.1760 37.4345
  A 0.28 0.28 0.0 0 0 36.4555 37.1540
  L 36.4445 30.8140"
/>
</g>
<path fill="#16212b" d="
  M 33.79 88.00
  L 33.04 88.00
  C 21.75 77.74 12.12 65.68 5.65 51.56
  Q 2.21 44.05 1.60 34.89
  C 0.54 18.88 11.35 5.50 26.73 2.05
  C 41.22 -1.20 56.13 6.11 62.69 19.94
  C 66.94 28.89 65.90 40.02 62.34 49.05
  C 56.50 63.87 45.53 77.35 33.79 88.00
  Z
  M 33.41 86.58
  Q 33.55 86.58 33.69 86.55
  A 0.13 0.12 -70.1 0 0 33.76 86.51
  Q 47.32 74.02 56.36 58.63
  C 63.87 45.85 68.32 28.97 58.92 15.82
  Q 49.82 3.08 33.75 2.49
  Q 33.63 2.48 33.51 2.48
  Q 33.39 2.48 33.27 2.49
  Q 17.20 3.04 8.07 15.76
  C -1.37 28.89 3.04 45.78 10.52 58.57
  Q 19.53 73.99 33.06 86.51
  A 0.13 0.12 70.3 0 0 33.13 86.55
  Q 33.26 86.58 33.41 86.58
  Z"
/>
<path fill="#2c3f52" d="
  M 33.51 2.48
  Q 33.63 2.48 33.75 2.49
  Q 49.82 3.08 58.92 15.82
  C 68.32 28.97 63.87 45.85 56.36 58.63
  Q 47.32 74.02 33.76 86.51
  A 0.13 0.12 -70.1 0 1 33.69 86.55
  Q 33.55 86.58 33.41 86.58
  Q 33.26 86.58 33.13 86.55
  A 0.13 0.12 70.3 0 1 33.06 86.51
  Q 19.53 73.99 10.52 58.57
  C 3.04 45.78 -1.37 28.89 8.07 15.76
  Q 17.20 3.04 33.27 2.49
  Q 33.39 2.48 33.51 2.48
  Z
  M 51.2876 23.9719
  A 8.18 8.18 0.0 0 0 43.1219 15.7777
  L 22.9019 15.7424
  A 8.18 8.18 0.0 0 0 14.7077 23.9081
  L 14.6724 44.1281
  A 8.18 8.18 0.0 0 0 22.8381 52.3223
  L 43.0581 52.3576
  A 8.18 8.18 0.0 0 0 51.2523 44.1919
  L 51.2876 23.9719
  Z"
/>
<path fill="#fffef2" d="
  M 51.2523 44.1919
  A 8.18 8.18 0.0 0 1 43.0581 52.3576
  L 22.8381 52.3223
  A 8.18 8.18 0.0 0 1 14.6724 44.1281
  L 14.7077 23.9081
  A 8.18 8.18 0.0 0 1 22.9019 15.7424
  L 43.1219 15.7777
  A 8.18 8.18 0.0 0 1 51.2876 23.9719
  L 51.2523 44.1919
  Z
  M 36.19 19.82
  Q 29.63 19.61 23.10 19.82
  Q 18.79 19.97 18.78 24.08
  Q 18.73 41.66 18.69 43.82
  A 4.45 4.44 -80.7 0 0 21.79 48.14
  L 22.61 48.48
  A 2.13 2.13 0.0 0 0 25.54 46.51
  L 25.55 29.93
  A 1.82 1.71 55.9 0 1 25.64 29.37
  C 26.97 25.21 32.69 26.59 36.13 26.52
  A 0.26 0.26 0.0 0 0 36.39 26.26
  L 36.39 20.04
  A 0.22 0.21 -88.6 0 0 36.19 19.82
  Z
  M 29.80 48.19
  Q 36.37 48.40 42.90 48.18
  Q 47.21 48.03 47.22 43.92
  Q 47.25 26.33 47.29 24.17
  A 4.45 4.44 -80.7 0 0 44.19 19.85
  L 43.37 19.51
  A 2.13 2.13 0.0 0 0 40.44 21.48
  L 40.44 38.07
  A 1.82 1.71 55.8 0 1 40.35 38.63
  C 39.02 42.79 33.30 41.42 29.86 41.49
  A 0.26 0.26 0.0 0 0 29.60 41.75
  L 29.60 47.97
  A 0.22 0.21 -88.6 0 0 29.80 48.19
  Z
  M 36.4445 30.8140
  A 0.28 0.28 0.0 0 0 36.1640 30.5345
  L 29.8240 30.5455
  A 0.28 0.28 0.0 0 0 29.5445 30.8260
  L 29.5555 37.1660
  A 0.28 0.28 0.0 0 0 29.8360 37.4455
  L 36.1760 37.4345
  A 0.28 0.28 0.0 0 0 36.4555 37.1540
  L 36.4445 30.8140
  Z"
/>
<path fill="#2c3f52" d="
  M 36.19 19.82
  A 0.22 0.21 -88.6 0 1 36.39 20.04
  L 36.39 26.26
  A 0.26 0.26 0.0 0 1 36.13 26.52
  C 32.69 26.59 26.97 25.21 25.64 29.37
  A 1.82 1.71 55.9 0 0 25.55 29.93
  L 25.54 46.51
  A 2.13 2.13 0.0 0 1 22.61 48.48
  L 21.79 48.14
  A 4.45 4.44 -80.7 0 1 18.69 43.82
  Q 18.73 41.66 18.78 24.08
  Q 18.79 19.97 23.10 19.82
  Q 29.63 19.61 36.19 19.82
  Z"
/>
<path fill="#2c3f52" d="
  M 29.80 48.19
  A 0.22 0.21 -88.6 0 1 29.60 47.97
  L 29.60 41.75
  A 0.26 0.26 0.0 0 1 29.86 41.49
  C 33.30 41.42 39.02 42.79 40.35 38.63
  A 1.82 1.71 55.8 0 0 40.44 38.07
  L 40.44 21.48
  A 2.13 2.13 0.0 0 1 43.37 19.51
  L 44.19 19.85
  A 4.45 4.44 -80.7 0 1 47.29 24.17
  Q 47.25 26.33 47.22 43.92
  Q 47.21 48.03 42.90 48.18
  Q 36.37 48.40 29.80 48.19
  Z"
/>
<rect fill="#2c3f52" x="-3.45" y="-3.45" transform="translate(33.00,33.99) rotate(-0.1)" width="6.90" height="6.90" rx="0.28"/>
</svg>
