<?xml version="1.0" encoding="UTF-8" standalone="no"?>
<!DOCTYPE svg PUBLIC "-//W3C//DTD SVG 1.1//EN" "http://www.w3.org/Graphics/SVG/1.1/DTD/svg11.dtd">
<svg xmlns="http://www.w3.org/2000/svg" version="1.1" viewBox="0.00 0.00 66.00 88.00">
<g stroke-width="2.00" fill="none" stroke-linecap="butt">
<path stroke="#428270" vector-effect="non-scaling-stroke" d="
  M 33.40 86.73
  Q 33.51 86.73 33.64 86.61
  C 51.34 70.20 78.22 35.76 55.91 12.08
  C 50.23 6.05 42.10 2.47 33.54 2.45
  C 24.99 2.44 16.85 5.99 11.14 12.01
  C -11.25 35.60 15.51 70.14 33.15 86.60
  Q 33.29 86.73 33.40 86.73"
/>
<path stroke="#add5c4" vector-effect="non-scaling-stroke" d="
  M 33.27 52.24
  Q 37.33 52.23 37.38 52.23
  A 2.05 2.04 -66.9 0 0 38.34 51.84
  Q 38.37 51.81 44.84 44.73
  Q 48.07 41.20 48.62 38.98
  C 49.45 35.67 49.69 30.42 46.92 27.94
  Q 42.90 24.34 37.40 23.17
  A 0.58 0.57 15.6 0 1 36.98 22.43
  Q 38.78 17.05 44.37 16.60
  A 0.36 0.36 0.0 0 0 44.70 16.23
  L 44.70 16.15
  A 0.33 0.33 0.0 0 0 44.38 15.83
  Q 38.82 15.69 33.26 15.76
  Q 27.70 15.69 22.13 15.84
  A 0.33 0.33 0.0 0 0 21.81 16.16
  L 21.81 16.24
  A 0.36 0.36 0.0 0 0 22.14 16.61
  Q 27.74 17.05 29.54 22.43
  A 0.58 0.57 -15.6 0 1 29.12 23.17
  Q 23.62 24.34 19.60 27.95
  C 16.83 30.43 17.07 35.68 17.91 38.99
  Q 18.46 41.21 21.69 44.74
  Q 28.16 51.81 28.19 51.84
  A 2.05 2.04 66.9 0 0 29.15 52.23
  Q 29.20 52.24 33.27 52.24"
/>
</g>
<path fill="#2a584b" d="
  M 33.78 88.00
  L 33.04 88.00
  C 17.16 73.57 -4.60 46.34 3.04 23.09
  Q 5.52 15.55 11.52 9.92
  C 20.85 1.17 35.76 -1.56 47.97 4.73
  C 59.00 10.40 65.87 21.36 65.46 33.76
  Q 65.21 41.57 62.33 49.05
  C 56.67 63.78 45.41 77.47 33.78 88.00
  Z
  M 33.40 86.73
  Q 33.51 86.73 33.64 86.61
  C 51.34 70.20 78.22 35.76 55.91 12.08
  C 50.23 6.05 42.10 2.47 33.54 2.45
  C 24.99 2.44 16.85 5.99 11.14 12.01
  C -11.25 35.60 15.51 70.14 33.15 86.60
  Q 33.29 86.73 33.40 86.73
  Z"
/>
<path fill="#5aab95" d="
  M 33.54 2.45
  C 42.10 2.47 50.23 6.05 55.91 12.08
  C 78.22 35.76 51.34 70.20 33.64 86.61
  Q 33.51 86.73 33.40 86.73
  Q 33.29 86.73 33.15 86.60
  C 15.51 70.14 -11.25 35.60 11.14 12.01
  C 16.85 5.99 24.99 2.44 33.54 2.45
  Z
  M 33.27 52.24
  Q 37.33 52.23 37.38 52.23
  A 2.05 2.04 -66.9 0 0 38.34 51.84
  Q 38.37 51.81 44.84 44.73
  Q 48.07 41.20 48.62 38.98
  C 49.45 35.67 49.69 30.42 46.92 27.94
  Q 42.90 24.34 37.40 23.17
  A 0.58 0.57 15.6 0 1 36.98 22.43
  Q 38.78 17.05 44.37 16.60
  A 0.36 0.36 0.0 0 0 44.70 16.23
  L 44.70 16.15
  A 0.33 0.33 0.0 0 0 44.38 15.83
  Q 38.82 15.69 33.26 15.76
  Q 27.70 15.69 22.13 15.84
  A 0.33 0.33 0.0 0 0 21.81 16.16
  L 21.81 16.24
  A 0.36 0.36 0.0 0 0 22.14 16.61
  Q 27.74 17.05 29.54 22.43
  A 0.58 0.57 -15.6 0 1 29.12 23.17
  Q 23.62 24.34 19.60 27.95
  C 16.83 30.43 17.07 35.68 17.91 38.99
  Q 18.46 41.21 21.69 44.74
  Q 28.16 51.81 28.19 51.84
  A 2.05 2.04 66.9 0 0 29.15 52.23
  Q 29.20 52.24 33.27 52.24
  Z"
/>
<path fill="#fffef2" d="
  M 33.26 15.76
  Q 38.82 15.69 44.38 15.83
  A 0.33 0.33 0.0 0 1 44.70 16.15
  L 44.70 16.23
  A 0.36 0.36 0.0 0 1 44.37 16.60
  Q 38.78 17.05 36.98 22.43
  A 0.58 0.57 15.6 0 0 37.40 23.17
  Q 42.90 24.34 46.92 27.94
  C 49.69 30.42 49.45 35.67 48.62 38.98
  Q 48.07 41.20 44.84 44.73
  Q 38.37 51.81 38.34 51.84
  A 2.05 2.04 -66.9 0 1 37.38 52.23
  Q 37.33 52.23 33.27 52.24
  Q 29.20 52.24 29.15 52.23
  A 2.05 2.04 66.9 0 1 28.19 51.84
  Q 28.16 51.81 21.69 44.74
  Q 18.46 41.21 17.91 38.99
  C 17.07 35.68 16.83 30.43 19.60 27.95
  Q 23.62 24.34 29.12 23.17
  A 0.58 0.57 -15.6 0 0 29.54 22.43
  Q 27.74 17.05 22.14 16.61
  A 0.36 0.36 0.0 0 1 21.81 16.24
  L 21.81 16.16
  A 0.33 0.33 0.0 0 1 22.13 15.84
  Q 27.70 15.69 33.26 15.76
  Z"
/>
</svg>
