<?xml version="1.0" encoding="UTF-8" standalone="no"?>
<!DOCTYPE svg PUBLIC "-//W3C//DTD SVG 1.1//EN" "http://www.w3.org/Graphics/SVG/1.1/DTD/svg11.dtd">
<svg xmlns="http://www.w3.org/2000/svg" version="1.1" viewBox="0.00 0.00 66.00 88.00">
<g stroke-width="2.00" fill="none" stroke-linecap="butt">
<path stroke="#21303f" vector-effect="non-scaling-stroke" d="
  M 33.39 86.58
  Q 33.60 86.58 33.95 86.24
  C 48.77 72.36 64.99 51.85 64.19 31.25
  Q 63.96 25.36 61.85 20.97
  Q 53.60 3.75 34.25 2.50
  Q 33.74 2.47 33.52 2.47
  Q 33.30 2.47 32.79 2.50
  Q 13.44 3.69 5.13 20.88
  Q 3.01 25.27 2.76 31.16
  C 1.90 51.75 18.06 72.31 32.83 86.24
  Q 33.18 86.58 33.39 86.58"
/>
<path stroke="#969fa2" vector-effect="non-scaling-stroke" d="
  M 27.56 25.74
  A 2.78 2.77 22.6 0 0 29.51 24.94
  L 31.59 22.86
  A 0.54 0.54 0.0 0 1 32.36 22.86
  L 36.75 27.24
  A 2.80 2.80 0.0 0 0 38.73 28.06
  L 41.39 28.06
  A 0.38 0.37 -22.3 0 0 41.66 27.42
  L 33.17 18.94
  A 1.70 1.70 0.0 0 0 30.76 18.94
  L 24.52 25.17
  A 0.34 0.33 22.4 0 0 24.76 25.74
  L 27.56 25.74"
/>
<path stroke="#969fa2" vector-effect="non-scaling-stroke" d="
  M 14.66 34.38
  Q 14.67 40.31 14.67 40.33
  A 0.82 0.82 0.0 0 0 15.42 40.98
  Q 16.50 41.04 17.49 41.05
  C 18.55 41.06 19.67 39.28 21.50 39.27
  Q 28.25 39.22 31.00 39.27
  A 1.71 1.69 -64.6 0 0 32.13 38.86
  C 33.06 38.06 33.55 37.11 34.90 37.07
  Q 38.98 36.97 41.55 36.94
  A 2.40 2.31 27.2 0 0 42.79 36.57
  Q 44.66 35.37 47.29 35.85
  A 1.50 1.49 -9.3 0 1 48.31 36.58
  Q 48.79 37.45 50.20 38.23
  A 0.77 0.77 0.0 0 0 51.34 37.58
  Q 51.34 37.50 51.34 34.37
  Q 51.34 31.24 51.34 31.16
  A 0.77 0.77 0.0 0 0 50.20 30.51
  Q 48.79 31.29 48.31 32.16
  A 1.50 1.49 9.2 0 1 47.29 32.89
  Q 44.66 33.37 42.79 32.17
  A 2.40 2.31 -27.3 0 0 41.55 31.81
  Q 38.98 31.78 34.90 31.68
  C 33.55 31.64 33.06 30.69 32.13 29.89
  A 1.71 1.69 64.5 0 0 31.00 29.48
  Q 28.25 29.53 21.50 29.49
  C 19.67 29.48 18.55 27.70 17.49 27.71
  Q 16.50 27.72 15.42 27.78
  A 0.82 0.82 0.0 0 0 14.67 28.43
  Q 14.66 28.46 14.66 34.38"
/>
<path stroke="#969fa2" vector-effect="non-scaling-stroke" d="
  M 27.55 42.97
  L 24.74 42.96
  A 0.34 0.33 -22.1 0 0 24.50 43.53
  L 30.72 49.79
  A 1.71 1.70 45.1 0 0 33.14 49.81
  L 41.68 41.35
  A 0.38 0.38 0.0 0 0 41.41 40.71
  L 38.75 40.70
  A 2.81 2.80 22.8 0 0 36.76 41.51
  L 32.34 45.88
  A 0.55 0.54 44.9 0 1 31.57 45.87
  L 29.50 43.78
  A 2.78 2.78 0.0 0 0 27.55 42.97"
/>
</g>
<path fill="#16212b" d="
  M 33.80 88.00
  L 33.04 88.00
  C 21.86 77.85 11.77 65.41 5.62 51.45
  Q 2.16 43.58 1.56 35.03
  Q 0.96 26.46 4.95 18.63
  Q 11.50 5.78 26.72 2.04
  C 36.97 -0.48 49.13 3.20 56.59 11.06
  Q 67.91 22.98 64.84 39.75
  Q 62.54 52.29 54.57 64.07
  Q 45.67 77.20 33.80 88.00
  Z
  M 33.39 86.58
  Q 33.60 86.58 33.95 86.24
  C 48.77 72.36 64.99 51.85 64.19 31.25
  Q 63.96 25.36 61.85 20.97
  Q 53.60 3.75 34.25 2.50
  Q 33.74 2.47 33.52 2.47
  Q 33.30 2.47 32.79 2.50
  Q 13.44 3.69 5.13 20.88
  Q 3.01 25.27 2.76 31.16
  C 1.90 51.75 18.06 72.31 32.83 86.24
  Q 33.18 86.58 33.39 86.58
  Z"
/>
<path fill="#2c3f52" d="
  M 33.52 2.47
  Q 33.74 2.47 34.25 2.50
  Q 53.60 3.75 61.85 20.97
  Q 63.96 25.36 64.19 31.25
  C 64.99 51.85 48.77 72.36 33.95 86.24
  Q 33.60 86.58 33.39 86.58
  Q 33.18 86.58 32.83 86.24
  C 18.06 72.31 1.90 51.75 2.76 31.16
  Q 3.01 25.27 5.13 20.88
  Q 13.44 3.69 32.79 2.50
  Q 33.30 2.47 33.52 2.47
  Z
  M 27.56 25.74
  A 2.78 2.77 22.6 0 0 29.51 24.94
  L 31.59 22.86
  A 0.54 0.54 0.0 0 1 32.36 22.86
  L 36.75 27.24
  A 2.80 2.80 0.0 0 0 38.73 28.06
  L 41.39 28.06
  A 0.38 0.37 -22.3 0 0 41.66 27.42
  L 33.17 18.94
  A 1.70 1.70 0.0 0 0 30.76 18.94
  L 24.52 25.17
  A 0.34 0.33 22.4 0 0 24.76 25.74
  L 27.56 25.74
  Z
  M 14.66 34.38
  Q 14.67 40.31 14.67 40.33
  A 0.82 0.82 0.0 0 0 15.42 40.98
  Q 16.50 41.04 17.49 41.05
  C 18.55 41.06 19.67 39.28 21.50 39.27
  Q 28.25 39.22 31.00 39.27
  A 1.71 1.69 -64.6 0 0 32.13 38.86
  C 33.06 38.06 33.55 37.11 34.90 37.07
  Q 38.98 36.97 41.55 36.94
  A 2.40 2.31 27.2 0 0 42.79 36.57
  Q 44.66 35.37 47.29 35.85
  A 1.50 1.49 -9.3 0 1 48.31 36.58
  Q 48.79 37.45 50.20 38.23
  A 0.77 0.77 0.0 0 0 51.34 37.58
  Q 51.34 37.50 51.34 34.37
  Q 51.34 31.24 51.34 31.16
  A 0.77 0.77 0.0 0 0 50.20 30.51
  Q 48.79 31.29 48.31 32.16
  A 1.50 1.49 9.2 0 1 47.29 32.89
  Q 44.66 33.37 42.79 32.17
  A 2.40 2.31 -27.3 0 0 41.55 31.81
  Q 38.98 31.78 34.90 31.68
  C 33.55 31.64 33.06 30.69 32.13 29.89
  A 1.71 1.69 64.5 0 0 31.00 29.48
  Q 28.25 29.53 21.50 29.49
  C 19.67 29.48 18.55 27.70 17.49 27.71
  Q 16.50 27.72 15.42 27.78
  A 0.82 0.82 0.0 0 0 14.67 28.43
  Q 14.66 28.46 14.66 34.38
  Z
  M 27.55 42.97
  L 24.74 42.96
  A 0.34 0.33 -22.1 0 0 24.50 43.53
  L 30.72 49.79
  A 1.71 1.70 45.1 0 0 33.14 49.81
  L 41.68 41.35
  A 0.38 0.38 0.0 0 0 41.41 40.71
  L 38.75 40.70
  A 2.81 2.80 22.8 0 0 36.76 41.51
  L 32.34 45.88
  A 0.55 0.54 44.9 0 1 31.57 45.87
  L 29.50 43.78
  A 2.78 2.78 0.0 0 0 27.55 42.97
  Z"
/>
<path fill="#fffef2" d="
  M 27.56 25.74
  L 24.76 25.74
  A 0.34 0.33 22.4 0 1 24.52 25.17
  L 30.76 18.94
  A 1.70 1.70 0.0 0 1 33.17 18.94
  L 41.66 27.42
  A 0.38 0.37 -22.3 0 1 41.39 28.06
  L 38.73 28.06
  A 2.80 2.80 0.0 0 1 36.75 27.24
  L 32.36 22.86
  A 0.54 0.54 0.0 0 0 31.59 22.86
  L 29.51 24.94
  A 2.78 2.77 22.6 0 1 27.56 25.74
  Z"
/>
<path fill="#fffef2" d="
  M 51.34 34.37
  Q 51.34 37.50 51.34 37.58
  A 0.77 0.77 0.0 0 1 50.20 38.23
  Q 48.79 37.45 48.31 36.58
  A 1.50 1.49 -9.3 0 0 47.29 35.85
  Q 44.66 35.37 42.79 36.57
  A 2.40 2.31 27.2 0 1 41.55 36.94
  Q 38.98 36.97 34.90 37.07
  C 33.55 37.11 33.06 38.06 32.13 38.86
  A 1.71 1.69 -64.6 0 1 31.00 39.27
  Q 28.25 39.22 21.50 39.27
  C 19.67 39.28 18.55 41.06 17.49 41.05
  Q 16.50 41.04 15.42 40.98
  A 0.82 0.82 0.0 0 1 14.67 40.33
  Q 14.67 40.31 14.66 34.38
  Q 14.66 28.46 14.67 28.43
  A 0.82 0.82 0.0 0 1 15.42 27.78
  Q 16.50 27.72 17.49 27.71
  C 18.55 27.70 19.67 29.48 21.50 29.49
  Q 28.25 29.53 31.00 29.48
  A 1.71 1.69 64.5 0 1 32.13 29.89
  C 33.06 30.69 33.55 31.64 34.90 31.68
  Q 38.98 31.78 41.55 31.81
  A 2.40 2.31 -27.3 0 1 42.79 32.17
  Q 44.66 33.37 47.29 32.89
  A 1.50 1.49 9.2 0 0 48.31 32.16
  Q 48.79 31.29 50.20 30.51
  A 0.77 0.77 0.0 0 1 51.34 31.16
  Q 51.34 31.24 51.34 34.37
  Z"
/>
<path fill="#fffef2" d="
  M 27.55 42.97
  A 2.78 2.78 0.0 0 1 29.50 43.78
  L 31.57 45.87
  A 0.55 0.54 44.9 0 0 32.34 45.88
  L 36.76 41.51
  A 2.81 2.80 22.8 0 1 38.75 40.70
  L 41.41 40.71
  A 0.38 0.38 0.0 0 1 41.68 41.35
  L 33.14 49.81
  A 1.71 1.70 45.1 0 1 30.72 49.79
  L 24.50 43.53
  A 0.34 0.33 -22.1 0 1 24.74 42.96
  L 27.55 42.97
  Z"
/>
</svg>
