<?xml version="1.0" encoding="UTF-8" standalone="no"?>
<!DOCTYPE svg PUBLIC "-//W3C//DTD SVG 1.1//EN" "http://www.w3.org/Graphics/SVG/1.1/DTD/svg11.dtd">
<svg xmlns="http://www.w3.org/2000/svg" version="1.1" viewBox="0.00 0.00 66.00 88.00">
<g stroke-width="2.00" fill="none" stroke-linecap="butt">
<path stroke="#428270" vector-effect="non-scaling-stroke" d="
  M 33.40 86.73
  Q 33.48 86.73 33.64 86.59
  Q 47.41 74.01 56.65 58.19
  Q 62.19 48.72 63.82 38.89
  C 67.03 19.49 53.33 2.98 33.75 2.46
  Q 33.64 2.46 33.54 2.46
  Q 33.43 2.45 33.32 2.46
  C 13.74 2.92 -0.01 19.38 3.13 38.79
  Q 4.73 48.63 10.24 58.11
  Q 19.43 73.96 33.16 86.59
  Q 33.32 86.73 33.40 86.73"
/>
<path stroke="#add5c4" vector-effect="non-scaling-stroke" d="
  M 33.00 49.00
  Q 43.52 49.00 43.76 48.99
  A 1.04 1.04 0.0 0 0 44.74 47.81
  L 42.39 30.64
  A 0.35 0.35 0.0 0 1 42.95 30.31
  L 44.89 31.76
  A 1.49 1.48 40.8 0 0 46.84 31.62
  L 50.94 27.52
  A 1.39 1.39 0.0 0 0 50.79 25.42
  L 41.49 18.49
  A 0.63 0.62 -49.5 0 0 40.67 18.56
  Q 37.11 22.21 33.00 22.21
  Q 28.89 22.21 25.33 18.56
  A 0.63 0.62 49.5 0 0 24.51 18.49
  L 15.21 25.42
  A 1.39 1.39 0.0 0 0 15.06 27.52
  L 19.16 31.62
  A 1.49 1.48 -40.8 0 0 21.11 31.76
  L 23.05 30.31
  A 0.35 0.35 0.0 0 1 23.61 30.64
  L 21.26 47.81
  A 1.04 1.04 0.0 0 0 22.25 48.99
  Q 22.48 49.00 33.00 49.00"
/>
<path stroke="#add5c4" vector-effect="non-scaling-stroke" d="
  M 35.17 29.01
  A 2.17 2.17 0.0 0 0 33.00 26.84
  A 2.17 2.17 0.0 0 0 30.83 29.01
  A 2.17 2.17 0.0 0 0 33.00 31.18
  A 2.17 2.17 0.0 0 0 35.17 29.01"
/>
<path stroke="#add5c4" vector-effect="non-scaling-stroke" d="
  M 35.15 36.25
  A 2.16 2.16 0.0 0 0 32.99 34.09
  A 2.16 2.16 0.0 0 0 30.83 36.25
  A 2.16 2.16 0.0 0 0 32.99 38.41
  A 2.16 2.16 0.0 0 0 35.15 36.25"
/>
</g>
<path fill="#2a584b" d="
  M 33.80 88.00
  L 33.13 88.00
  Q 16.68 73.39 6.79 53.99
  Q 2.26 45.09 1.62 35.47
  Q 0.96 25.71 5.37 17.78
  C 11.54 6.68 23.77 0.19 36.85 1.51
  C 53.40 3.18 66.08 17.31 65.46 33.91
  Q 65.18 41.57 62.40 48.84
  C 56.72 63.71 45.49 77.35 33.80 88.00
  Z
  M 33.40 86.73
  Q 33.48 86.73 33.64 86.59
  Q 47.41 74.01 56.65 58.19
  Q 62.19 48.72 63.82 38.89
  C 67.03 19.49 53.33 2.98 33.75 2.46
  Q 33.64 2.46 33.54 2.46
  Q 33.43 2.45 33.32 2.46
  C 13.74 2.92 -0.01 19.38 3.13 38.79
  Q 4.73 48.63 10.24 58.11
  Q 19.43 73.96 33.16 86.59
  Q 33.32 86.73 33.40 86.73
  Z"
/>
<path fill="#5aab95" d="
  M 33.54 2.46
  Q 33.64 2.46 33.75 2.46
  C 53.33 2.98 67.03 19.49 63.82 38.89
  Q 62.19 48.72 56.65 58.19
  Q 47.41 74.01 33.64 86.59
  Q 33.48 86.73 33.40 86.73
  Q 33.32 86.73 33.16 86.59
  Q 19.43 73.96 10.24 58.11
  Q 4.73 48.63 3.13 38.79
  C -0.01 19.38 13.74 2.92 33.32 2.46
  Q 33.43 2.45 33.54 2.46
  Z
  M 33.00 49.00
  Q 43.52 49.00 43.76 48.99
  A 1.04 1.04 0.0 0 0 44.74 47.81
  L 42.39 30.64
  A 0.35 0.35 0.0 0 1 42.95 30.31
  L 44.89 31.76
  A 1.49 1.48 40.8 0 0 46.84 31.62
  L 50.94 27.52
  A 1.39 1.39 0.0 0 0 50.79 25.42
  L 41.49 18.49
  A 0.63 0.62 -49.5 0 0 40.67 18.56
  Q 37.11 22.21 33.00 22.21
  Q 28.89 22.21 25.33 18.56
  A 0.63 0.62 49.5 0 0 24.51 18.49
  L 15.21 25.42
  A 1.39 1.39 0.0 0 0 15.06 27.52
  L 19.16 31.62
  A 1.49 1.48 -40.8 0 0 21.11 31.76
  L 23.05 30.31
  A 0.35 0.35 0.0 0 1 23.61 30.64
  L 21.26 47.81
  A 1.04 1.04 0.0 0 0 22.25 48.99
  Q 22.48 49.00 33.00 49.00
  Z"
/>
<path fill="#fffef2" d="
  M 33.00 22.21
  Q 37.11 22.21 40.67 18.56
  A 0.63 0.62 -49.5 0 1 41.49 18.49
  L 50.79 25.42
  A 1.39 1.39 0.0 0 1 50.94 27.52
  L 46.84 31.62
  A 1.49 1.48 40.8 0 1 44.89 31.76
  L 42.95 30.31
  A 0.35 0.35 0.0 0 0 42.39 30.64
  L 44.74 47.81
  A 1.04 1.04 0.0 0 1 43.76 48.99
  Q 43.52 49.00 33.00 49.00
  Q 22.48 49.00 22.25 48.99
  A 1.04 1.04 0.0 0 1 21.26 47.81
  L 23.61 30.64
  A 0.35 0.35 0.0 0 0 23.05 30.31
  L 21.11 31.76
  A 1.49 1.48 -40.8 0 1 19.16 31.62
  L 15.06 27.52
  A 1.39 1.39 0.0 0 1 15.21 25.42
  L 24.51 18.49
  A 0.63 0.62 49.5 0 1 25.33 18.56
  Q 28.89 22.21 33.00 22.21
  Z
  M 35.17 29.01
  A 2.17 2.17 0.0 0 0 33.00 26.84
  A 2.17 2.17 0.0 0 0 30.83 29.01
  A 2.17 2.17 0.0 0 0 33.00 31.18
  A 2.17 2.17 0.0 0 0 35.17 29.01
  Z
  M 35.15 36.25
  A 2.16 2.16 0.0 0 0 32.99 34.09
  A 2.16 2.16 0.0 0 0 30.83 36.25
  A 2.16 2.16 0.0 0 0 32.99 38.41
  A 2.16 2.16 0.0 0 0 35.15 36.25
  Z"
/>
<circle fill="#5aab95" cx="33.00" cy="29.01" r="2.17"/>
<circle fill="#5aab95" cx="32.99" cy="36.25" r="2.16"/>
</svg>
