<?xml version="1.0" encoding="UTF-8" standalone="no"?>
<!DOCTYPE svg PUBLIC "-//W3C//DTD SVG 1.1//EN" "http://www.w3.org/Graphics/SVG/1.1/DTD/svg11.dtd">
<svg xmlns="http://www.w3.org/2000/svg" version="1.1" viewBox="0.00 0.00 66.00 88.00">
<g stroke-width="2.00" fill="none" stroke-linecap="butt">
<path stroke="#574f7b" vector-effect="non-scaling-stroke" d="
  M 33.40 86.66
  Q 33.46 86.66 33.51 86.65
  A 0.24 0.02 -41.1 0 0 33.68 86.53
  Q 43.25 78.05 52.92 64.22
  C 64.15 48.15 70.58 26.40 54.90 11.10
  C 49.33 5.67 41.57 2.51 33.54 2.49
  C 25.51 2.48 17.74 5.62 12.15 11.03
  C -3.58 26.28 2.78 48.05 13.95 64.15
  Q 23.58 78.02 33.12 86.53
  A 0.24 0.02 41.3 0 0 33.28 86.65
  Q 33.34 86.66 33.40 86.66"
/>
<path stroke="#bab3ca" vector-effect="non-scaling-stroke" d="
  M 28.86 17.08
  C 21.84 23.38 7.40 36.67 19.41 45.88
  Q 30.49 54.37 44.32 48.84
  C 50.78 46.25 54.20 37.47 47.74 32.47
  Q 42.98 28.79 34.69 24.36
  Q 31.23 22.51 29.41 17.22
  A 0.34 0.34 0.0 0 0 28.86 17.08"
/>
<path stroke="#bab3ca" vector-effect="non-scaling-stroke" d="
  M 28.17 23.42
  A 0.34 0.34 0.0 0 0 27.59 23.17
  C 25.14 25.48 17.28 32.95 20.09 36.72
  C 22.84 40.41 28.58 40.23 32.99 39.93
  C 36.13 39.71 42.01 37.54 38.88 33.40
  A 2.24 2.17 85.1 0 0 38.17 32.78
  Q 37.75 32.54 31.65 29.14
  Q 28.14 27.19 28.17 23.42"
/>
</g>
<path fill="#3a3555" d="
  M 33.78 88.00
  L 33.12 88.00
  Q 15.79 72.58 6.29 53.22
  Q 3.47 47.47 2.05 39.26
  C -0.11 26.77 4.21 15.32 14.24 7.66
  C 22.31 1.50 34.31 -0.56 44.19 3.16
  Q 60.90 9.45 64.85 26.55
  Q 66.16 32.21 64.76 40.38
  Q 63.27 49.09 57.55 58.84
  Q 47.97 75.17 33.78 88.00
  Z
  M 33.40 86.66
  Q 33.46 86.66 33.51 86.65
  A 0.24 0.02 -41.1 0 0 33.68 86.53
  Q 43.25 78.05 52.92 64.22
  C 64.15 48.15 70.58 26.40 54.90 11.10
  C 49.33 5.67 41.57 2.51 33.54 2.49
  C 25.51 2.48 17.74 5.62 12.15 11.03
  C -3.58 26.28 2.78 48.05 13.95 64.15
  Q 23.58 78.02 33.12 86.53
  A 0.24 0.02 41.3 0 0 33.28 86.65
  Q 33.34 86.66 33.40 86.66
  Z"
/>
<path fill="#7468a1" d="
  M 33.54 2.49
  C 41.57 2.51 49.33 5.67 54.90 11.10
  C 70.58 26.40 64.15 48.15 52.92 64.22
  Q 43.25 78.05 33.68 86.53
  A 0.24 0.02 -41.1 0 1 33.51 86.65
  Q 33.46 86.66 33.40 86.66
  Q 33.34 86.66 33.28 86.65
  A 0.24 0.02 41.3 0 1 33.12 86.53
  Q 23.58 78.02 13.95 64.15
  C 2.78 48.05 -3.58 26.28 12.15 11.03
  C 17.74 5.62 25.51 2.48 33.54 2.49
  Z
  M 28.86 17.08
  C 21.84 23.38 7.40 36.67 19.41 45.88
  Q 30.49 54.37 44.32 48.84
  C 50.78 46.25 54.20 37.47 47.74 32.47
  Q 42.98 28.79 34.69 24.36
  Q 31.23 22.51 29.41 17.22
  A 0.34 0.34 0.0 0 0 28.86 17.08
  Z"
/>
<path fill="#fffef2" d="
  M 29.41 17.22
  Q 31.23 22.51 34.69 24.36
  Q 42.98 28.79 47.74 32.47
  C 54.20 37.47 50.78 46.25 44.32 48.84
  Q 30.49 54.37 19.41 45.88
  C 7.40 36.67 21.84 23.38 28.86 17.08
  A 0.34 0.34 0.0 0 1 29.41 17.22
  Z
  M 28.17 23.42
  A 0.34 0.34 0.0 0 0 27.59 23.17
  C 25.14 25.48 17.28 32.95 20.09 36.72
  C 22.84 40.41 28.58 40.23 32.99 39.93
  C 36.13 39.71 42.01 37.54 38.88 33.40
  A 2.24 2.17 85.1 0 0 38.17 32.78
  Q 37.75 32.54 31.65 29.14
  Q 28.14 27.19 28.17 23.42
  Z"
/>
<path fill="#7468a1" d="
  M 28.17 23.42
  Q 28.14 27.19 31.65 29.14
  Q 37.75 32.54 38.17 32.78
  A 2.24 2.17 85.1 0 1 38.88 33.40
  C 42.01 37.54 36.13 39.71 32.99 39.93
  C 28.58 40.23 22.84 40.41 20.09 36.72
  C 17.28 32.95 25.14 25.48 27.59 23.17
  A 0.34 0.34 0.0 0 1 28.17 23.42
  Z"
/>
</svg>
