<?xml version="1.0" encoding="UTF-8" standalone="no"?>
<!DOCTYPE svg PUBLIC "-//W3C//DTD SVG 1.1//EN" "http://www.w3.org/Graphics/SVG/1.1/DTD/svg11.dtd">
<svg xmlns="http://www.w3.org/2000/svg" version="1.1" viewBox="0.00 0.00 66.00 88.00">
<g stroke-width="2.00" fill="none" stroke-linecap="butt">
<path stroke="#21303f" vector-effect="non-scaling-stroke" d="
  M 33.42 86.59
  C 33.72 86.59 33.67 86.60 33.81 86.47
  Q 47.33 74.00 56.36 58.63
  C 61.19 50.41 64.32 41.53 64.22 32.27
  C 64.05 15.63 50.01 2.55 33.50 2.53
  C 16.98 2.52 2.92 15.58 2.72 32.22
  C 2.61 41.48 5.72 50.36 10.54 58.59
  Q 19.54 73.98 33.04 86.47
  C 33.18 86.60 33.13 86.59 33.42 86.59"
/>
<path stroke="#969fa2" vector-effect="non-scaling-stroke" d="
  M 48.83 52.27
  A 0.31 0.31 0.0 0 0 49.01 51.71
  L 45.74 49.36
  A 0.31 0.31 0.0 0 1 45.62 49.18
  L 37.18 16.00
  A 0.31 0.31 0.0 0 0 36.88 15.77
  L 25.89 15.72
  A 0.31 0.31 0.0 0 0 25.71 16.29
  L 28.94 18.59
  A 0.31 0.31 0.0 0 1 29.06 18.93
  L 20.54 49.19
  A 0.31 0.31 0.0 0 1 20.42 49.36
  L 17.10 51.72
  A 0.31 0.31 0.0 0 0 17.28 52.29
  L 27.40 52.26
  A 0.31 0.31 0.0 0 0 27.61 51.72
  L 25.33 49.66
  A 0.31 0.31 0.0 0 1 25.24 49.34
  L 27.57 41.23
  A 0.31 0.31 0.0 0 1 27.86 41.01
  L 34.60 41.01
  A 0.31 0.31 0.0 0 1 34.91 41.25
  L 36.81 49.33
  A 0.31 0.31 0.0 0 1 36.69 49.65
  L 33.79 51.69
  A 0.31 0.31 0.0 0 0 33.97 52.25
  L 48.83 52.27"
/>
<path stroke="#969fa2" vector-effect="non-scaling-stroke" d="
  M 36.67 29.89
  Q 37.80 29.62 37.25 28.01
  Q 34.70 20.51 34.39 20.59
  Q 34.07 20.67 35.29 28.49
  Q 35.55 30.17 36.67 29.89"
/>
<path stroke="#969fa2" vector-effect="non-scaling-stroke" d="
  M 31.39 37.25
  Q 32.30 37.27 33.30 37.24
  A 0.56 0.55 -6.1 0 0 33.84 36.58
  Q 33.17 33.30 31.76 27.89
  Q 31.73 27.76 31.59 27.76
  Q 31.44 27.76 31.40 27.88
  Q 29.77 33.23 28.97 36.48
  A 0.56 0.55 8.5 0 0 29.47 37.16
  Q 30.48 37.23 31.39 37.25"
/>
<path stroke="#969fa2" vector-effect="non-scaling-stroke" d="
  M 37.4383 32.7972
  A 1.31 0.94 -99.3 0 0 36.7224 34.2419
  A 1.31 0.94 -99.3 0 0 37.8617 35.3828
  A 1.31 0.94 -99.3 0 0 38.5776 33.9381
  A 1.31 0.94 -99.3 0 0 37.4383 32.7972"
/>
<path stroke="#969fa2" vector-effect="non-scaling-stroke" d="
  M 41.38 47.68
  L 39.73 39.08
  A 0.93 0.93 0.0 0 0 37.89 39.24
  Q 37.86 39.76 38.40 41.05
  C 39.35 43.31 40.05 45.79 41.01 47.81
  A 0.20 0.20 0.0 0 0 41.38 47.68"
/>
</g>
<path fill="#16212b" d="
  M 33.80 88.00
  L 33.04 88.00
  C 21.75 77.74 12.13 65.68 5.65 51.56
  Q 2.20 44.05 1.60 34.89
  C 0.54 18.88 11.35 5.50 26.72 2.05
  C 41.12 -1.18 55.95 6.01 62.58 19.70
  C 66.92 28.67 65.94 39.75 62.41 48.86
  C 56.65 63.74 45.53 77.33 33.80 88.00
  Z
  M 33.42 86.59
  C 33.72 86.59 33.67 86.60 33.81 86.47
  Q 47.33 74.00 56.36 58.63
  C 61.19 50.41 64.32 41.53 64.22 32.27
  C 64.05 15.63 50.01 2.55 33.50 2.53
  C 16.98 2.52 2.92 15.58 2.72 32.22
  C 2.61 41.48 5.72 50.36 10.54 58.59
  Q 19.54 73.98 33.04 86.47
  C 33.18 86.60 33.13 86.59 33.42 86.59
  Z"
/>
<path fill="#2c3f52" d="
  M 33.50 2.53
  C 50.01 2.55 64.05 15.63 64.22 32.27
  C 64.32 41.53 61.19 50.41 56.36 58.63
  Q 47.33 74.00 33.81 86.47
  C 33.67 86.60 33.72 86.59 33.42 86.59
  C 33.13 86.59 33.18 86.60 33.04 86.47
  Q 19.54 73.98 10.54 58.59
  C 5.72 50.36 2.61 41.48 2.72 32.22
  C 2.92 15.58 16.98 2.52 33.50 2.53
  Z
  M 48.83 52.27
  A 0.31 0.31 0.0 0 0 49.01 51.71
  L 45.74 49.36
  A 0.31 0.31 0.0 0 1 45.62 49.18
  L 37.18 16.00
  A 0.31 0.31 0.0 0 0 36.88 15.77
  L 25.89 15.72
  A 0.31 0.31 0.0 0 0 25.71 16.29
  L 28.94 18.59
  A 0.31 0.31 0.0 0 1 29.06 18.93
  L 20.54 49.19
  A 0.31 0.31 0.0 0 1 20.42 49.36
  L 17.10 51.72
  A 0.31 0.31 0.0 0 0 17.28 52.29
  L 27.40 52.26
  A 0.31 0.31 0.0 0 0 27.61 51.72
  L 25.33 49.66
  A 0.31 0.31 0.0 0 1 25.24 49.34
  L 27.57 41.23
  A 0.31 0.31 0.0 0 1 27.86 41.01
  L 34.60 41.01
  A 0.31 0.31 0.0 0 1 34.91 41.25
  L 36.81 49.33
  A 0.31 0.31 0.0 0 1 36.69 49.65
  L 33.79 51.69
  A 0.31 0.31 0.0 0 0 33.97 52.25
  L 48.83 52.27
  Z"
/>
<path fill="#fffef2" d="
  M 48.83 52.27
  L 33.97 52.25
  A 0.31 0.31 0.0 0 1 33.79 51.69
  L 36.69 49.65
  A 0.31 0.31 0.0 0 0 36.81 49.33
  L 34.91 41.25
  A 0.31 0.31 0.0 0 0 34.60 41.01
  L 27.86 41.01
  A 0.31 0.31 0.0 0 0 27.57 41.23
  L 25.24 49.34
  A 0.31 0.31 0.0 0 0 25.33 49.66
  L 27.61 51.72
  A 0.31 0.31 0.0 0 1 27.40 52.26
  L 17.28 52.29
  A 0.31 0.31 0.0 0 1 17.10 51.72
  L 20.42 49.36
  A 0.31 0.31 0.0 0 0 20.54 49.19
  L 29.06 18.93
  A 0.31 0.31 0.0 0 0 28.94 18.59
  L 25.71 16.29
  A 0.31 0.31 0.0 0 1 25.89 15.72
  L 36.88 15.77
  A 0.31 0.31 0.0 0 1 37.18 16.00
  L 45.62 49.18
  A 0.31 0.31 0.0 0 0 45.74 49.36
  L 49.01 51.71
  A 0.31 0.31 0.0 0 1 48.83 52.27
  Z
  M 36.67 29.89
  Q 37.80 29.62 37.25 28.01
  Q 34.70 20.51 34.39 20.59
  Q 34.07 20.67 35.29 28.49
  Q 35.55 30.17 36.67 29.89
  Z
  M 31.39 37.25
  Q 32.30 37.27 33.30 37.24
  A 0.56 0.55 -6.1 0 0 33.84 36.58
  Q 33.17 33.30 31.76 27.89
  Q 31.73 27.76 31.59 27.76
  Q 31.44 27.76 31.40 27.88
  Q 29.77 33.23 28.97 36.48
  A 0.56 0.55 8.5 0 0 29.47 37.16
  Q 30.48 37.23 31.39 37.25
  Z
  M 37.4383 32.7972
  A 1.31 0.94 -99.3 0 0 36.7224 34.2419
  A 1.31 0.94 -99.3 0 0 37.8617 35.3828
  A 1.31 0.94 -99.3 0 0 38.5776 33.9381
  A 1.31 0.94 -99.3 0 0 37.4383 32.7972
  Z
  M 41.38 47.68
  L 39.73 39.08
  A 0.93 0.93 0.0 0 0 37.89 39.24
  Q 37.86 39.76 38.40 41.05
  C 39.35 43.31 40.05 45.79 41.01 47.81
  A 0.20 0.20 0.0 0 0 41.38 47.68
  Z"
/>
<path fill="#2c3f52" d="
  M 34.39 20.59
  Q 34.70 20.51 37.25 28.01
  Q 37.80 29.62 36.67 29.89
  Q 35.55 30.17 35.29 28.49
  Q 34.07 20.67 34.39 20.59
  Z"
/>
<path fill="#2c3f52" d="
  M 31.59 27.76
  Q 31.73 27.76 31.76 27.89
  Q 33.17 33.30 33.84 36.58
  A 0.56 0.55 -6.1 0 1 33.30 37.24
  Q 32.30 37.27 31.39 37.25
  Q 30.48 37.23 29.47 37.16
  A 0.56 0.55 8.5 0 1 28.97 36.48
  Q 29.77 33.23 31.40 27.88
  Q 31.44 27.76 31.59 27.76
  Z"
/>
<ellipse fill="#2c3f52" cx="0.00" cy="0.00" transform="translate(37.65,34.09) rotate(-99.3)" rx="1.31" ry="0.94"/>
<path fill="#2c3f52" d="
  M 41.01 47.81
  C 40.05 45.79 39.35 43.31 38.40 41.05
  Q 37.86 39.76 37.89 39.24
  A 0.93 0.93 0.0 0 1 39.73 39.08
  L 41.38 47.68
  A 0.20 0.20 0.0 0 1 41.01 47.81
  Z"
/>
</svg>
