<?xml version="1.0" encoding="UTF-8" standalone="no"?>
<!DOCTYPE svg PUBLIC "-//W3C//DTD SVG 1.1//EN" "http://www.w3.org/Graphics/SVG/1.1/DTD/svg11.dtd">
<svg xmlns="http://www.w3.org/2000/svg" version="1.1" viewBox="0.00 0.00 66.00 88.00">
<g stroke-width="2.00" fill="none" stroke-linecap="butt">
<path stroke="#173f51" vector-effect="non-scaling-stroke" d="
  M 33.42 86.61
  C 33.75 86.61 33.66 86.63 33.81 86.48
  Q 48.42 72.96 57.45 56.74
  Q 64.01 44.95 64.24 33.25
  C 64.56 16.15 50.46 2.57 33.50 2.56
  C 16.54 2.54 2.42 16.09 2.71 33.19
  Q 2.92 44.89 9.45 56.69
  Q 18.45 72.93 33.04 86.48
  C 33.19 86.62 33.10 86.61 33.42 86.61"
/>
<path stroke="#8fa9b5" vector-effect="non-scaling-stroke" d="
  M 36.61 29.91
  L 36.18 29.87
  A 0.55 0.55 0.0 0 1 35.72 29.50
  L 31.78 17.79
  A 2.13 2.12 -17.4 0 0 29.17 16.43
  L 29.11 16.45
  A 1.91 1.91 0.0 0 0 27.85 18.90
  L 31.98 31.06
  A 0.59 0.58 -11.6 0 1 31.47 31.83
  L 31.21 31.84
  A 0.73 0.73 0.0 0 1 30.52 31.39
  L 26.37 21.37
  A 1.94 1.94 0.0 0 0 23.83 20.32
  L 23.77 20.34
  A 2.02 2.02 0.0 0 0 22.68 22.95
  Q 24.94 28.52 27.08 33.92
  Q 28.69 38.02 28.77 41.79
  A 1.30 1.29 2.2 0 1 27.34 43.11
  L 20.33 42.36
  A 2.68 2.67 -75.6 0 0 17.60 43.98
  L 17.52 44.15
  A 1.38 1.37 13.6 0 0 18.69 46.06
  C 24.80 46.49 30.15 49.01 35.51 52.19
  A 2.06 2.05 50.8 0 0 37.23 52.37
  L 48.33 48.60
  A 0.62 0.62 0.0 0 0 48.73 48.16
  C 49.71 44.12 49.47 40.36 48.11 36.24
  C 46.28 30.68 45.44 24.24 44.29 18.74
  A 1.79 1.78 78.2 0 0 42.19 17.36
  L 42.10 17.38
  A 1.74 1.73 -11.1 0 0 40.72 19.42
  L 42.43 28.09
  A 0.45 0.45 0.0 0 1 42.16 28.59
  L 41.92 28.69
  A 0.28 0.28 0.0 0 1 41.55 28.52
  L 37.45 16.47
  A 1.09 1.09 0.0 0 0 36.15 15.76
  L 35.72 15.87
  A 1.87 1.86 -12.7 0 0 34.28 18.14
  L 37.06 29.40
  A 0.42 0.41 86.6 0 1 36.61 29.91"
/>
</g>
<path fill="#0e2b37" d="
  M 33.81 88.00
  L 33.15 88.00
  Q 15.61 72.48 6.00 52.51
  Q 2.31 44.85 1.62 35.22
  Q 0.94 25.68 5.27 17.99
  C 17.85 -4.37 49.95 -4.37 62.17 18.85
  C 67.42 28.83 65.85 41.29 61.31 51.54
  C 55.17 65.41 44.97 77.80 33.81 88.00
  Z
  M 33.42 86.61
  C 33.75 86.61 33.66 86.63 33.81 86.48
  Q 48.42 72.96 57.45 56.74
  Q 64.01 44.95 64.24 33.25
  C 64.56 16.15 50.46 2.57 33.50 2.56
  C 16.54 2.54 2.42 16.09 2.71 33.19
  Q 2.92 44.89 9.45 56.69
  Q 18.45 72.93 33.04 86.48
  C 33.19 86.62 33.10 86.61 33.42 86.61
  Z"
/>
<path fill="#1f526b" d="
  M 33.50 2.56
  C 50.46 2.57 64.56 16.15 64.24 33.25
  Q 64.01 44.95 57.45 56.74
  Q 48.42 72.96 33.81 86.48
  C 33.66 86.63 33.75 86.61 33.42 86.61
  C 33.10 86.61 33.19 86.62 33.04 86.48
  Q 18.45 72.93 9.45 56.69
  Q 2.92 44.89 2.71 33.19
  C 2.42 16.09 16.54 2.54 33.50 2.56
  Z
  M 36.61 29.91
  L 36.18 29.87
  A 0.55 0.55 0.0 0 1 35.72 29.50
  L 31.78 17.79
  A 2.13 2.12 -17.4 0 0 29.17 16.43
  L 29.11 16.45
  A 1.91 1.91 0.0 0 0 27.85 18.90
  L 31.98 31.06
  A 0.59 0.58 -11.6 0 1 31.47 31.83
  L 31.21 31.84
  A 0.73 0.73 0.0 0 1 30.52 31.39
  L 26.37 21.37
  A 1.94 1.94 0.0 0 0 23.83 20.32
  L 23.77 20.34
  A 2.02 2.02 0.0 0 0 22.68 22.95
  Q 24.94 28.52 27.08 33.92
  Q 28.69 38.02 28.77 41.79
  A 1.30 1.29 2.2 0 1 27.34 43.11
  L 20.33 42.36
  A 2.68 2.67 -75.6 0 0 17.60 43.98
  L 17.52 44.15
  A 1.38 1.37 13.6 0 0 18.69 46.06
  C 24.80 46.49 30.15 49.01 35.51 52.19
  A 2.06 2.05 50.8 0 0 37.23 52.37
  L 48.33 48.60
  A 0.62 0.62 0.0 0 0 48.73 48.16
  C 49.71 44.12 49.47 40.36 48.11 36.24
  C 46.28 30.68 45.44 24.24 44.29 18.74
  A 1.79 1.78 78.2 0 0 42.19 17.36
  L 42.10 17.38
  A 1.74 1.73 -11.1 0 0 40.72 19.42
  L 42.43 28.09
  A 0.45 0.45 0.0 0 1 42.16 28.59
  L 41.92 28.69
  A 0.28 0.28 0.0 0 1 41.55 28.52
  L 37.45 16.47
  A 1.09 1.09 0.0 0 0 36.15 15.76
  L 35.72 15.87
  A 1.87 1.86 -12.7 0 0 34.28 18.14
  L 37.06 29.40
  A 0.42 0.41 86.6 0 1 36.61 29.91
  Z"
/>
<path fill="#ffffff" d="
  M 37.06 29.40
  L 34.28 18.14
  A 1.87 1.86 -12.7 0 1 35.72 15.87
  L 36.15 15.76
  A 1.09 1.09 0.0 0 1 37.45 16.47
  L 41.55 28.52
  A 0.28 0.28 0.0 0 0 41.92 28.69
  L 42.16 28.59
  A 0.45 0.45 0.0 0 0 42.43 28.09
  L 40.72 19.42
  A 1.74 1.73 -11.1 0 1 42.10 17.38
  L 42.19 17.36
  A 1.79 1.78 78.2 0 1 44.29 18.74
  C 45.44 24.24 46.28 30.68 48.11 36.24
  C 49.47 40.36 49.71 44.12 48.73 48.16
  A 0.62 0.62 0.0 0 1 48.33 48.60
  L 37.23 52.37
  A 2.06 2.05 50.8 0 1 35.51 52.19
  C 30.15 49.01 24.80 46.49 18.69 46.06
  A 1.38 1.37 13.6 0 1 17.52 44.15
  L 17.60 43.98
  A 2.68 2.67 -75.6 0 1 20.33 42.36
  L 27.34 43.11
  A 1.30 1.29 2.2 0 0 28.77 41.79
  Q 28.69 38.02 27.08 33.92
  Q 24.94 28.52 22.68 22.95
  A 2.02 2.02 0.0 0 1 23.77 20.34
  L 23.83 20.32
  A 1.94 1.94 0.0 0 1 26.37 21.37
  L 30.52 31.39
  A 0.73 0.73 0.0 0 0 31.21 31.84
  L 31.47 31.83
  A 0.59 0.58 -11.6 0 0 31.98 31.06
  L 27.85 18.90
  A 1.91 1.91 0.0 0 1 29.11 16.45
  L 29.17 16.43
  A 2.13 2.12 -17.4 0 1 31.78 17.79
  L 35.72 29.50
  A 0.55 0.55 0.0 0 0 36.18 29.87
  L 36.61 29.91
  A 0.42 0.41 86.6 0 0 37.06 29.40
  Z"
/>
</svg>
