<?xml version="1.0" encoding="UTF-8" standalone="no"?>
<!DOCTYPE svg PUBLIC "-//W3C//DTD SVG 1.1//EN" "http://www.w3.org/Graphics/SVG/1.1/DTD/svg11.dtd">
<svg xmlns="http://www.w3.org/2000/svg" version="1.1" viewBox="0.00 0.00 66.00 88.00">
<g stroke-width="2.00" fill="none" stroke-linecap="butt">
<path stroke="#431a44" vector-effect="non-scaling-stroke" d="
  M 33.42 86.53
  Q 33.69 86.53 33.88 86.35
  C 47.24 73.99 61.14 56.23 63.88 38.46
  C 66.84 19.25 53.12 3.10 33.75 2.46
  Q 33.56 2.45 33.48 2.45
  Q 33.40 2.45 33.22 2.46
  C 13.85 3.07 0.10 19.20 3.03 38.41
  C 5.75 56.19 19.62 73.97 32.97 86.35
  Q 33.15 86.52 33.42 86.53"
/>
<path stroke="#ac91ac" vector-effect="non-scaling-stroke" d="
  M 50.98 16.69
  A 0.14 0.14 0.0 0 0 50.74 16.54
  C 42.13 26.57 32.03 34.45 20.67 41.90
  Q 18.70 43.20 17.41 45.77
  A 3.52 3.33 -53.3 0 0 17.86 49.60
  Q 20.88 52.97 25.75 52.03
  C 31.50 50.91 34.91 46.45 38.59 40.99
  C 43.60 33.54 47.33 24.78 50.98 16.69"
/>
<path stroke="#ac91ac" vector-effect="non-scaling-stroke" d="
  M 45.55 20.14
  Q 37.16 26.81 28.37 30.35
  Q 20.36 33.59 18.51 34.67
  A 5.18 4.93 5.5 0 0 17.40 35.54
  Q 13.24 39.85 15.52 46.36
  A 0.22 0.22 0.0 0 0 15.93 46.37
  Q 17.15 43.28 20.04 41.05
  Q 20.65 40.59 28.85 34.85
  Q 37.72 28.65 45.83 20.43
  A 0.19 0.18 -43.9 0 0 45.84 20.17
  L 45.83 20.16
  A 0.21 0.20 -38.6 0 0 45.55 20.14"
/>
</g>
<path fill="#2e112e" d="
  M 33.81 88.00
  L 33.04 88.00
  C 21.72 77.71 12.19 65.75 5.68 51.55
  Q 2.12 43.81 1.57 34.89
  C 0.58 18.94 11.03 5.93 26.41 2.09
  Q 34.19 0.14 43.11 2.80
  Q 51.39 5.27 57.16 11.66
  Q 68.30 24.01 64.56 41.21
  Q 61.81 53.85 53.58 65.57
  Q 45.00 77.81 33.81 88.00
  Z
  M 33.42 86.53
  Q 33.69 86.53 33.88 86.35
  C 47.24 73.99 61.14 56.23 63.88 38.46
  C 66.84 19.25 53.12 3.10 33.75 2.46
  Q 33.56 2.45 33.48 2.45
  Q 33.40 2.45 33.22 2.46
  C 13.85 3.07 0.10 19.20 3.03 38.41
  C 5.75 56.19 19.62 73.97 32.97 86.35
  Q 33.15 86.52 33.42 86.53
  Z"
/>
<path fill="#582359" d="
  M 33.48 2.45
  Q 33.56 2.45 33.75 2.46
  C 53.12 3.10 66.84 19.25 63.88 38.46
  C 61.14 56.23 47.24 73.99 33.88 86.35
  Q 33.69 86.53 33.42 86.53
  Q 33.15 86.52 32.97 86.35
  C 19.62 73.97 5.75 56.19 3.03 38.41
  C 0.10 19.20 13.85 3.07 33.22 2.46
  Q 33.40 2.45 33.48 2.45
  Z
  M 50.98 16.69
  A 0.14 0.14 0.0 0 0 50.74 16.54
  C 42.13 26.57 32.03 34.45 20.67 41.90
  Q 18.70 43.20 17.41 45.77
  A 3.52 3.33 -53.3 0 0 17.86 49.60
  Q 20.88 52.97 25.75 52.03
  C 31.50 50.91 34.91 46.45 38.59 40.99
  C 43.60 33.54 47.33 24.78 50.98 16.69
  Z
  M 45.55 20.14
  Q 37.16 26.81 28.37 30.35
  Q 20.36 33.59 18.51 34.67
  A 5.18 4.93 5.5 0 0 17.40 35.54
  Q 13.24 39.85 15.52 46.36
  A 0.22 0.22 0.0 0 0 15.93 46.37
  Q 17.15 43.28 20.04 41.05
  Q 20.65 40.59 28.85 34.85
  Q 37.72 28.65 45.83 20.43
  A 0.19 0.18 -43.9 0 0 45.84 20.17
  L 45.83 20.16
  A 0.21 0.20 -38.6 0 0 45.55 20.14
  Z"
/>
<path fill="#ffffff" d="
  M 50.98 16.69
  C 47.33 24.78 43.60 33.54 38.59 40.99
  C 34.91 46.45 31.50 50.91 25.75 52.03
  Q 20.88 52.97 17.86 49.60
  A 3.52 3.33 -53.3 0 1 17.41 45.77
  Q 18.70 43.20 20.67 41.90
  C 32.03 34.45 42.13 26.57 50.74 16.54
  A 0.14 0.14 0.0 0 1 50.98 16.69
  Z"
/>
<path fill="#ffffff" d="
  M 45.55 20.14
  A 0.21 0.20 -38.6 0 1 45.83 20.16
  L 45.84 20.17
  A 0.19 0.18 -43.9 0 1 45.83 20.43
  Q 37.72 28.65 28.85 34.85
  Q 20.65 40.59 20.04 41.05
  Q 17.15 43.28 15.93 46.37
  A 0.22 0.22 0.0 0 1 15.52 46.36
  Q 13.24 39.85 17.40 35.54
  A 5.18 4.93 5.5 0 1 18.51 34.67
  Q 20.36 33.59 28.37 30.35
  Q 37.16 26.81 45.55 20.14
  Z"
/>
</svg>
