<?xml version="1.0" encoding="UTF-8" standalone="no"?>
<!DOCTYPE svg PUBLIC "-//W3C//DTD SVG 1.1//EN" "http://www.w3.org/Graphics/SVG/1.1/DTD/svg11.dtd">
<svg xmlns="http://www.w3.org/2000/svg" version="1.1" viewBox="0.00 0.00 66.00 88.00">
<g stroke-width="2.00" fill="none" stroke-linecap="butt">
<path stroke="#431a44" vector-effect="non-scaling-stroke" d="
  M 33.42 86.53
  Q 33.74 86.53 33.90 86.38
  C 48.02 73.11 63.75 53.60 64.23 33.29
  C 64.64 16.41 51.10 3.42 34.50 2.48
  Q 33.92 2.45 33.48 2.45
  Q 33.04 2.45 32.45 2.48
  C 15.85 3.40 2.29 16.37 2.68 33.25
  C 3.14 53.56 18.84 73.09 32.94 86.38
  Q 33.11 86.53 33.42 86.53"
/>
<path stroke="#aa8eab" vector-effect="non-scaling-stroke" d="
  M 49.53 33.50
  Q 49.94 31.21 49.39 29.03
  A 0.24 0.24 0.0 0 0 48.92 29.10
  Q 48.99 31.06 48.10 32.69
  A 0.50 0.50 0.0 0 0 48.51 33.43
  L 49.53 33.50"
/>
<path stroke="#aa8eab" vector-effect="non-scaling-stroke" d="
  M 49.53 33.50
  Q 47.77 35.44 45.75 36.60
  A 0.43 0.42 8.8 0 1 45.25 35.92
  Q 46.91 34.40 47.76 34.16
  A 0.28 0.28 0.0 0 0 47.79 33.64
  Q 46.87 33.25 45.97 34.03
  A 0.26 0.26 0.0 0 1 45.54 33.84
  Q 45.53 33.28 45.97 32.49
  Q 46.12 32.22 46.61 32.12
  Q 47.13 32.01 47.34 31.90
  Q 47.81 31.67 47.86 30.93
  Q 47.96 29.24 48.66 28.45
  A 0.90 0.89 -39.8 0 0 48.76 27.38
  Q 47.00 24.45 47.19 23.13
  A 0.53 0.52 5.6 0 0 46.70 22.54
  C 45.08 22.44 43.13 20.15 41.69 19.23
  A 0.54 0.53 -60.1 0 0 40.93 19.44
  Q 40.66 19.98 39.81 20.01
  A 1.42 1.40 -67.9 0 0 38.88 20.41
  L 37.78 21.52
  A 1.11 1.10 37.5 0 1 36.44 21.69
  Q 35.26 20.99 33.49 20.86
  A 0.20 0.20 0.0 0 1 33.43 20.47
  Q 34.82 19.89 35.60 18.94
  A 1.91 1.90 16.0 0 1 36.87 18.24
  L 38.52 18.05
  A 0.39 0.38 31.6 0 1 38.70 18.79
  Q 37.82 19.11 36.78 19.15
  Q 36.31 19.17 35.98 19.54
  Q 35.61 19.97 35.42 20.44
  A 0.29 0.29 0.0 0 0 35.79 20.83
  L 40.46 19.16
  A 0.38 0.37 40.4 0 0 40.40 18.44
  Q 38.85 18.15 37.87 17.46
  A 1.76 1.72 -26.7 0 0 36.86 17.14
  Q 34.74 17.16 32.98 15.95
  A 0.65 0.64 36.0 0 0 32.10 16.08
  Q 32.02 16.17 31.92 16.29
  A 1.60 1.59 16.5 0 1 31.01 16.78
  Q 27.03 17.46 26.93 17.64
  A 0.33 0.33 0.0 0 0 27.30 18.12
  Q 28.67 17.77 31.52 20.43
  A 0.33 0.33 0.0 0 1 31.37 20.99
  Q 29.89 21.32 29.57 20.13
  A 0.92 0.92 0.0 0 0 28.75 19.45
  Q 26.75 19.30 26.06 18.55
  A 0.85 0.84 52.5 0 0 24.99 18.40
  L 18.77 22.30
  A 1.17 1.13 -5.1 0 0 18.33 22.81
  L 15.68 29.09
  A 2.01 1.75 -34.0 0 0 15.54 29.62
  L 14.60 38.13
  A 0.71 0.70 20.1 0 0 14.92 38.80
  Q 15.60 39.25 15.70 39.52
  Q 17.55 44.90 21.16 47.62
  Q 23.55 49.42 24.15 50.55
  A 0.71 0.69 -23.7 0 0 25.00 50.87
  L 25.52 50.68
  A 1.05 1.02 43.3 0 1 26.19 50.67
  Q 31.97 52.55 36.35 51.48
  Q 39.26 50.77 39.85 51.05
  A 0.55 0.55 0.0 0 0 40.55 50.85
  L 41.12 49.92
  A 2.07 2.04 89.5 0 1 41.74 49.28
  Q 46.90 45.78 49.09 40.28
  A 2.70 2.65 82.2 0 1 49.94 39.14
  Q 49.95 39.13 50.13 39.04
  A 0.66 0.66 0.0 0 0 50.36 38.04
  Q 49.81 37.33 50.06 34.16
  Q 50.10 33.66 49.83 33.41
  Q 49.66 33.25 49.53 33.50"
/>
<path stroke="#aa8eab" vector-effect="non-scaling-stroke" d="
  M 32.54 19.79
  Q 32.97 19.82 33.69 18.92
  A 0.71 0.71 0.0 0 0 33.68 18.03
  Q 33.06 17.26 32.73 17.24
  Q 32.39 17.22 31.67 17.89
  A 0.71 0.71 0.0 0 0 31.54 18.76
  Q 32.12 19.76 32.54 19.79"
/>
<path stroke="#aa8eab" vector-effect="non-scaling-stroke" d="
  M 24.32 20.09
  Q 25.54 19.88 25.87 19.57
  A 0.26 0.26 0.0 0 0 25.72 19.11
  Q 24.29 18.98 23.96 19.59
  A 0.34 0.34 0.0 0 0 24.32 20.09"
/>
<path stroke="#aa8eab" vector-effect="non-scaling-stroke" d="
  M 26.75 20.67
  Q 27.74 21.61 28.85 21.75
  A 0.28 0.28 0.0 0 0 29.14 21.36
  Q 28.32 19.45 26.89 19.97
  A 0.42 0.42 0.0 0 0 26.75 20.67"
/>
<path stroke="#aa8eab" vector-effect="non-scaling-stroke" d="
  M 19.53 27.43
  Q 19.90 28.10 19.67 28.62
  A 0.42 0.42 0.0 0 1 18.96 28.71
  Q 18.52 28.15 18.57 27.34
  A 0.45 0.45 0.0 0 0 18.08 26.87
  Q 17.59 26.92 17.29 27.15
  A 0.48 0.48 0.0 0 0 17.26 27.89
  Q 18.15 28.70 18.10 29.73
  A 0.48 0.47 -8.0 0 0 18.73 30.20
  Q 20.14 29.70 20.48 28.92
  Q 22.04 25.33 25.19 23.27
  Q 26.10 22.68 25.64 21.29
  A 0.37 0.35 -4.9 0 0 25.34 21.05
  L 24.38 20.94
  A 0.33 0.33 0.0 0 0 24.09 21.48
  Q 24.49 21.96 24.48 22.81
  A 0.47 0.47 0.0 0 1 23.61 23.04
  L 23.17 22.27
  A 0.76 0.75 55.1 0 1 23.34 21.30
  Q 23.85 20.88 23.93 20.62
  A 0.59 0.49 -26.7 0 0 22.88 20.38
  Q 22.29 21.36 22.43 22.01
  Q 23.27 25.92 19.84 26.74
  A 0.47 0.47 0.0 0 0 19.53 27.43"
/>
<path stroke="#aa8eab" vector-effect="non-scaling-stroke" d="
  M 41.02 20.53
  Q 40.77 20.83 40.25 21.00
  A 1.73 1.49 50.4 0 0 40.20 23.89
  Q 43.22 25.96 44.33 28.49
  Q 44.47 28.80 44.67 28.83
  Q 44.99 28.86 45.23 28.45
  A 0.69 0.67 18.9 0 1 45.94 28.11
  Q 47.48 28.38 47.98 28.22
  A 0.24 0.23 -28.8 0 0 48.09 27.85
  L 47.47 27.08
  A 0.08 0.08 0.0 0 0 47.39 27.05
  C 44.82 27.56 42.21 26.38 42.70 23.49
  Q 42.88 22.39 42.79 21.09
  A 1.00 1.00 0.0 0 0 41.02 20.53"
/>
<path stroke="#aa8eab" vector-effect="non-scaling-stroke" d="
  M 44.86 34.25
  A 12.37 12.37 0.0 0 0 32.49 21.88
  A 12.37 12.37 0.0 0 0 20.12 34.25
  A 12.37 12.37 0.0 0 0 32.49 46.62
  A 12.37 12.37 0.0 0 0 44.86 34.25"
/>
<path stroke="#aa8eab" vector-effect="non-scaling-stroke" d="
  M 19.69 25.42
  Q 20.42 25.77 21.43 24.51
  A 0.57 0.56 -41.2 0 0 21.48 23.86
  Q 21.17 23.35 20.77 23.16
  Q 20.37 22.97 19.78 23.05
  A 0.57 0.56 -87.6 0 0 19.30 23.49
  Q 18.96 25.07 19.69 25.42"
/>
<path stroke="#aa8eab" vector-effect="non-scaling-stroke" d="
  M 44.5041 23.2795
  A 1.31 1.09 -111.3 0 0 43.9645 24.8959
  A 1.31 1.09 -111.3 0 0 45.4559 25.7205
  A 1.31 1.09 -111.3 0 0 45.9955 24.1041
  A 1.31 1.09 -111.3 0 0 44.5041 23.2795"
/>
<path stroke="#aa8eab" vector-effect="non-scaling-stroke" d="
  M 16.59 28.90
  A 0.18 0.17 -51.2 0 0 16.25 28.94
  Q 15.79 32.39 18.50 33.73
  A 0.69 0.69 0.0 0 0 19.32 32.66
  Q 18.53 31.75 17.82 31.56
  A 0.56 0.56 0.0 0 1 17.42 31.20
  L 16.59 28.90"
/>
<path stroke="#aa8eab" vector-effect="non-scaling-stroke" d="
  M 46.6679 28.9448
  A 0.95 0.79 -59.1 0 0 45.5021 29.3543
  A 0.95 0.79 -59.1 0 0 45.6921 30.5752
  A 0.95 0.79 -59.1 0 0 46.8579 30.1657
  A 0.95 0.79 -59.1 0 0 46.6679 28.9448"
/>
<path stroke="#aa8eab" vector-effect="non-scaling-stroke" d="
  M 19.55 36.48
  Q 19.78 35.61 18.83 34.94
  Q 17.63 34.11 16.91 33.39
  Q 16.64 33.11 16.23 33.34
  A 0.45 0.44 46.7 0 0 16.21 34.10
  Q 19.20 36.05 19.26 36.46
  A 0.15 0.15 0.0 0 0 19.55 36.48"
/>
<path stroke="#aa8eab" vector-effect="non-scaling-stroke" d="
  M 18.28 37.54
  A 1.15 1.15 0.0 0 0 17.13 36.39
  A 1.15 1.15 0.0 0 0 15.98 37.54
  A 1.15 1.15 0.0 0 0 17.13 38.69
  A 1.15 1.15 0.0 0 0 18.28 37.54"
/>
<path stroke="#aa8eab" vector-effect="non-scaling-stroke" d="
  M 48.13 38.98
  Q 49.00 38.73 48.78 37.29
  A 0.66 0.65 83.9 0 0 48.10 36.74
  Q 47.91 36.75 47.53 36.86
  Q 47.14 36.96 46.98 37.06
  A 0.66 0.65 64.5 0 0 46.69 37.88
  Q 47.26 39.22 48.13 38.98"
/>
<path stroke="#aa8eab" vector-effect="non-scaling-stroke" d="
  M 20.08 39.99
  Q 20.09 40.75 19.29 41.15
  A 0.52 0.52 0.0 0 0 19.15 41.99
  L 20.20 43.04
  A 0.38 0.38 0.0 0 0 20.85 42.83
  Q 20.97 42.09 20.52 41.73
  A 0.38 0.37 -39.8 0 1 20.58 41.11
  Q 21.09 40.83 21.00 40.17
  Q 20.95 39.85 20.44 39.47
  Q 19.84 39.03 19.94 37.59
  A 0.23 0.22 -84.5 0 0 19.75 37.35
  L 19.71 37.34
  A 0.27 0.26 -76.5 0 0 19.41 37.53
  Q 18.75 39.78 17.52 41.22
  A 0.79 0.78 -40.1 0 0 17.44 42.11
  Q 19.24 45.19 21.52 46.96
  A 0.55 0.55 0.0 0 0 22.02 47.04
  L 25.76 45.70
  A 0.10 0.10 0.0 0 0 25.78 45.53
  L 22.84 43.45
  A 0.92 0.91 42.3 0 0 21.74 43.50
  Q 21.29 43.88 20.89 44.76
  A 0.51 0.51 0.0 0 1 19.99 44.80
  L 18.28 41.84
  A 0.68 0.66 52.6 0 1 18.38 41.03
  L 19.62 39.80
  A 0.27 0.27 0.0 0 1 20.08 39.99"
/>
<path stroke="#aa8eab" vector-effect="non-scaling-stroke" d="
  M 44.50 43.48
  A 0.13 0.12 43.6 0 0 44.72 43.48
  Q 45.37 42.17 46.18 41.91
  A 0.40 0.39 -78.5 0 1 46.59 42.54
  L 43.98 45.72
  A 0.62 0.62 0.0 0 1 43.03 45.72
  Q 43.01 45.71 42.98 45.67
  A 0.73 0.72 -42.0 0 0 41.94 45.62
  Q 41.18 46.32 40.58 45.36
  A 0.60 0.60 0.0 0 0 39.68 45.24
  Q 38.20 46.60 33.68 47.62
  A 0.92 0.92 0.0 0 0 33.80 49.43
  Q 33.91 49.44 34.74 48.18
  A 0.55 0.54 30.1 0 1 35.46 47.99
  Q 35.81 48.18 35.84 48.80
  A 0.55 0.54 76.8 0 1 35.52 49.33
  Q 33.46 50.23 31.69 50.12
  A 0.51 0.50 -89.4 0 1 31.22 49.63
  Q 31.21 49.44 31.51 49.11
  A 0.95 0.90 19.2 0 0 30.73 47.60
  Q 28.92 47.65 27.41 46.36
  A 0.25 0.25 0.0 0 0 27.04 46.69
  C 27.42 47.26 28.15 47.59 28.20 48.55
  Q 28.26 49.55 29.09 50.65
  A 0.79 0.79 0.0 0 0 29.93 50.94
  Q 31.70 50.48 34.38 50.90
  A 1.61 1.61 0.0 0 0 36.18 49.75
  Q 36.70 47.93 37.96 46.55
  A 0.72 0.70 24.0 0 1 38.56 46.33
  L 43.38 46.86
  A 0.60 0.59 -63.3 0 0 43.88 46.69
  L 47.51 43.06
  A 0.56 0.55 -35.6 0 0 47.62 42.43
  L 45.47 38.02
  A 0.06 0.06 0.0 0 0 45.37 38.02
  L 43.51 41.54
  A 0.23 0.23 0.0 0 0 43.51 41.76
  L 44.50 43.48"
/>
<path stroke="#aa8eab" vector-effect="non-scaling-stroke" d="
  M 42.32 44.56
  Q 42.68 44.54 43.56 44.94
  A 0.33 0.33 0.0 0 0 43.95 44.43
  Q 43.31 43.67 42.28 43.72
  Q 41.25 43.77 40.69 44.58
  A 0.33 0.33 0.0 0 0 41.13 45.06
  Q 41.96 44.57 42.32 44.56"
/>
<path stroke="#aa8eab" vector-effect="non-scaling-stroke" d="
  M 26.69 48.37
  A 1.16 1.16 0.0 0 0 25.53 47.21
  A 1.16 1.16 0.0 0 0 24.37 48.37
  A 1.16 1.16 0.0 0 0 25.53 49.53
  A 1.16 1.16 0.0 0 0 26.69 48.37"
/>
<path stroke="#aa8eab" vector-effect="non-scaling-stroke" d="
  M 40.40 48.66
  A 1.20 1.20 0.0 0 0 39.20 47.46
  A 1.20 1.20 0.0 0 0 38.00 48.66
  A 1.20 1.20 0.0 0 0 39.20 49.86
  A 1.20 1.20 0.0 0 0 40.40 48.66"
/>
<path stroke="#aa8eab" vector-effect="non-scaling-stroke" d="
  M 40.38 22.46
  Q 40.37 23.32 41.52 23.87
  A 0.22 0.22 0.0 0 0 41.83 23.61
  Q 41.54 22.61 41.54 22.47
  Q 41.54 22.32 41.85 21.33
  A 0.22 0.22 0.0 0 0 41.55 21.07
  Q 40.39 21.59 40.38 22.46"
/>
<path stroke="#aa8eab" vector-effect="non-scaling-stroke" d="
  M 22.39 44.36
  Q 21.68 44.45 20.99 45.61
  A 0.35 0.35 0.0 0 0 21.47 46.09
  Q 22.47 45.51 22.52 45.51
  Q 22.57 45.50 23.68 45.84
  A 0.35 0.35 0.0 0 0 24.04 45.26
  Q 23.11 44.28 22.39 44.36"
/>
<path stroke="#aa8eab" vector-effect="non-scaling-stroke" d="
  M 44.28 41.59
  Q 45.21 41.78 45.98 40.95
  Q 46.30 40.60 45.80 40.06
  A 0.36 0.36 0.0 0 0 45.24 40.09
  Q 44.58 41.00 44.24 41.13
  A 0.24 0.24 0.0 0 0 44.28 41.59"
/>
<path stroke="#aa8eab" vector-effect="non-scaling-stroke" d="
  M 30.82 48.79
  Q 30.57 48.35 29.82 48.14
  A 0.55 0.54 10.9 0 0 29.13 48.60
  Q 29.00 49.65 29.38 49.77
  A 1.07 0.78 1.6 0 0 30.82 48.79"
/>
</g>
<path fill="#2e112e" d="
  M 33.80 88.00
  L 33.04 88.00
  C 21.72 77.71 12.19 65.75 5.68 51.55
  Q 2.13 43.81 1.57 34.89
  C 0.56 18.86 11.16 5.76 26.63 2.05
  C 37.14 -0.46 49.26 3.22 56.80 11.28
  C 79.82 35.86 52.21 71.27 33.80 88.00
  Z
  M 33.42 86.53
  Q 33.74 86.53 33.90 86.38
  C 48.02 73.11 63.75 53.60 64.23 33.29
  C 64.64 16.41 51.10 3.42 34.50 2.48
  Q 33.92 2.45 33.48 2.45
  Q 33.04 2.45 32.45 2.48
  C 15.85 3.40 2.29 16.37 2.68 33.25
  C 3.14 53.56 18.84 73.09 32.94 86.38
  Q 33.11 86.53 33.42 86.53
  Z"
/>
<path fill="#582359" d="
  M 33.48 2.45
  Q 33.92 2.45 34.50 2.48
  C 51.10 3.42 64.64 16.41 64.23 33.29
  C 63.75 53.60 48.02 73.11 33.90 86.38
  Q 33.74 86.53 33.42 86.53
  Q 33.11 86.53 32.94 86.38
  C 18.84 73.09 3.14 53.56 2.68 33.25
  C 2.29 16.37 15.85 3.40 32.45 2.48
  Q 33.04 2.45 33.48 2.45
  Z
  M 49.53 33.50
  Q 49.94 31.21 49.39 29.03
  A 0.24 0.24 0.0 0 0 48.92 29.10
  Q 48.99 31.06 48.10 32.69
  A 0.50 0.50 0.0 0 0 48.51 33.43
  L 49.53 33.50
  Q 47.77 35.44 45.75 36.60
  A 0.43 0.42 8.8 0 1 45.25 35.92
  Q 46.91 34.40 47.76 34.16
  A 0.28 0.28 0.0 0 0 47.79 33.64
  Q 46.87 33.25 45.97 34.03
  A 0.26 0.26 0.0 0 1 45.54 33.84
  Q 45.53 33.28 45.97 32.49
  Q 46.12 32.22 46.61 32.12
  Q 47.13 32.01 47.34 31.90
  Q 47.81 31.67 47.86 30.93
  Q 47.96 29.24 48.66 28.45
  A 0.90 0.89 -39.8 0 0 48.76 27.38
  Q 47.00 24.45 47.19 23.13
  A 0.53 0.52 5.6 0 0 46.70 22.54
  C 45.08 22.44 43.13 20.15 41.69 19.23
  A 0.54 0.53 -60.1 0 0 40.93 19.44
  Q 40.66 19.98 39.81 20.01
  A 1.42 1.40 -67.9 0 0 38.88 20.41
  L 37.78 21.52
  A 1.11 1.10 37.5 0 1 36.44 21.69
  Q 35.26 20.99 33.49 20.86
  A 0.20 0.20 0.0 0 1 33.43 20.47
  Q 34.82 19.89 35.60 18.94
  A 1.91 1.90 16.0 0 1 36.87 18.24
  L 38.52 18.05
  A 0.39 0.38 31.6 0 1 38.70 18.79
  Q 37.82 19.11 36.78 19.15
  Q 36.31 19.17 35.98 19.54
  Q 35.61 19.97 35.42 20.44
  A 0.29 0.29 0.0 0 0 35.79 20.83
  L 40.46 19.16
  A 0.38 0.37 40.4 0 0 40.40 18.44
  Q 38.85 18.15 37.87 17.46
  A 1.76 1.72 -26.7 0 0 36.86 17.14
  Q 34.74 17.16 32.98 15.95
  A 0.65 0.64 36.0 0 0 32.10 16.08
  Q 32.02 16.17 31.92 16.29
  A 1.60 1.59 16.5 0 1 31.01 16.78
  Q 27.03 17.46 26.93 17.64
  A 0.33 0.33 0.0 0 0 27.30 18.12
  Q 28.67 17.77 31.52 20.43
  A 0.33 0.33 0.0 0 1 31.37 20.99
  Q 29.89 21.32 29.57 20.13
  A 0.92 0.92 0.0 0 0 28.75 19.45
  Q 26.75 19.30 26.06 18.55
  A 0.85 0.84 52.5 0 0 24.99 18.40
  L 18.77 22.30
  A 1.17 1.13 -5.1 0 0 18.33 22.81
  L 15.68 29.09
  A 2.01 1.75 -34.0 0 0 15.54 29.62
  L 14.60 38.13
  A 0.71 0.70 20.1 0 0 14.92 38.80
  Q 15.60 39.25 15.70 39.52
  Q 17.55 44.90 21.16 47.62
  Q 23.55 49.42 24.15 50.55
  A 0.71 0.69 -23.7 0 0 25.00 50.87
  L 25.52 50.68
  A 1.05 1.02 43.3 0 1 26.19 50.67
  Q 31.97 52.55 36.35 51.48
  Q 39.26 50.77 39.85 51.05
  A 0.55 0.55 0.0 0 0 40.55 50.85
  L 41.12 49.92
  A 2.07 2.04 89.5 0 1 41.74 49.28
  Q 46.90 45.78 49.09 40.28
  A 2.70 2.65 82.2 0 1 49.94 39.14
  Q 49.95 39.13 50.13 39.04
  A 0.66 0.66 0.0 0 0 50.36 38.04
  Q 49.81 37.33 50.06 34.16
  Q 50.10 33.66 49.83 33.41
  Q 49.66 33.25 49.53 33.50
  Z"
/>
<path fill="#fcf8fd" d="
  M 49.53 33.50
  Q 49.66 33.25 49.83 33.41
  Q 50.10 33.66 50.06 34.16
  Q 49.81 37.33 50.36 38.04
  A 0.66 0.66 0.0 0 1 50.13 39.04
  Q 49.95 39.13 49.94 39.14
  A 2.70 2.65 82.2 0 0 49.09 40.28
  Q 46.90 45.78 41.74 49.28
  A 2.07 2.04 89.5 0 0 41.12 49.92
  L 40.55 50.85
  A 0.55 0.55 0.0 0 1 39.85 51.05
  Q 39.26 50.77 36.35 51.48
  Q 31.97 52.55 26.19 50.67
  A 1.05 1.02 43.3 0 0 25.52 50.68
  L 25.00 50.87
  A 0.71 0.69 -23.7 0 1 24.15 50.55
  Q 23.55 49.42 21.16 47.62
  Q 17.55 44.90 15.70 39.52
  Q 15.60 39.25 14.92 38.80
  A 0.71 0.70 20.1 0 1 14.60 38.13
  L 15.54 29.62
  A 2.01 1.75 -34.0 0 1 15.68 29.09
  L 18.33 22.81
  A 1.17 1.13 -5.1 0 1 18.77 22.30
  L 24.99 18.40
  A 0.85 0.84 52.5 0 1 26.06 18.55
  Q 26.75 19.30 28.75 19.45
  A 0.92 0.92 0.0 0 1 29.57 20.13
  Q 29.89 21.32 31.37 20.99
  A 0.33 0.33 0.0 0 0 31.52 20.43
  Q 28.67 17.77 27.30 18.12
  A 0.33 0.33 0.0 0 1 26.93 17.64
  Q 27.03 17.46 31.01 16.78
  A 1.60 1.59 16.5 0 0 31.92 16.29
  Q 32.02 16.17 32.10 16.08
  A 0.65 0.64 36.0 0 1 32.98 15.95
  Q 34.74 17.16 36.86 17.14
  A 1.76 1.72 -26.7 0 1 37.87 17.46
  Q 38.85 18.15 40.40 18.44
  A 0.38 0.37 40.4 0 1 40.46 19.16
  L 35.79 20.83
  A 0.29 0.29 0.0 0 1 35.42 20.44
  Q 35.61 19.97 35.98 19.54
  Q 36.31 19.17 36.78 19.15
  Q 37.82 19.11 38.70 18.79
  A 0.39 0.38 31.6 0 0 38.52 18.05
  L 36.87 18.24
  A 1.91 1.90 16.0 0 0 35.60 18.94
  Q 34.82 19.89 33.43 20.47
  A 0.20 0.20 0.0 0 0 33.49 20.86
  Q 35.26 20.99 36.44 21.69
  A 1.11 1.10 37.5 0 0 37.78 21.52
  L 38.88 20.41
  A 1.42 1.40 -67.9 0 1 39.81 20.01
  Q 40.66 19.98 40.93 19.44
  A 0.54 0.53 -60.1 0 1 41.69 19.23
  C 43.13 20.15 45.08 22.44 46.70 22.54
  A 0.53 0.52 5.6 0 1 47.19 23.13
  Q 47.00 24.45 48.76 27.38
  A 0.90 0.89 -39.8 0 1 48.66 28.45
  Q 47.96 29.24 47.86 30.93
  Q 47.81 31.67 47.34 31.90
  Q 47.13 32.01 46.61 32.12
  Q 46.12 32.22 45.97 32.49
  Q 45.53 33.28 45.54 33.84
  A 0.26 0.26 0.0 0 0 45.97 34.03
  Q 46.87 33.25 47.79 33.64
  A 0.28 0.28 0.0 0 1 47.76 34.16
  Q 46.91 34.40 45.25 35.92
  A 0.43 0.42 8.8 0 0 45.75 36.60
  Q 47.77 35.44 49.53 33.50
  Z
  M 32.54 19.79
  Q 32.97 19.82 33.69 18.92
  A 0.71 0.71 0.0 0 0 33.68 18.03
  Q 33.06 17.26 32.73 17.24
  Q 32.39 17.22 31.67 17.89
  A 0.71 0.71 0.0 0 0 31.54 18.76
  Q 32.12 19.76 32.54 19.79
  Z
  M 24.32 20.09
  Q 25.54 19.88 25.87 19.57
  A 0.26 0.26 0.0 0 0 25.72 19.11
  Q 24.29 18.98 23.96 19.59
  A 0.34 0.34 0.0 0 0 24.32 20.09
  Z
  M 26.75 20.67
  Q 27.74 21.61 28.85 21.75
  A 0.28 0.28 0.0 0 0 29.14 21.36
  Q 28.32 19.45 26.89 19.97
  A 0.42 0.42 0.0 0 0 26.75 20.67
  Z
  M 19.53 27.43
  Q 19.90 28.10 19.67 28.62
  A 0.42 0.42 0.0 0 1 18.96 28.71
  Q 18.52 28.15 18.57 27.34
  A 0.45 0.45 0.0 0 0 18.08 26.87
  Q 17.59 26.92 17.29 27.15
  A 0.48 0.48 0.0 0 0 17.26 27.89
  Q 18.15 28.70 18.10 29.73
  A 0.48 0.47 -8.0 0 0 18.73 30.20
  Q 20.14 29.70 20.48 28.92
  Q 22.04 25.33 25.19 23.27
  Q 26.10 22.68 25.64 21.29
  A 0.37 0.35 -4.9 0 0 25.34 21.05
  L 24.38 20.94
  A 0.33 0.33 0.0 0 0 24.09 21.48
  Q 24.49 21.96 24.48 22.81
  A 0.47 0.47 0.0 0 1 23.61 23.04
  L 23.17 22.27
  A 0.76 0.75 55.1 0 1 23.34 21.30
  Q 23.85 20.88 23.93 20.62
  A 0.59 0.49 -26.7 0 0 22.88 20.38
  Q 22.29 21.36 22.43 22.01
  Q 23.27 25.92 19.84 26.74
  A 0.47 0.47 0.0 0 0 19.53 27.43
  Z
  M 41.02 20.53
  Q 40.77 20.83 40.25 21.00
  A 1.73 1.49 50.4 0 0 40.20 23.89
  Q 43.22 25.96 44.33 28.49
  Q 44.47 28.80 44.67 28.83
  Q 44.99 28.86 45.23 28.45
  A 0.69 0.67 18.9 0 1 45.94 28.11
  Q 47.48 28.38 47.98 28.22
  A 0.24 0.23 -28.8 0 0 48.09 27.85
  L 47.47 27.08
  A 0.08 0.08 0.0 0 0 47.39 27.05
  C 44.82 27.56 42.21 26.38 42.70 23.49
  Q 42.88 22.39 42.79 21.09
  A 1.00 1.00 0.0 0 0 41.02 20.53
  Z
  M 44.86 34.25
  A 12.37 12.37 0.0 0 0 32.49 21.88
  A 12.37 12.37 0.0 0 0 20.12 34.25
  A 12.37 12.37 0.0 0 0 32.49 46.62
  A 12.37 12.37 0.0 0 0 44.86 34.25
  Z
  M 19.69 25.42
  Q 20.42 25.77 21.43 24.51
  A 0.57 0.56 -41.2 0 0 21.48 23.86
  Q 21.17 23.35 20.77 23.16
  Q 20.37 22.97 19.78 23.05
  A 0.57 0.56 -87.6 0 0 19.30 23.49
  Q 18.96 25.07 19.69 25.42
  Z
  M 44.5041 23.2795
  A 1.31 1.09 -111.3 0 0 43.9645 24.8959
  A 1.31 1.09 -111.3 0 0 45.4559 25.7205
  A 1.31 1.09 -111.3 0 0 45.9955 24.1041
  A 1.31 1.09 -111.3 0 0 44.5041 23.2795
  Z
  M 16.59 28.90
  A 0.18 0.17 -51.2 0 0 16.25 28.94
  Q 15.79 32.39 18.50 33.73
  A 0.69 0.69 0.0 0 0 19.32 32.66
  Q 18.53 31.75 17.82 31.56
  A 0.56 0.56 0.0 0 1 17.42 31.20
  L 16.59 28.90
  Z
  M 46.6679 28.9448
  A 0.95 0.79 -59.1 0 0 45.5021 29.3543
  A 0.95 0.79 -59.1 0 0 45.6921 30.5752
  A 0.95 0.79 -59.1 0 0 46.8579 30.1657
  A 0.95 0.79 -59.1 0 0 46.6679 28.9448
  Z
  M 19.55 36.48
  Q 19.78 35.61 18.83 34.94
  Q 17.63 34.11 16.91 33.39
  Q 16.64 33.11 16.23 33.34
  A 0.45 0.44 46.7 0 0 16.21 34.10
  Q 19.20 36.05 19.26 36.46
  A 0.15 0.15 0.0 0 0 19.55 36.48
  Z
  M 18.28 37.54
  A 1.15 1.15 0.0 0 0 17.13 36.39
  A 1.15 1.15 0.0 0 0 15.98 37.54
  A 1.15 1.15 0.0 0 0 17.13 38.69
  A 1.15 1.15 0.0 0 0 18.28 37.54
  Z
  M 48.13 38.98
  Q 49.00 38.73 48.78 37.29
  A 0.66 0.65 83.9 0 0 48.10 36.74
  Q 47.91 36.75 47.53 36.86
  Q 47.14 36.96 46.98 37.06
  A 0.66 0.65 64.5 0 0 46.69 37.88
  Q 47.26 39.22 48.13 38.98
  Z
  M 20.08 39.99
  Q 20.09 40.75 19.29 41.15
  A 0.52 0.52 0.0 0 0 19.15 41.99
  L 20.20 43.04
  A 0.38 0.38 0.0 0 0 20.85 42.83
  Q 20.97 42.09 20.52 41.73
  A 0.38 0.37 -39.8 0 1 20.58 41.11
  Q 21.09 40.83 21.00 40.17
  Q 20.95 39.85 20.44 39.47
  Q 19.84 39.03 19.94 37.59
  A 0.23 0.22 -84.5 0 0 19.75 37.35
  L 19.71 37.34
  A 0.27 0.26 -76.5 0 0 19.41 37.53
  Q 18.75 39.78 17.52 41.22
  A 0.79 0.78 -40.1 0 0 17.44 42.11
  Q 19.24 45.19 21.52 46.96
  A 0.55 0.55 0.0 0 0 22.02 47.04
  L 25.76 45.70
  A 0.10 0.10 0.0 0 0 25.78 45.53
  L 22.84 43.45
  A 0.92 0.91 42.3 0 0 21.74 43.50
  Q 21.29 43.88 20.89 44.76
  A 0.51 0.51 0.0 0 1 19.99 44.80
  L 18.28 41.84
  A 0.68 0.66 52.6 0 1 18.38 41.03
  L 19.62 39.80
  A 0.27 0.27 0.0 0 1 20.08 39.99
  Z
  M 44.50 43.48
  A 0.13 0.12 43.6 0 0 44.72 43.48
  Q 45.37 42.17 46.18 41.91
  A 0.40 0.39 -78.5 0 1 46.59 42.54
  L 43.98 45.72
  A 0.62 0.62 0.0 0 1 43.03 45.72
  Q 43.01 45.71 42.98 45.67
  A 0.73 0.72 -42.0 0 0 41.94 45.62
  Q 41.18 46.32 40.58 45.36
  A 0.60 0.60 0.0 0 0 39.68 45.24
  Q 38.20 46.60 33.68 47.62
  A 0.92 0.92 0.0 0 0 33.80 49.43
  Q 33.91 49.44 34.74 48.18
  A 0.55 0.54 30.1 0 1 35.46 47.99
  Q 35.81 48.18 35.84 48.80
  A 0.55 0.54 76.8 0 1 35.52 49.33
  Q 33.46 50.23 31.69 50.12
  A 0.51 0.50 -89.4 0 1 31.22 49.63
  Q 31.21 49.44 31.51 49.11
  A 0.95 0.90 19.2 0 0 30.73 47.60
  Q 28.92 47.65 27.41 46.36
  A 0.25 0.25 0.0 0 0 27.04 46.69
  C 27.42 47.26 28.15 47.59 28.20 48.55
  Q 28.26 49.55 29.09 50.65
  A 0.79 0.79 0.0 0 0 29.93 50.94
  Q 31.70 50.48 34.38 50.90
  A 1.61 1.61 0.0 0 0 36.18 49.75
  Q 36.70 47.93 37.96 46.55
  A 0.72 0.70 24.0 0 1 38.56 46.33
  L 43.38 46.86
  A 0.60 0.59 -63.3 0 0 43.88 46.69
  L 47.51 43.06
  A 0.56 0.55 -35.6 0 0 47.62 42.43
  L 45.47 38.02
  A 0.06 0.06 0.0 0 0 45.37 38.02
  L 43.51 41.54
  A 0.23 0.23 0.0 0 0 43.51 41.76
  L 44.50 43.48
  Z
  M 42.32 44.56
  Q 42.68 44.54 43.56 44.94
  A 0.33 0.33 0.0 0 0 43.95 44.43
  Q 43.31 43.67 42.28 43.72
  Q 41.25 43.77 40.69 44.58
  A 0.33 0.33 0.0 0 0 41.13 45.06
  Q 41.96 44.57 42.32 44.56
  Z
  M 26.69 48.37
  A 1.16 1.16 0.0 0 0 25.53 47.21
  A 1.16 1.16 0.0 0 0 24.37 48.37
  A 1.16 1.16 0.0 0 0 25.53 49.53
  A 1.16 1.16 0.0 0 0 26.69 48.37
  Z
  M 40.40 48.66
  A 1.20 1.20 0.0 0 0 39.20 47.46
  A 1.20 1.20 0.0 0 0 38.00 48.66
  A 1.20 1.20 0.0 0 0 39.20 49.86
  A 1.20 1.20 0.0 0 0 40.40 48.66
  Z"
/>
<path fill="#582359" d="
  M 32.73 17.24
  Q 33.06 17.26 33.68 18.03
  A 0.71 0.71 0.0 0 1 33.69 18.92
  Q 32.97 19.82 32.54 19.79
  Q 32.12 19.76 31.54 18.76
  A 0.71 0.71 0.0 0 1 31.67 17.89
  Q 32.39 17.22 32.73 17.24
  Z"
/>
<path fill="#582359" d="
  M 23.96 19.59
  Q 24.29 18.98 25.72 19.11
  A 0.26 0.26 0.0 0 1 25.87 19.57
  Q 25.54 19.88 24.32 20.09
  A 0.34 0.34 0.0 0 1 23.96 19.59
  Z"
/>
<path fill="#582359" d="
  M 26.89 19.97
  Q 28.32 19.45 29.14 21.36
  A 0.28 0.28 0.0 0 1 28.85 21.75
  Q 27.74 21.61 26.75 20.67
  A 0.42 0.42 0.0 0 1 26.89 19.97
  Z"
/>
<path fill="#582359" d="
  M 19.84 26.74
  Q 23.27 25.92 22.43 22.01
  Q 22.29 21.36 22.88 20.38
  A 0.59 0.49 -26.7 0 1 23.93 20.62
  Q 23.85 20.88 23.34 21.30
  A 0.76 0.75 55.1 0 0 23.17 22.27
  L 23.61 23.04
  A 0.47 0.47 0.0 0 0 24.48 22.81
  Q 24.49 21.96 24.09 21.48
  A 0.33 0.33 0.0 0 1 24.38 20.94
  L 25.34 21.05
  A 0.37 0.35 -4.9 0 1 25.64 21.29
  Q 26.10 22.68 25.19 23.27
  Q 22.04 25.33 20.48 28.92
  Q 20.14 29.70 18.73 30.20
  A 0.48 0.47 -8.0 0 1 18.10 29.73
  Q 18.15 28.70 17.26 27.89
  A 0.48 0.48 0.0 0 1 17.29 27.15
  Q 17.59 26.92 18.08 26.87
  A 0.45 0.45 0.0 0 1 18.57 27.34
  Q 18.52 28.15 18.96 28.71
  A 0.42 0.42 0.0 0 0 19.67 28.62
  Q 19.90 28.10 19.53 27.43
  A 0.47 0.47 0.0 0 1 19.84 26.74
  Z"
/>
<path fill="#582359" d="
  M 41.02 20.53
  A 1.00 1.00 0.0 0 1 42.79 21.09
  Q 42.88 22.39 42.70 23.49
  C 42.21 26.38 44.82 27.56 47.39 27.05
  A 0.08 0.08 0.0 0 1 47.47 27.08
  L 48.09 27.85
  A 0.24 0.23 -28.8 0 1 47.98 28.22
  Q 47.48 28.38 45.94 28.11
  A 0.69 0.67 18.9 0 0 45.23 28.45
  Q 44.99 28.86 44.67 28.83
  Q 44.47 28.80 44.33 28.49
  Q 43.22 25.96 40.20 23.89
  A 1.73 1.49 50.4 0 1 40.25 21.00
  Q 40.77 20.83 41.02 20.53
  Z
  M 40.38 22.46
  Q 40.37 23.32 41.52 23.87
  A 0.22 0.22 0.0 0 0 41.83 23.61
  Q 41.54 22.61 41.54 22.47
  Q 41.54 22.32 41.85 21.33
  A 0.22 0.22 0.0 0 0 41.55 21.07
  Q 40.39 21.59 40.38 22.46
  Z"
/>
<path fill="#fcf8fd" d="
  M 41.54 22.47
  Q 41.54 22.61 41.83 23.61
  A 0.22 0.22 0.0 0 1 41.52 23.87
  Q 40.37 23.32 40.38 22.46
  Q 40.39 21.59 41.55 21.07
  A 0.22 0.22 0.0 0 1 41.85 21.33
  Q 41.54 22.32 41.54 22.47
  Z"
/>
<circle fill="#582359" cx="32.49" cy="34.25" r="12.37"/>
<path fill="#582359" d="
  M 20.77 23.16
  Q 21.17 23.35 21.48 23.86
  A 0.57 0.56 -41.2 0 1 21.43 24.51
  Q 20.42 25.77 19.69 25.42
  Q 18.96 25.07 19.30 23.49
  A 0.57 0.56 -87.6 0 1 19.78 23.05
  Q 20.37 22.97 20.77 23.16
  Z"
/>
<ellipse fill="#582359" cx="0.00" cy="0.00" transform="translate(44.98,24.50) rotate(-111.3)" rx="1.31" ry="1.09"/>
<path fill="#582359" d="
  M 16.59 28.90
  L 17.42 31.20
  A 0.56 0.56 0.0 0 0 17.82 31.56
  Q 18.53 31.75 19.32 32.66
  A 0.69 0.69 0.0 0 1 18.50 33.73
  Q 15.79 32.39 16.25 28.94
  A 0.18 0.17 -51.2 0 1 16.59 28.90
  Z"
/>
<ellipse fill="#582359" cx="0.00" cy="0.00" transform="translate(46.18,29.76) rotate(-59.1)" rx="0.95" ry="0.79"/>
<path fill="#fcf8fd" d="
  M 49.53 33.50
  L 48.51 33.43
  A 0.50 0.50 0.0 0 1 48.10 32.69
  Q 48.99 31.06 48.92 29.10
  A 0.24 0.24 0.0 0 1 49.39 29.03
  Q 49.94 31.21 49.53 33.50
  Z"
/>
<path fill="#582359" d="
  M 19.26 36.46
  Q 19.20 36.05 16.21 34.10
  A 0.45 0.44 46.7 0 1 16.23 33.34
  Q 16.64 33.11 16.91 33.39
  Q 17.63 34.11 18.83 34.94
  Q 19.78 35.61 19.55 36.48
  A 0.15 0.15 0.0 0 1 19.26 36.46
  Z"
/>
<circle fill="#582359" cx="17.13" cy="37.54" r="1.15"/>
<path fill="#582359" d="
  M 48.13 38.98
  Q 47.26 39.22 46.69 37.88
  A 0.66 0.65 64.5 0 1 46.98 37.06
  Q 47.14 36.96 47.53 36.86
  Q 47.91 36.75 48.10 36.74
  A 0.66 0.65 83.9 0 1 48.78 37.29
  Q 49.00 38.73 48.13 38.98
  Z"
/>
<path fill="#582359" d="
  M 19.62 39.80
  L 18.38 41.03
  A 0.68 0.66 52.6 0 0 18.28 41.84
  L 19.99 44.80
  A 0.51 0.51 0.0 0 0 20.89 44.76
  Q 21.29 43.88 21.74 43.50
  A 0.92 0.91 42.3 0 1 22.84 43.45
  L 25.78 45.53
  A 0.10 0.10 0.0 0 1 25.76 45.70
  L 22.02 47.04
  A 0.55 0.55 0.0 0 1 21.52 46.96
  Q 19.24 45.19 17.44 42.11
  A 0.79 0.78 -40.1 0 1 17.52 41.22
  Q 18.75 39.78 19.41 37.53
  A 0.27 0.26 -76.5 0 1 19.71 37.34
  L 19.75 37.35
  A 0.23 0.22 -84.5 0 1 19.94 37.59
  Q 19.84 39.03 20.44 39.47
  Q 20.95 39.85 21.00 40.17
  Q 21.09 40.83 20.58 41.11
  A 0.38 0.37 -39.8 0 0 20.52 41.73
  Q 20.97 42.09 20.85 42.83
  A 0.38 0.38 0.0 0 1 20.20 43.04
  L 19.15 41.99
  A 0.52 0.52 0.0 0 1 19.29 41.15
  Q 20.09 40.75 20.08 39.99
  A 0.27 0.27 0.0 0 0 19.62 39.80
  Z
  M 22.39 44.36
  Q 21.68 44.45 20.99 45.61
  A 0.35 0.35 0.0 0 0 21.47 46.09
  Q 22.47 45.51 22.52 45.51
  Q 22.57 45.50 23.68 45.84
  A 0.35 0.35 0.0 0 0 24.04 45.26
  Q 23.11 44.28 22.39 44.36
  Z"
/>
<path fill="#582359" d="
  M 43.51 41.54
  L 45.37 38.02
  A 0.06 0.06 0.0 0 1 45.47 38.02
  L 47.62 42.43
  A 0.56 0.55 -35.6 0 1 47.51 43.06
  L 43.88 46.69
  A 0.60 0.59 -63.3 0 1 43.38 46.86
  L 38.56 46.33
  A 0.72 0.70 24.0 0 0 37.96 46.55
  Q 36.70 47.93 36.18 49.75
  A 1.61 1.61 0.0 0 1 34.38 50.90
  Q 31.70 50.48 29.93 50.94
  A 0.79 0.79 0.0 0 1 29.09 50.65
  Q 28.26 49.55 28.20 48.55
  C 28.15 47.59 27.42 47.26 27.04 46.69
  A 0.25 0.25 0.0 0 1 27.41 46.36
  Q 28.92 47.65 30.73 47.60
  A 0.95 0.90 19.2 0 1 31.51 49.11
  Q 31.21 49.44 31.22 49.63
  A 0.51 0.50 -89.4 0 0 31.69 50.12
  Q 33.46 50.23 35.52 49.33
  A 0.55 0.54 76.8 0 0 35.84 48.80
  Q 35.81 48.18 35.46 47.99
  A 0.55 0.54 30.1 0 0 34.74 48.18
  Q 33.91 49.44 33.80 49.43
  A 0.92 0.92 0.0 0 1 33.68 47.62
  Q 38.20 46.60 39.68 45.24
  A 0.60 0.60 0.0 0 1 40.58 45.36
  Q 41.18 46.32 41.94 45.62
  A 0.73 0.72 -42.0 0 1 42.98 45.67
  Q 43.01 45.71 43.03 45.72
  A 0.62 0.62 0.0 0 0 43.98 45.72
  L 46.59 42.54
  A 0.40 0.39 -78.5 0 0 46.18 41.91
  Q 45.37 42.17 44.72 43.48
  A 0.13 0.12 43.6 0 1 44.50 43.48
  L 43.51 41.76
  A 0.23 0.23 0.0 0 1 43.51 41.54
  Z
  M 44.28 41.59
  Q 45.21 41.78 45.98 40.95
  Q 46.30 40.60 45.80 40.06
  A 0.36 0.36 0.0 0 0 45.24 40.09
  Q 44.58 41.00 44.24 41.13
  A 0.24 0.24 0.0 0 0 44.28 41.59
  Z
  M 30.82 48.79
  Q 30.57 48.35 29.82 48.14
  A 0.55 0.54 10.9 0 0 29.13 48.60
  Q 29.00 49.65 29.38 49.77
  A 1.07 0.78 1.6 0 0 30.82 48.79
  Z"
/>
<path fill="#fcf8fd" d="
  M 44.24 41.13
  Q 44.58 41.00 45.24 40.09
  A 0.36 0.36 0.0 0 1 45.80 40.06
  Q 46.30 40.60 45.98 40.95
  Q 45.21 41.78 44.28 41.59
  A 0.24 0.24 0.0 0 1 44.24 41.13
  Z"
/>
<path fill="#582359" d="
  M 42.28 43.72
  Q 43.31 43.67 43.95 44.43
  A 0.33 0.33 0.0 0 1 43.56 44.94
  Q 42.68 44.54 42.32 44.56
  Q 41.96 44.57 41.13 45.06
  A 0.33 0.33 0.0 0 1 40.69 44.58
  Q 41.25 43.77 42.28 43.72
  Z"
/>
<path fill="#fcf8fd" d="
  M 22.52 45.51
  Q 22.47 45.51 21.47 46.09
  A 0.35 0.35 0.0 0 1 20.99 45.61
  Q 21.68 44.45 22.39 44.36
  Q 23.11 44.28 24.04 45.26
  A 0.35 0.35 0.0 0 1 23.68 45.84
  Q 22.57 45.50 22.52 45.51
  Z"
/>
<circle fill="#582359" cx="25.53" cy="48.37" r="1.16"/>
<circle fill="#582359" cx="39.20" cy="48.66" r="1.20"/>
<path fill="#fcf8fd" d="
  M 30.82 48.79
  A 1.07 0.78 1.6 0 1 29.38 49.77
  Q 29.00 49.65 29.13 48.60
  A 0.55 0.54 10.9 0 1 29.82 48.14
  Q 30.57 48.35 30.82 48.79
  Z"
/>
</svg>
