<?xml version="1.0" encoding="UTF-8" standalone="no"?>
<!DOCTYPE svg PUBLIC "-//W3C//DTD SVG 1.1//EN" "http://www.w3.org/Graphics/SVG/1.1/DTD/svg11.dtd">
<svg xmlns="http://www.w3.org/2000/svg" version="1.1" viewBox="0.00 0.00 66.00 88.00">
<g stroke-width="2.00" fill="none" stroke-linecap="butt">
<path stroke="#2b4c38" vector-effect="non-scaling-stroke" d="
  M 33.41 86.65
  Q 33.47 86.65 33.52 86.64
  A 0.27 0.08 -50.2 0 0 33.68 86.54
  C 47.53 73.75 63.49 53.93 64.18 34.50
  Q 64.37 29.41 63.93 27.53
  Q 59.94 10.12 43.52 4.19
  Q 38.81 2.48 33.53 2.48
  Q 28.25 2.47 23.53 4.16
  Q 7.10 10.05 3.06 27.45
  Q 2.62 29.33 2.79 34.42
  C 3.43 53.85 19.33 73.71 33.15 86.54
  A 0.27 0.08 50.4 0 0 33.31 86.64
  Q 33.36 86.65 33.41 86.65"
/>
<path stroke="#9cb1a5" vector-effect="non-scaling-stroke" d="
  M 45.01 25.38
  L 45.45 25.63
  A 0.39 0.39 0.0 0 0 45.95 25.06
  Q 45.36 24.29 44.27 23.82
  A 0.38 0.38 0.0 0 1 44.42 23.10
  L 46.38 23.10
  A 0.74 0.73 -8.9 0 0 47.08 22.14
  C 45.79 18.14 43.51 17.89 39.27 18.25
  Q 29.86 19.05 23.24 17.82
  Q 20.43 17.29 19.18 18.06
  C 14.60 20.87 16.27 27.13 21.80 26.97
  Q 22.27 26.96 25.04 27.07
  A 0.55 0.54 -73.9 0 1 25.49 27.89
  L 21.70 34.47
  A 0.74 0.74 0.0 0 0 21.82 35.38
  L 23.46 37.03
  A 0.50 0.50 0.0 0 1 23.11 37.88
  L 20.79 37.88
  A 1.03 1.02 10.3 0 0 19.83 38.54
  C 18.52 42.04 17.02 51.24 23.01 51.17
  Q 25.89 51.13 28.18 50.74
  A 0.06 0.06 0.0 0 0 28.23 50.68
  L 28.23 49.91
  A 0.19 0.18 -1.5 0 0 28.03 49.73
  Q 25.75 49.90 24.91 49.39
  C 22.32 47.82 23.08 44.85 25.40 43.66
  Q 26.33 43.19 28.76 43.21
  Q 37.67 43.28 39.07 43.22
  A 0.64 0.64 0.0 0 0 39.67 42.67
  Q 40.24 38.33 41.24 36.95
  C 43.98 33.17 45.37 31.48 46.69 27.93
  A 0.64 0.64 0.0 0 0 46.27 27.09
  Q 45.01 26.71 44.52 25.88
  A 0.36 0.36 0.0 0 1 45.01 25.38"
/>
<path stroke="#9cb1a5" vector-effect="non-scaling-stroke" d="
  M 25.36 48.16
  L 28.86 48.27
  A 0.75 0.75 0.0 0 0 29.64 47.55
  L 29.65 47.21
  A 2.51 2.33 -88.2 0 0 27.40 44.63
  L 27.06 44.62
  A 2.51 2.33 -88.2 0 0 24.65 47.05
  L 24.64 47.39
  A 0.75 0.75 0.0 0 0 25.36 48.16"
/>
<path stroke="#9cb1a5" vector-effect="non-scaling-stroke" d="
  M 30.07 51.24
  L 46.43 51.24
  A 2.04 2.04 0.0 0 0 48.19 50.23
  L 49.23 48.41
  A 1.09 1.08 15.1 0 0 48.29 46.78
  L 44.86 46.78
  A 0.26 0.26 0.0 0 1 44.73 46.30
  L 46.40 45.33
  A 0.44 0.44 0.0 0 0 46.18 44.50
  L 30.80 44.50
  A 0.46 0.46 0.0 0 0 30.39 45.16
  Q 32.07 48.57 29.87 50.76
  A 0.28 0.28 0.0 0 0 30.07 51.24"
/>
<path stroke="#9cb1a5" vector-effect="non-scaling-stroke" d="
  M 20.91 20.71
  L 24.91 20.71
  A 0.41 0.41 0.0 0 0 25.17 19.99
  C 23.11 18.23 19.19 18.15 18.05 21.20
  C 17.09 23.80 19.11 26.03 22.01 25.40
  A 0.54 0.53 -15.0 0 0 22.41 24.72
  Q 21.77 22.72 20.62 21.33
  A 0.38 0.38 0.0 0 1 20.91 20.71"
/>
<path stroke="#9cb1a5" vector-effect="non-scaling-stroke" d="
  M 24.10 25.60
  Q 25.02 25.89 25.40 25.80
  A 0.90 0.90 0.0 0 0 26.10 24.96
  L 26.21 22.76
  A 0.70 0.69 1.2 0 0 25.51 22.04
  L 23.42 22.04
  A 0.44 0.43 -16.4 0 0 23.05 22.71
  Q 23.85 23.91 23.66 24.84
  A 0.66 0.65 -75.3 0 0 24.10 25.60"
/>
</g>
<path fill="#1c3425" d="
  M 33.81 88.00
  L 33.04 88.00
  C 16.70 73.16 -6.73 43.72 4.28 19.96
  C 9.59 8.52 20.29 1.85 32.75 1.29
  Q 35.79 1.15 40.56 2.12
  C 50.37 4.13 58.62 11.08 62.73 19.98
  C 66.60 28.38 66.05 38.31 63.04 47.01
  C 57.65 62.61 45.94 76.92 33.81 88.00
  Z
  M 33.41 86.65
  Q 33.47 86.65 33.52 86.64
  A 0.27 0.08 -50.2 0 0 33.68 86.54
  C 47.53 73.75 63.49 53.93 64.18 34.50
  Q 64.37 29.41 63.93 27.53
  Q 59.94 10.12 43.52 4.19
  Q 38.81 2.48 33.53 2.48
  Q 28.25 2.47 23.53 4.16
  Q 7.10 10.05 3.06 27.45
  Q 2.62 29.33 2.79 34.42
  C 3.43 53.85 19.33 73.71 33.15 86.54
  A 0.27 0.08 50.4 0 0 33.31 86.64
  Q 33.36 86.65 33.41 86.65
  Z"
/>
<path fill="#39634a" d="
  M 33.53 2.48
  Q 38.81 2.48 43.52 4.19
  Q 59.94 10.12 63.93 27.53
  Q 64.37 29.41 64.18 34.50
  C 63.49 53.93 47.53 73.75 33.68 86.54
  A 0.27 0.08 -50.2 0 1 33.52 86.64
  Q 33.47 86.65 33.41 86.65
  Q 33.36 86.65 33.31 86.64
  A 0.27 0.08 50.4 0 1 33.15 86.54
  C 19.33 73.71 3.43 53.85 2.79 34.42
  Q 2.62 29.33 3.06 27.45
  Q 7.10 10.05 23.53 4.16
  Q 28.25 2.47 33.53 2.48
  Z
  M 45.01 25.38
  L 45.45 25.63
  A 0.39 0.39 0.0 0 0 45.95 25.06
  Q 45.36 24.29 44.27 23.82
  A 0.38 0.38 0.0 0 1 44.42 23.10
  L 46.38 23.10
  A 0.74 0.73 -8.9 0 0 47.08 22.14
  C 45.79 18.14 43.51 17.89 39.27 18.25
  Q 29.86 19.05 23.24 17.82
  Q 20.43 17.29 19.18 18.06
  C 14.60 20.87 16.27 27.13 21.80 26.97
  Q 22.27 26.96 25.04 27.07
  A 0.55 0.54 -73.9 0 1 25.49 27.89
  L 21.70 34.47
  A 0.74 0.74 0.0 0 0 21.82 35.38
  L 23.46 37.03
  A 0.50 0.50 0.0 0 1 23.11 37.88
  L 20.79 37.88
  A 1.03 1.02 10.3 0 0 19.83 38.54
  C 18.52 42.04 17.02 51.24 23.01 51.17
  Q 25.89 51.13 28.18 50.74
  A 0.06 0.06 0.0 0 0 28.23 50.68
  L 28.23 49.91
  A 0.19 0.18 -1.5 0 0 28.03 49.73
  Q 25.75 49.90 24.91 49.39
  C 22.32 47.82 23.08 44.85 25.40 43.66
  Q 26.33 43.19 28.76 43.21
  Q 37.67 43.28 39.07 43.22
  A 0.64 0.64 0.0 0 0 39.67 42.67
  Q 40.24 38.33 41.24 36.95
  C 43.98 33.17 45.37 31.48 46.69 27.93
  A 0.64 0.64 0.0 0 0 46.27 27.09
  Q 45.01 26.71 44.52 25.88
  A 0.36 0.36 0.0 0 1 45.01 25.38
  Z
  M 25.36 48.16
  L 28.86 48.27
  A 0.75 0.75 0.0 0 0 29.64 47.55
  L 29.65 47.21
  A 2.51 2.33 -88.2 0 0 27.40 44.63
  L 27.06 44.62
  A 2.51 2.33 -88.2 0 0 24.65 47.05
  L 24.64 47.39
  A 0.75 0.75 0.0 0 0 25.36 48.16
  Z
  M 30.07 51.24
  L 46.43 51.24
  A 2.04 2.04 0.0 0 0 48.19 50.23
  L 49.23 48.41
  A 1.09 1.08 15.1 0 0 48.29 46.78
  L 44.86 46.78
  A 0.26 0.26 0.0 0 1 44.73 46.30
  L 46.40 45.33
  A 0.44 0.44 0.0 0 0 46.18 44.50
  L 30.80 44.50
  A 0.46 0.46 0.0 0 0 30.39 45.16
  Q 32.07 48.57 29.87 50.76
  A 0.28 0.28 0.0 0 0 30.07 51.24
  Z"
/>
<path fill="#ffffff" d="
  M 44.52 25.88
  Q 45.01 26.71 46.27 27.09
  A 0.64 0.64 0.0 0 1 46.69 27.93
  C 45.37 31.48 43.98 33.17 41.24 36.95
  Q 40.24 38.33 39.67 42.67
  A 0.64 0.64 0.0 0 1 39.07 43.22
  Q 37.67 43.28 28.76 43.21
  Q 26.33 43.19 25.40 43.66
  C 23.08 44.85 22.32 47.82 24.91 49.39
  Q 25.75 49.90 28.03 49.73
  A 0.19 0.18 -1.5 0 1 28.23 49.91
  L 28.23 50.68
  A 0.06 0.06 0.0 0 1 28.18 50.74
  Q 25.89 51.13 23.01 51.17
  C 17.02 51.24 18.52 42.04 19.83 38.54
  A 1.03 1.02 10.3 0 1 20.79 37.88
  L 23.11 37.88
  A 0.50 0.50 0.0 0 0 23.46 37.03
  L 21.82 35.38
  A 0.74 0.74 0.0 0 1 21.70 34.47
  L 25.49 27.89
  A 0.55 0.54 -73.9 0 0 25.04 27.07
  Q 22.27 26.96 21.80 26.97
  C 16.27 27.13 14.60 20.87 19.18 18.06
  Q 20.43 17.29 23.24 17.82
  Q 29.86 19.05 39.27 18.25
  C 43.51 17.89 45.79 18.14 47.08 22.14
  A 0.74 0.73 -8.9 0 1 46.38 23.10
  L 44.42 23.10
  A 0.38 0.38 0.0 0 0 44.27 23.82
  Q 45.36 24.29 45.95 25.06
  A 0.39 0.39 0.0 0 1 45.45 25.63
  L 45.01 25.38
  A 0.36 0.36 0.0 0 0 44.52 25.88
  Z
  M 20.91 20.71
  L 24.91 20.71
  A 0.41 0.41 0.0 0 0 25.17 19.99
  C 23.11 18.23 19.19 18.15 18.05 21.20
  C 17.09 23.80 19.11 26.03 22.01 25.40
  A 0.54 0.53 -15.0 0 0 22.41 24.72
  Q 21.77 22.72 20.62 21.33
  A 0.38 0.38 0.0 0 1 20.91 20.71
  Z
  M 24.10 25.60
  Q 25.02 25.89 25.40 25.80
  A 0.90 0.90 0.0 0 0 26.10 24.96
  L 26.21 22.76
  A 0.70 0.69 1.2 0 0 25.51 22.04
  L 23.42 22.04
  A 0.44 0.43 -16.4 0 0 23.05 22.71
  Q 23.85 23.91 23.66 24.84
  A 0.66 0.65 -75.3 0 0 24.10 25.60
  Z"
/>
<path fill="#39634a" d="
  M 20.91 20.71
  A 0.38 0.38 0.0 0 0 20.62 21.33
  Q 21.77 22.72 22.41 24.72
  A 0.54 0.53 -15.0 0 1 22.01 25.40
  C 19.11 26.03 17.09 23.80 18.05 21.20
  C 19.19 18.15 23.11 18.23 25.17 19.99
  A 0.41 0.41 0.0 0 1 24.91 20.71
  L 20.91 20.71
  Z"
/>
<path fill="#39634a" d="
  M 23.66 24.84
  Q 23.85 23.91 23.05 22.71
  A 0.44 0.43 -16.4 0 1 23.42 22.04
  L 25.51 22.04
  A 0.70 0.69 1.2 0 1 26.21 22.76
  L 26.10 24.96
  A 0.90 0.90 0.0 0 1 25.40 25.80
  Q 25.02 25.89 24.10 25.60
  A 0.66 0.65 -75.3 0 1 23.66 24.84
  Z"
/>
<path fill="#ffffff" d="
  M 25.36 48.16
  A 0.75 0.75 0.0 0 1 24.64 47.39
  L 24.65 47.05
  A 2.51 2.33 -88.2 0 1 27.06 44.62
  L 27.40 44.63
  A 2.51 2.33 -88.2 0 1 29.65 47.21
  L 29.64 47.55
  A 0.75 0.75 0.0 0 1 28.86 48.27
  L 25.36 48.16
  Z"
/>
<path fill="#ffffff" d="
  M 29.87 50.76
  Q 32.07 48.57 30.39 45.16
  A 0.46 0.46 0.0 0 1 30.80 44.50
  L 46.18 44.50
  A 0.44 0.44 0.0 0 1 46.40 45.33
  L 44.73 46.30
  A 0.26 0.26 0.0 0 0 44.86 46.78
  L 48.29 46.78
  A 1.09 1.08 15.1 0 1 49.23 48.41
  L 48.19 50.23
  A 2.04 2.04 0.0 0 1 46.43 51.24
  L 30.07 51.24
  A 0.28 0.28 0.0 0 1 29.87 50.76
  Z"
/>
</svg>
