<?xml version="1.0" encoding="UTF-8" standalone="no"?>
<!DOCTYPE svg PUBLIC "-//W3C//DTD SVG 1.1//EN" "http://www.w3.org/Graphics/SVG/1.1/DTD/svg11.dtd">
<svg xmlns="http://www.w3.org/2000/svg" version="1.1" viewBox="0.00 0.00 66.00 88.00">
<g stroke-width="2.00" fill="none" stroke-linecap="butt">
<path stroke="#282a22" vector-effect="non-scaling-stroke" d="
  M 33.35 86.55
  Q 33.51 86.55 33.65 86.50
  A 0.08 0.03 -7.9 0 0 33.68 86.48
  C 47.60 73.40 62.87 54.77 64.12 34.99
  Q 64.65 26.72 61.39 20.07
  C 56.11 9.30 45.59 2.63 33.57 2.60
  C 21.55 2.57 11.00 9.19 5.66 19.93
  Q 2.37 26.56 2.85 34.83
  C 4.00 54.62 19.18 73.33 33.03 86.48
  A 0.08 0.03 8.2 0 0 33.06 86.50
  Q 33.20 86.55 33.35 86.55"
/>
<path stroke="#9a9b96" vector-effect="non-scaling-stroke" d="
  M 23.86 17.66
  Q 23.69 17.66 23.66 17.69
  Q 19.51 21.80 15.07 26.38
  A 0.22 0.22 0.0 0 0 15.23 26.75
  L 21.41 26.74
  A 0.58 0.58 0.0 0 1 21.99 27.32
  L 22.00 48.08
  A 0.64 0.63 4.3 0 0 22.54 48.70
  Q 22.79 48.75 23.84 48.75
  Q 24.89 48.75 25.14 48.70
  A 0.64 0.63 -4.4 0 0 25.67 48.08
  L 25.66 27.32
  A 0.58 0.58 0.0 0 1 26.24 26.74
  L 32.42 26.74
  A 0.22 0.22 0.0 0 0 32.58 26.37
  Q 28.13 21.79 23.98 17.69
  Q 23.95 17.66 23.86 17.66"
/>
<path stroke="#9a9b96" vector-effect="non-scaling-stroke" d="
  M 42.11 50.33
  Q 42.28 50.33 42.31 50.30
  Q 46.46 46.20 50.90 41.63
  A 0.22 0.22 0.0 0 0 50.74 41.26
  L 44.57 41.26
  A 0.58 0.58 0.0 0 1 43.99 40.68
  L 44.00 19.94
  A 0.63 0.63 0.0 0 0 43.46 19.32
  Q 43.21 19.28 42.17 19.27
  Q 41.12 19.27 40.87 19.32
  A 0.63 0.63 0.0 0 0 40.33 19.94
  L 40.32 40.68
  A 0.58 0.58 0.0 0 1 39.74 41.26
  L 33.57 41.25
  A 0.22 0.22 0.0 0 0 33.41 41.62
  Q 37.85 46.20 42.00 50.30
  Q 42.02 50.33 42.11 50.33"
/>
</g>
<path fill="#1c1e18" d="
  M 33.79 88.00
  L 33.04 88.00
  C 21.91 77.89 11.84 65.41 5.58 51.42
  Q 2.21 43.89 1.60 34.83
  C 0.52 18.86 11.39 5.51 26.74 2.05
  C 41.21 -1.21 56.14 6.11 62.69 19.94
  C 66.94 28.90 65.90 40.01 62.33 49.06
  C 56.49 63.88 45.54 77.35 33.79 88.00
  Z
  M 33.35 86.55
  Q 33.51 86.55 33.65 86.50
  A 0.08 0.03 -7.9 0 0 33.68 86.48
  C 47.60 73.40 62.87 54.77 64.12 34.99
  Q 64.65 26.72 61.39 20.07
  C 56.11 9.30 45.59 2.63 33.57 2.60
  C 21.55 2.57 11.00 9.19 5.66 19.93
  Q 2.37 26.56 2.85 34.83
  C 4.00 54.62 19.18 73.33 33.03 86.48
  A 0.08 0.03 8.2 0 0 33.06 86.50
  Q 33.20 86.55 33.35 86.55
  Z"
/>
<path fill="#34362c" d="
  M 33.57 2.60
  C 45.59 2.63 56.11 9.30 61.39 20.07
  Q 64.65 26.72 64.12 34.99
  C 62.87 54.77 47.60 73.40 33.68 86.48
  A 0.08 0.03 -7.9 0 1 33.65 86.50
  Q 33.51 86.55 33.35 86.55
  Q 33.20 86.55 33.06 86.50
  A 0.08 0.03 8.2 0 1 33.03 86.48
  C 19.18 73.33 4.00 54.62 2.85 34.83
  Q 2.37 26.56 5.66 19.93
  C 11.00 9.19 21.55 2.57 33.57 2.60
  Z
  M 23.86 17.66
  Q 23.69 17.66 23.66 17.69
  Q 19.51 21.80 15.07 26.38
  A 0.22 0.22 0.0 0 0 15.23 26.75
  L 21.41 26.74
  A 0.58 0.58 0.0 0 1 21.99 27.32
  L 22.00 48.08
  A 0.64 0.63 4.3 0 0 22.54 48.70
  Q 22.79 48.75 23.84 48.75
  Q 24.89 48.75 25.14 48.70
  A 0.64 0.63 -4.4 0 0 25.67 48.08
  L 25.66 27.32
  A 0.58 0.58 0.0 0 1 26.24 26.74
  L 32.42 26.74
  A 0.22 0.22 0.0 0 0 32.58 26.37
  Q 28.13 21.79 23.98 17.69
  Q 23.95 17.66 23.86 17.66
  Z
  M 42.11 50.33
  Q 42.28 50.33 42.31 50.30
  Q 46.46 46.20 50.90 41.63
  A 0.22 0.22 0.0 0 0 50.74 41.26
  L 44.57 41.26
  A 0.58 0.58 0.0 0 1 43.99 40.68
  L 44.00 19.94
  A 0.63 0.63 0.0 0 0 43.46 19.32
  Q 43.21 19.28 42.17 19.27
  Q 41.12 19.27 40.87 19.32
  A 0.63 0.63 0.0 0 0 40.33 19.94
  L 40.32 40.68
  A 0.58 0.58 0.0 0 1 39.74 41.26
  L 33.57 41.25
  A 0.22 0.22 0.0 0 0 33.41 41.62
  Q 37.85 46.20 42.00 50.30
  Q 42.02 50.33 42.11 50.33
  Z"
/>
<path fill="#ffffff" d="
  M 23.86 17.66
  Q 23.95 17.66 23.98 17.69
  Q 28.13 21.79 32.58 26.37
  A 0.22 0.22 0.0 0 1 32.42 26.74
  L 26.24 26.74
  A 0.58 0.58 0.0 0 0 25.66 27.32
  L 25.67 48.08
  A 0.64 0.63 -4.4 0 1 25.14 48.70
  Q 24.89 48.75 23.84 48.75
  Q 22.79 48.75 22.54 48.70
  A 0.64 0.63 4.3 0 1 22.00 48.08
  L 21.99 27.32
  A 0.58 0.58 0.0 0 0 21.41 26.74
  L 15.23 26.75
  A 0.22 0.22 0.0 0 1 15.07 26.38
  Q 19.51 21.80 23.66 17.69
  Q 23.69 17.66 23.86 17.66
  Z"
/>
<path fill="#ffffff" d="
  M 42.17 19.27
  Q 43.21 19.28 43.46 19.32
  A 0.63 0.63 0.0 0 1 44.00 19.94
  L 43.99 40.68
  A 0.58 0.58 0.0 0 0 44.57 41.26
  L 50.74 41.26
  A 0.22 0.22 0.0 0 1 50.90 41.63
  Q 46.46 46.20 42.31 50.30
  Q 42.28 50.33 42.11 50.33
  Q 42.02 50.33 42.00 50.30
  Q 37.85 46.20 33.41 41.62
  A 0.22 0.22 0.0 0 1 33.57 41.25
  L 39.74 41.26
  A 0.58 0.58 0.0 0 0 40.32 40.68
  L 40.33 19.94
  A 0.63 0.63 0.0 0 1 40.87 19.32
  Q 41.12 19.27 42.17 19.27
  Z"
/>
</svg>
