<?xml version="1.0" encoding="UTF-8" standalone="no"?>
<!DOCTYPE svg PUBLIC "-//W3C//DTD SVG 1.1//EN" "http://www.w3.org/Graphics/SVG/1.1/DTD/svg11.dtd">
<svg xmlns="http://www.w3.org/2000/svg" version="1.1" viewBox="0.00 0.00 66.00 88.00">
<g stroke-width="2.00" fill="none" stroke-linecap="butt">
<path stroke="#441a44" vector-effect="non-scaling-stroke" d="
  M 33.42 86.52
  C 33.46 86.52 33.74 86.48 33.80 86.43
  C 50.18 71.24 74.34 40.59 59.93 17.32
  C 54.21 8.09 44.66 2.80 33.75 2.46
  Q 33.62 2.46 33.50 2.46
  Q 33.37 2.46 33.25 2.46
  C 22.34 2.78 12.78 8.05 7.04 17.27
  C -7.42 40.51 16.69 71.21 33.04 86.43
  C 33.10 86.48 33.38 86.52 33.42 86.52"
/>
<path stroke="#ac91ac" vector-effect="non-scaling-stroke" d="
  M 16.56 17.15
  L 16.56 51.19
  A 0.24 0.24 0.0 0 0 16.80 51.43
  L 36.81 51.43
  A 0.88 0.88 0.0 0 0 37.65 50.81
  L 37.98 49.73
  A 0.47 0.47 0.0 0 1 38.79 49.58
  Q 38.88 49.69 38.84 50.51
  Q 38.83 50.73 39.04 50.97
  Q 39.29 51.25 39.59 51.04
  A 0.14 0.11 26.1 0 1 39.69 51.02
  L 49.32 51.70
  A 0.56 0.56 0.0 0 0 49.93 51.14
  L 49.93 17.03
  A 0.51 0.51 0.0 0 0 49.42 16.52
  L 17.19 16.52
  A 0.63 0.63 0.0 0 0 16.56 17.15"
/>
<path stroke="#c7b4c8" vector-effect="non-scaling-stroke" d="
  M 24.13 18.95
  Q 24.20 18.26 24.37 17.38
  A 0.42 0.41 -76.4 0 0 24.09 16.91
  Q 23.58 16.74 23.43 17.22
  A 0.74 0.72 48.8 0 0 23.41 17.63
  L 23.73 18.98
  A 0.20 0.20 0.0 0 0 24.13 18.95"
/>
<path stroke="#c7b4c8" vector-effect="non-scaling-stroke" d="
  M 20.95 24.58
  Q 21.98 29.79 26.20 32.28
  C 29.06 33.97 32.25 32.97 33.70 29.93
  C 34.79 27.67 34.29 24.61 35.75 22.16
  A 3.00 2.59 30.1 0 1 39.61 21.43
  Q 41.79 22.68 43.18 24.99
  A 4.13 3.83 23.2 0 1 43.62 25.98
  C 45.59 32.67 43.52 40.97 35.92 43.11
  Q 34.89 43.40 29.49 44.14
  A 0.33 0.33 0.0 0 0 29.20 44.51
  L 29.24 44.82
  A 0.27 0.26 -6.5 0 0 29.54 45.05
  L 35.70 44.28
  A 0.12 0.06 16.8 0 0 35.75 44.27
  C 45.63 41.40 48.77 28.26 41.41 21.12
  Q 40.71 20.44 39.88 20.55
  A 0.97 0.97 0.0 0 1 38.99 20.21
  Q 38.86 20.05 38.85 20.04
  A 1.11 1.09 -31.2 0 0 37.80 19.79
  Q 33.72 20.94 33.56 25.23
  Q 33.44 28.52 31.93 30.37
  A 3.84 3.82 -59.8 0 1 27.62 31.52
  Q 23.26 29.87 21.70 24.16
  A 0.06 0.06 0.0 0 0 21.63 24.11
  L 21.26 24.15
  A 0.37 0.36 81.0 0 0 20.95 24.58"
/>
<path stroke="#ac91ac" vector-effect="non-scaling-stroke" d="
  M 24.69 46.20
  Q 24.90 46.20 25.06 46.37
  Q 25.98 47.36 26.26 47.53
  A 1.29 1.29 0.0 0 0 27.81 45.48
  L 26.94 44.65
  A 0.41 0.40 40.0 0 1 26.89 44.11
  L 27.94 42.75
  A 1.22 1.22 0.0 0 0 26.31 40.98
  Q 26.24 41.01 25.03 41.92
  Q 25.01 41.93 24.87 41.96
  Q 24.78 41.97 24.70 41.97
  Q 24.61 41.97 24.53 41.96
  Q 24.39 41.93 24.37 41.92
  Q 23.16 41.00 23.09 40.97
  A 1.22 1.22 0.0 0 0 21.45 42.73
  L 22.50 44.10
  A 0.41 0.40 -39.7 0 1 22.45 44.64
  L 21.57 45.46
  A 1.29 1.29 0.0 0 0 23.11 47.52
  Q 23.39 47.35 24.32 46.37
  Q 24.47 46.20 24.69 46.20"
/>
</g>
<path fill="#2f112e" d="
  M 33.81 88.00
  L 33.04 88.00
  C 21.76 77.74 12.12 65.68 5.65 51.56
  Q 2.21 44.06 1.60 34.89
  C 0.54 18.89 11.36 5.47 26.73 2.07
  C 46.24 -2.25 66.23 12.78 65.46 33.76
  Q 65.20 40.74 63.04 47.01
  C 57.65 62.62 45.95 76.92 33.81 88.00
  Z
  M 33.42 86.52
  C 33.46 86.52 33.74 86.48 33.80 86.43
  C 50.18 71.24 74.34 40.59 59.93 17.32
  C 54.21 8.09 44.66 2.80 33.75 2.46
  Q 33.62 2.46 33.50 2.46
  Q 33.37 2.46 33.25 2.46
  C 22.34 2.78 12.78 8.05 7.04 17.27
  C -7.42 40.51 16.69 71.21 33.04 86.43
  C 33.10 86.48 33.38 86.52 33.42 86.52
  Z"
/>
<path fill="#582359" d="
  M 33.50 2.46
  Q 33.62 2.46 33.75 2.46
  C 44.66 2.80 54.21 8.09 59.93 17.32
  C 74.34 40.59 50.18 71.24 33.80 86.43
  C 33.74 86.48 33.46 86.52 33.42 86.52
  C 33.38 86.52 33.10 86.48 33.04 86.43
  C 16.69 71.21 -7.42 40.51 7.04 17.27
  C 12.78 8.05 22.34 2.78 33.25 2.46
  Q 33.37 2.46 33.50 2.46
  Z
  M 16.56 17.15
  L 16.56 51.19
  A 0.24 0.24 0.0 0 0 16.80 51.43
  L 36.81 51.43
  A 0.88 0.88 0.0 0 0 37.65 50.81
  L 37.98 49.73
  A 0.47 0.47 0.0 0 1 38.79 49.58
  Q 38.88 49.69 38.84 50.51
  Q 38.83 50.73 39.04 50.97
  Q 39.29 51.25 39.59 51.04
  A 0.14 0.11 26.1 0 1 39.69 51.02
  L 49.32 51.70
  A 0.56 0.56 0.0 0 0 49.93 51.14
  L 49.93 17.03
  A 0.51 0.51 0.0 0 0 49.42 16.52
  L 17.19 16.52
  A 0.63 0.63 0.0 0 0 16.56 17.15
  Z"
/>
<path fill="#ffffff" d="
  M 17.19 16.52
  L 49.42 16.52
  A 0.51 0.51 0.0 0 1 49.93 17.03
  L 49.93 51.14
  A 0.56 0.56 0.0 0 1 49.32 51.70
  L 39.69 51.02
  A 0.14 0.11 26.1 0 0 39.59 51.04
  Q 39.29 51.25 39.04 50.97
  Q 38.83 50.73 38.84 50.51
  Q 38.88 49.69 38.79 49.58
  A 0.47 0.47 0.0 0 0 37.98 49.73
  L 37.65 50.81
  A 0.88 0.88 0.0 0 1 36.81 51.43
  L 16.80 51.43
  A 0.24 0.24 0.0 0 1 16.56 51.19
  L 16.56 17.15
  A 0.63 0.63 0.0 0 1 17.19 16.52
  Z
  M 24.13 18.95
  Q 24.20 18.26 24.37 17.38
  A 0.42 0.41 -76.4 0 0 24.09 16.91
  Q 23.58 16.74 23.43 17.22
  A 0.74 0.72 48.8 0 0 23.41 17.63
  L 23.73 18.98
  A 0.20 0.20 0.0 0 0 24.13 18.95
  Z
  M 20.95 24.58
  Q 21.98 29.79 26.20 32.28
  C 29.06 33.97 32.25 32.97 33.70 29.93
  C 34.79 27.67 34.29 24.61 35.75 22.16
  A 3.00 2.59 30.1 0 1 39.61 21.43
  Q 41.79 22.68 43.18 24.99
  A 4.13 3.83 23.2 0 1 43.62 25.98
  C 45.59 32.67 43.52 40.97 35.92 43.11
  Q 34.89 43.40 29.49 44.14
  A 0.33 0.33 0.0 0 0 29.20 44.51
  L 29.24 44.82
  A 0.27 0.26 -6.5 0 0 29.54 45.05
  L 35.70 44.28
  A 0.12 0.06 16.8 0 0 35.75 44.27
  C 45.63 41.40 48.77 28.26 41.41 21.12
  Q 40.71 20.44 39.88 20.55
  A 0.97 0.97 0.0 0 1 38.99 20.21
  Q 38.86 20.05 38.85 20.04
  A 1.11 1.09 -31.2 0 0 37.80 19.79
  Q 33.72 20.94 33.56 25.23
  Q 33.44 28.52 31.93 30.37
  A 3.84 3.82 -59.8 0 1 27.62 31.52
  Q 23.26 29.87 21.70 24.16
  A 0.06 0.06 0.0 0 0 21.63 24.11
  L 21.26 24.15
  A 0.37 0.36 81.0 0 0 20.95 24.58
  Z
  M 24.69 46.20
  Q 24.90 46.20 25.06 46.37
  Q 25.98 47.36 26.26 47.53
  A 1.29 1.29 0.0 0 0 27.81 45.48
  L 26.94 44.65
  A 0.41 0.40 40.0 0 1 26.89 44.11
  L 27.94 42.75
  A 1.22 1.22 0.0 0 0 26.31 40.98
  Q 26.24 41.01 25.03 41.92
  Q 25.01 41.93 24.87 41.96
  Q 24.78 41.97 24.70 41.97
  Q 24.61 41.97 24.53 41.96
  Q 24.39 41.93 24.37 41.92
  Q 23.16 41.00 23.09 40.97
  A 1.22 1.22 0.0 0 0 21.45 42.73
  L 22.50 44.10
  A 0.41 0.40 -39.7 0 1 22.45 44.64
  L 21.57 45.46
  A 1.29 1.29 0.0 0 0 23.11 47.52
  Q 23.39 47.35 24.32 46.37
  Q 24.47 46.20 24.69 46.20
  Z"
/>
<path fill="#8f6890" d="
  M 23.73 18.98
  L 23.41 17.63
  A 0.74 0.72 48.8 0 1 23.43 17.22
  Q 23.58 16.74 24.09 16.91
  A 0.42 0.41 -76.4 0 1 24.37 17.38
  Q 24.20 18.26 24.13 18.95
  A 0.20 0.20 0.0 0 1 23.73 18.98
  Z"
/>
<path fill="#8f6890" d="
  M 20.95 24.58
  A 0.37 0.36 81.0 0 1 21.26 24.15
  L 21.63 24.11
  A 0.06 0.06 0.0 0 1 21.70 24.16
  Q 23.26 29.87 27.62 31.52
  A 3.84 3.82 -59.8 0 0 31.93 30.37
  Q 33.44 28.52 33.56 25.23
  Q 33.72 20.94 37.80 19.79
  A 1.11 1.09 -31.2 0 1 38.85 20.04
  Q 38.86 20.05 38.99 20.21
  A 0.97 0.97 0.0 0 0 39.88 20.55
  Q 40.71 20.44 41.41 21.12
  C 48.77 28.26 45.63 41.40 35.75 44.27
  A 0.12 0.06 16.8 0 1 35.70 44.28
  L 29.54 45.05
  A 0.27 0.26 -6.5 0 1 29.24 44.82
  L 29.20 44.51
  A 0.33 0.33 0.0 0 1 29.49 44.14
  Q 34.89 43.40 35.92 43.11
  C 43.52 40.97 45.59 32.67 43.62 25.98
  A 4.13 3.83 23.2 0 0 43.18 24.99
  Q 41.79 22.68 39.61 21.43
  A 3.00 2.59 30.1 0 0 35.75 22.16
  C 34.29 24.61 34.79 27.67 33.70 29.93
  C 32.25 32.97 29.06 33.97 26.20 32.28
  Q 21.98 29.79 20.95 24.58
  Z"
/>
<path fill="#582359" d="
  M 24.70 41.97
  Q 24.78 41.97 24.87 41.96
  Q 25.01 41.93 25.03 41.92
  Q 26.24 41.01 26.31 40.98
  A 1.22 1.22 0.0 0 1 27.94 42.75
  L 26.89 44.11
  A 0.41 0.40 40.0 0 0 26.94 44.65
  L 27.81 45.48
  A 1.29 1.29 0.0 0 1 26.26 47.53
  Q 25.98 47.36 25.06 46.37
  Q 24.90 46.20 24.69 46.20
  Q 24.47 46.20 24.32 46.37
  Q 23.39 47.35 23.11 47.52
  A 1.29 1.29 0.0 0 1 21.57 45.46
  L 22.45 44.64
  A 0.41 0.40 -39.7 0 0 22.50 44.10
  L 21.45 42.73
  A 1.22 1.22 0.0 0 1 23.09 40.97
  Q 23.16 41.00 24.37 41.92
  Q 24.39 41.93 24.53 41.96
  Q 24.61 41.97 24.70 41.97
  Z"
/>
</svg>
