<?xml version="1.0" encoding="UTF-8" standalone="no"?>
<!DOCTYPE svg PUBLIC "-//W3C//DTD SVG 1.1//EN" "http://www.w3.org/Graphics/SVG/1.1/DTD/svg11.dtd">
<svg xmlns="http://www.w3.org/2000/svg" version="1.1" viewBox="0.00 0.00 66.00 88.00">
<g stroke-width="2.00" fill="none" stroke-linecap="butt">
<path stroke="#464544" vector-effect="non-scaling-stroke" d="
  M 33.42 86.61
  C 34.06 86.61 33.59 86.66 33.80 86.47
  C 47.77 73.50 63.63 53.75 64.25 33.79
  C 64.79 16.45 50.67 2.52 33.53 2.50
  C 16.39 2.48 2.23 16.37 2.72 33.71
  C 3.29 53.67 19.10 73.46 33.05 86.47
  C 33.25 86.66 32.78 86.61 33.42 86.61"
/>
<path stroke="#aeadad" vector-effect="non-scaling-stroke" d="
  M 32.97 23.52
  Q 36.12 23.52 38.00 25.74
  A 0.44 0.43 54.3 0 0 38.55 25.84
  L 41.72 24.01
  A 0.68 0.68 0.0 0 0 41.98 23.10
  C 40.14 19.69 36.99 15.83 32.97 15.83
  C 28.94 15.83 25.80 19.70 23.97 23.11
  A 0.68 0.68 0.0 0 0 24.23 24.02
  L 27.40 25.85
  A 0.44 0.43 -54.4 0 0 27.95 25.75
  Q 29.83 23.52 32.97 23.52"
/>
<path stroke="#aeadad" vector-effect="non-scaling-stroke" d="
  M 32.99 35.99
  Q 33.22 35.99 33.27 36.04
  Q 36.25 38.98 38.13 40.90
  A 0.50 0.49 45.4 0 0 38.83 40.91
  L 43.56 36.18
  A 0.62 0.62 0.0 0 1 44.43 36.18
  L 46.22 37.98
  A 0.26 0.26 0.0 0 0 46.66 37.77
  Q 46.20 32.11 43.84 26.79
  A 0.67 0.66 69.6 0 0 43.05 26.42
  Q 40.52 27.20 40.18 29.04
  A 1.73 1.72 -49.4 0 1 36.86 29.30
  Q 35.82 26.30 32.98 26.30
  Q 30.15 26.30 29.11 29.30
  A 1.73 1.72 49.3 0 1 25.79 29.05
  Q 25.45 27.21 22.92 26.43
  A 0.67 0.66 -69.7 0 0 22.13 26.80
  Q 19.77 32.12 19.32 37.78
  A 0.26 0.26 0.0 0 0 19.76 37.99
  L 21.55 36.19
  A 0.62 0.62 0.0 0 1 22.42 36.19
  L 27.15 40.91
  A 0.50 0.49 -45.5 0 0 27.85 40.90
  Q 29.73 38.98 32.70 36.04
  Q 32.76 35.99 32.99 35.99"
/>
<path stroke="#aeadad" vector-effect="non-scaling-stroke" d="
  M 33.00 52.25
  C 39.38 52.24 44.12 48.42 46.18 42.55
  A 0.99 0.98 32.3 0 0 45.94 41.53
  L 44.30 39.89
  A 0.49 0.48 -44.6 0 0 43.61 39.89
  L 38.93 44.57
  A 0.61 0.60 -46.8 0 1 38.11 44.60
  Q 36.80 43.45 33.88 40.38
  Q 33.15 39.62 32.98 39.62
  Q 32.81 39.62 32.09 40.38
  Q 29.17 43.46 27.87 44.61
  A 0.61 0.60 46.7 0 1 27.05 44.58
  L 22.36 39.91
  A 0.49 0.48 44.5 0 0 21.67 39.91
  L 20.03 41.56
  A 0.99 0.98 -32.5 0 0 19.80 42.58
  C 21.86 48.45 26.61 52.25 33.00 52.25"
/>
</g>
<path fill="#2f2f2e" d="
  M 33.81 88.00
  L 33.04 88.00
  C 16.92 73.35 -5.80 44.88 3.69 21.31
  C 11.08 2.95 33.63 -4.36 50.40 6.12
  Q 62.29 13.55 64.91 27.02
  C 69.23 49.24 49.10 74.05 33.81 88.00
  Z
  M 33.42 86.61
  C 34.06 86.61 33.59 86.66 33.80 86.47
  C 47.77 73.50 63.63 53.75 64.25 33.79
  C 64.79 16.45 50.67 2.52 33.53 2.50
  C 16.39 2.48 2.23 16.37 2.72 33.71
  C 3.29 53.67 19.10 73.46 33.05 86.47
  C 33.25 86.66 32.78 86.61 33.42 86.61
  Z"
/>
<path fill="#5c5a5a" d="
  M 33.53 2.50
  C 50.67 2.52 64.79 16.45 64.25 33.79
  C 63.63 53.75 47.77 73.50 33.80 86.47
  C 33.59 86.66 34.06 86.61 33.42 86.61
  C 32.78 86.61 33.25 86.66 33.05 86.47
  C 19.10 73.46 3.29 53.67 2.72 33.71
  C 2.23 16.37 16.39 2.48 33.53 2.50
  Z
  M 32.97 23.52
  Q 36.12 23.52 38.00 25.74
  A 0.44 0.43 54.3 0 0 38.55 25.84
  L 41.72 24.01
  A 0.68 0.68 0.0 0 0 41.98 23.10
  C 40.14 19.69 36.99 15.83 32.97 15.83
  C 28.94 15.83 25.80 19.70 23.97 23.11
  A 0.68 0.68 0.0 0 0 24.23 24.02
  L 27.40 25.85
  A 0.44 0.43 -54.4 0 0 27.95 25.75
  Q 29.83 23.52 32.97 23.52
  Z
  M 32.99 35.99
  Q 33.22 35.99 33.27 36.04
  Q 36.25 38.98 38.13 40.90
  A 0.50 0.49 45.4 0 0 38.83 40.91
  L 43.56 36.18
  A 0.62 0.62 0.0 0 1 44.43 36.18
  L 46.22 37.98
  A 0.26 0.26 0.0 0 0 46.66 37.77
  Q 46.20 32.11 43.84 26.79
  A 0.67 0.66 69.6 0 0 43.05 26.42
  Q 40.52 27.20 40.18 29.04
  A 1.73 1.72 -49.4 0 1 36.86 29.30
  Q 35.82 26.30 32.98 26.30
  Q 30.15 26.30 29.11 29.30
  A 1.73 1.72 49.3 0 1 25.79 29.05
  Q 25.45 27.21 22.92 26.43
  A 0.67 0.66 -69.7 0 0 22.13 26.80
  Q 19.77 32.12 19.32 37.78
  A 0.26 0.26 0.0 0 0 19.76 37.99
  L 21.55 36.19
  A 0.62 0.62 0.0 0 1 22.42 36.19
  L 27.15 40.91
  A 0.50 0.49 -45.5 0 0 27.85 40.90
  Q 29.73 38.98 32.70 36.04
  Q 32.76 35.99 32.99 35.99
  Z
  M 33.00 52.25
  C 39.38 52.24 44.12 48.42 46.18 42.55
  A 0.99 0.98 32.3 0 0 45.94 41.53
  L 44.30 39.89
  A 0.49 0.48 -44.6 0 0 43.61 39.89
  L 38.93 44.57
  A 0.61 0.60 -46.8 0 1 38.11 44.60
  Q 36.80 43.45 33.88 40.38
  Q 33.15 39.62 32.98 39.62
  Q 32.81 39.62 32.09 40.38
  Q 29.17 43.46 27.87 44.61
  A 0.61 0.60 46.7 0 1 27.05 44.58
  L 22.36 39.91
  A 0.49 0.48 44.5 0 0 21.67 39.91
  L 20.03 41.56
  A 0.99 0.98 -32.5 0 0 19.80 42.58
  C 21.86 48.45 26.61 52.25 33.00 52.25
  Z"
/>
<path fill="#ffffff" d="
  M 32.97 15.83
  C 36.99 15.83 40.14 19.69 41.98 23.10
  A 0.68 0.68 0.0 0 1 41.72 24.01
  L 38.55 25.84
  A 0.44 0.43 54.3 0 1 38.00 25.74
  Q 36.12 23.52 32.97 23.52
  Q 29.83 23.52 27.95 25.75
  A 0.44 0.43 -54.4 0 1 27.40 25.85
  L 24.23 24.02
  A 0.68 0.68 0.0 0 1 23.97 23.11
  C 25.80 19.70 28.94 15.83 32.97 15.83
  Z"
/>
<path fill="#ffffff" d="
  M 32.98 26.30
  Q 35.82 26.30 36.86 29.30
  A 1.73 1.72 -49.4 0 0 40.18 29.04
  Q 40.52 27.20 43.05 26.42
  A 0.67 0.66 69.6 0 1 43.84 26.79
  Q 46.20 32.11 46.66 37.77
  A 0.26 0.26 0.0 0 1 46.22 37.98
  L 44.43 36.18
  A 0.62 0.62 0.0 0 0 43.56 36.18
  L 38.83 40.91
  A 0.50 0.49 45.4 0 1 38.13 40.90
  Q 36.25 38.98 33.27 36.04
  Q 33.22 35.99 32.99 35.99
  Q 32.76 35.99 32.70 36.04
  Q 29.73 38.98 27.85 40.90
  A 0.50 0.49 -45.5 0 1 27.15 40.91
  L 22.42 36.19
  A 0.62 0.62 0.0 0 0 21.55 36.19
  L 19.76 37.99
  A 0.26 0.26 0.0 0 1 19.32 37.78
  Q 19.77 32.12 22.13 26.80
  A 0.67 0.66 -69.7 0 1 22.92 26.43
  Q 25.45 27.21 25.79 29.05
  A 1.73 1.72 49.3 0 0 29.11 29.30
  Q 30.15 26.30 32.98 26.30
  Z"
/>
<path fill="#ffffff" d="
  M 32.98 39.62
  Q 33.15 39.62 33.88 40.38
  Q 36.80 43.45 38.11 44.60
  A 0.61 0.60 -46.8 0 0 38.93 44.57
  L 43.61 39.89
  A 0.49 0.48 -44.6 0 1 44.30 39.89
  L 45.94 41.53
  A 0.99 0.98 32.3 0 1 46.18 42.55
  C 44.12 48.42 39.38 52.24 33.00 52.25
  C 26.61 52.25 21.86 48.45 19.80 42.58
  A 0.99 0.98 -32.5 0 1 20.03 41.56
  L 21.67 39.91
  A 0.49 0.48 44.5 0 1 22.36 39.91
  L 27.05 44.58
  A 0.61 0.60 46.7 0 0 27.87 44.61
  Q 29.17 43.46 32.09 40.38
  Q 32.81 39.62 32.98 39.62
  Z"
/>
</svg>
