<?xml version="1.0" encoding="UTF-8" standalone="no"?>
<!DOCTYPE svg PUBLIC "-//W3C//DTD SVG 1.1//EN" "http://www.w3.org/Graphics/SVG/1.1/DTD/svg11.dtd">
<svg xmlns="http://www.w3.org/2000/svg" version="1.1" viewBox="0.00 0.00 66.00 88.00">
<g stroke-width="2.00" fill="none" stroke-linecap="butt">
<path stroke="#464544" vector-effect="non-scaling-stroke" d="
  M 33.42 86.61
  C 33.96 86.62 33.61 86.64 33.81 86.46
  Q 44.55 76.45 52.65 64.65
  C 62.03 51.00 69.75 31.63 59.25 16.27
  C 53.41 7.73 44.20 2.52 33.53 2.51
  C 22.86 2.49 13.63 7.68 7.77 16.21
  C -2.77 31.54 4.90 50.93 14.25 64.60
  Q 22.32 76.42 33.04 86.46
  C 33.23 86.64 32.88 86.61 33.42 86.61"
/>
<path stroke="#7b7979" vector-effect="non-scaling-stroke" d="
  M 17.74 33.24
  L 19.48 34.62
  A 0.17 0.17 0.0 0 0 19.73 34.40
  Q 19.57 34.15 19.27 33.96
  Q 18.61 33.56 17.74 33.24"
/>
<path stroke="#7b7979" vector-effect="non-scaling-stroke" d="
  M 17.74 33.24
  Q 17.11 31.50 18.28 28.51
  Q 19.73 24.83 21.42 23.03
  A 0.28 0.28 0.0 0 1 21.89 23.30
  Q 21.55 24.53 21.61 25.25
  A 0.37 0.37 0.0 0 0 22.33 25.32
  Q 22.83 23.56 22.29 22.53
  A 0.96 0.88 -1.6 0 1 23.53 21.33
  Q 23.99 21.51 24.53 21.49
  A 0.18 0.18 0.0 0 0 24.61 21.15
  Q 24.11 20.86 24.27 20.35
  Q 24.35 20.08 24.65 20.08
  Q 24.93 20.08 25.06 20.50
  A 0.33 0.33 0.0 0 0 25.61 20.62
  L 26.34 19.89
  A 0.37 0.37 0.0 0 1 26.94 20.01
  Q 27.04 20.21 27.11 20.26
  A 0.40 0.39 15.2 0 0 27.73 19.91
  Q 27.53 17.63 29.86 16.52
  A 0.34 0.34 0.0 0 0 30.02 16.07
  L 29.94 15.88
  A 0.44 0.44 0.0 0 0 29.25 15.72
  L 25.54 18.87
  A 0.13 0.07 -0.0 0 1 25.48 18.90
  Q 21.48 20.44 19.66 23.61
  Q 19.52 23.86 19.17 23.87
  A 0.54 0.53 10.1 0 0 18.69 24.20
  Q 17.62 26.75 17.57 27.25
  A 3.40 3.28 63.9 0 1 17.19 28.43
  Q 15.99 30.65 16.14 31.87
  Q 16.31 33.24 17.74 33.24"
/>
<path stroke="#aeadad" vector-effect="non-scaling-stroke" d="
  M 29.87 18.55
  A 0.34 0.34 0.0 0 0 29.77 18.83
  L 32.56 42.10
  A 0.34 0.34 0.0 0 0 33.23 42.11
  L 36.53 18.08
  A 0.34 0.34 0.0 0 0 36.36 17.74
  L 32.99 15.78
  A 0.34 0.34 0.0 0 0 32.58 15.84
  L 29.87 18.55"
/>
<path stroke="#7b7979" vector-effect="non-scaling-stroke" d="
  M 26.1224 16.6626
  A 0.86 0.44 -50.9 0 0 25.2385 17.0525
  A 0.86 0.44 -50.9 0 0 25.0376 17.9974
  A 0.86 0.44 -50.9 0 0 25.9215 17.6075
  A 0.86 0.44 -50.9 0 0 26.1224 16.6626"
/>
<path stroke="#aeadad" vector-effect="non-scaling-stroke" d="
  M 40.18 17.82
  Q 40.51 17.99 40.68 17.72
  A 0.28 0.25 5.7 0 0 40.35 17.36
  Q 40.19 17.40 40.10 17.59
  A 0.18 0.17 -65.7 0 0 40.18 17.82"
/>
<path stroke="#aeadad" vector-effect="non-scaling-stroke" d="
  M 38.70 18.88
  Q 38.91 18.71 38.99 18.43
  A 0.27 0.25 -65.4 0 0 38.90 18.16
  Q 38.46 17.78 37.36 17.51
  A 0.14 0.14 0.0 0 0 37.23 17.75
  L 38.33 18.85
  A 0.28 0.28 0.0 0 0 38.70 18.88"
/>
<path stroke="#7b7979" vector-effect="non-scaling-stroke" d="
  M 45.79 25.36
  Q 45.71 25.20 45.23 25.15
  A 0.24 0.23 64.4 0 0 45.08 25.58
  L 47.15 26.97
  A 0.78 0.69 9.8 0 1 47.44 27.33
  L 48.22 29.30
  A 0.59 0.59 0.0 0 1 47.91 30.05
  Q 46.77 30.59 47.71 32.52
  A 0.65 0.64 -7.1 0 0 48.18 32.88
  Q 49.03 33.06 49.35 32.46
  A 0.60 0.59 62.7 0 1 50.46 32.82
  Q 50.34 33.80 51.32 33.85
  A 0.54 0.54 0.0 0 0 51.71 32.90
  Q 48.79 30.37 48.52 26.64
  A 1.57 1.55 18.6 0 0 47.99 25.59
  Q 47.97 25.57 47.81 25.45
  A 1.91 1.89 -77.0 0 1 47.12 24.33
  Q 46.89 23.28 45.64 22.41
  Q 45.25 22.14 44.89 22.17
  Q 44.42 22.22 44.22 21.94
  Q 43.87 21.44 44.22 20.84
  Q 44.53 20.28 44.57 19.94
  A 0.37 0.37 0.0 0 0 43.95 19.62
  Q 42.77 20.71 40.98 19.13
  A 0.31 0.31 0.0 0 0 40.52 19.55
  Q 42.71 22.51 43.77 22.08
  A 0.38 0.38 0.0 0 1 44.28 22.48
  L 44.08 23.91
  A 0.69 0.69 0.0 0 1 43.29 24.49
  Q 41.71 24.24 40.92 24.41
  A 0.17 0.17 0.0 0 0 40.94 24.74
  L 43.69 25.12
  A 0.70 0.70 0.0 0 0 44.46 24.58
  Q 44.63 23.81 45.26 23.74
  A 0.64 0.62 -22.3 0 1 45.80 23.96
  Q 46.55 24.83 46.21 25.22
  Q 45.89 25.58 45.79 25.36"
/>
<path stroke="#aeadad" vector-effect="non-scaling-stroke" d="
  M 46.81 21.32
  Q 46.58 21.28 46.43 21.33
  A 0.20 0.20 0.0 0 0 46.42 21.70
  Q 46.52 21.74 46.82 21.66
  A 0.18 0.17 -47.2 0 0 46.81 21.32"
/>
<path stroke="#7b7979" vector-effect="non-scaling-stroke" d="
  M 19.24 29.62
  Q 19.84 31.25 20.10 31.35
  A 0.34 0.34 0.0 0 0 20.54 30.90
  Q 19.78 29.10 19.77 29.09
  A 0.42 0.41 -89.7 0 0 19.24 29.62"
/>
<path stroke="#aeadad" vector-effect="non-scaling-stroke" d="
  M 36.77 48.56
  L 33.84 45.43
  A 1.13 1.13 0.0 0 0 32.22 45.41
  L 29.74 47.89
  A 1.12 1.12 0.0 0 0 29.91 49.62
  C 30.90 50.28 31.91 52.21 33.30 51.96
  Q 34.13 51.81 34.89 50.95"
/>
<path stroke="#7b7979" vector-effect="non-scaling-stroke" d="
  M 34.89 50.95
  Q 37.91 50.78 39.40 49.70
  Q 41.20 48.38 43.81 46.89
  Q 46.09 45.58 47.98 41.62
  A 2.05 2.03 -87.6 0 1 49.08 40.60
  Q 50.03 40.23 49.14 37.70
  A 1.13 1.10 -86.8 0 0 48.60 37.08
  Q 47.24 36.41 46.11 34.76
  A 0.06 0.06 0.0 0 0 46.01 34.75
  L 45.82 34.95
  A 0.14 0.14 0.0 0 0 45.80 35.13
  L 47.97 38.19
  A 0.72 0.71 -38.2 0 1 47.85 39.15
  Q 47.39 39.55 47.44 40.21
  A 0.76 0.76 0.0 0 1 46.69 41.02
  Q 46.55 41.02 46.47 41.03
  A 0.53 0.53 0.0 0 0 46.08 41.80
  Q 46.17 41.98 46.36 42.07
  A 0.38 0.38 0.0 0 1 46.39 42.73
  Q 46.03 42.95 45.46 42.84
  A 0.51 0.51 0.0 0 1 45.07 42.45
  Q 44.78 41.18 44.32 40.79
  A 0.38 0.38 0.0 0 1 44.44 40.13
  Q 44.81 40.01 45.29 40.60
  A 0.20 0.20 0.0 0 0 45.65 40.45
  Q 45.60 39.85 45.30 39.72
  Q 44.79 39.49 43.70 39.80
  A 0.37 0.37 0.0 0 0 43.46 40.29
  L 44.64 43.16
  A 1.38 1.32 43.7 0 1 44.68 44.06
  Q 44.03 46.03 41.93 46.44
  A 1.54 1.46 -66.5 0 0 41.39 46.67
  Q 40.58 47.24 39.97 48.19
  A 1.02 1.01 17.1 0 1 39.08 48.65
  L 36.77 48.56"
/>
<path stroke="#cccbcc" vector-effect="non-scaling-stroke" d="
  M 34.89 50.95
  Q 35.69 49.46 36.77 48.56"
/>
<path stroke="#7b7979" vector-effect="non-scaling-stroke" d="
  M 15.50 38.10
  Q 15.93 38.41 16.34 38.80
  A 0.29 0.29 0.0 0 0 16.82 38.65
  Q 17.07 37.41 16.37 36.90
  Q 15.66 36.39 14.56 37.02
  A 0.29 0.29 0.0 0 0 14.57 37.52
  Q 15.06 37.79 15.50 38.10"
/>
<path stroke="#7b7979" vector-effect="non-scaling-stroke" d="
  M 23.97 43.61
  Q 23.96 42.77 21.92 43.28
  A 1.58 1.57 -27.2 0 1 20.35 42.78
  Q 20.10 42.49 20.14 42.15
  Q 20.20 41.74 19.34 41.19
  Q 18.33 40.56 18.99 39.07
  Q 19.21 38.60 18.56 38.09
  A 0.28 0.28 0.0 0 0 18.10 38.34
  Q 18.23 39.62 17.57 40.04
  A 0.67 0.66 64.5 0 0 17.30 40.82
  Q 18.06 43.07 19.46 43.45
  Q 19.74 43.52 19.85 43.79
  Q 19.91 43.96 19.76 44.21
  A 0.70 0.69 38.9 0 0 19.86 45.08
  L 22.03 47.25
  A 0.69 0.61 70.6 0 0 22.35 47.43
  Q 23.24 47.63 26.24 49.74
  C 26.94 50.23 27.88 50.34 28.61 49.82
  A 0.41 0.41 0.0 0 0 28.49 49.09
  L 26.15 48.40
  A 0.65 0.65 0.0 0 1 26.06 47.19
  Q 26.11 47.15 26.47 46.70
  A 0.38 0.38 0.0 0 0 26.20 46.08
  Q 25.36 46.01 24.95 46.96
  A 0.34 0.34 0.0 0 1 24.33 46.97
  Q 23.67 45.60 23.02 45.66
  A 1.34 1.34 0.0 0 1 21.83 45.14
  L 21.61 44.84
  A 0.50 0.50 0.0 0 1 21.95 44.04
  L 23.79 43.82
  A 0.21 0.20 87.0 0 0 23.97 43.61"
/>
<path stroke="#7b7979" vector-effect="non-scaling-stroke" d="
  M 41.72 48.89
  Q 41.45 48.93 41.41 49.25
  Q 41.35 49.74 41.76 49.87
  Q 42.26 50.02 42.69 49.67
  A 0.43 0.39 -48.9 0 0 42.68 48.98
  Q 42.34 48.80 41.72 48.89"
/>
</g>
<path fill="#2f2f2e" d="
  M 33.81 88.00
  L 33.04 88.00
  C 21.71 77.71 12.20 65.76 5.68 51.55
  Q 2.12 43.82 1.58 34.90
  C 0.42 15.87 16.14 0.24 35.42 1.38
  C 52.71 2.41 66.23 16.89 65.46 34.17
  Q 65.10 42.08 62.12 49.56
  C 56.29 64.18 45.37 77.44 33.81 88.00
  Z
  M 33.42 86.61
  C 33.96 86.62 33.61 86.64 33.81 86.46
  Q 44.55 76.45 52.65 64.65
  C 62.03 51.00 69.75 31.63 59.25 16.27
  C 53.41 7.73 44.20 2.52 33.53 2.51
  C 22.86 2.49 13.63 7.68 7.77 16.21
  C -2.77 31.54 4.90 50.93 14.25 64.60
  Q 22.32 76.42 33.04 86.46
  C 33.23 86.64 32.88 86.61 33.42 86.61
  Z"
/>
<path fill="#5c5a5a" d="
  M 33.53 2.51
  C 44.20 2.52 53.41 7.73 59.25 16.27
  C 69.75 31.63 62.03 51.00 52.65 64.65
  Q 44.55 76.45 33.81 86.46
  C 33.61 86.64 33.96 86.62 33.42 86.61
  C 32.88 86.61 33.23 86.64 33.04 86.46
  Q 22.32 76.42 14.25 64.60
  C 4.90 50.93 -2.77 31.54 7.77 16.21
  C 13.63 7.68 22.86 2.49 33.53 2.51
  Z
  M 17.74 33.24
  L 19.48 34.62
  A 0.17 0.17 0.0 0 0 19.73 34.40
  Q 19.57 34.15 19.27 33.96
  Q 18.61 33.56 17.74 33.24
  Q 17.11 31.50 18.28 28.51
  Q 19.73 24.83 21.42 23.03
  A 0.28 0.28 0.0 0 1 21.89 23.30
  Q 21.55 24.53 21.61 25.25
  A 0.37 0.37 0.0 0 0 22.33 25.32
  Q 22.83 23.56 22.29 22.53
  A 0.96 0.88 -1.6 0 1 23.53 21.33
  Q 23.99 21.51 24.53 21.49
  A 0.18 0.18 0.0 0 0 24.61 21.15
  Q 24.11 20.86 24.27 20.35
  Q 24.35 20.08 24.65 20.08
  Q 24.93 20.08 25.06 20.50
  A 0.33 0.33 0.0 0 0 25.61 20.62
  L 26.34 19.89
  A 0.37 0.37 0.0 0 1 26.94 20.01
  Q 27.04 20.21 27.11 20.26
  A 0.40 0.39 15.2 0 0 27.73 19.91
  Q 27.53 17.63 29.86 16.52
  A 0.34 0.34 0.0 0 0 30.02 16.07
  L 29.94 15.88
  A 0.44 0.44 0.0 0 0 29.25 15.72
  L 25.54 18.87
  A 0.13 0.07 -0.0 0 1 25.48 18.90
  Q 21.48 20.44 19.66 23.61
  Q 19.52 23.86 19.17 23.87
  A 0.54 0.53 10.1 0 0 18.69 24.20
  Q 17.62 26.75 17.57 27.25
  A 3.40 3.28 63.9 0 1 17.19 28.43
  Q 15.99 30.65 16.14 31.87
  Q 16.31 33.24 17.74 33.24
  Z
  M 29.87 18.55
  A 0.34 0.34 0.0 0 0 29.77 18.83
  L 32.56 42.10
  A 0.34 0.34 0.0 0 0 33.23 42.11
  L 36.53 18.08
  A 0.34 0.34 0.0 0 0 36.36 17.74
  L 32.99 15.78
  A 0.34 0.34 0.0 0 0 32.58 15.84
  L 29.87 18.55
  Z
  M 26.1224 16.6626
  A 0.86 0.44 -50.9 0 0 25.2385 17.0525
  A 0.86 0.44 -50.9 0 0 25.0376 17.9974
  A 0.86 0.44 -50.9 0 0 25.9215 17.6075
  A 0.86 0.44 -50.9 0 0 26.1224 16.6626
  Z
  M 40.18 17.82
  Q 40.51 17.99 40.68 17.72
  A 0.28 0.25 5.7 0 0 40.35 17.36
  Q 40.19 17.40 40.10 17.59
  A 0.18 0.17 -65.7 0 0 40.18 17.82
  Z
  M 38.70 18.88
  Q 38.91 18.71 38.99 18.43
  A 0.27 0.25 -65.4 0 0 38.90 18.16
  Q 38.46 17.78 37.36 17.51
  A 0.14 0.14 0.0 0 0 37.23 17.75
  L 38.33 18.85
  A 0.28 0.28 0.0 0 0 38.70 18.88
  Z
  M 45.79 25.36
  Q 45.71 25.20 45.23 25.15
  A 0.24 0.23 64.4 0 0 45.08 25.58
  L 47.15 26.97
  A 0.78 0.69 9.8 0 1 47.44 27.33
  L 48.22 29.30
  A 0.59 0.59 0.0 0 1 47.91 30.05
  Q 46.77 30.59 47.71 32.52
  A 0.65 0.64 -7.1 0 0 48.18 32.88
  Q 49.03 33.06 49.35 32.46
  A 0.60 0.59 62.7 0 1 50.46 32.82
  Q 50.34 33.80 51.32 33.85
  A 0.54 0.54 0.0 0 0 51.71 32.90
  Q 48.79 30.37 48.52 26.64
  A 1.57 1.55 18.6 0 0 47.99 25.59
  Q 47.97 25.57 47.81 25.45
  A 1.91 1.89 -77.0 0 1 47.12 24.33
  Q 46.89 23.28 45.64 22.41
  Q 45.25 22.14 44.89 22.17
  Q 44.42 22.22 44.22 21.94
  Q 43.87 21.44 44.22 20.84
  Q 44.53 20.28 44.57 19.94
  A 0.37 0.37 0.0 0 0 43.95 19.62
  Q 42.77 20.71 40.98 19.13
  A 0.31 0.31 0.0 0 0 40.52 19.55
  Q 42.71 22.51 43.77 22.08
  A 0.38 0.38 0.0 0 1 44.28 22.48
  L 44.08 23.91
  A 0.69 0.69 0.0 0 1 43.29 24.49
  Q 41.71 24.24 40.92 24.41
  A 0.17 0.17 0.0 0 0 40.94 24.74
  L 43.69 25.12
  A 0.70 0.70 0.0 0 0 44.46 24.58
  Q 44.63 23.81 45.26 23.74
  A 0.64 0.62 -22.3 0 1 45.80 23.96
  Q 46.55 24.83 46.21 25.22
  Q 45.89 25.58 45.79 25.36
  Z
  M 46.81 21.32
  Q 46.58 21.28 46.43 21.33
  A 0.20 0.20 0.0 0 0 46.42 21.70
  Q 46.52 21.74 46.82 21.66
  A 0.18 0.17 -47.2 0 0 46.81 21.32
  Z
  M 19.24 29.62
  Q 19.84 31.25 20.10 31.35
  A 0.34 0.34 0.0 0 0 20.54 30.90
  Q 19.78 29.10 19.77 29.09
  A 0.42 0.41 -89.7 0 0 19.24 29.62
  Z
  M 36.77 48.56
  L 33.84 45.43
  A 1.13 1.13 0.0 0 0 32.22 45.41
  L 29.74 47.89
  A 1.12 1.12 0.0 0 0 29.91 49.62
  C 30.90 50.28 31.91 52.21 33.30 51.96
  Q 34.13 51.81 34.89 50.95
  Q 37.91 50.78 39.40 49.70
  Q 41.20 48.38 43.81 46.89
  Q 46.09 45.58 47.98 41.62
  A 2.05 2.03 -87.6 0 1 49.08 40.60
  Q 50.03 40.23 49.14 37.70
  A 1.13 1.10 -86.8 0 0 48.60 37.08
  Q 47.24 36.41 46.11 34.76
  A 0.06 0.06 0.0 0 0 46.01 34.75
  L 45.82 34.95
  A 0.14 0.14 0.0 0 0 45.80 35.13
  L 47.97 38.19
  A 0.72 0.71 -38.2 0 1 47.85 39.15
  Q 47.39 39.55 47.44 40.21
  A 0.76 0.76 0.0 0 1 46.69 41.02
  Q 46.55 41.02 46.47 41.03
  A 0.53 0.53 0.0 0 0 46.08 41.80
  Q 46.17 41.98 46.36 42.07
  A 0.38 0.38 0.0 0 1 46.39 42.73
  Q 46.03 42.95 45.46 42.84
  A 0.51 0.51 0.0 0 1 45.07 42.45
  Q 44.78 41.18 44.32 40.79
  A 0.38 0.38 0.0 0 1 44.44 40.13
  Q 44.81 40.01 45.29 40.60
  A 0.20 0.20 0.0 0 0 45.65 40.45
  Q 45.60 39.85 45.30 39.72
  Q 44.79 39.49 43.70 39.80
  A 0.37 0.37 0.0 0 0 43.46 40.29
  L 44.64 43.16
  A 1.38 1.32 43.7 0 1 44.68 44.06
  Q 44.03 46.03 41.93 46.44
  A 1.54 1.46 -66.5 0 0 41.39 46.67
  Q 40.58 47.24 39.97 48.19
  A 1.02 1.01 17.1 0 1 39.08 48.65
  L 36.77 48.56
  Z
  M 15.50 38.10
  Q 15.93 38.41 16.34 38.80
  A 0.29 0.29 0.0 0 0 16.82 38.65
  Q 17.07 37.41 16.37 36.90
  Q 15.66 36.39 14.56 37.02
  A 0.29 0.29 0.0 0 0 14.57 37.52
  Q 15.06 37.79 15.50 38.10
  Z
  M 23.97 43.61
  Q 23.96 42.77 21.92 43.28
  A 1.58 1.57 -27.2 0 1 20.35 42.78
  Q 20.10 42.49 20.14 42.15
  Q 20.20 41.74 19.34 41.19
  Q 18.33 40.56 18.99 39.07
  Q 19.21 38.60 18.56 38.09
  A 0.28 0.28 0.0 0 0 18.10 38.34
  Q 18.23 39.62 17.57 40.04
  A 0.67 0.66 64.5 0 0 17.30 40.82
  Q 18.06 43.07 19.46 43.45
  Q 19.74 43.52 19.85 43.79
  Q 19.91 43.96 19.76 44.21
  A 0.70 0.69 38.9 0 0 19.86 45.08
  L 22.03 47.25
  A 0.69 0.61 70.6 0 0 22.35 47.43
  Q 23.24 47.63 26.24 49.74
  C 26.94 50.23 27.88 50.34 28.61 49.82
  A 0.41 0.41 0.0 0 0 28.49 49.09
  L 26.15 48.40
  A 0.65 0.65 0.0 0 1 26.06 47.19
  Q 26.11 47.15 26.47 46.70
  A 0.38 0.38 0.0 0 0 26.20 46.08
  Q 25.36 46.01 24.95 46.96
  A 0.34 0.34 0.0 0 1 24.33 46.97
  Q 23.67 45.60 23.02 45.66
  A 1.34 1.34 0.0 0 1 21.83 45.14
  L 21.61 44.84
  A 0.50 0.50 0.0 0 1 21.95 44.04
  L 23.79 43.82
  A 0.21 0.20 87.0 0 0 23.97 43.61
  Z
  M 41.72 48.89
  Q 41.45 48.93 41.41 49.25
  Q 41.35 49.74 41.76 49.87
  Q 42.26 50.02 42.69 49.67
  A 0.43 0.39 -48.9 0 0 42.68 48.98
  Q 42.34 48.80 41.72 48.89
  Z"
/>
<path fill="#999798" d="
  M 17.74 33.24
  Q 16.31 33.24 16.14 31.87
  Q 15.99 30.65 17.19 28.43
  A 3.40 3.28 63.9 0 0 17.57 27.25
  Q 17.62 26.75 18.69 24.20
  A 0.54 0.53 10.1 0 1 19.17 23.87
  Q 19.52 23.86 19.66 23.61
  Q 21.48 20.44 25.48 18.90
  A 0.13 0.07 0.0 0 0 25.54 18.87
  L 29.25 15.72
  A 0.44 0.44 0.0 0 1 29.94 15.88
  L 30.02 16.07
  A 0.34 0.34 0.0 0 1 29.86 16.52
  Q 27.53 17.63 27.73 19.91
  A 0.40 0.39 15.2 0 1 27.11 20.26
  Q 27.04 20.21 26.94 20.01
  A 0.37 0.37 0.0 0 0 26.34 19.89
  L 25.61 20.62
  A 0.33 0.33 0.0 0 1 25.06 20.50
  Q 24.93 20.08 24.65 20.08
  Q 24.35 20.08 24.27 20.35
  Q 24.11 20.86 24.61 21.15
  A 0.18 0.18 0.0 0 1 24.53 21.49
  Q 23.99 21.51 23.53 21.33
  A 0.96 0.88 -1.6 0 0 22.29 22.53
  Q 22.83 23.56 22.33 25.32
  A 0.37 0.37 0.0 0 1 21.61 25.25
  Q 21.55 24.53 21.89 23.30
  A 0.28 0.28 0.0 0 0 21.42 23.03
  Q 19.73 24.83 18.28 28.51
  Q 17.11 31.50 17.74 33.24
  Z"
/>
<path fill="#ffffff" d="
  M 29.87 18.55
  L 32.58 15.84
  A 0.34 0.34 0.0 0 1 32.99 15.78
  L 36.36 17.74
  A 0.34 0.34 0.0 0 1 36.53 18.08
  L 33.23 42.11
  A 0.34 0.34 0.0 0 1 32.56 42.10
  L 29.77 18.83
  A 0.34 0.34 0.0 0 1 29.87 18.55
  Z"
/>
<ellipse fill="#999798" cx="0.00" cy="0.00" transform="translate(25.58,17.33) rotate(-50.9)" rx="0.86" ry="0.44"/>
<path fill="#ffffff" d="
  M 40.10 17.59
  Q 40.19 17.40 40.35 17.36
  A 0.28 0.25 5.7 0 1 40.68 17.72
  Q 40.51 17.99 40.18 17.82
  A 0.18 0.17 -65.7 0 1 40.10 17.59
  Z"
/>
<path fill="#ffffff" d="
  M 38.33 18.85
  L 37.23 17.75
  A 0.14 0.14 0.0 0 1 37.36 17.51
  Q 38.46 17.78 38.90 18.16
  A 0.27 0.25 -65.4 0 1 38.99 18.43
  Q 38.91 18.71 38.70 18.88
  A 0.28 0.28 0.0 0 1 38.33 18.85
  Z"
/>
<path fill="#999798" d="
  M 46.21 25.22
  Q 46.55 24.83 45.80 23.96
  A 0.64 0.62 -22.3 0 0 45.26 23.74
  Q 44.63 23.81 44.46 24.58
  A 0.70 0.70 0.0 0 1 43.69 25.12
  L 40.94 24.74
  A 0.17 0.17 0.0 0 1 40.92 24.41
  Q 41.71 24.24 43.29 24.49
  A 0.69 0.69 0.0 0 0 44.08 23.91
  L 44.28 22.48
  A 0.38 0.38 0.0 0 0 43.77 22.08
  Q 42.71 22.51 40.52 19.55
  A 0.31 0.31 0.0 0 1 40.98 19.13
  Q 42.77 20.71 43.95 19.62
  A 0.37 0.37 0.0 0 1 44.57 19.94
  Q 44.53 20.28 44.22 20.84
  Q 43.87 21.44 44.22 21.94
  Q 44.42 22.22 44.89 22.17
  Q 45.25 22.14 45.64 22.41
  Q 46.89 23.28 47.12 24.33
  A 1.91 1.89 -77.0 0 0 47.81 25.45
  Q 47.97 25.57 47.99 25.59
  A 1.57 1.55 18.6 0 1 48.52 26.64
  Q 48.79 30.37 51.71 32.90
  A 0.54 0.54 0.0 0 1 51.32 33.85
  Q 50.34 33.80 50.46 32.82
  A 0.60 0.59 62.7 0 0 49.35 32.46
  Q 49.03 33.06 48.18 32.88
  A 0.65 0.64 -7.1 0 1 47.71 32.52
  Q 46.77 30.59 47.91 30.05
  A 0.59 0.59 0.0 0 0 48.22 29.30
  L 47.44 27.33
  A 0.78 0.69 9.8 0 0 47.15 26.97
  L 45.08 25.58
  A 0.24 0.23 64.4 0 1 45.23 25.15
  Q 45.71 25.20 45.79 25.36
  Q 45.89 25.58 46.21 25.22
  Z"
/>
<path fill="#ffffff" d="
  M 46.81 21.32
  A 0.18 0.17 -47.2 0 1 46.82 21.66
  Q 46.52 21.74 46.42 21.70
  A 0.20 0.20 0.0 0 1 46.43 21.33
  Q 46.58 21.28 46.81 21.32
  Z"
/>
<path fill="#999798" d="
  M 19.77 29.09
  Q 19.78 29.10 20.54 30.90
  A 0.34 0.34 0.0 0 1 20.10 31.35
  Q 19.84 31.25 19.24 29.62
  A 0.42 0.41 -89.7 0 1 19.77 29.09
  Z"
/>
<path fill="#999798" d="
  M 17.74 33.24
  Q 18.61 33.56 19.27 33.96
  Q 19.57 34.15 19.73 34.40
  A 0.17 0.17 0.0 0 1 19.48 34.62
  L 17.74 33.24
  Z"
/>
<path fill="#999798" d="
  M 34.89 50.95
  Q 35.69 49.46 36.77 48.56
  L 39.08 48.65
  A 1.02 1.01 17.1 0 0 39.97 48.19
  Q 40.58 47.24 41.39 46.67
  A 1.54 1.46 -66.5 0 1 41.93 46.44
  Q 44.03 46.03 44.68 44.06
  A 1.38 1.32 43.7 0 0 44.64 43.16
  L 43.46 40.29
  A 0.37 0.37 0.0 0 1 43.70 39.80
  Q 44.79 39.49 45.30 39.72
  Q 45.60 39.85 45.65 40.45
  A 0.20 0.20 0.0 0 1 45.29 40.60
  Q 44.81 40.01 44.44 40.13
  A 0.38 0.38 0.0 0 0 44.32 40.79
  Q 44.78 41.18 45.07 42.45
  A 0.51 0.51 0.0 0 0 45.46 42.84
  Q 46.03 42.95 46.39 42.73
  A 0.38 0.38 0.0 0 0 46.36 42.07
  Q 46.17 41.98 46.08 41.80
  A 0.53 0.53 0.0 0 1 46.47 41.03
  Q 46.55 41.02 46.69 41.02
  A 0.76 0.76 0.0 0 0 47.44 40.21
  Q 47.39 39.55 47.85 39.15
  A 0.72 0.71 -38.2 0 0 47.97 38.19
  L 45.80 35.13
  A 0.14 0.14 0.0 0 1 45.82 34.95
  L 46.01 34.75
  A 0.06 0.06 0.0 0 1 46.11 34.76
  Q 47.24 36.41 48.60 37.08
  A 1.13 1.10 -86.8 0 1 49.14 37.70
  Q 50.03 40.23 49.08 40.60
  A 2.05 2.03 -87.6 0 0 47.98 41.62
  Q 46.09 45.58 43.81 46.89
  Q 41.20 48.38 39.40 49.70
  Q 37.91 50.78 34.89 50.95
  Z"
/>
<path fill="#999798" d="
  M 16.37 36.90
  Q 17.07 37.41 16.82 38.65
  A 0.29 0.29 0.0 0 1 16.34 38.80
  Q 15.93 38.41 15.50 38.10
  Q 15.06 37.79 14.57 37.52
  A 0.29 0.29 0.0 0 1 14.56 37.02
  Q 15.66 36.39 16.37 36.90
  Z"
/>
<path fill="#999798" d="
  M 23.79 43.82
  L 21.95 44.04
  A 0.50 0.50 0.0 0 0 21.61 44.84
  L 21.83 45.14
  A 1.34 1.34 0.0 0 0 23.02 45.66
  Q 23.67 45.60 24.33 46.97
  A 0.34 0.34 0.0 0 0 24.95 46.96
  Q 25.36 46.01 26.20 46.08
  A 0.38 0.38 0.0 0 1 26.47 46.70
  Q 26.11 47.15 26.06 47.19
  A 0.65 0.65 0.0 0 0 26.15 48.40
  L 28.49 49.09
  A 0.41 0.41 0.0 0 1 28.61 49.82
  C 27.88 50.34 26.94 50.23 26.24 49.74
  Q 23.24 47.63 22.35 47.43
  A 0.69 0.61 70.6 0 1 22.03 47.25
  L 19.86 45.08
  A 0.70 0.69 38.9 0 1 19.76 44.21
  Q 19.91 43.96 19.85 43.79
  Q 19.74 43.52 19.46 43.45
  Q 18.06 43.07 17.30 40.82
  A 0.67 0.66 64.5 0 1 17.57 40.04
  Q 18.23 39.62 18.10 38.34
  A 0.28 0.28 0.0 0 1 18.56 38.09
  Q 19.21 38.60 18.99 39.07
  Q 18.33 40.56 19.34 41.19
  Q 20.20 41.74 20.14 42.15
  Q 20.10 42.49 20.35 42.78
  A 1.58 1.57 -27.2 0 0 21.92 43.28
  Q 23.96 42.77 23.97 43.61
  A 0.21 0.20 87.0 0 1 23.79 43.82
  Z"
/>
<path fill="#ffffff" d="
  M 36.77 48.56
  Q 35.69 49.46 34.89 50.95
  Q 34.13 51.81 33.30 51.96
  C 31.91 52.21 30.90 50.28 29.91 49.62
  A 1.12 1.12 0.0 0 1 29.74 47.89
  L 32.22 45.41
  A 1.13 1.13 0.0 0 1 33.84 45.43
  L 36.77 48.56
  Z"
/>
<path fill="#999798" d="
  M 41.72 48.89
  Q 42.34 48.80 42.68 48.98
  A 0.43 0.39 -48.9 0 1 42.69 49.67
  Q 42.26 50.02 41.76 49.87
  Q 41.35 49.74 41.41 49.25
  Q 41.45 48.93 41.72 48.89
  Z"
/>
</svg>
