<?xml version="1.0" encoding="UTF-8" standalone="no"?>
<!DOCTYPE svg PUBLIC "-//W3C//DTD SVG 1.1//EN" "http://www.w3.org/Graphics/SVG/1.1/DTD/svg11.dtd">
<svg xmlns="http://www.w3.org/2000/svg" version="1.1" viewBox="0.00 0.00 66.00 88.00">
<g stroke-width="2.00" fill="none" stroke-linecap="butt">
<path stroke="#4c120e" vector-effect="non-scaling-stroke" d="
  M 33.41 86.62
  Q 33.59 86.62 33.69 86.53
  C 47.53 73.74 65.57 51.58 64.18 31.18
  Q 63.07 14.90 48.58 6.46
  Q 41.74 2.47 33.53 2.46
  Q 25.33 2.45 18.47 6.41
  Q 3.96 14.81 2.80 31.09
  C 1.35 51.48 19.32 73.70 33.13 86.53
  Q 33.22 86.62 33.41 86.62"
/>
<path stroke="#b18c89" vector-effect="non-scaling-stroke" d="
  M 18.10 22.14
  Q 23.23 21.99 23.77 17.35
  A 0.41 0.40 -9.2 0 0 23.19 16.94
  Q 21.28 17.82 20.47 19.08
  A 1.00 0.94 -84.8 0 1 20.04 19.46
  Q 18.94 19.95 17.82 21.62
  A 0.33 0.33 0.0 0 0 18.10 22.14"
/>
<path stroke="#b18c89" vector-effect="non-scaling-stroke" d="
  M 48.46 21.54
  L 42.65 16.56
  A 0.03 0.03 0.0 0 0 42.60 16.56
  L 42.57 16.60
  A 3.71 2.24 40.6 0 0 43.93 20.71
  L 44.16 20.91
  A 3.71 2.24 40.6 0 0 48.43 21.62
  L 48.47 21.58
  A 0.03 0.03 0.0 0 0 48.46 21.54"
/>
<path stroke="#b18c89" vector-effect="non-scaling-stroke" d="
  M 24.75 29.49
  Q 24.94 29.29 25.01 29.28
  Q 33.10 27.70 40.42 29.26
  A 0.37 0.37 0.0 0 1 40.58 29.91
  Q 40.16 30.26 39.28 30.00
  Q 33.28 28.30 27.37 29.89
  Q 26.46 30.13 25.22 29.85
  A 0.37 0.37 0.0 0 0 24.79 30.36
  Q 25.00 30.84 25.19 30.98
  A 0.75 0.73 -34.6 0 0 25.83 31.09
  Q 31.45 29.33 37.08 30.10
  A 1.99 1.92 64.4 0 1 37.81 30.37
  Q 38.73 30.95 40.37 30.90
  A 1.00 0.99 -75.1 0 0 41.18 30.42
  Q 42.36 28.49 41.93 26.09
  A 0.33 0.33 0.0 0 0 41.32 25.99
  Q 40.71 27.05 39.77 26.91
  A 1.33 1.31 76.4 0 1 38.87 26.35
  Q 38.26 25.46 38.94 23.71
  A 0.50 0.49 20.4 0 0 38.64 23.06
  Q 38.30 22.95 38.05 23.01
  A 0.55 0.55 0.0 0 0 37.64 23.57
  Q 37.70 24.57 37.70 24.60
  A 1.98 1.96 17.8 0 1 34.68 26.13
  Q 33.20 25.20 33.71 22.83
  A 0.54 0.54 0.0 0 1 34.57 22.51
  L 35.55 23.27
  A 0.45 0.45 0.0 0 0 36.28 22.91
  L 36.28 22.31
  A 1.14 1.14 0.0 0 0 35.63 21.28
  Q 35.03 20.98 34.48 20.97
  A 0.49 0.48 5.6 0 1 34.01 20.40
  Q 34.22 19.27 33.82 18.01
  A 0.89 0.88 -46.2 0 0 32.13 18.05
  Q 31.74 19.45 31.95 20.48
  A 0.43 0.42 84.3 0 1 31.54 20.99
  Q 29.43 21.00 29.63 22.95
  A 0.44 0.44 0.0 0 0 30.45 23.12
  Q 30.82 22.46 31.55 22.24
  A 0.58 0.58 0.0 0 1 32.30 22.73
  Q 32.53 24.77 31.80 25.64
  A 2.13 2.05 50.9 0 1 28.38 25.22
  Q 28.12 24.75 28.37 23.67
  A 0.46 0.45 -64.5 0 0 28.21 23.20
  Q 27.87 22.91 27.31 23.02
  A 0.48 0.47 68.7 0 0 27.00 23.74
  Q 28.09 25.48 26.72 26.68
  A 1.04 1.04 0.0 0 1 25.74 26.90
  Q 25.02 26.71 24.79 25.94
  A 0.35 0.35 0.0 0 0 24.13 25.94
  Q 23.63 27.54 24.42 29.43
  A 0.20 0.20 0.0 0 0 24.75 29.49"
/>
<path stroke="#b18c89" vector-effect="non-scaling-stroke" d="
  M 21.33 22.80
  Q 23.41 24.02 25.03 24.27
  A 0.78 0.77 63.8 0 0 25.52 22.82
  Q 24.58 22.30 23.73 21.29
  A 0.99 0.98 52.7 0 0 22.44 21.11
  L 21.31 21.88
  A 0.55 0.54 -46.4 0 0 21.33 22.80"
/>
<path stroke="#b18c89" vector-effect="non-scaling-stroke" d="
  M 44.67 22.82
  A 0.54 0.54 0.0 0 0 44.70 21.90
  L 43.59 21.12
  A 0.98 0.98 0.0 0 0 42.30 21.28
  Q 41.44 22.27 40.50 22.78
  A 0.78 0.77 -63.0 0 0 40.96 24.23
  Q 42.58 24.00 44.67 22.82"
/>
<path stroke="#b18c89" vector-effect="non-scaling-stroke" d="
  M 27.49 50.40
  L 27.50 50.39
  A 0.28 0.28 0.0 0 0 27.47 50.00
  Q 21.06 44.27 18.59 36.06
  A 0.19 0.19 0.0 0 0 18.35 35.93
  A 0.20 0.19 -18.6 0 0 18.22 36.18
  L 19.01 38.29
  L 19.01 38.30
  L 18.79 38.42
  A 0.29 0.29 0.0 0 1 18.40 38.31
  Q 16.37 34.68 17.79 31.59
  A 1.25 1.24 -42.3 0 1 20.10 31.70
  L 20.94 34.08
  A 0.60 0.60 0.0 0 0 21.72 34.44
  Q 22.76 34.05 23.12 33.61
  A 2.41 2.21 -62.0 0 0 22.15 29.89
  Q 18.58 28.88 15.02 24.94
  A 0.21 0.21 0.0 0 0 14.66 25.08
  L 14.63 30.56
  A 0.13 0.13 0.0 0 1 14.57 30.67
  L 14.18 30.95
  A 0.20 0.20 0.0 0 1 13.86 30.77
  L 13.88 26.77
  A 0.27 0.27 0.0 0 0 13.35 26.72
  Q 13.05 28.07 13.33 29.48
  Q 15.97 42.65 27.30 50.43
  A 0.15 0.14 35.8 0 0 27.49 50.40"
/>
<path stroke="#b18c89" vector-effect="non-scaling-stroke" d="
  M 38.40 50.38
  A 0.15 0.14 -35.5 0 0 38.59 50.41
  Q 49.97 42.67 52.67 29.49
  Q 52.96 28.07 52.66 26.72
  A 0.27 0.27 0.0 0 0 52.13 26.77
  L 52.13 30.78
  A 0.21 0.20 -72.8 0 1 51.81 30.95
  L 51.42 30.67
  A 0.14 0.13 17.4 0 1 51.36 30.56
  L 51.36 25.07
  A 0.21 0.21 0.0 0 0 51.00 24.93
  Q 47.41 28.86 43.83 29.86
  A 2.41 2.21 62.3 0 0 42.85 33.58
  Q 43.20 34.02 44.24 34.42
  A 0.60 0.60 0.0 0 0 45.03 34.06
  L 45.88 31.68
  A 1.25 1.25 0.0 0 1 48.19 31.58
  Q 49.60 34.68 47.55 38.31
  A 0.29 0.29 0.0 0 1 47.16 38.42
  L 46.94 38.30
  L 46.94 38.29
  L 47.74 36.18
  A 0.20 0.19 18.8 0 0 47.61 35.92
  A 0.19 0.19 0.0 0 0 47.37 36.05
  Q 44.86 44.27 38.42 49.98
  A 0.28 0.28 0.0 0 0 38.39 50.37
  L 38.40 50.38"
/>
<path stroke="#b18c89" vector-effect="non-scaling-stroke" d="
  M 28.92 41.76
  A 0.41 0.40 75.0 0 0 29.53 42.12
  Q 33.01 40.11 36.21 42.05
  A 0.50 0.50 0.0 0 0 36.95 41.49
  L 36.52 39.89
  A 0.22 0.21 -16.3 0 1 36.67 39.63
  L 40.02 38.72
  A 0.95 0.95 0.0 0 0 40.68 38.07
  Q 41.48 35.44 40.21 32.57
  A 0.93 0.92 -9.3 0 0 39.45 32.03
  Q 38.15 31.92 37.51 31.24
  A 0.52 0.52 0.0 0 0 36.72 31.27
  Q 35.78 32.41 35.12 31.44
  A 1.09 1.06 74.4 0 0 34.29 30.96
  Q 29.12 30.66 25.04 32.95
  A 1.25 1.25 0.0 0 0 24.55 34.64
  Q 25.48 36.31 25.04 38.67
  A 0.95 0.94 -4.6 0 0 26.29 39.73
  Q 27.27 39.38 28.40 39.72
  A 0.72 0.72 0.0 0 1 28.92 40.41
  L 28.92 41.76"
/>
<path stroke="#b18c89" vector-effect="non-scaling-stroke" d="
  M 36.44 42.95
  C 35.10 42.84 33.79 41.94 32.63 42.12
  Q 30.40 42.45 29.51 43.00
  A 0.31 0.29 68.5 0 0 29.38 43.33
  L 29.46 43.62
  A 0.26 0.25 -20.8 0 0 29.82 43.78
  L 31.30 43.04
  A 1.73 1.72 -53.5 0 1 32.35 42.88
  L 36.45 43.52
  A 0.25 0.24 -79.7 0 0 36.72 43.33
  L 36.72 43.31
  A 0.31 0.31 0.0 0 0 36.44 42.95"
/>
<path stroke="#b18c89" vector-effect="non-scaling-stroke" d="
  M 31.30 36.03
  L 31.83 34.27
  A 0.44 0.44 0.0 0 0 31.29 33.72
  Q 30.34 33.99 29.69 33.08
  A 1.89 1.71 -66.6 0 0 26.55 34.51
  Q 26.67 36.85 29.98 36.97
  A 1.34 1.34 0.0 0 0 31.30 36.03"
/>
<path stroke="#b18c89" vector-effect="non-scaling-stroke" d="
  M 34.74 36.12
  A 1.31 1.30 -7.5 0 0 36.00 37.08
  Q 39.22 37.05 39.40 34.78
  A 1.83 1.66 68.3 0 0 36.39 33.30
  Q 35.73 34.17 34.82 33.88
  A 0.43 0.43 0.0 0 0 34.28 34.40
  L 34.74 36.12"
/>
<path stroke="#b18c89" vector-effect="non-scaling-stroke" d="
  M 31.95 39.30
  L 33.99 39.32
  A 0.49 0.49 0.0 0 0 34.49 38.83
  L 34.49 38.65
  A 3.37 1.42 -89.5 0 0 33.10 35.27
  L 32.92 35.27
  A 3.37 1.42 -89.5 0 0 31.47 38.63
  L 31.47 38.81
  A 0.49 0.49 0.0 0 0 31.95 39.30"
/>
</g>
<path fill="#350b09" d="
  M 33.79 88.00
  L 33.04 88.00
  C 21.76 77.75 12.07 65.62 5.64 51.56
  Q 2.20 44.02 1.59 34.88
  Q 1.00 25.97 5.10 18.31
  C 17.39 -4.61 51.44 -4.48 62.70 19.93
  C 73.72 43.83 50.16 73.16 33.79 88.00
  Z
  M 33.41 86.62
  Q 33.59 86.62 33.69 86.53
  C 47.53 73.74 65.57 51.58 64.18 31.18
  Q 63.07 14.90 48.58 6.46
  Q 41.74 2.47 33.53 2.46
  Q 25.33 2.45 18.47 6.41
  Q 3.96 14.81 2.80 31.09
  C 1.35 51.48 19.32 73.70 33.13 86.53
  Q 33.22 86.62 33.41 86.62
  Z"
/>
<path fill="#631813" d="
  M 33.53 2.46
  Q 41.74 2.47 48.58 6.46
  Q 63.07 14.90 64.18 31.18
  C 65.57 51.58 47.53 73.74 33.69 86.53
  Q 33.59 86.62 33.41 86.62
  Q 33.22 86.62 33.13 86.53
  C 19.32 73.70 1.35 51.48 2.80 31.09
  Q 3.96 14.81 18.47 6.41
  Q 25.33 2.45 33.53 2.46
  Z
  M 18.10 22.14
  Q 23.23 21.99 23.77 17.35
  A 0.41 0.40 -9.2 0 0 23.19 16.94
  Q 21.28 17.82 20.47 19.08
  A 1.00 0.94 -84.8 0 1 20.04 19.46
  Q 18.94 19.95 17.82 21.62
  A 0.33 0.33 0.0 0 0 18.10 22.14
  Z
  M 48.46 21.54
  L 42.65 16.56
  A 0.03 0.03 0.0 0 0 42.60 16.56
  L 42.57 16.60
  A 3.71 2.24 40.6 0 0 43.93 20.71
  L 44.16 20.91
  A 3.71 2.24 40.6 0 0 48.43 21.62
  L 48.47 21.58
  A 0.03 0.03 0.0 0 0 48.46 21.54
  Z
  M 24.75 29.49
  Q 24.94 29.29 25.01 29.28
  Q 33.10 27.70 40.42 29.26
  A 0.37 0.37 0.0 0 1 40.58 29.91
  Q 40.16 30.26 39.28 30.00
  Q 33.28 28.30 27.37 29.89
  Q 26.46 30.13 25.22 29.85
  A 0.37 0.37 0.0 0 0 24.79 30.36
  Q 25.00 30.84 25.19 30.98
  A 0.75 0.73 -34.6 0 0 25.83 31.09
  Q 31.45 29.33 37.08 30.10
  A 1.99 1.92 64.4 0 1 37.81 30.37
  Q 38.73 30.95 40.37 30.90
  A 1.00 0.99 -75.1 0 0 41.18 30.42
  Q 42.36 28.49 41.93 26.09
  A 0.33 0.33 0.0 0 0 41.32 25.99
  Q 40.71 27.05 39.77 26.91
  A 1.33 1.31 76.4 0 1 38.87 26.35
  Q 38.26 25.46 38.94 23.71
  A 0.50 0.49 20.4 0 0 38.64 23.06
  Q 38.30 22.95 38.05 23.01
  A 0.55 0.55 0.0 0 0 37.64 23.57
  Q 37.70 24.57 37.70 24.60
  A 1.98 1.96 17.8 0 1 34.68 26.13
  Q 33.20 25.20 33.71 22.83
  A 0.54 0.54 0.0 0 1 34.57 22.51
  L 35.55 23.27
  A 0.45 0.45 0.0 0 0 36.28 22.91
  L 36.28 22.31
  A 1.14 1.14 0.0 0 0 35.63 21.28
  Q 35.03 20.98 34.48 20.97
  A 0.49 0.48 5.6 0 1 34.01 20.40
  Q 34.22 19.27 33.82 18.01
  A 0.89 0.88 -46.2 0 0 32.13 18.05
  Q 31.74 19.45 31.95 20.48
  A 0.43 0.42 84.3 0 1 31.54 20.99
  Q 29.43 21.00 29.63 22.95
  A 0.44 0.44 0.0 0 0 30.45 23.12
  Q 30.82 22.46 31.55 22.24
  A 0.58 0.58 0.0 0 1 32.30 22.73
  Q 32.53 24.77 31.80 25.64
  A 2.13 2.05 50.9 0 1 28.38 25.22
  Q 28.12 24.75 28.37 23.67
  A 0.46 0.45 -64.5 0 0 28.21 23.20
  Q 27.87 22.91 27.31 23.02
  A 0.48 0.47 68.7 0 0 27.00 23.74
  Q 28.09 25.48 26.72 26.68
  A 1.04 1.04 0.0 0 1 25.74 26.90
  Q 25.02 26.71 24.79 25.94
  A 0.35 0.35 0.0 0 0 24.13 25.94
  Q 23.63 27.54 24.42 29.43
  A 0.20 0.20 0.0 0 0 24.75 29.49
  Z
  M 21.33 22.80
  Q 23.41 24.02 25.03 24.27
  A 0.78 0.77 63.8 0 0 25.52 22.82
  Q 24.58 22.30 23.73 21.29
  A 0.99 0.98 52.7 0 0 22.44 21.11
  L 21.31 21.88
  A 0.55 0.54 -46.4 0 0 21.33 22.80
  Z
  M 44.67 22.82
  A 0.54 0.54 0.0 0 0 44.70 21.90
  L 43.59 21.12
  A 0.98 0.98 0.0 0 0 42.30 21.28
  Q 41.44 22.27 40.50 22.78
  A 0.78 0.77 -63.0 0 0 40.96 24.23
  Q 42.58 24.00 44.67 22.82
  Z
  M 27.49 50.40
  L 27.50 50.39
  A 0.28 0.28 0.0 0 0 27.47 50.00
  Q 21.06 44.27 18.59 36.06
  A 0.19 0.19 0.0 0 0 18.35 35.93
  A 0.20 0.19 -18.6 0 0 18.22 36.18
  L 19.01 38.29
  L 19.01 38.30
  L 18.79 38.42
  A 0.29 0.29 0.0 0 1 18.40 38.31
  Q 16.37 34.68 17.79 31.59
  A 1.25 1.24 -42.3 0 1 20.10 31.70
  L 20.94 34.08
  A 0.60 0.60 0.0 0 0 21.72 34.44
  Q 22.76 34.05 23.12 33.61
  A 2.41 2.21 -62.0 0 0 22.15 29.89
  Q 18.58 28.88 15.02 24.94
  A 0.21 0.21 0.0 0 0 14.66 25.08
  L 14.63 30.56
  A 0.13 0.13 0.0 0 1 14.57 30.67
  L 14.18 30.95
  A 0.20 0.20 0.0 0 1 13.86 30.77
  L 13.88 26.77
  A 0.27 0.27 0.0 0 0 13.35 26.72
  Q 13.05 28.07 13.33 29.48
  Q 15.97 42.65 27.30 50.43
  A 0.15 0.14 35.8 0 0 27.49 50.40
  Z
  M 38.40 50.38
  A 0.15 0.14 -35.5 0 0 38.59 50.41
  Q 49.97 42.67 52.67 29.49
  Q 52.96 28.07 52.66 26.72
  A 0.27 0.27 0.0 0 0 52.13 26.77
  L 52.13 30.78
  A 0.21 0.20 -72.8 0 1 51.81 30.95
  L 51.42 30.67
  A 0.14 0.13 17.4 0 1 51.36 30.56
  L 51.36 25.07
  A 0.21 0.21 0.0 0 0 51.00 24.93
  Q 47.41 28.86 43.83 29.86
  A 2.41 2.21 62.3 0 0 42.85 33.58
  Q 43.20 34.02 44.24 34.42
  A 0.60 0.60 0.0 0 0 45.03 34.06
  L 45.88 31.68
  A 1.25 1.25 0.0 0 1 48.19 31.58
  Q 49.60 34.68 47.55 38.31
  A 0.29 0.29 0.0 0 1 47.16 38.42
  L 46.94 38.30
  L 46.94 38.29
  L 47.74 36.18
  A 0.20 0.19 18.8 0 0 47.61 35.92
  A 0.19 0.19 0.0 0 0 47.37 36.05
  Q 44.86 44.27 38.42 49.98
  A 0.28 0.28 0.0 0 0 38.39 50.37
  L 38.40 50.38
  Z
  M 28.92 41.76
  A 0.41 0.40 75.0 0 0 29.53 42.12
  Q 33.01 40.11 36.21 42.05
  A 0.50 0.50 0.0 0 0 36.95 41.49
  L 36.52 39.89
  A 0.22 0.21 -16.3 0 1 36.67 39.63
  L 40.02 38.72
  A 0.95 0.95 0.0 0 0 40.68 38.07
  Q 41.48 35.44 40.21 32.57
  A 0.93 0.92 -9.3 0 0 39.45 32.03
  Q 38.15 31.92 37.51 31.24
  A 0.52 0.52 0.0 0 0 36.72 31.27
  Q 35.78 32.41 35.12 31.44
  A 1.09 1.06 74.4 0 0 34.29 30.96
  Q 29.12 30.66 25.04 32.95
  A 1.25 1.25 0.0 0 0 24.55 34.64
  Q 25.48 36.31 25.04 38.67
  A 0.95 0.94 -4.6 0 0 26.29 39.73
  Q 27.27 39.38 28.40 39.72
  A 0.72 0.72 0.0 0 1 28.92 40.41
  L 28.92 41.76
  Z
  M 36.44 42.95
  C 35.10 42.84 33.79 41.94 32.63 42.12
  Q 30.40 42.45 29.51 43.00
  A 0.31 0.29 68.5 0 0 29.38 43.33
  L 29.46 43.62
  A 0.26 0.25 -20.8 0 0 29.82 43.78
  L 31.30 43.04
  A 1.73 1.72 -53.5 0 1 32.35 42.88
  L 36.45 43.52
  A 0.25 0.24 -79.7 0 0 36.72 43.33
  L 36.72 43.31
  A 0.31 0.31 0.0 0 0 36.44 42.95
  Z"
/>
<path fill="#ffffff" d="
  M 17.82 21.62
  Q 18.94 19.95 20.04 19.46
  A 1.00 0.94 -84.8 0 0 20.47 19.08
  Q 21.28 17.82 23.19 16.94
  A 0.41 0.40 -9.2 0 1 23.77 17.35
  Q 23.23 21.99 18.10 22.14
  A 0.33 0.33 0.0 0 1 17.82 21.62
  Z"
/>
<path fill="#ffffff" d="
  M 48.46 21.54
  A 0.03 0.03 0.0 0 1 48.47 21.58
  L 48.43 21.62
  A 3.71 2.24 40.6 0 1 44.16 20.91
  L 43.93 20.71
  A 3.71 2.24 40.6 0 1 42.57 16.60
  L 42.60 16.56
  A 0.03 0.03 0.0 0 1 42.65 16.56
  L 48.46 21.54
  Z"
/>
<path fill="#ffffff" d="
  M 24.42 29.43
  Q 23.63 27.54 24.13 25.94
  A 0.35 0.35 0.0 0 1 24.79 25.94
  Q 25.02 26.71 25.74 26.90
  A 1.04 1.04 0.0 0 0 26.72 26.68
  Q 28.09 25.48 27.00 23.74
  A 0.48 0.47 68.7 0 1 27.31 23.02
  Q 27.87 22.91 28.21 23.20
  A 0.46 0.45 -64.5 0 1 28.37 23.67
  Q 28.12 24.75 28.38 25.22
  A 2.13 2.05 50.9 0 0 31.80 25.64
  Q 32.53 24.77 32.30 22.73
  A 0.58 0.58 0.0 0 0 31.55 22.24
  Q 30.82 22.46 30.45 23.12
  A 0.44 0.44 0.0 0 1 29.63 22.95
  Q 29.43 21.00 31.54 20.99
  A 0.43 0.42 84.3 0 0 31.95 20.48
  Q 31.74 19.45 32.13 18.05
  A 0.89 0.88 -46.2 0 1 33.82 18.01
  Q 34.22 19.27 34.01 20.40
  A 0.49 0.48 5.6 0 0 34.48 20.97
  Q 35.03 20.98 35.63 21.28
  A 1.14 1.14 0.0 0 1 36.28 22.31
  L 36.28 22.91
  A 0.45 0.45 0.0 0 1 35.55 23.27
  L 34.57 22.51
  A 0.54 0.54 0.0 0 0 33.71 22.83
  Q 33.20 25.20 34.68 26.13
  A 1.98 1.96 17.8 0 0 37.70 24.60
  Q 37.70 24.57 37.64 23.57
  A 0.55 0.55 0.0 0 1 38.05 23.01
  Q 38.30 22.95 38.64 23.06
  A 0.50 0.49 20.4 0 1 38.94 23.71
  Q 38.26 25.46 38.87 26.35
  A 1.33 1.31 76.4 0 0 39.77 26.91
  Q 40.71 27.05 41.32 25.99
  A 0.33 0.33 0.0 0 1 41.93 26.09
  Q 42.36 28.49 41.18 30.42
  A 1.00 0.99 -75.1 0 1 40.37 30.90
  Q 38.73 30.95 37.81 30.37
  A 1.99 1.92 64.4 0 0 37.08 30.10
  Q 31.45 29.33 25.83 31.09
  A 0.75 0.73 -34.6 0 1 25.19 30.98
  Q 25.00 30.84 24.79 30.36
  A 0.37 0.37 0.0 0 1 25.22 29.85
  Q 26.46 30.13 27.37 29.89
  Q 33.28 28.30 39.28 30.00
  Q 40.16 30.26 40.58 29.91
  A 0.37 0.37 0.0 0 0 40.42 29.26
  Q 33.10 27.70 25.01 29.28
  Q 24.94 29.29 24.75 29.49
  A 0.20 0.20 0.0 0 1 24.42 29.43
  Z"
/>
<path fill="#ffffff" d="
  M 21.33 22.80
  A 0.55 0.54 -46.4 0 1 21.31 21.88
  L 22.44 21.11
  A 0.99 0.98 52.7 0 1 23.73 21.29
  Q 24.58 22.30 25.52 22.82
  A 0.78 0.77 63.8 0 1 25.03 24.27
  Q 23.41 24.02 21.33 22.80
  Z"
/>
<path fill="#ffffff" d="
  M 44.67 22.82
  Q 42.58 24.00 40.96 24.23
  A 0.78 0.77 -63.0 0 1 40.50 22.78
  Q 41.44 22.27 42.30 21.28
  A 0.98 0.98 0.0 0 1 43.59 21.12
  L 44.70 21.90
  A 0.54 0.54 0.0 0 1 44.67 22.82
  Z"
/>
<path fill="#ffffff" d="
  M 27.49 50.40
  A 0.15 0.14 35.8 0 1 27.30 50.43
  Q 15.97 42.65 13.33 29.48
  Q 13.05 28.07 13.35 26.72
  A 0.27 0.27 0.0 0 1 13.88 26.77
  L 13.86 30.77
  A 0.20 0.20 0.0 0 0 14.18 30.95
  L 14.57 30.67
  A 0.13 0.13 0.0 0 0 14.63 30.56
  L 14.66 25.08
  A 0.21 0.21 0.0 0 1 15.02 24.94
  Q 18.58 28.88 22.15 29.89
  A 2.41 2.21 -62.0 0 1 23.12 33.61
  Q 22.76 34.05 21.72 34.44
  A 0.60 0.60 0.0 0 1 20.94 34.08
  L 20.10 31.70
  A 1.25 1.24 -42.3 0 0 17.79 31.59
  Q 16.37 34.68 18.40 38.31
  A 0.29 0.29 0.0 0 0 18.79 38.42
  L 19.01 38.30
  L 19.01 38.29
  L 18.22 36.18
  A 0.20 0.19 -18.6 0 1 18.35 35.93
  A 0.19 0.19 0.0 0 1 18.59 36.06
  Q 21.06 44.27 27.47 50.00
  A 0.28 0.28 0.0 0 1 27.50 50.39
  L 27.49 50.40
  Z"
/>
<path fill="#ffffff" d="
  M 38.42 49.98
  Q 44.86 44.27 47.37 36.05
  A 0.19 0.19 0.0 0 1 47.61 35.92
  A 0.20 0.19 18.8 0 1 47.74 36.18
  L 46.94 38.29
  L 46.94 38.30
  L 47.16 38.42
  A 0.29 0.29 0.0 0 0 47.55 38.31
  Q 49.60 34.68 48.19 31.58
  A 1.25 1.25 0.0 0 0 45.88 31.68
  L 45.03 34.06
  A 0.60 0.60 0.0 0 1 44.24 34.42
  Q 43.20 34.02 42.85 33.58
  A 2.41 2.21 62.3 0 1 43.83 29.86
  Q 47.41 28.86 51.00 24.93
  A 0.21 0.21 0.0 0 1 51.36 25.07
  L 51.36 30.56
  A 0.14 0.13 17.4 0 0 51.42 30.67
  L 51.81 30.95
  A 0.21 0.20 -72.8 0 0 52.13 30.78
  L 52.13 26.77
  A 0.27 0.27 0.0 0 1 52.66 26.72
  Q 52.96 28.07 52.67 29.49
  Q 49.97 42.67 38.59 50.41
  A 0.15 0.14 -35.5 0 1 38.40 50.38
  L 38.39 50.37
  A 0.28 0.28 0.0 0 1 38.42 49.98
  Z"
/>
<path fill="#ffffff" d="
  M 28.92 41.76
  L 28.92 40.41
  A 0.72 0.72 0.0 0 0 28.40 39.72
  Q 27.27 39.38 26.29 39.73
  A 0.95 0.94 -4.6 0 1 25.04 38.67
  Q 25.48 36.31 24.55 34.64
  A 1.25 1.25 0.0 0 1 25.04 32.95
  Q 29.12 30.66 34.29 30.96
  A 1.09 1.06 74.4 0 1 35.12 31.44
  Q 35.78 32.41 36.72 31.27
  A 0.52 0.52 0.0 0 1 37.51 31.24
  Q 38.15 31.92 39.45 32.03
  A 0.93 0.92 -9.3 0 1 40.21 32.57
  Q 41.48 35.44 40.68 38.07
  A 0.95 0.95 0.0 0 1 40.02 38.72
  L 36.67 39.63
  A 0.22 0.21 -16.3 0 0 36.52 39.89
  L 36.95 41.49
  A 0.50 0.50 0.0 0 1 36.21 42.05
  Q 33.01 40.11 29.53 42.12
  A 0.41 0.40 75.0 0 1 28.92 41.76
  Z
  M 31.30 36.03
  L 31.83 34.27
  A 0.44 0.44 0.0 0 0 31.29 33.72
  Q 30.34 33.99 29.69 33.08
  A 1.89 1.71 -66.6 0 0 26.55 34.51
  Q 26.67 36.85 29.98 36.97
  A 1.34 1.34 0.0 0 0 31.30 36.03
  Z
  M 34.74 36.12
  A 1.31 1.30 -7.5 0 0 36.00 37.08
  Q 39.22 37.05 39.40 34.78
  A 1.83 1.66 68.3 0 0 36.39 33.30
  Q 35.73 34.17 34.82 33.88
  A 0.43 0.43 0.0 0 0 34.28 34.40
  L 34.74 36.12
  Z
  M 31.95 39.30
  L 33.99 39.32
  A 0.49 0.49 0.0 0 0 34.49 38.83
  L 34.49 38.65
  A 3.37 1.42 -89.5 0 0 33.10 35.27
  L 32.92 35.27
  A 3.37 1.42 -89.5 0 0 31.47 38.63
  L 31.47 38.81
  A 0.49 0.49 0.0 0 0 31.95 39.30
  Z"
/>
<path fill="#631813" d="
  M 31.30 36.03
  A 1.34 1.34 0.0 0 1 29.98 36.97
  Q 26.67 36.85 26.55 34.51
  A 1.89 1.71 -66.6 0 1 29.69 33.08
  Q 30.34 33.99 31.29 33.72
  A 0.44 0.44 0.0 0 1 31.83 34.27
  L 31.30 36.03
  Z"
/>
<path fill="#631813" d="
  M 34.82 33.88
  Q 35.73 34.17 36.39 33.30
  A 1.83 1.66 68.3 0 1 39.40 34.78
  Q 39.22 37.05 36.00 37.08
  A 1.31 1.30 -7.5 0 1 34.74 36.12
  L 34.28 34.40
  A 0.43 0.43 0.0 0 1 34.82 33.88
  Z"
/>
<path fill="#631813" d="
  M 31.95 39.30
  A 0.49 0.49 0.0 0 1 31.47 38.81
  L 31.47 38.63
  A 3.37 1.42 -89.5 0 1 32.92 35.27
  L 33.10 35.27
  A 3.37 1.42 -89.5 0 1 34.49 38.65
  L 34.49 38.83
  A 0.49 0.49 0.0 0 1 33.99 39.32
  L 31.95 39.30
  Z"
/>
<path fill="#ffffff" d="
  M 36.44 42.95
  A 0.31 0.31 0.0 0 1 36.72 43.31
  L 36.72 43.33
  A 0.25 0.24 -79.7 0 1 36.45 43.52
  L 32.35 42.88
  A 1.73 1.72 -53.5 0 0 31.30 43.04
  L 29.82 43.78
  A 0.26 0.25 -20.8 0 1 29.46 43.62
  L 29.38 43.33
  A 0.31 0.29 68.5 0 1 29.51 43.00
  Q 30.40 42.45 32.63 42.12
  C 33.79 41.94 35.10 42.84 36.44 42.95
  Z"
/>
</svg>
