<?xml version="1.0" encoding="UTF-8" standalone="no"?>
<!DOCTYPE svg PUBLIC "-//W3C//DTD SVG 1.1//EN" "http://www.w3.org/Graphics/SVG/1.1/DTD/svg11.dtd">
<svg xmlns="http://www.w3.org/2000/svg" version="1.1" viewBox="0.00 0.00 66.00 88.00">
<g stroke-width="2.00" fill="none" stroke-linecap="butt">
<path stroke="#173f51" vector-effect="non-scaling-stroke" d="
  M 33.43 86.61
  C 34.01 86.62 33.59 86.66 33.79 86.47
  Q 47.67 73.57 56.60 58.31
  C 64.16 45.40 68.16 28.64 58.76 15.54
  C 52.86 7.30 43.68 2.58 33.49 2.57
  C 23.30 2.56 14.12 7.27 8.20 15.50
  C -1.22 28.59 2.76 45.36 10.30 58.28
  Q 19.21 73.55 33.07 86.47
  C 33.27 86.66 32.85 86.61 33.43 86.61"
/>
<path stroke="#8fa9b5" vector-effect="non-scaling-stroke" d="
  M 45.00 18.71
  L 39.61 16.02
  A 0.26 0.26 0.0 0 0 39.26 16.14
  L 39.18 16.31
  A 3.51 2.31 -63.5 0 0 39.68 20.48
  L 41.40 21.34
  A 3.51 2.31 -63.5 0 0 45.03 19.23
  L 45.11 19.06
  A 0.26 0.26 0.0 0 0 45.00 18.71"
/>
<path stroke="#8fa9b5" vector-effect="non-scaling-stroke" d="
  M 34.60 27.45
  L 33.40 29.53
  A 0.89 0.88 -76.1 0 1 32.70 29.96
  C 25.65 30.32 19.97 35.84 21.30 43.00
  C 22.52 49.65 28.37 53.38 34.66 51.94
  C 42.61 50.12 45.41 41.60 41.00 34.73
  A 2.04 1.86 -87.4 0 0 40.70 34.37
  L 38.43 32.18
  A 0.65 0.65 0.0 0 1 38.31 31.39
  L 39.31 29.66
  A 0.48 0.48 0.0 0 1 39.97 29.49
  L 40.94 30.05
  A 0.48 0.48 0.0 0 0 41.60 29.87
  L 43.61 26.37
  A 0.36 0.36 0.0 0 0 43.48 25.87
  L 35.81 21.44
  A 0.70 0.70 0.0 0 0 34.86 21.69
  L 32.87 25.14
  A 0.82 0.82 0.0 0 0 32.99 26.11
  Q 33.45 26.58 34.23 26.68
  A 0.52 0.51 -71.2 0 1 34.60 27.45"
/>
<path stroke="#8fa9b5" vector-effect="non-scaling-stroke" d="
  M 25.40 43.88
  L 39.27 39.64
  A 0.39 0.39 0.0 0 0 39.53 39.15
  L 39.44 38.86
  A 7.57 7.56 -17.0 0 0 29.99 33.84
  L 29.86 33.88
  A 7.57 7.56 -17.0 0 0 24.83 43.32
  L 24.92 43.62
  A 0.39 0.39 0.0 0 0 25.40 43.88"
/>
</g>
<path fill="#0e2b37" d="
  M 33.80 88.00
  L 33.04 88.00
  C 21.75 77.74 12.13 65.68 5.65 51.56
  Q 2.20 44.05 1.60 34.89
  C 0.54 18.88 11.35 5.50 26.73 2.05
  C 41.12 -1.18 55.94 6.01 62.58 19.68
  C 69.07 33.05 63.79 48.90 56.48 60.73
  Q 47.11 75.89 33.80 88.00
  Z
  M 33.43 86.61
  C 34.01 86.62 33.59 86.66 33.79 86.47
  Q 47.67 73.57 56.60 58.31
  C 64.16 45.40 68.16 28.64 58.76 15.54
  C 52.86 7.30 43.68 2.58 33.49 2.57
  C 23.30 2.56 14.12 7.27 8.20 15.50
  C -1.22 28.59 2.76 45.36 10.30 58.28
  Q 19.21 73.55 33.07 86.47
  C 33.27 86.66 32.85 86.61 33.43 86.61
  Z"
/>
<path fill="#1f526b" d="
  M 33.49 2.57
  C 43.68 2.58 52.86 7.30 58.76 15.54
  C 68.16 28.64 64.16 45.40 56.60 58.31
  Q 47.67 73.57 33.79 86.47
  C 33.59 86.66 34.01 86.62 33.43 86.61
  C 32.85 86.61 33.27 86.66 33.07 86.47
  Q 19.21 73.55 10.30 58.28
  C 2.76 45.36 -1.22 28.59 8.20 15.50
  C 14.12 7.27 23.30 2.56 33.49 2.57
  Z
  M 45.00 18.71
  L 39.61 16.02
  A 0.26 0.26 0.0 0 0 39.26 16.14
  L 39.18 16.31
  A 3.51 2.31 -63.5 0 0 39.68 20.48
  L 41.40 21.34
  A 3.51 2.31 -63.5 0 0 45.03 19.23
  L 45.11 19.06
  A 0.26 0.26 0.0 0 0 45.00 18.71
  Z
  M 34.60 27.45
  L 33.40 29.53
  A 0.89 0.88 -76.1 0 1 32.70 29.96
  C 25.65 30.32 19.97 35.84 21.30 43.00
  C 22.52 49.65 28.37 53.38 34.66 51.94
  C 42.61 50.12 45.41 41.60 41.00 34.73
  A 2.04 1.86 -87.4 0 0 40.70 34.37
  L 38.43 32.18
  A 0.65 0.65 0.0 0 1 38.31 31.39
  L 39.31 29.66
  A 0.48 0.48 0.0 0 1 39.97 29.49
  L 40.94 30.05
  A 0.48 0.48 0.0 0 0 41.60 29.87
  L 43.61 26.37
  A 0.36 0.36 0.0 0 0 43.48 25.87
  L 35.81 21.44
  A 0.70 0.70 0.0 0 0 34.86 21.69
  L 32.87 25.14
  A 0.82 0.82 0.0 0 0 32.99 26.11
  Q 33.45 26.58 34.23 26.68
  A 0.52 0.51 -71.2 0 1 34.60 27.45
  Z"
/>
<path fill="#ffffff" d="
  M 45.00 18.71
  A 0.26 0.26 0.0 0 1 45.11 19.06
  L 45.03 19.23
  A 3.51 2.31 -63.5 0 1 41.40 21.34
  L 39.68 20.48
  A 3.51 2.31 -63.5 0 1 39.18 16.31
  L 39.26 16.14
  A 0.26 0.26 0.0 0 1 39.61 16.02
  L 45.00 18.71
  Z"
/>
<path fill="#ffffff" d="
  M 34.60 27.45
  A 0.52 0.51 -71.2 0 0 34.23 26.68
  Q 33.45 26.58 32.99 26.11
  A 0.82 0.82 0.0 0 1 32.87 25.14
  L 34.86 21.69
  A 0.70 0.70 0.0 0 1 35.81 21.44
  L 43.48 25.87
  A 0.36 0.36 0.0 0 1 43.61 26.37
  L 41.60 29.87
  A 0.48 0.48 0.0 0 1 40.94 30.05
  L 39.97 29.49
  A 0.48 0.48 0.0 0 0 39.31 29.66
  L 38.31 31.39
  A 0.65 0.65 0.0 0 0 38.43 32.18
  L 40.70 34.37
  A 2.04 1.86 -87.4 0 1 41.00 34.73
  C 45.41 41.60 42.61 50.12 34.66 51.94
  C 28.37 53.38 22.52 49.65 21.30 43.00
  C 19.97 35.84 25.65 30.32 32.70 29.96
  A 0.89 0.88 -76.1 0 0 33.40 29.53
  L 34.60 27.45
  Z
  M 25.40 43.88
  L 39.27 39.64
  A 0.39 0.39 0.0 0 0 39.53 39.15
  L 39.44 38.86
  A 7.57 7.56 -17.0 0 0 29.99 33.84
  L 29.86 33.88
  A 7.57 7.56 -17.0 0 0 24.83 43.32
  L 24.92 43.62
  A 0.39 0.39 0.0 0 0 25.40 43.88
  Z"
/>
<path fill="#1f526b" d="
  M 25.40 43.88
  A 0.39 0.39 0.0 0 1 24.92 43.62
  L 24.83 43.32
  A 7.57 7.56 -17.0 0 1 29.86 33.88
  L 29.99 33.84
  A 7.57 7.56 -17.0 0 1 39.44 38.86
  L 39.53 39.15
  A 0.39 0.39 0.0 0 1 39.27 39.64
  L 25.40 43.88
  Z"
/>
</svg>
