<?xml version="1.0" encoding="UTF-8" standalone="no"?>
<!DOCTYPE svg PUBLIC "-//W3C//DTD SVG 1.1//EN" "http://www.w3.org/Graphics/SVG/1.1/DTD/svg11.dtd">
<svg xmlns="http://www.w3.org/2000/svg" version="1.1" viewBox="0.00 0.00 66.00 88.00">
<g stroke-width="2.00" fill="none" stroke-linecap="butt">
<path stroke="#4c120e" vector-effect="non-scaling-stroke" d="
  M 33.49 86.58
  C 33.98 86.58 33.63 86.61 33.79 86.46
  Q 47.11 74.27 56.31 58.77
  C 62.54 48.27 67.24 33.46 62.09 21.58
  C 57.04 9.94 46.17 2.54 33.45 2.55
  C 20.73 2.56 9.86 9.97 4.83 21.61
  C -0.31 33.50 4.41 48.30 10.65 58.79
  Q 19.86 74.28 33.20 86.46
  C 33.36 86.61 33.01 86.58 33.49 86.58"
/>
<path stroke="#b18c89" vector-effect="non-scaling-stroke" d="
  M 32.97 30.97
  Q 39.25 30.97 45.88 32.75
  A 0.51 0.50 7.4 0 0 46.51 32.27
  L 46.51 26.65
  A 0.31 0.31 0.0 0 0 45.92 26.54
  C 44.69 29.76 42.18 29.10 41.21 26.29
  A 0.71 0.70 -24.4 0 1 41.53 25.45
  Q 43.00 24.64 42.23 23.42
  A 1.39 1.32 36.5 0 0 39.76 23.73
  Q 39.56 24.56 40.18 25.31
  A 0.65 0.64 -43.3 0 1 40.15 26.17
  Q 38.40 27.97 36.37 28.01
  A 1.44 1.42 -23.7 0 1 35.37 27.63
  Q 33.30 25.69 34.06 22.62
  A 0.78 0.78 0.0 0 1 34.68 22.04
  Q 36.38 21.73 37.16 23.49
  A 0.36 0.36 0.0 0 0 37.83 23.47
  C 38.44 21.85 37.89 19.58 35.86 19.72
  Q 35.05 19.78 34.99 19.77
  A 0.49 0.49 0.0 0 1 34.56 19.18
  Q 35.05 16.95 33.79 14.73
  Q 33.43 14.09 32.98 14.09
  Q 32.54 14.09 32.18 14.73
  Q 30.91 16.95 31.40 19.18
  A 0.49 0.49 0.0 0 1 30.97 19.77
  Q 30.91 19.78 30.10 19.72
  C 28.07 19.57 27.52 21.84 28.12 23.46
  A 0.36 0.36 0.0 0 0 28.79 23.48
  Q 29.58 21.73 31.28 22.04
  A 0.78 0.78 0.0 0 1 31.90 22.62
  Q 32.65 25.69 30.58 27.63
  A 1.44 1.42 23.8 0 1 29.58 28.01
  Q 27.55 27.96 25.80 26.16
  A 0.65 0.64 43.3 0 1 25.77 25.30
  Q 26.39 24.55 26.19 23.72
  A 1.39 1.32 -36.4 0 0 23.72 23.41
  Q 22.95 24.63 24.42 25.44
  A 0.71 0.70 24.5 0 1 24.74 26.28
  C 23.77 29.09 21.26 29.74 20.03 26.52
  A 0.31 0.31 0.0 0 0 19.44 26.63
  L 19.43 32.25
  A 0.51 0.50 -7.3 0 0 20.07 32.74
  Q 26.69 30.96 32.97 30.97"
/>
<path stroke="#b18c89" vector-effect="non-scaling-stroke" d="
  M 32.97 33.48
  Q 38.37 33.47 44.94 35.10
  A 0.48 0.48 0.0 0 0 45.33 34.24
  C 42.85 32.49 36.08 32.27 32.97 32.27
  C 29.85 32.27 23.08 32.50 20.60 34.25
  A 0.48 0.48 0.0 0 0 20.99 35.10
  Q 27.56 33.48 32.97 33.48"
/>
<path stroke="#b18c89" vector-effect="non-scaling-stroke" d="
  M 39.19 51.53
  L 38.27 48.29
  A 0.32 0.32 0.0 0 1 38.49 47.89
  L 44.30 46.24
  A 0.58 0.58 0.0 0 0 44.71 45.59
  Q 44.38 43.39 45.35 42.33
  A 0.64 0.64 0.0 0 0 45.28 41.40
  Q 43.92 40.29 44.43 38.67
  A 1.25 1.24 21.7 0 0 43.79 37.19
  Q 41.53 36.10 40.15 35.39
  A 2.12 2.07 -51.0 0 0 37.85 35.66
  Q 36.89 36.46 36.07 35.43
  A 1.44 1.43 -20.4 0 0 34.86 34.88
  L 26.00 35.35
  A 1.15 1.12 19.4 0 0 25.26 35.69
  Q 24.31 36.69 22.80 36.77
  A 1.48 1.46 -68.8 0 0 21.84 37.20
  L 20.36 38.68
  A 0.94 0.94 0.0 0 0 20.12 39.60
  L 21.25 43.58
  A 0.77 0.76 -39.7 0 1 21.19 44.16
  Q 20.37 45.70 21.51 47.96
  A 0.55 0.55 0.0 0 0 22.20 48.22
  Q 23.34 47.77 25.03 47.78
  Q 27.72 47.80 26.63 51.29
  A 0.48 0.48 0.0 0 0 27.19 51.90
  Q 27.28 51.88 29.73 50.98
  Q 34.35 49.29 38.60 51.97
  A 0.40 0.39 8.0 0 0 39.19 51.53"
/>
<path stroke="#b18c89" vector-effect="non-scaling-stroke" d="
  M 31.9066 51.3577
  A 1.07 0.65 -71.1 0 0 30.9450 52.1595
  A 1.07 0.65 -71.1 0 0 31.2134 53.3823
  A 1.07 0.65 -71.1 0 0 32.1750 52.5805
  A 1.07 0.65 -71.1 0 0 31.9066 51.3577"
/>
<path stroke="#b18c89" vector-effect="non-scaling-stroke" d="
  M 34.19 52.41
  L 34.19 51.95
  A 0.61 0.61 0.0 0 0 33.82 51.39
  Q 33.40 51.21 33.08 51.38
  A 0.40 0.38 71.4 0 0 32.89 51.78
  Q 33.21 54.01 34.11 52.69
  A 0.54 0.45 66.3 0 0 34.19 52.41"
/>
<path stroke="#b18c89" vector-effect="non-scaling-stroke" d="
  M 30.14 52.29
  A 0.64 0.53 -48.0 0 0 29.03 52.45
  Q 28.73 53.40 29.14 53.61
  A 0.65 0.51 23.0 0 0 30.01 53.38
  Q 30.24 52.64 30.14 52.29"
/>
<path stroke="#b18c89" vector-effect="non-scaling-stroke" d="
  M 34.84 52.58
  Q 34.76 52.90 34.86 53.09
  Q 34.97 53.29 35.30 53.36
  Q 38.20 53.94 38.32 53.50
  Q 38.44 53.06 35.63 52.13
  Q 35.31 52.02 35.12 52.14
  Q 34.93 52.25 34.84 52.58"
/>
<path stroke="#b18c89" vector-effect="non-scaling-stroke" d="
  M 27.91 53.76
  Q 27.97 53.52 27.87 53.27
  A 0.35 0.33 -35.9 0 0 27.28 53.19
  Q 27.10 53.41 27.29 53.76
  A 0.36 0.31 40.6 0 0 27.91 53.76"
/>
<path stroke="#b18c89" vector-effect="non-scaling-stroke" d="
  M 33.00 30.03
  Q 33.68 30.05 34.31 29.20
  A 0.89 0.88 50.7 0 0 34.39 28.30
  Q 33.62 26.69 33.06 26.68
  Q 32.50 26.67 31.67 28.25
  A 0.89 0.88 -48.6 0 0 31.72 29.16
  Q 32.32 30.02 33.00 30.03"
/>
<path stroke="#b18c89" vector-effect="non-scaling-stroke" d="
  M 25.29 28.85
  Q 24.96 29.46 25.58 30.36
  A 0.41 0.41 0.0 0 0 26.31 30.26
  Q 26.60 29.47 26.24 28.86
  Q 25.74 28.00 25.29 28.85"
/>
<path stroke="#b18c89" vector-effect="non-scaling-stroke" d="
  M 39.72 28.72
  Q 39.59 28.82 39.44 29.39
  A 0.85 0.61 82.6 0 0 40.41 30.44
  Q 40.83 29.99 40.73 29.15
  A 0.63 0.63 0.0 0 0 39.72 28.72"
/>
<path stroke="#b18c89" vector-effect="non-scaling-stroke" d="
  M 28.35 29.99
  Q 28.59 30.19 29.09 29.89
  Q 29.52 29.64 29.23 29.23
  Q 28.87 28.71 28.85 28.71
  A 0.74 0.67 68.9 0 0 28.35 29.99"
/>
<path stroke="#b18c89" vector-effect="non-scaling-stroke" d="
  M 37.15 28.81
  Q 36.58 29.34 36.55 29.48
  A 0.64 0.59 -12.3 0 0 37.51 30.04
  Q 37.97 29.78 37.79 29.00
  A 0.39 0.39 0.0 0 0 37.15 28.81"
/>
<path stroke="#b18c89" vector-effect="non-scaling-stroke" d="
  M 43.2402 29.6281
  A 0.72 0.56 -51.3 0 0 42.3530 29.8399
  A 0.72 0.56 -51.3 0 0 42.3398 30.7519
  A 0.72 0.56 -51.3 0 0 43.2270 30.5401
  A 0.72 0.56 -51.3 0 0 43.2402 29.6281"
/>
<path stroke="#b18c89" vector-effect="non-scaling-stroke" d="
  M 22.57 30.34
  A 0.75 0.59 49.7 0 0 23.74 30.58
  Q 23.89 30.29 23.57 29.85
  Q 23.31 29.49 22.81 29.70
  Q 22.35 29.89 22.57 30.34"
/>
<path stroke="#b18c89" vector-effect="non-scaling-stroke" d="
  M 30.58 38.61
  L 30.39 39.25
  A 0.67 0.66 31.2 0 1 29.28 39.51
  L 27.40 37.61
  A 2.03 2.03 0.0 0 0 24.38 37.73
  Q 21.73 40.96 24.73 43.27
  A 1.55 1.55 0.0 0 0 25.76 43.58
  Q 26.69 43.51 28.09 43.95
  A 1.29 1.28 -57.3 0 0 29.33 43.67
  Q 31.43 41.73 31.12 38.66
  A 0.28 0.28 0.0 0 0 30.58 38.61"
/>
<path stroke="#b18c89" vector-effect="non-scaling-stroke" d="
  M 35.35 38.59
  A 0.28 0.28 0.0 0 0 34.80 38.64
  Q 34.46 41.71 36.54 43.67
  A 1.29 1.28 57.9 0 0 37.78 43.96
  Q 39.19 43.54 40.12 43.62
  A 1.55 1.55 0.0 0 0 41.15 43.32
  Q 44.18 41.04 41.56 37.78
  A 2.03 2.03 0.0 0 0 38.54 37.62
  L 36.64 39.51
  A 0.67 0.66 -30.6 0 1 35.53 39.23
  L 35.35 38.59"
/>
<path stroke="#b18c89" vector-effect="non-scaling-stroke" d="
  M 32.97 45.52
  Q 33.28 45.52 33.26 46.70
  A 0.89 0.89 0.0 0 0 35.02 46.93
  Q 35.79 43.79 33.19 40.56
  C 33.13 40.48 33.30 40.51 33.01 40.51
  C 32.73 40.51 32.90 40.48 32.83 40.56
  Q 30.18 43.74 30.89 46.89
  A 0.89 0.89 0.0 0 0 32.65 46.69
  Q 32.65 45.52 32.97 45.52"
/>
</g>
<path fill="#350b09" d="
  M 33.81 88.00
  L 33.04 88.00
  C 21.69 77.68 12.11 65.67 5.62 51.40
  Q 2.12 43.71 1.57 34.83
  C 0.57 18.84 11.25 5.65 26.70 2.05
  C 37.49 -0.47 49.72 3.35 57.25 11.77
  Q 67.82 23.59 64.83 39.76
  Q 62.36 53.20 53.38 65.64
  Q 43.83 78.88 33.81 88.00
  Z
  M 33.49 86.58
  C 33.98 86.58 33.63 86.61 33.79 86.46
  Q 47.11 74.27 56.31 58.77
  C 62.54 48.27 67.24 33.46 62.09 21.58
  C 57.04 9.94 46.17 2.54 33.45 2.55
  C 20.73 2.56 9.86 9.97 4.83 21.61
  C -0.31 33.50 4.41 48.30 10.65 58.79
  Q 19.86 74.28 33.20 86.46
  C 33.36 86.61 33.01 86.58 33.49 86.58
  Z"
/>
<path fill="#631813" d="
  M 33.45 2.55
  C 46.17 2.54 57.04 9.94 62.09 21.58
  C 67.24 33.46 62.54 48.27 56.31 58.77
  Q 47.11 74.27 33.79 86.46
  C 33.63 86.61 33.98 86.58 33.49 86.58
  C 33.01 86.58 33.36 86.61 33.20 86.46
  Q 19.86 74.28 10.65 58.79
  C 4.41 48.30 -0.31 33.50 4.83 21.61
  C 9.86 9.97 20.73 2.56 33.45 2.55
  Z
  M 32.97 30.97
  Q 39.25 30.97 45.88 32.75
  A 0.51 0.50 7.4 0 0 46.51 32.27
  L 46.51 26.65
  A 0.31 0.31 0.0 0 0 45.92 26.54
  C 44.69 29.76 42.18 29.10 41.21 26.29
  A 0.71 0.70 -24.4 0 1 41.53 25.45
  Q 43.00 24.64 42.23 23.42
  A 1.39 1.32 36.5 0 0 39.76 23.73
  Q 39.56 24.56 40.18 25.31
  A 0.65 0.64 -43.3 0 1 40.15 26.17
  Q 38.40 27.97 36.37 28.01
  A 1.44 1.42 -23.7 0 1 35.37 27.63
  Q 33.30 25.69 34.06 22.62
  A 0.78 0.78 0.0 0 1 34.68 22.04
  Q 36.38 21.73 37.16 23.49
  A 0.36 0.36 0.0 0 0 37.83 23.47
  C 38.44 21.85 37.89 19.58 35.86 19.72
  Q 35.05 19.78 34.99 19.77
  A 0.49 0.49 0.0 0 1 34.56 19.18
  Q 35.05 16.95 33.79 14.73
  Q 33.43 14.09 32.98 14.09
  Q 32.54 14.09 32.18 14.73
  Q 30.91 16.95 31.40 19.18
  A 0.49 0.49 0.0 0 1 30.97 19.77
  Q 30.91 19.78 30.10 19.72
  C 28.07 19.57 27.52 21.84 28.12 23.46
  A 0.36 0.36 0.0 0 0 28.79 23.48
  Q 29.58 21.73 31.28 22.04
  A 0.78 0.78 0.0 0 1 31.90 22.62
  Q 32.65 25.69 30.58 27.63
  A 1.44 1.42 23.8 0 1 29.58 28.01
  Q 27.55 27.96 25.80 26.16
  A 0.65 0.64 43.3 0 1 25.77 25.30
  Q 26.39 24.55 26.19 23.72
  A 1.39 1.32 -36.4 0 0 23.72 23.41
  Q 22.95 24.63 24.42 25.44
  A 0.71 0.70 24.5 0 1 24.74 26.28
  C 23.77 29.09 21.26 29.74 20.03 26.52
  A 0.31 0.31 0.0 0 0 19.44 26.63
  L 19.43 32.25
  A 0.51 0.50 -7.3 0 0 20.07 32.74
  Q 26.69 30.96 32.97 30.97
  Z
  M 32.97 33.48
  Q 38.37 33.47 44.94 35.10
  A 0.48 0.48 0.0 0 0 45.33 34.24
  C 42.85 32.49 36.08 32.27 32.97 32.27
  C 29.85 32.27 23.08 32.50 20.60 34.25
  A 0.48 0.48 0.0 0 0 20.99 35.10
  Q 27.56 33.48 32.97 33.48
  Z
  M 39.19 51.53
  L 38.27 48.29
  A 0.32 0.32 0.0 0 1 38.49 47.89
  L 44.30 46.24
  A 0.58 0.58 0.0 0 0 44.71 45.59
  Q 44.38 43.39 45.35 42.33
  A 0.64 0.64 0.0 0 0 45.28 41.40
  Q 43.92 40.29 44.43 38.67
  A 1.25 1.24 21.7 0 0 43.79 37.19
  Q 41.53 36.10 40.15 35.39
  A 2.12 2.07 -51.0 0 0 37.85 35.66
  Q 36.89 36.46 36.07 35.43
  A 1.44 1.43 -20.4 0 0 34.86 34.88
  L 26.00 35.35
  A 1.15 1.12 19.4 0 0 25.26 35.69
  Q 24.31 36.69 22.80 36.77
  A 1.48 1.46 -68.8 0 0 21.84 37.20
  L 20.36 38.68
  A 0.94 0.94 0.0 0 0 20.12 39.60
  L 21.25 43.58
  A 0.77 0.76 -39.7 0 1 21.19 44.16
  Q 20.37 45.70 21.51 47.96
  A 0.55 0.55 0.0 0 0 22.20 48.22
  Q 23.34 47.77 25.03 47.78
  Q 27.72 47.80 26.63 51.29
  A 0.48 0.48 0.0 0 0 27.19 51.90
  Q 27.28 51.88 29.73 50.98
  Q 34.35 49.29 38.60 51.97
  A 0.40 0.39 8.0 0 0 39.19 51.53
  Z
  M 31.9066 51.3577
  A 1.07 0.65 -71.1 0 0 30.9450 52.1595
  A 1.07 0.65 -71.1 0 0 31.2134 53.3823
  A 1.07 0.65 -71.1 0 0 32.1750 52.5805
  A 1.07 0.65 -71.1 0 0 31.9066 51.3577
  Z
  M 34.19 52.41
  L 34.19 51.95
  A 0.61 0.61 0.0 0 0 33.82 51.39
  Q 33.40 51.21 33.08 51.38
  A 0.40 0.38 71.4 0 0 32.89 51.78
  Q 33.21 54.01 34.11 52.69
  A 0.54 0.45 66.3 0 0 34.19 52.41
  Z
  M 30.14 52.29
  A 0.64 0.53 -48.0 0 0 29.03 52.45
  Q 28.73 53.40 29.14 53.61
  A 0.65 0.51 23.0 0 0 30.01 53.38
  Q 30.24 52.64 30.14 52.29
  Z
  M 34.84 52.58
  Q 34.76 52.90 34.86 53.09
  Q 34.97 53.29 35.30 53.36
  Q 38.20 53.94 38.32 53.50
  Q 38.44 53.06 35.63 52.13
  Q 35.31 52.02 35.12 52.14
  Q 34.93 52.25 34.84 52.58
  Z
  M 27.91 53.76
  Q 27.97 53.52 27.87 53.27
  A 0.35 0.33 -35.9 0 0 27.28 53.19
  Q 27.10 53.41 27.29 53.76
  A 0.36 0.31 40.6 0 0 27.91 53.76
  Z"
/>
<path fill="#ffffff" d="
  M 32.98 14.09
  Q 33.43 14.09 33.79 14.73
  Q 35.05 16.95 34.56 19.18
  A 0.49 0.49 0.0 0 0 34.99 19.77
  Q 35.05 19.78 35.86 19.72
  C 37.89 19.58 38.44 21.85 37.83 23.47
  A 0.36 0.36 0.0 0 1 37.16 23.49
  Q 36.38 21.73 34.68 22.04
  A 0.78 0.78 0.0 0 0 34.06 22.62
  Q 33.30 25.69 35.37 27.63
  A 1.44 1.42 -23.7 0 0 36.37 28.01
  Q 38.40 27.97 40.15 26.17
  A 0.65 0.64 -43.3 0 0 40.18 25.31
  Q 39.56 24.56 39.76 23.73
  A 1.39 1.32 36.5 0 1 42.23 23.42
  Q 43.00 24.64 41.53 25.45
  A 0.71 0.70 -24.4 0 0 41.21 26.29
  C 42.18 29.10 44.69 29.76 45.92 26.54
  A 0.31 0.31 0.0 0 1 46.51 26.65
  L 46.51 32.27
  A 0.51 0.50 7.4 0 1 45.88 32.75
  Q 39.25 30.97 32.97 30.97
  Q 26.69 30.96 20.07 32.74
  A 0.51 0.50 -7.3 0 1 19.43 32.25
  L 19.44 26.63
  A 0.31 0.31 0.0 0 1 20.03 26.52
  C 21.26 29.74 23.77 29.09 24.74 26.28
  A 0.71 0.70 24.5 0 0 24.42 25.44
  Q 22.95 24.63 23.72 23.41
  A 1.39 1.32 -36.4 0 1 26.19 23.72
  Q 26.39 24.55 25.77 25.30
  A 0.65 0.64 43.3 0 0 25.80 26.16
  Q 27.55 27.96 29.58 28.01
  A 1.44 1.42 23.8 0 0 30.58 27.63
  Q 32.65 25.69 31.90 22.62
  A 0.78 0.78 0.0 0 0 31.28 22.04
  Q 29.58 21.73 28.79 23.48
  A 0.36 0.36 0.0 0 1 28.12 23.46
  C 27.52 21.84 28.07 19.57 30.10 19.72
  Q 30.91 19.78 30.97 19.77
  A 0.49 0.49 0.0 0 0 31.40 19.18
  Q 30.91 16.95 32.18 14.73
  Q 32.54 14.09 32.98 14.09
  Z
  M 33.00 30.03
  Q 33.68 30.05 34.31 29.20
  A 0.89 0.88 50.7 0 0 34.39 28.30
  Q 33.62 26.69 33.06 26.68
  Q 32.50 26.67 31.67 28.25
  A 0.89 0.88 -48.6 0 0 31.72 29.16
  Q 32.32 30.02 33.00 30.03
  Z
  M 25.29 28.85
  Q 24.96 29.46 25.58 30.36
  A 0.41 0.41 0.0 0 0 26.31 30.26
  Q 26.60 29.47 26.24 28.86
  Q 25.74 28.00 25.29 28.85
  Z
  M 39.72 28.72
  Q 39.59 28.82 39.44 29.39
  A 0.85 0.61 82.6 0 0 40.41 30.44
  Q 40.83 29.99 40.73 29.15
  A 0.63 0.63 0.0 0 0 39.72 28.72
  Z
  M 28.35 29.99
  Q 28.59 30.19 29.09 29.89
  Q 29.52 29.64 29.23 29.23
  Q 28.87 28.71 28.85 28.71
  A 0.74 0.67 68.9 0 0 28.35 29.99
  Z
  M 37.15 28.81
  Q 36.58 29.34 36.55 29.48
  A 0.64 0.59 -12.3 0 0 37.51 30.04
  Q 37.97 29.78 37.79 29.00
  A 0.39 0.39 0.0 0 0 37.15 28.81
  Z
  M 43.2402 29.6281
  A 0.72 0.56 -51.3 0 0 42.3530 29.8399
  A 0.72 0.56 -51.3 0 0 42.3398 30.7519
  A 0.72 0.56 -51.3 0 0 43.2270 30.5401
  A 0.72 0.56 -51.3 0 0 43.2402 29.6281
  Z
  M 22.57 30.34
  A 0.75 0.59 49.7 0 0 23.74 30.58
  Q 23.89 30.29 23.57 29.85
  Q 23.31 29.49 22.81 29.70
  Q 22.35 29.89 22.57 30.34
  Z"
/>
<path fill="#631813" d="
  M 33.06 26.68
  Q 33.62 26.69 34.39 28.30
  A 0.89 0.88 50.7 0 1 34.31 29.20
  Q 33.68 30.05 33.00 30.03
  Q 32.32 30.02 31.72 29.16
  A 0.89 0.88 -48.6 0 1 31.67 28.25
  Q 32.50 26.67 33.06 26.68
  Z"
/>
<path fill="#631813" d="
  M 26.24 28.86
  Q 26.60 29.47 26.31 30.26
  A 0.41 0.41 0.0 0 1 25.58 30.36
  Q 24.96 29.46 25.29 28.85
  Q 25.74 28.00 26.24 28.86
  Z"
/>
<path fill="#631813" d="
  M 40.73 29.15
  Q 40.83 29.99 40.41 30.44
  A 0.85 0.61 82.6 0 1 39.44 29.39
  Q 39.59 28.82 39.72 28.72
  A 0.63 0.63 0.0 0 1 40.73 29.15
  Z"
/>
<path fill="#631813" d="
  M 28.35 29.99
  A 0.74 0.67 68.9 0 1 28.85 28.71
  Q 28.87 28.71 29.23 29.23
  Q 29.52 29.64 29.09 29.89
  Q 28.59 30.19 28.35 29.99
  Z"
/>
<path fill="#631813" d="
  M 37.79 29.00
  Q 37.97 29.78 37.51 30.04
  A 0.64 0.59 -12.3 0 1 36.55 29.48
  Q 36.58 29.34 37.15 28.81
  A 0.39 0.39 0.0 0 1 37.79 29.00
  Z"
/>
<ellipse fill="#631813" cx="0.00" cy="0.00" transform="translate(42.79,30.19) rotate(-51.3)" rx="0.72" ry="0.56"/>
<path fill="#631813" d="
  M 22.57 30.34
  Q 22.35 29.89 22.81 29.70
  Q 23.31 29.49 23.57 29.85
  Q 23.89 30.29 23.74 30.58
  A 0.75 0.59 49.7 0 1 22.57 30.34
  Z"
/>
<path fill="#ffffff" d="
  M 32.97 32.27
  C 36.08 32.27 42.85 32.49 45.33 34.24
  A 0.48 0.48 0.0 0 1 44.94 35.10
  Q 38.37 33.47 32.97 33.48
  Q 27.56 33.48 20.99 35.10
  A 0.48 0.48 0.0 0 1 20.60 34.25
  C 23.08 32.50 29.85 32.27 32.97 32.27
  Z"
/>
<path fill="#ffffff" d="
  M 39.19 51.53
  A 0.40 0.39 8.0 0 1 38.60 51.97
  Q 34.35 49.29 29.73 50.98
  Q 27.28 51.88 27.19 51.90
  A 0.48 0.48 0.0 0 1 26.63 51.29
  Q 27.72 47.80 25.03 47.78
  Q 23.34 47.77 22.20 48.22
  A 0.55 0.55 0.0 0 1 21.51 47.96
  Q 20.37 45.70 21.19 44.16
  A 0.77 0.76 -39.7 0 0 21.25 43.58
  L 20.12 39.60
  A 0.94 0.94 0.0 0 1 20.36 38.68
  L 21.84 37.20
  A 1.48 1.46 -68.8 0 1 22.80 36.77
  Q 24.31 36.69 25.26 35.69
  A 1.15 1.12 19.4 0 1 26.00 35.35
  L 34.86 34.88
  A 1.44 1.43 -20.4 0 1 36.07 35.43
  Q 36.89 36.46 37.85 35.66
  A 2.12 2.07 -51.0 0 1 40.15 35.39
  Q 41.53 36.10 43.79 37.19
  A 1.25 1.24 21.7 0 1 44.43 38.67
  Q 43.92 40.29 45.28 41.40
  A 0.64 0.64 0.0 0 1 45.35 42.33
  Q 44.38 43.39 44.71 45.59
  A 0.58 0.58 0.0 0 1 44.30 46.24
  L 38.49 47.89
  A 0.32 0.32 0.0 0 0 38.27 48.29
  L 39.19 51.53
  Z
  M 30.58 38.61
  L 30.39 39.25
  A 0.67 0.66 31.2 0 1 29.28 39.51
  L 27.40 37.61
  A 2.03 2.03 0.0 0 0 24.38 37.73
  Q 21.73 40.96 24.73 43.27
  A 1.55 1.55 0.0 0 0 25.76 43.58
  Q 26.69 43.51 28.09 43.95
  A 1.29 1.28 -57.3 0 0 29.33 43.67
  Q 31.43 41.73 31.12 38.66
  A 0.28 0.28 0.0 0 0 30.58 38.61
  Z
  M 35.35 38.59
  A 0.28 0.28 0.0 0 0 34.80 38.64
  Q 34.46 41.71 36.54 43.67
  A 1.29 1.28 57.9 0 0 37.78 43.96
  Q 39.19 43.54 40.12 43.62
  A 1.55 1.55 0.0 0 0 41.15 43.32
  Q 44.18 41.04 41.56 37.78
  A 2.03 2.03 0.0 0 0 38.54 37.62
  L 36.64 39.51
  A 0.67 0.66 -30.6 0 1 35.53 39.23
  L 35.35 38.59
  Z
  M 32.97 45.52
  Q 33.28 45.52 33.26 46.70
  A 0.89 0.89 0.0 0 0 35.02 46.93
  Q 35.79 43.79 33.19 40.56
  C 33.13 40.48 33.30 40.51 33.01 40.51
  C 32.73 40.51 32.90 40.48 32.83 40.56
  Q 30.18 43.74 30.89 46.89
  A 0.89 0.89 0.0 0 0 32.65 46.69
  Q 32.65 45.52 32.97 45.52
  Z"
/>
<path fill="#631813" d="
  M 30.58 38.61
  A 0.28 0.28 0.0 0 1 31.12 38.66
  Q 31.43 41.73 29.33 43.67
  A 1.29 1.28 -57.3 0 1 28.09 43.95
  Q 26.69 43.51 25.76 43.58
  A 1.55 1.55 0.0 0 1 24.73 43.27
  Q 21.73 40.96 24.38 37.73
  A 2.03 2.03 0.0 0 1 27.40 37.61
  L 29.28 39.51
  A 0.67 0.66 31.2 0 0 30.39 39.25
  L 30.58 38.61
  Z"
/>
<path fill="#631813" d="
  M 35.35 38.59
  L 35.53 39.23
  A 0.67 0.66 -30.6 0 0 36.64 39.51
  L 38.54 37.62
  A 2.03 2.03 0.0 0 1 41.56 37.78
  Q 44.18 41.04 41.15 43.32
  A 1.55 1.55 0.0 0 1 40.12 43.62
  Q 39.19 43.54 37.78 43.96
  A 1.29 1.28 57.9 0 1 36.54 43.67
  Q 34.46 41.71 34.80 38.64
  A 0.28 0.28 0.0 0 1 35.35 38.59
  Z"
/>
<path fill="#631813" d="
  M 33.01 40.51
  C 33.30 40.51 33.13 40.48 33.19 40.56
  Q 35.79 43.79 35.02 46.93
  A 0.89 0.89 0.0 0 1 33.26 46.70
  Q 33.28 45.52 32.97 45.52
  Q 32.65 45.52 32.65 46.69
  A 0.89 0.89 0.0 0 1 30.89 46.89
  Q 30.18 43.74 32.83 40.56
  C 32.90 40.48 32.73 40.51 33.01 40.51
  Z"
/>
<ellipse fill="#ffffff" cx="0.00" cy="0.00" transform="translate(31.56,52.37) rotate(-71.1)" rx="1.07" ry="0.65"/>
<path fill="#ffffff" d="
  M 34.19 52.41
  A 0.54 0.45 66.3 0 1 34.11 52.69
  Q 33.21 54.01 32.89 51.78
  A 0.40 0.38 71.4 0 1 33.08 51.38
  Q 33.40 51.21 33.82 51.39
  A 0.61 0.61 0.0 0 1 34.19 51.95
  L 34.19 52.41
  Z"
/>
<path fill="#ffffff" d="
  M 30.14 52.29
  Q 30.24 52.64 30.01 53.38
  A 0.65 0.51 23.0 0 1 29.14 53.61
  Q 28.73 53.40 29.03 52.45
  A 0.64 0.53 -48.0 0 1 30.14 52.29
  Z"
/>
<path fill="#ffffff" d="
  M 38.32 53.50
  Q 38.20 53.94 35.30 53.36
  Q 34.97 53.29 34.86 53.09
  Q 34.76 52.90 34.84 52.58
  Q 34.93 52.25 35.12 52.14
  Q 35.31 52.02 35.63 52.13
  Q 38.44 53.06 38.32 53.50
  Z"
/>
<path fill="#ffffff" d="
  M 27.91 53.76
  A 0.36 0.31 40.6 0 1 27.29 53.76
  Q 27.10 53.41 27.28 53.19
  A 0.35 0.33 -35.9 0 1 27.87 53.27
  Q 27.97 53.52 27.91 53.76
  Z"
/>
</svg>
