<?xml version="1.0" encoding="UTF-8" standalone="no"?>
<!DOCTYPE svg PUBLIC "-//W3C//DTD SVG 1.1//EN" "http://www.w3.org/Graphics/SVG/1.1/DTD/svg11.dtd">
<svg xmlns="http://www.w3.org/2000/svg" version="1.1" viewBox="0.00 0.00 66.00 88.00">
<g stroke-width="2.00" fill="none" stroke-linecap="butt">
<path stroke="#282a22" vector-effect="non-scaling-stroke" d="
  M 33.38 86.56
  Q 33.60 86.56 33.94 86.24
  Q 45.15 75.77 53.44 63.40
  C 61.38 51.55 68.17 34.64 61.64 20.59
  Q 57.21 11.06 48.09 6.20
  Q 41.15 2.50 33.53 2.49
  Q 25.91 2.48 18.96 6.15
  Q 9.82 10.98 5.36 20.49
  C -1.22 34.52 5.51 51.45 13.41 63.33
  Q 21.66 75.73 32.83 86.24
  Q 33.17 86.56 33.38 86.56"
/>
<path stroke="#9a9b96" vector-effect="non-scaling-stroke" d="
  M 29.88 21.32
  C 29.88 21.37 29.87 21.43 29.89 21.47
  Q 30.61 22.89 32.75 26.50
  Q 32.82 26.62 32.97 26.62
  Q 33.13 26.62 33.20 26.50
  Q 35.33 22.89 36.05 21.47
  C 36.07 21.43 36.07 21.37 36.07 21.32
  C 36.07 21.27 36.07 21.20 36.05 21.16
  Q 35.33 19.74 33.19 16.13
  Q 33.13 16.02 32.97 16.02
  Q 32.81 16.02 32.75 16.13
  Q 30.61 19.74 29.89 21.16
  C 29.87 21.20 29.88 21.27 29.88 21.32"
/>
<path stroke="#9a9b96" vector-effect="non-scaling-stroke" d="
  M 33.00 51.62
  Q 33.18 51.62 36.21 37.27
  A 1.42 1.42 0.0 0 1 36.81 36.39
  L 43.24 32.10
  A 2.49 2.47 -13.7 0 0 44.33 30.32
  L 45.71 18.71
  A 0.15 0.15 0.0 0 0 45.42 18.63
  L 40.65 28.94
  A 1.69 1.65 -3.7 0 1 40.02 29.64
  Q 36.20 31.98 33.14 33.61
  C 33.08 33.64 33.11 33.63 33.00 33.63
  C 32.88 33.63 32.91 33.64 32.85 33.61
  Q 29.79 31.98 25.97 29.65
  A 1.69 1.65 3.7 0 1 25.34 28.95
  L 20.56 18.64
  A 0.15 0.15 0.0 0 0 20.27 18.72
  L 21.66 30.33
  A 2.49 2.47 13.7 0 0 22.75 32.11
  L 29.19 36.39
  A 1.42 1.42 0.0 0 1 29.79 37.28
  Q 32.83 51.62 33.00 51.62"
/>
</g>
<path fill="#1c1e17" d="
  M 33.79 88.00
  L 33.03 88.00
  C 21.82 77.81 11.96 65.56 5.65 51.56
  Q 2.82 45.28 1.95 38.76
  Q -0.09 23.45 8.49 13.19
  Q 17.74 2.13 32.02 1.37
  C 44.76 0.69 57.26 8.04 62.60 19.66
  C 73.72 43.83 50.39 72.95 33.79 88.00
  Z
  M 33.38 86.56
  Q 33.60 86.56 33.94 86.24
  Q 45.15 75.77 53.44 63.40
  C 61.38 51.55 68.17 34.64 61.64 20.59
  Q 57.21 11.06 48.09 6.20
  Q 41.15 2.50 33.53 2.49
  Q 25.91 2.48 18.96 6.15
  Q 9.82 10.98 5.36 20.49
  C -1.22 34.52 5.51 51.45 13.41 63.33
  Q 21.66 75.73 32.83 86.24
  Q 33.17 86.56 33.38 86.56
  Z"
/>
<path fill="#34362c" d="
  M 33.53 2.49
  Q 41.15 2.50 48.09 6.20
  Q 57.21 11.06 61.64 20.59
  C 68.17 34.64 61.38 51.55 53.44 63.40
  Q 45.15 75.77 33.94 86.24
  Q 33.60 86.56 33.38 86.56
  Q 33.17 86.56 32.83 86.24
  Q 21.66 75.73 13.41 63.33
  C 5.51 51.45 -1.22 34.52 5.36 20.49
  Q 9.82 10.98 18.96 6.15
  Q 25.91 2.48 33.53 2.49
  Z
  M 29.88 21.32
  C 29.88 21.37 29.87 21.43 29.89 21.47
  Q 30.61 22.89 32.75 26.50
  Q 32.82 26.62 32.97 26.62
  Q 33.13 26.62 33.20 26.50
  Q 35.33 22.89 36.05 21.47
  C 36.07 21.43 36.07 21.37 36.07 21.32
  C 36.07 21.27 36.07 21.20 36.05 21.16
  Q 35.33 19.74 33.19 16.13
  Q 33.13 16.02 32.97 16.02
  Q 32.81 16.02 32.75 16.13
  Q 30.61 19.74 29.89 21.16
  C 29.87 21.20 29.88 21.27 29.88 21.32
  Z
  M 33.00 51.62
  Q 33.18 51.62 36.21 37.27
  A 1.42 1.42 0.0 0 1 36.81 36.39
  L 43.24 32.10
  A 2.49 2.47 -13.7 0 0 44.33 30.32
  L 45.71 18.71
  A 0.15 0.15 0.0 0 0 45.42 18.63
  L 40.65 28.94
  A 1.69 1.65 -3.7 0 1 40.02 29.64
  Q 36.20 31.98 33.14 33.61
  C 33.08 33.64 33.11 33.63 33.00 33.63
  C 32.88 33.63 32.91 33.64 32.85 33.61
  Q 29.79 31.98 25.97 29.65
  A 1.69 1.65 3.7 0 1 25.34 28.95
  L 20.56 18.64
  A 0.15 0.15 0.0 0 0 20.27 18.72
  L 21.66 30.33
  A 2.49 2.47 13.7 0 0 22.75 32.11
  L 29.19 36.39
  A 1.42 1.42 0.0 0 1 29.79 37.28
  Q 32.83 51.62 33.00 51.62
  Z"
/>
<path fill="#ffffff" d="
  M 32.97 16.02
  Q 33.13 16.02 33.19 16.13
  Q 35.33 19.74 36.05 21.16
  C 36.07 21.20 36.07 21.27 36.07 21.32
  C 36.07 21.37 36.07 21.43 36.05 21.47
  Q 35.33 22.89 33.20 26.50
  Q 33.13 26.62 32.97 26.62
  Q 32.82 26.62 32.75 26.50
  Q 30.61 22.89 29.89 21.47
  C 29.87 21.43 29.88 21.37 29.88 21.32
  C 29.88 21.27 29.87 21.20 29.89 21.16
  Q 30.61 19.74 32.75 16.13
  Q 32.81 16.02 32.97 16.02
  Z"
/>
<path fill="#ffffff" d="
  M 33.00 33.63
  C 33.11 33.63 33.08 33.64 33.14 33.61
  Q 36.20 31.98 40.02 29.64
  A 1.69 1.65 -3.7 0 0 40.65 28.94
  L 45.42 18.63
  A 0.15 0.15 0.0 0 1 45.71 18.71
  L 44.33 30.32
  A 2.49 2.47 -13.7 0 1 43.24 32.10
  L 36.81 36.39
  A 1.42 1.42 0.0 0 0 36.21 37.27
  Q 33.18 51.62 33.00 51.62
  Q 32.83 51.62 29.79 37.28
  A 1.42 1.42 0.0 0 0 29.19 36.39
  L 22.75 32.11
  A 2.49 2.47 13.7 0 1 21.66 30.33
  L 20.27 18.72
  A 0.15 0.15 0.0 0 1 20.56 18.64
  L 25.34 28.95
  A 1.69 1.65 3.7 0 0 25.97 29.65
  Q 29.79 31.98 32.85 33.61
  C 32.91 33.64 32.88 33.63 33.00 33.63
  Z"
/>
</svg>
