<?xml version="1.0" encoding="UTF-8" standalone="no"?>
<!DOCTYPE svg PUBLIC "-//W3C//DTD SVG 1.1//EN" "http://www.w3.org/Graphics/SVG/1.1/DTD/svg11.dtd">
<svg xmlns="http://www.w3.org/2000/svg" version="1.1" viewBox="0.00 0.00 66.00 88.00">
<g stroke-width="2.00" fill="none" stroke-linecap="butt">
<path stroke="#2b4c38" vector-effect="non-scaling-stroke" d="
  M 33.42 86.65
  Q 33.49 86.65 33.52 86.64
  A 0.22 0.04 -44.1 0 0 33.67 86.54
  C 46.57 74.73 60.96 56.76 63.69 39.51
  Q 67.14 17.69 48.60 6.44
  Q 42.15 2.52 33.53 2.51
  Q 24.91 2.50 18.45 6.40
  Q -0.12 17.60 3.27 39.43
  C 5.96 56.69 20.30 74.70 33.17 86.54
  A 0.22 0.04 44.2 0 0 33.32 86.64
  Q 33.35 86.65 33.42 86.65"
/>
<path stroke="#9cb1a5" vector-effect="non-scaling-stroke" d="
  M 38.04 17.46
  A 0.21 0.21 0.0 0 0 38.08 17.04
  C 32.83 15.59 26.31 18.77 23.03 22.52
  Q 18.72 27.44 19.84 33.01
  C 20.88 38.12 25.39 41.39 30.42 39.30
  A 0.37 0.37 0.0 0 0 30.44 38.63
  Q 22.63 34.80 25.92 26.46
  Q 29.18 18.22 38.04 17.46"
/>
<path stroke="#9cb1a5" vector-effect="non-scaling-stroke" d="
  M 48.62 47.25
  A 0.21 0.21 0.0 0 0 49.01 47.40
  C 51.87 42.74 50.61 35.57 47.90 31.37
  Q 44.35 25.85 38.66 25.39
  C 33.45 24.97 29.05 28.42 29.66 33.84
  A 0.37 0.37 0.0 0 0 30.30 34.05
  Q 36.16 27.58 43.29 33.07
  Q 50.34 38.49 48.62 47.25"
/>
<path stroke="#9cb1a5" vector-effect="non-scaling-stroke" d="
  M 15.23 37.04
  A 0.21 0.21 0.0 0 0 14.82 37.12
  C 14.93 42.58 19.85 47.93 24.39 50.00
  Q 30.35 52.73 35.38 50.05
  C 39.99 47.59 41.83 42.32 38.39 38.09
  A 0.37 0.37 0.0 0 0 37.74 38.26
  Q 36.30 46.86 27.35 46.09
  Q 18.50 45.33 15.23 37.04"
/>
</g>
<path fill="#1c3425" d="
  M 33.81 88.00
  L 33.04 88.00
  C 21.72 77.72 12.19 65.75 5.68 51.55
  Q 2.13 43.83 1.58 34.90
  C 0.29 14.37 18.32 -1.38 38.76 1.77
  C 51.82 3.78 62.16 13.81 64.83 26.53
  C 69.52 48.85 49.20 73.95 33.81 88.00
  Z
  M 33.42 86.65
  Q 33.49 86.65 33.52 86.64
  A 0.22 0.04 -44.1 0 0 33.67 86.54
  C 46.57 74.73 60.96 56.76 63.69 39.51
  Q 67.14 17.69 48.60 6.44
  Q 42.15 2.52 33.53 2.51
  Q 24.91 2.50 18.45 6.40
  Q -0.12 17.60 3.27 39.43
  C 5.96 56.69 20.30 74.70 33.17 86.54
  A 0.22 0.04 44.2 0 0 33.32 86.64
  Q 33.35 86.65 33.42 86.65
  Z"
/>
<path fill="#39634a" d="
  M 33.53 2.51
  Q 42.15 2.52 48.60 6.44
  Q 67.14 17.69 63.69 39.51
  C 60.96 56.76 46.57 74.73 33.67 86.54
  A 0.22 0.04 -44.1 0 1 33.52 86.64
  Q 33.49 86.65 33.42 86.65
  Q 33.35 86.65 33.32 86.64
  A 0.22 0.04 44.2 0 1 33.17 86.54
  C 20.30 74.70 5.96 56.69 3.27 39.43
  Q -0.12 17.60 18.45 6.40
  Q 24.91 2.50 33.53 2.51
  Z
  M 38.04 17.46
  A 0.21 0.21 0.0 0 0 38.08 17.04
  C 32.83 15.59 26.31 18.77 23.03 22.52
  Q 18.72 27.44 19.84 33.01
  C 20.88 38.12 25.39 41.39 30.42 39.30
  A 0.37 0.37 0.0 0 0 30.44 38.63
  Q 22.63 34.80 25.92 26.46
  Q 29.18 18.22 38.04 17.46
  Z
  M 48.62 47.25
  A 0.21 0.21 0.0 0 0 49.01 47.40
  C 51.87 42.74 50.61 35.57 47.90 31.37
  Q 44.35 25.85 38.66 25.39
  C 33.45 24.97 29.05 28.42 29.66 33.84
  A 0.37 0.37 0.0 0 0 30.30 34.05
  Q 36.16 27.58 43.29 33.07
  Q 50.34 38.49 48.62 47.25
  Z
  M 15.23 37.04
  A 0.21 0.21 0.0 0 0 14.82 37.12
  C 14.93 42.58 19.85 47.93 24.39 50.00
  Q 30.35 52.73 35.38 50.05
  C 39.99 47.59 41.83 42.32 38.39 38.09
  A 0.37 0.37 0.0 0 0 37.74 38.26
  Q 36.30 46.86 27.35 46.09
  Q 18.50 45.33 15.23 37.04
  Z"
/>
<path fill="#ffffff" d="
  M 38.04 17.46
  Q 29.18 18.22 25.92 26.46
  Q 22.63 34.80 30.44 38.63
  A 0.37 0.37 0.0 0 1 30.42 39.30
  C 25.39 41.39 20.88 38.12 19.84 33.01
  Q 18.72 27.44 23.03 22.52
  C 26.31 18.77 32.83 15.59 38.08 17.04
  A 0.21 0.21 0.0 0 1 38.04 17.46
  Z"
/>
<path fill="#ffffff" d="
  M 48.62 47.25
  Q 50.34 38.49 43.29 33.07
  Q 36.16 27.58 30.30 34.05
  A 0.37 0.37 0.0 0 1 29.66 33.84
  C 29.05 28.42 33.45 24.97 38.66 25.39
  Q 44.35 25.85 47.90 31.37
  C 50.61 35.57 51.87 42.74 49.01 47.40
  A 0.21 0.21 0.0 0 1 48.62 47.25
  Z"
/>
<path fill="#ffffff" d="
  M 15.23 37.04
  Q 18.50 45.33 27.35 46.09
  Q 36.30 46.86 37.74 38.26
  A 0.37 0.37 0.0 0 1 38.39 38.09
  C 41.83 42.32 39.99 47.59 35.38 50.05
  Q 30.35 52.73 24.39 50.00
  C 19.85 47.93 14.93 42.58 14.82 37.12
  A 0.21 0.21 0.0 0 1 15.23 37.04
  Z"
/>
</svg>
