<?xml version="1.0" encoding="UTF-8" standalone="no"?>
<!DOCTYPE svg PUBLIC "-//W3C//DTD SVG 1.1//EN" "http://www.w3.org/Graphics/SVG/1.1/DTD/svg11.dtd">
<svg xmlns="http://www.w3.org/2000/svg" version="1.1" viewBox="0.00 0.00 66.00 88.00">
<g stroke-width="2.00" fill="none" stroke-linecap="butt">
<path stroke="#282a22" vector-effect="non-scaling-stroke" d="
  M 33.39 86.55
  Q 33.60 86.55 34.07 86.11
  Q 48.08 72.95 56.37 58.62
  Q 60.69 51.14 62.45 44.68
  Q 69.39 19.09 48.49 6.46
  Q 42.01 2.55 33.52 2.54
  Q 25.04 2.52 18.54 6.42
  Q -2.40 18.97 4.46 44.58
  Q 6.20 51.05 10.50 58.54
  Q 18.74 72.90 32.71 86.10
  Q 33.17 86.55 33.39 86.55"
/>
<path stroke="#9a9b96" vector-effect="non-scaling-stroke" d="
  M 33.16 31.48
  Q 33.35 31.48 33.49 31.54
  Q 36.18 32.75 38.13 34.37
  A 1.67 1.67 0.0 0 1 38.73 35.65
  L 38.73 45.63
  A 1.77 1.76 -75.0 0 0 39.61 47.16
  L 48.50 52.29
  A 0.88 0.88 0.0 0 0 49.82 51.53
  L 49.82 29.03
  A 1.21 1.20 15.2 0 0 49.22 27.99
  L 48.63 27.65
  A 0.83 0.82 28.2 0 1 48.30 26.57
  Q 50.54 21.98 49.47 16.73
  A 0.30 0.30 0.0 0 0 48.92 16.64
  C 46.94 19.90 44.88 23.28 40.66 22.84
  A 2.61 2.48 -25.1 0 1 39.61 22.49
  Q 36.89 20.88 33.49 19.24
  Q 33.42 19.21 33.15 19.21
  Q 32.87 19.21 32.80 19.24
  Q 29.41 20.89 26.69 22.50
  A 2.61 2.48 25.0 0 1 25.64 22.86
  C 21.42 23.31 19.35 19.93 17.37 16.68
  A 0.30 0.30 0.0 0 0 16.82 16.77
  Q 15.76 22.02 18.01 26.60
  A 0.83 0.82 -28.4 0 1 17.68 27.68
  L 17.09 28.03
  A 1.21 1.20 -15.4 0 0 16.49 29.07
  L 16.54 51.57
  A 0.88 0.88 0.0 0 0 17.87 52.32
  L 26.74 47.17
  A 1.77 1.76 74.9 0 0 27.62 45.64
  L 27.60 35.66
  A 1.67 1.67 0.0 0 1 28.20 34.38
  Q 30.14 32.76 32.83 31.54
  Q 32.97 31.48 33.16 31.48"
/>
</g>
<path fill="#1c1e18" d="
  M 33.79 88.00
  L 33.04 88.00
  C 21.92 77.91 11.80 65.38 5.58 51.42
  Q 2.18 43.81 1.59 34.81
  C 0.80 22.83 6.96 11.57 17.26 5.69
  C 38.91 -6.69 66.49 8.79 65.42 34.23
  Q 65.10 41.91 62.41 48.86
  C 56.63 63.74 45.56 77.33 33.79 88.00
  Z
  M 33.39 86.55
  Q 33.60 86.55 34.07 86.11
  Q 48.08 72.95 56.37 58.62
  Q 60.69 51.14 62.45 44.68
  Q 69.39 19.09 48.49 6.46
  Q 42.01 2.55 33.52 2.54
  Q 25.04 2.52 18.54 6.42
  Q -2.40 18.97 4.46 44.58
  Q 6.20 51.05 10.50 58.54
  Q 18.74 72.90 32.71 86.10
  Q 33.17 86.55 33.39 86.55
  Z"
/>
<path fill="#34362c" d="
  M 33.52 2.54
  Q 42.01 2.55 48.49 6.46
  Q 69.39 19.09 62.45 44.68
  Q 60.69 51.14 56.37 58.62
  Q 48.08 72.95 34.07 86.11
  Q 33.60 86.55 33.39 86.55
  Q 33.17 86.55 32.71 86.10
  Q 18.74 72.90 10.50 58.54
  Q 6.20 51.05 4.46 44.58
  Q -2.40 18.97 18.54 6.42
  Q 25.04 2.52 33.52 2.54
  Z
  M 33.16 31.48
  Q 33.35 31.48 33.49 31.54
  Q 36.18 32.75 38.13 34.37
  A 1.67 1.67 0.0 0 1 38.73 35.65
  L 38.73 45.63
  A 1.77 1.76 -75.0 0 0 39.61 47.16
  L 48.50 52.29
  A 0.88 0.88 0.0 0 0 49.82 51.53
  L 49.82 29.03
  A 1.21 1.20 15.2 0 0 49.22 27.99
  L 48.63 27.65
  A 0.83 0.82 28.2 0 1 48.30 26.57
  Q 50.54 21.98 49.47 16.73
  A 0.30 0.30 0.0 0 0 48.92 16.64
  C 46.94 19.90 44.88 23.28 40.66 22.84
  A 2.61 2.48 -25.1 0 1 39.61 22.49
  Q 36.89 20.88 33.49 19.24
  Q 33.42 19.21 33.15 19.21
  Q 32.87 19.21 32.80 19.24
  Q 29.41 20.89 26.69 22.50
  A 2.61 2.48 25.0 0 1 25.64 22.86
  C 21.42 23.31 19.35 19.93 17.37 16.68
  A 0.30 0.30 0.0 0 0 16.82 16.77
  Q 15.76 22.02 18.01 26.60
  A 0.83 0.82 -28.4 0 1 17.68 27.68
  L 17.09 28.03
  A 1.21 1.20 -15.4 0 0 16.49 29.07
  L 16.54 51.57
  A 0.88 0.88 0.0 0 0 17.87 52.32
  L 26.74 47.17
  A 1.77 1.76 74.9 0 0 27.62 45.64
  L 27.60 35.66
  A 1.67 1.67 0.0 0 1 28.20 34.38
  Q 30.14 32.76 32.83 31.54
  Q 32.97 31.48 33.16 31.48
  Z"
/>
<path fill="#ffffff" d="
  M 33.15 19.21
  Q 33.42 19.21 33.49 19.24
  Q 36.89 20.88 39.61 22.49
  A 2.61 2.48 -25.1 0 0 40.66 22.84
  C 44.88 23.28 46.94 19.90 48.92 16.64
  A 0.30 0.30 0.0 0 1 49.47 16.73
  Q 50.54 21.98 48.30 26.57
  A 0.83 0.82 28.2 0 0 48.63 27.65
  L 49.22 27.99
  A 1.21 1.20 15.2 0 1 49.82 29.03
  L 49.82 51.53
  A 0.88 0.88 0.0 0 1 48.50 52.29
  L 39.61 47.16
  A 1.77 1.76 -75.0 0 1 38.73 45.63
  L 38.73 35.65
  A 1.67 1.67 0.0 0 0 38.13 34.37
  Q 36.18 32.75 33.49 31.54
  Q 33.35 31.48 33.16 31.48
  Q 32.97 31.48 32.83 31.54
  Q 30.14 32.76 28.20 34.38
  A 1.67 1.67 0.0 0 0 27.60 35.66
  L 27.62 45.64
  A 1.77 1.76 74.9 0 1 26.74 47.17
  L 17.87 52.32
  A 0.88 0.88 0.0 0 1 16.54 51.57
  L 16.49 29.07
  A 1.21 1.20 -15.4 0 1 17.09 28.03
  L 17.68 27.68
  A 0.83 0.82 -28.4 0 0 18.01 26.60
  Q 15.76 22.02 16.82 16.77
  A 0.30 0.30 0.0 0 1 17.37 16.68
  C 19.35 19.93 21.42 23.31 25.64 22.86
  A 2.61 2.48 25.0 0 0 26.69 22.50
  Q 29.41 20.89 32.80 19.24
  Q 32.87 19.21 33.15 19.21
  Z"
/>
</svg>
