<?xml version="1.0" encoding="UTF-8" standalone="no"?>
<!DOCTYPE svg PUBLIC "-//W3C//DTD SVG 1.1//EN" "http://www.w3.org/Graphics/SVG/1.1/DTD/svg11.dtd">
<svg xmlns="http://www.w3.org/2000/svg" version="1.1" viewBox="0.00 0.00 66.00 88.00">
<g stroke-width="2.00" fill="none" stroke-linecap="butt">
<path stroke="#282a22" vector-effect="non-scaling-stroke" d="
  M 33.38 86.57
  Q 33.54 86.57 33.91 86.22
  Q 48.44 72.82 57.55 56.54
  C 63.30 46.25 66.96 31.84 61.67 20.63
  C 56.46 9.58 45.75 2.56 33.53 2.54
  C 21.32 2.51 10.58 9.50 5.33 20.53
  C -0.00 31.72 3.61 46.14 9.32 56.45
  Q 18.37 72.77 32.85 86.22
  Q 33.22 86.56 33.38 86.57"
/>
<path stroke="#9a9b96" vector-effect="non-scaling-stroke" d="
  M 33.21 34.81
  L 37.35 32.42
  A 0.49 0.48 75.0 0 0 37.59 32.00
  C 37.59 27.25 36.29 20.46 41.31 20.89
  C 44.53 21.16 45.69 25.11 42.67 27.16
  A 1.04 1.03 -17.2 0 0 42.21 28.02
  L 42.21 30.73
  A 1.10 1.10 0.0 0 0 43.77 31.73
  Q 48.31 29.67 48.90 25.28
  C 49.50 20.76 46.24 16.35 41.65 16.06
  C 37.99 15.83 33.25 18.51 33.09 22.86
  Q 32.93 27.19 33.02 34.70
  A 0.13 0.13 0.0 0 0 33.21 34.81"
/>
<path stroke="#9a9b96" vector-effect="non-scaling-stroke" d="
  M 29.56 52.76
  A 1.14 1.13 90.0 0 0 30.69 51.62
  Q 30.73 39.07 30.67 28.04
  C 30.63 21.05 21.38 17.65 17.91 24.09
  C 15.55 28.44 17.99 33.30 22.76 34.26
  A 0.78 0.77 12.3 0 0 23.67 33.68
  Q 24.46 30.35 22.43 29.18
  A 2.05 1.86 -50.4 0 1 22.29 26.02
  Q 23.40 25.01 24.49 25.36
  A 2.31 2.27 8.8 0 1 26.10 27.52
  Q 26.14 31.99 26.12 51.63
  A 1.13 1.12 90.0 0 0 27.24 52.76
  L 29.56 52.76"
/>
<path stroke="#9a9b96" vector-effect="non-scaling-stroke" d="
  M 34.01 52.74
  L 36.52 52.74
  A 1.07 1.07 0.0 0 0 37.59 51.67
  Q 37.55 43.48 37.63 41.06
  A 2.07 2.01 -88.6 0 1 39.67 39.06
  Q 41.82 39.08 42.14 41.50
  A 1.04 1.03 65.0 0 1 41.81 42.42
  L 40.14 43.93
  A 0.88 0.87 -21.6 0 0 39.86 44.57
  L 39.86 46.72
  A 1.36 1.35 79.0 0 0 41.72 47.98
  C 49.41 44.88 47.68 34.50 39.46 34.56
  Q 35.20 34.59 33.25 39.52
  A 3.68 3.63 56.0 0 0 33.00 40.85
  L 33.00 51.72
  A 1.02 1.01 90.0 0 0 34.01 52.74"
/>
</g>
<path fill="#1c1e17" d="
  M 33.78 88.00
  L 33.04 88.00
  C 21.72 77.72 12.20 65.76 5.68 51.55
  Q 2.13 43.81 1.57 34.89
  C 0.57 18.86 11.16 5.75 26.65 2.05
  C 37.39 -0.51 49.52 3.33 57.14 11.63
  Q 68.23 23.73 64.57 41.42
  C 60.93 58.94 46.82 76.20 33.78 88.00
  Z
  M 33.38 86.57
  Q 33.54 86.57 33.91 86.22
  Q 48.44 72.82 57.55 56.54
  C 63.30 46.25 66.96 31.84 61.67 20.63
  C 56.46 9.58 45.75 2.56 33.53 2.54
  C 21.32 2.51 10.58 9.50 5.33 20.53
  C -0.00 31.72 3.61 46.14 9.32 56.45
  Q 18.37 72.77 32.85 86.22
  Q 33.22 86.56 33.38 86.57
  Z"
/>
<path fill="#34362c" d="
  M 33.53 2.54
  C 45.75 2.56 56.46 9.58 61.67 20.63
  C 66.96 31.84 63.30 46.25 57.55 56.54
  Q 48.44 72.82 33.91 86.22
  Q 33.54 86.57 33.38 86.57
  Q 33.22 86.56 32.85 86.22
  Q 18.37 72.77 9.32 56.45
  C 3.61 46.14 -0.00 31.72 5.33 20.53
  C 10.58 9.50 21.32 2.51 33.53 2.54
  Z
  M 33.21 34.81
  L 37.35 32.42
  A 0.49 0.48 75.0 0 0 37.59 32.00
  C 37.59 27.25 36.29 20.46 41.31 20.89
  C 44.53 21.16 45.69 25.11 42.67 27.16
  A 1.04 1.03 -17.2 0 0 42.21 28.02
  L 42.21 30.73
  A 1.10 1.10 0.0 0 0 43.77 31.73
  Q 48.31 29.67 48.90 25.28
  C 49.50 20.76 46.24 16.35 41.65 16.06
  C 37.99 15.83 33.25 18.51 33.09 22.86
  Q 32.93 27.19 33.02 34.70
  A 0.13 0.13 0.0 0 0 33.21 34.81
  Z
  M 29.56 52.76
  A 1.14 1.13 90.0 0 0 30.69 51.62
  Q 30.73 39.07 30.67 28.04
  C 30.63 21.05 21.38 17.65 17.91 24.09
  C 15.55 28.44 17.99 33.30 22.76 34.26
  A 0.78 0.77 12.3 0 0 23.67 33.68
  Q 24.46 30.35 22.43 29.18
  A 2.05 1.86 -50.4 0 1 22.29 26.02
  Q 23.40 25.01 24.49 25.36
  A 2.31 2.27 8.8 0 1 26.10 27.52
  Q 26.14 31.99 26.12 51.63
  A 1.13 1.12 90.0 0 0 27.24 52.76
  L 29.56 52.76
  Z
  M 34.01 52.74
  L 36.52 52.74
  A 1.07 1.07 0.0 0 0 37.59 51.67
  Q 37.55 43.48 37.63 41.06
  A 2.07 2.01 -88.6 0 1 39.67 39.06
  Q 41.82 39.08 42.14 41.50
  A 1.04 1.03 65.0 0 1 41.81 42.42
  L 40.14 43.93
  A 0.88 0.87 -21.6 0 0 39.86 44.57
  L 39.86 46.72
  A 1.36 1.35 79.0 0 0 41.72 47.98
  C 49.41 44.88 47.68 34.50 39.46 34.56
  Q 35.20 34.59 33.25 39.52
  A 3.68 3.63 56.0 0 0 33.00 40.85
  L 33.00 51.72
  A 1.02 1.01 90.0 0 0 34.01 52.74
  Z"
/>
<path fill="#ffffff" d="
  M 33.02 34.70
  Q 32.93 27.19 33.09 22.86
  C 33.25 18.51 37.99 15.83 41.65 16.06
  C 46.24 16.35 49.50 20.76 48.90 25.28
  Q 48.31 29.67 43.77 31.73
  A 1.10 1.10 0.0 0 1 42.21 30.73
  L 42.21 28.02
  A 1.04 1.03 -17.2 0 1 42.67 27.16
  C 45.69 25.11 44.53 21.16 41.31 20.89
  C 36.29 20.46 37.59 27.25 37.59 32.00
  A 0.49 0.48 75.0 0 1 37.35 32.42
  L 33.21 34.81
  A 0.13 0.13 0.0 0 1 33.02 34.70
  Z"
/>
<path fill="#ffffff" d="
  M 29.56 52.76
  L 27.24 52.76
  A 1.13 1.12 -90.0 0 1 26.12 51.63
  Q 26.14 31.99 26.10 27.52
  A 2.31 2.27 8.8 0 0 24.49 25.36
  Q 23.40 25.01 22.29 26.02
  A 2.05 1.86 -50.4 0 0 22.43 29.18
  Q 24.46 30.35 23.67 33.68
  A 0.78 0.77 12.3 0 1 22.76 34.26
  C 17.99 33.30 15.55 28.44 17.91 24.09
  C 21.38 17.65 30.63 21.05 30.67 28.04
  Q 30.73 39.07 30.69 51.62
  A 1.14 1.13 -90.0 0 1 29.56 52.76
  Z"
/>
<path fill="#ffffff" d="
  M 33.00 51.72
  L 33.00 40.85
  A 3.68 3.63 56.0 0 1 33.25 39.52
  Q 35.20 34.59 39.46 34.56
  C 47.68 34.50 49.41 44.88 41.72 47.98
  A 1.36 1.35 79.0 0 1 39.86 46.72
  L 39.86 44.57
  A 0.88 0.87 -21.6 0 1 40.14 43.93
  L 41.81 42.42
  A 1.04 1.03 65.0 0 0 42.14 41.50
  Q 41.82 39.08 39.67 39.06
  A 2.07 2.01 -88.6 0 0 37.63 41.06
  Q 37.55 43.48 37.59 51.67
  A 1.07 1.07 0.0 0 1 36.52 52.74
  L 34.01 52.74
  A 1.02 1.01 90.0 0 1 33.00 51.72
  Z"
/>
</svg>
