<?xml version="1.0" encoding="UTF-8" standalone="no"?>
<!DOCTYPE svg PUBLIC "-//W3C//DTD SVG 1.1//EN" "http://www.w3.org/Graphics/SVG/1.1/DTD/svg11.dtd">
<svg xmlns="http://www.w3.org/2000/svg" version="1.1" viewBox="0.00 0.00 66.00 88.00">
<g stroke-width="2.00" fill="none" stroke-linecap="butt">
<path stroke="#282a22" vector-effect="non-scaling-stroke" d="
  M 33.38 86.54
  Q 33.59 86.54 34.06 86.10
  C 46.19 74.84 58.32 59.80 62.69 43.76
  Q 67.85 24.81 55.91 12.16
  C 50.03 5.93 42.07 2.64 33.52 2.63
  C 24.97 2.61 17.00 5.87 11.10 12.08
  Q -0.88 24.70 4.22 43.66
  C 8.53 59.72 20.61 74.80 32.70 86.09
  Q 33.18 86.54 33.38 86.54"
/>
<path stroke="#9a9b96" vector-effect="non-scaling-stroke" d="
  M 30.42 25.53
  L 26.56 28.09
  A 1.67 1.62 -6.2 0 0 25.95 28.83
  L 22.62 37.17
  A 0.87 0.87 0.0 0 0 22.81 38.09
  L 24.36 39.63
  A 1.38 1.34 -66.2 0 1 24.75 40.68
  L 24.50 44.52
  A 0.26 0.25 -56.4 0 1 24.02 44.62
  Q 23.93 44.43 23.18 41.96
  A 0.53 0.51 14.1 0 0 23.03 41.72
  L 20.39 39.07
  A 0.42 0.42 0.0 0 0 19.71 39.19
  L 14.91 49.93
  A 0.41 0.41 0.0 0 0 15.29 50.50
  L 28.31 50.50
  A 0.41 0.41 0.0 0 0 28.63 49.84
  L 27.79 48.75
  A 1.00 0.99 -56.4 0 1 27.62 47.88
  L 29.40 41.43
  A 2.18 2.15 -11.6 0 1 30.15 40.31
  L 35.43 36.22
  A 0.64 0.64 0.0 0 1 36.46 36.64
  Q 37.04 41.14 40.35 43.54
  A 0.64 0.63 30.8 0 1 40.55 44.32
  Q 39.15 47.42 41.38 50.05
  A 1.22 1.22 0.0 0 0 43.42 49.76
  L 45.98 44.02
  A 0.46 0.45 29.5 0 1 46.65 43.84
  L 50.65 46.70
  A 0.29 0.29 0.0 0 0 51.10 46.37
  L 47.88 36.79
  A 1.74 1.70 -82.2 0 0 47.25 35.94
  L 38.55 29.73
  A 0.25 0.24 68.5 0 1 38.74 29.29
  L 41.24 29.78
  A 0.57 0.56 86.8 0 0 41.88 29.06
  Q 40.14 23.33 35.54 18.04
  A 0.20 0.20 0.0 0 0 35.19 18.14
  L 33.88 24.82
  A 2.24 2.22 73.2 0 1 33.25 26.00
  L 27.55 31.55
  A 0.19 0.18 -46.1 0 1 27.29 31.56
  L 27.28 31.55
  A 0.24 0.22 -42.4 0 1 27.30 31.33
  L 30.72 25.83
  A 0.22 0.22 0.0 0 0 30.42 25.53"
/>
<path stroke="#9a9b96" vector-effect="non-scaling-stroke" d="
  M 45.93 50.50
  L 50.04 50.50
  A 0.49 0.49 0.0 0 0 50.48 49.81
  Q 49.61 47.95 47.32 47.54
  A 0.73 0.73 0.0 0 0 46.51 47.97
  L 45.60 49.99
  A 0.36 0.36 0.0 0 0 45.93 50.50"
/>
</g>
<path fill="#1c1e17" d="
  M 33.79 88.00
  L 33.04 88.00
  C 21.91 77.89 11.84 65.41 5.58 51.42
  Q 2.21 43.88 1.60 34.83
  C 0.52 18.86 11.38 5.51 26.75 2.05
  C 41.21 -1.21 56.13 6.12 62.69 19.93
  C 66.94 28.90 65.90 40.01 62.33 49.06
  C 56.49 63.88 45.53 77.35 33.79 88.00
  Z
  M 33.38 86.54
  Q 33.59 86.54 34.06 86.10
  C 46.19 74.84 58.32 59.80 62.69 43.76
  Q 67.85 24.81 55.91 12.16
  C 50.03 5.93 42.07 2.64 33.52 2.63
  C 24.97 2.61 17.00 5.87 11.10 12.08
  Q -0.88 24.70 4.22 43.66
  C 8.53 59.72 20.61 74.80 32.70 86.09
  Q 33.18 86.54 33.38 86.54
  Z"
/>
<path fill="#34362c" d="
  M 33.52 2.63
  C 42.07 2.64 50.03 5.93 55.91 12.16
  Q 67.85 24.81 62.69 43.76
  C 58.32 59.80 46.19 74.84 34.06 86.10
  Q 33.59 86.54 33.38 86.54
  Q 33.18 86.54 32.70 86.09
  C 20.61 74.80 8.53 59.72 4.22 43.66
  Q -0.88 24.70 11.10 12.08
  C 17.00 5.87 24.97 2.61 33.52 2.63
  Z
  M 30.42 25.53
  L 26.56 28.09
  A 1.67 1.62 -6.2 0 0 25.95 28.83
  L 22.62 37.17
  A 0.87 0.87 0.0 0 0 22.81 38.09
  L 24.36 39.63
  A 1.38 1.34 -66.2 0 1 24.75 40.68
  L 24.50 44.52
  A 0.26 0.25 -56.4 0 1 24.02 44.62
  Q 23.93 44.43 23.18 41.96
  A 0.53 0.51 14.1 0 0 23.03 41.72
  L 20.39 39.07
  A 0.42 0.42 0.0 0 0 19.71 39.19
  L 14.91 49.93
  A 0.41 0.41 0.0 0 0 15.29 50.50
  L 28.31 50.50
  A 0.41 0.41 0.0 0 0 28.63 49.84
  L 27.79 48.75
  A 1.00 0.99 -56.4 0 1 27.62 47.88
  L 29.40 41.43
  A 2.18 2.15 -11.6 0 1 30.15 40.31
  L 35.43 36.22
  A 0.64 0.64 0.0 0 1 36.46 36.64
  Q 37.04 41.14 40.35 43.54
  A 0.64 0.63 30.8 0 1 40.55 44.32
  Q 39.15 47.42 41.38 50.05
  A 1.22 1.22 0.0 0 0 43.42 49.76
  L 45.98 44.02
  A 0.46 0.45 29.5 0 1 46.65 43.84
  L 50.65 46.70
  A 0.29 0.29 0.0 0 0 51.10 46.37
  L 47.88 36.79
  A 1.74 1.70 -82.2 0 0 47.25 35.94
  L 38.55 29.73
  A 0.25 0.24 68.5 0 1 38.74 29.29
  L 41.24 29.78
  A 0.57 0.56 86.8 0 0 41.88 29.06
  Q 40.14 23.33 35.54 18.04
  A 0.20 0.20 0.0 0 0 35.19 18.14
  L 33.88 24.82
  A 2.24 2.22 73.2 0 1 33.25 26.00
  L 27.55 31.55
  A 0.19 0.18 -46.1 0 1 27.29 31.56
  L 27.28 31.55
  A 0.24 0.22 -42.4 0 1 27.30 31.33
  L 30.72 25.83
  A 0.22 0.22 0.0 0 0 30.42 25.53
  Z
  M 45.93 50.50
  L 50.04 50.50
  A 0.49 0.49 0.0 0 0 50.48 49.81
  Q 49.61 47.95 47.32 47.54
  A 0.73 0.73 0.0 0 0 46.51 47.97
  L 45.60 49.99
  A 0.36 0.36 0.0 0 0 45.93 50.50
  Z"
/>
<path fill="#ffffff" d="
  M 30.72 25.83
  L 27.30 31.33
  A 0.24 0.22 -42.4 0 0 27.28 31.55
  L 27.29 31.56
  A 0.19 0.18 -46.1 0 0 27.55 31.55
  L 33.25 26.00
  A 2.24 2.22 73.2 0 0 33.88 24.82
  L 35.19 18.14
  A 0.20 0.20 0.0 0 1 35.54 18.04
  Q 40.14 23.33 41.88 29.06
  A 0.57 0.56 86.8 0 1 41.24 29.78
  L 38.74 29.29
  A 0.25 0.24 68.5 0 0 38.55 29.73
  L 47.25 35.94
  A 1.74 1.70 -82.2 0 1 47.88 36.79
  L 51.10 46.37
  A 0.29 0.29 0.0 0 1 50.65 46.70
  L 46.65 43.84
  A 0.46 0.45 29.5 0 0 45.98 44.02
  L 43.42 49.76
  A 1.22 1.22 0.0 0 1 41.38 50.05
  Q 39.15 47.42 40.55 44.32
  A 0.64 0.63 30.8 0 0 40.35 43.54
  Q 37.04 41.14 36.46 36.64
  A 0.64 0.64 0.0 0 0 35.43 36.22
  L 30.15 40.31
  A 2.18 2.15 -11.6 0 0 29.40 41.43
  L 27.62 47.88
  A 1.00 0.99 -56.4 0 0 27.79 48.75
  L 28.63 49.84
  A 0.41 0.41 0.0 0 1 28.31 50.50
  L 15.29 50.50
  A 0.41 0.41 0.0 0 1 14.91 49.93
  L 19.71 39.19
  A 0.42 0.42 0.0 0 1 20.39 39.07
  L 23.03 41.72
  A 0.53 0.51 14.1 0 1 23.18 41.96
  Q 23.93 44.43 24.02 44.62
  A 0.26 0.25 -56.4 0 0 24.50 44.52
  L 24.75 40.68
  A 1.38 1.34 -66.2 0 0 24.36 39.63
  L 22.81 38.09
  A 0.87 0.87 0.0 0 1 22.62 37.17
  L 25.95 28.83
  A 1.67 1.62 -6.2 0 1 26.56 28.09
  L 30.42 25.53
  A 0.22 0.22 0.0 0 1 30.72 25.83
  Z"
/>
<path fill="#ffffff" d="
  M 45.60 49.99
  L 46.51 47.97
  A 0.73 0.73 0.0 0 1 47.32 47.54
  Q 49.61 47.95 50.48 49.81
  A 0.49 0.49 0.0 0 1 50.04 50.50
  L 45.93 50.50
  A 0.36 0.36 0.0 0 1 45.60 49.99
  Z"
/>
</svg>
