<?xml version="1.0" encoding="UTF-8" standalone="no"?>
<!DOCTYPE svg PUBLIC "-//W3C//DTD SVG 1.1//EN" "http://www.w3.org/Graphics/SVG/1.1/DTD/svg11.dtd">
<svg xmlns="http://www.w3.org/2000/svg" version="1.1" viewBox="0.00 0.00 66.00 88.00">
<g stroke-width="2.00" fill="none" stroke-linecap="butt">
<path stroke="#431a44" vector-effect="non-scaling-stroke" d="
  M 33.43 86.53
  Q 33.74 86.53 33.90 86.37
  Q 45.10 75.87 53.23 63.74
  C 63.65 48.21 70.50 27.35 55.75 11.96
  Q 47.28 3.13 34.51 2.49
  Q 33.85 2.46 33.48 2.46
  Q 33.12 2.46 32.46 2.49
  Q 19.69 3.11 11.21 11.93
  C -3.57 27.30 3.26 48.17 13.66 63.71
  Q 21.77 75.85 32.96 86.37
  Q 33.12 86.53 33.43 86.53"
/>
<path stroke="#ac91ac" vector-effect="non-scaling-stroke" d="
  M 32.99 18.05
  C 40.82 18.08 46.74 25.79 44.74 33.36
  Q 43.11 39.52 36.63 42.12
  A 0.36 0.35 -38.8 0 0 36.56 42.74
  L 37.80 43.59
  A 1.15 1.14 -39.5 0 0 38.93 43.69
  C 52.93 37.28 48.81 15.85 33.00 15.80
  C 17.18 15.75 12.92 37.15 26.88 43.65
  A 1.15 1.14 39.9 0 0 28.01 43.56
  L 29.25 42.72
  A 0.36 0.35 39.2 0 0 29.19 42.10
  Q 22.73 39.45 21.14 33.29
  C 19.19 25.70 25.15 18.03 32.99 18.05"
/>
<path stroke="#ac91ac" vector-effect="non-scaling-stroke" d="
  M 37.42 47.76
  A 4.49 4.49 0.0 0 0 32.93 43.27
  A 4.49 4.49 0.0 0 0 28.44 47.76
  A 4.49 4.49 0.0 0 0 32.93 52.25
  A 4.49 4.49 0.0 0 0 37.42 47.76"
/>
<path stroke="#ac91ac" vector-effect="non-scaling-stroke" d="
  M 34.93 47.80
  A 2.01 2.01 0.0 0 0 32.92 45.79
  A 2.01 2.01 0.0 0 0 30.91 47.80
  A 2.01 2.01 0.0 0 0 32.92 49.81
  A 2.01 2.01 0.0 0 0 34.93 47.80"
/>
</g>
<path fill="#2e112e" d="
  M 33.81 88.00
  L 33.04 88.00
  C 21.72 77.71 12.19 65.75 5.68 51.55
  Q 2.13 43.82 1.58 34.89
  C 0.39 15.79 16.40 -0.04 35.83 1.41
  C 51.88 2.61 65.17 15.62 65.45 31.84
  Q 65.56 38.30 63.94 44.00
  C 59.19 60.80 46.65 76.28 33.81 88.00
  Z
  M 33.43 86.53
  Q 33.74 86.53 33.90 86.37
  Q 45.10 75.87 53.23 63.74
  C 63.65 48.21 70.50 27.35 55.75 11.96
  Q 47.28 3.13 34.51 2.49
  Q 33.85 2.46 33.48 2.46
  Q 33.12 2.46 32.46 2.49
  Q 19.69 3.11 11.21 11.93
  C -3.57 27.30 3.26 48.17 13.66 63.71
  Q 21.77 75.85 32.96 86.37
  Q 33.12 86.53 33.43 86.53
  Z"
/>
<path fill="#582359" d="
  M 33.48 2.46
  Q 33.85 2.46 34.51 2.49
  Q 47.28 3.13 55.75 11.96
  C 70.50 27.35 63.65 48.21 53.23 63.74
  Q 45.10 75.87 33.90 86.37
  Q 33.74 86.53 33.43 86.53
  Q 33.12 86.53 32.96 86.37
  Q 21.77 75.85 13.66 63.71
  C 3.26 48.17 -3.57 27.30 11.21 11.93
  Q 19.69 3.11 32.46 2.49
  Q 33.12 2.46 33.48 2.46
  Z
  M 32.99 18.05
  C 40.82 18.08 46.74 25.79 44.74 33.36
  Q 43.11 39.52 36.63 42.12
  A 0.36 0.35 -38.8 0 0 36.56 42.74
  L 37.80 43.59
  A 1.15 1.14 -39.5 0 0 38.93 43.69
  C 52.93 37.28 48.81 15.85 33.00 15.80
  C 17.18 15.75 12.92 37.15 26.88 43.65
  A 1.15 1.14 39.9 0 0 28.01 43.56
  L 29.25 42.72
  A 0.36 0.35 39.2 0 0 29.19 42.10
  Q 22.73 39.45 21.14 33.29
  C 19.19 25.70 25.15 18.03 32.99 18.05
  Z
  M 37.42 47.76
  A 4.49 4.49 0.0 0 0 32.93 43.27
  A 4.49 4.49 0.0 0 0 28.44 47.76
  A 4.49 4.49 0.0 0 0 32.93 52.25
  A 4.49 4.49 0.0 0 0 37.42 47.76
  Z"
/>
<path fill="#ffffff" d="
  M 33.00 15.80
  C 48.81 15.85 52.93 37.28 38.93 43.69
  A 1.15 1.14 -39.5 0 1 37.80 43.59
  L 36.56 42.74
  A 0.36 0.35 -38.8 0 1 36.63 42.12
  Q 43.11 39.52 44.74 33.36
  C 46.74 25.79 40.82 18.08 32.99 18.05
  C 25.15 18.03 19.19 25.70 21.14 33.29
  Q 22.73 39.45 29.19 42.10
  A 0.36 0.35 39.2 0 1 29.25 42.72
  L 28.01 43.56
  A 1.15 1.14 39.9 0 1 26.88 43.65
  C 12.92 37.15 17.18 15.75 33.00 15.80
  Z"
/>
<path fill="#ffffff" d="
  M 37.42 47.76
  A 4.49 4.49 0.0 0 1 32.93 52.25
  A 4.49 4.49 0.0 0 1 28.44 47.76
  A 4.49 4.49 0.0 0 1 32.93 43.27
  A 4.49 4.49 0.0 0 1 37.42 47.76
  Z
  M 34.93 47.80
  A 2.01 2.01 0.0 0 0 32.92 45.79
  A 2.01 2.01 0.0 0 0 30.91 47.80
  A 2.01 2.01 0.0 0 0 32.92 49.81
  A 2.01 2.01 0.0 0 0 34.93 47.80
  Z"
/>
<circle fill="#582359" cx="32.92" cy="47.80" r="2.01"/>
</svg>
