<?xml version="1.0" encoding="UTF-8" standalone="no"?>
<!DOCTYPE svg PUBLIC "-//W3C//DTD SVG 1.1//EN" "http://www.w3.org/Graphics/SVG/1.1/DTD/svg11.dtd">
<svg xmlns="http://www.w3.org/2000/svg" version="1.1" viewBox="0.00 0.00 66.00 88.00">
<g stroke-width="2.00" fill="none" stroke-linecap="butt">
<path stroke="#441a44" vector-effect="non-scaling-stroke" d="
  M 33.43 86.54
  C 33.70 86.54 33.65 86.54 33.79 86.42
  C 50.11 71.39 73.43 41.75 60.53 18.38
  C 55.19 8.71 44.62 2.47 33.47 2.46
  C 22.32 2.46 11.75 8.69 6.40 18.35
  C -6.53 41.71 16.77 71.37 33.07 86.42
  C 33.21 86.54 33.16 86.54 33.43 86.54"
/>
<path stroke="#ac91ac" vector-effect="non-scaling-stroke" d="
  M 33.43 54.26
  C 34.90 54.26 36.30 52.96 37.26 53.33
  Q 37.92 53.59 38.50 52.97
  A 0.87 0.84 21.2 0 1 39.12 52.71
  L 43.22 52.71
  A 0.86 0.83 -18.8 0 1 43.88 53.02
  L 44.43 53.69
  A 0.78 0.77 -36.3 0 0 45.46 53.84
  Q 46.79 52.95 47.80 53.77
  A 1.04 1.02 -88.0 0 0 49.28 52.36
  Q 48.64 51.41 49.27 50.24
  A 0.98 0.98 0.0 0 0 49.25 49.25
  L 48.63 48.26
  A 1.91 1.90 33.7 0 1 48.37 46.99
  Q 48.82 43.81 48.14 41.20
  A 0.52 0.45 -47.2 0 1 48.15 40.91
  L 49.75 35.33
  A 2.71 2.69 -44.8 0 0 49.76 33.87
  L 48.41 28.90
  A 3.02 2.97 -52.1 0 1 48.30 27.96
  L 48.58 21.73
  A 1.47 1.44 -30.4 0 1 48.76 21.07
  L 49.07 20.48
  A 1.61 1.61 0.0 0 0 49.24 19.40
  Q 48.96 17.99 49.42 16.67
  A 0.86 0.85 -83.7 0 0 48.52 15.54
  Q 42.95 16.17 39.52 16.04
  Q 37.22 15.96 34.22 14.83
  Q 34.07 14.78 33.42 14.78
  Q 32.77 14.78 32.63 14.83
  Q 29.63 15.96 27.33 16.04
  Q 23.90 16.17 18.33 15.54
  A 0.86 0.85 83.6 0 0 17.43 16.67
  Q 17.89 17.99 17.61 19.40
  A 1.61 1.61 0.0 0 0 17.78 20.48
  L 18.09 21.07
  A 1.47 1.44 30.3 0 1 18.27 21.73
  L 18.55 27.96
  A 3.02 2.97 52.1 0 1 18.44 28.90
  L 17.09 33.87
  A 2.71 2.69 44.8 0 0 17.10 35.33
  L 18.70 40.91
  A 0.52 0.45 47.2 0 1 18.71 41.20
  Q 18.03 43.81 18.49 46.99
  A 1.91 1.90 -33.7 0 1 18.23 48.26
  L 17.61 49.25
  A 0.98 0.98 0.0 0 0 17.59 50.24
  Q 18.22 51.41 17.58 52.36
  A 1.04 1.02 88.0 0 0 19.06 53.77
  Q 20.07 52.95 21.40 53.84
  A 0.78 0.77 36.3 0 0 22.43 53.69
  L 22.98 53.02
  A 0.86 0.83 18.8 0 1 23.64 52.71
  L 27.74 52.71
  A 0.87 0.84 -21.3 0 1 28.36 52.97
  Q 28.94 53.59 29.60 53.33
  C 30.56 52.96 31.96 54.26 33.43 54.26"
/>
<path stroke="#ac91ac" vector-effect="non-scaling-stroke" d="
  M 44.72 20.47
  A 0.46 0.46 0.0 0 0 44.26 20.01
  L 22.66 20.01
  A 0.46 0.46 0.0 0 0 22.20 20.47
  L 22.20 48.51
  A 0.46 0.46 0.0 0 0 22.66 48.97
  L 44.26 48.97
  A 0.46 0.46 0.0 0 0 44.72 48.51
  L 44.72 20.47"
/>
<path stroke="#ac91ac" vector-effect="non-scaling-stroke" d="
  M 43.47 47.16
  L 43.47 40.64
  A 3.44 3.42 -66.9 0 0 42.53 38.28
  C 38.78 34.29 43.57 21.33 34.17 21.26
  C 28.77 21.22 27.83 25.94 27.18 30.43
  Q 26.62 34.31 27.88 38.35
  A 1.20 1.20 0.0 0 1 27.26 39.78
  Q 25.64 40.55 23.80 42.80
  A 1.62 1.56 -26.5 0 0 23.45 43.79
  L 23.45 47.14
  A 0.64 0.64 0.0 0 0 24.09 47.78
  L 42.85 47.78
  A 0.62 0.62 0.0 0 0 43.47 47.16"
/>
<path stroke="#ac91ac" vector-effect="non-scaling-stroke" d="
  M 32.66 22.52
  Q 32.06 23.79 31.56 23.85
  A 2.04 2.04 0.0 0 0 29.79 25.54
  Q 29.14 29.41 30.43 33.13
  A 2.34 2.34 0.0 0 0 32.74 34.68
  C 37.17 34.48 37.84 30.64 37.22 27.26
  Q 36.75 24.69 33.67 23.94
  A 0.70 0.70 0.0 0 1 33.14 23.26
  L 33.14 22.63
  A 0.25 0.25 0.0 0 0 32.66 22.52"
/>
<path stroke="#ac91ac" vector-effect="non-scaling-stroke" d="
  M 36.62 33.98
  Q 35.29 35.70 33.27 35.51
  A 0.71 0.70 2.6 0 0 32.50 36.21
  L 32.50 36.83
  A 1.21 1.20 -17.4 0 1 31.98 37.82
  Q 29.65 39.43 28.46 41.37
  A 1.25 1.25 0.0 0 0 28.96 43.13
  Q 31.85 44.60 34.80 44.16
  A 2.09 2.06 23.1 0 0 35.71 43.80
  C 38.50 41.80 37.75 37.30 37.22 34.14
  A 0.34 0.34 0.0 0 0 36.62 33.98"
/>
</g>
<path fill="#2f112e" d="
  M 33.80 88.00
  L 33.14 88.00
  Q 16.52 73.26 6.73 54.02
  Q 2.38 45.47 1.62 35.35
  Q 0.90 25.68 5.33 17.88
  C 18.24 -4.88 51.13 -4.14 62.68 19.92
  C 66.95 28.80 65.89 40.03 62.32 49.06
  C 56.43 63.93 45.58 77.29 33.80 88.00
  Z
  M 33.43 86.54
  C 33.70 86.54 33.65 86.54 33.79 86.42
  C 50.11 71.39 73.43 41.75 60.53 18.38
  C 55.19 8.71 44.62 2.47 33.47 2.46
  C 22.32 2.46 11.75 8.69 6.40 18.35
  C -6.53 41.71 16.77 71.37 33.07 86.42
  C 33.21 86.54 33.16 86.54 33.43 86.54
  Z"
/>
<path fill="#582359" d="
  M 33.47 2.46
  C 44.62 2.47 55.19 8.71 60.53 18.38
  C 73.43 41.75 50.11 71.39 33.79 86.42
  C 33.65 86.54 33.70 86.54 33.43 86.54
  C 33.16 86.54 33.21 86.54 33.07 86.42
  C 16.77 71.37 -6.53 41.71 6.40 18.35
  C 11.75 8.69 22.32 2.46 33.47 2.46
  Z
  M 33.43 54.26
  C 34.90 54.26 36.30 52.96 37.26 53.33
  Q 37.92 53.59 38.50 52.97
  A 0.87 0.84 21.2 0 1 39.12 52.71
  L 43.22 52.71
  A 0.86 0.83 -18.8 0 1 43.88 53.02
  L 44.43 53.69
  A 0.78 0.77 -36.3 0 0 45.46 53.84
  Q 46.79 52.95 47.80 53.77
  A 1.04 1.02 -88.0 0 0 49.28 52.36
  Q 48.64 51.41 49.27 50.24
  A 0.98 0.98 0.0 0 0 49.25 49.25
  L 48.63 48.26
  A 1.91 1.90 33.7 0 1 48.37 46.99
  Q 48.82 43.81 48.14 41.20
  A 0.52 0.45 -47.2 0 1 48.15 40.91
  L 49.75 35.33
  A 2.71 2.69 -44.8 0 0 49.76 33.87
  L 48.41 28.90
  A 3.02 2.97 -52.1 0 1 48.30 27.96
  L 48.58 21.73
  A 1.47 1.44 -30.4 0 1 48.76 21.07
  L 49.07 20.48
  A 1.61 1.61 0.0 0 0 49.24 19.40
  Q 48.96 17.99 49.42 16.67
  A 0.86 0.85 -83.7 0 0 48.52 15.54
  Q 42.95 16.17 39.52 16.04
  Q 37.22 15.96 34.22 14.83
  Q 34.07 14.78 33.42 14.78
  Q 32.77 14.78 32.63 14.83
  Q 29.63 15.96 27.33 16.04
  Q 23.90 16.17 18.33 15.54
  A 0.86 0.85 83.6 0 0 17.43 16.67
  Q 17.89 17.99 17.61 19.40
  A 1.61 1.61 0.0 0 0 17.78 20.48
  L 18.09 21.07
  A 1.47 1.44 30.3 0 1 18.27 21.73
  L 18.55 27.96
  A 3.02 2.97 52.1 0 1 18.44 28.90
  L 17.09 33.87
  A 2.71 2.69 44.8 0 0 17.10 35.33
  L 18.70 40.91
  A 0.52 0.45 47.2 0 1 18.71 41.20
  Q 18.03 43.81 18.49 46.99
  A 1.91 1.90 -33.7 0 1 18.23 48.26
  L 17.61 49.25
  A 0.98 0.98 0.0 0 0 17.59 50.24
  Q 18.22 51.41 17.58 52.36
  A 1.04 1.02 88.0 0 0 19.06 53.77
  Q 20.07 52.95 21.40 53.84
  A 0.78 0.77 36.3 0 0 22.43 53.69
  L 22.98 53.02
  A 0.86 0.83 18.8 0 1 23.64 52.71
  L 27.74 52.71
  A 0.87 0.84 -21.3 0 1 28.36 52.97
  Q 28.94 53.59 29.60 53.33
  C 30.56 52.96 31.96 54.26 33.43 54.26
  Z"
/>
<path fill="#ffffff" d="
  M 33.42 14.78
  Q 34.07 14.78 34.22 14.83
  Q 37.22 15.96 39.52 16.04
  Q 42.95 16.17 48.52 15.54
  A 0.86 0.85 -83.7 0 1 49.42 16.67
  Q 48.96 17.99 49.24 19.40
  A 1.61 1.61 0.0 0 1 49.07 20.48
  L 48.76 21.07
  A 1.47 1.44 -30.4 0 0 48.58 21.73
  L 48.30 27.96
  A 3.02 2.97 -52.1 0 0 48.41 28.90
  L 49.76 33.87
  A 2.71 2.69 -44.8 0 1 49.75 35.33
  L 48.15 40.91
  A 0.52 0.45 -47.2 0 0 48.14 41.20
  Q 48.82 43.81 48.37 46.99
  A 1.91 1.90 33.7 0 0 48.63 48.26
  L 49.25 49.25
  A 0.98 0.98 0.0 0 1 49.27 50.24
  Q 48.64 51.41 49.28 52.36
  A 1.04 1.02 -88.0 0 1 47.80 53.77
  Q 46.79 52.95 45.46 53.84
  A 0.78 0.77 -36.3 0 1 44.43 53.69
  L 43.88 53.02
  A 0.86 0.83 -18.8 0 0 43.22 52.71
  L 39.12 52.71
  A 0.87 0.84 21.2 0 0 38.50 52.97
  Q 37.92 53.59 37.26 53.33
  C 36.30 52.96 34.90 54.26 33.43 54.26
  C 31.96 54.26 30.56 52.96 29.60 53.33
  Q 28.94 53.59 28.36 52.97
  A 0.87 0.84 -21.3 0 0 27.74 52.71
  L 23.64 52.71
  A 0.86 0.83 18.8 0 0 22.98 53.02
  L 22.43 53.69
  A 0.78 0.77 36.3 0 1 21.40 53.84
  Q 20.07 52.95 19.06 53.77
  A 1.04 1.02 88.0 0 1 17.58 52.36
  Q 18.22 51.41 17.59 50.24
  A 0.98 0.98 0.0 0 1 17.61 49.25
  L 18.23 48.26
  A 1.91 1.90 -33.7 0 0 18.49 46.99
  Q 18.03 43.81 18.71 41.20
  A 0.52 0.45 47.2 0 0 18.70 40.91
  L 17.10 35.33
  A 2.71 2.69 44.8 0 1 17.09 33.87
  L 18.44 28.90
  A 3.02 2.97 52.1 0 0 18.55 27.96
  L 18.27 21.73
  A 1.47 1.44 30.3 0 0 18.09 21.07
  L 17.78 20.48
  A 1.61 1.61 0.0 0 1 17.61 19.40
  Q 17.89 17.99 17.43 16.67
  A 0.86 0.85 83.6 0 1 18.33 15.54
  Q 23.90 16.17 27.33 16.04
  Q 29.63 15.96 32.63 14.83
  Q 32.77 14.78 33.42 14.78
  Z
  M 44.72 20.47
  A 0.46 0.46 0.0 0 0 44.26 20.01
  L 22.66 20.01
  A 0.46 0.46 0.0 0 0 22.20 20.47
  L 22.20 48.51
  A 0.46 0.46 0.0 0 0 22.66 48.97
  L 44.26 48.97
  A 0.46 0.46 0.0 0 0 44.72 48.51
  L 44.72 20.47
  Z"
/>
<path fill="#582359" d="
  M 44.72 48.51
  A 0.46 0.46 0.0 0 1 44.26 48.97
  L 22.66 48.97
  A 0.46 0.46 0.0 0 1 22.20 48.51
  L 22.20 20.47
  A 0.46 0.46 0.0 0 1 22.66 20.01
  L 44.26 20.01
  A 0.46 0.46 0.0 0 1 44.72 20.47
  L 44.72 48.51
  Z
  M 43.47 47.16
  L 43.47 40.64
  A 3.44 3.42 -66.9 0 0 42.53 38.28
  C 38.78 34.29 43.57 21.33 34.17 21.26
  C 28.77 21.22 27.83 25.94 27.18 30.43
  Q 26.62 34.31 27.88 38.35
  A 1.20 1.20 0.0 0 1 27.26 39.78
  Q 25.64 40.55 23.80 42.80
  A 1.62 1.56 -26.5 0 0 23.45 43.79
  L 23.45 47.14
  A 0.64 0.64 0.0 0 0 24.09 47.78
  L 42.85 47.78
  A 0.62 0.62 0.0 0 0 43.47 47.16
  Z"
/>
<path fill="#ffffff" d="
  M 42.85 47.78
  L 24.09 47.78
  A 0.64 0.64 0.0 0 1 23.45 47.14
  L 23.45 43.79
  A 1.62 1.56 -26.5 0 1 23.80 42.80
  Q 25.64 40.55 27.26 39.78
  A 1.20 1.20 0.0 0 0 27.88 38.35
  Q 26.62 34.31 27.18 30.43
  C 27.83 25.94 28.77 21.22 34.17 21.26
  C 43.57 21.33 38.78 34.29 42.53 38.28
  A 3.44 3.42 -66.9 0 1 43.47 40.64
  L 43.47 47.16
  A 0.62 0.62 0.0 0 1 42.85 47.78
  Z
  M 32.66 22.52
  Q 32.06 23.79 31.56 23.85
  A 2.04 2.04 0.0 0 0 29.79 25.54
  Q 29.14 29.41 30.43 33.13
  A 2.34 2.34 0.0 0 0 32.74 34.68
  C 37.17 34.48 37.84 30.64 37.22 27.26
  Q 36.75 24.69 33.67 23.94
  A 0.70 0.70 0.0 0 1 33.14 23.26
  L 33.14 22.63
  A 0.25 0.25 0.0 0 0 32.66 22.52
  Z
  M 36.62 33.98
  Q 35.29 35.70 33.27 35.51
  A 0.71 0.70 2.6 0 0 32.50 36.21
  L 32.50 36.83
  A 1.21 1.20 -17.4 0 1 31.98 37.82
  Q 29.65 39.43 28.46 41.37
  A 1.25 1.25 0.0 0 0 28.96 43.13
  Q 31.85 44.60 34.80 44.16
  A 2.09 2.06 23.1 0 0 35.71 43.80
  C 38.50 41.80 37.75 37.30 37.22 34.14
  A 0.34 0.34 0.0 0 0 36.62 33.98
  Z"
/>
<path fill="#582359" d="
  M 33.14 22.63
  L 33.14 23.26
  A 0.70 0.70 0.0 0 0 33.67 23.94
  Q 36.75 24.69 37.22 27.26
  C 37.84 30.64 37.17 34.48 32.74 34.68
  A 2.34 2.34 0.0 0 1 30.43 33.13
  Q 29.14 29.41 29.79 25.54
  A 2.04 2.04 0.0 0 1 31.56 23.85
  Q 32.06 23.79 32.66 22.52
  A 0.25 0.25 0.0 0 1 33.14 22.63
  Z"
/>
<path fill="#582359" d="
  M 37.22 34.14
  C 37.75 37.30 38.50 41.80 35.71 43.80
  A 2.09 2.06 23.1 0 1 34.80 44.16
  Q 31.85 44.60 28.96 43.13
  A 1.25 1.25 0.0 0 1 28.46 41.37
  Q 29.65 39.43 31.98 37.82
  A 1.21 1.20 -17.4 0 0 32.50 36.83
  L 32.50 36.21
  A 0.71 0.70 2.6 0 1 33.27 35.51
  Q 35.29 35.70 36.62 33.98
  A 0.34 0.34 0.0 0 1 37.22 34.14
  Z"
/>
</svg>
