<?xml version="1.0" encoding="UTF-8" standalone="no"?>
<!DOCTYPE svg PUBLIC "-//W3C//DTD SVG 1.1//EN" "http://www.w3.org/Graphics/SVG/1.1/DTD/svg11.dtd">
<svg xmlns="http://www.w3.org/2000/svg" version="1.1" viewBox="0.00 0.00 66.00 88.00">
<g stroke-width="2.00" fill="none" stroke-linecap="butt">
<path stroke="#282a22" vector-effect="non-scaling-stroke" d="
  M 33.40 86.54
  Q 33.51 86.55 33.62 86.52
  Q 33.71 86.50 33.80 86.41
  Q 48.61 72.73 57.69 56.25
  C 64.40 44.05 67.51 28.12 59.22 16.25
  Q 50.05 3.13 33.75 2.51
  Q 33.63 2.51 33.51 2.51
  Q 33.40 2.51 33.28 2.51
  Q 16.98 3.08 7.77 16.18
  C -0.55 28.02 2.51 43.96 9.19 56.18
  Q 18.22 72.69 32.99 86.41
  Q 33.08 86.50 33.17 86.52
  Q 33.28 86.54 33.40 86.54"
/>
<path stroke="#837854" vector-effect="non-scaling-stroke" d="
  M 51.23 34.05
  A 18.26 18.26 0.0 0 0 32.97 15.79
  A 18.26 18.26 0.0 0 0 14.71 34.05
  A 18.26 18.26 0.0 0 0 32.97 52.31
  A 18.26 18.26 0.0 0 0 51.23 34.05"
/>
<path stroke="#837854" vector-effect="non-scaling-stroke" d="
  M 48.64 33.98
  A 15.67 15.67 0.0 0 0 32.97 18.31
  A 15.67 15.67 0.0 0 0 17.30 33.98
  A 15.67 15.67 0.0 0 0 32.97 49.65
  A 15.67 15.67 0.0 0 0 48.64 33.98"
/>
<path stroke="#837854" vector-effect="non-scaling-stroke" d="
  M 44.88 34.00
  A 11.91 11.91 0.0 0 0 32.97 22.09
  A 11.91 11.91 0.0 0 0 21.06 34.00
  A 11.91 11.91 0.0 0 0 32.97 45.91
  A 11.91 11.91 0.0 0 0 44.88 34.00"
/>
<path stroke="#837854" vector-effect="non-scaling-stroke" d="
  M 41.89 33.98
  A 8.92 8.92 0.0 0 0 32.97 25.06
  A 8.92 8.92 0.0 0 0 24.05 33.98
  A 8.92 8.92 0.0 0 0 32.97 42.90
  A 8.92 8.92 0.0 0 0 41.89 33.98"
/>
<path stroke="#837854" vector-effect="non-scaling-stroke" d="
  M 40.24 34.04
  A 7.27 7.27 0.0 0 0 32.97 26.77
  A 7.27 7.27 0.0 0 0 25.70 34.04
  A 7.27 7.27 0.0 0 0 32.97 41.31
  A 7.27 7.27 0.0 0 0 40.24 34.04"
/>
<path stroke="#837854" vector-effect="non-scaling-stroke" d="
  M 38.46 33.99
  A 5.48 5.48 0.0 0 0 32.98 28.51
  A 5.48 5.48 0.0 0 0 27.50 33.99
  A 5.48 5.48 0.0 0 0 32.98 39.47
  A 5.48 5.48 0.0 0 0 38.46 33.99"
/>
<path stroke="#837854" vector-effect="non-scaling-stroke" d="
  M 37.55 34.00
  A 4.56 4.56 0.0 0 0 32.99 29.44
  A 4.56 4.56 0.0 0 0 28.43 34.00
  A 4.56 4.56 0.0 0 0 32.99 38.56
  A 4.56 4.56 0.0 0 0 37.55 34.00"
/>
</g>
<path fill="#1c1d17" d="
  M 33.80 88.00
  L 33.03 88.00
  C 21.81 77.80 11.98 65.58 5.65 51.56
  Q 2.84 45.35 1.94 38.72
  Q -0.17 23.13 8.97 12.61
  Q 18.02 2.18 32.01 1.34
  C 40.30 0.85 49.65 4.17 55.72 10.17
  C 80.49 34.68 52.87 70.62 33.80 88.00
  Z
  M 33.40 86.54
  Q 33.51 86.55 33.62 86.52
  Q 33.71 86.50 33.80 86.41
  Q 48.61 72.73 57.69 56.25
  C 64.40 44.05 67.51 28.12 59.22 16.25
  Q 50.05 3.13 33.75 2.51
  Q 33.63 2.51 33.51 2.51
  Q 33.40 2.51 33.28 2.51
  Q 16.98 3.08 7.77 16.18
  C -0.55 28.02 2.51 43.96 9.19 56.18
  Q 18.22 72.69 32.99 86.41
  Q 33.08 86.50 33.17 86.52
  Q 33.28 86.54 33.40 86.54
  Z"
/>
<path fill="#34362c" d="
  M 33.51 2.51
  Q 33.63 2.51 33.75 2.51
  Q 50.05 3.13 59.22 16.25
  C 67.51 28.12 64.40 44.05 57.69 56.25
  Q 48.61 72.73 33.80 86.41
  Q 33.71 86.50 33.62 86.52
  Q 33.51 86.55 33.40 86.54
  Q 33.28 86.54 33.17 86.52
  Q 33.08 86.50 32.99 86.41
  Q 18.22 72.69 9.19 56.18
  C 2.51 43.96 -0.55 28.02 7.77 16.18
  Q 16.98 3.08 33.28 2.51
  Q 33.40 2.51 33.51 2.51
  Z
  M 51.23 34.05
  A 18.26 18.26 0.0 0 0 32.97 15.79
  A 18.26 18.26 0.0 0 0 14.71 34.05
  A 18.26 18.26 0.0 0 0 32.97 52.31
  A 18.26 18.26 0.0 0 0 51.23 34.05
  Z"
/>
<path fill="#d2b97c" d="
  M 51.23 34.05
  A 18.26 18.26 0.0 0 1 32.97 52.31
  A 18.26 18.26 0.0 0 1 14.71 34.05
  A 18.26 18.26 0.0 0 1 32.97 15.79
  A 18.26 18.26 0.0 0 1 51.23 34.05
  Z
  M 48.64 33.98
  A 15.67 15.67 0.0 0 0 32.97 18.31
  A 15.67 15.67 0.0 0 0 17.30 33.98
  A 15.67 15.67 0.0 0 0 32.97 49.65
  A 15.67 15.67 0.0 0 0 48.64 33.98
  Z"
/>
<path fill="#34362c" d="
  M 48.64 33.98
  A 15.67 15.67 0.0 0 1 32.97 49.65
  A 15.67 15.67 0.0 0 1 17.30 33.98
  A 15.67 15.67 0.0 0 1 32.97 18.31
  A 15.67 15.67 0.0 0 1 48.64 33.98
  Z
  M 44.88 34.00
  A 11.91 11.91 0.0 0 0 32.97 22.09
  A 11.91 11.91 0.0 0 0 21.06 34.00
  A 11.91 11.91 0.0 0 0 32.97 45.91
  A 11.91 11.91 0.0 0 0 44.88 34.00
  Z"
/>
<path fill="#d2b97c" d="
  M 44.88 34.00
  A 11.91 11.91 0.0 0 1 32.97 45.91
  A 11.91 11.91 0.0 0 1 21.06 34.00
  A 11.91 11.91 0.0 0 1 32.97 22.09
  A 11.91 11.91 0.0 0 1 44.88 34.00
  Z
  M 41.89 33.98
  A 8.92 8.92 0.0 0 0 32.97 25.06
  A 8.92 8.92 0.0 0 0 24.05 33.98
  A 8.92 8.92 0.0 0 0 32.97 42.90
  A 8.92 8.92 0.0 0 0 41.89 33.98
  Z"
/>
<path fill="#34362c" d="
  M 41.89 33.98
  A 8.92 8.92 0.0 0 1 32.97 42.90
  A 8.92 8.92 0.0 0 1 24.05 33.98
  A 8.92 8.92 0.0 0 1 32.97 25.06
  A 8.92 8.92 0.0 0 1 41.89 33.98
  Z
  M 40.24 34.04
  A 7.27 7.27 0.0 0 0 32.97 26.77
  A 7.27 7.27 0.0 0 0 25.70 34.04
  A 7.27 7.27 0.0 0 0 32.97 41.31
  A 7.27 7.27 0.0 0 0 40.24 34.04
  Z"
/>
<path fill="#d2b97c" d="
  M 40.24 34.04
  A 7.27 7.27 0.0 0 1 32.97 41.31
  A 7.27 7.27 0.0 0 1 25.70 34.04
  A 7.27 7.27 0.0 0 1 32.97 26.77
  A 7.27 7.27 0.0 0 1 40.24 34.04
  Z
  M 38.46 33.99
  A 5.48 5.48 0.0 0 0 32.98 28.51
  A 5.48 5.48 0.0 0 0 27.50 33.99
  A 5.48 5.48 0.0 0 0 32.98 39.47
  A 5.48 5.48 0.0 0 0 38.46 33.99
  Z"
/>
<path fill="#34362c" d="
  M 38.46 33.99
  A 5.48 5.48 0.0 0 1 32.98 39.47
  A 5.48 5.48 0.0 0 1 27.50 33.99
  A 5.48 5.48 0.0 0 1 32.98 28.51
  A 5.48 5.48 0.0 0 1 38.46 33.99
  Z
  M 37.55 34.00
  A 4.56 4.56 0.0 0 0 32.99 29.44
  A 4.56 4.56 0.0 0 0 28.43 34.00
  A 4.56 4.56 0.0 0 0 32.99 38.56
  A 4.56 4.56 0.0 0 0 37.55 34.00
  Z"
/>
<circle fill="#d2b97c" cx="32.99" cy="34.00" r="4.56"/>
</svg>
