<?xml version="1.0" encoding="UTF-8" standalone="no"?>
<!DOCTYPE svg PUBLIC "-//W3C//DTD SVG 1.1//EN" "http://www.w3.org/Graphics/SVG/1.1/DTD/svg11.dtd">
<svg xmlns="http://www.w3.org/2000/svg" version="1.1" viewBox="0.00 0.00 66.00 88.00">
<g stroke-width="2.00" fill="none" stroke-linecap="butt">
<path stroke="#173f51" vector-effect="non-scaling-stroke" d="
  M 33.42 86.61
  C 34.16 86.61 33.56 86.67 33.78 86.46
  Q 47.67 73.49 56.49 58.52
  C 64.06 45.68 68.26 28.67 58.76 15.54
  C 52.81 7.31 43.78 2.58 33.50 2.57
  C 23.22 2.56 14.18 7.28 8.21 15.49
  C -1.31 28.61 2.86 45.62 10.41 58.48
  Q 19.20 73.46 33.06 86.46
  C 33.29 86.67 32.69 86.61 33.42 86.61"
/>
<path stroke="#8fa9b5" vector-effect="non-scaling-stroke" d="
  M 32.99 49.24
  C 36.98 49.24 40.26 47.50 42.26 44.12
  A 0.63 0.63 0.0 0 1 43.12 43.90
  Q 44.17 44.53 44.65 45.11
  A 1.10 1.10 0.0 0 1 44.88 46.04
  L 44.00 50.11
  A 0.09 0.09 0.0 0 0 44.16 50.19
  L 48.16 45.12
  A 0.72 0.72 0.0 0 0 48.10 44.17
  L 44.52 40.59
  A 0.59 0.59 0.0 0 1 44.35 40.13
  L 44.55 37.87
  A 0.55 0.55 0.0 0 1 45.15 37.36
  L 48.30 37.63
  A 0.82 0.81 82.9 0 1 49.01 38.19
  L 50.29 42.21
  A 0.21 0.21 0.0 0 0 50.70 42.17
  L 51.25 35.61
  A 0.72 0.72 0.0 0 0 50.69 34.84
  L 45.30 33.68
  A 0.95 0.94 86.7 0 1 44.59 33.04
  L 43.23 28.78
  A 0.98 0.97 -35.2 0 1 43.39 27.88
  L 46.25 24.25
  A 0.68 0.68 0.0 0 0 46.20 23.35
  L 41.54 18.70
  A 0.11 0.11 0.0 0 0 41.36 18.81
  L 42.70 23.00
  A 0.75 0.75 0.0 0 1 42.51 23.78
  L 41.15 25.15
  A 0.48 0.48 0.0 0 1 40.54 25.21
  L 36.74 22.64
  A 1.13 1.08 4.3 0 1 36.37 22.23
  L 34.34 18.25
  A 0.28 0.28 0.0 0 0 33.81 18.33
  Q 33.30 21.69 33.00 21.69
  Q 32.70 21.69 32.18 18.33
  A 0.28 0.28 0.0 0 0 31.65 18.25
  L 29.62 22.23
  A 1.13 1.08 -4.3 0 1 29.25 22.64
  L 25.45 25.21
  A 0.48 0.48 0.0 0 1 24.84 25.15
  L 23.48 23.78
  A 0.75 0.75 0.0 0 1 23.29 23.00
  L 24.63 18.81
  A 0.11 0.11 0.0 0 0 24.45 18.70
  L 19.79 23.35
  A 0.68 0.68 0.0 0 0 19.74 24.25
  L 22.60 27.88
  A 0.98 0.97 35.2 0 1 22.76 28.78
  L 21.40 33.04
  A 0.95 0.94 -86.7 0 1 20.69 33.68
  L 15.30 34.84
  A 0.72 0.72 0.0 0 0 14.74 35.61
  L 15.29 42.17
  A 0.21 0.21 0.0 0 0 15.70 42.21
  L 16.98 38.19
  A 0.82 0.81 -82.9 0 1 17.69 37.63
  L 20.84 37.36
  A 0.55 0.55 0.0 0 1 21.44 37.87
  L 21.64 40.13
  A 0.59 0.59 0.0 0 1 21.47 40.59
  L 17.89 44.17
  A 0.72 0.72 0.0 0 0 17.83 45.12
  L 21.83 50.19
  A 0.09 0.09 0.0 0 0 21.99 50.11
  L 21.11 46.04
  A 1.10 1.10 0.0 0 1 21.34 45.11
  Q 21.82 44.53 22.87 43.90
  A 0.63 0.63 0.0 0 1 23.73 44.12
  C 25.73 47.50 29.00 49.24 32.99 49.24"
/>
<path stroke="#8fa9b5" vector-effect="non-scaling-stroke" d="
  M 37.53 35.77
  A 4.56 4.56 0.0 0 0 32.97 31.21
  A 4.56 4.56 0.0 0 0 28.41 35.77
  A 4.56 4.56 0.0 0 0 32.97 40.33
  A 4.56 4.56 0.0 0 0 37.53 35.77"
/>
</g>
<path fill="#0e2b37" d="
  M 33.80 88.00
  L 33.10 88.00
  C 19.64 75.97 5.45 58.13 2.12 40.00
  C 1.10 34.45 1.23 27.26 3.44 21.92
  Q 10.11 5.78 26.78 2.07
  C 41.34 -1.17 55.90 6.07 62.57 19.68
  C 66.97 28.64 65.92 39.64 62.36 48.92
  C 56.68 63.75 45.48 77.38 33.80 88.00
  Z
  M 33.42 86.61
  C 34.16 86.61 33.56 86.67 33.78 86.46
  Q 47.67 73.49 56.49 58.52
  C 64.06 45.68 68.26 28.67 58.76 15.54
  C 52.81 7.31 43.78 2.58 33.50 2.57
  C 23.22 2.56 14.18 7.28 8.21 15.49
  C -1.31 28.61 2.86 45.62 10.41 58.48
  Q 19.20 73.46 33.06 86.46
  C 33.29 86.67 32.69 86.61 33.42 86.61
  Z"
/>
<path fill="#1f526b" d="
  M 33.50 2.57
  C 43.78 2.58 52.81 7.31 58.76 15.54
  C 68.26 28.67 64.06 45.68 56.49 58.52
  Q 47.67 73.49 33.78 86.46
  C 33.56 86.67 34.16 86.61 33.42 86.61
  C 32.69 86.61 33.29 86.67 33.06 86.46
  Q 19.20 73.46 10.41 58.48
  C 2.86 45.62 -1.31 28.61 8.21 15.49
  C 14.18 7.28 23.22 2.56 33.50 2.57
  Z
  M 32.99 49.24
  C 36.98 49.24 40.26 47.50 42.26 44.12
  A 0.63 0.63 0.0 0 1 43.12 43.90
  Q 44.17 44.53 44.65 45.11
  A 1.10 1.10 0.0 0 1 44.88 46.04
  L 44.00 50.11
  A 0.09 0.09 0.0 0 0 44.16 50.19
  L 48.16 45.12
  A 0.72 0.72 0.0 0 0 48.10 44.17
  L 44.52 40.59
  A 0.59 0.59 0.0 0 1 44.35 40.13
  L 44.55 37.87
  A 0.55 0.55 0.0 0 1 45.15 37.36
  L 48.30 37.63
  A 0.82 0.81 82.9 0 1 49.01 38.19
  L 50.29 42.21
  A 0.21 0.21 0.0 0 0 50.70 42.17
  L 51.25 35.61
  A 0.72 0.72 0.0 0 0 50.69 34.84
  L 45.30 33.68
  A 0.95 0.94 86.7 0 1 44.59 33.04
  L 43.23 28.78
  A 0.98 0.97 -35.2 0 1 43.39 27.88
  L 46.25 24.25
  A 0.68 0.68 0.0 0 0 46.20 23.35
  L 41.54 18.70
  A 0.11 0.11 0.0 0 0 41.36 18.81
  L 42.70 23.00
  A 0.75 0.75 0.0 0 1 42.51 23.78
  L 41.15 25.15
  A 0.48 0.48 0.0 0 1 40.54 25.21
  L 36.74 22.64
  A 1.13 1.08 4.3 0 1 36.37 22.23
  L 34.34 18.25
  A 0.28 0.28 0.0 0 0 33.81 18.33
  Q 33.30 21.69 33.00 21.69
  Q 32.70 21.69 32.18 18.33
  A 0.28 0.28 0.0 0 0 31.65 18.25
  L 29.62 22.23
  A 1.13 1.08 -4.3 0 1 29.25 22.64
  L 25.45 25.21
  A 0.48 0.48 0.0 0 1 24.84 25.15
  L 23.48 23.78
  A 0.75 0.75 0.0 0 1 23.29 23.00
  L 24.63 18.81
  A 0.11 0.11 0.0 0 0 24.45 18.70
  L 19.79 23.35
  A 0.68 0.68 0.0 0 0 19.74 24.25
  L 22.60 27.88
  A 0.98 0.97 35.2 0 1 22.76 28.78
  L 21.40 33.04
  A 0.95 0.94 -86.7 0 1 20.69 33.68
  L 15.30 34.84
  A 0.72 0.72 0.0 0 0 14.74 35.61
  L 15.29 42.17
  A 0.21 0.21 0.0 0 0 15.70 42.21
  L 16.98 38.19
  A 0.82 0.81 -82.9 0 1 17.69 37.63
  L 20.84 37.36
  A 0.55 0.55 0.0 0 1 21.44 37.87
  L 21.64 40.13
  A 0.59 0.59 0.0 0 1 21.47 40.59
  L 17.89 44.17
  A 0.72 0.72 0.0 0 0 17.83 45.12
  L 21.83 50.19
  A 0.09 0.09 0.0 0 0 21.99 50.11
  L 21.11 46.04
  A 1.10 1.10 0.0 0 1 21.34 45.11
  Q 21.82 44.53 22.87 43.90
  A 0.63 0.63 0.0 0 1 23.73 44.12
  C 25.73 47.50 29.00 49.24 32.99 49.24
  Z"
/>
<path fill="#ffffff" d="
  M 33.00 21.69
  Q 33.30 21.69 33.81 18.33
  A 0.28 0.28 0.0 0 1 34.34 18.25
  L 36.37 22.23
  A 1.13 1.08 4.3 0 0 36.74 22.64
  L 40.54 25.21
  A 0.48 0.48 0.0 0 0 41.15 25.15
  L 42.51 23.78
  A 0.75 0.75 0.0 0 0 42.70 23.00
  L 41.36 18.81
  A 0.11 0.11 0.0 0 1 41.54 18.70
  L 46.20 23.35
  A 0.68 0.68 0.0 0 1 46.25 24.25
  L 43.39 27.88
  A 0.98 0.97 -35.2 0 0 43.23 28.78
  L 44.59 33.04
  A 0.95 0.94 86.7 0 0 45.30 33.68
  L 50.69 34.84
  A 0.72 0.72 0.0 0 1 51.25 35.61
  L 50.70 42.17
  A 0.21 0.21 0.0 0 1 50.29 42.21
  L 49.01 38.19
  A 0.82 0.81 82.9 0 0 48.30 37.63
  L 45.15 37.36
  A 0.55 0.55 0.0 0 0 44.55 37.87
  L 44.35 40.13
  A 0.59 0.59 0.0 0 0 44.52 40.59
  L 48.10 44.17
  A 0.72 0.72 0.0 0 1 48.16 45.12
  L 44.16 50.19
  A 0.09 0.09 0.0 0 1 44.00 50.11
  L 44.88 46.04
  A 1.10 1.10 0.0 0 0 44.65 45.11
  Q 44.17 44.53 43.12 43.90
  A 0.63 0.63 0.0 0 0 42.26 44.12
  C 40.26 47.50 36.98 49.24 32.99 49.24
  C 29.00 49.24 25.73 47.50 23.73 44.12
  A 0.63 0.63 0.0 0 0 22.87 43.90
  Q 21.82 44.53 21.34 45.11
  A 1.10 1.10 0.0 0 0 21.11 46.04
  L 21.99 50.11
  A 0.09 0.09 0.0 0 1 21.83 50.19
  L 17.83 45.12
  A 0.72 0.72 0.0 0 1 17.89 44.17
  L 21.47 40.59
  A 0.59 0.59 0.0 0 0 21.64 40.13
  L 21.44 37.87
  A 0.55 0.55 0.0 0 0 20.84 37.36
  L 17.69 37.63
  A 0.82 0.81 -82.9 0 0 16.98 38.19
  L 15.70 42.21
  A 0.21 0.21 0.0 0 1 15.29 42.17
  L 14.74 35.61
  A 0.72 0.72 0.0 0 1 15.30 34.84
  L 20.69 33.68
  A 0.95 0.94 -86.7 0 0 21.40 33.04
  L 22.76 28.78
  A 0.98 0.97 35.2 0 0 22.60 27.88
  L 19.74 24.25
  A 0.68 0.68 0.0 0 1 19.79 23.35
  L 24.45 18.70
  A 0.11 0.11 0.0 0 1 24.63 18.81
  L 23.29 23.00
  A 0.75 0.75 0.0 0 0 23.48 23.78
  L 24.84 25.15
  A 0.48 0.48 0.0 0 0 25.45 25.21
  L 29.25 22.64
  A 1.13 1.08 -4.3 0 0 29.62 22.23
  L 31.65 18.25
  A 0.28 0.28 0.0 0 1 32.18 18.33
  Q 32.70 21.69 33.00 21.69
  Z
  M 37.53 35.77
  A 4.56 4.56 0.0 0 0 32.97 31.21
  A 4.56 4.56 0.0 0 0 28.41 35.77
  A 4.56 4.56 0.0 0 0 32.97 40.33
  A 4.56 4.56 0.0 0 0 37.53 35.77
  Z"
/>
<circle fill="#1f526b" cx="32.97" cy="35.77" r="4.56"/>
</svg>
