<?xml version="1.0" encoding="UTF-8" standalone="no"?>
<!DOCTYPE svg PUBLIC "-//W3C//DTD SVG 1.1//EN" "http://www.w3.org/Graphics/SVG/1.1/DTD/svg11.dtd">
<svg xmlns="http://www.w3.org/2000/svg" version="1.1" viewBox="0.00 0.00 66.00 88.00">
<g stroke-width="2.00" fill="none" stroke-linecap="butt">
<path stroke="#282a22" vector-effect="non-scaling-stroke" d="
  M 33.40 86.54
  Q 33.52 86.54 33.62 86.51
  Q 33.67 86.50 33.79 86.39
  Q 48.61 72.70 57.69 56.23
  C 63.06 46.50 66.53 33.19 62.54 22.77
  Q 57.61 9.92 45.01 4.79
  Q 39.44 2.52 33.51 2.52
  Q 27.59 2.51 22.02 4.76
  Q 9.40 9.85 4.43 22.69
  C 0.41 33.10 3.85 46.42 9.19 56.16
  Q 18.22 72.66 33.00 86.39
  Q 33.12 86.50 33.17 86.51
  Q 33.27 86.54 33.40 86.54"
/>
<path stroke="#837854" vector-effect="non-scaling-stroke" d="
  M 51.23 34.05
  A 18.26 18.26 0.0 0 0 32.97 15.79
  A 18.26 18.26 0.0 0 0 14.71 34.05
  A 18.26 18.26 0.0 0 0 32.97 52.31
  A 18.26 18.26 0.0 0 0 51.23 34.05"
/>
<path stroke="#837854" vector-effect="non-scaling-stroke" d="
  M 48.64 33.98
  A 15.67 15.67 0.0 0 0 32.97 18.31
  A 15.67 15.67 0.0 0 0 17.30 33.98
  A 15.67 15.67 0.0 0 0 32.97 49.65
  A 15.67 15.67 0.0 0 0 48.64 33.98"
/>
<path stroke="#837854" vector-effect="non-scaling-stroke" d="
  M 44.88 34.00
  A 11.91 11.91 0.0 0 0 32.97 22.09
  A 11.91 11.91 0.0 0 0 21.06 34.00
  A 11.91 11.91 0.0 0 0 32.97 45.91
  A 11.91 11.91 0.0 0 0 44.88 34.00"
/>
<path stroke="#837854" vector-effect="non-scaling-stroke" d="
  M 41.89 33.98
  A 8.92 8.92 0.0 0 0 32.97 25.06
  A 8.92 8.92 0.0 0 0 24.05 33.98
  A 8.92 8.92 0.0 0 0 32.97 42.90
  A 8.92 8.92 0.0 0 0 41.89 33.98"
/>
<path stroke="#837854" vector-effect="non-scaling-stroke" d="
  M 40.24 34.04
  A 7.27 7.27 0.0 0 0 32.97 26.77
  A 7.27 7.27 0.0 0 0 25.70 34.04
  A 7.27 7.27 0.0 0 0 32.97 41.31
  A 7.27 7.27 0.0 0 0 40.24 34.04"
/>
<path stroke="#837854" vector-effect="non-scaling-stroke" d="
  M 38.46 33.99
  A 5.48 5.48 0.0 0 0 32.98 28.51
  A 5.48 5.48 0.0 0 0 27.50 33.99
  A 5.48 5.48 0.0 0 0 32.98 39.47
  A 5.48 5.48 0.0 0 0 38.46 33.99"
/>
<path stroke="#837854" vector-effect="non-scaling-stroke" d="
  M 37.55 34.00
  A 4.56 4.56 0.0 0 0 32.99 29.44
  A 4.56 4.56 0.0 0 0 28.43 34.00
  A 4.56 4.56 0.0 0 0 32.99 38.56
  A 4.56 4.56 0.0 0 0 37.55 34.00"
/>
</g>
<path fill="#1c1e17" d="
  M 33.79 88.00
  L 33.04 88.00
  C 22.05 78.02 11.69 65.34 5.65 51.56
  Q 2.12 43.51 1.56 34.89
  C 0.31 15.88 16.24 0.26 35.42 1.38
  C 52.64 2.39 66.03 16.68 65.44 33.90
  Q 65.17 41.69 62.41 48.85
  C 56.68 63.71 45.52 77.36 33.79 88.00
  Z
  M 33.40 86.54
  Q 33.52 86.54 33.62 86.51
  Q 33.67 86.50 33.79 86.39
  Q 48.61 72.70 57.69 56.23
  C 63.06 46.50 66.53 33.19 62.54 22.77
  Q 57.61 9.92 45.01 4.79
  Q 39.44 2.52 33.51 2.52
  Q 27.59 2.51 22.02 4.76
  Q 9.40 9.85 4.43 22.69
  C 0.41 33.10 3.85 46.42 9.19 56.16
  Q 18.22 72.66 33.00 86.39
  Q 33.12 86.50 33.17 86.51
  Q 33.27 86.54 33.40 86.54
  Z"
/>
<path fill="#34362c" d="
  M 33.51 2.52
  Q 39.44 2.52 45.01 4.79
  Q 57.61 9.92 62.54 22.77
  C 66.53 33.19 63.06 46.50 57.69 56.23
  Q 48.61 72.70 33.79 86.39
  Q 33.67 86.50 33.62 86.51
  Q 33.52 86.54 33.40 86.54
  Q 33.27 86.54 33.17 86.51
  Q 33.12 86.50 33.00 86.39
  Q 18.22 72.66 9.19 56.16
  C 3.85 46.42 0.41 33.10 4.43 22.69
  Q 9.40 9.85 22.02 4.76
  Q 27.59 2.51 33.51 2.52
  Z
  M 51.23 34.05
  A 18.26 18.26 0.0 0 0 32.97 15.79
  A 18.26 18.26 0.0 0 0 14.71 34.05
  A 18.26 18.26 0.0 0 0 32.97 52.31
  A 18.26 18.26 0.0 0 0 51.23 34.05
  Z"
/>
<path fill="#d2b97c" d="
  M 51.23 34.05
  A 18.26 18.26 0.0 0 1 32.97 52.31
  A 18.26 18.26 0.0 0 1 14.71 34.05
  A 18.26 18.26 0.0 0 1 32.97 15.79
  A 18.26 18.26 0.0 0 1 51.23 34.05
  Z
  M 48.64 33.98
  A 15.67 15.67 0.0 0 0 32.97 18.31
  A 15.67 15.67 0.0 0 0 17.30 33.98
  A 15.67 15.67 0.0 0 0 32.97 49.65
  A 15.67 15.67 0.0 0 0 48.64 33.98
  Z"
/>
<path fill="#34362c" d="
  M 48.64 33.98
  A 15.67 15.67 0.0 0 1 32.97 49.65
  A 15.67 15.67 0.0 0 1 17.30 33.98
  A 15.67 15.67 0.0 0 1 32.97 18.31
  A 15.67 15.67 0.0 0 1 48.64 33.98
  Z
  M 44.88 34.00
  A 11.91 11.91 0.0 0 0 32.97 22.09
  A 11.91 11.91 0.0 0 0 21.06 34.00
  A 11.91 11.91 0.0 0 0 32.97 45.91
  A 11.91 11.91 0.0 0 0 44.88 34.00
  Z"
/>
<path fill="#d2b97c" d="
  M 44.88 34.00
  A 11.91 11.91 0.0 0 1 32.97 45.91
  A 11.91 11.91 0.0 0 1 21.06 34.00
  A 11.91 11.91 0.0 0 1 32.97 22.09
  A 11.91 11.91 0.0 0 1 44.88 34.00
  Z
  M 41.89 33.98
  A 8.92 8.92 0.0 0 0 32.97 25.06
  A 8.92 8.92 0.0 0 0 24.05 33.98
  A 8.92 8.92 0.0 0 0 32.97 42.90
  A 8.92 8.92 0.0 0 0 41.89 33.98
  Z"
/>
<path fill="#34362c" d="
  M 41.89 33.98
  A 8.92 8.92 0.0 0 1 32.97 42.90
  A 8.92 8.92 0.0 0 1 24.05 33.98
  A 8.92 8.92 0.0 0 1 32.97 25.06
  A 8.92 8.92 0.0 0 1 41.89 33.98
  Z
  M 40.24 34.04
  A 7.27 7.27 0.0 0 0 32.97 26.77
  A 7.27 7.27 0.0 0 0 25.70 34.04
  A 7.27 7.27 0.0 0 0 32.97 41.31
  A 7.27 7.27 0.0 0 0 40.24 34.04
  Z"
/>
<path fill="#d2b97c" d="
  M 40.24 34.04
  A 7.27 7.27 0.0 0 1 32.97 41.31
  A 7.27 7.27 0.0 0 1 25.70 34.04
  A 7.27 7.27 0.0 0 1 32.97 26.77
  A 7.27 7.27 0.0 0 1 40.24 34.04
  Z
  M 38.46 33.99
  A 5.48 5.48 0.0 0 0 32.98 28.51
  A 5.48 5.48 0.0 0 0 27.50 33.99
  A 5.48 5.48 0.0 0 0 32.98 39.47
  A 5.48 5.48 0.0 0 0 38.46 33.99
  Z"
/>
<path fill="#34362c" d="
  M 38.46 33.99
  A 5.48 5.48 0.0 0 1 32.98 39.47
  A 5.48 5.48 0.0 0 1 27.50 33.99
  A 5.48 5.48 0.0 0 1 32.98 28.51
  A 5.48 5.48 0.0 0 1 38.46 33.99
  Z
  M 37.55 34.00
  A 4.56 4.56 0.0 0 0 32.99 29.44
  A 4.56 4.56 0.0 0 0 28.43 34.00
  A 4.56 4.56 0.0 0 0 32.99 38.56
  A 4.56 4.56 0.0 0 0 37.55 34.00
  Z"
/>
<circle fill="#d2b97c" cx="32.99" cy="34.00" r="4.56"/>
</svg>
