<?xml version="1.0" encoding="UTF-8" standalone="no"?>
<!DOCTYPE svg PUBLIC "-//W3C//DTD SVG 1.1//EN" "http://www.w3.org/Graphics/SVG/1.1/DTD/svg11.dtd">
<svg xmlns="http://www.w3.org/2000/svg" version="1.1" viewBox="0.00 0.00 66.00 88.00">
<g stroke-width="2.00" fill="none" stroke-linecap="butt">
<path stroke="#2b4c38" vector-effect="non-scaling-stroke" d="
  M 33.42 86.64
  Q 33.47 86.64 33.52 86.64
  A 0.26 0.08 -47.5 0 0 33.68 86.55
  Q 48.34 73.23 57.55 56.51
  Q 62.79 46.99 63.89 38.22
  Q 66.51 17.26 48.75 6.53
  Q 42.13 2.53 33.53 2.52
  Q 24.93 2.51 18.30 6.48
  Q 0.51 17.17 3.08 38.14
  Q 4.15 46.91 9.37 56.45
  Q 18.53 73.19 33.16 86.55
  A 0.26 0.08 47.6 0 0 33.32 86.64
  Q 33.36 86.64 33.42 86.64"
/>
<path stroke="#9cb1a5" vector-effect="non-scaling-stroke" d="
  M 38.52 21.30
  Q 39.02 21.29 39.13 21.27
  A 0.49 0.49 0.0 0 0 39.53 20.68
  Q 38.76 17.31 38.53 17.31
  Q 38.21 17.32 37.53 20.71
  A 0.49 0.49 0.0 0 0 37.95 21.29
  Q 38.06 21.30 38.52 21.30"
/>
<path stroke="#9cb1a5" vector-effect="non-scaling-stroke" d="
  M 34.60 32.40
  Q 36.93 34.74 40.56 33.69
  A 1.14 1.12 51.3 0 1 41.44 33.80
  L 46.46 36.70
  A 0.19 0.18 89.6 0 0 46.71 36.44
  L 43.82 31.43
  A 1.35 1.33 -51.7 0 1 43.70 30.35
  Q 44.20 28.73 43.72 26.81
  A 1.81 1.80 53.2 0 1 43.91 25.43
  Q 46.90 20.40 46.77 20.28
  Q 46.64 20.15 41.60 23.11
  A 1.81 1.80 37.0 0 1 40.22 23.30
  Q 38.31 22.81 36.68 23.31
  A 1.35 1.33 -38.1 0 1 35.60 23.18
  L 30.61 20.28
  A 0.19 0.18 0.6 0 0 30.34 20.52
  L 33.23 25.55
  A 1.14 1.12 38.9 0 1 33.33 26.43
  Q 32.27 30.06 34.60 32.40"
/>
<path stroke="#9cb1a5" vector-effect="non-scaling-stroke" d="
  M 31.45 28.52
  Q 31.45 28.00 31.43 27.89
  A 0.50 0.50 0.0 0 0 30.83 27.47
  Q 27.37 28.23 27.37 28.47
  Q 27.37 28.79 30.84 29.52
  A 0.50 0.50 0.0 0 0 31.44 29.10
  Q 31.45 28.99 31.45 28.52"
/>
<path stroke="#9cb1a5" vector-effect="non-scaling-stroke" d="
  M 45.64 28.47
  Q 45.63 28.99 45.65 29.10
  A 0.50 0.50 0.0 0 0 46.25 29.52
  Q 49.71 28.80 49.71 28.56
  Q 49.71 28.24 46.26 27.48
  A 0.50 0.50 0.0 0 0 45.65 27.90
  Q 45.64 28.01 45.64 28.47"
/>
<path stroke="#9cb1a5" vector-effect="non-scaling-stroke" d="
  M 17.79 49.25
  Q 19.26 50.71 19.65 51.02
  A 0.65 0.65 0.0 0 0 20.51 50.96
  L 27.42 44.05
  A 0.91 0.91 0.0 0 0 27.56 42.94
  L 27.36 42.61
  A 0.69 0.67 -38.2 0 1 27.47 41.78
  L 34.27 34.98
  A 0.58 0.58 0.0 0 0 34.24 34.13
  Q 33.85 33.80 33.53 33.47
  Q 33.20 33.15 32.86 32.76
  A 0.58 0.58 0.0 0 0 32.02 32.73
  L 25.24 39.55
  A 0.69 0.67 -52.0 0 1 24.41 39.67
  L 24.08 39.47
  A 0.91 0.91 0.0 0 0 22.97 39.61
  L 16.08 46.54
  A 0.65 0.65 0.0 0 0 16.02 47.40
  Q 16.33 47.79 17.79 49.25"
/>
<path stroke="#9cb1a5" vector-effect="non-scaling-stroke" d="
  M 38.49 35.49
  Q 38.00 35.49 37.89 35.51
  A 0.53 0.52 79.9 0 0 37.45 36.13
  Q 38.24 39.74 38.57 39.74
  Q 38.82 39.74 39.58 36.13
  A 0.53 0.52 -80.3 0 0 39.14 35.50
  Q 39.03 35.49 38.49 35.49"
/>
</g>
<path fill="#1c3425" d="
  M 33.79 88.00
  L 33.04 88.00
  C 21.72 77.72 12.19 65.74 5.68 51.55
  Q 2.14 43.83 1.58 34.90
  C 0.29 14.38 18.33 -1.39 38.76 1.77
  C 51.83 3.79 62.11 13.78 64.85 26.52
  C 67.22 37.50 63.08 49.83 56.93 59.98
  Q 47.47 75.60 33.79 88.00
  Z
  M 33.42 86.64
  Q 33.47 86.64 33.52 86.64
  A 0.26 0.08 -47.5 0 0 33.68 86.55
  Q 48.34 73.23 57.55 56.51
  Q 62.79 46.99 63.89 38.22
  Q 66.51 17.26 48.75 6.53
  Q 42.13 2.53 33.53 2.52
  Q 24.93 2.51 18.30 6.48
  Q 0.51 17.17 3.08 38.14
  Q 4.15 46.91 9.37 56.45
  Q 18.53 73.19 33.16 86.55
  A 0.26 0.08 47.6 0 0 33.32 86.64
  Q 33.36 86.64 33.42 86.64
  Z"
/>
<path fill="#39634a" d="
  M 33.53 2.52
  Q 42.13 2.53 48.75 6.53
  Q 66.51 17.26 63.89 38.22
  Q 62.79 46.99 57.55 56.51
  Q 48.34 73.23 33.68 86.55
  A 0.26 0.08 -47.5 0 1 33.52 86.64
  Q 33.47 86.64 33.42 86.64
  Q 33.36 86.64 33.32 86.64
  A 0.26 0.08 47.6 0 1 33.16 86.55
  Q 18.53 73.19 9.37 56.45
  Q 4.15 46.91 3.08 38.14
  Q 0.51 17.17 18.30 6.48
  Q 24.93 2.51 33.53 2.52
  Z
  M 38.52 21.30
  Q 39.02 21.29 39.13 21.27
  A 0.49 0.49 0.0 0 0 39.53 20.68
  Q 38.76 17.31 38.53 17.31
  Q 38.21 17.32 37.53 20.71
  A 0.49 0.49 0.0 0 0 37.95 21.29
  Q 38.06 21.30 38.52 21.30
  Z
  M 34.60 32.40
  Q 36.93 34.74 40.56 33.69
  A 1.14 1.12 51.3 0 1 41.44 33.80
  L 46.46 36.70
  A 0.19 0.18 89.6 0 0 46.71 36.44
  L 43.82 31.43
  A 1.35 1.33 -51.7 0 1 43.70 30.35
  Q 44.20 28.73 43.72 26.81
  A 1.81 1.80 53.2 0 1 43.91 25.43
  Q 46.90 20.40 46.77 20.28
  Q 46.64 20.15 41.60 23.11
  A 1.81 1.80 37.0 0 1 40.22 23.30
  Q 38.31 22.81 36.68 23.31
  A 1.35 1.33 -38.1 0 1 35.60 23.18
  L 30.61 20.28
  A 0.19 0.18 0.6 0 0 30.34 20.52
  L 33.23 25.55
  A 1.14 1.12 38.9 0 1 33.33 26.43
  Q 32.27 30.06 34.60 32.40
  Z
  M 31.45 28.52
  Q 31.45 28.00 31.43 27.89
  A 0.50 0.50 0.0 0 0 30.83 27.47
  Q 27.37 28.23 27.37 28.47
  Q 27.37 28.79 30.84 29.52
  A 0.50 0.50 0.0 0 0 31.44 29.10
  Q 31.45 28.99 31.45 28.52
  Z
  M 45.64 28.47
  Q 45.63 28.99 45.65 29.10
  A 0.50 0.50 0.0 0 0 46.25 29.52
  Q 49.71 28.80 49.71 28.56
  Q 49.71 28.24 46.26 27.48
  A 0.50 0.50 0.0 0 0 45.65 27.90
  Q 45.64 28.01 45.64 28.47
  Z
  M 17.79 49.25
  Q 19.26 50.71 19.65 51.02
  A 0.65 0.65 0.0 0 0 20.51 50.96
  L 27.42 44.05
  A 0.91 0.91 0.0 0 0 27.56 42.94
  L 27.36 42.61
  A 0.69 0.67 -38.2 0 1 27.47 41.78
  L 34.27 34.98
  A 0.58 0.58 0.0 0 0 34.24 34.13
  Q 33.85 33.80 33.53 33.47
  Q 33.20 33.15 32.86 32.76
  A 0.58 0.58 0.0 0 0 32.02 32.73
  L 25.24 39.55
  A 0.69 0.67 -52.0 0 1 24.41 39.67
  L 24.08 39.47
  A 0.91 0.91 0.0 0 0 22.97 39.61
  L 16.08 46.54
  A 0.65 0.65 0.0 0 0 16.02 47.40
  Q 16.33 47.79 17.79 49.25
  Z
  M 38.49 35.49
  Q 38.00 35.49 37.89 35.51
  A 0.53 0.52 79.9 0 0 37.45 36.13
  Q 38.24 39.74 38.57 39.74
  Q 38.82 39.74 39.58 36.13
  A 0.53 0.52 -80.3 0 0 39.14 35.50
  Q 39.03 35.49 38.49 35.49
  Z"
/>
<path fill="#ffffff" d="
  M 38.52 21.30
  Q 38.06 21.30 37.95 21.29
  A 0.49 0.49 0.0 0 1 37.53 20.71
  Q 38.21 17.32 38.53 17.31
  Q 38.76 17.31 39.53 20.68
  A 0.49 0.49 0.0 0 1 39.13 21.27
  Q 39.02 21.29 38.52 21.30
  Z"
/>
<path fill="#ffffff" d="
  M 46.77 20.28
  Q 46.90 20.40 43.91 25.43
  A 1.81 1.80 53.2 0 0 43.72 26.81
  Q 44.20 28.73 43.70 30.35
  A 1.35 1.33 -51.7 0 0 43.82 31.43
  L 46.71 36.44
  A 0.19 0.18 89.6 0 1 46.46 36.70
  L 41.44 33.80
  A 1.14 1.12 51.3 0 0 40.56 33.69
  Q 36.93 34.74 34.60 32.40
  Q 32.27 30.06 33.33 26.43
  A 1.14 1.12 38.9 0 0 33.23 25.55
  L 30.34 20.52
  A 0.19 0.18 0.6 0 1 30.61 20.28
  L 35.60 23.18
  A 1.35 1.33 -38.1 0 0 36.68 23.31
  Q 38.31 22.81 40.22 23.30
  A 1.81 1.80 37.0 0 0 41.60 23.11
  Q 46.64 20.15 46.77 20.28
  Z"
/>
<path fill="#ffffff" d="
  M 31.45 28.52
  Q 31.45 28.99 31.44 29.10
  A 0.50 0.50 0.0 0 1 30.84 29.52
  Q 27.37 28.79 27.37 28.47
  Q 27.37 28.23 30.83 27.47
  A 0.50 0.50 0.0 0 1 31.43 27.89
  Q 31.45 28.00 31.45 28.52
  Z"
/>
<path fill="#ffffff" d="
  M 49.71 28.56
  Q 49.71 28.80 46.25 29.52
  A 0.50 0.50 0.0 0 1 45.65 29.10
  Q 45.63 28.99 45.64 28.47
  Q 45.64 28.01 45.65 27.90
  A 0.50 0.50 0.0 0 1 46.26 27.48
  Q 49.71 28.24 49.71 28.56
  Z"
/>
<path fill="#ffffff" d="
  M 33.53 33.47
  Q 33.85 33.80 34.24 34.13
  A 0.58 0.58 0.0 0 1 34.27 34.98
  L 27.47 41.78
  A 0.69 0.67 -38.2 0 0 27.36 42.61
  L 27.56 42.94
  A 0.91 0.91 0.0 0 1 27.42 44.05
  L 20.51 50.96
  A 0.65 0.65 0.0 0 1 19.65 51.02
  Q 19.26 50.71 17.79 49.25
  Q 16.33 47.79 16.02 47.40
  A 0.65 0.65 0.0 0 1 16.08 46.54
  L 22.97 39.61
  A 0.91 0.91 0.0 0 1 24.08 39.47
  L 24.41 39.67
  A 0.69 0.67 -52.0 0 0 25.24 39.55
  L 32.02 32.73
  A 0.58 0.58 0.0 0 1 32.86 32.76
  Q 33.20 33.15 33.53 33.47
  Z"
/>
<path fill="#ffffff" d="
  M 38.49 35.49
  Q 39.03 35.49 39.14 35.50
  A 0.53 0.52 -80.3 0 1 39.58 36.13
  Q 38.82 39.74 38.57 39.74
  Q 38.24 39.74 37.45 36.13
  A 0.53 0.52 79.9 0 1 37.89 35.51
  Q 38.00 35.49 38.49 35.49
  Z"
/>
</svg>
