<?xml version="1.0" encoding="UTF-8" standalone="no"?>
<!DOCTYPE svg PUBLIC "-//W3C//DTD SVG 1.1//EN" "http://www.w3.org/Graphics/SVG/1.1/DTD/svg11.dtd">
<svg xmlns="http://www.w3.org/2000/svg" version="1.1" viewBox="0.00 0.00 66.00 88.00">
<g stroke-width="2.00" fill="none" stroke-linecap="butt">
<path stroke="#173f51" vector-effect="non-scaling-stroke" d="
  M 33.41 86.61
  C 33.60 86.61 33.70 86.61 33.81 86.50
  Q 49.49 71.42 57.29 57.04
  Q 62.82 46.84 63.88 38.04
  Q 66.54 15.83 46.58 5.38
  Q 41.25 2.58 33.51 2.57
  Q 25.78 2.56 20.44 5.35
  Q 0.45 15.75 3.06 37.97
  Q 4.10 46.77 9.61 56.98
  Q 17.37 71.38 33.02 86.50
  C 33.13 86.60 33.23 86.61 33.41 86.61"
/>
<path stroke="#8fa9b5" vector-effect="non-scaling-stroke" d="
  M 37.06 16.92
  A 0.43 0.43 0.0 0 0 36.63 16.49
  L 28.27 16.49
  A 0.43 0.43 0.0 0 0 27.84 16.92
  L 27.84 19.60
  A 0.43 0.43 0.0 0 0 28.27 20.03
  L 36.63 20.03
  A 0.43 0.43 0.0 0 0 37.06 19.60
  L 37.06 16.92"
/>
<path stroke="#8fa9b5" vector-effect="non-scaling-stroke" d="
  M 38.74 22.62
  A 0.31 0.31 0.0 0 0 38.48 22.48
  L 26.76 22.48
  A 0.31 0.31 0.0 0 0 26.50 22.62
  L 21.74 29.73
  A 0.31 0.31 0.0 0 0 22.00 30.21
  L 43.18 30.21
  A 0.31 0.31 0.0 0 0 43.44 29.73
  L 38.74 22.62"
/>
<path stroke="#8fa9b5" vector-effect="non-scaling-stroke" d="
  M 44.05 32.05
  A 0.41 0.41 0.0 0 0 43.67 31.48
  L 21.67 31.48
  A 0.41 0.41 0.0 0 0 21.29 32.04
  L 26.48 44.76
  A 0.41 0.41 0.0 0 0 26.86 45.02
  L 38.40 45.02
  A 0.41 0.41 0.0 0 0 38.77 44.77
  L 44.05 32.05"
/>
<path stroke="#8fa9b5" vector-effect="non-scaling-stroke" d="
  M 39.63 47.84
  A 0.35 0.35 0.0 0 0 39.28 47.49
  L 26.12 47.49
  A 0.35 0.35 0.0 0 0 25.77 47.84
  L 25.77 51.14
  A 0.35 0.35 0.0 0 0 26.12 51.49
  L 39.28 51.49
  A 0.35 0.35 0.0 0 0 39.63 51.14
  L 39.63 47.84"
/>
</g>
<path fill="#0e2b37" d="
  M 33.81 88.00
  L 33.04 88.00
  C 21.75 77.74 12.13 65.68 5.65 51.56
  Q 2.20 44.05 1.60 34.89
  C 0.54 18.88 11.35 5.50 26.72 2.05
  C 41.45 -1.26 56.67 6.37 62.97 20.58
  C 66.64 28.86 65.92 38.66 63.04 47.01
  C 57.66 62.61 45.94 76.92 33.81 88.00
  Z
  M 33.41 86.61
  C 33.60 86.61 33.70 86.61 33.81 86.50
  Q 49.49 71.42 57.29 57.04
  Q 62.82 46.84 63.88 38.04
  Q 66.54 15.83 46.58 5.38
  Q 41.25 2.58 33.51 2.57
  Q 25.78 2.56 20.44 5.35
  Q 0.45 15.75 3.06 37.97
  Q 4.10 46.77 9.61 56.98
  Q 17.37 71.38 33.02 86.50
  C 33.13 86.60 33.23 86.61 33.41 86.61
  Z"
/>
<path fill="#1f526b" d="
  M 33.51 2.57
  Q 41.25 2.58 46.58 5.38
  Q 66.54 15.83 63.88 38.04
  Q 62.82 46.84 57.29 57.04
  Q 49.49 71.42 33.81 86.50
  C 33.70 86.61 33.60 86.61 33.41 86.61
  C 33.23 86.61 33.13 86.60 33.02 86.50
  Q 17.37 71.38 9.61 56.98
  Q 4.10 46.77 3.06 37.97
  Q 0.45 15.75 20.44 5.35
  Q 25.78 2.56 33.51 2.57
  Z
  M 37.06 16.92
  A 0.43 0.43 0.0 0 0 36.63 16.49
  L 28.27 16.49
  A 0.43 0.43 0.0 0 0 27.84 16.92
  L 27.84 19.60
  A 0.43 0.43 0.0 0 0 28.27 20.03
  L 36.63 20.03
  A 0.43 0.43 0.0 0 0 37.06 19.60
  L 37.06 16.92
  Z
  M 38.74 22.62
  A 0.31 0.31 0.0 0 0 38.48 22.48
  L 26.76 22.48
  A 0.31 0.31 0.0 0 0 26.50 22.62
  L 21.74 29.73
  A 0.31 0.31 0.0 0 0 22.00 30.21
  L 43.18 30.21
  A 0.31 0.31 0.0 0 0 43.44 29.73
  L 38.74 22.62
  Z
  M 44.05 32.05
  A 0.41 0.41 0.0 0 0 43.67 31.48
  L 21.67 31.48
  A 0.41 0.41 0.0 0 0 21.29 32.04
  L 26.48 44.76
  A 0.41 0.41 0.0 0 0 26.86 45.02
  L 38.40 45.02
  A 0.41 0.41 0.0 0 0 38.77 44.77
  L 44.05 32.05
  Z
  M 39.63 47.84
  A 0.35 0.35 0.0 0 0 39.28 47.49
  L 26.12 47.49
  A 0.35 0.35 0.0 0 0 25.77 47.84
  L 25.77 51.14
  A 0.35 0.35 0.0 0 0 26.12 51.49
  L 39.28 51.49
  A 0.35 0.35 0.0 0 0 39.63 51.14
  L 39.63 47.84
  Z"
/>
<rect fill="#ffffff" x="27.84" y="16.49" width="9.22" height="3.54" rx="0.43"/>
<path fill="#ffffff" d="
  M 38.74 22.62
  L 43.44 29.73
  A 0.31 0.31 0.0 0 1 43.18 30.21
  L 22.00 30.21
  A 0.31 0.31 0.0 0 1 21.74 29.73
  L 26.50 22.62
  A 0.31 0.31 0.0 0 1 26.76 22.48
  L 38.48 22.48
  A 0.31 0.31 0.0 0 1 38.74 22.62
  Z"
/>
<path fill="#ffffff" d="
  M 44.05 32.05
  L 38.77 44.77
  A 0.41 0.41 0.0 0 1 38.40 45.02
  L 26.86 45.02
  A 0.41 0.41 0.0 0 1 26.48 44.76
  L 21.29 32.04
  A 0.41 0.41 0.0 0 1 21.67 31.48
  L 43.67 31.48
  A 0.41 0.41 0.0 0 1 44.05 32.05
  Z"
/>
<rect fill="#ffffff" x="25.77" y="47.49" width="13.86" height="4.00" rx="0.35"/>
</svg>
