<?xml version="1.0" encoding="UTF-8" standalone="no"?>
<!DOCTYPE svg PUBLIC "-//W3C//DTD SVG 1.1//EN" "http://www.w3.org/Graphics/SVG/1.1/DTD/svg11.dtd">
<svg xmlns="http://www.w3.org/2000/svg" version="1.1" viewBox="0.00 0.00 66.00 88.00">
<g stroke-width="2.00" fill="none" stroke-linecap="butt">
<path stroke="#292a22" vector-effect="non-scaling-stroke" d="
  M 33.38 86.56
  Q 33.50 86.56 34.03 86.08
  Q 48.71 72.63 57.69 56.25
  C 62.78 46.97 66.17 34.68 63.10 24.47
  C 59.15 11.36 47.14 2.67 33.55 2.64
  C 19.96 2.61 7.91 11.26 3.91 24.36
  C 0.80 34.55 4.14 46.85 9.19 56.15
  Q 18.11 72.57 32.73 86.07
  Q 33.26 86.56 33.38 86.56"
/>
<path stroke="#9a9b96" vector-effect="non-scaling-stroke" d="
  M 17.95 22.97
  L 20.92 22.97
  A 0.90 0.89 77.5 0 1 21.73 23.49
  L 22.36 24.87
  A 1.73 1.69 3.4 0 0 23.03 25.61
  Q 24.10 26.22 26.96 25.82
  A 1.44 1.44 0.0 0 1 28.61 27.25
  Q 28.61 30.41 29.57 36.22
  Q 29.85 37.93 29.58 45.00
  A 1.06 1.02 -16.9 0 1 29.13 45.81
  Q 26.02 47.93 26.66 51.72
  A 0.64 0.64 0.0 0 0 27.29 52.25
  L 38.90 52.25
  A 0.56 0.56 0.0 0 0 39.46 51.69
  L 39.46 48.35
  A 1.04 1.03 17.5 0 0 39.01 47.50
  Q 36.34 45.69 36.87 41.79
  Q 37.84 34.61 37.35 26.73
  A 0.93 0.92 -1.7 0 1 38.28 25.75
  L 41.81 25.75
  A 0.98 0.97 15.0 0 0 42.65 25.27
  L 43.83 23.23
  A 1.34 1.33 9.2 0 1 44.72 22.59
  L 47.26 22.06
  A 0.48 0.48 0.0 0 0 47.40 21.17
  L 47.09 20.99
  A 1.96 1.94 51.4 0 0 45.56 20.81
  Q 40.37 22.35 34.95 20.78
  A 0.82 0.82 0.0 0 1 34.35 19.99
  L 34.35 16.84
  A 1.12 1.12 0.0 0 0 33.64 15.80
  Q 31.11 14.82 31.08 19.97
  A 0.75 0.75 0.0 0 1 30.54 20.69
  Q 26.15 21.90 22.85 22.19
  C 20.90 22.35 20.13 20.66 17.74 22.33
  A 0.36 0.35 27.2 0 0 17.95 22.97"
/>
</g>
<path fill="#1d1e18" d="
  M 33.79 88.00
  L 33.04 88.00
  C 21.76 77.75 12.11 65.67 5.64 51.56
  Q 2.20 44.07 1.59 34.89
  C 0.53 18.89 11.36 5.50 26.73 2.05
  C 41.21 -1.21 56.13 6.10 62.69 19.94
  C 66.94 28.90 65.90 40.01 62.33 49.06
  C 56.49 63.88 45.54 77.35 33.79 88.00
  Z
  M 33.38 86.56
  Q 33.50 86.56 34.03 86.08
  Q 48.71 72.63 57.69 56.25
  C 62.78 46.97 66.17 34.68 63.10 24.47
  C 59.15 11.36 47.14 2.67 33.55 2.64
  C 19.96 2.61 7.91 11.26 3.91 24.36
  C 0.80 34.55 4.14 46.85 9.19 56.15
  Q 18.11 72.57 32.73 86.07
  Q 33.26 86.56 33.38 86.56
  Z"
/>
<path fill="#34362c" d="
  M 33.55 2.64
  C 47.14 2.67 59.15 11.36 63.10 24.47
  C 66.17 34.68 62.78 46.97 57.69 56.25
  Q 48.71 72.63 34.03 86.08
  Q 33.50 86.56 33.38 86.56
  Q 33.26 86.56 32.73 86.07
  Q 18.11 72.57 9.19 56.15
  C 4.14 46.85 0.80 34.55 3.91 24.36
  C 7.91 11.26 19.96 2.61 33.55 2.64
  Z
  M 17.95 22.97
  L 20.92 22.97
  A 0.90 0.89 77.5 0 1 21.73 23.49
  L 22.36 24.87
  A 1.73 1.69 3.4 0 0 23.03 25.61
  Q 24.10 26.22 26.96 25.82
  A 1.44 1.44 0.0 0 1 28.61 27.25
  Q 28.61 30.41 29.57 36.22
  Q 29.85 37.93 29.58 45.00
  A 1.06 1.02 -16.9 0 1 29.13 45.81
  Q 26.02 47.93 26.66 51.72
  A 0.64 0.64 0.0 0 0 27.29 52.25
  L 38.90 52.25
  A 0.56 0.56 0.0 0 0 39.46 51.69
  L 39.46 48.35
  A 1.04 1.03 17.5 0 0 39.01 47.50
  Q 36.34 45.69 36.87 41.79
  Q 37.84 34.61 37.35 26.73
  A 0.93 0.92 -1.7 0 1 38.28 25.75
  L 41.81 25.75
  A 0.98 0.97 15.0 0 0 42.65 25.27
  L 43.83 23.23
  A 1.34 1.33 9.2 0 1 44.72 22.59
  L 47.26 22.06
  A 0.48 0.48 0.0 0 0 47.40 21.17
  L 47.09 20.99
  A 1.96 1.94 51.4 0 0 45.56 20.81
  Q 40.37 22.35 34.95 20.78
  A 0.82 0.82 0.0 0 1 34.35 19.99
  L 34.35 16.84
  A 1.12 1.12 0.0 0 0 33.64 15.80
  Q 31.11 14.82 31.08 19.97
  A 0.75 0.75 0.0 0 1 30.54 20.69
  Q 26.15 21.90 22.85 22.19
  C 20.90 22.35 20.13 20.66 17.74 22.33
  A 0.36 0.35 27.2 0 0 17.95 22.97
  Z"
/>
<path fill="#ffffff" d="
  M 17.74 22.33
  C 20.13 20.66 20.90 22.35 22.85 22.19
  Q 26.15 21.90 30.54 20.69
  A 0.75 0.75 0.0 0 0 31.08 19.97
  Q 31.11 14.82 33.64 15.80
  A 1.12 1.12 0.0 0 1 34.35 16.84
  L 34.35 19.99
  A 0.82 0.82 0.0 0 0 34.95 20.78
  Q 40.37 22.35 45.56 20.81
  A 1.96 1.94 51.4 0 1 47.09 20.99
  L 47.40 21.17
  A 0.48 0.48 0.0 0 1 47.26 22.06
  L 44.72 22.59
  A 1.34 1.33 9.2 0 0 43.83 23.23
  L 42.65 25.27
  A 0.98 0.97 15.0 0 1 41.81 25.75
  L 38.28 25.75
  A 0.93 0.92 -1.7 0 0 37.35 26.73
  Q 37.84 34.61 36.87 41.79
  Q 36.34 45.69 39.01 47.50
  A 1.04 1.03 17.5 0 1 39.46 48.35
  L 39.46 51.69
  A 0.56 0.56 0.0 0 1 38.90 52.25
  L 27.29 52.25
  A 0.64 0.64 0.0 0 1 26.66 51.72
  Q 26.02 47.93 29.13 45.81
  A 1.06 1.02 -16.9 0 0 29.58 45.00
  Q 29.85 37.93 29.57 36.22
  Q 28.61 30.41 28.61 27.25
  A 1.44 1.44 0.0 0 0 26.96 25.82
  Q 24.10 26.22 23.03 25.61
  A 1.73 1.69 3.4 0 1 22.36 24.87
  L 21.73 23.49
  A 0.90 0.89 77.5 0 0 20.92 22.97
  L 17.95 22.97
  A 0.36 0.35 27.2 0 1 17.74 22.33
  Z"
/>
</svg>
