<?xml version="1.0" encoding="UTF-8" standalone="no"?>
<!DOCTYPE svg PUBLIC "-//W3C//DTD SVG 1.1//EN" "http://www.w3.org/Graphics/SVG/1.1/DTD/svg11.dtd">
<svg xmlns="http://www.w3.org/2000/svg" version="1.1" viewBox="0.00 0.00 66.00 88.00">
<g stroke-width="2.00" fill="none" stroke-linecap="butt">
<path stroke="#173f51" vector-effect="non-scaling-stroke" d="
  M 33.43 86.62
  C 33.55 86.62 33.73 86.60 33.83 86.51
  Q 49.97 70.89 57.57 56.54
  Q 62.68 46.88 63.82 38.51
  Q 66.74 17.24 48.23 6.23
  Q 42.05 2.56 33.49 2.56
  Q 24.94 2.55 18.75 6.21
  Q 0.22 17.19 3.11 38.46
  Q 4.24 46.84 9.33 56.50
  Q 16.91 70.86 33.03 86.51
  C 33.13 86.60 33.31 86.61 33.43 86.62"
/>
<path stroke="#8fa9b5" vector-effect="non-scaling-stroke" d="
  M 26.59 34.00
  Q 26.59 51.33 26.61 51.54
  A 0.49 0.49 0.0 0 0 27.30 51.93
  L 39.10 46.62
  A 0.59 0.58 -7.7 0 0 39.44 46.18
  L 40.23 40.79
  A 0.12 0.11 -7.5 0 0 40.07 40.67
  L 32.20 44.21
  A 0.37 0.36 -11.7 0 1 31.69 43.88
  Q 31.70 41.86 31.70 34.00
  Q 31.70 26.14 31.69 24.12
  A 0.37 0.36 11.7 0 1 32.20 23.79
  L 40.07 27.33
  A 0.12 0.11 7.5 0 0 40.23 27.21
  L 39.44 21.82
  A 0.59 0.58 7.7 0 0 39.10 21.38
  L 27.30 16.07
  A 0.49 0.49 0.0 0 0 26.61 16.46
  Q 26.59 16.67 26.59 34.00"
/>
</g>
<path fill="#0e2b37" d="
  M 33.81 88.00
  L 33.04 88.00
  C 21.75 77.74 12.13 65.70 5.66 51.56
  Q 0.20 39.60 2.06 26.55
  Q 2.41 24.09 4.29 19.97
  C 9.32 8.88 19.84 2.16 31.73 1.38
  C 44.86 0.53 57.88 8.34 63.00 20.59
  C 73.09 44.69 50.25 72.99 33.81 88.00
  Z
  M 33.43 86.62
  C 33.55 86.62 33.73 86.60 33.83 86.51
  Q 49.97 70.89 57.57 56.54
  Q 62.68 46.88 63.82 38.51
  Q 66.74 17.24 48.23 6.23
  Q 42.05 2.56 33.49 2.56
  Q 24.94 2.55 18.75 6.21
  Q 0.22 17.19 3.11 38.46
  Q 4.24 46.84 9.33 56.50
  Q 16.91 70.86 33.03 86.51
  C 33.13 86.60 33.31 86.61 33.43 86.62
  Z"
/>
<path fill="#1f526b" d="
  M 33.49 2.56
  Q 42.05 2.56 48.23 6.23
  Q 66.74 17.24 63.82 38.51
  Q 62.68 46.88 57.57 56.54
  Q 49.97 70.89 33.83 86.51
  C 33.73 86.60 33.55 86.62 33.43 86.62
  C 33.31 86.61 33.13 86.60 33.03 86.51
  Q 16.91 70.86 9.33 56.50
  Q 4.24 46.84 3.11 38.46
  Q 0.22 17.19 18.75 6.21
  Q 24.94 2.55 33.49 2.56
  Z
  M 26.59 34.00
  Q 26.59 51.33 26.61 51.54
  A 0.49 0.49 0.0 0 0 27.30 51.93
  L 39.10 46.62
  A 0.59 0.58 -7.7 0 0 39.44 46.18
  L 40.23 40.79
  A 0.12 0.11 -7.5 0 0 40.07 40.67
  L 32.20 44.21
  A 0.37 0.36 -11.7 0 1 31.69 43.88
  Q 31.70 41.86 31.70 34.00
  Q 31.70 26.14 31.69 24.12
  A 0.37 0.36 11.7 0 1 32.20 23.79
  L 40.07 27.33
  A 0.12 0.11 7.5 0 0 40.23 27.21
  L 39.44 21.82
  A 0.59 0.58 7.7 0 0 39.10 21.38
  L 27.30 16.07
  A 0.49 0.49 0.0 0 0 26.61 16.46
  Q 26.59 16.67 26.59 34.00
  Z"
/>
<path fill="#ffffff" d="
  M 31.70 34.00
  Q 31.70 41.86 31.69 43.88
  A 0.37 0.36 -11.7 0 0 32.20 44.21
  L 40.07 40.67
  A 0.12 0.11 -7.5 0 1 40.23 40.79
  L 39.44 46.18
  A 0.59 0.58 -7.7 0 1 39.10 46.62
  L 27.30 51.93
  A 0.49 0.49 0.0 0 1 26.61 51.54
  Q 26.59 51.33 26.59 34.00
  Q 26.59 16.67 26.61 16.46
  A 0.49 0.49 0.0 0 1 27.30 16.07
  L 39.10 21.38
  A 0.59 0.58 7.7 0 1 39.44 21.82
  L 40.23 27.21
  A 0.12 0.11 7.5 0 1 40.07 27.33
  L 32.20 23.79
  A 0.37 0.36 11.7 0 0 31.69 24.12
  Q 31.70 26.14 31.70 34.00
  Z"
/>
</svg>
