<?xml version="1.0" encoding="UTF-8" standalone="no"?>
<!DOCTYPE svg PUBLIC "-//W3C//DTD SVG 1.1//EN" "http://www.w3.org/Graphics/SVG/1.1/DTD/svg11.dtd">
<svg xmlns="http://www.w3.org/2000/svg" version="1.1" viewBox="0.00 0.00 66.00 88.00">
<g stroke-width="2.00" fill="none" stroke-linecap="butt">
<path stroke="#316b60" vector-effect="non-scaling-stroke" d="
  M 33.41 86.71
  Q 33.51 86.71 33.61 86.68
  Q 33.67 86.67 33.76 86.58
  Q 45.42 75.52 53.63 63.17
  C 63.79 47.87 69.94 28.10 56.75 13.01
  Q 48.19 3.23 34.76 2.50
  Q 33.99 2.46 33.53 2.45
  Q 33.07 2.45 32.30 2.49
  Q 18.87 3.19 10.28 12.94
  C -2.96 27.99 3.14 47.78 13.25 63.11
  Q 21.43 75.49 33.05 86.58
  Q 33.14 86.67 33.20 86.68
  Q 33.30 86.71 33.41 86.71"
/>
<path stroke="#a1c6bf" vector-effect="non-scaling-stroke" d="
  M 31.78 24.03
  Q 39.53 25.12 43.01 18.86
  A 1.60 1.60 0.0 0 0 42.01 16.53
  Q 35.62 14.94 29.25 17.35
  A 1.27 1.27 0.0 0 0 28.59 19.17
  L 31.15 23.60
  A 0.91 0.86 77.9 0 0 31.78 24.03"
/>
<path stroke="#a1c6bf" vector-effect="non-scaling-stroke" d="
  M 30.95 29.97
  L 32.70 26.94
  A 0.57 0.57 0.0 0 0 31.84 26.21
  C 27.01 30.13 18.01 39.70 19.45 46.41
  Q 19.98 48.90 21.39 49.64
  Q 31.16 54.77 40.82 50.27
  Q 45.99 47.86 45.95 42.41
  Q 45.93 40.62 43.85 36.00
  Q 41.97 31.82 41.00 29.77
  C 39.99 27.62 36.86 25.30 34.50 26.65
  A 2.17 2.07 -1.4 0 0 33.72 27.43
  Q 32.27 29.90 31.51 30.47
  A 0.38 0.38 0.0 0 1 30.95 29.97"
/>
</g>
<path fill="#1f4940" d="
  M 33.80 88.00
  L 33.04 88.00
  C 22.01 77.98 11.61 65.25 5.59 51.41
  Q 2.11 43.43 1.55 34.82
  C 0.51 18.99 11.09 5.92 26.42 2.10
  C 37.05 -0.55 49.44 3.25 57.00 11.50
  Q 67.86 23.33 64.84 39.76
  Q 62.54 52.31 54.57 64.07
  Q 45.67 77.20 33.80 88.00
  Z
  M 33.41 86.71
  Q 33.51 86.71 33.61 86.68
  Q 33.67 86.67 33.76 86.58
  Q 45.42 75.52 53.63 63.17
  C 63.79 47.87 69.94 28.10 56.75 13.01
  Q 48.19 3.23 34.76 2.50
  Q 33.99 2.46 33.53 2.45
  Q 33.07 2.45 32.30 2.49
  Q 18.87 3.19 10.28 12.94
  C -2.96 27.99 3.14 47.78 13.25 63.11
  Q 21.43 75.49 33.05 86.58
  Q 33.14 86.67 33.20 86.68
  Q 33.30 86.71 33.41 86.71
  Z"
/>
<path fill="#428c7f" d="
  M 33.53 2.45
  Q 33.99 2.46 34.76 2.50
  Q 48.19 3.23 56.75 13.01
  C 69.94 28.10 63.79 47.87 53.63 63.17
  Q 45.42 75.52 33.76 86.58
  Q 33.67 86.67 33.61 86.68
  Q 33.51 86.71 33.41 86.71
  Q 33.30 86.71 33.20 86.68
  Q 33.14 86.67 33.05 86.58
  Q 21.43 75.49 13.25 63.11
  C 3.14 47.78 -2.96 27.99 10.28 12.94
  Q 18.87 3.19 32.30 2.49
  Q 33.07 2.45 33.53 2.45
  Z
  M 31.78 24.03
  Q 39.53 25.12 43.01 18.86
  A 1.60 1.60 0.0 0 0 42.01 16.53
  Q 35.62 14.94 29.25 17.35
  A 1.27 1.27 0.0 0 0 28.59 19.17
  L 31.15 23.60
  A 0.91 0.86 77.9 0 0 31.78 24.03
  Z
  M 30.95 29.97
  L 32.70 26.94
  A 0.57 0.57 0.0 0 0 31.84 26.21
  C 27.01 30.13 18.01 39.70 19.45 46.41
  Q 19.98 48.90 21.39 49.64
  Q 31.16 54.77 40.82 50.27
  Q 45.99 47.86 45.95 42.41
  Q 45.93 40.62 43.85 36.00
  Q 41.97 31.82 41.00 29.77
  C 39.99 27.62 36.86 25.30 34.50 26.65
  A 2.17 2.07 -1.4 0 0 33.72 27.43
  Q 32.27 29.90 31.51 30.47
  A 0.38 0.38 0.0 0 1 30.95 29.97
  Z"
/>
<path fill="#ffffff" d="
  M 31.15 23.60
  L 28.59 19.17
  A 1.27 1.27 0.0 0 1 29.25 17.35
  Q 35.62 14.94 42.01 16.53
  A 1.60 1.60 0.0 0 1 43.01 18.86
  Q 39.53 25.12 31.78 24.03
  A 0.91 0.86 77.9 0 1 31.15 23.60
  Z"
/>
<path fill="#ffffff" d="
  M 31.51 30.47
  Q 32.27 29.90 33.72 27.43
  A 2.17 2.07 -1.4 0 1 34.50 26.65
  C 36.86 25.30 39.99 27.62 41.00 29.77
  Q 41.97 31.82 43.85 36.00
  Q 45.93 40.62 45.95 42.41
  Q 45.99 47.86 40.82 50.27
  Q 31.16 54.77 21.39 49.64
  Q 19.98 48.90 19.45 46.41
  C 18.01 39.70 27.01 30.13 31.84 26.21
  A 0.57 0.57 0.0 0 1 32.70 26.94
  L 30.95 29.97
  A 0.38 0.38 0.0 0 0 31.51 30.47
  Z"
/>
</svg>
