<?xml version="1.0" encoding="UTF-8" standalone="no"?>
<!DOCTYPE svg PUBLIC "-//W3C//DTD SVG 1.1//EN" "http://www.w3.org/Graphics/SVG/1.1/DTD/svg11.dtd">
<svg xmlns="http://www.w3.org/2000/svg" version="1.1" viewBox="0.00 0.00 66.00 88.00">
<g stroke-width="2.00" fill="none" stroke-linecap="butt">
<path stroke="#431a44" vector-effect="non-scaling-stroke" d="
  M 33.43 86.53
  Q 33.72 86.53 33.90 86.37
  Q 45.07 75.97 53.64 63.14
  C 58.72 55.54 63.47 45.65 64.07 36.21
  Q 64.46 30.05 63.85 27.39
  Q 59.96 10.57 44.26 4.48
  Q 39.08 2.47 33.48 2.46
  Q 27.89 2.46 22.71 4.46
  Q 7.00 10.54 3.09 27.35
  Q 2.47 30.01 2.85 36.17
  C 3.44 45.61 8.18 55.51 13.25 63.11
  Q 21.80 75.95 32.96 86.37
  Q 33.13 86.53 33.43 86.53"
/>
<path stroke="#ac91ac" vector-effect="non-scaling-stroke" d="
  M 44.6499 24.2166
  A 6.78 4.21 -108.4 0 0 42.7952 31.9789
  A 6.78 4.21 -108.4 0 0 48.9301 37.0834
  A 6.78 4.21 -108.4 0 0 50.7848 29.3211
  A 6.78 4.21 -108.4 0 0 44.6499 24.2166"
/>
<path stroke="#ac91ac" vector-effect="non-scaling-stroke" d="
  M 36.00 34.13
  Q 36.72 36.33 38.44 38.06
  A 1.31 1.29 63.3 0 0 39.54 38.44
  L 43.67 37.87
  A 0.41 0.41 0.0 0 0 43.91 37.18
  Q 41.86 35.12 41.00 32.50
  Q 40.15 29.88 40.59 27.00
  A 0.41 0.41 0.0 0 0 39.99 26.59
  L 36.32 28.56
  A 1.31 1.29 80.6 0 0 35.65 29.52
  Q 35.28 31.93 36.00 34.13"
/>
<path stroke="#ac91ac" vector-effect="non-scaling-stroke" d="
  M 33.27 35.07
  Q 34.18 37.77 36.22 38.99
  A 0.44 0.44 0.0 0 0 36.77 38.30
  Q 35.44 36.92 34.66 34.60
  Q 33.87 32.27 34.09 30.37
  A 0.44 0.44 0.0 0 0 33.24 30.16
  Q 32.36 32.36 33.27 35.07"
/>
<path stroke="#ac91ac" vector-effect="non-scaling-stroke" d="
  M 26.58 37.16
  Q 26.92 38.18 28.09 39.52
  A 1.25 1.25 0.0 0 0 29.22 39.94
  L 33.32 39.38
  A 0.40 0.40 0.0 0 0 33.59 38.75
  Q 32.48 37.17 31.91 35.42
  Q 31.33 33.66 31.30 31.73
  A 0.40 0.40 0.0 0 0 30.71 31.38
  L 27.07 33.35
  A 1.25 1.25 0.0 0 0 26.40 34.35
  Q 26.25 36.13 26.58 37.16"
/>
<path stroke="#ac91ac" vector-effect="non-scaling-stroke" d="
  M 26.47 40.30
  L 24.64 34.77
  A 0.11 0.11 0.0 0 0 24.50 34.70
  L 24.46 34.72
  A 2.85 1.33 71.7 0 0 24.09 37.84
  L 24.20 38.16
  A 2.85 1.33 71.7 0 0 26.36 40.45
  L 26.40 40.44
  A 0.11 0.11 0.0 0 0 26.47 40.30"
/>
<path stroke="#ac91ac" vector-effect="non-scaling-stroke" d="
  M 17.91 39.99
  Q 18.09 40.55 18.58 41.06
  A 1.02 1.01 64.1 0 0 19.45 41.37
  L 23.21 40.85
  A 0.40 0.40 0.0 0 0 23.51 40.26
  Q 23.03 39.36 22.72 38.42
  Q 22.42 37.49 22.28 36.48
  A 0.40 0.40 0.0 0 0 21.69 36.17
  L 18.34 37.96
  A 1.02 1.01 80.0 0 0 17.82 38.72
  Q 17.73 39.42 17.91 39.99"
/>
<path stroke="#ac91ac" vector-effect="non-scaling-stroke" d="
  M 14.93 40.86
  C 15.33 42.14 16.38 43.63 17.90 43.11
  A 0.35 0.35 0.0 0 0 18.00 42.50
  Q 16.90 41.68 16.48 40.37
  Q 16.07 39.06 16.50 37.75
  A 0.35 0.35 0.0 0 0 16.06 37.30
  C 14.52 37.76 14.52 39.58 14.93 40.86"
/>
<path stroke="#ac91ac" vector-effect="non-scaling-stroke" d="
  M 45.2727 25.8346
  A 4.89 2.29 -108.2 0 0 44.6246 31.1952
  A 4.89 2.29 -108.2 0 0 48.3273 35.1254
  A 4.89 2.29 -108.2 0 0 48.9754 29.7648
  A 4.89 2.29 -108.2 0 0 45.2727 25.8346"
/>
</g>
<path fill="#2e112e" d="
  M 33.80 88.00
  L 33.04 88.00
  C 21.72 77.71 12.19 65.75 5.68 51.55
  Q 2.13 43.81 1.57 34.89
  C 0.57 18.86 11.15 5.76 26.65 2.05
  C 37.35 -0.50 49.55 3.32 57.13 11.63
  C 79.54 36.20 52.17 71.30 33.80 88.00
  Z
  M 33.43 86.53
  Q 33.72 86.53 33.90 86.37
  Q 45.07 75.97 53.64 63.14
  C 58.72 55.54 63.47 45.65 64.07 36.21
  Q 64.46 30.05 63.85 27.39
  Q 59.96 10.57 44.26 4.48
  Q 39.08 2.47 33.48 2.46
  Q 27.89 2.46 22.71 4.46
  Q 7.00 10.54 3.09 27.35
  Q 2.47 30.01 2.85 36.17
  C 3.44 45.61 8.18 55.51 13.25 63.11
  Q 21.80 75.95 32.96 86.37
  Q 33.13 86.53 33.43 86.53
  Z"
/>
<path fill="#582359" d="
  M 33.48 2.46
  Q 39.08 2.47 44.26 4.48
  Q 59.96 10.57 63.85 27.39
  Q 64.46 30.05 64.07 36.21
  C 63.47 45.65 58.72 55.54 53.64 63.14
  Q 45.07 75.97 33.90 86.37
  Q 33.72 86.53 33.43 86.53
  Q 33.13 86.53 32.96 86.37
  Q 21.80 75.95 13.25 63.11
  C 8.18 55.51 3.44 45.61 2.85 36.17
  Q 2.47 30.01 3.09 27.35
  Q 7.00 10.54 22.71 4.46
  Q 27.89 2.46 33.48 2.46
  Z
  M 44.6499 24.2166
  A 6.78 4.21 -108.4 0 0 42.7952 31.9789
  A 6.78 4.21 -108.4 0 0 48.9301 37.0834
  A 6.78 4.21 -108.4 0 0 50.7848 29.3211
  A 6.78 4.21 -108.4 0 0 44.6499 24.2166
  Z
  M 36.00 34.13
  Q 36.72 36.33 38.44 38.06
  A 1.31 1.29 63.3 0 0 39.54 38.44
  L 43.67 37.87
  A 0.41 0.41 0.0 0 0 43.91 37.18
  Q 41.86 35.12 41.00 32.50
  Q 40.15 29.88 40.59 27.00
  A 0.41 0.41 0.0 0 0 39.99 26.59
  L 36.32 28.56
  A 1.31 1.29 80.6 0 0 35.65 29.52
  Q 35.28 31.93 36.00 34.13
  Z
  M 33.27 35.07
  Q 34.18 37.77 36.22 38.99
  A 0.44 0.44 0.0 0 0 36.77 38.30
  Q 35.44 36.92 34.66 34.60
  Q 33.87 32.27 34.09 30.37
  A 0.44 0.44 0.0 0 0 33.24 30.16
  Q 32.36 32.36 33.27 35.07
  Z
  M 26.58 37.16
  Q 26.92 38.18 28.09 39.52
  A 1.25 1.25 0.0 0 0 29.22 39.94
  L 33.32 39.38
  A 0.40 0.40 0.0 0 0 33.59 38.75
  Q 32.48 37.17 31.91 35.42
  Q 31.33 33.66 31.30 31.73
  A 0.40 0.40 0.0 0 0 30.71 31.38
  L 27.07 33.35
  A 1.25 1.25 0.0 0 0 26.40 34.35
  Q 26.25 36.13 26.58 37.16
  Z
  M 26.47 40.30
  L 24.64 34.77
  A 0.11 0.11 0.0 0 0 24.50 34.70
  L 24.46 34.72
  A 2.85 1.33 71.7 0 0 24.09 37.84
  L 24.20 38.16
  A 2.85 1.33 71.7 0 0 26.36 40.45
  L 26.40 40.44
  A 0.11 0.11 0.0 0 0 26.47 40.30
  Z
  M 17.91 39.99
  Q 18.09 40.55 18.58 41.06
  A 1.02 1.01 64.1 0 0 19.45 41.37
  L 23.21 40.85
  A 0.40 0.40 0.0 0 0 23.51 40.26
  Q 23.03 39.36 22.72 38.42
  Q 22.42 37.49 22.28 36.48
  A 0.40 0.40 0.0 0 0 21.69 36.17
  L 18.34 37.96
  A 1.02 1.01 80.0 0 0 17.82 38.72
  Q 17.73 39.42 17.91 39.99
  Z
  M 14.93 40.86
  C 15.33 42.14 16.38 43.63 17.90 43.11
  A 0.35 0.35 0.0 0 0 18.00 42.50
  Q 16.90 41.68 16.48 40.37
  Q 16.07 39.06 16.50 37.75
  A 0.35 0.35 0.0 0 0 16.06 37.30
  C 14.52 37.76 14.52 39.58 14.93 40.86
  Z"
/>
<path fill="#ffffff" d="
  M 44.6499 24.2166
  A 6.78 4.21 -108.4 0 1 50.7848 29.3211
  A 6.78 4.21 -108.4 0 1 48.9301 37.0834
  A 6.78 4.21 -108.4 0 1 42.7952 31.9789
  A 6.78 4.21 -108.4 0 1 44.6499 24.2166
  Z
  M 45.2727 25.8346
  A 4.89 2.29 -108.2 0 0 44.6246 31.1952
  A 4.89 2.29 -108.2 0 0 48.3273 35.1254
  A 4.89 2.29 -108.2 0 0 48.9754 29.7648
  A 4.89 2.29 -108.2 0 0 45.2727 25.8346
  Z"
/>
<ellipse fill="#582359" cx="0.00" cy="0.00" transform="translate(46.80,30.48) rotate(-108.2)" rx="4.89" ry="2.29"/>
<path fill="#ffffff" d="
  M 41.00 32.50
  Q 41.86 35.12 43.91 37.18
  A 0.41 0.41 0.0 0 1 43.67 37.87
  L 39.54 38.44
  A 1.31 1.29 63.3 0 1 38.44 38.06
  Q 36.72 36.33 36.00 34.13
  Q 35.28 31.93 35.65 29.52
  A 1.31 1.29 80.6 0 1 36.32 28.56
  L 39.99 26.59
  A 0.41 0.41 0.0 0 1 40.59 27.00
  Q 40.15 29.88 41.00 32.50
  Z"
/>
<path fill="#ffffff" d="
  M 34.66 34.60
  Q 35.44 36.92 36.77 38.30
  A 0.44 0.44 0.0 0 1 36.22 38.99
  Q 34.18 37.77 33.27 35.07
  Q 32.36 32.36 33.24 30.16
  A 0.44 0.44 0.0 0 1 34.09 30.37
  Q 33.87 32.27 34.66 34.60
  Z"
/>
<path fill="#ffffff" d="
  M 31.91 35.42
  Q 32.48 37.17 33.59 38.75
  A 0.40 0.40 0.0 0 1 33.32 39.38
  L 29.22 39.94
  A 1.25 1.25 0.0 0 1 28.09 39.52
  Q 26.92 38.18 26.58 37.16
  Q 26.25 36.13 26.40 34.35
  A 1.25 1.25 0.0 0 1 27.07 33.35
  L 30.71 31.38
  A 0.40 0.40 0.0 0 1 31.30 31.73
  Q 31.33 33.66 31.91 35.42
  Z"
/>
<path fill="#ffffff" d="
  M 26.47 40.30
  A 0.11 0.11 0.0 0 1 26.40 40.44
  L 26.36 40.45
  A 2.85 1.33 71.7 0 1 24.20 38.16
  L 24.09 37.84
  A 2.85 1.33 71.7 0 1 24.46 34.72
  L 24.50 34.70
  A 0.11 0.11 0.0 0 1 24.64 34.77
  L 26.47 40.30
  Z"
/>
<path fill="#ffffff" d="
  M 22.72 38.42
  Q 23.03 39.36 23.51 40.26
  A 0.40 0.40 0.0 0 1 23.21 40.85
  L 19.45 41.37
  A 1.02 1.01 64.1 0 1 18.58 41.06
  Q 18.09 40.55 17.91 39.99
  Q 17.73 39.42 17.82 38.72
  A 1.02 1.01 80.0 0 1 18.34 37.96
  L 21.69 36.17
  A 0.40 0.40 0.0 0 1 22.28 36.48
  Q 22.42 37.49 22.72 38.42
  Z"
/>
<path fill="#ffffff" d="
  M 16.48 40.37
  Q 16.90 41.68 18.00 42.50
  A 0.35 0.35 0.0 0 1 17.90 43.11
  C 16.38 43.63 15.33 42.14 14.93 40.86
  C 14.52 39.58 14.52 37.76 16.06 37.30
  A 0.35 0.35 0.0 0 1 16.50 37.75
  Q 16.07 39.06 16.48 40.37
  Z"
/>
</svg>
