<?xml version="1.0" encoding="UTF-8" standalone="no"?>
<!DOCTYPE svg PUBLIC "-//W3C//DTD SVG 1.1//EN" "http://www.w3.org/Graphics/SVG/1.1/DTD/svg11.dtd">
<svg xmlns="http://www.w3.org/2000/svg" version="1.1" viewBox="0.00 0.00 66.00 88.00">
<g stroke-width="2.00" fill="none" stroke-linecap="butt">
<path stroke="#173f51" vector-effect="non-scaling-stroke" d="
  M 33.43 86.62
  C 33.72 86.62 33.67 86.62 33.81 86.49
  Q 47.38 74.03 56.45 58.46
  C 61.36 50.02 64.31 41.46 64.25 32.27
  C 64.13 15.66 50.01 2.57 33.49 2.56
  C 16.97 2.54 2.84 15.61 2.69 32.22
  C 2.62 41.41 5.55 49.98 10.45 58.43
  Q 19.50 74.01 33.05 86.49
  C 33.19 86.62 33.14 86.62 33.43 86.62"
/>
<path stroke="#8fa9b5" vector-effect="non-scaling-stroke" d="
  M 37.04 33.46
  C 38.50 31.21 38.07 30.47 37.52 27.49
  A 1.49 1.46 57.8 0 1 37.76 26.38
  Q 39.49 23.89 42.55 25.61
  A 0.33 0.33 0.0 0 0 42.94 25.08
  C 39.10 21.51 35.05 24.70 35.80 29.26
  C 36.33 32.45 34.27 34.22 31.62 35.54
  A 0.70 0.70 0.0 0 1 30.75 35.34
  Q 29.22 33.38 30.46 31.94
  Q 33.57 28.35 34.93 26.75
  A 3.60 2.94 -17.4 0 0 35.39 26.05
  Q 36.36 24.10 36.65 22.33
  A 0.25 0.25 0.0 0 0 36.19 22.17
  Q 34.60 25.08 31.75 27.27
  C 27.33 30.67 24.59 33.48 28.23 38.63
  A 0.34 0.34 0.0 0 1 27.79 39.12
  Q 23.11 36.59 23.55 31.46
  C 23.80 28.51 28.14 25.03 26.97 22.24
  A 0.21 0.21 0.0 0 0 26.57 22.28
  C 25.98 24.93 21.73 27.83 21.23 30.46
  Q 20.78 32.83 21.57 35.18
  A 0.30 0.29 10.6 0 1 21.10 35.50
  Q 18.33 33.19 16.86 29.49
  A 0.20 0.20 0.0 0 0 16.48 29.59
  Q 17.43 37.04 23.48 40.10
  A 0.27 0.27 0.0 0 1 23.40 40.61
  C 20.29 41.02 16.39 36.81 15.10 34.39
  A 0.21 0.21 0.0 0 0 14.70 34.49
  C 14.74 40.84 17.92 46.96 24.87 47.35
  Q 33.76 47.83 39.39 47.15
  C 42.98 46.72 46.52 44.96 47.58 41.82
  Q 49.20 37.05 50.21 36.29
  A 0.17 0.16 18.3 0 0 50.06 36.00
  C 47.20 36.83 45.61 39.38 42.93 40.57
  A 0.31 0.31 0.0 0 1 42.53 40.13
  L 43.77 37.98
  A 0.29 0.29 0.0 0 0 43.37 37.58
  Q 42.34 38.17 39.92 40.63
  A 1.21 1.20 25.8 0 1 38.90 40.98
  L 34.53 40.41
  A 0.45 0.44 -68.3 0 1 34.23 39.71
  Q 35.04 38.55 35.72 38.40
  C 41.13 37.21 46.69 36.55 49.93 31.73
  A 0.26 0.25 -87.2 0 0 49.60 31.36
  Q 44.91 33.94 39.63 34.86
  A 0.32 0.32 0.0 0 1 39.30 34.37
  Q 41.28 31.13 44.37 29.63
  A 0.22 0.21 -56.3 0 0 44.29 29.22
  C 41.17 29.06 39.60 31.99 37.30 33.71
  A 0.18 0.18 0.0 0 1 37.04 33.46"
/>
</g>
<path fill="#0e2b37" d="
  M 33.81 88.00
  L 33.15 88.00
  Q 15.60 72.48 6.00 52.51
  Q 2.31 44.85 1.62 35.22
  Q 0.94 25.68 5.27 17.99
  C 17.85 -4.37 49.95 -4.37 62.17 18.85
  C 67.42 28.83 65.84 41.29 61.31 51.54
  C 55.19 65.40 44.96 77.81 33.81 88.00
  Z
  M 33.43 86.62
  C 33.72 86.62 33.67 86.62 33.81 86.49
  Q 47.38 74.03 56.45 58.46
  C 61.36 50.02 64.31 41.46 64.25 32.27
  C 64.13 15.66 50.01 2.57 33.49 2.56
  C 16.97 2.54 2.84 15.61 2.69 32.22
  C 2.62 41.41 5.55 49.98 10.45 58.43
  Q 19.50 74.01 33.05 86.49
  C 33.19 86.62 33.14 86.62 33.43 86.62
  Z"
/>
<path fill="#1f526b" d="
  M 33.49 2.56
  C 50.01 2.57 64.13 15.66 64.25 32.27
  C 64.31 41.46 61.36 50.02 56.45 58.46
  Q 47.38 74.03 33.81 86.49
  C 33.67 86.62 33.72 86.62 33.43 86.62
  C 33.14 86.62 33.19 86.62 33.05 86.49
  Q 19.50 74.01 10.45 58.43
  C 5.55 49.98 2.62 41.41 2.69 32.22
  C 2.84 15.61 16.97 2.54 33.49 2.56
  Z
  M 37.04 33.46
  C 38.50 31.21 38.07 30.47 37.52 27.49
  A 1.49 1.46 57.8 0 1 37.76 26.38
  Q 39.49 23.89 42.55 25.61
  A 0.33 0.33 0.0 0 0 42.94 25.08
  C 39.10 21.51 35.05 24.70 35.80 29.26
  C 36.33 32.45 34.27 34.22 31.62 35.54
  A 0.70 0.70 0.0 0 1 30.75 35.34
  Q 29.22 33.38 30.46 31.94
  Q 33.57 28.35 34.93 26.75
  A 3.60 2.94 -17.4 0 0 35.39 26.05
  Q 36.36 24.10 36.65 22.33
  A 0.25 0.25 0.0 0 0 36.19 22.17
  Q 34.60 25.08 31.75 27.27
  C 27.33 30.67 24.59 33.48 28.23 38.63
  A 0.34 0.34 0.0 0 1 27.79 39.12
  Q 23.11 36.59 23.55 31.46
  C 23.80 28.51 28.14 25.03 26.97 22.24
  A 0.21 0.21 0.0 0 0 26.57 22.28
  C 25.98 24.93 21.73 27.83 21.23 30.46
  Q 20.78 32.83 21.57 35.18
  A 0.30 0.29 10.6 0 1 21.10 35.50
  Q 18.33 33.19 16.86 29.49
  A 0.20 0.20 0.0 0 0 16.48 29.59
  Q 17.43 37.04 23.48 40.10
  A 0.27 0.27 0.0 0 1 23.40 40.61
  C 20.29 41.02 16.39 36.81 15.10 34.39
  A 0.21 0.21 0.0 0 0 14.70 34.49
  C 14.74 40.84 17.92 46.96 24.87 47.35
  Q 33.76 47.83 39.39 47.15
  C 42.98 46.72 46.52 44.96 47.58 41.82
  Q 49.20 37.05 50.21 36.29
  A 0.17 0.16 18.3 0 0 50.06 36.00
  C 47.20 36.83 45.61 39.38 42.93 40.57
  A 0.31 0.31 0.0 0 1 42.53 40.13
  L 43.77 37.98
  A 0.29 0.29 0.0 0 0 43.37 37.58
  Q 42.34 38.17 39.92 40.63
  A 1.21 1.20 25.8 0 1 38.90 40.98
  L 34.53 40.41
  A 0.45 0.44 -68.3 0 1 34.23 39.71
  Q 35.04 38.55 35.72 38.40
  C 41.13 37.21 46.69 36.55 49.93 31.73
  A 0.26 0.25 -87.2 0 0 49.60 31.36
  Q 44.91 33.94 39.63 34.86
  A 0.32 0.32 0.0 0 1 39.30 34.37
  Q 41.28 31.13 44.37 29.63
  A 0.22 0.21 -56.3 0 0 44.29 29.22
  C 41.17 29.06 39.60 31.99 37.30 33.71
  A 0.18 0.18 0.0 0 1 37.04 33.46
  Z"
/>
<path fill="#ffffff" d="
  M 37.30 33.71
  C 39.60 31.99 41.17 29.06 44.29 29.22
  A 0.22 0.21 -56.3 0 1 44.37 29.63
  Q 41.28 31.13 39.30 34.37
  A 0.32 0.32 0.0 0 0 39.63 34.86
  Q 44.91 33.94 49.60 31.36
  A 0.26 0.25 -87.2 0 1 49.93 31.73
  C 46.69 36.55 41.13 37.21 35.72 38.40
  Q 35.04 38.55 34.23 39.71
  A 0.45 0.44 -68.3 0 0 34.53 40.41
  L 38.90 40.98
  A 1.21 1.20 25.8 0 0 39.92 40.63
  Q 42.34 38.17 43.37 37.58
  A 0.29 0.29 0.0 0 1 43.77 37.98
  L 42.53 40.13
  A 0.31 0.31 0.0 0 0 42.93 40.57
  C 45.61 39.38 47.20 36.83 50.06 36.00
  A 0.17 0.16 18.3 0 1 50.21 36.29
  Q 49.20 37.05 47.58 41.82
  C 46.52 44.96 42.98 46.72 39.39 47.15
  Q 33.76 47.83 24.87 47.35
  C 17.92 46.96 14.74 40.84 14.70 34.49
  A 0.21 0.21 0.0 0 1 15.10 34.39
  C 16.39 36.81 20.29 41.02 23.40 40.61
  A 0.27 0.27 0.0 0 0 23.48 40.10
  Q 17.43 37.04 16.48 29.59
  A 0.20 0.20 0.0 0 1 16.86 29.49
  Q 18.33 33.19 21.10 35.50
  A 0.30 0.29 10.6 0 0 21.57 35.18
  Q 20.78 32.83 21.23 30.46
  C 21.73 27.83 25.98 24.93 26.57 22.28
  A 0.21 0.21 0.0 0 1 26.97 22.24
  C 28.14 25.03 23.80 28.51 23.55 31.46
  Q 23.11 36.59 27.79 39.12
  A 0.34 0.34 0.0 0 0 28.23 38.63
  C 24.59 33.48 27.33 30.67 31.75 27.27
  Q 34.60 25.08 36.19 22.17
  A 0.25 0.25 0.0 0 1 36.65 22.33
  Q 36.36 24.10 35.39 26.05
  A 3.60 2.94 -17.4 0 1 34.93 26.75
  Q 33.57 28.35 30.46 31.94
  Q 29.22 33.38 30.75 35.34
  A 0.70 0.70 0.0 0 0 31.62 35.54
  C 34.27 34.22 36.33 32.45 35.80 29.26
  C 35.05 24.70 39.10 21.51 42.94 25.08
  A 0.33 0.33 0.0 0 1 42.55 25.61
  Q 39.49 23.89 37.76 26.38
  A 1.49 1.46 57.8 0 0 37.52 27.49
  C 38.07 30.47 38.50 31.21 37.04 33.46
  A 0.18 0.18 0.0 0 0 37.30 33.71
  Z"
/>
</svg>
