<?xml version="1.0" encoding="UTF-8" standalone="no"?>
<!DOCTYPE svg PUBLIC "-//W3C//DTD SVG 1.1//EN" "http://www.w3.org/Graphics/SVG/1.1/DTD/svg11.dtd">
<svg xmlns="http://www.w3.org/2000/svg" version="1.1" viewBox="0.00 0.00 66.00 88.00">
<g stroke-width="2.00" fill="none" stroke-linecap="butt">
<path stroke="#282a22" vector-effect="non-scaling-stroke" d="
  M 33.35 86.56
  Q 33.58 86.56 34.06 86.10
  Q 45.58 75.25 53.63 63.12
  C 59.96 53.60 65.38 41.07 64.02 29.57
  Q 62.21 14.20 48.19 6.25
  Q 41.86 2.65 33.55 2.63
  Q 25.25 2.61 18.89 6.17
  Q 4.84 14.06 2.95 29.42
  C 1.54 40.92 6.90 53.47 13.18 63.02
  Q 21.17 75.19 32.64 86.10
  Q 33.12 86.56 33.35 86.56"
/>
<path stroke="#9a9b96" vector-effect="non-scaling-stroke" d="
  M 33.41 52.25
  Q 43.97 52.25 45.02 52.20
  A 0.73 0.73 0.0 0 0 45.72 51.47
  L 45.72 49.29
  A 0.55 0.55 0.0 0 0 45.17 48.74
  L 42.95 48.74
  A 0.61 0.60 -2.6 0 1 42.34 48.19
  L 39.85 23.26
  A 0.47 0.47 0.0 0 1 40.32 22.74
  L 41.89 22.74
  A 0.85 0.83 14.7 0 0 42.62 22.32
  L 44.05 19.84
  A 0.39 0.39 0.0 0 0 43.71 19.25
  L 37.93 19.25
  A 0.75 0.75 0.0 0 1 37.22 18.75
  Q 36.19 15.80 33.41 15.80
  Q 30.63 15.80 29.59 18.75
  A 0.75 0.75 0.0 0 1 28.89 19.25
  L 23.11 19.25
  A 0.39 0.39 0.0 0 0 22.77 19.84
  L 24.20 22.32
  A 0.85 0.83 -14.7 0 0 24.93 22.74
  L 26.50 22.74
  A 0.47 0.47 0.0 0 1 26.97 23.26
  L 24.48 48.19
  A 0.61 0.60 2.6 0 1 23.87 48.74
  L 21.65 48.74
  A 0.55 0.55 0.0 0 0 21.10 49.29
  L 21.10 51.47
  A 0.73 0.73 0.0 0 0 21.80 52.20
  Q 22.85 52.25 33.41 52.25"
/>
<path stroke="#9a9b96" vector-effect="non-scaling-stroke" d="
  M 30.79 48.74
  L 36.05 48.74
  A 0.36 0.36 0.0 0 0 36.41 48.38
  L 36.41 46.95
  A 16.95 2.89 90.0 0 0 33.52 30.00
  L 33.32 30.00
  A 16.95 2.89 -90.0 0 0 30.43 46.95
  L 30.43 48.38
  A 0.36 0.36 0.0 0 0 30.79 48.74"
/>
</g>
<path fill="#1c1e17" d="
  M 33.79 88.00
  L 33.03 88.00
  C 16.94 73.37 -5.83 44.84 3.69 21.31
  C 14.08 -4.37 50.48 -5.59 62.58 19.67
  C 66.90 28.70 65.97 39.66 62.41 48.85
  C 56.64 63.73 45.55 77.34 33.79 88.00
  Z
  M 33.35 86.56
  Q 33.58 86.56 34.06 86.10
  Q 45.58 75.25 53.63 63.12
  C 59.96 53.60 65.38 41.07 64.02 29.57
  Q 62.21 14.20 48.19 6.25
  Q 41.86 2.65 33.55 2.63
  Q 25.25 2.61 18.89 6.17
  Q 4.84 14.06 2.95 29.42
  C 1.54 40.92 6.90 53.47 13.18 63.02
  Q 21.17 75.19 32.64 86.10
  Q 33.12 86.56 33.35 86.56
  Z"
/>
<path fill="#34362c" d="
  M 33.55 2.63
  Q 41.86 2.65 48.19 6.25
  Q 62.21 14.20 64.02 29.57
  C 65.38 41.07 59.96 53.60 53.63 63.12
  Q 45.58 75.25 34.06 86.10
  Q 33.58 86.56 33.35 86.56
  Q 33.12 86.56 32.64 86.10
  Q 21.17 75.19 13.18 63.02
  C 6.90 53.47 1.54 40.92 2.95 29.42
  Q 4.84 14.06 18.89 6.17
  Q 25.25 2.61 33.55 2.63
  Z
  M 33.41 52.25
  Q 43.97 52.25 45.02 52.20
  A 0.73 0.73 0.0 0 0 45.72 51.47
  L 45.72 49.29
  A 0.55 0.55 0.0 0 0 45.17 48.74
  L 42.95 48.74
  A 0.61 0.60 -2.6 0 1 42.34 48.19
  L 39.85 23.26
  A 0.47 0.47 0.0 0 1 40.32 22.74
  L 41.89 22.74
  A 0.85 0.83 14.7 0 0 42.62 22.32
  L 44.05 19.84
  A 0.39 0.39 0.0 0 0 43.71 19.25
  L 37.93 19.25
  A 0.75 0.75 0.0 0 1 37.22 18.75
  Q 36.19 15.80 33.41 15.80
  Q 30.63 15.80 29.59 18.75
  A 0.75 0.75 0.0 0 1 28.89 19.25
  L 23.11 19.25
  A 0.39 0.39 0.0 0 0 22.77 19.84
  L 24.20 22.32
  A 0.85 0.83 -14.7 0 0 24.93 22.74
  L 26.50 22.74
  A 0.47 0.47 0.0 0 1 26.97 23.26
  L 24.48 48.19
  A 0.61 0.60 2.6 0 1 23.87 48.74
  L 21.65 48.74
  A 0.55 0.55 0.0 0 0 21.10 49.29
  L 21.10 51.47
  A 0.73 0.73 0.0 0 0 21.80 52.20
  Q 22.85 52.25 33.41 52.25
  Z"
/>
<path fill="#ffffff" d="
  M 33.41 15.80
  Q 36.19 15.80 37.22 18.75
  A 0.75 0.75 0.0 0 0 37.93 19.25
  L 43.71 19.25
  A 0.39 0.39 0.0 0 1 44.05 19.84
  L 42.62 22.32
  A 0.85 0.83 14.7 0 1 41.89 22.74
  L 40.32 22.74
  A 0.47 0.47 0.0 0 0 39.85 23.26
  L 42.34 48.19
  A 0.61 0.60 -2.6 0 0 42.95 48.74
  L 45.17 48.74
  A 0.55 0.55 0.0 0 1 45.72 49.29
  L 45.72 51.47
  A 0.73 0.73 0.0 0 1 45.02 52.20
  Q 43.97 52.25 33.41 52.25
  Q 22.85 52.25 21.80 52.20
  A 0.73 0.73 0.0 0 1 21.10 51.47
  L 21.10 49.29
  A 0.55 0.55 0.0 0 1 21.65 48.74
  L 23.87 48.74
  A 0.61 0.60 2.6 0 0 24.48 48.19
  L 26.97 23.26
  A 0.47 0.47 0.0 0 0 26.50 22.74
  L 24.93 22.74
  A 0.85 0.83 -14.7 0 1 24.20 22.32
  L 22.77 19.84
  A 0.39 0.39 0.0 0 1 23.11 19.25
  L 28.89 19.25
  A 0.75 0.75 0.0 0 0 29.59 18.75
  Q 30.63 15.80 33.41 15.80
  Z
  M 30.79 48.74
  L 36.05 48.74
  A 0.36 0.36 0.0 0 0 36.41 48.38
  L 36.41 46.95
  A 16.95 2.89 90.0 0 0 33.52 30.00
  L 33.32 30.00
  A 16.95 2.89 -90.0 0 0 30.43 46.95
  L 30.43 48.38
  A 0.36 0.36 0.0 0 0 30.79 48.74
  Z"
/>
<path fill="#34362c" d="
  M 30.79 48.74
  A 0.36 0.36 0.0 0 1 30.43 48.38
  L 30.43 46.95
  A 16.95 2.89 90.0 0 1 33.32 30.00
  L 33.52 30.00
  A 16.95 2.89 90.0 0 1 36.41 46.95
  L 36.41 48.38
  A 0.36 0.36 0.0 0 1 36.05 48.74
  L 30.79 48.74
  Z"
/>
</svg>
