<?xml version="1.0" encoding="UTF-8" standalone="no"?>
<!DOCTYPE svg PUBLIC "-//W3C//DTD SVG 1.1//EN" "http://www.w3.org/Graphics/SVG/1.1/DTD/svg11.dtd">
<svg xmlns="http://www.w3.org/2000/svg" version="1.1" viewBox="0.00 0.00 66.00 88.00">
<g stroke-width="2.00" fill="none" stroke-linecap="butt">
<path stroke="#282a22" vector-effect="non-scaling-stroke" d="
  M 33.40 86.53
  Q 33.52 86.53 33.62 86.51
  Q 33.67 86.49 33.79 86.38
  Q 44.93 76.04 53.22 63.75
  C 61.28 51.79 68.38 34.39 61.48 20.22
  C 56.22 9.41 45.55 2.53 33.53 2.51
  C 21.51 2.49 10.82 9.34 5.52 20.13
  C -1.42 34.28 5.63 51.70 13.65 63.69
  Q 21.90 76.00 33.01 86.38
  Q 33.13 86.49 33.17 86.51
  Q 33.28 86.53 33.40 86.53"
/>
<path stroke="#9a9b96" vector-effect="non-scaling-stroke" d="
  M 32.99 51.74
  Q 47.90 51.74 48.85 51.73
  A 2.34 2.33 1.5 0 0 51.27 49.44
  L 51.34 44.96
  A 1.43 1.41 23.5 0 0 50.91 43.90
  L 50.10 43.08
  A 1.33 1.33 0.0 0 1 49.71 42.14
  L 49.71 30.84
  A 2.24 2.23 28.9 0 0 49.36 29.64
  L 48.85 28.85
  A 0.99 0.96 35.3 0 1 48.71 28.10
  Q 49.64 23.66 49.04 19.34
  A 0.41 0.41 0.0 0 0 48.25 19.23
  Q 46.80 22.57 46.51 27.92
  A 0.29 0.29 0.0 0 1 45.98 28.08
  Q 44.20 25.64 45.75 22.37
  A 0.17 0.02 44.7 0 0 45.65 22.24
  Q 45.61 22.19 45.56 22.20
  A 0.63 0.31 -64.2 0 0 45.22 22.47
  Q 43.35 25.05 44.36 28.20
  A 0.43 0.43 0.0 0 1 43.95 28.76
  L 40.40 28.76
  A 0.50 0.49 -81.0 0 1 39.93 28.11
  Q 41.97 22.03 37.71 17.22
  A 0.15 0.14 -80.9 0 0 37.48 17.39
  Q 40.33 22.61 37.58 28.01
  A 0.20 0.20 0.0 0 1 37.21 27.90
  Q 37.87 22.01 33.25 18.66
  Q 33.21 18.63 32.98 18.63
  Q 32.75 18.63 32.71 18.66
  Q 28.09 22.01 28.75 27.90
  A 0.20 0.20 0.0 0 1 28.38 28.01
  Q 25.63 22.61 28.48 17.39
  A 0.15 0.14 80.9 0 0 28.25 17.22
  Q 23.99 22.03 26.03 28.11
  A 0.50 0.49 81.0 0 1 25.56 28.76
  L 22.01 28.77
  A 0.43 0.43 0.0 0 1 21.60 28.21
  Q 22.61 25.06 20.74 22.48
  A 0.63 0.31 64.2 0 0 20.40 22.21
  Q 20.35 22.20 20.31 22.25
  A 0.17 0.02 -44.7 0 0 20.21 22.38
  Q 21.76 25.65 19.98 28.09
  A 0.29 0.29 0.0 0 1 19.45 27.93
  Q 19.16 22.58 17.71 19.24
  A 0.41 0.41 0.0 0 0 16.92 19.35
  Q 16.32 23.67 17.25 28.11
  A 0.99 0.96 -35.3 0 1 17.11 28.86
  L 16.61 29.65
  A 2.24 2.23 -28.9 0 0 16.26 30.85
  L 16.26 42.15
  A 1.33 1.33 0.0 0 1 15.87 43.09
  L 15.06 43.91
  A 1.43 1.41 -23.5 0 0 14.63 44.97
  L 14.71 49.45
  A 2.34 2.33 -1.5 0 0 17.12 51.74
  Q 18.08 51.75 32.99 51.74"
/>
<path stroke="#9a9b96" vector-effect="non-scaling-stroke" d="
  M 30.40 28.72
  L 35.58 28.72
  A 0.37 0.37 0.0 0 0 35.95 28.35
  L 35.95 28.17
  A 6.61 2.89 -90.0 0 0 33.06 21.56
  L 32.92 21.56
  A 6.61 2.89 90.0 0 0 30.03 28.17
  L 30.03 28.35
  A 0.37 0.37 0.0 0 0 30.40 28.72"
/>
<path stroke="#9a9b96" vector-effect="non-scaling-stroke" d="
  M 19.61 41.33
  A 0.01 0.01 0.0 0 0 19.63 41.34
  L 21.12 39.83
  A 0.77 0.76 -50.3 0 1 22.08 39.74
  Q 22.94 40.31 23.27 41.21
  A 0.23 0.23 0.0 0 0 23.71 41.12
  L 23.66 34.79
  A 1.34 1.33 -0.4 0 0 22.32 33.47
  L 20.76 33.49
  A 1.21 1.21 0.0 0 0 19.56 34.70
  L 19.61 41.33"
/>
<path stroke="#9a9b96" vector-effect="non-scaling-stroke" d="
  M 29.36 41.31
  L 29.36 34.71
  A 1.20 1.20 0.0 0 0 28.16 33.51
  L 26.61 33.51
  A 1.33 1.32 0.0 0 0 25.28 34.83
  L 25.28 41.13
  A 0.23 0.23 0.0 0 0 25.72 41.21
  Q 26.04 40.32 26.89 39.74
  A 0.77 0.75 49.8 0 1 27.85 39.83
  L 29.34 41.32
  A 0.01 0.01 0.0 0 0 29.36 41.31"
/>
<path stroke="#9a9b96" vector-effect="non-scaling-stroke" d="
  M 33.02 47.28
  Q 33.95 47.28 34.49 46.96
  A 1.08 1.07 -12.2 0 0 35.01 46.16
  Q 35.22 44.41 34.47 42.53
  A 1.49 1.47 -45.9 0 1 34.46 41.42
  Q 35.48 38.79 34.84 34.30
  A 0.92 0.92 0.0 0 0 33.95 33.51
  Q 33.09 33.49 32.98 33.49
  Q 32.88 33.49 32.01 33.52
  A 0.92 0.92 0.0 0 0 31.13 34.31
  Q 30.52 38.80 31.55 41.43
  A 1.49 1.47 45.6 0 1 31.55 42.54
  Q 30.81 44.42 31.03 46.17
  A 1.08 1.07 11.9 0 0 31.55 46.97
  Q 32.10 47.29 33.02 47.28"
/>
<path stroke="#9a9b96" vector-effect="non-scaling-stroke" d="
  M 36.63 41.33
  A 0.01 0.01 0.0 0 0 36.65 41.34
  L 38.14 39.83
  A 0.77 0.75 -50.2 0 1 39.10 39.74
  Q 39.95 40.31 40.28 41.20
  A 0.23 0.23 0.0 0 0 40.72 41.12
  L 40.68 34.80
  A 1.33 1.32 -0.4 0 0 39.34 33.49
  L 37.78 33.50
  A 1.20 1.20 0.0 0 0 36.59 34.71
  L 36.63 41.33"
/>
<path stroke="#9a9b96" vector-effect="non-scaling-stroke" d="
  M 46.35 41.26
  L 46.38 34.69
  A 1.20 1.20 0.0 0 0 45.19 33.49
  L 43.65 33.48
  A 1.32 1.31 0.3 0 0 42.32 34.79
  L 42.29 41.06
  A 0.23 0.22 55.3 0 0 42.73 41.15
  Q 43.05 40.26 43.90 39.69
  A 0.76 0.75 50.1 0 1 44.85 39.78
  L 46.33 41.27
  A 0.01 0.01 0.0 0 0 46.35 41.26"
/>
<path stroke="#9a9b96" vector-effect="non-scaling-stroke" d="
  M 20.38 47.16
  L 22.88 47.18
  A 0.73 0.73 0.0 0 0 23.61 46.45
  L 23.61 46.21
  A 5.47 1.91 -89.6 0 0 21.74 40.73
  L 21.60 40.73
  A 5.47 1.91 -89.6 0 0 19.65 46.19
  L 19.65 46.43
  A 0.73 0.73 0.0 0 0 20.38 47.16"
/>
<path stroke="#9a9b96" vector-effect="non-scaling-stroke" d="
  M 26.03 47.14
  L 28.55 47.18
  A 0.72 0.72 0.0 0 0 29.28 46.47
  L 29.28 46.21
  A 5.44 1.91 -89.2 0 0 27.44 40.74
  L 27.30 40.74
  A 5.44 1.91 -89.2 0 0 25.32 46.15
  L 25.32 46.41
  A 0.72 0.72 0.0 0 0 26.03 47.14"
/>
<path stroke="#9a9b96" vector-effect="non-scaling-stroke" d="
  M 37.42 47.15
  L 39.90 47.17
  A 0.72 0.72 0.0 0 0 40.63 46.45
  L 40.63 46.24
  A 5.51 1.89 -89.7 0 0 38.77 40.72
  L 38.63 40.72
  A 5.51 1.89 -89.7 0 0 36.71 46.22
  L 36.71 46.43
  A 0.72 0.72 0.0 0 0 37.42 47.15"
/>
<path stroke="#9a9b96" vector-effect="non-scaling-stroke" d="
  M 43.05 47.15
  L 45.53 47.19
  A 0.71 0.71 0.0 0 0 46.25 46.50
  L 46.26 46.12
  A 5.31 1.89 -88.9 0 0 44.47 40.77
  L 44.35 40.77
  A 5.31 1.89 -88.9 0 0 42.36 46.04
  L 42.35 46.42
  A 0.71 0.71 0.0 0 0 43.05 47.15"
/>
<path stroke="#9a9b96" vector-effect="non-scaling-stroke" d="
  M 32.0506 40.2854
  A 0.99 0.72 -171.6 0 0 32.9248 41.1423
  A 0.99 0.72 -171.6 0 0 34.0094 40.5746
  A 0.99 0.72 -171.6 0 0 33.1352 39.7177
  A 0.99 0.72 -171.6 0 0 32.0506 40.2854"
/>
</g>
<path fill="#1c1e18" d="
  M 33.79 88.00
  L 33.04 88.00
  C 21.92 77.91 11.94 65.52 5.64 51.57
  Q 2.23 44.02 1.60 34.89
  C 0.49 18.90 11.38 5.50 26.73 2.05
  C 41.21 -1.21 56.13 6.11 62.69 19.94
  C 66.94 28.90 65.90 40.01 62.33 49.06
  C 56.49 63.88 45.53 77.35 33.79 88.00
  Z
  M 33.40 86.53
  Q 33.52 86.53 33.62 86.51
  Q 33.67 86.49 33.79 86.38
  Q 44.93 76.04 53.22 63.75
  C 61.28 51.79 68.38 34.39 61.48 20.22
  C 56.22 9.41 45.55 2.53 33.53 2.51
  C 21.51 2.49 10.82 9.34 5.52 20.13
  C -1.42 34.28 5.63 51.70 13.65 63.69
  Q 21.90 76.00 33.01 86.38
  Q 33.13 86.49 33.17 86.51
  Q 33.28 86.53 33.40 86.53
  Z"
/>
<path fill="#34362c" d="
  M 33.53 2.51
  C 45.55 2.53 56.22 9.41 61.48 20.22
  C 68.38 34.39 61.28 51.79 53.22 63.75
  Q 44.93 76.04 33.79 86.38
  Q 33.67 86.49 33.62 86.51
  Q 33.52 86.53 33.40 86.53
  Q 33.28 86.53 33.17 86.51
  Q 33.13 86.49 33.01 86.38
  Q 21.90 76.00 13.65 63.69
  C 5.63 51.70 -1.42 34.28 5.52 20.13
  C 10.82 9.34 21.51 2.49 33.53 2.51
  Z
  M 32.99 51.74
  Q 47.90 51.74 48.85 51.73
  A 2.34 2.33 1.5 0 0 51.27 49.44
  L 51.34 44.96
  A 1.43 1.41 23.5 0 0 50.91 43.90
  L 50.10 43.08
  A 1.33 1.33 0.0 0 1 49.71 42.14
  L 49.71 30.84
  A 2.24 2.23 28.9 0 0 49.36 29.64
  L 48.85 28.85
  A 0.99 0.96 35.3 0 1 48.71 28.10
  Q 49.64 23.66 49.04 19.34
  A 0.41 0.41 0.0 0 0 48.25 19.23
  Q 46.80 22.57 46.51 27.92
  A 0.29 0.29 0.0 0 1 45.98 28.08
  Q 44.20 25.64 45.75 22.37
  A 0.17 0.02 44.7 0 0 45.65 22.24
  Q 45.61 22.19 45.56 22.20
  A 0.63 0.31 -64.2 0 0 45.22 22.47
  Q 43.35 25.05 44.36 28.20
  A 0.43 0.43 0.0 0 1 43.95 28.76
  L 40.40 28.76
  A 0.50 0.49 -81.0 0 1 39.93 28.11
  Q 41.97 22.03 37.71 17.22
  A 0.15 0.14 -80.9 0 0 37.48 17.39
  Q 40.33 22.61 37.58 28.01
  A 0.20 0.20 0.0 0 1 37.21 27.90
  Q 37.87 22.01 33.25 18.66
  Q 33.21 18.63 32.98 18.63
  Q 32.75 18.63 32.71 18.66
  Q 28.09 22.01 28.75 27.90
  A 0.20 0.20 0.0 0 1 28.38 28.01
  Q 25.63 22.61 28.48 17.39
  A 0.15 0.14 80.9 0 0 28.25 17.22
  Q 23.99 22.03 26.03 28.11
  A 0.50 0.49 81.0 0 1 25.56 28.76
  L 22.01 28.77
  A 0.43 0.43 0.0 0 1 21.60 28.21
  Q 22.61 25.06 20.74 22.48
  A 0.63 0.31 64.2 0 0 20.40 22.21
  Q 20.35 22.20 20.31 22.25
  A 0.17 0.02 -44.7 0 0 20.21 22.38
  Q 21.76 25.65 19.98 28.09
  A 0.29 0.29 0.0 0 1 19.45 27.93
  Q 19.16 22.58 17.71 19.24
  A 0.41 0.41 0.0 0 0 16.92 19.35
  Q 16.32 23.67 17.25 28.11
  A 0.99 0.96 -35.3 0 1 17.11 28.86
  L 16.61 29.65
  A 2.24 2.23 -28.9 0 0 16.26 30.85
  L 16.26 42.15
  A 1.33 1.33 0.0 0 1 15.87 43.09
  L 15.06 43.91
  A 1.43 1.41 -23.5 0 0 14.63 44.97
  L 14.71 49.45
  A 2.34 2.33 -1.5 0 0 17.12 51.74
  Q 18.08 51.75 32.99 51.74
  Z"
/>
<path fill="#ffffff" d="
  M 32.98 18.63
  Q 33.21 18.63 33.25 18.66
  Q 37.87 22.01 37.21 27.90
  A 0.20 0.20 0.0 0 0 37.58 28.01
  Q 40.33 22.61 37.48 17.39
  A 0.15 0.14 -80.9 0 1 37.71 17.22
  Q 41.97 22.03 39.93 28.11
  A 0.50 0.49 -81.0 0 0 40.40 28.76
  L 43.95 28.76
  A 0.43 0.43 0.0 0 0 44.36 28.20
  Q 43.35 25.05 45.22 22.47
  A 0.63 0.31 -64.2 0 1 45.56 22.20
  Q 45.61 22.19 45.65 22.24
  A 0.17 0.02 44.7 0 1 45.75 22.37
  Q 44.20 25.64 45.98 28.08
  A 0.29 0.29 0.0 0 0 46.51 27.92
  Q 46.80 22.57 48.25 19.23
  A 0.41 0.41 0.0 0 1 49.04 19.34
  Q 49.64 23.66 48.71 28.10
  A 0.99 0.96 35.3 0 0 48.85 28.85
  L 49.36 29.64
  A 2.24 2.23 28.9 0 1 49.71 30.84
  L 49.71 42.14
  A 1.33 1.33 0.0 0 0 50.10 43.08
  L 50.91 43.90
  A 1.43 1.41 23.5 0 1 51.34 44.96
  L 51.27 49.44
  A 2.34 2.33 1.5 0 1 48.85 51.73
  Q 47.90 51.74 32.99 51.74
  Q 18.08 51.75 17.12 51.74
  A 2.34 2.33 -1.5 0 1 14.71 49.45
  L 14.63 44.97
  A 1.43 1.41 -23.5 0 1 15.06 43.91
  L 15.87 43.09
  A 1.33 1.33 0.0 0 0 16.26 42.15
  L 16.26 30.85
  A 2.24 2.23 -28.9 0 1 16.61 29.65
  L 17.11 28.86
  A 0.99 0.96 -35.3 0 0 17.25 28.11
  Q 16.32 23.67 16.92 19.35
  A 0.41 0.41 0.0 0 1 17.71 19.24
  Q 19.16 22.58 19.45 27.93
  A 0.29 0.29 0.0 0 0 19.98 28.09
  Q 21.76 25.65 20.21 22.38
  A 0.17 0.02 -44.7 0 1 20.31 22.25
  Q 20.35 22.20 20.40 22.21
  A 0.63 0.31 64.2 0 1 20.74 22.48
  Q 22.61 25.06 21.60 28.21
  A 0.43 0.43 0.0 0 0 22.01 28.77
  L 25.56 28.76
  A 0.50 0.49 81.0 0 0 26.03 28.11
  Q 23.99 22.03 28.25 17.22
  A 0.15 0.14 80.9 0 1 28.48 17.39
  Q 25.63 22.61 28.38 28.01
  A 0.20 0.20 0.0 0 0 28.75 27.90
  Q 28.09 22.01 32.71 18.66
  Q 32.75 18.63 32.98 18.63
  Z
  M 30.40 28.72
  L 35.58 28.72
  A 0.37 0.37 0.0 0 0 35.95 28.35
  L 35.95 28.17
  A 6.61 2.89 -90.0 0 0 33.06 21.56
  L 32.92 21.56
  A 6.61 2.89 90.0 0 0 30.03 28.17
  L 30.03 28.35
  A 0.37 0.37 0.0 0 0 30.40 28.72
  Z
  M 19.61 41.33
  A 0.01 0.01 0.0 0 0 19.63 41.34
  L 21.12 39.83
  A 0.77 0.76 -50.3 0 1 22.08 39.74
  Q 22.94 40.31 23.27 41.21
  A 0.23 0.23 0.0 0 0 23.71 41.12
  L 23.66 34.79
  A 1.34 1.33 -0.4 0 0 22.32 33.47
  L 20.76 33.49
  A 1.21 1.21 0.0 0 0 19.56 34.70
  L 19.61 41.33
  Z
  M 29.36 41.31
  L 29.36 34.71
  A 1.20 1.20 0.0 0 0 28.16 33.51
  L 26.61 33.51
  A 1.33 1.32 0.0 0 0 25.28 34.83
  L 25.28 41.13
  A 0.23 0.23 0.0 0 0 25.72 41.21
  Q 26.04 40.32 26.89 39.74
  A 0.77 0.75 49.8 0 1 27.85 39.83
  L 29.34 41.32
  A 0.01 0.01 0.0 0 0 29.36 41.31
  Z
  M 33.02 47.28
  Q 33.95 47.28 34.49 46.96
  A 1.08 1.07 -12.2 0 0 35.01 46.16
  Q 35.22 44.41 34.47 42.53
  A 1.49 1.47 -45.9 0 1 34.46 41.42
  Q 35.48 38.79 34.84 34.30
  A 0.92 0.92 0.0 0 0 33.95 33.51
  Q 33.09 33.49 32.98 33.49
  Q 32.88 33.49 32.01 33.52
  A 0.92 0.92 0.0 0 0 31.13 34.31
  Q 30.52 38.80 31.55 41.43
  A 1.49 1.47 45.6 0 1 31.55 42.54
  Q 30.81 44.42 31.03 46.17
  A 1.08 1.07 11.9 0 0 31.55 46.97
  Q 32.10 47.29 33.02 47.28
  Z
  M 36.63 41.33
  A 0.01 0.01 0.0 0 0 36.65 41.34
  L 38.14 39.83
  A 0.77 0.75 -50.2 0 1 39.10 39.74
  Q 39.95 40.31 40.28 41.20
  A 0.23 0.23 0.0 0 0 40.72 41.12
  L 40.68 34.80
  A 1.33 1.32 -0.4 0 0 39.34 33.49
  L 37.78 33.50
  A 1.20 1.20 0.0 0 0 36.59 34.71
  L 36.63 41.33
  Z
  M 46.35 41.26
  L 46.38 34.69
  A 1.20 1.20 0.0 0 0 45.19 33.49
  L 43.65 33.48
  A 1.32 1.31 0.3 0 0 42.32 34.79
  L 42.29 41.06
  A 0.23 0.22 55.3 0 0 42.73 41.15
  Q 43.05 40.26 43.90 39.69
  A 0.76 0.75 50.1 0 1 44.85 39.78
  L 46.33 41.27
  A 0.01 0.01 0.0 0 0 46.35 41.26
  Z
  M 20.38 47.16
  L 22.88 47.18
  A 0.73 0.73 0.0 0 0 23.61 46.45
  L 23.61 46.21
  A 5.47 1.91 -89.6 0 0 21.74 40.73
  L 21.60 40.73
  A 5.47 1.91 -89.6 0 0 19.65 46.19
  L 19.65 46.43
  A 0.73 0.73 0.0 0 0 20.38 47.16
  Z
  M 26.03 47.14
  L 28.55 47.18
  A 0.72 0.72 0.0 0 0 29.28 46.47
  L 29.28 46.21
  A 5.44 1.91 -89.2 0 0 27.44 40.74
  L 27.30 40.74
  A 5.44 1.91 -89.2 0 0 25.32 46.15
  L 25.32 46.41
  A 0.72 0.72 0.0 0 0 26.03 47.14
  Z
  M 37.42 47.15
  L 39.90 47.17
  A 0.72 0.72 0.0 0 0 40.63 46.45
  L 40.63 46.24
  A 5.51 1.89 -89.7 0 0 38.77 40.72
  L 38.63 40.72
  A 5.51 1.89 -89.7 0 0 36.71 46.22
  L 36.71 46.43
  A 0.72 0.72 0.0 0 0 37.42 47.15
  Z
  M 43.05 47.15
  L 45.53 47.19
  A 0.71 0.71 0.0 0 0 46.25 46.50
  L 46.26 46.12
  A 5.31 1.89 -88.9 0 0 44.47 40.77
  L 44.35 40.77
  A 5.31 1.89 -88.9 0 0 42.36 46.04
  L 42.35 46.42
  A 0.71 0.71 0.0 0 0 43.05 47.15
  Z"
/>
<path fill="#34362c" d="
  M 30.40 28.72
  A 0.37 0.37 0.0 0 1 30.03 28.35
  L 30.03 28.17
  A 6.61 2.89 -90.0 0 1 32.92 21.56
  L 33.06 21.56
  A 6.61 2.89 -90.0 0 1 35.95 28.17
  L 35.95 28.35
  A 0.37 0.37 0.0 0 1 35.58 28.72
  L 30.40 28.72
  Z"
/>
<path fill="#34362c" d="
  M 19.61 41.33
  L 19.56 34.70
  A 1.21 1.21 0.0 0 1 20.76 33.49
  L 22.32 33.47
  A 1.34 1.33 -0.4 0 1 23.66 34.79
  L 23.71 41.12
  A 0.23 0.23 0.0 0 1 23.27 41.21
  Q 22.94 40.31 22.08 39.74
  A 0.77 0.76 -50.3 0 0 21.12 39.83
  L 19.63 41.34
  A 0.01 0.01 0.0 0 1 19.61 41.33
  Z"
/>
<path fill="#34362c" d="
  M 29.34 41.32
  L 27.85 39.83
  A 0.77 0.75 49.8 0 0 26.89 39.74
  Q 26.04 40.32 25.72 41.21
  A 0.23 0.23 0.0 0 1 25.28 41.13
  L 25.28 34.83
  A 1.33 1.32 -0.0 0 1 26.61 33.51
  L 28.16 33.51
  A 1.20 1.20 0.0 0 1 29.36 34.71
  L 29.36 41.31
  A 0.01 0.01 0.0 0 1 29.34 41.32
  Z"
/>
<path fill="#34362c" d="
  M 32.98 33.49
  Q 33.09 33.49 33.95 33.51
  A 0.92 0.92 0.0 0 1 34.84 34.30
  Q 35.48 38.79 34.46 41.42
  A 1.49 1.47 -45.9 0 0 34.47 42.53
  Q 35.22 44.41 35.01 46.16
  A 1.08 1.07 -12.2 0 1 34.49 46.96
  Q 33.95 47.28 33.02 47.28
  Q 32.10 47.29 31.55 46.97
  A 1.08 1.07 11.9 0 1 31.03 46.17
  Q 30.81 44.42 31.55 42.54
  A 1.49 1.47 45.6 0 0 31.55 41.43
  Q 30.52 38.80 31.13 34.31
  A 0.92 0.92 0.0 0 1 32.01 33.52
  Q 32.88 33.49 32.98 33.49
  Z
  M 32.0506 40.2854
  A 0.99 0.72 -171.6 0 0 32.9248 41.1423
  A 0.99 0.72 -171.6 0 0 34.0094 40.5746
  A 0.99 0.72 -171.6 0 0 33.1352 39.7177
  A 0.99 0.72 -171.6 0 0 32.0506 40.2854
  Z"
/>
<path fill="#34362c" d="
  M 36.63 41.33
  L 36.59 34.71
  A 1.20 1.20 0.0 0 1 37.78 33.50
  L 39.34 33.49
  A 1.33 1.32 -0.4 0 1 40.68 34.80
  L 40.72 41.12
  A 0.23 0.23 0.0 0 1 40.28 41.20
  Q 39.95 40.31 39.10 39.74
  A 0.77 0.75 -50.2 0 0 38.14 39.83
  L 36.65 41.34
  A 0.01 0.01 0.0 0 1 36.63 41.33
  Z"
/>
<path fill="#34362c" d="
  M 46.35 41.26
  A 0.01 0.01 0.0 0 1 46.33 41.27
  L 44.85 39.78
  A 0.76 0.75 50.1 0 0 43.90 39.69
  Q 43.05 40.26 42.73 41.15
  A 0.23 0.22 55.3 0 1 42.29 41.06
  L 42.32 34.79
  A 1.32 1.31 0.3 0 1 43.65 33.48
  L 45.19 33.49
  A 1.20 1.20 0.0 0 1 46.38 34.69
  L 46.35 41.26
  Z"
/>
<ellipse fill="#ffffff" cx="0.00" cy="0.00" transform="translate(33.03,40.43) rotate(-171.6)" rx="0.99" ry="0.72"/>
<path fill="#34362c" d="
  M 20.38 47.16
  A 0.73 0.73 0.0 0 1 19.65 46.43
  L 19.65 46.19
  A 5.47 1.91 -89.6 0 1 21.60 40.73
  L 21.74 40.73
  A 5.47 1.91 -89.6 0 1 23.61 46.21
  L 23.61 46.45
  A 0.73 0.73 0.0 0 1 22.88 47.18
  L 20.38 47.16
  Z"
/>
<path fill="#34362c" d="
  M 26.03 47.14
  A 0.72 0.72 0.0 0 1 25.32 46.41
  L 25.32 46.15
  A 5.44 1.91 -89.2 0 1 27.30 40.74
  L 27.44 40.74
  A 5.44 1.91 -89.2 0 1 29.28 46.21
  L 29.28 46.47
  A 0.72 0.72 0.0 0 1 28.55 47.18
  L 26.03 47.14
  Z"
/>
<path fill="#34362c" d="
  M 37.42 47.15
  A 0.72 0.72 0.0 0 1 36.71 46.43
  L 36.71 46.22
  A 5.51 1.89 -89.7 0 1 38.63 40.72
  L 38.77 40.72
  A 5.51 1.89 -89.7 0 1 40.63 46.24
  L 40.63 46.45
  A 0.72 0.72 0.0 0 1 39.90 47.17
  L 37.42 47.15
  Z"
/>
<path fill="#34362c" d="
  M 43.05 47.15
  A 0.71 0.71 0.0 0 1 42.35 46.42
  L 42.36 46.04
  A 5.31 1.89 -88.9 0 1 44.35 40.77
  L 44.47 40.77
  A 5.31 1.89 -88.9 0 1 46.26 46.12
  L 46.25 46.50
  A 0.71 0.71 0.0 0 1 45.53 47.19
  L 43.05 47.15
  Z"
/>
</svg>
