<?xml version="1.0" encoding="UTF-8" standalone="no"?>
<!DOCTYPE svg PUBLIC "-//W3C//DTD SVG 1.1//EN" "http://www.w3.org/Graphics/SVG/1.1/DTD/svg11.dtd">
<svg xmlns="http://www.w3.org/2000/svg" version="1.1" viewBox="0.00 0.00 66.00 88.00">
<g stroke-width="2.00" fill="none" stroke-linecap="butt">
<path stroke="#282a22" vector-effect="non-scaling-stroke" d="
  M 33.39 86.52
  Q 33.51 86.52 33.61 86.50
  Q 33.65 86.49 33.77 86.37
  Q 47.18 74.13 56.36 58.63
  C 63.71 46.23 68.23 29.22 59.23 16.26
  Q 50.41 3.56 34.72 2.59
  Q 33.58 2.52 33.53 2.52
  Q 33.47 2.52 32.33 2.59
  Q 16.64 3.51 7.78 16.18
  C -1.26 29.11 3.20 46.13 10.51 58.56
  Q 19.64 74.09 33.01 86.37
  Q 33.13 86.49 33.17 86.50
  Q 33.28 86.52 33.39 86.52"
/>
<path stroke="#9a9b96" vector-effect="non-scaling-stroke" d="
  M 29.04 21.24
  Q 30.89 20.18 31.69 18.78
  A 1.91 1.80 26.5 0 0 30.74 16.20
  Q 27.99 15.00 25.36 17.28
  A 2.04 1.88 51.0 0 0 25.19 19.97
  Q 25.96 20.97 27.83 21.42
  A 1.66 1.66 0.0 0 0 29.04 21.24"
/>
<path stroke="#9a9b96" vector-effect="non-scaling-stroke" d="
  M 23.68 27.35
  Q 29.03 28.59 33.64 26.68
  C 35.00 26.12 35.76 24.55 34.74 23.32
  A 1.55 1.52 74.1 0 0 33.81 22.79
  Q 28.83 21.94 23.80 23.36
  A 1.51 1.49 6.5 0 0 22.91 24.06
  Q 22.36 25.00 22.87 26.60
  A 1.13 1.11 -1.8 0 0 23.68 27.35"
/>
<path stroke="#9a9b96" vector-effect="non-scaling-stroke" d="
  M 35.99 32.23
  A 0.99 0.98 9.7 0 0 35.14 31.04
  Q 28.51 30.25 22.67 30.23
  A 2.79 2.79 0.0 0 0 19.91 33.50
  L 19.92 33.59
  A 3.68 3.67 -6.6 0 0 23.77 36.63
  Q 30.13 36.24 35.52 32.80
  Q 35.92 32.55 35.99 32.23"
/>
<path stroke="#9a9b96" vector-effect="non-scaling-stroke" d="
  M 45.63 39.89
  L 44.83 35.79
  A 1.86 1.86 0.0 0 0 42.65 34.32
  L 39.95 34.84
  A 21.59 3.49 -11.0 0 0 19.42 42.39
  L 19.60 43.29
  A 21.59 3.49 -11.0 0 0 41.46 42.60
  L 44.16 42.07
  A 1.86 1.86 0.0 0 0 45.63 39.89"
/>
<path stroke="#9a9b96" vector-effect="non-scaling-stroke" d="
  M 14.96 49.14
  A 0.91 0.90 -72.2 0 0 15.65 50.49
  Q 31.54 52.10 47.38 51.15
  A 2.86 2.83 -76.5 0 0 49.67 49.73
  L 51.11 47.23
  A 1.10 1.10 0.0 0 0 50.23 45.58
  Q 46.79 45.34 45.26 45.54
  Q 30.15 47.46 16.72 47.80
  A 1.80 1.79 14.1 0 0 15.22 48.69
  L 14.96 49.14"
/>
</g>
<path fill="#1c1e18" d="
  M 33.80 88.00
  L 33.04 88.00
  C 22.01 77.99 11.60 65.24 5.59 51.41
  Q 2.11 43.43 1.55 34.82
  C 0.50 18.89 11.22 5.78 26.67 2.04
  C 37.18 -0.50 49.45 3.29 56.94 11.42
  Q 67.86 23.28 64.84 39.76
  Q 62.53 52.31 54.57 64.07
  Q 45.67 77.20 33.80 88.00
  Z
  M 33.39 86.52
  Q 33.51 86.52 33.61 86.50
  Q 33.65 86.49 33.77 86.37
  Q 47.18 74.13 56.36 58.63
  C 63.71 46.23 68.23 29.22 59.23 16.26
  Q 50.41 3.56 34.72 2.59
  Q 33.58 2.52 33.53 2.52
  Q 33.47 2.52 32.33 2.59
  Q 16.64 3.51 7.78 16.18
  C -1.26 29.11 3.20 46.13 10.51 58.56
  Q 19.64 74.09 33.01 86.37
  Q 33.13 86.49 33.17 86.50
  Q 33.28 86.52 33.39 86.52
  Z"
/>
<path fill="#34362c" d="
  M 33.53 2.52
  Q 33.58 2.52 34.72 2.59
  Q 50.41 3.56 59.23 16.26
  C 68.23 29.22 63.71 46.23 56.36 58.63
  Q 47.18 74.13 33.77 86.37
  Q 33.65 86.49 33.61 86.50
  Q 33.51 86.52 33.39 86.52
  Q 33.28 86.52 33.17 86.50
  Q 33.13 86.49 33.01 86.37
  Q 19.64 74.09 10.51 58.56
  C 3.20 46.13 -1.26 29.11 7.78 16.18
  Q 16.64 3.51 32.33 2.59
  Q 33.47 2.52 33.53 2.52
  Z
  M 29.04 21.24
  Q 30.89 20.18 31.69 18.78
  A 1.91 1.80 26.5 0 0 30.74 16.20
  Q 27.99 15.00 25.36 17.28
  A 2.04 1.88 51.0 0 0 25.19 19.97
  Q 25.96 20.97 27.83 21.42
  A 1.66 1.66 0.0 0 0 29.04 21.24
  Z
  M 23.68 27.35
  Q 29.03 28.59 33.64 26.68
  C 35.00 26.12 35.76 24.55 34.74 23.32
  A 1.55 1.52 74.1 0 0 33.81 22.79
  Q 28.83 21.94 23.80 23.36
  A 1.51 1.49 6.5 0 0 22.91 24.06
  Q 22.36 25.00 22.87 26.60
  A 1.13 1.11 -1.8 0 0 23.68 27.35
  Z
  M 35.99 32.23
  A 0.99 0.98 9.7 0 0 35.14 31.04
  Q 28.51 30.25 22.67 30.23
  A 2.79 2.79 0.0 0 0 19.91 33.50
  L 19.92 33.59
  A 3.68 3.67 -6.6 0 0 23.77 36.63
  Q 30.13 36.24 35.52 32.80
  Q 35.92 32.55 35.99 32.23
  Z
  M 45.63 39.89
  L 44.83 35.79
  A 1.86 1.86 0.0 0 0 42.65 34.32
  L 39.95 34.84
  A 21.59 3.49 -11.0 0 0 19.42 42.39
  L 19.60 43.29
  A 21.59 3.49 -11.0 0 0 41.46 42.60
  L 44.16 42.07
  A 1.86 1.86 0.0 0 0 45.63 39.89
  Z
  M 14.96 49.14
  A 0.91 0.90 -72.2 0 0 15.65 50.49
  Q 31.54 52.10 47.38 51.15
  A 2.86 2.83 -76.5 0 0 49.67 49.73
  L 51.11 47.23
  A 1.10 1.10 0.0 0 0 50.23 45.58
  Q 46.79 45.34 45.26 45.54
  Q 30.15 47.46 16.72 47.80
  A 1.80 1.79 14.1 0 0 15.22 48.69
  L 14.96 49.14
  Z"
/>
<path fill="#ffffff" d="
  M 27.83 21.42
  Q 25.96 20.97 25.19 19.97
  A 2.04 1.88 51.0 0 1 25.36 17.28
  Q 27.99 15.00 30.74 16.20
  A 1.91 1.80 26.5 0 1 31.69 18.78
  Q 30.89 20.18 29.04 21.24
  A 1.66 1.66 0.0 0 1 27.83 21.42
  Z"
/>
<path fill="#ffffff" d="
  M 22.87 26.60
  Q 22.36 25.00 22.91 24.06
  A 1.51 1.49 6.5 0 1 23.80 23.36
  Q 28.83 21.94 33.81 22.79
  A 1.55 1.52 74.1 0 1 34.74 23.32
  C 35.76 24.55 35.00 26.12 33.64 26.68
  Q 29.03 28.59 23.68 27.35
  A 1.13 1.11 -1.8 0 1 22.87 26.60
  Z"
/>
<path fill="#ffffff" d="
  M 35.99 32.23
  Q 35.92 32.55 35.52 32.80
  Q 30.13 36.24 23.77 36.63
  A 3.68 3.67 -6.6 0 1 19.92 33.59
  L 19.91 33.50
  A 2.79 2.79 0.0 0 1 22.67 30.23
  Q 28.51 30.25 35.14 31.04
  A 0.99 0.98 9.7 0 1 35.99 32.23
  Z"
/>
<path fill="#ffffff" d="
  M 45.63 39.89
  A 1.86 1.86 0.0 0 1 44.16 42.07
  L 41.46 42.60
  A 21.59 3.49 -11.0 0 1 19.60 43.29
  L 19.42 42.39
  A 21.59 3.49 -11.0 0 1 39.95 34.84
  L 42.65 34.32
  A 1.86 1.86 0.0 0 1 44.83 35.79
  L 45.63 39.89
  Z"
/>
<path fill="#ffffff" d="
  M 14.96 49.14
  L 15.22 48.69
  A 1.80 1.79 14.1 0 1 16.72 47.80
  Q 30.15 47.46 45.26 45.54
  Q 46.79 45.34 50.23 45.58
  A 1.10 1.10 0.0 0 1 51.11 47.23
  L 49.67 49.73
  A 2.86 2.83 -76.5 0 1 47.38 51.15
  Q 31.54 52.10 15.65 50.49
  A 0.91 0.90 -72.2 0 1 14.96 49.14
  Z"
/>
</svg>
