<?xml version="1.0" encoding="UTF-8" standalone="no"?>
<!DOCTYPE svg PUBLIC "-//W3C//DTD SVG 1.1//EN" "http://www.w3.org/Graphics/SVG/1.1/DTD/svg11.dtd">
<svg xmlns="http://www.w3.org/2000/svg" version="1.1" viewBox="0.00 0.00 66.00 88.00">
<g stroke-width="2.00" fill="none" stroke-linecap="butt">
<path stroke="#431a44" vector-effect="non-scaling-stroke" d="
  M 33.42 86.53
  Q 33.73 86.53 33.90 86.37
  C 44.37 76.58 53.87 64.87 59.90 51.69
  C 64.21 42.27 66.05 30.87 61.98 21.33
  C 57.14 9.98 45.89 2.49 33.49 2.48
  C 21.08 2.47 9.82 9.94 4.96 21.29
  C 0.88 30.82 2.70 42.22 6.99 51.65
  C 13.00 64.84 22.49 76.56 32.94 86.37
  Q 33.11 86.53 33.42 86.53"
/>
<path stroke="#ac91ac" vector-effect="non-scaling-stroke" d="
  M 38.35 28.75
  C 40.85 31.23 44.52 32.59 47.09 34.46
  A 0.32 0.31 -76.6 0 0 47.59 34.15
  Q 46.93 30.08 44.93 26.98
  A 0.42 0.41 73.3 0 1 45.27 26.34
  Q 51.55 26.23 51.16 19.93
  Q 51.08 18.64 49.73 17.30
  Q 48.39 15.97 47.10 15.89
  Q 40.80 15.53 40.72 21.81
  A 0.42 0.41 16.4 0 1 40.08 22.16
  Q 36.97 20.17 32.90 19.53
  A 0.32 0.31 -13.7 0 0 32.59 20.03
  C 34.47 22.59 35.85 26.26 38.35 28.75"
/>
<path stroke="#ac91ac" vector-effect="non-scaling-stroke" d="
  M 19.52 47.48
  C 28.29 56.20 42.85 52.23 46.77 40.98
  A 0.97 0.97 0.0 0 0 46.60 40.04
  Q 44.12 37.03 42.12 36.14
  Q 37.76 34.20 35.23 31.68
  Q 32.70 29.17 30.74 24.82
  Q 29.84 22.82 26.81 20.36
  A 0.97 0.97 0.0 0 0 25.87 20.19
  C 14.64 24.17 10.75 38.75 19.52 47.48"
/>
<path stroke="#ac91ac" vector-effect="non-scaling-stroke" d="
  M 48.16 21.01
  A 2.16 2.16 0.0 0 0 46.00 18.85
  A 2.16 2.16 0.0 0 0 43.84 21.01
  A 2.16 2.16 0.0 0 0 46.00 23.17
  A 2.16 2.16 0.0 0 0 48.16 21.01"
/>
</g>
<path fill="#2e112e" d="
  M 33.81 88.00
  L 33.14 88.00
  Q 16.52 73.26 6.73 54.02
  Q 2.25 45.23 1.61 35.16
  Q 1.02 25.77 5.21 18.10
  C 12.59 4.57 28.12 -1.73 43.19 2.84
  Q 51.42 5.33 57.12 11.62
  C 79.44 36.24 52.37 71.08 33.81 88.00
  Z
  M 33.42 86.53
  Q 33.73 86.53 33.90 86.37
  C 44.37 76.58 53.87 64.87 59.90 51.69
  C 64.21 42.27 66.05 30.87 61.98 21.33
  C 57.14 9.98 45.89 2.49 33.49 2.48
  C 21.08 2.47 9.82 9.94 4.96 21.29
  C 0.88 30.82 2.70 42.22 6.99 51.65
  C 13.00 64.84 22.49 76.56 32.94 86.37
  Q 33.11 86.53 33.42 86.53
  Z"
/>
<path fill="#582359" d="
  M 33.49 2.48
  C 45.89 2.49 57.14 9.98 61.98 21.33
  C 66.05 30.87 64.21 42.27 59.90 51.69
  C 53.87 64.87 44.37 76.58 33.90 86.37
  Q 33.73 86.53 33.42 86.53
  Q 33.11 86.53 32.94 86.37
  C 22.49 76.56 13.00 64.84 6.99 51.65
  C 2.70 42.22 0.88 30.82 4.96 21.29
  C 9.82 9.94 21.08 2.47 33.49 2.48
  Z
  M 38.35 28.75
  C 40.85 31.23 44.52 32.59 47.09 34.46
  A 0.32 0.31 -76.6 0 0 47.59 34.15
  Q 46.93 30.08 44.93 26.98
  A 0.42 0.41 73.3 0 1 45.27 26.34
  Q 51.55 26.23 51.16 19.93
  Q 51.08 18.64 49.73 17.30
  Q 48.39 15.97 47.10 15.89
  Q 40.80 15.53 40.72 21.81
  A 0.42 0.41 16.4 0 1 40.08 22.16
  Q 36.97 20.17 32.90 19.53
  A 0.32 0.31 -13.7 0 0 32.59 20.03
  C 34.47 22.59 35.85 26.26 38.35 28.75
  Z
  M 19.52 47.48
  C 28.29 56.20 42.85 52.23 46.77 40.98
  A 0.97 0.97 0.0 0 0 46.60 40.04
  Q 44.12 37.03 42.12 36.14
  Q 37.76 34.20 35.23 31.68
  Q 32.70 29.17 30.74 24.82
  Q 29.84 22.82 26.81 20.36
  A 0.97 0.97 0.0 0 0 25.87 20.19
  C 14.64 24.17 10.75 38.75 19.52 47.48
  Z"
/>
<path fill="#ffffff" d="
  M 49.73 17.30
  Q 51.08 18.64 51.16 19.93
  Q 51.55 26.23 45.27 26.34
  A 0.42 0.41 73.3 0 0 44.93 26.98
  Q 46.93 30.08 47.59 34.15
  A 0.32 0.31 -76.6 0 1 47.09 34.46
  C 44.52 32.59 40.85 31.23 38.35 28.75
  C 35.85 26.26 34.47 22.59 32.59 20.03
  A 0.32 0.31 -13.7 0 1 32.90 19.53
  Q 36.97 20.17 40.08 22.16
  A 0.42 0.41 16.4 0 0 40.72 21.81
  Q 40.80 15.53 47.10 15.89
  Q 48.39 15.97 49.73 17.30
  Z
  M 48.16 21.01
  A 2.16 2.16 0.0 0 0 46.00 18.85
  A 2.16 2.16 0.0 0 0 43.84 21.01
  A 2.16 2.16 0.0 0 0 46.00 23.17
  A 2.16 2.16 0.0 0 0 48.16 21.01
  Z"
/>
<circle fill="#582359" cx="46.00" cy="21.01" r="2.16"/>
<path fill="#ffffff" d="
  M 35.23 31.68
  Q 37.76 34.20 42.12 36.14
  Q 44.12 37.03 46.60 40.04
  A 0.97 0.97 0.0 0 1 46.77 40.98
  C 42.85 52.23 28.29 56.20 19.52 47.48
  C 10.75 38.75 14.64 24.17 25.87 20.19
  A 0.97 0.97 0.0 0 1 26.81 20.36
  Q 29.84 22.82 30.74 24.82
  Q 32.70 29.17 35.23 31.68
  Z"
/>
</svg>
