<?xml version="1.0" encoding="UTF-8" standalone="no"?>
<!DOCTYPE svg PUBLIC "-//W3C//DTD SVG 1.1//EN" "http://www.w3.org/Graphics/SVG/1.1/DTD/svg11.dtd">
<svg xmlns="http://www.w3.org/2000/svg" version="1.1" viewBox="0.00 0.00 66.00 88.00">
<g stroke-width="2.00" fill="none" stroke-linecap="butt">
<path stroke="#615742" vector-effect="non-scaling-stroke" d="
  M 33.39 86.68
  Q 33.53 86.68 33.66 86.65
  A 0.14 0.08 1.2 0 0 33.72 86.62
  C 50.38 71.24 75.71 38.85 58.75 15.52
  Q 49.67 3.03 33.75 2.47
  Q 33.65 2.47 33.55 2.47
  Q 33.45 2.47 33.35 2.47
  Q 17.43 2.97 8.30 15.43
  C -8.74 38.69 16.46 71.18 33.07 86.62
  A 0.14 0.08 -1.0 0 0 33.12 86.65
  Q 33.26 86.68 33.39 86.68"
/>
<path stroke="#c0b9ac" vector-effect="non-scaling-stroke" d="
  M 33.02 40.95
  C 38.75 40.94 42.59 35.84 41.78 30.28
  C 41.23 26.45 37.78 15.84 32.97 15.85
  C 28.16 15.86 24.75 26.49 24.21 30.32
  C 23.43 35.88 27.30 40.96 33.02 40.95"
/>
<path stroke="#c0b9ac" vector-effect="non-scaling-stroke" d="
  M 23.65 47.57
  Q 22.68 48.30 22.59 48.52
  A 1.79 1.78 0.8 0 0 24.90 50.89
  Q 26.55 50.22 28.72 49.20
  A 0.45 0.45 0.0 0 1 29.36 49.61
  C 29.32 53.74 33.16 51.34 34.99 50.67
  A 1.34 1.29 -48.8 0 1 35.70 50.61
  L 39.29 51.31
  A 0.85 0.83 -70.7 0 0 40.18 50.87
  Q 40.70 49.88 40.58 49.13
  A 0.61 0.61 0.0 0 1 40.97 48.47
  L 43.34 47.61
  A 0.41 0.39 -46.1 0 1 43.60 47.60
  L 46.84 48.48
  A 1.66 1.66 0.0 0 0 48.11 45.45
  L 47.00 44.81
  A 0.34 0.34 0.0 0 1 47.15 44.17
  C 49.28 44.07 50.83 43.03 49.43 41.15
  Q 49.01 40.59 48.96 40.15
  A 0.81 0.81 0.0 0 1 49.43 39.33
  Q 50.14 39.01 50.73 38.52
  A 1.63 1.63 0.0 0 0 49.13 35.73
  L 45.62 37.01
  A 1.24 1.21 -86.7 0 0 44.92 37.65
  Q 43.47 40.68 39.40 41.19
  A 2.08 2.02 18.2 0 0 38.21 41.77
  Q 32.97 47.03 27.99 41.83
  A 2.13 2.12 70.8 0 0 26.68 41.19
  Q 22.50 40.76 21.01 37.14
  A 0.95 0.94 80.0 0 0 20.19 36.56
  Q 19.54 36.54 16.57 35.81
  A 1.66 1.52 -85.9 0 0 14.70 37.58
  Q 14.81 39.16 17.36 39.24
  A 0.28 0.28 0.0 0 1 17.48 39.76
  L 15.69 40.70
  A 1.56 1.56 0.0 0 0 16.67 43.62
  Q 17.07 43.58 19.29 42.88
  A 0.35 0.35 0.0 0 1 19.67 43.43
  Q 19.37 43.82 18.99 44.06
  A 1.69 1.68 -60.1 0 0 19.82 47.16
  Q 21.38 47.23 23.48 47.09
  A 0.27 0.26 -64.8 0 1 23.65 47.57"
/>
</g>
<path fill="#413b2b" d="
  M 33.79 88.00
  L 33.03 88.00
  C 21.77 77.76 11.94 65.52 5.58 51.41
  Q 2.15 43.80 1.59 34.82
  C 0.35 15.10 17.22 -0.31 36.51 1.46
  C 45.41 2.28 54.00 6.94 59.27 14.17
  Q 67.40 25.33 64.93 39.27
  Q 62.69 51.85 55.07 63.31
  Q 46.03 76.90 33.79 88.00
  Z
  M 33.39 86.68
  Q 33.53 86.68 33.66 86.65
  A 0.14 0.08 1.2 0 0 33.72 86.62
  C 50.38 71.24 75.71 38.85 58.75 15.52
  Q 49.67 3.03 33.75 2.47
  Q 33.65 2.47 33.55 2.47
  Q 33.45 2.47 33.35 2.47
  Q 17.43 2.97 8.30 15.43
  C -8.74 38.69 16.46 71.18 33.07 86.62
  A 0.14 0.08 -1.0 0 0 33.12 86.65
  Q 33.26 86.68 33.39 86.68
  Z"
/>
<path fill="#807358" d="
  M 33.55 2.47
  Q 33.65 2.47 33.75 2.47
  Q 49.67 3.03 58.75 15.52
  C 75.71 38.85 50.38 71.24 33.72 86.62
  A 0.14 0.08 1.2 0 1 33.66 86.65
  Q 33.53 86.68 33.39 86.68
  Q 33.26 86.68 33.12 86.65
  A 0.14 0.08 -1.0 0 1 33.07 86.62
  C 16.46 71.18 -8.74 38.69 8.30 15.43
  Q 17.43 2.97 33.35 2.47
  Q 33.45 2.47 33.55 2.47
  Z
  M 33.02 40.95
  C 38.75 40.94 42.59 35.84 41.78 30.28
  C 41.23 26.45 37.78 15.84 32.97 15.85
  C 28.16 15.86 24.75 26.49 24.21 30.32
  C 23.43 35.88 27.30 40.96 33.02 40.95
  Z
  M 23.65 47.57
  Q 22.68 48.30 22.59 48.52
  A 1.79 1.78 0.8 0 0 24.90 50.89
  Q 26.55 50.22 28.72 49.20
  A 0.45 0.45 0.0 0 1 29.36 49.61
  C 29.32 53.74 33.16 51.34 34.99 50.67
  A 1.34 1.29 -48.8 0 1 35.70 50.61
  L 39.29 51.31
  A 0.85 0.83 -70.7 0 0 40.18 50.87
  Q 40.70 49.88 40.58 49.13
  A 0.61 0.61 0.0 0 1 40.97 48.47
  L 43.34 47.61
  A 0.41 0.39 -46.1 0 1 43.60 47.60
  L 46.84 48.48
  A 1.66 1.66 0.0 0 0 48.11 45.45
  L 47.00 44.81
  A 0.34 0.34 0.0 0 1 47.15 44.17
  C 49.28 44.07 50.83 43.03 49.43 41.15
  Q 49.01 40.59 48.96 40.15
  A 0.81 0.81 0.0 0 1 49.43 39.33
  Q 50.14 39.01 50.73 38.52
  A 1.63 1.63 0.0 0 0 49.13 35.73
  L 45.62 37.01
  A 1.24 1.21 -86.7 0 0 44.92 37.65
  Q 43.47 40.68 39.40 41.19
  A 2.08 2.02 18.2 0 0 38.21 41.77
  Q 32.97 47.03 27.99 41.83
  A 2.13 2.12 70.8 0 0 26.68 41.19
  Q 22.50 40.76 21.01 37.14
  A 0.95 0.94 80.0 0 0 20.19 36.56
  Q 19.54 36.54 16.57 35.81
  A 1.66 1.52 -85.9 0 0 14.70 37.58
  Q 14.81 39.16 17.36 39.24
  A 0.28 0.28 0.0 0 1 17.48 39.76
  L 15.69 40.70
  A 1.56 1.56 0.0 0 0 16.67 43.62
  Q 17.07 43.58 19.29 42.88
  A 0.35 0.35 0.0 0 1 19.67 43.43
  Q 19.37 43.82 18.99 44.06
  A 1.69 1.68 -60.1 0 0 19.82 47.16
  Q 21.38 47.23 23.48 47.09
  A 0.27 0.26 -64.8 0 1 23.65 47.57
  Z"
/>
<path fill="#ffffff" d="
  M 32.97 15.85
  C 37.78 15.84 41.23 26.45 41.78 30.28
  C 42.59 35.84 38.75 40.94 33.02 40.95
  C 27.30 40.96 23.43 35.88 24.21 30.32
  C 24.75 26.49 28.16 15.86 32.97 15.85
  Z"
/>
<path fill="#ffffff" d="
  M 23.65 47.57
  A 0.27 0.26 -64.8 0 0 23.48 47.09
  Q 21.38 47.23 19.82 47.16
  A 1.69 1.68 -60.1 0 1 18.99 44.06
  Q 19.37 43.82 19.67 43.43
  A 0.35 0.35 0.0 0 0 19.29 42.88
  Q 17.07 43.58 16.67 43.62
  A 1.56 1.56 0.0 0 1 15.69 40.70
  L 17.48 39.76
  A 0.28 0.28 0.0 0 0 17.36 39.24
  Q 14.81 39.16 14.70 37.58
  A 1.66 1.52 -85.9 0 1 16.57 35.81
  Q 19.54 36.54 20.19 36.56
  A 0.95 0.94 80.0 0 1 21.01 37.14
  Q 22.50 40.76 26.68 41.19
  A 2.13 2.12 70.8 0 1 27.99 41.83
  Q 32.97 47.03 38.21 41.77
  A 2.08 2.02 18.2 0 1 39.40 41.19
  Q 43.47 40.68 44.92 37.65
  A 1.24 1.21 -86.7 0 1 45.62 37.01
  L 49.13 35.73
  A 1.63 1.63 0.0 0 1 50.73 38.52
  Q 50.14 39.01 49.43 39.33
  A 0.81 0.81 0.0 0 0 48.96 40.15
  Q 49.01 40.59 49.43 41.15
  C 50.83 43.03 49.28 44.07 47.15 44.17
  A 0.34 0.34 0.0 0 0 47.00 44.81
  L 48.11 45.45
  A 1.66 1.66 0.0 0 1 46.84 48.48
  L 43.60 47.60
  A 0.41 0.39 -46.1 0 0 43.34 47.61
  L 40.97 48.47
  A 0.61 0.61 0.0 0 0 40.58 49.13
  Q 40.70 49.88 40.18 50.87
  A 0.85 0.83 -70.7 0 1 39.29 51.31
  L 35.70 50.61
  A 1.34 1.29 -48.8 0 0 34.99 50.67
  C 33.16 51.34 29.32 53.74 29.36 49.61
  A 0.45 0.45 0.0 0 0 28.72 49.20
  Q 26.55 50.22 24.90 50.89
  A 1.79 1.78 0.8 0 1 22.59 48.52
  Q 22.68 48.30 23.65 47.57
  Z"
/>
</svg>
