<?xml version="1.0" encoding="UTF-8" standalone="no"?>
<!DOCTYPE svg PUBLIC "-//W3C//DTD SVG 1.1//EN" "http://www.w3.org/Graphics/SVG/1.1/DTD/svg11.dtd">
<svg xmlns="http://www.w3.org/2000/svg" version="1.1" viewBox="0.00 0.00 66.00 88.00">
<g stroke-width="2.00" fill="none" stroke-linecap="butt">
<path stroke="#282a22" vector-effect="non-scaling-stroke" d="
  M 33.37 86.54
  Q 33.50 86.54 33.61 86.51
  Q 33.63 86.50 33.77 86.37
  C 44.53 76.40 54.11 64.60 60.07 51.26
  C 64.09 42.26 65.97 30.73 62.15 21.72
  C 57.19 10.05 46.33 2.64 33.54 2.61
  C 20.75 2.59 9.86 9.96 4.86 21.60
  C 1.00 30.60 2.84 42.14 6.82 51.15
  C 12.73 64.52 22.26 76.36 32.98 86.37
  Q 33.12 86.50 33.14 86.51
  Q 33.25 86.54 33.37 86.54"
/>
<path stroke="#9a9b96" vector-effect="non-scaling-stroke" d="
  M 23.94 21.34
  Q 23.85 22.27 23.84 22.51
  A 0.65 0.65 0.0 0 0 24.43 23.20
  L 36.18 24.05
  A 0.39 0.38 -85.5 0 1 36.53 24.47
  L 36.35 27.04
  A 1.80 1.80 0.0 0 0 38.02 28.97
  L 40.27 29.13
  A 1.43 1.42 2.2 0 0 41.80 27.72
  Q 41.80 26.08 42.17 23.05
  Q 42.37 20.01 42.67 18.40
  A 1.43 1.42 8.5 0 0 41.43 16.72
  L 39.19 16.46
  A 1.80 1.80 0.0 0 0 37.19 18.05
  L 36.89 20.61
  A 0.39 0.38 -83.7 0 1 36.47 20.96
  L 24.77 19.60
  A 0.65 0.65 0.0 0 0 24.05 20.18
  Q 24.03 20.42 23.94 21.34"
/>
<path stroke="#9a9b96" vector-effect="non-scaling-stroke" d="
  M 28.56 51.00
  A 1.67 1.66 -67.4 0 0 29.74 50.51
  L 31.70 48.55
  A 0.99 0.99 0.0 0 1 32.40 48.26
  L 37.48 48.26
  A 1.24 1.23 67.0 0 1 38.34 48.61
  L 40.09 50.36
  A 2.08 2.07 67.4 0 0 41.56 50.97
  L 46.61 50.97
  A 0.27 0.27 0.0 0 0 46.80 50.51
  L 43.30 47.01
  A 1.47 1.47 0.0 0 1 42.87 45.97
  L 42.87 40.05
  A 0.56 0.55 -0.0 0 1 43.43 39.50
  L 47.91 39.50
  A 0.41 0.40 90.0 0 0 48.31 39.09
  L 48.31 34.70
  A 0.47 0.46 0.0 0 0 47.84 34.24
  L 18.96 34.24
  A 1.42 1.42 0.0 0 0 17.73 36.37
  L 19.22 38.94
  A 4.10 4.09 75.1 0 0 22.77 41.00
  L 26.51 41.00
  A 1.27 1.24 -14.8 0 1 27.60 41.62
  L 28.82 43.74
  A 0.88 0.87 -37.8 0 1 28.68 44.80
  L 23.26 50.22
  A 0.46 0.46 0.0 0 0 23.58 51.00
  L 28.56 51.00"
/>
</g>
<path fill="#1c1e18" d="
  M 33.80 88.00
  L 33.04 88.00
  C 22.01 77.99 11.60 65.24 5.59 51.41
  Q 2.12 43.43 1.55 34.82
  C 0.50 18.90 11.24 5.75 26.65 2.05
  C 37.31 -0.51 49.62 3.34 57.12 11.62
  C 79.44 36.25 52.37 71.08 33.80 88.00
  Z
  M 33.37 86.54
  Q 33.50 86.54 33.61 86.51
  Q 33.63 86.50 33.77 86.37
  C 44.53 76.40 54.11 64.60 60.07 51.26
  C 64.09 42.26 65.97 30.73 62.15 21.72
  C 57.19 10.05 46.33 2.64 33.54 2.61
  C 20.75 2.59 9.86 9.96 4.86 21.60
  C 1.00 30.60 2.84 42.14 6.82 51.15
  C 12.73 64.52 22.26 76.36 32.98 86.37
  Q 33.12 86.50 33.14 86.51
  Q 33.25 86.54 33.37 86.54
  Z"
/>
<path fill="#34362c" d="
  M 33.37 86.54
  Q 33.25 86.54 33.14 86.51
  Q 33.12 86.50 32.98 86.37
  C 22.26 76.36 12.73 64.52 6.82 51.15
  C 2.84 42.14 1.00 30.60 4.86 21.60
  C 9.86 9.96 20.75 2.59 33.54 2.61
  C 46.33 2.64 57.19 10.05 62.15 21.72
  C 65.97 30.73 64.09 42.26 60.07 51.26
  C 54.11 64.60 44.53 76.40 33.77 86.37
  Q 33.63 86.50 33.61 86.51
  Q 33.50 86.54 33.37 86.54
  Z
  M 23.94 21.34
  Q 23.85 22.27 23.84 22.51
  A 0.65 0.65 0.0 0 0 24.43 23.20
  L 36.18 24.05
  A 0.39 0.38 -85.5 0 1 36.53 24.47
  L 36.35 27.04
  A 1.80 1.80 0.0 0 0 38.02 28.97
  L 40.27 29.13
  A 1.43 1.42 2.2 0 0 41.80 27.72
  Q 41.80 26.08 42.17 23.05
  Q 42.37 20.01 42.67 18.40
  A 1.43 1.42 8.5 0 0 41.43 16.72
  L 39.19 16.46
  A 1.80 1.80 0.0 0 0 37.19 18.05
  L 36.89 20.61
  A 0.39 0.38 -83.7 0 1 36.47 20.96
  L 24.77 19.60
  A 0.65 0.65 0.0 0 0 24.05 20.18
  Q 24.03 20.42 23.94 21.34
  Z
  M 28.56 51.00
  A 1.67 1.66 -67.4 0 0 29.74 50.51
  L 31.70 48.55
  A 0.99 0.99 0.0 0 1 32.40 48.26
  L 37.48 48.26
  A 1.24 1.23 67.0 0 1 38.34 48.61
  L 40.09 50.36
  A 2.08 2.07 67.4 0 0 41.56 50.97
  L 46.61 50.97
  A 0.27 0.27 0.0 0 0 46.80 50.51
  L 43.30 47.01
  A 1.47 1.47 0.0 0 1 42.87 45.97
  L 42.87 40.05
  A 0.56 0.55 -0.0 0 1 43.43 39.50
  L 47.91 39.50
  A 0.41 0.40 90.0 0 0 48.31 39.09
  L 48.31 34.70
  A 0.47 0.46 0.0 0 0 47.84 34.24
  L 18.96 34.24
  A 1.42 1.42 0.0 0 0 17.73 36.37
  L 19.22 38.94
  A 4.10 4.09 75.1 0 0 22.77 41.00
  L 26.51 41.00
  A 1.27 1.24 -14.8 0 1 27.60 41.62
  L 28.82 43.74
  A 0.88 0.87 -37.8 0 1 28.68 44.80
  L 23.26 50.22
  A 0.46 0.46 0.0 0 0 23.58 51.00
  L 28.56 51.00
  Z"
/>
<path fill="#ffffff" d="
  M 42.17 23.05
  Q 41.80 26.08 41.80 27.72
  A 1.43 1.42 2.2 0 1 40.27 29.13
  L 38.02 28.97
  A 1.80 1.80 0.0 0 1 36.35 27.04
  L 36.53 24.47
  A 0.39 0.38 -85.5 0 0 36.18 24.05
  L 24.43 23.20
  A 0.65 0.65 0.0 0 1 23.84 22.51
  Q 23.85 22.27 23.94 21.34
  Q 24.03 20.42 24.05 20.18
  A 0.65 0.65 0.0 0 1 24.77 19.60
  L 36.47 20.96
  A 0.39 0.38 -83.7 0 0 36.89 20.61
  L 37.19 18.05
  A 1.80 1.80 0.0 0 1 39.19 16.46
  L 41.43 16.72
  A 1.43 1.42 8.5 0 1 42.67 18.40
  Q 42.37 20.01 42.17 23.05
  Z"
/>
<path fill="#ffffff" d="
  M 23.26 50.22
  L 28.68 44.80
  A 0.88 0.87 -37.8 0 0 28.82 43.74
  L 27.60 41.62
  A 1.27 1.24 -14.8 0 0 26.51 41.00
  L 22.77 41.00
  A 4.10 4.09 75.1 0 1 19.22 38.94
  L 17.73 36.37
  A 1.42 1.42 0.0 0 1 18.96 34.24
  L 47.84 34.24
  A 0.47 0.46 0.0 0 1 48.31 34.70
  L 48.31 39.09
  A 0.41 0.40 -90.0 0 1 47.91 39.50
  L 43.43 39.50
  A 0.56 0.55 0.0 0 0 42.87 40.05
  L 42.87 45.97
  A 1.47 1.47 0.0 0 0 43.30 47.01
  L 46.80 50.51
  A 0.27 0.27 0.0 0 1 46.61 50.97
  L 41.56 50.97
  A 2.08 2.07 67.4 0 1 40.09 50.36
  L 38.34 48.61
  A 1.24 1.23 67.0 0 0 37.48 48.26
  L 32.40 48.26
  A 0.99 0.99 0.0 0 0 31.70 48.55
  L 29.74 50.51
  A 1.67 1.66 -67.4 0 1 28.56 51.00
  L 23.58 51.00
  A 0.46 0.46 0.0 0 1 23.26 50.22
  Z"
/>
</svg>
