<?xml version="1.0" encoding="UTF-8" standalone="no"?>
<!DOCTYPE svg PUBLIC "-//W3C//DTD SVG 1.1//EN" "http://www.w3.org/Graphics/SVG/1.1/DTD/svg11.dtd">
<svg xmlns="http://www.w3.org/2000/svg" version="1.1" viewBox="0.00 0.00 66.00 88.00">
<g stroke-width="2.00" fill="none" stroke-linecap="butt">
<path stroke="#464544" vector-effect="non-scaling-stroke" d="
  M 33.42 86.61
  C 34.17 86.61 33.57 86.67 33.79 86.46
  Q 46.99 74.21 55.83 59.63
  C 64.94 44.59 68.98 25.69 55.79 11.98
  C 50.05 6.00 42.03 2.50 33.53 2.49
  C 25.03 2.48 17.00 5.96 11.24 11.92
  C -1.98 25.60 2.01 44.51 11.08 59.57
  Q 19.88 74.17 33.05 86.46
  C 33.27 86.67 32.67 86.61 33.42 86.61"
/>
<path stroke="#aeadad" vector-effect="non-scaling-stroke" d="
  M 17.05 50.08
  L 25.08 44.15
  A 4.53 4.52 -63.5 0 1 27.70 43.27
  Q 29.16 43.21 42.84 43.28
  C 46.69 43.30 49.55 42.87 49.53 38.52
  Q 49.48 30.41 49.50 22.57
  C 49.51 20.01 48.88 17.67 45.99 17.58
  Q 38.83 17.36 20.30 17.57
  Q 16.67 17.61 16.60 21.08
  Q 16.43 29.50 16.52 49.81
  A 0.33 0.33 0.0 0 0 17.05 50.08"
/>
<path stroke="#aeadad" vector-effect="non-scaling-stroke" d="
  M 20.51 21.25
  A 0.35 0.35 0.0 0 0 20.16 21.60
  L 20.16 42.55
  A 0.35 0.35 0.0 0 0 20.72 42.83
  L 25.13 39.57
  A 0.35 0.35 0.0 0 1 25.34 39.50
  L 45.49 39.50
  A 0.35 0.35 0.0 0 0 45.84 39.15
  L 45.84 21.60
  A 0.35 0.35 0.0 0 0 45.49 21.25
  L 20.51 21.25"
/>
<path stroke="#aeadad" vector-effect="non-scaling-stroke" d="
  M 27.5206 28.8629
  A 0.35 0.35 0.0 0 0 27.1730 28.5104
  L 24.1931 28.4896
  A 0.35 0.35 0.0 0 0 23.8407 28.8372
  L 23.8194 31.8771
  A 0.35 0.35 0.0 0 0 24.1670 32.2296
  L 27.1469 32.2504
  A 0.35 0.35 0.0 0 0 27.4993 31.9028
  L 27.5206 28.8629"
/>
<path stroke="#aeadad" vector-effect="non-scaling-stroke" d="
  M 34.8499 28.9530
  A 0.42 0.42 0.0 0 0 34.4329 28.5300
  L 31.5730 28.5101
  A 0.42 0.42 0.0 0 0 31.1500 28.9271
  L 31.1301 31.7870
  A 0.42 0.42 0.0 0 0 31.5471 32.2100
  L 34.4070 32.2299
  A 0.42 0.42 0.0 0 0 34.8300 31.8129
  L 34.8499 28.9530"
/>
<path stroke="#aeadad" vector-effect="non-scaling-stroke" d="
  M 42.1648 28.8736
  A 0.38 0.38 0.0 0 0 41.7835 28.4949
  L 38.8635 28.5051
  A 0.38 0.38 0.0 0 0 38.4848 28.8864
  L 38.4952 31.8664
  A 0.38 0.38 0.0 0 0 38.8765 32.2451
  L 41.7965 32.2349
  A 0.38 0.38 0.0 0 0 42.1752 31.8536
  L 42.1648 28.8736"
/>
</g>
<path fill="#2f2f2e" d="
  M 33.79 88.00
  L 33.04 88.00
  C 16.92 73.35 -5.80 44.88 3.69 21.31
  C 8.43 9.55 19.42 1.99 32.21 1.36
  C 45.01 0.74 56.97 7.97 62.58 19.67
  C 66.90 28.71 65.97 39.66 62.41 48.85
  C 56.64 63.73 45.55 77.34 33.79 88.00
  Z
  M 33.42 86.61
  C 34.17 86.61 33.57 86.67 33.79 86.46
  Q 46.99 74.21 55.83 59.63
  C 64.94 44.59 68.98 25.69 55.79 11.98
  C 50.05 6.00 42.03 2.50 33.53 2.49
  C 25.03 2.48 17.00 5.96 11.24 11.92
  C -1.98 25.60 2.01 44.51 11.08 59.57
  Q 19.88 74.17 33.05 86.46
  C 33.27 86.67 32.67 86.61 33.42 86.61
  Z"
/>
<path fill="#5c5a5a" d="
  M 33.53 2.49
  C 42.03 2.50 50.05 6.00 55.79 11.98
  C 68.98 25.69 64.94 44.59 55.83 59.63
  Q 46.99 74.21 33.79 86.46
  C 33.57 86.67 34.17 86.61 33.42 86.61
  C 32.67 86.61 33.27 86.67 33.05 86.46
  Q 19.88 74.17 11.08 59.57
  C 2.01 44.51 -1.98 25.60 11.24 11.92
  C 17.00 5.96 25.03 2.48 33.53 2.49
  Z
  M 17.05 50.08
  L 25.08 44.15
  A 4.53 4.52 -63.5 0 1 27.70 43.27
  Q 29.16 43.21 42.84 43.28
  C 46.69 43.30 49.55 42.87 49.53 38.52
  Q 49.48 30.41 49.50 22.57
  C 49.51 20.01 48.88 17.67 45.99 17.58
  Q 38.83 17.36 20.30 17.57
  Q 16.67 17.61 16.60 21.08
  Q 16.43 29.50 16.52 49.81
  A 0.33 0.33 0.0 0 0 17.05 50.08
  Z"
/>
<path fill="#ffffff" d="
  M 16.52 49.81
  Q 16.43 29.50 16.60 21.08
  Q 16.67 17.61 20.30 17.57
  Q 38.83 17.36 45.99 17.58
  C 48.88 17.67 49.51 20.01 49.50 22.57
  Q 49.48 30.41 49.53 38.52
  C 49.55 42.87 46.69 43.30 42.84 43.28
  Q 29.16 43.21 27.70 43.27
  A 4.53 4.52 -63.5 0 0 25.08 44.15
  L 17.05 50.08
  A 0.33 0.33 0.0 0 1 16.52 49.81
  Z
  M 20.51 21.25
  A 0.35 0.35 0.0 0 0 20.16 21.60
  L 20.16 42.55
  A 0.35 0.35 0.0 0 0 20.72 42.83
  L 25.13 39.57
  A 0.35 0.35 0.0 0 1 25.34 39.50
  L 45.49 39.50
  A 0.35 0.35 0.0 0 0 45.84 39.15
  L 45.84 21.60
  A 0.35 0.35 0.0 0 0 45.49 21.25
  L 20.51 21.25
  Z"
/>
<path fill="#5c5a5a" d="
  M 20.51 21.25
  L 45.49 21.25
  A 0.35 0.35 0.0 0 1 45.84 21.60
  L 45.84 39.15
  A 0.35 0.35 0.0 0 1 45.49 39.50
  L 25.34 39.50
  A 0.35 0.35 0.0 0 0 25.13 39.57
  L 20.72 42.83
  A 0.35 0.35 0.0 0 1 20.16 42.55
  L 20.16 21.60
  A 0.35 0.35 0.0 0 1 20.51 21.25
  Z
  M 27.5206 28.8629
  A 0.35 0.35 0.0 0 0 27.1730 28.5104
  L 24.1931 28.4896
  A 0.35 0.35 0.0 0 0 23.8407 28.8372
  L 23.8194 31.8771
  A 0.35 0.35 0.0 0 0 24.1670 32.2296
  L 27.1469 32.2504
  A 0.35 0.35 0.0 0 0 27.4993 31.9028
  L 27.5206 28.8629
  Z
  M 34.8499 28.9530
  A 0.42 0.42 0.0 0 0 34.4329 28.5300
  L 31.5730 28.5101
  A 0.42 0.42 0.0 0 0 31.1500 28.9271
  L 31.1301 31.7870
  A 0.42 0.42 0.0 0 0 31.5471 32.2100
  L 34.4070 32.2299
  A 0.42 0.42 0.0 0 0 34.8300 31.8129
  L 34.8499 28.9530
  Z
  M 42.1648 28.8736
  A 0.38 0.38 0.0 0 0 41.7835 28.4949
  L 38.8635 28.5051
  A 0.38 0.38 0.0 0 0 38.4848 28.8864
  L 38.4952 31.8664
  A 0.38 0.38 0.0 0 0 38.8765 32.2451
  L 41.7965 32.2349
  A 0.38 0.38 0.0 0 0 42.1752 31.8536
  L 42.1648 28.8736
  Z"
/>
<rect fill="#ffffff" x="-1.84" y="-1.87" transform="translate(25.67,30.37) rotate(0.4)" width="3.68" height="3.74" rx="0.35"/>
<rect fill="#ffffff" x="-1.85" y="-1.85" transform="translate(32.99,30.37) rotate(0.4)" width="3.70" height="3.70" rx="0.42"/>
<rect fill="#ffffff" x="-1.84" y="-1.87" transform="translate(40.33,30.37) rotate(-0.2)" width="3.68" height="3.74" rx="0.38"/>
</svg>
