<?xml version="1.0" encoding="UTF-8" standalone="no"?>
<!DOCTYPE svg PUBLIC "-//W3C//DTD SVG 1.1//EN" "http://www.w3.org/Graphics/SVG/1.1/DTD/svg11.dtd">
<svg xmlns="http://www.w3.org/2000/svg" version="1.1" viewBox="0.00 0.00 66.00 88.00">
<g stroke-width="2.00" fill="none" stroke-linecap="butt">
<path stroke="#282a22" vector-effect="non-scaling-stroke" d="
  M 33.39 86.57
  Q 33.59 86.57 33.94 86.25
  Q 44.86 76.13 53.53 63.27
  C 59.72 54.11 65.08 41.70 64.17 30.85
  Q 62.81 14.70 48.50 6.44
  Q 41.91 2.64 33.54 2.62
  Q 25.18 2.61 18.57 6.39
  Q 4.23 14.60 2.82 30.74
  C 1.87 41.59 7.18 54.02 13.34 63.20
  Q 21.96 76.09 32.85 86.24
  Q 33.20 86.57 33.39 86.57"
/>
<path stroke="#9a9b96" vector-effect="non-scaling-stroke" d="
  M 20.81 38.88
  Q 24.70 45.64 33.17 45.77
  A 0.58 0.57 86.6 0 1 33.74 46.28
  Q 34.49 52.12 28.48 53.97
  A 0.15 0.15 0.0 0 0 28.52 54.27
  L 43.36 54.27
  A 0.17 0.17 0.0 0 0 43.41 53.94
  C 37.91 52.25 37.17 51.56 37.02 45.50
  A 0.94 0.94 0.0 0 1 37.55 44.64
  Q 43.49 41.78 45.04 36.23
  C 47.00 29.22 42.87 21.61 35.97 19.77
  A 1.34 1.34 0.0 0 1 35.03 18.87
  L 33.68 14.68
  A 0.35 0.35 0.0 0 0 33.00 14.79
  L 33.00 18.30
  A 0.85 0.85 0.0 0 1 32.19 19.15
  Q 29.23 19.30 25.67 20.99
  A 0.23 0.22 -22.9 0 0 25.55 21.27
  L 25.56 21.29
  A 0.26 0.26 0.0 0 0 25.87 21.45
  Q 28.80 20.60 31.79 21.33
  A 1.13 1.12 -84.5 0 1 32.64 22.37
  L 33.48 40.45
  A 0.67 0.66 -11.6 0 1 33.05 41.10
  Q 26.29 43.60 21.06 38.68
  A 0.16 0.16 0.0 0 0 20.81 38.88"
/>
<path stroke="#9a9b96" vector-effect="non-scaling-stroke" d="
  M 36.09 31.01
  Q 36.44 36.27 36.46 37.40
  A 0.33 0.33 0.0 0 0 37.07 37.59
  Q 39.26 34.45 39.02 30.82
  Q 38.78 27.18 36.19 24.37
  A 0.33 0.33 0.0 0 0 35.61 24.63
  Q 35.74 25.76 36.09 31.01"
/>
</g>
<path fill="#1c1e17" d="
  M 33.79 88.00
  L 33.04 88.00
  C 21.90 77.89 11.84 65.41 5.58 51.42
  Q 2.21 43.89 1.60 34.83
  C 0.52 18.87 11.39 5.50 26.74 2.05
  C 41.12 -1.19 55.95 6.02 62.58 19.69
  C 66.91 28.64 65.95 39.76 62.41 48.86
  C 56.60 63.76 45.58 77.31 33.79 88.00
  Z
  M 33.39 86.57
  Q 33.59 86.57 33.94 86.25
  Q 44.86 76.13 53.53 63.27
  C 59.72 54.11 65.08 41.70 64.17 30.85
  Q 62.81 14.70 48.50 6.44
  Q 41.91 2.64 33.54 2.62
  Q 25.18 2.61 18.57 6.39
  Q 4.23 14.60 2.82 30.74
  C 1.87 41.59 7.18 54.02 13.34 63.20
  Q 21.96 76.09 32.85 86.24
  Q 33.20 86.57 33.39 86.57
  Z"
/>
<path fill="#34362c" d="
  M 33.39 86.57
  Q 33.20 86.57 32.85 86.24
  Q 21.96 76.09 13.34 63.20
  C 7.18 54.02 1.87 41.59 2.82 30.74
  Q 4.23 14.60 18.57 6.39
  Q 25.18 2.61 33.54 2.62
  Q 41.91 2.64 48.50 6.44
  Q 62.81 14.70 64.17 30.85
  C 65.08 41.70 59.72 54.11 53.53 63.27
  Q 44.86 76.13 33.94 86.25
  Q 33.59 86.57 33.39 86.57
  Z
  M 20.81 38.88
  Q 24.70 45.64 33.17 45.77
  A 0.58 0.57 86.6 0 1 33.74 46.28
  Q 34.49 52.12 28.48 53.97
  A 0.15 0.15 0.0 0 0 28.52 54.27
  L 43.36 54.27
  A 0.17 0.17 0.0 0 0 43.41 53.94
  C 37.91 52.25 37.17 51.56 37.02 45.50
  A 0.94 0.94 0.0 0 1 37.55 44.64
  Q 43.49 41.78 45.04 36.23
  C 47.00 29.22 42.87 21.61 35.97 19.77
  A 1.34 1.34 0.0 0 1 35.03 18.87
  L 33.68 14.68
  A 0.35 0.35 0.0 0 0 33.00 14.79
  L 33.00 18.30
  A 0.85 0.85 0.0 0 1 32.19 19.15
  Q 29.23 19.30 25.67 20.99
  A 0.23 0.22 -22.9 0 0 25.55 21.27
  L 25.56 21.29
  A 0.26 0.26 0.0 0 0 25.87 21.45
  Q 28.80 20.60 31.79 21.33
  A 1.13 1.12 -84.5 0 1 32.64 22.37
  L 33.48 40.45
  A 0.67 0.66 -11.6 0 1 33.05 41.10
  Q 26.29 43.60 21.06 38.68
  A 0.16 0.16 0.0 0 0 20.81 38.88
  Z"
/>
<path fill="#ffffff" d="
  M 21.06 38.68
  Q 26.29 43.60 33.05 41.10
  A 0.67 0.66 -11.6 0 0 33.48 40.45
  L 32.64 22.37
  A 1.13 1.12 -84.5 0 0 31.79 21.33
  Q 28.80 20.60 25.87 21.45
  A 0.26 0.26 0.0 0 1 25.56 21.29
  L 25.55 21.27
  A 0.23 0.22 -22.9 0 1 25.67 20.99
  Q 29.23 19.30 32.19 19.15
  A 0.85 0.85 0.0 0 0 33.00 18.30
  L 33.00 14.79
  A 0.35 0.35 0.0 0 1 33.68 14.68
  L 35.03 18.87
  A 1.34 1.34 0.0 0 0 35.97 19.77
  C 42.87 21.61 47.00 29.22 45.04 36.23
  Q 43.49 41.78 37.55 44.64
  A 0.94 0.94 0.0 0 0 37.02 45.50
  C 37.17 51.56 37.91 52.25 43.41 53.94
  A 0.17 0.17 0.0 0 1 43.36 54.27
  L 28.52 54.27
  A 0.15 0.15 0.0 0 1 28.48 53.97
  Q 34.49 52.12 33.74 46.28
  A 0.58 0.57 86.6 0 0 33.17 45.77
  Q 24.70 45.64 20.81 38.88
  A 0.16 0.16 0.0 0 1 21.06 38.68
  Z
  M 36.09 31.01
  Q 36.44 36.27 36.46 37.40
  A 0.33 0.33 0.0 0 0 37.07 37.59
  Q 39.26 34.45 39.02 30.82
  Q 38.78 27.18 36.19 24.37
  A 0.33 0.33 0.0 0 0 35.61 24.63
  Q 35.74 25.76 36.09 31.01
  Z"
/>
<path fill="#34362c" d="
  M 39.02 30.82
  Q 39.26 34.45 37.07 37.59
  A 0.33 0.33 0.0 0 1 36.46 37.40
  Q 36.44 36.27 36.09 31.01
  Q 35.74 25.76 35.61 24.63
  A 0.33 0.33 0.0 0 1 36.19 24.37
  Q 38.78 27.18 39.02 30.82
  Z"
/>
</svg>
