<?xml version="1.0" encoding="UTF-8" standalone="no"?>
<!DOCTYPE svg PUBLIC "-//W3C//DTD SVG 1.1//EN" "http://www.w3.org/Graphics/SVG/1.1/DTD/svg11.dtd">
<svg xmlns="http://www.w3.org/2000/svg" version="1.1" viewBox="0.00 0.00 66.00 88.00">
<g stroke-width="2.00" fill="none" stroke-linecap="butt">
<path stroke="#431a44" vector-effect="non-scaling-stroke" d="
  M 33.42 86.53
  Q 33.70 86.53 33.88 86.36
  C 47.35 73.92 61.43 55.96 63.96 37.81
  C 66.60 18.83 52.77 3.04 33.75 2.46
  Q 33.63 2.46 33.51 2.46
  Q 33.38 2.46 33.26 2.46
  C 14.24 3.00 0.38 18.77 2.98 37.75
  C 5.48 55.91 19.52 73.89 32.97 86.36
  Q 33.15 86.53 33.42 86.53"
/>
<path stroke="#ac91ac" vector-effect="non-scaling-stroke" d="
  M 24.85 42.83
  L 22.68 42.83
  A 0.84 0.83 -85.5 0 0 21.86 43.54
  C 21.61 45.31 21.36 48.86 22.85 49.87
  Q 25.12 51.40 26.55 49.11
  C 28.04 46.75 25.73 43.71 29.48 42.40
  A 2.51 2.36 33.8 0 1 30.27 42.27
  L 44.96 42.27
  A 0.58 0.58 0.0 0 0 45.54 41.69
  L 45.54 33.76
  A 0.76 0.75 -84.4 0 0 44.94 33.02
  L 42.79 32.60
  A 0.27 0.27 0.0 0 1 42.77 32.07
  L 45.02 31.41
  A 0.75 0.74 -8.5 0 0 45.55 30.70
  L 45.55 24.57
  A 0.66 0.64 6.1 0 0 45.03 23.94
  L 44.04 23.75
  A 0.33 0.32 42.4 0 1 44.01 23.12
  L 44.84 22.87
  A 0.40 0.40 0.0 0 0 44.80 22.09
  L 43.83 21.90
  A 0.36 0.36 0.0 0 1 43.80 21.20
  Q 44.06 21.12 44.66 21.20
  A 0.79 0.78 1.2 0 0 45.54 20.36
  Q 45.14 15.82 40.99 15.80
  Q 18.91 15.70 18.89 15.70
  A 0.17 0.17 0.0 0 0 18.78 16.01
  Q 20.83 17.38 20.93 17.62
  C 22.19 20.45 21.70 23.14 21.73 27.04
  A 0.69 0.69 0.0 0 0 22.29 27.72
  L 24.41 28.14
  A 0.37 0.37 0.0 0 1 24.41 28.86
  Q 22.77 29.18 22.24 29.34
  A 0.79 0.79 0.0 0 0 22.34 30.87
  Q 22.70 30.94 22.86 31.07
  A 0.47 0.47 0.0 0 1 22.69 31.87
  Q 22.61 31.90 22.37 31.91
  A 0.67 0.66 89.1 0 0 21.73 32.58
  L 21.73 40.88
  A 0.81 0.81 0.0 0 0 22.38 41.67
  L 24.92 42.18
  A 0.33 0.33 0.0 0 1 24.85 42.83"
/>
<path stroke="#ac91ac" vector-effect="non-scaling-stroke" d="
  M 15.04 24.02
  L 19.52 23.96
  A 0.36 0.36 0.0 0 0 19.88 23.59
  L 19.83 20.34
  A 2.59 2.49 89.2 0 0 17.31 17.79
  L 17.09 17.79
  A 2.59 2.49 89.2 0 0 14.63 20.42
  L 14.68 23.67
  A 0.36 0.36 0.0 0 0 15.04 24.02"
/>
<path stroke="#ac91ac" vector-effect="non-scaling-stroke" d="
  M 25.92 52.24
  L 47.31 52.24
  A 3.32 3.30 -84.4 0 0 50.55 49.57
  L 51.25 46.08
  A 1.77 1.76 -84.4 0 0 49.52 43.97
  L 30.16 43.97
  A 1.12 1.12 0.0 0 0 29.04 45.08
  C 29.01 48.09 29.16 50.17 25.88 52.11
  A 0.07 0.07 0.0 0 0 25.92 52.24"
/>
<path stroke="#ac91ac" vector-effect="non-scaling-stroke" d="
  M 39.16 26.23
  A 0.47 0.47 0.0 0 0 38.69 25.76
  L 28.59 25.76
  A 0.47 0.47 0.0 0 0 28.12 26.23
  L 28.12 27.27
  A 0.47 0.47 0.0 0 0 28.59 27.74
  L 38.69 27.74
  A 0.47 0.47 0.0 0 0 39.16 27.27
  L 39.16 26.23"
/>
<path stroke="#ac91ac" vector-effect="non-scaling-stroke" d="
  M 39.1287 29.9872
  A 0.51 0.51 0.0 0 0 38.6169 29.4789
  L 32.2769 29.5011
  A 0.51 0.51 0.0 0 0 31.7687 30.0128
  L 31.7713 30.7528
  A 0.51 0.51 0.0 0 0 32.2831 31.2611
  L 38.6231 31.2389
  A 0.51 0.51 0.0 0 0 39.1313 30.7272
  L 39.1287 29.9872"
/>
<path stroke="#ac91ac" vector-effect="non-scaling-stroke" d="
  M 39.18 33.93
  A 0.65 0.65 0.0 0 0 38.53 33.28
  L 28.69 33.28
  A 0.65 0.65 0.0 0 0 28.04 33.93
  L 28.04 34.33
  A 0.65 0.65 0.0 0 0 28.69 34.98
  L 38.53 34.98
  A 0.65 0.65 0.0 0 0 39.18 34.33
  L 39.18 33.93"
/>
<path stroke="#ac91ac" vector-effect="non-scaling-stroke" d="
  M 39.1381 37.1972
  A 0.46 0.46 0.0 0 0 38.6765 36.7388
  L 32.2566 36.7612
  A 0.46 0.46 0.0 0 0 31.7982 37.2228
  L 31.8019 38.2828
  A 0.46 0.46 0.0 0 0 32.2635 38.7412
  L 38.6834 38.7188
  A 0.46 0.46 0.0 0 0 39.1418 38.2572
  L 39.1381 37.1972"
/>
</g>
<path fill="#2e112e" d="
  M 33.81 88.00
  L 33.04 88.00
  C 21.74 77.73 12.00 65.56 5.58 51.41
  Q 2.18 43.93 1.59 34.82
  C 0.60 19.40 10.65 6.37 25.31 2.38
  C 36.58 -0.70 49.36 2.94 57.32 11.83
  C 79.31 36.41 52.28 71.16 33.81 88.00
  Z
  M 33.42 86.53
  Q 33.70 86.53 33.88 86.36
  C 47.35 73.92 61.43 55.96 63.96 37.81
  C 66.60 18.83 52.77 3.04 33.75 2.46
  Q 33.63 2.46 33.51 2.46
  Q 33.38 2.46 33.26 2.46
  C 14.24 3.00 0.38 18.77 2.98 37.75
  C 5.48 55.91 19.52 73.89 32.97 86.36
  Q 33.15 86.53 33.42 86.53
  Z"
/>
<path fill="#582359" d="
  M 33.51 2.46
  Q 33.63 2.46 33.75 2.46
  C 52.77 3.04 66.60 18.83 63.96 37.81
  C 61.43 55.96 47.35 73.92 33.88 86.36
  Q 33.70 86.53 33.42 86.53
  Q 33.15 86.53 32.97 86.36
  C 19.52 73.89 5.48 55.91 2.98 37.75
  C 0.38 18.77 14.24 3.00 33.26 2.46
  Q 33.38 2.46 33.51 2.46
  Z
  M 24.85 42.83
  L 22.68 42.83
  A 0.84 0.83 -85.5 0 0 21.86 43.54
  C 21.61 45.31 21.36 48.86 22.85 49.87
  Q 25.12 51.40 26.55 49.11
  C 28.04 46.75 25.73 43.71 29.48 42.40
  A 2.51 2.36 33.8 0 1 30.27 42.27
  L 44.96 42.27
  A 0.58 0.58 0.0 0 0 45.54 41.69
  L 45.54 33.76
  A 0.76 0.75 -84.4 0 0 44.94 33.02
  L 42.79 32.60
  A 0.27 0.27 0.0 0 1 42.77 32.07
  L 45.02 31.41
  A 0.75 0.74 -8.5 0 0 45.55 30.70
  L 45.55 24.57
  A 0.66 0.64 6.1 0 0 45.03 23.94
  L 44.04 23.75
  A 0.33 0.32 42.4 0 1 44.01 23.12
  L 44.84 22.87
  A 0.40 0.40 0.0 0 0 44.80 22.09
  L 43.83 21.90
  A 0.36 0.36 0.0 0 1 43.80 21.20
  Q 44.06 21.12 44.66 21.20
  A 0.79 0.78 1.2 0 0 45.54 20.36
  Q 45.14 15.82 40.99 15.80
  Q 18.91 15.70 18.89 15.70
  A 0.17 0.17 0.0 0 0 18.78 16.01
  Q 20.83 17.38 20.93 17.62
  C 22.19 20.45 21.70 23.14 21.73 27.04
  A 0.69 0.69 0.0 0 0 22.29 27.72
  L 24.41 28.14
  A 0.37 0.37 0.0 0 1 24.41 28.86
  Q 22.77 29.18 22.24 29.34
  A 0.79 0.79 0.0 0 0 22.34 30.87
  Q 22.70 30.94 22.86 31.07
  A 0.47 0.47 0.0 0 1 22.69 31.87
  Q 22.61 31.90 22.37 31.91
  A 0.67 0.66 89.1 0 0 21.73 32.58
  L 21.73 40.88
  A 0.81 0.81 0.0 0 0 22.38 41.67
  L 24.92 42.18
  A 0.33 0.33 0.0 0 1 24.85 42.83
  Z
  M 15.04 24.02
  L 19.52 23.96
  A 0.36 0.36 0.0 0 0 19.88 23.59
  L 19.83 20.34
  A 2.59 2.49 89.2 0 0 17.31 17.79
  L 17.09 17.79
  A 2.59 2.49 89.2 0 0 14.63 20.42
  L 14.68 23.67
  A 0.36 0.36 0.0 0 0 15.04 24.02
  Z
  M 25.92 52.24
  L 47.31 52.24
  A 3.32 3.30 -84.4 0 0 50.55 49.57
  L 51.25 46.08
  A 1.77 1.76 -84.4 0 0 49.52 43.97
  L 30.16 43.97
  A 1.12 1.12 0.0 0 0 29.04 45.08
  C 29.01 48.09 29.16 50.17 25.88 52.11
  A 0.07 0.07 0.0 0 0 25.92 52.24
  Z"
/>
<path fill="#ffffff" d="
  M 24.92 42.18
  L 22.38 41.67
  A 0.81 0.81 0.0 0 1 21.73 40.88
  L 21.73 32.58
  A 0.67 0.66 89.1 0 1 22.37 31.91
  Q 22.61 31.90 22.69 31.87
  A 0.47 0.47 0.0 0 0 22.86 31.07
  Q 22.70 30.94 22.34 30.87
  A 0.79 0.79 0.0 0 1 22.24 29.34
  Q 22.77 29.18 24.41 28.86
  A 0.37 0.37 0.0 0 0 24.41 28.14
  L 22.29 27.72
  A 0.69 0.69 0.0 0 1 21.73 27.04
  C 21.70 23.14 22.19 20.45 20.93 17.62
  Q 20.83 17.38 18.78 16.01
  A 0.17 0.17 0.0 0 1 18.89 15.70
  Q 18.91 15.70 40.99 15.80
  Q 45.14 15.82 45.54 20.36
  A 0.79 0.78 1.2 0 1 44.66 21.20
  Q 44.06 21.12 43.80 21.20
  A 0.36 0.36 0.0 0 0 43.83 21.90
  L 44.80 22.09
  A 0.40 0.40 0.0 0 1 44.84 22.87
  L 44.01 23.12
  A 0.33 0.32 42.4 0 0 44.04 23.75
  L 45.03 23.94
  A 0.66 0.64 6.1 0 1 45.55 24.57
  L 45.55 30.70
  A 0.75 0.74 -8.5 0 1 45.02 31.41
  L 42.77 32.07
  A 0.27 0.27 0.0 0 0 42.79 32.60
  L 44.94 33.02
  A 0.76 0.75 -84.4 0 1 45.54 33.76
  L 45.54 41.69
  A 0.58 0.58 0.0 0 1 44.96 42.27
  L 30.27 42.27
  A 2.51 2.36 33.8 0 0 29.48 42.40
  C 25.73 43.71 28.04 46.75 26.55 49.11
  Q 25.12 51.40 22.85 49.87
  C 21.36 48.86 21.61 45.31 21.86 43.54
  A 0.84 0.83 -85.5 0 1 22.68 42.83
  L 24.85 42.83
  A 0.33 0.33 0.0 0 0 24.92 42.18
  Z
  M 39.16 26.23
  A 0.47 0.47 0.0 0 0 38.69 25.76
  L 28.59 25.76
  A 0.47 0.47 0.0 0 0 28.12 26.23
  L 28.12 27.27
  A 0.47 0.47 0.0 0 0 28.59 27.74
  L 38.69 27.74
  A 0.47 0.47 0.0 0 0 39.16 27.27
  L 39.16 26.23
  Z
  M 39.1287 29.9872
  A 0.51 0.51 0.0 0 0 38.6169 29.4789
  L 32.2769 29.5011
  A 0.51 0.51 0.0 0 0 31.7687 30.0128
  L 31.7713 30.7528
  A 0.51 0.51 0.0 0 0 32.2831 31.2611
  L 38.6231 31.2389
  A 0.51 0.51 0.0 0 0 39.1313 30.7272
  L 39.1287 29.9872
  Z
  M 39.18 33.93
  A 0.65 0.65 0.0 0 0 38.53 33.28
  L 28.69 33.28
  A 0.65 0.65 0.0 0 0 28.04 33.93
  L 28.04 34.33
  A 0.65 0.65 0.0 0 0 28.69 34.98
  L 38.53 34.98
  A 0.65 0.65 0.0 0 0 39.18 34.33
  L 39.18 33.93
  Z
  M 39.1381 37.1972
  A 0.46 0.46 0.0 0 0 38.6765 36.7388
  L 32.2566 36.7612
  A 0.46 0.46 0.0 0 0 31.7982 37.2228
  L 31.8019 38.2828
  A 0.46 0.46 0.0 0 0 32.2635 38.7412
  L 38.6834 38.7188
  A 0.46 0.46 0.0 0 0 39.1418 38.2572
  L 39.1381 37.1972
  Z"
/>
<path fill="#ffffff" d="
  M 15.04 24.02
  A 0.36 0.36 0.0 0 1 14.68 23.67
  L 14.63 20.42
  A 2.59 2.49 89.2 0 1 17.09 17.79
  L 17.31 17.79
  A 2.59 2.49 89.2 0 1 19.83 20.34
  L 19.88 23.59
  A 0.36 0.36 0.0 0 1 19.52 23.96
  L 15.04 24.02
  Z"
/>
<rect fill="#582359" x="28.12" y="25.76" width="11.04" height="1.98" rx="0.47"/>
<rect fill="#582359" x="-3.68" y="-0.88" transform="translate(35.45,30.37) rotate(-0.2)" width="7.36" height="1.76" rx="0.51"/>
<rect fill="#582359" x="28.04" y="33.28" width="11.14" height="1.70" rx="0.65"/>
<rect fill="#582359" x="-3.67" y="-0.99" transform="translate(35.47,37.74) rotate(-0.2)" width="7.34" height="1.98" rx="0.46"/>
<path fill="#ffffff" d="
  M 25.88 52.11
  C 29.16 50.17 29.01 48.09 29.04 45.08
  A 1.12 1.12 0.0 0 1 30.16 43.97
  L 49.52 43.97
  A 1.77 1.76 -84.4 0 1 51.25 46.08
  L 50.55 49.57
  A 3.32 3.30 -84.4 0 1 47.31 52.24
  L 25.92 52.24
  A 0.07 0.07 0.0 0 1 25.88 52.11
  Z"
/>
</svg>
