<?xml version="1.0" encoding="UTF-8" standalone="no"?>
<!DOCTYPE svg PUBLIC "-//W3C//DTD SVG 1.1//EN" "http://www.w3.org/Graphics/SVG/1.1/DTD/svg11.dtd">
<svg xmlns="http://www.w3.org/2000/svg" version="1.1" viewBox="0.00 0.00 66.00 88.00">
<g stroke-width="2.00" fill="none" stroke-linecap="butt">
<path stroke="#173f51" vector-effect="non-scaling-stroke" d="
  M 33.43 86.61
  C 34.08 86.62 33.58 86.66 33.79 86.47
  C 46.97 74.29 61.64 55.98 63.88 38.06
  Q 66.51 17.05 48.24 6.27
  Q 41.96 2.56 33.49 2.55
  Q 25.03 2.54 18.74 6.24
  Q 0.45 17.00 3.05 38.01
  C 5.26 55.94 19.90 74.27 33.07 86.47
  C 33.28 86.66 32.78 86.61 33.43 86.61"
/>
<path stroke="#8fa9b5" vector-effect="non-scaling-stroke" d="
  M 20.06 51.23
  L 24.12 51.23
  A 0.63 0.62 11.2 0 0 24.70 50.85
  L 27.23 44.85
  A 1.32 1.30 -3.9 0 1 27.78 44.23
  L 32.83 41.32
  A 1.08 1.07 -51.3 0 1 33.69 41.22
  C 36.44 42.05 39.15 41.60 41.65 43.19
  Q 44.43 44.94 45.24 46.31
  A 0.61 0.60 -30.2 0 0 46.06 46.52
  L 49.73 44.40
  A 0.50 0.50 0.0 0 0 49.70 43.52
  Q 47.89 42.63 46.22 43.31
  A 0.81 0.80 55.1 0 1 45.39 43.16
  L 42.51 40.59
  A 5.02 4.74 -7.4 0 0 41.56 39.90
  L 35.50 36.40
  A 0.60 0.60 0.0 0 1 35.27 35.61
  C 36.19 33.84 36.23 31.79 37.19 29.73
  Q 39.32 25.21 37.64 20.36
  A 1.17 1.16 -30.4 0 1 37.97 19.10
  Q 38.92 18.27 40.56 17.83
  A 0.51 0.51 0.0 0 0 40.49 16.83
  Q 38.26 16.51 36.44 17.34
  A 1.25 1.25 0.0 0 1 35.23 17.25
  Q 34.08 16.50 33.29 16.81
  A 0.49 0.49 0.0 0 0 33.15 17.64
  Q 36.26 20.36 35.83 25.35
  Q 35.80 25.75 34.29 27.76
  A 0.74 0.73 11.8 0 1 33.87 28.03
  L 33.06 28.20
  A 0.36 0.36 0.0 0 1 32.69 27.64
  Q 34.06 25.73 34.54 22.66
  A 0.98 0.97 -63.5 0 0 34.26 21.81
  C 32.98 20.55 32.44 16.77 29.43 17.08
  Q 26.61 17.37 24.13 19.05
  C 21.84 20.60 22.76 23.52 23.37 26.03
  A 1.52 1.48 11.8 0 0 23.93 26.86
  Q 26.53 28.76 28.49 29.27
  A 0.43 0.42 48.1 0 1 28.45 30.10
  Q 23.59 30.77 20.93 25.94
  A 1.07 1.04 -53.0 0 1 20.83 25.15
  Q 20.88 24.94 20.91 24.80
  A 0.98 0.98 0.0 0 0 20.60 23.91
  Q 18.40 21.91 16.42 23.12
  A 1.37 1.37 0.0 0 0 15.85 24.74
  Q 16.48 26.47 17.79 27.23
  C 19.91 28.46 21.68 30.42 24.84 32.97
  A 2.75 2.72 -15.9 0 0 25.71 33.45
  Q 28.01 34.21 29.54 36.36
  A 0.64 0.63 53.9 0 1 29.41 37.24
  Q 27.48 38.67 27.29 40.15
  A 1.36 1.35 74.4 0 1 26.80 41.03
  Q 24.05 43.30 23.29 48.05
  A 0.66 0.65 89.5 0 1 22.76 48.60
  Q 21.00 48.92 19.78 50.69
  A 0.35 0.34 -72.7 0 0 20.06 51.23"
/>
</g>
<path fill="#0e2b37" d="
  M 33.80 88.00
  L 33.15 88.00
  Q 15.60 72.48 6.00 52.51
  Q 2.31 44.85 1.62 35.22
  Q 0.94 25.68 5.27 17.99
  C 18.07 -4.76 50.84 -4.23 62.58 19.68
  C 66.96 28.61 65.92 39.68 62.37 48.90
  C 56.63 63.78 45.52 77.34 33.80 88.00
  Z
  M 33.43 86.61
  C 34.08 86.62 33.58 86.66 33.79 86.47
  C 46.97 74.29 61.64 55.98 63.88 38.06
  Q 66.51 17.05 48.24 6.27
  Q 41.96 2.56 33.49 2.55
  Q 25.03 2.54 18.74 6.24
  Q 0.45 17.00 3.05 38.01
  C 5.26 55.94 19.90 74.27 33.07 86.47
  C 33.28 86.66 32.78 86.61 33.43 86.61
  Z"
/>
<path fill="#1f526b" d="
  M 33.49 2.55
  Q 41.96 2.56 48.24 6.27
  Q 66.51 17.05 63.88 38.06
  C 61.64 55.98 46.97 74.29 33.79 86.47
  C 33.58 86.66 34.08 86.62 33.43 86.61
  C 32.78 86.61 33.28 86.66 33.07 86.47
  C 19.90 74.27 5.26 55.94 3.05 38.01
  Q 0.45 17.00 18.74 6.24
  Q 25.03 2.54 33.49 2.55
  Z
  M 20.06 51.23
  L 24.12 51.23
  A 0.63 0.62 11.2 0 0 24.70 50.85
  L 27.23 44.85
  A 1.32 1.30 -3.9 0 1 27.78 44.23
  L 32.83 41.32
  A 1.08 1.07 -51.3 0 1 33.69 41.22
  C 36.44 42.05 39.15 41.60 41.65 43.19
  Q 44.43 44.94 45.24 46.31
  A 0.61 0.60 -30.2 0 0 46.06 46.52
  L 49.73 44.40
  A 0.50 0.50 0.0 0 0 49.70 43.52
  Q 47.89 42.63 46.22 43.31
  A 0.81 0.80 55.1 0 1 45.39 43.16
  L 42.51 40.59
  A 5.02 4.74 -7.4 0 0 41.56 39.90
  L 35.50 36.40
  A 0.60 0.60 0.0 0 1 35.27 35.61
  C 36.19 33.84 36.23 31.79 37.19 29.73
  Q 39.32 25.21 37.64 20.36
  A 1.17 1.16 -30.4 0 1 37.97 19.10
  Q 38.92 18.27 40.56 17.83
  A 0.51 0.51 0.0 0 0 40.49 16.83
  Q 38.26 16.51 36.44 17.34
  A 1.25 1.25 0.0 0 1 35.23 17.25
  Q 34.08 16.50 33.29 16.81
  A 0.49 0.49 0.0 0 0 33.15 17.64
  Q 36.26 20.36 35.83 25.35
  Q 35.80 25.75 34.29 27.76
  A 0.74 0.73 11.8 0 1 33.87 28.03
  L 33.06 28.20
  A 0.36 0.36 0.0 0 1 32.69 27.64
  Q 34.06 25.73 34.54 22.66
  A 0.98 0.97 -63.5 0 0 34.26 21.81
  C 32.98 20.55 32.44 16.77 29.43 17.08
  Q 26.61 17.37 24.13 19.05
  C 21.84 20.60 22.76 23.52 23.37 26.03
  A 1.52 1.48 11.8 0 0 23.93 26.86
  Q 26.53 28.76 28.49 29.27
  A 0.43 0.42 48.1 0 1 28.45 30.10
  Q 23.59 30.77 20.93 25.94
  A 1.07 1.04 -53.0 0 1 20.83 25.15
  Q 20.88 24.94 20.91 24.80
  A 0.98 0.98 0.0 0 0 20.60 23.91
  Q 18.40 21.91 16.42 23.12
  A 1.37 1.37 0.0 0 0 15.85 24.74
  Q 16.48 26.47 17.79 27.23
  C 19.91 28.46 21.68 30.42 24.84 32.97
  A 2.75 2.72 -15.9 0 0 25.71 33.45
  Q 28.01 34.21 29.54 36.36
  A 0.64 0.63 53.9 0 1 29.41 37.24
  Q 27.48 38.67 27.29 40.15
  A 1.36 1.35 74.4 0 1 26.80 41.03
  Q 24.05 43.30 23.29 48.05
  A 0.66 0.65 89.5 0 1 22.76 48.60
  Q 21.00 48.92 19.78 50.69
  A 0.35 0.34 -72.7 0 0 20.06 51.23
  Z"
/>
<path fill="#ffffff" d="
  M 19.78 50.69
  Q 21.00 48.92 22.76 48.60
  A 0.66 0.65 89.5 0 0 23.29 48.05
  Q 24.05 43.30 26.80 41.03
  A 1.36 1.35 74.4 0 0 27.29 40.15
  Q 27.48 38.67 29.41 37.24
  A 0.64 0.63 53.9 0 0 29.54 36.36
  Q 28.01 34.21 25.71 33.45
  A 2.75 2.72 -15.9 0 1 24.84 32.97
  C 21.68 30.42 19.91 28.46 17.79 27.23
  Q 16.48 26.47 15.85 24.74
  A 1.37 1.37 0.0 0 1 16.42 23.12
  Q 18.40 21.91 20.60 23.91
  A 0.98 0.98 0.0 0 1 20.91 24.80
  Q 20.88 24.94 20.83 25.15
  A 1.07 1.04 -53.0 0 0 20.93 25.94
  Q 23.59 30.77 28.45 30.10
  A 0.43 0.42 48.1 0 0 28.49 29.27
  Q 26.53 28.76 23.93 26.86
  A 1.52 1.48 11.8 0 1 23.37 26.03
  C 22.76 23.52 21.84 20.60 24.13 19.05
  Q 26.61 17.37 29.43 17.08
  C 32.44 16.77 32.98 20.55 34.26 21.81
  A 0.98 0.97 -63.5 0 1 34.54 22.66
  Q 34.06 25.73 32.69 27.64
  A 0.36 0.36 0.0 0 0 33.06 28.20
  L 33.87 28.03
  A 0.74 0.73 11.8 0 0 34.29 27.76
  Q 35.80 25.75 35.83 25.35
  Q 36.26 20.36 33.15 17.64
  A 0.49 0.49 0.0 0 1 33.29 16.81
  Q 34.08 16.50 35.23 17.25
  A 1.25 1.25 0.0 0 0 36.44 17.34
  Q 38.26 16.51 40.49 16.83
  A 0.51 0.51 0.0 0 1 40.56 17.83
  Q 38.92 18.27 37.97 19.10
  A 1.17 1.16 -30.4 0 0 37.64 20.36
  Q 39.32 25.21 37.19 29.73
  C 36.23 31.79 36.19 33.84 35.27 35.61
  A 0.60 0.60 0.0 0 0 35.50 36.40
  L 41.56 39.90
  A 5.02 4.74 -7.4 0 1 42.51 40.59
  L 45.39 43.16
  A 0.81 0.80 55.1 0 0 46.22 43.31
  Q 47.89 42.63 49.70 43.52
  A 0.50 0.50 0.0 0 1 49.73 44.40
  L 46.06 46.52
  A 0.61 0.60 -30.2 0 1 45.24 46.31
  Q 44.43 44.94 41.65 43.19
  C 39.15 41.60 36.44 42.05 33.69 41.22
  A 1.08 1.07 -51.3 0 0 32.83 41.32
  L 27.78 44.23
  A 1.32 1.30 -3.9 0 0 27.23 44.85
  L 24.70 50.85
  A 0.63 0.62 11.2 0 1 24.12 51.23
  L 20.06 51.23
  A 0.35 0.34 -72.7 0 1 19.78 50.69
  Z"
/>
</svg>
