<?xml version="1.0" encoding="UTF-8" standalone="no"?>
<!DOCTYPE svg PUBLIC "-//W3C//DTD SVG 1.1//EN" "http://www.w3.org/Graphics/SVG/1.1/DTD/svg11.dtd">
<svg xmlns="http://www.w3.org/2000/svg" version="1.1" viewBox="0.00 0.00 66.00 88.00">
<g stroke-width="2.00" fill="none" stroke-linecap="butt">
<path stroke="#431a44" vector-effect="non-scaling-stroke" d="
  M 33.43 86.53
  Q 33.72 86.53 33.90 86.37
  Q 45.52 75.56 54.32 62.07
  C 62.56 49.45 68.44 32.09 60.54 18.44
  Q 51.76 3.27 33.75 2.46
  Q 33.62 2.45 33.49 2.45
  Q 33.36 2.45 33.23 2.46
  Q 15.22 3.24 6.42 18.40
  C -1.50 32.04 4.35 49.41 12.57 62.04
  Q 21.35 75.54 32.96 86.36
  Q 33.13 86.53 33.43 86.53"
/>
<path stroke="#ac91ac" vector-effect="non-scaling-stroke" d="
  M 46.1600 17.5457
  A 0.43 0.43 0.0 0 0 45.5519 17.5446
  L 28.5093 34.5279
  A 0.43 0.43 0.0 0 0 28.5082 35.1360
  L 30.4000 37.0343
  A 0.43 0.43 0.0 0 0 31.0081 37.0354
  L 48.0507 20.0521
  A 0.43 0.43 0.0 0 0 48.0518 19.4440
  L 46.1600 17.5457"
/>
<path stroke="#ac91ac" vector-effect="non-scaling-stroke" d="
  M 44.01 25.09
  Q 42.30 26.80 41.08 28.22
  A 0.37 0.37 0.0 0 0 41.44 28.82
  C 42.84 28.51 45.05 29.21 44.81 31.01
  Q 44.72 31.72 44.85 31.96
  A 0.66 0.65 62.1 0 0 45.74 32.24
  Q 45.75 32.24 48.45 29.53
  Q 51.16 26.82 51.16 26.81
  A 0.66 0.65 27.8 0 0 50.88 25.92
  Q 50.64 25.79 49.93 25.88
  C 48.13 26.12 47.43 23.92 47.73 22.51
  A 0.37 0.37 0.0 0 0 47.13 22.16
  Q 45.72 23.38 44.01 25.09"
/>
<path stroke="#ac91ac" vector-effect="non-scaling-stroke" d="
  M 29.03 37.12
  L 27.62 35.71
  A 0.37 0.37 0.0 0 0 27.02 36.13
  Q 27.21 36.56 28.26 37.92
  A 0.26 0.26 0.0 0 0 28.65 37.95
  L 29.03 37.58
  A 0.33 0.33 0.0 0 0 29.03 37.12"
/>
<path stroke="#ac91ac" vector-effect="non-scaling-stroke" d="
  M 16.87 48.79
  C 17.63 49.55 18.91 49.02 19.77 49.90
  A 0.50 0.46 69.9 0 0 20.06 50.05
  L 24.07 50.73
  A 2.63 2.59 -47.6 0 0 25.22 50.67
  C 29.37 49.52 29.65 44.93 27.53 41.71
  A 0.78 0.78 0.0 0 1 27.56 40.81
  Q 29.08 38.85 27.94 37.71
  Q 26.80 36.58 24.84 38.09
  A 0.78 0.78 0.0 0 1 23.94 38.12
  C 20.72 36.01 16.13 36.29 14.98 40.44
  A 2.63 2.59 -42.4 0 0 14.92 41.59
  L 15.61 45.60
  A 0.50 0.46 20.0 0 0 15.76 45.89
  C 16.64 46.74 16.11 48.03 16.87 48.79"
/>
<path stroke="#ac91ac" vector-effect="non-scaling-stroke" d="
  M 44.7781 25.9847
  A 1.94 1.42 -138.9 0 0 45.3065 28.3301
  A 1.94 1.42 -138.9 0 0 47.7019 28.5353
  A 1.94 1.42 -138.9 0 0 47.1735 26.1899
  A 1.94 1.42 -138.9 0 0 44.7781 25.9847"
/>
<path stroke="#ac91ac" vector-effect="non-scaling-stroke" d="
  M 19.84 45.88
  Q 19.91 45.95 19.95 46.04
  Q 21.55 49.77 25.70 48.78
  A 1.63 1.63 0.0 0 0 26.60 48.21
  C 29.06 45.09 24.86 43.81 23.39 42.34
  C 21.92 40.87 20.64 36.67 17.52 39.13
  A 1.63 1.63 0.0 0 0 16.95 40.03
  Q 15.96 44.18 19.69 45.78
  Q 19.78 45.82 19.84 45.88"
/>
</g>
<path fill="#2e112e" d="
  M 33.78 88.00
  L 33.15 88.00
  Q 15.61 72.49 6.00 52.51
  Q 2.22 44.66 1.62 35.11
  Q 1.03 25.56 5.35 17.82
  C 12.81 4.49 28.25 -1.70 43.18 2.83
  Q 51.34 5.30 57.13 11.62
  Q 68.23 23.74 64.57 41.41
  C 60.94 58.95 46.80 76.22 33.78 88.00
  Z
  M 33.43 86.53
  Q 33.72 86.53 33.90 86.37
  Q 45.52 75.56 54.32 62.07
  C 62.56 49.45 68.44 32.09 60.54 18.44
  Q 51.76 3.27 33.75 2.46
  Q 33.62 2.45 33.49 2.45
  Q 33.36 2.45 33.23 2.46
  Q 15.22 3.24 6.42 18.40
  C -1.50 32.04 4.35 49.41 12.57 62.04
  Q 21.35 75.54 32.96 86.36
  Q 33.13 86.53 33.43 86.53
  Z"
/>
<path fill="#582359" d="
  M 33.49 2.45
  Q 33.62 2.45 33.75 2.46
  Q 51.76 3.27 60.54 18.44
  C 68.44 32.09 62.56 49.45 54.32 62.07
  Q 45.52 75.56 33.90 86.37
  Q 33.72 86.53 33.43 86.53
  Q 33.13 86.53 32.96 86.36
  Q 21.35 75.54 12.57 62.04
  C 4.35 49.41 -1.50 32.04 6.42 18.40
  Q 15.22 3.24 33.23 2.46
  Q 33.36 2.45 33.49 2.45
  Z
  M 46.1600 17.5457
  A 0.43 0.43 0.0 0 0 45.5519 17.5446
  L 28.5093 34.5279
  A 0.43 0.43 0.0 0 0 28.5082 35.1360
  L 30.4000 37.0343
  A 0.43 0.43 0.0 0 0 31.0081 37.0354
  L 48.0507 20.0521
  A 0.43 0.43 0.0 0 0 48.0518 19.4440
  L 46.1600 17.5457
  Z
  M 44.01 25.09
  Q 42.30 26.80 41.08 28.22
  A 0.37 0.37 0.0 0 0 41.44 28.82
  C 42.84 28.51 45.05 29.21 44.81 31.01
  Q 44.72 31.72 44.85 31.96
  A 0.66 0.65 62.1 0 0 45.74 32.24
  Q 45.75 32.24 48.45 29.53
  Q 51.16 26.82 51.16 26.81
  A 0.66 0.65 27.8 0 0 50.88 25.92
  Q 50.64 25.79 49.93 25.88
  C 48.13 26.12 47.43 23.92 47.73 22.51
  A 0.37 0.37 0.0 0 0 47.13 22.16
  Q 45.72 23.38 44.01 25.09
  Z
  M 29.03 37.12
  L 27.62 35.71
  A 0.37 0.37 0.0 0 0 27.02 36.13
  Q 27.21 36.56 28.26 37.92
  A 0.26 0.26 0.0 0 0 28.65 37.95
  L 29.03 37.58
  A 0.33 0.33 0.0 0 0 29.03 37.12
  Z
  M 16.87 48.79
  C 17.63 49.55 18.91 49.02 19.77 49.90
  A 0.50 0.46 69.9 0 0 20.06 50.05
  L 24.07 50.73
  A 2.63 2.59 -47.6 0 0 25.22 50.67
  C 29.37 49.52 29.65 44.93 27.53 41.71
  A 0.78 0.78 0.0 0 1 27.56 40.81
  Q 29.08 38.85 27.94 37.71
  Q 26.80 36.58 24.84 38.09
  A 0.78 0.78 0.0 0 1 23.94 38.12
  C 20.72 36.01 16.13 36.29 14.98 40.44
  A 2.63 2.59 -42.4 0 0 14.92 41.59
  L 15.61 45.60
  A 0.50 0.46 20.0 0 0 15.76 45.89
  C 16.64 46.74 16.11 48.03 16.87 48.79
  Z"
/>
<rect fill="#ffffff" x="-12.46" y="-1.77" transform="translate(38.28,27.29) rotate(-44.9)" width="24.92" height="3.54" rx="0.43"/>
<path fill="#ffffff" d="
  M 48.45 29.53
  Q 45.75 32.24 45.74 32.24
  A 0.66 0.65 62.1 0 1 44.85 31.96
  Q 44.72 31.72 44.81 31.01
  C 45.05 29.21 42.84 28.51 41.44 28.82
  A 0.37 0.37 0.0 0 1 41.08 28.22
  Q 42.30 26.80 44.01 25.09
  Q 45.72 23.38 47.13 22.16
  A 0.37 0.37 0.0 0 1 47.73 22.51
  C 47.43 23.92 48.13 26.12 49.93 25.88
  Q 50.64 25.79 50.88 25.92
  A 0.66 0.65 27.8 0 1 51.16 26.81
  Q 51.16 26.82 48.45 29.53
  Z
  M 44.7781 25.9847
  A 1.94 1.42 -138.9 0 0 45.3065 28.3301
  A 1.94 1.42 -138.9 0 0 47.7019 28.5353
  A 1.94 1.42 -138.9 0 0 47.1735 26.1899
  A 1.94 1.42 -138.9 0 0 44.7781 25.9847
  Z"
/>
<ellipse fill="#582359" cx="0.00" cy="0.00" transform="translate(46.24,27.26) rotate(-138.9)" rx="1.94" ry="1.42"/>
<path fill="#ffffff" d="
  M 29.03 37.12
  A 0.33 0.33 0.0 0 1 29.03 37.58
  L 28.65 37.95
  A 0.26 0.26 0.0 0 1 28.26 37.92
  Q 27.21 36.56 27.02 36.13
  A 0.37 0.37 0.0 0 1 27.62 35.71
  L 29.03 37.12
  Z"
/>
<path fill="#ffffff" d="
  M 27.94 37.71
  Q 29.08 38.85 27.56 40.81
  A 0.78 0.78 0.0 0 0 27.53 41.71
  C 29.65 44.93 29.37 49.52 25.22 50.67
  A 2.63 2.59 -47.6 0 1 24.07 50.73
  L 20.06 50.05
  A 0.50 0.46 69.9 0 1 19.77 49.90
  C 18.91 49.02 17.63 49.55 16.87 48.79
  C 16.11 48.03 16.64 46.74 15.76 45.89
  A 0.50 0.46 20.0 0 1 15.61 45.60
  L 14.92 41.59
  A 2.63 2.59 -42.4 0 1 14.98 40.44
  C 16.13 36.29 20.72 36.01 23.94 38.12
  A 0.78 0.78 0.0 0 0 24.84 38.09
  Q 26.80 36.58 27.94 37.71
  Z
  M 19.84 45.88
  Q 19.91 45.95 19.95 46.04
  Q 21.55 49.77 25.70 48.78
  A 1.63 1.63 0.0 0 0 26.60 48.21
  C 29.06 45.09 24.86 43.81 23.39 42.34
  C 21.92 40.87 20.64 36.67 17.52 39.13
  A 1.63 1.63 0.0 0 0 16.95 40.03
  Q 15.96 44.18 19.69 45.78
  Q 19.78 45.82 19.84 45.88
  Z"
/>
<path fill="#582359" d="
  M 23.39 42.34
  C 24.86 43.81 29.06 45.09 26.60 48.21
  A 1.63 1.63 0.0 0 1 25.70 48.78
  Q 21.55 49.77 19.95 46.04
  Q 19.91 45.95 19.84 45.88
  Q 19.78 45.82 19.69 45.78
  Q 15.96 44.18 16.95 40.03
  A 1.63 1.63 0.0 0 1 17.52 39.13
  C 20.64 36.67 21.92 40.87 23.39 42.34
  Z"
/>
</svg>
