<?xml version="1.0" encoding="UTF-8" standalone="no"?>
<!DOCTYPE svg PUBLIC "-//W3C//DTD SVG 1.1//EN" "http://www.w3.org/Graphics/SVG/1.1/DTD/svg11.dtd">
<svg xmlns="http://www.w3.org/2000/svg" version="1.1" viewBox="0.00 0.00 66.00 88.00">
<g stroke-width="2.00" fill="none" stroke-linecap="butt">
<path stroke="#173f51" vector-effect="non-scaling-stroke" d="
  M 33.43 86.62
  C 33.72 86.62 33.67 86.63 33.80 86.50
  Q 48.52 72.90 57.63 56.39
  Q 64.02 44.81 64.23 33.25
  C 64.54 16.14 50.47 2.57 33.49 2.55
  C 16.52 2.54 2.43 16.09 2.71 33.20
  Q 2.90 44.76 9.27 56.35
  Q 18.35 72.88 33.05 86.50
  C 33.18 86.62 33.13 86.62 33.43 86.62"
/>
<path stroke="#8fa9b5" vector-effect="non-scaling-stroke" d="
  M 32.28 27.73
  L 32.28 40.30
  A 0.06 0.06 0.0 0 0 32.38 40.34
  L 37.07 36.49
  A 0.52 0.51 64.0 0 0 37.24 35.98
  L 32.47 16.51
  A 0.20 0.20 0.0 0 0 32.08 16.51
  L 27.34 35.71
  A 0.91 0.91 0.0 0 0 27.69 36.67
  L 29.30 37.84
  A 0.28 0.27 25.4 0 0 29.73 37.69
  L 32.19 27.72
  A 0.05 0.05 0.0 0 1 32.28 27.73"
/>
<path stroke="#8fa9b5" vector-effect="non-scaling-stroke" d="
  M 21.47 35.52
  L 21.47 42.18
  A 0.12 0.11 -20.9 0 0 21.66 42.26
  L 24.29 40.11
  A 0.74 0.73 -27.0 0 0 24.53 39.39
  L 21.68 27.79
  A 0.21 0.21 0.0 0 0 21.27 27.79
  L 18.48 39.09
  A 1.12 1.12 0.0 0 0 18.70 40.06
  L 19.08 40.51
  A 0.55 0.55 0.0 0 0 20.05 40.28
  Q 20.85 36.65 21.31 35.49
  A 0.08 0.08 0.0 0 1 21.47 35.52"
/>
<path stroke="#8fa9b5" vector-effect="non-scaling-stroke" d="
  M 43.64 35.53
  L 43.66 42.15
  A 0.12 0.11 -21.0 0 0 43.84 42.23
  L 46.45 40.08
  A 0.73 0.72 -27.1 0 0 46.69 39.37
  L 43.83 27.86
  A 0.21 0.21 0.0 0 0 43.42 27.86
  L 40.68 39.09
  A 1.11 1.11 0.0 0 0 40.90 40.05
  L 41.28 40.50
  A 0.55 0.55 0.0 0 0 42.24 40.27
  Q 43.03 36.66 43.48 35.50
  A 0.08 0.08 0.0 0 1 43.64 35.53"
/>
<path stroke="#8fa9b5" vector-effect="non-scaling-stroke" d="
  M 32.26 52.24
  Q 32.85 52.24 33.16 52.20
  A 0.64 0.64 0.0 0 0 33.71 51.56
  L 33.71 42.84
  A 0.22 0.22 0.0 0 0 33.36 42.67
  Q 32.57 43.25 32.31 43.25
  Q 32.04 43.24 31.26 42.66
  A 0.22 0.22 0.0 0 0 30.91 42.83
  L 30.82 51.55
  A 0.64 0.64 0.0 0 0 31.37 52.19
  Q 31.68 52.23 32.26 52.24"
/>
<path stroke="#8fa9b5" vector-effect="non-scaling-stroke" d="
  M 22.3533 44.2385
  A 0.34 0.34 0.0 0 0 22.0128 43.8991
  L 20.9328 43.9009
  A 0.34 0.34 0.0 0 0 20.5934 44.2415
  L 20.6067 51.8615
  A 0.34 0.34 0.0 0 0 20.9472 52.2009
  L 22.0272 52.1991
  A 0.34 0.34 0.0 0 0 22.3666 51.8585
  L 22.3533 44.2385"
/>
<path stroke="#8fa9b5" vector-effect="non-scaling-stroke" d="
  M 44.54 44.21
  A 0.32 0.32 0.0 0 0 44.22 43.89
  L 43.10 43.89
  A 0.32 0.32 0.0 0 0 42.78 44.21
  L 42.78 51.87
  A 0.32 0.32 0.0 0 0 43.10 52.19
  L 44.22 52.19
  A 0.32 0.32 0.0 0 0 44.54 51.87
  L 44.54 44.21"
/>
</g>
<path fill="#0e2b37" d="
  M 33.81 88.00
  L 33.15 88.00
  Q 15.61 72.48 6.00 52.51
  Q 2.31 44.85 1.62 35.22
  Q 0.94 25.66 5.27 17.98
  C 18.22 -4.97 51.96 -4.24 62.97 20.58
  C 66.64 28.86 65.92 38.66 63.04 47.01
  C 57.66 62.61 45.94 76.92 33.81 88.00
  Z
  M 33.43 86.62
  C 33.72 86.62 33.67 86.63 33.80 86.50
  Q 48.52 72.90 57.63 56.39
  Q 64.02 44.81 64.23 33.25
  C 64.54 16.14 50.47 2.57 33.49 2.55
  C 16.52 2.54 2.43 16.09 2.71 33.20
  Q 2.90 44.76 9.27 56.35
  Q 18.35 72.88 33.05 86.50
  C 33.18 86.62 33.13 86.62 33.43 86.62
  Z"
/>
<path fill="#1f526b" d="
  M 33.49 2.55
  C 50.47 2.57 64.54 16.14 64.23 33.25
  Q 64.02 44.81 57.63 56.39
  Q 48.52 72.90 33.80 86.50
  C 33.67 86.63 33.72 86.62 33.43 86.62
  C 33.13 86.62 33.18 86.62 33.05 86.50
  Q 18.35 72.88 9.27 56.35
  Q 2.90 44.76 2.71 33.20
  C 2.43 16.09 16.52 2.54 33.49 2.55
  Z
  M 32.28 27.73
  L 32.28 40.30
  A 0.06 0.06 0.0 0 0 32.38 40.34
  L 37.07 36.49
  A 0.52 0.51 64.0 0 0 37.24 35.98
  L 32.47 16.51
  A 0.20 0.20 0.0 0 0 32.08 16.51
  L 27.34 35.71
  A 0.91 0.91 0.0 0 0 27.69 36.67
  L 29.30 37.84
  A 0.28 0.27 25.4 0 0 29.73 37.69
  L 32.19 27.72
  A 0.05 0.05 0.0 0 1 32.28 27.73
  Z
  M 21.47 35.52
  L 21.47 42.18
  A 0.12 0.11 -20.9 0 0 21.66 42.26
  L 24.29 40.11
  A 0.74 0.73 -27.0 0 0 24.53 39.39
  L 21.68 27.79
  A 0.21 0.21 0.0 0 0 21.27 27.79
  L 18.48 39.09
  A 1.12 1.12 0.0 0 0 18.70 40.06
  L 19.08 40.51
  A 0.55 0.55 0.0 0 0 20.05 40.28
  Q 20.85 36.65 21.31 35.49
  A 0.08 0.08 0.0 0 1 21.47 35.52
  Z
  M 43.64 35.53
  L 43.66 42.15
  A 0.12 0.11 -21.0 0 0 43.84 42.23
  L 46.45 40.08
  A 0.73 0.72 -27.1 0 0 46.69 39.37
  L 43.83 27.86
  A 0.21 0.21 0.0 0 0 43.42 27.86
  L 40.68 39.09
  A 1.11 1.11 0.0 0 0 40.90 40.05
  L 41.28 40.50
  A 0.55 0.55 0.0 0 0 42.24 40.27
  Q 43.03 36.66 43.48 35.50
  A 0.08 0.08 0.0 0 1 43.64 35.53
  Z
  M 32.26 52.24
  Q 32.85 52.24 33.16 52.20
  A 0.64 0.64 0.0 0 0 33.71 51.56
  L 33.71 42.84
  A 0.22 0.22 0.0 0 0 33.36 42.67
  Q 32.57 43.25 32.31 43.25
  Q 32.04 43.24 31.26 42.66
  A 0.22 0.22 0.0 0 0 30.91 42.83
  L 30.82 51.55
  A 0.64 0.64 0.0 0 0 31.37 52.19
  Q 31.68 52.23 32.26 52.24
  Z
  M 22.3533 44.2385
  A 0.34 0.34 0.0 0 0 22.0128 43.8991
  L 20.9328 43.9009
  A 0.34 0.34 0.0 0 0 20.5934 44.2415
  L 20.6067 51.8615
  A 0.34 0.34 0.0 0 0 20.9472 52.2009
  L 22.0272 52.1991
  A 0.34 0.34 0.0 0 0 22.3666 51.8585
  L 22.3533 44.2385
  Z
  M 44.54 44.21
  A 0.32 0.32 0.0 0 0 44.22 43.89
  L 43.10 43.89
  A 0.32 0.32 0.0 0 0 42.78 44.21
  L 42.78 51.87
  A 0.32 0.32 0.0 0 0 43.10 52.19
  L 44.22 52.19
  A 0.32 0.32 0.0 0 0 44.54 51.87
  L 44.54 44.21
  Z"
/>
<path fill="#ffffff" d="
  M 32.19 27.72
  L 29.73 37.69
  A 0.28 0.27 25.4 0 1 29.30 37.84
  L 27.69 36.67
  A 0.91 0.91 0.0 0 1 27.34 35.71
  L 32.08 16.51
  A 0.20 0.20 0.0 0 1 32.47 16.51
  L 37.24 35.98
  A 0.52 0.51 64.0 0 1 37.07 36.49
  L 32.38 40.34
  A 0.06 0.06 0.0 0 1 32.28 40.30
  L 32.28 27.73
  A 0.05 0.05 0.0 0 0 32.19 27.72
  Z"
/>
<path fill="#ffffff" d="
  M 21.31 35.49
  Q 20.85 36.65 20.05 40.28
  A 0.55 0.55 0.0 0 1 19.08 40.51
  L 18.70 40.06
  A 1.12 1.12 0.0 0 1 18.48 39.09
  L 21.27 27.79
  A 0.21 0.21 0.0 0 1 21.68 27.79
  L 24.53 39.39
  A 0.74 0.73 -27.0 0 1 24.29 40.11
  L 21.66 42.26
  A 0.12 0.11 -20.9 0 1 21.47 42.18
  L 21.47 35.52
  A 0.08 0.08 0.0 0 0 21.31 35.49
  Z"
/>
<path fill="#ffffff" d="
  M 43.64 35.53
  A 0.08 0.08 0.0 0 0 43.48 35.50
  Q 43.03 36.66 42.24 40.27
  A 0.55 0.55 0.0 0 1 41.28 40.50
  L 40.90 40.05
  A 1.11 1.11 0.0 0 1 40.68 39.09
  L 43.42 27.86
  A 0.21 0.21 0.0 0 1 43.83 27.86
  L 46.69 39.37
  A 0.73 0.72 -27.1 0 1 46.45 40.08
  L 43.84 42.23
  A 0.12 0.11 -21.0 0 1 43.66 42.15
  L 43.64 35.53
  Z"
/>
<path fill="#ffffff" d="
  M 32.31 43.25
  Q 32.57 43.25 33.36 42.67
  A 0.22 0.22 0.0 0 1 33.71 42.84
  L 33.71 51.56
  A 0.64 0.64 0.0 0 1 33.16 52.20
  Q 32.85 52.24 32.26 52.24
  Q 31.68 52.23 31.37 52.19
  A 0.64 0.64 0.0 0 1 30.82 51.55
  L 30.91 42.83
  A 0.22 0.22 0.0 0 1 31.26 42.66
  Q 32.04 43.24 32.31 43.25
  Z"
/>
<rect fill="#ffffff" x="-0.88" y="-4.15" transform="translate(21.48,48.05) rotate(-0.1)" width="1.76" height="8.30" rx="0.34"/>
<rect fill="#ffffff" x="42.78" y="43.89" width="1.76" height="8.30" rx="0.32"/>
</svg>
