<?xml version="1.0" encoding="UTF-8" standalone="no"?>
<!DOCTYPE svg PUBLIC "-//W3C//DTD SVG 1.1//EN" "http://www.w3.org/Graphics/SVG/1.1/DTD/svg11.dtd">
<svg xmlns="http://www.w3.org/2000/svg" version="1.1" viewBox="0.00 0.00 66.00 88.00">
<g stroke-width="2.00" fill="none" stroke-linecap="butt">
<path stroke="#615742" vector-effect="non-scaling-stroke" d="
  M 33.40 86.68
  Q 33.53 86.68 33.67 86.65
  A 0.14 0.08 3.0 0 0 33.72 86.62
  Q 47.42 73.73 56.33 58.83
  C 63.73 46.46 68.25 29.35 59.37 16.38
  Q 50.28 3.10 33.75 2.47
  Q 33.65 2.46 33.54 2.46
  Q 33.44 2.46 33.33 2.47
  Q 16.80 3.04 7.67 16.29
  C -1.26 29.23 3.20 46.36 10.56 58.75
  Q 19.42 73.68 33.07 86.62
  A 0.14 0.08 -2.8 0 0 33.13 86.65
  Q 33.26 86.68 33.40 86.68"
/>
<path stroke="#c0b9ac" vector-effect="non-scaling-stroke" d="
  M 25.47 44.28
  Q 25.51 44.31 25.55 44.34
  A 0.32 0.20 -84.3 0 1 25.64 44.52
  C 26.66 51.99 36.20 52.13 37.27 44.89
  A 0.62 0.61 8.1 0 1 37.96 44.38
  C 42.51 44.98 46.25 40.47 48.28 37.03
  Q 49.98 34.13 49.35 32.43
  C 47.44 27.21 39.50 28.68 35.45 30.35
  A 0.40 0.40 0.0 0 1 34.98 29.73
  Q 38.00 25.93 36.49 25.06
  Q 34.99 24.20 33.23 28.72
  A 0.40 0.40 0.0 0 1 32.45 28.63
  C 31.85 24.29 29.11 16.70 23.64 17.68
  Q 21.86 18.00 20.21 20.93
  C 18.27 24.42 16.26 29.92 19.08 33.55
  A 0.62 0.61 51.6 0 1 18.98 34.40
  C 13.27 38.98 18.21 47.14 25.17 44.25
  A 0.32 0.20 -36.0 0 1 25.37 44.24
  Q 25.42 44.25 25.47 44.28"
/>
<path stroke="#c0b9ac" vector-effect="non-scaling-stroke" d="
  M 34.0580 31.6054
  A 0.26 0.26 0.0 0 0 33.9634 31.2501
  L 32.4754 30.3875
  A 0.26 0.26 0.0 0 0 32.1200 30.4820
  L 26.1420 40.7946
  A 0.26 0.26 0.0 0 0 26.2366 41.1499
  L 27.7246 42.0125
  A 0.26 0.26 0.0 0 0 28.0800 41.9180
  L 34.0580 31.6054"
/>
</g>
<path fill="#413b2b" d="
  M 33.78 88.00
  L 33.03 88.00
  C 21.80 77.78 12.03 65.61 5.64 51.56
  C 1.01 41.37 -0.43 28.49 5.12 18.25
  C 17.84 -5.20 51.94 -4.04 62.92 20.44
  C 66.92 29.34 65.81 40.15 62.33 49.08
  C 56.57 63.83 45.47 77.42 33.78 88.00
  Z
  M 33.40 86.68
  Q 33.53 86.68 33.67 86.65
  A 0.14 0.08 3.0 0 0 33.72 86.62
  Q 47.42 73.73 56.33 58.83
  C 63.73 46.46 68.25 29.35 59.37 16.38
  Q 50.28 3.10 33.75 2.47
  Q 33.65 2.46 33.54 2.46
  Q 33.44 2.46 33.33 2.47
  Q 16.80 3.04 7.67 16.29
  C -1.26 29.23 3.20 46.36 10.56 58.75
  Q 19.42 73.68 33.07 86.62
  A 0.14 0.08 -2.8 0 0 33.13 86.65
  Q 33.26 86.68 33.40 86.68
  Z"
/>
<path fill="#807358" d="
  M 33.54 2.46
  Q 33.65 2.46 33.75 2.47
  Q 50.28 3.10 59.37 16.38
  C 68.25 29.35 63.73 46.46 56.33 58.83
  Q 47.42 73.73 33.72 86.62
  A 0.14 0.08 3.0 0 1 33.67 86.65
  Q 33.53 86.68 33.40 86.68
  Q 33.26 86.68 33.13 86.65
  A 0.14 0.08 -2.8 0 1 33.07 86.62
  Q 19.42 73.68 10.56 58.75
  C 3.20 46.36 -1.26 29.23 7.67 16.29
  Q 16.80 3.04 33.33 2.47
  Q 33.44 2.46 33.54 2.46
  Z
  M 25.47 44.28
  Q 25.51 44.31 25.55 44.34
  A 0.32 0.20 -84.3 0 1 25.64 44.52
  C 26.66 51.99 36.20 52.13 37.27 44.89
  A 0.62 0.61 8.1 0 1 37.96 44.38
  C 42.51 44.98 46.25 40.47 48.28 37.03
  Q 49.98 34.13 49.35 32.43
  C 47.44 27.21 39.50 28.68 35.45 30.35
  A 0.40 0.40 0.0 0 1 34.98 29.73
  Q 38.00 25.93 36.49 25.06
  Q 34.99 24.20 33.23 28.72
  A 0.40 0.40 0.0 0 1 32.45 28.63
  C 31.85 24.29 29.11 16.70 23.64 17.68
  Q 21.86 18.00 20.21 20.93
  C 18.27 24.42 16.26 29.92 19.08 33.55
  A 0.62 0.61 51.6 0 1 18.98 34.40
  C 13.27 38.98 18.21 47.14 25.17 44.25
  A 0.32 0.20 -36.0 0 1 25.37 44.24
  Q 25.42 44.25 25.47 44.28
  Z"
/>
<path fill="#ffffff" d="
  M 36.49 25.06
  Q 38.00 25.93 34.98 29.73
  A 0.40 0.40 0.0 0 0 35.45 30.35
  C 39.50 28.68 47.44 27.21 49.35 32.43
  Q 49.98 34.13 48.28 37.03
  C 46.25 40.47 42.51 44.98 37.96 44.38
  A 0.62 0.61 8.1 0 0 37.27 44.89
  C 36.20 52.13 26.66 51.99 25.64 44.52
  A 0.32 0.20 -84.3 0 0 25.55 44.34
  Q 25.51 44.31 25.47 44.28
  Q 25.42 44.25 25.37 44.24
  A 0.32 0.20 -36.0 0 0 25.17 44.25
  C 18.21 47.14 13.27 38.98 18.98 34.40
  A 0.62 0.61 51.6 0 0 19.08 33.55
  C 16.26 29.92 18.27 24.42 20.21 20.93
  Q 21.86 18.00 23.64 17.68
  C 29.11 16.70 31.85 24.29 32.45 28.63
  A 0.40 0.40 0.0 0 0 33.23 28.72
  Q 34.99 24.20 36.49 25.06
  Z
  M 34.0580 31.6054
  A 0.26 0.26 0.0 0 0 33.9634 31.2501
  L 32.4754 30.3875
  A 0.26 0.26 0.0 0 0 32.1200 30.4820
  L 26.1420 40.7946
  A 0.26 0.26 0.0 0 0 26.2366 41.1499
  L 27.7246 42.0125
  A 0.26 0.26 0.0 0 0 28.0800 41.9180
  L 34.0580 31.6054
  Z"
/>
<rect fill="#807358" x="-1.12" y="-6.22" transform="translate(30.10,36.20) rotate(30.1)" width="2.24" height="12.44" rx="0.26"/>
</svg>
