<?xml version="1.0" encoding="UTF-8" standalone="no"?>
<!DOCTYPE svg PUBLIC "-//W3C//DTD SVG 1.1//EN" "http://www.w3.org/Graphics/SVG/1.1/DTD/svg11.dtd">
<svg xmlns="http://www.w3.org/2000/svg" version="1.1" viewBox="0.00 0.00 66.00 88.00">
<g stroke-width="2.00" fill="none" stroke-linecap="butt">
<path stroke="#4d120e" vector-effect="non-scaling-stroke" d="
  M 33.41 86.62
  Q 33.60 86.62 33.70 86.53
  Q 44.02 77.03 52.83 64.34
  C 61.72 51.54 69.33 32.54 60.03 17.48
  Q 51.38 3.48 33.74 2.48
  Q 33.63 2.48 33.52 2.48
  Q 33.41 2.48 33.31 2.48
  Q 15.66 3.43 6.98 17.41
  C -2.36 32.45 5.20 51.47 14.06 64.29
  Q 22.83 77.00 33.13 86.53
  Q 33.23 86.62 33.41 86.62"
/>
<path stroke="#b18c89" vector-effect="non-scaling-stroke" d="
  M 32.97 51.45
  C 35.77 51.45 36.54 45.94 37.00 43.81
  A 2.93 2.84 71.8 0 1 37.60 42.57
  Q 39.63 40.16 42.95 38.37
  A 1.27 1.26 -18.4 0 0 43.60 37.09
  L 43.16 34.03
  A 1.29 1.29 0.0 0 1 43.46 32.99
  L 44.51 31.75
  A 1.31 1.29 -28.4 0 0 44.82 30.74
  Q 43.93 23.14 41.56 15.54
  A 0.30 0.30 0.0 0 0 40.98 15.56
  L 38.44 26.14
  A 0.10 0.10 0.0 0 1 38.30 26.21
  Q 35.27 24.74 32.99 24.74
  Q 30.70 24.74 27.67 26.21
  A 0.10 0.10 0.0 0 1 27.53 26.13
  L 25.00 15.55
  A 0.30 0.30 0.0 0 0 24.42 15.53
  Q 22.05 23.13 21.15 30.73
  A 1.31 1.29 28.5 0 0 21.46 31.74
  L 22.50 32.98
  A 1.29 1.29 0.0 0 1 22.80 34.02
  L 22.36 37.08
  A 1.27 1.26 18.4 0 0 23.01 38.36
  Q 26.33 40.15 28.36 42.57
  A 2.93 2.84 -71.7 0 1 28.95 43.80
  C 29.41 45.94 30.18 51.45 32.97 51.45"
/>
<path stroke="#b18c89" vector-effect="non-scaling-stroke" d="
  M 27.90 37.60
  Q 29.56 39.11 31.31 40.62
  A 0.27 0.27 0.0 0 0 31.75 40.42
  L 31.73 38.22
  A 1.52 1.52 0.0 0 0 31.34 37.21
  Q 31.17 37.01 29.66 35.65
  Q 28.00 34.15 26.25 32.63
  A 0.27 0.27 0.0 0 0 25.81 32.83
  L 25.83 35.03
  A 1.52 1.52 0.0 0 0 26.22 36.05
  Q 26.39 36.24 27.90 37.60"
/>
<path stroke="#b18c89" vector-effect="non-scaling-stroke" d="
  M 38.09 37.60
  Q 39.60 36.24 39.77 36.05
  A 1.52 1.52 0.0 0 0 40.16 35.03
  L 40.18 32.83
  A 0.27 0.27 0.0 0 0 39.74 32.63
  Q 37.99 34.14 36.32 35.65
  Q 34.82 37.01 34.64 37.20
  A 1.52 1.52 0.0 0 0 34.26 38.22
  L 34.23 40.42
  A 0.27 0.27 0.0 0 0 34.68 40.62
  Q 36.42 39.11 38.09 37.60"
/>
</g>
<path fill="#360b09" d="
  M 33.79 88.00
  L 33.15 88.00
  Q 15.60 72.48 6.00 52.51
  Q 2.32 44.85 1.62 35.22
  C 0.46 19.03 11.18 5.54 26.72 2.05
  C 46.08 -2.30 66.29 12.76 65.46 33.76
  Q 65.19 40.69 63.06 47.03
  C 57.86 62.47 45.76 77.15 33.79 88.00
  Z
  M 33.41 86.62
  Q 33.60 86.62 33.70 86.53
  Q 44.02 77.03 52.83 64.34
  C 61.72 51.54 69.33 32.54 60.03 17.48
  Q 51.38 3.48 33.74 2.48
  Q 33.63 2.48 33.52 2.48
  Q 33.41 2.48 33.31 2.48
  Q 15.66 3.43 6.98 17.41
  C -2.36 32.45 5.20 51.47 14.06 64.29
  Q 22.83 77.00 33.13 86.53
  Q 33.23 86.62 33.41 86.62
  Z"
/>
<path fill="#631813" d="
  M 33.52 2.48
  Q 33.63 2.48 33.74 2.48
  Q 51.38 3.48 60.03 17.48
  C 69.33 32.54 61.72 51.54 52.83 64.34
  Q 44.02 77.03 33.70 86.53
  Q 33.60 86.62 33.41 86.62
  Q 33.23 86.62 33.13 86.53
  Q 22.83 77.00 14.06 64.29
  C 5.20 51.47 -2.36 32.45 6.98 17.41
  Q 15.66 3.43 33.31 2.48
  Q 33.41 2.48 33.52 2.48
  Z
  M 32.97 51.45
  C 35.77 51.45 36.54 45.94 37.00 43.81
  A 2.93 2.84 71.8 0 1 37.60 42.57
  Q 39.63 40.16 42.95 38.37
  A 1.27 1.26 -18.4 0 0 43.60 37.09
  L 43.16 34.03
  A 1.29 1.29 0.0 0 1 43.46 32.99
  L 44.51 31.75
  A 1.31 1.29 -28.4 0 0 44.82 30.74
  Q 43.93 23.14 41.56 15.54
  A 0.30 0.30 0.0 0 0 40.98 15.56
  L 38.44 26.14
  A 0.10 0.10 0.0 0 1 38.30 26.21
  Q 35.27 24.74 32.99 24.74
  Q 30.70 24.74 27.67 26.21
  A 0.10 0.10 0.0 0 1 27.53 26.13
  L 25.00 15.55
  A 0.30 0.30 0.0 0 0 24.42 15.53
  Q 22.05 23.13 21.15 30.73
  A 1.31 1.29 28.5 0 0 21.46 31.74
  L 22.50 32.98
  A 1.29 1.29 0.0 0 1 22.80 34.02
  L 22.36 37.08
  A 1.27 1.26 18.4 0 0 23.01 38.36
  Q 26.33 40.15 28.36 42.57
  A 2.93 2.84 -71.7 0 1 28.95 43.80
  C 29.41 45.94 30.18 51.45 32.97 51.45
  Z"
/>
<path fill="#ffffff" d="
  M 32.99 24.74
  Q 35.27 24.74 38.30 26.21
  A 0.10 0.10 0.0 0 0 38.44 26.14
  L 40.98 15.56
  A 0.30 0.30 0.0 0 1 41.56 15.54
  Q 43.93 23.14 44.82 30.74
  A 1.31 1.29 -28.4 0 1 44.51 31.75
  L 43.46 32.99
  A 1.29 1.29 0.0 0 0 43.16 34.03
  L 43.60 37.09
  A 1.27 1.26 -18.4 0 1 42.95 38.37
  Q 39.63 40.16 37.60 42.57
  A 2.93 2.84 71.8 0 0 37.00 43.81
  C 36.54 45.94 35.77 51.45 32.97 51.45
  C 30.18 51.45 29.41 45.94 28.95 43.80
  A 2.93 2.84 -71.7 0 0 28.36 42.57
  Q 26.33 40.15 23.01 38.36
  A 1.27 1.26 18.4 0 1 22.36 37.08
  L 22.80 34.02
  A 1.29 1.29 0.0 0 0 22.50 32.98
  L 21.46 31.74
  A 1.31 1.29 28.5 0 1 21.15 30.73
  Q 22.05 23.13 24.42 15.53
  A 0.30 0.30 0.0 0 1 25.00 15.55
  L 27.53 26.13
  A 0.10 0.10 0.0 0 0 27.67 26.21
  Q 30.70 24.74 32.99 24.74
  Z
  M 27.90 37.60
  Q 29.56 39.11 31.31 40.62
  A 0.27 0.27 0.0 0 0 31.75 40.42
  L 31.73 38.22
  A 1.52 1.52 0.0 0 0 31.34 37.21
  Q 31.17 37.01 29.66 35.65
  Q 28.00 34.15 26.25 32.63
  A 0.27 0.27 0.0 0 0 25.81 32.83
  L 25.83 35.03
  A 1.52 1.52 0.0 0 0 26.22 36.05
  Q 26.39 36.24 27.90 37.60
  Z
  M 38.09 37.60
  Q 39.60 36.24 39.77 36.05
  A 1.52 1.52 0.0 0 0 40.16 35.03
  L 40.18 32.83
  A 0.27 0.27 0.0 0 0 39.74 32.63
  Q 37.99 34.14 36.32 35.65
  Q 34.82 37.01 34.64 37.20
  A 1.52 1.52 0.0 0 0 34.26 38.22
  L 34.23 40.42
  A 0.27 0.27 0.0 0 0 34.68 40.62
  Q 36.42 39.11 38.09 37.60
  Z"
/>
<path fill="#631813" d="
  M 27.90 37.60
  Q 26.39 36.24 26.22 36.05
  A 1.52 1.52 0.0 0 1 25.83 35.03
  L 25.81 32.83
  A 0.27 0.27 0.0 0 1 26.25 32.63
  Q 28.00 34.15 29.66 35.65
  Q 31.17 37.01 31.34 37.21
  A 1.52 1.52 0.0 0 1 31.73 38.22
  L 31.75 40.42
  A 0.27 0.27 0.0 0 1 31.31 40.62
  Q 29.56 39.11 27.90 37.60
  Z"
/>
<path fill="#631813" d="
  M 38.09 37.60
  Q 36.42 39.11 34.68 40.62
  A 0.27 0.27 0.0 0 1 34.23 40.42
  L 34.26 38.22
  A 1.52 1.52 0.0 0 1 34.64 37.20
  Q 34.82 37.01 36.32 35.65
  Q 37.99 34.14 39.74 32.63
  A 0.27 0.27 0.0 0 1 40.18 32.83
  L 40.16 35.03
  A 1.52 1.52 0.0 0 1 39.77 36.05
  Q 39.60 36.24 38.09 37.60
  Z"
/>
</svg>
