<?xml version="1.0" encoding="UTF-8" standalone="no"?>
<!DOCTYPE svg PUBLIC "-//W3C//DTD SVG 1.1//EN" "http://www.w3.org/Graphics/SVG/1.1/DTD/svg11.dtd">
<svg xmlns="http://www.w3.org/2000/svg" version="1.1" viewBox="0.00 0.00 66.00 88.00">
<g stroke-width="2.00" fill="none" stroke-linecap="butt">
<path stroke="#431a44" vector-effect="non-scaling-stroke" d="
  M 33.43 86.54
  C 33.87 86.54 33.60 86.56 33.78 86.41
  Q 43.23 78.18 53.31 63.54
  C 64.36 47.51 70.38 26.02 54.74 11.00
  C 49.20 5.68 41.42 2.46 33.47 2.46
  C 25.53 2.46 17.74 5.67 12.20 10.98
  C -3.46 25.98 2.54 47.48 13.57 63.52
  Q 23.64 78.17 33.08 86.40
  C 33.25 86.56 32.99 86.54 33.43 86.54"
/>
<path stroke="#ac91ac" vector-effect="non-scaling-stroke" d="
  M 33.43 54.26
  C 34.89 54.26 36.30 52.96 37.26 53.33
  Q 37.92 53.59 38.50 52.97
  A 0.87 0.84 21.2 0 1 39.12 52.71
  L 43.32 52.71
  A 0.82 0.81 74.3 0 1 44.02 53.11
  L 44.33 53.65
  A 0.75 0.73 -32.4 0 0 45.40 53.88
  Q 46.77 52.93 47.80 53.77
  A 1.04 1.02 -88.0 0 0 49.28 52.36
  Q 48.65 51.42 49.26 50.26
  A 0.99 0.98 -45.8 0 0 49.25 49.29
  L 48.61 48.19
  A 1.97 1.92 34.7 0 1 48.37 46.96
  Q 48.82 43.80 48.14 41.20
  A 0.52 0.45 -47.2 0 1 48.15 40.91
  L 49.73 35.40
  A 3.04 3.02 -44.8 0 0 49.74 33.78
  L 48.41 28.90
  A 3.03 2.88 39.7 0 1 48.30 27.97
  L 48.58 21.73
  A 1.47 1.44 -30.4 0 1 48.76 21.07
  L 49.07 20.48
  A 1.61 1.61 0.0 0 0 49.24 19.40
  Q 48.96 17.99 49.42 16.67
  A 0.86 0.85 -83.7 0 0 48.52 15.54
  Q 42.95 16.17 39.52 16.04
  Q 37.22 15.96 34.22 14.83
  Q 34.07 14.78 33.42 14.78
  Q 32.77 14.78 32.63 14.83
  Q 29.63 15.96 27.33 16.04
  Q 23.90 16.17 18.33 15.54
  A 0.86 0.85 83.6 0 0 17.43 16.67
  Q 17.89 17.99 17.61 19.40
  A 1.61 1.61 0.0 0 0 17.78 20.48
  L 18.09 21.07
  A 1.47 1.44 30.3 0 1 18.27 21.73
  L 18.55 27.97
  A 3.03 2.88 -39.7 0 1 18.44 28.90
  L 17.11 33.78
  A 3.04 3.02 44.8 0 0 17.12 35.40
  L 18.70 40.91
  A 0.52 0.45 47.2 0 1 18.71 41.20
  Q 18.03 43.80 18.49 46.96
  A 1.97 1.92 -34.8 0 1 18.25 48.19
  L 17.61 49.29
  A 0.99 0.98 45.8 0 0 17.60 50.26
  Q 18.21 51.42 17.58 52.36
  A 1.04 1.02 88.0 0 0 19.06 53.77
  Q 20.09 52.93 21.46 53.88
  A 0.75 0.73 32.4 0 0 22.53 53.65
  L 22.84 53.11
  A 0.82 0.81 -74.3 0 1 23.54 52.71
  L 27.74 52.71
  A 0.87 0.84 -21.2 0 1 28.36 52.97
  Q 28.94 53.59 29.60 53.33
  C 30.56 52.96 31.96 54.26 33.43 54.26"
/>
<path stroke="#ac91ac" vector-effect="non-scaling-stroke" d="
  M 44.72 20.47
  A 0.46 0.46 0.0 0 0 44.26 20.01
  L 22.66 20.01
  A 0.46 0.46 0.0 0 0 22.20 20.47
  L 22.20 48.51
  A 0.46 0.46 0.0 0 0 22.66 48.97
  L 44.26 48.97
  A 0.46 0.46 0.0 0 0 44.72 48.51
  L 44.72 20.47"
/>
<path stroke="#ac91ac" vector-effect="non-scaling-stroke" d="
  M 43.46 47.15
  L 43.46 40.09
  A 1.79 1.75 -64.6 0 0 43.08 38.99
  L 41.98 37.63
  A 2.99 2.97 -69.4 0 1 41.37 36.27
  Q 40.98 33.98 40.42 28.06
  Q 39.78 21.11 33.85 21.29
  C 30.39 21.39 28.84 23.41 27.98 26.43
  Q 26.14 32.87 27.89 38.42
  A 1.11 1.10 68.6 0 1 27.32 39.74
  Q 25.66 40.53 23.78 42.84
  A 1.45 1.41 -25.8 0 0 23.45 43.75
  L 23.45 47.14
  A 0.64 0.63 -0.0 0 0 24.09 47.77
  L 42.84 47.77
  A 0.62 0.62 0.0 0 0 43.46 47.15"
/>
<path stroke="#ac91ac" vector-effect="non-scaling-stroke" d="
  M 32.66 22.53
  Q 32.08 23.79 31.58 23.84
  A 2.05 2.04 -88.3 0 0 29.79 25.53
  Q 29.13 29.41 30.44 33.13
  A 2.32 2.32 0.0 0 0 32.74 34.68
  C 37.17 34.48 37.84 30.64 37.22 27.26
  Q 36.75 24.69 33.67 23.94
  A 0.70 0.70 0.0 0 1 33.14 23.26
  L 33.14 22.63
  A 0.25 0.25 0.0 0 0 32.66 22.53"
/>
<path stroke="#ac91ac" vector-effect="non-scaling-stroke" d="
  M 36.62 33.98
  Q 35.28 35.70 33.27 35.51
  A 0.70 0.70 0.0 0 0 32.50 36.21
  L 32.50 36.83
  A 1.21 1.20 -17.4 0 1 31.98 37.82
  Q 29.65 39.43 28.46 41.37
  A 1.25 1.25 0.0 0 0 28.96 43.13
  Q 31.85 44.60 34.80 44.16
  A 2.09 2.06 23.1 0 0 35.71 43.80
  C 38.50 41.80 37.75 37.31 37.22 34.14
  A 0.34 0.34 0.0 0 0 36.62 33.98"
/>
</g>
<path fill="#2e112e" d="
  M 33.79 88.00
  L 33.14 88.00
  Q 16.52 73.26 6.73 54.02
  Q 2.38 45.47 1.62 35.35
  Q 0.90 25.68 5.33 17.88
  C 18.19 -4.78 50.87 -4.17 62.57 19.68
  C 66.92 28.55 65.94 39.79 62.40 48.86
  C 56.58 63.77 45.60 77.30 33.79 88.00
  Z
  M 33.43 86.54
  C 33.87 86.54 33.60 86.56 33.78 86.41
  Q 43.23 78.18 53.31 63.54
  C 64.36 47.51 70.38 26.02 54.74 11.00
  C 49.20 5.68 41.42 2.46 33.47 2.46
  C 25.53 2.46 17.74 5.67 12.20 10.98
  C -3.46 25.98 2.54 47.48 13.57 63.52
  Q 23.64 78.17 33.08 86.40
  C 33.25 86.56 32.99 86.54 33.43 86.54
  Z"
/>
<path fill="#582359" d="
  M 33.47 2.46
  C 41.42 2.46 49.20 5.68 54.74 11.00
  C 70.38 26.02 64.36 47.51 53.31 63.54
  Q 43.23 78.18 33.78 86.41
  C 33.60 86.56 33.87 86.54 33.43 86.54
  C 32.99 86.54 33.25 86.56 33.08 86.40
  Q 23.64 78.17 13.57 63.52
  C 2.54 47.48 -3.46 25.98 12.20 10.98
  C 17.74 5.67 25.53 2.46 33.47 2.46
  Z
  M 33.43 54.26
  C 34.89 54.26 36.30 52.96 37.26 53.33
  Q 37.92 53.59 38.50 52.97
  A 0.87 0.84 21.2 0 1 39.12 52.71
  L 43.32 52.71
  A 0.82 0.81 74.3 0 1 44.02 53.11
  L 44.33 53.65
  A 0.75 0.73 -32.4 0 0 45.40 53.88
  Q 46.77 52.93 47.80 53.77
  A 1.04 1.02 -88.0 0 0 49.28 52.36
  Q 48.65 51.42 49.26 50.26
  A 0.99 0.98 -45.8 0 0 49.25 49.29
  L 48.61 48.19
  A 1.97 1.92 34.7 0 1 48.37 46.96
  Q 48.82 43.80 48.14 41.20
  A 0.52 0.45 -47.2 0 1 48.15 40.91
  L 49.73 35.40
  A 3.04 3.02 -44.8 0 0 49.74 33.78
  L 48.41 28.90
  A 3.03 2.88 39.7 0 1 48.30 27.97
  L 48.58 21.73
  A 1.47 1.44 -30.4 0 1 48.76 21.07
  L 49.07 20.48
  A 1.61 1.61 0.0 0 0 49.24 19.40
  Q 48.96 17.99 49.42 16.67
  A 0.86 0.85 -83.7 0 0 48.52 15.54
  Q 42.95 16.17 39.52 16.04
  Q 37.22 15.96 34.22 14.83
  Q 34.07 14.78 33.42 14.78
  Q 32.77 14.78 32.63 14.83
  Q 29.63 15.96 27.33 16.04
  Q 23.90 16.17 18.33 15.54
  A 0.86 0.85 83.6 0 0 17.43 16.67
  Q 17.89 17.99 17.61 19.40
  A 1.61 1.61 0.0 0 0 17.78 20.48
  L 18.09 21.07
  A 1.47 1.44 30.3 0 1 18.27 21.73
  L 18.55 27.97
  A 3.03 2.88 -39.7 0 1 18.44 28.90
  L 17.11 33.78
  A 3.04 3.02 44.8 0 0 17.12 35.40
  L 18.70 40.91
  A 0.52 0.45 47.2 0 1 18.71 41.20
  Q 18.03 43.80 18.49 46.96
  A 1.97 1.92 -34.8 0 1 18.25 48.19
  L 17.61 49.29
  A 0.99 0.98 45.8 0 0 17.60 50.26
  Q 18.21 51.42 17.58 52.36
  A 1.04 1.02 88.0 0 0 19.06 53.77
  Q 20.09 52.93 21.46 53.88
  A 0.75 0.73 32.4 0 0 22.53 53.65
  L 22.84 53.11
  A 0.82 0.81 -74.3 0 1 23.54 52.71
  L 27.74 52.71
  A 0.87 0.84 -21.2 0 1 28.36 52.97
  Q 28.94 53.59 29.60 53.33
  C 30.56 52.96 31.96 54.26 33.43 54.26
  Z"
/>
<path fill="#ffffff" d="
  M 33.42 14.78
  Q 34.07 14.78 34.22 14.83
  Q 37.22 15.96 39.52 16.04
  Q 42.95 16.17 48.52 15.54
  A 0.86 0.85 -83.7 0 1 49.42 16.67
  Q 48.96 17.99 49.24 19.40
  A 1.61 1.61 0.0 0 1 49.07 20.48
  L 48.76 21.07
  A 1.47 1.44 -30.4 0 0 48.58 21.73
  L 48.30 27.97
  A 3.03 2.88 39.7 0 0 48.41 28.90
  L 49.74 33.78
  A 3.04 3.02 -44.8 0 1 49.73 35.40
  L 48.15 40.91
  A 0.52 0.45 -47.2 0 0 48.14 41.20
  Q 48.82 43.80 48.37 46.96
  A 1.97 1.92 34.7 0 0 48.61 48.19
  L 49.25 49.29
  A 0.99 0.98 -45.8 0 1 49.26 50.26
  Q 48.65 51.42 49.28 52.36
  A 1.04 1.02 -88.0 0 1 47.80 53.77
  Q 46.77 52.93 45.40 53.88
  A 0.75 0.73 -32.4 0 1 44.33 53.65
  L 44.02 53.11
  A 0.82 0.81 74.3 0 0 43.32 52.71
  L 39.12 52.71
  A 0.87 0.84 21.2 0 0 38.50 52.97
  Q 37.92 53.59 37.26 53.33
  C 36.30 52.96 34.89 54.26 33.43 54.26
  C 31.96 54.26 30.56 52.96 29.60 53.33
  Q 28.94 53.59 28.36 52.97
  A 0.87 0.84 -21.2 0 0 27.74 52.71
  L 23.54 52.71
  A 0.82 0.81 -74.3 0 0 22.84 53.11
  L 22.53 53.65
  A 0.75 0.73 32.4 0 1 21.46 53.88
  Q 20.09 52.93 19.06 53.77
  A 1.04 1.02 88.0 0 1 17.58 52.36
  Q 18.21 51.42 17.60 50.26
  A 0.99 0.98 45.8 0 1 17.61 49.29
  L 18.25 48.19
  A 1.97 1.92 -34.8 0 0 18.49 46.96
  Q 18.03 43.80 18.71 41.20
  A 0.52 0.45 47.2 0 0 18.70 40.91
  L 17.12 35.40
  A 3.04 3.02 44.8 0 1 17.11 33.78
  L 18.44 28.90
  A 3.03 2.88 -39.7 0 0 18.55 27.97
  L 18.27 21.73
  A 1.47 1.44 30.3 0 0 18.09 21.07
  L 17.78 20.48
  A 1.61 1.61 0.0 0 1 17.61 19.40
  Q 17.89 17.99 17.43 16.67
  A 0.86 0.85 83.6 0 1 18.33 15.54
  Q 23.90 16.17 27.33 16.04
  Q 29.63 15.96 32.63 14.83
  Q 32.77 14.78 33.42 14.78
  Z
  M 44.72 20.47
  A 0.46 0.46 0.0 0 0 44.26 20.01
  L 22.66 20.01
  A 0.46 0.46 0.0 0 0 22.20 20.47
  L 22.20 48.51
  A 0.46 0.46 0.0 0 0 22.66 48.97
  L 44.26 48.97
  A 0.46 0.46 0.0 0 0 44.72 48.51
  L 44.72 20.47
  Z"
/>
<path fill="#582359" d="
  M 44.72 48.51
  A 0.46 0.46 0.0 0 1 44.26 48.97
  L 22.66 48.97
  A 0.46 0.46 0.0 0 1 22.20 48.51
  L 22.20 20.47
  A 0.46 0.46 0.0 0 1 22.66 20.01
  L 44.26 20.01
  A 0.46 0.46 0.0 0 1 44.72 20.47
  L 44.72 48.51
  Z
  M 43.46 47.15
  L 43.46 40.09
  A 1.79 1.75 -64.6 0 0 43.08 38.99
  L 41.98 37.63
  A 2.99 2.97 -69.4 0 1 41.37 36.27
  Q 40.98 33.98 40.42 28.06
  Q 39.78 21.11 33.85 21.29
  C 30.39 21.39 28.84 23.41 27.98 26.43
  Q 26.14 32.87 27.89 38.42
  A 1.11 1.10 68.6 0 1 27.32 39.74
  Q 25.66 40.53 23.78 42.84
  A 1.45 1.41 -25.8 0 0 23.45 43.75
  L 23.45 47.14
  A 0.64 0.63 -0.0 0 0 24.09 47.77
  L 42.84 47.77
  A 0.62 0.62 0.0 0 0 43.46 47.15
  Z"
/>
<path fill="#ffffff" d="
  M 42.84 47.77
  L 24.09 47.77
  A 0.64 0.63 -0.0 0 1 23.45 47.14
  L 23.45 43.75
  A 1.45 1.41 -25.8 0 1 23.78 42.84
  Q 25.66 40.53 27.32 39.74
  A 1.11 1.10 68.6 0 0 27.89 38.42
  Q 26.14 32.87 27.98 26.43
  C 28.84 23.41 30.39 21.39 33.85 21.29
  Q 39.78 21.11 40.42 28.06
  Q 40.98 33.98 41.37 36.27
  A 2.99 2.97 -69.4 0 0 41.98 37.63
  L 43.08 38.99
  A 1.79 1.75 -64.6 0 1 43.46 40.09
  L 43.46 47.15
  A 0.62 0.62 0.0 0 1 42.84 47.77
  Z
  M 32.66 22.53
  Q 32.08 23.79 31.58 23.84
  A 2.05 2.04 -88.3 0 0 29.79 25.53
  Q 29.13 29.41 30.44 33.13
  A 2.32 2.32 0.0 0 0 32.74 34.68
  C 37.17 34.48 37.84 30.64 37.22 27.26
  Q 36.75 24.69 33.67 23.94
  A 0.70 0.70 0.0 0 1 33.14 23.26
  L 33.14 22.63
  A 0.25 0.25 0.0 0 0 32.66 22.53
  Z
  M 36.62 33.98
  Q 35.28 35.70 33.27 35.51
  A 0.70 0.70 0.0 0 0 32.50 36.21
  L 32.50 36.83
  A 1.21 1.20 -17.4 0 1 31.98 37.82
  Q 29.65 39.43 28.46 41.37
  A 1.25 1.25 0.0 0 0 28.96 43.13
  Q 31.85 44.60 34.80 44.16
  A 2.09 2.06 23.1 0 0 35.71 43.80
  C 38.50 41.80 37.75 37.31 37.22 34.14
  A 0.34 0.34 0.0 0 0 36.62 33.98
  Z"
/>
<path fill="#582359" d="
  M 33.14 22.63
  L 33.14 23.26
  A 0.70 0.70 0.0 0 0 33.67 23.94
  Q 36.75 24.69 37.22 27.26
  C 37.84 30.64 37.17 34.48 32.74 34.68
  A 2.32 2.32 0.0 0 1 30.44 33.13
  Q 29.13 29.41 29.79 25.53
  A 2.05 2.04 -88.3 0 1 31.58 23.84
  Q 32.08 23.79 32.66 22.53
  A 0.25 0.25 0.0 0 1 33.14 22.63
  Z"
/>
<path fill="#582359" d="
  M 37.22 34.14
  C 37.75 37.31 38.50 41.80 35.71 43.80
  A 2.09 2.06 23.1 0 1 34.80 44.16
  Q 31.85 44.60 28.96 43.13
  A 1.25 1.25 0.0 0 1 28.46 41.37
  Q 29.65 39.43 31.98 37.82
  A 1.21 1.20 -17.4 0 0 32.50 36.83
  L 32.50 36.21
  A 0.70 0.70 0.0 0 1 33.27 35.51
  Q 35.28 35.70 36.62 33.98
  A 0.34 0.34 0.0 0 1 37.22 34.14
  Z"
/>
</svg>
