<?xml version="1.0" encoding="UTF-8" standalone="no"?>
<!DOCTYPE svg PUBLIC "-//W3C//DTD SVG 1.1//EN" "http://www.w3.org/Graphics/SVG/1.1/DTD/svg11.dtd">
<svg xmlns="http://www.w3.org/2000/svg" version="1.1" viewBox="0.00 0.00 66.00 88.00">
<g stroke-width="2.00" fill="none" stroke-linecap="butt">
<path stroke="#282a22" vector-effect="non-scaling-stroke" d="
  M 33.38 86.54
  Q 33.53 86.54 33.61 86.51
  Q 33.63 86.50 33.78 86.37
  C 44.89 76.10 55.16 63.42 60.88 49.30
  C 64.61 40.10 65.85 28.94 61.32 19.89
  C 55.99 9.21 45.34 2.54 33.53 2.52
  C 21.71 2.50 11.04 9.14 5.67 19.79
  C 1.11 28.83 2.32 40.00 6.02 49.21
  C 11.69 63.35 21.91 76.06 32.99 86.37
  Q 33.14 86.50 33.15 86.51
  Q 33.23 86.54 33.38 86.54"
/>
<path stroke="#9a9b96" vector-effect="non-scaling-stroke" d="
  M 32.99 50.25
  Q 48.61 50.25 49.54 50.21
  A 0.62 0.62 0.0 0 0 50.14 49.60
  Q 50.25 42.44 50.14 30.51
  Q 50.13 29.83 50.96 29.66
  A 0.48 0.48 0.0 0 0 51.33 29.07
  L 50.82 27.04
  A 0.66 0.66 0.0 0 0 49.52 27.23
  L 49.58 28.34
  A 0.49 0.49 0.0 0 1 48.72 28.70
  Q 48.12 28.04 48.03 27.33
  A 0.72 0.72 0.0 0 0 46.59 27.47
  L 46.63 28.17
  A 0.53 0.52 -4.8 0 1 46.17 28.71
  Q 45.11 28.83 44.84 27.18
  Q 44.81 26.95 44.53 26.81
  Q 44.18 26.62 44.07 26.62
  Q 43.73 26.59 43.62 27.15
  Q 43.44 28.15 43.30 28.43
  A 0.51 0.50 -42.9 0 1 42.38 28.40
  L 41.80 27.01
  A 0.59 0.59 0.0 0 0 40.67 27.13
  L 40.29 29.15
  A 0.46 0.45 12.3 0 0 40.64 29.68
  Q 40.84 29.73 40.89 29.76
  A 1.15 1.15 0.0 0 1 41.42 30.73
  L 41.43 32.60
  A 0.56 0.56 0.0 0 1 40.90 33.16
  L 37.79 33.34
  A 0.68 0.68 0.0 0 1 37.08 32.70
  L 36.58 23.72
  A 2.11 2.05 28.9 0 0 36.30 22.80
  Q 34.69 20.09 33.21 17.88
  A 0.19 0.04 1.8 0 0 33.05 17.84
  Q 33.03 17.84 33.00 17.84
  Q 32.97 17.84 32.95 17.84
  A 0.19 0.04 -1.8 0 0 32.79 17.88
  Q 31.31 20.09 29.70 22.80
  A 2.11 2.05 -28.9 0 0 29.42 23.72
  L 28.91 32.70
  A 0.68 0.68 0.0 0 1 28.20 33.34
  L 25.09 33.16
  A 0.56 0.56 0.0 0 1 24.56 32.60
  L 24.57 30.73
  A 1.15 1.15 0.0 0 1 25.10 29.76
  Q 25.15 29.73 25.35 29.68
  A 0.46 0.45 -12.3 0 0 25.71 29.15
  L 25.33 27.13
  A 0.59 0.59 0.0 0 0 24.20 27.01
  L 23.62 28.40
  A 0.51 0.50 43.0 0 1 22.70 28.43
  Q 22.56 28.15 22.38 27.15
  Q 22.27 26.59 21.93 26.62
  Q 21.82 26.62 21.47 26.80
  Q 21.19 26.94 21.16 27.17
  Q 20.89 28.82 19.83 28.70
  A 0.53 0.52 4.8 0 1 19.37 28.16
  L 19.41 27.46
  A 0.72 0.72 0.0 0 0 17.97 27.32
  Q 17.88 28.03 17.28 28.69
  A 0.49 0.49 0.0 0 1 16.42 28.33
  L 16.48 27.22
  A 0.66 0.66 0.0 0 0 15.18 27.03
  L 14.67 29.06
  A 0.48 0.48 0.0 0 0 15.03 29.65
  Q 15.86 29.82 15.85 30.50
  Q 15.74 42.43 15.85 49.59
  A 0.62 0.62 0.0 0 0 16.44 50.21
  Q 17.38 50.25 32.99 50.25"
/>
<path stroke="#9a9b96" vector-effect="non-scaling-stroke" d="
  M 32.20 27.00
  L 33.82 26.98
  A 0.47 0.47 0.0 0 0 34.29 26.51
  L 34.27 24.78
  A 1.84 1.15 89.4 0 0 33.10 22.95
  L 32.84 22.95
  A 1.84 1.15 89.4 0 0 31.71 24.80
  L 31.73 26.53
  A 0.47 0.47 0.0 0 0 32.20 27.00"
/>
<path stroke="#9a9b96" vector-effect="non-scaling-stroke" d="
  M 23.0896 30.2391
  A 0.47 0.47 0.0 0 0 22.6147 29.7741
  L 17.6550 29.8260
  A 0.47 0.47 0.0 0 0 17.1900 30.3009
  L 17.1904 30.3409
  A 0.47 0.47 0.0 0 0 17.6653 30.8059
  L 22.6250 30.7540
  A 0.47 0.47 0.0 0 0 23.0900 30.2791
  L 23.0896 30.2391"
/>
<path stroke="#9a9b96" vector-effect="non-scaling-stroke" d="
  M 48.8394 30.2236
  A 0.48 0.48 0.0 0 0 48.3536 29.7495
  L 43.3540 29.8106
  A 0.48 0.48 0.0 0 0 42.8799 30.2964
  L 42.8806 30.3564
  A 0.48 0.48 0.0 0 0 43.3664 30.8305
  L 48.3660 30.7694
  A 0.48 0.48 0.0 0 0 48.8401 30.2836
  L 48.8394 30.2236"
/>
<path stroke="#9a9b96" vector-effect="non-scaling-stroke" d="
  M 29.77 48.01
  L 36.25 47.97
  A 0.40 0.40 0.0 0 0 36.65 47.57
  L 36.61 40.67
  A 4.98 3.53 89.7 0 0 33.06 35.71
  L 32.84 35.71
  A 4.98 3.53 89.7 0 0 29.33 40.71
  L 29.37 47.61
  A 0.40 0.40 0.0 0 0 29.77 48.01"
/>
<path stroke="#9a9b96" vector-effect="non-scaling-stroke" d="
  M 21.24 44.30
  A 0.68 0.68 0.0 0 0 20.56 43.62
  L 19.80 43.62
  A 0.68 0.68 0.0 0 0 19.12 44.30
  L 19.12 47.38
  A 0.68 0.68 0.0 0 0 19.80 48.06
  L 20.56 48.06
  A 0.68 0.68 0.0 0 0 21.24 47.38
  L 21.24 44.30"
/>
<path stroke="#9a9b96" vector-effect="non-scaling-stroke" d="
  M 46.8615 44.3070
  A 0.71 0.71 0.0 0 0 46.1429 43.6058
  L 45.4229 43.6146
  A 0.71 0.71 0.0 0 0 44.7216 44.3332
  L 44.7585 47.3530
  A 0.71 0.71 0.0 0 0 45.4771 48.0542
  L 46.1971 48.0454
  A 0.71 0.71 0.0 0 0 46.8984 47.3268
  L 46.8615 44.3070"
/>
</g>
<path fill="#1c1e17" d="
  M 33.79 88.00
  L 33.04 88.00
  C 21.93 77.91 11.94 65.52 5.64 51.57
  Q 2.23 44.02 1.60 34.89
  C 0.50 19.00 11.23 5.66 26.51 2.10
  C 41.05 -1.29 56.08 6.03 62.69 19.93
  C 66.94 28.88 65.90 40.02 62.33 49.06
  C 56.49 63.88 45.54 77.35 33.79 88.00
  Z
  M 33.38 86.54
  Q 33.53 86.54 33.61 86.51
  Q 33.63 86.50 33.78 86.37
  C 44.89 76.10 55.16 63.42 60.88 49.30
  C 64.61 40.10 65.85 28.94 61.32 19.89
  C 55.99 9.21 45.34 2.54 33.53 2.52
  C 21.71 2.50 11.04 9.14 5.67 19.79
  C 1.11 28.83 2.32 40.00 6.02 49.21
  C 11.69 63.35 21.91 76.06 32.99 86.37
  Q 33.14 86.50 33.15 86.51
  Q 33.23 86.54 33.38 86.54
  Z"
/>
<path fill="#34362c" d="
  M 33.53 2.52
  C 45.34 2.54 55.99 9.21 61.32 19.89
  C 65.85 28.94 64.61 40.10 60.88 49.30
  C 55.16 63.42 44.89 76.10 33.78 86.37
  Q 33.63 86.50 33.61 86.51
  Q 33.53 86.54 33.38 86.54
  Q 33.23 86.54 33.15 86.51
  Q 33.14 86.50 32.99 86.37
  C 21.91 76.06 11.69 63.35 6.02 49.21
  C 2.32 40.00 1.11 28.83 5.67 19.79
  C 11.04 9.14 21.71 2.50 33.53 2.52
  Z
  M 32.99 50.25
  Q 48.61 50.25 49.54 50.21
  A 0.62 0.62 0.0 0 0 50.14 49.60
  Q 50.25 42.44 50.14 30.51
  Q 50.13 29.83 50.96 29.66
  A 0.48 0.48 0.0 0 0 51.33 29.07
  L 50.82 27.04
  A 0.66 0.66 0.0 0 0 49.52 27.23
  L 49.58 28.34
  A 0.49 0.49 0.0 0 1 48.72 28.70
  Q 48.12 28.04 48.03 27.33
  A 0.72 0.72 0.0 0 0 46.59 27.47
  L 46.63 28.17
  A 0.53 0.52 -4.8 0 1 46.17 28.71
  Q 45.11 28.83 44.84 27.18
  Q 44.81 26.95 44.53 26.81
  Q 44.18 26.62 44.07 26.62
  Q 43.73 26.59 43.62 27.15
  Q 43.44 28.15 43.30 28.43
  A 0.51 0.50 -42.9 0 1 42.38 28.40
  L 41.80 27.01
  A 0.59 0.59 0.0 0 0 40.67 27.13
  L 40.29 29.15
  A 0.46 0.45 12.3 0 0 40.64 29.68
  Q 40.84 29.73 40.89 29.76
  A 1.15 1.15 0.0 0 1 41.42 30.73
  L 41.43 32.60
  A 0.56 0.56 0.0 0 1 40.90 33.16
  L 37.79 33.34
  A 0.68 0.68 0.0 0 1 37.08 32.70
  L 36.58 23.72
  A 2.11 2.05 28.9 0 0 36.30 22.80
  Q 34.69 20.09 33.21 17.88
  A 0.19 0.04 1.8 0 0 33.05 17.84
  Q 33.03 17.84 33.00 17.84
  Q 32.97 17.84 32.95 17.84
  A 0.19 0.04 -1.8 0 0 32.79 17.88
  Q 31.31 20.09 29.70 22.80
  A 2.11 2.05 -28.9 0 0 29.42 23.72
  L 28.91 32.70
  A 0.68 0.68 0.0 0 1 28.20 33.34
  L 25.09 33.16
  A 0.56 0.56 0.0 0 1 24.56 32.60
  L 24.57 30.73
  A 1.15 1.15 0.0 0 1 25.10 29.76
  Q 25.15 29.73 25.35 29.68
  A 0.46 0.45 -12.3 0 0 25.71 29.15
  L 25.33 27.13
  A 0.59 0.59 0.0 0 0 24.20 27.01
  L 23.62 28.40
  A 0.51 0.50 43.0 0 1 22.70 28.43
  Q 22.56 28.15 22.38 27.15
  Q 22.27 26.59 21.93 26.62
  Q 21.82 26.62 21.47 26.80
  Q 21.19 26.94 21.16 27.17
  Q 20.89 28.82 19.83 28.70
  A 0.53 0.52 4.8 0 1 19.37 28.16
  L 19.41 27.46
  A 0.72 0.72 0.0 0 0 17.97 27.32
  Q 17.88 28.03 17.28 28.69
  A 0.49 0.49 0.0 0 1 16.42 28.33
  L 16.48 27.22
  A 0.66 0.66 0.0 0 0 15.18 27.03
  L 14.67 29.06
  A 0.48 0.48 0.0 0 0 15.03 29.65
  Q 15.86 29.82 15.85 30.50
  Q 15.74 42.43 15.85 49.59
  A 0.62 0.62 0.0 0 0 16.44 50.21
  Q 17.38 50.25 32.99 50.25
  Z"
/>
<path fill="#ffffff" d="
  M 33.00 17.84
  Q 33.03 17.84 33.05 17.84
  A 0.19 0.04 1.8 0 1 33.21 17.88
  Q 34.69 20.09 36.30 22.80
  A 2.11 2.05 28.9 0 1 36.58 23.72
  L 37.08 32.70
  A 0.68 0.68 0.0 0 0 37.79 33.34
  L 40.90 33.16
  A 0.56 0.56 0.0 0 0 41.43 32.60
  L 41.42 30.73
  A 1.15 1.15 0.0 0 0 40.89 29.76
  Q 40.84 29.73 40.64 29.68
  A 0.46 0.45 12.3 0 1 40.29 29.15
  L 40.67 27.13
  A 0.59 0.59 0.0 0 1 41.80 27.01
  L 42.38 28.40
  A 0.51 0.50 -42.9 0 0 43.30 28.43
  Q 43.44 28.15 43.62 27.15
  Q 43.73 26.59 44.07 26.62
  Q 44.18 26.62 44.53 26.81
  Q 44.81 26.95 44.84 27.18
  Q 45.11 28.83 46.17 28.71
  A 0.53 0.52 -4.8 0 0 46.63 28.17
  L 46.59 27.47
  A 0.72 0.72 0.0 0 1 48.03 27.33
  Q 48.12 28.04 48.72 28.70
  A 0.49 0.49 0.0 0 0 49.58 28.34
  L 49.52 27.23
  A 0.66 0.66 0.0 0 1 50.82 27.04
  L 51.33 29.07
  A 0.48 0.48 0.0 0 1 50.96 29.66
  Q 50.13 29.83 50.14 30.51
  Q 50.25 42.44 50.14 49.60
  A 0.62 0.62 0.0 0 1 49.54 50.21
  Q 48.61 50.25 32.99 50.25
  Q 17.38 50.25 16.44 50.21
  A 0.62 0.62 0.0 0 1 15.85 49.59
  Q 15.74 42.43 15.85 30.50
  Q 15.86 29.82 15.03 29.65
  A 0.48 0.48 0.0 0 1 14.67 29.06
  L 15.18 27.03
  A 0.66 0.66 0.0 0 1 16.48 27.22
  L 16.42 28.33
  A 0.49 0.49 0.0 0 0 17.28 28.69
  Q 17.88 28.03 17.97 27.32
  A 0.72 0.72 0.0 0 1 19.41 27.46
  L 19.37 28.16
  A 0.53 0.52 4.8 0 0 19.83 28.70
  Q 20.89 28.82 21.16 27.17
  Q 21.19 26.94 21.47 26.80
  Q 21.82 26.62 21.93 26.62
  Q 22.27 26.59 22.38 27.15
  Q 22.56 28.15 22.70 28.43
  A 0.51 0.50 43.0 0 0 23.62 28.40
  L 24.20 27.01
  A 0.59 0.59 0.0 0 1 25.33 27.13
  L 25.71 29.15
  A 0.46 0.45 -12.3 0 1 25.35 29.68
  Q 25.15 29.73 25.10 29.76
  A 1.15 1.15 0.0 0 0 24.57 30.73
  L 24.56 32.60
  A 0.56 0.56 0.0 0 0 25.09 33.16
  L 28.20 33.34
  A 0.68 0.68 0.0 0 0 28.91 32.70
  L 29.42 23.72
  A 2.11 2.05 -28.9 0 1 29.70 22.80
  Q 31.31 20.09 32.79 17.88
  A 0.19 0.04 -1.8 0 1 32.95 17.84
  Q 32.97 17.84 33.00 17.84
  Z
  M 32.20 27.00
  L 33.82 26.98
  A 0.47 0.47 0.0 0 0 34.29 26.51
  L 34.27 24.78
  A 1.84 1.15 89.4 0 0 33.10 22.95
  L 32.84 22.95
  A 1.84 1.15 89.4 0 0 31.71 24.80
  L 31.73 26.53
  A 0.47 0.47 0.0 0 0 32.20 27.00
  Z
  M 23.0896 30.2391
  A 0.47 0.47 0.0 0 0 22.6147 29.7741
  L 17.6550 29.8260
  A 0.47 0.47 0.0 0 0 17.1900 30.3009
  L 17.1904 30.3409
  A 0.47 0.47 0.0 0 0 17.6653 30.8059
  L 22.6250 30.7540
  A 0.47 0.47 0.0 0 0 23.0900 30.2791
  L 23.0896 30.2391
  Z
  M 48.8394 30.2236
  A 0.48 0.48 0.0 0 0 48.3536 29.7495
  L 43.3540 29.8106
  A 0.48 0.48 0.0 0 0 42.8799 30.2964
  L 42.8806 30.3564
  A 0.48 0.48 0.0 0 0 43.3664 30.8305
  L 48.3660 30.7694
  A 0.48 0.48 0.0 0 0 48.8401 30.2836
  L 48.8394 30.2236
  Z
  M 29.77 48.01
  L 36.25 47.97
  A 0.40 0.40 0.0 0 0 36.65 47.57
  L 36.61 40.67
  A 4.98 3.53 89.7 0 0 33.06 35.71
  L 32.84 35.71
  A 4.98 3.53 89.7 0 0 29.33 40.71
  L 29.37 47.61
  A 0.40 0.40 0.0 0 0 29.77 48.01
  Z
  M 21.24 44.30
  A 0.68 0.68 0.0 0 0 20.56 43.62
  L 19.80 43.62
  A 0.68 0.68 0.0 0 0 19.12 44.30
  L 19.12 47.38
  A 0.68 0.68 0.0 0 0 19.80 48.06
  L 20.56 48.06
  A 0.68 0.68 0.0 0 0 21.24 47.38
  L 21.24 44.30
  Z
  M 46.8615 44.3070
  A 0.71 0.71 0.0 0 0 46.1429 43.6058
  L 45.4229 43.6146
  A 0.71 0.71 0.0 0 0 44.7216 44.3332
  L 44.7585 47.3530
  A 0.71 0.71 0.0 0 0 45.4771 48.0542
  L 46.1971 48.0454
  A 0.71 0.71 0.0 0 0 46.8984 47.3268
  L 46.8615 44.3070
  Z"
/>
<path fill="#34362c" d="
  M 32.20 27.00
  A 0.47 0.47 0.0 0 1 31.73 26.53
  L 31.71 24.80
  A 1.84 1.15 89.4 0 1 32.84 22.95
  L 33.10 22.95
  A 1.84 1.15 89.4 0 1 34.27 24.78
  L 34.29 26.51
  A 0.47 0.47 0.0 0 1 33.82 26.98
  L 32.20 27.00
  Z"
/>
<rect fill="#34362c" x="-2.95" y="-0.49" transform="translate(20.14,30.29) rotate(-0.6)" width="5.90" height="0.98" rx="0.47"/>
<rect fill="#34362c" x="-2.98" y="-0.51" transform="translate(45.86,30.29) rotate(-0.7)" width="5.96" height="1.02" rx="0.48"/>
<path fill="#34362c" d="
  M 29.77 48.01
  A 0.40 0.40 0.0 0 1 29.37 47.61
  L 29.33 40.71
  A 4.98 3.53 89.7 0 1 32.84 35.71
  L 33.06 35.71
  A 4.98 3.53 89.7 0 1 36.61 40.67
  L 36.65 47.57
  A 0.40 0.40 0.0 0 1 36.25 47.97
  L 29.77 48.01
  Z"
/>
<rect fill="#34362c" x="19.12" y="43.62" width="2.12" height="4.44" rx="0.68"/>
<rect fill="#34362c" x="-1.07" y="-2.22" transform="translate(45.81,45.83) rotate(-0.7)" width="2.14" height="4.44" rx="0.71"/>
</svg>
