<?xml version="1.0" encoding="UTF-8" standalone="no"?>
<!DOCTYPE svg PUBLIC "-//W3C//DTD SVG 1.1//EN" "http://www.w3.org/Graphics/SVG/1.1/DTD/svg11.dtd">
<svg xmlns="http://www.w3.org/2000/svg" version="1.1" viewBox="0.00 0.00 66.00 88.00">
<g stroke-width="2.00" fill="none" stroke-linecap="butt">
<path stroke="#431a44" vector-effect="non-scaling-stroke" d="
  M 33.42 86.53
  Q 33.72 86.53 33.89 86.37
  C 46.82 74.30 59.54 58.24 63.45 40.83
  C 67.87 21.15 54.56 3.64 34.50 2.50
  Q 33.66 2.45 33.48 2.45
  Q 33.30 2.45 32.46 2.50
  C 12.40 3.61 -0.93 21.10 3.46 40.79
  C 7.35 58.20 20.04 74.28 32.96 86.37
  Q 33.13 86.53 33.42 86.53"
/>
<path stroke="#ac91ac" vector-effect="non-scaling-stroke" d="
  M 50.97 16.68
  A 0.14 0.13 -13.1 0 0 50.74 16.54
  Q 42.97 25.59 33.15 33.14
  Q 28.39 36.81 20.55 42.04
  Q 18.65 43.31 17.40 45.79
  A 3.46 3.28 -52.5 0 0 17.79 49.50
  Q 20.84 53.06 25.97 51.98
  C 31.58 50.80 35.00 46.34 38.54 41.06
  C 43.58 33.53 47.46 24.53 50.97 16.68"
/>
<path stroke="#ac91ac" vector-effect="non-scaling-stroke" d="
  M 45.54 20.14
  Q 37.19 26.80 28.37 30.35
  Q 20.40 33.57 18.51 34.67
  A 4.92 4.85 -82.8 0 0 17.38 35.56
  Q 13.25 39.85 15.51 46.36
  A 0.21 0.21 0.0 0 0 15.91 46.37
  Q 17.41 42.59 21.04 40.27
  Q 34.29 31.80 45.83 20.48
  A 0.22 0.21 -44.0 0 0 45.84 20.18
  L 45.84 20.17
  A 0.23 0.22 50.0 0 0 45.54 20.14"
/>
</g>
<path fill="#2e112e" d="
  M 33.81 88.00
  L 33.04 88.00
  C 21.75 77.74 12.13 65.70 5.66 51.56
  Q 0.20 39.60 2.06 26.55
  Q 2.40 24.14 4.24 20.06
  C 9.47 8.47 20.57 1.72 33.00 1.31
  C 40.82 1.05 49.79 4.37 55.63 10.10
  Q 68.53 22.77 64.55 41.21
  Q 61.82 53.83 53.58 65.57
  Q 44.99 77.81 33.81 88.00
  Z
  M 33.42 86.53
  Q 33.72 86.53 33.89 86.37
  C 46.82 74.30 59.54 58.24 63.45 40.83
  C 67.87 21.15 54.56 3.64 34.50 2.50
  Q 33.66 2.45 33.48 2.45
  Q 33.30 2.45 32.46 2.50
  C 12.40 3.61 -0.93 21.10 3.46 40.79
  C 7.35 58.20 20.04 74.28 32.96 86.37
  Q 33.13 86.53 33.42 86.53
  Z"
/>
<path fill="#582359" d="
  M 33.48 2.45
  Q 33.66 2.45 34.50 2.50
  C 54.56 3.64 67.87 21.15 63.45 40.83
  C 59.54 58.24 46.82 74.30 33.89 86.37
  Q 33.72 86.53 33.42 86.53
  Q 33.13 86.53 32.96 86.37
  C 20.04 74.28 7.35 58.20 3.46 40.79
  C -0.93 21.10 12.40 3.61 32.46 2.50
  Q 33.30 2.45 33.48 2.45
  Z
  M 50.97 16.68
  A 0.14 0.13 -13.1 0 0 50.74 16.54
  Q 42.97 25.59 33.15 33.14
  Q 28.39 36.81 20.55 42.04
  Q 18.65 43.31 17.40 45.79
  A 3.46 3.28 -52.5 0 0 17.79 49.50
  Q 20.84 53.06 25.97 51.98
  C 31.58 50.80 35.00 46.34 38.54 41.06
  C 43.58 33.53 47.46 24.53 50.97 16.68
  Z
  M 45.54 20.14
  Q 37.19 26.80 28.37 30.35
  Q 20.40 33.57 18.51 34.67
  A 4.92 4.85 -82.8 0 0 17.38 35.56
  Q 13.25 39.85 15.51 46.36
  A 0.21 0.21 0.0 0 0 15.91 46.37
  Q 17.41 42.59 21.04 40.27
  Q 34.29 31.80 45.83 20.48
  A 0.22 0.21 -44.0 0 0 45.84 20.18
  L 45.84 20.17
  A 0.23 0.22 50.0 0 0 45.54 20.14
  Z"
/>
<path fill="#ffffff" d="
  M 50.97 16.68
  C 47.46 24.53 43.58 33.53 38.54 41.06
  C 35.00 46.34 31.58 50.80 25.97 51.98
  Q 20.84 53.06 17.79 49.50
  A 3.46 3.28 -52.5 0 1 17.40 45.79
  Q 18.65 43.31 20.55 42.04
  Q 28.39 36.81 33.15 33.14
  Q 42.97 25.59 50.74 16.54
  A 0.14 0.13 -13.1 0 1 50.97 16.68
  Z"
/>
<path fill="#ffffff" d="
  M 45.54 20.14
  A 0.23 0.22 50.0 0 1 45.84 20.17
  L 45.84 20.18
  A 0.22 0.21 -44.0 0 1 45.83 20.48
  Q 34.29 31.80 21.04 40.27
  Q 17.41 42.59 15.91 46.37
  A 0.21 0.21 0.0 0 1 15.51 46.36
  Q 13.25 39.85 17.38 35.56
  A 4.92 4.85 -82.8 0 1 18.51 34.67
  Q 20.40 33.57 28.37 30.35
  Q 37.19 26.80 45.54 20.14
  Z"
/>
</svg>
