<?xml version="1.0" encoding="UTF-8" standalone="no"?>
<!DOCTYPE svg PUBLIC "-//W3C//DTD SVG 1.1//EN" "http://www.w3.org/Graphics/SVG/1.1/DTD/svg11.dtd">
<svg xmlns="http://www.w3.org/2000/svg" version="1.1" viewBox="0.00 0.00 66.00 88.00">
<g stroke-width="2.00" fill="none" stroke-linecap="butt">
<path stroke="#2a4c38" vector-effect="non-scaling-stroke" d="
  M 33.42 86.65
  Q 33.48 86.65 33.53 86.64
  A 0.30 0.25 -62.5 0 0 33.70 86.57
  Q 48.36 73.23 57.54 56.51
  Q 62.63 47.25 63.81 38.77
  Q 66.78 17.43 48.74 6.53
  Q 42.09 2.51 33.53 2.50
  Q 24.96 2.49 18.30 6.50
  Q 0.23 17.35 3.15 38.70
  Q 4.31 47.18 9.38 56.45
  Q 18.52 73.19 33.14 86.57
  A 0.30 0.25 62.6 0 0 33.32 86.64
  Q 33.37 86.65 33.42 86.65"
/>
<path stroke="#9cb1a5" vector-effect="non-scaling-stroke" d="
  M 23.34 28.83
  L 24.36 33.25
  A 0.84 0.83 -1.0 0 0 25.03 33.89
  L 27.87 34.38
  A 1.39 1.37 34.7 0 0 28.84 34.21
  L 32.42 32.14
  A 1.21 1.19 -44.6 0 1 33.61 32.14
  L 37.53 34.41
  A 0.62 0.60 -36.5 0 0 37.98 34.47
  L 40.82 33.82
  A 0.71 0.70 -1.3 0 0 41.37 33.25
  L 42.13 28.95
  A 0.60 0.60 0.0 0 1 43.24 28.75
  L 44.29 30.55
  A 0.29 0.28 -36.9 0 0 44.74 30.61
  L 47.93 27.42
  A 1.06 1.06 0.0 0 0 48.10 26.15
  L 44.53 19.98
  A 0.66 0.64 -1.0 0 0 44.24 19.71
  Q 38.00 16.74 32.89 16.46
  A 7.12 6.97 -49.4 0 0 30.85 16.64
  L 22.05 18.65
  A 0.71 0.69 8.0 0 0 21.61 18.97
  L 17.48 26.12
  A 1.15 1.15 0.0 0 0 17.67 27.50
  L 21.47 31.30
  A 0.49 0.48 27.7 0 0 22.29 31.05
  L 22.68 28.85
  A 0.34 0.34 0.0 0 1 23.34 28.83"
/>
<path stroke="#9cb1a5" vector-effect="non-scaling-stroke" d="
  M 32.83 47.66
  Q 35.60 47.67 37.99 44.91
  A 0.67 0.66 24.8 0 1 38.60 44.69
  L 39.83 44.91
  A 0.62 0.62 0.0 0 0 40.54 44.17
  Q 39.64 40.16 41.11 35.69
  A 0.37 0.37 0.0 0 0 40.68 35.21
  L 37.68 35.90
  A 0.98 0.95 -33.5 0 1 36.93 35.76
  Q 35.57 34.87 33.20 33.43
  Q 33.15 33.40 32.91 33.40
  Q 32.67 33.40 32.62 33.43
  Q 30.23 34.84 28.86 35.71
  A 0.98 0.95 34.2 0 1 28.11 35.85
  L 25.12 35.12
  A 0.37 0.37 0.0 0 0 24.69 35.60
  Q 26.10 40.08 25.16 44.08
  A 0.62 0.62 0.0 0 0 25.86 44.83
  L 27.09 44.62
  A 0.67 0.66 -24.2 0 1 27.70 44.85
  Q 30.06 47.64 32.83 47.66"
/>
<path stroke="#9cb1a5" vector-effect="non-scaling-stroke" d="
  M 40.30 47.92
  A 0.57 0.57 0.0 0 0 40.75 46.91
  Q 39.64 46.03 38.52 46.34
  A 1.64 1.58 -74.1 0 0 37.85 46.73
  C 34.97 49.50 30.47 49.87 27.56 46.78
  Q 26.65 45.81 25.85 45.87
  A 1.14 1.12 3.6 0 0 24.81 46.77
  L 24.73 47.12
  A 0.66 0.65 2.5 0 0 25.45 47.90
  Q 26.36 47.81 28.74 49.26
  Q 33.79 52.32 38.54 48.04
  A 1.10 1.08 28.2 0 1 39.46 47.77
  L 40.30 47.92"
/>
<path stroke="#9cb1a5" vector-effect="non-scaling-stroke" d="
  M 32.77 24.14
  Q 32.83 24.14 32.89 24.13
  Q 37.06 23.42 39.07 19.96
  A 0.69 0.69 0.0 0 0 38.66 18.94
  Q 35.46 18.05 32.89 18.00
  Q 30.33 17.95 27.10 18.71
  A 0.69 0.69 0.0 0 0 26.64 19.71
  Q 28.52 23.25 32.66 24.13
  Q 32.71 24.14 32.77 24.14"
/>
</g>
<path fill="#1b3425" d="
  M 33.80 88.00
  L 33.04 88.00
  C 16.70 73.16 -6.73 43.72 4.28 19.96
  C 9.59 8.51 20.30 1.84 32.75 1.30
  C 37.43 1.09 43.71 2.44 48.00 4.73
  C 63.41 12.94 68.88 29.03 63.45 45.67
  C 58.12 62.03 46.36 76.57 33.80 88.00
  Z
  M 33.42 86.65
  Q 33.48 86.65 33.53 86.64
  A 0.30 0.25 -62.5 0 0 33.70 86.57
  Q 48.36 73.23 57.54 56.51
  Q 62.63 47.25 63.81 38.77
  Q 66.78 17.43 48.74 6.53
  Q 42.09 2.51 33.53 2.50
  Q 24.96 2.49 18.30 6.50
  Q 0.23 17.35 3.15 38.70
  Q 4.31 47.18 9.38 56.45
  Q 18.52 73.19 33.14 86.57
  A 0.30 0.25 62.6 0 0 33.32 86.64
  Q 33.37 86.65 33.42 86.65
  Z"
/>
<path fill="#39634a" d="
  M 33.53 2.50
  Q 42.09 2.51 48.74 6.53
  Q 66.78 17.43 63.81 38.77
  Q 62.63 47.25 57.54 56.51
  Q 48.36 73.23 33.70 86.57
  A 0.30 0.25 -62.5 0 1 33.53 86.64
  Q 33.48 86.65 33.42 86.65
  Q 33.37 86.65 33.32 86.64
  A 0.30 0.25 62.6 0 1 33.14 86.57
  Q 18.52 73.19 9.38 56.45
  Q 4.31 47.18 3.15 38.70
  Q 0.23 17.35 18.30 6.50
  Q 24.96 2.49 33.53 2.50
  Z
  M 23.34 28.83
  L 24.36 33.25
  A 0.84 0.83 -1.0 0 0 25.03 33.89
  L 27.87 34.38
  A 1.39 1.37 34.7 0 0 28.84 34.21
  L 32.42 32.14
  A 1.21 1.19 -44.6 0 1 33.61 32.14
  L 37.53 34.41
  A 0.62 0.60 -36.5 0 0 37.98 34.47
  L 40.82 33.82
  A 0.71 0.70 -1.3 0 0 41.37 33.25
  L 42.13 28.95
  A 0.60 0.60 0.0 0 1 43.24 28.75
  L 44.29 30.55
  A 0.29 0.28 -36.9 0 0 44.74 30.61
  L 47.93 27.42
  A 1.06 1.06 0.0 0 0 48.10 26.15
  L 44.53 19.98
  A 0.66 0.64 -1.0 0 0 44.24 19.71
  Q 38.00 16.74 32.89 16.46
  A 7.12 6.97 -49.4 0 0 30.85 16.64
  L 22.05 18.65
  A 0.71 0.69 8.0 0 0 21.61 18.97
  L 17.48 26.12
  A 1.15 1.15 0.0 0 0 17.67 27.50
  L 21.47 31.30
  A 0.49 0.48 27.7 0 0 22.29 31.05
  L 22.68 28.85
  A 0.34 0.34 0.0 0 1 23.34 28.83
  Z
  M 32.83 47.66
  Q 35.60 47.67 37.99 44.91
  A 0.67 0.66 24.8 0 1 38.60 44.69
  L 39.83 44.91
  A 0.62 0.62 0.0 0 0 40.54 44.17
  Q 39.64 40.16 41.11 35.69
  A 0.37 0.37 0.0 0 0 40.68 35.21
  L 37.68 35.90
  A 0.98 0.95 -33.5 0 1 36.93 35.76
  Q 35.57 34.87 33.20 33.43
  Q 33.15 33.40 32.91 33.40
  Q 32.67 33.40 32.62 33.43
  Q 30.23 34.84 28.86 35.71
  A 0.98 0.95 34.2 0 1 28.11 35.85
  L 25.12 35.12
  A 0.37 0.37 0.0 0 0 24.69 35.60
  Q 26.10 40.08 25.16 44.08
  A 0.62 0.62 0.0 0 0 25.86 44.83
  L 27.09 44.62
  A 0.67 0.66 -24.2 0 1 27.70 44.85
  Q 30.06 47.64 32.83 47.66
  Z
  M 40.30 47.92
  A 0.57 0.57 0.0 0 0 40.75 46.91
  Q 39.64 46.03 38.52 46.34
  A 1.64 1.58 -74.1 0 0 37.85 46.73
  C 34.97 49.50 30.47 49.87 27.56 46.78
  Q 26.65 45.81 25.85 45.87
  A 1.14 1.12 3.6 0 0 24.81 46.77
  L 24.73 47.12
  A 0.66 0.65 2.5 0 0 25.45 47.90
  Q 26.36 47.81 28.74 49.26
  Q 33.79 52.32 38.54 48.04
  A 1.10 1.08 28.2 0 1 39.46 47.77
  L 40.30 47.92
  Z"
/>
<path fill="#ffffff" d="
  M 23.34 28.83
  A 0.34 0.34 0.0 0 0 22.68 28.85
  L 22.29 31.05
  A 0.49 0.48 27.7 0 1 21.47 31.30
  L 17.67 27.50
  A 1.15 1.15 0.0 0 1 17.48 26.12
  L 21.61 18.97
  A 0.71 0.69 8.0 0 1 22.05 18.65
  L 30.85 16.64
  A 7.12 6.97 -49.4 0 1 32.89 16.46
  Q 38.00 16.74 44.24 19.71
  A 0.66 0.64 -1.0 0 1 44.53 19.98
  L 48.10 26.15
  A 1.06 1.06 0.0 0 1 47.93 27.42
  L 44.74 30.61
  A 0.29 0.28 -36.9 0 1 44.29 30.55
  L 43.24 28.75
  A 0.60 0.60 0.0 0 0 42.13 28.95
  L 41.37 33.25
  A 0.71 0.70 -1.3 0 1 40.82 33.82
  L 37.98 34.47
  A 0.62 0.60 -36.5 0 1 37.53 34.41
  L 33.61 32.14
  A 1.21 1.19 -44.6 0 0 32.42 32.14
  L 28.84 34.21
  A 1.39 1.37 34.7 0 1 27.87 34.38
  L 25.03 33.89
  A 0.84 0.83 -1.0 0 1 24.36 33.25
  L 23.34 28.83
  Z
  M 32.77 24.14
  Q 32.83 24.14 32.89 24.13
  Q 37.06 23.42 39.07 19.96
  A 0.69 0.69 0.0 0 0 38.66 18.94
  Q 35.46 18.05 32.89 18.00
  Q 30.33 17.95 27.10 18.71
  A 0.69 0.69 0.0 0 0 26.64 19.71
  Q 28.52 23.25 32.66 24.13
  Q 32.71 24.14 32.77 24.14
  Z"
/>
<path fill="#39634a" d="
  M 32.89 18.00
  Q 35.46 18.05 38.66 18.94
  A 0.69 0.69 0.0 0 1 39.07 19.96
  Q 37.06 23.42 32.89 24.13
  Q 32.83 24.14 32.77 24.14
  Q 32.71 24.14 32.66 24.13
  Q 28.52 23.25 26.64 19.71
  A 0.69 0.69 0.0 0 1 27.10 18.71
  Q 30.33 17.95 32.89 18.00
  Z"
/>
<path fill="#ffffff" d="
  M 32.91 33.40
  Q 33.15 33.40 33.20 33.43
  Q 35.57 34.87 36.93 35.76
  A 0.98 0.95 -33.5 0 0 37.68 35.90
  L 40.68 35.21
  A 0.37 0.37 0.0 0 1 41.11 35.69
  Q 39.64 40.16 40.54 44.17
  A 0.62 0.62 0.0 0 1 39.83 44.91
  L 38.60 44.69
  A 0.67 0.66 24.8 0 0 37.99 44.91
  Q 35.60 47.67 32.83 47.66
  Q 30.06 47.64 27.70 44.85
  A 0.67 0.66 -24.2 0 0 27.09 44.62
  L 25.86 44.83
  A 0.62 0.62 0.0 0 1 25.16 44.08
  Q 26.10 40.08 24.69 35.60
  A 0.37 0.37 0.0 0 1 25.12 35.12
  L 28.11 35.85
  A 0.98 0.95 34.2 0 0 28.86 35.71
  Q 30.23 34.84 32.62 33.43
  Q 32.67 33.40 32.91 33.40
  Z"
/>
<path fill="#ffffff" d="
  M 40.30 47.92
  L 39.46 47.77
  A 1.10 1.08 28.2 0 0 38.54 48.04
  Q 33.79 52.32 28.74 49.26
  Q 26.36 47.81 25.45 47.90
  A 0.66 0.65 2.5 0 1 24.73 47.12
  L 24.81 46.77
  A 1.14 1.12 3.6 0 1 25.85 45.87
  Q 26.65 45.81 27.56 46.78
  C 30.47 49.87 34.97 49.50 37.85 46.73
  A 1.64 1.58 -74.1 0 1 38.52 46.34
  Q 39.64 46.03 40.75 46.91
  A 0.57 0.57 0.0 0 1 40.30 47.92
  Z"
/>
</svg>
