<?xml version="1.0" encoding="UTF-8" standalone="no"?>
<!DOCTYPE svg PUBLIC "-//W3C//DTD SVG 1.1//EN" "http://www.w3.org/Graphics/SVG/1.1/DTD/svg11.dtd">
<svg xmlns="http://www.w3.org/2000/svg" version="1.1" viewBox="0.00 0.00 66.00 88.00">
<g stroke-width="2.00" fill="none" stroke-linecap="butt">
<path stroke="#316b60" vector-effect="non-scaling-stroke" d="
  M 33.41 86.70
  Q 33.54 86.70 33.61 86.68
  Q 33.69 86.66 33.78 86.58
  C 50.97 70.53 77.68 36.43 56.64 12.88
  Q 48.08 3.31 35.00 2.51
  Q 34.13 2.45 33.53 2.45
  Q 32.93 2.45 32.06 2.50
  Q 18.98 3.27 10.39 12.81
  C -10.72 36.30 15.89 70.48 33.04 86.58
  Q 33.13 86.66 33.20 86.68
  Q 33.27 86.70 33.41 86.70"
/>
<path stroke="#a1c6bf" vector-effect="non-scaling-stroke" d="
  M 42.43 50.93
  C 40.57 46.82 35.87 46.03 36.26 40.72
  A 1.94 1.93 -87.9 0 1 38.19 38.92
  L 43.11 38.92
  A 0.67 0.67 0.0 0 0 43.76 38.42
  C 44.37 36.08 44.63 32.73 45.78 31.65
  A 0.49 0.49 0.0 0 0 45.87 31.04
  L 44.04 27.88
  A 1.40 1.38 36.4 0 1 43.89 26.93
  Q 45.48 18.86 37.67 16.30
  C 32.87 14.73 26.29 16.55 24.10 21.63
  C 22.37 25.63 23.65 29.57 26.09 33.13
  C 28.98 37.37 24.33 43.17 20.65 45.25
  A 0.53 0.52 -29.5 0 0 20.45 45.96
  C 21.90 48.55 23.57 48.39 26.00 48.84
  A 10.24 9.56 -38.4 0 0 27.99 49.00
  Q 29.45 48.96 36.40 49.06
  Q 37.85 49.08 41.98 51.35
  A 0.33 0.32 -87.8 0 0 42.43 50.93"
/>
</g>
<path fill="#1f4940" d="
  M 33.80 88.00
  L 33.04 88.00
  C 21.94 77.91 11.97 65.54 5.64 51.61
  Q 0.18 39.59 2.09 26.69
  Q 2.89 21.29 6.59 15.82
  C 15.82 2.19 32.86 -2.57 47.82 4.68
  Q 55.38 8.34 60.04 15.27
  Q 67.84 26.87 64.50 41.56
  Q 61.81 53.40 54.47 64.21
  Q 45.61 77.26 33.80 88.00
  Z
  M 33.41 86.70
  Q 33.54 86.70 33.61 86.68
  Q 33.69 86.66 33.78 86.58
  C 50.97 70.53 77.68 36.43 56.64 12.88
  Q 48.08 3.31 35.00 2.51
  Q 34.13 2.45 33.53 2.45
  Q 32.93 2.45 32.06 2.50
  Q 18.98 3.27 10.39 12.81
  C -10.72 36.30 15.89 70.48 33.04 86.58
  Q 33.13 86.66 33.20 86.68
  Q 33.27 86.70 33.41 86.70
  Z"
/>
<path fill="#428c7f" d="
  M 33.53 2.45
  Q 34.13 2.45 35.00 2.51
  Q 48.08 3.31 56.64 12.88
  C 77.68 36.43 50.97 70.53 33.78 86.58
  Q 33.69 86.66 33.61 86.68
  Q 33.54 86.70 33.41 86.70
  Q 33.27 86.70 33.20 86.68
  Q 33.13 86.66 33.04 86.58
  C 15.89 70.48 -10.72 36.30 10.39 12.81
  Q 18.98 3.27 32.06 2.50
  Q 32.93 2.45 33.53 2.45
  Z
  M 42.43 50.93
  C 40.57 46.82 35.87 46.03 36.26 40.72
  A 1.94 1.93 -87.9 0 1 38.19 38.92
  L 43.11 38.92
  A 0.67 0.67 0.0 0 0 43.76 38.42
  C 44.37 36.08 44.63 32.73 45.78 31.65
  A 0.49 0.49 0.0 0 0 45.87 31.04
  L 44.04 27.88
  A 1.40 1.38 36.4 0 1 43.89 26.93
  Q 45.48 18.86 37.67 16.30
  C 32.87 14.73 26.29 16.55 24.10 21.63
  C 22.37 25.63 23.65 29.57 26.09 33.13
  C 28.98 37.37 24.33 43.17 20.65 45.25
  A 0.53 0.52 -29.5 0 0 20.45 45.96
  C 21.90 48.55 23.57 48.39 26.00 48.84
  A 10.24 9.56 -38.4 0 0 27.99 49.00
  Q 29.45 48.96 36.40 49.06
  Q 37.85 49.08 41.98 51.35
  A 0.33 0.32 -87.8 0 0 42.43 50.93
  Z"
/>
<path fill="#ffffff" d="
  M 41.98 51.35
  Q 37.85 49.08 36.40 49.06
  Q 29.45 48.96 27.99 49.00
  A 10.24 9.56 -38.4 0 1 26.00 48.84
  C 23.57 48.39 21.90 48.55 20.45 45.96
  A 0.53 0.52 -29.5 0 1 20.65 45.25
  C 24.33 43.17 28.98 37.37 26.09 33.13
  C 23.65 29.57 22.37 25.63 24.10 21.63
  C 26.29 16.55 32.87 14.73 37.67 16.30
  Q 45.48 18.86 43.89 26.93
  A 1.40 1.38 36.4 0 0 44.04 27.88
  L 45.87 31.04
  A 0.49 0.49 0.0 0 1 45.78 31.65
  C 44.63 32.73 44.37 36.08 43.76 38.42
  A 0.67 0.67 0.0 0 1 43.11 38.92
  L 38.19 38.92
  A 1.94 1.93 -87.9 0 0 36.26 40.72
  C 35.87 46.03 40.57 46.82 42.43 50.93
  A 0.33 0.32 -87.8 0 1 41.98 51.35
  Z"
/>
</svg>
