<?xml version="1.0" encoding="UTF-8" standalone="no"?>
<!DOCTYPE svg PUBLIC "-//W3C//DTD SVG 1.1//EN" "http://www.w3.org/Graphics/SVG/1.1/DTD/svg11.dtd">
<svg xmlns="http://www.w3.org/2000/svg" version="1.1" viewBox="0.00 0.00 66.00 88.00">
<g stroke-width="2.00" fill="none" stroke-linecap="butt">
<path stroke="#464544" vector-effect="non-scaling-stroke" d="
  M 33.42 86.61
  C 33.93 86.61 33.62 86.64 33.80 86.47
  Q 45.38 75.64 53.65 63.15
  C 62.81 49.31 69.62 30.12 58.54 15.23
  C 52.62 7.28 43.70 2.52 33.52 2.51
  C 23.35 2.50 14.42 7.23 8.48 15.17
  C -2.64 30.03 4.12 49.24 13.25 63.10
  Q 21.49 75.61 33.04 86.47
  C 33.22 86.64 32.91 86.61 33.42 86.61"
/>
<path stroke="#aeadad" vector-effect="non-scaling-stroke" d="
  M 51.23 34.05
  A 18.26 18.26 0.0 0 0 32.97 15.79
  A 18.26 18.26 0.0 0 0 14.71 34.05
  A 18.26 18.26 0.0 0 0 32.97 52.31
  A 18.26 18.26 0.0 0 0 51.23 34.05"
/>
<path stroke="#aeadad" vector-effect="non-scaling-stroke" d="
  M 48.48 34.02
  A 15.51 15.51 0.0 0 0 32.97 18.51
  A 15.51 15.51 0.0 0 0 17.46 34.02
  A 15.51 15.51 0.0 0 0 32.97 49.53
  A 15.51 15.51 0.0 0 0 48.48 34.02"
/>
<path stroke="#aeadad" vector-effect="non-scaling-stroke" d="
  M 32.79 39.05
  Q 32.80 37.98 33.04 37.60
  A 2.15 2.09 -84.8 0 1 34.02 36.76
  L 38.24 34.93
  A 1.64 1.62 -87.0 0 0 39.02 34.22
  C 42.33 28.27 37.18 22.40 31.48 21.36
  Q 29.99 21.09 29.54 22.13
  A 2.05 2.04 -84.0 0 0 31.82 24.95
  Q 33.03 24.71 34.20 24.39
  A 1.57 1.55 -41.7 0 1 35.16 24.44
  C 38.16 25.58 39.88 30.39 36.16 31.74
  Q 33.05 32.86 31.91 34.03
  A 2.09 2.09 0.0 0 0 31.32 35.71
  Q 31.57 37.95 32.11 39.19
  A 0.36 0.35 -56.6 0 0 32.79 39.05"
/>
<path stroke="#aeadad" vector-effect="non-scaling-stroke" d="
  M 34.8639 44.3238
  A 0.31 0.31 0.0 0 0 34.8539 43.8855
  L 32.5838 41.7161
  A 0.31 0.31 0.0 0 0 32.1455 41.7261
  L 29.9761 43.9962
  A 0.31 0.31 0.0 0 0 29.9861 44.4345
  L 32.2562 46.6039
  A 0.31 0.31 0.0 0 0 32.6945 46.5939
  L 34.8639 44.3238"
/>
</g>
<path fill="#2f2f2e" d="
  M 33.81 88.00
  L 33.15 88.00
  Q 15.61 72.49 6.00 52.51
  Q 2.31 44.84 1.62 35.22
  C -0.27 8.81 28.63 -7.25 50.47 6.19
  Q 62.27 13.46 64.92 27.09
  C 69.22 49.25 49.07 74.08 33.81 88.00
  Z
  M 33.42 86.61
  C 33.93 86.61 33.62 86.64 33.80 86.47
  Q 45.38 75.64 53.65 63.15
  C 62.81 49.31 69.62 30.12 58.54 15.23
  C 52.62 7.28 43.70 2.52 33.52 2.51
  C 23.35 2.50 14.42 7.23 8.48 15.17
  C -2.64 30.03 4.12 49.24 13.25 63.10
  Q 21.49 75.61 33.04 86.47
  C 33.22 86.64 32.91 86.61 33.42 86.61
  Z"
/>
<path fill="#5c5a5a" d="
  M 33.52 2.51
  C 43.70 2.52 52.62 7.28 58.54 15.23
  C 69.62 30.12 62.81 49.31 53.65 63.15
  Q 45.38 75.64 33.80 86.47
  C 33.62 86.64 33.93 86.61 33.42 86.61
  C 32.91 86.61 33.22 86.64 33.04 86.47
  Q 21.49 75.61 13.25 63.10
  C 4.12 49.24 -2.64 30.03 8.48 15.17
  C 14.42 7.23 23.35 2.50 33.52 2.51
  Z
  M 51.23 34.05
  A 18.26 18.26 0.0 0 0 32.97 15.79
  A 18.26 18.26 0.0 0 0 14.71 34.05
  A 18.26 18.26 0.0 0 0 32.97 52.31
  A 18.26 18.26 0.0 0 0 51.23 34.05
  Z"
/>
<path fill="#ffffff" d="
  M 51.23 34.05
  A 18.26 18.26 0.0 0 1 32.97 52.31
  A 18.26 18.26 0.0 0 1 14.71 34.05
  A 18.26 18.26 0.0 0 1 32.97 15.79
  A 18.26 18.26 0.0 0 1 51.23 34.05
  Z
  M 48.48 34.02
  A 15.51 15.51 0.0 0 0 32.97 18.51
  A 15.51 15.51 0.0 0 0 17.46 34.02
  A 15.51 15.51 0.0 0 0 32.97 49.53
  A 15.51 15.51 0.0 0 0 48.48 34.02
  Z"
/>
<path fill="#5c5a5a" d="
  M 48.48 34.02
  A 15.51 15.51 0.0 0 1 32.97 49.53
  A 15.51 15.51 0.0 0 1 17.46 34.02
  A 15.51 15.51 0.0 0 1 32.97 18.51
  A 15.51 15.51 0.0 0 1 48.48 34.02
  Z
  M 32.79 39.05
  Q 32.80 37.98 33.04 37.60
  A 2.15 2.09 -84.8 0 1 34.02 36.76
  L 38.24 34.93
  A 1.64 1.62 -87.0 0 0 39.02 34.22
  C 42.33 28.27 37.18 22.40 31.48 21.36
  Q 29.99 21.09 29.54 22.13
  A 2.05 2.04 -84.0 0 0 31.82 24.95
  Q 33.03 24.71 34.20 24.39
  A 1.57 1.55 -41.7 0 1 35.16 24.44
  C 38.16 25.58 39.88 30.39 36.16 31.74
  Q 33.05 32.86 31.91 34.03
  A 2.09 2.09 0.0 0 0 31.32 35.71
  Q 31.57 37.95 32.11 39.19
  A 0.36 0.35 -56.6 0 0 32.79 39.05
  Z
  M 34.8639 44.3238
  A 0.31 0.31 0.0 0 0 34.8539 43.8855
  L 32.5838 41.7161
  A 0.31 0.31 0.0 0 0 32.1455 41.7261
  L 29.9761 43.9962
  A 0.31 0.31 0.0 0 0 29.9861 44.4345
  L 32.2562 46.6039
  A 0.31 0.31 0.0 0 0 32.6945 46.5939
  L 34.8639 44.3238
  Z"
/>
<path fill="#ffffff" d="
  M 32.11 39.19
  Q 31.57 37.95 31.32 35.71
  A 2.09 2.09 0.0 0 1 31.91 34.03
  Q 33.05 32.86 36.16 31.74
  C 39.88 30.39 38.16 25.58 35.16 24.44
  A 1.57 1.55 -41.7 0 0 34.20 24.39
  Q 33.03 24.71 31.82 24.95
  A 2.05 2.04 -84.0 0 1 29.54 22.13
  Q 29.99 21.09 31.48 21.36
  C 37.18 22.40 42.33 28.27 39.02 34.22
  A 1.64 1.62 -87.0 0 1 38.24 34.93
  L 34.02 36.76
  A 2.15 2.09 -84.8 0 0 33.04 37.60
  Q 32.80 37.98 32.79 39.05
  A 0.36 0.35 -56.6 0 1 32.11 39.19
  Z"
/>
<rect fill="#ffffff" x="-1.88" y="-1.88" transform="translate(32.42,44.16) rotate(43.7)" width="3.76" height="3.76" rx="0.31"/>
</svg>
