<?xml version="1.0" encoding="UTF-8" standalone="no"?>
<!DOCTYPE svg PUBLIC "-//W3C//DTD SVG 1.1//EN" "http://www.w3.org/Graphics/SVG/1.1/DTD/svg11.dtd">
<svg xmlns="http://www.w3.org/2000/svg" version="1.1" viewBox="0.00 0.00 66.00 88.00">
<g stroke-width="2.00" fill="none" stroke-linecap="butt">
<path stroke="#431a44" vector-effect="non-scaling-stroke" d="
  M 33.43 86.53
  C 33.50 86.53 33.73 86.50 33.81 86.43
  C 47.24 73.97 61.99 55.56 64.04 37.05
  Q 65.68 22.26 55.74 11.95
  Q 47.00 2.88 33.75 2.46
  Q 33.60 2.46 33.49 2.46
  Q 33.38 2.46 33.22 2.46
  Q 19.97 2.86 11.22 11.92
  Q 1.27 22.22 2.89 37.01
  C 4.91 55.52 19.63 73.95 33.05 86.43
  C 33.12 86.50 33.35 86.53 33.43 86.53"
/>
<path stroke="#ac91ac" vector-effect="non-scaling-stroke" d="
  M 14.77 39.70
  Q 14.97 40.13 15.60 40.54
  Q 16.25 40.95 16.57 41.01
  Q 21.32 41.80 26.17 44.16
  A 6.15 6.06 61.9 0 0 27.93 44.71
  Q 30.06 45.03 30.75 44.99
  Q 39.23 44.44 47.48 42.47
  Q 49.33 42.03 50.49 41.29
  A 1.80 1.80 0.0 0 0 50.99 38.74
  Q 49.93 37.24 48.31 36.47
  C 47.12 35.90 46.94 34.19 45.96 33.75
  Q 40.54 31.30 36.48 26.71
  C 34.37 24.33 32.03 22.63 29.70 25.70
  C 25.93 30.67 21.12 35.79 15.34 38.23
  A 1.09 1.09 0.0 0 0 14.77 39.70"
/>
<path stroke="#ac91ac" vector-effect="non-scaling-stroke" d="
  M 33.51 26.89
  C 36.11 34.50 40.56 40.05 49.08 40.02
  A 0.44 0.44 0.0 0 0 49.25 39.17
  Q 46.63 38.06 45.90 36.43
  A 3.04 3.02 -0.2 0 0 44.33 34.88
  Q 40.34 33.17 38.09 30.88
  Q 34.10 26.83 33.87 26.64
  A 0.23 0.23 0.0 0 0 33.51 26.89"
/>
<path stroke="#ac91ac" vector-effect="non-scaling-stroke" d="
  M 32.40 35.95
  Q 32.05 35.95 31.70 36.24
  A 0.23 0.22 42.2 0 0 31.72 36.60
  Q 32.24 36.94 32.57 36.67
  A 0.41 0.37 -61.7 0 0 32.40 35.95"
/>
<path stroke="#ac91ac" vector-effect="non-scaling-stroke" d="
  M 30.93 38.56
  A 0.59 0.59 0.0 0 0 30.34 37.97
  A 0.59 0.59 0.0 0 0 29.75 38.56
  A 0.59 0.59 0.0 0 0 30.34 39.15
  A 0.59 0.59 0.0 0 0 30.93 38.56"
/>
<path stroke="#ac91ac" vector-effect="non-scaling-stroke" d="
  M 33.51 40.54
  A 0.78 0.76 -53.7 0 0 33.32 39.13
  Q 33.05 39.06 32.89 39.35
  Q 32.53 39.99 32.97 40.39
  Q 33.28 40.68 33.51 40.54"
/>
</g>
<path fill="#2e112e" d="
  M 33.81 88.00
  L 33.13 88.00
  Q 15.42 72.26 5.96 52.53
  Q 3.47 47.32 2.05 39.24
  C 0.17 28.58 3.08 18.39 10.76 10.66
  C 22.51 -1.16 43.29 -2.20 55.78 10.22
  C 80.43 34.76 52.86 70.63 33.81 88.00
  Z
  M 33.43 86.53
  C 33.50 86.53 33.73 86.50 33.81 86.43
  C 47.24 73.97 61.99 55.56 64.04 37.05
  Q 65.68 22.26 55.74 11.95
  Q 47.00 2.88 33.75 2.46
  Q 33.60 2.46 33.49 2.46
  Q 33.38 2.46 33.22 2.46
  Q 19.97 2.86 11.22 11.92
  Q 1.27 22.22 2.89 37.01
  C 4.91 55.52 19.63 73.95 33.05 86.43
  C 33.12 86.50 33.35 86.53 33.43 86.53
  Z"
/>
<path fill="#582359" d="
  M 33.49 2.46
  Q 33.60 2.46 33.75 2.46
  Q 47.00 2.88 55.74 11.95
  Q 65.68 22.26 64.04 37.05
  C 61.99 55.56 47.24 73.97 33.81 86.43
  C 33.73 86.50 33.50 86.53 33.43 86.53
  C 33.35 86.53 33.12 86.50 33.05 86.43
  C 19.63 73.95 4.91 55.52 2.89 37.01
  Q 1.27 22.22 11.22 11.92
  Q 19.97 2.86 33.22 2.46
  Q 33.38 2.46 33.49 2.46
  Z
  M 14.77 39.70
  Q 14.97 40.13 15.60 40.54
  Q 16.25 40.95 16.57 41.01
  Q 21.32 41.80 26.17 44.16
  A 6.15 6.06 61.9 0 0 27.93 44.71
  Q 30.06 45.03 30.75 44.99
  Q 39.23 44.44 47.48 42.47
  Q 49.33 42.03 50.49 41.29
  A 1.80 1.80 0.0 0 0 50.99 38.74
  Q 49.93 37.24 48.31 36.47
  C 47.12 35.90 46.94 34.19 45.96 33.75
  Q 40.54 31.30 36.48 26.71
  C 34.37 24.33 32.03 22.63 29.70 25.70
  C 25.93 30.67 21.12 35.79 15.34 38.23
  A 1.09 1.09 0.0 0 0 14.77 39.70
  Z"
/>
<path fill="#ffffff" d="
  M 14.77 39.70
  A 1.09 1.09 0.0 0 1 15.34 38.23
  C 21.12 35.79 25.93 30.67 29.70 25.70
  C 32.03 22.63 34.37 24.33 36.48 26.71
  Q 40.54 31.30 45.96 33.75
  C 46.94 34.19 47.12 35.90 48.31 36.47
  Q 49.93 37.24 50.99 38.74
  A 1.80 1.80 0.0 0 1 50.49 41.29
  Q 49.33 42.03 47.48 42.47
  Q 39.23 44.44 30.75 44.99
  Q 30.06 45.03 27.93 44.71
  A 6.15 6.06 61.9 0 1 26.17 44.16
  Q 21.32 41.80 16.57 41.01
  Q 16.25 40.95 15.60 40.54
  Q 14.97 40.13 14.77 39.70
  Z
  M 33.51 26.89
  C 36.11 34.50 40.56 40.05 49.08 40.02
  A 0.44 0.44 0.0 0 0 49.25 39.17
  Q 46.63 38.06 45.90 36.43
  A 3.04 3.02 -0.2 0 0 44.33 34.88
  Q 40.34 33.17 38.09 30.88
  Q 34.10 26.83 33.87 26.64
  A 0.23 0.23 0.0 0 0 33.51 26.89
  Z
  M 32.40 35.95
  Q 32.05 35.95 31.70 36.24
  A 0.23 0.22 42.2 0 0 31.72 36.60
  Q 32.24 36.94 32.57 36.67
  A 0.41 0.37 -61.7 0 0 32.40 35.95
  Z
  M 30.93 38.56
  A 0.59 0.59 0.0 0 0 30.34 37.97
  A 0.59 0.59 0.0 0 0 29.75 38.56
  A 0.59 0.59 0.0 0 0 30.34 39.15
  A 0.59 0.59 0.0 0 0 30.93 38.56
  Z
  M 33.51 40.54
  A 0.78 0.76 -53.7 0 0 33.32 39.13
  Q 33.05 39.06 32.89 39.35
  Q 32.53 39.99 32.97 40.39
  Q 33.28 40.68 33.51 40.54
  Z"
/>
<path fill="#582359" d="
  M 33.87 26.64
  Q 34.10 26.83 38.09 30.88
  Q 40.34 33.17 44.33 34.88
  A 3.04 3.02 -0.2 0 1 45.90 36.43
  Q 46.63 38.06 49.25 39.17
  A 0.44 0.44 0.0 0 1 49.08 40.02
  C 40.56 40.05 36.11 34.50 33.51 26.89
  A 0.23 0.23 0.0 0 1 33.87 26.64
  Z"
/>
<path fill="#582359" d="
  M 32.40 35.95
  A 0.41 0.37 -61.7 0 1 32.57 36.67
  Q 32.24 36.94 31.72 36.60
  A 0.23 0.22 42.2 0 1 31.70 36.24
  Q 32.05 35.95 32.40 35.95
  Z"
/>
<circle fill="#582359" cx="30.34" cy="38.56" r="0.59"/>
<path fill="#582359" d="
  M 33.51 40.54
  Q 33.28 40.68 32.97 40.39
  Q 32.53 39.99 32.89 39.35
  Q 33.05 39.06 33.32 39.13
  A 0.78 0.76 -53.7 0 1 33.51 40.54
  Z"
/>
</svg>
