<?xml version="1.0" encoding="UTF-8" standalone="no"?>
<!DOCTYPE svg PUBLIC "-//W3C//DTD SVG 1.1//EN" "http://www.w3.org/Graphics/SVG/1.1/DTD/svg11.dtd">
<svg xmlns="http://www.w3.org/2000/svg" version="1.1" viewBox="0.00 0.00 66.00 88.00">
<g stroke-width="2.00" fill="none" stroke-linecap="butt">
<path stroke="#431a44" vector-effect="non-scaling-stroke" d="
  M 33.43 86.52
  Q 33.73 86.52 33.90 86.37
  C 49.20 72.10 71.36 44.44 62.19 21.81
  C 57.47 10.19 46.10 2.48 33.49 2.47
  C 20.89 2.45 9.50 10.15 4.77 21.77
  C -4.44 44.38 17.68 72.07 32.96 86.37
  Q 33.12 86.52 33.43 86.52"
/>
<path stroke="#ac91ac" vector-effect="non-scaling-stroke" d="
  M 33.26 52.24
  Q 37.12 52.24 37.39 52.21
  A 1.70 1.69 -68.0 0 0 38.31 51.81
  Q 38.70 51.50 45.00 44.55
  Q 48.33 40.88 48.76 38.50
  C 49.43 34.78 49.61 30.06 46.59 27.60
  Q 42.45 24.24 37.47 23.15
  A 0.64 0.64 0.0 0 1 37.00 22.30
  Q 39.02 16.92 44.42 16.63
  A 0.42 0.42 0.0 0 0 44.82 16.20
  L 44.82 16.18
  A 0.44 0.44 0.0 0 0 44.39 15.76
  Q 38.84 15.74 33.26 15.75
  Q 27.68 15.74 22.14 15.77
  A 0.44 0.44 0.0 0 0 21.71 16.18
  L 21.71 16.20
  A 0.42 0.42 0.0 0 0 22.11 16.63
  Q 27.51 16.92 29.53 22.30
  A 0.64 0.64 0.0 0 1 29.06 23.15
  Q 24.08 24.24 19.94 27.60
  C 16.92 30.06 17.10 34.78 17.77 38.50
  Q 18.20 40.88 21.53 44.55
  Q 27.83 51.50 28.22 51.81
  A 1.70 1.69 68.0 0 0 29.14 52.21
  Q 29.41 52.24 33.26 52.24"
/>
</g>
<path fill="#2e112e" d="
  M 33.81 88.00
  L 33.04 88.00
  C 21.72 77.71 12.19 65.75 5.68 51.55
  Q 2.13 43.81 1.57 34.89
  C 0.57 18.85 11.14 5.79 26.66 2.03
  Q 34.35 0.17 43.19 2.83
  Q 51.39 5.29 57.10 11.60
  Q 68.31 23.97 64.56 41.21
  Q 61.81 53.84 53.58 65.57
  Q 44.99 77.81 33.81 88.00
  Z
  M 33.43 86.52
  Q 33.73 86.52 33.90 86.37
  C 49.20 72.10 71.36 44.44 62.19 21.81
  C 57.47 10.19 46.10 2.48 33.49 2.47
  C 20.89 2.45 9.50 10.15 4.77 21.77
  C -4.44 44.38 17.68 72.07 32.96 86.37
  Q 33.12 86.52 33.43 86.52
  Z"
/>
<path fill="#582359" d="
  M 33.49 2.47
  C 46.10 2.48 57.47 10.19 62.19 21.81
  C 71.36 44.44 49.20 72.10 33.90 86.37
  Q 33.73 86.52 33.43 86.52
  Q 33.12 86.52 32.96 86.37
  C 17.68 72.07 -4.44 44.38 4.77 21.77
  C 9.50 10.15 20.89 2.45 33.49 2.47
  Z
  M 33.26 52.24
  Q 37.12 52.24 37.39 52.21
  A 1.70 1.69 -68.0 0 0 38.31 51.81
  Q 38.70 51.50 45.00 44.55
  Q 48.33 40.88 48.76 38.50
  C 49.43 34.78 49.61 30.06 46.59 27.60
  Q 42.45 24.24 37.47 23.15
  A 0.64 0.64 0.0 0 1 37.00 22.30
  Q 39.02 16.92 44.42 16.63
  A 0.42 0.42 0.0 0 0 44.82 16.20
  L 44.82 16.18
  A 0.44 0.44 0.0 0 0 44.39 15.76
  Q 38.84 15.74 33.26 15.75
  Q 27.68 15.74 22.14 15.77
  A 0.44 0.44 0.0 0 0 21.71 16.18
  L 21.71 16.20
  A 0.42 0.42 0.0 0 0 22.11 16.63
  Q 27.51 16.92 29.53 22.30
  A 0.64 0.64 0.0 0 1 29.06 23.15
  Q 24.08 24.24 19.94 27.60
  C 16.92 30.06 17.10 34.78 17.77 38.50
  Q 18.20 40.88 21.53 44.55
  Q 27.83 51.50 28.22 51.81
  A 1.70 1.69 68.0 0 0 29.14 52.21
  Q 29.41 52.24 33.26 52.24
  Z"
/>
<path fill="#ffffff" d="
  M 33.26 15.75
  Q 38.84 15.74 44.39 15.76
  A 0.44 0.44 0.0 0 1 44.82 16.18
  L 44.82 16.20
  A 0.42 0.42 0.0 0 1 44.42 16.63
  Q 39.02 16.92 37.00 22.30
  A 0.64 0.64 0.0 0 0 37.47 23.15
  Q 42.45 24.24 46.59 27.60
  C 49.61 30.06 49.43 34.78 48.76 38.50
  Q 48.33 40.88 45.00 44.55
  Q 38.70 51.50 38.31 51.81
  A 1.70 1.69 -68.0 0 1 37.39 52.21
  Q 37.12 52.24 33.26 52.24
  Q 29.41 52.24 29.14 52.21
  A 1.70 1.69 68.0 0 1 28.22 51.81
  Q 27.83 51.50 21.53 44.55
  Q 18.20 40.88 17.77 38.50
  C 17.10 34.78 16.92 30.06 19.94 27.60
  Q 24.08 24.24 29.06 23.15
  A 0.64 0.64 0.0 0 0 29.53 22.30
  Q 27.51 16.92 22.11 16.63
  A 0.42 0.42 0.0 0 1 21.71 16.20
  L 21.71 16.18
  A 0.44 0.44 0.0 0 1 22.14 15.77
  Q 27.68 15.74 33.26 15.75
  Z"
/>
</svg>
