<?xml version="1.0" encoding="UTF-8" standalone="no"?>
<!DOCTYPE svg PUBLIC "-//W3C//DTD SVG 1.1//EN" "http://www.w3.org/Graphics/SVG/1.1/DTD/svg11.dtd">
<svg xmlns="http://www.w3.org/2000/svg" version="1.1" viewBox="0.00 0.00 66.00 88.00">
<g stroke-width="2.00" fill="none" stroke-linecap="butt">
<path stroke="#431a44" vector-effect="non-scaling-stroke" d="
  M 33.42 86.52
  Q 33.73 86.52 33.89 86.37
  Q 45.06 75.93 53.24 63.74
  C 63.96 47.77 70.74 26.28 54.74 10.98
  Q 46.59 3.18 34.75 2.51
  Q 33.98 2.46 33.48 2.46
  Q 32.99 2.46 32.22 2.51
  Q 20.38 3.16 12.22 10.95
  C -3.80 26.23 2.94 47.73 13.64 63.71
  Q 21.80 75.91 32.96 86.37
  Q 33.12 86.52 33.42 86.52"
/>
<path stroke="#ac91ac" vector-effect="non-scaling-stroke" d="
  M 32.71 25.52
  Q 35.01 25.52 35.13 25.50
  A 1.83 1.80 19.2 0 0 36.07 25.06
  Q 37.92 23.38 40.74 23.37
  A 0.66 0.66 0.0 0 0 41.36 22.48
  Q 39.99 18.78 36.31 18.79
  A 0.91 0.89 75.0 0 1 35.53 18.33
  C 35.35 18.02 35.51 17.53 35.10 16.93
  Q 34.33 15.80 32.71 15.80
  Q 31.09 15.80 30.32 16.93
  C 29.91 17.53 30.07 18.02 29.89 18.33
  A 0.91 0.89 -75.0 0 1 29.11 18.79
  Q 25.43 18.78 24.07 22.48
  A 0.66 0.66 0.0 0 0 24.69 23.37
  Q 27.51 23.38 29.36 25.06
  A 1.83 1.80 -19.2 0 0 30.29 25.50
  Q 30.42 25.52 32.71 25.52"
/>
<path stroke="#ac91ac" vector-effect="non-scaling-stroke" d="
  M 35.1045 27.0060
  A 0.56 0.56 0.0 0 0 34.5554 26.4354
  L 30.8961 26.3651
  A 0.56 0.56 0.0 0 0 30.3254 26.9143
  L 30.2955 28.4740
  A 0.56 0.56 0.0 0 0 30.8446 29.0446
  L 34.5039 29.1149
  A 0.56 0.56 0.0 0 0 35.0746 28.5657
  L 35.1045 27.0060"
/>
<path stroke="#ac91ac" vector-effect="non-scaling-stroke" d="
  M 44.50 33.19
  Q 47.52 36.42 48.24 41.29
  A 0.81 0.79 16.5 0 0 48.52 41.79
  Q 49.11 42.27 49.61 41.99
  A 0.67 0.67 0.0 0 0 49.95 41.35
  Q 49.49 36.10 45.70 32.06
  Q 41.91 28.02 36.70 27.24
  A 0.67 0.67 0.0 0 0 36.04 27.54
  Q 35.72 28.02 36.17 28.64
  A 0.81 0.79 77.1 0 0 36.65 28.95
  Q 41.47 29.97 44.50 33.19"
/>
<path stroke="#ac91ac" vector-effect="non-scaling-stroke" d="
  M 20.90 33.22
  Q 23.94 30.01 28.76 29.01
  A 0.81 0.79 -76.9 0 0 29.25 28.69
  Q 29.69 28.08 29.38 27.59
  A 0.67 0.67 0.0 0 0 28.72 27.29
  Q 23.50 28.06 19.70 32.08
  Q 15.89 36.11 15.41 41.36
  A 0.67 0.67 0.0 0 0 15.76 42.01
  Q 16.25 42.29 16.85 41.81
  A 0.81 0.79 -16.3 0 0 17.13 41.31
  Q 17.86 36.44 20.90 33.22"
/>
<path stroke="#ac91ac" vector-effect="non-scaling-stroke" d="
  M 32.70 52.24
  C 35.50 52.24 39.18 52.66 40.93 50.74
  Q 45.98 45.19 44.29 38.18
  A 3.65 3.48 23.3 0 0 43.81 37.05
  Q 39.17 29.92 32.73 29.92
  Q 26.30 29.91 21.64 37.02
  A 3.65 3.48 -23.2 0 0 21.16 38.15
  Q 19.45 45.15 24.48 50.72
  C 26.23 52.65 29.91 52.23 32.70 52.24"
/>
<path stroke="#ac91ac" vector-effect="non-scaling-stroke" d="
  M 18.14 45.08
  A 1.72 1.72 0.0 0 0 16.42 43.36
  A 1.72 1.72 0.0 0 0 14.70 45.08
  A 1.72 1.72 0.0 0 0 16.42 46.80
  A 1.72 1.72 0.0 0 0 18.14 45.08"
/>
<path stroke="#ac91ac" vector-effect="non-scaling-stroke" d="
  M 50.71 45.07
  A 1.72 1.72 0.0 0 0 48.99 43.35
  A 1.72 1.72 0.0 0 0 47.27 45.07
  A 1.72 1.72 0.0 0 0 48.99 46.79
  A 1.72 1.72 0.0 0 0 50.71 45.07"
/>
</g>
<path fill="#2e112e" d="
  M 33.81 88.00
  L 33.04 88.00
  C 21.69 77.68 12.12 65.67 5.62 51.40
  Q 2.10 43.68 1.56 34.83
  C 0.59 18.82 11.18 5.76 26.65 2.05
  C 37.31 -0.50 49.62 3.34 57.12 11.61
  C 79.43 36.24 52.37 71.07 33.81 88.00
  Z
  M 33.42 86.52
  Q 33.73 86.52 33.89 86.37
  Q 45.06 75.93 53.24 63.74
  C 63.96 47.77 70.74 26.28 54.74 10.98
  Q 46.59 3.18 34.75 2.51
  Q 33.98 2.46 33.48 2.46
  Q 32.99 2.46 32.22 2.51
  Q 20.38 3.16 12.22 10.95
  C -3.80 26.23 2.94 47.73 13.64 63.71
  Q 21.80 75.91 32.96 86.37
  Q 33.12 86.52 33.42 86.52
  Z"
/>
<path fill="#582359" d="
  M 33.48 2.46
  Q 33.98 2.46 34.75 2.51
  Q 46.59 3.18 54.74 10.98
  C 70.74 26.28 63.96 47.77 53.24 63.74
  Q 45.06 75.93 33.89 86.37
  Q 33.73 86.52 33.42 86.52
  Q 33.12 86.52 32.96 86.37
  Q 21.80 75.91 13.64 63.71
  C 2.94 47.73 -3.80 26.23 12.22 10.95
  Q 20.38 3.16 32.22 2.51
  Q 32.99 2.46 33.48 2.46
  Z
  M 32.71 25.52
  Q 35.01 25.52 35.13 25.50
  A 1.83 1.80 19.2 0 0 36.07 25.06
  Q 37.92 23.38 40.74 23.37
  A 0.66 0.66 0.0 0 0 41.36 22.48
  Q 39.99 18.78 36.31 18.79
  A 0.91 0.89 75.0 0 1 35.53 18.33
  C 35.35 18.02 35.51 17.53 35.10 16.93
  Q 34.33 15.80 32.71 15.80
  Q 31.09 15.80 30.32 16.93
  C 29.91 17.53 30.07 18.02 29.89 18.33
  A 0.91 0.89 -75.0 0 1 29.11 18.79
  Q 25.43 18.78 24.07 22.48
  A 0.66 0.66 0.0 0 0 24.69 23.37
  Q 27.51 23.38 29.36 25.06
  A 1.83 1.80 -19.2 0 0 30.29 25.50
  Q 30.42 25.52 32.71 25.52
  Z
  M 35.1045 27.0060
  A 0.56 0.56 0.0 0 0 34.5554 26.4354
  L 30.8961 26.3651
  A 0.56 0.56 0.0 0 0 30.3254 26.9143
  L 30.2955 28.4740
  A 0.56 0.56 0.0 0 0 30.8446 29.0446
  L 34.5039 29.1149
  A 0.56 0.56 0.0 0 0 35.0746 28.5657
  L 35.1045 27.0060
  Z
  M 44.50 33.19
  Q 47.52 36.42 48.24 41.29
  A 0.81 0.79 16.5 0 0 48.52 41.79
  Q 49.11 42.27 49.61 41.99
  A 0.67 0.67 0.0 0 0 49.95 41.35
  Q 49.49 36.10 45.70 32.06
  Q 41.91 28.02 36.70 27.24
  A 0.67 0.67 0.0 0 0 36.04 27.54
  Q 35.72 28.02 36.17 28.64
  A 0.81 0.79 77.1 0 0 36.65 28.95
  Q 41.47 29.97 44.50 33.19
  Z
  M 20.90 33.22
  Q 23.94 30.01 28.76 29.01
  A 0.81 0.79 -76.9 0 0 29.25 28.69
  Q 29.69 28.08 29.38 27.59
  A 0.67 0.67 0.0 0 0 28.72 27.29
  Q 23.50 28.06 19.70 32.08
  Q 15.89 36.11 15.41 41.36
  A 0.67 0.67 0.0 0 0 15.76 42.01
  Q 16.25 42.29 16.85 41.81
  A 0.81 0.79 -16.3 0 0 17.13 41.31
  Q 17.86 36.44 20.90 33.22
  Z
  M 32.70 52.24
  C 35.50 52.24 39.18 52.66 40.93 50.74
  Q 45.98 45.19 44.29 38.18
  A 3.65 3.48 23.3 0 0 43.81 37.05
  Q 39.17 29.92 32.73 29.92
  Q 26.30 29.91 21.64 37.02
  A 3.65 3.48 -23.2 0 0 21.16 38.15
  Q 19.45 45.15 24.48 50.72
  C 26.23 52.65 29.91 52.23 32.70 52.24
  Z
  M 18.14 45.08
  A 1.72 1.72 0.0 0 0 16.42 43.36
  A 1.72 1.72 0.0 0 0 14.70 45.08
  A 1.72 1.72 0.0 0 0 16.42 46.80
  A 1.72 1.72 0.0 0 0 18.14 45.08
  Z
  M 50.71 45.07
  A 1.72 1.72 0.0 0 0 48.99 43.35
  A 1.72 1.72 0.0 0 0 47.27 45.07
  A 1.72 1.72 0.0 0 0 48.99 46.79
  A 1.72 1.72 0.0 0 0 50.71 45.07
  Z"
/>
<path fill="#ffffff" d="
  M 32.71 15.80
  Q 34.33 15.80 35.10 16.93
  C 35.51 17.53 35.35 18.02 35.53 18.33
  A 0.91 0.89 75.0 0 0 36.31 18.79
  Q 39.99 18.78 41.36 22.48
  A 0.66 0.66 0.0 0 1 40.74 23.37
  Q 37.92 23.38 36.07 25.06
  A 1.83 1.80 19.2 0 1 35.13 25.50
  Q 35.01 25.52 32.71 25.52
  Q 30.42 25.52 30.29 25.50
  A 1.83 1.80 -19.2 0 1 29.36 25.06
  Q 27.51 23.38 24.69 23.37
  A 0.66 0.66 0.0 0 1 24.07 22.48
  Q 25.43 18.78 29.11 18.79
  A 0.91 0.89 -75.0 0 0 29.89 18.33
  C 30.07 18.02 29.91 17.53 30.32 16.93
  Q 31.09 15.80 32.71 15.80
  Z"
/>
<rect fill="#ffffff" x="-2.39" y="-1.34" transform="translate(32.70,27.74) rotate(1.1)" width="4.78" height="2.68" rx="0.56"/>
<path fill="#ffffff" d="
  M 45.70 32.06
  Q 49.49 36.10 49.95 41.35
  A 0.67 0.67 0.0 0 1 49.61 41.99
  Q 49.11 42.27 48.52 41.79
  A 0.81 0.79 16.5 0 1 48.24 41.29
  Q 47.52 36.42 44.50 33.19
  Q 41.47 29.97 36.65 28.95
  A 0.81 0.79 77.1 0 1 36.17 28.64
  Q 35.72 28.02 36.04 27.54
  A 0.67 0.67 0.0 0 1 36.70 27.24
  Q 41.91 28.02 45.70 32.06
  Z"
/>
<path fill="#ffffff" d="
  M 20.90 33.22
  Q 17.86 36.44 17.13 41.31
  A 0.81 0.79 -16.3 0 1 16.85 41.81
  Q 16.25 42.29 15.76 42.01
  A 0.67 0.67 0.0 0 1 15.41 41.36
  Q 15.89 36.11 19.70 32.08
  Q 23.50 28.06 28.72 27.29
  A 0.67 0.67 0.0 0 1 29.38 27.59
  Q 29.69 28.08 29.25 28.69
  A 0.81 0.79 -76.9 0 1 28.76 29.01
  Q 23.94 30.01 20.90 33.22
  Z"
/>
<path fill="#ffffff" d="
  M 32.73 29.92
  Q 39.17 29.92 43.81 37.05
  A 3.65 3.48 23.3 0 1 44.29 38.18
  Q 45.98 45.19 40.93 50.74
  C 39.18 52.66 35.50 52.24 32.70 52.24
  C 29.91 52.23 26.23 52.65 24.48 50.72
  Q 19.45 45.15 21.16 38.15
  A 3.65 3.48 -23.2 0 1 21.64 37.02
  Q 26.30 29.91 32.73 29.92
  Z"
/>
<circle fill="#ffffff" cx="16.42" cy="45.08" r="1.72"/>
<circle fill="#ffffff" cx="48.99" cy="45.07" r="1.72"/>
</svg>
