<?xml version="1.0" encoding="UTF-8" standalone="no"?>
<!DOCTYPE svg PUBLIC "-//W3C//DTD SVG 1.1//EN" "http://www.w3.org/Graphics/SVG/1.1/DTD/svg11.dtd">
<svg xmlns="http://www.w3.org/2000/svg" version="1.1" viewBox="0.00 0.00 66.00 88.00">
<g stroke-width="2.00" fill="none" stroke-linecap="butt">
<path stroke="#431a44" vector-effect="non-scaling-stroke" d="
  M 33.43 86.53
  Q 33.72 86.53 33.89 86.37
  Q 45.98 75.09 54.51 61.76
  C 61.82 50.34 67.66 34.81 62.02 21.45
  Q 57.73 11.28 48.09 6.19
  Q 41.05 2.47 33.50 2.46
  Q 25.94 2.46 18.90 6.16
  Q 9.25 11.24 4.94 21.40
  C -0.72 34.75 5.09 50.29 12.38 61.72
  Q 20.89 75.07 32.96 86.36
  Q 33.13 86.53 33.43 86.53"
/>
<path stroke="#ac91ac" vector-effect="non-scaling-stroke" d="
  M 32.58 18.91
  A 0.87 0.86 62.6 0 0 34.12 19.40
  Q 35.32 17.89 35.41 16.60
  A 0.68 0.67 -21.7 0 0 34.24 16.10
  Q 32.52 17.93 32.58 18.91"
/>
<path stroke="#ac91ac" vector-effect="non-scaling-stroke" d="
  M 32.69 52.24
  Q 34.47 52.24 35.94 52.18
  A 3.24 3.23 31.5 0 0 37.20 51.88
  C 44.34 48.59 44.10 39.89 37.69 36.12
  A 0.72 0.72 0.0 0 1 37.51 35.03
  C 40.98 30.94 38.92 27.62 35.08 25.20
  A 0.98 0.95 -76.2 0 1 34.64 24.44
  L 34.49 21.99
  A 0.76 0.75 0.7 0 0 33.78 21.27
  Q 33.71 21.26 32.70 21.26
  Q 31.69 21.26 31.61 21.27
  A 0.76 0.75 -0.7 0 0 30.91 21.99
  L 30.76 24.44
  A 0.98 0.95 76.2 0 1 30.32 25.20
  C 26.48 27.62 24.41 30.93 27.88 35.03
  A 0.72 0.72 0.0 0 1 27.70 36.12
  C 21.29 39.88 21.04 48.58 28.18 51.88
  A 3.24 3.23 -31.5 0 0 29.44 52.18
  Q 30.91 52.24 32.69 52.24"
/>
</g>
<path fill="#2e112e" d="
  M 33.81 88.00
  L 33.04 88.00
  C 21.72 77.71 12.05 65.61 5.60 51.41
  Q 0.20 39.50 2.06 26.55
  Q 2.42 24.06 4.28 19.96
  C 9.52 8.44 20.62 1.71 33.00 1.30
  C 40.81 1.05 49.82 4.37 55.64 10.10
  C 80.54 34.60 52.90 70.60 33.81 88.00
  Z
  M 33.43 86.53
  Q 33.72 86.53 33.89 86.37
  Q 45.98 75.09 54.51 61.76
  C 61.82 50.34 67.66 34.81 62.02 21.45
  Q 57.73 11.28 48.09 6.19
  Q 41.05 2.47 33.50 2.46
  Q 25.94 2.46 18.90 6.16
  Q 9.25 11.24 4.94 21.40
  C -0.72 34.75 5.09 50.29 12.38 61.72
  Q 20.89 75.07 32.96 86.36
  Q 33.13 86.53 33.43 86.53
  Z"
/>
<path fill="#582359" d="
  M 33.50 2.46
  Q 41.05 2.47 48.09 6.19
  Q 57.73 11.28 62.02 21.45
  C 67.66 34.81 61.82 50.34 54.51 61.76
  Q 45.98 75.09 33.89 86.37
  Q 33.72 86.53 33.43 86.53
  Q 33.13 86.53 32.96 86.36
  Q 20.89 75.07 12.38 61.72
  C 5.09 50.29 -0.72 34.75 4.94 21.40
  Q 9.25 11.24 18.90 6.16
  Q 25.94 2.46 33.50 2.46
  Z
  M 32.58 18.91
  A 0.87 0.86 62.6 0 0 34.12 19.40
  Q 35.32 17.89 35.41 16.60
  A 0.68 0.67 -21.7 0 0 34.24 16.10
  Q 32.52 17.93 32.58 18.91
  Z
  M 32.69 52.24
  Q 34.47 52.24 35.94 52.18
  A 3.24 3.23 31.5 0 0 37.20 51.88
  C 44.34 48.59 44.10 39.89 37.69 36.12
  A 0.72 0.72 0.0 0 1 37.51 35.03
  C 40.98 30.94 38.92 27.62 35.08 25.20
  A 0.98 0.95 -76.2 0 1 34.64 24.44
  L 34.49 21.99
  A 0.76 0.75 0.7 0 0 33.78 21.27
  Q 33.71 21.26 32.70 21.26
  Q 31.69 21.26 31.61 21.27
  A 0.76 0.75 -0.7 0 0 30.91 21.99
  L 30.76 24.44
  A 0.98 0.95 76.2 0 1 30.32 25.20
  C 26.48 27.62 24.41 30.93 27.88 35.03
  A 0.72 0.72 0.0 0 1 27.70 36.12
  C 21.29 39.88 21.04 48.58 28.18 51.88
  A 3.24 3.23 -31.5 0 0 29.44 52.18
  Q 30.91 52.24 32.69 52.24
  Z"
/>
<path fill="#ffffff" d="
  M 32.58 18.91
  Q 32.52 17.93 34.24 16.10
  A 0.68 0.67 -21.7 0 1 35.41 16.60
  Q 35.32 17.89 34.12 19.40
  A 0.87 0.86 62.6 0 1 32.58 18.91
  Z"
/>
<path fill="#ffffff" d="
  M 32.70 21.26
  Q 33.71 21.26 33.78 21.27
  A 0.76 0.75 0.7 0 1 34.49 21.99
  L 34.64 24.44
  A 0.98 0.95 -76.2 0 0 35.08 25.20
  C 38.92 27.62 40.98 30.94 37.51 35.03
  A 0.72 0.72 0.0 0 0 37.69 36.12
  C 44.10 39.89 44.34 48.59 37.20 51.88
  A 3.24 3.23 31.5 0 1 35.94 52.18
  Q 34.47 52.24 32.69 52.24
  Q 30.91 52.24 29.44 52.18
  A 3.24 3.23 -31.5 0 1 28.18 51.88
  C 21.04 48.58 21.29 39.88 27.70 36.12
  A 0.72 0.72 0.0 0 0 27.88 35.03
  C 24.41 30.93 26.48 27.62 30.32 25.20
  A 0.98 0.95 76.2 0 0 30.76 24.44
  L 30.91 21.99
  A 0.76 0.75 -0.7 0 1 31.61 21.27
  Q 31.69 21.26 32.70 21.26
  Z"
/>
</svg>
