<?xml version="1.0" encoding="UTF-8" standalone="no"?>
<!DOCTYPE svg PUBLIC "-//W3C//DTD SVG 1.1//EN" "http://www.w3.org/Graphics/SVG/1.1/DTD/svg11.dtd">
<svg xmlns="http://www.w3.org/2000/svg" version="1.1" viewBox="0.00 0.00 66.00 88.00">
<g stroke-width="2.00" fill="none" stroke-linecap="butt">
<path stroke="#464544" vector-effect="non-scaling-stroke" d="
  M 33.42 86.62
  C 33.95 86.62 33.61 86.65 33.80 86.48
  Q 47.41 73.96 56.48 58.48
  C 63.80 45.99 68.18 29.51 59.35 16.43
  Q 50.36 3.11 33.75 2.49
  Q 33.64 2.48 33.53 2.48
  Q 33.42 2.48 33.31 2.49
  Q 16.70 3.06 7.67 16.36
  C -1.19 29.42 3.14 45.91 10.43 58.42
  Q 19.46 73.92 33.03 86.48
  C 33.22 86.65 32.89 86.62 33.42 86.62"
/>
<path stroke="#aeadad" vector-effect="non-scaling-stroke" d="
  M 43.8989 16.1884
  A 0.53 0.53 0.0 0 0 43.1742 15.9969
  L 40.9617 17.2847
  A 0.53 0.53 0.0 0 0 40.7702 18.0093
  L 47.5811 29.7116
  A 0.53 0.53 0.0 0 0 48.3058 29.9031
  L 50.5183 28.6153
  A 0.53 0.53 0.0 0 0 50.7098 27.8907
  L 43.8989 16.1884"
/>
<path stroke="#aeadad" vector-effect="non-scaling-stroke" d="
  M 40.1612 20.3653
  A 0.41 0.41 0.0 0 0 39.6009 20.2162
  L 29.1325 26.2845
  A 0.41 0.41 0.0 0 0 28.9834 26.8448
  L 34.0788 35.6347
  A 0.41 0.41 0.0 0 0 34.6391 35.7838
  L 45.1075 29.7155
  A 0.41 0.41 0.0 0 0 45.2566 29.1552
  L 40.1612 20.3653"
/>
<path stroke="#aeadad" vector-effect="non-scaling-stroke" d="
  M 28.2402 29.2027
  A 0.42 0.42 0.0 0 0 27.6662 29.0500
  L 20.5027 33.2025
  A 0.42 0.42 0.0 0 0 20.3500 33.7765
  L 23.6198 39.4173
  A 0.42 0.42 0.0 0 0 24.1938 39.5700
  L 31.3573 35.4175
  A 0.42 0.42 0.0 0 0 31.5100 34.8435
  L 28.2402 29.2027"
/>
<path stroke="#aeadad" vector-effect="non-scaling-stroke" d="
  M 19.6633 36.4159
  A 0.44 0.44 0.0 0 0 19.0642 36.2475
  L 15.0353 38.5084
  A 0.44 0.44 0.0 0 0 14.8669 39.1075
  L 16.2567 41.5841
  A 0.44 0.44 0.0 0 0 16.8558 41.7525
  L 20.8847 39.4916
  A 0.44 0.44 0.0 0 0 21.0531 38.8925
  L 19.6633 36.4159"
/>
<path stroke="#aeadad" vector-effect="non-scaling-stroke" d="
  M 30.24 44.99
  L 32.68 51.86
  A 0.57 0.56 -9.2 0 0 33.22 52.24
  L 36.07 52.24
  A 0.31 0.31 0.0 0 0 36.37 51.83
  Q 35.05 47.97 33.41 43.32
  C 32.86 41.75 33.88 40.69 33.59 39.47
  Q 33.32 38.31 32.77 37.46
  A 0.62 0.61 58.4 0 0 31.95 37.26
  L 25.10 41.22
  A 0.59 0.58 52.5 0 0 24.98 42.14
  L 26.33 43.47
  A 0.55 0.54 32.3 0 1 26.47 44.05
  L 23.82 51.75
  A 0.38 0.37 -80.5 0 0 24.17 52.25
  L 26.82 52.25
  A 0.61 0.61 0.0 0 0 27.40 51.83
  L 29.76 44.99
  A 0.25 0.25 0.0 0 1 30.24 44.99"
/>
</g>
<path fill="#2f2f2e" d="
  M 33.81 88.00
  L 33.04 88.00
  C 21.75 77.74 12.13 65.70 5.66 51.56
  Q 0.19 39.60 2.06 26.55
  Q 2.41 24.09 4.29 19.97
  C 12.27 2.38 34.16 -3.93 50.35 6.10
  Q 62.30 13.52 64.91 27.03
  C 69.20 49.28 49.12 74.03 33.81 88.00
  Z
  M 33.42 86.62
  C 33.95 86.62 33.61 86.65 33.80 86.48
  Q 47.41 73.96 56.48 58.48
  C 63.80 45.99 68.18 29.51 59.35 16.43
  Q 50.36 3.11 33.75 2.49
  Q 33.64 2.48 33.53 2.48
  Q 33.42 2.48 33.31 2.49
  Q 16.70 3.06 7.67 16.36
  C -1.19 29.42 3.14 45.91 10.43 58.42
  Q 19.46 73.92 33.03 86.48
  C 33.22 86.65 32.89 86.62 33.42 86.62
  Z"
/>
<path fill="#5c5a5a" d="
  M 33.53 2.48
  Q 33.64 2.48 33.75 2.49
  Q 50.36 3.11 59.35 16.43
  C 68.18 29.51 63.80 45.99 56.48 58.48
  Q 47.41 73.96 33.80 86.48
  C 33.61 86.65 33.95 86.62 33.42 86.62
  C 32.89 86.62 33.22 86.65 33.03 86.48
  Q 19.46 73.92 10.43 58.42
  C 3.14 45.91 -1.19 29.42 7.67 16.36
  Q 16.70 3.06 33.31 2.49
  Q 33.42 2.48 33.53 2.48
  Z
  M 43.8989 16.1884
  A 0.53 0.53 0.0 0 0 43.1742 15.9969
  L 40.9617 17.2847
  A 0.53 0.53 0.0 0 0 40.7702 18.0093
  L 47.5811 29.7116
  A 0.53 0.53 0.0 0 0 48.3058 29.9031
  L 50.5183 28.6153
  A 0.53 0.53 0.0 0 0 50.7098 27.8907
  L 43.8989 16.1884
  Z
  M 40.1612 20.3653
  A 0.41 0.41 0.0 0 0 39.6009 20.2162
  L 29.1325 26.2845
  A 0.41 0.41 0.0 0 0 28.9834 26.8448
  L 34.0788 35.6347
  A 0.41 0.41 0.0 0 0 34.6391 35.7838
  L 45.1075 29.7155
  A 0.41 0.41 0.0 0 0 45.2566 29.1552
  L 40.1612 20.3653
  Z
  M 28.2402 29.2027
  A 0.42 0.42 0.0 0 0 27.6662 29.0500
  L 20.5027 33.2025
  A 0.42 0.42 0.0 0 0 20.3500 33.7765
  L 23.6198 39.4173
  A 0.42 0.42 0.0 0 0 24.1938 39.5700
  L 31.3573 35.4175
  A 0.42 0.42 0.0 0 0 31.5100 34.8435
  L 28.2402 29.2027
  Z
  M 19.6633 36.4159
  A 0.44 0.44 0.0 0 0 19.0642 36.2475
  L 15.0353 38.5084
  A 0.44 0.44 0.0 0 0 14.8669 39.1075
  L 16.2567 41.5841
  A 0.44 0.44 0.0 0 0 16.8558 41.7525
  L 20.8847 39.4916
  A 0.44 0.44 0.0 0 0 21.0531 38.8925
  L 19.6633 36.4159
  Z
  M 30.24 44.99
  L 32.68 51.86
  A 0.57 0.56 -9.2 0 0 33.22 52.24
  L 36.07 52.24
  A 0.31 0.31 0.0 0 0 36.37 51.83
  Q 35.05 47.97 33.41 43.32
  C 32.86 41.75 33.88 40.69 33.59 39.47
  Q 33.32 38.31 32.77 37.46
  A 0.62 0.61 58.4 0 0 31.95 37.26
  L 25.10 41.22
  A 0.59 0.58 52.5 0 0 24.98 42.14
  L 26.33 43.47
  A 0.55 0.54 32.3 0 1 26.47 44.05
  L 23.82 51.75
  A 0.38 0.37 -80.5 0 0 24.17 52.25
  L 26.82 52.25
  A 0.61 0.61 0.0 0 0 27.40 51.83
  L 29.76 44.99
  A 0.25 0.25 0.0 0 1 30.24 44.99
  Z"
/>
<rect fill="#ffffff" x="-1.81" y="-7.30" transform="translate(45.74,22.95) rotate(-30.2)" width="3.62" height="14.60" rx="0.53"/>
<rect fill="#ffffff" x="-6.46" y="-5.49" transform="translate(37.12,28.00) rotate(-30.1)" width="12.92" height="10.98" rx="0.41"/>
<rect fill="#ffffff" x="-4.56" y="-3.68" transform="translate(25.93,34.31) rotate(-30.1)" width="9.12" height="7.36" rx="0.42"/>
<rect fill="#ffffff" x="-2.75" y="-1.86" transform="translate(17.96,39.00) rotate(-29.3)" width="5.50" height="3.72" rx="0.44"/>
<path fill="#ffffff" d="
  M 29.76 44.99
  L 27.40 51.83
  A 0.61 0.61 0.0 0 1 26.82 52.25
  L 24.17 52.25
  A 0.38 0.37 -80.5 0 1 23.82 51.75
  L 26.47 44.05
  A 0.55 0.54 32.3 0 0 26.33 43.47
  L 24.98 42.14
  A 0.59 0.58 52.5 0 1 25.10 41.22
  L 31.95 37.26
  A 0.62 0.61 58.4 0 1 32.77 37.46
  Q 33.32 38.31 33.59 39.47
  C 33.88 40.69 32.86 41.75 33.41 43.32
  Q 35.05 47.97 36.37 51.83
  A 0.31 0.31 0.0 0 1 36.07 52.24
  L 33.22 52.24
  A 0.57 0.56 -9.2 0 1 32.68 51.86
  L 30.24 44.99
  A 0.25 0.25 0.0 0 0 29.76 44.99
  Z"
/>
</svg>
