<?xml version="1.0" encoding="UTF-8" standalone="no"?>
<!DOCTYPE svg PUBLIC "-//W3C//DTD SVG 1.1//EN" "http://www.w3.org/Graphics/SVG/1.1/DTD/svg11.dtd">
<svg xmlns="http://www.w3.org/2000/svg" version="1.1" viewBox="0.00 0.00 66.00 88.00">
<g stroke-width="2.00" fill="none" stroke-linecap="butt">
<path stroke="#431a44" vector-effect="non-scaling-stroke" d="
  M 33.43 86.53
  Q 33.75 86.53 33.90 86.38
  C 44.91 76.07 54.93 63.66 60.74 49.75
  C 64.62 40.47 65.87 29.28 61.36 20.01
  Q 53.63 4.11 34.26 2.48
  Q 34.03 2.46 33.48 2.46
  Q 32.93 2.46 32.70 2.48
  Q 13.33 4.09 5.58 19.98
  C 1.06 29.24 2.30 40.44 6.17 49.72
  C 11.96 63.64 21.97 76.06 32.96 86.38
  Q 33.12 86.53 33.43 86.53"
/>
<path stroke="#ac91ac" vector-effect="non-scaling-stroke" d="
  M 49.72 16.58
  L 32.07 32.94
  A 1.15 1.14 47.3 0 0 32.01 34.55
  L 33.74 36.41
  A 1.88 1.87 47.8 0 0 36.36 36.54
  C 40.89 32.50 51.21 23.09 50.08 16.70
  A 0.22 0.22 0.0 0 0 49.72 16.58"
/>
<path stroke="#ac91ac" vector-effect="non-scaling-stroke" d="
  M 30.22 34.90
  A 0.28 0.27 -42.7 0 0 29.84 34.89
  C 24.77 39.70 19.90 44.49 16.71 50.38
  A 0.64 0.63 -58.4 0 0 16.90 51.20
  Q 19.39 52.93 22.38 51.77
  A 1.15 1.14 -10.3 0 0 23.11 50.72
  C 23.16 46.85 26.84 44.94 30.37 42.86
  Q 31.37 42.28 32.90 38.54
  A 0.88 0.88 0.0 0 0 32.73 37.61
  L 30.22 34.90"
/>
</g>
<path fill="#2e112e" d="
  M 33.81 88.00
  L 33.04 88.00
  C 21.87 77.84 12.08 65.68 5.74 51.77
  Q 2.88 45.49 1.95 38.73
  Q -0.18 23.23 8.85 12.75
  C 19.32 0.60 37.00 -2.44 50.67 6.30
  Q 62.36 13.76 64.91 27.02
  C 69.19 49.26 49.14 74.03 33.81 88.00
  Z
  M 33.43 86.53
  Q 33.75 86.53 33.90 86.38
  C 44.91 76.07 54.93 63.66 60.74 49.75
  C 64.62 40.47 65.87 29.28 61.36 20.01
  Q 53.63 4.11 34.26 2.48
  Q 34.03 2.46 33.48 2.46
  Q 32.93 2.46 32.70 2.48
  Q 13.33 4.09 5.58 19.98
  C 1.06 29.24 2.30 40.44 6.17 49.72
  C 11.96 63.64 21.97 76.06 32.96 86.38
  Q 33.12 86.53 33.43 86.53
  Z"
/>
<path fill="#582359" d="
  M 33.48 2.46
  Q 34.03 2.46 34.26 2.48
  Q 53.63 4.11 61.36 20.01
  C 65.87 29.28 64.62 40.47 60.74 49.75
  C 54.93 63.66 44.91 76.07 33.90 86.38
  Q 33.75 86.53 33.43 86.53
  Q 33.12 86.53 32.96 86.38
  C 21.97 76.06 11.96 63.64 6.17 49.72
  C 2.30 40.44 1.06 29.24 5.58 19.98
  Q 13.33 4.09 32.70 2.48
  Q 32.93 2.46 33.48 2.46
  Z
  M 49.72 16.58
  L 32.07 32.94
  A 1.15 1.14 47.3 0 0 32.01 34.55
  L 33.74 36.41
  A 1.88 1.87 47.8 0 0 36.36 36.54
  C 40.89 32.50 51.21 23.09 50.08 16.70
  A 0.22 0.22 0.0 0 0 49.72 16.58
  Z
  M 30.22 34.90
  A 0.28 0.27 -42.7 0 0 29.84 34.89
  C 24.77 39.70 19.90 44.49 16.71 50.38
  A 0.64 0.63 -58.4 0 0 16.90 51.20
  Q 19.39 52.93 22.38 51.77
  A 1.15 1.14 -10.3 0 0 23.11 50.72
  C 23.16 46.85 26.84 44.94 30.37 42.86
  Q 31.37 42.28 32.90 38.54
  A 0.88 0.88 0.0 0 0 32.73 37.61
  L 30.22 34.90
  Z"
/>
<path fill="#ffffff" d="
  M 50.08 16.70
  C 51.21 23.09 40.89 32.50 36.36 36.54
  A 1.88 1.87 47.8 0 1 33.74 36.41
  L 32.01 34.55
  A 1.15 1.14 47.3 0 1 32.07 32.94
  L 49.72 16.58
  A 0.22 0.22 0.0 0 1 50.08 16.70
  Z"
/>
<path fill="#ffffff" d="
  M 30.22 34.90
  L 32.73 37.61
  A 0.88 0.88 0.0 0 1 32.90 38.54
  Q 31.37 42.28 30.37 42.86
  C 26.84 44.94 23.16 46.85 23.11 50.72
  A 1.15 1.14 -10.3 0 1 22.38 51.77
  Q 19.39 52.93 16.90 51.20
  A 0.64 0.63 -58.4 0 1 16.71 50.38
  C 19.90 44.49 24.77 39.70 29.84 34.89
  A 0.28 0.27 -42.7 0 1 30.22 34.90
  Z"
/>
</svg>
