<?xml version="1.0" encoding="UTF-8" standalone="no"?>
<!DOCTYPE svg PUBLIC "-//W3C//DTD SVG 1.1//EN" "http://www.w3.org/Graphics/SVG/1.1/DTD/svg11.dtd">
<svg xmlns="http://www.w3.org/2000/svg" version="1.1" viewBox="0.00 0.00 66.00 88.00">
<g stroke-width="2.00" fill="none" stroke-linecap="butt">
<path stroke="#615742" vector-effect="non-scaling-stroke" d="
  M 33.39 86.68
  Q 33.53 86.68 33.66 86.65
  A 0.16 0.13 -70.5 0 0 33.73 86.61
  Q 46.90 74.30 55.85 59.62
  C 65.23 44.24 69.36 23.97 54.15 10.35
  C 48.71 5.47 41.27 2.49 33.55 2.47
  C 25.83 2.46 18.39 5.41 12.92 10.27
  C -2.34 23.84 1.72 44.12 11.04 59.54
  Q 19.93 74.25 33.06 86.61
  A 0.16 0.13 70.7 0 0 33.13 86.65
  Q 33.26 86.68 33.39 86.68"
/>
<path stroke="#c0b9ac" vector-effect="non-scaling-stroke" d="
  M 46.60 18.15
  L 46.13 17.00
  A 0.41 0.41 0.0 0 0 45.59 16.78
  L 43.02 17.84
  A 4.33 0.90 -22.4 0 0 39.36 20.32
  L 39.46 20.56
  A 4.33 0.90 -22.4 0 0 43.81 19.75
  L 46.38 18.69
  A 0.41 0.41 0.0 0 0 46.60 18.15"
/>
<path stroke="#c0b9ac" vector-effect="non-scaling-stroke" d="
  M 42.30 22.65
  A 0.50 0.50 0.0 0 0 41.98 23.07
  L 40.98 34.43
  A 0.24 0.24 0.0 0 0 41.40 34.60
  C 43.55 31.87 44.36 27.21 45.78 21.53
  A 0.14 0.14 0.0 0 0 45.59 21.36
  L 42.30 22.65"
/>
<path stroke="#c0b9ac" vector-effect="non-scaling-stroke" d="
  M 33.77 22.51
  Q 29.83 24.55 26.03 26.36
  C 25.08 26.81 24.44 28.15 24.12 29.07
  A 0.35 0.35 0.0 0 0 24.45 29.53
  L 28.78 29.53
  A 0.79 0.79 0.0 0 0 29.51 29.04
  C 30.65 26.36 33.37 24.38 34.14 22.88
  A 0.27 0.27 0.0 0 0 33.77 22.51"
/>
<path stroke="#c0b9ac" vector-effect="non-scaling-stroke" d="
  M 26.36 40.76
  L 36.07 40.76
  A 0.91 0.90 -78.9 0 0 36.91 40.19
  Q 38.51 36.28 38.61 35.31
  Q 39.73 23.74 39.78 23.61
  A 0.42 0.42 0.0 0 0 39.41 23.02
  L 37.16 22.98
  A 1.12 1.10 -70.1 0 0 36.24 23.42
  L 31.91 29.13
  A 6.55 6.42 -17.0 0 0 31.00 30.80
  Q 29.61 34.61 28.53 37.23
  C 27.94 38.67 26.88 39.56 26.20 40.44
  A 0.20 0.20 0.0 0 0 26.36 40.76"
/>
<path stroke="#c0b9ac" vector-effect="non-scaling-stroke" d="
  M 27.54 31.86
  L 22.84 31.86
  A 1.58 1.57 23.8 0 0 21.78 32.27
  L 19.03 34.82
  A 0.81 0.81 0.0 0 0 18.77 35.34
  L 17.86 45.79
  A 0.58 0.58 0.0 0 0 18.55 46.41
  Q 19.03 46.31 19.36 45.86
  Q 23.85 39.82 26.24 36.73
  Q 26.71 36.11 27.92 32.38
  A 0.40 0.40 0.0 0 0 27.54 31.86"
/>
<path stroke="#c0b9ac" vector-effect="non-scaling-stroke" d="
  M 37.92 43.45
  Q 40.97 41.22 41.19 37.53
  A 0.41 0.41 0.0 0 0 40.43 37.29
  C 39.68 38.49 39.55 40.60 38.59 41.63
  Q 37.32 42.98 37.32 43.14
  A 0.38 0.38 0.0 0 0 37.92 43.45"
/>
<path stroke="#c0b9ac" vector-effect="non-scaling-stroke" d="
  M 33.93 47.34
  A 0.39 0.39 0.0 0 0 34.17 47.08
  L 35.11 43.49
  A 0.39 0.39 0.0 0 0 34.73 43.00
  L 24.23 43.00
  A 0.39 0.39 0.0 0 0 23.92 43.15
  L 20.75 47.34
  A 0.39 0.39 0.0 0 0 20.96 47.95
  L 27.67 49.71
  A 0.39 0.39 0.0 0 0 27.91 49.69
  L 33.93 47.34"
/>
</g>
<path fill="#413b2b" d="
  M 33.78 88.00
  L 33.03 88.00
  C 16.74 73.25 -6.20 44.32 3.98 20.63
  C 10.20 6.13 26.06 -1.58 41.69 2.38
  C 53.73 5.43 62.41 15.02 64.89 26.76
  C 67.12 37.27 63.30 49.03 57.55 58.84
  Q 47.97 75.17 33.78 88.00
  Z
  M 33.39 86.68
  Q 33.53 86.68 33.66 86.65
  A 0.16 0.13 -70.5 0 0 33.73 86.61
  Q 46.90 74.30 55.85 59.62
  C 65.23 44.24 69.36 23.97 54.15 10.35
  C 48.71 5.47 41.27 2.49 33.55 2.47
  C 25.83 2.46 18.39 5.41 12.92 10.27
  C -2.34 23.84 1.72 44.12 11.04 59.54
  Q 19.93 74.25 33.06 86.61
  A 0.16 0.13 70.7 0 0 33.13 86.65
  Q 33.26 86.68 33.39 86.68
  Z"
/>
<path fill="#807358" d="
  M 33.55 2.47
  C 41.27 2.49 48.71 5.47 54.15 10.35
  C 69.36 23.97 65.23 44.24 55.85 59.62
  Q 46.90 74.30 33.73 86.61
  A 0.16 0.13 -70.5 0 1 33.66 86.65
  Q 33.53 86.68 33.39 86.68
  Q 33.26 86.68 33.13 86.65
  A 0.16 0.13 70.7 0 1 33.06 86.61
  Q 19.93 74.25 11.04 59.54
  C 1.72 44.12 -2.34 23.84 12.92 10.27
  C 18.39 5.41 25.83 2.46 33.55 2.47
  Z
  M 46.60 18.15
  L 46.13 17.00
  A 0.41 0.41 0.0 0 0 45.59 16.78
  L 43.02 17.84
  A 4.33 0.90 -22.4 0 0 39.36 20.32
  L 39.46 20.56
  A 4.33 0.90 -22.4 0 0 43.81 19.75
  L 46.38 18.69
  A 0.41 0.41 0.0 0 0 46.60 18.15
  Z
  M 42.30 22.65
  A 0.50 0.50 0.0 0 0 41.98 23.07
  L 40.98 34.43
  A 0.24 0.24 0.0 0 0 41.40 34.60
  C 43.55 31.87 44.36 27.21 45.78 21.53
  A 0.14 0.14 0.0 0 0 45.59 21.36
  L 42.30 22.65
  Z
  M 33.77 22.51
  Q 29.83 24.55 26.03 26.36
  C 25.08 26.81 24.44 28.15 24.12 29.07
  A 0.35 0.35 0.0 0 0 24.45 29.53
  L 28.78 29.53
  A 0.79 0.79 0.0 0 0 29.51 29.04
  C 30.65 26.36 33.37 24.38 34.14 22.88
  A 0.27 0.27 0.0 0 0 33.77 22.51
  Z
  M 26.36 40.76
  L 36.07 40.76
  A 0.91 0.90 -78.9 0 0 36.91 40.19
  Q 38.51 36.28 38.61 35.31
  Q 39.73 23.74 39.78 23.61
  A 0.42 0.42 0.0 0 0 39.41 23.02
  L 37.16 22.98
  A 1.12 1.10 -70.1 0 0 36.24 23.42
  L 31.91 29.13
  A 6.55 6.42 -17.0 0 0 31.00 30.80
  Q 29.61 34.61 28.53 37.23
  C 27.94 38.67 26.88 39.56 26.20 40.44
  A 0.20 0.20 0.0 0 0 26.36 40.76
  Z
  M 27.54 31.86
  L 22.84 31.86
  A 1.58 1.57 23.8 0 0 21.78 32.27
  L 19.03 34.82
  A 0.81 0.81 0.0 0 0 18.77 35.34
  L 17.86 45.79
  A 0.58 0.58 0.0 0 0 18.55 46.41
  Q 19.03 46.31 19.36 45.86
  Q 23.85 39.82 26.24 36.73
  Q 26.71 36.11 27.92 32.38
  A 0.40 0.40 0.0 0 0 27.54 31.86
  Z
  M 37.92 43.45
  Q 40.97 41.22 41.19 37.53
  A 0.41 0.41 0.0 0 0 40.43 37.29
  C 39.68 38.49 39.55 40.60 38.59 41.63
  Q 37.32 42.98 37.32 43.14
  A 0.38 0.38 0.0 0 0 37.92 43.45
  Z
  M 33.93 47.34
  A 0.39 0.39 0.0 0 0 34.17 47.08
  L 35.11 43.49
  A 0.39 0.39 0.0 0 0 34.73 43.00
  L 24.23 43.00
  A 0.39 0.39 0.0 0 0 23.92 43.15
  L 20.75 47.34
  A 0.39 0.39 0.0 0 0 20.96 47.95
  L 27.67 49.71
  A 0.39 0.39 0.0 0 0 27.91 49.69
  L 33.93 47.34
  Z"
/>
<path fill="#ffffff" d="
  M 46.60 18.15
  A 0.41 0.41 0.0 0 1 46.38 18.69
  L 43.81 19.75
  A 4.33 0.90 -22.4 0 1 39.46 20.56
  L 39.36 20.32
  A 4.33 0.90 -22.4 0 1 43.02 17.84
  L 45.59 16.78
  A 0.41 0.41 0.0 0 1 46.13 17.00
  L 46.60 18.15
  Z"
/>
<path fill="#ffffff" d="
  M 45.78 21.53
  C 44.36 27.21 43.55 31.87 41.40 34.60
  A 0.24 0.24 0.0 0 1 40.98 34.43
  L 41.98 23.07
  A 0.50 0.50 0.0 0 1 42.30 22.65
  L 45.59 21.36
  A 0.14 0.14 0.0 0 1 45.78 21.53
  Z"
/>
<path fill="#ffffff" d="
  M 34.14 22.88
  C 33.37 24.38 30.65 26.36 29.51 29.04
  A 0.79 0.79 0.0 0 1 28.78 29.53
  L 24.45 29.53
  A 0.35 0.35 0.0 0 1 24.12 29.07
  C 24.44 28.15 25.08 26.81 26.03 26.36
  Q 29.83 24.55 33.77 22.51
  A 0.27 0.27 0.0 0 1 34.14 22.88
  Z"
/>
<path fill="#ffffff" d="
  M 26.20 40.44
  C 26.88 39.56 27.94 38.67 28.53 37.23
  Q 29.61 34.61 31.00 30.80
  A 6.55 6.42 -17.0 0 1 31.91 29.13
  L 36.24 23.42
  A 1.12 1.10 -70.1 0 1 37.16 22.98
  L 39.41 23.02
  A 0.42 0.42 0.0 0 1 39.78 23.61
  Q 39.73 23.74 38.61 35.31
  Q 38.51 36.28 36.91 40.19
  A 0.91 0.90 -78.9 0 1 36.07 40.76
  L 26.36 40.76
  A 0.20 0.20 0.0 0 1 26.20 40.44
  Z"
/>
<path fill="#ffffff" d="
  M 27.92 32.38
  Q 26.71 36.11 26.24 36.73
  Q 23.85 39.82 19.36 45.86
  Q 19.03 46.31 18.55 46.41
  A 0.58 0.58 0.0 0 1 17.86 45.79
  L 18.77 35.34
  A 0.81 0.81 0.0 0 1 19.03 34.82
  L 21.78 32.27
  A 1.58 1.57 23.8 0 1 22.84 31.86
  L 27.54 31.86
  A 0.40 0.40 0.0 0 1 27.92 32.38
  Z"
/>
<path fill="#ffffff" d="
  M 37.32 43.14
  Q 37.32 42.98 38.59 41.63
  C 39.55 40.60 39.68 38.49 40.43 37.29
  A 0.41 0.41 0.0 0 1 41.19 37.53
  Q 40.97 41.22 37.92 43.45
  A 0.38 0.38 0.0 0 1 37.32 43.14
  Z"
/>
<path fill="#ffffff" d="
  M 33.93 47.34
  L 27.91 49.69
  A 0.39 0.39 0.0 0 1 27.67 49.71
  L 20.96 47.95
  A 0.39 0.39 0.0 0 1 20.75 47.34
  L 23.92 43.15
  A 0.39 0.39 0.0 0 1 24.23 43.00
  L 34.73 43.00
  A 0.39 0.39 0.0 0 1 35.11 43.49
  L 34.17 47.08
  A 0.39 0.39 0.0 0 1 33.93 47.34
  Z"
/>
</svg>
