<?xml version="1.0" encoding="UTF-8" standalone="no"?>
<!DOCTYPE svg PUBLIC "-//W3C//DTD SVG 1.1//EN" "http://www.w3.org/Graphics/SVG/1.1/DTD/svg11.dtd">
<svg xmlns="http://www.w3.org/2000/svg" version="1.1" viewBox="0.00 0.00 66.00 88.00">
<g stroke-width="2.00" fill="none" stroke-linecap="butt">
<path stroke="#173f51" vector-effect="non-scaling-stroke" d="
  M 33.42 86.61
  C 33.73 86.61 33.66 86.62 33.81 86.49
  Q 48.39 72.99 57.45 56.73
  Q 63.92 45.12 64.24 33.50
  C 64.71 16.32 50.59 2.58 33.50 2.57
  C 16.41 2.55 2.26 16.27 2.70 33.44
  Q 3.00 45.06 9.45 56.69
  Q 18.48 72.96 33.03 86.48
  C 33.18 86.62 33.12 86.61 33.42 86.61"
/>
<path stroke="#8fa9b5" vector-effect="non-scaling-stroke" d="
  M 33.01 49.24
  C 37.04 49.24 40.18 47.53 42.33 44.05
  A 0.56 0.56 0.0 0 1 43.08 43.86
  Q 43.86 44.32 44.75 45.21
  A 0.68 0.67 -62.1 0 1 44.94 45.84
  L 44.01 50.10
  A 0.10 0.10 0.0 0 0 44.19 50.18
  L 48.17 45.11
  A 0.71 0.70 -48.9 0 0 48.11 44.17
  L 44.58 40.63
  A 0.72 0.71 24.8 0 1 44.36 40.05
  L 44.54 37.93
  A 0.64 0.64 0.0 0 1 45.23 37.35
  L 48.23 37.61
  A 0.93 0.92 83.3 0 1 49.03 38.25
  L 50.28 42.12
  A 0.22 0.22 0.0 0 0 50.71 42.07
  L 51.27 35.62
  A 0.74 0.73 -82.0 0 0 50.69 34.84
  L 45.30 33.67
  A 0.95 0.93 86.6 0 1 44.60 33.04
  L 43.24 28.80
  A 1.00 0.99 55.0 0 1 43.40 27.87
  L 46.23 24.26
  A 0.70 0.70 0.0 0 0 46.18 23.33
  L 41.54 18.70
  A 0.11 0.11 0.0 0 0 41.35 18.81
  L 42.68 22.92
  A 0.89 0.87 58.7 0 1 42.47 23.82
  L 41.15 25.13
  A 0.50 0.50 0.0 0 1 40.52 25.19
  L 36.75 22.65
  A 1.25 1.19 4.3 0 1 36.36 22.22
  L 34.34 18.25
  A 0.28 0.28 0.0 0 0 33.81 18.34
  Q 33.34 21.69 33.00 21.69
  Q 32.66 21.69 32.18 18.34
  A 0.28 0.28 0.0 0 0 31.65 18.25
  L 29.63 22.22
  A 1.25 1.19 -4.3 0 1 29.24 22.65
  L 25.48 25.19
  A 0.50 0.50 0.0 0 1 24.85 25.14
  L 23.52 23.83
  A 0.89 0.87 -58.7 0 1 23.31 22.93
  L 24.64 18.82
  A 0.11 0.11 0.0 0 0 24.45 18.71
  L 19.81 23.34
  A 0.70 0.70 0.0 0 0 19.76 24.27
  L 22.60 27.88
  A 1.00 0.99 -55.0 0 1 22.76 28.81
  L 21.40 33.05
  A 0.95 0.93 -86.7 0 1 20.70 33.68
  L 15.31 34.85
  A 0.74 0.73 82.0 0 0 14.73 35.63
  L 15.30 42.08
  A 0.22 0.22 0.0 0 0 15.73 42.13
  L 16.97 38.26
  A 0.93 0.92 -83.3 0 1 17.77 37.62
  L 20.77 37.36
  A 0.64 0.64 0.0 0 1 21.46 37.94
  L 21.65 40.06
  A 0.72 0.71 -24.8 0 1 21.43 40.64
  L 17.90 44.18
  A 0.71 0.70 48.8 0 0 17.84 45.12
  L 21.82 50.19
  A 0.10 0.10 0.0 0 0 22.00 50.11
  L 21.07 45.85
  A 0.68 0.67 62.1 0 1 21.26 45.22
  Q 22.15 44.33 22.93 43.87
  A 0.56 0.56 0.0 0 1 23.68 44.06
  C 25.83 47.54 28.97 49.24 33.01 49.24"
/>
</g>
<path fill="#0e2b37" d="
  M 33.80 88.00
  L 33.04 88.00
  C 16.69 73.24 -6.42 44.05 4.13 20.29
  C 9.48 8.23 21.37 1.02 34.69 1.36
  C 46.69 1.67 57.54 8.91 62.69 19.91
  C 66.92 28.96 65.91 39.90 62.33 49.05
  C 56.51 63.88 45.52 77.34 33.80 88.00
  Z
  M 33.42 86.61
  C 33.73 86.61 33.66 86.62 33.81 86.49
  Q 48.39 72.99 57.45 56.73
  Q 63.92 45.12 64.24 33.50
  C 64.71 16.32 50.59 2.58 33.50 2.57
  C 16.41 2.55 2.26 16.27 2.70 33.44
  Q 3.00 45.06 9.45 56.69
  Q 18.48 72.96 33.03 86.48
  C 33.18 86.62 33.12 86.61 33.42 86.61
  Z"
/>
<path fill="#1f526b" d="
  M 33.50 2.57
  C 50.59 2.58 64.71 16.32 64.24 33.50
  Q 63.92 45.12 57.45 56.73
  Q 48.39 72.99 33.81 86.49
  C 33.66 86.62 33.73 86.61 33.42 86.61
  C 33.12 86.61 33.18 86.62 33.03 86.48
  Q 18.48 72.96 9.45 56.69
  Q 3.00 45.06 2.70 33.44
  C 2.26 16.27 16.41 2.55 33.50 2.57
  Z
  M 33.01 49.24
  C 37.04 49.24 40.18 47.53 42.33 44.05
  A 0.56 0.56 0.0 0 1 43.08 43.86
  Q 43.86 44.32 44.75 45.21
  A 0.68 0.67 -62.1 0 1 44.94 45.84
  L 44.01 50.10
  A 0.10 0.10 0.0 0 0 44.19 50.18
  L 48.17 45.11
  A 0.71 0.70 -48.9 0 0 48.11 44.17
  L 44.58 40.63
  A 0.72 0.71 24.8 0 1 44.36 40.05
  L 44.54 37.93
  A 0.64 0.64 0.0 0 1 45.23 37.35
  L 48.23 37.61
  A 0.93 0.92 83.3 0 1 49.03 38.25
  L 50.28 42.12
  A 0.22 0.22 0.0 0 0 50.71 42.07
  L 51.27 35.62
  A 0.74 0.73 -82.0 0 0 50.69 34.84
  L 45.30 33.67
  A 0.95 0.93 86.6 0 1 44.60 33.04
  L 43.24 28.80
  A 1.00 0.99 55.0 0 1 43.40 27.87
  L 46.23 24.26
  A 0.70 0.70 0.0 0 0 46.18 23.33
  L 41.54 18.70
  A 0.11 0.11 0.0 0 0 41.35 18.81
  L 42.68 22.92
  A 0.89 0.87 58.7 0 1 42.47 23.82
  L 41.15 25.13
  A 0.50 0.50 0.0 0 1 40.52 25.19
  L 36.75 22.65
  A 1.25 1.19 4.3 0 1 36.36 22.22
  L 34.34 18.25
  A 0.28 0.28 0.0 0 0 33.81 18.34
  Q 33.34 21.69 33.00 21.69
  Q 32.66 21.69 32.18 18.34
  A 0.28 0.28 0.0 0 0 31.65 18.25
  L 29.63 22.22
  A 1.25 1.19 -4.3 0 1 29.24 22.65
  L 25.48 25.19
  A 0.50 0.50 0.0 0 1 24.85 25.14
  L 23.52 23.83
  A 0.89 0.87 -58.7 0 1 23.31 22.93
  L 24.64 18.82
  A 0.11 0.11 0.0 0 0 24.45 18.71
  L 19.81 23.34
  A 0.70 0.70 0.0 0 0 19.76 24.27
  L 22.60 27.88
  A 1.00 0.99 -55.0 0 1 22.76 28.81
  L 21.40 33.05
  A 0.95 0.93 -86.7 0 1 20.70 33.68
  L 15.31 34.85
  A 0.74 0.73 82.0 0 0 14.73 35.63
  L 15.30 42.08
  A 0.22 0.22 0.0 0 0 15.73 42.13
  L 16.97 38.26
  A 0.93 0.92 -83.3 0 1 17.77 37.62
  L 20.77 37.36
  A 0.64 0.64 0.0 0 1 21.46 37.94
  L 21.65 40.06
  A 0.72 0.71 -24.8 0 1 21.43 40.64
  L 17.90 44.18
  A 0.71 0.70 48.8 0 0 17.84 45.12
  L 21.82 50.19
  A 0.10 0.10 0.0 0 0 22.00 50.11
  L 21.07 45.85
  A 0.68 0.67 62.1 0 1 21.26 45.22
  Q 22.15 44.33 22.93 43.87
  A 0.56 0.56 0.0 0 1 23.68 44.06
  C 25.83 47.54 28.97 49.24 33.01 49.24
  Z"
/>
<path fill="#ffffff" d="
  M 33.00 21.69
  Q 33.34 21.69 33.81 18.34
  A 0.28 0.28 0.0 0 1 34.34 18.25
  L 36.36 22.22
  A 1.25 1.19 4.3 0 0 36.75 22.65
  L 40.52 25.19
  A 0.50 0.50 0.0 0 0 41.15 25.13
  L 42.47 23.82
  A 0.89 0.87 58.7 0 0 42.68 22.92
  L 41.35 18.81
  A 0.11 0.11 0.0 0 1 41.54 18.70
  L 46.18 23.33
  A 0.70 0.70 0.0 0 1 46.23 24.26
  L 43.40 27.87
  A 1.00 0.99 55.0 0 0 43.24 28.80
  L 44.60 33.04
  A 0.95 0.93 86.6 0 0 45.30 33.67
  L 50.69 34.84
  A 0.74 0.73 -82.0 0 1 51.27 35.62
  L 50.71 42.07
  A 0.22 0.22 0.0 0 1 50.28 42.12
  L 49.03 38.25
  A 0.93 0.92 83.3 0 0 48.23 37.61
  L 45.23 37.35
  A 0.64 0.64 0.0 0 0 44.54 37.93
  L 44.36 40.05
  A 0.72 0.71 24.8 0 0 44.58 40.63
  L 48.11 44.17
  A 0.71 0.70 -48.9 0 1 48.17 45.11
  L 44.19 50.18
  A 0.10 0.10 0.0 0 1 44.01 50.10
  L 44.94 45.84
  A 0.68 0.67 -62.1 0 0 44.75 45.21
  Q 43.86 44.32 43.08 43.86
  A 0.56 0.56 0.0 0 0 42.33 44.05
  C 40.18 47.53 37.04 49.24 33.01 49.24
  C 28.97 49.24 25.83 47.54 23.68 44.06
  A 0.56 0.56 0.0 0 0 22.93 43.87
  Q 22.15 44.33 21.26 45.22
  A 0.68 0.67 62.1 0 0 21.07 45.85
  L 22.00 50.11
  A 0.10 0.10 0.0 0 1 21.82 50.19
  L 17.84 45.12
  A 0.71 0.70 48.8 0 1 17.90 44.18
  L 21.43 40.64
  A 0.72 0.71 -24.8 0 0 21.65 40.06
  L 21.46 37.94
  A 0.64 0.64 0.0 0 0 20.77 37.36
  L 17.77 37.62
  A 0.93 0.92 -83.3 0 0 16.97 38.26
  L 15.73 42.13
  A 0.22 0.22 0.0 0 1 15.30 42.08
  L 14.73 35.63
  A 0.74 0.73 82.0 0 1 15.31 34.85
  L 20.70 33.68
  A 0.95 0.93 -86.7 0 0 21.40 33.05
  L 22.76 28.81
  A 1.00 0.99 -55.0 0 0 22.60 27.88
  L 19.76 24.27
  A 0.70 0.70 0.0 0 1 19.81 23.34
  L 24.45 18.71
  A 0.11 0.11 0.0 0 1 24.64 18.82
  L 23.31 22.93
  A 0.89 0.87 -58.7 0 0 23.52 23.83
  L 24.85 25.14
  A 0.50 0.50 0.0 0 0 25.48 25.19
  L 29.24 22.65
  A 1.25 1.19 -4.3 0 0 29.63 22.22
  L 31.65 18.25
  A 0.28 0.28 0.0 0 1 32.18 18.34
  Q 32.66 21.69 33.00 21.69
  Z"
/>
</svg>
