<?xml version="1.0" encoding="UTF-8" standalone="no"?>
<!DOCTYPE svg PUBLIC "-//W3C//DTD SVG 1.1//EN" "http://www.w3.org/Graphics/SVG/1.1/DTD/svg11.dtd">
<svg xmlns="http://www.w3.org/2000/svg" version="1.1" viewBox="0.00 0.00 66.00 88.00">
<g stroke-width="2.00" fill="none" stroke-linecap="butt">
<path stroke="#431a44" vector-effect="non-scaling-stroke" d="
  M 33.43 86.53
  Q 33.72 86.53 33.89 86.37
  C 50.32 71.11 74.72 40.21 59.50 16.65
  C 53.84 7.90 44.58 2.94 34.25 2.47
  Q 33.87 2.45 33.49 2.45
  Q 33.11 2.45 32.72 2.47
  C 22.40 2.92 13.13 7.87 7.46 16.61
  C -7.80 40.15 16.56 71.09 32.96 86.36
  Q 33.14 86.53 33.43 86.53"
/>
<path stroke="#ac91ac" vector-effect="non-scaling-stroke" d="
  M 30.40 20.73
  Q 32.24 20.48 35.85 20.69
  A 0.03 0.03 0.0 0 0 35.87 20.63
  Q 32.84 19.02 30.22 19.37
  Q 27.61 19.72 25.10 22.06
  A 0.03 0.03 0.0 0 0 25.13 22.11
  Q 28.56 20.97 30.40 20.73"
/>
<path stroke="#ac91ac" vector-effect="non-scaling-stroke" d="
  M 32.26 38.65
  C 32.33 38.64 34.47 37.15 35.44 36.54
  C 41.84 32.49 38.63 22.40 30.87 23.09
  C 23.11 23.78 21.74 34.28 28.76 37.14
  C 29.82 37.57 32.19 38.65 32.26 38.65"
/>
<path stroke="#ac91ac" vector-effect="non-scaling-stroke" d="
  M 40.59 38.51
  Q 45.57 36.62 48.58 33.40
  C 54.01 27.58 46.39 24.16 41.55 25.15
  A 0.32 0.31 -34.5 0 0 41.44 25.72
  C 47.35 29.45 44.70 34.59 40.46 38.29
  A 0.13 0.13 0.0 0 0 40.59 38.51"
/>
<path stroke="#ac91ac" vector-effect="non-scaling-stroke" d="
  M 49.90 36.24
  Q 40.89 44.11 27.65 43.70
  A 0.43 0.43 0.0 0 1 27.30 43.04
  Q 27.70 42.38 27.70 42.20
  A 0.55 0.54 85.5 0 0 27.07 41.66
  C 18.33 43.01 15.38 34.90 21.64 29.34
  A 0.07 0.07 0.0 0 0 21.56 29.23
  C 16.47 32.20 12.11 38.67 16.64 44.12
  C 18.21 46.01 21.83 47.73 24.19 48.06
  Q 33.49 49.36 41.44 44.20
  Q 47.66 40.18 50.15 36.46
  A 0.17 0.17 0.0 0 0 49.90 36.24"
/>
</g>
<path fill="#2e112e" d="
  M 33.83 88.00
  L 33.04 88.00
  C 21.75 77.74 12.13 65.68 5.65 51.56
  Q 2.21 44.06 1.60 34.89
  C 0.53 18.85 11.37 5.51 26.76 2.03
  C 37.56 -0.42 49.39 3.28 57.10 11.59
  Q 68.19 23.54 64.55 41.52
  C 61.03 58.94 46.70 76.15 33.83 88.00
  Z
  M 33.43 86.53
  Q 33.72 86.53 33.89 86.37
  C 50.32 71.11 74.72 40.21 59.50 16.65
  C 53.84 7.90 44.58 2.94 34.25 2.47
  Q 33.87 2.45 33.49 2.45
  Q 33.11 2.45 32.72 2.47
  C 22.40 2.92 13.13 7.87 7.46 16.61
  C -7.80 40.15 16.56 71.09 32.96 86.36
  Q 33.14 86.53 33.43 86.53
  Z"
/>
<path fill="#582359" d="
  M 33.49 2.45
  Q 33.87 2.45 34.25 2.47
  C 44.58 2.94 53.84 7.90 59.50 16.65
  C 74.72 40.21 50.32 71.11 33.89 86.37
  Q 33.72 86.53 33.43 86.53
  Q 33.14 86.53 32.96 86.36
  C 16.56 71.09 -7.80 40.15 7.46 16.61
  C 13.13 7.87 22.40 2.92 32.72 2.47
  Q 33.11 2.45 33.49 2.45
  Z
  M 30.40 20.73
  Q 32.24 20.48 35.85 20.69
  A 0.03 0.03 0.0 0 0 35.87 20.63
  Q 32.84 19.02 30.22 19.37
  Q 27.61 19.72 25.10 22.06
  A 0.03 0.03 0.0 0 0 25.13 22.11
  Q 28.56 20.97 30.40 20.73
  Z
  M 32.26 38.65
  C 32.33 38.64 34.47 37.15 35.44 36.54
  C 41.84 32.49 38.63 22.40 30.87 23.09
  C 23.11 23.78 21.74 34.28 28.76 37.14
  C 29.82 37.57 32.19 38.65 32.26 38.65
  Z
  M 40.59 38.51
  Q 45.57 36.62 48.58 33.40
  C 54.01 27.58 46.39 24.16 41.55 25.15
  A 0.32 0.31 -34.5 0 0 41.44 25.72
  C 47.35 29.45 44.70 34.59 40.46 38.29
  A 0.13 0.13 0.0 0 0 40.59 38.51
  Z
  M 49.90 36.24
  Q 40.89 44.11 27.65 43.70
  A 0.43 0.43 0.0 0 1 27.30 43.04
  Q 27.70 42.38 27.70 42.20
  A 0.55 0.54 85.5 0 0 27.07 41.66
  C 18.33 43.01 15.38 34.90 21.64 29.34
  A 0.07 0.07 0.0 0 0 21.56 29.23
  C 16.47 32.20 12.11 38.67 16.64 44.12
  C 18.21 46.01 21.83 47.73 24.19 48.06
  Q 33.49 49.36 41.44 44.20
  Q 47.66 40.18 50.15 36.46
  A 0.17 0.17 0.0 0 0 49.90 36.24
  Z"
/>
<path fill="#ffffff" d="
  M 30.40 20.73
  Q 28.56 20.97 25.13 22.11
  A 0.03 0.03 0.0 0 1 25.10 22.06
  Q 27.61 19.72 30.22 19.37
  Q 32.84 19.02 35.87 20.63
  A 0.03 0.03 0.0 0 1 35.85 20.69
  Q 32.24 20.48 30.40 20.73
  Z"
/>
<path fill="#ffffff" d="
  M 30.87 23.09
  C 38.63 22.40 41.84 32.49 35.44 36.54
  C 34.47 37.15 32.33 38.64 32.26 38.65
  C 32.19 38.65 29.82 37.57 28.76 37.14
  C 21.74 34.28 23.11 23.78 30.87 23.09
  Z"
/>
<path fill="#ffffff" d="
  M 40.46 38.29
  C 44.70 34.59 47.35 29.45 41.44 25.72
  A 0.32 0.31 -34.5 0 1 41.55 25.15
  C 46.39 24.16 54.01 27.58 48.58 33.40
  Q 45.57 36.62 40.59 38.51
  A 0.13 0.13 0.0 0 1 40.46 38.29
  Z"
/>
<path fill="#ffffff" d="
  M 50.15 36.46
  Q 47.66 40.18 41.44 44.20
  Q 33.49 49.36 24.19 48.06
  C 21.83 47.73 18.21 46.01 16.64 44.12
  C 12.11 38.67 16.47 32.20 21.56 29.23
  A 0.07 0.07 0.0 0 1 21.64 29.34
  C 15.38 34.90 18.33 43.01 27.07 41.66
  A 0.55 0.54 85.5 0 1 27.70 42.20
  Q 27.70 42.38 27.30 43.04
  A 0.43 0.43 0.0 0 0 27.65 43.70
  Q 40.89 44.11 49.90 36.24
  A 0.17 0.17 0.0 0 1 50.15 36.46
  Z"
/>
</svg>
