<?xml version="1.0" encoding="UTF-8" standalone="no"?>
<!DOCTYPE svg PUBLIC "-//W3C//DTD SVG 1.1//EN" "http://www.w3.org/Graphics/SVG/1.1/DTD/svg11.dtd">
<svg xmlns="http://www.w3.org/2000/svg" version="1.1" viewBox="0.00 0.00 66.00 88.00">
<g stroke-width="2.00" fill="none" stroke-linecap="butt">
<path stroke="#615742" vector-effect="non-scaling-stroke" d="
  M 33.41 86.68
  Q 33.54 86.68 33.67 86.65
  A 0.14 0.08 1.3 0 0 33.73 86.62
  Q 47.16 74.09 56.21 59.00
  C 65.37 43.72 68.86 24.55 54.93 11.10
  C 49.29 5.66 41.58 2.48 33.54 2.47
  C 25.50 2.46 17.78 5.61 12.12 11.03
  C -1.85 24.44 1.58 43.62 10.69 58.93
  Q 19.69 74.05 33.08 86.62
  A 0.14 0.08 -1.1 0 0 33.14 86.65
  Q 33.27 86.68 33.41 86.68"
/>
<path stroke="#a1a7a0" vector-effect="non-scaling-stroke" d="
  M 46.59 18.14
  L 46.12 16.99
  A 0.42 0.42 0.0 0 0 45.57 16.77
  L 43.14 17.78
  A 4.55 0.98 -22.7 0 0 39.32 20.44
  L 39.37 20.55
  A 4.55 0.98 -22.7 0 0 43.94 19.70
  L 46.37 18.69
  A 0.42 0.42 0.0 0 0 46.59 18.14"
/>
<path stroke="#a1a7a0" vector-effect="non-scaling-stroke" d="
  M 42.29 22.66
  A 0.50 0.50 0.0 0 0 41.97 23.08
  L 41.01 34.40
  A 0.24 0.24 0.0 0 0 41.44 34.57
  C 43.54 31.90 44.40 27.08 45.77 21.54
  A 0.14 0.14 0.0 0 0 45.58 21.37
  L 42.29 22.66"
/>
<path stroke="#a1a7a0" vector-effect="non-scaling-stroke" d="
  M 34.10 22.48
  Q 30.61 24.00 25.47 26.70
  Q 25.20 26.84 24.16 28.94
  A 0.41 0.41 0.0 0 0 24.53 29.53
  L 28.62 29.53
  A 1.01 1.00 -77.5 0 0 29.53 28.94
  Q 30.85 25.98 34.38 22.92
  A 0.26 0.26 0.0 0 0 34.10 22.48"
/>
<path stroke="#a1a7a0" vector-effect="non-scaling-stroke" d="
  M 26.61 40.75
  L 36.11 40.75
  A 0.89 0.87 10.8 0 0 36.93 40.20
  Q 38.50 36.23 38.60 35.30
  Q 39.74 23.83 39.75 23.70
  A 0.62 0.62 0.0 0 0 39.13 23.00
  L 37.12 22.99
  A 1.08 1.08 0.0 0 0 36.24 23.42
  L 31.66 29.47
  A 3.52 3.39 -17.4 0 0 31.20 30.31
  C 29.43 35.04 28.86 37.34 26.38 40.26
  A 0.30 0.30 0.0 0 0 26.61 40.75"
/>
<path stroke="#a1a7a0" vector-effect="non-scaling-stroke" d="
  M 27.61 31.86
  L 22.71 31.86
  A 1.21 1.21 0.0 0 0 21.88 32.19
  L 18.96 34.89
  A 0.58 0.56 72.3 0 0 18.77 35.27
  L 17.87 45.79
  A 0.56 0.56 0.0 0 0 18.56 46.38
  Q 19.08 46.25 19.47 45.72
  Q 22.87 41.11 26.23 36.73
  Q 26.74 36.06 27.97 32.36
  A 0.38 0.38 0.0 0 0 27.61 31.86"
/>
<path stroke="#a1a7a0" vector-effect="non-scaling-stroke" d="
  M 37.91 43.46
  Q 40.92 41.27 41.20 37.54
  A 0.44 0.44 0.0 0 0 40.36 37.32
  C 39.90 38.34 39.41 40.93 38.30 41.99
  Q 37.40 42.84 37.35 43.10
  A 0.36 0.36 0.0 0 0 37.91 43.46"
/>
<path stroke="#a1a7a0" vector-effect="non-scaling-stroke" d="
  M 33.93 47.33
  A 0.39 0.39 0.0 0 0 34.16 47.07
  L 35.10 43.50
  A 0.39 0.39 0.0 0 0 34.72 43.01
  L 24.23 43.01
  A 0.39 0.39 0.0 0 0 23.92 43.16
  L 20.76 47.34
  A 0.39 0.39 0.0 0 0 20.97 47.95
  L 27.67 49.72
  A 0.39 0.39 0.0 0 0 27.91 49.70
  L 33.93 47.33"
/>
</g>
<path fill="#413b2b" d="
  M 33.81 88.00
  L 33.03 88.00
  C 21.77 77.76 12.09 65.65 5.65 51.57
  C 1.02 41.46 -0.44 28.44 5.12 18.27
  C 17.42 -4.24 49.63 -4.48 61.99 18.51
  C 67.44 28.65 65.91 41.14 61.31 51.54
  C 55.18 65.40 44.96 77.83 33.81 88.00
  Z
  M 33.41 86.68
  Q 33.54 86.68 33.67 86.65
  A 0.14 0.08 1.3 0 0 33.73 86.62
  Q 47.16 74.09 56.21 59.00
  C 65.37 43.72 68.86 24.55 54.93 11.10
  C 49.29 5.66 41.58 2.48 33.54 2.47
  C 25.50 2.46 17.78 5.61 12.12 11.03
  C -1.85 24.44 1.58 43.62 10.69 58.93
  Q 19.69 74.05 33.08 86.62
  A 0.14 0.08 -1.1 0 0 33.14 86.65
  Q 33.27 86.68 33.41 86.68
  Z"
/>
<path fill="#807358" d="
  M 33.54 2.47
  C 41.58 2.48 49.29 5.66 54.93 11.10
  C 68.86 24.55 65.37 43.72 56.21 59.00
  Q 47.16 74.09 33.73 86.62
  A 0.14 0.08 1.3 0 1 33.67 86.65
  Q 33.54 86.68 33.41 86.68
  Q 33.27 86.68 33.14 86.65
  A 0.14 0.08 -1.1 0 1 33.08 86.62
  Q 19.69 74.05 10.69 58.93
  C 1.58 43.62 -1.85 24.44 12.12 11.03
  C 17.78 5.61 25.50 2.46 33.54 2.47
  Z
  M 46.59 18.14
  L 46.12 16.99
  A 0.42 0.42 0.0 0 0 45.57 16.77
  L 43.14 17.78
  A 4.55 0.98 -22.7 0 0 39.32 20.44
  L 39.37 20.55
  A 4.55 0.98 -22.7 0 0 43.94 19.70
  L 46.37 18.69
  A 0.42 0.42 0.0 0 0 46.59 18.14
  Z
  M 42.29 22.66
  A 0.50 0.50 0.0 0 0 41.97 23.08
  L 41.01 34.40
  A 0.24 0.24 0.0 0 0 41.44 34.57
  C 43.54 31.90 44.40 27.08 45.77 21.54
  A 0.14 0.14 0.0 0 0 45.58 21.37
  L 42.29 22.66
  Z
  M 34.10 22.48
  Q 30.61 24.00 25.47 26.70
  Q 25.20 26.84 24.16 28.94
  A 0.41 0.41 0.0 0 0 24.53 29.53
  L 28.62 29.53
  A 1.01 1.00 -77.5 0 0 29.53 28.94
  Q 30.85 25.98 34.38 22.92
  A 0.26 0.26 0.0 0 0 34.10 22.48
  Z
  M 26.61 40.75
  L 36.11 40.75
  A 0.89 0.87 10.8 0 0 36.93 40.20
  Q 38.50 36.23 38.60 35.30
  Q 39.74 23.83 39.75 23.70
  A 0.62 0.62 0.0 0 0 39.13 23.00
  L 37.12 22.99
  A 1.08 1.08 0.0 0 0 36.24 23.42
  L 31.66 29.47
  A 3.52 3.39 -17.4 0 0 31.20 30.31
  C 29.43 35.04 28.86 37.34 26.38 40.26
  A 0.30 0.30 0.0 0 0 26.61 40.75
  Z
  M 27.61 31.86
  L 22.71 31.86
  A 1.21 1.21 0.0 0 0 21.88 32.19
  L 18.96 34.89
  A 0.58 0.56 72.3 0 0 18.77 35.27
  L 17.87 45.79
  A 0.56 0.56 0.0 0 0 18.56 46.38
  Q 19.08 46.25 19.47 45.72
  Q 22.87 41.11 26.23 36.73
  Q 26.74 36.06 27.97 32.36
  A 0.38 0.38 0.0 0 0 27.61 31.86
  Z
  M 37.91 43.46
  Q 40.92 41.27 41.20 37.54
  A 0.44 0.44 0.0 0 0 40.36 37.32
  C 39.90 38.34 39.41 40.93 38.30 41.99
  Q 37.40 42.84 37.35 43.10
  A 0.36 0.36 0.0 0 0 37.91 43.46
  Z
  M 33.93 47.33
  A 0.39 0.39 0.0 0 0 34.16 47.07
  L 35.10 43.50
  A 0.39 0.39 0.0 0 0 34.72 43.01
  L 24.23 43.01
  A 0.39 0.39 0.0 0 0 23.92 43.16
  L 20.76 47.34
  A 0.39 0.39 0.0 0 0 20.97 47.95
  L 27.67 49.72
  A 0.39 0.39 0.0 0 0 27.91 49.70
  L 33.93 47.33
  Z"
/>
<path fill="#c2dae8" d="
  M 46.59 18.14
  A 0.42 0.42 0.0 0 1 46.37 18.69
  L 43.94 19.70
  A 4.55 0.98 -22.7 0 1 39.37 20.55
  L 39.32 20.44
  A 4.55 0.98 -22.7 0 1 43.14 17.78
  L 45.57 16.77
  A 0.42 0.42 0.0 0 1 46.12 16.99
  L 46.59 18.14
  Z"
/>
<path fill="#c2dae8" d="
  M 45.77 21.54
  C 44.40 27.08 43.54 31.90 41.44 34.57
  A 0.24 0.24 0.0 0 1 41.01 34.40
  L 41.97 23.08
  A 0.50 0.50 0.0 0 1 42.29 22.66
  L 45.58 21.37
  A 0.14 0.14 0.0 0 1 45.77 21.54
  Z"
/>
<path fill="#c2dae8" d="
  M 34.10 22.48
  A 0.26 0.26 0.0 0 1 34.38 22.92
  Q 30.85 25.98 29.53 28.94
  A 1.01 1.00 -77.5 0 1 28.62 29.53
  L 24.53 29.53
  A 0.41 0.41 0.0 0 1 24.16 28.94
  Q 25.20 26.84 25.47 26.70
  Q 30.61 24.00 34.10 22.48
  Z"
/>
<path fill="#c2dae8" d="
  M 26.38 40.26
  C 28.86 37.34 29.43 35.04 31.20 30.31
  A 3.52 3.39 -17.4 0 1 31.66 29.47
  L 36.24 23.42
  A 1.08 1.08 0.0 0 1 37.12 22.99
  L 39.13 23.00
  A 0.62 0.62 0.0 0 1 39.75 23.70
  Q 39.74 23.83 38.60 35.30
  Q 38.50 36.23 36.93 40.20
  A 0.89 0.87 10.8 0 1 36.11 40.75
  L 26.61 40.75
  A 0.30 0.30 0.0 0 1 26.38 40.26
  Z"
/>
<path fill="#c2dae8" d="
  M 27.97 32.36
  Q 26.74 36.06 26.23 36.73
  Q 22.87 41.11 19.47 45.72
  Q 19.08 46.25 18.56 46.38
  A 0.56 0.56 0.0 0 1 17.87 45.79
  L 18.77 35.27
  A 0.58 0.56 72.3 0 1 18.96 34.89
  L 21.88 32.19
  A 1.21 1.21 0.0 0 1 22.71 31.86
  L 27.61 31.86
  A 0.38 0.38 0.0 0 1 27.97 32.36
  Z"
/>
<path fill="#c2dae8" d="
  M 37.35 43.10
  Q 37.40 42.84 38.30 41.99
  C 39.41 40.93 39.90 38.34 40.36 37.32
  A 0.44 0.44 0.0 0 1 41.20 37.54
  Q 40.92 41.27 37.91 43.46
  A 0.36 0.36 0.0 0 1 37.35 43.10
  Z"
/>
<path fill="#c2dae8" d="
  M 33.93 47.33
  L 27.91 49.70
  A 0.39 0.39 0.0 0 1 27.67 49.72
  L 20.97 47.95
  A 0.39 0.39 0.0 0 1 20.76 47.34
  L 23.92 43.16
  A 0.39 0.39 0.0 0 1 24.23 43.01
  L 34.72 43.01
  A 0.39 0.39 0.0 0 1 35.10 43.50
  L 34.16 47.07
  A 0.39 0.39 0.0 0 1 33.93 47.33
  Z"
/>
</svg>
