<?xml version="1.0" encoding="UTF-8" standalone="no"?>
<!DOCTYPE svg PUBLIC "-//W3C//DTD SVG 1.1//EN" "http://www.w3.org/Graphics/SVG/1.1/DTD/svg11.dtd">
<svg xmlns="http://www.w3.org/2000/svg" version="1.1" viewBox="0.00 0.00 66.00 88.00">
<g stroke-width="2.00" fill="none" stroke-linecap="butt">
<path stroke="#282a22" vector-effect="non-scaling-stroke" d="
  M 33.37 86.55
  Q 33.52 86.55 33.61 86.52
  Q 33.63 86.51 33.78 86.37
  C 44.75 76.17 54.70 63.97 60.52 50.24
  C 64.46 40.96 65.95 29.53 61.53 20.33
  C 56.30 9.43 45.56 2.56 33.55 2.53
  C 21.53 2.51 10.76 9.34 5.48 20.22
  C 1.03 29.40 2.47 40.83 6.38 50.13
  C 12.14 63.88 22.04 76.12 32.97 86.37
  Q 33.12 86.51 33.14 86.52
  Q 33.23 86.55 33.37 86.55"
/>
<path stroke="#9a9b96" vector-effect="non-scaling-stroke" d="
  M 25.58 23.61
  Q 26.86 19.30 29.80 16.40
  A 0.33 0.33 0.0 0 0 29.43 15.86
  Q 23.74 18.45 21.13 24.13
  Q 17.81 31.39 18.40 39.27
  C 18.80 44.50 21.35 47.72 26.47 49.32
  Q 34.90 51.96 40.21 44.05
  A 0.10 0.10 0.0 0 1 40.39 44.14
  Q 39.09 48.77 36.14 51.68
  A 0.34 0.33 10.1 0 0 36.52 52.22
  Q 42.29 49.51 44.91 43.67
  C 48.65 35.29 50.47 20.56 38.05 18.49
  C 35.00 17.99 33.43 17.79 30.92 19.14
  Q 28.14 20.63 25.87 23.75
  A 0.16 0.16 0.0 0 1 25.58 23.61"
/>
<path stroke="#9a9b96" vector-effect="non-scaling-stroke" d="
  M 33.8901 24.4342
  A 9.60 6.25 -84.5 0 0 26.7488 33.3910
  A 9.60 6.25 -84.5 0 0 32.0499 43.5458
  A 9.60 6.25 -84.5 0 0 39.1912 34.5890
  A 9.60 6.25 -84.5 0 0 33.8901 24.4342"
/>
</g>
<path fill="#1c1e17" d="
  M 33.81 88.00
  L 33.04 88.00
  C 21.94 77.92 12.13 65.70 5.73 51.78
  Q 2.17 44.04 1.59 34.60
  Q 1.02 25.28 5.51 17.56
  C 18.80 -5.29 51.90 -3.79 62.98 20.58
  C 66.62 28.58 65.94 38.74 63.05 47.01
  C 57.58 62.66 45.99 76.88 33.81 88.00
  Z
  M 33.37 86.55
  Q 33.52 86.55 33.61 86.52
  Q 33.63 86.51 33.78 86.37
  C 44.75 76.17 54.70 63.97 60.52 50.24
  C 64.46 40.96 65.95 29.53 61.53 20.33
  C 56.30 9.43 45.56 2.56 33.55 2.53
  C 21.53 2.51 10.76 9.34 5.48 20.22
  C 1.03 29.40 2.47 40.83 6.38 50.13
  C 12.14 63.88 22.04 76.12 32.97 86.37
  Q 33.12 86.51 33.14 86.52
  Q 33.23 86.55 33.37 86.55
  Z"
/>
<path fill="#34362c" d="
  M 33.55 2.53
  C 45.56 2.56 56.30 9.43 61.53 20.33
  C 65.95 29.53 64.46 40.96 60.52 50.24
  C 54.70 63.97 44.75 76.17 33.78 86.37
  Q 33.63 86.51 33.61 86.52
  Q 33.52 86.55 33.37 86.55
  Q 33.23 86.55 33.14 86.52
  Q 33.12 86.51 32.97 86.37
  C 22.04 76.12 12.14 63.88 6.38 50.13
  C 2.47 40.83 1.03 29.40 5.48 20.22
  C 10.76 9.34 21.53 2.51 33.55 2.53
  Z
  M 25.58 23.61
  Q 26.86 19.30 29.80 16.40
  A 0.33 0.33 0.0 0 0 29.43 15.86
  Q 23.74 18.45 21.13 24.13
  Q 17.81 31.39 18.40 39.27
  C 18.80 44.50 21.35 47.72 26.47 49.32
  Q 34.90 51.96 40.21 44.05
  A 0.10 0.10 0.0 0 1 40.39 44.14
  Q 39.09 48.77 36.14 51.68
  A 0.34 0.33 10.1 0 0 36.52 52.22
  Q 42.29 49.51 44.91 43.67
  C 48.65 35.29 50.47 20.56 38.05 18.49
  C 35.00 17.99 33.43 17.79 30.92 19.14
  Q 28.14 20.63 25.87 23.75
  A 0.16 0.16 0.0 0 1 25.58 23.61
  Z"
/>
<path fill="#ffffff" d="
  M 25.87 23.75
  Q 28.14 20.63 30.92 19.14
  C 33.43 17.79 35.00 17.99 38.05 18.49
  C 50.47 20.56 48.65 35.29 44.91 43.67
  Q 42.29 49.51 36.52 52.22
  A 0.34 0.33 10.1 0 1 36.14 51.68
  Q 39.09 48.77 40.39 44.14
  A 0.10 0.10 0.0 0 0 40.21 44.05
  Q 34.90 51.96 26.47 49.32
  C 21.35 47.72 18.80 44.50 18.40 39.27
  Q 17.81 31.39 21.13 24.13
  Q 23.74 18.45 29.43 15.86
  A 0.33 0.33 0.0 0 1 29.80 16.40
  Q 26.86 19.30 25.58 23.61
  A 0.16 0.16 0.0 0 0 25.87 23.75
  Z
  M 33.8901 24.4342
  A 9.60 6.25 -84.5 0 0 26.7488 33.3910
  A 9.60 6.25 -84.5 0 0 32.0499 43.5458
  A 9.60 6.25 -84.5 0 0 39.1912 34.5890
  A 9.60 6.25 -84.5 0 0 33.8901 24.4342
  Z"
/>
<ellipse fill="#34362c" cx="0.00" cy="0.00" transform="translate(32.97,33.99) rotate(-84.5)" rx="9.60" ry="6.25"/>
</svg>
