<?xml version="1.0" encoding="UTF-8" standalone="no"?>
<!DOCTYPE svg PUBLIC "-//W3C//DTD SVG 1.1//EN" "http://www.w3.org/Graphics/SVG/1.1/DTD/svg11.dtd">
<svg xmlns="http://www.w3.org/2000/svg" version="1.1" viewBox="0.00 0.00 66.00 88.00">
<g stroke-width="2.00" fill="none" stroke-linecap="butt">
<path stroke="#2b4c38" vector-effect="non-scaling-stroke" d="
  M 33.42 86.65
  Q 33.47 86.65 33.52 86.64
  A 0.25 0.05 -45.3 0 0 33.68 86.54
  C 44.91 76.39 56.08 62.25 61.36 48.14
  Q 65.49 37.12 63.73 27.32
  C 61.17 13.01 48.35 2.55 33.53 2.53
  C 18.71 2.51 5.86 12.93 3.26 27.24
  Q 1.48 37.04 5.58 48.07
  C 10.82 62.19 21.95 76.36 33.16 86.54
  A 0.25 0.05 45.4 0 0 33.31 86.64
  Q 33.36 86.65 33.42 86.65"
/>
<path stroke="#9cb1a5" vector-effect="non-scaling-stroke" d="
  M 49.50 18.44
  A 0.95 0.95 0.0 0 0 48.55 17.49
  L 17.45 17.49
  A 0.95 0.95 0.0 0 0 16.50 18.44
  L 16.50 49.54
  A 0.95 0.95 0.0 0 0 17.45 50.49
  L 48.55 50.49
  A 0.95 0.95 0.0 0 0 49.50 49.54
  L 49.50 18.44"
/>
<path stroke="#9cb1a5" vector-effect="non-scaling-stroke" d="
  M 29.51 46.73
  A 0.35 0.35 0.0 0 0 29.82 47.25
  L 45.65 47.25
  A 0.54 0.54 0.0 0 0 46.19 46.71
  L 46.19 21.32
  A 0.57 0.57 0.0 0 0 45.62 20.75
  L 20.40 20.75
  A 0.59 0.59 0.0 0 0 19.81 21.34
  L 19.81 46.90
  A 0.37 0.36 0.0 0 0 20.18 47.26
  L 24.05 47.26
  A 0.38 0.38 0.0 0 0 24.43 46.90
  Q 24.47 46.07 24.69 45.69
  Q 30.95 34.76 34.08 29.42
  A 0.76 0.75 34.3 0 0 33.89 28.44
  Q 33.10 27.84 31.98 27.43
  A 0.77 0.76 -65.1 0 1 31.58 26.33
  L 32.06 25.51
  A 0.80 0.79 -60.1 0 1 33.15 25.21
  L 35.76 26.72
  A 0.46 0.46 0.0 0 0 36.39 26.55
  L 38.68 22.60
  A 1.63 1.63 0.0 0 1 40.91 22.00
  L 41.25 22.19
  A 1.55 1.54 30.1 0 1 41.82 24.30
  L 39.56 28.21
  A 0.56 0.55 30.0 0 0 39.77 28.97
  L 42.39 30.48
  A 0.64 0.64 0.0 0 1 42.62 31.35
  L 42.04 32.36
  A 0.64 0.63 29.6 0 1 41.18 32.59
  L 38.99 31.33
  A 0.50 0.50 0.0 0 0 38.30 31.51
  L 29.51 46.73"
/>
</g>
<path fill="#1c3425" d="
  M 33.81 88.00
  L 33.04 88.00
  C 21.76 77.76 12.10 65.66 5.65 51.57
  Q 2.21 44.05 1.60 34.89
  C 0.54 18.99 11.23 5.61 26.48 2.12
  C 41.00 -1.21 55.70 5.85 62.47 19.46
  C 67.04 28.67 65.92 40.28 62.13 49.57
  C 56.13 64.27 45.47 77.35 33.81 88.00
  Z
  M 33.42 86.65
  Q 33.47 86.65 33.52 86.64
  A 0.25 0.05 -45.3 0 0 33.68 86.54
  C 44.91 76.39 56.08 62.25 61.36 48.14
  Q 65.49 37.12 63.73 27.32
  C 61.17 13.01 48.35 2.55 33.53 2.53
  C 18.71 2.51 5.86 12.93 3.26 27.24
  Q 1.48 37.04 5.58 48.07
  C 10.82 62.19 21.95 76.36 33.16 86.54
  A 0.25 0.05 45.4 0 0 33.31 86.64
  Q 33.36 86.65 33.42 86.65
  Z"
/>
<path fill="#39634a" d="
  M 33.53 2.53
  C 48.35 2.55 61.17 13.01 63.73 27.32
  Q 65.49 37.12 61.36 48.14
  C 56.08 62.25 44.91 76.39 33.68 86.54
  A 0.25 0.05 -45.3 0 1 33.52 86.64
  Q 33.47 86.65 33.42 86.65
  Q 33.36 86.65 33.31 86.64
  A 0.25 0.05 45.4 0 1 33.16 86.54
  C 21.95 76.36 10.82 62.19 5.58 48.07
  Q 1.48 37.04 3.26 27.24
  C 5.86 12.93 18.71 2.51 33.53 2.53
  Z
  M 49.50 18.44
  A 0.95 0.95 0.0 0 0 48.55 17.49
  L 17.45 17.49
  A 0.95 0.95 0.0 0 0 16.50 18.44
  L 16.50 49.54
  A 0.95 0.95 0.0 0 0 17.45 50.49
  L 48.55 50.49
  A 0.95 0.95 0.0 0 0 49.50 49.54
  L 49.50 18.44
  Z"
/>
<path fill="#ffffff" d="
  M 49.50 49.54
  A 0.95 0.95 0.0 0 1 48.55 50.49
  L 17.45 50.49
  A 0.95 0.95 0.0 0 1 16.50 49.54
  L 16.50 18.44
  A 0.95 0.95 0.0 0 1 17.45 17.49
  L 48.55 17.49
  A 0.95 0.95 0.0 0 1 49.50 18.44
  L 49.50 49.54
  Z
  M 29.51 46.73
  A 0.35 0.35 0.0 0 0 29.82 47.25
  L 45.65 47.25
  A 0.54 0.54 0.0 0 0 46.19 46.71
  L 46.19 21.32
  A 0.57 0.57 0.0 0 0 45.62 20.75
  L 20.40 20.75
  A 0.59 0.59 0.0 0 0 19.81 21.34
  L 19.81 46.90
  A 0.37 0.36 0.0 0 0 20.18 47.26
  L 24.05 47.26
  A 0.38 0.38 0.0 0 0 24.43 46.90
  Q 24.47 46.07 24.69 45.69
  Q 30.95 34.76 34.08 29.42
  A 0.76 0.75 34.3 0 0 33.89 28.44
  Q 33.10 27.84 31.98 27.43
  A 0.77 0.76 -65.1 0 1 31.58 26.33
  L 32.06 25.51
  A 0.80 0.79 -60.1 0 1 33.15 25.21
  L 35.76 26.72
  A 0.46 0.46 0.0 0 0 36.39 26.55
  L 38.68 22.60
  A 1.63 1.63 0.0 0 1 40.91 22.00
  L 41.25 22.19
  A 1.55 1.54 30.1 0 1 41.82 24.30
  L 39.56 28.21
  A 0.56 0.55 30.0 0 0 39.77 28.97
  L 42.39 30.48
  A 0.64 0.64 0.0 0 1 42.62 31.35
  L 42.04 32.36
  A 0.64 0.63 29.6 0 1 41.18 32.59
  L 38.99 31.33
  A 0.50 0.50 0.0 0 0 38.30 31.51
  L 29.51 46.73
  Z"
/>
<path fill="#39634a" d="
  M 29.51 46.73
  L 38.30 31.51
  A 0.50 0.50 0.0 0 1 38.99 31.33
  L 41.18 32.59
  A 0.64 0.63 29.6 0 0 42.04 32.36
  L 42.62 31.35
  A 0.64 0.64 0.0 0 0 42.39 30.48
  L 39.77 28.97
  A 0.56 0.55 30.0 0 1 39.56 28.21
  L 41.82 24.30
  A 1.55 1.54 30.1 0 0 41.25 22.19
  L 40.91 22.00
  A 1.63 1.63 0.0 0 0 38.68 22.60
  L 36.39 26.55
  A 0.46 0.46 0.0 0 1 35.76 26.72
  L 33.15 25.21
  A 0.80 0.79 -60.1 0 0 32.06 25.51
  L 31.58 26.33
  A 0.77 0.76 -65.1 0 0 31.98 27.43
  Q 33.10 27.84 33.89 28.44
  A 0.76 0.75 34.3 0 1 34.08 29.42
  Q 30.95 34.76 24.69 45.69
  Q 24.47 46.07 24.43 46.90
  A 0.38 0.38 0.0 0 1 24.05 47.26
  L 20.18 47.26
  A 0.37 0.36 -0.0 0 1 19.81 46.90
  L 19.81 21.34
  A 0.59 0.59 0.0 0 1 20.40 20.75
  L 45.62 20.75
  A 0.57 0.57 0.0 0 1 46.19 21.32
  L 46.19 46.71
  A 0.54 0.54 0.0 0 1 45.65 47.25
  L 29.82 47.25
  A 0.35 0.35 0.0 0 1 29.51 46.73
  Z"
/>
</svg>
