<?xml version="1.0" encoding="UTF-8" standalone="no"?>
<!DOCTYPE svg PUBLIC "-//W3C//DTD SVG 1.1//EN" "http://www.w3.org/Graphics/SVG/1.1/DTD/svg11.dtd">
<svg xmlns="http://www.w3.org/2000/svg" version="1.1" viewBox="0.00 0.00 66.00 88.00">
<g stroke-width="2.00" fill="none" stroke-linecap="butt">
<path stroke="#441a44" vector-effect="non-scaling-stroke" d="
  M 33.42 86.52
  Q 33.71 86.52 33.89 86.36
  C 49.89 71.52 72.30 43.20 61.35 19.96
  C 56.46 9.56 46.21 3.19 34.75 2.51
  Q 34.03 2.47 33.50 2.47
  Q 32.97 2.47 32.24 2.51
  C 20.78 3.17 10.52 9.52 5.61 19.91
  C -5.38 43.13 16.98 71.49 32.95 86.36
  Q 33.13 86.52 33.42 86.52"
/>
<path stroke="#ac91ac" vector-effect="non-scaling-stroke" d="
  M 20.91 52.13
  Q 21.37 52.41 22.43 51.64
  C 28.47 47.26 32.86 39.85 35.89 33.23
  A 0.58 0.57 32.1 0 1 36.78 33.03
  Q 38.17 34.15 39.16 34.21
  A 0.77 0.77 0.0 0 0 39.65 32.81
  L 37.01 30.95
  A 0.65 0.65 0.0 0 1 36.85 30.05
  L 44.16 19.68
  A 1.30 1.25 68.4 0 0 44.38 19.14
  Q 44.70 17.10 43.09 16.10
  Q 41.48 15.11 39.79 16.32
  A 1.30 1.25 -5.1 0 0 39.41 16.76
  L 33.45 27.95
  A 0.65 0.65 0.0 0 1 32.57 28.22
  L 29.72 26.70
  A 0.77 0.77 0.0 0 0 28.69 27.77
  Q 29.19 28.62 30.82 29.36
  A 0.58 0.57 31.1 0 1 31.04 30.24
  C 26.49 35.93 21.86 43.19 20.67 50.56
  Q 20.46 51.85 20.91 52.13"
/>
</g>
<path fill="#2f112e" d="
  M 33.80 88.00
  L 33.04 88.00
  C 21.72 77.71 12.19 65.75 5.68 51.55
  Q 2.13 43.81 1.57 34.89
  C 0.57 18.86 11.16 5.76 26.64 2.05
  C 37.29 -0.50 49.59 3.32 57.11 11.61
  C 79.51 36.28 52.21 71.24 33.80 88.00
  Z
  M 33.42 86.52
  Q 33.71 86.52 33.89 86.36
  C 49.89 71.52 72.30 43.20 61.35 19.96
  C 56.46 9.56 46.21 3.19 34.75 2.51
  Q 34.03 2.47 33.50 2.47
  Q 32.97 2.47 32.24 2.51
  C 20.78 3.17 10.52 9.52 5.61 19.91
  C -5.38 43.13 16.98 71.49 32.95 86.36
  Q 33.13 86.52 33.42 86.52
  Z"
/>
<path fill="#582359" d="
  M 33.50 2.47
  Q 34.03 2.47 34.75 2.51
  C 46.21 3.19 56.46 9.56 61.35 19.96
  C 72.30 43.20 49.89 71.52 33.89 86.36
  Q 33.71 86.52 33.42 86.52
  Q 33.13 86.52 32.95 86.36
  C 16.98 71.49 -5.38 43.13 5.61 19.91
  C 10.52 9.52 20.78 3.17 32.24 2.51
  Q 32.97 2.47 33.50 2.47
  Z
  M 20.91 52.13
  Q 21.37 52.41 22.43 51.64
  C 28.47 47.26 32.86 39.85 35.89 33.23
  A 0.58 0.57 32.1 0 1 36.78 33.03
  Q 38.17 34.15 39.16 34.21
  A 0.77 0.77 0.0 0 0 39.65 32.81
  L 37.01 30.95
  A 0.65 0.65 0.0 0 1 36.85 30.05
  L 44.16 19.68
  A 1.30 1.25 68.4 0 0 44.38 19.14
  Q 44.70 17.10 43.09 16.10
  Q 41.48 15.11 39.79 16.32
  A 1.30 1.25 -5.1 0 0 39.41 16.76
  L 33.45 27.95
  A 0.65 0.65 0.0 0 1 32.57 28.22
  L 29.72 26.70
  A 0.77 0.77 0.0 0 0 28.69 27.77
  Q 29.19 28.62 30.82 29.36
  A 0.58 0.57 31.1 0 1 31.04 30.24
  C 26.49 35.93 21.86 43.19 20.67 50.56
  Q 20.46 51.85 20.91 52.13
  Z"
/>
<path fill="#ffffff" d="
  M 43.09 16.10
  Q 44.70 17.10 44.38 19.14
  A 1.30 1.25 68.4 0 1 44.16 19.68
  L 36.85 30.05
  A 0.65 0.65 0.0 0 0 37.01 30.95
  L 39.65 32.81
  A 0.77 0.77 0.0 0 1 39.16 34.21
  Q 38.17 34.15 36.78 33.03
  A 0.58 0.57 32.1 0 0 35.89 33.23
  C 32.86 39.85 28.47 47.26 22.43 51.64
  Q 21.37 52.41 20.91 52.13
  Q 20.46 51.85 20.67 50.56
  C 21.86 43.19 26.49 35.93 31.04 30.24
  A 0.58 0.57 31.1 0 0 30.82 29.36
  Q 29.19 28.62 28.69 27.77
  A 0.77 0.77 0.0 0 1 29.72 26.70
  L 32.57 28.22
  A 0.65 0.65 0.0 0 0 33.45 27.95
  L 39.41 16.76
  A 1.30 1.25 -5.1 0 1 39.79 16.32
  Q 41.48 15.11 43.09 16.10
  Z"
/>
</svg>
