<?xml version="1.0" encoding="UTF-8" standalone="no"?>
<!DOCTYPE svg PUBLIC "-//W3C//DTD SVG 1.1//EN" "http://www.w3.org/Graphics/SVG/1.1/DTD/svg11.dtd">
<svg xmlns="http://www.w3.org/2000/svg" version="1.1" viewBox="0.00 0.00 66.00 88.00">
<g stroke-width="2.00" fill="none" stroke-linecap="butt">
<path stroke="#282a22" vector-effect="non-scaling-stroke" d="
  M 33.38 86.56
  Q 33.60 86.56 34.07 86.11
  Q 48.13 72.87 56.39 58.62
  C 64.01 45.47 68.64 27.69 58.04 14.69
  C 51.73 6.95 43.62 2.64 33.56 2.62
  C 23.49 2.60 15.36 6.88 9.02 14.59
  C -1.63 27.55 2.93 45.34 10.49 58.53
  Q 18.69 72.81 32.70 86.11
  Q 33.17 86.56 33.38 86.56"
/>
<path stroke="#9a9b96" vector-effect="non-scaling-stroke" d="
  M 33.01 47.50
  Q 38.93 47.50 38.96 47.52
  A 0.24 0.24 0.0 0 0 39.32 47.36
  L 40.77 38.61
  A 1.11 1.10 27.6 0 0 40.47 37.66
  L 39.44 36.64
  A 1.50 1.50 0.0 0 1 39.00 35.58
  L 39.00 30.07
  A 0.56 0.56 0.0 0 1 39.56 29.51
  L 45.74 29.51
  A 0.59 0.59 0.0 0 0 46.33 28.92
  L 46.33 21.91
  A 0.70 0.69 0.0 0 0 45.63 21.22
  L 44.69 21.22
  A 0.68 0.68 0.0 0 0 44.01 21.90
  L 44.01 23.86
  A 0.76 0.75 0.0 0 1 43.25 24.61
  L 42.96 24.61
  A 0.63 0.62 -0.0 0 1 42.33 23.99
  L 42.33 21.93
  A 0.63 0.63 0.0 0 0 41.81 21.31
  L 40.86 21.15
  A 0.77 0.76 -85.3 0 0 39.97 21.91
  L 39.97 23.86
  A 0.76 0.76 0.0 0 1 39.21 24.62
  L 38.95 24.62
  A 0.69 0.69 0.0 0 1 38.26 23.93
  L 38.26 21.92
  A 0.71 0.71 0.0 0 0 37.55 21.21
  L 36.66 21.21
  A 0.75 0.74 -0.0 0 0 35.91 21.95
  L 35.91 23.82
  A 0.76 0.76 0.0 0 1 35.15 24.58
  L 34.66 24.58
  A 0.50 0.49 3.9 0 1 34.17 24.02
  Q 34.57 20.90 33.02 21.20
  Q 31.47 20.90 31.87 24.02
  A 0.50 0.49 -3.9 0 1 31.38 24.58
  L 30.89 24.58
  A 0.76 0.76 0.0 0 1 30.13 23.82
  L 30.13 21.95
  A 0.75 0.74 0.1 0 0 29.39 21.21
  L 28.50 21.20
  A 0.71 0.71 0.0 0 0 27.78 21.91
  L 27.78 23.92
  A 0.69 0.69 0.0 0 1 27.09 24.61
  L 26.83 24.61
  A 0.76 0.76 0.0 0 1 26.07 23.85
  L 26.07 21.90
  A 0.77 0.76 85.3 0 0 25.19 21.14
  L 24.24 21.30
  A 0.63 0.63 0.0 0 0 23.71 21.92
  L 23.71 23.98
  A 0.63 0.62 0.1 0 1 23.08 24.60
  L 22.79 24.60
  A 0.76 0.75 0.1 0 1 22.03 23.85
  L 22.03 21.89
  A 0.68 0.68 0.0 0 0 21.36 21.21
  L 20.42 21.20
  A 0.70 0.69 0.1 0 0 19.71 21.89
  L 19.71 28.90
  A 0.59 0.59 0.0 0 0 20.30 29.49
  L 26.48 29.50
  A 0.56 0.56 0.0 0 1 27.03 30.06
  L 27.03 35.57
  A 1.50 1.50 0.0 0 1 26.59 36.63
  L 25.55 37.65
  A 1.11 1.10 -27.5 0 0 25.25 38.60
  L 26.69 47.35
  A 0.24 0.24 0.0 0 0 27.06 47.51
  Q 27.08 47.50 33.01 47.50"
/>
<path stroke="#9a9b96" vector-effect="non-scaling-stroke" d="
  M 19.66 47.50
  Q 23.46 47.51 23.69 47.45
  A 0.68 0.67 -12.5 0 0 24.18 46.68
  L 22.61 37.42
  A 0.78 0.48 -58.3 0 1 22.61 37.25
  Q 22.69 36.29 24.04 35.85
  A 0.90 0.89 81.0 0 0 24.65 35.00
  L 24.65 31.50
  A 0.50 0.49 90.0 0 0 24.16 31.00
  L 22.78 31.00
  A 0.51 0.50 -0.0 0 0 22.27 31.50
  L 22.27 32.52
  A 0.47 0.47 0.0 0 1 21.80 32.99
  L 21.24 32.99
  A 0.39 0.39 0.0 0 1 20.86 32.51
  Q 21.26 30.76 19.68 30.99
  Q 18.11 30.76 18.51 32.51
  A 0.39 0.39 0.0 0 1 18.13 32.99
  L 17.57 32.98
  A 0.47 0.47 0.0 0 1 17.10 32.51
  L 17.10 31.49
  A 0.51 0.50 0.2 0 0 16.59 30.99
  L 15.21 30.98
  A 0.50 0.49 -89.8 0 0 14.72 31.48
  L 14.71 34.98
  A 0.90 0.89 -80.8 0 0 15.31 35.84
  Q 16.66 36.28 16.74 37.24
  A 0.78 0.48 58.5 0 1 16.74 37.41
  L 15.15 46.67
  A 0.68 0.67 12.7 0 0 15.64 47.44
  Q 15.86 47.50 19.66 47.50"
/>
<path stroke="#9a9b96" vector-effect="non-scaling-stroke" d="
  M 46.38 47.50
  Q 50.18 47.51 50.41 47.45
  A 0.68 0.67 -12.5 0 0 50.90 46.68
  L 49.34 37.42
  A 0.78 0.48 -58.3 0 1 49.34 37.25
  Q 49.42 36.29 50.77 35.85
  A 0.90 0.89 81.0 0 0 51.38 35.00
  L 51.38 31.50
  A 0.50 0.49 90.0 0 0 50.89 31.00
  L 49.51 31.00
  A 0.51 0.50 -0.0 0 0 49.00 31.50
  L 49.00 32.52
  A 0.47 0.47 0.0 0 1 48.53 32.99
  L 47.97 32.99
  A 0.39 0.39 0.0 0 1 47.59 32.51
  Q 47.99 30.76 46.41 30.99
  Q 44.84 30.76 45.24 32.51
  A 0.39 0.39 0.0 0 1 44.86 32.98
  L 44.30 32.98
  A 0.47 0.47 0.0 0 1 43.83 32.51
  L 43.83 31.49
  A 0.51 0.50 0.2 0 0 43.32 30.99
  L 41.94 30.98
  A 0.50 0.49 -89.8 0 0 41.45 31.48
  L 41.44 34.98
  A 0.90 0.89 -80.8 0 0 42.04 35.83
  Q 43.39 36.28 43.47 37.24
  A 0.78 0.48 58.5 0 1 43.47 37.41
  L 41.87 46.66
  A 0.68 0.67 12.7 0 0 42.36 47.43
  Q 42.58 47.49 46.38 47.50"
/>
<path stroke="#9a9b96" vector-effect="non-scaling-stroke" d="
  M 31.23 35.48
  L 34.85 35.48
  A 0.32 0.32 0.0 0 0 35.17 35.16
  L 35.16 30.60
  A 1.98 1.96 89.9 0 0 33.19 28.62
  L 32.85 28.62
  A 1.98 1.96 89.9 0 0 30.90 30.60
  L 30.91 35.16
  A 0.32 0.32 0.0 0 0 31.23 35.48"
/>
</g>
<path fill="#1c1e18" d="
  M 33.79 88.00
  L 33.04 88.00
  C 21.76 77.76 12.11 65.66 5.64 51.56
  Q 2.20 44.06 1.59 34.89
  C 0.53 18.97 11.20 5.67 26.51 2.10
  C 41.05 -1.29 56.08 6.03 62.68 19.93
  C 66.94 28.89 65.90 40.01 62.33 49.06
  C 56.49 63.88 45.54 77.35 33.79 88.00
  Z
  M 33.38 86.56
  Q 33.60 86.56 34.07 86.11
  Q 48.13 72.87 56.39 58.62
  C 64.01 45.47 68.64 27.69 58.04 14.69
  C 51.73 6.95 43.62 2.64 33.56 2.62
  C 23.49 2.60 15.36 6.88 9.02 14.59
  C -1.63 27.55 2.93 45.34 10.49 58.53
  Q 18.69 72.81 32.70 86.11
  Q 33.17 86.56 33.38 86.56
  Z"
/>
<path fill="#34362c" d="
  M 33.38 86.56
  Q 33.17 86.56 32.70 86.11
  Q 18.69 72.81 10.49 58.53
  C 2.93 45.34 -1.63 27.55 9.02 14.59
  C 15.36 6.88 23.49 2.60 33.56 2.62
  C 43.62 2.64 51.73 6.95 58.04 14.69
  C 68.64 27.69 64.01 45.47 56.39 58.62
  Q 48.13 72.87 34.07 86.11
  Q 33.60 86.56 33.38 86.56
  Z
  M 33.01 47.50
  Q 38.93 47.50 38.96 47.52
  A 0.24 0.24 0.0 0 0 39.32 47.36
  L 40.77 38.61
  A 1.11 1.10 27.6 0 0 40.47 37.66
  L 39.44 36.64
  A 1.50 1.50 0.0 0 1 39.00 35.58
  L 39.00 30.07
  A 0.56 0.56 0.0 0 1 39.56 29.51
  L 45.74 29.51
  A 0.59 0.59 0.0 0 0 46.33 28.92
  L 46.33 21.91
  A 0.70 0.69 0.0 0 0 45.63 21.22
  L 44.69 21.22
  A 0.68 0.68 0.0 0 0 44.01 21.90
  L 44.01 23.86
  A 0.76 0.75 0.0 0 1 43.25 24.61
  L 42.96 24.61
  A 0.63 0.62 -0.0 0 1 42.33 23.99
  L 42.33 21.93
  A 0.63 0.63 0.0 0 0 41.81 21.31
  L 40.86 21.15
  A 0.77 0.76 -85.3 0 0 39.97 21.91
  L 39.97 23.86
  A 0.76 0.76 0.0 0 1 39.21 24.62
  L 38.95 24.62
  A 0.69 0.69 0.0 0 1 38.26 23.93
  L 38.26 21.92
  A 0.71 0.71 0.0 0 0 37.55 21.21
  L 36.66 21.21
  A 0.75 0.74 -0.0 0 0 35.91 21.95
  L 35.91 23.82
  A 0.76 0.76 0.0 0 1 35.15 24.58
  L 34.66 24.58
  A 0.50 0.49 3.9 0 1 34.17 24.02
  Q 34.57 20.90 33.02 21.20
  Q 31.47 20.90 31.87 24.02
  A 0.50 0.49 -3.9 0 1 31.38 24.58
  L 30.89 24.58
  A 0.76 0.76 0.0 0 1 30.13 23.82
  L 30.13 21.95
  A 0.75 0.74 0.1 0 0 29.39 21.21
  L 28.50 21.20
  A 0.71 0.71 0.0 0 0 27.78 21.91
  L 27.78 23.92
  A 0.69 0.69 0.0 0 1 27.09 24.61
  L 26.83 24.61
  A 0.76 0.76 0.0 0 1 26.07 23.85
  L 26.07 21.90
  A 0.77 0.76 85.3 0 0 25.19 21.14
  L 24.24 21.30
  A 0.63 0.63 0.0 0 0 23.71 21.92
  L 23.71 23.98
  A 0.63 0.62 0.1 0 1 23.08 24.60
  L 22.79 24.60
  A 0.76 0.75 0.1 0 1 22.03 23.85
  L 22.03 21.89
  A 0.68 0.68 0.0 0 0 21.36 21.21
  L 20.42 21.20
  A 0.70 0.69 0.1 0 0 19.71 21.89
  L 19.71 28.90
  A 0.59 0.59 0.0 0 0 20.30 29.49
  L 26.48 29.50
  A 0.56 0.56 0.0 0 1 27.03 30.06
  L 27.03 35.57
  A 1.50 1.50 0.0 0 1 26.59 36.63
  L 25.55 37.65
  A 1.11 1.10 -27.5 0 0 25.25 38.60
  L 26.69 47.35
  A 0.24 0.24 0.0 0 0 27.06 47.51
  Q 27.08 47.50 33.01 47.50
  Z
  M 19.66 47.50
  Q 23.46 47.51 23.69 47.45
  A 0.68 0.67 -12.5 0 0 24.18 46.68
  L 22.61 37.42
  A 0.78 0.48 -58.3 0 1 22.61 37.25
  Q 22.69 36.29 24.04 35.85
  A 0.90 0.89 81.0 0 0 24.65 35.00
  L 24.65 31.50
  A 0.50 0.49 90.0 0 0 24.16 31.00
  L 22.78 31.00
  A 0.51 0.50 -0.0 0 0 22.27 31.50
  L 22.27 32.52
  A 0.47 0.47 0.0 0 1 21.80 32.99
  L 21.24 32.99
  A 0.39 0.39 0.0 0 1 20.86 32.51
  Q 21.26 30.76 19.68 30.99
  Q 18.11 30.76 18.51 32.51
  A 0.39 0.39 0.0 0 1 18.13 32.99
  L 17.57 32.98
  A 0.47 0.47 0.0 0 1 17.10 32.51
  L 17.10 31.49
  A 0.51 0.50 0.2 0 0 16.59 30.99
  L 15.21 30.98
  A 0.50 0.49 -89.8 0 0 14.72 31.48
  L 14.71 34.98
  A 0.90 0.89 -80.8 0 0 15.31 35.84
  Q 16.66 36.28 16.74 37.24
  A 0.78 0.48 58.5 0 1 16.74 37.41
  L 15.15 46.67
  A 0.68 0.67 12.7 0 0 15.64 47.44
  Q 15.86 47.50 19.66 47.50
  Z
  M 46.38 47.50
  Q 50.18 47.51 50.41 47.45
  A 0.68 0.67 -12.5 0 0 50.90 46.68
  L 49.34 37.42
  A 0.78 0.48 -58.3 0 1 49.34 37.25
  Q 49.42 36.29 50.77 35.85
  A 0.90 0.89 81.0 0 0 51.38 35.00
  L 51.38 31.50
  A 0.50 0.49 90.0 0 0 50.89 31.00
  L 49.51 31.00
  A 0.51 0.50 -0.0 0 0 49.00 31.50
  L 49.00 32.52
  A 0.47 0.47 0.0 0 1 48.53 32.99
  L 47.97 32.99
  A 0.39 0.39 0.0 0 1 47.59 32.51
  Q 47.99 30.76 46.41 30.99
  Q 44.84 30.76 45.24 32.51
  A 0.39 0.39 0.0 0 1 44.86 32.98
  L 44.30 32.98
  A 0.47 0.47 0.0 0 1 43.83 32.51
  L 43.83 31.49
  A 0.51 0.50 0.2 0 0 43.32 30.99
  L 41.94 30.98
  A 0.50 0.49 -89.8 0 0 41.45 31.48
  L 41.44 34.98
  A 0.90 0.89 -80.8 0 0 42.04 35.83
  Q 43.39 36.28 43.47 37.24
  A 0.78 0.48 58.5 0 1 43.47 37.41
  L 41.87 46.66
  A 0.68 0.67 12.7 0 0 42.36 47.43
  Q 42.58 47.49 46.38 47.50
  Z"
/>
<path fill="#ffffff" d="
  M 33.02 21.20
  Q 34.57 20.90 34.17 24.02
  A 0.50 0.49 3.9 0 0 34.66 24.58
  L 35.15 24.58
  A 0.76 0.76 0.0 0 0 35.91 23.82
  L 35.91 21.95
  A 0.75 0.74 0.0 0 1 36.66 21.21
  L 37.55 21.21
  A 0.71 0.71 0.0 0 1 38.26 21.92
  L 38.26 23.93
  A 0.69 0.69 0.0 0 0 38.95 24.62
  L 39.21 24.62
  A 0.76 0.76 0.0 0 0 39.97 23.86
  L 39.97 21.91
  A 0.77 0.76 -85.3 0 1 40.86 21.15
  L 41.81 21.31
  A 0.63 0.63 0.0 0 1 42.33 21.93
  L 42.33 23.99
  A 0.63 0.62 0.0 0 0 42.96 24.61
  L 43.25 24.61
  A 0.76 0.75 0.0 0 0 44.01 23.86
  L 44.01 21.90
  A 0.68 0.68 0.0 0 1 44.69 21.22
  L 45.63 21.22
  A 0.70 0.69 -0.0 0 1 46.33 21.91
  L 46.33 28.92
  A 0.59 0.59 0.0 0 1 45.74 29.51
  L 39.56 29.51
  A 0.56 0.56 0.0 0 0 39.00 30.07
  L 39.00 35.58
  A 1.50 1.50 0.0 0 0 39.44 36.64
  L 40.47 37.66
  A 1.11 1.10 27.6 0 1 40.77 38.61
  L 39.32 47.36
  A 0.24 0.24 0.0 0 1 38.96 47.52
  Q 38.93 47.50 33.01 47.50
  Q 27.08 47.50 27.06 47.51
  A 0.24 0.24 0.0 0 1 26.69 47.35
  L 25.25 38.60
  A 1.11 1.10 -27.5 0 1 25.55 37.65
  L 26.59 36.63
  A 1.50 1.50 0.0 0 0 27.03 35.57
  L 27.03 30.06
  A 0.56 0.56 0.0 0 0 26.48 29.50
  L 20.30 29.49
  A 0.59 0.59 0.0 0 1 19.71 28.90
  L 19.71 21.89
  A 0.70 0.69 0.1 0 1 20.42 21.20
  L 21.36 21.21
  A 0.68 0.68 0.0 0 1 22.03 21.89
  L 22.03 23.85
  A 0.76 0.75 0.1 0 0 22.79 24.60
  L 23.08 24.60
  A 0.63 0.62 0.1 0 0 23.71 23.98
  L 23.71 21.92
  A 0.63 0.63 0.0 0 1 24.24 21.30
  L 25.19 21.14
  A 0.77 0.76 85.3 0 1 26.07 21.90
  L 26.07 23.85
  A 0.76 0.76 0.0 0 0 26.83 24.61
  L 27.09 24.61
  A 0.69 0.69 0.0 0 0 27.78 23.92
  L 27.78 21.91
  A 0.71 0.71 0.0 0 1 28.50 21.20
  L 29.39 21.21
  A 0.75 0.74 0.1 0 1 30.13 21.95
  L 30.13 23.82
  A 0.76 0.76 0.0 0 0 30.89 24.58
  L 31.38 24.58
  A 0.50 0.49 -3.9 0 0 31.87 24.02
  Q 31.47 20.90 33.02 21.20
  Z
  M 31.23 35.48
  L 34.85 35.48
  A 0.32 0.32 0.0 0 0 35.17 35.16
  L 35.16 30.60
  A 1.98 1.96 89.9 0 0 33.19 28.62
  L 32.85 28.62
  A 1.98 1.96 89.9 0 0 30.90 30.60
  L 30.91 35.16
  A 0.32 0.32 0.0 0 0 31.23 35.48
  Z"
/>
<path fill="#34362c" d="
  M 31.23 35.48
  A 0.32 0.32 0.0 0 1 30.91 35.16
  L 30.90 30.60
  A 1.98 1.96 89.9 0 1 32.85 28.62
  L 33.19 28.62
  A 1.98 1.96 89.9 0 1 35.16 30.60
  L 35.17 35.16
  A 0.32 0.32 0.0 0 1 34.85 35.48
  L 31.23 35.48
  Z"
/>
<path fill="#ffffff" d="
  M 19.66 47.50
  Q 15.86 47.50 15.64 47.44
  A 0.68 0.67 12.7 0 1 15.15 46.67
  L 16.74 37.41
  A 0.78 0.48 58.5 0 0 16.74 37.24
  Q 16.66 36.28 15.31 35.84
  A 0.90 0.89 -80.8 0 1 14.71 34.98
  L 14.72 31.48
  A 0.50 0.49 -89.8 0 1 15.21 30.98
  L 16.59 30.99
  A 0.51 0.50 0.2 0 1 17.10 31.49
  L 17.10 32.51
  A 0.47 0.47 0.0 0 0 17.57 32.98
  L 18.13 32.99
  A 0.39 0.39 0.0 0 0 18.51 32.51
  Q 18.11 30.76 19.68 30.99
  Q 21.26 30.76 20.86 32.51
  A 0.39 0.39 0.0 0 0 21.24 32.99
  L 21.80 32.99
  A 0.47 0.47 0.0 0 0 22.27 32.52
  L 22.27 31.50
  A 0.51 0.50 -0.0 0 1 22.78 31.00
  L 24.16 31.00
  A 0.50 0.49 90.0 0 1 24.65 31.50
  L 24.65 35.00
  A 0.90 0.89 81.0 0 1 24.04 35.85
  Q 22.69 36.29 22.61 37.25
  A 0.78 0.48 -58.3 0 0 22.61 37.42
  L 24.18 46.68
  A 0.68 0.67 -12.5 0 1 23.69 47.45
  Q 23.46 47.51 19.66 47.50
  Z"
/>
<path fill="#ffffff" d="
  M 46.41 30.99
  Q 47.99 30.76 47.59 32.51
  A 0.39 0.39 0.0 0 0 47.97 32.99
  L 48.53 32.99
  A 0.47 0.47 0.0 0 0 49.00 32.52
  L 49.00 31.50
  A 0.51 0.50 -0.0 0 1 49.51 31.00
  L 50.89 31.00
  A 0.50 0.49 -90.0 0 1 51.38 31.50
  L 51.38 35.00
  A 0.90 0.89 81.0 0 1 50.77 35.85
  Q 49.42 36.29 49.34 37.25
  A 0.78 0.48 -58.3 0 0 49.34 37.42
  L 50.90 46.68
  A 0.68 0.67 -12.5 0 1 50.41 47.45
  Q 50.18 47.51 46.38 47.50
  Q 42.58 47.49 42.36 47.43
  A 0.68 0.67 12.7 0 1 41.87 46.66
  L 43.47 37.41
  A 0.78 0.48 58.5 0 0 43.47 37.24
  Q 43.39 36.28 42.04 35.83
  A 0.90 0.89 -80.8 0 1 41.44 34.98
  L 41.45 31.48
  A 0.50 0.49 -89.8 0 1 41.94 30.98
  L 43.32 30.99
  A 0.51 0.50 0.2 0 1 43.83 31.49
  L 43.83 32.51
  A 0.47 0.47 0.0 0 0 44.30 32.98
  L 44.86 32.98
  A 0.39 0.39 0.0 0 0 45.24 32.51
  Q 44.84 30.76 46.41 30.99
  Z"
/>
</svg>
