<?xml version="1.0" encoding="UTF-8" standalone="no"?>
<!DOCTYPE svg PUBLIC "-//W3C//DTD SVG 1.1//EN" "http://www.w3.org/Graphics/SVG/1.1/DTD/svg11.dtd">
<svg xmlns="http://www.w3.org/2000/svg" version="1.1" viewBox="0.00 0.00 66.00 88.00">
<g stroke-width="2.00" fill="none" stroke-linecap="butt">
<path stroke="#464544" vector-effect="non-scaling-stroke" d="
  M 33.42 86.61
  C 33.72 86.61 33.67 86.62 33.82 86.48
  Q 48.56 72.88 57.72 56.25
  C 64.43 44.07 67.51 28.30 59.37 16.40
  Q 50.46 3.40 34.49 2.55
  Q 33.79 2.51 33.53 2.51
  Q 33.26 2.51 32.56 2.54
  Q 16.59 3.36 7.65 16.33
  C -0.52 28.21 2.52 43.99 9.19 56.19
  Q 18.31 72.84 33.01 86.48
  C 33.16 86.62 33.12 86.61 33.42 86.61"
/>
<path stroke="#aeadad" vector-effect="non-scaling-stroke" d="
  M 37.57 25.41
  Q 37.33 25.75 36.57 25.84
  A 0.74 0.73 -3.0 0 0 35.91 26.57
  L 35.91 28.37
  A 0.82 0.81 11.4 0 0 36.41 29.12
  Q 38.27 29.90 40.19 28.46
  A 0.90 0.90 0.0 0 0 40.55 27.74
  L 40.55 25.04
  A 1.34 1.32 -20.5 0 1 41.02 24.03
  C 44.57 20.98 42.37 15.66 37.38 16.74
  A 1.43 1.40 13.9 0 0 36.60 17.20
  L 33.93 20.35
  A 1.25 1.21 -25.5 0 0 33.63 21.15
  L 33.63 23.71
  A 0.77 0.76 -81.2 0 0 34.16 24.44
  Q 36.39 25.16 37.27 24.96
  A 0.29 0.29 0.0 0 1 37.57 25.41"
/>
<path stroke="#aeadad" vector-effect="non-scaling-stroke" d="
  M 15.68 29.28
  A 1.79 1.78 -76.2 0 0 16.63 30.86
  Q 18.63 31.92 21.29 33.76
  Q 25.23 36.50 29.44 34.33
  A 0.89 0.89 0.0 0 0 29.83 33.15
  L 28.44 30.26
  A 0.45 0.44 -25.7 0 0 27.85 30.06
  L 25.41 31.24
  A 1.35 1.32 -47.0 0 1 24.36 31.29
  Q 19.44 29.41 16.72 26.29
  A 0.59 0.59 0.0 0 0 15.68 26.68
  L 15.68 29.28"
/>
<path stroke="#aeadad" vector-effect="non-scaling-stroke" d="
  M 45.82 43.70
  L 38.27 47.36
  A 0.61 0.60 45.5 0 1 37.73 47.35
  Q 34.87 45.89 35.81 42.58
  A 0.75 0.75 0.0 0 1 36.56 42.03
  C 39.98 42.12 42.17 41.91 44.05 38.98
  A 0.89 0.89 0.0 0 0 43.94 37.87
  L 41.59 35.53
  A 0.85 0.85 0.0 0 0 40.66 35.34
  Q 35.39 37.50 32.41 32.16
  Q 31.34 30.24 31.35 30.07
  A 0.31 0.31 0.0 0 1 31.94 29.95
  C 33.57 33.12 36.59 35.43 40.33 33.54
  Q 40.83 33.28 46.22 29.76
  A 0.30 0.30 0.0 0 0 46.16 29.23
  L 43.02 28.04
  A 0.90 0.89 28.9 0 0 42.00 28.33
  Q 39.25 31.92 35.54 29.98
  A 0.99 0.97 -89.3 0 1 35.12 29.54
  L 34.63 28.54
  A 0.34 0.34 0.0 0 0 34.24 28.36
  L 29.86 29.37
  A 0.34 0.33 -20.5 0 0 29.64 29.85
  Q 32.66 35.53 33.13 41.66
  A 0.73 0.63 -40.9 0 1 33.09 41.94
  L 29.92 50.36
  A 0.33 0.33 0.0 0 0 30.18 50.80
  Q 38.78 52.17 47.33 50.58
  A 0.25 0.25 0.0 0 0 47.53 50.28
  L 46.04 43.81
  A 0.16 0.16 0.0 0 0 45.82 43.70"
/>
<path stroke="#aeadad" vector-effect="non-scaling-stroke" d="
  M 47.62 33.00
  Q 47.66 31.89 47.13 31.27
  A 0.47 0.46 -69.4 0 0 46.32 31.64
  Q 46.34 31.79 47.22 33.11
  A 0.22 0.22 0.0 0 0 47.62 33.00"
/>
<path stroke="#aeadad" vector-effect="non-scaling-stroke" d="
  M 42.69 34.01
  A 0.39 0.38 -42.0 0 0 42.66 34.51
  L 45.03 37.49
  A 1.06 1.05 -24.2 0 0 46.04 37.87
  Q 46.22 37.81 46.45 37.83
  A 0.34 0.33 -66.3 0 1 46.67 38.40
  Q 43.34 41.88 40.23 43.12
  A 1.09 0.92 27.9 0 1 39.91 43.19
  L 37.36 43.27
  A 0.61 0.61 0.0 0 0 36.77 43.86
  Q 36.72 45.16 37.66 45.76
  A 1.03 1.01 47.8 0 0 38.64 45.82
  L 48.96 40.83
  A 0.93 0.92 66.6 0 0 49.42 39.66
  Q 47.86 35.65 44.79 32.53
  A 0.43 0.42 -44.5 0 0 44.18 32.53
  L 42.69 34.01"
/>
</g>
<path fill="#2f2f2e" d="
  M 33.81 88.00
  L 33.04 88.00
  C 16.92 73.35 -5.81 44.88 3.69 21.31
  C 8.39 9.63 19.33 2.05 31.98 1.37
  C 44.64 0.69 57.11 7.94 62.48 19.42
  Q 65.79 26.51 65.42 34.46
  Q 65.05 42.32 62.13 49.56
  C 56.19 64.24 45.43 77.39 33.81 88.00
  Z
  M 33.42 86.61
  C 33.72 86.61 33.67 86.62 33.82 86.48
  Q 48.56 72.88 57.72 56.25
  C 64.43 44.07 67.51 28.30 59.37 16.40
  Q 50.46 3.40 34.49 2.55
  Q 33.79 2.51 33.53 2.51
  Q 33.26 2.51 32.56 2.54
  Q 16.59 3.36 7.65 16.33
  C -0.52 28.21 2.52 43.99 9.19 56.19
  Q 18.31 72.84 33.01 86.48
  C 33.16 86.62 33.12 86.61 33.42 86.61
  Z"
/>
<path fill="#5c5a5a" d="
  M 33.53 2.51
  Q 33.79 2.51 34.49 2.55
  Q 50.46 3.40 59.37 16.40
  C 67.51 28.30 64.43 44.07 57.72 56.25
  Q 48.56 72.88 33.82 86.48
  C 33.67 86.62 33.72 86.61 33.42 86.61
  C 33.12 86.61 33.16 86.62 33.01 86.48
  Q 18.31 72.84 9.19 56.19
  C 2.52 43.99 -0.52 28.21 7.65 16.33
  Q 16.59 3.36 32.56 2.54
  Q 33.26 2.51 33.53 2.51
  Z
  M 37.57 25.41
  Q 37.33 25.75 36.57 25.84
  A 0.74 0.73 -3.0 0 0 35.91 26.57
  L 35.91 28.37
  A 0.82 0.81 11.4 0 0 36.41 29.12
  Q 38.27 29.90 40.19 28.46
  A 0.90 0.90 0.0 0 0 40.55 27.74
  L 40.55 25.04
  A 1.34 1.32 -20.5 0 1 41.02 24.03
  C 44.57 20.98 42.37 15.66 37.38 16.74
  A 1.43 1.40 13.9 0 0 36.60 17.20
  L 33.93 20.35
  A 1.25 1.21 -25.5 0 0 33.63 21.15
  L 33.63 23.71
  A 0.77 0.76 -81.2 0 0 34.16 24.44
  Q 36.39 25.16 37.27 24.96
  A 0.29 0.29 0.0 0 1 37.57 25.41
  Z
  M 15.68 29.28
  A 1.79 1.78 -76.2 0 0 16.63 30.86
  Q 18.63 31.92 21.29 33.76
  Q 25.23 36.50 29.44 34.33
  A 0.89 0.89 0.0 0 0 29.83 33.15
  L 28.44 30.26
  A 0.45 0.44 -25.7 0 0 27.85 30.06
  L 25.41 31.24
  A 1.35 1.32 -47.0 0 1 24.36 31.29
  Q 19.44 29.41 16.72 26.29
  A 0.59 0.59 0.0 0 0 15.68 26.68
  L 15.68 29.28
  Z
  M 45.82 43.70
  L 38.27 47.36
  A 0.61 0.60 45.5 0 1 37.73 47.35
  Q 34.87 45.89 35.81 42.58
  A 0.75 0.75 0.0 0 1 36.56 42.03
  C 39.98 42.12 42.17 41.91 44.05 38.98
  A 0.89 0.89 0.0 0 0 43.94 37.87
  L 41.59 35.53
  A 0.85 0.85 0.0 0 0 40.66 35.34
  Q 35.39 37.50 32.41 32.16
  Q 31.34 30.24 31.35 30.07
  A 0.31 0.31 0.0 0 1 31.94 29.95
  C 33.57 33.12 36.59 35.43 40.33 33.54
  Q 40.83 33.28 46.22 29.76
  A 0.30 0.30 0.0 0 0 46.16 29.23
  L 43.02 28.04
  A 0.90 0.89 28.9 0 0 42.00 28.33
  Q 39.25 31.92 35.54 29.98
  A 0.99 0.97 -89.3 0 1 35.12 29.54
  L 34.63 28.54
  A 0.34 0.34 0.0 0 0 34.24 28.36
  L 29.86 29.37
  A 0.34 0.33 -20.5 0 0 29.64 29.85
  Q 32.66 35.53 33.13 41.66
  A 0.73 0.63 -40.9 0 1 33.09 41.94
  L 29.92 50.36
  A 0.33 0.33 0.0 0 0 30.18 50.80
  Q 38.78 52.17 47.33 50.58
  A 0.25 0.25 0.0 0 0 47.53 50.28
  L 46.04 43.81
  A 0.16 0.16 0.0 0 0 45.82 43.70
  Z
  M 47.62 33.00
  Q 47.66 31.89 47.13 31.27
  A 0.47 0.46 -69.4 0 0 46.32 31.64
  Q 46.34 31.79 47.22 33.11
  A 0.22 0.22 0.0 0 0 47.62 33.00
  Z
  M 42.69 34.01
  A 0.39 0.38 -42.0 0 0 42.66 34.51
  L 45.03 37.49
  A 1.06 1.05 -24.2 0 0 46.04 37.87
  Q 46.22 37.81 46.45 37.83
  A 0.34 0.33 -66.3 0 1 46.67 38.40
  Q 43.34 41.88 40.23 43.12
  A 1.09 0.92 27.9 0 1 39.91 43.19
  L 37.36 43.27
  A 0.61 0.61 0.0 0 0 36.77 43.86
  Q 36.72 45.16 37.66 45.76
  A 1.03 1.01 47.8 0 0 38.64 45.82
  L 48.96 40.83
  A 0.93 0.92 66.6 0 0 49.42 39.66
  Q 47.86 35.65 44.79 32.53
  A 0.43 0.42 -44.5 0 0 44.18 32.53
  L 42.69 34.01
  Z"
/>
<path fill="#ffffff" d="
  M 37.27 24.96
  Q 36.39 25.16 34.16 24.44
  A 0.77 0.76 -81.2 0 1 33.63 23.71
  L 33.63 21.15
  A 1.25 1.21 -25.5 0 1 33.93 20.35
  L 36.60 17.20
  A 1.43 1.40 13.9 0 1 37.38 16.74
  C 42.37 15.66 44.57 20.98 41.02 24.03
  A 1.34 1.32 -20.5 0 0 40.55 25.04
  L 40.55 27.74
  A 0.90 0.90 0.0 0 1 40.19 28.46
  Q 38.27 29.90 36.41 29.12
  A 0.82 0.81 11.4 0 1 35.91 28.37
  L 35.91 26.57
  A 0.74 0.73 -3.0 0 1 36.57 25.84
  Q 37.33 25.75 37.57 25.41
  A 0.29 0.29 0.0 0 0 37.27 24.96
  Z"
/>
<path fill="#ffffff" d="
  M 15.68 29.28
  L 15.68 26.68
  A 0.59 0.59 0.0 0 1 16.72 26.29
  Q 19.44 29.41 24.36 31.29
  A 1.35 1.32 -47.0 0 0 25.41 31.24
  L 27.85 30.06
  A 0.45 0.44 -25.7 0 1 28.44 30.26
  L 29.83 33.15
  A 0.89 0.89 0.0 0 1 29.44 34.33
  Q 25.23 36.50 21.29 33.76
  Q 18.63 31.92 16.63 30.86
  A 1.79 1.78 -76.2 0 1 15.68 29.28
  Z"
/>
<path fill="#ffffff" d="
  M 45.82 43.70
  A 0.16 0.16 0.0 0 1 46.04 43.81
  L 47.53 50.28
  A 0.25 0.25 0.0 0 1 47.33 50.58
  Q 38.78 52.17 30.18 50.80
  A 0.33 0.33 0.0 0 1 29.92 50.36
  L 33.09 41.94
  A 0.73 0.63 -40.9 0 0 33.13 41.66
  Q 32.66 35.53 29.64 29.85
  A 0.34 0.33 -20.5 0 1 29.86 29.37
  L 34.24 28.36
  A 0.34 0.34 0.0 0 1 34.63 28.54
  L 35.12 29.54
  A 0.99 0.97 -89.3 0 0 35.54 29.98
  Q 39.25 31.92 42.00 28.33
  A 0.90 0.89 28.9 0 1 43.02 28.04
  L 46.16 29.23
  A 0.30 0.30 0.0 0 1 46.22 29.76
  Q 40.83 33.28 40.33 33.54
  C 36.59 35.43 33.57 33.12 31.94 29.95
  A 0.31 0.31 0.0 0 0 31.35 30.07
  Q 31.34 30.24 32.41 32.16
  Q 35.39 37.50 40.66 35.34
  A 0.85 0.85 0.0 0 1 41.59 35.53
  L 43.94 37.87
  A 0.89 0.89 0.0 0 1 44.05 38.98
  C 42.17 41.91 39.98 42.12 36.56 42.03
  A 0.75 0.75 0.0 0 0 35.81 42.58
  Q 34.87 45.89 37.73 47.35
  A 0.61 0.60 45.5 0 0 38.27 47.36
  L 45.82 43.70
  Z"
/>
<path fill="#ffffff" d="
  M 47.22 33.11
  Q 46.34 31.79 46.32 31.64
  A 0.47 0.46 -69.4 0 1 47.13 31.27
  Q 47.66 31.89 47.62 33.00
  A 0.22 0.22 0.0 0 1 47.22 33.11
  Z"
/>
<path fill="#ffffff" d="
  M 44.79 32.53
  Q 47.86 35.65 49.42 39.66
  A 0.93 0.92 66.6 0 1 48.96 40.83
  L 38.64 45.82
  A 1.03 1.01 47.8 0 1 37.66 45.76
  Q 36.72 45.16 36.77 43.86
  A 0.61 0.61 0.0 0 1 37.36 43.27
  L 39.91 43.19
  A 1.09 0.92 27.9 0 0 40.23 43.12
  Q 43.34 41.88 46.67 38.40
  A 0.34 0.33 -66.3 0 0 46.45 37.83
  Q 46.22 37.81 46.04 37.87
  A 1.06 1.05 -24.2 0 1 45.03 37.49
  L 42.66 34.51
  A 0.39 0.38 -42.0 0 1 42.69 34.01
  L 44.18 32.53
  A 0.43 0.42 -44.5 0 1 44.79 32.53
  Z"
/>
</svg>
