<?xml version="1.0" encoding="UTF-8" standalone="no"?>
<!DOCTYPE svg PUBLIC "-//W3C//DTD SVG 1.1//EN" "http://www.w3.org/Graphics/SVG/1.1/DTD/svg11.dtd">
<svg xmlns="http://www.w3.org/2000/svg" version="1.1" viewBox="0.00 0.00 66.00 88.00">
<g stroke-width="2.00" fill="none" stroke-linecap="butt">
<path stroke="#2b4c38" vector-effect="non-scaling-stroke" d="
  M 33.42 86.65
  Q 33.48 86.65 33.52 86.64
  A 0.29 0.10 -48.9 0 0 33.69 86.55
  C 44.90 76.16 55.23 63.43 60.96 49.24
  C 64.55 40.35 65.82 29.38 61.68 20.54
  Q 57.24 11.06 48.25 6.25
  Q 41.24 2.49 33.53 2.48
  Q 25.82 2.47 18.80 6.21
  Q 9.79 11.00 5.33 20.47
  C 1.17 29.30 2.41 40.27 5.98 49.17
  C 11.67 63.37 21.97 76.13 33.15 86.55
  A 0.29 0.10 49.0 0 0 33.31 86.64
  Q 33.36 86.65 33.42 86.65"
/>
<path stroke="#9cb1a5" vector-effect="non-scaling-stroke" d="
  M 33.45 21.09
  L 35.48 26.07
  A 0.66 0.66 0.0 0 0 36.09 26.48
  L 37.17 26.48
  A 0.53 0.52 -5.4 0 0 37.69 25.86
  Q 36.76 20.88 33.29 16.88
  A 0.44 0.44 0.0 0 0 32.61 16.89
  Q 24.25 27.49 31.34 38.94
  A 0.72 0.70 -41.5 0 1 31.28 39.77
  Q 26.63 45.20 19.35 44.99
  A 0.34 0.34 0.0 0 1 19.07 44.47
  Q 21.06 41.37 23.67 39.32
  A 0.86 0.86 0.0 0 0 23.94 38.32
  L 23.67 37.67
  A 0.68 0.68 0.0 0 0 22.67 37.36
  Q 17.75 40.53 15.80 46.34
  A 0.57 0.56 15.0 0 0 16.23 47.07
  Q 26.35 49.06 33.06 41.31
  Q 33.76 40.50 35.73 37.42
  A 0.82 0.82 0.0 0 1 36.57 37.06
  Q 43.30 38.33 46.96 44.33
  A 0.47 0.46 -16.1 0 1 46.57 45.03
  Q 43.31 45.11 39.89 43.45
  A 0.55 0.54 27.6 0 0 39.18 43.67
  L 38.44 44.94
  A 0.66 0.65 27.3 0 0 38.74 45.86
  Q 44.11 48.29 50.01 47.04
  A 0.56 0.56 0.0 0 0 50.41 46.29
  Q 45.57 34.06 32.27 34.44
  A 0.81 0.80 78.9 0 1 31.49 33.91
  Q 29.05 27.32 32.68 21.04
  A 0.43 0.43 0.0 0 1 33.45 21.09"
/>
<path stroke="#9cb1a5" vector-effect="non-scaling-stroke" d="
  M 28.77 39.58
  A 0.34 0.34 0.0 0 0 28.77 39.24
  L 23.87 30.75
  A 0.34 0.34 0.0 0 1 24.17 30.24
  L 26.33 30.24
  A 0.34 0.34 0.0 0 0 26.67 29.90
  L 26.67 28.08
  A 0.34 0.34 0.0 0 0 26.33 27.74
  L 19.96 27.74
  A 0.34 0.34 0.0 0 0 19.66 28.25
  L 27.20 41.29
  A 0.34 0.34 0.0 0 0 27.78 41.29
  L 28.77 39.58"
/>
<path stroke="#9cb1a5" vector-effect="non-scaling-stroke" d="
  M 42.16 34.91
  A 0.31 0.31 0.0 0 0 42.59 34.80
  L 46.38 28.22
  A 0.31 0.31 0.0 0 0 46.11 27.76
  L 32.29 27.76
  A 0.31 0.31 0.0 0 0 31.98 28.07
  L 31.98 29.93
  A 0.31 0.31 0.0 0 0 32.29 30.24
  L 41.93 30.24
  A 0.31 0.31 0.0 0 1 42.20 30.70
  L 40.52 33.61
  A 0.31 0.31 0.0 0 0 40.64 34.03
  L 42.16 34.91"
/>
<path stroke="#9cb1a5" vector-effect="non-scaling-stroke" d="
  M 33.27 51.06
  L 39.53 40.22
  A 0.51 0.51 0.0 0 0 39.34 39.52
  L 38.42 38.98
  A 0.83 0.83 0.0 0 0 37.29 39.28
  L 33.37 46.08
  A 0.45 0.45 0.0 0 1 32.56 46.01
  Q 32.13 44.82 31.55 44.74
  Q 31.23 44.70 30.82 45.17
  Q 30.42 45.61 30.29 45.76
  A 0.71 0.70 -40.6 0 0 30.22 46.58
  L 32.80 51.06
  A 0.27 0.27 0.0 0 0 33.27 51.06"
/>
</g>
<path fill="#1c3425" d="
  M 33.80 88.00
  L 33.04 88.00
  C 17.15 73.56 -4.60 46.34 3.05 23.09
  Q 5.51 15.58 11.52 9.93
  C 23.55 -1.39 43.83 -1.83 55.99 10.44
  Q 68.48 23.04 64.55 41.21
  Q 61.82 53.83 53.58 65.57
  Q 44.99 77.81 33.80 88.00
  Z
  M 33.42 86.65
  Q 33.48 86.65 33.52 86.64
  A 0.29 0.10 -48.9 0 0 33.69 86.55
  C 44.90 76.16 55.23 63.43 60.96 49.24
  C 64.55 40.35 65.82 29.38 61.68 20.54
  Q 57.24 11.06 48.25 6.25
  Q 41.24 2.49 33.53 2.48
  Q 25.82 2.47 18.80 6.21
  Q 9.79 11.00 5.33 20.47
  C 1.17 29.30 2.41 40.27 5.98 49.17
  C 11.67 63.37 21.97 76.13 33.15 86.55
  A 0.29 0.10 49.0 0 0 33.31 86.64
  Q 33.36 86.65 33.42 86.65
  Z"
/>
<path fill="#39634a" d="
  M 33.53 2.48
  Q 41.24 2.49 48.25 6.25
  Q 57.24 11.06 61.68 20.54
  C 65.82 29.38 64.55 40.35 60.96 49.24
  C 55.23 63.43 44.90 76.16 33.69 86.55
  A 0.29 0.10 -48.9 0 1 33.52 86.64
  Q 33.48 86.65 33.42 86.65
  Q 33.36 86.65 33.31 86.64
  A 0.29 0.10 49.0 0 1 33.15 86.55
  C 21.97 76.13 11.67 63.37 5.98 49.17
  C 2.41 40.27 1.17 29.30 5.33 20.47
  Q 9.79 11.00 18.80 6.21
  Q 25.82 2.47 33.53 2.48
  Z
  M 33.45 21.09
  L 35.48 26.07
  A 0.66 0.66 0.0 0 0 36.09 26.48
  L 37.17 26.48
  A 0.53 0.52 -5.4 0 0 37.69 25.86
  Q 36.76 20.88 33.29 16.88
  A 0.44 0.44 0.0 0 0 32.61 16.89
  Q 24.25 27.49 31.34 38.94
  A 0.72 0.70 -41.5 0 1 31.28 39.77
  Q 26.63 45.20 19.35 44.99
  A 0.34 0.34 0.0 0 1 19.07 44.47
  Q 21.06 41.37 23.67 39.32
  A 0.86 0.86 0.0 0 0 23.94 38.32
  L 23.67 37.67
  A 0.68 0.68 0.0 0 0 22.67 37.36
  Q 17.75 40.53 15.80 46.34
  A 0.57 0.56 15.0 0 0 16.23 47.07
  Q 26.35 49.06 33.06 41.31
  Q 33.76 40.50 35.73 37.42
  A 0.82 0.82 0.0 0 1 36.57 37.06
  Q 43.30 38.33 46.96 44.33
  A 0.47 0.46 -16.1 0 1 46.57 45.03
  Q 43.31 45.11 39.89 43.45
  A 0.55 0.54 27.6 0 0 39.18 43.67
  L 38.44 44.94
  A 0.66 0.65 27.3 0 0 38.74 45.86
  Q 44.11 48.29 50.01 47.04
  A 0.56 0.56 0.0 0 0 50.41 46.29
  Q 45.57 34.06 32.27 34.44
  A 0.81 0.80 78.9 0 1 31.49 33.91
  Q 29.05 27.32 32.68 21.04
  A 0.43 0.43 0.0 0 1 33.45 21.09
  Z
  M 28.77 39.58
  A 0.34 0.34 0.0 0 0 28.77 39.24
  L 23.87 30.75
  A 0.34 0.34 0.0 0 1 24.17 30.24
  L 26.33 30.24
  A 0.34 0.34 0.0 0 0 26.67 29.90
  L 26.67 28.08
  A 0.34 0.34 0.0 0 0 26.33 27.74
  L 19.96 27.74
  A 0.34 0.34 0.0 0 0 19.66 28.25
  L 27.20 41.29
  A 0.34 0.34 0.0 0 0 27.78 41.29
  L 28.77 39.58
  Z
  M 42.16 34.91
  A 0.31 0.31 0.0 0 0 42.59 34.80
  L 46.38 28.22
  A 0.31 0.31 0.0 0 0 46.11 27.76
  L 32.29 27.76
  A 0.31 0.31 0.0 0 0 31.98 28.07
  L 31.98 29.93
  A 0.31 0.31 0.0 0 0 32.29 30.24
  L 41.93 30.24
  A 0.31 0.31 0.0 0 1 42.20 30.70
  L 40.52 33.61
  A 0.31 0.31 0.0 0 0 40.64 34.03
  L 42.16 34.91
  Z
  M 33.27 51.06
  L 39.53 40.22
  A 0.51 0.51 0.0 0 0 39.34 39.52
  L 38.42 38.98
  A 0.83 0.83 0.0 0 0 37.29 39.28
  L 33.37 46.08
  A 0.45 0.45 0.0 0 1 32.56 46.01
  Q 32.13 44.82 31.55 44.74
  Q 31.23 44.70 30.82 45.17
  Q 30.42 45.61 30.29 45.76
  A 0.71 0.70 -40.6 0 0 30.22 46.58
  L 32.80 51.06
  A 0.27 0.27 0.0 0 0 33.27 51.06
  Z"
/>
<path fill="#ffffff" d="
  M 33.45 21.09
  A 0.43 0.43 0.0 0 0 32.68 21.04
  Q 29.05 27.32 31.49 33.91
  A 0.81 0.80 78.9 0 0 32.27 34.44
  Q 45.57 34.06 50.41 46.29
  A 0.56 0.56 0.0 0 1 50.01 47.04
  Q 44.11 48.29 38.74 45.86
  A 0.66 0.65 27.3 0 1 38.44 44.94
  L 39.18 43.67
  A 0.55 0.54 27.6 0 1 39.89 43.45
  Q 43.31 45.11 46.57 45.03
  A 0.47 0.46 -16.1 0 0 46.96 44.33
  Q 43.30 38.33 36.57 37.06
  A 0.82 0.82 0.0 0 0 35.73 37.42
  Q 33.76 40.50 33.06 41.31
  Q 26.35 49.06 16.23 47.07
  A 0.57 0.56 15.0 0 1 15.80 46.34
  Q 17.75 40.53 22.67 37.36
  A 0.68 0.68 0.0 0 1 23.67 37.67
  L 23.94 38.32
  A 0.86 0.86 0.0 0 1 23.67 39.32
  Q 21.06 41.37 19.07 44.47
  A 0.34 0.34 0.0 0 0 19.35 44.99
  Q 26.63 45.20 31.28 39.77
  A 0.72 0.70 -41.5 0 0 31.34 38.94
  Q 24.25 27.49 32.61 16.89
  A 0.44 0.44 0.0 0 1 33.29 16.88
  Q 36.76 20.88 37.69 25.86
  A 0.53 0.52 -5.4 0 1 37.17 26.48
  L 36.09 26.48
  A 0.66 0.66 0.0 0 1 35.48 26.07
  L 33.45 21.09
  Z"
/>
<path fill="#ffffff" d="
  M 28.77 39.58
  L 27.78 41.29
  A 0.34 0.34 0.0 0 1 27.20 41.29
  L 19.66 28.25
  A 0.34 0.34 0.0 0 1 19.96 27.74
  L 26.33 27.74
  A 0.34 0.34 0.0 0 1 26.67 28.08
  L 26.67 29.90
  A 0.34 0.34 0.0 0 1 26.33 30.24
  L 24.17 30.24
  A 0.34 0.34 0.0 0 0 23.87 30.75
  L 28.77 39.24
  A 0.34 0.34 0.0 0 1 28.77 39.58
  Z"
/>
<path fill="#ffffff" d="
  M 42.16 34.91
  L 40.64 34.03
  A 0.31 0.31 0.0 0 1 40.52 33.61
  L 42.20 30.70
  A 0.31 0.31 0.0 0 0 41.93 30.24
  L 32.29 30.24
  A 0.31 0.31 0.0 0 1 31.98 29.93
  L 31.98 28.07
  A 0.31 0.31 0.0 0 1 32.29 27.76
  L 46.11 27.76
  A 0.31 0.31 0.0 0 1 46.38 28.22
  L 42.59 34.80
  A 0.31 0.31 0.0 0 1 42.16 34.91
  Z"
/>
<path fill="#ffffff" d="
  M 33.27 51.06
  A 0.27 0.27 0.0 0 1 32.80 51.06
  L 30.22 46.58
  A 0.71 0.70 -40.6 0 1 30.29 45.76
  Q 30.42 45.61 30.82 45.17
  Q 31.23 44.70 31.55 44.74
  Q 32.13 44.82 32.56 46.01
  A 0.45 0.45 0.0 0 0 33.37 46.08
  L 37.29 39.28
  A 0.83 0.83 0.0 0 1 38.42 38.98
  L 39.34 39.52
  A 0.51 0.51 0.0 0 1 39.53 40.22
  L 33.27 51.06
  Z"
/>
</svg>
