<?xml version="1.0" encoding="UTF-8" standalone="no"?>
<!DOCTYPE svg PUBLIC "-//W3C//DTD SVG 1.1//EN" "http://www.w3.org/Graphics/SVG/1.1/DTD/svg11.dtd">
<svg xmlns="http://www.w3.org/2000/svg" version="1.1" viewBox="0.00 0.00 66.00 88.00">
<g stroke-width="2.00" fill="none" stroke-linecap="butt">
<path stroke="#615742" vector-effect="non-scaling-stroke" d="
  M 33.40 86.68
  Q 33.53 86.68 33.67 86.65
  A 0.14 0.09 1.7 0 0 33.72 86.62
  Q 47.35 73.95 56.29 58.80
  Q 62.46 48.34 63.83 38.48
  C 66.04 22.66 58.25 9.34 43.23 4.08
  Q 38.63 2.47 33.53 2.46
  Q 28.43 2.46 23.83 4.05
  C 8.79 9.26 0.96 22.56 3.12 38.38
  Q 4.46 48.25 10.59 58.73
  Q 19.48 73.91 33.07 86.62
  A 0.14 0.09 -1.5 0 0 33.13 86.65
  Q 33.26 86.68 33.40 86.68"
/>
<path stroke="#c0b9ac" vector-effect="non-scaling-stroke" d="
  M 26.77 49.98
  L 32.99 43.76
  A 1.35 1.31 -19.3 0 0 33.37 43.00
  L 34.55 34.93
  A 1.23 1.04 49.7 0 0 34.55 34.56
  L 33.77 29.87
  A 1.16 1.12 -35.3 0 1 33.91 29.13
  L 36.68 24.33
  A 0.55 0.54 -53.0 0 0 36.59 23.68
  L 28.96 16.04
  A 0.30 0.30 0.0 0 0 28.48 16.14
  L 24.84 24.58
  A 2.41 2.37 -31.6 0 0 24.65 25.35
  L 24.18 31.28
  A 1.26 1.25 -30.7 0 1 24.10 31.59
  L 21.36 38.30
  A 2.58 2.54 51.3 0 0 21.21 39.75
  L 21.98 44.05
  A 0.80 0.68 -71.6 0 0 22.09 44.32
  L 25.93 49.91
  A 0.56 0.55 -39.7 0 0 26.77 49.98"
/>
<path stroke="#c0b9ac" vector-effect="non-scaling-stroke" d="
  M 37.32 27.27
  Q 35.28 29.41 36.00 31.71
  A 0.35 0.35 0.0 0 0 36.58 31.86
  Q 38.77 29.81 37.90 27.39
  A 0.35 0.35 0.0 0 0 37.32 27.27"
/>
<path stroke="#c0b9ac" vector-effect="non-scaling-stroke" d="
  M 40.80 28.60
  A 0.21 0.21 0.0 0 0 40.43 28.65
  Q 39.42 31.82 37.27 34.10
  A 3.30 3.27 -19.5 0 0 36.42 35.86
  L 35.31 43.43
  A 2.75 2.73 71.9 0 1 34.52 45.00
  L 31.01 48.52
  A 0.17 0.17 0.0 0 0 31.06 48.79
  L 31.33 48.90
  A 0.16 0.15 35.8 0 0 31.49 48.88
  L 40.65 40.28
  A 2.06 1.87 -11.3 0 0 41.05 39.74
  L 43.97 33.66
  A 0.52 0.52 0.0 0 0 43.93 33.14
  L 40.80 28.60"
/>
<path stroke="#c0b9ac" vector-effect="non-scaling-stroke" d="
  M 22.90 50.50
  C 23.00 49.84 22.73 48.60 22.24 48.04
  Q 19.26 44.57 19.29 38.41
  A 0.96 0.78 -39.2 0 1 19.36 38.07
  L 21.31 33.36
  A 0.81 0.80 -56.2 0 0 21.14 32.48
  L 17.96 29.31
  A 0.70 0.70 0.0 0 0 16.82 29.53
  L 14.83 34.14
  A 0.65 0.63 -40.2 0 0 14.79 34.55
  L 17.08 45.21
  A 1.12 1.11 -74.0 0 0 17.40 45.79
  L 22.30 50.69
  A 0.35 0.35 0.0 0 0 22.90 50.50"
/>
<path stroke="#c0b9ac" vector-effect="non-scaling-stroke" d="
  M 31.52 52.28
  L 34.94 52.26
  A 2.52 2.50 27.6 0 0 36.36 51.82
  L 48.26 43.63
  A 1.18 1.15 77.6 0 0 48.74 42.86
  L 49.48 37.78
  A 0.45 0.44 7.3 0 0 49.08 37.27
  Q 47.04 37.09 46.41 37.66
  Q 43.97 39.86 31.35 51.86
  A 0.24 0.24 0.0 0 0 31.52 52.28"
/>
<path stroke="#c0b9ac" vector-effect="non-scaling-stroke" d="
  M 41.10 51.20
  C 45.88 49.25 51.08 48.10 50.89 43.81
  A 0.23 0.23 0.0 0 0 50.47 43.70
  Q 49.60 45.05 49.28 45.27
  Q 43.45 49.15 41.00 51.04
  A 0.10 0.09 13.9 0 0 41.10 51.20"
/>
</g>
<path fill="#413b2b" d="
  M 33.79 88.00
  L 33.03 88.00
  C 21.77 77.76 11.94 65.52 5.58 51.41
  Q 2.15 43.80 1.59 34.82
  C 0.35 15.10 17.22 -0.31 36.51 1.46
  C 45.41 2.28 54.00 6.94 59.27 14.17
  Q 67.40 25.33 64.93 39.27
  Q 62.69 51.85 55.07 63.31
  Q 46.03 76.90 33.79 88.00
  Z
  M 33.40 86.68
  Q 33.53 86.68 33.67 86.65
  A 0.14 0.09 1.7 0 0 33.72 86.62
  Q 47.35 73.95 56.29 58.80
  Q 62.46 48.34 63.83 38.48
  C 66.04 22.66 58.25 9.34 43.23 4.08
  Q 38.63 2.47 33.53 2.46
  Q 28.43 2.46 23.83 4.05
  C 8.79 9.26 0.96 22.56 3.12 38.38
  Q 4.46 48.25 10.59 58.73
  Q 19.48 73.91 33.07 86.62
  A 0.14 0.09 -1.5 0 0 33.13 86.65
  Q 33.26 86.68 33.40 86.68
  Z"
/>
<path fill="#807358" d="
  M 33.53 2.46
  Q 38.63 2.47 43.23 4.08
  C 58.25 9.34 66.04 22.66 63.83 38.48
  Q 62.46 48.34 56.29 58.80
  Q 47.35 73.95 33.72 86.62
  A 0.14 0.09 1.7 0 1 33.67 86.65
  Q 33.53 86.68 33.40 86.68
  Q 33.26 86.68 33.13 86.65
  A 0.14 0.09 -1.5 0 1 33.07 86.62
  Q 19.48 73.91 10.59 58.73
  Q 4.46 48.25 3.12 38.38
  C 0.96 22.56 8.79 9.26 23.83 4.05
  Q 28.43 2.46 33.53 2.46
  Z
  M 26.77 49.98
  L 32.99 43.76
  A 1.35 1.31 -19.3 0 0 33.37 43.00
  L 34.55 34.93
  A 1.23 1.04 49.7 0 0 34.55 34.56
  L 33.77 29.87
  A 1.16 1.12 -35.3 0 1 33.91 29.13
  L 36.68 24.33
  A 0.55 0.54 -53.0 0 0 36.59 23.68
  L 28.96 16.04
  A 0.30 0.30 0.0 0 0 28.48 16.14
  L 24.84 24.58
  A 2.41 2.37 -31.6 0 0 24.65 25.35
  L 24.18 31.28
  A 1.26 1.25 -30.7 0 1 24.10 31.59
  L 21.36 38.30
  A 2.58 2.54 51.3 0 0 21.21 39.75
  L 21.98 44.05
  A 0.80 0.68 -71.6 0 0 22.09 44.32
  L 25.93 49.91
  A 0.56 0.55 -39.7 0 0 26.77 49.98
  Z
  M 37.32 27.27
  Q 35.28 29.41 36.00 31.71
  A 0.35 0.35 0.0 0 0 36.58 31.86
  Q 38.77 29.81 37.90 27.39
  A 0.35 0.35 0.0 0 0 37.32 27.27
  Z
  M 40.80 28.60
  A 0.21 0.21 0.0 0 0 40.43 28.65
  Q 39.42 31.82 37.27 34.10
  A 3.30 3.27 -19.5 0 0 36.42 35.86
  L 35.31 43.43
  A 2.75 2.73 71.9 0 1 34.52 45.00
  L 31.01 48.52
  A 0.17 0.17 0.0 0 0 31.06 48.79
  L 31.33 48.90
  A 0.16 0.15 35.8 0 0 31.49 48.88
  L 40.65 40.28
  A 2.06 1.87 -11.3 0 0 41.05 39.74
  L 43.97 33.66
  A 0.52 0.52 0.0 0 0 43.93 33.14
  L 40.80 28.60
  Z
  M 22.90 50.50
  C 23.00 49.84 22.73 48.60 22.24 48.04
  Q 19.26 44.57 19.29 38.41
  A 0.96 0.78 -39.2 0 1 19.36 38.07
  L 21.31 33.36
  A 0.81 0.80 -56.2 0 0 21.14 32.48
  L 17.96 29.31
  A 0.70 0.70 0.0 0 0 16.82 29.53
  L 14.83 34.14
  A 0.65 0.63 -40.2 0 0 14.79 34.55
  L 17.08 45.21
  A 1.12 1.11 -74.0 0 0 17.40 45.79
  L 22.30 50.69
  A 0.35 0.35 0.0 0 0 22.90 50.50
  Z
  M 31.52 52.28
  L 34.94 52.26
  A 2.52 2.50 27.6 0 0 36.36 51.82
  L 48.26 43.63
  A 1.18 1.15 77.6 0 0 48.74 42.86
  L 49.48 37.78
  A 0.45 0.44 7.3 0 0 49.08 37.27
  Q 47.04 37.09 46.41 37.66
  Q 43.97 39.86 31.35 51.86
  A 0.24 0.24 0.0 0 0 31.52 52.28
  Z
  M 41.10 51.20
  C 45.88 49.25 51.08 48.10 50.89 43.81
  A 0.23 0.23 0.0 0 0 50.47 43.70
  Q 49.60 45.05 49.28 45.27
  Q 43.45 49.15 41.00 51.04
  A 0.10 0.09 13.9 0 0 41.10 51.20
  Z"
/>
<path fill="#ffffff" d="
  M 25.93 49.91
  L 22.09 44.32
  A 0.80 0.68 -71.6 0 1 21.98 44.05
  L 21.21 39.75
  A 2.58 2.54 51.3 0 1 21.36 38.30
  L 24.10 31.59
  A 1.26 1.25 -30.7 0 0 24.18 31.28
  L 24.65 25.35
  A 2.41 2.37 -31.6 0 1 24.84 24.58
  L 28.48 16.14
  A 0.30 0.30 0.0 0 1 28.96 16.04
  L 36.59 23.68
  A 0.55 0.54 -53.0 0 1 36.68 24.33
  L 33.91 29.13
  A 1.16 1.12 -35.3 0 0 33.77 29.87
  L 34.55 34.56
  A 1.23 1.04 49.7 0 1 34.55 34.93
  L 33.37 43.00
  A 1.35 1.31 -19.3 0 1 32.99 43.76
  L 26.77 49.98
  A 0.56 0.55 -39.7 0 1 25.93 49.91
  Z"
/>
<path fill="#ffffff" d="
  M 37.90 27.39
  Q 38.77 29.81 36.58 31.86
  A 0.35 0.35 0.0 0 1 36.00 31.71
  Q 35.28 29.41 37.32 27.27
  A 0.35 0.35 0.0 0 1 37.90 27.39
  Z"
/>
<path fill="#ffffff" d="
  M 40.80 28.60
  L 43.93 33.14
  A 0.52 0.52 0.0 0 1 43.97 33.66
  L 41.05 39.74
  A 2.06 1.87 -11.3 0 1 40.65 40.28
  L 31.49 48.88
  A 0.16 0.15 35.8 0 1 31.33 48.90
  L 31.06 48.79
  A 0.17 0.17 0.0 0 1 31.01 48.52
  L 34.52 45.00
  A 2.75 2.73 71.9 0 0 35.31 43.43
  L 36.42 35.86
  A 3.30 3.27 -19.5 0 1 37.27 34.10
  Q 39.42 31.82 40.43 28.65
  A 0.21 0.21 0.0 0 1 40.80 28.60
  Z"
/>
<path fill="#ffffff" d="
  M 22.90 50.50
  A 0.35 0.35 0.0 0 1 22.30 50.69
  L 17.40 45.79
  A 1.12 1.11 -74.0 0 1 17.08 45.21
  L 14.79 34.55
  A 0.65 0.63 -40.2 0 1 14.83 34.14
  L 16.82 29.53
  A 0.70 0.70 0.0 0 1 17.96 29.31
  L 21.14 32.48
  A 0.81 0.80 -56.2 0 1 21.31 33.36
  L 19.36 38.07
  A 0.96 0.78 -39.2 0 0 19.29 38.41
  Q 19.26 44.57 22.24 48.04
  C 22.73 48.60 23.00 49.84 22.90 50.50
  Z"
/>
<path fill="#ffffff" d="
  M 31.52 52.28
  A 0.24 0.24 0.0 0 1 31.35 51.86
  Q 43.97 39.86 46.41 37.66
  Q 47.04 37.09 49.08 37.27
  A 0.45 0.44 7.3 0 1 49.48 37.78
  L 48.74 42.86
  A 1.18 1.15 77.6 0 1 48.26 43.63
  L 36.36 51.82
  A 2.52 2.50 27.6 0 1 34.94 52.26
  L 31.52 52.28
  Z"
/>
<path fill="#ffffff" d="
  M 41.00 51.04
  Q 43.45 49.15 49.28 45.27
  Q 49.60 45.05 50.47 43.70
  A 0.23 0.23 0.0 0 1 50.89 43.81
  C 51.08 48.10 45.88 49.25 41.10 51.20
  A 0.10 0.09 13.9 0 1 41.00 51.04
  Z"
/>
</svg>
