<?xml version="1.0" encoding="UTF-8" standalone="no"?>
<!DOCTYPE svg PUBLIC "-//W3C//DTD SVG 1.1//EN" "http://www.w3.org/Graphics/SVG/1.1/DTD/svg11.dtd">
<svg xmlns="http://www.w3.org/2000/svg" version="1.1" viewBox="0.00 0.00 66.00 88.00">
<g stroke-width="2.00" fill="none" stroke-linecap="butt">
<path stroke="#615742" vector-effect="non-scaling-stroke" d="
  M 33.40 86.68
  Q 33.53 86.68 33.67 86.65
  A 0.15 0.10 3.2 0 0 33.72 86.62
  Q 47.43 73.73 56.32 58.83
  C 63.73 46.42 68.26 29.37 59.37 16.39
  Q 50.28 3.10 33.75 2.47
  Q 33.64 2.47 33.54 2.47
  Q 33.43 2.47 33.33 2.47
  Q 16.79 3.04 7.66 16.30
  C -1.27 29.26 3.20 46.32 10.57 58.75
  Q 19.41 73.68 33.08 86.62
  A 0.15 0.10 -3.0 0 0 33.13 86.65
  Q 33.26 86.68 33.40 86.68"
/>
<path stroke="#c0b9ac" vector-effect="non-scaling-stroke" d="
  M 35.49 19.09
  Q 34.90 18.79 34.43 18.79
  A 1.28 1.23 -5.3 0 0 33.18 20.24
  Q 33.37 21.22 34.07 21.89
  Q 35.06 22.83 35.79 22.40
  Q 36.23 22.14 37.00 21.40
  A 0.49 0.48 60.4 0 1 37.81 21.63
  C 38.60 24.55 41.45 22.85 41.95 20.92
  A 1.08 1.07 -82.8 0 0 40.92 19.58
  L 38.92 19.58
  A 0.29 0.29 0.0 0 1 38.68 19.13
  Q 40.40 16.63 38.39 15.85
  A 1.93 1.80 5.6 0 0 35.78 17.85
  Q 35.84 18.12 36.01 18.65
  A 0.37 0.37 0.0 0 1 35.49 19.09"
/>
<path stroke="#c0b9ac" vector-effect="non-scaling-stroke" d="
  M 31.57 38.12
  C 29.45 42.60 26.39 47.04 23.27 51.01
  A 0.61 0.60 -52.0 0 0 23.37 51.86
  L 23.41 51.90
  A 0.61 0.61 0.0 0 0 24.25 51.82
  Q 29.38 45.82 32.90 38.75
  Q 36.14 31.55 37.54 23.77
  A 0.61 0.61 0.0 0 0 37.06 23.07
  L 37.01 23.07
  A 0.61 0.60 -77.4 0 0 36.29 23.53
  C 35.19 28.45 33.69 33.63 31.57 38.12"
/>
<path stroke="#c0b9ac" vector-effect="non-scaling-stroke" d="
  M 42.43 34.78
  Q 42.57 34.70 42.64 34.43
  Q 43.97 28.62 38.80 27.16
  Q 38.66 27.12 38.36 27.28
  Q 38.01 27.47 37.96 27.61
  Q 36.34 32.73 41.92 34.81
  Q 42.18 34.91 42.43 34.78"
/>
<path stroke="#c0b9ac" vector-effect="non-scaling-stroke" d="
  M 26.77 32.40
  Q 26.85 32.53 27.11 32.57
  Q 32.54 33.50 33.62 28.66
  Q 33.64 28.52 33.48 28.26
  Q 33.28 27.94 33.15 27.90
  Q 28.35 26.67 26.71 31.93
  Q 26.64 32.18 26.77 32.40"
/>
<path stroke="#c0b9ac" vector-effect="non-scaling-stroke" d="
  M 37.19 43.96
  C 39.07 41.25 38.19 39.52 35.63 37.90
  A 0.71 0.70 -53.8 0 0 34.71 38.05
  C 32.46 40.76 34.18 42.30 36.36 44.08
  A 0.58 0.56 -52.6 0 0 37.19 43.96"
/>
<path stroke="#c0b9ac" vector-effect="non-scaling-stroke" d="
  M 24.04 42.83
  Q 24.13 42.93 24.37 42.94
  Q 29.33 43.04 29.65 38.58
  Q 29.66 38.46 29.48 38.24
  Q 29.26 37.99 29.14 37.97
  Q 24.69 37.51 23.93 42.41
  Q 23.89 42.65 24.04 42.83"
/>
</g>
<path fill="#413b2b" d="
  M 33.79 88.00
  L 33.03 88.00
  C 21.77 77.76 11.94 65.51 5.58 51.41
  Q 2.15 43.80 1.59 34.82
  C 0.35 15.10 17.22 -0.31 36.51 1.46
  C 45.41 2.28 54.00 6.94 59.27 14.17
  Q 67.40 25.33 64.93 39.27
  Q 62.69 51.86 55.07 63.31
  Q 46.03 76.90 33.79 88.00
  Z
  M 33.40 86.68
  Q 33.53 86.68 33.67 86.65
  A 0.15 0.10 3.2 0 0 33.72 86.62
  Q 47.43 73.73 56.32 58.83
  C 63.73 46.42 68.26 29.37 59.37 16.39
  Q 50.28 3.10 33.75 2.47
  Q 33.64 2.47 33.54 2.47
  Q 33.43 2.47 33.33 2.47
  Q 16.79 3.04 7.66 16.30
  C -1.27 29.26 3.20 46.32 10.57 58.75
  Q 19.41 73.68 33.08 86.62
  A 0.15 0.10 -3.0 0 0 33.13 86.65
  Q 33.26 86.68 33.40 86.68
  Z"
/>
<path fill="#807358" d="
  M 33.54 2.47
  Q 33.64 2.47 33.75 2.47
  Q 50.28 3.10 59.37 16.39
  C 68.26 29.37 63.73 46.42 56.32 58.83
  Q 47.43 73.73 33.72 86.62
  A 0.15 0.10 3.2 0 1 33.67 86.65
  Q 33.53 86.68 33.40 86.68
  Q 33.26 86.68 33.13 86.65
  A 0.15 0.10 -3.0 0 1 33.08 86.62
  Q 19.41 73.68 10.57 58.75
  C 3.20 46.32 -1.27 29.26 7.66 16.30
  Q 16.79 3.04 33.33 2.47
  Q 33.43 2.47 33.54 2.47
  Z
  M 35.49 19.09
  Q 34.90 18.79 34.43 18.79
  A 1.28 1.23 -5.3 0 0 33.18 20.24
  Q 33.37 21.22 34.07 21.89
  Q 35.06 22.83 35.79 22.40
  Q 36.23 22.14 37.00 21.40
  A 0.49 0.48 60.4 0 1 37.81 21.63
  C 38.60 24.55 41.45 22.85 41.95 20.92
  A 1.08 1.07 -82.8 0 0 40.92 19.58
  L 38.92 19.58
  A 0.29 0.29 0.0 0 1 38.68 19.13
  Q 40.40 16.63 38.39 15.85
  A 1.93 1.80 5.6 0 0 35.78 17.85
  Q 35.84 18.12 36.01 18.65
  A 0.37 0.37 0.0 0 1 35.49 19.09
  Z
  M 31.57 38.12
  C 29.45 42.60 26.39 47.04 23.27 51.01
  A 0.61 0.60 -52.0 0 0 23.37 51.86
  L 23.41 51.90
  A 0.61 0.61 0.0 0 0 24.25 51.82
  Q 29.38 45.82 32.90 38.75
  Q 36.14 31.55 37.54 23.77
  A 0.61 0.61 0.0 0 0 37.06 23.07
  L 37.01 23.07
  A 0.61 0.60 -77.4 0 0 36.29 23.53
  C 35.19 28.45 33.69 33.63 31.57 38.12
  Z
  M 42.43 34.78
  Q 42.57 34.70 42.64 34.43
  Q 43.97 28.62 38.80 27.16
  Q 38.66 27.12 38.36 27.28
  Q 38.01 27.47 37.96 27.61
  Q 36.34 32.73 41.92 34.81
  Q 42.18 34.91 42.43 34.78
  Z
  M 26.77 32.40
  Q 26.85 32.53 27.11 32.57
  Q 32.54 33.50 33.62 28.66
  Q 33.64 28.52 33.48 28.26
  Q 33.28 27.94 33.15 27.90
  Q 28.35 26.67 26.71 31.93
  Q 26.64 32.18 26.77 32.40
  Z
  M 37.19 43.96
  C 39.07 41.25 38.19 39.52 35.63 37.90
  A 0.71 0.70 -53.8 0 0 34.71 38.05
  C 32.46 40.76 34.18 42.30 36.36 44.08
  A 0.58 0.56 -52.6 0 0 37.19 43.96
  Z
  M 24.04 42.83
  Q 24.13 42.93 24.37 42.94
  Q 29.33 43.04 29.65 38.58
  Q 29.66 38.46 29.48 38.24
  Q 29.26 37.99 29.14 37.97
  Q 24.69 37.51 23.93 42.41
  Q 23.89 42.65 24.04 42.83
  Z"
/>
<path fill="#ffffff" d="
  M 36.01 18.65
  Q 35.84 18.12 35.78 17.85
  A 1.93 1.80 5.6 0 1 38.39 15.85
  Q 40.40 16.63 38.68 19.13
  A 0.29 0.29 0.0 0 0 38.92 19.58
  L 40.92 19.58
  A 1.08 1.07 -82.8 0 1 41.95 20.92
  C 41.45 22.85 38.60 24.55 37.81 21.63
  A 0.49 0.48 60.4 0 0 37.00 21.40
  Q 36.23 22.14 35.79 22.40
  Q 35.06 22.83 34.07 21.89
  Q 33.37 21.22 33.18 20.24
  A 1.28 1.23 -5.3 0 1 34.43 18.79
  Q 34.90 18.79 35.49 19.09
  A 0.37 0.37 0.0 0 0 36.01 18.65
  Z"
/>
<path fill="#ffffff" d="
  M 32.90 38.75
  Q 29.38 45.82 24.25 51.82
  A 0.61 0.61 0.0 0 1 23.41 51.90
  L 23.37 51.86
  A 0.61 0.60 -52.0 0 1 23.27 51.01
  C 26.39 47.04 29.45 42.60 31.57 38.12
  C 33.69 33.63 35.19 28.45 36.29 23.53
  A 0.61 0.60 -77.4 0 1 37.01 23.07
  L 37.06 23.07
  A 0.61 0.61 0.0 0 1 37.54 23.77
  Q 36.14 31.55 32.90 38.75
  Z"
/>
<path fill="#ffffff" d="
  M 42.43 34.78
  Q 42.18 34.91 41.92 34.81
  Q 36.34 32.73 37.96 27.61
  Q 38.01 27.47 38.36 27.28
  Q 38.66 27.12 38.80 27.16
  Q 43.97 28.62 42.64 34.43
  Q 42.57 34.70 42.43 34.78
  Z"
/>
<path fill="#ffffff" d="
  M 26.77 32.40
  Q 26.64 32.18 26.71 31.93
  Q 28.35 26.67 33.15 27.90
  Q 33.28 27.94 33.48 28.26
  Q 33.64 28.52 33.62 28.66
  Q 32.54 33.50 27.11 32.57
  Q 26.85 32.53 26.77 32.40
  Z"
/>
<path fill="#ffffff" d="
  M 36.36 44.08
  C 34.18 42.30 32.46 40.76 34.71 38.05
  A 0.71 0.70 -53.8 0 1 35.63 37.90
  C 38.19 39.52 39.07 41.25 37.19 43.96
  A 0.58 0.56 -52.6 0 1 36.36 44.08
  Z"
/>
<path fill="#ffffff" d="
  M 24.04 42.83
  Q 23.89 42.65 23.93 42.41
  Q 24.69 37.51 29.14 37.97
  Q 29.26 37.99 29.48 38.24
  Q 29.66 38.46 29.65 38.58
  Q 29.33 43.04 24.37 42.94
  Q 24.13 42.93 24.04 42.83
  Z"
/>
</svg>
