<?xml version="1.0" encoding="UTF-8" standalone="no"?>
<!DOCTYPE svg PUBLIC "-//W3C//DTD SVG 1.1//EN" "http://www.w3.org/Graphics/SVG/1.1/DTD/svg11.dtd">
<svg xmlns="http://www.w3.org/2000/svg" version="1.1" viewBox="0.00 0.00 66.00 88.00">
<g stroke-width="2.00" fill="none" stroke-linecap="butt">
<path stroke="#282a22" vector-effect="non-scaling-stroke" d="
  M 33.40 86.55
  Q 33.52 86.55 33.62 86.52
  Q 33.63 86.52 33.78 86.38
  Q 45.08 75.90 53.44 63.40
  C 61.39 51.52 68.29 34.31 61.51 20.28
  C 56.26 9.41 45.52 2.53 33.52 2.51
  C 21.52 2.49 10.76 9.35 5.47 20.20
  C -1.35 34.21 5.50 51.44 13.42 63.34
  Q 21.74 75.87 33.01 86.38
  Q 33.16 86.52 33.17 86.52
  Q 33.27 86.55 33.40 86.55"
/>
<path stroke="#9a9b96" vector-effect="non-scaling-stroke" d="
  M 22.52 23.01
  Q 25.53 24.71 27.18 27.47
  A 0.24 0.24 0.0 0 1 26.94 27.83
  Q 22.17 27.03 18.34 24.94
  A 0.26 0.25 -85.4 0 0 17.98 25.25
  C 19.01 28.14 24.17 29.87 27.04 30.26
  Q 30.07 30.67 31.70 32.13
  A 0.55 0.55 0.0 0 1 31.48 33.07
  C 26.33 34.53 26.95 32.44 23.62 30.13
  A 0.19 0.18 57.2 0 0 23.49 30.10
  Q 23.34 30.14 23.24 30.29
  A 0.39 0.37 -49.7 0 0 23.27 30.77
  Q 24.15 31.70 24.39 32.64
  A 0.34 0.33 6.6 0 1 23.91 33.02
  Q 21.25 31.67 19.75 30.05
  Q 19.16 29.42 17.61 28.95
  A 0.17 0.17 0.0 0 0 17.46 29.25
  Q 18.54 30.02 19.43 31.78
  C 21.41 35.66 28.08 35.75 31.34 35.90
  A 0.60 0.60 0.0 0 1 31.91 36.52
  C 31.75 40.59 29.05 48.58 24.67 50.24
  A 0.35 0.35 0.0 0 0 24.61 50.87
  Q 24.92 51.06 27.07 50.54
  A 0.76 0.76 0.0 0 1 27.90 50.90
  L 28.28 51.58
  A 0.81 0.81 0.0 0 0 29.62 51.68
  Q 31.19 49.65 32.82 49.90
  Q 36.21 50.42 38.30 51.52
  A 0.35 0.35 0.0 0 0 38.77 51.38
  L 38.98 51.01
  A 0.28 0.28 0.0 0 0 38.88 50.62
  L 34.20 47.92
  A 0.78 0.76 -69.9 0 1 33.83 47.11
  L 35.83 37.00
  A 0.90 0.89 -84.2 0 1 36.72 36.27
  Q 47.35 36.36 49.67 28.10
  A 0.26 0.25 -22.9 0 0 49.20 27.91
  Q 46.75 32.43 41.40 33.68
  A 0.28 0.28 0.0 0 1 41.19 33.17
  Q 45.73 30.44 47.27 26.18
  Q 48.04 24.05 47.75 23.43
  A 0.25 0.25 0.0 0 0 47.27 23.48
  Q 46.76 26.07 43.92 28.34
  A 0.33 0.33 0.0 0 1 43.41 27.97
  C 45.09 23.58 40.95 20.36 38.80 16.85
  A 0.28 0.28 0.0 0 0 38.29 16.95
  C 37.85 19.65 40.97 22.07 41.43 24.09
  Q 42.42 28.52 38.28 31.56
  A 0.56 0.56 0.0 0 1 37.40 30.98
  Q 37.41 30.92 37.86 30.12
  C 41.57 23.57 32.09 21.81 30.51 16.72
  A 0.28 0.28 0.0 0 0 29.96 16.80
  C 29.93 19.96 32.28 22.02 34.63 24.60
  Q 36.06 26.16 35.45 27.91
  A 0.97 0.97 0.0 0 1 34.04 28.43
  Q 32.08 27.29 30.81 25.68
  A 2.28 2.27 -70.3 0 1 30.38 24.76
  Q 30.29 24.34 30.56 22.00
  C 30.71 20.64 29.65 18.61 28.28 18.05
  Q 26.17 17.18 24.22 19.11
  A 0.29 0.28 45.7 0 0 24.22 19.52
  L 24.25 19.55
  A 0.30 0.30 0.0 0 0 24.67 19.54
  C 26.00 18.25 28.24 19.02 28.88 20.73
  C 29.62 22.69 27.22 24.26 29.44 27.04
  A 0.29 0.28 53.1 0 1 29.39 27.45
  L 29.38 27.46
  A 0.26 0.25 -33.1 0 1 29.01 27.39
  Q 26.54 23.51 22.65 22.67
  A 0.18 0.18 0.0 0 0 22.52 23.01"
/>
</g>
<path fill="#1c1e17" d="
  M 33.81 88.00
  L 33.04 88.00
  C 21.76 77.75 12.11 65.67 5.64 51.56
  Q 2.20 44.07 1.59 34.89
  C 0.53 18.90 11.37 5.47 26.73 2.06
  C 41.28 -1.16 55.91 6.02 62.57 19.69
  C 66.92 28.61 65.95 39.77 62.41 48.85
  C 56.57 63.81 45.60 77.23 33.81 88.00
  Z
  M 33.40 86.55
  Q 33.52 86.55 33.62 86.52
  Q 33.63 86.52 33.78 86.38
  Q 45.08 75.90 53.44 63.40
  C 61.39 51.52 68.29 34.31 61.51 20.28
  C 56.26 9.41 45.52 2.53 33.52 2.51
  C 21.52 2.49 10.76 9.35 5.47 20.20
  C -1.35 34.21 5.50 51.44 13.42 63.34
  Q 21.74 75.87 33.01 86.38
  Q 33.16 86.52 33.17 86.52
  Q 33.27 86.55 33.40 86.55
  Z"
/>
<path fill="#34362c" d="
  M 33.52 2.51
  C 45.52 2.53 56.26 9.41 61.51 20.28
  C 68.29 34.31 61.39 51.52 53.44 63.40
  Q 45.08 75.90 33.78 86.38
  Q 33.63 86.52 33.62 86.52
  Q 33.52 86.55 33.40 86.55
  Q 33.27 86.55 33.17 86.52
  Q 33.16 86.52 33.01 86.38
  Q 21.74 75.87 13.42 63.34
  C 5.50 51.44 -1.35 34.21 5.47 20.20
  C 10.76 9.35 21.52 2.49 33.52 2.51
  Z
  M 22.52 23.01
  Q 25.53 24.71 27.18 27.47
  A 0.24 0.24 0.0 0 1 26.94 27.83
  Q 22.17 27.03 18.34 24.94
  A 0.26 0.25 -85.4 0 0 17.98 25.25
  C 19.01 28.14 24.17 29.87 27.04 30.26
  Q 30.07 30.67 31.70 32.13
  A 0.55 0.55 0.0 0 1 31.48 33.07
  C 26.33 34.53 26.95 32.44 23.62 30.13
  A 0.19 0.18 57.2 0 0 23.49 30.10
  Q 23.34 30.14 23.24 30.29
  A 0.39 0.37 -49.7 0 0 23.27 30.77
  Q 24.15 31.70 24.39 32.64
  A 0.34 0.33 6.6 0 1 23.91 33.02
  Q 21.25 31.67 19.75 30.05
  Q 19.16 29.42 17.61 28.95
  A 0.17 0.17 0.0 0 0 17.46 29.25
  Q 18.54 30.02 19.43 31.78
  C 21.41 35.66 28.08 35.75 31.34 35.90
  A 0.60 0.60 0.0 0 1 31.91 36.52
  C 31.75 40.59 29.05 48.58 24.67 50.24
  A 0.35 0.35 0.0 0 0 24.61 50.87
  Q 24.92 51.06 27.07 50.54
  A 0.76 0.76 0.0 0 1 27.90 50.90
  L 28.28 51.58
  A 0.81 0.81 0.0 0 0 29.62 51.68
  Q 31.19 49.65 32.82 49.90
  Q 36.21 50.42 38.30 51.52
  A 0.35 0.35 0.0 0 0 38.77 51.38
  L 38.98 51.01
  A 0.28 0.28 0.0 0 0 38.88 50.62
  L 34.20 47.92
  A 0.78 0.76 -69.9 0 1 33.83 47.11
  L 35.83 37.00
  A 0.90 0.89 -84.2 0 1 36.72 36.27
  Q 47.35 36.36 49.67 28.10
  A 0.26 0.25 -22.9 0 0 49.20 27.91
  Q 46.75 32.43 41.40 33.68
  A 0.28 0.28 0.0 0 1 41.19 33.17
  Q 45.73 30.44 47.27 26.18
  Q 48.04 24.05 47.75 23.43
  A 0.25 0.25 0.0 0 0 47.27 23.48
  Q 46.76 26.07 43.92 28.34
  A 0.33 0.33 0.0 0 1 43.41 27.97
  C 45.09 23.58 40.95 20.36 38.80 16.85
  A 0.28 0.28 0.0 0 0 38.29 16.95
  C 37.85 19.65 40.97 22.07 41.43 24.09
  Q 42.42 28.52 38.28 31.56
  A 0.56 0.56 0.0 0 1 37.40 30.98
  Q 37.41 30.92 37.86 30.12
  C 41.57 23.57 32.09 21.81 30.51 16.72
  A 0.28 0.28 0.0 0 0 29.96 16.80
  C 29.93 19.96 32.28 22.02 34.63 24.60
  Q 36.06 26.16 35.45 27.91
  A 0.97 0.97 0.0 0 1 34.04 28.43
  Q 32.08 27.29 30.81 25.68
  A 2.28 2.27 -70.3 0 1 30.38 24.76
  Q 30.29 24.34 30.56 22.00
  C 30.71 20.64 29.65 18.61 28.28 18.05
  Q 26.17 17.18 24.22 19.11
  A 0.29 0.28 45.7 0 0 24.22 19.52
  L 24.25 19.55
  A 0.30 0.30 0.0 0 0 24.67 19.54
  C 26.00 18.25 28.24 19.02 28.88 20.73
  C 29.62 22.69 27.22 24.26 29.44 27.04
  A 0.29 0.28 53.1 0 1 29.39 27.45
  L 29.38 27.46
  A 0.26 0.25 -33.1 0 1 29.01 27.39
  Q 26.54 23.51 22.65 22.67
  A 0.18 0.18 0.0 0 0 22.52 23.01
  Z"
/>
<path fill="#ffffff" d="
  M 22.65 22.67
  Q 26.54 23.51 29.01 27.39
  A 0.26 0.25 -33.1 0 0 29.38 27.46
  L 29.39 27.45
  A 0.29 0.28 53.1 0 0 29.44 27.04
  C 27.22 24.26 29.62 22.69 28.88 20.73
  C 28.24 19.02 26.00 18.25 24.67 19.54
  A 0.30 0.30 0.0 0 1 24.25 19.55
  L 24.22 19.52
  A 0.29 0.28 45.7 0 1 24.22 19.11
  Q 26.17 17.18 28.28 18.05
  C 29.65 18.61 30.71 20.64 30.56 22.00
  Q 30.29 24.34 30.38 24.76
  A 2.28 2.27 -70.3 0 0 30.81 25.68
  Q 32.08 27.29 34.04 28.43
  A 0.97 0.97 0.0 0 0 35.45 27.91
  Q 36.06 26.16 34.63 24.60
  C 32.28 22.02 29.93 19.96 29.96 16.80
  A 0.28 0.28 0.0 0 1 30.51 16.72
  C 32.09 21.81 41.57 23.57 37.86 30.12
  Q 37.41 30.92 37.40 30.98
  A 0.56 0.56 0.0 0 0 38.28 31.56
  Q 42.42 28.52 41.43 24.09
  C 40.97 22.07 37.85 19.65 38.29 16.95
  A 0.28 0.28 0.0 0 1 38.80 16.85
  C 40.95 20.36 45.09 23.58 43.41 27.97
  A 0.33 0.33 0.0 0 0 43.92 28.34
  Q 46.76 26.07 47.27 23.48
  A 0.25 0.25 0.0 0 1 47.75 23.43
  Q 48.04 24.05 47.27 26.18
  Q 45.73 30.44 41.19 33.17
  A 0.28 0.28 0.0 0 0 41.40 33.68
  Q 46.75 32.43 49.20 27.91
  A 0.26 0.25 -22.9 0 1 49.67 28.10
  Q 47.35 36.36 36.72 36.27
  A 0.90 0.89 -84.2 0 0 35.83 37.00
  L 33.83 47.11
  A 0.78 0.76 -69.9 0 0 34.20 47.92
  L 38.88 50.62
  A 0.28 0.28 0.0 0 1 38.98 51.01
  L 38.77 51.38
  A 0.35 0.35 0.0 0 1 38.30 51.52
  Q 36.21 50.42 32.82 49.90
  Q 31.19 49.65 29.62 51.68
  A 0.81 0.81 0.0 0 1 28.28 51.58
  L 27.90 50.90
  A 0.76 0.76 0.0 0 0 27.07 50.54
  Q 24.92 51.06 24.61 50.87
  A 0.35 0.35 0.0 0 1 24.67 50.24
  C 29.05 48.58 31.75 40.59 31.91 36.52
  A 0.60 0.60 0.0 0 0 31.34 35.90
  C 28.08 35.75 21.41 35.66 19.43 31.78
  Q 18.54 30.02 17.46 29.25
  A 0.17 0.17 0.0 0 1 17.61 28.95
  Q 19.16 29.42 19.75 30.05
  Q 21.25 31.67 23.91 33.02
  A 0.34 0.33 6.6 0 0 24.39 32.64
  Q 24.15 31.70 23.27 30.77
  A 0.39 0.37 -49.7 0 1 23.24 30.29
  Q 23.34 30.14 23.49 30.10
  A 0.19 0.18 57.2 0 1 23.62 30.13
  C 26.95 32.44 26.33 34.53 31.48 33.07
  A 0.55 0.55 0.0 0 0 31.70 32.13
  Q 30.07 30.67 27.04 30.26
  C 24.17 29.87 19.01 28.14 17.98 25.25
  A 0.26 0.25 -85.4 0 1 18.34 24.94
  Q 22.17 27.03 26.94 27.83
  A 0.24 0.24 0.0 0 0 27.18 27.47
  Q 25.53 24.71 22.52 23.01
  A 0.18 0.18 0.0 0 1 22.65 22.67
  Z"
/>
</svg>
