<?xml version="1.0" encoding="UTF-8" standalone="no"?>
<!DOCTYPE svg PUBLIC "-//W3C//DTD SVG 1.1//EN" "http://www.w3.org/Graphics/SVG/1.1/DTD/svg11.dtd">
<svg xmlns="http://www.w3.org/2000/svg" version="1.1" viewBox="0.00 0.00 66.00 88.00">
<g stroke-width="2.00" fill="none" stroke-linecap="butt">
<path stroke="#615742" vector-effect="non-scaling-stroke" d="
  M 33.41 86.68
  Q 33.54 86.68 33.67 86.65
  A 0.14 0.08 0.6 0 0 33.73 86.62
  Q 47.43 73.88 56.60 58.33
  C 65.20 43.74 68.53 25.29 55.93 12.11
  Q 47.39 3.17 34.75 2.51
  Q 34.01 2.47 33.54 2.47
  Q 33.06 2.47 32.32 2.51
  Q 19.68 3.13 11.11 12.04
  C -1.53 25.18 1.75 43.64 10.30 58.26
  Q 19.42 73.84 33.08 86.62
  A 0.14 0.08 -0.4 0 0 33.14 86.65
  Q 33.27 86.68 33.41 86.68"
/>
<path stroke="#c0b9ac" vector-effect="non-scaling-stroke" d="
  M 41.17 20.46
  Q 40.82 21.14 39.97 21.37
  C 34.43 22.86 36.24 27.14 34.12 30.92
  A 0.66 0.66 0.0 0 0 34.59 31.89
  L 35.85 32.11
  A 0.92 0.91 85.0 0 1 36.56 32.71
  Q 36.99 33.91 38.81 34.67
  A 1.03 1.02 -46.7 0 0 39.68 34.64
  C 40.92 33.99 42.35 34.77 43.49 34.06
  Q 44.65 33.35 45.05 34.07
  A 0.53 0.52 60.8 0 0 45.77 34.28
  L 48.89 32.48
  A 0.76 0.76 0.0 0 0 49.16 32.21
  Q 49.86 31.01 49.07 29.94
  A 0.80 0.79 -45.7 0 1 49.06 29.01
  Q 49.45 28.43 49.48 27.74
  A 1.46 1.44 -65.1 0 0 49.12 26.73
  L 45.17 22.26
  A 2.64 2.62 78.9 0 0 44.05 21.50
  L 41.17 20.46"
/>
<path stroke="#c0b9ac" vector-effect="non-scaling-stroke" d="
  M 41.17 20.46
  Q 41.04 20.05 41.29 19.79
  Q 41.60 19.47 42.00 19.69
  Q 42.52 19.98 42.62 19.95
  A 0.35 0.35 0.0 0 0 42.74 19.33
  Q 40.90 18.05 40.00 18.46
  A 0.79 0.78 -32.8 0 1 39.09 18.27
  C 35.13 13.83 28.63 15.48 27.45 21.50
  Q 27.13 23.17 27.35 25.40
  A 0.27 0.26 14.9 0 1 26.93 25.64
  C 24.76 24.10 22.33 23.35 19.82 25.06
  Q 16.56 27.28 16.43 31.27
  Q 16.40 32.29 17.81 34.61
  Q 18.21 35.26 18.20 35.48
  Q 18.16 36.24 18.26 36.37
  A 0.61 0.61 0.0 0 0 19.14 36.48
  Q 23.74 32.60 21.01 27.03
  A 1.39 1.39 0.0 0 1 22.49 25.05
  L 24.62 25.42
  A 3.46 3.46 0.0 0 1 27.44 28.22
  C 28.91 36.30 27.56 43.77 25.19 51.52
  A 0.45 0.45 0.0 0 0 25.54 52.10
  L 27.18 52.38
  A 0.77 0.77 0.0 0 0 28.07 51.75
  L 30.06 40.26
  A 3.67 3.66 79.9 0 1 31.84 37.70
  L 32.38 37.39
  A 1.03 1.03 0.0 0 1 33.92 38.40
  Q 33.36 43.08 37.38 44.39
  A 0.21 0.21 0.0 0 0 37.65 44.25
  C 38.78 40.05 35.41 34.71 31.00 37.18
  A 0.38 0.38 0.0 0 1 30.43 36.84
  Q 30.46 35.12 29.43 25.52
  C 28.86 20.27 30.76 15.29 36.99 18.02
  Q 37.99 18.45 37.85 19.40
  Q 37.64 20.79 36.19 20.54
  A 0.52 0.52 0.0 0 0 35.64 21.28
  Q 35.92 21.87 37.19 21.92
  A 1.02 1.01 28.4 0 0 37.84 21.73
  Q 39.39 20.60 41.17 20.46"
/>
</g>
<path fill="#413b2b" d="
  M 33.78 88.00
  L 33.03 88.00
  C 21.80 77.78 12.03 65.61 5.64 51.56
  Q 2.17 43.93 1.59 34.88
  C 0.32 15.16 17.15 -0.29 36.47 1.46
  C 45.35 2.26 53.87 6.87 59.18 14.04
  C 77.60 38.88 51.61 71.89 33.78 88.00
  Z
  M 33.41 86.68
  Q 33.54 86.68 33.67 86.65
  A 0.14 0.08 0.6 0 0 33.73 86.62
  Q 47.43 73.88 56.60 58.33
  C 65.20 43.74 68.53 25.29 55.93 12.11
  Q 47.39 3.17 34.75 2.51
  Q 34.01 2.47 33.54 2.47
  Q 33.06 2.47 32.32 2.51
  Q 19.68 3.13 11.11 12.04
  C -1.53 25.18 1.75 43.64 10.30 58.26
  Q 19.42 73.84 33.08 86.62
  A 0.14 0.08 -0.4 0 0 33.14 86.65
  Q 33.27 86.68 33.41 86.68
  Z"
/>
<path fill="#807358" d="
  M 33.54 2.47
  Q 34.01 2.47 34.75 2.51
  Q 47.39 3.17 55.93 12.11
  C 68.53 25.29 65.20 43.74 56.60 58.33
  Q 47.43 73.88 33.73 86.62
  A 0.14 0.08 0.6 0 1 33.67 86.65
  Q 33.54 86.68 33.41 86.68
  Q 33.27 86.68 33.14 86.65
  A 0.14 0.08 -0.4 0 1 33.08 86.62
  Q 19.42 73.84 10.30 58.26
  C 1.75 43.64 -1.53 25.18 11.11 12.04
  Q 19.68 3.13 32.32 2.51
  Q 33.06 2.47 33.54 2.47
  Z
  M 41.17 20.46
  Q 40.82 21.14 39.97 21.37
  C 34.43 22.86 36.24 27.14 34.12 30.92
  A 0.66 0.66 0.0 0 0 34.59 31.89
  L 35.85 32.11
  A 0.92 0.91 85.0 0 1 36.56 32.71
  Q 36.99 33.91 38.81 34.67
  A 1.03 1.02 -46.7 0 0 39.68 34.64
  C 40.92 33.99 42.35 34.77 43.49 34.06
  Q 44.65 33.35 45.05 34.07
  A 0.53 0.52 60.8 0 0 45.77 34.28
  L 48.89 32.48
  A 0.76 0.76 0.0 0 0 49.16 32.21
  Q 49.86 31.01 49.07 29.94
  A 0.80 0.79 -45.7 0 1 49.06 29.01
  Q 49.45 28.43 49.48 27.74
  A 1.46 1.44 -65.1 0 0 49.12 26.73
  L 45.17 22.26
  A 2.64 2.62 78.9 0 0 44.05 21.50
  L 41.17 20.46
  Q 41.04 20.05 41.29 19.79
  Q 41.60 19.47 42.00 19.69
  Q 42.52 19.98 42.62 19.95
  A 0.35 0.35 0.0 0 0 42.74 19.33
  Q 40.90 18.05 40.00 18.46
  A 0.79 0.78 -32.8 0 1 39.09 18.27
  C 35.13 13.83 28.63 15.48 27.45 21.50
  Q 27.13 23.17 27.35 25.40
  A 0.27 0.26 14.9 0 1 26.93 25.64
  C 24.76 24.10 22.33 23.35 19.82 25.06
  Q 16.56 27.28 16.43 31.27
  Q 16.40 32.29 17.81 34.61
  Q 18.21 35.26 18.20 35.48
  Q 18.16 36.24 18.26 36.37
  A 0.61 0.61 0.0 0 0 19.14 36.48
  Q 23.74 32.60 21.01 27.03
  A 1.39 1.39 0.0 0 1 22.49 25.05
  L 24.62 25.42
  A 3.46 3.46 0.0 0 1 27.44 28.22
  C 28.91 36.30 27.56 43.77 25.19 51.52
  A 0.45 0.45 0.0 0 0 25.54 52.10
  L 27.18 52.38
  A 0.77 0.77 0.0 0 0 28.07 51.75
  L 30.06 40.26
  A 3.67 3.66 79.9 0 1 31.84 37.70
  L 32.38 37.39
  A 1.03 1.03 0.0 0 1 33.92 38.40
  Q 33.36 43.08 37.38 44.39
  A 0.21 0.21 0.0 0 0 37.65 44.25
  C 38.78 40.05 35.41 34.71 31.00 37.18
  A 0.38 0.38 0.0 0 1 30.43 36.84
  Q 30.46 35.12 29.43 25.52
  C 28.86 20.27 30.76 15.29 36.99 18.02
  Q 37.99 18.45 37.85 19.40
  Q 37.64 20.79 36.19 20.54
  A 0.52 0.52 0.0 0 0 35.64 21.28
  Q 35.92 21.87 37.19 21.92
  A 1.02 1.01 28.4 0 0 37.84 21.73
  Q 39.39 20.60 41.17 20.46
  Z"
/>
<path fill="#ffffff" d="
  M 41.17 20.46
  Q 39.39 20.60 37.84 21.73
  A 1.02 1.01 28.4 0 1 37.19 21.92
  Q 35.92 21.87 35.64 21.28
  A 0.52 0.52 0.0 0 1 36.19 20.54
  Q 37.64 20.79 37.85 19.40
  Q 37.99 18.45 36.99 18.02
  C 30.76 15.29 28.86 20.27 29.43 25.52
  Q 30.46 35.12 30.43 36.84
  A 0.38 0.38 0.0 0 0 31.00 37.18
  C 35.41 34.71 38.78 40.05 37.65 44.25
  A 0.21 0.21 0.0 0 1 37.38 44.39
  Q 33.36 43.08 33.92 38.40
  A 1.03 1.03 0.0 0 0 32.38 37.39
  L 31.84 37.70
  A 3.67 3.66 79.9 0 0 30.06 40.26
  L 28.07 51.75
  A 0.77 0.77 0.0 0 1 27.18 52.38
  L 25.54 52.10
  A 0.45 0.45 0.0 0 1 25.19 51.52
  C 27.56 43.77 28.91 36.30 27.44 28.22
  A 3.46 3.46 0.0 0 0 24.62 25.42
  L 22.49 25.05
  A 1.39 1.39 0.0 0 0 21.01 27.03
  Q 23.74 32.60 19.14 36.48
  A 0.61 0.61 0.0 0 1 18.26 36.37
  Q 18.16 36.24 18.20 35.48
  Q 18.21 35.26 17.81 34.61
  Q 16.40 32.29 16.43 31.27
  Q 16.56 27.28 19.82 25.06
  C 22.33 23.35 24.76 24.10 26.93 25.64
  A 0.27 0.26 14.9 0 0 27.35 25.40
  Q 27.13 23.17 27.45 21.50
  C 28.63 15.48 35.13 13.83 39.09 18.27
  A 0.79 0.78 -32.8 0 0 40.00 18.46
  Q 40.90 18.05 42.74 19.33
  A 0.35 0.35 0.0 0 1 42.62 19.95
  Q 42.52 19.98 42.00 19.69
  Q 41.60 19.47 41.29 19.79
  Q 41.04 20.05 41.17 20.46
  Z"
/>
<path fill="#ffffff" d="
  M 41.17 20.46
  L 44.05 21.50
  A 2.64 2.62 78.9 0 1 45.17 22.26
  L 49.12 26.73
  A 1.46 1.44 -65.1 0 1 49.48 27.74
  Q 49.45 28.43 49.06 29.01
  A 0.80 0.79 -45.7 0 0 49.07 29.94
  Q 49.86 31.01 49.16 32.21
  A 0.76 0.76 0.0 0 1 48.89 32.48
  L 45.77 34.28
  A 0.53 0.52 60.8 0 1 45.05 34.07
  Q 44.65 33.35 43.49 34.06
  C 42.35 34.77 40.92 33.99 39.68 34.64
  A 1.03 1.02 -46.7 0 1 38.81 34.67
  Q 36.99 33.91 36.56 32.71
  A 0.92 0.91 85.0 0 0 35.85 32.11
  L 34.59 31.89
  A 0.66 0.66 0.0 0 1 34.12 30.92
  C 36.24 27.14 34.43 22.86 39.97 21.37
  Q 40.82 21.14 41.17 20.46
  Z"
/>
</svg>
