<?xml version="1.0" encoding="UTF-8" standalone="no"?>
<!DOCTYPE svg PUBLIC "-//W3C//DTD SVG 1.1//EN" "http://www.w3.org/Graphics/SVG/1.1/DTD/svg11.dtd">
<svg xmlns="http://www.w3.org/2000/svg" version="1.1" viewBox="0.00 0.00 66.00 88.00">
<g stroke-width="2.00" fill="none" stroke-linecap="butt">
<path stroke="#173f51" vector-effect="non-scaling-stroke" d="
  M 33.42 86.61
  C 33.55 86.61 33.73 86.60 33.82 86.51
  Q 49.98 70.88 57.57 56.54
  Q 62.68 46.89 63.83 38.52
  Q 66.75 17.24 48.23 6.23
  Q 42.08 2.57 33.51 2.56
  Q 24.93 2.55 18.77 6.20
  Q 0.23 17.17 3.11 38.46
  Q 4.24 46.83 9.33 56.49
  Q 16.90 70.85 33.02 86.50
  C 33.12 86.60 33.30 86.61 33.42 86.61"
/>
<path stroke="#8fa9b5" vector-effect="non-scaling-stroke" d="
  M 32.88 52.20
  Q 37.07 52.20 40.01 49.30
  Q 46.33 43.06 41.87 34.65
  C 38.79 28.85 34.85 23.99 33.03 17.42
  Q 32.99 17.28 32.88 17.28
  Q 32.78 17.28 32.74 17.42
  C 30.92 23.99 26.98 28.85 23.89 34.65
  Q 19.43 43.06 25.75 49.29
  Q 28.69 52.20 32.88 52.20"
/>
<path stroke="#8fa9b5" vector-effect="non-scaling-stroke" d="
  M 37.06 48.10
  Q 43.63 43.20 39.28 35.42
  Q 38.24 33.55 33.49 25.43
  A 0.21 0.21 0.0 0 0 33.09 25.54
  C 33.25 34.47 41.36 40.41 36.88 47.95
  A 0.12 0.12 0.0 0 0 37.06 48.10"
/>
<path stroke="#8fa9b5" vector-effect="non-scaling-stroke" d="
  M 25.34 44.00
  Q 26.69 47.66 30.84 49.28
  A 0.17 0.17 0.0 0 0 31.01 49.01
  Q 28.48 46.57 27.27 43.29
  Q 26.05 40.01 26.40 36.51
  A 0.17 0.17 0.0 0 0 26.08 36.41
  Q 23.98 40.34 25.34 44.00"
/>
</g>
<path fill="#0e2b37" d="
  M 33.79 88.00
  L 33.04 88.00
  C 16.59 73.14 -6.68 43.71 4.32 19.85
  C 12.38 2.38 33.98 -3.89 50.42 6.11
  Q 58.53 11.04 62.69 19.91
  C 66.92 28.94 65.92 39.91 62.33 49.05
  C 56.53 63.86 45.51 77.37 33.79 88.00
  Z
  M 33.42 86.61
  C 33.55 86.61 33.73 86.60 33.82 86.51
  Q 49.98 70.88 57.57 56.54
  Q 62.68 46.89 63.83 38.52
  Q 66.75 17.24 48.23 6.23
  Q 42.08 2.57 33.51 2.56
  Q 24.93 2.55 18.77 6.20
  Q 0.23 17.17 3.11 38.46
  Q 4.24 46.83 9.33 56.49
  Q 16.90 70.85 33.02 86.50
  C 33.12 86.60 33.30 86.61 33.42 86.61
  Z"
/>
<path fill="#1f526b" d="
  M 33.51 2.56
  Q 42.08 2.57 48.23 6.23
  Q 66.75 17.24 63.83 38.52
  Q 62.68 46.89 57.57 56.54
  Q 49.98 70.88 33.82 86.51
  C 33.73 86.60 33.55 86.61 33.42 86.61
  C 33.30 86.61 33.12 86.60 33.02 86.50
  Q 16.90 70.85 9.33 56.49
  Q 4.24 46.83 3.11 38.46
  Q 0.23 17.17 18.77 6.20
  Q 24.93 2.55 33.51 2.56
  Z
  M 32.88 52.20
  Q 37.07 52.20 40.01 49.30
  Q 46.33 43.06 41.87 34.65
  C 38.79 28.85 34.85 23.99 33.03 17.42
  Q 32.99 17.28 32.88 17.28
  Q 32.78 17.28 32.74 17.42
  C 30.92 23.99 26.98 28.85 23.89 34.65
  Q 19.43 43.06 25.75 49.29
  Q 28.69 52.20 32.88 52.20
  Z"
/>
<path fill="#ffffff" d="
  M 32.88 17.28
  Q 32.99 17.28 33.03 17.42
  C 34.85 23.99 38.79 28.85 41.87 34.65
  Q 46.33 43.06 40.01 49.30
  Q 37.07 52.20 32.88 52.20
  Q 28.69 52.20 25.75 49.29
  Q 19.43 43.06 23.89 34.65
  C 26.98 28.85 30.92 23.99 32.74 17.42
  Q 32.78 17.28 32.88 17.28
  Z
  M 37.06 48.10
  Q 43.63 43.20 39.28 35.42
  Q 38.24 33.55 33.49 25.43
  A 0.21 0.21 0.0 0 0 33.09 25.54
  C 33.25 34.47 41.36 40.41 36.88 47.95
  A 0.12 0.12 0.0 0 0 37.06 48.10
  Z
  M 25.34 44.00
  Q 26.69 47.66 30.84 49.28
  A 0.17 0.17 0.0 0 0 31.01 49.01
  Q 28.48 46.57 27.27 43.29
  Q 26.05 40.01 26.40 36.51
  A 0.17 0.17 0.0 0 0 26.08 36.41
  Q 23.98 40.34 25.34 44.00
  Z"
/>
<path fill="#1f526b" d="
  M 36.88 47.95
  C 41.36 40.41 33.25 34.47 33.09 25.54
  A 0.21 0.21 0.0 0 1 33.49 25.43
  Q 38.24 33.55 39.28 35.42
  Q 43.63 43.20 37.06 48.10
  A 0.12 0.12 0.0 0 1 36.88 47.95
  Z"
/>
<path fill="#1f526b" d="
  M 27.27 43.29
  Q 28.48 46.57 31.01 49.01
  A 0.17 0.17 0.0 0 1 30.84 49.28
  Q 26.69 47.66 25.34 44.00
  Q 23.98 40.34 26.08 36.41
  A 0.17 0.17 0.0 0 1 26.40 36.51
  Q 26.05 40.01 27.27 43.29
  Z"
/>
</svg>
