<?xml version="1.0" encoding="UTF-8" standalone="no"?>
<!DOCTYPE svg PUBLIC "-//W3C//DTD SVG 1.1//EN" "http://www.w3.org/Graphics/SVG/1.1/DTD/svg11.dtd">
<svg xmlns="http://www.w3.org/2000/svg" version="1.1" viewBox="0.00 0.00 66.00 88.00">
<g stroke-width="2.00" fill="none" stroke-linecap="butt">
<path stroke="#431a44" vector-effect="non-scaling-stroke" d="
  M 33.42 86.53
  Q 33.72 86.53 33.89 86.37
  C 51.40 70.17 78.30 35.35 55.64 11.86
  C 49.99 6.01 41.89 2.47 33.49 2.46
  C 25.08 2.45 16.97 5.99 11.32 11.83
  C -11.38 35.28 15.47 70.14 32.95 86.37
  Q 33.12 86.53 33.42 86.53"
/>
<path stroke="#ac91ac" vector-effect="non-scaling-stroke" d="
  M 41.44 26.97
  Q 40.40 29.35 39.43 29.70
  A 0.38 0.38 0.0 0 1 38.94 29.21
  C 41.08 23.45 31.06 22.62 33.54 16.43
  A 0.21 0.21 0.0 0 0 33.22 16.19
  C 30.19 18.43 29.05 21.34 29.63 25.10
  Q 29.95 27.15 29.85 29.07
  A 0.50 0.50 0.0 0 1 29.42 29.54
  L 29.40 29.54
  A 0.66 0.65 -11.0 0 1 28.66 29.05
  Q 28.36 27.83 27.51 26.47
  A 0.33 0.32 29.0 0 0 26.91 26.64
  L 26.91 27.41
  A 3.46 3.41 62.7 0 1 26.30 29.37
  C 24.16 32.44 20.19 36.99 25.41 39.77
  C 29.66 42.03 39.01 42.46 41.64 36.65
  Q 43.68 32.14 42.13 27.01
  A 0.37 0.37 0.0 0 0 41.44 26.97"
/>
<path stroke="#ac91ac" vector-effect="non-scaling-stroke" d="
  M 28.3876 16.2344
  A 2.42 0.30 -23.0 0 0 26.0428 16.9038
  A 2.42 0.30 -23.0 0 0 23.9324 18.1256
  A 2.42 0.30 -23.0 0 0 26.2772 17.4562
  A 2.42 0.30 -23.0 0 0 28.3876 16.2344"
/>
<path stroke="#ac91ac" vector-effect="non-scaling-stroke" d="
  M 37.93 16.43
  L 41.60 18.21
  A 0.11 0.11 0.0 0 0 41.73 18.19
  Q 42.00 17.93 41.91 17.71
  A 0.42 0.40 -88.8 0 0 41.68 17.46
  Q 39.36 16.34 38.00 16.20
  A 0.12 0.12 0.0 0 0 37.93 16.43"
/>
<path stroke="#ac91ac" vector-effect="non-scaling-stroke" d="
  M 17.43 29.03
  A 0.44 0.43 -85.3 0 0 17.86 28.66
  Q 18.43 25.28 20.40 22.04
  A 0.48 0.48 0.0 0 0 19.66 21.45
  Q 16.89 24.15 15.43 28.89
  A 0.11 0.11 0.0 0 0 15.53 29.03
  L 17.43 29.03"
/>
<path stroke="#ac91ac" vector-effect="non-scaling-stroke" d="
  M 48.71 28.98
  L 50.60 28.99
  A 0.11 0.11 0.0 0 0 50.70 28.85
  Q 49.26 24.11 46.51 21.40
  A 0.48 0.48 0.0 0 0 45.76 21.99
  Q 47.72 25.23 48.28 28.61
  A 0.44 0.43 85.6 0 0 48.71 28.98"
/>
<path stroke="#ac91ac" vector-effect="non-scaling-stroke" d="
  M 14.67 33.52
  Q 14.55 39.17 17.51 43.86
  A 0.22 0.21 -46.2 0 0 17.88 43.85
  L 20.33 39.62
  A 0.29 0.28 -47.7 0 0 20.32 39.33
  Q 18.52 36.75 18.02 33.66
  A 0.81 0.80 -4.6 0 0 17.22 32.99
  L 15.22 32.99
  A 0.55 0.54 0.5 0 0 14.67 33.52"
/>
<path stroke="#ac91ac" vector-effect="non-scaling-stroke" d="
  M 51.51 33.50
  A 0.55 0.54 -0.4 0 0 50.96 32.97
  L 48.96 32.97
  A 0.81 0.80 4.7 0 0 48.16 33.63
  Q 47.66 36.72 45.85 39.30
  A 0.29 0.28 47.8 0 0 45.84 39.59
  L 48.28 43.83
  A 0.22 0.21 46.3 0 0 48.65 43.84
  Q 51.62 39.15 51.51 33.50"
/>
<path stroke="#ac91ac" vector-effect="non-scaling-stroke" d="
  M 31.19 46.44
  A 0.47 0.46 -87.3 0 0 30.77 45.97
  Q 27.57 45.67 24.98 43.82
  A 0.66 0.65 -41.5 0 0 24.27 43.78
  L 20.17 46.15
  A 0.50 0.50 0.0 0 0 20.05 46.92
  Q 24.45 51.69 31.00 52.16
  A 0.18 0.18 0.0 0 0 31.19 51.98
  L 31.19 46.44"
/>
<path stroke="#ac91ac" vector-effect="non-scaling-stroke" d="
  M 35.02 46.42
  L 35.00 51.97
  A 0.18 0.18 0.0 0 0 35.19 52.15
  Q 41.75 51.71 46.18 46.95
  A 0.50 0.50 0.0 0 0 46.06 46.18
  L 41.97 43.79
  A 0.66 0.65 41.7 0 0 41.25 43.82
  Q 38.65 45.67 35.45 45.95
  A 0.47 0.46 87.6 0 0 35.02 46.42"
/>
<path stroke="#ac91ac" vector-effect="non-scaling-stroke" d="
  M 32.82 37.52
  L 32.82 38.86
  A 1.29 1.29 0.0 0 0 34.69 40.01
  Q 37.70 38.48 37.15 36.09
  A 2.44 2.39 -71.9 0 0 36.64 35.06
  Q 34.20 32.20 33.65 30.51
  A 0.31 0.31 0.0 0 0 33.08 30.47
  Q 32.33 32.02 29.59 34.67
  C 27.42 36.78 27.59 39.01 30.43 40.18
  A 0.69 0.69 0.0 0 0 31.38 39.49
  Q 31.32 38.67 32.12 37.33
  A 0.38 0.38 0.0 0 1 32.82 37.52"
/>
</g>
<path fill="#2e112e" d="
  M 33.81 88.00
  L 33.04 88.00
  C 21.72 77.71 12.19 65.75 5.68 51.55
  Q 2.13 43.81 1.57 34.90
  C 0.36 15.29 17.03 -0.50 36.85 1.51
  C 53.96 3.24 66.54 18.02 65.42 35.06
  C 64.07 55.32 48.16 74.88 33.81 88.00
  Z
  M 33.42 86.53
  Q 33.72 86.53 33.89 86.37
  C 51.40 70.17 78.30 35.35 55.64 11.86
  C 49.99 6.01 41.89 2.47 33.49 2.46
  C 25.08 2.45 16.97 5.99 11.32 11.83
  C -11.38 35.28 15.47 70.14 32.95 86.37
  Q 33.12 86.53 33.42 86.53
  Z"
/>
<path fill="#582359" d="
  M 33.49 2.46
  C 41.89 2.47 49.99 6.01 55.64 11.86
  C 78.30 35.35 51.40 70.17 33.89 86.37
  Q 33.72 86.53 33.42 86.53
  Q 33.12 86.53 32.95 86.37
  C 15.47 70.14 -11.38 35.28 11.32 11.83
  C 16.97 5.99 25.08 2.45 33.49 2.46
  Z
  M 41.44 26.97
  Q 40.40 29.35 39.43 29.70
  A 0.38 0.38 0.0 0 1 38.94 29.21
  C 41.08 23.45 31.06 22.62 33.54 16.43
  A 0.21 0.21 0.0 0 0 33.22 16.19
  C 30.19 18.43 29.05 21.34 29.63 25.10
  Q 29.95 27.15 29.85 29.07
  A 0.50 0.50 0.0 0 1 29.42 29.54
  L 29.40 29.54
  A 0.66 0.65 -11.0 0 1 28.66 29.05
  Q 28.36 27.83 27.51 26.47
  A 0.33 0.32 29.0 0 0 26.91 26.64
  L 26.91 27.41
  A 3.46 3.41 62.7 0 1 26.30 29.37
  C 24.16 32.44 20.19 36.99 25.41 39.77
  C 29.66 42.03 39.01 42.46 41.64 36.65
  Q 43.68 32.14 42.13 27.01
  A 0.37 0.37 0.0 0 0 41.44 26.97
  Z
  M 28.3876 16.2344
  A 2.42 0.30 -23.0 0 0 26.0428 16.9038
  A 2.42 0.30 -23.0 0 0 23.9324 18.1256
  A 2.42 0.30 -23.0 0 0 26.2772 17.4562
  A 2.42 0.30 -23.0 0 0 28.3876 16.2344
  Z
  M 37.93 16.43
  L 41.60 18.21
  A 0.11 0.11 0.0 0 0 41.73 18.19
  Q 42.00 17.93 41.91 17.71
  A 0.42 0.40 -88.8 0 0 41.68 17.46
  Q 39.36 16.34 38.00 16.20
  A 0.12 0.12 0.0 0 0 37.93 16.43
  Z
  M 17.43 29.03
  A 0.44 0.43 -85.3 0 0 17.86 28.66
  Q 18.43 25.28 20.40 22.04
  A 0.48 0.48 0.0 0 0 19.66 21.45
  Q 16.89 24.15 15.43 28.89
  A 0.11 0.11 0.0 0 0 15.53 29.03
  L 17.43 29.03
  Z
  M 48.71 28.98
  L 50.60 28.99
  A 0.11 0.11 0.0 0 0 50.70 28.85
  Q 49.26 24.11 46.51 21.40
  A 0.48 0.48 0.0 0 0 45.76 21.99
  Q 47.72 25.23 48.28 28.61
  A 0.44 0.43 85.6 0 0 48.71 28.98
  Z
  M 14.67 33.52
  Q 14.55 39.17 17.51 43.86
  A 0.22 0.21 -46.2 0 0 17.88 43.85
  L 20.33 39.62
  A 0.29 0.28 -47.7 0 0 20.32 39.33
  Q 18.52 36.75 18.02 33.66
  A 0.81 0.80 -4.6 0 0 17.22 32.99
  L 15.22 32.99
  A 0.55 0.54 0.5 0 0 14.67 33.52
  Z
  M 51.51 33.50
  A 0.55 0.54 -0.4 0 0 50.96 32.97
  L 48.96 32.97
  A 0.81 0.80 4.7 0 0 48.16 33.63
  Q 47.66 36.72 45.85 39.30
  A 0.29 0.28 47.8 0 0 45.84 39.59
  L 48.28 43.83
  A 0.22 0.21 46.3 0 0 48.65 43.84
  Q 51.62 39.15 51.51 33.50
  Z
  M 31.19 46.44
  A 0.47 0.46 -87.3 0 0 30.77 45.97
  Q 27.57 45.67 24.98 43.82
  A 0.66 0.65 -41.5 0 0 24.27 43.78
  L 20.17 46.15
  A 0.50 0.50 0.0 0 0 20.05 46.92
  Q 24.45 51.69 31.00 52.16
  A 0.18 0.18 0.0 0 0 31.19 51.98
  L 31.19 46.44
  Z
  M 35.02 46.42
  L 35.00 51.97
  A 0.18 0.18 0.0 0 0 35.19 52.15
  Q 41.75 51.71 46.18 46.95
  A 0.50 0.50 0.0 0 0 46.06 46.18
  L 41.97 43.79
  A 0.66 0.65 41.7 0 0 41.25 43.82
  Q 38.65 45.67 35.45 45.95
  A 0.47 0.46 87.6 0 0 35.02 46.42
  Z"
/>
<path fill="#ffffff" d="
  M 42.13 27.01
  Q 43.68 32.14 41.64 36.65
  C 39.01 42.46 29.66 42.03 25.41 39.77
  C 20.19 36.99 24.16 32.44 26.30 29.37
  A 3.46 3.41 62.7 0 0 26.91 27.41
  L 26.91 26.64
  A 0.33 0.32 29.0 0 1 27.51 26.47
  Q 28.36 27.83 28.66 29.05
  A 0.66 0.65 -11.0 0 0 29.40 29.54
  L 29.42 29.54
  A 0.50 0.50 0.0 0 0 29.85 29.07
  Q 29.95 27.15 29.63 25.10
  C 29.05 21.34 30.19 18.43 33.22 16.19
  A 0.21 0.21 0.0 0 1 33.54 16.43
  C 31.06 22.62 41.08 23.45 38.94 29.21
  A 0.38 0.38 0.0 0 0 39.43 29.70
  Q 40.40 29.35 41.44 26.97
  A 0.37 0.37 0.0 0 1 42.13 27.01
  Z
  M 32.82 37.52
  L 32.82 38.86
  A 1.29 1.29 0.0 0 0 34.69 40.01
  Q 37.70 38.48 37.15 36.09
  A 2.44 2.39 -71.9 0 0 36.64 35.06
  Q 34.20 32.20 33.65 30.51
  A 0.31 0.31 0.0 0 0 33.08 30.47
  Q 32.33 32.02 29.59 34.67
  C 27.42 36.78 27.59 39.01 30.43 40.18
  A 0.69 0.69 0.0 0 0 31.38 39.49
  Q 31.32 38.67 32.12 37.33
  A 0.38 0.38 0.0 0 1 32.82 37.52
  Z"
/>
<ellipse fill="#ffffff" cx="0.00" cy="0.00" transform="translate(26.16,17.18) rotate(-23.0)" rx="2.42" ry="0.30"/>
<path fill="#ffffff" d="
  M 38.00 16.20
  Q 39.36 16.34 41.68 17.46
  A 0.42 0.40 -88.8 0 1 41.91 17.71
  Q 42.00 17.93 41.73 18.19
  A 0.11 0.11 0.0 0 1 41.60 18.21
  L 37.93 16.43
  A 0.12 0.12 0.0 0 1 38.00 16.20
  Z"
/>
<path fill="#ffffff" d="
  M 15.43 28.89
  Q 16.89 24.15 19.66 21.45
  A 0.48 0.48 0.0 0 1 20.40 22.04
  Q 18.43 25.28 17.86 28.66
  A 0.44 0.43 -85.3 0 1 17.43 29.03
  L 15.53 29.03
  A 0.11 0.11 0.0 0 1 15.43 28.89
  Z"
/>
<path fill="#ffffff" d="
  M 48.71 28.98
  A 0.44 0.43 85.6 0 1 48.28 28.61
  Q 47.72 25.23 45.76 21.99
  A 0.48 0.48 0.0 0 1 46.51 21.40
  Q 49.26 24.11 50.70 28.85
  A 0.11 0.11 0.0 0 1 50.60 28.99
  L 48.71 28.98
  Z"
/>
<path fill="#582359" d="
  M 32.12 37.33
  Q 31.32 38.67 31.38 39.49
  A 0.69 0.69 0.0 0 1 30.43 40.18
  C 27.59 39.01 27.42 36.78 29.59 34.67
  Q 32.33 32.02 33.08 30.47
  A 0.31 0.31 0.0 0 1 33.65 30.51
  Q 34.20 32.20 36.64 35.06
  A 2.44 2.39 -71.9 0 1 37.15 36.09
  Q 37.70 38.48 34.69 40.01
  A 1.29 1.29 0.0 0 1 32.82 38.86
  L 32.82 37.52
  A 0.38 0.38 0.0 0 0 32.12 37.33
  Z"
/>
<path fill="#ffffff" d="
  M 15.22 32.99
  L 17.22 32.99
  A 0.81 0.80 -4.6 0 1 18.02 33.66
  Q 18.52 36.75 20.32 39.33
  A 0.29 0.28 -47.7 0 1 20.33 39.62
  L 17.88 43.85
  A 0.22 0.21 -46.2 0 1 17.51 43.86
  Q 14.55 39.17 14.67 33.52
  A 0.55 0.54 0.5 0 1 15.22 32.99
  Z"
/>
<path fill="#ffffff" d="
  M 51.51 33.50
  Q 51.62 39.15 48.65 43.84
  A 0.22 0.21 46.3 0 1 48.28 43.83
  L 45.84 39.59
  A 0.29 0.28 47.8 0 1 45.85 39.30
  Q 47.66 36.72 48.16 33.63
  A 0.81 0.80 4.7 0 1 48.96 32.97
  L 50.96 32.97
  A 0.55 0.54 -0.4 0 1 51.51 33.50
  Z"
/>
<path fill="#ffffff" d="
  M 31.00 52.16
  Q 24.45 51.69 20.05 46.92
  A 0.50 0.50 0.0 0 1 20.17 46.15
  L 24.27 43.78
  A 0.66 0.65 -41.5 0 1 24.98 43.82
  Q 27.57 45.67 30.77 45.97
  A 0.47 0.46 -87.3 0 1 31.19 46.44
  L 31.19 51.98
  A 0.18 0.18 0.0 0 1 31.00 52.16
  Z"
/>
<path fill="#ffffff" d="
  M 35.02 46.42
  A 0.47 0.46 87.6 0 1 35.45 45.95
  Q 38.65 45.67 41.25 43.82
  A 0.66 0.65 41.7 0 1 41.97 43.79
  L 46.06 46.18
  A 0.50 0.50 0.0 0 1 46.18 46.95
  Q 41.75 51.71 35.19 52.15
  A 0.18 0.18 0.0 0 1 35.00 51.97
  L 35.02 46.42
  Z"
/>
</svg>
