<?xml version="1.0" encoding="UTF-8" standalone="no"?>
<!DOCTYPE svg PUBLIC "-//W3C//DTD SVG 1.1//EN" "http://www.w3.org/Graphics/SVG/1.1/DTD/svg11.dtd">
<svg xmlns="http://www.w3.org/2000/svg" version="1.1" viewBox="0.00 0.00 66.00 88.00">
<g stroke-width="2.00" fill="none" stroke-linecap="butt">
<path stroke="#316b60" vector-effect="non-scaling-stroke" d="
  M 33.41 86.71
  Q 33.52 86.71 33.61 86.68
  Q 33.69 86.66 33.77 86.59
  C 51.03 70.63 77.62 36.30 56.64 12.88
  Q 48.07 3.31 34.99 2.51
  Q 34.13 2.45 33.53 2.45
  Q 32.93 2.45 32.07 2.50
  Q 18.99 3.27 10.39 12.81
  C -10.66 36.17 15.83 70.58 33.05 86.59
  Q 33.13 86.66 33.20 86.68
  Q 33.30 86.71 33.41 86.71"
/>
<path stroke="#a1c6bf" vector-effect="non-scaling-stroke" d="
  M 29.86 34.65
  L 30.96 33.55
  A 0.47 0.47 0.0 0 0 30.96 32.88
  L 19.86 21.85
  A 5.62 1.20 44.8 0 0 15.02 18.75
  L 14.95 18.82
  A 5.62 1.20 44.8 0 0 18.09 23.63
  L 29.20 34.66
  A 0.47 0.47 0.0 0 0 29.86 34.65"
/>
<path stroke="#a1c6bf" vector-effect="non-scaling-stroke" d="
  M 27.56 40.91
  L 28.92 42.26
  A 0.29 0.29 0.0 0 0 29.34 42.26
  L 45.39 26.15
  A 9.03 0.65 -45.1 0 0 51.30 19.30
  L 50.45 18.45
  A 9.03 0.65 -45.1 0 0 43.62 24.39
  L 27.56 40.50
  A 0.29 0.29 0.0 0 0 27.56 40.91"
/>
<path stroke="#a1c6bf" vector-effect="non-scaling-stroke" d="
  M 38.2703 41.0997
  A 0.58 0.58 0.0 0 0 38.2545 40.2796
  L 36.7990 38.8790
  A 0.58 0.58 0.0 0 0 35.9789 38.8947
  L 35.0497 39.8603
  A 0.58 0.58 0.0 0 0 35.0655 40.6804
  L 36.5210 42.0810
  A 0.58 0.58 0.0 0 0 37.3411 42.0653
  L 38.2703 41.0997"
/>
<path stroke="#a1c6bf" vector-effect="non-scaling-stroke" d="
  M 24.7089 38.9507
  A 0.58 0.58 0.0 0 0 23.8886 38.9492
  L 23.3503 39.4857
  A 0.58 0.58 0.0 0 0 23.3489 40.3059
  L 29.3911 46.3693
  A 0.58 0.58 0.0 0 0 30.2114 46.3708
  L 30.7497 45.8343
  A 0.58 0.58 0.0 0 0 30.7511 45.0141
  L 24.7089 38.9507"
/>
<path stroke="#a1c6bf" vector-effect="non-scaling-stroke" d="
  M 42.6111 40.3118
  A 0.59 0.59 0.0 0 0 42.6097 39.4774
  L 42.0997 38.9692
  A 0.59 0.59 0.0 0 0 41.2653 38.9706
  L 35.2089 45.0482
  A 0.59 0.59 0.0 0 0 35.2103 45.8826
  L 35.7203 46.3908
  A 0.59 0.59 0.0 0 0 36.5547 46.3894
  L 42.6111 40.3118"
/>
<path stroke="#a1c6bf" vector-effect="non-scaling-stroke" d="
  M 25.7362 43.3465
  A 0.94 0.94 0.0 0 0 24.4075 43.3048
  L 23.6347 44.0304
  A 0.94 0.94 0.0 0 0 23.5930 45.3591
  L 24.2638 46.0735
  A 0.94 0.94 0.0 0 0 25.5925 46.1152
  L 26.3653 45.3896
  A 0.94 0.94 0.0 0 0 26.4070 44.0609
  L 25.7362 43.3465"
/>
<path stroke="#a1c6bf" vector-effect="non-scaling-stroke" d="
  M 42.31 45.41
  Q 42.38 45.32 42.49 45.20
  A 0.74 0.73 48.9 0 0 42.55 44.29
  Q 42.03 43.55 41.40 43.29
  A 1.44 1.36 1.5 0 0 39.49 45.01
  Q 40.02 46.40 41.26 46.26
  A 0.62 0.61 -3.3 0 1 41.95 46.87
  L 41.95 47.62
  A 1.48 1.48 0.0 0 0 44.84 48.08
  Q 45.52 45.98 43.69 45.91
  Q 43.09 45.89 42.52 45.85
  A 0.28 0.28 0.0 0 1 42.31 45.41"
/>
<path stroke="#a1c6bf" vector-effect="non-scaling-stroke" d="
  M 23.99 47.35
  A 1.55 1.55 0.0 0 0 22.44 45.80
  A 1.55 1.55 0.0 0 0 20.89 47.35
  A 1.55 1.55 0.0 0 0 22.44 48.90
  A 1.55 1.55 0.0 0 0 23.99 47.35"
/>
</g>
<path fill="#1f4940" d="
  M 33.81 88.00
  L 33.04 88.00
  C 21.94 77.91 11.93 65.51 5.64 51.57
  Q 2.23 44.01 1.60 34.89
  C 0.50 19.03 11.27 5.60 26.48 2.12
  C 41.12 -1.23 55.86 5.94 62.58 19.70
  C 66.93 28.60 65.94 39.78 62.41 48.85
  C 56.57 63.81 45.60 77.24 33.81 88.00
  Z
  M 33.41 86.71
  Q 33.52 86.71 33.61 86.68
  Q 33.69 86.66 33.77 86.59
  C 51.03 70.63 77.62 36.30 56.64 12.88
  Q 48.07 3.31 34.99 2.51
  Q 34.13 2.45 33.53 2.45
  Q 32.93 2.45 32.07 2.50
  Q 18.99 3.27 10.39 12.81
  C -10.66 36.17 15.83 70.58 33.05 86.59
  Q 33.13 86.66 33.20 86.68
  Q 33.30 86.71 33.41 86.71
  Z"
/>
<path fill="#428c7f" d="
  M 33.53 2.45
  Q 34.13 2.45 34.99 2.51
  Q 48.07 3.31 56.64 12.88
  C 77.62 36.30 51.03 70.63 33.77 86.59
  Q 33.69 86.66 33.61 86.68
  Q 33.52 86.71 33.41 86.71
  Q 33.30 86.71 33.20 86.68
  Q 33.13 86.66 33.05 86.59
  C 15.83 70.58 -10.66 36.17 10.39 12.81
  Q 18.99 3.27 32.07 2.50
  Q 32.93 2.45 33.53 2.45
  Z
  M 29.86 34.65
  L 30.96 33.55
  A 0.47 0.47 0.0 0 0 30.96 32.88
  L 19.86 21.85
  A 5.62 1.20 44.8 0 0 15.02 18.75
  L 14.95 18.82
  A 5.62 1.20 44.8 0 0 18.09 23.63
  L 29.20 34.66
  A 0.47 0.47 0.0 0 0 29.86 34.65
  Z
  M 27.56 40.91
  L 28.92 42.26
  A 0.29 0.29 0.0 0 0 29.34 42.26
  L 45.39 26.15
  A 9.03 0.65 -45.1 0 0 51.30 19.30
  L 50.45 18.45
  A 9.03 0.65 -45.1 0 0 43.62 24.39
  L 27.56 40.50
  A 0.29 0.29 0.0 0 0 27.56 40.91
  Z
  M 38.2703 41.0997
  A 0.58 0.58 0.0 0 0 38.2545 40.2796
  L 36.7990 38.8790
  A 0.58 0.58 0.0 0 0 35.9789 38.8947
  L 35.0497 39.8603
  A 0.58 0.58 0.0 0 0 35.0655 40.6804
  L 36.5210 42.0810
  A 0.58 0.58 0.0 0 0 37.3411 42.0653
  L 38.2703 41.0997
  Z
  M 24.7089 38.9507
  A 0.58 0.58 0.0 0 0 23.8886 38.9492
  L 23.3503 39.4857
  A 0.58 0.58 0.0 0 0 23.3489 40.3059
  L 29.3911 46.3693
  A 0.58 0.58 0.0 0 0 30.2114 46.3708
  L 30.7497 45.8343
  A 0.58 0.58 0.0 0 0 30.7511 45.0141
  L 24.7089 38.9507
  Z
  M 42.6111 40.3118
  A 0.59 0.59 0.0 0 0 42.6097 39.4774
  L 42.0997 38.9692
  A 0.59 0.59 0.0 0 0 41.2653 38.9706
  L 35.2089 45.0482
  A 0.59 0.59 0.0 0 0 35.2103 45.8826
  L 35.7203 46.3908
  A 0.59 0.59 0.0 0 0 36.5547 46.3894
  L 42.6111 40.3118
  Z
  M 25.7362 43.3465
  A 0.94 0.94 0.0 0 0 24.4075 43.3048
  L 23.6347 44.0304
  A 0.94 0.94 0.0 0 0 23.5930 45.3591
  L 24.2638 46.0735
  A 0.94 0.94 0.0 0 0 25.5925 46.1152
  L 26.3653 45.3896
  A 0.94 0.94 0.0 0 0 26.4070 44.0609
  L 25.7362 43.3465
  Z
  M 42.31 45.41
  Q 42.38 45.32 42.49 45.20
  A 0.74 0.73 48.9 0 0 42.55 44.29
  Q 42.03 43.55 41.40 43.29
  A 1.44 1.36 1.5 0 0 39.49 45.01
  Q 40.02 46.40 41.26 46.26
  A 0.62 0.61 -3.3 0 1 41.95 46.87
  L 41.95 47.62
  A 1.48 1.48 0.0 0 0 44.84 48.08
  Q 45.52 45.98 43.69 45.91
  Q 43.09 45.89 42.52 45.85
  A 0.28 0.28 0.0 0 1 42.31 45.41
  Z
  M 23.99 47.35
  A 1.55 1.55 0.0 0 0 22.44 45.80
  A 1.55 1.55 0.0 0 0 20.89 47.35
  A 1.55 1.55 0.0 0 0 22.44 48.90
  A 1.55 1.55 0.0 0 0 23.99 47.35
  Z"
/>
<path fill="#ffffff" d="
  M 29.86 34.65
  A 0.47 0.47 0.0 0 1 29.20 34.66
  L 18.09 23.63
  A 5.62 1.20 44.8 0 1 14.95 18.82
  L 15.02 18.75
  A 5.62 1.20 44.8 0 1 19.86 21.85
  L 30.96 32.88
  A 0.47 0.47 0.0 0 1 30.96 33.55
  L 29.86 34.65
  Z"
/>
<path fill="#ffffff" d="
  M 27.56 40.91
  A 0.29 0.29 0.0 0 1 27.56 40.50
  L 43.62 24.39
  A 9.03 0.65 -45.1 0 1 50.45 18.45
  L 51.30 19.30
  A 9.03 0.65 -45.1 0 1 45.39 26.15
  L 29.34 42.26
  A 0.29 0.29 0.0 0 1 28.92 42.26
  L 27.56 40.91
  Z"
/>
<rect fill="#ffffff" x="-1.59" y="-1.25" transform="translate(36.66,40.48) rotate(43.9)" width="3.18" height="2.50" rx="0.58"/>
<rect fill="#ffffff" x="-0.96" y="-4.86" transform="translate(27.05,42.66) rotate(-44.9)" width="1.92" height="9.72" rx="0.58"/>
<rect fill="#ffffff" x="-0.95" y="-4.88" transform="translate(38.91,42.68) rotate(44.9)" width="1.90" height="9.76" rx="0.59"/>
<rect fill="#ffffff" x="-1.47" y="-1.43" transform="translate(25.00,44.71) rotate(-43.2)" width="2.94" height="2.86" rx="0.94"/>
<path fill="#ffffff" d="
  M 42.52 45.85
  Q 43.09 45.89 43.69 45.91
  Q 45.52 45.98 44.84 48.08
  A 1.48 1.48 0.0 0 1 41.95 47.62
  L 41.95 46.87
  A 0.62 0.61 -3.3 0 0 41.26 46.26
  Q 40.02 46.40 39.49 45.01
  A 1.44 1.36 1.5 0 1 41.40 43.29
  Q 42.03 43.55 42.55 44.29
  A 0.74 0.73 48.9 0 1 42.49 45.20
  Q 42.38 45.32 42.31 45.41
  A 0.28 0.28 0.0 0 0 42.52 45.85
  Z"
/>
<circle fill="#ffffff" cx="22.44" cy="47.35" r="1.55"/>
</svg>
