<?xml version="1.0" encoding="UTF-8" standalone="no"?>
<!DOCTYPE svg PUBLIC "-//W3C//DTD SVG 1.1//EN" "http://www.w3.org/Graphics/SVG/1.1/DTD/svg11.dtd">
<svg xmlns="http://www.w3.org/2000/svg" version="1.1" viewBox="0.00 0.00 66.00 88.00">
<g stroke-width="2.00" fill="none" stroke-linecap="butt">
<path stroke="#173f51" vector-effect="non-scaling-stroke" d="
  M 33.43 86.62
  C 33.58 86.62 33.72 86.61 33.82 86.50
  Q 49.87 71.02 57.57 56.54
  Q 62.79 46.71 63.88 38.04
  Q 66.52 17.08 48.22 6.23
  Q 42.05 2.57 33.49 2.56
  Q 24.94 2.56 18.76 6.21
  Q 0.45 17.03 3.05 37.99
  Q 4.13 46.66 9.33 56.50
  Q 17.01 70.99 33.04 86.50
  C 33.14 86.61 33.27 86.62 33.43 86.62"
/>
<path stroke="#8fa9b5" vector-effect="non-scaling-stroke" d="
  M 32.89 33.32
  Q 33.49 33.32 33.49 32.69
  Q 33.49 31.65 33.53 27.49
  A 2.31 2.27 -35.8 0 1 33.66 26.73
  L 36.84 17.50
  A 0.74 0.73 22.5 0 0 36.46 16.61
  Q 34.80 15.81 32.87 15.81
  Q 30.94 15.81 29.28 16.62
  A 0.74 0.73 -22.6 0 0 28.90 17.51
  L 32.11 26.73
  A 2.31 2.27 35.6 0 1 32.24 27.49
  Q 32.29 31.65 32.30 32.69
  Q 32.30 33.32 32.89 33.32"
/>
<path stroke="#8fa9b5" vector-effect="non-scaling-stroke" d="
  M 32.87 35.07
  Q 32.05 35.07 31.63 34.99
  A 0.80 0.80 0.0 0 1 30.99 34.29
  L 30.63 30.61
  A 0.45 0.44 54.0 0 0 29.78 30.47
  Q 29.25 31.71 29.65 33.60
  A 0.36 0.36 0.0 0 1 29.06 33.95
  Q 23.65 29.12 28.48 23.41
  A 0.82 0.81 -35.1 0 0 28.62 22.61
  L 27.95 20.73
  A 0.44 0.43 -32.3 0 0 27.23 20.57
  L 25.44 22.36
  A 1.20 1.20 0.0 0 1 24.57 22.71
  Q 21.77 22.64 19.21 24.82
  A 0.48 0.48 0.0 0 0 19.60 25.66
  Q 20.60 25.50 20.93 25.60
  A 0.74 0.73 15.9 0 1 21.42 26.48
  Q 21.40 26.58 20.78 27.18
  Q 20.66 27.29 20.71 27.48
  Q 20.74 27.62 20.89 27.77
  Q 21.13 28.00 21.37 27.79
  Q 22.28 27.01 22.68 27.54
  A 0.44 0.42 38.2 0 1 22.73 27.92
  L 21.88 30.39
  A 0.53 0.47 46.4 0 0 21.89 30.74
  L 23.70 35.86
  A 1.55 1.45 -74.1 0 0 23.89 36.23
  C 25.38 38.46 28.68 41.90 30.88 38.57
  A 1.22 1.21 13.5 0 1 31.74 38.04
  Q 32.21 37.99 32.88 37.99
  Q 33.54 37.99 34.01 38.04
  A 1.22 1.21 -13.6 0 1 34.87 38.57
  C 37.08 41.89 40.37 38.45 41.86 36.22
  A 1.55 1.45 74.0 0 0 42.05 35.85
  L 43.85 30.72
  A 0.53 0.47 -46.5 0 0 43.86 30.37
  L 43.01 27.90
  A 0.44 0.42 -38.3 0 1 43.06 27.52
  Q 43.45 26.99 44.37 27.77
  Q 44.61 27.98 44.85 27.75
  Q 45.00 27.60 45.03 27.46
  Q 45.08 27.27 44.96 27.16
  Q 44.33 26.56 44.31 26.46
  A 0.74 0.73 -16.0 0 1 44.80 25.58
  Q 45.13 25.48 46.13 25.64
  A 0.48 0.48 0.0 0 0 46.52 24.80
  Q 43.96 22.62 41.16 22.70
  A 1.20 1.20 0.0 0 1 40.29 22.35
  L 38.50 20.56
  A 0.44 0.43 32.2 0 0 37.78 20.72
  L 37.11 22.60
  A 0.82 0.81 35.0 0 0 37.25 23.40
  Q 42.09 29.11 36.69 33.94
  A 0.36 0.36 0.0 0 1 36.10 33.60
  Q 36.49 31.70 35.96 30.47
  A 0.45 0.44 -54.1 0 0 35.11 30.61
  L 34.76 34.29
  A 0.80 0.80 0.0 0 1 34.11 34.99
  Q 33.70 35.07 32.87 35.07"
/>
<path stroke="#8fa9b5" vector-effect="non-scaling-stroke" d="
  M 33.38 40.05
  L 32.42 40.05
  A 0.23 0.23 0.0 0 0 32.19 40.27
  L 32.19 40.40
  A 11.20 0.66 -89.5 0 0 32.75 51.61
  L 32.85 51.61
  A 11.20 0.66 -89.5 0 0 33.61 40.42
  L 33.61 40.29
  A 0.23 0.23 0.0 0 0 33.38 40.05"
/>
<path stroke="#8fa9b5" vector-effect="non-scaling-stroke" d="
  M 27.23 37.73
  Q 28.15 38.34 29.19 38.22
  A 0.38 0.38 0.0 0 0 29.30 37.48
  Q 28.10 36.94 27.85 36.77
  Q 27.60 36.61 26.62 35.73
  A 0.38 0.38 0.0 0 0 26.00 36.12
  Q 26.29 37.12 27.23 37.73"
/>
<path stroke="#8fa9b5" vector-effect="non-scaling-stroke" d="
  M 38.56 37.70
  Q 39.53 37.08 39.84 36.05
  A 0.39 0.39 0.0 0 0 39.21 35.64
  Q 38.20 36.54 37.94 36.71
  Q 37.67 36.87 36.44 37.42
  A 0.39 0.39 0.0 0 0 36.55 38.17
  Q 37.61 38.31 38.56 37.70"
/>
</g>
<path fill="#0e2b37" d="
  M 33.81 88.00
  L 33.04 88.00
  C 19.69 75.95 4.46 57.11 1.96 38.76
  Q -0.22 22.72 9.42 12.09
  Q 18.51 2.06 32.03 1.37
  C 45.18 0.69 57.86 8.42 63.00 20.61
  C 73.15 44.61 50.18 73.05 33.81 88.00
  Z
  M 33.43 86.62
  C 33.58 86.62 33.72 86.61 33.82 86.50
  Q 49.87 71.02 57.57 56.54
  Q 62.79 46.71 63.88 38.04
  Q 66.52 17.08 48.22 6.23
  Q 42.05 2.57 33.49 2.56
  Q 24.94 2.56 18.76 6.21
  Q 0.45 17.03 3.05 37.99
  Q 4.13 46.66 9.33 56.50
  Q 17.01 70.99 33.04 86.50
  C 33.14 86.61 33.27 86.62 33.43 86.62
  Z"
/>
<path fill="#1f526b" d="
  M 33.49 2.56
  Q 42.05 2.57 48.22 6.23
  Q 66.52 17.08 63.88 38.04
  Q 62.79 46.71 57.57 56.54
  Q 49.87 71.02 33.82 86.50
  C 33.72 86.61 33.58 86.62 33.43 86.62
  C 33.27 86.62 33.14 86.61 33.04 86.50
  Q 17.01 70.99 9.33 56.50
  Q 4.13 46.66 3.05 37.99
  Q 0.45 17.03 18.76 6.21
  Q 24.94 2.56 33.49 2.56
  Z
  M 32.89 33.32
  Q 33.49 33.32 33.49 32.69
  Q 33.49 31.65 33.53 27.49
  A 2.31 2.27 -35.8 0 1 33.66 26.73
  L 36.84 17.50
  A 0.74 0.73 22.5 0 0 36.46 16.61
  Q 34.80 15.81 32.87 15.81
  Q 30.94 15.81 29.28 16.62
  A 0.74 0.73 -22.6 0 0 28.90 17.51
  L 32.11 26.73
  A 2.31 2.27 35.6 0 1 32.24 27.49
  Q 32.29 31.65 32.30 32.69
  Q 32.30 33.32 32.89 33.32
  Z
  M 32.87 35.07
  Q 32.05 35.07 31.63 34.99
  A 0.80 0.80 0.0 0 1 30.99 34.29
  L 30.63 30.61
  A 0.45 0.44 54.0 0 0 29.78 30.47
  Q 29.25 31.71 29.65 33.60
  A 0.36 0.36 0.0 0 1 29.06 33.95
  Q 23.65 29.12 28.48 23.41
  A 0.82 0.81 -35.1 0 0 28.62 22.61
  L 27.95 20.73
  A 0.44 0.43 -32.3 0 0 27.23 20.57
  L 25.44 22.36
  A 1.20 1.20 0.0 0 1 24.57 22.71
  Q 21.77 22.64 19.21 24.82
  A 0.48 0.48 0.0 0 0 19.60 25.66
  Q 20.60 25.50 20.93 25.60
  A 0.74 0.73 15.9 0 1 21.42 26.48
  Q 21.40 26.58 20.78 27.18
  Q 20.66 27.29 20.71 27.48
  Q 20.74 27.62 20.89 27.77
  Q 21.13 28.00 21.37 27.79
  Q 22.28 27.01 22.68 27.54
  A 0.44 0.42 38.2 0 1 22.73 27.92
  L 21.88 30.39
  A 0.53 0.47 46.4 0 0 21.89 30.74
  L 23.70 35.86
  A 1.55 1.45 -74.1 0 0 23.89 36.23
  C 25.38 38.46 28.68 41.90 30.88 38.57
  A 1.22 1.21 13.5 0 1 31.74 38.04
  Q 32.21 37.99 32.88 37.99
  Q 33.54 37.99 34.01 38.04
  A 1.22 1.21 -13.6 0 1 34.87 38.57
  C 37.08 41.89 40.37 38.45 41.86 36.22
  A 1.55 1.45 74.0 0 0 42.05 35.85
  L 43.85 30.72
  A 0.53 0.47 -46.5 0 0 43.86 30.37
  L 43.01 27.90
  A 0.44 0.42 -38.3 0 1 43.06 27.52
  Q 43.45 26.99 44.37 27.77
  Q 44.61 27.98 44.85 27.75
  Q 45.00 27.60 45.03 27.46
  Q 45.08 27.27 44.96 27.16
  Q 44.33 26.56 44.31 26.46
  A 0.74 0.73 -16.0 0 1 44.80 25.58
  Q 45.13 25.48 46.13 25.64
  A 0.48 0.48 0.0 0 0 46.52 24.80
  Q 43.96 22.62 41.16 22.70
  A 1.20 1.20 0.0 0 1 40.29 22.35
  L 38.50 20.56
  A 0.44 0.43 32.2 0 0 37.78 20.72
  L 37.11 22.60
  A 0.82 0.81 35.0 0 0 37.25 23.40
  Q 42.09 29.11 36.69 33.94
  A 0.36 0.36 0.0 0 1 36.10 33.60
  Q 36.49 31.70 35.96 30.47
  A 0.45 0.44 -54.1 0 0 35.11 30.61
  L 34.76 34.29
  A 0.80 0.80 0.0 0 1 34.11 34.99
  Q 33.70 35.07 32.87 35.07
  Z
  M 33.38 40.05
  L 32.42 40.05
  A 0.23 0.23 0.0 0 0 32.19 40.27
  L 32.19 40.40
  A 11.20 0.66 -89.5 0 0 32.75 51.61
  L 32.85 51.61
  A 11.20 0.66 -89.5 0 0 33.61 40.42
  L 33.61 40.29
  A 0.23 0.23 0.0 0 0 33.38 40.05
  Z"
/>
<path fill="#ffffff" d="
  M 32.87 15.81
  Q 34.80 15.81 36.46 16.61
  A 0.74 0.73 22.5 0 1 36.84 17.50
  L 33.66 26.73
  A 2.31 2.27 -35.8 0 0 33.53 27.49
  Q 33.49 31.65 33.49 32.69
  Q 33.49 33.32 32.89 33.32
  Q 32.30 33.32 32.30 32.69
  Q 32.29 31.65 32.24 27.49
  A 2.31 2.27 35.6 0 0 32.11 26.73
  L 28.90 17.51
  A 0.74 0.73 -22.6 0 1 29.28 16.62
  Q 30.94 15.81 32.87 15.81
  Z"
/>
<path fill="#ffffff" d="
  M 32.88 37.99
  Q 32.21 37.99 31.74 38.04
  A 1.22 1.21 13.5 0 0 30.88 38.57
  C 28.68 41.90 25.38 38.46 23.89 36.23
  A 1.55 1.45 -74.1 0 1 23.70 35.86
  L 21.89 30.74
  A 0.53 0.47 46.4 0 1 21.88 30.39
  L 22.73 27.92
  A 0.44 0.42 38.2 0 0 22.68 27.54
  Q 22.28 27.01 21.37 27.79
  Q 21.13 28.00 20.89 27.77
  Q 20.74 27.62 20.71 27.48
  Q 20.66 27.29 20.78 27.18
  Q 21.40 26.58 21.42 26.48
  A 0.74 0.73 15.9 0 0 20.93 25.60
  Q 20.60 25.50 19.60 25.66
  A 0.48 0.48 0.0 0 1 19.21 24.82
  Q 21.77 22.64 24.57 22.71
  A 1.20 1.20 0.0 0 0 25.44 22.36
  L 27.23 20.57
  A 0.44 0.43 -32.3 0 1 27.95 20.73
  L 28.62 22.61
  A 0.82 0.81 -35.1 0 1 28.48 23.41
  Q 23.65 29.12 29.06 33.95
  A 0.36 0.36 0.0 0 0 29.65 33.60
  Q 29.25 31.71 29.78 30.47
  A 0.45 0.44 54.0 0 1 30.63 30.61
  L 30.99 34.29
  A 0.80 0.80 0.0 0 0 31.63 34.99
  Q 32.05 35.07 32.87 35.07
  Q 33.70 35.07 34.11 34.99
  A 0.80 0.80 0.0 0 0 34.76 34.29
  L 35.11 30.61
  A 0.45 0.44 -54.1 0 1 35.96 30.47
  Q 36.49 31.70 36.10 33.60
  A 0.36 0.36 0.0 0 0 36.69 33.94
  Q 42.09 29.11 37.25 23.40
  A 0.82 0.81 35.0 0 1 37.11 22.60
  L 37.78 20.72
  A 0.44 0.43 32.2 0 1 38.50 20.56
  L 40.29 22.35
  A 1.20 1.20 0.0 0 0 41.16 22.70
  Q 43.96 22.62 46.52 24.80
  A 0.48 0.48 0.0 0 1 46.13 25.64
  Q 45.13 25.48 44.80 25.58
  A 0.74 0.73 -16.0 0 0 44.31 26.46
  Q 44.33 26.56 44.96 27.16
  Q 45.08 27.27 45.03 27.46
  Q 45.00 27.60 44.85 27.75
  Q 44.61 27.98 44.37 27.77
  Q 43.45 26.99 43.06 27.52
  A 0.44 0.42 -38.3 0 0 43.01 27.90
  L 43.86 30.37
  A 0.53 0.47 -46.5 0 1 43.85 30.72
  L 42.05 35.85
  A 1.55 1.45 74.0 0 1 41.86 36.22
  C 40.37 38.45 37.08 41.89 34.87 38.57
  A 1.22 1.21 -13.6 0 0 34.01 38.04
  Q 33.54 37.99 32.88 37.99
  Z
  M 27.23 37.73
  Q 28.15 38.34 29.19 38.22
  A 0.38 0.38 0.0 0 0 29.30 37.48
  Q 28.10 36.94 27.85 36.77
  Q 27.60 36.61 26.62 35.73
  A 0.38 0.38 0.0 0 0 26.00 36.12
  Q 26.29 37.12 27.23 37.73
  Z
  M 38.56 37.70
  Q 39.53 37.08 39.84 36.05
  A 0.39 0.39 0.0 0 0 39.21 35.64
  Q 38.20 36.54 37.94 36.71
  Q 37.67 36.87 36.44 37.42
  A 0.39 0.39 0.0 0 0 36.55 38.17
  Q 37.61 38.31 38.56 37.70
  Z"
/>
<path fill="#1f526b" d="
  M 27.85 36.77
  Q 28.10 36.94 29.30 37.48
  A 0.38 0.38 0.0 0 1 29.19 38.22
  Q 28.15 38.34 27.23 37.73
  Q 26.29 37.12 26.00 36.12
  A 0.38 0.38 0.0 0 1 26.62 35.73
  Q 27.60 36.61 27.85 36.77
  Z"
/>
<path fill="#1f526b" d="
  M 38.56 37.70
  Q 37.61 38.31 36.55 38.17
  A 0.39 0.39 0.0 0 1 36.44 37.42
  Q 37.67 36.87 37.94 36.71
  Q 38.20 36.54 39.21 35.64
  A 0.39 0.39 0.0 0 1 39.84 36.05
  Q 39.53 37.08 38.56 37.70
  Z"
/>
<path fill="#ffffff" d="
  M 33.38 40.05
  A 0.23 0.23 0.0 0 1 33.61 40.29
  L 33.61 40.42
  A 11.20 0.66 -89.5 0 1 32.85 51.61
  L 32.75 51.61
  A 11.20 0.66 -89.5 0 1 32.19 40.40
  L 32.19 40.27
  A 0.23 0.23 0.0 0 1 32.42 40.05
  L 33.38 40.05
  Z"
/>
</svg>
