<?xml version="1.0" encoding="UTF-8" standalone="no"?>
<!DOCTYPE svg PUBLIC "-//W3C//DTD SVG 1.1//EN" "http://www.w3.org/Graphics/SVG/1.1/DTD/svg11.dtd">
<svg xmlns="http://www.w3.org/2000/svg" version="1.1" viewBox="0.00 0.00 66.00 88.00">
<g stroke-width="2.00" fill="none" stroke-linecap="butt">
<path stroke="#282a22" vector-effect="non-scaling-stroke" d="
  M 33.40 86.56
  Q 33.52 86.56 33.63 86.53
  Q 33.69 86.52 33.81 86.41
  C 44.76 76.23 54.77 63.87 60.60 50.06
  C 64.29 41.31 65.83 30.35 62.11 21.59
  C 57.18 9.99 46.19 2.64 33.54 2.62
  C 20.89 2.60 9.87 9.91 4.91 21.50
  C 1.16 30.24 2.66 41.21 6.32 49.97
  C 12.11 63.80 22.08 76.19 32.99 86.41
  Q 33.11 86.52 33.17 86.53
  Q 33.28 86.56 33.40 86.56"
/>
<path stroke="#9a9b96" vector-effect="non-scaling-stroke" d="
  M 27.79 26.27
  C 27.63 28.93 26.93 29.57 25.45 31.48
  C 23.01 34.66 23.27 38.24 27.49 39.83
  C 33.43 42.07 42.46 40.84 43.12 32.77
  Q 43.38 29.61 42.86 26.59
  A 0.32 0.32 0.0 0 0 42.26 26.48
  Q 40.98 28.79 40.07 29.29
  A 0.33 0.33 0.0 0 1 39.60 28.90
  C 41.33 23.50 32.49 22.88 34.18 16.68
  A 0.28 0.28 0.0 0 0 33.74 16.39
  C 30.98 18.42 29.81 21.29 30.40 24.69
  Q 30.75 26.74 30.50 29.05
  A 0.28 0.28 0.0 0 1 30.26 29.30
  L 30.23 29.31
  A 0.61 0.60 77.4 0 1 29.56 28.88
  Q 29.17 27.50 28.24 26.14
  A 0.25 0.25 0.0 0 0 27.79 26.27"
/>
<path stroke="#9a9b96" vector-effect="non-scaling-stroke" d="
  M 44.12 35.06
  Q 43.61 36.62 44.87 37.30
  A 0.46 0.46 0.0 0 1 44.98 38.03
  L 33.40 49.61
  A 0.62 0.62 0.0 0 1 32.52 49.61
  L 21.06 38.16
  A 0.60 0.60 0.0 0 1 21.06 37.32
  L 22.00 36.39
  A 1.20 1.20 0.0 0 0 22.31 35.80
  L 22.58 34.35
  A 0.30 0.30 0.0 0 0 22.07 34.08
  L 18.80 37.35
  A 0.55 0.54 45.4 0 0 18.80 38.12
  L 32.55 51.86
  A 0.61 0.61 0.0 0 0 33.41 51.86
  L 47.12 38.15
  A 0.60 0.59 45.3 0 0 47.12 37.30
  L 44.73 34.91
  A 0.37 0.37 0.0 0 0 44.12 35.06"
/>
<path stroke="#9a9b96" vector-effect="non-scaling-stroke" d="
  M 32.94 46.56
  Q 33.13 46.56 33.25 46.45
  Q 37.15 42.69 37.68 42.18
  A 0.29 0.28 -70.5 0 0 37.45 41.69
  Q 34.96 42.02 33.42 44.17
  Q 33.27 44.38 32.97 44.37
  Q 32.68 44.37 32.54 44.16
  Q 31.06 41.96 28.58 41.55
  A 0.29 0.28 72.3 0 0 28.34 42.03
  Q 28.85 42.56 32.63 46.44
  Q 32.75 46.55 32.94 46.56"
/>
<path stroke="#9a9b96" vector-effect="non-scaling-stroke" d="
  M 33.29 36.60
  L 33.97 39.14
  A 0.72 0.72 0.0 0 0 34.92 39.63
  Q 37.77 38.56 37.86 35.97
  A 2.12 2.09 25.0 0 0 37.30 34.47
  Q 34.95 31.95 34.29 30.17
  A 0.27 0.27 0.0 0 0 33.80 30.14
  Q 32.40 32.72 29.41 35.34
  A 1.37 1.35 -19.7 0 0 28.94 36.32
  Q 28.86 38.63 31.31 39.69
  A 0.56 0.55 -75.8 0 0 32.08 39.23
  Q 32.19 38.04 32.88 36.56
  A 0.22 0.22 0.0 0 1 33.29 36.60"
/>
</g>
<path fill="#1c1e17" d="
  M 33.79 88.00
  L 33.04 88.00
  C 21.94 77.92 11.92 65.51 5.64 51.57
  Q 2.23 44.02 1.60 34.89
  C 0.49 18.90 11.38 5.50 26.74 2.05
  C 41.21 -1.21 56.13 6.11 62.69 19.93
  C 66.94 28.90 65.90 40.01 62.33 49.05
  C 56.49 63.88 45.54 77.35 33.79 88.00
  Z
  M 33.40 86.56
  Q 33.52 86.56 33.63 86.53
  Q 33.69 86.52 33.81 86.41
  C 44.76 76.23 54.77 63.87 60.60 50.06
  C 64.29 41.31 65.83 30.35 62.11 21.59
  C 57.18 9.99 46.19 2.64 33.54 2.62
  C 20.89 2.60 9.87 9.91 4.91 21.50
  C 1.16 30.24 2.66 41.21 6.32 49.97
  C 12.11 63.80 22.08 76.19 32.99 86.41
  Q 33.11 86.52 33.17 86.53
  Q 33.28 86.56 33.40 86.56
  Z"
/>
<path fill="#34362c" d="
  M 33.40 86.56
  Q 33.28 86.56 33.17 86.53
  Q 33.11 86.52 32.99 86.41
  C 22.08 76.19 12.11 63.80 6.32 49.97
  C 2.66 41.21 1.16 30.24 4.91 21.50
  C 9.87 9.91 20.89 2.60 33.54 2.62
  C 46.19 2.64 57.18 9.99 62.11 21.59
  C 65.83 30.35 64.29 41.31 60.60 50.06
  C 54.77 63.87 44.76 76.23 33.81 86.41
  Q 33.69 86.52 33.63 86.53
  Q 33.52 86.56 33.40 86.56
  Z
  M 27.79 26.27
  C 27.63 28.93 26.93 29.57 25.45 31.48
  C 23.01 34.66 23.27 38.24 27.49 39.83
  C 33.43 42.07 42.46 40.84 43.12 32.77
  Q 43.38 29.61 42.86 26.59
  A 0.32 0.32 0.0 0 0 42.26 26.48
  Q 40.98 28.79 40.07 29.29
  A 0.33 0.33 0.0 0 1 39.60 28.90
  C 41.33 23.50 32.49 22.88 34.18 16.68
  A 0.28 0.28 0.0 0 0 33.74 16.39
  C 30.98 18.42 29.81 21.29 30.40 24.69
  Q 30.75 26.74 30.50 29.05
  A 0.28 0.28 0.0 0 1 30.26 29.30
  L 30.23 29.31
  A 0.61 0.60 77.4 0 1 29.56 28.88
  Q 29.17 27.50 28.24 26.14
  A 0.25 0.25 0.0 0 0 27.79 26.27
  Z
  M 44.12 35.06
  Q 43.61 36.62 44.87 37.30
  A 0.46 0.46 0.0 0 1 44.98 38.03
  L 33.40 49.61
  A 0.62 0.62 0.0 0 1 32.52 49.61
  L 21.06 38.16
  A 0.60 0.60 0.0 0 1 21.06 37.32
  L 22.00 36.39
  A 1.20 1.20 0.0 0 0 22.31 35.80
  L 22.58 34.35
  A 0.30 0.30 0.0 0 0 22.07 34.08
  L 18.80 37.35
  A 0.55 0.54 45.4 0 0 18.80 38.12
  L 32.55 51.86
  A 0.61 0.61 0.0 0 0 33.41 51.86
  L 47.12 38.15
  A 0.60 0.59 45.3 0 0 47.12 37.30
  L 44.73 34.91
  A 0.37 0.37 0.0 0 0 44.12 35.06
  Z
  M 32.94 46.56
  Q 33.13 46.56 33.25 46.45
  Q 37.15 42.69 37.68 42.18
  A 0.29 0.28 -70.5 0 0 37.45 41.69
  Q 34.96 42.02 33.42 44.17
  Q 33.27 44.38 32.97 44.37
  Q 32.68 44.37 32.54 44.16
  Q 31.06 41.96 28.58 41.55
  A 0.29 0.28 72.3 0 0 28.34 42.03
  Q 28.85 42.56 32.63 46.44
  Q 32.75 46.55 32.94 46.56
  Z"
/>
<path fill="#ffffff" d="
  M 28.24 26.14
  Q 29.17 27.50 29.56 28.88
  A 0.61 0.60 77.4 0 0 30.23 29.31
  L 30.26 29.30
  A 0.28 0.28 0.0 0 0 30.50 29.05
  Q 30.75 26.74 30.40 24.69
  C 29.81 21.29 30.98 18.42 33.74 16.39
  A 0.28 0.28 0.0 0 1 34.18 16.68
  C 32.49 22.88 41.33 23.50 39.60 28.90
  A 0.33 0.33 0.0 0 0 40.07 29.29
  Q 40.98 28.79 42.26 26.48
  A 0.32 0.32 0.0 0 1 42.86 26.59
  Q 43.38 29.61 43.12 32.77
  C 42.46 40.84 33.43 42.07 27.49 39.83
  C 23.27 38.24 23.01 34.66 25.45 31.48
  C 26.93 29.57 27.63 28.93 27.79 26.27
  A 0.25 0.25 0.0 0 1 28.24 26.14
  Z
  M 33.29 36.60
  L 33.97 39.14
  A 0.72 0.72 0.0 0 0 34.92 39.63
  Q 37.77 38.56 37.86 35.97
  A 2.12 2.09 25.0 0 0 37.30 34.47
  Q 34.95 31.95 34.29 30.17
  A 0.27 0.27 0.0 0 0 33.80 30.14
  Q 32.40 32.72 29.41 35.34
  A 1.37 1.35 -19.7 0 0 28.94 36.32
  Q 28.86 38.63 31.31 39.69
  A 0.56 0.55 -75.8 0 0 32.08 39.23
  Q 32.19 38.04 32.88 36.56
  A 0.22 0.22 0.0 0 1 33.29 36.60
  Z"
/>
<path fill="#34362c" d="
  M 32.88 36.56
  Q 32.19 38.04 32.08 39.23
  A 0.56 0.55 -75.8 0 1 31.31 39.69
  Q 28.86 38.63 28.94 36.32
  A 1.37 1.35 -19.7 0 1 29.41 35.34
  Q 32.40 32.72 33.80 30.14
  A 0.27 0.27 0.0 0 1 34.29 30.17
  Q 34.95 31.95 37.30 34.47
  A 2.12 2.09 25.0 0 1 37.86 35.97
  Q 37.77 38.56 34.92 39.63
  A 0.72 0.72 0.0 0 1 33.97 39.14
  L 33.29 36.60
  A 0.22 0.22 0.0 0 0 32.88 36.56
  Z"
/>
<path fill="#ffffff" d="
  M 44.73 34.91
  L 47.12 37.30
  A 0.60 0.59 45.3 0 1 47.12 38.15
  L 33.41 51.86
  A 0.61 0.61 0.0 0 1 32.55 51.86
  L 18.80 38.12
  A 0.55 0.54 45.4 0 1 18.80 37.35
  L 22.07 34.08
  A 0.30 0.30 0.0 0 1 22.58 34.35
  L 22.31 35.80
  A 1.20 1.20 0.0 0 1 22.00 36.39
  L 21.06 37.32
  A 0.60 0.60 0.0 0 0 21.06 38.16
  L 32.52 49.61
  A 0.62 0.62 0.0 0 0 33.40 49.61
  L 44.98 38.03
  A 0.46 0.46 0.0 0 0 44.87 37.30
  Q 43.61 36.62 44.12 35.06
  A 0.37 0.37 0.0 0 1 44.73 34.91
  Z"
/>
<path fill="#ffffff" d="
  M 32.97 44.37
  Q 33.27 44.38 33.42 44.17
  Q 34.96 42.02 37.45 41.69
  A 0.29 0.28 -70.5 0 1 37.68 42.18
  Q 37.15 42.69 33.25 46.45
  Q 33.13 46.56 32.94 46.56
  Q 32.75 46.55 32.63 46.44
  Q 28.85 42.56 28.34 42.03
  A 0.29 0.28 72.3 0 1 28.58 41.55
  Q 31.06 41.96 32.54 44.16
  Q 32.68 44.37 32.97 44.37
  Z"
/>
</svg>
