<?xml version="1.0" encoding="UTF-8" standalone="no"?>
<!DOCTYPE svg PUBLIC "-//W3C//DTD SVG 1.1//EN" "http://www.w3.org/Graphics/SVG/1.1/DTD/svg11.dtd">
<svg xmlns="http://www.w3.org/2000/svg" version="1.1" viewBox="0.00 0.00 66.00 88.00">
<g stroke-width="2.00" fill="none" stroke-linecap="butt">
<path stroke="#173f51" vector-effect="non-scaling-stroke" d="
  M 33.43 86.62
  C 33.76 86.62 33.66 86.63 33.81 86.49
  Q 48.36 72.95 57.37 56.89
  C 62.35 48.03 65.84 36.43 63.62 26.51
  C 60.46 12.40 47.97 2.55 33.50 2.54
  C 19.02 2.52 6.51 12.35 3.33 26.46
  C 1.10 36.38 4.57 47.98 9.54 56.85
  Q 18.52 72.93 33.05 86.49
  C 33.20 86.63 33.10 86.62 33.43 86.62"
/>
<path stroke="#8fa9b5" vector-effect="non-scaling-stroke" d="
  M 32.92 47.20
  C 43.61 47.24 53.91 42.05 51.13 29.40
  A 0.33 0.33 0.0 0 0 50.50 29.38
  C 48.59 35.38 38.27 36.78 32.96 36.76
  C 27.64 36.74 17.34 35.27 15.47 29.25
  A 0.33 0.33 0.0 0 0 14.84 29.27
  C 11.97 41.90 22.23 47.16 32.92 47.20"
/>
<path stroke="#8fa9b5" vector-effect="non-scaling-stroke" d="
  M 19.96 39.95
  A 0.38 0.37 46.8 0 0 19.94 40.68
  C 22.17 41.28 22.98 43.49 25.41 41.37
  A 0.31 0.31 0.0 0 1 25.93 41.57
  Q 26.18 43.77 28.18 43.41
  Q 28.44 43.36 28.74 43.10
  Q 29.14 42.74 29.32 42.67
  A 0.48 0.47 -15.6 0 1 29.96 43.03
  L 30.18 44.22
  A 0.51 0.51 0.0 0 0 30.89 44.59
  Q 32.81 43.70 33.96 42.52
  A 0.45 0.43 41.3 0 1 34.54 42.49
  C 34.71 42.62 34.86 43.23 35.24 43.61
  Q 36.36 44.71 38.94 42.11
  A 0.86 0.86 0.0 0 1 40.21 42.17
  Q 41.34 43.52 42.81 41.91
  Q 43.41 41.25 42.90 40.75
  A 0.47 0.45 41.7 0 0 42.23 40.78
  Q 42.08 40.96 41.97 41.10
  A 0.79 0.76 66.6 0 1 40.61 40.53
  Q 40.64 39.91 41.52 39.66
  A 0.41 0.40 -17.8 0 0 41.79 39.14
  Q 41.65 38.76 41.48 38.73
  Q 40.72 38.60 40.18 39.08
  Q 39.01 40.10 36.89 42.44
  A 0.74 0.72 -22.5 0 1 35.61 41.93
  Q 35.65 41.26 36.73 40.82
  A 0.56 0.56 0.0 0 0 36.46 39.75
  Q 33.90 40.05 32.62 42.33
  A 0.78 0.70 -37.4 0 1 31.23 42.22
  Q 31.11 41.45 32.21 41.00
  A 0.27 0.27 0.0 0 0 32.38 40.75
  L 32.38 40.46
  A 0.46 0.46 0.0 0 0 31.80 40.01
  Q 30.35 40.37 28.68 41.86
  A 1.01 0.72 -28.5 0 1 27.12 41.67
  Q 27.08 41.03 28.15 40.61
  A 0.55 0.54 -58.5 0 0 27.90 39.56
  Q 25.45 39.79 23.61 41.07
  A 0.52 0.51 -37.0 0 1 22.91 40.98
  L 22.73 40.76
  A 0.52 0.52 0.0 0 1 22.86 39.99
  Q 23.77 39.43 23.79 38.74
  A 0.55 0.54 -23.0 0 0 22.84 38.36
  Q 21.70 39.61 19.96 39.95"
/>
</g>
<path fill="#0e2b37" d="
  M 33.79 88.00
  L 33.04 88.00
  C 21.77 77.75 12.10 65.66 5.64 51.56
  Q 2.20 44.05 1.59 34.89
  C 0.58 19.49 10.61 6.35 25.26 2.41
  C 40.24 -1.62 55.83 5.57 62.69 19.93
  C 66.94 28.82 65.90 39.92 62.29 49.13
  C 56.48 63.91 45.50 77.38 33.79 88.00
  Z
  M 33.43 86.62
  C 33.76 86.62 33.66 86.63 33.81 86.49
  Q 48.36 72.95 57.37 56.89
  C 62.35 48.03 65.84 36.43 63.62 26.51
  C 60.46 12.40 47.97 2.55 33.50 2.54
  C 19.02 2.52 6.51 12.35 3.33 26.46
  C 1.10 36.38 4.57 47.98 9.54 56.85
  Q 18.52 72.93 33.05 86.49
  C 33.20 86.63 33.10 86.62 33.43 86.62
  Z"
/>
<path fill="#1f526b" d="
  M 33.50 2.54
  C 47.97 2.55 60.46 12.40 63.62 26.51
  C 65.84 36.43 62.35 48.03 57.37 56.89
  Q 48.36 72.95 33.81 86.49
  C 33.66 86.63 33.76 86.62 33.43 86.62
  C 33.10 86.62 33.20 86.63 33.05 86.49
  Q 18.52 72.93 9.54 56.85
  C 4.57 47.98 1.10 36.38 3.33 26.46
  C 6.51 12.35 19.02 2.52 33.50 2.54
  Z
  M 32.92 47.20
  C 43.61 47.24 53.91 42.05 51.13 29.40
  A 0.33 0.33 0.0 0 0 50.50 29.38
  C 48.59 35.38 38.27 36.78 32.96 36.76
  C 27.64 36.74 17.34 35.27 15.47 29.25
  A 0.33 0.33 0.0 0 0 14.84 29.27
  C 11.97 41.90 22.23 47.16 32.92 47.20
  Z"
/>
<path fill="#ffffff" d="
  M 32.96 36.76
  C 38.27 36.78 48.59 35.38 50.50 29.38
  A 0.33 0.33 0.0 0 1 51.13 29.40
  C 53.91 42.05 43.61 47.24 32.92 47.20
  C 22.23 47.16 11.97 41.90 14.84 29.27
  A 0.33 0.33 0.0 0 1 15.47 29.25
  C 17.34 35.27 27.64 36.74 32.96 36.76
  Z
  M 19.96 39.95
  A 0.38 0.37 46.8 0 0 19.94 40.68
  C 22.17 41.28 22.98 43.49 25.41 41.37
  A 0.31 0.31 0.0 0 1 25.93 41.57
  Q 26.18 43.77 28.18 43.41
  Q 28.44 43.36 28.74 43.10
  Q 29.14 42.74 29.32 42.67
  A 0.48 0.47 -15.6 0 1 29.96 43.03
  L 30.18 44.22
  A 0.51 0.51 0.0 0 0 30.89 44.59
  Q 32.81 43.70 33.96 42.52
  A 0.45 0.43 41.3 0 1 34.54 42.49
  C 34.71 42.62 34.86 43.23 35.24 43.61
  Q 36.36 44.71 38.94 42.11
  A 0.86 0.86 0.0 0 1 40.21 42.17
  Q 41.34 43.52 42.81 41.91
  Q 43.41 41.25 42.90 40.75
  A 0.47 0.45 41.7 0 0 42.23 40.78
  Q 42.08 40.96 41.97 41.10
  A 0.79 0.76 66.6 0 1 40.61 40.53
  Q 40.64 39.91 41.52 39.66
  A 0.41 0.40 -17.8 0 0 41.79 39.14
  Q 41.65 38.76 41.48 38.73
  Q 40.72 38.60 40.18 39.08
  Q 39.01 40.10 36.89 42.44
  A 0.74 0.72 -22.5 0 1 35.61 41.93
  Q 35.65 41.26 36.73 40.82
  A 0.56 0.56 0.0 0 0 36.46 39.75
  Q 33.90 40.05 32.62 42.33
  A 0.78 0.70 -37.4 0 1 31.23 42.22
  Q 31.11 41.45 32.21 41.00
  A 0.27 0.27 0.0 0 0 32.38 40.75
  L 32.38 40.46
  A 0.46 0.46 0.0 0 0 31.80 40.01
  Q 30.35 40.37 28.68 41.86
  A 1.01 0.72 -28.5 0 1 27.12 41.67
  Q 27.08 41.03 28.15 40.61
  A 0.55 0.54 -58.5 0 0 27.90 39.56
  Q 25.45 39.79 23.61 41.07
  A 0.52 0.51 -37.0 0 1 22.91 40.98
  L 22.73 40.76
  A 0.52 0.52 0.0 0 1 22.86 39.99
  Q 23.77 39.43 23.79 38.74
  A 0.55 0.54 -23.0 0 0 22.84 38.36
  Q 21.70 39.61 19.96 39.95
  Z"
/>
<path fill="#1f526b" d="
  M 19.96 39.95
  Q 21.70 39.61 22.84 38.36
  A 0.55 0.54 -23.0 0 1 23.79 38.74
  Q 23.77 39.43 22.86 39.99
  A 0.52 0.52 0.0 0 0 22.73 40.76
  L 22.91 40.98
  A 0.52 0.51 -37.0 0 0 23.61 41.07
  Q 25.45 39.79 27.90 39.56
  A 0.55 0.54 -58.5 0 1 28.15 40.61
  Q 27.08 41.03 27.12 41.67
  A 1.01 0.72 -28.5 0 0 28.68 41.86
  Q 30.35 40.37 31.80 40.01
  A 0.46 0.46 0.0 0 1 32.38 40.46
  L 32.38 40.75
  A 0.27 0.27 0.0 0 1 32.21 41.00
  Q 31.11 41.45 31.23 42.22
  A 0.78 0.70 -37.4 0 0 32.62 42.33
  Q 33.90 40.05 36.46 39.75
  A 0.56 0.56 0.0 0 1 36.73 40.82
  Q 35.65 41.26 35.61 41.93
  A 0.74 0.72 -22.5 0 0 36.89 42.44
  Q 39.01 40.10 40.18 39.08
  Q 40.72 38.60 41.48 38.73
  Q 41.65 38.76 41.79 39.14
  A 0.41 0.40 -17.8 0 1 41.52 39.66
  Q 40.64 39.91 40.61 40.53
  A 0.79 0.76 66.6 0 0 41.97 41.10
  Q 42.08 40.96 42.23 40.78
  A 0.47 0.45 41.7 0 1 42.90 40.75
  Q 43.41 41.25 42.81 41.91
  Q 41.34 43.52 40.21 42.17
  A 0.86 0.86 0.0 0 0 38.94 42.11
  Q 36.36 44.71 35.24 43.61
  C 34.86 43.23 34.71 42.62 34.54 42.49
  A 0.45 0.43 41.3 0 0 33.96 42.52
  Q 32.81 43.70 30.89 44.59
  A 0.51 0.51 0.0 0 1 30.18 44.22
  L 29.96 43.03
  A 0.48 0.47 -15.6 0 0 29.32 42.67
  Q 29.14 42.74 28.74 43.10
  Q 28.44 43.36 28.18 43.41
  Q 26.18 43.77 25.93 41.57
  A 0.31 0.31 0.0 0 0 25.41 41.37
  C 22.98 43.49 22.17 41.28 19.94 40.68
  A 0.38 0.37 46.8 0 1 19.96 39.95
  Z"
/>
</svg>
