<?xml version="1.0" encoding="UTF-8" standalone="no"?>
<!DOCTYPE svg PUBLIC "-//W3C//DTD SVG 1.1//EN" "http://www.w3.org/Graphics/SVG/1.1/DTD/svg11.dtd">
<svg xmlns="http://www.w3.org/2000/svg" version="1.1" viewBox="0.00 0.00 66.00 88.00">
<g stroke-width="2.00" fill="none" stroke-linecap="butt">
<path stroke="#316b60" vector-effect="non-scaling-stroke" d="
  M 33.41 86.70
  Q 33.51 86.70 33.61 86.68
  Q 33.70 86.66 33.78 86.58
  C 46.85 74.42 61.51 56.09 63.87 38.34
  Q 66.63 17.58 48.94 6.65
  Q 42.18 2.47 33.53 2.45
  Q 24.88 2.44 18.10 6.60
  Q 0.39 17.48 3.09 38.25
  C 5.39 56.01 20.00 74.38 33.03 86.58
  Q 33.11 86.66 33.20 86.68
  Q 33.30 86.70 33.41 86.70"
/>
<path stroke="#a1c6bf" vector-effect="non-scaling-stroke" d="
  M 42.79 52.20
  C 41.97 48.19 33.41 45.08 36.74 39.76
  A 1.74 1.72 21.1 0 1 38.52 38.98
  Q 41.17 39.46 43.31 39.16
  A 0.95 0.95 0.0 0 0 44.09 38.46
  Q 44.14 38.26 45.35 32.65
  Q 45.45 32.19 45.82 32.02
  Q 46.17 31.86 46.36 31.62
  A 0.51 0.50 50.2 0 0 46.41 31.04
  L 44.28 27.35
  A 1.66 1.63 37.7 0 1 44.11 26.11
  C 47.98 11.34 19.16 10.28 22.87 27.70
  C 23.26 29.53 24.48 31.45 25.36 32.76
  C 28.48 37.36 23.69 43.59 19.62 45.64
  A 0.61 0.60 -29.5 0 0 19.38 46.50
  Q 21.14 49.38 24.54 49.65
  C 30.61 50.14 37.11 47.90 42.35 52.46
  A 0.27 0.27 0.0 0 0 42.79 52.20"
/>
<path stroke="#a1c6bf" vector-effect="non-scaling-stroke" d="
  M 25.86 24.65
  L 41.49 26.69
  A 0.57 0.56 9.9 0 0 42.12 26.25
  Q 42.81 23.04 42.49 22.28
  Q 40.25 16.97 34.51 16.88
  C 27.60 16.77 23.00 20.73 24.78 27.75
  A 4.21 4.19 24.3 0 0 25.08 28.54
  C 26.18 30.68 28.06 32.91 28.18 35.21
  C 28.42 39.61 25.83 43.65 22.36 46.20
  A 0.56 0.56 0.0 0 0 22.45 47.15
  Q 23.53 47.68 24.79 47.69
  Q 34.27 47.79 36.31 47.88
  A 0.24 0.24 0.0 0 0 36.50 47.48
  C 33.56 44.18 32.82 39.34 37.16 37.11
  A 0.82 0.78 -55.2 0 1 37.60 37.02
  L 41.47 37.36
  A 0.64 0.64 0.0 0 0 42.14 36.92
  L 43.86 31.71
  A 0.76 0.75 18.6 0 0 43.38 30.76
  L 25.75 24.94
  A 0.14 0.13 16.3 0 1 25.66 24.78
  L 25.66 24.77
  A 0.19 0.18 13.5 0 1 25.86 24.65"
/>
</g>
<path fill="#1f4940" d="
  M 33.79 88.00
  L 33.04 88.00
  C 21.94 77.91 11.93 65.51 5.64 51.57
  Q 2.23 44.01 1.60 34.89
  C 0.50 19.01 11.24 5.66 26.50 2.10
  C 41.04 -1.28 56.08 6.03 62.69 19.93
  C 66.94 28.88 65.90 40.02 62.33 49.06
  C 56.49 63.88 45.53 77.35 33.79 88.00
  Z
  M 33.41 86.70
  Q 33.51 86.70 33.61 86.68
  Q 33.70 86.66 33.78 86.58
  C 46.85 74.42 61.51 56.09 63.87 38.34
  Q 66.63 17.58 48.94 6.65
  Q 42.18 2.47 33.53 2.45
  Q 24.88 2.44 18.10 6.60
  Q 0.39 17.48 3.09 38.25
  C 5.39 56.01 20.00 74.38 33.03 86.58
  Q 33.11 86.66 33.20 86.68
  Q 33.30 86.70 33.41 86.70
  Z"
/>
<path fill="#428c7f" d="
  M 33.53 2.45
  Q 42.18 2.47 48.94 6.65
  Q 66.63 17.58 63.87 38.34
  C 61.51 56.09 46.85 74.42 33.78 86.58
  Q 33.70 86.66 33.61 86.68
  Q 33.51 86.70 33.41 86.70
  Q 33.30 86.70 33.20 86.68
  Q 33.11 86.66 33.03 86.58
  C 20.00 74.38 5.39 56.01 3.09 38.25
  Q 0.39 17.48 18.10 6.60
  Q 24.88 2.44 33.53 2.45
  Z
  M 42.79 52.20
  C 41.97 48.19 33.41 45.08 36.74 39.76
  A 1.74 1.72 21.1 0 1 38.52 38.98
  Q 41.17 39.46 43.31 39.16
  A 0.95 0.95 0.0 0 0 44.09 38.46
  Q 44.14 38.26 45.35 32.65
  Q 45.45 32.19 45.82 32.02
  Q 46.17 31.86 46.36 31.62
  A 0.51 0.50 50.2 0 0 46.41 31.04
  L 44.28 27.35
  A 1.66 1.63 37.7 0 1 44.11 26.11
  C 47.98 11.34 19.16 10.28 22.87 27.70
  C 23.26 29.53 24.48 31.45 25.36 32.76
  C 28.48 37.36 23.69 43.59 19.62 45.64
  A 0.61 0.60 -29.5 0 0 19.38 46.50
  Q 21.14 49.38 24.54 49.65
  C 30.61 50.14 37.11 47.90 42.35 52.46
  A 0.27 0.27 0.0 0 0 42.79 52.20
  Z"
/>
<path fill="#ffffff" d="
  M 42.35 52.46
  C 37.11 47.90 30.61 50.14 24.54 49.65
  Q 21.14 49.38 19.38 46.50
  A 0.61 0.60 -29.5 0 1 19.62 45.64
  C 23.69 43.59 28.48 37.36 25.36 32.76
  C 24.48 31.45 23.26 29.53 22.87 27.70
  C 19.16 10.28 47.98 11.34 44.11 26.11
  A 1.66 1.63 37.7 0 0 44.28 27.35
  L 46.41 31.04
  A 0.51 0.50 50.2 0 1 46.36 31.62
  Q 46.17 31.86 45.82 32.02
  Q 45.45 32.19 45.35 32.65
  Q 44.14 38.26 44.09 38.46
  A 0.95 0.95 0.0 0 1 43.31 39.16
  Q 41.17 39.46 38.52 38.98
  A 1.74 1.72 21.1 0 0 36.74 39.76
  C 33.41 45.08 41.97 48.19 42.79 52.20
  A 0.27 0.27 0.0 0 1 42.35 52.46
  Z
  M 25.86 24.65
  L 41.49 26.69
  A 0.57 0.56 9.9 0 0 42.12 26.25
  Q 42.81 23.04 42.49 22.28
  Q 40.25 16.97 34.51 16.88
  C 27.60 16.77 23.00 20.73 24.78 27.75
  A 4.21 4.19 24.3 0 0 25.08 28.54
  C 26.18 30.68 28.06 32.91 28.18 35.21
  C 28.42 39.61 25.83 43.65 22.36 46.20
  A 0.56 0.56 0.0 0 0 22.45 47.15
  Q 23.53 47.68 24.79 47.69
  Q 34.27 47.79 36.31 47.88
  A 0.24 0.24 0.0 0 0 36.50 47.48
  C 33.56 44.18 32.82 39.34 37.16 37.11
  A 0.82 0.78 -55.2 0 1 37.60 37.02
  L 41.47 37.36
  A 0.64 0.64 0.0 0 0 42.14 36.92
  L 43.86 31.71
  A 0.76 0.75 18.6 0 0 43.38 30.76
  L 25.75 24.94
  A 0.14 0.13 16.3 0 1 25.66 24.78
  L 25.66 24.77
  A 0.19 0.18 13.5 0 1 25.86 24.65
  Z"
/>
<path fill="#428c7f" d="
  M 25.86 24.65
  A 0.19 0.18 13.5 0 0 25.66 24.77
  L 25.66 24.78
  A 0.14 0.13 16.3 0 0 25.75 24.94
  L 43.38 30.76
  A 0.76 0.75 18.6 0 1 43.86 31.71
  L 42.14 36.92
  A 0.64 0.64 0.0 0 1 41.47 37.36
  L 37.60 37.02
  A 0.82 0.78 -55.2 0 0 37.16 37.11
  C 32.82 39.34 33.56 44.18 36.50 47.48
  A 0.24 0.24 0.0 0 1 36.31 47.88
  Q 34.27 47.79 24.79 47.69
  Q 23.53 47.68 22.45 47.15
  A 0.56 0.56 0.0 0 1 22.36 46.20
  C 25.83 43.65 28.42 39.61 28.18 35.21
  C 28.06 32.91 26.18 30.68 25.08 28.54
  A 4.21 4.19 24.3 0 1 24.78 27.75
  C 23.00 20.73 27.60 16.77 34.51 16.88
  Q 40.25 16.97 42.49 22.28
  Q 42.81 23.04 42.12 26.25
  A 0.57 0.56 9.9 0 1 41.49 26.69
  L 25.86 24.65
  Z"
/>
</svg>
