<?xml version="1.0" encoding="UTF-8" standalone="no"?>
<!DOCTYPE svg PUBLIC "-//W3C//DTD SVG 1.1//EN" "http://www.w3.org/Graphics/SVG/1.1/DTD/svg11.dtd">
<svg xmlns="http://www.w3.org/2000/svg" version="1.1" viewBox="0.00 0.00 66.00 88.00">
<g stroke-width="2.00" fill="none" stroke-linecap="butt">
<path stroke="#464544" vector-effect="non-scaling-stroke" d="
  M 33.42 86.61
  C 34.18 86.61 33.57 86.67 33.79 86.46
  Q 47.55 73.72 56.60 58.35
  C 64.11 45.59 68.32 28.14 58.56 15.21
  C 52.56 7.25 43.70 2.53 33.53 2.52
  C 23.37 2.51 14.50 7.20 8.47 15.14
  C -1.32 28.04 2.84 45.51 10.31 58.29
  Q 19.32 73.68 33.05 86.46
  C 33.27 86.67 32.66 86.61 33.42 86.61"
/>
<path stroke="#aeadad" vector-effect="non-scaling-stroke" d="
  M 32.59 51.51
  Q 34.66 51.51 35.18 51.36
  A 1.63 1.63 0.0 0 0 36.36 49.80
  L 36.37 32.42
  A 2.12 2.05 -61.8 0 0 36.06 31.32
  Q 34.90 29.48 35.60 27.10
  A 1.45 1.45 0.0 0 1 38.22 26.74
  L 38.72 27.52
  A 1.03 1.02 36.9 0 0 40.57 27.26
  Q 41.13 25.35 40.39 23.83
  A 1.24 1.14 57.0 0 0 38.55 23.36
  Q 37.65 24.17 36.33 23.96
  A 1.87 1.84 -85.1 0 1 34.78 22.08
  Q 34.87 17.43 34.77 15.73
  A 1.49 1.45 23.0 0 0 34.39 14.83
  Q 33.19 13.52 32.61 13.52
  Q 32.03 13.52 30.82 14.83
  A 1.49 1.45 -22.9 0 0 30.44 15.73
  Q 30.34 17.43 30.43 22.08
  A 1.87 1.84 85.1 0 1 28.88 23.96
  Q 27.56 24.17 26.66 23.35
  A 1.24 1.14 -56.9 0 0 24.82 23.82
  Q 24.07 25.34 24.63 27.25
  A 1.03 1.02 -36.9 0 0 26.48 27.51
  L 26.98 26.73
  A 1.45 1.45 0.0 0 1 29.60 27.10
  Q 30.30 29.48 29.14 31.32
  A 2.12 2.05 61.9 0 0 28.83 32.42
  L 28.82 49.80
  A 1.63 1.63 0.0 0 0 30.00 51.36
  Q 30.52 51.51 32.59 51.51"
/>
</g>
<path fill="#2f2f2e" d="
  M 33.78 88.00
  L 33.04 88.00
  C 21.71 77.71 12.20 65.75 5.68 51.55
  Q 2.13 43.83 1.57 34.90
  C 0.31 14.42 18.24 -1.25 38.47 1.71
  C 51.64 3.64 62.05 13.63 64.84 26.52
  C 67.14 37.13 63.38 48.89 57.55 58.84
  Q 47.97 75.16 33.78 88.00
  Z
  M 33.42 86.61
  C 34.18 86.61 33.57 86.67 33.79 86.46
  Q 47.55 73.72 56.60 58.35
  C 64.11 45.59 68.32 28.14 58.56 15.21
  C 52.56 7.25 43.70 2.53 33.53 2.52
  C 23.37 2.51 14.50 7.20 8.47 15.14
  C -1.32 28.04 2.84 45.51 10.31 58.29
  Q 19.32 73.68 33.05 86.46
  C 33.27 86.67 32.66 86.61 33.42 86.61
  Z"
/>
<path fill="#5c5a5a" d="
  M 33.53 2.52
  C 43.70 2.53 52.56 7.25 58.56 15.21
  C 68.32 28.14 64.11 45.59 56.60 58.35
  Q 47.55 73.72 33.79 86.46
  C 33.57 86.67 34.18 86.61 33.42 86.61
  C 32.66 86.61 33.27 86.67 33.05 86.46
  Q 19.32 73.68 10.31 58.29
  C 2.84 45.51 -1.32 28.04 8.47 15.14
  C 14.50 7.20 23.37 2.51 33.53 2.52
  Z
  M 32.59 51.51
  Q 34.66 51.51 35.18 51.36
  A 1.63 1.63 0.0 0 0 36.36 49.80
  L 36.37 32.42
  A 2.12 2.05 -61.8 0 0 36.06 31.32
  Q 34.90 29.48 35.60 27.10
  A 1.45 1.45 0.0 0 1 38.22 26.74
  L 38.72 27.52
  A 1.03 1.02 36.9 0 0 40.57 27.26
  Q 41.13 25.35 40.39 23.83
  A 1.24 1.14 57.0 0 0 38.55 23.36
  Q 37.65 24.17 36.33 23.96
  A 1.87 1.84 -85.1 0 1 34.78 22.08
  Q 34.87 17.43 34.77 15.73
  A 1.49 1.45 23.0 0 0 34.39 14.83
  Q 33.19 13.52 32.61 13.52
  Q 32.03 13.52 30.82 14.83
  A 1.49 1.45 -22.9 0 0 30.44 15.73
  Q 30.34 17.43 30.43 22.08
  A 1.87 1.84 85.1 0 1 28.88 23.96
  Q 27.56 24.17 26.66 23.35
  A 1.24 1.14 -56.9 0 0 24.82 23.82
  Q 24.07 25.34 24.63 27.25
  A 1.03 1.02 -36.9 0 0 26.48 27.51
  L 26.98 26.73
  A 1.45 1.45 0.0 0 1 29.60 27.10
  Q 30.30 29.48 29.14 31.32
  A 2.12 2.05 61.9 0 0 28.83 32.42
  L 28.82 49.80
  A 1.63 1.63 0.0 0 0 30.00 51.36
  Q 30.52 51.51 32.59 51.51
  Z"
/>
<path fill="#ffffff" d="
  M 32.61 13.52
  Q 33.19 13.52 34.39 14.83
  A 1.49 1.45 23.0 0 1 34.77 15.73
  Q 34.87 17.43 34.78 22.08
  A 1.87 1.84 -85.1 0 0 36.33 23.96
  Q 37.65 24.17 38.55 23.36
  A 1.24 1.14 57.0 0 1 40.39 23.83
  Q 41.13 25.35 40.57 27.26
  A 1.03 1.02 36.9 0 1 38.72 27.52
  L 38.22 26.74
  A 1.45 1.45 0.0 0 0 35.60 27.10
  Q 34.90 29.48 36.06 31.32
  A 2.12 2.05 -61.8 0 1 36.37 32.42
  L 36.36 49.80
  A 1.63 1.63 0.0 0 1 35.18 51.36
  Q 34.66 51.51 32.59 51.51
  Q 30.52 51.51 30.00 51.36
  A 1.63 1.63 0.0 0 1 28.82 49.80
  L 28.83 32.42
  A 2.12 2.05 61.9 0 1 29.14 31.32
  Q 30.30 29.48 29.60 27.10
  A 1.45 1.45 0.0 0 0 26.98 26.73
  L 26.48 27.51
  A 1.03 1.02 -36.9 0 1 24.63 27.25
  Q 24.07 25.34 24.82 23.82
  A 1.24 1.14 -56.9 0 1 26.66 23.35
  Q 27.56 24.17 28.88 23.96
  A 1.87 1.84 85.1 0 0 30.43 22.08
  Q 30.34 17.43 30.44 15.73
  A 1.49 1.45 -22.9 0 1 30.82 14.83
  Q 32.03 13.52 32.61 13.52
  Z"
/>
</svg>
