<?xml version="1.0" encoding="UTF-8" standalone="no"?>
<!DOCTYPE svg PUBLIC "-//W3C//DTD SVG 1.1//EN" "http://www.w3.org/Graphics/SVG/1.1/DTD/svg11.dtd">
<svg xmlns="http://www.w3.org/2000/svg" version="1.1" viewBox="0.00 0.00 66.00 88.00">
<g stroke-width="2.00" fill="none" stroke-linecap="butt">
<path stroke="#4d120e" vector-effect="non-scaling-stroke" d="
  M 33.42 86.53
  Q 33.71 86.53 33.87 86.38
  Q 45.03 75.94 53.36 63.54
  C 61.58 51.33 68.51 33.96 61.25 19.70
  Q 56.74 10.85 48.23 6.25
  Q 41.35 2.53 33.52 2.52
  Q 25.69 2.51 18.80 6.21
  Q 10.28 10.79 5.75 19.63
  C -1.54 33.88 5.34 51.26 13.54 63.49
  Q 21.84 75.91 32.97 86.38
  Q 33.13 86.53 33.42 86.53"
/>
<path stroke="#b18c89" vector-effect="non-scaling-stroke" d="
  M 33.26 52.25
  Q 34.62 52.25 36.71 52.02
  Q 40.11 51.65 39.70 48.84
  A 1.19 1.18 80.0 0 1 40.62 47.52
  C 44.11 46.76 49.45 46.50 47.78 41.19
  Q 45.94 35.34 46.09 33.78
  A 0.19 0.19 0.0 0 1 46.28 33.60
  L 46.73 33.60
  A 0.09 0.08 85.9 0 1 46.81 33.68
  Q 47.03 35.64 47.85 37.13
  A 0.23 0.23 0.0 0 0 48.27 37.06
  Q 49.58 30.70 48.71 25.47
  A 3.89 3.69 26.9 0 0 48.26 24.22
  C 45.30 19.02 39.03 15.81 33.22 15.81
  C 27.42 15.82 21.15 19.05 18.20 24.25
  A 3.89 3.69 -27.0 0 0 17.75 25.50
  Q 16.89 30.73 18.21 37.09
  A 0.23 0.23 0.0 0 0 18.63 37.16
  Q 19.45 35.67 19.67 33.71
  A 0.09 0.08 -86.0 0 1 19.75 33.63
  L 20.20 33.62
  A 0.19 0.19 0.0 0 1 20.39 33.80
  Q 20.54 35.36 18.71 41.22
  C 17.05 46.53 22.39 46.78 25.88 47.53
  A 1.19 1.18 -80.1 0 1 26.81 48.85
  Q 26.40 51.66 29.81 52.03
  Q 31.90 52.25 33.26 52.25"
/>
<path stroke="#b18c89" vector-effect="non-scaling-stroke" d="
  M 35.66 39.84
  Q 37.57 42.94 41.48 42.75
  C 46.87 42.49 46.18 35.59 42.17 35.78
  Q 38.46 35.97 35.80 38.63
  A 0.98 0.98 0.0 0 0 35.66 39.84"
/>
<path stroke="#b18c89" vector-effect="non-scaling-stroke" d="
  M 30.84 40.08
  A 0.98 0.98 0.0 0 0 30.69 38.87
  Q 28.02 36.22 24.31 36.04
  C 20.30 35.86 19.63 42.77 25.02 43.01
  Q 28.94 43.19 30.84 40.08"
/>
<path stroke="#b18c89" vector-effect="non-scaling-stroke" d="
  M 33.75 46.34
  L 33.75 47.46
  A 0.96 0.96 0.0 0 0 35.41 48.12
  C 37.35 46.06 35.12 42.51 33.64 40.83
  A 0.48 0.48 0.0 0 0 32.95 40.80
  Q 30.80 42.83 30.33 45.80
  A 2.34 1.81 -82.2 0 0 31.84 48.43
  Q 32.31 48.48 33.11 46.23
  A 0.33 0.33 0.0 0 1 33.75 46.34"
/>
</g>
<path fill="#360b09" d="
  M 33.81 88.00
  L 33.04 88.00
  C 21.69 77.69 12.11 65.67 5.62 51.40
  Q 2.10 43.68 1.57 34.83
  C 0.59 18.82 11.18 5.76 26.65 2.05
  C 37.32 -0.50 49.61 3.34 57.12 11.62
  C 79.44 36.24 52.37 71.08 33.81 88.00
  Z
  M 33.42 86.53
  Q 33.71 86.53 33.87 86.38
  Q 45.03 75.94 53.36 63.54
  C 61.58 51.33 68.51 33.96 61.25 19.70
  Q 56.74 10.85 48.23 6.25
  Q 41.35 2.53 33.52 2.52
  Q 25.69 2.51 18.80 6.21
  Q 10.28 10.79 5.75 19.63
  C -1.54 33.88 5.34 51.26 13.54 63.49
  Q 21.84 75.91 32.97 86.38
  Q 33.13 86.53 33.42 86.53
  Z"
/>
<path fill="#631813" d="
  M 33.52 2.52
  Q 41.35 2.53 48.23 6.25
  Q 56.74 10.85 61.25 19.70
  C 68.51 33.96 61.58 51.33 53.36 63.54
  Q 45.03 75.94 33.87 86.38
  Q 33.71 86.53 33.42 86.53
  Q 33.13 86.53 32.97 86.38
  Q 21.84 75.91 13.54 63.49
  C 5.34 51.26 -1.54 33.88 5.75 19.63
  Q 10.28 10.79 18.80 6.21
  Q 25.69 2.51 33.52 2.52
  Z
  M 33.26 52.25
  Q 34.62 52.25 36.71 52.02
  Q 40.11 51.65 39.70 48.84
  A 1.19 1.18 80.0 0 1 40.62 47.52
  C 44.11 46.76 49.45 46.50 47.78 41.19
  Q 45.94 35.34 46.09 33.78
  A 0.19 0.19 0.0 0 1 46.28 33.60
  L 46.73 33.60
  A 0.09 0.08 85.9 0 1 46.81 33.68
  Q 47.03 35.64 47.85 37.13
  A 0.23 0.23 0.0 0 0 48.27 37.06
  Q 49.58 30.70 48.71 25.47
  A 3.89 3.69 26.9 0 0 48.26 24.22
  C 45.30 19.02 39.03 15.81 33.22 15.81
  C 27.42 15.82 21.15 19.05 18.20 24.25
  A 3.89 3.69 -27.0 0 0 17.75 25.50
  Q 16.89 30.73 18.21 37.09
  A 0.23 0.23 0.0 0 0 18.63 37.16
  Q 19.45 35.67 19.67 33.71
  A 0.09 0.08 -86.0 0 1 19.75 33.63
  L 20.20 33.62
  A 0.19 0.19 0.0 0 1 20.39 33.80
  Q 20.54 35.36 18.71 41.22
  C 17.05 46.53 22.39 46.78 25.88 47.53
  A 1.19 1.18 -80.1 0 1 26.81 48.85
  Q 26.40 51.66 29.81 52.03
  Q 31.90 52.25 33.26 52.25
  Z"
/>
<path fill="#ffffff" d="
  M 33.22 15.81
  C 39.03 15.81 45.30 19.02 48.26 24.22
  A 3.89 3.69 26.9 0 1 48.71 25.47
  Q 49.58 30.70 48.27 37.06
  A 0.23 0.23 0.0 0 1 47.85 37.13
  Q 47.03 35.64 46.81 33.68
  A 0.09 0.08 85.9 0 0 46.73 33.60
  L 46.28 33.60
  A 0.19 0.19 0.0 0 0 46.09 33.78
  Q 45.94 35.34 47.78 41.19
  C 49.45 46.50 44.11 46.76 40.62 47.52
  A 1.19 1.18 80.0 0 0 39.70 48.84
  Q 40.11 51.65 36.71 52.02
  Q 34.62 52.25 33.26 52.25
  Q 31.90 52.25 29.81 52.03
  Q 26.40 51.66 26.81 48.85
  A 1.19 1.18 -80.1 0 0 25.88 47.53
  C 22.39 46.78 17.05 46.53 18.71 41.22
  Q 20.54 35.36 20.39 33.80
  A 0.19 0.19 0.0 0 0 20.20 33.62
  L 19.75 33.63
  A 0.09 0.08 -86.0 0 0 19.67 33.71
  Q 19.45 35.67 18.63 37.16
  A 0.23 0.23 0.0 0 1 18.21 37.09
  Q 16.89 30.73 17.75 25.50
  A 3.89 3.69 -27.0 0 1 18.20 24.25
  C 21.15 19.05 27.42 15.82 33.22 15.81
  Z
  M 35.66 39.84
  Q 37.57 42.94 41.48 42.75
  C 46.87 42.49 46.18 35.59 42.17 35.78
  Q 38.46 35.97 35.80 38.63
  A 0.98 0.98 0.0 0 0 35.66 39.84
  Z
  M 30.84 40.08
  A 0.98 0.98 0.0 0 0 30.69 38.87
  Q 28.02 36.22 24.31 36.04
  C 20.30 35.86 19.63 42.77 25.02 43.01
  Q 28.94 43.19 30.84 40.08
  Z
  M 33.75 46.34
  L 33.75 47.46
  A 0.96 0.96 0.0 0 0 35.41 48.12
  C 37.35 46.06 35.12 42.51 33.64 40.83
  A 0.48 0.48 0.0 0 0 32.95 40.80
  Q 30.80 42.83 30.33 45.80
  A 2.34 1.81 -82.2 0 0 31.84 48.43
  Q 32.31 48.48 33.11 46.23
  A 0.33 0.33 0.0 0 1 33.75 46.34
  Z"
/>
<path fill="#631813" d="
  M 35.80 38.63
  Q 38.46 35.97 42.17 35.78
  C 46.18 35.59 46.87 42.49 41.48 42.75
  Q 37.57 42.94 35.66 39.84
  A 0.98 0.98 0.0 0 1 35.80 38.63
  Z"
/>
<path fill="#631813" d="
  M 30.84 40.08
  Q 28.94 43.19 25.02 43.01
  C 19.63 42.77 20.30 35.86 24.31 36.04
  Q 28.02 36.22 30.69 38.87
  A 0.98 0.98 0.0 0 1 30.84 40.08
  Z"
/>
<path fill="#631813" d="
  M 33.75 46.34
  A 0.33 0.33 0.0 0 0 33.11 46.23
  Q 32.31 48.48 31.84 48.43
  A 2.34 1.81 -82.2 0 1 30.33 45.80
  Q 30.80 42.83 32.95 40.80
  A 0.48 0.48 0.0 0 1 33.64 40.83
  C 35.12 42.51 37.35 46.06 35.41 48.12
  A 0.96 0.96 0.0 0 1 33.75 47.46
  L 33.75 46.34
  Z"
/>
</svg>
