<?xml version="1.0" encoding="UTF-8" standalone="no"?>
<!DOCTYPE svg PUBLIC "-//W3C//DTD SVG 1.1//EN" "http://www.w3.org/Graphics/SVG/1.1/DTD/svg11.dtd">
<svg xmlns="http://www.w3.org/2000/svg" version="1.1" viewBox="0.00 0.00 66.00 88.00">
<g stroke-width="2.00" fill="none" stroke-linecap="butt">
<path stroke="#464544" vector-effect="non-scaling-stroke" d="
  M 33.42 86.61
  C 33.75 86.61 33.67 86.62 33.82 86.48
  Q 48.59 72.83 57.72 56.26
  C 64.41 44.11 67.51 28.40 59.46 16.54
  C 53.54 7.80 44.34 2.54 33.53 2.53
  C 22.73 2.51 13.51 7.75 7.57 16.47
  C -0.51 28.31 2.54 44.02 9.20 56.19
  Q 18.28 72.79 33.01 86.48
  C 33.16 86.62 33.09 86.61 33.42 86.61"
/>
<path stroke="#aeadad" vector-effect="non-scaling-stroke" d="
  M 30.31 41.87
  C 30.72 35.60 39.38 37.54 40.65 31.98
  Q 41.87 26.62 38.97 22.50
  C 36.62 19.16 31.71 15.35 27.46 15.92
  A 2.02 1.83 -6.4 0 0 25.71 17.91
  C 26.05 21.94 30.25 21.18 33.00 20.19
  A 1.37 1.36 45.3 0 1 33.92 20.20
  Q 38.05 21.79 38.35 26.22
  C 38.82 33.20 28.11 30.51 28.57 36.44
  Q 28.77 39.05 29.64 41.94
  A 0.34 0.34 0.0 0 0 30.31 41.87"
/>
<path stroke="#aeadad" vector-effect="non-scaling-stroke" d="
  M 33.8709 48.5749
  A 0.27 0.27 0.0 0 0 33.8663 48.1931
  L 30.2449 44.6591
  A 0.27 0.27 0.0 0 0 29.8631 44.6637
  L 26.3291 48.2851
  A 0.27 0.27 0.0 0 0 26.3337 48.6669
  L 29.9551 52.2009
  A 0.27 0.27 0.0 0 0 30.3369 52.1963
  L 33.8709 48.5749"
/>
</g>
<path fill="#2f2f2e" d="
  M 33.78 88.00
  L 33.04 88.00
  C 16.91 73.34 -5.82 44.87 3.70 21.28
  Q 7.14 12.75 14.75 7.29
  C 27.04 -1.52 44.84 -0.59 55.89 10.34
  Q 68.42 22.73 64.58 41.41
  Q 62.84 49.85 57.55 58.85
  Q 47.97 75.16 33.78 88.00
  Z
  M 33.42 86.61
  C 33.75 86.61 33.67 86.62 33.82 86.48
  Q 48.59 72.83 57.72 56.26
  C 64.41 44.11 67.51 28.40 59.46 16.54
  C 53.54 7.80 44.34 2.54 33.53 2.53
  C 22.73 2.51 13.51 7.75 7.57 16.47
  C -0.51 28.31 2.54 44.02 9.20 56.19
  Q 18.28 72.79 33.01 86.48
  C 33.16 86.62 33.09 86.61 33.42 86.61
  Z"
/>
<path fill="#5c5a5a" d="
  M 33.53 2.53
  C 44.34 2.54 53.54 7.80 59.46 16.54
  C 67.51 28.40 64.41 44.11 57.72 56.26
  Q 48.59 72.83 33.82 86.48
  C 33.67 86.62 33.75 86.61 33.42 86.61
  C 33.09 86.61 33.16 86.62 33.01 86.48
  Q 18.28 72.79 9.20 56.19
  C 2.54 44.02 -0.51 28.31 7.57 16.47
  C 13.51 7.75 22.73 2.51 33.53 2.53
  Z
  M 30.31 41.87
  C 30.72 35.60 39.38 37.54 40.65 31.98
  Q 41.87 26.62 38.97 22.50
  C 36.62 19.16 31.71 15.35 27.46 15.92
  A 2.02 1.83 -6.4 0 0 25.71 17.91
  C 26.05 21.94 30.25 21.18 33.00 20.19
  A 1.37 1.36 45.3 0 1 33.92 20.20
  Q 38.05 21.79 38.35 26.22
  C 38.82 33.20 28.11 30.51 28.57 36.44
  Q 28.77 39.05 29.64 41.94
  A 0.34 0.34 0.0 0 0 30.31 41.87
  Z
  M 33.8709 48.5749
  A 0.27 0.27 0.0 0 0 33.8663 48.1931
  L 30.2449 44.6591
  A 0.27 0.27 0.0 0 0 29.8631 44.6637
  L 26.3291 48.2851
  A 0.27 0.27 0.0 0 0 26.3337 48.6669
  L 29.9551 52.2009
  A 0.27 0.27 0.0 0 0 30.3369 52.1963
  L 33.8709 48.5749
  Z"
/>
<path fill="#ffffff" d="
  M 30.31 41.87
  A 0.34 0.34 0.0 0 1 29.64 41.94
  Q 28.77 39.05 28.57 36.44
  C 28.11 30.51 38.82 33.20 38.35 26.22
  Q 38.05 21.79 33.92 20.20
  A 1.37 1.36 45.3 0 0 33.00 20.19
  C 30.25 21.18 26.05 21.94 25.71 17.91
  A 2.02 1.83 -6.4 0 1 27.46 15.92
  C 31.71 15.35 36.62 19.16 38.97 22.50
  Q 41.87 26.62 40.65 31.98
  C 39.38 37.54 30.72 35.60 30.31 41.87
  Z"
/>
<rect fill="#ffffff" x="-2.80" y="-2.80" transform="translate(30.10,48.43) rotate(44.3)" width="5.60" height="5.60" rx="0.27"/>
</svg>
