<?xml version="1.0" encoding="UTF-8" standalone="no"?>
<!DOCTYPE svg PUBLIC "-//W3C//DTD SVG 1.1//EN" "http://www.w3.org/Graphics/SVG/1.1/DTD/svg11.dtd">
<svg xmlns="http://www.w3.org/2000/svg" version="1.1" viewBox="0.00 0.00 66.00 88.00">
<g stroke-width="2.00" fill="none" stroke-linecap="butt">
<path stroke="#4c120e" vector-effect="non-scaling-stroke" d="
  M 33.41 86.62
  Q 33.60 86.62 33.69 86.54
  C 44.35 76.65 54.16 64.57 60.15 51.18
  C 64.61 41.19 66.19 28.97 61.05 19.27
  C 55.57 8.95 45.27 2.56 33.54 2.54
  C 21.81 2.52 11.49 8.88 5.98 19.18
  C 0.81 28.86 2.35 41.09 6.78 51.09
  C 12.72 64.50 22.49 76.61 33.12 86.54
  Q 33.21 86.62 33.41 86.62"
/>
<path stroke="#a37572" vector-effect="non-scaling-stroke" d="
  M 31.38 38.55
  Q 32.39 38.33 32.34 39.71
  A 0.73 0.72 -88.8 0 1 31.62 40.41
  L 30.08 40.41
  A 0.05 0.05 0.0 0 0 30.05 40.49
  L 32.29 42.73
  A 1.03 1.02 -44.8 0 0 33.74 42.73
  L 35.80 40.67
  A 0.12 0.12 0.0 0 0 35.72 40.47
  L 34.37 40.47
  A 0.68 0.67 -86.9 0 1 33.70 39.72
  Q 33.82 38.72 34.72 38.57"
/>
<path stroke="#b18c89" vector-effect="non-scaling-stroke" d="
  M 34.72 38.57
  Q 42.39 35.88 45.04 34.59
  C 49.89 32.24 53.30 29.04 50.10 23.42
  C 48.77 21.08 44.46 17.50 41.82 20.06
  A 0.27 0.27 0.0 0 0 42.00 20.52
  Q 45.50 20.53 46.63 23.82
  C 47.14 25.30 46.62 27.32 45.38 28.20
  Q 40.31 31.80 33.67 30.41
  A 3.42 3.33 43.9 0 0 32.24 30.42
  Q 27.02 31.54 22.49 29.38
  C 17.30 26.91 18.42 20.99 24.02 20.47
  A 0.27 0.27 0.0 0 0 24.14 19.98
  C 19.03 16.51 12.72 25.57 15.42 30.41
  Q 16.42 32.21 20.08 34.06
  Q 25.48 36.79 31.38 38.55"
/>
<path stroke="#f1e9e8" vector-effect="non-scaling-stroke" d="
  M 34.72 38.57
  Q 34.49 37.17 33.40 35.97
  A 0.50 0.50 0.0 0 0 32.68 35.96
  Q 31.52 37.11 31.38 38.55"
/>
<path stroke="#b18c89" vector-effect="non-scaling-stroke" d="
  M 33.02 47.93
  Q 34.28 47.93 35.51 47.40
  A 2.38 2.37 5.5 0 0 36.54 46.56
  Q 38.12 44.30 40.20 43.31
  A 0.53 0.52 -35.2 0 0 40.35 42.47
  Q 40.34 42.45 39.35 42.31
  A 0.35 0.35 0.0 0 1 39.10 41.79
  Q 40.36 39.64 39.97 38.84
  A 0.34 0.34 0.0 0 0 39.36 38.84
  Q 38.45 40.80 37.67 41.18
  A 0.42 0.42 0.0 0 0 37.60 41.89
  Q 37.95 42.16 38.23 42.60
  A 0.55 0.55 0.0 0 1 37.99 43.40
  C 35.81 44.40 35.17 43.96 33.01 43.97
  C 30.86 43.97 30.21 44.41 28.03 43.42
  A 0.55 0.55 0.0 0 1 27.79 42.62
  Q 28.07 42.18 28.42 41.91
  A 0.42 0.42 0.0 0 0 28.34 41.20
  Q 27.56 40.83 26.64 38.87
  A 0.34 0.34 0.0 0 0 26.03 38.87
  Q 25.65 39.67 26.92 41.82
  A 0.35 0.35 0.0 0 1 26.67 42.34
  Q 25.68 42.48 25.67 42.50
  A 0.53 0.52 34.9 0 0 25.82 43.34
  Q 27.91 44.32 29.50 46.58
  A 2.38 2.37 -5.8 0 0 30.53 47.41
  Q 31.76 47.93 33.02 47.93"
/>
</g>
<path fill="#350b09" d="
  M 33.80 88.00
  L 33.04 88.00
  C 21.76 77.75 12.12 65.68 5.65 51.56
  Q 2.21 44.06 1.60 34.89
  C 0.54 18.97 11.20 5.67 26.50 2.10
  C 41.04 -1.29 56.08 6.03 62.69 19.93
  C 66.94 28.88 65.89 40.02 62.33 49.05
  C 56.50 63.87 45.54 77.35 33.80 88.00
  Z
  M 33.41 86.62
  Q 33.60 86.62 33.69 86.54
  C 44.35 76.65 54.16 64.57 60.15 51.18
  C 64.61 41.19 66.19 28.97 61.05 19.27
  C 55.57 8.95 45.27 2.56 33.54 2.54
  C 21.81 2.52 11.49 8.88 5.98 19.18
  C 0.81 28.86 2.35 41.09 6.78 51.09
  C 12.72 64.50 22.49 76.61 33.12 86.54
  Q 33.21 86.62 33.41 86.62
  Z"
/>
<path fill="#631813" d="
  M 33.54 2.54
  C 45.27 2.56 55.57 8.95 61.05 19.27
  C 66.19 28.97 64.61 41.19 60.15 51.18
  C 54.16 64.57 44.35 76.65 33.69 86.54
  Q 33.60 86.62 33.41 86.62
  Q 33.21 86.62 33.12 86.54
  C 22.49 76.61 12.72 64.50 6.78 51.09
  C 2.35 41.09 0.81 28.86 5.98 19.18
  C 11.49 8.88 21.81 2.52 33.54 2.54
  Z
  M 31.38 38.55
  Q 32.39 38.33 32.34 39.71
  A 0.73 0.72 -88.8 0 1 31.62 40.41
  L 30.08 40.41
  A 0.05 0.05 0.0 0 0 30.05 40.49
  L 32.29 42.73
  A 1.03 1.02 -44.8 0 0 33.74 42.73
  L 35.80 40.67
  A 0.12 0.12 0.0 0 0 35.72 40.47
  L 34.37 40.47
  A 0.68 0.67 -86.9 0 1 33.70 39.72
  Q 33.82 38.72 34.72 38.57
  Q 42.39 35.88 45.04 34.59
  C 49.89 32.24 53.30 29.04 50.10 23.42
  C 48.77 21.08 44.46 17.50 41.82 20.06
  A 0.27 0.27 0.0 0 0 42.00 20.52
  Q 45.50 20.53 46.63 23.82
  C 47.14 25.30 46.62 27.32 45.38 28.20
  Q 40.31 31.80 33.67 30.41
  A 3.42 3.33 43.9 0 0 32.24 30.42
  Q 27.02 31.54 22.49 29.38
  C 17.30 26.91 18.42 20.99 24.02 20.47
  A 0.27 0.27 0.0 0 0 24.14 19.98
  C 19.03 16.51 12.72 25.57 15.42 30.41
  Q 16.42 32.21 20.08 34.06
  Q 25.48 36.79 31.38 38.55
  Z
  M 33.02 47.93
  Q 34.28 47.93 35.51 47.40
  A 2.38 2.37 5.5 0 0 36.54 46.56
  Q 38.12 44.30 40.20 43.31
  A 0.53 0.52 -35.2 0 0 40.35 42.47
  Q 40.34 42.45 39.35 42.31
  A 0.35 0.35 0.0 0 1 39.10 41.79
  Q 40.36 39.64 39.97 38.84
  A 0.34 0.34 0.0 0 0 39.36 38.84
  Q 38.45 40.80 37.67 41.18
  A 0.42 0.42 0.0 0 0 37.60 41.89
  Q 37.95 42.16 38.23 42.60
  A 0.55 0.55 0.0 0 1 37.99 43.40
  C 35.81 44.40 35.17 43.96 33.01 43.97
  C 30.86 43.97 30.21 44.41 28.03 43.42
  A 0.55 0.55 0.0 0 1 27.79 42.62
  Q 28.07 42.18 28.42 41.91
  A 0.42 0.42 0.0 0 0 28.34 41.20
  Q 27.56 40.83 26.64 38.87
  A 0.34 0.34 0.0 0 0 26.03 38.87
  Q 25.65 39.67 26.92 41.82
  A 0.35 0.35 0.0 0 1 26.67 42.34
  Q 25.68 42.48 25.67 42.50
  A 0.53 0.52 34.9 0 0 25.82 43.34
  Q 27.91 44.32 29.50 46.58
  A 2.38 2.37 -5.8 0 0 30.53 47.41
  Q 31.76 47.93 33.02 47.93
  Z"
/>
<path fill="#ffffff" d="
  M 34.72 38.57
  Q 34.49 37.17 33.40 35.97
  A 0.50 0.50 0.0 0 0 32.68 35.96
  Q 31.52 37.11 31.38 38.55
  Q 25.48 36.79 20.08 34.06
  Q 16.42 32.21 15.42 30.41
  C 12.72 25.57 19.03 16.51 24.14 19.98
  A 0.27 0.27 0.0 0 1 24.02 20.47
  C 18.42 20.99 17.30 26.91 22.49 29.38
  Q 27.02 31.54 32.24 30.42
  A 3.42 3.33 43.9 0 1 33.67 30.41
  Q 40.31 31.80 45.38 28.20
  C 46.62 27.32 47.14 25.30 46.63 23.82
  Q 45.50 20.53 42.00 20.52
  A 0.27 0.27 0.0 0 1 41.82 20.06
  C 44.46 17.50 48.77 21.08 50.10 23.42
  C 53.30 29.04 49.89 32.24 45.04 34.59
  Q 42.39 35.88 34.72 38.57
  Z"
/>
<path fill="#e3d2d1" d="
  M 34.72 38.57
  Q 33.82 38.72 33.70 39.72
  A 0.68 0.67 -86.9 0 0 34.37 40.47
  L 35.72 40.47
  A 0.12 0.12 0.0 0 1 35.80 40.67
  L 33.74 42.73
  A 1.03 1.02 -44.8 0 1 32.29 42.73
  L 30.05 40.49
  A 0.05 0.05 0.0 0 1 30.08 40.41
  L 31.62 40.41
  A 0.73 0.72 -88.8 0 0 32.34 39.71
  Q 32.39 38.33 31.38 38.55
  Q 31.52 37.11 32.68 35.96
  A 0.50 0.50 0.0 0 1 33.40 35.97
  Q 34.49 37.17 34.72 38.57
  Z"
/>
<path fill="#ffffff" d="
  M 33.01 43.97
  C 35.17 43.96 35.81 44.40 37.99 43.40
  A 0.55 0.55 0.0 0 0 38.23 42.60
  Q 37.95 42.16 37.60 41.89
  A 0.42 0.42 0.0 0 1 37.67 41.18
  Q 38.45 40.80 39.36 38.84
  A 0.34 0.34 0.0 0 1 39.97 38.84
  Q 40.36 39.64 39.10 41.79
  A 0.35 0.35 0.0 0 0 39.35 42.31
  Q 40.34 42.45 40.35 42.47
  A 0.53 0.52 -35.2 0 1 40.20 43.31
  Q 38.12 44.30 36.54 46.56
  A 2.38 2.37 5.5 0 1 35.51 47.40
  Q 34.28 47.93 33.02 47.93
  Q 31.76 47.93 30.53 47.41
  A 2.38 2.37 -5.8 0 1 29.50 46.58
  Q 27.91 44.32 25.82 43.34
  A 0.53 0.52 34.9 0 1 25.67 42.50
  Q 25.68 42.48 26.67 42.34
  A 0.35 0.35 0.0 0 0 26.92 41.82
  Q 25.65 39.67 26.03 38.87
  A 0.34 0.34 0.0 0 1 26.64 38.87
  Q 27.56 40.83 28.34 41.20
  A 0.42 0.42 0.0 0 1 28.42 41.91
  Q 28.07 42.18 27.79 42.62
  A 0.55 0.55 0.0 0 0 28.03 43.42
  C 30.21 44.41 30.86 43.97 33.01 43.97
  Z"
/>
</svg>
