<?xml version="1.0" encoding="UTF-8" standalone="no"?>
<!DOCTYPE svg PUBLIC "-//W3C//DTD SVG 1.1//EN" "http://www.w3.org/Graphics/SVG/1.1/DTD/svg11.dtd">
<svg xmlns="http://www.w3.org/2000/svg" version="1.1" viewBox="0.00 0.00 66.00 88.00">
<g stroke-width="2.00" fill="none" stroke-linecap="butt">
<path stroke="#615742" vector-effect="non-scaling-stroke" d="
  M 33.40 86.68
  Q 33.54 86.68 33.67 86.65
  A 0.30 0.13 -51.9 0 0 33.73 86.62
  Q 47.15 74.10 56.21 59.00
  C 65.37 43.74 68.88 24.57 54.93 11.11
  C 49.26 5.65 41.59 2.48 33.55 2.47
  C 25.51 2.46 17.82 5.59 12.13 11.04
  C -1.86 24.45 1.58 43.63 10.69 58.92
  Q 19.70 74.05 33.08 86.62
  A 0.30 0.13 52.1 0 0 33.14 86.65
  Q 33.27 86.68 33.40 86.68"
/>
<path stroke="#c0b9ac" vector-effect="non-scaling-stroke" d="
  M 23.33 32.44
  Q 24.21 30.13 27.51 28.33
  A 0.74 0.70 76.5 0 0 27.88 27.69
  L 27.88 23.49
  A 1.30 1.29 -3.2 0 1 29.03 22.21
  L 29.46 22.16
  A 1.47 1.47 0.0 0 1 31.09 23.62
  L 31.09 26.39
  A 0.49 0.48 -10.5 0 0 31.75 26.84
  Q 37.95 24.50 44.80 19.71
  A 2.49 2.48 72.7 0 0 45.86 17.67
  L 45.86 16.53
  A 0.72 0.71 -16.9 0 0 44.74 15.94
  C 39.21 19.63 35.27 19.54 28.51 19.97
  Q 23.99 20.26 21.33 23.14
  A 4.40 4.39 59.1 0 0 20.31 27.22
  L 21.63 32.34
  A 0.89 0.89 0.0 0 0 23.33 32.44"
/>
<path stroke="#c0b9ac" vector-effect="non-scaling-stroke" d="
  M 29.90 51.77
  L 28.30 45.57
  A 0.99 0.99 0.0 0 1 28.61 44.58
  Q 31.76 41.84 34.24 36.87
  Q 36.51 32.35 37.70 30.94
  C 39.85 28.39 42.53 25.76 44.10 22.82
  A 0.32 0.32 0.0 0 0 43.64 22.41
  C 40.01 24.98 36.06 27.19 31.54 28.63
  C 26.44 30.27 22.95 32.51 23.48 38.12
  Q 23.68 40.14 26.48 51.75
  A 0.68 0.68 0.0 0 0 27.14 52.26
  L 29.52 52.26
  A 0.39 0.39 0.0 0 0 29.90 51.77"
/>
</g>
<path fill="#413b2b" d="
  M 33.78 88.00
  L 33.12 88.00
  Q 16.20 72.95 6.12 52.88
  Q 4.24 49.14 2.45 41.42
  C -0.24 29.87 2.65 18.45 11.29 10.15
  C 25.24 -3.24 48.79 -1.20 59.96 15.15
  C 76.87 39.87 51.29 72.18 33.78 88.00
  Z
  M 33.40 86.68
  Q 33.54 86.68 33.67 86.65
  A 0.30 0.13 -51.9 0 0 33.73 86.62
  Q 47.15 74.10 56.21 59.00
  C 65.37 43.74 68.88 24.57 54.93 11.11
  C 49.26 5.65 41.59 2.48 33.55 2.47
  C 25.51 2.46 17.82 5.59 12.13 11.04
  C -1.86 24.45 1.58 43.63 10.69 58.92
  Q 19.70 74.05 33.08 86.62
  A 0.30 0.13 52.1 0 0 33.14 86.65
  Q 33.27 86.68 33.40 86.68
  Z"
/>
<path fill="#807358" d="
  M 33.55 2.47
  C 41.59 2.48 49.26 5.65 54.93 11.11
  C 68.88 24.57 65.37 43.74 56.21 59.00
  Q 47.15 74.10 33.73 86.62
  A 0.30 0.13 -51.9 0 1 33.67 86.65
  Q 33.54 86.68 33.40 86.68
  Q 33.27 86.68 33.14 86.65
  A 0.30 0.13 52.1 0 1 33.08 86.62
  Q 19.70 74.05 10.69 58.92
  C 1.58 43.63 -1.86 24.45 12.13 11.04
  C 17.82 5.59 25.51 2.46 33.55 2.47
  Z
  M 23.33 32.44
  Q 24.21 30.13 27.51 28.33
  A 0.74 0.70 76.5 0 0 27.88 27.69
  L 27.88 23.49
  A 1.30 1.29 -3.2 0 1 29.03 22.21
  L 29.46 22.16
  A 1.47 1.47 0.0 0 1 31.09 23.62
  L 31.09 26.39
  A 0.49 0.48 -10.5 0 0 31.75 26.84
  Q 37.95 24.50 44.80 19.71
  A 2.49 2.48 72.7 0 0 45.86 17.67
  L 45.86 16.53
  A 0.72 0.71 -16.9 0 0 44.74 15.94
  C 39.21 19.63 35.27 19.54 28.51 19.97
  Q 23.99 20.26 21.33 23.14
  A 4.40 4.39 59.1 0 0 20.31 27.22
  L 21.63 32.34
  A 0.89 0.89 0.0 0 0 23.33 32.44
  Z
  M 29.90 51.77
  L 28.30 45.57
  A 0.99 0.99 0.0 0 1 28.61 44.58
  Q 31.76 41.84 34.24 36.87
  Q 36.51 32.35 37.70 30.94
  C 39.85 28.39 42.53 25.76 44.10 22.82
  A 0.32 0.32 0.0 0 0 43.64 22.41
  C 40.01 24.98 36.06 27.19 31.54 28.63
  C 26.44 30.27 22.95 32.51 23.48 38.12
  Q 23.68 40.14 26.48 51.75
  A 0.68 0.68 0.0 0 0 27.14 52.26
  L 29.52 52.26
  A 0.39 0.39 0.0 0 0 29.90 51.77
  Z"
/>
<path fill="#ffffff" d="
  M 23.33 32.44
  A 0.89 0.89 0.0 0 1 21.63 32.34
  L 20.31 27.22
  A 4.40 4.39 59.1 0 1 21.33 23.14
  Q 23.99 20.26 28.51 19.97
  C 35.27 19.54 39.21 19.63 44.74 15.94
  A 0.72 0.71 -16.9 0 1 45.86 16.53
  L 45.86 17.67
  A 2.49 2.48 72.7 0 1 44.80 19.71
  Q 37.95 24.50 31.75 26.84
  A 0.49 0.48 -10.5 0 1 31.09 26.39
  L 31.09 23.62
  A 1.47 1.47 0.0 0 0 29.46 22.16
  L 29.03 22.21
  A 1.30 1.29 -3.2 0 0 27.88 23.49
  L 27.88 27.69
  A 0.74 0.70 76.5 0 1 27.51 28.33
  Q 24.21 30.13 23.33 32.44
  Z"
/>
<path fill="#ffffff" d="
  M 29.90 51.77
  A 0.39 0.39 0.0 0 1 29.52 52.26
  L 27.14 52.26
  A 0.68 0.68 0.0 0 1 26.48 51.75
  Q 23.68 40.14 23.48 38.12
  C 22.95 32.51 26.44 30.27 31.54 28.63
  C 36.06 27.19 40.01 24.98 43.64 22.41
  A 0.32 0.32 0.0 0 1 44.10 22.82
  C 42.53 25.76 39.85 28.39 37.70 30.94
  Q 36.51 32.35 34.24 36.87
  Q 31.76 41.84 28.61 44.58
  A 0.99 0.99 0.0 0 0 28.30 45.57
  L 29.90 51.77
  Z"
/>
</svg>
