<?xml version="1.0" encoding="UTF-8" standalone="no"?>
<!DOCTYPE svg PUBLIC "-//W3C//DTD SVG 1.1//EN" "http://www.w3.org/Graphics/SVG/1.1/DTD/svg11.dtd">
<svg xmlns="http://www.w3.org/2000/svg" version="1.1" viewBox="0.00 0.00 66.00 88.00">
<g stroke-width="2.00" fill="none" stroke-linecap="butt">
<path stroke="#2b4c38" vector-effect="non-scaling-stroke" d="
  M 33.42 86.65
  Q 33.48 86.65 33.53 86.64
  A 0.34 0.27 -62.1 0 0 33.72 86.56
  Q 48.35 73.24 57.54 56.51
  Q 62.54 47.42 63.77 39.01
  Q 66.90 17.53 48.75 6.54
  Q 42.08 2.50 33.53 2.49
  Q 24.98 2.48 18.30 6.50
  Q 0.12 17.44 3.20 38.93
  Q 4.40 47.34 9.38 56.45
  Q 18.53 73.20 33.12 86.56
  A 0.34 0.27 62.2 0 0 33.32 86.64
  Q 33.36 86.65 33.42 86.65"
/>
<path stroke="#9cb1a5" vector-effect="non-scaling-stroke" d="
  M 32.67 52.24
  Q 33.13 52.24 33.50 52.07
  C 46.23 46.15 50.61 34.65 48.30 21.12
  A 0.59 0.58 -6.6 0 0 47.69 20.64
  C 43.22 20.91 38.86 21.07 36.38 18.86
  Q 33.94 16.69 32.87 15.89
  C 32.84 15.87 32.86 15.88 32.79 15.87
  C 32.72 15.87 32.74 15.87 32.71 15.89
  Q 31.63 16.68 29.18 18.84
  C 26.68 21.03 22.33 20.84 17.86 20.55
  A 0.59 0.58 7.0 0 0 17.24 21.02
  C 14.85 34.54 19.16 46.06 31.84 52.06
  Q 32.22 52.24 32.67 52.24"
/>
</g>
<path fill="#1c3425" d="
  M 33.81 88.00
  L 33.04 88.00
  C 21.75 77.75 12.12 65.68 5.65 51.56
  Q 2.21 44.05 1.60 34.89
  C 0.54 18.98 11.22 5.65 26.48 2.10
  C 40.60 -1.18 55.25 5.60 62.17 18.84
  C 67.41 28.88 65.86 41.27 61.31 51.54
  C 55.17 65.41 44.97 77.80 33.81 88.00
  Z
  M 33.42 86.65
  Q 33.48 86.65 33.53 86.64
  A 0.34 0.27 -62.1 0 0 33.72 86.56
  Q 48.35 73.24 57.54 56.51
  Q 62.54 47.42 63.77 39.01
  Q 66.90 17.53 48.75 6.54
  Q 42.08 2.50 33.53 2.49
  Q 24.98 2.48 18.30 6.50
  Q 0.12 17.44 3.20 38.93
  Q 4.40 47.34 9.38 56.45
  Q 18.53 73.20 33.12 86.56
  A 0.34 0.27 62.2 0 0 33.32 86.64
  Q 33.36 86.65 33.42 86.65
  Z"
/>
<path fill="#39634a" d="
  M 33.53 2.49
  Q 42.08 2.50 48.75 6.54
  Q 66.90 17.53 63.77 39.01
  Q 62.54 47.42 57.54 56.51
  Q 48.35 73.24 33.72 86.56
  A 0.34 0.27 -62.1 0 1 33.53 86.64
  Q 33.48 86.65 33.42 86.65
  Q 33.36 86.65 33.32 86.64
  A 0.34 0.27 62.2 0 1 33.12 86.56
  Q 18.53 73.20 9.38 56.45
  Q 4.40 47.34 3.20 38.93
  Q 0.12 17.44 18.30 6.50
  Q 24.98 2.48 33.53 2.49
  Z
  M 32.67 52.24
  Q 33.13 52.24 33.50 52.07
  C 46.23 46.15 50.61 34.65 48.30 21.12
  A 0.59 0.58 -6.6 0 0 47.69 20.64
  C 43.22 20.91 38.86 21.07 36.38 18.86
  Q 33.94 16.69 32.87 15.89
  C 32.84 15.87 32.86 15.88 32.79 15.87
  C 32.72 15.87 32.74 15.87 32.71 15.89
  Q 31.63 16.68 29.18 18.84
  C 26.68 21.03 22.33 20.84 17.86 20.55
  A 0.59 0.58 7.0 0 0 17.24 21.02
  C 14.85 34.54 19.16 46.06 31.84 52.06
  Q 32.22 52.24 32.67 52.24
  Z"
/>
<path fill="#ffffff" d="
  M 32.79 15.87
  C 32.86 15.88 32.84 15.87 32.87 15.89
  Q 33.94 16.69 36.38 18.86
  C 38.86 21.07 43.22 20.91 47.69 20.64
  A 0.59 0.58 -6.6 0 1 48.30 21.12
  C 50.61 34.65 46.23 46.15 33.50 52.07
  Q 33.13 52.24 32.67 52.24
  Q 32.22 52.24 31.84 52.06
  C 19.16 46.06 14.85 34.54 17.24 21.02
  A 0.59 0.58 7.0 0 1 17.86 20.55
  C 22.33 20.84 26.68 21.03 29.18 18.84
  Q 31.63 16.68 32.71 15.89
  C 32.74 15.87 32.72 15.87 32.79 15.87
  Z"
/>
</svg>
