<?xml version="1.0" encoding="UTF-8" standalone="no"?>
<!DOCTYPE svg PUBLIC "-//W3C//DTD SVG 1.1//EN" "http://www.w3.org/Graphics/SVG/1.1/DTD/svg11.dtd">
<svg xmlns="http://www.w3.org/2000/svg" version="1.1" viewBox="0.00 0.00 66.00 88.00">
<g stroke-width="2.00" fill="none" stroke-linecap="butt">
<path stroke="#431a44" vector-effect="non-scaling-stroke" d="
  M 33.43 86.53
  Q 33.72 86.53 33.90 86.37
  C 50.33 71.10 74.89 40.00 59.37 16.45
  C 53.81 8.03 44.98 3.18 35.00 2.54
  Q 33.64 2.46 33.48 2.46
  Q 33.33 2.46 31.97 2.54
  C 21.99 3.17 13.15 8.00 7.58 16.42
  C -7.97 39.95 16.55 71.08 32.97 86.37
  Q 33.14 86.53 33.43 86.53"
/>
<path stroke="#ac91ac" vector-effect="non-scaling-stroke" d="
  M 14.77 39.71
  Q 14.97 40.13 15.58 40.52
  Q 16.22 40.94 16.54 40.99
  Q 21.34 41.81 25.59 43.93
  C 27.06 44.66 29.52 45.08 30.75 45.00
  Q 39.35 44.41 47.69 42.43
  Q 49.23 42.07 50.87 41.01
  A 0.95 0.95 0.0 0 0 51.30 40.10
  C 50.97 37.16 48.55 37.27 47.32 35.34
  Q 46.43 33.96 45.14 33.32
  Q 39.86 30.74 36.11 26.32
  C 34.25 24.13 31.88 22.92 29.82 25.56
  C 25.73 30.83 21.19 35.73 15.32 38.25
  A 1.09 1.08 65.8 0 0 14.77 39.71"
/>
<path stroke="#ac91ac" vector-effect="non-scaling-stroke" d="
  M 33.51 26.89
  C 36.11 34.50 40.56 40.05 49.08 40.02
  A 0.44 0.44 0.0 0 0 49.25 39.17
  Q 46.63 38.06 45.90 36.43
  A 3.04 3.02 -0.2 0 0 44.33 34.88
  Q 40.34 33.17 38.09 30.88
  Q 34.10 26.83 33.87 26.64
  A 0.23 0.23 0.0 0 0 33.51 26.89"
/>
<path stroke="#ac91ac" vector-effect="non-scaling-stroke" d="
  M 32.40 35.95
  Q 32.05 35.95 31.70 36.24
  A 0.23 0.22 42.2 0 0 31.72 36.60
  Q 32.24 36.94 32.57 36.67
  A 0.41 0.37 -61.7 0 0 32.40 35.95"
/>
<path stroke="#ac91ac" vector-effect="non-scaling-stroke" d="
  M 30.93 38.56
  A 0.59 0.59 0.0 0 0 30.34 37.97
  A 0.59 0.59 0.0 0 0 29.75 38.56
  A 0.59 0.59 0.0 0 0 30.34 39.15
  A 0.59 0.59 0.0 0 0 30.93 38.56"
/>
<path stroke="#ac91ac" vector-effect="non-scaling-stroke" d="
  M 33.51 40.53
  A 0.77 0.76 -53.4 0 0 33.32 39.13
  Q 33.06 39.06 32.89 39.35
  Q 32.53 39.96 32.97 40.39
  Q 33.27 40.68 33.51 40.53"
/>
</g>
<path fill="#2e112e" d="
  M 33.81 88.00
  L 33.15 88.00
  Q 15.60 72.48 6.00 52.51
  Q 2.25 44.72 1.63 35.22
  Q 1.01 25.75 5.24 18.03
  C 12.61 4.55 28.15 -1.69 43.18 2.82
  Q 51.38 5.29 57.10 11.60
  Q 68.31 23.96 64.56 41.21
  Q 61.84 53.74 53.69 65.40
  Q 45.07 77.74 33.81 88.00
  Z
  M 33.43 86.53
  Q 33.72 86.53 33.90 86.37
  C 50.33 71.10 74.89 40.00 59.37 16.45
  C 53.81 8.03 44.98 3.18 35.00 2.54
  Q 33.64 2.46 33.48 2.46
  Q 33.33 2.46 31.97 2.54
  C 21.99 3.17 13.15 8.00 7.58 16.42
  C -7.97 39.95 16.55 71.08 32.97 86.37
  Q 33.14 86.53 33.43 86.53
  Z"
/>
<path fill="#582359" d="
  M 33.48 2.46
  Q 33.64 2.46 35.00 2.54
  C 44.98 3.18 53.81 8.03 59.37 16.45
  C 74.89 40.00 50.33 71.10 33.90 86.37
  Q 33.72 86.53 33.43 86.53
  Q 33.14 86.53 32.97 86.37
  C 16.55 71.08 -7.97 39.95 7.58 16.42
  C 13.15 8.00 21.99 3.17 31.97 2.54
  Q 33.33 2.46 33.48 2.46
  Z
  M 14.77 39.71
  Q 14.97 40.13 15.58 40.52
  Q 16.22 40.94 16.54 40.99
  Q 21.34 41.81 25.59 43.93
  C 27.06 44.66 29.52 45.08 30.75 45.00
  Q 39.35 44.41 47.69 42.43
  Q 49.23 42.07 50.87 41.01
  A 0.95 0.95 0.0 0 0 51.30 40.10
  C 50.97 37.16 48.55 37.27 47.32 35.34
  Q 46.43 33.96 45.14 33.32
  Q 39.86 30.74 36.11 26.32
  C 34.25 24.13 31.88 22.92 29.82 25.56
  C 25.73 30.83 21.19 35.73 15.32 38.25
  A 1.09 1.08 65.8 0 0 14.77 39.71
  Z"
/>
<path fill="#ffffff" d="
  M 14.77 39.71
  A 1.09 1.08 65.8 0 1 15.32 38.25
  C 21.19 35.73 25.73 30.83 29.82 25.56
  C 31.88 22.92 34.25 24.13 36.11 26.32
  Q 39.86 30.74 45.14 33.32
  Q 46.43 33.96 47.32 35.34
  C 48.55 37.27 50.97 37.16 51.30 40.10
  A 0.95 0.95 0.0 0 1 50.87 41.01
  Q 49.23 42.07 47.69 42.43
  Q 39.35 44.41 30.75 45.00
  C 29.52 45.08 27.06 44.66 25.59 43.93
  Q 21.34 41.81 16.54 40.99
  Q 16.22 40.94 15.58 40.52
  Q 14.97 40.13 14.77 39.71
  Z
  M 33.51 26.89
  C 36.11 34.50 40.56 40.05 49.08 40.02
  A 0.44 0.44 0.0 0 0 49.25 39.17
  Q 46.63 38.06 45.90 36.43
  A 3.04 3.02 -0.2 0 0 44.33 34.88
  Q 40.34 33.17 38.09 30.88
  Q 34.10 26.83 33.87 26.64
  A 0.23 0.23 0.0 0 0 33.51 26.89
  Z
  M 32.40 35.95
  Q 32.05 35.95 31.70 36.24
  A 0.23 0.22 42.2 0 0 31.72 36.60
  Q 32.24 36.94 32.57 36.67
  A 0.41 0.37 -61.7 0 0 32.40 35.95
  Z
  M 30.93 38.56
  A 0.59 0.59 0.0 0 0 30.34 37.97
  A 0.59 0.59 0.0 0 0 29.75 38.56
  A 0.59 0.59 0.0 0 0 30.34 39.15
  A 0.59 0.59 0.0 0 0 30.93 38.56
  Z
  M 33.51 40.53
  A 0.77 0.76 -53.4 0 0 33.32 39.13
  Q 33.06 39.06 32.89 39.35
  Q 32.53 39.96 32.97 40.39
  Q 33.27 40.68 33.51 40.53
  Z"
/>
<path fill="#582359" d="
  M 33.87 26.64
  Q 34.10 26.83 38.09 30.88
  Q 40.34 33.17 44.33 34.88
  A 3.04 3.02 -0.2 0 1 45.90 36.43
  Q 46.63 38.06 49.25 39.17
  A 0.44 0.44 0.0 0 1 49.08 40.02
  C 40.56 40.05 36.11 34.50 33.51 26.89
  A 0.23 0.23 0.0 0 1 33.87 26.64
  Z"
/>
<path fill="#582359" d="
  M 32.40 35.95
  A 0.41 0.37 -61.7 0 1 32.57 36.67
  Q 32.24 36.94 31.72 36.60
  A 0.23 0.22 42.2 0 1 31.70 36.24
  Q 32.05 35.95 32.40 35.95
  Z"
/>
<circle fill="#582359" cx="30.34" cy="38.56" r="0.59"/>
<path fill="#582359" d="
  M 33.51 40.53
  Q 33.27 40.68 32.97 40.39
  Q 32.53 39.96 32.89 39.35
  Q 33.06 39.06 33.32 39.13
  A 0.77 0.76 -53.4 0 1 33.51 40.53
  Z"
/>
</svg>
