<?xml version="1.0" encoding="UTF-8" standalone="no"?>
<!DOCTYPE svg PUBLIC "-//W3C//DTD SVG 1.1//EN" "http://www.w3.org/Graphics/SVG/1.1/DTD/svg11.dtd">
<svg xmlns="http://www.w3.org/2000/svg" version="1.1" viewBox="0.00 0.00 66.00 88.00">
<g stroke-width="2.00" fill="none" stroke-linecap="butt">
<path stroke="#282a22" vector-effect="non-scaling-stroke" d="
  M 33.39 86.53
  Q 33.51 86.53 33.62 86.50
  Q 33.66 86.49 33.79 86.38
  C 44.45 76.50 54.12 64.62 60.05 51.30
  C 64.52 41.26 66.18 29.02 61.01 19.27
  Q 56.14 10.07 46.97 5.63
  Q 40.55 2.52 33.52 2.51
  Q 26.50 2.50 20.07 5.59
  Q 10.88 10.00 5.99 19.18
  C 0.78 28.92 2.41 41.16 6.85 51.22
  C 12.73 64.56 22.37 76.47 33.00 86.38
  Q 33.13 86.49 33.17 86.50
  Q 33.28 86.53 33.39 86.53"
/>
<path stroke="#9a9b96" vector-effect="non-scaling-stroke" d="
  M 16.86 51.50
  L 47.78 51.50
  A 0.37 0.37 0.0 0 0 48.15 51.13
  L 48.15 32.31
  A 15.99 15.60 -90.0 0 0 32.55 16.32
  L 32.09 16.32
  A 15.99 15.60 90.0 0 0 16.49 32.31
  L 16.49 51.13
  A 0.37 0.37 0.0 0 0 16.86 51.50"
/>
<path stroke="#9a9b96" vector-effect="non-scaling-stroke" d="
  M 19.70 48.44
  L 44.80 48.52
  A 0.31 0.31 0.0 0 0 45.11 48.21
  L 45.17 32.11
  A 13.01 12.72 -89.8 0 0 32.49 19.06
  L 32.21 19.06
  A 13.01 12.72 -89.8 0 0 19.45 32.03
  L 19.39 48.13
  A 0.31 0.31 0.0 0 0 19.70 48.44"
/>
<path stroke="#9a9b96" vector-effect="non-scaling-stroke" d="
  M 43.07 31.24
  A 0.42 0.42 0.0 0 0 42.65 30.82
  L 33.31 30.82
  A 0.42 0.42 0.0 0 0 32.89 31.24
  L 32.89 34.26
  A 0.42 0.42 0.0 0 0 33.31 34.68
  L 42.65 34.68
  A 0.42 0.42 0.0 0 0 43.07 34.26
  L 43.07 31.24"
/>
<path stroke="#9a9b96" vector-effect="non-scaling-stroke" d="
  M 43.05 37.02
  A 0.43 0.43 0.0 0 0 42.62 36.59
  L 27.42 36.59
  A 0.43 0.43 0.0 0 0 26.99 37.02
  L 26.99 40.02
  A 0.43 0.43 0.0 0 0 27.42 40.45
  L 42.62 40.45
  A 0.43 0.43 0.0 0 0 43.05 40.02
  L 43.05 37.02"
/>
<path stroke="#9a9b96" vector-effect="non-scaling-stroke" d="
  M 42.94 42.75
  A 0.39 0.39 0.0 0 0 42.55 42.36
  L 21.93 42.36
  A 0.39 0.39 0.0 0 0 21.54 42.75
  L 21.54 45.83
  A 0.39 0.39 0.0 0 0 21.93 46.22
  L 42.55 46.22
  A 0.39 0.39 0.0 0 0 42.94 45.83
  L 42.94 42.75"
/>
</g>
<path fill="#1c1e17" d="
  M 33.81 88.00
  L 33.04 88.00
  C 21.95 77.94 11.89 65.48 5.64 51.57
  Q 2.21 43.93 1.59 34.88
  C 0.78 22.87 6.95 11.57 17.26 5.68
  C 33.71 -3.72 54.37 2.59 62.57 19.67
  C 66.90 28.68 65.97 39.70 62.40 48.84
  C 56.54 63.83 45.61 77.22 33.81 88.00
  Z
  M 33.39 86.53
  Q 33.51 86.53 33.62 86.50
  Q 33.66 86.49 33.79 86.38
  C 44.45 76.50 54.12 64.62 60.05 51.30
  C 64.52 41.26 66.18 29.02 61.01 19.27
  Q 56.14 10.07 46.97 5.63
  Q 40.55 2.52 33.52 2.51
  Q 26.50 2.50 20.07 5.59
  Q 10.88 10.00 5.99 19.18
  C 0.78 28.92 2.41 41.16 6.85 51.22
  C 12.73 64.56 22.37 76.47 33.00 86.38
  Q 33.13 86.49 33.17 86.50
  Q 33.28 86.53 33.39 86.53
  Z"
/>
<path fill="#34362c" d="
  M 33.52 2.51
  Q 40.55 2.52 46.97 5.63
  Q 56.14 10.07 61.01 19.27
  C 66.18 29.02 64.52 41.26 60.05 51.30
  C 54.12 64.62 44.45 76.50 33.79 86.38
  Q 33.66 86.49 33.62 86.50
  Q 33.51 86.53 33.39 86.53
  Q 33.28 86.53 33.17 86.50
  Q 33.13 86.49 33.00 86.38
  C 22.37 76.47 12.73 64.56 6.85 51.22
  C 2.41 41.16 0.78 28.92 5.99 19.18
  Q 10.88 10.00 20.07 5.59
  Q 26.50 2.50 33.52 2.51
  Z
  M 16.86 51.50
  L 47.78 51.50
  A 0.37 0.37 0.0 0 0 48.15 51.13
  L 48.15 32.31
  A 15.99 15.60 -90.0 0 0 32.55 16.32
  L 32.09 16.32
  A 15.99 15.60 90.0 0 0 16.49 32.31
  L 16.49 51.13
  A 0.37 0.37 0.0 0 0 16.86 51.50
  Z"
/>
<path fill="#ffffff" d="
  M 16.86 51.50
  A 0.37 0.37 0.0 0 1 16.49 51.13
  L 16.49 32.31
  A 15.99 15.60 -90.0 0 1 32.09 16.32
  L 32.55 16.32
  A 15.99 15.60 -90.0 0 1 48.15 32.31
  L 48.15 51.13
  A 0.37 0.37 0.0 0 1 47.78 51.50
  L 16.86 51.50
  Z
  M 19.70 48.44
  L 44.80 48.52
  A 0.31 0.31 0.0 0 0 45.11 48.21
  L 45.17 32.11
  A 13.01 12.72 -89.8 0 0 32.49 19.06
  L 32.21 19.06
  A 13.01 12.72 -89.8 0 0 19.45 32.03
  L 19.39 48.13
  A 0.31 0.31 0.0 0 0 19.70 48.44
  Z"
/>
<path fill="#34362c" d="
  M 19.70 48.44
  A 0.31 0.31 0.0 0 1 19.39 48.13
  L 19.45 32.03
  A 13.01 12.72 -89.8 0 1 32.21 19.06
  L 32.49 19.06
  A 13.01 12.72 -89.8 0 1 45.17 32.11
  L 45.11 48.21
  A 0.31 0.31 0.0 0 1 44.80 48.52
  L 19.70 48.44
  Z
  M 43.07 31.24
  A 0.42 0.42 0.0 0 0 42.65 30.82
  L 33.31 30.82
  A 0.42 0.42 0.0 0 0 32.89 31.24
  L 32.89 34.26
  A 0.42 0.42 0.0 0 0 33.31 34.68
  L 42.65 34.68
  A 0.42 0.42 0.0 0 0 43.07 34.26
  L 43.07 31.24
  Z
  M 43.05 37.02
  A 0.43 0.43 0.0 0 0 42.62 36.59
  L 27.42 36.59
  A 0.43 0.43 0.0 0 0 26.99 37.02
  L 26.99 40.02
  A 0.43 0.43 0.0 0 0 27.42 40.45
  L 42.62 40.45
  A 0.43 0.43 0.0 0 0 43.05 40.02
  L 43.05 37.02
  Z
  M 42.94 42.75
  A 0.39 0.39 0.0 0 0 42.55 42.36
  L 21.93 42.36
  A 0.39 0.39 0.0 0 0 21.54 42.75
  L 21.54 45.83
  A 0.39 0.39 0.0 0 0 21.93 46.22
  L 42.55 46.22
  A 0.39 0.39 0.0 0 0 42.94 45.83
  L 42.94 42.75
  Z"
/>
<rect fill="#ffffff" x="32.89" y="30.82" width="10.18" height="3.86" rx="0.42"/>
<rect fill="#ffffff" x="26.99" y="36.59" width="16.06" height="3.86" rx="0.43"/>
<rect fill="#ffffff" x="21.54" y="42.36" width="21.40" height="3.86" rx="0.39"/>
</svg>
