<?xml version="1.0" encoding="UTF-8" standalone="no"?>
<!DOCTYPE svg PUBLIC "-//W3C//DTD SVG 1.1//EN" "http://www.w3.org/Graphics/SVG/1.1/DTD/svg11.dtd">
<svg xmlns="http://www.w3.org/2000/svg" version="1.1" viewBox="0.00 0.00 66.00 88.00">
<g stroke-width="2.00" fill="none" stroke-linecap="butt">
<path stroke="#173f51" vector-effect="non-scaling-stroke" d="
  M 33.43 86.62
  C 33.75 86.62 33.66 86.63 33.81 86.49
  Q 48.34 72.96 57.38 56.90
  C 64.44 44.37 67.87 27.95 58.75 15.52
  C 52.78 7.38 43.85 2.54 33.50 2.53
  C 23.15 2.52 14.21 7.34 8.23 15.47
  C -0.91 27.89 2.49 44.31 9.52 56.86
  Q 18.54 72.93 33.04 86.49
  C 33.19 86.63 33.10 86.62 33.43 86.62"
/>
<path stroke="#8fa9b5" vector-effect="non-scaling-stroke" d="
  M 45.53 42.86
  Q 44.51 45.39 42.51 47.35
  A 0.25 0.25 0.0 0 0 42.82 47.74
  Q 48.82 43.84 49.39 36.59
  Q 49.42 36.29 49.76 36.43
  A 0.18 0.17 8.2 0 1 49.88 36.58
  L 50.17 39.26
  A 0.25 0.25 0.0 0 0 50.64 39.34
  Q 50.87 38.87 51.02 35.75
  C 51.45 27.13 47.50 18.86 38.90 15.97
  A 0.60 0.60 0.0 0 0 38.13 16.35
  Q 37.46 18.45 36.07 19.22
  A 0.31 0.30 -34.3 0 0 35.98 19.68
  L 35.99 19.69
  A 0.25 0.24 51.3 0 0 36.32 19.73
  Q 37.16 19.10 37.81 18.94
  A 1.62 1.60 50.8 0 1 38.93 19.06
  Q 45.64 22.49 45.15 30.16
  C 45.03 32.03 44.96 34.37 42.51 33.77
  Q 38.58 32.81 35.31 35.07
  A 0.67 0.66 -18.0 0 0 35.03 35.61
  L 35.03 37.40
  A 0.13 0.13 0.0 0 1 34.79 37.47
  C 33.39 35.45 33.91 32.21 35.05 30.17
  A 1.13 1.12 10.6 0 1 35.86 29.62
  Q 35.97 29.60 36.10 29.58
  A 1.45 1.44 11.9 0 0 37.09 28.94
  Q 38.01 27.52 39.52 26.69
  A 0.64 0.63 53.3 0 0 39.66 25.69
  L 39.32 25.35
  A 0.74 0.74 0.0 0 0 38.33 25.30
  Q 37.39 26.07 37.38 26.07
  A 0.30 0.30 0.0 0 1 37.06 25.63
  C 38.29 23.55 39.87 24.40 41.51 22.58
  A 0.09 0.08 -42.1 0 0 41.52 22.48
  L 41.30 22.08
  A 0.36 0.35 51.7 0 0 40.74 22.01
  L 39.16 23.58
  A 0.56 0.56 0.0 0 1 38.23 23.37
  Q 37.90 22.40 37.46 22.25
  Q 36.91 22.08 36.42 22.84
  Q 35.31 24.59 33.70 25.19
  C 31.79 25.91 30.96 26.90 29.68 28.63
  A 0.21 0.20 -39.1 0 0 29.66 28.82
  Q 29.67 28.84 29.70 28.92
  A 0.65 0.65 0.0 0 1 29.57 29.65
  Q 28.59 30.64 28.38 32.34
  Q 28.34 32.73 28.59 32.81
  Q 28.79 32.89 29.15 32.87
  A 0.46 0.46 0.0 0 1 29.62 33.39
  L 29.58 33.67
  A 0.77 0.77 0.0 0 1 28.94 34.32
  Q 28.52 34.39 27.48 33.88
  A 3.30 3.25 57.5 0 0 26.05 33.55
  L 22.21 33.55
  A 0.94 0.93 87.3 0 1 21.28 32.70
  C 20.84 27.46 23.06 18.30 29.78 18.87
  A 0.28 0.28 0.0 0 0 30.02 18.41
  Q 29.26 17.55 29.11 16.33
  A 0.70 0.70 0.0 0 0 28.22 15.74
  C 17.82 18.84 13.04 29.47 15.53 39.82
  A 0.18 0.17 83.8 0 0 15.70 39.96
  L 15.96 39.96
  A 0.07 0.07 0.0 0 0 16.03 39.90
  L 16.22 36.50
  A 0.05 0.05 0.0 0 1 16.27 36.45
  L 16.52 36.45
  A 0.20 0.20 0.0 0 1 16.72 36.65
  Q 16.74 43.08 22.10 46.87
  A 0.21 0.20 -88.6 0 0 22.39 46.59
  Q 21.15 44.64 20.61 42.83
  A 0.15 0.15 0.0 0 1 20.86 42.68
  L 23.98 45.79
  A 0.82 0.82 0.0 0 1 24.10 46.78
  Q 22.99 48.61 25.31 50.22
  Q 30.66 53.93 36.16 52.11
  A 1.08 1.02 20.1 0 0 36.44 51.99
  L 40.36 49.73
  A 1.03 1.02 -4.7 0 0 40.80 49.22
  Q 40.98 48.80 41.06 48.60
  A 0.56 0.55 -13.4 0 0 40.13 48.03
  L 38.66 49.64
  A 1.30 1.16 6.6 0 1 38.22 49.95
  Q 33.85 51.88 29.71 49.86
  A 0.21 0.21 0.0 0 1 29.61 49.58
  L 29.61 49.57
  A 0.26 0.25 -64.5 0 1 29.94 49.45
  Q 33.08 50.76 35.83 49.74
  Q 41.37 47.70 45.15 42.65
  A 0.22 0.22 0.0 0 1 45.53 42.86"
/>
</g>
<path fill="#0e2b36" d="
  M 33.80 88.00
  L 33.15 88.00
  Q 15.60 72.48 6.00 52.51
  Q 2.31 44.85 1.62 35.22
  Q 0.94 25.68 5.27 17.99
  C 18.07 -4.76 50.84 -4.23 62.58 19.68
  C 66.95 28.60 65.93 39.69 62.37 48.89
  C 56.63 63.78 45.53 77.33 33.80 88.00
  Z
  M 33.43 86.62
  C 33.75 86.62 33.66 86.63 33.81 86.49
  Q 48.34 72.96 57.38 56.90
  C 64.44 44.37 67.87 27.95 58.75 15.52
  C 52.78 7.38 43.85 2.54 33.50 2.53
  C 23.15 2.52 14.21 7.34 8.23 15.47
  C -0.91 27.89 2.49 44.31 9.52 56.86
  Q 18.54 72.93 33.04 86.49
  C 33.19 86.63 33.10 86.62 33.43 86.62
  Z"
/>
<path fill="#1f526b" d="
  M 33.50 2.53
  C 43.85 2.54 52.78 7.38 58.75 15.52
  C 67.87 27.95 64.44 44.37 57.38 56.90
  Q 48.34 72.96 33.81 86.49
  C 33.66 86.63 33.75 86.62 33.43 86.62
  C 33.10 86.62 33.19 86.63 33.04 86.49
  Q 18.54 72.93 9.52 56.86
  C 2.49 44.31 -0.91 27.89 8.23 15.47
  C 14.21 7.34 23.15 2.52 33.50 2.53
  Z
  M 45.53 42.86
  Q 44.51 45.39 42.51 47.35
  A 0.25 0.25 0.0 0 0 42.82 47.74
  Q 48.82 43.84 49.39 36.59
  Q 49.42 36.29 49.76 36.43
  A 0.18 0.17 8.2 0 1 49.88 36.58
  L 50.17 39.26
  A 0.25 0.25 0.0 0 0 50.64 39.34
  Q 50.87 38.87 51.02 35.75
  C 51.45 27.13 47.50 18.86 38.90 15.97
  A 0.60 0.60 0.0 0 0 38.13 16.35
  Q 37.46 18.45 36.07 19.22
  A 0.31 0.30 -34.3 0 0 35.98 19.68
  L 35.99 19.69
  A 0.25 0.24 51.3 0 0 36.32 19.73
  Q 37.16 19.10 37.81 18.94
  A 1.62 1.60 50.8 0 1 38.93 19.06
  Q 45.64 22.49 45.15 30.16
  C 45.03 32.03 44.96 34.37 42.51 33.77
  Q 38.58 32.81 35.31 35.07
  A 0.67 0.66 -18.0 0 0 35.03 35.61
  L 35.03 37.40
  A 0.13 0.13 0.0 0 1 34.79 37.47
  C 33.39 35.45 33.91 32.21 35.05 30.17
  A 1.13 1.12 10.6 0 1 35.86 29.62
  Q 35.97 29.60 36.10 29.58
  A 1.45 1.44 11.9 0 0 37.09 28.94
  Q 38.01 27.52 39.52 26.69
  A 0.64 0.63 53.3 0 0 39.66 25.69
  L 39.32 25.35
  A 0.74 0.74 0.0 0 0 38.33 25.30
  Q 37.39 26.07 37.38 26.07
  A 0.30 0.30 0.0 0 1 37.06 25.63
  C 38.29 23.55 39.87 24.40 41.51 22.58
  A 0.09 0.08 -42.1 0 0 41.52 22.48
  L 41.30 22.08
  A 0.36 0.35 51.7 0 0 40.74 22.01
  L 39.16 23.58
  A 0.56 0.56 0.0 0 1 38.23 23.37
  Q 37.90 22.40 37.46 22.25
  Q 36.91 22.08 36.42 22.84
  Q 35.31 24.59 33.70 25.19
  C 31.79 25.91 30.96 26.90 29.68 28.63
  A 0.21 0.20 -39.1 0 0 29.66 28.82
  Q 29.67 28.84 29.70 28.92
  A 0.65 0.65 0.0 0 1 29.57 29.65
  Q 28.59 30.64 28.38 32.34
  Q 28.34 32.73 28.59 32.81
  Q 28.79 32.89 29.15 32.87
  A 0.46 0.46 0.0 0 1 29.62 33.39
  L 29.58 33.67
  A 0.77 0.77 0.0 0 1 28.94 34.32
  Q 28.52 34.39 27.48 33.88
  A 3.30 3.25 57.5 0 0 26.05 33.55
  L 22.21 33.55
  A 0.94 0.93 87.3 0 1 21.28 32.70
  C 20.84 27.46 23.06 18.30 29.78 18.87
  A 0.28 0.28 0.0 0 0 30.02 18.41
  Q 29.26 17.55 29.11 16.33
  A 0.70 0.70 0.0 0 0 28.22 15.74
  C 17.82 18.84 13.04 29.47 15.53 39.82
  A 0.18 0.17 83.8 0 0 15.70 39.96
  L 15.96 39.96
  A 0.07 0.07 0.0 0 0 16.03 39.90
  L 16.22 36.50
  A 0.05 0.05 0.0 0 1 16.27 36.45
  L 16.52 36.45
  A 0.20 0.20 0.0 0 1 16.72 36.65
  Q 16.74 43.08 22.10 46.87
  A 0.21 0.20 -88.6 0 0 22.39 46.59
  Q 21.15 44.64 20.61 42.83
  A 0.15 0.15 0.0 0 1 20.86 42.68
  L 23.98 45.79
  A 0.82 0.82 0.0 0 1 24.10 46.78
  Q 22.99 48.61 25.31 50.22
  Q 30.66 53.93 36.16 52.11
  A 1.08 1.02 20.1 0 0 36.44 51.99
  L 40.36 49.73
  A 1.03 1.02 -4.7 0 0 40.80 49.22
  Q 40.98 48.80 41.06 48.60
  A 0.56 0.55 -13.4 0 0 40.13 48.03
  L 38.66 49.64
  A 1.30 1.16 6.6 0 1 38.22 49.95
  Q 33.85 51.88 29.71 49.86
  A 0.21 0.21 0.0 0 1 29.61 49.58
  L 29.61 49.57
  A 0.26 0.25 -64.5 0 1 29.94 49.45
  Q 33.08 50.76 35.83 49.74
  Q 41.37 47.70 45.15 42.65
  A 0.22 0.22 0.0 0 1 45.53 42.86
  Z"
/>
<path fill="#ffffff" d="
  M 45.53 42.86
  A 0.22 0.22 0.0 0 0 45.15 42.65
  Q 41.37 47.70 35.83 49.74
  Q 33.08 50.76 29.94 49.45
  A 0.26 0.25 -64.5 0 0 29.61 49.57
  L 29.61 49.58
  A 0.21 0.21 0.0 0 0 29.71 49.86
  Q 33.85 51.88 38.22 49.95
  A 1.30 1.16 6.6 0 0 38.66 49.64
  L 40.13 48.03
  A 0.56 0.55 -13.4 0 1 41.06 48.60
  Q 40.98 48.80 40.80 49.22
  A 1.03 1.02 -4.7 0 1 40.36 49.73
  L 36.44 51.99
  A 1.08 1.02 20.1 0 1 36.16 52.11
  Q 30.66 53.93 25.31 50.22
  Q 22.99 48.61 24.10 46.78
  A 0.82 0.82 0.0 0 0 23.98 45.79
  L 20.86 42.68
  A 0.15 0.15 0.0 0 0 20.61 42.83
  Q 21.15 44.64 22.39 46.59
  A 0.21 0.20 -88.6 0 1 22.10 46.87
  Q 16.74 43.08 16.72 36.65
  A 0.20 0.20 0.0 0 0 16.52 36.45
  L 16.27 36.45
  A 0.05 0.05 0.0 0 0 16.22 36.50
  L 16.03 39.90
  A 0.07 0.07 0.0 0 1 15.96 39.96
  L 15.70 39.96
  A 0.18 0.17 83.8 0 1 15.53 39.82
  C 13.04 29.47 17.82 18.84 28.22 15.74
  A 0.70 0.70 0.0 0 1 29.11 16.33
  Q 29.26 17.55 30.02 18.41
  A 0.28 0.28 0.0 0 1 29.78 18.87
  C 23.06 18.30 20.84 27.46 21.28 32.70
  A 0.94 0.93 87.3 0 0 22.21 33.55
  L 26.05 33.55
  A 3.30 3.25 57.5 0 1 27.48 33.88
  Q 28.52 34.39 28.94 34.32
  A 0.77 0.77 0.0 0 0 29.58 33.67
  L 29.62 33.39
  A 0.46 0.46 0.0 0 0 29.15 32.87
  Q 28.79 32.89 28.59 32.81
  Q 28.34 32.73 28.38 32.34
  Q 28.59 30.64 29.57 29.65
  A 0.65 0.65 0.0 0 0 29.70 28.92
  Q 29.67 28.84 29.66 28.82
  A 0.21 0.20 -39.1 0 1 29.68 28.63
  C 30.96 26.90 31.79 25.91 33.70 25.19
  Q 35.31 24.59 36.42 22.84
  Q 36.91 22.08 37.46 22.25
  Q 37.90 22.40 38.23 23.37
  A 0.56 0.56 0.0 0 0 39.16 23.58
  L 40.74 22.01
  A 0.36 0.35 51.7 0 1 41.30 22.08
  L 41.52 22.48
  A 0.09 0.08 -42.1 0 1 41.51 22.58
  C 39.87 24.40 38.29 23.55 37.06 25.63
  A 0.30 0.30 0.0 0 0 37.38 26.07
  Q 37.39 26.07 38.33 25.30
  A 0.74 0.74 0.0 0 1 39.32 25.35
  L 39.66 25.69
  A 0.64 0.63 53.3 0 1 39.52 26.69
  Q 38.01 27.52 37.09 28.94
  A 1.45 1.44 11.9 0 1 36.10 29.58
  Q 35.97 29.60 35.86 29.62
  A 1.13 1.12 10.6 0 0 35.05 30.17
  C 33.91 32.21 33.39 35.45 34.79 37.47
  A 0.13 0.13 0.0 0 0 35.03 37.40
  L 35.03 35.61
  A 0.67 0.66 -18.0 0 1 35.31 35.07
  Q 38.58 32.81 42.51 33.77
  C 44.96 34.37 45.03 32.03 45.15 30.16
  Q 45.64 22.49 38.93 19.06
  A 1.62 1.60 50.8 0 0 37.81 18.94
  Q 37.16 19.10 36.32 19.73
  A 0.25 0.24 51.3 0 1 35.99 19.69
  L 35.98 19.68
  A 0.31 0.30 -34.3 0 1 36.07 19.22
  Q 37.46 18.45 38.13 16.35
  A 0.60 0.60 0.0 0 1 38.90 15.97
  C 47.50 18.86 51.45 27.13 51.02 35.75
  Q 50.87 38.87 50.64 39.34
  A 0.25 0.25 0.0 0 1 50.17 39.26
  L 49.88 36.58
  A 0.18 0.17 8.2 0 0 49.76 36.43
  Q 49.42 36.29 49.39 36.59
  Q 48.82 43.84 42.82 47.74
  A 0.25 0.25 0.0 0 1 42.51 47.35
  Q 44.51 45.39 45.53 42.86
  Z"
/>
</svg>
