<?xml version="1.0" encoding="UTF-8" standalone="no"?>
<!DOCTYPE svg PUBLIC "-//W3C//DTD SVG 1.1//EN" "http://www.w3.org/Graphics/SVG/1.1/DTD/svg11.dtd">
<svg xmlns="http://www.w3.org/2000/svg" version="1.1" viewBox="0.00 0.00 66.00 88.00">
<g stroke-width="2.00" fill="none" stroke-linecap="butt">
<path stroke="#615742" vector-effect="non-scaling-stroke" d="
  M 33.40 86.68
  Q 33.53 86.68 33.67 86.65
  A 0.14 0.08 1.8 0 0 33.72 86.62
  Q 47.42 73.74 56.32 58.83
  C 63.55 46.73 68.18 29.84 59.78 17.00
  Q 50.71 3.14 33.75 2.47
  Q 33.64 2.46 33.54 2.46
  Q 33.43 2.46 33.33 2.47
  Q 16.37 3.08 7.25 16.91
  C -1.19 29.72 3.38 46.63 10.57 58.75
  Q 19.42 73.69 33.07 86.62
  A 0.14 0.08 -1.6 0 0 33.13 86.65
  Q 33.26 86.68 33.40 86.68"
/>
<path stroke="#c0b9ac" vector-effect="non-scaling-stroke" d="
  M 24.13 42.89
  Q 23.19 39.89 24.78 38.26
  A 1.86 1.85 67.4 0 0 25.31 36.96
  L 25.31 33.84
  A 0.73 0.72 -67.0 0 0 25.11 33.34
  L 22.06 30.30
  A 0.59 0.58 37.5 0 0 21.14 30.42
  L 19.46 33.32
  A 1.15 1.07 -35.2 0 0 19.32 33.99
  L 19.75 38.17
  A 1.25 1.22 -78.6 0 0 20.36 39.11
  L 22.59 40.40
  A 1.08 1.07 15.0 0 1 23.13 41.33
  L 23.13 43.98
  A 0.80 0.78 67.9 0 1 22.90 44.54
  L 19.86 47.64
  A 0.84 0.83 46.8 0 0 19.83 48.78
  L 19.87 48.83
  A 0.73 0.73 0.0 0 0 20.93 48.85
  L 28.73 40.90
  A 1.20 1.19 -66.0 0 1 29.68 40.53
  L 34.55 40.88
  A 1.21 1.17 -20.3 0 1 35.30 41.21
  L 37.15 43.07
  A 1.33 1.25 72.0 0 0 37.75 43.40
  Q 39.45 43.79 40.96 43.63
  A 1.84 1.75 24.7 0 0 41.78 43.35
  L 45.50 41.00
  A 0.45 0.45 0.0 0 0 45.57 40.30
  L 43.28 38.00
  A 1.30 1.30 0.0 0 0 42.36 37.62
  L 37.61 37.62
  A 0.68 0.64 21.3 0 0 37.14 37.81
  L 35.48 39.48
  A 1.55 1.53 22.3 0 1 34.39 39.93
  L 30.67 39.93
  A 0.43 0.43 0.0 0 1 30.37 39.19
  L 38.55 31.01
  A 0.76 0.71 19.0 0 1 39.02 30.80
  Q 39.60 30.76 40.77 30.76
  A 4.70 4.62 -77.2 0 0 44.97 28.07
  Q 45.49 26.99 45.96 23.99
  A 0.51 0.50 -82.6 0 0 45.51 23.40
  Q 40.64 22.90 37.88 26.40
  A 1.12 1.08 -27.1 0 0 37.65 27.07
  L 37.65 29.23
  A 1.44 1.42 -22.7 0 1 37.23 30.24
  L 32.71 34.75
  A 0.47 0.47 0.0 0 1 31.91 34.42
  L 31.91 29.06
  A 0.68 0.67 -22.8 0 1 32.11 28.58
  L 33.53 27.16
  A 0.90 0.90 0.0 0 0 33.79 26.44
  L 33.29 21.62
  A 0.80 0.80 0.0 0 0 33.06 21.14
  L 30.87 18.94
  A 0.55 0.54 -52.5 0 0 30.01 19.06
  L 27.79 22.91
  A 0.94 0.90 -30.8 0 0 27.66 23.38
  L 27.66 26.29
  A 1.33 1.33 0.0 0 0 28.05 27.23
  L 30.07 29.25
  A 2.35 2.33 -70.8 0 1 30.74 30.65
  L 31.28 35.67
  A 1.21 1.18 65.3 0 1 30.93 36.65
  L 24.58 43.01
  A 0.27 0.27 0.0 0 1 24.13 42.89"
/>
</g>
<path fill="#413b2b" d="
  M 33.78 88.00
  L 33.03 88.00
  C 17.15 73.55 -4.58 46.39 3.05 23.10
  C 11.22 -1.84 45.27 -6.48 60.05 15.28
  C 76.80 39.94 51.24 72.22 33.78 88.00
  Z
  M 33.40 86.68
  Q 33.53 86.68 33.67 86.65
  A 0.14 0.08 1.8 0 0 33.72 86.62
  Q 47.42 73.74 56.32 58.83
  C 63.55 46.73 68.18 29.84 59.78 17.00
  Q 50.71 3.14 33.75 2.47
  Q 33.64 2.46 33.54 2.46
  Q 33.43 2.46 33.33 2.47
  Q 16.37 3.08 7.25 16.91
  C -1.19 29.72 3.38 46.63 10.57 58.75
  Q 19.42 73.69 33.07 86.62
  A 0.14 0.08 -1.6 0 0 33.13 86.65
  Q 33.26 86.68 33.40 86.68
  Z"
/>
<path fill="#807358" d="
  M 33.54 2.46
  Q 33.64 2.46 33.75 2.47
  Q 50.71 3.14 59.78 17.00
  C 68.18 29.84 63.55 46.73 56.32 58.83
  Q 47.42 73.74 33.72 86.62
  A 0.14 0.08 1.8 0 1 33.67 86.65
  Q 33.53 86.68 33.40 86.68
  Q 33.26 86.68 33.13 86.65
  A 0.14 0.08 -1.6 0 1 33.07 86.62
  Q 19.42 73.69 10.57 58.75
  C 3.38 46.63 -1.19 29.72 7.25 16.91
  Q 16.37 3.08 33.33 2.47
  Q 33.43 2.46 33.54 2.46
  Z
  M 24.13 42.89
  Q 23.19 39.89 24.78 38.26
  A 1.86 1.85 67.4 0 0 25.31 36.96
  L 25.31 33.84
  A 0.73 0.72 -67.0 0 0 25.11 33.34
  L 22.06 30.30
  A 0.59 0.58 37.5 0 0 21.14 30.42
  L 19.46 33.32
  A 1.15 1.07 -35.2 0 0 19.32 33.99
  L 19.75 38.17
  A 1.25 1.22 -78.6 0 0 20.36 39.11
  L 22.59 40.40
  A 1.08 1.07 15.0 0 1 23.13 41.33
  L 23.13 43.98
  A 0.80 0.78 67.9 0 1 22.90 44.54
  L 19.86 47.64
  A 0.84 0.83 46.8 0 0 19.83 48.78
  L 19.87 48.83
  A 0.73 0.73 0.0 0 0 20.93 48.85
  L 28.73 40.90
  A 1.20 1.19 -66.0 0 1 29.68 40.53
  L 34.55 40.88
  A 1.21 1.17 -20.3 0 1 35.30 41.21
  L 37.15 43.07
  A 1.33 1.25 72.0 0 0 37.75 43.40
  Q 39.45 43.79 40.96 43.63
  A 1.84 1.75 24.7 0 0 41.78 43.35
  L 45.50 41.00
  A 0.45 0.45 0.0 0 0 45.57 40.30
  L 43.28 38.00
  A 1.30 1.30 0.0 0 0 42.36 37.62
  L 37.61 37.62
  A 0.68 0.64 21.3 0 0 37.14 37.81
  L 35.48 39.48
  A 1.55 1.53 22.3 0 1 34.39 39.93
  L 30.67 39.93
  A 0.43 0.43 0.0 0 1 30.37 39.19
  L 38.55 31.01
  A 0.76 0.71 19.0 0 1 39.02 30.80
  Q 39.60 30.76 40.77 30.76
  A 4.70 4.62 -77.2 0 0 44.97 28.07
  Q 45.49 26.99 45.96 23.99
  A 0.51 0.50 -82.6 0 0 45.51 23.40
  Q 40.64 22.90 37.88 26.40
  A 1.12 1.08 -27.1 0 0 37.65 27.07
  L 37.65 29.23
  A 1.44 1.42 -22.7 0 1 37.23 30.24
  L 32.71 34.75
  A 0.47 0.47 0.0 0 1 31.91 34.42
  L 31.91 29.06
  A 0.68 0.67 -22.8 0 1 32.11 28.58
  L 33.53 27.16
  A 0.90 0.90 0.0 0 0 33.79 26.44
  L 33.29 21.62
  A 0.80 0.80 0.0 0 0 33.06 21.14
  L 30.87 18.94
  A 0.55 0.54 -52.5 0 0 30.01 19.06
  L 27.79 22.91
  A 0.94 0.90 -30.8 0 0 27.66 23.38
  L 27.66 26.29
  A 1.33 1.33 0.0 0 0 28.05 27.23
  L 30.07 29.25
  A 2.35 2.33 -70.8 0 1 30.74 30.65
  L 31.28 35.67
  A 1.21 1.18 65.3 0 1 30.93 36.65
  L 24.58 43.01
  A 0.27 0.27 0.0 0 1 24.13 42.89
  Z"
/>
<path fill="#ffffff" d="
  M 24.13 42.89
  A 0.27 0.27 0.0 0 0 24.58 43.01
  L 30.93 36.65
  A 1.21 1.18 65.3 0 0 31.28 35.67
  L 30.74 30.65
  A 2.35 2.33 -70.8 0 0 30.07 29.25
  L 28.05 27.23
  A 1.33 1.33 0.0 0 1 27.66 26.29
  L 27.66 23.38
  A 0.94 0.90 -30.8 0 1 27.79 22.91
  L 30.01 19.06
  A 0.55 0.54 -52.5 0 1 30.87 18.94
  L 33.06 21.14
  A 0.80 0.80 0.0 0 1 33.29 21.62
  L 33.79 26.44
  A 0.90 0.90 0.0 0 1 33.53 27.16
  L 32.11 28.58
  A 0.68 0.67 -22.8 0 0 31.91 29.06
  L 31.91 34.42
  A 0.47 0.47 0.0 0 0 32.71 34.75
  L 37.23 30.24
  A 1.44 1.42 -22.7 0 0 37.65 29.23
  L 37.65 27.07
  A 1.12 1.08 -27.1 0 1 37.88 26.40
  Q 40.64 22.90 45.51 23.40
  A 0.51 0.50 -82.6 0 1 45.96 23.99
  Q 45.49 26.99 44.97 28.07
  A 4.70 4.62 -77.2 0 1 40.77 30.76
  Q 39.60 30.76 39.02 30.80
  A 0.76 0.71 19.0 0 0 38.55 31.01
  L 30.37 39.19
  A 0.43 0.43 0.0 0 0 30.67 39.93
  L 34.39 39.93
  A 1.55 1.53 22.3 0 0 35.48 39.48
  L 37.14 37.81
  A 0.68 0.64 21.3 0 1 37.61 37.62
  L 42.36 37.62
  A 1.30 1.30 0.0 0 1 43.28 38.00
  L 45.57 40.30
  A 0.45 0.45 0.0 0 1 45.50 41.00
  L 41.78 43.35
  A 1.84 1.75 24.7 0 1 40.96 43.63
  Q 39.45 43.79 37.75 43.40
  A 1.33 1.25 72.0 0 1 37.15 43.07
  L 35.30 41.21
  A 1.21 1.17 -20.3 0 0 34.55 40.88
  L 29.68 40.53
  A 1.20 1.19 -66.0 0 0 28.73 40.90
  L 20.93 48.85
  A 0.73 0.73 0.0 0 1 19.87 48.83
  L 19.83 48.78
  A 0.84 0.83 46.8 0 1 19.86 47.64
  L 22.90 44.54
  A 0.80 0.78 67.9 0 0 23.13 43.98
  L 23.13 41.33
  A 1.08 1.07 15.0 0 0 22.59 40.40
  L 20.36 39.11
  A 1.25 1.22 -78.6 0 1 19.75 38.17
  L 19.32 33.99
  A 1.15 1.07 -35.2 0 1 19.46 33.32
  L 21.14 30.42
  A 0.59 0.58 37.5 0 1 22.06 30.30
  L 25.11 33.34
  A 0.72 0.72 0.0 0 1 25.31 33.84
  L 25.31 36.96
  A 1.86 1.85 67.4 0 1 24.78 38.26
  Q 23.19 39.89 24.13 42.89
  Z"
/>
</svg>
