<?xml version="1.0" encoding="UTF-8" standalone="no"?>
<!DOCTYPE svg PUBLIC "-//W3C//DTD SVG 1.1//EN" "http://www.w3.org/Graphics/SVG/1.1/DTD/svg11.dtd">
<svg xmlns="http://www.w3.org/2000/svg" version="1.1" viewBox="0.00 0.00 66.00 88.00">
<g stroke-width="2.00" fill="none" stroke-linecap="butt">
<path stroke="#282a22" vector-effect="non-scaling-stroke" d="
  M 33.39 86.54
  Q 33.50 86.54 33.62 86.51
  Q 33.63 86.51 33.78 86.37
  C 46.15 74.84 57.26 60.93 62.36 45.01
  C 64.68 37.79 65.11 28.58 62.05 21.51
  C 57.06 9.97 46.02 2.54 33.52 2.52
  C 21.02 2.50 9.96 9.90 4.93 21.41
  C 1.85 28.48 2.25 37.69 4.55 44.92
  C 9.59 60.85 20.66 74.80 32.99 86.37
  Q 33.14 86.51 33.15 86.51
  Q 33.27 86.54 33.39 86.54"
/>
<path stroke="#9a9b96" vector-effect="non-scaling-stroke" d="
  M 33.87 48.48
  Q 36.54 49.84 40.14 50.02
  A 2.65 2.63 34.7 0 0 41.31 49.81
  Q 46.39 47.72 50.23 43.83
  A 0.11 0.11 0.0 0 0 50.13 43.65
  L 45.48 44.70
  A 0.67 0.66 6.8 0 0 45.04 45.04
  Q 44.33 46.41 42.70 47.32
  A 0.10 0.10 0.0 0 1 42.57 47.19
  L 43.77 45.13
  A 0.47 0.47 0.0 0 0 43.31 44.43
  Q 41.06 44.71 39.34 44.19
  A 1.62 1.61 -50.8 0 0 38.11 44.32
  Q 35.47 45.76 31.80 44.94
  A 0.15 0.14 -83.7 0 1 31.68 44.78
  L 31.69 44.77
  A 0.21 0.19 8.0 0 1 31.93 44.60
  Q 34.35 45.14 36.69 44.09
  A 0.33 0.32 -41.1 0 0 36.73 43.52
  L 33.73 41.60
  A 1.28 1.27 -34.5 0 0 32.80 41.43
  Q 32.30 41.54 30.34 40.71
  A 0.24 0.24 0.0 0 1 30.34 40.26
  Q 30.36 40.25 32.59 40.73
  A 0.47 0.46 -85.3 0 0 33.15 40.25
  Q 33.13 39.87 32.89 39.39
  C 32.12 37.82 30.80 37.59 30.33 35.51
  A 0.02 0.02 0.0 0 1 30.37 35.49
  L 32.19 37.30
  A 0.59 0.59 0.0 0 0 33.03 37.30
  L 34.57 35.76
  A 0.75 0.75 0.0 0 0 34.74 34.94
  Q 34.04 33.26 34.18 31.96
  A 0.36 0.36 0.0 0 1 34.74 31.69
  C 35.18 31.99 35.42 33.19 36.59 33.79
  C 38.02 34.52 42.18 37.39 41.07 39.64
  A 0.55 0.55 0.0 0 0 41.69 40.42
  L 44.16 39.86
  A 0.64 0.64 0.0 0 0 44.47 38.78
  L 41.41 35.72
  A 3.06 2.91 -80.0 0 1 40.76 34.74
  L 39.48 31.70
  A 0.13 0.13 0.0 0 1 39.67 31.53
  L 41.10 32.35
  A 0.93 0.89 -25.7 0 0 41.47 32.47
  Q 44.34 32.68 46.43 33.68
  A 1.00 1.00 0.0 0 1 46.99 34.53
  Q 47.00 34.72 47.01 34.74
  A 0.52 0.52 0.0 0 0 47.93 34.88
  Q 48.41 34.21 48.96 34.81
  A 0.85 0.84 -39.1 0 0 50.06 34.92
  Q 51.85 33.67 50.99 31.80
  A 1.43 1.39 85.4 0 0 50.11 31.03
  Q 46.27 29.87 44.73 26.75
  A 4.08 4.04 7.5 0 0 43.76 25.50
  L 40.40 22.58
  A 1.34 1.33 17.4 0 1 39.95 21.73
  L 39.87 21.13
  A 0.37 0.37 0.0 0 0 39.17 21.01
  Q 39.13 21.14 39.28 21.55
  A 0.52 0.52 0.0 0 1 38.44 22.11
  L 35.65 19.49
  A 0.04 0.04 0.0 0 0 35.59 19.49
  L 35.48 19.59
  A 0.10 0.09 -32.8 0 0 35.45 19.71
  Q 37.19 22.97 39.96 24.08
  A 0.16 0.16 0.0 0 1 39.88 24.38
  Q 33.27 23.69 29.09 19.37
  A 0.25 0.25 0.0 0 0 28.66 19.60
  Q 28.83 20.37 29.73 21.18
  A 0.32 0.32 0.0 0 1 29.36 21.70
  Q 26.50 20.17 24.84 18.12
  A 0.17 0.17 0.0 0 0 24.55 18.31
  C 26.55 22.26 30.42 24.02 34.67 25.27
  A 0.26 0.26 0.0 0 1 34.62 25.77
  Q 31.40 26.10 27.72 28.59
  A 0.30 0.30 0.0 0 0 27.96 29.13
  Q 28.49 29.01 28.52 29.02
  A 0.38 0.38 0.0 0 1 28.59 29.69
  Q 24.42 32.51 22.90 38.01
  A 0.36 0.36 0.0 0 1 22.19 37.93
  Q 21.71 29.66 28.85 25.09
  A 0.16 0.16 0.0 0 0 28.76 24.80
  Q 21.71 25.02 15.90 27.85
  Q 14.71 28.43 14.58 29.79
  A 0.38 0.37 -16.0 0 0 15.18 30.12
  L 15.96 29.55
  A 0.24 0.24 0.0 0 1 16.31 29.87
  Q 16.19 30.07 15.52 30.74
  Q 14.20 32.08 15.05 34.41
  A 0.30 0.30 0.0 0 0 15.60 34.43
  Q 17.39 30.56 21.45 28.40
  A 0.16 0.16 0.0 0 1 21.64 28.66
  Q 17.24 32.98 16.83 38.92
  Q 16.69 40.94 18.88 42.86
  A 0.29 0.29 0.0 0 0 19.36 42.70
  Q 19.66 41.20 19.77 40.79
  A 0.14 0.13 -44.5 0 1 20.03 40.79
  L 20.87 44.53
  A 3.53 3.50 8.8 0 0 22.54 46.79
  L 26.20 48.90
  A 0.80 0.80 0.0 0 0 27.37 47.97
  Q 25.63 42.41 27.36 36.13
  Q 27.56 35.39 29.27 32.96
  A 0.08 0.07 -38.7 0 1 29.40 32.97
  Q 29.46 33.11 29.36 33.28
  C 26.42 38.63 27.31 44.10 29.50 49.56
  A 1.15 1.12 86.5 0 0 30.24 50.23
  Q 32.79 51.00 35.68 50.77
  A 0.30 0.30 0.0 0 0 35.80 50.20
  Q 33.91 49.21 33.61 48.79
  A 0.21 0.21 0.0 0 1 33.87 48.48"
/>
<path stroke="#9a9b96" vector-effect="non-scaling-stroke" d="
  M 41.5849 27.9483
  A 0.95 0.27 -140.7 0 0 42.1490 28.7589
  A 0.95 0.27 -140.7 0 0 43.0551 29.1517
  A 0.95 0.27 -140.7 0 0 42.4910 28.3411
  A 0.95 0.27 -140.7 0 0 41.5849 27.9483"
/>
</g>
<path fill="#1c1e18" d="
  M 33.79 88.00
  L 33.04 88.00
  C 21.92 77.90 11.95 65.52 5.64 51.57
  Q 2.23 44.02 1.60 34.89
  C 0.49 18.90 11.38 5.50 26.73 2.05
  C 41.11 -1.19 55.95 6.02 62.58 19.69
  C 66.92 28.65 65.95 39.76 62.41 48.86
  C 56.61 63.75 45.57 77.32 33.79 88.00
  Z
  M 33.39 86.54
  Q 33.50 86.54 33.62 86.51
  Q 33.63 86.51 33.78 86.37
  C 46.15 74.84 57.26 60.93 62.36 45.01
  C 64.68 37.79 65.11 28.58 62.05 21.51
  C 57.06 9.97 46.02 2.54 33.52 2.52
  C 21.02 2.50 9.96 9.90 4.93 21.41
  C 1.85 28.48 2.25 37.69 4.55 44.92
  C 9.59 60.85 20.66 74.80 32.99 86.37
  Q 33.14 86.51 33.15 86.51
  Q 33.27 86.54 33.39 86.54
  Z"
/>
<path fill="#34362c" d="
  M 33.52 2.52
  C 46.02 2.54 57.06 9.97 62.05 21.51
  C 65.11 28.58 64.68 37.79 62.36 45.01
  C 57.26 60.93 46.15 74.84 33.78 86.37
  Q 33.63 86.51 33.62 86.51
  Q 33.50 86.54 33.39 86.54
  Q 33.27 86.54 33.15 86.51
  Q 33.14 86.51 32.99 86.37
  C 20.66 74.80 9.59 60.85 4.55 44.92
  C 2.25 37.69 1.85 28.48 4.93 21.41
  C 9.96 9.90 21.02 2.50 33.52 2.52
  Z
  M 33.87 48.48
  Q 36.54 49.84 40.14 50.02
  A 2.65 2.63 34.7 0 0 41.31 49.81
  Q 46.39 47.72 50.23 43.83
  A 0.11 0.11 0.0 0 0 50.13 43.65
  L 45.48 44.70
  A 0.67 0.66 6.8 0 0 45.04 45.04
  Q 44.33 46.41 42.70 47.32
  A 0.10 0.10 0.0 0 1 42.57 47.19
  L 43.77 45.13
  A 0.47 0.47 0.0 0 0 43.31 44.43
  Q 41.06 44.71 39.34 44.19
  A 1.62 1.61 -50.8 0 0 38.11 44.32
  Q 35.47 45.76 31.80 44.94
  A 0.15 0.14 -83.7 0 1 31.68 44.78
  L 31.69 44.77
  A 0.21 0.19 8.0 0 1 31.93 44.60
  Q 34.35 45.14 36.69 44.09
  A 0.33 0.32 -41.1 0 0 36.73 43.52
  L 33.73 41.60
  A 1.28 1.27 -34.5 0 0 32.80 41.43
  Q 32.30 41.54 30.34 40.71
  A 0.24 0.24 0.0 0 1 30.34 40.26
  Q 30.36 40.25 32.59 40.73
  A 0.47 0.46 -85.3 0 0 33.15 40.25
  Q 33.13 39.87 32.89 39.39
  C 32.12 37.82 30.80 37.59 30.33 35.51
  A 0.02 0.02 0.0 0 1 30.37 35.49
  L 32.19 37.30
  A 0.59 0.59 0.0 0 0 33.03 37.30
  L 34.57 35.76
  A 0.75 0.75 0.0 0 0 34.74 34.94
  Q 34.04 33.26 34.18 31.96
  A 0.36 0.36 0.0 0 1 34.74 31.69
  C 35.18 31.99 35.42 33.19 36.59 33.79
  C 38.02 34.52 42.18 37.39 41.07 39.64
  A 0.55 0.55 0.0 0 0 41.69 40.42
  L 44.16 39.86
  A 0.64 0.64 0.0 0 0 44.47 38.78
  L 41.41 35.72
  A 3.06 2.91 -80.0 0 1 40.76 34.74
  L 39.48 31.70
  A 0.13 0.13 0.0 0 1 39.67 31.53
  L 41.10 32.35
  A 0.93 0.89 -25.7 0 0 41.47 32.47
  Q 44.34 32.68 46.43 33.68
  A 1.00 1.00 0.0 0 1 46.99 34.53
  Q 47.00 34.72 47.01 34.74
  A 0.52 0.52 0.0 0 0 47.93 34.88
  Q 48.41 34.21 48.96 34.81
  A 0.85 0.84 -39.1 0 0 50.06 34.92
  Q 51.85 33.67 50.99 31.80
  A 1.43 1.39 85.4 0 0 50.11 31.03
  Q 46.27 29.87 44.73 26.75
  A 4.08 4.04 7.5 0 0 43.76 25.50
  L 40.40 22.58
  A 1.34 1.33 17.4 0 1 39.95 21.73
  L 39.87 21.13
  A 0.37 0.37 0.0 0 0 39.17 21.01
  Q 39.13 21.14 39.28 21.55
  A 0.52 0.52 0.0 0 1 38.44 22.11
  L 35.65 19.49
  A 0.04 0.04 0.0 0 0 35.59 19.49
  L 35.48 19.59
  A 0.10 0.09 -32.8 0 0 35.45 19.71
  Q 37.19 22.97 39.96 24.08
  A 0.16 0.16 0.0 0 1 39.88 24.38
  Q 33.27 23.69 29.09 19.37
  A 0.25 0.25 0.0 0 0 28.66 19.60
  Q 28.83 20.37 29.73 21.18
  A 0.32 0.32 0.0 0 1 29.36 21.70
  Q 26.50 20.17 24.84 18.12
  A 0.17 0.17 0.0 0 0 24.55 18.31
  C 26.55 22.26 30.42 24.02 34.67 25.27
  A 0.26 0.26 0.0 0 1 34.62 25.77
  Q 31.40 26.10 27.72 28.59
  A 0.30 0.30 0.0 0 0 27.96 29.13
  Q 28.49 29.01 28.52 29.02
  A 0.38 0.38 0.0 0 1 28.59 29.69
  Q 24.42 32.51 22.90 38.01
  A 0.36 0.36 0.0 0 1 22.19 37.93
  Q 21.71 29.66 28.85 25.09
  A 0.16 0.16 0.0 0 0 28.76 24.80
  Q 21.71 25.02 15.90 27.85
  Q 14.71 28.43 14.58 29.79
  A 0.38 0.37 -16.0 0 0 15.18 30.12
  L 15.96 29.55
  A 0.24 0.24 0.0 0 1 16.31 29.87
  Q 16.19 30.07 15.52 30.74
  Q 14.20 32.08 15.05 34.41
  A 0.30 0.30 0.0 0 0 15.60 34.43
  Q 17.39 30.56 21.45 28.40
  A 0.16 0.16 0.0 0 1 21.64 28.66
  Q 17.24 32.98 16.83 38.92
  Q 16.69 40.94 18.88 42.86
  A 0.29 0.29 0.0 0 0 19.36 42.70
  Q 19.66 41.20 19.77 40.79
  A 0.14 0.13 -44.5 0 1 20.03 40.79
  L 20.87 44.53
  A 3.53 3.50 8.8 0 0 22.54 46.79
  L 26.20 48.90
  A 0.80 0.80 0.0 0 0 27.37 47.97
  Q 25.63 42.41 27.36 36.13
  Q 27.56 35.39 29.27 32.96
  A 0.08 0.07 -38.7 0 1 29.40 32.97
  Q 29.46 33.11 29.36 33.28
  C 26.42 38.63 27.31 44.10 29.50 49.56
  A 1.15 1.12 86.5 0 0 30.24 50.23
  Q 32.79 51.00 35.68 50.77
  A 0.30 0.30 0.0 0 0 35.80 50.20
  Q 33.91 49.21 33.61 48.79
  A 0.21 0.21 0.0 0 1 33.87 48.48
  Z"
/>
<path fill="#ffffff" d="
  M 33.61 48.79
  Q 33.91 49.21 35.80 50.20
  A 0.30 0.30 0.0 0 1 35.68 50.77
  Q 32.79 51.00 30.24 50.23
  A 1.15 1.12 86.5 0 1 29.50 49.56
  C 27.31 44.10 26.42 38.63 29.36 33.28
  Q 29.46 33.11 29.40 32.97
  A 0.08 0.07 -38.7 0 0 29.27 32.96
  Q 27.56 35.39 27.36 36.13
  Q 25.63 42.41 27.37 47.97
  A 0.80 0.80 0.0 0 1 26.20 48.90
  L 22.54 46.79
  A 3.53 3.50 8.8 0 1 20.87 44.53
  L 20.03 40.79
  A 0.14 0.13 -44.5 0 0 19.77 40.79
  Q 19.66 41.20 19.36 42.70
  A 0.29 0.29 0.0 0 1 18.88 42.86
  Q 16.69 40.94 16.83 38.92
  Q 17.24 32.98 21.64 28.66
  A 0.16 0.16 0.0 0 0 21.45 28.40
  Q 17.39 30.56 15.60 34.43
  A 0.30 0.30 0.0 0 1 15.05 34.41
  Q 14.20 32.08 15.52 30.74
  Q 16.19 30.07 16.31 29.87
  A 0.24 0.24 0.0 0 0 15.96 29.55
  L 15.18 30.12
  A 0.38 0.37 -16.0 0 1 14.58 29.79
  Q 14.71 28.43 15.90 27.85
  Q 21.71 25.02 28.76 24.80
  A 0.16 0.16 0.0 0 1 28.85 25.09
  Q 21.71 29.66 22.19 37.93
  A 0.36 0.36 0.0 0 0 22.90 38.01
  Q 24.42 32.51 28.59 29.69
  A 0.38 0.38 0.0 0 0 28.52 29.02
  Q 28.49 29.01 27.96 29.13
  A 0.30 0.30 0.0 0 1 27.72 28.59
  Q 31.40 26.10 34.62 25.77
  A 0.26 0.26 0.0 0 0 34.67 25.27
  C 30.42 24.02 26.55 22.26 24.55 18.31
  A 0.17 0.17 0.0 0 1 24.84 18.12
  Q 26.50 20.17 29.36 21.70
  A 0.32 0.32 0.0 0 0 29.73 21.18
  Q 28.83 20.37 28.66 19.60
  A 0.25 0.25 0.0 0 1 29.09 19.37
  Q 33.27 23.69 39.88 24.38
  A 0.16 0.16 0.0 0 0 39.96 24.08
  Q 37.19 22.97 35.45 19.71
  A 0.10 0.09 -32.8 0 1 35.48 19.59
  L 35.59 19.49
  A 0.04 0.04 0.0 0 1 35.65 19.49
  L 38.44 22.11
  A 0.52 0.52 0.0 0 0 39.28 21.55
  Q 39.13 21.14 39.17 21.01
  A 0.37 0.37 0.0 0 1 39.87 21.13
  L 39.95 21.73
  A 1.34 1.33 17.4 0 0 40.40 22.58
  L 43.76 25.50
  A 4.08 4.04 7.5 0 1 44.73 26.75
  Q 46.27 29.87 50.11 31.03
  A 1.43 1.39 85.4 0 1 50.99 31.80
  Q 51.85 33.67 50.06 34.92
  A 0.85 0.84 -39.1 0 1 48.96 34.81
  Q 48.41 34.21 47.93 34.88
  A 0.52 0.52 0.0 0 1 47.01 34.74
  Q 47.00 34.72 46.99 34.53
  A 1.00 1.00 0.0 0 0 46.43 33.68
  Q 44.34 32.68 41.47 32.47
  A 0.93 0.89 -25.7 0 1 41.10 32.35
  L 39.67 31.53
  A 0.13 0.13 0.0 0 0 39.48 31.70
  L 40.76 34.74
  A 3.06 2.91 -80.0 0 0 41.41 35.72
  L 44.47 38.78
  A 0.64 0.64 0.0 0 1 44.16 39.86
  L 41.69 40.42
  A 0.55 0.55 0.0 0 1 41.07 39.64
  C 42.18 37.39 38.02 34.52 36.59 33.79
  C 35.42 33.19 35.18 31.99 34.74 31.69
  A 0.36 0.36 0.0 0 0 34.18 31.96
  Q 34.04 33.26 34.74 34.94
  A 0.75 0.75 0.0 0 1 34.57 35.76
  L 33.03 37.30
  A 0.59 0.59 0.0 0 1 32.19 37.30
  L 30.37 35.49
  A 0.02 0.02 0.0 0 0 30.33 35.51
  C 30.80 37.59 32.12 37.82 32.89 39.39
  Q 33.13 39.87 33.15 40.25
  A 0.47 0.46 -85.3 0 1 32.59 40.73
  Q 30.36 40.25 30.34 40.26
  A 0.24 0.24 0.0 0 0 30.34 40.71
  Q 32.30 41.54 32.80 41.43
  A 1.28 1.27 -34.5 0 1 33.73 41.60
  L 36.73 43.52
  A 0.33 0.32 -41.1 0 1 36.69 44.09
  Q 34.35 45.14 31.93 44.60
  A 0.21 0.19 8.0 0 0 31.69 44.77
  L 31.68 44.78
  A 0.15 0.14 -83.7 0 0 31.80 44.94
  Q 35.47 45.76 38.11 44.32
  A 1.62 1.61 -50.8 0 1 39.34 44.19
  Q 41.06 44.71 43.31 44.43
  A 0.47 0.47 0.0 0 1 43.77 45.13
  L 42.57 47.19
  A 0.10 0.10 0.0 0 0 42.70 47.32
  Q 44.33 46.41 45.04 45.04
  A 0.67 0.66 6.8 0 1 45.48 44.70
  L 50.13 43.65
  A 0.11 0.11 0.0 0 1 50.23 43.83
  Q 46.39 47.72 41.31 49.81
  A 2.65 2.63 34.7 0 1 40.14 50.02
  Q 36.54 49.84 33.87 48.48
  A 0.21 0.21 0.0 0 0 33.61 48.79
  Z
  M 41.5849 27.9483
  A 0.95 0.27 -140.7 0 0 42.1490 28.7589
  A 0.95 0.27 -140.7 0 0 43.0551 29.1517
  A 0.95 0.27 -140.7 0 0 42.4910 28.3411
  A 0.95 0.27 -140.7 0 0 41.5849 27.9483
  Z"
/>
<ellipse fill="#34362c" cx="0.00" cy="0.00" transform="translate(42.32,28.55) rotate(-140.7)" rx="0.95" ry="0.27"/>
</svg>
