<?xml version="1.0" encoding="UTF-8" standalone="no"?>
<!DOCTYPE svg PUBLIC "-//W3C//DTD SVG 1.1//EN" "http://www.w3.org/Graphics/SVG/1.1/DTD/svg11.dtd">
<svg xmlns="http://www.w3.org/2000/svg" version="1.1" viewBox="0.00 0.00 66.00 88.00">
<g stroke-width="2.00" fill="none" stroke-linecap="butt">
<path stroke="#431a44" vector-effect="non-scaling-stroke" d="
  M 33.42 86.53
  Q 33.72 86.53 33.89 86.37
  C 46.75 74.37 59.53 58.29 63.40 40.95
  C 66.18 28.54 62.34 16.58 52.27 8.83
  C 47.22 4.95 40.33 2.46 33.49 2.46
  C 26.65 2.45 19.76 4.93 14.70 8.80
  C 4.62 16.53 0.76 28.49 3.52 40.90
  C 7.36 58.25 20.11 74.35 32.95 86.37
  Q 33.12 86.53 33.42 86.53"
/>
<path stroke="#ac91ac" vector-effect="non-scaling-stroke" d="
  M 22.18 16.54
  A 0.31 0.31 0.0 0 0 21.86 16.93
  L 28.47 42.55
  A 0.31 0.31 0.0 0 0 28.75 42.78
  L 49.88 44.46
  A 0.31 0.31 0.0 0 0 50.20 44.07
  L 43.59 18.45
  A 0.31 0.31 0.0 0 0 43.31 18.22
  L 22.18 16.54"
/>
<path stroke="#ac91ac" vector-effect="non-scaling-stroke" d="
  M 17.07 22.60
  Q 18.22 20.09 20.18 18.81
  A 1.02 1.00 70.3 0 0 20.62 17.85
  L 20.59 17.56
  A 0.57 0.56 72.8 0 0 19.77 17.13
  Q 16.64 18.76 16.50 22.46
  A 0.30 0.30 0.0 0 0 17.07 22.60"
/>
<path stroke="#ac91ac" vector-effect="non-scaling-stroke" d="
  M 18.31 23.31
  A 4.41 4.39 -37.3 0 0 17.86 26.61
  L 22.16 43.29
  A 0.30 0.30 0.0 0 0 22.68 43.40
  Q 24.12 41.49 25.91 40.53
  A 0.73 0.73 0.0 0 0 26.27 39.71
  L 21.43 20.96
  A 0.89 0.89 0.0 0 0 19.80 20.74
  L 18.31 23.31"
/>
<path stroke="#ac91ac" vector-effect="non-scaling-stroke" d="
  M 23.97 48.11
  Q 24.84 45.29 26.75 43.66
  A 1.09 1.07 63.0 0 0 27.09 42.58
  L 27.01 42.28
  A 0.61 0.60 65.4 0 0 26.08 41.93
  Q 22.98 44.09 23.34 48.04
  A 0.32 0.32 0.0 0 0 23.97 48.11"
/>
<path stroke="#ac91ac" vector-effect="non-scaling-stroke" d="
  M 47.95 45.57
  L 29.80 44.12
  A 3.15 3.15 0.0 0 0 26.83 45.69
  L 25.70 47.65
  A 1.39 1.39 0.0 0 0 26.79 49.73
  L 46.65 51.32
  A 0.51 0.50 -0.9 0 0 47.19 50.77
  Q 47.05 49.48 46.05 48.83
  A 0.28 0.28 0.0 0 1 46.22 48.31
  Q 48.48 48.50 48.32 45.95
  A 0.41 0.40 0.8 0 0 47.95 45.57"
/>
<path stroke="#ac91ac" vector-effect="non-scaling-stroke" d="
  M 43.7341 24.6743
  A 0.66 0.66 0.0 0 0 43.1218 23.9699
  L 26.3029 22.7938
  A 0.66 0.66 0.0 0 0 25.5984 23.4061
  L 25.5859 23.5857
  A 0.66 0.66 0.0 0 0 26.1982 24.2901
  L 43.0171 25.4662
  A 0.66 0.66 0.0 0 0 43.7216 24.8539
  L 43.7341 24.6743"
/>
<path stroke="#ac91ac" vector-effect="non-scaling-stroke" d="
  M 42.10 30.61
  L 40.15 31.11
  A 0.57 0.57 0.0 0 0 39.81 31.96
  Q 41.79 35.13 45.46 33.34
  A 0.67 0.65 -20.6 0 0 45.81 32.59
  L 45.73 32.29
  A 0.51 0.51 0.0 0 0 45.05 31.94
  Q 43.51 32.57 42.63 32.57
  A 0.32 0.31 -68.7 0 1 42.40 32.04
  Q 42.85 31.55 44.36 31.01
  A 0.45 0.44 -32.4 0 0 44.53 30.27
  L 41.19 26.92
  A 0.85 0.85 0.0 0 0 39.84 27.11
  Q 37.73 30.89 33.96 31.82
  A 0.22 0.22 0.0 0 1 33.75 31.45
  L 35.46 29.75
  A 0.71 0.70 53.6 0 0 35.58 28.94
  L 34.54 26.98
  A 0.87 0.87 0.0 0 0 33.59 26.52
  Q 32.59 26.72 31.38 27.49
  A 0.92 0.91 66.5 0 1 30.01 26.95
  Q 29.78 26.07 29.28 25.63
  Q 28.90 25.30 28.15 26.04
  C 25.51 28.68 26.78 30.86 29.27 32.66
  A 0.44 0.44 0.0 0 0 29.85 32.61
  L 30.08 32.39
  A 0.58 0.56 -43.5 0 0 30.11 31.62
  L 28.12 29.33
  A 0.86 0.85 -0.8 0 1 29.31 28.11
  Q 29.32 28.12 29.65 28.73
  A 0.73 0.73 0.0 0 0 30.47 29.09
  L 33.01 28.43
  A 0.66 0.66 0.0 0 1 33.64 29.54
  L 32.31 30.86
  A 1.40 1.39 -71.3 0 0 33.48 33.23
  Q 37.97 32.63 40.20 28.94
  A 0.56 0.55 -51.9 0 1 41.07 28.83
  L 42.26 30.02
  A 0.35 0.35 0.0 0 1 42.10 30.61"
/>
<path stroke="#ac91ac" vector-effect="non-scaling-stroke" d="
  M 46.7464 36.1392
  A 0.65 0.65 0.0 0 0 46.1421 35.4465
  L 29.2813 34.2970
  A 0.65 0.65 0.0 0 0 28.5886 34.9013
  L 28.5736 35.1208
  A 0.65 0.65 0.0 0 0 29.1779 35.8135
  L 46.0387 36.9630
  A 0.65 0.65 0.0 0 0 46.7314 36.3587
  L 46.7464 36.1392"
/>
</g>
<path fill="#2e112e" d="
  M 33.81 88.00
  L 33.04 88.00
  C 21.72 77.71 12.19 65.75 5.68 51.55
  Q 2.13 43.81 1.57 34.89
  C 0.56 18.85 11.14 5.79 26.66 2.03
  Q 34.35 0.17 43.19 2.83
  Q 51.39 5.29 57.10 11.60
  Q 68.31 23.97 64.56 41.21
  Q 61.81 53.84 53.58 65.57
  Q 45.00 77.81 33.81 88.00
  Z
  M 33.42 86.53
  Q 33.72 86.53 33.89 86.37
  C 46.75 74.37 59.53 58.29 63.40 40.95
  C 66.18 28.54 62.34 16.58 52.27 8.83
  C 47.22 4.95 40.33 2.46 33.49 2.46
  C 26.65 2.45 19.76 4.93 14.70 8.80
  C 4.62 16.53 0.76 28.49 3.52 40.90
  C 7.36 58.25 20.11 74.35 32.95 86.37
  Q 33.12 86.53 33.42 86.53
  Z"
/>
<path fill="#582359" d="
  M 33.49 2.46
  C 40.33 2.46 47.22 4.95 52.27 8.83
  C 62.34 16.58 66.18 28.54 63.40 40.95
  C 59.53 58.29 46.75 74.37 33.89 86.37
  Q 33.72 86.53 33.42 86.53
  Q 33.12 86.53 32.95 86.37
  C 20.11 74.35 7.36 58.25 3.52 40.90
  C 0.76 28.49 4.62 16.53 14.70 8.80
  C 19.76 4.93 26.65 2.45 33.49 2.46
  Z
  M 22.18 16.54
  A 0.31 0.31 0.0 0 0 21.86 16.93
  L 28.47 42.55
  A 0.31 0.31 0.0 0 0 28.75 42.78
  L 49.88 44.46
  A 0.31 0.31 0.0 0 0 50.20 44.07
  L 43.59 18.45
  A 0.31 0.31 0.0 0 0 43.31 18.22
  L 22.18 16.54
  Z
  M 17.07 22.60
  Q 18.22 20.09 20.18 18.81
  A 1.02 1.00 70.3 0 0 20.62 17.85
  L 20.59 17.56
  A 0.57 0.56 72.8 0 0 19.77 17.13
  Q 16.64 18.76 16.50 22.46
  A 0.30 0.30 0.0 0 0 17.07 22.60
  Z
  M 18.31 23.31
  A 4.41 4.39 -37.3 0 0 17.86 26.61
  L 22.16 43.29
  A 0.30 0.30 0.0 0 0 22.68 43.40
  Q 24.12 41.49 25.91 40.53
  A 0.73 0.73 0.0 0 0 26.27 39.71
  L 21.43 20.96
  A 0.89 0.89 0.0 0 0 19.80 20.74
  L 18.31 23.31
  Z
  M 23.97 48.11
  Q 24.84 45.29 26.75 43.66
  A 1.09 1.07 63.0 0 0 27.09 42.58
  L 27.01 42.28
  A 0.61 0.60 65.4 0 0 26.08 41.93
  Q 22.98 44.09 23.34 48.04
  A 0.32 0.32 0.0 0 0 23.97 48.11
  Z
  M 47.95 45.57
  L 29.80 44.12
  A 3.15 3.15 0.0 0 0 26.83 45.69
  L 25.70 47.65
  A 1.39 1.39 0.0 0 0 26.79 49.73
  L 46.65 51.32
  A 0.51 0.50 -0.9 0 0 47.19 50.77
  Q 47.05 49.48 46.05 48.83
  A 0.28 0.28 0.0 0 1 46.22 48.31
  Q 48.48 48.50 48.32 45.95
  A 0.41 0.40 0.8 0 0 47.95 45.57
  Z"
/>
<path fill="#ffffff" d="
  M 22.18 16.54
  L 43.31 18.22
  A 0.31 0.31 0.0 0 1 43.59 18.45
  L 50.20 44.07
  A 0.31 0.31 0.0 0 1 49.88 44.46
  L 28.75 42.78
  A 0.31 0.31 0.0 0 1 28.47 42.55
  L 21.86 16.93
  A 0.31 0.31 0.0 0 1 22.18 16.54
  Z
  M 43.7341 24.6743
  A 0.66 0.66 0.0 0 0 43.1218 23.9699
  L 26.3029 22.7938
  A 0.66 0.66 0.0 0 0 25.5984 23.4061
  L 25.5859 23.5857
  A 0.66 0.66 0.0 0 0 26.1982 24.2901
  L 43.0171 25.4662
  A 0.66 0.66 0.0 0 0 43.7216 24.8539
  L 43.7341 24.6743
  Z
  M 42.10 30.61
  L 40.15 31.11
  A 0.57 0.57 0.0 0 0 39.81 31.96
  Q 41.79 35.13 45.46 33.34
  A 0.67 0.65 -20.6 0 0 45.81 32.59
  L 45.73 32.29
  A 0.51 0.51 0.0 0 0 45.05 31.94
  Q 43.51 32.57 42.63 32.57
  A 0.32 0.31 -68.7 0 1 42.40 32.04
  Q 42.85 31.55 44.36 31.01
  A 0.45 0.44 -32.4 0 0 44.53 30.27
  L 41.19 26.92
  A 0.85 0.85 0.0 0 0 39.84 27.11
  Q 37.73 30.89 33.96 31.82
  A 0.22 0.22 0.0 0 1 33.75 31.45
  L 35.46 29.75
  A 0.71 0.70 53.6 0 0 35.58 28.94
  L 34.54 26.98
  A 0.87 0.87 0.0 0 0 33.59 26.52
  Q 32.59 26.72 31.38 27.49
  A 0.92 0.91 66.5 0 1 30.01 26.95
  Q 29.78 26.07 29.28 25.63
  Q 28.90 25.30 28.15 26.04
  C 25.51 28.68 26.78 30.86 29.27 32.66
  A 0.44 0.44 0.0 0 0 29.85 32.61
  L 30.08 32.39
  A 0.58 0.56 -43.5 0 0 30.11 31.62
  L 28.12 29.33
  A 0.86 0.85 -0.8 0 1 29.31 28.11
  Q 29.32 28.12 29.65 28.73
  A 0.73 0.73 0.0 0 0 30.47 29.09
  L 33.01 28.43
  A 0.66 0.66 0.0 0 1 33.64 29.54
  L 32.31 30.86
  A 1.40 1.39 -71.3 0 0 33.48 33.23
  Q 37.97 32.63 40.20 28.94
  A 0.56 0.55 -51.9 0 1 41.07 28.83
  L 42.26 30.02
  A 0.35 0.35 0.0 0 1 42.10 30.61
  Z
  M 46.7464 36.1392
  A 0.65 0.65 0.0 0 0 46.1421 35.4465
  L 29.2813 34.2970
  A 0.65 0.65 0.0 0 0 28.5886 34.9013
  L 28.5736 35.1208
  A 0.65 0.65 0.0 0 0 29.1779 35.8135
  L 46.0387 36.9630
  A 0.65 0.65 0.0 0 0 46.7314 36.3587
  L 46.7464 36.1392
  Z"
/>
<path fill="#ffffff" d="
  M 17.07 22.60
  A 0.30 0.30 0.0 0 1 16.50 22.46
  Q 16.64 18.76 19.77 17.13
  A 0.57 0.56 72.8 0 1 20.59 17.56
  L 20.62 17.85
  A 1.02 1.00 70.3 0 1 20.18 18.81
  Q 18.22 20.09 17.07 22.60
  Z"
/>
<path fill="#ffffff" d="
  M 21.43 20.96
  L 26.27 39.71
  A 0.73 0.73 0.0 0 1 25.91 40.53
  Q 24.12 41.49 22.68 43.40
  A 0.30 0.30 0.0 0 1 22.16 43.29
  L 17.86 26.61
  A 4.41 4.39 -37.3 0 1 18.31 23.31
  L 19.80 20.74
  A 0.89 0.89 0.0 0 1 21.43 20.96
  Z"
/>
<rect fill="#582359" x="-9.09" y="-0.75" transform="translate(34.66,24.13) rotate(4.0)" width="18.18" height="1.50" rx="0.66"/>
<path fill="#582359" d="
  M 42.26 30.02
  L 41.07 28.83
  A 0.56 0.55 -51.9 0 0 40.20 28.94
  Q 37.97 32.63 33.48 33.23
  A 1.40 1.39 -71.3 0 1 32.31 30.86
  L 33.64 29.54
  A 0.66 0.66 0.0 0 0 33.01 28.43
  L 30.47 29.09
  A 0.73 0.73 0.0 0 1 29.65 28.73
  Q 29.32 28.12 29.31 28.11
  A 0.86 0.85 -0.8 0 0 28.12 29.33
  L 30.11 31.62
  A 0.58 0.56 -43.5 0 1 30.08 32.39
  L 29.85 32.61
  A 0.44 0.44 0.0 0 1 29.27 32.66
  C 26.78 30.86 25.51 28.68 28.15 26.04
  Q 28.90 25.30 29.28 25.63
  Q 29.78 26.07 30.01 26.95
  A 0.92 0.91 66.5 0 0 31.38 27.49
  Q 32.59 26.72 33.59 26.52
  A 0.87 0.87 0.0 0 1 34.54 26.98
  L 35.58 28.94
  A 0.71 0.70 53.6 0 1 35.46 29.75
  L 33.75 31.45
  A 0.22 0.22 0.0 0 0 33.96 31.82
  Q 37.73 30.89 39.84 27.11
  A 0.85 0.85 0.0 0 1 41.19 26.92
  L 44.53 30.27
  A 0.45 0.44 -32.4 0 1 44.36 31.01
  Q 42.85 31.55 42.40 32.04
  A 0.32 0.31 -68.7 0 0 42.63 32.57
  Q 43.51 32.57 45.05 31.94
  A 0.51 0.51 0.0 0 1 45.73 32.29
  L 45.81 32.59
  A 0.67 0.65 -20.6 0 1 45.46 33.34
  Q 41.79 35.13 39.81 31.96
  A 0.57 0.57 0.0 0 1 40.15 31.11
  L 42.10 30.61
  A 0.35 0.35 0.0 0 0 42.26 30.02
  Z"
/>
<rect fill="#582359" x="-9.10" y="-0.76" transform="translate(37.66,35.63) rotate(3.9)" width="18.20" height="1.52" rx="0.65"/>
<path fill="#ffffff" d="
  M 23.97 48.11
  A 0.32 0.32 0.0 0 1 23.34 48.04
  Q 22.98 44.09 26.08 41.93
  A 0.61 0.60 65.4 0 1 27.01 42.28
  L 27.09 42.58
  A 1.09 1.07 63.0 0 1 26.75 43.66
  Q 24.84 45.29 23.97 48.11
  Z"
/>
<path fill="#ffffff" d="
  M 48.32 45.95
  Q 48.48 48.50 46.22 48.31
  A 0.28 0.28 0.0 0 0 46.05 48.83
  Q 47.05 49.48 47.19 50.77
  A 0.51 0.50 -0.9 0 1 46.65 51.32
  L 26.79 49.73
  A 1.39 1.39 0.0 0 1 25.70 47.65
  L 26.83 45.69
  A 3.15 3.15 0.0 0 1 29.80 44.12
  L 47.95 45.57
  A 0.41 0.40 0.8 0 1 48.32 45.95
  Z"
/>
</svg>
