<?xml version="1.0" encoding="UTF-8" standalone="no"?>
<!DOCTYPE svg PUBLIC "-//W3C//DTD SVG 1.1//EN" "http://www.w3.org/Graphics/SVG/1.1/DTD/svg11.dtd">
<svg xmlns="http://www.w3.org/2000/svg" version="1.1" viewBox="0.00 0.00 66.00 88.00">
<g stroke-width="2.00" fill="none" stroke-linecap="butt">
<path stroke="#173f51" vector-effect="non-scaling-stroke" d="
  M 33.42 86.61
  C 33.97 86.61 33.60 86.65 33.79 86.48
  C 47.91 73.35 64.45 52.86 64.26 32.27
  C 64.10 15.59 49.94 2.56 33.50 2.55
  C 17.06 2.53 2.87 15.53 2.69 32.21
  C 2.46 52.80 18.96 73.32 33.06 86.47
  C 33.24 86.65 32.88 86.61 33.42 86.61"
/>
<path stroke="#8fa9b5" vector-effect="non-scaling-stroke" d="
  M 23.26 24.41
  C 16.81 30.87 15.54 41.27 16.83 49.90
  A 0.19 0.03 52.2 0 0 16.88 49.98
  Q 16.89 50.00 16.91 50.02
  Q 16.93 50.04 16.95 50.05
  A 0.19 0.03 37.8 0 0 17.03 50.10
  C 25.66 51.38 36.06 50.10 42.51 43.64
  C 48.96 37.19 50.23 26.79 48.94 18.15
  A 0.19 0.03 52.2 0 0 48.89 18.07
  Q 48.88 18.05 48.86 18.03
  Q 48.84 18.02 48.82 18.00
  A 0.19 0.03 37.8 0 0 48.74 17.96
  C 40.11 16.68 29.71 17.96 23.26 24.41"
/>
<path stroke="#8fa9b5" vector-effect="non-scaling-stroke" d="
  M 40.21 25.16
  Q 39.11 24.96 37.52 25.25
  C 28.93 26.84 24.33 34.28 23.65 42.43
  A 0.22 0.22 0.0 0 0 24.07 42.54
  Q 29.54 31.22 40.27 25.58
  A 0.23 0.22 37.1 0 0 40.21 25.16"
/>
</g>
<path fill="#0e2b37" d="
  M 33.79 88.00
  L 33.14 88.00
  Q 15.92 72.75 6.24 53.02
  Q 2.33 45.04 1.62 35.29
  Q 0.92 25.48 5.48 17.61
  C 18.48 -4.82 50.93 -4.03 62.58 19.68
  C 66.92 28.54 65.94 39.79 62.41 48.86
  C 56.60 63.75 45.57 77.31 33.79 88.00
  Z
  M 33.42 86.61
  C 33.97 86.61 33.60 86.65 33.79 86.48
  C 47.91 73.35 64.45 52.86 64.26 32.27
  C 64.10 15.59 49.94 2.56 33.50 2.55
  C 17.06 2.53 2.87 15.53 2.69 32.21
  C 2.46 52.80 18.96 73.32 33.06 86.47
  C 33.24 86.65 32.88 86.61 33.42 86.61
  Z"
/>
<path fill="#1f526b" d="
  M 33.50 2.55
  C 49.94 2.56 64.10 15.59 64.26 32.27
  C 64.45 52.86 47.91 73.35 33.79 86.48
  C 33.60 86.65 33.97 86.61 33.42 86.61
  C 32.88 86.61 33.24 86.65 33.06 86.47
  C 18.96 73.32 2.46 52.80 2.69 32.21
  C 2.87 15.53 17.06 2.53 33.50 2.55
  Z
  M 23.26 24.41
  C 16.81 30.87 15.54 41.27 16.83 49.90
  A 0.19 0.03 52.2 0 0 16.88 49.98
  Q 16.89 50.00 16.91 50.02
  Q 16.93 50.04 16.95 50.05
  A 0.19 0.03 37.8 0 0 17.03 50.10
  C 25.66 51.38 36.06 50.10 42.51 43.64
  C 48.96 37.19 50.23 26.79 48.94 18.15
  A 0.19 0.03 52.2 0 0 48.89 18.07
  Q 48.88 18.05 48.86 18.03
  Q 48.84 18.02 48.82 18.00
  A 0.19 0.03 37.8 0 0 48.74 17.96
  C 40.11 16.68 29.71 17.96 23.26 24.41
  Z"
/>
<path fill="#ffffff" d="
  M 48.86 18.03
  Q 48.88 18.05 48.89 18.07
  A 0.19 0.03 52.2 0 1 48.94 18.15
  C 50.23 26.79 48.96 37.19 42.51 43.64
  C 36.06 50.10 25.66 51.38 17.03 50.10
  A 0.19 0.03 37.8 0 1 16.95 50.05
  Q 16.93 50.04 16.91 50.02
  Q 16.89 50.00 16.88 49.98
  A 0.19 0.03 52.2 0 1 16.83 49.90
  C 15.54 41.27 16.81 30.87 23.26 24.41
  C 29.71 17.96 40.11 16.68 48.74 17.96
  A 0.19 0.03 37.8 0 1 48.82 18.00
  Q 48.84 18.02 48.86 18.03
  Z
  M 40.21 25.16
  Q 39.11 24.96 37.52 25.25
  C 28.93 26.84 24.33 34.28 23.65 42.43
  A 0.22 0.22 0.0 0 0 24.07 42.54
  Q 29.54 31.22 40.27 25.58
  A 0.23 0.22 37.1 0 0 40.21 25.16
  Z"
/>
<path fill="#1f526b" d="
  M 40.27 25.58
  Q 29.54 31.22 24.07 42.54
  A 0.22 0.22 0.0 0 1 23.65 42.43
  C 24.33 34.28 28.93 26.84 37.52 25.25
  Q 39.11 24.96 40.21 25.16
  A 0.23 0.22 37.1 0 1 40.27 25.58
  Z"
/>
</svg>
