<?xml version="1.0" encoding="UTF-8" standalone="no"?>
<!DOCTYPE svg PUBLIC "-//W3C//DTD SVG 1.1//EN" "http://www.w3.org/Graphics/SVG/1.1/DTD/svg11.dtd">
<svg xmlns="http://www.w3.org/2000/svg" version="1.1" viewBox="0.00 0.00 66.00 88.00">
<g stroke-width="2.00" fill="none" stroke-linecap="butt">
<path stroke="#425a74" vector-effect="non-scaling-stroke" d="
  M 33.40 86.70
  Q 33.50 86.70 33.61 86.68
  Q 33.63 86.67 33.76 86.55
  C 47.53 73.51 63.41 54.16 64.20 34.76
  C 64.77 20.90 57.34 9.78 44.85 4.67
  Q 39.49 2.48 33.53 2.47
  Q 27.57 2.46 22.20 4.64
  C 9.70 9.71 2.23 20.80 2.76 34.66
  C 3.49 54.07 19.31 73.47 33.04 86.55
  Q 33.17 86.67 33.19 86.67
  Q 33.29 86.70 33.40 86.70"
/>
<path stroke="#acbbcc" vector-effect="non-scaling-stroke" d="
  M 38.81 43.84
  L 39.78 50.72
  A 1.11 1.11 0.0 0 0 41.04 51.67
  L 41.53 51.60
  A 2.07 2.06 -8.1 0 0 43.29 49.27
  L 42.57 44.19
  A 0.24 0.24 0.0 0 1 42.87 43.93
  L 48.81 45.67
  A 1.86 1.85 -71.9 0 0 51.08 44.51
  L 51.22 44.09
  A 1.32 1.32 0.0 0 0 50.34 42.40
  L 46.84 41.38
  A 0.39 0.38 20.9 0 1 46.60 40.86
  Q 49.44 34.70 43.99 31.52
  C 43.72 31.37 42.14 31.18 41.52 31.00
  A 0.75 0.74 -81.0 0 1 40.99 30.26
  C 41.29 22.84 36.69 15.09 28.14 16.78
  C 17.30 18.93 10.69 33.69 17.18 42.70
  C 21.45 48.63 28.32 47.83 33.64 44.07
  A 0.30 0.30 0.0 0 1 34.11 44.35
  Q 33.92 45.83 32.09 48.67
  A 1.90 1.90 0.0 0 0 32.54 51.20
  L 32.60 51.24
  A 1.72 1.72 0.0 0 0 35.08 50.83
  Q 37.12 47.80 38.15 43.81
  A 0.34 0.33 -42.0 0 1 38.81 43.84"
/>
</g>
<path fill="#2a3d4f" d="
  M 33.78 88.00
  L 33.14 88.00
  Q 16.04 72.85 6.33 53.20
  Q 2.37 45.18 1.63 35.47
  Q 0.89 25.66 5.39 17.76
  C 18.29 -4.88 50.95 -3.98 62.53 19.59
  C 66.98 28.63 65.94 39.83 62.31 49.11
  C 56.55 63.86 45.46 77.42 33.78 88.00
  Z
  M 33.40 86.70
  Q 33.50 86.70 33.61 86.68
  Q 33.63 86.67 33.76 86.55
  C 47.53 73.51 63.41 54.16 64.20 34.76
  C 64.77 20.90 57.34 9.78 44.85 4.67
  Q 39.49 2.48 33.53 2.47
  Q 27.57 2.46 22.20 4.64
  C 9.70 9.71 2.23 20.80 2.76 34.66
  C 3.49 54.07 19.31 73.47 33.04 86.55
  Q 33.17 86.67 33.19 86.67
  Q 33.29 86.70 33.40 86.70
  Z"
/>
<path fill="#597698" d="
  M 33.53 2.47
  Q 39.49 2.48 44.85 4.67
  C 57.34 9.78 64.77 20.90 64.20 34.76
  C 63.41 54.16 47.53 73.51 33.76 86.55
  Q 33.63 86.67 33.61 86.68
  Q 33.50 86.70 33.40 86.70
  Q 33.29 86.70 33.19 86.67
  Q 33.17 86.67 33.04 86.55
  C 19.31 73.47 3.49 54.07 2.76 34.66
  C 2.23 20.80 9.70 9.71 22.20 4.64
  Q 27.57 2.46 33.53 2.47
  Z
  M 38.81 43.84
  L 39.78 50.72
  A 1.11 1.11 0.0 0 0 41.04 51.67
  L 41.53 51.60
  A 2.07 2.06 -8.1 0 0 43.29 49.27
  L 42.57 44.19
  A 0.24 0.24 0.0 0 1 42.87 43.93
  L 48.81 45.67
  A 1.86 1.85 -71.9 0 0 51.08 44.51
  L 51.22 44.09
  A 1.32 1.32 0.0 0 0 50.34 42.40
  L 46.84 41.38
  A 0.39 0.38 20.9 0 1 46.60 40.86
  Q 49.44 34.70 43.99 31.52
  C 43.72 31.37 42.14 31.18 41.52 31.00
  A 0.75 0.74 -81.0 0 1 40.99 30.26
  C 41.29 22.84 36.69 15.09 28.14 16.78
  C 17.30 18.93 10.69 33.69 17.18 42.70
  C 21.45 48.63 28.32 47.83 33.64 44.07
  A 0.30 0.30 0.0 0 1 34.11 44.35
  Q 33.92 45.83 32.09 48.67
  A 1.90 1.90 0.0 0 0 32.54 51.20
  L 32.60 51.24
  A 1.72 1.72 0.0 0 0 35.08 50.83
  Q 37.12 47.80 38.15 43.81
  A 0.34 0.33 -42.0 0 1 38.81 43.84
  Z"
/>
<path fill="#ffffff" d="
  M 38.81 43.84
  A 0.34 0.33 -42.0 0 0 38.15 43.81
  Q 37.12 47.80 35.08 50.83
  A 1.72 1.72 0.0 0 1 32.60 51.24
  L 32.54 51.20
  A 1.90 1.90 0.0 0 1 32.09 48.67
  Q 33.92 45.83 34.11 44.35
  A 0.30 0.30 0.0 0 0 33.64 44.07
  C 28.32 47.83 21.45 48.63 17.18 42.70
  C 10.69 33.69 17.30 18.93 28.14 16.78
  C 36.69 15.09 41.29 22.84 40.99 30.26
  A 0.75 0.74 -81.0 0 0 41.52 31.00
  C 42.14 31.18 43.72 31.37 43.99 31.52
  Q 49.44 34.70 46.60 40.86
  A 0.39 0.38 20.9 0 0 46.84 41.38
  L 50.34 42.40
  A 1.32 1.32 0.0 0 1 51.22 44.09
  L 51.08 44.51
  A 1.86 1.85 -71.9 0 1 48.81 45.67
  L 42.87 43.93
  A 0.24 0.24 0.0 0 0 42.57 44.19
  L 43.29 49.27
  A 2.07 2.06 -8.1 0 1 41.53 51.60
  L 41.04 51.67
  A 1.11 1.11 0.0 0 1 39.78 50.72
  L 38.81 43.84
  Z"
/>
</svg>
