<?xml version="1.0" encoding="UTF-8" standalone="no"?>
<!DOCTYPE svg PUBLIC "-//W3C//DTD SVG 1.1//EN" "http://www.w3.org/Graphics/SVG/1.1/DTD/svg11.dtd">
<svg xmlns="http://www.w3.org/2000/svg" version="1.1" viewBox="0.00 0.00 66.00 88.00">
<g stroke-width="2.00" fill="none" stroke-linecap="butt">
<path stroke="#3f2d4a" vector-effect="non-scaling-stroke" d="
  M 33.43 86.56
  C 33.59 86.56 33.70 86.55 33.81 86.45
  Q 44.52 76.48 52.65 64.65
  C 61.08 52.38 68.48 35.03 61.52 20.30
  Q 56.23 9.10 44.49 4.56
  Q 39.10 2.47 33.50 2.47
  Q 27.89 2.46 22.49 4.54
  Q 10.75 9.06 5.44 20.26
  C -1.54 34.97 5.83 52.34 14.24 64.62
  Q 22.35 76.46 33.05 86.45
  C 33.15 86.55 33.26 86.56 33.43 86.56"
/>
<path stroke="#a99db0" vector-effect="non-scaling-stroke" d="
  M 24.65 19.54
  Q 16.43 24.29 16.37 24.40
  Q 16.30 24.52 16.30 34.00
  Q 16.30 43.49 16.37 43.61
  Q 16.43 43.72 24.65 48.46
  Q 32.86 53.21 33.00 53.21
  Q 33.13 53.21 41.34 48.46
  Q 49.56 43.72 49.63 43.61
  Q 49.69 43.49 49.69 34.00
  Q 49.69 24.52 49.63 24.40
  Q 49.56 24.29 41.35 19.54
  Q 33.13 14.80 33.00 14.80
  Q 32.87 14.80 24.65 19.54"
/>
<path stroke="#a99db0" vector-effect="non-scaling-stroke" d="
  M 26.73 23.12
  Q 20.63 26.63 20.54 26.78
  Q 20.45 26.94 20.44 33.98
  Q 20.43 41.02 20.52 41.18
  Q 20.61 41.33 26.71 44.86
  Q 32.80 48.39 32.98 48.39
  Q 33.16 48.39 39.26 44.88
  Q 45.37 41.36 45.45 41.21
  Q 45.54 41.06 45.55 34.01
  Q 45.56 26.97 45.47 26.81
  Q 45.38 26.66 39.29 23.13
  Q 33.19 19.60 33.02 19.60
  Q 32.84 19.60 26.73 23.12"
/>
<path stroke="#a99db0" vector-effect="non-scaling-stroke" d="
  M 29.64 30.64
  Q 29.54 30.74 29.23 30.74
  Q 26.77 30.79 23.70 30.72
  A 0.70 0.69 2.9 0 0 22.99 31.35
  Q 22.99 31.38 22.99 34.00
  Q 22.99 36.61 22.99 36.64
  A 0.70 0.69 -2.8 0 0 23.70 37.27
  Q 26.77 37.20 29.23 37.25
  Q 29.54 37.26 29.64 37.36
  Q 29.74 37.46 29.75 37.77
  Q 29.79 40.23 29.72 43.30
  A 0.70 0.69 -87.1 0 0 30.36 44.01
  Q 30.39 44.01 33.00 44.01
  Q 35.61 44.01 35.64 44.01
  A 0.70 0.69 87.2 0 0 36.28 43.30
  Q 36.21 40.23 36.26 37.78
  Q 36.26 37.46 36.36 37.36
  Q 36.47 37.26 36.78 37.25
  Q 39.24 37.21 42.31 37.28
  A 0.70 0.69 2.9 0 0 43.01 36.65
  Q 43.01 36.61 43.02 34.00
  Q 43.02 31.39 43.01 31.36
  A 0.70 0.69 -2.8 0 0 42.31 30.73
  Q 39.24 30.79 36.78 30.75
  Q 36.47 30.74 36.37 30.64
  Q 36.26 30.54 36.26 30.22
  Q 36.21 27.77 36.28 24.70
  A 0.70 0.69 -87.1 0 0 35.65 23.99
  Q 35.62 23.99 33.01 23.99
  Q 30.40 23.99 30.36 23.99
  A 0.70 0.69 87.2 0 0 29.73 24.69
  Q 29.80 27.76 29.75 30.22
  Q 29.75 30.53 29.64 30.64"
/>
</g>
<path fill="#2a1e32" d="
  M 33.79 88.00
  L 33.04 88.00
  C 21.76 77.75 12.11 65.66 5.64 51.56
  Q 2.20 44.06 1.59 34.89
  C 0.53 18.89 11.36 5.50 26.73 2.05
  C 41.21 -1.20 56.13 6.10 62.69 19.94
  C 66.94 28.89 65.90 40.01 62.33 49.05
  C 56.49 63.88 45.54 77.35 33.79 88.00
  Z
  M 33.43 86.56
  C 33.59 86.56 33.70 86.55 33.81 86.45
  Q 44.52 76.48 52.65 64.65
  C 61.08 52.38 68.48 35.03 61.52 20.30
  Q 56.23 9.10 44.49 4.56
  Q 39.10 2.47 33.50 2.47
  Q 27.89 2.46 22.49 4.54
  Q 10.75 9.06 5.44 20.26
  C -1.54 34.97 5.83 52.34 14.24 64.62
  Q 22.35 76.46 33.05 86.45
  C 33.15 86.55 33.26 86.56 33.43 86.56
  Z"
/>
<path fill="#533b61" d="
  M 33.50 2.47
  Q 39.10 2.47 44.49 4.56
  Q 56.23 9.10 61.52 20.30
  C 68.48 35.03 61.08 52.38 52.65 64.65
  Q 44.52 76.48 33.81 86.45
  C 33.70 86.55 33.59 86.56 33.43 86.56
  C 33.26 86.56 33.15 86.55 33.05 86.45
  Q 22.35 76.46 14.24 64.62
  C 5.83 52.34 -1.54 34.97 5.44 20.26
  Q 10.75 9.06 22.49 4.54
  Q 27.89 2.46 33.50 2.47
  Z
  M 24.65 19.54
  Q 16.43 24.29 16.37 24.40
  Q 16.30 24.52 16.30 34.00
  Q 16.30 43.49 16.37 43.61
  Q 16.43 43.72 24.65 48.46
  Q 32.86 53.21 33.00 53.21
  Q 33.13 53.21 41.34 48.46
  Q 49.56 43.72 49.63 43.61
  Q 49.69 43.49 49.69 34.00
  Q 49.69 24.52 49.63 24.40
  Q 49.56 24.29 41.35 19.54
  Q 33.13 14.80 33.00 14.80
  Q 32.87 14.80 24.65 19.54
  Z"
/>
<path fill="#ffffff" d="
  M 33.00 14.80
  Q 33.13 14.80 41.35 19.54
  Q 49.56 24.29 49.63 24.40
  Q 49.69 24.52 49.69 34.00
  Q 49.69 43.49 49.63 43.61
  Q 49.56 43.72 41.34 48.46
  Q 33.13 53.21 33.00 53.21
  Q 32.86 53.21 24.65 48.46
  Q 16.43 43.72 16.37 43.61
  Q 16.30 43.49 16.30 34.00
  Q 16.30 24.52 16.37 24.40
  Q 16.43 24.29 24.65 19.54
  Q 32.87 14.80 33.00 14.80
  Z
  M 26.73 23.12
  Q 20.63 26.63 20.54 26.78
  Q 20.45 26.94 20.44 33.98
  Q 20.43 41.02 20.52 41.18
  Q 20.61 41.33 26.71 44.86
  Q 32.80 48.39 32.98 48.39
  Q 33.16 48.39 39.26 44.88
  Q 45.37 41.36 45.45 41.21
  Q 45.54 41.06 45.55 34.01
  Q 45.56 26.97 45.47 26.81
  Q 45.38 26.66 39.29 23.13
  Q 33.19 19.60 33.02 19.60
  Q 32.84 19.60 26.73 23.12
  Z"
/>
<path fill="#533b61" d="
  M 33.02 19.60
  Q 33.19 19.60 39.29 23.13
  Q 45.38 26.66 45.47 26.81
  Q 45.56 26.97 45.55 34.01
  Q 45.54 41.06 45.45 41.21
  Q 45.37 41.36 39.26 44.88
  Q 33.16 48.39 32.98 48.39
  Q 32.80 48.39 26.71 44.86
  Q 20.61 41.33 20.52 41.18
  Q 20.43 41.02 20.44 33.98
  Q 20.45 26.94 20.54 26.78
  Q 20.63 26.63 26.73 23.12
  Q 32.84 19.60 33.02 19.60
  Z
  M 29.64 30.64
  Q 29.54 30.74 29.23 30.74
  Q 26.77 30.79 23.70 30.72
  A 0.70 0.69 2.9 0 0 22.99 31.35
  Q 22.99 31.38 22.99 34.00
  Q 22.99 36.61 22.99 36.64
  A 0.70 0.69 -2.8 0 0 23.70 37.27
  Q 26.77 37.20 29.23 37.25
  Q 29.54 37.26 29.64 37.36
  Q 29.74 37.46 29.75 37.77
  Q 29.79 40.23 29.72 43.30
  A 0.70 0.69 -87.1 0 0 30.36 44.01
  Q 30.39 44.01 33.00 44.01
  Q 35.61 44.01 35.64 44.01
  A 0.70 0.69 87.2 0 0 36.28 43.30
  Q 36.21 40.23 36.26 37.78
  Q 36.26 37.46 36.36 37.36
  Q 36.47 37.26 36.78 37.25
  Q 39.24 37.21 42.31 37.28
  A 0.70 0.69 2.9 0 0 43.01 36.65
  Q 43.01 36.61 43.02 34.00
  Q 43.02 31.39 43.01 31.36
  A 0.70 0.69 -2.8 0 0 42.31 30.73
  Q 39.24 30.79 36.78 30.75
  Q 36.47 30.74 36.37 30.64
  Q 36.26 30.54 36.26 30.22
  Q 36.21 27.77 36.28 24.70
  A 0.70 0.69 -87.1 0 0 35.65 23.99
  Q 35.62 23.99 33.01 23.99
  Q 30.40 23.99 30.36 23.99
  A 0.70 0.69 87.2 0 0 29.73 24.69
  Q 29.80 27.76 29.75 30.22
  Q 29.75 30.53 29.64 30.64
  Z"
/>
<path fill="#ffffff" d="
  M 33.01 23.99
  Q 35.62 23.99 35.65 23.99
  A 0.70 0.69 -87.1 0 1 36.28 24.70
  Q 36.21 27.77 36.26 30.22
  Q 36.26 30.54 36.37 30.64
  Q 36.47 30.74 36.78 30.75
  Q 39.24 30.79 42.31 30.73
  A 0.70 0.69 -2.8 0 1 43.01 31.36
  Q 43.02 31.39 43.02 34.00
  Q 43.01 36.61 43.01 36.65
  A 0.70 0.69 2.9 0 1 42.31 37.28
  Q 39.24 37.21 36.78 37.25
  Q 36.47 37.26 36.36 37.36
  Q 36.26 37.46 36.26 37.78
  Q 36.21 40.23 36.28 43.30
  A 0.70 0.69 87.2 0 1 35.64 44.01
  Q 35.61 44.01 33.00 44.01
  Q 30.39 44.01 30.36 44.01
  A 0.70 0.69 -87.1 0 1 29.72 43.30
  Q 29.79 40.23 29.75 37.77
  Q 29.74 37.46 29.64 37.36
  Q 29.54 37.26 29.23 37.25
  Q 26.77 37.20 23.70 37.27
  A 0.70 0.69 -2.8 0 1 22.99 36.64
  Q 22.99 36.61 22.99 34.00
  Q 22.99 31.38 22.99 31.35
  A 0.70 0.69 2.9 0 1 23.70 30.72
  Q 26.77 30.79 29.23 30.74
  Q 29.54 30.74 29.64 30.64
  Q 29.75 30.53 29.75 30.22
  Q 29.80 27.76 29.73 24.69
  A 0.70 0.69 87.2 0 1 30.36 23.99
  Q 30.40 23.99 33.01 23.99
  Z"
/>
</svg>
