<?xml version="1.0" encoding="UTF-8" standalone="no"?>
<!DOCTYPE svg PUBLIC "-//W3C//DTD SVG 1.1//EN" "http://www.w3.org/Graphics/SVG/1.1/DTD/svg11.dtd">
<svg xmlns="http://www.w3.org/2000/svg" version="1.1" viewBox="0.00 0.00 66.00 88.00">
<g stroke-width="2.00" fill="none" stroke-linecap="butt">
<path stroke="#3f2d4a" vector-effect="non-scaling-stroke" d="
  M 33.43 86.56
  C 34.15 86.56 33.55 86.61 33.78 86.42
  Q 43.61 77.74 53.35 63.57
  C 64.37 47.55 70.35 26.01 54.75 10.98
  Q 46.60 3.14 34.75 2.51
  Q 33.98 2.47 33.50 2.47
  Q 33.01 2.47 32.24 2.51
  Q 20.39 3.12 12.23 10.95
  C -3.40 25.95 2.55 47.50 13.54 63.54
  Q 23.26 77.72 33.08 86.42
  C 33.30 86.61 32.71 86.56 33.43 86.56"
/>
<path stroke="#a99db0" vector-effect="non-scaling-stroke" d="
  M 33.02 34.50
  Q 38.44 34.48 38.45 34.48
  A 1.19 1.18 12.6 0 0 39.39 33.89
  Q 41.92 29.51 41.92 24.98
  C 41.93 19.82 38.30 15.75 32.96 15.77
  C 27.62 15.78 24.02 19.88 24.06 25.04
  Q 24.09 29.57 26.65 33.93
  A 1.19 1.18 -12.9 0 0 27.59 34.51
  Q 27.60 34.51 33.02 34.50"
/>
<path stroke="#a99db0" vector-effect="non-scaling-stroke" d="
  M 33.00 46.38
  Q 33.65 46.38 34.79 44.77
  A 0.30 0.30 0.0 0 1 35.33 44.94
  L 35.33 51.82
  A 0.43 0.43 0.0 0 0 35.76 52.25
  L 37.45 52.25
  A 0.40 0.40 0.0 0 0 37.85 51.81
  L 37.11 43.39
  A 0.77 0.77 0.0 0 0 36.27 42.69
  L 35.35 42.77
  A 0.58 0.57 -2.7 0 1 34.72 42.20
  L 34.72 40.39
  A 0.64 0.63 7.9 0 1 35.53 39.78
  Q 37.11 40.21 37.64 37.83
  A 0.48 0.48 0.0 0 0 37.19 37.25
  Q 37.16 37.25 33.00 37.25
  Q 28.85 37.25 28.81 37.25
  A 0.48 0.48 0.0 0 0 28.36 37.83
  Q 28.89 40.21 30.47 39.78
  A 0.64 0.63 -8.0 0 1 31.28 40.39
  L 31.29 42.20
  A 0.58 0.57 2.7 0 1 30.66 42.77
  L 29.74 42.69
  A 0.77 0.77 0.0 0 0 28.90 43.39
  L 28.16 51.81
  A 0.40 0.40 0.0 0 0 28.56 52.25
  L 30.25 52.25
  A 0.43 0.43 0.0 0 0 30.68 51.82
  L 30.68 44.94
  A 0.30 0.30 0.0 0 1 31.22 44.77
  Q 32.36 46.38 33.00 46.38"
/>
<path stroke="#a99db0" vector-effect="non-scaling-stroke" d="
  M 35.05 23.55
  A 0.32 0.32 0.0 0 1 34.74 23.32
  L 33.30 18.83
  A 0.32 0.32 0.0 0 0 32.70 18.83
  L 31.26 23.32
  A 0.32 0.32 0.0 0 1 30.95 23.55
  L 26.23 23.52
  A 0.32 0.32 0.0 0 0 26.05 24.10
  L 29.88 26.85
  A 0.32 0.32 0.0 0 1 30.00 27.22
  L 28.51 31.70
  A 0.32 0.32 0.0 0 0 29.01 32.06
  L 32.81 29.26
  A 0.32 0.32 0.0 0 1 33.19 29.26
  L 36.99 32.06
  A 0.32 0.32 0.0 0 0 37.49 31.70
  L 36.00 27.22
  A 0.32 0.32 0.0 0 1 36.12 26.85
  L 39.95 24.10
  A 0.32 0.32 0.0 0 0 39.77 23.52
  L 35.05 23.55"
/>
</g>
<path fill="#2a1e32" d="
  M 33.81 88.00
  L 33.15 88.00
  Q 15.62 72.49 6.00 52.51
  Q 2.28 44.77 1.62 35.11
  Q 0.96 25.49 5.39 17.77
  C 18.45 -5.01 52.00 -4.11 62.97 20.58
  C 66.64 28.86 65.93 38.66 63.04 47.01
  C 57.65 62.62 45.95 76.91 33.81 88.00
  Z
  M 33.43 86.56
  C 34.15 86.56 33.55 86.61 33.78 86.42
  Q 43.61 77.74 53.35 63.57
  C 64.37 47.55 70.35 26.01 54.75 10.98
  Q 46.60 3.14 34.75 2.51
  Q 33.98 2.47 33.50 2.47
  Q 33.01 2.47 32.24 2.51
  Q 20.39 3.12 12.23 10.95
  C -3.40 25.95 2.55 47.50 13.54 63.54
  Q 23.26 77.72 33.08 86.42
  C 33.30 86.61 32.71 86.56 33.43 86.56
  Z"
/>
<path fill="#533b61" d="
  M 33.50 2.47
  Q 33.98 2.47 34.75 2.51
  Q 46.60 3.14 54.75 10.98
  C 70.35 26.01 64.37 47.55 53.35 63.57
  Q 43.61 77.74 33.78 86.42
  C 33.55 86.61 34.15 86.56 33.43 86.56
  C 32.71 86.56 33.30 86.61 33.08 86.42
  Q 23.26 77.72 13.54 63.54
  C 2.55 47.50 -3.40 25.95 12.23 10.95
  Q 20.39 3.12 32.24 2.51
  Q 33.01 2.47 33.50 2.47
  Z
  M 33.02 34.50
  Q 38.44 34.48 38.45 34.48
  A 1.19 1.18 12.6 0 0 39.39 33.89
  Q 41.92 29.51 41.92 24.98
  C 41.93 19.82 38.30 15.75 32.96 15.77
  C 27.62 15.78 24.02 19.88 24.06 25.04
  Q 24.09 29.57 26.65 33.93
  A 1.19 1.18 -12.9 0 0 27.59 34.51
  Q 27.60 34.51 33.02 34.50
  Z
  M 33.00 46.38
  Q 33.65 46.38 34.79 44.77
  A 0.30 0.30 0.0 0 1 35.33 44.94
  L 35.33 51.82
  A 0.43 0.43 0.0 0 0 35.76 52.25
  L 37.45 52.25
  A 0.40 0.40 0.0 0 0 37.85 51.81
  L 37.11 43.39
  A 0.77 0.77 0.0 0 0 36.27 42.69
  L 35.35 42.77
  A 0.58 0.57 -2.7 0 1 34.72 42.20
  L 34.72 40.39
  A 0.64 0.63 7.9 0 1 35.53 39.78
  Q 37.11 40.21 37.64 37.83
  A 0.48 0.48 0.0 0 0 37.19 37.25
  Q 37.16 37.25 33.00 37.25
  Q 28.85 37.25 28.81 37.25
  A 0.48 0.48 0.0 0 0 28.36 37.83
  Q 28.89 40.21 30.47 39.78
  A 0.64 0.63 -8.0 0 1 31.28 40.39
  L 31.29 42.20
  A 0.58 0.57 2.7 0 1 30.66 42.77
  L 29.74 42.69
  A 0.77 0.77 0.0 0 0 28.90 43.39
  L 28.16 51.81
  A 0.40 0.40 0.0 0 0 28.56 52.25
  L 30.25 52.25
  A 0.43 0.43 0.0 0 0 30.68 51.82
  L 30.68 44.94
  A 0.30 0.30 0.0 0 1 31.22 44.77
  Q 32.36 46.38 33.00 46.38
  Z"
/>
<path fill="#ffffff" d="
  M 32.96 15.77
  C 38.30 15.75 41.93 19.82 41.92 24.98
  Q 41.92 29.51 39.39 33.89
  A 1.19 1.18 12.6 0 1 38.45 34.48
  Q 38.44 34.48 33.02 34.50
  Q 27.60 34.51 27.59 34.51
  A 1.19 1.18 -12.9 0 1 26.65 33.93
  Q 24.09 29.57 24.06 25.04
  C 24.02 19.88 27.62 15.78 32.96 15.77
  Z
  M 35.05 23.55
  A 0.32 0.32 0.0 0 1 34.74 23.32
  L 33.30 18.83
  A 0.32 0.32 0.0 0 0 32.70 18.83
  L 31.26 23.32
  A 0.32 0.32 0.0 0 1 30.95 23.55
  L 26.23 23.52
  A 0.32 0.32 0.0 0 0 26.05 24.10
  L 29.88 26.85
  A 0.32 0.32 0.0 0 1 30.00 27.22
  L 28.51 31.70
  A 0.32 0.32 0.0 0 0 29.01 32.06
  L 32.81 29.26
  A 0.32 0.32 0.0 0 1 33.19 29.26
  L 36.99 32.06
  A 0.32 0.32 0.0 0 0 37.49 31.70
  L 36.00 27.22
  A 0.32 0.32 0.0 0 1 36.12 26.85
  L 39.95 24.10
  A 0.32 0.32 0.0 0 0 39.77 23.52
  L 35.05 23.55
  Z"
/>
<path fill="#533b61" d="
  M 35.05 23.55
  L 39.77 23.52
  A 0.32 0.32 0.0 0 1 39.95 24.10
  L 36.12 26.85
  A 0.32 0.32 0.0 0 0 36.00 27.22
  L 37.49 31.70
  A 0.32 0.32 0.0 0 1 36.99 32.06
  L 33.19 29.26
  A 0.32 0.32 0.0 0 0 32.81 29.26
  L 29.01 32.06
  A 0.32 0.32 0.0 0 1 28.51 31.70
  L 30.00 27.22
  A 0.32 0.32 0.0 0 0 29.88 26.85
  L 26.05 24.10
  A 0.32 0.32 0.0 0 1 26.23 23.52
  L 30.95 23.55
  A 0.32 0.32 0.0 0 0 31.26 23.32
  L 32.70 18.83
  A 0.32 0.32 0.0 0 1 33.30 18.83
  L 34.74 23.32
  A 0.32 0.32 0.0 0 0 35.05 23.55
  Z"
/>
<path fill="#ffffff" d="
  M 33.00 37.25
  Q 37.16 37.25 37.19 37.25
  A 0.48 0.48 0.0 0 1 37.64 37.83
  Q 37.11 40.21 35.53 39.78
  A 0.64 0.63 7.9 0 0 34.72 40.39
  L 34.72 42.20
  A 0.58 0.57 -2.7 0 0 35.35 42.77
  L 36.27 42.69
  A 0.77 0.77 0.0 0 1 37.11 43.39
  L 37.85 51.81
  A 0.40 0.40 0.0 0 1 37.45 52.25
  L 35.76 52.25
  A 0.43 0.43 0.0 0 1 35.33 51.82
  L 35.33 44.94
  A 0.30 0.30 0.0 0 0 34.79 44.77
  Q 33.65 46.38 33.00 46.38
  Q 32.36 46.38 31.22 44.77
  A 0.30 0.30 0.0 0 0 30.68 44.94
  L 30.68 51.82
  A 0.43 0.43 0.0 0 1 30.25 52.25
  L 28.56 52.25
  A 0.40 0.40 0.0 0 1 28.16 51.81
  L 28.90 43.39
  A 0.77 0.77 0.0 0 1 29.74 42.69
  L 30.66 42.77
  A 0.58 0.57 2.7 0 0 31.29 42.20
  L 31.28 40.39
  A 0.64 0.63 -8.0 0 0 30.47 39.78
  Q 28.89 40.21 28.36 37.83
  A 0.48 0.48 0.0 0 1 28.81 37.25
  Q 28.85 37.25 33.00 37.25
  Z"
/>
</svg>
