<?xml version="1.0" encoding="UTF-8" standalone="no"?>
<!DOCTYPE svg PUBLIC "-//W3C//DTD SVG 1.1//EN" "http://www.w3.org/Graphics/SVG/1.1/DTD/svg11.dtd">
<svg xmlns="http://www.w3.org/2000/svg" version="1.1" viewBox="0.00 0.00 66.00 88.00">
<g stroke-width="2.00" fill="none" stroke-linecap="butt">
<path stroke="#ae8c4b" vector-effect="non-scaling-stroke" d="
  M 33.38 86.75
  Q 33.50 86.75 33.64 86.62
  Q 47.57 73.71 56.67 58.20
  C 63.95 45.80 68.20 28.82 59.19 16.06
  C 53.24 7.64 44.12 2.48 33.56 2.46
  C 23.00 2.43 13.85 7.56 7.87 15.95
  C -1.19 28.68 2.98 45.67 10.21 58.10
  Q 19.25 73.65 33.12 86.62
  Q 33.27 86.75 33.38 86.75"
/>
<path stroke="#f3ddb3" vector-effect="non-scaling-stroke" d="
  M 33.5769 16.4608
  A 0.83 0.83 0.0 0 0 32.4031 16.4608
  L 15.4608 33.4031
  A 0.83 0.83 0.0 0 0 15.4608 34.5769
  L 32.4031 51.5192
  A 0.83 0.83 0.0 0 0 33.5769 51.5192
  L 50.5192 34.5769
  A 0.83 0.83 0.0 0 0 50.5192 33.4031
  L 33.5769 16.4608"
/>
</g>
<path fill="#755c30" d="
  M 33.81 88.00
  L 32.98 88.00
  C 17.13 73.43 -4.56 46.48 3.04 23.11
  Q 5.54 15.44 11.52 9.94
  C 27.17 -4.45 52.36 -0.32 62.16 18.82
  C 66.95 28.18 66.11 39.49 62.32 49.07
  C 56.45 63.93 45.55 77.30 33.81 88.00
  Z
  M 33.38 86.75
  Q 33.50 86.75 33.64 86.62
  Q 47.57 73.71 56.67 58.20
  C 63.95 45.80 68.20 28.82 59.19 16.06
  C 53.24 7.64 44.12 2.48 33.56 2.46
  C 23.00 2.43 13.85 7.56 7.87 15.95
  C -1.19 28.68 2.98 45.67 10.21 58.10
  Q 19.25 73.65 33.12 86.62
  Q 33.27 86.75 33.38 86.75
  Z"
/>
<path fill="#e7bb66" d="
  M 33.56 2.46
  C 44.12 2.48 53.24 7.64 59.19 16.06
  C 68.20 28.82 63.95 45.80 56.67 58.20
  Q 47.57 73.71 33.64 86.62
  Q 33.50 86.75 33.38 86.75
  Q 33.27 86.75 33.12 86.62
  Q 19.25 73.65 10.21 58.10
  C 2.98 45.67 -1.19 28.68 7.87 15.95
  C 13.85 7.56 23.00 2.43 33.56 2.46
  Z
  M 33.5769 16.4608
  A 0.83 0.83 0.0 0 0 32.4031 16.4608
  L 15.4608 33.4031
  A 0.83 0.83 0.0 0 0 15.4608 34.5769
  L 32.4031 51.5192
  A 0.83 0.83 0.0 0 0 33.5769 51.5192
  L 50.5192 34.5769
  A 0.83 0.83 0.0 0 0 50.5192 33.4031
  L 33.5769 16.4608
  Z"
/>
<rect fill="#ffffff" x="-12.81" y="-12.81" transform="translate(32.99,33.99) rotate(-45.0)" width="25.62" height="25.62" rx="0.83"/>
</svg>
