<?xml version="1.0" encoding="UTF-8" standalone="no"?>
<!DOCTYPE svg PUBLIC "-//W3C//DTD SVG 1.1//EN" "http://www.w3.org/Graphics/SVG/1.1/DTD/svg11.dtd">
<svg xmlns="http://www.w3.org/2000/svg" version="1.1" viewBox="0.00 0.00 66.00 88.00">
<g stroke-width="2.00" fill="none" stroke-linecap="butt">
<path stroke="#1b292f" vector-effect="non-scaling-stroke" d="
  M 33.37 86.52
  Q 33.58 86.52 33.67 86.43
  C 44.52 76.42 54.26 64.43 60.19 50.99
  Q 64.70 40.78 64.11 30.31
  Q 63.87 26.00 62.88 23.48
  Q 55.24 4.05 34.25 2.48
  Q 33.89 2.46 33.53 2.46
  Q 33.17 2.46 32.82 2.48
  Q 11.82 3.97 4.10 23.37
  Q 3.10 25.88 2.85 30.19
  Q 2.22 40.66 6.69 50.89
  C 12.57 64.35 22.26 76.38 33.07 86.43
  Q 33.16 86.52 33.37 86.52"
/>
<path stroke="#919a9e" vector-effect="non-scaling-stroke" d="
  M 32.86 52.24
  Q 35.08 52.25 37.49 52.30
  A 0.15 0.15 0.0 0 0 37.59 52.03
  Q 35.49 50.47 35.50 47.53
  Q 35.55 28.47 35.55 21.39
  A 0.61 0.61 0.0 0 1 36.13 20.78
  C 39.80 20.61 45.85 20.05 47.36 24.33
  A 0.29 0.29 0.0 0 0 47.92 24.23
  L 47.92 16.64
  A 0.49 0.48 -17.0 0 0 47.16 16.24
  Q 46.43 16.73 46.16 16.79
  A 7.34 3.83 -13.2 0 1 45.14 16.95
  Q 44.53 17.02 32.94 16.99
  Q 21.35 16.97 20.74 16.90
  A 7.34 3.83 13.5 0 1 19.72 16.73
  Q 19.45 16.67 18.72 16.18
  A 0.49 0.48 17.3 0 0 17.96 16.57
  L 17.93 24.16
  A 0.29 0.29 0.0 0 0 18.49 24.27
  C 20.02 19.99 26.06 20.58 29.73 20.77
  A 0.61 0.61 0.0 0 1 30.31 21.38
  Q 30.28 28.46 30.25 47.52
  Q 30.25 50.46 28.14 52.01
  A 0.15 0.15 0.0 0 0 28.24 52.28
  Q 30.65 52.24 32.86 52.24"
/>
</g>
<path fill="#121d20" d="
  M 33.78 88.00
  L 33.04 88.00
  C 21.71 77.71 12.20 65.75 5.68 51.55
  Q 2.12 43.81 1.57 34.89
  C 0.58 18.96 11.03 5.89 26.40 2.11
  C 37.18 -0.54 49.35 3.22 57.05 11.53
  Q 67.70 23.03 64.87 39.82
  C 61.82 57.88 47.13 75.92 33.78 88.00
  Z
  M 33.37 86.52
  Q 33.58 86.52 33.67 86.43
  C 44.52 76.42 54.26 64.43 60.19 50.99
  Q 64.70 40.78 64.11 30.31
  Q 63.87 26.00 62.88 23.48
  Q 55.24 4.05 34.25 2.48
  Q 33.89 2.46 33.53 2.46
  Q 33.17 2.46 32.82 2.48
  Q 11.82 3.97 4.10 23.37
  Q 3.10 25.88 2.85 30.19
  Q 2.22 40.66 6.69 50.89
  C 12.57 64.35 22.26 76.38 33.07 86.43
  Q 33.16 86.52 33.37 86.52
  Z"
/>
<path fill="#23353d" d="
  M 33.53 2.46
  Q 33.89 2.46 34.25 2.48
  Q 55.24 4.05 62.88 23.48
  Q 63.87 26.00 64.11 30.31
  Q 64.70 40.78 60.19 50.99
  C 54.26 64.43 44.52 76.42 33.67 86.43
  Q 33.58 86.52 33.37 86.52
  Q 33.16 86.52 33.07 86.43
  C 22.26 76.38 12.57 64.35 6.69 50.89
  Q 2.22 40.66 2.85 30.19
  Q 3.10 25.88 4.10 23.37
  Q 11.82 3.97 32.82 2.48
  Q 33.17 2.46 33.53 2.46
  Z
  M 32.86 52.24
  Q 35.08 52.25 37.49 52.30
  A 0.15 0.15 0.0 0 0 37.59 52.03
  Q 35.49 50.47 35.50 47.53
  Q 35.55 28.47 35.55 21.39
  A 0.61 0.61 0.0 0 1 36.13 20.78
  C 39.80 20.61 45.85 20.05 47.36 24.33
  A 0.29 0.29 0.0 0 0 47.92 24.23
  L 47.92 16.64
  A 0.49 0.48 -17.0 0 0 47.16 16.24
  Q 46.43 16.73 46.16 16.79
  A 7.34 3.83 -13.2 0 1 45.14 16.95
  Q 44.53 17.02 32.94 16.99
  Q 21.35 16.97 20.74 16.90
  A 7.34 3.83 13.5 0 1 19.72 16.73
  Q 19.45 16.67 18.72 16.18
  A 0.49 0.48 17.3 0 0 17.96 16.57
  L 17.93 24.16
  A 0.29 0.29 0.0 0 0 18.49 24.27
  C 20.02 19.99 26.06 20.58 29.73 20.77
  A 0.61 0.61 0.0 0 1 30.31 21.38
  Q 30.28 28.46 30.25 47.52
  Q 30.25 50.46 28.14 52.01
  A 0.15 0.15 0.0 0 0 28.24 52.28
  Q 30.65 52.24 32.86 52.24
  Z"
/>
<path fill="#ffffff" d="
  M 32.94 16.99
  Q 44.53 17.02 45.14 16.95
  A 7.34 3.83 -13.2 0 0 46.16 16.79
  Q 46.43 16.73 47.16 16.24
  A 0.49 0.48 -17.0 0 1 47.92 16.64
  L 47.92 24.23
  A 0.29 0.29 0.0 0 1 47.36 24.33
  C 45.85 20.05 39.80 20.61 36.13 20.78
  A 0.61 0.61 0.0 0 0 35.55 21.39
  Q 35.55 28.47 35.50 47.53
  Q 35.49 50.47 37.59 52.03
  A 0.15 0.15 0.0 0 1 37.49 52.30
  Q 35.08 52.25 32.86 52.24
  Q 30.65 52.24 28.24 52.28
  A 0.15 0.15 0.0 0 1 28.14 52.01
  Q 30.25 50.46 30.25 47.52
  Q 30.28 28.46 30.31 21.38
  A 0.61 0.61 0.0 0 0 29.73 20.77
  C 26.06 20.58 20.02 19.99 18.49 24.27
  A 0.29 0.29 0.0 0 1 17.93 24.16
  L 17.96 16.57
  A 0.49 0.48 17.3 0 1 18.72 16.18
  Q 19.45 16.67 19.72 16.73
  A 7.34 3.83 13.5 0 0 20.74 16.90
  Q 21.35 16.97 32.94 16.99
  Z"
/>
</svg>
