<?xml version="1.0" encoding="UTF-8" standalone="no"?>
<!DOCTYPE svg PUBLIC "-//W3C//DTD SVG 1.1//EN" "http://www.w3.org/Graphics/SVG/1.1/DTD/svg11.dtd">
<svg xmlns="http://www.w3.org/2000/svg" version="1.1" viewBox="0.00 0.00 66.00 88.00">
<g stroke-width="2.00" fill="none" stroke-linecap="butt">
<path stroke="#1b292f" vector-effect="non-scaling-stroke" d="
  M 33.39 86.51
  Q 33.56 86.51 33.78 86.31
  Q 48.53 72.78 57.52 56.52
  C 62.05 48.31 64.73 39.30 64.08 30.02
  C 62.99 14.40 48.77 2.52 33.52 2.50
  C 18.27 2.48 4.01 14.31 2.87 29.93
  C 2.20 39.21 4.85 48.23 9.35 56.45
  Q 18.30 72.74 33.01 86.31
  Q 33.23 86.51 33.39 86.51"
/>
<path stroke="#919a9e" vector-effect="non-scaling-stroke" d="
  M 51.30 48.60
  L 46.95 31.47
  A 1.33 1.32 6.0 0 0 46.24 30.60
  L 43.40 29.22
  A 1.04 1.00 8.6 0 1 42.84 28.49
  C 42.07 24.44 42.10 24.20 39.34 20.95
  A 0.54 0.54 0.0 0 0 38.41 21.13
  L 38.19 21.79
  A 0.89 0.89 0.0 0 1 37.34 22.41
  L 26.17 22.41
  A 1.10 1.09 -7.2 0 1 25.11 21.59
  L 24.71 20.00
  A 0.59 0.59 0.0 0 0 23.85 19.63
  Q 22.68 20.28 22.36 21.88
  Q 21.21 27.68 20.25 33.57
  A 1.03 1.02 -2.7 0 1 19.50 34.39
  L 17.80 34.82
  A 1.24 1.23 -2.6 0 0 16.88 35.82
  L 14.78 48.08
  A 0.58 0.58 0.0 0 0 15.35 48.75
  L 24.44 48.75
  A 0.81 0.80 8.9 0 0 25.21 48.20
  L 28.83 37.04
  A 0.47 0.46 -79.6 0 1 29.30 36.71
  Q 30.02 36.73 30.11 37.62
  A 0.61 0.60 47.3 0 0 31.31 37.67
  L 32.28 31.97
  A 0.56 0.56 0.0 0 1 33.23 31.67
  L 38.33 36.77
  A 2.05 2.03 15.4 0 1 38.86 37.69
  L 41.65 48.67
  A 0.44 0.42 -6.8 0 0 42.07 48.99
  L 50.99 48.99
  A 0.32 0.31 -7.1 0 0 51.30 48.60"
/>
</g>
<path fill="#121d21" d="
  M 33.79 88.00
  L 33.04 88.00
  C 22.01 77.98 11.61 65.26 5.59 51.41
  Q 2.12 43.43 1.55 34.82
  C 0.50 18.93 11.27 5.71 26.62 2.06
  C 37.34 -0.48 49.60 3.32 57.12 11.60
  C 79.44 36.18 52.37 71.13 33.79 88.00
  Z
  M 33.39 86.51
  Q 33.56 86.51 33.78 86.31
  Q 48.53 72.78 57.52 56.52
  C 62.05 48.31 64.73 39.30 64.08 30.02
  C 62.99 14.40 48.77 2.52 33.52 2.50
  C 18.27 2.48 4.01 14.31 2.87 29.93
  C 2.20 39.21 4.85 48.23 9.35 56.45
  Q 18.30 72.74 33.01 86.31
  Q 33.23 86.51 33.39 86.51
  Z"
/>
<path fill="#23353d" d="
  M 33.52 2.50
  C 48.77 2.52 62.99 14.40 64.08 30.02
  C 64.73 39.30 62.05 48.31 57.52 56.52
  Q 48.53 72.78 33.78 86.31
  Q 33.56 86.51 33.39 86.51
  Q 33.23 86.51 33.01 86.31
  Q 18.30 72.74 9.35 56.45
  C 4.85 48.23 2.20 39.21 2.87 29.93
  C 4.01 14.31 18.27 2.48 33.52 2.50
  Z
  M 51.30 48.60
  L 46.95 31.47
  A 1.33 1.32 6.0 0 0 46.24 30.60
  L 43.40 29.22
  A 1.04 1.00 8.6 0 1 42.84 28.49
  C 42.07 24.44 42.10 24.20 39.34 20.95
  A 0.54 0.54 0.0 0 0 38.41 21.13
  L 38.19 21.79
  A 0.89 0.89 0.0 0 1 37.34 22.41
  L 26.17 22.41
  A 1.10 1.09 -7.2 0 1 25.11 21.59
  L 24.71 20.00
  A 0.59 0.59 0.0 0 0 23.85 19.63
  Q 22.68 20.28 22.36 21.88
  Q 21.21 27.68 20.25 33.57
  A 1.03 1.02 -2.7 0 1 19.50 34.39
  L 17.80 34.82
  A 1.24 1.23 -2.6 0 0 16.88 35.82
  L 14.78 48.08
  A 0.58 0.58 0.0 0 0 15.35 48.75
  L 24.44 48.75
  A 0.81 0.80 8.9 0 0 25.21 48.20
  L 28.83 37.04
  A 0.47 0.46 -79.6 0 1 29.30 36.71
  Q 30.02 36.73 30.11 37.62
  A 0.61 0.60 47.3 0 0 31.31 37.67
  L 32.28 31.97
  A 0.56 0.56 0.0 0 1 33.23 31.67
  L 38.33 36.77
  A 2.05 2.03 15.4 0 1 38.86 37.69
  L 41.65 48.67
  A 0.44 0.42 -6.8 0 0 42.07 48.99
  L 50.99 48.99
  A 0.32 0.31 -7.1 0 0 51.30 48.60
  Z"
/>
<path fill="#ffffff" d="
  M 51.30 48.60
  A 0.32 0.31 -7.1 0 1 50.99 48.99
  L 42.07 48.99
  A 0.44 0.42 -6.8 0 1 41.65 48.67
  L 38.86 37.69
  A 2.05 2.03 15.4 0 0 38.33 36.77
  L 33.23 31.67
  A 0.56 0.56 0.0 0 0 32.28 31.97
  L 31.31 37.67
  A 0.61 0.60 47.3 0 1 30.11 37.62
  Q 30.02 36.73 29.30 36.71
  A 0.47 0.46 -79.6 0 0 28.83 37.04
  L 25.21 48.20
  A 0.81 0.80 8.9 0 1 24.44 48.75
  L 15.35 48.75
  A 0.58 0.58 0.0 0 1 14.78 48.08
  L 16.88 35.82
  A 1.24 1.23 -2.6 0 1 17.80 34.82
  L 19.50 34.39
  A 1.03 1.02 -2.7 0 0 20.25 33.57
  Q 21.21 27.68 22.36 21.88
  Q 22.68 20.28 23.85 19.63
  A 0.59 0.59 0.0 0 1 24.71 20.00
  L 25.11 21.59
  A 1.10 1.09 -7.2 0 0 26.17 22.41
  L 37.34 22.41
  A 0.89 0.89 0.0 0 0 38.19 21.79
  L 38.41 21.13
  A 0.54 0.54 0.0 0 1 39.34 20.95
  C 42.10 24.20 42.07 24.44 42.84 28.49
  A 1.04 1.00 8.6 0 0 43.40 29.22
  L 46.24 30.60
  A 1.33 1.32 6.0 0 1 46.95 31.47
  L 51.30 48.60
  Z"
/>
</svg>
