<?xml version="1.0" encoding="UTF-8" standalone="no"?>
<!DOCTYPE svg PUBLIC "-//W3C//DTD SVG 1.1//EN" "http://www.w3.org/Graphics/SVG/1.1/DTD/svg11.dtd">
<svg xmlns="http://www.w3.org/2000/svg" version="1.1" viewBox="0.00 0.00 66.00 88.00">
<g stroke-width="2.00" fill="none" stroke-linecap="butt">
<path stroke="#1e4056" vector-effect="non-scaling-stroke" d="
  M 33.42 86.62
  C 34.27 86.62 33.55 86.68 33.77 86.47
  Q 48.88 72.37 57.74 56.27
  C 64.50 43.97 67.74 27.53 58.65 15.35
  C 52.63 7.29 43.78 2.54 33.51 2.53
  C 23.24 2.52 14.38 7.25 8.34 15.30
  C -0.78 27.46 2.43 43.90 9.16 56.22
  Q 17.99 72.34 33.07 86.47
  C 33.29 86.68 32.57 86.61 33.42 86.62"
/>
<path stroke="#94aab8" vector-effect="non-scaling-stroke" d="
  M 24.65 19.54
  Q 16.44 24.28 16.37 24.40
  Q 16.30 24.52 16.30 34.00
  Q 16.30 43.48 16.37 43.60
  Q 16.43 43.72 24.65 48.47
  Q 32.86 53.21 33.00 53.21
  Q 33.13 53.21 41.35 48.47
  Q 49.56 43.73 49.63 43.61
  Q 49.70 43.49 49.70 34.00
  Q 49.70 24.52 49.63 24.40
  Q 49.56 24.28 41.35 19.54
  Q 33.14 14.80 33.00 14.80
  Q 32.86 14.80 24.65 19.54"
/>
<path stroke="#94aab8" vector-effect="non-scaling-stroke" d="
  M 26.73 23.12
  Q 20.63 26.63 20.54 26.79
  Q 20.45 26.95 20.44 33.99
  Q 20.44 41.02 20.53 41.18
  Q 20.62 41.34 26.71 44.87
  Q 32.80 48.39 32.98 48.39
  Q 33.17 48.39 39.27 44.88
  Q 45.37 41.36 45.46 41.21
  Q 45.55 41.05 45.55 34.01
  Q 45.56 26.97 45.47 26.81
  Q 45.38 26.66 39.29 23.13
  Q 33.19 19.60 33.01 19.60
  Q 32.83 19.60 26.73 23.12"
/>
</g>
<path fill="#132c3a" d="
  M 33.80 88.00
  L 33.04 88.00
  C 21.76 77.75 12.11 65.67 5.64 51.56
  Q 2.20 44.06 1.59 34.89
  C 0.57 19.44 10.63 6.39 25.32 2.38
  C 36.58 -0.70 49.36 2.94 57.32 11.83
  C 79.31 36.42 52.28 71.16 33.80 88.00
  Z
  M 33.42 86.62
  C 34.27 86.62 33.55 86.68 33.77 86.47
  Q 48.88 72.37 57.74 56.27
  C 64.50 43.97 67.74 27.53 58.65 15.35
  C 52.63 7.29 43.78 2.54 33.51 2.53
  C 23.24 2.52 14.38 7.25 8.34 15.30
  C -0.78 27.46 2.43 43.90 9.16 56.22
  Q 17.99 72.34 33.07 86.47
  C 33.29 86.68 32.57 86.61 33.42 86.62
  Z"
/>
<path fill="#285471" d="
  M 33.51 2.53
  C 43.78 2.54 52.63 7.29 58.65 15.35
  C 67.74 27.53 64.50 43.97 57.74 56.27
  Q 48.88 72.37 33.77 86.47
  C 33.55 86.68 34.27 86.62 33.42 86.62
  C 32.57 86.61 33.29 86.68 33.07 86.47
  Q 17.99 72.34 9.16 56.22
  C 2.43 43.90 -0.78 27.46 8.34 15.30
  C 14.38 7.25 23.24 2.52 33.51 2.53
  Z
  M 24.65 19.54
  Q 16.44 24.28 16.37 24.40
  Q 16.30 24.52 16.30 34.00
  Q 16.30 43.48 16.37 43.60
  Q 16.43 43.72 24.65 48.47
  Q 32.86 53.21 33.00 53.21
  Q 33.13 53.21 41.35 48.47
  Q 49.56 43.73 49.63 43.61
  Q 49.70 43.49 49.70 34.00
  Q 49.70 24.52 49.63 24.40
  Q 49.56 24.28 41.35 19.54
  Q 33.14 14.80 33.00 14.80
  Q 32.86 14.80 24.65 19.54
  Z"
/>
<path fill="#ffffff" d="
  M 33.00 14.80
  Q 33.14 14.80 41.35 19.54
  Q 49.56 24.28 49.63 24.40
  Q 49.70 24.52 49.70 34.00
  Q 49.70 43.49 49.63 43.61
  Q 49.56 43.73 41.35 48.47
  Q 33.13 53.21 33.00 53.21
  Q 32.86 53.21 24.65 48.47
  Q 16.43 43.72 16.37 43.60
  Q 16.30 43.48 16.30 34.00
  Q 16.30 24.52 16.37 24.40
  Q 16.44 24.28 24.65 19.54
  Q 32.86 14.80 33.00 14.80
  Z
  M 26.73 23.12
  Q 20.63 26.63 20.54 26.79
  Q 20.45 26.95 20.44 33.99
  Q 20.44 41.02 20.53 41.18
  Q 20.62 41.34 26.71 44.87
  Q 32.80 48.39 32.98 48.39
  Q 33.17 48.39 39.27 44.88
  Q 45.37 41.36 45.46 41.21
  Q 45.55 41.05 45.55 34.01
  Q 45.56 26.97 45.47 26.81
  Q 45.38 26.66 39.29 23.13
  Q 33.19 19.60 33.01 19.60
  Q 32.83 19.60 26.73 23.12
  Z"
/>
<path fill="#285471" d="
  M 39.29 23.13
  Q 45.38 26.66 45.47 26.81
  Q 45.56 26.97 45.55 34.01
  Q 45.55 41.05 45.46 41.21
  Q 45.37 41.36 39.27 44.88
  Q 33.17 48.39 32.98 48.39
  Q 32.80 48.39 26.71 44.87
  Q 20.62 41.34 20.53 41.18
  Q 20.44 41.02 20.44 33.99
  Q 20.45 26.95 20.54 26.79
  Q 20.63 26.63 26.73 23.12
  Q 32.83 19.60 33.01 19.60
  Q 33.19 19.60 39.29 23.13
  Z"
/>
</svg>
