<?xml version="1.0" encoding="UTF-8" standalone="no"?>
<!DOCTYPE svg PUBLIC "-//W3C//DTD SVG 1.1//EN" "http://www.w3.org/Graphics/SVG/1.1/DTD/svg11.dtd">
<svg xmlns="http://www.w3.org/2000/svg" version="1.1" viewBox="0.00 0.00 66.00 88.00">
<g stroke-width="2.00" fill="none" stroke-linecap="butt">
<path stroke="#1b292f" vector-effect="non-scaling-stroke" d="
  M 33.39 86.51
  Q 33.67 86.51 34.08 86.13
  C 48.15 72.80 63.24 54.07 64.17 33.94
  C 64.97 16.62 50.59 2.52 33.51 2.50
  C 16.44 2.47 2.02 16.53 2.77 33.85
  C 3.63 53.98 18.67 72.76 32.70 86.12
  Q 33.10 86.51 33.39 86.51"
/>
<path stroke="#8e979b" vector-effect="non-scaling-stroke" d="
  M 15.37 38.86
  L 16.83 38.86
  A 0.67 0.67 0.0 0 1 17.50 39.53
  L 17.50 46.40
  A 0.61 0.60 0.0 0 0 18.11 47.00
  L 47.86 47.00
  A 0.64 0.63 -0.0 0 0 48.50 46.37
  L 48.50 40.61
  A 0.75 0.75 0.0 0 1 49.25 39.86
  L 50.62 39.86
  A 0.66 0.65 -5.1 0 0 51.27 39.09
  C 50.19 33.16 47.13 28.89 43.33 22.40
  Q 42.15 20.38 40.15 21.47
  C 36.55 23.44 31.77 26.94 26.56 28.40
  A 0.44 0.43 82.0 0 1 26.01 27.98
  L 26.01 23.94
  A 0.45 0.44 0.0 0 0 25.56 23.50
  L 23.86 23.50
  A 0.53 0.53 0.0 0 0 23.33 24.03
  L 23.33 28.76
  A 0.50 0.49 -3.3 0 1 22.89 29.25
  L 20.48 29.52
  A 1.17 1.13 17.7 0 0 19.79 29.86
  Q 16.42 33.29 14.81 38.07
  A 0.60 0.59 -80.5 0 0 15.37 38.86"
/>
<path stroke="#8e979b" vector-effect="non-scaling-stroke" d="
  M 43.85 34.27
  A 0.40 0.40 0.0 0 1 44.25 34.67
  L 44.25 45.01
  A 0.49 0.49 0.0 0 0 44.74 45.50
  L 46.44 45.50
  A 0.55 0.54 -0.5 0 0 46.99 44.95
  Q 46.98 41.62 47.04 36.73
  C 47.09 32.18 44.31 28.31 41.43 23.80
  A 0.28 0.28 0.0 0 0 41.01 23.74
  Q 34.43 29.45 31.92 37.19
  Q 31.07 39.84 31.78 45.34
  A 0.47 0.46 86.5 0 0 32.24 45.75
  L 39.32 45.75
  A 0.44 0.43 90.0 0 0 39.75 45.31
  L 39.75 34.66
  A 0.39 0.39 0.0 0 1 40.14 34.27
  L 43.85 34.27"
/>
<path stroke="#8e979b" vector-effect="non-scaling-stroke" d="
  M 29.36 39.23
  L 24.19 39.23
  A 0.77 0.76 88.6 0 0 23.43 40.04
  Q 23.46 40.87 23.45 40.93
  A 1.37 1.37 0.0 0 1 20.74 40.58
  L 20.79 39.57
  A 0.55 0.55 0.0 0 0 20.24 39.00
  L 19.89 39.00
  A 0.65 0.65 0.0 0 0 19.24 39.65
  L 19.24 45.17
  A 0.58 0.58 0.0 0 0 19.82 45.75
  L 29.12 45.75
  A 0.41 0.40 90.0 0 0 29.52 45.34
  L 29.52 39.40
  A 0.17 0.16 -90.0 0 0 29.36 39.23"
/>
</g>
<path fill="#121d21" d="
  M 33.81 88.00
  L 33.04 88.00
  C 21.76 77.75 12.11 65.67 5.64 51.56
  Q 2.20 44.06 1.59 34.89
  C -0.16 8.64 28.89 -7.15 50.48 6.19
  Q 62.27 13.48 64.92 27.08
  C 69.24 49.22 49.05 74.09 33.81 88.00
  Z
  M 33.39 86.51
  Q 33.67 86.51 34.08 86.13
  C 48.15 72.80 63.24 54.07 64.17 33.94
  C 64.97 16.62 50.59 2.52 33.51 2.50
  C 16.44 2.47 2.02 16.53 2.77 33.85
  C 3.63 53.98 18.67 72.76 32.70 86.12
  Q 33.10 86.51 33.39 86.51
  Z"
/>
<path fill="#23353d" d="
  M 33.51 2.50
  C 50.59 2.52 64.97 16.62 64.17 33.94
  C 63.24 54.07 48.15 72.80 34.08 86.13
  Q 33.67 86.51 33.39 86.51
  Q 33.10 86.51 32.70 86.12
  C 18.67 72.76 3.63 53.98 2.77 33.85
  C 2.02 16.53 16.44 2.47 33.51 2.50
  Z
  M 15.37 38.86
  L 16.83 38.86
  A 0.67 0.67 0.0 0 1 17.50 39.53
  L 17.50 46.40
  A 0.61 0.60 0.0 0 0 18.11 47.00
  L 47.86 47.00
  A 0.64 0.63 -0.0 0 0 48.50 46.37
  L 48.50 40.61
  A 0.75 0.75 0.0 0 1 49.25 39.86
  L 50.62 39.86
  A 0.66 0.65 -5.1 0 0 51.27 39.09
  C 50.19 33.16 47.13 28.89 43.33 22.40
  Q 42.15 20.38 40.15 21.47
  C 36.55 23.44 31.77 26.94 26.56 28.40
  A 0.44 0.43 82.0 0 1 26.01 27.98
  L 26.01 23.94
  A 0.45 0.44 0.0 0 0 25.56 23.50
  L 23.86 23.50
  A 0.53 0.53 0.0 0 0 23.33 24.03
  L 23.33 28.76
  A 0.50 0.49 -3.3 0 1 22.89 29.25
  L 20.48 29.52
  A 1.17 1.13 17.7 0 0 19.79 29.86
  Q 16.42 33.29 14.81 38.07
  A 0.60 0.59 -80.5 0 0 15.37 38.86
  Z"
/>
<path fill="#f9f9f9" d="
  M 14.81 38.07
  Q 16.42 33.29 19.79 29.86
  A 1.17 1.13 17.7 0 1 20.48 29.52
  L 22.89 29.25
  A 0.50 0.49 -3.3 0 0 23.33 28.76
  L 23.33 24.03
  A 0.53 0.53 0.0 0 1 23.86 23.50
  L 25.56 23.50
  A 0.45 0.44 0.0 0 1 26.01 23.94
  L 26.01 27.98
  A 0.44 0.43 82.0 0 0 26.56 28.40
  C 31.77 26.94 36.55 23.44 40.15 21.47
  Q 42.15 20.38 43.33 22.40
  C 47.13 28.89 50.19 33.16 51.27 39.09
  A 0.66 0.65 -5.1 0 1 50.62 39.86
  L 49.25 39.86
  A 0.75 0.75 0.0 0 0 48.50 40.61
  L 48.50 46.37
  A 0.64 0.63 0.0 0 1 47.86 47.00
  L 18.11 47.00
  A 0.61 0.60 0.0 0 1 17.50 46.40
  L 17.50 39.53
  A 0.67 0.67 0.0 0 0 16.83 38.86
  L 15.37 38.86
  A 0.60 0.59 -80.5 0 1 14.81 38.07
  Z
  M 43.85 34.27
  A 0.40 0.40 0.0 0 1 44.25 34.67
  L 44.25 45.01
  A 0.49 0.49 0.0 0 0 44.74 45.50
  L 46.44 45.50
  A 0.55 0.54 -0.5 0 0 46.99 44.95
  Q 46.98 41.62 47.04 36.73
  C 47.09 32.18 44.31 28.31 41.43 23.80
  A 0.28 0.28 0.0 0 0 41.01 23.74
  Q 34.43 29.45 31.92 37.19
  Q 31.07 39.84 31.78 45.34
  A 0.47 0.46 86.5 0 0 32.24 45.75
  L 39.32 45.75
  A 0.44 0.43 90.0 0 0 39.75 45.31
  L 39.75 34.66
  A 0.39 0.39 0.0 0 1 40.14 34.27
  L 43.85 34.27
  Z
  M 29.36 39.23
  L 24.19 39.23
  A 0.77 0.76 88.6 0 0 23.43 40.04
  Q 23.46 40.87 23.45 40.93
  A 1.37 1.37 0.0 0 1 20.74 40.58
  L 20.79 39.57
  A 0.55 0.55 0.0 0 0 20.24 39.00
  L 19.89 39.00
  A 0.65 0.65 0.0 0 0 19.24 39.65
  L 19.24 45.17
  A 0.58 0.58 0.0 0 0 19.82 45.75
  L 29.12 45.75
  A 0.41 0.40 90.0 0 0 29.52 45.34
  L 29.52 39.40
  A 0.17 0.16 -90.0 0 0 29.36 39.23
  Z"
/>
<path fill="#23353d" d="
  M 39.75 34.66
  L 39.75 45.31
  A 0.44 0.43 90.0 0 1 39.32 45.75
  L 32.24 45.75
  A 0.47 0.46 86.5 0 1 31.78 45.34
  Q 31.07 39.84 31.92 37.19
  Q 34.43 29.45 41.01 23.74
  A 0.28 0.28 0.0 0 1 41.43 23.80
  C 44.31 28.31 47.09 32.18 47.04 36.73
  Q 46.98 41.62 46.99 44.95
  A 0.55 0.54 -0.5 0 1 46.44 45.50
  L 44.74 45.50
  A 0.49 0.49 0.0 0 1 44.25 45.01
  L 44.25 34.67
  A 0.40 0.40 0.0 0 0 43.85 34.27
  L 40.14 34.27
  A 0.39 0.39 0.0 0 0 39.75 34.66
  Z"
/>
<path fill="#23353d" d="
  M 29.36 39.23
  A 0.17 0.16 90.0 0 1 29.52 39.40
  L 29.52 45.34
  A 0.41 0.40 -90.0 0 1 29.12 45.75
  L 19.82 45.75
  A 0.58 0.58 0.0 0 1 19.24 45.17
  L 19.24 39.65
  A 0.65 0.65 0.0 0 1 19.89 39.00
  L 20.24 39.00
  A 0.55 0.55 0.0 0 1 20.79 39.57
  L 20.74 40.58
  A 1.37 1.37 0.0 0 0 23.45 40.93
  Q 23.46 40.87 23.43 40.04
  A 0.77 0.76 88.6 0 1 24.19 39.23
  L 29.36 39.23
  Z"
/>
</svg>
