<?xml version="1.0" encoding="UTF-8" standalone="no"?>
<!DOCTYPE svg PUBLIC "-//W3C//DTD SVG 1.1//EN" "http://www.w3.org/Graphics/SVG/1.1/DTD/svg11.dtd">
<svg xmlns="http://www.w3.org/2000/svg" version="1.1" viewBox="0.00 0.00 66.00 88.00">
<g stroke-width="2.00" fill="none" stroke-linecap="butt">
<path stroke="#1b292f" vector-effect="non-scaling-stroke" d="
  M 33.39 86.51
  Q 33.61 86.51 33.80 86.33
  C 44.77 76.18 54.66 63.93 60.52 50.23
  C 64.57 40.76 65.98 28.81 61.19 19.57
  C 55.73 9.06 45.34 2.57 33.54 2.54
  C 21.74 2.52 11.32 8.98 5.83 19.48
  C 1.01 28.69 2.37 40.65 6.39 50.13
  C 12.20 63.85 22.05 76.14 32.98 86.33
  Q 33.17 86.51 33.39 86.51"
/>
<path stroke="#919a9e" vector-effect="non-scaling-stroke" d="
  M 33.01 30.02
  Q 33.23 30.02 33.26 30.05
  Q 37.10 33.49 40.73 36.88
  A 1.72 1.69 21.8 0 1 41.28 38.13
  L 41.28 51.64
  A 0.66 0.66 0.0 0 0 41.94 52.30
  L 43.29 52.30
  A 0.72 0.72 0.0 0 0 44.01 51.58
  L 44.01 27.44
  A 3.47 3.46 21.3 0 0 42.89 24.89
  Q 36.13 18.68 33.27 15.90
  Q 33.21 15.84 33.02 15.84
  Q 32.82 15.84 32.76 15.90
  Q 29.90 18.68 23.13 24.88
  A 3.47 3.46 -21.3 0 0 22.01 27.43
  L 21.98 51.57
  A 0.72 0.72 0.0 0 0 22.70 52.29
  L 24.05 52.29
  A 0.66 0.66 0.0 0 0 24.71 51.63
  L 24.73 38.12
  A 1.72 1.69 -21.7 0 1 25.28 36.87
  Q 28.91 33.49 32.75 30.05
  Q 32.79 30.02 33.01 30.02"
/>
<path stroke="#919a9e" vector-effect="non-scaling-stroke" d="
  M 33.02 25.86
  Q 33.23 25.86 33.81 26.42
  Q 37.21 29.67 40.18 32.49
  A 0.67 0.67 0.0 0 0 41.31 32.00
  L 41.31 28.94
  A 3.36 3.35 -68.1 0 0 40.28 26.52
  Q 36.32 22.70 33.28 20.06
  C 33.24 20.02 33.07 19.99 33.03 19.99
  C 32.99 19.99 32.82 20.02 32.78 20.06
  Q 29.73 22.69 25.75 26.49
  A 3.36 3.35 68.3 0 0 24.71 28.90
  L 24.70 31.96
  A 0.67 0.67 0.0 0 0 25.83 32.46
  Q 28.81 29.65 32.22 26.42
  Q 32.81 25.86 33.02 25.86"
/>
</g>
<path fill="#121d21" d="
  M 33.79 88.00
  L 33.04 88.00
  C 22.00 77.98 11.62 65.26 5.59 51.41
  Q 2.12 43.43 1.55 34.82
  C 0.50 18.93 11.27 5.71 26.62 2.06
  C 37.34 -0.48 49.61 3.32 57.13 11.61
  C 79.44 36.19 52.37 71.13 33.79 88.00
  Z
  M 33.39 86.51
  Q 33.61 86.51 33.80 86.33
  C 44.77 76.18 54.66 63.93 60.52 50.23
  C 64.57 40.76 65.98 28.81 61.19 19.57
  C 55.73 9.06 45.34 2.57 33.54 2.54
  C 21.74 2.52 11.32 8.98 5.83 19.48
  C 1.01 28.69 2.37 40.65 6.39 50.13
  C 12.20 63.85 22.05 76.14 32.98 86.33
  Q 33.17 86.51 33.39 86.51
  Z"
/>
<path fill="#23353d" d="
  M 33.54 2.54
  C 45.34 2.57 55.73 9.06 61.19 19.57
  C 65.98 28.81 64.57 40.76 60.52 50.23
  C 54.66 63.93 44.77 76.18 33.80 86.33
  Q 33.61 86.51 33.39 86.51
  Q 33.17 86.51 32.98 86.33
  C 22.05 76.14 12.20 63.85 6.39 50.13
  C 2.37 40.65 1.01 28.69 5.83 19.48
  C 11.32 8.98 21.74 2.52 33.54 2.54
  Z
  M 33.01 30.02
  Q 33.23 30.02 33.26 30.05
  Q 37.10 33.49 40.73 36.88
  A 1.72 1.69 21.8 0 1 41.28 38.13
  L 41.28 51.64
  A 0.66 0.66 0.0 0 0 41.94 52.30
  L 43.29 52.30
  A 0.72 0.72 0.0 0 0 44.01 51.58
  L 44.01 27.44
  A 3.47 3.46 21.3 0 0 42.89 24.89
  Q 36.13 18.68 33.27 15.90
  Q 33.21 15.84 33.02 15.84
  Q 32.82 15.84 32.76 15.90
  Q 29.90 18.68 23.13 24.88
  A 3.47 3.46 -21.3 0 0 22.01 27.43
  L 21.98 51.57
  A 0.72 0.72 0.0 0 0 22.70 52.29
  L 24.05 52.29
  A 0.66 0.66 0.0 0 0 24.71 51.63
  L 24.73 38.12
  A 1.72 1.69 -21.7 0 1 25.28 36.87
  Q 28.91 33.49 32.75 30.05
  Q 32.79 30.02 33.01 30.02
  Z"
/>
<path fill="#ffffff" d="
  M 33.02 15.84
  Q 33.21 15.84 33.27 15.90
  Q 36.13 18.68 42.89 24.89
  A 3.47 3.46 21.3 0 1 44.01 27.44
  L 44.01 51.58
  A 0.72 0.72 0.0 0 1 43.29 52.30
  L 41.94 52.30
  A 0.66 0.66 0.0 0 1 41.28 51.64
  L 41.28 38.13
  A 1.72 1.69 21.8 0 0 40.73 36.88
  Q 37.10 33.49 33.26 30.05
  Q 33.23 30.02 33.01 30.02
  Q 32.79 30.02 32.75 30.05
  Q 28.91 33.49 25.28 36.87
  A 1.72 1.69 -21.7 0 0 24.73 38.12
  L 24.71 51.63
  A 0.66 0.66 0.0 0 1 24.05 52.29
  L 22.70 52.29
  A 0.72 0.72 0.0 0 1 21.98 51.57
  L 22.01 27.43
  A 3.47 3.46 -21.3 0 1 23.13 24.88
  Q 29.90 18.68 32.76 15.90
  Q 32.82 15.84 33.02 15.84
  Z
  M 33.02 25.86
  Q 33.23 25.86 33.81 26.42
  Q 37.21 29.67 40.18 32.49
  A 0.67 0.67 0.0 0 0 41.31 32.00
  L 41.31 28.94
  A 3.36 3.35 -68.1 0 0 40.28 26.52
  Q 36.32 22.70 33.28 20.06
  C 33.24 20.02 33.07 19.99 33.03 19.99
  C 32.99 19.99 32.82 20.02 32.78 20.06
  Q 29.73 22.69 25.75 26.49
  A 3.36 3.35 68.3 0 0 24.71 28.90
  L 24.70 31.96
  A 0.67 0.67 0.0 0 0 25.83 32.46
  Q 28.81 29.65 32.22 26.42
  Q 32.81 25.86 33.02 25.86
  Z"
/>
<path fill="#23353d" d="
  M 33.03 19.99
  C 33.07 19.99 33.24 20.02 33.28 20.06
  Q 36.32 22.70 40.28 26.52
  A 3.36 3.35 -68.1 0 1 41.31 28.94
  L 41.31 32.00
  A 0.67 0.67 0.0 0 1 40.18 32.49
  Q 37.21 29.67 33.81 26.42
  Q 33.23 25.86 33.02 25.86
  Q 32.81 25.86 32.22 26.42
  Q 28.81 29.65 25.83 32.46
  A 0.67 0.67 0.0 0 1 24.70 31.96
  L 24.71 28.90
  A 3.36 3.35 68.3 0 1 25.75 26.49
  Q 29.73 22.69 32.78 20.06
  C 32.82 20.02 32.99 19.99 33.03 19.99
  Z"
/>
</svg>
