<?xml version="1.0" encoding="UTF-8" standalone="no"?>
<!DOCTYPE svg PUBLIC "-//W3C//DTD SVG 1.1//EN" "http://www.w3.org/Graphics/SVG/1.1/DTD/svg11.dtd">
<svg xmlns="http://www.w3.org/2000/svg" version="1.1" viewBox="0.00 0.00 66.00 88.00">
<g stroke-width="2.00" fill="none" stroke-linecap="butt">
<path stroke="#1b292f" vector-effect="non-scaling-stroke" d="
  M 33.42 86.52
  Q 33.64 86.52 33.72 86.45
  C 44.81 76.20 54.92 63.69 60.72 49.73
  C 64.48 40.68 65.87 29.37 61.57 20.39
  C 56.33 9.45 45.76 2.64 33.52 2.63
  C 21.27 2.61 10.69 9.40 5.42 20.33
  C 1.10 29.30 2.47 40.61 6.21 49.67
  C 11.98 63.64 22.06 76.18 33.13 86.45
  Q 33.21 86.52 33.42 86.52"
/>
<path stroke="#919a9e" vector-effect="non-scaling-stroke" d="
  M 20.05 25.79
  Q 24.51 24.06 27.38 23.99
  A 0.65 0.65 0.0 0 0 28.01 23.35
  Q 28.01 21.86 28.25 21.53
  A 1.61 1.60 15.5 0 1 29.46 20.85
  L 31.89 20.69
  A 1.51 1.51 0.0 0 1 33.40 22.73
  Q 29.31 33.62 20.89 41.09
  A 1.75 1.74 73.9 0 0 20.33 42.11
  L 19.67 45.90
  A 0.33 0.33 0.0 0 0 20.24 46.17
  Q 25.96 39.38 32.64 34.01
  A 0.77 0.77 0.0 0 1 33.60 34.01
  Q 40.51 39.53 46.49 46.64
  A 0.07 0.07 0.0 0 0 46.62 46.58
  L 45.96 41.88
  A 0.42 0.42 0.0 0 0 45.84 41.64
  Q 37.96 34.41 33.84 25.37
  A 2.68 2.60 -58.2 0 1 33.62 24.36
  L 33.60 14.15
  A 0.22 0.21 9.7 0 0 33.45 13.95
  L 33.44 13.95
  A 0.20 0.20 0.0 0 0 33.25 14.14
  L 33.15 15.86
  A 0.64 0.63 -0.0 0 1 32.54 16.46
  Q 31.11 16.55 28.53 17.75
  Q 25.96 18.95 26.23 21.35
  A 0.63 0.62 81.4 0 1 25.73 22.03
  Q 21.79 22.76 19.76 25.41
  A 0.25 0.25 0.0 0 0 20.05 25.79"
/>
<path stroke="#919a9e" vector-effect="non-scaling-stroke" d="
  M 33.14 41.33
  C 35.25 41.32 37.86 42.27 38.94 42.45
  A 0.26 0.26 0.0 0 0 39.17 42.02
  Q 36.87 39.51 33.47 36.88
  Q 33.29 36.75 33.13 36.75
  Q 32.97 36.75 32.79 36.88
  Q 29.40 39.53 27.11 42.05
  A 0.26 0.26 0.0 0 0 27.35 42.48
  C 28.43 42.29 31.03 41.33 33.14 41.33"
/>
<path stroke="#919a9e" vector-effect="non-scaling-stroke" d="
  M 27.7694 45.3237
  A 0.36 0.36 0.0 0 0 27.4138 44.9594
  L 25.9139 44.9410
  A 0.36 0.36 0.0 0 0 25.5495 45.2966
  L 25.4906 50.1163
  A 0.36 0.36 0.0 0 0 25.8462 50.4806
  L 27.3461 50.4990
  A 0.36 0.36 0.0 0 0 27.7105 50.1434
  L 27.7694 45.3237"
/>
<path stroke="#919a9e" vector-effect="non-scaling-stroke" d="
  M 40.6979 45.4047
  A 0.51 0.51 0.0 0 0 40.1808 44.9019
  L 38.9810 44.9187
  A 0.51 0.51 0.0 0 0 38.4781 45.4357
  L 38.5421 50.0153
  A 0.51 0.51 0.0 0 0 39.0592 50.5181
  L 40.2590 50.5013
  A 0.51 0.51 0.0 0 0 40.7619 49.9843
  L 40.6979 45.4047"
/>
<path stroke="#919a9e" vector-effect="non-scaling-stroke" d="
  M 20.31 50.56
  L 22.74 50.56
  A 0.57 0.56 -90.0 0 0 23.30 49.99
  L 23.30 46.77
  A 0.49 0.49 0.0 0 0 22.39 46.52
  L 20.19 50.35
  A 0.14 0.14 0.0 0 0 20.31 50.56"
/>
<path stroke="#919a9e" vector-effect="non-scaling-stroke" d="
  M 46.02 50.48
  A 0.13 0.13 0.0 0 0 46.13 50.29
  L 44.14 46.72
  A 0.45 0.45 0.0 0 0 43.30 46.94
  L 43.26 49.92
  A 0.53 0.52 -89.3 0 0 43.77 50.45
  L 46.02 50.48"
/>
<path stroke="#919a9e" vector-effect="non-scaling-stroke" d="
  M 37.71 50.50
  L 28.25 50.50
  A 0.26 0.26 0.0 0 0 28.12 50.98
  L 32.95 53.76
  A 0.40 0.40 0.0 0 0 33.37 53.76
  L 37.88 51.16
  A 0.35 0.35 0.0 0 0 37.71 50.50"
/>
</g>
<path fill="#121d21" d="
  M 33.81 88.00
  L 33.15 88.00
  Q 15.61 72.49 6.00 52.51
  Q 2.31 44.84 1.62 35.22
  C -0.27 8.79 28.82 -7.36 50.58 6.26
  Q 62.32 13.60 64.91 27.08
  C 69.19 49.29 49.10 74.04 33.81 88.00
  Z
  M 33.42 86.52
  Q 33.64 86.52 33.72 86.45
  C 44.81 76.20 54.92 63.69 60.72 49.73
  C 64.48 40.68 65.87 29.37 61.57 20.39
  C 56.33 9.45 45.76 2.64 33.52 2.63
  C 21.27 2.61 10.69 9.40 5.42 20.33
  C 1.10 29.30 2.47 40.61 6.21 49.67
  C 11.98 63.64 22.06 76.18 33.13 86.45
  Q 33.21 86.52 33.42 86.52
  Z"
/>
<path fill="#23353d" d="
  M 33.42 86.52
  Q 33.21 86.52 33.13 86.45
  C 22.06 76.18 11.98 63.64 6.21 49.67
  C 2.47 40.61 1.10 29.30 5.42 20.33
  C 10.69 9.40 21.27 2.61 33.52 2.63
  C 45.76 2.64 56.33 9.45 61.57 20.39
  C 65.87 29.37 64.48 40.68 60.72 49.73
  C 54.92 63.69 44.81 76.20 33.72 86.45
  Q 33.64 86.52 33.42 86.52
  Z
  M 20.05 25.79
  Q 24.51 24.06 27.38 23.99
  A 0.65 0.65 0.0 0 0 28.01 23.35
  Q 28.01 21.86 28.25 21.53
  A 1.61 1.60 15.5 0 1 29.46 20.85
  L 31.89 20.69
  A 1.51 1.51 0.0 0 1 33.40 22.73
  Q 29.31 33.62 20.89 41.09
  A 1.75 1.74 73.9 0 0 20.33 42.11
  L 19.67 45.90
  A 0.33 0.33 0.0 0 0 20.24 46.17
  Q 25.96 39.38 32.64 34.01
  A 0.77 0.77 0.0 0 1 33.60 34.01
  Q 40.51 39.53 46.49 46.64
  A 0.07 0.07 0.0 0 0 46.62 46.58
  L 45.96 41.88
  A 0.42 0.42 0.0 0 0 45.84 41.64
  Q 37.96 34.41 33.84 25.37
  A 2.68 2.60 -58.2 0 1 33.62 24.36
  L 33.60 14.15
  A 0.22 0.21 9.7 0 0 33.45 13.95
  L 33.44 13.95
  A 0.20 0.20 0.0 0 0 33.25 14.14
  L 33.15 15.86
  A 0.64 0.63 -0.0 0 1 32.54 16.46
  Q 31.11 16.55 28.53 17.75
  Q 25.96 18.95 26.23 21.35
  A 0.63 0.62 81.4 0 1 25.73 22.03
  Q 21.79 22.76 19.76 25.41
  A 0.25 0.25 0.0 0 0 20.05 25.79
  Z
  M 33.14 41.33
  C 35.25 41.32 37.86 42.27 38.94 42.45
  A 0.26 0.26 0.0 0 0 39.17 42.02
  Q 36.87 39.51 33.47 36.88
  Q 33.29 36.75 33.13 36.75
  Q 32.97 36.75 32.79 36.88
  Q 29.40 39.53 27.11 42.05
  A 0.26 0.26 0.0 0 0 27.35 42.48
  C 28.43 42.29 31.03 41.33 33.14 41.33
  Z
  M 27.7694 45.3237
  A 0.36 0.36 0.0 0 0 27.4138 44.9594
  L 25.9139 44.9410
  A 0.36 0.36 0.0 0 0 25.5495 45.2966
  L 25.4906 50.1163
  A 0.36 0.36 0.0 0 0 25.8462 50.4806
  L 27.3461 50.4990
  A 0.36 0.36 0.0 0 0 27.7105 50.1434
  L 27.7694 45.3237
  Z
  M 40.6979 45.4047
  A 0.51 0.51 0.0 0 0 40.1808 44.9019
  L 38.9810 44.9187
  A 0.51 0.51 0.0 0 0 38.4781 45.4357
  L 38.5421 50.0153
  A 0.51 0.51 0.0 0 0 39.0592 50.5181
  L 40.2590 50.5013
  A 0.51 0.51 0.0 0 0 40.7619 49.9843
  L 40.6979 45.4047
  Z
  M 20.31 50.56
  L 22.74 50.56
  A 0.57 0.56 -90.0 0 0 23.30 49.99
  L 23.30 46.77
  A 0.49 0.49 0.0 0 0 22.39 46.52
  L 20.19 50.35
  A 0.14 0.14 0.0 0 0 20.31 50.56
  Z
  M 46.02 50.48
  A 0.13 0.13 0.0 0 0 46.13 50.29
  L 44.14 46.72
  A 0.45 0.45 0.0 0 0 43.30 46.94
  L 43.26 49.92
  A 0.53 0.52 -89.3 0 0 43.77 50.45
  L 46.02 50.48
  Z
  M 37.71 50.50
  L 28.25 50.50
  A 0.26 0.26 0.0 0 0 28.12 50.98
  L 32.95 53.76
  A 0.40 0.40 0.0 0 0 33.37 53.76
  L 37.88 51.16
  A 0.35 0.35 0.0 0 0 37.71 50.50
  Z"
/>
<path fill="#ffffff" d="
  M 19.76 25.41
  Q 21.79 22.76 25.73 22.03
  A 0.63 0.62 81.4 0 0 26.23 21.35
  Q 25.96 18.95 28.53 17.75
  Q 31.11 16.55 32.54 16.46
  A 0.64 0.63 -0.0 0 0 33.15 15.86
  L 33.25 14.14
  A 0.20 0.20 0.0 0 1 33.44 13.95
  L 33.45 13.95
  A 0.22 0.21 9.7 0 1 33.60 14.15
  L 33.62 24.36
  A 2.68 2.60 -58.2 0 0 33.84 25.37
  Q 37.96 34.41 45.84 41.64
  A 0.42 0.42 0.0 0 1 45.96 41.88
  L 46.62 46.58
  A 0.07 0.07 0.0 0 1 46.49 46.64
  Q 40.51 39.53 33.60 34.01
  A 0.77 0.77 0.0 0 0 32.64 34.01
  Q 25.96 39.38 20.24 46.17
  A 0.33 0.33 0.0 0 1 19.67 45.90
  L 20.33 42.11
  A 1.75 1.74 73.9 0 1 20.89 41.09
  Q 29.31 33.62 33.40 22.73
  A 1.51 1.51 0.0 0 0 31.89 20.69
  L 29.46 20.85
  A 1.61 1.60 15.5 0 0 28.25 21.53
  Q 28.01 21.86 28.01 23.35
  A 0.65 0.65 0.0 0 1 27.38 23.99
  Q 24.51 24.06 20.05 25.79
  A 0.25 0.25 0.0 0 1 19.76 25.41
  Z"
/>
<path fill="#ffffff" d="
  M 33.13 36.75
  Q 33.29 36.75 33.47 36.88
  Q 36.87 39.51 39.17 42.02
  A 0.26 0.26 0.0 0 1 38.94 42.45
  C 37.86 42.27 35.25 41.32 33.14 41.33
  C 31.03 41.33 28.43 42.29 27.35 42.48
  A 0.26 0.26 0.0 0 1 27.11 42.05
  Q 29.40 39.53 32.79 36.88
  Q 32.97 36.75 33.13 36.75
  Z"
/>
<rect fill="#ffffff" x="-1.11" y="-2.77" transform="translate(26.63,47.72) rotate(0.7)" width="2.22" height="5.54" rx="0.36"/>
<rect fill="#ffffff" x="-1.11" y="-2.80" transform="translate(39.62,47.71) rotate(-0.8)" width="2.22" height="5.60" rx="0.51"/>
<path fill="#ffffff" d="
  M 20.19 50.35
  L 22.39 46.52
  A 0.49 0.49 0.0 0 1 23.30 46.77
  L 23.30 49.99
  A 0.57 0.56 90.0 0 1 22.74 50.56
  L 20.31 50.56
  A 0.14 0.14 0.0 0 1 20.19 50.35
  Z"
/>
<path fill="#ffffff" d="
  M 46.02 50.48
  L 43.77 50.45
  A 0.53 0.52 -89.3 0 1 43.26 49.92
  L 43.30 46.94
  A 0.45 0.45 0.0 0 1 44.14 46.72
  L 46.13 50.29
  A 0.13 0.13 0.0 0 1 46.02 50.48
  Z"
/>
<path fill="#ffffff" d="
  M 37.88 51.16
  L 33.37 53.76
  A 0.40 0.40 0.0 0 1 32.95 53.76
  L 28.12 50.98
  A 0.26 0.26 0.0 0 1 28.25 50.50
  L 37.71 50.50
  A 0.35 0.35 0.0 0 1 37.88 51.16
  Z"
/>
</svg>
