<?xml version="1.0" encoding="UTF-8" standalone="no"?>
<!DOCTYPE svg PUBLIC "-//W3C//DTD SVG 1.1//EN" "http://www.w3.org/Graphics/SVG/1.1/DTD/svg11.dtd">
<svg xmlns="http://www.w3.org/2000/svg" version="1.1" viewBox="0.00 0.00 66.00 88.00">
<g stroke-width="2.00" fill="none" stroke-linecap="butt">
<path stroke="#2b4b58" vector-effect="non-scaling-stroke" d="
  M 33.41 86.66
  Q 33.49 86.66 33.57 86.65
  Q 33.62 86.64 33.69 86.57
  Q 45.46 75.59 53.95 62.71
  C 64.73 46.36 70.72 23.87 52.95 9.34
  C 47.78 5.12 40.73 2.49 33.52 2.48
  C 26.32 2.47 19.26 5.08 14.08 9.29
  C -3.73 23.77 2.20 46.28 12.94 62.66
  Q 21.39 75.56 33.13 86.57
  Q 33.20 86.64 33.25 86.65
  Q 33.33 86.66 33.41 86.66"
/>
<path stroke="#9db1ba" vector-effect="non-scaling-stroke" d="
  M 37.97 28.68
  Q 39.54 30.66 40.84 33.95
  A 0.66 0.65 -25.8 0 0 41.78 34.27
  L 50.35 29.33
  A 2.17 2.16 75.2 0 0 51.43 27.47
  Q 51.44 22.73 49.15 19.83
  Q 46.86 16.94 42.24 15.86
  A 2.17 2.16 28.0 0 0 40.18 16.48
  L 33.41 23.69
  A 0.66 0.65 -51.0 0 0 33.51 24.68
  Q 36.40 26.70 37.97 28.68"
/>
<path stroke="#9db1ba" vector-effect="non-scaling-stroke" d="
  M 38.17 35.58
  A 0.88 0.86 58.3 0 0 38.37 34.68
  Q 36.80 30.31 32.44 27.30
  A 1.76 1.75 -50.1 0 0 30.20 27.51
  L 28.88 28.83
  A 1.19 1.18 -51.3 0 0 29.08 30.67
  Q 33.13 33.22 34.40 37.77
  A 0.75 0.75 0.0 0 0 35.65 38.10
  L 38.17 35.58"
/>
<path stroke="#9db1ba" vector-effect="non-scaling-stroke" d="
  M 17.57 35.54
  Q 26.29 38.92 27.94 48.20
  A 0.24 0.24 0.0 0 0 28.38 48.29
  L 32.36 42.27
  A 1.18 1.14 -32.3 0 0 32.55 41.49
  Q 31.75 34.14 24.96 31.46
  A 0.63 0.63 0.0 0 0 24.40 31.50
  L 17.57 35.44
  A 0.06 0.05 -47.9 0 0 17.57 35.54"
/>
<path stroke="#9db1ba" vector-effect="non-scaling-stroke" d="
  M 17.91 47.59
  A 1.12 1.11 12.4 0 0 19.76 46.41
  Q 19.09 44.79 16.50 42.67
  A 0.40 0.39 -47.3 0 1 16.48 42.08
  L 18.96 39.59
  A 0.39 0.39 0.0 0 0 18.91 38.99
  Q 17.74 38.19 16.27 38.11
  A 1.73 1.55 -88.4 0 0 14.63 39.84
  Q 14.59 44.00 17.91 47.59"
/>
<path stroke="#9db1ba" vector-effect="non-scaling-stroke" d="
  M 45.65 44.93
  A 0.21 0.20 -40.2 0 0 45.68 44.59
  Q 42.94 42.27 41.08 38.52
  A 0.95 0.95 0.0 0 0 39.76 38.12
  L 39.48 38.28
  A 0.90 0.90 0.0 0 0 39.15 39.50
  L 42.83 45.87
  A 0.60 0.60 0.0 0 0 43.65 46.09
  L 45.65 44.93"
/>
<path stroke="#9db1ba" vector-effect="non-scaling-stroke" d="
  M 43.73 49.33
  Q 40.18 46.04 37.96 40.68
  A 0.74 0.74 0.0 0 0 37.28 40.23
  L 36.79 40.23
  A 0.78 0.78 0.0 0 0 36.07 41.32
  C 37.60 44.83 38.61 48.64 41.16 51.83
  A 0.23 0.22 25.5 0 0 41.56 51.69
  L 41.56 50.46
  A 0.45 0.45 0.0 0 1 42.01 50.01
  L 43.46 50.01
  A 0.39 0.39 0.0 0 0 43.73 49.33"
/>
<path stroke="#9db1ba" vector-effect="non-scaling-stroke" d="
  M 22.0011 41.6806
  A 0.74 0.74 0.0 0 0 20.9594 41.5803
  L 20.6199 41.8601
  A 0.74 0.74 0.0 0 0 20.5196 42.9018
  L 21.9189 44.5994
  A 0.74 0.74 0.0 0 0 22.9606 44.6997
  L 23.3001 44.4199
  A 0.74 0.74 0.0 0 0 23.4004 43.3782
  L 22.0011 41.6806"
/>
<path stroke="#9db1ba" vector-effect="non-scaling-stroke" d="
  M 24.46 46.84
  L 20.82 49.63
  A 0.15 0.15 0.0 0 0 20.79 49.84
  L 20.87 49.93
  A 2.79 2.44 52.6 0 0 24.50 50.67
  A 2.79 2.44 52.6 0 0 24.74 46.97
  L 24.67 46.87
  A 0.15 0.15 0.0 0 0 24.46 46.84"
/>
</g>
<path fill="#1b333c" d="
  M 33.81 88.00
  L 33.04 88.00
  C 21.77 77.76 12.10 65.66 5.65 51.57
  C 1.03 41.49 -0.45 28.40 5.12 18.28
  C 14.16 1.84 34.58 -3.70 50.61 6.28
  Q 62.31 13.58 64.90 27.06
  C 69.18 49.30 49.13 74.02 33.81 88.00
  Z
  M 33.41 86.66
  Q 33.49 86.66 33.57 86.65
  Q 33.62 86.64 33.69 86.57
  Q 45.46 75.59 53.95 62.71
  C 64.73 46.36 70.72 23.87 52.95 9.34
  C 47.78 5.12 40.73 2.49 33.52 2.48
  C 26.32 2.47 19.26 5.08 14.08 9.29
  C -3.73 23.77 2.20 46.28 12.94 62.66
  Q 21.39 75.56 33.13 86.57
  Q 33.20 86.64 33.25 86.65
  Q 33.33 86.66 33.41 86.66
  Z"
/>
<path fill="#3a6374" d="
  M 33.52 2.48
  C 40.73 2.49 47.78 5.12 52.95 9.34
  C 70.72 23.87 64.73 46.36 53.95 62.71
  Q 45.46 75.59 33.69 86.57
  Q 33.62 86.64 33.57 86.65
  Q 33.49 86.66 33.41 86.66
  Q 33.33 86.66 33.25 86.65
  Q 33.20 86.64 33.13 86.57
  Q 21.39 75.56 12.94 62.66
  C 2.20 46.28 -3.73 23.77 14.08 9.29
  C 19.26 5.08 26.32 2.47 33.52 2.48
  Z
  M 37.97 28.68
  Q 39.54 30.66 40.84 33.95
  A 0.66 0.65 -25.8 0 0 41.78 34.27
  L 50.35 29.33
  A 2.17 2.16 75.2 0 0 51.43 27.47
  Q 51.44 22.73 49.15 19.83
  Q 46.86 16.94 42.24 15.86
  A 2.17 2.16 28.0 0 0 40.18 16.48
  L 33.41 23.69
  A 0.66 0.65 -51.0 0 0 33.51 24.68
  Q 36.40 26.70 37.97 28.68
  Z
  M 38.17 35.58
  A 0.88 0.86 58.3 0 0 38.37 34.68
  Q 36.80 30.31 32.44 27.30
  A 1.76 1.75 -50.1 0 0 30.20 27.51
  L 28.88 28.83
  A 1.19 1.18 -51.3 0 0 29.08 30.67
  Q 33.13 33.22 34.40 37.77
  A 0.75 0.75 0.0 0 0 35.65 38.10
  L 38.17 35.58
  Z
  M 17.57 35.54
  Q 26.29 38.92 27.94 48.20
  A 0.24 0.24 0.0 0 0 28.38 48.29
  L 32.36 42.27
  A 1.18 1.14 -32.3 0 0 32.55 41.49
  Q 31.75 34.14 24.96 31.46
  A 0.63 0.63 0.0 0 0 24.40 31.50
  L 17.57 35.44
  A 0.06 0.05 -47.9 0 0 17.57 35.54
  Z
  M 17.91 47.59
  A 1.12 1.11 12.4 0 0 19.76 46.41
  Q 19.09 44.79 16.50 42.67
  A 0.40 0.39 -47.3 0 1 16.48 42.08
  L 18.96 39.59
  A 0.39 0.39 0.0 0 0 18.91 38.99
  Q 17.74 38.19 16.27 38.11
  A 1.73 1.55 -88.4 0 0 14.63 39.84
  Q 14.59 44.00 17.91 47.59
  Z
  M 45.65 44.93
  A 0.21 0.20 -40.2 0 0 45.68 44.59
  Q 42.94 42.27 41.08 38.52
  A 0.95 0.95 0.0 0 0 39.76 38.12
  L 39.48 38.28
  A 0.90 0.90 0.0 0 0 39.15 39.50
  L 42.83 45.87
  A 0.60 0.60 0.0 0 0 43.65 46.09
  L 45.65 44.93
  Z
  M 43.73 49.33
  Q 40.18 46.04 37.96 40.68
  A 0.74 0.74 0.0 0 0 37.28 40.23
  L 36.79 40.23
  A 0.78 0.78 0.0 0 0 36.07 41.32
  C 37.60 44.83 38.61 48.64 41.16 51.83
  A 0.23 0.22 25.5 0 0 41.56 51.69
  L 41.56 50.46
  A 0.45 0.45 0.0 0 1 42.01 50.01
  L 43.46 50.01
  A 0.39 0.39 0.0 0 0 43.73 49.33
  Z
  M 22.0011 41.6806
  A 0.74 0.74 0.0 0 0 20.9594 41.5803
  L 20.6199 41.8601
  A 0.74 0.74 0.0 0 0 20.5196 42.9018
  L 21.9189 44.5994
  A 0.74 0.74 0.0 0 0 22.9606 44.6997
  L 23.3001 44.4199
  A 0.74 0.74 0.0 0 0 23.4004 43.3782
  L 22.0011 41.6806
  Z
  M 24.46 46.84
  L 20.82 49.63
  A 0.15 0.15 0.0 0 0 20.79 49.84
  L 20.87 49.93
  A 2.79 2.44 52.6 0 0 24.50 50.67
  A 2.79 2.44 52.6 0 0 24.74 46.97
  L 24.67 46.87
  A 0.15 0.15 0.0 0 0 24.46 46.84
  Z"
/>
<path fill="#ffffff" d="
  M 49.15 19.83
  Q 51.44 22.73 51.43 27.47
  A 2.17 2.16 75.2 0 1 50.35 29.33
  L 41.78 34.27
  A 0.66 0.65 -25.8 0 1 40.84 33.95
  Q 39.54 30.66 37.97 28.68
  Q 36.40 26.70 33.51 24.68
  A 0.66 0.65 -51.0 0 1 33.41 23.69
  L 40.18 16.48
  A 2.17 2.16 28.0 0 1 42.24 15.86
  Q 46.86 16.94 49.15 19.83
  Z"
/>
<path fill="#ffffff" d="
  M 34.40 37.77
  Q 33.13 33.22 29.08 30.67
  A 1.19 1.18 -51.3 0 1 28.88 28.83
  L 30.20 27.51
  A 1.76 1.75 -50.1 0 1 32.44 27.30
  Q 36.80 30.31 38.37 34.68
  A 0.88 0.86 58.3 0 1 38.17 35.58
  L 35.65 38.10
  A 0.75 0.75 0.0 0 1 34.40 37.77
  Z"
/>
<path fill="#ffffff" d="
  M 17.57 35.54
  A 0.06 0.05 -47.9 0 1 17.57 35.44
  L 24.40 31.50
  A 0.63 0.63 0.0 0 1 24.96 31.46
  Q 31.75 34.14 32.55 41.49
  A 1.18 1.14 -32.3 0 1 32.36 42.27
  L 28.38 48.29
  A 0.24 0.24 0.0 0 1 27.94 48.20
  Q 26.29 38.92 17.57 35.54
  Z"
/>
<path fill="#ffffff" d="
  M 17.91 47.59
  Q 14.59 44.00 14.63 39.84
  A 1.73 1.55 -88.4 0 1 16.27 38.11
  Q 17.74 38.19 18.91 38.99
  A 0.39 0.39 0.0 0 1 18.96 39.59
  L 16.48 42.08
  A 0.40 0.39 -47.3 0 0 16.50 42.67
  Q 19.09 44.79 19.76 46.41
  A 1.12 1.11 12.4 0 1 17.91 47.59
  Z"
/>
<path fill="#ffffff" d="
  M 45.65 44.93
  L 43.65 46.09
  A 0.60 0.60 0.0 0 1 42.83 45.87
  L 39.15 39.50
  A 0.90 0.90 0.0 0 1 39.48 38.28
  L 39.76 38.12
  A 0.95 0.95 0.0 0 1 41.08 38.52
  Q 42.94 42.27 45.68 44.59
  A 0.21 0.20 -40.2 0 1 45.65 44.93
  Z"
/>
<path fill="#ffffff" d="
  M 43.46 50.01
  L 42.01 50.01
  A 0.45 0.45 0.0 0 0 41.56 50.46
  L 41.56 51.69
  A 0.23 0.22 25.5 0 1 41.16 51.83
  C 38.61 48.64 37.60 44.83 36.07 41.32
  A 0.78 0.78 0.0 0 1 36.79 40.23
  L 37.28 40.23
  A 0.74 0.74 0.0 0 1 37.96 40.68
  Q 40.18 46.04 43.73 49.33
  A 0.39 0.39 0.0 0 1 43.46 50.01
  Z"
/>
<rect fill="#ffffff" x="-0.96" y="-1.84" transform="translate(21.96,43.14) rotate(-39.5)" width="1.92" height="3.68" rx="0.74"/>
<path fill="#ffffff" d="
  M 24.46 46.84
  A 0.15 0.15 0.0 0 1 24.67 46.87
  L 24.74 46.97
  A 2.79 2.44 52.6 0 1 24.50 50.67
  A 2.79 2.44 52.6 0 1 20.87 49.93
  L 20.79 49.84
  A 0.15 0.15 0.0 0 1 20.82 49.63
  L 24.46 46.84
  Z"
/>
</svg>
