<?xml version="1.0" encoding="UTF-8" standalone="no"?>
<!DOCTYPE svg PUBLIC "-//W3C//DTD SVG 1.1//EN" "http://www.w3.org/Graphics/SVG/1.1/DTD/svg11.dtd">
<svg xmlns="http://www.w3.org/2000/svg" version="1.1" viewBox="0.00 0.00 66.00 88.00">
<g stroke-width="2.00" fill="none" stroke-linecap="butt">
<path stroke="#ae8c4b" vector-effect="non-scaling-stroke" d="
  M 33.38 86.75
  Q 33.50 86.75 33.64 86.62
  Q 47.44 73.84 56.60 58.33
  C 64.12 45.59 68.33 28.23 58.66 15.31
  C 52.69 7.33 43.76 2.48 33.56 2.46
  C 23.35 2.44 14.41 7.25 8.40 15.21
  C -1.32 28.08 2.82 45.46 10.28 58.23
  Q 19.38 73.78 33.12 86.62
  Q 33.26 86.75 33.38 86.75"
/>
<path stroke="#f3ddb3" vector-effect="non-scaling-stroke" d="
  M 32.99 52.12
  Q 33.01 52.12 33.04 52.11
  A 0.11 0.10 -70.8 0 0 33.11 52.07
  Q 40.89 43.73 44.61 34.20
  C 48.10 25.25 42.73 15.77 33.00 15.77
  C 23.27 15.77 17.90 25.24 21.38 34.20
  Q 25.09 43.73 32.87 52.07
  A 0.11 0.10 70.9 0 0 32.94 52.11
  Q 32.97 52.12 32.99 52.12"
/>
<path stroke="#f3ddb3" vector-effect="non-scaling-stroke" d="
  M 37.56 28.50
  A 4.56 4.56 0.0 0 0 33.00 23.94
  A 4.56 4.56 0.0 0 0 28.44 28.50
  A 4.56 4.56 0.0 0 0 33.00 33.06
  A 4.56 4.56 0.0 0 0 37.56 28.50"
/>
</g>
<path fill="#755c30" d="
  M 33.81 88.00
  L 32.98 88.00
  C 16.76 73.09 -6.22 44.41 3.96 20.66
  Q 7.65 12.07 15.65 6.66
  C 23.87 1.10 35.72 -0.45 45.26 3.54
  Q 61.30 10.26 64.87 26.77
  C 67.57 39.30 61.47 53.86 54.15 64.60
  Q 45.39 77.44 33.81 88.00
  Z
  M 33.38 86.75
  Q 33.50 86.75 33.64 86.62
  Q 47.44 73.84 56.60 58.33
  C 64.12 45.59 68.33 28.23 58.66 15.31
  C 52.69 7.33 43.76 2.48 33.56 2.46
  C 23.35 2.44 14.41 7.25 8.40 15.21
  C -1.32 28.08 2.82 45.46 10.28 58.23
  Q 19.38 73.78 33.12 86.62
  Q 33.26 86.75 33.38 86.75
  Z"
/>
<path fill="#e7bb66" d="
  M 33.56 2.46
  C 43.76 2.48 52.69 7.33 58.66 15.31
  C 68.33 28.23 64.12 45.59 56.60 58.33
  Q 47.44 73.84 33.64 86.62
  Q 33.50 86.75 33.38 86.75
  Q 33.26 86.75 33.12 86.62
  Q 19.38 73.78 10.28 58.23
  C 2.82 45.46 -1.32 28.08 8.40 15.21
  C 14.41 7.25 23.35 2.44 33.56 2.46
  Z
  M 32.99 52.12
  Q 33.01 52.12 33.04 52.11
  A 0.11 0.10 -70.8 0 0 33.11 52.07
  Q 40.89 43.73 44.61 34.20
  C 48.10 25.25 42.73 15.77 33.00 15.77
  C 23.27 15.77 17.90 25.24 21.38 34.20
  Q 25.09 43.73 32.87 52.07
  A 0.11 0.10 70.9 0 0 32.94 52.11
  Q 32.97 52.12 32.99 52.12
  Z"
/>
<path fill="#ffffff" d="
  M 33.00 15.77
  C 42.73 15.77 48.10 25.25 44.61 34.20
  Q 40.89 43.73 33.11 52.07
  A 0.11 0.10 -70.8 0 1 33.04 52.11
  Q 33.01 52.12 32.99 52.12
  Q 32.97 52.12 32.94 52.11
  A 0.11 0.10 70.9 0 1 32.87 52.07
  Q 25.09 43.73 21.38 34.20
  C 17.90 25.24 23.27 15.77 33.00 15.77
  Z
  M 37.56 28.50
  A 4.56 4.56 0.0 0 0 33.00 23.94
  A 4.56 4.56 0.0 0 0 28.44 28.50
  A 4.56 4.56 0.0 0 0 33.00 33.06
  A 4.56 4.56 0.0 0 0 37.56 28.50
  Z"
/>
<circle fill="#e7bb66" cx="33.00" cy="28.50" r="4.56"/>
</svg>
