<?xml version="1.0" encoding="UTF-8" standalone="no"?>
<!DOCTYPE svg PUBLIC "-//W3C//DTD SVG 1.1//EN" "http://www.w3.org/Graphics/SVG/1.1/DTD/svg11.dtd">
<svg xmlns="http://www.w3.org/2000/svg" version="1.1" viewBox="0.00 0.00 66.00 88.00">
<g stroke-width="2.00" fill="none" stroke-linecap="butt">
<path stroke="#2b4b58" vector-effect="non-scaling-stroke" d="
  M 33.42 86.66
  C 34.15 86.66 33.49 86.73 33.68 86.56
  Q 44.97 76.15 53.56 63.29
  C 60.14 53.44 65.55 40.73 64.06 29.26
  Q 62.11 14.17 48.25 6.24
  Q 41.71 2.50 33.52 2.49
  Q 25.33 2.48 18.78 6.21
  Q 4.90 14.10 2.92 29.19
  C 1.40 40.65 6.78 53.38 13.34 63.24
  Q 21.90 76.12 33.16 86.56
  C 33.35 86.73 32.69 86.66 33.42 86.66"
/>
<path stroke="#9db1ba" vector-effect="non-scaling-stroke" d="
  M 37.99 40.96
  C 33.40 42.36 31.07 38.19 33.88 35.07
  Q 37.90 30.60 38.71 29.48
  C 43.36 23.09 40.23 15.27 31.71 15.75
  Q 27.98 15.95 25.76 17.09
  A 0.93 0.92 -13.8 0 0 25.26 17.91
  L 25.26 22.46
  A 0.36 0.36 0.0 0 0 25.88 22.71
  Q 29.37 19.18 33.05 21.19
  Q 35.78 22.68 34.68 26.08
  A 3.07 2.87 76.0 0 1 34.15 27.03
  C 32.46 29.05 28.85 31.56 28.00 34.50
  Q 26.49 39.71 30.01 42.16
  Q 34.59 45.36 38.27 41.40
  A 0.27 0.27 0.0 0 0 37.99 40.96"
/>
<path stroke="#9db1ba" vector-effect="non-scaling-stroke" d="
  M 35.87 49.52
  A 2.78 2.78 0.0 0 0 33.09 46.74
  A 2.78 2.78 0.0 0 0 30.31 49.52
  A 2.78 2.78 0.0 0 0 33.09 52.30
  A 2.78 2.78 0.0 0 0 35.87 49.52"
/>
</g>
<path fill="#1b333c" d="
  M 33.81 88.00
  L 33.04 88.00
  C 21.72 77.72 12.18 65.74 5.68 51.55
  Q 2.14 43.84 1.58 34.90
  C 0.56 18.80 11.12 5.85 26.72 2.01
  Q 32.02 0.70 38.96 1.80
  C 51.91 3.87 62.20 13.92 64.83 26.52
  C 69.51 48.86 49.22 73.94 33.81 88.00
  Z
  M 33.42 86.66
  C 34.15 86.66 33.49 86.73 33.68 86.56
  Q 44.97 76.15 53.56 63.29
  C 60.14 53.44 65.55 40.73 64.06 29.26
  Q 62.11 14.17 48.25 6.24
  Q 41.71 2.50 33.52 2.49
  Q 25.33 2.48 18.78 6.21
  Q 4.90 14.10 2.92 29.19
  C 1.40 40.65 6.78 53.38 13.34 63.24
  Q 21.90 76.12 33.16 86.56
  C 33.35 86.73 32.69 86.66 33.42 86.66
  Z"
/>
<path fill="#3a6374" d="
  M 33.52 2.49
  Q 41.71 2.50 48.25 6.24
  Q 62.11 14.17 64.06 29.26
  C 65.55 40.73 60.14 53.44 53.56 63.29
  Q 44.97 76.15 33.68 86.56
  C 33.49 86.73 34.15 86.66 33.42 86.66
  C 32.69 86.66 33.35 86.73 33.16 86.56
  Q 21.90 76.12 13.34 63.24
  C 6.78 53.38 1.40 40.65 2.92 29.19
  Q 4.90 14.10 18.78 6.21
  Q 25.33 2.48 33.52 2.49
  Z
  M 37.99 40.96
  C 33.40 42.36 31.07 38.19 33.88 35.07
  Q 37.90 30.60 38.71 29.48
  C 43.36 23.09 40.23 15.27 31.71 15.75
  Q 27.98 15.95 25.76 17.09
  A 0.93 0.92 -13.8 0 0 25.26 17.91
  L 25.26 22.46
  A 0.36 0.36 0.0 0 0 25.88 22.71
  Q 29.37 19.18 33.05 21.19
  Q 35.78 22.68 34.68 26.08
  A 3.07 2.87 76.0 0 1 34.15 27.03
  C 32.46 29.05 28.85 31.56 28.00 34.50
  Q 26.49 39.71 30.01 42.16
  Q 34.59 45.36 38.27 41.40
  A 0.27 0.27 0.0 0 0 37.99 40.96
  Z
  M 35.87 49.52
  A 2.78 2.78 0.0 0 0 33.09 46.74
  A 2.78 2.78 0.0 0 0 30.31 49.52
  A 2.78 2.78 0.0 0 0 33.09 52.30
  A 2.78 2.78 0.0 0 0 35.87 49.52
  Z"
/>
<path fill="#ffffff" d="
  M 38.27 41.40
  Q 34.59 45.36 30.01 42.16
  Q 26.49 39.71 28.00 34.50
  C 28.85 31.56 32.46 29.05 34.15 27.03
  A 3.07 2.87 76.0 0 0 34.68 26.08
  Q 35.78 22.68 33.05 21.19
  Q 29.37 19.18 25.88 22.71
  A 0.36 0.36 0.0 0 1 25.26 22.46
  L 25.26 17.91
  A 0.93 0.92 -13.8 0 1 25.76 17.09
  Q 27.98 15.95 31.71 15.75
  C 40.23 15.27 43.36 23.09 38.71 29.48
  Q 37.90 30.60 33.88 35.07
  C 31.07 38.19 33.40 42.36 37.99 40.96
  A 0.27 0.27 0.0 0 1 38.27 41.40
  Z"
/>
<circle fill="#ffffff" cx="33.09" cy="49.52" r="2.78"/>
</svg>
