<?xml version="1.0" encoding="UTF-8" standalone="no"?>
<!DOCTYPE svg PUBLIC "-//W3C//DTD SVG 1.1//EN" "http://www.w3.org/Graphics/SVG/1.1/DTD/svg11.dtd">
<svg xmlns="http://www.w3.org/2000/svg" version="1.1" viewBox="0.00 0.00 66.00 88.00">
<g stroke-width="2.00" fill="none" stroke-linecap="butt">
<path stroke="#3f2d4a" vector-effect="non-scaling-stroke" d="
  M 33.43 86.55
  C 33.51 86.55 33.73 86.53 33.81 86.46
  Q 45.25 75.75 53.54 63.32
  C 64.55 46.81 71.05 23.81 52.66 9.15
  Q 45.08 3.11 34.50 2.50
  Q 33.76 2.46 33.49 2.46
  Q 33.23 2.46 32.48 2.50
  Q 21.90 3.09 14.32 9.12
  C -4.09 23.76 2.37 46.77 13.36 63.29
  Q 21.63 75.73 33.06 86.46
  C 33.13 86.53 33.36 86.55 33.43 86.55"
/>
<path stroke="#a99db0" vector-effect="non-scaling-stroke" d="
  M 23.85 22.47
  L 23.42 23.22
  A 0.32 0.32 0.0 0 1 22.85 23.20
  Q 20.37 18.09 15.24 19.10
  A 0.24 0.24 0.0 0 0 15.16 19.54
  Q 19.29 22.08 21.74 26.66
  A 0.33 0.33 0.0 0 1 21.37 27.13
  Q 20.93 27.01 20.74 27.07
  A 0.40 0.40 0.0 0 0 20.64 27.77
  C 23.23 29.71 26.20 33.22 29.75 32.53
  A 0.35 0.34 -21.1 0 0 29.98 32.02
  L 24.47 22.47
  A 0.36 0.36 0.0 0 0 23.85 22.47"
/>
<path stroke="#a99db0" vector-effect="non-scaling-stroke" d="
  M 48.60 24.24
  Q 41.17 22.54 32.92 22.78
  A 1.89 1.85 24.4 0 0 31.82 23.18
  Q 30.88 23.92 29.93 25.40
  A 1.18 1.17 -46.6 0 0 29.96 26.73
  L 34.55 33.01
  A 0.36 0.36 0.0 0 1 34.45 33.53
  Q 29.62 36.59 25.33 34.81
  A 0.72 0.72 0.0 0 0 24.43 35.12
  L 23.24 37.17
  A 0.29 0.29 0.0 0 0 23.43 37.60
  Q 33.00 39.70 35.30 40.28
  C 38.65 41.13 39.46 45.36 35.92 46.93
  Q 34.10 47.74 32.86 47.13
  A 1.48 1.48 0.0 0 1 33.65 44.32
  L 34.66 44.41
  A 0.59 0.59 0.0 0 0 35.07 43.36
  Q 34.61 43.01 34.28 42.95
  Q 29.26 41.96 18.83 39.31
  A 2.23 2.22 22.1 0 0 16.35 40.35
  L 16.06 40.85
  A 2.01 2.01 0.0 0 0 17.20 43.77
  Q 30.55 48.00 34.41 48.86
  C 37.10 49.46 39.14 45.54 39.87 43.59
  C 42.76 35.85 44.23 29.55 48.75 24.74
  A 0.30 0.30 0.0 0 0 48.60 24.24"
/>
<path stroke="#a99db0" vector-effect="non-scaling-stroke" d="
  M 50.68 25.44
  L 47.18 29.21
  A 0.11 0.11 0.0 0 0 47.19 29.36
  L 47.21 29.38
  A 2.49 1.88 -47.1 0 0 50.28 28.84
  L 50.54 28.56
  A 2.49 1.88 -47.1 0 0 50.86 25.45
  L 50.84 25.43
  A 0.11 0.11 0.0 0 0 50.68 25.44"
/>
</g>
<path fill="#2a1e32" d="
  M 33.79 88.00
  L 33.13 88.00
  Q 15.42 72.27 5.96 52.53
  Q 3.46 47.31 2.05 39.24
  C 0.18 28.62 3.07 18.38 10.74 10.69
  C 26.34 -4.94 53.15 -0.45 62.68 19.91
  C 66.92 28.95 65.92 39.91 62.33 49.05
  C 56.52 63.86 45.52 77.37 33.79 88.00
  Z
  M 33.43 86.55
  C 33.51 86.55 33.73 86.53 33.81 86.46
  Q 45.25 75.75 53.54 63.32
  C 64.55 46.81 71.05 23.81 52.66 9.15
  Q 45.08 3.11 34.50 2.50
  Q 33.76 2.46 33.49 2.46
  Q 33.23 2.46 32.48 2.50
  Q 21.90 3.09 14.32 9.12
  C -4.09 23.76 2.37 46.77 13.36 63.29
  Q 21.63 75.73 33.06 86.46
  C 33.13 86.53 33.36 86.55 33.43 86.55
  Z"
/>
<path fill="#533b61" d="
  M 33.49 2.46
  Q 33.76 2.46 34.50 2.50
  Q 45.08 3.11 52.66 9.15
  C 71.05 23.81 64.55 46.81 53.54 63.32
  Q 45.25 75.75 33.81 86.46
  C 33.73 86.53 33.51 86.55 33.43 86.55
  C 33.36 86.55 33.13 86.53 33.06 86.46
  Q 21.63 75.73 13.36 63.29
  C 2.37 46.77 -4.09 23.76 14.32 9.12
  Q 21.90 3.09 32.48 2.50
  Q 33.23 2.46 33.49 2.46
  Z
  M 23.85 22.47
  L 23.42 23.22
  A 0.32 0.32 0.0 0 1 22.85 23.20
  Q 20.37 18.09 15.24 19.10
  A 0.24 0.24 0.0 0 0 15.16 19.54
  Q 19.29 22.08 21.74 26.66
  A 0.33 0.33 0.0 0 1 21.37 27.13
  Q 20.93 27.01 20.74 27.07
  A 0.40 0.40 0.0 0 0 20.64 27.77
  C 23.23 29.71 26.20 33.22 29.75 32.53
  A 0.35 0.34 -21.1 0 0 29.98 32.02
  L 24.47 22.47
  A 0.36 0.36 0.0 0 0 23.85 22.47
  Z
  M 48.60 24.24
  Q 41.17 22.54 32.92 22.78
  A 1.89 1.85 24.4 0 0 31.82 23.18
  Q 30.88 23.92 29.93 25.40
  A 1.18 1.17 -46.6 0 0 29.96 26.73
  L 34.55 33.01
  A 0.36 0.36 0.0 0 1 34.45 33.53
  Q 29.62 36.59 25.33 34.81
  A 0.72 0.72 0.0 0 0 24.43 35.12
  L 23.24 37.17
  A 0.29 0.29 0.0 0 0 23.43 37.60
  Q 33.00 39.70 35.30 40.28
  C 38.65 41.13 39.46 45.36 35.92 46.93
  Q 34.10 47.74 32.86 47.13
  A 1.48 1.48 0.0 0 1 33.65 44.32
  L 34.66 44.41
  A 0.59 0.59 0.0 0 0 35.07 43.36
  Q 34.61 43.01 34.28 42.95
  Q 29.26 41.96 18.83 39.31
  A 2.23 2.22 22.1 0 0 16.35 40.35
  L 16.06 40.85
  A 2.01 2.01 0.0 0 0 17.20 43.77
  Q 30.55 48.00 34.41 48.86
  C 37.10 49.46 39.14 45.54 39.87 43.59
  C 42.76 35.85 44.23 29.55 48.75 24.74
  A 0.30 0.30 0.0 0 0 48.60 24.24
  Z
  M 50.68 25.44
  L 47.18 29.21
  A 0.11 0.11 0.0 0 0 47.19 29.36
  L 47.21 29.38
  A 2.49 1.88 -47.1 0 0 50.28 28.84
  L 50.54 28.56
  A 2.49 1.88 -47.1 0 0 50.86 25.45
  L 50.84 25.43
  A 0.11 0.11 0.0 0 0 50.68 25.44
  Z"
/>
<path fill="#ffffff" d="
  M 23.85 22.47
  A 0.36 0.36 0.0 0 1 24.47 22.47
  L 29.98 32.02
  A 0.35 0.34 -21.1 0 1 29.75 32.53
  C 26.20 33.22 23.23 29.71 20.64 27.77
  A 0.40 0.40 0.0 0 1 20.74 27.07
  Q 20.93 27.01 21.37 27.13
  A 0.33 0.33 0.0 0 0 21.74 26.66
  Q 19.29 22.08 15.16 19.54
  A 0.24 0.24 0.0 0 1 15.24 19.10
  Q 20.37 18.09 22.85 23.20
  A 0.32 0.32 0.0 0 0 23.42 23.22
  L 23.85 22.47
  Z"
/>
<path fill="#ffffff" d="
  M 48.60 24.24
  A 0.30 0.30 0.0 0 1 48.75 24.74
  C 44.23 29.55 42.76 35.85 39.87 43.59
  C 39.14 45.54 37.10 49.46 34.41 48.86
  Q 30.55 48.00 17.20 43.77
  A 2.01 2.01 0.0 0 1 16.06 40.85
  L 16.35 40.35
  A 2.23 2.22 22.1 0 1 18.83 39.31
  Q 29.26 41.96 34.28 42.95
  Q 34.61 43.01 35.07 43.36
  A 0.59 0.59 0.0 0 1 34.66 44.41
  L 33.65 44.32
  A 1.48 1.48 0.0 0 0 32.86 47.13
  Q 34.10 47.74 35.92 46.93
  C 39.46 45.36 38.65 41.13 35.30 40.28
  Q 33.00 39.70 23.43 37.60
  A 0.29 0.29 0.0 0 1 23.24 37.17
  L 24.43 35.12
  A 0.72 0.72 0.0 0 1 25.33 34.81
  Q 29.62 36.59 34.45 33.53
  A 0.36 0.36 0.0 0 0 34.55 33.01
  L 29.96 26.73
  A 1.18 1.17 -46.6 0 1 29.93 25.40
  Q 30.88 23.92 31.82 23.18
  A 1.89 1.85 24.4 0 1 32.92 22.78
  Q 41.17 22.54 48.60 24.24
  Z"
/>
<path fill="#ffffff" d="
  M 50.68 25.44
  A 0.11 0.11 0.0 0 1 50.84 25.43
  L 50.86 25.45
  A 2.49 1.88 -47.1 0 1 50.54 28.56
  L 50.28 28.84
  A 2.49 1.88 -47.1 0 1 47.21 29.38
  L 47.19 29.36
  A 0.11 0.11 0.0 0 1 47.18 29.21
  L 50.68 25.44
  Z"
/>
</svg>
