<?xml version="1.0" encoding="UTF-8" standalone="no"?>
<!DOCTYPE svg PUBLIC "-//W3C//DTD SVG 1.1//EN" "http://www.w3.org/Graphics/SVG/1.1/DTD/svg11.dtd">
<svg xmlns="http://www.w3.org/2000/svg" version="1.1" viewBox="0.00 0.00 66.00 88.00">
<g stroke-width="2.00" fill="none" stroke-linecap="butt">
<path stroke="#1e4056" vector-effect="non-scaling-stroke" d="
  M 33.42 86.62
  C 34.15 86.62 33.57 86.67 33.78 86.48
  Q 48.88 72.35 57.73 56.26
  C 65.36 42.39 68.02 24.83 56.03 12.23
  C 50.09 6.00 42.21 2.54 33.51 2.53
  C 24.81 2.52 16.91 5.96 10.97 12.19
  C -1.05 24.76 1.57 42.32 9.17 56.21
  Q 17.99 72.32 33.06 86.48
  C 33.27 86.67 32.69 86.61 33.42 86.62"
/>
<path stroke="#658599" vector-effect="non-scaling-stroke" d="
  M 28.09 34.80
  Q 27.42 35.09 26.96 35.56
  A 0.64 0.64 0.0 0 0 26.97 36.46
  L 29.00 38.49
  A 0.64 0.63 35.8 0 0 30.01 38.33
  L 30.53 37.29"
/>
<path stroke="#94aab8" vector-effect="non-scaling-stroke" d="
  M 30.53 37.29
  L 47.87 19.98
  A 0.28 0.28 0.0 0 0 47.87 19.59
  L 45.77 17.49
  A 0.28 0.28 0.0 0 0 45.38 17.49
  L 28.09 34.80"
/>
<path stroke="#d0dae0" vector-effect="non-scaling-stroke" d="
  M 30.53 37.29
  L 28.09 34.80"
/>
<path stroke="#94aab8" vector-effect="non-scaling-stroke" d="
  M 43.76 25.07
  Q 41.32 27.54 41.02 27.93
  A 0.55 0.55 0.0 0 0 41.57 28.80
  Q 43.07 28.49 43.98 29.40
  Q 44.90 30.31 44.60 31.81
  A 0.55 0.55 0.0 0 0 45.48 32.35
  Q 45.86 32.04 48.31 29.58
  Q 50.75 27.11 51.05 26.72
  A 0.55 0.55 0.0 0 0 50.50 25.85
  Q 49.01 26.16 48.09 25.25
  Q 47.18 24.34 47.47 22.84
  A 0.55 0.55 0.0 0 0 46.59 22.30
  Q 46.21 22.60 43.76 25.07"
/>
<path stroke="#94aab8" vector-effect="non-scaling-stroke" d="
  M 16.71 48.67
  Q 16.93 48.89 17.20 49.06
  Q 17.54 49.27 19.87 50.00
  C 23.13 51.03 26.90 51.45 28.37 47.46
  Q 29.16 45.29 27.37 41.78
  A 0.90 0.89 -40.5 0 1 27.45 40.84
  Q 28.87 38.94 27.68 37.74
  Q 26.49 36.55 24.58 37.96
  A 0.90 0.89 -49.2 0 1 23.64 38.04
  Q 20.14 36.23 17.97 37.01
  C 13.97 38.47 14.38 42.24 15.39 45.50
  Q 16.11 47.84 16.32 48.18
  Q 16.49 48.45 16.71 48.67"
/>
<path stroke="#94aab8" vector-effect="non-scaling-stroke" d="
  M 44.6358 25.9306
  A 1.94 1.41 -135.1 0 0 45.0147 28.2988
  A 1.94 1.41 -135.1 0 0 47.3842 28.6694
  A 1.94 1.41 -135.1 0 0 47.0053 26.3012
  A 1.94 1.41 -135.1 0 0 44.6358 25.9306"
/>
<path stroke="#94aab8" vector-effect="non-scaling-stroke" d="
  M 19.54 45.82
  Q 19.59 45.86 19.61 45.91
  Q 21.40 49.75 25.35 48.69
  Q 26.53 48.37 26.87 47.40
  C 27.87 44.54 24.56 43.82 23.08 42.32
  C 21.60 40.83 20.91 37.50 18.04 38.48
  Q 17.07 38.80 16.74 39.98
  Q 15.63 43.92 19.45 45.75
  Q 19.50 45.77 19.54 45.82"
/>
</g>
<path fill="#132c3a" d="
  M 33.80 88.00
  L 33.04 88.00
  C 21.72 77.71 12.19 65.74 5.68 51.55
  Q 2.13 43.81 1.57 34.90
  C 0.57 18.85 11.15 5.79 26.65 2.03
  Q 34.35 0.17 43.19 2.83
  Q 51.38 5.29 57.11 11.60
  Q 68.31 23.97 64.56 41.21
  Q 61.81 53.84 53.58 65.57
  Q 44.99 77.81 33.80 88.00
  Z
  M 33.42 86.62
  C 34.15 86.62 33.57 86.67 33.78 86.48
  Q 48.88 72.35 57.73 56.26
  C 65.36 42.39 68.02 24.83 56.03 12.23
  C 50.09 6.00 42.21 2.54 33.51 2.53
  C 24.81 2.52 16.91 5.96 10.97 12.19
  C -1.05 24.76 1.57 42.32 9.17 56.21
  Q 17.99 72.32 33.06 86.48
  C 33.27 86.67 32.69 86.61 33.42 86.62
  Z"
/>
<path fill="#285471" d="
  M 33.51 2.53
  C 42.21 2.54 50.09 6.00 56.03 12.23
  C 68.02 24.83 65.36 42.39 57.73 56.26
  Q 48.88 72.35 33.78 86.48
  C 33.57 86.67 34.15 86.62 33.42 86.62
  C 32.69 86.61 33.27 86.67 33.06 86.48
  Q 17.99 72.32 9.17 56.21
  C 1.57 42.32 -1.05 24.76 10.97 12.19
  C 16.91 5.96 24.81 2.52 33.51 2.53
  Z
  M 28.09 34.80
  Q 27.42 35.09 26.96 35.56
  A 0.64 0.64 0.0 0 0 26.97 36.46
  L 29.00 38.49
  A 0.64 0.63 35.8 0 0 30.01 38.33
  L 30.53 37.29
  L 47.87 19.98
  A 0.28 0.28 0.0 0 0 47.87 19.59
  L 45.77 17.49
  A 0.28 0.28 0.0 0 0 45.38 17.49
  L 28.09 34.80
  Z
  M 43.76 25.07
  Q 41.32 27.54 41.02 27.93
  A 0.55 0.55 0.0 0 0 41.57 28.80
  Q 43.07 28.49 43.98 29.40
  Q 44.90 30.31 44.60 31.81
  A 0.55 0.55 0.0 0 0 45.48 32.35
  Q 45.86 32.04 48.31 29.58
  Q 50.75 27.11 51.05 26.72
  A 0.55 0.55 0.0 0 0 50.50 25.85
  Q 49.01 26.16 48.09 25.25
  Q 47.18 24.34 47.47 22.84
  A 0.55 0.55 0.0 0 0 46.59 22.30
  Q 46.21 22.60 43.76 25.07
  Z
  M 16.71 48.67
  Q 16.93 48.89 17.20 49.06
  Q 17.54 49.27 19.87 50.00
  C 23.13 51.03 26.90 51.45 28.37 47.46
  Q 29.16 45.29 27.37 41.78
  A 0.90 0.89 -40.5 0 1 27.45 40.84
  Q 28.87 38.94 27.68 37.74
  Q 26.49 36.55 24.58 37.96
  A 0.90 0.89 -49.2 0 1 23.64 38.04
  Q 20.14 36.23 17.97 37.01
  C 13.97 38.47 14.38 42.24 15.39 45.50
  Q 16.11 47.84 16.32 48.18
  Q 16.49 48.45 16.71 48.67
  Z"
/>
<path fill="#ffffff" d="
  M 30.53 37.29
  L 28.09 34.80
  L 45.38 17.49
  A 0.28 0.28 0.0 0 1 45.77 17.49
  L 47.87 19.59
  A 0.28 0.28 0.0 0 1 47.87 19.98
  L 30.53 37.29
  Z"
/>
<path fill="#ffffff" d="
  M 48.09 25.25
  Q 49.01 26.16 50.50 25.85
  A 0.55 0.55 0.0 0 1 51.05 26.72
  Q 50.75 27.11 48.31 29.58
  Q 45.86 32.04 45.48 32.35
  A 0.55 0.55 0.0 0 1 44.60 31.81
  Q 44.90 30.31 43.98 29.40
  Q 43.07 28.49 41.57 28.80
  A 0.55 0.55 0.0 0 1 41.02 27.93
  Q 41.32 27.54 43.76 25.07
  Q 46.21 22.60 46.59 22.30
  A 0.55 0.55 0.0 0 1 47.47 22.84
  Q 47.18 24.34 48.09 25.25
  Z
  M 44.6358 25.9306
  A 1.94 1.41 -135.1 0 0 45.0147 28.2988
  A 1.94 1.41 -135.1 0 0 47.3842 28.6694
  A 1.94 1.41 -135.1 0 0 47.0053 26.3012
  A 1.94 1.41 -135.1 0 0 44.6358 25.9306
  Z"
/>
<ellipse fill="#285471" cx="0.00" cy="0.00" transform="translate(46.01,27.30) rotate(-135.1)" rx="1.94" ry="1.41"/>
<path fill="#a1b5c1" d="
  M 28.09 34.80
  L 30.53 37.29
  L 30.01 38.33
  A 0.64 0.63 35.8 0 1 29.00 38.49
  L 26.97 36.46
  A 0.64 0.64 0.0 0 1 26.96 35.56
  Q 27.42 35.09 28.09 34.80
  Z"
/>
<path fill="#ffffff" d="
  M 27.68 37.74
  Q 28.87 38.94 27.45 40.84
  A 0.90 0.89 -40.5 0 0 27.37 41.78
  Q 29.16 45.29 28.37 47.46
  C 26.90 51.45 23.13 51.03 19.87 50.00
  Q 17.54 49.27 17.20 49.06
  Q 16.93 48.89 16.71 48.67
  Q 16.49 48.45 16.32 48.18
  Q 16.11 47.84 15.39 45.50
  C 14.38 42.24 13.97 38.47 17.97 37.01
  Q 20.14 36.23 23.64 38.04
  A 0.90 0.89 -49.2 0 0 24.58 37.96
  Q 26.49 36.55 27.68 37.74
  Z
  M 19.54 45.82
  Q 19.59 45.86 19.61 45.91
  Q 21.40 49.75 25.35 48.69
  Q 26.53 48.37 26.87 47.40
  C 27.87 44.54 24.56 43.82 23.08 42.32
  C 21.60 40.83 20.91 37.50 18.04 38.48
  Q 17.07 38.80 16.74 39.98
  Q 15.63 43.92 19.45 45.75
  Q 19.50 45.77 19.54 45.82
  Z"
/>
<path fill="#285471" d="
  M 23.08 42.32
  C 24.56 43.82 27.87 44.54 26.87 47.40
  Q 26.53 48.37 25.35 48.69
  Q 21.40 49.75 19.61 45.91
  Q 19.59 45.86 19.54 45.82
  Q 19.50 45.77 19.45 45.75
  Q 15.63 43.92 16.74 39.98
  Q 17.07 38.80 18.04 38.48
  C 20.91 37.50 21.60 40.83 23.08 42.32
  Z"
/>
</svg>
