<?xml version="1.0" encoding="UTF-8" standalone="no"?>
<!DOCTYPE svg PUBLIC "-//W3C//DTD SVG 1.1//EN" "http://www.w3.org/Graphics/SVG/1.1/DTD/svg11.dtd">
<svg xmlns="http://www.w3.org/2000/svg" version="1.1" viewBox="0.00 0.00 66.00 88.00">
<g stroke-width="2.00" fill="none" stroke-linecap="butt">
<path stroke="#1b292f" vector-effect="non-scaling-stroke" d="
  M 33.42 86.52
  Q 33.59 86.52 33.68 86.44
  C 48.41 73.03 66.81 49.67 63.96 28.58
  Q 63.48 25.04 62.79 23.29
  Q 55.19 4.17 34.51 2.46
  Q 34.33 2.45 33.48 2.45
  Q 32.62 2.45 32.44 2.46
  Q 11.76 4.14 4.14 23.25
  Q 3.44 25.00 2.96 28.54
  C 0.08 49.63 18.45 73.01 33.17 86.44
  Q 33.26 86.52 33.42 86.52"
/>
<path stroke="#919a9e" vector-effect="non-scaling-stroke" d="
  M 40.62 30.88
  C 40.22 20.51 26.81 22.74 26.26 14.72
  A 0.24 0.24 0.0 0 0 25.79 14.68
  Q 24.03 22.34 30.87 23.84
  A 0.58 0.57 -49.3 0 1 30.95 24.94
  Q 30.53 25.10 30.45 25.26
  A 0.39 0.39 0.0 0 0 30.82 25.82
  Q 38.18 25.43 40.25 30.95
  A 0.19 0.19 0.0 0 0 40.62 30.88"
/>
<path stroke="#919a9e" vector-effect="non-scaling-stroke" d="
  M 40.13 25.48
  Q 38.65 19.17 32.66 16.89
  A 0.40 0.40 0.0 0 0 32.23 17.54
  Q 32.91 18.26 32.71 18.66
  A 0.62 0.62 0.0 0 1 31.83 18.90
  Q 31.23 18.52 30.73 18.44
  A 0.31 0.31 0.0 0 0 30.44 18.94
  Q 31.02 19.68 31.45 19.84
  Q 36.83 21.78 39.93 25.58
  A 0.11 0.11 0.0 0 0 40.13 25.48"
/>
<path stroke="#919a9e" vector-effect="non-scaling-stroke" d="
  M 37.42 31.29
  L 35.87 29.27
  A 0.23 0.23 0.0 0 0 35.46 29.46
  Q 36.31 33.21 34.70 37.00
  A 0.30 0.30 0.0 0 1 34.13 36.90
  Q 34.07 35.96 34.37 34.81
  A 0.35 0.35 0.0 0 0 33.72 34.55
  L 33.18 35.54
  A 1.72 1.69 -89.1 0 1 32.47 36.24
  Q 29.44 37.82 28.56 40.77
  A 0.36 0.36 0.0 0 1 27.86 40.64
  Q 27.94 39.50 27.62 38.79
  A 0.13 0.13 0.0 0 0 27.37 38.85
  L 27.37 43.47
  A 0.51 0.51 0.0 0 0 28.19 43.88
  Q 33.02 40.10 34.45 39.11
  C 38.80 36.10 41.53 33.00 37.62 28.33
  A 0.31 0.31 0.0 0 0 37.10 28.65
  Q 37.50 29.59 37.53 31.25
  A 0.06 0.06 0.0 0 1 37.42 31.29"
/>
<path stroke="#919a9e" vector-effect="non-scaling-stroke" d="
  M 37.22 39.26
  Q 39.16 37.49 39.77 36.13
  A 0.17 0.17 0.0 0 0 39.49 35.95
  Q 36.55 39.07 31.53 42.49
  C 27.53 45.22 25.31 48.25 26.63 53.28
  A 0.14 0.12 88.5 0 0 26.71 53.37
  L 27.41 53.68
  A 0.37 0.37 0.0 0 0 27.91 53.25
  C 27.33 51.02 26.54 48.93 28.03 47.05
  A 0.94 0.93 26.0 0 1 28.98 46.73
  C 30.97 47.23 32.43 48.16 34.29 46.64
  A 0.34 0.34 0.0 0 0 34.08 46.04
  L 31.88 46.04
  A 0.37 0.36 -52.3 0 1 31.79 45.32
  L 33.19 44.94
  A 1.29 1.29 0.0 0 0 33.71 44.68
  L 39.12 40.50
  A 0.43 0.42 -35.8 0 0 39.22 39.91
  Q 39.20 39.89 37.54 40.01
  A 0.43 0.43 0.0 0 1 37.22 39.26"
/>
</g>
<path fill="#121c20" d="
  M 33.80 88.00
  L 33.04 88.00
  C 21.76 77.75 12.12 65.67 5.64 51.56
  Q 2.20 44.05 1.59 34.89
  C 0.57 19.52 10.64 6.29 25.26 2.42
  C 40.65 -1.67 56.28 5.82 62.98 20.58
  C 66.63 28.61 65.92 38.74 63.06 47.02
  C 57.66 62.62 45.90 77.00 33.80 88.00
  Z
  M 33.42 86.52
  Q 33.59 86.52 33.68 86.44
  C 48.41 73.03 66.81 49.67 63.96 28.58
  Q 63.48 25.04 62.79 23.29
  Q 55.19 4.17 34.51 2.46
  Q 34.33 2.45 33.48 2.45
  Q 32.62 2.45 32.44 2.46
  Q 11.76 4.14 4.14 23.25
  Q 3.44 25.00 2.96 28.54
  C 0.08 49.63 18.45 73.01 33.17 86.44
  Q 33.26 86.52 33.42 86.52
  Z"
/>
<path fill="#23353d" d="
  M 33.48 2.45
  Q 34.33 2.45 34.51 2.46
  Q 55.19 4.17 62.79 23.29
  Q 63.48 25.04 63.96 28.58
  C 66.81 49.67 48.41 73.03 33.68 86.44
  Q 33.59 86.52 33.42 86.52
  Q 33.26 86.52 33.17 86.44
  C 18.45 73.01 0.08 49.63 2.96 28.54
  Q 3.44 25.00 4.14 23.25
  Q 11.76 4.14 32.44 2.46
  Q 32.62 2.45 33.48 2.45
  Z
  M 40.62 30.88
  C 40.22 20.51 26.81 22.74 26.26 14.72
  A 0.24 0.24 0.0 0 0 25.79 14.68
  Q 24.03 22.34 30.87 23.84
  A 0.58 0.57 -49.3 0 1 30.95 24.94
  Q 30.53 25.10 30.45 25.26
  A 0.39 0.39 0.0 0 0 30.82 25.82
  Q 38.18 25.43 40.25 30.95
  A 0.19 0.19 0.0 0 0 40.62 30.88
  Z
  M 40.13 25.48
  Q 38.65 19.17 32.66 16.89
  A 0.40 0.40 0.0 0 0 32.23 17.54
  Q 32.91 18.26 32.71 18.66
  A 0.62 0.62 0.0 0 1 31.83 18.90
  Q 31.23 18.52 30.73 18.44
  A 0.31 0.31 0.0 0 0 30.44 18.94
  Q 31.02 19.68 31.45 19.84
  Q 36.83 21.78 39.93 25.58
  A 0.11 0.11 0.0 0 0 40.13 25.48
  Z
  M 37.42 31.29
  L 35.87 29.27
  A 0.23 0.23 0.0 0 0 35.46 29.46
  Q 36.31 33.21 34.70 37.00
  A 0.30 0.30 0.0 0 1 34.13 36.90
  Q 34.07 35.96 34.37 34.81
  A 0.35 0.35 0.0 0 0 33.72 34.55
  L 33.18 35.54
  A 1.72 1.69 -89.1 0 1 32.47 36.24
  Q 29.44 37.82 28.56 40.77
  A 0.36 0.36 0.0 0 1 27.86 40.64
  Q 27.94 39.50 27.62 38.79
  A 0.13 0.13 0.0 0 0 27.37 38.85
  L 27.37 43.47
  A 0.51 0.51 0.0 0 0 28.19 43.88
  Q 33.02 40.10 34.45 39.11
  C 38.80 36.10 41.53 33.00 37.62 28.33
  A 0.31 0.31 0.0 0 0 37.10 28.65
  Q 37.50 29.59 37.53 31.25
  A 0.06 0.06 0.0 0 1 37.42 31.29
  Z
  M 37.22 39.26
  Q 39.16 37.49 39.77 36.13
  A 0.17 0.17 0.0 0 0 39.49 35.95
  Q 36.55 39.07 31.53 42.49
  C 27.53 45.22 25.31 48.25 26.63 53.28
  A 0.14 0.12 88.5 0 0 26.71 53.37
  L 27.41 53.68
  A 0.37 0.37 0.0 0 0 27.91 53.25
  C 27.33 51.02 26.54 48.93 28.03 47.05
  A 0.94 0.93 26.0 0 1 28.98 46.73
  C 30.97 47.23 32.43 48.16 34.29 46.64
  A 0.34 0.34 0.0 0 0 34.08 46.04
  L 31.88 46.04
  A 0.37 0.36 -52.3 0 1 31.79 45.32
  L 33.19 44.94
  A 1.29 1.29 0.0 0 0 33.71 44.68
  L 39.12 40.50
  A 0.43 0.42 -35.8 0 0 39.22 39.91
  Q 39.20 39.89 37.54 40.01
  A 0.43 0.43 0.0 0 1 37.22 39.26
  Z"
/>
<path fill="#ffffff" d="
  M 40.25 30.95
  Q 38.18 25.43 30.82 25.82
  A 0.39 0.39 0.0 0 1 30.45 25.26
  Q 30.53 25.10 30.95 24.94
  A 0.58 0.57 -49.3 0 0 30.87 23.84
  Q 24.03 22.34 25.79 14.68
  A 0.24 0.24 0.0 0 1 26.26 14.72
  C 26.81 22.74 40.22 20.51 40.62 30.88
  A 0.19 0.19 0.0 0 1 40.25 30.95
  Z"
/>
<path fill="#ffffff" d="
  M 40.13 25.48
  A 0.11 0.11 0.0 0 1 39.93 25.58
  Q 36.83 21.78 31.45 19.84
  Q 31.02 19.68 30.44 18.94
  A 0.31 0.31 0.0 0 1 30.73 18.44
  Q 31.23 18.52 31.83 18.90
  A 0.62 0.62 0.0 0 0 32.71 18.66
  Q 32.91 18.26 32.23 17.54
  A 0.40 0.40 0.0 0 1 32.66 16.89
  Q 38.65 19.17 40.13 25.48
  Z"
/>
<path fill="#ffffff" d="
  M 37.53 31.25
  Q 37.50 29.59 37.10 28.65
  A 0.31 0.31 0.0 0 1 37.62 28.33
  C 41.53 33.00 38.80 36.10 34.45 39.11
  Q 33.02 40.10 28.19 43.88
  A 0.51 0.51 0.0 0 1 27.37 43.47
  L 27.37 38.85
  A 0.13 0.13 0.0 0 1 27.62 38.79
  Q 27.94 39.50 27.86 40.64
  A 0.36 0.36 0.0 0 0 28.56 40.77
  Q 29.44 37.82 32.47 36.24
  A 1.72 1.69 -89.1 0 0 33.18 35.54
  L 33.72 34.55
  A 0.35 0.35 0.0 0 1 34.37 34.81
  Q 34.07 35.96 34.13 36.90
  A 0.30 0.30 0.0 0 0 34.70 37.00
  Q 36.31 33.21 35.46 29.46
  A 0.23 0.23 0.0 0 1 35.87 29.27
  L 37.42 31.29
  A 0.06 0.06 0.0 0 0 37.53 31.25
  Z"
/>
<path fill="#ffffff" d="
  M 37.54 40.01
  Q 39.20 39.89 39.22 39.91
  A 0.43 0.42 -35.8 0 1 39.12 40.50
  L 33.71 44.68
  A 1.29 1.29 0.0 0 1 33.19 44.94
  L 31.79 45.32
  A 0.37 0.36 -52.3 0 0 31.88 46.04
  L 34.08 46.04
  A 0.34 0.34 0.0 0 1 34.29 46.64
  C 32.43 48.16 30.97 47.23 28.98 46.73
  A 0.94 0.93 26.0 0 0 28.03 47.05
  C 26.54 48.93 27.33 51.02 27.91 53.25
  A 0.37 0.37 0.0 0 1 27.41 53.68
  L 26.71 53.37
  A 0.14 0.12 88.5 0 1 26.63 53.28
  C 25.31 48.25 27.53 45.22 31.53 42.49
  Q 36.55 39.07 39.49 35.95
  A 0.17 0.17 0.0 0 1 39.77 36.13
  Q 39.16 37.49 37.22 39.26
  A 0.43 0.43 0.0 0 0 37.54 40.01
  Z"
/>
</svg>
