<?xml version="1.0" encoding="UTF-8" standalone="no"?>
<!DOCTYPE svg PUBLIC "-//W3C//DTD SVG 1.1//EN" "http://www.w3.org/Graphics/SVG/1.1/DTD/svg11.dtd">
<svg xmlns="http://www.w3.org/2000/svg" version="1.1" viewBox="0.00 0.00 66.00 88.00">
<g stroke-width="2.00" fill="none" stroke-linecap="butt">
<path stroke="#2b4b58" vector-effect="non-scaling-stroke" d="
  M 33.42 86.66
  Q 33.51 86.66 33.58 86.65
  Q 33.59 86.65 33.70 86.55
  Q 44.91 76.18 53.36 63.61
  C 63.68 48.26 70.74 26.56 55.29 11.45
  Q 46.87 3.21 35.00 2.55
  Q 33.67 2.48 33.52 2.48
  Q 33.36 2.48 32.03 2.55
  Q 20.16 3.18 11.72 11.40
  C -3.77 26.47 3.24 48.19 13.53 63.56
  Q 21.95 76.15 33.13 86.55
  Q 33.24 86.65 33.25 86.65
  Q 33.32 86.66 33.42 86.66"
/>
<path stroke="#9db1ba" vector-effect="non-scaling-stroke" d="
  M 33.01 52.24
  Q 42.66 52.24 43.07 52.18
  A 3.21 3.10 -60.9 0 0 43.99 51.90
  Q 46.22 50.85 46.25 47.26
  Q 46.32 38.42 46.16 34.28
  Q 46.06 31.69 43.77 30.42
  A 1.02 1.01 12.0 0 1 43.25 29.63
  Q 42.81 24.33 42.80 24.26
  C 42.26 18.95 38.36 15.73 32.99 15.73
  C 27.62 15.74 23.72 18.96 23.18 24.27
  Q 23.18 24.34 22.74 29.64
  A 1.02 1.01 -12.0 0 1 22.22 30.43
  Q 19.93 31.70 19.84 34.29
  Q 19.68 38.43 19.76 47.27
  Q 19.79 50.86 22.02 51.91
  A 3.21 3.10 60.8 0 0 22.94 52.19
  Q 23.35 52.24 33.01 52.24"
/>
<path stroke="#9db1ba" vector-effect="non-scaling-stroke" d="
  M 27.84 30.00
  L 38.20 29.98
  A 0.82 0.82 0.0 0 0 39.02 29.16
  L 39.01 25.19
  A 5.71 5.57 89.9 0 0 33.43 19.49
  L 32.57 19.49
  A 5.71 5.57 89.9 0 0 27.01 25.21
  L 27.02 29.18
  A 0.82 0.82 0.0 0 0 27.84 30.00"
/>
<path stroke="#9db1ba" vector-effect="non-scaling-stroke" d="
  M 32.99 46.51
  Q 35.34 46.51 35.54 46.48
  A 0.53 0.53 0.0 0 0 35.96 45.76
  L 34.79 42.90
  A 1.20 1.19 -35.2 0 1 35.01 41.67
  C 36.96 39.49 36.29 36.10 32.99 36.10
  C 29.69 36.10 29.03 39.49 30.98 41.67
  A 1.20 1.19 35.2 0 1 31.20 42.90
  L 30.03 45.76
  A 0.53 0.53 0.0 0 0 30.45 46.48
  Q 30.65 46.51 32.99 46.51"
/>
</g>
<path fill="#1b333c" d="
  M 33.80 88.00
  L 33.04 88.00
  C 21.75 77.74 12.13 65.68 5.65 51.56
  Q 2.20 44.05 1.60 34.89
  C 0.55 18.97 11.21 5.66 26.50 2.10
  C 40.96 -1.26 55.89 5.93 62.58 19.69
  C 66.93 28.63 65.94 39.76 62.40 48.86
  C 56.59 63.78 45.58 77.28 33.80 88.00
  Z
  M 33.42 86.66
  Q 33.51 86.66 33.58 86.65
  Q 33.59 86.65 33.70 86.55
  Q 44.91 76.18 53.36 63.61
  C 63.68 48.26 70.74 26.56 55.29 11.45
  Q 46.87 3.21 35.00 2.55
  Q 33.67 2.48 33.52 2.48
  Q 33.36 2.48 32.03 2.55
  Q 20.16 3.18 11.72 11.40
  C -3.77 26.47 3.24 48.19 13.53 63.56
  Q 21.95 76.15 33.13 86.55
  Q 33.24 86.65 33.25 86.65
  Q 33.32 86.66 33.42 86.66
  Z"
/>
<path fill="#3a6374" d="
  M 33.52 2.48
  Q 33.67 2.48 35.00 2.55
  Q 46.87 3.21 55.29 11.45
  C 70.74 26.56 63.68 48.26 53.36 63.61
  Q 44.91 76.18 33.70 86.55
  Q 33.59 86.65 33.58 86.65
  Q 33.51 86.66 33.42 86.66
  Q 33.32 86.66 33.25 86.65
  Q 33.24 86.65 33.13 86.55
  Q 21.95 76.15 13.53 63.56
  C 3.24 48.19 -3.77 26.47 11.72 11.40
  Q 20.16 3.18 32.03 2.55
  Q 33.36 2.48 33.52 2.48
  Z
  M 33.01 52.24
  Q 42.66 52.24 43.07 52.18
  A 3.21 3.10 -60.9 0 0 43.99 51.90
  Q 46.22 50.85 46.25 47.26
  Q 46.32 38.42 46.16 34.28
  Q 46.06 31.69 43.77 30.42
  A 1.02 1.01 12.0 0 1 43.25 29.63
  Q 42.81 24.33 42.80 24.26
  C 42.26 18.95 38.36 15.73 32.99 15.73
  C 27.62 15.74 23.72 18.96 23.18 24.27
  Q 23.18 24.34 22.74 29.64
  A 1.02 1.01 -12.0 0 1 22.22 30.43
  Q 19.93 31.70 19.84 34.29
  Q 19.68 38.43 19.76 47.27
  Q 19.79 50.86 22.02 51.91
  A 3.21 3.10 60.8 0 0 22.94 52.19
  Q 23.35 52.24 33.01 52.24
  Z"
/>
<path fill="#ffffff" d="
  M 32.99 15.73
  C 38.36 15.73 42.26 18.95 42.80 24.26
  Q 42.81 24.33 43.25 29.63
  A 1.02 1.01 12.0 0 0 43.77 30.42
  Q 46.06 31.69 46.16 34.28
  Q 46.32 38.42 46.25 47.26
  Q 46.22 50.85 43.99 51.90
  A 3.21 3.10 -60.9 0 1 43.07 52.18
  Q 42.66 52.24 33.01 52.24
  Q 23.35 52.24 22.94 52.19
  A 3.21 3.10 60.8 0 1 22.02 51.91
  Q 19.79 50.86 19.76 47.27
  Q 19.68 38.43 19.84 34.29
  Q 19.93 31.70 22.22 30.43
  A 1.02 1.01 -12.0 0 0 22.74 29.64
  Q 23.18 24.34 23.18 24.27
  C 23.72 18.96 27.62 15.74 32.99 15.73
  Z
  M 27.84 30.00
  L 38.20 29.98
  A 0.82 0.82 0.0 0 0 39.02 29.16
  L 39.01 25.19
  A 5.71 5.57 89.9 0 0 33.43 19.49
  L 32.57 19.49
  A 5.71 5.57 89.9 0 0 27.01 25.21
  L 27.02 29.18
  A 0.82 0.82 0.0 0 0 27.84 30.00
  Z
  M 32.99 46.51
  Q 35.34 46.51 35.54 46.48
  A 0.53 0.53 0.0 0 0 35.96 45.76
  L 34.79 42.90
  A 1.20 1.19 -35.2 0 1 35.01 41.67
  C 36.96 39.49 36.29 36.10 32.99 36.10
  C 29.69 36.10 29.03 39.49 30.98 41.67
  A 1.20 1.19 35.2 0 1 31.20 42.90
  L 30.03 45.76
  A 0.53 0.53 0.0 0 0 30.45 46.48
  Q 30.65 46.51 32.99 46.51
  Z"
/>
<path fill="#3a6374" d="
  M 27.84 30.00
  A 0.82 0.82 0.0 0 1 27.02 29.18
  L 27.01 25.21
  A 5.71 5.57 89.9 0 1 32.57 19.49
  L 33.43 19.49
  A 5.71 5.57 89.9 0 1 39.01 25.19
  L 39.02 29.16
  A 0.82 0.82 0.0 0 1 38.20 29.98
  L 27.84 30.00
  Z"
/>
<path fill="#3a6374" d="
  M 32.99 36.10
  C 36.29 36.10 36.96 39.49 35.01 41.67
  A 1.20 1.19 -35.2 0 0 34.79 42.90
  L 35.96 45.76
  A 0.53 0.53 0.0 0 1 35.54 46.48
  Q 35.34 46.51 32.99 46.51
  Q 30.65 46.51 30.45 46.48
  A 0.53 0.53 0.0 0 1 30.03 45.76
  L 31.20 42.90
  A 1.20 1.19 35.2 0 0 30.98 41.67
  C 29.03 39.49 29.69 36.10 32.99 36.10
  Z"
/>
</svg>
