<?xml version="1.0" encoding="UTF-8" standalone="no"?>
<!DOCTYPE svg PUBLIC "-//W3C//DTD SVG 1.1//EN" "http://www.w3.org/Graphics/SVG/1.1/DTD/svg11.dtd">
<svg xmlns="http://www.w3.org/2000/svg" version="1.1" viewBox="0.00 0.00 66.00 88.00">
<g stroke-width="2.00" fill="none" stroke-linecap="butt">
<path stroke="#1d4056" vector-effect="non-scaling-stroke" d="
  M 33.42 86.62
  C 34.23 86.62 33.55 86.68 33.77 86.47
  Q 48.91 72.33 57.75 56.27
  C 64.52 43.97 67.70 27.78 58.74 15.52
  C 52.79 7.38 43.85 2.53 33.50 2.52
  C 23.16 2.51 14.21 7.34 8.24 15.47
  C -0.74 27.71 2.41 43.91 9.15 56.22
  Q 17.96 72.30 33.07 86.47
  C 33.29 86.68 32.61 86.62 33.42 86.62"
/>
<path stroke="#94aab8" vector-effect="non-scaling-stroke" d="
  M 20.67 36.37
  Q 18.32 30.72 19.70 24.74
  A 0.22 0.22 0.0 0 1 20.14 24.78
  Q 20.33 29.86 22.13 35.16
  A 0.40 0.40 0.0 0 0 22.80 35.30
  C 28.37 29.36 26.13 22.24 21.16 16.17
  A 0.54 0.53 47.7 0 0 20.36 16.13
  C 14.65 22.10 11.34 31.53 20.29 36.70
  A 0.27 0.26 3.8 0 0 20.67 36.37"
/>
<path stroke="#94aab8" vector-effect="non-scaling-stroke" d="
  M 23.39 40.77
  Q 30.07 34.40 39.02 36.29
  A 0.30 0.30 0.0 0 1 38.96 36.88
  Q 28.67 37.03 22.82 45.28
  Q 20.72 48.24 19.42 50.38
  A 1.06 1.05 -59.3 0 0 19.79 51.85
  L 20.07 52.01
  A 1.55 1.54 30.0 0 0 22.18 51.45
  L 25.65 45.43
  A 0.65 0.64 26.1 0 1 26.45 45.16
  C 36.38 49.21 44.55 46.19 50.38 37.55
  A 0.60 0.59 37.4 0 0 50.27 36.76
  C 42.40 30.13 25.57 25.59 23.04 40.59
  A 0.21 0.21 0.0 0 0 23.39 40.77"
/>
</g>
<path fill="#122c3a" d="
  M 33.81 88.00
  L 33.04 88.00
  C 22.17 78.18 12.05 65.65 5.74 51.77
  C 1.05 41.47 -0.50 28.47 5.15 18.22
  Q 12.28 5.29 26.61 2.11
  Q 39.19 -0.69 50.33 6.11
  Q 62.27 13.40 64.92 27.08
  C 69.23 49.24 49.06 74.08 33.81 88.00
  Z
  M 33.42 86.62
  C 34.23 86.62 33.55 86.68 33.77 86.47
  Q 48.91 72.33 57.75 56.27
  C 64.52 43.97 67.70 27.78 58.74 15.52
  C 52.79 7.38 43.85 2.53 33.50 2.52
  C 23.16 2.51 14.21 7.34 8.24 15.47
  C -0.74 27.71 2.41 43.91 9.15 56.22
  Q 17.96 72.30 33.07 86.47
  C 33.29 86.68 32.61 86.62 33.42 86.62
  Z"
/>
<path fill="#285471" d="
  M 33.50 2.52
  C 43.85 2.53 52.79 7.38 58.74 15.52
  C 67.70 27.78 64.52 43.97 57.75 56.27
  Q 48.91 72.33 33.77 86.47
  C 33.55 86.68 34.23 86.62 33.42 86.62
  C 32.61 86.62 33.29 86.68 33.07 86.47
  Q 17.96 72.30 9.15 56.22
  C 2.41 43.91 -0.74 27.71 8.24 15.47
  C 14.21 7.34 23.16 2.51 33.50 2.52
  Z
  M 20.67 36.37
  Q 18.32 30.72 19.70 24.74
  A 0.22 0.22 0.0 0 1 20.14 24.78
  Q 20.33 29.86 22.13 35.16
  A 0.40 0.40 0.0 0 0 22.80 35.30
  C 28.37 29.36 26.13 22.24 21.16 16.17
  A 0.54 0.53 47.7 0 0 20.36 16.13
  C 14.65 22.10 11.34 31.53 20.29 36.70
  A 0.27 0.26 3.8 0 0 20.67 36.37
  Z
  M 23.39 40.77
  Q 30.07 34.40 39.02 36.29
  A 0.30 0.30 0.0 0 1 38.96 36.88
  Q 28.67 37.03 22.82 45.28
  Q 20.72 48.24 19.42 50.38
  A 1.06 1.05 -59.3 0 0 19.79 51.85
  L 20.07 52.01
  A 1.55 1.54 30.0 0 0 22.18 51.45
  L 25.65 45.43
  A 0.65 0.64 26.1 0 1 26.45 45.16
  C 36.38 49.21 44.55 46.19 50.38 37.55
  A 0.60 0.59 37.4 0 0 50.27 36.76
  C 42.40 30.13 25.57 25.59 23.04 40.59
  A 0.21 0.21 0.0 0 0 23.39 40.77
  Z"
/>
<path fill="#ffffff" d="
  M 20.67 36.37
  A 0.27 0.26 3.8 0 1 20.29 36.70
  C 11.34 31.53 14.65 22.10 20.36 16.13
  A 0.54 0.53 47.7 0 1 21.16 16.17
  C 26.13 22.24 28.37 29.36 22.80 35.30
  A 0.40 0.40 0.0 0 1 22.13 35.16
  Q 20.33 29.86 20.14 24.78
  A 0.22 0.22 0.0 0 0 19.70 24.74
  Q 18.32 30.72 20.67 36.37
  Z"
/>
<path fill="#ffffff" d="
  M 23.39 40.77
  A 0.21 0.21 0.0 0 1 23.04 40.59
  C 25.57 25.59 42.40 30.13 50.27 36.76
  A 0.60 0.59 37.4 0 1 50.38 37.55
  C 44.55 46.19 36.38 49.21 26.45 45.16
  A 0.65 0.64 26.1 0 0 25.65 45.43
  L 22.18 51.45
  A 1.55 1.54 30.0 0 1 20.07 52.01
  L 19.79 51.85
  A 1.06 1.05 -59.3 0 1 19.42 50.38
  Q 20.72 48.24 22.82 45.28
  Q 28.67 37.03 38.96 36.88
  A 0.30 0.30 0.0 0 0 39.02 36.29
  Q 30.07 34.40 23.39 40.77
  Z"
/>
</svg>
