<?xml version="1.0" encoding="UTF-8" standalone="no"?>
<!DOCTYPE svg PUBLIC "-//W3C//DTD SVG 1.1//EN" "http://www.w3.org/Graphics/SVG/1.1/DTD/svg11.dtd">
<svg xmlns="http://www.w3.org/2000/svg" version="1.1" viewBox="0.00 0.00 66.00 88.00">
<g stroke-width="2.00" fill="none" stroke-linecap="butt">
<path stroke="#1b292f" vector-effect="non-scaling-stroke" d="
  M 33.41 86.52
  Q 33.56 86.52 33.66 86.43
  Q 48.35 73.12 57.68 56.25
  C 64.52 43.88 67.67 27.42 58.61 15.34
  Q 49.63 3.37 34.50 2.49
  Q 34.00 2.47 33.51 2.46
  Q 33.01 2.46 32.51 2.49
  Q 17.38 3.33 8.37 15.28
  C -0.71 27.34 2.40 43.81 9.21 56.19
  Q 18.50 73.08 33.15 86.42
  Q 33.26 86.52 33.41 86.52"
/>
<path stroke="#919a9e" vector-effect="non-scaling-stroke" d="
  M 25.76 20.11
  A 0.34 0.34 0.0 0 0 25.61 19.99
  L 15.35 15.91
  A 0.34 0.34 0.0 0 0 14.91 16.35
  L 18.97 26.55
  A 0.34 0.34 0.0 0 0 19.09 26.70
  L 25.67 31.56
  A 0.34 0.34 0.0 0 0 26.12 31.52
  L 30.51 27.13
  A 0.34 0.34 0.0 0 0 30.54 26.69
  L 25.76 20.11"
/>
<path stroke="#919a9e" vector-effect="non-scaling-stroke" d="
  M 38.60 28.39
  Q 38.53 28.32 37.63 29.40
  Q 31.97 36.14 30.03 38.25
  A 0.90 0.90 0.0 0 0 30.04 39.48
  L 30.11 39.56
  A 0.84 0.83 -43.8 0 0 31.30 39.58
  Q 38.24 32.77 46.42 27.14
  A 1.77 1.74 84.2 0 0 47.06 26.34
  L 51.11 16.11
  A 0.09 0.07 42.7 0 0 51.09 16.02
  Q 51.08 16.00 51.04 15.97
  Q 51.01 15.93 50.99 15.92
  A 0.09 0.07 47.3 0 0 50.90 15.90
  L 40.67 19.94
  A 1.77 1.74 5.8 0 0 39.86 20.58
  Q 34.23 28.75 27.41 35.69
  A 0.84 0.83 -46.1 0 0 27.43 36.88
  L 27.51 36.95
  A 0.90 0.90 0.0 0 0 28.74 36.96
  Q 30.85 35.02 37.60 29.37
  Q 38.68 28.47 38.60 28.39"
/>
<path stroke="#919a9e" vector-effect="non-scaling-stroke" d="
  M 19.4563 36.4763
  A 7.84 1.77 -135.0 0 0 23.7484 43.2716
  A 7.84 1.77 -135.0 0 0 30.5437 47.5637
  A 7.84 1.77 -135.0 0 0 26.2516 40.7684
  A 7.84 1.77 -135.0 0 0 19.4563 36.4763"
/>
<path stroke="#919a9e" vector-effect="non-scaling-stroke" d="
  M 46.4082 36.6218
  A 7.62 1.80 -45.0 0 0 39.7472 40.7372
  A 7.62 1.80 -45.0 0 0 35.6318 47.3982
  A 7.62 1.80 -45.0 0 0 42.2928 43.2828
  A 7.62 1.80 -45.0 0 0 46.4082 36.6218"
/>
<path stroke="#919a9e" vector-effect="non-scaling-stroke" d="
  M 15.59 51.40
  Q 15.64 51.44 16.05 51.35
  Q 17.53 51.01 18.61 52.09
  A 0.37 0.36 -67.5 0 0 19.23 51.83
  L 19.23 50.19
  A 1.47 1.46 -18.2 0 1 19.83 49.01
  L 21.78 47.59
  A 0.72 0.71 49.5 0 0 21.86 46.51
  Q 21.66 46.30 21.18 45.82
  Q 20.70 45.34 20.49 45.13
  A 0.72 0.71 40.8 0 0 19.41 45.21
  L 17.98 47.15
  A 1.47 1.46 -71.5 0 1 16.80 47.75
  L 15.16 47.74
  A 0.37 0.36 -22.3 0 0 14.89 48.36
  Q 15.97 49.44 15.63 50.92
  Q 15.53 51.34 15.59 51.40"
/>
<path stroke="#919a9e" vector-effect="non-scaling-stroke" d="
  M 50.39 51.36
  Q 50.43 51.32 50.34 50.90
  Q 49.99 49.43 51.06 48.35
  A 0.36 0.36 0.0 0 0 50.80 47.74
  L 49.17 47.74
  A 1.46 1.45 71.5 0 1 47.99 47.15
  L 46.57 45.22
  A 0.71 0.71 0.0 0 0 45.49 45.14
  Q 45.28 45.35 44.80 45.83
  Q 44.33 46.31 44.12 46.52
  A 0.71 0.71 0.0 0 0 44.21 47.59
  L 46.15 49.00
  A 1.46 1.45 18.2 0 1 46.75 50.18
  L 46.75 51.81
  A 0.36 0.36 0.0 0 0 47.36 52.07
  Q 48.44 50.99 49.91 51.33
  Q 50.32 51.42 50.39 51.36"
/>
</g>
<path fill="#121c20" d="
  M 33.79 88.00
  L 33.04 88.00
  C 21.76 77.75 12.11 65.67 5.64 51.56
  Q 2.20 44.06 1.59 34.89
  C 0.53 18.98 11.21 5.66 26.50 2.10
  C 41.08 -1.29 56.13 6.05 62.72 20.00
  C 66.91 28.86 65.90 39.89 62.41 48.85
  C 56.63 63.74 45.56 77.33 33.79 88.00
  Z
  M 33.41 86.52
  Q 33.56 86.52 33.66 86.43
  Q 48.35 73.12 57.68 56.25
  C 64.52 43.88 67.67 27.42 58.61 15.34
  Q 49.63 3.37 34.50 2.49
  Q 34.00 2.47 33.51 2.46
  Q 33.01 2.46 32.51 2.49
  Q 17.38 3.33 8.37 15.28
  C -0.71 27.34 2.40 43.81 9.21 56.19
  Q 18.50 73.08 33.15 86.42
  Q 33.26 86.52 33.41 86.52
  Z"
/>
<path fill="#23353d" d="
  M 33.51 2.46
  Q 34.00 2.47 34.50 2.49
  Q 49.63 3.37 58.61 15.34
  C 67.67 27.42 64.52 43.88 57.68 56.25
  Q 48.35 73.12 33.66 86.43
  Q 33.56 86.52 33.41 86.52
  Q 33.26 86.52 33.15 86.42
  Q 18.50 73.08 9.21 56.19
  C 2.40 43.81 -0.71 27.34 8.37 15.28
  Q 17.38 3.33 32.51 2.49
  Q 33.01 2.46 33.51 2.46
  Z
  M 25.76 20.11
  A 0.34 0.34 0.0 0 0 25.61 19.99
  L 15.35 15.91
  A 0.34 0.34 0.0 0 0 14.91 16.35
  L 18.97 26.55
  A 0.34 0.34 0.0 0 0 19.09 26.70
  L 25.67 31.56
  A 0.34 0.34 0.0 0 0 26.12 31.52
  L 30.51 27.13
  A 0.34 0.34 0.0 0 0 30.54 26.69
  L 25.76 20.11
  Z
  M 38.60 28.39
  Q 38.53 28.32 37.63 29.40
  Q 31.97 36.14 30.03 38.25
  A 0.90 0.90 0.0 0 0 30.04 39.48
  L 30.11 39.56
  A 0.84 0.83 -43.8 0 0 31.30 39.58
  Q 38.24 32.77 46.42 27.14
  A 1.77 1.74 84.2 0 0 47.06 26.34
  L 51.11 16.11
  A 0.09 0.07 42.7 0 0 51.09 16.02
  Q 51.08 16.00 51.04 15.97
  Q 51.01 15.93 50.99 15.92
  A 0.09 0.07 47.3 0 0 50.90 15.90
  L 40.67 19.94
  A 1.77 1.74 5.8 0 0 39.86 20.58
  Q 34.23 28.75 27.41 35.69
  A 0.84 0.83 -46.1 0 0 27.43 36.88
  L 27.51 36.95
  A 0.90 0.90 0.0 0 0 28.74 36.96
  Q 30.85 35.02 37.60 29.37
  Q 38.68 28.47 38.60 28.39
  Z
  M 19.4563 36.4763
  A 7.84 1.77 -135.0 0 0 23.7484 43.2716
  A 7.84 1.77 -135.0 0 0 30.5437 47.5637
  A 7.84 1.77 -135.0 0 0 26.2516 40.7684
  A 7.84 1.77 -135.0 0 0 19.4563 36.4763
  Z
  M 46.4082 36.6218
  A 7.62 1.80 -45.0 0 0 39.7472 40.7372
  A 7.62 1.80 -45.0 0 0 35.6318 47.3982
  A 7.62 1.80 -45.0 0 0 42.2928 43.2828
  A 7.62 1.80 -45.0 0 0 46.4082 36.6218
  Z
  M 15.59 51.40
  Q 15.64 51.44 16.05 51.35
  Q 17.53 51.01 18.61 52.09
  A 0.37 0.36 -67.5 0 0 19.23 51.83
  L 19.23 50.19
  A 1.47 1.46 -18.2 0 1 19.83 49.01
  L 21.78 47.59
  A 0.72 0.71 49.5 0 0 21.86 46.51
  Q 21.66 46.30 21.18 45.82
  Q 20.70 45.34 20.49 45.13
  A 0.72 0.71 40.8 0 0 19.41 45.21
  L 17.98 47.15
  A 1.47 1.46 -71.5 0 1 16.80 47.75
  L 15.16 47.74
  A 0.37 0.36 -22.3 0 0 14.89 48.36
  Q 15.97 49.44 15.63 50.92
  Q 15.53 51.34 15.59 51.40
  Z
  M 50.39 51.36
  Q 50.43 51.32 50.34 50.90
  Q 49.99 49.43 51.06 48.35
  A 0.36 0.36 0.0 0 0 50.80 47.74
  L 49.17 47.74
  A 1.46 1.45 71.5 0 1 47.99 47.15
  L 46.57 45.22
  A 0.71 0.71 0.0 0 0 45.49 45.14
  Q 45.28 45.35 44.80 45.83
  Q 44.33 46.31 44.12 46.52
  A 0.71 0.71 0.0 0 0 44.21 47.59
  L 46.15 49.00
  A 1.46 1.45 18.2 0 1 46.75 50.18
  L 46.75 51.81
  A 0.36 0.36 0.0 0 0 47.36 52.07
  Q 48.44 50.99 49.91 51.33
  Q 50.32 51.42 50.39 51.36
  Z"
/>
<path fill="#ffffff" d="
  M 25.76 20.11
  L 30.54 26.69
  A 0.34 0.34 0.0 0 1 30.51 27.13
  L 26.12 31.52
  A 0.34 0.34 0.0 0 1 25.67 31.56
  L 19.09 26.70
  A 0.34 0.34 0.0 0 1 18.97 26.55
  L 14.91 16.35
  A 0.34 0.34 0.0 0 1 15.35 15.91
  L 25.61 19.99
  A 0.34 0.34 0.0 0 1 25.76 20.11
  Z"
/>
<path fill="#ffffff" d="
  M 51.04 15.97
  Q 51.08 16.00 51.09 16.02
  A 0.09 0.07 42.7 0 1 51.11 16.11
  L 47.06 26.34
  A 1.77 1.74 84.2 0 1 46.42 27.14
  Q 38.24 32.77 31.30 39.58
  A 0.84 0.83 -43.8 0 1 30.11 39.56
  L 30.04 39.48
  A 0.90 0.90 0.0 0 1 30.03 38.25
  Q 31.97 36.14 37.63 29.40
  Q 38.53 28.32 38.60 28.39
  Q 38.68 28.47 37.60 29.37
  Q 30.85 35.02 28.74 36.96
  A 0.90 0.90 0.0 0 1 27.51 36.95
  L 27.43 36.88
  A 0.84 0.83 -46.1 0 1 27.41 35.69
  Q 34.23 28.75 39.86 20.58
  A 1.77 1.74 5.8 0 1 40.67 19.94
  L 50.90 15.90
  A 0.09 0.07 47.3 0 1 50.99 15.92
  Q 51.01 15.93 51.04 15.97
  Z"
/>
<ellipse fill="#ffffff" cx="0.00" cy="0.00" transform="translate(25.00,42.02) rotate(-135.0)" rx="7.84" ry="1.77"/>
<ellipse fill="#ffffff" cx="0.00" cy="0.00" transform="translate(41.02,42.01) rotate(-45.0)" rx="7.62" ry="1.80"/>
<path fill="#ffffff" d="
  M 21.18 45.82
  Q 21.66 46.30 21.86 46.51
  A 0.72 0.71 49.5 0 1 21.78 47.59
  L 19.83 49.01
  A 1.47 1.46 -18.2 0 0 19.23 50.19
  L 19.23 51.83
  A 0.37 0.36 -67.5 0 1 18.61 52.09
  Q 17.53 51.01 16.05 51.35
  Q 15.64 51.44 15.59 51.40
  Q 15.53 51.34 15.63 50.92
  Q 15.97 49.44 14.89 48.36
  A 0.37 0.36 -22.3 0 1 15.16 47.74
  L 16.80 47.75
  A 1.47 1.46 -71.5 0 0 17.98 47.15
  L 19.41 45.21
  A 0.72 0.71 40.8 0 1 20.49 45.13
  Q 20.70 45.34 21.18 45.82
  Z"
/>
<path fill="#ffffff" d="
  M 50.39 51.36
  Q 50.32 51.42 49.91 51.33
  Q 48.44 50.99 47.36 52.07
  A 0.36 0.36 0.0 0 1 46.75 51.81
  L 46.75 50.18
  A 1.46 1.45 18.2 0 0 46.15 49.00
  L 44.21 47.59
  A 0.71 0.71 0.0 0 1 44.12 46.52
  Q 44.33 46.31 44.80 45.83
  Q 45.28 45.35 45.49 45.14
  A 0.71 0.71 0.0 0 1 46.57 45.22
  L 47.99 47.15
  A 1.46 1.45 71.5 0 0 49.17 47.74
  L 50.80 47.74
  A 0.36 0.36 0.0 0 1 51.06 48.35
  Q 49.99 49.43 50.34 50.90
  Q 50.43 51.32 50.39 51.36
  Z"
/>
</svg>
