<?xml version="1.0" encoding="UTF-8" standalone="no"?>
<!DOCTYPE svg PUBLIC "-//W3C//DTD SVG 1.1//EN" "http://www.w3.org/Graphics/SVG/1.1/DTD/svg11.dtd">
<svg xmlns="http://www.w3.org/2000/svg" version="1.1" viewBox="0.00 0.00 66.00 88.00">
<g stroke-width="2.00" fill="none" stroke-linecap="butt">
<path stroke="#3f2d4a" vector-effect="non-scaling-stroke" d="
  M 33.44 86.54
  C 33.50 86.54 33.72 86.51 33.78 86.45
  C 45.03 76.07 55.59 62.97 61.18 48.63
  C 66.00 36.24 65.73 22.38 56.01 12.23
  Q 47.36 3.19 34.75 2.50
  Q 34.12 2.46 33.49 2.46
  Q 32.86 2.46 32.23 2.50
  Q 19.62 3.17 10.96 12.20
  C 1.22 22.34 0.94 36.20 5.74 48.59
  C 11.31 62.94 21.85 76.06 33.09 86.45
  C 33.15 86.51 33.37 86.54 33.44 86.54"
/>
<path stroke="#a99db0" vector-effect="non-scaling-stroke" d="
  M 33.00 52.17
  Q 33.21 52.17 33.31 52.07
  Q 36.86 48.53 39.79 45.57
  A 1.33 1.33 0.0 0 1 40.73 45.18
  C 47.34 45.18 52.00 40.12 51.19 33.53
  A 4.14 4.03 31.7 0 0 50.98 32.69
  Q 49.49 28.92 48.36 25.62
  Q 47.20 22.23 48.75 16.65
  A 0.29 0.28 79.3 0 0 48.30 16.34
  C 44.22 19.52 37.96 21.77 32.99 21.78
  C 28.03 21.78 21.77 19.52 17.69 16.34
  A 0.29 0.28 -79.3 0 0 17.24 16.65
  Q 18.79 22.23 17.63 25.62
  Q 16.50 28.92 15.01 32.69
  A 4.14 4.03 -31.7 0 0 14.80 33.53
  C 13.99 40.12 18.65 45.18 25.26 45.18
  A 1.33 1.33 0.0 0 1 26.20 45.57
  Q 29.13 48.53 32.68 52.07
  Q 32.78 52.17 33.00 52.17"
/>
<path stroke="#a99db0" vector-effect="non-scaling-stroke" d="
  M 31.30 35.17
  A 6.64 6.64 0.0 0 0 24.66 28.53
  A 6.64 6.64 0.0 0 0 18.02 35.17
  A 6.64 6.64 0.0 0 0 24.66 41.81
  A 6.64 6.64 0.0 0 0 31.30 35.17"
/>
<path stroke="#a99db0" vector-effect="non-scaling-stroke" d="
  M 47.97 35.16
  A 6.64 6.64 0.0 0 0 41.33 28.52
  A 6.64 6.64 0.0 0 0 34.69 35.16
  A 6.64 6.64 0.0 0 0 41.33 41.80
  A 6.64 6.64 0.0 0 0 47.97 35.16"
/>
<path stroke="#a99db0" vector-effect="non-scaling-stroke" d="
  M 36.2501 44.3411
  A 0.26 0.26 0.0 0 0 36.2494 43.9734
  L 33.1752 40.9099
  A 0.26 0.26 0.0 0 0 32.8075 40.9106
  L 29.7299 43.9989
  A 0.26 0.26 0.0 0 0 29.7306 44.3666
  L 32.8048 47.4301
  A 0.26 0.26 0.0 0 0 33.1725 47.4294
  L 36.2501 44.3411"
/>
<path stroke="#a99db0" vector-effect="non-scaling-stroke" d="
  M 27.95 35.99
  A 3.29 3.29 0.0 0 0 24.66 32.70
  A 3.29 3.29 0.0 0 0 21.37 35.99
  A 3.29 3.29 0.0 0 0 24.66 39.28
  A 3.29 3.29 0.0 0 0 27.95 35.99"
/>
<path stroke="#a99db0" vector-effect="non-scaling-stroke" d="
  M 44.61 36.00
  A 3.29 3.29 0.0 0 0 41.32 32.71
  A 3.29 3.29 0.0 0 0 38.03 36.00
  A 3.29 3.29 0.0 0 0 41.32 39.29
  A 3.29 3.29 0.0 0 0 44.61 36.00"
/>
</g>
<path fill="#2a1e32" d="
  M 33.80 88.00
  L 33.15 88.00
  Q 15.61 72.48 6.00 52.51
  Q 2.30 44.81 1.63 35.22
  C 0.50 19.01 11.07 5.66 26.68 2.05
  C 37.36 -0.41 49.35 3.22 56.93 11.42
  Q 67.85 23.23 64.84 39.76
  Q 62.56 52.27 54.57 64.07
  Q 45.67 77.20 33.80 88.00
  Z
  M 33.44 86.54
  C 33.50 86.54 33.72 86.51 33.78 86.45
  C 45.03 76.07 55.59 62.97 61.18 48.63
  C 66.00 36.24 65.73 22.38 56.01 12.23
  Q 47.36 3.19 34.75 2.50
  Q 34.12 2.46 33.49 2.46
  Q 32.86 2.46 32.23 2.50
  Q 19.62 3.17 10.96 12.20
  C 1.22 22.34 0.94 36.20 5.74 48.59
  C 11.31 62.94 21.85 76.06 33.09 86.45
  C 33.15 86.51 33.37 86.54 33.44 86.54
  Z"
/>
<path fill="#533b61" d="
  M 33.49 2.46
  Q 34.12 2.46 34.75 2.50
  Q 47.36 3.19 56.01 12.23
  C 65.73 22.38 66.00 36.24 61.18 48.63
  C 55.59 62.97 45.03 76.07 33.78 86.45
  C 33.72 86.51 33.50 86.54 33.44 86.54
  C 33.37 86.54 33.15 86.51 33.09 86.45
  C 21.85 76.06 11.31 62.94 5.74 48.59
  C 0.94 36.20 1.22 22.34 10.96 12.20
  Q 19.62 3.17 32.23 2.50
  Q 32.86 2.46 33.49 2.46
  Z
  M 33.00 52.17
  Q 33.21 52.17 33.31 52.07
  Q 36.86 48.53 39.79 45.57
  A 1.33 1.33 0.0 0 1 40.73 45.18
  C 47.34 45.18 52.00 40.12 51.19 33.53
  A 4.14 4.03 31.7 0 0 50.98 32.69
  Q 49.49 28.92 48.36 25.62
  Q 47.20 22.23 48.75 16.65
  A 0.29 0.28 79.3 0 0 48.30 16.34
  C 44.22 19.52 37.96 21.77 32.99 21.78
  C 28.03 21.78 21.77 19.52 17.69 16.34
  A 0.29 0.28 -79.3 0 0 17.24 16.65
  Q 18.79 22.23 17.63 25.62
  Q 16.50 28.92 15.01 32.69
  A 4.14 4.03 -31.7 0 0 14.80 33.53
  C 13.99 40.12 18.65 45.18 25.26 45.18
  A 1.33 1.33 0.0 0 1 26.20 45.57
  Q 29.13 48.53 32.68 52.07
  Q 32.78 52.17 33.00 52.17
  Z"
/>
<path fill="#ffffff" d="
  M 32.99 21.78
  C 37.96 21.77 44.22 19.52 48.30 16.34
  A 0.29 0.28 79.3 0 1 48.75 16.65
  Q 47.20 22.23 48.36 25.62
  Q 49.49 28.92 50.98 32.69
  A 4.14 4.03 31.7 0 1 51.19 33.53
  C 52.00 40.12 47.34 45.18 40.73 45.18
  A 1.33 1.33 0.0 0 0 39.79 45.57
  Q 36.86 48.53 33.31 52.07
  Q 33.21 52.17 33.00 52.17
  Q 32.78 52.17 32.68 52.07
  Q 29.13 48.53 26.20 45.57
  A 1.33 1.33 0.0 0 0 25.26 45.18
  C 18.65 45.18 13.99 40.12 14.80 33.53
  A 4.14 4.03 -31.7 0 1 15.01 32.69
  Q 16.50 28.92 17.63 25.62
  Q 18.79 22.23 17.24 16.65
  A 0.29 0.28 -79.3 0 1 17.69 16.34
  C 21.77 19.52 28.03 21.78 32.99 21.78
  Z
  M 31.30 35.17
  A 6.64 6.64 0.0 0 0 24.66 28.53
  A 6.64 6.64 0.0 0 0 18.02 35.17
  A 6.64 6.64 0.0 0 0 24.66 41.81
  A 6.64 6.64 0.0 0 0 31.30 35.17
  Z
  M 47.97 35.16
  A 6.64 6.64 0.0 0 0 41.33 28.52
  A 6.64 6.64 0.0 0 0 34.69 35.16
  A 6.64 6.64 0.0 0 0 41.33 41.80
  A 6.64 6.64 0.0 0 0 47.97 35.16
  Z
  M 36.2501 44.3411
  A 0.26 0.26 0.0 0 0 36.2494 43.9734
  L 33.1752 40.9099
  A 0.26 0.26 0.0 0 0 32.8075 40.9106
  L 29.7299 43.9989
  A 0.26 0.26 0.0 0 0 29.7306 44.3666
  L 32.8048 47.4301
  A 0.26 0.26 0.0 0 0 33.1725 47.4294
  L 36.2501 44.3411
  Z"
/>
<path fill="#533b61" d="
  M 31.30 35.17
  A 6.64 6.64 0.0 0 1 24.66 41.81
  A 6.64 6.64 0.0 0 1 18.02 35.17
  A 6.64 6.64 0.0 0 1 24.66 28.53
  A 6.64 6.64 0.0 0 1 31.30 35.17
  Z
  M 27.95 35.99
  A 3.29 3.29 0.0 0 0 24.66 32.70
  A 3.29 3.29 0.0 0 0 21.37 35.99
  A 3.29 3.29 0.0 0 0 24.66 39.28
  A 3.29 3.29 0.0 0 0 27.95 35.99
  Z"
/>
<path fill="#533b61" d="
  M 47.97 35.16
  A 6.64 6.64 0.0 0 1 41.33 41.80
  A 6.64 6.64 0.0 0 1 34.69 35.16
  A 6.64 6.64 0.0 0 1 41.33 28.52
  A 6.64 6.64 0.0 0 1 47.97 35.16
  Z
  M 44.61 36.00
  A 3.29 3.29 0.0 0 0 41.32 32.71
  A 3.29 3.29 0.0 0 0 38.03 36.00
  A 3.29 3.29 0.0 0 0 41.32 39.29
  A 3.29 3.29 0.0 0 0 44.61 36.00
  Z"
/>
<circle fill="#ffffff" cx="24.66" cy="35.99" r="3.29"/>
<circle fill="#ffffff" cx="41.32" cy="36.00" r="3.29"/>
<rect fill="#533b61" x="-2.43" y="-2.44" transform="translate(32.99,44.17) rotate(44.9)" width="4.86" height="4.88" rx="0.26"/>
</svg>
