<?xml version="1.0" encoding="UTF-8" standalone="no"?>
<!DOCTYPE svg PUBLIC "-//W3C//DTD SVG 1.1//EN" "http://www.w3.org/Graphics/SVG/1.1/DTD/svg11.dtd">
<svg xmlns="http://www.w3.org/2000/svg" version="1.1" viewBox="0.00 0.00 66.00 88.00">
<g stroke-width="2.00" fill="none" stroke-linecap="butt">
<path stroke="#1e4056" vector-effect="non-scaling-stroke" d="
  M 33.42 86.62
  C 33.56 86.62 33.72 86.60 33.82 86.50
  Q 49.91 70.98 57.57 56.53
  Q 62.93 46.40 63.91 37.80
  Q 66.42 15.85 46.72 5.45
  Q 41.25 2.56 33.50 2.55
  Q 25.75 2.54 20.27 5.42
  Q 0.56 15.79 3.02 37.74
  Q 3.99 46.34 9.33 56.48
  Q 16.96 70.95 33.02 86.50
  C 33.13 86.60 33.28 86.61 33.42 86.62"
/>
<path stroke="#91a7b6" vector-effect="non-scaling-stroke" d="
  M 33.00 52.25
  Q 42.51 52.25 50.87 47.98
  A 0.71 0.71 0.0 0 0 51.08 46.87
  C 46.81 41.96 43.78 37.15 42.33 30.52
  Q 41.97 28.86 39.15 25.72
  A 1.17 1.16 -63.2 0 1 38.86 24.83
  Q 39.16 21.84 38.75 20.80
  Q 36.74 15.74 33.00 15.74
  Q 29.26 15.74 27.26 20.80
  Q 26.85 21.84 27.14 24.83
  A 1.17 1.16 63.3 0 1 26.85 25.72
  Q 24.03 28.86 23.67 30.52
  C 22.22 37.15 19.19 41.96 14.92 46.86
  A 0.71 0.71 0.0 0 0 15.13 47.97
  Q 23.49 52.25 33.00 52.25"
/>
<path stroke="#91a7b6" vector-effect="non-scaling-stroke" d="
  M 32.96 18.18
  C 35.73 18.16 37.33 22.73 36.37 25.17
  A 0.31 0.31 0.0 0 0 36.90 25.47
  C 39.17 22.41 36.30 17.03 32.95 17.05
  C 29.60 17.07 26.80 22.50 29.12 25.53
  A 0.31 0.31 0.0 0 0 29.65 25.22
  C 28.65 22.79 30.18 18.20 32.96 18.18"
/>
<path stroke="#91a7b6" vector-effect="non-scaling-stroke" d="
  M 26.09 37.84
  C 23.63 41.21 20.89 42.80 17.90 45.19
  A 0.35 0.35 0.0 0 0 18.27 45.79
  Q 23.78 43.32 27.20 38.65
  Q 30.61 33.98 31.29 27.97
  A 0.35 0.35 0.0 0 0 30.61 27.81
  C 29.23 31.38 28.55 34.47 26.09 37.84"
/>
<path stroke="#91a7b6" vector-effect="non-scaling-stroke" d="
  M 48.26 45.22
  Q 48.25 45.19 45.26 43.21
  C 40.21 39.86 36.91 34.18 35.91 28.26
  A 0.72 0.71 85.2 0 0 35.21 27.66
  L 35.12 27.66
  A 0.54 0.53 -4.2 0 0 34.59 28.27
  Q 36.17 38.79 45.25 44.50
  Q 46.43 45.24 47.85 45.63
  A 0.33 0.33 0.0 0 0 48.26 45.22"
/>
<path stroke="#91a7b6" vector-effect="non-scaling-stroke" d="
  M 33.02 50.96
  C 37.62 50.95 43.95 50.08 48.02 47.66
  A 0.28 0.28 0.0 0 0 47.79 47.14
  C 43.12 48.71 38.11 49.97 33.02 49.97
  C 27.93 49.98 22.92 48.74 18.25 47.17
  A 0.28 0.28 0.0 0 0 18.01 47.69
  C 22.09 50.11 28.43 50.96 33.02 50.96"
/>
</g>
<path fill="#132c3a" d="
  M 33.80 88.00
  L 33.15 88.00
  Q 15.61 72.48 6.00 52.51
  Q 2.31 44.85 1.62 35.22
  Q 0.94 25.68 5.27 17.99
  C 18.13 -4.87 51.11 -4.20 62.69 19.93
  C 66.94 28.79 65.90 40.04 62.32 49.07
  C 56.42 63.94 45.58 77.29 33.80 88.00
  Z
  M 33.42 86.62
  C 33.56 86.62 33.72 86.60 33.82 86.50
  Q 49.91 70.98 57.57 56.53
  Q 62.93 46.40 63.91 37.80
  Q 66.42 15.85 46.72 5.45
  Q 41.25 2.56 33.50 2.55
  Q 25.75 2.54 20.27 5.42
  Q 0.56 15.79 3.02 37.74
  Q 3.99 46.34 9.33 56.48
  Q 16.96 70.95 33.02 86.50
  C 33.13 86.60 33.28 86.61 33.42 86.62
  Z"
/>
<path fill="#285471" d="
  M 33.50 2.55
  Q 41.25 2.56 46.72 5.45
  Q 66.42 15.85 63.91 37.80
  Q 62.93 46.40 57.57 56.53
  Q 49.91 70.98 33.82 86.50
  C 33.72 86.60 33.56 86.62 33.42 86.62
  C 33.28 86.61 33.13 86.60 33.02 86.50
  Q 16.96 70.95 9.33 56.48
  Q 3.99 46.34 3.02 37.74
  Q 0.56 15.79 20.27 5.42
  Q 25.75 2.54 33.50 2.55
  Z
  M 33.00 52.25
  Q 42.51 52.25 50.87 47.98
  A 0.71 0.71 0.0 0 0 51.08 46.87
  C 46.81 41.96 43.78 37.15 42.33 30.52
  Q 41.97 28.86 39.15 25.72
  A 1.17 1.16 -63.2 0 1 38.86 24.83
  Q 39.16 21.84 38.75 20.80
  Q 36.74 15.74 33.00 15.74
  Q 29.26 15.74 27.26 20.80
  Q 26.85 21.84 27.14 24.83
  A 1.17 1.16 63.3 0 1 26.85 25.72
  Q 24.03 28.86 23.67 30.52
  C 22.22 37.15 19.19 41.96 14.92 46.86
  A 0.71 0.71 0.0 0 0 15.13 47.97
  Q 23.49 52.25 33.00 52.25
  Z"
/>
<path fill="#f9fafb" d="
  M 33.00 15.74
  Q 36.74 15.74 38.75 20.80
  Q 39.16 21.84 38.86 24.83
  A 1.17 1.16 -63.2 0 0 39.15 25.72
  Q 41.97 28.86 42.33 30.52
  C 43.78 37.15 46.81 41.96 51.08 46.87
  A 0.71 0.71 0.0 0 1 50.87 47.98
  Q 42.51 52.25 33.00 52.25
  Q 23.49 52.25 15.13 47.97
  A 0.71 0.71 0.0 0 1 14.92 46.86
  C 19.19 41.96 22.22 37.15 23.67 30.52
  Q 24.03 28.86 26.85 25.72
  A 1.17 1.16 63.3 0 0 27.14 24.83
  Q 26.85 21.84 27.26 20.80
  Q 29.26 15.74 33.00 15.74
  Z
  M 32.96 18.18
  C 35.73 18.16 37.33 22.73 36.37 25.17
  A 0.31 0.31 0.0 0 0 36.90 25.47
  C 39.17 22.41 36.30 17.03 32.95 17.05
  C 29.60 17.07 26.80 22.50 29.12 25.53
  A 0.31 0.31 0.0 0 0 29.65 25.22
  C 28.65 22.79 30.18 18.20 32.96 18.18
  Z
  M 26.09 37.84
  C 23.63 41.21 20.89 42.80 17.90 45.19
  A 0.35 0.35 0.0 0 0 18.27 45.79
  Q 23.78 43.32 27.20 38.65
  Q 30.61 33.98 31.29 27.97
  A 0.35 0.35 0.0 0 0 30.61 27.81
  C 29.23 31.38 28.55 34.47 26.09 37.84
  Z
  M 48.26 45.22
  Q 48.25 45.19 45.26 43.21
  C 40.21 39.86 36.91 34.18 35.91 28.26
  A 0.72 0.71 85.2 0 0 35.21 27.66
  L 35.12 27.66
  A 0.54 0.53 -4.2 0 0 34.59 28.27
  Q 36.17 38.79 45.25 44.50
  Q 46.43 45.24 47.85 45.63
  A 0.33 0.33 0.0 0 0 48.26 45.22
  Z
  M 33.02 50.96
  C 37.62 50.95 43.95 50.08 48.02 47.66
  A 0.28 0.28 0.0 0 0 47.79 47.14
  C 43.12 48.71 38.11 49.97 33.02 49.97
  C 27.93 49.98 22.92 48.74 18.25 47.17
  A 0.28 0.28 0.0 0 0 18.01 47.69
  C 22.09 50.11 28.43 50.96 33.02 50.96
  Z"
/>
<path fill="#285471" d="
  M 32.95 17.05
  C 36.30 17.03 39.17 22.41 36.90 25.47
  A 0.31 0.31 0.0 0 1 36.37 25.17
  C 37.33 22.73 35.73 18.16 32.96 18.18
  C 30.18 18.20 28.65 22.79 29.65 25.22
  A 0.31 0.31 0.0 0 1 29.12 25.53
  C 26.80 22.50 29.60 17.07 32.95 17.05
  Z"
/>
<path fill="#285471" d="
  M 27.20 38.65
  Q 23.78 43.32 18.27 45.79
  A 0.35 0.35 0.0 0 1 17.90 45.19
  C 20.89 42.80 23.63 41.21 26.09 37.84
  C 28.55 34.47 29.23 31.38 30.61 27.81
  A 0.35 0.35 0.0 0 1 31.29 27.97
  Q 30.61 33.98 27.20 38.65
  Z"
/>
<path fill="#285471" d="
  M 47.85 45.63
  Q 46.43 45.24 45.25 44.50
  Q 36.17 38.79 34.59 28.27
  A 0.54 0.53 -4.2 0 1 35.12 27.66
  L 35.21 27.66
  A 0.72 0.71 85.2 0 1 35.91 28.26
  C 36.91 34.18 40.21 39.86 45.26 43.21
  Q 48.25 45.19 48.26 45.22
  A 0.33 0.33 0.0 0 1 47.85 45.63
  Z"
/>
<path fill="#285471" d="
  M 33.02 49.97
  C 38.11 49.97 43.12 48.71 47.79 47.14
  A 0.28 0.28 0.0 0 1 48.02 47.66
  C 43.95 50.08 37.62 50.95 33.02 50.96
  C 28.43 50.96 22.09 50.11 18.01 47.69
  A 0.28 0.28 0.0 0 1 18.25 47.17
  C 22.92 48.74 27.93 49.98 33.02 49.97
  Z"
/>
</svg>
