<?xml version="1.0" encoding="UTF-8" standalone="no"?>
<!DOCTYPE svg PUBLIC "-//W3C//DTD SVG 1.1//EN" "http://www.w3.org/Graphics/SVG/1.1/DTD/svg11.dtd">
<svg xmlns="http://www.w3.org/2000/svg" version="1.1" viewBox="0.00 0.00 66.00 88.00">
<g stroke-width="2.00" fill="none" stroke-linecap="butt">
<path stroke="#3f2d4a" vector-effect="non-scaling-stroke" d="
  M 33.43 86.55
  C 33.60 86.55 33.71 86.55 33.81 86.45
  Q 44.92 76.13 53.25 63.74
  C 63.74 48.15 70.88 25.99 54.77 10.97
  Q 46.27 3.04 34.50 2.49
  Q 34.00 2.47 33.49 2.47
  Q 32.98 2.47 32.48 2.49
  Q 20.71 3.02 12.20 10.94
  C -3.93 25.94 3.18 48.11 13.65 63.71
  Q 21.96 76.11 33.06 86.45
  C 33.16 86.55 33.27 86.55 33.43 86.55"
/>
<path stroke="#a99db0" vector-effect="non-scaling-stroke" d="
  M 37.32 18.84
  A 0.34 0.34 0.0 0 1 37.07 18.59
  L 36.64 16.74
  A 0.34 0.34 0.0 0 0 35.97 16.74
  L 35.55 18.59
  A 0.34 0.34 0.0 0 1 35.30 18.84
  L 33.45 19.27
  A 0.34 0.34 0.0 0 0 33.45 19.94
  L 35.30 20.36
  A 0.34 0.34 0.0 0 1 35.55 20.61
  L 35.98 22.46
  A 0.34 0.34 0.0 0 0 36.65 22.46
  L 37.07 20.61
  A 0.34 0.34 0.0 0 1 37.32 20.36
  L 39.17 19.93
  A 0.34 0.34 0.0 0 0 39.17 19.26
  L 37.32 18.84"
/>
<path stroke="#a99db0" vector-effect="non-scaling-stroke" d="
  M 17.87 44.85
  C 23.50 54.65 37.67 54.67 43.36 45.25
  A 0.22 0.22 0.0 0 0 43.07 44.94
  C 36.65 48.19 29.38 46.65 25.74 40.33
  C 22.11 34.00 24.44 26.94 30.48 23.04
  A 0.22 0.22 0.0 0 0 30.36 22.62
  C 19.36 22.79 12.24 35.05 17.87 44.85"
/>
<path stroke="#a99db0" vector-effect="non-scaling-stroke" d="
  M 43.24 31.99
  A 0.32 0.32 0.0 0 1 43.00 31.75
  L 41.70 25.99
  A 0.32 0.32 0.0 0 0 41.08 25.99
  L 39.78 31.75
  A 0.32 0.32 0.0 0 1 39.54 31.99
  L 33.78 33.29
  A 0.32 0.32 0.0 0 0 33.78 33.91
  L 39.54 35.21
  A 0.32 0.32 0.0 0 1 39.78 35.45
  L 41.08 41.21
  A 0.32 0.32 0.0 0 0 41.70 41.21
  L 43.00 35.45
  A 0.32 0.32 0.0 0 1 43.24 35.21
  L 49.00 33.91
  A 0.32 0.32 0.0 0 0 49.00 33.29
  L 43.24 31.99"
/>
</g>
<path fill="#2a1e32" d="
  M 33.78 88.00
  L 33.15 88.00
  Q 15.61 72.48 6.00 52.51
  Q 2.31 44.85 1.62 35.22
  C 0.46 19.04 11.18 5.53 26.72 2.05
  C 46.08 -2.29 66.29 12.76 65.46 33.76
  Q 65.19 40.69 63.06 47.02
  C 57.86 62.47 45.76 77.15 33.78 88.00
  Z
  M 33.43 86.55
  C 33.60 86.55 33.71 86.55 33.81 86.45
  Q 44.92 76.13 53.25 63.74
  C 63.74 48.15 70.88 25.99 54.77 10.97
  Q 46.27 3.04 34.50 2.49
  Q 34.00 2.47 33.49 2.47
  Q 32.98 2.47 32.48 2.49
  Q 20.71 3.02 12.20 10.94
  C -3.93 25.94 3.18 48.11 13.65 63.71
  Q 21.96 76.11 33.06 86.45
  C 33.16 86.55 33.27 86.55 33.43 86.55
  Z"
/>
<path fill="#533b61" d="
  M 33.49 2.47
  Q 34.00 2.47 34.50 2.49
  Q 46.27 3.04 54.77 10.97
  C 70.88 25.99 63.74 48.15 53.25 63.74
  Q 44.92 76.13 33.81 86.45
  C 33.71 86.55 33.60 86.55 33.43 86.55
  C 33.27 86.55 33.16 86.55 33.06 86.45
  Q 21.96 76.11 13.65 63.71
  C 3.18 48.11 -3.93 25.94 12.20 10.94
  Q 20.71 3.02 32.48 2.49
  Q 32.98 2.47 33.49 2.47
  Z
  M 37.32 18.84
  A 0.34 0.34 0.0 0 1 37.07 18.59
  L 36.64 16.74
  A 0.34 0.34 0.0 0 0 35.97 16.74
  L 35.55 18.59
  A 0.34 0.34 0.0 0 1 35.30 18.84
  L 33.45 19.27
  A 0.34 0.34 0.0 0 0 33.45 19.94
  L 35.30 20.36
  A 0.34 0.34 0.0 0 1 35.55 20.61
  L 35.98 22.46
  A 0.34 0.34 0.0 0 0 36.65 22.46
  L 37.07 20.61
  A 0.34 0.34 0.0 0 1 37.32 20.36
  L 39.17 19.93
  A 0.34 0.34 0.0 0 0 39.17 19.26
  L 37.32 18.84
  Z
  M 17.87 44.85
  C 23.50 54.65 37.67 54.67 43.36 45.25
  A 0.22 0.22 0.0 0 0 43.07 44.94
  C 36.65 48.19 29.38 46.65 25.74 40.33
  C 22.11 34.00 24.44 26.94 30.48 23.04
  A 0.22 0.22 0.0 0 0 30.36 22.62
  C 19.36 22.79 12.24 35.05 17.87 44.85
  Z
  M 43.24 31.99
  A 0.32 0.32 0.0 0 1 43.00 31.75
  L 41.70 25.99
  A 0.32 0.32 0.0 0 0 41.08 25.99
  L 39.78 31.75
  A 0.32 0.32 0.0 0 1 39.54 31.99
  L 33.78 33.29
  A 0.32 0.32 0.0 0 0 33.78 33.91
  L 39.54 35.21
  A 0.32 0.32 0.0 0 1 39.78 35.45
  L 41.08 41.21
  A 0.32 0.32 0.0 0 0 41.70 41.21
  L 43.00 35.45
  A 0.32 0.32 0.0 0 1 43.24 35.21
  L 49.00 33.91
  A 0.32 0.32 0.0 0 0 49.00 33.29
  L 43.24 31.99
  Z"
/>
<path fill="#ffffff" d="
  M 37.32 18.84
  L 39.17 19.26
  A 0.34 0.34 0.0 0 1 39.17 19.93
  L 37.32 20.36
  A 0.34 0.34 0.0 0 0 37.07 20.61
  L 36.65 22.46
  A 0.34 0.34 0.0 0 1 35.98 22.46
  L 35.55 20.61
  A 0.34 0.34 0.0 0 0 35.30 20.36
  L 33.45 19.94
  A 0.34 0.34 0.0 0 1 33.45 19.27
  L 35.30 18.84
  A 0.34 0.34 0.0 0 0 35.55 18.59
  L 35.97 16.74
  A 0.34 0.34 0.0 0 1 36.64 16.74
  L 37.07 18.59
  A 0.34 0.34 0.0 0 0 37.32 18.84
  Z"
/>
<path fill="#ffffff" d="
  M 25.74 40.33
  C 29.38 46.65 36.65 48.19 43.07 44.94
  A 0.22 0.22 0.0 0 1 43.36 45.25
  C 37.67 54.67 23.50 54.65 17.87 44.85
  C 12.24 35.05 19.36 22.79 30.36 22.62
  A 0.22 0.22 0.0 0 1 30.48 23.04
  C 24.44 26.94 22.11 34.00 25.74 40.33
  Z"
/>
<path fill="#ffffff" d="
  M 43.24 31.99
  L 49.00 33.29
  A 0.32 0.32 0.0 0 1 49.00 33.91
  L 43.24 35.21
  A 0.32 0.32 0.0 0 0 43.00 35.45
  L 41.70 41.21
  A 0.32 0.32 0.0 0 1 41.08 41.21
  L 39.78 35.45
  A 0.32 0.32 0.0 0 0 39.54 35.21
  L 33.78 33.91
  A 0.32 0.32 0.0 0 1 33.78 33.29
  L 39.54 31.99
  A 0.32 0.32 0.0 0 0 39.78 31.75
  L 41.08 25.99
  A 0.32 0.32 0.0 0 1 41.70 25.99
  L 43.00 31.75
  A 0.32 0.32 0.0 0 0 43.24 31.99
  Z"
/>
</svg>
