<?xml version="1.0" encoding="UTF-8" standalone="no"?>
<!DOCTYPE svg PUBLIC "-//W3C//DTD SVG 1.1//EN" "http://www.w3.org/Graphics/SVG/1.1/DTD/svg11.dtd">
<svg xmlns="http://www.w3.org/2000/svg" version="1.1" viewBox="0.00 0.00 66.00 88.00">
<g stroke-width="2.00" fill="none" stroke-linecap="butt">
<path stroke="#1e4056" vector-effect="non-scaling-stroke" d="
  M 33.42 86.62
  C 33.79 86.62 33.65 86.64 33.79 86.49
  C 45.36 75.52 55.84 62.70 61.38 47.97
  Q 65.60 36.77 63.73 27.26
  C 60.89 12.84 48.37 2.54 33.51 2.52
  C 18.64 2.51 6.10 12.78 3.24 27.20
  Q 1.34 36.70 5.54 47.91
  C 11.05 62.65 21.50 75.50 33.05 86.49
  C 33.20 86.64 33.05 86.62 33.42 86.62"
/>
<path stroke="#94aab8" vector-effect="non-scaling-stroke" d="
  M 48.75 35.32
  L 48.75 46.15
  A 0.61 0.60 0.0 0 0 49.36 46.75
  L 50.63 46.75
  A 0.64 0.63 -0.0 0 0 51.27 46.12
  L 51.27 22.40
  A 1.16 1.15 -0.0 0 0 50.11 21.25
  L 49.71 21.25
  A 0.96 0.96 0.0 0 0 48.75 22.21
  L 48.75 31.91
  A 0.60 0.60 0.0 0 1 48.15 32.51
  L 41.70 32.51
  A 0.77 0.76 -6.1 0 1 40.95 31.91
  Q 39.96 27.63 35.24 27.33
  A 1.37 1.34 31.5 0 0 34.46 27.51
  L 32.93 28.39
  A 0.95 0.94 -46.2 0 1 32.02 28.41
  C 28.94 26.77 24.86 28.49 25.28 32.14
  A 0.34 0.33 -3.0 0 1 24.94 32.51
  L 17.59 32.51
  A 0.33 0.33 0.0 0 1 17.26 32.18
  L 17.26 22.36
  A 1.12 1.12 0.0 0 0 16.14 21.24
  L 15.74 21.24
  A 0.98 0.98 0.0 0 0 14.76 22.22
  L 14.76 46.19
  A 0.56 0.56 0.0 0 0 15.32 46.75
  L 16.70 46.75
  A 0.57 0.57 0.0 0 0 17.27 46.18
  L 17.27 35.31
  A 0.54 0.54 0.0 0 1 17.81 34.77
  L 27.86 34.77
  A 0.61 0.61 0.0 0 1 28.47 35.37
  Q 28.54 38.46 31.22 39.60
  C 33.47 40.56 36.61 39.22 36.99 36.98
  A 3.10 2.31 -0.7 0 1 39.63 34.96
  Q 42.98 34.60 48.22 34.77
  A 0.55 0.54 -89.5 0 1 48.75 35.32"
/>
<path stroke="#94aab8" vector-effect="non-scaling-stroke" d="
  M 19.97 22.45
  L 19.98 28.57
  A 1.45 1.45 0.0 0 0 22.68 29.30
  Q 25.79 23.96 31.86 25.30
  A 1.66 1.63 39.8 0 0 32.83 25.22
  C 37.18 23.39 40.68 25.61 43.07 29.27
  A 1.61 1.61 0.0 0 0 46.03 28.39
  L 46.04 22.43
  A 0.69 0.68 2.8 0 0 45.42 21.75
  Q 33.10 20.69 20.63 21.74
  A 0.71 0.71 0.0 0 0 19.97 22.45"
/>
<path stroke="#94aab8" vector-effect="non-scaling-stroke" d="
  M 32.97 46.76
  Q 44.85 46.74 45.27 46.74
  A 0.72 0.71 -0.4 0 0 45.98 46.03
  L 45.98 38.21
  A 0.74 0.73 0.0 0 0 45.24 37.48
  L 40.93 37.48
  A 1.38 1.38 0.0 0 0 39.72 38.20
  Q 37.25 42.76 32.96 42.77
  Q 28.68 42.78 26.20 38.22
  A 1.38 1.38 0.0 0 0 24.98 37.50
  L 20.67 37.52
  A 0.74 0.73 -0.2 0 0 19.94 38.25
  L 19.96 46.07
  A 0.72 0.71 0.2 0 0 20.67 46.78
  Q 21.10 46.78 32.97 46.76"
/>
<path stroke="#94aab8" vector-effect="non-scaling-stroke" d="
  M 34.8851 30.1185
  A 2.11 1.27 -139.1 0 0 35.6485 32.4599
  A 2.11 1.27 -139.1 0 0 38.0749 32.8815
  A 2.11 1.27 -139.1 0 0 37.3115 30.5401
  A 2.11 1.27 -139.1 0 0 34.8851 30.1185"
/>
<path stroke="#94aab8" vector-effect="non-scaling-stroke" d="
  M 31.0901 31.1715
  A 1.69 1.19 -8.8 0 0 29.2379 30.2540
  A 1.69 1.19 -8.8 0 0 27.7499 31.6885
  A 1.69 1.19 -8.8 0 0 29.6021 32.6060
  A 1.69 1.19 -8.8 0 0 31.0901 31.1715"
/>
<path stroke="#94aab8" vector-effect="non-scaling-stroke" d="
  M 34.43 35.85
  A 1.65 1.65 0.0 0 0 32.78 34.20
  A 1.65 1.65 0.0 0 0 31.13 35.85
  A 1.65 1.65 0.0 0 0 32.78 37.50
  A 1.65 1.65 0.0 0 0 34.43 35.85"
/>
</g>
<path fill="#132c3a" d="
  M 33.81 88.00
  L 33.15 88.00
  Q 15.61 72.48 6.00 52.51
  Q 2.31 44.85 1.62 35.22
  Q 0.94 25.67 5.27 17.99
  C 18.06 -4.71 50.85 -4.29 62.57 19.68
  C 66.92 28.57 65.95 39.77 62.41 48.86
  C 56.57 63.80 45.59 77.24 33.81 88.00
  Z
  M 33.42 86.62
  C 33.79 86.62 33.65 86.64 33.79 86.49
  C 45.36 75.52 55.84 62.70 61.38 47.97
  Q 65.60 36.77 63.73 27.26
  C 60.89 12.84 48.37 2.54 33.51 2.52
  C 18.64 2.51 6.10 12.78 3.24 27.20
  Q 1.34 36.70 5.54 47.91
  C 11.05 62.65 21.50 75.50 33.05 86.49
  C 33.20 86.64 33.05 86.62 33.42 86.62
  Z"
/>
<path fill="#285471" d="
  M 33.51 2.52
  C 48.37 2.54 60.89 12.84 63.73 27.26
  Q 65.60 36.77 61.38 47.97
  C 55.84 62.70 45.36 75.52 33.79 86.49
  C 33.65 86.64 33.79 86.62 33.42 86.62
  C 33.05 86.62 33.20 86.64 33.05 86.49
  C 21.50 75.50 11.05 62.65 5.54 47.91
  Q 1.34 36.70 3.24 27.20
  C 6.10 12.78 18.64 2.51 33.51 2.52
  Z
  M 48.75 35.32
  L 48.75 46.15
  A 0.61 0.60 0.0 0 0 49.36 46.75
  L 50.63 46.75
  A 0.64 0.63 -0.0 0 0 51.27 46.12
  L 51.27 22.40
  A 1.16 1.15 -0.0 0 0 50.11 21.25
  L 49.71 21.25
  A 0.96 0.96 0.0 0 0 48.75 22.21
  L 48.75 31.91
  A 0.60 0.60 0.0 0 1 48.15 32.51
  L 41.70 32.51
  A 0.77 0.76 -6.1 0 1 40.95 31.91
  Q 39.96 27.63 35.24 27.33
  A 1.37 1.34 31.5 0 0 34.46 27.51
  L 32.93 28.39
  A 0.95 0.94 -46.2 0 1 32.02 28.41
  C 28.94 26.77 24.86 28.49 25.28 32.14
  A 0.34 0.33 -3.0 0 1 24.94 32.51
  L 17.59 32.51
  A 0.33 0.33 0.0 0 1 17.26 32.18
  L 17.26 22.36
  A 1.12 1.12 0.0 0 0 16.14 21.24
  L 15.74 21.24
  A 0.98 0.98 0.0 0 0 14.76 22.22
  L 14.76 46.19
  A 0.56 0.56 0.0 0 0 15.32 46.75
  L 16.70 46.75
  A 0.57 0.57 0.0 0 0 17.27 46.18
  L 17.27 35.31
  A 0.54 0.54 0.0 0 1 17.81 34.77
  L 27.86 34.77
  A 0.61 0.61 0.0 0 1 28.47 35.37
  Q 28.54 38.46 31.22 39.60
  C 33.47 40.56 36.61 39.22 36.99 36.98
  A 3.10 2.31 -0.7 0 1 39.63 34.96
  Q 42.98 34.60 48.22 34.77
  A 0.55 0.54 -89.5 0 1 48.75 35.32
  Z
  M 19.97 22.45
  L 19.98 28.57
  A 1.45 1.45 0.0 0 0 22.68 29.30
  Q 25.79 23.96 31.86 25.30
  A 1.66 1.63 39.8 0 0 32.83 25.22
  C 37.18 23.39 40.68 25.61 43.07 29.27
  A 1.61 1.61 0.0 0 0 46.03 28.39
  L 46.04 22.43
  A 0.69 0.68 2.8 0 0 45.42 21.75
  Q 33.10 20.69 20.63 21.74
  A 0.71 0.71 0.0 0 0 19.97 22.45
  Z
  M 32.97 46.76
  Q 44.85 46.74 45.27 46.74
  A 0.72 0.71 -0.4 0 0 45.98 46.03
  L 45.98 38.21
  A 0.74 0.73 0.0 0 0 45.24 37.48
  L 40.93 37.48
  A 1.38 1.38 0.0 0 0 39.72 38.20
  Q 37.25 42.76 32.96 42.77
  Q 28.68 42.78 26.20 38.22
  A 1.38 1.38 0.0 0 0 24.98 37.50
  L 20.67 37.52
  A 0.74 0.73 -0.2 0 0 19.94 38.25
  L 19.96 46.07
  A 0.72 0.71 0.2 0 0 20.67 46.78
  Q 21.10 46.78 32.97 46.76
  Z"
/>
<path fill="#ffffff" d="
  M 48.22 34.77
  Q 42.98 34.60 39.63 34.96
  A 3.10 2.31 -0.7 0 0 36.99 36.98
  C 36.61 39.22 33.47 40.56 31.22 39.60
  Q 28.54 38.46 28.47 35.37
  A 0.61 0.61 0.0 0 0 27.86 34.77
  L 17.81 34.77
  A 0.54 0.54 0.0 0 0 17.27 35.31
  L 17.27 46.18
  A 0.57 0.57 0.0 0 1 16.70 46.75
  L 15.32 46.75
  A 0.56 0.56 0.0 0 1 14.76 46.19
  L 14.76 22.22
  A 0.98 0.98 0.0 0 1 15.74 21.24
  L 16.14 21.24
  A 1.12 1.12 0.0 0 1 17.26 22.36
  L 17.26 32.18
  A 0.33 0.33 0.0 0 0 17.59 32.51
  L 24.94 32.51
  A 0.34 0.33 -3.0 0 0 25.28 32.14
  C 24.86 28.49 28.94 26.77 32.02 28.41
  A 0.95 0.94 -46.2 0 0 32.93 28.39
  L 34.46 27.51
  A 1.37 1.34 31.5 0 1 35.24 27.33
  Q 39.96 27.63 40.95 31.91
  A 0.77 0.76 -6.1 0 0 41.70 32.51
  L 48.15 32.51
  A 0.60 0.60 0.0 0 0 48.75 31.91
  L 48.75 22.21
  A 0.96 0.96 0.0 0 1 49.71 21.25
  L 50.11 21.25
  A 1.16 1.15 0.0 0 1 51.27 22.40
  L 51.27 46.12
  A 0.64 0.63 0.0 0 1 50.63 46.75
  L 49.36 46.75
  A 0.61 0.60 0.0 0 1 48.75 46.15
  L 48.75 35.32
  A 0.55 0.54 -89.5 0 0 48.22 34.77
  Z
  M 34.8851 30.1185
  A 2.11 1.27 -139.1 0 0 35.6485 32.4599
  A 2.11 1.27 -139.1 0 0 38.0749 32.8815
  A 2.11 1.27 -139.1 0 0 37.3115 30.5401
  A 2.11 1.27 -139.1 0 0 34.8851 30.1185
  Z
  M 31.0901 31.1715
  A 1.69 1.19 -8.8 0 0 29.2379 30.2540
  A 1.69 1.19 -8.8 0 0 27.7499 31.6885
  A 1.69 1.19 -8.8 0 0 29.6021 32.6060
  A 1.69 1.19 -8.8 0 0 31.0901 31.1715
  Z
  M 34.43 35.85
  A 1.65 1.65 0.0 0 0 32.78 34.20
  A 1.65 1.65 0.0 0 0 31.13 35.85
  A 1.65 1.65 0.0 0 0 32.78 37.50
  A 1.65 1.65 0.0 0 0 34.43 35.85
  Z"
/>
<path fill="#ffffff" d="
  M 20.63 21.74
  Q 33.10 20.69 45.42 21.75
  A 0.69 0.68 2.8 0 1 46.04 22.43
  L 46.03 28.39
  A 1.61 1.61 0.0 0 1 43.07 29.27
  C 40.68 25.61 37.18 23.39 32.83 25.22
  A 1.66 1.63 39.8 0 1 31.86 25.30
  Q 25.79 23.96 22.68 29.30
  A 1.45 1.45 0.0 0 1 19.98 28.57
  L 19.97 22.45
  A 0.71 0.71 0.0 0 1 20.63 21.74
  Z"
/>
<ellipse fill="#285471" cx="0.00" cy="0.00" transform="translate(36.48,31.50) rotate(-139.1)" rx="2.11" ry="1.27"/>
<ellipse fill="#285471" cx="0.00" cy="0.00" transform="translate(29.42,31.43) rotate(-8.8)" rx="1.69" ry="1.19"/>
<circle fill="#285471" cx="32.78" cy="35.85" r="1.65"/>
<path fill="#ffffff" d="
  M 32.96 42.77
  Q 37.25 42.76 39.72 38.20
  A 1.38 1.38 0.0 0 1 40.93 37.48
  L 45.24 37.48
  A 0.74 0.73 0.0 0 1 45.98 38.21
  L 45.98 46.03
  A 0.72 0.71 -0.4 0 1 45.27 46.74
  Q 44.85 46.74 32.97 46.76
  Q 21.10 46.78 20.67 46.78
  A 0.72 0.71 0.2 0 1 19.96 46.07
  L 19.94 38.25
  A 0.74 0.73 -0.2 0 1 20.67 37.52
  L 24.98 37.50
  A 1.38 1.38 0.0 0 1 26.20 38.22
  Q 28.68 42.78 32.96 42.77
  Z"
/>
</svg>
