<?xml version="1.0" encoding="UTF-8" standalone="no"?>
<!DOCTYPE svg PUBLIC "-//W3C//DTD SVG 1.1//EN" "http://www.w3.org/Graphics/SVG/1.1/DTD/svg11.dtd">
<svg xmlns="http://www.w3.org/2000/svg" version="1.1" viewBox="0.00 0.00 66.00 88.00">
<g stroke-width="2.00" fill="none" stroke-linecap="butt">
<path stroke="#1b292f" vector-effect="non-scaling-stroke" d="
  M 33.41 86.53
  Q 33.55 86.53 33.65 86.43
  Q 49.30 72.23 58.47 54.70
  Q 63.87 44.39 64.16 33.52
  Q 64.44 23.21 58.61 15.38
  C 52.68 7.42 43.70 2.52 33.52 2.51
  C 23.34 2.49 14.35 7.37 8.39 15.32
  Q 2.55 23.13 2.80 33.44
  Q 3.06 44.31 8.44 54.64
  Q 17.56 72.19 33.17 86.43
  Q 33.28 86.53 33.41 86.53"
/>
<path stroke="#919a9e" vector-effect="non-scaling-stroke" d="
  M 32.20 20.97
  Q 38.41 19.91 41.86 24.14
  Q 43.67 26.36 43.97 33.93
  Q 44.38 44.19 44.22 51.81
  A 0.43 0.43 0.0 0 0 44.65 52.24
  L 52.37 52.24
  A 0.42 0.42 0.0 0 0 52.79 51.80
  Q 52.49 45.45 52.12 38.86
  Q 51.88 34.61 50.70 30.53
  A 1.89 1.88 -86.6 0 0 49.65 29.34
  Q 48.21 28.71 46.61 27.02
  A 0.54 0.53 -43.8 0 1 46.63 26.27
  Q 48.27 24.71 47.98 21.72
  A 1.22 1.19 20.4 0 0 47.63 20.98
  L 42.80 16.15
  A 1.37 1.37 0.0 0 0 41.81 15.75
  Q 29.93 15.92 19.95 22.37
  A 1.93 1.91 83.7 0 0 19.19 23.33
  Q 17.21 28.99 15.38 34.93
  Q 13.01 42.60 13.27 51.65
  A 0.62 0.61 89.0 0 0 13.88 52.25
  L 24.04 52.25
  A 0.58 0.58 0.0 0 0 24.62 51.67
  L 24.62 32.90
  A 1.23 1.23 0.0 0 1 26.32 31.76
  L 28.20 32.54
  A 3.24 3.23 -79.0 0 1 30.21 35.54
  L 30.21 51.79
  A 0.45 0.45 0.0 0 0 30.66 52.24
  L 33.26 52.24
  A 0.52 0.52 0.0 0 0 33.78 51.72
  Q 33.80 46.07 33.47 36.51
  Q 33.37 33.82 32.60 32.64
  C 31.04 30.26 28.50 28.60 25.63 27.97
  A 0.52 0.52 0.0 0 1 25.26 27.27
  Q 25.90 25.64 27.30 25.28
  Q 32.58 23.95 35.51 28.05
  A 2.85 2.77 -67.2 0 1 36.02 29.35
  Q 37.34 40.47 36.93 51.95
  A 0.28 0.28 0.0 0 0 37.21 52.24
  L 39.90 52.24
  A 0.29 0.29 0.0 0 0 40.19 51.96
  Q 40.61 40.22 39.33 29.17
  A 3.75 3.61 32.6 0 0 39.13 28.33
  Q 37.54 24.28 34.21 22.66
  Q 32.30 21.73 32.07 21.58
  A 0.34 0.33 -33.3 0 1 32.20 20.97"
/>
</g>
<path fill="#121d21" d="
  M 33.80 88.00
  L 33.04 88.00
  C 21.78 77.77 12.28 65.83 5.73 51.78
  Q 2.15 44.08 1.59 34.60
  C 0.67 19.30 10.76 6.30 25.30 2.40
  C 40.58 -1.70 56.35 5.87 62.98 20.58
  C 66.63 28.67 65.93 38.72 63.05 47.03
  C 57.66 62.62 45.90 77.00 33.80 88.00
  Z
  M 33.41 86.53
  Q 33.55 86.53 33.65 86.43
  Q 49.30 72.23 58.47 54.70
  Q 63.87 44.39 64.16 33.52
  Q 64.44 23.21 58.61 15.38
  C 52.68 7.42 43.70 2.52 33.52 2.51
  C 23.34 2.49 14.35 7.37 8.39 15.32
  Q 2.55 23.13 2.80 33.44
  Q 3.06 44.31 8.44 54.64
  Q 17.56 72.19 33.17 86.43
  Q 33.28 86.53 33.41 86.53
  Z"
/>
<path fill="#23353d" d="
  M 33.52 2.51
  C 43.70 2.52 52.68 7.42 58.61 15.38
  Q 64.44 23.21 64.16 33.52
  Q 63.87 44.39 58.47 54.70
  Q 49.30 72.23 33.65 86.43
  Q 33.55 86.53 33.41 86.53
  Q 33.28 86.53 33.17 86.43
  Q 17.56 72.19 8.44 54.64
  Q 3.06 44.31 2.80 33.44
  Q 2.55 23.13 8.39 15.32
  C 14.35 7.37 23.34 2.49 33.52 2.51
  Z
  M 32.20 20.97
  Q 38.41 19.91 41.86 24.14
  Q 43.67 26.36 43.97 33.93
  Q 44.38 44.19 44.22 51.81
  A 0.43 0.43 0.0 0 0 44.65 52.24
  L 52.37 52.24
  A 0.42 0.42 0.0 0 0 52.79 51.80
  Q 52.49 45.45 52.12 38.86
  Q 51.88 34.61 50.70 30.53
  A 1.89 1.88 -86.6 0 0 49.65 29.34
  Q 48.21 28.71 46.61 27.02
  A 0.54 0.53 -43.8 0 1 46.63 26.27
  Q 48.27 24.71 47.98 21.72
  A 1.22 1.19 20.4 0 0 47.63 20.98
  L 42.80 16.15
  A 1.37 1.37 0.0 0 0 41.81 15.75
  Q 29.93 15.92 19.95 22.37
  A 1.93 1.91 83.7 0 0 19.19 23.33
  Q 17.21 28.99 15.38 34.93
  Q 13.01 42.60 13.27 51.65
  A 0.62 0.61 89.0 0 0 13.88 52.25
  L 24.04 52.25
  A 0.58 0.58 0.0 0 0 24.62 51.67
  L 24.62 32.90
  A 1.23 1.23 0.0 0 1 26.32 31.76
  L 28.20 32.54
  A 3.24 3.23 -79.0 0 1 30.21 35.54
  L 30.21 51.79
  A 0.45 0.45 0.0 0 0 30.66 52.24
  L 33.26 52.24
  A 0.52 0.52 0.0 0 0 33.78 51.72
  Q 33.80 46.07 33.47 36.51
  Q 33.37 33.82 32.60 32.64
  C 31.04 30.26 28.50 28.60 25.63 27.97
  A 0.52 0.52 0.0 0 1 25.26 27.27
  Q 25.90 25.64 27.30 25.28
  Q 32.58 23.95 35.51 28.05
  A 2.85 2.77 -67.2 0 1 36.02 29.35
  Q 37.34 40.47 36.93 51.95
  A 0.28 0.28 0.0 0 0 37.21 52.24
  L 39.90 52.24
  A 0.29 0.29 0.0 0 0 40.19 51.96
  Q 40.61 40.22 39.33 29.17
  A 3.75 3.61 32.6 0 0 39.13 28.33
  Q 37.54 24.28 34.21 22.66
  Q 32.30 21.73 32.07 21.58
  A 0.34 0.33 -33.3 0 1 32.20 20.97
  Z"
/>
<path fill="#ffffff" d="
  M 32.07 21.58
  Q 32.30 21.73 34.21 22.66
  Q 37.54 24.28 39.13 28.33
  A 3.75 3.61 32.6 0 1 39.33 29.17
  Q 40.61 40.22 40.19 51.96
  A 0.29 0.29 0.0 0 1 39.90 52.24
  L 37.21 52.24
  A 0.28 0.28 0.0 0 1 36.93 51.95
  Q 37.34 40.47 36.02 29.35
  A 2.85 2.77 -67.2 0 0 35.51 28.05
  Q 32.58 23.95 27.30 25.28
  Q 25.90 25.64 25.26 27.27
  A 0.52 0.52 0.0 0 0 25.63 27.97
  C 28.50 28.60 31.04 30.26 32.60 32.64
  Q 33.37 33.82 33.47 36.51
  Q 33.80 46.07 33.78 51.72
  A 0.52 0.52 0.0 0 1 33.26 52.24
  L 30.66 52.24
  A 0.45 0.45 0.0 0 1 30.21 51.79
  L 30.21 35.54
  A 3.24 3.23 -79.0 0 0 28.20 32.54
  L 26.32 31.76
  A 1.23 1.23 0.0 0 0 24.62 32.90
  L 24.62 51.67
  A 0.58 0.58 0.0 0 1 24.04 52.25
  L 13.88 52.25
  A 0.62 0.61 89.0 0 1 13.27 51.65
  Q 13.01 42.60 15.38 34.93
  Q 17.21 28.99 19.19 23.33
  A 1.93 1.91 83.7 0 1 19.95 22.37
  Q 29.93 15.92 41.81 15.75
  A 1.37 1.37 0.0 0 1 42.80 16.15
  L 47.63 20.98
  A 1.22 1.19 20.4 0 1 47.98 21.72
  Q 48.27 24.71 46.63 26.27
  A 0.54 0.53 -43.8 0 0 46.61 27.02
  Q 48.21 28.71 49.65 29.34
  A 1.89 1.88 -86.6 0 1 50.70 30.53
  Q 51.88 34.61 52.12 38.86
  Q 52.49 45.45 52.79 51.80
  A 0.42 0.42 0.0 0 1 52.37 52.24
  L 44.65 52.24
  A 0.43 0.43 0.0 0 1 44.22 51.81
  Q 44.38 44.19 43.97 33.93
  Q 43.67 26.36 41.86 24.14
  Q 38.41 19.91 32.20 20.97
  A 0.34 0.33 -33.3 0 0 32.07 21.58
  Z"
/>
</svg>
