<?xml version="1.0" encoding="UTF-8" standalone="no"?>
<!DOCTYPE svg PUBLIC "-//W3C//DTD SVG 1.1//EN" "http://www.w3.org/Graphics/SVG/1.1/DTD/svg11.dtd">
<svg xmlns="http://www.w3.org/2000/svg" version="1.1" viewBox="0.00 0.00 66.00 88.00">
<g stroke-width="2.00" fill="none" stroke-linecap="butt">
<path stroke="#3f2d4a" vector-effect="non-scaling-stroke" d="
  M 33.43 86.54
  C 33.82 86.54 33.60 86.56 33.76 86.42
  Q 43.51 77.92 53.52 63.27
  C 64.14 47.71 70.13 26.86 55.64 11.86
  Q 47.26 3.18 34.75 2.52
  Q 33.96 2.47 33.49 2.47
  Q 33.02 2.47 32.23 2.51
  Q 19.72 3.16 11.33 11.83
  C -3.18 26.81 2.78 47.66 13.37 63.24
  Q 23.36 77.90 33.10 86.42
  C 33.26 86.56 33.04 86.54 33.43 86.54"
/>
<path stroke="#a99db0" vector-effect="non-scaling-stroke" d="
  M 23.18 24.14
  Q 20.58 26.73 19.50 30.62
  A 1.70 1.69 -8.3 0 1 18.76 31.60
  Q 17.03 32.65 15.33 33.54
  Q 15.03 33.69 15.03 33.97
  Q 15.03 34.24 15.33 34.40
  Q 17.03 35.29 18.75 36.34
  A 1.70 1.69 8.5 0 1 19.49 37.33
  Q 20.56 41.21 23.15 43.81
  Q 25.74 46.41 29.62 47.49
  A 1.70 1.69 81.7 0 1 30.60 48.22
  Q 31.65 49.95 32.54 51.66
  Q 32.70 51.95 32.97 51.95
  Q 33.24 51.95 33.40 51.66
  Q 34.29 49.96 35.35 48.23
  A 1.70 1.69 -81.5 0 1 36.33 47.50
  Q 40.22 46.43 42.81 43.84
  Q 45.41 41.25 46.49 37.37
  A 1.70 1.69 -8.3 0 1 47.23 36.38
  Q 48.96 35.33 50.66 34.44
  Q 50.96 34.29 50.96 34.02
  Q 50.96 33.74 50.66 33.59
  Q 48.96 32.69 47.23 31.64
  A 1.70 1.69 8.5 0 1 46.50 30.65
  Q 45.43 26.77 42.84 24.17
  Q 40.25 21.57 36.37 20.49
  A 1.70 1.69 81.7 0 1 35.38 19.76
  Q 34.33 18.03 33.45 16.32
  Q 33.29 16.03 33.02 16.03
  Q 32.74 16.03 32.59 16.32
  Q 31.70 18.02 30.64 19.75
  A 1.70 1.69 -81.5 0 1 29.66 20.48
  Q 25.77 21.55 23.18 24.14"
/>
<path stroke="#a99db0" vector-effect="non-scaling-stroke" d="
  M 25.03 26.04
  Q 22.90 28.17 21.87 31.98
  A 1.23 1.23 0.0 0 1 21.23 32.75
  Q 19.40 33.65 19.40 34.00
  Q 19.40 34.35 21.22 35.24
  A 1.23 1.23 0.0 0 1 21.86 36.02
  Q 22.90 39.83 25.03 41.96
  Q 27.15 44.09 30.96 45.13
  A 1.23 1.23 0.0 0 1 31.74 45.77
  Q 32.63 47.60 32.98 47.60
  Q 33.33 47.60 34.23 45.77
  A 1.23 1.23 0.0 0 1 35.00 45.13
  Q 38.82 44.10 40.95 41.97
  Q 43.08 39.84 44.11 36.03
  A 1.23 1.23 0.0 0 1 44.75 35.25
  Q 46.58 34.36 46.58 34.01
  Q 46.58 33.66 44.75 32.77
  A 1.23 1.23 0.0 0 1 44.11 31.99
  Q 43.08 28.18 40.95 26.05
  Q 38.83 23.92 35.01 22.88
  A 1.23 1.23 0.0 0 1 34.24 22.24
  Q 33.35 20.41 33.00 20.41
  Q 32.65 20.41 31.75 22.24
  A 1.23 1.23 0.0 0 1 30.97 22.88
  Q 27.16 23.91 25.03 26.04"
/>
</g>
<path fill="#2a1e32" d="
  M 33.80 88.00
  L 33.04 88.00
  C 21.68 77.68 12.12 65.67 5.62 51.40
  Q 2.10 43.69 1.57 34.83
  C 0.60 18.81 11.15 5.80 26.68 2.03
  Q 34.31 0.18 43.07 2.79
  Q 51.22 5.21 56.94 11.43
  Q 67.86 23.28 64.84 39.76
  Q 62.54 52.30 54.57 64.07
  Q 45.67 77.20 33.80 88.00
  Z
  M 33.43 86.54
  C 33.82 86.54 33.60 86.56 33.76 86.42
  Q 43.51 77.92 53.52 63.27
  C 64.14 47.71 70.13 26.86 55.64 11.86
  Q 47.26 3.18 34.75 2.52
  Q 33.96 2.47 33.49 2.47
  Q 33.02 2.47 32.23 2.51
  Q 19.72 3.16 11.33 11.83
  C -3.18 26.81 2.78 47.66 13.37 63.24
  Q 23.36 77.90 33.10 86.42
  C 33.26 86.56 33.04 86.54 33.43 86.54
  Z"
/>
<path fill="#533b61" d="
  M 33.49 2.47
  Q 33.96 2.47 34.75 2.52
  Q 47.26 3.18 55.64 11.86
  C 70.13 26.86 64.14 47.71 53.52 63.27
  Q 43.51 77.92 33.76 86.42
  C 33.60 86.56 33.82 86.54 33.43 86.54
  C 33.04 86.54 33.26 86.56 33.10 86.42
  Q 23.36 77.90 13.37 63.24
  C 2.78 47.66 -3.18 26.81 11.33 11.83
  Q 19.72 3.16 32.23 2.51
  Q 33.02 2.47 33.49 2.47
  Z
  M 23.18 24.14
  Q 20.58 26.73 19.50 30.62
  A 1.70 1.69 -8.3 0 1 18.76 31.60
  Q 17.03 32.65 15.33 33.54
  Q 15.03 33.69 15.03 33.97
  Q 15.03 34.24 15.33 34.40
  Q 17.03 35.29 18.75 36.34
  A 1.70 1.69 8.5 0 1 19.49 37.33
  Q 20.56 41.21 23.15 43.81
  Q 25.74 46.41 29.62 47.49
  A 1.70 1.69 81.7 0 1 30.60 48.22
  Q 31.65 49.95 32.54 51.66
  Q 32.70 51.95 32.97 51.95
  Q 33.24 51.95 33.40 51.66
  Q 34.29 49.96 35.35 48.23
  A 1.70 1.69 -81.5 0 1 36.33 47.50
  Q 40.22 46.43 42.81 43.84
  Q 45.41 41.25 46.49 37.37
  A 1.70 1.69 -8.3 0 1 47.23 36.38
  Q 48.96 35.33 50.66 34.44
  Q 50.96 34.29 50.96 34.02
  Q 50.96 33.74 50.66 33.59
  Q 48.96 32.69 47.23 31.64
  A 1.70 1.69 8.5 0 1 46.50 30.65
  Q 45.43 26.77 42.84 24.17
  Q 40.25 21.57 36.37 20.49
  A 1.70 1.69 81.7 0 1 35.38 19.76
  Q 34.33 18.03 33.45 16.32
  Q 33.29 16.03 33.02 16.03
  Q 32.74 16.03 32.59 16.32
  Q 31.70 18.02 30.64 19.75
  A 1.70 1.69 -81.5 0 1 29.66 20.48
  Q 25.77 21.55 23.18 24.14
  Z"
/>
<path fill="#ffffff" d="
  M 33.02 16.03
  Q 33.29 16.03 33.45 16.32
  Q 34.33 18.03 35.38 19.76
  A 1.70 1.69 81.7 0 0 36.37 20.49
  Q 40.25 21.57 42.84 24.17
  Q 45.43 26.77 46.50 30.65
  A 1.70 1.69 8.5 0 0 47.23 31.64
  Q 48.96 32.69 50.66 33.59
  Q 50.96 33.74 50.96 34.02
  Q 50.96 34.29 50.66 34.44
  Q 48.96 35.33 47.23 36.38
  A 1.70 1.69 -8.3 0 0 46.49 37.37
  Q 45.41 41.25 42.81 43.84
  Q 40.22 46.43 36.33 47.50
  A 1.70 1.69 -81.5 0 0 35.35 48.23
  Q 34.29 49.96 33.40 51.66
  Q 33.24 51.95 32.97 51.95
  Q 32.70 51.95 32.54 51.66
  Q 31.65 49.95 30.60 48.22
  A 1.70 1.69 81.7 0 0 29.62 47.49
  Q 25.74 46.41 23.15 43.81
  Q 20.56 41.21 19.49 37.33
  A 1.70 1.69 8.5 0 0 18.75 36.34
  Q 17.03 35.29 15.33 34.40
  Q 15.03 34.24 15.03 33.97
  Q 15.03 33.69 15.33 33.54
  Q 17.03 32.65 18.76 31.60
  A 1.70 1.69 -8.3 0 0 19.50 30.62
  Q 20.58 26.73 23.18 24.14
  Q 25.77 21.55 29.66 20.48
  A 1.70 1.69 -81.5 0 0 30.64 19.75
  Q 31.70 18.02 32.59 16.32
  Q 32.74 16.03 33.02 16.03
  Z
  M 25.03 26.04
  Q 22.90 28.17 21.87 31.98
  A 1.23 1.23 0.0 0 1 21.23 32.75
  Q 19.40 33.65 19.40 34.00
  Q 19.40 34.35 21.22 35.24
  A 1.23 1.23 0.0 0 1 21.86 36.02
  Q 22.90 39.83 25.03 41.96
  Q 27.15 44.09 30.96 45.13
  A 1.23 1.23 0.0 0 1 31.74 45.77
  Q 32.63 47.60 32.98 47.60
  Q 33.33 47.60 34.23 45.77
  A 1.23 1.23 0.0 0 1 35.00 45.13
  Q 38.82 44.10 40.95 41.97
  Q 43.08 39.84 44.11 36.03
  A 1.23 1.23 0.0 0 1 44.75 35.25
  Q 46.58 34.36 46.58 34.01
  Q 46.58 33.66 44.75 32.77
  A 1.23 1.23 0.0 0 1 44.11 31.99
  Q 43.08 28.18 40.95 26.05
  Q 38.83 23.92 35.01 22.88
  A 1.23 1.23 0.0 0 1 34.24 22.24
  Q 33.35 20.41 33.00 20.41
  Q 32.65 20.41 31.75 22.24
  A 1.23 1.23 0.0 0 1 30.97 22.88
  Q 27.16 23.91 25.03 26.04
  Z"
/>
<path fill="#533b61" d="
  M 33.00 20.41
  Q 33.35 20.41 34.24 22.24
  A 1.23 1.23 0.0 0 0 35.01 22.88
  Q 38.83 23.92 40.95 26.05
  Q 43.08 28.18 44.11 31.99
  A 1.23 1.23 0.0 0 0 44.75 32.77
  Q 46.58 33.66 46.58 34.01
  Q 46.58 34.36 44.75 35.25
  A 1.23 1.23 0.0 0 0 44.11 36.03
  Q 43.08 39.84 40.95 41.97
  Q 38.82 44.10 35.00 45.13
  A 1.23 1.23 0.0 0 0 34.23 45.77
  Q 33.33 47.60 32.98 47.60
  Q 32.63 47.60 31.74 45.77
  A 1.23 1.23 0.0 0 0 30.96 45.13
  Q 27.15 44.09 25.03 41.96
  Q 22.90 39.83 21.86 36.02
  A 1.23 1.23 0.0 0 0 21.22 35.24
  Q 19.40 34.35 19.40 34.00
  Q 19.40 33.65 21.23 32.75
  A 1.23 1.23 0.0 0 0 21.87 31.98
  Q 22.90 28.17 25.03 26.04
  Q 27.16 23.91 30.97 22.88
  A 1.23 1.23 0.0 0 0 31.75 22.24
  Q 32.65 20.41 33.00 20.41
  Z"
/>
</svg>
