<?xml version="1.0" encoding="UTF-8" standalone="no"?>
<!DOCTYPE svg PUBLIC "-//W3C//DTD SVG 1.1//EN" "http://www.w3.org/Graphics/SVG/1.1/DTD/svg11.dtd">
<svg xmlns="http://www.w3.org/2000/svg" version="1.1" viewBox="0.00 0.00 66.00 88.00">
<g stroke-width="2.00" fill="none" stroke-linecap="butt">
<path stroke="#792139" vector-effect="non-scaling-stroke" d="
  M 33.42 86.68
  Q 33.53 86.68 33.62 86.66
  Q 33.66 86.65 33.76 86.57
  Q 44.83 76.23 53.25 63.76
  C 59.27 54.85 63.97 44.51 64.25 33.48
  C 64.69 16.38 50.49 2.48 33.51 2.46
  C 16.52 2.45 2.30 16.32 2.70 33.42
  C 2.96 44.45 7.64 54.80 13.64 63.72
  Q 22.04 76.21 33.09 86.57
  Q 33.19 86.65 33.23 86.66
  Q 33.32 86.68 33.42 86.68"
/>
<path stroke="#b6617a" vector-effect="non-scaling-stroke" d="
  M 28.68 46.95
  Q 33.16 50.47 37.24 46.94"
/>
<path stroke="#cf96a6" vector-effect="non-scaling-stroke" d="
  M 37.24 46.94
  Q 38.15 45.89 38.25 42.27
  Q 38.39 37.33 43.17 35.72
  A 0.87 0.87 0.0 0 0 43.75 35.03
  C 44.87 28.04 41.16 19.37 32.98 19.42
  C 24.80 19.46 21.09 28.03 22.24 35.07
  A 0.88 0.87 5.0 0 0 22.83 35.77
  Q 27.14 37.14 27.58 41.16
  Q 28.05 45.40 28.68 46.95"
/>
<path stroke="#e7cbd3" vector-effect="non-scaling-stroke" d="
  M 37.24 46.94
  Q 36.75 44.10 37.06 42.43
  A 1.45 1.44 -84.8 0 0 35.64 40.72
  L 30.39 40.72
  A 1.45 1.45 0.0 0 0 28.97 42.45
  Q 29.30 44.15 28.68 46.95"
/>
<path stroke="#cf96a6" vector-effect="non-scaling-stroke" d="
  M 31.41 32.69
  L 24.79 30.08
  A 0.20 0.20 0.0 0 0 24.53 30.20
  L 24.49 30.29
  A 3.64 3.57 -68.5 0 0 26.48 34.98
  L 26.83 35.12
  A 3.64 3.57 -68.5 0 0 31.49 33.04
  L 31.53 32.95
  A 0.20 0.20 0.0 0 0 31.41 32.69"
/>
<path stroke="#cf96a6" vector-effect="non-scaling-stroke" d="
  M 41.21 30.06
  L 34.62 32.70
  A 0.20 0.20 0.0 0 0 34.51 32.96
  L 34.55 33.05
  A 3.64 3.55 68.2 0 0 39.20 35.11
  L 39.57 34.96
  A 3.64 3.55 68.2 0 0 41.51 30.27
  L 41.47 30.17
  A 0.20 0.20 0.0 0 0 41.21 30.06"
/>
<path stroke="#cf96a6" vector-effect="non-scaling-stroke" d="
  M 33.34 38.61
  Q 33.62 39.46 34.45 39.15
  A 0.82 0.80 81.9 0 0 34.98 38.43
  Q 35.08 36.46 33.57 34.65
  A 0.77 0.76 44.8 0 0 32.40 34.65
  Q 30.87 36.48 31.06 38.61
  A 0.68 0.67 -31.9 0 0 32.31 38.90
  L 32.54 38.52
  A 0.44 0.44 0.0 0 1 33.34 38.61"
/>
</g>
<path fill="#531525" d="
  M 33.80 88.00
  L 33.04 88.00
  C 21.76 77.75 12.12 65.68 5.65 51.56
  Q 2.21 44.06 1.60 34.89
  C 0.55 19.00 11.23 5.60 26.48 2.12
  C 41.69 -1.35 56.86 6.48 63.19 21.06
  C 66.41 28.49 65.93 37.76 63.53 45.52
  C 58.55 61.65 46.15 76.77 33.80 88.00
  Z
  M 33.42 86.68
  Q 33.53 86.68 33.62 86.66
  Q 33.66 86.65 33.76 86.57
  Q 44.83 76.23 53.25 63.76
  C 59.27 54.85 63.97 44.51 64.25 33.48
  C 64.69 16.38 50.49 2.48 33.51 2.46
  C 16.52 2.45 2.30 16.32 2.70 33.42
  C 2.96 44.45 7.64 54.80 13.64 63.72
  Q 22.04 76.21 33.09 86.57
  Q 33.19 86.65 33.23 86.66
  Q 33.32 86.68 33.42 86.68
  Z"
/>
<path fill="#9e2c4d" d="
  M 33.51 2.46
  C 50.49 2.48 64.69 16.38 64.25 33.48
  C 63.97 44.51 59.27 54.85 53.25 63.76
  Q 44.83 76.23 33.76 86.57
  Q 33.66 86.65 33.62 86.66
  Q 33.53 86.68 33.42 86.68
  Q 33.32 86.68 33.23 86.66
  Q 33.19 86.65 33.09 86.57
  Q 22.04 76.21 13.64 63.72
  C 7.64 54.80 2.96 44.45 2.70 33.42
  C 2.30 16.32 16.52 2.45 33.51 2.46
  Z
  M 28.68 46.95
  Q 33.16 50.47 37.24 46.94
  Q 38.15 45.89 38.25 42.27
  Q 38.39 37.33 43.17 35.72
  A 0.87 0.87 0.0 0 0 43.75 35.03
  C 44.87 28.04 41.16 19.37 32.98 19.42
  C 24.80 19.46 21.09 28.03 22.24 35.07
  A 0.88 0.87 5.0 0 0 22.83 35.77
  Q 27.14 37.14 27.58 41.16
  Q 28.05 45.40 28.68 46.95
  Z"
/>
<path fill="#ffffff" d="
  M 37.24 46.94
  Q 36.75 44.10 37.06 42.43
  A 1.45 1.44 -84.8 0 0 35.64 40.72
  L 30.39 40.72
  A 1.45 1.45 0.0 0 0 28.97 42.45
  Q 29.30 44.15 28.68 46.95
  Q 28.05 45.40 27.58 41.16
  Q 27.14 37.14 22.83 35.77
  A 0.88 0.87 5.0 0 1 22.24 35.07
  C 21.09 28.03 24.80 19.46 32.98 19.42
  C 41.16 19.37 44.87 28.04 43.75 35.03
  A 0.87 0.87 0.0 0 1 43.17 35.72
  Q 38.39 37.33 38.25 42.27
  Q 38.15 45.89 37.24 46.94
  Z
  M 31.41 32.69
  L 24.79 30.08
  A 0.20 0.20 0.0 0 0 24.53 30.20
  L 24.49 30.29
  A 3.64 3.57 -68.5 0 0 26.48 34.98
  L 26.83 35.12
  A 3.64 3.57 -68.5 0 0 31.49 33.04
  L 31.53 32.95
  A 0.20 0.20 0.0 0 0 31.41 32.69
  Z
  M 41.21 30.06
  L 34.62 32.70
  A 0.20 0.20 0.0 0 0 34.51 32.96
  L 34.55 33.05
  A 3.64 3.55 68.2 0 0 39.20 35.11
  L 39.57 34.96
  A 3.64 3.55 68.2 0 0 41.51 30.27
  L 41.47 30.17
  A 0.20 0.20 0.0 0 0 41.21 30.06
  Z
  M 33.34 38.61
  Q 33.62 39.46 34.45 39.15
  A 0.82 0.80 81.9 0 0 34.98 38.43
  Q 35.08 36.46 33.57 34.65
  A 0.77 0.76 44.8 0 0 32.40 34.65
  Q 30.87 36.48 31.06 38.61
  A 0.68 0.67 -31.9 0 0 32.31 38.90
  L 32.54 38.52
  A 0.44 0.44 0.0 0 1 33.34 38.61
  Z"
/>
<path fill="#9e2c4d" d="
  M 31.41 32.69
  A 0.20 0.20 0.0 0 1 31.53 32.95
  L 31.49 33.04
  A 3.64 3.57 -68.5 0 1 26.83 35.12
  L 26.48 34.98
  A 3.64 3.57 -68.5 0 1 24.49 30.29
  L 24.53 30.20
  A 0.20 0.20 0.0 0 1 24.79 30.08
  L 31.41 32.69
  Z"
/>
<path fill="#9e2c4d" d="
  M 41.21 30.06
  A 0.20 0.20 0.0 0 1 41.47 30.17
  L 41.51 30.27
  A 3.64 3.55 68.2 0 1 39.57 34.96
  L 39.20 35.11
  A 3.64 3.55 68.2 0 1 34.55 33.05
  L 34.51 32.96
  A 0.20 0.20 0.0 0 1 34.62 32.70
  L 41.21 30.06
  Z"
/>
<path fill="#9e2c4d" d="
  M 32.54 38.52
  L 32.31 38.90
  A 0.68 0.67 -31.9 0 1 31.06 38.61
  Q 30.87 36.48 32.40 34.65
  A 0.77 0.76 44.8 0 1 33.57 34.65
  Q 35.08 36.46 34.98 38.43
  A 0.82 0.80 81.9 0 1 34.45 39.15
  Q 33.62 39.46 33.34 38.61
  A 0.44 0.44 0.0 0 0 32.54 38.52
  Z"
/>
<path fill="#ce96a6" d="
  M 37.24 46.94
  Q 33.16 50.47 28.68 46.95
  Q 29.30 44.15 28.97 42.45
  A 1.45 1.45 0.0 0 1 30.39 40.72
  L 35.64 40.72
  A 1.45 1.44 -84.8 0 1 37.06 42.43
  Q 36.75 44.10 37.24 46.94
  Z"
/>
</svg>
