<?xml version="1.0" encoding="UTF-8" standalone="no"?>
<!DOCTYPE svg PUBLIC "-//W3C//DTD SVG 1.1//EN" "http://www.w3.org/Graphics/SVG/1.1/DTD/svg11.dtd">
<svg xmlns="http://www.w3.org/2000/svg" version="1.1" viewBox="0.00 0.00 66.00 88.00">
<g stroke-width="2.00" fill="none" stroke-linecap="butt">
<path stroke="#1e4056" vector-effect="non-scaling-stroke" d="
  M 33.42 86.62
  C 34.17 86.62 33.56 86.67 33.78 86.47
  Q 44.87 76.14 53.26 63.76
  C 61.50 51.61 68.45 34.20 61.37 19.92
  C 56.06 9.23 45.47 2.55 33.51 2.54
  C 21.54 2.53 10.94 9.18 5.61 19.86
  C -1.50 34.13 5.41 51.55 13.63 63.72
  Q 21.99 76.12 33.06 86.47
  C 33.28 86.67 32.67 86.61 33.42 86.62"
/>
<path stroke="#94aab8" vector-effect="non-scaling-stroke" d="
  M 16.82 27.84
  C 19.77 28.07 23.26 29.25 25.35 31.43
  Q 27.01 33.16 27.60 33.58
  A 0.99 0.97 47.8 0 0 28.67 33.64
  L 49.56 21.58
  A 0.43 0.43 0.0 0 0 49.68 20.94
  Q 45.46 15.84 38.83 15.74
  A 3.33 3.24 -58.6 0 0 37.19 16.16
  L 16.75 27.54
  A 0.16 0.16 0.0 0 0 16.82 27.84"
/>
<path stroke="#94aab8" vector-effect="non-scaling-stroke" d="
  M 42.53 30.74
  L 42.53 31.73
  A 0.37 0.36 -15.3 0 0 43.08 32.04
  L 50.14 27.97
  A 1.28 1.28 0.0 0 0 50.78 26.86
  L 50.78 24.43
  A 0.39 0.39 0.0 0 0 50.19 24.09
  L 29.76 35.89
  A 0.53 0.52 75.5 0 0 29.49 36.35
  L 29.49 39.97
  A 0.17 0.17 0.0 0 0 29.74 40.12
  L 37.03 35.91
  A 1.09 1.07 -22.7 0 0 37.54 34.70
  Q 37.14 33.18 38.47 32.58
  C 39.65 32.04 40.37 31.44 41.99 30.44
  A 0.36 0.35 -15.8 0 1 42.53 30.74"
/>
<path stroke="#94aab8" vector-effect="non-scaling-stroke" d="
  M 38.14 37.79
  L 29.72 42.65
  A 0.45 0.45 0.0 0 0 29.49 43.04
  L 29.49 51.97
  A 0.13 0.12 -15.8 0 0 29.68 52.07
  L 50.31 39.60
  A 0.92 0.91 -16.0 0 0 50.75 38.82
  L 50.75 30.93
  A 0.44 0.44 0.0 0 0 50.09 30.55
  L 42.67 34.84
  A 1.56 1.55 -8.6 0 0 41.92 35.85
  L 41.13 39.49
  A 0.60 0.59 17.3 0 1 40.32 39.91
  Q 38.49 39.14 38.35 37.89
  A 0.14 0.14 0.0 0 0 38.14 37.79"
/>
<path stroke="#94aab8" vector-effect="non-scaling-stroke" d="
  M 26.50 39.90
  L 26.50 36.90
  A 1.80 1.77 -66.6 0 0 26.03 35.69
  Q 21.83 31.16 15.94 30.66
  A 0.63 0.63 0.0 0 0 15.25 31.29
  L 15.25 33.57
  A 1.03 1.03 0.0 0 0 15.76 34.46
  L 25.85 40.28
  A 0.44 0.43 -75.0 0 0 26.50 39.90"
/>
<path stroke="#94aab8" vector-effect="non-scaling-stroke" d="
  M 26.51 43.38
  A 0.34 0.34 0.0 0 0 26.34 43.08
  L 15.76 36.97
  A 0.34 0.34 0.0 0 0 15.25 37.27
  L 15.25 45.79
  A 0.34 0.34 0.0 0 0 15.42 46.09
  L 26.00 52.20
  A 0.34 0.34 0.0 0 0 26.51 51.90
  L 26.51 43.38"
/>
</g>
<path fill="#132c3a" d="
  M 33.81 88.00
  L 33.04 88.00
  C 21.75 77.74 12.13 65.68 5.65 51.56
  C 1.03 41.49 -0.44 28.40 5.12 18.28
  C 14.16 1.83 34.59 -3.70 50.61 6.28
  Q 62.31 13.57 64.90 27.06
  C 69.17 49.31 49.13 74.01 33.81 88.00
  Z
  M 33.42 86.62
  C 34.17 86.62 33.56 86.67 33.78 86.47
  Q 44.87 76.14 53.26 63.76
  C 61.50 51.61 68.45 34.20 61.37 19.92
  C 56.06 9.23 45.47 2.55 33.51 2.54
  C 21.54 2.53 10.94 9.18 5.61 19.86
  C -1.50 34.13 5.41 51.55 13.63 63.72
  Q 21.99 76.12 33.06 86.47
  C 33.28 86.67 32.67 86.61 33.42 86.62
  Z"
/>
<path fill="#285471" d="
  M 33.51 2.54
  C 45.47 2.55 56.06 9.23 61.37 19.92
  C 68.45 34.20 61.50 51.61 53.26 63.76
  Q 44.87 76.14 33.78 86.47
  C 33.56 86.67 34.17 86.62 33.42 86.62
  C 32.67 86.61 33.28 86.67 33.06 86.47
  Q 21.99 76.12 13.63 63.72
  C 5.41 51.55 -1.50 34.13 5.61 19.86
  C 10.94 9.18 21.54 2.53 33.51 2.54
  Z
  M 16.82 27.84
  C 19.77 28.07 23.26 29.25 25.35 31.43
  Q 27.01 33.16 27.60 33.58
  A 0.99 0.97 47.8 0 0 28.67 33.64
  L 49.56 21.58
  A 0.43 0.43 0.0 0 0 49.68 20.94
  Q 45.46 15.84 38.83 15.74
  A 3.33 3.24 -58.6 0 0 37.19 16.16
  L 16.75 27.54
  A 0.16 0.16 0.0 0 0 16.82 27.84
  Z
  M 42.53 30.74
  L 42.53 31.73
  A 0.37 0.36 -15.3 0 0 43.08 32.04
  L 50.14 27.97
  A 1.28 1.28 0.0 0 0 50.78 26.86
  L 50.78 24.43
  A 0.39 0.39 0.0 0 0 50.19 24.09
  L 29.76 35.89
  A 0.53 0.52 75.5 0 0 29.49 36.35
  L 29.49 39.97
  A 0.17 0.17 0.0 0 0 29.74 40.12
  L 37.03 35.91
  A 1.09 1.07 -22.7 0 0 37.54 34.70
  Q 37.14 33.18 38.47 32.58
  C 39.65 32.04 40.37 31.44 41.99 30.44
  A 0.36 0.35 -15.8 0 1 42.53 30.74
  Z
  M 38.14 37.79
  L 29.72 42.65
  A 0.45 0.45 0.0 0 0 29.49 43.04
  L 29.49 51.97
  A 0.13 0.12 -15.8 0 0 29.68 52.07
  L 50.31 39.60
  A 0.92 0.91 -16.0 0 0 50.75 38.82
  L 50.75 30.93
  A 0.44 0.44 0.0 0 0 50.09 30.55
  L 42.67 34.84
  A 1.56 1.55 -8.6 0 0 41.92 35.85
  L 41.13 39.49
  A 0.60 0.59 17.3 0 1 40.32 39.91
  Q 38.49 39.14 38.35 37.89
  A 0.14 0.14 0.0 0 0 38.14 37.79
  Z
  M 26.50 39.90
  L 26.50 36.90
  A 1.80 1.77 -66.6 0 0 26.03 35.69
  Q 21.83 31.16 15.94 30.66
  A 0.63 0.63 0.0 0 0 15.25 31.29
  L 15.25 33.57
  A 1.03 1.03 0.0 0 0 15.76 34.46
  L 25.85 40.28
  A 0.44 0.43 -75.0 0 0 26.50 39.90
  Z
  M 26.51 43.38
  A 0.34 0.34 0.0 0 0 26.34 43.08
  L 15.76 36.97
  A 0.34 0.34 0.0 0 0 15.25 37.27
  L 15.25 45.79
  A 0.34 0.34 0.0 0 0 15.42 46.09
  L 26.00 52.20
  A 0.34 0.34 0.0 0 0 26.51 51.90
  L 26.51 43.38
  Z"
/>
<path fill="#ffffff" d="
  M 16.82 27.84
  A 0.16 0.16 0.0 0 1 16.75 27.54
  L 37.19 16.16
  A 3.33 3.24 -58.6 0 1 38.83 15.74
  Q 45.46 15.84 49.68 20.94
  A 0.43 0.43 0.0 0 1 49.56 21.58
  L 28.67 33.64
  A 0.99 0.97 47.8 0 1 27.60 33.58
  Q 27.01 33.16 25.35 31.43
  C 23.26 29.25 19.77 28.07 16.82 27.84
  Z"
/>
<path fill="#ffffff" d="
  M 41.99 30.44
  C 40.37 31.44 39.65 32.04 38.47 32.58
  Q 37.14 33.18 37.54 34.70
  A 1.09 1.07 -22.7 0 1 37.03 35.91
  L 29.74 40.12
  A 0.17 0.17 0.0 0 1 29.49 39.97
  L 29.49 36.35
  A 0.53 0.52 75.5 0 1 29.76 35.89
  L 50.19 24.09
  A 0.39 0.39 0.0 0 1 50.78 24.43
  L 50.78 26.86
  A 1.28 1.28 0.0 0 1 50.14 27.97
  L 43.08 32.04
  A 0.37 0.36 -15.3 0 1 42.53 31.73
  L 42.53 30.74
  A 0.36 0.35 -15.8 0 0 41.99 30.44
  Z"
/>
<path fill="#ffffff" d="
  M 38.35 37.89
  Q 38.49 39.14 40.32 39.91
  A 0.60 0.59 17.3 0 0 41.13 39.49
  L 41.92 35.85
  A 1.56 1.55 -8.6 0 1 42.67 34.84
  L 50.09 30.55
  A 0.44 0.44 0.0 0 1 50.75 30.93
  L 50.75 38.82
  A 0.92 0.91 -16.0 0 1 50.31 39.60
  L 29.68 52.07
  A 0.13 0.12 -15.8 0 1 29.49 51.97
  L 29.49 43.04
  A 0.45 0.45 0.0 0 1 29.72 42.65
  L 38.14 37.79
  A 0.14 0.14 0.0 0 1 38.35 37.89
  Z"
/>
<path fill="#ffffff" d="
  M 25.85 40.28
  L 15.76 34.46
  A 1.03 1.03 0.0 0 1 15.25 33.57
  L 15.25 31.29
  A 0.63 0.63 0.0 0 1 15.94 30.66
  Q 21.83 31.16 26.03 35.69
  A 1.80 1.77 -66.6 0 1 26.50 36.90
  L 26.50 39.90
  A 0.44 0.43 -75.0 0 1 25.85 40.28
  Z"
/>
<path fill="#ffffff" d="
  M 26.51 43.38
  L 26.51 51.90
  A 0.34 0.34 0.0 0 1 26.00 52.20
  L 15.42 46.09
  A 0.34 0.34 0.0 0 1 15.25 45.79
  L 15.25 37.27
  A 0.34 0.34 0.0 0 1 15.76 36.97
  L 26.34 43.08
  A 0.34 0.34 0.0 0 1 26.51 43.38
  Z"
/>
</svg>
