<?xml version="1.0" encoding="UTF-8" standalone="no"?>
<!DOCTYPE svg PUBLIC "-//W3C//DTD SVG 1.1//EN" "http://www.w3.org/Graphics/SVG/1.1/DTD/svg11.dtd">
<svg xmlns="http://www.w3.org/2000/svg" version="1.1" viewBox="0.00 0.00 66.00 88.00">
<g stroke-width="2.00" fill="none" stroke-linecap="butt">
<path stroke="#ae8c4b" vector-effect="non-scaling-stroke" d="
  M 33.38 86.75
  Q 33.48 86.75 33.63 86.61
  C 50.01 71.54 73.33 42.09 60.66 18.52
  C 55.39 8.73 44.83 2.48 33.56 2.46
  C 22.28 2.43 11.69 8.64 6.39 18.41
  C -6.38 41.93 16.82 71.47 33.13 86.61
  Q 33.28 86.75 33.38 86.75"
/>
<path stroke="#f3ddb3" vector-effect="non-scaling-stroke" d="
  M 32.97 52.30
  Q 33.47 52.30 33.54 52.25
  Q 34.98 51.19 36.43 50.19
  A 6.56 6.29 -71.2 0 1 37.72 49.52
  Q 40.05 48.65 43.07 47.55
  C 49.52 45.22 52.56 39.75 50.81 32.86
  C 50.51 31.70 49.23 29.48 48.64 28.39
  A 0.93 0.93 0.0 0 1 49.06 27.11
  Q 52.35 25.54 50.86 23.56
  Q 46.90 18.25 45.52 16.44
  A 1.64 1.63 73.2 0 0 44.33 15.80
  Q 44.13 15.79 33.02 15.77
  Q 21.90 15.76 21.70 15.77
  A 1.64 1.63 -73.1 0 0 20.51 16.41
  Q 19.13 18.22 15.15 23.52
  Q 13.66 25.49 16.95 27.07
  A 0.93 0.93 0.0 0 1 17.36 28.35
  C 16.77 29.44 15.49 31.66 15.18 32.82
  C 13.42 39.70 16.44 45.18 22.89 47.53
  Q 25.90 48.63 28.23 49.51
  A 6.56 6.29 71.4 0 1 29.52 50.18
  Q 30.97 51.19 32.41 52.25
  Q 32.48 52.30 32.97 52.30"
/>
<path stroke="#f3ddb3" vector-effect="non-scaling-stroke" d="
  M 32.99 47.88
  Q 33.14 47.88 33.16 47.87
  Q 36.23 46.03 39.50 44.98
  Q 44.02 43.52 45.63 41.85
  C 47.98 39.40 48.38 35.19 46.55 32.17
  C 45.30 30.12 43.34 26.43 46.26 24.61
  A 0.60 0.60 0.0 0 0 46.42 23.74
  L 43.41 19.84
  A 1.51 1.51 0.0 0 0 42.25 19.25
  Q 42.06 19.23 33.00 19.23
  Q 23.93 19.23 23.74 19.25
  A 1.51 1.51 0.0 0 0 22.58 19.84
  L 19.57 23.74
  A 0.60 0.60 0.0 0 0 19.73 24.61
  C 22.65 26.43 20.69 30.12 19.44 32.17
  C 17.61 35.19 18.01 39.40 20.36 41.85
  Q 21.97 43.52 26.49 44.98
  Q 29.76 46.03 32.83 47.87
  Q 32.84 47.88 32.99 47.88"
/>
</g>
<path fill="#755c30" d="
  M 33.80 88.00
  L 32.99 88.00
  C 16.83 73.16 -6.11 44.58 3.89 20.84
  Q 7.51 12.22 15.52 6.75
  C 23.82 1.07 35.60 -0.43 45.21 3.54
  Q 61.19 10.14 64.93 26.80
  Q 65.62 29.89 65.35 35.74
  C 64.91 45.19 60.09 55.68 54.94 63.43
  Q 45.95 76.96 33.80 88.00
  Z
  M 33.38 86.75
  Q 33.48 86.75 33.63 86.61
  C 50.01 71.54 73.33 42.09 60.66 18.52
  C 55.39 8.73 44.83 2.48 33.56 2.46
  C 22.28 2.43 11.69 8.64 6.39 18.41
  C -6.38 41.93 16.82 71.47 33.13 86.61
  Q 33.28 86.75 33.38 86.75
  Z"
/>
<path fill="#e7bb66" d="
  M 33.56 2.46
  C 44.83 2.48 55.39 8.73 60.66 18.52
  C 73.33 42.09 50.01 71.54 33.63 86.61
  Q 33.48 86.75 33.38 86.75
  Q 33.28 86.75 33.13 86.61
  C 16.82 71.47 -6.38 41.93 6.39 18.41
  C 11.69 8.64 22.28 2.43 33.56 2.46
  Z
  M 32.97 52.30
  Q 33.47 52.30 33.54 52.25
  Q 34.98 51.19 36.43 50.19
  A 6.56 6.29 -71.2 0 1 37.72 49.52
  Q 40.05 48.65 43.07 47.55
  C 49.52 45.22 52.56 39.75 50.81 32.86
  C 50.51 31.70 49.23 29.48 48.64 28.39
  A 0.93 0.93 0.0 0 1 49.06 27.11
  Q 52.35 25.54 50.86 23.56
  Q 46.90 18.25 45.52 16.44
  A 1.64 1.63 73.2 0 0 44.33 15.80
  Q 44.13 15.79 33.02 15.77
  Q 21.90 15.76 21.70 15.77
  A 1.64 1.63 -73.1 0 0 20.51 16.41
  Q 19.13 18.22 15.15 23.52
  Q 13.66 25.49 16.95 27.07
  A 0.93 0.93 0.0 0 1 17.36 28.35
  C 16.77 29.44 15.49 31.66 15.18 32.82
  C 13.42 39.70 16.44 45.18 22.89 47.53
  Q 25.90 48.63 28.23 49.51
  A 6.56 6.29 71.4 0 1 29.52 50.18
  Q 30.97 51.19 32.41 52.25
  Q 32.48 52.30 32.97 52.30
  Z"
/>
<path fill="#ffffff" d="
  M 33.02 15.77
  Q 44.13 15.79 44.33 15.80
  A 1.64 1.63 73.2 0 1 45.52 16.44
  Q 46.90 18.25 50.86 23.56
  Q 52.35 25.54 49.06 27.11
  A 0.93 0.93 0.0 0 0 48.64 28.39
  C 49.23 29.48 50.51 31.70 50.81 32.86
  C 52.56 39.75 49.52 45.22 43.07 47.55
  Q 40.05 48.65 37.72 49.52
  A 6.56 6.29 -71.2 0 0 36.43 50.19
  Q 34.98 51.19 33.54 52.25
  Q 33.47 52.30 32.97 52.30
  Q 32.48 52.30 32.41 52.25
  Q 30.97 51.19 29.52 50.18
  A 6.56 6.29 71.4 0 0 28.23 49.51
  Q 25.90 48.63 22.89 47.53
  C 16.44 45.18 13.42 39.70 15.18 32.82
  C 15.49 31.66 16.77 29.44 17.36 28.35
  A 0.93 0.93 0.0 0 0 16.95 27.07
  Q 13.66 25.49 15.15 23.52
  Q 19.13 18.22 20.51 16.41
  A 1.64 1.63 -73.1 0 1 21.70 15.77
  Q 21.90 15.76 33.02 15.77
  Z
  M 32.99 47.88
  Q 33.14 47.88 33.16 47.87
  Q 36.23 46.03 39.50 44.98
  Q 44.02 43.52 45.63 41.85
  C 47.98 39.40 48.38 35.19 46.55 32.17
  C 45.30 30.12 43.34 26.43 46.26 24.61
  A 0.60 0.60 0.0 0 0 46.42 23.74
  L 43.41 19.84
  A 1.51 1.51 0.0 0 0 42.25 19.25
  Q 42.06 19.23 33.00 19.23
  Q 23.93 19.23 23.74 19.25
  A 1.51 1.51 0.0 0 0 22.58 19.84
  L 19.57 23.74
  A 0.60 0.60 0.0 0 0 19.73 24.61
  C 22.65 26.43 20.69 30.12 19.44 32.17
  C 17.61 35.19 18.01 39.40 20.36 41.85
  Q 21.97 43.52 26.49 44.98
  Q 29.76 46.03 32.83 47.87
  Q 32.84 47.88 32.99 47.88
  Z"
/>
<path fill="#e7bb66" d="
  M 33.00 19.23
  Q 42.06 19.23 42.25 19.25
  A 1.51 1.51 0.0 0 1 43.41 19.84
  L 46.42 23.74
  A 0.60 0.60 0.0 0 1 46.26 24.61
  C 43.34 26.43 45.30 30.12 46.55 32.17
  C 48.38 35.19 47.98 39.40 45.63 41.85
  Q 44.02 43.52 39.50 44.98
  Q 36.23 46.03 33.16 47.87
  Q 33.14 47.88 32.99 47.88
  Q 32.84 47.88 32.83 47.87
  Q 29.76 46.03 26.49 44.98
  Q 21.97 43.52 20.36 41.85
  C 18.01 39.40 17.61 35.19 19.44 32.17
  C 20.69 30.12 22.65 26.43 19.73 24.61
  A 0.60 0.60 0.0 0 1 19.57 23.74
  L 22.58 19.84
  A 1.51 1.51 0.0 0 1 23.74 19.25
  Q 23.93 19.23 33.00 19.23
  Z"
/>
</svg>
