<?xml version="1.0" encoding="UTF-8" standalone="no"?>
<!DOCTYPE svg PUBLIC "-//W3C//DTD SVG 1.1//EN" "http://www.w3.org/Graphics/SVG/1.1/DTD/svg11.dtd">
<svg xmlns="http://www.w3.org/2000/svg" version="1.1" viewBox="0.00 0.00 66.00 88.00">
<g stroke-width="2.00" fill="none" stroke-linecap="butt">
<path stroke="#3f2d4a" vector-effect="non-scaling-stroke" d="
  M 33.43 86.56
  C 33.55 86.56 33.72 86.55 33.82 86.46
  C 46.37 74.63 58.46 59.63 62.89 43.28
  C 66.44 30.19 63.17 17.08 52.23 8.80
  Q 44.65 3.07 34.50 2.50
  Q 33.91 2.46 33.50 2.46
  Q 33.09 2.46 32.49 2.50
  Q 22.34 3.05 14.75 8.77
  C 3.80 17.03 0.51 30.14 4.04 43.23
  C 8.44 59.59 20.50 74.61 33.04 86.46
  C 33.13 86.55 33.31 86.56 33.43 86.56"
/>
<path stroke="#85768d" vector-effect="non-scaling-stroke" d="
  M 24.23 17.66
  Q 24.22 17.97 24.20 18.28"
/>
<path stroke="#a79aae" vector-effect="non-scaling-stroke" d="
  M 24.20 18.28
  L 25.41 25.22
  A 0.30 0.28 -84.6 0 0 25.57 25.43
  Q 25.80 25.53 25.96 25.38"
/>
<path stroke="#6c5b7a" vector-effect="non-scaling-stroke" d="
  M 25.96 25.38
  Q 26.09 26.13 25.66 26.20"
/>
<path stroke="#a79aae" vector-effect="non-scaling-stroke" d="
  M 25.66 26.20
  Q 24.72 27.28 25.59 28.77"
/>
<path stroke="#6c5b7a" vector-effect="non-scaling-stroke" d="
  M 25.59 28.77
  Q 25.87 29.04 25.78 29.61"
/>
<path stroke="#a79aae" vector-effect="non-scaling-stroke" d="
  M 25.78 29.61
  Q 25.13 29.60 25.29 30.32
  C 27.17 38.75 38.36 38.55 40.71 30.26
  A 0.57 0.57 0.0 0 0 40.12 29.53
  L 38.56 29.64"
/>
<path stroke="#6c5b7a" vector-effect="non-scaling-stroke" d="
  M 38.56 29.64
  Q 39.16 29.51 40.17 28.77"
/>
<path stroke="#a79aae" vector-effect="non-scaling-stroke" d="
  M 40.17 28.77
  Q 41.20 28.65 40.50 26.22"
/>
<path stroke="#6c5b7a" vector-effect="non-scaling-stroke" d="
  M 40.50 26.22
  Q 40.42 25.79 40.55 25.39"
/>
<path stroke="#a79aae" vector-effect="non-scaling-stroke" d="
  M 40.55 25.39
  L 41.65 19.22
  A 0.47 0.47 0.0 0 0 41.27 18.67
  L 40.21 18.48"
/>
<path stroke="#85768d" vector-effect="non-scaling-stroke" d="
  M 40.21 18.48
  L 40.22 17.57"
/>
<path stroke="#a79aae" vector-effect="non-scaling-stroke" d="
  M 40.22 17.57
  Q 41.00 17.89 41.79 17.77
  A 0.58 0.56 -4.8 0 0 42.28 17.21
  L 42.28 16.24
  A 0.47 0.47 0.0 0 0 41.81 15.77
  L 24.36 15.77
  A 0.59 0.59 0.0 0 0 23.77 16.33
  Q 23.72 17.17 24.23 17.66"
/>
<path stroke="#d8d5d9" vector-effect="non-scaling-stroke" d="
  M 40.22 17.57
  L 24.23 17.66"
/>
<path stroke="#d8d5d9" vector-effect="non-scaling-stroke" d="
  M 40.21 18.48
  L 24.20 18.28"
/>
<path stroke="#c0bac7" vector-effect="non-scaling-stroke" d="
  M 40.55 25.39
  L 25.96 25.38"
/>
<path stroke="#c0bac7" vector-effect="non-scaling-stroke" d="
  M 40.50 26.22
  L 25.66 26.20"
/>
<path stroke="#c0bac7" vector-effect="non-scaling-stroke" d="
  M 40.17 28.77
  L 25.59 28.77"
/>
<path stroke="#c0bac7" vector-effect="non-scaling-stroke" d="
  M 38.56 29.64
  L 25.78 29.61"
/>
<path stroke="#a79aae" vector-effect="non-scaling-stroke" d="
  M 33.00 52.23
  Q 38.69 52.23 40.13 52.15
  A 0.28 0.28 0.0 0 0 40.30 51.66
  Q 34.37 46.46 34.89 38.00
  A 0.75 0.74 -80.6 0 0 34.35 37.23
  Q 34.27 37.21 33.00 37.21
  Q 31.73 37.21 31.65 37.23
  A 0.75 0.74 80.5 0 0 31.11 38.00
  Q 31.63 46.46 25.70 51.66
  A 0.28 0.28 0.0 0 0 25.87 52.15
  Q 27.31 52.24 33.00 52.23"
/>
<path stroke="#a79aae" vector-effect="non-scaling-stroke" d="
  M 28.64 23.64
  Q 29.27 23.64 29.58 22.02
  Q 29.68 21.50 29.44 21.19
  Q 29.13 20.80 28.64 20.80
  Q 28.14 20.80 27.83 21.19
  Q 27.59 21.50 27.69 22.02
  Q 28.01 23.64 28.64 23.64"
/>
<path stroke="#a79aae" vector-effect="non-scaling-stroke" d="
  M 33.87 21.19
  A 1.30 1.00 30.6 0 0 31.88 21.43
  Q 31.71 22.27 32.63 23.36
  A 0.60 0.60 0.0 0 0 33.61 23.29
  Q 34.52 21.78 33.87 21.19"
/>
<path stroke="#a79aae" vector-effect="non-scaling-stroke" d="
  M 37.37 23.64
  Q 37.92 23.63 38.32 22.13
  A 1.08 1.07 -72.3 0 0 37.66 20.84
  Q 37.60 20.82 37.34 20.82
  Q 37.08 20.82 37.02 20.85
  A 1.08 1.07 71.3 0 0 36.39 22.15
  Q 36.82 23.64 37.37 23.64"
/>
</g>
<path fill="#2a1e32" d="
  M 33.80 88.00
  L 33.04 88.00
  C 21.68 77.68 12.11 65.67 5.62 51.40
  Q 2.10 43.69 1.57 34.83
  C 0.60 18.82 11.18 5.76 26.65 2.05
  C 37.32 -0.50 49.61 3.33 57.12 11.62
  C 79.44 36.25 52.37 71.08 33.80 88.00
  Z
  M 33.43 86.56
  C 33.55 86.56 33.72 86.55 33.82 86.46
  C 46.37 74.63 58.46 59.63 62.89 43.28
  C 66.44 30.19 63.17 17.08 52.23 8.80
  Q 44.65 3.07 34.50 2.50
  Q 33.91 2.46 33.50 2.46
  Q 33.09 2.46 32.49 2.50
  Q 22.34 3.05 14.75 8.77
  C 3.80 17.03 0.51 30.14 4.04 43.23
  C 8.44 59.59 20.50 74.61 33.04 86.46
  C 33.13 86.55 33.31 86.56 33.43 86.56
  Z"
/>
<path fill="#533b61" d="
  M 33.50 2.46
  Q 33.91 2.46 34.50 2.50
  Q 44.65 3.07 52.23 8.80
  C 63.17 17.08 66.44 30.19 62.89 43.28
  C 58.46 59.63 46.37 74.63 33.82 86.46
  C 33.72 86.55 33.55 86.56 33.43 86.56
  C 33.31 86.56 33.13 86.55 33.04 86.46
  C 20.50 74.61 8.44 59.59 4.04 43.23
  C 0.51 30.14 3.80 17.03 14.75 8.77
  Q 22.34 3.05 32.49 2.50
  Q 33.09 2.46 33.50 2.46
  Z
  M 24.23 17.66
  Q 24.22 17.97 24.20 18.28
  L 25.41 25.22
  A 0.30 0.28 -84.6 0 0 25.57 25.43
  Q 25.80 25.53 25.96 25.38
  Q 26.09 26.13 25.66 26.20
  Q 24.72 27.28 25.59 28.77
  Q 25.87 29.04 25.78 29.61
  Q 25.13 29.60 25.29 30.32
  C 27.17 38.75 38.36 38.55 40.71 30.26
  A 0.57 0.57 0.0 0 0 40.12 29.53
  L 38.56 29.64
  Q 39.16 29.51 40.17 28.77
  Q 41.20 28.65 40.50 26.22
  Q 40.42 25.79 40.55 25.39
  L 41.65 19.22
  A 0.47 0.47 0.0 0 0 41.27 18.67
  L 40.21 18.48
  L 40.22 17.57
  Q 41.00 17.89 41.79 17.77
  A 0.58 0.56 -4.8 0 0 42.28 17.21
  L 42.28 16.24
  A 0.47 0.47 0.0 0 0 41.81 15.77
  L 24.36 15.77
  A 0.59 0.59 0.0 0 0 23.77 16.33
  Q 23.72 17.17 24.23 17.66
  Z
  M 33.00 52.23
  Q 38.69 52.23 40.13 52.15
  A 0.28 0.28 0.0 0 0 40.30 51.66
  Q 34.37 46.46 34.89 38.00
  A 0.75 0.74 -80.6 0 0 34.35 37.23
  Q 34.27 37.21 33.00 37.21
  Q 31.73 37.21 31.65 37.23
  A 0.75 0.74 80.5 0 0 31.11 38.00
  Q 31.63 46.46 25.70 51.66
  A 0.28 0.28 0.0 0 0 25.87 52.15
  Q 27.31 52.24 33.00 52.23
  Z"
/>
<path fill="#faf9fa" d="
  M 40.22 17.57
  L 24.23 17.66
  Q 23.72 17.17 23.77 16.33
  A 0.59 0.59 0.0 0 1 24.36 15.77
  L 41.81 15.77
  A 0.47 0.47 0.0 0 1 42.28 16.24
  L 42.28 17.21
  A 0.58 0.56 -4.8 0 1 41.79 17.77
  Q 41.00 17.89 40.22 17.57
  Z"
/>
<path fill="#b6b0b8" d="
  M 40.22 17.57
  L 40.21 18.48
  L 24.20 18.28
  Q 24.22 17.97 24.23 17.66
  L 40.22 17.57
  Z"
/>
<path fill="#faf9fa" d="
  M 40.21 18.48
  L 41.27 18.67
  A 0.47 0.47 0.0 0 1 41.65 19.22
  L 40.55 25.39
  L 25.96 25.38
  Q 25.80 25.53 25.57 25.43
  A 0.30 0.28 -84.6 0 1 25.41 25.22
  L 24.20 18.28
  L 40.21 18.48
  Z
  M 28.64 23.64
  Q 29.27 23.64 29.58 22.02
  Q 29.68 21.50 29.44 21.19
  Q 29.13 20.80 28.64 20.80
  Q 28.14 20.80 27.83 21.19
  Q 27.59 21.50 27.69 22.02
  Q 28.01 23.64 28.64 23.64
  Z
  M 33.87 21.19
  A 1.30 1.00 30.6 0 0 31.88 21.43
  Q 31.71 22.27 32.63 23.36
  A 0.60 0.60 0.0 0 0 33.61 23.29
  Q 34.52 21.78 33.87 21.19
  Z
  M 37.37 23.64
  Q 37.92 23.63 38.32 22.13
  A 1.08 1.07 -72.3 0 0 37.66 20.84
  Q 37.60 20.82 37.34 20.82
  Q 37.08 20.82 37.02 20.85
  A 1.08 1.07 71.3 0 0 36.39 22.15
  Q 36.82 23.64 37.37 23.64
  Z"
/>
<path fill="#533b61" d="
  M 28.64 20.80
  Q 29.13 20.80 29.44 21.19
  Q 29.68 21.50 29.58 22.02
  Q 29.27 23.64 28.64 23.64
  Q 28.01 23.64 27.69 22.02
  Q 27.59 21.50 27.83 21.19
  Q 28.14 20.80 28.64 20.80
  Z"
/>
<path fill="#533b61" d="
  M 33.87 21.19
  Q 34.52 21.78 33.61 23.29
  A 0.60 0.60 0.0 0 1 32.63 23.36
  Q 31.71 22.27 31.88 21.43
  A 1.30 1.00 30.6 0 1 33.87 21.19
  Z"
/>
<path fill="#533b61" d="
  M 37.34 20.82
  Q 37.60 20.82 37.66 20.84
  A 1.08 1.07 -72.3 0 1 38.32 22.13
  Q 37.92 23.63 37.37 23.64
  Q 36.82 23.64 36.39 22.15
  A 1.08 1.07 71.3 0 1 37.02 20.85
  Q 37.08 20.82 37.34 20.82
  Z"
/>
<path fill="#857b93" d="
  M 40.55 25.39
  Q 40.42 25.79 40.50 26.22
  L 25.66 26.20
  Q 26.09 26.13 25.96 25.38
  L 40.55 25.39
  Z"
/>
<path fill="#faf9fa" d="
  M 25.66 26.20
  L 40.50 26.22
  Q 41.20 28.65 40.17 28.77
  L 25.59 28.77
  Q 24.72 27.28 25.66 26.20
  Z"
/>
<path fill="#857b93" d="
  M 40.17 28.77
  Q 39.16 29.51 38.56 29.64
  L 25.78 29.61
  Q 25.87 29.04 25.59 28.77
  L 40.17 28.77
  Z"
/>
<path fill="#faf9fa" d="
  M 25.78 29.61
  L 38.56 29.64
  L 40.12 29.53
  A 0.57 0.57 0.0 0 1 40.71 30.26
  C 38.36 38.55 27.17 38.75 25.29 30.32
  Q 25.13 29.60 25.78 29.61
  Z"
/>
<path fill="#faf9fa" d="
  M 33.00 37.21
  Q 34.27 37.21 34.35 37.23
  A 0.75 0.74 -80.6 0 1 34.89 38.00
  Q 34.37 46.46 40.30 51.66
  A 0.28 0.28 0.0 0 1 40.13 52.15
  Q 38.69 52.23 33.00 52.23
  Q 27.31 52.24 25.87 52.15
  A 0.28 0.28 0.0 0 1 25.70 51.66
  Q 31.63 46.46 31.11 38.00
  A 0.75 0.74 80.5 0 1 31.65 37.23
  Q 31.73 37.21 33.00 37.21
  Z"
/>
</svg>
