<?xml version="1.0" encoding="UTF-8" standalone="no"?>
<!DOCTYPE svg PUBLIC "-//W3C//DTD SVG 1.1//EN" "http://www.w3.org/Graphics/SVG/1.1/DTD/svg11.dtd">
<svg xmlns="http://www.w3.org/2000/svg" version="1.1" viewBox="0.00 0.00 66.00 88.00">
<g stroke-width="2.00" fill="none" stroke-linecap="butt">
<path stroke="#2b4b58" vector-effect="non-scaling-stroke" d="
  M 33.42 86.67
  Q 33.51 86.67 33.59 86.65
  Q 33.65 86.64 33.73 86.57
  C 49.92 71.54 73.09 42.26 60.91 18.99
  C 55.59 8.83 45.31 2.80 33.75 2.47
  Q 33.63 2.47 33.52 2.47
  Q 33.40 2.47 33.29 2.47
  C 21.72 2.77 11.43 8.78 6.09 18.92
  C -6.15 42.16 16.95 71.50 33.10 86.57
  Q 33.18 86.64 33.25 86.65
  Q 33.32 86.67 33.42 86.67"
/>
<path stroke="#9db1ba" vector-effect="non-scaling-stroke" d="
  M 49.01 51.55
  L 49.01 26.65
  A 0.48 0.47 84.5 0 0 48.45 26.18
  L 38.50 28.12
  A 1.03 1.03 0.0 0 1 37.46 26.52
  C 43.68 17.53 31.22 11.33 28.12 19.37
  Q 26.83 22.72 29.34 26.49
  A 1.08 1.08 0.0 0 1 28.27 28.15
  L 18.53 26.56
  A 0.58 0.58 0.0 0 0 17.86 27.08
  L 16.88 36.99
  A 1.63 1.62 6.6 0 0 18.28 38.75
  C 19.84 39.02 21.56 36.51 23.48 36.18
  C 25.91 35.76 28.18 37.74 28.16 40.20
  C 28.14 43.34 24.92 45.36 22.07 43.69
  Q 21.83 43.56 19.83 42.08
  A 1.83 1.62 33.7 0 0 17.28 42.43
  Q 17.01 42.90 17.10 44.23
  Q 17.35 47.71 18.20 51.66
  A 0.75 0.74 -6.3 0 0 18.93 52.24
  L 48.32 52.24
  A 0.69 0.69 0.0 0 0 49.01 51.55"
/>
</g>
<path fill="#1b333c" d="
  M 33.81 88.00
  L 33.04 88.00
  C 17.14 73.54 -4.74 46.19 3.12 22.87
  C 7.35 10.35 18.81 2.08 31.97 1.37
  C 44.74 0.68 57.22 8.00 62.61 19.67
  C 73.77 43.85 50.32 72.92 33.81 88.00
  Z
  M 33.42 86.67
  Q 33.51 86.67 33.59 86.65
  Q 33.65 86.64 33.73 86.57
  C 49.92 71.54 73.09 42.26 60.91 18.99
  C 55.59 8.83 45.31 2.80 33.75 2.47
  Q 33.63 2.47 33.52 2.47
  Q 33.40 2.47 33.29 2.47
  C 21.72 2.77 11.43 8.78 6.09 18.92
  C -6.15 42.16 16.95 71.50 33.10 86.57
  Q 33.18 86.64 33.25 86.65
  Q 33.32 86.67 33.42 86.67
  Z"
/>
<path fill="#3a6374" d="
  M 33.52 2.47
  Q 33.63 2.47 33.75 2.47
  C 45.31 2.80 55.59 8.83 60.91 18.99
  C 73.09 42.26 49.92 71.54 33.73 86.57
  Q 33.65 86.64 33.59 86.65
  Q 33.51 86.67 33.42 86.67
  Q 33.32 86.67 33.25 86.65
  Q 33.18 86.64 33.10 86.57
  C 16.95 71.50 -6.15 42.16 6.09 18.92
  C 11.43 8.78 21.72 2.77 33.29 2.47
  Q 33.40 2.47 33.52 2.47
  Z
  M 49.01 51.55
  L 49.01 26.65
  A 0.48 0.47 84.5 0 0 48.45 26.18
  L 38.50 28.12
  A 1.03 1.03 0.0 0 1 37.46 26.52
  C 43.68 17.53 31.22 11.33 28.12 19.37
  Q 26.83 22.72 29.34 26.49
  A 1.08 1.08 0.0 0 1 28.27 28.15
  L 18.53 26.56
  A 0.58 0.58 0.0 0 0 17.86 27.08
  L 16.88 36.99
  A 1.63 1.62 6.6 0 0 18.28 38.75
  C 19.84 39.02 21.56 36.51 23.48 36.18
  C 25.91 35.76 28.18 37.74 28.16 40.20
  C 28.14 43.34 24.92 45.36 22.07 43.69
  Q 21.83 43.56 19.83 42.08
  A 1.83 1.62 33.7 0 0 17.28 42.43
  Q 17.01 42.90 17.10 44.23
  Q 17.35 47.71 18.20 51.66
  A 0.75 0.74 -6.3 0 0 18.93 52.24
  L 48.32 52.24
  A 0.69 0.69 0.0 0 0 49.01 51.55
  Z"
/>
<path fill="#ffffff" d="
  M 48.32 52.24
  L 18.93 52.24
  A 0.75 0.74 -6.3 0 1 18.20 51.66
  Q 17.35 47.71 17.10 44.23
  Q 17.01 42.90 17.28 42.43
  A 1.83 1.62 33.7 0 1 19.83 42.08
  Q 21.83 43.56 22.07 43.69
  C 24.92 45.36 28.14 43.34 28.16 40.20
  C 28.18 37.74 25.91 35.76 23.48 36.18
  C 21.56 36.51 19.84 39.02 18.28 38.75
  A 1.63 1.62 6.6 0 1 16.88 36.99
  L 17.86 27.08
  A 0.58 0.58 0.0 0 1 18.53 26.56
  L 28.27 28.15
  A 1.08 1.08 0.0 0 0 29.34 26.49
  Q 26.83 22.72 28.12 19.37
  C 31.22 11.33 43.68 17.53 37.46 26.52
  A 1.03 1.03 0.0 0 0 38.50 28.12
  L 48.45 26.18
  A 0.48 0.47 84.5 0 1 49.01 26.65
  L 49.01 51.55
  A 0.69 0.69 0.0 0 1 48.32 52.24
  Z"
/>
</svg>
