<?xml version="1.0" encoding="UTF-8" standalone="no"?>
<!DOCTYPE svg PUBLIC "-//W3C//DTD SVG 1.1//EN" "http://www.w3.org/Graphics/SVG/1.1/DTD/svg11.dtd">
<svg xmlns="http://www.w3.org/2000/svg" version="1.1" viewBox="0.00 0.00 66.00 88.00">
<g stroke-width="2.00" fill="none" stroke-linecap="butt">
<path stroke="#1b292f" vector-effect="non-scaling-stroke" d="
  M 33.38 86.51
  Q 33.56 86.51 33.77 86.31
  Q 48.62 72.69 57.60 56.33
  C 63.18 46.17 66.87 32.29 61.92 21.18
  C 56.87 9.85 45.86 2.51 33.51 2.49
  C 21.15 2.47 10.12 9.78 5.04 21.10
  C 0.05 32.19 3.70 46.08 9.25 56.26
  Q 18.19 72.65 32.99 86.31
  Q 33.21 86.51 33.38 86.51"
/>
<path stroke="#919a9e" vector-effect="non-scaling-stroke" d="
  M 23.63 22.76
  Q 22.92 18.63 19.50 16.06
  A 0.64 0.64 0.0 0 0 18.60 16.18
  Q 16.64 18.79 16.29 22.65
  A 1.18 1.17 76.7 0 1 15.74 23.55
  Q 13.62 24.88 14.37 27.26
  A 2.47 2.46 16.8 0 0 14.80 28.06
  Q 18.24 32.38 22.83 35.79
  A 0.43 0.42 -16.6 0 1 22.43 36.53
  Q 19.03 35.29 14.84 35.51
  A 0.64 0.63 -90.0 0 0 14.24 36.12
  Q 13.96 42.79 20.52 44.03
  A 3.40 3.32 -41.3 0 0 21.45 44.08
  C 24.55 43.83 30.12 43.16 31.73 44.30
  A 0.55 0.55 0.0 0 1 31.53 45.29
  Q 27.85 46.11 23.45 48.84
  A 0.52 0.52 0.0 0 0 23.46 49.73
  Q 29.27 53.21 35.75 51.99
  C 37.81 51.60 40.92 49.76 42.96 48.79
  A 2.31 2.31 0.0 0 1 44.18 48.57
  L 49.69 49.07
  A 1.54 1.53 17.6 0 0 51.16 48.31
  L 51.38 47.93
  A 0.41 0.41 0.0 0 0 51.03 47.32
  C 44.81 47.32 41.03 44.48 43.54 37.48
  A 1.75 1.74 -57.3 0 0 43.15 35.67
  L 43.11 35.62
  A 1.01 1.01 0.0 0 0 41.46 35.88
  L 39.70 39.71
  A 0.54 0.54 0.0 0 1 38.94 39.96
  Q 37.97 39.42 37.90 38.42
  C 37.55 33.36 37.91 31.63 33.93 27.07
  A 1.03 1.01 61.1 0 0 32.88 26.76
  C 29.60 27.70 30.43 31.70 30.77 34.98
  A 0.47 0.47 0.0 0 1 30.30 35.50
  L 29.93 35.50
  A 1.10 1.10 0.0 0 1 28.83 34.44
  Q 28.61 27.59 28.35 24.70
  C 28.13 22.21 26.36 20.51 24.22 22.93
  A 0.34 0.34 0.0 0 1 23.63 22.76"
/>
</g>
<path fill="#121d21" d="
  M 33.80 88.00
  L 33.04 88.00
  C 21.76 77.75 12.11 65.67 5.64 51.56
  Q 2.20 44.06 1.59 34.89
  C 0.53 18.98 11.21 5.67 26.50 2.10
  C 41.08 -1.29 56.12 6.05 62.72 20.00
  C 66.91 28.86 65.90 39.90 62.41 48.85
  C 56.58 63.78 45.59 77.27 33.80 88.00
  Z
  M 33.38 86.51
  Q 33.56 86.51 33.77 86.31
  Q 48.62 72.69 57.60 56.33
  C 63.18 46.17 66.87 32.29 61.92 21.18
  C 56.87 9.85 45.86 2.51 33.51 2.49
  C 21.15 2.47 10.12 9.78 5.04 21.10
  C 0.05 32.19 3.70 46.08 9.25 56.26
  Q 18.19 72.65 32.99 86.31
  Q 33.21 86.51 33.38 86.51
  Z"
/>
<path fill="#23353d" d="
  M 33.51 2.49
  C 45.86 2.51 56.87 9.85 61.92 21.18
  C 66.87 32.29 63.18 46.17 57.60 56.33
  Q 48.62 72.69 33.77 86.31
  Q 33.56 86.51 33.38 86.51
  Q 33.21 86.51 32.99 86.31
  Q 18.19 72.65 9.25 56.26
  C 3.70 46.08 0.05 32.19 5.04 21.10
  C 10.12 9.78 21.15 2.47 33.51 2.49
  Z
  M 23.63 22.76
  Q 22.92 18.63 19.50 16.06
  A 0.64 0.64 0.0 0 0 18.60 16.18
  Q 16.64 18.79 16.29 22.65
  A 1.18 1.17 76.7 0 1 15.74 23.55
  Q 13.62 24.88 14.37 27.26
  A 2.47 2.46 16.8 0 0 14.80 28.06
  Q 18.24 32.38 22.83 35.79
  A 0.43 0.42 -16.6 0 1 22.43 36.53
  Q 19.03 35.29 14.84 35.51
  A 0.64 0.63 -90.0 0 0 14.24 36.12
  Q 13.96 42.79 20.52 44.03
  A 3.40 3.32 -41.3 0 0 21.45 44.08
  C 24.55 43.83 30.12 43.16 31.73 44.30
  A 0.55 0.55 0.0 0 1 31.53 45.29
  Q 27.85 46.11 23.45 48.84
  A 0.52 0.52 0.0 0 0 23.46 49.73
  Q 29.27 53.21 35.75 51.99
  C 37.81 51.60 40.92 49.76 42.96 48.79
  A 2.31 2.31 0.0 0 1 44.18 48.57
  L 49.69 49.07
  A 1.54 1.53 17.6 0 0 51.16 48.31
  L 51.38 47.93
  A 0.41 0.41 0.0 0 0 51.03 47.32
  C 44.81 47.32 41.03 44.48 43.54 37.48
  A 1.75 1.74 -57.3 0 0 43.15 35.67
  L 43.11 35.62
  A 1.01 1.01 0.0 0 0 41.46 35.88
  L 39.70 39.71
  A 0.54 0.54 0.0 0 1 38.94 39.96
  Q 37.97 39.42 37.90 38.42
  C 37.55 33.36 37.91 31.63 33.93 27.07
  A 1.03 1.01 61.1 0 0 32.88 26.76
  C 29.60 27.70 30.43 31.70 30.77 34.98
  A 0.47 0.47 0.0 0 1 30.30 35.50
  L 29.93 35.50
  A 1.10 1.10 0.0 0 1 28.83 34.44
  Q 28.61 27.59 28.35 24.70
  C 28.13 22.21 26.36 20.51 24.22 22.93
  A 0.34 0.34 0.0 0 1 23.63 22.76
  Z"
/>
<path fill="#ffffff" d="
  M 23.63 22.76
  A 0.34 0.34 0.0 0 0 24.22 22.93
  C 26.36 20.51 28.13 22.21 28.35 24.70
  Q 28.61 27.59 28.83 34.44
  A 1.10 1.10 0.0 0 0 29.93 35.50
  L 30.30 35.50
  A 0.47 0.47 0.0 0 0 30.77 34.98
  C 30.43 31.70 29.60 27.70 32.88 26.76
  A 1.03 1.01 61.1 0 1 33.93 27.07
  C 37.91 31.63 37.55 33.36 37.90 38.42
  Q 37.97 39.42 38.94 39.96
  A 0.54 0.54 0.0 0 0 39.70 39.71
  L 41.46 35.88
  A 1.01 1.01 0.0 0 1 43.11 35.62
  L 43.15 35.67
  A 1.75 1.74 -57.3 0 1 43.54 37.48
  C 41.03 44.48 44.81 47.32 51.03 47.32
  A 0.41 0.41 0.0 0 1 51.38 47.93
  L 51.16 48.31
  A 1.54 1.53 17.6 0 1 49.69 49.07
  L 44.18 48.57
  A 2.31 2.31 0.0 0 0 42.96 48.79
  C 40.92 49.76 37.81 51.60 35.75 51.99
  Q 29.27 53.21 23.46 49.73
  A 0.52 0.52 0.0 0 1 23.45 48.84
  Q 27.85 46.11 31.53 45.29
  A 0.55 0.55 0.0 0 0 31.73 44.30
  C 30.12 43.16 24.55 43.83 21.45 44.08
  A 3.40 3.32 -41.3 0 1 20.52 44.03
  Q 13.96 42.79 14.24 36.12
  A 0.64 0.63 -90.0 0 1 14.84 35.51
  Q 19.03 35.29 22.43 36.53
  A 0.43 0.42 -16.6 0 0 22.83 35.79
  Q 18.24 32.38 14.80 28.06
  A 2.47 2.46 16.8 0 1 14.37 27.26
  Q 13.62 24.88 15.74 23.55
  A 1.18 1.17 76.7 0 0 16.29 22.65
  Q 16.64 18.79 18.60 16.18
  A 0.64 0.64 0.0 0 1 19.50 16.06
  Q 22.92 18.63 23.63 22.76
  Z"
/>
</svg>
