<?xml version="1.0" encoding="UTF-8" standalone="no"?>
<!DOCTYPE svg PUBLIC "-//W3C//DTD SVG 1.1//EN" "http://www.w3.org/Graphics/SVG/1.1/DTD/svg11.dtd">
<svg xmlns="http://www.w3.org/2000/svg" version="1.1" viewBox="0.00 0.00 66.00 88.00">
<g stroke-width="2.00" fill="none" stroke-linecap="butt">
<path stroke="#3f2d4a" vector-effect="non-scaling-stroke" d="
  M 33.43 86.55
  C 34.13 86.55 33.56 86.61 33.78 86.42
  Q 43.01 78.39 53.02 64.05
  C 64.21 48.01 70.50 26.34 54.87 11.11
  Q 46.70 3.15 34.75 2.51
  Q 33.97 2.47 33.49 2.47
  Q 33.01 2.47 32.22 2.51
  Q 20.27 3.13 12.09 11.08
  C -3.56 26.29 2.71 47.97 13.88 64.03
  Q 23.87 78.38 33.09 86.42
  C 33.31 86.61 32.74 86.55 33.43 86.55"
/>
<path stroke="#a99db0" vector-effect="non-scaling-stroke" d="
  M 33.69 33.43
  Q 35.62 35.92 35.63 35.94
  A 1.50 1.49 -21.3 0 0 36.46 36.30
  Q 37.96 36.44 39.12 36.12
  A 0.62 0.62 0.0 0 0 39.52 35.26
  Q 38.89 33.93 38.08 33.19
  A 0.60 0.59 -42.7 0 1 38.12 32.27
  Q 45.01 27.12 50.49 22.70
  Q 52.00 21.48 50.95 20.11
  Q 49.90 18.75 48.33 19.90
  Q 42.66 24.08 35.93 29.44
  A 0.60 0.59 -32.6 0 1 35.03 29.24
  Q 34.52 28.27 33.40 27.32
  A 0.62 0.62 0.0 0 0 32.46 27.49
  Q 31.86 28.53 31.61 30.02
  A 1.50 1.49 -54.0 0 0 31.75 30.91
  Q 31.76 30.93 33.69 33.43"
/>
<path stroke="#a99db0" vector-effect="non-scaling-stroke" d="
  M 17.69 39.71
  L 19.48 38.31
  A 0.60 0.60 0.0 0 1 20.30 39.17
  C 17.72 42.15 14.23 45.30 14.80 47.76
  A 0.94 0.93 -5.5 0 0 15.69 48.48
  Q 22.63 48.61 25.73 48.22
  C 31.18 47.53 33.44 42.98 34.42 38.01
  A 1.22 1.18 -59.1 0 0 34.19 37.03
  L 30.17 31.90
  A 1.09 1.08 -19.7 0 0 29.27 31.48
  C 22.82 31.75 18.61 32.60 16.80 39.11
  A 0.56 0.56 0.0 0 0 17.69 39.71"
/>
</g>
<path fill="#2a1e32" d="
  M 33.80 88.00
  L 33.15 88.00
  Q 15.62 72.49 6.00 52.51
  Q 2.22 44.66 1.62 35.11
  Q 1.02 25.57 5.35 17.83
  C 12.81 4.48 28.23 -1.70 43.19 2.84
  Q 51.43 5.33 57.12 11.62
  C 79.44 36.25 52.37 71.08 33.80 88.00
  Z
  M 33.43 86.55
  C 34.13 86.55 33.56 86.61 33.78 86.42
  Q 43.01 78.39 53.02 64.05
  C 64.21 48.01 70.50 26.34 54.87 11.11
  Q 46.70 3.15 34.75 2.51
  Q 33.97 2.47 33.49 2.47
  Q 33.01 2.47 32.22 2.51
  Q 20.27 3.13 12.09 11.08
  C -3.56 26.29 2.71 47.97 13.88 64.03
  Q 23.87 78.38 33.09 86.42
  C 33.31 86.61 32.74 86.55 33.43 86.55
  Z"
/>
<path fill="#533b61" d="
  M 33.49 2.47
  Q 33.97 2.47 34.75 2.51
  Q 46.70 3.15 54.87 11.11
  C 70.50 26.34 64.21 48.01 53.02 64.05
  Q 43.01 78.39 33.78 86.42
  C 33.56 86.61 34.13 86.55 33.43 86.55
  C 32.74 86.55 33.31 86.61 33.09 86.42
  Q 23.87 78.38 13.88 64.03
  C 2.71 47.97 -3.56 26.29 12.09 11.08
  Q 20.27 3.13 32.22 2.51
  Q 33.01 2.47 33.49 2.47
  Z
  M 33.69 33.43
  Q 35.62 35.92 35.63 35.94
  A 1.50 1.49 -21.3 0 0 36.46 36.30
  Q 37.96 36.44 39.12 36.12
  A 0.62 0.62 0.0 0 0 39.52 35.26
  Q 38.89 33.93 38.08 33.19
  A 0.60 0.59 -42.7 0 1 38.12 32.27
  Q 45.01 27.12 50.49 22.70
  Q 52.00 21.48 50.95 20.11
  Q 49.90 18.75 48.33 19.90
  Q 42.66 24.08 35.93 29.44
  A 0.60 0.59 -32.6 0 1 35.03 29.24
  Q 34.52 28.27 33.40 27.32
  A 0.62 0.62 0.0 0 0 32.46 27.49
  Q 31.86 28.53 31.61 30.02
  A 1.50 1.49 -54.0 0 0 31.75 30.91
  Q 31.76 30.93 33.69 33.43
  Z
  M 17.69 39.71
  L 19.48 38.31
  A 0.60 0.60 0.0 0 1 20.30 39.17
  C 17.72 42.15 14.23 45.30 14.80 47.76
  A 0.94 0.93 -5.5 0 0 15.69 48.48
  Q 22.63 48.61 25.73 48.22
  C 31.18 47.53 33.44 42.98 34.42 38.01
  A 1.22 1.18 -59.1 0 0 34.19 37.03
  L 30.17 31.90
  A 1.09 1.08 -19.7 0 0 29.27 31.48
  C 22.82 31.75 18.61 32.60 16.80 39.11
  A 0.56 0.56 0.0 0 0 17.69 39.71
  Z"
/>
<path fill="#ffffff" d="
  M 50.95 20.11
  Q 52.00 21.48 50.49 22.70
  Q 45.01 27.12 38.12 32.27
  A 0.60 0.59 -42.7 0 0 38.08 33.19
  Q 38.89 33.93 39.52 35.26
  A 0.62 0.62 0.0 0 1 39.12 36.12
  Q 37.96 36.44 36.46 36.30
  A 1.50 1.49 -21.3 0 1 35.63 35.94
  Q 35.62 35.92 33.69 33.43
  Q 31.76 30.93 31.75 30.91
  A 1.50 1.49 -54.0 0 1 31.61 30.02
  Q 31.86 28.53 32.46 27.49
  A 0.62 0.62 0.0 0 1 33.40 27.32
  Q 34.52 28.27 35.03 29.24
  A 0.60 0.59 -32.6 0 0 35.93 29.44
  Q 42.66 24.08 48.33 19.90
  Q 49.90 18.75 50.95 20.11
  Z"
/>
<path fill="#ffffff" d="
  M 16.80 39.11
  C 18.61 32.60 22.82 31.75 29.27 31.48
  A 1.09 1.08 -19.7 0 1 30.17 31.90
  L 34.19 37.03
  A 1.22 1.18 -59.1 0 1 34.42 38.01
  C 33.44 42.98 31.18 47.53 25.73 48.22
  Q 22.63 48.61 15.69 48.48
  A 0.94 0.93 -5.5 0 1 14.80 47.76
  C 14.23 45.30 17.72 42.15 20.30 39.17
  A 0.60 0.60 0.0 0 0 19.48 38.31
  L 17.69 39.71
  A 0.56 0.56 0.0 0 1 16.80 39.11
  Z"
/>
</svg>
