<?xml version="1.0" encoding="UTF-8" standalone="no"?>
<!DOCTYPE svg PUBLIC "-//W3C//DTD SVG 1.1//EN" "http://www.w3.org/Graphics/SVG/1.1/DTD/svg11.dtd">
<svg xmlns="http://www.w3.org/2000/svg" version="1.1" viewBox="0.00 0.00 66.00 88.00">
<g stroke-width="2.00" fill="none" stroke-linecap="butt">
<path stroke="#ae8c4b" vector-effect="non-scaling-stroke" d="
  M 33.39 86.75
  Q 33.54 86.75 33.66 86.63
  C 46.95 74.25 60.61 57.05 63.77 39.33
  C 67.20 20.09 53.42 2.49 33.55 2.46
  C 13.68 2.42 -0.17 19.96 3.19 39.21
  C 6.28 56.95 19.88 74.20 33.12 86.63
  Q 33.24 86.75 33.39 86.75"
/>
<path stroke="#f3ddb3" vector-effect="non-scaling-stroke" d="
  M 35.80 53.83
  Q 39.09 50.69 40.59 47.03
  A 3.34 3.31 82.6 0 1 41.63 45.67
  C 44.87 43.19 47.14 40.15 47.99 36.01
  C 49.66 27.88 44.83 20.29 36.89 18.08
  C 24.36 14.58 13.55 27.87 19.19 39.46
  Q 23.39 48.09 34.13 48.30
  A 0.85 0.84 81.4 0 1 34.90 48.87
  Q 35.70 51.29 35.41 53.63
  A 0.23 0.23 0.0 0 0 35.80 53.83"
/>
<path stroke="#f3ddb3" vector-effect="non-scaling-stroke" d="
  M 26.51 32.88
  A 2.30 2.30 0.0 0 0 24.21 30.58
  A 2.30 2.30 0.0 0 0 21.91 32.88
  A 2.30 2.30 0.0 0 0 24.21 35.18
  A 2.30 2.30 0.0 0 0 26.51 32.88"
/>
<path stroke="#f3ddb3" vector-effect="non-scaling-stroke" d="
  M 35.30 32.87
  A 2.31 2.31 0.0 0 0 32.99 30.56
  A 2.31 2.31 0.0 0 0 30.68 32.87
  A 2.31 2.31 0.0 0 0 32.99 35.18
  A 2.31 2.31 0.0 0 0 35.30 32.87"
/>
<path stroke="#f3ddb3" vector-effect="non-scaling-stroke" d="
  M 44.08 32.87
  A 2.30 2.30 0.0 0 0 41.78 30.57
  A 2.30 2.30 0.0 0 0 39.48 32.87
  A 2.30 2.30 0.0 0 0 41.78 35.17
  A 2.30 2.30 0.0 0 0 44.08 32.87"
/>
</g>
<path fill="#755c30" d="
  M 33.81 88.00
  L 32.99 88.00
  C 22.14 78.04 13.15 66.75 6.52 53.51
  Q 2.41 45.29 1.63 35.36
  C -0.30 10.99 24.86 -5.66 46.82 4.23
  C 58.99 9.71 66.20 21.65 65.41 35.02
  C 64.21 55.19 48.06 74.99 33.81 88.00
  Z
  M 33.39 86.75
  Q 33.54 86.75 33.66 86.63
  C 46.95 74.25 60.61 57.05 63.77 39.33
  C 67.20 20.09 53.42 2.49 33.55 2.46
  C 13.68 2.42 -0.17 19.96 3.19 39.21
  C 6.28 56.95 19.88 74.20 33.12 86.63
  Q 33.24 86.75 33.39 86.75
  Z"
/>
<path fill="#e7bb66" d="
  M 33.55 2.46
  C 53.42 2.49 67.20 20.09 63.77 39.33
  C 60.61 57.05 46.95 74.25 33.66 86.63
  Q 33.54 86.75 33.39 86.75
  Q 33.24 86.75 33.12 86.63
  C 19.88 74.20 6.28 56.95 3.19 39.21
  C -0.17 19.96 13.68 2.42 33.55 2.46
  Z
  M 35.80 53.83
  Q 39.09 50.69 40.59 47.03
  A 3.34 3.31 82.6 0 1 41.63 45.67
  C 44.87 43.19 47.14 40.15 47.99 36.01
  C 49.66 27.88 44.83 20.29 36.89 18.08
  C 24.36 14.58 13.55 27.87 19.19 39.46
  Q 23.39 48.09 34.13 48.30
  A 0.85 0.84 81.4 0 1 34.90 48.87
  Q 35.70 51.29 35.41 53.63
  A 0.23 0.23 0.0 0 0 35.80 53.83
  Z"
/>
<path fill="#ffffff" d="
  M 35.80 53.83
  A 0.23 0.23 0.0 0 1 35.41 53.63
  Q 35.70 51.29 34.90 48.87
  A 0.85 0.84 81.4 0 0 34.13 48.30
  Q 23.39 48.09 19.19 39.46
  C 13.55 27.87 24.36 14.58 36.89 18.08
  C 44.83 20.29 49.66 27.88 47.99 36.01
  C 47.14 40.15 44.87 43.19 41.63 45.67
  A 3.34 3.31 82.6 0 0 40.59 47.03
  Q 39.09 50.69 35.80 53.83
  Z
  M 26.51 32.88
  A 2.30 2.30 0.0 0 0 24.21 30.58
  A 2.30 2.30 0.0 0 0 21.91 32.88
  A 2.30 2.30 0.0 0 0 24.21 35.18
  A 2.30 2.30 0.0 0 0 26.51 32.88
  Z
  M 35.30 32.87
  A 2.31 2.31 0.0 0 0 32.99 30.56
  A 2.31 2.31 0.0 0 0 30.68 32.87
  A 2.31 2.31 0.0 0 0 32.99 35.18
  A 2.31 2.31 0.0 0 0 35.30 32.87
  Z
  M 44.08 32.87
  A 2.30 2.30 0.0 0 0 41.78 30.57
  A 2.30 2.30 0.0 0 0 39.48 32.87
  A 2.30 2.30 0.0 0 0 41.78 35.17
  A 2.30 2.30 0.0 0 0 44.08 32.87
  Z"
/>
<circle fill="#e7bb66" cx="24.21" cy="32.88" r="2.30"/>
<circle fill="#e7bb66" cx="32.99" cy="32.87" r="2.31"/>
<circle fill="#e7bb66" cx="41.78" cy="32.87" r="2.30"/>
</svg>
