<?xml version="1.0" encoding="UTF-8" standalone="no"?>
<!DOCTYPE svg PUBLIC "-//W3C//DTD SVG 1.1//EN" "http://www.w3.org/Graphics/SVG/1.1/DTD/svg11.dtd">
<svg xmlns="http://www.w3.org/2000/svg" version="1.1" viewBox="0.00 0.00 66.00 88.00">
<g stroke-width="2.00" fill="none" stroke-linecap="butt">
<path stroke="#1b292f" vector-effect="non-scaling-stroke" d="
  M 33.41 86.52
  Q 33.59 86.52 33.80 86.33
  Q 48.15 73.16 57.26 57.01
  C 61.81 48.95 64.77 39.47 64.10 30.19
  Q 63.58 22.83 59.42 16.55
  Q 51.18 4.09 35.26 2.52
  Q 34.59 2.45 33.50 2.45
  Q 32.40 2.45 31.73 2.51
  Q 15.81 4.05 7.54 16.49
  Q 3.37 22.76 2.83 30.12
  C 2.14 39.40 5.08 48.89 9.62 56.96
  Q 18.69 73.13 33.02 86.33
  Q 33.22 86.52 33.41 86.52"
/>
<path stroke="#919a9e" vector-effect="non-scaling-stroke" d="
  M 27.11 16.06
  C 23.16 19.50 22.16 24.62 26.81 27.95
  A 0.97 0.97 0.0 0 0 27.96 27.95
  C 32.99 24.31 32.06 20.08 28.20 16.11
  A 0.80 0.80 0.0 0 0 27.11 16.06"
/>
<path stroke="#919a9e" vector-effect="non-scaling-stroke" d="
  M 38.87 16.05
  A 0.81 0.80 -47.1 0 0 37.78 16.09
  C 33.91 20.07 32.98 24.31 38.01 27.95
  A 0.97 0.97 0.0 0 0 39.16 27.95
  C 43.82 24.62 42.82 19.50 38.87 16.05"
/>
<path stroke="#919a9e" vector-effect="non-scaling-stroke" d="
  M 18.06 24.93
  C 14.21 28.52 13.38 33.69 18.16 36.88
  A 0.98 0.97 43.0 0 0 19.31 36.84
  C 24.24 33.02 23.17 28.80 19.16 24.94
  A 0.81 0.80 45.3 0 0 18.06 24.93"
/>
<path stroke="#919a9e" vector-effect="non-scaling-stroke" d="
  M 47.92 24.93
  A 0.81 0.80 -45.2 0 0 46.82 24.94
  C 42.81 28.80 41.74 33.01 46.66 36.83
  A 0.98 0.97 -42.9 0 0 47.81 36.87
  C 52.59 33.69 51.76 28.52 47.92 24.93"
/>
<path stroke="#919a9e" vector-effect="non-scaling-stroke" d="
  M 32.99 48.94
  Q 38.49 48.94 42.40 51.85
  A 1.40 1.39 40.6 0 0 44.22 51.71
  Q 50.52 45.30 45.44 39.26
  Q 45.42 39.24 45.40 39.22
  L 41.11 35.41
  A 5.52 5.16 -89.1 0 1 40.27 34.48
  C 38.51 32.04 35.98 29.45 32.99 29.45
  C 30.00 29.45 27.48 32.04 25.71 34.48
  A 5.52 5.16 89.1 0 1 24.87 35.41
  L 20.58 39.22
  Q 20.56 39.24 20.54 39.26
  Q 15.46 45.30 21.76 51.71
  A 1.40 1.39 -40.6 0 0 23.58 51.85
  Q 27.49 48.94 32.99 48.94"
/>
</g>
<path fill="#121c20" d="
  M 33.81 88.00
  L 33.04 88.00
  C 21.76 77.76 12.11 65.66 5.64 51.56
  Q 2.20 44.06 1.59 34.89
  C -0.16 8.63 28.89 -7.14 50.48 6.20
  Q 62.26 13.47 64.93 27.09
  C 69.26 49.19 49.02 74.11 33.81 88.00
  Z
  M 33.41 86.52
  Q 33.59 86.52 33.80 86.33
  Q 48.15 73.16 57.26 57.01
  C 61.81 48.95 64.77 39.47 64.10 30.19
  Q 63.58 22.83 59.42 16.55
  Q 51.18 4.09 35.26 2.52
  Q 34.59 2.45 33.50 2.45
  Q 32.40 2.45 31.73 2.51
  Q 15.81 4.05 7.54 16.49
  Q 3.37 22.76 2.83 30.12
  C 2.14 39.40 5.08 48.89 9.62 56.96
  Q 18.69 73.13 33.02 86.33
  Q 33.22 86.52 33.41 86.52
  Z"
/>
<path fill="#23353d" d="
  M 33.50 2.45
  Q 34.59 2.45 35.26 2.52
  Q 51.18 4.09 59.42 16.55
  Q 63.58 22.83 64.10 30.19
  C 64.77 39.47 61.81 48.95 57.26 57.01
  Q 48.15 73.16 33.80 86.33
  Q 33.59 86.52 33.41 86.52
  Q 33.22 86.52 33.02 86.33
  Q 18.69 73.13 9.62 56.96
  C 5.08 48.89 2.14 39.40 2.83 30.12
  Q 3.37 22.76 7.54 16.49
  Q 15.81 4.05 31.73 2.51
  Q 32.40 2.45 33.50 2.45
  Z
  M 27.11 16.06
  C 23.16 19.50 22.16 24.62 26.81 27.95
  A 0.97 0.97 0.0 0 0 27.96 27.95
  C 32.99 24.31 32.06 20.08 28.20 16.11
  A 0.80 0.80 0.0 0 0 27.11 16.06
  Z
  M 38.87 16.05
  A 0.81 0.80 -47.1 0 0 37.78 16.09
  C 33.91 20.07 32.98 24.31 38.01 27.95
  A 0.97 0.97 0.0 0 0 39.16 27.95
  C 43.82 24.62 42.82 19.50 38.87 16.05
  Z
  M 18.06 24.93
  C 14.21 28.52 13.38 33.69 18.16 36.88
  A 0.98 0.97 43.0 0 0 19.31 36.84
  C 24.24 33.02 23.17 28.80 19.16 24.94
  A 0.81 0.80 45.3 0 0 18.06 24.93
  Z
  M 47.92 24.93
  A 0.81 0.80 -45.2 0 0 46.82 24.94
  C 42.81 28.80 41.74 33.01 46.66 36.83
  A 0.98 0.97 -42.9 0 0 47.81 36.87
  C 52.59 33.69 51.76 28.52 47.92 24.93
  Z
  M 32.99 48.94
  Q 38.49 48.94 42.40 51.85
  A 1.40 1.39 40.6 0 0 44.22 51.71
  Q 50.52 45.30 45.44 39.26
  Q 45.42 39.24 45.40 39.22
  L 41.11 35.41
  A 5.52 5.16 -89.1 0 1 40.27 34.48
  C 38.51 32.04 35.98 29.45 32.99 29.45
  C 30.00 29.45 27.48 32.04 25.71 34.48
  A 5.52 5.16 89.1 0 1 24.87 35.41
  L 20.58 39.22
  Q 20.56 39.24 20.54 39.26
  Q 15.46 45.30 21.76 51.71
  A 1.40 1.39 -40.6 0 0 23.58 51.85
  Q 27.49 48.94 32.99 48.94
  Z"
/>
<path fill="#ffffff" d="
  M 27.11 16.06
  A 0.80 0.80 0.0 0 1 28.20 16.11
  C 32.06 20.08 32.99 24.31 27.96 27.95
  A 0.97 0.97 0.0 0 1 26.81 27.95
  C 22.16 24.62 23.16 19.50 27.11 16.06
  Z"
/>
<path fill="#ffffff" d="
  M 38.87 16.05
  C 42.82 19.50 43.82 24.62 39.16 27.95
  A 0.97 0.97 0.0 0 1 38.01 27.95
  C 32.98 24.31 33.91 20.07 37.78 16.09
  A 0.81 0.80 -47.1 0 1 38.87 16.05
  Z"
/>
<path fill="#ffffff" d="
  M 19.16 24.94
  C 23.17 28.80 24.24 33.02 19.31 36.84
  A 0.98 0.97 43.0 0 1 18.16 36.88
  C 13.38 33.69 14.21 28.52 18.06 24.93
  A 0.81 0.80 45.3 0 1 19.16 24.94
  Z"
/>
<path fill="#ffffff" d="
  M 47.92 24.93
  C 51.76 28.52 52.59 33.69 47.81 36.87
  A 0.98 0.97 -42.9 0 1 46.66 36.83
  C 41.74 33.01 42.81 28.80 46.82 24.94
  A 0.81 0.80 -45.2 0 1 47.92 24.93
  Z"
/>
<path fill="#ffffff" d="
  M 32.99 29.45
  C 35.98 29.45 38.51 32.04 40.27 34.48
  A 5.52 5.16 -89.1 0 0 41.11 35.41
  L 45.40 39.22
  Q 45.42 39.24 45.44 39.26
  Q 50.52 45.30 44.22 51.71
  A 1.40 1.39 40.6 0 1 42.40 51.85
  Q 38.49 48.94 32.99 48.94
  Q 27.49 48.94 23.58 51.85
  A 1.40 1.39 -40.6 0 1 21.76 51.71
  Q 15.46 45.30 20.54 39.26
  Q 20.56 39.24 20.58 39.22
  L 24.87 35.41
  A 5.52 5.16 89.1 0 0 25.71 34.48
  C 27.48 32.04 30.00 29.45 32.99 29.45
  Z"
/>
</svg>
