<?xml version="1.0" encoding="UTF-8" standalone="no"?>
<!DOCTYPE svg PUBLIC "-//W3C//DTD SVG 1.1//EN" "http://www.w3.org/Graphics/SVG/1.1/DTD/svg11.dtd">
<svg xmlns="http://www.w3.org/2000/svg" version="1.1" viewBox="0.00 0.00 66.00 88.00">
<g stroke-width="2.00" fill="none" stroke-linecap="butt">
<path stroke="#3f2d4a" vector-effect="non-scaling-stroke" d="
  M 33.42 86.54
  C 33.47 86.54 33.72 86.51 33.78 86.45
  Q 45.17 75.91 53.55 63.28
  C 62.73 49.44 69.57 30.56 58.72 15.55
  Q 49.91 3.36 34.51 2.50
  Q 34.01 2.47 33.51 2.47
  Q 33.01 2.47 32.51 2.50
  Q 17.11 3.32 8.27 15.50
  C -2.61 30.48 4.19 49.38 13.34 63.24
  Q 21.69 75.88 33.06 86.45
  C 33.12 86.51 33.37 86.54 33.42 86.54"
/>
<path stroke="#a99db0" vector-effect="non-scaling-stroke" d="
  M 44.49 28.40
  L 44.49 26.63
  A 1.03 1.02 -24.9 0 1 44.74 25.96
  L 50.66 19.38
  A 2.08 2.08 0.0 0 0 50.55 16.48
  L 50.49 16.42
  A 2.18 2.17 45.5 0 0 47.53 16.39
  Q 38.88 24.23 28.59 33.35
  Q 27.97 33.89 25.91 34.01
  Q 24.28 34.11 24.00 34.65
  Q 23.68 35.26 23.76 36.54
  A 2.32 2.31 -22.7 0 1 22.99 38.41
  L 15.67 44.90
  A 2.80 2.80 0.0 0 0 15.67 49.08
  L 18.18 51.33
  A 2.92 2.91 -48.3 0 0 22.29 51.09
  L 41.00 30.13
  A 1.75 1.72 -73.4 0 1 42.01 29.57
  L 43.77 29.26
  A 0.88 0.87 -5.1 0 0 44.49 28.40"
/>
</g>
<path fill="#2a1e32" d="
  M 33.79 88.00
  L 33.04 88.00
  C 21.75 77.75 12.08 65.62 5.64 51.56
  Q 2.20 44.02 1.59 34.88
  Q 1.00 25.97 5.11 18.30
  C 17.39 -4.60 51.44 -4.49 62.70 19.93
  C 73.73 43.84 50.15 73.16 33.79 88.00
  Z
  M 33.42 86.54
  C 33.47 86.54 33.72 86.51 33.78 86.45
  Q 45.17 75.91 53.55 63.28
  C 62.73 49.44 69.57 30.56 58.72 15.55
  Q 49.91 3.36 34.51 2.50
  Q 34.01 2.47 33.51 2.47
  Q 33.01 2.47 32.51 2.50
  Q 17.11 3.32 8.27 15.50
  C -2.61 30.48 4.19 49.38 13.34 63.24
  Q 21.69 75.88 33.06 86.45
  C 33.12 86.51 33.37 86.54 33.42 86.54
  Z"
/>
<path fill="#533b61" d="
  M 33.51 2.47
  Q 34.01 2.47 34.51 2.50
  Q 49.91 3.36 58.72 15.55
  C 69.57 30.56 62.73 49.44 53.55 63.28
  Q 45.17 75.91 33.78 86.45
  C 33.72 86.51 33.47 86.54 33.42 86.54
  C 33.37 86.54 33.12 86.51 33.06 86.45
  Q 21.69 75.88 13.34 63.24
  C 4.19 49.38 -2.61 30.48 8.27 15.50
  Q 17.11 3.32 32.51 2.50
  Q 33.01 2.47 33.51 2.47
  Z
  M 44.49 28.40
  L 44.49 26.63
  A 1.03 1.02 -24.9 0 1 44.74 25.96
  L 50.66 19.38
  A 2.08 2.08 0.0 0 0 50.55 16.48
  L 50.49 16.42
  A 2.18 2.17 45.5 0 0 47.53 16.39
  Q 38.88 24.23 28.59 33.35
  Q 27.97 33.89 25.91 34.01
  Q 24.28 34.11 24.00 34.65
  Q 23.68 35.26 23.76 36.54
  A 2.32 2.31 -22.7 0 1 22.99 38.41
  L 15.67 44.90
  A 2.80 2.80 0.0 0 0 15.67 49.08
  L 18.18 51.33
  A 2.92 2.91 -48.3 0 0 22.29 51.09
  L 41.00 30.13
  A 1.75 1.72 -73.4 0 1 42.01 29.57
  L 43.77 29.26
  A 0.88 0.87 -5.1 0 0 44.49 28.40
  Z"
/>
<path fill="#ffffff" d="
  M 43.77 29.26
  L 42.01 29.57
  A 1.75 1.72 -73.4 0 0 41.00 30.13
  L 22.29 51.09
  A 2.92 2.91 -48.3 0 1 18.18 51.33
  L 15.67 49.08
  A 2.80 2.80 0.0 0 1 15.67 44.90
  L 22.99 38.41
  A 2.32 2.31 -22.7 0 0 23.76 36.54
  Q 23.68 35.26 24.00 34.65
  Q 24.28 34.11 25.91 34.01
  Q 27.97 33.89 28.59 33.35
  Q 38.88 24.23 47.53 16.39
  A 2.18 2.17 45.5 0 1 50.49 16.42
  L 50.55 16.48
  A 2.08 2.08 0.0 0 1 50.66 19.38
  L 44.74 25.96
  A 1.03 1.02 -24.9 0 0 44.49 26.63
  L 44.49 28.40
  A 0.88 0.87 -5.1 0 1 43.77 29.26
  Z"
/>
</svg>
