<?xml version="1.0" encoding="UTF-8" standalone="no"?>
<!DOCTYPE svg PUBLIC "-//W3C//DTD SVG 1.1//EN" "http://www.w3.org/Graphics/SVG/1.1/DTD/svg11.dtd">
<svg xmlns="http://www.w3.org/2000/svg" version="1.1" viewBox="0.00 0.00 66.00 88.00">
<g stroke-width="2.00" fill="none" stroke-linecap="butt">
<path stroke="#1b292f" vector-effect="non-scaling-stroke" d="
  M 33.42 86.52
  Q 33.58 86.52 33.67 86.43
  C 48.81 72.63 68.89 47.21 63.33 25.35
  C 59.92 11.95 47.26 2.53 33.51 2.51
  C 19.76 2.50 7.07 11.89 3.63 25.28
  C -1.97 47.13 18.05 72.60 33.16 86.43
  Q 33.26 86.52 33.42 86.52"
/>
<path stroke="#63896e" vector-effect="non-scaling-stroke" d="
  M 35.95 40.64
  Q 37.30 37.82 36.72 35.49
  A 0.39 0.38 -71.7 0 1 37.39 35.15
  C 40.78 39.29 37.06 42.73 34.67 45.88
  A 0.29 0.28 4.1 0 0 35.04 46.30
  C 37.64 44.90 41.74 43.79 42.85 41.59
  C 45.12 37.09 41.65 33.16 38.92 29.95
  C 37.25 27.99 36.82 25.88 37.99 23.62
  A 0.42 0.41 -88.2 0 0 37.46 23.05
  Q 35.71 23.81 34.77 25.24
  A 0.32 0.32 0.0 0 1 34.18 25.06
  Q 34.18 22.82 35.11 19.13
  C 35.53 17.44 34.98 16.06 33.96 14.57
  A 0.24 0.24 0.0 0 0 33.52 14.70
  L 33.52 16.52
  A 2.22 2.21 -24.3 0 1 32.96 17.99
  C 31.38 19.78 29.51 21.35 28.45 23.56
  Q 26.98 26.61 26.96 30.83
  A 0.41 0.41 0.0 0 1 26.18 31.02
  Q 25.67 30.05 24.84 29.71
  A 0.34 0.34 0.0 0 0 24.40 30.16
  C 26.11 34.14 24.48 36.27 23.36 39.95
  A 2.39 2.38 42.8 0 0 23.42 41.51
  C 24.72 44.77 29.40 47.76 32.76 45.31
  A 0.32 0.31 26.9 0 0 32.57 44.74
  L 29.82 44.74
  A 0.26 0.26 0.0 0 1 29.67 44.27
  C 38.21 38.45 23.85 30.72 31.93 23.42
  A 0.19 0.19 0.0 0 1 32.24 23.62
  Q 32.15 23.91 31.39 25.82
  C 29.82 29.73 35.83 34.64 35.54 38.67
  Q 35.39 40.65 35.40 40.66
  A 0.31 0.31 0.0 0 0 35.95 40.64"
/>
<path stroke="#63896e" vector-effect="non-scaling-stroke" d="
  M 33.00 54.19
  C 37.85 54.19 39.77 51.32 43.41 47.43
  Q 44.66 46.09 43.90 44.45
  A 0.37 0.37 0.0 0 0 43.19 44.62
  C 43.22 45.98 43.20 46.77 42.02 47.40
  C 39.24 48.88 36.27 49.27 33.00 49.27
  C 29.72 49.27 26.75 48.88 23.98 47.40
  C 22.80 46.77 22.78 45.98 22.81 44.62
  A 0.37 0.37 0.0 0 0 22.10 44.45
  Q 21.34 46.09 22.59 47.43
  C 26.23 51.32 28.15 54.19 33.00 54.19"
/>
</g>
<path fill="#121d21" d="
  M 33.81 88.00
  L 33.04 88.00
  C 21.74 77.74 12.14 65.70 5.66 51.55
  C 1.29 42.00 -0.32 29.80 4.29 19.97
  C 10.45 6.83 23.96 -0.50 38.69 1.76
  C 53.87 4.10 65.57 17.34 65.46 32.68
  Q 65.42 39.38 63.58 45.31
  C 58.53 61.58 46.33 76.57 33.81 88.00
  Z
  M 33.42 86.52
  Q 33.58 86.52 33.67 86.43
  C 48.81 72.63 68.89 47.21 63.33 25.35
  C 59.92 11.95 47.26 2.53 33.51 2.51
  C 19.76 2.50 7.07 11.89 3.63 25.28
  C -1.97 47.13 18.05 72.60 33.16 86.43
  Q 33.26 86.52 33.42 86.52
  Z"
/>
<path fill="#23353d" d="
  M 33.51 2.51
  C 47.26 2.53 59.92 11.95 63.33 25.35
  C 68.89 47.21 48.81 72.63 33.67 86.43
  Q 33.58 86.52 33.42 86.52
  Q 33.26 86.52 33.16 86.43
  C 18.05 72.60 -1.97 47.13 3.63 25.28
  C 7.07 11.89 19.76 2.50 33.51 2.51
  Z
  M 35.95 40.64
  Q 37.30 37.82 36.72 35.49
  A 0.39 0.38 -71.7 0 1 37.39 35.15
  C 40.78 39.29 37.06 42.73 34.67 45.88
  A 0.29 0.28 4.1 0 0 35.04 46.30
  C 37.64 44.90 41.74 43.79 42.85 41.59
  C 45.12 37.09 41.65 33.16 38.92 29.95
  C 37.25 27.99 36.82 25.88 37.99 23.62
  A 0.42 0.41 -88.2 0 0 37.46 23.05
  Q 35.71 23.81 34.77 25.24
  A 0.32 0.32 0.0 0 1 34.18 25.06
  Q 34.18 22.82 35.11 19.13
  C 35.53 17.44 34.98 16.06 33.96 14.57
  A 0.24 0.24 0.0 0 0 33.52 14.70
  L 33.52 16.52
  A 2.22 2.21 -24.3 0 1 32.96 17.99
  C 31.38 19.78 29.51 21.35 28.45 23.56
  Q 26.98 26.61 26.96 30.83
  A 0.41 0.41 0.0 0 1 26.18 31.02
  Q 25.67 30.05 24.84 29.71
  A 0.34 0.34 0.0 0 0 24.40 30.16
  C 26.11 34.14 24.48 36.27 23.36 39.95
  A 2.39 2.38 42.8 0 0 23.42 41.51
  C 24.72 44.77 29.40 47.76 32.76 45.31
  A 0.32 0.31 26.9 0 0 32.57 44.74
  L 29.82 44.74
  A 0.26 0.26 0.0 0 1 29.67 44.27
  C 38.21 38.45 23.85 30.72 31.93 23.42
  A 0.19 0.19 0.0 0 1 32.24 23.62
  Q 32.15 23.91 31.39 25.82
  C 29.82 29.73 35.83 34.64 35.54 38.67
  Q 35.39 40.65 35.40 40.66
  A 0.31 0.31 0.0 0 0 35.95 40.64
  Z
  M 33.00 54.19
  C 37.85 54.19 39.77 51.32 43.41 47.43
  Q 44.66 46.09 43.90 44.45
  A 0.37 0.37 0.0 0 0 43.19 44.62
  C 43.22 45.98 43.20 46.77 42.02 47.40
  C 39.24 48.88 36.27 49.27 33.00 49.27
  C 29.72 49.27 26.75 48.88 23.98 47.40
  C 22.80 46.77 22.78 45.98 22.81 44.62
  A 0.37 0.37 0.0 0 0 22.10 44.45
  Q 21.34 46.09 22.59 47.43
  C 26.23 51.32 28.15 54.19 33.00 54.19
  Z"
/>
<path fill="#a2dd9f" d="
  M 35.40 40.66
  Q 35.39 40.65 35.54 38.67
  C 35.83 34.64 29.82 29.73 31.39 25.82
  Q 32.15 23.91 32.24 23.62
  A 0.19 0.19 0.0 0 0 31.93 23.42
  C 23.85 30.72 38.21 38.45 29.67 44.27
  A 0.26 0.26 0.0 0 0 29.82 44.74
  L 32.57 44.74
  A 0.32 0.31 26.9 0 1 32.76 45.31
  C 29.40 47.76 24.72 44.77 23.42 41.51
  A 2.39 2.38 42.8 0 1 23.36 39.95
  C 24.48 36.27 26.11 34.14 24.40 30.16
  A 0.34 0.34 0.0 0 1 24.84 29.71
  Q 25.67 30.05 26.18 31.02
  A 0.41 0.41 0.0 0 0 26.96 30.83
  Q 26.98 26.61 28.45 23.56
  C 29.51 21.35 31.38 19.78 32.96 17.99
  A 2.22 2.21 -24.3 0 0 33.52 16.52
  L 33.52 14.70
  A 0.24 0.24 0.0 0 1 33.96 14.57
  C 34.98 16.06 35.53 17.44 35.11 19.13
  Q 34.18 22.82 34.18 25.06
  A 0.32 0.32 0.0 0 0 34.77 25.24
  Q 35.71 23.81 37.46 23.05
  A 0.42 0.41 -88.2 0 1 37.99 23.62
  C 36.82 25.88 37.25 27.99 38.92 29.95
  C 41.65 33.16 45.12 37.09 42.85 41.59
  C 41.74 43.79 37.64 44.90 35.04 46.30
  A 0.29 0.28 4.1 0 1 34.67 45.88
  C 37.06 42.73 40.78 39.29 37.39 35.15
  A 0.39 0.38 -71.7 0 0 36.72 35.49
  Q 37.30 37.82 35.95 40.64
  A 0.31 0.31 0.0 0 1 35.40 40.66
  Z"
/>
<path fill="#a2dd9f" d="
  M 33.00 49.27
  C 36.27 49.27 39.24 48.88 42.02 47.40
  C 43.20 46.77 43.22 45.98 43.19 44.62
  A 0.37 0.37 0.0 0 1 43.90 44.45
  Q 44.66 46.09 43.41 47.43
  C 39.77 51.32 37.85 54.19 33.00 54.19
  C 28.15 54.19 26.23 51.32 22.59 47.43
  Q 21.34 46.09 22.10 44.45
  A 0.37 0.37 0.0 0 1 22.81 44.62
  C 22.78 45.98 22.80 46.77 23.98 47.40
  C 26.75 48.88 29.72 49.27 33.00 49.27
  Z"
/>
</svg>
