<?xml version="1.0" encoding="UTF-8" standalone="no"?>
<!DOCTYPE svg PUBLIC "-//W3C//DTD SVG 1.1//EN" "http://www.w3.org/Graphics/SVG/1.1/DTD/svg11.dtd">
<svg xmlns="http://www.w3.org/2000/svg" version="1.1" viewBox="0.00 0.00 66.00 88.00">
<g stroke-width="2.00" fill="none" stroke-linecap="butt">
<path stroke="#2b4b58" vector-effect="non-scaling-stroke" d="
  M 33.41 86.67
  Q 33.50 86.67 33.58 86.65
  Q 33.61 86.65 33.70 86.57
  Q 48.40 73.14 57.54 56.51
  C 67.30 38.75 67.95 18.22 48.77 6.52
  Q 42.17 2.50 33.52 2.48
  Q 24.88 2.47 18.27 6.48
  C -0.94 18.12 -0.35 38.65 9.36 56.44
  Q 18.45 73.10 33.11 86.57
  Q 33.20 86.65 33.23 86.65
  Q 33.31 86.67 33.41 86.67"
/>
<path stroke="#9db1ba" vector-effect="non-scaling-stroke" d="
  M 42.14 24.83
  A 9.14 9.14 0.0 0 0 33.00 15.69
  A 9.14 9.14 0.0 0 0 23.86 24.83
  A 9.14 9.14 0.0 0 0 33.00 33.97
  A 9.14 9.14 0.0 0 0 42.14 24.83"
/>
<path stroke="#9db1ba" vector-effect="non-scaling-stroke" d="
  M 18.43 52.18
  L 47.57 52.18
  A 3.78 3.78 0.0 0 0 51.35 48.40
  L 51.35 46.07
  A 17.67 9.69 0.0 0 0 33.68 36.38
  L 32.32 36.38
  A 17.67 9.69 -0.0 0 0 14.65 46.07
  L 14.65 48.40
  A 3.78 3.78 0.0 0 0 18.43 52.18"
/>
</g>
<path fill="#1b333c" d="
  M 33.80 88.00
  L 33.13 88.00
  Q 15.62 72.44 6.13 52.87
  Q 3.48 47.42 2.04 39.24
  C 0.08 28.08 3.43 17.31 11.80 9.67
  C 23.94 -1.40 43.96 -1.74 56.04 10.49
  Q 67.96 22.56 64.83 39.76
  Q 62.55 52.30 54.57 64.07
  Q 45.67 77.20 33.80 88.00
  Z
  M 33.41 86.67
  Q 33.50 86.67 33.58 86.65
  Q 33.61 86.65 33.70 86.57
  Q 48.40 73.14 57.54 56.51
  C 67.30 38.75 67.95 18.22 48.77 6.52
  Q 42.17 2.50 33.52 2.48
  Q 24.88 2.47 18.27 6.48
  C -0.94 18.12 -0.35 38.65 9.36 56.44
  Q 18.45 73.10 33.11 86.57
  Q 33.20 86.65 33.23 86.65
  Q 33.31 86.67 33.41 86.67
  Z"
/>
<path fill="#3a6374" d="
  M 33.52 2.48
  Q 42.17 2.50 48.77 6.52
  C 67.95 18.22 67.30 38.75 57.54 56.51
  Q 48.40 73.14 33.70 86.57
  Q 33.61 86.65 33.58 86.65
  Q 33.50 86.67 33.41 86.67
  Q 33.31 86.67 33.23 86.65
  Q 33.20 86.65 33.11 86.57
  Q 18.45 73.10 9.36 56.44
  C -0.35 38.65 -0.94 18.12 18.27 6.48
  Q 24.88 2.47 33.52 2.48
  Z
  M 42.14 24.83
  A 9.14 9.14 0.0 0 0 33.00 15.69
  A 9.14 9.14 0.0 0 0 23.86 24.83
  A 9.14 9.14 0.0 0 0 33.00 33.97
  A 9.14 9.14 0.0 0 0 42.14 24.83
  Z
  M 18.43 52.18
  L 47.57 52.18
  A 3.78 3.78 0.0 0 0 51.35 48.40
  L 51.35 46.07
  A 17.67 9.69 0.0 0 0 33.68 36.38
  L 32.32 36.38
  A 17.67 9.69 -0.0 0 0 14.65 46.07
  L 14.65 48.40
  A 3.78 3.78 0.0 0 0 18.43 52.18
  Z"
/>
<circle fill="#ffffff" cx="33.00" cy="24.83" r="9.14"/>
<path fill="#ffffff" d="
  M 18.43 52.18
  A 3.78 3.78 0.0 0 1 14.65 48.40
  L 14.65 46.07
  A 17.67 9.69 0.0 0 1 32.32 36.38
  L 33.68 36.38
  A 17.67 9.69 -0.0 0 1 51.35 46.07
  L 51.35 48.40
  A 3.78 3.78 0.0 0 1 47.57 52.18
  L 18.43 52.18
  Z"
/>
</svg>
