<?xml version="1.0" encoding="UTF-8" standalone="no"?>
<!DOCTYPE svg PUBLIC "-//W3C//DTD SVG 1.1//EN" "http://www.w3.org/Graphics/SVG/1.1/DTD/svg11.dtd">
<svg xmlns="http://www.w3.org/2000/svg" version="1.1" viewBox="0.00 0.00 66.00 88.00">
<g stroke-width="2.00" fill="none" stroke-linecap="butt">
<path stroke="#3f2d4a" vector-effect="non-scaling-stroke" d="
  M 33.43 86.54
  C 34.06 86.54 33.55 86.58 33.75 86.41
  Q 43.40 78.04 53.42 63.41
  C 63.03 49.41 69.43 30.00 58.51 15.25
  Q 49.71 3.36 34.50 2.49
  Q 33.99 2.46 33.48 2.46
  Q 32.97 2.46 32.46 2.49
  Q 17.25 3.34 8.44 15.22
  C -2.50 29.96 3.88 49.37 13.47 63.39
  Q 23.47 78.03 33.12 86.41
  C 33.31 86.58 32.81 86.54 33.43 86.54"
/>
<path stroke="#a99db0" vector-effect="non-scaling-stroke" d="
  M 33.00 28.19
  Q 35.56 28.19 35.85 28.25
  A 1.81 1.79 77.9 0 1 36.90 28.94
  L 37.98 30.43
  A 1.38 1.37 -17.9 0 0 39.09 30.99
  L 49.92 30.99
  A 0.51 0.50 0.0 0 0 50.43 30.49
  Q 50.45 28.19 49.44 24.61
  Q 49.01 23.12 48.06 22.61
  A 0.20 0.20 0.0 0 0 47.77 22.82
  L 49.08 29.39
  A 0.91 0.90 -5.7 0 1 48.19 30.47
  L 47.69 30.47
  A 1.14 1.13 -0.5 0 1 46.55 29.36
  Q 46.47 26.21 45.27 23.16
  A 0.99 0.98 81.0 0 0 44.42 22.54
  Q 43.75 22.49 33.00 22.50
  Q 22.25 22.51 21.58 22.55
  A 0.99 0.98 -81.1 0 0 20.73 23.17
  Q 19.53 26.22 19.46 29.37
  A 1.14 1.13 0.5 0 1 18.32 30.49
  L 17.82 30.49
  A 0.91 0.90 5.7 0 1 16.93 29.41
  L 18.23 22.84
  A 0.20 0.20 0.0 0 0 17.94 22.63
  Q 16.99 23.14 16.56 24.63
  Q 15.56 28.21 15.58 30.51
  A 0.51 0.50 -0.1 0 0 16.09 31.01
  L 26.92 31.00
  A 1.38 1.37 17.9 0 0 28.03 30.44
  L 29.11 28.94
  A 1.81 1.79 -77.9 0 1 30.16 28.26
  Q 30.45 28.19 33.00 28.19"
/>
<path stroke="#a99db0" vector-effect="non-scaling-stroke" d="
  M 29.6900 32.1485
  A 3.30 2.50 -179.8 0 0 32.9813 34.6600
  A 3.30 2.50 -179.8 0 0 36.2900 32.1715
  A 3.30 2.50 -179.8 0 0 32.9987 29.6600
  A 3.30 2.50 -179.8 0 0 29.6900 32.1485"
/>
<path stroke="#a99db0" vector-effect="non-scaling-stroke" d="
  M 33.00 43.76
  Q 45.54 43.76 45.86 43.79
  A 1.04 1.02 76.1 0 1 46.61 44.25
  Q 46.71 44.41 46.76 44.82
  A 0.77 0.76 -3.4 0 0 47.52 45.49
  L 50.71 45.49
  A 0.49 0.48 -10.6 0 0 51.17 44.83
  L 50.66 43.48
  A 2.16 2.14 -56.0 0 1 50.51 42.69
  L 50.51 33.96
  A 0.75 0.75 0.0 0 0 49.76 33.21
  L 39.15 33.21
  A 1.31 1.30 19.1 0 0 38.13 33.70
  L 36.80 35.39
  A 1.44 1.43 -72.4 0 1 35.76 35.94
  Q 35.52 35.96 33.00 35.96
  Q 30.49 35.96 30.25 35.94
  A 1.44 1.43 72.5 0 1 29.21 35.39
  L 27.88 33.70
  A 1.31 1.30 -19.1 0 0 26.86 33.21
  L 16.25 33.20
  A 0.75 0.75 0.0 0 0 15.50 33.95
  L 15.49 42.68
  A 2.16 2.14 56.1 0 1 15.34 43.47
  L 14.83 44.82
  A 0.49 0.48 10.6 0 0 15.29 45.48
  L 18.48 45.48
  A 0.77 0.76 3.4 0 0 19.24 44.81
  Q 19.29 44.40 19.39 44.24
  A 1.04 1.02 -76.0 0 1 20.15 43.78
  Q 20.46 43.75 33.00 43.76"
/>
<path stroke="#a99db0" vector-effect="non-scaling-stroke" d="
  M 19.2458 34.6022
  A 0.72 0.72 0.0 0 0 18.5271 33.8809
  L 17.4671 33.8791
  A 0.72 0.72 0.0 0 0 16.7458 34.5978
  L 16.7342 41.2978
  A 0.72 0.72 0.0 0 0 17.4529 42.0191
  L 18.5129 42.0209
  A 0.72 0.72 0.0 0 0 19.2342 41.3022
  L 19.2458 34.6022"
/>
<path stroke="#a99db0" vector-effect="non-scaling-stroke" d="
  M 49.25 34.51
  A 0.62 0.62 0.0 0 0 48.63 33.89
  L 47.37 33.89
  A 0.62 0.62 0.0 0 0 46.75 34.51
  L 46.75 41.37
  A 0.62 0.62 0.0 0 0 47.37 41.99
  L 48.63 41.99
  A 0.62 0.62 0.0 0 0 49.25 41.37
  L 49.25 34.51"
/>
</g>
<path fill="#2a1e32" d="
  M 33.79 88.00
  L 33.04 88.00
  C 21.74 77.74 12.13 65.69 5.65 51.55
  Q 2.20 44.03 1.59 34.89
  C 0.55 18.97 11.20 5.67 26.49 2.10
  Q 36.71 -0.28 46.98 4.28
  Q 57.22 8.83 62.58 19.68
  C 66.98 28.60 65.90 39.68 62.38 48.93
  C 56.76 63.69 45.41 77.46 33.79 88.00
  Z
  M 33.43 86.54
  C 34.06 86.54 33.55 86.58 33.75 86.41
  Q 43.40 78.04 53.42 63.41
  C 63.03 49.41 69.43 30.00 58.51 15.25
  Q 49.71 3.36 34.50 2.49
  Q 33.99 2.46 33.48 2.46
  Q 32.97 2.46 32.46 2.49
  Q 17.25 3.34 8.44 15.22
  C -2.50 29.96 3.88 49.37 13.47 63.39
  Q 23.47 78.03 33.12 86.41
  C 33.31 86.58 32.81 86.54 33.43 86.54
  Z"
/>
<path fill="#533b61" d="
  M 33.48 2.46
  Q 33.99 2.46 34.50 2.49
  Q 49.71 3.36 58.51 15.25
  C 69.43 30.00 63.03 49.41 53.42 63.41
  Q 43.40 78.04 33.75 86.41
  C 33.55 86.58 34.06 86.54 33.43 86.54
  C 32.81 86.54 33.31 86.58 33.12 86.41
  Q 23.47 78.03 13.47 63.39
  C 3.88 49.37 -2.50 29.96 8.44 15.22
  Q 17.25 3.34 32.46 2.49
  Q 32.97 2.46 33.48 2.46
  Z
  M 33.00 28.19
  Q 35.56 28.19 35.85 28.25
  A 1.81 1.79 77.9 0 1 36.90 28.94
  L 37.98 30.43
  A 1.38 1.37 -17.9 0 0 39.09 30.99
  L 49.92 30.99
  A 0.51 0.50 0.0 0 0 50.43 30.49
  Q 50.45 28.19 49.44 24.61
  Q 49.01 23.12 48.06 22.61
  A 0.20 0.20 0.0 0 0 47.77 22.82
  L 49.08 29.39
  A 0.91 0.90 -5.7 0 1 48.19 30.47
  L 47.69 30.47
  A 1.14 1.13 -0.5 0 1 46.55 29.36
  Q 46.47 26.21 45.27 23.16
  A 0.99 0.98 81.0 0 0 44.42 22.54
  Q 43.75 22.49 33.00 22.50
  Q 22.25 22.51 21.58 22.55
  A 0.99 0.98 -81.1 0 0 20.73 23.17
  Q 19.53 26.22 19.46 29.37
  A 1.14 1.13 0.5 0 1 18.32 30.49
  L 17.82 30.49
  A 0.91 0.90 5.7 0 1 16.93 29.41
  L 18.23 22.84
  A 0.20 0.20 0.0 0 0 17.94 22.63
  Q 16.99 23.14 16.56 24.63
  Q 15.56 28.21 15.58 30.51
  A 0.51 0.50 -0.1 0 0 16.09 31.01
  L 26.92 31.00
  A 1.38 1.37 17.9 0 0 28.03 30.44
  L 29.11 28.94
  A 1.81 1.79 -77.9 0 1 30.16 28.26
  Q 30.45 28.19 33.00 28.19
  Z
  M 29.6900 32.1485
  A 3.30 2.50 -179.8 0 0 32.9813 34.6600
  A 3.30 2.50 -179.8 0 0 36.2900 32.1715
  A 3.30 2.50 -179.8 0 0 32.9987 29.6600
  A 3.30 2.50 -179.8 0 0 29.6900 32.1485
  Z
  M 33.00 43.76
  Q 45.54 43.76 45.86 43.79
  A 1.04 1.02 76.1 0 1 46.61 44.25
  Q 46.71 44.41 46.76 44.82
  A 0.77 0.76 -3.4 0 0 47.52 45.49
  L 50.71 45.49
  A 0.49 0.48 -10.6 0 0 51.17 44.83
  L 50.66 43.48
  A 2.16 2.14 -56.0 0 1 50.51 42.69
  L 50.51 33.96
  A 0.75 0.75 0.0 0 0 49.76 33.21
  L 39.15 33.21
  A 1.31 1.30 19.1 0 0 38.13 33.70
  L 36.80 35.39
  A 1.44 1.43 -72.4 0 1 35.76 35.94
  Q 35.52 35.96 33.00 35.96
  Q 30.49 35.96 30.25 35.94
  A 1.44 1.43 72.5 0 1 29.21 35.39
  L 27.88 33.70
  A 1.31 1.30 -19.1 0 0 26.86 33.21
  L 16.25 33.20
  A 0.75 0.75 0.0 0 0 15.50 33.95
  L 15.49 42.68
  A 2.16 2.14 56.1 0 1 15.34 43.47
  L 14.83 44.82
  A 0.49 0.48 10.6 0 0 15.29 45.48
  L 18.48 45.48
  A 0.77 0.76 3.4 0 0 19.24 44.81
  Q 19.29 44.40 19.39 44.24
  A 1.04 1.02 -76.0 0 1 20.15 43.78
  Q 20.46 43.75 33.00 43.76
  Z"
/>
<path fill="#ffffff" d="
  M 33.00 22.50
  Q 43.75 22.49 44.42 22.54
  A 0.99 0.98 81.0 0 1 45.27 23.16
  Q 46.47 26.21 46.55 29.36
  A 1.14 1.13 -0.5 0 0 47.69 30.47
  L 48.19 30.47
  A 0.91 0.90 -5.7 0 0 49.08 29.39
  L 47.77 22.82
  A 0.20 0.20 0.0 0 1 48.06 22.61
  Q 49.01 23.12 49.44 24.61
  Q 50.45 28.19 50.43 30.49
  A 0.51 0.50 0.0 0 1 49.92 30.99
  L 39.09 30.99
  A 1.38 1.37 -17.9 0 1 37.98 30.43
  L 36.90 28.94
  A 1.81 1.79 77.9 0 0 35.85 28.25
  Q 35.56 28.19 33.00 28.19
  Q 30.45 28.19 30.16 28.26
  A 1.81 1.79 -77.9 0 0 29.11 28.94
  L 28.03 30.44
  A 1.38 1.37 17.9 0 1 26.92 31.00
  L 16.09 31.01
  A 0.51 0.50 -0.1 0 1 15.58 30.51
  Q 15.56 28.21 16.56 24.63
  Q 16.99 23.14 17.94 22.63
  A 0.20 0.20 0.0 0 1 18.23 22.84
  L 16.93 29.41
  A 0.91 0.90 5.7 0 0 17.82 30.49
  L 18.32 30.49
  A 1.14 1.13 0.5 0 0 19.46 29.37
  Q 19.53 26.22 20.73 23.17
  A 0.99 0.98 -81.1 0 1 21.58 22.55
  Q 22.25 22.51 33.00 22.50
  Z"
/>
<ellipse fill="#ffffff" cx="0.00" cy="0.00" transform="translate(32.99,32.16) rotate(-179.8)" rx="3.30" ry="2.50"/>
<path fill="#ffffff" d="
  M 33.00 35.96
  Q 35.52 35.96 35.76 35.94
  A 1.44 1.43 -72.4 0 0 36.80 35.39
  L 38.13 33.70
  A 1.31 1.30 19.1 0 1 39.15 33.21
  L 49.76 33.21
  A 0.75 0.75 0.0 0 1 50.51 33.96
  L 50.51 42.69
  A 2.16 2.14 -56.0 0 0 50.66 43.48
  L 51.17 44.83
  A 0.49 0.48 -10.6 0 1 50.71 45.49
  L 47.52 45.49
  A 0.77 0.76 -3.4 0 1 46.76 44.82
  Q 46.71 44.41 46.61 44.25
  A 1.04 1.02 76.1 0 0 45.86 43.79
  Q 45.54 43.76 33.00 43.76
  Q 20.46 43.75 20.15 43.78
  A 1.04 1.02 -76.0 0 0 19.39 44.24
  Q 19.29 44.40 19.24 44.81
  A 0.77 0.76 3.4 0 1 18.48 45.48
  L 15.29 45.48
  A 0.49 0.48 10.6 0 1 14.83 44.82
  L 15.34 43.47
  A 2.16 2.14 56.1 0 0 15.49 42.68
  L 15.50 33.95
  A 0.75 0.75 0.0 0 1 16.25 33.20
  L 26.86 33.21
  A 1.31 1.30 -19.1 0 1 27.88 33.70
  L 29.21 35.39
  A 1.44 1.43 72.5 0 0 30.25 35.94
  Q 30.49 35.96 33.00 35.96
  Z
  M 19.2458 34.6022
  A 0.72 0.72 0.0 0 0 18.5271 33.8809
  L 17.4671 33.8791
  A 0.72 0.72 0.0 0 0 16.7458 34.5978
  L 16.7342 41.2978
  A 0.72 0.72 0.0 0 0 17.4529 42.0191
  L 18.5129 42.0209
  A 0.72 0.72 0.0 0 0 19.2342 41.3022
  L 19.2458 34.6022
  Z
  M 49.25 34.51
  A 0.62 0.62 0.0 0 0 48.63 33.89
  L 47.37 33.89
  A 0.62 0.62 0.0 0 0 46.75 34.51
  L 46.75 41.37
  A 0.62 0.62 0.0 0 0 47.37 41.99
  L 48.63 41.99
  A 0.62 0.62 0.0 0 0 49.25 41.37
  L 49.25 34.51
  Z"
/>
<rect fill="#533b61" x="-1.25" y="-4.07" transform="translate(17.99,37.95) rotate(0.1)" width="2.50" height="8.14" rx="0.72"/>
<rect fill="#533b61" x="46.75" y="33.89" width="2.50" height="8.10" rx="0.62"/>
</svg>
