<?xml version="1.0" encoding="UTF-8" standalone="no"?>
<!DOCTYPE svg PUBLIC "-//W3C//DTD SVG 1.1//EN" "http://www.w3.org/Graphics/SVG/1.1/DTD/svg11.dtd">
<svg xmlns="http://www.w3.org/2000/svg" version="1.1" viewBox="0.00 0.00 66.00 88.00">
<g stroke-width="2.00" fill="none" stroke-linecap="butt">
<path stroke="#1e4056" vector-effect="non-scaling-stroke" d="
  M 33.42 86.61
  C 34.09 86.62 33.57 86.67 33.78 86.47
  Q 47.70 73.48 56.60 58.34
  C 61.98 49.19 66.03 36.76 63.56 26.24
  C 60.28 12.24 47.88 2.57 33.51 2.55
  C 19.13 2.54 6.71 12.18 3.40 26.18
  C 0.91 36.69 4.94 49.13 10.30 58.29
  Q 19.17 73.45 33.06 86.47
  C 33.27 86.67 32.75 86.61 33.42 86.61"
/>
<path stroke="#94aab8" vector-effect="non-scaling-stroke" d="
  M 32.33 24.18
  L 37.57 23.94
  A 1.81 1.74 -57.4 0 0 38.15 23.80
  Q 41.63 22.25 43.36 18.76
  A 1.51 1.51 0.0 0 0 42.47 16.65
  Q 36.34 14.69 29.94 17.05
  A 1.40 1.40 0.0 0 0 29.09 18.79
  Q 30.00 21.66 31.73 23.90
  A 0.74 0.74 0.0 0 0 32.33 24.18"
/>
<path stroke="#94aab8" vector-effect="non-scaling-stroke" d="
  M 31.53 30.21
  L 32.94 26.74
  A 0.41 0.41 0.0 0 0 32.31 26.27
  Q 26.23 30.98 22.00 37.89
  C 20.46 40.39 18.03 47.28 21.34 49.22
  Q 30.46 54.57 40.66 50.65
  Q 47.01 48.20 46.22 41.26
  A 3.79 3.59 33.1 0 0 46.01 40.38
  Q 44.34 36.08 41.82 30.69
  Q 40.03 26.86 36.08 26.28
  A 1.52 1.52 0.0 0 0 34.64 26.88
  L 31.98 30.47
  A 0.26 0.26 0.0 0 1 31.53 30.21"
/>
</g>
<path fill="#132c3a" d="
  M 33.80 88.00
  L 33.15 88.00
  Q 15.61 72.48 6.00 52.51
  Q 2.26 44.73 1.63 35.22
  Q 1.01 25.75 5.25 18.02
  C 12.65 4.52 28.25 -1.75 43.29 2.86
  Q 51.54 5.38 57.27 11.78
  Q 67.82 23.56 64.84 39.76
  Q 62.53 52.33 54.57 64.07
  Q 45.67 77.20 33.80 88.00
  Z
  M 33.42 86.61
  C 34.09 86.62 33.57 86.67 33.78 86.47
  Q 47.70 73.48 56.60 58.34
  C 61.98 49.19 66.03 36.76 63.56 26.24
  C 60.28 12.24 47.88 2.57 33.51 2.55
  C 19.13 2.54 6.71 12.18 3.40 26.18
  C 0.91 36.69 4.94 49.13 10.30 58.29
  Q 19.17 73.45 33.06 86.47
  C 33.27 86.67 32.75 86.61 33.42 86.61
  Z"
/>
<path fill="#285471" d="
  M 33.51 2.55
  C 47.88 2.57 60.28 12.24 63.56 26.24
  C 66.03 36.76 61.98 49.19 56.60 58.34
  Q 47.70 73.48 33.78 86.47
  C 33.57 86.67 34.09 86.62 33.42 86.61
  C 32.75 86.61 33.27 86.67 33.06 86.47
  Q 19.17 73.45 10.30 58.29
  C 4.94 49.13 0.91 36.69 3.40 26.18
  C 6.71 12.18 19.13 2.54 33.51 2.55
  Z
  M 32.33 24.18
  L 37.57 23.94
  A 1.81 1.74 -57.4 0 0 38.15 23.80
  Q 41.63 22.25 43.36 18.76
  A 1.51 1.51 0.0 0 0 42.47 16.65
  Q 36.34 14.69 29.94 17.05
  A 1.40 1.40 0.0 0 0 29.09 18.79
  Q 30.00 21.66 31.73 23.90
  A 0.74 0.74 0.0 0 0 32.33 24.18
  Z
  M 31.53 30.21
  L 32.94 26.74
  A 0.41 0.41 0.0 0 0 32.31 26.27
  Q 26.23 30.98 22.00 37.89
  C 20.46 40.39 18.03 47.28 21.34 49.22
  Q 30.46 54.57 40.66 50.65
  Q 47.01 48.20 46.22 41.26
  A 3.79 3.59 33.1 0 0 46.01 40.38
  Q 44.34 36.08 41.82 30.69
  Q 40.03 26.86 36.08 26.28
  A 1.52 1.52 0.0 0 0 34.64 26.88
  L 31.98 30.47
  A 0.26 0.26 0.0 0 1 31.53 30.21
  Z"
/>
<path fill="#ffffff" d="
  M 31.73 23.90
  Q 30.00 21.66 29.09 18.79
  A 1.40 1.40 0.0 0 1 29.94 17.05
  Q 36.34 14.69 42.47 16.65
  A 1.51 1.51 0.0 0 1 43.36 18.76
  Q 41.63 22.25 38.15 23.80
  A 1.81 1.74 -57.4 0 1 37.57 23.94
  L 32.33 24.18
  A 0.74 0.74 0.0 0 1 31.73 23.90
  Z"
/>
<path fill="#ffffff" d="
  M 31.53 30.21
  A 0.26 0.26 0.0 0 0 31.98 30.47
  L 34.64 26.88
  A 1.52 1.52 0.0 0 1 36.08 26.28
  Q 40.03 26.86 41.82 30.69
  Q 44.34 36.08 46.01 40.38
  A 3.79 3.59 33.1 0 1 46.22 41.26
  Q 47.01 48.20 40.66 50.65
  Q 30.46 54.57 21.34 49.22
  C 18.03 47.28 20.46 40.39 22.00 37.89
  Q 26.23 30.98 32.31 26.27
  A 0.41 0.41 0.0 0 1 32.94 26.74
  L 31.53 30.21
  Z"
/>
</svg>
