<?xml version="1.0" encoding="UTF-8" standalone="no"?>
<!DOCTYPE svg PUBLIC "-//W3C//DTD SVG 1.1//EN" "http://www.w3.org/Graphics/SVG/1.1/DTD/svg11.dtd">
<svg xmlns="http://www.w3.org/2000/svg" version="1.1" viewBox="0.00 0.00 66.00 88.00">
<g stroke-width="2.00" fill="none" stroke-linecap="butt">
<path stroke="#1b292f" vector-effect="non-scaling-stroke" d="
  M 33.40 86.52
  Q 33.57 86.52 33.79 86.32
  Q 48.36 73.04 57.67 56.23
  Q 64.18 44.49 64.17 32.27
  Q 64.17 26.56 62.65 22.88
  Q 54.78 3.86 34.00 2.48
  Q 33.77 2.46 33.50 2.46
  Q 33.23 2.46 32.99 2.48
  Q 12.21 3.81 4.30 22.81
  Q 2.77 26.49 2.76 32.20
  Q 2.72 44.42 9.20 56.17
  Q 18.47 73.01 33.01 86.32
  Q 33.23 86.52 33.40 86.52"
/>
<path stroke="#919a9e" vector-effect="non-scaling-stroke" d="
  M 14.9700 22.0009
  A 10.97 6.05 -179.9 0 0 25.9294 28.0700
  A 10.97 6.05 -179.9 0 0 36.9100 22.0391
  A 10.97 6.05 -179.9 0 0 25.9506 15.9700
  A 10.97 6.05 -179.9 0 0 14.9700 22.0009"
/>
<path stroke="#919a9e" vector-effect="non-scaling-stroke" d="
  M 26.06 32.25
  C 29.48 32.22 38.08 30.46 36.81 25.34
  A 0.22 0.22 0.0 0 0 36.39 25.31
  C 34.97 28.74 29.46 29.82 26.03 29.85
  C 22.60 29.88 17.08 28.90 15.60 25.50
  A 0.22 0.22 0.0 0 0 15.17 25.54
  C 14.00 30.68 22.64 32.28 26.06 32.25"
/>
<path stroke="#919a9e" vector-effect="non-scaling-stroke" d="
  M 15.05 30.08
  C 14.98 35.35 22.68 36.72 26.72 36.52
  A 0.68 0.68 0.0 0 0 27.37 35.84
  L 27.37 34.46
  A 0.49 0.48 87.8 0 0 26.85 33.97
  C 22.63 34.30 18.02 33.23 15.57 29.92
  A 0.29 0.28 27.5 0 0 15.05 30.08"
/>
<path stroke="#919a9e" vector-effect="non-scaling-stroke" d="
  M 51.03 37.53
  A 10.98 6.06 0.0 0 0 40.05 31.47
  A 10.98 6.06 0.0 0 0 29.07 37.53
  A 10.98 6.06 0.0 0 0 40.05 43.59
  A 10.98 6.06 0.0 0 0 51.03 37.53"
/>
<path stroke="#919a9e" vector-effect="non-scaling-stroke" d="
  M 15.11 34.38
  C 15.01 39.51 22.49 40.90 26.43 40.74
  A 0.66 0.66 0.0 0 0 27.07 40.08
  L 27.08 38.74
  A 0.48 0.47 88.3 0 0 26.58 38.26
  C 22.46 38.55 17.98 37.47 15.62 34.23
  A 0.28 0.28 0.0 0 0 15.11 34.38"
/>
<path stroke="#919a9e" vector-effect="non-scaling-stroke" d="
  M 15.13 38.67
  C 15.05 43.79 22.53 45.14 26.45 44.95
  A 0.66 0.66 0.0 0 0 27.09 44.29
  L 27.09 42.95
  A 0.48 0.47 88.0 0 0 26.58 42.48
  C 22.48 42.79 18.00 41.74 15.63 38.51
  A 0.28 0.28 0.0 0 0 15.13 38.67"
/>
<path stroke="#919a9e" vector-effect="non-scaling-stroke" d="
  M 39.95 47.79
  C 43.36 47.81 51.96 46.20 50.78 41.08
  A 0.22 0.22 0.0 0 0 50.36 41.04
  C 48.89 44.43 43.38 45.42 39.96 45.39
  C 36.54 45.37 31.05 44.31 29.63 40.89
  A 0.22 0.22 0.0 0 0 29.20 40.92
  C 27.95 46.03 36.54 47.76 39.95 47.79"
/>
<path stroke="#919a9e" vector-effect="non-scaling-stroke" d="
  M 39.97 52.01
  C 43.41 52.03 52.07 50.40 50.87 45.24
  A 0.22 0.22 0.0 0 0 50.45 45.20
  C 48.98 48.62 43.43 49.62 39.99 49.60
  C 36.54 49.58 31.01 48.52 29.58 45.08
  A 0.22 0.22 0.0 0 0 29.16 45.11
  C 27.90 50.26 36.54 51.99 39.97 52.01"
/>
</g>
<path fill="#121c20" d="
  M 33.80 88.00
  L 33.04 88.00
  C 21.76 77.75 12.11 65.67 5.64 51.56
  Q 2.20 44.06 1.59 34.89
  C 0.53 18.99 11.22 5.65 26.49 2.10
  C 40.97 -1.26 55.89 5.93 62.58 19.70
  C 66.92 28.63 65.94 39.78 62.41 48.85
  C 56.58 63.78 45.59 77.28 33.80 88.00
  Z
  M 33.40 86.52
  Q 33.57 86.52 33.79 86.32
  Q 48.36 73.04 57.67 56.23
  Q 64.18 44.49 64.17 32.27
  Q 64.17 26.56 62.65 22.88
  Q 54.78 3.86 34.00 2.48
  Q 33.77 2.46 33.50 2.46
  Q 33.23 2.46 32.99 2.48
  Q 12.21 3.81 4.30 22.81
  Q 2.77 26.49 2.76 32.20
  Q 2.72 44.42 9.20 56.17
  Q 18.47 73.01 33.01 86.32
  Q 33.23 86.52 33.40 86.52
  Z"
/>
<path fill="#23353d" d="
  M 33.50 2.46
  Q 33.77 2.46 34.00 2.48
  Q 54.78 3.86 62.65 22.88
  Q 64.17 26.56 64.17 32.27
  Q 64.18 44.49 57.67 56.23
  Q 48.36 73.04 33.79 86.32
  Q 33.57 86.52 33.40 86.52
  Q 33.23 86.52 33.01 86.32
  Q 18.47 73.01 9.20 56.17
  Q 2.72 44.42 2.76 32.20
  Q 2.77 26.49 4.30 22.81
  Q 12.21 3.81 32.99 2.48
  Q 33.23 2.46 33.50 2.46
  Z
  M 14.9700 22.0009
  A 10.97 6.05 -179.9 0 0 25.9294 28.0700
  A 10.97 6.05 -179.9 0 0 36.9100 22.0391
  A 10.97 6.05 -179.9 0 0 25.9506 15.9700
  A 10.97 6.05 -179.9 0 0 14.9700 22.0009
  Z
  M 26.06 32.25
  C 29.48 32.22 38.08 30.46 36.81 25.34
  A 0.22 0.22 0.0 0 0 36.39 25.31
  C 34.97 28.74 29.46 29.82 26.03 29.85
  C 22.60 29.88 17.08 28.90 15.60 25.50
  A 0.22 0.22 0.0 0 0 15.17 25.54
  C 14.00 30.68 22.64 32.28 26.06 32.25
  Z
  M 15.05 30.08
  C 14.98 35.35 22.68 36.72 26.72 36.52
  A 0.68 0.68 0.0 0 0 27.37 35.84
  L 27.37 34.46
  A 0.49 0.48 87.8 0 0 26.85 33.97
  C 22.63 34.30 18.02 33.23 15.57 29.92
  A 0.29 0.28 27.5 0 0 15.05 30.08
  Z
  M 51.03 37.53
  A 10.98 6.06 0.0 0 0 40.05 31.47
  A 10.98 6.06 0.0 0 0 29.07 37.53
  A 10.98 6.06 0.0 0 0 40.05 43.59
  A 10.98 6.06 0.0 0 0 51.03 37.53
  Z
  M 15.11 34.38
  C 15.01 39.51 22.49 40.90 26.43 40.74
  A 0.66 0.66 0.0 0 0 27.07 40.08
  L 27.08 38.74
  A 0.48 0.47 88.3 0 0 26.58 38.26
  C 22.46 38.55 17.98 37.47 15.62 34.23
  A 0.28 0.28 0.0 0 0 15.11 34.38
  Z
  M 15.13 38.67
  C 15.05 43.79 22.53 45.14 26.45 44.95
  A 0.66 0.66 0.0 0 0 27.09 44.29
  L 27.09 42.95
  A 0.48 0.47 88.0 0 0 26.58 42.48
  C 22.48 42.79 18.00 41.74 15.63 38.51
  A 0.28 0.28 0.0 0 0 15.13 38.67
  Z
  M 39.95 47.79
  C 43.36 47.81 51.96 46.20 50.78 41.08
  A 0.22 0.22 0.0 0 0 50.36 41.04
  C 48.89 44.43 43.38 45.42 39.96 45.39
  C 36.54 45.37 31.05 44.31 29.63 40.89
  A 0.22 0.22 0.0 0 0 29.20 40.92
  C 27.95 46.03 36.54 47.76 39.95 47.79
  Z
  M 39.97 52.01
  C 43.41 52.03 52.07 50.40 50.87 45.24
  A 0.22 0.22 0.0 0 0 50.45 45.20
  C 48.98 48.62 43.43 49.62 39.99 49.60
  C 36.54 49.58 31.01 48.52 29.58 45.08
  A 0.22 0.22 0.0 0 0 29.16 45.11
  C 27.90 50.26 36.54 51.99 39.97 52.01
  Z"
/>
<ellipse fill="#ffffff" cx="0.00" cy="0.00" transform="translate(25.94,22.02) rotate(-179.9)" rx="10.97" ry="6.05"/>
<path fill="#ffffff" d="
  M 26.06 32.25
  C 22.64 32.28 14.00 30.68 15.17 25.54
  A 0.22 0.22 0.0 0 1 15.60 25.50
  C 17.08 28.90 22.60 29.88 26.03 29.85
  C 29.46 29.82 34.97 28.74 36.39 25.31
  A 0.22 0.22 0.0 0 1 36.81 25.34
  C 38.08 30.46 29.48 32.22 26.06 32.25
  Z"
/>
<path fill="#ffffff" d="
  M 15.57 29.92
  C 18.02 33.23 22.63 34.30 26.85 33.97
  A 0.49 0.48 87.8 0 1 27.37 34.46
  L 27.37 35.84
  A 0.68 0.68 0.0 0 1 26.72 36.52
  C 22.68 36.72 14.98 35.35 15.05 30.08
  A 0.29 0.28 27.5 0 1 15.57 29.92
  Z"
/>
<ellipse fill="#ffffff" cx="40.05" cy="37.53" rx="10.98" ry="6.06"/>
<path fill="#ffffff" d="
  M 15.11 34.38
  A 0.28 0.28 0.0 0 1 15.62 34.23
  C 17.98 37.47 22.46 38.55 26.58 38.26
  A 0.48 0.47 88.3 0 1 27.08 38.74
  L 27.07 40.08
  A 0.66 0.66 0.0 0 1 26.43 40.74
  C 22.49 40.90 15.01 39.51 15.11 34.38
  Z"
/>
<path fill="#ffffff" d="
  M 15.13 38.67
  A 0.28 0.28 0.0 0 1 15.63 38.51
  C 18.00 41.74 22.48 42.79 26.58 42.48
  A 0.48 0.47 88.0 0 1 27.09 42.95
  L 27.09 44.29
  A 0.66 0.66 0.0 0 1 26.45 44.95
  C 22.53 45.14 15.05 43.79 15.13 38.67
  Z"
/>
<path fill="#ffffff" d="
  M 39.96 45.39
  C 43.38 45.42 48.89 44.43 50.36 41.04
  A 0.22 0.22 0.0 0 1 50.78 41.08
  C 51.96 46.20 43.36 47.81 39.95 47.79
  C 36.54 47.76 27.95 46.03 29.20 40.92
  A 0.22 0.22 0.0 0 1 29.63 40.89
  C 31.05 44.31 36.54 45.37 39.96 45.39
  Z"
/>
<path fill="#ffffff" d="
  M 39.97 52.01
  C 36.54 51.99 27.90 50.26 29.16 45.11
  A 0.22 0.22 0.0 0 1 29.58 45.08
  C 31.01 48.52 36.54 49.58 39.99 49.60
  C 43.43 49.62 48.98 48.62 50.45 45.20
  A 0.22 0.22 0.0 0 1 50.87 45.24
  C 52.07 50.40 43.41 52.03 39.97 52.01
  Z"
/>
</svg>
