<?xml version="1.0" encoding="UTF-8" standalone="no"?>
<!DOCTYPE svg PUBLIC "-//W3C//DTD SVG 1.1//EN" "http://www.w3.org/Graphics/SVG/1.1/DTD/svg11.dtd">
<svg xmlns="http://www.w3.org/2000/svg" version="1.1" viewBox="0.00 0.00 66.00 88.00">
<g stroke-width="2.00" fill="none" stroke-linecap="butt">
<path stroke="#2b4b58" vector-effect="non-scaling-stroke" d="
  M 33.42 86.62
  C 33.72 86.62 33.67 86.63 33.82 86.49
  Q 48.34 73.13 57.57 56.52
  Q 62.86 47.00 64.04 37.05
  C 66.27 18.32 52.48 3.02 33.75 2.48
  Q 33.63 2.48 33.51 2.48
  Q 33.39 2.48 33.27 2.48
  C 14.54 2.98 0.72 18.25 2.91 36.99
  Q 4.07 46.94 9.34 56.47
  Q 18.54 73.10 33.03 86.49
  C 33.18 86.63 33.13 86.62 33.42 86.62"
/>
<path stroke="#9db1ba" vector-effect="non-scaling-stroke" d="
  M 23.53 30.27
  Q 22.34 29.86 20.94 28.71
  A 0.53 0.53 0.0 0 0 20.09 28.97
  Q 19.31 31.57 19.06 34.64
  C 17.61 52.14 42.18 55.87 46.63 39.46
  A 0.25 0.25 0.0 0 0 46.32 39.15
  L 42.13 40.42
  A 0.22 0.22 0.0 0 1 41.91 40.05
  L 46.26 35.69
  A 2.78 2.77 -30.8 0 0 46.96 32.94
  L 44.85 25.97
  A 0.77 0.76 52.2 0 0 43.46 25.79
  Q 40.98 29.87 38.70 31.22
  C 34.53 33.68 28.90 35.80 29.89 39.80
  A 1.60 1.57 -79.4 0 0 30.50 40.71
  Q 33.99 43.22 38.04 42.28
  A 0.24 0.23 -14.3 0 1 38.32 42.44
  L 38.32 42.45
  A 0.18 0.18 0.0 0 1 38.21 42.67
  C 34.02 44.22 24.85 44.95 26.33 37.37
  C 26.93 34.29 32.36 33.28 36.20 32.05
  A 4.90 4.78 19.2 0 0 37.31 31.53
  C 40.12 29.78 42.06 25.44 41.83 21.81
  Q 41.76 20.73 40.39 19.42
  Q 33.10 12.43 25.45 19.49
  A 0.38 0.38 0.0 0 0 25.70 20.15
  C 29.41 20.22 34.72 19.32 34.58 23.42
  C 34.49 26.41 29.94 27.14 27.76 26.87
  A 0.30 0.30 0.0 0 1 27.75 26.27
  Q 29.75 26.02 30.70 24.71
  A 2.08 1.85 33.4 0 0 29.96 21.92
  Q 28.05 20.75 25.19 20.63
  A 1.05 1.03 -69.2 0 0 24.34 21.02
  Q 22.22 23.61 21.06 26.66
  A 0.91 0.90 33.6 0 0 21.26 27.62
  L 23.68 30.03
  A 0.15 0.15 0.0 0 1 23.53 30.27"
/>
</g>
<path fill="#1b333c" d="
  M 33.79 88.00
  L 33.15 88.00
  Q 15.61 72.49 6.00 52.51
  Q 2.31 44.84 1.62 35.22
  Q 0.94 25.68 5.27 17.98
  C 18.14 -4.86 51.12 -4.19 62.69 19.93
  C 66.95 28.82 65.89 40.04 62.33 49.06
  C 56.49 63.88 45.53 77.35 33.79 88.00
  Z
  M 33.42 86.62
  C 33.72 86.62 33.67 86.63 33.82 86.49
  Q 48.34 73.13 57.57 56.52
  Q 62.86 47.00 64.04 37.05
  C 66.27 18.32 52.48 3.02 33.75 2.48
  Q 33.63 2.48 33.51 2.48
  Q 33.39 2.48 33.27 2.48
  C 14.54 2.98 0.72 18.25 2.91 36.99
  Q 4.07 46.94 9.34 56.47
  Q 18.54 73.10 33.03 86.49
  C 33.18 86.63 33.13 86.62 33.42 86.62
  Z"
/>
<path fill="#3a6374" d="
  M 33.51 2.48
  Q 33.63 2.48 33.75 2.48
  C 52.48 3.02 66.27 18.32 64.04 37.05
  Q 62.86 47.00 57.57 56.52
  Q 48.34 73.13 33.82 86.49
  C 33.67 86.63 33.72 86.62 33.42 86.62
  C 33.13 86.62 33.18 86.63 33.03 86.49
  Q 18.54 73.10 9.34 56.47
  Q 4.07 46.94 2.91 36.99
  C 0.72 18.25 14.54 2.98 33.27 2.48
  Q 33.39 2.48 33.51 2.48
  Z
  M 23.53 30.27
  Q 22.34 29.86 20.94 28.71
  A 0.53 0.53 0.0 0 0 20.09 28.97
  Q 19.31 31.57 19.06 34.64
  C 17.61 52.14 42.18 55.87 46.63 39.46
  A 0.25 0.25 0.0 0 0 46.32 39.15
  L 42.13 40.42
  A 0.22 0.22 0.0 0 1 41.91 40.05
  L 46.26 35.69
  A 2.78 2.77 -30.8 0 0 46.96 32.94
  L 44.85 25.97
  A 0.77 0.76 52.2 0 0 43.46 25.79
  Q 40.98 29.87 38.70 31.22
  C 34.53 33.68 28.90 35.80 29.89 39.80
  A 1.60 1.57 -79.4 0 0 30.50 40.71
  Q 33.99 43.22 38.04 42.28
  A 0.24 0.23 -14.3 0 1 38.32 42.44
  L 38.32 42.45
  A 0.18 0.18 0.0 0 1 38.21 42.67
  C 34.02 44.22 24.85 44.95 26.33 37.37
  C 26.93 34.29 32.36 33.28 36.20 32.05
  A 4.90 4.78 19.2 0 0 37.31 31.53
  C 40.12 29.78 42.06 25.44 41.83 21.81
  Q 41.76 20.73 40.39 19.42
  Q 33.10 12.43 25.45 19.49
  A 0.38 0.38 0.0 0 0 25.70 20.15
  C 29.41 20.22 34.72 19.32 34.58 23.42
  C 34.49 26.41 29.94 27.14 27.76 26.87
  A 0.30 0.30 0.0 0 1 27.75 26.27
  Q 29.75 26.02 30.70 24.71
  A 2.08 1.85 33.4 0 0 29.96 21.92
  Q 28.05 20.75 25.19 20.63
  A 1.05 1.03 -69.2 0 0 24.34 21.02
  Q 22.22 23.61 21.06 26.66
  A 0.91 0.90 33.6 0 0 21.26 27.62
  L 23.68 30.03
  A 0.15 0.15 0.0 0 1 23.53 30.27
  Z"
/>
<path fill="#ffffff" d="
  M 23.68 30.03
  L 21.26 27.62
  A 0.91 0.90 33.6 0 1 21.06 26.66
  Q 22.22 23.61 24.34 21.02
  A 1.05 1.03 -69.2 0 1 25.19 20.63
  Q 28.05 20.75 29.96 21.92
  A 2.08 1.85 33.4 0 1 30.70 24.71
  Q 29.75 26.02 27.75 26.27
  A 0.30 0.30 0.0 0 0 27.76 26.87
  C 29.94 27.14 34.49 26.41 34.58 23.42
  C 34.72 19.32 29.41 20.22 25.70 20.15
  A 0.38 0.38 0.0 0 1 25.45 19.49
  Q 33.10 12.43 40.39 19.42
  Q 41.76 20.73 41.83 21.81
  C 42.06 25.44 40.12 29.78 37.31 31.53
  A 4.90 4.78 19.2 0 1 36.20 32.05
  C 32.36 33.28 26.93 34.29 26.33 37.37
  C 24.85 44.95 34.02 44.22 38.21 42.67
  A 0.18 0.18 0.0 0 0 38.32 42.45
  L 38.32 42.44
  A 0.24 0.23 -14.3 0 0 38.04 42.28
  Q 33.99 43.22 30.50 40.71
  A 1.60 1.57 -79.4 0 1 29.89 39.80
  C 28.90 35.80 34.53 33.68 38.70 31.22
  Q 40.98 29.87 43.46 25.79
  A 0.77 0.76 52.2 0 1 44.85 25.97
  L 46.96 32.94
  A 2.78 2.77 -30.8 0 1 46.26 35.69
  L 41.91 40.05
  A 0.22 0.22 0.0 0 0 42.13 40.42
  L 46.32 39.15
  A 0.25 0.25 0.0 0 1 46.63 39.46
  C 42.18 55.87 17.61 52.14 19.06 34.64
  Q 19.31 31.57 20.09 28.97
  A 0.53 0.53 0.0 0 1 20.94 28.71
  Q 22.34 29.86 23.53 30.27
  A 0.15 0.15 0.0 0 0 23.68 30.03
  Z"
/>
</svg>
