<?xml version="1.0" encoding="UTF-8" standalone="no"?>
<!DOCTYPE svg PUBLIC "-//W3C//DTD SVG 1.1//EN" "http://www.w3.org/Graphics/SVG/1.1/DTD/svg11.dtd">
<svg xmlns="http://www.w3.org/2000/svg" version="1.1" viewBox="0.00 0.00 66.00 88.00">
<g stroke-width="2.00" fill="none" stroke-linecap="butt">
<path stroke="#3f2d4a" vector-effect="non-scaling-stroke" d="
  M 33.44 86.54
  C 33.45 86.54 33.75 86.50 33.79 86.46
  Q 44.89 76.18 53.46 63.47
  C 63.29 48.89 70.23 27.91 56.75 12.99
  Q 47.64 2.91 33.75 2.46
  Q 33.62 2.46 33.49 2.46
  Q 33.36 2.46 33.22 2.46
  Q 19.33 2.89 10.21 12.96
  C -3.29 27.87 3.63 48.85 13.44 63.45
  Q 21.99 76.17 33.08 86.46
  C 33.12 86.50 33.42 86.54 33.44 86.54"
/>
<path stroke="#a99db0" vector-effect="non-scaling-stroke" d="
  M 33.00 41.86
  Q 33.35 41.86 33.56 42.24
  Q 35.25 45.19 37.23 48.61
  A 0.72 0.72 0.0 0 0 37.99 48.95
  Q 44.21 47.67 45.98 41.00
  A 0.70 0.70 0.0 0 0 45.16 40.13
  Q 43.42 40.50 42.15 40.11
  A 0.29 0.29 0.0 0 1 42.11 39.57
  Q 52.14 34.90 51.12 22.84
  A 0.44 0.44 0.0 0 0 50.59 22.44
  Q 41.96 24.15 35.42 29.39
  A 1.07 1.07 0.0 0 1 33.74 28.89
  C 32.99 26.63 36.09 23.11 37.59 21.57
  A 0.66 0.65 -43.8 0 1 38.54 21.58
  Q 39.79 22.96 40.91 21.92
  A 1.79 1.67 -47.0 0 0 40.91 19.29
  C 40.08 18.64 39.31 18.72 38.46 19.47
  Q 35.58 21.96 33.35 25.73
  A 0.38 0.34 4.6 0 1 33.14 25.89
  Q 33.07 25.91 33.00 25.91
  Q 32.92 25.91 32.86 25.89
  A 0.38 0.34 -4.6 0 1 32.64 25.73
  Q 30.42 21.96 27.54 19.47
  C 26.69 18.72 25.92 18.64 25.09 19.29
  A 1.79 1.67 47.0 0 0 25.09 21.92
  Q 26.21 22.96 27.46 21.58
  A 0.66 0.65 43.9 0 1 28.41 21.57
  C 29.91 23.11 33.00 26.63 32.25 28.89
  A 1.07 1.07 0.0 0 1 30.57 29.39
  Q 24.04 24.15 15.41 22.43
  A 0.44 0.44 0.0 0 0 14.88 22.83
  Q 13.85 34.89 23.88 39.57
  A 0.29 0.29 0.0 0 1 23.84 40.11
  Q 22.57 40.50 20.83 40.13
  A 0.70 0.70 0.0 0 0 20.01 41.00
  Q 21.78 47.67 28.00 48.95
  A 0.72 0.72 0.0 0 0 28.76 48.61
  Q 30.74 45.19 32.43 42.24
  Q 32.64 41.86 33.00 41.86"
/>
<path stroke="#a99db0" vector-effect="non-scaling-stroke" d="
  M 34.4837 31.3252
  A 1.42 1.42 0.0 0 0 33.0686 29.9002
  L 32.9686 29.8999
  A 1.42 1.42 0.0 0 0 31.5437 31.3149
  L 31.5163 39.1548
  A 1.42 1.42 0.0 0 0 32.9314 40.5798
  L 33.0314 40.5801
  A 1.42 1.42 0.0 0 0 34.4563 39.1651
  L 34.4837 31.3252"
/>
</g>
<path fill="#2a1e32" d="
  M 33.81 88.00
  L 33.15 88.00
  Q 15.61 72.48 6.00 52.51
  Q 2.31 44.85 1.62 35.22
  C -0.27 8.79 28.81 -7.36 50.58 6.26
  Q 62.32 13.60 64.91 27.08
  C 69.18 49.30 49.11 74.03 33.81 88.00
  Z
  M 33.44 86.54
  C 33.45 86.54 33.75 86.50 33.79 86.46
  Q 44.89 76.18 53.46 63.47
  C 63.29 48.89 70.23 27.91 56.75 12.99
  Q 47.64 2.91 33.75 2.46
  Q 33.62 2.46 33.49 2.46
  Q 33.36 2.46 33.22 2.46
  Q 19.33 2.89 10.21 12.96
  C -3.29 27.87 3.63 48.85 13.44 63.45
  Q 21.99 76.17 33.08 86.46
  C 33.12 86.50 33.42 86.54 33.44 86.54
  Z"
/>
<path fill="#533b61" d="
  M 33.49 2.46
  Q 33.62 2.46 33.75 2.46
  Q 47.64 2.91 56.75 12.99
  C 70.23 27.91 63.29 48.89 53.46 63.47
  Q 44.89 76.18 33.79 86.46
  C 33.75 86.50 33.45 86.54 33.44 86.54
  C 33.42 86.54 33.12 86.50 33.08 86.46
  Q 21.99 76.17 13.44 63.45
  C 3.63 48.85 -3.29 27.87 10.21 12.96
  Q 19.33 2.89 33.22 2.46
  Q 33.36 2.46 33.49 2.46
  Z
  M 33.00 41.86
  Q 33.35 41.86 33.56 42.24
  Q 35.25 45.19 37.23 48.61
  A 0.72 0.72 0.0 0 0 37.99 48.95
  Q 44.21 47.67 45.98 41.00
  A 0.70 0.70 0.0 0 0 45.16 40.13
  Q 43.42 40.50 42.15 40.11
  A 0.29 0.29 0.0 0 1 42.11 39.57
  Q 52.14 34.90 51.12 22.84
  A 0.44 0.44 0.0 0 0 50.59 22.44
  Q 41.96 24.15 35.42 29.39
  A 1.07 1.07 0.0 0 1 33.74 28.89
  C 32.99 26.63 36.09 23.11 37.59 21.57
  A 0.66 0.65 -43.8 0 1 38.54 21.58
  Q 39.79 22.96 40.91 21.92
  A 1.79 1.67 -47.0 0 0 40.91 19.29
  C 40.08 18.64 39.31 18.72 38.46 19.47
  Q 35.58 21.96 33.35 25.73
  A 0.38 0.34 4.6 0 1 33.14 25.89
  Q 33.07 25.91 33.00 25.91
  Q 32.92 25.91 32.86 25.89
  A 0.38 0.34 -4.6 0 1 32.64 25.73
  Q 30.42 21.96 27.54 19.47
  C 26.69 18.72 25.92 18.64 25.09 19.29
  A 1.79 1.67 47.0 0 0 25.09 21.92
  Q 26.21 22.96 27.46 21.58
  A 0.66 0.65 43.9 0 1 28.41 21.57
  C 29.91 23.11 33.00 26.63 32.25 28.89
  A 1.07 1.07 0.0 0 1 30.57 29.39
  Q 24.04 24.15 15.41 22.43
  A 0.44 0.44 0.0 0 0 14.88 22.83
  Q 13.85 34.89 23.88 39.57
  A 0.29 0.29 0.0 0 1 23.84 40.11
  Q 22.57 40.50 20.83 40.13
  A 0.70 0.70 0.0 0 0 20.01 41.00
  Q 21.78 47.67 28.00 48.95
  A 0.72 0.72 0.0 0 0 28.76 48.61
  Q 30.74 45.19 32.43 42.24
  Q 32.64 41.86 33.00 41.86
  Z"
/>
<path fill="#ffffff" d="
  M 33.00 25.91
  Q 33.07 25.91 33.14 25.89
  A 0.38 0.34 4.6 0 0 33.35 25.73
  Q 35.58 21.96 38.46 19.47
  C 39.31 18.72 40.08 18.64 40.91 19.29
  A 1.79 1.67 -47.0 0 1 40.91 21.92
  Q 39.79 22.96 38.54 21.58
  A 0.66 0.65 -43.8 0 0 37.59 21.57
  C 36.09 23.11 32.99 26.63 33.74 28.89
  A 1.07 1.07 0.0 0 0 35.42 29.39
  Q 41.96 24.15 50.59 22.44
  A 0.44 0.44 0.0 0 1 51.12 22.84
  Q 52.14 34.90 42.11 39.57
  A 0.29 0.29 0.0 0 0 42.15 40.11
  Q 43.42 40.50 45.16 40.13
  A 0.70 0.70 0.0 0 1 45.98 41.00
  Q 44.21 47.67 37.99 48.95
  A 0.72 0.72 0.0 0 1 37.23 48.61
  Q 35.25 45.19 33.56 42.24
  Q 33.35 41.86 33.00 41.86
  Q 32.64 41.86 32.43 42.24
  Q 30.74 45.19 28.76 48.61
  A 0.72 0.72 0.0 0 1 28.00 48.95
  Q 21.78 47.67 20.01 41.00
  A 0.70 0.70 0.0 0 1 20.83 40.13
  Q 22.57 40.50 23.84 40.11
  A 0.29 0.29 0.0 0 0 23.88 39.57
  Q 13.85 34.89 14.88 22.83
  A 0.44 0.44 0.0 0 1 15.41 22.43
  Q 24.04 24.15 30.57 29.39
  A 1.07 1.07 0.0 0 0 32.25 28.89
  C 33.00 26.63 29.91 23.11 28.41 21.57
  A 0.66 0.65 43.9 0 0 27.46 21.58
  Q 26.21 22.96 25.09 21.92
  A 1.79 1.67 47.0 0 1 25.09 19.29
  C 25.92 18.64 26.69 18.72 27.54 19.47
  Q 30.42 21.96 32.64 25.73
  A 0.38 0.34 -4.6 0 0 32.86 25.89
  Q 32.92 25.91 33.00 25.91
  Z
  M 34.4837 31.3252
  A 1.42 1.42 0.0 0 0 33.0686 29.9002
  L 32.9686 29.8999
  A 1.42 1.42 0.0 0 0 31.5437 31.3149
  L 31.5163 39.1548
  A 1.42 1.42 0.0 0 0 32.9314 40.5798
  L 33.0314 40.5801
  A 1.42 1.42 0.0 0 0 34.4563 39.1651
  L 34.4837 31.3252
  Z"
/>
<rect fill="#533b61" x="-1.47" y="-5.34" transform="translate(33.00,35.24) rotate(0.2)" width="2.94" height="10.68" rx="1.42"/>
</svg>
