<?xml version="1.0" encoding="UTF-8" standalone="no"?>
<!DOCTYPE svg PUBLIC "-//W3C//DTD SVG 1.1//EN" "http://www.w3.org/Graphics/SVG/1.1/DTD/svg11.dtd">
<svg xmlns="http://www.w3.org/2000/svg" version="1.1" viewBox="0.00 0.00 66.00 88.00">
<g stroke-width="2.00" fill="none" stroke-linecap="butt">
<path stroke="#1d4056" vector-effect="non-scaling-stroke" d="
  M 33.42 86.62
  C 34.11 86.62 33.57 86.67 33.78 86.47
  Q 47.73 73.46 56.60 58.35
  C 64.09 45.59 68.30 28.29 58.65 15.36
  C 52.65 7.31 43.77 2.53 33.51 2.52
  C 23.25 2.51 14.36 7.27 8.34 15.30
  C -1.34 28.22 2.84 45.53 10.30 58.30
  Q 19.14 73.43 33.06 86.47
  C 33.27 86.67 32.73 86.62 33.42 86.62"
/>
<path stroke="#94aab8" vector-effect="non-scaling-stroke" d="
  M 15.37 26.69
  A 0.33 0.33 0.0 0 0 15.66 27.18
  L 50.81 27.18
  A 0.33 0.33 0.0 0 0 51.05 26.62
  L 48.52 24.09
  A 0.33 0.33 0.0 0 0 48.28 23.99
  L 17.11 23.99
  A 0.33 0.33 0.0 0 0 16.82 24.16
  L 15.37 26.69"
/>
<path stroke="#94aab8" vector-effect="non-scaling-stroke" d="
  M 21.66 29.11
  A 0.41 0.41 0.0 0 0 21.25 28.70
  L 17.73 28.70
  A 0.41 0.41 0.0 0 0 17.32 29.11
  L 17.32 43.61
  A 0.41 0.41 0.0 0 0 17.73 44.02
  L 21.25 44.02
  A 0.41 0.41 0.0 0 0 21.66 43.61
  L 21.66 29.11"
/>
<path stroke="#94aab8" vector-effect="non-scaling-stroke" d="
  M 42.9024 29.0827
  A 0.31 0.31 0.0 0 0 42.5919 28.7733
  L 23.3919 28.8068
  A 0.31 0.31 0.0 0 0 23.0824 29.1173
  L 23.0976 37.8173
  A 0.31 0.31 0.0 0 0 23.4081 38.1267
  L 42.6081 38.0932
  A 0.31 0.31 0.0 0 0 42.9176 37.7827
  L 42.9024 29.0827"
/>
<path stroke="#94aab8" vector-effect="non-scaling-stroke" d="
  M 48.68 29.12
  A 0.40 0.40 0.0 0 0 48.28 28.72
  L 44.74 28.72
  A 0.40 0.40 0.0 0 0 44.34 29.12
  L 44.34 43.62
  A 0.40 0.40 0.0 0 0 44.74 44.02
  L 48.28 44.02
  A 0.40 0.40 0.0 0 0 48.68 43.62
  L 48.68 29.12"
/>
<path stroke="#94aab8" vector-effect="non-scaling-stroke" d="
  M 42.9391 40.0227
  A 0.48 0.48 0.0 0 0 42.4582 39.5435
  L 23.5783 39.5765
  A 0.48 0.48 0.0 0 0 23.0991 40.0573
  L 23.1009 41.0973
  A 0.48 0.48 0.0 0 0 23.5818 41.5765
  L 42.4617 41.5435
  A 0.48 0.48 0.0 0 0 42.9409 41.0627
  L 42.9391 40.0227"
/>
</g>
<path fill="#122c3a" d="
  M 33.78 88.00
  L 33.15 88.00
  Q 15.61 72.48 6.00 52.51
  Q 2.26 44.73 1.63 35.22
  Q 1.01 25.74 5.23 18.05
  C 12.65 4.56 28.14 -1.73 43.18 2.83
  Q 51.32 5.29 57.14 11.63
  C 69.77 25.40 66.44 43.71 57.55 58.85
  Q 47.97 75.16 33.78 88.00
  Z
  M 33.42 86.62
  C 34.11 86.62 33.57 86.67 33.78 86.47
  Q 47.73 73.46 56.60 58.35
  C 64.09 45.59 68.30 28.29 58.65 15.36
  C 52.65 7.31 43.77 2.53 33.51 2.52
  C 23.25 2.51 14.36 7.27 8.34 15.30
  C -1.34 28.22 2.84 45.53 10.30 58.30
  Q 19.14 73.43 33.06 86.47
  C 33.27 86.67 32.73 86.62 33.42 86.62
  Z"
/>
<path fill="#285471" d="
  M 33.51 2.52
  C 43.77 2.53 52.65 7.31 58.65 15.36
  C 68.30 28.29 64.09 45.59 56.60 58.35
  Q 47.73 73.46 33.78 86.47
  C 33.57 86.67 34.11 86.62 33.42 86.62
  C 32.73 86.62 33.27 86.67 33.06 86.47
  Q 19.14 73.43 10.30 58.30
  C 2.84 45.53 -1.34 28.22 8.34 15.30
  C 14.36 7.27 23.25 2.51 33.51 2.52
  Z
  M 15.37 26.69
  A 0.33 0.33 0.0 0 0 15.66 27.18
  L 50.81 27.18
  A 0.33 0.33 0.0 0 0 51.05 26.62
  L 48.52 24.09
  A 0.33 0.33 0.0 0 0 48.28 23.99
  L 17.11 23.99
  A 0.33 0.33 0.0 0 0 16.82 24.16
  L 15.37 26.69
  Z
  M 21.66 29.11
  A 0.41 0.41 0.0 0 0 21.25 28.70
  L 17.73 28.70
  A 0.41 0.41 0.0 0 0 17.32 29.11
  L 17.32 43.61
  A 0.41 0.41 0.0 0 0 17.73 44.02
  L 21.25 44.02
  A 0.41 0.41 0.0 0 0 21.66 43.61
  L 21.66 29.11
  Z
  M 42.9024 29.0827
  A 0.31 0.31 0.0 0 0 42.5919 28.7733
  L 23.3919 28.8068
  A 0.31 0.31 0.0 0 0 23.0824 29.1173
  L 23.0976 37.8173
  A 0.31 0.31 0.0 0 0 23.4081 38.1267
  L 42.6081 38.0932
  A 0.31 0.31 0.0 0 0 42.9176 37.7827
  L 42.9024 29.0827
  Z
  M 48.68 29.12
  A 0.40 0.40 0.0 0 0 48.28 28.72
  L 44.74 28.72
  A 0.40 0.40 0.0 0 0 44.34 29.12
  L 44.34 43.62
  A 0.40 0.40 0.0 0 0 44.74 44.02
  L 48.28 44.02
  A 0.40 0.40 0.0 0 0 48.68 43.62
  L 48.68 29.12
  Z
  M 42.9391 40.0227
  A 0.48 0.48 0.0 0 0 42.4582 39.5435
  L 23.5783 39.5765
  A 0.48 0.48 0.0 0 0 23.0991 40.0573
  L 23.1009 41.0973
  A 0.48 0.48 0.0 0 0 23.5818 41.5765
  L 42.4617 41.5435
  A 0.48 0.48 0.0 0 0 42.9409 41.0627
  L 42.9391 40.0227
  Z"
/>
<path fill="#ffffff" d="
  M 15.37 26.69
  L 16.82 24.16
  A 0.33 0.33 0.0 0 1 17.11 23.99
  L 48.28 23.99
  A 0.33 0.33 0.0 0 1 48.52 24.09
  L 51.05 26.62
  A 0.33 0.33 0.0 0 1 50.81 27.18
  L 15.66 27.18
  A 0.33 0.33 0.0 0 1 15.37 26.69
  Z"
/>
<rect fill="#ffffff" x="17.32" y="28.70" width="4.34" height="15.32" rx="0.41"/>
<rect fill="#ffffff" x="-9.91" y="-4.66" transform="translate(33.00,33.45) rotate(-0.1)" width="19.82" height="9.32" rx="0.31"/>
<rect fill="#ffffff" x="44.34" y="28.72" width="4.34" height="15.30" rx="0.40"/>
<rect fill="#ffffff" x="-9.92" y="-1.00" transform="translate(33.02,40.56) rotate(-0.1)" width="19.84" height="2.00" rx="0.48"/>
</svg>
