<?xml version="1.0" encoding="UTF-8" standalone="no"?>
<!DOCTYPE svg PUBLIC "-//W3C//DTD SVG 1.1//EN" "http://www.w3.org/Graphics/SVG/1.1/DTD/svg11.dtd">
<svg xmlns="http://www.w3.org/2000/svg" version="1.1" viewBox="0.00 0.00 66.00 88.00">
<g stroke-width="2.00" fill="none" stroke-linecap="butt">
<path stroke="#1b292f" vector-effect="non-scaling-stroke" d="
  M 33.43 86.52
  Q 33.59 86.52 33.69 86.43
  Q 48.17 73.26 57.43 56.70
  C 63.03 46.69 66.63 33.13 62.40 22.38
  C 57.71 10.45 46.35 2.49 33.49 2.48
  C 20.62 2.47 9.25 10.42 4.54 22.34
  C 0.30 33.08 3.88 46.65 9.47 56.66
  Q 18.70 73.24 33.16 86.43
  Q 33.26 86.52 33.43 86.52"
/>
<path stroke="#919a9e" vector-effect="non-scaling-stroke" d="
  M 38.91 19.58
  L 33.35 14.02
  A 0.59 0.59 0.0 0 0 32.52 14.02
  L 25.73 20.81
  A 1.27 1.27 0.0 0 0 25.73 22.60
  L 26.32 23.18
  A 1.24 1.24 0.0 0 0 28.08 23.18
  L 32.35 18.92
  A 0.97 0.96 44.8 0 1 33.72 18.92
  L 36.27 21.47
  A 1.12 1.12 0.0 0 0 37.86 21.47
  L 38.91 20.42
  A 0.59 0.59 0.0 0 0 38.91 19.58"
/>
<path stroke="#919a9e" vector-effect="non-scaling-stroke" d="
  M 41.60 29.82
  L 33.35 21.57
  A 0.59 0.59 0.0 0 0 32.51 21.57
  L 27.53 26.54
  A 0.60 0.59 44.7 0 1 26.68 26.54
  L 23.77 23.63
  A 0.52 0.52 0.0 0 0 23.04 23.63
  L 13.04 33.63
  A 0.52 0.52 0.0 0 0 13.04 34.37
  L 32.78 54.11
  A 0.64 0.64 0.0 0 0 33.68 54.11
  L 44.87 42.92
  A 1.45 1.45 0.0 0 0 44.93 40.94
  L 44.58 40.56
  A 1.43 1.43 0.0 0 0 42.44 40.43
  L 33.36 49.50
  A 0.46 0.45 44.6 0 1 32.71 49.50
  L 17.72 34.51
  A 0.71 0.71 0.0 0 1 17.72 33.50
  L 22.50 28.72
  A 0.81 0.81 0.0 0 1 23.52 28.62
  L 23.90 28.87
  A 0.85 0.85 0.0 0 1 24.03 30.18
  L 20.74 33.47
  A 0.74 0.74 0.0 0 0 20.74 34.51
  L 24.87 38.64
  A 0.64 0.63 -44.7 0 0 25.76 38.64
  L 27.15 37.24
  A 0.63 0.63 0.0 0 0 27.09 36.29
  Q 26.07 35.50 25.58 34.30
  A 1.05 1.04 56.4 0 1 25.80 33.16
  L 32.16 26.80
  A 1.17 1.17 0.0 0 1 33.82 26.80
  L 39.24 32.22
  A 0.49 0.49 0.0 0 0 39.94 32.22
  L 41.60 30.55
  A 0.52 0.51 -45.4 0 0 41.60 29.82"
/>
<path stroke="#919a9e" vector-effect="non-scaling-stroke" d="
  M 39.43 23.03
  A 1.15 1.15 0.0 0 0 39.43 24.65
  L 48.28 33.50
  A 0.74 0.74 0.0 0 1 48.28 34.54
  L 45.94 36.87
  A 1.19 1.19 0.0 0 0 45.94 38.56
  L 46.95 39.58
  A 0.93 0.93 0.0 0 0 48.26 39.58
  L 52.69 35.15
  A 1.19 1.18 45.2 0 0 52.69 33.48
  L 41.39 22.18
  A 0.79 0.78 44.7 0 0 40.28 22.18
  L 39.43 23.03"
/>
<path stroke="#919a9e" vector-effect="non-scaling-stroke" d="
  M 39.50 40.28
  L 44.90 34.88
  A 1.56 1.56 0.0 0 0 42.88 32.51
  Q 42.07 33.09 39.23 35.83
  A 0.88 0.88 0.0 0 1 37.74 35.29
  Q 37.38 31.68 32.87 29.69
  A 0.80 0.79 34.2 0 0 31.99 29.85
  L 28.69 33.16
  A 1.15 1.15 0.0 0 0 28.69 34.78
  L 32.47 38.56
  A 0.87 0.86 -48.9 0 0 33.77 38.47
  Q 35.15 36.63 35.90 37.52
  Q 36.27 37.95 38.65 40.28
  A 0.61 0.60 44.7 0 0 39.50 40.28"
/>
<path stroke="#919a9e" vector-effect="non-scaling-stroke" d="
  M 32.43 41.61
  Q 30.65 39.62 29.63 39.16
  A 1.60 1.60 0.0 0 0 27.85 41.75
  L 32.52 46.44
  A 0.58 0.57 44.6 0 0 33.33 46.44
  L 36.94 42.83
  A 1.00 1.00 0.0 0 0 36.94 41.42
  L 35.97 40.46
  A 1.05 1.05 0.0 0 0 34.48 40.46
  L 33.30 41.63
  A 0.60 0.60 0.0 0 1 32.43 41.61"
/>
</g>
<path fill="#121d20" d="
  M 33.81 88.00
  L 33.04 88.00
  C 21.78 77.77 12.28 65.83 5.73 51.78
  Q 2.15 44.08 1.59 34.59
  C 0.68 19.29 10.76 6.30 25.29 2.40
  C 40.59 -1.70 56.34 5.86 62.98 20.58
  C 66.61 28.63 65.95 38.72 63.05 47.02
  C 57.58 62.67 45.99 76.88 33.81 88.00
  Z
  M 33.43 86.52
  Q 33.59 86.52 33.69 86.43
  Q 48.17 73.26 57.43 56.70
  C 63.03 46.69 66.63 33.13 62.40 22.38
  C 57.71 10.45 46.35 2.49 33.49 2.48
  C 20.62 2.47 9.25 10.42 4.54 22.34
  C 0.30 33.08 3.88 46.65 9.47 56.66
  Q 18.70 73.24 33.16 86.43
  Q 33.26 86.52 33.43 86.52
  Z"
/>
<path fill="#23353d" d="
  M 33.49 2.48
  C 46.35 2.49 57.71 10.45 62.40 22.38
  C 66.63 33.13 63.03 46.69 57.43 56.70
  Q 48.17 73.26 33.69 86.43
  Q 33.59 86.52 33.43 86.52
  Q 33.26 86.52 33.16 86.43
  Q 18.70 73.24 9.47 56.66
  C 3.88 46.65 0.30 33.08 4.54 22.34
  C 9.25 10.42 20.62 2.47 33.49 2.48
  Z
  M 38.91 19.58
  L 33.35 14.02
  A 0.59 0.59 0.0 0 0 32.52 14.02
  L 25.73 20.81
  A 1.27 1.27 0.0 0 0 25.73 22.60
  L 26.32 23.18
  A 1.24 1.24 0.0 0 0 28.08 23.18
  L 32.35 18.92
  A 0.97 0.96 44.8 0 1 33.72 18.92
  L 36.27 21.47
  A 1.12 1.12 0.0 0 0 37.86 21.47
  L 38.91 20.42
  A 0.59 0.59 0.0 0 0 38.91 19.58
  Z
  M 41.60 29.82
  L 33.35 21.57
  A 0.59 0.59 0.0 0 0 32.51 21.57
  L 27.53 26.54
  A 0.60 0.59 44.7 0 1 26.68 26.54
  L 23.77 23.63
  A 0.52 0.52 0.0 0 0 23.04 23.63
  L 13.04 33.63
  A 0.52 0.52 0.0 0 0 13.04 34.37
  L 32.78 54.11
  A 0.64 0.64 0.0 0 0 33.68 54.11
  L 44.87 42.92
  A 1.45 1.45 0.0 0 0 44.93 40.94
  L 44.58 40.56
  A 1.43 1.43 0.0 0 0 42.44 40.43
  L 33.36 49.50
  A 0.46 0.45 44.6 0 1 32.71 49.50
  L 17.72 34.51
  A 0.71 0.71 0.0 0 1 17.72 33.50
  L 22.50 28.72
  A 0.81 0.81 0.0 0 1 23.52 28.62
  L 23.90 28.87
  A 0.85 0.85 0.0 0 1 24.03 30.18
  L 20.74 33.47
  A 0.74 0.74 0.0 0 0 20.74 34.51
  L 24.87 38.64
  A 0.64 0.63 -44.7 0 0 25.76 38.64
  L 27.15 37.24
  A 0.63 0.63 0.0 0 0 27.09 36.29
  Q 26.07 35.50 25.58 34.30
  A 1.05 1.04 56.4 0 1 25.80 33.16
  L 32.16 26.80
  A 1.17 1.17 0.0 0 1 33.82 26.80
  L 39.24 32.22
  A 0.49 0.49 0.0 0 0 39.94 32.22
  L 41.60 30.55
  A 0.52 0.51 -45.4 0 0 41.60 29.82
  Z
  M 39.43 23.03
  A 1.15 1.15 0.0 0 0 39.43 24.65
  L 48.28 33.50
  A 0.74 0.74 0.0 0 1 48.28 34.54
  L 45.94 36.87
  A 1.19 1.19 0.0 0 0 45.94 38.56
  L 46.95 39.58
  A 0.93 0.93 0.0 0 0 48.26 39.58
  L 52.69 35.15
  A 1.19 1.18 45.2 0 0 52.69 33.48
  L 41.39 22.18
  A 0.79 0.78 44.7 0 0 40.28 22.18
  L 39.43 23.03
  Z
  M 39.50 40.28
  L 44.90 34.88
  A 1.56 1.56 0.0 0 0 42.88 32.51
  Q 42.07 33.09 39.23 35.83
  A 0.88 0.88 0.0 0 1 37.74 35.29
  Q 37.38 31.68 32.87 29.69
  A 0.80 0.79 34.2 0 0 31.99 29.85
  L 28.69 33.16
  A 1.15 1.15 0.0 0 0 28.69 34.78
  L 32.47 38.56
  A 0.87 0.86 -48.9 0 0 33.77 38.47
  Q 35.15 36.63 35.90 37.52
  Q 36.27 37.95 38.65 40.28
  A 0.61 0.60 44.7 0 0 39.50 40.28
  Z
  M 32.43 41.61
  Q 30.65 39.62 29.63 39.16
  A 1.60 1.60 0.0 0 0 27.85 41.75
  L 32.52 46.44
  A 0.58 0.57 44.6 0 0 33.33 46.44
  L 36.94 42.83
  A 1.00 1.00 0.0 0 0 36.94 41.42
  L 35.97 40.46
  A 1.05 1.05 0.0 0 0 34.48 40.46
  L 33.30 41.63
  A 0.60 0.60 0.0 0 1 32.43 41.61
  Z"
/>
<path fill="#ffffff" d="
  M 38.91 19.58
  A 0.59 0.59 0.0 0 1 38.91 20.42
  L 37.86 21.47
  A 1.12 1.12 0.0 0 1 36.27 21.47
  L 33.72 18.92
  A 0.97 0.96 44.8 0 0 32.35 18.92
  L 28.08 23.18
  A 1.24 1.24 0.0 0 1 26.32 23.18
  L 25.73 22.60
  A 1.27 1.27 0.0 0 1 25.73 20.81
  L 32.52 14.02
  A 0.59 0.59 0.0 0 1 33.35 14.02
  L 38.91 19.58
  Z"
/>
<path fill="#ffffff" d="
  M 41.60 29.82
  A 0.52 0.51 -45.4 0 1 41.60 30.55
  L 39.94 32.22
  A 0.49 0.49 0.0 0 1 39.24 32.22
  L 33.82 26.80
  A 1.17 1.17 0.0 0 0 32.16 26.80
  L 25.80 33.16
  A 1.05 1.04 56.4 0 0 25.58 34.30
  Q 26.07 35.50 27.09 36.29
  A 0.63 0.63 0.0 0 1 27.15 37.24
  L 25.76 38.64
  A 0.64 0.63 -44.7 0 1 24.87 38.64
  L 20.74 34.51
  A 0.74 0.74 0.0 0 1 20.74 33.47
  L 24.03 30.18
  A 0.85 0.85 0.0 0 0 23.90 28.87
  L 23.52 28.62
  A 0.81 0.81 0.0 0 0 22.50 28.72
  L 17.72 33.50
  A 0.71 0.71 0.0 0 0 17.72 34.51
  L 32.71 49.50
  A 0.46 0.45 44.6 0 0 33.36 49.50
  L 42.44 40.43
  A 1.43 1.43 0.0 0 1 44.58 40.56
  L 44.93 40.94
  A 1.45 1.45 0.0 0 1 44.87 42.92
  L 33.68 54.11
  A 0.64 0.64 0.0 0 1 32.78 54.11
  L 13.04 34.37
  A 0.52 0.52 0.0 0 1 13.04 33.63
  L 23.04 23.63
  A 0.52 0.52 0.0 0 1 23.77 23.63
  L 26.68 26.54
  A 0.60 0.59 44.7 0 0 27.53 26.54
  L 32.51 21.57
  A 0.59 0.59 0.0 0 1 33.35 21.57
  L 41.60 29.82
  Z"
/>
<path fill="#ffffff" d="
  M 41.39 22.18
  L 52.69 33.48
  A 1.19 1.18 45.2 0 1 52.69 35.15
  L 48.26 39.58
  A 0.93 0.93 0.0 0 1 46.95 39.58
  L 45.94 38.56
  A 1.19 1.19 0.0 0 1 45.94 36.87
  L 48.28 34.54
  A 0.74 0.74 0.0 0 0 48.28 33.50
  L 39.43 24.65
  A 1.15 1.15 0.0 0 1 39.43 23.03
  L 40.28 22.18
  A 0.79 0.78 44.7 0 1 41.39 22.18
  Z"
/>
<path fill="#ffffff" d="
  M 38.65 40.28
  Q 36.27 37.95 35.90 37.52
  Q 35.15 36.63 33.77 38.47
  A 0.87 0.86 -48.9 0 1 32.47 38.56
  L 28.69 34.78
  A 1.15 1.15 0.0 0 1 28.69 33.16
  L 31.99 29.85
  A 0.80 0.79 34.2 0 1 32.87 29.69
  Q 37.38 31.68 37.74 35.29
  A 0.88 0.88 0.0 0 0 39.23 35.83
  Q 42.07 33.09 42.88 32.51
  A 1.56 1.56 0.0 0 1 44.90 34.88
  L 39.50 40.28
  A 0.61 0.60 44.7 0 1 38.65 40.28
  Z"
/>
<path fill="#ffffff" d="
  M 33.30 41.63
  L 34.48 40.46
  A 1.05 1.05 0.0 0 1 35.97 40.46
  L 36.94 41.42
  A 1.00 1.00 0.0 0 1 36.94 42.83
  L 33.33 46.44
  A 0.58 0.57 44.6 0 1 32.52 46.44
  L 27.85 41.75
  A 1.60 1.60 0.0 0 1 29.63 39.16
  Q 30.65 39.62 32.43 41.61
  A 0.60 0.60 0.0 0 0 33.30 41.63
  Z"
/>
</svg>
