<?xml version="1.0" encoding="UTF-8" standalone="no"?>
<!DOCTYPE svg PUBLIC "-//W3C//DTD SVG 1.1//EN" "http://www.w3.org/Graphics/SVG/1.1/DTD/svg11.dtd">
<svg xmlns="http://www.w3.org/2000/svg" version="1.1" viewBox="0.00 0.00 66.00 88.00">
<g stroke-width="2.00" fill="none" stroke-linecap="butt">
<path stroke="#1b292f" vector-effect="non-scaling-stroke" d="
  M 33.40 86.52
  Q 33.57 86.52 33.79 86.32
  Q 48.38 73.04 57.67 56.22
  Q 64.60 43.68 64.15 30.58
  C 63.75 18.85 55.09 8.77 44.79 4.70
  Q 39.42 2.58 33.51 2.57
  Q 27.60 2.56 22.22 4.67
  C 11.91 8.72 3.23 18.77 2.80 30.50
  Q 2.32 43.60 9.21 56.16
  Q 18.46 73.00 33.02 86.32
  Q 33.24 86.52 33.40 86.52"
/>
<path stroke="#919a9e" vector-effect="non-scaling-stroke" d="
  M 37.36 28.31
  A 0.33 0.33 0.0 0 1 37.04 28.08
  L 33.31 16.51
  A 0.33 0.33 0.0 0 0 32.69 16.51
  L 28.96 28.08
  A 0.33 0.33 0.0 0 1 28.64 28.31
  L 16.50 28.28
  A 0.33 0.33 0.0 0 0 16.30 28.87
  L 26.15 35.99
  A 0.33 0.33 0.0 0 1 26.27 36.36
  L 22.49 47.91
  A 0.33 0.33 0.0 0 0 22.99 48.28
  L 32.81 41.11
  A 0.33 0.33 0.0 0 1 33.19 41.11
  L 43.01 48.28
  A 0.33 0.33 0.0 0 0 43.51 47.91
  L 39.73 36.36
  A 0.33 0.33 0.0 0 1 39.85 35.99
  L 49.70 28.87
  A 0.33 0.33 0.0 0 0 49.50 28.28
  L 37.36 28.31"
/>
</g>
<path fill="#121d21" d="
  M 33.80 88.00
  L 33.04 88.00
  C 21.71 77.71 12.20 65.75 5.68 51.55
  Q 2.14 43.84 1.58 34.89
  C 0.30 14.46 18.37 -1.50 38.77 1.77
  C 54.30 4.25 65.89 17.80 65.47 33.58
  C 64.91 54.19 48.53 74.60 33.80 88.00
  Z
  M 33.40 86.52
  Q 33.57 86.52 33.79 86.32
  Q 48.38 73.04 57.67 56.22
  Q 64.60 43.68 64.15 30.58
  C 63.75 18.85 55.09 8.77 44.79 4.70
  Q 39.42 2.58 33.51 2.57
  Q 27.60 2.56 22.22 4.67
  C 11.91 8.72 3.23 18.77 2.80 30.50
  Q 2.32 43.60 9.21 56.16
  Q 18.46 73.00 33.02 86.32
  Q 33.24 86.52 33.40 86.52
  Z"
/>
<path fill="#23353d" d="
  M 33.51 2.57
  Q 39.42 2.58 44.79 4.70
  C 55.09 8.77 63.75 18.85 64.15 30.58
  Q 64.60 43.68 57.67 56.22
  Q 48.38 73.04 33.79 86.32
  Q 33.57 86.52 33.40 86.52
  Q 33.24 86.52 33.02 86.32
  Q 18.46 73.00 9.21 56.16
  Q 2.32 43.60 2.80 30.50
  C 3.23 18.77 11.91 8.72 22.22 4.67
  Q 27.60 2.56 33.51 2.57
  Z
  M 37.36 28.31
  A 0.33 0.33 0.0 0 1 37.04 28.08
  L 33.31 16.51
  A 0.33 0.33 0.0 0 0 32.69 16.51
  L 28.96 28.08
  A 0.33 0.33 0.0 0 1 28.64 28.31
  L 16.50 28.28
  A 0.33 0.33 0.0 0 0 16.30 28.87
  L 26.15 35.99
  A 0.33 0.33 0.0 0 1 26.27 36.36
  L 22.49 47.91
  A 0.33 0.33 0.0 0 0 22.99 48.28
  L 32.81 41.11
  A 0.33 0.33 0.0 0 1 33.19 41.11
  L 43.01 48.28
  A 0.33 0.33 0.0 0 0 43.51 47.91
  L 39.73 36.36
  A 0.33 0.33 0.0 0 1 39.85 35.99
  L 49.70 28.87
  A 0.33 0.33 0.0 0 0 49.50 28.28
  L 37.36 28.31
  Z"
/>
<path fill="#ffffff" d="
  M 37.36 28.31
  L 49.50 28.28
  A 0.33 0.33 0.0 0 1 49.70 28.87
  L 39.85 35.99
  A 0.33 0.33 0.0 0 0 39.73 36.36
  L 43.51 47.91
  A 0.33 0.33 0.0 0 1 43.01 48.28
  L 33.19 41.11
  A 0.33 0.33 0.0 0 0 32.81 41.11
  L 22.99 48.28
  A 0.33 0.33 0.0 0 1 22.49 47.91
  L 26.27 36.36
  A 0.33 0.33 0.0 0 0 26.15 35.99
  L 16.30 28.87
  A 0.33 0.33 0.0 0 1 16.50 28.28
  L 28.64 28.31
  A 0.33 0.33 0.0 0 0 28.96 28.08
  L 32.69 16.51
  A 0.33 0.33 0.0 0 1 33.31 16.51
  L 37.04 28.08
  A 0.33 0.33 0.0 0 0 37.36 28.31
  Z"
/>
</svg>
