<?xml version="1.0" encoding="UTF-8" standalone="no"?>
<!DOCTYPE svg PUBLIC "-//W3C//DTD SVG 1.1//EN" "http://www.w3.org/Graphics/SVG/1.1/DTD/svg11.dtd">
<svg xmlns="http://www.w3.org/2000/svg" version="1.1" viewBox="0.00 0.00 66.00 88.00">
<g stroke-width="2.00" fill="none" stroke-linecap="butt">
<path stroke="#2b4b58" vector-effect="non-scaling-stroke" d="
  M 33.42 86.62
  C 34.00 86.62 33.60 86.66 33.79 86.48
  C 45.04 76.08 55.92 62.53 61.35 48.12
  C 67.54 31.66 64.01 15.08 48.24 6.25
  Q 41.50 2.48 33.51 2.48
  Q 25.52 2.47 18.78 6.22
  C 2.99 15.01 -0.58 31.59 5.58 48.06
  C 10.97 62.48 21.82 76.05 33.05 86.48
  C 33.24 86.66 32.84 86.62 33.42 86.62"
/>
<path stroke="#9db1ba" vector-effect="non-scaling-stroke" d="
  M 33.00 41.86
  Q 33.38 41.86 33.83 42.67
  Q 36.14 46.80 37.27 48.64
  A 0.69 0.69 0.0 0 0 38.00 48.96
  Q 44.32 47.59 45.97 40.93
  A 0.64 0.64 0.0 0 0 45.22 40.14
  Q 43.45 40.49 42.14 40.12
  A 0.30 0.29 40.3 0 1 42.09 39.57
  Q 52.15 34.92 51.13 22.84
  A 0.46 0.46 0.0 0 0 50.58 22.43
  Q 41.94 24.16 35.43 29.38
  A 1.07 1.07 0.0 0 1 33.77 28.96
  C 32.86 26.78 35.95 23.38 37.41 21.68
  A 0.78 0.78 0.0 0 1 38.32 21.48
  Q 38.58 21.60 38.87 21.90
  A 1.61 1.51 -68.4 0 0 41.49 20.66
  Q 41.47 18.95 39.72 18.86
  A 1.33 1.31 -63.3 0 0 38.83 19.16
  Q 35.69 21.75 33.35 25.73
  A 0.38 0.28 -76.6 0 1 33.14 25.90
  Q 33.12 25.91 33.00 25.91
  Q 32.87 25.91 32.85 25.90
  A 0.38 0.28 76.6 0 1 32.64 25.73
  Q 30.30 21.75 27.16 19.16
  A 1.33 1.31 63.3 0 0 26.27 18.86
  Q 24.52 18.95 24.50 20.66
  A 1.61 1.51 68.4 0 0 27.12 21.90
  Q 27.41 21.60 27.67 21.48
  A 0.78 0.78 0.0 0 1 28.58 21.68
  C 30.04 23.38 33.13 26.78 32.22 28.96
  A 1.07 1.07 0.0 0 1 30.56 29.38
  Q 24.05 24.16 15.41 22.43
  A 0.46 0.46 0.0 0 0 14.86 22.84
  Q 13.84 34.92 23.90 39.57
  A 0.30 0.29 -40.3 0 1 23.85 40.12
  Q 22.54 40.49 20.77 40.14
  A 0.64 0.64 0.0 0 0 20.02 40.93
  Q 21.67 47.59 27.99 48.96
  A 0.69 0.69 0.0 0 0 28.72 48.64
  Q 29.85 46.80 32.16 42.67
  Q 32.61 41.86 33.00 41.86"
/>
<path stroke="#9db1ba" vector-effect="non-scaling-stroke" d="
  M 34.4837 31.3252
  A 1.42 1.42 0.0 0 0 33.0686 29.9002
  L 32.9686 29.8999
  A 1.42 1.42 0.0 0 0 31.5437 31.3149
  L 31.5163 39.1548
  A 1.42 1.42 0.0 0 0 32.9314 40.5798
  L 33.0314 40.5801
  A 1.42 1.42 0.0 0 0 34.4563 39.1651
  L 34.4837 31.3252"
/>
</g>
<path fill="#1b333c" d="
  M 33.81 88.00
  L 33.04 88.00
  C 21.94 77.92 11.93 65.51 5.64 51.57
  Q 2.23 44.01 1.60 34.90
  C 0.49 18.92 11.39 5.47 26.73 2.07
  C 41.16 -1.13 55.75 5.94 62.46 19.43
  C 67.04 28.66 65.93 40.26 62.13 49.57
  C 56.14 64.27 45.46 77.35 33.81 88.00
  Z
  M 33.42 86.62
  C 34.00 86.62 33.60 86.66 33.79 86.48
  C 45.04 76.08 55.92 62.53 61.35 48.12
  C 67.54 31.66 64.01 15.08 48.24 6.25
  Q 41.50 2.48 33.51 2.48
  Q 25.52 2.47 18.78 6.22
  C 2.99 15.01 -0.58 31.59 5.58 48.06
  C 10.97 62.48 21.82 76.05 33.05 86.48
  C 33.24 86.66 32.84 86.62 33.42 86.62
  Z"
/>
<path fill="#3a6374" d="
  M 33.51 2.48
  Q 41.50 2.48 48.24 6.25
  C 64.01 15.08 67.54 31.66 61.35 48.12
  C 55.92 62.53 45.04 76.08 33.79 86.48
  C 33.60 86.66 34.00 86.62 33.42 86.62
  C 32.84 86.62 33.24 86.66 33.05 86.48
  C 21.82 76.05 10.97 62.48 5.58 48.06
  C -0.58 31.59 2.99 15.01 18.78 6.22
  Q 25.52 2.47 33.51 2.48
  Z
  M 33.00 41.86
  Q 33.38 41.86 33.83 42.67
  Q 36.14 46.80 37.27 48.64
  A 0.69 0.69 0.0 0 0 38.00 48.96
  Q 44.32 47.59 45.97 40.93
  A 0.64 0.64 0.0 0 0 45.22 40.14
  Q 43.45 40.49 42.14 40.12
  A 0.30 0.29 40.3 0 1 42.09 39.57
  Q 52.15 34.92 51.13 22.84
  A 0.46 0.46 0.0 0 0 50.58 22.43
  Q 41.94 24.16 35.43 29.38
  A 1.07 1.07 0.0 0 1 33.77 28.96
  C 32.86 26.78 35.95 23.38 37.41 21.68
  A 0.78 0.78 0.0 0 1 38.32 21.48
  Q 38.58 21.60 38.87 21.90
  A 1.61 1.51 -68.4 0 0 41.49 20.66
  Q 41.47 18.95 39.72 18.86
  A 1.33 1.31 -63.3 0 0 38.83 19.16
  Q 35.69 21.75 33.35 25.73
  A 0.38 0.28 -76.6 0 1 33.14 25.90
  Q 33.12 25.91 33.00 25.91
  Q 32.87 25.91 32.85 25.90
  A 0.38 0.28 76.6 0 1 32.64 25.73
  Q 30.30 21.75 27.16 19.16
  A 1.33 1.31 63.3 0 0 26.27 18.86
  Q 24.52 18.95 24.50 20.66
  A 1.61 1.51 68.4 0 0 27.12 21.90
  Q 27.41 21.60 27.67 21.48
  A 0.78 0.78 0.0 0 1 28.58 21.68
  C 30.04 23.38 33.13 26.78 32.22 28.96
  A 1.07 1.07 0.0 0 1 30.56 29.38
  Q 24.05 24.16 15.41 22.43
  A 0.46 0.46 0.0 0 0 14.86 22.84
  Q 13.84 34.92 23.90 39.57
  A 0.30 0.29 -40.3 0 1 23.85 40.12
  Q 22.54 40.49 20.77 40.14
  A 0.64 0.64 0.0 0 0 20.02 40.93
  Q 21.67 47.59 27.99 48.96
  A 0.69 0.69 0.0 0 0 28.72 48.64
  Q 29.85 46.80 32.16 42.67
  Q 32.61 41.86 33.00 41.86
  Z"
/>
<path fill="#ffffff" d="
  M 33.00 25.91
  Q 33.12 25.91 33.14 25.90
  A 0.38 0.28 -76.6 0 0 33.35 25.73
  Q 35.69 21.75 38.83 19.16
  A 1.33 1.31 -63.3 0 1 39.72 18.86
  Q 41.47 18.95 41.49 20.66
  A 1.61 1.51 -68.4 0 1 38.87 21.90
  Q 38.58 21.60 38.32 21.48
  A 0.78 0.78 0.0 0 0 37.41 21.68
  C 35.95 23.38 32.86 26.78 33.77 28.96
  A 1.07 1.07 0.0 0 0 35.43 29.38
  Q 41.94 24.16 50.58 22.43
  A 0.46 0.46 0.0 0 1 51.13 22.84
  Q 52.15 34.92 42.09 39.57
  A 0.30 0.29 40.3 0 0 42.14 40.12
  Q 43.45 40.49 45.22 40.14
  A 0.64 0.64 0.0 0 1 45.97 40.93
  Q 44.32 47.59 38.00 48.96
  A 0.69 0.69 0.0 0 1 37.27 48.64
  Q 36.14 46.80 33.83 42.67
  Q 33.38 41.86 33.00 41.86
  Q 32.61 41.86 32.16 42.67
  Q 29.85 46.80 28.72 48.64
  A 0.69 0.69 0.0 0 1 27.99 48.96
  Q 21.67 47.59 20.02 40.93
  A 0.64 0.64 0.0 0 1 20.77 40.14
  Q 22.54 40.49 23.85 40.12
  A 0.30 0.29 -40.3 0 0 23.90 39.57
  Q 13.84 34.92 14.86 22.84
  A 0.46 0.46 0.0 0 1 15.41 22.43
  Q 24.05 24.16 30.56 29.38
  A 1.07 1.07 0.0 0 0 32.22 28.96
  C 33.13 26.78 30.04 23.38 28.58 21.68
  A 0.78 0.78 0.0 0 0 27.67 21.48
  Q 27.41 21.60 27.12 21.90
  A 1.61 1.51 68.4 0 1 24.50 20.66
  Q 24.52 18.95 26.27 18.86
  A 1.33 1.31 63.3 0 1 27.16 19.16
  Q 30.30 21.75 32.64 25.73
  A 0.38 0.28 76.6 0 0 32.85 25.90
  Q 32.87 25.91 33.00 25.91
  Z
  M 34.4837 31.3252
  A 1.42 1.42 0.0 0 0 33.0686 29.9002
  L 32.9686 29.8999
  A 1.42 1.42 0.0 0 0 31.5437 31.3149
  L 31.5163 39.1548
  A 1.42 1.42 0.0 0 0 32.9314 40.5798
  L 33.0314 40.5801
  A 1.42 1.42 0.0 0 0 34.4563 39.1651
  L 34.4837 31.3252
  Z"
/>
<rect fill="#3a6374" x="-1.47" y="-5.34" transform="translate(33.00,35.24) rotate(0.2)" width="2.94" height="10.68" rx="1.42"/>
</svg>
