<?xml version="1.0" encoding="UTF-8" standalone="no"?>
<!DOCTYPE svg PUBLIC "-//W3C//DTD SVG 1.1//EN" "http://www.w3.org/Graphics/SVG/1.1/DTD/svg11.dtd">
<svg xmlns="http://www.w3.org/2000/svg" version="1.1" viewBox="0.00 0.00 66.00 88.00">
<g stroke-width="2.00" fill="none" stroke-linecap="butt">
<path stroke="#171b29" vector-effect="non-scaling-stroke" d="
  M 33.37 85.84
  Q 33.50 85.84 33.65 85.74
  Q 35.33 84.63 37.05 82.96
  C 48.43 71.91 59.61 57.14 63.05 41.58
  Q 67.66 20.76 51.67 8.56
  Q 43.66 2.45 33.48 2.43
  Q 23.29 2.42 15.27 8.51
  Q -0.75 20.68 3.81 41.51
  C 7.21 57.08 18.35 71.87 29.70 82.95
  Q 31.42 84.63 33.10 85.74
  Q 33.25 85.84 33.37 85.84"
/>
<path stroke="#8e9099" vector-effect="non-scaling-stroke" d="
  M 32.99 38.75
  Q 44.45 38.75 46.21 38.79
  A 0.50 0.49 -1.9 0 1 46.69 39.24
  Q 47.21 44.73 46.30 48.76
  A 0.99 0.99 0.0 0 0 48.12 49.49
  Q 51.68 43.53 51.29 35.59
  A 0.97 0.95 -70.0 0 0 51.00 34.95
  L 48.83 32.77
  A 1.26 1.24 19.6 0 1 48.47 32.03
  L 47.04 17.94
  A 0.47 0.46 87.9 0 0 46.60 17.52
  Q 45.32 17.49 32.99 17.48
  Q 20.67 17.48 19.39 17.52
  A 0.47 0.46 -87.9 0 0 18.95 17.94
  L 17.52 32.03
  A 1.26 1.24 -19.6 0 1 17.16 32.77
  L 14.99 34.95
  A 0.97 0.95 70.0 0 0 14.70 35.59
  Q 14.31 43.53 17.87 49.49
  A 0.99 0.99 0.0 0 0 19.69 48.76
  Q 18.78 44.73 19.30 39.24
  A 0.50 0.49 1.9 0 1 19.78 38.79
  Q 21.53 38.75 32.99 38.75"
/>
<path stroke="#8e9099" vector-effect="non-scaling-stroke" d="
  M 33.00 26.40
  Q 33.07 26.40 33.09 26.39
  A 0.27 0.10 -10.1 0 0 33.27 26.29
  Q 35.09 22.68 38.64 20.88
  A 0.34 0.34 0.0 0 0 38.58 20.25
  Q 38.53 20.24 32.98 20.25
  Q 27.44 20.27 27.39 20.28
  A 0.34 0.34 0.0 0 0 27.33 20.91
  Q 30.89 22.69 32.72 26.29
  A 0.27 0.10 9.8 0 0 32.90 26.39
  Q 32.92 26.40 33.00 26.40"
/>
<path stroke="#8e9099" vector-effect="non-scaling-stroke" d="
  M 21.43 24.65
  Q 27.09 25.24 28.73 30.45
  A 0.86 0.86 0.0 0 0 29.64 31.05
  L 30.85 30.93
  A 0.53 0.53 0.0 0 0 31.31 30.27
  Q 29.35 22.98 21.46 22.27
  A 0.33 0.33 0.0 0 0 21.11 22.62
  L 21.31 24.52
  A 0.15 0.15 0.0 0 0 21.43 24.65"
/>
<path stroke="#888a8f" vector-effect="non-scaling-stroke" d="
  M 38.11 24.63
  Q 35.60 26.68 34.61 30.25
  A 0.63 0.63 0.0 0 0 35.28 31.04
  L 36.65 30.90
  A 0.58 0.57 -85.9 0 0 37.15 30.46
  Q 37.70 28.13 39.66 26.52
  Q 41.63 24.91 44.02 24.83
  A 0.58 0.57 7.2 0 0 44.55 24.43
  L 44.95 23.11
  A 0.63 0.63 0.0 0 0 44.30 22.30
  Q 40.61 22.57 38.11 24.63"
/>
<path stroke="#8e9099" vector-effect="non-scaling-stroke" d="
  M 25.73 30.29
  Q 24.05 27.91 21.14 27.73
  A 0.60 0.60 0.0 0 0 20.50 28.39
  L 20.75 30.77
  A 0.47 0.46 -4.9 0 0 21.26 31.19
  L 25.52 30.75
  A 0.29 0.29 0.0 0 0 25.73 30.29"
/>
<path stroke="#8e9099" vector-effect="non-scaling-stroke" d="
  M 40.25 30.28
  A 0.29 0.29 0.0 0 0 40.46 30.74
  L 44.71 31.19
  A 0.47 0.46 5.1 0 0 45.22 30.77
  L 45.48 28.40
  A 0.60 0.60 0.0 0 0 44.84 27.74
  Q 41.94 27.91 40.25 30.28"
/>
</g>
<path fill="#11141f" d="
  M 33.79 88.00
  L 33.04 88.00
  C 16.88 73.31 -5.95 44.70 3.77 21.10
  Q 7.28 12.58 14.88 7.20
  C 27.14 -1.49 44.82 -0.56 55.84 10.29
  Q 68.37 22.63 64.61 41.25
  C 61.06 58.81 46.81 76.21 33.79 88.00
  Z
  M 33.37 85.84
  Q 33.50 85.84 33.65 85.74
  Q 35.33 84.63 37.05 82.96
  C 48.43 71.91 59.61 57.14 63.05 41.58
  Q 67.66 20.76 51.67 8.56
  Q 43.66 2.45 33.48 2.43
  Q 23.29 2.42 15.27 8.51
  Q -0.75 20.68 3.81 41.51
  C 7.21 57.08 18.35 71.87 29.70 82.95
  Q 31.42 84.63 33.10 85.74
  Q 33.25 85.84 33.37 85.84
  Z"
/>
<path fill="#1c2133" d="
  M 33.48 2.43
  Q 43.66 2.45 51.67 8.56
  Q 67.66 20.76 63.05 41.58
  C 59.61 57.14 48.43 71.91 37.05 82.96
  Q 35.33 84.63 33.65 85.74
  Q 33.50 85.84 33.37 85.84
  Q 33.25 85.84 33.10 85.74
  Q 31.42 84.63 29.70 82.95
  C 18.35 71.87 7.21 57.08 3.81 41.51
  Q -0.75 20.68 15.27 8.51
  Q 23.29 2.42 33.48 2.43
  Z
  M 32.99 38.75
  Q 44.45 38.75 46.21 38.79
  A 0.50 0.49 -1.9 0 1 46.69 39.24
  Q 47.21 44.73 46.30 48.76
  A 0.99 0.99 0.0 0 0 48.12 49.49
  Q 51.68 43.53 51.29 35.59
  A 0.97 0.95 -70.0 0 0 51.00 34.95
  L 48.83 32.77
  A 1.26 1.24 19.6 0 1 48.47 32.03
  L 47.04 17.94
  A 0.47 0.46 87.9 0 0 46.60 17.52
  Q 45.32 17.49 32.99 17.48
  Q 20.67 17.48 19.39 17.52
  A 0.47 0.46 -87.9 0 0 18.95 17.94
  L 17.52 32.03
  A 1.26 1.24 -19.6 0 1 17.16 32.77
  L 14.99 34.95
  A 0.97 0.95 70.0 0 0 14.70 35.59
  Q 14.31 43.53 17.87 49.49
  A 0.99 0.99 0.0 0 0 19.69 48.76
  Q 18.78 44.73 19.30 39.24
  A 0.50 0.49 1.9 0 1 19.78 38.79
  Q 21.53 38.75 32.99 38.75
  Z"
/>
<path fill="#ffffff" d="
  M 32.99 17.48
  Q 45.32 17.49 46.60 17.52
  A 0.47 0.46 87.9 0 1 47.04 17.94
  L 48.47 32.03
  A 1.26 1.24 19.6 0 0 48.83 32.77
  L 51.00 34.95
  A 0.97 0.95 -70.0 0 1 51.29 35.59
  Q 51.68 43.53 48.12 49.49
  A 0.99 0.99 0.0 0 1 46.30 48.76
  Q 47.21 44.73 46.69 39.24
  A 0.50 0.49 -1.9 0 0 46.21 38.79
  Q 44.45 38.75 32.99 38.75
  Q 21.53 38.75 19.78 38.79
  A 0.50 0.49 1.9 0 0 19.30 39.24
  Q 18.78 44.73 19.69 48.76
  A 0.99 0.99 0.0 0 1 17.87 49.49
  Q 14.31 43.53 14.70 35.59
  A 0.97 0.95 70.0 0 1 14.99 34.95
  L 17.16 32.77
  A 1.26 1.24 -19.6 0 0 17.52 32.03
  L 18.95 17.94
  A 0.47 0.46 -87.9 0 1 19.39 17.52
  Q 20.67 17.48 32.99 17.48
  Z
  M 33.00 26.40
  Q 33.07 26.40 33.09 26.39
  A 0.27 0.10 -10.1 0 0 33.27 26.29
  Q 35.09 22.68 38.64 20.88
  A 0.34 0.34 0.0 0 0 38.58 20.25
  Q 38.53 20.24 32.98 20.25
  Q 27.44 20.27 27.39 20.28
  A 0.34 0.34 0.0 0 0 27.33 20.91
  Q 30.89 22.69 32.72 26.29
  A 0.27 0.10 9.8 0 0 32.90 26.39
  Q 32.92 26.40 33.00 26.40
  Z
  M 21.43 24.65
  Q 27.09 25.24 28.73 30.45
  A 0.86 0.86 0.0 0 0 29.64 31.05
  L 30.85 30.93
  A 0.53 0.53 0.0 0 0 31.31 30.27
  Q 29.35 22.98 21.46 22.27
  A 0.33 0.33 0.0 0 0 21.11 22.62
  L 21.31 24.52
  A 0.15 0.15 0.0 0 0 21.43 24.65
  Z
  M 38.11 24.63
  Q 35.60 26.68 34.61 30.25
  A 0.63 0.63 0.0 0 0 35.28 31.04
  L 36.65 30.90
  A 0.58 0.57 -85.9 0 0 37.15 30.46
  Q 37.70 28.13 39.66 26.52
  Q 41.63 24.91 44.02 24.83
  A 0.58 0.57 7.2 0 0 44.55 24.43
  L 44.95 23.11
  A 0.63 0.63 0.0 0 0 44.30 22.30
  Q 40.61 22.57 38.11 24.63
  Z
  M 25.73 30.29
  Q 24.05 27.91 21.14 27.73
  A 0.60 0.60 0.0 0 0 20.50 28.39
  L 20.75 30.77
  A 0.47 0.46 -4.9 0 0 21.26 31.19
  L 25.52 30.75
  A 0.29 0.29 0.0 0 0 25.73 30.29
  Z
  M 40.25 30.28
  A 0.29 0.29 0.0 0 0 40.46 30.74
  L 44.71 31.19
  A 0.47 0.46 5.1 0 0 45.22 30.77
  L 45.48 28.40
  A 0.60 0.60 0.0 0 0 44.84 27.74
  Q 41.94 27.91 40.25 30.28
  Z"
/>
<path fill="#1c2133" d="
  M 32.98 20.25
  Q 38.53 20.24 38.58 20.25
  A 0.34 0.34 0.0 0 1 38.64 20.88
  Q 35.09 22.68 33.27 26.29
  A 0.27 0.10 -10.1 0 1 33.09 26.39
  Q 33.07 26.40 33.00 26.40
  Q 32.92 26.40 32.90 26.39
  A 0.27 0.10 9.8 0 1 32.72 26.29
  Q 30.89 22.69 27.33 20.91
  A 0.34 0.34 0.0 0 1 27.39 20.28
  Q 27.44 20.27 32.98 20.25
  Z"
/>
<path fill="#1c2133" d="
  M 21.43 24.65
  A 0.15 0.15 0.0 0 1 21.31 24.52
  L 21.11 22.62
  A 0.33 0.33 0.0 0 1 21.46 22.27
  Q 29.35 22.98 31.31 30.27
  A 0.53 0.53 0.0 0 1 30.85 30.93
  L 29.64 31.05
  A 0.86 0.86 0.0 0 1 28.73 30.45
  Q 27.09 25.24 21.43 24.65
  Z"
/>
<path fill="#11141f" d="
  M 39.66 26.52
  Q 37.70 28.13 37.15 30.46
  A 0.58 0.57 -85.9 0 1 36.65 30.90
  L 35.28 31.04
  A 0.63 0.63 0.0 0 1 34.61 30.25
  Q 35.60 26.68 38.11 24.63
  Q 40.61 22.57 44.30 22.30
  A 0.63 0.63 0.0 0 1 44.95 23.11
  L 44.55 24.43
  A 0.58 0.57 7.2 0 1 44.02 24.83
  Q 41.63 24.91 39.66 26.52
  Z"
/>
<path fill="#1c2133" d="
  M 25.52 30.75
  L 21.26 31.19
  A 0.47 0.46 -4.9 0 1 20.75 30.77
  L 20.50 28.39
  A 0.60 0.60 0.0 0 1 21.14 27.73
  Q 24.05 27.91 25.73 30.29
  A 0.29 0.29 0.0 0 1 25.52 30.75
  Z"
/>
<path fill="#1c2133" d="
  M 40.25 30.28
  Q 41.94 27.91 44.84 27.74
  A 0.60 0.60 0.0 0 1 45.48 28.40
  L 45.22 30.77
  A 0.47 0.46 5.1 0 1 44.71 31.19
  L 40.46 30.74
  A 0.29 0.29 0.0 0 1 40.25 30.28
  Z"
/>
</svg>
