<?xml version="1.0" encoding="UTF-8" standalone="no"?>
<!DOCTYPE svg PUBLIC "-//W3C//DTD SVG 1.1//EN" "http://www.w3.org/Graphics/SVG/1.1/DTD/svg11.dtd">
<svg xmlns="http://www.w3.org/2000/svg" version="1.1" viewBox="0.00 0.00 66.00 88.00">
<g stroke-width="2.00" fill="none" stroke-linecap="butt">
<path stroke="#425a74" vector-effect="non-scaling-stroke" d="
  M 33.41 86.69
  Q 33.51 86.69 33.62 86.67
  Q 33.64 86.67 33.76 86.55
  Q 47.64 73.42 56.23 59.00
  C 61.00 51.00 65.01 40.24 64.20 30.87
  Q 62.68 13.35 46.46 5.35
  Q 40.66 2.49 33.54 2.48
  Q 26.42 2.47 20.61 5.31
  Q 4.36 13.26 2.79 30.78
  C 1.95 40.14 5.93 50.92 10.67 58.93
  Q 19.22 73.38 33.06 86.55
  Q 33.18 86.67 33.20 86.67
  Q 33.30 86.69 33.41 86.69"
/>
<path stroke="#acbbcc" vector-effect="non-scaling-stroke" d="
  M 49.44 34.00
  A 16.47 16.47 0.0 0 0 32.97 17.53
  A 16.47 16.47 0.0 0 0 16.50 34.00
  A 16.47 16.47 0.0 0 0 32.97 50.47
  A 16.47 16.47 0.0 0 0 49.44 34.00"
/>
<path stroke="#acbbcc" vector-effect="non-scaling-stroke" d="
  M 21.4190 36.8645
  A 5.37 4.04 -132.4 0 0 22.0566 43.5542
  A 5.37 4.04 -132.4 0 0 28.6610 44.7955
  A 5.37 4.04 -132.4 0 0 28.0234 38.1058
  A 5.37 4.04 -132.4 0 0 21.4190 36.8645"
/>
<path stroke="#acbbcc" vector-effect="non-scaling-stroke" d="
  M 44.6341 36.8582
  A 5.37 4.03 -47.7 0 0 38.0393 38.1178
  A 5.37 4.03 -47.7 0 0 37.4059 44.8018
  A 5.37 4.03 -47.7 0 0 44.0007 43.5422
  A 5.37 4.03 -47.7 0 0 44.6341 36.8582"
/>
</g>
<path fill="#2a3d50" d="
  M 33.80 88.00
  L 33.04 88.00
  C 22.21 78.22 11.93 65.54 5.75 51.76
  Q 2.15 43.72 1.56 34.97
  C 0.25 15.44 17.06 -0.47 36.66 1.49
  C 53.32 3.16 66.10 17.17 65.46 33.90
  Q 65.18 41.57 62.40 48.84
  C 56.72 63.72 45.49 77.35 33.80 88.00
  Z
  M 33.41 86.69
  Q 33.51 86.69 33.62 86.67
  Q 33.64 86.67 33.76 86.55
  Q 47.64 73.42 56.23 59.00
  C 61.00 51.00 65.01 40.24 64.20 30.87
  Q 62.68 13.35 46.46 5.35
  Q 40.66 2.49 33.54 2.48
  Q 26.42 2.47 20.61 5.31
  Q 4.36 13.26 2.79 30.78
  C 1.95 40.14 5.93 50.92 10.67 58.93
  Q 19.22 73.38 33.06 86.55
  Q 33.18 86.67 33.20 86.67
  Q 33.30 86.69 33.41 86.69
  Z"
/>
<path fill="#597698" d="
  M 33.54 2.48
  Q 40.66 2.49 46.46 5.35
  Q 62.68 13.35 64.20 30.87
  C 65.01 40.24 61.00 51.00 56.23 59.00
  Q 47.64 73.42 33.76 86.55
  Q 33.64 86.67 33.62 86.67
  Q 33.51 86.69 33.41 86.69
  Q 33.30 86.69 33.20 86.67
  Q 33.18 86.67 33.06 86.55
  Q 19.22 73.38 10.67 58.93
  C 5.93 50.92 1.95 40.14 2.79 30.78
  Q 4.36 13.26 20.61 5.31
  Q 26.42 2.47 33.54 2.48
  Z
  M 49.44 34.00
  A 16.47 16.47 0.0 0 0 32.97 17.53
  A 16.47 16.47 0.0 0 0 16.50 34.00
  A 16.47 16.47 0.0 0 0 32.97 50.47
  A 16.47 16.47 0.0 0 0 49.44 34.00
  Z"
/>
<path fill="#ffffff" d="
  M 49.44 34.00
  A 16.47 16.47 0.0 0 1 32.97 50.47
  A 16.47 16.47 0.0 0 1 16.50 34.00
  A 16.47 16.47 0.0 0 1 32.97 17.53
  A 16.47 16.47 0.0 0 1 49.44 34.00
  Z
  M 21.4190 36.8645
  A 5.37 4.04 -132.4 0 0 22.0566 43.5542
  A 5.37 4.04 -132.4 0 0 28.6610 44.7955
  A 5.37 4.04 -132.4 0 0 28.0234 38.1058
  A 5.37 4.04 -132.4 0 0 21.4190 36.8645
  Z
  M 44.6341 36.8582
  A 5.37 4.03 -47.7 0 0 38.0393 38.1178
  A 5.37 4.03 -47.7 0 0 37.4059 44.8018
  A 5.37 4.03 -47.7 0 0 44.0007 43.5422
  A 5.37 4.03 -47.7 0 0 44.6341 36.8582
  Z"
/>
<ellipse fill="#597698" cx="0.00" cy="0.00" transform="translate(25.04,40.83) rotate(-132.4)" rx="5.37" ry="4.04"/>
<ellipse fill="#597698" cx="0.00" cy="0.00" transform="translate(41.02,40.83) rotate(-47.7)" rx="5.37" ry="4.03"/>
</svg>
