<?xml version="1.0" encoding="UTF-8" standalone="no"?>
<!DOCTYPE svg PUBLIC "-//W3C//DTD SVG 1.1//EN" "http://www.w3.org/Graphics/SVG/1.1/DTD/svg11.dtd">
<svg xmlns="http://www.w3.org/2000/svg" version="1.1" viewBox="0.00 0.00 66.00 88.00">
<g stroke-width="2.00" fill="none" stroke-linecap="butt">
<path stroke="#7f5666" vector-effect="non-scaling-stroke" d="
  M 33.40 86.69
  Q 33.54 86.69 33.68 86.66
  A 0.12 0.08 7.9 0 0 33.73 86.63
  C 50.11 71.36 74.27 40.79 60.00 17.39
  C 54.31 8.06 44.67 2.75 33.75 2.46
  Q 33.64 2.46 33.53 2.46
  Q 33.42 2.46 33.31 2.46
  C 22.39 2.72 12.73 8.00 7.02 17.31
  C -7.33 40.66 16.74 71.31 33.07 86.63
  A 0.12 0.08 -7.7 0 0 33.12 86.66
  Q 33.26 86.69 33.40 86.69"
/>
<path stroke="#d3b9c3" vector-effect="non-scaling-stroke" d="
  M 47.24 36.02
  L 41.92 40.28
  A 1.42 1.22 -89.9 0 0 41.60 40.65
  L 38.36 46.26
  A 0.32 0.32 0.0 0 0 38.64 46.74
  L 41.84 46.74
  A 1.38 1.36 21.8 0 0 42.82 46.33
  Q 47.43 41.72 48.47 40.71
  Q 49.18 40.02 51.06 35.19
  A 0.75 0.75 0.0 0 0 50.85 34.34
  L 43.96 28.38
  A 1.53 1.50 64.9 0 0 42.97 28.01
  L 38.09 28.01
  A 0.85 0.83 -23.3 0 1 37.52 27.79
  L 31.20 22.32
  A 0.84 0.83 -37.9 0 0 30.28 22.21
  Q 25.45 24.66 20.22 24.66
  A 1.14 1.11 -71.7 0 0 19.31 25.13
  L 15.03 31.21
  A 1.64 1.64 0.0 0 0 14.75 32.38
  L 16.34 43.17
  A 1.08 1.06 8.0 0 0 16.99 44.01
  L 22.82 46.47
  A 3.65 3.54 55.7 0 0 24.23 46.76
  L 33.31 46.76
  A 0.66 0.66 0.0 0 0 33.88 46.43
  L 38.07 39.17
  A 0.91 0.89 -84.1 0 1 38.56 38.76
  L 47.10 35.77
  A 0.15 0.15 0.0 0 1 47.24 36.02"
/>
<path stroke="#d3b9c3" vector-effect="non-scaling-stroke" d="
  M 29.23 42.45
  L 31.11 36.42
  A 1.92 1.86 -6.8 0 1 31.97 35.36
  L 40.59 30.38
  A 0.41 0.41 0.0 0 0 40.32 29.62
  L 36.59 30.16
  A 1.32 1.31 61.1 0 1 35.53 29.85
  L 31.49 26.36
  A 0.33 0.32 10.8 0 0 30.97 26.71
  L 32.55 31.21
  A 0.59 0.58 65.6 0 1 32.29 31.91
  L 28.40 34.16
  A 0.90 0.89 71.2 0 0 27.96 35.07
  L 29.03 42.44
  A 0.10 0.10 0.0 0 0 29.23 42.45"
/>
<path stroke="#d3b9c3" vector-effect="non-scaling-stroke" d="
  M 22.59 43.97
  L 20.67 36.20
  A 4.96 4.92 -43.9 0 1 20.73 33.69
  Q 22.07 29.10 22.18 28.33
  A 0.11 0.10 71.0 0 0 22.00 28.24
  L 17.34 33.62
  A 1.12 1.11 50.5 0 0 17.22 34.91
  L 22.47 44.02
  A 0.07 0.07 0.0 0 0 22.59 43.97"
/>
</g>
<path fill="#563944" d="
  M 33.78 88.00
  L 33.11 88.00
  Q 16.14 72.88 6.60 53.84
  Q 3.31 47.29 1.98 38.76
  Q 0.34 28.31 4.38 19.72
  C 12.43 2.61 33.42 -3.73 49.72 5.69
  C 59.77 11.50 65.82 22.14 65.44 33.87
  Q 65.18 41.81 62.33 49.06
  C 56.52 63.86 45.51 77.38 33.78 88.00
  Z
  M 33.40 86.69
  Q 33.54 86.69 33.68 86.66
  A 0.12 0.08 7.9 0 0 33.73 86.63
  C 50.11 71.36 74.27 40.79 60.00 17.39
  C 54.31 8.06 44.67 2.75 33.75 2.46
  Q 33.64 2.46 33.53 2.46
  Q 33.42 2.46 33.31 2.46
  C 22.39 2.72 12.73 8.00 7.02 17.31
  C -7.33 40.66 16.74 71.31 33.07 86.63
  A 0.12 0.08 -7.7 0 0 33.12 86.66
  Q 33.26 86.69 33.40 86.69
  Z"
/>
<path fill="#a77387" d="
  M 33.53 2.46
  Q 33.64 2.46 33.75 2.46
  C 44.67 2.75 54.31 8.06 60.00 17.39
  C 74.27 40.79 50.11 71.36 33.73 86.63
  A 0.12 0.08 7.9 0 1 33.68 86.66
  Q 33.54 86.69 33.40 86.69
  Q 33.26 86.69 33.12 86.66
  A 0.12 0.08 -7.7 0 1 33.07 86.63
  C 16.74 71.31 -7.33 40.66 7.02 17.31
  C 12.73 8.00 22.39 2.72 33.31 2.46
  Q 33.42 2.46 33.53 2.46
  Z
  M 47.24 36.02
  L 41.92 40.28
  A 1.42 1.22 -89.9 0 0 41.60 40.65
  L 38.36 46.26
  A 0.32 0.32 0.0 0 0 38.64 46.74
  L 41.84 46.74
  A 1.38 1.36 21.8 0 0 42.82 46.33
  Q 47.43 41.72 48.47 40.71
  Q 49.18 40.02 51.06 35.19
  A 0.75 0.75 0.0 0 0 50.85 34.34
  L 43.96 28.38
  A 1.53 1.50 64.9 0 0 42.97 28.01
  L 38.09 28.01
  A 0.85 0.83 -23.3 0 1 37.52 27.79
  L 31.20 22.32
  A 0.84 0.83 -37.9 0 0 30.28 22.21
  Q 25.45 24.66 20.22 24.66
  A 1.14 1.11 -71.7 0 0 19.31 25.13
  L 15.03 31.21
  A 1.64 1.64 0.0 0 0 14.75 32.38
  L 16.34 43.17
  A 1.08 1.06 8.0 0 0 16.99 44.01
  L 22.82 46.47
  A 3.65 3.54 55.7 0 0 24.23 46.76
  L 33.31 46.76
  A 0.66 0.66 0.0 0 0 33.88 46.43
  L 38.07 39.17
  A 0.91 0.89 -84.1 0 1 38.56 38.76
  L 47.10 35.77
  A 0.15 0.15 0.0 0 1 47.24 36.02
  Z"
/>
<path fill="#ffffff" d="
  M 47.10 35.77
  L 38.56 38.76
  A 0.91 0.89 -84.1 0 0 38.07 39.17
  L 33.88 46.43
  A 0.66 0.66 0.0 0 1 33.31 46.76
  L 24.23 46.76
  A 3.65 3.54 55.7 0 1 22.82 46.47
  L 16.99 44.01
  A 1.08 1.06 8.0 0 1 16.34 43.17
  L 14.75 32.38
  A 1.64 1.64 0.0 0 1 15.03 31.21
  L 19.31 25.13
  A 1.14 1.11 -71.7 0 1 20.22 24.66
  Q 25.45 24.66 30.28 22.21
  A 0.84 0.83 -37.9 0 1 31.20 22.32
  L 37.52 27.79
  A 0.85 0.83 -23.3 0 0 38.09 28.01
  L 42.97 28.01
  A 1.53 1.50 64.9 0 1 43.96 28.38
  L 50.85 34.34
  A 0.75 0.75 0.0 0 1 51.06 35.19
  Q 49.18 40.02 48.47 40.71
  Q 47.43 41.72 42.82 46.33
  A 1.38 1.36 21.8 0 1 41.84 46.74
  L 38.64 46.74
  A 0.32 0.32 0.0 0 1 38.36 46.26
  L 41.60 40.65
  A 1.42 1.22 -89.9 0 1 41.92 40.28
  L 47.24 36.02
  A 0.15 0.15 0.0 0 0 47.10 35.77
  Z
  M 29.23 42.45
  L 31.11 36.42
  A 1.92 1.86 -6.8 0 1 31.97 35.36
  L 40.59 30.38
  A 0.41 0.41 0.0 0 0 40.32 29.62
  L 36.59 30.16
  A 1.32 1.31 61.1 0 1 35.53 29.85
  L 31.49 26.36
  A 0.33 0.32 10.8 0 0 30.97 26.71
  L 32.55 31.21
  A 0.59 0.58 65.6 0 1 32.29 31.91
  L 28.40 34.16
  A 0.90 0.89 71.2 0 0 27.96 35.07
  L 29.03 42.44
  A 0.10 0.10 0.0 0 0 29.23 42.45
  Z
  M 22.59 43.97
  L 20.67 36.20
  A 4.96 4.92 -43.9 0 1 20.73 33.69
  Q 22.07 29.10 22.18 28.33
  A 0.11 0.10 71.0 0 0 22.00 28.24
  L 17.34 33.62
  A 1.12 1.11 50.5 0 0 17.22 34.91
  L 22.47 44.02
  A 0.07 0.07 0.0 0 0 22.59 43.97
  Z"
/>
<path fill="#a77387" d="
  M 29.03 42.44
  L 27.96 35.07
  A 0.90 0.89 71.2 0 1 28.40 34.16
  L 32.29 31.91
  A 0.59 0.58 65.6 0 0 32.55 31.21
  L 30.97 26.71
  A 0.33 0.32 10.8 0 1 31.49 26.36
  L 35.53 29.85
  A 1.32 1.31 61.1 0 0 36.59 30.16
  L 40.32 29.62
  A 0.41 0.41 0.0 0 1 40.59 30.38
  L 31.97 35.36
  A 1.92 1.86 -6.8 0 0 31.11 36.42
  L 29.23 42.45
  A 0.10 0.10 0.0 0 1 29.03 42.44
  Z"
/>
<path fill="#a77387" d="
  M 22.47 44.02
  L 17.22 34.91
  A 1.12 1.11 50.5 0 1 17.34 33.62
  L 22.00 28.24
  A 0.11 0.10 71.0 0 1 22.18 28.33
  Q 22.07 29.10 20.73 33.69
  A 4.96 4.92 -43.9 0 0 20.67 36.20
  L 22.59 43.97
  A 0.07 0.07 0.0 0 1 22.47 44.02
  Z"
/>
</svg>
