<?xml version="1.0" encoding="UTF-8" standalone="no"?>
<!DOCTYPE svg PUBLIC "-//W3C//DTD SVG 1.1//EN" "http://www.w3.org/Graphics/SVG/1.1/DTD/svg11.dtd">
<svg xmlns="http://www.w3.org/2000/svg" version="1.1" viewBox="0.00 0.00 66.00 88.00">
<g stroke-width="2.00" fill="none" stroke-linecap="butt">
<path stroke="#9e3d35" vector-effect="non-scaling-stroke" d="
  M 33.41 86.71
  Q 33.55 86.71 33.62 86.69
  Q 33.64 86.68 33.77 86.56
  Q 47.01 74.16 55.83 59.60
  C 65.56 43.55 69.26 23.65 53.69 10.04
  Q 45.05 2.48 33.52 2.46
  Q 22.00 2.44 13.33 9.98
  C -2.27 23.55 1.38 43.46 11.06 59.54
  Q 19.84 74.12 33.05 86.56
  Q 33.18 86.68 33.20 86.69
  Q 33.27 86.71 33.41 86.71"
/>
<path stroke="#e8a8a4" vector-effect="non-scaling-stroke" d="
  M 33.80 17.30
  Q 38.92 17.48 43.26 21.37
  A 0.07 0.07 0.0 0 0 43.36 21.28
  Q 39.33 15.95 33.86 15.76
  Q 28.39 15.56 23.98 20.58
  A 0.07 0.07 0.0 0 0 24.08 20.69
  Q 28.68 17.11 33.80 17.30"
/>
<path stroke="#e8a8a4" vector-effect="non-scaling-stroke" d="
  M 33.26 20.90
  C 39.13 20.90 40.72 27.60 40.52 32.80
  A 0.82 0.81 10.1 0 0 41.09 33.61
  Q 44.18 34.57 47.36 38.32
  A 0.28 0.28 0.0 0 0 47.86 38.13
  C 47.58 30.02 42.15 20.07 33.26 20.07
  C 24.37 20.07 18.96 30.03 18.69 38.14
  A 0.28 0.28 0.0 0 0 19.18 38.33
  Q 22.36 34.58 25.45 33.62
  A 0.82 0.81 -10.2 0 0 26.01 32.81
  C 25.82 27.61 27.40 20.91 33.26 20.90"
/>
<path stroke="#e8a8a4" vector-effect="non-scaling-stroke" d="
  M 33.29 28.79
  Q 35.33 28.79 37.48 29.71
  A 0.22 0.21 5.7 0 0 37.78 29.47
  Q 36.63 23.58 33.29 23.58
  Q 29.95 23.58 28.80 29.48
  A 0.22 0.21 -5.7 0 0 29.10 29.72
  Q 31.25 28.79 33.29 28.79"
/>
<path stroke="#e8a8a4" vector-effect="non-scaling-stroke" d="
  M 33.34 38.20
  Q 35.93 38.19 37.40 33.72
  A 0.79 0.79 0.0 0 0 37.16 32.88
  Q 35.52 31.46 33.30 31.47
  Q 31.07 31.48 29.45 32.92
  A 0.79 0.79 0.0 0 0 29.23 33.77
  Q 30.74 38.22 33.34 38.20"
/>
<path stroke="#e8a8a4" vector-effect="non-scaling-stroke" d="
  M 33.30 45.97
  Q 39.97 45.96 46.08 41.75
  A 0.44 0.44 0.0 0 0 46.19 41.13
  Q 44.14 38.30 40.43 36.31
  A 0.76 0.76 0.0 0 0 39.41 36.62
  Q 37.11 40.96 33.29 40.96
  Q 29.48 40.96 27.18 36.63
  A 0.76 0.76 0.0 0 0 26.16 36.31
  Q 22.45 38.31 20.40 41.14
  A 0.44 0.44 0.0 0 0 20.51 41.76
  Q 26.62 45.97 33.30 45.97"
/>
<path stroke="#e8a8a4" vector-effect="non-scaling-stroke" d="
  M 33.31 52.21
  C 39.37 52.20 43.61 50.92 48.74 47.68
  A 0.76 0.76 0.0 0 0 49.06 46.81
  L 48.25 44.35
  A 0.54 0.54 0.0 0 0 47.44 44.07
  C 43.51 46.71 38.18 48.70 33.31 48.71
  C 28.43 48.71 23.10 46.73 19.16 44.10
  A 0.54 0.54 0.0 0 0 18.35 44.38
  L 17.55 46.84
  A 0.76 0.76 0.0 0 0 17.87 47.71
  C 23.01 50.94 27.25 52.22 33.31 52.21"
/>
</g>
<path fill="#6c2822" d="
  M 33.80 88.00
  L 33.04 88.00
  C 21.72 77.72 12.20 65.75 5.68 51.55
  Q 2.13 43.83 1.57 34.89
  C 0.24 13.65 19.57 -2.28 40.47 2.10
  Q 47.33 3.53 52.91 7.81
  Q 64.38 16.61 65.39 30.94
  C 66.88 52.07 48.39 74.74 33.80 88.00
  Z
  M 33.41 86.71
  Q 33.55 86.71 33.62 86.69
  Q 33.64 86.68 33.77 86.56
  Q 47.01 74.16 55.83 59.60
  C 65.56 43.55 69.26 23.65 53.69 10.04
  Q 45.05 2.48 33.52 2.46
  Q 22.00 2.44 13.33 9.98
  C -2.27 23.55 1.38 43.46 11.06 59.54
  Q 19.84 74.12 33.05 86.56
  Q 33.18 86.68 33.20 86.69
  Q 33.27 86.71 33.41 86.71
  Z"
/>
<path fill="#d05148" d="
  M 33.52 2.46
  Q 45.05 2.48 53.69 10.04
  C 69.26 23.65 65.56 43.55 55.83 59.60
  Q 47.01 74.16 33.77 86.56
  Q 33.64 86.68 33.62 86.69
  Q 33.55 86.71 33.41 86.71
  Q 33.27 86.71 33.20 86.69
  Q 33.18 86.68 33.05 86.56
  Q 19.84 74.12 11.06 59.54
  C 1.38 43.46 -2.27 23.55 13.33 9.98
  Q 22.00 2.44 33.52 2.46
  Z
  M 33.80 17.30
  Q 38.92 17.48 43.26 21.37
  A 0.07 0.07 0.0 0 0 43.36 21.28
  Q 39.33 15.95 33.86 15.76
  Q 28.39 15.56 23.98 20.58
  A 0.07 0.07 0.0 0 0 24.08 20.69
  Q 28.68 17.11 33.80 17.30
  Z
  M 33.26 20.90
  C 39.13 20.90 40.72 27.60 40.52 32.80
  A 0.82 0.81 10.1 0 0 41.09 33.61
  Q 44.18 34.57 47.36 38.32
  A 0.28 0.28 0.0 0 0 47.86 38.13
  C 47.58 30.02 42.15 20.07 33.26 20.07
  C 24.37 20.07 18.96 30.03 18.69 38.14
  A 0.28 0.28 0.0 0 0 19.18 38.33
  Q 22.36 34.58 25.45 33.62
  A 0.82 0.81 -10.2 0 0 26.01 32.81
  C 25.82 27.61 27.40 20.91 33.26 20.90
  Z
  M 33.29 28.79
  Q 35.33 28.79 37.48 29.71
  A 0.22 0.21 5.7 0 0 37.78 29.47
  Q 36.63 23.58 33.29 23.58
  Q 29.95 23.58 28.80 29.48
  A 0.22 0.21 -5.7 0 0 29.10 29.72
  Q 31.25 28.79 33.29 28.79
  Z
  M 33.34 38.20
  Q 35.93 38.19 37.40 33.72
  A 0.79 0.79 0.0 0 0 37.16 32.88
  Q 35.52 31.46 33.30 31.47
  Q 31.07 31.48 29.45 32.92
  A 0.79 0.79 0.0 0 0 29.23 33.77
  Q 30.74 38.22 33.34 38.20
  Z
  M 33.30 45.97
  Q 39.97 45.96 46.08 41.75
  A 0.44 0.44 0.0 0 0 46.19 41.13
  Q 44.14 38.30 40.43 36.31
  A 0.76 0.76 0.0 0 0 39.41 36.62
  Q 37.11 40.96 33.29 40.96
  Q 29.48 40.96 27.18 36.63
  A 0.76 0.76 0.0 0 0 26.16 36.31
  Q 22.45 38.31 20.40 41.14
  A 0.44 0.44 0.0 0 0 20.51 41.76
  Q 26.62 45.97 33.30 45.97
  Z
  M 33.31 52.21
  C 39.37 52.20 43.61 50.92 48.74 47.68
  A 0.76 0.76 0.0 0 0 49.06 46.81
  L 48.25 44.35
  A 0.54 0.54 0.0 0 0 47.44 44.07
  C 43.51 46.71 38.18 48.70 33.31 48.71
  C 28.43 48.71 23.10 46.73 19.16 44.10
  A 0.54 0.54 0.0 0 0 18.35 44.38
  L 17.55 46.84
  A 0.76 0.76 0.0 0 0 17.87 47.71
  C 23.01 50.94 27.25 52.22 33.31 52.21
  Z"
/>
<path fill="#ffffff" d="
  M 33.86 15.76
  Q 39.33 15.95 43.36 21.28
  A 0.07 0.07 0.0 0 1 43.26 21.37
  Q 38.92 17.48 33.80 17.30
  Q 28.68 17.11 24.08 20.69
  A 0.07 0.07 0.0 0 1 23.98 20.58
  Q 28.39 15.56 33.86 15.76
  Z"
/>
<path fill="#ffffff" d="
  M 33.26 20.07
  C 42.15 20.07 47.58 30.02 47.86 38.13
  A 0.28 0.28 0.0 0 1 47.36 38.32
  Q 44.18 34.57 41.09 33.61
  A 0.82 0.81 10.1 0 1 40.52 32.80
  C 40.72 27.60 39.13 20.90 33.26 20.90
  C 27.40 20.91 25.82 27.61 26.01 32.81
  A 0.82 0.81 -10.2 0 1 25.45 33.62
  Q 22.36 34.58 19.18 38.33
  A 0.28 0.28 0.0 0 1 18.69 38.14
  C 18.96 30.03 24.37 20.07 33.26 20.07
  Z"
/>
<path fill="#ffffff" d="
  M 33.29 23.58
  Q 36.63 23.58 37.78 29.47
  A 0.22 0.21 5.7 0 1 37.48 29.71
  Q 35.33 28.79 33.29 28.79
  Q 31.25 28.79 29.10 29.72
  A 0.22 0.21 -5.7 0 1 28.80 29.48
  Q 29.95 23.58 33.29 23.58
  Z"
/>
<path fill="#ffffff" d="
  M 33.30 31.47
  Q 35.52 31.46 37.16 32.88
  A 0.79 0.79 0.0 0 1 37.40 33.72
  Q 35.93 38.19 33.34 38.20
  Q 30.74 38.22 29.23 33.77
  A 0.79 0.79 0.0 0 1 29.45 32.92
  Q 31.07 31.48 33.30 31.47
  Z"
/>
<path fill="#ffffff" d="
  M 33.29 40.96
  Q 37.11 40.96 39.41 36.62
  A 0.76 0.76 0.0 0 1 40.43 36.31
  Q 44.14 38.30 46.19 41.13
  A 0.44 0.44 0.0 0 1 46.08 41.75
  Q 39.97 45.96 33.30 45.97
  Q 26.62 45.97 20.51 41.76
  A 0.44 0.44 0.0 0 1 20.40 41.14
  Q 22.45 38.31 26.16 36.31
  A 0.76 0.76 0.0 0 1 27.18 36.63
  Q 29.48 40.96 33.29 40.96
  Z"
/>
<path fill="#ffffff" d="
  M 33.31 48.71
  C 38.18 48.70 43.51 46.71 47.44 44.07
  A 0.54 0.54 0.0 0 1 48.25 44.35
  L 49.06 46.81
  A 0.76 0.76 0.0 0 1 48.74 47.68
  C 43.61 50.92 39.37 52.20 33.31 52.21
  C 27.25 52.22 23.01 50.94 17.87 47.71
  A 0.76 0.76 0.0 0 1 17.55 46.84
  L 18.35 44.38
  A 0.54 0.54 0.0 0 1 19.16 44.10
  C 23.10 46.73 28.43 48.71 33.31 48.71
  Z"
/>
</svg>
