<?xml version="1.0" encoding="UTF-8" standalone="no"?>
<!DOCTYPE svg PUBLIC "-//W3C//DTD SVG 1.1//EN" "http://www.w3.org/Graphics/SVG/1.1/DTD/svg11.dtd">
<svg xmlns="http://www.w3.org/2000/svg" version="1.1" viewBox="0.00 0.00 66.00 88.00">
<g stroke-width="2.00" fill="none" stroke-linecap="butt">
<path stroke="#6c427b" vector-effect="non-scaling-stroke" d="
  M 33.42 86.70
  Q 33.52 86.70 33.63 86.68
  Q 33.65 86.67 33.77 86.56
  Q 48.91 72.28 57.73 56.26
  C 64.14 44.60 67.63 28.82 59.67 16.84
  Q 50.84 3.56 34.75 2.55
  Q 33.58 2.47 33.52 2.47
  Q 33.47 2.47 32.30 2.54
  Q 16.21 3.52 7.34 16.77
  C -0.65 28.73 2.80 44.52 9.18 56.20
  Q 17.96 72.24 33.06 86.56
  Q 33.18 86.67 33.20 86.68
  Q 33.31 86.70 33.42 86.70"
/>
<path stroke="#c7acd0" vector-effect="non-scaling-stroke" d="
  M 51.22 34.07
  A 18.25 18.25 0.0 0 0 32.97 15.82
  A 18.25 18.25 0.0 0 0 14.72 34.07
  A 18.25 18.25 0.0 0 0 32.97 52.32
  A 18.25 18.25 0.0 0 0 51.22 34.07"
/>
<path stroke="#c7acd0" vector-effect="non-scaling-stroke" d="
  M 49.40 33.98
  A 16.43 16.43 0.0 0 0 32.97 17.55
  A 16.43 16.43 0.0 0 0 16.54 33.98
  A 16.43 16.43 0.0 0 0 32.97 50.41
  A 16.43 16.43 0.0 0 0 49.40 33.98"
/>
<path stroke="#c7acd0" vector-effect="non-scaling-stroke" d="
  M 46.54 34.04
  A 13.55 13.55 0.0 0 0 32.99 20.49
  A 13.55 13.55 0.0 0 0 19.44 34.04
  A 13.55 13.55 0.0 0 0 32.99 47.59
  A 13.55 13.55 0.0 0 0 46.54 34.04"
/>
<path stroke="#c7acd0" vector-effect="non-scaling-stroke" d="
  M 32.98 29.65
  Q 33.09 29.65 33.20 29.61
  Q 33.42 29.54 33.44 29.50
  Q 35.74 25.61 40.33 25.76
  A 0.33 0.33 0.0 0 0 40.58 25.19
  Q 37.70 22.30 32.98 22.30
  Q 28.27 22.29 25.38 25.18
  A 0.33 0.33 0.0 0 0 25.63 25.75
  Q 30.22 25.61 32.51 29.50
  Q 32.53 29.54 32.75 29.61
  Q 32.87 29.65 32.98 29.65"
/>
<path stroke="#c7acd0" vector-effect="non-scaling-stroke" d="
  M 21.47 36.39
  A 0.30 0.30 0.0 0 0 21.98 36.54
  Q 24.75 33.48 28.49 33.85
  A 0.70 0.69 17.1 0 0 29.16 33.50
  L 30.20 31.71
  A 2.18 2.18 0.0 0 0 29.26 28.66
  C 22.97 25.61 20.45 31.16 21.47 36.39"
/>
<path stroke="#c7acd0" vector-effect="non-scaling-stroke" d="
  M 44.47 36.40
  C 45.52 31.18 43.03 25.62 36.73 28.64
  A 2.18 2.18 0.0 0 0 35.77 31.68
  L 36.80 33.48
  A 0.70 0.69 -16.9 0 0 37.47 33.83
  Q 41.21 33.48 43.96 36.55
  A 0.30 0.29 -60.8 0 0 44.47 36.40"
/>
<path stroke="#c7acd0" vector-effect="non-scaling-stroke" d="
  M 33.00 33.71
  Q 33.24 33.71 34.34 33.87
  A 0.40 0.40 0.0 0 0 34.74 33.28
  Q 33.71 31.53 32.93 31.55
  Q 32.14 31.58 31.23 33.40
  A 0.40 0.40 0.0 0 0 31.67 33.96
  Q 32.76 33.72 33.00 33.71"
/>
<path stroke="#c7acd0" vector-effect="non-scaling-stroke" d="
  M 26.52 42.46
  Q 26.89 40.91 28.43 39.41
  A 1.33 1.32 67.9 0 0 28.83 38.46
  L 28.83 36.35
  A 0.61 0.61 0.0 0 0 28.25 35.74
  Q 24.56 35.57 22.89 38.72
  A 1.62 1.61 -53.7 0 0 23.17 40.62
  L 25.34 42.79
  A 0.71 0.70 29.0 0 0 26.52 42.46"
/>
<path stroke="#c7acd0" vector-effect="non-scaling-stroke" d="
  M 31.02 37.85
  L 35.08 37.71
  A 0.40 0.40 0.0 0 0 35.47 37.30
  L 35.46 37.15
  A 1.70 1.43 -1.9 0 0 33.72 35.78
  L 32.26 35.82
  A 1.70 1.43 -1.9 0 0 30.61 37.31
  L 30.61 37.46
  A 0.40 0.40 0.0 0 0 31.02 37.85"
/>
<path stroke="#c7acd0" vector-effect="non-scaling-stroke" d="
  M 39.46 42.45
  A 0.70 0.69 -29.1 0 0 40.64 42.77
  L 42.80 40.61
  A 1.62 1.61 53.6 0 0 43.07 38.71
  Q 41.40 35.57 37.72 35.75
  A 0.61 0.61 0.0 0 0 37.15 36.36
  L 37.15 38.46
  A 1.33 1.32 -68.0 0 0 37.55 39.41
  Q 39.09 40.90 39.46 42.45"
/>
<path stroke="#c7acd0" vector-effect="non-scaling-stroke" d="
  M 34.31 39.54
  L 31.67 39.56
  A 0.30 0.30 0.0 0 0 31.37 39.86
  L 31.37 40.04
  A 1.92 1.48 89.5 0 0 32.87 41.95
  L 33.15 41.95
  A 1.92 1.48 89.5 0 0 34.61 40.02
  L 34.61 39.84
  A 0.30 0.30 0.0 0 0 34.31 39.54"
/>
<path stroke="#c7acd0" vector-effect="non-scaling-stroke" d="
  M 32.98 45.75
  Q 34.98 45.75 37.41 44.79
  A 0.85 0.84 77.2 0 0 37.95 43.93
  Q 37.84 42.70 36.95 41.55
  A 0.49 0.49 0.0 0 0 36.16 41.56
  Q 34.58 43.85 32.98 43.85
  Q 31.39 43.85 29.81 41.56
  A 0.49 0.49 0.0 0 0 29.02 41.54
  Q 28.13 42.69 28.02 43.92
  A 0.85 0.84 -77.1 0 0 28.55 44.78
  Q 30.98 45.74 32.98 45.75"
/>
</g>
<path fill="#492b55" d="
  M 33.78 88.00
  L 33.15 88.00
  Q 15.61 72.49 6.00 52.51
  Q 2.24 44.69 1.62 35.22
  Q 1.01 25.75 5.25 18.00
  C 11.41 6.75 23.67 0.18 36.85 1.51
  C 53.46 3.18 66.10 17.36 65.46 33.99
  Q 65.16 41.66 62.33 49.05
  C 56.69 63.76 45.40 77.48 33.78 88.00
  Z
  M 33.42 86.70
  Q 33.52 86.70 33.63 86.68
  Q 33.65 86.67 33.77 86.56
  Q 48.91 72.28 57.73 56.26
  C 64.14 44.60 67.63 28.82 59.67 16.84
  Q 50.84 3.56 34.75 2.55
  Q 33.58 2.47 33.52 2.47
  Q 33.47 2.47 32.30 2.54
  Q 16.21 3.52 7.34 16.77
  C -0.65 28.73 2.80 44.52 9.18 56.20
  Q 17.96 72.24 33.06 86.56
  Q 33.18 86.67 33.20 86.68
  Q 33.31 86.70 33.42 86.70
  Z"
/>
<path fill="#8e58a1" d="
  M 33.52 2.47
  Q 33.58 2.47 34.75 2.55
  Q 50.84 3.56 59.67 16.84
  C 67.63 28.82 64.14 44.60 57.73 56.26
  Q 48.91 72.28 33.77 86.56
  Q 33.65 86.67 33.63 86.68
  Q 33.52 86.70 33.42 86.70
  Q 33.31 86.70 33.20 86.68
  Q 33.18 86.67 33.06 86.56
  Q 17.96 72.24 9.18 56.20
  C 2.80 44.52 -0.65 28.73 7.34 16.77
  Q 16.21 3.52 32.30 2.54
  Q 33.47 2.47 33.52 2.47
  Z
  M 51.22 34.07
  A 18.25 18.25 0.0 0 0 32.97 15.82
  A 18.25 18.25 0.0 0 0 14.72 34.07
  A 18.25 18.25 0.0 0 0 32.97 52.32
  A 18.25 18.25 0.0 0 0 51.22 34.07
  Z"
/>
<path fill="#ffffff" d="
  M 51.22 34.07
  A 18.25 18.25 0.0 0 1 32.97 52.32
  A 18.25 18.25 0.0 0 1 14.72 34.07
  A 18.25 18.25 0.0 0 1 32.97 15.82
  A 18.25 18.25 0.0 0 1 51.22 34.07
  Z
  M 49.40 33.98
  A 16.43 16.43 0.0 0 0 32.97 17.55
  A 16.43 16.43 0.0 0 0 16.54 33.98
  A 16.43 16.43 0.0 0 0 32.97 50.41
  A 16.43 16.43 0.0 0 0 49.40 33.98
  Z"
/>
<path fill="#8e58a1" d="
  M 49.40 33.98
  A 16.43 16.43 0.0 0 1 32.97 50.41
  A 16.43 16.43 0.0 0 1 16.54 33.98
  A 16.43 16.43 0.0 0 1 32.97 17.55
  A 16.43 16.43 0.0 0 1 49.40 33.98
  Z
  M 46.54 34.04
  A 13.55 13.55 0.0 0 0 32.99 20.49
  A 13.55 13.55 0.0 0 0 19.44 34.04
  A 13.55 13.55 0.0 0 0 32.99 47.59
  A 13.55 13.55 0.0 0 0 46.54 34.04
  Z"
/>
<path fill="#ffffff" d="
  M 46.54 34.04
  A 13.55 13.55 0.0 0 1 32.99 47.59
  A 13.55 13.55 0.0 0 1 19.44 34.04
  A 13.55 13.55 0.0 0 1 32.99 20.49
  A 13.55 13.55 0.0 0 1 46.54 34.04
  Z
  M 32.98 29.65
  Q 33.09 29.65 33.20 29.61
  Q 33.42 29.54 33.44 29.50
  Q 35.74 25.61 40.33 25.76
  A 0.33 0.33 0.0 0 0 40.58 25.19
  Q 37.70 22.30 32.98 22.30
  Q 28.27 22.29 25.38 25.18
  A 0.33 0.33 0.0 0 0 25.63 25.75
  Q 30.22 25.61 32.51 29.50
  Q 32.53 29.54 32.75 29.61
  Q 32.87 29.65 32.98 29.65
  Z
  M 21.47 36.39
  A 0.30 0.30 0.0 0 0 21.98 36.54
  Q 24.75 33.48 28.49 33.85
  A 0.70 0.69 17.1 0 0 29.16 33.50
  L 30.20 31.71
  A 2.18 2.18 0.0 0 0 29.26 28.66
  C 22.97 25.61 20.45 31.16 21.47 36.39
  Z
  M 44.47 36.40
  C 45.52 31.18 43.03 25.62 36.73 28.64
  A 2.18 2.18 0.0 0 0 35.77 31.68
  L 36.80 33.48
  A 0.70 0.69 -16.9 0 0 37.47 33.83
  Q 41.21 33.48 43.96 36.55
  A 0.30 0.29 -60.8 0 0 44.47 36.40
  Z
  M 33.00 33.71
  Q 33.24 33.71 34.34 33.87
  A 0.40 0.40 0.0 0 0 34.74 33.28
  Q 33.71 31.53 32.93 31.55
  Q 32.14 31.58 31.23 33.40
  A 0.40 0.40 0.0 0 0 31.67 33.96
  Q 32.76 33.72 33.00 33.71
  Z
  M 26.52 42.46
  Q 26.89 40.91 28.43 39.41
  A 1.33 1.32 67.9 0 0 28.83 38.46
  L 28.83 36.35
  A 0.61 0.61 0.0 0 0 28.25 35.74
  Q 24.56 35.57 22.89 38.72
  A 1.62 1.61 -53.7 0 0 23.17 40.62
  L 25.34 42.79
  A 0.71 0.70 29.0 0 0 26.52 42.46
  Z
  M 31.02 37.85
  L 35.08 37.71
  A 0.40 0.40 0.0 0 0 35.47 37.30
  L 35.46 37.15
  A 1.70 1.43 -1.9 0 0 33.72 35.78
  L 32.26 35.82
  A 1.70 1.43 -1.9 0 0 30.61 37.31
  L 30.61 37.46
  A 0.40 0.40 0.0 0 0 31.02 37.85
  Z
  M 39.46 42.45
  A 0.70 0.69 -29.1 0 0 40.64 42.77
  L 42.80 40.61
  A 1.62 1.61 53.6 0 0 43.07 38.71
  Q 41.40 35.57 37.72 35.75
  A 0.61 0.61 0.0 0 0 37.15 36.36
  L 37.15 38.46
  A 1.33 1.32 -68.0 0 0 37.55 39.41
  Q 39.09 40.90 39.46 42.45
  Z
  M 34.31 39.54
  L 31.67 39.56
  A 0.30 0.30 0.0 0 0 31.37 39.86
  L 31.37 40.04
  A 1.92 1.48 89.5 0 0 32.87 41.95
  L 33.15 41.95
  A 1.92 1.48 89.5 0 0 34.61 40.02
  L 34.61 39.84
  A 0.30 0.30 0.0 0 0 34.31 39.54
  Z
  M 32.98 45.75
  Q 34.98 45.75 37.41 44.79
  A 0.85 0.84 77.2 0 0 37.95 43.93
  Q 37.84 42.70 36.95 41.55
  A 0.49 0.49 0.0 0 0 36.16 41.56
  Q 34.58 43.85 32.98 43.85
  Q 31.39 43.85 29.81 41.56
  A 0.49 0.49 0.0 0 0 29.02 41.54
  Q 28.13 42.69 28.02 43.92
  A 0.85 0.84 -77.1 0 0 28.55 44.78
  Q 30.98 45.74 32.98 45.75
  Z"
/>
<path fill="#8e58a1" d="
  M 32.98 22.30
  Q 37.70 22.30 40.58 25.19
  A 0.33 0.33 0.0 0 1 40.33 25.76
  Q 35.74 25.61 33.44 29.50
  Q 33.42 29.54 33.20 29.61
  Q 33.09 29.65 32.98 29.65
  Q 32.87 29.65 32.75 29.61
  Q 32.53 29.54 32.51 29.50
  Q 30.22 25.61 25.63 25.75
  A 0.33 0.33 0.0 0 1 25.38 25.18
  Q 28.27 22.29 32.98 22.30
  Z"
/>
<path fill="#8e58a1" d="
  M 21.47 36.39
  C 20.45 31.16 22.97 25.61 29.26 28.66
  A 2.18 2.18 0.0 0 1 30.20 31.71
  L 29.16 33.50
  A 0.70 0.69 17.1 0 1 28.49 33.85
  Q 24.75 33.48 21.98 36.54
  A 0.30 0.30 0.0 0 1 21.47 36.39
  Z"
/>
<path fill="#8e58a1" d="
  M 44.47 36.40
  A 0.30 0.29 -60.8 0 1 43.96 36.55
  Q 41.21 33.48 37.47 33.83
  A 0.70 0.69 -16.9 0 1 36.80 33.48
  L 35.77 31.68
  A 2.18 2.18 0.0 0 1 36.73 28.64
  C 43.03 25.62 45.52 31.18 44.47 36.40
  Z"
/>
<path fill="#8e58a1" d="
  M 32.93 31.55
  Q 33.71 31.53 34.74 33.28
  A 0.40 0.40 0.0 0 1 34.34 33.87
  Q 33.24 33.71 33.00 33.71
  Q 32.76 33.72 31.67 33.96
  A 0.40 0.40 0.0 0 1 31.23 33.40
  Q 32.14 31.58 32.93 31.55
  Z"
/>
<path fill="#8e58a1" d="
  M 26.52 42.46
  A 0.71 0.70 29.0 0 1 25.34 42.79
  L 23.17 40.62
  A 1.62 1.61 -53.7 0 1 22.89 38.72
  Q 24.56 35.57 28.25 35.74
  A 0.61 0.61 0.0 0 1 28.83 36.35
  L 28.83 38.46
  A 1.33 1.32 67.9 0 1 28.43 39.41
  Q 26.89 40.91 26.52 42.46
  Z"
/>
<path fill="#8e58a1" d="
  M 31.02 37.85
  A 0.40 0.40 0.0 0 1 30.61 37.46
  L 30.61 37.31
  A 1.70 1.43 -1.9 0 1 32.26 35.82
  L 33.72 35.78
  A 1.70 1.43 -1.9 0 1 35.46 37.15
  L 35.47 37.30
  A 0.40 0.40 0.0 0 1 35.08 37.71
  L 31.02 37.85
  Z"
/>
<path fill="#8e58a1" d="
  M 39.46 42.45
  Q 39.09 40.90 37.55 39.41
  A 1.33 1.32 -68.0 0 1 37.15 38.46
  L 37.15 36.36
  A 0.61 0.61 0.0 0 1 37.72 35.75
  Q 41.40 35.57 43.07 38.71
  A 1.62 1.61 53.6 0 1 42.80 40.61
  L 40.64 42.77
  A 0.70 0.69 -29.1 0 1 39.46 42.45
  Z"
/>
<path fill="#8e58a1" d="
  M 34.31 39.54
  A 0.30 0.30 0.0 0 1 34.61 39.84
  L 34.61 40.02
  A 1.92 1.48 89.5 0 1 33.15 41.95
  L 32.87 41.95
  A 1.92 1.48 89.5 0 1 31.37 40.04
  L 31.37 39.86
  A 0.30 0.30 0.0 0 1 31.67 39.56
  L 34.31 39.54
  Z"
/>
<path fill="#8e58a1" d="
  M 32.98 43.85
  Q 34.58 43.85 36.16 41.56
  A 0.49 0.49 0.0 0 1 36.95 41.55
  Q 37.84 42.70 37.95 43.93
  A 0.85 0.84 77.2 0 1 37.41 44.79
  Q 34.98 45.75 32.98 45.75
  Q 30.98 45.74 28.55 44.78
  A 0.85 0.84 -77.1 0 1 28.02 43.92
  Q 28.13 42.69 29.02 41.54
  A 0.49 0.49 0.0 0 1 29.81 41.56
  Q 31.39 43.85 32.98 43.85
  Z"
/>
</svg>
