<?xml version="1.0" encoding="UTF-8" standalone="no"?>
<!DOCTYPE svg PUBLIC "-//W3C//DTD SVG 1.1//EN" "http://www.w3.org/Graphics/SVG/1.1/DTD/svg11.dtd">
<svg xmlns="http://www.w3.org/2000/svg" version="1.1" viewBox="0.00 0.00 66.00 88.00">
<g stroke-width="2.00" fill="none" stroke-linecap="butt">
<path stroke="#171b29" vector-effect="non-scaling-stroke" d="
  M 33.36 86.53
  Q 33.49 86.53 33.65 86.39
  Q 45.29 75.40 53.26 63.48
  C 58.48 55.67 62.78 46.60 63.80 37.19
  Q 64.76 28.44 62.00 21.76
  C 57.25 10.25 46.17 2.56 33.49 2.54
  C 20.81 2.52 9.71 10.18 4.93 21.66
  Q 2.14 28.34 3.08 37.09
  C 4.07 46.51 8.34 55.59 13.53 63.42
  Q 21.46 75.36 33.07 86.39
  Q 33.23 86.53 33.36 86.53"
/>
<path stroke="#8e9099" vector-effect="non-scaling-stroke" d="
  M 33.29 52.15
  Q 33.38 52.15 33.46 52.10
  C 39.89 48.45 45.83 42.26 47.02 34.75
  C 48.43 25.85 43.22 15.80 33.28 15.80
  C 23.34 15.80 18.14 25.86 19.55 34.76
  C 20.75 42.27 26.70 48.45 33.13 52.10
  Q 33.21 52.15 33.29 52.15"
/>
<path stroke="#8e9099" vector-effect="non-scaling-stroke" d="
  M 24.2720 24.8197
  A 4.68 1.90 -135.5 0 0 26.2783 29.4552
  A 4.68 1.90 -135.5 0 0 30.9480 31.3803
  A 4.68 1.90 -135.5 0 0 28.9417 26.7448
  A 4.68 1.90 -135.5 0 0 24.2720 24.8197"
/>
<path stroke="#8e9099" vector-effect="non-scaling-stroke" d="
  M 42.3780 24.8016
  A 4.70 1.90 -44.4 0 0 37.6906 26.7325
  A 4.70 1.90 -44.4 0 0 35.6620 31.3784
  A 4.70 1.90 -44.4 0 0 40.3494 29.4475
  A 4.70 1.90 -44.4 0 0 42.3780 24.8016"
/>
<path stroke="#8e9099" vector-effect="non-scaling-stroke" d="
  M 22.5476 31.4972
  A 4.76 1.95 -139.0 0 0 24.8607 36.0917
  A 4.76 1.95 -139.0 0 0 29.7324 37.7428
  A 4.76 1.95 -139.0 0 0 27.4193 33.1483
  A 4.76 1.95 -139.0 0 0 22.5476 31.4972"
/>
<path stroke="#8e9099" vector-effect="non-scaling-stroke" d="
  M 44.0833 31.5097
  A 4.76 1.96 -40.8 0 0 39.1993 33.1363
  A 4.76 1.96 -40.8 0 0 36.8767 37.7303
  A 4.76 1.96 -40.8 0 0 41.7607 36.1037
  A 4.76 1.96 -40.8 0 0 44.0833 31.5097"
/>
<path stroke="#8e9099" vector-effect="non-scaling-stroke" d="
  M 24.2546 39.7694
  A 4.40 1.80 -140.3 0 0 26.4902 43.9649
  A 4.40 1.80 -140.3 0 0 31.0254 45.3906
  A 4.40 1.80 -140.3 0 0 28.7898 41.1951
  A 4.40 1.80 -140.3 0 0 24.2546 39.7694"
/>
<path stroke="#8e9099" vector-effect="non-scaling-stroke" d="
  M 42.3620 39.7903
  A 4.37 1.81 -39.5 0 0 37.8387 41.1734
  A 4.37 1.81 -39.5 0 0 35.6180 45.3497
  A 4.37 1.81 -39.5 0 0 40.1413 43.9666
  A 4.37 1.81 -39.5 0 0 42.3620 39.7903"
/>
</g>
<path fill="#11141f" d="
  M 33.79 88.00
  L 33.04 88.00
  C 21.72 77.71 12.19 65.74 5.68 51.55
  Q 2.13 43.81 1.57 34.89
  C 0.56 18.86 11.16 5.76 26.65 2.06
  C 37.39 -0.51 49.53 3.33 57.14 11.63
  C 69.76 25.40 66.44 43.72 57.56 58.85
  Q 47.98 75.16 33.79 88.00
  Z
  M 33.36 86.53
  Q 33.49 86.53 33.65 86.39
  Q 45.29 75.40 53.26 63.48
  C 58.48 55.67 62.78 46.60 63.80 37.19
  Q 64.76 28.44 62.00 21.76
  C 57.25 10.25 46.17 2.56 33.49 2.54
  C 20.81 2.52 9.71 10.18 4.93 21.66
  Q 2.14 28.34 3.08 37.09
  C 4.07 46.51 8.34 55.59 13.53 63.42
  Q 21.46 75.36 33.07 86.39
  Q 33.23 86.53 33.36 86.53
  Z"
/>
<path fill="#1c2133" d="
  M 33.49 2.54
  C 46.17 2.56 57.25 10.25 62.00 21.76
  Q 64.76 28.44 63.80 37.19
  C 62.78 46.60 58.48 55.67 53.26 63.48
  Q 45.29 75.40 33.65 86.39
  Q 33.49 86.53 33.36 86.53
  Q 33.23 86.53 33.07 86.39
  Q 21.46 75.36 13.53 63.42
  C 8.34 55.59 4.07 46.51 3.08 37.09
  Q 2.14 28.34 4.93 21.66
  C 9.71 10.18 20.81 2.52 33.49 2.54
  Z
  M 33.29 52.15
  Q 33.38 52.15 33.46 52.10
  C 39.89 48.45 45.83 42.26 47.02 34.75
  C 48.43 25.85 43.22 15.80 33.28 15.80
  C 23.34 15.80 18.14 25.86 19.55 34.76
  C 20.75 42.27 26.70 48.45 33.13 52.10
  Q 33.21 52.15 33.29 52.15
  Z"
/>
<path fill="#ffffff" d="
  M 33.28 15.80
  C 43.22 15.80 48.43 25.85 47.02 34.75
  C 45.83 42.26 39.89 48.45 33.46 52.10
  Q 33.38 52.15 33.29 52.15
  Q 33.21 52.15 33.13 52.10
  C 26.70 48.45 20.75 42.27 19.55 34.76
  C 18.14 25.86 23.34 15.80 33.28 15.80
  Z
  M 24.2720 24.8197
  A 4.68 1.90 -135.5 0 0 26.2783 29.4552
  A 4.68 1.90 -135.5 0 0 30.9480 31.3803
  A 4.68 1.90 -135.5 0 0 28.9417 26.7448
  A 4.68 1.90 -135.5 0 0 24.2720 24.8197
  Z
  M 42.3780 24.8016
  A 4.70 1.90 -44.4 0 0 37.6906 26.7325
  A 4.70 1.90 -44.4 0 0 35.6620 31.3784
  A 4.70 1.90 -44.4 0 0 40.3494 29.4475
  A 4.70 1.90 -44.4 0 0 42.3780 24.8016
  Z
  M 22.5476 31.4972
  A 4.76 1.95 -139.0 0 0 24.8607 36.0917
  A 4.76 1.95 -139.0 0 0 29.7324 37.7428
  A 4.76 1.95 -139.0 0 0 27.4193 33.1483
  A 4.76 1.95 -139.0 0 0 22.5476 31.4972
  Z
  M 44.0833 31.5097
  A 4.76 1.96 -40.8 0 0 39.1993 33.1363
  A 4.76 1.96 -40.8 0 0 36.8767 37.7303
  A 4.76 1.96 -40.8 0 0 41.7607 36.1037
  A 4.76 1.96 -40.8 0 0 44.0833 31.5097
  Z
  M 24.2546 39.7694
  A 4.40 1.80 -140.3 0 0 26.4902 43.9649
  A 4.40 1.80 -140.3 0 0 31.0254 45.3906
  A 4.40 1.80 -140.3 0 0 28.7898 41.1951
  A 4.40 1.80 -140.3 0 0 24.2546 39.7694
  Z
  M 42.3620 39.7903
  A 4.37 1.81 -39.5 0 0 37.8387 41.1734
  A 4.37 1.81 -39.5 0 0 35.6180 45.3497
  A 4.37 1.81 -39.5 0 0 40.1413 43.9666
  A 4.37 1.81 -39.5 0 0 42.3620 39.7903
  Z"
/>
<ellipse fill="#1c2133" cx="0.00" cy="0.00" transform="translate(27.61,28.10) rotate(-135.5)" rx="4.68" ry="1.90"/>
<ellipse fill="#1c2133" cx="0.00" cy="0.00" transform="translate(39.02,28.09) rotate(-44.4)" rx="4.70" ry="1.90"/>
<ellipse fill="#1c2133" cx="0.00" cy="0.00" transform="translate(26.14,34.62) rotate(-139.0)" rx="4.76" ry="1.95"/>
<ellipse fill="#1c2133" cx="0.00" cy="0.00" transform="translate(40.48,34.62) rotate(-40.8)" rx="4.76" ry="1.96"/>
<ellipse fill="#1c2133" cx="0.00" cy="0.00" transform="translate(27.64,42.58) rotate(-140.3)" rx="4.40" ry="1.80"/>
<ellipse fill="#1c2133" cx="0.00" cy="0.00" transform="translate(38.99,42.57) rotate(-39.5)" rx="4.37" ry="1.81"/>
</svg>
