<?xml version="1.0" encoding="UTF-8" standalone="no"?>
<!DOCTYPE svg PUBLIC "-//W3C//DTD SVG 1.1//EN" "http://www.w3.org/Graphics/SVG/1.1/DTD/svg11.dtd">
<svg xmlns="http://www.w3.org/2000/svg" version="1.1" viewBox="0.00 0.00 66.00 88.00">
<g stroke-width="2.00" fill="none" stroke-linecap="butt">
<path stroke="#802436" vector-effect="non-scaling-stroke" d="
  M 33.43 86.69
  Q 33.53 86.69 33.63 86.67
  Q 33.70 86.66 33.79 86.57
  C 47.69 73.39 64.06 53.50 64.27 33.19
  C 64.45 15.89 50.56 2.94 33.75 2.47
  Q 33.63 2.46 33.50 2.46
  Q 33.38 2.46 33.26 2.46
  C 16.45 2.91 2.53 15.83 2.68 33.13
  C 2.85 53.44 19.19 73.36 33.06 86.57
  Q 33.15 86.66 33.23 86.67
  Q 33.32 86.69 33.43 86.69"
/>
<path stroke="#d498a4" vector-effect="non-scaling-stroke" d="
  M 32.96 27.49
  Q 36.65 27.50 38.38 28.54
  A 0.35 0.35 0.0 0 0 38.92 28.24
  Q 38.90 26.13 39.59 25.02
  A 1.37 1.35 -36.5 0 0 39.75 24.00
  Q 38.84 20.35 37.51 17.71
  A 0.27 0.27 0.0 0 0 37.00 17.89
  Q 37.47 19.88 37.95 22.04
  Q 38.59 24.95 36.11 25.57
  A 0.31 0.31 0.0 0 1 35.76 25.12
  L 36.26 24.16
  A 1.58 1.55 -36.9 0 0 36.42 23.11
  L 35.16 16.60
  A 0.40 0.39 -5.2 0 0 34.77 16.28
  L 34.27 16.28
  A 0.25 0.24 -6.5 0 0 34.03 16.58
  C 34.50 18.71 35.27 22.10 34.37 23.87
  Q 33.82 24.95 32.97 24.95
  Q 32.13 24.94 31.58 23.86
  C 30.69 22.08 31.49 18.70 31.98 16.57
  A 0.25 0.24 7.0 0 0 31.74 16.27
  L 31.24 16.27
  A 0.40 0.39 5.7 0 0 30.85 16.58
  L 29.54 23.08
  A 1.58 1.55 37.4 0 0 29.69 24.14
  L 30.18 25.10
  A 0.31 0.31 0.0 0 1 29.83 25.55
  Q 27.35 24.91 28.01 22.00
  Q 28.51 19.85 29.00 17.86
  A 0.27 0.27 0.0 0 0 28.49 17.68
  Q 27.14 20.31 26.20 23.95
  A 1.37 1.35 36.9 0 0 26.35 24.97
  Q 27.03 26.09 27.00 28.19
  A 0.35 0.35 0.0 0 0 27.53 28.50
  Q 29.27 27.47 32.96 27.49"
/>
<path stroke="#d498a4" vector-effect="non-scaling-stroke" d="
  M 18.29 30.38
  Q 20.71 30.09 23.42 30.74
  A 1.40 1.40 0.0 0 0 24.57 28.25
  Q 21.89 26.32 17.99 26.60
  A 0.63 0.61 -5.7 0 0 17.41 27.29
  L 17.73 29.94
  A 0.51 0.50 -6.3 0 0 18.29 30.38"
/>
<path stroke="#d498a4" vector-effect="non-scaling-stroke" d="
  M 47.68 30.39
  A 0.51 0.50 6.6 0 0 48.24 29.96
  L 48.57 27.31
  A 0.63 0.61 5.9 0 0 47.99 26.62
  Q 44.10 26.32 41.41 28.24
  A 1.40 1.39 20.5 0 0 42.55 30.73
  Q 45.26 30.09 47.68 30.39"
/>
<path stroke="#d498a4" vector-effect="non-scaling-stroke" d="
  M 32.98 41.35
  C 33.66 41.35 34.97 41.91 36.95 42.55
  A 0.73 0.73 0.0 0 0 37.85 42.15
  Q 39.93 37.38 38.88 32.07
  A 1.03 1.01 4.7 0 0 38.23 31.31
  Q 35.29 30.24 33.00 30.23
  Q 30.70 30.23 27.76 31.30
  A 1.03 1.01 -4.5 0 0 27.11 32.05
  Q 26.04 37.36 28.11 42.13
  A 0.73 0.73 0.0 0 0 29.00 42.54
  C 30.99 41.90 32.29 41.35 32.98 41.35"
/>
<path stroke="#d498a4" vector-effect="non-scaling-stroke" d="
  M 24.77 41.60
  L 23.84 33.96
  A 0.59 0.57 -87.3 0 0 23.40 33.46
  Q 18.79 32.36 15.40 34.00
  A 1.08 1.08 0.0 0 0 14.86 35.36
  Q 17.21 41.44 24.44 41.95
  A 0.32 0.31 88.4 0 0 24.77 41.60"
/>
<path stroke="#d498a4" vector-effect="non-scaling-stroke" d="
  M 41.22 41.60
  A 0.32 0.31 -88.6 0 0 41.55 41.95
  Q 48.77 41.43 51.10 35.35
  A 1.08 1.08 0.0 0 0 50.56 33.99
  Q 47.17 32.36 42.57 33.47
  A 0.59 0.57 87.2 0 0 42.13 33.97
  L 41.22 41.60"
/>
<path stroke="#d498a4" vector-effect="non-scaling-stroke" d="
  M 17.81 44.30
  L 17.35 46.51
  A 0.84 0.84 0.0 0 0 18.00 47.51
  L 23.59 48.66
  A 1.97 1.97 0.0 0 0 25.92 47.13
  A 1.97 1.97 0.0 0 0 24.39 44.81
  L 18.80 43.65
  A 0.84 0.84 0.0 0 0 17.81 44.30"
/>
<path stroke="#d498a4" vector-effect="non-scaling-stroke" d="
  M 46.73 43.54
  Q 44.09 44.81 41.09 44.69
  A 0.78 0.77 -88.6 0 0 40.28 45.47
  L 40.28 47.68
  A 0.61 0.60 -85.6 0 0 40.79 48.28
  Q 44.90 48.97 48.60 47.01
  A 0.65 0.65 0.0 0 0 48.86 46.11
  L 47.52 43.78
  A 0.61 0.60 -27.9 0 0 46.73 43.54"
/>
<path stroke="#d498a4" vector-effect="non-scaling-stroke" d="
  M 32.97 52.12
  Q 33.33 52.12 34.19 51.42
  Q 37.05 49.13 37.50 46.02
  A 0.62 0.62 0.0 0 0 37.06 45.34
  C 35.64 44.93 33.97 44.36 33.01 44.35
  C 32.05 44.35 30.38 44.90 28.95 45.31
  A 0.62 0.62 0.0 0 0 28.51 45.98
  Q 28.93 49.09 31.76 51.41
  Q 32.62 52.12 32.97 52.12"
/>
</g>
<path fill="#581723" d="
  M 33.79 88.00
  L 33.04 88.00
  C 21.78 77.77 12.08 65.65 5.64 51.57
  Q 2.21 44.06 1.60 34.89
  C 0.53 18.95 11.25 5.65 26.52 2.08
  C 37.36 -0.46 49.51 3.24 57.21 11.69
  C 79.42 36.10 52.31 71.23 33.79 88.00
  Z
  M 33.43 86.69
  Q 33.53 86.69 33.63 86.67
  Q 33.70 86.66 33.79 86.57
  C 47.69 73.39 64.06 53.50 64.27 33.19
  C 64.45 15.89 50.56 2.94 33.75 2.47
  Q 33.63 2.46 33.50 2.46
  Q 33.38 2.46 33.26 2.46
  C 16.45 2.91 2.53 15.83 2.68 33.13
  C 2.85 53.44 19.19 73.36 33.06 86.57
  Q 33.15 86.66 33.23 86.67
  Q 33.32 86.69 33.43 86.69
  Z"
/>
<path fill="#a83148" d="
  M 33.50 2.46
  Q 33.63 2.46 33.75 2.47
  C 50.56 2.94 64.45 15.89 64.27 33.19
  C 64.06 53.50 47.69 73.39 33.79 86.57
  Q 33.70 86.66 33.63 86.67
  Q 33.53 86.69 33.43 86.69
  Q 33.32 86.69 33.23 86.67
  Q 33.15 86.66 33.06 86.57
  C 19.19 73.36 2.85 53.44 2.68 33.13
  C 2.53 15.83 16.45 2.91 33.26 2.46
  Q 33.38 2.46 33.50 2.46
  Z
  M 32.96 27.49
  Q 36.65 27.50 38.38 28.54
  A 0.35 0.35 0.0 0 0 38.92 28.24
  Q 38.90 26.13 39.59 25.02
  A 1.37 1.35 -36.5 0 0 39.75 24.00
  Q 38.84 20.35 37.51 17.71
  A 0.27 0.27 0.0 0 0 37.00 17.89
  Q 37.47 19.88 37.95 22.04
  Q 38.59 24.95 36.11 25.57
  A 0.31 0.31 0.0 0 1 35.76 25.12
  L 36.26 24.16
  A 1.58 1.55 -36.9 0 0 36.42 23.11
  L 35.16 16.60
  A 0.40 0.39 -5.2 0 0 34.77 16.28
  L 34.27 16.28
  A 0.25 0.24 -6.5 0 0 34.03 16.58
  C 34.50 18.71 35.27 22.10 34.37 23.87
  Q 33.82 24.95 32.97 24.95
  Q 32.13 24.94 31.58 23.86
  C 30.69 22.08 31.49 18.70 31.98 16.57
  A 0.25 0.24 7.0 0 0 31.74 16.27
  L 31.24 16.27
  A 0.40 0.39 5.7 0 0 30.85 16.58
  L 29.54 23.08
  A 1.58 1.55 37.4 0 0 29.69 24.14
  L 30.18 25.10
  A 0.31 0.31 0.0 0 1 29.83 25.55
  Q 27.35 24.91 28.01 22.00
  Q 28.51 19.85 29.00 17.86
  A 0.27 0.27 0.0 0 0 28.49 17.68
  Q 27.14 20.31 26.20 23.95
  A 1.37 1.35 36.9 0 0 26.35 24.97
  Q 27.03 26.09 27.00 28.19
  A 0.35 0.35 0.0 0 0 27.53 28.50
  Q 29.27 27.47 32.96 27.49
  Z
  M 18.29 30.38
  Q 20.71 30.09 23.42 30.74
  A 1.40 1.40 0.0 0 0 24.57 28.25
  Q 21.89 26.32 17.99 26.60
  A 0.63 0.61 -5.7 0 0 17.41 27.29
  L 17.73 29.94
  A 0.51 0.50 -6.3 0 0 18.29 30.38
  Z
  M 47.68 30.39
  A 0.51 0.50 6.6 0 0 48.24 29.96
  L 48.57 27.31
  A 0.63 0.61 5.9 0 0 47.99 26.62
  Q 44.10 26.32 41.41 28.24
  A 1.40 1.39 20.5 0 0 42.55 30.73
  Q 45.26 30.09 47.68 30.39
  Z
  M 32.98 41.35
  C 33.66 41.35 34.97 41.91 36.95 42.55
  A 0.73 0.73 0.0 0 0 37.85 42.15
  Q 39.93 37.38 38.88 32.07
  A 1.03 1.01 4.7 0 0 38.23 31.31
  Q 35.29 30.24 33.00 30.23
  Q 30.70 30.23 27.76 31.30
  A 1.03 1.01 -4.5 0 0 27.11 32.05
  Q 26.04 37.36 28.11 42.13
  A 0.73 0.73 0.0 0 0 29.00 42.54
  C 30.99 41.90 32.29 41.35 32.98 41.35
  Z
  M 24.77 41.60
  L 23.84 33.96
  A 0.59 0.57 -87.3 0 0 23.40 33.46
  Q 18.79 32.36 15.40 34.00
  A 1.08 1.08 0.0 0 0 14.86 35.36
  Q 17.21 41.44 24.44 41.95
  A 0.32 0.31 88.4 0 0 24.77 41.60
  Z
  M 41.22 41.60
  A 0.32 0.31 -88.6 0 0 41.55 41.95
  Q 48.77 41.43 51.10 35.35
  A 1.08 1.08 0.0 0 0 50.56 33.99
  Q 47.17 32.36 42.57 33.47
  A 0.59 0.57 87.2 0 0 42.13 33.97
  L 41.22 41.60
  Z
  M 17.81 44.30
  L 17.35 46.51
  A 0.84 0.84 0.0 0 0 18.00 47.51
  L 23.59 48.66
  A 1.97 1.97 0.0 0 0 25.92 47.13
  A 1.97 1.97 0.0 0 0 24.39 44.81
  L 18.80 43.65
  A 0.84 0.84 0.0 0 0 17.81 44.30
  Z
  M 46.73 43.54
  Q 44.09 44.81 41.09 44.69
  A 0.78 0.77 -88.6 0 0 40.28 45.47
  L 40.28 47.68
  A 0.61 0.60 -85.6 0 0 40.79 48.28
  Q 44.90 48.97 48.60 47.01
  A 0.65 0.65 0.0 0 0 48.86 46.11
  L 47.52 43.78
  A 0.61 0.60 -27.9 0 0 46.73 43.54
  Z
  M 32.97 52.12
  Q 33.33 52.12 34.19 51.42
  Q 37.05 49.13 37.50 46.02
  A 0.62 0.62 0.0 0 0 37.06 45.34
  C 35.64 44.93 33.97 44.36 33.01 44.35
  C 32.05 44.35 30.38 44.90 28.95 45.31
  A 0.62 0.62 0.0 0 0 28.51 45.98
  Q 28.93 49.09 31.76 51.41
  Q 32.62 52.12 32.97 52.12
  Z"
/>
<path fill="#ffffff" d="
  M 32.97 24.95
  Q 33.82 24.95 34.37 23.87
  C 35.27 22.10 34.50 18.71 34.03 16.58
  A 0.25 0.24 -6.5 0 1 34.27 16.28
  L 34.77 16.28
  A 0.40 0.39 -5.2 0 1 35.16 16.60
  L 36.42 23.11
  A 1.58 1.55 -36.9 0 1 36.26 24.16
  L 35.76 25.12
  A 0.31 0.31 0.0 0 0 36.11 25.57
  Q 38.59 24.95 37.95 22.04
  Q 37.47 19.88 37.00 17.89
  A 0.27 0.27 0.0 0 1 37.51 17.71
  Q 38.84 20.35 39.75 24.00
  A 1.37 1.35 -36.5 0 1 39.59 25.02
  Q 38.90 26.13 38.92 28.24
  A 0.35 0.35 0.0 0 1 38.38 28.54
  Q 36.65 27.50 32.96 27.49
  Q 29.27 27.47 27.53 28.50
  A 0.35 0.35 0.0 0 1 27.00 28.19
  Q 27.03 26.09 26.35 24.97
  A 1.37 1.35 36.9 0 1 26.20 23.95
  Q 27.14 20.31 28.49 17.68
  A 0.27 0.27 0.0 0 1 29.00 17.86
  Q 28.51 19.85 28.01 22.00
  Q 27.35 24.91 29.83 25.55
  A 0.31 0.31 0.0 0 0 30.18 25.10
  L 29.69 24.14
  A 1.58 1.55 37.4 0 1 29.54 23.08
  L 30.85 16.58
  A 0.40 0.39 5.7 0 1 31.24 16.27
  L 31.74 16.27
  A 0.25 0.24 7.0 0 1 31.98 16.57
  C 31.49 18.70 30.69 22.08 31.58 23.86
  Q 32.13 24.94 32.97 24.95
  Z"
/>
<path fill="#ffffff" d="
  M 18.29 30.38
  A 0.51 0.50 -6.3 0 1 17.73 29.94
  L 17.41 27.29
  A 0.63 0.61 -5.7 0 1 17.99 26.60
  Q 21.89 26.32 24.57 28.25
  A 1.40 1.40 0.0 0 1 23.42 30.74
  Q 20.71 30.09 18.29 30.38
  Z"
/>
<path fill="#ffffff" d="
  M 47.68 30.39
  Q 45.26 30.09 42.55 30.73
  A 1.40 1.39 20.5 0 1 41.41 28.24
  Q 44.10 26.32 47.99 26.62
  A 0.63 0.61 5.9 0 1 48.57 27.31
  L 48.24 29.96
  A 0.51 0.50 6.6 0 1 47.68 30.39
  Z"
/>
<path fill="#ffffff" d="
  M 33.00 30.23
  Q 35.29 30.24 38.23 31.31
  A 1.03 1.01 4.7 0 1 38.88 32.07
  Q 39.93 37.38 37.85 42.15
  A 0.73 0.73 0.0 0 1 36.95 42.55
  C 34.97 41.91 33.66 41.35 32.98 41.35
  C 32.29 41.35 30.99 41.90 29.00 42.54
  A 0.73 0.73 0.0 0 1 28.11 42.13
  Q 26.04 37.36 27.11 32.05
  A 1.03 1.01 -4.5 0 1 27.76 31.30
  Q 30.70 30.23 33.00 30.23
  Z"
/>
<path fill="#ffffff" d="
  M 24.44 41.95
  Q 17.21 41.44 14.86 35.36
  A 1.08 1.08 0.0 0 1 15.40 34.00
  Q 18.79 32.36 23.40 33.46
  A 0.59 0.57 -87.3 0 1 23.84 33.96
  L 24.77 41.60
  A 0.32 0.31 88.4 0 1 24.44 41.95
  Z"
/>
<path fill="#ffffff" d="
  M 41.22 41.60
  L 42.13 33.97
  A 0.59 0.57 87.2 0 1 42.57 33.47
  Q 47.17 32.36 50.56 33.99
  A 1.08 1.08 0.0 0 1 51.10 35.35
  Q 48.77 41.43 41.55 41.95
  A 0.32 0.31 -88.6 0 1 41.22 41.60
  Z"
/>
<path fill="#ffffff" d="
  M 17.81 44.30
  A 0.84 0.84 0.0 0 1 18.80 43.65
  L 24.39 44.81
  A 1.97 1.97 0.0 0 1 25.92 47.13
  A 1.97 1.97 0.0 0 1 23.59 48.66
  L 18.00 47.51
  A 0.84 0.84 0.0 0 1 17.35 46.51
  L 17.81 44.30
  Z"
/>
<path fill="#ffffff" d="
  M 46.73 43.54
  A 0.61 0.60 -27.9 0 1 47.52 43.78
  L 48.86 46.11
  A 0.65 0.65 0.0 0 1 48.60 47.01
  Q 44.90 48.97 40.79 48.28
  A 0.61 0.60 -85.6 0 1 40.28 47.68
  L 40.28 45.47
  A 0.78 0.77 -88.6 0 1 41.09 44.69
  Q 44.09 44.81 46.73 43.54
  Z"
/>
<path fill="#ffffff" d="
  M 33.01 44.35
  C 33.97 44.36 35.64 44.93 37.06 45.34
  A 0.62 0.62 0.0 0 1 37.50 46.02
  Q 37.05 49.13 34.19 51.42
  Q 33.33 52.12 32.97 52.12
  Q 32.62 52.12 31.76 51.41
  Q 28.93 49.09 28.51 45.98
  A 0.62 0.62 0.0 0 1 28.95 45.31
  C 30.38 44.90 32.05 44.35 33.01 44.35
  Z"
/>
</svg>
