<?xml version="1.0" encoding="UTF-8" standalone="no"?>
<!DOCTYPE svg PUBLIC "-//W3C//DTD SVG 1.1//EN" "http://www.w3.org/Graphics/SVG/1.1/DTD/svg11.dtd">
<svg xmlns="http://www.w3.org/2000/svg" version="1.1" viewBox="0.00 0.00 66.00 88.00">
<g stroke-width="2.00" fill="none" stroke-linecap="butt">
<path stroke="#b67862" vector-effect="non-scaling-stroke" d="
  M 33.36 86.74
  Q 33.48 86.74 33.62 86.61
  Q 47.48 73.77 56.59 58.33
  C 64.07 45.64 68.32 28.43 58.78 15.49
  C 52.82 7.41 43.85 2.48 33.56 2.46
  C 23.28 2.43 14.28 7.32 8.28 15.37
  C -1.32 28.26 2.85 45.49 10.27 58.22
  Q 19.30 73.70 33.10 86.61
  Q 33.24 86.74 33.36 86.74"
/>
<path stroke="#f8d0c2" vector-effect="non-scaling-stroke" d="
  M 46.15 44.81
  A 0.26 0.26 0.0 0 1 45.79 44.45
  L 46.98 42.40
  A 0.26 0.26 0.0 0 0 46.62 42.05
  L 42.96 44.16
  A 0.26 0.26 0.0 0 1 42.70 44.16
  L 37.45 41.13
  A 0.26 0.26 0.0 0 1 37.35 40.77
  L 41.65 33.35
  A 0.26 0.26 0.0 0 0 41.63 33.05
  L 29.04 17.69
  A 0.26 0.26 0.0 0 0 28.71 17.63
  L 14.96 25.56
  A 0.26 0.26 0.0 0 0 14.92 25.98
  L 26.58 36.93
  A 0.26 0.26 0.0 0 0 26.94 36.92
  L 33.84 30.02
  A 0.26 0.26 0.0 0 1 34.22 30.04
  L 36.97 33.38
  A 0.26 0.26 0.0 0 1 36.99 33.68
  L 32.08 42.17
  A 0.26 0.26 0.0 0 0 32.18 42.53
  L 46.27 50.67
  A 0.26 0.26 0.0 0 0 46.63 50.57
  L 51.38 42.35
  A 0.26 0.26 0.0 0 0 51.02 41.99
  L 46.15 44.81"
/>
<path stroke="#f8d0c2" vector-effect="non-scaling-stroke" d="
  M 26.35 31.49
  A 0.51 0.51 0.0 0 0 27.06 31.48
  L 31.12 27.42
  A 0.80 0.80 0.0 0 0 31.17 26.34
  L 28.40 22.95
  A 0.72 0.71 55.1 0 0 27.49 22.78
  L 21.34 26.33
  A 0.27 0.26 -38.5 0 0 21.29 26.75
  L 26.35 31.49"
/>
</g>
<path fill="#7c4f40" d="
  M 33.81 88.00
  L 32.99 88.00
  C 22.12 78.05 12.10 65.72 5.90 52.11
  Q 2.19 43.93 1.56 35.09
  C 0.12 14.62 18.50 -1.68 38.88 1.78
  C 48.86 3.48 57.37 9.62 62.02 18.53
  C 74.63 42.70 50.52 72.77 33.81 88.00
  Z
  M 33.36 86.74
  Q 33.48 86.74 33.62 86.61
  Q 47.48 73.77 56.59 58.33
  C 64.07 45.64 68.32 28.43 58.78 15.49
  C 52.82 7.41 43.85 2.48 33.56 2.46
  C 23.28 2.43 14.28 7.32 8.28 15.37
  C -1.32 28.26 2.85 45.49 10.27 58.22
  Q 19.30 73.70 33.10 86.61
  Q 33.24 86.74 33.36 86.74
  Z"
/>
<path fill="#f0a084" d="
  M 33.56 2.46
  C 43.85 2.48 52.82 7.41 58.78 15.49
  C 68.32 28.43 64.07 45.64 56.59 58.33
  Q 47.48 73.77 33.62 86.61
  Q 33.48 86.74 33.36 86.74
  Q 33.24 86.74 33.10 86.61
  Q 19.30 73.70 10.27 58.22
  C 2.85 45.49 -1.32 28.26 8.28 15.37
  C 14.28 7.32 23.28 2.43 33.56 2.46
  Z
  M 46.15 44.81
  A 0.26 0.26 0.0 0 1 45.79 44.45
  L 46.98 42.40
  A 0.26 0.26 0.0 0 0 46.62 42.05
  L 42.96 44.16
  A 0.26 0.26 0.0 0 1 42.70 44.16
  L 37.45 41.13
  A 0.26 0.26 0.0 0 1 37.35 40.77
  L 41.65 33.35
  A 0.26 0.26 0.0 0 0 41.63 33.05
  L 29.04 17.69
  A 0.26 0.26 0.0 0 0 28.71 17.63
  L 14.96 25.56
  A 0.26 0.26 0.0 0 0 14.92 25.98
  L 26.58 36.93
  A 0.26 0.26 0.0 0 0 26.94 36.92
  L 33.84 30.02
  A 0.26 0.26 0.0 0 1 34.22 30.04
  L 36.97 33.38
  A 0.26 0.26 0.0 0 1 36.99 33.68
  L 32.08 42.17
  A 0.26 0.26 0.0 0 0 32.18 42.53
  L 46.27 50.67
  A 0.26 0.26 0.0 0 0 46.63 50.57
  L 51.38 42.35
  A 0.26 0.26 0.0 0 0 51.02 41.99
  L 46.15 44.81
  Z"
/>
<path fill="#ffffff" d="
  M 46.15 44.81
  L 51.02 41.99
  A 0.26 0.26 0.0 0 1 51.38 42.35
  L 46.63 50.57
  A 0.26 0.26 0.0 0 1 46.27 50.67
  L 32.18 42.53
  A 0.26 0.26 0.0 0 1 32.08 42.17
  L 36.99 33.68
  A 0.26 0.26 0.0 0 0 36.97 33.38
  L 34.22 30.04
  A 0.26 0.26 0.0 0 0 33.84 30.02
  L 26.94 36.92
  A 0.26 0.26 0.0 0 1 26.58 36.93
  L 14.92 25.98
  A 0.26 0.26 0.0 0 1 14.96 25.56
  L 28.71 17.63
  A 0.26 0.26 0.0 0 1 29.04 17.69
  L 41.63 33.05
  A 0.26 0.26 0.0 0 1 41.65 33.35
  L 37.35 40.77
  A 0.26 0.26 0.0 0 0 37.45 41.13
  L 42.70 44.16
  A 0.26 0.26 0.0 0 0 42.96 44.16
  L 46.62 42.05
  A 0.26 0.26 0.0 0 1 46.98 42.40
  L 45.79 44.45
  A 0.26 0.26 0.0 0 0 46.15 44.81
  Z
  M 26.35 31.49
  A 0.51 0.51 0.0 0 0 27.06 31.48
  L 31.12 27.42
  A 0.80 0.80 0.0 0 0 31.17 26.34
  L 28.40 22.95
  A 0.72 0.71 55.1 0 0 27.49 22.78
  L 21.34 26.33
  A 0.27 0.26 -38.5 0 0 21.29 26.75
  L 26.35 31.49
  Z"
/>
<path fill="#f0a084" d="
  M 26.35 31.49
  L 21.29 26.75
  A 0.27 0.26 -38.5 0 1 21.34 26.33
  L 27.49 22.78
  A 0.72 0.71 55.1 0 1 28.40 22.95
  L 31.17 26.34
  A 0.80 0.80 0.0 0 1 31.12 27.42
  L 27.06 31.48
  A 0.51 0.51 0.0 0 1 26.35 31.49
  Z"
/>
</svg>
