<?xml version="1.0" encoding="UTF-8" standalone="no"?>
<!DOCTYPE svg PUBLIC "-//W3C//DTD SVG 1.1//EN" "http://www.w3.org/Graphics/SVG/1.1/DTD/svg11.dtd">
<svg xmlns="http://www.w3.org/2000/svg" version="1.1" viewBox="0.00 0.00 66.00 88.00">
<g stroke-width="2.00" fill="none" stroke-linecap="butt">
<path stroke="#395b67" vector-effect="non-scaling-stroke" d="
  M 33.40 86.69
  Q 33.51 86.69 33.61 86.67
  Q 33.67 86.66 33.77 86.57
  Q 47.42 73.85 56.38 58.65
  Q 62.54 48.17 63.83 38.48
  Q 64.81 31.03 63.66 26.51
  Q 59.55 10.41 44.49 4.54
  Q 39.19 2.47 33.53 2.47
  Q 27.86 2.46 22.56 4.51
  Q 7.48 10.33 3.32 26.42
  Q 2.16 30.94 3.12 38.39
  Q 4.38 48.09 10.51 58.58
  Q 19.42 73.81 33.04 86.57
  Q 33.14 86.66 33.20 86.67
  Q 33.30 86.69 33.40 86.69"
/>
<path stroke="#a6bbc3" vector-effect="non-scaling-stroke" d="
  M 24.69 32.47
  L 29.95 16.35
  A 0.38 0.38 0.0 0 0 29.61 15.85
  L 25.56 15.66
  A 0.48 0.48 0.0 0 0 25.05 16.12
  L 24.29 32.39
  A 0.21 0.20 55.9 0 0 24.69 32.47"
/>
<path stroke="#a6bbc3" vector-effect="non-scaling-stroke" d="
  M 32.61 25.81
  L 40.24 16.14
  A 0.18 0.18 0.0 0 0 40.11 15.85
  L 36.18 15.67
  A 0.84 0.83 -79.4 0 0 35.35 16.25
  L 32.28 25.64
  A 0.19 0.19 0.0 0 0 32.61 25.81"
/>
<path stroke="#a6bbc3" vector-effect="non-scaling-stroke" d="
  M 30.45 37.04
  Q 30.60 37.18 50.94 20.98
  A 1.19 1.18 70.6 0 0 51.39 20.03
  L 51.35 16.04
  A 0.16 0.06 37.5 0 0 51.29 15.94
  Q 51.27 15.92 51.25 15.90
  Q 51.23 15.88 51.20 15.86
  A 0.16 0.06 51.6 0 0 51.11 15.80
  L 47.12 15.83
  A 1.19 1.18 18.5 0 0 46.17 16.29
  Q 30.30 36.89 30.45 37.04"
/>
<path stroke="#a6bbc3" vector-effect="non-scaling-stroke" d="
  M 19.46 29.70
  A 0.12 0.11 43.2 0 0 19.66 29.70
  L 21.90 25.82
  A 1.51 1.51 0.0 0 0 19.40 24.14
  L 17.57 26.47
  A 0.39 0.38 -43.0 0 0 17.55 26.94
  L 19.46 29.70"
/>
<path stroke="#a6bbc3" vector-effect="non-scaling-stroke" d="
  M 34.43 39.25
  Q 39.16 36.70 50.89 29.46
  A 0.81 0.79 76.0 0 0 51.27 28.81
  L 51.39 26.26
  A 0.41 0.40 72.2 0 0 50.74 25.92
  L 34.24 38.96
  A 0.17 0.17 0.0 0 0 34.43 39.25"
/>
<path stroke="#a6bbc3" vector-effect="non-scaling-stroke" d="
  M 29.07 29.04
  L 26.45 33.58
  A 1.04 1.04 0.0 0 0 28.00 34.91
  L 30.93 32.59
  A 0.99 0.98 53.8 0 0 31.13 31.25
  L 29.59 29.01
  A 0.31 0.31 0.0 0 0 29.07 29.04"
/>
<path stroke="#a6bbc3" vector-effect="non-scaling-stroke" d="
  M 35.84 42.46
  L 50.69 37.90
  A 0.71 0.71 0.0 0 0 51.19 37.25
  L 51.45 31.72
  A 0.26 0.26 0.0 0 0 51.04 31.49
  L 35.67 42.11
  A 0.20 0.20 0.0 0 0 35.84 42.46"
/>
<path stroke="#a6bbc3" vector-effect="non-scaling-stroke" d="
  M 30.83 45.06
  A 1.12 1.11 -73.5 0 0 29.82 45.61
  L 29.16 46.76
  A 0.51 0.51 0.0 0 1 28.32 46.82
  L 27.15 45.34
  A 0.85 0.85 0.0 0 0 26.24 45.06
  L 23.43 45.92
  A 0.58 0.58 0.0 0 1 22.68 45.38
  C 22.60 42.02 22.97 41.09 24.00 38.86
  A 0.42 0.41 13.5 0 0 23.64 38.28
  L 21.66 38.19
  A 0.58 0.58 0.0 0 1 21.11 37.58
  L 21.25 34.47
  A 0.55 0.55 0.0 0 0 20.47 33.94
  C 9.24 39.21 15.92 55.97 27.75 51.45
  Q 31.77 49.91 33.24 45.93
  A 0.58 0.58 0.0 0 0 32.72 45.15
  L 30.83 45.06"
/>
<path stroke="#a6bbc3" vector-effect="non-scaling-stroke" d="
  M 37.86 46.69
  L 40.64 48.88
  A 1.45 1.45 0.0 0 0 42.98 47.81
  L 43.08 45.68
  A 0.55 0.55 0.0 0 0 42.44 45.10
  L 38.07 45.85
  A 0.48 0.47 59.2 0 0 37.86 46.69"
/>
</g>
<path fill="#243e46" d="
  M 33.81 88.00
  L 33.04 88.00
  C 21.94 77.91 11.93 65.51 5.64 51.57
  Q 2.23 44.00 1.60 34.89
  C 0.50 19.02 11.26 5.61 26.48 2.12
  C 40.99 -1.21 55.71 5.85 62.46 19.45
  C 67.04 28.68 65.93 40.27 62.13 49.57
  C 56.13 64.27 45.47 77.35 33.81 88.00
  Z
  M 33.40 86.69
  Q 33.51 86.69 33.61 86.67
  Q 33.67 86.66 33.77 86.57
  Q 47.42 73.85 56.38 58.65
  Q 62.54 48.17 63.83 38.48
  Q 64.81 31.03 63.66 26.51
  Q 59.55 10.41 44.49 4.54
  Q 39.19 2.47 33.53 2.47
  Q 27.86 2.46 22.56 4.51
  Q 7.48 10.33 3.32 26.42
  Q 2.16 30.94 3.12 38.39
  Q 4.38 48.09 10.51 58.58
  Q 19.42 73.81 33.04 86.57
  Q 33.14 86.66 33.20 86.67
  Q 33.30 86.69 33.40 86.69
  Z"
/>
<path fill="#4d7787" d="
  M 33.53 2.47
  Q 39.19 2.47 44.49 4.54
  Q 59.55 10.41 63.66 26.51
  Q 64.81 31.03 63.83 38.48
  Q 62.54 48.17 56.38 58.65
  Q 47.42 73.85 33.77 86.57
  Q 33.67 86.66 33.61 86.67
  Q 33.51 86.69 33.40 86.69
  Q 33.30 86.69 33.20 86.67
  Q 33.14 86.66 33.04 86.57
  Q 19.42 73.81 10.51 58.58
  Q 4.38 48.09 3.12 38.39
  Q 2.16 30.94 3.32 26.42
  Q 7.48 10.33 22.56 4.51
  Q 27.86 2.46 33.53 2.47
  Z
  M 24.69 32.47
  L 29.95 16.35
  A 0.38 0.38 0.0 0 0 29.61 15.85
  L 25.56 15.66
  A 0.48 0.48 0.0 0 0 25.05 16.12
  L 24.29 32.39
  A 0.21 0.20 55.9 0 0 24.69 32.47
  Z
  M 32.61 25.81
  L 40.24 16.14
  A 0.18 0.18 0.0 0 0 40.11 15.85
  L 36.18 15.67
  A 0.84 0.83 -79.4 0 0 35.35 16.25
  L 32.28 25.64
  A 0.19 0.19 0.0 0 0 32.61 25.81
  Z
  M 30.45 37.04
  Q 30.60 37.18 50.94 20.98
  A 1.19 1.18 70.6 0 0 51.39 20.03
  L 51.35 16.04
  A 0.16 0.06 37.5 0 0 51.29 15.94
  Q 51.27 15.92 51.25 15.90
  Q 51.23 15.88 51.20 15.86
  A 0.16 0.06 51.6 0 0 51.11 15.80
  L 47.12 15.83
  A 1.19 1.18 18.5 0 0 46.17 16.29
  Q 30.30 36.89 30.45 37.04
  Z
  M 19.46 29.70
  A 0.12 0.11 43.2 0 0 19.66 29.70
  L 21.90 25.82
  A 1.51 1.51 0.0 0 0 19.40 24.14
  L 17.57 26.47
  A 0.39 0.38 -43.0 0 0 17.55 26.94
  L 19.46 29.70
  Z
  M 34.43 39.25
  Q 39.16 36.70 50.89 29.46
  A 0.81 0.79 76.0 0 0 51.27 28.81
  L 51.39 26.26
  A 0.41 0.40 72.2 0 0 50.74 25.92
  L 34.24 38.96
  A 0.17 0.17 0.0 0 0 34.43 39.25
  Z
  M 29.07 29.04
  L 26.45 33.58
  A 1.04 1.04 0.0 0 0 28.00 34.91
  L 30.93 32.59
  A 0.99 0.98 53.8 0 0 31.13 31.25
  L 29.59 29.01
  A 0.31 0.31 0.0 0 0 29.07 29.04
  Z
  M 35.84 42.46
  L 50.69 37.90
  A 0.71 0.71 0.0 0 0 51.19 37.25
  L 51.45 31.72
  A 0.26 0.26 0.0 0 0 51.04 31.49
  L 35.67 42.11
  A 0.20 0.20 0.0 0 0 35.84 42.46
  Z
  M 30.83 45.06
  A 1.12 1.11 -73.5 0 0 29.82 45.61
  L 29.16 46.76
  A 0.51 0.51 0.0 0 1 28.32 46.82
  L 27.15 45.34
  A 0.85 0.85 0.0 0 0 26.24 45.06
  L 23.43 45.92
  A 0.58 0.58 0.0 0 1 22.68 45.38
  C 22.60 42.02 22.97 41.09 24.00 38.86
  A 0.42 0.41 13.5 0 0 23.64 38.28
  L 21.66 38.19
  A 0.58 0.58 0.0 0 1 21.11 37.58
  L 21.25 34.47
  A 0.55 0.55 0.0 0 0 20.47 33.94
  C 9.24 39.21 15.92 55.97 27.75 51.45
  Q 31.77 49.91 33.24 45.93
  A 0.58 0.58 0.0 0 0 32.72 45.15
  L 30.83 45.06
  Z
  M 37.86 46.69
  L 40.64 48.88
  A 1.45 1.45 0.0 0 0 42.98 47.81
  L 43.08 45.68
  A 0.55 0.55 0.0 0 0 42.44 45.10
  L 38.07 45.85
  A 0.48 0.47 59.2 0 0 37.86 46.69
  Z"
/>
<path fill="#ffffff" d="
  M 24.29 32.39
  L 25.05 16.12
  A 0.48 0.48 0.0 0 1 25.56 15.66
  L 29.61 15.85
  A 0.38 0.38 0.0 0 1 29.95 16.35
  L 24.69 32.47
  A 0.21 0.20 55.9 0 1 24.29 32.39
  Z"
/>
<path fill="#ffffff" d="
  M 32.61 25.81
  A 0.19 0.19 0.0 0 1 32.28 25.64
  L 35.35 16.25
  A 0.84 0.83 -79.4 0 1 36.18 15.67
  L 40.11 15.85
  A 0.18 0.18 0.0 0 1 40.24 16.14
  L 32.61 25.81
  Z"
/>
<path fill="#ffffff" d="
  M 51.25 15.90
  Q 51.27 15.92 51.29 15.94
  A 0.16 0.06 37.5 0 1 51.35 16.04
  L 51.39 20.03
  A 1.19 1.18 70.6 0 1 50.94 20.98
  Q 30.60 37.18 30.45 37.04
  Q 30.30 36.89 46.17 16.29
  A 1.19 1.18 18.5 0 1 47.12 15.83
  L 51.11 15.80
  A 0.16 0.06 51.6 0 1 51.20 15.86
  Q 51.23 15.88 51.25 15.90
  Z"
/>
<path fill="#ffffff" d="
  M 17.57 26.47
  L 19.40 24.14
  A 1.51 1.51 0.0 0 1 21.90 25.82
  L 19.66 29.70
  A 0.12 0.11 43.2 0 1 19.46 29.70
  L 17.55 26.94
  A 0.39 0.38 -43.0 0 1 17.57 26.47
  Z"
/>
<path fill="#ffffff" d="
  M 34.24 38.96
  L 50.74 25.92
  A 0.41 0.40 72.2 0 1 51.39 26.26
  L 51.27 28.81
  A 0.81 0.79 76.0 0 1 50.89 29.46
  Q 39.16 36.70 34.43 39.25
  A 0.17 0.17 0.0 0 1 34.24 38.96
  Z"
/>
<path fill="#ffffff" d="
  M 29.07 29.04
  A 0.31 0.31 0.0 0 1 29.59 29.01
  L 31.13 31.25
  A 0.99 0.98 53.8 0 1 30.93 32.59
  L 28.00 34.91
  A 1.04 1.04 0.0 0 1 26.45 33.58
  L 29.07 29.04
  Z"
/>
<path fill="#ffffff" d="
  M 35.67 42.11
  L 51.04 31.49
  A 0.26 0.26 0.0 0 1 51.45 31.72
  L 51.19 37.25
  A 0.71 0.71 0.0 0 1 50.69 37.90
  L 35.84 42.46
  A 0.20 0.20 0.0 0 1 35.67 42.11
  Z"
/>
<path fill="#ffffff" d="
  M 33.24 45.93
  Q 31.77 49.91 27.75 51.45
  C 15.92 55.97 9.24 39.21 20.47 33.94
  A 0.55 0.55 0.0 0 1 21.25 34.47
  L 21.11 37.58
  A 0.58 0.58 0.0 0 0 21.66 38.19
  L 23.64 38.28
  A 0.42 0.41 13.5 0 1 24.00 38.86
  C 22.97 41.09 22.60 42.02 22.68 45.38
  A 0.58 0.58 0.0 0 0 23.43 45.92
  L 26.24 45.06
  A 0.85 0.85 0.0 0 1 27.15 45.34
  L 28.32 46.82
  A 0.51 0.51 0.0 0 0 29.16 46.76
  L 29.82 45.61
  A 1.12 1.11 -73.5 0 1 30.83 45.06
  L 32.72 45.15
  A 0.58 0.58 0.0 0 1 33.24 45.93
  Z"
/>
<path fill="#ffffff" d="
  M 38.07 45.85
  L 42.44 45.10
  A 0.55 0.55 0.0 0 1 43.08 45.68
  L 42.98 47.81
  A 1.45 1.45 0.0 0 1 40.64 48.88
  L 37.86 46.69
  A 0.48 0.47 59.2 0 1 38.07 45.85
  Z"
/>
</svg>
