<?xml version="1.0" encoding="UTF-8" standalone="no"?>
<!DOCTYPE svg PUBLIC "-//W3C//DTD SVG 1.1//EN" "http://www.w3.org/Graphics/SVG/1.1/DTD/svg11.dtd">
<svg xmlns="http://www.w3.org/2000/svg" version="1.1" viewBox="0.00 0.00 66.00 88.00">
<g stroke-width="2.00" fill="none" stroke-linecap="butt">
<path stroke="#802436" vector-effect="non-scaling-stroke" d="
  M 33.42 86.69
  Q 33.53 86.69 33.62 86.67
  Q 33.71 86.65 33.79 86.57
  Q 47.34 74.05 56.47 58.47
  C 64.09 45.47 68.39 28.66 58.61 15.37
  Q 49.62 3.14 34.00 2.48
  Q 33.72 2.47 33.51 2.47
  Q 33.30 2.47 33.03 2.48
  Q 17.41 3.10 8.39 15.31
  C -1.42 28.58 2.84 45.40 10.43 58.42
  Q 19.53 74.02 33.05 86.57
  Q 33.13 86.65 33.22 86.67
  Q 33.31 86.69 33.42 86.69"
/>
<path stroke="#d498a4" vector-effect="non-scaling-stroke" d="
  M 51.23 34.05
  A 18.26 18.26 0.0 0 0 32.97 15.79
  A 18.26 18.26 0.0 0 0 14.71 34.05
  A 18.26 18.26 0.0 0 0 32.97 52.31
  A 18.26 18.26 0.0 0 0 51.23 34.05"
/>
<path stroke="#d498a4" vector-effect="non-scaling-stroke" d="
  M 27.2134 21.9651
  A 8.24 4.31 -64.3 0 0 19.7564 27.5209
  A 8.24 4.31 -64.3 0 0 20.0666 36.8149
  A 8.24 4.31 -64.3 0 0 27.5236 31.2591
  A 8.24 4.31 -64.3 0 0 27.2134 21.9651"
/>
<path stroke="#d498a4" vector-effect="non-scaling-stroke" d="
  M 39.2839 21.9579
  A 8.23 4.32 -115.6 0 0 38.9441 31.2466
  A 8.23 4.32 -115.6 0 0 46.3961 36.8021
  A 8.23 4.32 -115.6 0 0 46.7359 27.5134
  A 8.23 4.32 -115.6 0 0 39.2839 21.9579"
/>
<path stroke="#d498a4" vector-effect="non-scaling-stroke" d="
  M 32.99 47.01
  Q 36.01 47.01 38.72 45.49
  A 0.46 0.46 0.0 0 0 38.67 44.67
  Q 35.04 43.10 33.28 39.76
  Q 33.18 39.57 33.00 39.57
  Q 32.81 39.57 32.71 39.76
  Q 30.95 43.10 27.31 44.66
  A 0.46 0.46 0.0 0 0 27.27 45.48
  Q 29.97 47.00 32.99 47.01"
/>
</g>
<path fill="#581723" d="
  M 33.79 88.00
  L 33.04 88.00
  C 16.59 73.14 -6.65 43.68 4.28 19.97
  C 9.41 8.86 19.78 2.16 31.76 1.35
  C 40.28 0.77 49.73 4.18 55.99 10.43
  C 80.33 34.77 52.74 70.83 33.79 88.00
  Z
  M 33.42 86.69
  Q 33.53 86.69 33.62 86.67
  Q 33.71 86.65 33.79 86.57
  Q 47.34 74.05 56.47 58.47
  C 64.09 45.47 68.39 28.66 58.61 15.37
  Q 49.62 3.14 34.00 2.48
  Q 33.72 2.47 33.51 2.47
  Q 33.30 2.47 33.03 2.48
  Q 17.41 3.10 8.39 15.31
  C -1.42 28.58 2.84 45.40 10.43 58.42
  Q 19.53 74.02 33.05 86.57
  Q 33.13 86.65 33.22 86.67
  Q 33.31 86.69 33.42 86.69
  Z"
/>
<path fill="#a83148" d="
  M 33.51 2.47
  Q 33.72 2.47 34.00 2.48
  Q 49.62 3.14 58.61 15.37
  C 68.39 28.66 64.09 45.47 56.47 58.47
  Q 47.34 74.05 33.79 86.57
  Q 33.71 86.65 33.62 86.67
  Q 33.53 86.69 33.42 86.69
  Q 33.31 86.69 33.22 86.67
  Q 33.13 86.65 33.05 86.57
  Q 19.53 74.02 10.43 58.42
  C 2.84 45.40 -1.42 28.58 8.39 15.31
  Q 17.41 3.10 33.03 2.48
  Q 33.30 2.47 33.51 2.47
  Z
  M 51.23 34.05
  A 18.26 18.26 0.0 0 0 32.97 15.79
  A 18.26 18.26 0.0 0 0 14.71 34.05
  A 18.26 18.26 0.0 0 0 32.97 52.31
  A 18.26 18.26 0.0 0 0 51.23 34.05
  Z"
/>
<path fill="#ffffff" d="
  M 51.23 34.05
  A 18.26 18.26 0.0 0 1 32.97 52.31
  A 18.26 18.26 0.0 0 1 14.71 34.05
  A 18.26 18.26 0.0 0 1 32.97 15.79
  A 18.26 18.26 0.0 0 1 51.23 34.05
  Z
  M 27.2134 21.9651
  A 8.24 4.31 -64.3 0 0 19.7564 27.5209
  A 8.24 4.31 -64.3 0 0 20.0666 36.8149
  A 8.24 4.31 -64.3 0 0 27.5236 31.2591
  A 8.24 4.31 -64.3 0 0 27.2134 21.9651
  Z
  M 39.2839 21.9579
  A 8.23 4.32 -115.6 0 0 38.9441 31.2466
  A 8.23 4.32 -115.6 0 0 46.3961 36.8021
  A 8.23 4.32 -115.6 0 0 46.7359 27.5134
  A 8.23 4.32 -115.6 0 0 39.2839 21.9579
  Z
  M 32.99 47.01
  Q 36.01 47.01 38.72 45.49
  A 0.46 0.46 0.0 0 0 38.67 44.67
  Q 35.04 43.10 33.28 39.76
  Q 33.18 39.57 33.00 39.57
  Q 32.81 39.57 32.71 39.76
  Q 30.95 43.10 27.31 44.66
  A 0.46 0.46 0.0 0 0 27.27 45.48
  Q 29.97 47.00 32.99 47.01
  Z"
/>
<ellipse fill="#a83148" cx="0.00" cy="0.00" transform="translate(23.64,29.39) rotate(-64.3)" rx="8.24" ry="4.31"/>
<ellipse fill="#a83148" cx="0.00" cy="0.00" transform="translate(42.84,29.38) rotate(-115.6)" rx="8.23" ry="4.32"/>
<path fill="#a83148" d="
  M 33.00 39.57
  Q 33.18 39.57 33.28 39.76
  Q 35.04 43.10 38.67 44.67
  A 0.46 0.46 0.0 0 1 38.72 45.49
  Q 36.01 47.01 32.99 47.01
  Q 29.97 47.00 27.27 45.48
  A 0.46 0.46 0.0 0 1 27.31 44.66
  Q 30.95 43.10 32.71 39.76
  Q 32.81 39.57 33.00 39.57
  Z"
/>
</svg>
