<?xml version="1.0" encoding="UTF-8" standalone="no"?>
<!DOCTYPE svg PUBLIC "-//W3C//DTD SVG 1.1//EN" "http://www.w3.org/Graphics/SVG/1.1/DTD/svg11.dtd">
<svg xmlns="http://www.w3.org/2000/svg" version="1.1" viewBox="0.00 0.00 66.00 88.00">
<g stroke-width="2.00" fill="none" stroke-linecap="butt">
<path stroke="#b67862" vector-effect="non-scaling-stroke" d="
  M 33.37 86.74
  Q 33.40 86.74 33.43 86.74
  A 0.13 0.02 -41.4 0 0 33.51 86.69
  Q 48.35 73.08 57.64 56.41
  C 64.42 44.25 67.70 28.27 59.16 16.07
  C 53.28 7.66 44.11 2.48 33.55 2.46
  C 22.99 2.44 13.80 7.58 7.89 15.96
  C -0.70 28.12 2.51 44.12 9.24 56.31
  Q 18.45 73.02 33.24 86.69
  A 0.13 0.02 41.6 0 0 33.31 86.74
  Q 33.34 86.74 33.37 86.74"
/>
<path stroke="#f8d0c2" vector-effect="non-scaling-stroke" d="
  M 33.26 51.42
  Q 33.40 51.42 33.50 51.39
  C 43.41 49.09 50.50 42.51 50.95 31.99
  A 0.20 0.20 0.0 0 0 50.58 31.87
  Q 49.16 33.89 48.04 35.02
  Q 46.95 36.13 46.14 35.94
  A 0.70 0.70 0.0 0 1 45.69 34.92
  Q 50.89 25.38 44.74 16.38
  A 0.21 0.21 0.0 0 0 44.35 16.51
  C 44.51 18.80 44.28 24.80 42.01 26.32
  A 1.12 1.12 0.0 0 1 40.27 25.50
  Q 39.85 21.01 37.13 17.38
  A 0.27 0.26 21.8 0 0 36.66 17.58
  C 37.01 19.69 36.38 25.43 33.26 25.43
  C 30.15 25.43 29.52 19.69 29.88 17.58
  A 0.27 0.26 -21.8 0 0 29.40 17.38
  Q 26.68 21.01 26.26 25.50
  A 1.12 1.12 0.0 0 1 24.52 26.32
  C 22.25 24.79 22.02 18.79 22.18 16.50
  A 0.21 0.21 0.0 0 0 21.79 16.37
  Q 15.64 25.37 20.83 34.91
  A 0.70 0.70 0.0 0 1 20.38 35.93
  Q 19.57 36.12 18.48 35.01
  Q 17.36 33.88 15.95 31.86
  A 0.20 0.20 0.0 0 0 15.58 31.98
  C 16.02 42.50 23.11 49.08 33.01 51.39
  Q 33.12 51.42 33.26 51.42"
/>
<path stroke="#f8d0c2" vector-effect="non-scaling-stroke" d="
  M 29.1661 29.2004
  A 2.07 1.07 -129.4 0 0 29.6532 31.4792
  A 2.07 1.07 -129.4 0 0 31.7939 32.3996
  A 2.07 1.07 -129.4 0 0 31.3068 30.1208
  A 2.07 1.07 -129.4 0 0 29.1661 29.2004"
/>
<path stroke="#f8d0c2" vector-effect="non-scaling-stroke" d="
  M 37.5109 29.2493
  A 2.11 1.09 -47.3 0 0 35.2789 30.0608
  A 2.11 1.09 -47.3 0 0 34.6491 32.3507
  A 2.11 1.09 -47.3 0 0 36.8811 31.5392
  A 2.11 1.09 -47.3 0 0 37.5109 29.2493"
/>
<path stroke="#f8d0c2" vector-effect="non-scaling-stroke" d="
  M 26.6504 33.6968
  A 3.31 1.71 -128.7 0 0 27.3855 37.3492
  A 3.31 1.71 -128.7 0 0 30.7896 38.8632
  A 3.31 1.71 -128.7 0 0 30.0545 35.2108
  A 3.31 1.71 -128.7 0 0 26.6504 33.6968"
/>
<path stroke="#f8d0c2" vector-effect="non-scaling-stroke" d="
  M 39.9371 33.7379
  A 3.33 1.69 -50.3 0 0 36.5097 35.2205
  A 3.33 1.69 -50.3 0 0 35.6829 38.8621
  A 3.33 1.69 -50.3 0 0 39.1103 37.3795
  A 3.33 1.69 -50.3 0 0 39.9371 33.7379"
/>
<path stroke="#f8d0c2" vector-effect="non-scaling-stroke" d="
  M 25.00 44.59
  Q 26.96 46.99 30.23 47.00
  C 30.30 47.00 30.28 47.01 30.37 46.93
  C 30.46 46.86 30.44 46.88 30.46 46.81
  Q 31.10 43.61 29.14 41.21
  Q 27.17 38.81 23.91 38.80
  C 23.83 38.80 23.86 38.79 23.76 38.86
  C 23.67 38.94 23.69 38.92 23.68 38.99
  Q 23.04 42.19 25.00 44.59"
/>
<path stroke="#f8d0c2" vector-effect="non-scaling-stroke" d="
  M 42.5826 39.1050
  A 4.93 2.59 -50.7 0 0 37.4558 41.2795
  A 4.93 2.59 -50.7 0 0 36.3374 46.7350
  A 4.93 2.59 -50.7 0 0 41.4642 44.5605
  A 4.93 2.59 -50.7 0 0 42.5826 39.1050"
/>
</g>
<path fill="#7c4f40" d="
  M 33.80 88.00
  L 32.98 88.00
  C 16.69 73.04 -6.48 44.13 4.16 20.22
  Q 8.07 11.44 16.46 6.16
  C 24.78 0.92 35.92 -0.27 45.23 3.55
  Q 61.10 10.06 64.95 26.80
  Q 65.57 29.52 65.36 35.43
  Q 65.21 39.55 63.95 44.00
  C 59.22 60.75 46.47 76.49 33.80 88.00
  Z
  M 33.37 86.74
  Q 33.40 86.74 33.43 86.74
  A 0.13 0.02 -41.4 0 0 33.51 86.69
  Q 48.35 73.08 57.64 56.41
  C 64.42 44.25 67.70 28.27 59.16 16.07
  C 53.28 7.66 44.11 2.48 33.55 2.46
  C 22.99 2.44 13.80 7.58 7.89 15.96
  C -0.70 28.12 2.51 44.12 9.24 56.31
  Q 18.45 73.02 33.24 86.69
  A 0.13 0.02 41.6 0 0 33.31 86.74
  Q 33.34 86.74 33.37 86.74
  Z"
/>
<path fill="#f0a084" d="
  M 33.55 2.46
  C 44.11 2.48 53.28 7.66 59.16 16.07
  C 67.70 28.27 64.42 44.25 57.64 56.41
  Q 48.35 73.08 33.51 86.69
  A 0.13 0.02 -41.4 0 1 33.43 86.74
  Q 33.40 86.74 33.37 86.74
  Q 33.34 86.74 33.31 86.74
  A 0.13 0.02 41.6 0 1 33.24 86.69
  Q 18.45 73.02 9.24 56.31
  C 2.51 44.12 -0.70 28.12 7.89 15.96
  C 13.80 7.58 22.99 2.44 33.55 2.46
  Z
  M 33.26 51.42
  Q 33.40 51.42 33.50 51.39
  C 43.41 49.09 50.50 42.51 50.95 31.99
  A 0.20 0.20 0.0 0 0 50.58 31.87
  Q 49.16 33.89 48.04 35.02
  Q 46.95 36.13 46.14 35.94
  A 0.70 0.70 0.0 0 1 45.69 34.92
  Q 50.89 25.38 44.74 16.38
  A 0.21 0.21 0.0 0 0 44.35 16.51
  C 44.51 18.80 44.28 24.80 42.01 26.32
  A 1.12 1.12 0.0 0 1 40.27 25.50
  Q 39.85 21.01 37.13 17.38
  A 0.27 0.26 21.8 0 0 36.66 17.58
  C 37.01 19.69 36.38 25.43 33.26 25.43
  C 30.15 25.43 29.52 19.69 29.88 17.58
  A 0.27 0.26 -21.8 0 0 29.40 17.38
  Q 26.68 21.01 26.26 25.50
  A 1.12 1.12 0.0 0 1 24.52 26.32
  C 22.25 24.79 22.02 18.79 22.18 16.50
  A 0.21 0.21 0.0 0 0 21.79 16.37
  Q 15.64 25.37 20.83 34.91
  A 0.70 0.70 0.0 0 1 20.38 35.93
  Q 19.57 36.12 18.48 35.01
  Q 17.36 33.88 15.95 31.86
  A 0.20 0.20 0.0 0 0 15.58 31.98
  C 16.02 42.50 23.11 49.08 33.01 51.39
  Q 33.12 51.42 33.26 51.42
  Z"
/>
<path fill="#ffffff" d="
  M 33.26 25.43
  C 36.38 25.43 37.01 19.69 36.66 17.58
  A 0.27 0.26 21.8 0 1 37.13 17.38
  Q 39.85 21.01 40.27 25.50
  A 1.12 1.12 0.0 0 0 42.01 26.32
  C 44.28 24.80 44.51 18.80 44.35 16.51
  A 0.21 0.21 0.0 0 1 44.74 16.38
  Q 50.89 25.38 45.69 34.92
  A 0.70 0.70 0.0 0 0 46.14 35.94
  Q 46.95 36.13 48.04 35.02
  Q 49.16 33.89 50.58 31.87
  A 0.20 0.20 0.0 0 1 50.95 31.99
  C 50.50 42.51 43.41 49.09 33.50 51.39
  Q 33.40 51.42 33.26 51.42
  Q 33.12 51.42 33.01 51.39
  C 23.11 49.08 16.02 42.50 15.58 31.98
  A 0.20 0.20 0.0 0 1 15.95 31.86
  Q 17.36 33.88 18.48 35.01
  Q 19.57 36.12 20.38 35.93
  A 0.70 0.70 0.0 0 0 20.83 34.91
  Q 15.64 25.37 21.79 16.37
  A 0.21 0.21 0.0 0 1 22.18 16.50
  C 22.02 18.79 22.25 24.79 24.52 26.32
  A 1.12 1.12 0.0 0 0 26.26 25.50
  Q 26.68 21.01 29.40 17.38
  A 0.27 0.26 -21.8 0 1 29.88 17.58
  C 29.52 19.69 30.15 25.43 33.26 25.43
  Z
  M 29.1661 29.2004
  A 2.07 1.07 -129.4 0 0 29.6532 31.4792
  A 2.07 1.07 -129.4 0 0 31.7939 32.3996
  A 2.07 1.07 -129.4 0 0 31.3068 30.1208
  A 2.07 1.07 -129.4 0 0 29.1661 29.2004
  Z
  M 37.5109 29.2493
  A 2.11 1.09 -47.3 0 0 35.2789 30.0608
  A 2.11 1.09 -47.3 0 0 34.6491 32.3507
  A 2.11 1.09 -47.3 0 0 36.8811 31.5392
  A 2.11 1.09 -47.3 0 0 37.5109 29.2493
  Z
  M 26.6504 33.6968
  A 3.31 1.71 -128.7 0 0 27.3855 37.3492
  A 3.31 1.71 -128.7 0 0 30.7896 38.8632
  A 3.31 1.71 -128.7 0 0 30.0545 35.2108
  A 3.31 1.71 -128.7 0 0 26.6504 33.6968
  Z
  M 39.9371 33.7379
  A 3.33 1.69 -50.3 0 0 36.5097 35.2205
  A 3.33 1.69 -50.3 0 0 35.6829 38.8621
  A 3.33 1.69 -50.3 0 0 39.1103 37.3795
  A 3.33 1.69 -50.3 0 0 39.9371 33.7379
  Z
  M 25.00 44.59
  Q 26.96 46.99 30.23 47.00
  C 30.30 47.00 30.28 47.01 30.37 46.93
  C 30.46 46.86 30.44 46.88 30.46 46.81
  Q 31.10 43.61 29.14 41.21
  Q 27.17 38.81 23.91 38.80
  C 23.83 38.80 23.86 38.79 23.76 38.86
  C 23.67 38.94 23.69 38.92 23.68 38.99
  Q 23.04 42.19 25.00 44.59
  Z
  M 42.5826 39.1050
  A 4.93 2.59 -50.7 0 0 37.4558 41.2795
  A 4.93 2.59 -50.7 0 0 36.3374 46.7350
  A 4.93 2.59 -50.7 0 0 41.4642 44.5605
  A 4.93 2.59 -50.7 0 0 42.5826 39.1050
  Z"
/>
<ellipse fill="#f0a084" cx="0.00" cy="0.00" transform="translate(30.48,30.80) rotate(-129.4)" rx="2.07" ry="1.07"/>
<ellipse fill="#f0a084" cx="0.00" cy="0.00" transform="translate(36.08,30.80) rotate(-47.3)" rx="2.11" ry="1.09"/>
<ellipse fill="#f0a084" cx="0.00" cy="0.00" transform="translate(28.72,36.28) rotate(-128.7)" rx="3.31" ry="1.71"/>
<ellipse fill="#f0a084" cx="0.00" cy="0.00" transform="translate(37.81,36.30) rotate(-50.3)" rx="3.33" ry="1.69"/>
<path fill="#f0a084" d="
  M 23.76 38.86
  C 23.86 38.79 23.83 38.80 23.91 38.80
  Q 27.17 38.81 29.14 41.21
  Q 31.10 43.61 30.46 46.81
  C 30.44 46.88 30.46 46.86 30.37 46.93
  C 30.28 47.01 30.30 47.00 30.23 47.00
  Q 26.96 46.99 25.00 44.59
  Q 23.04 42.19 23.68 38.99
  C 23.69 38.92 23.67 38.94 23.76 38.86
  Z"
/>
<ellipse fill="#f0a084" cx="0.00" cy="0.00" transform="translate(39.46,42.92) rotate(-50.7)" rx="4.93" ry="2.59"/>
</svg>
