<?xml version="1.0" encoding="UTF-8" standalone="no"?>
<!DOCTYPE svg PUBLIC "-//W3C//DTD SVG 1.1//EN" "http://www.w3.org/Graphics/SVG/1.1/DTD/svg11.dtd">
<svg xmlns="http://www.w3.org/2000/svg" version="1.1" viewBox="0.00 0.00 66.00 88.00">
<g stroke-width="2.00" fill="none" stroke-linecap="butt">
<path stroke="#7f5666" vector-effect="non-scaling-stroke" d="
  M 33.41 86.69
  Q 33.55 86.69 33.68 86.66
  A 0.21 0.09 -50.2 0 0 33.74 86.63
  C 51.59 70.10 78.85 34.49 55.06 11.23
  C 49.42 5.73 41.69 2.47 33.52 2.46
  C 25.36 2.45 17.62 5.68 11.97 11.17
  C -11.89 34.36 15.27 70.05 33.07 86.63
  A 0.21 0.09 50.4 0 0 33.13 86.66
  Q 33.27 86.69 33.41 86.69"
/>
<path stroke="#d3b9c3" vector-effect="non-scaling-stroke" d="
  M 47.49 21.42
  A 0.32 0.32 0.0 0 0 47.22 21.26
  L 18.75 21.26
  A 0.32 0.32 0.0 0 0 18.48 21.42
  L 14.95 27.53
  A 0.32 0.32 0.0 0 0 15.22 28.01
  L 50.75 28.01
  A 0.32 0.32 0.0 0 0 51.02 27.53
  L 47.49 21.42"
/>
<path stroke="#d3b9c3" vector-effect="non-scaling-stroke" d="
  M 19.07 46.98
  A 0.37 0.37 0.0 0 0 19.43 47.25
  L 46.58 47.25
  A 0.37 0.37 0.0 0 0 46.94 46.98
  L 51.18 32.23
  A 0.37 0.37 0.0 0 0 50.83 31.76
  L 15.17 31.76
  A 0.37 0.37 0.0 0 0 14.82 32.23
  L 19.07 46.98"
/>
<path stroke="#d3b9c3" vector-effect="non-scaling-stroke" d="
  M 33.01 44.51
  Q 34.54 44.50 34.83 44.49
  A 0.56 0.55 -9.3 0 0 35.34 43.78
  L 34.59 41.19
  A 0.98 0.95 61.4 0 1 34.87 40.20
  L 35.55 39.60
  A 1.47 1.45 -16.4 0 0 36.02 38.76
  C 36.39 36.71 35.34 34.57 32.95 34.58
  C 30.57 34.59 29.55 36.75 29.94 38.80
  A 1.47 1.45 15.7 0 0 30.42 39.63
  L 31.10 40.22
  A 0.98 0.95 -62.1 0 1 31.39 41.21
  L 30.67 43.81
  A 0.56 0.55 8.7 0 0 31.19 44.51
  Q 31.48 44.52 33.01 44.51"
/>
</g>
<path fill="#563944" d="
  M 33.78 88.00
  L 33.11 88.00
  Q 16.14 72.87 6.60 53.84
  Q 3.37 47.41 2.01 39.00
  Q 0.32 28.55 4.29 19.93
  Q 8.32 11.16 16.79 5.94
  C 24.77 1.01 35.98 -0.25 45.03 3.46
  Q 61.19 10.07 64.90 26.78
  Q 66.12 32.28 64.78 40.21
  Q 63.27 49.10 57.56 58.84
  Q 47.97 75.17 33.78 88.00
  Z
  M 33.41 86.69
  Q 33.55 86.69 33.68 86.66
  A 0.21 0.09 -50.2 0 0 33.74 86.63
  C 51.59 70.10 78.85 34.49 55.06 11.23
  C 49.42 5.73 41.69 2.47 33.52 2.46
  C 25.36 2.45 17.62 5.68 11.97 11.17
  C -11.89 34.36 15.27 70.05 33.07 86.63
  A 0.21 0.09 50.4 0 0 33.13 86.66
  Q 33.27 86.69 33.41 86.69
  Z"
/>
<path fill="#a77387" d="
  M 33.52 2.46
  C 41.69 2.47 49.42 5.73 55.06 11.23
  C 78.85 34.49 51.59 70.10 33.74 86.63
  A 0.21 0.09 -50.2 0 1 33.68 86.66
  Q 33.55 86.69 33.41 86.69
  Q 33.27 86.69 33.13 86.66
  A 0.21 0.09 50.4 0 1 33.07 86.63
  C 15.27 70.05 -11.89 34.36 11.97 11.17
  C 17.62 5.68 25.36 2.45 33.52 2.46
  Z
  M 47.49 21.42
  A 0.32 0.32 0.0 0 0 47.22 21.26
  L 18.75 21.26
  A 0.32 0.32 0.0 0 0 18.48 21.42
  L 14.95 27.53
  A 0.32 0.32 0.0 0 0 15.22 28.01
  L 50.75 28.01
  A 0.32 0.32 0.0 0 0 51.02 27.53
  L 47.49 21.42
  Z
  M 19.07 46.98
  A 0.37 0.37 0.0 0 0 19.43 47.25
  L 46.58 47.25
  A 0.37 0.37 0.0 0 0 46.94 46.98
  L 51.18 32.23
  A 0.37 0.37 0.0 0 0 50.83 31.76
  L 15.17 31.76
  A 0.37 0.37 0.0 0 0 14.82 32.23
  L 19.07 46.98
  Z"
/>
<path fill="#ffffff" d="
  M 47.49 21.42
  L 51.02 27.53
  A 0.32 0.32 0.0 0 1 50.75 28.01
  L 15.22 28.01
  A 0.32 0.32 0.0 0 1 14.95 27.53
  L 18.48 21.42
  A 0.32 0.32 0.0 0 1 18.75 21.26
  L 47.22 21.26
  A 0.32 0.32 0.0 0 1 47.49 21.42
  Z"
/>
<path fill="#ffffff" d="
  M 19.07 46.98
  L 14.82 32.23
  A 0.37 0.37 0.0 0 1 15.17 31.76
  L 50.83 31.76
  A 0.37 0.37 0.0 0 1 51.18 32.23
  L 46.94 46.98
  A 0.37 0.37 0.0 0 1 46.58 47.25
  L 19.43 47.25
  A 0.37 0.37 0.0 0 1 19.07 46.98
  Z
  M 33.01 44.51
  Q 34.54 44.50 34.83 44.49
  A 0.56 0.55 -9.3 0 0 35.34 43.78
  L 34.59 41.19
  A 0.98 0.95 61.4 0 1 34.87 40.20
  L 35.55 39.60
  A 1.47 1.45 -16.4 0 0 36.02 38.76
  C 36.39 36.71 35.34 34.57 32.95 34.58
  C 30.57 34.59 29.55 36.75 29.94 38.80
  A 1.47 1.45 15.7 0 0 30.42 39.63
  L 31.10 40.22
  A 0.98 0.95 -62.1 0 1 31.39 41.21
  L 30.67 43.81
  A 0.56 0.55 8.7 0 0 31.19 44.51
  Q 31.48 44.52 33.01 44.51
  Z"
/>
<path fill="#a77387" d="
  M 32.95 34.58
  C 35.34 34.57 36.39 36.71 36.02 38.76
  A 1.47 1.45 -16.4 0 1 35.55 39.60
  L 34.87 40.20
  A 0.98 0.95 61.4 0 0 34.59 41.19
  L 35.34 43.78
  A 0.56 0.55 -9.3 0 1 34.83 44.49
  Q 34.54 44.50 33.01 44.51
  Q 31.48 44.52 31.19 44.51
  A 0.56 0.55 8.7 0 1 30.67 43.81
  L 31.39 41.21
  A 0.98 0.95 -62.1 0 0 31.10 40.22
  L 30.42 39.63
  A 1.47 1.45 15.7 0 1 29.94 38.80
  C 29.55 36.75 30.57 34.59 32.95 34.58
  Z"
/>
</svg>
