<?xml version="1.0" encoding="UTF-8" standalone="no"?>
<!DOCTYPE svg PUBLIC "-//W3C//DTD SVG 1.1//EN" "http://www.w3.org/Graphics/SVG/1.1/DTD/svg11.dtd">
<svg xmlns="http://www.w3.org/2000/svg" version="1.1" viewBox="0.00 0.00 66.00 88.00">
<g stroke-width="2.00" fill="none" stroke-linecap="butt">
<path stroke="#425a74" vector-effect="non-scaling-stroke" d="
  M 33.40 86.69
  Q 33.53 86.69 33.67 86.66
  A 0.13 0.07 2.0 0 0 33.73 86.63
  C 47.75 73.31 63.58 53.88 64.27 33.83
  C 64.87 16.32 50.80 2.90 33.75 2.48
  Q 33.64 2.48 33.54 2.48
  Q 33.44 2.48 33.33 2.48
  C 16.28 2.84 2.17 16.21 2.71 33.72
  C 3.33 53.78 19.09 73.26 33.06 86.63
  A 0.13 0.07 -1.8 0 0 33.12 86.66
  Q 33.26 86.69 33.40 86.69"
/>
<path stroke="#acbbcc" vector-effect="non-scaling-stroke" d="
  M 29.56 25.70
  Q 31.68 29.37 31.55 29.74
  A 0.43 0.43 0.0 0 1 31.03 30.03
  Q 28.85 29.51 26.84 27.82
  A 0.25 0.25 0.0 0 0 26.44 28.10
  Q 27.95 32.19 31.40 33.04
  A 0.73 0.72 14.1 0 1 31.93 33.91
  L 31.44 35.94
  A 0.68 0.68 0.0 0 1 30.77 36.46
  C 21.90 36.35 19.23 29.27 23.26 21.93
  A 0.19 0.19 0.0 0 0 22.98 21.68
  C 17.62 25.24 16.51 32.72 21.32 37.26
  Q 23.92 39.71 28.07 40.82
  A 0.67 0.65 -80.2 0 1 28.55 41.52
  C 28.16 46.00 25.89 46.90 24.32 50.15
  A 0.25 0.25 0.0 0 0 24.60 50.50
  Q 28.11 49.64 29.37 48.62
  A 0.34 0.33 73.9 0 1 29.91 48.92
  Q 29.80 49.94 30.68 51.64
  A 0.50 0.49 -36.2 0 0 31.47 51.76
  L 34.62 48.61
  A 0.61 0.60 -39.5 0 1 35.55 48.70
  L 35.90 49.20
  A 0.83 0.80 -8.4 0 0 36.38 49.54
  L 40.76 50.59
  A 0.16 0.16 0.0 0 0 40.94 50.35
  C 39.17 47.45 37.35 45.37 37.38 41.64
  A 0.68 0.67 83.2 0 1 37.88 41.00
  Q 45.96 38.82 47.83 31.39
  C 49.93 23.05 42.80 22.13 39.40 16.39
  A 0.18 0.18 0.0 0 0 39.06 16.47
  C 38.77 19.60 41.52 21.97 43.05 24.36
  A 0.28 0.28 0.0 0 1 42.73 24.78
  Q 37.56 23.19 35.57 18.00
  A 0.36 0.36 0.0 0 0 34.90 17.99
  C 33.27 21.80 40.05 26.82 39.35 32.07
  A 3.69 3.68 71.2 0 1 38.30 34.21
  L 37.24 35.27
  A 0.85 0.85 0.0 0 1 35.79 34.60
  Q 36.28 28.44 30.01 25.22
  A 0.34 0.34 0.0 0 0 29.56 25.70"
/>
</g>
<path fill="#2a3d50" d="
  M 33.78 88.00
  L 33.04 88.00
  C 22.18 78.19 12.04 65.63 5.74 51.77
  C 1.05 41.45 -0.49 28.51 5.15 18.22
  C 17.74 -4.72 50.85 -4.29 62.53 19.58
  C 66.97 28.66 65.94 39.79 62.31 49.12
  C 56.57 63.86 45.44 77.44 33.78 88.00
  Z
  M 33.40 86.69
  Q 33.53 86.69 33.67 86.66
  A 0.13 0.07 2.0 0 0 33.73 86.63
  C 47.75 73.31 63.58 53.88 64.27 33.83
  C 64.87 16.32 50.80 2.90 33.75 2.48
  Q 33.64 2.48 33.54 2.48
  Q 33.44 2.48 33.33 2.48
  C 16.28 2.84 2.17 16.21 2.71 33.72
  C 3.33 53.78 19.09 73.26 33.06 86.63
  A 0.13 0.07 -1.8 0 0 33.12 86.66
  Q 33.26 86.69 33.40 86.69
  Z"
/>
<path fill="#597698" d="
  M 33.54 2.48
  Q 33.64 2.48 33.75 2.48
  C 50.80 2.90 64.87 16.32 64.27 33.83
  C 63.58 53.88 47.75 73.31 33.73 86.63
  A 0.13 0.07 2.0 0 1 33.67 86.66
  Q 33.53 86.69 33.40 86.69
  Q 33.26 86.69 33.12 86.66
  A 0.13 0.07 -1.8 0 1 33.06 86.63
  C 19.09 73.26 3.33 53.78 2.71 33.72
  C 2.17 16.21 16.28 2.84 33.33 2.48
  Q 33.44 2.48 33.54 2.48
  Z
  M 29.56 25.70
  Q 31.68 29.37 31.55 29.74
  A 0.43 0.43 0.0 0 1 31.03 30.03
  Q 28.85 29.51 26.84 27.82
  A 0.25 0.25 0.0 0 0 26.44 28.10
  Q 27.95 32.19 31.40 33.04
  A 0.73 0.72 14.1 0 1 31.93 33.91
  L 31.44 35.94
  A 0.68 0.68 0.0 0 1 30.77 36.46
  C 21.90 36.35 19.23 29.27 23.26 21.93
  A 0.19 0.19 0.0 0 0 22.98 21.68
  C 17.62 25.24 16.51 32.72 21.32 37.26
  Q 23.92 39.71 28.07 40.82
  A 0.67 0.65 -80.2 0 1 28.55 41.52
  C 28.16 46.00 25.89 46.90 24.32 50.15
  A 0.25 0.25 0.0 0 0 24.60 50.50
  Q 28.11 49.64 29.37 48.62
  A 0.34 0.33 73.9 0 1 29.91 48.92
  Q 29.80 49.94 30.68 51.64
  A 0.50 0.49 -36.2 0 0 31.47 51.76
  L 34.62 48.61
  A 0.61 0.60 -39.5 0 1 35.55 48.70
  L 35.90 49.20
  A 0.83 0.80 -8.4 0 0 36.38 49.54
  L 40.76 50.59
  A 0.16 0.16 0.0 0 0 40.94 50.35
  C 39.17 47.45 37.35 45.37 37.38 41.64
  A 0.68 0.67 83.2 0 1 37.88 41.00
  Q 45.96 38.82 47.83 31.39
  C 49.93 23.05 42.80 22.13 39.40 16.39
  A 0.18 0.18 0.0 0 0 39.06 16.47
  C 38.77 19.60 41.52 21.97 43.05 24.36
  A 0.28 0.28 0.0 0 1 42.73 24.78
  Q 37.56 23.19 35.57 18.00
  A 0.36 0.36 0.0 0 0 34.90 17.99
  C 33.27 21.80 40.05 26.82 39.35 32.07
  A 3.69 3.68 71.2 0 1 38.30 34.21
  L 37.24 35.27
  A 0.85 0.85 0.0 0 1 35.79 34.60
  Q 36.28 28.44 30.01 25.22
  A 0.34 0.34 0.0 0 0 29.56 25.70
  Z"
/>
<path fill="#ffffff" d="
  M 30.01 25.22
  Q 36.28 28.44 35.79 34.60
  A 0.85 0.85 0.0 0 0 37.24 35.27
  L 38.30 34.21
  A 3.69 3.68 71.2 0 0 39.35 32.07
  C 40.05 26.82 33.27 21.80 34.90 17.99
  A 0.36 0.36 0.0 0 1 35.57 18.00
  Q 37.56 23.19 42.73 24.78
  A 0.28 0.28 0.0 0 0 43.05 24.36
  C 41.52 21.97 38.77 19.60 39.06 16.47
  A 0.18 0.18 0.0 0 1 39.40 16.39
  C 42.80 22.13 49.93 23.05 47.83 31.39
  Q 45.96 38.82 37.88 41.00
  A 0.68 0.67 83.2 0 0 37.38 41.64
  C 37.35 45.37 39.17 47.45 40.94 50.35
  A 0.16 0.16 0.0 0 1 40.76 50.59
  L 36.38 49.54
  A 0.83 0.80 -8.4 0 1 35.90 49.20
  L 35.55 48.70
  A 0.61 0.60 -39.5 0 0 34.62 48.61
  L 31.47 51.76
  A 0.50 0.49 -36.2 0 1 30.68 51.64
  Q 29.80 49.94 29.91 48.92
  A 0.34 0.33 73.9 0 0 29.37 48.62
  Q 28.11 49.64 24.60 50.50
  A 0.25 0.25 0.0 0 1 24.32 50.15
  C 25.89 46.90 28.16 46.00 28.55 41.52
  A 0.67 0.65 -80.2 0 0 28.07 40.82
  Q 23.92 39.71 21.32 37.26
  C 16.51 32.72 17.62 25.24 22.98 21.68
  A 0.19 0.19 0.0 0 1 23.26 21.93
  C 19.23 29.27 21.90 36.35 30.77 36.46
  A 0.68 0.68 0.0 0 0 31.44 35.94
  L 31.93 33.91
  A 0.73 0.72 14.1 0 0 31.40 33.04
  Q 27.95 32.19 26.44 28.10
  A 0.25 0.25 0.0 0 1 26.84 27.82
  Q 28.85 29.51 31.03 30.03
  A 0.43 0.43 0.0 0 0 31.55 29.74
  Q 31.68 29.37 29.56 25.70
  A 0.34 0.34 0.0 0 1 30.01 25.22
  Z"
/>
</svg>
