<?xml version="1.0" encoding="UTF-8" standalone="no"?>
<!DOCTYPE svg PUBLIC "-//W3C//DTD SVG 1.1//EN" "http://www.w3.org/Graphics/SVG/1.1/DTD/svg11.dtd">
<svg xmlns="http://www.w3.org/2000/svg" version="1.1" viewBox="0.00 0.00 66.00 88.00">
<g stroke-width="2.00" fill="none" stroke-linecap="butt">
<path stroke="#802436" vector-effect="non-scaling-stroke" d="
  M 33.42 86.69
  Q 33.55 86.69 33.63 86.67
  Q 33.71 86.65 33.79 86.58
  Q 46.09 75.14 55.01 61.00
  C 61.99 49.94 67.50 34.67 62.21 21.79
  C 57.40 10.05 46.44 2.83 33.75 2.46
  Q 33.63 2.46 33.51 2.46
  Q 33.39 2.46 33.27 2.46
  C 20.58 2.80 9.61 10.00 4.77 21.73
  C -0.54 34.60 4.94 49.88 11.89 60.96
  Q 20.78 75.11 33.06 86.58
  Q 33.14 86.65 33.22 86.67
  Q 33.30 86.69 33.42 86.69"
/>
<path stroke="#d498a4" vector-effect="non-scaling-stroke" d="
  M 23.34 16.44
  C 20.79 31.17 29.21 45.64 42.46 51.99
  A 0.49 0.49 0.0 0 0 43.15 51.65
  L 43.57 49.62
  A 1.84 1.84 0.0 0 0 43.47 48.53
  Q 41.68 44.27 42.12 39.16
  A 3.17 3.15 33.8 0 0 41.77 37.42
  Q 40.15 34.29 39.80 29.91
  A 1.06 1.05 -77.1 0 0 39.28 29.07
  Q 35.14 26.56 34.69 26.00
  Q 30.14 20.16 24.07 16.13
  A 0.47 0.47 0.0 0 0 23.34 16.44"
/>
<path stroke="#d498a4" vector-effect="non-scaling-stroke" d="
  M 30.7096 29.3547
  A 7.21 3.73 -119.5 0 0 31.0136 37.4667
  A 7.21 3.73 -119.5 0 0 37.8104 41.9053
  A 7.21 3.73 -119.5 0 0 37.5064 33.7933
  A 7.21 3.73 -119.5 0 0 30.7096 29.3547"
/>
</g>
<path fill="#581723" d="
  M 33.81 88.00
  L 33.15 88.00
  Q 15.61 72.48 6.00 52.51
  Q 2.26 44.74 1.63 35.22
  Q 1.00 25.75 5.24 18.03
  C 12.61 4.59 28.11 -1.71 43.11 2.81
  Q 51.43 5.32 57.18 11.68
  C 79.40 36.29 52.34 71.10 33.81 88.00
  Z
  M 33.42 86.69
  Q 33.55 86.69 33.63 86.67
  Q 33.71 86.65 33.79 86.58
  Q 46.09 75.14 55.01 61.00
  C 61.99 49.94 67.50 34.67 62.21 21.79
  C 57.40 10.05 46.44 2.83 33.75 2.46
  Q 33.63 2.46 33.51 2.46
  Q 33.39 2.46 33.27 2.46
  C 20.58 2.80 9.61 10.00 4.77 21.73
  C -0.54 34.60 4.94 49.88 11.89 60.96
  Q 20.78 75.11 33.06 86.58
  Q 33.14 86.65 33.22 86.67
  Q 33.30 86.69 33.42 86.69
  Z"
/>
<path fill="#a83148" d="
  M 33.51 2.46
  Q 33.63 2.46 33.75 2.46
  C 46.44 2.83 57.40 10.05 62.21 21.79
  C 67.50 34.67 61.99 49.94 55.01 61.00
  Q 46.09 75.14 33.79 86.58
  Q 33.71 86.65 33.63 86.67
  Q 33.55 86.69 33.42 86.69
  Q 33.30 86.69 33.22 86.67
  Q 33.14 86.65 33.06 86.58
  Q 20.78 75.11 11.89 60.96
  C 4.94 49.88 -0.54 34.60 4.77 21.73
  C 9.61 10.00 20.58 2.80 33.27 2.46
  Q 33.39 2.46 33.51 2.46
  Z
  M 23.34 16.44
  C 20.79 31.17 29.21 45.64 42.46 51.99
  A 0.49 0.49 0.0 0 0 43.15 51.65
  L 43.57 49.62
  A 1.84 1.84 0.0 0 0 43.47 48.53
  Q 41.68 44.27 42.12 39.16
  A 3.17 3.15 33.8 0 0 41.77 37.42
  Q 40.15 34.29 39.80 29.91
  A 1.06 1.05 -77.1 0 0 39.28 29.07
  Q 35.14 26.56 34.69 26.00
  Q 30.14 20.16 24.07 16.13
  A 0.47 0.47 0.0 0 0 23.34 16.44
  Z"
/>
<path fill="#ffffff" d="
  M 23.34 16.44
  A 0.47 0.47 0.0 0 1 24.07 16.13
  Q 30.14 20.16 34.69 26.00
  Q 35.14 26.56 39.28 29.07
  A 1.06 1.05 -77.1 0 1 39.80 29.91
  Q 40.15 34.29 41.77 37.42
  A 3.17 3.15 33.8 0 1 42.12 39.16
  Q 41.68 44.27 43.47 48.53
  A 1.84 1.84 0.0 0 1 43.57 49.62
  L 43.15 51.65
  A 0.49 0.49 0.0 0 1 42.46 51.99
  C 29.21 45.64 20.79 31.17 23.34 16.44
  Z
  M 30.7096 29.3547
  A 7.21 3.73 -119.5 0 0 31.0136 37.4667
  A 7.21 3.73 -119.5 0 0 37.8104 41.9053
  A 7.21 3.73 -119.5 0 0 37.5064 33.7933
  A 7.21 3.73 -119.5 0 0 30.7096 29.3547
  Z"
/>
<ellipse fill="#a83148" cx="0.00" cy="0.00" transform="translate(34.26,35.63) rotate(-119.5)" rx="7.21" ry="3.73"/>
</svg>
