<?xml version="1.0" encoding="UTF-8" standalone="no"?>
<!DOCTYPE svg PUBLIC "-//W3C//DTD SVG 1.1//EN" "http://www.w3.org/Graphics/SVG/1.1/DTD/svg11.dtd">
<svg xmlns="http://www.w3.org/2000/svg" version="1.1" viewBox="0.00 0.00 66.00 88.00">
<g stroke-width="2.00" fill="none" stroke-linecap="butt">
<path stroke="#395b67" vector-effect="non-scaling-stroke" d="
  M 33.40 86.69
  Q 33.53 86.69 33.67 86.65
  A 0.10 0.07 11.9 0 0 33.72 86.63
  C 46.94 74.16 61.55 56.11 63.86 38.27
  Q 66.57 17.37 48.72 6.51
  Q 42.11 2.49 33.54 2.47
  Q 24.96 2.46 18.33 6.46
  Q 0.45 17.26 3.09 38.17
  C 5.34 56.02 19.89 74.12 33.07 86.63
  A 0.10 0.07 -11.7 0 0 33.13 86.65
  Q 33.26 86.69 33.40 86.69"
/>
<path stroke="#a6bbc3" vector-effect="non-scaling-stroke" d="
  M 26.13 26.96
  L 24.48 24.11
  A 0.68 0.67 -38.7 0 0 23.39 23.99
  C 17.23 30.85 15.16 39.74 22.00 46.89
  C 23.87 48.85 27.86 50.78 30.38 51.12
  Q 38.80 52.25 44.11 46.01
  A 0.41 0.40 -65.4 0 0 43.87 45.35
  L 39.66 44.69
  A 0.13 0.13 0.0 0 1 39.63 44.44
  L 45.43 41.89
  A 3.45 3.44 82.5 0 0 47.44 39.27
  L 48.53 32.29
  A 0.90 0.90 0.0 0 0 47.10 31.44
  C 42.94 34.65 37.57 34.97 32.51 34.99
  Q 31.91 34.99 30.06 35.83
  C 27.47 37.01 27.53 39.80 29.52 41.74
  Q 32.42 44.59 34.74 44.87
  A 0.05 0.04 12.4 0 1 34.78 44.92
  L 34.73 45.26
  A 0.12 0.12 0.0 0 1 34.59 45.36
  C 30.06 44.75 22.20 42.09 24.95 36.00
  Q 26.29 33.02 29.31 33.32
  Q 37.43 34.10 37.85 34.15
  A 4.73 4.69 38.9 0 0 39.88 33.94
  Q 45.23 32.18 47.61 26.21
  A 1.55 1.52 47.3 0 0 47.64 25.15
  C 45.31 18.21 39.77 14.12 32.62 17.45
  A 0.36 0.36 0.0 0 0 32.63 18.11
  Q 36.61 19.88 38.44 20.80
  A 3.24 3.23 17.3 0 1 40.19 24.12
  C 39.62 28.23 33.86 26.65 31.53 25.38
  A 0.22 0.22 0.0 0 1 31.65 24.96
  C 33.46 25.06 37.83 24.92 36.09 21.67
  C 35.16 19.92 34.07 19.51 32.01 18.32
  A 0.91 0.91 0.0 0 0 31.09 18.32
  L 25.41 21.60
  A 1.27 1.26 -32.4 0 0 25.00 23.42
  Q 26.06 24.95 26.48 26.82
  A 0.19 0.19 0.0 0 1 26.13 26.96"
/>
</g>
<path fill="#243e46" d="
  M 33.81 88.00
  L 33.12 88.00
  Q 16.25 72.97 6.69 54.04
  Q 3.52 47.76 2.04 39.24
  C 0.13 28.30 3.28 17.62 11.49 9.98
  Q 20.31 1.77 32.71 1.34
  C 45.06 0.92 57.24 8.18 62.49 19.42
  Q 65.79 26.51 65.42 34.46
  Q 65.05 42.33 62.13 49.56
  C 56.19 64.24 45.43 77.38 33.81 88.00
  Z
  M 33.40 86.69
  Q 33.53 86.69 33.67 86.65
  A 0.10 0.07 11.9 0 0 33.72 86.63
  C 46.94 74.16 61.55 56.11 63.86 38.27
  Q 66.57 17.37 48.72 6.51
  Q 42.11 2.49 33.54 2.47
  Q 24.96 2.46 18.33 6.46
  Q 0.45 17.26 3.09 38.17
  C 5.34 56.02 19.89 74.12 33.07 86.63
  A 0.10 0.07 -11.7 0 0 33.13 86.65
  Q 33.26 86.69 33.40 86.69
  Z"
/>
<path fill="#4d7787" d="
  M 33.54 2.47
  Q 42.11 2.49 48.72 6.51
  Q 66.57 17.37 63.86 38.27
  C 61.55 56.11 46.94 74.16 33.72 86.63
  A 0.10 0.07 11.9 0 1 33.67 86.65
  Q 33.53 86.69 33.40 86.69
  Q 33.26 86.69 33.13 86.65
  A 0.10 0.07 -11.7 0 1 33.07 86.63
  C 19.89 74.12 5.34 56.02 3.09 38.17
  Q 0.45 17.26 18.33 6.46
  Q 24.96 2.46 33.54 2.47
  Z
  M 26.13 26.96
  L 24.48 24.11
  A 0.68 0.67 -38.7 0 0 23.39 23.99
  C 17.23 30.85 15.16 39.74 22.00 46.89
  C 23.87 48.85 27.86 50.78 30.38 51.12
  Q 38.80 52.25 44.11 46.01
  A 0.41 0.40 -65.4 0 0 43.87 45.35
  L 39.66 44.69
  A 0.13 0.13 0.0 0 1 39.63 44.44
  L 45.43 41.89
  A 3.45 3.44 82.5 0 0 47.44 39.27
  L 48.53 32.29
  A 0.90 0.90 0.0 0 0 47.10 31.44
  C 42.94 34.65 37.57 34.97 32.51 34.99
  Q 31.91 34.99 30.06 35.83
  C 27.47 37.01 27.53 39.80 29.52 41.74
  Q 32.42 44.59 34.74 44.87
  A 0.05 0.04 12.4 0 1 34.78 44.92
  L 34.73 45.26
  A 0.12 0.12 0.0 0 1 34.59 45.36
  C 30.06 44.75 22.20 42.09 24.95 36.00
  Q 26.29 33.02 29.31 33.32
  Q 37.43 34.10 37.85 34.15
  A 4.73 4.69 38.9 0 0 39.88 33.94
  Q 45.23 32.18 47.61 26.21
  A 1.55 1.52 47.3 0 0 47.64 25.15
  C 45.31 18.21 39.77 14.12 32.62 17.45
  A 0.36 0.36 0.0 0 0 32.63 18.11
  Q 36.61 19.88 38.44 20.80
  A 3.24 3.23 17.3 0 1 40.19 24.12
  C 39.62 28.23 33.86 26.65 31.53 25.38
  A 0.22 0.22 0.0 0 1 31.65 24.96
  C 33.46 25.06 37.83 24.92 36.09 21.67
  C 35.16 19.92 34.07 19.51 32.01 18.32
  A 0.91 0.91 0.0 0 0 31.09 18.32
  L 25.41 21.60
  A 1.27 1.26 -32.4 0 0 25.00 23.42
  Q 26.06 24.95 26.48 26.82
  A 0.19 0.19 0.0 0 1 26.13 26.96
  Z"
/>
<path fill="#ffffff" d="
  M 26.48 26.82
  Q 26.06 24.95 25.00 23.42
  A 1.27 1.26 -32.4 0 1 25.41 21.60
  L 31.09 18.32
  A 0.91 0.91 0.0 0 1 32.01 18.32
  C 34.07 19.51 35.16 19.92 36.09 21.67
  C 37.83 24.92 33.46 25.06 31.65 24.96
  A 0.22 0.22 0.0 0 0 31.53 25.38
  C 33.86 26.65 39.62 28.23 40.19 24.12
  A 3.24 3.23 17.3 0 0 38.44 20.80
  Q 36.61 19.88 32.63 18.11
  A 0.36 0.36 0.0 0 1 32.62 17.45
  C 39.77 14.12 45.31 18.21 47.64 25.15
  A 1.55 1.52 47.3 0 1 47.61 26.21
  Q 45.23 32.18 39.88 33.94
  A 4.73 4.69 38.9 0 1 37.85 34.15
  Q 37.43 34.10 29.31 33.32
  Q 26.29 33.02 24.95 36.00
  C 22.20 42.09 30.06 44.75 34.59 45.36
  A 0.12 0.12 0.0 0 0 34.73 45.26
  L 34.78 44.92
  A 0.05 0.04 12.4 0 0 34.74 44.87
  Q 32.42 44.59 29.52 41.74
  C 27.53 39.80 27.47 37.01 30.06 35.83
  Q 31.91 34.99 32.51 34.99
  C 37.57 34.97 42.94 34.65 47.10 31.44
  A 0.90 0.90 0.0 0 1 48.53 32.29
  L 47.44 39.27
  A 3.45 3.44 82.5 0 1 45.43 41.89
  L 39.63 44.44
  A 0.13 0.13 0.0 0 0 39.66 44.69
  L 43.87 45.35
  A 0.41 0.40 -65.4 0 1 44.11 46.01
  Q 38.80 52.25 30.38 51.12
  C 27.86 50.78 23.87 48.85 22.00 46.89
  C 15.16 39.74 17.23 30.85 23.39 23.99
  A 0.68 0.67 -38.7 0 1 24.48 24.11
  L 26.13 26.96
  A 0.19 0.19 0.0 0 0 26.48 26.82
  Z"
/>
</svg>
