<?xml version="1.0" encoding="UTF-8" standalone="no"?>
<!DOCTYPE svg PUBLIC "-//W3C//DTD SVG 1.1//EN" "http://www.w3.org/Graphics/SVG/1.1/DTD/svg11.dtd">
<svg xmlns="http://www.w3.org/2000/svg" version="1.1" viewBox="0.00 0.00 66.00 88.00">
<g stroke-width="2.00" fill="none" stroke-linecap="butt">
<path stroke="#802436" vector-effect="non-scaling-stroke" d="
  M 33.42 86.69
  Q 33.53 86.69 33.62 86.67
  Q 33.65 86.66 33.77 86.56
  C 50.09 71.30 73.69 41.68 60.42 18.13
  C 55.03 8.57 44.64 2.47 33.51 2.46
  C 22.39 2.45 11.98 8.53 6.58 18.07
  C -6.75 41.59 16.79 71.26 33.08 86.56
  Q 33.20 86.66 33.22 86.67
  Q 33.32 86.69 33.42 86.69"
/>
<path stroke="#d498a4" vector-effect="non-scaling-stroke" d="
  M 27.80 25.27
  Q 26.65 25.93 24.92 24.07
  Q 23.38 22.42 22.07 17.38
  A 0.37 0.37 0.0 0 0 21.43 17.23
  L 20.99 17.95
  A 0.32 0.31 -39.0 0 0 20.96 18.20
  L 23.10 24.95
  A 2.44 2.43 -81.4 0 0 24.02 26.20
  L 25.06 26.92
  A 0.32 0.32 0.0 0 1 24.99 27.49
  Q 22.38 28.37 21.60 25.92
  Q 20.40 22.13 19.86 20.54
  A 0.31 0.31 0.0 0 0 19.26 20.65
  Q 19.45 24.00 20.68 28.34
  A 1.25 1.24 -88.6 0 0 21.47 29.17
  Q 22.96 29.69 22.92 31.98
  A 0.46 0.46 0.0 0 0 23.65 32.36
  Q 26.70 30.22 28.44 27.13
  Q 28.55 26.92 28.70 26.84
  Q 28.85 26.75 29.09 26.76
  Q 32.63 26.81 36.02 25.25
  A 0.46 0.46 0.0 0 0 36.05 24.43
  Q 34.05 23.31 34.36 21.76
  A 1.25 1.24 28.8 0 0 34.04 20.66
  Q 30.90 17.42 28.10 15.57
  A 0.31 0.31 0.0 0 0 27.71 16.03
  Q 28.81 17.30 31.48 20.24
  Q 33.21 22.15 31.13 23.96
  A 0.32 0.32 0.0 0 1 30.60 23.73
  L 30.51 22.47
  A 2.44 2.43 21.6 0 0 29.89 21.05
  L 25.13 15.80
  A 0.32 0.31 -20.8 0 0 24.90 15.70
  L 24.06 15.72
  A 0.37 0.37 0.0 0 0 23.86 16.35
  Q 27.56 20.02 28.21 22.18
  Q 28.95 24.61 27.80 25.27"
/>
<path stroke="#d498a4" vector-effect="non-scaling-stroke" d="
  M 30.30 29.61
  Q 30.24 29.64 30.19 29.70
  Q 27.79 32.91 24.44 35.22
  A 0.41 0.41 0.0 0 0 24.56 35.95
  L 26.81 36.60
  A 0.95 0.95 0.0 0 1 27.19 36.83
  C 28.94 38.61 33.70 41.16 36.13 39.76
  C 38.57 38.36 38.77 32.97 38.10 30.56
  A 0.95 0.95 0.0 0 1 38.10 30.11
  L 38.67 27.84
  A 0.41 0.41 0.0 0 0 38.10 27.37
  Q 34.41 29.10 30.43 29.56
  Q 30.36 29.57 30.30 29.61"
/>
<path stroke="#d498a4" vector-effect="non-scaling-stroke" d="
  M 37.58 42.19
  C 35.32 43.47 30.96 42.19 28.65 41.11
  A 0.37 0.37 0.0 0 0 28.12 41.51
  Q 28.88 46.09 34.46 49.96
  C 36.27 51.21 41.12 53.18 43.15 52.03
  C 45.19 50.88 46.00 45.70 45.85 43.51
  Q 45.41 36.73 41.87 33.73
  A 0.37 0.37 0.0 0 0 41.26 33.98
  C 41.00 36.51 39.85 40.91 37.58 42.19"
/>
<path stroke="#d498a4" vector-effect="non-scaling-stroke" d="
  M 33.85 32.25
  Q 34.19 31.15 34.09 30.81
  A 0.53 0.53 0.0 0 0 33.06 30.92
  Q 32.96 31.80 33.25 32.32
  A 0.33 0.33 0.0 0 0 33.85 32.25"
/>
<path stroke="#d498a4" vector-effect="non-scaling-stroke" d="
  M 35.8654 31.6301
  A 2.09 1.15 -90.4 0 0 34.7300 33.7280
  A 2.09 1.15 -90.4 0 0 35.8946 35.8099
  A 2.09 1.15 -90.4 0 0 37.0300 33.7120
  A 2.09 1.15 -90.4 0 0 35.8654 31.6301"
/>
<path stroke="#d498a4" vector-effect="non-scaling-stroke" d="
  M 29.3891 33.0047
  A 0.93 0.56 -156.2 0 0 30.0140 33.8924
  A 0.93 0.56 -156.2 0 0 31.0909 33.7553
  A 0.93 0.56 -156.2 0 0 30.4660 32.8676
  A 0.93 0.56 -156.2 0 0 29.3891 33.0047"
/>
<path stroke="#d498a4" vector-effect="non-scaling-stroke" d="
  M 29.2263 35.2526
  A 2.16 1.12 -147.6 0 0 30.4499 37.3556
  A 2.16 1.12 -147.6 0 0 32.8737 37.5674
  A 2.16 1.12 -147.6 0 0 31.6501 35.4644
  A 2.16 1.12 -147.6 0 0 29.2263 35.2526"
/>
</g>
<path fill="#581723" d="
  M 33.82 88.00
  L 33.13 88.00
  Q 15.43 72.27 5.96 52.53
  Q 3.46 47.32 2.05 39.24
  C 0.18 28.63 3.06 18.39 10.72 10.71
  C 25.89 -4.48 52.31 -0.77 62.18 18.84
  C 74.37 43.05 50.50 72.75 33.82 88.00
  Z
  M 33.42 86.69
  Q 33.53 86.69 33.62 86.67
  Q 33.65 86.66 33.77 86.56
  C 50.09 71.30 73.69 41.68 60.42 18.13
  C 55.03 8.57 44.64 2.47 33.51 2.46
  C 22.39 2.45 11.98 8.53 6.58 18.07
  C -6.75 41.59 16.79 71.26 33.08 86.56
  Q 33.20 86.66 33.22 86.67
  Q 33.32 86.69 33.42 86.69
  Z"
/>
<path fill="#a83148" d="
  M 33.51 2.46
  C 44.64 2.47 55.03 8.57 60.42 18.13
  C 73.69 41.68 50.09 71.30 33.77 86.56
  Q 33.65 86.66 33.62 86.67
  Q 33.53 86.69 33.42 86.69
  Q 33.32 86.69 33.22 86.67
  Q 33.20 86.66 33.08 86.56
  C 16.79 71.26 -6.75 41.59 6.58 18.07
  C 11.98 8.53 22.39 2.45 33.51 2.46
  Z
  M 27.80 25.27
  Q 26.65 25.93 24.92 24.07
  Q 23.38 22.42 22.07 17.38
  A 0.37 0.37 0.0 0 0 21.43 17.23
  L 20.99 17.95
  A 0.32 0.31 -39.0 0 0 20.96 18.20
  L 23.10 24.95
  A 2.44 2.43 -81.4 0 0 24.02 26.20
  L 25.06 26.92
  A 0.32 0.32 0.0 0 1 24.99 27.49
  Q 22.38 28.37 21.60 25.92
  Q 20.40 22.13 19.86 20.54
  A 0.31 0.31 0.0 0 0 19.26 20.65
  Q 19.45 24.00 20.68 28.34
  A 1.25 1.24 -88.6 0 0 21.47 29.17
  Q 22.96 29.69 22.92 31.98
  A 0.46 0.46 0.0 0 0 23.65 32.36
  Q 26.70 30.22 28.44 27.13
  Q 28.55 26.92 28.70 26.84
  Q 28.85 26.75 29.09 26.76
  Q 32.63 26.81 36.02 25.25
  A 0.46 0.46 0.0 0 0 36.05 24.43
  Q 34.05 23.31 34.36 21.76
  A 1.25 1.24 28.8 0 0 34.04 20.66
  Q 30.90 17.42 28.10 15.57
  A 0.31 0.31 0.0 0 0 27.71 16.03
  Q 28.81 17.30 31.48 20.24
  Q 33.21 22.15 31.13 23.96
  A 0.32 0.32 0.0 0 1 30.60 23.73
  L 30.51 22.47
  A 2.44 2.43 21.6 0 0 29.89 21.05
  L 25.13 15.80
  A 0.32 0.31 -20.8 0 0 24.90 15.70
  L 24.06 15.72
  A 0.37 0.37 0.0 0 0 23.86 16.35
  Q 27.56 20.02 28.21 22.18
  Q 28.95 24.61 27.80 25.27
  Z
  M 30.30 29.61
  Q 30.24 29.64 30.19 29.70
  Q 27.79 32.91 24.44 35.22
  A 0.41 0.41 0.0 0 0 24.56 35.95
  L 26.81 36.60
  A 0.95 0.95 0.0 0 1 27.19 36.83
  C 28.94 38.61 33.70 41.16 36.13 39.76
  C 38.57 38.36 38.77 32.97 38.10 30.56
  A 0.95 0.95 0.0 0 1 38.10 30.11
  L 38.67 27.84
  A 0.41 0.41 0.0 0 0 38.10 27.37
  Q 34.41 29.10 30.43 29.56
  Q 30.36 29.57 30.30 29.61
  Z
  M 37.58 42.19
  C 35.32 43.47 30.96 42.19 28.65 41.11
  A 0.37 0.37 0.0 0 0 28.12 41.51
  Q 28.88 46.09 34.46 49.96
  C 36.27 51.21 41.12 53.18 43.15 52.03
  C 45.19 50.88 46.00 45.70 45.85 43.51
  Q 45.41 36.73 41.87 33.73
  A 0.37 0.37 0.0 0 0 41.26 33.98
  C 41.00 36.51 39.85 40.91 37.58 42.19
  Z"
/>
<path fill="#ffffff" d="
  M 28.70 26.84
  Q 28.55 26.92 28.44 27.13
  Q 26.70 30.22 23.65 32.36
  A 0.46 0.46 0.0 0 1 22.92 31.98
  Q 22.96 29.69 21.47 29.17
  A 1.25 1.24 -88.6 0 1 20.68 28.34
  Q 19.45 24.00 19.26 20.65
  A 0.31 0.31 0.0 0 1 19.86 20.54
  Q 20.40 22.13 21.60 25.92
  Q 22.38 28.37 24.99 27.49
  A 0.32 0.32 0.0 0 0 25.06 26.92
  L 24.02 26.20
  A 2.44 2.43 -81.4 0 1 23.10 24.95
  L 20.96 18.20
  A 0.32 0.31 -39.0 0 1 20.99 17.95
  L 21.43 17.23
  A 0.37 0.37 0.0 0 1 22.07 17.38
  Q 23.38 22.42 24.92 24.07
  Q 26.65 25.93 27.80 25.27
  Q 28.95 24.61 28.21 22.18
  Q 27.56 20.02 23.86 16.35
  A 0.37 0.37 0.0 0 1 24.06 15.72
  L 24.90 15.70
  A 0.32 0.31 -20.8 0 1 25.13 15.80
  L 29.89 21.05
  A 2.44 2.43 21.6 0 1 30.51 22.47
  L 30.60 23.73
  A 0.32 0.32 0.0 0 0 31.13 23.96
  Q 33.21 22.15 31.48 20.24
  Q 28.81 17.30 27.71 16.03
  A 0.31 0.31 0.0 0 1 28.10 15.57
  Q 30.90 17.42 34.04 20.66
  A 1.25 1.24 28.8 0 1 34.36 21.76
  Q 34.05 23.31 36.05 24.43
  A 0.46 0.46 0.0 0 1 36.02 25.25
  Q 32.63 26.81 29.09 26.76
  Q 28.85 26.75 28.70 26.84
  Z"
/>
<path fill="#ffffff" d="
  M 36.13 39.76
  C 33.70 41.16 28.94 38.61 27.19 36.83
  A 0.95 0.95 0.0 0 0 26.81 36.60
  L 24.56 35.95
  A 0.41 0.41 0.0 0 1 24.44 35.22
  Q 27.79 32.91 30.19 29.70
  Q 30.24 29.64 30.30 29.61
  Q 30.36 29.57 30.43 29.56
  Q 34.41 29.10 38.10 27.37
  A 0.41 0.41 0.0 0 1 38.67 27.84
  L 38.10 30.11
  A 0.95 0.95 0.0 0 0 38.10 30.56
  C 38.77 32.97 38.57 38.36 36.13 39.76
  Z
  M 33.85 32.25
  Q 34.19 31.15 34.09 30.81
  A 0.53 0.53 0.0 0 0 33.06 30.92
  Q 32.96 31.80 33.25 32.32
  A 0.33 0.33 0.0 0 0 33.85 32.25
  Z
  M 35.8654 31.6301
  A 2.09 1.15 -90.4 0 0 34.7300 33.7280
  A 2.09 1.15 -90.4 0 0 35.8946 35.8099
  A 2.09 1.15 -90.4 0 0 37.0300 33.7120
  A 2.09 1.15 -90.4 0 0 35.8654 31.6301
  Z
  M 29.3891 33.0047
  A 0.93 0.56 -156.2 0 0 30.0140 33.8924
  A 0.93 0.56 -156.2 0 0 31.0909 33.7553
  A 0.93 0.56 -156.2 0 0 30.4660 32.8676
  A 0.93 0.56 -156.2 0 0 29.3891 33.0047
  Z
  M 29.2263 35.2526
  A 2.16 1.12 -147.6 0 0 30.4499 37.3556
  A 2.16 1.12 -147.6 0 0 32.8737 37.5674
  A 2.16 1.12 -147.6 0 0 31.6501 35.4644
  A 2.16 1.12 -147.6 0 0 29.2263 35.2526
  Z"
/>
<path fill="#a83148" d="
  M 33.25 32.32
  Q 32.96 31.80 33.06 30.92
  A 0.53 0.53 0.0 0 1 34.09 30.81
  Q 34.19 31.15 33.85 32.25
  A 0.33 0.33 0.0 0 1 33.25 32.32
  Z"
/>
<ellipse fill="#a83148" cx="0.00" cy="0.00" transform="translate(35.88,33.72) rotate(-90.4)" rx="2.09" ry="1.15"/>
<ellipse fill="#a83148" cx="0.00" cy="0.00" transform="translate(30.24,33.38) rotate(-156.2)" rx="0.93" ry="0.56"/>
<path fill="#ffffff" d="
  M 43.15 52.03
  C 41.12 53.18 36.27 51.21 34.46 49.96
  Q 28.88 46.09 28.12 41.51
  A 0.37 0.37 0.0 0 1 28.65 41.11
  C 30.96 42.19 35.32 43.47 37.58 42.19
  C 39.85 40.91 41.00 36.51 41.26 33.98
  A 0.37 0.37 0.0 0 1 41.87 33.73
  Q 45.41 36.73 45.85 43.51
  C 46.00 45.70 45.19 50.88 43.15 52.03
  Z"
/>
<ellipse fill="#a83148" cx="0.00" cy="0.00" transform="translate(31.05,36.41) rotate(-147.6)" rx="2.16" ry="1.12"/>
</svg>
