<?xml version="1.0" encoding="UTF-8" standalone="no"?>
<!DOCTYPE svg PUBLIC "-//W3C//DTD SVG 1.1//EN" "http://www.w3.org/Graphics/SVG/1.1/DTD/svg11.dtd">
<svg xmlns="http://www.w3.org/2000/svg" version="1.1" viewBox="0.00 0.00 66.00 88.00">
<g stroke-width="2.00" fill="none" stroke-linecap="butt">
<path stroke="#425a74" vector-effect="non-scaling-stroke" d="
  M 33.40 86.69
  Q 33.50 86.69 33.61 86.67
  Q 33.69 86.66 33.79 86.57
  Q 51.07 69.85 58.75 54.27
  C 64.72 42.17 67.17 27.84 59.36 16.40
  C 53.47 7.77 44.24 2.50 33.54 2.48
  C 22.85 2.46 13.60 7.71 7.68 16.31
  C -0.16 27.73 2.24 42.07 8.17 54.19
  Q 15.80 69.79 33.02 86.57
  Q 33.12 86.66 33.20 86.67
  Q 33.31 86.69 33.40 86.69"
/>
<path stroke="#acbbcc" vector-effect="non-scaling-stroke" d="
  M 33.40 51.61
  Q 33.53 51.61 33.59 51.39
  C 35.73 42.47 41.38 36.33 48.94 31.00
  A 0.27 0.27 0.0 0 0 48.84 30.51
  Q 42.81 29.37 38.47 26.14
  C 36.21 24.46 33.83 21.32 37.06 19.25
  A 3.11 2.80 -40.1 0 1 40.60 19.37
  Q 42.43 20.94 42.72 21.18
  A 1.28 1.27 36.1 0 0 44.59 20.89
  L 44.66 20.79
  A 1.71 1.70 -52.7 0 0 44.37 18.59
  Q 38.16 13.02 33.62 18.20
  Q 33.52 18.31 33.43 18.31
  Q 33.33 18.31 33.24 18.20
  Q 28.70 13.01 22.48 18.57
  A 1.71 1.70 52.8 0 0 22.19 20.77
  L 22.26 20.87
  A 1.28 1.27 -36.0 0 0 24.13 21.16
  Q 24.42 20.92 26.25 19.36
  A 3.11 2.80 40.2 0 1 29.79 19.24
  C 33.02 21.32 30.63 24.46 28.37 26.13
  Q 24.02 29.35 17.99 30.48
  A 0.27 0.27 0.0 0 0 17.89 30.97
  C 25.44 36.32 31.08 42.47 33.21 51.39
  Q 33.26 51.61 33.40 51.61"
/>
<path stroke="#acbbcc" vector-effect="non-scaling-stroke" d="
  M 33.43 37.15
  Q 33.45 37.15 33.47 37.15
  A 0.11 0.10 29.4 0 0 33.54 37.13
  L 40.95 31.68
  A 0.44 0.43 -51.3 0 0 40.87 30.93
  Q 36.56 29.11 33.68 25.39
  A 0.26 0.05 53.9 0 0 33.54 25.26
  Q 33.49 25.25 33.44 25.25
  Q 33.39 25.25 33.35 25.26
  A 0.26 0.05 -53.8 0 0 33.21 25.39
  Q 30.32 29.10 26.01 30.91
  A 0.44 0.43 51.4 0 0 25.93 31.66
  L 33.32 37.13
  A 0.11 0.10 -29.3 0 0 33.39 37.15
  Q 33.42 37.15 33.43 37.15"
/>
</g>
<path fill="#2a3d4f" d="
  M 33.78 88.00
  L 33.04 88.00
  C 22.18 78.19 12.04 65.63 5.74 51.77
  C 1.05 41.45 -0.49 28.51 5.15 18.22
  C 17.75 -4.74 50.84 -4.28 62.53 19.59
  C 66.97 28.64 65.94 39.82 62.31 49.11
  C 56.55 63.86 45.46 77.43 33.78 88.00
  Z
  M 33.40 86.69
  Q 33.50 86.69 33.61 86.67
  Q 33.69 86.66 33.79 86.57
  Q 51.07 69.85 58.75 54.27
  C 64.72 42.17 67.17 27.84 59.36 16.40
  C 53.47 7.77 44.24 2.50 33.54 2.48
  C 22.85 2.46 13.60 7.71 7.68 16.31
  C -0.16 27.73 2.24 42.07 8.17 54.19
  Q 15.80 69.79 33.02 86.57
  Q 33.12 86.66 33.20 86.67
  Q 33.31 86.69 33.40 86.69
  Z"
/>
<path fill="#597698" d="
  M 33.54 2.48
  C 44.24 2.50 53.47 7.77 59.36 16.40
  C 67.17 27.84 64.72 42.17 58.75 54.27
  Q 51.07 69.85 33.79 86.57
  Q 33.69 86.66 33.61 86.67
  Q 33.50 86.69 33.40 86.69
  Q 33.31 86.69 33.20 86.67
  Q 33.12 86.66 33.02 86.57
  Q 15.80 69.79 8.17 54.19
  C 2.24 42.07 -0.16 27.73 7.68 16.31
  C 13.60 7.71 22.85 2.46 33.54 2.48
  Z
  M 33.40 51.61
  Q 33.53 51.61 33.59 51.39
  C 35.73 42.47 41.38 36.33 48.94 31.00
  A 0.27 0.27 0.0 0 0 48.84 30.51
  Q 42.81 29.37 38.47 26.14
  C 36.21 24.46 33.83 21.32 37.06 19.25
  A 3.11 2.80 -40.1 0 1 40.60 19.37
  Q 42.43 20.94 42.72 21.18
  A 1.28 1.27 36.1 0 0 44.59 20.89
  L 44.66 20.79
  A 1.71 1.70 -52.7 0 0 44.37 18.59
  Q 38.16 13.02 33.62 18.20
  Q 33.52 18.31 33.43 18.31
  Q 33.33 18.31 33.24 18.20
  Q 28.70 13.01 22.48 18.57
  A 1.71 1.70 52.8 0 0 22.19 20.77
  L 22.26 20.87
  A 1.28 1.27 -36.0 0 0 24.13 21.16
  Q 24.42 20.92 26.25 19.36
  A 3.11 2.80 40.2 0 1 29.79 19.24
  C 33.02 21.32 30.63 24.46 28.37 26.13
  Q 24.02 29.35 17.99 30.48
  A 0.27 0.27 0.0 0 0 17.89 30.97
  C 25.44 36.32 31.08 42.47 33.21 51.39
  Q 33.26 51.61 33.40 51.61
  Z"
/>
<path fill="#ffffff" d="
  M 33.43 18.31
  Q 33.52 18.31 33.62 18.20
  Q 38.16 13.02 44.37 18.59
  A 1.71 1.70 -52.7 0 1 44.66 20.79
  L 44.59 20.89
  A 1.28 1.27 36.1 0 1 42.72 21.18
  Q 42.43 20.94 40.60 19.37
  A 3.11 2.80 -40.1 0 0 37.06 19.25
  C 33.83 21.32 36.21 24.46 38.47 26.14
  Q 42.81 29.37 48.84 30.51
  A 0.27 0.27 0.0 0 1 48.94 31.00
  C 41.38 36.33 35.73 42.47 33.59 51.39
  Q 33.53 51.61 33.40 51.61
  Q 33.26 51.61 33.21 51.39
  C 31.08 42.47 25.44 36.32 17.89 30.97
  A 0.27 0.27 0.0 0 1 17.99 30.48
  Q 24.02 29.35 28.37 26.13
  C 30.63 24.46 33.02 21.32 29.79 19.24
  A 3.11 2.80 40.2 0 0 26.25 19.36
  Q 24.42 20.92 24.13 21.16
  A 1.28 1.27 -36.0 0 1 22.26 20.87
  L 22.19 20.77
  A 1.71 1.70 52.8 0 1 22.48 18.57
  Q 28.70 13.01 33.24 18.20
  Q 33.33 18.31 33.43 18.31
  Z
  M 33.43 37.15
  Q 33.45 37.15 33.47 37.15
  A 0.11 0.10 29.4 0 0 33.54 37.13
  L 40.95 31.68
  A 0.44 0.43 -51.3 0 0 40.87 30.93
  Q 36.56 29.11 33.68 25.39
  A 0.26 0.05 53.9 0 0 33.54 25.26
  Q 33.49 25.25 33.44 25.25
  Q 33.39 25.25 33.35 25.26
  A 0.26 0.05 -53.8 0 0 33.21 25.39
  Q 30.32 29.10 26.01 30.91
  A 0.44 0.43 51.4 0 0 25.93 31.66
  L 33.32 37.13
  A 0.11 0.10 -29.3 0 0 33.39 37.15
  Q 33.42 37.15 33.43 37.15
  Z"
/>
<path fill="#597698" d="
  M 33.44 25.25
  Q 33.49 25.25 33.54 25.26
  A 0.26 0.05 53.9 0 1 33.68 25.39
  Q 36.56 29.11 40.87 30.93
  A 0.44 0.43 -51.3 0 1 40.95 31.68
  L 33.54 37.13
  A 0.11 0.10 29.4 0 1 33.47 37.15
  Q 33.45 37.15 33.43 37.15
  Q 33.42 37.15 33.39 37.15
  A 0.11 0.10 -29.3 0 1 33.32 37.13
  L 25.93 31.66
  A 0.44 0.43 51.4 0 1 26.01 30.91
  Q 30.32 29.10 33.21 25.39
  A 0.26 0.05 -53.8 0 1 33.35 25.26
  Q 33.39 25.25 33.44 25.25
  Z"
/>
</svg>
