<?xml version="1.0" encoding="UTF-8" standalone="no"?>
<!DOCTYPE svg PUBLIC "-//W3C//DTD SVG 1.1//EN" "http://www.w3.org/Graphics/SVG/1.1/DTD/svg11.dtd">
<svg xmlns="http://www.w3.org/2000/svg" version="1.1" viewBox="0.00 0.00 66.00 88.00">
<g stroke-width="2.00" fill="none" stroke-linecap="butt">
<path stroke="#171b29" vector-effect="non-scaling-stroke" d="
  M 30.68 84.25
  A 3.35 3.34 -34.5 0 0 34.70 84.99
  Q 37.27 83.67 39.15 81.40
  Q 43.31 76.40 47.42 71.41
  C 59.73 56.45 72.30 31.02 57.22 13.75
  C 47.80 2.97 33.62 -0.35 20.65 5.41
  C 12.06 9.22 4.91 17.71 3.46 27.35
  C 1.75 38.67 4.90 48.99 10.67 58.84
  Q 16.90 69.47 24.95 78.05
  Q 28.87 82.23 30.68 84.25"
/>
<path stroke="#8e9099" vector-effect="non-scaling-stroke" d="
  M 40.64 32.84
  Q 38.82 30.07 35.79 27.84
  A 1.96 1.95 -59.8 0 1 35.17 25.47
  Q 36.54 22.40 38.92 20.32
  A 0.45 0.44 35.0 0 0 38.78 19.58
  Q 30.80 16.50 29.28 16.52
  Q 24.45 16.56 21.96 18.50
  Q 17.97 21.60 16.63 22.22
  A 0.37 0.36 51.6 0 0 16.56 22.84
  L 21.63 26.82
  A 0.62 0.62 0.0 0 1 21.59 27.83
  Q 19.20 29.40 16.68 32.88
  C 13.51 37.25 13.47 44.01 20.24 44.90
  A 0.39 0.39 0.0 0 0 20.64 44.35
  Q 19.79 42.58 19.76 40.66
  A 0.29 0.29 0.0 0 1 20.29 40.50
  C 22.74 44.19 24.33 47.12 29.35 46.73
  A 0.61 0.60 88.0 0 0 29.91 46.12
  L 29.91 37.91
  A 2.80 2.74 61.6 0 1 30.33 36.44
  C 32.43 33.02 36.37 33.21 40.35 33.34
  A 0.33 0.32 -15.4 0 0 40.64 32.84"
/>
<path stroke="#8e9099" vector-effect="non-scaling-stroke" d="
  M 32.7300 38.1809
  A 5.23 2.10 -179.9 0 0 37.9563 40.2900
  A 5.23 2.10 -179.9 0 0 43.1900 38.1991
  A 5.23 2.10 -179.9 0 0 37.9637 36.0900
  A 5.23 2.10 -179.9 0 0 32.7300 38.1809"
/>
<path stroke="#8e9099" vector-effect="non-scaling-stroke" d="
  M 46.02 38.96
  L 46.00 42.42
  A 0.32 0.32 0.0 0 0 46.32 42.74
  L 46.49 42.74
  A 4.71 1.99 0.2 0 0 51.21 40.77
  L 51.21 40.65
  A 4.71 1.99 0.2 0 0 46.51 38.64
  L 46.34 38.64
  A 0.32 0.32 0.0 0 0 46.02 38.96"
/>
<path stroke="#8e9099" vector-effect="non-scaling-stroke" d="
  M 37.94 45.52
  C 39.96 45.53 42.94 45.23 43.37 42.80
  A 0.47 0.47 0.0 0 0 42.79 42.26
  Q 39.84 42.99 37.95 42.98
  Q 36.05 42.98 33.11 42.23
  A 0.47 0.47 0.0 0 0 32.53 42.77
  C 32.94 45.19 35.92 45.52 37.94 45.52"
/>
<path stroke="#8e9099" vector-effect="non-scaling-stroke" d="
  M 49.92 44.83
  Q 48.99 45.30 46.57 45.41
  A 0.60 0.60 0.0 0 0 45.99 46.01
  L 45.99 47.45
  A 0.54 0.54 0.0 0 0 46.52 47.99
  Q 49.17 48.08 51.05 46.62
  A 1.06 1.06 0.0 0 0 49.92 44.83"
/>
<path stroke="#8e9099" vector-effect="non-scaling-stroke" d="
  M 37.96 50.69
  C 39.96 50.69 42.90 50.37 43.31 47.98
  A 0.47 0.46 -2.1 0 0 42.74 47.45
  Q 39.83 48.18 37.96 48.18
  Q 36.09 48.18 33.18 47.46
  A 0.47 0.46 2.0 0 0 32.61 47.99
  C 33.03 50.38 35.97 50.69 37.96 50.69"
/>
<path stroke="#8e9099" vector-effect="non-scaling-stroke" d="
  M 28.08 22.74
  Q 32.31 22.20 35.37 20.75
  A 0.27 0.27 0.0 0 0 35.35 20.25
  C 33.03 19.36 29.97 18.57 27.59 18.87
  C 25.21 19.18 22.43 20.70 20.41 22.15
  A 0.27 0.27 0.0 0 0 20.52 22.63
  Q 23.84 23.27 28.08 22.74"
/>
<path stroke="#8e9099" vector-effect="non-scaling-stroke" d="
  M 32.47 26.50
  A 0.27 0.26 -27.5 0 0 32.12 26.40
  Q 28.60 28.18 24.90 26.33
  A 0.43 0.43 0.0 0 0 24.29 26.84
  Q 24.59 27.78 23.65 28.20
  A 0.39 0.39 0.0 0 0 23.66 28.91
  Q 28.53 30.87 33.31 28.73
  A 0.35 0.35 0.0 0 0 33.47 28.23
  L 32.47 26.50"
/>
</g>
<path fill="#11141e" d="
  M 33.79 88.00
  L 33.04 88.00
  C 21.72 77.71 12.19 65.75 5.68 51.55
  Q 2.13 43.81 1.57 34.89
  C 0.57 18.86 11.16 5.76 26.65 2.06
  C 37.39 -0.51 49.53 3.33 57.14 11.63
  C 69.76 25.41 66.44 43.71 57.56 58.85
  Q 47.98 75.16 33.79 88.00
  Z
  M 30.68 84.25
  A 3.35 3.34 -34.5 0 0 34.70 84.99
  Q 37.27 83.67 39.15 81.40
  Q 43.31 76.40 47.42 71.41
  C 59.73 56.45 72.30 31.02 57.22 13.75
  C 47.80 2.97 33.62 -0.35 20.65 5.41
  C 12.06 9.22 4.91 17.71 3.46 27.35
  C 1.75 38.67 4.90 48.99 10.67 58.84
  Q 16.90 69.47 24.95 78.05
  Q 28.87 82.23 30.68 84.25
  Z"
/>
<path fill="#1c2133" d="
  M 30.68 84.25
  Q 28.87 82.23 24.95 78.05
  Q 16.90 69.47 10.67 58.84
  C 4.90 48.99 1.75 38.67 3.46 27.35
  C 4.91 17.71 12.06 9.22 20.65 5.41
  C 33.62 -0.35 47.80 2.97 57.22 13.75
  C 72.30 31.02 59.73 56.45 47.42 71.41
  Q 43.31 76.40 39.15 81.40
  Q 37.27 83.67 34.70 84.99
  A 3.35 3.34 -34.5 0 1 30.68 84.25
  Z
  M 40.64 32.84
  Q 38.82 30.07 35.79 27.84
  A 1.96 1.95 -59.8 0 1 35.17 25.47
  Q 36.54 22.40 38.92 20.32
  A 0.45 0.44 35.0 0 0 38.78 19.58
  Q 30.80 16.50 29.28 16.52
  Q 24.45 16.56 21.96 18.50
  Q 17.97 21.60 16.63 22.22
  A 0.37 0.36 51.6 0 0 16.56 22.84
  L 21.63 26.82
  A 0.62 0.62 0.0 0 1 21.59 27.83
  Q 19.20 29.40 16.68 32.88
  C 13.51 37.25 13.47 44.01 20.24 44.90
  A 0.39 0.39 0.0 0 0 20.64 44.35
  Q 19.79 42.58 19.76 40.66
  A 0.29 0.29 0.0 0 1 20.29 40.50
  C 22.74 44.19 24.33 47.12 29.35 46.73
  A 0.61 0.60 88.0 0 0 29.91 46.12
  L 29.91 37.91
  A 2.80 2.74 61.6 0 1 30.33 36.44
  C 32.43 33.02 36.37 33.21 40.35 33.34
  A 0.33 0.32 -15.4 0 0 40.64 32.84
  Z
  M 32.7300 38.1809
  A 5.23 2.10 -179.9 0 0 37.9563 40.2900
  A 5.23 2.10 -179.9 0 0 43.1900 38.1991
  A 5.23 2.10 -179.9 0 0 37.9637 36.0900
  A 5.23 2.10 -179.9 0 0 32.7300 38.1809
  Z
  M 46.02 38.96
  L 46.00 42.42
  A 0.32 0.32 0.0 0 0 46.32 42.74
  L 46.49 42.74
  A 4.71 1.99 0.2 0 0 51.21 40.77
  L 51.21 40.65
  A 4.71 1.99 0.2 0 0 46.51 38.64
  L 46.34 38.64
  A 0.32 0.32 0.0 0 0 46.02 38.96
  Z
  M 37.94 45.52
  C 39.96 45.53 42.94 45.23 43.37 42.80
  A 0.47 0.47 0.0 0 0 42.79 42.26
  Q 39.84 42.99 37.95 42.98
  Q 36.05 42.98 33.11 42.23
  A 0.47 0.47 0.0 0 0 32.53 42.77
  C 32.94 45.19 35.92 45.52 37.94 45.52
  Z
  M 49.92 44.83
  Q 48.99 45.30 46.57 45.41
  A 0.60 0.60 0.0 0 0 45.99 46.01
  L 45.99 47.45
  A 0.54 0.54 0.0 0 0 46.52 47.99
  Q 49.17 48.08 51.05 46.62
  A 1.06 1.06 0.0 0 0 49.92 44.83
  Z
  M 37.96 50.69
  C 39.96 50.69 42.90 50.37 43.31 47.98
  A 0.47 0.46 -2.1 0 0 42.74 47.45
  Q 39.83 48.18 37.96 48.18
  Q 36.09 48.18 33.18 47.46
  A 0.47 0.46 2.0 0 0 32.61 47.99
  C 33.03 50.38 35.97 50.69 37.96 50.69
  Z"
/>
<path fill="#ffffff" d="
  M 40.35 33.34
  C 36.37 33.21 32.43 33.02 30.33 36.44
  A 2.80 2.74 61.6 0 0 29.91 37.91
  L 29.91 46.12
  A 0.61 0.60 88.0 0 1 29.35 46.73
  C 24.33 47.12 22.74 44.19 20.29 40.50
  A 0.29 0.29 0.0 0 0 19.76 40.66
  Q 19.79 42.58 20.64 44.35
  A 0.39 0.39 0.0 0 1 20.24 44.90
  C 13.47 44.01 13.51 37.25 16.68 32.88
  Q 19.20 29.40 21.59 27.83
  A 0.62 0.62 0.0 0 0 21.63 26.82
  L 16.56 22.84
  A 0.37 0.36 51.6 0 1 16.63 22.22
  Q 17.97 21.60 21.96 18.50
  Q 24.45 16.56 29.28 16.52
  Q 30.80 16.50 38.78 19.58
  A 0.45 0.44 35.0 0 1 38.92 20.32
  Q 36.54 22.40 35.17 25.47
  A 1.96 1.95 -59.8 0 0 35.79 27.84
  Q 38.82 30.07 40.64 32.84
  A 0.33 0.32 -15.4 0 1 40.35 33.34
  Z
  M 28.08 22.74
  Q 32.31 22.20 35.37 20.75
  A 0.27 0.27 0.0 0 0 35.35 20.25
  C 33.03 19.36 29.97 18.57 27.59 18.87
  C 25.21 19.18 22.43 20.70 20.41 22.15
  A 0.27 0.27 0.0 0 0 20.52 22.63
  Q 23.84 23.27 28.08 22.74
  Z
  M 32.47 26.50
  A 0.27 0.26 -27.5 0 0 32.12 26.40
  Q 28.60 28.18 24.90 26.33
  A 0.43 0.43 0.0 0 0 24.29 26.84
  Q 24.59 27.78 23.65 28.20
  A 0.39 0.39 0.0 0 0 23.66 28.91
  Q 28.53 30.87 33.31 28.73
  A 0.35 0.35 0.0 0 0 33.47 28.23
  L 32.47 26.50
  Z"
/>
<path fill="#1c2133" d="
  M 28.08 22.74
  Q 23.84 23.27 20.52 22.63
  A 0.27 0.27 0.0 0 1 20.41 22.15
  C 22.43 20.70 25.21 19.18 27.59 18.87
  C 29.97 18.57 33.03 19.36 35.35 20.25
  A 0.27 0.27 0.0 0 1 35.37 20.75
  Q 32.31 22.20 28.08 22.74
  Z"
/>
<path fill="#1c2133" d="
  M 33.31 28.73
  Q 28.53 30.87 23.66 28.91
  A 0.39 0.39 0.0 0 1 23.65 28.20
  Q 24.59 27.78 24.29 26.84
  A 0.43 0.43 0.0 0 1 24.90 26.33
  Q 28.60 28.18 32.12 26.40
  A 0.27 0.26 -27.5 0 1 32.47 26.50
  L 33.47 28.23
  A 0.35 0.35 0.0 0 1 33.31 28.73
  Z"
/>
<ellipse fill="#ffffff" cx="0.00" cy="0.00" transform="translate(37.96,38.19) rotate(-179.9)" rx="5.23" ry="2.10"/>
<path fill="#ffffff" d="
  M 46.02 38.96
  A 0.32 0.32 0.0 0 1 46.34 38.64
  L 46.51 38.64
  A 4.71 1.99 0.2 0 1 51.21 40.65
  L 51.21 40.77
  A 4.71 1.99 0.2 0 1 46.49 42.74
  L 46.32 42.74
  A 0.32 0.32 0.0 0 1 46.00 42.42
  L 46.02 38.96
  Z"
/>
<path fill="#ffffff" d="
  M 37.94 45.52
  C 35.92 45.52 32.94 45.19 32.53 42.77
  A 0.47 0.47 0.0 0 1 33.11 42.23
  Q 36.05 42.98 37.95 42.98
  Q 39.84 42.99 42.79 42.26
  A 0.47 0.47 0.0 0 1 43.37 42.80
  C 42.94 45.23 39.96 45.53 37.94 45.52
  Z"
/>
<path fill="#ffffff" d="
  M 49.92 44.83
  A 1.06 1.06 0.0 0 1 51.05 46.62
  Q 49.17 48.08 46.52 47.99
  A 0.54 0.54 0.0 0 1 45.99 47.45
  L 45.99 46.01
  A 0.60 0.60 0.0 0 1 46.57 45.41
  Q 48.99 45.30 49.92 44.83
  Z"
/>
<path fill="#ffffff" d="
  M 37.96 48.18
  Q 39.83 48.18 42.74 47.45
  A 0.47 0.46 -2.1 0 1 43.31 47.98
  C 42.90 50.37 39.96 50.69 37.96 50.69
  C 35.97 50.69 33.03 50.38 32.61 47.99
  A 0.47 0.46 2.0 0 1 33.18 47.46
  Q 36.09 48.18 37.96 48.18
  Z"
/>
</svg>
