<?xml version="1.0" encoding="UTF-8" standalone="no"?>
<!DOCTYPE svg PUBLIC "-//W3C//DTD SVG 1.1//EN" "http://www.w3.org/Graphics/SVG/1.1/DTD/svg11.dtd">
<svg xmlns="http://www.w3.org/2000/svg" version="1.1" viewBox="0.00 0.00 66.00 88.00">
<g stroke-width="2.00" fill="none" stroke-linecap="butt">
<path stroke="#9e3c35" vector-effect="non-scaling-stroke" d="
  M 33.41 86.71
  Q 33.60 86.71 33.62 86.69
  Q 33.73 86.58 33.76 86.55
  C 44.36 76.68 54.26 64.51 60.23 51.01
  C 66.23 37.45 66.34 22.08 55.06 11.23
  C 49.30 5.69 41.64 2.47 33.53 2.46
  C 25.42 2.45 17.76 5.64 11.98 11.17
  C 0.67 21.98 0.73 37.35 6.69 50.93
  C 12.62 64.45 22.48 76.65 33.05 86.55
  Q 33.08 86.58 33.19 86.69
  Q 33.22 86.71 33.41 86.71"
/>
<path stroke="#e8a8a4" vector-effect="non-scaling-stroke" d="
  M 39.29 51.69
  Q 33.49 36.97 41.69 23.34
  A 0.88 0.86 -46.3 0 0 41.68 22.42
  Q 36.66 14.74 27.43 15.87
  A 0.67 0.66 -83.4 0 0 26.89 16.30
  C 21.62 30.77 25.89 43.69 39.00 51.93
  A 0.20 0.20 0.0 0 0 39.29 51.69"
/>
</g>
<path fill="#6c2722" d="
  M 33.80 88.00
  L 33.04 88.00
  C 21.78 77.77 12.07 65.64 5.65 51.57
  Q 2.20 44.03 1.60 34.89
  C 0.55 18.97 11.20 5.68 26.49 2.11
  Q 36.72 -0.28 46.98 4.28
  Q 57.56 9.00 62.85 20.27
  C 66.64 28.37 65.96 38.64 63.05 47.03
  C 57.65 62.62 45.90 77.00 33.80 88.00
  Z
  M 33.41 86.71
  Q 33.60 86.71 33.62 86.69
  Q 33.73 86.58 33.76 86.55
  C 44.36 76.68 54.26 64.51 60.23 51.01
  C 66.23 37.45 66.34 22.08 55.06 11.23
  C 49.30 5.69 41.64 2.47 33.53 2.46
  C 25.42 2.45 17.76 5.64 11.98 11.17
  C 0.67 21.98 0.73 37.35 6.69 50.93
  C 12.62 64.45 22.48 76.65 33.05 86.55
  Q 33.08 86.58 33.19 86.69
  Q 33.22 86.71 33.41 86.71
  Z"
/>
<path fill="#d05148" d="
  M 33.53 2.46
  C 41.64 2.47 49.30 5.69 55.06 11.23
  C 66.34 22.08 66.23 37.45 60.23 51.01
  C 54.26 64.51 44.36 76.68 33.76 86.55
  Q 33.73 86.58 33.62 86.69
  Q 33.60 86.71 33.41 86.71
  Q 33.22 86.71 33.19 86.69
  Q 33.08 86.58 33.05 86.55
  C 22.48 76.65 12.62 64.45 6.69 50.93
  C 0.73 37.35 0.67 21.98 11.98 11.17
  C 17.76 5.64 25.42 2.45 33.53 2.46
  Z
  M 39.29 51.69
  Q 33.49 36.97 41.69 23.34
  A 0.88 0.86 -46.3 0 0 41.68 22.42
  Q 36.66 14.74 27.43 15.87
  A 0.67 0.66 -83.4 0 0 26.89 16.30
  C 21.62 30.77 25.89 43.69 39.00 51.93
  A 0.20 0.20 0.0 0 0 39.29 51.69
  Z"
/>
<path fill="#ffffff" d="
  M 39.29 51.69
  A 0.20 0.20 0.0 0 1 39.00 51.93
  C 25.89 43.69 21.62 30.77 26.89 16.30
  A 0.67 0.66 -83.4 0 1 27.43 15.87
  Q 36.66 14.74 41.68 22.42
  A 0.88 0.86 -46.3 0 1 41.69 23.34
  Q 33.49 36.97 39.29 51.69
  Z"
/>
</svg>
