<?xml version="1.0" encoding="UTF-8" standalone="no"?>
<!DOCTYPE svg PUBLIC "-//W3C//DTD SVG 1.1//EN" "http://www.w3.org/Graphics/SVG/1.1/DTD/svg11.dtd">
<svg xmlns="http://www.w3.org/2000/svg" version="1.1" viewBox="0.00 0.00 66.00 88.00">
<g stroke-width="2.00" fill="none" stroke-linecap="butt">
<path stroke="#6c427b" vector-effect="non-scaling-stroke" d="
  M 33.42 86.70
  Q 33.54 86.70 33.63 86.68
  Q 33.67 86.67 33.79 86.56
  C 51.76 69.72 78.17 35.43 55.76 11.96
  C 50.10 6.03 41.99 2.48 33.52 2.47
  C 25.05 2.46 16.94 5.99 11.26 11.90
  C -11.21 35.32 15.11 69.67 33.04 86.56
  Q 33.16 86.67 33.20 86.68
  Q 33.29 86.70 33.42 86.70"
/>
<path stroke="#c7acd0" vector-effect="non-scaling-stroke" d="
  M 27.19 41.68
  Q 26.13 39.09 23.82 37.18
  A 0.60 0.60 0.0 0 0 22.88 37.84
  Q 24.67 42.88 21.00 46.95
  A 2.10 2.06 -73.9 0 1 19.85 47.60
  Q 17.79 47.99 15.60 47.57
  A 0.42 0.42 0.0 0 0 15.30 48.33
  C 22.27 52.72 29.75 48.19 32.31 41.10
  C 33.49 37.84 33.05 33.14 35.04 29.64
  C 36.25 27.53 39.59 27.71 41.13 28.95
  Q 42.56 30.10 43.16 32.12
  Q 45.16 38.96 39.37 43.52
  A 0.17 0.17 0.0 0 0 39.49 43.83
  C 54.92 42.55 55.94 14.74 38.57 17.81
  C 33.37 18.73 30.52 24.09 29.63 29.06
  A 0.62 0.62 0.0 0 1 28.70 29.48
  Q 26.71 28.31 25.23 28.45
  A 0.42 0.42 0.0 0 0 24.95 29.14
  Q 29.22 34.07 27.75 41.63
  A 0.29 0.29 0.0 0 1 27.19 41.68"
/>
</g>
<path fill="#492b54" d="
  M 33.80 88.00
  L 33.13 88.00
  Q 16.67 73.39 6.79 53.99
  Q 2.20 44.98 1.61 35.21
  Q 1.02 25.52 5.41 17.69
  C 12.01 5.91 25.31 -0.47 38.97 1.80
  C 54.64 4.42 66.10 18.18 65.45 34.08
  Q 65.15 41.66 62.40 48.84
  C 56.70 63.73 45.51 77.33 33.80 88.00
  Z
  M 33.42 86.70
  Q 33.54 86.70 33.63 86.68
  Q 33.67 86.67 33.79 86.56
  C 51.76 69.72 78.17 35.43 55.76 11.96
  C 50.10 6.03 41.99 2.48 33.52 2.47
  C 25.05 2.46 16.94 5.99 11.26 11.90
  C -11.21 35.32 15.11 69.67 33.04 86.56
  Q 33.16 86.67 33.20 86.68
  Q 33.29 86.70 33.42 86.70
  Z"
/>
<path fill="#8e58a1" d="
  M 33.52 2.47
  C 41.99 2.48 50.10 6.03 55.76 11.96
  C 78.17 35.43 51.76 69.72 33.79 86.56
  Q 33.67 86.67 33.63 86.68
  Q 33.54 86.70 33.42 86.70
  Q 33.29 86.70 33.20 86.68
  Q 33.16 86.67 33.04 86.56
  C 15.11 69.67 -11.21 35.32 11.26 11.90
  C 16.94 5.99 25.05 2.46 33.52 2.47
  Z
  M 27.19 41.68
  Q 26.13 39.09 23.82 37.18
  A 0.60 0.60 0.0 0 0 22.88 37.84
  Q 24.67 42.88 21.00 46.95
  A 2.10 2.06 -73.9 0 1 19.85 47.60
  Q 17.79 47.99 15.60 47.57
  A 0.42 0.42 0.0 0 0 15.30 48.33
  C 22.27 52.72 29.75 48.19 32.31 41.10
  C 33.49 37.84 33.05 33.14 35.04 29.64
  C 36.25 27.53 39.59 27.71 41.13 28.95
  Q 42.56 30.10 43.16 32.12
  Q 45.16 38.96 39.37 43.52
  A 0.17 0.17 0.0 0 0 39.49 43.83
  C 54.92 42.55 55.94 14.74 38.57 17.81
  C 33.37 18.73 30.52 24.09 29.63 29.06
  A 0.62 0.62 0.0 0 1 28.70 29.48
  Q 26.71 28.31 25.23 28.45
  A 0.42 0.42 0.0 0 0 24.95 29.14
  Q 29.22 34.07 27.75 41.63
  A 0.29 0.29 0.0 0 1 27.19 41.68
  Z"
/>
<path fill="#ffffff" d="
  M 27.75 41.63
  Q 29.22 34.07 24.95 29.14
  A 0.42 0.42 0.0 0 1 25.23 28.45
  Q 26.71 28.31 28.70 29.48
  A 0.62 0.62 0.0 0 0 29.63 29.06
  C 30.52 24.09 33.37 18.73 38.57 17.81
  C 55.94 14.74 54.92 42.55 39.49 43.83
  A 0.17 0.17 0.0 0 1 39.37 43.52
  Q 45.16 38.96 43.16 32.12
  Q 42.56 30.10 41.13 28.95
  C 39.59 27.71 36.25 27.53 35.04 29.64
  C 33.05 33.14 33.49 37.84 32.31 41.10
  C 29.75 48.19 22.27 52.72 15.30 48.33
  A 0.42 0.42 0.0 0 1 15.60 47.57
  Q 17.79 47.99 19.85 47.60
  A 2.10 2.06 -73.9 0 0 21.00 46.95
  Q 24.67 42.88 22.88 37.84
  A 0.60 0.60 0.0 0 1 23.82 37.18
  Q 26.13 39.09 27.19 41.68
  A 0.29 0.29 0.0 0 0 27.75 41.63
  Z"
/>
</svg>
