<?xml version="1.0" encoding="UTF-8" standalone="no"?>
<!DOCTYPE svg PUBLIC "-//W3C//DTD SVG 1.1//EN" "http://www.w3.org/Graphics/SVG/1.1/DTD/svg11.dtd">
<svg xmlns="http://www.w3.org/2000/svg" version="1.1" viewBox="0.00 0.00 66.00 88.00">
<g stroke-width="2.00" fill="none" stroke-linecap="butt">
<path stroke="#425a74" vector-effect="non-scaling-stroke" d="
  M 33.40 86.69
  Q 33.53 86.69 33.67 86.66
  A 0.12 0.11 12.4 0 0 33.72 86.63
  Q 47.73 73.32 56.33 58.81
  C 60.40 51.94 64.02 42.99 64.20 34.69
  Q 64.32 29.16 63.94 27.53
  Q 59.54 8.87 41.48 3.56
  Q 37.79 2.47 33.53 2.46
  Q 29.28 2.46 25.58 3.53
  Q 7.50 8.79 3.04 27.43
  Q 2.66 29.06 2.76 34.59
  C 2.91 42.89 6.51 51.85 10.55 58.74
  Q 19.11 73.27 33.07 86.63
  A 0.12 0.11 -12.2 0 0 33.12 86.66
  Q 33.26 86.69 33.40 86.69"
/>
<path stroke="#acbbcc" vector-effect="non-scaling-stroke" d="
  M 30.00 48.54
  L 30.00 43.16
  A 0.71 0.71 0.0 0 1 30.72 42.45
  Q 33.56 42.50 46.58 42.52
  Q 51.49 42.53 51.40 37.58
  Q 51.24 28.67 51.35 24.04
  C 51.42 20.66 50.85 18.49 47.28 18.49
  Q 19.21 18.48 18.25 18.54
  Q 14.59 18.75 14.63 22.48
  Q 14.71 28.35 14.64 37.13
  C 14.62 40.28 15.13 42.20 18.55 42.44
  Q 20.40 42.57 23.63 42.52
  A 1.34 1.33 -20.1 0 1 24.65 42.99
  L 29.52 48.72
  A 0.27 0.27 0.0 0 0 30.00 48.54"
/>
<path stroke="#acbbcc" vector-effect="non-scaling-stroke" d="
  M 26.05 30.51
  A 2.20 2.20 0.0 0 0 23.85 28.31
  A 2.20 2.20 0.0 0 0 21.65 30.51
  A 2.20 2.20 0.0 0 0 23.85 32.71
  A 2.20 2.20 0.0 0 0 26.05 30.51"
/>
<path stroke="#acbbcc" vector-effect="non-scaling-stroke" d="
  M 35.18 30.51
  A 2.19 2.19 0.0 0 0 32.99 28.32
  A 2.19 2.19 0.0 0 0 30.80 30.51
  A 2.19 2.19 0.0 0 0 32.99 32.70
  A 2.19 2.19 0.0 0 0 35.18 30.51"
/>
<path stroke="#acbbcc" vector-effect="non-scaling-stroke" d="
  M 44.32 30.51
  A 2.20 2.20 0.0 0 0 42.12 28.31
  A 2.20 2.20 0.0 0 0 39.92 30.51
  A 2.20 2.20 0.0 0 0 42.12 32.71
  A 2.20 2.20 0.0 0 0 44.32 30.51"
/>
</g>
<path fill="#2a3d50" d="
  M 33.78 88.00
  L 33.13 88.00
  Q 16.53 73.27 6.73 54.02
  Q 2.50 45.72 1.66 35.92
  Q 0.79 25.85 5.40 17.76
  C 18.28 -4.87 50.97 -3.97 62.53 19.58
  C 66.97 28.62 65.94 39.83 62.31 49.11
  C 56.54 63.87 45.46 77.42 33.78 88.00
  Z
  M 33.40 86.69
  Q 33.53 86.69 33.67 86.66
  A 0.12 0.11 12.4 0 0 33.72 86.63
  Q 47.73 73.32 56.33 58.81
  C 60.40 51.94 64.02 42.99 64.20 34.69
  Q 64.32 29.16 63.94 27.53
  Q 59.54 8.87 41.48 3.56
  Q 37.79 2.47 33.53 2.46
  Q 29.28 2.46 25.58 3.53
  Q 7.50 8.79 3.04 27.43
  Q 2.66 29.06 2.76 34.59
  C 2.91 42.89 6.51 51.85 10.55 58.74
  Q 19.11 73.27 33.07 86.63
  A 0.12 0.11 -12.2 0 0 33.12 86.66
  Q 33.26 86.69 33.40 86.69
  Z"
/>
<path fill="#597698" d="
  M 33.53 2.46
  Q 37.79 2.47 41.48 3.56
  Q 59.54 8.87 63.94 27.53
  Q 64.32 29.16 64.20 34.69
  C 64.02 42.99 60.40 51.94 56.33 58.81
  Q 47.73 73.32 33.72 86.63
  A 0.12 0.11 12.4 0 1 33.67 86.66
  Q 33.53 86.69 33.40 86.69
  Q 33.26 86.69 33.12 86.66
  A 0.12 0.11 -12.2 0 1 33.07 86.63
  Q 19.11 73.27 10.55 58.74
  C 6.51 51.85 2.91 42.89 2.76 34.59
  Q 2.66 29.06 3.04 27.43
  Q 7.50 8.79 25.58 3.53
  Q 29.28 2.46 33.53 2.46
  Z
  M 30.00 48.54
  L 30.00 43.16
  A 0.71 0.71 0.0 0 1 30.72 42.45
  Q 33.56 42.50 46.58 42.52
  Q 51.49 42.53 51.40 37.58
  Q 51.24 28.67 51.35 24.04
  C 51.42 20.66 50.85 18.49 47.28 18.49
  Q 19.21 18.48 18.25 18.54
  Q 14.59 18.75 14.63 22.48
  Q 14.71 28.35 14.64 37.13
  C 14.62 40.28 15.13 42.20 18.55 42.44
  Q 20.40 42.57 23.63 42.52
  A 1.34 1.33 -20.1 0 1 24.65 42.99
  L 29.52 48.72
  A 0.27 0.27 0.0 0 0 30.00 48.54
  Z"
/>
<path fill="#ffffff" d="
  M 30.00 48.54
  A 0.27 0.27 0.0 0 1 29.52 48.72
  L 24.65 42.99
  A 1.34 1.33 -20.1 0 0 23.63 42.52
  Q 20.40 42.57 18.55 42.44
  C 15.13 42.20 14.62 40.28 14.64 37.13
  Q 14.71 28.35 14.63 22.48
  Q 14.59 18.75 18.25 18.54
  Q 19.21 18.48 47.28 18.49
  C 50.85 18.49 51.42 20.66 51.35 24.04
  Q 51.24 28.67 51.40 37.58
  Q 51.49 42.53 46.58 42.52
  Q 33.56 42.50 30.72 42.45
  A 0.71 0.71 0.0 0 0 30.00 43.16
  L 30.00 48.54
  Z
  M 26.05 30.51
  A 2.20 2.20 0.0 0 0 23.85 28.31
  A 2.20 2.20 0.0 0 0 21.65 30.51
  A 2.20 2.20 0.0 0 0 23.85 32.71
  A 2.20 2.20 0.0 0 0 26.05 30.51
  Z
  M 35.18 30.51
  A 2.19 2.19 0.0 0 0 32.99 28.32
  A 2.19 2.19 0.0 0 0 30.80 30.51
  A 2.19 2.19 0.0 0 0 32.99 32.70
  A 2.19 2.19 0.0 0 0 35.18 30.51
  Z
  M 44.32 30.51
  A 2.20 2.20 0.0 0 0 42.12 28.31
  A 2.20 2.20 0.0 0 0 39.92 30.51
  A 2.20 2.20 0.0 0 0 42.12 32.71
  A 2.20 2.20 0.0 0 0 44.32 30.51
  Z"
/>
<circle fill="#597698" cx="23.85" cy="30.51" r="2.20"/>
<circle fill="#597698" cx="32.99" cy="30.51" r="2.19"/>
<circle fill="#597698" cx="42.12" cy="30.51" r="2.20"/>
</svg>
