<?xml version="1.0" encoding="UTF-8" standalone="no"?>
<!DOCTYPE svg PUBLIC "-//W3C//DTD SVG 1.1//EN" "http://www.w3.org/Graphics/SVG/1.1/DTD/svg11.dtd">
<svg xmlns="http://www.w3.org/2000/svg" version="1.1" viewBox="0.00 0.00 66.00 88.00">
<g stroke-width="2.00" fill="none" stroke-linecap="butt">
<path stroke="#171b29" vector-effect="non-scaling-stroke" d="
  M 33.29 85.96
  Q 33.40 85.96 33.52 85.87
  Q 36.73 83.45 40.13 79.82
  C 51.43 67.79 62.60 52.30 63.92 36.55
  Q 64.50 29.59 62.95 24.28
  C 59.17 11.38 46.86 2.51 33.56 2.46
  C 20.25 2.42 7.89 11.22 4.03 24.09
  Q 2.44 29.39 2.98 36.36
  C 4.20 52.12 15.27 67.68 26.50 79.78
  Q 29.87 83.43 33.07 85.86
  Q 33.19 85.96 33.29 85.96"
/>
<path stroke="#8e9099" vector-effect="non-scaling-stroke" d="
  M 33.18 29.11
  Q 32.90 28.14 32.97 27.29
  A 2.01 1.99 66.4 0 1 33.37 26.25
  C 35.22 23.78 38.55 20.88 35.54 17.62
  A 2.79 2.79 0.0 0 0 34.05 16.78
  L 32.18 16.41
  A 0.33 0.33 0.0 0 0 31.92 17.00
  Q 35.05 19.33 34.00 20.98
  C 32.38 23.50 29.50 26.61 32.83 29.34
  A 0.22 0.22 0.0 0 0 33.18 29.11"
/>
<path stroke="#8e9099" vector-effect="non-scaling-stroke" d="
  M 33.41 42.54
  Q 39.12 42.55 40.49 50.98
  A 0.63 0.63 0.0 0 0 41.11 51.51
  L 48.77 51.51
  A 0.61 0.61 0.0 0 0 49.38 50.90
  Q 49.30 42.62 43.73 36.69
  A 0.72 0.70 40.3 0 1 43.65 35.82
  C 47.43 29.95 48.91 23.62 42.54 18.86
  A 0.28 0.28 0.0 0 0 42.10 19.17
  C 43.68 24.51 43.51 29.20 39.14 32.86
  A 0.87 0.86 35.8 0 1 38.25 33.00
  Q 35.90 32.04 33.41 32.04
  Q 30.93 32.04 28.58 32.99
  A 0.87 0.86 -35.7 0 1 27.69 32.85
  C 23.32 29.19 23.16 24.50 24.75 19.16
  A 0.28 0.28 0.0 0 0 24.31 18.85
  C 17.93 23.60 19.40 29.93 23.17 35.81
  A 0.72 0.70 -40.2 0 1 23.09 36.68
  Q 17.52 42.60 17.42 50.88
  A 0.61 0.61 0.0 0 0 18.03 51.49
  L 25.69 51.50
  A 0.63 0.63 0.0 0 0 26.31 50.98
  Q 27.70 42.54 33.41 42.54"
/>
<path stroke="#8e9099" vector-effect="non-scaling-stroke" d="
  M 28.3591 38.0882
  A 3.87 2.31 -48.8 0 0 24.0719 39.4784
  A 3.87 2.31 -48.8 0 0 23.2609 43.9118
  A 3.87 2.31 -48.8 0 0 27.5481 42.5216
  A 3.87 2.31 -48.8 0 0 28.3591 38.0882"
/>
<path stroke="#8e9099" vector-effect="non-scaling-stroke" d="
  M 38.4860 38.0837
  A 3.87 2.31 -131.1 0 0 39.2893 42.5185
  A 3.87 2.31 -131.1 0 0 43.5740 43.9163
  A 3.87 2.31 -131.1 0 0 42.7707 39.4815
  A 3.87 2.31 -131.1 0 0 38.4860 38.0837"
/>
</g>
<path fill="#11141e" d="
  M 33.80 88.00
  L 33.04 88.00
  C 21.72 77.71 12.19 65.75 5.68 51.55
  Q 2.14 43.84 1.57 34.90
  C 0.26 14.33 18.43 -1.43 38.85 1.79
  C 51.80 3.83 61.99 13.68 64.80 26.29
  C 67.34 37.65 62.85 50.58 56.41 60.93
  Q 47.06 75.97 33.80 88.00
  Z
  M 33.29 85.96
  Q 33.40 85.96 33.52 85.87
  Q 36.73 83.45 40.13 79.82
  C 51.43 67.79 62.60 52.30 63.92 36.55
  Q 64.50 29.59 62.95 24.28
  C 59.17 11.38 46.86 2.51 33.56 2.46
  C 20.25 2.42 7.89 11.22 4.03 24.09
  Q 2.44 29.39 2.98 36.36
  C 4.20 52.12 15.27 67.68 26.50 79.78
  Q 29.87 83.43 33.07 85.86
  Q 33.19 85.96 33.29 85.96
  Z"
/>
<path fill="#1c2133" d="
  M 33.56 2.46
  C 46.86 2.51 59.17 11.38 62.95 24.28
  Q 64.50 29.59 63.92 36.55
  C 62.60 52.30 51.43 67.79 40.13 79.82
  Q 36.73 83.45 33.52 85.87
  Q 33.40 85.96 33.29 85.96
  Q 33.19 85.96 33.07 85.86
  Q 29.87 83.43 26.50 79.78
  C 15.27 67.68 4.20 52.12 2.98 36.36
  Q 2.44 29.39 4.03 24.09
  C 7.89 11.22 20.25 2.42 33.56 2.46
  Z
  M 33.18 29.11
  Q 32.90 28.14 32.97 27.29
  A 2.01 1.99 66.4 0 1 33.37 26.25
  C 35.22 23.78 38.55 20.88 35.54 17.62
  A 2.79 2.79 0.0 0 0 34.05 16.78
  L 32.18 16.41
  A 0.33 0.33 0.0 0 0 31.92 17.00
  Q 35.05 19.33 34.00 20.98
  C 32.38 23.50 29.50 26.61 32.83 29.34
  A 0.22 0.22 0.0 0 0 33.18 29.11
  Z
  M 33.41 42.54
  Q 39.12 42.55 40.49 50.98
  A 0.63 0.63 0.0 0 0 41.11 51.51
  L 48.77 51.51
  A 0.61 0.61 0.0 0 0 49.38 50.90
  Q 49.30 42.62 43.73 36.69
  A 0.72 0.70 40.3 0 1 43.65 35.82
  C 47.43 29.95 48.91 23.62 42.54 18.86
  A 0.28 0.28 0.0 0 0 42.10 19.17
  C 43.68 24.51 43.51 29.20 39.14 32.86
  A 0.87 0.86 35.8 0 1 38.25 33.00
  Q 35.90 32.04 33.41 32.04
  Q 30.93 32.04 28.58 32.99
  A 0.87 0.86 -35.7 0 1 27.69 32.85
  C 23.32 29.19 23.16 24.50 24.75 19.16
  A 0.28 0.28 0.0 0 0 24.31 18.85
  C 17.93 23.60 19.40 29.93 23.17 35.81
  A 0.72 0.70 -40.2 0 1 23.09 36.68
  Q 17.52 42.60 17.42 50.88
  A 0.61 0.61 0.0 0 0 18.03 51.49
  L 25.69 51.50
  A 0.63 0.63 0.0 0 0 26.31 50.98
  Q 27.70 42.54 33.41 42.54
  Z"
/>
<path fill="#ffffff" d="
  M 32.83 29.34
  C 29.50 26.61 32.38 23.50 34.00 20.98
  Q 35.05 19.33 31.92 17.00
  A 0.33 0.33 0.0 0 1 32.18 16.41
  L 34.05 16.78
  A 2.79 2.79 0.0 0 1 35.54 17.62
  C 38.55 20.88 35.22 23.78 33.37 26.25
  A 2.01 1.99 66.4 0 0 32.97 27.29
  Q 32.90 28.14 33.18 29.11
  A 0.22 0.22 0.0 0 1 32.83 29.34
  Z"
/>
<path fill="#ffffff" d="
  M 33.41 32.04
  Q 35.90 32.04 38.25 33.00
  A 0.87 0.86 35.8 0 0 39.14 32.86
  C 43.51 29.20 43.68 24.51 42.10 19.17
  A 0.28 0.28 0.0 0 1 42.54 18.86
  C 48.91 23.62 47.43 29.95 43.65 35.82
  A 0.72 0.70 40.3 0 0 43.73 36.69
  Q 49.30 42.62 49.38 50.90
  A 0.61 0.61 0.0 0 1 48.77 51.51
  L 41.11 51.51
  A 0.63 0.63 0.0 0 1 40.49 50.98
  Q 39.12 42.55 33.41 42.54
  Q 27.70 42.54 26.31 50.98
  A 0.63 0.63 0.0 0 1 25.69 51.50
  L 18.03 51.49
  A 0.61 0.61 0.0 0 1 17.42 50.88
  Q 17.52 42.60 23.09 36.68
  A 0.72 0.70 -40.2 0 0 23.17 35.81
  C 19.40 29.93 17.93 23.60 24.31 18.85
  A 0.28 0.28 0.0 0 1 24.75 19.16
  C 23.16 24.50 23.32 29.19 27.69 32.85
  A 0.87 0.86 -35.7 0 0 28.58 32.99
  Q 30.93 32.04 33.41 32.04
  Z
  M 28.3591 38.0882
  A 3.87 2.31 -48.8 0 0 24.0719 39.4784
  A 3.87 2.31 -48.8 0 0 23.2609 43.9118
  A 3.87 2.31 -48.8 0 0 27.5481 42.5216
  A 3.87 2.31 -48.8 0 0 28.3591 38.0882
  Z
  M 38.4860 38.0837
  A 3.87 2.31 -131.1 0 0 39.2893 42.5185
  A 3.87 2.31 -131.1 0 0 43.5740 43.9163
  A 3.87 2.31 -131.1 0 0 42.7707 39.4815
  A 3.87 2.31 -131.1 0 0 38.4860 38.0837
  Z"
/>
<ellipse fill="#1c2133" cx="0.00" cy="0.00" transform="translate(25.81,41.00) rotate(-48.8)" rx="3.87" ry="2.31"/>
<ellipse fill="#1c2133" cx="0.00" cy="0.00" transform="translate(41.03,41.00) rotate(-131.1)" rx="3.87" ry="2.31"/>
</svg>
