<?xml version="1.0" encoding="UTF-8" standalone="no"?>
<!DOCTYPE svg PUBLIC "-//W3C//DTD SVG 1.1//EN" "http://www.w3.org/Graphics/SVG/1.1/DTD/svg11.dtd">
<svg xmlns="http://www.w3.org/2000/svg" version="1.1" viewBox="0.00 0.00 66.00 88.00">
<g stroke-width="2.00" fill="none" stroke-linecap="butt">
<path stroke="#b67862" vector-effect="non-scaling-stroke" d="
  M 33.36 86.74
  Q 33.40 86.74 33.42 86.74
  A 0.11 0.01 -40.8 0 0 33.50 86.68
  Q 48.45 73.01 57.71 56.25
  C 64.78 43.45 67.69 27.34 58.54 15.19
  C 52.59 7.28 43.72 2.48 33.56 2.46
  C 23.41 2.43 14.52 7.18 8.52 15.07
  C -0.68 27.17 2.15 43.30 9.16 56.13
  Q 18.33 72.94 33.22 86.68
  A 0.11 0.01 41.1 0 0 33.30 86.74
  Q 33.32 86.74 33.36 86.74"
/>
<path stroke="#f8d0c2" vector-effect="non-scaling-stroke" d="
  M 43.95 36.96
  Q 46.92 37.48 50.36 36.05
  A 0.08 0.08 0.0 0 0 50.38 35.92
  L 43.83 30.20
  A 0.25 0.24 51.8 0 1 43.87 29.80
  Q 46.83 28.21 48.46 25.21
  A 0.28 0.28 0.0 0 0 48.09 24.82
  Q 46.33 25.64 43.24 24.57
  Q 42.39 24.27 39.80 24.65
  A 0.34 0.34 0.0 0 1 39.44 24.17
  Q 40.92 21.02 40.60 17.84
  A 0.33 0.33 0.0 0 0 40.01 17.66
  Q 38.44 19.62 35.25 20.52
  A 2.01 2.00 12.8 0 0 34.26 21.14
  L 33.26 22.29
  A 0.39 0.39 0.0 0 1 32.58 22.11
  Q 31.91 18.78 29.90 16.49
  A 0.37 0.37 0.0 0 0 29.29 16.58
  C 29.07 17.04 29.21 18.35 28.65 19.24
  Q 27.02 21.84 26.46 24.33
  A 0.38 0.37 -60.6 0 1 25.82 24.51
  Q 24.02 22.55 20.22 21.38
  A 0.27 0.26 -10.3 0 0 19.93 21.79
  Q 20.86 22.97 20.86 23.89
  Q 20.87 26.35 22.18 29.98
  A 0.30 0.30 0.0 0 1 21.85 30.38
  Q 18.94 29.93 15.54 31.31
  A 0.06 0.06 0.0 0 0 15.52 31.41
  L 22.05 37.12
  A 0.31 0.30 51.0 0 1 22.00 37.62
  Q 19.15 39.14 17.48 42.11
  A 0.32 0.31 -83.4 0 0 17.84 42.57
  C 19.20 42.19 19.92 41.94 21.59 42.50
  Q 23.80 43.25 26.12 42.66
  A 0.36 0.36 0.0 0 1 26.52 43.18
  Q 25.17 45.64 25.31 49.43
  A 0.15 0.15 0.0 0 0 25.53 49.55
  L 33.04 45.21
  A 0.24 0.23 -20.4 0 1 33.39 45.37
  Q 34.01 48.37 36.14 51.02
  A 0.06 0.06 0.0 0 0 36.24 51.00
  L 39.59 42.97
  A 0.33 0.33 0.0 0 1 40.13 42.86
  Q 42.39 45.12 45.49 45.90
  A 0.40 0.40 0.0 0 0 45.97 45.41
  C 45.81 44.81 45.09 44.21 45.01 43.05
  Q 44.76 39.08 43.66 37.41
  A 0.29 0.29 0.0 0 1 43.95 36.96"
/>
<path stroke="#f8d0c2" vector-effect="non-scaling-stroke" d="
  M 39.92 33.75
  A 6.95 6.95 0.0 0 0 32.97 26.80
  A 6.95 6.95 0.0 0 0 26.02 33.75
  A 6.95 6.95 0.0 0 0 32.97 40.70
  A 6.95 6.95 0.0 0 0 39.92 33.75"
/>
<path stroke="#f8d0c2" vector-effect="non-scaling-stroke" d="
  M 35.18 37.29
  Q 35.43 36.27 36.76 35.17
  A 0.79 0.78 58.0 0 0 36.97 34.25
  Q 36.30 32.75 36.37 31.62
  A 0.65 0.65 0.0 0 0 35.74 30.93
  Q 34.48 30.91 33.48 29.57
  A 0.60 0.60 0.0 0 0 32.50 29.60
  Q 31.60 30.95 30.16 30.91
  A 0.60 0.59 -3.3 0 0 29.56 31.58
  Q 29.74 33.02 29.00 34.21
  A 0.67 0.67 0.0 0 0 29.14 35.09
  Q 30.33 36.08 30.89 37.33
  A 0.59 0.59 0.0 0 0 31.69 37.62
  Q 32.85 37.06 34.39 37.69
  A 0.59 0.58 -71.5 0 0 35.18 37.29"
/>
</g>
<path fill="#7c4f40" d="
  M 33.79 88.00
  L 32.98 88.00
  C 22.05 77.96 11.93 65.52 5.65 51.56
  Q 2.13 43.72 1.59 34.89
  C 0.02 9.34 27.40 -6.59 49.25 5.42
  Q 55.34 8.77 59.27 14.17
  Q 67.40 25.33 64.93 39.27
  Q 62.71 51.76 55.18 63.13
  Q 46.10 76.83 33.79 88.00
  Z
  M 33.36 86.74
  Q 33.40 86.74 33.42 86.74
  A 0.11 0.01 -40.8 0 0 33.50 86.68
  Q 48.45 73.01 57.71 56.25
  C 64.78 43.45 67.69 27.34 58.54 15.19
  C 52.59 7.28 43.72 2.48 33.56 2.46
  C 23.41 2.43 14.52 7.18 8.52 15.07
  C -0.68 27.17 2.15 43.30 9.16 56.13
  Q 18.33 72.94 33.22 86.68
  A 0.11 0.01 41.1 0 0 33.30 86.74
  Q 33.32 86.74 33.36 86.74
  Z"
/>
<path fill="#f0a084" d="
  M 33.56 2.46
  C 43.72 2.48 52.59 7.28 58.54 15.19
  C 67.69 27.34 64.78 43.45 57.71 56.25
  Q 48.45 73.01 33.50 86.68
  A 0.11 0.01 -40.8 0 1 33.42 86.74
  Q 33.40 86.74 33.36 86.74
  Q 33.32 86.74 33.30 86.74
  A 0.11 0.01 41.1 0 1 33.22 86.68
  Q 18.33 72.94 9.16 56.13
  C 2.15 43.30 -0.68 27.17 8.52 15.07
  C 14.52 7.18 23.41 2.43 33.56 2.46
  Z
  M 43.95 36.96
  Q 46.92 37.48 50.36 36.05
  A 0.08 0.08 0.0 0 0 50.38 35.92
  L 43.83 30.20
  A 0.25 0.24 51.8 0 1 43.87 29.80
  Q 46.83 28.21 48.46 25.21
  A 0.28 0.28 0.0 0 0 48.09 24.82
  Q 46.33 25.64 43.24 24.57
  Q 42.39 24.27 39.80 24.65
  A 0.34 0.34 0.0 0 1 39.44 24.17
  Q 40.92 21.02 40.60 17.84
  A 0.33 0.33 0.0 0 0 40.01 17.66
  Q 38.44 19.62 35.25 20.52
  A 2.01 2.00 12.8 0 0 34.26 21.14
  L 33.26 22.29
  A 0.39 0.39 0.0 0 1 32.58 22.11
  Q 31.91 18.78 29.90 16.49
  A 0.37 0.37 0.0 0 0 29.29 16.58
  C 29.07 17.04 29.21 18.35 28.65 19.24
  Q 27.02 21.84 26.46 24.33
  A 0.38 0.37 -60.6 0 1 25.82 24.51
  Q 24.02 22.55 20.22 21.38
  A 0.27 0.26 -10.3 0 0 19.93 21.79
  Q 20.86 22.97 20.86 23.89
  Q 20.87 26.35 22.18 29.98
  A 0.30 0.30 0.0 0 1 21.85 30.38
  Q 18.94 29.93 15.54 31.31
  A 0.06 0.06 0.0 0 0 15.52 31.41
  L 22.05 37.12
  A 0.31 0.30 51.0 0 1 22.00 37.62
  Q 19.15 39.14 17.48 42.11
  A 0.32 0.31 -83.4 0 0 17.84 42.57
  C 19.20 42.19 19.92 41.94 21.59 42.50
  Q 23.80 43.25 26.12 42.66
  A 0.36 0.36 0.0 0 1 26.52 43.18
  Q 25.17 45.64 25.31 49.43
  A 0.15 0.15 0.0 0 0 25.53 49.55
  L 33.04 45.21
  A 0.24 0.23 -20.4 0 1 33.39 45.37
  Q 34.01 48.37 36.14 51.02
  A 0.06 0.06 0.0 0 0 36.24 51.00
  L 39.59 42.97
  A 0.33 0.33 0.0 0 1 40.13 42.86
  Q 42.39 45.12 45.49 45.90
  A 0.40 0.40 0.0 0 0 45.97 45.41
  C 45.81 44.81 45.09 44.21 45.01 43.05
  Q 44.76 39.08 43.66 37.41
  A 0.29 0.29 0.0 0 1 43.95 36.96
  Z"
/>
<path fill="#ffffff" d="
  M 43.66 37.41
  Q 44.76 39.08 45.01 43.05
  C 45.09 44.21 45.81 44.81 45.97 45.41
  A 0.40 0.40 0.0 0 1 45.49 45.90
  Q 42.39 45.12 40.13 42.86
  A 0.33 0.33 0.0 0 0 39.59 42.97
  L 36.24 51.00
  A 0.06 0.06 0.0 0 1 36.14 51.02
  Q 34.01 48.37 33.39 45.37
  A 0.24 0.23 -20.4 0 0 33.04 45.21
  L 25.53 49.55
  A 0.15 0.15 0.0 0 1 25.31 49.43
  Q 25.17 45.64 26.52 43.18
  A 0.36 0.36 0.0 0 0 26.12 42.66
  Q 23.80 43.25 21.59 42.50
  C 19.92 41.94 19.20 42.19 17.84 42.57
  A 0.32 0.31 -83.4 0 1 17.48 42.11
  Q 19.15 39.14 22.00 37.62
  A 0.31 0.30 51.0 0 0 22.05 37.12
  L 15.52 31.41
  A 0.06 0.06 0.0 0 1 15.54 31.31
  Q 18.94 29.93 21.85 30.38
  A 0.30 0.30 0.0 0 0 22.18 29.98
  Q 20.87 26.35 20.86 23.89
  Q 20.86 22.97 19.93 21.79
  A 0.27 0.26 -10.3 0 1 20.22 21.38
  Q 24.02 22.55 25.82 24.51
  A 0.38 0.37 -60.6 0 0 26.46 24.33
  Q 27.02 21.84 28.65 19.24
  C 29.21 18.35 29.07 17.04 29.29 16.58
  A 0.37 0.37 0.0 0 1 29.90 16.49
  Q 31.91 18.78 32.58 22.11
  A 0.39 0.39 0.0 0 0 33.26 22.29
  L 34.26 21.14
  A 2.01 2.00 12.8 0 1 35.25 20.52
  Q 38.44 19.62 40.01 17.66
  A 0.33 0.33 0.0 0 1 40.60 17.84
  Q 40.92 21.02 39.44 24.17
  A 0.34 0.34 0.0 0 0 39.80 24.65
  Q 42.39 24.27 43.24 24.57
  Q 46.33 25.64 48.09 24.82
  A 0.28 0.28 0.0 0 1 48.46 25.21
  Q 46.83 28.21 43.87 29.80
  A 0.25 0.24 51.8 0 0 43.83 30.20
  L 50.38 35.92
  A 0.08 0.08 0.0 0 1 50.36 36.05
  Q 46.92 37.48 43.95 36.96
  A 0.29 0.29 0.0 0 0 43.66 37.41
  Z
  M 39.92 33.75
  A 6.95 6.95 0.0 0 0 32.97 26.80
  A 6.95 6.95 0.0 0 0 26.02 33.75
  A 6.95 6.95 0.0 0 0 32.97 40.70
  A 6.95 6.95 0.0 0 0 39.92 33.75
  Z"
/>
<path fill="#f0a084" d="
  M 39.92 33.75
  A 6.95 6.95 0.0 0 1 32.97 40.70
  A 6.95 6.95 0.0 0 1 26.02 33.75
  A 6.95 6.95 0.0 0 1 32.97 26.80
  A 6.95 6.95 0.0 0 1 39.92 33.75
  Z
  M 35.18 37.29
  Q 35.43 36.27 36.76 35.17
  A 0.79 0.78 58.0 0 0 36.97 34.25
  Q 36.30 32.75 36.37 31.62
  A 0.65 0.65 0.0 0 0 35.74 30.93
  Q 34.48 30.91 33.48 29.57
  A 0.60 0.60 0.0 0 0 32.50 29.60
  Q 31.60 30.95 30.16 30.91
  A 0.60 0.59 -3.3 0 0 29.56 31.58
  Q 29.74 33.02 29.00 34.21
  A 0.67 0.67 0.0 0 0 29.14 35.09
  Q 30.33 36.08 30.89 37.33
  A 0.59 0.59 0.0 0 0 31.69 37.62
  Q 32.85 37.06 34.39 37.69
  A 0.59 0.58 -71.5 0 0 35.18 37.29
  Z"
/>
<path fill="#ffffff" d="
  M 34.39 37.69
  Q 32.85 37.06 31.69 37.62
  A 0.59 0.59 0.0 0 1 30.89 37.33
  Q 30.33 36.08 29.14 35.09
  A 0.67 0.67 0.0 0 1 29.00 34.21
  Q 29.74 33.02 29.56 31.58
  A 0.60 0.59 -3.3 0 1 30.16 30.91
  Q 31.60 30.95 32.50 29.60
  A 0.60 0.60 0.0 0 1 33.48 29.57
  Q 34.48 30.91 35.74 30.93
  A 0.65 0.65 0.0 0 1 36.37 31.62
  Q 36.30 32.75 36.97 34.25
  A 0.79 0.78 58.0 0 1 36.76 35.17
  Q 35.43 36.27 35.18 37.29
  A 0.59 0.58 -71.5 0 1 34.39 37.69
  Z"
/>
</svg>
