<?xml version="1.0" encoding="UTF-8" standalone="no"?>
<!DOCTYPE svg PUBLIC "-//W3C//DTD SVG 1.1//EN" "http://www.w3.org/Graphics/SVG/1.1/DTD/svg11.dtd">
<svg xmlns="http://www.w3.org/2000/svg" version="1.1" viewBox="0.00 0.00 66.00 88.00">
<g stroke-width="2.00" fill="none" stroke-linecap="butt">
<path stroke="#171b2a" vector-effect="non-scaling-stroke" d="
  M 33.34 85.79
  Q 33.49 85.79 33.66 85.67
  Q 36.64 83.60 39.76 80.25
  C 49.96 69.29 58.05 58.23 62.21 44.80
  C 67.69 27.14 60.60 10.27 42.99 4.02
  Q 38.58 2.45 33.45 2.44
  Q 28.32 2.43 23.90 3.99
  C 6.28 10.20 -0.85 27.05 4.58 44.73
  C 8.71 58.17 16.77 69.25 26.94 80.23
  Q 30.05 83.59 33.03 85.67
  Q 33.20 85.79 33.34 85.79"
/>
<path stroke="#8e9099" vector-effect="non-scaling-stroke" d="
  M 36.67 23.22
  A 0.79 0.77 -67.0 0 1 37.22 22.99
  L 46.69 22.99
  A 0.13 0.13 0.0 0 0 46.79 22.77
  L 43.46 19.44
  A 0.68 0.64 -21.3 0 0 42.99 19.25
  L 23.37 19.25
  A 1.62 1.60 22.3 0 0 22.23 19.72
  L 19.41 22.54
  A 0.28 0.28 0.0 0 0 19.61 23.02
  L 31.55 23.02
  A 0.07 0.07 0.0 0 1 31.60 23.14
  L 27.48 27.26
  A 0.65 0.62 -66.6 0 1 27.03 27.45
  Q 25.02 27.52 18.02 27.48
  Q 15.87 27.47 14.94 29.00
  A 1.86 1.85 61.1 0 0 14.68 29.91
  Q 14.65 35.89 14.66 45.26
  C 14.67 47.28 15.12 48.52 17.51 48.51
  Q 45.39 48.46 48.19 48.54
  C 50.61 48.61 51.32 47.53 51.32 45.24
  Q 51.34 39.94 51.34 31.13
  C 51.34 28.82 50.68 27.54 48.24 27.51
  Q 43.91 27.46 32.59 27.50
  A 0.08 0.08 0.0 0 1 32.53 27.36
  L 36.67 23.22"
/>
<path stroke="#8e9099" vector-effect="non-scaling-stroke" d="
  M 47.67 31.62
  A 0.37 0.37 0.0 0 0 47.30 31.25
  L 18.70 31.25
  A 0.37 0.37 0.0 0 0 18.33 31.62
  L 18.33 44.62
  A 0.37 0.37 0.0 0 0 18.70 44.99
  L 47.30 44.99
  A 0.37 0.37 0.0 0 0 47.67 44.62
  L 47.67 31.62"
/>
<path stroke="#8e9099" vector-effect="non-scaling-stroke" d="
  M 24.3926 34.0302
  A 3.57 2.70 -90.6 0 0 21.7301 37.6283
  A 3.57 2.70 -90.6 0 0 24.4674 41.1698
  A 3.57 2.70 -90.6 0 0 27.1299 37.5717
  A 3.57 2.70 -90.6 0 0 24.3926 34.0302"
/>
<path stroke="#8e9099" vector-effect="non-scaling-stroke" d="
  M 32.9588 34.0401
  A 3.57 2.71 -90.5 0 0 30.2801 37.6336
  A 3.57 2.71 -90.5 0 0 33.0212 41.1799
  A 3.57 2.71 -90.5 0 0 35.6999 37.5864
  A 3.57 2.71 -90.5 0 0 32.9588 34.0401"
/>
<path stroke="#8e9099" vector-effect="non-scaling-stroke" d="
  M 41.5600 34.0300
  A 3.57 2.71 -90.0 0 0 38.8500 37.6000
  A 3.57 2.71 -90.0 0 0 41.5600 41.1700
  A 3.57 2.71 -90.0 0 0 44.2700 37.6000
  A 3.57 2.71 -90.0 0 0 41.5600 34.0300"
/>
</g>
<path fill="#121520" d="
  M 33.81 88.00
  L 33.04 88.00
  C 21.78 77.76 12.07 65.64 5.64 51.57
  C 1.04 41.48 -0.45 28.41 5.12 18.28
  C 14.14 1.86 34.62 -3.72 50.59 6.27
  Q 62.20 13.54 64.86 26.81
  C 69.32 49.11 49.18 73.99 33.81 88.00
  Z
  M 33.34 85.79
  Q 33.49 85.79 33.66 85.67
  Q 36.64 83.60 39.76 80.25
  C 49.96 69.29 58.05 58.23 62.21 44.80
  C 67.69 27.14 60.60 10.27 42.99 4.02
  Q 38.58 2.45 33.45 2.44
  Q 28.32 2.43 23.90 3.99
  C 6.28 10.20 -0.85 27.05 4.58 44.73
  C 8.71 58.17 16.77 69.25 26.94 80.23
  Q 30.05 83.59 33.03 85.67
  Q 33.20 85.79 33.34 85.79
  Z"
/>
<path fill="#1c2133" d="
  M 33.45 2.44
  Q 38.58 2.45 42.99 4.02
  C 60.60 10.27 67.69 27.14 62.21 44.80
  C 58.05 58.23 49.96 69.29 39.76 80.25
  Q 36.64 83.60 33.66 85.67
  Q 33.49 85.79 33.34 85.79
  Q 33.20 85.79 33.03 85.67
  Q 30.05 83.59 26.94 80.23
  C 16.77 69.25 8.71 58.17 4.58 44.73
  C -0.85 27.05 6.28 10.20 23.90 3.99
  Q 28.32 2.43 33.45 2.44
  Z
  M 36.67 23.22
  A 0.79 0.77 -67.0 0 1 37.22 22.99
  L 46.69 22.99
  A 0.13 0.13 0.0 0 0 46.79 22.77
  L 43.46 19.44
  A 0.68 0.64 -21.3 0 0 42.99 19.25
  L 23.37 19.25
  A 1.62 1.60 22.3 0 0 22.23 19.72
  L 19.41 22.54
  A 0.28 0.28 0.0 0 0 19.61 23.02
  L 31.55 23.02
  A 0.07 0.07 0.0 0 1 31.60 23.14
  L 27.48 27.26
  A 0.65 0.62 -66.6 0 1 27.03 27.45
  Q 25.02 27.52 18.02 27.48
  Q 15.87 27.47 14.94 29.00
  A 1.86 1.85 61.1 0 0 14.68 29.91
  Q 14.65 35.89 14.66 45.26
  C 14.67 47.28 15.12 48.52 17.51 48.51
  Q 45.39 48.46 48.19 48.54
  C 50.61 48.61 51.32 47.53 51.32 45.24
  Q 51.34 39.94 51.34 31.13
  C 51.34 28.82 50.68 27.54 48.24 27.51
  Q 43.91 27.46 32.59 27.50
  A 0.08 0.08 0.0 0 1 32.53 27.36
  L 36.67 23.22
  Z"
/>
<path fill="#ffffff" d="
  M 36.67 23.22
  L 32.53 27.36
  A 0.08 0.08 0.0 0 0 32.59 27.50
  Q 43.91 27.46 48.24 27.51
  C 50.68 27.54 51.34 28.82 51.34 31.13
  Q 51.34 39.94 51.32 45.24
  C 51.32 47.53 50.61 48.61 48.19 48.54
  Q 45.39 48.46 17.51 48.51
  C 15.12 48.52 14.67 47.28 14.66 45.26
  Q 14.65 35.89 14.68 29.91
  A 1.86 1.85 61.1 0 1 14.94 29.00
  Q 15.87 27.47 18.02 27.48
  Q 25.02 27.52 27.03 27.45
  A 0.65 0.62 -66.6 0 0 27.48 27.26
  L 31.60 23.14
  A 0.07 0.07 0.0 0 0 31.55 23.02
  L 19.61 23.02
  A 0.28 0.28 0.0 0 1 19.41 22.54
  L 22.23 19.72
  A 1.62 1.60 22.3 0 1 23.37 19.25
  L 42.99 19.25
  A 0.68 0.64 -21.3 0 1 43.46 19.44
  L 46.79 22.77
  A 0.13 0.13 0.0 0 1 46.69 22.99
  L 37.22 22.99
  A 0.79 0.77 -67.0 0 0 36.67 23.22
  Z
  M 47.67 31.62
  A 0.37 0.37 0.0 0 0 47.30 31.25
  L 18.70 31.25
  A 0.37 0.37 0.0 0 0 18.33 31.62
  L 18.33 44.62
  A 0.37 0.37 0.0 0 0 18.70 44.99
  L 47.30 44.99
  A 0.37 0.37 0.0 0 0 47.67 44.62
  L 47.67 31.62
  Z"
/>
<path fill="#1c2133" d="
  M 47.67 44.62
  A 0.37 0.37 0.0 0 1 47.30 44.99
  L 18.70 44.99
  A 0.37 0.37 0.0 0 1 18.33 44.62
  L 18.33 31.62
  A 0.37 0.37 0.0 0 1 18.70 31.25
  L 47.30 31.25
  A 0.37 0.37 0.0 0 1 47.67 31.62
  L 47.67 44.62
  Z
  M 24.3926 34.0302
  A 3.57 2.70 -90.6 0 0 21.7301 37.6283
  A 3.57 2.70 -90.6 0 0 24.4674 41.1698
  A 3.57 2.70 -90.6 0 0 27.1299 37.5717
  A 3.57 2.70 -90.6 0 0 24.3926 34.0302
  Z
  M 32.9588 34.0401
  A 3.57 2.71 -90.5 0 0 30.2801 37.6336
  A 3.57 2.71 -90.5 0 0 33.0212 41.1799
  A 3.57 2.71 -90.5 0 0 35.6999 37.5864
  A 3.57 2.71 -90.5 0 0 32.9588 34.0401
  Z
  M 41.5600 34.0300
  A 3.57 2.71 -90.0 0 0 38.8500 37.6000
  A 3.57 2.71 -90.0 0 0 41.5600 41.1700
  A 3.57 2.71 -90.0 0 0 44.2700 37.6000
  A 3.57 2.71 -90.0 0 0 41.5600 34.0300
  Z"
/>
<ellipse fill="#ffffff" cx="0.00" cy="0.00" transform="translate(24.43,37.60) rotate(-90.6)" rx="3.57" ry="2.70"/>
<ellipse fill="#ffffff" cx="0.00" cy="0.00" transform="translate(32.99,37.61) rotate(-90.5)" rx="3.57" ry="2.71"/>
<ellipse fill="#ffffff" cx="0.00" cy="0.00" transform="translate(41.56,37.60) rotate(-90.0)" rx="3.57" ry="2.71"/>
</svg>
