<?xml version="1.0" encoding="UTF-8" standalone="no"?>
<!DOCTYPE svg PUBLIC "-//W3C//DTD SVG 1.1//EN" "http://www.w3.org/Graphics/SVG/1.1/DTD/svg11.dtd">
<svg xmlns="http://www.w3.org/2000/svg" version="1.1" viewBox="0.00 0.00 66.00 88.00">
<g stroke-width="2.00" fill="none" stroke-linecap="butt">
<path stroke="#395b66" vector-effect="non-scaling-stroke" d="
  M 33.40 86.69
  Q 33.54 86.69 33.67 86.65
  A 0.08 0.07 -67.7 0 0 33.72 86.63
  Q 48.64 72.73 57.54 56.51
  C 67.28 38.76 67.97 18.12 48.74 6.52
  Q 42.03 2.47 33.53 2.46
  Q 25.04 2.45 18.31 6.48
  C -0.95 18.01 -0.33 38.65 9.36 56.43
  Q 18.20 72.68 33.08 86.63
  A 0.08 0.07 67.9 0 0 33.12 86.65
  Q 33.26 86.69 33.40 86.69"
/>
<path stroke="#a6bbc3" vector-effect="non-scaling-stroke" d="
  M 29.92 40.69
  A 0.32 0.32 0.0 0 0 30.25 40.61
  L 44.08 26.78
  A 0.32 0.32 0.0 0 0 43.96 26.25
  L 30.64 21.87
  A 0.32 0.32 0.0 0 0 30.34 21.93
  L 14.79 34.42
  A 0.32 0.32 0.0 0 0 14.67 34.67
  L 14.67 40.77
  A 0.32 0.32 0.0 0 0 14.89 41.07
  L 30.57 46.23
  A 0.32 0.32 0.0 0 0 30.90 46.15
  L 38.76 38.28
  A 0.32 0.32 0.0 0 0 38.64 37.75
  L 37.29 37.30
  A 0.32 0.32 0.0 0 0 36.96 37.38
  L 30.35 43.99
  A 0.32 0.32 0.0 0 1 30.02 44.07
  L 16.77 39.71
  A 0.32 0.32 0.0 0 1 16.55 39.41
  L 16.55 36.73
  A 0.32 0.32 0.0 0 1 16.97 36.43
  L 29.92 40.69"
/>
<path stroke="#a6bbc3" vector-effect="non-scaling-stroke" d="
  M 41.18 35.24
  L 48.63 37.69
  A 0.34 0.34 0.0 0 0 49.03 37.19
  L 48.27 35.87
  A 0.59 0.59 0.0 0 1 48.67 34.99
  L 50.41 34.68
  A 0.34 0.34 0.0 0 0 50.46 34.02
  L 44.37 32.02
  A 0.61 0.58 30.7 0 0 43.77 32.16
  L 41.08 34.85
  A 0.24 0.23 31.2 0 0 41.18 35.24"
/>
</g>
<path fill="#243e45" d="
  M 33.78 88.00
  L 33.04 88.00
  C 22.21 78.22 11.92 65.54 5.75 51.76
  Q 2.15 43.72 1.56 34.96
  C 0.48 19.06 11.03 5.91 26.41 2.11
  C 37.26 -0.57 49.52 3.29 57.20 11.70
  C 69.76 25.45 66.42 43.75 57.56 58.85
  Q 47.97 75.16 33.78 88.00
  Z
  M 33.40 86.69
  Q 33.54 86.69 33.67 86.65
  A 0.08 0.07 -67.7 0 0 33.72 86.63
  Q 48.64 72.73 57.54 56.51
  C 67.28 38.76 67.97 18.12 48.74 6.52
  Q 42.03 2.47 33.53 2.46
  Q 25.04 2.45 18.31 6.48
  C -0.95 18.01 -0.33 38.65 9.36 56.43
  Q 18.20 72.68 33.08 86.63
  A 0.08 0.07 67.9 0 0 33.12 86.65
  Q 33.26 86.69 33.40 86.69
  Z"
/>
<path fill="#4d7787" d="
  M 33.53 2.46
  Q 42.03 2.47 48.74 6.52
  C 67.97 18.12 67.28 38.76 57.54 56.51
  Q 48.64 72.73 33.72 86.63
  A 0.08 0.07 -67.7 0 1 33.67 86.65
  Q 33.54 86.69 33.40 86.69
  Q 33.26 86.69 33.12 86.65
  A 0.08 0.07 67.9 0 1 33.08 86.63
  Q 18.20 72.68 9.36 56.43
  C -0.33 38.65 -0.95 18.01 18.31 6.48
  Q 25.04 2.45 33.53 2.46
  Z
  M 29.92 40.69
  A 0.32 0.32 0.0 0 0 30.25 40.61
  L 44.08 26.78
  A 0.32 0.32 0.0 0 0 43.96 26.25
  L 30.64 21.87
  A 0.32 0.32 0.0 0 0 30.34 21.93
  L 14.79 34.42
  A 0.32 0.32 0.0 0 0 14.67 34.67
  L 14.67 40.77
  A 0.32 0.32 0.0 0 0 14.89 41.07
  L 30.57 46.23
  A 0.32 0.32 0.0 0 0 30.90 46.15
  L 38.76 38.28
  A 0.32 0.32 0.0 0 0 38.64 37.75
  L 37.29 37.30
  A 0.32 0.32 0.0 0 0 36.96 37.38
  L 30.35 43.99
  A 0.32 0.32 0.0 0 1 30.02 44.07
  L 16.77 39.71
  A 0.32 0.32 0.0 0 1 16.55 39.41
  L 16.55 36.73
  A 0.32 0.32 0.0 0 1 16.97 36.43
  L 29.92 40.69
  Z
  M 41.18 35.24
  L 48.63 37.69
  A 0.34 0.34 0.0 0 0 49.03 37.19
  L 48.27 35.87
  A 0.59 0.59 0.0 0 1 48.67 34.99
  L 50.41 34.68
  A 0.34 0.34 0.0 0 0 50.46 34.02
  L 44.37 32.02
  A 0.61 0.58 30.7 0 0 43.77 32.16
  L 41.08 34.85
  A 0.24 0.23 31.2 0 0 41.18 35.24
  Z"
/>
<path fill="#ffffff" d="
  M 29.92 40.69
  L 16.97 36.43
  A 0.32 0.32 0.0 0 0 16.55 36.73
  L 16.55 39.41
  A 0.32 0.32 0.0 0 0 16.77 39.71
  L 30.02 44.07
  A 0.32 0.32 0.0 0 0 30.35 43.99
  L 36.96 37.38
  A 0.32 0.32 0.0 0 1 37.29 37.30
  L 38.64 37.75
  A 0.32 0.32 0.0 0 1 38.76 38.28
  L 30.90 46.15
  A 0.32 0.32 0.0 0 1 30.57 46.23
  L 14.89 41.07
  A 0.32 0.32 0.0 0 1 14.67 40.77
  L 14.67 34.67
  A 0.32 0.32 0.0 0 1 14.79 34.42
  L 30.34 21.93
  A 0.32 0.32 0.0 0 1 30.64 21.87
  L 43.96 26.25
  A 0.32 0.32 0.0 0 1 44.08 26.78
  L 30.25 40.61
  A 0.32 0.32 0.0 0 1 29.92 40.69
  Z"
/>
<path fill="#ffffff" d="
  M 41.18 35.24
  A 0.24 0.23 31.2 0 1 41.08 34.85
  L 43.77 32.16
  A 0.61 0.58 30.7 0 1 44.37 32.02
  L 50.46 34.02
  A 0.34 0.34 0.0 0 1 50.41 34.68
  L 48.67 34.99
  A 0.59 0.59 0.0 0 0 48.27 35.87
  L 49.03 37.19
  A 0.34 0.34 0.0 0 1 48.63 37.69
  L 41.18 35.24
  Z"
/>
</svg>
