<?xml version="1.0" encoding="UTF-8" standalone="no"?>
<!DOCTYPE svg PUBLIC "-//W3C//DTD SVG 1.1//EN" "http://www.w3.org/Graphics/SVG/1.1/DTD/svg11.dtd">
<svg xmlns="http://www.w3.org/2000/svg" version="1.1" viewBox="0.00 0.00 66.00 88.00">
<g stroke-width="2.00" fill="none" stroke-linecap="butt">
<path stroke="#9e3c35" vector-effect="non-scaling-stroke" d="
  M 33.41 86.71
  Q 33.52 86.71 33.62 86.69
  Q 33.67 86.68 33.78 86.57
  C 50.22 71.25 74.50 40.57 59.76 17.01
  C 54.16 8.06 44.17 2.47 33.53 2.46
  C 22.88 2.44 12.88 8.00 7.25 16.94
  C -7.55 40.46 16.64 71.20 33.04 86.57
  Q 33.15 86.68 33.20 86.69
  Q 33.30 86.71 33.41 86.71"
/>
<path stroke="#e8a8a4" vector-effect="non-scaling-stroke" d="
  M 33.02 52.17
  C 35.13 52.16 38.15 49.14 39.81 47.57
  Q 42.84 44.68 46.97 44.43
  A 0.43 0.42 -24.9 0 0 47.24 43.70
  C 44.51 41.11 43.53 39.45 45.26 35.52
  Q 48.53 28.11 45.36 20.05
  Q 44.42 17.66 42.91 16.45
  A 0.21 0.21 0.0 0 0 42.57 16.67
  Q 45.01 25.73 39.92 32.03
  Q 37.10 35.51 33.00 35.52
  Q 28.91 35.52 26.08 32.04
  Q 20.98 25.75 23.41 16.69
  A 0.21 0.21 0.0 0 0 23.07 16.47
  Q 21.56 17.68 20.62 20.07
  Q 17.47 28.14 20.75 35.54
  C 22.49 39.47 21.51 41.13 18.78 43.73
  A 0.43 0.42 24.8 0 0 19.06 44.46
  Q 23.19 44.70 26.23 47.58
  C 27.88 49.15 30.91 52.17 33.02 52.17"
/>
<path stroke="#e8a8a4" vector-effect="non-scaling-stroke" d="
  M 27.6589 43.5194
  A 3.21 1.62 -123.7 0 0 28.0922 47.0888
  A 3.21 1.62 -123.7 0 0 31.2211 48.8606
  A 3.21 1.62 -123.7 0 0 30.7878 45.2912
  A 3.21 1.62 -123.7 0 0 27.6589 43.5194"
/>
<path stroke="#e8a8a4" vector-effect="non-scaling-stroke" d="
  M 38.4002 43.5217
  A 3.23 1.61 -55.7 0 0 35.2500 45.2827
  A 3.23 1.61 -55.7 0 0 34.7598 48.8583
  A 3.23 1.61 -55.7 0 0 37.9100 47.0973
  A 3.23 1.61 -55.7 0 0 38.4002 43.5217"
/>
</g>
<path fill="#6c2722" d="
  M 33.79 88.00
  L 33.04 88.00
  C 16.42 72.97 -7.13 43.16 4.65 19.15
  C 11.40 5.38 27.18 -1.57 41.94 2.45
  C 53.72 5.66 63.02 15.40 64.94 27.19
  Q 66.56 37.10 63.05 47.03
  C 57.51 62.70 46.01 76.93 33.79 88.00
  Z
  M 33.41 86.71
  Q 33.52 86.71 33.62 86.69
  Q 33.67 86.68 33.78 86.57
  C 50.22 71.25 74.50 40.57 59.76 17.01
  C 54.16 8.06 44.17 2.47 33.53 2.46
  C 22.88 2.44 12.88 8.00 7.25 16.94
  C -7.55 40.46 16.64 71.20 33.04 86.57
  Q 33.15 86.68 33.20 86.69
  Q 33.30 86.71 33.41 86.71
  Z"
/>
<path fill="#d05148" d="
  M 33.53 2.46
  C 44.17 2.47 54.16 8.06 59.76 17.01
  C 74.50 40.57 50.22 71.25 33.78 86.57
  Q 33.67 86.68 33.62 86.69
  Q 33.52 86.71 33.41 86.71
  Q 33.30 86.71 33.20 86.69
  Q 33.15 86.68 33.04 86.57
  C 16.64 71.20 -7.55 40.46 7.25 16.94
  C 12.88 8.00 22.88 2.44 33.53 2.46
  Z
  M 33.02 52.17
  C 35.13 52.16 38.15 49.14 39.81 47.57
  Q 42.84 44.68 46.97 44.43
  A 0.43 0.42 -24.9 0 0 47.24 43.70
  C 44.51 41.11 43.53 39.45 45.26 35.52
  Q 48.53 28.11 45.36 20.05
  Q 44.42 17.66 42.91 16.45
  A 0.21 0.21 0.0 0 0 42.57 16.67
  Q 45.01 25.73 39.92 32.03
  Q 37.10 35.51 33.00 35.52
  Q 28.91 35.52 26.08 32.04
  Q 20.98 25.75 23.41 16.69
  A 0.21 0.21 0.0 0 0 23.07 16.47
  Q 21.56 17.68 20.62 20.07
  Q 17.47 28.14 20.75 35.54
  C 22.49 39.47 21.51 41.13 18.78 43.73
  A 0.43 0.42 24.8 0 0 19.06 44.46
  Q 23.19 44.70 26.23 47.58
  C 27.88 49.15 30.91 52.17 33.02 52.17
  Z"
/>
<path fill="#ffffff" d="
  M 33.00 35.52
  Q 37.10 35.51 39.92 32.03
  Q 45.01 25.73 42.57 16.67
  A 0.21 0.21 0.0 0 1 42.91 16.45
  Q 44.42 17.66 45.36 20.05
  Q 48.53 28.11 45.26 35.52
  C 43.53 39.45 44.51 41.11 47.24 43.70
  A 0.43 0.42 -24.9 0 1 46.97 44.43
  Q 42.84 44.68 39.81 47.57
  C 38.15 49.14 35.13 52.16 33.02 52.17
  C 30.91 52.17 27.88 49.15 26.23 47.58
  Q 23.19 44.70 19.06 44.46
  A 0.43 0.42 24.8 0 1 18.78 43.73
  C 21.51 41.13 22.49 39.47 20.75 35.54
  Q 17.47 28.14 20.62 20.07
  Q 21.56 17.68 23.07 16.47
  A 0.21 0.21 0.0 0 1 23.41 16.69
  Q 20.98 25.75 26.08 32.04
  Q 28.91 35.52 33.00 35.52
  Z
  M 27.6589 43.5194
  A 3.21 1.62 -123.7 0 0 28.0922 47.0888
  A 3.21 1.62 -123.7 0 0 31.2211 48.8606
  A 3.21 1.62 -123.7 0 0 30.7878 45.2912
  A 3.21 1.62 -123.7 0 0 27.6589 43.5194
  Z
  M 38.4002 43.5217
  A 3.23 1.61 -55.7 0 0 35.2500 45.2827
  A 3.23 1.61 -55.7 0 0 34.7598 48.8583
  A 3.23 1.61 -55.7 0 0 37.9100 47.0973
  A 3.23 1.61 -55.7 0 0 38.4002 43.5217
  Z"
/>
<ellipse fill="#d05148" cx="0.00" cy="0.00" transform="translate(29.44,46.19) rotate(-123.7)" rx="3.21" ry="1.62"/>
<ellipse fill="#d05148" cx="0.00" cy="0.00" transform="translate(36.58,46.19) rotate(-55.7)" rx="3.23" ry="1.61"/>
</svg>
