<?xml version="1.0" encoding="UTF-8" standalone="no"?>
<!DOCTYPE svg PUBLIC "-//W3C//DTD SVG 1.1//EN" "http://www.w3.org/Graphics/SVG/1.1/DTD/svg11.dtd">
<svg xmlns="http://www.w3.org/2000/svg" version="1.1" viewBox="0.00 0.00 66.00 88.00">
<g stroke-width="2.00" fill="none" stroke-linecap="butt">
<path stroke="#395b67" vector-effect="non-scaling-stroke" d="
  M 33.40 86.69
  Q 33.53 86.69 33.66 86.65
  A 0.10 0.07 11.3 0 0 33.72 86.63
  Q 47.29 73.97 56.32 58.79
  C 65.68 43.05 69.13 22.78 53.16 9.51
  C 47.91 5.15 40.82 2.48 33.54 2.47
  C 26.26 2.46 19.16 5.11 13.90 9.45
  C -2.12 22.66 1.26 42.94 10.57 58.71
  Q 19.55 73.92 33.07 86.63
  A 0.10 0.07 -11.1 0 0 33.13 86.65
  Q 33.26 86.69 33.40 86.69"
/>
<path stroke="#a6bbc3" vector-effect="non-scaling-stroke" d="
  M 25.49 24.26
  A 0.39 0.38 34.7 0 0 26.22 24.13
  Q 26.82 18.16 32.13 18.35
  Q 37.15 18.54 37.11 24.36
  C 37.07 29.78 33.03 33.29 30.05 37.12
  A 3.04 3.04 0.0 0 0 29.63 40.10
  Q 30.09 41.23 32.29 43.04
  A 0.38 0.38 0.0 0 0 32.84 42.54
  Q 30.61 39.28 33.47 36.20
  Q 36.43 33.01 38.61 30.13
  C 42.44 25.04 42.06 17.94 34.54 16.96
  Q 30.07 16.38 25.90 18.47
  A 0.99 0.98 76.9 0 0 25.36 19.35
  Q 25.33 23.93 25.49 24.26"
/>
<path stroke="#a6bbc3" vector-effect="non-scaling-stroke" d="
  M 34.35 48.98
  A 2.21 2.21 0.0 0 0 32.14 46.77
  A 2.21 2.21 0.0 0 0 29.93 48.98
  A 2.21 2.21 0.0 0 0 32.14 51.19
  A 2.21 2.21 0.0 0 0 34.35 48.98"
/>
</g>
<path fill="#243e46" d="
  M 33.81 88.00
  L 33.04 88.00
  C 21.77 77.76 12.09 65.65 5.65 51.57
  Q 2.21 44.05 1.60 34.90
  C 0.55 18.99 11.22 5.64 26.48 2.11
  C 41.29 -1.33 56.62 6.28 62.97 20.58
  C 66.64 28.85 65.93 38.66 63.04 47.01
  C 57.65 62.61 45.95 76.92 33.81 88.00
  Z
  M 33.40 86.69
  Q 33.53 86.69 33.66 86.65
  A 0.10 0.07 11.3 0 0 33.72 86.63
  Q 47.29 73.97 56.32 58.79
  C 65.68 43.05 69.13 22.78 53.16 9.51
  C 47.91 5.15 40.82 2.48 33.54 2.47
  C 26.26 2.46 19.16 5.11 13.90 9.45
  C -2.12 22.66 1.26 42.94 10.57 58.71
  Q 19.55 73.92 33.07 86.63
  A 0.10 0.07 -11.1 0 0 33.13 86.65
  Q 33.26 86.69 33.40 86.69
  Z"
/>
<path fill="#4d7787" d="
  M 33.54 2.47
  C 40.82 2.48 47.91 5.15 53.16 9.51
  C 69.13 22.78 65.68 43.05 56.32 58.79
  Q 47.29 73.97 33.72 86.63
  A 0.10 0.07 11.3 0 1 33.66 86.65
  Q 33.53 86.69 33.40 86.69
  Q 33.26 86.69 33.13 86.65
  A 0.10 0.07 -11.1 0 1 33.07 86.63
  Q 19.55 73.92 10.57 58.71
  C 1.26 42.94 -2.12 22.66 13.90 9.45
  C 19.16 5.11 26.26 2.46 33.54 2.47
  Z
  M 25.49 24.26
  A 0.39 0.38 34.7 0 0 26.22 24.13
  Q 26.82 18.16 32.13 18.35
  Q 37.15 18.54 37.11 24.36
  C 37.07 29.78 33.03 33.29 30.05 37.12
  A 3.04 3.04 0.0 0 0 29.63 40.10
  Q 30.09 41.23 32.29 43.04
  A 0.38 0.38 0.0 0 0 32.84 42.54
  Q 30.61 39.28 33.47 36.20
  Q 36.43 33.01 38.61 30.13
  C 42.44 25.04 42.06 17.94 34.54 16.96
  Q 30.07 16.38 25.90 18.47
  A 0.99 0.98 76.9 0 0 25.36 19.35
  Q 25.33 23.93 25.49 24.26
  Z
  M 34.35 48.98
  A 2.21 2.21 0.0 0 0 32.14 46.77
  A 2.21 2.21 0.0 0 0 29.93 48.98
  A 2.21 2.21 0.0 0 0 32.14 51.19
  A 2.21 2.21 0.0 0 0 34.35 48.98
  Z"
/>
<path fill="#ffffff" d="
  M 25.49 24.26
  Q 25.33 23.93 25.36 19.35
  A 0.99 0.98 76.9 0 1 25.90 18.47
  Q 30.07 16.38 34.54 16.96
  C 42.06 17.94 42.44 25.04 38.61 30.13
  Q 36.43 33.01 33.47 36.20
  Q 30.61 39.28 32.84 42.54
  A 0.38 0.38 0.0 0 1 32.29 43.04
  Q 30.09 41.23 29.63 40.10
  A 3.04 3.04 0.0 0 1 30.05 37.12
  C 33.03 33.29 37.07 29.78 37.11 24.36
  Q 37.15 18.54 32.13 18.35
  Q 26.82 18.16 26.22 24.13
  A 0.39 0.38 34.7 0 1 25.49 24.26
  Z"
/>
<circle fill="#ffffff" cx="32.14" cy="48.98" r="2.21"/>
</svg>
