<?xml version="1.0" encoding="UTF-8" standalone="no"?>
<!DOCTYPE svg PUBLIC "-//W3C//DTD SVG 1.1//EN" "http://www.w3.org/Graphics/SVG/1.1/DTD/svg11.dtd">
<svg xmlns="http://www.w3.org/2000/svg" version="1.1" viewBox="0.00 0.00 66.00 88.00">
<g stroke-width="2.00" fill="none" stroke-linecap="butt">
<path stroke="#6c427b" vector-effect="non-scaling-stroke" d="
  M 33.41 86.69
  Q 33.52 86.70 33.63 86.67
  Q 33.65 86.67 33.77 86.56
  Q 48.90 72.28 57.73 56.26
  C 64.16 44.57 67.66 28.69 59.58 16.70
  Q 50.43 3.13 33.75 2.47
  Q 33.62 2.47 33.53 2.47
  Q 33.43 2.47 33.30 2.47
  Q 16.62 3.08 7.44 16.63
  C -0.68 28.60 2.78 44.49 9.18 56.19
  Q 17.97 72.24 33.06 86.56
  Q 33.18 86.67 33.20 86.67
  Q 33.31 86.69 33.41 86.69"
/>
<path stroke="#c7acd0" vector-effect="non-scaling-stroke" d="
  M 43.19 26.17
  Q 44.48 25.31 44.61 24.70
  A 1.35 1.33 -2.4 0 0 42.91 23.16
  Q 42.72 23.22 40.56 24.02
  A 4.05 3.65 -54.0 0 1 39.38 24.27
  C 31.58 24.65 24.97 21.14 18.65 27.85
  C 15.01 31.72 12.72 38.27 16.96 42.54
  C 19.24 44.83 23.65 45.51 26.51 44.91
  Q 35.87 42.93 39.68 43.74
  A 1.23 1.22 -81.1 0 0 41.15 42.66
  L 41.18 42.45
  A 1.20 1.20 0.0 0 0 40.14 41.10
  L 36.20 40.59
  A 0.91 0.90 6.0 0 1 35.41 39.62
  L 35.45 39.30
  A 0.93 0.92 3.5 0 1 36.37 38.49
  L 43.04 38.49
  A 0.28 0.28 0.0 0 1 43.31 38.83
  C 42.72 41.52 46.19 41.54 47.45 39.88
  Q 47.66 39.60 47.47 39.26
  Q 47.20 38.79 47.20 38.72
  A 0.58 0.58 0.0 0 1 47.84 38.13
  Q 49.71 38.34 50.26 36.96
  A 1.88 1.77 8.4 0 0 48.35 34.54
  Q 44.97 34.75 44.03 34.74
  A 0.32 0.32 0.0 0 1 43.79 34.21
  Q 43.97 33.99 44.35 33.93
  Q 44.80 33.86 44.91 33.27
  Q 45.23 31.61 43.80 30.86
  A 1.12 1.05 -32.0 0 0 43.24 30.75
  L 37.87 31.25
  A 0.71 0.71 0.0 0 1 37.09 30.54
  L 37.09 30.36
  A 0.71 0.70 5.9 0 1 37.82 29.77
  Q 44.35 30.11 50.40 27.81
  A 1.26 1.25 73.6 0 0 51.18 26.37
  L 51.11 26.06
  A 1.22 1.21 77.3 0 0 49.67 25.14
  L 43.35 26.54
  A 0.21 0.20 21.8 0 1 43.19 26.17"
/>
<path stroke="#c7acd0" vector-effect="non-scaling-stroke" d="
  M 46.6701 32.0052
  A 2.12 1.57 -179.6 0 0 48.7790 33.5900
  A 2.12 1.57 -179.6 0 0 50.9099 32.0348
  A 2.12 1.57 -179.6 0 0 48.8010 30.4500
  A 2.12 1.57 -179.6 0 0 46.6701 32.0052"
/>
<path stroke="#c7acd0" vector-effect="non-scaling-stroke" d="
  M 17.9216 33.3163
  A 3.24 1.29 -79.3 0 0 16.0524 36.2605
  A 3.24 1.29 -79.3 0 0 16.7184 39.6837
  A 3.24 1.29 -79.3 0 0 18.5876 36.7395
  A 3.24 1.29 -79.3 0 0 17.9216 33.3163"
/>
<path stroke="#c7acd0" vector-effect="non-scaling-stroke" d="
  M 28.6067 34.5730
  A 4.44 2.56 -55.0 0 0 23.9630 36.7416
  A 4.44 2.56 -55.0 0 0 23.5133 41.8470
  A 4.44 2.56 -55.0 0 0 28.1570 39.6784
  A 4.44 2.56 -55.0 0 0 28.6067 34.5730"
/>
</g>
<path fill="#492b55" d="
  M 33.79 88.00
  L 33.11 88.00
  Q 16.14 72.87 6.60 53.84
  Q 3.33 47.32 1.97 38.76
  Q 0.40 28.78 4.07 20.42
  C 11.66 3.14 32.62 -3.77 49.14 5.36
  C 59.54 11.11 65.85 21.92 65.44 33.91
  Q 65.18 41.69 62.41 48.85
  C 56.65 63.74 45.53 77.33 33.79 88.00
  Z
  M 33.41 86.69
  Q 33.52 86.70 33.63 86.67
  Q 33.65 86.67 33.77 86.56
  Q 48.90 72.28 57.73 56.26
  C 64.16 44.57 67.66 28.69 59.58 16.70
  Q 50.43 3.13 33.75 2.47
  Q 33.62 2.47 33.53 2.47
  Q 33.43 2.47 33.30 2.47
  Q 16.62 3.08 7.44 16.63
  C -0.68 28.60 2.78 44.49 9.18 56.19
  Q 17.97 72.24 33.06 86.56
  Q 33.18 86.67 33.20 86.67
  Q 33.31 86.69 33.41 86.69
  Z"
/>
<path fill="#8e58a1" d="
  M 33.53 2.47
  Q 33.62 2.47 33.75 2.47
  Q 50.43 3.13 59.58 16.70
  C 67.66 28.69 64.16 44.57 57.73 56.26
  Q 48.90 72.28 33.77 86.56
  Q 33.65 86.67 33.63 86.67
  Q 33.52 86.70 33.41 86.69
  Q 33.31 86.69 33.20 86.67
  Q 33.18 86.67 33.06 86.56
  Q 17.97 72.24 9.18 56.19
  C 2.78 44.49 -0.68 28.60 7.44 16.63
  Q 16.62 3.08 33.30 2.47
  Q 33.43 2.47 33.53 2.47
  Z
  M 43.19 26.17
  Q 44.48 25.31 44.61 24.70
  A 1.35 1.33 -2.4 0 0 42.91 23.16
  Q 42.72 23.22 40.56 24.02
  A 4.05 3.65 -54.0 0 1 39.38 24.27
  C 31.58 24.65 24.97 21.14 18.65 27.85
  C 15.01 31.72 12.72 38.27 16.96 42.54
  C 19.24 44.83 23.65 45.51 26.51 44.91
  Q 35.87 42.93 39.68 43.74
  A 1.23 1.22 -81.1 0 0 41.15 42.66
  L 41.18 42.45
  A 1.20 1.20 0.0 0 0 40.14 41.10
  L 36.20 40.59
  A 0.91 0.90 6.0 0 1 35.41 39.62
  L 35.45 39.30
  A 0.93 0.92 3.5 0 1 36.37 38.49
  L 43.04 38.49
  A 0.28 0.28 0.0 0 1 43.31 38.83
  C 42.72 41.52 46.19 41.54 47.45 39.88
  Q 47.66 39.60 47.47 39.26
  Q 47.20 38.79 47.20 38.72
  A 0.58 0.58 0.0 0 1 47.84 38.13
  Q 49.71 38.34 50.26 36.96
  A 1.88 1.77 8.4 0 0 48.35 34.54
  Q 44.97 34.75 44.03 34.74
  A 0.32 0.32 0.0 0 1 43.79 34.21
  Q 43.97 33.99 44.35 33.93
  Q 44.80 33.86 44.91 33.27
  Q 45.23 31.61 43.80 30.86
  A 1.12 1.05 -32.0 0 0 43.24 30.75
  L 37.87 31.25
  A 0.71 0.71 0.0 0 1 37.09 30.54
  L 37.09 30.36
  A 0.71 0.70 5.9 0 1 37.82 29.77
  Q 44.35 30.11 50.40 27.81
  A 1.26 1.25 73.6 0 0 51.18 26.37
  L 51.11 26.06
  A 1.22 1.21 77.3 0 0 49.67 25.14
  L 43.35 26.54
  A 0.21 0.20 21.8 0 1 43.19 26.17
  Z
  M 46.6701 32.0052
  A 2.12 1.57 -179.6 0 0 48.7790 33.5900
  A 2.12 1.57 -179.6 0 0 50.9099 32.0348
  A 2.12 1.57 -179.6 0 0 48.8010 30.4500
  A 2.12 1.57 -179.6 0 0 46.6701 32.0052
  Z"
/>
<path fill="#ffffff" d="
  M 43.35 26.54
  L 49.67 25.14
  A 1.22 1.21 77.3 0 1 51.11 26.06
  L 51.18 26.37
  A 1.26 1.25 73.6 0 1 50.40 27.81
  Q 44.35 30.11 37.82 29.77
  A 0.71 0.70 5.9 0 0 37.09 30.36
  L 37.09 30.54
  A 0.71 0.71 0.0 0 0 37.87 31.25
  L 43.24 30.75
  A 1.12 1.05 -32.0 0 1 43.80 30.86
  Q 45.23 31.61 44.91 33.27
  Q 44.80 33.86 44.35 33.93
  Q 43.97 33.99 43.79 34.21
  A 0.32 0.32 0.0 0 0 44.03 34.74
  Q 44.97 34.75 48.35 34.54
  A 1.88 1.77 8.4 0 1 50.26 36.96
  Q 49.71 38.34 47.84 38.13
  A 0.58 0.58 0.0 0 0 47.20 38.72
  Q 47.20 38.79 47.47 39.26
  Q 47.66 39.60 47.45 39.88
  C 46.19 41.54 42.72 41.52 43.31 38.83
  A 0.28 0.28 0.0 0 0 43.04 38.49
  L 36.37 38.49
  A 0.93 0.92 3.5 0 0 35.45 39.30
  L 35.41 39.62
  A 0.91 0.90 6.0 0 0 36.20 40.59
  L 40.14 41.10
  A 1.20 1.20 0.0 0 1 41.18 42.45
  L 41.15 42.66
  A 1.23 1.22 -81.1 0 1 39.68 43.74
  Q 35.87 42.93 26.51 44.91
  C 23.65 45.51 19.24 44.83 16.96 42.54
  C 12.72 38.27 15.01 31.72 18.65 27.85
  C 24.97 21.14 31.58 24.65 39.38 24.27
  A 4.05 3.65 -54.0 0 0 40.56 24.02
  Q 42.72 23.22 42.91 23.16
  A 1.35 1.33 -2.4 0 1 44.61 24.70
  Q 44.48 25.31 43.19 26.17
  A 0.21 0.20 21.8 0 0 43.35 26.54
  Z
  M 17.9216 33.3163
  A 3.24 1.29 -79.3 0 0 16.0524 36.2605
  A 3.24 1.29 -79.3 0 0 16.7184 39.6837
  A 3.24 1.29 -79.3 0 0 18.5876 36.7395
  A 3.24 1.29 -79.3 0 0 17.9216 33.3163
  Z
  M 28.6067 34.5730
  A 4.44 2.56 -55.0 0 0 23.9630 36.7416
  A 4.44 2.56 -55.0 0 0 23.5133 41.8470
  A 4.44 2.56 -55.0 0 0 28.1570 39.6784
  A 4.44 2.56 -55.0 0 0 28.6067 34.5730
  Z"
/>
<ellipse fill="#ffffff" cx="0.00" cy="0.00" transform="translate(48.79,32.02) rotate(-179.6)" rx="2.12" ry="1.57"/>
<ellipse fill="#8e58a1" cx="0.00" cy="0.00" transform="translate(17.32,36.50) rotate(-79.3)" rx="3.24" ry="1.29"/>
<ellipse fill="#8e58a1" cx="0.00" cy="0.00" transform="translate(26.06,38.21) rotate(-55.0)" rx="4.44" ry="2.56"/>
</svg>
