<?xml version="1.0" encoding="UTF-8" standalone="no"?>
<!DOCTYPE svg PUBLIC "-//W3C//DTD SVG 1.1//EN" "http://www.w3.org/Graphics/SVG/1.1/DTD/svg11.dtd">
<svg xmlns="http://www.w3.org/2000/svg" version="1.1" viewBox="0.00 0.00 66.00 88.00">
<g stroke-width="2.00" fill="none" stroke-linecap="butt">
<path stroke="#395b67" vector-effect="non-scaling-stroke" d="
  M 33.39 86.69
  Q 33.53 86.69 33.66 86.65
  A 0.10 0.07 11.2 0 0 33.72 86.63
  Q 46.98 74.23 56.04 59.28
  C 64.79 44.85 68.75 26.44 56.64 12.89
  Q 48.08 3.32 35.00 2.53
  Q 34.13 2.48 33.54 2.48
  Q 32.95 2.48 32.08 2.53
  Q 19.00 3.27 10.41 12.81
  C -1.75 26.32 2.14 44.74 10.84 59.20
  Q 19.85 74.18 33.07 86.63
  A 0.10 0.07 -11.0 0 0 33.12 86.65
  Q 33.26 86.69 33.39 86.69"
/>
<path stroke="#a6bbc3" vector-effect="non-scaling-stroke" d="
  M 43.39 37.40
  A 0.23 0.23 0.0 0 0 43.84 37.39
  Q 44.61 29.41 41.53 22.46
  C 39.05 16.85 32.86 13.32 27.95 17.93
  C 22.61 22.95 21.31 30.96 22.32 38.02
  A 0.15 0.15 0.0 0 0 22.62 38.03
  Q 24.34 30.38 31.47 27.33
  A 0.31 0.31 0.0 0 0 31.35 26.73
  Q 28.18 26.65 25.15 28.68
  A 0.34 0.34 0.0 0 1 24.64 28.29
  Q 26.52 22.70 29.85 20.82
  C 39.19 15.54 42.53 31.71 43.39 37.40"
/>
<path stroke="#a6bbc3" vector-effect="non-scaling-stroke" d="
  M 35.41 44.05
  Q 36.20 44.53 39.35 44.40
  A 0.36 0.36 0.0 0 1 39.65 44.98
  C 33.27 53.08 26.90 46.33 23.05 40.81
  A 0.10 0.10 0.0 0 0 22.87 40.89
  Q 24.10 46.81 28.47 50.60
  C 29.86 51.81 33.02 52.64 34.65 52.12
  Q 39.66 50.51 41.97 44.67
  Q 43.31 41.32 43.32 40.56
  A 0.34 0.34 0.0 0 0 42.72 40.33
  Q 40.50 42.87 35.53 43.47
  A 0.32 0.31 57.0 0 0 35.41 44.05"
/>
</g>
<path fill="#243e46" d="
  M 33.78 88.00
  L 33.04 88.00
  C 21.72 77.72 12.19 65.74 5.68 51.55
  Q 2.13 43.81 1.57 34.90
  C 0.57 18.87 11.16 5.76 26.65 2.06
  C 37.38 -0.51 49.52 3.33 57.13 11.63
  C 69.76 25.40 66.44 43.71 57.55 58.85
  Q 47.97 75.16 33.78 88.00
  Z
  M 33.39 86.69
  Q 33.53 86.69 33.66 86.65
  A 0.10 0.07 11.2 0 0 33.72 86.63
  Q 46.98 74.23 56.04 59.28
  C 64.79 44.85 68.75 26.44 56.64 12.89
  Q 48.08 3.32 35.00 2.53
  Q 34.13 2.48 33.54 2.48
  Q 32.95 2.48 32.08 2.53
  Q 19.00 3.27 10.41 12.81
  C -1.75 26.32 2.14 44.74 10.84 59.20
  Q 19.85 74.18 33.07 86.63
  A 0.10 0.07 -11.0 0 0 33.12 86.65
  Q 33.26 86.69 33.39 86.69
  Z"
/>
<path fill="#4d7787" d="
  M 33.54 2.48
  Q 34.13 2.48 35.00 2.53
  Q 48.08 3.32 56.64 12.89
  C 68.75 26.44 64.79 44.85 56.04 59.28
  Q 46.98 74.23 33.72 86.63
  A 0.10 0.07 11.2 0 1 33.66 86.65
  Q 33.53 86.69 33.39 86.69
  Q 33.26 86.69 33.12 86.65
  A 0.10 0.07 -11.0 0 1 33.07 86.63
  Q 19.85 74.18 10.84 59.20
  C 2.14 44.74 -1.75 26.32 10.41 12.81
  Q 19.00 3.27 32.08 2.53
  Q 32.95 2.48 33.54 2.48
  Z
  M 43.39 37.40
  A 0.23 0.23 0.0 0 0 43.84 37.39
  Q 44.61 29.41 41.53 22.46
  C 39.05 16.85 32.86 13.32 27.95 17.93
  C 22.61 22.95 21.31 30.96 22.32 38.02
  A 0.15 0.15 0.0 0 0 22.62 38.03
  Q 24.34 30.38 31.47 27.33
  A 0.31 0.31 0.0 0 0 31.35 26.73
  Q 28.18 26.65 25.15 28.68
  A 0.34 0.34 0.0 0 1 24.64 28.29
  Q 26.52 22.70 29.85 20.82
  C 39.19 15.54 42.53 31.71 43.39 37.40
  Z
  M 35.41 44.05
  Q 36.20 44.53 39.35 44.40
  A 0.36 0.36 0.0 0 1 39.65 44.98
  C 33.27 53.08 26.90 46.33 23.05 40.81
  A 0.10 0.10 0.0 0 0 22.87 40.89
  Q 24.10 46.81 28.47 50.60
  C 29.86 51.81 33.02 52.64 34.65 52.12
  Q 39.66 50.51 41.97 44.67
  Q 43.31 41.32 43.32 40.56
  A 0.34 0.34 0.0 0 0 42.72 40.33
  Q 40.50 42.87 35.53 43.47
  A 0.32 0.31 57.0 0 0 35.41 44.05
  Z"
/>
<path fill="#ffffff" d="
  M 43.39 37.40
  C 42.53 31.71 39.19 15.54 29.85 20.82
  Q 26.52 22.70 24.64 28.29
  A 0.34 0.34 0.0 0 0 25.15 28.68
  Q 28.18 26.65 31.35 26.73
  A 0.31 0.31 0.0 0 1 31.47 27.33
  Q 24.34 30.38 22.62 38.03
  A 0.15 0.15 0.0 0 1 22.32 38.02
  C 21.31 30.96 22.61 22.95 27.95 17.93
  C 32.86 13.32 39.05 16.85 41.53 22.46
  Q 44.61 29.41 43.84 37.39
  A 0.23 0.23 0.0 0 1 43.39 37.40
  Z"
/>
<path fill="#ffffff" d="
  M 35.53 43.47
  Q 40.50 42.87 42.72 40.33
  A 0.34 0.34 0.0 0 1 43.32 40.56
  Q 43.31 41.32 41.97 44.67
  Q 39.66 50.51 34.65 52.12
  C 33.02 52.64 29.86 51.81 28.47 50.60
  Q 24.10 46.81 22.87 40.89
  A 0.10 0.10 0.0 0 1 23.05 40.81
  C 26.90 46.33 33.27 53.08 39.65 44.98
  A 0.36 0.36 0.0 0 0 39.35 44.40
  Q 36.20 44.53 35.41 44.05
  A 0.32 0.31 57.0 0 1 35.53 43.47
  Z"
/>
</svg>
