<?xml version="1.0" encoding="UTF-8" standalone="no"?>
<!DOCTYPE svg PUBLIC "-//W3C//DTD SVG 1.1//EN" "http://www.w3.org/Graphics/SVG/1.1/DTD/svg11.dtd">
<svg xmlns="http://www.w3.org/2000/svg" version="1.1" viewBox="0.00 0.00 66.00 88.00">
<g stroke-width="2.00" fill="none" stroke-linecap="butt">
<path stroke="#395b67" vector-effect="non-scaling-stroke" d="
  M 33.40 86.69
  Q 33.54 86.69 33.67 86.65
  A 0.08 0.07 -67.7 0 0 33.72 86.63
  Q 47.53 73.78 56.56 58.30
  Q 62.73 47.72 63.91 38.00
  Q 66.42 17.22 48.74 6.53
  Q 42.04 2.48 33.53 2.47
  Q 25.01 2.45 18.31 6.48
  Q 0.59 17.12 3.04 37.91
  Q 4.19 47.63 10.33 58.23
  Q 19.31 73.74 33.08 86.63
  A 0.08 0.07 67.9 0 0 33.13 86.65
  Q 33.26 86.69 33.40 86.69"
/>
<path stroke="#a6bbc3" vector-effect="non-scaling-stroke" d="
  M 32.59 33.58
  Q 32.59 41.88 32.59 42.88
  A 0.71 0.71 0.0 0 1 31.88 43.59
  L 25.44 43.59
  A 0.59 0.59 0.0 0 1 24.85 43.00
  L 24.85 39.48
  A 0.52 0.52 0.0 0 0 24.33 38.96
  L 22.90 38.96
  A 0.50 0.50 0.0 0 0 22.40 39.46
  L 22.40 44.71
  A 1.25 1.24 89.8 0 0 23.65 45.96
  L 34.15 45.93
  A 0.85 0.85 0.0 0 0 35.00 45.11
  Q 35.06 44.26 35.06 33.58
  Q 35.06 22.89 35.00 22.04
  A 0.85 0.85 0.0 0 0 34.14 21.23
  L 23.64 21.20
  A 1.25 1.24 -89.8 0 0 22.40 22.45
  L 22.40 27.70
  A 0.50 0.50 0.0 0 0 22.90 28.20
  L 24.33 28.20
  A 0.52 0.52 0.0 0 0 24.85 27.68
  L 24.85 24.16
  A 0.59 0.59 0.0 0 1 25.44 23.57
  L 31.88 23.57
  A 0.71 0.71 0.0 0 1 32.58 24.27
  Q 32.59 25.28 32.59 33.58"
/>
<path stroke="#a6bbc3" vector-effect="non-scaling-stroke" d="
  M 39.18 33.58
  Q 39.18 34.48 39.19 34.63
  A 0.64 0.63 87.6 0 0 39.82 35.21
  L 45.39 35.23
  A 0.33 0.33 0.0 0 1 45.62 35.80
  L 40.41 41.01
  A 0.34 0.34 0.0 0 0 40.65 41.59
  L 43.39 41.59
  A 1.61 1.60 -69.1 0 0 44.59 41.05
  Q 47.70 37.57 51.07 33.82
  C 51.10 33.78 51.12 33.65 51.12 33.60
  C 51.12 33.56 51.10 33.43 51.07 33.39
  Q 47.72 29.62 44.62 26.13
  A 1.61 1.60 69.4 0 0 43.43 25.58
  L 40.69 25.57
  A 0.34 0.34 0.0 0 0 40.44 26.15
  L 45.63 31.38
  A 0.33 0.33 0.0 0 1 45.40 31.95
  L 39.83 31.95
  A 0.64 0.63 -87.3 0 0 39.20 32.53
  Q 39.18 32.67 39.18 33.58"
/>
<path stroke="#a6bbc3" vector-effect="non-scaling-stroke" d="
  M 28.53 32.44
  A 0.40 0.40 0.0 0 0 28.13 32.04
  L 15.07 32.04
  A 0.40 0.40 0.0 0 0 14.67 32.44
  L 14.67 34.72
  A 0.40 0.40 0.0 0 0 15.07 35.12
  L 28.13 35.12
  A 0.40 0.40 0.0 0 0 28.53 34.72
  L 28.53 32.44"
/>
</g>
<path fill="#243e46" d="
  M 33.78 88.00
  L 33.04 88.00
  C 22.18 78.18 12.04 65.63 5.74 51.77
  Q 2.16 43.90 1.59 34.95
  C 0.32 15.20 17.09 -0.29 36.47 1.46
  C 45.35 2.26 53.86 6.87 59.19 14.04
  C 77.61 38.88 51.60 71.89 33.78 88.00
  Z
  M 33.40 86.69
  Q 33.54 86.69 33.67 86.65
  A 0.08 0.07 -67.7 0 0 33.72 86.63
  Q 47.53 73.78 56.56 58.30
  Q 62.73 47.72 63.91 38.00
  Q 66.42 17.22 48.74 6.53
  Q 42.04 2.48 33.53 2.47
  Q 25.01 2.45 18.31 6.48
  Q 0.59 17.12 3.04 37.91
  Q 4.19 47.63 10.33 58.23
  Q 19.31 73.74 33.08 86.63
  A 0.08 0.07 67.9 0 0 33.13 86.65
  Q 33.26 86.69 33.40 86.69
  Z"
/>
<path fill="#4d7787" d="
  M 33.53 2.47
  Q 42.04 2.48 48.74 6.53
  Q 66.42 17.22 63.91 38.00
  Q 62.73 47.72 56.56 58.30
  Q 47.53 73.78 33.72 86.63
  A 0.08 0.07 -67.7 0 1 33.67 86.65
  Q 33.54 86.69 33.40 86.69
  Q 33.26 86.69 33.13 86.65
  A 0.08 0.07 67.9 0 1 33.08 86.63
  Q 19.31 73.74 10.33 58.23
  Q 4.19 47.63 3.04 37.91
  Q 0.59 17.12 18.31 6.48
  Q 25.01 2.45 33.53 2.47
  Z
  M 32.59 33.58
  Q 32.59 41.88 32.59 42.88
  A 0.71 0.71 0.0 0 1 31.88 43.59
  L 25.44 43.59
  A 0.59 0.59 0.0 0 1 24.85 43.00
  L 24.85 39.48
  A 0.52 0.52 0.0 0 0 24.33 38.96
  L 22.90 38.96
  A 0.50 0.50 0.0 0 0 22.40 39.46
  L 22.40 44.71
  A 1.25 1.24 89.8 0 0 23.65 45.96
  L 34.15 45.93
  A 0.85 0.85 0.0 0 0 35.00 45.11
  Q 35.06 44.26 35.06 33.58
  Q 35.06 22.89 35.00 22.04
  A 0.85 0.85 0.0 0 0 34.14 21.23
  L 23.64 21.20
  A 1.25 1.24 -89.8 0 0 22.40 22.45
  L 22.40 27.70
  A 0.50 0.50 0.0 0 0 22.90 28.20
  L 24.33 28.20
  A 0.52 0.52 0.0 0 0 24.85 27.68
  L 24.85 24.16
  A 0.59 0.59 0.0 0 1 25.44 23.57
  L 31.88 23.57
  A 0.71 0.71 0.0 0 1 32.58 24.27
  Q 32.59 25.28 32.59 33.58
  Z
  M 39.18 33.58
  Q 39.18 34.48 39.19 34.63
  A 0.64 0.63 87.6 0 0 39.82 35.21
  L 45.39 35.23
  A 0.33 0.33 0.0 0 1 45.62 35.80
  L 40.41 41.01
  A 0.34 0.34 0.0 0 0 40.65 41.59
  L 43.39 41.59
  A 1.61 1.60 -69.1 0 0 44.59 41.05
  Q 47.70 37.57 51.07 33.82
  C 51.10 33.78 51.12 33.65 51.12 33.60
  C 51.12 33.56 51.10 33.43 51.07 33.39
  Q 47.72 29.62 44.62 26.13
  A 1.61 1.60 69.4 0 0 43.43 25.58
  L 40.69 25.57
  A 0.34 0.34 0.0 0 0 40.44 26.15
  L 45.63 31.38
  A 0.33 0.33 0.0 0 1 45.40 31.95
  L 39.83 31.95
  A 0.64 0.63 -87.3 0 0 39.20 32.53
  Q 39.18 32.67 39.18 33.58
  Z
  M 28.53 32.44
  A 0.40 0.40 0.0 0 0 28.13 32.04
  L 15.07 32.04
  A 0.40 0.40 0.0 0 0 14.67 32.44
  L 14.67 34.72
  A 0.40 0.40 0.0 0 0 15.07 35.12
  L 28.13 35.12
  A 0.40 0.40 0.0 0 0 28.53 34.72
  L 28.53 32.44
  Z"
/>
<path fill="#ffffff" d="
  M 35.06 33.58
  Q 35.06 44.26 35.00 45.11
  A 0.85 0.85 0.0 0 1 34.15 45.93
  L 23.65 45.96
  A 1.25 1.24 89.8 0 1 22.40 44.71
  L 22.40 39.46
  A 0.50 0.50 0.0 0 1 22.90 38.96
  L 24.33 38.96
  A 0.52 0.52 0.0 0 1 24.85 39.48
  L 24.85 43.00
  A 0.59 0.59 0.0 0 0 25.44 43.59
  L 31.88 43.59
  A 0.71 0.71 0.0 0 0 32.59 42.88
  Q 32.59 41.88 32.59 33.58
  Q 32.59 25.28 32.58 24.27
  A 0.71 0.71 0.0 0 0 31.88 23.57
  L 25.44 23.57
  A 0.59 0.59 0.0 0 0 24.85 24.16
  L 24.85 27.68
  A 0.52 0.52 0.0 0 1 24.33 28.20
  L 22.90 28.20
  A 0.50 0.50 0.0 0 1 22.40 27.70
  L 22.40 22.45
  A 1.25 1.24 -89.8 0 1 23.64 21.20
  L 34.14 21.23
  A 0.85 0.85 0.0 0 1 35.00 22.04
  Q 35.06 22.89 35.06 33.58
  Z"
/>
<path fill="#ffffff" d="
  M 51.12 33.60
  C 51.12 33.65 51.10 33.78 51.07 33.82
  Q 47.70 37.57 44.59 41.05
  A 1.61 1.60 -69.1 0 1 43.39 41.59
  L 40.65 41.59
  A 0.34 0.34 0.0 0 1 40.41 41.01
  L 45.62 35.80
  A 0.33 0.33 0.0 0 0 45.39 35.23
  L 39.82 35.21
  A 0.64 0.63 87.6 0 1 39.19 34.63
  Q 39.18 34.48 39.18 33.58
  Q 39.18 32.67 39.20 32.53
  A 0.64 0.63 -87.3 0 1 39.83 31.95
  L 45.40 31.95
  A 0.33 0.33 0.0 0 0 45.63 31.38
  L 40.44 26.15
  A 0.34 0.34 0.0 0 1 40.69 25.57
  L 43.43 25.58
  A 1.61 1.60 69.4 0 1 44.62 26.13
  Q 47.72 29.62 51.07 33.39
  C 51.10 33.43 51.12 33.56 51.12 33.60
  Z"
/>
<rect fill="#ffffff" x="14.67" y="32.04" width="13.86" height="3.08" rx="0.40"/>
</svg>
