<?xml version="1.0" encoding="UTF-8" standalone="no"?>
<!DOCTYPE svg PUBLIC "-//W3C//DTD SVG 1.1//EN" "http://www.w3.org/Graphics/SVG/1.1/DTD/svg11.dtd">
<svg xmlns="http://www.w3.org/2000/svg" version="1.1" viewBox="0.00 0.00 66.00 88.00">
<g stroke-width="2.00" fill="none" stroke-linecap="butt">
<path stroke="#802436" vector-effect="non-scaling-stroke" d="
  M 33.42 86.69
  Q 33.53 86.69 33.62 86.67
  Q 33.67 86.66 33.78 86.56
  Q 47.32 74.06 56.48 58.47
  C 64.09 45.53 68.37 28.57 58.62 15.37
  Q 49.82 3.44 34.73 2.54
  Q 33.62 2.47 33.51 2.47
  Q 33.40 2.47 32.28 2.53
  Q 17.19 3.41 8.37 15.32
  C -1.41 28.50 2.84 45.47 10.42 58.42
  Q 19.55 74.03 33.06 86.56
  Q 33.17 86.66 33.22 86.67
  Q 33.31 86.69 33.42 86.69"
/>
<path stroke="#d498a4" vector-effect="non-scaling-stroke" d="
  M 31.8891 16.1503
  A 17.15 10.33 -80.2 0 0 18.7907 31.2917
  A 17.15 10.33 -80.2 0 0 26.0509 49.9497
  A 17.15 10.33 -80.2 0 0 39.1493 34.8083
  A 17.15 10.33 -80.2 0 0 31.8891 16.1503"
/>
<path stroke="#d498a4" vector-effect="non-scaling-stroke" d="
  M 38.11 16.14
  L 41.12 21.36
  A 0.66 0.66 0.0 0 0 42.02 21.60
  L 43.83 20.55
  A 0.34 0.34 0.0 0 0 43.90 20.01
  Q 41.22 17.30 38.26 15.98
  A 0.12 0.11 -2.5 0 0 38.11 16.14"
/>
<path stroke="#d498a4" vector-effect="non-scaling-stroke" d="
  M 47.93 33.06
  A 0.35 0.35 0.0 0 0 48.28 32.72
  Q 48.37 28.45 46.57 24.09
  A 0.88 0.87 75.7 0 0 45.67 23.55
  Q 44.17 23.70 42.67 24.39
  A 0.45 0.44 77.3 0 0 42.42 24.79
  L 42.42 32.79
  A 0.27 0.26 90.0 0 0 42.68 33.06
  L 47.93 33.06"
/>
<path stroke="#d498a4" vector-effect="non-scaling-stroke" d="
  M 39.99 43.76
  L 43.96 45.06
  A 0.54 0.54 0.0 0 0 44.58 44.85
  Q 47.15 41.13 47.87 36.82
  A 0.68 0.68 0.0 0 0 47.20 36.02
  L 42.84 36.02
  A 1.02 1.02 0.0 0 0 41.87 36.72
  L 39.72 43.23
  A 0.42 0.42 0.0 0 0 39.99 43.76"
/>
<path stroke="#d498a4" vector-effect="non-scaling-stroke" d="
  M 31.62 52.31
  Q 37.63 52.09 41.60 48.25
  A 0.64 0.64 0.0 0 0 41.36 47.18
  L 38.62 46.28
  A 1.15 1.14 -64.8 0 0 37.28 46.77
  Q 35.37 49.88 31.51 51.90
  A 0.22 0.22 0.0 0 0 31.62 52.31"
/>
<path stroke="#d498a4" vector-effect="non-scaling-stroke" d="
  M 27.56 31.22
  Q 28.27 32.24 28.11 33.04
  A 1.65 1.52 -65.2 0 1 25.58 34.09
  C 21.20 30.25 26.95 23.51 31.36 27.25
  C 34.46 29.88 34.63 34.40 32.09 37.52
  Q 28.99 41.34 23.44 39.73
  A 1.08 1.08 0.0 0 0 22.13 40.36
  L 22.11 40.40
  A 0.96 0.96 0.0 0 0 22.67 41.67
  Q 30.46 44.46 34.57 38.11
  C 37.42 33.72 36.41 27.17 31.53 24.78
  C 24.68 21.43 18.40 29.96 23.54 35.62
  Q 24.47 36.66 25.69 36.77
  C 29.16 37.10 31.15 34.67 30.18 31.33
  Q 29.67 29.56 28.12 29.83
  A 0.90 0.88 67.6 0 0 27.56 31.22"
/>
</g>
<path fill="#581723" d="
  M 33.80 88.00
  L 33.04 88.00
  C 21.78 77.77 12.08 65.65 5.65 51.57
  Q 2.21 44.05 1.60 34.90
  C 0.54 18.97 11.20 5.68 26.50 2.10
  C 40.95 -1.27 55.90 5.94 62.58 19.69
  C 66.92 28.64 65.94 39.77 62.41 48.85
  C 56.62 63.75 45.56 77.30 33.80 88.00
  Z
  M 33.42 86.69
  Q 33.53 86.69 33.62 86.67
  Q 33.67 86.66 33.78 86.56
  Q 47.32 74.06 56.48 58.47
  C 64.09 45.53 68.37 28.57 58.62 15.37
  Q 49.82 3.44 34.73 2.54
  Q 33.62 2.47 33.51 2.47
  Q 33.40 2.47 32.28 2.53
  Q 17.19 3.41 8.37 15.32
  C -1.41 28.50 2.84 45.47 10.42 58.42
  Q 19.55 74.03 33.06 86.56
  Q 33.17 86.66 33.22 86.67
  Q 33.31 86.69 33.42 86.69
  Z"
/>
<path fill="#a83148" d="
  M 33.51 2.47
  Q 33.62 2.47 34.73 2.54
  Q 49.82 3.44 58.62 15.37
  C 68.37 28.57 64.09 45.53 56.48 58.47
  Q 47.32 74.06 33.78 86.56
  Q 33.67 86.66 33.62 86.67
  Q 33.53 86.69 33.42 86.69
  Q 33.31 86.69 33.22 86.67
  Q 33.17 86.66 33.06 86.56
  Q 19.55 74.03 10.42 58.42
  C 2.84 45.47 -1.41 28.50 8.37 15.32
  Q 17.19 3.41 32.28 2.53
  Q 33.40 2.47 33.51 2.47
  Z
  M 31.8891 16.1503
  A 17.15 10.33 -80.2 0 0 18.7907 31.2917
  A 17.15 10.33 -80.2 0 0 26.0509 49.9497
  A 17.15 10.33 -80.2 0 0 39.1493 34.8083
  A 17.15 10.33 -80.2 0 0 31.8891 16.1503
  Z
  M 38.11 16.14
  L 41.12 21.36
  A 0.66 0.66 0.0 0 0 42.02 21.60
  L 43.83 20.55
  A 0.34 0.34 0.0 0 0 43.90 20.01
  Q 41.22 17.30 38.26 15.98
  A 0.12 0.11 -2.5 0 0 38.11 16.14
  Z
  M 47.93 33.06
  A 0.35 0.35 0.0 0 0 48.28 32.72
  Q 48.37 28.45 46.57 24.09
  A 0.88 0.87 75.7 0 0 45.67 23.55
  Q 44.17 23.70 42.67 24.39
  A 0.45 0.44 77.3 0 0 42.42 24.79
  L 42.42 32.79
  A 0.27 0.26 90.0 0 0 42.68 33.06
  L 47.93 33.06
  Z
  M 39.99 43.76
  L 43.96 45.06
  A 0.54 0.54 0.0 0 0 44.58 44.85
  Q 47.15 41.13 47.87 36.82
  A 0.68 0.68 0.0 0 0 47.20 36.02
  L 42.84 36.02
  A 1.02 1.02 0.0 0 0 41.87 36.72
  L 39.72 43.23
  A 0.42 0.42 0.0 0 0 39.99 43.76
  Z
  M 31.62 52.31
  Q 37.63 52.09 41.60 48.25
  A 0.64 0.64 0.0 0 0 41.36 47.18
  L 38.62 46.28
  A 1.15 1.14 -64.8 0 0 37.28 46.77
  Q 35.37 49.88 31.51 51.90
  A 0.22 0.22 0.0 0 0 31.62 52.31
  Z"
/>
<path fill="#ffffff" d="
  M 31.8891 16.1503
  A 17.15 10.33 -80.2 0 1 39.1493 34.8083
  A 17.15 10.33 -80.2 0 1 26.0509 49.9497
  A 17.15 10.33 -80.2 0 1 18.7907 31.2917
  A 17.15 10.33 -80.2 0 1 31.8891 16.1503
  Z
  M 27.56 31.22
  Q 28.27 32.24 28.11 33.04
  A 1.65 1.52 -65.2 0 1 25.58 34.09
  C 21.20 30.25 26.95 23.51 31.36 27.25
  C 34.46 29.88 34.63 34.40 32.09 37.52
  Q 28.99 41.34 23.44 39.73
  A 1.08 1.08 0.0 0 0 22.13 40.36
  L 22.11 40.40
  A 0.96 0.96 0.0 0 0 22.67 41.67
  Q 30.46 44.46 34.57 38.11
  C 37.42 33.72 36.41 27.17 31.53 24.78
  C 24.68 21.43 18.40 29.96 23.54 35.62
  Q 24.47 36.66 25.69 36.77
  C 29.16 37.10 31.15 34.67 30.18 31.33
  Q 29.67 29.56 28.12 29.83
  A 0.90 0.88 67.6 0 0 27.56 31.22
  Z"
/>
<path fill="#ffffff" d="
  M 38.26 15.98
  Q 41.22 17.30 43.90 20.01
  A 0.34 0.34 0.0 0 1 43.83 20.55
  L 42.02 21.60
  A 0.66 0.66 0.0 0 1 41.12 21.36
  L 38.11 16.14
  A 0.12 0.11 -2.5 0 1 38.26 15.98
  Z"
/>
<path fill="#ffffff" d="
  M 42.42 32.79
  L 42.42 24.79
  A 0.45 0.44 77.3 0 1 42.67 24.39
  Q 44.17 23.70 45.67 23.55
  A 0.88 0.87 75.7 0 1 46.57 24.09
  Q 48.37 28.45 48.28 32.72
  A 0.35 0.35 0.0 0 1 47.93 33.06
  L 42.68 33.06
  A 0.27 0.26 -90.0 0 1 42.42 32.79
  Z"
/>
<path fill="#a83148" d="
  M 27.56 31.22
  A 0.90 0.88 67.6 0 1 28.12 29.83
  Q 29.67 29.56 30.18 31.33
  C 31.15 34.67 29.16 37.10 25.69 36.77
  Q 24.47 36.66 23.54 35.62
  C 18.40 29.96 24.68 21.43 31.53 24.78
  C 36.41 27.17 37.42 33.72 34.57 38.11
  Q 30.46 44.46 22.67 41.67
  A 0.96 0.96 0.0 0 1 22.11 40.40
  L 22.13 40.36
  A 1.08 1.08 0.0 0 1 23.44 39.73
  Q 28.99 41.34 32.09 37.52
  C 34.63 34.40 34.46 29.88 31.36 27.25
  C 26.95 23.51 21.20 30.25 25.58 34.09
  A 1.65 1.52 -65.2 0 0 28.11 33.04
  Q 28.27 32.24 27.56 31.22
  Z"
/>
<path fill="#ffffff" d="
  M 39.99 43.76
  A 0.42 0.42 0.0 0 1 39.72 43.23
  L 41.87 36.72
  A 1.02 1.02 0.0 0 1 42.84 36.02
  L 47.20 36.02
  A 0.68 0.68 0.0 0 1 47.87 36.82
  Q 47.15 41.13 44.58 44.85
  A 0.54 0.54 0.0 0 1 43.96 45.06
  L 39.99 43.76
  Z"
/>
<path fill="#ffffff" d="
  M 31.62 52.31
  A 0.22 0.22 0.0 0 1 31.51 51.90
  Q 35.37 49.88 37.28 46.77
  A 1.15 1.14 -64.8 0 1 38.62 46.28
  L 41.36 47.18
  A 0.64 0.64 0.0 0 1 41.60 48.25
  Q 37.63 52.09 31.62 52.31
  Z"
/>
</svg>
