<?xml version="1.0" encoding="UTF-8" standalone="no"?>
<!DOCTYPE svg PUBLIC "-//W3C//DTD SVG 1.1//EN" "http://www.w3.org/Graphics/SVG/1.1/DTD/svg11.dtd">
<svg xmlns="http://www.w3.org/2000/svg" version="1.1" viewBox="0.00 0.00 66.00 88.00">
<g stroke-width="2.00" fill="none" stroke-linecap="butt">
<path stroke="#171b2a" vector-effect="non-scaling-stroke" d="
  M 33.30 85.83
  Q 33.44 85.83 33.66 85.68
  Q 36.56 83.61 39.73 80.23
  C 51.18 68.07 62.38 52.68 63.87 37.03
  Q 65.84 16.30 47.86 6.13
  Q 41.56 2.56 33.56 2.54
  Q 25.56 2.51 19.23 6.04
  Q 1.19 16.10 3.03 36.84
  C 4.43 52.50 15.53 67.96 26.91 80.19
  Q 30.06 83.59 32.94 85.68
  Q 33.16 85.83 33.30 85.83"
/>
<path stroke="#8e9099" vector-effect="non-scaling-stroke" d="
  M 32.97 52.21
  C 39.73 52.21 42.57 42.04 48.96 44.24
  A 0.31 0.30 4.4 0 0 49.36 43.90
  C 48.92 41.61 44.55 37.26 49.60 36.11
  A 0.54 0.54 0.0 0 0 49.59 35.05
  L 42.59 33.65
  A 3.39 3.32 67.8 0 1 41.32 33.10
  C 37.64 30.53 37.01 27.04 36.08 22.47
  Q 35.89 21.54 34.38 17.88
  Q 33.70 16.22 32.98 16.22
  Q 32.27 16.22 31.58 17.87
  Q 30.07 21.54 29.88 22.47
  C 28.94 27.04 28.31 30.53 24.63 33.09
  A 3.39 3.32 -67.7 0 1 23.36 33.64
  L 16.36 35.04
  A 0.54 0.54 0.0 0 0 16.35 36.10
  C 21.39 37.25 17.02 41.60 16.58 43.89
  A 0.31 0.30 -4.3 0 0 16.98 44.23
  C 23.37 42.03 26.20 52.20 32.97 52.21"
/>
<path stroke="#8e9099" vector-effect="non-scaling-stroke" d="
  M 24.4290 41.3146
  A 4.41 2.34 -134.5 0 0 25.8510 46.1001
  A 4.41 2.34 -134.5 0 0 30.6110 47.6054
  A 4.41 2.34 -134.5 0 0 29.1890 42.8199
  A 4.41 2.34 -134.5 0 0 24.4290 41.3146"
/>
<path stroke="#8e9099" vector-effect="non-scaling-stroke" d="
  M 41.5705 41.3057
  A 4.43 2.34 -45.4 0 0 36.7939 42.8170
  A 4.43 2.34 -45.4 0 0 35.3495 47.6143
  A 4.43 2.34 -45.4 0 0 40.1261 46.1030
  A 4.43 2.34 -45.4 0 0 41.5705 41.3057"
/>
</g>
<path fill="#111420" d="
  M 33.79 88.00
  L 33.04 88.00
  C 21.72 77.71 12.19 65.74 5.68 51.55
  Q 2.13 43.81 1.57 34.89
  C 0.56 18.86 11.16 5.76 26.65 2.06
  C 37.37 -0.51 49.55 3.33 57.13 11.63
  C 79.55 36.12 52.16 71.38 33.79 88.00
  Z
  M 33.30 85.83
  Q 33.44 85.83 33.66 85.68
  Q 36.56 83.61 39.73 80.23
  C 51.18 68.07 62.38 52.68 63.87 37.03
  Q 65.84 16.30 47.86 6.13
  Q 41.56 2.56 33.56 2.54
  Q 25.56 2.51 19.23 6.04
  Q 1.19 16.10 3.03 36.84
  C 4.43 52.50 15.53 67.96 26.91 80.19
  Q 30.06 83.59 32.94 85.68
  Q 33.16 85.83 33.30 85.83
  Z"
/>
<path fill="#1c2133" d="
  M 33.56 2.54
  Q 41.56 2.56 47.86 6.13
  Q 65.84 16.30 63.87 37.03
  C 62.38 52.68 51.18 68.07 39.73 80.23
  Q 36.56 83.61 33.66 85.68
  Q 33.44 85.83 33.30 85.83
  Q 33.16 85.83 32.94 85.68
  Q 30.06 83.59 26.91 80.19
  C 15.53 67.96 4.43 52.50 3.03 36.84
  Q 1.19 16.10 19.23 6.04
  Q 25.56 2.51 33.56 2.54
  Z
  M 32.97 52.21
  C 39.73 52.21 42.57 42.04 48.96 44.24
  A 0.31 0.30 4.4 0 0 49.36 43.90
  C 48.92 41.61 44.55 37.26 49.60 36.11
  A 0.54 0.54 0.0 0 0 49.59 35.05
  L 42.59 33.65
  A 3.39 3.32 67.8 0 1 41.32 33.10
  C 37.64 30.53 37.01 27.04 36.08 22.47
  Q 35.89 21.54 34.38 17.88
  Q 33.70 16.22 32.98 16.22
  Q 32.27 16.22 31.58 17.87
  Q 30.07 21.54 29.88 22.47
  C 28.94 27.04 28.31 30.53 24.63 33.09
  A 3.39 3.32 -67.7 0 1 23.36 33.64
  L 16.36 35.04
  A 0.54 0.54 0.0 0 0 16.35 36.10
  C 21.39 37.25 17.02 41.60 16.58 43.89
  A 0.31 0.30 -4.3 0 0 16.98 44.23
  C 23.37 42.03 26.20 52.20 32.97 52.21
  Z"
/>
<path fill="#ffffff" d="
  M 32.98 16.22
  Q 33.70 16.22 34.38 17.88
  Q 35.89 21.54 36.08 22.47
  C 37.01 27.04 37.64 30.53 41.32 33.10
  A 3.39 3.32 67.8 0 0 42.59 33.65
  L 49.59 35.05
  A 0.54 0.54 0.0 0 1 49.60 36.11
  C 44.55 37.26 48.92 41.61 49.36 43.90
  A 0.31 0.30 4.4 0 1 48.96 44.24
  C 42.57 42.04 39.73 52.21 32.97 52.21
  C 26.20 52.20 23.37 42.03 16.98 44.23
  A 0.31 0.30 -4.3 0 1 16.58 43.89
  C 17.02 41.60 21.39 37.25 16.35 36.10
  A 0.54 0.54 0.0 0 1 16.36 35.04
  L 23.36 33.64
  A 3.39 3.32 -67.7 0 0 24.63 33.09
  C 28.31 30.53 28.94 27.04 29.88 22.47
  Q 30.07 21.54 31.58 17.87
  Q 32.27 16.22 32.98 16.22
  Z
  M 24.4290 41.3146
  A 4.41 2.34 -134.5 0 0 25.8510 46.1001
  A 4.41 2.34 -134.5 0 0 30.6110 47.6054
  A 4.41 2.34 -134.5 0 0 29.1890 42.8199
  A 4.41 2.34 -134.5 0 0 24.4290 41.3146
  Z
  M 41.5705 41.3057
  A 4.43 2.34 -45.4 0 0 36.7939 42.8170
  A 4.43 2.34 -45.4 0 0 35.3495 47.6143
  A 4.43 2.34 -45.4 0 0 40.1261 46.1030
  A 4.43 2.34 -45.4 0 0 41.5705 41.3057
  Z"
/>
<ellipse fill="#1c2133" cx="0.00" cy="0.00" transform="translate(27.52,44.46) rotate(-134.5)" rx="4.41" ry="2.34"/>
<ellipse fill="#1c2133" cx="0.00" cy="0.00" transform="translate(38.46,44.46) rotate(-45.4)" rx="4.43" ry="2.34"/>
</svg>
