<?xml version="1.0" encoding="UTF-8" standalone="no"?>
<!DOCTYPE svg PUBLIC "-//W3C//DTD SVG 1.1//EN" "http://www.w3.org/Graphics/SVG/1.1/DTD/svg11.dtd">
<svg xmlns="http://www.w3.org/2000/svg" version="1.1" viewBox="0.00 0.00 66.00 88.00">
<g stroke-width="2.00" fill="none" stroke-linecap="butt">
<path stroke="#395b67" vector-effect="non-scaling-stroke" d="
  M 33.40 86.69
  Q 33.53 86.69 33.67 86.65
  A 0.10 0.08 12.6 0 0 33.72 86.63
  Q 45.32 75.57 53.62 63.16
  C 63.85 47.86 69.92 27.92 56.63 12.88
  Q 48.09 3.23 34.76 2.50
  Q 34.00 2.46 33.54 2.46
  Q 33.07 2.46 32.31 2.50
  Q 18.98 3.18 10.41 12.80
  C -2.93 27.80 3.07 47.76 13.25 63.09
  Q 21.51 75.53 33.08 86.63
  A 0.10 0.08 -12.4 0 0 33.13 86.65
  Q 33.26 86.69 33.40 86.69"
/>
<path stroke="#a6bbc3" vector-effect="non-scaling-stroke" d="
  M 37.59 35.50
  Q 38.15 35.73 38.30 35.77
  A 0.66 0.65 18.8 0 0 39.08 35.39
  L 42.33 27.39
  A 1.10 1.09 7.3 0 1 43.21 26.72
  L 43.92 26.65
  A 1.18 1.17 7.5 0 0 44.85 25.94
  L 47.75 18.75
  A 1.26 1.25 -57.7 0 0 47.44 17.35
  Q 46.95 16.85 45.49 16.25
  Q 44.02 15.65 43.32 15.66
  A 1.26 1.25 -77.8 0 0 42.12 16.44
  L 39.14 23.60
  A 1.18 1.17 37.1 0 0 39.30 24.76
  L 39.76 25.31
  A 1.10 1.09 37.3 0 1 39.92 26.40
  L 36.62 34.38
  A 0.66 0.65 25.7 0 0 36.90 35.20
  Q 37.03 35.28 37.59 35.50"
/>
<path stroke="#a6bbc3" vector-effect="non-scaling-stroke" d="
  M 32.61 45.00
  Q 41.53 44.99 42.45 44.90
  A 0.23 0.23 0.0 0 0 42.64 44.59
  C 40.97 40.37 37.25 37.53 32.60 37.54
  C 27.96 37.54 24.24 40.38 22.58 44.61
  A 0.23 0.23 0.0 0 0 22.77 44.92
  Q 23.70 45.01 32.61 45.00"
/>
<path stroke="#a6bbc3" vector-effect="non-scaling-stroke" d="
  M 47.82 48.42
  A 0.36 0.36 0.0 0 0 47.46 48.06
  L 17.78 48.06
  A 0.36 0.36 0.0 0 0 17.42 48.42
  L 17.42 51.96
  A 0.36 0.36 0.0 0 0 17.78 52.32
  L 47.46 52.32
  A 0.36 0.36 0.0 0 0 47.82 51.96
  L 47.82 48.42"
/>
</g>
<path fill="#243e46" d="
  M 33.80 88.00
  L 33.04 88.00
  C 22.17 78.19 12.04 65.63 5.74 51.77
  Q 2.16 43.90 1.59 34.95
  C -0.05 9.44 27.30 -6.56 49.15 5.36
  Q 55.21 8.67 59.17 14.03
  Q 68.02 26.04 64.50 41.55
  Q 61.82 53.37 54.47 64.21
  Q 45.61 77.26 33.80 88.00
  Z
  M 33.40 86.69
  Q 33.53 86.69 33.67 86.65
  A 0.10 0.08 12.6 0 0 33.72 86.63
  Q 45.32 75.57 53.62 63.16
  C 63.85 47.86 69.92 27.92 56.63 12.88
  Q 48.09 3.23 34.76 2.50
  Q 34.00 2.46 33.54 2.46
  Q 33.07 2.46 32.31 2.50
  Q 18.98 3.18 10.41 12.80
  C -2.93 27.80 3.07 47.76 13.25 63.09
  Q 21.51 75.53 33.08 86.63
  A 0.10 0.08 -12.4 0 0 33.13 86.65
  Q 33.26 86.69 33.40 86.69
  Z"
/>
<path fill="#4d7787" d="
  M 33.54 2.46
  Q 34.00 2.46 34.76 2.50
  Q 48.09 3.23 56.63 12.88
  C 69.92 27.92 63.85 47.86 53.62 63.16
  Q 45.32 75.57 33.72 86.63
  A 0.10 0.08 12.6 0 1 33.67 86.65
  Q 33.53 86.69 33.40 86.69
  Q 33.26 86.69 33.13 86.65
  A 0.10 0.08 -12.4 0 1 33.08 86.63
  Q 21.51 75.53 13.25 63.09
  C 3.07 47.76 -2.93 27.80 10.41 12.80
  Q 18.98 3.18 32.31 2.50
  Q 33.07 2.46 33.54 2.46
  Z
  M 37.59 35.50
  Q 38.15 35.73 38.30 35.77
  A 0.66 0.65 18.8 0 0 39.08 35.39
  L 42.33 27.39
  A 1.10 1.09 7.3 0 1 43.21 26.72
  L 43.92 26.65
  A 1.18 1.17 7.5 0 0 44.85 25.94
  L 47.75 18.75
  A 1.26 1.25 -57.7 0 0 47.44 17.35
  Q 46.95 16.85 45.49 16.25
  Q 44.02 15.65 43.32 15.66
  A 1.26 1.25 -77.8 0 0 42.12 16.44
  L 39.14 23.60
  A 1.18 1.17 37.1 0 0 39.30 24.76
  L 39.76 25.31
  A 1.10 1.09 37.3 0 1 39.92 26.40
  L 36.62 34.38
  A 0.66 0.65 25.7 0 0 36.90 35.20
  Q 37.03 35.28 37.59 35.50
  Z
  M 32.61 45.00
  Q 41.53 44.99 42.45 44.90
  A 0.23 0.23 0.0 0 0 42.64 44.59
  C 40.97 40.37 37.25 37.53 32.60 37.54
  C 27.96 37.54 24.24 40.38 22.58 44.61
  A 0.23 0.23 0.0 0 0 22.77 44.92
  Q 23.70 45.01 32.61 45.00
  Z
  M 47.82 48.42
  A 0.36 0.36 0.0 0 0 47.46 48.06
  L 17.78 48.06
  A 0.36 0.36 0.0 0 0 17.42 48.42
  L 17.42 51.96
  A 0.36 0.36 0.0 0 0 17.78 52.32
  L 47.46 52.32
  A 0.36 0.36 0.0 0 0 47.82 51.96
  L 47.82 48.42
  Z"
/>
<path fill="#ffffff" d="
  M 45.49 16.25
  Q 46.95 16.85 47.44 17.35
  A 1.26 1.25 -57.7 0 1 47.75 18.75
  L 44.85 25.94
  A 1.18 1.17 7.5 0 1 43.92 26.65
  L 43.21 26.72
  A 1.10 1.09 7.3 0 0 42.33 27.39
  L 39.08 35.39
  A 0.66 0.65 18.8 0 1 38.30 35.77
  Q 38.15 35.73 37.59 35.50
  Q 37.03 35.28 36.90 35.20
  A 0.66 0.65 25.7 0 1 36.62 34.38
  L 39.92 26.40
  A 1.10 1.09 37.3 0 0 39.76 25.31
  L 39.30 24.76
  A 1.18 1.17 37.1 0 1 39.14 23.60
  L 42.12 16.44
  A 1.26 1.25 -77.8 0 1 43.32 15.66
  Q 44.02 15.65 45.49 16.25
  Z"
/>
<path fill="#ffffff" d="
  M 32.60 37.54
  C 37.25 37.53 40.97 40.37 42.64 44.59
  A 0.23 0.23 0.0 0 1 42.45 44.90
  Q 41.53 44.99 32.61 45.00
  Q 23.70 45.01 22.77 44.92
  A 0.23 0.23 0.0 0 1 22.58 44.61
  C 24.24 40.38 27.96 37.54 32.60 37.54
  Z"
/>
<rect fill="#ffffff" x="17.42" y="48.06" width="30.40" height="4.26" rx="0.36"/>
</svg>
