<?xml version="1.0" encoding="UTF-8" standalone="no"?>
<!DOCTYPE svg PUBLIC "-//W3C//DTD SVG 1.1//EN" "http://www.w3.org/Graphics/SVG/1.1/DTD/svg11.dtd">
<svg xmlns="http://www.w3.org/2000/svg" version="1.1" viewBox="0.00 0.00 66.00 88.00">
<g stroke-width="2.00" fill="none" stroke-linecap="butt">
<path stroke="#6c427b" vector-effect="non-scaling-stroke" d="
  M 33.41 86.69
  Q 33.54 86.69 33.63 86.67
  Q 33.67 86.66 33.78 86.56
  C 45.36 75.50 55.85 62.62 61.39 48.13
  C 66.46 34.87 65.24 21.24 55.02 11.21
  Q 46.89 3.24 35.00 2.53
  Q 34.15 2.48 33.53 2.48
  Q 32.92 2.48 32.07 2.53
  Q 20.18 3.20 12.02 11.15
  C 1.77 21.15 0.52 34.78 5.55 48.05
  C 11.05 62.56 21.50 75.47 33.05 86.56
  Q 33.16 86.66 33.20 86.67
  Q 33.29 86.69 33.41 86.69"
/>
<path stroke="#c7acd0" vector-effect="non-scaling-stroke" d="
  M 34.18 50.65
  A 1.31 1.31 0.0 0 0 33.00 49.19
  Q 25.11 48.52 20.96 43.33
  C 15.67 36.74 16.62 27.69 21.93 21.37
  Q 23.29 19.76 25.60 17.87
  A 0.84 0.83 55.3 0 0 25.79 16.80
  L 25.56 16.39
  A 1.21 1.21 0.0 0 0 23.80 16.02
  C 8.88 26.83 12.82 50.68 32.75 51.93
  A 1.35 1.34 5.2 0 0 34.17 50.75
  L 34.18 50.65"
/>
<path stroke="#c7acd0" vector-effect="non-scaling-stroke" d="
  M 32.21 22.26
  Q 36.96 20.54 42.13 22.61
  A 1.27 1.25 -73.4 0 0 43.84 21.68
  Q 44.02 20.80 43.07 20.34
  Q 37.45 17.62 31.34 19.83
  Q 25.23 22.05 22.64 27.74
  Q 22.21 28.69 22.91 29.25
  A 1.27 1.25 33.6 0 0 24.82 28.88
  Q 27.46 23.98 32.21 22.26"
/>
<path stroke="#c7acd0" vector-effect="non-scaling-stroke" d="
  M 47.87 37.97
  Q 46.33 43.34 41.13 46.62
  A 1.40 1.38 52.5 0 0 40.86 48.75
  Q 41.53 49.48 42.55 48.93
  Q 48.63 45.66 50.60 38.76
  Q 52.58 31.86 49.16 25.86
  Q 48.58 24.86 47.63 25.12
  A 1.40 1.38 -20.5 0 0 46.73 27.07
  Q 49.41 32.61 47.87 37.97"
/>
<path stroke="#c7acd0" vector-effect="non-scaling-stroke" d="
  M 22.93 36.21
  A 1.26 1.26 0.0 0 0 22.33 37.88
  C 27.26 48.40 41.41 46.98 44.19 36.05
  C 46.10 28.55 38.24 22.83 31.80 27.06
  C 29.04 28.87 27.04 33.02 28.99 36.02
  C 31.54 39.94 36.23 38.62 37.67 34.42
  A 1.65 1.65 0.0 0 0 36.98 32.49
  L 36.91 32.45
  A 1.09 1.09 0.0 0 0 35.28 32.96
  L 34.69 34.51
  A 1.03 1.02 86.9 0 1 34.20 35.06
  Q 32.54 35.88 31.32 34.66
  A 1.30 1.28 -65.0 0 1 30.96 33.65
  C 31.75 24.34 45.73 28.13 40.68 37.75
  Q 39.15 40.67 35.23 41.93
  C 30.66 43.39 26.69 40.77 24.72 36.73
  A 1.27 1.26 -25.8 0 0 23.04 36.15
  L 22.93 36.21"
/>
</g>
<path fill="#492c55" d="
  M 33.78 88.00
  L 33.04 88.00
  C 22.21 78.22 11.92 65.54 5.75 51.76
  Q 2.15 43.71 1.56 34.97
  C 0.18 14.45 18.55 -1.61 38.97 1.80
  C 54.62 4.42 66.10 18.18 65.46 34.06
  Q 65.15 41.63 62.41 48.84
  C 56.79 63.64 45.44 77.44 33.78 88.00
  Z
  M 33.41 86.69
  Q 33.54 86.69 33.63 86.67
  Q 33.67 86.66 33.78 86.56
  C 45.36 75.50 55.85 62.62 61.39 48.13
  C 66.46 34.87 65.24 21.24 55.02 11.21
  Q 46.89 3.24 35.00 2.53
  Q 34.15 2.48 33.53 2.48
  Q 32.92 2.48 32.07 2.53
  Q 20.18 3.20 12.02 11.15
  C 1.77 21.15 0.52 34.78 5.55 48.05
  C 11.05 62.56 21.50 75.47 33.05 86.56
  Q 33.16 86.66 33.20 86.67
  Q 33.29 86.69 33.41 86.69
  Z"
/>
<path fill="#8e58a1" d="
  M 33.53 2.48
  Q 34.15 2.48 35.00 2.53
  Q 46.89 3.24 55.02 11.21
  C 65.24 21.24 66.46 34.87 61.39 48.13
  C 55.85 62.62 45.36 75.50 33.78 86.56
  Q 33.67 86.66 33.63 86.67
  Q 33.54 86.69 33.41 86.69
  Q 33.29 86.69 33.20 86.67
  Q 33.16 86.66 33.05 86.56
  C 21.50 75.47 11.05 62.56 5.55 48.05
  C 0.52 34.78 1.77 21.15 12.02 11.15
  Q 20.18 3.20 32.07 2.53
  Q 32.92 2.48 33.53 2.48
  Z
  M 34.18 50.65
  A 1.31 1.31 0.0 0 0 33.00 49.19
  Q 25.11 48.52 20.96 43.33
  C 15.67 36.74 16.62 27.69 21.93 21.37
  Q 23.29 19.76 25.60 17.87
  A 0.84 0.83 55.3 0 0 25.79 16.80
  L 25.56 16.39
  A 1.21 1.21 0.0 0 0 23.80 16.02
  C 8.88 26.83 12.82 50.68 32.75 51.93
  A 1.35 1.34 5.2 0 0 34.17 50.75
  L 34.18 50.65
  Z
  M 32.21 22.26
  Q 36.96 20.54 42.13 22.61
  A 1.27 1.25 -73.4 0 0 43.84 21.68
  Q 44.02 20.80 43.07 20.34
  Q 37.45 17.62 31.34 19.83
  Q 25.23 22.05 22.64 27.74
  Q 22.21 28.69 22.91 29.25
  A 1.27 1.25 33.6 0 0 24.82 28.88
  Q 27.46 23.98 32.21 22.26
  Z
  M 47.87 37.97
  Q 46.33 43.34 41.13 46.62
  A 1.40 1.38 52.5 0 0 40.86 48.75
  Q 41.53 49.48 42.55 48.93
  Q 48.63 45.66 50.60 38.76
  Q 52.58 31.86 49.16 25.86
  Q 48.58 24.86 47.63 25.12
  A 1.40 1.38 -20.5 0 0 46.73 27.07
  Q 49.41 32.61 47.87 37.97
  Z
  M 22.93 36.21
  A 1.26 1.26 0.0 0 0 22.33 37.88
  C 27.26 48.40 41.41 46.98 44.19 36.05
  C 46.10 28.55 38.24 22.83 31.80 27.06
  C 29.04 28.87 27.04 33.02 28.99 36.02
  C 31.54 39.94 36.23 38.62 37.67 34.42
  A 1.65 1.65 0.0 0 0 36.98 32.49
  L 36.91 32.45
  A 1.09 1.09 0.0 0 0 35.28 32.96
  L 34.69 34.51
  A 1.03 1.02 86.9 0 1 34.20 35.06
  Q 32.54 35.88 31.32 34.66
  A 1.30 1.28 -65.0 0 1 30.96 33.65
  C 31.75 24.34 45.73 28.13 40.68 37.75
  Q 39.15 40.67 35.23 41.93
  C 30.66 43.39 26.69 40.77 24.72 36.73
  A 1.27 1.26 -25.8 0 0 23.04 36.15
  L 22.93 36.21
  Z"
/>
<path fill="#ffffff" d="
  M 34.18 50.65
  L 34.17 50.75
  A 1.35 1.34 5.2 0 1 32.75 51.93
  C 12.82 50.68 8.88 26.83 23.80 16.02
  A 1.21 1.21 0.0 0 1 25.56 16.39
  L 25.79 16.80
  A 0.84 0.83 55.3 0 1 25.60 17.87
  Q 23.29 19.76 21.93 21.37
  C 16.62 27.69 15.67 36.74 20.96 43.33
  Q 25.11 48.52 33.00 49.19
  A 1.31 1.31 0.0 0 1 34.18 50.65
  Z"
/>
<path fill="#ffffff" d="
  M 32.21 22.26
  Q 27.46 23.98 24.82 28.88
  A 1.27 1.25 33.6 0 1 22.91 29.25
  Q 22.21 28.69 22.64 27.74
  Q 25.23 22.05 31.34 19.83
  Q 37.45 17.62 43.07 20.34
  Q 44.02 20.80 43.84 21.68
  A 1.27 1.25 -73.4 0 1 42.13 22.61
  Q 36.96 20.54 32.21 22.26
  Z"
/>
<path fill="#ffffff" d="
  M 50.60 38.76
  Q 48.63 45.66 42.55 48.93
  Q 41.53 49.48 40.86 48.75
  A 1.40 1.38 52.5 0 1 41.13 46.62
  Q 46.33 43.34 47.87 37.97
  Q 49.41 32.61 46.73 27.07
  A 1.40 1.38 -20.5 0 1 47.63 25.12
  Q 48.58 24.86 49.16 25.86
  Q 52.58 31.86 50.60 38.76
  Z"
/>
<path fill="#ffffff" d="
  M 22.93 36.21
  L 23.04 36.15
  A 1.27 1.26 -25.8 0 1 24.72 36.73
  C 26.69 40.77 30.66 43.39 35.23 41.93
  Q 39.15 40.67 40.68 37.75
  C 45.73 28.13 31.75 24.34 30.96 33.65
  A 1.30 1.28 -65.0 0 0 31.32 34.66
  Q 32.54 35.88 34.20 35.06
  A 1.03 1.02 86.9 0 0 34.69 34.51
  L 35.28 32.96
  A 1.09 1.09 0.0 0 1 36.91 32.45
  L 36.98 32.49
  A 1.65 1.65 0.0 0 1 37.67 34.42
  C 36.23 38.62 31.54 39.94 28.99 36.02
  C 27.04 33.02 29.04 28.87 31.80 27.06
  C 38.24 22.83 46.10 28.55 44.19 36.05
  C 41.41 46.98 27.26 48.40 22.33 37.88
  A 1.26 1.26 0.0 0 1 22.93 36.21
  Z"
/>
</svg>
