<?xml version="1.0" encoding="UTF-8" standalone="no"?>
<!DOCTYPE svg PUBLIC "-//W3C//DTD SVG 1.1//EN" "http://www.w3.org/Graphics/SVG/1.1/DTD/svg11.dtd">
<svg xmlns="http://www.w3.org/2000/svg" version="1.1" viewBox="0.00 0.00 66.00 88.00">
<g stroke-width="2.00" fill="none" stroke-linecap="butt">
<path stroke="#802436" vector-effect="non-scaling-stroke" d="
  M 33.42 86.69
  Q 33.53 86.69 33.63 86.67
  Q 33.69 86.66 33.78 86.57
  C 47.63 73.46 63.90 53.66 64.26 33.47
  C 64.57 16.31 50.56 2.49 33.51 2.47
  C 16.46 2.46 2.42 16.25 2.69 33.41
  C 3.01 53.60 19.25 73.43 33.07 86.57
  Q 33.16 86.66 33.22 86.67
  Q 33.32 86.69 33.42 86.69"
/>
<path stroke="#d498a4" vector-effect="non-scaling-stroke" d="
  M 51.23 34.05
  A 18.26 18.26 0.0 0 0 32.97 15.79
  A 18.26 18.26 0.0 0 0 14.71 34.05
  A 18.26 18.26 0.0 0 0 32.97 52.31
  A 18.26 18.26 0.0 0 0 51.23 34.05"
/>
<path stroke="#d498a4" vector-effect="non-scaling-stroke" d="
  M 33.45 40.63
  Q 32.61 42.80 31.90 44.37
  C 31.08 46.19 31.95 49.03 34.34 48.51
  Q 35.41 48.27 35.49 48.27
  A 1.33 1.32 -28.7 0 1 36.39 48.53
  Q 37.98 49.77 39.44 49.40
  A 1.37 1.33 14.9 0 0 40.03 49.07
  L 42.87 46.23
  A 0.84 0.82 28.4 0 1 43.64 46.01
  C 47.00 46.81 48.36 41.17 48.81 38.87
  Q 49.78 33.86 46.30 30.79
  A 1.38 1.37 19.0 0 1 45.85 29.87
  Q 45.40 23.67 39.60 23.29
  A 1.12 1.11 -14.1 0 1 38.74 22.78
  Q 35.30 17.35 27.73 17.49
  Q 24.02 17.56 24.12 20.77
  C 24.14 21.62 24.96 22.00 25.13 22.39
  A 0.44 0.44 0.0 0 1 24.76 22.99
  C 22.12 23.20 16.58 25.43 15.90 28.75
  A 1.34 1.34 0.0 0 0 16.09 29.75
  Q 17.43 31.84 20.25 32.27
  A 0.47 0.46 13.2 0 1 20.62 32.86
  C 19.11 38.12 27.38 38.29 30.28 37.78
  A 1.06 1.03 -24.2 0 1 31.26 38.14
  Q 32.28 39.35 33.17 39.85
  A 0.63 0.63 0.0 0 1 33.45 40.63"
/>
<path stroke="#d498a4" vector-effect="non-scaling-stroke" d="
  M 27.48 20.23
  A 0.11 0.11 0.0 0 0 27.41 20.41
  L 32.68 25.68
  A 0.64 0.64 0.0 0 0 33.58 25.68
  L 35.55 23.71
  A 0.54 0.53 44.6 0 0 35.54 22.95
  Q 32.50 20.02 27.48 20.23"
/>
<path stroke="#d498a4" vector-effect="non-scaling-stroke" d="
  M 31.50 27.55
  A 0.85 0.84 -69.7 0 0 31.00 26.45
  Q 24.08 23.90 19.22 28.45
  A 0.50 0.50 0.0 0 0 19.41 29.29
  Q 23.87 30.67 30.19 29.83
  A 0.80 0.80 0.0 0 0 30.84 29.32
  L 31.50 27.55"
/>
<path stroke="#d498a4" vector-effect="non-scaling-stroke" d="
  M 40.03 28.81
  Q 41.50 29.97 42.60 31.44
  A 0.30 0.30 0.0 0 0 43.13 31.31
  Q 43.60 28.15 41.71 26.67
  Q 39.83 25.18 36.87 26.38
  A 0.30 0.30 0.0 0 0 36.86 26.93
  Q 38.55 27.64 40.03 28.81"
/>
<path stroke="#d498a4" vector-effect="non-scaling-stroke" d="
  M 37.22 32.65
  Q 38.72 33.87 39.87 35.54
  A 0.67 0.66 59.4 0 0 40.71 35.76
  Q 41.34 35.45 41.79 34.54
  A 0.86 0.86 0.0 0 0 41.69 33.64
  Q 39.98 31.48 38.88 30.59
  Q 37.77 29.70 35.30 28.49
  A 0.86 0.86 0.0 0 0 34.40 28.59
  Q 33.60 29.22 33.44 29.90
  A 0.67 0.66 18.3 0 0 33.83 30.68
  Q 35.71 31.44 37.22 32.65"
/>
<path stroke="#d498a4" vector-effect="non-scaling-stroke" d="
  M 29.23 31.58
  Q 26.16 32.07 23.54 33.78
  A 0.37 0.36 38.2 0 0 23.62 34.43
  Q 26.71 35.52 29.12 35.14
  A 0.79 0.79 0.0 0 0 29.78 34.22
  Q 29.60 33.20 29.86 32.29
  A 0.57 0.57 0.0 0 0 29.23 31.58"
/>
<path stroke="#d498a4" vector-effect="non-scaling-stroke" d="
  M 33.82 37.05
  Q 35.67 38.55 38.15 37.45
  A 0.55 0.55 0.0 0 0 38.42 36.72
  Q 37.91 35.62 36.15 34.18
  Q 34.38 32.74 33.20 32.47
  A 0.55 0.55 0.0 0 0 32.54 32.88
  Q 31.96 35.54 33.82 37.05"
/>
<path stroke="#d498a4" vector-effect="non-scaling-stroke" d="
  M 44.53 42.61
  Q 46.83 39.24 45.98 34.68
  A 0.49 0.49 0.0 0 0 45.20 34.39
  Q 43.61 35.65 43.80 36.74
  Q 43.88 37.21 44.10 42.48
  A 0.24 0.23 60.8 0 0 44.53 42.61"
/>
<path stroke="#d498a4" vector-effect="non-scaling-stroke" d="
  M 39.08 46.15
  Q 42.24 43.55 42.70 38.92
  A 0.49 0.49 0.0 0 0 42.03 38.42
  Q 40.14 39.19 40.02 40.29
  Q 39.97 40.77 38.70 45.91
  A 0.24 0.24 0.0 0 0 39.08 46.15"
/>
<path stroke="#d498a4" vector-effect="non-scaling-stroke" d="
  M 35.10 45.35
  Q 38.17 44.09 38.37 41.46
  A 1.13 1.13 0.0 0 0 36.19 40.97
  L 34.69 44.95
  A 0.31 0.31 0.0 0 0 35.10 45.35"
/>
</g>
<path fill="#581723" d="
  M 33.81 88.00
  L 33.13 88.00
  C 16.33 73.09 -8.30 41.55 5.44 17.69
  C 18.46 -4.92 51.20 -4.03 62.69 19.93
  C 66.95 28.82 65.88 40.05 62.33 49.05
  C 56.47 63.90 45.56 77.31 33.81 88.00
  Z
  M 33.42 86.69
  Q 33.53 86.69 33.63 86.67
  Q 33.69 86.66 33.78 86.57
  C 47.63 73.46 63.90 53.66 64.26 33.47
  C 64.57 16.31 50.56 2.49 33.51 2.47
  C 16.46 2.46 2.42 16.25 2.69 33.41
  C 3.01 53.60 19.25 73.43 33.07 86.57
  Q 33.16 86.66 33.22 86.67
  Q 33.32 86.69 33.42 86.69
  Z"
/>
<path fill="#a83148" d="
  M 33.51 2.47
  C 50.56 2.49 64.57 16.31 64.26 33.47
  C 63.90 53.66 47.63 73.46 33.78 86.57
  Q 33.69 86.66 33.63 86.67
  Q 33.53 86.69 33.42 86.69
  Q 33.32 86.69 33.22 86.67
  Q 33.16 86.66 33.07 86.57
  C 19.25 73.43 3.01 53.60 2.69 33.41
  C 2.42 16.25 16.46 2.46 33.51 2.47
  Z
  M 51.23 34.05
  A 18.26 18.26 0.0 0 0 32.97 15.79
  A 18.26 18.26 0.0 0 0 14.71 34.05
  A 18.26 18.26 0.0 0 0 32.97 52.31
  A 18.26 18.26 0.0 0 0 51.23 34.05
  Z"
/>
<path fill="#ffffff" d="
  M 51.23 34.05
  A 18.26 18.26 0.0 0 1 32.97 52.31
  A 18.26 18.26 0.0 0 1 14.71 34.05
  A 18.26 18.26 0.0 0 1 32.97 15.79
  A 18.26 18.26 0.0 0 1 51.23 34.05
  Z
  M 33.45 40.63
  Q 32.61 42.80 31.90 44.37
  C 31.08 46.19 31.95 49.03 34.34 48.51
  Q 35.41 48.27 35.49 48.27
  A 1.33 1.32 -28.7 0 1 36.39 48.53
  Q 37.98 49.77 39.44 49.40
  A 1.37 1.33 14.9 0 0 40.03 49.07
  L 42.87 46.23
  A 0.84 0.82 28.4 0 1 43.64 46.01
  C 47.00 46.81 48.36 41.17 48.81 38.87
  Q 49.78 33.86 46.30 30.79
  A 1.38 1.37 19.0 0 1 45.85 29.87
  Q 45.40 23.67 39.60 23.29
  A 1.12 1.11 -14.1 0 1 38.74 22.78
  Q 35.30 17.35 27.73 17.49
  Q 24.02 17.56 24.12 20.77
  C 24.14 21.62 24.96 22.00 25.13 22.39
  A 0.44 0.44 0.0 0 1 24.76 22.99
  C 22.12 23.20 16.58 25.43 15.90 28.75
  A 1.34 1.34 0.0 0 0 16.09 29.75
  Q 17.43 31.84 20.25 32.27
  A 0.47 0.46 13.2 0 1 20.62 32.86
  C 19.11 38.12 27.38 38.29 30.28 37.78
  A 1.06 1.03 -24.2 0 1 31.26 38.14
  Q 32.28 39.35 33.17 39.85
  A 0.63 0.63 0.0 0 1 33.45 40.63
  Z"
/>
<path fill="#a83148" d="
  M 33.17 39.85
  Q 32.28 39.35 31.26 38.14
  A 1.06 1.03 -24.2 0 0 30.28 37.78
  C 27.38 38.29 19.11 38.12 20.62 32.86
  A 0.47 0.46 13.2 0 0 20.25 32.27
  Q 17.43 31.84 16.09 29.75
  A 1.34 1.34 0.0 0 1 15.90 28.75
  C 16.58 25.43 22.12 23.20 24.76 22.99
  A 0.44 0.44 0.0 0 0 25.13 22.39
  C 24.96 22.00 24.14 21.62 24.12 20.77
  Q 24.02 17.56 27.73 17.49
  Q 35.30 17.35 38.74 22.78
  A 1.12 1.11 -14.1 0 0 39.60 23.29
  Q 45.40 23.67 45.85 29.87
  A 1.38 1.37 19.0 0 0 46.30 30.79
  Q 49.78 33.86 48.81 38.87
  C 48.36 41.17 47.00 46.81 43.64 46.01
  A 0.84 0.82 28.4 0 0 42.87 46.23
  L 40.03 49.07
  A 1.37 1.33 14.9 0 1 39.44 49.40
  Q 37.98 49.77 36.39 48.53
  A 1.33 1.32 -28.7 0 0 35.49 48.27
  Q 35.41 48.27 34.34 48.51
  C 31.95 49.03 31.08 46.19 31.90 44.37
  Q 32.61 42.80 33.45 40.63
  A 0.63 0.63 0.0 0 0 33.17 39.85
  Z
  M 27.48 20.23
  A 0.11 0.11 0.0 0 0 27.41 20.41
  L 32.68 25.68
  A 0.64 0.64 0.0 0 0 33.58 25.68
  L 35.55 23.71
  A 0.54 0.53 44.6 0 0 35.54 22.95
  Q 32.50 20.02 27.48 20.23
  Z
  M 31.50 27.55
  A 0.85 0.84 -69.7 0 0 31.00 26.45
  Q 24.08 23.90 19.22 28.45
  A 0.50 0.50 0.0 0 0 19.41 29.29
  Q 23.87 30.67 30.19 29.83
  A 0.80 0.80 0.0 0 0 30.84 29.32
  L 31.50 27.55
  Z
  M 40.03 28.81
  Q 41.50 29.97 42.60 31.44
  A 0.30 0.30 0.0 0 0 43.13 31.31
  Q 43.60 28.15 41.71 26.67
  Q 39.83 25.18 36.87 26.38
  A 0.30 0.30 0.0 0 0 36.86 26.93
  Q 38.55 27.64 40.03 28.81
  Z
  M 37.22 32.65
  Q 38.72 33.87 39.87 35.54
  A 0.67 0.66 59.4 0 0 40.71 35.76
  Q 41.34 35.45 41.79 34.54
  A 0.86 0.86 0.0 0 0 41.69 33.64
  Q 39.98 31.48 38.88 30.59
  Q 37.77 29.70 35.30 28.49
  A 0.86 0.86 0.0 0 0 34.40 28.59
  Q 33.60 29.22 33.44 29.90
  A 0.67 0.66 18.3 0 0 33.83 30.68
  Q 35.71 31.44 37.22 32.65
  Z
  M 29.23 31.58
  Q 26.16 32.07 23.54 33.78
  A 0.37 0.36 38.2 0 0 23.62 34.43
  Q 26.71 35.52 29.12 35.14
  A 0.79 0.79 0.0 0 0 29.78 34.22
  Q 29.60 33.20 29.86 32.29
  A 0.57 0.57 0.0 0 0 29.23 31.58
  Z
  M 33.82 37.05
  Q 35.67 38.55 38.15 37.45
  A 0.55 0.55 0.0 0 0 38.42 36.72
  Q 37.91 35.62 36.15 34.18
  Q 34.38 32.74 33.20 32.47
  A 0.55 0.55 0.0 0 0 32.54 32.88
  Q 31.96 35.54 33.82 37.05
  Z
  M 44.53 42.61
  Q 46.83 39.24 45.98 34.68
  A 0.49 0.49 0.0 0 0 45.20 34.39
  Q 43.61 35.65 43.80 36.74
  Q 43.88 37.21 44.10 42.48
  A 0.24 0.23 60.8 0 0 44.53 42.61
  Z
  M 39.08 46.15
  Q 42.24 43.55 42.70 38.92
  A 0.49 0.49 0.0 0 0 42.03 38.42
  Q 40.14 39.19 40.02 40.29
  Q 39.97 40.77 38.70 45.91
  A 0.24 0.24 0.0 0 0 39.08 46.15
  Z
  M 35.10 45.35
  Q 38.17 44.09 38.37 41.46
  A 1.13 1.13 0.0 0 0 36.19 40.97
  L 34.69 44.95
  A 0.31 0.31 0.0 0 0 35.10 45.35
  Z"
/>
<path fill="#ffffff" d="
  M 27.48 20.23
  Q 32.50 20.02 35.54 22.95
  A 0.54 0.53 44.6 0 1 35.55 23.71
  L 33.58 25.68
  A 0.64 0.64 0.0 0 1 32.68 25.68
  L 27.41 20.41
  A 0.11 0.11 0.0 0 1 27.48 20.23
  Z"
/>
<path fill="#ffffff" d="
  M 31.50 27.55
  L 30.84 29.32
  A 0.80 0.80 0.0 0 1 30.19 29.83
  Q 23.87 30.67 19.41 29.29
  A 0.50 0.50 0.0 0 1 19.22 28.45
  Q 24.08 23.90 31.00 26.45
  A 0.85 0.84 -69.7 0 1 31.50 27.55
  Z"
/>
<path fill="#ffffff" d="
  M 41.71 26.67
  Q 43.60 28.15 43.13 31.31
  A 0.30 0.30 0.0 0 1 42.60 31.44
  Q 41.50 29.97 40.03 28.81
  Q 38.55 27.64 36.86 26.93
  A 0.30 0.30 0.0 0 1 36.87 26.38
  Q 39.83 25.18 41.71 26.67
  Z"
/>
<path fill="#ffffff" d="
  M 38.88 30.59
  Q 39.98 31.48 41.69 33.64
  A 0.86 0.86 0.0 0 1 41.79 34.54
  Q 41.34 35.45 40.71 35.76
  A 0.67 0.66 59.4 0 1 39.87 35.54
  Q 38.72 33.87 37.22 32.65
  Q 35.71 31.44 33.83 30.68
  A 0.67 0.66 18.3 0 1 33.44 29.90
  Q 33.60 29.22 34.40 28.59
  A 0.86 0.86 0.0 0 1 35.30 28.49
  Q 37.77 29.70 38.88 30.59
  Z"
/>
<path fill="#ffffff" d="
  M 29.86 32.29
  Q 29.60 33.20 29.78 34.22
  A 0.79 0.79 0.0 0 1 29.12 35.14
  Q 26.71 35.52 23.62 34.43
  A 0.37 0.36 38.2 0 1 23.54 33.78
  Q 26.16 32.07 29.23 31.58
  A 0.57 0.57 0.0 0 1 29.86 32.29
  Z"
/>
<path fill="#ffffff" d="
  M 36.15 34.18
  Q 37.91 35.62 38.42 36.72
  A 0.55 0.55 0.0 0 1 38.15 37.45
  Q 35.67 38.55 33.82 37.05
  Q 31.96 35.54 32.54 32.88
  A 0.55 0.55 0.0 0 1 33.20 32.47
  Q 34.38 32.74 36.15 34.18
  Z"
/>
<path fill="#ffffff" d="
  M 44.53 42.61
  A 0.24 0.23 60.8 0 1 44.10 42.48
  Q 43.88 37.21 43.80 36.74
  Q 43.61 35.65 45.20 34.39
  A 0.49 0.49 0.0 0 1 45.98 34.68
  Q 46.83 39.24 44.53 42.61
  Z"
/>
<path fill="#ffffff" d="
  M 38.70 45.91
  Q 39.97 40.77 40.02 40.29
  Q 40.14 39.19 42.03 38.42
  A 0.49 0.49 0.0 0 1 42.70 38.92
  Q 42.24 43.55 39.08 46.15
  A 0.24 0.24 0.0 0 1 38.70 45.91
  Z"
/>
<path fill="#ffffff" d="
  M 34.69 44.95
  L 36.19 40.97
  A 1.13 1.13 0.0 0 1 38.37 41.46
  Q 38.17 44.09 35.10 45.35
  A 0.31 0.31 0.0 0 1 34.69 44.95
  Z"
/>
</svg>
