<?xml version="1.0" encoding="UTF-8" standalone="no"?>
<!DOCTYPE svg PUBLIC "-//W3C//DTD SVG 1.1//EN" "http://www.w3.org/Graphics/SVG/1.1/DTD/svg11.dtd">
<svg xmlns="http://www.w3.org/2000/svg" version="1.1" viewBox="0.00 0.00 66.00 88.00">
<g stroke-width="2.00" fill="none" stroke-linecap="butt">
<path stroke="#7f5766" vector-effect="non-scaling-stroke" d="
  M 33.41 86.69
  Q 33.55 86.69 33.68 86.66
  A 0.12 0.08 5.5 0 0 33.74 86.63
  Q 47.69 73.50 56.60 58.32
  C 64.74 44.46 68.62 26.26 56.78 13.00
  Q 48.25 3.45 35.24 2.57
  Q 33.60 2.46 33.53 2.46
  Q 33.46 2.46 31.82 2.57
  Q 18.80 3.41 10.24 12.93
  C -1.63 26.16 2.19 44.37 10.29 58.25
  Q 19.16 73.46 33.07 86.63
  A 0.12 0.08 -5.4 0 0 33.13 86.66
  Q 33.27 86.69 33.41 86.69"
/>
<path stroke="#d3b9c3" vector-effect="non-scaling-stroke" d="
  M 31.61 50.38
  C 33.43 53.39 35.49 52.50 37.25 50.27
  C 38.73 48.40 41.43 47.78 43.06 46.01
  C 50.21 38.25 45.62 24.53 39.19 18.25
  C 36.21 15.33 31.45 14.91 28.12 17.82
  C 21.52 23.58 17.34 36.23 22.11 44.04
  C 23.64 46.55 26.65 48.14 28.22 50.78
  Q 28.88 51.87 30.26 50.27
  A 0.84 0.84 0.0 0 1 31.61 50.38"
/>
<path stroke="#d3b9c3" vector-effect="non-scaling-stroke" d="
  M 33.43 46.69
  C 39.62 46.68 43.52 43.15 43.84 36.98
  Q 44.22 29.70 39.37 22.40
  C 38.22 20.68 35.57 18.55 33.36 18.55
  C 31.16 18.56 28.52 20.70 27.38 22.43
  Q 22.56 29.75 22.97 37.03
  C 23.32 43.19 27.24 46.71 33.43 46.69"
/>
<path stroke="#d3b9c3" vector-effect="non-scaling-stroke" d="
  M 29.15 25.71
  C 31.43 25.70 33.21 23.88 34.45 22.76
  A 0.96 0.96 0.0 0 0 33.43 21.16
  Q 30.54 22.40 28.85 25.18
  A 0.35 0.35 0.0 0 0 29.15 25.71"
/>
<path stroke="#d3b9c3" vector-effect="non-scaling-stroke" d="
  M 32.61 29.41
  A 2.01 2.01 0.0 0 0 36.08 29.49
  L 38.20 26.04
  A 0.82 0.82 0.0 0 0 38.08 25.03
  L 36.68 23.63
  A 0.37 0.37 0.0 0 0 36.18 23.61
  L 33.08 26.25
  A 1.21 1.21 0.0 0 0 32.67 26.98
  Q 32.33 28.90 32.61 29.41"
/>
<path stroke="#d3b9c3" vector-effect="non-scaling-stroke" d="
  M 26.11 36.58
  L 30.13 35.00
  A 1.00 0.97 -4.4 0 0 30.73 34.32
  Q 31.54 31.14 30.74 27.80
  A 0.67 0.66 77.5 0 0 29.96 27.30
  L 27.90 27.73
  A 1.07 1.04 3.8 0 0 27.12 28.39
  Q 25.75 31.98 25.63 36.24
  A 0.35 0.35 0.0 0 0 26.11 36.58"
/>
<path stroke="#d3b9c3" vector-effect="non-scaling-stroke" d="
  M 36.47 31.76
  A 0.90 0.89 -31.5 0 0 36.18 32.93
  L 37.61 35.61
  A 0.86 0.81 0.9 0 0 37.96 35.95
  Q 39.71 36.85 40.69 36.66
  A 0.86 0.86 0.0 0 0 41.37 35.65
  L 39.92 28.66
  A 0.59 0.59 0.0 0 0 38.81 28.53
  Q 37.70 30.94 36.47 31.76"
/>
<path stroke="#d3b9c3" vector-effect="non-scaling-stroke" d="
  M 28.43 38.49
  L 30.00 39.39
  A 0.78 0.75 -81.5 0 1 30.36 39.90
  L 31.07 43.32
  A 1.01 1.01 0.0 0 0 32.27 44.11
  L 34.44 43.67
  A 0.74 0.73 -1.8 0 0 35.01 43.07
  L 35.90 37.17
  A 1.58 1.56 35.9 0 0 35.74 36.20
  L 33.88 32.51
  A 0.54 0.54 0.0 0 0 32.87 32.67
  L 32.43 35.54
  A 0.93 0.90 84.0 0 1 31.86 36.26
  L 28.50 37.58
  A 0.51 0.51 0.0 0 0 28.43 38.49"
/>
<path stroke="#d3b9c3" vector-effect="non-scaling-stroke" d="
  M 38.18 38.24
  A 0.41 0.41 0.0 0 0 37.57 38.53
  L 36.92 42.84
  A 0.38 0.38 0.0 0 0 37.49 43.23
  Q 40.17 41.73 40.82 38.99
  A 0.34 0.34 0.0 0 0 40.43 38.58
  Q 39.21 38.83 38.18 38.24"
/>
<path stroke="#d3b9c3" vector-effect="non-scaling-stroke" d="
  M 28.94 42.33
  Q 29.16 40.38 26.47 39.41
  A 0.27 0.27 0.0 0 0 26.14 39.80
  Q 27.36 42.04 28.26 42.64
  A 0.44 0.44 0.0 0 0 28.94 42.33"
/>
</g>
<path fill="#563a44" d="
  M 33.81 88.00
  L 33.13 88.00
  Q 16.67 73.39 6.79 53.99
  Q 2.19 44.98 1.61 35.20
  Q 1.02 25.52 5.41 17.69
  C 12.00 5.92 25.31 -0.47 38.96 1.80
  C 55.11 4.50 66.45 18.78 65.42 35.05
  C 64.13 55.27 48.11 74.94 33.81 88.00
  Z
  M 33.41 86.69
  Q 33.55 86.69 33.68 86.66
  A 0.12 0.08 5.5 0 0 33.74 86.63
  Q 47.69 73.50 56.60 58.32
  C 64.74 44.46 68.62 26.26 56.78 13.00
  Q 48.25 3.45 35.24 2.57
  Q 33.60 2.46 33.53 2.46
  Q 33.46 2.46 31.82 2.57
  Q 18.80 3.41 10.24 12.93
  C -1.63 26.16 2.19 44.37 10.29 58.25
  Q 19.16 73.46 33.07 86.63
  A 0.12 0.08 -5.4 0 0 33.13 86.66
  Q 33.27 86.69 33.41 86.69
  Z"
/>
<path fill="#a77387" d="
  M 33.53 2.46
  Q 33.60 2.46 35.24 2.57
  Q 48.25 3.45 56.78 13.00
  C 68.62 26.26 64.74 44.46 56.60 58.32
  Q 47.69 73.50 33.74 86.63
  A 0.12 0.08 5.5 0 1 33.68 86.66
  Q 33.55 86.69 33.41 86.69
  Q 33.27 86.69 33.13 86.66
  A 0.12 0.08 -5.4 0 1 33.07 86.63
  Q 19.16 73.46 10.29 58.25
  C 2.19 44.37 -1.63 26.16 10.24 12.93
  Q 18.80 3.41 31.82 2.57
  Q 33.46 2.46 33.53 2.46
  Z
  M 31.61 50.38
  C 33.43 53.39 35.49 52.50 37.25 50.27
  C 38.73 48.40 41.43 47.78 43.06 46.01
  C 50.21 38.25 45.62 24.53 39.19 18.25
  C 36.21 15.33 31.45 14.91 28.12 17.82
  C 21.52 23.58 17.34 36.23 22.11 44.04
  C 23.64 46.55 26.65 48.14 28.22 50.78
  Q 28.88 51.87 30.26 50.27
  A 0.84 0.84 0.0 0 1 31.61 50.38
  Z"
/>
<path fill="#ffffff" d="
  M 31.61 50.38
  A 0.84 0.84 0.0 0 0 30.26 50.27
  Q 28.88 51.87 28.22 50.78
  C 26.65 48.14 23.64 46.55 22.11 44.04
  C 17.34 36.23 21.52 23.58 28.12 17.82
  C 31.45 14.91 36.21 15.33 39.19 18.25
  C 45.62 24.53 50.21 38.25 43.06 46.01
  C 41.43 47.78 38.73 48.40 37.25 50.27
  C 35.49 52.50 33.43 53.39 31.61 50.38
  Z
  M 33.43 46.69
  C 39.62 46.68 43.52 43.15 43.84 36.98
  Q 44.22 29.70 39.37 22.40
  C 38.22 20.68 35.57 18.55 33.36 18.55
  C 31.16 18.56 28.52 20.70 27.38 22.43
  Q 22.56 29.75 22.97 37.03
  C 23.32 43.19 27.24 46.71 33.43 46.69
  Z"
/>
<path fill="#a77387" d="
  M 33.36 18.55
  C 35.57 18.55 38.22 20.68 39.37 22.40
  Q 44.22 29.70 43.84 36.98
  C 43.52 43.15 39.62 46.68 33.43 46.69
  C 27.24 46.71 23.32 43.19 22.97 37.03
  Q 22.56 29.75 27.38 22.43
  C 28.52 20.70 31.16 18.56 33.36 18.55
  Z
  M 29.15 25.71
  C 31.43 25.70 33.21 23.88 34.45 22.76
  A 0.96 0.96 0.0 0 0 33.43 21.16
  Q 30.54 22.40 28.85 25.18
  A 0.35 0.35 0.0 0 0 29.15 25.71
  Z
  M 32.61 29.41
  A 2.01 2.01 0.0 0 0 36.08 29.49
  L 38.20 26.04
  A 0.82 0.82 0.0 0 0 38.08 25.03
  L 36.68 23.63
  A 0.37 0.37 0.0 0 0 36.18 23.61
  L 33.08 26.25
  A 1.21 1.21 0.0 0 0 32.67 26.98
  Q 32.33 28.90 32.61 29.41
  Z
  M 26.11 36.58
  L 30.13 35.00
  A 1.00 0.97 -4.4 0 0 30.73 34.32
  Q 31.54 31.14 30.74 27.80
  A 0.67 0.66 77.5 0 0 29.96 27.30
  L 27.90 27.73
  A 1.07 1.04 3.8 0 0 27.12 28.39
  Q 25.75 31.98 25.63 36.24
  A 0.35 0.35 0.0 0 0 26.11 36.58
  Z
  M 36.47 31.76
  A 0.90 0.89 -31.5 0 0 36.18 32.93
  L 37.61 35.61
  A 0.86 0.81 0.9 0 0 37.96 35.95
  Q 39.71 36.85 40.69 36.66
  A 0.86 0.86 0.0 0 0 41.37 35.65
  L 39.92 28.66
  A 0.59 0.59 0.0 0 0 38.81 28.53
  Q 37.70 30.94 36.47 31.76
  Z
  M 28.43 38.49
  L 30.00 39.39
  A 0.78 0.75 -81.5 0 1 30.36 39.90
  L 31.07 43.32
  A 1.01 1.01 0.0 0 0 32.27 44.11
  L 34.44 43.67
  A 0.74 0.73 -1.8 0 0 35.01 43.07
  L 35.90 37.17
  A 1.58 1.56 35.9 0 0 35.74 36.20
  L 33.88 32.51
  A 0.54 0.54 0.0 0 0 32.87 32.67
  L 32.43 35.54
  A 0.93 0.90 84.0 0 1 31.86 36.26
  L 28.50 37.58
  A 0.51 0.51 0.0 0 0 28.43 38.49
  Z
  M 38.18 38.24
  A 0.41 0.41 0.0 0 0 37.57 38.53
  L 36.92 42.84
  A 0.38 0.38 0.0 0 0 37.49 43.23
  Q 40.17 41.73 40.82 38.99
  A 0.34 0.34 0.0 0 0 40.43 38.58
  Q 39.21 38.83 38.18 38.24
  Z
  M 28.94 42.33
  Q 29.16 40.38 26.47 39.41
  A 0.27 0.27 0.0 0 0 26.14 39.80
  Q 27.36 42.04 28.26 42.64
  A 0.44 0.44 0.0 0 0 28.94 42.33
  Z"
/>
<path fill="#ffffff" d="
  M 28.85 25.18
  Q 30.54 22.40 33.43 21.16
  A 0.96 0.96 0.0 0 1 34.45 22.76
  C 33.21 23.88 31.43 25.70 29.15 25.71
  A 0.35 0.35 0.0 0 1 28.85 25.18
  Z"
/>
<path fill="#ffffff" d="
  M 32.61 29.41
  Q 32.33 28.90 32.67 26.98
  A 1.21 1.21 0.0 0 1 33.08 26.25
  L 36.18 23.61
  A 0.37 0.37 0.0 0 1 36.68 23.63
  L 38.08 25.03
  A 0.82 0.82 0.0 0 1 38.20 26.04
  L 36.08 29.49
  A 2.01 2.01 0.0 0 1 32.61 29.41
  Z"
/>
<path fill="#ffffff" d="
  M 26.11 36.58
  A 0.35 0.35 0.0 0 1 25.63 36.24
  Q 25.75 31.98 27.12 28.39
  A 1.07 1.04 3.8 0 1 27.90 27.73
  L 29.96 27.30
  A 0.67 0.66 77.5 0 1 30.74 27.80
  Q 31.54 31.14 30.73 34.32
  A 1.00 0.97 -4.4 0 1 30.13 35.00
  L 26.11 36.58
  Z"
/>
<path fill="#ffffff" d="
  M 39.92 28.66
  L 41.37 35.65
  A 0.86 0.86 0.0 0 1 40.69 36.66
  Q 39.71 36.85 37.96 35.95
  A 0.86 0.81 0.9 0 1 37.61 35.61
  L 36.18 32.93
  A 0.90 0.89 -31.5 0 1 36.47 31.76
  Q 37.70 30.94 38.81 28.53
  A 0.59 0.59 0.0 0 1 39.92 28.66
  Z"
/>
<path fill="#ffffff" d="
  M 28.43 38.49
  A 0.51 0.51 0.0 0 1 28.50 37.58
  L 31.86 36.26
  A 0.93 0.90 84.0 0 0 32.43 35.54
  L 32.87 32.67
  A 0.54 0.54 0.0 0 1 33.88 32.51
  L 35.74 36.20
  A 1.58 1.56 35.9 0 1 35.90 37.17
  L 35.01 43.07
  A 0.74 0.73 -1.8 0 1 34.44 43.67
  L 32.27 44.11
  A 1.01 1.01 0.0 0 1 31.07 43.32
  L 30.36 39.90
  A 0.78 0.75 -81.5 0 0 30.00 39.39
  L 28.43 38.49
  Z"
/>
<path fill="#ffffff" d="
  M 40.82 38.99
  Q 40.17 41.73 37.49 43.23
  A 0.38 0.38 0.0 0 1 36.92 42.84
  L 37.57 38.53
  A 0.41 0.41 0.0 0 1 38.18 38.24
  Q 39.21 38.83 40.43 38.58
  A 0.34 0.34 0.0 0 1 40.82 38.99
  Z"
/>
<path fill="#ffffff" d="
  M 28.26 42.64
  Q 27.36 42.04 26.14 39.80
  A 0.27 0.27 0.0 0 1 26.47 39.41
  Q 29.16 40.38 28.94 42.33
  A 0.44 0.44 0.0 0 1 28.26 42.64
  Z"
/>
</svg>
