<?xml version="1.0" encoding="UTF-8" standalone="no"?>
<!DOCTYPE svg PUBLIC "-//W3C//DTD SVG 1.1//EN" "http://www.w3.org/Graphics/SVG/1.1/DTD/svg11.dtd">
<svg xmlns="http://www.w3.org/2000/svg" version="1.1" viewBox="0.00 0.00 66.00 88.00">
<g stroke-width="2.00" fill="none" stroke-linecap="butt">
<path stroke="#802436" vector-effect="non-scaling-stroke" d="
  M 33.42 86.69
  Q 33.54 86.69 33.62 86.67
  Q 33.69 86.66 33.78 86.57
  C 47.71 73.39 64.02 53.50 64.26 33.18
  C 64.46 15.88 50.53 2.94 33.75 2.46
  Q 33.62 2.46 33.50 2.46
  Q 33.38 2.46 33.25 2.46
  C 16.47 2.91 2.52 15.82 2.68 33.12
  C 2.89 53.44 19.16 73.36 33.07 86.57
  Q 33.16 86.66 33.22 86.67
  Q 33.31 86.69 33.42 86.69"
/>
<path stroke="#d498a4" vector-effect="non-scaling-stroke" d="
  M 29.55 50.23
  C 38.49 46.58 46.31 41.66 48.14 31.59
  A 3.59 3.49 -21.2 0 1 48.86 30.02
  L 49.58 29.10
  A 0.53 0.53 0.0 0 0 49.25 28.25
  Q 48.90 28.19 48.00 28.32
  A 0.80 0.80 0.0 0 1 47.13 27.75
  L 46.56 25.78
  A 0.72 0.71 -34.1 0 1 46.69 25.14
  Q 49.40 21.84 51.14 18.09
  A 0.36 0.36 0.0 0 0 50.69 17.60
  L 42.72 20.55
  A 0.35 0.35 0.0 0 1 42.25 20.15
  Q 42.38 19.51 43.00 18.84
  A 0.35 0.34 12.4 0 0 42.64 18.28
  C 28.90 22.57 18.24 33.48 14.94 47.58
  A 0.28 0.28 0.0 0 0 15.41 47.85
  L 20.91 42.35
  A 0.36 0.36 0.0 0 1 21.50 42.75
  L 19.20 48.04
  A 0.39 0.39 0.0 0 0 19.76 48.53
  L 22.36 47.02
  A 0.24 0.23 87.0 0 1 22.69 47.32
  L 21.94 49.05
  A 0.29 0.28 -86.4 0 0 22.28 49.44
  L 32.73 46.41
  A 0.09 0.08 13.2 0 1 32.82 46.55
  L 29.39 49.98
  A 0.15 0.15 0.0 0 0 29.55 50.23"
/>
<path stroke="#d498a4" vector-effect="non-scaling-stroke" d="
  M 43.79 22.35
  L 34.95 27.00
  A 0.43 0.43 0.0 0 1 34.45 26.92
  L 34.23 26.70
  A 0.32 0.31 -38.3 0 1 34.29 26.21
  L 36.48 24.83
  A 0.20 0.19 -33.3 0 0 36.54 24.55
  L 36.54 24.54
  A 0.23 0.22 -29.6 0 0 36.24 24.46
  Q 32.30 26.48 29.84 28.05
  C 25.11 31.05 24.41 35.86 28.03 40.23
  A 0.98 0.98 0.0 0 1 27.97 41.55
  L 23.98 45.54
  A 0.19 0.19 0.0 0 0 24.21 45.83
  L 30.34 42.29
  A 0.87 0.84 -51.8 0 1 31.01 42.20
  Q 35.93 43.53 39.01 40.11
  Q 43.35 35.30 39.51 29.81
  A 0.82 0.81 46.4 0 1 39.53 28.85
  L 41.12 26.79
  A 0.06 0.05 49.7 0 0 41.12 26.72
  A 0.19 0.19 0.0 0 0 40.84 26.70
  L 38.82 28.47
  A 0.58 0.57 -43.5 0 1 38.04 28.45
  L 37.24 27.64
  A 0.58 0.58 0.0 0 1 37.36 26.73
  L 44.07 22.86
  A 0.29 0.29 0.0 0 0 43.79 22.35"
/>
<path stroke="#d498a4" vector-effect="non-scaling-stroke" d="
  M 38.52 34.78
  A 5.02 5.02 0.0 0 0 33.50 29.76
  A 5.02 5.02 0.0 0 0 28.48 34.78
  A 5.02 5.02 0.0 0 0 33.50 39.80
  A 5.02 5.02 0.0 0 0 38.52 34.78"
/>
<path stroke="#d498a4" vector-effect="non-scaling-stroke" d="
  M 35.69 34.76
  A 2.19 2.19 0.0 0 0 33.50 32.57
  A 2.19 2.19 0.0 0 0 31.31 34.76
  A 2.19 2.19 0.0 0 0 33.50 36.95
  A 2.19 2.19 0.0 0 0 35.69 34.76"
/>
</g>
<path fill="#581723" d="
  M 33.81 88.00
  L 33.04 88.00
  C 21.78 77.77 12.07 65.63 5.64 51.56
  Q 2.20 44.04 1.59 34.89
  C 0.54 18.97 11.20 5.67 26.50 2.10
  C 40.95 -1.27 55.90 5.94 62.58 19.69
  C 66.92 28.64 65.94 39.77 62.41 48.85
  C 56.62 63.75 45.56 77.30 33.81 88.00
  Z
  M 33.42 86.69
  Q 33.54 86.69 33.62 86.67
  Q 33.69 86.66 33.78 86.57
  C 47.71 73.39 64.02 53.50 64.26 33.18
  C 64.46 15.88 50.53 2.94 33.75 2.46
  Q 33.62 2.46 33.50 2.46
  Q 33.38 2.46 33.25 2.46
  C 16.47 2.91 2.52 15.82 2.68 33.12
  C 2.89 53.44 19.16 73.36 33.07 86.57
  Q 33.16 86.66 33.22 86.67
  Q 33.31 86.69 33.42 86.69
  Z"
/>
<path fill="#a83148" d="
  M 33.50 2.46
  Q 33.62 2.46 33.75 2.46
  C 50.53 2.94 64.46 15.88 64.26 33.18
  C 64.02 53.50 47.71 73.39 33.78 86.57
  Q 33.69 86.66 33.62 86.67
  Q 33.54 86.69 33.42 86.69
  Q 33.31 86.69 33.22 86.67
  Q 33.16 86.66 33.07 86.57
  C 19.16 73.36 2.89 53.44 2.68 33.12
  C 2.52 15.82 16.47 2.91 33.25 2.46
  Q 33.38 2.46 33.50 2.46
  Z
  M 29.55 50.23
  C 38.49 46.58 46.31 41.66 48.14 31.59
  A 3.59 3.49 -21.2 0 1 48.86 30.02
  L 49.58 29.10
  A 0.53 0.53 0.0 0 0 49.25 28.25
  Q 48.90 28.19 48.00 28.32
  A 0.80 0.80 0.0 0 1 47.13 27.75
  L 46.56 25.78
  A 0.72 0.71 -34.1 0 1 46.69 25.14
  Q 49.40 21.84 51.14 18.09
  A 0.36 0.36 0.0 0 0 50.69 17.60
  L 42.72 20.55
  A 0.35 0.35 0.0 0 1 42.25 20.15
  Q 42.38 19.51 43.00 18.84
  A 0.35 0.34 12.4 0 0 42.64 18.28
  C 28.90 22.57 18.24 33.48 14.94 47.58
  A 0.28 0.28 0.0 0 0 15.41 47.85
  L 20.91 42.35
  A 0.36 0.36 0.0 0 1 21.50 42.75
  L 19.20 48.04
  A 0.39 0.39 0.0 0 0 19.76 48.53
  L 22.36 47.02
  A 0.24 0.23 87.0 0 1 22.69 47.32
  L 21.94 49.05
  A 0.29 0.28 -86.4 0 0 22.28 49.44
  L 32.73 46.41
  A 0.09 0.08 13.2 0 1 32.82 46.55
  L 29.39 49.98
  A 0.15 0.15 0.0 0 0 29.55 50.23
  Z"
/>
<path fill="#ffffff" d="
  M 29.39 49.98
  L 32.82 46.55
  A 0.09 0.08 13.2 0 0 32.73 46.41
  L 22.28 49.44
  A 0.29 0.28 -86.4 0 1 21.94 49.05
  L 22.69 47.32
  A 0.24 0.23 87.0 0 0 22.36 47.02
  L 19.76 48.53
  A 0.39 0.39 0.0 0 1 19.20 48.04
  L 21.50 42.75
  A 0.36 0.36 0.0 0 0 20.91 42.35
  L 15.41 47.85
  A 0.28 0.28 0.0 0 1 14.94 47.58
  C 18.24 33.48 28.90 22.57 42.64 18.28
  A 0.35 0.34 12.4 0 1 43.00 18.84
  Q 42.38 19.51 42.25 20.15
  A 0.35 0.35 0.0 0 0 42.72 20.55
  L 50.69 17.60
  A 0.36 0.36 0.0 0 1 51.14 18.09
  Q 49.40 21.84 46.69 25.14
  A 0.72 0.71 -34.1 0 0 46.56 25.78
  L 47.13 27.75
  A 0.80 0.80 0.0 0 0 48.00 28.32
  Q 48.90 28.19 49.25 28.25
  A 0.53 0.53 0.0 0 1 49.58 29.10
  L 48.86 30.02
  A 3.59 3.49 -21.2 0 0 48.14 31.59
  C 46.31 41.66 38.49 46.58 29.55 50.23
  A 0.15 0.15 0.0 0 1 29.39 49.98
  Z
  M 43.79 22.35
  L 34.95 27.00
  A 0.43 0.43 0.0 0 1 34.45 26.92
  L 34.23 26.70
  A 0.32 0.31 -38.3 0 1 34.29 26.21
  L 36.48 24.83
  A 0.20 0.19 -33.3 0 0 36.54 24.55
  L 36.54 24.54
  A 0.23 0.22 -29.6 0 0 36.24 24.46
  Q 32.30 26.48 29.84 28.05
  C 25.11 31.05 24.41 35.86 28.03 40.23
  A 0.98 0.98 0.0 0 1 27.97 41.55
  L 23.98 45.54
  A 0.19 0.19 0.0 0 0 24.21 45.83
  L 30.34 42.29
  A 0.87 0.84 -51.8 0 1 31.01 42.20
  Q 35.93 43.53 39.01 40.11
  Q 43.35 35.30 39.51 29.81
  A 0.82 0.81 46.4 0 1 39.53 28.85
  L 41.12 26.79
  A 0.06 0.05 49.7 0 0 41.12 26.72
  A 0.19 0.19 0.0 0 0 40.84 26.70
  L 38.82 28.47
  A 0.58 0.57 -43.5 0 1 38.04 28.45
  L 37.24 27.64
  A 0.58 0.58 0.0 0 1 37.36 26.73
  L 44.07 22.86
  A 0.29 0.29 0.0 0 0 43.79 22.35
  Z"
/>
<path fill="#a83148" d="
  M 44.07 22.86
  L 37.36 26.73
  A 0.58 0.58 0.0 0 0 37.24 27.64
  L 38.04 28.45
  A 0.58 0.57 -43.5 0 0 38.82 28.47
  L 40.84 26.70
  A 0.19 0.19 0.0 0 1 41.12 26.72
  A 0.06 0.05 49.7 0 1 41.12 26.79
  L 39.53 28.85
  A 0.82 0.81 46.4 0 0 39.51 29.81
  Q 43.35 35.30 39.01 40.11
  Q 35.93 43.53 31.01 42.20
  A 0.87 0.84 -51.8 0 0 30.34 42.29
  L 24.21 45.83
  A 0.19 0.19 0.0 0 1 23.98 45.54
  L 27.97 41.55
  A 0.98 0.98 0.0 0 0 28.03 40.23
  C 24.41 35.86 25.11 31.05 29.84 28.05
  Q 32.30 26.48 36.24 24.46
  A 0.23 0.22 -29.6 0 1 36.54 24.54
  L 36.54 24.55
  A 0.20 0.19 -33.3 0 1 36.48 24.83
  L 34.29 26.21
  A 0.32 0.31 -38.3 0 0 34.23 26.70
  L 34.45 26.92
  A 0.43 0.43 0.0 0 0 34.95 27.00
  L 43.79 22.35
  A 0.29 0.29 0.0 0 1 44.07 22.86
  Z
  M 38.52 34.78
  A 5.02 5.02 0.0 0 0 33.50 29.76
  A 5.02 5.02 0.0 0 0 28.48 34.78
  A 5.02 5.02 0.0 0 0 33.50 39.80
  A 5.02 5.02 0.0 0 0 38.52 34.78
  Z"
/>
<path fill="#ffffff" d="
  M 38.52 34.78
  A 5.02 5.02 0.0 0 1 33.50 39.80
  A 5.02 5.02 0.0 0 1 28.48 34.78
  A 5.02 5.02 0.0 0 1 33.50 29.76
  A 5.02 5.02 0.0 0 1 38.52 34.78
  Z
  M 35.69 34.76
  A 2.19 2.19 0.0 0 0 33.50 32.57
  A 2.19 2.19 0.0 0 0 31.31 34.76
  A 2.19 2.19 0.0 0 0 33.50 36.95
  A 2.19 2.19 0.0 0 0 35.69 34.76
  Z"
/>
<circle fill="#a83148" cx="33.50" cy="34.76" r="2.19"/>
</svg>
