<?xml version="1.0" encoding="UTF-8" standalone="no"?>
<!DOCTYPE svg PUBLIC "-//W3C//DTD SVG 1.1//EN" "http://www.w3.org/Graphics/SVG/1.1/DTD/svg11.dtd">
<svg xmlns="http://www.w3.org/2000/svg" version="1.1" viewBox="0.00 0.00 66.00 88.00">
<g stroke-width="2.00" fill="none" stroke-linecap="butt">
<path stroke="#7f5666" vector-effect="non-scaling-stroke" d="
  M 33.40 86.69
  Q 33.54 86.69 33.68 86.66
  A 0.22 0.12 -54.6 0 0 33.74 86.63
  C 43.92 76.90 53.07 65.95 59.22 53.24
  C 64.99 41.32 66.89 27.13 59.14 16.07
  Q 50.02 3.07 33.75 2.46
  Q 33.62 2.46 33.53 2.46
  Q 33.44 2.46 33.30 2.46
  Q 17.03 3.02 7.87 16.00
  C 0.09 27.03 1.95 41.23 7.69 53.16
  C 13.80 65.89 22.92 76.87 33.07 86.63
  A 0.22 0.12 54.7 0 0 33.13 86.66
  Q 33.26 86.69 33.40 86.69"
/>
<path stroke="#d3b9c3" vector-effect="non-scaling-stroke" d="
  M 33.55 17.60
  Q 31.96 18.65 31.85 18.77
  A 1.06 1.04 58.6 0 0 31.61 19.80
  L 33.25 25.20
  A 0.92 0.92 0.0 0 0 34.04 25.85
  Q 36.31 26.06 38.48 25.38
  Q 38.63 25.33 38.64 25.33
  Q 38.64 25.32 38.74 25.21
  Q 40.23 23.48 40.93 21.31
  A 0.92 0.92 0.0 0 0 40.65 20.33
  L 36.34 16.69
  A 1.06 1.04 54.7 0 0 35.30 16.50
  Q 35.14 16.56 33.55 17.60"
/>
<path stroke="#d3b9c3" vector-effect="non-scaling-stroke" d="
  M 17.24 26.39
  A 1.71 1.71 0.0 0 0 18.09 27.87
  L 22.51 30.43
  A 1.71 1.71 0.0 0 0 24.23 30.44
  L 29.69 27.28
  A 1.71 1.71 0.0 0 0 30.46 25.25
  L 28.72 20.07
  A 1.71 1.71 0.0 0 0 27.52 18.96
  L 24.36 18.15
  A 1.71 1.71 0.0 0 0 22.90 18.44
  L 17.92 22.22
  A 1.71 1.71 0.0 0 0 17.24 23.58
  L 17.24 26.39"
/>
<path stroke="#d3b9c3" vector-effect="non-scaling-stroke" d="
  M 43.47 22.85
  Q 42.22 24.58 41.33 26.78
  A 1.50 1.49 41.3 0 0 41.42 28.10
  L 44.07 32.69
  A 1.31 1.31 0.0 0 0 45.20 33.34
  L 48.41 33.34
  A 0.77 0.75 -68.7 0 0 48.98 33.08
  Q 50.36 31.56 51.20 29.43
  A 1.25 1.25 0.0 0 0 51.04 28.22
  Q 50.77 27.85 48.64 23.95
  C 47.69 22.21 44.77 21.07 43.47 22.85"
/>
<path stroke="#d3b9c3" vector-effect="non-scaling-stroke" d="
  M 37.64 28.60
  L 35.43 28.76
  A 1.30 1.30 0.0 0 0 34.22 30.16
  L 34.78 37.98
  A 1.23 1.23 0.0 0 0 36.63 38.95
  L 40.26 36.86
  A 2.54 2.53 -30.1 0 0 41.19 33.40
  L 38.77 29.20
  A 1.20 1.19 72.6 0 0 37.64 28.60"
/>
<path stroke="#d3b9c3" vector-effect="non-scaling-stroke" d="
  M 23.83 39.99
  L 21.81 33.99
  A 1.34 1.31 -82.2 0 0 21.31 33.32
  L 17.39 30.54
  A 1.66 1.66 0.0 0 0 14.77 31.90
  L 14.77 37.31
  A 1.17 1.13 -64.0 0 0 14.99 37.99
  L 18.64 42.82
  A 1.81 1.80 59.8 0 0 20.77 43.39
  Q 23.11 42.40 23.77 40.99
  A 1.37 1.32 49.6 0 0 23.83 39.99"
/>
<path stroke="#d3b9c3" vector-effect="non-scaling-stroke" d="
  M 30.14 42.20
  A 1.34 1.34 0.0 0 0 32.15 40.94
  L 31.52 32.24
  A 1.71 1.70 -17.1 0 0 28.97 30.89
  L 26.04 32.58
  A 2.05 2.05 0.0 0 0 25.13 35.00
  L 26.77 39.86
  A 1.34 1.31 -84.7 0 0 27.36 40.59
  L 30.14 42.20"
/>
<path stroke="#d3b9c3" vector-effect="non-scaling-stroke" d="
  M 44.81 43.96
  A 1.53 1.53 0.0 0 0 47.62 44.87
  Q 47.89 44.45 49.64 40.57
  C 50.41 38.87 50.10 37.41 48.68 36.46
  A 1.45 1.40 -25.9 0 0 47.97 36.23
  L 44.98 36.09
  A 1.44 1.44 0.0 0 0 43.71 38.31
  Q 45.01 40.34 44.81 43.96"
/>
<path stroke="#d3b9c3" vector-effect="non-scaling-stroke" d="
  M 40.35 40.26
  L 34.26 43.77
  A 1.41 1.40 -30.7 0 0 33.76 45.71
  Q 35.23 48.15 37.19 49.56
  A 2.49 2.48 -57.0 0 0 40.80 48.79
  L 42.03 46.66
  A 0.89 0.83 60.3 0 0 42.15 46.15
  L 41.77 41.01
  A 0.95 0.95 0.0 0 0 40.35 40.26"
/>
<path stroke="#d3b9c3" vector-effect="non-scaling-stroke" d="
  M 25.25 43.76
  L 22.90 45.64
  A 1.85 1.62 -8.7 0 0 22.47 46.15
  C 21.00 48.72 24.17 50.45 26.05 51.84
  A 1.82 1.82 0.0 0 0 26.99 52.19
  C 28.50 52.29 31.67 52.72 32.86 51.28
  Q 33.59 50.39 32.57 48.78
  Q 29.61 44.13 26.11 43.54
  A 1.10 1.09 30.5 0 0 25.25 43.76"
/>
</g>
<path fill="#563944" d="
  M 33.78 88.00
  L 33.11 88.00
  Q 16.14 72.88 6.60 53.84
  Q 3.32 47.30 1.97 38.76
  Q 0.37 28.54 4.22 20.08
  C 14.20 -1.89 45.15 -5.58 59.53 14.52
  C 77.27 39.29 51.49 72.00 33.78 88.00
  Z
  M 33.40 86.69
  Q 33.54 86.69 33.68 86.66
  A 0.22 0.12 -54.6 0 0 33.74 86.63
  C 43.92 76.90 53.07 65.95 59.22 53.24
  C 64.99 41.32 66.89 27.13 59.14 16.07
  Q 50.02 3.07 33.75 2.46
  Q 33.62 2.46 33.53 2.46
  Q 33.44 2.46 33.30 2.46
  Q 17.03 3.02 7.87 16.00
  C 0.09 27.03 1.95 41.23 7.69 53.16
  C 13.80 65.89 22.92 76.87 33.07 86.63
  A 0.22 0.12 54.7 0 0 33.13 86.66
  Q 33.26 86.69 33.40 86.69
  Z"
/>
<path fill="#a77387" d="
  M 33.53 2.46
  Q 33.62 2.46 33.75 2.46
  Q 50.02 3.07 59.14 16.07
  C 66.89 27.13 64.99 41.32 59.22 53.24
  C 53.07 65.95 43.92 76.90 33.74 86.63
  A 0.22 0.12 -54.6 0 1 33.68 86.66
  Q 33.54 86.69 33.40 86.69
  Q 33.26 86.69 33.13 86.66
  A 0.22 0.12 54.7 0 1 33.07 86.63
  C 22.92 76.87 13.80 65.89 7.69 53.16
  C 1.95 41.23 0.09 27.03 7.87 16.00
  Q 17.03 3.02 33.30 2.46
  Q 33.44 2.46 33.53 2.46
  Z
  M 33.55 17.60
  Q 31.96 18.65 31.85 18.77
  A 1.06 1.04 58.6 0 0 31.61 19.80
  L 33.25 25.20
  A 0.92 0.92 0.0 0 0 34.04 25.85
  Q 36.31 26.06 38.48 25.38
  Q 38.63 25.33 38.64 25.33
  Q 38.64 25.32 38.74 25.21
  Q 40.23 23.48 40.93 21.31
  A 0.92 0.92 0.0 0 0 40.65 20.33
  L 36.34 16.69
  A 1.06 1.04 54.7 0 0 35.30 16.50
  Q 35.14 16.56 33.55 17.60
  Z
  M 17.24 26.39
  A 1.71 1.71 0.0 0 0 18.09 27.87
  L 22.51 30.43
  A 1.71 1.71 0.0 0 0 24.23 30.44
  L 29.69 27.28
  A 1.71 1.71 0.0 0 0 30.46 25.25
  L 28.72 20.07
  A 1.71 1.71 0.0 0 0 27.52 18.96
  L 24.36 18.15
  A 1.71 1.71 0.0 0 0 22.90 18.44
  L 17.92 22.22
  A 1.71 1.71 0.0 0 0 17.24 23.58
  L 17.24 26.39
  Z
  M 43.47 22.85
  Q 42.22 24.58 41.33 26.78
  A 1.50 1.49 41.3 0 0 41.42 28.10
  L 44.07 32.69
  A 1.31 1.31 0.0 0 0 45.20 33.34
  L 48.41 33.34
  A 0.77 0.75 -68.7 0 0 48.98 33.08
  Q 50.36 31.56 51.20 29.43
  A 1.25 1.25 0.0 0 0 51.04 28.22
  Q 50.77 27.85 48.64 23.95
  C 47.69 22.21 44.77 21.07 43.47 22.85
  Z
  M 37.64 28.60
  L 35.43 28.76
  A 1.30 1.30 0.0 0 0 34.22 30.16
  L 34.78 37.98
  A 1.23 1.23 0.0 0 0 36.63 38.95
  L 40.26 36.86
  A 2.54 2.53 -30.1 0 0 41.19 33.40
  L 38.77 29.20
  A 1.20 1.19 72.6 0 0 37.64 28.60
  Z
  M 23.83 39.99
  L 21.81 33.99
  A 1.34 1.31 -82.2 0 0 21.31 33.32
  L 17.39 30.54
  A 1.66 1.66 0.0 0 0 14.77 31.90
  L 14.77 37.31
  A 1.17 1.13 -64.0 0 0 14.99 37.99
  L 18.64 42.82
  A 1.81 1.80 59.8 0 0 20.77 43.39
  Q 23.11 42.40 23.77 40.99
  A 1.37 1.32 49.6 0 0 23.83 39.99
  Z
  M 30.14 42.20
  A 1.34 1.34 0.0 0 0 32.15 40.94
  L 31.52 32.24
  A 1.71 1.70 -17.1 0 0 28.97 30.89
  L 26.04 32.58
  A 2.05 2.05 0.0 0 0 25.13 35.00
  L 26.77 39.86
  A 1.34 1.31 -84.7 0 0 27.36 40.59
  L 30.14 42.20
  Z
  M 44.81 43.96
  A 1.53 1.53 0.0 0 0 47.62 44.87
  Q 47.89 44.45 49.64 40.57
  C 50.41 38.87 50.10 37.41 48.68 36.46
  A 1.45 1.40 -25.9 0 0 47.97 36.23
  L 44.98 36.09
  A 1.44 1.44 0.0 0 0 43.71 38.31
  Q 45.01 40.34 44.81 43.96
  Z
  M 40.35 40.26
  L 34.26 43.77
  A 1.41 1.40 -30.7 0 0 33.76 45.71
  Q 35.23 48.15 37.19 49.56
  A 2.49 2.48 -57.0 0 0 40.80 48.79
  L 42.03 46.66
  A 0.89 0.83 60.3 0 0 42.15 46.15
  L 41.77 41.01
  A 0.95 0.95 0.0 0 0 40.35 40.26
  Z
  M 25.25 43.76
  L 22.90 45.64
  A 1.85 1.62 -8.7 0 0 22.47 46.15
  C 21.00 48.72 24.17 50.45 26.05 51.84
  A 1.82 1.82 0.0 0 0 26.99 52.19
  C 28.50 52.29 31.67 52.72 32.86 51.28
  Q 33.59 50.39 32.57 48.78
  Q 29.61 44.13 26.11 43.54
  A 1.10 1.09 30.5 0 0 25.25 43.76
  Z"
/>
<path fill="#ffffff" d="
  M 38.64 25.33
  Q 38.63 25.33 38.48 25.38
  Q 36.31 26.06 34.04 25.85
  A 0.92 0.92 0.0 0 1 33.25 25.20
  L 31.61 19.80
  A 1.06 1.04 58.6 0 1 31.85 18.77
  Q 31.96 18.65 33.55 17.60
  Q 35.14 16.56 35.30 16.50
  A 1.06 1.04 54.7 0 1 36.34 16.69
  L 40.65 20.33
  A 0.92 0.92 0.0 0 1 40.93 21.31
  Q 40.23 23.48 38.74 25.21
  Q 38.64 25.32 38.64 25.33
  Z"
/>
<path fill="#ffffff" d="
  M 17.24 26.39
  L 17.24 23.58
  A 1.71 1.71 0.0 0 1 17.92 22.22
  L 22.90 18.44
  A 1.71 1.71 0.0 0 1 24.36 18.15
  L 27.52 18.96
  A 1.71 1.71 0.0 0 1 28.72 20.07
  L 30.46 25.25
  A 1.71 1.71 0.0 0 1 29.69 27.28
  L 24.23 30.44
  A 1.71 1.71 0.0 0 1 22.51 30.43
  L 18.09 27.87
  A 1.71 1.71 0.0 0 1 17.24 26.39
  Z"
/>
<path fill="#ffffff" d="
  M 43.47 22.85
  C 44.77 21.07 47.69 22.21 48.64 23.95
  Q 50.77 27.85 51.04 28.22
  A 1.25 1.25 0.0 0 1 51.20 29.43
  Q 50.36 31.56 48.98 33.08
  A 0.77 0.75 -68.7 0 1 48.41 33.34
  L 45.20 33.34
  A 1.31 1.31 0.0 0 1 44.07 32.69
  L 41.42 28.10
  A 1.50 1.49 41.3 0 1 41.33 26.78
  Q 42.22 24.58 43.47 22.85
  Z"
/>
<path fill="#ffffff" d="
  M 37.64 28.60
  A 1.20 1.19 72.6 0 1 38.77 29.20
  L 41.19 33.40
  A 2.54 2.53 -30.1 0 1 40.26 36.86
  L 36.63 38.95
  A 1.23 1.23 0.0 0 1 34.78 37.98
  L 34.22 30.16
  A 1.30 1.30 0.0 0 1 35.43 28.76
  L 37.64 28.60
  Z"
/>
<path fill="#ffffff" d="
  M 23.77 40.99
  Q 23.11 42.40 20.77 43.39
  A 1.81 1.80 59.8 0 1 18.64 42.82
  L 14.99 37.99
  A 1.17 1.13 -64.0 0 1 14.77 37.31
  L 14.77 31.90
  A 1.66 1.66 0.0 0 1 17.39 30.54
  L 21.31 33.32
  A 1.34 1.31 -82.2 0 1 21.81 33.99
  L 23.83 39.99
  A 1.37 1.32 49.6 0 1 23.77 40.99
  Z"
/>
<path fill="#ffffff" d="
  M 30.14 42.20
  L 27.36 40.59
  A 1.34 1.31 -84.7 0 1 26.77 39.86
  L 25.13 35.00
  A 2.05 2.05 0.0 0 1 26.04 32.58
  L 28.97 30.89
  A 1.71 1.70 -17.1 0 1 31.52 32.24
  L 32.15 40.94
  A 1.34 1.34 0.0 0 1 30.14 42.20
  Z"
/>
<path fill="#ffffff" d="
  M 44.81 43.96
  Q 45.01 40.34 43.71 38.31
  A 1.44 1.44 0.0 0 1 44.98 36.09
  L 47.97 36.23
  A 1.45 1.40 -25.9 0 1 48.68 36.46
  C 50.10 37.41 50.41 38.87 49.64 40.57
  Q 47.89 44.45 47.62 44.87
  A 1.53 1.53 0.0 0 1 44.81 43.96
  Z"
/>
<path fill="#ffffff" d="
  M 40.35 40.26
  A 0.95 0.95 0.0 0 1 41.77 41.01
  L 42.15 46.15
  A 0.89 0.83 60.3 0 1 42.03 46.66
  L 40.80 48.79
  A 2.49 2.48 -57.0 0 1 37.19 49.56
  Q 35.23 48.15 33.76 45.71
  A 1.41 1.40 -30.7 0 1 34.26 43.77
  L 40.35 40.26
  Z"
/>
<path fill="#ffffff" d="
  M 26.11 43.54
  Q 29.61 44.13 32.57 48.78
  Q 33.59 50.39 32.86 51.28
  C 31.67 52.72 28.50 52.29 26.99 52.19
  A 1.82 1.82 0.0 0 1 26.05 51.84
  C 24.17 50.45 21.00 48.72 22.47 46.15
  A 1.85 1.62 -8.7 0 1 22.90 45.64
  L 25.25 43.76
  A 1.10 1.09 30.5 0 1 26.11 43.54
  Z"
/>
</svg>
