<?xml version="1.0" encoding="UTF-8" standalone="no"?>
<!DOCTYPE svg PUBLIC "-//W3C//DTD SVG 1.1//EN" "http://www.w3.org/Graphics/SVG/1.1/DTD/svg11.dtd">
<svg xmlns="http://www.w3.org/2000/svg" version="1.1" viewBox="0.00 0.00 66.00 88.00">
<g stroke-width="2.00" fill="none" stroke-linecap="butt">
<path stroke="#9e3c35" vector-effect="non-scaling-stroke" d="
  M 33.42 86.72
  Q 33.53 86.72 33.63 86.69
  Q 33.70 86.67 33.80 86.58
  C 50.37 71.22 75.69 38.94 58.74 15.56
  C 52.88 7.47 43.84 2.47 33.52 2.46
  C 23.20 2.45 14.15 7.42 8.27 15.50
  C -8.74 38.84 16.51 71.18 33.04 86.58
  Q 33.14 86.67 33.21 86.69
  Q 33.31 86.72 33.42 86.72"
/>
<path stroke="#e8a8a4" vector-effect="non-scaling-stroke" d="
  M 33.23 52.17
  Q 33.57 52.17 33.73 52.13
  C 51.07 47.38 54.01 27.78 41.80 16.18
  A 0.41 0.41 0.0 0 0 41.13 16.36
  Q 38.95 23.18 33.74 27.75
  Q 33.60 27.87 33.36 27.87
  Q 33.11 27.86 32.98 27.74
  Q 27.81 23.12 25.71 16.28
  A 0.41 0.41 0.0 0 0 25.04 16.09
  C 12.70 27.56 15.43 47.19 32.72 52.12
  Q 32.88 52.17 33.23 52.17"
/>
<path stroke="#e8a8a4" vector-effect="non-scaling-stroke" d="
  M 22.78 41.46
  Q 24.91 45.16 29.64 46.44
  Q 29.91 46.51 30.08 46.42
  Q 30.25 46.32 30.33 46.04
  Q 31.61 41.31 29.47 37.61
  Q 27.34 33.90 22.61 32.62
  Q 22.34 32.55 22.17 32.64
  Q 22.00 32.74 21.92 33.02
  Q 20.65 37.75 22.78 41.46"
/>
<path stroke="#e8a8a4" vector-effect="non-scaling-stroke" d="
  M 43.97 41.46
  Q 46.10 37.75 44.82 33.02
  Q 44.75 32.75 44.58 32.65
  Q 44.41 32.55 44.13 32.63
  Q 39.41 33.90 37.28 37.61
  Q 35.15 41.32 36.42 46.04
  Q 36.50 46.32 36.67 46.42
  Q 36.84 46.52 37.11 46.44
  Q 41.84 45.16 43.97 41.46"
/>
</g>
<path fill="#6c2722" d="
  M 33.80 88.00
  L 33.03 88.00
  C 21.75 77.74 12.13 65.68 5.65 51.56
  Q 2.20 44.06 1.60 34.89
  C 0.55 19.00 11.24 5.61 26.48 2.12
  C 46.03 -2.35 66.27 12.66 65.46 33.76
  Q 65.19 40.70 63.05 47.02
  C 57.78 62.54 45.81 77.09 33.80 88.00
  Z
  M 33.42 86.72
  Q 33.53 86.72 33.63 86.69
  Q 33.70 86.67 33.80 86.58
  C 50.37 71.22 75.69 38.94 58.74 15.56
  C 52.88 7.47 43.84 2.47 33.52 2.46
  C 23.20 2.45 14.15 7.42 8.27 15.50
  C -8.74 38.84 16.51 71.18 33.04 86.58
  Q 33.14 86.67 33.21 86.69
  Q 33.31 86.72 33.42 86.72
  Z"
/>
<path fill="#d05148" d="
  M 33.52 2.46
  C 43.84 2.47 52.88 7.47 58.74 15.56
  C 75.69 38.94 50.37 71.22 33.80 86.58
  Q 33.70 86.67 33.63 86.69
  Q 33.53 86.72 33.42 86.72
  Q 33.31 86.72 33.21 86.69
  Q 33.14 86.67 33.04 86.58
  C 16.51 71.18 -8.74 38.84 8.27 15.50
  C 14.15 7.42 23.20 2.45 33.52 2.46
  Z
  M 33.23 52.17
  Q 33.57 52.17 33.73 52.13
  C 51.07 47.38 54.01 27.78 41.80 16.18
  A 0.41 0.41 0.0 0 0 41.13 16.36
  Q 38.95 23.18 33.74 27.75
  Q 33.60 27.87 33.36 27.87
  Q 33.11 27.86 32.98 27.74
  Q 27.81 23.12 25.71 16.28
  A 0.41 0.41 0.0 0 0 25.04 16.09
  C 12.70 27.56 15.43 47.19 32.72 52.12
  Q 32.88 52.17 33.23 52.17
  Z"
/>
<path fill="#ffffff" d="
  M 33.36 27.87
  Q 33.60 27.87 33.74 27.75
  Q 38.95 23.18 41.13 16.36
  A 0.41 0.41 0.0 0 1 41.80 16.18
  C 54.01 27.78 51.07 47.38 33.73 52.13
  Q 33.57 52.17 33.23 52.17
  Q 32.88 52.17 32.72 52.12
  C 15.43 47.19 12.70 27.56 25.04 16.09
  A 0.41 0.41 0.0 0 1 25.71 16.28
  Q 27.81 23.12 32.98 27.74
  Q 33.11 27.86 33.36 27.87
  Z
  M 22.78 41.46
  Q 24.91 45.16 29.64 46.44
  Q 29.91 46.51 30.08 46.42
  Q 30.25 46.32 30.33 46.04
  Q 31.61 41.31 29.47 37.61
  Q 27.34 33.90 22.61 32.62
  Q 22.34 32.55 22.17 32.64
  Q 22.00 32.74 21.92 33.02
  Q 20.65 37.75 22.78 41.46
  Z
  M 43.97 41.46
  Q 46.10 37.75 44.82 33.02
  Q 44.75 32.75 44.58 32.65
  Q 44.41 32.55 44.13 32.63
  Q 39.41 33.90 37.28 37.61
  Q 35.15 41.32 36.42 46.04
  Q 36.50 46.32 36.67 46.42
  Q 36.84 46.52 37.11 46.44
  Q 41.84 45.16 43.97 41.46
  Z"
/>
<path fill="#d05148" d="
  M 29.47 37.61
  Q 31.61 41.31 30.33 46.04
  Q 30.25 46.32 30.08 46.42
  Q 29.91 46.51 29.64 46.44
  Q 24.91 45.16 22.78 41.46
  Q 20.65 37.75 21.92 33.02
  Q 22.00 32.74 22.17 32.64
  Q 22.34 32.55 22.61 32.62
  Q 27.34 33.90 29.47 37.61
  Z"
/>
<path fill="#d05148" d="
  M 43.97 41.46
  Q 41.84 45.16 37.11 46.44
  Q 36.84 46.52 36.67 46.42
  Q 36.50 46.32 36.42 46.04
  Q 35.15 41.32 37.28 37.61
  Q 39.41 33.90 44.13 32.63
  Q 44.41 32.55 44.58 32.65
  Q 44.75 32.75 44.82 33.02
  Q 46.10 37.75 43.97 41.46
  Z"
/>
</svg>
