<?xml version="1.0" encoding="UTF-8" standalone="no"?>
<!DOCTYPE svg PUBLIC "-//W3C//DTD SVG 1.1//EN" "http://www.w3.org/Graphics/SVG/1.1/DTD/svg11.dtd">
<svg xmlns="http://www.w3.org/2000/svg" version="1.1" viewBox="0.00 0.00 66.00 88.00">
<g stroke-width="2.00" fill="none" stroke-linecap="butt">
<path stroke="#395b67" vector-effect="non-scaling-stroke" d="
  M 33.40 86.69
  Q 33.54 86.69 33.68 86.65
  A 0.09 0.07 -66.2 0 0 33.72 86.63
  C 44.27 76.54 53.50 65.40 59.69 52.23
  C 65.67 39.48 66.80 24.09 56.77 12.99
  Q 47.64 2.87 33.75 2.48
  Q 33.64 2.47 33.54 2.47
  Q 33.43 2.47 33.33 2.48
  Q 19.44 2.82 10.27 12.91
  C 0.21 23.98 1.29 39.37 7.23 52.14
  C 13.37 65.33 22.57 76.50 33.08 86.63
  A 0.09 0.07 66.4 0 0 33.13 86.65
  Q 33.26 86.69 33.40 86.69"
/>
<path stroke="#a6bbc3" vector-effect="non-scaling-stroke" d="
  M 51.23 34.05
  A 18.26 18.26 0.0 0 0 32.97 15.79
  A 18.26 18.26 0.0 0 0 14.71 34.05
  A 18.26 18.26 0.0 0 0 32.97 52.31
  A 18.26 18.26 0.0 0 0 51.23 34.05"
/>
<path stroke="#a6bbc3" vector-effect="non-scaling-stroke" d="
  M 49.45 34.00
  A 16.48 16.48 0.0 0 0 32.97 17.52
  A 16.48 16.48 0.0 0 0 16.49 34.00
  A 16.48 16.48 0.0 0 0 32.97 50.48
  A 16.48 16.48 0.0 0 0 49.45 34.00"
/>
<path stroke="#a6bbc3" vector-effect="non-scaling-stroke" d="
  M 35.96 30.51
  A 0.33 0.33 0.0 0 1 35.64 30.28
  L 33.30 23.06
  A 0.33 0.33 0.0 0 0 32.68 23.06
  L 30.34 30.28
  A 0.33 0.33 0.0 0 1 30.02 30.51
  L 22.43 30.50
  A 0.33 0.33 0.0 0 0 22.24 31.10
  L 28.38 35.55
  A 0.33 0.33 0.0 0 1 28.50 35.92
  L 26.15 43.14
  A 0.33 0.33 0.0 0 0 26.66 43.51
  L 32.80 39.04
  A 0.33 0.33 0.0 0 1 33.18 39.04
  L 39.32 43.51
  A 0.33 0.33 0.0 0 0 39.83 43.14
  L 37.48 35.92
  A 0.33 0.33 0.0 0 1 37.60 35.55
  L 43.74 31.10
  A 0.33 0.33 0.0 0 0 43.55 30.50
  L 35.96 30.51"
/>
</g>
<path fill="#243e46" d="
  M 33.78 88.00
  L 33.04 88.00
  C 21.72 77.71 12.19 65.74 5.68 51.55
  Q 2.12 43.81 1.57 34.90
  C 0.58 18.96 11.03 5.90 26.41 2.11
  C 37.27 -0.57 49.51 3.28 57.20 11.70
  C 69.76 25.45 66.42 43.75 57.55 58.85
  Q 47.97 75.16 33.78 88.00
  Z
  M 33.40 86.69
  Q 33.54 86.69 33.68 86.65
  A 0.09 0.07 -66.2 0 0 33.72 86.63
  C 44.27 76.54 53.50 65.40 59.69 52.23
  C 65.67 39.48 66.80 24.09 56.77 12.99
  Q 47.64 2.87 33.75 2.48
  Q 33.64 2.47 33.54 2.47
  Q 33.43 2.47 33.33 2.48
  Q 19.44 2.82 10.27 12.91
  C 0.21 23.98 1.29 39.37 7.23 52.14
  C 13.37 65.33 22.57 76.50 33.08 86.63
  A 0.09 0.07 66.4 0 0 33.13 86.65
  Q 33.26 86.69 33.40 86.69
  Z"
/>
<path fill="#4d7787" d="
  M 33.54 2.47
  Q 33.64 2.47 33.75 2.48
  Q 47.64 2.87 56.77 12.99
  C 66.80 24.09 65.67 39.48 59.69 52.23
  C 53.50 65.40 44.27 76.54 33.72 86.63
  A 0.09 0.07 -66.2 0 1 33.68 86.65
  Q 33.54 86.69 33.40 86.69
  Q 33.26 86.69 33.13 86.65
  A 0.09 0.07 66.4 0 1 33.08 86.63
  C 22.57 76.50 13.37 65.33 7.23 52.14
  C 1.29 39.37 0.21 23.98 10.27 12.91
  Q 19.44 2.82 33.33 2.48
  Q 33.43 2.47 33.54 2.47
  Z
  M 51.23 34.05
  A 18.26 18.26 0.0 0 0 32.97 15.79
  A 18.26 18.26 0.0 0 0 14.71 34.05
  A 18.26 18.26 0.0 0 0 32.97 52.31
  A 18.26 18.26 0.0 0 0 51.23 34.05
  Z"
/>
<path fill="#ffffff" d="
  M 51.23 34.05
  A 18.26 18.26 0.0 0 1 32.97 52.31
  A 18.26 18.26 0.0 0 1 14.71 34.05
  A 18.26 18.26 0.0 0 1 32.97 15.79
  A 18.26 18.26 0.0 0 1 51.23 34.05
  Z
  M 49.45 34.00
  A 16.48 16.48 0.0 0 0 32.97 17.52
  A 16.48 16.48 0.0 0 0 16.49 34.00
  A 16.48 16.48 0.0 0 0 32.97 50.48
  A 16.48 16.48 0.0 0 0 49.45 34.00
  Z"
/>
<path fill="#4d7787" d="
  M 49.45 34.00
  A 16.48 16.48 0.0 0 1 32.97 50.48
  A 16.48 16.48 0.0 0 1 16.49 34.00
  A 16.48 16.48 0.0 0 1 32.97 17.52
  A 16.48 16.48 0.0 0 1 49.45 34.00
  Z
  M 35.96 30.51
  A 0.33 0.33 0.0 0 1 35.64 30.28
  L 33.30 23.06
  A 0.33 0.33 0.0 0 0 32.68 23.06
  L 30.34 30.28
  A 0.33 0.33 0.0 0 1 30.02 30.51
  L 22.43 30.50
  A 0.33 0.33 0.0 0 0 22.24 31.10
  L 28.38 35.55
  A 0.33 0.33 0.0 0 1 28.50 35.92
  L 26.15 43.14
  A 0.33 0.33 0.0 0 0 26.66 43.51
  L 32.80 39.04
  A 0.33 0.33 0.0 0 1 33.18 39.04
  L 39.32 43.51
  A 0.33 0.33 0.0 0 0 39.83 43.14
  L 37.48 35.92
  A 0.33 0.33 0.0 0 1 37.60 35.55
  L 43.74 31.10
  A 0.33 0.33 0.0 0 0 43.55 30.50
  L 35.96 30.51
  Z"
/>
<path fill="#ffffff" d="
  M 35.96 30.51
  L 43.55 30.50
  A 0.33 0.33 0.0 0 1 43.74 31.10
  L 37.60 35.55
  A 0.33 0.33 0.0 0 0 37.48 35.92
  L 39.83 43.14
  A 0.33 0.33 0.0 0 1 39.32 43.51
  L 33.18 39.04
  A 0.33 0.33 0.0 0 0 32.80 39.04
  L 26.66 43.51
  A 0.33 0.33 0.0 0 1 26.15 43.14
  L 28.50 35.92
  A 0.33 0.33 0.0 0 0 28.38 35.55
  L 22.24 31.10
  A 0.33 0.33 0.0 0 1 22.43 30.50
  L 30.02 30.51
  A 0.33 0.33 0.0 0 0 30.34 30.28
  L 32.68 23.06
  A 0.33 0.33 0.0 0 1 33.30 23.06
  L 35.64 30.28
  A 0.33 0.33 0.0 0 0 35.96 30.51
  Z"
/>
</svg>
