<?xml version="1.0" encoding="UTF-8" standalone="no"?>
<!DOCTYPE svg PUBLIC "-//W3C//DTD SVG 1.1//EN" "http://www.w3.org/Graphics/SVG/1.1/DTD/svg11.dtd">
<svg xmlns="http://www.w3.org/2000/svg" version="1.1" viewBox="0.00 0.00 66.00 88.00">
<g stroke-width="2.00" fill="none" stroke-linecap="butt">
<path stroke="#802436" vector-effect="non-scaling-stroke" d="
  M 33.42 86.69
  Q 33.60 86.69 33.62 86.67
  Q 33.68 86.62 33.76 86.55
  Q 46.56 74.74 55.58 60.05
  C 60.15 52.61 63.69 44.00 64.16 35.34
  Q 64.46 29.77 63.79 27.00
  Q 59.86 10.71 44.69 4.61
  Q 39.36 2.47 33.51 2.46
  Q 27.66 2.46 22.33 4.59
  Q 7.14 10.66 3.18 26.94
  Q 2.51 29.71 2.79 35.28
  C 3.25 43.94 6.77 52.56 11.32 60.00
  Q 20.31 74.71 33.09 86.55
  Q 33.17 86.62 33.22 86.67
  Q 33.25 86.69 33.42 86.69"
/>
<path stroke="#d498a4" vector-effect="non-scaling-stroke" d="
  M 29.10 16.47
  C 23.97 16.30 17.66 18.39 14.96 23.04
  A 2.03 2.02 -28.7 0 0 14.68 23.99
  C 14.01 43.52 31.20 56.48 49.81 50.12
  A 2.04 2.03 -8.8 0 0 51.19 48.24
  Q 51.31 41.90 46.73 37.79
  A 2.01 2.00 70.9 0 0 45.73 37.30
  Q 40.65 36.37 38.99 32.36
  C 35.98 25.08 34.89 20.75 30.27 16.91
  A 1.93 1.93 0.0 0 0 29.10 16.47"
/>
<path stroke="#d498a4" vector-effect="non-scaling-stroke" d="
  M 19.26 23.00
  Q 21.88 24.40 23.09 27.43
  C 24.59 31.21 26.75 30.89 30.32 30.29
  A 1.32 1.32 0.0 0 1 31.85 31.75
  Q 30.80 40.47 39.66 41.99
  A 4.21 4.17 -54.8 0 0 42.47 41.49
  L 43.14 41.10
  A 0.90 0.90 0.0 0 0 42.95 39.46
  C 34.29 36.84 35.46 24.94 29.34 19.66
  A 1.30 1.24 -23.1 0 0 28.54 19.36
  Q 23.13 19.30 19.20 22.22
  A 0.46 0.46 0.0 0 0 19.26 23.00"
/>
</g>
<path fill="#581723" d="
  M 33.81 88.00
  L 33.15 88.00
  Q 15.61 72.48 6.00 52.51
  Q 2.23 44.68 1.62 34.99
  Q 1.03 25.70 5.17 18.15
  C 17.95 -5.17 51.90 -4.02 62.90 20.39
  C 66.91 29.29 65.82 40.16 62.33 49.05
  C 56.49 63.89 45.55 77.32 33.81 88.00
  Z
  M 33.42 86.69
  Q 33.60 86.69 33.62 86.67
  Q 33.68 86.62 33.76 86.55
  Q 46.56 74.74 55.58 60.05
  C 60.15 52.61 63.69 44.00 64.16 35.34
  Q 64.46 29.77 63.79 27.00
  Q 59.86 10.71 44.69 4.61
  Q 39.36 2.47 33.51 2.46
  Q 27.66 2.46 22.33 4.59
  Q 7.14 10.66 3.18 26.94
  Q 2.51 29.71 2.79 35.28
  C 3.25 43.94 6.77 52.56 11.32 60.00
  Q 20.31 74.71 33.09 86.55
  Q 33.17 86.62 33.22 86.67
  Q 33.25 86.69 33.42 86.69
  Z"
/>
<path fill="#a83148" d="
  M 33.51 2.46
  Q 39.36 2.47 44.69 4.61
  Q 59.86 10.71 63.79 27.00
  Q 64.46 29.77 64.16 35.34
  C 63.69 44.00 60.15 52.61 55.58 60.05
  Q 46.56 74.74 33.76 86.55
  Q 33.68 86.62 33.62 86.67
  Q 33.60 86.69 33.42 86.69
  Q 33.25 86.69 33.22 86.67
  Q 33.17 86.62 33.09 86.55
  Q 20.31 74.71 11.32 60.00
  C 6.77 52.56 3.25 43.94 2.79 35.28
  Q 2.51 29.71 3.18 26.94
  Q 7.14 10.66 22.33 4.59
  Q 27.66 2.46 33.51 2.46
  Z
  M 29.10 16.47
  C 23.97 16.30 17.66 18.39 14.96 23.04
  A 2.03 2.02 -28.7 0 0 14.68 23.99
  C 14.01 43.52 31.20 56.48 49.81 50.12
  A 2.04 2.03 -8.8 0 0 51.19 48.24
  Q 51.31 41.90 46.73 37.79
  A 2.01 2.00 70.9 0 0 45.73 37.30
  Q 40.65 36.37 38.99 32.36
  C 35.98 25.08 34.89 20.75 30.27 16.91
  A 1.93 1.93 0.0 0 0 29.10 16.47
  Z"
/>
<path fill="#ffffff" d="
  M 30.27 16.91
  C 34.89 20.75 35.98 25.08 38.99 32.36
  Q 40.65 36.37 45.73 37.30
  A 2.01 2.00 70.9 0 1 46.73 37.79
  Q 51.31 41.90 51.19 48.24
  A 2.04 2.03 -8.8 0 1 49.81 50.12
  C 31.20 56.48 14.01 43.52 14.68 23.99
  A 2.03 2.02 -28.7 0 1 14.96 23.04
  C 17.66 18.39 23.97 16.30 29.10 16.47
  A 1.93 1.93 0.0 0 1 30.27 16.91
  Z
  M 19.26 23.00
  Q 21.88 24.40 23.09 27.43
  C 24.59 31.21 26.75 30.89 30.32 30.29
  A 1.32 1.32 0.0 0 1 31.85 31.75
  Q 30.80 40.47 39.66 41.99
  A 4.21 4.17 -54.8 0 0 42.47 41.49
  L 43.14 41.10
  A 0.90 0.90 0.0 0 0 42.95 39.46
  C 34.29 36.84 35.46 24.94 29.34 19.66
  A 1.30 1.24 -23.1 0 0 28.54 19.36
  Q 23.13 19.30 19.20 22.22
  A 0.46 0.46 0.0 0 0 19.26 23.00
  Z"
/>
<path fill="#a83148" d="
  M 19.26 23.00
  A 0.46 0.46 0.0 0 1 19.20 22.22
  Q 23.13 19.30 28.54 19.36
  A 1.30 1.24 -23.1 0 1 29.34 19.66
  C 35.46 24.94 34.29 36.84 42.95 39.46
  A 0.90 0.90 0.0 0 1 43.14 41.10
  L 42.47 41.49
  A 4.21 4.17 -54.8 0 1 39.66 41.99
  Q 30.80 40.47 31.85 31.75
  A 1.32 1.32 0.0 0 0 30.32 30.29
  C 26.75 30.89 24.59 31.21 23.09 27.43
  Q 21.88 24.40 19.26 23.00
  Z"
/>
</svg>
