<?xml version="1.0" encoding="UTF-8" standalone="no"?>
<!DOCTYPE svg PUBLIC "-//W3C//DTD SVG 1.1//EN" "http://www.w3.org/Graphics/SVG/1.1/DTD/svg11.dtd">
<svg xmlns="http://www.w3.org/2000/svg" version="1.1" viewBox="0.00 0.00 66.00 88.00">
<g stroke-width="2.00" fill="none" stroke-linecap="butt">
<path stroke="#406c74" vector-effect="non-scaling-stroke" d="
  M 33.40 86.70
  Q 33.51 86.70 33.61 86.68
  Q 33.65 86.67 33.76 86.56
  C 45.56 75.49 57.96 60.39 62.54 44.65
  C 67.13 28.82 62.54 14.60 48.73 6.52
  Q 41.84 2.49 33.55 2.48
  Q 25.26 2.46 18.35 6.47
  C 4.52 14.50 -0.12 28.70 4.41 44.55
  C 8.93 60.30 21.28 75.45 33.04 86.56
  Q 33.15 86.67 33.19 86.68
  Q 33.29 86.70 33.40 86.70"
/>
<path stroke="#a3c0c7" vector-effect="non-scaling-stroke" d="
  M 32.98 23.52
  Q 35.99 23.52 38.11 25.80
  A 0.57 0.57 0.0 0 0 38.94 25.80
  Q 39.87 24.84 41.93 23.87
  A 0.40 0.40 0.0 0 0 42.11 23.32
  C 40.37 20.06 37.17 15.83 32.98 15.83
  C 28.79 15.82 25.59 20.05 23.85 23.31
  A 0.40 0.40 0.0 0 0 24.02 23.86
  Q 26.08 24.83 27.01 25.79
  A 0.57 0.57 0.0 0 0 27.84 25.79
  Q 29.97 23.51 32.98 23.52"
/>
<path stroke="#a3c0c7" vector-effect="non-scaling-stroke" d="
  M 32.99 36.03
  C 33.48 36.03 35.91 38.67 38.15 40.92
  A 0.48 0.48 0.0 0 0 38.82 40.92
  L 43.51 36.22
  A 0.70 0.70 0.0 0 1 44.42 36.16
  Q 45.44 36.95 46.04 37.95
  A 0.34 0.33 -62.8 0 0 46.66 37.75
  Q 46.23 32.23 43.83 26.77
  A 0.64 0.64 0.0 0 0 43.05 26.41
  Q 40.53 27.17 40.17 29.06
  A 1.76 1.73 41.7 0 1 36.80 29.22
  Q 35.82 26.30 32.98 26.30
  Q 30.14 26.31 29.16 29.23
  A 1.76 1.73 -41.8 0 1 25.79 29.08
  Q 25.42 27.19 22.90 26.43
  A 0.64 0.64 0.0 0 0 22.12 26.80
  Q 19.74 32.26 19.32 37.78
  A 0.34 0.33 62.7 0 0 19.94 37.98
  Q 20.54 36.98 21.56 36.19
  A 0.70 0.70 0.0 0 1 22.47 36.25
  L 27.17 40.93
  A 0.48 0.48 0.0 0 0 27.84 40.93
  C 30.07 38.68 32.50 36.03 32.99 36.03"
/>
<path stroke="#a3c0c7" vector-effect="non-scaling-stroke" d="
  M 33.00 52.24
  C 39.39 52.23 44.19 48.40 46.12 42.53
  A 1.08 1.07 32.0 0 0 45.87 41.44
  L 44.31 39.89
  A 0.49 0.49 0.0 0 0 43.61 39.89
  L 38.88 44.62
  A 0.57 0.57 0.0 0 1 38.08 44.62
  L 33.18 39.70
  A 0.27 0.20 63.4 0 0 33.03 39.62
  Q 33.01 39.62 32.98 39.62
  Q 32.96 39.62 32.94 39.62
  A 0.27 0.20 -63.6 0 0 32.79 39.70
  L 27.90 44.63
  A 0.57 0.57 0.0 0 1 27.10 44.63
  L 22.36 39.92
  A 0.49 0.49 0.0 0 0 21.66 39.92
  L 20.10 41.47
  A 1.08 1.07 -32.2 0 0 19.85 42.56
  C 21.80 48.43 26.60 52.24 33.00 52.24"
/>
</g>
<path fill="#284a4f" d="
  M 33.80 88.00
  L 33.13 88.00
  Q 16.68 73.40 6.79 53.99
  Q 2.23 45.05 1.61 35.35
  Q 0.99 25.49 5.49 17.55
  C 12.11 5.86 25.38 -0.46 38.97 1.80
  C 54.75 4.44 66.20 18.34 65.45 34.32
  C 64.48 54.80 48.33 74.76 33.80 88.00
  Z
  M 33.40 86.70
  Q 33.51 86.70 33.61 86.68
  Q 33.65 86.67 33.76 86.56
  C 45.56 75.49 57.96 60.39 62.54 44.65
  C 67.13 28.82 62.54 14.60 48.73 6.52
  Q 41.84 2.49 33.55 2.48
  Q 25.26 2.46 18.35 6.47
  C 4.52 14.50 -0.12 28.70 4.41 44.55
  C 8.93 60.30 21.28 75.45 33.04 86.56
  Q 33.15 86.67 33.19 86.68
  Q 33.29 86.70 33.40 86.70
  Z"
/>
<path fill="#578e98" d="
  M 33.55 2.48
  Q 41.84 2.49 48.73 6.52
  C 62.54 14.60 67.13 28.82 62.54 44.65
  C 57.96 60.39 45.56 75.49 33.76 86.56
  Q 33.65 86.67 33.61 86.68
  Q 33.51 86.70 33.40 86.70
  Q 33.29 86.70 33.19 86.68
  Q 33.15 86.67 33.04 86.56
  C 21.28 75.45 8.93 60.30 4.41 44.55
  C -0.12 28.70 4.52 14.50 18.35 6.47
  Q 25.26 2.46 33.55 2.48
  Z
  M 32.98 23.52
  Q 35.99 23.52 38.11 25.80
  A 0.57 0.57 0.0 0 0 38.94 25.80
  Q 39.87 24.84 41.93 23.87
  A 0.40 0.40 0.0 0 0 42.11 23.32
  C 40.37 20.06 37.17 15.83 32.98 15.83
  C 28.79 15.82 25.59 20.05 23.85 23.31
  A 0.40 0.40 0.0 0 0 24.02 23.86
  Q 26.08 24.83 27.01 25.79
  A 0.57 0.57 0.0 0 0 27.84 25.79
  Q 29.97 23.51 32.98 23.52
  Z
  M 32.99 36.03
  C 33.48 36.03 35.91 38.67 38.15 40.92
  A 0.48 0.48 0.0 0 0 38.82 40.92
  L 43.51 36.22
  A 0.70 0.70 0.0 0 1 44.42 36.16
  Q 45.44 36.95 46.04 37.95
  A 0.34 0.33 -62.8 0 0 46.66 37.75
  Q 46.23 32.23 43.83 26.77
  A 0.64 0.64 0.0 0 0 43.05 26.41
  Q 40.53 27.17 40.17 29.06
  A 1.76 1.73 41.7 0 1 36.80 29.22
  Q 35.82 26.30 32.98 26.30
  Q 30.14 26.31 29.16 29.23
  A 1.76 1.73 -41.8 0 1 25.79 29.08
  Q 25.42 27.19 22.90 26.43
  A 0.64 0.64 0.0 0 0 22.12 26.80
  Q 19.74 32.26 19.32 37.78
  A 0.34 0.33 62.7 0 0 19.94 37.98
  Q 20.54 36.98 21.56 36.19
  A 0.70 0.70 0.0 0 1 22.47 36.25
  L 27.17 40.93
  A 0.48 0.48 0.0 0 0 27.84 40.93
  C 30.07 38.68 32.50 36.03 32.99 36.03
  Z
  M 33.00 52.24
  C 39.39 52.23 44.19 48.40 46.12 42.53
  A 1.08 1.07 32.0 0 0 45.87 41.44
  L 44.31 39.89
  A 0.49 0.49 0.0 0 0 43.61 39.89
  L 38.88 44.62
  A 0.57 0.57 0.0 0 1 38.08 44.62
  L 33.18 39.70
  A 0.27 0.20 63.4 0 0 33.03 39.62
  Q 33.01 39.62 32.98 39.62
  Q 32.96 39.62 32.94 39.62
  A 0.27 0.20 -63.6 0 0 32.79 39.70
  L 27.90 44.63
  A 0.57 0.57 0.0 0 1 27.10 44.63
  L 22.36 39.92
  A 0.49 0.49 0.0 0 0 21.66 39.92
  L 20.10 41.47
  A 1.08 1.07 -32.2 0 0 19.85 42.56
  C 21.80 48.43 26.60 52.24 33.00 52.24
  Z"
/>
<path fill="#eff1f6" d="
  M 32.98 15.83
  C 37.17 15.83 40.37 20.06 42.11 23.32
  A 0.40 0.40 0.0 0 1 41.93 23.87
  Q 39.87 24.84 38.94 25.80
  A 0.57 0.57 0.0 0 1 38.11 25.80
  Q 35.99 23.52 32.98 23.52
  Q 29.97 23.51 27.84 25.79
  A 0.57 0.57 0.0 0 1 27.01 25.79
  Q 26.08 24.83 24.02 23.86
  A 0.40 0.40 0.0 0 1 23.85 23.31
  C 25.59 20.05 28.79 15.82 32.98 15.83
  Z"
/>
<path fill="#eff1f6" d="
  M 32.98 26.30
  Q 35.82 26.30 36.80 29.22
  A 1.76 1.73 41.7 0 0 40.17 29.06
  Q 40.53 27.17 43.05 26.41
  A 0.64 0.64 0.0 0 1 43.83 26.77
  Q 46.23 32.23 46.66 37.75
  A 0.34 0.33 -62.8 0 1 46.04 37.95
  Q 45.44 36.95 44.42 36.16
  A 0.70 0.70 0.0 0 0 43.51 36.22
  L 38.82 40.92
  A 0.48 0.48 0.0 0 1 38.15 40.92
  C 35.91 38.67 33.48 36.03 32.99 36.03
  C 32.50 36.03 30.07 38.68 27.84 40.93
  A 0.48 0.48 0.0 0 1 27.17 40.93
  L 22.47 36.25
  A 0.70 0.70 0.0 0 0 21.56 36.19
  Q 20.54 36.98 19.94 37.98
  A 0.34 0.33 62.7 0 1 19.32 37.78
  Q 19.74 32.26 22.12 26.80
  A 0.64 0.64 0.0 0 1 22.90 26.43
  Q 25.42 27.19 25.79 29.08
  A 1.76 1.73 -41.8 0 0 29.16 29.23
  Q 30.14 26.31 32.98 26.30
  Z"
/>
<path fill="#eff1f6" d="
  M 32.98 39.62
  Q 33.01 39.62 33.03 39.62
  A 0.27 0.20 63.4 0 1 33.18 39.70
  L 38.08 44.62
  A 0.57 0.57 0.0 0 0 38.88 44.62
  L 43.61 39.89
  A 0.49 0.49 0.0 0 1 44.31 39.89
  L 45.87 41.44
  A 1.08 1.07 32.0 0 1 46.12 42.53
  C 44.19 48.40 39.39 52.23 33.00 52.24
  C 26.60 52.24 21.80 48.43 19.85 42.56
  A 1.08 1.07 -32.2 0 1 20.10 41.47
  L 21.66 39.92
  A 0.49 0.49 0.0 0 1 22.36 39.92
  L 27.10 44.63
  A 0.57 0.57 0.0 0 0 27.90 44.63
  L 32.79 39.70
  A 0.27 0.20 -63.6 0 1 32.94 39.62
  Q 32.96 39.62 32.98 39.62
  Z"
/>
</svg>
