<?xml version="1.0" encoding="UTF-8" standalone="no"?>
<!DOCTYPE svg PUBLIC "-//W3C//DTD SVG 1.1//EN" "http://www.w3.org/Graphics/SVG/1.1/DTD/svg11.dtd">
<svg xmlns="http://www.w3.org/2000/svg" version="1.1" viewBox="0.00 0.00 66.00 88.00">
<g stroke-width="2.00" fill="none" stroke-linecap="butt">
<path stroke="#30744e" vector-effect="non-scaling-stroke" d="
  M 33.41 86.72
  Q 33.53 86.72 33.65 86.61
  Q 45.72 75.44 54.34 62.06
  Q 58.12 56.20 60.32 50.74
  Q 63.52 42.84 63.97 38.47
  Q 66.34 15.18 46.43 5.33
  Q 40.64 2.47 33.53 2.46
  Q 26.42 2.45 20.62 5.30
  Q 0.69 15.08 2.99 38.38
  Q 3.42 42.75 6.60 50.66
  Q 8.78 56.13 12.55 62.00
  Q 21.13 75.40 33.16 86.60
  Q 33.29 86.72 33.41 86.72"
/>
<path stroke="#98c5b0" vector-effect="non-scaling-stroke" d="
  M 51.27 30.03
  C 50.64 23.77 45.16 19.69 39.23 19.36
  Q 36.10 19.19 29.16 19.24
  C 22.18 19.29 15.33 22.51 14.71 30.12
  A 0.58 0.58 0.0 0 0 15.29 30.75
  L 26.56 30.75
  A 0.87 0.87 0.0 0 0 27.34 30.27
  C 30.23 24.44 36.88 24.52 39.71 30.29
  A 0.83 0.82 76.6 0 0 40.45 30.75
  L 50.62 30.75
  A 0.66 0.65 87.2 0 0 51.27 30.03"
/>
<path stroke="#98c5b0" vector-effect="non-scaling-stroke" d="
  M 33.54 41.78
  Q 34.54 41.78 34.87 41.76
  A 0.61 0.61 0.0 0 0 35.45 41.15
  L 35.45 37.01
  A 3.68 3.67 59.6 0 1 35.91 35.23
  Q 36.73 33.75 36.83 33.25
  C 37.21 31.22 35.60 29.25 33.53 29.25
  C 31.45 29.26 29.85 31.23 30.24 33.26
  Q 30.34 33.76 31.16 35.24
  A 3.68 3.67 -59.7 0 1 31.63 37.01
  L 31.64 41.15
  A 0.61 0.61 0.0 0 0 32.22 41.76
  Q 32.54 41.78 33.54 41.78"
/>
<path stroke="#98c5b0" vector-effect="non-scaling-stroke" d="
  M 15.04 34.64
  L 16.42 48.86
  A 0.70 0.69 87.3 0 0 17.11 49.49
  L 48.88 49.49
  A 0.68 0.67 -87.2 0 0 49.55 48.88
  L 50.98 34.63
  A 0.59 0.59 0.0 0 0 50.39 33.99
  L 40.75 33.99
  A 1.05 1.03 15.0 0 0 39.85 34.50
  Q 38.58 36.68 38.58 38.99
  Q 38.58 43.94 38.59 43.95
  A 0.72 0.72 0.0 0 1 37.97 45.03
  L 29.59 45.02
  A 1.28 1.28 0.0 0 1 28.31 43.68
  C 28.48 39.96 28.93 37.49 27.13 34.44
  A 0.92 0.90 -14.7 0 0 26.34 33.99
  L 15.64 33.99
  A 0.60 0.60 0.0 0 0 15.04 34.64"
/>
</g>
<path fill="#1e4f33" d="
  M 33.78 88.00
  L 33.04 88.00
  C 21.93 77.90 12.02 65.61 5.69 51.63
  C 0.55 40.28 -0.59 26.44 6.58 15.83
  C 15.12 3.20 30.15 -1.81 44.73 3.34
  Q 50.82 5.49 55.49 9.98
  Q 67.99 21.98 64.84 40.02
  C 61.69 58.03 47.09 75.97 33.78 88.00
  Z
  M 33.41 86.72
  Q 33.53 86.72 33.65 86.61
  Q 45.72 75.44 54.34 62.06
  Q 58.12 56.20 60.32 50.74
  Q 63.52 42.84 63.97 38.47
  Q 66.34 15.18 46.43 5.33
  Q 40.64 2.47 33.53 2.46
  Q 26.42 2.45 20.62 5.30
  Q 0.69 15.08 2.99 38.38
  Q 3.42 42.75 6.60 50.66
  Q 8.78 56.13 12.55 62.00
  Q 21.13 75.40 33.16 86.60
  Q 33.29 86.72 33.41 86.72
  Z"
/>
<path fill="#419869" d="
  M 33.53 2.46
  Q 40.64 2.47 46.43 5.33
  Q 66.34 15.18 63.97 38.47
  Q 63.52 42.84 60.32 50.74
  Q 58.12 56.20 54.34 62.06
  Q 45.72 75.44 33.65 86.61
  Q 33.53 86.72 33.41 86.72
  Q 33.29 86.72 33.16 86.60
  Q 21.13 75.40 12.55 62.00
  Q 8.78 56.13 6.60 50.66
  Q 3.42 42.75 2.99 38.38
  Q 0.69 15.08 20.62 5.30
  Q 26.42 2.45 33.53 2.46
  Z
  M 51.27 30.03
  C 50.64 23.77 45.16 19.69 39.23 19.36
  Q 36.10 19.19 29.16 19.24
  C 22.18 19.29 15.33 22.51 14.71 30.12
  A 0.58 0.58 0.0 0 0 15.29 30.75
  L 26.56 30.75
  A 0.87 0.87 0.0 0 0 27.34 30.27
  C 30.23 24.44 36.88 24.52 39.71 30.29
  A 0.83 0.82 76.6 0 0 40.45 30.75
  L 50.62 30.75
  A 0.66 0.65 87.2 0 0 51.27 30.03
  Z
  M 33.54 41.78
  Q 34.54 41.78 34.87 41.76
  A 0.61 0.61 0.0 0 0 35.45 41.15
  L 35.45 37.01
  A 3.68 3.67 59.6 0 1 35.91 35.23
  Q 36.73 33.75 36.83 33.25
  C 37.21 31.22 35.60 29.25 33.53 29.25
  C 31.45 29.26 29.85 31.23 30.24 33.26
  Q 30.34 33.76 31.16 35.24
  A 3.68 3.67 -59.7 0 1 31.63 37.01
  L 31.64 41.15
  A 0.61 0.61 0.0 0 0 32.22 41.76
  Q 32.54 41.78 33.54 41.78
  Z
  M 15.04 34.64
  L 16.42 48.86
  A 0.70 0.69 87.3 0 0 17.11 49.49
  L 48.88 49.49
  A 0.68 0.67 -87.2 0 0 49.55 48.88
  L 50.98 34.63
  A 0.59 0.59 0.0 0 0 50.39 33.99
  L 40.75 33.99
  A 1.05 1.03 15.0 0 0 39.85 34.50
  Q 38.58 36.68 38.58 38.99
  Q 38.58 43.94 38.59 43.95
  A 0.72 0.72 0.0 0 1 37.97 45.03
  L 29.59 45.02
  A 1.28 1.28 0.0 0 1 28.31 43.68
  C 28.48 39.96 28.93 37.49 27.13 34.44
  A 0.92 0.90 -14.7 0 0 26.34 33.99
  L 15.64 33.99
  A 0.60 0.60 0.0 0 0 15.04 34.64
  Z"
/>
<path fill="#eff1f6" d="
  M 50.62 30.75
  L 40.45 30.75
  A 0.83 0.82 76.6 0 1 39.71 30.29
  C 36.88 24.52 30.23 24.44 27.34 30.27
  A 0.87 0.87 0.0 0 1 26.56 30.75
  L 15.29 30.75
  A 0.58 0.58 0.0 0 1 14.71 30.12
  C 15.33 22.51 22.18 19.29 29.16 19.24
  Q 36.10 19.19 39.23 19.36
  C 45.16 19.69 50.64 23.77 51.27 30.03
  A 0.66 0.65 87.2 0 1 50.62 30.75
  Z"
/>
<path fill="#eff1f6" d="
  M 33.53 29.25
  C 35.60 29.25 37.21 31.22 36.83 33.25
  Q 36.73 33.75 35.91 35.23
  A 3.68 3.67 59.6 0 0 35.45 37.01
  L 35.45 41.15
  A 0.61 0.61 0.0 0 1 34.87 41.76
  Q 34.54 41.78 33.54 41.78
  Q 32.54 41.78 32.22 41.76
  A 0.61 0.61 0.0 0 1 31.64 41.15
  L 31.63 37.01
  A 3.68 3.67 -59.7 0 0 31.16 35.24
  Q 30.34 33.76 30.24 33.26
  C 29.85 31.23 31.45 29.26 33.53 29.25
  Z"
/>
<path fill="#eff1f6" d="
  M 15.64 33.99
  L 26.34 33.99
  A 0.92 0.90 -14.7 0 1 27.13 34.44
  C 28.93 37.49 28.48 39.96 28.31 43.68
  A 1.28 1.28 0.0 0 0 29.59 45.02
  L 37.97 45.03
  A 0.72 0.72 0.0 0 0 38.59 43.95
  Q 38.58 43.94 38.58 38.99
  Q 38.58 36.68 39.85 34.50
  A 1.05 1.03 15.0 0 1 40.75 33.99
  L 50.39 33.99
  A 0.59 0.59 0.0 0 1 50.98 34.63
  L 49.55 48.88
  A 0.68 0.67 -87.2 0 1 48.88 49.49
  L 17.11 49.49
  A 0.70 0.69 87.3 0 1 16.42 48.86
  L 15.04 34.64
  A 0.60 0.60 0.0 0 1 15.64 33.99
  Z"
/>
</svg>
