<?xml version="1.0" encoding="UTF-8" standalone="no"?>
<!DOCTYPE svg PUBLIC "-//W3C//DTD SVG 1.1//EN" "http://www.w3.org/Graphics/SVG/1.1/DTD/svg11.dtd">
<svg xmlns="http://www.w3.org/2000/svg" version="1.1" viewBox="0.00 0.00 66.00 88.00">
<g stroke-width="2.00" fill="none" stroke-linecap="butt">
<path stroke="#30744f" vector-effect="non-scaling-stroke" d="
  M 33.41 86.72
  Q 33.53 86.72 33.65 86.60
  C 51.09 70.46 77.61 36.57 56.64 12.87
  Q 48.35 3.51 35.47 2.55
  Q 34.37 2.47 33.54 2.47
  Q 32.70 2.47 31.60 2.55
  Q 18.72 3.47 10.40 12.80
  C -10.64 36.44 15.78 70.41 33.17 86.60
  Q 33.29 86.72 33.41 86.72"
/>
<path stroke="#98c5b0" vector-effect="non-scaling-stroke" d="
  M 31.97 25.62
  Q 29.94 23.48 26.33 22.12
  A 0.24 0.23 -73.2 0 1 26.18 21.83
  L 26.23 21.56
  A 0.09 0.08 16.8 0 1 26.35 21.50
  L 30.49 23.14
  A 0.11 0.11 0.0 0 0 30.63 23.08
  L 30.73 22.82
  A 0.21 0.20 -61.2 0 0 30.67 22.58
  Q 25.86 18.69 21.19 22.28
  A 0.30 0.30 0.0 0 0 21.33 22.81
  Q 27.55 23.62 32.05 27.74
  A 0.68 0.68 0.0 0 0 33.14 27.48
  Q 35.32 21.70 33.75 16.52
  A 1.13 1.12 -23.5 0 0 32.11 15.88
  L 31.85 16.03
  A 1.26 1.25 60.3 0 0 31.39 17.74
  Q 33.40 21.23 32.65 25.42
  A 0.40 0.40 0.0 0 1 31.97 25.62"
/>
<path stroke="#98c5b0" vector-effect="non-scaling-stroke" d="
  M 32.85 34.87
  Q 33.14 34.87 34.30 34.07
  Q 37.79 31.65 38.80 27.27
  A 0.75 0.75 0.0 0 0 37.72 26.44
  Q 35.81 27.48 33.25 29.29
  Q 33.22 29.32 32.85 29.32
  Q 32.48 29.32 32.44 29.29
  Q 29.89 27.48 27.98 26.43
  A 0.75 0.75 0.0 0 0 26.90 27.26
  Q 27.91 31.64 31.39 34.07
  Q 32.55 34.87 32.85 34.87"
/>
<path stroke="#98c5b0" vector-effect="non-scaling-stroke" d="
  M 24.53 36.28
  A 0.34 0.34 0.0 0 0 25.07 36.23
  L 27.08 32.79
  A 0.39 0.38 -49.5 0 0 27.05 32.36
  Q 25.42 30.35 25.07 27.60
  A 0.71 0.71 0.0 0 0 24.02 27.07
  L 21.35 28.59
  A 1.40 1.40 0.0 0 0 20.76 30.37
  Q 22.15 33.62 24.53 36.28"
/>
<path stroke="#98c5b0" vector-effect="non-scaling-stroke" d="
  M 41.14 36.28
  Q 43.53 33.63 44.95 30.39
  A 1.40 1.40 0.0 0 0 44.37 28.61
  L 41.71 27.07
  A 0.71 0.71 0.0 0 0 40.66 27.59
  Q 40.29 30.34 38.64 32.34
  A 0.39 0.38 49.9 0 0 38.61 32.77
  L 40.60 36.22
  A 0.34 0.34 0.0 0 0 41.14 36.28"
/>
<path stroke="#98c5b0" vector-effect="non-scaling-stroke" d="
  M 32.83 52.00
  C 35.25 52.00 38.06 53.11 40.30 50.56
  Q 46.56 43.44 46.44 33.03
  A 0.14 0.14 0.0 0 0 46.18 32.95
  Q 44.38 35.95 42.09 37.89
  A 0.93 0.93 0.0 0 0 41.78 38.80
  Q 42.85 43.55 39.16 47.19
  Q 37.00 49.32 34.32 47.35
  A 1.46 1.45 12.0 0 1 33.77 46.51
  C 33.06 43.16 36.27 40.04 38.77 38.27
  A 0.76 0.75 -32.8 0 0 38.99 37.28
  L 37.55 34.78
  A 0.62 0.61 -38.9 0 0 36.57 34.68
  C 35.91 35.39 34.02 36.87 32.85 36.87
  C 31.67 36.87 29.79 35.38 29.13 34.67
  A 0.62 0.61 39.0 0 0 28.15 34.77
  L 26.70 37.27
  A 0.76 0.75 32.9 0 0 26.92 38.26
  C 29.42 40.03 32.62 43.16 31.90 46.51
  A 1.46 1.45 -11.8 0 1 31.35 47.35
  Q 28.67 49.31 26.51 47.18
  Q 22.83 43.53 23.91 38.78
  A 0.93 0.93 0.0 0 0 23.60 37.87
  Q 21.32 35.92 19.52 32.92
  A 0.14 0.14 0.0 0 0 19.26 33.00
  Q 19.12 43.41 25.36 50.54
  C 27.60 53.10 30.41 52.00 32.83 52.00"
/>
<path stroke="#98c5b0" vector-effect="non-scaling-stroke" d="
  M 25.59 40.30
  Q 25.48 44.26 28.71 46.20
  A 1.00 1.00 0.0 0 0 30.18 45.07
  Q 29.34 42.09 26.20 39.99
  A 0.39 0.39 0.0 0 0 25.59 40.30"
/>
<path stroke="#98c5b0" vector-effect="non-scaling-stroke" d="
  M 40.10 40.32
  A 0.39 0.39 0.0 0 0 39.49 40.01
  Q 36.37 42.10 35.54 45.07
  A 0.99 0.99 0.0 0 0 37.00 46.19
  Q 40.21 44.26 40.10 40.32"
/>
</g>
<path fill="#1e5034" d="
  M 33.78 88.00
  L 33.13 88.00
  Q 16.68 73.40 6.79 53.99
  Q 2.30 45.16 1.63 35.63
  Q 0.92 25.65 5.43 17.67
  C 15.92 -0.91 42.22 -4.69 57.20 11.70
  C 69.75 25.44 66.42 43.76 57.56 58.85
  Q 47.97 75.17 33.78 88.00
  Z
  M 33.41 86.72
  Q 33.53 86.72 33.65 86.60
  C 51.09 70.46 77.61 36.57 56.64 12.87
  Q 48.35 3.51 35.47 2.55
  Q 34.37 2.47 33.54 2.47
  Q 32.70 2.47 31.60 2.55
  Q 18.72 3.47 10.40 12.80
  C -10.64 36.44 15.78 70.41 33.17 86.60
  Q 33.29 86.72 33.41 86.72
  Z"
/>
<path fill="#419869" d="
  M 33.54 2.47
  Q 34.37 2.47 35.47 2.55
  Q 48.35 3.51 56.64 12.87
  C 77.61 36.57 51.09 70.46 33.65 86.60
  Q 33.53 86.72 33.41 86.72
  Q 33.29 86.72 33.17 86.60
  C 15.78 70.41 -10.64 36.44 10.40 12.80
  Q 18.72 3.47 31.60 2.55
  Q 32.70 2.47 33.54 2.47
  Z
  M 31.97 25.62
  Q 29.94 23.48 26.33 22.12
  A 0.24 0.23 -73.2 0 1 26.18 21.83
  L 26.23 21.56
  A 0.09 0.08 16.8 0 1 26.35 21.50
  L 30.49 23.14
  A 0.11 0.11 0.0 0 0 30.63 23.08
  L 30.73 22.82
  A 0.21 0.20 -61.2 0 0 30.67 22.58
  Q 25.86 18.69 21.19 22.28
  A 0.30 0.30 0.0 0 0 21.33 22.81
  Q 27.55 23.62 32.05 27.74
  A 0.68 0.68 0.0 0 0 33.14 27.48
  Q 35.32 21.70 33.75 16.52
  A 1.13 1.12 -23.5 0 0 32.11 15.88
  L 31.85 16.03
  A 1.26 1.25 60.3 0 0 31.39 17.74
  Q 33.40 21.23 32.65 25.42
  A 0.40 0.40 0.0 0 1 31.97 25.62
  Z
  M 32.85 34.87
  Q 33.14 34.87 34.30 34.07
  Q 37.79 31.65 38.80 27.27
  A 0.75 0.75 0.0 0 0 37.72 26.44
  Q 35.81 27.48 33.25 29.29
  Q 33.22 29.32 32.85 29.32
  Q 32.48 29.32 32.44 29.29
  Q 29.89 27.48 27.98 26.43
  A 0.75 0.75 0.0 0 0 26.90 27.26
  Q 27.91 31.64 31.39 34.07
  Q 32.55 34.87 32.85 34.87
  Z
  M 24.53 36.28
  A 0.34 0.34 0.0 0 0 25.07 36.23
  L 27.08 32.79
  A 0.39 0.38 -49.5 0 0 27.05 32.36
  Q 25.42 30.35 25.07 27.60
  A 0.71 0.71 0.0 0 0 24.02 27.07
  L 21.35 28.59
  A 1.40 1.40 0.0 0 0 20.76 30.37
  Q 22.15 33.62 24.53 36.28
  Z
  M 41.14 36.28
  Q 43.53 33.63 44.95 30.39
  A 1.40 1.40 0.0 0 0 44.37 28.61
  L 41.71 27.07
  A 0.71 0.71 0.0 0 0 40.66 27.59
  Q 40.29 30.34 38.64 32.34
  A 0.39 0.38 49.9 0 0 38.61 32.77
  L 40.60 36.22
  A 0.34 0.34 0.0 0 0 41.14 36.28
  Z
  M 32.83 52.00
  C 35.25 52.00 38.06 53.11 40.30 50.56
  Q 46.56 43.44 46.44 33.03
  A 0.14 0.14 0.0 0 0 46.18 32.95
  Q 44.38 35.95 42.09 37.89
  A 0.93 0.93 0.0 0 0 41.78 38.80
  Q 42.85 43.55 39.16 47.19
  Q 37.00 49.32 34.32 47.35
  A 1.46 1.45 12.0 0 1 33.77 46.51
  C 33.06 43.16 36.27 40.04 38.77 38.27
  A 0.76 0.75 -32.8 0 0 38.99 37.28
  L 37.55 34.78
  A 0.62 0.61 -38.9 0 0 36.57 34.68
  C 35.91 35.39 34.02 36.87 32.85 36.87
  C 31.67 36.87 29.79 35.38 29.13 34.67
  A 0.62 0.61 39.0 0 0 28.15 34.77
  L 26.70 37.27
  A 0.76 0.75 32.9 0 0 26.92 38.26
  C 29.42 40.03 32.62 43.16 31.90 46.51
  A 1.46 1.45 -11.8 0 1 31.35 47.35
  Q 28.67 49.31 26.51 47.18
  Q 22.83 43.53 23.91 38.78
  A 0.93 0.93 0.0 0 0 23.60 37.87
  Q 21.32 35.92 19.52 32.92
  A 0.14 0.14 0.0 0 0 19.26 33.00
  Q 19.12 43.41 25.36 50.54
  C 27.60 53.10 30.41 52.00 32.83 52.00
  Z
  M 25.59 40.30
  Q 25.48 44.26 28.71 46.20
  A 1.00 1.00 0.0 0 0 30.18 45.07
  Q 29.34 42.09 26.20 39.99
  A 0.39 0.39 0.0 0 0 25.59 40.30
  Z
  M 40.10 40.32
  A 0.39 0.39 0.0 0 0 39.49 40.01
  Q 36.37 42.10 35.54 45.07
  A 0.99 0.99 0.0 0 0 37.00 46.19
  Q 40.21 44.26 40.10 40.32
  Z"
/>
<path fill="#eff1f6" d="
  M 32.65 25.42
  Q 33.40 21.23 31.39 17.74
  A 1.26 1.25 60.3 0 1 31.85 16.03
  L 32.11 15.88
  A 1.13 1.12 -23.5 0 1 33.75 16.52
  Q 35.32 21.70 33.14 27.48
  A 0.68 0.68 0.0 0 1 32.05 27.74
  Q 27.55 23.62 21.33 22.81
  A 0.30 0.30 0.0 0 1 21.19 22.28
  Q 25.86 18.69 30.67 22.58
  A 0.21 0.20 -61.2 0 1 30.73 22.82
  L 30.63 23.08
  A 0.11 0.11 0.0 0 1 30.49 23.14
  L 26.35 21.50
  A 0.09 0.08 16.8 0 0 26.23 21.56
  L 26.18 21.83
  A 0.24 0.23 -73.2 0 0 26.33 22.12
  Q 29.94 23.48 31.97 25.62
  A 0.40 0.40 0.0 0 0 32.65 25.42
  Z"
/>
<path fill="#eff1f6" d="
  M 32.85 29.32
  Q 33.22 29.32 33.25 29.29
  Q 35.81 27.48 37.72 26.44
  A 0.75 0.75 0.0 0 1 38.80 27.27
  Q 37.79 31.65 34.30 34.07
  Q 33.14 34.87 32.85 34.87
  Q 32.55 34.87 31.39 34.07
  Q 27.91 31.64 26.90 27.26
  A 0.75 0.75 0.0 0 1 27.98 26.43
  Q 29.89 27.48 32.44 29.29
  Q 32.48 29.32 32.85 29.32
  Z"
/>
<path fill="#eff1f6" d="
  M 24.53 36.28
  Q 22.15 33.62 20.76 30.37
  A 1.40 1.40 0.0 0 1 21.35 28.59
  L 24.02 27.07
  A 0.71 0.71 0.0 0 1 25.07 27.60
  Q 25.42 30.35 27.05 32.36
  A 0.39 0.38 -49.5 0 1 27.08 32.79
  L 25.07 36.23
  A 0.34 0.34 0.0 0 1 24.53 36.28
  Z"
/>
<path fill="#eff1f6" d="
  M 41.14 36.28
  A 0.34 0.34 0.0 0 1 40.60 36.22
  L 38.61 32.77
  A 0.39 0.38 49.9 0 1 38.64 32.34
  Q 40.29 30.34 40.66 27.59
  A 0.71 0.71 0.0 0 1 41.71 27.07
  L 44.37 28.61
  A 1.40 1.40 0.0 0 1 44.95 30.39
  Q 43.53 33.63 41.14 36.28
  Z"
/>
<path fill="#eff1f6" d="
  M 32.85 36.87
  C 34.02 36.87 35.91 35.39 36.57 34.68
  A 0.62 0.61 -38.9 0 1 37.55 34.78
  L 38.99 37.28
  A 0.76 0.75 -32.8 0 1 38.77 38.27
  C 36.27 40.04 33.06 43.16 33.77 46.51
  A 1.46 1.45 12.0 0 0 34.32 47.35
  Q 37.00 49.32 39.16 47.19
  Q 42.85 43.55 41.78 38.80
  A 0.93 0.93 0.0 0 1 42.09 37.89
  Q 44.38 35.95 46.18 32.95
  A 0.14 0.14 0.0 0 1 46.44 33.03
  Q 46.56 43.44 40.30 50.56
  C 38.06 53.11 35.25 52.00 32.83 52.00
  C 30.41 52.00 27.60 53.10 25.36 50.54
  Q 19.12 43.41 19.26 33.00
  A 0.14 0.14 0.0 0 1 19.52 32.92
  Q 21.32 35.92 23.60 37.87
  A 0.93 0.93 0.0 0 1 23.91 38.78
  Q 22.83 43.53 26.51 47.18
  Q 28.67 49.31 31.35 47.35
  A 1.46 1.45 -11.8 0 0 31.90 46.51
  C 32.62 43.16 29.42 40.03 26.92 38.26
  A 0.76 0.75 32.9 0 1 26.70 37.27
  L 28.15 34.77
  A 0.62 0.61 39.0 0 1 29.13 34.67
  C 29.79 35.38 31.67 36.87 32.85 36.87
  Z"
/>
<path fill="#eff1f6" d="
  M 26.20 39.99
  Q 29.34 42.09 30.18 45.07
  A 1.00 1.00 0.0 0 1 28.71 46.20
  Q 25.48 44.26 25.59 40.30
  A 0.39 0.39 0.0 0 1 26.20 39.99
  Z"
/>
<path fill="#eff1f6" d="
  M 40.10 40.32
  Q 40.21 44.26 37.00 46.19
  A 0.99 0.99 0.0 0 1 35.54 45.07
  Q 36.37 42.10 39.49 40.01
  A 0.39 0.39 0.0 0 1 40.10 40.32
  Z"
/>
</svg>
