<?xml version="1.0" encoding="UTF-8" standalone="no"?>
<!DOCTYPE svg PUBLIC "-//W3C//DTD SVG 1.1//EN" "http://www.w3.org/Graphics/SVG/1.1/DTD/svg11.dtd">
<svg xmlns="http://www.w3.org/2000/svg" version="1.1" viewBox="0.00 0.00 66.00 88.00">
<g stroke-width="2.00" fill="none" stroke-linecap="butt">
<path stroke="#406c74" vector-effect="non-scaling-stroke" d="
  M 33.40 86.70
  Q 33.52 86.70 33.60 86.68
  Q 33.68 86.66 33.77 86.57
  C 47.07 74.15 60.82 56.88 63.83 38.76
  C 67.04 19.47 53.23 2.97 33.75 2.47
  Q 33.65 2.47 33.55 2.47
  Q 33.44 2.47 33.34 2.47
  C 13.86 2.90 -0.01 19.35 3.13 38.65
  C 6.08 56.78 19.76 74.10 33.02 86.57
  Q 33.11 86.66 33.19 86.68
  Q 33.27 86.70 33.40 86.70"
/>
<path stroke="#a3c0c7" vector-effect="non-scaling-stroke" d="
  M 32.92 48.49
  Q 33.82 48.49 34.19 48.49
  A 0.64 0.64 0.0 0 1 34.81 48.97
  L 35.52 51.78
  A 0.60 0.60 0.0 0 0 36.03 52.23
  Q 38.35 52.47 39.04 51.01
  Q 40.83 47.23 43.08 41.56
  A 0.54 0.54 0.0 0 1 44.01 41.42
  L 44.99 42.70
  A 0.68 0.68 0.0 0 0 46.12 42.62
  L 48.15 39.10
  A 0.19 0.17 -50.8 0 0 48.14 38.90
  L 38.93 26.98
  A 0.70 0.70 0.0 0 1 38.88 26.21
  L 40.18 23.95
  A 1.31 1.29 -37.1 0 0 40.32 23.00
  L 38.67 16.46
  A 0.35 0.35 0.0 0 0 38.03 16.37
  L 34.87 21.84
  A 1.71 1.67 60.1 0 0 34.64 22.73
  L 34.69 25.13
  A 0.77 0.77 0.0 0 1 34.00 25.92
  Q 33.47 25.98 32.92 25.98
  Q 32.37 25.98 31.83 25.92
  A 0.77 0.77 0.0 0 1 31.14 25.13
  L 31.19 22.73
  A 1.71 1.67 -60.1 0 0 30.96 21.84
  L 27.80 16.37
  A 0.35 0.35 0.0 0 0 27.16 16.46
  L 25.51 23.00
  A 1.31 1.29 37.1 0 0 25.65 23.95
  L 26.96 26.21
  A 0.70 0.70 0.0 0 1 26.91 26.98
  L 17.70 38.90
  A 0.19 0.17 50.8 0 0 17.69 39.10
  L 19.72 42.62
  A 0.68 0.68 0.0 0 0 20.85 42.70
  L 21.83 41.42
  A 0.54 0.54 0.0 0 1 22.76 41.56
  Q 25.01 47.23 26.80 51.01
  Q 27.49 52.47 29.81 52.23
  A 0.60 0.60 0.0 0 0 30.32 51.78
  L 31.03 48.97
  A 0.64 0.64 0.0 0 1 31.65 48.49
  Q 32.02 48.49 32.92 48.49"
/>
<path stroke="#a3c0c7" vector-effect="non-scaling-stroke" d="
  M 31.10 32.06
  L 28.08 30.74
  A 0.43 0.43 0.0 0 0 27.52 30.96
  L 27.40 31.21
  A 2.39 2.03 -66.3 0 0 28.30 34.22
  L 28.39 34.26
  A 2.39 2.03 -66.3 0 0 31.21 32.89
  L 31.32 32.63
  A 0.43 0.43 0.0 0 0 31.10 32.06"
/>
<path stroke="#a3c0c7" vector-effect="non-scaling-stroke" d="
  M 37.76 30.73
  L 34.66 32.14
  A 0.40 0.40 0.0 0 0 34.46 32.67
  L 34.54 32.85
  A 2.46 2.03 65.6 0 0 37.41 34.25
  L 37.54 34.19
  A 2.46 2.03 65.6 0 0 38.37 31.12
  L 38.29 30.93
  A 0.40 0.40 0.0 0 0 37.76 30.73"
/>
</g>
<path fill="#284a4f" d="
  M 33.78 88.00
  L 33.13 88.00
  Q 16.68 73.40 6.79 53.99
  Q 2.23 45.05 1.61 35.35
  Q 0.99 25.54 5.49 17.57
  C 11.69 6.59 23.86 0.20 36.85 1.51
  C 53.46 3.18 66.10 17.36 65.46 33.99
  Q 65.17 41.66 62.33 49.05
  C 56.69 63.76 45.39 77.48 33.78 88.00
  Z
  M 33.40 86.70
  Q 33.52 86.70 33.60 86.68
  Q 33.68 86.66 33.77 86.57
  C 47.07 74.15 60.82 56.88 63.83 38.76
  C 67.04 19.47 53.23 2.97 33.75 2.47
  Q 33.65 2.47 33.55 2.47
  Q 33.44 2.47 33.34 2.47
  C 13.86 2.90 -0.01 19.35 3.13 38.65
  C 6.08 56.78 19.76 74.10 33.02 86.57
  Q 33.11 86.66 33.19 86.68
  Q 33.27 86.70 33.40 86.70
  Z"
/>
<path fill="#578e98" d="
  M 33.55 2.47
  Q 33.65 2.47 33.75 2.47
  C 53.23 2.97 67.04 19.47 63.83 38.76
  C 60.82 56.88 47.07 74.15 33.77 86.57
  Q 33.68 86.66 33.60 86.68
  Q 33.52 86.70 33.40 86.70
  Q 33.27 86.70 33.19 86.68
  Q 33.11 86.66 33.02 86.57
  C 19.76 74.10 6.08 56.78 3.13 38.65
  C -0.01 19.35 13.86 2.90 33.34 2.47
  Q 33.44 2.47 33.55 2.47
  Z
  M 32.92 48.49
  Q 33.82 48.49 34.19 48.49
  A 0.64 0.64 0.0 0 1 34.81 48.97
  L 35.52 51.78
  A 0.60 0.60 0.0 0 0 36.03 52.23
  Q 38.35 52.47 39.04 51.01
  Q 40.83 47.23 43.08 41.56
  A 0.54 0.54 0.0 0 1 44.01 41.42
  L 44.99 42.70
  A 0.68 0.68 0.0 0 0 46.12 42.62
  L 48.15 39.10
  A 0.19 0.17 -50.8 0 0 48.14 38.90
  L 38.93 26.98
  A 0.70 0.70 0.0 0 1 38.88 26.21
  L 40.18 23.95
  A 1.31 1.29 -37.1 0 0 40.32 23.00
  L 38.67 16.46
  A 0.35 0.35 0.0 0 0 38.03 16.37
  L 34.87 21.84
  A 1.71 1.67 60.1 0 0 34.64 22.73
  L 34.69 25.13
  A 0.77 0.77 0.0 0 1 34.00 25.92
  Q 33.47 25.98 32.92 25.98
  Q 32.37 25.98 31.83 25.92
  A 0.77 0.77 0.0 0 1 31.14 25.13
  L 31.19 22.73
  A 1.71 1.67 -60.1 0 0 30.96 21.84
  L 27.80 16.37
  A 0.35 0.35 0.0 0 0 27.16 16.46
  L 25.51 23.00
  A 1.31 1.29 37.1 0 0 25.65 23.95
  L 26.96 26.21
  A 0.70 0.70 0.0 0 1 26.91 26.98
  L 17.70 38.90
  A 0.19 0.17 50.8 0 0 17.69 39.10
  L 19.72 42.62
  A 0.68 0.68 0.0 0 0 20.85 42.70
  L 21.83 41.42
  A 0.54 0.54 0.0 0 1 22.76 41.56
  Q 25.01 47.23 26.80 51.01
  Q 27.49 52.47 29.81 52.23
  A 0.60 0.60 0.0 0 0 30.32 51.78
  L 31.03 48.97
  A 0.64 0.64 0.0 0 1 31.65 48.49
  Q 32.02 48.49 32.92 48.49
  Z"
/>
<path fill="#eff1f6" d="
  M 32.92 25.98
  Q 33.47 25.98 34.00 25.92
  A 0.77 0.77 0.0 0 0 34.69 25.13
  L 34.64 22.73
  A 1.71 1.67 60.1 0 1 34.87 21.84
  L 38.03 16.37
  A 0.35 0.35 0.0 0 1 38.67 16.46
  L 40.32 23.00
  A 1.31 1.29 -37.1 0 1 40.18 23.95
  L 38.88 26.21
  A 0.70 0.70 0.0 0 0 38.93 26.98
  L 48.14 38.90
  A 0.19 0.17 -50.8 0 1 48.15 39.10
  L 46.12 42.62
  A 0.68 0.68 0.0 0 1 44.99 42.70
  L 44.01 41.42
  A 0.54 0.54 0.0 0 0 43.08 41.56
  Q 40.83 47.23 39.04 51.01
  Q 38.35 52.47 36.03 52.23
  A 0.60 0.60 0.0 0 1 35.52 51.78
  L 34.81 48.97
  A 0.64 0.64 0.0 0 0 34.19 48.49
  Q 33.82 48.49 32.92 48.49
  Q 32.02 48.49 31.65 48.49
  A 0.64 0.64 0.0 0 0 31.03 48.97
  L 30.32 51.78
  A 0.60 0.60 0.0 0 1 29.81 52.23
  Q 27.49 52.47 26.80 51.01
  Q 25.01 47.23 22.76 41.56
  A 0.54 0.54 0.0 0 0 21.83 41.42
  L 20.85 42.70
  A 0.68 0.68 0.0 0 1 19.72 42.62
  L 17.69 39.10
  A 0.19 0.17 50.8 0 1 17.70 38.90
  L 26.91 26.98
  A 0.70 0.70 0.0 0 0 26.96 26.21
  L 25.65 23.95
  A 1.31 1.29 37.1 0 1 25.51 23.00
  L 27.16 16.46
  A 0.35 0.35 0.0 0 1 27.80 16.37
  L 30.96 21.84
  A 1.71 1.67 -60.1 0 1 31.19 22.73
  L 31.14 25.13
  A 0.77 0.77 0.0 0 0 31.83 25.92
  Q 32.37 25.98 32.92 25.98
  Z
  M 31.10 32.06
  L 28.08 30.74
  A 0.43 0.43 0.0 0 0 27.52 30.96
  L 27.40 31.21
  A 2.39 2.03 -66.3 0 0 28.30 34.22
  L 28.39 34.26
  A 2.39 2.03 -66.3 0 0 31.21 32.89
  L 31.32 32.63
  A 0.43 0.43 0.0 0 0 31.10 32.06
  Z
  M 37.76 30.73
  L 34.66 32.14
  A 0.40 0.40 0.0 0 0 34.46 32.67
  L 34.54 32.85
  A 2.46 2.03 65.6 0 0 37.41 34.25
  L 37.54 34.19
  A 2.46 2.03 65.6 0 0 38.37 31.12
  L 38.29 30.93
  A 0.40 0.40 0.0 0 0 37.76 30.73
  Z"
/>
<path fill="#578e98" d="
  M 31.10 32.06
  A 0.43 0.43 0.0 0 1 31.32 32.63
  L 31.21 32.89
  A 2.39 2.03 -66.3 0 1 28.39 34.26
  L 28.30 34.22
  A 2.39 2.03 -66.3 0 1 27.40 31.21
  L 27.52 30.96
  A 0.43 0.43 0.0 0 1 28.08 30.74
  L 31.10 32.06
  Z"
/>
<path fill="#578e98" d="
  M 37.76 30.73
  A 0.40 0.40 0.0 0 1 38.29 30.93
  L 38.37 31.12
  A 2.46 2.03 65.6 0 1 37.54 34.19
  L 37.41 34.25
  A 2.46 2.03 65.6 0 1 34.54 32.85
  L 34.46 32.67
  A 0.40 0.40 0.0 0 1 34.66 32.14
  L 37.76 30.73
  Z"
/>
</svg>
