<?xml version="1.0" encoding="UTF-8" standalone="no"?>
<!DOCTYPE svg PUBLIC "-//W3C//DTD SVG 1.1//EN" "http://www.w3.org/Graphics/SVG/1.1/DTD/svg11.dtd">
<svg xmlns="http://www.w3.org/2000/svg" version="1.1" viewBox="0.00 0.00 66.00 88.00">
<g stroke-width="2.00" fill="none" stroke-linecap="butt">
<path stroke="#7c4b88" vector-effect="non-scaling-stroke" d="
  M 33.41 86.72
  Q 33.52 86.72 33.62 86.69
  Q 33.64 86.69 33.76 86.57
  Q 48.79 72.38 57.64 56.41
  C 64.49 44.04 67.84 27.65 58.64 15.34
  Q 49.75 3.45 34.75 2.54
  Q 33.55 2.47 33.52 2.47
  Q 33.50 2.47 32.30 2.54
  Q 17.30 3.41 8.37 15.27
  C -0.86 27.56 2.45 43.96 9.27 56.35
  Q 18.07 72.34 33.07 86.57
  Q 33.19 86.69 33.20 86.69
  Q 33.31 86.71 33.41 86.72"
/>
<path stroke="#c9abd4" vector-effect="non-scaling-stroke" d="
  M 31.76 24.02
  L 37.40 24.02
  A 2.01 1.98 22.2 0 0 38.81 23.44
  L 42.94 19.30
  A 1.47 1.46 -50.7 0 0 42.72 17.04
  C 39.51 14.91 33.33 16.00 29.45 17.16
  A 1.44 1.43 66.6 0 0 28.62 19.26
  L 31.17 23.68
  A 0.68 0.66 -14.2 0 0 31.76 24.02"
/>
<path stroke="#c9abd4" vector-effect="non-scaling-stroke" d="
  M 31.17 30.40
  Q 31.65 28.66 32.57 27.13
  A 0.47 0.47 0.0 0 0 31.89 26.51
  Q 23.20 32.80 19.83 42.20
  Q 17.79 47.87 22.61 50.07
  Q 32.26 54.48 41.87 49.89
  Q 45.05 48.37 45.89 44.36
  Q 46.41 41.92 44.44 37.46
  C 42.02 31.99 40.87 27.46 36.19 26.32
  A 2.35 2.34 21.6 0 0 33.61 27.43
  L 31.75 30.64
  A 0.32 0.32 0.0 0 1 31.17 30.40"
/>
<path stroke="#c9abd4" vector-effect="non-scaling-stroke" d="
  M 32.62 46.68
  Q 33.62 46.68 33.67 47.71
  A 0.91 0.91 0.0 0 0 35.41 48.05
  L 37.45 43.62
  A 0.26 0.26 0.0 0 1 37.86 43.54
  L 38.04 43.69
  A 0.86 0.86 0.0 0 0 39.13 43.68
  Q 39.36 43.49 39.67 42.84
  A 0.83 0.81 -52.2 0 0 39.57 41.99
  L 35.71 37.06
  A 0.89 0.88 -49.2 0 1 35.64 36.07
  Q 36.52 34.58 35.47 32.08
  A 0.33 0.33 0.0 0 0 34.93 31.99
  Q 33.32 33.69 33.42 35.69
  C 33.45 36.16 33.05 36.29 32.64 36.29
  C 32.22 36.29 31.83 36.16 31.85 35.68
  Q 31.96 33.69 30.36 31.98
  A 0.33 0.33 0.0 0 0 29.82 32.07
  Q 28.76 34.57 29.64 36.06
  A 0.89 0.88 49.3 0 1 29.56 37.05
  L 25.69 41.97
  A 0.83 0.81 52.4 0 0 25.58 42.82
  Q 25.89 43.47 26.12 43.66
  A 0.86 0.86 0.0 0 0 27.21 43.67
  L 27.39 43.52
  A 0.26 0.26 0.0 0 1 27.80 43.60
  L 29.83 48.04
  A 0.91 0.91 0.0 0 0 31.57 47.71
  Q 31.62 46.68 32.62 46.68"
/>
<path stroke="#c9abd4" vector-effect="non-scaling-stroke" d="
  M 30.1376 38.5885
  A 0.88 0.73 -133.2 0 0 30.2079 39.7297
  A 0.88 0.73 -133.2 0 0 31.3424 39.8715
  A 0.88 0.73 -133.2 0 0 31.2721 38.7303
  A 0.88 0.73 -133.2 0 0 30.1376 38.5885"
/>
<path stroke="#c9abd4" vector-effect="non-scaling-stroke" d="
  M 35.2824 38.9418
  A 0.88 0.74 -22.6 0 0 34.1856 38.5968
  A 0.88 0.74 -22.6 0 0 33.6576 39.6182
  A 0.88 0.74 -22.6 0 0 34.7544 39.9632
  A 0.88 0.74 -22.6 0 0 35.2824 38.9418"
/>
</g>
<path fill="#54315e" d="
  M 33.81 88.00
  L 33.14 88.00
  Q 16.03 72.84 6.33 53.19
  Q 2.34 45.13 1.64 35.45
  Q 0.94 25.79 5.38 17.77
  C 11.53 6.67 23.79 0.19 36.85 1.51
  C 53.97 3.24 66.54 18.02 65.42 35.06
  C 64.08 55.30 48.15 74.92 33.81 88.00
  Z
  M 33.41 86.72
  Q 33.52 86.72 33.62 86.69
  Q 33.64 86.69 33.76 86.57
  Q 48.79 72.38 57.64 56.41
  C 64.49 44.04 67.84 27.65 58.64 15.34
  Q 49.75 3.45 34.75 2.54
  Q 33.55 2.47 33.52 2.47
  Q 33.50 2.47 32.30 2.54
  Q 17.30 3.41 8.37 15.27
  C -0.86 27.56 2.45 43.96 9.27 56.35
  Q 18.07 72.34 33.07 86.57
  Q 33.19 86.69 33.20 86.69
  Q 33.31 86.71 33.41 86.72
  Z"
/>
<path fill="#a364b2" d="
  M 33.52 2.47
  Q 33.55 2.47 34.75 2.54
  Q 49.75 3.45 58.64 15.34
  C 67.84 27.65 64.49 44.04 57.64 56.41
  Q 48.79 72.38 33.76 86.57
  Q 33.64 86.69 33.62 86.69
  Q 33.52 86.72 33.41 86.72
  Q 33.31 86.71 33.20 86.69
  Q 33.19 86.69 33.07 86.57
  Q 18.07 72.34 9.27 56.35
  C 2.45 43.96 -0.86 27.56 8.37 15.27
  Q 17.30 3.41 32.30 2.54
  Q 33.50 2.47 33.52 2.47
  Z
  M 31.76 24.02
  L 37.40 24.02
  A 2.01 1.98 22.2 0 0 38.81 23.44
  L 42.94 19.30
  A 1.47 1.46 -50.7 0 0 42.72 17.04
  C 39.51 14.91 33.33 16.00 29.45 17.16
  A 1.44 1.43 66.6 0 0 28.62 19.26
  L 31.17 23.68
  A 0.68 0.66 -14.2 0 0 31.76 24.02
  Z
  M 31.17 30.40
  Q 31.65 28.66 32.57 27.13
  A 0.47 0.47 0.0 0 0 31.89 26.51
  Q 23.20 32.80 19.83 42.20
  Q 17.79 47.87 22.61 50.07
  Q 32.26 54.48 41.87 49.89
  Q 45.05 48.37 45.89 44.36
  Q 46.41 41.92 44.44 37.46
  C 42.02 31.99 40.87 27.46 36.19 26.32
  A 2.35 2.34 21.6 0 0 33.61 27.43
  L 31.75 30.64
  A 0.32 0.32 0.0 0 1 31.17 30.40
  Z"
/>
<path fill="#eff1f6" d="
  M 31.17 23.68
  L 28.62 19.26
  A 1.44 1.43 66.6 0 1 29.45 17.16
  C 33.33 16.00 39.51 14.91 42.72 17.04
  A 1.47 1.46 -50.7 0 1 42.94 19.30
  L 38.81 23.44
  A 2.01 1.98 22.2 0 1 37.40 24.02
  L 31.76 24.02
  A 0.68 0.66 -14.2 0 1 31.17 23.68
  Z"
/>
<path fill="#eff1f6" d="
  M 31.17 30.40
  A 0.32 0.32 0.0 0 0 31.75 30.64
  L 33.61 27.43
  A 2.35 2.34 21.6 0 1 36.19 26.32
  C 40.87 27.46 42.02 31.99 44.44 37.46
  Q 46.41 41.92 45.89 44.36
  Q 45.05 48.37 41.87 49.89
  Q 32.26 54.48 22.61 50.07
  Q 17.79 47.87 19.83 42.20
  Q 23.20 32.80 31.89 26.51
  A 0.47 0.47 0.0 0 1 32.57 27.13
  Q 31.65 28.66 31.17 30.40
  Z
  M 32.62 46.68
  Q 33.62 46.68 33.67 47.71
  A 0.91 0.91 0.0 0 0 35.41 48.05
  L 37.45 43.62
  A 0.26 0.26 0.0 0 1 37.86 43.54
  L 38.04 43.69
  A 0.86 0.86 0.0 0 0 39.13 43.68
  Q 39.36 43.49 39.67 42.84
  A 0.83 0.81 -52.2 0 0 39.57 41.99
  L 35.71 37.06
  A 0.89 0.88 -49.2 0 1 35.64 36.07
  Q 36.52 34.58 35.47 32.08
  A 0.33 0.33 0.0 0 0 34.93 31.99
  Q 33.32 33.69 33.42 35.69
  C 33.45 36.16 33.05 36.29 32.64 36.29
  C 32.22 36.29 31.83 36.16 31.85 35.68
  Q 31.96 33.69 30.36 31.98
  A 0.33 0.33 0.0 0 0 29.82 32.07
  Q 28.76 34.57 29.64 36.06
  A 0.89 0.88 49.3 0 1 29.56 37.05
  L 25.69 41.97
  A 0.83 0.81 52.4 0 0 25.58 42.82
  Q 25.89 43.47 26.12 43.66
  A 0.86 0.86 0.0 0 0 27.21 43.67
  L 27.39 43.52
  A 0.26 0.26 0.0 0 1 27.80 43.60
  L 29.83 48.04
  A 0.91 0.91 0.0 0 0 31.57 47.71
  Q 31.62 46.68 32.62 46.68
  Z"
/>
<path fill="#a364b2" d="
  M 32.64 36.29
  C 33.05 36.29 33.45 36.16 33.42 35.69
  Q 33.32 33.69 34.93 31.99
  A 0.33 0.33 0.0 0 1 35.47 32.08
  Q 36.52 34.58 35.64 36.07
  A 0.89 0.88 -49.2 0 0 35.71 37.06
  L 39.57 41.99
  A 0.83 0.81 -52.2 0 1 39.67 42.84
  Q 39.36 43.49 39.13 43.68
  A 0.86 0.86 0.0 0 1 38.04 43.69
  L 37.86 43.54
  A 0.26 0.26 0.0 0 0 37.45 43.62
  L 35.41 48.05
  A 0.91 0.91 0.0 0 1 33.67 47.71
  Q 33.62 46.68 32.62 46.68
  Q 31.62 46.68 31.57 47.71
  A 0.91 0.91 0.0 0 1 29.83 48.04
  L 27.80 43.60
  A 0.26 0.26 0.0 0 0 27.39 43.52
  L 27.21 43.67
  A 0.86 0.86 0.0 0 1 26.12 43.66
  Q 25.89 43.47 25.58 42.82
  A 0.83 0.81 52.4 0 1 25.69 41.97
  L 29.56 37.05
  A 0.89 0.88 49.3 0 0 29.64 36.06
  Q 28.76 34.57 29.82 32.07
  A 0.33 0.33 0.0 0 1 30.36 31.98
  Q 31.96 33.69 31.85 35.68
  C 31.83 36.16 32.22 36.29 32.64 36.29
  Z
  M 30.1376 38.5885
  A 0.88 0.73 -133.2 0 0 30.2079 39.7297
  A 0.88 0.73 -133.2 0 0 31.3424 39.8715
  A 0.88 0.73 -133.2 0 0 31.2721 38.7303
  A 0.88 0.73 -133.2 0 0 30.1376 38.5885
  Z
  M 35.2824 38.9418
  A 0.88 0.74 -22.6 0 0 34.1856 38.5968
  A 0.88 0.74 -22.6 0 0 33.6576 39.6182
  A 0.88 0.74 -22.6 0 0 34.7544 39.9632
  A 0.88 0.74 -22.6 0 0 35.2824 38.9418
  Z"
/>
<ellipse fill="#eff1f6" cx="0.00" cy="0.00" transform="translate(30.74,39.23) rotate(-133.2)" rx="0.88" ry="0.73"/>
<ellipse fill="#eff1f6" cx="0.00" cy="0.00" transform="translate(34.47,39.28) rotate(-22.6)" rx="0.88" ry="0.74"/>
</svg>
