<?xml version="1.0" encoding="UTF-8" standalone="no"?>
<!DOCTYPE svg PUBLIC "-//W3C//DTD SVG 1.1//EN" "http://www.w3.org/Graphics/SVG/1.1/DTD/svg11.dtd">
<svg xmlns="http://www.w3.org/2000/svg" version="1.1" viewBox="0.00 0.00 66.00 88.00">
<g stroke-width="2.00" fill="none" stroke-linecap="butt">
<path stroke="#30744f" vector-effect="non-scaling-stroke" d="
  M 33.40 86.72
  Q 33.47 86.72 33.62 86.58
  Q 49.75 71.78 58.72 54.24
  C 64.92 42.14 67.10 27.24 59.06 15.93
  C 53.15 7.61 44.01 2.48 33.53 2.46
  C 23.05 2.44 13.89 7.55 7.96 15.85
  C -0.11 27.14 2.02 42.04 8.18 54.16
  Q 17.10 71.73 33.18 86.58
  Q 33.33 86.72 33.40 86.72"
/>
<path stroke="#98c5b0" vector-effect="non-scaling-stroke" d="
  M 28.39 24.17
  Q 31.04 28.47 33.60 30.33
  A 2.19 2.18 63.2 0 0 34.90 30.76
  L 50.64 30.76
  A 0.60 0.60 0.0 0 0 51.24 30.11
  C 50.80 23.85 45.16 19.71 39.23 19.36
  Q 36.18 19.19 29.19 19.24
  C 21.83 19.29 15.62 22.50 14.69 30.12
  A 0.56 0.55 -86.8 0 0 15.24 30.74
  L 21.13 30.74
  A 1.53 1.51 -62.6 0 0 22.02 30.45
  C 24.81 28.39 25.85 26.35 27.56 24.13
  A 0.51 0.50 -42.0 0 1 28.39 24.17"
/>
<path stroke="#98c5b0" vector-effect="non-scaling-stroke" d="
  M 15.05 34.67
  L 16.43 48.89
  A 0.65 0.65 0.0 0 0 17.08 49.49
  L 48.88 49.49
  A 0.68 0.67 -87.2 0 0 49.55 48.88
  L 50.97 34.64
  A 0.59 0.58 -86.9 0 0 50.39 33.99
  L 35.79 33.99
  A 2.22 2.19 -63.0 0 0 34.47 34.43
  Q 30.50 37.38 28.39 41.06
  A 0.51 0.51 0.0 0 1 27.51 41.07
  Q 25.25 37.34 21.21 34.20
  A 0.97 0.94 -24.9 0 0 20.61 33.99
  L 15.66 33.99
  A 0.63 0.61 87.4 0 0 15.05 34.67"
/>
<path stroke="#98c5b0" vector-effect="non-scaling-stroke" d="
  M 36.55 39.22
  Q 35.40 40.37 34.00 41.27
  Q 33.88 41.35 33.88 41.49
  Q 33.88 41.62 34.00 41.70
  Q 35.39 42.61 36.54 43.76
  Q 37.70 44.92 38.60 46.31
  Q 38.68 46.43 38.82 46.43
  Q 38.95 46.43 39.03 46.31
  Q 39.94 44.92 41.09 43.77
  Q 42.25 42.62 43.64 41.71
  Q 43.76 41.63 43.76 41.50
  Q 43.76 41.36 43.64 41.28
  Q 42.25 40.38 41.10 39.22
  Q 39.95 38.07 39.04 36.68
  Q 38.96 36.55 38.83 36.55
  Q 38.69 36.55 38.61 36.67
  Q 37.70 38.06 36.55 39.22"
/>
</g>
<path fill="#1e4f34" d="
  M 33.80 88.00
  L 33.04 88.00
  C 21.95 77.93 11.88 65.48 5.64 51.57
  Q 2.20 43.90 1.60 34.88
  Q 0.99 25.89 5.13 18.25
  C 15.02 -0.01 39.17 -4.30 54.74 9.30
  Q 62.89 16.41 64.92 27.01
  C 69.17 49.28 49.18 73.99 33.80 88.00
  Z
  M 33.40 86.72
  Q 33.47 86.72 33.62 86.58
  Q 49.75 71.78 58.72 54.24
  C 64.92 42.14 67.10 27.24 59.06 15.93
  C 53.15 7.61 44.01 2.48 33.53 2.46
  C 23.05 2.44 13.89 7.55 7.96 15.85
  C -0.11 27.14 2.02 42.04 8.18 54.16
  Q 17.10 71.73 33.18 86.58
  Q 33.33 86.72 33.40 86.72
  Z"
/>
<path fill="#419869" d="
  M 33.53 2.46
  C 44.01 2.48 53.15 7.61 59.06 15.93
  C 67.10 27.24 64.92 42.14 58.72 54.24
  Q 49.75 71.78 33.62 86.58
  Q 33.47 86.72 33.40 86.72
  Q 33.33 86.72 33.18 86.58
  Q 17.10 71.73 8.18 54.16
  C 2.02 42.04 -0.11 27.14 7.96 15.85
  C 13.89 7.55 23.05 2.44 33.53 2.46
  Z
  M 28.39 24.17
  Q 31.04 28.47 33.60 30.33
  A 2.19 2.18 63.2 0 0 34.90 30.76
  L 50.64 30.76
  A 0.60 0.60 0.0 0 0 51.24 30.11
  C 50.80 23.85 45.16 19.71 39.23 19.36
  Q 36.18 19.19 29.19 19.24
  C 21.83 19.29 15.62 22.50 14.69 30.12
  A 0.56 0.55 -86.8 0 0 15.24 30.74
  L 21.13 30.74
  A 1.53 1.51 -62.6 0 0 22.02 30.45
  C 24.81 28.39 25.85 26.35 27.56 24.13
  A 0.51 0.50 -42.0 0 1 28.39 24.17
  Z
  M 15.05 34.67
  L 16.43 48.89
  A 0.65 0.65 0.0 0 0 17.08 49.49
  L 48.88 49.49
  A 0.68 0.67 -87.2 0 0 49.55 48.88
  L 50.97 34.64
  A 0.59 0.58 -86.9 0 0 50.39 33.99
  L 35.79 33.99
  A 2.22 2.19 -63.0 0 0 34.47 34.43
  Q 30.50 37.38 28.39 41.06
  A 0.51 0.51 0.0 0 1 27.51 41.07
  Q 25.25 37.34 21.21 34.20
  A 0.97 0.94 -24.9 0 0 20.61 33.99
  L 15.66 33.99
  A 0.63 0.61 87.4 0 0 15.05 34.67
  Z"
/>
<path fill="#eff1f6" d="
  M 27.56 24.13
  C 25.85 26.35 24.81 28.39 22.02 30.45
  A 1.53 1.51 -62.6 0 1 21.13 30.74
  L 15.24 30.74
  A 0.56 0.55 -86.8 0 1 14.69 30.12
  C 15.62 22.50 21.83 19.29 29.19 19.24
  Q 36.18 19.19 39.23 19.36
  C 45.16 19.71 50.80 23.85 51.24 30.11
  A 0.60 0.60 0.0 0 1 50.64 30.76
  L 34.90 30.76
  A 2.19 2.18 63.2 0 1 33.60 30.33
  Q 31.04 28.47 28.39 24.17
  A 0.51 0.50 -42.0 0 0 27.56 24.13
  Z"
/>
<path fill="#eff1f6" d="
  M 15.66 33.99
  L 20.61 33.99
  A 0.97 0.94 -24.9 0 1 21.21 34.20
  Q 25.25 37.34 27.51 41.07
  A 0.51 0.51 0.0 0 0 28.39 41.06
  Q 30.50 37.38 34.47 34.43
  A 2.22 2.19 -63.0 0 1 35.79 33.99
  L 50.39 33.99
  A 0.59 0.58 -86.9 0 1 50.97 34.64
  L 49.55 48.88
  A 0.68 0.67 -87.2 0 1 48.88 49.49
  L 17.08 49.49
  A 0.65 0.65 0.0 0 1 16.43 48.89
  L 15.05 34.67
  A 0.63 0.61 87.4 0 1 15.66 33.99
  Z
  M 36.55 39.22
  Q 35.40 40.37 34.00 41.27
  Q 33.88 41.35 33.88 41.49
  Q 33.88 41.62 34.00 41.70
  Q 35.39 42.61 36.54 43.76
  Q 37.70 44.92 38.60 46.31
  Q 38.68 46.43 38.82 46.43
  Q 38.95 46.43 39.03 46.31
  Q 39.94 44.92 41.09 43.77
  Q 42.25 42.62 43.64 41.71
  Q 43.76 41.63 43.76 41.50
  Q 43.76 41.36 43.64 41.28
  Q 42.25 40.38 41.10 39.22
  Q 39.95 38.07 39.04 36.68
  Q 38.96 36.55 38.83 36.55
  Q 38.69 36.55 38.61 36.67
  Q 37.70 38.06 36.55 39.22
  Z"
/>
<path fill="#419869" d="
  M 38.83 36.55
  Q 38.96 36.55 39.04 36.68
  Q 39.95 38.07 41.10 39.22
  Q 42.25 40.38 43.64 41.28
  Q 43.76 41.36 43.76 41.50
  Q 43.76 41.63 43.64 41.71
  Q 42.25 42.62 41.09 43.77
  Q 39.94 44.92 39.03 46.31
  Q 38.95 46.43 38.82 46.43
  Q 38.68 46.43 38.60 46.31
  Q 37.70 44.92 36.54 43.76
  Q 35.39 42.61 34.00 41.70
  Q 33.88 41.62 33.88 41.49
  Q 33.88 41.35 34.00 41.27
  Q 35.40 40.37 36.55 39.22
  Q 37.70 38.06 38.61 36.67
  Q 38.69 36.55 38.83 36.55
  Z"
/>
</svg>
