<?xml version="1.0" encoding="UTF-8" standalone="no"?>
<!DOCTYPE svg PUBLIC "-//W3C//DTD SVG 1.1//EN" "http://www.w3.org/Graphics/SVG/1.1/DTD/svg11.dtd">
<svg xmlns="http://www.w3.org/2000/svg" version="1.1" viewBox="0.00 0.00 66.00 88.00">
<g stroke-width="2.00" fill="none" stroke-linecap="butt">
<path stroke="#293748" vector-effect="non-scaling-stroke" d="
  M 33.43 86.59
  C 34.26 86.60 33.55 86.66 33.77 86.46
  Q 48.27 73.18 57.56 56.52
  C 65.52 42.26 67.93 24.70 55.88 12.10
  C 50.07 6.03 42.14 2.53 33.50 2.52
  C 24.86 2.51 16.92 6.00 11.10 12.06
  C -0.97 24.64 1.41 42.21 9.34 56.48
  Q 18.61 73.16 33.08 86.45
  C 33.30 86.66 32.60 86.59 33.43 86.59"
/>
<path stroke="#939daa" vector-effect="non-scaling-stroke" d="
  M 32.88 52.13
  Q 32.89 52.13 32.91 52.13
  A 0.10 0.06 -57.7 0 0 32.97 52.10
  Q 39.77 44.67 43.57 36.61
  C 46.37 30.68 46.88 25.08 42.47 20.08
  C 39.95 17.22 36.86 16.01 33.04 15.99
  C 29.22 15.97 26.12 17.16 23.57 19.99
  C 19.12 24.95 19.58 30.56 22.32 36.51
  Q 26.05 44.61 32.78 52.10
  A 0.10 0.06 58.2 0 0 32.84 52.13
  Q 32.86 52.13 32.88 52.13"
/>
<path stroke="#939daa" vector-effect="non-scaling-stroke" d="
  M 37.54 28.51
  A 4.55 4.55 0.0 0 0 32.99 23.96
  A 4.55 4.55 0.0 0 0 28.44 28.51
  A 4.55 4.55 0.0 0 0 32.99 33.06
  A 4.55 4.55 0.0 0 0 37.54 28.51"
/>
</g>
<path fill="#1b2631" d="
  M 33.77 88.00
  L 33.04 88.00
  C 16.84 73.33 -5.92 44.66 3.78 21.10
  Q 7.25 12.67 14.88 7.20
  C 27.05 -1.53 44.92 -0.53 55.89 10.33
  Q 68.39 22.72 64.57 41.41
  Q 62.95 49.36 58.00 57.99
  Q 48.35 74.84 33.77 88.00
  Z
  M 33.43 86.59
  C 34.26 86.60 33.55 86.66 33.77 86.46
  Q 48.27 73.18 57.56 56.52
  C 65.52 42.26 67.93 24.70 55.88 12.10
  C 50.07 6.03 42.14 2.53 33.50 2.52
  C 24.86 2.51 16.92 6.00 11.10 12.06
  C -0.97 24.64 1.41 42.21 9.34 56.48
  Q 18.61 73.16 33.08 86.45
  C 33.30 86.66 32.60 86.59 33.43 86.59
  Z"
/>
<path fill="#37485e" d="
  M 33.50 2.52
  C 42.14 2.53 50.07 6.03 55.88 12.10
  C 67.93 24.70 65.52 42.26 57.56 56.52
  Q 48.27 73.18 33.77 86.46
  C 33.55 86.66 34.26 86.60 33.43 86.59
  C 32.60 86.59 33.30 86.66 33.08 86.45
  Q 18.61 73.16 9.34 56.48
  C 1.41 42.21 -0.97 24.64 11.10 12.06
  C 16.92 6.00 24.86 2.51 33.50 2.52
  Z
  M 32.88 52.13
  Q 32.89 52.13 32.91 52.13
  A 0.10 0.06 -57.7 0 0 32.97 52.10
  Q 39.77 44.67 43.57 36.61
  C 46.37 30.68 46.88 25.08 42.47 20.08
  C 39.95 17.22 36.86 16.01 33.04 15.99
  C 29.22 15.97 26.12 17.16 23.57 19.99
  C 19.12 24.95 19.58 30.56 22.32 36.51
  Q 26.05 44.61 32.78 52.10
  A 0.10 0.06 58.2 0 0 32.84 52.13
  Q 32.86 52.13 32.88 52.13
  Z"
/>
<path fill="#eff1f6" d="
  M 33.04 15.99
  C 36.86 16.01 39.95 17.22 42.47 20.08
  C 46.88 25.08 46.37 30.68 43.57 36.61
  Q 39.77 44.67 32.97 52.10
  A 0.10 0.06 -57.7 0 1 32.91 52.13
  Q 32.89 52.13 32.88 52.13
  Q 32.86 52.13 32.84 52.13
  A 0.10 0.06 58.2 0 1 32.78 52.10
  Q 26.05 44.61 22.32 36.51
  C 19.58 30.56 19.12 24.95 23.57 19.99
  C 26.12 17.16 29.22 15.97 33.04 15.99
  Z
  M 37.54 28.51
  A 4.55 4.55 0.0 0 0 32.99 23.96
  A 4.55 4.55 0.0 0 0 28.44 28.51
  A 4.55 4.55 0.0 0 0 32.99 33.06
  A 4.55 4.55 0.0 0 0 37.54 28.51
  Z"
/>
<circle fill="#37485e" cx="32.99" cy="28.51" r="4.55"/>
</svg>
