<?xml version="1.0" encoding="UTF-8" standalone="no"?>
<!DOCTYPE svg PUBLIC "-//W3C//DTD SVG 1.1//EN" "http://www.w3.org/Graphics/SVG/1.1/DTD/svg11.dtd">
<svg xmlns="http://www.w3.org/2000/svg" version="1.1" viewBox="0.00 0.00 66.00 88.00">
<g stroke-width="2.00" fill="none" stroke-linecap="butt">
<path stroke="#9d3f3d" vector-effect="non-scaling-stroke" d="
  M 33.40 86.71
  Q 33.52 86.71 33.62 86.69
  Q 33.65 86.68 33.78 86.56
  C 44.47 76.49 54.22 64.58 60.24 51.01
  C 65.97 38.09 66.42 22.97 56.07 12.22
  C 50.16 6.10 42.21 2.48 33.54 2.46
  C 24.87 2.45 16.90 6.04 10.98 12.15
  C 0.59 22.87 0.99 37.99 6.68 50.93
  C 12.66 64.52 22.37 76.46 33.03 86.56
  Q 33.16 86.68 33.19 86.69
  Q 33.29 86.71 33.40 86.71"
/>
<path stroke="#dfa3a5" vector-effect="non-scaling-stroke" d="
  M 33.70 19.75
  A 0.22 0.22 0.0 0 0 33.38 19.99
  Q 33.85 21.75 31.61 22.49
  A 0.89 0.88 76.1 0 0 31.02 23.47
  Q 31.14 24.27 32.32 25.02
  Q 32.91 25.40 32.94 25.73
  Q 32.99 26.15 32.92 26.96
  A 0.05 0.05 0.0 0 1 32.83 26.99
  L 28.68 22.30
  A 0.83 0.83 0.0 0 1 28.56 21.38
  Q 29.02 20.49 29.69 20.07
  A 0.90 0.89 -15.3 0 0 30.13 19.30
  Q 30.15 18.45 31.24 17.43
  A 0.98 0.98 0.0 0 0 30.32 15.76
  C 23.79 17.45 20.24 23.75 20.79 30.20
  A 1.01 1.00 19.0 0 0 21.12 30.87
  L 27.18 36.32
  A 1.64 1.63 49.9 0 0 29.14 36.50
  Q 32.08 34.67 33.03 34.67
  A 1.80 1.78 -29.4 0 1 33.87 34.90
  L 37.06 36.72
  A 1.28 1.28 0.0 0 0 38.55 36.57
  L 44.83 31.01
  A 1.18 1.17 71.9 0 0 45.22 30.23
  Q 46.10 20.28 36.25 15.83
  A 1.36 1.35 27.0 0 0 34.52 16.39
  L 34.29 16.79
  A 1.25 1.25 0.0 0 0 34.74 18.50
  L 37.35 20.00
  A 0.55 0.55 0.0 0 1 37.33 20.96
  Q 35.71 21.83 34.75 22.94
  A 0.28 0.27 41.4 0 1 34.36 22.96
  L 34.35 22.95
  A 0.21 0.21 0.0 0 1 34.34 22.67
  L 35.52 21.29
  A 0.36 0.36 0.0 0 0 35.43 20.75
  L 33.70 19.75"
/>
<path stroke="#dfa3a5" vector-effect="non-scaling-stroke" d="
  M 29.71 21.27
  A 0.31 0.31 0.0 0 0 29.76 21.88
  Q 31.44 21.92 31.91 20.69
  Q 32.17 19.98 31.74 19.37
  A 0.51 0.50 -73.6 0 0 30.86 19.85
  Q 31.29 20.96 29.71 21.27"
/>
<path stroke="#dfa3a5" vector-effect="non-scaling-stroke" d="
  M 46.66 34.54
  Q 44.98 35.23 44.39 36.45
  Q 42.79 39.77 40.62 41.00
  A 0.30 0.28 -36.3 0 1 40.27 40.96
  L 40.04 40.73
  A 0.03 0.02 -58.3 0 1 40.04 40.70
  L 43.10 36.81
  A 0.13 0.13 0.0 0 0 43.09 36.63
  L 42.90 36.44
  A 0.28 0.27 43.0 0 0 42.50 36.45
  Q 40.90 38.34 38.88 39.69
  Q 38.34 40.05 38.02 39.92
  C 37.22 39.59 37.06 38.85 36.07 38.73
  Q 34.81 38.59 33.63 37.59
  A 1.03 1.03 0.0 0 0 32.28 37.60
  Q 31.01 38.74 29.71 38.75
  Q 29.12 38.75 28.72 39.28
  Q 28.14 40.07 27.24 39.88
  A 1.11 1.02 -16.2 0 1 26.80 39.66
  L 23.26 36.52
  A 0.23 0.23 0.0 0 0 23.05 36.47
  L 22.86 36.52
  A 0.31 0.31 0.0 0 0 22.82 36.94
  Q 24.55 39.17 26.48 41.20
  A 0.97 0.96 50.0 0 0 27.75 41.32
  Q 28.51 40.77 29.29 41.17
  A 0.47 0.41 8.7 0 1 29.50 41.42
  L 29.96 42.85
  A 0.36 0.36 0.0 0 0 30.66 42.74
  L 30.66 40.76
  A 0.91 0.90 -21.2 0 1 30.96 40.09
  L 31.41 39.69
  A 0.51 0.51 0.0 0 1 32.26 40.07
  L 32.26 44.54
  A 0.36 0.36 0.0 0 1 31.71 44.84
  Q 31.17 44.51 30.85 43.82
  A 0.79 0.79 0.0 0 0 30.00 43.37
  Q 28.82 43.56 27.90 42.08
  Q 27.69 41.74 27.35 41.72
  Q 27.03 41.71 26.86 42.08
  Q 26.64 42.57 26.18 42.63
  Q 25.55 42.71 24.06 41.67
  A 0.23 0.22 61.6 0 1 24.18 41.26
  Q 24.22 41.26 25.04 41.96
  A 0.41 0.41 0.0 0 0 25.59 41.94
  L 25.82 41.70
  A 0.46 0.45 35.4 0 0 25.69 40.97
  Q 22.63 39.51 21.45 36.31
  Q 21.04 35.20 18.90 34.26
  A 0.23 0.23 0.0 0 0 18.60 34.58
  Q 18.66 34.70 18.98 34.81
  C 21.18 35.60 21.04 39.37 21.66 41.28
  Q 23.11 45.73 27.25 44.34
  A 0.27 0.27 0.0 0 1 27.50 44.80
  Q 25.53 46.37 23.64 46.14
  A 0.27 0.27 0.0 0 0 23.49 46.65
  Q 25.90 47.88 26.41 50.70
  A 0.22 0.22 0.0 0 0 26.84 50.69
  Q 27.11 48.99 26.16 47.41
  A 0.25 0.25 0.0 0 1 26.37 47.03
  L 26.86 47.03
  A 0.06 0.05 -5.7 0 1 26.92 47.07
  C 28.14 49.97 30.48 49.41 32.14 51.52
  A 0.25 0.25 0.0 0 0 32.57 51.28
  C 31.74 49.10 29.72 47.90 29.05 45.47
  A 0.31 0.31 0.0 0 1 29.53 45.13
  L 32.63 47.28
  A 1.08 1.07 41.8 0 0 33.95 47.21
  L 36.19 45.22
  A 0.48 0.47 74.9 0 1 36.97 45.67
  Q 36.65 47.31 34.59 49.14
  A 2.52 2.51 -10.1 0 0 33.92 50.10
  L 33.52 51.16
  A 0.30 0.30 0.0 0 0 34.04 51.44
  Q 35.30 49.67 37.09 49.40
  A 1.22 1.22 0.0 0 0 37.95 48.84
  L 39.07 47.01
  A 0.14 0.14 0.0 0 1 39.29 46.99
  L 39.62 47.32
  A 0.31 0.29 36.8 0 1 39.68 47.67
  Q 38.65 49.65 39.25 50.62
  A 0.27 0.26 -59.6 0 0 39.74 50.49
  Q 39.86 48.30 42.33 46.84
  A 0.33 0.33 0.0 0 0 42.17 46.22
  Q 40.41 46.17 38.65 44.99
  A 0.37 0.37 0.0 0 1 38.96 44.33
  C 44.33 45.93 44.58 40.32 45.32 36.83
  A 2.53 2.47 -15.3 0 1 46.11 35.48
  L 46.84 34.84
  A 0.18 0.18 0.0 0 0 46.66 34.54"
/>
<path stroke="#dfa3a5" vector-effect="non-scaling-stroke" d="
  M 29.39 28.50
  A 2.25 2.25 0.0 0 0 27.14 26.25
  A 2.25 2.25 0.0 0 0 24.89 28.50
  A 2.25 2.25 0.0 0 0 27.14 30.75
  A 2.25 2.25 0.0 0 0 29.39 28.50"
/>
<path stroke="#dfa3a5" vector-effect="non-scaling-stroke" d="
  M 41.36 28.45
  A 2.32 2.32 0.0 0 0 39.04 26.13
  A 2.32 2.32 0.0 0 0 36.72 28.45
  A 2.32 2.32 0.0 0 0 39.04 30.77
  A 2.32 2.32 0.0 0 0 41.36 28.45"
/>
<path stroke="#dfa3a5" vector-effect="non-scaling-stroke" d="
  M 33.63 40.11
  L 33.63 45.05
  A 0.20 0.20 0.0 0 0 33.97 45.19
  L 35.40 43.77
  A 0.86 0.84 -67.2 0 1 36.00 43.52
  Q 37.34 43.52 38.46 41.75
  A 0.38 0.38 0.0 0 0 38.14 41.17
  L 36.65 41.17
  A 0.34 0.34 0.0 0 0 36.32 41.61
  Q 36.50 42.21 35.68 43.12
  A 0.29 0.29 0.0 0 1 35.18 42.95
  Q 35.08 42.00 35.25 41.32
  A 1.28 1.28 0.0 0 0 34.91 40.11
  L 34.54 39.74
  A 0.54 0.53 22.6 0 0 33.63 40.11"
/>
<path stroke="#dfa3a5" vector-effect="non-scaling-stroke" d="
  M 41.45 41.25
  Q 40.44 42.11 39.57 41.66
  A 0.24 0.24 0.0 0 0 39.25 42.00
  Q 39.83 42.99 40.75 42.55
  Q 41.81 42.03 41.92 41.53
  A 0.29 0.29 0.0 0 0 41.45 41.25"
/>
</g>
<path fill="#6b2927" d="
  M 33.79 88.00
  L 33.03 88.00
  C 16.44 72.91 -7.33 43.00 4.76 18.93
  C 16.90 -5.26 51.84 -4.18 62.90 20.37
  C 66.90 29.25 65.83 40.14 62.33 49.06
  C 56.53 63.85 45.51 77.38 33.79 88.00
  Z
  M 33.40 86.71
  Q 33.52 86.71 33.62 86.69
  Q 33.65 86.68 33.78 86.56
  C 44.47 76.49 54.22 64.58 60.24 51.01
  C 65.97 38.09 66.42 22.97 56.07 12.22
  C 50.16 6.10 42.21 2.48 33.54 2.46
  C 24.87 2.45 16.90 6.04 10.98 12.15
  C 0.59 22.87 0.99 37.99 6.68 50.93
  C 12.66 64.52 22.37 76.46 33.03 86.56
  Q 33.16 86.68 33.19 86.69
  Q 33.29 86.71 33.40 86.71
  Z"
/>
<path fill="#ce5553" d="
  M 33.54 2.46
  C 42.21 2.48 50.16 6.10 56.07 12.22
  C 66.42 22.97 65.97 38.09 60.24 51.01
  C 54.22 64.58 44.47 76.49 33.78 86.56
  Q 33.65 86.68 33.62 86.69
  Q 33.52 86.71 33.40 86.71
  Q 33.29 86.71 33.19 86.69
  Q 33.16 86.68 33.03 86.56
  C 22.37 76.46 12.66 64.52 6.68 50.93
  C 0.99 37.99 0.59 22.87 10.98 12.15
  C 16.90 6.04 24.87 2.45 33.54 2.46
  Z
  M 33.70 19.75
  A 0.22 0.22 0.0 0 0 33.38 19.99
  Q 33.85 21.75 31.61 22.49
  A 0.89 0.88 76.1 0 0 31.02 23.47
  Q 31.14 24.27 32.32 25.02
  Q 32.91 25.40 32.94 25.73
  Q 32.99 26.15 32.92 26.96
  A 0.05 0.05 0.0 0 1 32.83 26.99
  L 28.68 22.30
  A 0.83 0.83 0.0 0 1 28.56 21.38
  Q 29.02 20.49 29.69 20.07
  A 0.90 0.89 -15.3 0 0 30.13 19.30
  Q 30.15 18.45 31.24 17.43
  A 0.98 0.98 0.0 0 0 30.32 15.76
  C 23.79 17.45 20.24 23.75 20.79 30.20
  A 1.01 1.00 19.0 0 0 21.12 30.87
  L 27.18 36.32
  A 1.64 1.63 49.9 0 0 29.14 36.50
  Q 32.08 34.67 33.03 34.67
  A 1.80 1.78 -29.4 0 1 33.87 34.90
  L 37.06 36.72
  A 1.28 1.28 0.0 0 0 38.55 36.57
  L 44.83 31.01
  A 1.18 1.17 71.9 0 0 45.22 30.23
  Q 46.10 20.28 36.25 15.83
  A 1.36 1.35 27.0 0 0 34.52 16.39
  L 34.29 16.79
  A 1.25 1.25 0.0 0 0 34.74 18.50
  L 37.35 20.00
  A 0.55 0.55 0.0 0 1 37.33 20.96
  Q 35.71 21.83 34.75 22.94
  A 0.28 0.27 41.4 0 1 34.36 22.96
  L 34.35 22.95
  A 0.21 0.21 0.0 0 1 34.34 22.67
  L 35.52 21.29
  A 0.36 0.36 0.0 0 0 35.43 20.75
  L 33.70 19.75
  Z
  M 29.71 21.27
  A 0.31 0.31 0.0 0 0 29.76 21.88
  Q 31.44 21.92 31.91 20.69
  Q 32.17 19.98 31.74 19.37
  A 0.51 0.50 -73.6 0 0 30.86 19.85
  Q 31.29 20.96 29.71 21.27
  Z
  M 46.66 34.54
  Q 44.98 35.23 44.39 36.45
  Q 42.79 39.77 40.62 41.00
  A 0.30 0.28 -36.3 0 1 40.27 40.96
  L 40.04 40.73
  A 0.03 0.02 -58.3 0 1 40.04 40.70
  L 43.10 36.81
  A 0.13 0.13 0.0 0 0 43.09 36.63
  L 42.90 36.44
  A 0.28 0.27 43.0 0 0 42.50 36.45
  Q 40.90 38.34 38.88 39.69
  Q 38.34 40.05 38.02 39.92
  C 37.22 39.59 37.06 38.85 36.07 38.73
  Q 34.81 38.59 33.63 37.59
  A 1.03 1.03 0.0 0 0 32.28 37.60
  Q 31.01 38.74 29.71 38.75
  Q 29.12 38.75 28.72 39.28
  Q 28.14 40.07 27.24 39.88
  A 1.11 1.02 -16.2 0 1 26.80 39.66
  L 23.26 36.52
  A 0.23 0.23 0.0 0 0 23.05 36.47
  L 22.86 36.52
  A 0.31 0.31 0.0 0 0 22.82 36.94
  Q 24.55 39.17 26.48 41.20
  A 0.97 0.96 50.0 0 0 27.75 41.32
  Q 28.51 40.77 29.29 41.17
  A 0.47 0.41 8.7 0 1 29.50 41.42
  L 29.96 42.85
  A 0.36 0.36 0.0 0 0 30.66 42.74
  L 30.66 40.76
  A 0.91 0.90 -21.2 0 1 30.96 40.09
  L 31.41 39.69
  A 0.51 0.51 0.0 0 1 32.26 40.07
  L 32.26 44.54
  A 0.36 0.36 0.0 0 1 31.71 44.84
  Q 31.17 44.51 30.85 43.82
  A 0.79 0.79 0.0 0 0 30.00 43.37
  Q 28.82 43.56 27.90 42.08
  Q 27.69 41.74 27.35 41.72
  Q 27.03 41.71 26.86 42.08
  Q 26.64 42.57 26.18 42.63
  Q 25.55 42.71 24.06 41.67
  A 0.23 0.22 61.6 0 1 24.18 41.26
  Q 24.22 41.26 25.04 41.96
  A 0.41 0.41 0.0 0 0 25.59 41.94
  L 25.82 41.70
  A 0.46 0.45 35.4 0 0 25.69 40.97
  Q 22.63 39.51 21.45 36.31
  Q 21.04 35.20 18.90 34.26
  A 0.23 0.23 0.0 0 0 18.60 34.58
  Q 18.66 34.70 18.98 34.81
  C 21.18 35.60 21.04 39.37 21.66 41.28
  Q 23.11 45.73 27.25 44.34
  A 0.27 0.27 0.0 0 1 27.50 44.80
  Q 25.53 46.37 23.64 46.14
  A 0.27 0.27 0.0 0 0 23.49 46.65
  Q 25.90 47.88 26.41 50.70
  A 0.22 0.22 0.0 0 0 26.84 50.69
  Q 27.11 48.99 26.16 47.41
  A 0.25 0.25 0.0 0 1 26.37 47.03
  L 26.86 47.03
  A 0.06 0.05 -5.7 0 1 26.92 47.07
  C 28.14 49.97 30.48 49.41 32.14 51.52
  A 0.25 0.25 0.0 0 0 32.57 51.28
  C 31.74 49.10 29.72 47.90 29.05 45.47
  A 0.31 0.31 0.0 0 1 29.53 45.13
  L 32.63 47.28
  A 1.08 1.07 41.8 0 0 33.95 47.21
  L 36.19 45.22
  A 0.48 0.47 74.9 0 1 36.97 45.67
  Q 36.65 47.31 34.59 49.14
  A 2.52 2.51 -10.1 0 0 33.92 50.10
  L 33.52 51.16
  A 0.30 0.30 0.0 0 0 34.04 51.44
  Q 35.30 49.67 37.09 49.40
  A 1.22 1.22 0.0 0 0 37.95 48.84
  L 39.07 47.01
  A 0.14 0.14 0.0 0 1 39.29 46.99
  L 39.62 47.32
  A 0.31 0.29 36.8 0 1 39.68 47.67
  Q 38.65 49.65 39.25 50.62
  A 0.27 0.26 -59.6 0 0 39.74 50.49
  Q 39.86 48.30 42.33 46.84
  A 0.33 0.33 0.0 0 0 42.17 46.22
  Q 40.41 46.17 38.65 44.99
  A 0.37 0.37 0.0 0 1 38.96 44.33
  C 44.33 45.93 44.58 40.32 45.32 36.83
  A 2.53 2.47 -15.3 0 1 46.11 35.48
  L 46.84 34.84
  A 0.18 0.18 0.0 0 0 46.66 34.54
  Z"
/>
<path fill="#eff1f6" d="
  M 35.52 21.29
  L 34.34 22.67
  A 0.21 0.21 0.0 0 0 34.35 22.95
  L 34.36 22.96
  A 0.28 0.27 41.4 0 0 34.75 22.94
  Q 35.71 21.83 37.33 20.96
  A 0.55 0.55 0.0 0 0 37.35 20.00
  L 34.74 18.50
  A 1.25 1.25 0.0 0 1 34.29 16.79
  L 34.52 16.39
  A 1.36 1.35 27.0 0 1 36.25 15.83
  Q 46.10 20.28 45.22 30.23
  A 1.18 1.17 71.9 0 1 44.83 31.01
  L 38.55 36.57
  A 1.28 1.28 0.0 0 1 37.06 36.72
  L 33.87 34.90
  A 1.80 1.78 -29.4 0 0 33.03 34.67
  Q 32.08 34.67 29.14 36.50
  A 1.64 1.63 49.9 0 1 27.18 36.32
  L 21.12 30.87
  A 1.01 1.00 19.0 0 1 20.79 30.20
  C 20.24 23.75 23.79 17.45 30.32 15.76
  A 0.98 0.98 0.0 0 1 31.24 17.43
  Q 30.15 18.45 30.13 19.30
  A 0.90 0.89 -15.3 0 1 29.69 20.07
  Q 29.02 20.49 28.56 21.38
  A 0.83 0.83 0.0 0 0 28.68 22.30
  L 32.83 26.99
  A 0.05 0.05 0.0 0 0 32.92 26.96
  Q 32.99 26.15 32.94 25.73
  Q 32.91 25.40 32.32 25.02
  Q 31.14 24.27 31.02 23.47
  A 0.89 0.88 76.1 0 1 31.61 22.49
  Q 33.85 21.75 33.38 19.99
  A 0.22 0.22 0.0 0 1 33.70 19.75
  L 35.43 20.75
  A 0.36 0.36 0.0 0 1 35.52 21.29
  Z
  M 29.39 28.50
  A 2.25 2.25 0.0 0 0 27.14 26.25
  A 2.25 2.25 0.0 0 0 24.89 28.50
  A 2.25 2.25 0.0 0 0 27.14 30.75
  A 2.25 2.25 0.0 0 0 29.39 28.50
  Z
  M 41.36 28.45
  A 2.32 2.32 0.0 0 0 39.04 26.13
  A 2.32 2.32 0.0 0 0 36.72 28.45
  A 2.32 2.32 0.0 0 0 39.04 30.77
  A 2.32 2.32 0.0 0 0 41.36 28.45
  Z"
/>
<path fill="#eff1f6" d="
  M 29.71 21.27
  Q 31.29 20.96 30.86 19.85
  A 0.51 0.50 -73.6 0 1 31.74 19.37
  Q 32.17 19.98 31.91 20.69
  Q 31.44 21.92 29.76 21.88
  A 0.31 0.31 0.0 0 1 29.71 21.27
  Z"
/>
<circle fill="#ce5553" cx="27.14" cy="28.50" r="2.25"/>
<circle fill="#ce5553" cx="39.04" cy="28.45" r="2.32"/>
<path fill="#eff1f6" d="
  M 46.84 34.84
  L 46.11 35.48
  A 2.53 2.47 -15.3 0 0 45.32 36.83
  C 44.58 40.32 44.33 45.93 38.96 44.33
  A 0.37 0.37 0.0 0 0 38.65 44.99
  Q 40.41 46.17 42.17 46.22
  A 0.33 0.33 0.0 0 1 42.33 46.84
  Q 39.86 48.30 39.74 50.49
  A 0.27 0.26 -59.6 0 1 39.25 50.62
  Q 38.65 49.65 39.68 47.67
  A 0.31 0.29 36.8 0 0 39.62 47.32
  L 39.29 46.99
  A 0.14 0.14 0.0 0 0 39.07 47.01
  L 37.95 48.84
  A 1.22 1.22 0.0 0 1 37.09 49.40
  Q 35.30 49.67 34.04 51.44
  A 0.30 0.30 0.0 0 1 33.52 51.16
  L 33.92 50.10
  A 2.52 2.51 -10.1 0 1 34.59 49.14
  Q 36.65 47.31 36.97 45.67
  A 0.48 0.47 74.9 0 0 36.19 45.22
  L 33.95 47.21
  A 1.08 1.07 41.8 0 1 32.63 47.28
  L 29.53 45.13
  A 0.31 0.31 0.0 0 0 29.05 45.47
  C 29.72 47.90 31.74 49.10 32.57 51.28
  A 0.25 0.25 0.0 0 1 32.14 51.52
  C 30.48 49.41 28.14 49.97 26.92 47.07
  A 0.06 0.05 -5.7 0 0 26.86 47.03
  L 26.37 47.03
  A 0.25 0.25 0.0 0 0 26.16 47.41
  Q 27.11 48.99 26.84 50.69
  A 0.22 0.22 0.0 0 1 26.41 50.70
  Q 25.90 47.88 23.49 46.65
  A 0.27 0.27 0.0 0 1 23.64 46.14
  Q 25.53 46.37 27.50 44.80
  A 0.27 0.27 0.0 0 0 27.25 44.34
  Q 23.11 45.73 21.66 41.28
  C 21.04 39.37 21.18 35.60 18.98 34.81
  Q 18.66 34.70 18.60 34.58
  A 0.23 0.23 0.0 0 1 18.90 34.26
  Q 21.04 35.20 21.45 36.31
  Q 22.63 39.51 25.69 40.97
  A 0.46 0.45 35.4 0 1 25.82 41.70
  L 25.59 41.94
  A 0.41 0.41 0.0 0 1 25.04 41.96
  Q 24.22 41.26 24.18 41.26
  A 0.23 0.22 61.6 0 0 24.06 41.67
  Q 25.55 42.71 26.18 42.63
  Q 26.64 42.57 26.86 42.08
  Q 27.03 41.71 27.35 41.72
  Q 27.69 41.74 27.90 42.08
  Q 28.82 43.56 30.00 43.37
  A 0.79 0.79 0.0 0 1 30.85 43.82
  Q 31.17 44.51 31.71 44.84
  A 0.36 0.36 0.0 0 0 32.26 44.54
  L 32.26 40.07
  A 0.51 0.51 0.0 0 0 31.41 39.69
  L 30.96 40.09
  A 0.91 0.90 -21.2 0 0 30.66 40.76
  L 30.66 42.74
  A 0.36 0.36 0.0 0 1 29.96 42.85
  L 29.50 41.42
  A 0.47 0.41 8.7 0 0 29.29 41.17
  Q 28.51 40.77 27.75 41.32
  A 0.97 0.96 50.0 0 1 26.48 41.20
  Q 24.55 39.17 22.82 36.94
  A 0.31 0.31 0.0 0 1 22.86 36.52
  L 23.05 36.47
  A 0.23 0.23 0.0 0 1 23.26 36.52
  L 26.80 39.66
  A 1.11 1.02 -16.2 0 0 27.24 39.88
  Q 28.14 40.07 28.72 39.28
  Q 29.12 38.75 29.71 38.75
  Q 31.01 38.74 32.28 37.60
  A 1.03 1.03 0.0 0 1 33.63 37.59
  Q 34.81 38.59 36.07 38.73
  C 37.06 38.85 37.22 39.59 38.02 39.92
  Q 38.34 40.05 38.88 39.69
  Q 40.90 38.34 42.50 36.45
  A 0.28 0.27 43.0 0 1 42.90 36.44
  L 43.09 36.63
  A 0.13 0.13 0.0 0 1 43.10 36.81
  L 40.04 40.70
  A 0.03 0.02 -58.3 0 0 40.04 40.73
  L 40.27 40.96
  A 0.30 0.28 -36.3 0 0 40.62 41.00
  Q 42.79 39.77 44.39 36.45
  Q 44.98 35.23 46.66 34.54
  A 0.18 0.18 0.0 0 1 46.84 34.84
  Z
  M 33.63 40.11
  L 33.63 45.05
  A 0.20 0.20 0.0 0 0 33.97 45.19
  L 35.40 43.77
  A 0.86 0.84 -67.2 0 1 36.00 43.52
  Q 37.34 43.52 38.46 41.75
  A 0.38 0.38 0.0 0 0 38.14 41.17
  L 36.65 41.17
  A 0.34 0.34 0.0 0 0 36.32 41.61
  Q 36.50 42.21 35.68 43.12
  A 0.29 0.29 0.0 0 1 35.18 42.95
  Q 35.08 42.00 35.25 41.32
  A 1.28 1.28 0.0 0 0 34.91 40.11
  L 34.54 39.74
  A 0.54 0.53 22.6 0 0 33.63 40.11
  Z
  M 41.45 41.25
  Q 40.44 42.11 39.57 41.66
  A 0.24 0.24 0.0 0 0 39.25 42.00
  Q 39.83 42.99 40.75 42.55
  Q 41.81 42.03 41.92 41.53
  A 0.29 0.29 0.0 0 0 41.45 41.25
  Z"
/>
<path fill="#ce5553" d="
  M 33.63 40.11
  A 0.54 0.53 22.6 0 1 34.54 39.74
  L 34.91 40.11
  A 1.28 1.28 0.0 0 1 35.25 41.32
  Q 35.08 42.00 35.18 42.95
  A 0.29 0.29 0.0 0 0 35.68 43.12
  Q 36.50 42.21 36.32 41.61
  A 0.34 0.34 0.0 0 1 36.65 41.17
  L 38.14 41.17
  A 0.38 0.38 0.0 0 1 38.46 41.75
  Q 37.34 43.52 36.00 43.52
  A 0.86 0.84 -67.2 0 0 35.40 43.77
  L 33.97 45.19
  A 0.20 0.20 0.0 0 1 33.63 45.05
  L 33.63 40.11
  Z"
/>
<path fill="#ce5553" d="
  M 41.92 41.53
  Q 41.81 42.03 40.75 42.55
  Q 39.83 42.99 39.25 42.00
  A 0.24 0.24 0.0 0 1 39.57 41.66
  Q 40.44 42.11 41.45 41.25
  A 0.29 0.29 0.0 0 1 41.92 41.53
  Z"
/>
</svg>
