<?xml version="1.0" encoding="UTF-8" standalone="no"?>
<!DOCTYPE svg PUBLIC "-//W3C//DTD SVG 1.1//EN" "http://www.w3.org/Graphics/SVG/1.1/DTD/svg11.dtd">
<svg xmlns="http://www.w3.org/2000/svg" version="1.1" viewBox="0.00 0.00 66.00 88.00">
<g stroke-width="2.00" fill="none" stroke-linecap="butt">
<path stroke="#836139" vector-effect="non-scaling-stroke" d="
  M 33.39 86.69
  Q 33.50 86.69 33.61 86.67
  Q 33.65 86.66 33.76 86.55
  Q 46.38 74.67 54.97 61.03
  C 64.62 45.70 69.44 26.38 55.92 12.09
  C 50.21 6.07 42.10 2.48 33.55 2.46
  C 25.01 2.44 16.88 6.00 11.15 12.01
  C -2.43 26.24 2.32 45.58 11.91 60.95
  Q 20.44 74.62 33.02 86.55
  Q 33.13 86.66 33.17 86.66
  Q 33.27 86.69 33.39 86.69"
/>
<path stroke="#ceb9a2" vector-effect="non-scaling-stroke" d="
  M 34.37 43.88
  Q 33.54 38.95 33.24 33.13
  A 0.20 0.20 0.0 0 0 32.85 33.08
  L 28.87 44.07
  A 0.40 0.40 0.0 0 1 28.10 44.01
  Q 28.10 44.00 28.48 43.27
  A 1.36 1.33 59.3 0 0 28.63 42.65
  L 28.63 25.76
  A 0.21 0.20 24.5 0 1 28.99 25.63
  L 33.63 30.81
  A 0.95 0.94 62.9 0 0 34.54 31.11
  L 43.61 29.13
  A 0.93 0.93 0.0 0 0 44.31 28.43
  L 46.02 20.49
  A 1.22 1.21 25.2 0 0 45.58 19.28
  L 41.45 16.03
  A 0.99 0.99 0.0 0 0 40.36 15.95
  L 27.76 23.23
  A 0.87 0.86 75.0 0 0 27.33 23.98
  L 27.33 48.04
  A 0.80 0.79 15.0 0 0 27.73 48.73
  L 33.55 52.09
  A 0.99 0.99 0.0 0 0 34.56 52.07
  L 39.92 48.72
  A 1.94 1.91 89.6 0 0 40.56 48.06
  L 48.88 34.23
  A 0.77 0.77 0.0 0 0 48.60 33.17
  L 44.82 30.98
  A 0.51 0.48 -35.5 0 0 44.45 30.93
  L 35.98 32.78
  A 0.82 0.82 0.0 0 0 35.33 33.53
  Q 34.93 38.77 34.37 43.88"
/>
<path stroke="#ceb9a2" vector-effect="non-scaling-stroke" d="
  M 25.27 35.79
  Q 22.24 33.77 19.53 33.95
  A 0.66 0.64 7.4 0 0 18.96 34.38
  L 16.50 41.17
  A 1.07 1.06 34.3 0 0 16.71 42.25
  L 23.47 49.81
  A 1.35 1.35 0.0 0 0 25.75 49.36
  L 25.91 48.91
  A 3.52 3.51 40.0 0 0 25.65 45.95
  L 22.36 40.24
  A 0.77 0.76 -36.4 0 1 22.51 39.29
  L 25.34 36.77
  A 0.62 0.62 0.0 0 0 25.27 35.79"
/>
<path stroke="#ceb9a2" vector-effect="non-scaling-stroke" d="
  M 19.47 41.54
  Q 19.10 41.76 18.66 41.97
  A 0.49 0.49 0.0 0 0 18.52 42.74
  Q 22.28 46.67 22.45 46.57
  Q 22.61 46.47 20.98 41.29
  A 0.49 0.49 0.0 0 0 20.24 41.04
  Q 19.84 41.32 19.47 41.54"
/>
</g>
<path fill="#594124" d="
  M 33.79 88.00
  L 33.14 88.00
  Q 15.91 72.74 6.24 53.01
  Q 2.22 44.82 1.61 34.98
  Q 1.04 25.69 5.16 18.16
  C 15.09 0.04 39.24 -4.35 54.73 9.30
  Q 63.11 16.69 64.90 27.07
  C 68.81 49.76 49.37 73.89 33.79 88.00
  Z
  M 33.39 86.69
  Q 33.50 86.69 33.61 86.67
  Q 33.65 86.66 33.76 86.55
  Q 46.38 74.67 54.97 61.03
  C 64.62 45.70 69.44 26.38 55.92 12.09
  C 50.21 6.07 42.10 2.48 33.55 2.46
  C 25.01 2.44 16.88 6.00 11.15 12.01
  C -2.43 26.24 2.32 45.58 11.91 60.95
  Q 20.44 74.62 33.02 86.55
  Q 33.13 86.66 33.17 86.66
  Q 33.27 86.69 33.39 86.69
  Z"
/>
<path fill="#ac804d" d="
  M 33.55 2.46
  C 42.10 2.48 50.21 6.07 55.92 12.09
  C 69.44 26.38 64.62 45.70 54.97 61.03
  Q 46.38 74.67 33.76 86.55
  Q 33.65 86.66 33.61 86.67
  Q 33.50 86.69 33.39 86.69
  Q 33.27 86.69 33.17 86.66
  Q 33.13 86.66 33.02 86.55
  Q 20.44 74.62 11.91 60.95
  C 2.32 45.58 -2.43 26.24 11.15 12.01
  C 16.88 6.00 25.01 2.44 33.55 2.46
  Z
  M 34.37 43.88
  Q 33.54 38.95 33.24 33.13
  A 0.20 0.20 0.0 0 0 32.85 33.08
  L 28.87 44.07
  A 0.40 0.40 0.0 0 1 28.10 44.01
  Q 28.10 44.00 28.48 43.27
  A 1.36 1.33 59.3 0 0 28.63 42.65
  L 28.63 25.76
  A 0.21 0.20 24.5 0 1 28.99 25.63
  L 33.63 30.81
  A 0.95 0.94 62.9 0 0 34.54 31.11
  L 43.61 29.13
  A 0.93 0.93 0.0 0 0 44.31 28.43
  L 46.02 20.49
  A 1.22 1.21 25.2 0 0 45.58 19.28
  L 41.45 16.03
  A 0.99 0.99 0.0 0 0 40.36 15.95
  L 27.76 23.23
  A 0.87 0.86 75.0 0 0 27.33 23.98
  L 27.33 48.04
  A 0.80 0.79 15.0 0 0 27.73 48.73
  L 33.55 52.09
  A 0.99 0.99 0.0 0 0 34.56 52.07
  L 39.92 48.72
  A 1.94 1.91 89.6 0 0 40.56 48.06
  L 48.88 34.23
  A 0.77 0.77 0.0 0 0 48.60 33.17
  L 44.82 30.98
  A 0.51 0.48 -35.5 0 0 44.45 30.93
  L 35.98 32.78
  A 0.82 0.82 0.0 0 0 35.33 33.53
  Q 34.93 38.77 34.37 43.88
  Z
  M 25.27 35.79
  Q 22.24 33.77 19.53 33.95
  A 0.66 0.64 7.4 0 0 18.96 34.38
  L 16.50 41.17
  A 1.07 1.06 34.3 0 0 16.71 42.25
  L 23.47 49.81
  A 1.35 1.35 0.0 0 0 25.75 49.36
  L 25.91 48.91
  A 3.52 3.51 40.0 0 0 25.65 45.95
  L 22.36 40.24
  A 0.77 0.76 -36.4 0 1 22.51 39.29
  L 25.34 36.77
  A 0.62 0.62 0.0 0 0 25.27 35.79
  Z"
/>
<path fill="#eff1f6" d="
  M 34.37 43.88
  Q 34.93 38.77 35.33 33.53
  A 0.82 0.82 0.0 0 1 35.98 32.78
  L 44.45 30.93
  A 0.51 0.48 -35.5 0 1 44.82 30.98
  L 48.60 33.17
  A 0.77 0.77 0.0 0 1 48.88 34.23
  L 40.56 48.06
  A 1.94 1.91 89.6 0 1 39.92 48.72
  L 34.56 52.07
  A 0.99 0.99 0.0 0 1 33.55 52.09
  L 27.73 48.73
  A 0.80 0.79 15.0 0 1 27.33 48.04
  L 27.33 23.98
  A 0.87 0.86 75.0 0 1 27.76 23.23
  L 40.36 15.95
  A 0.99 0.99 0.0 0 1 41.45 16.03
  L 45.58 19.28
  A 1.22 1.21 25.2 0 1 46.02 20.49
  L 44.31 28.43
  A 0.93 0.93 0.0 0 1 43.61 29.13
  L 34.54 31.11
  A 0.95 0.94 62.9 0 1 33.63 30.81
  L 28.99 25.63
  A 0.21 0.20 24.5 0 0 28.63 25.76
  L 28.63 42.65
  A 1.36 1.33 59.3 0 1 28.48 43.27
  Q 28.10 44.00 28.10 44.01
  A 0.40 0.40 0.0 0 0 28.87 44.07
  L 32.85 33.08
  A 0.20 0.20 0.0 0 1 33.24 33.13
  Q 33.54 38.95 34.37 43.88
  Z"
/>
<path fill="#eff1f6" d="
  M 25.34 36.77
  L 22.51 39.29
  A 0.77 0.76 -36.4 0 0 22.36 40.24
  L 25.65 45.95
  A 3.52 3.51 40.0 0 1 25.91 48.91
  L 25.75 49.36
  A 1.35 1.35 0.0 0 1 23.47 49.81
  L 16.71 42.25
  A 1.07 1.06 34.3 0 1 16.50 41.17
  L 18.96 34.38
  A 0.66 0.64 7.4 0 1 19.53 33.95
  Q 22.24 33.77 25.27 35.79
  A 0.62 0.62 0.0 0 1 25.34 36.77
  Z
  M 19.47 41.54
  Q 19.10 41.76 18.66 41.97
  A 0.49 0.49 0.0 0 0 18.52 42.74
  Q 22.28 46.67 22.45 46.57
  Q 22.61 46.47 20.98 41.29
  A 0.49 0.49 0.0 0 0 20.24 41.04
  Q 19.84 41.32 19.47 41.54
  Z"
/>
<path fill="#ac804d" d="
  M 22.45 46.57
  Q 22.28 46.67 18.52 42.74
  A 0.49 0.49 0.0 0 1 18.66 41.97
  Q 19.10 41.76 19.47 41.54
  Q 19.84 41.32 20.24 41.04
  A 0.49 0.49 0.0 0 1 20.98 41.29
  Q 22.61 46.47 22.45 46.57
  Z"
/>
</svg>
