<?xml version="1.0" encoding="UTF-8" standalone="no"?>
<!DOCTYPE svg PUBLIC "-//W3C//DTD SVG 1.1//EN" "http://www.w3.org/Graphics/SVG/1.1/DTD/svg11.dtd">
<svg xmlns="http://www.w3.org/2000/svg" version="1.1" viewBox="0.00 0.00 66.00 88.00">
<g stroke-width="2.00" fill="none" stroke-linecap="butt">
<path stroke="#406c74" vector-effect="non-scaling-stroke" d="
  M 33.40 86.70
  Q 33.50 86.70 33.60 86.68
  Q 33.62 86.67 33.75 86.55
  Q 45.33 75.66 53.73 63.02
  C 64.51 46.83 70.81 24.47 53.44 9.73
  C 48.15 5.24 40.93 2.47 33.54 2.46
  C 26.15 2.45 18.93 5.19 13.63 9.66
  C -3.80 24.34 2.42 46.72 13.14 62.95
  Q 21.50 75.62 33.04 86.55
  Q 33.17 86.67 33.19 86.67
  Q 33.29 86.70 33.40 86.70"
/>
<path stroke="#a3c0c7" vector-effect="non-scaling-stroke" d="
  M 34.62 42.43
  L 34.62 38.20
  A 0.66 0.65 0.0 0 1 35.28 37.55
  L 38.41 37.55
  A 0.79 0.77 -67.0 0 0 38.96 37.32
  L 44.23 32.05
  A 1.61 1.59 -22.7 0 0 44.70 30.92
  L 44.70 22.06
  A 1.30 1.28 22.9 0 0 44.32 21.15
  L 39.41 16.24
  A 1.67 1.66 67.4 0 0 38.23 15.75
  L 27.78 15.75
  A 1.79 1.77 22.3 0 0 26.52 16.27
  L 22.36 20.42
  A 0.48 0.47 -45.4 0 0 22.36 21.09
  L 25.20 23.92
  A 0.47 0.47 0.0 0 0 25.87 23.92
  L 29.12 20.67
  A 1.43 1.39 22.0 0 1 30.12 20.26
  L 35.72 20.26
  A 1.67 1.66 67.4 0 1 36.90 20.75
  L 39.29 23.13
  A 1.36 1.33 -67.9 0 1 39.68 24.08
  L 39.68 28.96
  A 0.79 0.73 62.7 0 1 39.57 29.36
  Q 37.33 32.88 33.90 32.80
  A 1.61 1.57 22.9 0 0 32.73 33.26
  L 30.07 35.93
  A 1.57 1.56 67.9 0 0 29.60 37.05
  L 29.60 42.29
  A 0.46 0.46 0.0 0 0 30.06 42.75
  L 34.30 42.75
  A 0.32 0.32 0.0 0 0 34.62 42.43"
/>
<path stroke="#a3c0c7" vector-effect="non-scaling-stroke" d="
  M 34.5965 47.8456
  A 0.35 0.35 0.0 0 0 34.2459 47.4963
  L 29.9459 47.5038
  A 0.35 0.35 0.0 0 0 29.5965 47.8544
  L 29.6035 51.8944
  A 0.35 0.35 0.0 0 0 29.9541 52.2437
  L 34.2541 52.2362
  A 0.35 0.35 0.0 0 0 34.6035 51.8856
  L 34.5965 47.8456"
/>
</g>
<path fill="#284a4f" d="
  M 33.78 88.00
  L 33.04 88.00
  C 22.05 78.01 11.69 65.34 5.65 51.56
  Q 2.13 43.52 1.55 34.89
  C 0.19 14.61 18.15 -1.18 38.34 1.70
  C 51.67 3.61 61.97 13.56 64.85 26.52
  C 67.19 37.05 63.33 48.99 57.55 58.84
  Q 47.97 75.17 33.78 88.00
  Z
  M 33.40 86.70
  Q 33.50 86.70 33.60 86.68
  Q 33.62 86.67 33.75 86.55
  Q 45.33 75.66 53.73 63.02
  C 64.51 46.83 70.81 24.47 53.44 9.73
  C 48.15 5.24 40.93 2.47 33.54 2.46
  C 26.15 2.45 18.93 5.19 13.63 9.66
  C -3.80 24.34 2.42 46.72 13.14 62.95
  Q 21.50 75.62 33.04 86.55
  Q 33.17 86.67 33.19 86.67
  Q 33.29 86.70 33.40 86.70
  Z"
/>
<path fill="#578e98" d="
  M 33.54 2.46
  C 40.93 2.47 48.15 5.24 53.44 9.73
  C 70.81 24.47 64.51 46.83 53.73 63.02
  Q 45.33 75.66 33.75 86.55
  Q 33.62 86.67 33.60 86.68
  Q 33.50 86.70 33.40 86.70
  Q 33.29 86.70 33.19 86.67
  Q 33.17 86.67 33.04 86.55
  Q 21.50 75.62 13.14 62.95
  C 2.42 46.72 -3.80 24.34 13.63 9.66
  C 18.93 5.19 26.15 2.45 33.54 2.46
  Z
  M 34.62 42.43
  L 34.62 38.20
  A 0.66 0.65 0.0 0 1 35.28 37.55
  L 38.41 37.55
  A 0.79 0.77 -67.0 0 0 38.96 37.32
  L 44.23 32.05
  A 1.61 1.59 -22.7 0 0 44.70 30.92
  L 44.70 22.06
  A 1.30 1.28 22.9 0 0 44.32 21.15
  L 39.41 16.24
  A 1.67 1.66 67.4 0 0 38.23 15.75
  L 27.78 15.75
  A 1.79 1.77 22.3 0 0 26.52 16.27
  L 22.36 20.42
  A 0.48 0.47 -45.4 0 0 22.36 21.09
  L 25.20 23.92
  A 0.47 0.47 0.0 0 0 25.87 23.92
  L 29.12 20.67
  A 1.43 1.39 22.0 0 1 30.12 20.26
  L 35.72 20.26
  A 1.67 1.66 67.4 0 1 36.90 20.75
  L 39.29 23.13
  A 1.36 1.33 -67.9 0 1 39.68 24.08
  L 39.68 28.96
  A 0.79 0.73 62.7 0 1 39.57 29.36
  Q 37.33 32.88 33.90 32.80
  A 1.61 1.57 22.9 0 0 32.73 33.26
  L 30.07 35.93
  A 1.57 1.56 67.9 0 0 29.60 37.05
  L 29.60 42.29
  A 0.46 0.46 0.0 0 0 30.06 42.75
  L 34.30 42.75
  A 0.32 0.32 0.0 0 0 34.62 42.43
  Z
  M 34.5965 47.8456
  A 0.35 0.35 0.0 0 0 34.2459 47.4963
  L 29.9459 47.5038
  A 0.35 0.35 0.0 0 0 29.5965 47.8544
  L 29.6035 51.8944
  A 0.35 0.35 0.0 0 0 29.9541 52.2437
  L 34.2541 52.2362
  A 0.35 0.35 0.0 0 0 34.6035 51.8856
  L 34.5965 47.8456
  Z"
/>
<path fill="#eff1f6" d="
  M 34.62 42.43
  A 0.32 0.32 0.0 0 1 34.30 42.75
  L 30.06 42.75
  A 0.46 0.46 0.0 0 1 29.60 42.29
  L 29.60 37.05
  A 1.57 1.56 67.9 0 1 30.07 35.93
  L 32.73 33.26
  A 1.61 1.57 22.9 0 1 33.90 32.80
  Q 37.33 32.88 39.57 29.36
  A 0.79 0.73 62.7 0 0 39.68 28.96
  L 39.68 24.08
  A 1.36 1.33 -67.9 0 0 39.29 23.13
  L 36.90 20.75
  A 1.67 1.66 67.4 0 0 35.72 20.26
  L 30.12 20.26
  A 1.43 1.39 22.0 0 0 29.12 20.67
  L 25.87 23.92
  A 0.47 0.47 0.0 0 1 25.20 23.92
  L 22.36 21.09
  A 0.48 0.47 -45.4 0 1 22.36 20.42
  L 26.52 16.27
  A 1.79 1.77 22.3 0 1 27.78 15.75
  L 38.23 15.75
  A 1.67 1.66 67.4 0 1 39.41 16.24
  L 44.32 21.15
  A 1.30 1.28 22.9 0 1 44.70 22.06
  L 44.70 30.92
  A 1.61 1.59 -22.7 0 1 44.23 32.05
  L 38.96 37.32
  A 0.79 0.77 -67.0 0 1 38.41 37.55
  L 35.28 37.55
  A 0.66 0.65 0.0 0 0 34.62 38.20
  L 34.62 42.43
  Z"
/>
<rect fill="#eff1f6" x="-2.50" y="-2.37" transform="translate(32.10,49.87) rotate(-0.1)" width="5.00" height="4.74" rx="0.35"/>
</svg>
