<?xml version="1.0" encoding="UTF-8" standalone="no"?>
<!DOCTYPE svg PUBLIC "-//W3C//DTD SVG 1.1//EN" "http://www.w3.org/Graphics/SVG/1.1/DTD/svg11.dtd">
<svg xmlns="http://www.w3.org/2000/svg" version="1.1" viewBox="0.00 0.00 66.00 88.00">
<g stroke-width="2.00" fill="none" stroke-linecap="butt">
<path stroke="#30744e" vector-effect="non-scaling-stroke" d="
  M 33.41 86.72
  Q 33.50 86.72 33.64 86.59
  Q 48.78 72.60 57.54 56.52
  Q 62.95 46.58 63.91 38.23
  Q 66.50 15.62 46.61 5.41
  Q 40.89 2.47 33.53 2.46
  Q 26.17 2.45 20.44 5.37
  Q 0.52 15.52 3.05 38.14
  Q 3.98 46.49 9.36 56.45
  Q 18.08 72.56 33.18 86.59
  Q 33.31 86.72 33.41 86.72"
/>
<path stroke="#98c5b0" vector-effect="non-scaling-stroke" d="
  M 14.84 30.74
  L 51.18 30.74
  A 0.14 0.14 0.0 0 0 51.32 30.60
  L 51.32 30.51
  A 13.60 11.27 -0.0 0 0 37.72 19.24
  L 28.30 19.24
  A 13.60 11.27 0.0 0 0 14.70 30.51
  L 14.70 30.60
  A 0.14 0.14 0.0 0 0 14.84 30.74"
/>
<path stroke="#98c5b0" vector-effect="non-scaling-stroke" d="
  M 16.46 49.12
  A 0.41 0.41 0.0 0 0 16.87 49.49
  L 49.13 49.49
  A 0.41 0.41 0.0 0 0 49.54 49.12
  L 51.00 34.44
  A 0.41 0.41 0.0 0 0 50.59 33.99
  L 15.42 33.99
  A 0.41 0.41 0.0 0 0 15.01 34.44
  L 16.46 49.12"
/>
</g>
<path fill="#1e5033" d="
  M 33.79 88.00
  L 33.04 88.00
  C 21.98 77.95 12.05 65.64 5.73 51.78
  Q 2.25 44.17 1.60 34.96
  C 0.51 19.56 10.62 6.35 25.26 2.41
  C 40.23 -1.62 55.85 5.57 62.69 19.93
  C 66.94 28.88 65.89 40.02 62.33 49.06
  C 56.50 63.88 45.53 77.35 33.79 88.00
  Z
  M 33.41 86.72
  Q 33.50 86.72 33.64 86.59
  Q 48.78 72.60 57.54 56.52
  Q 62.95 46.58 63.91 38.23
  Q 66.50 15.62 46.61 5.41
  Q 40.89 2.47 33.53 2.46
  Q 26.17 2.45 20.44 5.37
  Q 0.52 15.52 3.05 38.14
  Q 3.98 46.49 9.36 56.45
  Q 18.08 72.56 33.18 86.59
  Q 33.31 86.72 33.41 86.72
  Z"
/>
<path fill="#419869" d="
  M 33.53 2.46
  Q 40.89 2.47 46.61 5.41
  Q 66.50 15.62 63.91 38.23
  Q 62.95 46.58 57.54 56.52
  Q 48.78 72.60 33.64 86.59
  Q 33.50 86.72 33.41 86.72
  Q 33.31 86.72 33.18 86.59
  Q 18.08 72.56 9.36 56.45
  Q 3.98 46.49 3.05 38.14
  Q 0.52 15.52 20.44 5.37
  Q 26.17 2.45 33.53 2.46
  Z
  M 14.84 30.74
  L 51.18 30.74
  A 0.14 0.14 0.0 0 0 51.32 30.60
  L 51.32 30.51
  A 13.60 11.27 -0.0 0 0 37.72 19.24
  L 28.30 19.24
  A 13.60 11.27 0.0 0 0 14.70 30.51
  L 14.70 30.60
  A 0.14 0.14 0.0 0 0 14.84 30.74
  Z
  M 16.46 49.12
  A 0.41 0.41 0.0 0 0 16.87 49.49
  L 49.13 49.49
  A 0.41 0.41 0.0 0 0 49.54 49.12
  L 51.00 34.44
  A 0.41 0.41 0.0 0 0 50.59 33.99
  L 15.42 33.99
  A 0.41 0.41 0.0 0 0 15.01 34.44
  L 16.46 49.12
  Z"
/>
<path fill="#eff1f6" d="
  M 14.84 30.74
  A 0.14 0.14 0.0 0 1 14.70 30.60
  L 14.70 30.51
  A 13.60 11.27 0.0 0 1 28.30 19.24
  L 37.72 19.24
  A 13.60 11.27 -0.0 0 1 51.32 30.51
  L 51.32 30.60
  A 0.14 0.14 0.0 0 1 51.18 30.74
  L 14.84 30.74
  Z"
/>
<path fill="#eff1f6" d="
  M 16.46 49.12
  L 15.01 34.44
  A 0.41 0.41 0.0 0 1 15.42 33.99
  L 50.59 33.99
  A 0.41 0.41 0.0 0 1 51.00 34.44
  L 49.54 49.12
  A 0.41 0.41 0.0 0 1 49.13 49.49
  L 16.87 49.49
  A 0.41 0.41 0.0 0 1 16.46 49.12
  Z"
/>
</svg>
