<?xml version="1.0" encoding="UTF-8" standalone="no"?>
<!DOCTYPE svg PUBLIC "-//W3C//DTD SVG 1.1//EN" "http://www.w3.org/Graphics/SVG/1.1/DTD/svg11.dtd">
<svg xmlns="http://www.w3.org/2000/svg" version="1.1" viewBox="0.00 0.00 66.00 88.00">
<g stroke-width="2.00" fill="none" stroke-linecap="butt">
<path stroke="#b8833b" vector-effect="non-scaling-stroke" d="
  M 33.36 86.74
  Q 33.51 86.74 33.64 86.62
  Q 44.58 76.41 53.05 64.06
  C 64.29 47.67 71.37 24.18 52.93 9.30
  C 47.68 5.06 40.78 2.48 33.58 2.46
  C 26.37 2.44 19.46 4.99 14.19 9.20
  C -4.33 23.98 2.63 47.51 13.78 63.96
  Q 22.19 76.35 33.08 86.62
  Q 33.21 86.74 33.36 86.74"
/>
<path stroke="#f1d0a3" vector-effect="non-scaling-stroke" d="
  M 32.58 23.97
  Q 32.79 23.97 33.16 24.37
  Q 36.65 28.12 38.12 29.50
  A 0.66 0.66 0.0 0 0 39.02 29.52
  Q 39.38 29.20 39.98 28.36
  A 0.76 0.76 0.0 0 0 40.01 27.50
  L 32.84 16.23
  A 0.36 0.33 79.0 0 0 32.66 16.10
  Q 32.60 16.08 32.55 16.08
  Q 32.48 16.08 32.43 16.10
  A 0.36 0.33 -79.0 0 0 32.25 16.23
  L 25.08 27.50
  A 0.76 0.76 0.0 0 0 25.11 28.36
  Q 25.71 29.20 26.07 29.52
  A 0.66 0.66 0.0 0 0 26.97 29.50
  Q 28.44 28.12 31.92 24.37
  Q 32.30 23.97 32.58 23.97"
/>
<path stroke="#f1d0a3" vector-effect="non-scaling-stroke" d="
  M 32.9621 28.0342
  A 0.39 0.39 0.0 0 0 32.4107 28.0198
  L 26.5642 33.5679
  A 0.39 0.39 0.0 0 0 26.5498 34.1193
  L 32.0979 39.9658
  A 0.39 0.39 0.0 0 0 32.6493 39.9802
  L 38.4958 34.4321
  A 0.39 0.39 0.0 0 0 38.5102 33.8807
  L 32.9621 28.0342"
/>
<path stroke="#f1d0a3" vector-effect="non-scaling-stroke" d="
  M 32.57 44.03
  Q 32.29 44.03 31.92 43.63
  Q 28.43 39.87 26.96 38.49
  A 0.66 0.66 0.0 0 0 26.06 38.47
  Q 25.70 38.79 25.10 39.63
  A 0.76 0.76 0.0 0 0 25.07 40.49
  L 32.24 51.77
  A 0.36 0.33 79.1 0 0 32.42 51.91
  Q 32.47 51.92 32.53 51.92
  Q 32.59 51.92 32.65 51.91
  A 0.36 0.33 -79.0 0 0 32.83 51.77
  L 40.01 40.50
  A 0.76 0.76 0.0 0 0 39.99 39.64
  Q 39.39 38.80 39.03 38.48
  A 0.66 0.66 0.0 0 0 38.13 38.50
  Q 36.65 39.88 33.16 43.63
  Q 32.78 44.03 32.57 44.03"
/>
</g>
<path fill="#7c5625" d="
  M 33.81 88.00
  L 32.99 88.00
  C 22.23 78.12 13.06 66.75 6.56 53.56
  Q 2.38 45.10 1.61 35.64
  C 0.01 16.01 16.36 -0.25 36.25 1.44
  C 53.22 2.88 66.15 17.15 65.43 34.16
  Q 65.09 42.28 62.12 49.57
  C 56.15 64.26 45.47 77.38 33.81 88.00
  Z
  M 33.36 86.74
  Q 33.51 86.74 33.64 86.62
  Q 44.58 76.41 53.05 64.06
  C 64.29 47.67 71.37 24.18 52.93 9.30
  C 47.68 5.06 40.78 2.48 33.58 2.46
  C 26.37 2.44 19.46 4.99 14.19 9.20
  C -4.33 23.98 2.63 47.51 13.78 63.96
  Q 22.19 76.35 33.08 86.62
  Q 33.21 86.74 33.36 86.74
  Z"
/>
<path fill="#f3af50" d="
  M 33.58 2.46
  C 40.78 2.48 47.68 5.06 52.93 9.30
  C 71.37 24.18 64.29 47.67 53.05 64.06
  Q 44.58 76.41 33.64 86.62
  Q 33.51 86.74 33.36 86.74
  Q 33.21 86.74 33.08 86.62
  Q 22.19 76.35 13.78 63.96
  C 2.63 47.51 -4.33 23.98 14.19 9.20
  C 19.46 4.99 26.37 2.44 33.58 2.46
  Z
  M 32.58 23.97
  Q 32.79 23.97 33.16 24.37
  Q 36.65 28.12 38.12 29.50
  A 0.66 0.66 0.0 0 0 39.02 29.52
  Q 39.38 29.20 39.98 28.36
  A 0.76 0.76 0.0 0 0 40.01 27.50
  L 32.84 16.23
  A 0.36 0.33 79.0 0 0 32.66 16.10
  Q 32.60 16.08 32.55 16.08
  Q 32.48 16.08 32.43 16.10
  A 0.36 0.33 -79.0 0 0 32.25 16.23
  L 25.08 27.50
  A 0.76 0.76 0.0 0 0 25.11 28.36
  Q 25.71 29.20 26.07 29.52
  A 0.66 0.66 0.0 0 0 26.97 29.50
  Q 28.44 28.12 31.92 24.37
  Q 32.30 23.97 32.58 23.97
  Z
  M 32.9621 28.0342
  A 0.39 0.39 0.0 0 0 32.4107 28.0198
  L 26.5642 33.5679
  A 0.39 0.39 0.0 0 0 26.5498 34.1193
  L 32.0979 39.9658
  A 0.39 0.39 0.0 0 0 32.6493 39.9802
  L 38.4958 34.4321
  A 0.39 0.39 0.0 0 0 38.5102 33.8807
  L 32.9621 28.0342
  Z
  M 32.57 44.03
  Q 32.29 44.03 31.92 43.63
  Q 28.43 39.87 26.96 38.49
  A 0.66 0.66 0.0 0 0 26.06 38.47
  Q 25.70 38.79 25.10 39.63
  A 0.76 0.76 0.0 0 0 25.07 40.49
  L 32.24 51.77
  A 0.36 0.33 79.1 0 0 32.42 51.91
  Q 32.47 51.92 32.53 51.92
  Q 32.59 51.92 32.65 51.91
  A 0.36 0.33 -79.0 0 0 32.83 51.77
  L 40.01 40.50
  A 0.76 0.76 0.0 0 0 39.99 39.64
  Q 39.39 38.80 39.03 38.48
  A 0.66 0.66 0.0 0 0 38.13 38.50
  Q 36.65 39.88 33.16 43.63
  Q 32.78 44.03 32.57 44.03
  Z"
/>
<path fill="#eff1f6" d="
  M 32.55 16.08
  Q 32.60 16.08 32.66 16.10
  A 0.36 0.33 79.0 0 1 32.84 16.23
  L 40.01 27.50
  A 0.76 0.76 0.0 0 1 39.98 28.36
  Q 39.38 29.20 39.02 29.52
  A 0.66 0.66 0.0 0 1 38.12 29.50
  Q 36.65 28.12 33.16 24.37
  Q 32.79 23.97 32.58 23.97
  Q 32.30 23.97 31.92 24.37
  Q 28.44 28.12 26.97 29.50
  A 0.66 0.66 0.0 0 1 26.07 29.52
  Q 25.71 29.20 25.11 28.36
  A 0.76 0.76 0.0 0 1 25.08 27.50
  L 32.25 16.23
  A 0.36 0.33 -79.0 0 1 32.43 16.10
  Q 32.48 16.08 32.55 16.08
  Z"
/>
<rect fill="#eff1f6" x="-4.42" y="-4.42" transform="translate(32.53,34.00) rotate(-43.5)" width="8.84" height="8.84" rx="0.39"/>
<path fill="#eff1f6" d="
  M 32.57 44.03
  Q 32.78 44.03 33.16 43.63
  Q 36.65 39.88 38.13 38.50
  A 0.66 0.66 0.0 0 1 39.03 38.48
  Q 39.39 38.80 39.99 39.64
  A 0.76 0.76 0.0 0 1 40.01 40.50
  L 32.83 51.77
  A 0.36 0.33 -79.0 0 1 32.65 51.91
  Q 32.59 51.92 32.53 51.92
  Q 32.47 51.92 32.42 51.91
  A 0.36 0.33 79.1 0 1 32.24 51.77
  L 25.07 40.49
  A 0.76 0.76 0.0 0 1 25.10 39.63
  Q 25.70 38.79 26.06 38.47
  A 0.66 0.66 0.0 0 1 26.96 38.49
  Q 28.43 39.87 31.92 43.63
  Q 32.29 44.03 32.57 44.03
  Z"
/>
</svg>
