<?xml version="1.0" encoding="UTF-8" standalone="no"?>
<!DOCTYPE svg PUBLIC "-//W3C//DTD SVG 1.1//EN" "http://www.w3.org/Graphics/SVG/1.1/DTD/svg11.dtd">
<svg xmlns="http://www.w3.org/2000/svg" version="1.1" viewBox="0.00 0.00 66.00 88.00">
<g stroke-width="2.00" fill="none" stroke-linecap="butt">
<path stroke="#9d3f3d" vector-effect="non-scaling-stroke" d="
  M 33.40 86.71
  Q 33.53 86.71 33.62 86.69
  Q 33.68 86.67 33.77 86.58
  Q 46.12 75.05 55.11 60.86
  C 62.07 49.87 67.40 34.74 62.26 21.92
  C 57.57 10.24 46.18 2.48 33.54 2.46
  C 20.89 2.44 9.48 10.16 4.76 21.83
  C -0.43 34.63 4.85 49.78 11.78 60.79
  Q 20.72 75.01 33.04 86.58
  Q 33.13 86.67 33.19 86.69
  Q 33.27 86.71 33.40 86.71"
/>
<path stroke="#dfa3a5" vector-effect="non-scaling-stroke" d="
  M 32.97 48.23
  Q 37.38 48.24 37.90 48.19
  A 3.60 3.46 -60.1 0 0 39.20 47.81
  C 43.51 45.59 45.65 44.75 45.74 39.73
  A 2.08 2.06 65.9 0 1 46.22 38.46
  L 50.70 33.19
  A 1.81 1.64 77.7 0 0 50.97 32.72
  Q 51.84 30.33 50.05 27.51
  A 2.53 2.45 -89.1 0 0 49.40 26.82
  L 41.06 20.80
  A 0.14 0.14 0.0 0 0 40.87 20.99
  C 43.01 23.85 45.25 25.90 44.04 28.65
  Q 43.39 30.14 40.84 30.05
  A 2.24 2.20 -32.0 0 1 40.13 29.89
  C 37.16 28.66 35.48 27.80 32.98 27.80
  C 30.48 27.80 28.80 28.66 25.83 29.89
  A 2.24 2.20 32.0 0 1 25.11 30.04
  Q 22.56 30.13 21.92 28.64
  C 20.71 25.89 22.95 23.84 25.09 20.98
  A 0.14 0.14 0.0 0 0 24.90 20.79
  L 16.56 26.81
  A 2.53 2.45 89.2 0 0 15.91 27.49
  Q 14.11 30.31 14.98 32.70
  A 1.81 1.64 -77.7 0 0 15.25 33.17
  L 19.73 38.45
  A 2.08 2.06 -65.9 0 1 20.21 39.72
  C 20.29 44.74 22.43 45.58 26.74 47.80
  A 3.60 3.46 60.2 0 0 28.04 48.19
  Q 28.55 48.23 32.97 48.23"
/>
<path stroke="#dfa3a5" vector-effect="non-scaling-stroke" d="
  M 29.70 41.54
  A 0.19 0.19 0.0 0 0 29.84 41.21
  Q 27.37 38.80 26.46 35.76
  A 0.40 0.40 0.0 0 0 25.76 35.63
  C 22.82 39.45 26.21 41.44 29.70 41.54"
/>
<path stroke="#dfa3a5" vector-effect="non-scaling-stroke" d="
  M 36.26 41.49
  C 39.74 41.39 43.11 39.41 40.18 35.61
  A 0.40 0.40 0.0 0 0 39.49 35.74
  Q 38.58 38.76 36.12 41.16
  A 0.19 0.19 0.0 0 0 36.26 41.49"
/>
</g>
<path fill="#6c2927" d="
  M 33.78 88.00
  L 33.04 88.00
  C 22.21 78.22 11.92 65.54 5.75 51.76
  Q 2.14 43.71 1.56 34.96
  C 0.24 15.36 17.07 -0.49 36.86 1.51
  C 50.84 2.92 61.47 12.74 64.80 26.19
  Q 66.13 31.55 64.78 40.20
  Q 63.45 48.80 57.55 58.84
  Q 47.97 75.17 33.78 88.00
  Z
  M 33.40 86.71
  Q 33.53 86.71 33.62 86.69
  Q 33.68 86.67 33.77 86.58
  Q 46.12 75.05 55.11 60.86
  C 62.07 49.87 67.40 34.74 62.26 21.92
  C 57.57 10.24 46.18 2.48 33.54 2.46
  C 20.89 2.44 9.48 10.16 4.76 21.83
  C -0.43 34.63 4.85 49.78 11.78 60.79
  Q 20.72 75.01 33.04 86.58
  Q 33.13 86.67 33.19 86.69
  Q 33.27 86.71 33.40 86.71
  Z"
/>
<path fill="#ce5553" d="
  M 33.54 2.46
  C 46.18 2.48 57.57 10.24 62.26 21.92
  C 67.40 34.74 62.07 49.87 55.11 60.86
  Q 46.12 75.05 33.77 86.58
  Q 33.68 86.67 33.62 86.69
  Q 33.53 86.71 33.40 86.71
  Q 33.27 86.71 33.19 86.69
  Q 33.13 86.67 33.04 86.58
  Q 20.72 75.01 11.78 60.79
  C 4.85 49.78 -0.43 34.63 4.76 21.83
  C 9.48 10.16 20.89 2.44 33.54 2.46
  Z
  M 32.97 48.23
  Q 37.38 48.24 37.90 48.19
  A 3.60 3.46 -60.1 0 0 39.20 47.81
  C 43.51 45.59 45.65 44.75 45.74 39.73
  A 2.08 2.06 65.9 0 1 46.22 38.46
  L 50.70 33.19
  A 1.81 1.64 77.7 0 0 50.97 32.72
  Q 51.84 30.33 50.05 27.51
  A 2.53 2.45 -89.1 0 0 49.40 26.82
  L 41.06 20.80
  A 0.14 0.14 0.0 0 0 40.87 20.99
  C 43.01 23.85 45.25 25.90 44.04 28.65
  Q 43.39 30.14 40.84 30.05
  A 2.24 2.20 -32.0 0 1 40.13 29.89
  C 37.16 28.66 35.48 27.80 32.98 27.80
  C 30.48 27.80 28.80 28.66 25.83 29.89
  A 2.24 2.20 32.0 0 1 25.11 30.04
  Q 22.56 30.13 21.92 28.64
  C 20.71 25.89 22.95 23.84 25.09 20.98
  A 0.14 0.14 0.0 0 0 24.90 20.79
  L 16.56 26.81
  A 2.53 2.45 89.2 0 0 15.91 27.49
  Q 14.11 30.31 14.98 32.70
  A 1.81 1.64 -77.7 0 0 15.25 33.17
  L 19.73 38.45
  A 2.08 2.06 -65.9 0 1 20.21 39.72
  C 20.29 44.74 22.43 45.58 26.74 47.80
  A 3.60 3.46 60.2 0 0 28.04 48.19
  Q 28.55 48.23 32.97 48.23
  Z"
/>
<path fill="#eff1f6" d="
  M 32.98 27.80
  C 35.48 27.80 37.16 28.66 40.13 29.89
  A 2.24 2.20 -32.0 0 0 40.84 30.05
  Q 43.39 30.14 44.04 28.65
  C 45.25 25.90 43.01 23.85 40.87 20.99
  A 0.14 0.14 0.0 0 1 41.06 20.80
  L 49.40 26.82
  A 2.53 2.45 -89.1 0 1 50.05 27.51
  Q 51.84 30.33 50.97 32.72
  A 1.81 1.64 77.7 0 1 50.70 33.19
  L 46.22 38.46
  A 2.08 2.06 65.9 0 0 45.74 39.73
  C 45.65 44.75 43.51 45.59 39.20 47.81
  A 3.60 3.46 -60.1 0 1 37.90 48.19
  Q 37.38 48.24 32.97 48.23
  Q 28.55 48.23 28.04 48.19
  A 3.60 3.46 60.2 0 1 26.74 47.80
  C 22.43 45.58 20.29 44.74 20.21 39.72
  A 2.08 2.06 -65.9 0 0 19.73 38.45
  L 15.25 33.17
  A 1.81 1.64 -77.7 0 1 14.98 32.70
  Q 14.11 30.31 15.91 27.49
  A 2.53 2.45 89.2 0 1 16.56 26.81
  L 24.90 20.79
  A 0.14 0.14 0.0 0 1 25.09 20.98
  C 22.95 23.84 20.71 25.89 21.92 28.64
  Q 22.56 30.13 25.11 30.04
  A 2.24 2.20 32.0 0 0 25.83 29.89
  C 28.80 28.66 30.48 27.80 32.98 27.80
  Z
  M 29.70 41.54
  A 0.19 0.19 0.0 0 0 29.84 41.21
  Q 27.37 38.80 26.46 35.76
  A 0.40 0.40 0.0 0 0 25.76 35.63
  C 22.82 39.45 26.21 41.44 29.70 41.54
  Z
  M 36.26 41.49
  C 39.74 41.39 43.11 39.41 40.18 35.61
  A 0.40 0.40 0.0 0 0 39.49 35.74
  Q 38.58 38.76 36.12 41.16
  A 0.19 0.19 0.0 0 0 36.26 41.49
  Z"
/>
<path fill="#ce5553" d="
  M 29.70 41.54
  C 26.21 41.44 22.82 39.45 25.76 35.63
  A 0.40 0.40 0.0 0 1 26.46 35.76
  Q 27.37 38.80 29.84 41.21
  A 0.19 0.19 0.0 0 1 29.70 41.54
  Z"
/>
<path fill="#ce5553" d="
  M 36.26 41.49
  A 0.19 0.19 0.0 0 1 36.12 41.16
  Q 38.58 38.76 39.49 35.74
  A 0.40 0.40 0.0 0 1 40.18 35.61
  C 43.11 39.41 39.74 41.39 36.26 41.49
  Z"
/>
</svg>
