<?xml version="1.0" encoding="UTF-8" standalone="no"?>
<!DOCTYPE svg PUBLIC "-//W3C//DTD SVG 1.1//EN" "http://www.w3.org/Graphics/SVG/1.1/DTD/svg11.dtd">
<svg xmlns="http://www.w3.org/2000/svg" version="1.1" viewBox="0.00 0.00 66.00 88.00">
<g stroke-width="2.00" fill="none" stroke-linecap="butt">
<path stroke="#347a94" vector-effect="non-scaling-stroke" d="
  M 33.40 86.74
  Q 33.51 86.74 33.65 86.61
  Q 46.70 74.52 55.44 60.24
  C 66.69 41.86 69.71 19.39 48.92 6.62
  Q 42.17 2.47 33.53 2.46
  Q 24.89 2.45 18.13 6.57
  C -2.70 19.28 0.25 41.76 11.45 60.17
  Q 20.14 74.48 33.15 86.61
  Q 33.29 86.74 33.40 86.74"
/>
<path stroke="#9cc9dc" vector-effect="non-scaling-stroke" d="
  M 39.70 16.12
  A 0.37 0.37 0.0 0 0 39.33 15.75
  L 19.62 15.75
  A 0.37 0.37 0.0 0 0 19.25 16.12
  L 19.25 51.86
  A 0.37 0.37 0.0 0 0 19.62 52.23
  L 47.02 52.23
  A 0.37 0.37 0.0 0 0 47.39 51.86
  L 47.39 23.63
  A 0.37 0.37 0.0 0 0 47.02 23.26
  L 40.07 23.26
  A 0.37 0.37 0.0 0 1 39.70 22.89
  L 39.70 16.12"
/>
<path stroke="#9cc9dc" vector-effect="non-scaling-stroke" d="
  M 42.12 20.90
  C 42.17 20.95 42.27 21.03 42.35 21.03
  Q 44.82 21.07 46.70 20.91
  A 0.29 0.28 61.8 0 0 46.85 20.40
  Q 46.09 19.79 44.65 18.36
  Q 43.21 16.93 42.59 16.17
  A 0.29 0.28 27.8 0 0 42.08 16.32
  Q 41.94 18.20 41.99 20.67
  C 41.99 20.75 42.07 20.86 42.12 20.90"
/>
<path stroke="#9cc9dc" vector-effect="non-scaling-stroke" d="
  M 34.2209 20.6593
  A 0.58 0.58 0.0 0 0 33.6419 20.0783
  L 24.1019 20.0617
  A 0.58 0.58 0.0 0 0 23.5209 20.6407
  L 23.5191 21.6407
  A 0.58 0.58 0.0 0 0 24.0981 22.2217
  L 33.6381 22.2383
  A 0.58 0.58 0.0 0 0 34.2191 21.6593
  L 34.2209 20.6593"
/>
<path stroke="#9cc9dc" vector-effect="non-scaling-stroke" d="
  M 34.2518 25.9476
  A 0.72 0.72 0.0 0 0 33.5368 25.2226
  L 24.2170 25.1575
  A 0.72 0.72 0.0 0 0 23.4920 25.8724
  L 23.4882 26.4124
  A 0.72 0.72 0.0 0 0 24.2032 27.1374
  L 33.5230 27.2025
  A 0.72 0.72 0.0 0 0 34.2480 26.4876
  L 34.2518 25.9476"
/>
<path stroke="#9cc9dc" vector-effect="non-scaling-stroke" d="
  M 34.1695 31.1007
  A 0.72 0.72 0.0 0 0 33.4482 30.3819
  L 24.1883 30.3981
  A 0.72 0.72 0.0 0 0 23.4695 31.1193
  L 23.4705 31.6793
  A 0.72 0.72 0.0 0 0 24.1918 32.3981
  L 33.4517 32.3819
  A 0.72 0.72 0.0 0 0 34.1705 31.6607
  L 34.1695 31.1007"
/>
<path stroke="#9cc9dc" vector-effect="non-scaling-stroke" d="
  M 43.1507 36.2471
  A 0.63 0.63 0.0 0 0 42.5218 35.6160
  L 24.1418 35.5840
  A 0.63 0.63 0.0 0 0 23.5107 36.2129
  L 23.5093 37.0329
  A 0.63 0.63 0.0 0 0 24.1382 37.6640
  L 42.5182 37.6960
  A 0.63 0.63 0.0 0 0 43.1493 37.0671
  L 43.1507 36.2471"
/>
<path stroke="#9cc9dc" vector-effect="non-scaling-stroke" d="
  M 43.1807 41.2072
  A 0.68 0.68 0.0 0 0 42.5019 40.5260
  L 24.2020 40.4940
  A 0.68 0.68 0.0 0 0 23.5208 41.1728
  L 23.5193 42.0328
  A 0.68 0.68 0.0 0 0 24.1981 42.7140
  L 42.4980 42.7460
  A 0.68 0.68 0.0 0 0 43.1792 42.0672
  L 43.1807 41.2072"
/>
<path stroke="#9cc9dc" vector-effect="non-scaling-stroke" d="
  M 43.1809 46.1471
  A 0.59 0.59 0.0 0 0 42.5919 45.5561
  L 24.1519 45.5239
  A 0.59 0.59 0.0 0 0 23.5609 46.1129
  L 23.5591 47.1129
  A 0.59 0.59 0.0 0 0 24.1481 47.7039
  L 42.5881 47.7361
  A 0.59 0.59 0.0 0 0 43.1791 47.1471
  L 43.1809 46.1471"
/>
</g>
<path fill="#205265" d="
  M 33.78 88.00
  L 33.12 88.00
  C 20.19 76.48 7.62 60.54 3.10 44.24
  Q 1.53 38.57 1.51 34.16
  Q 1.43 16.00 16.12 6.40
  C 27.03 -0.74 41.73 -0.32 52.49 7.49
  C 60.49 13.29 65.47 22.55 65.44 32.53
  Q 65.43 38.78 63.99 44.01
  C 59.39 60.66 46.42 76.57 33.78 88.00
  Z
  M 33.40 86.74
  Q 33.51 86.74 33.65 86.61
  Q 46.70 74.52 55.44 60.24
  C 66.69 41.86 69.71 19.39 48.92 6.62
  Q 42.17 2.47 33.53 2.46
  Q 24.89 2.45 18.13 6.57
  C -2.70 19.28 0.25 41.76 11.45 60.17
  Q 20.14 74.48 33.15 86.61
  Q 33.29 86.74 33.40 86.74
  Z"
/>
<path fill="#48a1c2" d="
  M 33.53 2.46
  Q 42.17 2.47 48.92 6.62
  C 69.71 19.39 66.69 41.86 55.44 60.24
  Q 46.70 74.52 33.65 86.61
  Q 33.51 86.74 33.40 86.74
  Q 33.29 86.74 33.15 86.61
  Q 20.14 74.48 11.45 60.17
  C 0.25 41.76 -2.70 19.28 18.13 6.57
  Q 24.89 2.45 33.53 2.46
  Z
  M 39.70 16.12
  A 0.37 0.37 0.0 0 0 39.33 15.75
  L 19.62 15.75
  A 0.37 0.37 0.0 0 0 19.25 16.12
  L 19.25 51.86
  A 0.37 0.37 0.0 0 0 19.62 52.23
  L 47.02 52.23
  A 0.37 0.37 0.0 0 0 47.39 51.86
  L 47.39 23.63
  A 0.37 0.37 0.0 0 0 47.02 23.26
  L 40.07 23.26
  A 0.37 0.37 0.0 0 1 39.70 22.89
  L 39.70 16.12
  Z
  M 42.12 20.90
  C 42.17 20.95 42.27 21.03 42.35 21.03
  Q 44.82 21.07 46.70 20.91
  A 0.29 0.28 61.8 0 0 46.85 20.40
  Q 46.09 19.79 44.65 18.36
  Q 43.21 16.93 42.59 16.17
  A 0.29 0.28 27.8 0 0 42.08 16.32
  Q 41.94 18.20 41.99 20.67
  C 41.99 20.75 42.07 20.86 42.12 20.90
  Z"
/>
<path fill="#eff1f6" d="
  M 39.70 16.12
  L 39.70 22.89
  A 0.37 0.37 0.0 0 0 40.07 23.26
  L 47.02 23.26
  A 0.37 0.37 0.0 0 1 47.39 23.63
  L 47.39 51.86
  A 0.37 0.37 0.0 0 1 47.02 52.23
  L 19.62 52.23
  A 0.37 0.37 0.0 0 1 19.25 51.86
  L 19.25 16.12
  A 0.37 0.37 0.0 0 1 19.62 15.75
  L 39.33 15.75
  A 0.37 0.37 0.0 0 1 39.70 16.12
  Z
  M 34.2209 20.6593
  A 0.58 0.58 0.0 0 0 33.6419 20.0783
  L 24.1019 20.0617
  A 0.58 0.58 0.0 0 0 23.5209 20.6407
  L 23.5191 21.6407
  A 0.58 0.58 0.0 0 0 24.0981 22.2217
  L 33.6381 22.2383
  A 0.58 0.58 0.0 0 0 34.2191 21.6593
  L 34.2209 20.6593
  Z
  M 34.2518 25.9476
  A 0.72 0.72 0.0 0 0 33.5368 25.2226
  L 24.2170 25.1575
  A 0.72 0.72 0.0 0 0 23.4920 25.8724
  L 23.4882 26.4124
  A 0.72 0.72 0.0 0 0 24.2032 27.1374
  L 33.5230 27.2025
  A 0.72 0.72 0.0 0 0 34.2480 26.4876
  L 34.2518 25.9476
  Z
  M 34.1695 31.1007
  A 0.72 0.72 0.0 0 0 33.4482 30.3819
  L 24.1883 30.3981
  A 0.72 0.72 0.0 0 0 23.4695 31.1193
  L 23.4705 31.6793
  A 0.72 0.72 0.0 0 0 24.1918 32.3981
  L 33.4517 32.3819
  A 0.72 0.72 0.0 0 0 34.1705 31.6607
  L 34.1695 31.1007
  Z
  M 43.1507 36.2471
  A 0.63 0.63 0.0 0 0 42.5218 35.6160
  L 24.1418 35.5840
  A 0.63 0.63 0.0 0 0 23.5107 36.2129
  L 23.5093 37.0329
  A 0.63 0.63 0.0 0 0 24.1382 37.6640
  L 42.5182 37.6960
  A 0.63 0.63 0.0 0 0 43.1493 37.0671
  L 43.1507 36.2471
  Z
  M 43.1807 41.2072
  A 0.68 0.68 0.0 0 0 42.5019 40.5260
  L 24.2020 40.4940
  A 0.68 0.68 0.0 0 0 23.5208 41.1728
  L 23.5193 42.0328
  A 0.68 0.68 0.0 0 0 24.1981 42.7140
  L 42.4980 42.7460
  A 0.68 0.68 0.0 0 0 43.1792 42.0672
  L 43.1807 41.2072
  Z
  M 43.1809 46.1471
  A 0.59 0.59 0.0 0 0 42.5919 45.5561
  L 24.1519 45.5239
  A 0.59 0.59 0.0 0 0 23.5609 46.1129
  L 23.5591 47.1129
  A 0.59 0.59 0.0 0 0 24.1481 47.7039
  L 42.5881 47.7361
  A 0.59 0.59 0.0 0 0 43.1791 47.1471
  L 43.1809 46.1471
  Z"
/>
<path fill="#eff1f6" d="
  M 44.65 18.36
  Q 46.09 19.79 46.85 20.40
  A 0.29 0.28 61.8 0 1 46.70 20.91
  Q 44.82 21.07 42.35 21.03
  C 42.27 21.03 42.17 20.95 42.12 20.90
  C 42.07 20.86 41.99 20.75 41.99 20.67
  Q 41.94 18.20 42.08 16.32
  A 0.29 0.28 27.8 0 1 42.59 16.17
  Q 43.21 16.93 44.65 18.36
  Z"
/>
<rect fill="#48a1c2" x="-5.35" y="-1.08" transform="translate(28.87,21.15) rotate(0.1)" width="10.70" height="2.16" rx="0.58"/>
<rect fill="#48a1c2" x="-5.38" y="-0.99" transform="translate(28.87,26.18) rotate(0.4)" width="10.76" height="1.98" rx="0.72"/>
<rect fill="#48a1c2" x="-5.35" y="-1.00" transform="translate(28.82,31.39) rotate(-0.1)" width="10.70" height="2.00" rx="0.72"/>
<rect fill="#48a1c2" x="-9.82" y="-1.04" transform="translate(33.33,36.64) rotate(0.1)" width="19.64" height="2.08" rx="0.63"/>
<rect fill="#48a1c2" x="-9.83" y="-1.11" transform="translate(33.35,41.62) rotate(0.1)" width="19.66" height="2.22" rx="0.68"/>
<rect fill="#48a1c2" x="-9.81" y="-1.09" transform="translate(33.37,46.63) rotate(0.1)" width="19.62" height="2.18" rx="0.59"/>
</svg>
