<?xml version="1.0" encoding="UTF-8" standalone="no"?>
<!DOCTYPE svg PUBLIC "-//W3C//DTD SVG 1.1//EN" "http://www.w3.org/Graphics/SVG/1.1/DTD/svg11.dtd">
<svg xmlns="http://www.w3.org/2000/svg" version="1.1" viewBox="0.00 0.00 66.00 88.00">
<g stroke-width="2.00" fill="none" stroke-linecap="butt">
<path stroke="#836139" vector-effect="non-scaling-stroke" d="
  M 33.39 86.69
  Q 33.52 86.69 33.61 86.67
  Q 33.63 86.66 33.76 86.54
  Q 47.50 73.78 56.66 58.17
  C 65.55 43.01 68.59 24.25 54.92 11.09
  C 49.30 5.68 41.59 2.48 33.55 2.46
  C 25.52 2.45 17.79 5.62 12.16 11.01
  C -1.56 24.12 1.40 42.89 10.24 58.08
  Q 19.34 73.73 33.03 86.54
  Q 33.16 86.66 33.18 86.67
  Q 33.27 86.69 33.39 86.69"
/>
<path stroke="#ceb9a2" vector-effect="non-scaling-stroke" d="
  M 25.10 52.23
  A 0.69 0.68 -80.5 0 0 25.75 51.76
  L 27.79 45.77
  A 0.79 0.79 0.0 0 1 28.54 45.23
  L 35.45 45.23
  A 0.76 0.75 80.1 0 1 36.16 45.73
  L 38.32 51.72
  A 0.77 0.77 0.0 0 0 39.05 52.24
  L 41.16 52.24
  A 0.43 0.43 0.0 0 0 41.56 51.66
  L 34.51 32.10
  A 1.39 1.39 0.0 0 1 35.35 30.32
  L 42.27 27.82
  A 1.18 1.17 -22.2 0 1 43.73 28.43
  L 45.33 31.89
  A 4.95 4.93 -57.4 0 1 45.78 33.95
  L 45.78 43.68
  A 0.67 0.67 0.0 0 1 44.90 44.32
  L 44.64 44.23
  A 0.72 0.72 0.0 0 0 43.69 44.91
  L 43.69 51.87
  A 0.37 0.36 90.0 0 0 44.05 52.24
  L 49.04 52.24
  A 0.29 0.29 0.0 0 0 49.33 51.95
  L 49.33 44.84
  A 0.60 0.60 0.0 0 0 48.67 44.24
  Q 48.31 44.28 48.20 44.30
  A 0.64 0.64 0.0 0 1 47.47 43.67
  L 47.47 34.21
  A 3.62 3.29 -42.3 0 1 47.53 33.57
  C 48.83 26.84 47.22 23.58 44.67 16.94
  A 1.96 1.96 0.0 0 0 42.18 15.80
  L 41.12 16.18
  A 1.86 1.85 70.2 0 0 40.01 18.55
  L 41.62 23.01
  A 0.56 0.55 69.8 0 1 41.29 23.73
  L 17.98 32.14
  A 0.84 0.84 0.0 0 0 17.42 32.93
  L 17.42 51.59
  A 0.69 0.69 0.0 0 0 18.11 52.28
  L 18.48 52.28
  A 0.65 0.64 0.0 0 0 19.13 51.64
  L 19.13 36.31
  A 0.33 0.32 -10.7 0 1 19.34 36.01
  L 29.08 32.50
  A 0.13 0.13 0.0 0 1 29.25 32.66
  L 22.74 51.78
  A 0.34 0.34 0.0 0 0 23.06 52.23
  L 25.10 52.23"
/>
<path stroke="#ceb9a2" vector-effect="non-scaling-stroke" d="
  M 31.99 42.99
  Q 33.97 42.98 34.91 42.88
  A 0.30 0.30 0.0 0 0 35.11 42.40
  Q 32.82 39.53 32.16 35.94
  Q 32.14 35.86 31.97 35.86
  Q 31.79 35.86 31.78 35.95
  Q 31.14 39.54 28.87 42.42
  A 0.30 0.30 0.0 0 0 29.07 42.91
  Q 30.02 43.00 31.99 42.99"
/>
</g>
<path fill="#594124" d="
  M 33.78 88.00
  L 33.03 88.00
  C 21.85 77.84 11.95 65.51 5.59 51.43
  Q 0.21 39.50 2.07 26.80
  Q 3.03 20.24 7.93 13.94
  Q 17.00 2.28 32.04 1.34
  C 38.34 0.94 45.98 2.95 51.41 6.73
  Q 68.27 18.45 64.83 40.11
  Q 63.46 48.71 57.54 58.84
  Q 47.97 75.17 33.78 88.00
  Z
  M 33.39 86.69
  Q 33.52 86.69 33.61 86.67
  Q 33.63 86.66 33.76 86.54
  Q 47.50 73.78 56.66 58.17
  C 65.55 43.01 68.59 24.25 54.92 11.09
  C 49.30 5.68 41.59 2.48 33.55 2.46
  C 25.52 2.45 17.79 5.62 12.16 11.01
  C -1.56 24.12 1.40 42.89 10.24 58.08
  Q 19.34 73.73 33.03 86.54
  Q 33.16 86.66 33.18 86.67
  Q 33.27 86.69 33.39 86.69
  Z"
/>
<path fill="#ac804d" d="
  M 33.55 2.46
  C 41.59 2.48 49.30 5.68 54.92 11.09
  C 68.59 24.25 65.55 43.01 56.66 58.17
  Q 47.50 73.78 33.76 86.54
  Q 33.63 86.66 33.61 86.67
  Q 33.52 86.69 33.39 86.69
  Q 33.27 86.69 33.18 86.67
  Q 33.16 86.66 33.03 86.54
  Q 19.34 73.73 10.24 58.08
  C 1.40 42.89 -1.56 24.12 12.16 11.01
  C 17.79 5.62 25.52 2.45 33.55 2.46
  Z
  M 25.10 52.23
  A 0.69 0.68 -80.5 0 0 25.75 51.76
  L 27.79 45.77
  A 0.79 0.79 0.0 0 1 28.54 45.23
  L 35.45 45.23
  A 0.76 0.75 80.1 0 1 36.16 45.73
  L 38.32 51.72
  A 0.77 0.77 0.0 0 0 39.05 52.24
  L 41.16 52.24
  A 0.43 0.43 0.0 0 0 41.56 51.66
  L 34.51 32.10
  A 1.39 1.39 0.0 0 1 35.35 30.32
  L 42.27 27.82
  A 1.18 1.17 -22.2 0 1 43.73 28.43
  L 45.33 31.89
  A 4.95 4.93 -57.4 0 1 45.78 33.95
  L 45.78 43.68
  A 0.67 0.67 0.0 0 1 44.90 44.32
  L 44.64 44.23
  A 0.72 0.72 0.0 0 0 43.69 44.91
  L 43.69 51.87
  A 0.37 0.36 90.0 0 0 44.05 52.24
  L 49.04 52.24
  A 0.29 0.29 0.0 0 0 49.33 51.95
  L 49.33 44.84
  A 0.60 0.60 0.0 0 0 48.67 44.24
  Q 48.31 44.28 48.20 44.30
  A 0.64 0.64 0.0 0 1 47.47 43.67
  L 47.47 34.21
  A 3.62 3.29 -42.3 0 1 47.53 33.57
  C 48.83 26.84 47.22 23.58 44.67 16.94
  A 1.96 1.96 0.0 0 0 42.18 15.80
  L 41.12 16.18
  A 1.86 1.85 70.2 0 0 40.01 18.55
  L 41.62 23.01
  A 0.56 0.55 69.8 0 1 41.29 23.73
  L 17.98 32.14
  A 0.84 0.84 0.0 0 0 17.42 32.93
  L 17.42 51.59
  A 0.69 0.69 0.0 0 0 18.11 52.28
  L 18.48 52.28
  A 0.65 0.64 0.0 0 0 19.13 51.64
  L 19.13 36.31
  A 0.33 0.32 -10.7 0 1 19.34 36.01
  L 29.08 32.50
  A 0.13 0.13 0.0 0 1 29.25 32.66
  L 22.74 51.78
  A 0.34 0.34 0.0 0 0 23.06 52.23
  L 25.10 52.23
  Z"
/>
<path fill="#eff1f6" d="
  M 22.74 51.78
  L 29.25 32.66
  A 0.13 0.13 0.0 0 0 29.08 32.50
  L 19.34 36.01
  A 0.33 0.32 -10.7 0 0 19.13 36.31
  L 19.13 51.64
  A 0.65 0.64 -0.0 0 1 18.48 52.28
  L 18.11 52.28
  A 0.69 0.69 0.0 0 1 17.42 51.59
  L 17.42 32.93
  A 0.84 0.84 0.0 0 1 17.98 32.14
  L 41.29 23.73
  A 0.56 0.55 69.8 0 0 41.62 23.01
  L 40.01 18.55
  A 1.86 1.85 70.2 0 1 41.12 16.18
  L 42.18 15.80
  A 1.96 1.96 0.0 0 1 44.67 16.94
  C 47.22 23.58 48.83 26.84 47.53 33.57
  A 3.62 3.29 -42.3 0 0 47.47 34.21
  L 47.47 43.67
  A 0.64 0.64 0.0 0 0 48.20 44.30
  Q 48.31 44.28 48.67 44.24
  A 0.60 0.60 0.0 0 1 49.33 44.84
  L 49.33 51.95
  A 0.29 0.29 0.0 0 1 49.04 52.24
  L 44.05 52.24
  A 0.37 0.36 90.0 0 1 43.69 51.87
  L 43.69 44.91
  A 0.72 0.72 0.0 0 1 44.64 44.23
  L 44.90 44.32
  A 0.67 0.67 0.0 0 0 45.78 43.68
  L 45.78 33.95
  A 4.95 4.93 -57.4 0 0 45.33 31.89
  L 43.73 28.43
  A 1.18 1.17 -22.2 0 0 42.27 27.82
  L 35.35 30.32
  A 1.39 1.39 0.0 0 0 34.51 32.10
  L 41.56 51.66
  A 0.43 0.43 0.0 0 1 41.16 52.24
  L 39.05 52.24
  A 0.77 0.77 0.0 0 1 38.32 51.72
  L 36.16 45.73
  A 0.76 0.75 80.1 0 0 35.45 45.23
  L 28.54 45.23
  A 0.79 0.79 0.0 0 0 27.79 45.77
  L 25.75 51.76
  A 0.69 0.68 -80.5 0 1 25.10 52.23
  L 23.06 52.23
  A 0.34 0.34 0.0 0 1 22.74 51.78
  Z
  M 31.99 42.99
  Q 33.97 42.98 34.91 42.88
  A 0.30 0.30 0.0 0 0 35.11 42.40
  Q 32.82 39.53 32.16 35.94
  Q 32.14 35.86 31.97 35.86
  Q 31.79 35.86 31.78 35.95
  Q 31.14 39.54 28.87 42.42
  A 0.30 0.30 0.0 0 0 29.07 42.91
  Q 30.02 43.00 31.99 42.99
  Z"
/>
<path fill="#ac804d" d="
  M 31.97 35.86
  Q 32.14 35.86 32.16 35.94
  Q 32.82 39.53 35.11 42.40
  A 0.30 0.30 0.0 0 1 34.91 42.88
  Q 33.97 42.98 31.99 42.99
  Q 30.02 43.00 29.07 42.91
  A 0.30 0.30 0.0 0 1 28.87 42.42
  Q 31.14 39.54 31.78 35.95
  Q 31.79 35.86 31.97 35.86
  Z"
/>
</svg>
