<?xml version="1.0" encoding="UTF-8" standalone="no"?>
<!DOCTYPE svg PUBLIC "-//W3C//DTD SVG 1.1//EN" "http://www.w3.org/Graphics/SVG/1.1/DTD/svg11.dtd">
<svg xmlns="http://www.w3.org/2000/svg" version="1.1" viewBox="0.00 0.00 66.00 88.00">
<g stroke-width="2.00" fill="none" stroke-linecap="butt">
<path stroke="#836139" vector-effect="non-scaling-stroke" d="
  M 33.39 86.69
  Q 33.50 86.69 33.60 86.67
  Q 33.62 86.66 33.75 86.54
  C 47.14 74.02 60.78 56.95 63.82 38.81
  C 67.02 19.80 53.67 3.44 34.50 2.48
  Q 34.03 2.46 33.55 2.46
  Q 33.08 2.46 32.61 2.48
  C 13.44 3.36 0.02 19.67 3.14 38.69
  C 6.11 56.84 19.68 73.96 33.02 86.54
  Q 33.15 86.66 33.17 86.66
  Q 33.27 86.69 33.39 86.69"
/>
<path stroke="#ceb9a2" vector-effect="non-scaling-stroke" d="
  M 47.23 36.02
  L 41.87 40.30
  A 2.36 2.29 -5.9 0 0 41.29 40.99
  L 38.43 46.31
  A 0.29 0.29 0.0 0 0 38.69 46.73
  L 41.84 46.73
  A 1.40 1.40 0.0 0 0 42.83 46.32
  Q 47.39 41.75 48.35 40.84
  Q 49.17 40.07 51.05 35.25
  A 0.84 0.83 31.4 0 0 50.82 34.31
  L 44.00 28.41
  A 1.72 1.67 64.6 0 0 42.90 28.00
  L 38.19 28.00
  A 1.13 1.09 -23.8 0 1 37.46 27.73
  L 31.27 22.38
  A 0.96 0.96 0.0 0 0 30.21 22.25
  Q 25.29 24.69 20.24 24.64
  A 1.09 1.08 17.8 0 0 19.33 25.10
  L 15.04 31.18
  A 1.69 1.65 -32.5 0 0 14.76 32.38
  L 16.33 43.15
  A 1.10 1.09 7.3 0 0 16.99 44.00
  L 23.32 46.67
  A 0.80 0.71 -30.1 0 0 23.62 46.73
  L 33.40 46.73
  A 0.52 0.52 0.0 0 0 33.85 46.47
  L 38.05 39.20
  A 0.95 0.91 -83.2 0 1 38.56 38.78
  L 47.08 35.75
  A 0.16 0.16 0.0 0 1 47.23 36.02"
/>
<path stroke="#ceb9a2" vector-effect="non-scaling-stroke" d="
  M 40.34 29.62
  L 36.92 30.12
  A 2.06 2.04 -28.5 0 1 35.27 29.64
  L 31.50 26.38
  A 0.34 0.33 -79.6 0 0 30.97 26.75
  L 32.55 31.20
  A 0.59 0.58 65.5 0 1 32.29 31.91
  L 28.41 34.15
  A 0.92 0.92 0.0 0 0 27.96 35.08
  L 29.04 42.45
  A 0.15 0.15 0.0 0 0 29.33 42.47
  L 30.89 36.78
  A 2.40 2.38 82.8 0 1 32.00 35.34
  L 40.60 30.37
  A 0.40 0.40 0.0 0 0 40.34 29.62"
/>
<path stroke="#ceb9a2" vector-effect="non-scaling-stroke" d="
  M 22.10 28.11
  L 17.31 33.65
  A 1.05 1.05 0.0 0 0 17.19 34.86
  L 22.25 43.63
  A 0.11 0.11 0.0 0 0 22.45 43.55
  L 20.64 35.97
  A 4.34 4.26 -44.5 0 1 20.68 33.85
  L 22.23 28.18
  A 0.08 0.08 0.0 0 0 22.10 28.11"
/>
</g>
<path fill="#594124" d="
  M 33.81 88.00
  L 33.12 88.00
  Q 16.20 72.94 6.12 52.87
  Q 4.23 49.12 2.45 41.41
  C -0.37 29.28 2.97 17.45 12.38 9.15
  C 21.55 1.07 35.66 -1.13 46.98 4.30
  Q 61.64 11.33 64.87 26.77
  C 67.51 39.40 61.52 53.79 54.15 64.60
  Q 45.39 77.44 33.81 88.00
  Z
  M 33.39 86.69
  Q 33.50 86.69 33.60 86.67
  Q 33.62 86.66 33.75 86.54
  C 47.14 74.02 60.78 56.95 63.82 38.81
  C 67.02 19.80 53.67 3.44 34.50 2.48
  Q 34.03 2.46 33.55 2.46
  Q 33.08 2.46 32.61 2.48
  C 13.44 3.36 0.02 19.67 3.14 38.69
  C 6.11 56.84 19.68 73.96 33.02 86.54
  Q 33.15 86.66 33.17 86.66
  Q 33.27 86.69 33.39 86.69
  Z"
/>
<path fill="#ac804d" d="
  M 33.55 2.46
  Q 34.03 2.46 34.50 2.48
  C 53.67 3.44 67.02 19.80 63.82 38.81
  C 60.78 56.95 47.14 74.02 33.75 86.54
  Q 33.62 86.66 33.60 86.67
  Q 33.50 86.69 33.39 86.69
  Q 33.27 86.69 33.17 86.66
  Q 33.15 86.66 33.02 86.54
  C 19.68 73.96 6.11 56.84 3.14 38.69
  C 0.02 19.67 13.44 3.36 32.61 2.48
  Q 33.08 2.46 33.55 2.46
  Z
  M 47.23 36.02
  L 41.87 40.30
  A 2.36 2.29 -5.9 0 0 41.29 40.99
  L 38.43 46.31
  A 0.29 0.29 0.0 0 0 38.69 46.73
  L 41.84 46.73
  A 1.40 1.40 0.0 0 0 42.83 46.32
  Q 47.39 41.75 48.35 40.84
  Q 49.17 40.07 51.05 35.25
  A 0.84 0.83 31.4 0 0 50.82 34.31
  L 44.00 28.41
  A 1.72 1.67 64.6 0 0 42.90 28.00
  L 38.19 28.00
  A 1.13 1.09 -23.8 0 1 37.46 27.73
  L 31.27 22.38
  A 0.96 0.96 0.0 0 0 30.21 22.25
  Q 25.29 24.69 20.24 24.64
  A 1.09 1.08 17.8 0 0 19.33 25.10
  L 15.04 31.18
  A 1.69 1.65 -32.5 0 0 14.76 32.38
  L 16.33 43.15
  A 1.10 1.09 7.3 0 0 16.99 44.00
  L 23.32 46.67
  A 0.80 0.71 -30.1 0 0 23.62 46.73
  L 33.40 46.73
  A 0.52 0.52 0.0 0 0 33.85 46.47
  L 38.05 39.20
  A 0.95 0.91 -83.2 0 1 38.56 38.78
  L 47.08 35.75
  A 0.16 0.16 0.0 0 1 47.23 36.02
  Z"
/>
<path fill="#eff1f6" d="
  M 47.08 35.75
  L 38.56 38.78
  A 0.95 0.91 -83.2 0 0 38.05 39.20
  L 33.85 46.47
  A 0.52 0.52 0.0 0 1 33.40 46.73
  L 23.62 46.73
  A 0.80 0.71 -30.1 0 1 23.32 46.67
  L 16.99 44.00
  A 1.10 1.09 7.3 0 1 16.33 43.15
  L 14.76 32.38
  A 1.69 1.65 -32.5 0 1 15.04 31.18
  L 19.33 25.10
  A 1.09 1.08 17.8 0 1 20.24 24.64
  Q 25.29 24.69 30.21 22.25
  A 0.96 0.96 0.0 0 1 31.27 22.38
  L 37.46 27.73
  A 1.13 1.09 -23.8 0 0 38.19 28.00
  L 42.90 28.00
  A 1.72 1.67 64.6 0 1 44.00 28.41
  L 50.82 34.31
  A 0.84 0.83 31.4 0 1 51.05 35.25
  Q 49.17 40.07 48.35 40.84
  Q 47.39 41.75 42.83 46.32
  A 1.40 1.40 0.0 0 1 41.84 46.73
  L 38.69 46.73
  A 0.29 0.29 0.0 0 1 38.43 46.31
  L 41.29 40.99
  A 2.36 2.29 -5.9 0 1 41.87 40.30
  L 47.23 36.02
  A 0.16 0.16 0.0 0 0 47.08 35.75
  Z
  M 40.34 29.62
  L 36.92 30.12
  A 2.06 2.04 -28.5 0 1 35.27 29.64
  L 31.50 26.38
  A 0.34 0.33 -79.6 0 0 30.97 26.75
  L 32.55 31.20
  A 0.59 0.58 65.5 0 1 32.29 31.91
  L 28.41 34.15
  A 0.92 0.92 0.0 0 0 27.96 35.08
  L 29.04 42.45
  A 0.15 0.15 0.0 0 0 29.33 42.47
  L 30.89 36.78
  A 2.40 2.38 82.8 0 1 32.00 35.34
  L 40.60 30.37
  A 0.40 0.40 0.0 0 0 40.34 29.62
  Z
  M 22.10 28.11
  L 17.31 33.65
  A 1.05 1.05 0.0 0 0 17.19 34.86
  L 22.25 43.63
  A 0.11 0.11 0.0 0 0 22.45 43.55
  L 20.64 35.97
  A 4.34 4.26 -44.5 0 1 20.68 33.85
  L 22.23 28.18
  A 0.08 0.08 0.0 0 0 22.10 28.11
  Z"
/>
<path fill="#ac804d" d="
  M 40.60 30.37
  L 32.00 35.34
  A 2.40 2.38 82.8 0 0 30.89 36.78
  L 29.33 42.47
  A 0.15 0.15 0.0 0 1 29.04 42.45
  L 27.96 35.08
  A 0.92 0.92 0.0 0 1 28.41 34.15
  L 32.29 31.91
  A 0.59 0.58 65.5 0 0 32.55 31.20
  L 30.97 26.75
  A 0.34 0.33 -79.6 0 1 31.50 26.38
  L 35.27 29.64
  A 2.06 2.04 -28.5 0 0 36.92 30.12
  L 40.34 29.62
  A 0.40 0.40 0.0 0 1 40.60 30.37
  Z"
/>
<path fill="#ac804d" d="
  M 22.23 28.18
  L 20.68 33.85
  A 4.34 4.26 -44.5 0 0 20.64 35.97
  L 22.45 43.55
  A 0.11 0.11 0.0 0 1 22.25 43.63
  L 17.19 34.86
  A 1.05 1.05 0.0 0 1 17.31 33.65
  L 22.10 28.11
  A 0.08 0.08 0.0 0 1 22.23 28.18
  Z"
/>
</svg>
