<?xml version="1.0" encoding="UTF-8" standalone="no"?>
<!DOCTYPE svg PUBLIC "-//W3C//DTD SVG 1.1//EN" "http://www.w3.org/Graphics/SVG/1.1/DTD/svg11.dtd">
<svg xmlns="http://www.w3.org/2000/svg" version="1.1" viewBox="0.00 0.00 66.00 88.00">
<g stroke-width="2.00" fill="none" stroke-linecap="butt">
<path stroke="#293748" vector-effect="non-scaling-stroke" d="
  M 33.43 86.60
  C 34.16 86.60 33.57 86.65 33.78 86.45
  C 50.37 71.17 75.46 39.26 58.92 15.83
  Q 49.91 3.08 33.75 2.51
  Q 33.56 2.50 33.49 2.50
  Q 33.42 2.50 33.23 2.50
  Q 17.07 3.06 8.04 15.79
  C -8.53 39.20 16.51 71.15 33.08 86.45
  C 33.29 86.65 32.70 86.60 33.43 86.60"
/>
<path stroke="#939daa" vector-effect="non-scaling-stroke" d="
  M 50.00 28.72
  L 45.78 30.42
  A 0.44 0.43 67.2 0 1 45.21 30.18
  L 45.07 29.82
  A 0.57 0.56 65.9 0 1 45.34 29.10
  L 51.41 26.14
  A 0.58 0.53 -84.7 0 0 51.65 25.92
  L 52.25 24.88
  A 0.32 0.31 4.2 0 0 51.86 24.43
  L 42.64 28.15
  A 4.34 3.51 -11.9 0 0 42.10 28.42
  L 35.98 32.01
  A 0.62 0.60 36.5 0 1 35.53 32.07
  Q 34.69 31.86 34.56 30.78
  Q 34.49 30.12 35.08 30.04
  Q 35.59 29.97 36.18 30.51
  A 0.32 0.31 55.2 0 0 36.49 30.57
  Q 36.66 30.50 36.72 30.27
  Q 36.79 29.95 36.62 29.75
  Q 34.67 27.44 31.96 28.54
  A 0.91 0.91 0.0 0 0 31.40 29.26
  L 31.07 31.62
  A 0.60 0.60 0.0 0 1 30.18 32.06
  L 22.83 27.82
  A 3.79 3.41 -19.7 0 0 21.88 27.43
  Q 18.24 26.55 14.30 24.26
  A 0.36 0.35 4.0 0 0 13.79 24.70
  L 14.07 25.40
  A 1.78 1.74 2.6 0 0 14.93 26.32
  L 20.79 29.17
  A 0.35 0.34 17.0 0 1 20.98 29.52
  L 20.93 29.87
  A 0.42 0.42 0.0 0 1 20.40 30.21
  L 16.10 28.98
  A 0.38 0.38 0.0 0 0 15.63 29.46
  Q 15.89 30.26 17.00 31.50
  A 0.71 0.70 -20.5 0 0 17.53 31.74
  L 21.20 31.78
  A 0.70 0.70 0.0 0 1 21.51 33.10
  Q 20.76 33.49 19.91 33.42
  A 0.58 0.58 0.0 0 0 19.48 34.43
  Q 21.29 36.02 22.57 34.73
  A 0.67 0.65 -9.3 0 1 23.65 35.48
  Q 23.48 35.80 23.35 36.37
  A 0.57 0.56 9.8 0 0 23.83 37.05
  L 30.41 37.97
  A 0.56 0.56 0.0 0 1 30.68 38.96
  L 28.94 40.32
  A 0.65 0.65 0.0 0 0 28.94 41.34
  L 32.45 44.08
  A 0.90 0.89 -44.7 0 0 33.54 44.08
  L 36.86 41.49
  A 0.61 0.60 -37.8 0 0 36.97 40.65
  L 35.38 38.62
  A 0.40 0.40 0.0 0 1 35.64 37.98
  L 42.13 37.04
  A 0.59 0.59 0.0 0 0 42.58 36.22
  Q 42.20 35.35 42.25 34.99
  A 0.55 0.54 -71.8 0 1 43.05 34.58
  L 44.26 35.25
  A 0.95 0.94 -41.3 0 0 45.11 35.30
  Q 46.37 34.77 46.64 34.07
  A 0.45 0.45 0.0 0 0 46.28 33.45
  L 44.73 33.23
  A 0.71 0.71 0.0 0 1 44.82 31.81
  L 48.40 31.76
  A 0.80 0.78 21.3 0 0 48.97 31.52
  Q 49.90 30.60 50.48 29.21
  A 0.37 0.37 0.0 0 0 50.00 28.72"
/>
</g>
<path fill="#1a2631" d="
  M 33.80 88.00
  L 33.04 88.00
  C 16.72 73.27 -6.24 44.25 4.00 20.56
  Q 7.76 11.88 15.85 6.54
  C 27.42 -1.07 44.20 -0.48 54.88 9.40
  Q 68.10 21.64 64.83 39.76
  Q 62.58 52.25 54.57 64.07
  Q 45.67 77.20 33.80 88.00
  Z
  M 33.43 86.60
  C 34.16 86.60 33.57 86.65 33.78 86.45
  C 50.37 71.17 75.46 39.26 58.92 15.83
  Q 49.91 3.08 33.75 2.51
  Q 33.56 2.50 33.49 2.50
  Q 33.42 2.50 33.23 2.50
  Q 17.07 3.06 8.04 15.79
  C -8.53 39.20 16.51 71.15 33.08 86.45
  C 33.29 86.65 32.70 86.60 33.43 86.60
  Z"
/>
<path fill="#37485e" d="
  M 33.49 2.50
  Q 33.56 2.50 33.75 2.51
  Q 49.91 3.08 58.92 15.83
  C 75.46 39.26 50.37 71.17 33.78 86.45
  C 33.57 86.65 34.16 86.60 33.43 86.60
  C 32.70 86.60 33.29 86.65 33.08 86.45
  C 16.51 71.15 -8.53 39.20 8.04 15.79
  Q 17.07 3.06 33.23 2.50
  Q 33.42 2.50 33.49 2.50
  Z
  M 50.00 28.72
  L 45.78 30.42
  A 0.44 0.43 67.2 0 1 45.21 30.18
  L 45.07 29.82
  A 0.57 0.56 65.9 0 1 45.34 29.10
  L 51.41 26.14
  A 0.58 0.53 -84.7 0 0 51.65 25.92
  L 52.25 24.88
  A 0.32 0.31 4.2 0 0 51.86 24.43
  L 42.64 28.15
  A 4.34 3.51 -11.9 0 0 42.10 28.42
  L 35.98 32.01
  A 0.62 0.60 36.5 0 1 35.53 32.07
  Q 34.69 31.86 34.56 30.78
  Q 34.49 30.12 35.08 30.04
  Q 35.59 29.97 36.18 30.51
  A 0.32 0.31 55.2 0 0 36.49 30.57
  Q 36.66 30.50 36.72 30.27
  Q 36.79 29.95 36.62 29.75
  Q 34.67 27.44 31.96 28.54
  A 0.91 0.91 0.0 0 0 31.40 29.26
  L 31.07 31.62
  A 0.60 0.60 0.0 0 1 30.18 32.06
  L 22.83 27.82
  A 3.79 3.41 -19.7 0 0 21.88 27.43
  Q 18.24 26.55 14.30 24.26
  A 0.36 0.35 4.0 0 0 13.79 24.70
  L 14.07 25.40
  A 1.78 1.74 2.6 0 0 14.93 26.32
  L 20.79 29.17
  A 0.35 0.34 17.0 0 1 20.98 29.52
  L 20.93 29.87
  A 0.42 0.42 0.0 0 1 20.40 30.21
  L 16.10 28.98
  A 0.38 0.38 0.0 0 0 15.63 29.46
  Q 15.89 30.26 17.00 31.50
  A 0.71 0.70 -20.5 0 0 17.53 31.74
  L 21.20 31.78
  A 0.70 0.70 0.0 0 1 21.51 33.10
  Q 20.76 33.49 19.91 33.42
  A 0.58 0.58 0.0 0 0 19.48 34.43
  Q 21.29 36.02 22.57 34.73
  A 0.67 0.65 -9.3 0 1 23.65 35.48
  Q 23.48 35.80 23.35 36.37
  A 0.57 0.56 9.8 0 0 23.83 37.05
  L 30.41 37.97
  A 0.56 0.56 0.0 0 1 30.68 38.96
  L 28.94 40.32
  A 0.65 0.65 0.0 0 0 28.94 41.34
  L 32.45 44.08
  A 0.90 0.89 -44.7 0 0 33.54 44.08
  L 36.86 41.49
  A 0.61 0.60 -37.8 0 0 36.97 40.65
  L 35.38 38.62
  A 0.40 0.40 0.0 0 1 35.64 37.98
  L 42.13 37.04
  A 0.59 0.59 0.0 0 0 42.58 36.22
  Q 42.20 35.35 42.25 34.99
  A 0.55 0.54 -71.8 0 1 43.05 34.58
  L 44.26 35.25
  A 0.95 0.94 -41.3 0 0 45.11 35.30
  Q 46.37 34.77 46.64 34.07
  A 0.45 0.45 0.0 0 0 46.28 33.45
  L 44.73 33.23
  A 0.71 0.71 0.0 0 1 44.82 31.81
  L 48.40 31.76
  A 0.80 0.78 21.3 0 0 48.97 31.52
  Q 49.90 30.60 50.48 29.21
  A 0.37 0.37 0.0 0 0 50.00 28.72
  Z"
/>
<path fill="#eff1f6" d="
  M 50.48 29.21
  Q 49.90 30.60 48.97 31.52
  A 0.80 0.78 21.3 0 1 48.40 31.76
  L 44.82 31.81
  A 0.71 0.71 0.0 0 0 44.73 33.23
  L 46.28 33.45
  A 0.45 0.45 0.0 0 1 46.64 34.07
  Q 46.37 34.77 45.11 35.30
  A 0.95 0.94 -41.3 0 1 44.26 35.25
  L 43.05 34.58
  A 0.55 0.54 -71.8 0 0 42.25 34.99
  Q 42.20 35.35 42.58 36.22
  A 0.59 0.59 0.0 0 1 42.13 37.04
  L 35.64 37.98
  A 0.40 0.40 0.0 0 0 35.38 38.62
  L 36.97 40.65
  A 0.61 0.60 -37.8 0 1 36.86 41.49
  L 33.54 44.08
  A 0.90 0.89 -44.7 0 1 32.45 44.08
  L 28.94 41.34
  A 0.65 0.65 0.0 0 1 28.94 40.32
  L 30.68 38.96
  A 0.56 0.56 0.0 0 0 30.41 37.97
  L 23.83 37.05
  A 0.57 0.56 9.8 0 1 23.35 36.37
  Q 23.48 35.80 23.65 35.48
  A 0.67 0.65 -9.3 0 0 22.57 34.73
  Q 21.29 36.02 19.48 34.43
  A 0.58 0.58 0.0 0 1 19.91 33.42
  Q 20.76 33.49 21.51 33.10
  A 0.70 0.70 0.0 0 0 21.20 31.78
  L 17.53 31.74
  A 0.71 0.70 -20.5 0 1 17.00 31.50
  Q 15.89 30.26 15.63 29.46
  A 0.38 0.38 0.0 0 1 16.10 28.98
  L 20.40 30.21
  A 0.42 0.42 0.0 0 0 20.93 29.87
  L 20.98 29.52
  A 0.35 0.34 17.0 0 0 20.79 29.17
  L 14.93 26.32
  A 1.78 1.74 2.6 0 1 14.07 25.40
  L 13.79 24.70
  A 0.36 0.35 4.0 0 1 14.30 24.26
  Q 18.24 26.55 21.88 27.43
  A 3.79 3.41 -19.7 0 1 22.83 27.82
  L 30.18 32.06
  A 0.60 0.60 0.0 0 0 31.07 31.62
  L 31.40 29.26
  A 0.91 0.91 0.0 0 1 31.96 28.54
  Q 34.67 27.44 36.62 29.75
  Q 36.79 29.95 36.72 30.27
  Q 36.66 30.50 36.49 30.57
  A 0.32 0.31 55.2 0 1 36.18 30.51
  Q 35.59 29.97 35.08 30.04
  Q 34.49 30.12 34.56 30.78
  Q 34.69 31.86 35.53 32.07
  A 0.62 0.60 36.5 0 0 35.98 32.01
  L 42.10 28.42
  A 4.34 3.51 -11.9 0 1 42.64 28.15
  L 51.86 24.43
  A 0.32 0.31 4.2 0 1 52.25 24.88
  L 51.65 25.92
  A 0.58 0.53 -84.7 0 1 51.41 26.14
  L 45.34 29.10
  A 0.57 0.56 65.9 0 0 45.07 29.82
  L 45.21 30.18
  A 0.44 0.43 67.2 0 0 45.78 30.42
  L 50.00 28.72
  A 0.37 0.37 0.0 0 1 50.48 29.21
  Z"
/>
</svg>
