<?xml version="1.0" encoding="UTF-8" standalone="no"?>
<!DOCTYPE svg PUBLIC "-//W3C//DTD SVG 1.1//EN" "http://www.w3.org/Graphics/SVG/1.1/DTD/svg11.dtd">
<svg xmlns="http://www.w3.org/2000/svg" version="1.1" viewBox="0.00 0.00 66.00 88.00">
<g stroke-width="2.00" fill="none" stroke-linecap="butt">
<path stroke="#293748" vector-effect="non-scaling-stroke" d="
  M 33.43 86.59
  C 34.05 86.59 33.59 86.64 33.79 86.45
  Q 47.68 73.51 56.48 58.52
  C 62.10 48.95 66.16 36.46 63.41 25.60
  C 59.96 11.98 47.54 2.53 33.50 2.52
  C 19.46 2.51 7.03 11.94 3.55 25.56
  C 0.78 36.41 4.82 48.91 10.43 58.48
  Q 19.21 73.49 33.08 86.45
  C 33.28 86.64 32.82 86.59 33.43 86.59"
/>
<path stroke="#939daa" vector-effect="non-scaling-stroke" d="
  M 15.31 51.66
  Q 15.44 51.79 28.14 42.24
  A 0.53 0.53 0.0 0 1 28.83 42.29
  Q 32.64 46.10 35.69 49.05
  C 36.95 50.26 38.18 50.39 39.36 49.20
  A 1.39 1.38 -22.4 0 0 39.74 48.30
  C 39.94 41.44 41.14 34.45 47.25 30.76
  Q 48.97 29.72 50.28 28.92
  A 2.16 2.15 52.3 0 0 50.70 25.59
  Q 48.43 23.22 46.13 20.92
  Q 43.83 18.61 41.47 16.33
  A 2.16 2.15 37.9 0 0 38.14 16.75
  Q 37.33 18.05 36.29 19.77
  C 32.58 25.87 25.59 27.05 18.73 27.24
  A 1.39 1.38 -67.5 0 0 17.83 27.61
  C 16.64 28.79 16.76 30.02 17.97 31.28
  Q 20.91 34.34 24.71 38.16
  A 0.53 0.53 0.0 0 1 24.76 38.85
  Q 15.18 51.52 15.31 51.66"
/>
</g>
<path fill="#1b2631" d="
  M 33.81 88.00
  L 33.04 88.00
  C 21.73 77.73 12.18 65.73 5.66 51.57
  Q 0.16 39.60 2.09 26.84
  Q 3.24 19.18 9.18 12.42
  C 19.70 0.43 37.03 -2.25 50.72 6.30
  Q 58.20 10.98 62.17 18.84
  C 74.39 43.02 50.51 72.74 33.81 88.00
  Z
  M 33.43 86.59
  C 34.05 86.59 33.59 86.64 33.79 86.45
  Q 47.68 73.51 56.48 58.52
  C 62.10 48.95 66.16 36.46 63.41 25.60
  C 59.96 11.98 47.54 2.53 33.50 2.52
  C 19.46 2.51 7.03 11.94 3.55 25.56
  C 0.78 36.41 4.82 48.91 10.43 58.48
  Q 19.21 73.49 33.08 86.45
  C 33.28 86.64 32.82 86.59 33.43 86.59
  Z"
/>
<path fill="#37485e" d="
  M 33.50 2.52
  C 47.54 2.53 59.96 11.98 63.41 25.60
  C 66.16 36.46 62.10 48.95 56.48 58.52
  Q 47.68 73.51 33.79 86.45
  C 33.59 86.64 34.05 86.59 33.43 86.59
  C 32.82 86.59 33.28 86.64 33.08 86.45
  Q 19.21 73.49 10.43 58.48
  C 4.82 48.91 0.78 36.41 3.55 25.56
  C 7.03 11.94 19.46 2.51 33.50 2.52
  Z
  M 15.31 51.66
  Q 15.44 51.79 28.14 42.24
  A 0.53 0.53 0.0 0 1 28.83 42.29
  Q 32.64 46.10 35.69 49.05
  C 36.95 50.26 38.18 50.39 39.36 49.20
  A 1.39 1.38 -22.4 0 0 39.74 48.30
  C 39.94 41.44 41.14 34.45 47.25 30.76
  Q 48.97 29.72 50.28 28.92
  A 2.16 2.15 52.3 0 0 50.70 25.59
  Q 48.43 23.22 46.13 20.92
  Q 43.83 18.61 41.47 16.33
  A 2.16 2.15 37.9 0 0 38.14 16.75
  Q 37.33 18.05 36.29 19.77
  C 32.58 25.87 25.59 27.05 18.73 27.24
  A 1.39 1.38 -67.5 0 0 17.83 27.61
  C 16.64 28.79 16.76 30.02 17.97 31.28
  Q 20.91 34.34 24.71 38.16
  A 0.53 0.53 0.0 0 1 24.76 38.85
  Q 15.18 51.52 15.31 51.66
  Z"
/>
<path fill="#eff1f6" d="
  M 46.13 20.92
  Q 48.43 23.22 50.70 25.59
  A 2.16 2.15 52.3 0 1 50.28 28.92
  Q 48.97 29.72 47.25 30.76
  C 41.14 34.45 39.94 41.44 39.74 48.30
  A 1.39 1.38 -22.4 0 1 39.36 49.20
  C 38.18 50.39 36.95 50.26 35.69 49.05
  Q 32.64 46.10 28.83 42.29
  A 0.53 0.53 0.0 0 0 28.14 42.24
  Q 15.44 51.79 15.31 51.66
  Q 15.18 51.52 24.76 38.85
  A 0.53 0.53 0.0 0 0 24.71 38.16
  Q 20.91 34.34 17.97 31.28
  C 16.76 30.02 16.64 28.79 17.83 27.61
  A 1.39 1.38 -67.5 0 1 18.73 27.24
  C 25.59 27.05 32.58 25.87 36.29 19.77
  Q 37.33 18.05 38.14 16.75
  A 2.16 2.15 37.9 0 1 41.47 16.33
  Q 43.83 18.61 46.13 20.92
  Z"
/>
</svg>
