<?xml version="1.0" encoding="UTF-8" standalone="no"?>
<!DOCTYPE svg PUBLIC "-//W3C//DTD SVG 1.1//EN" "http://www.w3.org/Graphics/SVG/1.1/DTD/svg11.dtd">
<svg xmlns="http://www.w3.org/2000/svg" version="1.1" viewBox="0.00 0.00 66.00 88.00">
<g stroke-width="2.00" fill="none" stroke-linecap="butt">
<path stroke="#9d3f3d" vector-effect="non-scaling-stroke" d="
  M 33.40 86.71
  Q 33.52 86.71 33.62 86.69
  Q 33.71 86.67 33.79 86.59
  Q 47.34 74.03 56.47 58.46
  C 64.13 45.38 68.45 28.39 58.44 15.11
  C 52.52 7.26 43.64 2.48 33.53 2.46
  C 23.42 2.45 14.53 7.20 8.59 15.04
  C -1.46 28.28 2.80 45.29 10.42 58.39
  Q 19.51 73.99 33.02 86.59
  Q 33.10 86.67 33.19 86.69
  Q 33.29 86.71 33.40 86.71"
/>
<path stroke="#dfa3a5" vector-effect="non-scaling-stroke" d="
  M 19.42 35.41
  Q 18.88 37.77 19.79 40.49
  A 1.61 1.57 -44.4 0 1 19.77 41.53
  C 15.51 53.20 34.91 53.21 40.66 51.10
  C 45.32 49.39 48.17 46.68 46.30 41.73
  A 2.24 2.24 0.0 0 1 47.00 39.17
  Q 49.03 37.58 49.22 37.45
  C 51.85 35.63 51.86 31.96 50.44 29.38
  Q 49.92 28.44 46.84 26.63
  A 0.74 0.73 -68.6 0 1 46.50 25.83
  C 47.82 19.86 43.48 17.42 38.49 16.41
  Q 28.86 14.47 21.45 18.81
  Q 20.71 19.24 19.26 21.83
  A 1.42 1.40 -86.7 0 1 18.56 22.46
  C 14.16 24.23 12.94 30.86 17.13 33.36
  Q 19.14 34.56 19.16 34.58
  A 0.85 0.84 28.0 0 1 19.42 35.41"
/>
<path stroke="#dfa3a5" vector-effect="non-scaling-stroke" d="
  M 20.4100 22.4381
  A 12.57 5.63 -179.9 0 0 32.9702 28.0900
  A 12.57 5.63 -179.9 0 0 45.5500 22.4819
  A 12.57 5.63 -179.9 0 0 32.9898 16.8300
  A 12.57 5.63 -179.9 0 0 20.4100 22.4381"
/>
<path stroke="#dfa3a5" vector-effect="non-scaling-stroke" d="
  M 18.65 23.39
  C 16.01 25.35 14.21 27.55 17.80 30.23
  C 22.45 33.70 29.75 33.48 35.03 31.79
  A 0.08 0.08 0.0 0 0 35.00 31.64
  C 30.16 32.00 19.10 30.66 19.27 23.72
  A 0.39 0.39 0.0 0 0 18.65 23.39"
/>
<path stroke="#dfa3a5" vector-effect="non-scaling-stroke" d="
  M 30.94 36.36
  A 0.11 0.11 0.0 0 0 30.94 36.58
  Q 36.30 37.82 41.19 37.16
  C 45.44 36.58 55.77 32.61 46.27 27.80
  A 0.84 0.84 0.0 0 0 45.24 28.03
  Q 44.61 28.83 42.85 29.71
  A 2.13 2.08 -89.7 0 0 41.94 30.63
  C 39.97 34.56 35.09 35.53 30.94 36.36"
/>
<path stroke="#dfa3a5" vector-effect="non-scaling-stroke" d="
  M 39.95 40.93
  L 39.18 41.14
  A 2.46 2.44 -48.4 0 1 38.25 41.20
  C 33.59 40.54 28.23 40.23 24.67 36.46
  A 1.84 1.79 -14.8 0 0 23.71 35.92
  L 21.30 35.43
  A 0.83 0.82 88.0 0 0 20.34 36.46
  C 22.10 42.85 33.65 42.19 38.22 41.70
  Q 40.07 41.50 39.97 40.94
  A 0.03 0.02 58.3 0 0 39.95 40.93"
/>
<path stroke="#dfa3a5" vector-effect="non-scaling-stroke" d="
  M 32.99 48.77
  C 37.40 48.77 40.46 48.28 44.30 45.68
  A 2.79 2.77 73.1 0 0 45.52 43.37
  L 45.52 42.77
  A 0.68 0.68 0.0 0 0 44.42 42.23
  C 41.29 44.63 37.13 45.46 32.99 45.46
  C 28.84 45.46 24.68 44.64 21.54 42.25
  A 0.68 0.68 0.0 0 0 20.45 42.79
  L 20.45 43.39
  A 2.79 2.77 -73.2 0 0 21.67 45.69
  C 25.52 48.29 28.58 48.77 32.99 48.77"
/>
</g>
<path fill="#6c2927" d="
  M 33.79 88.00
  L 33.03 88.00
  C 16.73 73.18 -6.53 43.98 4.16 20.20
  C 11.84 3.11 32.64 -3.74 49.10 5.34
  C 59.22 10.92 65.57 21.38 65.46 33.03
  Q 65.39 40.18 63.06 47.03
  C 57.81 62.50 45.79 77.13 33.79 88.00
  Z
  M 33.40 86.71
  Q 33.52 86.71 33.62 86.69
  Q 33.71 86.67 33.79 86.59
  Q 47.34 74.03 56.47 58.46
  C 64.13 45.38 68.45 28.39 58.44 15.11
  C 52.52 7.26 43.64 2.48 33.53 2.46
  C 23.42 2.45 14.53 7.20 8.59 15.04
  C -1.46 28.28 2.80 45.29 10.42 58.39
  Q 19.51 73.99 33.02 86.59
  Q 33.10 86.67 33.19 86.69
  Q 33.29 86.71 33.40 86.71
  Z"
/>
<path fill="#ce5553" d="
  M 33.53 2.46
  C 43.64 2.48 52.52 7.26 58.44 15.11
  C 68.45 28.39 64.13 45.38 56.47 58.46
  Q 47.34 74.03 33.79 86.59
  Q 33.71 86.67 33.62 86.69
  Q 33.52 86.71 33.40 86.71
  Q 33.29 86.71 33.19 86.69
  Q 33.10 86.67 33.02 86.59
  Q 19.51 73.99 10.42 58.39
  C 2.80 45.29 -1.46 28.28 8.59 15.04
  C 14.53 7.20 23.42 2.45 33.53 2.46
  Z
  M 19.42 35.41
  Q 18.88 37.77 19.79 40.49
  A 1.61 1.57 -44.4 0 1 19.77 41.53
  C 15.51 53.20 34.91 53.21 40.66 51.10
  C 45.32 49.39 48.17 46.68 46.30 41.73
  A 2.24 2.24 0.0 0 1 47.00 39.17
  Q 49.03 37.58 49.22 37.45
  C 51.85 35.63 51.86 31.96 50.44 29.38
  Q 49.92 28.44 46.84 26.63
  A 0.74 0.73 -68.6 0 1 46.50 25.83
  C 47.82 19.86 43.48 17.42 38.49 16.41
  Q 28.86 14.47 21.45 18.81
  Q 20.71 19.24 19.26 21.83
  A 1.42 1.40 -86.7 0 1 18.56 22.46
  C 14.16 24.23 12.94 30.86 17.13 33.36
  Q 19.14 34.56 19.16 34.58
  A 0.85 0.84 28.0 0 1 19.42 35.41
  Z"
/>
<path fill="#eff1f6" d="
  M 19.16 34.58
  Q 19.14 34.56 17.13 33.36
  C 12.94 30.86 14.16 24.23 18.56 22.46
  A 1.42 1.40 -86.7 0 0 19.26 21.83
  Q 20.71 19.24 21.45 18.81
  Q 28.86 14.47 38.49 16.41
  C 43.48 17.42 47.82 19.86 46.50 25.83
  A 0.74 0.73 -68.6 0 0 46.84 26.63
  Q 49.92 28.44 50.44 29.38
  C 51.86 31.96 51.85 35.63 49.22 37.45
  Q 49.03 37.58 47.00 39.17
  A 2.24 2.24 0.0 0 0 46.30 41.73
  C 48.17 46.68 45.32 49.39 40.66 51.10
  C 34.91 53.21 15.51 53.20 19.77 41.53
  A 1.61 1.57 -44.4 0 0 19.79 40.49
  Q 18.88 37.77 19.42 35.41
  A 0.85 0.84 28.0 0 0 19.16 34.58
  Z
  M 20.4100 22.4381
  A 12.57 5.63 -179.9 0 0 32.9702 28.0900
  A 12.57 5.63 -179.9 0 0 45.5500 22.4819
  A 12.57 5.63 -179.9 0 0 32.9898 16.8300
  A 12.57 5.63 -179.9 0 0 20.4100 22.4381
  Z
  M 18.65 23.39
  C 16.01 25.35 14.21 27.55 17.80 30.23
  C 22.45 33.70 29.75 33.48 35.03 31.79
  A 0.08 0.08 0.0 0 0 35.00 31.64
  C 30.16 32.00 19.10 30.66 19.27 23.72
  A 0.39 0.39 0.0 0 0 18.65 23.39
  Z
  M 30.94 36.36
  A 0.11 0.11 0.0 0 0 30.94 36.58
  Q 36.30 37.82 41.19 37.16
  C 45.44 36.58 55.77 32.61 46.27 27.80
  A 0.84 0.84 0.0 0 0 45.24 28.03
  Q 44.61 28.83 42.85 29.71
  A 2.13 2.08 -89.7 0 0 41.94 30.63
  C 39.97 34.56 35.09 35.53 30.94 36.36
  Z
  M 39.95 40.93
  L 39.18 41.14
  A 2.46 2.44 -48.4 0 1 38.25 41.20
  C 33.59 40.54 28.23 40.23 24.67 36.46
  A 1.84 1.79 -14.8 0 0 23.71 35.92
  L 21.30 35.43
  A 0.83 0.82 88.0 0 0 20.34 36.46
  C 22.10 42.85 33.65 42.19 38.22 41.70
  Q 40.07 41.50 39.97 40.94
  A 0.03 0.02 58.3 0 0 39.95 40.93
  Z
  M 32.99 48.77
  C 37.40 48.77 40.46 48.28 44.30 45.68
  A 2.79 2.77 73.1 0 0 45.52 43.37
  L 45.52 42.77
  A 0.68 0.68 0.0 0 0 44.42 42.23
  C 41.29 44.63 37.13 45.46 32.99 45.46
  C 28.84 45.46 24.68 44.64 21.54 42.25
  A 0.68 0.68 0.0 0 0 20.45 42.79
  L 20.45 43.39
  A 2.79 2.77 -73.2 0 0 21.67 45.69
  C 25.52 48.29 28.58 48.77 32.99 48.77
  Z"
/>
<ellipse fill="#ce5553" cx="0.00" cy="0.00" transform="translate(32.98,22.46) rotate(-179.9)" rx="12.57" ry="5.63"/>
<path fill="#ce5553" d="
  M 19.27 23.72
  C 19.10 30.66 30.16 32.00 35.00 31.64
  A 0.08 0.08 0.0 0 1 35.03 31.79
  C 29.75 33.48 22.45 33.70 17.80 30.23
  C 14.21 27.55 16.01 25.35 18.65 23.39
  A 0.39 0.39 0.0 0 1 19.27 23.72
  Z"
/>
<path fill="#ce5553" d="
  M 30.94 36.36
  C 35.09 35.53 39.97 34.56 41.94 30.63
  A 2.13 2.08 -89.7 0 1 42.85 29.71
  Q 44.61 28.83 45.24 28.03
  A 0.84 0.84 0.0 0 1 46.27 27.80
  C 55.77 32.61 45.44 36.58 41.19 37.16
  Q 36.30 37.82 30.94 36.58
  A 0.11 0.11 0.0 0 1 30.94 36.36
  Z"
/>
<path fill="#ce5553" d="
  M 39.97 40.94
  Q 40.07 41.50 38.22 41.70
  C 33.65 42.19 22.10 42.85 20.34 36.46
  A 0.83 0.82 88.0 0 1 21.30 35.43
  L 23.71 35.92
  A 1.84 1.79 -14.8 0 1 24.67 36.46
  C 28.23 40.23 33.59 40.54 38.25 41.20
  A 2.46 2.44 -48.4 0 0 39.18 41.14
  L 39.95 40.93
  A 0.03 0.02 58.3 0 1 39.97 40.94
  Z"
/>
<path fill="#ce5553" d="
  M 32.99 45.46
  C 37.13 45.46 41.29 44.63 44.42 42.23
  A 0.68 0.68 0.0 0 1 45.52 42.77
  L 45.52 43.37
  A 2.79 2.77 73.1 0 1 44.30 45.68
  C 40.46 48.28 37.40 48.77 32.99 48.77
  C 28.58 48.77 25.52 48.29 21.67 45.69
  A 2.79 2.77 -73.2 0 1 20.45 43.39
  L 20.45 42.79
  A 0.68 0.68 0.0 0 1 21.54 42.25
  C 24.68 44.64 28.84 45.46 32.99 45.46
  Z"
/>
</svg>
