<?xml version="1.0" encoding="UTF-8" standalone="no"?>
<!DOCTYPE svg PUBLIC "-//W3C//DTD SVG 1.1//EN" "http://www.w3.org/Graphics/SVG/1.1/DTD/svg11.dtd">
<svg xmlns="http://www.w3.org/2000/svg" version="1.1" viewBox="0.00 0.00 66.00 88.00">
<g stroke-width="2.00" fill="none" stroke-linecap="butt">
<path stroke="#836139" vector-effect="non-scaling-stroke" d="
  M 33.38 86.69
  Q 33.52 86.69 33.60 86.67
  Q 33.64 86.65 33.76 86.55
  C 50.16 71.28 74.59 40.42 59.75 16.98
  C 54.15 8.11 44.94 2.99 34.50 2.48
  Q 34.03 2.46 33.55 2.46
  Q 33.08 2.46 32.61 2.48
  C 22.17 2.94 12.94 8.03 7.30 16.87
  C -7.63 40.25 16.67 71.21 33.01 86.55
  Q 33.13 86.65 33.17 86.66
  Q 33.25 86.69 33.38 86.69"
/>
<path stroke="#ceb9a2" vector-effect="non-scaling-stroke" d="
  M 15.77 51.25
  Q 16.16 51.64 16.39 51.88
  A 0.57 0.57 0.0 0 0 17.20 51.88
  L 37.83 31.25
  A 0.92 0.92 0.0 0 1 39.00 31.14
  Q 39.41 31.43 39.93 31.38
  A 2.45 2.45 0.0 0 1 41.56 31.84
  C 45.62 34.77 48.27 39.00 50.93 43.54
  A 0.22 0.22 0.0 0 0 51.34 43.40
  C 50.57 37.04 47.27 33.31 43.41 28.58
  Q 41.87 26.69 43.55 25.64
  A 0.67 0.66 -29.3 0 0 43.79 24.78
  Q 43.64 24.47 43.10 23.93
  Q 42.55 23.38 42.24 23.23
  A 0.67 0.66 -60.7 0 0 41.38 23.47
  Q 40.33 25.15 38.44 23.61
  C 33.71 19.75 29.98 16.45 23.62 15.68
  A 0.22 0.22 0.0 0 0 23.48 16.09
  C 28.02 18.75 32.25 21.40 35.18 25.46
  A 2.45 2.45 0.0 0 1 35.64 27.09
  Q 35.59 27.61 35.88 28.02
  A 0.92 0.92 0.0 0 1 35.77 29.19
  L 15.14 49.82
  A 0.57 0.57 0.0 0 0 15.15 50.64
  Q 15.38 50.87 15.77 51.25"
/>
</g>
<path fill="#594124" d="
  M 33.78 88.00
  L 33.12 88.00
  Q 16.20 72.94 6.12 52.87
  Q 4.23 49.11 2.45 41.42
  C -2.39 20.53 11.66 2.27 33.00 1.25
  Q 34.80 1.17 38.83 1.79
  C 54.15 4.15 65.71 17.73 65.47 33.03
  Q 65.36 40.19 63.06 47.03
  C 57.87 62.46 45.75 77.17 33.78 88.00
  Z
  M 33.38 86.69
  Q 33.52 86.69 33.60 86.67
  Q 33.64 86.65 33.76 86.55
  C 50.16 71.28 74.59 40.42 59.75 16.98
  C 54.15 8.11 44.94 2.99 34.50 2.48
  Q 34.03 2.46 33.55 2.46
  Q 33.08 2.46 32.61 2.48
  C 22.17 2.94 12.94 8.03 7.30 16.87
  C -7.63 40.25 16.67 71.21 33.01 86.55
  Q 33.13 86.65 33.17 86.66
  Q 33.25 86.69 33.38 86.69
  Z"
/>
<path fill="#ac804d" d="
  M 33.55 2.46
  Q 34.03 2.46 34.50 2.48
  C 44.94 2.99 54.15 8.11 59.75 16.98
  C 74.59 40.42 50.16 71.28 33.76 86.55
  Q 33.64 86.65 33.60 86.67
  Q 33.52 86.69 33.38 86.69
  Q 33.25 86.69 33.17 86.66
  Q 33.13 86.65 33.01 86.55
  C 16.67 71.21 -7.63 40.25 7.30 16.87
  C 12.94 8.03 22.17 2.94 32.61 2.48
  Q 33.08 2.46 33.55 2.46
  Z
  M 15.77 51.25
  Q 16.16 51.64 16.39 51.88
  A 0.57 0.57 0.0 0 0 17.20 51.88
  L 37.83 31.25
  A 0.92 0.92 0.0 0 1 39.00 31.14
  Q 39.41 31.43 39.93 31.38
  A 2.45 2.45 0.0 0 1 41.56 31.84
  C 45.62 34.77 48.27 39.00 50.93 43.54
  A 0.22 0.22 0.0 0 0 51.34 43.40
  C 50.57 37.04 47.27 33.31 43.41 28.58
  Q 41.87 26.69 43.55 25.64
  A 0.67 0.66 -29.3 0 0 43.79 24.78
  Q 43.64 24.47 43.10 23.93
  Q 42.55 23.38 42.24 23.23
  A 0.67 0.66 -60.7 0 0 41.38 23.47
  Q 40.33 25.15 38.44 23.61
  C 33.71 19.75 29.98 16.45 23.62 15.68
  A 0.22 0.22 0.0 0 0 23.48 16.09
  C 28.02 18.75 32.25 21.40 35.18 25.46
  A 2.45 2.45 0.0 0 1 35.64 27.09
  Q 35.59 27.61 35.88 28.02
  A 0.92 0.92 0.0 0 1 35.77 29.19
  L 15.14 49.82
  A 0.57 0.57 0.0 0 0 15.15 50.64
  Q 15.38 50.87 15.77 51.25
  Z"
/>
<path fill="#eff1f6" d="
  M 43.10 23.93
  Q 43.64 24.47 43.79 24.78
  A 0.67 0.66 -29.3 0 1 43.55 25.64
  Q 41.87 26.69 43.41 28.58
  C 47.27 33.31 50.57 37.04 51.34 43.40
  A 0.22 0.22 0.0 0 1 50.93 43.54
  C 48.27 39.00 45.62 34.77 41.56 31.84
  A 2.45 2.45 0.0 0 0 39.93 31.38
  Q 39.41 31.43 39.00 31.14
  A 0.92 0.92 0.0 0 0 37.83 31.25
  L 17.20 51.88
  A 0.57 0.57 0.0 0 1 16.39 51.88
  Q 16.16 51.64 15.77 51.25
  Q 15.38 50.87 15.15 50.64
  A 0.57 0.57 0.0 0 1 15.14 49.82
  L 35.77 29.19
  A 0.92 0.92 0.0 0 0 35.88 28.02
  Q 35.59 27.61 35.64 27.09
  A 2.45 2.45 0.0 0 0 35.18 25.46
  C 32.25 21.40 28.02 18.75 23.48 16.09
  A 0.22 0.22 0.0 0 1 23.62 15.68
  C 29.98 16.45 33.71 19.75 38.44 23.61
  Q 40.33 25.15 41.38 23.47
  A 0.67 0.66 -60.7 0 1 42.24 23.23
  Q 42.55 23.38 43.10 23.93
  Z"
/>
</svg>
