<?xml version="1.0" encoding="UTF-8" standalone="no"?>
<!DOCTYPE svg PUBLIC "-//W3C//DTD SVG 1.1//EN" "http://www.w3.org/Graphics/SVG/1.1/DTD/svg11.dtd">
<svg xmlns="http://www.w3.org/2000/svg" version="1.1" viewBox="0.00 0.00 66.00 88.00">
<g stroke-width="2.00" fill="none" stroke-linecap="butt">
<path stroke="#293748" vector-effect="non-scaling-stroke" d="
  M 33.42 86.59
  C 34.01 86.59 33.59 86.64 33.79 86.45
  C 47.42 73.71 63.82 53.66 64.15 34.42
  Q 64.25 28.87 63.86 27.25
  Q 59.83 10.59 44.48 4.55
  Q 39.34 2.53 33.50 2.52
  Q 27.66 2.52 22.52 4.53
  Q 7.16 10.54 3.10 27.19
  Q 2.70 28.81 2.79 34.36
  C 3.09 53.60 19.45 73.68 33.06 86.45
  C 33.26 86.64 32.83 86.59 33.42 86.59"
/>
<path stroke="#939daa" vector-effect="non-scaling-stroke" d="
  M 33.08 38.72
  Q 33.26 38.72 33.37 38.61
  Q 42.35 29.41 50.80 20.84
  A 0.48 0.47 52.2 0 0 50.87 20.26
  L 50.03 18.80
  A 0.58 0.57 52.3 0 0 49.12 18.68
  Q 41.43 26.48 33.56 34.57
  Q 33.27 34.87 33.06 34.87
  Q 32.83 34.87 32.55 34.58
  Q 24.67 26.49 16.97 18.69
  A 0.58 0.57 -52.3 0 0 16.06 18.82
  L 15.22 20.28
  A 0.48 0.47 -52.3 0 0 15.29 20.86
  Q 23.75 29.42 32.74 38.61
  Q 32.85 38.72 33.08 38.72"
/>
<path stroke="#939daa" vector-effect="non-scaling-stroke" d="
  M 32.97 49.86
  Q 33.15 49.86 33.26 49.74
  Q 42.25 40.55 50.70 31.98
  A 0.48 0.47 52.2 0 0 50.77 31.40
  L 49.93 29.94
  A 0.58 0.57 52.3 0 0 49.02 29.82
  Q 41.33 37.62 33.45 45.71
  Q 33.17 46.00 32.95 46.00
  Q 32.72 46.00 32.44 45.71
  Q 24.56 37.62 16.87 29.82
  A 0.58 0.57 -52.3 0 0 15.96 29.94
  L 15.12 31.40
  A 0.48 0.47 -52.2 0 0 15.19 31.98
  Q 23.64 40.55 32.63 49.74
  Q 32.74 49.86 32.97 49.86"
/>
</g>
<path fill="#1b2631" d="
  M 33.80 88.00
  L 33.04 88.00
  C 21.75 77.75 12.12 65.68 5.65 51.56
  Q 2.21 44.05 1.60 34.89
  C 0.54 18.87 11.34 5.51 26.73 2.05
  C 41.02 -1.16 55.77 5.92 62.46 19.46
  C 67.05 28.74 65.92 40.23 62.13 49.59
  C 56.21 64.21 45.41 77.43 33.80 88.00
  Z
  M 33.42 86.59
  C 34.01 86.59 33.59 86.64 33.79 86.45
  C 47.42 73.71 63.82 53.66 64.15 34.42
  Q 64.25 28.87 63.86 27.25
  Q 59.83 10.59 44.48 4.55
  Q 39.34 2.53 33.50 2.52
  Q 27.66 2.52 22.52 4.53
  Q 7.16 10.54 3.10 27.19
  Q 2.70 28.81 2.79 34.36
  C 3.09 53.60 19.45 73.68 33.06 86.45
  C 33.26 86.64 32.83 86.59 33.42 86.59
  Z"
/>
<path fill="#37485e" d="
  M 33.50 2.52
  Q 39.34 2.53 44.48 4.55
  Q 59.83 10.59 63.86 27.25
  Q 64.25 28.87 64.15 34.42
  C 63.82 53.66 47.42 73.71 33.79 86.45
  C 33.59 86.64 34.01 86.59 33.42 86.59
  C 32.83 86.59 33.26 86.64 33.06 86.45
  C 19.45 73.68 3.09 53.60 2.79 34.36
  Q 2.70 28.81 3.10 27.19
  Q 7.16 10.54 22.52 4.53
  Q 27.66 2.52 33.50 2.52
  Z
  M 33.08 38.72
  Q 33.26 38.72 33.37 38.61
  Q 42.35 29.41 50.80 20.84
  A 0.48 0.47 52.2 0 0 50.87 20.26
  L 50.03 18.80
  A 0.58 0.57 52.3 0 0 49.12 18.68
  Q 41.43 26.48 33.56 34.57
  Q 33.27 34.87 33.06 34.87
  Q 32.83 34.87 32.55 34.58
  Q 24.67 26.49 16.97 18.69
  A 0.58 0.57 -52.3 0 0 16.06 18.82
  L 15.22 20.28
  A 0.48 0.47 -52.3 0 0 15.29 20.86
  Q 23.75 29.42 32.74 38.61
  Q 32.85 38.72 33.08 38.72
  Z
  M 32.97 49.86
  Q 33.15 49.86 33.26 49.74
  Q 42.25 40.55 50.70 31.98
  A 0.48 0.47 52.2 0 0 50.77 31.40
  L 49.93 29.94
  A 0.58 0.57 52.3 0 0 49.02 29.82
  Q 41.33 37.62 33.45 45.71
  Q 33.17 46.00 32.95 46.00
  Q 32.72 46.00 32.44 45.71
  Q 24.56 37.62 16.87 29.82
  A 0.58 0.57 -52.3 0 0 15.96 29.94
  L 15.12 31.40
  A 0.48 0.47 -52.2 0 0 15.19 31.98
  Q 23.64 40.55 32.63 49.74
  Q 32.74 49.86 32.97 49.86
  Z"
/>
<path fill="#eff1f6" d="
  M 33.08 38.72
  Q 32.85 38.72 32.74 38.61
  Q 23.75 29.42 15.29 20.86
  A 0.48 0.47 -52.3 0 1 15.22 20.28
  L 16.06 18.82
  A 0.58 0.57 -52.3 0 1 16.97 18.69
  Q 24.67 26.49 32.55 34.58
  Q 32.83 34.87 33.06 34.87
  Q 33.27 34.87 33.56 34.57
  Q 41.43 26.48 49.12 18.68
  A 0.58 0.57 52.3 0 1 50.03 18.80
  L 50.87 20.26
  A 0.48 0.47 52.2 0 1 50.80 20.84
  Q 42.35 29.41 33.37 38.61
  Q 33.26 38.72 33.08 38.72
  Z"
/>
<path fill="#eff1f6" d="
  M 32.95 46.00
  Q 33.17 46.00 33.45 45.71
  Q 41.33 37.62 49.02 29.82
  A 0.58 0.57 52.3 0 1 49.93 29.94
  L 50.77 31.40
  A 0.48 0.47 52.2 0 1 50.70 31.98
  Q 42.25 40.55 33.26 49.74
  Q 33.15 49.86 32.97 49.86
  Q 32.74 49.86 32.63 49.74
  Q 23.64 40.55 15.19 31.98
  A 0.48 0.47 -52.2 0 1 15.12 31.40
  L 15.96 29.94
  A 0.58 0.57 -52.3 0 1 16.87 29.82
  Q 24.56 37.62 32.44 45.71
  Q 32.72 46.00 32.95 46.00
  Z"
/>
</svg>
