<?xml version="1.0" encoding="UTF-8" standalone="no"?>
<!DOCTYPE svg PUBLIC "-//W3C//DTD SVG 1.1//EN" "http://www.w3.org/Graphics/SVG/1.1/DTD/svg11.dtd">
<svg xmlns="http://www.w3.org/2000/svg" version="1.1" viewBox="0.00 0.00 66.00 88.00">
<g stroke-width="2.00" fill="none" stroke-linecap="butt">
<path stroke="#293748" vector-effect="non-scaling-stroke" d="
  M 33.42 86.59
  C 33.98 86.59 33.60 86.63 33.79 86.46
  Q 44.79 76.22 53.16 63.91
  C 63.83 48.23 70.84 26.18 54.76 10.99
  Q 46.34 3.03 34.50 2.52
  Q 34.00 2.50 33.50 2.50
  Q 32.99 2.50 32.49 2.52
  Q 20.65 3.01 12.22 10.95
  C -3.89 26.11 3.08 48.18 13.73 63.88
  Q 22.07 76.20 33.06 86.45
  C 33.25 86.63 32.86 86.59 33.42 86.59"
/>
<path stroke="#939daa" vector-effect="non-scaling-stroke" d="
  M 47.08 22.48
  L 45.61 22.48
  A 1.66 1.66 0.0 0 1 44.59 22.13
  C 37.78 16.92 29.46 11.43 23.17 21.11
  Q 18.97 27.58 19.39 34.75
  C 19.65 39.05 22.15 44.93 27.28 44.73
  Q 32.22 44.53 34.67 40.09
  A 0.16 0.15 -2.1 0 0 34.45 39.89
  Q 28.69 43.55 25.65 37.87
  A 3.51 3.50 -61.1 0 1 25.24 36.44
  C 24.81 30.44 24.66 23.28 31.88 22.65
  Q 36.90 22.21 39.89 23.38
  C 43.04 24.61 44.88 25.12 47.26 22.94
  A 0.27 0.26 23.7 0 0 47.08 22.48"
/>
<path stroke="#939daa" vector-effect="non-scaling-stroke" d="
  M 17.38 39.51
  C 17.69 45.62 20.49 51.01 27.20 52.04
  C 37.78 53.67 42.65 47.20 44.88 37.83
  Q 47.16 28.20 38.33 24.95
  Q 32.13 22.66 29.13 28.07
  A 0.38 0.38 0.0 0 0 29.53 28.62
  Q 34.57 27.70 37.63 31.57
  C 42.29 37.46 38.35 46.02 31.72 48.03
  C 25.47 49.93 20.25 44.85 17.74 39.42
  A 0.19 0.19 0.0 0 0 17.38 39.51"
/>
</g>
<path fill="#1b2631" d="
  M 33.81 88.00
  L 33.13 88.00
  Q 15.42 72.26 5.96 52.53
  Q 3.44 47.27 2.05 39.26
  Q 0.38 29.63 3.68 21.35
  C 11.12 2.70 33.89 -4.33 50.74 6.33
  C 60.33 12.39 65.69 22.46 65.45 33.75
  C 65.02 54.18 48.29 74.77 33.81 88.00
  Z
  M 33.42 86.59
  C 33.98 86.59 33.60 86.63 33.79 86.46
  Q 44.79 76.22 53.16 63.91
  C 63.83 48.23 70.84 26.18 54.76 10.99
  Q 46.34 3.03 34.50 2.52
  Q 34.00 2.50 33.50 2.50
  Q 32.99 2.50 32.49 2.52
  Q 20.65 3.01 12.22 10.95
  C -3.89 26.11 3.08 48.18 13.73 63.88
  Q 22.07 76.20 33.06 86.45
  C 33.25 86.63 32.86 86.59 33.42 86.59
  Z"
/>
<path fill="#37485e" d="
  M 33.50 2.50
  Q 34.00 2.50 34.50 2.52
  Q 46.34 3.03 54.76 10.99
  C 70.84 26.18 63.83 48.23 53.16 63.91
  Q 44.79 76.22 33.79 86.46
  C 33.60 86.63 33.98 86.59 33.42 86.59
  C 32.86 86.59 33.25 86.63 33.06 86.45
  Q 22.07 76.20 13.73 63.88
  C 3.08 48.18 -3.89 26.11 12.22 10.95
  Q 20.65 3.01 32.49 2.52
  Q 32.99 2.50 33.50 2.50
  Z
  M 47.08 22.48
  L 45.61 22.48
  A 1.66 1.66 0.0 0 1 44.59 22.13
  C 37.78 16.92 29.46 11.43 23.17 21.11
  Q 18.97 27.58 19.39 34.75
  C 19.65 39.05 22.15 44.93 27.28 44.73
  Q 32.22 44.53 34.67 40.09
  A 0.16 0.15 -2.1 0 0 34.45 39.89
  Q 28.69 43.55 25.65 37.87
  A 3.51 3.50 -61.1 0 1 25.24 36.44
  C 24.81 30.44 24.66 23.28 31.88 22.65
  Q 36.90 22.21 39.89 23.38
  C 43.04 24.61 44.88 25.12 47.26 22.94
  A 0.27 0.26 23.7 0 0 47.08 22.48
  Z
  M 17.38 39.51
  C 17.69 45.62 20.49 51.01 27.20 52.04
  C 37.78 53.67 42.65 47.20 44.88 37.83
  Q 47.16 28.20 38.33 24.95
  Q 32.13 22.66 29.13 28.07
  A 0.38 0.38 0.0 0 0 29.53 28.62
  Q 34.57 27.70 37.63 31.57
  C 42.29 37.46 38.35 46.02 31.72 48.03
  C 25.47 49.93 20.25 44.85 17.74 39.42
  A 0.19 0.19 0.0 0 0 17.38 39.51
  Z"
/>
<path fill="#eff1f6" d="
  M 47.26 22.94
  C 44.88 25.12 43.04 24.61 39.89 23.38
  Q 36.90 22.21 31.88 22.65
  C 24.66 23.28 24.81 30.44 25.24 36.44
  A 3.51 3.50 -61.1 0 0 25.65 37.87
  Q 28.69 43.55 34.45 39.89
  A 0.16 0.15 -2.1 0 1 34.67 40.09
  Q 32.22 44.53 27.28 44.73
  C 22.15 44.93 19.65 39.05 19.39 34.75
  Q 18.97 27.58 23.17 21.11
  C 29.46 11.43 37.78 16.92 44.59 22.13
  A 1.66 1.66 0.0 0 0 45.61 22.48
  L 47.08 22.48
  A 0.27 0.26 23.7 0 1 47.26 22.94
  Z"
/>
<path fill="#eff1f6" d="
  M 17.38 39.51
  A 0.19 0.19 0.0 0 1 17.74 39.42
  C 20.25 44.85 25.47 49.93 31.72 48.03
  C 38.35 46.02 42.29 37.46 37.63 31.57
  Q 34.57 27.70 29.53 28.62
  A 0.38 0.38 0.0 0 1 29.13 28.07
  Q 32.13 22.66 38.33 24.95
  Q 47.16 28.20 44.88 37.83
  C 42.65 47.20 37.78 53.67 27.20 52.04
  C 20.49 51.01 17.69 45.62 17.38 39.51
  Z"
/>
</svg>
