<?xml version="1.0" encoding="UTF-8" standalone="no"?>
<!DOCTYPE svg PUBLIC "-//W3C//DTD SVG 1.1//EN" "http://www.w3.org/Graphics/SVG/1.1/DTD/svg11.dtd">
<svg xmlns="http://www.w3.org/2000/svg" version="1.1" viewBox="0.00 0.00 66.00 88.00">
<g stroke-width="2.00" fill="none" stroke-linecap="butt">
<path stroke="#347a94" vector-effect="non-scaling-stroke" d="
  M 33.40 86.74
  Q 33.51 86.74 33.65 86.61
  Q 47.43 73.84 56.48 58.52
  C 63.79 46.13 68.22 29.22 59.39 16.39
  Q 50.22 3.08 33.75 2.48
  Q 33.58 2.47 33.53 2.47
  Q 33.49 2.47 33.31 2.48
  Q 16.84 3.03 7.63 16.31
  C -1.24 29.11 3.14 46.04 10.41 58.45
  Q 19.41 73.80 33.15 86.61
  Q 33.29 86.74 33.40 86.74"
/>
<path stroke="#9cc9dc" vector-effect="non-scaling-stroke" d="
  M 47.56 32.41
  Q 40.53 34.53 37.63 36.96
  A 0.45 0.45 0.0 0 1 37.02 36.94
  L 35.76 35.67
  A 0.55 0.55 0.0 0 1 35.96 34.76
  Q 39.06 33.61 41.16 31.34
  A 1.18 1.18 0.0 0 0 41.30 29.91
  C 40.11 27.99 39.55 26.67 39.59 24.11
  Q 39.64 21.80 39.56 16.22
  A 0.45 0.44 68.9 0 0 38.82 15.89
  L 33.22 20.85
  A 0.92 0.89 -65.1 0 1 32.62 21.08
  L 26.33 21.08
  A 0.80 0.80 0.0 0 1 25.79 20.87
  L 20.13 15.85
  A 0.49 0.49 0.0 0 0 19.31 16.22
  L 19.31 26.29
  A 1.85 1.78 60.7 0 1 19.08 27.18
  L 17.46 29.98
  A 0.87 0.86 -50.5 0 0 17.55 30.97
  Q 19.72 33.56 22.64 34.58
  A 0.66 0.65 -66.1 0 1 22.99 35.51
  Q 17.88 44.83 22.57 50.96
  A 3.20 3.16 -14.3 0 0 24.63 52.17
  Q 25.95 52.37 35.00 52.19
  Q 42.86 52.04 45.41 44.44
  Q 46.49 41.22 47.99 32.79
  A 0.34 0.33 -3.3 0 0 47.56 32.41"
/>
</g>
<path fill="#205266" d="
  M 33.79 88.00
  L 33.04 88.00
  C 21.72 77.71 12.20 65.75 5.68 51.55
  Q 2.16 43.88 1.59 35.04
  C 0.33 15.54 16.61 -0.18 36.31 1.46
  C 53.09 2.85 66.15 17.15 65.46 33.99
  Q 65.14 41.75 62.33 49.05
  C 56.67 63.79 45.41 77.46 33.79 88.00
  Z
  M 33.40 86.74
  Q 33.51 86.74 33.65 86.61
  Q 47.43 73.84 56.48 58.52
  C 63.79 46.13 68.22 29.22 59.39 16.39
  Q 50.22 3.08 33.75 2.48
  Q 33.58 2.47 33.53 2.47
  Q 33.49 2.47 33.31 2.48
  Q 16.84 3.03 7.63 16.31
  C -1.24 29.11 3.14 46.04 10.41 58.45
  Q 19.41 73.80 33.15 86.61
  Q 33.29 86.74 33.40 86.74
  Z"
/>
<path fill="#48a1c2" d="
  M 33.53 2.47
  Q 33.58 2.47 33.75 2.48
  Q 50.22 3.08 59.39 16.39
  C 68.22 29.22 63.79 46.13 56.48 58.52
  Q 47.43 73.84 33.65 86.61
  Q 33.51 86.74 33.40 86.74
  Q 33.29 86.74 33.15 86.61
  Q 19.41 73.80 10.41 58.45
  C 3.14 46.04 -1.24 29.11 7.63 16.31
  Q 16.84 3.03 33.31 2.48
  Q 33.49 2.47 33.53 2.47
  Z
  M 47.56 32.41
  Q 40.53 34.53 37.63 36.96
  A 0.45 0.45 0.0 0 1 37.02 36.94
  L 35.76 35.67
  A 0.55 0.55 0.0 0 1 35.96 34.76
  Q 39.06 33.61 41.16 31.34
  A 1.18 1.18 0.0 0 0 41.30 29.91
  C 40.11 27.99 39.55 26.67 39.59 24.11
  Q 39.64 21.80 39.56 16.22
  A 0.45 0.44 68.9 0 0 38.82 15.89
  L 33.22 20.85
  A 0.92 0.89 -65.1 0 1 32.62 21.08
  L 26.33 21.08
  A 0.80 0.80 0.0 0 1 25.79 20.87
  L 20.13 15.85
  A 0.49 0.49 0.0 0 0 19.31 16.22
  L 19.31 26.29
  A 1.85 1.78 60.7 0 1 19.08 27.18
  L 17.46 29.98
  A 0.87 0.86 -50.5 0 0 17.55 30.97
  Q 19.72 33.56 22.64 34.58
  A 0.66 0.65 -66.1 0 1 22.99 35.51
  Q 17.88 44.83 22.57 50.96
  A 3.20 3.16 -14.3 0 0 24.63 52.17
  Q 25.95 52.37 35.00 52.19
  Q 42.86 52.04 45.41 44.44
  Q 46.49 41.22 47.99 32.79
  A 0.34 0.33 -3.3 0 0 47.56 32.41
  Z"
/>
<path fill="#eff1f6" d="
  M 47.99 32.79
  Q 46.49 41.22 45.41 44.44
  Q 42.86 52.04 35.00 52.19
  Q 25.95 52.37 24.63 52.17
  A 3.20 3.16 -14.3 0 1 22.57 50.96
  Q 17.88 44.83 22.99 35.51
  A 0.66 0.65 -66.1 0 0 22.64 34.58
  Q 19.72 33.56 17.55 30.97
  A 0.87 0.86 -50.5 0 1 17.46 29.98
  L 19.08 27.18
  A 1.85 1.78 60.7 0 0 19.31 26.29
  L 19.31 16.22
  A 0.49 0.49 0.0 0 1 20.13 15.85
  L 25.79 20.87
  A 0.80 0.80 0.0 0 0 26.33 21.08
  L 32.62 21.08
  A 0.92 0.89 -65.1 0 0 33.22 20.85
  L 38.82 15.89
  A 0.45 0.44 68.9 0 1 39.56 16.22
  Q 39.64 21.80 39.59 24.11
  C 39.55 26.67 40.11 27.99 41.30 29.91
  A 1.18 1.18 0.0 0 1 41.16 31.34
  Q 39.06 33.61 35.96 34.76
  A 0.55 0.55 0.0 0 0 35.76 35.67
  L 37.02 36.94
  A 0.45 0.45 0.0 0 0 37.63 36.96
  Q 40.53 34.53 47.56 32.41
  A 0.34 0.33 -3.3 0 1 47.99 32.79
  Z"
/>
</svg>
