<?xml version="1.0" encoding="UTF-8" standalone="no"?>
<!DOCTYPE svg PUBLIC "-//W3C//DTD SVG 1.1//EN" "http://www.w3.org/Graphics/SVG/1.1/DTD/svg11.dtd">
<svg xmlns="http://www.w3.org/2000/svg" version="1.1" viewBox="0.00 0.00 66.00 88.00">
<g stroke-width="2.00" fill="none" stroke-linecap="butt">
<path stroke="#9d3f3d" vector-effect="non-scaling-stroke" d="
  M 33.41 86.71
  Q 33.52 86.71 33.62 86.69
  Q 33.70 86.67 33.79 86.59
  C 50.36 71.24 75.69 38.97 58.75 15.55
  C 52.90 7.46 43.84 2.48 33.54 2.46
  C 23.23 2.45 14.16 7.40 8.28 15.47
  C -8.73 38.84 16.50 71.19 33.02 86.59
  Q 33.11 86.67 33.19 86.69
  Q 33.29 86.71 33.41 86.71"
/>
<path stroke="#dfa3a5" vector-effect="non-scaling-stroke" d="
  M 32.92 48.50
  Q 33.84 48.50 34.21 48.50
  A 0.64 0.63 83.3 0 1 34.81 48.98
  L 35.51 51.81
  A 0.62 0.61 -3.3 0 0 36.04 52.27
  Q 38.36 52.50 39.13 50.86
  Q 40.98 46.88 43.08 41.55
  A 0.52 0.52 0.0 0 1 43.99 41.45
  Q 44.60 42.35 45.22 42.71
  A 0.74 0.73 30.4 0 0 46.23 42.45
  L 48.08 39.23
  A 0.38 0.38 0.0 0 0 48.05 38.79
  L 38.88 26.91
  A 0.57 0.57 0.0 0 1 38.84 26.28
  L 40.23 23.87
  A 0.99 0.99 0.0 0 0 40.33 23.13
  L 38.68 16.46
  A 0.35 0.35 0.0 0 0 38.03 16.37
  L 34.85 21.87
  A 1.72 1.72 0.0 0 0 34.63 22.75
  L 34.69 25.28
  A 0.68 0.67 -1.0 0 1 34.01 25.97
  Q 33.74 25.98 32.92 25.98
  Q 32.09 25.98 31.82 25.97
  A 0.68 0.67 1.0 0 1 31.15 25.28
  L 31.21 22.75
  A 1.72 1.72 0.0 0 0 30.99 21.87
  L 27.80 16.37
  A 0.35 0.35 0.0 0 0 27.15 16.46
  L 25.51 23.13
  A 0.99 0.99 0.0 0 0 25.61 23.87
  L 27.00 26.28
  A 0.57 0.57 0.0 0 1 26.96 26.91
  L 17.79 38.79
  A 0.38 0.38 0.0 0 0 17.76 39.23
  L 19.61 42.45
  A 0.74 0.73 -30.4 0 0 20.62 42.71
  Q 21.24 42.35 21.85 41.45
  A 0.52 0.52 0.0 0 1 22.76 41.55
  Q 24.86 46.88 26.71 50.86
  Q 27.48 52.50 29.80 52.27
  A 0.62 0.61 3.3 0 0 30.33 51.81
  L 31.03 48.98
  A 0.64 0.63 -83.3 0 1 31.63 48.50
  Q 32.00 48.50 32.92 48.50"
/>
<path stroke="#dfa3a5" vector-effect="non-scaling-stroke" d="
  M 31.14 32.08
  L 28.03 30.74
  A 0.39 0.39 0.0 0 0 27.52 30.94
  L 27.43 31.15
  A 2.48 2.04 -66.6 0 0 28.32 34.24
  L 28.39 34.27
  A 2.48 2.04 -66.6 0 0 31.25 32.80
  L 31.34 32.59
  A 0.39 0.39 0.0 0 0 31.14 32.08"
/>
<path stroke="#dfa3a5" vector-effect="non-scaling-stroke" d="
  M 37.76 30.73
  L 34.66 32.12
  A 0.40 0.40 0.0 0 0 34.46 32.65
  L 34.55 32.85
  A 2.46 2.03 65.8 0 0 37.41 34.26
  L 37.54 34.21
  A 2.46 2.03 65.8 0 0 38.38 31.13
  L 38.29 30.93
  A 0.40 0.40 0.0 0 0 37.76 30.73"
/>
</g>
<path fill="#6b2927" d="
  M 33.80 88.00
  L 33.03 88.00
  C 16.74 73.18 -6.55 43.96 4.16 20.20
  C 11.89 3.06 32.57 -3.69 49.09 5.33
  C 59.17 10.83 65.57 21.37 65.45 33.03
  Q 65.38 40.25 63.05 47.02
  C 57.71 62.59 45.87 77.04 33.80 88.00
  Z
  M 33.41 86.71
  Q 33.52 86.71 33.62 86.69
  Q 33.70 86.67 33.79 86.59
  C 50.36 71.24 75.69 38.97 58.75 15.55
  C 52.90 7.46 43.84 2.48 33.54 2.46
  C 23.23 2.45 14.16 7.40 8.28 15.47
  C -8.73 38.84 16.50 71.19 33.02 86.59
  Q 33.11 86.67 33.19 86.69
  Q 33.29 86.71 33.41 86.71
  Z"
/>
<path fill="#ce5553" d="
  M 33.54 2.46
  C 43.84 2.48 52.90 7.46 58.75 15.55
  C 75.69 38.97 50.36 71.24 33.79 86.59
  Q 33.70 86.67 33.62 86.69
  Q 33.52 86.71 33.41 86.71
  Q 33.29 86.71 33.19 86.69
  Q 33.11 86.67 33.02 86.59
  C 16.50 71.19 -8.73 38.84 8.28 15.47
  C 14.16 7.40 23.23 2.45 33.54 2.46
  Z
  M 32.92 48.50
  Q 33.84 48.50 34.21 48.50
  A 0.64 0.63 83.3 0 1 34.81 48.98
  L 35.51 51.81
  A 0.62 0.61 -3.3 0 0 36.04 52.27
  Q 38.36 52.50 39.13 50.86
  Q 40.98 46.88 43.08 41.55
  A 0.52 0.52 0.0 0 1 43.99 41.45
  Q 44.60 42.35 45.22 42.71
  A 0.74 0.73 30.4 0 0 46.23 42.45
  L 48.08 39.23
  A 0.38 0.38 0.0 0 0 48.05 38.79
  L 38.88 26.91
  A 0.57 0.57 0.0 0 1 38.84 26.28
  L 40.23 23.87
  A 0.99 0.99 0.0 0 0 40.33 23.13
  L 38.68 16.46
  A 0.35 0.35 0.0 0 0 38.03 16.37
  L 34.85 21.87
  A 1.72 1.72 0.0 0 0 34.63 22.75
  L 34.69 25.28
  A 0.68 0.67 -1.0 0 1 34.01 25.97
  Q 33.74 25.98 32.92 25.98
  Q 32.09 25.98 31.82 25.97
  A 0.68 0.67 1.0 0 1 31.15 25.28
  L 31.21 22.75
  A 1.72 1.72 0.0 0 0 30.99 21.87
  L 27.80 16.37
  A 0.35 0.35 0.0 0 0 27.15 16.46
  L 25.51 23.13
  A 0.99 0.99 0.0 0 0 25.61 23.87
  L 27.00 26.28
  A 0.57 0.57 0.0 0 1 26.96 26.91
  L 17.79 38.79
  A 0.38 0.38 0.0 0 0 17.76 39.23
  L 19.61 42.45
  A 0.74 0.73 -30.4 0 0 20.62 42.71
  Q 21.24 42.35 21.85 41.45
  A 0.52 0.52 0.0 0 1 22.76 41.55
  Q 24.86 46.88 26.71 50.86
  Q 27.48 52.50 29.80 52.27
  A 0.62 0.61 3.3 0 0 30.33 51.81
  L 31.03 48.98
  A 0.64 0.63 -83.3 0 1 31.63 48.50
  Q 32.00 48.50 32.92 48.50
  Z"
/>
<path fill="#eff1f6" d="
  M 32.92 25.98
  Q 33.74 25.98 34.01 25.97
  A 0.68 0.67 -1.0 0 0 34.69 25.28
  L 34.63 22.75
  A 1.72 1.72 0.0 0 1 34.85 21.87
  L 38.03 16.37
  A 0.35 0.35 0.0 0 1 38.68 16.46
  L 40.33 23.13
  A 0.99 0.99 0.0 0 1 40.23 23.87
  L 38.84 26.28
  A 0.57 0.57 0.0 0 0 38.88 26.91
  L 48.05 38.79
  A 0.38 0.38 0.0 0 1 48.08 39.23
  L 46.23 42.45
  A 0.74 0.73 30.4 0 1 45.22 42.71
  Q 44.60 42.35 43.99 41.45
  A 0.52 0.52 0.0 0 0 43.08 41.55
  Q 40.98 46.88 39.13 50.86
  Q 38.36 52.50 36.04 52.27
  A 0.62 0.61 -3.3 0 1 35.51 51.81
  L 34.81 48.98
  A 0.64 0.63 83.3 0 0 34.21 48.50
  Q 33.84 48.50 32.92 48.50
  Q 32.00 48.50 31.63 48.50
  A 0.64 0.63 -83.3 0 0 31.03 48.98
  L 30.33 51.81
  A 0.62 0.61 3.3 0 1 29.80 52.27
  Q 27.48 52.50 26.71 50.86
  Q 24.86 46.88 22.76 41.55
  A 0.52 0.52 0.0 0 0 21.85 41.45
  Q 21.24 42.35 20.62 42.71
  A 0.74 0.73 -30.4 0 1 19.61 42.45
  L 17.76 39.23
  A 0.38 0.38 0.0 0 1 17.79 38.79
  L 26.96 26.91
  A 0.57 0.57 0.0 0 0 27.00 26.28
  L 25.61 23.87
  A 0.99 0.99 0.0 0 1 25.51 23.13
  L 27.15 16.46
  A 0.35 0.35 0.0 0 1 27.80 16.37
  L 30.99 21.87
  A 1.72 1.72 0.0 0 1 31.21 22.75
  L 31.15 25.28
  A 0.68 0.67 1.0 0 0 31.82 25.97
  Q 32.09 25.98 32.92 25.98
  Z
  M 31.14 32.08
  L 28.03 30.74
  A 0.39 0.39 0.0 0 0 27.52 30.94
  L 27.43 31.15
  A 2.48 2.04 -66.6 0 0 28.32 34.24
  L 28.39 34.27
  A 2.48 2.04 -66.6 0 0 31.25 32.80
  L 31.34 32.59
  A 0.39 0.39 0.0 0 0 31.14 32.08
  Z
  M 37.76 30.73
  L 34.66 32.12
  A 0.40 0.40 0.0 0 0 34.46 32.65
  L 34.55 32.85
  A 2.46 2.03 65.8 0 0 37.41 34.26
  L 37.54 34.21
  A 2.46 2.03 65.8 0 0 38.38 31.13
  L 38.29 30.93
  A 0.40 0.40 0.0 0 0 37.76 30.73
  Z"
/>
<path fill="#ce5553" d="
  M 31.14 32.08
  A 0.39 0.39 0.0 0 1 31.34 32.59
  L 31.25 32.80
  A 2.48 2.04 -66.6 0 1 28.39 34.27
  L 28.32 34.24
  A 2.48 2.04 -66.6 0 1 27.43 31.15
  L 27.52 30.94
  A 0.39 0.39 0.0 0 1 28.03 30.74
  L 31.14 32.08
  Z"
/>
<path fill="#ce5553" d="
  M 37.76 30.73
  A 0.40 0.40 0.0 0 1 38.29 30.93
  L 38.38 31.13
  A 2.46 2.03 65.8 0 1 37.54 34.21
  L 37.41 34.26
  A 2.46 2.03 65.8 0 1 34.55 32.85
  L 34.46 32.65
  A 0.40 0.40 0.0 0 1 34.66 32.12
  L 37.76 30.73
  Z"
/>
</svg>
