<?xml version="1.0" encoding="UTF-8" standalone="no"?>
<!DOCTYPE svg PUBLIC "-//W3C//DTD SVG 1.1//EN" "http://www.w3.org/Graphics/SVG/1.1/DTD/svg11.dtd">
<svg xmlns="http://www.w3.org/2000/svg" version="1.1" viewBox="0.00 0.00 66.00 88.00">
<g stroke-width="2.00" fill="none" stroke-linecap="butt">
<path stroke="#9d3f3d" vector-effect="non-scaling-stroke" d="
  M 33.40 86.71
  Q 33.57 86.71 33.62 86.69
  Q 33.66 86.66 33.76 86.57
  C 43.73 77.22 53.07 65.93 59.14 53.44
  C 64.98 41.41 66.94 27.17 59.14 16.07
  C 53.25 7.68 44.08 2.48 33.54 2.46
  C 22.99 2.45 13.80 7.62 7.89 15.99
  C 0.05 27.06 1.97 41.31 7.77 53.36
  C 13.80 65.87 23.10 77.19 33.04 86.57
  Q 33.14 86.66 33.19 86.69
  Q 33.23 86.71 33.40 86.71"
/>
<path stroke="#dfa3a5" vector-effect="non-scaling-stroke" d="
  M 39.21 23.02
  A 0.38 0.37 -52.1 0 0 38.52 23.11
  L 37.16 28.63
  A 0.56 0.56 0.0 0 1 36.59 29.05
  Q 35.80 29.01 35.69 27.52
  Q 35.18 20.67 30.20 15.99
  A 0.73 0.73 0.0 0 0 28.97 16.46
  C 28.61 20.76 25.11 25.14 23.59 28.07
  C 20.39 34.18 24.04 39.50 30.32 40.70
  A 0.49 0.49 0.0 0 0 30.80 39.92
  Q 26.45 34.41 31.45 29.35
  A 0.40 0.40 0.0 0 1 32.14 29.61
  Q 32.31 32.54 34.37 35.08
  C 35.56 36.55 35.40 38.39 35.02 40.12
  A 0.56 0.55 0.7 0 0 35.67 40.78
  C 45.50 38.90 42.38 28.82 39.21 23.02"
/>
<path stroke="#dfa3a5" vector-effect="non-scaling-stroke" d="
  M 25.37 47.65
  Q 25.37 47.80 22.44 48.65
  Q 20.81 49.12 20.49 49.75
  Q 19.94 50.86 20.86 51.88
  A 1.35 1.34 -28.0 0 0 22.19 52.28
  Q 27.57 50.87 32.52 49.63
  Q 32.63 49.60 32.75 49.60
  Q 32.86 49.60 32.98 49.63
  Q 37.93 50.86 43.31 52.26
  A 1.35 1.34 27.8 0 0 44.64 51.85
  Q 45.56 50.83 45.00 49.72
  Q 44.68 49.09 43.05 48.62
  Q 40.12 47.78 40.12 47.64
  Q 40.12 47.49 43.05 46.64
  Q 44.68 46.17 45.00 45.54
  Q 45.55 44.43 44.63 43.41
  A 1.35 1.34 -28.0 0 0 43.30 43.01
  Q 37.92 44.42 32.97 45.66
  Q 32.86 45.69 32.74 45.69
  Q 32.62 45.69 32.51 45.66
  Q 27.56 44.43 22.18 43.03
  A 1.35 1.34 27.8 0 0 20.85 43.44
  Q 19.93 44.46 20.49 45.57
  Q 20.81 46.20 22.44 46.67
  Q 25.37 47.51 25.37 47.65"
/>
</g>
<path fill="#6c2927" d="
  M 33.80 88.00
  L 33.03 88.00
  C 16.74 73.18 -6.55 43.96 4.16 20.20
  C 11.89 3.07 32.57 -3.69 49.09 5.33
  C 59.17 10.83 65.57 21.38 65.45 33.03
  Q 65.38 40.25 63.05 47.02
  C 57.71 62.59 45.87 77.04 33.80 88.00
  Z
  M 33.40 86.71
  Q 33.57 86.71 33.62 86.69
  Q 33.66 86.66 33.76 86.57
  C 43.73 77.22 53.07 65.93 59.14 53.44
  C 64.98 41.41 66.94 27.17 59.14 16.07
  C 53.25 7.68 44.08 2.48 33.54 2.46
  C 22.99 2.45 13.80 7.62 7.89 15.99
  C 0.05 27.06 1.97 41.31 7.77 53.36
  C 13.80 65.87 23.10 77.19 33.04 86.57
  Q 33.14 86.66 33.19 86.69
  Q 33.23 86.71 33.40 86.71
  Z"
/>
<path fill="#ce5553" d="
  M 33.54 2.46
  C 44.08 2.48 53.25 7.68 59.14 16.07
  C 66.94 27.17 64.98 41.41 59.14 53.44
  C 53.07 65.93 43.73 77.22 33.76 86.57
  Q 33.66 86.66 33.62 86.69
  Q 33.57 86.71 33.40 86.71
  Q 33.23 86.71 33.19 86.69
  Q 33.14 86.66 33.04 86.57
  C 23.10 77.19 13.80 65.87 7.77 53.36
  C 1.97 41.31 0.05 27.06 7.89 15.99
  C 13.80 7.62 22.99 2.45 33.54 2.46
  Z
  M 39.21 23.02
  A 0.38 0.37 -52.1 0 0 38.52 23.11
  L 37.16 28.63
  A 0.56 0.56 0.0 0 1 36.59 29.05
  Q 35.80 29.01 35.69 27.52
  Q 35.18 20.67 30.20 15.99
  A 0.73 0.73 0.0 0 0 28.97 16.46
  C 28.61 20.76 25.11 25.14 23.59 28.07
  C 20.39 34.18 24.04 39.50 30.32 40.70
  A 0.49 0.49 0.0 0 0 30.80 39.92
  Q 26.45 34.41 31.45 29.35
  A 0.40 0.40 0.0 0 1 32.14 29.61
  Q 32.31 32.54 34.37 35.08
  C 35.56 36.55 35.40 38.39 35.02 40.12
  A 0.56 0.55 0.7 0 0 35.67 40.78
  C 45.50 38.90 42.38 28.82 39.21 23.02
  Z
  M 25.37 47.65
  Q 25.37 47.80 22.44 48.65
  Q 20.81 49.12 20.49 49.75
  Q 19.94 50.86 20.86 51.88
  A 1.35 1.34 -28.0 0 0 22.19 52.28
  Q 27.57 50.87 32.52 49.63
  Q 32.63 49.60 32.75 49.60
  Q 32.86 49.60 32.98 49.63
  Q 37.93 50.86 43.31 52.26
  A 1.35 1.34 27.8 0 0 44.64 51.85
  Q 45.56 50.83 45.00 49.72
  Q 44.68 49.09 43.05 48.62
  Q 40.12 47.78 40.12 47.64
  Q 40.12 47.49 43.05 46.64
  Q 44.68 46.17 45.00 45.54
  Q 45.55 44.43 44.63 43.41
  A 1.35 1.34 -28.0 0 0 43.30 43.01
  Q 37.92 44.42 32.97 45.66
  Q 32.86 45.69 32.74 45.69
  Q 32.62 45.69 32.51 45.66
  Q 27.56 44.43 22.18 43.03
  A 1.35 1.34 27.8 0 0 20.85 43.44
  Q 19.93 44.46 20.49 45.57
  Q 20.81 46.20 22.44 46.67
  Q 25.37 47.51 25.37 47.65
  Z"
/>
<path fill="#eff1f6" d="
  M 39.21 23.02
  C 42.38 28.82 45.50 38.90 35.67 40.78
  A 0.56 0.55 0.7 0 1 35.02 40.12
  C 35.40 38.39 35.56 36.55 34.37 35.08
  Q 32.31 32.54 32.14 29.61
  A 0.40 0.40 0.0 0 0 31.45 29.35
  Q 26.45 34.41 30.80 39.92
  A 0.49 0.49 0.0 0 1 30.32 40.70
  C 24.04 39.50 20.39 34.18 23.59 28.07
  C 25.11 25.14 28.61 20.76 28.97 16.46
  A 0.73 0.73 0.0 0 1 30.20 15.99
  Q 35.18 20.67 35.69 27.52
  Q 35.80 29.01 36.59 29.05
  A 0.56 0.56 0.0 0 0 37.16 28.63
  L 38.52 23.11
  A 0.38 0.37 -52.1 0 1 39.21 23.02
  Z"
/>
<path fill="#eff1f6" d="
  M 32.74 45.69
  Q 32.86 45.69 32.97 45.66
  Q 37.92 44.42 43.30 43.01
  A 1.35 1.34 -28.0 0 1 44.63 43.41
  Q 45.55 44.43 45.00 45.54
  Q 44.68 46.17 43.05 46.64
  Q 40.12 47.49 40.12 47.64
  Q 40.12 47.78 43.05 48.62
  Q 44.68 49.09 45.00 49.72
  Q 45.56 50.83 44.64 51.85
  A 1.35 1.34 27.8 0 1 43.31 52.26
  Q 37.93 50.86 32.98 49.63
  Q 32.86 49.60 32.75 49.60
  Q 32.63 49.60 32.52 49.63
  Q 27.57 50.87 22.19 52.28
  A 1.35 1.34 -28.0 0 1 20.86 51.88
  Q 19.94 50.86 20.49 49.75
  Q 20.81 49.12 22.44 48.65
  Q 25.37 47.80 25.37 47.65
  Q 25.37 47.51 22.44 46.67
  Q 20.81 46.20 20.49 45.57
  Q 19.93 44.46 20.85 43.44
  A 1.35 1.34 27.8 0 1 22.18 43.03
  Q 27.56 44.43 32.51 45.66
  Q 32.62 45.69 32.74 45.69
  Z"
/>
</svg>
