<?xml version="1.0" encoding="UTF-8" standalone="no"?>
<!DOCTYPE svg PUBLIC "-//W3C//DTD SVG 1.1//EN" "http://www.w3.org/Graphics/SVG/1.1/DTD/svg11.dtd">
<svg xmlns="http://www.w3.org/2000/svg" version="1.1" viewBox="0.00 0.00 66.00 88.00">
<g stroke-width="2.00" fill="none" stroke-linecap="butt">
<path stroke="#7b4b88" vector-effect="non-scaling-stroke" d="
  M 33.41 86.72
  Q 33.52 86.72 33.62 86.69
  Q 33.64 86.69 33.76 86.57
  C 47.22 73.86 60.54 57.22 63.79 39.07
  C 67.24 19.75 53.30 3.02 33.75 2.47
  Q 33.64 2.46 33.53 2.46
  Q 33.41 2.46 33.30 2.47
  C 13.75 2.97 -0.24 19.66 3.16 38.99
  C 6.36 57.15 19.63 73.82 33.06 86.57
  Q 33.18 86.69 33.20 86.69
  Q 33.29 86.72 33.41 86.72"
/>
<path stroke="#c9abd4" vector-effect="non-scaling-stroke" d="
  M 41.80 24.87
  A 9.11 9.11 0.0 0 0 32.69 15.76
  A 9.11 9.11 0.0 0 0 23.58 24.87
  A 9.11 9.11 0.0 0 0 32.69 33.98
  A 9.11 9.11 0.0 0 0 41.80 24.87"
/>
<path stroke="#c9abd4" vector-effect="non-scaling-stroke" d="
  M 32.66 52.25
  Q 43.02 52.26 43.46 52.22
  A 2.57 2.54 -60.6 0 0 44.41 51.95
  Q 47.88 50.15 47.91 45.99
  C 47.93 41.61 46.60 32.16 40.44 32.59
  A 1.50 1.42 -65.0 0 0 39.63 32.91
  Q 36.45 35.46 32.67 35.46
  Q 28.88 35.45 25.71 32.90
  A 1.50 1.42 65.1 0 0 24.90 32.58
  C 18.74 32.14 17.40 41.59 17.41 45.97
  Q 17.43 50.13 20.90 51.93
  A 2.57 2.54 60.6 0 0 21.85 52.21
  Q 22.29 52.24 32.66 52.25"
/>
</g>
<path fill="#53315e" d="
  M 33.78 88.00
  L 33.04 88.00
  C 22.17 78.19 12.04 65.63 5.74 51.77
  Q 2.17 43.90 1.59 34.95
  C 0.32 15.18 17.12 -0.32 36.52 1.47
  C 45.45 2.29 53.98 6.94 59.30 14.20
  C 77.50 39.03 51.56 71.91 33.78 88.00
  Z
  M 33.41 86.72
  Q 33.52 86.72 33.62 86.69
  Q 33.64 86.69 33.76 86.57
  C 47.22 73.86 60.54 57.22 63.79 39.07
  C 67.24 19.75 53.30 3.02 33.75 2.47
  Q 33.64 2.46 33.53 2.46
  Q 33.41 2.46 33.30 2.47
  C 13.75 2.97 -0.24 19.66 3.16 38.99
  C 6.36 57.15 19.63 73.82 33.06 86.57
  Q 33.18 86.69 33.20 86.69
  Q 33.29 86.72 33.41 86.72
  Z"
/>
<path fill="#a364b2" d="
  M 33.53 2.46
  Q 33.64 2.46 33.75 2.47
  C 53.30 3.02 67.24 19.75 63.79 39.07
  C 60.54 57.22 47.22 73.86 33.76 86.57
  Q 33.64 86.69 33.62 86.69
  Q 33.52 86.72 33.41 86.72
  Q 33.29 86.72 33.20 86.69
  Q 33.18 86.69 33.06 86.57
  C 19.63 73.82 6.36 57.15 3.16 38.99
  C -0.24 19.66 13.75 2.97 33.30 2.47
  Q 33.41 2.46 33.53 2.46
  Z
  M 41.80 24.87
  A 9.11 9.11 0.0 0 0 32.69 15.76
  A 9.11 9.11 0.0 0 0 23.58 24.87
  A 9.11 9.11 0.0 0 0 32.69 33.98
  A 9.11 9.11 0.0 0 0 41.80 24.87
  Z
  M 32.66 52.25
  Q 43.02 52.26 43.46 52.22
  A 2.57 2.54 -60.6 0 0 44.41 51.95
  Q 47.88 50.15 47.91 45.99
  C 47.93 41.61 46.60 32.16 40.44 32.59
  A 1.50 1.42 -65.0 0 0 39.63 32.91
  Q 36.45 35.46 32.67 35.46
  Q 28.88 35.45 25.71 32.90
  A 1.50 1.42 65.1 0 0 24.90 32.58
  C 18.74 32.14 17.40 41.59 17.41 45.97
  Q 17.43 50.13 20.90 51.93
  A 2.57 2.54 60.6 0 0 21.85 52.21
  Q 22.29 52.24 32.66 52.25
  Z"
/>
<circle fill="#eff1f6" cx="32.69" cy="24.87" r="9.11"/>
<path fill="#eff1f6" d="
  M 32.67 35.46
  Q 36.45 35.46 39.63 32.91
  A 1.50 1.42 -65.0 0 1 40.44 32.59
  C 46.60 32.16 47.93 41.61 47.91 45.99
  Q 47.88 50.15 44.41 51.95
  A 2.57 2.54 -60.6 0 1 43.46 52.22
  Q 43.02 52.26 32.66 52.25
  Q 22.29 52.24 21.85 52.21
  A 2.57 2.54 60.6 0 1 20.90 51.93
  Q 17.43 50.13 17.41 45.97
  C 17.40 41.59 18.74 32.14 24.90 32.58
  A 1.50 1.42 65.1 0 1 25.71 32.90
  Q 28.88 35.45 32.67 35.46
  Z"
/>
</svg>
