<?xml version="1.0" encoding="UTF-8" standalone="no"?>
<!DOCTYPE svg PUBLIC "-//W3C//DTD SVG 1.1//EN" "http://www.w3.org/Graphics/SVG/1.1/DTD/svg11.dtd">
<svg xmlns="http://www.w3.org/2000/svg" version="1.1" viewBox="0.00 0.00 66.00 88.00">
<g stroke-width="2.00" fill="none" stroke-linecap="butt">
<path stroke="#293748" vector-effect="non-scaling-stroke" d="
  M 33.41 86.59
  C 34.19 86.59 33.55 86.65 33.78 86.44
  Q 46.98 74.24 55.91 59.48
  C 64.99 44.46 68.93 25.65 55.76 11.97
  C 49.98 5.97 42.10 2.54 33.52 2.53
  C 24.94 2.52 17.05 5.93 11.25 11.91
  C -1.95 25.56 1.94 44.38 10.98 59.42
  Q 19.88 74.21 33.05 86.44
  C 33.27 86.65 32.63 86.59 33.41 86.59"
/>
<path stroke="#8d97a5" vector-effect="non-scaling-stroke" d="
  M 30.72 39.65
  L 28.16 31.98
  A 0.35 0.35 0.0 0 0 27.62 31.81
  C 22.82 35.44 16.40 39.93 20.64 46.87
  C 25.22 54.36 38.31 54.67 39.64 44.18
  Q 40.23 39.51 40.72 32.44
  A 1.50 1.50 0.0 0 1 41.63 31.16
  Q 47.63 28.67 46.41 21.76
  Q 45.66 17.52 41.19 16.32
  Q 37.14 15.23 34.72 16.78
  Q 31.99 18.52 31.20 22.20
  Q 30.11 27.26 35.09 30.83
  A 1.04 1.04 0.0 0 1 35.52 31.81
  L 33.96 44.63
  A 2.61 2.60 -89.4 0 1 31.64 46.91
  Q 27.46 47.34 25.21 44.21
  Q 24.52 43.25 24.93 40.20
  A 0.57 0.56 7.2 0 1 25.56 39.72
  L 30.20 40.28
  A 0.49 0.48 -5.7 0 0 30.72 39.65"
/>
<path stroke="#8d97a5" vector-effect="non-scaling-stroke" d="
  M 37.8059 20.5910
  A 3.23 3.04 -109.8 0 0 36.0397 24.6598
  A 3.23 3.04 -109.8 0 0 39.9941 26.6690
  A 3.23 3.04 -109.8 0 0 41.7603 22.6002
  A 3.23 3.04 -109.8 0 0 37.8059 20.5910"
/>
</g>
<path fill="#1b2631" d="
  M 33.80 88.00
  L 33.04 88.00
  C 21.74 77.74 12.00 65.56 5.58 51.41
  Q 2.18 43.93 1.59 34.82
  C 0.60 19.40 10.65 6.38 25.31 2.37
  C 36.58 -0.70 49.36 2.94 57.32 11.83
  C 79.31 36.42 52.28 71.16 33.80 88.00
  Z
  M 33.41 86.59
  C 34.19 86.59 33.55 86.65 33.78 86.44
  Q 46.98 74.24 55.91 59.48
  C 64.99 44.46 68.93 25.65 55.76 11.97
  C 49.98 5.97 42.10 2.54 33.52 2.53
  C 24.94 2.52 17.05 5.93 11.25 11.91
  C -1.95 25.56 1.94 44.38 10.98 59.42
  Q 19.88 74.21 33.05 86.44
  C 33.27 86.65 32.63 86.59 33.41 86.59
  Z"
/>
<path fill="#37485e" d="
  M 33.52 2.53
  C 42.10 2.54 49.98 5.97 55.76 11.97
  C 68.93 25.65 64.99 44.46 55.91 59.48
  Q 46.98 74.24 33.78 86.44
  C 33.55 86.65 34.19 86.59 33.41 86.59
  C 32.63 86.59 33.27 86.65 33.05 86.44
  Q 19.88 74.21 10.98 59.42
  C 1.94 44.38 -1.95 25.56 11.25 11.91
  C 17.05 5.93 24.94 2.52 33.52 2.53
  Z
  M 30.72 39.65
  L 28.16 31.98
  A 0.35 0.35 0.0 0 0 27.62 31.81
  C 22.82 35.44 16.40 39.93 20.64 46.87
  C 25.22 54.36 38.31 54.67 39.64 44.18
  Q 40.23 39.51 40.72 32.44
  A 1.50 1.50 0.0 0 1 41.63 31.16
  Q 47.63 28.67 46.41 21.76
  Q 45.66 17.52 41.19 16.32
  Q 37.14 15.23 34.72 16.78
  Q 31.99 18.52 31.20 22.20
  Q 30.11 27.26 35.09 30.83
  A 1.04 1.04 0.0 0 1 35.52 31.81
  L 33.96 44.63
  A 2.61 2.60 -89.4 0 1 31.64 46.91
  Q 27.46 47.34 25.21 44.21
  Q 24.52 43.25 24.93 40.20
  A 0.57 0.56 7.2 0 1 25.56 39.72
  L 30.20 40.28
  A 0.49 0.48 -5.7 0 0 30.72 39.65
  Z"
/>
<path fill="#e3e6ec" d="
  M 30.20 40.28
  L 25.56 39.72
  A 0.57 0.56 7.2 0 0 24.93 40.20
  Q 24.52 43.25 25.21 44.21
  Q 27.46 47.34 31.64 46.91
  A 2.61 2.60 -89.4 0 0 33.96 44.63
  L 35.52 31.81
  A 1.04 1.04 0.0 0 0 35.09 30.83
  Q 30.11 27.26 31.20 22.20
  Q 31.99 18.52 34.72 16.78
  Q 37.14 15.23 41.19 16.32
  Q 45.66 17.52 46.41 21.76
  Q 47.63 28.67 41.63 31.16
  A 1.50 1.50 0.0 0 0 40.72 32.44
  Q 40.23 39.51 39.64 44.18
  C 38.31 54.67 25.22 54.36 20.64 46.87
  C 16.40 39.93 22.82 35.44 27.62 31.81
  A 0.35 0.35 0.0 0 1 28.16 31.98
  L 30.72 39.65
  A 0.49 0.48 -5.7 0 1 30.20 40.28
  Z
  M 37.8059 20.5910
  A 3.23 3.04 -109.8 0 0 36.0397 24.6598
  A 3.23 3.04 -109.8 0 0 39.9941 26.6690
  A 3.23 3.04 -109.8 0 0 41.7603 22.6002
  A 3.23 3.04 -109.8 0 0 37.8059 20.5910
  Z"
/>
<ellipse fill="#37485e" cx="0.00" cy="0.00" transform="translate(38.90,23.63) rotate(-109.8)" rx="3.23" ry="3.04"/>
</svg>
