<?xml version="1.0" encoding="UTF-8" standalone="no"?>
<!DOCTYPE svg PUBLIC "-//W3C//DTD SVG 1.1//EN" "http://www.w3.org/Graphics/SVG/1.1/DTD/svg11.dtd">
<svg xmlns="http://www.w3.org/2000/svg" version="1.1" viewBox="0.00 0.00 66.00 88.00">
<g stroke-width="2.00" fill="none" stroke-linecap="butt">
<path stroke="#b8833b" vector-effect="non-scaling-stroke" d="
  M 33.36 86.74
  Q 33.50 86.74 33.63 86.62
  Q 46.83 74.27 55.37 60.37
  C 63.40 47.32 68.67 30.32 59.36 16.43
  C 53.59 7.82 44.31 2.49 33.57 2.46
  C 22.84 2.43 13.54 7.72 7.72 16.30
  C -1.66 30.14 3.52 47.17 11.48 60.26
  Q 19.95 74.20 33.09 86.62
  Q 33.22 86.74 33.36 86.74"
/>
<path stroke="#f1d0a3" vector-effect="non-scaling-stroke" d="
  M 33.2106 16.1365
  A 0.51 0.51 0.0 0 0 32.4894 16.1365
  L 24.0465 24.5794
  A 0.51 0.51 0.0 0 0 24.0465 25.3006
  L 32.4894 33.7435
  A 0.51 0.51 0.0 0 0 33.2106 33.7435
  L 41.6535 25.3006
  A 0.51 0.51 0.0 0 0 41.6535 24.5794
  L 33.2106 16.1365"
/>
<path stroke="#f1d0a3" vector-effect="non-scaling-stroke" d="
  M 32.73 51.91
  Q 32.79 51.91 32.84 51.90
  A 0.31 0.24 7.0 0 0 33.03 51.79
  L 44.15 34.42
  A 0.87 0.87 0.0 0 0 44.03 33.34
  L 41.98 31.29
  A 0.54 0.54 0.0 0 0 41.21 31.30
  Q 39.27 33.35 33.22 39.74
  Q 32.97 40.02 32.74 40.02
  Q 32.51 40.02 32.26 39.74
  Q 26.22 33.34 24.28 31.29
  A 0.54 0.54 0.0 0 0 23.51 31.28
  L 21.46 33.33
  A 0.87 0.87 0.0 0 0 21.34 34.41
  L 32.44 51.79
  A 0.31 0.24 -7.0 0 0 32.62 51.90
  Q 32.67 51.91 32.73 51.91"
/>
</g>
<path fill="#7c5625" d="
  M 33.81 88.00
  L 32.98 88.00
  C 22.10 78.02 12.19 65.80 5.90 52.11
  C 1.13 41.75 -0.53 28.74 4.96 18.51
  C 17.57 -5.00 51.72 -4.31 62.88 20.34
  C 66.91 29.26 65.85 40.14 62.33 49.05
  C 56.45 63.93 45.57 77.29 33.81 88.00
  Z
  M 33.36 86.74
  Q 33.50 86.74 33.63 86.62
  Q 46.83 74.27 55.37 60.37
  C 63.40 47.32 68.67 30.32 59.36 16.43
  C 53.59 7.82 44.31 2.49 33.57 2.46
  C 22.84 2.43 13.54 7.72 7.72 16.30
  C -1.66 30.14 3.52 47.17 11.48 60.26
  Q 19.95 74.20 33.09 86.62
  Q 33.22 86.74 33.36 86.74
  Z"
/>
<path fill="#f3af50" d="
  M 33.57 2.46
  C 44.31 2.49 53.59 7.82 59.36 16.43
  C 68.67 30.32 63.40 47.32 55.37 60.37
  Q 46.83 74.27 33.63 86.62
  Q 33.50 86.74 33.36 86.74
  Q 33.22 86.74 33.09 86.62
  Q 19.95 74.20 11.48 60.26
  C 3.52 47.17 -1.66 30.14 7.72 16.30
  C 13.54 7.72 22.84 2.43 33.57 2.46
  Z
  M 33.2106 16.1365
  A 0.51 0.51 0.0 0 0 32.4894 16.1365
  L 24.0465 24.5794
  A 0.51 0.51 0.0 0 0 24.0465 25.3006
  L 32.4894 33.7435
  A 0.51 0.51 0.0 0 0 33.2106 33.7435
  L 41.6535 25.3006
  A 0.51 0.51 0.0 0 0 41.6535 24.5794
  L 33.2106 16.1365
  Z
  M 32.73 51.91
  Q 32.79 51.91 32.84 51.90
  A 0.31 0.24 7.0 0 0 33.03 51.79
  L 44.15 34.42
  A 0.87 0.87 0.0 0 0 44.03 33.34
  L 41.98 31.29
  A 0.54 0.54 0.0 0 0 41.21 31.30
  Q 39.27 33.35 33.22 39.74
  Q 32.97 40.02 32.74 40.02
  Q 32.51 40.02 32.26 39.74
  Q 26.22 33.34 24.28 31.29
  A 0.54 0.54 0.0 0 0 23.51 31.28
  L 21.46 33.33
  A 0.87 0.87 0.0 0 0 21.34 34.41
  L 32.44 51.79
  A 0.31 0.24 -7.0 0 0 32.62 51.90
  Q 32.67 51.91 32.73 51.91
  Z"
/>
<rect fill="#eff1f6" x="-6.48" y="-6.48" transform="translate(32.85,24.94) rotate(-45.0)" width="12.96" height="12.96" rx="0.51"/>
<path fill="#eff1f6" d="
  M 32.74 40.02
  Q 32.97 40.02 33.22 39.74
  Q 39.27 33.35 41.21 31.30
  A 0.54 0.54 0.0 0 1 41.98 31.29
  L 44.03 33.34
  A 0.87 0.87 0.0 0 1 44.15 34.42
  L 33.03 51.79
  A 0.31 0.24 7.0 0 1 32.84 51.90
  Q 32.79 51.91 32.73 51.91
  Q 32.67 51.91 32.62 51.90
  A 0.31 0.24 -7.0 0 1 32.44 51.79
  L 21.34 34.41
  A 0.87 0.87 0.0 0 1 21.46 33.33
  L 23.51 31.28
  A 0.54 0.54 0.0 0 1 24.28 31.29
  Q 26.22 33.34 32.26 39.74
  Q 32.51 40.02 32.74 40.02
  Z"
/>
</svg>
