<?xml version="1.0" encoding="UTF-8" standalone="no"?>
<!DOCTYPE svg PUBLIC "-//W3C//DTD SVG 1.1//EN" "http://www.w3.org/Graphics/SVG/1.1/DTD/svg11.dtd">
<svg xmlns="http://www.w3.org/2000/svg" version="1.1" viewBox="0.00 0.00 66.00 88.00">
<g stroke-width="2.00" fill="none" stroke-linecap="butt">
<path stroke="#293748" vector-effect="non-scaling-stroke" d="
  M 33.43 86.59
  C 34.11 86.59 33.57 86.65 33.78 86.45
  Q 42.49 78.47 50.16 68.16
  C 61.98 52.24 71.96 29.08 56.00 12.23
  C 50.17 6.07 42.22 2.53 33.50 2.52
  C 24.79 2.51 16.83 6.04 10.99 12.19
  C -5.00 29.01 4.93 52.19 16.73 68.13
  Q 24.38 78.45 33.07 86.45
  C 33.28 86.65 32.74 86.59 33.43 86.59"
/>
<path stroke="#939daa" vector-effect="non-scaling-stroke" d="
  M 35.07 35.04
  L 38.29 38.27
  A 1.81 1.78 22.9 0 1 38.82 39.54
  L 38.82 50.19
  A 2.17 2.17 0.0 0 0 41.69 52.24
  L 49.90 49.44
  A 1.85 1.84 80.8 0 0 51.16 47.69
  L 51.16 38.84
  A 2.48 2.45 -66.3 0 0 50.53 37.19
  L 45.53 31.59
  A 2.61 2.58 20.5 0 1 44.91 30.25
  Q 44.72 28.95 44.60 26.33
  C 44.49 24.01 43.63 23.30 41.82 22.15
  A 1.14 1.11 56.0 0 0 41.00 21.98
  L 37.88 22.52
  A 1.65 1.64 65.9 0 1 36.30 21.91
  L 32.09 16.57
  A 1.84 1.81 77.4 0 0 31.13 15.95
  Q 29.34 15.48 26.81 15.88
  A 1.48 1.45 -77.5 0 0 25.81 16.53
  L 17.15 30.05
  A 2.83 2.79 66.0 0 0 16.74 31.14
  Q 15.41 40.19 14.68 46.49
  Q 14.36 49.29 15.86 50.08
  A 1.59 1.12 55.0 0 0 16.08 50.16
  L 24.57 52.28
  A 1.49 1.46 41.0 0 0 25.41 52.23
  Q 28.00 51.26 28.08 49.51
  Q 28.11 48.84 28.16 39.83
  A 2.58 2.57 -14.9 0 1 29.45 37.62
  L 34.12 34.92
  A 0.79 0.79 0.0 0 1 35.07 35.04"
/>
</g>
<path fill="#1b2631" d="
  M 33.81 88.00
  L 33.04 88.00
  C 21.81 77.80 12.21 65.78 5.74 51.77
  Q 2.20 44.12 1.59 34.95
  Q 0.99 25.85 5.16 18.18
  C 17.86 -5.18 51.80 -4.00 62.86 20.29
  C 66.99 29.36 65.80 40.54 62.13 49.57
  C 56.13 64.28 45.47 77.35 33.81 88.00
  Z
  M 33.43 86.59
  C 34.11 86.59 33.57 86.65 33.78 86.45
  Q 42.49 78.47 50.16 68.16
  C 61.98 52.24 71.96 29.08 56.00 12.23
  C 50.17 6.07 42.22 2.53 33.50 2.52
  C 24.79 2.51 16.83 6.04 10.99 12.19
  C -5.00 29.01 4.93 52.19 16.73 68.13
  Q 24.38 78.45 33.07 86.45
  C 33.28 86.65 32.74 86.59 33.43 86.59
  Z"
/>
<path fill="#37485e" d="
  M 33.50 2.52
  C 42.22 2.53 50.17 6.07 56.00 12.23
  C 71.96 29.08 61.98 52.24 50.16 68.16
  Q 42.49 78.47 33.78 86.45
  C 33.57 86.65 34.11 86.59 33.43 86.59
  C 32.74 86.59 33.28 86.65 33.07 86.45
  Q 24.38 78.45 16.73 68.13
  C 4.93 52.19 -5.00 29.01 10.99 12.19
  C 16.83 6.04 24.79 2.51 33.50 2.52
  Z
  M 35.07 35.04
  L 38.29 38.27
  A 1.81 1.78 22.9 0 1 38.82 39.54
  L 38.82 50.19
  A 2.17 2.17 0.0 0 0 41.69 52.24
  L 49.90 49.44
  A 1.85 1.84 80.8 0 0 51.16 47.69
  L 51.16 38.84
  A 2.48 2.45 -66.3 0 0 50.53 37.19
  L 45.53 31.59
  A 2.61 2.58 20.5 0 1 44.91 30.25
  Q 44.72 28.95 44.60 26.33
  C 44.49 24.01 43.63 23.30 41.82 22.15
  A 1.14 1.11 56.0 0 0 41.00 21.98
  L 37.88 22.52
  A 1.65 1.64 65.9 0 1 36.30 21.91
  L 32.09 16.57
  A 1.84 1.81 77.4 0 0 31.13 15.95
  Q 29.34 15.48 26.81 15.88
  A 1.48 1.45 -77.5 0 0 25.81 16.53
  L 17.15 30.05
  A 2.83 2.79 66.0 0 0 16.74 31.14
  Q 15.41 40.19 14.68 46.49
  Q 14.36 49.29 15.86 50.08
  A 1.59 1.12 55.0 0 0 16.08 50.16
  L 24.57 52.28
  A 1.49 1.46 41.0 0 0 25.41 52.23
  Q 28.00 51.26 28.08 49.51
  Q 28.11 48.84 28.16 39.83
  A 2.58 2.57 -14.9 0 1 29.45 37.62
  L 34.12 34.92
  A 0.79 0.79 0.0 0 1 35.07 35.04
  Z"
/>
<path fill="#eff1f6" d="
  M 34.12 34.92
  L 29.45 37.62
  A 2.58 2.57 -14.9 0 0 28.16 39.83
  Q 28.11 48.84 28.08 49.51
  Q 28.00 51.26 25.41 52.23
  A 1.49 1.46 41.0 0 1 24.57 52.28
  L 16.08 50.16
  A 1.59 1.12 55.0 0 1 15.86 50.08
  Q 14.36 49.29 14.68 46.49
  Q 15.41 40.19 16.74 31.14
  A 2.83 2.79 66.0 0 1 17.15 30.05
  L 25.81 16.53
  A 1.48 1.45 -77.5 0 1 26.81 15.88
  Q 29.34 15.48 31.13 15.95
  A 1.84 1.81 77.4 0 1 32.09 16.57
  L 36.30 21.91
  A 1.65 1.64 65.9 0 0 37.88 22.52
  L 41.00 21.98
  A 1.14 1.11 56.0 0 1 41.82 22.15
  C 43.63 23.30 44.49 24.01 44.60 26.33
  Q 44.72 28.95 44.91 30.25
  A 2.61 2.58 20.5 0 0 45.53 31.59
  L 50.53 37.19
  A 2.48 2.45 -66.3 0 1 51.16 38.84
  L 51.16 47.69
  A 1.85 1.84 80.8 0 1 49.90 49.44
  L 41.69 52.24
  A 2.17 2.17 0.0 0 1 38.82 50.19
  L 38.82 39.54
  A 1.81 1.78 22.9 0 0 38.29 38.27
  L 35.07 35.04
  A 0.79 0.79 0.0 0 0 34.12 34.92
  Z"
/>
</svg>
