<?xml version="1.0" encoding="UTF-8" standalone="no"?>
<!DOCTYPE svg PUBLIC "-//W3C//DTD SVG 1.1//EN" "http://www.w3.org/Graphics/SVG/1.1/DTD/svg11.dtd">
<svg xmlns="http://www.w3.org/2000/svg" version="1.1" viewBox="0.00 0.00 66.00 88.00">
<g stroke-width="2.00" fill="none" stroke-linecap="butt">
<path stroke="#293748" vector-effect="non-scaling-stroke" d="
  M 33.42 86.60
  C 33.92 86.60 33.61 86.63 33.79 86.47
  Q 48.57 72.88 57.71 56.25
  Q 63.97 44.85 64.24 33.50
  C 64.64 16.33 50.57 2.54 33.51 2.52
  C 16.45 2.50 2.35 16.26 2.72 33.44
  Q 2.96 44.78 9.20 56.20
  Q 18.30 72.85 33.05 86.47
  C 33.23 86.63 32.93 86.60 33.42 86.60"
/>
<path stroke="#939daa" vector-effect="non-scaling-stroke" d="
  M 39.36 52.27
  A 0.99 0.99 0.0 0 0 40.35 51.29
  Q 40.39 42.80 40.25 39.51
  Q 40.22 38.64 38.56 37.03
  A 1.50 1.47 22.6 0 1 38.11 35.97
  L 38.11 19.88
  A 0.90 0.90 0.0 0 0 36.57 19.24
  L 35.10 20.70
  A 1.28 1.28 0.0 0 1 32.91 19.79
  L 32.91 16.42
  A 0.73 0.73 0.0 0 0 32.18 15.69
  L 31.31 15.69
  A 0.74 0.74 0.0 0 0 30.57 16.39
  L 30.27 21.39
  A 2.68 2.66 62.7 0 1 29.88 22.63
  Q 29.35 23.48 29.24 24.26
  Q 28.64 28.55 28.29 35.11
  A 1.53 1.50 74.6 0 1 27.64 36.28
  C 25.11 38.05 25.72 40.93 25.70 43.72
  Q 25.64 50.84 25.65 51.63
  A 0.62 0.62 0.0 0 0 26.27 52.25
  L 31.57 52.25
  A 0.58 0.58 0.0 0 0 32.15 51.67
  L 32.15 49.50
  A 0.80 0.77 23.9 0 0 31.93 48.96
  L 27.11 43.86
  A 0.93 0.92 45.9 0 1 27.12 42.57
  L 31.85 37.83
  A 1.04 1.03 -20.3 0 0 32.15 37.18
  L 32.35 33.82
  A 0.60 0.60 0.0 0 1 32.99 33.26
  L 33.02 33.26
  A 0.65 0.64 -89.5 0 1 33.54 33.80
  L 34.08 37.45
  A 0.82 0.79 19.3 0 0 34.29 37.87
  L 39.32 42.90
  A 0.66 0.65 46.5 0 1 39.30 43.85
  L 34.12 48.61
  A 0.64 0.63 -21.4 0 0 33.91 49.08
  L 33.91 51.51
  A 0.76 0.76 0.0 0 0 34.67 52.27
  L 39.36 52.27"
/>
<path stroke="#939daa" vector-effect="non-scaling-stroke" d="
  M 32.32 39.78
  L 29.55 42.59
  A 0.93 0.93 0.0 0 0 29.56 43.90
  L 31.13 45.45
  A 2.87 0.24 44.6 0 0 33.34 47.29
  L 37.07 43.50
  A 2.87 0.24 44.6 0 0 35.20 41.32
  L 33.63 39.77
  A 0.93 0.93 0.0 0 0 32.32 39.78"
/>
</g>
<path fill="#1b2631" d="
  M 33.82 88.00
  L 33.03 88.00
  C 16.88 73.31 -5.96 44.68 3.78 21.09
  C 12.17 0.77 38.82 -5.43 55.25 9.74
  Q 67.67 21.21 64.95 39.48
  Q 64.26 44.14 61.85 50.12
  C 56.11 64.37 45.28 77.47 33.82 88.00
  Z
  M 33.42 86.60
  C 33.92 86.60 33.61 86.63 33.79 86.47
  Q 48.57 72.88 57.71 56.25
  Q 63.97 44.85 64.24 33.50
  C 64.64 16.33 50.57 2.54 33.51 2.52
  C 16.45 2.50 2.35 16.26 2.72 33.44
  Q 2.96 44.78 9.20 56.20
  Q 18.30 72.85 33.05 86.47
  C 33.23 86.63 32.93 86.60 33.42 86.60
  Z"
/>
<path fill="#37485e" d="
  M 33.51 2.52
  C 50.57 2.54 64.64 16.33 64.24 33.50
  Q 63.97 44.85 57.71 56.25
  Q 48.57 72.88 33.79 86.47
  C 33.61 86.63 33.92 86.60 33.42 86.60
  C 32.93 86.60 33.23 86.63 33.05 86.47
  Q 18.30 72.85 9.20 56.20
  Q 2.96 44.78 2.72 33.44
  C 2.35 16.26 16.45 2.50 33.51 2.52
  Z
  M 39.36 52.27
  A 0.99 0.99 0.0 0 0 40.35 51.29
  Q 40.39 42.80 40.25 39.51
  Q 40.22 38.64 38.56 37.03
  A 1.50 1.47 22.6 0 1 38.11 35.97
  L 38.11 19.88
  A 0.90 0.90 0.0 0 0 36.57 19.24
  L 35.10 20.70
  A 1.28 1.28 0.0 0 1 32.91 19.79
  L 32.91 16.42
  A 0.73 0.73 0.0 0 0 32.18 15.69
  L 31.31 15.69
  A 0.74 0.74 0.0 0 0 30.57 16.39
  L 30.27 21.39
  A 2.68 2.66 62.7 0 1 29.88 22.63
  Q 29.35 23.48 29.24 24.26
  Q 28.64 28.55 28.29 35.11
  A 1.53 1.50 74.6 0 1 27.64 36.28
  C 25.11 38.05 25.72 40.93 25.70 43.72
  Q 25.64 50.84 25.65 51.63
  A 0.62 0.62 0.0 0 0 26.27 52.25
  L 31.57 52.25
  A 0.58 0.58 0.0 0 0 32.15 51.67
  L 32.15 49.50
  A 0.80 0.77 23.9 0 0 31.93 48.96
  L 27.11 43.86
  A 0.93 0.92 45.9 0 1 27.12 42.57
  L 31.85 37.83
  A 1.04 1.03 -20.3 0 0 32.15 37.18
  L 32.35 33.82
  A 0.60 0.60 0.0 0 1 32.99 33.26
  L 33.02 33.26
  A 0.65 0.64 -89.5 0 1 33.54 33.80
  L 34.08 37.45
  A 0.82 0.79 19.3 0 0 34.29 37.87
  L 39.32 42.90
  A 0.66 0.65 46.5 0 1 39.30 43.85
  L 34.12 48.61
  A 0.64 0.63 -21.4 0 0 33.91 49.08
  L 33.91 51.51
  A 0.76 0.76 0.0 0 0 34.67 52.27
  L 39.36 52.27
  Z
  M 32.32 39.78
  L 29.55 42.59
  A 0.93 0.93 0.0 0 0 29.56 43.90
  L 31.13 45.45
  A 2.87 0.24 44.6 0 0 33.34 47.29
  L 37.07 43.50
  A 2.87 0.24 44.6 0 0 35.20 41.32
  L 33.63 39.77
  A 0.93 0.93 0.0 0 0 32.32 39.78
  Z"
/>
<path fill="#eff1f6" d="
  M 33.91 51.51
  L 33.91 49.08
  A 0.64 0.63 -21.4 0 1 34.12 48.61
  L 39.30 43.85
  A 0.66 0.65 46.5 0 0 39.32 42.90
  L 34.29 37.87
  A 0.82 0.79 19.3 0 1 34.08 37.45
  L 33.54 33.80
  A 0.65 0.64 -89.5 0 0 33.02 33.26
  L 32.99 33.26
  A 0.60 0.60 0.0 0 0 32.35 33.82
  L 32.15 37.18
  A 1.04 1.03 -20.3 0 1 31.85 37.83
  L 27.12 42.57
  A 0.93 0.92 45.9 0 0 27.11 43.86
  L 31.93 48.96
  A 0.80 0.77 23.9 0 1 32.15 49.50
  L 32.15 51.67
  A 0.58 0.58 0.0 0 1 31.57 52.25
  L 26.27 52.25
  A 0.62 0.62 0.0 0 1 25.65 51.63
  Q 25.64 50.84 25.70 43.72
  C 25.72 40.93 25.11 38.05 27.64 36.28
  A 1.53 1.50 74.6 0 0 28.29 35.11
  Q 28.64 28.55 29.24 24.26
  Q 29.35 23.48 29.88 22.63
  A 2.68 2.66 62.7 0 0 30.27 21.39
  L 30.57 16.39
  A 0.74 0.74 0.0 0 1 31.31 15.69
  L 32.18 15.69
  A 0.73 0.73 0.0 0 1 32.91 16.42
  L 32.91 19.79
  A 1.28 1.28 0.0 0 0 35.10 20.70
  L 36.57 19.24
  A 0.90 0.90 0.0 0 1 38.11 19.88
  L 38.11 35.97
  A 1.50 1.47 22.6 0 0 38.56 37.03
  Q 40.22 38.64 40.25 39.51
  Q 40.39 42.80 40.35 51.29
  A 0.99 0.99 0.0 0 1 39.36 52.27
  L 34.67 52.27
  A 0.76 0.76 0.0 0 1 33.91 51.51
  Z"
/>
<path fill="#eff1f6" d="
  M 32.32 39.78
  A 0.93 0.93 0.0 0 1 33.63 39.77
  L 35.20 41.32
  A 2.87 0.24 44.6 0 1 37.07 43.50
  L 33.34 47.29
  A 2.87 0.24 44.6 0 1 31.13 45.45
  L 29.56 43.90
  A 0.93 0.93 0.0 0 1 29.55 42.59
  L 32.32 39.78
  Z"
/>
</svg>
