<?xml version="1.0" encoding="UTF-8" standalone="no"?>
<!DOCTYPE svg PUBLIC "-//W3C//DTD SVG 1.1//EN" "http://www.w3.org/Graphics/SVG/1.1/DTD/svg11.dtd">
<svg xmlns="http://www.w3.org/2000/svg" version="1.1" viewBox="0.00 0.00 66.00 88.00">
<g stroke-width="2.00" fill="none" stroke-linecap="butt">
<path stroke="#30744e" vector-effect="non-scaling-stroke" d="
  M 33.41 86.72
  Q 33.53 86.72 33.65 86.61
  C 51.26 70.30 78.23 35.74 55.92 12.10
  Q 47.66 3.35 35.25 2.53
  Q 34.24 2.46 33.53 2.46
  Q 32.83 2.46 31.82 2.52
  Q 19.40 3.31 11.12 12.03
  C -11.26 35.61 15.61 70.25 33.16 86.61
  Q 33.29 86.72 33.41 86.72"
/>
<path stroke="#98c5b0" vector-effect="non-scaling-stroke" d="
  M 33.01 52.24
  Q 35.51 52.23 36.03 52.10
  C 44.71 49.82 47.93 42.39 46.06 33.65
  C 44.79 27.72 40.01 15.82 32.96 15.83
  C 25.92 15.83 21.17 27.75 19.91 33.68
  C 18.06 42.42 21.30 49.85 29.98 52.11
  Q 30.50 52.24 33.01 52.24"
/>
<path stroke="#98c5b0" vector-effect="non-scaling-stroke" d="
  M 31.97 22.88
  A 2.89 2.89 0.0 0 0 29.08 19.99
  A 2.89 2.89 0.0 0 0 26.19 22.88
  A 2.89 2.89 0.0 0 0 29.08 25.77
  A 2.89 2.89 0.0 0 0 31.97 22.88"
/>
<path stroke="#98c5b0" vector-effect="non-scaling-stroke" d="
  M 37.54 22.91
  A 1.22 1.22 0.0 0 0 36.32 21.69
  A 1.22 1.22 0.0 0 0 35.10 22.91
  A 1.22 1.22 0.0 0 0 36.32 24.13
  A 1.22 1.22 0.0 0 0 37.54 22.91"
/>
<path stroke="#98c5b0" vector-effect="non-scaling-stroke" d="
  M 42.61 30.25
  A 3.55 3.55 0.0 0 0 39.06 26.70
  A 3.55 3.55 0.0 0 0 35.51 30.25
  A 3.55 3.55 0.0 0 0 39.06 33.80
  A 3.55 3.55 0.0 0 0 42.61 30.25"
/>
<path stroke="#98c5b0" vector-effect="non-scaling-stroke" d="
  M 28.68 33.37
  A 1.56 1.56 0.0 0 0 27.12 31.81
  A 1.56 1.56 0.0 0 0 25.56 33.37
  A 1.56 1.56 0.0 0 0 27.12 34.93
  A 1.56 1.56 0.0 0 0 28.68 33.37"
/>
<path stroke="#98c5b0" vector-effect="non-scaling-stroke" d="
  M 36.70 37.98
  A 1.27 1.27 0.0 0 0 35.43 36.71
  A 1.27 1.27 0.0 0 0 34.16 37.98
  A 1.27 1.27 0.0 0 0 35.43 39.25
  A 1.27 1.27 0.0 0 0 36.70 37.98"
/>
<path stroke="#98c5b0" vector-effect="non-scaling-stroke" d="
  M 44.03 39.55
  A 2.27 2.27 0.0 0 0 41.76 37.28
  A 2.27 2.27 0.0 0 0 39.49 39.55
  A 2.27 2.27 0.0 0 0 41.76 41.82
  A 2.27 2.27 0.0 0 0 44.03 39.55"
/>
<path stroke="#98c5b0" vector-effect="non-scaling-stroke" d="
  M 27.92 41.82
  A 1.68 1.68 0.0 0 0 26.24 40.14
  A 1.68 1.68 0.0 0 0 24.56 41.82
  A 1.68 1.68 0.0 0 0 26.24 43.50
  A 1.68 1.68 0.0 0 0 27.92 41.82"
/>
<path stroke="#98c5b0" vector-effect="non-scaling-stroke" d="
  M 35.00 43.71
  A 2.53 2.53 0.0 0 0 32.47 41.18
  A 2.53 2.53 0.0 0 0 29.94 43.71
  A 2.53 2.53 0.0 0 0 32.47 46.24
  A 2.53 2.53 0.0 0 0 35.00 43.71"
/>
<path stroke="#98c5b0" vector-effect="non-scaling-stroke" d="
  M 38.82 47.61
  A 1.27 1.27 0.0 0 0 37.55 46.34
  A 1.27 1.27 0.0 0 0 36.28 47.61
  A 1.27 1.27 0.0 0 0 37.55 48.88
  A 1.27 1.27 0.0 0 0 38.82 47.61"
/>
</g>
<path fill="#1e4f33" d="
  M 33.81 88.00
  L 33.04 88.00
  C 21.95 77.93 11.89 65.48 5.64 51.57
  Q 2.20 43.92 1.59 34.88
  C 0.79 22.87 6.94 11.60 17.26 5.69
  C 33.33 -3.51 53.67 2.31 62.16 18.82
  C 67.39 28.99 65.88 41.18 61.31 51.54
  C 55.21 65.38 44.95 77.84 33.81 88.00
  Z
  M 33.41 86.72
  Q 33.53 86.72 33.65 86.61
  C 51.26 70.30 78.23 35.74 55.92 12.10
  Q 47.66 3.35 35.25 2.53
  Q 34.24 2.46 33.53 2.46
  Q 32.83 2.46 31.82 2.52
  Q 19.40 3.31 11.12 12.03
  C -11.26 35.61 15.61 70.25 33.16 86.61
  Q 33.29 86.72 33.41 86.72
  Z"
/>
<path fill="#419869" d="
  M 33.53 2.46
  Q 34.24 2.46 35.25 2.53
  Q 47.66 3.35 55.92 12.10
  C 78.23 35.74 51.26 70.30 33.65 86.61
  Q 33.53 86.72 33.41 86.72
  Q 33.29 86.72 33.16 86.61
  C 15.61 70.25 -11.26 35.61 11.12 12.03
  Q 19.40 3.31 31.82 2.52
  Q 32.83 2.46 33.53 2.46
  Z
  M 33.01 52.24
  Q 35.51 52.23 36.03 52.10
  C 44.71 49.82 47.93 42.39 46.06 33.65
  C 44.79 27.72 40.01 15.82 32.96 15.83
  C 25.92 15.83 21.17 27.75 19.91 33.68
  C 18.06 42.42 21.30 49.85 29.98 52.11
  Q 30.50 52.24 33.01 52.24
  Z"
/>
<path fill="#eff1f6" d="
  M 32.96 15.83
  C 40.01 15.82 44.79 27.72 46.06 33.65
  C 47.93 42.39 44.71 49.82 36.03 52.10
  Q 35.51 52.23 33.01 52.24
  Q 30.50 52.24 29.98 52.11
  C 21.30 49.85 18.06 42.42 19.91 33.68
  C 21.17 27.75 25.92 15.83 32.96 15.83
  Z
  M 31.97 22.88
  A 2.89 2.89 0.0 0 0 29.08 19.99
  A 2.89 2.89 0.0 0 0 26.19 22.88
  A 2.89 2.89 0.0 0 0 29.08 25.77
  A 2.89 2.89 0.0 0 0 31.97 22.88
  Z
  M 37.54 22.91
  A 1.22 1.22 0.0 0 0 36.32 21.69
  A 1.22 1.22 0.0 0 0 35.10 22.91
  A 1.22 1.22 0.0 0 0 36.32 24.13
  A 1.22 1.22 0.0 0 0 37.54 22.91
  Z
  M 42.61 30.25
  A 3.55 3.55 0.0 0 0 39.06 26.70
  A 3.55 3.55 0.0 0 0 35.51 30.25
  A 3.55 3.55 0.0 0 0 39.06 33.80
  A 3.55 3.55 0.0 0 0 42.61 30.25
  Z
  M 28.68 33.37
  A 1.56 1.56 0.0 0 0 27.12 31.81
  A 1.56 1.56 0.0 0 0 25.56 33.37
  A 1.56 1.56 0.0 0 0 27.12 34.93
  A 1.56 1.56 0.0 0 0 28.68 33.37
  Z
  M 36.70 37.98
  A 1.27 1.27 0.0 0 0 35.43 36.71
  A 1.27 1.27 0.0 0 0 34.16 37.98
  A 1.27 1.27 0.0 0 0 35.43 39.25
  A 1.27 1.27 0.0 0 0 36.70 37.98
  Z
  M 44.03 39.55
  A 2.27 2.27 0.0 0 0 41.76 37.28
  A 2.27 2.27 0.0 0 0 39.49 39.55
  A 2.27 2.27 0.0 0 0 41.76 41.82
  A 2.27 2.27 0.0 0 0 44.03 39.55
  Z
  M 27.92 41.82
  A 1.68 1.68 0.0 0 0 26.24 40.14
  A 1.68 1.68 0.0 0 0 24.56 41.82
  A 1.68 1.68 0.0 0 0 26.24 43.50
  A 1.68 1.68 0.0 0 0 27.92 41.82
  Z
  M 35.00 43.71
  A 2.53 2.53 0.0 0 0 32.47 41.18
  A 2.53 2.53 0.0 0 0 29.94 43.71
  A 2.53 2.53 0.0 0 0 32.47 46.24
  A 2.53 2.53 0.0 0 0 35.00 43.71
  Z
  M 38.82 47.61
  A 1.27 1.27 0.0 0 0 37.55 46.34
  A 1.27 1.27 0.0 0 0 36.28 47.61
  A 1.27 1.27 0.0 0 0 37.55 48.88
  A 1.27 1.27 0.0 0 0 38.82 47.61
  Z"
/>
<circle fill="#419869" cx="29.08" cy="22.88" r="2.89"/>
<circle fill="#419869" cx="36.32" cy="22.91" r="1.22"/>
<circle fill="#419869" cx="39.06" cy="30.25" r="3.55"/>
<circle fill="#419869" cx="27.12" cy="33.37" r="1.56"/>
<circle fill="#419869" cx="35.43" cy="37.98" r="1.27"/>
<circle fill="#419869" cx="41.76" cy="39.55" r="2.27"/>
<circle fill="#419869" cx="26.24" cy="41.82" r="1.68"/>
<circle fill="#419869" cx="32.47" cy="43.71" r="2.53"/>
<circle fill="#419869" cx="37.55" cy="47.61" r="1.27"/>
</svg>
