<?xml version="1.0" encoding="UTF-8" standalone="no"?>
<!DOCTYPE svg PUBLIC "-//W3C//DTD SVG 1.1//EN" "http://www.w3.org/Graphics/SVG/1.1/DTD/svg11.dtd">
<svg xmlns="http://www.w3.org/2000/svg" version="1.1" viewBox="0.00 0.00 66.00 88.00">
<g stroke-width="2.00" fill="none" stroke-linecap="butt">
<path stroke="#406c74" vector-effect="non-scaling-stroke" d="
  M 33.40 86.70
  Q 33.51 86.70 33.61 86.68
  Q 33.62 86.67 33.75 86.56
  C 44.98 76.10 55.92 62.52 61.34 48.14
  C 67.90 30.77 63.41 13.25 46.09 5.18
  Q 40.32 2.49 33.54 2.48
  Q 26.76 2.47 20.98 5.14
  C 3.64 13.15 -0.91 30.65 5.59 48.05
  C 10.96 62.44 21.85 76.06 33.05 86.56
  Q 33.18 86.67 33.19 86.68
  Q 33.29 86.70 33.40 86.70"
/>
<path stroke="#a3c0c7" vector-effect="non-scaling-stroke" d="
  M 33.00 52.24
  C 36.60 52.23 41.61 53.03 41.62 47.60
  Q 41.64 40.83 41.62 34.72
  Q 41.60 30.43 37.88 28.46
  A 0.46 0.46 0.0 0 1 37.71 27.80
  Q 41.02 22.87 37.69 18.26
  Q 35.93 15.83 32.97 15.83
  Q 30.01 15.83 28.26 18.27
  Q 24.93 22.88 28.25 27.81
  A 0.46 0.46 0.0 0 1 28.08 28.47
  Q 24.36 30.44 24.35 34.73
  Q 24.33 40.84 24.36 47.61
  C 24.39 53.04 29.39 52.24 33.00 52.24"
/>
<path stroke="#a3c0c7" vector-effect="non-scaling-stroke" d="
  M 23.92 27.62
  L 16.71 26.22
  A 1.61 1.61 0.0 0 0 14.83 27.45
  Q 14.05 30.98 17.47 31.97
  A 1.29 1.29 0.0 0 1 18.34 32.84
  Q 18.86 34.55 21.03 34.95
  A 0.55 0.55 0.0 0 0 21.66 34.29
  Q 21.17 32.08 24.09 28.04
  A 0.27 0.27 0.0 0 0 23.92 27.62"
/>
<path stroke="#a3c0c7" vector-effect="non-scaling-stroke" d="
  M 42.03 27.62
  A 0.27 0.27 0.0 0 0 41.86 28.04
  Q 44.78 32.08 44.28 34.29
  A 0.55 0.55 0.0 0 0 44.91 34.95
  Q 47.08 34.56 47.60 32.85
  A 1.29 1.29 0.0 0 1 48.48 31.98
  Q 51.90 31.00 51.13 27.46
  A 1.61 1.61 0.0 0 0 49.25 26.23
  L 42.03 27.62"
/>
<path stroke="#a3c0c7" vector-effect="non-scaling-stroke" d="
  M 32.9646 18.5100
  A 4.40 3.52 -90.2 0 0 29.4600 22.9223
  A 4.40 3.52 -90.2 0 0 32.9954 27.3100
  A 4.40 3.52 -90.2 0 0 36.5000 22.8977
  A 4.40 3.52 -90.2 0 0 32.9646 18.5100"
/>
</g>
<path fill="#284a4f" d="
  M 33.80 88.00
  L 33.04 88.00
  C 21.76 77.75 11.98 65.54 5.58 51.41
  Q 2.17 43.87 1.59 34.82
  C 0.57 18.80 11.33 5.58 26.75 2.03
  C 33.20 0.55 40.54 1.36 46.60 4.10
  Q 60.88 10.57 64.83 26.26
  Q 65.72 29.77 65.38 35.27
  C 64.18 55.13 47.99 75.09 33.80 88.00
  Z
  M 33.40 86.70
  Q 33.51 86.70 33.61 86.68
  Q 33.62 86.67 33.75 86.56
  C 44.98 76.10 55.92 62.52 61.34 48.14
  C 67.90 30.77 63.41 13.25 46.09 5.18
  Q 40.32 2.49 33.54 2.48
  Q 26.76 2.47 20.98 5.14
  C 3.64 13.15 -0.91 30.65 5.59 48.05
  C 10.96 62.44 21.85 76.06 33.05 86.56
  Q 33.18 86.67 33.19 86.68
  Q 33.29 86.70 33.40 86.70
  Z"
/>
<path fill="#578e98" d="
  M 33.54 2.48
  Q 40.32 2.49 46.09 5.18
  C 63.41 13.25 67.90 30.77 61.34 48.14
  C 55.92 62.52 44.98 76.10 33.75 86.56
  Q 33.62 86.67 33.61 86.68
  Q 33.51 86.70 33.40 86.70
  Q 33.29 86.70 33.19 86.68
  Q 33.18 86.67 33.05 86.56
  C 21.85 76.06 10.96 62.44 5.59 48.05
  C -0.91 30.65 3.64 13.15 20.98 5.14
  Q 26.76 2.47 33.54 2.48
  Z
  M 33.00 52.24
  C 36.60 52.23 41.61 53.03 41.62 47.60
  Q 41.64 40.83 41.62 34.72
  Q 41.60 30.43 37.88 28.46
  A 0.46 0.46 0.0 0 1 37.71 27.80
  Q 41.02 22.87 37.69 18.26
  Q 35.93 15.83 32.97 15.83
  Q 30.01 15.83 28.26 18.27
  Q 24.93 22.88 28.25 27.81
  A 0.46 0.46 0.0 0 1 28.08 28.47
  Q 24.36 30.44 24.35 34.73
  Q 24.33 40.84 24.36 47.61
  C 24.39 53.04 29.39 52.24 33.00 52.24
  Z
  M 23.92 27.62
  L 16.71 26.22
  A 1.61 1.61 0.0 0 0 14.83 27.45
  Q 14.05 30.98 17.47 31.97
  A 1.29 1.29 0.0 0 1 18.34 32.84
  Q 18.86 34.55 21.03 34.95
  A 0.55 0.55 0.0 0 0 21.66 34.29
  Q 21.17 32.08 24.09 28.04
  A 0.27 0.27 0.0 0 0 23.92 27.62
  Z
  M 42.03 27.62
  A 0.27 0.27 0.0 0 0 41.86 28.04
  Q 44.78 32.08 44.28 34.29
  A 0.55 0.55 0.0 0 0 44.91 34.95
  Q 47.08 34.56 47.60 32.85
  A 1.29 1.29 0.0 0 1 48.48 31.98
  Q 51.90 31.00 51.13 27.46
  A 1.61 1.61 0.0 0 0 49.25 26.23
  L 42.03 27.62
  Z"
/>
<path fill="#eff1f6" d="
  M 32.97 15.83
  Q 35.93 15.83 37.69 18.26
  Q 41.02 22.87 37.71 27.80
  A 0.46 0.46 0.0 0 0 37.88 28.46
  Q 41.60 30.43 41.62 34.72
  Q 41.64 40.83 41.62 47.60
  C 41.61 53.03 36.60 52.23 33.00 52.24
  C 29.39 52.24 24.39 53.04 24.36 47.61
  Q 24.33 40.84 24.35 34.73
  Q 24.36 30.44 28.08 28.47
  A 0.46 0.46 0.0 0 0 28.25 27.81
  Q 24.93 22.88 28.26 18.27
  Q 30.01 15.83 32.97 15.83
  Z
  M 32.9646 18.5100
  A 4.40 3.52 -90.2 0 0 29.4600 22.9223
  A 4.40 3.52 -90.2 0 0 32.9954 27.3100
  A 4.40 3.52 -90.2 0 0 36.5000 22.8977
  A 4.40 3.52 -90.2 0 0 32.9646 18.5100
  Z"
/>
<ellipse fill="#578e98" cx="0.00" cy="0.00" transform="translate(32.98,22.91) rotate(-90.2)" rx="4.40" ry="3.52"/>
<path fill="#eff1f6" d="
  M 23.92 27.62
  A 0.27 0.27 0.0 0 1 24.09 28.04
  Q 21.17 32.08 21.66 34.29
  A 0.55 0.55 0.0 0 1 21.03 34.95
  Q 18.86 34.55 18.34 32.84
  A 1.29 1.29 0.0 0 0 17.47 31.97
  Q 14.05 30.98 14.83 27.45
  A 1.61 1.61 0.0 0 1 16.71 26.22
  L 23.92 27.62
  Z"
/>
<path fill="#eff1f6" d="
  M 42.03 27.62
  L 49.25 26.23
  A 1.61 1.61 0.0 0 1 51.13 27.46
  Q 51.90 31.00 48.48 31.98
  A 1.29 1.29 0.0 0 0 47.60 32.85
  Q 47.08 34.56 44.91 34.95
  A 0.55 0.55 0.0 0 1 44.28 34.29
  Q 44.78 32.08 41.86 28.04
  A 0.27 0.27 0.0 0 1 42.03 27.62
  Z"
/>
</svg>
