<?xml version="1.0" encoding="UTF-8" standalone="no"?>
<!DOCTYPE svg PUBLIC "-//W3C//DTD SVG 1.1//EN" "http://www.w3.org/Graphics/SVG/1.1/DTD/svg11.dtd">
<svg xmlns="http://www.w3.org/2000/svg" version="1.1" viewBox="0.00 0.00 66.00 88.00">
<g stroke-width="2.00" fill="none" stroke-linecap="butt">
<path stroke="#406c74" vector-effect="non-scaling-stroke" d="
  M 33.39 86.70
  Q 33.49 86.70 33.60 86.68
  Q 33.70 86.66 33.78 86.58
  Q 49.87 71.00 57.57 56.54
  Q 62.76 46.78 63.88 38.33
  Q 66.62 17.45 48.75 6.53
  Q 42.12 2.48 33.54 2.46
  Q 24.95 2.45 18.31 6.47
  Q 0.40 17.34 3.07 38.23
  Q 4.16 46.68 9.32 56.46
  Q 16.97 70.94 33.01 86.58
  Q 33.09 86.66 33.18 86.68
  Q 33.29 86.70 33.39 86.70"
/>
<path stroke="#a3c0c7" vector-effect="non-scaling-stroke" d="
  M 33.00 52.24
  Q 47.03 52.23 47.57 52.22
  A 0.92 0.92 0.0 0 0 48.34 50.83
  L 47.28 49.01
  A 1.64 1.63 -60.1 0 1 47.06 48.19
  L 47.06 30.62
  A 1.07 1.05 78.8 0 1 47.70 29.64
  L 50.53 28.41
  A 0.35 0.35 0.0 0 0 50.39 27.73
  L 47.70 27.73
  A 0.65 0.65 0.0 0 1 47.06 27.20
  Q 46.85 26.14 46.65 25.07
  C 45.37 18.42 39.16 15.80 32.98 15.80
  C 26.81 15.80 20.59 18.44 19.33 25.08
  Q 19.13 26.16 18.92 27.22
  A 0.65 0.65 0.0 0 1 18.28 27.75
  L 15.59 27.75
  A 0.35 0.35 0.0 0 0 15.45 28.43
  L 18.28 29.66
  A 1.07 1.05 -78.9 0 1 18.92 30.64
  L 18.94 48.21
  A 1.64 1.63 60.1 0 1 18.72 49.03
  L 17.66 50.85
  A 0.92 0.92 0.0 0 0 18.44 52.23
  Q 18.98 52.25 33.00 52.24"
/>
<path stroke="#a3c0c7" vector-effect="non-scaling-stroke" d="
  M 27.50 24.48
  L 27.50 20.43
  A 0.37 0.37 0.0 0 0 26.96 20.10
  C 23.57 21.75 21.66 23.64 21.41 27.19
  A 0.48 0.48 0.0 0 0 21.89 27.71
  L 24.18 27.71
  A 0.58 0.58 0.0 0 1 24.76 28.29
  L 24.76 29.41
  A 0.86 0.86 0.0 0 1 23.90 30.27
  L 22.05 30.27
  A 0.64 0.64 0.0 0 0 21.41 30.91
  L 21.41 43.12
  A 0.62 0.62 0.0 0 0 22.03 43.74
  L 23.38 43.74
  A 0.63 0.63 0.0 0 1 24.01 44.37
  L 24.01 45.97
  A 0.54 0.54 0.0 0 1 23.47 46.51
  L 21.98 46.51
  A 0.55 0.55 0.0 0 0 21.43 47.06
  Q 21.44 48.34 21.88 49.48
  A 1.23 1.22 79.5 0 0 23.02 50.27
  L 28.59 50.27
  A 0.28 0.28 0.0 0 0 28.85 49.88
  L 25.65 42.49
  A 0.49 0.49 0.0 0 0 24.90 42.29
  L 24.35 42.70
  A 0.75 0.74 52.3 0 1 23.30 42.56
  L 22.09 40.97
  A 0.79 0.79 0.0 0 1 22.09 40.03
  L 28.43 31.64
  A 1.12 1.12 0.0 0 0 28.61 30.63
  Q 28.44 30.07 27.81 29.27
  A 0.96 0.96 0.0 0 1 27.68 28.29
  L 28.57 26.25
  A 0.56 0.56 0.0 0 1 29.26 25.94
  Q 32.40 26.96 31.66 29.70
  A 0.63 0.63 0.0 0 0 32.27 30.49
  L 33.74 30.49
  A 0.63 0.62 82.0 0 0 34.34 29.69
  Q 33.56 27.06 36.55 25.98
  A 0.62 0.62 0.0 0 1 37.24 26.17
  Q 39.16 28.54 37.48 30.31
  A 0.88 0.87 -42.3 0 0 37.42 31.45
  L 43.93 40.03
  A 0.79 0.79 0.0 0 1 43.93 40.97
  L 42.56 42.78
  A 0.59 0.59 0.0 0 1 41.62 42.78
  L 41.26 42.31
  A 0.51 0.50 -51.9 0 0 40.39 42.42
  L 37.16 49.85
  A 0.31 0.30 -77.8 0 0 37.43 50.28
  L 42.82 50.28
  A 1.49 1.48 -77.5 0 0 44.17 49.41
  Q 44.60 48.45 44.64 46.76
  A 0.48 0.48 0.0 0 0 44.16 46.27
  L 42.97 46.27
  A 0.69 0.68 0.0 0 1 42.28 45.59
  L 42.28 44.45
  A 0.64 0.64 0.0 0 1 42.92 43.81
  L 43.88 43.81
  A 0.69 0.69 0.0 0 0 44.57 43.12
  L 44.57 31.00
  A 0.73 0.73 0.0 0 0 43.83 30.27
  Q 42.56 30.30 42.45 28.30
  A 0.55 0.55 0.0 0 1 43.00 27.73
  L 43.99 27.73
  A 0.65 0.65 0.0 0 0 44.63 27.00
  Q 44.00 22.36 39.10 20.13
  A 0.43 0.43 0.0 0 0 38.49 20.52
  L 38.49 24.45
  A 0.36 0.36 0.0 0 1 37.91 24.74
  Q 37.31 24.27 36.73 24.09
  A 1.03 1.01 8.5 0 1 36.00 23.12
  L 36.00 19.55
  A 1.26 1.26 0.0 0 0 34.74 18.29
  L 31.25 18.29
  A 1.32 1.31 0.0 0 0 29.93 19.60
  L 29.93 23.06
  A 1.09 1.08 78.6 0 1 29.27 24.06
  L 27.82 24.69
  A 0.23 0.23 0.0 0 1 27.50 24.48"
/>
<path stroke="#a3c0c7" vector-effect="non-scaling-stroke" d="
  M 31.26 33.87
  L 29.14 34.99
  A 0.27 0.27 0.0 0 0 29.03 35.35
  L 29.09 35.47
  A 1.95 1.38 62.2 0 0 31.22 36.56
  L 31.38 36.47
  A 1.95 1.38 62.2 0 0 31.69 34.10
  L 31.63 33.98
  A 0.27 0.27 0.0 0 0 31.26 33.87"
/>
<path stroke="#a3c0c7" vector-effect="non-scaling-stroke" d="
  M 36.85 35.15
  L 34.63 34.13
  A 0.28 0.28 0.0 0 0 34.26 34.27
  L 34.19 34.43
  A 1.77 1.39 -65.5 0 0 34.72 36.61
  L 34.92 36.71
  A 1.77 1.39 -65.5 0 0 36.92 35.67
  L 36.99 35.52
  A 0.28 0.28 0.0 0 0 36.85 35.15"
/>
<path stroke="#a3c0c7" vector-effect="non-scaling-stroke" d="
  M 34.6315 48.0129
  A 0.50 0.50 0.0 0 0 34.1324 47.5120
  L 31.8524 47.5080
  A 0.50 0.50 0.0 0 0 31.3515 48.0071
  L 31.3485 49.7671
  A 0.50 0.50 0.0 0 0 31.8476 50.2680
  L 34.1276 50.2720
  A 0.50 0.50 0.0 0 0 34.6285 49.7729
  L 34.6315 48.0129"
/>
</g>
<path fill="#284a4f" d="
  M 33.78 88.00
  L 33.13 88.00
  Q 16.68 73.40 6.79 53.99
  Q 2.24 45.05 1.61 35.39
  Q 0.98 25.70 5.32 17.84
  C 11.91 5.92 25.18 -0.41 38.96 1.80
  C 51.94 3.88 62.11 13.85 64.85 26.52
  C 67.15 37.10 63.38 48.93 57.56 58.84
  Q 47.97 75.17 33.78 88.00
  Z
  M 33.39 86.70
  Q 33.49 86.70 33.60 86.68
  Q 33.70 86.66 33.78 86.58
  Q 49.87 71.00 57.57 56.54
  Q 62.76 46.78 63.88 38.33
  Q 66.62 17.45 48.75 6.53
  Q 42.12 2.48 33.54 2.46
  Q 24.95 2.45 18.31 6.47
  Q 0.40 17.34 3.07 38.23
  Q 4.16 46.68 9.32 56.46
  Q 16.97 70.94 33.01 86.58
  Q 33.09 86.66 33.18 86.68
  Q 33.29 86.70 33.39 86.70
  Z"
/>
<path fill="#578e98" d="
  M 33.54 2.46
  Q 42.12 2.48 48.75 6.53
  Q 66.62 17.45 63.88 38.33
  Q 62.76 46.78 57.57 56.54
  Q 49.87 71.00 33.78 86.58
  Q 33.70 86.66 33.60 86.68
  Q 33.49 86.70 33.39 86.70
  Q 33.29 86.70 33.18 86.68
  Q 33.09 86.66 33.01 86.58
  Q 16.97 70.94 9.32 56.46
  Q 4.16 46.68 3.07 38.23
  Q 0.40 17.34 18.31 6.47
  Q 24.95 2.45 33.54 2.46
  Z
  M 33.00 52.24
  Q 47.03 52.23 47.57 52.22
  A 0.92 0.92 0.0 0 0 48.34 50.83
  L 47.28 49.01
  A 1.64 1.63 -60.1 0 1 47.06 48.19
  L 47.06 30.62
  A 1.07 1.05 78.8 0 1 47.70 29.64
  L 50.53 28.41
  A 0.35 0.35 0.0 0 0 50.39 27.73
  L 47.70 27.73
  A 0.65 0.65 0.0 0 1 47.06 27.20
  Q 46.85 26.14 46.65 25.07
  C 45.37 18.42 39.16 15.80 32.98 15.80
  C 26.81 15.80 20.59 18.44 19.33 25.08
  Q 19.13 26.16 18.92 27.22
  A 0.65 0.65 0.0 0 1 18.28 27.75
  L 15.59 27.75
  A 0.35 0.35 0.0 0 0 15.45 28.43
  L 18.28 29.66
  A 1.07 1.05 -78.9 0 1 18.92 30.64
  L 18.94 48.21
  A 1.64 1.63 60.1 0 1 18.72 49.03
  L 17.66 50.85
  A 0.92 0.92 0.0 0 0 18.44 52.23
  Q 18.98 52.25 33.00 52.24
  Z"
/>
<path fill="#eff1f6" d="
  M 32.98 15.80
  C 39.16 15.80 45.37 18.42 46.65 25.07
  Q 46.85 26.14 47.06 27.20
  A 0.65 0.65 0.0 0 0 47.70 27.73
  L 50.39 27.73
  A 0.35 0.35 0.0 0 1 50.53 28.41
  L 47.70 29.64
  A 1.07 1.05 78.8 0 0 47.06 30.62
  L 47.06 48.19
  A 1.64 1.63 -60.1 0 0 47.28 49.01
  L 48.34 50.83
  A 0.92 0.92 0.0 0 1 47.57 52.22
  Q 47.03 52.23 33.00 52.24
  Q 18.98 52.25 18.44 52.23
  A 0.92 0.92 0.0 0 1 17.66 50.85
  L 18.72 49.03
  A 1.64 1.63 60.1 0 0 18.94 48.21
  L 18.92 30.64
  A 1.07 1.05 -78.9 0 0 18.28 29.66
  L 15.45 28.43
  A 0.35 0.35 0.0 0 1 15.59 27.75
  L 18.28 27.75
  A 0.65 0.65 0.0 0 0 18.92 27.22
  Q 19.13 26.16 19.33 25.08
  C 20.59 18.44 26.81 15.80 32.98 15.80
  Z
  M 27.50 24.48
  L 27.50 20.43
  A 0.37 0.37 0.0 0 0 26.96 20.10
  C 23.57 21.75 21.66 23.64 21.41 27.19
  A 0.48 0.48 0.0 0 0 21.89 27.71
  L 24.18 27.71
  A 0.58 0.58 0.0 0 1 24.76 28.29
  L 24.76 29.41
  A 0.86 0.86 0.0 0 1 23.90 30.27
  L 22.05 30.27
  A 0.64 0.64 0.0 0 0 21.41 30.91
  L 21.41 43.12
  A 0.62 0.62 0.0 0 0 22.03 43.74
  L 23.38 43.74
  A 0.63 0.63 0.0 0 1 24.01 44.37
  L 24.01 45.97
  A 0.54 0.54 0.0 0 1 23.47 46.51
  L 21.98 46.51
  A 0.55 0.55 0.0 0 0 21.43 47.06
  Q 21.44 48.34 21.88 49.48
  A 1.23 1.22 79.5 0 0 23.02 50.27
  L 28.59 50.27
  A 0.28 0.28 0.0 0 0 28.85 49.88
  L 25.65 42.49
  A 0.49 0.49 0.0 0 0 24.90 42.29
  L 24.35 42.70
  A 0.75 0.74 52.3 0 1 23.30 42.56
  L 22.09 40.97
  A 0.79 0.79 0.0 0 1 22.09 40.03
  L 28.43 31.64
  A 1.12 1.12 0.0 0 0 28.61 30.63
  Q 28.44 30.07 27.81 29.27
  A 0.96 0.96 0.0 0 1 27.68 28.29
  L 28.57 26.25
  A 0.56 0.56 0.0 0 1 29.26 25.94
  Q 32.40 26.96 31.66 29.70
  A 0.63 0.63 0.0 0 0 32.27 30.49
  L 33.74 30.49
  A 0.63 0.62 82.0 0 0 34.34 29.69
  Q 33.56 27.06 36.55 25.98
  A 0.62 0.62 0.0 0 1 37.24 26.17
  Q 39.16 28.54 37.48 30.31
  A 0.88 0.87 -42.3 0 0 37.42 31.45
  L 43.93 40.03
  A 0.79 0.79 0.0 0 1 43.93 40.97
  L 42.56 42.78
  A 0.59 0.59 0.0 0 1 41.62 42.78
  L 41.26 42.31
  A 0.51 0.50 -51.9 0 0 40.39 42.42
  L 37.16 49.85
  A 0.31 0.30 -77.8 0 0 37.43 50.28
  L 42.82 50.28
  A 1.49 1.48 -77.5 0 0 44.17 49.41
  Q 44.60 48.45 44.64 46.76
  A 0.48 0.48 0.0 0 0 44.16 46.27
  L 42.97 46.27
  A 0.69 0.68 0.0 0 1 42.28 45.59
  L 42.28 44.45
  A 0.64 0.64 0.0 0 1 42.92 43.81
  L 43.88 43.81
  A 0.69 0.69 0.0 0 0 44.57 43.12
  L 44.57 31.00
  A 0.73 0.73 0.0 0 0 43.83 30.27
  Q 42.56 30.30 42.45 28.30
  A 0.55 0.55 0.0 0 1 43.00 27.73
  L 43.99 27.73
  A 0.65 0.65 0.0 0 0 44.63 27.00
  Q 44.00 22.36 39.10 20.13
  A 0.43 0.43 0.0 0 0 38.49 20.52
  L 38.49 24.45
  A 0.36 0.36 0.0 0 1 37.91 24.74
  Q 37.31 24.27 36.73 24.09
  A 1.03 1.01 8.5 0 1 36.00 23.12
  L 36.00 19.55
  A 1.26 1.26 0.0 0 0 34.74 18.29
  L 31.25 18.29
  A 1.32 1.31 0.0 0 0 29.93 19.60
  L 29.93 23.06
  A 1.09 1.08 78.6 0 1 29.27 24.06
  L 27.82 24.69
  A 0.23 0.23 0.0 0 1 27.50 24.48
  Z
  M 31.26 33.87
  L 29.14 34.99
  A 0.27 0.27 0.0 0 0 29.03 35.35
  L 29.09 35.47
  A 1.95 1.38 62.2 0 0 31.22 36.56
  L 31.38 36.47
  A 1.95 1.38 62.2 0 0 31.69 34.10
  L 31.63 33.98
  A 0.27 0.27 0.0 0 0 31.26 33.87
  Z
  M 36.85 35.15
  L 34.63 34.13
  A 0.28 0.28 0.0 0 0 34.26 34.27
  L 34.19 34.43
  A 1.77 1.39 -65.5 0 0 34.72 36.61
  L 34.92 36.71
  A 1.77 1.39 -65.5 0 0 36.92 35.67
  L 36.99 35.52
  A 0.28 0.28 0.0 0 0 36.85 35.15
  Z
  M 34.6315 48.0129
  A 0.50 0.50 0.0 0 0 34.1324 47.5120
  L 31.8524 47.5080
  A 0.50 0.50 0.0 0 0 31.3515 48.0071
  L 31.3485 49.7671
  A 0.50 0.50 0.0 0 0 31.8476 50.2680
  L 34.1276 50.2720
  A 0.50 0.50 0.0 0 0 34.6285 49.7729
  L 34.6315 48.0129
  Z"
/>
<path fill="#578e98" d="
  M 27.50 24.48
  A 0.23 0.23 0.0 0 0 27.82 24.69
  L 29.27 24.06
  A 1.09 1.08 78.6 0 0 29.93 23.06
  L 29.93 19.60
  A 1.32 1.31 0.0 0 1 31.25 18.29
  L 34.74 18.29
  A 1.26 1.26 0.0 0 1 36.00 19.55
  L 36.00 23.12
  A 1.03 1.01 8.5 0 0 36.73 24.09
  Q 37.31 24.27 37.91 24.74
  A 0.36 0.36 0.0 0 0 38.49 24.45
  L 38.49 20.52
  A 0.43 0.43 0.0 0 1 39.10 20.13
  Q 44.00 22.36 44.63 27.00
  A 0.65 0.65 0.0 0 1 43.99 27.73
  L 43.00 27.73
  A 0.55 0.55 0.0 0 0 42.45 28.30
  Q 42.56 30.30 43.83 30.27
  A 0.73 0.73 0.0 0 1 44.57 31.00
  L 44.57 43.12
  A 0.69 0.69 0.0 0 1 43.88 43.81
  L 42.92 43.81
  A 0.64 0.64 0.0 0 0 42.28 44.45
  L 42.28 45.59
  A 0.69 0.68 0.0 0 0 42.97 46.27
  L 44.16 46.27
  A 0.48 0.48 0.0 0 1 44.64 46.76
  Q 44.60 48.45 44.17 49.41
  A 1.49 1.48 -77.5 0 1 42.82 50.28
  L 37.43 50.28
  A 0.31 0.30 -77.8 0 1 37.16 49.85
  L 40.39 42.42
  A 0.51 0.50 -51.9 0 1 41.26 42.31
  L 41.62 42.78
  A 0.59 0.59 0.0 0 0 42.56 42.78
  L 43.93 40.97
  A 0.79 0.79 0.0 0 0 43.93 40.03
  L 37.42 31.45
  A 0.88 0.87 -42.3 0 1 37.48 30.31
  Q 39.16 28.54 37.24 26.17
  A 0.62 0.62 0.0 0 0 36.55 25.98
  Q 33.56 27.06 34.34 29.69
  A 0.63 0.62 82.0 0 1 33.74 30.49
  L 32.27 30.49
  A 0.63 0.63 0.0 0 1 31.66 29.70
  Q 32.40 26.96 29.26 25.94
  A 0.56 0.56 0.0 0 0 28.57 26.25
  L 27.68 28.29
  A 0.96 0.96 0.0 0 0 27.81 29.27
  Q 28.44 30.07 28.61 30.63
  A 1.12 1.12 0.0 0 1 28.43 31.64
  L 22.09 40.03
  A 0.79 0.79 0.0 0 0 22.09 40.97
  L 23.30 42.56
  A 0.75 0.74 52.3 0 0 24.35 42.70
  L 24.90 42.29
  A 0.49 0.49 0.0 0 1 25.65 42.49
  L 28.85 49.88
  A 0.28 0.28 0.0 0 1 28.59 50.27
  L 23.02 50.27
  A 1.23 1.22 79.5 0 1 21.88 49.48
  Q 21.44 48.34 21.43 47.06
  A 0.55 0.55 0.0 0 1 21.98 46.51
  L 23.47 46.51
  A 0.54 0.54 0.0 0 0 24.01 45.97
  L 24.01 44.37
  A 0.63 0.63 0.0 0 0 23.38 43.74
  L 22.03 43.74
  A 0.62 0.62 0.0 0 1 21.41 43.12
  L 21.41 30.91
  A 0.64 0.64 0.0 0 1 22.05 30.27
  L 23.90 30.27
  A 0.86 0.86 0.0 0 0 24.76 29.41
  L 24.76 28.29
  A 0.58 0.58 0.0 0 0 24.18 27.71
  L 21.89 27.71
  A 0.48 0.48 0.0 0 1 21.41 27.19
  C 21.66 23.64 23.57 21.75 26.96 20.10
  A 0.37 0.37 0.0 0 1 27.50 20.43
  L 27.50 24.48
  Z"
/>
<path fill="#578e98" d="
  M 31.26 33.87
  A 0.27 0.27 0.0 0 1 31.63 33.98
  L 31.69 34.10
  A 1.95 1.38 62.2 0 1 31.38 36.47
  L 31.22 36.56
  A 1.95 1.38 62.2 0 1 29.09 35.47
  L 29.03 35.35
  A 0.27 0.27 0.0 0 1 29.14 34.99
  L 31.26 33.87
  Z"
/>
<path fill="#578e98" d="
  M 36.85 35.15
  A 0.28 0.28 0.0 0 1 36.99 35.52
  L 36.92 35.67
  A 1.77 1.39 -65.5 0 1 34.92 36.71
  L 34.72 36.61
  A 1.77 1.39 -65.5 0 1 34.19 34.43
  L 34.26 34.27
  A 0.28 0.28 0.0 0 1 34.63 34.13
  L 36.85 35.15
  Z"
/>
<rect fill="#578e98" x="-1.64" y="-1.38" transform="translate(32.99,48.89) rotate(0.1)" width="3.28" height="2.76" rx="0.50"/>
</svg>
