<?xml version="1.0" encoding="UTF-8" standalone="no"?>
<!DOCTYPE svg PUBLIC "-//W3C//DTD SVG 1.1//EN" "http://www.w3.org/Graphics/SVG/1.1/DTD/svg11.dtd">
<svg xmlns="http://www.w3.org/2000/svg" version="1.1" viewBox="0.00 0.00 66.00 88.00">
<g stroke-width="2.00" fill="none" stroke-linecap="butt">
<path stroke="#7b4b88" vector-effect="non-scaling-stroke" d="
  M 33.41 86.72
  Q 33.52 86.72 33.62 86.69
  Q 33.63 86.69 33.76 86.57
  Q 48.80 72.37 57.64 56.41
  C 64.58 43.89 67.82 27.64 58.52 15.21
  Q 49.41 3.03 33.75 2.47
  Q 33.56 2.47 33.52 2.47
  Q 33.49 2.47 33.30 2.47
  Q 17.64 2.99 8.50 15.14
  C -0.84 27.55 2.36 43.81 9.26 56.34
  Q 18.06 72.33 33.06 86.57
  Q 33.19 86.69 33.20 86.69
  Q 33.30 86.72 33.41 86.72"
/>
<path stroke="#c9abd4" vector-effect="non-scaling-stroke" d="
  M 32.36 24.22
  Q 32.82 24.03 35.16 24.02
  C 38.83 23.99 41.21 21.88 43.03 18.72
  A 1.38 1.38 0.0 0 0 42.31 16.73
  Q 37.10 14.84 29.62 17.12
  A 1.34 1.34 0.0 0 0 28.71 18.72
  Q 29.31 21.16 31.41 23.96
  A 0.80 0.80 0.0 0 0 32.36 24.22"
/>
<path stroke="#c9abd4" vector-effect="non-scaling-stroke" d="
  M 31.24 30.25
  Q 31.58 28.69 32.60 27.10
  A 0.46 0.46 0.0 0 0 31.95 26.48
  C 26.33 30.48 18.47 39.06 19.43 46.49
  C 19.76 49.12 22.45 50.13 24.77 50.93
  Q 32.23 53.51 39.46 50.97
  Q 47.21 48.24 45.75 40.87
  A 5.19 4.75 -64.3 0 0 45.54 40.17
  Q 44.85 38.37 41.56 31.00
  Q 39.92 27.34 36.06 26.27
  A 1.24 1.21 35.7 0 0 35.06 26.42
  Q 33.50 27.44 31.73 30.44
  A 0.27 0.27 0.0 0 1 31.24 30.25"
/>
</g>
<path fill="#53315e" d="
  M 33.80 88.00
  L 33.15 88.00
  Q 15.61 72.49 6.00 52.51
  Q 2.23 44.67 1.62 34.99
  Q 1.03 25.70 5.17 18.15
  C 17.94 -5.17 51.90 -4.02 62.90 20.39
  C 66.91 29.30 65.83 40.17 62.33 49.05
  C 56.48 63.90 45.54 77.33 33.80 88.00
  Z
  M 33.41 86.72
  Q 33.52 86.72 33.62 86.69
  Q 33.63 86.69 33.76 86.57
  Q 48.80 72.37 57.64 56.41
  C 64.58 43.89 67.82 27.64 58.52 15.21
  Q 49.41 3.03 33.75 2.47
  Q 33.56 2.47 33.52 2.47
  Q 33.49 2.47 33.30 2.47
  Q 17.64 2.99 8.50 15.14
  C -0.84 27.55 2.36 43.81 9.26 56.34
  Q 18.06 72.33 33.06 86.57
  Q 33.19 86.69 33.20 86.69
  Q 33.30 86.72 33.41 86.72
  Z"
/>
<path fill="#a364b2" d="
  M 33.52 2.47
  Q 33.56 2.47 33.75 2.47
  Q 49.41 3.03 58.52 15.21
  C 67.82 27.64 64.58 43.89 57.64 56.41
  Q 48.80 72.37 33.76 86.57
  Q 33.63 86.69 33.62 86.69
  Q 33.52 86.72 33.41 86.72
  Q 33.30 86.72 33.20 86.69
  Q 33.19 86.69 33.06 86.57
  Q 18.06 72.33 9.26 56.34
  C 2.36 43.81 -0.84 27.55 8.50 15.14
  Q 17.64 2.99 33.30 2.47
  Q 33.49 2.47 33.52 2.47
  Z
  M 32.36 24.22
  Q 32.82 24.03 35.16 24.02
  C 38.83 23.99 41.21 21.88 43.03 18.72
  A 1.38 1.38 0.0 0 0 42.31 16.73
  Q 37.10 14.84 29.62 17.12
  A 1.34 1.34 0.0 0 0 28.71 18.72
  Q 29.31 21.16 31.41 23.96
  A 0.80 0.80 0.0 0 0 32.36 24.22
  Z
  M 31.24 30.25
  Q 31.58 28.69 32.60 27.10
  A 0.46 0.46 0.0 0 0 31.95 26.48
  C 26.33 30.48 18.47 39.06 19.43 46.49
  C 19.76 49.12 22.45 50.13 24.77 50.93
  Q 32.23 53.51 39.46 50.97
  Q 47.21 48.24 45.75 40.87
  A 5.19 4.75 -64.3 0 0 45.54 40.17
  Q 44.85 38.37 41.56 31.00
  Q 39.92 27.34 36.06 26.27
  A 1.24 1.21 35.7 0 0 35.06 26.42
  Q 33.50 27.44 31.73 30.44
  A 0.27 0.27 0.0 0 1 31.24 30.25
  Z"
/>
<path fill="#eff1f6" d="
  M 31.41 23.96
  Q 29.31 21.16 28.71 18.72
  A 1.34 1.34 0.0 0 1 29.62 17.12
  Q 37.10 14.84 42.31 16.73
  A 1.38 1.38 0.0 0 1 43.03 18.72
  C 41.21 21.88 38.83 23.99 35.16 24.02
  Q 32.82 24.03 32.36 24.22
  A 0.80 0.80 0.0 0 1 31.41 23.96
  Z"
/>
<path fill="#eff1f6" d="
  M 31.24 30.25
  A 0.27 0.27 0.0 0 0 31.73 30.44
  Q 33.50 27.44 35.06 26.42
  A 1.24 1.21 35.7 0 1 36.06 26.27
  Q 39.92 27.34 41.56 31.00
  Q 44.85 38.37 45.54 40.17
  A 5.19 4.75 -64.3 0 1 45.75 40.87
  Q 47.21 48.24 39.46 50.97
  Q 32.23 53.51 24.77 50.93
  C 22.45 50.13 19.76 49.12 19.43 46.49
  C 18.47 39.06 26.33 30.48 31.95 26.48
  A 0.46 0.46 0.0 0 1 32.60 27.10
  Q 31.58 28.69 31.24 30.25
  Z"
/>
</svg>
