<?xml version="1.0" encoding="UTF-8" standalone="no"?>
<!DOCTYPE svg PUBLIC "-//W3C//DTD SVG 1.1//EN" "http://www.w3.org/Graphics/SVG/1.1/DTD/svg11.dtd">
<svg xmlns="http://www.w3.org/2000/svg" version="1.1" viewBox="0.00 0.00 66.00 88.00">
<g stroke-width="2.00" fill="none" stroke-linecap="butt">
<path stroke="#2a5d6e" vector-effect="non-scaling-stroke" d="
  M 33.41 86.72
  Q 33.52 86.72 33.62 86.69
  Q 33.68 86.68 33.77 86.59
  Q 48.57 72.82 57.63 56.39
  C 64.61 43.74 67.64 27.95 58.94 15.79
  C 53.04 7.54 43.95 2.48 33.52 2.47
  C 23.09 2.45 13.99 7.49 8.07 15.72
  C -0.66 27.86 2.32 43.66 9.27 56.32
  Q 18.29 72.78 33.05 86.59
  Q 33.14 86.68 33.20 86.69
  Q 33.30 86.72 33.41 86.72"
/>
<path stroke="#9dbdc8" vector-effect="non-scaling-stroke" d="
  M 15.38 46.85
  L 30.03 50.14
  A 0.55 0.54 -81.9 0 0 30.69 49.64
  Q 30.80 47.76 30.39 46.47
  A 0.65 0.64 -18.7 0 1 30.79 45.67
  L 32.16 45.17
  A 0.63 0.63 0.0 0 1 32.97 45.56
  Q 33.79 47.98 33.26 50.35
  A 0.54 0.52 -77.6 0 0 33.66 50.99
  L 36.19 51.56
  A 0.81 0.80 19.4 0 0 37.09 51.13
  Q 39.58 45.89 39.22 42.99
  C 38.09 33.90 39.15 26.28 45.93 19.65
  A 0.29 0.28 -63.5 0 0 45.77 19.16
  L 25.81 16.67
  A 1.68 1.66 -57.5 0 0 24.68 16.93
  Q 17.88 21.35 18.00 29.24
  C 18.10 35.80 18.84 40.89 15.11 46.14
  A 0.46 0.46 0.0 0 0 15.38 46.85"
/>
<path stroke="#9dbdc8" vector-effect="non-scaling-stroke" d="
  M 46.74 24.98
  L 50.33 26.36
  A 0.52 0.51 -71.8 0 0 51.01 26.01
  Q 51.72 23.38 50.52 21.30
  A 0.54 0.54 0.0 0 0 49.67 21.19
  L 46.59 24.27
  A 0.44 0.43 -57.0 0 0 46.74 24.98"
/>
<path stroke="#9dbdc8" vector-effect="non-scaling-stroke" d="
  M 32.65 24.64
  L 31.64 26.38
  A 0.51 0.51 0.0 0 0 31.83 27.07
  L 33.30 27.92
  A 0.55 0.54 29.8 0 0 34.05 27.72
  L 35.05 26.00
  A 0.64 0.64 0.0 0 1 35.92 25.77
  L 38.07 27.01
  A 0.62 0.62 0.0 0 0 38.92 26.78
  L 39.61 25.59
  A 0.84 0.84 0.0 0 0 39.30 24.44
  L 37.64 23.48
  A 0.46 0.46 0.0 0 1 37.47 22.85
  L 38.69 20.73
  A 0.69 0.68 -60.1 0 0 38.44 19.79
  L 37.56 19.28
  A 1.08 1.08 0.0 0 0 36.08 19.68
  L 35.00 21.55
  A 0.74 0.74 0.0 0 1 33.99 21.82
  L 31.82 20.57
  A 0.72 0.72 0.0 0 0 30.83 20.83
  L 30.27 21.79
  A 0.88 0.88 0.0 0 0 30.59 22.99
  L 32.50 24.09
  A 0.40 0.40 0.0 0 1 32.65 24.64"
/>
<path stroke="#9dbdc8" vector-effect="non-scaling-stroke" d="
  M 27.00 25.21
  L 23.54 28.30
  A 0.52 0.52 0.0 0 0 23.50 29.04
  L 23.78 29.36
  A 1.85 1.00 48.2 0 0 25.76 30.07
  L 28.50 27.62
  A 1.85 1.00 48.2 0 0 28.02 25.57
  L 27.73 25.25
  A 0.52 0.52 0.0 0 0 27.00 25.21"
/>
<path stroke="#9dbdc8" vector-effect="non-scaling-stroke" d="
  M 21.58 32.82
  L 22.62 37.69
  A 0.46 0.46 0.0 0 0 23.16 38.04
  L 23.29 38.02
  A 2.15 1.22 -12.0 0 0 25.14 36.38
  L 24.42 32.99
  A 2.15 1.22 -12.0 0 0 22.06 32.25
  L 21.94 32.27
  A 0.46 0.46 0.0 0 0 21.58 32.82"
/>
<path stroke="#9dbdc8" vector-effect="non-scaling-stroke" d="
  M 30.73 41.31
  Q 29.90 40.25 27.09 38.65
  A 0.38 0.38 0.0 0 0 26.57 38.79
  L 25.50 40.65
  A 0.28 0.28 0.0 0 0 25.60 41.03
  L 29.18 43.10
  A 1.21 1.20 85.9 0 0 30.73 41.31"
/>
</g>
<path fill="#1a3f4b" d="
  M 33.81 88.00
  L 33.04 88.00
  C 21.94 77.92 11.92 65.50 5.64 51.57
  C 1.06 41.39 -0.47 28.50 5.13 18.27
  C 13.35 3.24 31.14 -2.79 46.97 4.28
  C 58.19 9.29 65.94 21.01 65.47 33.59
  Q 65.21 40.74 63.04 47.01
  C 57.66 62.61 45.94 76.92 33.81 88.00
  Z
  M 33.41 86.72
  Q 33.52 86.72 33.62 86.69
  Q 33.68 86.68 33.77 86.59
  Q 48.57 72.82 57.63 56.39
  C 64.61 43.74 67.64 27.95 58.94 15.79
  C 53.04 7.54 43.95 2.48 33.52 2.47
  C 23.09 2.45 13.99 7.49 8.07 15.72
  C -0.66 27.86 2.32 43.66 9.27 56.32
  Q 18.29 72.78 33.05 86.59
  Q 33.14 86.68 33.20 86.69
  Q 33.30 86.72 33.41 86.72
  Z"
/>
<path fill="#3a7a91" d="
  M 33.52 2.47
  C 43.95 2.48 53.04 7.54 58.94 15.79
  C 67.64 27.95 64.61 43.74 57.63 56.39
  Q 48.57 72.82 33.77 86.59
  Q 33.68 86.68 33.62 86.69
  Q 33.52 86.72 33.41 86.72
  Q 33.30 86.72 33.20 86.69
  Q 33.14 86.68 33.05 86.59
  Q 18.29 72.78 9.27 56.32
  C 2.32 43.66 -0.66 27.86 8.07 15.72
  C 13.99 7.49 23.09 2.45 33.52 2.47
  Z
  M 15.38 46.85
  L 30.03 50.14
  A 0.55 0.54 -81.9 0 0 30.69 49.64
  Q 30.80 47.76 30.39 46.47
  A 0.65 0.64 -18.7 0 1 30.79 45.67
  L 32.16 45.17
  A 0.63 0.63 0.0 0 1 32.97 45.56
  Q 33.79 47.98 33.26 50.35
  A 0.54 0.52 -77.6 0 0 33.66 50.99
  L 36.19 51.56
  A 0.81 0.80 19.4 0 0 37.09 51.13
  Q 39.58 45.89 39.22 42.99
  C 38.09 33.90 39.15 26.28 45.93 19.65
  A 0.29 0.28 -63.5 0 0 45.77 19.16
  L 25.81 16.67
  A 1.68 1.66 -57.5 0 0 24.68 16.93
  Q 17.88 21.35 18.00 29.24
  C 18.10 35.80 18.84 40.89 15.11 46.14
  A 0.46 0.46 0.0 0 0 15.38 46.85
  Z
  M 46.74 24.98
  L 50.33 26.36
  A 0.52 0.51 -71.8 0 0 51.01 26.01
  Q 51.72 23.38 50.52 21.30
  A 0.54 0.54 0.0 0 0 49.67 21.19
  L 46.59 24.27
  A 0.44 0.43 -57.0 0 0 46.74 24.98
  Z"
/>
<path fill="#ffffff" d="
  M 15.11 46.14
  C 18.84 40.89 18.10 35.80 18.00 29.24
  Q 17.88 21.35 24.68 16.93
  A 1.68 1.66 -57.5 0 1 25.81 16.67
  L 45.77 19.16
  A 0.29 0.28 -63.5 0 1 45.93 19.65
  C 39.15 26.28 38.09 33.90 39.22 42.99
  Q 39.58 45.89 37.09 51.13
  A 0.81 0.80 19.4 0 1 36.19 51.56
  L 33.66 50.99
  A 0.54 0.52 -77.6 0 1 33.26 50.35
  Q 33.79 47.98 32.97 45.56
  A 0.63 0.63 0.0 0 0 32.16 45.17
  L 30.79 45.67
  A 0.65 0.64 -18.7 0 0 30.39 46.47
  Q 30.80 47.76 30.69 49.64
  A 0.55 0.54 -81.9 0 1 30.03 50.14
  L 15.38 46.85
  A 0.46 0.46 0.0 0 1 15.11 46.14
  Z
  M 32.65 24.64
  L 31.64 26.38
  A 0.51 0.51 0.0 0 0 31.83 27.07
  L 33.30 27.92
  A 0.55 0.54 29.8 0 0 34.05 27.72
  L 35.05 26.00
  A 0.64 0.64 0.0 0 1 35.92 25.77
  L 38.07 27.01
  A 0.62 0.62 0.0 0 0 38.92 26.78
  L 39.61 25.59
  A 0.84 0.84 0.0 0 0 39.30 24.44
  L 37.64 23.48
  A 0.46 0.46 0.0 0 1 37.47 22.85
  L 38.69 20.73
  A 0.69 0.68 -60.1 0 0 38.44 19.79
  L 37.56 19.28
  A 1.08 1.08 0.0 0 0 36.08 19.68
  L 35.00 21.55
  A 0.74 0.74 0.0 0 1 33.99 21.82
  L 31.82 20.57
  A 0.72 0.72 0.0 0 0 30.83 20.83
  L 30.27 21.79
  A 0.88 0.88 0.0 0 0 30.59 22.99
  L 32.50 24.09
  A 0.40 0.40 0.0 0 1 32.65 24.64
  Z
  M 27.00 25.21
  L 23.54 28.30
  A 0.52 0.52 0.0 0 0 23.50 29.04
  L 23.78 29.36
  A 1.85 1.00 48.2 0 0 25.76 30.07
  L 28.50 27.62
  A 1.85 1.00 48.2 0 0 28.02 25.57
  L 27.73 25.25
  A 0.52 0.52 0.0 0 0 27.00 25.21
  Z
  M 21.58 32.82
  L 22.62 37.69
  A 0.46 0.46 0.0 0 0 23.16 38.04
  L 23.29 38.02
  A 2.15 1.22 -12.0 0 0 25.14 36.38
  L 24.42 32.99
  A 2.15 1.22 -12.0 0 0 22.06 32.25
  L 21.94 32.27
  A 0.46 0.46 0.0 0 0 21.58 32.82
  Z
  M 30.73 41.31
  Q 29.90 40.25 27.09 38.65
  A 0.38 0.38 0.0 0 0 26.57 38.79
  L 25.50 40.65
  A 0.28 0.28 0.0 0 0 25.60 41.03
  L 29.18 43.10
  A 1.21 1.20 85.9 0 0 30.73 41.31
  Z"
/>
<path fill="#3a7a91" d="
  M 32.50 24.09
  L 30.59 22.99
  A 0.88 0.88 0.0 0 1 30.27 21.79
  L 30.83 20.83
  A 0.72 0.72 0.0 0 1 31.82 20.57
  L 33.99 21.82
  A 0.74 0.74 0.0 0 0 35.00 21.55
  L 36.08 19.68
  A 1.08 1.08 0.0 0 1 37.56 19.28
  L 38.44 19.79
  A 0.69 0.68 -60.1 0 1 38.69 20.73
  L 37.47 22.85
  A 0.46 0.46 0.0 0 0 37.64 23.48
  L 39.30 24.44
  A 0.84 0.84 0.0 0 1 39.61 25.59
  L 38.92 26.78
  A 0.62 0.62 0.0 0 1 38.07 27.01
  L 35.92 25.77
  A 0.64 0.64 0.0 0 0 35.05 26.00
  L 34.05 27.72
  A 0.55 0.54 29.8 0 1 33.30 27.92
  L 31.83 27.07
  A 0.51 0.51 0.0 0 1 31.64 26.38
  L 32.65 24.64
  A 0.40 0.40 0.0 0 0 32.50 24.09
  Z"
/>
<path fill="#ffffff" d="
  M 46.59 24.27
  L 49.67 21.19
  A 0.54 0.54 0.0 0 1 50.52 21.30
  Q 51.72 23.38 51.01 26.01
  A 0.52 0.51 -71.8 0 1 50.33 26.36
  L 46.74 24.98
  A 0.44 0.43 -57.0 0 1 46.59 24.27
  Z"
/>
<path fill="#3a7a91" d="
  M 27.00 25.21
  A 0.52 0.52 0.0 0 1 27.73 25.25
  L 28.02 25.57
  A 1.85 1.00 48.2 0 1 28.50 27.62
  L 25.76 30.07
  A 1.85 1.00 48.2 0 1 23.78 29.36
  L 23.50 29.04
  A 0.52 0.52 0.0 0 1 23.54 28.30
  L 27.00 25.21
  Z"
/>
<path fill="#3a7a91" d="
  M 21.58 32.82
  A 0.46 0.46 0.0 0 1 21.94 32.27
  L 22.06 32.25
  A 2.15 1.22 -12.0 0 1 24.42 32.99
  L 25.14 36.38
  A 2.15 1.22 -12.0 0 1 23.29 38.02
  L 23.16 38.04
  A 0.46 0.46 0.0 0 1 22.62 37.69
  L 21.58 32.82
  Z"
/>
<path fill="#3a7a91" d="
  M 30.73 41.31
  A 1.21 1.20 85.9 0 1 29.18 43.10
  L 25.60 41.03
  A 0.28 0.28 0.0 0 1 25.50 40.65
  L 26.57 38.79
  A 0.38 0.38 0.0 0 1 27.09 38.65
  Q 29.90 40.25 30.73 41.31
  Z"
/>
</svg>
