<?xml version="1.0" encoding="UTF-8" standalone="no"?>
<!DOCTYPE svg PUBLIC "-//W3C//DTD SVG 1.1//EN" "http://www.w3.org/Graphics/SVG/1.1/DTD/svg11.dtd">
<svg xmlns="http://www.w3.org/2000/svg" version="1.1" viewBox="0.00 0.00 66.00 88.00">
<g stroke-width="2.00" fill="none" stroke-linecap="butt">
<path stroke="#80242a" vector-effect="non-scaling-stroke" d="
  M 33.43 86.68
  Q 33.53 86.68 33.62 86.66
  Q 33.67 86.65 33.76 86.57
  C 44.45 76.56 54.16 64.61 60.17 51.18
  C 64.56 41.37 66.12 29.53 61.33 19.85
  Q 56.06 9.20 44.88 4.69
  Q 39.38 2.48 33.51 2.47
  Q 27.64 2.46 22.14 4.67
  Q 10.95 9.16 5.66 19.79
  C 0.85 29.47 2.39 41.31 6.76 51.13
  C 12.74 64.57 22.43 76.54 33.10 86.57
  Q 33.19 86.65 33.23 86.66
  Q 33.32 86.68 33.43 86.68"
/>
<path stroke="#d4989c" vector-effect="non-scaling-stroke" d="
  M 33.14 26.25
  Q 34.03 26.25 34.04 26.25
  A 0.36 0.36 0.0 0 0 34.49 25.91
  L 34.54 19.48
  A 0.67 0.67 0.0 0 1 35.54 18.91
  L 36.93 19.70
  A 0.84 0.83 -62.3 0 0 38.10 19.33
  L 38.54 18.41
  A 0.97 0.97 0.0 0 0 38.16 17.16
  Q 35.62 15.64 33.15 15.76
  Q 30.67 15.64 28.13 17.15
  A 0.97 0.97 0.0 0 0 27.75 18.40
  L 28.19 19.32
  A 0.84 0.83 62.4 0 0 29.36 19.69
  L 30.75 18.91
  A 0.67 0.67 0.0 0 1 31.75 19.48
  L 31.79 25.91
  A 0.36 0.36 0.0 0 0 32.24 26.25
  Q 32.25 26.25 33.14 26.25"
/>
<path stroke="#d4989c" vector-effect="non-scaling-stroke" d="
  M 43.06 30.36
  A 1.32 1.32 0.0 0 0 41.74 29.04
  L 24.52 29.04
  A 1.32 1.32 0.0 0 0 23.20 30.36
  L 23.20 30.42
  A 1.32 1.32 0.0 0 0 24.52 31.74
  L 41.74 31.74
  A 1.32 1.32 0.0 0 0 43.06 30.42
  L 43.06 30.36"
/>
<path stroke="#d4989c" vector-effect="non-scaling-stroke" d="
  M 29.59 51.86
  L 36.46 47.18
  A 0.66 0.64 73.6 0 0 36.74 46.64
  L 36.74 34.84
  A 0.33 0.33 0.0 0 0 36.41 34.51
  L 29.84 34.51
  A 0.34 0.34 0.0 0 0 29.50 34.85
  L 29.50 51.81
  A 0.06 0.06 0.0 0 0 29.59 51.86"
/>
<path stroke="#d4989c" vector-effect="non-scaling-stroke" d="
  M 35.20 50.48
  Q 34.26 51.62 34.08 51.88
  A 0.30 0.30 0.0 0 0 34.39 52.34
  Q 35.38 52.11 36.11 51.23
  Q 36.84 50.35 36.88 49.33
  A 0.30 0.30 0.0 0 0 36.37 49.12
  Q 36.15 49.34 35.20 50.48"
/>
</g>
<path fill="#58171a" d="
  M 33.81 88.00
  L 33.04 88.00
  C 21.75 77.74 12.13 65.69 5.65 51.56
  Q 2.20 44.05 1.60 34.89
  C -0.13 8.67 28.88 -7.17 50.45 6.18
  Q 62.18 13.44 64.86 26.81
  C 69.33 49.09 49.17 73.99 33.81 88.00
  Z
  M 33.43 86.68
  Q 33.53 86.68 33.62 86.66
  Q 33.67 86.65 33.76 86.57
  C 44.45 76.56 54.16 64.61 60.17 51.18
  C 64.56 41.37 66.12 29.53 61.33 19.85
  Q 56.06 9.20 44.88 4.69
  Q 39.38 2.48 33.51 2.47
  Q 27.64 2.46 22.14 4.67
  Q 10.95 9.16 5.66 19.79
  C 0.85 29.47 2.39 41.31 6.76 51.13
  C 12.74 64.57 22.43 76.54 33.10 86.57
  Q 33.19 86.65 33.23 86.66
  Q 33.32 86.68 33.43 86.68
  Z"
/>
<path fill="#a83139" d="
  M 33.51 2.47
  Q 39.38 2.48 44.88 4.69
  Q 56.06 9.20 61.33 19.85
  C 66.12 29.53 64.56 41.37 60.17 51.18
  C 54.16 64.61 44.45 76.56 33.76 86.57
  Q 33.67 86.65 33.62 86.66
  Q 33.53 86.68 33.43 86.68
  Q 33.32 86.68 33.23 86.66
  Q 33.19 86.65 33.10 86.57
  C 22.43 76.54 12.74 64.57 6.76 51.13
  C 2.39 41.31 0.85 29.47 5.66 19.79
  Q 10.95 9.16 22.14 4.67
  Q 27.64 2.46 33.51 2.47
  Z
  M 33.14 26.25
  Q 34.03 26.25 34.04 26.25
  A 0.36 0.36 0.0 0 0 34.49 25.91
  L 34.54 19.48
  A 0.67 0.67 0.0 0 1 35.54 18.91
  L 36.93 19.70
  A 0.84 0.83 -62.3 0 0 38.10 19.33
  L 38.54 18.41
  A 0.97 0.97 0.0 0 0 38.16 17.16
  Q 35.62 15.64 33.15 15.76
  Q 30.67 15.64 28.13 17.15
  A 0.97 0.97 0.0 0 0 27.75 18.40
  L 28.19 19.32
  A 0.84 0.83 62.4 0 0 29.36 19.69
  L 30.75 18.91
  A 0.67 0.67 0.0 0 1 31.75 19.48
  L 31.79 25.91
  A 0.36 0.36 0.0 0 0 32.24 26.25
  Q 32.25 26.25 33.14 26.25
  Z
  M 43.06 30.36
  A 1.32 1.32 0.0 0 0 41.74 29.04
  L 24.52 29.04
  A 1.32 1.32 0.0 0 0 23.20 30.36
  L 23.20 30.42
  A 1.32 1.32 0.0 0 0 24.52 31.74
  L 41.74 31.74
  A 1.32 1.32 0.0 0 0 43.06 30.42
  L 43.06 30.36
  Z
  M 29.59 51.86
  L 36.46 47.18
  A 0.66 0.64 73.6 0 0 36.74 46.64
  L 36.74 34.84
  A 0.33 0.33 0.0 0 0 36.41 34.51
  L 29.84 34.51
  A 0.34 0.34 0.0 0 0 29.50 34.85
  L 29.50 51.81
  A 0.06 0.06 0.0 0 0 29.59 51.86
  Z
  M 35.20 50.48
  Q 34.26 51.62 34.08 51.88
  A 0.30 0.30 0.0 0 0 34.39 52.34
  Q 35.38 52.11 36.11 51.23
  Q 36.84 50.35 36.88 49.33
  A 0.30 0.30 0.0 0 0 36.37 49.12
  Q 36.15 49.34 35.20 50.48
  Z"
/>
<path fill="#ffffff" d="
  M 33.15 15.76
  Q 35.62 15.64 38.16 17.16
  A 0.97 0.97 0.0 0 1 38.54 18.41
  L 38.10 19.33
  A 0.84 0.83 -62.3 0 1 36.93 19.70
  L 35.54 18.91
  A 0.67 0.67 0.0 0 0 34.54 19.48
  L 34.49 25.91
  A 0.36 0.36 0.0 0 1 34.04 26.25
  Q 34.03 26.25 33.14 26.25
  Q 32.25 26.25 32.24 26.25
  A 0.36 0.36 0.0 0 1 31.79 25.91
  L 31.75 19.48
  A 0.67 0.67 0.0 0 0 30.75 18.91
  L 29.36 19.69
  A 0.84 0.83 62.4 0 1 28.19 19.32
  L 27.75 18.40
  A 0.97 0.97 0.0 0 1 28.13 17.15
  Q 30.67 15.64 33.15 15.76
  Z"
/>
<rect fill="#ffffff" x="23.20" y="29.04" width="19.86" height="2.70" rx="1.32"/>
<path fill="#ffffff" d="
  M 29.59 51.86
  A 0.06 0.06 0.0 0 1 29.50 51.81
  L 29.50 34.85
  A 0.34 0.34 0.0 0 1 29.84 34.51
  L 36.41 34.51
  A 0.33 0.33 0.0 0 1 36.74 34.84
  L 36.74 46.64
  A 0.66 0.64 73.6 0 1 36.46 47.18
  L 29.59 51.86
  Z"
/>
<path fill="#ffffff" d="
  M 36.11 51.23
  Q 35.38 52.11 34.39 52.34
  A 0.30 0.30 0.0 0 1 34.08 51.88
  Q 34.26 51.62 35.20 50.48
  Q 36.15 49.34 36.37 49.12
  A 0.30 0.30 0.0 0 1 36.88 49.33
  Q 36.84 50.35 36.11 51.23
  Z"
/>
</svg>
