<?xml version="1.0" encoding="UTF-8" standalone="no"?>
<!DOCTYPE svg PUBLIC "-//W3C//DTD SVG 1.1//EN" "http://www.w3.org/Graphics/SVG/1.1/DTD/svg11.dtd">
<svg xmlns="http://www.w3.org/2000/svg" version="1.1" viewBox="0.00 0.00 66.00 88.00">
<g stroke-width="2.00" fill="none" stroke-linecap="butt">
<path stroke="#80242a" vector-effect="non-scaling-stroke" d="
  M 33.43 86.68
  Q 33.52 86.68 33.62 86.66
  Q 33.69 86.65 33.78 86.57
  Q 44.73 76.23 52.85 64.36
  C 62.48 50.29 70.00 30.42 58.41 15.08
  Q 49.52 3.32 34.50 2.50
  Q 33.98 2.48 33.51 2.48
  Q 33.03 2.47 32.52 2.50
  Q 17.50 3.29 8.58 15.03
  C -3.04 30.35 4.44 50.23 14.05 64.32
  Q 22.14 76.21 33.07 86.57
  Q 33.16 86.65 33.23 86.66
  Q 33.33 86.68 33.43 86.68"
/>
<path stroke="#d4989c" vector-effect="non-scaling-stroke" d="
  M 33.13 52.02
  Q 33.17 52.02 33.20 52.02
  A 0.17 0.02 -2.5 0 0 33.35 51.99
  Q 33.69 51.62 39.43 46.03
  Q 43.35 42.22 43.98 40.06
  C 44.87 37.03 43.70 34.55 41.67 31.92
  A 0.59 0.58 50.3 0 1 41.74 31.13
  Q 47.91 25.55 43.00 18.91
  A 1.04 1.04 0.0 0 1 42.93 17.77
  Q 43.43 16.90 43.58 16.58
  A 0.23 0.23 0.0 0 0 43.29 16.27
  L 35.31 19.60
  A 1.21 1.21 0.0 0 0 35.59 21.91
  Q 38.24 22.34 40.50 22.03
  A 1.27 1.27 0.0 0 1 41.92 23.11
  Q 42.45 26.82 39.51 29.11
  A 0.65 0.64 48.2 0 1 38.65 29.06
  Q 34.52 24.91 33.42 23.78
  Q 33.33 23.69 33.12 23.69
  Q 32.91 23.69 32.83 23.78
  Q 31.73 24.91 27.60 29.06
  A 0.65 0.64 -48.2 0 1 26.74 29.11
  Q 23.80 26.82 24.33 23.11
  A 1.27 1.27 0.0 0 1 25.75 22.03
  Q 28.01 22.34 30.66 21.91
  A 1.21 1.21 0.0 0 0 30.94 19.60
  L 22.96 16.27
  A 0.23 0.23 0.0 0 0 22.67 16.58
  Q 22.82 16.90 23.32 17.77
  A 1.04 1.04 0.0 0 1 23.25 18.91
  Q 18.34 25.55 24.51 31.13
  A 0.59 0.58 -50.3 0 1 24.58 31.92
  C 22.55 34.55 21.38 37.03 22.27 40.06
  Q 22.90 42.22 26.82 46.03
  Q 32.56 51.62 32.90 51.99
  A 0.17 0.02 2.5 0 0 33.06 52.02
  Q 33.08 52.02 33.13 52.02"
/>
<path stroke="#d4989c" vector-effect="non-scaling-stroke" d="
  M 33.4177 28.0011
  A 0.38 0.38 0.0 0 0 32.8803 27.9983
  L 29.5111 31.3323
  A 0.38 0.38 0.0 0 0 29.5083 31.8697
  L 32.8423 35.2389
  A 0.38 0.38 0.0 0 0 33.3797 35.2417
  L 36.7489 31.9077
  A 0.38 0.38 0.0 0 0 36.7517 31.3703
  L 33.4177 28.0011"
/>
<path stroke="#d4989c" vector-effect="non-scaling-stroke" d="
  M 26.96 33.97
  Q 23.59 37.33 26.33 41.32
  A 0.59 0.59 0.0 0 0 27.23 41.40
  L 30.79 37.84
  A 0.31 0.31 0.0 0 0 30.79 37.40
  L 27.36 33.97
  A 0.28 0.28 0.0 0 0 26.96 33.97"
/>
<path stroke="#d4989c" vector-effect="non-scaling-stroke" d="
  M 39.36 33.96
  A 0.28 0.28 0.0 0 0 38.96 33.96
  L 35.47 37.35
  A 0.31 0.31 0.0 0 0 35.47 37.79
  L 38.99 41.41
  A 0.59 0.59 0.0 0 0 39.89 41.34
  Q 42.69 37.38 39.36 33.96"
/>
<path stroke="#d4989c" vector-effect="non-scaling-stroke" d="
  M 33.4120 39.9894
  A 0.37 0.37 0.0 0 0 32.8887 39.9867
  L 29.2494 43.5880
  A 0.37 0.37 0.0 0 0 29.2467 44.1113
  L 32.8480 47.7506
  A 0.37 0.37 0.0 0 0 33.3713 47.7533
  L 37.0106 44.1520
  A 0.37 0.37 0.0 0 0 37.0133 43.6287
  L 33.4120 39.9894"
/>
</g>
<path fill="#58171b" d="
  M 33.81 88.00
  L 33.04 88.00
  C 21.72 77.71 12.19 65.75 5.68 51.55
  Q 2.12 43.81 1.57 34.89
  C 0.58 18.95 11.00 5.94 26.44 2.08
  Q 34.15 0.15 43.00 2.76
  Q 51.24 5.20 57.01 11.50
  Q 67.99 23.49 64.76 40.23
  Q 62.37 52.57 54.47 64.21
  Q 45.61 77.25 33.81 88.00
  Z
  M 33.43 86.68
  Q 33.52 86.68 33.62 86.66
  Q 33.69 86.65 33.78 86.57
  Q 44.73 76.23 52.85 64.36
  C 62.48 50.29 70.00 30.42 58.41 15.08
  Q 49.52 3.32 34.50 2.50
  Q 33.98 2.48 33.51 2.48
  Q 33.03 2.47 32.52 2.50
  Q 17.50 3.29 8.58 15.03
  C -3.04 30.35 4.44 50.23 14.05 64.32
  Q 22.14 76.21 33.07 86.57
  Q 33.16 86.65 33.23 86.66
  Q 33.33 86.68 33.43 86.68
  Z"
/>
<path fill="#a83139" d="
  M 33.51 2.48
  Q 33.98 2.48 34.50 2.50
  Q 49.52 3.32 58.41 15.08
  C 70.00 30.42 62.48 50.29 52.85 64.36
  Q 44.73 76.23 33.78 86.57
  Q 33.69 86.65 33.62 86.66
  Q 33.52 86.68 33.43 86.68
  Q 33.33 86.68 33.23 86.66
  Q 33.16 86.65 33.07 86.57
  Q 22.14 76.21 14.05 64.32
  C 4.44 50.23 -3.04 30.35 8.58 15.03
  Q 17.50 3.29 32.52 2.50
  Q 33.03 2.47 33.51 2.48
  Z
  M 33.13 52.02
  Q 33.17 52.02 33.20 52.02
  A 0.17 0.02 -2.5 0 0 33.35 51.99
  Q 33.69 51.62 39.43 46.03
  Q 43.35 42.22 43.98 40.06
  C 44.87 37.03 43.70 34.55 41.67 31.92
  A 0.59 0.58 50.3 0 1 41.74 31.13
  Q 47.91 25.55 43.00 18.91
  A 1.04 1.04 0.0 0 1 42.93 17.77
  Q 43.43 16.90 43.58 16.58
  A 0.23 0.23 0.0 0 0 43.29 16.27
  L 35.31 19.60
  A 1.21 1.21 0.0 0 0 35.59 21.91
  Q 38.24 22.34 40.50 22.03
  A 1.27 1.27 0.0 0 1 41.92 23.11
  Q 42.45 26.82 39.51 29.11
  A 0.65 0.64 48.2 0 1 38.65 29.06
  Q 34.52 24.91 33.42 23.78
  Q 33.33 23.69 33.12 23.69
  Q 32.91 23.69 32.83 23.78
  Q 31.73 24.91 27.60 29.06
  A 0.65 0.64 -48.2 0 1 26.74 29.11
  Q 23.80 26.82 24.33 23.11
  A 1.27 1.27 0.0 0 1 25.75 22.03
  Q 28.01 22.34 30.66 21.91
  A 1.21 1.21 0.0 0 0 30.94 19.60
  L 22.96 16.27
  A 0.23 0.23 0.0 0 0 22.67 16.58
  Q 22.82 16.90 23.32 17.77
  A 1.04 1.04 0.0 0 1 23.25 18.91
  Q 18.34 25.55 24.51 31.13
  A 0.59 0.58 -50.3 0 1 24.58 31.92
  C 22.55 34.55 21.38 37.03 22.27 40.06
  Q 22.90 42.22 26.82 46.03
  Q 32.56 51.62 32.90 51.99
  A 0.17 0.02 2.5 0 0 33.06 52.02
  Q 33.08 52.02 33.13 52.02
  Z"
/>
<path fill="#ffffff" d="
  M 33.12 23.69
  Q 33.33 23.69 33.42 23.78
  Q 34.52 24.91 38.65 29.06
  A 0.65 0.64 48.2 0 0 39.51 29.11
  Q 42.45 26.82 41.92 23.11
  A 1.27 1.27 0.0 0 0 40.50 22.03
  Q 38.24 22.34 35.59 21.91
  A 1.21 1.21 0.0 0 1 35.31 19.60
  L 43.29 16.27
  A 0.23 0.23 0.0 0 1 43.58 16.58
  Q 43.43 16.90 42.93 17.77
  A 1.04 1.04 0.0 0 0 43.00 18.91
  Q 47.91 25.55 41.74 31.13
  A 0.59 0.58 50.3 0 0 41.67 31.92
  C 43.70 34.55 44.87 37.03 43.98 40.06
  Q 43.35 42.22 39.43 46.03
  Q 33.69 51.62 33.35 51.99
  A 0.17 0.02 -2.5 0 1 33.20 52.02
  Q 33.17 52.02 33.13 52.02
  Q 33.08 52.02 33.06 52.02
  A 0.17 0.02 2.5 0 1 32.90 51.99
  Q 32.56 51.62 26.82 46.03
  Q 22.90 42.22 22.27 40.06
  C 21.38 37.03 22.55 34.55 24.58 31.92
  A 0.59 0.58 -50.3 0 0 24.51 31.13
  Q 18.34 25.55 23.25 18.91
  A 1.04 1.04 0.0 0 0 23.32 17.77
  Q 22.82 16.90 22.67 16.58
  A 0.23 0.23 0.0 0 1 22.96 16.27
  L 30.94 19.60
  A 1.21 1.21 0.0 0 1 30.66 21.91
  Q 28.01 22.34 25.75 22.03
  A 1.27 1.27 0.0 0 0 24.33 23.11
  Q 23.80 26.82 26.74 29.11
  A 0.65 0.64 -48.2 0 0 27.60 29.06
  Q 31.73 24.91 32.83 23.78
  Q 32.91 23.69 33.12 23.69
  Z
  M 33.4177 28.0011
  A 0.38 0.38 0.0 0 0 32.8803 27.9983
  L 29.5111 31.3323
  A 0.38 0.38 0.0 0 0 29.5083 31.8697
  L 32.8423 35.2389
  A 0.38 0.38 0.0 0 0 33.3797 35.2417
  L 36.7489 31.9077
  A 0.38 0.38 0.0 0 0 36.7517 31.3703
  L 33.4177 28.0011
  Z
  M 26.96 33.97
  Q 23.59 37.33 26.33 41.32
  A 0.59 0.59 0.0 0 0 27.23 41.40
  L 30.79 37.84
  A 0.31 0.31 0.0 0 0 30.79 37.40
  L 27.36 33.97
  A 0.28 0.28 0.0 0 0 26.96 33.97
  Z
  M 39.36 33.96
  A 0.28 0.28 0.0 0 0 38.96 33.96
  L 35.47 37.35
  A 0.31 0.31 0.0 0 0 35.47 37.79
  L 38.99 41.41
  A 0.59 0.59 0.0 0 0 39.89 41.34
  Q 42.69 37.38 39.36 33.96
  Z
  M 33.4120 39.9894
  A 0.37 0.37 0.0 0 0 32.8887 39.9867
  L 29.2494 43.5880
  A 0.37 0.37 0.0 0 0 29.2467 44.1113
  L 32.8480 47.7506
  A 0.37 0.37 0.0 0 0 33.3713 47.7533
  L 37.0106 44.1520
  A 0.37 0.37 0.0 0 0 37.0133 43.6287
  L 33.4120 39.9894
  Z"
/>
<rect fill="#a83139" x="-2.75" y="-2.75" transform="translate(33.13,31.62) rotate(-44.7)" width="5.50" height="5.50" rx="0.38"/>
<path fill="#a83139" d="
  M 26.96 33.97
  A 0.28 0.28 0.0 0 1 27.36 33.97
  L 30.79 37.40
  A 0.31 0.31 0.0 0 1 30.79 37.84
  L 27.23 41.40
  A 0.59 0.59 0.0 0 1 26.33 41.32
  Q 23.59 37.33 26.96 33.97
  Z"
/>
<path fill="#a83139" d="
  M 39.36 33.96
  Q 42.69 37.38 39.89 41.34
  A 0.59 0.59 0.0 0 1 38.99 41.41
  L 35.47 37.79
  A 0.31 0.31 0.0 0 1 35.47 37.35
  L 38.96 33.96
  A 0.28 0.28 0.0 0 1 39.36 33.96
  Z"
/>
<rect fill="#a83139" x="-2.93" y="-2.93" transform="translate(33.13,43.87) rotate(-44.7)" width="5.86" height="5.86" rx="0.37"/>
</svg>
