<?xml version="1.0" encoding="UTF-8" standalone="no"?>
<!DOCTYPE svg PUBLIC "-//W3C//DTD SVG 1.1//EN" "http://www.w3.org/Graphics/SVG/1.1/DTD/svg11.dtd">
<svg xmlns="http://www.w3.org/2000/svg" version="1.1" viewBox="0.00 0.00 66.00 88.00">
<g stroke-width="2.00" fill="none" stroke-linecap="butt">
<path stroke="#80242a" vector-effect="non-scaling-stroke" d="
  M 33.41 86.68
  Q 33.52 86.68 33.61 86.66
  Q 33.66 86.65 33.76 86.57
  C 44.44 76.57 54.27 64.51 60.24 51.01
  C 66.25 37.41 66.30 21.92 54.92 11.10
  C 49.18 5.65 41.56 2.47 33.52 2.46
  C 25.48 2.45 17.85 5.61 12.10 11.05
  C 0.69 21.84 0.70 37.33 6.68 50.94
  C 12.61 64.46 22.41 76.54 33.07 86.57
  Q 33.17 86.65 33.21 86.66
  Q 33.31 86.68 33.41 86.68"
/>
<path stroke="#d4989c" vector-effect="non-scaling-stroke" d="
  M 33.25 29.02
  Q 36.07 29.02 36.14 25.24
  Q 36.20 21.91 33.42 16.28
  A 0.10 0.08 70.7 0 0 33.34 16.23
  Q 33.30 16.23 33.28 16.23
  Q 33.26 16.23 33.22 16.23
  A 0.10 0.08 -70.4 0 0 33.14 16.28
  Q 30.34 21.90 30.38 25.23
  Q 30.43 29.01 33.25 29.02"
/>
<path stroke="#d4989c" vector-effect="non-scaling-stroke" d="
  M 23.34 22.88
  Q 22.03 28.46 24.77 31.98
  A 2.47 2.24 53.2 0 0 27.97 32.60
  C 30.51 30.79 28.88 28.12 26.90 26.61
  Q 25.20 25.32 24.08 22.81
  A 0.39 0.39 0.0 0 0 23.34 22.88"
/>
<path stroke="#d4989c" vector-effect="non-scaling-stroke" d="
  M 43.16 22.98
  A 0.39 0.39 0.0 0 0 42.43 22.91
  Q 41.32 25.39 39.64 26.66
  C 37.68 28.15 36.07 30.79 38.58 32.58
  A 2.44 2.22 -53.2 0 0 41.74 31.97
  Q 44.45 28.49 43.16 22.98"
/>
<path stroke="#d4989c" vector-effect="non-scaling-stroke" d="
  M 19.45 29.21
  Q 18.54 33.67 20.81 37.21
  C 23.23 40.96 26.37 35.69 23.35 34.01
  Q 20.85 32.62 20.10 29.20
  A 0.33 0.33 0.0 0 0 19.45 29.21"
/>
<path stroke="#d4989c" vector-effect="non-scaling-stroke" d="
  M 47.03 29.18
  A 0.33 0.33 0.0 0 0 46.38 29.18
  Q 45.67 32.61 43.18 34.03
  C 40.18 35.74 43.38 40.97 45.76 37.20
  Q 47.99 33.63 47.03 29.18"
/>
<path stroke="#d4989c" vector-effect="non-scaling-stroke" d="
  M 33.25 52.27
  C 38.00 52.27 42.75 46.89 44.53 42.99
  A 1.60 1.60 0.0 0 0 43.65 40.83
  Q 38.01 38.65 34.85 33.44
  Q 34.24 32.44 33.27 32.43
  Q 32.31 32.43 31.70 33.44
  Q 28.52 38.64 22.88 40.81
  A 1.60 1.60 0.0 0 0 21.99 42.96
  C 23.77 46.87 28.50 52.26 33.25 52.27"
/>
</g>
<path fill="#58171a" d="
  M 33.81 88.00
  L 33.04 88.00
  C 21.69 77.68 12.12 65.67 5.62 51.40
  Q 2.10 43.69 1.57 34.83
  C 0.60 18.92 11.05 5.90 26.41 2.11
  C 37.19 -0.56 49.60 3.29 57.18 11.68
  C 79.39 36.29 52.35 71.10 33.81 88.00
  Z
  M 33.41 86.68
  Q 33.52 86.68 33.61 86.66
  Q 33.66 86.65 33.76 86.57
  C 44.44 76.57 54.27 64.51 60.24 51.01
  C 66.25 37.41 66.30 21.92 54.92 11.10
  C 49.18 5.65 41.56 2.47 33.52 2.46
  C 25.48 2.45 17.85 5.61 12.10 11.05
  C 0.69 21.84 0.70 37.33 6.68 50.94
  C 12.61 64.46 22.41 76.54 33.07 86.57
  Q 33.17 86.65 33.21 86.66
  Q 33.31 86.68 33.41 86.68
  Z"
/>
<path fill="#a83139" d="
  M 33.52 2.46
  C 41.56 2.47 49.18 5.65 54.92 11.10
  C 66.30 21.92 66.25 37.41 60.24 51.01
  C 54.27 64.51 44.44 76.57 33.76 86.57
  Q 33.66 86.65 33.61 86.66
  Q 33.52 86.68 33.41 86.68
  Q 33.31 86.68 33.21 86.66
  Q 33.17 86.65 33.07 86.57
  C 22.41 76.54 12.61 64.46 6.68 50.94
  C 0.70 37.33 0.69 21.84 12.10 11.05
  C 17.85 5.61 25.48 2.45 33.52 2.46
  Z
  M 33.25 29.02
  Q 36.07 29.02 36.14 25.24
  Q 36.20 21.91 33.42 16.28
  A 0.10 0.08 70.7 0 0 33.34 16.23
  Q 33.30 16.23 33.28 16.23
  Q 33.26 16.23 33.22 16.23
  A 0.10 0.08 -70.4 0 0 33.14 16.28
  Q 30.34 21.90 30.38 25.23
  Q 30.43 29.01 33.25 29.02
  Z
  M 23.34 22.88
  Q 22.03 28.46 24.77 31.98
  A 2.47 2.24 53.2 0 0 27.97 32.60
  C 30.51 30.79 28.88 28.12 26.90 26.61
  Q 25.20 25.32 24.08 22.81
  A 0.39 0.39 0.0 0 0 23.34 22.88
  Z
  M 43.16 22.98
  A 0.39 0.39 0.0 0 0 42.43 22.91
  Q 41.32 25.39 39.64 26.66
  C 37.68 28.15 36.07 30.79 38.58 32.58
  A 2.44 2.22 -53.2 0 0 41.74 31.97
  Q 44.45 28.49 43.16 22.98
  Z
  M 19.45 29.21
  Q 18.54 33.67 20.81 37.21
  C 23.23 40.96 26.37 35.69 23.35 34.01
  Q 20.85 32.62 20.10 29.20
  A 0.33 0.33 0.0 0 0 19.45 29.21
  Z
  M 47.03 29.18
  A 0.33 0.33 0.0 0 0 46.38 29.18
  Q 45.67 32.61 43.18 34.03
  C 40.18 35.74 43.38 40.97 45.76 37.20
  Q 47.99 33.63 47.03 29.18
  Z
  M 33.25 52.27
  C 38.00 52.27 42.75 46.89 44.53 42.99
  A 1.60 1.60 0.0 0 0 43.65 40.83
  Q 38.01 38.65 34.85 33.44
  Q 34.24 32.44 33.27 32.43
  Q 32.31 32.43 31.70 33.44
  Q 28.52 38.64 22.88 40.81
  A 1.60 1.60 0.0 0 0 21.99 42.96
  C 23.77 46.87 28.50 52.26 33.25 52.27
  Z"
/>
<path fill="#ffffff" d="
  M 33.28 16.23
  Q 33.30 16.23 33.34 16.23
  A 0.10 0.08 70.7 0 1 33.42 16.28
  Q 36.20 21.91 36.14 25.24
  Q 36.07 29.02 33.25 29.02
  Q 30.43 29.01 30.38 25.23
  Q 30.34 21.90 33.14 16.28
  A 0.10 0.08 -70.4 0 1 33.22 16.23
  Q 33.26 16.23 33.28 16.23
  Z"
/>
<path fill="#ffffff" d="
  M 24.08 22.81
  Q 25.20 25.32 26.90 26.61
  C 28.88 28.12 30.51 30.79 27.97 32.60
  A 2.47 2.24 53.2 0 1 24.77 31.98
  Q 22.03 28.46 23.34 22.88
  A 0.39 0.39 0.0 0 1 24.08 22.81
  Z"
/>
<path fill="#ffffff" d="
  M 43.16 22.98
  Q 44.45 28.49 41.74 31.97
  A 2.44 2.22 -53.2 0 1 38.58 32.58
  C 36.07 30.79 37.68 28.15 39.64 26.66
  Q 41.32 25.39 42.43 22.91
  A 0.39 0.39 0.0 0 1 43.16 22.98
  Z"
/>
<path fill="#ffffff" d="
  M 20.10 29.20
  Q 20.85 32.62 23.35 34.01
  C 26.37 35.69 23.23 40.96 20.81 37.21
  Q 18.54 33.67 19.45 29.21
  A 0.33 0.33 0.0 0 1 20.10 29.20
  Z"
/>
<path fill="#ffffff" d="
  M 47.03 29.18
  Q 47.99 33.63 45.76 37.20
  C 43.38 40.97 40.18 35.74 43.18 34.03
  Q 45.67 32.61 46.38 29.18
  A 0.33 0.33 0.0 0 1 47.03 29.18
  Z"
/>
<path fill="#ffffff" d="
  M 33.27 32.43
  Q 34.24 32.44 34.85 33.44
  Q 38.01 38.65 43.65 40.83
  A 1.60 1.60 0.0 0 1 44.53 42.99
  C 42.75 46.89 38.00 52.27 33.25 52.27
  C 28.50 52.26 23.77 46.87 21.99 42.96
  A 1.60 1.60 0.0 0 1 22.88 40.81
  Q 28.52 38.64 31.70 33.44
  Q 32.31 32.43 33.27 32.43
  Z"
/>
</svg>
