<?xml version="1.0" encoding="UTF-8" standalone="no"?>
<!DOCTYPE svg PUBLIC "-//W3C//DTD SVG 1.1//EN" "http://www.w3.org/Graphics/SVG/1.1/DTD/svg11.dtd">
<svg xmlns="http://www.w3.org/2000/svg" version="1.1" viewBox="0.00 0.00 66.00 88.00">
<g stroke-width="2.00" fill="none" stroke-linecap="butt">
<path stroke="#6f562b" vector-effect="non-scaling-stroke" d="
  M 33.39 86.68
  Q 33.53 86.68 33.67 86.65
  A 0.09 0.07 16.9 0 0 33.72 86.63
  C 49.82 71.36 73.58 42.09 60.60 18.39
  C 55.27 8.67 44.74 2.49 33.56 2.47
  C 22.38 2.45 11.83 8.58 6.46 18.29
  C -6.62 41.93 17.03 71.30 33.07 86.63
  A 0.09 0.07 -16.6 0 0 33.12 86.65
  Q 33.26 86.68 33.39 86.68"
/>
<path stroke="#c9b99d" vector-effect="non-scaling-stroke" d="
  M 33.00 33.09
  Q 33.28 33.09 33.64 33.36
  Q 37.10 35.97 40.94 37.69
  A 0.26 0.25 -70.4 0 0 41.29 37.52
  L 42.97 31.36
  A 0.47 0.46 -66.3 0 0 42.78 30.86
  Q 39.42 28.55 36.70 24.70
  A 0.73 0.73 0.0 0 1 36.67 23.92
  L 38.67 20.46
  A 0.44 0.44 0.0 0 0 38.33 19.80
  Q 37.71 19.74 37.13 19.45
  A 0.59 0.59 0.0 0 0 36.28 19.91
  C 36.09 21.68 34.77 22.28 32.98 22.28
  C 31.19 22.29 29.86 21.69 29.66 19.92
  A 0.59 0.59 0.0 0 0 28.82 19.47
  Q 28.24 19.76 27.62 19.82
  A 0.44 0.44 0.0 0 0 27.28 20.48
  L 29.29 23.93
  A 0.73 0.73 0.0 0 1 29.27 24.71
  Q 26.56 28.57 23.21 30.90
  A 0.47 0.46 66.1 0 0 23.02 31.40
  L 24.73 37.55
  A 0.26 0.25 70.2 0 0 25.08 37.72
  Q 28.91 35.99 32.36 33.37
  Q 32.72 33.09 33.00 33.09"
/>
<path stroke="#c9b99d" vector-effect="non-scaling-stroke" d="
  M 42.45 20.42
  L 40.05 23.11
  A 1.47 1.47 0.0 0 0 40.17 25.18
  L 41.18 26.08
  A 9.98 3.19 41.7 0 0 50.76 30.34
  L 50.86 30.22
  A 9.98 3.19 41.7 0 0 45.53 21.20
  L 44.52 20.30
  A 1.47 1.47 0.0 0 0 42.45 20.42"
/>
<path stroke="#c9b99d" vector-effect="non-scaling-stroke" d="
  M 25.92 23.15
  L 23.52 20.46
  A 1.45 1.45 0.0 0 0 21.47 20.35
  L 20.08 21.59
  A 9.43 3.16 -41.8 0 0 15.16 30.23
  L 15.28 30.36
  A 9.43 3.16 -41.8 0 0 24.42 26.43
  L 25.80 25.19
  A 1.45 1.45 0.0 0 0 25.92 23.15"
/>
<path stroke="#c9b99d" vector-effect="non-scaling-stroke" d="
  M 32.97 44.01
  Q 36.48 44.00 40.20 41.63
  A 0.83 0.83 0.0 0 0 40.11 40.19
  Q 36.40 38.43 33.19 36.35
  Q 33.13 36.32 32.95 36.32
  Q 32.77 36.32 32.71 36.35
  Q 29.51 38.45 25.81 40.24
  A 0.83 0.83 0.0 0 0 25.73 41.68
  Q 29.47 44.03 32.97 44.01"
/>
<path stroke="#c9b99d" vector-effect="non-scaling-stroke" d="
  M 32.99 47.76
  C 34.80 47.76 38.87 47.04 39.30 44.87
  A 0.36 0.36 0.0 0 0 38.81 44.47
  Q 35.52 45.78 32.98 45.78
  Q 30.45 45.79 27.14 44.51
  A 0.36 0.36 0.0 0 0 26.66 44.92
  C 27.10 47.08 31.18 47.77 32.99 47.76"
/>
</g>
<path fill="#4b3a1c" d="
  M 33.80 88.00
  L 33.14 88.00
  Q 15.61 72.48 6.00 52.51
  Q 2.23 44.67 1.62 34.98
  Q 1.03 25.70 5.16 18.16
  C 15.09 0.04 39.23 -4.35 54.73 9.30
  Q 63.11 16.69 64.90 27.08
  C 68.82 49.79 49.33 73.88 33.80 88.00
  Z
  M 33.39 86.68
  Q 33.53 86.68 33.67 86.65
  A 0.09 0.07 16.9 0 0 33.72 86.63
  C 49.82 71.36 73.58 42.09 60.60 18.39
  C 55.27 8.67 44.74 2.49 33.56 2.47
  C 22.38 2.45 11.83 8.58 6.46 18.29
  C -6.62 41.93 17.03 71.30 33.07 86.63
  A 0.09 0.07 -16.6 0 0 33.12 86.65
  Q 33.26 86.68 33.39 86.68
  Z"
/>
<path fill="#92723a" d="
  M 33.56 2.47
  C 44.74 2.49 55.27 8.67 60.60 18.39
  C 73.58 42.09 49.82 71.36 33.72 86.63
  A 0.09 0.07 16.9 0 1 33.67 86.65
  Q 33.53 86.68 33.39 86.68
  Q 33.26 86.68 33.12 86.65
  A 0.09 0.07 -16.6 0 1 33.07 86.63
  C 17.03 71.30 -6.62 41.93 6.46 18.29
  C 11.83 8.58 22.38 2.45 33.56 2.47
  Z
  M 33.00 33.09
  Q 33.28 33.09 33.64 33.36
  Q 37.10 35.97 40.94 37.69
  A 0.26 0.25 -70.4 0 0 41.29 37.52
  L 42.97 31.36
  A 0.47 0.46 -66.3 0 0 42.78 30.86
  Q 39.42 28.55 36.70 24.70
  A 0.73 0.73 0.0 0 1 36.67 23.92
  L 38.67 20.46
  A 0.44 0.44 0.0 0 0 38.33 19.80
  Q 37.71 19.74 37.13 19.45
  A 0.59 0.59 0.0 0 0 36.28 19.91
  C 36.09 21.68 34.77 22.28 32.98 22.28
  C 31.19 22.29 29.86 21.69 29.66 19.92
  A 0.59 0.59 0.0 0 0 28.82 19.47
  Q 28.24 19.76 27.62 19.82
  A 0.44 0.44 0.0 0 0 27.28 20.48
  L 29.29 23.93
  A 0.73 0.73 0.0 0 1 29.27 24.71
  Q 26.56 28.57 23.21 30.90
  A 0.47 0.46 66.1 0 0 23.02 31.40
  L 24.73 37.55
  A 0.26 0.25 70.2 0 0 25.08 37.72
  Q 28.91 35.99 32.36 33.37
  Q 32.72 33.09 33.00 33.09
  Z
  M 42.45 20.42
  L 40.05 23.11
  A 1.47 1.47 0.0 0 0 40.17 25.18
  L 41.18 26.08
  A 9.98 3.19 41.7 0 0 50.76 30.34
  L 50.86 30.22
  A 9.98 3.19 41.7 0 0 45.53 21.20
  L 44.52 20.30
  A 1.47 1.47 0.0 0 0 42.45 20.42
  Z
  M 25.92 23.15
  L 23.52 20.46
  A 1.45 1.45 0.0 0 0 21.47 20.35
  L 20.08 21.59
  A 9.43 3.16 -41.8 0 0 15.16 30.23
  L 15.28 30.36
  A 9.43 3.16 -41.8 0 0 24.42 26.43
  L 25.80 25.19
  A 1.45 1.45 0.0 0 0 25.92 23.15
  Z
  M 32.97 44.01
  Q 36.48 44.00 40.20 41.63
  A 0.83 0.83 0.0 0 0 40.11 40.19
  Q 36.40 38.43 33.19 36.35
  Q 33.13 36.32 32.95 36.32
  Q 32.77 36.32 32.71 36.35
  Q 29.51 38.45 25.81 40.24
  A 0.83 0.83 0.0 0 0 25.73 41.68
  Q 29.47 44.03 32.97 44.01
  Z
  M 32.99 47.76
  C 34.80 47.76 38.87 47.04 39.30 44.87
  A 0.36 0.36 0.0 0 0 38.81 44.47
  Q 35.52 45.78 32.98 45.78
  Q 30.45 45.79 27.14 44.51
  A 0.36 0.36 0.0 0 0 26.66 44.92
  C 27.10 47.08 31.18 47.77 32.99 47.76
  Z"
/>
<path fill="#ffffff" d="
  M 32.98 22.28
  C 34.77 22.28 36.09 21.68 36.28 19.91
  A 0.59 0.59 0.0 0 1 37.13 19.45
  Q 37.71 19.74 38.33 19.80
  A 0.44 0.44 0.0 0 1 38.67 20.46
  L 36.67 23.92
  A 0.73 0.73 0.0 0 0 36.70 24.70
  Q 39.42 28.55 42.78 30.86
  A 0.47 0.46 -66.3 0 1 42.97 31.36
  L 41.29 37.52
  A 0.26 0.25 -70.4 0 1 40.94 37.69
  Q 37.10 35.97 33.64 33.36
  Q 33.28 33.09 33.00 33.09
  Q 32.72 33.09 32.36 33.37
  Q 28.91 35.99 25.08 37.72
  A 0.26 0.25 70.2 0 1 24.73 37.55
  L 23.02 31.40
  A 0.47 0.46 66.1 0 1 23.21 30.90
  Q 26.56 28.57 29.27 24.71
  A 0.73 0.73 0.0 0 0 29.29 23.93
  L 27.28 20.48
  A 0.44 0.44 0.0 0 1 27.62 19.82
  Q 28.24 19.76 28.82 19.47
  A 0.59 0.59 0.0 0 1 29.66 19.92
  C 29.86 21.69 31.19 22.29 32.98 22.28
  Z"
/>
<path fill="#ffffff" d="
  M 42.45 20.42
  A 1.47 1.47 0.0 0 1 44.52 20.30
  L 45.53 21.20
  A 9.98 3.19 41.7 0 1 50.86 30.22
  L 50.76 30.34
  A 9.98 3.19 41.7 0 1 41.18 26.08
  L 40.17 25.18
  A 1.47 1.47 0.0 0 1 40.05 23.11
  L 42.45 20.42
  Z"
/>
<path fill="#ffffff" d="
  M 25.92 23.15
  A 1.45 1.45 0.0 0 1 25.80 25.19
  L 24.42 26.43
  A 9.43 3.16 -41.8 0 1 15.28 30.36
  L 15.16 30.23
  A 9.43 3.16 -41.8 0 1 20.08 21.59
  L 21.47 20.35
  A 1.45 1.45 0.0 0 1 23.52 20.46
  L 25.92 23.15
  Z"
/>
<path fill="#ffffff" d="
  M 32.95 36.32
  Q 33.13 36.32 33.19 36.35
  Q 36.40 38.43 40.11 40.19
  A 0.83 0.83 0.0 0 1 40.20 41.63
  Q 36.48 44.00 32.97 44.01
  Q 29.47 44.03 25.73 41.68
  A 0.83 0.83 0.0 0 1 25.81 40.24
  Q 29.51 38.45 32.71 36.35
  Q 32.77 36.32 32.95 36.32
  Z"
/>
<path fill="#ffffff" d="
  M 32.98 45.78
  Q 35.52 45.78 38.81 44.47
  A 0.36 0.36 0.0 0 1 39.30 44.87
  C 38.87 47.04 34.80 47.76 32.99 47.76
  C 31.18 47.77 27.10 47.08 26.66 44.92
  A 0.36 0.36 0.0 0 1 27.14 44.51
  Q 30.45 45.79 32.98 45.78
  Z"
/>
</svg>
