<?xml version="1.0" encoding="UTF-8" standalone="no"?>
<!DOCTYPE svg PUBLIC "-//W3C//DTD SVG 1.1//EN" "http://www.w3.org/Graphics/SVG/1.1/DTD/svg11.dtd">
<svg xmlns="http://www.w3.org/2000/svg" version="1.1" viewBox="0.00 0.00 66.00 88.00">
<g stroke-width="2.00" fill="none" stroke-linecap="butt">
<path stroke="#2b5d6e" vector-effect="non-scaling-stroke" d="
  M 33.41 86.71
  Q 33.51 86.71 33.62 86.69
  Q 33.65 86.68 33.76 86.58
  Q 48.84 72.33 57.66 56.41
  C 64.39 44.25 67.79 27.86 58.87 15.64
  C 52.89 7.43 43.91 2.52 33.53 2.51
  C 23.14 2.50 14.15 7.38 8.14 15.56
  C -0.81 27.76 2.55 44.16 9.24 56.34
  Q 18.02 72.29 33.06 86.58
  Q 33.17 86.68 33.20 86.69
  Q 33.31 86.71 33.41 86.71"
/>
<path stroke="#9dbdc8" vector-effect="non-scaling-stroke" d="
  M 22.86 37.83
  A 0.33 0.33 0.0 0 0 22.99 38.04
  L 35.14 47.76
  A 0.33 0.33 0.0 0 1 35.14 48.28
  L 33.40 49.67
  A 0.33 0.33 0.0 0 1 32.98 49.67
  L 29.55 46.92
  A 0.33 0.33 0.0 0 0 29.22 46.88
  L 28.12 47.35
  A 0.33 0.33 0.0 0 0 28.04 47.91
  L 32.99 51.88
  A 0.33 0.33 0.0 0 0 33.41 51.88
  L 38.17 48.07
  A 0.33 0.33 0.0 0 0 38.17 47.55
  L 26.13 37.92
  A 0.33 0.33 0.0 0 1 26.00 37.71
  L 24.36 23.96
  A 0.33 0.33 0.0 0 1 24.62 23.59
  L 33.32 21.91
  A 0.33 0.33 0.0 0 1 33.44 21.91
  L 41.76 23.64
  A 0.33 0.33 0.0 0 1 42.02 24.00
  L 40.29 37.76
  A 0.33 0.33 0.0 0 1 40.17 37.97
  L 35.82 41.44
  A 0.33 0.33 0.0 0 0 35.82 41.96
  L 36.94 42.86
  A 0.33 0.33 0.0 0 0 37.36 42.86
  L 43.33 38.08
  A 0.33 0.33 0.0 0 0 43.45 37.87
  L 45.27 23.44
  A 0.33 0.33 0.0 0 0 45.07 23.10
  L 36.96 19.55
  A 0.33 0.33 0.0 0 1 36.76 19.21
  L 37.14 16.14
  A 0.33 0.33 0.0 0 0 36.82 15.77
  L 29.54 15.77
  A 0.33 0.33 0.0 0 0 29.21 16.14
  L 29.58 19.23
  A 0.33 0.33 0.0 0 1 29.38 19.57
  L 21.33 23.07
  A 0.33 0.33 0.0 0 0 21.13 23.41
  L 22.86 37.83"
/>
<path stroke="#9dbdc8" vector-effect="non-scaling-stroke" d="
  M 33.20 40.39
  Q 33.28 40.39 33.37 40.38
  Q 33.51 40.35 33.53 40.33
  Q 34.74 39.38 37.61 37.03
  A 1.49 1.45 -16.6 0 0 38.15 36.06
  L 39.40 26.13
  A 0.66 0.65 9.8 0 0 38.88 25.40
  C 36.89 24.98 34.69 24.33 33.17 24.34
  C 31.66 24.34 29.45 24.99 27.47 25.42
  A 0.66 0.65 -10.0 0 0 26.95 26.15
  L 28.23 36.08
  A 1.49 1.45 16.4 0 0 28.77 37.04
  Q 31.65 39.38 32.87 40.33
  Q 32.89 40.35 33.03 40.38
  Q 33.12 40.39 33.20 40.39"
/>
<path stroke="#9dbdc8" vector-effect="non-scaling-stroke" d="
  M 33.5616 25.9416
  A 1.65 0.77 -167.1 0 0 34.9981 27.0606
  A 1.65 0.77 -167.1 0 0 36.7784 26.6784
  A 1.65 0.77 -167.1 0 0 35.3419 25.5594
  A 1.65 0.77 -167.1 0 0 33.5616 25.9416"
/>
<path stroke="#9dbdc8" vector-effect="non-scaling-stroke" d="
  M 28.08 27.08
  L 29.10 35.78
  A 0.08 0.08 0.0 0 0 29.19 35.85
  A 2.39 2.02 83.3 0 0 30.91 33.24
  L 30.43 29.13
  A 2.39 2.02 83.3 0 0 28.15 26.99
  A 0.08 0.08 0.0 0 0 28.08 27.08"
/>
<path stroke="#9dbdc8" vector-effect="non-scaling-stroke" d="
  M 37.28 35.65
  L 38.32 27.31
  A 0.15 0.15 0.0 0 0 38.19 27.14
  L 38.14 27.14
  A 2.19 1.90 -82.9 0 0 35.99 29.08
  L 35.45 33.36
  A 2.19 1.90 -82.9 0 0 37.07 35.77
  L 37.12 35.78
  A 0.15 0.15 0.0 0 0 37.28 35.65"
/>
<path stroke="#9dbdc8" vector-effect="non-scaling-stroke" d="
  M 31.14 37.73
  Q 31.74 38.25 32.41 38.58
  A 0.34 0.34 0.0 0 0 32.89 38.23
  Q 32.73 36.90 32.24 36.47
  Q 31.74 36.04 30.40 36.06
  A 0.34 0.34 0.0 0 0 30.12 36.59
  Q 30.53 37.21 31.14 37.73"
/>
</g>
<path fill="#1b404b" d="
  M 33.80 88.00
  L 33.15 88.00
  Q 15.61 72.48 6.00 52.51
  Q 2.26 44.73 1.63 35.22
  Q 1.01 25.75 5.24 18.03
  C 12.59 4.62 28.00 -1.64 42.99 2.77
  Q 51.21 5.19 57.00 11.50
  Q 68.05 23.54 64.73 40.39
  Q 62.30 52.73 54.38 64.35
  Q 45.54 77.31 33.80 88.00
  Z
  M 33.41 86.71
  Q 33.51 86.71 33.62 86.69
  Q 33.65 86.68 33.76 86.58
  Q 48.84 72.33 57.66 56.41
  C 64.39 44.25 67.79 27.86 58.87 15.64
  C 52.89 7.43 43.91 2.52 33.53 2.51
  C 23.14 2.50 14.15 7.38 8.14 15.56
  C -0.81 27.76 2.55 44.16 9.24 56.34
  Q 18.02 72.29 33.06 86.58
  Q 33.17 86.68 33.20 86.69
  Q 33.31 86.71 33.41 86.71
  Z"
/>
<path fill="#3a7a91" d="
  M 33.53 2.51
  C 43.91 2.52 52.89 7.43 58.87 15.64
  C 67.79 27.86 64.39 44.25 57.66 56.41
  Q 48.84 72.33 33.76 86.58
  Q 33.65 86.68 33.62 86.69
  Q 33.51 86.71 33.41 86.71
  Q 33.31 86.71 33.20 86.69
  Q 33.17 86.68 33.06 86.58
  Q 18.02 72.29 9.24 56.34
  C 2.55 44.16 -0.81 27.76 8.14 15.56
  C 14.15 7.38 23.14 2.50 33.53 2.51
  Z
  M 22.86 37.83
  A 0.33 0.33 0.0 0 0 22.99 38.04
  L 35.14 47.76
  A 0.33 0.33 0.0 0 1 35.14 48.28
  L 33.40 49.67
  A 0.33 0.33 0.0 0 1 32.98 49.67
  L 29.55 46.92
  A 0.33 0.33 0.0 0 0 29.22 46.88
  L 28.12 47.35
  A 0.33 0.33 0.0 0 0 28.04 47.91
  L 32.99 51.88
  A 0.33 0.33 0.0 0 0 33.41 51.88
  L 38.17 48.07
  A 0.33 0.33 0.0 0 0 38.17 47.55
  L 26.13 37.92
  A 0.33 0.33 0.0 0 1 26.00 37.71
  L 24.36 23.96
  A 0.33 0.33 0.0 0 1 24.62 23.59
  L 33.32 21.91
  A 0.33 0.33 0.0 0 1 33.44 21.91
  L 41.76 23.64
  A 0.33 0.33 0.0 0 1 42.02 24.00
  L 40.29 37.76
  A 0.33 0.33 0.0 0 1 40.17 37.97
  L 35.82 41.44
  A 0.33 0.33 0.0 0 0 35.82 41.96
  L 36.94 42.86
  A 0.33 0.33 0.0 0 0 37.36 42.86
  L 43.33 38.08
  A 0.33 0.33 0.0 0 0 43.45 37.87
  L 45.27 23.44
  A 0.33 0.33 0.0 0 0 45.07 23.10
  L 36.96 19.55
  A 0.33 0.33 0.0 0 1 36.76 19.21
  L 37.14 16.14
  A 0.33 0.33 0.0 0 0 36.82 15.77
  L 29.54 15.77
  A 0.33 0.33 0.0 0 0 29.21 16.14
  L 29.58 19.23
  A 0.33 0.33 0.0 0 1 29.38 19.57
  L 21.33 23.07
  A 0.33 0.33 0.0 0 0 21.13 23.41
  L 22.86 37.83
  Z
  M 33.20 40.39
  Q 33.28 40.39 33.37 40.38
  Q 33.51 40.35 33.53 40.33
  Q 34.74 39.38 37.61 37.03
  A 1.49 1.45 -16.6 0 0 38.15 36.06
  L 39.40 26.13
  A 0.66 0.65 9.8 0 0 38.88 25.40
  C 36.89 24.98 34.69 24.33 33.17 24.34
  C 31.66 24.34 29.45 24.99 27.47 25.42
  A 0.66 0.65 -10.0 0 0 26.95 26.15
  L 28.23 36.08
  A 1.49 1.45 16.4 0 0 28.77 37.04
  Q 31.65 39.38 32.87 40.33
  Q 32.89 40.35 33.03 40.38
  Q 33.12 40.39 33.20 40.39
  Z"
/>
<path fill="#ffffff" d="
  M 22.86 37.83
  L 21.13 23.41
  A 0.33 0.33 0.0 0 1 21.33 23.07
  L 29.38 19.57
  A 0.33 0.33 0.0 0 0 29.58 19.23
  L 29.21 16.14
  A 0.33 0.33 0.0 0 1 29.54 15.77
  L 36.82 15.77
  A 0.33 0.33 0.0 0 1 37.14 16.14
  L 36.76 19.21
  A 0.33 0.33 0.0 0 0 36.96 19.55
  L 45.07 23.10
  A 0.33 0.33 0.0 0 1 45.27 23.44
  L 43.45 37.87
  A 0.33 0.33 0.0 0 1 43.33 38.08
  L 37.36 42.86
  A 0.33 0.33 0.0 0 1 36.94 42.86
  L 35.82 41.96
  A 0.33 0.33 0.0 0 1 35.82 41.44
  L 40.17 37.97
  A 0.33 0.33 0.0 0 0 40.29 37.76
  L 42.02 24.00
  A 0.33 0.33 0.0 0 0 41.76 23.64
  L 33.44 21.91
  A 0.33 0.33 0.0 0 0 33.32 21.91
  L 24.62 23.59
  A 0.33 0.33 0.0 0 0 24.36 23.96
  L 26.00 37.71
  A 0.33 0.33 0.0 0 0 26.13 37.92
  L 38.17 47.55
  A 0.33 0.33 0.0 0 1 38.17 48.07
  L 33.41 51.88
  A 0.33 0.33 0.0 0 1 32.99 51.88
  L 28.04 47.91
  A 0.33 0.33 0.0 0 1 28.12 47.35
  L 29.22 46.88
  A 0.33 0.33 0.0 0 1 29.55 46.92
  L 32.98 49.67
  A 0.33 0.33 0.0 0 0 33.40 49.67
  L 35.14 48.28
  A 0.33 0.33 0.0 0 0 35.14 47.76
  L 22.99 38.04
  A 0.33 0.33 0.0 0 1 22.86 37.83
  Z"
/>
<path fill="#ffffff" d="
  M 33.17 24.34
  C 34.69 24.33 36.89 24.98 38.88 25.40
  A 0.66 0.65 9.8 0 1 39.40 26.13
  L 38.15 36.06
  A 1.49 1.45 -16.6 0 1 37.61 37.03
  Q 34.74 39.38 33.53 40.33
  Q 33.51 40.35 33.37 40.38
  Q 33.28 40.39 33.20 40.39
  Q 33.12 40.39 33.03 40.38
  Q 32.89 40.35 32.87 40.33
  Q 31.65 39.38 28.77 37.04
  A 1.49 1.45 16.4 0 1 28.23 36.08
  L 26.95 26.15
  A 0.66 0.65 -10.0 0 1 27.47 25.42
  C 29.45 24.99 31.66 24.34 33.17 24.34
  Z
  M 33.5616 25.9416
  A 1.65 0.77 -167.1 0 0 34.9981 27.0606
  A 1.65 0.77 -167.1 0 0 36.7784 26.6784
  A 1.65 0.77 -167.1 0 0 35.3419 25.5594
  A 1.65 0.77 -167.1 0 0 33.5616 25.9416
  Z
  M 28.08 27.08
  L 29.10 35.78
  A 0.08 0.08 0.0 0 0 29.19 35.85
  A 2.39 2.02 83.3 0 0 30.91 33.24
  L 30.43 29.13
  A 2.39 2.02 83.3 0 0 28.15 26.99
  A 0.08 0.08 0.0 0 0 28.08 27.08
  Z
  M 37.28 35.65
  L 38.32 27.31
  A 0.15 0.15 0.0 0 0 38.19 27.14
  L 38.14 27.14
  A 2.19 1.90 -82.9 0 0 35.99 29.08
  L 35.45 33.36
  A 2.19 1.90 -82.9 0 0 37.07 35.77
  L 37.12 35.78
  A 0.15 0.15 0.0 0 0 37.28 35.65
  Z
  M 31.14 37.73
  Q 31.74 38.25 32.41 38.58
  A 0.34 0.34 0.0 0 0 32.89 38.23
  Q 32.73 36.90 32.24 36.47
  Q 31.74 36.04 30.40 36.06
  A 0.34 0.34 0.0 0 0 30.12 36.59
  Q 30.53 37.21 31.14 37.73
  Z"
/>
<ellipse fill="#3a7a91" cx="0.00" cy="0.00" transform="translate(35.17,26.31) rotate(-167.1)" rx="1.65" ry="0.77"/>
<path fill="#3a7a91" d="
  M 28.08 27.08
  A 0.08 0.08 0.0 0 1 28.15 26.99
  A 2.39 2.02 83.3 0 1 30.43 29.13
  L 30.91 33.24
  A 2.39 2.02 83.3 0 1 29.19 35.85
  A 0.08 0.08 0.0 0 1 29.10 35.78
  L 28.08 27.08
  Z"
/>
<path fill="#3a7a91" d="
  M 37.28 35.65
  A 0.15 0.15 0.0 0 1 37.12 35.78
  L 37.07 35.77
  A 2.19 1.90 -82.9 0 1 35.45 33.36
  L 35.99 29.08
  A 2.19 1.90 -82.9 0 1 38.14 27.14
  L 38.19 27.14
  A 0.15 0.15 0.0 0 1 38.32 27.31
  L 37.28 35.65
  Z"
/>
<path fill="#3a7a91" d="
  M 32.24 36.47
  Q 32.73 36.90 32.89 38.23
  A 0.34 0.34 0.0 0 1 32.41 38.58
  Q 31.74 38.25 31.14 37.73
  Q 30.53 37.21 30.12 36.59
  A 0.34 0.34 0.0 0 1 30.40 36.06
  Q 31.74 36.04 32.24 36.47
  Z"
/>
</svg>
