<?xml version="1.0" encoding="UTF-8" standalone="no"?>
<!DOCTYPE svg PUBLIC "-//W3C//DTD SVG 1.1//EN" "http://www.w3.org/Graphics/SVG/1.1/DTD/svg11.dtd">
<svg xmlns="http://www.w3.org/2000/svg" version="1.1" viewBox="0.00 0.00 66.00 88.00">
<g stroke-width="2.00" fill="none" stroke-linecap="butt">
<path stroke="#353846" vector-effect="non-scaling-stroke" d="
  M 33.42 86.59
  C 33.77 86.59 33.65 86.60 33.81 86.46
  Q 48.40 73.15 57.54 56.50
  Q 62.69 47.10 63.84 38.70
  Q 66.69 17.69 48.93 6.64
  Q 42.28 2.50 33.52 2.49
  Q 24.76 2.48 18.09 6.61
  Q 0.31 17.61 3.11 38.63
  Q 4.24 47.03 9.37 56.44
  Q 18.47 73.11 33.03 86.45
  C 33.19 86.60 33.06 86.59 33.42 86.59"
/>
<path stroke="#a3a4ae" vector-effect="non-scaling-stroke" d="
  M 27.86 30.71
  Q 26.32 29.34 25.89 26.81
  C 24.30 17.37 40.32 16.86 41.01 24.94
  C 41.43 29.81 34.42 33.35 30.66 34.34
  A 0.48 0.47 -18.3 0 0 30.34 34.97
  L 33.17 42.16
  A 0.26 0.26 0.0 0 0 33.65 42.16
  L 36.29 35.26
  A 1.42 1.42 0.0 0 1 37.30 34.38
  Q 40.47 33.66 42.79 32.29
  C 47.65 29.40 49.35 24.05 44.92 19.76
  C 39.42 14.46 29.16 14.65 23.33 18.57
  C 16.42 23.22 18.73 32.14 27.68 31.25
  A 0.31 0.31 0.0 0 0 27.86 30.71"
/>
<path stroke="#a3a4ae" vector-effect="non-scaling-stroke" d="
  M 37.0305 48.8259
  A 0.47 0.47 0.0 0 0 37.0293 48.1613
  L 33.6859 44.8295
  A 0.47 0.47 0.0 0 0 33.0213 44.8307
  L 29.6895 48.1741
  A 0.47 0.47 0.0 0 0 29.6907 48.8387
  L 33.0341 52.1705
  A 0.47 0.47 0.0 0 0 33.6987 52.1693
  L 37.0305 48.8259"
/>
</g>
<path fill="#232630" d="
  M 33.78 88.00
  L 33.04 88.00
  C 21.75 77.75 12.12 65.67 5.64 51.56
  Q 2.20 44.06 1.59 34.89
  C 0.57 19.45 10.63 6.37 25.31 2.38
  C 36.72 -0.73 49.45 2.99 57.48 12.01
  C 79.29 36.51 52.02 71.49 33.78 88.00
  Z
  M 33.42 86.59
  C 33.77 86.59 33.65 86.60 33.81 86.46
  Q 48.40 73.15 57.54 56.50
  Q 62.69 47.10 63.84 38.70
  Q 66.69 17.69 48.93 6.64
  Q 42.28 2.50 33.52 2.49
  Q 24.76 2.48 18.09 6.61
  Q 0.31 17.61 3.11 38.63
  Q 4.24 47.03 9.37 56.44
  Q 18.47 73.11 33.03 86.45
  C 33.19 86.60 33.06 86.59 33.42 86.59
  Z"
/>
<path fill="#46495c" d="
  M 33.52 2.49
  Q 42.28 2.50 48.93 6.64
  Q 66.69 17.69 63.84 38.70
  Q 62.69 47.10 57.54 56.50
  Q 48.40 73.15 33.81 86.46
  C 33.65 86.60 33.77 86.59 33.42 86.59
  C 33.06 86.59 33.19 86.60 33.03 86.45
  Q 18.47 73.11 9.37 56.44
  Q 4.24 47.03 3.11 38.63
  Q 0.31 17.61 18.09 6.61
  Q 24.76 2.48 33.52 2.49
  Z
  M 27.86 30.71
  Q 26.32 29.34 25.89 26.81
  C 24.30 17.37 40.32 16.86 41.01 24.94
  C 41.43 29.81 34.42 33.35 30.66 34.34
  A 0.48 0.47 -18.3 0 0 30.34 34.97
  L 33.17 42.16
  A 0.26 0.26 0.0 0 0 33.65 42.16
  L 36.29 35.26
  A 1.42 1.42 0.0 0 1 37.30 34.38
  Q 40.47 33.66 42.79 32.29
  C 47.65 29.40 49.35 24.05 44.92 19.76
  C 39.42 14.46 29.16 14.65 23.33 18.57
  C 16.42 23.22 18.73 32.14 27.68 31.25
  A 0.31 0.31 0.0 0 0 27.86 30.71
  Z
  M 37.0305 48.8259
  A 0.47 0.47 0.0 0 0 37.0293 48.1613
  L 33.6859 44.8295
  A 0.47 0.47 0.0 0 0 33.0213 44.8307
  L 29.6895 48.1741
  A 0.47 0.47 0.0 0 0 29.6907 48.8387
  L 33.0341 52.1705
  A 0.47 0.47 0.0 0 0 33.6987 52.1693
  L 37.0305 48.8259
  Z"
/>
<path fill="#ffffff" d="
  M 27.68 31.25
  C 18.73 32.14 16.42 23.22 23.33 18.57
  C 29.16 14.65 39.42 14.46 44.92 19.76
  C 49.35 24.05 47.65 29.40 42.79 32.29
  Q 40.47 33.66 37.30 34.38
  A 1.42 1.42 0.0 0 0 36.29 35.26
  L 33.65 42.16
  A 0.26 0.26 0.0 0 1 33.17 42.16
  L 30.34 34.97
  A 0.48 0.47 -18.3 0 1 30.66 34.34
  C 34.42 33.35 41.43 29.81 41.01 24.94
  C 40.32 16.86 24.30 17.37 25.89 26.81
  Q 26.32 29.34 27.86 30.71
  A 0.31 0.31 0.0 0 1 27.68 31.25
  Z"
/>
<rect fill="#ffffff" x="-2.83" y="-2.83" transform="translate(33.36,48.50) rotate(44.9)" width="5.66" height="5.66" rx="0.47"/>
</svg>
