<?xml version="1.0" encoding="UTF-8" standalone="no"?>
<!DOCTYPE svg PUBLIC "-//W3C//DTD SVG 1.1//EN" "http://www.w3.org/Graphics/SVG/1.1/DTD/svg11.dtd">
<svg xmlns="http://www.w3.org/2000/svg" version="1.1" viewBox="0.00 0.00 66.00 88.00">
<g stroke-width="2.00" fill="none" stroke-linecap="butt">
<path stroke="#80242a" vector-effect="non-scaling-stroke" d="
  M 33.41 86.68
  Q 33.53 86.68 33.61 86.66
  Q 33.66 86.65 33.75 86.56
  Q 45.08 75.95 53.44 63.47
  C 62.71 49.62 69.70 30.34 58.62 15.36
  Q 49.82 3.46 34.73 2.53
  Q 33.55 2.46 33.52 2.46
  Q 33.48 2.46 32.30 2.53
  Q 17.22 3.42 8.39 15.30
  C -2.73 30.25 4.21 49.55 13.44 63.42
  Q 21.77 75.92 33.07 86.56
  Q 33.16 86.65 33.21 86.66
  Q 33.29 86.68 33.41 86.68"
/>
<path stroke="#d4989c" vector-effect="non-scaling-stroke" d="
  M 46.68 20.30
  Q 46.84 20.47 45.87 22.12
  Q 45.75 22.33 45.77 22.48
  Q 45.81 22.80 46.16 22.96
  A 0.37 0.37 0.0 0 0 46.57 22.88
  Q 48.75 20.50 50.42 22.78
  A 0.37 0.37 0.0 0 0 51.07 22.68
  Q 51.51 21.41 50.86 19.73
  A 0.79 0.79 0.0 0 0 50.13 19.24
  Q 49.86 19.25 48.78 19.63
  C 48.36 19.79 47.98 19.65 47.66 19.32
  C 47.34 19.00 47.20 18.63 47.35 18.20
  Q 47.74 17.12 47.75 16.85
  A 0.79 0.79 0.0 0 0 47.26 16.12
  Q 45.58 15.47 44.31 15.91
  A 0.37 0.37 0.0 0 0 44.21 16.56
  Q 46.49 18.23 44.10 20.41
  A 0.37 0.37 0.0 0 0 44.02 20.82
  Q 44.18 21.17 44.50 21.21
  Q 44.65 21.23 44.86 21.11
  Q 46.52 20.14 46.68 20.30"
/>
<path stroke="#d4989c" vector-effect="non-scaling-stroke" d="
  M 37.37 20.56
  A 0.39 0.39 0.0 0 0 37.43 21.03
  L 45.80 29.40
  A 0.39 0.39 0.0 0 0 46.20 29.49
  L 48.17 28.84
  A 0.39 0.39 0.0 0 0 48.32 28.19
  L 38.95 18.82
  A 0.39 0.39 0.0 0 0 38.34 18.90
  L 37.37 20.56"
/>
<path stroke="#d4989c" vector-effect="non-scaling-stroke" d="
  M 17.97 20.99
  C 21.88 20.92 25.47 23.02 22.19 27.10
  Q 21.25 28.28 20.38 29.76
  A 2.78 2.58 66.7 0 0 20.04 30.72
  Q 19.24 36.18 23.98 38.09
  A 0.24 0.23 -10.8 0 0 24.24 37.71
  C 16.29 29.47 30.64 28.02 25.55 21.40
  A 2.84 2.77 -2.8 0 0 24.78 20.72
  Q 21.63 18.83 17.88 20.57
  A 0.22 0.22 0.0 0 0 17.97 20.99"
/>
<path stroke="#d4989c" vector-effect="non-scaling-stroke" d="
  M 26.77 35.37
  L 27.98 34.16
  A 0.58 0.57 44.6 0 1 28.79 34.16
  L 32.75 38.13
  A 0.58 0.58 0.0 0 1 32.75 38.95
  L 31.47 40.23
  A 0.56 0.56 0.0 0 0 32.04 41.16
  L 35.30 40.07
  A 1.89 1.80 11.9 0 0 36.01 39.63
  L 43.96 31.68
  A 0.59 0.59 0.0 0 0 43.96 30.85
  L 35.99 22.88
  A 0.35 0.35 0.0 0 0 35.49 22.88
  L 25.00 33.37
  A 0.67 0.66 -45.3 0 0 25.00 34.32
  L 26.05 35.37
  A 0.51 0.51 0.0 0 0 26.77 35.37"
/>
<path stroke="#d4989c" vector-effect="non-scaling-stroke" d="
  M 19.53 24.61
  Q 19.86 25.23 19.88 26.09
  A 0.22 0.21 67.2 0 0 20.24 26.24
  Q 21.47 25.05 20.86 23.91
  Q 20.25 22.77 18.58 23.12
  A 0.22 0.21 56.8 0 0 18.50 23.50
  Q 19.20 23.99 19.53 24.61"
/>
<path stroke="#d4989c" vector-effect="non-scaling-stroke" d="
  M 17.38 34.62
  A 0.47 0.47 0.0 0 0 16.51 34.27
  Q 14.79 37.20 16.64 38.78
  C 18.20 40.11 21.29 38.98 22.75 39.90
  A 0.24 0.23 19.3 0 0 23.11 39.73
  L 23.19 39.19
  A 0.04 0.03 14.9 0 0 23.17 39.16
  Q 21.80 38.44 20.51 38.17
  C 18.34 37.73 16.80 37.00 17.38 34.62"
/>
<path stroke="#d4989c" vector-effect="non-scaling-stroke" d="
  M 47.14 37.76
  Q 45.60 35.55 43.60 37.28
  Q 41.58 39.03 38.77 40.35
  A 0.26 0.26 0.0 0 0 38.64 40.69
  L 38.65 40.69
  A 0.13 0.13 0.0 0 0 38.81 40.76
  L 47.06 38.01
  A 0.17 0.16 63.4 0 0 47.14 37.76"
/>
<path stroke="#d4989c" vector-effect="non-scaling-stroke" d="
  M 26.07 43.71
  C 31.93 50.53 37.79 42.45 44.57 44.72
  A 0.86 0.86 0.0 0 1 45.15 45.39
  Q 45.37 46.67 43.41 47.36
  A 0.25 0.25 0.0 0 0 43.42 47.84
  C 47.47 48.96 50.35 44.12 46.00 41.97
  C 42.18 40.08 38.44 41.78 33.67 43.64
  A 5.11 5.02 -61.5 0 1 32.85 43.89
  Q 30.00 44.51 26.41 43.22
  A 0.31 0.31 0.0 0 0 26.07 43.71"
/>
<path stroke="#d4989c" vector-effect="non-scaling-stroke" d="
  M 18.96 42.23
  Q 16.25 41.44 15.10 43.19
  A 0.68 0.68 0.0 0 0 15.19 44.05
  L 22.92 51.79
  A 0.69 0.69 0.0 0 0 23.89 51.79
  L 24.63 51.05
  A 0.84 0.83 49.6 0 0 24.71 49.97
  Q 23.97 48.92 19.37 44.54
  Q 18.72 43.92 18.73 43.73
  Q 18.75 43.47 19.18 42.86
  A 0.41 0.41 0.0 0 0 18.96 42.23"
/>
<path stroke="#d4989c" vector-effect="non-scaling-stroke" d="
  M 26.11 47.36
  C 27.43 49.43 29.05 48.75 30.70 49.98
  Q 31.31 50.43 31.07 51.31
  A 0.33 0.33 0.0 0 0 31.52 51.70
  Q 32.99 51.06 33.19 50.47
  A 2.03 1.85 10.1 0 0 31.31 48.02
  Q 28.03 47.84 26.43 47.01
  A 0.25 0.24 -2.8 0 0 26.11 47.36"
/>
</g>
<path fill="#58171a" d="
  M 33.81 88.00
  L 33.04 88.00
  C 17.15 73.55 -4.60 46.35 3.05 23.09
  Q 5.52 15.55 11.52 9.93
  C 27.29 -4.84 53.16 -0.01 62.57 19.67
  C 66.89 28.70 65.96 39.66 62.41 48.85
  C 56.64 63.75 45.55 77.31 33.81 88.00
  Z
  M 33.41 86.68
  Q 33.53 86.68 33.61 86.66
  Q 33.66 86.65 33.75 86.56
  Q 45.08 75.95 53.44 63.47
  C 62.71 49.62 69.70 30.34 58.62 15.36
  Q 49.82 3.46 34.73 2.53
  Q 33.55 2.46 33.52 2.46
  Q 33.48 2.46 32.30 2.53
  Q 17.22 3.42 8.39 15.30
  C -2.73 30.25 4.21 49.55 13.44 63.42
  Q 21.77 75.92 33.07 86.56
  Q 33.16 86.65 33.21 86.66
  Q 33.29 86.68 33.41 86.68
  Z"
/>
<path fill="#a83139" d="
  M 33.52 2.46
  Q 33.55 2.46 34.73 2.53
  Q 49.82 3.46 58.62 15.36
  C 69.70 30.34 62.71 49.62 53.44 63.47
  Q 45.08 75.95 33.75 86.56
  Q 33.66 86.65 33.61 86.66
  Q 33.53 86.68 33.41 86.68
  Q 33.29 86.68 33.21 86.66
  Q 33.16 86.65 33.07 86.56
  Q 21.77 75.92 13.44 63.42
  C 4.21 49.55 -2.73 30.25 8.39 15.30
  Q 17.22 3.42 32.30 2.53
  Q 33.48 2.46 33.52 2.46
  Z
  M 46.68 20.30
  Q 46.84 20.47 45.87 22.12
  Q 45.75 22.33 45.77 22.48
  Q 45.81 22.80 46.16 22.96
  A 0.37 0.37 0.0 0 0 46.57 22.88
  Q 48.75 20.50 50.42 22.78
  A 0.37 0.37 0.0 0 0 51.07 22.68
  Q 51.51 21.41 50.86 19.73
  A 0.79 0.79 0.0 0 0 50.13 19.24
  Q 49.86 19.25 48.78 19.63
  C 48.36 19.79 47.98 19.65 47.66 19.32
  C 47.34 19.00 47.20 18.63 47.35 18.20
  Q 47.74 17.12 47.75 16.85
  A 0.79 0.79 0.0 0 0 47.26 16.12
  Q 45.58 15.47 44.31 15.91
  A 0.37 0.37 0.0 0 0 44.21 16.56
  Q 46.49 18.23 44.10 20.41
  A 0.37 0.37 0.0 0 0 44.02 20.82
  Q 44.18 21.17 44.50 21.21
  Q 44.65 21.23 44.86 21.11
  Q 46.52 20.14 46.68 20.30
  Z
  M 37.37 20.56
  A 0.39 0.39 0.0 0 0 37.43 21.03
  L 45.80 29.40
  A 0.39 0.39 0.0 0 0 46.20 29.49
  L 48.17 28.84
  A 0.39 0.39 0.0 0 0 48.32 28.19
  L 38.95 18.82
  A 0.39 0.39 0.0 0 0 38.34 18.90
  L 37.37 20.56
  Z
  M 17.97 20.99
  C 21.88 20.92 25.47 23.02 22.19 27.10
  Q 21.25 28.28 20.38 29.76
  A 2.78 2.58 66.7 0 0 20.04 30.72
  Q 19.24 36.18 23.98 38.09
  A 0.24 0.23 -10.8 0 0 24.24 37.71
  C 16.29 29.47 30.64 28.02 25.55 21.40
  A 2.84 2.77 -2.8 0 0 24.78 20.72
  Q 21.63 18.83 17.88 20.57
  A 0.22 0.22 0.0 0 0 17.97 20.99
  Z
  M 26.77 35.37
  L 27.98 34.16
  A 0.58 0.57 44.6 0 1 28.79 34.16
  L 32.75 38.13
  A 0.58 0.58 0.0 0 1 32.75 38.95
  L 31.47 40.23
  A 0.56 0.56 0.0 0 0 32.04 41.16
  L 35.30 40.07
  A 1.89 1.80 11.9 0 0 36.01 39.63
  L 43.96 31.68
  A 0.59 0.59 0.0 0 0 43.96 30.85
  L 35.99 22.88
  A 0.35 0.35 0.0 0 0 35.49 22.88
  L 25.00 33.37
  A 0.67 0.66 -45.3 0 0 25.00 34.32
  L 26.05 35.37
  A 0.51 0.51 0.0 0 0 26.77 35.37
  Z
  M 19.53 24.61
  Q 19.86 25.23 19.88 26.09
  A 0.22 0.21 67.2 0 0 20.24 26.24
  Q 21.47 25.05 20.86 23.91
  Q 20.25 22.77 18.58 23.12
  A 0.22 0.21 56.8 0 0 18.50 23.50
  Q 19.20 23.99 19.53 24.61
  Z
  M 17.38 34.62
  A 0.47 0.47 0.0 0 0 16.51 34.27
  Q 14.79 37.20 16.64 38.78
  C 18.20 40.11 21.29 38.98 22.75 39.90
  A 0.24 0.23 19.3 0 0 23.11 39.73
  L 23.19 39.19
  A 0.04 0.03 14.9 0 0 23.17 39.16
  Q 21.80 38.44 20.51 38.17
  C 18.34 37.73 16.80 37.00 17.38 34.62
  Z
  M 47.14 37.76
  Q 45.60 35.55 43.60 37.28
  Q 41.58 39.03 38.77 40.35
  A 0.26 0.26 0.0 0 0 38.64 40.69
  L 38.65 40.69
  A 0.13 0.13 0.0 0 0 38.81 40.76
  L 47.06 38.01
  A 0.17 0.16 63.4 0 0 47.14 37.76
  Z
  M 26.07 43.71
  C 31.93 50.53 37.79 42.45 44.57 44.72
  A 0.86 0.86 0.0 0 1 45.15 45.39
  Q 45.37 46.67 43.41 47.36
  A 0.25 0.25 0.0 0 0 43.42 47.84
  C 47.47 48.96 50.35 44.12 46.00 41.97
  C 42.18 40.08 38.44 41.78 33.67 43.64
  A 5.11 5.02 -61.5 0 1 32.85 43.89
  Q 30.00 44.51 26.41 43.22
  A 0.31 0.31 0.0 0 0 26.07 43.71
  Z
  M 18.96 42.23
  Q 16.25 41.44 15.10 43.19
  A 0.68 0.68 0.0 0 0 15.19 44.05
  L 22.92 51.79
  A 0.69 0.69 0.0 0 0 23.89 51.79
  L 24.63 51.05
  A 0.84 0.83 49.6 0 0 24.71 49.97
  Q 23.97 48.92 19.37 44.54
  Q 18.72 43.92 18.73 43.73
  Q 18.75 43.47 19.18 42.86
  A 0.41 0.41 0.0 0 0 18.96 42.23
  Z
  M 26.11 47.36
  C 27.43 49.43 29.05 48.75 30.70 49.98
  Q 31.31 50.43 31.07 51.31
  A 0.33 0.33 0.0 0 0 31.52 51.70
  Q 32.99 51.06 33.19 50.47
  A 2.03 1.85 10.1 0 0 31.31 48.02
  Q 28.03 47.84 26.43 47.01
  A 0.25 0.24 -2.8 0 0 26.11 47.36
  Z"
/>
<path fill="#ffffff" d="
  M 47.66 19.32
  C 47.98 19.65 48.36 19.79 48.78 19.63
  Q 49.86 19.25 50.13 19.24
  A 0.79 0.79 0.0 0 1 50.86 19.73
  Q 51.51 21.41 51.07 22.68
  A 0.37 0.37 0.0 0 1 50.42 22.78
  Q 48.75 20.50 46.57 22.88
  A 0.37 0.37 0.0 0 1 46.16 22.96
  Q 45.81 22.80 45.77 22.48
  Q 45.75 22.33 45.87 22.12
  Q 46.84 20.47 46.68 20.30
  Q 46.52 20.14 44.86 21.11
  Q 44.65 21.23 44.50 21.21
  Q 44.18 21.17 44.02 20.82
  A 0.37 0.37 0.0 0 1 44.10 20.41
  Q 46.49 18.23 44.21 16.56
  A 0.37 0.37 0.0 0 1 44.31 15.91
  Q 45.58 15.47 47.26 16.12
  A 0.79 0.79 0.0 0 1 47.75 16.85
  Q 47.74 17.12 47.35 18.20
  C 47.20 18.63 47.34 19.00 47.66 19.32
  Z"
/>
<path fill="#ffffff" d="
  M 37.37 20.56
  L 38.34 18.90
  A 0.39 0.39 0.0 0 1 38.95 18.82
  L 48.32 28.19
  A 0.39 0.39 0.0 0 1 48.17 28.84
  L 46.20 29.49
  A 0.39 0.39 0.0 0 1 45.80 29.40
  L 37.43 21.03
  A 0.39 0.39 0.0 0 1 37.37 20.56
  Z"
/>
<path fill="#ffffff" d="
  M 17.97 20.99
  A 0.22 0.22 0.0 0 1 17.88 20.57
  Q 21.63 18.83 24.78 20.72
  A 2.84 2.77 -2.8 0 1 25.55 21.40
  C 30.64 28.02 16.29 29.47 24.24 37.71
  A 0.24 0.23 -10.8 0 1 23.98 38.09
  Q 19.24 36.18 20.04 30.72
  A 2.78 2.58 66.7 0 1 20.38 29.76
  Q 21.25 28.28 22.19 27.10
  C 25.47 23.02 21.88 20.92 17.97 20.99
  Z"
/>
<path fill="#ffffff" d="
  M 26.77 35.37
  A 0.51 0.51 0.0 0 1 26.05 35.37
  L 25.00 34.32
  A 0.67 0.66 -45.3 0 1 25.00 33.37
  L 35.49 22.88
  A 0.35 0.35 0.0 0 1 35.99 22.88
  L 43.96 30.85
  A 0.59 0.59 0.0 0 1 43.96 31.68
  L 36.01 39.63
  A 1.89 1.80 11.9 0 1 35.30 40.07
  L 32.04 41.16
  A 0.56 0.56 0.0 0 1 31.47 40.23
  L 32.75 38.95
  A 0.58 0.58 0.0 0 0 32.75 38.13
  L 28.79 34.16
  A 0.58 0.57 44.6 0 0 27.98 34.16
  L 26.77 35.37
  Z"
/>
<path fill="#ffffff" d="
  M 20.86 23.91
  Q 21.47 25.05 20.24 26.24
  A 0.22 0.21 67.2 0 1 19.88 26.09
  Q 19.86 25.23 19.53 24.61
  Q 19.20 23.99 18.50 23.50
  A 0.22 0.21 56.8 0 1 18.58 23.12
  Q 20.25 22.77 20.86 23.91
  Z"
/>
<path fill="#ffffff" d="
  M 17.38 34.62
  C 16.80 37.00 18.34 37.73 20.51 38.17
  Q 21.80 38.44 23.17 39.16
  A 0.04 0.03 14.9 0 1 23.19 39.19
  L 23.11 39.73
  A 0.24 0.23 19.3 0 1 22.75 39.90
  C 21.29 38.98 18.20 40.11 16.64 38.78
  Q 14.79 37.20 16.51 34.27
  A 0.47 0.47 0.0 0 1 17.38 34.62
  Z"
/>
<path fill="#ffffff" d="
  M 47.06 38.01
  L 38.81 40.76
  A 0.13 0.13 0.0 0 1 38.65 40.69
  L 38.64 40.69
  A 0.26 0.26 0.0 0 1 38.77 40.35
  Q 41.58 39.03 43.60 37.28
  Q 45.60 35.55 47.14 37.76
  A 0.17 0.16 63.4 0 1 47.06 38.01
  Z"
/>
<path fill="#ffffff" d="
  M 26.41 43.22
  Q 30.00 44.51 32.85 43.89
  A 5.11 5.02 -61.5 0 0 33.67 43.64
  C 38.44 41.78 42.18 40.08 46.00 41.97
  C 50.35 44.12 47.47 48.96 43.42 47.84
  A 0.25 0.25 0.0 0 1 43.41 47.36
  Q 45.37 46.67 45.15 45.39
  A 0.86 0.86 0.0 0 0 44.57 44.72
  C 37.79 42.45 31.93 50.53 26.07 43.71
  A 0.31 0.31 0.0 0 1 26.41 43.22
  Z"
/>
<path fill="#ffffff" d="
  M 19.18 42.86
  Q 18.75 43.47 18.73 43.73
  Q 18.72 43.92 19.37 44.54
  Q 23.97 48.92 24.71 49.97
  A 0.84 0.83 49.6 0 1 24.63 51.05
  L 23.89 51.79
  A 0.69 0.69 0.0 0 1 22.92 51.79
  L 15.19 44.05
  A 0.68 0.68 0.0 0 1 15.10 43.19
  Q 16.25 41.44 18.96 42.23
  A 0.41 0.41 0.0 0 1 19.18 42.86
  Z"
/>
<path fill="#ffffff" d="
  M 26.43 47.01
  Q 28.03 47.84 31.31 48.02
  A 2.03 1.85 10.1 0 1 33.19 50.47
  Q 32.99 51.06 31.52 51.70
  A 0.33 0.33 0.0 0 1 31.07 51.31
  Q 31.31 50.43 30.70 49.98
  C 29.05 48.75 27.43 49.43 26.11 47.36
  A 0.25 0.24 -2.8 0 1 26.43 47.01
  Z"
/>
</svg>
