<?xml version="1.0" encoding="UTF-8" standalone="no"?>
<!DOCTYPE svg PUBLIC "-//W3C//DTD SVG 1.1//EN" "http://www.w3.org/Graphics/SVG/1.1/DTD/svg11.dtd">
<svg xmlns="http://www.w3.org/2000/svg" version="1.1" viewBox="0.00 0.00 66.00 88.00">
<g stroke-width="2.00" fill="none" stroke-linecap="butt">
<path stroke="#353846" vector-effect="non-scaling-stroke" d="
  M 33.43 86.59
  C 34.16 86.59 33.56 86.65 33.78 86.44
  Q 47.32 73.98 56.39 58.67
  C 65.45 43.39 68.74 24.32 54.76 10.98
  C 49.09 5.57 41.54 2.55 33.51 2.55
  C 25.48 2.54 17.92 5.54 12.24 10.94
  C -1.76 24.25 1.49 43.33 10.52 58.63
  Q 19.56 73.95 33.08 86.44
  C 33.30 86.65 32.70 86.59 33.43 86.59"
/>
<path stroke="#a3a4ae" vector-effect="non-scaling-stroke" d="
  M 36.49 20.14
  Q 36.73 20.30 37.29 20.19
  Q 38.72 19.95 38.76 18.28
  A 2.33 2.15 -81.0 0 0 37.25 16.01
  C 34.07 15.02 31.81 16.93 32.72 20.05
  C 33.59 23.05 36.39 23.58 37.40 25.94
  A 0.24 0.24 0.0 0 0 37.87 25.88
  C 38.20 23.15 36.89 22.16 34.87 20.56
  A 2.25 2.19 -58.8 0 1 34.26 17.90
  Q 34.67 17.00 36.35 17.10
  A 1.24 1.22 24.3 0 1 37.17 19.20
  Q 37.11 19.26 36.59 19.43
  A 0.40 0.39 -37.7 0 0 36.49 20.14"
/>
<path stroke="#a3a4ae" vector-effect="non-scaling-stroke" d="
  M 43.45 24.07
  A 0.40 0.40 0.0 0 0 43.79 23.43
  Q 43.46 22.99 43.44 22.90
  A 1.25 1.22 11.4 0 1 45.35 21.66
  Q 46.78 22.57 46.59 23.54
  A 2.27 2.20 -85.4 0 1 44.52 25.36
  C 41.94 25.48 40.28 25.52 38.95 27.94
  A 0.25 0.24 -1.3 0 0 39.30 28.27
  C 41.51 26.93 44.10 28.15 46.58 26.20
  C 49.16 24.20 48.43 21.31 45.25 20.25
  A 2.34 2.17 -63.3 0 0 42.69 21.21
  Q 41.74 22.60 42.77 23.64
  Q 43.16 24.05 43.45 24.07"
/>
<path stroke="#a3a4ae" vector-effect="non-scaling-stroke" d="
  M 31.53 37.92
  L 31.53 36.68
  A 0.77 0.75 15.0 0 0 31.14 36.02
  L 29.20 34.89
  A 1.22 1.17 89.3 0 1 28.72 34.40
  Q 27.81 32.67 24.68 26.12
  Q 23.46 23.56 21.67 22.19
  A 0.85 0.85 0.0 0 0 20.30 22.84
  Q 20.23 24.89 21.43 26.67
  Q 26.87 34.73 27.37 35.65
  A 1.47 1.44 -50.7 0 1 27.47 36.76
  L 27.16 37.76
  A 0.41 0.41 0.0 0 0 27.55 38.29
  L 31.16 38.29
  A 0.37 0.37 0.0 0 0 31.53 37.92"
/>
<path stroke="#a3a4ae" vector-effect="non-scaling-stroke" d="
  M 34.59 28.71
  Q 34.86 28.63 35.14 28.13
  Q 35.87 26.87 34.61 25.76
  A 2.34 2.16 48.9 0 0 31.89 25.47
  C 29.08 27.29 29.10 30.26 32.09 31.56
  C 34.97 32.82 37.18 31.00 39.65 31.74
  A 0.24 0.24 0.0 0 0 39.90 31.34
  C 38.01 29.33 36.40 29.70 33.87 30.23
  A 2.26 2.20 71.0 0 1 31.42 28.99
  Q 30.99 28.10 32.15 26.86
  A 1.25 1.22 -25.9 0 1 34.30 27.58
  Q 34.31 27.67 34.10 28.18
  A 0.40 0.40 0.0 0 0 34.59 28.71"
/>
<path stroke="#a3a4ae" vector-effect="non-scaling-stroke" d="
  M 34.15 38.43
  Q 37.52 38.47 41.77 37.70
  A 1.66 1.37 68.8 0 0 42.54 35.36
  C 41.64 33.70 38.07 34.53 36.98 34.97
  A 1.11 1.09 -3.1 0 0 36.34 35.67
  Q 35.95 36.93 34.18 37.06
  A 0.49 0.49 0.0 0 0 33.72 37.55
  L 33.72 38.00
  A 0.43 0.43 0.0 0 0 34.15 38.43"
/>
<path stroke="#a3a4ae" vector-effect="non-scaling-stroke" d="
  M 44.87 37.04
  Q 45.07 38.52 45.32 38.90
  Q 45.53 39.23 43.22 39.71
  Q 32.03 42.04 21.66 39.32
  A 0.77 0.77 0.0 0 1 21.86 37.80
  L 24.22 37.80
  A 0.86 0.85 0.0 0 0 25.08 36.95
  L 25.08 36.37
  A 1.04 1.03 -4.3 0 0 23.89 35.35
  Q 20.48 35.85 18.81 37.53
  A 1.66 1.65 66.2 0 0 18.33 38.79
  Q 18.88 48.37 27.29 51.98
  A 3.08 3.02 56.4 0 0 28.52 52.24
  L 38.49 52.24
  A 1.79 1.78 -57.8 0 0 39.27 52.06
  Q 47.65 48.19 48.18 38.86
  A 2.03 2.02 16.9 0 0 47.17 36.98
  L 45.98 36.29
  A 0.75 0.75 0.0 0 0 44.87 37.04"
/>
</g>
<path fill="#232630" d="
  M 33.78 88.00
  L 33.03 88.00
  C 16.75 73.19 -6.45 44.09 4.10 20.33
  Q 7.99 11.57 16.25 6.28
  C 27.90 -1.18 44.65 -0.30 55.22 9.71
  Q 68.51 22.27 64.57 41.40
  C 60.95 58.93 46.81 76.21 33.78 88.00
  Z
  M 33.43 86.59
  C 34.16 86.59 33.56 86.65 33.78 86.44
  Q 47.32 73.98 56.39 58.67
  C 65.45 43.39 68.74 24.32 54.76 10.98
  C 49.09 5.57 41.54 2.55 33.51 2.55
  C 25.48 2.54 17.92 5.54 12.24 10.94
  C -1.76 24.25 1.49 43.33 10.52 58.63
  Q 19.56 73.95 33.08 86.44
  C 33.30 86.65 32.70 86.59 33.43 86.59
  Z"
/>
<path fill="#46495c" d="
  M 33.51 2.55
  C 41.54 2.55 49.09 5.57 54.76 10.98
  C 68.74 24.32 65.45 43.39 56.39 58.67
  Q 47.32 73.98 33.78 86.44
  C 33.56 86.65 34.16 86.59 33.43 86.59
  C 32.70 86.59 33.30 86.65 33.08 86.44
  Q 19.56 73.95 10.52 58.63
  C 1.49 43.33 -1.76 24.25 12.24 10.94
  C 17.92 5.54 25.48 2.54 33.51 2.55
  Z
  M 36.49 20.14
  Q 36.73 20.30 37.29 20.19
  Q 38.72 19.95 38.76 18.28
  A 2.33 2.15 -81.0 0 0 37.25 16.01
  C 34.07 15.02 31.81 16.93 32.72 20.05
  C 33.59 23.05 36.39 23.58 37.40 25.94
  A 0.24 0.24 0.0 0 0 37.87 25.88
  C 38.20 23.15 36.89 22.16 34.87 20.56
  A 2.25 2.19 -58.8 0 1 34.26 17.90
  Q 34.67 17.00 36.35 17.10
  A 1.24 1.22 24.3 0 1 37.17 19.20
  Q 37.11 19.26 36.59 19.43
  A 0.40 0.39 -37.7 0 0 36.49 20.14
  Z
  M 43.45 24.07
  A 0.40 0.40 0.0 0 0 43.79 23.43
  Q 43.46 22.99 43.44 22.90
  A 1.25 1.22 11.4 0 1 45.35 21.66
  Q 46.78 22.57 46.59 23.54
  A 2.27 2.20 -85.4 0 1 44.52 25.36
  C 41.94 25.48 40.28 25.52 38.95 27.94
  A 0.25 0.24 -1.3 0 0 39.30 28.27
  C 41.51 26.93 44.10 28.15 46.58 26.20
  C 49.16 24.20 48.43 21.31 45.25 20.25
  A 2.34 2.17 -63.3 0 0 42.69 21.21
  Q 41.74 22.60 42.77 23.64
  Q 43.16 24.05 43.45 24.07
  Z
  M 31.53 37.92
  L 31.53 36.68
  A 0.77 0.75 15.0 0 0 31.14 36.02
  L 29.20 34.89
  A 1.22 1.17 89.3 0 1 28.72 34.40
  Q 27.81 32.67 24.68 26.12
  Q 23.46 23.56 21.67 22.19
  A 0.85 0.85 0.0 0 0 20.30 22.84
  Q 20.23 24.89 21.43 26.67
  Q 26.87 34.73 27.37 35.65
  A 1.47 1.44 -50.7 0 1 27.47 36.76
  L 27.16 37.76
  A 0.41 0.41 0.0 0 0 27.55 38.29
  L 31.16 38.29
  A 0.37 0.37 0.0 0 0 31.53 37.92
  Z
  M 34.59 28.71
  Q 34.86 28.63 35.14 28.13
  Q 35.87 26.87 34.61 25.76
  A 2.34 2.16 48.9 0 0 31.89 25.47
  C 29.08 27.29 29.10 30.26 32.09 31.56
  C 34.97 32.82 37.18 31.00 39.65 31.74
  A 0.24 0.24 0.0 0 0 39.90 31.34
  C 38.01 29.33 36.40 29.70 33.87 30.23
  A 2.26 2.20 71.0 0 1 31.42 28.99
  Q 30.99 28.10 32.15 26.86
  A 1.25 1.22 -25.9 0 1 34.30 27.58
  Q 34.31 27.67 34.10 28.18
  A 0.40 0.40 0.0 0 0 34.59 28.71
  Z
  M 34.15 38.43
  Q 37.52 38.47 41.77 37.70
  A 1.66 1.37 68.8 0 0 42.54 35.36
  C 41.64 33.70 38.07 34.53 36.98 34.97
  A 1.11 1.09 -3.1 0 0 36.34 35.67
  Q 35.95 36.93 34.18 37.06
  A 0.49 0.49 0.0 0 0 33.72 37.55
  L 33.72 38.00
  A 0.43 0.43 0.0 0 0 34.15 38.43
  Z
  M 44.87 37.04
  Q 45.07 38.52 45.32 38.90
  Q 45.53 39.23 43.22 39.71
  Q 32.03 42.04 21.66 39.32
  A 0.77 0.77 0.0 0 1 21.86 37.80
  L 24.22 37.80
  A 0.86 0.85 0.0 0 0 25.08 36.95
  L 25.08 36.37
  A 1.04 1.03 -4.3 0 0 23.89 35.35
  Q 20.48 35.85 18.81 37.53
  A 1.66 1.65 66.2 0 0 18.33 38.79
  Q 18.88 48.37 27.29 51.98
  A 3.08 3.02 56.4 0 0 28.52 52.24
  L 38.49 52.24
  A 1.79 1.78 -57.8 0 0 39.27 52.06
  Q 47.65 48.19 48.18 38.86
  A 2.03 2.02 16.9 0 0 47.17 36.98
  L 45.98 36.29
  A 0.75 0.75 0.0 0 0 44.87 37.04
  Z"
/>
<path fill="#ffffff" d="
  M 36.49 20.14
  A 0.40 0.39 -37.7 0 1 36.59 19.43
  Q 37.11 19.26 37.17 19.20
  A 1.24 1.22 24.3 0 0 36.35 17.10
  Q 34.67 17.00 34.26 17.90
  A 2.25 2.19 -58.8 0 0 34.87 20.56
  C 36.89 22.16 38.20 23.15 37.87 25.88
  A 0.24 0.24 0.0 0 1 37.40 25.94
  C 36.39 23.58 33.59 23.05 32.72 20.05
  C 31.81 16.93 34.07 15.02 37.25 16.01
  A 2.33 2.15 -81.0 0 1 38.76 18.28
  Q 38.72 19.95 37.29 20.19
  Q 36.73 20.30 36.49 20.14
  Z"
/>
<path fill="#ffffff" d="
  M 43.45 24.07
  Q 43.16 24.05 42.77 23.64
  Q 41.74 22.60 42.69 21.21
  A 2.34 2.17 -63.3 0 1 45.25 20.25
  C 48.43 21.31 49.16 24.20 46.58 26.20
  C 44.10 28.15 41.51 26.93 39.30 28.27
  A 0.25 0.24 -1.3 0 1 38.95 27.94
  C 40.28 25.52 41.94 25.48 44.52 25.36
  A 2.27 2.20 -85.4 0 0 46.59 23.54
  Q 46.78 22.57 45.35 21.66
  A 1.25 1.22 11.4 0 0 43.44 22.90
  Q 43.46 22.99 43.79 23.43
  A 0.40 0.40 0.0 0 1 43.45 24.07
  Z"
/>
<path fill="#ffffff" d="
  M 31.53 37.92
  A 0.37 0.37 0.0 0 1 31.16 38.29
  L 27.55 38.29
  A 0.41 0.41 0.0 0 1 27.16 37.76
  L 27.47 36.76
  A 1.47 1.44 -50.7 0 0 27.37 35.65
  Q 26.87 34.73 21.43 26.67
  Q 20.23 24.89 20.30 22.84
  A 0.85 0.85 0.0 0 1 21.67 22.19
  Q 23.46 23.56 24.68 26.12
  Q 27.81 32.67 28.72 34.40
  A 1.22 1.17 89.3 0 0 29.20 34.89
  L 31.14 36.02
  A 0.77 0.75 15.0 0 1 31.53 36.68
  L 31.53 37.92
  Z"
/>
<path fill="#ffffff" d="
  M 34.10 28.18
  Q 34.31 27.67 34.30 27.58
  A 1.25 1.22 -25.9 0 0 32.15 26.86
  Q 30.99 28.10 31.42 28.99
  A 2.26 2.20 71.0 0 0 33.87 30.23
  C 36.40 29.70 38.01 29.33 39.90 31.34
  A 0.24 0.24 0.0 0 1 39.65 31.74
  C 37.18 31.00 34.97 32.82 32.09 31.56
  C 29.10 30.26 29.08 27.29 31.89 25.47
  A 2.34 2.16 48.9 0 1 34.61 25.76
  Q 35.87 26.87 35.14 28.13
  Q 34.86 28.63 34.59 28.71
  A 0.40 0.40 0.0 0 1 34.10 28.18
  Z"
/>
<path fill="#ffffff" d="
  M 34.15 38.43
  A 0.43 0.43 0.0 0 1 33.72 38.00
  L 33.72 37.55
  A 0.49 0.49 0.0 0 1 34.18 37.06
  Q 35.95 36.93 36.34 35.67
  A 1.11 1.09 -3.1 0 1 36.98 34.97
  C 38.07 34.53 41.64 33.70 42.54 35.36
  A 1.66 1.37 68.8 0 1 41.77 37.70
  Q 37.52 38.47 34.15 38.43
  Z"
/>
<path fill="#ffffff" d="
  M 44.87 37.04
  A 0.75 0.75 0.0 0 1 45.98 36.29
  L 47.17 36.98
  A 2.03 2.02 16.9 0 1 48.18 38.86
  Q 47.65 48.19 39.27 52.06
  A 1.79 1.78 -57.8 0 1 38.49 52.24
  L 28.52 52.24
  A 3.08 3.02 56.4 0 1 27.29 51.98
  Q 18.88 48.37 18.33 38.79
  A 1.66 1.65 66.2 0 1 18.81 37.53
  Q 20.48 35.85 23.89 35.35
  A 1.04 1.03 -4.3 0 1 25.08 36.37
  L 25.08 36.95
  A 0.86 0.85 0.0 0 1 24.22 37.80
  L 21.86 37.80
  A 0.77 0.77 0.0 0 0 21.66 39.32
  Q 32.03 42.04 43.22 39.71
  Q 45.53 39.23 45.32 38.90
  Q 45.07 38.52 44.87 37.04
  Z"
/>
</svg>
