<?xml version="1.0" encoding="UTF-8" standalone="no"?>
<!DOCTYPE svg PUBLIC "-//W3C//DTD SVG 1.1//EN" "http://www.w3.org/Graphics/SVG/1.1/DTD/svg11.dtd">
<svg xmlns="http://www.w3.org/2000/svg" version="1.1" viewBox="0.00 0.00 66.00 88.00">
<g stroke-width="2.00" fill="none" stroke-linecap="butt">
<path stroke="#80242a" vector-effect="non-scaling-stroke" d="
  M 33.41 86.68
  Q 33.52 86.68 33.61 86.66
  Q 33.70 86.65 33.78 86.57
  Q 47.32 74.07 56.47 58.47
  C 64.08 45.50 68.37 28.59 58.62 15.36
  Q 49.85 3.46 34.75 2.54
  Q 33.55 2.46 33.52 2.46
  Q 33.49 2.46 32.30 2.53
  Q 17.19 3.42 8.39 15.29
  C -1.39 28.50 2.85 45.42 10.43 58.41
  Q 19.54 74.03 33.05 86.57
  Q 33.13 86.65 33.21 86.66
  Q 33.31 86.68 33.41 86.68"
/>
<path stroke="#d4989c" vector-effect="non-scaling-stroke" d="
  M 22.83 34.56
  Q 23.26 34.95 23.73 34.24
  Q 24.37 33.30 23.79 32.46
  A 0.31 0.31 0.0 0 0 23.25 32.52
  Q 22.88 33.43 22.83 34.56"
/>
<path stroke="#d4989c" vector-effect="non-scaling-stroke" d="
  M 22.83 34.56
  Q 22.03 34.78 21.92 34.27
  Q 21.53 32.38 23.04 31.34
  A 0.64 0.64 0.0 0 1 23.91 31.48
  C 25.77 33.86 24.50 35.02 23.05 37.57
  A 0.04 0.03 -66.1 0 0 23.06 37.62
  L 23.35 37.79
  A 0.36 0.36 0.0 0 0 23.84 37.66
  L 25.81 34.25
  A 0.33 0.33 0.0 0 1 26.43 34.44
  Q 26.27 37.01 23.64 39.07
  A 0.07 0.06 61.5 0 0 23.62 39.16
  L 23.78 39.44
  A 0.25 0.24 -36.4 0 0 24.16 39.49
  Q 26.40 37.44 27.11 37.29
  Q 27.29 37.26 29.65 38.53
  Q 31.22 39.37 31.36 41.96
  Q 31.64 47.33 32.94 51.44
  A 0.38 0.38 0.0 0 0 33.68 51.39
  L 35.47 40.55
  A 2.84 2.84 0.0 0 1 36.85 38.56
  L 38.86 37.40
  A 0.96 0.95 50.8 0 1 39.98 37.52
  Q 41.51 38.88 41.73 38.95
  A 0.26 0.25 82.5 0 0 42.02 38.57
  C 41.35 37.50 39.35 35.71 40.51 34.08
  A 0.28 0.28 0.0 0 1 41.02 34.22
  Q 41.18 36.19 42.67 37.31
  A 0.20 0.20 0.0 0 0 42.97 37.07
  L 41.22 33.04
  A 0.35 0.33 43.4 0 1 41.21 32.86
  L 41.35 32.38
  A 0.29 0.28 61.2 0 1 41.74 32.50
  Q 43.03 34.85 44.26 36.05
  A 0.18 0.18 0.0 0 0 44.54 35.84
  Q 42.78 32.57 43.05 31.34
  A 0.25 0.25 0.0 0 1 43.51 31.27
  L 45.25 34.29
  A 0.07 0.07 0.0 0 0 45.38 34.24
  L 45.05 30.26
  A 0.60 0.60 0.0 0 1 46.12 29.83
  C 48.24 32.51 47.54 35.20 45.95 38.36
  Q 43.57 43.10 44.51 49.55
  A 0.04 0.04 0.0 0 0 44.59 49.55
  C 44.91 46.93 46.29 37.72 50.83 43.18
  A 0.30 0.30 0.0 0 0 51.35 43.04
  C 52.88 34.34 50.36 24.53 42.76 19.31
  A 0.25 0.25 0.0 0 0 42.38 19.61
  Q 45.32 27.36 38.30 30.58
  A 0.47 0.47 0.0 0 1 37.65 30.01
  Q 38.90 25.98 36.37 23.54
  A 0.29 0.29 0.0 0 1 36.63 23.05
  Q 38.75 23.49 40.09 25.03
  A 0.31 0.31 0.0 0 0 40.60 24.69
  Q 39.40 22.30 37.33 21.10
  A 0.49 0.49 0.0 0 1 37.42 20.22
  Q 38.24 19.94 39.21 19.99
  A 0.16 0.15 -5.5 0 0 39.37 19.80
  L 39.21 19.20
  A 0.06 0.06 0.0 0 0 39.15 19.15
  Q 35.70 18.71 30.42 17.39
  Q 28.79 16.98 27.24 15.88
  A 0.26 0.26 0.0 0 0 26.86 16.21
  Q 27.70 17.77 28.80 18.35
  C 30.86 19.42 31.40 20.49 33.44 21.96
  A 1.10 1.03 57.9 0 1 33.06 23.91
  Q 32.53 23.97 32.35 23.67
  A 0.28 0.28 0.0 0 1 32.49 23.26
  Q 32.80 23.15 32.88 23.03
  A 0.88 0.78 2.9 0 0 31.74 21.91
  Q 28.31 23.42 25.68 21.84
  A 0.22 0.22 0.0 0 0 25.37 22.12
  Q 26.07 23.55 27.41 23.63
  Q 30.03 23.77 33.02 25.32
  A 0.69 0.69 0.0 0 1 33.37 26.06
  Q 32.70 29.16 31.46 30.97
  A 0.85 0.85 0.0 0 1 30.57 31.31
  Q 20.83 28.98 24.14 19.59
  A 0.24 0.24 0.0 0 0 23.78 19.31
  C 15.98 24.66 13.57 34.35 15.16 43.33
  A 0.24 0.24 0.0 0 0 15.62 43.38
  C 16.18 41.95 17.93 40.90 19.31 41.95
  C 21.03 43.25 21.19 45.87 21.30 48.11
  A 0.19 0.19 0.0 0 0 21.67 48.14
  Q 22.26 45.03 21.73 41.70
  A 4.49 4.37 29.3 0 0 21.40 40.58
  C 19.57 36.50 17.38 32.59 20.71 29.59
  A 0.49 0.48 77.3 0 1 21.50 30.09
  Q 20.67 32.92 22.28 35.75
  A 0.30 0.30 0.0 0 0 22.82 35.68
  Q 22.96 35.24 22.83 34.56"
/>
<path stroke="#d4989c" vector-effect="non-scaling-stroke" d="
  M 43.71 38.35
  Q 43.85 38.11 43.71 37.73
  A 0.31 0.31 0.0 0 0 43.11 37.83
  Q 43.11 38.13 43.13 38.24
  A 0.31 0.31 0.0 0 0 43.71 38.35"
/>
<path stroke="#d4989c" vector-effect="non-scaling-stroke" d="
  M 42.78 39.12
  Q 42.68 39.16 42.52 39.28
  A 0.23 0.22 10.4 0 0 42.79 39.64
  Q 42.93 39.57 42.91 39.20
  A 0.09 0.09 0.0 0 0 42.78 39.12"
/>
<path stroke="#d4989c" vector-effect="non-scaling-stroke" d="
  M 32.9364 19.3828
  A 1.29 0.65 -163.0 0 0 33.9800 20.3816
  A 1.29 0.65 -163.0 0 0 35.4036 20.1372
  A 1.29 0.65 -163.0 0 0 34.3600 19.1384
  A 1.29 0.65 -163.0 0 0 32.9364 19.3828"
/>
<path stroke="#d4989c" vector-effect="non-scaling-stroke" d="
  M 33.39 40.40
  Q 33.44 39.59 33.46 38.95
  Q 33.47 38.40 35.44 33.57
  A 3.52 3.38 58.5 0 0 35.71 32.33
  L 35.86 28.87
  A 0.21 0.21 0.0 0 0 35.46 28.78
  C 33.82 32.69 31.42 37.22 33.05 40.47
  A 0.18 0.18 0.0 0 0 33.39 40.40"
/>
</g>
<path fill="#58171b" d="
  M 33.81 88.00
  L 33.04 88.00
  C 22.21 78.21 11.92 65.54 5.75 51.76
  Q 2.15 43.71 1.56 34.96
  C 0.48 19.06 11.03 5.92 26.41 2.11
  C 37.18 -0.56 49.61 3.29 57.18 11.68
  C 79.39 36.30 52.35 71.10 33.81 88.00
  Z
  M 33.41 86.68
  Q 33.52 86.68 33.61 86.66
  Q 33.70 86.65 33.78 86.57
  Q 47.32 74.07 56.47 58.47
  C 64.08 45.50 68.37 28.59 58.62 15.36
  Q 49.85 3.46 34.75 2.54
  Q 33.55 2.46 33.52 2.46
  Q 33.49 2.46 32.30 2.53
  Q 17.19 3.42 8.39 15.29
  C -1.39 28.50 2.85 45.42 10.43 58.41
  Q 19.54 74.03 33.05 86.57
  Q 33.13 86.65 33.21 86.66
  Q 33.31 86.68 33.41 86.68
  Z"
/>
<path fill="#a83139" d="
  M 33.52 2.46
  Q 33.55 2.46 34.75 2.54
  Q 49.85 3.46 58.62 15.36
  C 68.37 28.59 64.08 45.50 56.47 58.47
  Q 47.32 74.07 33.78 86.57
  Q 33.70 86.65 33.61 86.66
  Q 33.52 86.68 33.41 86.68
  Q 33.31 86.68 33.21 86.66
  Q 33.13 86.65 33.05 86.57
  Q 19.54 74.03 10.43 58.41
  C 2.85 45.42 -1.39 28.50 8.39 15.29
  Q 17.19 3.42 32.30 2.53
  Q 33.49 2.46 33.52 2.46
  Z
  M 22.83 34.56
  Q 23.26 34.95 23.73 34.24
  Q 24.37 33.30 23.79 32.46
  A 0.31 0.31 0.0 0 0 23.25 32.52
  Q 22.88 33.43 22.83 34.56
  Q 22.03 34.78 21.92 34.27
  Q 21.53 32.38 23.04 31.34
  A 0.64 0.64 0.0 0 1 23.91 31.48
  C 25.77 33.86 24.50 35.02 23.05 37.57
  A 0.04 0.03 -66.1 0 0 23.06 37.62
  L 23.35 37.79
  A 0.36 0.36 0.0 0 0 23.84 37.66
  L 25.81 34.25
  A 0.33 0.33 0.0 0 1 26.43 34.44
  Q 26.27 37.01 23.64 39.07
  A 0.07 0.06 61.5 0 0 23.62 39.16
  L 23.78 39.44
  A 0.25 0.24 -36.4 0 0 24.16 39.49
  Q 26.40 37.44 27.11 37.29
  Q 27.29 37.26 29.65 38.53
  Q 31.22 39.37 31.36 41.96
  Q 31.64 47.33 32.94 51.44
  A 0.38 0.38 0.0 0 0 33.68 51.39
  L 35.47 40.55
  A 2.84 2.84 0.0 0 1 36.85 38.56
  L 38.86 37.40
  A 0.96 0.95 50.8 0 1 39.98 37.52
  Q 41.51 38.88 41.73 38.95
  A 0.26 0.25 82.5 0 0 42.02 38.57
  C 41.35 37.50 39.35 35.71 40.51 34.08
  A 0.28 0.28 0.0 0 1 41.02 34.22
  Q 41.18 36.19 42.67 37.31
  A 0.20 0.20 0.0 0 0 42.97 37.07
  L 41.22 33.04
  A 0.35 0.33 43.4 0 1 41.21 32.86
  L 41.35 32.38
  A 0.29 0.28 61.2 0 1 41.74 32.50
  Q 43.03 34.85 44.26 36.05
  A 0.18 0.18 0.0 0 0 44.54 35.84
  Q 42.78 32.57 43.05 31.34
  A 0.25 0.25 0.0 0 1 43.51 31.27
  L 45.25 34.29
  A 0.07 0.07 0.0 0 0 45.38 34.24
  L 45.05 30.26
  A 0.60 0.60 0.0 0 1 46.12 29.83
  C 48.24 32.51 47.54 35.20 45.95 38.36
  Q 43.57 43.10 44.51 49.55
  A 0.04 0.04 0.0 0 0 44.59 49.55
  C 44.91 46.93 46.29 37.72 50.83 43.18
  A 0.30 0.30 0.0 0 0 51.35 43.04
  C 52.88 34.34 50.36 24.53 42.76 19.31
  A 0.25 0.25 0.0 0 0 42.38 19.61
  Q 45.32 27.36 38.30 30.58
  A 0.47 0.47 0.0 0 1 37.65 30.01
  Q 38.90 25.98 36.37 23.54
  A 0.29 0.29 0.0 0 1 36.63 23.05
  Q 38.75 23.49 40.09 25.03
  A 0.31 0.31 0.0 0 0 40.60 24.69
  Q 39.40 22.30 37.33 21.10
  A 0.49 0.49 0.0 0 1 37.42 20.22
  Q 38.24 19.94 39.21 19.99
  A 0.16 0.15 -5.5 0 0 39.37 19.80
  L 39.21 19.20
  A 0.06 0.06 0.0 0 0 39.15 19.15
  Q 35.70 18.71 30.42 17.39
  Q 28.79 16.98 27.24 15.88
  A 0.26 0.26 0.0 0 0 26.86 16.21
  Q 27.70 17.77 28.80 18.35
  C 30.86 19.42 31.40 20.49 33.44 21.96
  A 1.10 1.03 57.9 0 1 33.06 23.91
  Q 32.53 23.97 32.35 23.67
  A 0.28 0.28 0.0 0 1 32.49 23.26
  Q 32.80 23.15 32.88 23.03
  A 0.88 0.78 2.9 0 0 31.74 21.91
  Q 28.31 23.42 25.68 21.84
  A 0.22 0.22 0.0 0 0 25.37 22.12
  Q 26.07 23.55 27.41 23.63
  Q 30.03 23.77 33.02 25.32
  A 0.69 0.69 0.0 0 1 33.37 26.06
  Q 32.70 29.16 31.46 30.97
  A 0.85 0.85 0.0 0 1 30.57 31.31
  Q 20.83 28.98 24.14 19.59
  A 0.24 0.24 0.0 0 0 23.78 19.31
  C 15.98 24.66 13.57 34.35 15.16 43.33
  A 0.24 0.24 0.0 0 0 15.62 43.38
  C 16.18 41.95 17.93 40.90 19.31 41.95
  C 21.03 43.25 21.19 45.87 21.30 48.11
  A 0.19 0.19 0.0 0 0 21.67 48.14
  Q 22.26 45.03 21.73 41.70
  A 4.49 4.37 29.3 0 0 21.40 40.58
  C 19.57 36.50 17.38 32.59 20.71 29.59
  A 0.49 0.48 77.3 0 1 21.50 30.09
  Q 20.67 32.92 22.28 35.75
  A 0.30 0.30 0.0 0 0 22.82 35.68
  Q 22.96 35.24 22.83 34.56
  Z
  M 43.71 38.35
  Q 43.85 38.11 43.71 37.73
  A 0.31 0.31 0.0 0 0 43.11 37.83
  Q 43.11 38.13 43.13 38.24
  A 0.31 0.31 0.0 0 0 43.71 38.35
  Z
  M 42.78 39.12
  Q 42.68 39.16 42.52 39.28
  A 0.23 0.22 10.4 0 0 42.79 39.64
  Q 42.93 39.57 42.91 39.20
  A 0.09 0.09 0.0 0 0 42.78 39.12
  Z"
/>
<path fill="#ffffff" d="
  M 22.83 34.56
  Q 22.96 35.24 22.82 35.68
  A 0.30 0.30 0.0 0 1 22.28 35.75
  Q 20.67 32.92 21.50 30.09
  A 0.49 0.48 77.3 0 0 20.71 29.59
  C 17.38 32.59 19.57 36.50 21.40 40.58
  A 4.49 4.37 29.3 0 1 21.73 41.70
  Q 22.26 45.03 21.67 48.14
  A 0.19 0.19 0.0 0 1 21.30 48.11
  C 21.19 45.87 21.03 43.25 19.31 41.95
  C 17.93 40.90 16.18 41.95 15.62 43.38
  A 0.24 0.24 0.0 0 1 15.16 43.33
  C 13.57 34.35 15.98 24.66 23.78 19.31
  A 0.24 0.24 0.0 0 1 24.14 19.59
  Q 20.83 28.98 30.57 31.31
  A 0.85 0.85 0.0 0 0 31.46 30.97
  Q 32.70 29.16 33.37 26.06
  A 0.69 0.69 0.0 0 0 33.02 25.32
  Q 30.03 23.77 27.41 23.63
  Q 26.07 23.55 25.37 22.12
  A 0.22 0.22 0.0 0 1 25.68 21.84
  Q 28.31 23.42 31.74 21.91
  A 0.88 0.78 2.9 0 1 32.88 23.03
  Q 32.80 23.15 32.49 23.26
  A 0.28 0.28 0.0 0 0 32.35 23.67
  Q 32.53 23.97 33.06 23.91
  A 1.10 1.03 57.9 0 0 33.44 21.96
  C 31.40 20.49 30.86 19.42 28.80 18.35
  Q 27.70 17.77 26.86 16.21
  A 0.26 0.26 0.0 0 1 27.24 15.88
  Q 28.79 16.98 30.42 17.39
  Q 35.70 18.71 39.15 19.15
  A 0.06 0.06 0.0 0 1 39.21 19.20
  L 39.37 19.80
  A 0.16 0.15 -5.5 0 1 39.21 19.99
  Q 38.24 19.94 37.42 20.22
  A 0.49 0.49 0.0 0 0 37.33 21.10
  Q 39.40 22.30 40.60 24.69
  A 0.31 0.31 0.0 0 1 40.09 25.03
  Q 38.75 23.49 36.63 23.05
  A 0.29 0.29 0.0 0 0 36.37 23.54
  Q 38.90 25.98 37.65 30.01
  A 0.47 0.47 0.0 0 0 38.30 30.58
  Q 45.32 27.36 42.38 19.61
  A 0.25 0.25 0.0 0 1 42.76 19.31
  C 50.36 24.53 52.88 34.34 51.35 43.04
  A 0.30 0.30 0.0 0 1 50.83 43.18
  C 46.29 37.72 44.91 46.93 44.59 49.55
  A 0.04 0.04 0.0 0 1 44.51 49.55
  Q 43.57 43.10 45.95 38.36
  C 47.54 35.20 48.24 32.51 46.12 29.83
  A 0.60 0.60 0.0 0 0 45.05 30.26
  L 45.38 34.24
  A 0.07 0.07 0.0 0 1 45.25 34.29
  L 43.51 31.27
  A 0.25 0.25 0.0 0 0 43.05 31.34
  Q 42.78 32.57 44.54 35.84
  A 0.18 0.18 0.0 0 1 44.26 36.05
  Q 43.03 34.85 41.74 32.50
  A 0.29 0.28 61.2 0 0 41.35 32.38
  L 41.21 32.86
  A 0.35 0.33 43.4 0 0 41.22 33.04
  L 42.97 37.07
  A 0.20 0.20 0.0 0 1 42.67 37.31
  Q 41.18 36.19 41.02 34.22
  A 0.28 0.28 0.0 0 0 40.51 34.08
  C 39.35 35.71 41.35 37.50 42.02 38.57
  A 0.26 0.25 82.5 0 1 41.73 38.95
  Q 41.51 38.88 39.98 37.52
  A 0.96 0.95 50.8 0 0 38.86 37.40
  L 36.85 38.56
  A 2.84 2.84 0.0 0 0 35.47 40.55
  L 33.68 51.39
  A 0.38 0.38 0.0 0 1 32.94 51.44
  Q 31.64 47.33 31.36 41.96
  Q 31.22 39.37 29.65 38.53
  Q 27.29 37.26 27.11 37.29
  Q 26.40 37.44 24.16 39.49
  A 0.25 0.24 -36.4 0 1 23.78 39.44
  L 23.62 39.16
  A 0.07 0.06 61.5 0 1 23.64 39.07
  Q 26.27 37.01 26.43 34.44
  A 0.33 0.33 0.0 0 0 25.81 34.25
  L 23.84 37.66
  A 0.36 0.36 0.0 0 1 23.35 37.79
  L 23.06 37.62
  A 0.04 0.03 -66.1 0 1 23.05 37.57
  C 24.50 35.02 25.77 33.86 23.91 31.48
  A 0.64 0.64 0.0 0 0 23.04 31.34
  Q 21.53 32.38 21.92 34.27
  Q 22.03 34.78 22.83 34.56
  Z
  M 32.9364 19.3828
  A 1.29 0.65 -163.0 0 0 33.9800 20.3816
  A 1.29 0.65 -163.0 0 0 35.4036 20.1372
  A 1.29 0.65 -163.0 0 0 34.3600 19.1384
  A 1.29 0.65 -163.0 0 0 32.9364 19.3828
  Z
  M 33.39 40.40
  Q 33.44 39.59 33.46 38.95
  Q 33.47 38.40 35.44 33.57
  A 3.52 3.38 58.5 0 0 35.71 32.33
  L 35.86 28.87
  A 0.21 0.21 0.0 0 0 35.46 28.78
  C 33.82 32.69 31.42 37.22 33.05 40.47
  A 0.18 0.18 0.0 0 0 33.39 40.40
  Z"
/>
<ellipse fill="#a83139" cx="0.00" cy="0.00" transform="translate(34.17,19.76) rotate(-163.0)" rx="1.29" ry="0.65"/>
<path fill="#a83139" d="
  M 33.05 40.47
  C 31.42 37.22 33.82 32.69 35.46 28.78
  A 0.21 0.21 0.0 0 1 35.86 28.87
  L 35.71 32.33
  A 3.52 3.38 58.5 0 1 35.44 33.57
  Q 33.47 38.40 33.46 38.95
  Q 33.44 39.59 33.39 40.40
  A 0.18 0.18 0.0 0 1 33.05 40.47
  Z"
/>
<path fill="#ffffff" d="
  M 22.83 34.56
  Q 22.88 33.43 23.25 32.52
  A 0.31 0.31 0.0 0 1 23.79 32.46
  Q 24.37 33.30 23.73 34.24
  Q 23.26 34.95 22.83 34.56
  Z"
/>
<path fill="#ffffff" d="
  M 43.13 38.24
  Q 43.11 38.13 43.11 37.83
  A 0.31 0.31 0.0 0 1 43.71 37.73
  Q 43.85 38.11 43.71 38.35
  A 0.31 0.31 0.0 0 1 43.13 38.24
  Z"
/>
<path fill="#ffffff" d="
  M 42.91 39.20
  Q 42.93 39.57 42.79 39.64
  A 0.23 0.22 10.4 0 1 42.52 39.28
  Q 42.68 39.16 42.78 39.12
  A 0.09 0.09 0.0 0 1 42.91 39.20
  Z"
/>
</svg>
