<?xml version="1.0" encoding="UTF-8" standalone="no"?>
<!DOCTYPE svg PUBLIC "-//W3C//DTD SVG 1.1//EN" "http://www.w3.org/Graphics/SVG/1.1/DTD/svg11.dtd">
<svg xmlns="http://www.w3.org/2000/svg" version="1.1" viewBox="0.00 0.00 66.00 88.00">
<g stroke-width="2.00" fill="none" stroke-linecap="butt">
<path stroke="#6f562b" vector-effect="non-scaling-stroke" d="
  M 33.39 86.68
  Q 33.53 86.68 33.67 86.65
  A 0.05 0.03 -65.2 0 0 33.69 86.64
  Q 48.19 73.22 57.45 56.74
  C 65.47 42.47 68.03 24.87 56.06 12.22
  C 50.27 6.11 42.21 2.49 33.56 2.47
  C 24.92 2.45 16.84 6.04 11.03 12.13
  C -0.99 24.73 1.49 42.34 9.46 56.64
  Q 18.65 73.16 33.10 86.64
  A 0.05 0.03 65.4 0 0 33.12 86.65
  Q 33.25 86.68 33.39 86.68"
/>
<path stroke="#c9b99d" vector-effect="non-scaling-stroke" d="
  M 27.25 24.20
  A 0.33 0.33 0.0 0 0 27.71 23.93
  L 27.95 21.73
  A 0.40 0.39 28.8 0 1 28.65 21.53
  L 29.09 22.08
  A 0.36 0.35 50.7 0 0 29.59 22.14
  L 31.16 20.88
  A 0.76 0.75 51.2 0 0 31.27 19.82
  L 28.41 16.26
  A 0.80 0.79 -49.1 0 0 27.10 16.36
  Q 25.37 19.31 24.63 22.84
  A 0.31 0.29 18.2 0 0 24.81 23.17
  L 27.25 24.20"
/>
<path stroke="#c9b99d" vector-effect="non-scaling-stroke" d="
  M 46.55 30.45
  L 35.33 29.27
  A 0.30 0.29 -75.9 0 1 35.09 28.86
  Q 36.96 24.60 37.50 19.74
  A 0.33 0.33 0.0 0 0 37.04 19.41
  Q 32.05 21.69 29.42 26.28
  A 0.28 0.27 18.3 0 0 29.63 26.69
  L 31.00 26.83
  A 0.84 0.84 0.0 0 0 31.74 26.53
  L 34.14 23.66
  A 0.33 0.33 0.0 0 1 34.70 24.00
  L 33.44 26.98
  A 1.16 1.15 -47.4 0 0 33.48 27.96
  Q 34.04 29.04 34.56 29.27
  A 0.42 0.39 5.5 0 1 34.79 29.53
  L 35.23 31.04
  A 0.62 0.61 81.8 0 0 35.82 31.49
  L 39.00 31.49
  A 0.28 0.28 0.0 0 1 39.14 32.01
  Q 38.17 32.54 36.41 32.60
  A 1.34 1.34 0.0 0 0 35.15 33.66
  L 35.10 33.85
  A 0.79 0.79 0.0 0 0 35.95 34.81
  Q 41.84 34.23 46.67 30.96
  A 0.28 0.28 0.0 0 0 46.55 30.45"
/>
<path stroke="#c9b99d" vector-effect="non-scaling-stroke" d="
  M 44.31 19.73
  L 40.39 20.30
  A 1.18 1.15 9.0 0 0 39.53 20.91
  Q 38.55 22.81 39.59 23.99
  A 0.51 0.49 40.1 0 1 39.65 24.58
  L 38.09 27.29
  A 0.14 0.13 15.0 0 0 38.21 27.49
  L 41.58 27.49
  A 0.34 0.32 10.2 0 0 41.89 27.29
  L 44.81 20.38
  A 0.47 0.47 0.0 0 0 44.31 19.73"
/>
<path stroke="#c9b99d" vector-effect="non-scaling-stroke" d="
  M 24.91 27.84
  Q 26.16 28.23 27.42 27.17
  A 0.36 0.36 0.0 0 0 27.32 26.56
  L 22.72 24.62
  A 0.51 0.51 0.0 0 0 22.01 25.14
  Q 22.37 28.66 23.78 31.33
  A 0.26 0.26 0.0 0 0 24.26 31.30
  Q 25.14 28.79 24.67 28.17
  A 0.22 0.21 -9.3 0 1 24.91 27.84"
/>
<path stroke="#c9b99d" vector-effect="non-scaling-stroke" d="
  M 33.34 32.34
  A 3.56 3.56 0.0 0 0 29.78 28.78
  A 3.56 3.56 0.0 0 0 26.22 32.34
  A 3.56 3.56 0.0 0 0 29.78 35.90
  A 3.56 3.56 0.0 0 0 33.34 32.34"
/>
<path stroke="#c9b99d" vector-effect="non-scaling-stroke" d="
  M 20.80 32.22
  Q 20.92 32.24 20.97 32.24
  A 0.59 0.58 -10.9 0 0 21.53 31.42
  L 20.71 29.60
  A 0.91 0.90 -20.1 0 0 19.64 29.11
  L 15.05 30.44
  A 0.56 0.56 0.0 0 0 14.77 31.32
  L 18.38 35.80
  A 0.55 0.55 0.0 0 0 19.16 35.88
  Q 21.08 34.31 20.30 32.99
  A 0.51 0.51 0.0 0 1 20.80 32.22"
/>
<path stroke="#c9b99d" vector-effect="non-scaling-stroke" d="
  M 19.84 42.13
  Q 23.37 41.34 26.28 39.25
  A 0.45 0.45 0.0 0 1 26.98 39.50
  Q 28.29 44.56 30.64 47.79
  A 0.42 0.42 0.0 0 0 31.34 47.77
  Q 34.37 42.93 33.67 37.18
  A 0.28 0.28 0.0 0 0 33.29 36.95
  L 32.09 37.47
  A 0.39 0.38 -9.1 0 0 31.85 37.79
  L 31.25 43.45
  A 0.43 0.43 0.0 0 1 30.41 43.52
  L 28.88 38.26
  A 0.63 0.62 4.2 0 0 28.52 37.85
  L 26.35 36.93
  A 0.74 0.74 0.0 0 0 25.57 37.06
  Q 23.85 38.56 22.90 38.70
  A 0.26 0.26 0.0 0 1 22.66 38.28
  L 24.90 35.56
  A 0.34 0.33 -39.8 0 0 24.94 35.18
  L 24.21 33.78
  A 0.20 0.20 0.0 0 0 23.90 33.72
  Q 20.25 36.88 19.33 41.64
  A 0.42 0.42 0.0 0 0 19.84 42.13"
/>
<path stroke="#c9b99d" vector-effect="non-scaling-stroke" d="
  M 46.63 33.63
  A 0.39 0.36 42.4 0 0 46.25 33.63
  L 42.97 35.71
  A 2.09 2.00 -63.7 0 1 42.20 35.99
  L 36.89 36.77
  A 1.29 1.28 -46.0 0 0 36.93 39.32
  Q 43.58 40.05 50.47 36.19
  A 0.19 0.19 0.0 0 0 50.47 35.85
  L 46.63 33.63"
/>
<path stroke="#c9b99d" vector-effect="non-scaling-stroke" d="
  M 27.26 47.94
  A 0.70 0.69 -27.8 0 0 27.49 47.22
  L 26.80 44.86
  A 0.43 0.43 0.0 0 0 26.11 44.64
  L 25.45 45.17
  A 0.25 0.25 0.0 0 1 25.04 44.95
  L 25.25 42.94
  A 0.22 0.21 -5.3 0 0 24.97 42.71
  L 22.46 43.44
  A 1.19 1.18 -7.7 0 0 21.59 44.58
  L 21.59 51.56
  A 0.45 0.45 0.0 0 0 22.32 51.91
  L 27.26 47.94"
/>
</g>
<path fill="#4b3a1c" d="
  M 33.79 88.00
  L 33.12 88.00
  Q 16.05 72.81 5.96 52.53
  Q 4.20 48.99 2.45 41.40
  Q 0.05 31.00 3.55 21.73
  C 8.05 9.81 19.50 1.81 32.30 1.37
  C 50.54 0.74 66.14 15.24 65.44 33.95
  Q 65.14 41.82 62.32 49.07
  C 56.58 63.83 45.47 77.42 33.79 88.00
  Z
  M 33.39 86.68
  Q 33.53 86.68 33.67 86.65
  A 0.05 0.03 -65.2 0 0 33.69 86.64
  Q 48.19 73.22 57.45 56.74
  C 65.47 42.47 68.03 24.87 56.06 12.22
  C 50.27 6.11 42.21 2.49 33.56 2.47
  C 24.92 2.45 16.84 6.04 11.03 12.13
  C -0.99 24.73 1.49 42.34 9.46 56.64
  Q 18.65 73.16 33.10 86.64
  A 0.05 0.03 65.4 0 0 33.12 86.65
  Q 33.25 86.68 33.39 86.68
  Z"
/>
<path fill="#92723a" d="
  M 33.56 2.47
  C 42.21 2.49 50.27 6.11 56.06 12.22
  C 68.03 24.87 65.47 42.47 57.45 56.74
  Q 48.19 73.22 33.69 86.64
  A 0.05 0.03 -65.2 0 1 33.67 86.65
  Q 33.53 86.68 33.39 86.68
  Q 33.25 86.68 33.12 86.65
  A 0.05 0.03 65.4 0 1 33.10 86.64
  Q 18.65 73.16 9.46 56.64
  C 1.49 42.34 -0.99 24.73 11.03 12.13
  C 16.84 6.04 24.92 2.45 33.56 2.47
  Z
  M 27.25 24.20
  A 0.33 0.33 0.0 0 0 27.71 23.93
  L 27.95 21.73
  A 0.40 0.39 28.8 0 1 28.65 21.53
  L 29.09 22.08
  A 0.36 0.35 50.7 0 0 29.59 22.14
  L 31.16 20.88
  A 0.76 0.75 51.2 0 0 31.27 19.82
  L 28.41 16.26
  A 0.80 0.79 -49.1 0 0 27.10 16.36
  Q 25.37 19.31 24.63 22.84
  A 0.31 0.29 18.2 0 0 24.81 23.17
  L 27.25 24.20
  Z
  M 46.55 30.45
  L 35.33 29.27
  A 0.30 0.29 -75.9 0 1 35.09 28.86
  Q 36.96 24.60 37.50 19.74
  A 0.33 0.33 0.0 0 0 37.04 19.41
  Q 32.05 21.69 29.42 26.28
  A 0.28 0.27 18.3 0 0 29.63 26.69
  L 31.00 26.83
  A 0.84 0.84 0.0 0 0 31.74 26.53
  L 34.14 23.66
  A 0.33 0.33 0.0 0 1 34.70 24.00
  L 33.44 26.98
  A 1.16 1.15 -47.4 0 0 33.48 27.96
  Q 34.04 29.04 34.56 29.27
  A 0.42 0.39 5.5 0 1 34.79 29.53
  L 35.23 31.04
  A 0.62 0.61 81.8 0 0 35.82 31.49
  L 39.00 31.49
  A 0.28 0.28 0.0 0 1 39.14 32.01
  Q 38.17 32.54 36.41 32.60
  A 1.34 1.34 0.0 0 0 35.15 33.66
  L 35.10 33.85
  A 0.79 0.79 0.0 0 0 35.95 34.81
  Q 41.84 34.23 46.67 30.96
  A 0.28 0.28 0.0 0 0 46.55 30.45
  Z
  M 44.31 19.73
  L 40.39 20.30
  A 1.18 1.15 9.0 0 0 39.53 20.91
  Q 38.55 22.81 39.59 23.99
  A 0.51 0.49 40.1 0 1 39.65 24.58
  L 38.09 27.29
  A 0.14 0.13 15.0 0 0 38.21 27.49
  L 41.58 27.49
  A 0.34 0.32 10.2 0 0 41.89 27.29
  L 44.81 20.38
  A 0.47 0.47 0.0 0 0 44.31 19.73
  Z
  M 24.91 27.84
  Q 26.16 28.23 27.42 27.17
  A 0.36 0.36 0.0 0 0 27.32 26.56
  L 22.72 24.62
  A 0.51 0.51 0.0 0 0 22.01 25.14
  Q 22.37 28.66 23.78 31.33
  A 0.26 0.26 0.0 0 0 24.26 31.30
  Q 25.14 28.79 24.67 28.17
  A 0.22 0.21 -9.3 0 1 24.91 27.84
  Z
  M 33.34 32.34
  A 3.56 3.56 0.0 0 0 29.78 28.78
  A 3.56 3.56 0.0 0 0 26.22 32.34
  A 3.56 3.56 0.0 0 0 29.78 35.90
  A 3.56 3.56 0.0 0 0 33.34 32.34
  Z
  M 20.80 32.22
  Q 20.92 32.24 20.97 32.24
  A 0.59 0.58 -10.9 0 0 21.53 31.42
  L 20.71 29.60
  A 0.91 0.90 -20.1 0 0 19.64 29.11
  L 15.05 30.44
  A 0.56 0.56 0.0 0 0 14.77 31.32
  L 18.38 35.80
  A 0.55 0.55 0.0 0 0 19.16 35.88
  Q 21.08 34.31 20.30 32.99
  A 0.51 0.51 0.0 0 1 20.80 32.22
  Z
  M 19.84 42.13
  Q 23.37 41.34 26.28 39.25
  A 0.45 0.45 0.0 0 1 26.98 39.50
  Q 28.29 44.56 30.64 47.79
  A 0.42 0.42 0.0 0 0 31.34 47.77
  Q 34.37 42.93 33.67 37.18
  A 0.28 0.28 0.0 0 0 33.29 36.95
  L 32.09 37.47
  A 0.39 0.38 -9.1 0 0 31.85 37.79
  L 31.25 43.45
  A 0.43 0.43 0.0 0 1 30.41 43.52
  L 28.88 38.26
  A 0.63 0.62 4.2 0 0 28.52 37.85
  L 26.35 36.93
  A 0.74 0.74 0.0 0 0 25.57 37.06
  Q 23.85 38.56 22.90 38.70
  A 0.26 0.26 0.0 0 1 22.66 38.28
  L 24.90 35.56
  A 0.34 0.33 -39.8 0 0 24.94 35.18
  L 24.21 33.78
  A 0.20 0.20 0.0 0 0 23.90 33.72
  Q 20.25 36.88 19.33 41.64
  A 0.42 0.42 0.0 0 0 19.84 42.13
  Z
  M 46.63 33.63
  A 0.39 0.36 42.4 0 0 46.25 33.63
  L 42.97 35.71
  A 2.09 2.00 -63.7 0 1 42.20 35.99
  L 36.89 36.77
  A 1.29 1.28 -46.0 0 0 36.93 39.32
  Q 43.58 40.05 50.47 36.19
  A 0.19 0.19 0.0 0 0 50.47 35.85
  L 46.63 33.63
  Z
  M 27.26 47.94
  A 0.70 0.69 -27.8 0 0 27.49 47.22
  L 26.80 44.86
  A 0.43 0.43 0.0 0 0 26.11 44.64
  L 25.45 45.17
  A 0.25 0.25 0.0 0 1 25.04 44.95
  L 25.25 42.94
  A 0.22 0.21 -5.3 0 0 24.97 42.71
  L 22.46 43.44
  A 1.19 1.18 -7.7 0 0 21.59 44.58
  L 21.59 51.56
  A 0.45 0.45 0.0 0 0 22.32 51.91
  L 27.26 47.94
  Z"
/>
<path fill="#ffffff" d="
  M 24.63 22.84
  Q 25.37 19.31 27.10 16.36
  A 0.80 0.79 -49.1 0 1 28.41 16.26
  L 31.27 19.82
  A 0.76 0.75 51.2 0 1 31.16 20.88
  L 29.59 22.14
  A 0.36 0.35 50.7 0 1 29.09 22.08
  L 28.65 21.53
  A 0.40 0.39 28.8 0 0 27.95 21.73
  L 27.71 23.93
  A 0.33 0.33 0.0 0 1 27.25 24.20
  L 24.81 23.17
  A 0.31 0.29 18.2 0 1 24.63 22.84
  Z"
/>
<path fill="#ffffff" d="
  M 46.55 30.45
  A 0.28 0.28 0.0 0 1 46.67 30.96
  Q 41.84 34.23 35.95 34.81
  A 0.79 0.79 0.0 0 1 35.10 33.85
  L 35.15 33.66
  A 1.34 1.34 0.0 0 1 36.41 32.60
  Q 38.17 32.54 39.14 32.01
  A 0.28 0.28 0.0 0 0 39.00 31.49
  L 35.82 31.49
  A 0.62 0.61 81.8 0 1 35.23 31.04
  L 34.79 29.53
  A 0.42 0.39 5.5 0 0 34.56 29.27
  Q 34.04 29.04 33.48 27.96
  A 1.16 1.15 -47.4 0 1 33.44 26.98
  L 34.70 24.00
  A 0.33 0.33 0.0 0 0 34.14 23.66
  L 31.74 26.53
  A 0.84 0.84 0.0 0 1 31.00 26.83
  L 29.63 26.69
  A 0.28 0.27 18.3 0 1 29.42 26.28
  Q 32.05 21.69 37.04 19.41
  A 0.33 0.33 0.0 0 1 37.50 19.74
  Q 36.96 24.60 35.09 28.86
  A 0.30 0.29 -75.9 0 0 35.33 29.27
  L 46.55 30.45
  Z"
/>
<path fill="#ffffff" d="
  M 44.81 20.38
  L 41.89 27.29
  A 0.34 0.32 10.2 0 1 41.58 27.49
  L 38.21 27.49
  A 0.14 0.13 15.0 0 1 38.09 27.29
  L 39.65 24.58
  A 0.51 0.49 40.1 0 0 39.59 23.99
  Q 38.55 22.81 39.53 20.91
  A 1.18 1.15 9.0 0 1 40.39 20.30
  L 44.31 19.73
  A 0.47 0.47 0.0 0 1 44.81 20.38
  Z"
/>
<path fill="#ffffff" d="
  M 24.67 28.17
  Q 25.14 28.79 24.26 31.30
  A 0.26 0.26 0.0 0 1 23.78 31.33
  Q 22.37 28.66 22.01 25.14
  A 0.51 0.51 0.0 0 1 22.72 24.62
  L 27.32 26.56
  A 0.36 0.36 0.0 0 1 27.42 27.17
  Q 26.16 28.23 24.91 27.84
  A 0.22 0.21 -9.3 0 0 24.67 28.17
  Z"
/>
<circle fill="#ffffff" cx="29.78" cy="32.34" r="3.56"/>
<path fill="#ffffff" d="
  M 20.30 32.99
  Q 21.08 34.31 19.16 35.88
  A 0.55 0.55 0.0 0 1 18.38 35.80
  L 14.77 31.32
  A 0.56 0.56 0.0 0 1 15.05 30.44
  L 19.64 29.11
  A 0.91 0.90 -20.1 0 1 20.71 29.60
  L 21.53 31.42
  A 0.59 0.58 -10.9 0 1 20.97 32.24
  Q 20.92 32.24 20.80 32.22
  A 0.51 0.51 0.0 0 0 20.30 32.99
  Z"
/>
<path fill="#ffffff" d="
  M 19.33 41.64
  Q 20.25 36.88 23.90 33.72
  A 0.20 0.20 0.0 0 1 24.21 33.78
  L 24.94 35.18
  A 0.34 0.33 -39.8 0 1 24.90 35.56
  L 22.66 38.28
  A 0.26 0.26 0.0 0 0 22.90 38.70
  Q 23.85 38.56 25.57 37.06
  A 0.74 0.74 0.0 0 1 26.35 36.93
  L 28.52 37.85
  A 0.63 0.62 4.2 0 1 28.88 38.26
  L 30.41 43.52
  A 0.43 0.43 0.0 0 0 31.25 43.45
  L 31.85 37.79
  A 0.39 0.38 -9.1 0 1 32.09 37.47
  L 33.29 36.95
  A 0.28 0.28 0.0 0 1 33.67 37.18
  Q 34.37 42.93 31.34 47.77
  A 0.42 0.42 0.0 0 1 30.64 47.79
  Q 28.29 44.56 26.98 39.50
  A 0.45 0.45 0.0 0 0 26.28 39.25
  Q 23.37 41.34 19.84 42.13
  A 0.42 0.42 0.0 0 1 19.33 41.64
  Z"
/>
<path fill="#ffffff" d="
  M 50.47 36.19
  Q 43.58 40.05 36.93 39.32
  A 1.29 1.28 -46.0 0 1 36.89 36.77
  L 42.20 35.99
  A 2.09 2.00 -63.7 0 0 42.97 35.71
  L 46.25 33.63
  A 0.39 0.36 42.4 0 1 46.63 33.63
  L 50.47 35.85
  A 0.19 0.19 0.0 0 1 50.47 36.19
  Z"
/>
<path fill="#ffffff" d="
  M 21.59 51.56
  L 21.59 44.58
  A 1.19 1.18 -7.7 0 1 22.46 43.44
  L 24.97 42.71
  A 0.22 0.21 -5.3 0 1 25.25 42.94
  L 25.04 44.95
  A 0.25 0.25 0.0 0 0 25.45 45.17
  L 26.11 44.64
  A 0.43 0.43 0.0 0 1 26.80 44.86
  L 27.49 47.22
  A 0.70 0.69 -27.8 0 1 27.26 47.94
  L 22.32 51.91
  A 0.45 0.45 0.0 0 1 21.59 51.56
  Z"
/>
</svg>
