<?xml version="1.0" encoding="UTF-8" standalone="no"?>
<!DOCTYPE svg PUBLIC "-//W3C//DTD SVG 1.1//EN" "http://www.w3.org/Graphics/SVG/1.1/DTD/svg11.dtd">
<svg xmlns="http://www.w3.org/2000/svg" version="1.1" viewBox="0.00 0.00 66.00 88.00">
<g stroke-width="2.00" fill="none" stroke-linecap="butt">
<path stroke="#6f562b" vector-effect="non-scaling-stroke" d="
  M 33.39 86.69
  Q 33.53 86.69 33.67 86.65
  A 0.06 0.03 3.3 0 0 33.70 86.64
  Q 47.14 74.04 56.02 59.28
  C 65.27 43.90 68.99 24.80 55.05 11.21
  C 49.42 5.73 41.67 2.48 33.56 2.46
  C 25.44 2.45 17.68 5.67 12.03 11.13
  C -1.96 24.66 1.69 43.78 10.88 59.19
  Q 19.70 73.99 33.09 86.64
  A 0.06 0.03 -3.1 0 0 33.12 86.65
  Q 33.26 86.69 33.39 86.69"
/>
<path stroke="#c9b99d" vector-effect="non-scaling-stroke" d="
  M 20.92 40.25
  L 18.99 42.17
  A 0.56 0.56 0.0 0 0 19.60 43.08
  Q 21.59 42.25 23.26 40.33
  A 0.23 0.22 -54.3 0 1 23.53 40.28
  L 23.81 40.44
  A 0.03 0.02 -58.3 0 1 23.81 40.48
  L 21.59 43.41
  A 0.76 0.75 40.3 0 0 21.68 44.42
  L 21.76 44.49
  A 0.83 0.82 -48.4 0 0 22.97 44.41
  C 25.59 41.18 26.41 38.00 27.97 33.22
  C 29.91 27.25 32.17 24.90 37.10 22.14
  A 3.16 3.13 -84.4 0 0 37.97 21.42
  C 40.04 18.98 42.40 15.16 44.99 17.77
  A 0.34 0.34 0.0 0 1 44.84 18.33
  Q 43.80 18.63 42.73 17.94
  A 0.76 0.75 27.4 0 0 41.61 18.29
  Q 40.57 20.96 41.36 24.39
  A 0.46 0.46 0.0 0 1 40.55 24.78
  Q 39.57 23.53 39.37 23.39
  Q 38.47 22.75 37.96 23.95
  A 0.23 0.23 0.0 0 0 38.15 24.27
  Q 39.13 24.36 40.66 25.53
  A 0.76 0.75 27.1 0 1 40.93 26.35
  C 40.07 29.12 37.19 29.70 33.91 30.91
  C 27.59 33.24 27.48 39.56 24.43 44.60
  A 0.54 0.53 -72.5 0 0 24.85 45.41
  L 25.56 45.46
  A 1.31 1.29 14.8 0 0 26.80 44.75
  Q 27.95 42.49 28.90 38.13
  C 29.79 34.08 33.98 33.11 37.91 31.93
  C 42.88 30.43 43.58 26.10 42.34 21.68
  A 0.76 0.75 75.6 0 1 42.89 20.74
  Q 46.10 19.97 48.29 21.54
  A 0.28 0.27 8.5 0 0 48.71 21.23
  Q 47.23 16.65 43.20 15.78
  A 1.34 1.33 -56.8 0 0 42.12 16.01
  C 35.54 20.89 29.80 24.27 26.23 31.01
  C 23.72 35.78 21.79 38.30 17.18 40.09
  A 0.52 0.52 0.0 0 0 16.87 40.72
  L 16.89 40.79
  A 0.75 0.75 0.0 0 0 17.88 41.24
  L 20.79 40.05
  A 0.12 0.12 0.0 0 1 20.92 40.25"
/>
<path stroke="#c9b99d" vector-effect="non-scaling-stroke" d="
  M 36.23 24.24
  Q 37.00 24.64 37.59 24.54
  A 0.27 0.27 0.0 0 0 37.70 24.05
  Q 36.94 23.53 36.68 23.45
  A 0.48 0.43 -18.9 0 0 36.23 24.24"
/>
<path stroke="#c9b99d" vector-effect="non-scaling-stroke" d="
  M 30.45 30.11
  L 34.65 26.18
  A 0.43 0.42 -34.1 0 0 34.75 25.70
  L 34.71 25.62
  A 0.51 0.50 -32.2 0 0 34.00 25.46
  Q 31.35 27.21 30.17 29.91
  A 0.18 0.17 80.2 0 0 30.45 30.11"
/>
<path stroke="#c9b99d" vector-effect="non-scaling-stroke" d="
  M 38.20 27.65
  A 1.79 1.36 -5.2 0 0 40.06 25.95
  Q 39.97 25.62 38.59 25.32
  A 0.27 0.27 0.0 0 0 38.41 25.83
  Q 38.97 26.11 38.88 26.77
  A 0.51 0.50 18.6 0 1 38.12 27.14
  Q 37.25 26.61 36.50 25.32
  A 0.06 0.05 -23.7 0 0 36.43 25.30
  L 36.10 25.43
  A 0.34 0.33 -22.4 0 0 35.91 25.87
  Q 36.59 27.63 38.20 27.65"
/>
<path stroke="#c9b99d" vector-effect="non-scaling-stroke" d="
  M 33.70 28.54
  Q 32.73 29.13 32.08 30.16
  A 0.29 0.29 0.0 0 0 32.47 30.56
  Q 33.30 30.07 34.27 29.49
  Q 35.24 28.91 36.06 28.40
  A 0.29 0.29 0.0 0 0 35.89 27.87
  Q 34.67 27.96 33.70 28.54"
/>
<path stroke="#c9b99d" vector-effect="non-scaling-stroke" d="
  M 31.35 43.38
  Q 31.23 44.05 31.38 44.43
  Q 32.66 47.68 33.89 51.55
  A 0.32 0.32 0.0 0 0 34.50 51.56
  L 37.35 43.60
  A 0.29 0.29 0.0 0 0 36.88 43.28
  Q 36.25 43.83 36.10 45.19
  A 0.40 0.39 -84.2 0 1 35.67 45.55
  Q 35.38 45.52 35.15 45.20
  A 0.50 0.49 43.3 0 1 35.13 44.63
  Q 36.20 42.89 36.78 40.09
  A 1.48 1.46 85.3 0 1 37.68 39.01
  L 37.96 38.90
  A 0.64 0.64 0.0 0 0 38.27 37.98
  Q 37.51 36.66 37.32 36.43
  Q 36.53 35.41 35.81 35.68
  Q 34.89 36.03 34.62 37.77
  A 0.36 0.36 0.0 0 1 33.93 37.84
  L 33.12 35.80
  A 0.84 0.84 0.0 0 0 31.62 35.69
  L 30.28 38.02
  A 0.66 0.65 36.3 0 0 30.41 38.84
  L 30.93 39.31
  A 2.00 1.98 10.2 0 1 31.43 40.02
  L 33.36 44.88
  A 0.35 0.35 0.0 0 1 33.16 45.34
  L 32.88 45.46
  A 0.35 0.34 -20.9 0 1 32.44 45.27
  L 31.67 43.34
  A 0.17 0.17 0.0 0 0 31.35 43.38"
/>
</g>
<path fill="#4b3a1c" d="
  M 33.79 88.00
  L 33.03 88.00
  C 22.17 78.18 12.04 65.64 5.74 51.77
  Q 2.07 43.70 1.57 34.56
  C 0.94 23.11 6.54 12.45 16.04 6.42
  C 32.63 -4.10 54.65 2.17 62.87 20.34
  C 66.91 29.24 65.84 40.14 62.34 49.06
  C 56.52 63.86 45.51 77.38 33.79 88.00
  Z
  M 33.39 86.69
  Q 33.53 86.69 33.67 86.65
  A 0.06 0.03 3.3 0 0 33.70 86.64
  Q 47.14 74.04 56.02 59.28
  C 65.27 43.90 68.99 24.80 55.05 11.21
  C 49.42 5.73 41.67 2.48 33.56 2.46
  C 25.44 2.45 17.68 5.67 12.03 11.13
  C -1.96 24.66 1.69 43.78 10.88 59.19
  Q 19.70 73.99 33.09 86.64
  A 0.06 0.03 -3.1 0 0 33.12 86.65
  Q 33.26 86.69 33.39 86.69
  Z"
/>
<path fill="#92723a" d="
  M 33.56 2.46
  C 41.67 2.48 49.42 5.73 55.05 11.21
  C 68.99 24.80 65.27 43.90 56.02 59.28
  Q 47.14 74.04 33.70 86.64
  A 0.06 0.03 3.3 0 1 33.67 86.65
  Q 33.53 86.69 33.39 86.69
  Q 33.26 86.69 33.12 86.65
  A 0.06 0.03 -3.1 0 1 33.09 86.64
  Q 19.70 73.99 10.88 59.19
  C 1.69 43.78 -1.96 24.66 12.03 11.13
  C 17.68 5.67 25.44 2.45 33.56 2.46
  Z
  M 20.92 40.25
  L 18.99 42.17
  A 0.56 0.56 0.0 0 0 19.60 43.08
  Q 21.59 42.25 23.26 40.33
  A 0.23 0.22 -54.3 0 1 23.53 40.28
  L 23.81 40.44
  A 0.03 0.02 -58.3 0 1 23.81 40.48
  L 21.59 43.41
  A 0.76 0.75 40.3 0 0 21.68 44.42
  L 21.76 44.49
  A 0.83 0.82 -48.4 0 0 22.97 44.41
  C 25.59 41.18 26.41 38.00 27.97 33.22
  C 29.91 27.25 32.17 24.90 37.10 22.14
  A 3.16 3.13 -84.4 0 0 37.97 21.42
  C 40.04 18.98 42.40 15.16 44.99 17.77
  A 0.34 0.34 0.0 0 1 44.84 18.33
  Q 43.80 18.63 42.73 17.94
  A 0.76 0.75 27.4 0 0 41.61 18.29
  Q 40.57 20.96 41.36 24.39
  A 0.46 0.46 0.0 0 1 40.55 24.78
  Q 39.57 23.53 39.37 23.39
  Q 38.47 22.75 37.96 23.95
  A 0.23 0.23 0.0 0 0 38.15 24.27
  Q 39.13 24.36 40.66 25.53
  A 0.76 0.75 27.1 0 1 40.93 26.35
  C 40.07 29.12 37.19 29.70 33.91 30.91
  C 27.59 33.24 27.48 39.56 24.43 44.60
  A 0.54 0.53 -72.5 0 0 24.85 45.41
  L 25.56 45.46
  A 1.31 1.29 14.8 0 0 26.80 44.75
  Q 27.95 42.49 28.90 38.13
  C 29.79 34.08 33.98 33.11 37.91 31.93
  C 42.88 30.43 43.58 26.10 42.34 21.68
  A 0.76 0.75 75.6 0 1 42.89 20.74
  Q 46.10 19.97 48.29 21.54
  A 0.28 0.27 8.5 0 0 48.71 21.23
  Q 47.23 16.65 43.20 15.78
  A 1.34 1.33 -56.8 0 0 42.12 16.01
  C 35.54 20.89 29.80 24.27 26.23 31.01
  C 23.72 35.78 21.79 38.30 17.18 40.09
  A 0.52 0.52 0.0 0 0 16.87 40.72
  L 16.89 40.79
  A 0.75 0.75 0.0 0 0 17.88 41.24
  L 20.79 40.05
  A 0.12 0.12 0.0 0 1 20.92 40.25
  Z
  M 36.23 24.24
  Q 37.00 24.64 37.59 24.54
  A 0.27 0.27 0.0 0 0 37.70 24.05
  Q 36.94 23.53 36.68 23.45
  A 0.48 0.43 -18.9 0 0 36.23 24.24
  Z
  M 30.45 30.11
  L 34.65 26.18
  A 0.43 0.42 -34.1 0 0 34.75 25.70
  L 34.71 25.62
  A 0.51 0.50 -32.2 0 0 34.00 25.46
  Q 31.35 27.21 30.17 29.91
  A 0.18 0.17 80.2 0 0 30.45 30.11
  Z
  M 38.20 27.65
  A 1.79 1.36 -5.2 0 0 40.06 25.95
  Q 39.97 25.62 38.59 25.32
  A 0.27 0.27 0.0 0 0 38.41 25.83
  Q 38.97 26.11 38.88 26.77
  A 0.51 0.50 18.6 0 1 38.12 27.14
  Q 37.25 26.61 36.50 25.32
  A 0.06 0.05 -23.7 0 0 36.43 25.30
  L 36.10 25.43
  A 0.34 0.33 -22.4 0 0 35.91 25.87
  Q 36.59 27.63 38.20 27.65
  Z
  M 33.70 28.54
  Q 32.73 29.13 32.08 30.16
  A 0.29 0.29 0.0 0 0 32.47 30.56
  Q 33.30 30.07 34.27 29.49
  Q 35.24 28.91 36.06 28.40
  A 0.29 0.29 0.0 0 0 35.89 27.87
  Q 34.67 27.96 33.70 28.54
  Z
  M 31.35 43.38
  Q 31.23 44.05 31.38 44.43
  Q 32.66 47.68 33.89 51.55
  A 0.32 0.32 0.0 0 0 34.50 51.56
  L 37.35 43.60
  A 0.29 0.29 0.0 0 0 36.88 43.28
  Q 36.25 43.83 36.10 45.19
  A 0.40 0.39 -84.2 0 1 35.67 45.55
  Q 35.38 45.52 35.15 45.20
  A 0.50 0.49 43.3 0 1 35.13 44.63
  Q 36.20 42.89 36.78 40.09
  A 1.48 1.46 85.3 0 1 37.68 39.01
  L 37.96 38.90
  A 0.64 0.64 0.0 0 0 38.27 37.98
  Q 37.51 36.66 37.32 36.43
  Q 36.53 35.41 35.81 35.68
  Q 34.89 36.03 34.62 37.77
  A 0.36 0.36 0.0 0 1 33.93 37.84
  L 33.12 35.80
  A 0.84 0.84 0.0 0 0 31.62 35.69
  L 30.28 38.02
  A 0.66 0.65 36.3 0 0 30.41 38.84
  L 30.93 39.31
  A 2.00 1.98 10.2 0 1 31.43 40.02
  L 33.36 44.88
  A 0.35 0.35 0.0 0 1 33.16 45.34
  L 32.88 45.46
  A 0.35 0.34 -20.9 0 1 32.44 45.27
  L 31.67 43.34
  A 0.17 0.17 0.0 0 0 31.35 43.38
  Z"
/>
<path fill="#ffffff" d="
  M 20.79 40.05
  L 17.88 41.24
  A 0.75 0.75 0.0 0 1 16.89 40.79
  L 16.87 40.72
  A 0.52 0.52 0.0 0 1 17.18 40.09
  C 21.79 38.30 23.72 35.78 26.23 31.01
  C 29.80 24.27 35.54 20.89 42.12 16.01
  A 1.34 1.33 -56.8 0 1 43.20 15.78
  Q 47.23 16.65 48.71 21.23
  A 0.28 0.27 8.5 0 1 48.29 21.54
  Q 46.10 19.97 42.89 20.74
  A 0.76 0.75 75.6 0 0 42.34 21.68
  C 43.58 26.10 42.88 30.43 37.91 31.93
  C 33.98 33.11 29.79 34.08 28.90 38.13
  Q 27.95 42.49 26.80 44.75
  A 1.31 1.29 14.8 0 1 25.56 45.46
  L 24.85 45.41
  A 0.54 0.53 -72.5 0 1 24.43 44.60
  C 27.48 39.56 27.59 33.24 33.91 30.91
  C 37.19 29.70 40.07 29.12 40.93 26.35
  A 0.76 0.75 27.1 0 0 40.66 25.53
  Q 39.13 24.36 38.15 24.27
  A 0.23 0.23 0.0 0 1 37.96 23.95
  Q 38.47 22.75 39.37 23.39
  Q 39.57 23.53 40.55 24.78
  A 0.46 0.46 0.0 0 0 41.36 24.39
  Q 40.57 20.96 41.61 18.29
  A 0.76 0.75 27.4 0 1 42.73 17.94
  Q 43.80 18.63 44.84 18.33
  A 0.34 0.34 0.0 0 0 44.99 17.77
  C 42.40 15.16 40.04 18.98 37.97 21.42
  A 3.16 3.13 -84.4 0 1 37.10 22.14
  C 32.17 24.90 29.91 27.25 27.97 33.22
  C 26.41 38.00 25.59 41.18 22.97 44.41
  A 0.83 0.82 -48.4 0 1 21.76 44.49
  L 21.68 44.42
  A 0.76 0.75 40.3 0 1 21.59 43.41
  L 23.81 40.48
  A 0.03 0.02 -58.3 0 0 23.81 40.44
  L 23.53 40.28
  A 0.23 0.22 -54.3 0 0 23.26 40.33
  Q 21.59 42.25 19.60 43.08
  A 0.56 0.56 0.0 0 1 18.99 42.17
  L 20.92 40.25
  A 0.12 0.12 0.0 0 0 20.79 40.05
  Z"
/>
<path fill="#ffffff" d="
  M 36.23 24.24
  A 0.48 0.43 -18.9 0 1 36.68 23.45
  Q 36.94 23.53 37.70 24.05
  A 0.27 0.27 0.0 0 1 37.59 24.54
  Q 37.00 24.64 36.23 24.24
  Z"
/>
<path fill="#ffffff" d="
  M 30.45 30.11
  A 0.18 0.17 80.2 0 1 30.17 29.91
  Q 31.35 27.21 34.00 25.46
  A 0.51 0.50 -32.2 0 1 34.71 25.62
  L 34.75 25.70
  A 0.43 0.42 -34.1 0 1 34.65 26.18
  L 30.45 30.11
  Z"
/>
<path fill="#ffffff" d="
  M 38.20 27.65
  Q 36.59 27.63 35.91 25.87
  A 0.34 0.33 -22.4 0 1 36.10 25.43
  L 36.43 25.30
  A 0.06 0.05 -23.7 0 1 36.50 25.32
  Q 37.25 26.61 38.12 27.14
  A 0.51 0.50 18.6 0 0 38.88 26.77
  Q 38.97 26.11 38.41 25.83
  A 0.27 0.27 0.0 0 1 38.59 25.32
  Q 39.97 25.62 40.06 25.95
  A 1.79 1.36 -5.2 0 1 38.20 27.65
  Z"
/>
<path fill="#ffffff" d="
  M 34.27 29.49
  Q 33.30 30.07 32.47 30.56
  A 0.29 0.29 0.0 0 1 32.08 30.16
  Q 32.73 29.13 33.70 28.54
  Q 34.67 27.96 35.89 27.87
  A 0.29 0.29 0.0 0 1 36.06 28.40
  Q 35.24 28.91 34.27 29.49
  Z"
/>
<path fill="#ffffff" d="
  M 31.35 43.38
  A 0.17 0.17 0.0 0 1 31.67 43.34
  L 32.44 45.27
  A 0.35 0.34 -20.9 0 0 32.88 45.46
  L 33.16 45.34
  A 0.35 0.35 0.0 0 0 33.36 44.88
  L 31.43 40.02
  A 2.00 1.98 10.2 0 0 30.93 39.31
  L 30.41 38.84
  A 0.66 0.65 36.3 0 1 30.28 38.02
  L 31.62 35.69
  A 0.84 0.84 0.0 0 1 33.12 35.80
  L 33.93 37.84
  A 0.36 0.36 0.0 0 0 34.62 37.77
  Q 34.89 36.03 35.81 35.68
  Q 36.53 35.41 37.32 36.43
  Q 37.51 36.66 38.27 37.98
  A 0.64 0.64 0.0 0 1 37.96 38.90
  L 37.68 39.01
  A 1.48 1.46 85.3 0 0 36.78 40.09
  Q 36.20 42.89 35.13 44.63
  A 0.50 0.49 43.3 0 0 35.15 45.20
  Q 35.38 45.52 35.67 45.55
  A 0.40 0.39 -84.2 0 0 36.10 45.19
  Q 36.25 43.83 36.88 43.28
  A 0.29 0.29 0.0 0 1 37.35 43.60
  L 34.50 51.56
  A 0.32 0.32 0.0 0 1 33.89 51.55
  Q 32.66 47.68 31.38 44.43
  Q 31.23 44.05 31.35 43.38
  Z"
/>
</svg>
