<?xml version="1.0" encoding="UTF-8" standalone="no"?>
<!DOCTYPE svg PUBLIC "-//W3C//DTD SVG 1.1//EN" "http://www.w3.org/Graphics/SVG/1.1/DTD/svg11.dtd">
<svg xmlns="http://www.w3.org/2000/svg" version="1.1" viewBox="0.00 0.00 66.00 88.00">
<g stroke-width="2.00" fill="none" stroke-linecap="butt">
<path stroke="#2a5d6e" vector-effect="non-scaling-stroke" d="
  M 33.41 86.72
  Q 33.52 86.72 33.62 86.69
  Q 33.68 86.68 33.77 86.59
  Q 48.58 72.79 57.63 56.39
  C 64.66 43.66 67.68 27.69 58.74 15.51
  C 52.79 7.39 43.81 2.49 33.53 2.48
  C 23.24 2.46 14.25 7.34 8.27 15.44
  C -0.70 27.60 2.28 43.57 9.27 56.32
  Q 18.28 72.75 33.05 86.59
  Q 33.14 86.68 33.20 86.69
  Q 33.30 86.72 33.41 86.72"
/>
<path stroke="#9dbdc8" vector-effect="non-scaling-stroke" d="
  M 51.13 25.26
  L 51.13 22.76
  A 1.02 1.00 16.5 0 0 50.66 21.91
  Q 46.19 19.06 41.59 21.13
  A 1.09 1.09 0.0 0 0 40.95 22.12
  L 40.95 23.54
  A 0.68 0.68 0.0 0 0 41.74 24.21
  Q 46.35 23.44 50.28 25.75
  A 0.57 0.56 -74.8 0 0 51.13 25.26"
/>
<path stroke="#9dbdc8" vector-effect="non-scaling-stroke" d="
  M 31.75 29.14
  C 35.12 29.25 38.09 28.06 38.94 24.57
  A 0.44 0.43 10.1 0 0 38.57 24.04
  Q 35.43 23.64 33.34 25.15
  A 0.96 0.89 -6.0 0 0 33.06 25.47
  L 31.18 28.72
  A 0.54 0.54 0.0 0 1 30.27 28.77
  L 29.19 27.29
  A 0.90 0.90 0.0 0 0 28.22 26.96
  L 28.01 27.08
  A 0.32 0.32 0.0 0 0 27.96 27.60
  L 30.47 29.81
  A 0.34 0.31 66.2 0 0 30.65 29.89
  Q 30.95 29.93 31.00 29.67
  A 0.75 0.65 5.4 0 1 31.75 29.14"
/>
<path stroke="#9dbdc8" vector-effect="non-scaling-stroke" d="
  M 43.38 40.64
  A 0.27 0.27 0.0 0 0 43.85 40.88
  Q 48.08 36.13 49.93 29.69
  A 0.87 0.85 -65.8 0 0 49.58 28.74
  Q 45.81 26.26 41.82 27.19
  A 1.70 1.69 62.5 0 0 40.95 29.97
  Q 44.75 34.24 43.38 40.64"
/>
<path stroke="#9dbdc8" vector-effect="non-scaling-stroke" d="
  M 28.55 35.96
  A 1.47 1.47 0.0 0 0 30.74 34.24
  L 29.60 30.96
  A 0.70 0.70 0.0 0 0 28.85 30.49
  C 24.48 31.07 22.63 34.27 23.07 38.44
  Q 23.62 43.69 27.97 46.82
  C 29.52 47.93 31.23 46.13 33.21 46.91
  Q 34.82 47.54 35.77 46.92
  C 39.66 44.39 41.37 39.52 40.54 35.24
  C 39.76 31.18 35.52 30.04 31.69 30.24
  A 0.56 0.56 0.0 0 0 31.16 30.90
  Q 31.73 34.08 34.12 36.30
  A 0.59 0.59 0.0 0 0 34.94 36.29
  Q 35.91 35.33 37.01 35.51
  A 2.14 2.13 -68.6 0 1 38.44 38.79
  Q 37.22 40.65 34.98 39.19
  A 0.90 0.89 52.2 0 0 34.24 39.09
  Q 33.95 39.18 33.45 40.01
  A 0.71 0.71 0.0 0 0 33.49 40.82
  Q 34.76 42.45 33.53 43.80
  A 2.13 1.87 -49.9 0 1 30.84 44.21
  Q 28.88 42.70 30.45 40.84
  A 0.74 0.73 -41.7 0 0 30.51 39.97
  Q 30.16 39.41 29.80 39.15
  A 0.79 0.79 0.0 0 0 28.87 39.17
  C 26.61 40.90 24.24 39.26 25.35 36.35
  A 1.23 1.21 -83.2 0 1 26.31 35.58
  Q 27.66 35.38 28.55 35.96"
/>
<path stroke="#9dbdc8" vector-effect="non-scaling-stroke" d="
  M 33.14 37.67
  A 1.22 1.22 0.0 0 0 31.92 36.45
  A 1.22 1.22 0.0 0 0 30.70 37.67
  A 1.22 1.22 0.0 0 0 31.92 38.89
  A 1.22 1.22 0.0 0 0 33.14 37.67"
/>
<path stroke="#9dbdc8" vector-effect="non-scaling-stroke" d="
  M 28.03 37.61
  A 0.80 0.80 0.0 0 0 27.23 36.81
  A 0.80 0.80 0.0 0 0 26.43 37.61
  A 0.80 0.80 0.0 0 0 27.23 38.41
  A 0.80 0.80 0.0 0 0 28.03 37.61"
/>
<path stroke="#9dbdc8" vector-effect="non-scaling-stroke" d="
  M 37.3769 37.4713
  A 0.74 0.66 -10.8 0 0 36.5263 36.9617
  A 0.74 0.66 -10.8 0 0 35.9231 37.7487
  A 0.74 0.66 -10.8 0 0 36.7737 38.2583
  A 0.74 0.66 -10.8 0 0 37.3769 37.4713"
/>
<path stroke="#9dbdc8" vector-effect="non-scaling-stroke" d="
  M 22.60 45.77
  L 21.14 42.77
  A 2.51 2.50 88.9 0 0 19.91 41.58
  Q 17.99 40.70 16.63 39.23
  A 0.41 0.41 0.0 0 0 15.98 39.30
  L 14.87 41.23
  A 0.26 0.25 -58.6 0 0 14.95 41.57
  L 22.16 46.17
  A 0.31 0.31 0.0 0 0 22.60 45.77"
/>
<path stroke="#9dbdc8" vector-effect="non-scaling-stroke" d="
  M 32.78 42.18
  Q 32.76 42.07 32.18 41.69
  Q 31.68 41.37 31.35 41.89
  Q 30.98 42.45 31.29 42.74
  A 0.91 0.77 19.9 0 0 32.78 42.18"
/>
</g>
<path fill="#1a3f4b" d="
  M 33.80 88.00
  L 33.04 88.00
  C 22.01 77.98 11.61 65.25 5.59 51.41
  Q 2.12 43.44 1.54 34.82
  C 0.49 18.92 11.32 5.65 26.69 2.05
  C 37.46 -0.48 49.73 3.36 57.25 11.77
  Q 67.82 23.59 64.84 39.77
  Q 62.36 53.20 53.38 65.64
  Q 43.82 78.88 33.80 88.00
  Z
  M 33.41 86.72
  Q 33.52 86.72 33.62 86.69
  Q 33.68 86.68 33.77 86.59
  Q 48.58 72.79 57.63 56.39
  C 64.66 43.66 67.68 27.69 58.74 15.51
  C 52.79 7.39 43.81 2.49 33.53 2.48
  C 23.24 2.46 14.25 7.34 8.27 15.44
  C -0.70 27.60 2.28 43.57 9.27 56.32
  Q 18.28 72.75 33.05 86.59
  Q 33.14 86.68 33.20 86.69
  Q 33.30 86.72 33.41 86.72
  Z"
/>
<path fill="#3a7a91" d="
  M 33.53 2.48
  C 43.81 2.49 52.79 7.39 58.74 15.51
  C 67.68 27.69 64.66 43.66 57.63 56.39
  Q 48.58 72.79 33.77 86.59
  Q 33.68 86.68 33.62 86.69
  Q 33.52 86.72 33.41 86.72
  Q 33.30 86.72 33.20 86.69
  Q 33.14 86.68 33.05 86.59
  Q 18.28 72.75 9.27 56.32
  C 2.28 43.57 -0.70 27.60 8.27 15.44
  C 14.25 7.34 23.24 2.46 33.53 2.48
  Z
  M 51.13 25.26
  L 51.13 22.76
  A 1.02 1.00 16.5 0 0 50.66 21.91
  Q 46.19 19.06 41.59 21.13
  A 1.09 1.09 0.0 0 0 40.95 22.12
  L 40.95 23.54
  A 0.68 0.68 0.0 0 0 41.74 24.21
  Q 46.35 23.44 50.28 25.75
  A 0.57 0.56 -74.8 0 0 51.13 25.26
  Z
  M 31.75 29.14
  C 35.12 29.25 38.09 28.06 38.94 24.57
  A 0.44 0.43 10.1 0 0 38.57 24.04
  Q 35.43 23.64 33.34 25.15
  A 0.96 0.89 -6.0 0 0 33.06 25.47
  L 31.18 28.72
  A 0.54 0.54 0.0 0 1 30.27 28.77
  L 29.19 27.29
  A 0.90 0.90 0.0 0 0 28.22 26.96
  L 28.01 27.08
  A 0.32 0.32 0.0 0 0 27.96 27.60
  L 30.47 29.81
  A 0.34 0.31 66.2 0 0 30.65 29.89
  Q 30.95 29.93 31.00 29.67
  A 0.75 0.65 5.4 0 1 31.75 29.14
  Z
  M 43.38 40.64
  A 0.27 0.27 0.0 0 0 43.85 40.88
  Q 48.08 36.13 49.93 29.69
  A 0.87 0.85 -65.8 0 0 49.58 28.74
  Q 45.81 26.26 41.82 27.19
  A 1.70 1.69 62.5 0 0 40.95 29.97
  Q 44.75 34.24 43.38 40.64
  Z
  M 28.55 35.96
  A 1.47 1.47 0.0 0 0 30.74 34.24
  L 29.60 30.96
  A 0.70 0.70 0.0 0 0 28.85 30.49
  C 24.48 31.07 22.63 34.27 23.07 38.44
  Q 23.62 43.69 27.97 46.82
  C 29.52 47.93 31.23 46.13 33.21 46.91
  Q 34.82 47.54 35.77 46.92
  C 39.66 44.39 41.37 39.52 40.54 35.24
  C 39.76 31.18 35.52 30.04 31.69 30.24
  A 0.56 0.56 0.0 0 0 31.16 30.90
  Q 31.73 34.08 34.12 36.30
  A 0.59 0.59 0.0 0 0 34.94 36.29
  Q 35.91 35.33 37.01 35.51
  A 2.14 2.13 -68.6 0 1 38.44 38.79
  Q 37.22 40.65 34.98 39.19
  A 0.90 0.89 52.2 0 0 34.24 39.09
  Q 33.95 39.18 33.45 40.01
  A 0.71 0.71 0.0 0 0 33.49 40.82
  Q 34.76 42.45 33.53 43.80
  A 2.13 1.87 -49.9 0 1 30.84 44.21
  Q 28.88 42.70 30.45 40.84
  A 0.74 0.73 -41.7 0 0 30.51 39.97
  Q 30.16 39.41 29.80 39.15
  A 0.79 0.79 0.0 0 0 28.87 39.17
  C 26.61 40.90 24.24 39.26 25.35 36.35
  A 1.23 1.21 -83.2 0 1 26.31 35.58
  Q 27.66 35.38 28.55 35.96
  Z
  M 33.14 37.67
  A 1.22 1.22 0.0 0 0 31.92 36.45
  A 1.22 1.22 0.0 0 0 30.70 37.67
  A 1.22 1.22 0.0 0 0 31.92 38.89
  A 1.22 1.22 0.0 0 0 33.14 37.67
  Z
  M 28.03 37.61
  A 0.80 0.80 0.0 0 0 27.23 36.81
  A 0.80 0.80 0.0 0 0 26.43 37.61
  A 0.80 0.80 0.0 0 0 27.23 38.41
  A 0.80 0.80 0.0 0 0 28.03 37.61
  Z
  M 37.3769 37.4713
  A 0.74 0.66 -10.8 0 0 36.5263 36.9617
  A 0.74 0.66 -10.8 0 0 35.9231 37.7487
  A 0.74 0.66 -10.8 0 0 36.7737 38.2583
  A 0.74 0.66 -10.8 0 0 37.3769 37.4713
  Z
  M 22.60 45.77
  L 21.14 42.77
  A 2.51 2.50 88.9 0 0 19.91 41.58
  Q 17.99 40.70 16.63 39.23
  A 0.41 0.41 0.0 0 0 15.98 39.30
  L 14.87 41.23
  A 0.26 0.25 -58.6 0 0 14.95 41.57
  L 22.16 46.17
  A 0.31 0.31 0.0 0 0 22.60 45.77
  Z
  M 32.78 42.18
  Q 32.76 42.07 32.18 41.69
  Q 31.68 41.37 31.35 41.89
  Q 30.98 42.45 31.29 42.74
  A 0.91 0.77 19.9 0 0 32.78 42.18
  Z"
/>
<path fill="#ffffff" d="
  M 50.28 25.75
  Q 46.35 23.44 41.74 24.21
  A 0.68 0.68 0.0 0 1 40.95 23.54
  L 40.95 22.12
  A 1.09 1.09 0.0 0 1 41.59 21.13
  Q 46.19 19.06 50.66 21.91
  A 1.02 1.00 16.5 0 1 51.13 22.76
  L 51.13 25.26
  A 0.57 0.56 -74.8 0 1 50.28 25.75
  Z"
/>
<path fill="#ffffff" d="
  M 31.00 29.67
  Q 30.95 29.93 30.65 29.89
  A 0.34 0.31 66.2 0 1 30.47 29.81
  L 27.96 27.60
  A 0.32 0.32 0.0 0 1 28.01 27.08
  L 28.22 26.96
  A 0.90 0.90 0.0 0 1 29.19 27.29
  L 30.27 28.77
  A 0.54 0.54 0.0 0 0 31.18 28.72
  L 33.06 25.47
  A 0.96 0.89 -6.0 0 1 33.34 25.15
  Q 35.43 23.64 38.57 24.04
  A 0.44 0.43 10.1 0 1 38.94 24.57
  C 38.09 28.06 35.12 29.25 31.75 29.14
  A 0.75 0.65 5.4 0 0 31.00 29.67
  Z"
/>
<path fill="#ffffff" d="
  M 43.38 40.64
  Q 44.75 34.24 40.95 29.97
  A 1.70 1.69 62.5 0 1 41.82 27.19
  Q 45.81 26.26 49.58 28.74
  A 0.87 0.85 -65.8 0 1 49.93 29.69
  Q 48.08 36.13 43.85 40.88
  A 0.27 0.27 0.0 0 1 43.38 40.64
  Z"
/>
<path fill="#ffffff" d="
  M 28.55 35.96
  Q 27.66 35.38 26.31 35.58
  A 1.23 1.21 -83.2 0 0 25.35 36.35
  C 24.24 39.26 26.61 40.90 28.87 39.17
  A 0.79 0.79 0.0 0 1 29.80 39.15
  Q 30.16 39.41 30.51 39.97
  A 0.74 0.73 -41.7 0 1 30.45 40.84
  Q 28.88 42.70 30.84 44.21
  A 2.13 1.87 -49.9 0 0 33.53 43.80
  Q 34.76 42.45 33.49 40.82
  A 0.71 0.71 0.0 0 1 33.45 40.01
  Q 33.95 39.18 34.24 39.09
  A 0.90 0.89 52.2 0 1 34.98 39.19
  Q 37.22 40.65 38.44 38.79
  A 2.14 2.13 -68.6 0 0 37.01 35.51
  Q 35.91 35.33 34.94 36.29
  A 0.59 0.59 0.0 0 1 34.12 36.30
  Q 31.73 34.08 31.16 30.90
  A 0.56 0.56 0.0 0 1 31.69 30.24
  C 35.52 30.04 39.76 31.18 40.54 35.24
  C 41.37 39.52 39.66 44.39 35.77 46.92
  Q 34.82 47.54 33.21 46.91
  C 31.23 46.13 29.52 47.93 27.97 46.82
  Q 23.62 43.69 23.07 38.44
  C 22.63 34.27 24.48 31.07 28.85 30.49
  A 0.70 0.70 0.0 0 1 29.60 30.96
  L 30.74 34.24
  A 1.47 1.47 0.0 0 1 28.55 35.96
  Z"
/>
<circle fill="#ffffff" cx="31.92" cy="37.67" r="1.22"/>
<circle fill="#ffffff" cx="27.23" cy="37.61" r="0.80"/>
<ellipse fill="#ffffff" cx="0.00" cy="0.00" transform="translate(36.65,37.61) rotate(-10.8)" rx="0.74" ry="0.66"/>
<path fill="#ffffff" d="
  M 22.16 46.17
  L 14.95 41.57
  A 0.26 0.25 -58.6 0 1 14.87 41.23
  L 15.98 39.30
  A 0.41 0.41 0.0 0 1 16.63 39.23
  Q 17.99 40.70 19.91 41.58
  A 2.51 2.50 88.9 0 1 21.14 42.77
  L 22.60 45.77
  A 0.31 0.31 0.0 0 1 22.16 46.17
  Z"
/>
<path fill="#ffffff" d="
  M 32.78 42.18
  A 0.91 0.77 19.9 0 1 31.29 42.74
  Q 30.98 42.45 31.35 41.89
  Q 31.68 41.37 32.18 41.69
  Q 32.76 42.07 32.78 42.18
  Z"
/>
</svg>
