<?xml version="1.0" encoding="UTF-8" standalone="no"?>
<!DOCTYPE svg PUBLIC "-//W3C//DTD SVG 1.1//EN" "http://www.w3.org/Graphics/SVG/1.1/DTD/svg11.dtd">
<svg xmlns="http://www.w3.org/2000/svg" version="1.1" viewBox="0.00 0.00 66.00 88.00">
<g stroke-width="2.00" fill="none" stroke-linecap="butt">
<path stroke="#6f562b" vector-effect="non-scaling-stroke" d="
  M 33.39 86.69
  Q 33.50 86.69 33.60 86.67
  Q 33.62 86.66 33.75 86.54
  Q 44.95 76.07 53.44 63.49
  C 63.81 48.11 70.69 26.06 55.08 11.20
  Q 46.52 3.06 34.50 2.49
  Q 34.03 2.47 33.56 2.47
  Q 33.09 2.47 32.62 2.49
  Q 20.61 3.01 12.01 11.11
  C -3.66 25.91 3.13 47.98 13.44 63.41
  Q 21.87 76.02 33.03 86.54
  Q 33.16 86.66 33.17 86.67
  Q 33.28 86.69 33.39 86.69"
/>
<path stroke="#c9b99d" vector-effect="non-scaling-stroke" d="
  M 51.31 34.00
  A 18.31 18.31 0.0 0 0 33.00 15.69
  A 18.31 18.31 0.0 0 0 14.69 34.00
  A 18.31 18.31 0.0 0 0 33.00 52.31
  A 18.31 18.31 0.0 0 0 51.31 34.00"
/>
<path stroke="#c9b99d" vector-effect="non-scaling-stroke" d="
  M 30.10 18.11
  L 27.30 19.01
  A 0.59 0.59 0.0 0 0 26.92 19.75
  L 26.97 19.91
  A 3.92 2.01 72.3 0 0 30.07 23.03
  L 30.17 23.00
  A 3.92 2.01 72.3 0 0 30.89 18.66
  L 30.84 18.50
  A 0.59 0.59 0.0 0 0 30.10 18.11"
/>
<path stroke="#c9b99d" vector-effect="non-scaling-stroke" d="
  M 38.92 19.09
  L 35.71 18.03
  A 0.37 0.37 0.0 0 0 35.24 18.27
  L 35.17 18.48
  A 4.12 2.01 -71.8 0 0 35.80 23.03
  L 35.89 23.06
  A 4.12 2.01 -71.8 0 0 39.09 19.77
  L 39.16 19.55
  A 0.37 0.37 0.0 0 0 38.92 19.09"
/>
<path stroke="#c9b99d" vector-effect="non-scaling-stroke" d="
  M 24.2077 22.2543
  A 4.63 2.20 -107.5 0 0 23.5018 27.3316
  A 4.63 2.20 -107.5 0 0 26.9923 31.0857
  A 4.63 2.20 -107.5 0 0 27.6982 26.0084
  A 4.63 2.20 -107.5 0 0 24.2077 22.2543"
/>
<path stroke="#c9b99d" vector-effect="non-scaling-stroke" d="
  M 41.7923 22.2443
  A 4.63 2.21 -72.5 0 0 38.2923 25.9954
  A 4.63 2.21 -72.5 0 0 39.0077 31.0757
  A 4.63 2.21 -72.5 0 0 42.5077 27.3246
  A 4.63 2.21 -72.5 0 0 41.7923 22.2443"
/>
<path stroke="#c9b99d" vector-effect="non-scaling-stroke" d="
  M 30.33 29.78
  Q 30.33 32.71 32.78 35.17
  C 32.86 35.24 32.84 35.23 33.00 35.23
  C 33.16 35.23 33.15 35.24 33.22 35.17
  Q 35.66 32.70 35.66 29.78
  Q 35.66 26.85 33.20 24.39
  C 33.13 24.32 33.15 24.33 32.99 24.33
  C 32.82 24.33 32.84 24.32 32.77 24.39
  Q 30.32 26.86 30.33 29.78"
/>
<path stroke="#c9b99d" vector-effect="non-scaling-stroke" d="
  M 47.93 30.50
  A 1.27 1.26 60.1 0 0 48.39 28.78
  L 46.56 25.62
  A 0.34 0.33 -41.4 0 0 46.00 25.59
  Q 44.08 28.13 44.63 31.14
  A 0.82 0.81 69.8 0 0 45.84 31.70
  L 47.93 30.50"
/>
<path stroke="#c9b99d" vector-effect="non-scaling-stroke" d="
  M 18.04 30.49
  L 20.12 31.70
  A 0.81 0.81 0.0 0 0 21.33 31.15
  Q 21.90 28.16 20.01 25.61
  A 0.34 0.33 41.9 0 0 19.45 25.63
  L 17.60 28.77
  A 1.26 1.26 0.0 0 0 18.04 30.49"
/>
<path stroke="#c9b99d" vector-effect="non-scaling-stroke" d="
  M 17.54 37.73
  Q 18.22 38.14 20.98 36.39
  A 0.49 0.49 0.0 0 0 21.10 35.66
  Q 20.51 34.97 19.55 34.39
  Q 18.57 33.80 17.69 33.61
  A 0.49 0.49 0.0 0 0 17.09 34.05
  Q 16.85 37.32 17.54 37.73"
/>
<path stroke="#c9b99d" vector-effect="non-scaling-stroke" d="
  M 23.5353 34.0374
  A 4.46 2.11 -147.1 0 0 26.1339 38.2316
  A 4.46 2.11 -147.1 0 0 31.0247 38.8826
  A 4.46 2.11 -147.1 0 0 28.4261 34.6884
  A 4.46 2.11 -147.1 0 0 23.5353 34.0374"
/>
<path stroke="#c9b99d" vector-effect="non-scaling-stroke" d="
  M 42.4337 34.0418
  A 4.44 2.11 -33.0 0 0 37.5608 34.6904
  A 4.44 2.11 -33.0 0 0 34.9863 38.8782
  A 4.44 2.11 -33.0 0 0 39.8592 38.2296
  A 4.44 2.11 -33.0 0 0 42.4337 34.0418"
/>
<path stroke="#c9b99d" vector-effect="non-scaling-stroke" d="
  M 48.50 37.72
  Q 49.18 37.31 48.90 34.03
  A 0.50 0.49 -8.5 0 0 48.30 33.59
  Q 47.42 33.79 46.45 34.38
  Q 45.47 34.98 44.89 35.67
  A 0.50 0.49 -54.4 0 0 45.01 36.41
  Q 47.80 38.15 48.50 37.72"
/>
<path stroke="#c9b99d" vector-effect="non-scaling-stroke" d="
  M 35.12 41.46
  A 0.36 0.36 0.0 0 0 34.79 42.02
  Q 37.60 46.06 42.82 46.12
  A 1.54 1.52 -63.3 0 0 43.74 45.81
  Q 45.97 44.09 47.69 40.66
  A 0.51 0.51 0.0 0 0 47.35 39.93
  Q 45.42 39.47 44.04 38.38
  A 0.70 0.68 -49.9 0 0 43.09 38.47
  Q 40.02 41.96 35.12 41.46"
/>
<path stroke="#c9b99d" vector-effect="non-scaling-stroke" d="
  M 30.88 41.46
  Q 25.97 41.95 22.90 38.45
  A 0.70 0.69 50.0 0 0 21.95 38.36
  Q 20.56 39.45 18.63 39.91
  A 0.51 0.51 0.0 0 0 18.29 40.64
  Q 20.00 44.08 22.24 45.81
  A 1.54 1.52 63.3 0 0 23.16 46.12
  Q 28.39 46.07 31.21 42.02
  A 0.36 0.36 0.0 0 0 30.88 41.46"
/>
<path stroke="#c9b99d" vector-effect="non-scaling-stroke" d="
  M 31.98 45.39
  A 0.34 0.33 -22.6 0 0 31.41 45.16
  Q 29.43 47.16 26.38 48.00
  A 0.38 0.37 -40.0 0 0 26.31 48.70
  Q 28.44 49.69 31.39 49.97
  A 0.58 0.57 2.6 0 0 32.02 49.40
  L 31.98 45.39"
/>
<path stroke="#c9b99d" vector-effect="non-scaling-stroke" d="
  M 34.01 45.43
  L 34.01 49.44
  A 0.58 0.57 -3.1 0 0 34.65 50.01
  Q 37.60 49.70 39.72 48.68
  A 0.38 0.37 39.4 0 0 39.65 47.98
  Q 36.58 47.17 34.58 45.19
  A 0.34 0.34 0.0 0 0 34.01 45.43"
/>
</g>
<path fill="#4b3a1c" d="
  M 33.81 88.00
  L 33.03 88.00
  C 16.42 72.98 -7.92 42.19 5.16 18.19
  C 17.90 -5.20 51.95 -4.02 62.92 20.44
  C 66.91 29.32 65.82 40.19 62.33 49.05
  C 56.45 63.93 45.56 77.29 33.81 88.00
  Z
  M 33.39 86.69
  Q 33.50 86.69 33.60 86.67
  Q 33.62 86.66 33.75 86.54
  Q 44.95 76.07 53.44 63.49
  C 63.81 48.11 70.69 26.06 55.08 11.20
  Q 46.52 3.06 34.50 2.49
  Q 34.03 2.47 33.56 2.47
  Q 33.09 2.47 32.62 2.49
  Q 20.61 3.01 12.01 11.11
  C -3.66 25.91 3.13 47.98 13.44 63.41
  Q 21.87 76.02 33.03 86.54
  Q 33.16 86.66 33.17 86.67
  Q 33.28 86.69 33.39 86.69
  Z"
/>
<path fill="#92723a" d="
  M 33.56 2.47
  Q 34.03 2.47 34.50 2.49
  Q 46.52 3.06 55.08 11.20
  C 70.69 26.06 63.81 48.11 53.44 63.49
  Q 44.95 76.07 33.75 86.54
  Q 33.62 86.66 33.60 86.67
  Q 33.50 86.69 33.39 86.69
  Q 33.28 86.69 33.17 86.67
  Q 33.16 86.66 33.03 86.54
  Q 21.87 76.02 13.44 63.41
  C 3.13 47.98 -3.66 25.91 12.01 11.11
  Q 20.61 3.01 32.62 2.49
  Q 33.09 2.47 33.56 2.47
  Z
  M 51.31 34.00
  A 18.31 18.31 0.0 0 0 33.00 15.69
  A 18.31 18.31 0.0 0 0 14.69 34.00
  A 18.31 18.31 0.0 0 0 33.00 52.31
  A 18.31 18.31 0.0 0 0 51.31 34.00
  Z"
/>
<path fill="#ffffff" d="
  M 51.31 34.00
  A 18.31 18.31 0.0 0 1 33.00 52.31
  A 18.31 18.31 0.0 0 1 14.69 34.00
  A 18.31 18.31 0.0 0 1 33.00 15.69
  A 18.31 18.31 0.0 0 1 51.31 34.00
  Z
  M 30.10 18.11
  L 27.30 19.01
  A 0.59 0.59 0.0 0 0 26.92 19.75
  L 26.97 19.91
  A 3.92 2.01 72.3 0 0 30.07 23.03
  L 30.17 23.00
  A 3.92 2.01 72.3 0 0 30.89 18.66
  L 30.84 18.50
  A 0.59 0.59 0.0 0 0 30.10 18.11
  Z
  M 38.92 19.09
  L 35.71 18.03
  A 0.37 0.37 0.0 0 0 35.24 18.27
  L 35.17 18.48
  A 4.12 2.01 -71.8 0 0 35.80 23.03
  L 35.89 23.06
  A 4.12 2.01 -71.8 0 0 39.09 19.77
  L 39.16 19.55
  A 0.37 0.37 0.0 0 0 38.92 19.09
  Z
  M 24.2077 22.2543
  A 4.63 2.20 -107.5 0 0 23.5018 27.3316
  A 4.63 2.20 -107.5 0 0 26.9923 31.0857
  A 4.63 2.20 -107.5 0 0 27.6982 26.0084
  A 4.63 2.20 -107.5 0 0 24.2077 22.2543
  Z
  M 41.7923 22.2443
  A 4.63 2.21 -72.5 0 0 38.2923 25.9954
  A 4.63 2.21 -72.5 0 0 39.0077 31.0757
  A 4.63 2.21 -72.5 0 0 42.5077 27.3246
  A 4.63 2.21 -72.5 0 0 41.7923 22.2443
  Z
  M 30.33 29.78
  Q 30.33 32.71 32.78 35.17
  C 32.86 35.24 32.84 35.23 33.00 35.23
  C 33.16 35.23 33.15 35.24 33.22 35.17
  Q 35.66 32.70 35.66 29.78
  Q 35.66 26.85 33.20 24.39
  C 33.13 24.32 33.15 24.33 32.99 24.33
  C 32.82 24.33 32.84 24.32 32.77 24.39
  Q 30.32 26.86 30.33 29.78
  Z
  M 47.93 30.50
  A 1.27 1.26 60.1 0 0 48.39 28.78
  L 46.56 25.62
  A 0.34 0.33 -41.4 0 0 46.00 25.59
  Q 44.08 28.13 44.63 31.14
  A 0.82 0.81 69.8 0 0 45.84 31.70
  L 47.93 30.50
  Z
  M 18.04 30.49
  L 20.12 31.70
  A 0.81 0.81 0.0 0 0 21.33 31.15
  Q 21.90 28.16 20.01 25.61
  A 0.34 0.33 41.9 0 0 19.45 25.63
  L 17.60 28.77
  A 1.26 1.26 0.0 0 0 18.04 30.49
  Z
  M 17.54 37.73
  Q 18.22 38.14 20.98 36.39
  A 0.49 0.49 0.0 0 0 21.10 35.66
  Q 20.51 34.97 19.55 34.39
  Q 18.57 33.80 17.69 33.61
  A 0.49 0.49 0.0 0 0 17.09 34.05
  Q 16.85 37.32 17.54 37.73
  Z
  M 23.5353 34.0374
  A 4.46 2.11 -147.1 0 0 26.1339 38.2316
  A 4.46 2.11 -147.1 0 0 31.0247 38.8826
  A 4.46 2.11 -147.1 0 0 28.4261 34.6884
  A 4.46 2.11 -147.1 0 0 23.5353 34.0374
  Z
  M 42.4337 34.0418
  A 4.44 2.11 -33.0 0 0 37.5608 34.6904
  A 4.44 2.11 -33.0 0 0 34.9863 38.8782
  A 4.44 2.11 -33.0 0 0 39.8592 38.2296
  A 4.44 2.11 -33.0 0 0 42.4337 34.0418
  Z
  M 48.50 37.72
  Q 49.18 37.31 48.90 34.03
  A 0.50 0.49 -8.5 0 0 48.30 33.59
  Q 47.42 33.79 46.45 34.38
  Q 45.47 34.98 44.89 35.67
  A 0.50 0.49 -54.4 0 0 45.01 36.41
  Q 47.80 38.15 48.50 37.72
  Z
  M 35.12 41.46
  A 0.36 0.36 0.0 0 0 34.79 42.02
  Q 37.60 46.06 42.82 46.12
  A 1.54 1.52 -63.3 0 0 43.74 45.81
  Q 45.97 44.09 47.69 40.66
  A 0.51 0.51 0.0 0 0 47.35 39.93
  Q 45.42 39.47 44.04 38.38
  A 0.70 0.68 -49.9 0 0 43.09 38.47
  Q 40.02 41.96 35.12 41.46
  Z
  M 30.88 41.46
  Q 25.97 41.95 22.90 38.45
  A 0.70 0.69 50.0 0 0 21.95 38.36
  Q 20.56 39.45 18.63 39.91
  A 0.51 0.51 0.0 0 0 18.29 40.64
  Q 20.00 44.08 22.24 45.81
  A 1.54 1.52 63.3 0 0 23.16 46.12
  Q 28.39 46.07 31.21 42.02
  A 0.36 0.36 0.0 0 0 30.88 41.46
  Z
  M 31.98 45.39
  A 0.34 0.33 -22.6 0 0 31.41 45.16
  Q 29.43 47.16 26.38 48.00
  A 0.38 0.37 -40.0 0 0 26.31 48.70
  Q 28.44 49.69 31.39 49.97
  A 0.58 0.57 2.6 0 0 32.02 49.40
  L 31.98 45.39
  Z
  M 34.01 45.43
  L 34.01 49.44
  A 0.58 0.57 -3.1 0 0 34.65 50.01
  Q 37.60 49.70 39.72 48.68
  A 0.38 0.37 39.4 0 0 39.65 47.98
  Q 36.58 47.17 34.58 45.19
  A 0.34 0.34 0.0 0 0 34.01 45.43
  Z"
/>
<path fill="#92723a" d="
  M 30.10 18.11
  A 0.59 0.59 0.0 0 1 30.84 18.50
  L 30.89 18.66
  A 3.92 2.01 72.3 0 1 30.17 23.00
  L 30.07 23.03
  A 3.92 2.01 72.3 0 1 26.97 19.91
  L 26.92 19.75
  A 0.59 0.59 0.0 0 1 27.30 19.01
  L 30.10 18.11
  Z"
/>
<path fill="#92723a" d="
  M 38.92 19.09
  A 0.37 0.37 0.0 0 1 39.16 19.55
  L 39.09 19.77
  A 4.12 2.01 -71.8 0 1 35.89 23.06
  L 35.80 23.03
  A 4.12 2.01 -71.8 0 1 35.17 18.48
  L 35.24 18.27
  A 0.37 0.37 0.0 0 1 35.71 18.03
  L 38.92 19.09
  Z"
/>
<ellipse fill="#92723a" cx="0.00" cy="0.00" transform="translate(25.60,26.67) rotate(-107.5)" rx="4.63" ry="2.20"/>
<ellipse fill="#92723a" cx="0.00" cy="0.00" transform="translate(40.40,26.66) rotate(-72.5)" rx="4.63" ry="2.21"/>
<path fill="#92723a" d="
  M 32.99 24.33
  C 33.15 24.33 33.13 24.32 33.20 24.39
  Q 35.66 26.85 35.66 29.78
  Q 35.66 32.70 33.22 35.17
  C 33.15 35.24 33.16 35.23 33.00 35.23
  C 32.84 35.23 32.86 35.24 32.78 35.17
  Q 30.33 32.71 30.33 29.78
  Q 30.32 26.86 32.77 24.39
  C 32.84 24.32 32.82 24.33 32.99 24.33
  Z"
/>
<path fill="#92723a" d="
  M 44.63 31.14
  Q 44.08 28.13 46.00 25.59
  A 0.34 0.33 -41.4 0 1 46.56 25.62
  L 48.39 28.78
  A 1.27 1.26 60.1 0 1 47.93 30.50
  L 45.84 31.70
  A 0.82 0.81 69.8 0 1 44.63 31.14
  Z"
/>
<path fill="#92723a" d="
  M 18.04 30.49
  A 1.26 1.26 0.0 0 1 17.60 28.77
  L 19.45 25.63
  A 0.34 0.33 41.9 0 1 20.01 25.61
  Q 21.90 28.16 21.33 31.15
  A 0.81 0.81 0.0 0 1 20.12 31.70
  L 18.04 30.49
  Z"
/>
<path fill="#92723a" d="
  M 19.55 34.39
  Q 20.51 34.97 21.10 35.66
  A 0.49 0.49 0.0 0 1 20.98 36.39
  Q 18.22 38.14 17.54 37.73
  Q 16.85 37.32 17.09 34.05
  A 0.49 0.49 0.0 0 1 17.69 33.61
  Q 18.57 33.80 19.55 34.39
  Z"
/>
<ellipse fill="#92723a" cx="0.00" cy="0.00" transform="translate(27.28,36.46) rotate(-147.1)" rx="4.46" ry="2.11"/>
<ellipse fill="#92723a" cx="0.00" cy="0.00" transform="translate(38.71,36.46) rotate(-33.0)" rx="4.44" ry="2.11"/>
<path fill="#92723a" d="
  M 48.50 37.72
  Q 47.80 38.15 45.01 36.41
  A 0.50 0.49 -54.4 0 1 44.89 35.67
  Q 45.47 34.98 46.45 34.38
  Q 47.42 33.79 48.30 33.59
  A 0.50 0.49 -8.5 0 1 48.90 34.03
  Q 49.18 37.31 48.50 37.72
  Z"
/>
<path fill="#92723a" d="
  M 35.12 41.46
  Q 40.02 41.96 43.09 38.47
  A 0.70 0.68 -49.9 0 1 44.04 38.38
  Q 45.42 39.47 47.35 39.93
  A 0.51 0.51 0.0 0 1 47.69 40.66
  Q 45.97 44.09 43.74 45.81
  A 1.54 1.52 -63.3 0 1 42.82 46.12
  Q 37.60 46.06 34.79 42.02
  A 0.36 0.36 0.0 0 1 35.12 41.46
  Z"
/>
<path fill="#92723a" d="
  M 30.88 41.46
  A 0.36 0.36 0.0 0 1 31.21 42.02
  Q 28.39 46.07 23.16 46.12
  A 1.54 1.52 63.3 0 1 22.24 45.81
  Q 20.00 44.08 18.29 40.64
  A 0.51 0.51 0.0 0 1 18.63 39.91
  Q 20.56 39.45 21.95 38.36
  A 0.70 0.69 50.0 0 1 22.90 38.45
  Q 25.97 41.95 30.88 41.46
  Z"
/>
<path fill="#92723a" d="
  M 31.98 45.39
  L 32.02 49.40
  A 0.58 0.57 2.6 0 1 31.39 49.97
  Q 28.44 49.69 26.31 48.70
  A 0.38 0.37 -40.0 0 1 26.38 48.00
  Q 29.43 47.16 31.41 45.16
  A 0.34 0.33 -22.6 0 1 31.98 45.39
  Z"
/>
<path fill="#92723a" d="
  M 34.58 45.19
  Q 36.58 47.17 39.65 47.98
  A 0.38 0.37 39.4 0 1 39.72 48.68
  Q 37.60 49.70 34.65 50.01
  A 0.58 0.57 -3.1 0 1 34.01 49.44
  L 34.01 45.43
  A 0.34 0.34 0.0 0 1 34.58 45.19
  Z"
/>
</svg>
