<?xml version="1.0" encoding="UTF-8" standalone="no"?>
<!DOCTYPE svg PUBLIC "-//W3C//DTD SVG 1.1//EN" "http://www.w3.org/Graphics/SVG/1.1/DTD/svg11.dtd">
<svg xmlns="http://www.w3.org/2000/svg" version="1.1" viewBox="0.00 0.00 66.00 88.00">
<g stroke-width="2.00" fill="none" stroke-linecap="butt">
<path stroke="#80242a" vector-effect="non-scaling-stroke" d="
  M 33.43 86.68
  Q 33.53 86.68 33.62 86.66
  Q 33.64 86.66 33.76 86.55
  C 46.79 74.42 60.75 57.06 63.68 39.50
  C 66.24 24.10 59.38 10.68 44.85 4.68
  Q 39.53 2.48 33.51 2.48
  Q 27.49 2.47 22.16 4.66
  C 7.62 10.63 0.73 24.04 3.26 39.44
  C 6.16 57.01 20.09 74.40 33.10 86.55
  Q 33.22 86.66 33.23 86.66
  Q 33.32 86.68 33.43 86.68"
/>
<path stroke="#d4989c" vector-effect="non-scaling-stroke" d="
  M 33.34 23.17
  Q 33.38 23.16 33.41 23.16
  A 0.21 0.17 4.7 0 0 33.55 23.07
  Q 35.08 19.99 38.60 18.94
  A 0.34 0.34 0.0 0 0 38.75 18.39
  Q 36.39 15.75 33.32 15.76
  Q 30.26 15.77 27.90 18.42
  A 0.34 0.34 0.0 0 0 28.06 18.97
  Q 31.59 20.00 33.13 23.07
  A 0.21 0.17 -5.1 0 0 33.27 23.16
  Q 33.31 23.17 33.34 23.17"
/>
<path stroke="#d4989c" vector-effect="non-scaling-stroke" d="
  M 33.33 42.67
  Q 33.70 42.67 34.26 43.56
  A 0.38 0.37 -54.7 0 0 34.94 43.44
  L 35.25 42.12
  A 2.47 2.47 0.0 0 1 35.93 40.90
  L 39.66 37.16
  A 0.67 0.66 49.1 0 0 39.72 36.28
  Q 38.58 34.77 39.09 31.85
  A 0.26 0.26 0.0 0 1 39.59 31.81
  Q 41.36 36.46 45.53 37.65
  A 0.30 0.30 0.0 0 0 45.82 37.14
  Q 42.09 33.67 41.65 27.53
  Q 41.53 25.88 39.40 25.75
  A 0.50 0.49 9.8 0 1 38.95 25.12
  Q 39.46 23.37 41.11 21.94
  A 0.24 0.24 0.0 0 0 40.95 21.52
  Q 36.55 21.59 35.90 25.35
  A 0.71 0.71 0.0 0 1 35.29 25.93
  Q 34.77 26.00 33.33 26.00
  Q 31.89 26.00 31.37 25.93
  A 0.71 0.71 0.0 0 1 30.76 25.35
  Q 30.11 21.59 25.71 21.52
  A 0.24 0.24 0.0 0 0 25.55 21.94
  Q 27.20 23.37 27.71 25.12
  A 0.50 0.49 -9.8 0 1 27.26 25.75
  Q 25.13 25.88 25.01 27.53
  Q 24.57 33.67 20.84 37.14
  A 0.30 0.30 0.0 0 0 21.13 37.65
  Q 25.30 36.46 27.07 31.81
  A 0.26 0.26 0.0 0 1 27.57 31.85
  Q 28.08 34.77 26.94 36.28
  A 0.67 0.66 -49.2 0 0 27.00 37.16
  L 30.73 40.90
  A 2.47 2.47 0.0 0 1 31.41 42.12
  L 31.72 43.44
  A 0.38 0.37 54.7 0 0 32.40 43.56
  Q 32.96 42.67 33.33 42.67"
/>
<path stroke="#d4989c" vector-effect="non-scaling-stroke" d="
  M 33.31 46.93
  Q 32.89 46.94 31.07 49.48
  A 0.29 0.29 0.0 0 1 30.57 49.41
  Q 29.95 47.71 29.02 43.79
  Q 28.69 42.43 25.95 40.10
  A 0.33 0.33 0.0 0 0 25.41 40.33
  L 24.80 51.56
  A 0.62 0.62 0.0 0 0 25.40 52.21
  Q 26.24 52.24 33.32 52.23
  Q 40.41 52.22 41.25 52.19
  A 0.62 0.62 0.0 0 0 41.84 51.54
  L 41.20 40.31
  A 0.33 0.33 0.0 0 0 40.66 40.08
  Q 37.93 42.42 37.60 43.78
  Q 36.68 47.70 36.07 49.40
  A 0.29 0.29 0.0 0 1 35.57 49.48
  Q 33.74 46.93 33.31 46.93"
/>
<path stroke="#d4989c" vector-effect="non-scaling-stroke" d="
  M 29.1147 33.2831
  A 1.56 0.91 -162.2 0 0 30.3218 34.6264
  A 1.56 0.91 -162.2 0 0 32.0853 34.2369
  A 1.56 0.91 -162.2 0 0 30.8782 32.8936
  A 1.56 0.91 -162.2 0 0 29.1147 33.2831"
/>
<path stroke="#d4989c" vector-effect="non-scaling-stroke" d="
  M 37.6103 33.2352
  A 1.58 0.93 -19.4 0 0 35.8111 32.8828
  A 1.58 0.93 -19.4 0 0 34.6297 34.2848
  A 1.58 0.93 -19.4 0 0 36.4289 34.6372
  A 1.58 0.93 -19.4 0 0 37.6103 33.2352"
/>
<path stroke="#d4989c" vector-effect="non-scaling-stroke" d="
  M 33.34 40.91
  Q 33.38 40.91 33.42 40.91
  A 0.19 0.04 -1.8 0 0 33.57 40.87
  L 37.40 35.86
  A 0.17 0.16 -2.0 0 0 37.16 35.64
  Q 35.23 37.31 33.53 38.49
  A 0.15 0.03 3.2 0 1 33.41 38.51
  Q 33.38 38.51 33.35 38.51
  Q 33.31 38.51 33.28 38.51
  A 0.15 0.03 -2.8 0 1 33.16 38.49
  Q 31.47 37.30 29.55 35.61
  A 0.17 0.16 2.4 0 0 29.31 35.83
  L 33.11 40.87
  A 0.19 0.04 2.2 0 0 33.26 40.91
  Q 33.30 40.91 33.34 40.91"
/>
</g>
<path fill="#58171a" d="
  M 33.81 88.00
  L 33.04 88.00
  C 21.87 77.85 11.77 65.41 5.62 51.44
  Q 2.15 43.58 1.56 35.02
  Q 0.96 26.44 4.94 18.65
  Q 11.52 5.75 26.71 2.02
  Q 34.12 0.20 42.84 2.72
  Q 50.87 5.04 56.59 11.06
  Q 67.90 22.98 64.84 39.75
  Q 62.55 52.29 54.57 64.07
  Q 45.68 77.20 33.81 88.00
  Z
  M 33.43 86.68
  Q 33.53 86.68 33.62 86.66
  Q 33.64 86.66 33.76 86.55
  C 46.79 74.42 60.75 57.06 63.68 39.50
  C 66.24 24.10 59.38 10.68 44.85 4.68
  Q 39.53 2.48 33.51 2.48
  Q 27.49 2.47 22.16 4.66
  C 7.62 10.63 0.73 24.04 3.26 39.44
  C 6.16 57.01 20.09 74.40 33.10 86.55
  Q 33.22 86.66 33.23 86.66
  Q 33.32 86.68 33.43 86.68
  Z"
/>
<path fill="#a83139" d="
  M 33.51 2.48
  Q 39.53 2.48 44.85 4.68
  C 59.38 10.68 66.24 24.10 63.68 39.50
  C 60.75 57.06 46.79 74.42 33.76 86.55
  Q 33.64 86.66 33.62 86.66
  Q 33.53 86.68 33.43 86.68
  Q 33.32 86.68 33.23 86.66
  Q 33.22 86.66 33.10 86.55
  C 20.09 74.40 6.16 57.01 3.26 39.44
  C 0.73 24.04 7.62 10.63 22.16 4.66
  Q 27.49 2.47 33.51 2.48
  Z
  M 33.34 23.17
  Q 33.38 23.16 33.41 23.16
  A 0.21 0.17 4.7 0 0 33.55 23.07
  Q 35.08 19.99 38.60 18.94
  A 0.34 0.34 0.0 0 0 38.75 18.39
  Q 36.39 15.75 33.32 15.76
  Q 30.26 15.77 27.90 18.42
  A 0.34 0.34 0.0 0 0 28.06 18.97
  Q 31.59 20.00 33.13 23.07
  A 0.21 0.17 -5.1 0 0 33.27 23.16
  Q 33.31 23.17 33.34 23.17
  Z
  M 33.33 42.67
  Q 33.70 42.67 34.26 43.56
  A 0.38 0.37 -54.7 0 0 34.94 43.44
  L 35.25 42.12
  A 2.47 2.47 0.0 0 1 35.93 40.90
  L 39.66 37.16
  A 0.67 0.66 49.1 0 0 39.72 36.28
  Q 38.58 34.77 39.09 31.85
  A 0.26 0.26 0.0 0 1 39.59 31.81
  Q 41.36 36.46 45.53 37.65
  A 0.30 0.30 0.0 0 0 45.82 37.14
  Q 42.09 33.67 41.65 27.53
  Q 41.53 25.88 39.40 25.75
  A 0.50 0.49 9.8 0 1 38.95 25.12
  Q 39.46 23.37 41.11 21.94
  A 0.24 0.24 0.0 0 0 40.95 21.52
  Q 36.55 21.59 35.90 25.35
  A 0.71 0.71 0.0 0 1 35.29 25.93
  Q 34.77 26.00 33.33 26.00
  Q 31.89 26.00 31.37 25.93
  A 0.71 0.71 0.0 0 1 30.76 25.35
  Q 30.11 21.59 25.71 21.52
  A 0.24 0.24 0.0 0 0 25.55 21.94
  Q 27.20 23.37 27.71 25.12
  A 0.50 0.49 -9.8 0 1 27.26 25.75
  Q 25.13 25.88 25.01 27.53
  Q 24.57 33.67 20.84 37.14
  A 0.30 0.30 0.0 0 0 21.13 37.65
  Q 25.30 36.46 27.07 31.81
  A 0.26 0.26 0.0 0 1 27.57 31.85
  Q 28.08 34.77 26.94 36.28
  A 0.67 0.66 -49.2 0 0 27.00 37.16
  L 30.73 40.90
  A 2.47 2.47 0.0 0 1 31.41 42.12
  L 31.72 43.44
  A 0.38 0.37 54.7 0 0 32.40 43.56
  Q 32.96 42.67 33.33 42.67
  Z
  M 33.31 46.93
  Q 32.89 46.94 31.07 49.48
  A 0.29 0.29 0.0 0 1 30.57 49.41
  Q 29.95 47.71 29.02 43.79
  Q 28.69 42.43 25.95 40.10
  A 0.33 0.33 0.0 0 0 25.41 40.33
  L 24.80 51.56
  A 0.62 0.62 0.0 0 0 25.40 52.21
  Q 26.24 52.24 33.32 52.23
  Q 40.41 52.22 41.25 52.19
  A 0.62 0.62 0.0 0 0 41.84 51.54
  L 41.20 40.31
  A 0.33 0.33 0.0 0 0 40.66 40.08
  Q 37.93 42.42 37.60 43.78
  Q 36.68 47.70 36.07 49.40
  A 0.29 0.29 0.0 0 1 35.57 49.48
  Q 33.74 46.93 33.31 46.93
  Z"
/>
<path fill="#ffffff" d="
  M 33.32 15.76
  Q 36.39 15.75 38.75 18.39
  A 0.34 0.34 0.0 0 1 38.60 18.94
  Q 35.08 19.99 33.55 23.07
  A 0.21 0.17 4.7 0 1 33.41 23.16
  Q 33.38 23.16 33.34 23.17
  Q 33.31 23.17 33.27 23.16
  A 0.21 0.17 -5.1 0 1 33.13 23.07
  Q 31.59 20.00 28.06 18.97
  A 0.34 0.34 0.0 0 1 27.90 18.42
  Q 30.26 15.77 33.32 15.76
  Z"
/>
<path fill="#ffffff" d="
  M 33.33 26.00
  Q 34.77 26.00 35.29 25.93
  A 0.71 0.71 0.0 0 0 35.90 25.35
  Q 36.55 21.59 40.95 21.52
  A 0.24 0.24 0.0 0 1 41.11 21.94
  Q 39.46 23.37 38.95 25.12
  A 0.50 0.49 9.8 0 0 39.40 25.75
  Q 41.53 25.88 41.65 27.53
  Q 42.09 33.67 45.82 37.14
  A 0.30 0.30 0.0 0 1 45.53 37.65
  Q 41.36 36.46 39.59 31.81
  A 0.26 0.26 0.0 0 0 39.09 31.85
  Q 38.58 34.77 39.72 36.28
  A 0.67 0.66 49.1 0 1 39.66 37.16
  L 35.93 40.90
  A 2.47 2.47 0.0 0 0 35.25 42.12
  L 34.94 43.44
  A 0.38 0.37 -54.7 0 1 34.26 43.56
  Q 33.70 42.67 33.33 42.67
  Q 32.96 42.67 32.40 43.56
  A 0.38 0.37 54.7 0 1 31.72 43.44
  L 31.41 42.12
  A 2.47 2.47 0.0 0 0 30.73 40.90
  L 27.00 37.16
  A 0.67 0.66 -49.2 0 1 26.94 36.28
  Q 28.08 34.77 27.57 31.85
  A 0.26 0.26 0.0 0 0 27.07 31.81
  Q 25.30 36.46 21.13 37.65
  A 0.30 0.30 0.0 0 1 20.84 37.14
  Q 24.57 33.67 25.01 27.53
  Q 25.13 25.88 27.26 25.75
  A 0.50 0.49 -9.8 0 0 27.71 25.12
  Q 27.20 23.37 25.55 21.94
  A 0.24 0.24 0.0 0 1 25.71 21.52
  Q 30.11 21.59 30.76 25.35
  A 0.71 0.71 0.0 0 0 31.37 25.93
  Q 31.89 26.00 33.33 26.00
  Z
  M 29.1147 33.2831
  A 1.56 0.91 -162.2 0 0 30.3218 34.6264
  A 1.56 0.91 -162.2 0 0 32.0853 34.2369
  A 1.56 0.91 -162.2 0 0 30.8782 32.8936
  A 1.56 0.91 -162.2 0 0 29.1147 33.2831
  Z
  M 37.6103 33.2352
  A 1.58 0.93 -19.4 0 0 35.8111 32.8828
  A 1.58 0.93 -19.4 0 0 34.6297 34.2848
  A 1.58 0.93 -19.4 0 0 36.4289 34.6372
  A 1.58 0.93 -19.4 0 0 37.6103 33.2352
  Z
  M 33.34 40.91
  Q 33.38 40.91 33.42 40.91
  A 0.19 0.04 -1.8 0 0 33.57 40.87
  L 37.40 35.86
  A 0.17 0.16 -2.0 0 0 37.16 35.64
  Q 35.23 37.31 33.53 38.49
  A 0.15 0.03 3.2 0 1 33.41 38.51
  Q 33.38 38.51 33.35 38.51
  Q 33.31 38.51 33.28 38.51
  A 0.15 0.03 -2.8 0 1 33.16 38.49
  Q 31.47 37.30 29.55 35.61
  A 0.17 0.16 2.4 0 0 29.31 35.83
  L 33.11 40.87
  A 0.19 0.04 2.2 0 0 33.26 40.91
  Q 33.30 40.91 33.34 40.91
  Z"
/>
<ellipse fill="#a83139" cx="0.00" cy="0.00" transform="translate(30.60,33.76) rotate(-162.2)" rx="1.56" ry="0.91"/>
<ellipse fill="#a83139" cx="0.00" cy="0.00" transform="translate(36.12,33.76) rotate(-19.4)" rx="1.58" ry="0.93"/>
<path fill="#a83139" d="
  M 33.35 38.51
  Q 33.38 38.51 33.41 38.51
  A 0.15 0.03 3.2 0 0 33.53 38.49
  Q 35.23 37.31 37.16 35.64
  A 0.17 0.16 -2.0 0 1 37.40 35.86
  L 33.57 40.87
  A 0.19 0.04 -1.8 0 1 33.42 40.91
  Q 33.38 40.91 33.34 40.91
  Q 33.30 40.91 33.26 40.91
  A 0.19 0.04 2.2 0 1 33.11 40.87
  L 29.31 35.83
  A 0.17 0.16 2.4 0 1 29.55 35.61
  Q 31.47 37.30 33.16 38.49
  A 0.15 0.03 -2.8 0 0 33.28 38.51
  Q 33.31 38.51 33.35 38.51
  Z"
/>
<path fill="#ffffff" d="
  M 33.32 52.23
  Q 26.24 52.24 25.40 52.21
  A 0.62 0.62 0.0 0 1 24.80 51.56
  L 25.41 40.33
  A 0.33 0.33 0.0 0 1 25.95 40.10
  Q 28.69 42.43 29.02 43.79
  Q 29.95 47.71 30.57 49.41
  A 0.29 0.29 0.0 0 0 31.07 49.48
  Q 32.89 46.94 33.31 46.93
  Q 33.74 46.93 35.57 49.48
  A 0.29 0.29 0.0 0 0 36.07 49.40
  Q 36.68 47.70 37.60 43.78
  Q 37.93 42.42 40.66 40.08
  A 0.33 0.33 0.0 0 1 41.20 40.31
  L 41.84 51.54
  A 0.62 0.62 0.0 0 1 41.25 52.19
  Q 40.41 52.22 33.32 52.23
  Z"
/>
</svg>
