<?xml version="1.0" encoding="UTF-8" standalone="no"?>
<!DOCTYPE svg PUBLIC "-//W3C//DTD SVG 1.1//EN" "http://www.w3.org/Graphics/SVG/1.1/DTD/svg11.dtd">
<svg xmlns="http://www.w3.org/2000/svg" version="1.1" viewBox="0.00 0.00 66.00 88.00">
<g stroke-width="2.00" fill="none" stroke-linecap="butt">
<path stroke="#80242a" vector-effect="non-scaling-stroke" d="
  M 33.41 86.68
  Q 33.51 86.68 33.61 86.66
  Q 33.69 86.65 33.77 86.57
  C 50.22 71.06 73.51 41.86 60.50 18.27
  C 55.21 8.66 44.63 2.48 33.52 2.47
  C 22.41 2.45 11.82 8.60 6.49 18.20
  C -6.58 41.75 16.64 71.01 33.04 86.57
  Q 33.12 86.65 33.20 86.66
  Q 33.31 86.68 33.41 86.68"
/>
<path stroke="#d4989c" vector-effect="non-scaling-stroke" d="
  M 51.27 34.01
  A 18.29 18.29 0.0 0 0 32.98 15.72
  A 18.29 18.29 0.0 0 0 14.69 34.01
  A 18.29 18.29 0.0 0 0 32.98 52.30
  A 18.29 18.29 0.0 0 0 51.27 34.01"
/>
<path stroke="#d4989c" vector-effect="non-scaling-stroke" d="
  M 39.47 38.90
  C 37.08 43.65 31.47 45.52 26.35 44.24
  Q 25.61 44.05 24.73 44.49
  Q 23.35 45.17 23.23 45.33
  A 0.60 0.59 38.7 0 0 23.33 46.18
  Q 27.20 49.19 31.20 49.38
  A 2.53 2.46 -53.3 0 0 32.25 49.21
  Q 37.68 47.14 40.07 42.67
  A 0.33 0.33 0.0 0 1 40.69 42.76
  Q 41.02 44.51 40.11 47.19
  A 0.37 0.37 0.0 0 0 40.66 47.62
  Q 44.00 45.55 46.22 42.24
  A 0.59 0.59 0.0 0 0 45.89 41.35
  C 42.42 40.32 40.78 37.67 40.75 34.19
  C 40.71 30.31 38.11 26.90 34.30 26.70
  A 0.19 0.19 0.0 0 1 34.23 26.34
  Q 35.58 25.66 37.66 26.37
  C 42.14 27.89 44.03 31.77 45.88 35.61
  Q 46.11 36.08 47.80 36.72
  A 0.45 0.45 0.0 0 0 48.41 36.36
  C 48.76 34.14 48.67 28.97 46.51 27.08
  Q 42.28 23.39 36.83 23.60
  A 0.29 0.29 0.0 0 1 36.63 23.09
  Q 37.98 21.87 40.96 21.23
  A 0.29 0.28 55.2 0 0 41.05 20.71
  Q 37.61 18.59 33.67 18.48
  A 0.71 0.71 0.0 0 0 32.96 19.33
  C 33.76 23.27 31.87 25.59 28.53 27.86
  Q 24.19 30.81 25.69 36.80
  A 0.19 0.19 0.0 0 1 25.34 36.95
  C 22.10 31.50 24.45 27.31 27.61 22.66
  Q 27.95 22.16 28.00 21.31
  Q 28.05 20.34 27.97 19.86
  A 0.50 0.50 0.0 0 0 27.28 19.48
  Q 23.59 21.07 20.89 24.14
  A 2.38 2.29 -18.9 0 0 20.35 25.19
  Q 19.01 31.15 21.97 35.66
  A 0.37 0.37 0.0 0 1 21.58 36.22
  Q 20.17 35.89 18.06 33.66
  A 0.34 0.33 24.1 0 0 17.48 33.88
  Q 17.37 37.75 19.25 41.23
  A 0.63 0.63 0.0 0 0 20.21 41.41
  C 23.55 38.61 26.18 39.25 30.05 41.02
  Q 34.78 43.19 39.31 38.78
  A 0.10 0.10 0.0 0 1 39.47 38.90"
/>
<path stroke="#d4989c" vector-effect="non-scaling-stroke" d="
  M 38.00 33.99
  A 5.01 5.01 0.0 0 0 32.99 28.98
  A 5.01 5.01 0.0 0 0 27.98 33.99
  A 5.01 5.01 0.0 0 0 32.99 39.00
  A 5.01 5.01 0.0 0 0 38.00 33.99"
/>
</g>
<path fill="#58171b" d="
  M 33.81 88.00
  L 33.15 88.00
  Q 15.61 72.49 6.00 52.51
  Q 2.31 44.84 1.62 35.22
  Q 0.94 25.67 5.27 17.98
  C 18.07 -4.77 50.85 -4.22 62.57 19.69
  C 66.93 28.58 65.93 39.80 62.41 48.85
  C 56.62 63.75 45.57 77.30 33.81 88.00
  Z
  M 33.41 86.68
  Q 33.51 86.68 33.61 86.66
  Q 33.69 86.65 33.77 86.57
  C 50.22 71.06 73.51 41.86 60.50 18.27
  C 55.21 8.66 44.63 2.48 33.52 2.47
  C 22.41 2.45 11.82 8.60 6.49 18.20
  C -6.58 41.75 16.64 71.01 33.04 86.57
  Q 33.12 86.65 33.20 86.66
  Q 33.31 86.68 33.41 86.68
  Z"
/>
<path fill="#a83139" d="
  M 33.52 2.47
  C 44.63 2.48 55.21 8.66 60.50 18.27
  C 73.51 41.86 50.22 71.06 33.77 86.57
  Q 33.69 86.65 33.61 86.66
  Q 33.51 86.68 33.41 86.68
  Q 33.31 86.68 33.20 86.66
  Q 33.12 86.65 33.04 86.57
  C 16.64 71.01 -6.58 41.75 6.49 18.20
  C 11.82 8.60 22.41 2.45 33.52 2.47
  Z
  M 51.27 34.01
  A 18.29 18.29 0.0 0 0 32.98 15.72
  A 18.29 18.29 0.0 0 0 14.69 34.01
  A 18.29 18.29 0.0 0 0 32.98 52.30
  A 18.29 18.29 0.0 0 0 51.27 34.01
  Z"
/>
<path fill="#ffffff" d="
  M 51.27 34.01
  A 18.29 18.29 0.0 0 1 32.98 52.30
  A 18.29 18.29 0.0 0 1 14.69 34.01
  A 18.29 18.29 0.0 0 1 32.98 15.72
  A 18.29 18.29 0.0 0 1 51.27 34.01
  Z
  M 39.47 38.90
  C 37.08 43.65 31.47 45.52 26.35 44.24
  Q 25.61 44.05 24.73 44.49
  Q 23.35 45.17 23.23 45.33
  A 0.60 0.59 38.7 0 0 23.33 46.18
  Q 27.20 49.19 31.20 49.38
  A 2.53 2.46 -53.3 0 0 32.25 49.21
  Q 37.68 47.14 40.07 42.67
  A 0.33 0.33 0.0 0 1 40.69 42.76
  Q 41.02 44.51 40.11 47.19
  A 0.37 0.37 0.0 0 0 40.66 47.62
  Q 44.00 45.55 46.22 42.24
  A 0.59 0.59 0.0 0 0 45.89 41.35
  C 42.42 40.32 40.78 37.67 40.75 34.19
  C 40.71 30.31 38.11 26.90 34.30 26.70
  A 0.19 0.19 0.0 0 1 34.23 26.34
  Q 35.58 25.66 37.66 26.37
  C 42.14 27.89 44.03 31.77 45.88 35.61
  Q 46.11 36.08 47.80 36.72
  A 0.45 0.45 0.0 0 0 48.41 36.36
  C 48.76 34.14 48.67 28.97 46.51 27.08
  Q 42.28 23.39 36.83 23.60
  A 0.29 0.29 0.0 0 1 36.63 23.09
  Q 37.98 21.87 40.96 21.23
  A 0.29 0.28 55.2 0 0 41.05 20.71
  Q 37.61 18.59 33.67 18.48
  A 0.71 0.71 0.0 0 0 32.96 19.33
  C 33.76 23.27 31.87 25.59 28.53 27.86
  Q 24.19 30.81 25.69 36.80
  A 0.19 0.19 0.0 0 1 25.34 36.95
  C 22.10 31.50 24.45 27.31 27.61 22.66
  Q 27.95 22.16 28.00 21.31
  Q 28.05 20.34 27.97 19.86
  A 0.50 0.50 0.0 0 0 27.28 19.48
  Q 23.59 21.07 20.89 24.14
  A 2.38 2.29 -18.9 0 0 20.35 25.19
  Q 19.01 31.15 21.97 35.66
  A 0.37 0.37 0.0 0 1 21.58 36.22
  Q 20.17 35.89 18.06 33.66
  A 0.34 0.33 24.1 0 0 17.48 33.88
  Q 17.37 37.75 19.25 41.23
  A 0.63 0.63 0.0 0 0 20.21 41.41
  C 23.55 38.61 26.18 39.25 30.05 41.02
  Q 34.78 43.19 39.31 38.78
  A 0.10 0.10 0.0 0 1 39.47 38.90
  Z"
/>
<path fill="#a83139" d="
  M 39.47 38.90
  A 0.10 0.10 0.0 0 0 39.31 38.78
  Q 34.78 43.19 30.05 41.02
  C 26.18 39.25 23.55 38.61 20.21 41.41
  A 0.63 0.63 0.0 0 1 19.25 41.23
  Q 17.37 37.75 17.48 33.88
  A 0.34 0.33 24.1 0 1 18.06 33.66
  Q 20.17 35.89 21.58 36.22
  A 0.37 0.37 0.0 0 0 21.97 35.66
  Q 19.01 31.15 20.35 25.19
  A 2.38 2.29 -18.9 0 1 20.89 24.14
  Q 23.59 21.07 27.28 19.48
  A 0.50 0.50 0.0 0 1 27.97 19.86
  Q 28.05 20.34 28.00 21.31
  Q 27.95 22.16 27.61 22.66
  C 24.45 27.31 22.10 31.50 25.34 36.95
  A 0.19 0.19 0.0 0 0 25.69 36.80
  Q 24.19 30.81 28.53 27.86
  C 31.87 25.59 33.76 23.27 32.96 19.33
  A 0.71 0.71 0.0 0 1 33.67 18.48
  Q 37.61 18.59 41.05 20.71
  A 0.29 0.28 55.2 0 1 40.96 21.23
  Q 37.98 21.87 36.63 23.09
  A 0.29 0.29 0.0 0 0 36.83 23.60
  Q 42.28 23.39 46.51 27.08
  C 48.67 28.97 48.76 34.14 48.41 36.36
  A 0.45 0.45 0.0 0 1 47.80 36.72
  Q 46.11 36.08 45.88 35.61
  C 44.03 31.77 42.14 27.89 37.66 26.37
  Q 35.58 25.66 34.23 26.34
  A 0.19 0.19 0.0 0 0 34.30 26.70
  C 38.11 26.90 40.71 30.31 40.75 34.19
  C 40.78 37.67 42.42 40.32 45.89 41.35
  A 0.59 0.59 0.0 0 1 46.22 42.24
  Q 44.00 45.55 40.66 47.62
  A 0.37 0.37 0.0 0 1 40.11 47.19
  Q 41.02 44.51 40.69 42.76
  A 0.33 0.33 0.0 0 0 40.07 42.67
  Q 37.68 47.14 32.25 49.21
  A 2.53 2.46 -53.3 0 1 31.20 49.38
  Q 27.20 49.19 23.33 46.18
  A 0.60 0.59 38.7 0 1 23.23 45.33
  Q 23.35 45.17 24.73 44.49
  Q 25.61 44.05 26.35 44.24
  C 31.47 45.52 37.08 43.65 39.47 38.90
  Z
  M 38.00 33.99
  A 5.01 5.01 0.0 0 0 32.99 28.98
  A 5.01 5.01 0.0 0 0 27.98 33.99
  A 5.01 5.01 0.0 0 0 32.99 39.00
  A 5.01 5.01 0.0 0 0 38.00 33.99
  Z"
/>
<circle fill="#ffffff" cx="32.99" cy="33.99" r="5.01"/>
</svg>
