<?xml version="1.0" encoding="UTF-8" standalone="no"?>
<!DOCTYPE svg PUBLIC "-//W3C//DTD SVG 1.1//EN" "http://www.w3.org/Graphics/SVG/1.1/DTD/svg11.dtd">
<svg xmlns="http://www.w3.org/2000/svg" version="1.1" viewBox="0.00 0.00 66.00 88.00">
<g stroke-width="2.00" fill="none" stroke-linecap="butt">
<path stroke="#2a5d6e" vector-effect="non-scaling-stroke" d="
  M 33.41 86.72
  Q 33.52 86.72 33.62 86.69
  Q 33.70 86.67 33.78 86.60
  Q 48.59 72.79 57.63 56.40
  C 64.65 43.68 67.68 27.67 58.75 15.51
  Q 49.81 3.33 34.51 2.50
  Q 34.01 2.47 33.53 2.47
  Q 33.05 2.47 32.55 2.49
  Q 17.25 3.28 8.27 15.44
  C -0.69 27.57 2.29 43.59 9.28 56.33
  Q 18.27 72.75 33.04 86.60
  Q 33.12 86.67 33.20 86.69
  Q 33.30 86.72 33.41 86.72"
/>
<path stroke="#9dbdc8" vector-effect="non-scaling-stroke" d="
  M 16.65 28.63
  C 23.90 35.62 31.47 28.12 39.63 27.76
  Q 45.61 27.50 51.08 32.01
  A 0.10 0.10 0.0 0 0 51.25 31.93
  L 51.25 25.69
  A 0.80 0.80 0.0 0 0 51.04 25.15
  C 47.74 21.65 43.32 18.39 38.35 19.94
  Q 35.45 20.85 32.97 21.87
  C 27.00 24.34 20.72 23.11 15.28 19.58
  A 0.28 0.28 0.0 0 0 14.89 19.96
  C 18.60 25.54 25.57 27.41 31.84 25.75
  A 0.24 0.24 0.0 0 1 32.02 26.18
  Q 24.85 30.42 16.89 28.21
  A 0.25 0.25 0.0 0 0 16.65 28.63"
/>
<path stroke="#9dbdc8" vector-effect="non-scaling-stroke" d="
  M 34.74 32.06
  L 31.13 33.35
  A 0.82 0.82 0.0 0 0 30.65 34.44
  Q 32.54 39.05 30.79 42.89
  C 27.65 49.75 37.23 49.39 35.36 44.18
  Q 34.00 40.37 33.99 39.64
  A 7.00 6.79 51.3 0 1 34.13 38.16
  L 35.28 32.54
  A 0.42 0.41 86.4 0 0 34.74 32.06"
/>
</g>
<path fill="#1a3f4b" d="
  M 33.81 88.00
  L 33.04 88.00
  C 21.94 77.91 11.93 65.51 5.64 51.57
  Q 2.23 44.01 1.60 34.89
  C 0.50 19.01 11.25 5.64 26.49 2.10
  C 41.28 -1.33 56.62 6.29 62.97 20.58
  C 66.64 28.86 65.92 38.66 63.04 47.01
  C 57.66 62.61 45.94 76.92 33.81 88.00
  Z
  M 33.41 86.72
  Q 33.52 86.72 33.62 86.69
  Q 33.70 86.67 33.78 86.60
  Q 48.59 72.79 57.63 56.40
  C 64.65 43.68 67.68 27.67 58.75 15.51
  Q 49.81 3.33 34.51 2.50
  Q 34.01 2.47 33.53 2.47
  Q 33.05 2.47 32.55 2.49
  Q 17.25 3.28 8.27 15.44
  C -0.69 27.57 2.29 43.59 9.28 56.33
  Q 18.27 72.75 33.04 86.60
  Q 33.12 86.67 33.20 86.69
  Q 33.30 86.72 33.41 86.72
  Z"
/>
<path fill="#3a7a91" d="
  M 33.53 2.47
  Q 34.01 2.47 34.51 2.50
  Q 49.81 3.33 58.75 15.51
  C 67.68 27.67 64.65 43.68 57.63 56.40
  Q 48.59 72.79 33.78 86.60
  Q 33.70 86.67 33.62 86.69
  Q 33.52 86.72 33.41 86.72
  Q 33.30 86.72 33.20 86.69
  Q 33.12 86.67 33.04 86.60
  Q 18.27 72.75 9.28 56.33
  C 2.29 43.59 -0.69 27.57 8.27 15.44
  Q 17.25 3.28 32.55 2.49
  Q 33.05 2.47 33.53 2.47
  Z
  M 16.65 28.63
  C 23.90 35.62 31.47 28.12 39.63 27.76
  Q 45.61 27.50 51.08 32.01
  A 0.10 0.10 0.0 0 0 51.25 31.93
  L 51.25 25.69
  A 0.80 0.80 0.0 0 0 51.04 25.15
  C 47.74 21.65 43.32 18.39 38.35 19.94
  Q 35.45 20.85 32.97 21.87
  C 27.00 24.34 20.72 23.11 15.28 19.58
  A 0.28 0.28 0.0 0 0 14.89 19.96
  C 18.60 25.54 25.57 27.41 31.84 25.75
  A 0.24 0.24 0.0 0 1 32.02 26.18
  Q 24.85 30.42 16.89 28.21
  A 0.25 0.25 0.0 0 0 16.65 28.63
  Z
  M 34.74 32.06
  L 31.13 33.35
  A 0.82 0.82 0.0 0 0 30.65 34.44
  Q 32.54 39.05 30.79 42.89
  C 27.65 49.75 37.23 49.39 35.36 44.18
  Q 34.00 40.37 33.99 39.64
  A 7.00 6.79 51.3 0 1 34.13 38.16
  L 35.28 32.54
  A 0.42 0.41 86.4 0 0 34.74 32.06
  Z"
/>
<path fill="#ffffff" d="
  M 16.65 28.63
  A 0.25 0.25 0.0 0 1 16.89 28.21
  Q 24.85 30.42 32.02 26.18
  A 0.24 0.24 0.0 0 0 31.84 25.75
  C 25.57 27.41 18.60 25.54 14.89 19.96
  A 0.28 0.28 0.0 0 1 15.28 19.58
  C 20.72 23.11 27.00 24.34 32.97 21.87
  Q 35.45 20.85 38.35 19.94
  C 43.32 18.39 47.74 21.65 51.04 25.15
  A 0.80 0.80 0.0 0 1 51.25 25.69
  L 51.25 31.93
  A 0.10 0.10 0.0 0 1 51.08 32.01
  Q 45.61 27.50 39.63 27.76
  C 31.47 28.12 23.90 35.62 16.65 28.63
  Z"
/>
<path fill="#ffffff" d="
  M 35.28 32.54
  L 34.13 38.16
  A 7.00 6.79 51.3 0 0 33.99 39.64
  Q 34.00 40.37 35.36 44.18
  C 37.23 49.39 27.65 49.75 30.79 42.89
  Q 32.54 39.05 30.65 34.44
  A 0.82 0.82 0.0 0 1 31.13 33.35
  L 34.74 32.06
  A 0.42 0.41 86.4 0 1 35.28 32.54
  Z"
/>
</svg>
