<?xml version="1.0" encoding="UTF-8" standalone="no"?>
<!DOCTYPE svg PUBLIC "-//W3C//DTD SVG 1.1//EN" "http://www.w3.org/Graphics/SVG/1.1/DTD/svg11.dtd">
<svg xmlns="http://www.w3.org/2000/svg" version="1.1" viewBox="0.00 0.00 66.00 88.00">
<g stroke-width="2.00" fill="none" stroke-linecap="butt">
<path stroke="#6f562b" vector-effect="non-scaling-stroke" d="
  M 33.39 86.68
  Q 33.53 86.68 33.67 86.65
  A 0.21 0.18 12.4 0 0 33.77 86.60
  C 49.97 71.56 73.32 41.97 60.66 18.51
  C 55.40 8.76 44.82 2.49 33.56 2.47
  C 22.30 2.45 11.69 8.67 6.39 18.41
  C -6.36 41.81 16.88 71.49 33.02 86.60
  A 0.21 0.18 -12.2 0 0 33.12 86.65
  Q 33.25 86.68 33.39 86.68"
/>
<path stroke="#c9b99d" vector-effect="non-scaling-stroke" d="
  M 32.99 33.23
  Q 49.22 33.23 50.55 33.21
  A 0.68 0.67 -87.5 0 0 51.21 32.60
  Q 51.52 29.70 48.46 28.62
  Q 47.20 28.18 45.70 22.52
  A 1.72 1.70 82.5 0 0 44.05 21.24
  L 42.50 21.24
  A 0.59 0.58 77.9 0 0 41.97 22.07
  L 45.78 30.44
  A 0.32 0.32 0.0 0 1 45.49 30.89
  Q 39.71 30.98 32.99 30.98
  Q 26.28 30.98 20.49 30.89
  A 0.32 0.32 0.0 0 1 20.21 30.44
  L 24.02 22.07
  A 0.59 0.58 -77.9 0 0 23.49 21.24
  L 21.94 21.24
  A 1.72 1.70 -82.5 0 0 20.29 22.52
  Q 18.79 28.18 17.53 28.62
  Q 14.47 29.70 14.78 32.60
  A 0.68 0.67 87.5 0 0 15.43 33.21
  Q 16.77 33.23 32.99 33.23"
/>
<path stroke="#c9b99d" vector-effect="non-scaling-stroke" d="
  M 39.70 22.99
  A 0.38 0.38 0.0 0 0 39.36 22.77
  L 26.61 22.77
  A 0.38 0.38 0.0 0 0 26.26 23.00
  L 24.06 27.97
  A 0.38 0.38 0.0 0 0 24.40 28.50
  L 41.62 28.50
  A 0.38 0.38 0.0 0 0 41.97 27.96
  L 39.70 22.99"
/>
<path stroke="#c9b99d" vector-effect="non-scaling-stroke" d="
  M 20.8690 35.7417
  A 0.26 0.26 0.0 0 0 20.5603 35.5420
  L 18.6242 35.9570
  A 0.26 0.26 0.0 0 0 18.4245 36.2658
  L 20.5710 46.2783
  A 0.26 0.26 0.0 0 0 20.8797 46.4780
  L 22.8158 46.0630
  A 0.26 0.26 0.0 0 0 23.0155 45.7542
  L 20.8690 35.7417"
/>
<path stroke="#c9b99d" vector-effect="non-scaling-stroke" d="
  M 42.48 36.23
  A 0.38 0.38 0.0 0 0 42.11 35.77
  L 23.88 35.77
  A 0.38 0.38 0.0 0 0 23.51 36.23
  L 25.59 45.95
  A 0.38 0.38 0.0 0 0 25.96 46.25
  L 40.04 46.25
  A 0.38 0.38 0.0 0 0 40.41 45.95
  L 42.48 36.23"
/>
<path stroke="#c9b99d" vector-effect="non-scaling-stroke" d="
  M 47.5208 36.2418
  A 0.26 0.26 0.0 0 0 47.3195 35.9341
  L 45.4009 35.5333
  A 0.26 0.26 0.0 0 0 45.0932 35.7346
  L 42.9992 45.7582
  A 0.26 0.26 0.0 0 0 43.2005 46.0659
  L 45.1191 46.4667
  A 0.26 0.26 0.0 0 0 45.4268 46.2654
  L 47.5208 36.2418"
/>
<path stroke="#c9b99d" vector-effect="non-scaling-stroke" d="
  M 32.98 45.86
  C 35.13 45.87 35.32 43.02 35.65 40.98
  C 35.95 39.10 35.01 37.61 33.02 37.60
  C 31.03 37.59 30.08 39.07 30.36 40.95
  C 30.66 42.99 30.83 45.85 32.98 45.86"
/>
<path stroke="#c9b99d" vector-effect="non-scaling-stroke" d="
  M 33.00 44.28
  Q 33.28 44.28 33.49 44.05
  Q 33.68 43.83 33.69 43.54
  Q 33.75 41.60 34.22 40.59
  A 0.83 0.83 0.0 0 0 34.20 39.86
  Q 33.82 39.13 33.01 39.13
  Q 32.19 39.13 31.82 39.85
  A 0.83 0.83 0.0 0 0 31.79 40.59
  Q 32.26 41.60 32.31 43.54
  Q 32.32 43.83 32.51 44.05
  Q 32.72 44.28 33.00 44.28"
/>
</g>
<path fill="#4b3a1c" d="
  M 33.78 88.00
  L 33.03 88.00
  C 16.70 73.25 -6.34 44.13 4.07 20.40
  C 11.65 3.13 32.72 -3.81 49.22 5.41
  Q 61.33 12.17 64.81 26.22
  Q 66.14 31.59 64.75 40.37
  Q 63.40 48.86 57.55 58.84
  Q 47.97 75.17 33.78 88.00
  Z
  M 33.39 86.68
  Q 33.53 86.68 33.67 86.65
  A 0.21 0.18 12.4 0 0 33.77 86.60
  C 49.97 71.56 73.32 41.97 60.66 18.51
  C 55.40 8.76 44.82 2.49 33.56 2.47
  C 22.30 2.45 11.69 8.67 6.39 18.41
  C -6.36 41.81 16.88 71.49 33.02 86.60
  A 0.21 0.18 -12.2 0 0 33.12 86.65
  Q 33.25 86.68 33.39 86.68
  Z"
/>
<path fill="#92723a" d="
  M 33.56 2.47
  C 44.82 2.49 55.40 8.76 60.66 18.51
  C 73.32 41.97 49.97 71.56 33.77 86.60
  A 0.21 0.18 12.4 0 1 33.67 86.65
  Q 33.53 86.68 33.39 86.68
  Q 33.25 86.68 33.12 86.65
  A 0.21 0.18 -12.2 0 1 33.02 86.60
  C 16.88 71.49 -6.36 41.81 6.39 18.41
  C 11.69 8.67 22.30 2.45 33.56 2.47
  Z
  M 32.99 33.23
  Q 49.22 33.23 50.55 33.21
  A 0.68 0.67 -87.5 0 0 51.21 32.60
  Q 51.52 29.70 48.46 28.62
  Q 47.20 28.18 45.70 22.52
  A 1.72 1.70 82.5 0 0 44.05 21.24
  L 42.50 21.24
  A 0.59 0.58 77.9 0 0 41.97 22.07
  L 45.78 30.44
  A 0.32 0.32 0.0 0 1 45.49 30.89
  Q 39.71 30.98 32.99 30.98
  Q 26.28 30.98 20.49 30.89
  A 0.32 0.32 0.0 0 1 20.21 30.44
  L 24.02 22.07
  A 0.59 0.58 -77.9 0 0 23.49 21.24
  L 21.94 21.24
  A 1.72 1.70 -82.5 0 0 20.29 22.52
  Q 18.79 28.18 17.53 28.62
  Q 14.47 29.70 14.78 32.60
  A 0.68 0.67 87.5 0 0 15.43 33.21
  Q 16.77 33.23 32.99 33.23
  Z
  M 39.70 22.99
  A 0.38 0.38 0.0 0 0 39.36 22.77
  L 26.61 22.77
  A 0.38 0.38 0.0 0 0 26.26 23.00
  L 24.06 27.97
  A 0.38 0.38 0.0 0 0 24.40 28.50
  L 41.62 28.50
  A 0.38 0.38 0.0 0 0 41.97 27.96
  L 39.70 22.99
  Z
  M 20.8690 35.7417
  A 0.26 0.26 0.0 0 0 20.5603 35.5420
  L 18.6242 35.9570
  A 0.26 0.26 0.0 0 0 18.4245 36.2658
  L 20.5710 46.2783
  A 0.26 0.26 0.0 0 0 20.8797 46.4780
  L 22.8158 46.0630
  A 0.26 0.26 0.0 0 0 23.0155 45.7542
  L 20.8690 35.7417
  Z
  M 42.48 36.23
  A 0.38 0.38 0.0 0 0 42.11 35.77
  L 23.88 35.77
  A 0.38 0.38 0.0 0 0 23.51 36.23
  L 25.59 45.95
  A 0.38 0.38 0.0 0 0 25.96 46.25
  L 40.04 46.25
  A 0.38 0.38 0.0 0 0 40.41 45.95
  L 42.48 36.23
  Z
  M 47.5208 36.2418
  A 0.26 0.26 0.0 0 0 47.3195 35.9341
  L 45.4009 35.5333
  A 0.26 0.26 0.0 0 0 45.0932 35.7346
  L 42.9992 45.7582
  A 0.26 0.26 0.0 0 0 43.2005 46.0659
  L 45.1191 46.4667
  A 0.26 0.26 0.0 0 0 45.4268 46.2654
  L 47.5208 36.2418
  Z"
/>
<path fill="#ffffff" d="
  M 32.99 30.98
  Q 39.71 30.98 45.49 30.89
  A 0.32 0.32 0.0 0 0 45.78 30.44
  L 41.97 22.07
  A 0.59 0.58 77.9 0 1 42.50 21.24
  L 44.05 21.24
  A 1.72 1.70 82.5 0 1 45.70 22.52
  Q 47.20 28.18 48.46 28.62
  Q 51.52 29.70 51.21 32.60
  A 0.68 0.67 -87.5 0 1 50.55 33.21
  Q 49.22 33.23 32.99 33.23
  Q 16.77 33.23 15.43 33.21
  A 0.68 0.67 87.5 0 1 14.78 32.60
  Q 14.47 29.70 17.53 28.62
  Q 18.79 28.18 20.29 22.52
  A 1.72 1.70 -82.5 0 1 21.94 21.24
  L 23.49 21.24
  A 0.59 0.58 -77.9 0 1 24.02 22.07
  L 20.21 30.44
  A 0.32 0.32 0.0 0 0 20.49 30.89
  Q 26.28 30.98 32.99 30.98
  Z"
/>
<path fill="#ffffff" d="
  M 39.70 22.99
  L 41.97 27.96
  A 0.38 0.38 0.0 0 1 41.62 28.50
  L 24.40 28.50
  A 0.38 0.38 0.0 0 1 24.06 27.97
  L 26.26 23.00
  A 0.38 0.38 0.0 0 1 26.61 22.77
  L 39.36 22.77
  A 0.38 0.38 0.0 0 1 39.70 22.99
  Z"
/>
<rect fill="#ffffff" x="-1.25" y="-5.38" transform="translate(20.72,41.01) rotate(-12.1)" width="2.50" height="10.76" rx="0.26"/>
<path fill="#ffffff" d="
  M 42.48 36.23
  L 40.41 45.95
  A 0.38 0.38 0.0 0 1 40.04 46.25
  L 25.96 46.25
  A 0.38 0.38 0.0 0 1 25.59 45.95
  L 23.51 36.23
  A 0.38 0.38 0.0 0 1 23.88 35.77
  L 42.11 35.77
  A 0.38 0.38 0.0 0 1 42.48 36.23
  Z
  M 32.98 45.86
  C 35.13 45.87 35.32 43.02 35.65 40.98
  C 35.95 39.10 35.01 37.61 33.02 37.60
  C 31.03 37.59 30.08 39.07 30.36 40.95
  C 30.66 42.99 30.83 45.85 32.98 45.86
  Z"
/>
<rect fill="#ffffff" x="-1.24" y="-5.38" transform="translate(45.26,41.00) rotate(11.8)" width="2.48" height="10.76" rx="0.26"/>
<path fill="#92723a" d="
  M 33.02 37.60
  C 35.01 37.61 35.95 39.10 35.65 40.98
  C 35.32 43.02 35.13 45.87 32.98 45.86
  C 30.83 45.85 30.66 42.99 30.36 40.95
  C 30.08 39.07 31.03 37.59 33.02 37.60
  Z
  M 33.00 44.28
  Q 33.28 44.28 33.49 44.05
  Q 33.68 43.83 33.69 43.54
  Q 33.75 41.60 34.22 40.59
  A 0.83 0.83 0.0 0 0 34.20 39.86
  Q 33.82 39.13 33.01 39.13
  Q 32.19 39.13 31.82 39.85
  A 0.83 0.83 0.0 0 0 31.79 40.59
  Q 32.26 41.60 32.31 43.54
  Q 32.32 43.83 32.51 44.05
  Q 32.72 44.28 33.00 44.28
  Z"
/>
<path fill="#ffffff" d="
  M 33.01 39.13
  Q 33.82 39.13 34.20 39.86
  A 0.83 0.83 0.0 0 1 34.22 40.59
  Q 33.75 41.60 33.69 43.54
  Q 33.68 43.83 33.49 44.05
  Q 33.28 44.28 33.00 44.28
  Q 32.72 44.28 32.51 44.05
  Q 32.32 43.83 32.31 43.54
  Q 32.26 41.60 31.79 40.59
  A 0.83 0.83 0.0 0 1 31.82 39.85
  Q 32.19 39.13 33.01 39.13
  Z"
/>
</svg>
