<?xml version="1.0" encoding="UTF-8" standalone="no"?>
<!DOCTYPE svg PUBLIC "-//W3C//DTD SVG 1.1//EN" "http://www.w3.org/Graphics/SVG/1.1/DTD/svg11.dtd">
<svg xmlns="http://www.w3.org/2000/svg" version="1.1" viewBox="0.00 0.00 66.00 88.00">
<g stroke-width="2.00" fill="none" stroke-linecap="butt">
<path stroke="#324277" vector-effect="non-scaling-stroke" d="
  M 33.42 86.70
  Q 33.56 86.70 33.62 86.68
  Q 33.65 86.67 33.77 86.56
  Q 41.90 78.80 48.46 70.44
  C 61.07 54.35 72.67 30.05 56.04 12.26
  C 50.24 6.06 42.27 2.54 33.51 2.53
  C 24.75 2.52 16.77 6.02 10.96 12.21
  C -5.71 29.96 5.84 54.29 18.41 70.41
  Q 24.95 78.78 33.06 86.56
  Q 33.18 86.67 33.21 86.68
  Q 33.27 86.70 33.42 86.70"
/>
<path stroke="#a2abce" vector-effect="non-scaling-stroke" d="
  M 33.00 31.49
  Q 36.08 31.49 36.44 31.48
  A 0.59 0.59 0.0 0 1 37.05 31.97
  L 39.51 46.17
  A 0.70 0.70 0.0 0 0 40.20 46.75
  L 50.71 46.75
  A 0.48 0.48 0.0 0 0 51.17 46.14
  L 44.11 22.39
  A 0.54 0.53 -7.6 0 0 43.61 22.01
  Q 40.69 21.99 32.99 21.99
  Q 25.30 21.99 22.38 22.02
  A 0.54 0.53 7.5 0 0 21.88 22.40
  L 14.83 46.15
  A 0.48 0.48 0.0 0 0 15.29 46.76
  L 25.80 46.75
  A 0.70 0.70 0.0 0 0 26.49 46.17
  L 28.94 31.97
  A 0.59 0.59 0.0 0 1 29.55 31.48
  Q 29.91 31.50 33.00 31.49"
/>
</g>
<path fill="#202d51" d="
  M 33.81 88.00
  L 33.04 88.00
  C 21.78 77.77 12.07 65.64 5.65 51.57
  C 1.03 41.47 -0.45 28.41 5.12 18.27
  C 13.28 3.43 31.35 -3.00 46.86 4.26
  Q 61.53 11.12 64.87 26.78
  C 67.54 39.28 61.55 53.70 54.23 64.47
  Q 45.46 77.37 33.81 88.00
  Z
  M 33.42 86.70
  Q 33.56 86.70 33.62 86.68
  Q 33.65 86.67 33.77 86.56
  Q 41.90 78.80 48.46 70.44
  C 61.07 54.35 72.67 30.05 56.04 12.26
  C 50.24 6.06 42.27 2.54 33.51 2.53
  C 24.75 2.52 16.77 6.02 10.96 12.21
  C -5.71 29.96 5.84 54.29 18.41 70.41
  Q 24.95 78.78 33.06 86.56
  Q 33.18 86.67 33.21 86.68
  Q 33.27 86.70 33.42 86.70
  Z"
/>
<path fill="#44569c" d="
  M 33.51 2.53
  C 42.27 2.54 50.24 6.06 56.04 12.26
  C 72.67 30.05 61.07 54.35 48.46 70.44
  Q 41.90 78.80 33.77 86.56
  Q 33.65 86.67 33.62 86.68
  Q 33.56 86.70 33.42 86.70
  Q 33.27 86.70 33.21 86.68
  Q 33.18 86.67 33.06 86.56
  Q 24.95 78.78 18.41 70.41
  C 5.84 54.29 -5.71 29.96 10.96 12.21
  C 16.77 6.02 24.75 2.52 33.51 2.53
  Z
  M 33.00 31.49
  Q 36.08 31.49 36.44 31.48
  A 0.59 0.59 0.0 0 1 37.05 31.97
  L 39.51 46.17
  A 0.70 0.70 0.0 0 0 40.20 46.75
  L 50.71 46.75
  A 0.48 0.48 0.0 0 0 51.17 46.14
  L 44.11 22.39
  A 0.54 0.53 -7.6 0 0 43.61 22.01
  Q 40.69 21.99 32.99 21.99
  Q 25.30 21.99 22.38 22.02
  A 0.54 0.53 7.5 0 0 21.88 22.40
  L 14.83 46.15
  A 0.48 0.48 0.0 0 0 15.29 46.76
  L 25.80 46.75
  A 0.70 0.70 0.0 0 0 26.49 46.17
  L 28.94 31.97
  A 0.59 0.59 0.0 0 1 29.55 31.48
  Q 29.91 31.50 33.00 31.49
  Z"
/>
<path fill="#ffffff" d="
  M 32.99 21.99
  Q 40.69 21.99 43.61 22.01
  A 0.54 0.53 -7.6 0 1 44.11 22.39
  L 51.17 46.14
  A 0.48 0.48 0.0 0 1 50.71 46.75
  L 40.20 46.75
  A 0.70 0.70 0.0 0 1 39.51 46.17
  L 37.05 31.97
  A 0.59 0.59 0.0 0 0 36.44 31.48
  Q 36.08 31.49 33.00 31.49
  Q 29.91 31.50 29.55 31.48
  A 0.59 0.59 0.0 0 0 28.94 31.97
  L 26.49 46.17
  A 0.70 0.70 0.0 0 1 25.80 46.75
  L 15.29 46.76
  A 0.48 0.48 0.0 0 1 14.83 46.15
  L 21.88 22.40
  A 0.54 0.53 7.5 0 1 22.38 22.02
  Q 25.30 21.99 32.99 21.99
  Z"
/>
</svg>
