<?xml version="1.0" encoding="UTF-8" standalone="no"?>
<!DOCTYPE svg PUBLIC "-//W3C//DTD SVG 1.1//EN" "http://www.w3.org/Graphics/SVG/1.1/DTD/svg11.dtd">
<svg xmlns="http://www.w3.org/2000/svg" version="1.1" viewBox="0.00 0.00 66.00 88.00">
<g stroke-width="2.00" fill="none" stroke-linecap="butt">
<path stroke="#6f562b" vector-effect="non-scaling-stroke" d="
  M 33.39 86.69
  Q 33.50 86.69 33.61 86.67
  Q 33.63 86.66 33.76 86.55
  Q 47.11 74.09 56.10 59.14
  C 65.04 44.28 68.82 25.62 55.93 12.09
  C 50.18 6.06 42.12 2.48 33.56 2.47
  C 25.01 2.45 16.93 5.99 11.16 12.00
  C -1.78 25.48 1.92 44.15 10.80 59.05
  Q 19.73 74.03 33.03 86.55
  Q 33.16 86.66 33.18 86.67
  Q 33.28 86.69 33.39 86.69"
/>
<path stroke="#c9b99d" vector-effect="non-scaling-stroke" d="
  M 39.7907 16.2523
  A 0.57 0.57 0.0 0 0 39.2217 15.6813
  L 26.2818 15.6587
  A 0.57 0.57 0.0 0 0 25.7108 16.2277
  L 25.7093 17.0877
  A 0.57 0.57 0.0 0 0 26.2783 17.6587
  L 39.2182 17.6813
  A 0.57 0.57 0.0 0 0 39.7892 17.1123
  L 39.7907 16.2523"
/>
<path stroke="#c9b99d" vector-effect="non-scaling-stroke" d="
  M 33.19 22.65
  Q 33.00 21.93 33.06 21.34
  A 0.52 0.51 -86.5 0 0 32.55 20.76
  L 27.78 20.76
  A 0.52 0.52 0.0 0 0 27.26 21.33
  Q 27.59 25.07 24.88 28.27
  A 0.63 0.62 33.8 0 0 25.07 29.22
  C 29.56 31.53 35.34 25.13 37.85 24.93
  A 0.51 0.50 88.2 0 0 38.32 24.42
  L 38.27 21.58
  A 0.80 0.79 -82.6 0 0 37.70 20.83
  Q 34.54 19.93 33.72 22.66
  A 0.28 0.27 46.0 0 1 33.19 22.65"
/>
<path stroke="#c9b99d" vector-effect="non-scaling-stroke" d="
  M 16.06 28.24
  Q 14.83 30.68 17.03 33.21
  Q 17.89 34.21 18.80 33.42
  A 0.88 0.86 -43.9 0 0 18.84 32.13
  Q 17.19 30.61 17.92 29.17
  Q 18.64 27.75 20.84 28.18
  A 0.88 0.86 -82.4 0 0 21.85 27.38
  Q 21.95 26.18 20.64 26.07
  Q 17.29 25.80 16.06 28.24"
/>
<path stroke="#c9b99d" vector-effect="non-scaling-stroke" d="
  M 49.39 28.22
  Q 48.14 25.80 44.80 26.11
  Q 43.49 26.23 43.60 27.43
  A 0.87 0.85 81.8 0 0 44.62 28.21
  Q 46.81 27.76 47.55 29.17
  Q 48.29 30.60 46.66 32.13
  A 0.87 0.85 43.3 0 0 46.72 33.41
  Q 47.63 34.19 48.48 33.19
  Q 50.65 30.63 49.39 28.22"
/>
<path stroke="#c9b99d" vector-effect="non-scaling-stroke" d="
  M 22.51 32.17
  Q 19.83 37.76 23.36 42.84
  A 0.83 0.82 -28.1 0 0 24.34 43.13
  C 28.01 41.65 31.33 40.04 34.53 41.01
  Q 36.77 41.69 40.47 43.19
  A 1.38 1.37 -60.5 0 0 42.09 42.73
  C 45.75 37.80 43.79 31.76 39.97 27.72
  A 0.79 0.78 53.2 0 0 39.03 27.58
  C 33.80 30.47 28.61 34.58 23.41 31.87
  A 0.66 0.65 26.4 0 0 22.51 32.17"
/>
<path stroke="#c9b99d" vector-effect="non-scaling-stroke" d="
  M 27.07 47.13
  L 38.23 47.33
  A 0.14 0.14 0.0 0 0 38.37 47.19
  L 38.37 47.16
  A 5.49 3.23 1.0 0 0 32.94 43.83
  L 32.48 43.83
  A 5.49 3.23 1.0 0 0 26.93 46.96
  L 26.93 46.99
  A 0.14 0.14 0.0 0 0 27.07 47.13"
/>
<path stroke="#c9b99d" vector-effect="non-scaling-stroke" d="
  M 39.41 50.81
  A 0.48 0.48 0.0 0 0 38.93 50.33
  L 26.55 50.33
  A 0.48 0.48 0.0 0 0 26.07 50.81
  L 26.07 51.85
  A 0.48 0.48 0.0 0 0 26.55 52.33
  L 38.93 52.33
  A 0.48 0.48 0.0 0 0 39.41 51.85
  L 39.41 50.81"
/>
</g>
<path fill="#4b3a1c" d="
  M 33.81 88.00
  L 33.03 88.00
  C 21.80 77.78 12.23 65.79 5.73 51.77
  Q 2.23 44.20 1.59 34.96
  C 0.50 18.92 11.31 5.54 26.73 2.05
  Q 36.69 -0.20 46.79 4.20
  Q 56.71 8.53 62.11 18.75
  C 67.46 28.85 65.84 41.39 61.23 51.73
  C 55.06 65.53 44.93 77.84 33.81 88.00
  Z
  M 33.39 86.69
  Q 33.50 86.69 33.61 86.67
  Q 33.63 86.66 33.76 86.55
  Q 47.11 74.09 56.10 59.14
  C 65.04 44.28 68.82 25.62 55.93 12.09
  C 50.18 6.06 42.12 2.48 33.56 2.47
  C 25.01 2.45 16.93 5.99 11.16 12.00
  C -1.78 25.48 1.92 44.15 10.80 59.05
  Q 19.73 74.03 33.03 86.55
  Q 33.16 86.66 33.18 86.67
  Q 33.28 86.69 33.39 86.69
  Z"
/>
<path fill="#92723a" d="
  M 33.56 2.47
  C 42.12 2.48 50.18 6.06 55.93 12.09
  C 68.82 25.62 65.04 44.28 56.10 59.14
  Q 47.11 74.09 33.76 86.55
  Q 33.63 86.66 33.61 86.67
  Q 33.50 86.69 33.39 86.69
  Q 33.28 86.69 33.18 86.67
  Q 33.16 86.66 33.03 86.55
  Q 19.73 74.03 10.80 59.05
  C 1.92 44.15 -1.78 25.48 11.16 12.00
  C 16.93 5.99 25.01 2.45 33.56 2.47
  Z
  M 39.7907 16.2523
  A 0.57 0.57 0.0 0 0 39.2217 15.6813
  L 26.2818 15.6587
  A 0.57 0.57 0.0 0 0 25.7108 16.2277
  L 25.7093 17.0877
  A 0.57 0.57 0.0 0 0 26.2783 17.6587
  L 39.2182 17.6813
  A 0.57 0.57 0.0 0 0 39.7892 17.1123
  L 39.7907 16.2523
  Z
  M 33.19 22.65
  Q 33.00 21.93 33.06 21.34
  A 0.52 0.51 -86.5 0 0 32.55 20.76
  L 27.78 20.76
  A 0.52 0.52 0.0 0 0 27.26 21.33
  Q 27.59 25.07 24.88 28.27
  A 0.63 0.62 33.8 0 0 25.07 29.22
  C 29.56 31.53 35.34 25.13 37.85 24.93
  A 0.51 0.50 88.2 0 0 38.32 24.42
  L 38.27 21.58
  A 0.80 0.79 -82.6 0 0 37.70 20.83
  Q 34.54 19.93 33.72 22.66
  A 0.28 0.27 46.0 0 1 33.19 22.65
  Z
  M 16.06 28.24
  Q 14.83 30.68 17.03 33.21
  Q 17.89 34.21 18.80 33.42
  A 0.88 0.86 -43.9 0 0 18.84 32.13
  Q 17.19 30.61 17.92 29.17
  Q 18.64 27.75 20.84 28.18
  A 0.88 0.86 -82.4 0 0 21.85 27.38
  Q 21.95 26.18 20.64 26.07
  Q 17.29 25.80 16.06 28.24
  Z
  M 49.39 28.22
  Q 48.14 25.80 44.80 26.11
  Q 43.49 26.23 43.60 27.43
  A 0.87 0.85 81.8 0 0 44.62 28.21
  Q 46.81 27.76 47.55 29.17
  Q 48.29 30.60 46.66 32.13
  A 0.87 0.85 43.3 0 0 46.72 33.41
  Q 47.63 34.19 48.48 33.19
  Q 50.65 30.63 49.39 28.22
  Z
  M 22.51 32.17
  Q 19.83 37.76 23.36 42.84
  A 0.83 0.82 -28.1 0 0 24.34 43.13
  C 28.01 41.65 31.33 40.04 34.53 41.01
  Q 36.77 41.69 40.47 43.19
  A 1.38 1.37 -60.5 0 0 42.09 42.73
  C 45.75 37.80 43.79 31.76 39.97 27.72
  A 0.79 0.78 53.2 0 0 39.03 27.58
  C 33.80 30.47 28.61 34.58 23.41 31.87
  A 0.66 0.65 26.4 0 0 22.51 32.17
  Z
  M 27.07 47.13
  L 38.23 47.33
  A 0.14 0.14 0.0 0 0 38.37 47.19
  L 38.37 47.16
  A 5.49 3.23 1.0 0 0 32.94 43.83
  L 32.48 43.83
  A 5.49 3.23 1.0 0 0 26.93 46.96
  L 26.93 46.99
  A 0.14 0.14 0.0 0 0 27.07 47.13
  Z
  M 39.41 50.81
  A 0.48 0.48 0.0 0 0 38.93 50.33
  L 26.55 50.33
  A 0.48 0.48 0.0 0 0 26.07 50.81
  L 26.07 51.85
  A 0.48 0.48 0.0 0 0 26.55 52.33
  L 38.93 52.33
  A 0.48 0.48 0.0 0 0 39.41 51.85
  L 39.41 50.81
  Z"
/>
<rect fill="#ffffff" x="-7.04" y="-1.00" transform="translate(32.75,16.67) rotate(0.1)" width="14.08" height="2.00" rx="0.57"/>
<path fill="#ffffff" d="
  M 33.19 22.65
  A 0.28 0.27 46.0 0 0 33.72 22.66
  Q 34.54 19.93 37.70 20.83
  A 0.80 0.79 -82.6 0 1 38.27 21.58
  L 38.32 24.42
  A 0.51 0.50 88.2 0 1 37.85 24.93
  C 35.34 25.13 29.56 31.53 25.07 29.22
  A 0.63 0.62 33.8 0 1 24.88 28.27
  Q 27.59 25.07 27.26 21.33
  A 0.52 0.52 0.0 0 1 27.78 20.76
  L 32.55 20.76
  A 0.52 0.51 -86.5 0 1 33.06 21.34
  Q 33.00 21.93 33.19 22.65
  Z"
/>
<path fill="#ffffff" d="
  M 17.92 29.17
  Q 17.19 30.61 18.84 32.13
  A 0.88 0.86 -43.9 0 1 18.80 33.42
  Q 17.89 34.21 17.03 33.21
  Q 14.83 30.68 16.06 28.24
  Q 17.29 25.80 20.64 26.07
  Q 21.95 26.18 21.85 27.38
  A 0.88 0.86 -82.4 0 1 20.84 28.18
  Q 18.64 27.75 17.92 29.17
  Z"
/>
<path fill="#ffffff" d="
  M 49.39 28.22
  Q 50.65 30.63 48.48 33.19
  Q 47.63 34.19 46.72 33.41
  A 0.87 0.85 43.3 0 1 46.66 32.13
  Q 48.29 30.60 47.55 29.17
  Q 46.81 27.76 44.62 28.21
  A 0.87 0.85 81.8 0 1 43.60 27.43
  Q 43.49 26.23 44.80 26.11
  Q 48.14 25.80 49.39 28.22
  Z"
/>
<path fill="#ffffff" d="
  M 23.41 31.87
  C 28.61 34.58 33.80 30.47 39.03 27.58
  A 0.79 0.78 53.2 0 1 39.97 27.72
  C 43.79 31.76 45.75 37.80 42.09 42.73
  A 1.38 1.37 -60.5 0 1 40.47 43.19
  Q 36.77 41.69 34.53 41.01
  C 31.33 40.04 28.01 41.65 24.34 43.13
  A 0.83 0.82 -28.1 0 1 23.36 42.84
  Q 19.83 37.76 22.51 32.17
  A 0.66 0.65 26.4 0 1 23.41 31.87
  Z"
/>
<path fill="#ffffff" d="
  M 27.07 47.13
  A 0.14 0.14 0.0 0 1 26.93 46.99
  L 26.93 46.96
  A 5.49 3.23 1.0 0 1 32.48 43.83
  L 32.94 43.83
  A 5.49 3.23 1.0 0 1 38.37 47.16
  L 38.37 47.19
  A 0.14 0.14 0.0 0 1 38.23 47.33
  L 27.07 47.13
  Z"
/>
<rect fill="#ffffff" x="26.07" y="50.33" width="13.34" height="2.00" rx="0.48"/>
</svg>
