<?xml version="1.0" encoding="UTF-8" standalone="no"?>
<!DOCTYPE svg PUBLIC "-//W3C//DTD SVG 1.1//EN" "http://www.w3.org/Graphics/SVG/1.1/DTD/svg11.dtd">
<svg xmlns="http://www.w3.org/2000/svg" version="1.1" viewBox="0.00 0.00 66.00 88.00">
<g stroke-width="2.00" fill="none" stroke-linecap="butt">
<path stroke="#6f562b" vector-effect="non-scaling-stroke" d="
  M 33.40 86.69
  Q 33.54 86.69 33.67 86.66
  A 0.17 0.10 -53.6 0 0 33.73 86.63
  Q 47.49 73.82 56.59 58.31
  C 65.48 43.15 68.67 24.41 54.95 11.12
  C 49.30 5.65 41.58 2.48 33.56 2.47
  C 25.54 2.45 17.81 5.59 12.14 11.04
  C -1.64 24.28 1.48 43.03 10.31 58.22
  Q 19.35 73.77 33.06 86.63
  A 0.17 0.10 53.9 0 0 33.12 86.65
  Q 33.26 86.69 33.40 86.69"
/>
<path stroke="#c9b99d" vector-effect="non-scaling-stroke" d="
  M 30.03 23.74
  A 0.27 0.27 0.0 0 0 30.50 23.92
  L 31.23 23.15
  A 2.14 2.13 66.4 0 0 31.83 21.63
  L 31.73 16.27
  A 0.54 0.53 88.9 0 0 31.19 15.74
  L 30.49 15.76
  A 0.61 0.61 0.0 0 0 29.89 16.37
  L 30.03 23.74"
/>
<path stroke="#c9b99d" vector-effect="non-scaling-stroke" d="
  M 35.47 23.95
  L 35.47 16.29
  A 0.63 0.63 0.0 0 0 34.84 15.66
  L 34.11 15.66
  A 0.56 0.55 90.0 0 0 33.56 16.22
  L 33.56 21.79
  A 2.22 2.22 0.0 0 0 34.21 23.36
  L 34.99 24.15
  A 0.28 0.28 0.0 0 0 35.47 23.95"
/>
<path stroke="#c9b99d" vector-effect="non-scaling-stroke" d="
  M 32.64 33.51
  Q 32.95 33.51 35.72 33.87
  A 0.43 0.43 0.0 0 0 36.18 33.30
  Q 35.28 30.94 36.20 30.63
  A 0.69 0.58 -50.2 0 1 36.42 30.59
  Q 38.89 30.55 40.99 31.69
  A 1.28 1.26 43.7 0 0 42.25 31.67
  L 49.47 27.51
  A 0.39 0.38 -59.9 0 0 49.28 26.79
  L 41.68 26.79
  A 0.48 0.48 0.0 0 0 41.56 27.74
  L 44.10 28.41
  A 0.12 0.12 0.0 0 1 44.10 28.64
  L 41.86 29.30
  A 0.77 0.76 -30.5 0 1 41.10 29.11
  L 38.12 26.13
  A 0.55 0.54 -22.4 0 1 38.51 25.20
  L 44.33 25.20
  A 0.27 0.26 82.3 0 0 44.58 24.86
  L 44.45 24.44
  A 0.21 0.20 -8.5 0 0 44.24 24.29
  Q 40.26 24.56 37.69 22.20
  A 0.41 0.41 0.0 0 0 37.00 22.50
  L 37.00 27.86
  A 0.33 0.33 0.0 0 1 36.42 28.08
  L 32.81 23.95
  A 0.20 0.07 5.1 0 0 32.70 23.90
  Q 32.67 23.90 32.64 23.90
  Q 32.61 23.90 32.58 23.90
  A 0.20 0.07 -5.1 0 0 32.47 23.95
  L 28.86 28.08
  A 0.33 0.33 0.0 0 1 28.28 27.86
  L 28.28 22.50
  A 0.41 0.41 0.0 0 0 27.59 22.20
  Q 25.02 24.56 21.04 24.30
  A 0.21 0.20 8.5 0 0 20.83 24.45
  L 20.70 24.87
  A 0.27 0.26 -82.4 0 0 20.95 25.21
  L 26.77 25.20
  A 0.55 0.54 22.4 0 1 27.16 26.13
  L 24.18 29.11
  A 0.77 0.76 30.5 0 1 23.42 29.30
  L 21.18 28.65
  A 0.12 0.12 0.0 0 1 21.18 28.42
  L 23.72 27.74
  A 0.48 0.48 0.0 0 0 23.60 26.79
  L 16.00 26.80
  A 0.39 0.38 59.9 0 0 15.81 27.52
  L 23.03 31.67
  A 1.28 1.26 -43.8 0 0 24.29 31.69
  Q 26.39 30.55 28.86 30.59
  A 0.69 0.58 50.1 0 1 29.08 30.63
  Q 30.00 30.94 29.10 33.30
  A 0.43 0.43 0.0 0 0 29.57 33.88
  Q 32.34 33.51 32.64 33.51"
/>
<path stroke="#c9b99d" vector-effect="non-scaling-stroke" d="
  M 32.65 47.70
  Q 33.69 47.70 34.69 47.32
  A 0.73 0.73 0.0 0 0 35.16 46.55
  Q 34.56 41.47 36.20 36.91
  A 0.73 0.73 0.0 0 0 35.69 35.96
  L 34.90 35.76
  A 1.03 1.02 -68.8 0 0 33.73 36.28
  Q 32.95 37.80 32.64 37.87
  Q 32.33 37.80 31.56 36.28
  A 1.03 1.02 68.7 0 0 30.38 35.76
  L 29.60 35.96
  A 0.73 0.73 0.0 0 0 29.09 36.91
  Q 30.73 41.47 30.13 46.55
  A 0.73 0.73 0.0 0 0 30.60 47.33
  Q 31.60 47.70 32.65 47.70"
/>
<path stroke="#c9b99d" vector-effect="non-scaling-stroke" d="
  M 35.6462 50.2637
  A 0.58 0.58 0.0 0 0 35.0805 49.6698
  L 30.2220 49.5510
  A 0.58 0.58 0.0 0 0 29.6280 50.1167
  L 29.5938 51.5163
  A 0.58 0.58 0.0 0 0 30.1595 52.1102
  L 35.0180 52.2290
  A 0.58 0.58 0.0 0 0 35.6120 51.6633
  L 35.6462 50.2637"
/>
<path stroke="#c9b99d" vector-effect="non-scaling-stroke" d="
  M 34.14 28.60
  A 1.51 1.51 0.0 0 0 32.63 27.09
  A 1.51 1.51 0.0 0 0 31.12 28.60
  A 1.51 1.51 0.0 0 0 32.63 30.11
  A 1.51 1.51 0.0 0 0 34.14 28.60"
/>
</g>
<path fill="#4b3a1c" d="
  M 33.81 88.00
  L 33.04 88.00
  C 16.41 72.98 -7.92 42.19 5.16 18.19
  C 17.90 -5.21 51.95 -4.02 62.92 20.44
  C 66.91 29.32 65.82 40.19 62.33 49.05
  C 56.45 63.93 45.56 77.28 33.81 88.00
  Z
  M 33.40 86.69
  Q 33.54 86.69 33.67 86.66
  A 0.17 0.10 -53.6 0 0 33.73 86.63
  Q 47.49 73.82 56.59 58.31
  C 65.48 43.15 68.67 24.41 54.95 11.12
  C 49.30 5.65 41.58 2.48 33.56 2.47
  C 25.54 2.45 17.81 5.59 12.14 11.04
  C -1.64 24.28 1.48 43.03 10.31 58.22
  Q 19.35 73.77 33.06 86.63
  A 0.17 0.10 53.9 0 0 33.12 86.65
  Q 33.26 86.69 33.40 86.69
  Z"
/>
<path fill="#92723a" d="
  M 33.56 2.47
  C 41.58 2.48 49.30 5.65 54.95 11.12
  C 68.67 24.41 65.48 43.15 56.59 58.31
  Q 47.49 73.82 33.73 86.63
  A 0.17 0.10 -53.6 0 1 33.67 86.66
  Q 33.54 86.69 33.40 86.69
  Q 33.26 86.69 33.12 86.65
  A 0.17 0.10 53.9 0 1 33.06 86.63
  Q 19.35 73.77 10.31 58.22
  C 1.48 43.03 -1.64 24.28 12.14 11.04
  C 17.81 5.59 25.54 2.45 33.56 2.47
  Z
  M 30.03 23.74
  A 0.27 0.27 0.0 0 0 30.50 23.92
  L 31.23 23.15
  A 2.14 2.13 66.4 0 0 31.83 21.63
  L 31.73 16.27
  A 0.54 0.53 88.9 0 0 31.19 15.74
  L 30.49 15.76
  A 0.61 0.61 0.0 0 0 29.89 16.37
  L 30.03 23.74
  Z
  M 35.47 23.95
  L 35.47 16.29
  A 0.63 0.63 0.0 0 0 34.84 15.66
  L 34.11 15.66
  A 0.56 0.55 90.0 0 0 33.56 16.22
  L 33.56 21.79
  A 2.22 2.22 0.0 0 0 34.21 23.36
  L 34.99 24.15
  A 0.28 0.28 0.0 0 0 35.47 23.95
  Z
  M 32.64 33.51
  Q 32.95 33.51 35.72 33.87
  A 0.43 0.43 0.0 0 0 36.18 33.30
  Q 35.28 30.94 36.20 30.63
  A 0.69 0.58 -50.2 0 1 36.42 30.59
  Q 38.89 30.55 40.99 31.69
  A 1.28 1.26 43.7 0 0 42.25 31.67
  L 49.47 27.51
  A 0.39 0.38 -59.9 0 0 49.28 26.79
  L 41.68 26.79
  A 0.48 0.48 0.0 0 0 41.56 27.74
  L 44.10 28.41
  A 0.12 0.12 0.0 0 1 44.10 28.64
  L 41.86 29.30
  A 0.77 0.76 -30.5 0 1 41.10 29.11
  L 38.12 26.13
  A 0.55 0.54 -22.4 0 1 38.51 25.20
  L 44.33 25.20
  A 0.27 0.26 82.3 0 0 44.58 24.86
  L 44.45 24.44
  A 0.21 0.20 -8.5 0 0 44.24 24.29
  Q 40.26 24.56 37.69 22.20
  A 0.41 0.41 0.0 0 0 37.00 22.50
  L 37.00 27.86
  A 0.33 0.33 0.0 0 1 36.42 28.08
  L 32.81 23.95
  A 0.20 0.07 5.1 0 0 32.70 23.90
  Q 32.67 23.90 32.64 23.90
  Q 32.61 23.90 32.58 23.90
  A 0.20 0.07 -5.1 0 0 32.47 23.95
  L 28.86 28.08
  A 0.33 0.33 0.0 0 1 28.28 27.86
  L 28.28 22.50
  A 0.41 0.41 0.0 0 0 27.59 22.20
  Q 25.02 24.56 21.04 24.30
  A 0.21 0.20 8.5 0 0 20.83 24.45
  L 20.70 24.87
  A 0.27 0.26 -82.4 0 0 20.95 25.21
  L 26.77 25.20
  A 0.55 0.54 22.4 0 1 27.16 26.13
  L 24.18 29.11
  A 0.77 0.76 30.5 0 1 23.42 29.30
  L 21.18 28.65
  A 0.12 0.12 0.0 0 1 21.18 28.42
  L 23.72 27.74
  A 0.48 0.48 0.0 0 0 23.60 26.79
  L 16.00 26.80
  A 0.39 0.38 59.9 0 0 15.81 27.52
  L 23.03 31.67
  A 1.28 1.26 -43.8 0 0 24.29 31.69
  Q 26.39 30.55 28.86 30.59
  A 0.69 0.58 50.1 0 1 29.08 30.63
  Q 30.00 30.94 29.10 33.30
  A 0.43 0.43 0.0 0 0 29.57 33.88
  Q 32.34 33.51 32.64 33.51
  Z
  M 32.65 47.70
  Q 33.69 47.70 34.69 47.32
  A 0.73 0.73 0.0 0 0 35.16 46.55
  Q 34.56 41.47 36.20 36.91
  A 0.73 0.73 0.0 0 0 35.69 35.96
  L 34.90 35.76
  A 1.03 1.02 -68.8 0 0 33.73 36.28
  Q 32.95 37.80 32.64 37.87
  Q 32.33 37.80 31.56 36.28
  A 1.03 1.02 68.7 0 0 30.38 35.76
  L 29.60 35.96
  A 0.73 0.73 0.0 0 0 29.09 36.91
  Q 30.73 41.47 30.13 46.55
  A 0.73 0.73 0.0 0 0 30.60 47.33
  Q 31.60 47.70 32.65 47.70
  Z
  M 35.6462 50.2637
  A 0.58 0.58 0.0 0 0 35.0805 49.6698
  L 30.2220 49.5510
  A 0.58 0.58 0.0 0 0 29.6280 50.1167
  L 29.5938 51.5163
  A 0.58 0.58 0.0 0 0 30.1595 52.1102
  L 35.0180 52.2290
  A 0.58 0.58 0.0 0 0 35.6120 51.6633
  L 35.6462 50.2637
  Z"
/>
<path fill="#ffffff" d="
  M 30.03 23.74
  L 29.89 16.37
  A 0.61 0.61 0.0 0 1 30.49 15.76
  L 31.19 15.74
  A 0.54 0.53 88.9 0 1 31.73 16.27
  L 31.83 21.63
  A 2.14 2.13 66.4 0 1 31.23 23.15
  L 30.50 23.92
  A 0.27 0.27 0.0 0 1 30.03 23.74
  Z"
/>
<path fill="#ffffff" d="
  M 35.47 23.95
  A 0.28 0.28 0.0 0 1 34.99 24.15
  L 34.21 23.36
  A 2.22 2.22 0.0 0 1 33.56 21.79
  L 33.56 16.22
  A 0.56 0.55 -90.0 0 1 34.11 15.66
  L 34.84 15.66
  A 0.63 0.63 0.0 0 1 35.47 16.29
  L 35.47 23.95
  Z"
/>
<path fill="#ffffff" d="
  M 32.64 23.90
  Q 32.67 23.90 32.70 23.90
  A 0.20 0.07 5.1 0 1 32.81 23.95
  L 36.42 28.08
  A 0.33 0.33 0.0 0 0 37.00 27.86
  L 37.00 22.50
  A 0.41 0.41 0.0 0 1 37.69 22.20
  Q 40.26 24.56 44.24 24.29
  A 0.21 0.20 -8.5 0 1 44.45 24.44
  L 44.58 24.86
  A 0.27 0.26 82.3 0 1 44.33 25.20
  L 38.51 25.20
  A 0.55 0.54 -22.4 0 0 38.12 26.13
  L 41.10 29.11
  A 0.77 0.76 -30.5 0 0 41.86 29.30
  L 44.10 28.64
  A 0.12 0.12 0.0 0 0 44.10 28.41
  L 41.56 27.74
  A 0.48 0.48 0.0 0 1 41.68 26.79
  L 49.28 26.79
  A 0.39 0.38 -59.9 0 1 49.47 27.51
  L 42.25 31.67
  A 1.28 1.26 43.7 0 1 40.99 31.69
  Q 38.89 30.55 36.42 30.59
  A 0.69 0.58 -50.2 0 0 36.20 30.63
  Q 35.28 30.94 36.18 33.30
  A 0.43 0.43 0.0 0 1 35.72 33.87
  Q 32.95 33.51 32.64 33.51
  Q 32.34 33.51 29.57 33.88
  A 0.43 0.43 0.0 0 1 29.10 33.30
  Q 30.00 30.94 29.08 30.63
  A 0.69 0.58 50.1 0 0 28.86 30.59
  Q 26.39 30.55 24.29 31.69
  A 1.28 1.26 -43.8 0 1 23.03 31.67
  L 15.81 27.52
  A 0.39 0.38 59.9 0 1 16.00 26.80
  L 23.60 26.79
  A 0.48 0.48 0.0 0 1 23.72 27.74
  L 21.18 28.42
  A 0.12 0.12 0.0 0 0 21.18 28.65
  L 23.42 29.30
  A 0.77 0.76 30.5 0 0 24.18 29.11
  L 27.16 26.13
  A 0.55 0.54 22.4 0 0 26.77 25.20
  L 20.95 25.21
  A 0.27 0.26 -82.4 0 1 20.70 24.87
  L 20.83 24.45
  A 0.21 0.20 8.5 0 1 21.04 24.30
  Q 25.02 24.56 27.59 22.20
  A 0.41 0.41 0.0 0 1 28.28 22.50
  L 28.28 27.86
  A 0.33 0.33 0.0 0 0 28.86 28.08
  L 32.47 23.95
  A 0.20 0.07 -5.1 0 1 32.58 23.90
  Q 32.61 23.90 32.64 23.90
  Z
  M 34.14 28.60
  A 1.51 1.51 0.0 0 0 32.63 27.09
  A 1.51 1.51 0.0 0 0 31.12 28.60
  A 1.51 1.51 0.0 0 0 32.63 30.11
  A 1.51 1.51 0.0 0 0 34.14 28.60
  Z"
/>
<circle fill="#92723a" cx="32.63" cy="28.60" r="1.51"/>
<path fill="#ffffff" d="
  M 32.64 37.87
  Q 32.95 37.80 33.73 36.28
  A 1.03 1.02 -68.8 0 1 34.90 35.76
  L 35.69 35.96
  A 0.73 0.73 0.0 0 1 36.20 36.91
  Q 34.56 41.47 35.16 46.55
  A 0.73 0.73 0.0 0 1 34.69 47.32
  Q 33.69 47.70 32.65 47.70
  Q 31.60 47.70 30.60 47.33
  A 0.73 0.73 0.0 0 1 30.13 46.55
  Q 30.73 41.47 29.09 36.91
  A 0.73 0.73 0.0 0 1 29.60 35.96
  L 30.38 35.76
  A 1.03 1.02 68.7 0 1 31.56 36.28
  Q 32.33 37.80 32.64 37.87
  Z"
/>
<rect fill="#ffffff" x="-3.01" y="-1.28" transform="translate(32.62,50.89) rotate(1.4)" width="6.02" height="2.56" rx="0.58"/>
</svg>
