<?xml version="1.0" encoding="UTF-8" standalone="no"?>
<!DOCTYPE svg PUBLIC "-//W3C//DTD SVG 1.1//EN" "http://www.w3.org/Graphics/SVG/1.1/DTD/svg11.dtd">
<svg xmlns="http://www.w3.org/2000/svg" version="1.1" viewBox="0.00 0.00 66.00 88.00">
<g stroke-width="2.00" fill="none" stroke-linecap="butt">
<path stroke="#324277" vector-effect="non-scaling-stroke" d="
  M 33.41 86.70
  Q 33.52 86.70 33.62 86.68
  Q 33.64 86.68 33.76 86.56
  Q 48.83 72.31 57.58 56.55
  C 64.34 44.38 67.80 28.08 58.96 15.79
  C 52.99 7.49 43.98 2.54 33.51 2.53
  C 23.04 2.52 14.02 7.44 8.03 15.73
  C -0.84 28.00 2.58 44.31 9.32 56.50
  Q 18.03 72.28 33.07 86.56
  Q 33.19 86.68 33.21 86.68
  Q 33.31 86.70 33.41 86.70"
/>
<path stroke="#a2abce" vector-effect="non-scaling-stroke" d="
  M 51.27 34.00
  A 18.27 18.27 0.0 0 0 33.00 15.73
  A 18.27 18.27 0.0 0 0 14.73 34.00
  A 18.27 18.27 0.0 0 0 33.00 52.27
  A 18.27 18.27 0.0 0 0 51.27 34.00"
/>
<path stroke="#a2abce" vector-effect="non-scaling-stroke" d="
  M 21.45 44.94
  L 43.89 22.42
  A 0.01 0.01 0.0 0 0 43.89 22.41
  L 43.85 22.38
  A 15.78 15.44 -45.1 0 0 21.78 22.65
  L 21.61 22.82
  A 15.78 15.44 -45.1 0 0 21.40 44.90
  L 21.44 44.94
  A 0.01 0.01 0.0 0 0 21.45 44.94"
/>
<path stroke="#a2abce" vector-effect="non-scaling-stroke" d="
  M 44.21 40.70
  C 43.31 41.50 42.70 42.40 41.32 42.65
  C 35.50 43.69 33.82 35.59 39.38 34.18
  A 0.36 0.35 36.3 0 0 39.27 33.48
  C 34.48 33.69 31.19 37.17 32.79 41.93
  C 33.60 44.35 36.50 46.12 39.05 45.77
  Q 43.17 45.20 44.58 40.95
  A 0.23 0.23 0.0 0 0 44.21 40.70"
/>
<path stroke="#a2abce" vector-effect="non-scaling-stroke" d="
  M 23.20 24.21
  Q 23.03 24.38 24.50 26.46
  A 2.12 2.12 0.0 0 1 22.93 29.80
  Q 21.56 29.91 20.82 30.34
  A 0.30 0.30 0.0 0 0 20.97 30.89
  L 22.67 30.89
  A 2.34 2.33 11.9 0 1 24.81 34.16
  L 23.49 37.14
  A 0.20 0.20 0.0 0 0 23.81 37.36
  L 27.35 33.81
  A 0.53 0.53 0.0 0 0 27.36 33.07
  Q 24.73 30.38 27.05 28.06
  Q 29.36 25.74 32.06 28.37
  A 0.53 0.53 0.0 0 0 32.80 28.36
  L 36.35 24.82
  A 0.20 0.20 0.0 0 0 36.13 24.50
  L 33.15 25.82
  A 2.34 2.33 78.1 0 1 29.88 23.68
  L 29.88 21.98
  A 0.30 0.30 0.0 0 0 29.32 21.83
  Q 28.90 22.57 28.79 23.94
  A 2.12 2.12 0.0 0 1 25.45 25.52
  Q 23.37 24.04 23.20 24.21"
/>
</g>
<path fill="#202d51" d="
  M 33.81 88.00
  L 33.04 88.00
  C 22.06 78.03 11.68 65.30 5.65 51.56
  Q 2.13 43.52 1.55 34.89
  C 0.25 15.31 17.16 -0.49 36.85 1.51
  C 52.67 3.11 65.41 16.35 65.46 32.37
  Q 65.48 39.29 63.51 45.51
  C 58.40 61.72 46.31 76.59 33.81 88.00
  Z
  M 33.41 86.70
  Q 33.52 86.70 33.62 86.68
  Q 33.64 86.68 33.76 86.56
  Q 48.83 72.31 57.58 56.55
  C 64.34 44.38 67.80 28.08 58.96 15.79
  C 52.99 7.49 43.98 2.54 33.51 2.53
  C 23.04 2.52 14.02 7.44 8.03 15.73
  C -0.84 28.00 2.58 44.31 9.32 56.50
  Q 18.03 72.28 33.07 86.56
  Q 33.19 86.68 33.21 86.68
  Q 33.31 86.70 33.41 86.70
  Z"
/>
<path fill="#44569c" d="
  M 33.51 2.53
  C 43.98 2.54 52.99 7.49 58.96 15.79
  C 67.80 28.08 64.34 44.38 57.58 56.55
  Q 48.83 72.31 33.76 86.56
  Q 33.64 86.68 33.62 86.68
  Q 33.52 86.70 33.41 86.70
  Q 33.31 86.70 33.21 86.68
  Q 33.19 86.68 33.07 86.56
  Q 18.03 72.28 9.32 56.50
  C 2.58 44.31 -0.84 28.00 8.03 15.73
  C 14.02 7.44 23.04 2.52 33.51 2.53
  Z
  M 51.27 34.00
  A 18.27 18.27 0.0 0 0 33.00 15.73
  A 18.27 18.27 0.0 0 0 14.73 34.00
  A 18.27 18.27 0.0 0 0 33.00 52.27
  A 18.27 18.27 0.0 0 0 51.27 34.00
  Z"
/>
<path fill="#ffffff" d="
  M 51.27 34.00
  A 18.27 18.27 0.0 0 1 33.00 52.27
  A 18.27 18.27 0.0 0 1 14.73 34.00
  A 18.27 18.27 0.0 0 1 33.00 15.73
  A 18.27 18.27 0.0 0 1 51.27 34.00
  Z
  M 21.45 44.94
  L 43.89 22.42
  A 0.01 0.01 0.0 0 0 43.89 22.41
  L 43.85 22.38
  A 15.78 15.44 -45.1 0 0 21.78 22.65
  L 21.61 22.82
  A 15.78 15.44 -45.1 0 0 21.40 44.90
  L 21.44 44.94
  A 0.01 0.01 0.0 0 0 21.45 44.94
  Z
  M 44.21 40.70
  C 43.31 41.50 42.70 42.40 41.32 42.65
  C 35.50 43.69 33.82 35.59 39.38 34.18
  A 0.36 0.35 36.3 0 0 39.27 33.48
  C 34.48 33.69 31.19 37.17 32.79 41.93
  C 33.60 44.35 36.50 46.12 39.05 45.77
  Q 43.17 45.20 44.58 40.95
  A 0.23 0.23 0.0 0 0 44.21 40.70
  Z"
/>
<path fill="#44569c" d="
  M 21.45 44.94
  A 0.01 0.01 0.0 0 1 21.44 44.94
  L 21.40 44.90
  A 15.78 15.44 -45.1 0 1 21.61 22.82
  L 21.78 22.65
  A 15.78 15.44 -45.1 0 1 43.85 22.38
  L 43.89 22.41
  A 0.01 0.01 0.0 0 1 43.89 22.42
  L 21.45 44.94
  Z
  M 23.20 24.21
  Q 23.03 24.38 24.50 26.46
  A 2.12 2.12 0.0 0 1 22.93 29.80
  Q 21.56 29.91 20.82 30.34
  A 0.30 0.30 0.0 0 0 20.97 30.89
  L 22.67 30.89
  A 2.34 2.33 11.9 0 1 24.81 34.16
  L 23.49 37.14
  A 0.20 0.20 0.0 0 0 23.81 37.36
  L 27.35 33.81
  A 0.53 0.53 0.0 0 0 27.36 33.07
  Q 24.73 30.38 27.05 28.06
  Q 29.36 25.74 32.06 28.37
  A 0.53 0.53 0.0 0 0 32.80 28.36
  L 36.35 24.82
  A 0.20 0.20 0.0 0 0 36.13 24.50
  L 33.15 25.82
  A 2.34 2.33 78.1 0 1 29.88 23.68
  L 29.88 21.98
  A 0.30 0.30 0.0 0 0 29.32 21.83
  Q 28.90 22.57 28.79 23.94
  A 2.12 2.12 0.0 0 1 25.45 25.52
  Q 23.37 24.04 23.20 24.21
  Z"
/>
<path fill="#ffffff" d="
  M 27.05 28.06
  Q 24.73 30.38 27.36 33.07
  A 0.53 0.53 0.0 0 1 27.35 33.81
  L 23.81 37.36
  A 0.20 0.20 0.0 0 1 23.49 37.14
  L 24.81 34.16
  A 2.34 2.33 11.9 0 0 22.67 30.89
  L 20.97 30.89
  A 0.30 0.30 0.0 0 1 20.82 30.34
  Q 21.56 29.91 22.93 29.80
  A 2.12 2.12 0.0 0 0 24.50 26.46
  Q 23.03 24.38 23.20 24.21
  Q 23.37 24.04 25.45 25.52
  A 2.12 2.12 0.0 0 0 28.79 23.94
  Q 28.90 22.57 29.32 21.83
  A 0.30 0.30 0.0 0 1 29.88 21.98
  L 29.88 23.68
  A 2.34 2.33 78.1 0 0 33.15 25.82
  L 36.13 24.50
  A 0.20 0.20 0.0 0 1 36.35 24.82
  L 32.80 28.36
  A 0.53 0.53 0.0 0 1 32.06 28.37
  Q 29.36 25.74 27.05 28.06
  Z"
/>
<path fill="#44569c" d="
  M 44.58 40.95
  Q 43.17 45.20 39.05 45.77
  C 36.50 46.12 33.60 44.35 32.79 41.93
  C 31.19 37.17 34.48 33.69 39.27 33.48
  A 0.36 0.35 36.3 0 1 39.38 34.18
  C 33.82 35.59 35.50 43.69 41.32 42.65
  C 42.70 42.40 43.31 41.50 44.21 40.70
  A 0.23 0.23 0.0 0 1 44.58 40.95
  Z"
/>
</svg>
