<?xml version="1.0" encoding="UTF-8" standalone="no"?>
<!DOCTYPE svg PUBLIC "-//W3C//DTD SVG 1.1//EN" "http://www.w3.org/Graphics/SVG/1.1/DTD/svg11.dtd">
<svg xmlns="http://www.w3.org/2000/svg" version="1.1" viewBox="0.00 0.00 66.00 88.00">
<g stroke-width="2.00" fill="none" stroke-linecap="butt">
<path stroke="#324277" vector-effect="non-scaling-stroke" d="
  M 33.40 86.70
  Q 33.51 86.70 33.61 86.68
  Q 33.64 86.67 33.75 86.57
  Q 42.79 77.95 49.63 68.89
  C 61.78 52.78 72.30 29.18 55.76 11.95
  C 50.01 5.96 42.09 2.53 33.52 2.52
  C 24.94 2.50 17.02 5.92 11.25 11.89
  C -5.34 29.08 5.12 52.70 17.23 68.85
  Q 24.04 77.93 33.06 86.57
  Q 33.17 86.67 33.19 86.68
  Q 33.30 86.70 33.40 86.70"
/>
<path stroke="#a2abce" vector-effect="non-scaling-stroke" d="
  M 33.00 50.24
  Q 41.08 50.24 41.89 50.18
  A 0.69 0.69 0.0 0 0 42.52 49.49
  L 42.52 45.65
  A 0.97 0.95 18.6 0 0 42.13 44.88
  L 39.62 43.03
  A 3.84 3.68 -1.2 0 1 39.14 42.59
  Q 36.76 40.02 37.06 36.34
  C 37.43 31.77 41.09 29.74 45.27 29.18
  Q 49.67 28.60 50.74 28.74
  A 0.45 0.44 3.9 0 0 51.25 28.30
  L 51.25 24.47
  A 0.61 0.61 0.0 0 0 50.65 23.86
  Q 41.37 23.69 33.52 18.70
  Q 33.40 18.63 33.00 18.63
  Q 32.60 18.63 32.48 18.70
  Q 24.63 23.69 15.35 23.86
  A 0.61 0.61 0.0 0 0 14.75 24.47
  L 14.75 28.30
  A 0.45 0.44 -3.9 0 0 15.26 28.74
  Q 16.33 28.60 20.73 29.18
  C 24.91 29.74 28.57 31.77 28.94 36.34
  Q 29.24 40.02 26.86 42.59
  A 3.84 3.68 1.2 0 1 26.38 43.03
  L 23.87 44.88
  A 0.97 0.95 -18.6 0 0 23.48 45.65
  L 23.48 49.49
  A 0.69 0.69 0.0 0 0 24.11 50.18
  Q 24.92 50.24 33.00 50.24"
/>
<path stroke="#a2abce" vector-effect="non-scaling-stroke" d="
  M 33.00 30.20
  Q 33.09 30.20 33.17 30.18
  Q 33.33 30.14 33.34 30.13
  Q 36.31 27.71 38.94 26.51
  A 0.32 0.32 0.0 0 0 38.92 25.92
  Q 35.76 24.80 33.13 22.86
  Q 33.09 22.84 32.99 22.84
  Q 32.90 22.84 32.86 22.87
  Q 30.22 24.80 27.07 25.93
  A 0.32 0.32 0.0 0 0 27.05 26.52
  Q 29.68 27.72 32.65 30.13
  Q 32.66 30.14 32.82 30.18
  Q 32.91 30.20 33.00 30.20"
/>
<path stroke="#a2abce" vector-effect="non-scaling-stroke" d="
  M 23.82 26.81
  A 0.50 0.50 0.0 0 0 23.68 25.86
  Q 23.13 25.79 22.47 26.26
  A 0.31 0.31 0.0 0 0 22.58 26.82
  Q 23.38 27.00 23.82 26.81"
/>
<path stroke="#a2abce" vector-effect="non-scaling-stroke" d="
  M 43.47 26.22
  Q 42.60 25.82 42.36 25.84
  A 0.47 0.44 -31.8 0 0 42.14 26.68
  Q 42.75 27.01 43.44 26.78
  A 0.30 0.30 0.0 0 0 43.47 26.22"
/>
<path stroke="#a2abce" vector-effect="non-scaling-stroke" d="
  M 33.01 43.26
  Q 34.65 43.25 34.89 43.20
  A 0.67 0.67 0.0 0 0 35.38 42.33
  L 33.53 36.72
  A 0.78 0.78 0.0 0 0 33.32 36.38
  Q 33.18 36.24 32.99 36.24
  Q 32.81 36.24 32.67 36.38
  A 0.78 0.78 0.0 0 0 32.46 36.72
  L 30.63 42.34
  A 0.67 0.67 0.0 0 0 31.13 43.21
  Q 31.36 43.26 33.01 43.26"
/>
</g>
<path fill="#202d51" d="
  M 33.79 88.00
  L 33.04 88.00
  C 21.94 77.91 11.93 65.51 5.64 51.57
  Q 2.23 44.01 1.60 34.90
  C 0.50 18.91 11.37 5.50 26.73 2.05
  C 41.21 -1.21 56.12 6.11 62.69 19.93
  C 66.94 28.88 65.89 40.02 62.33 49.05
  C 56.50 63.87 45.53 77.35 33.79 88.00
  Z
  M 33.40 86.70
  Q 33.51 86.70 33.61 86.68
  Q 33.64 86.67 33.75 86.57
  Q 42.79 77.95 49.63 68.89
  C 61.78 52.78 72.30 29.18 55.76 11.95
  C 50.01 5.96 42.09 2.53 33.52 2.52
  C 24.94 2.50 17.02 5.92 11.25 11.89
  C -5.34 29.08 5.12 52.70 17.23 68.85
  Q 24.04 77.93 33.06 86.57
  Q 33.17 86.67 33.19 86.68
  Q 33.30 86.70 33.40 86.70
  Z"
/>
<path fill="#44569c" d="
  M 33.52 2.52
  C 42.09 2.53 50.01 5.96 55.76 11.95
  C 72.30 29.18 61.78 52.78 49.63 68.89
  Q 42.79 77.95 33.75 86.57
  Q 33.64 86.67 33.61 86.68
  Q 33.51 86.70 33.40 86.70
  Q 33.30 86.70 33.19 86.68
  Q 33.17 86.67 33.06 86.57
  Q 24.04 77.93 17.23 68.85
  C 5.12 52.70 -5.34 29.08 11.25 11.89
  C 17.02 5.92 24.94 2.50 33.52 2.52
  Z
  M 33.00 50.24
  Q 41.08 50.24 41.89 50.18
  A 0.69 0.69 0.0 0 0 42.52 49.49
  L 42.52 45.65
  A 0.97 0.95 18.6 0 0 42.13 44.88
  L 39.62 43.03
  A 3.84 3.68 -1.2 0 1 39.14 42.59
  Q 36.76 40.02 37.06 36.34
  C 37.43 31.77 41.09 29.74 45.27 29.18
  Q 49.67 28.60 50.74 28.74
  A 0.45 0.44 3.9 0 0 51.25 28.30
  L 51.25 24.47
  A 0.61 0.61 0.0 0 0 50.65 23.86
  Q 41.37 23.69 33.52 18.70
  Q 33.40 18.63 33.00 18.63
  Q 32.60 18.63 32.48 18.70
  Q 24.63 23.69 15.35 23.86
  A 0.61 0.61 0.0 0 0 14.75 24.47
  L 14.75 28.30
  A 0.45 0.44 -3.9 0 0 15.26 28.74
  Q 16.33 28.60 20.73 29.18
  C 24.91 29.74 28.57 31.77 28.94 36.34
  Q 29.24 40.02 26.86 42.59
  A 3.84 3.68 1.2 0 1 26.38 43.03
  L 23.87 44.88
  A 0.97 0.95 -18.6 0 0 23.48 45.65
  L 23.48 49.49
  A 0.69 0.69 0.0 0 0 24.11 50.18
  Q 24.92 50.24 33.00 50.24
  Z"
/>
<path fill="#ffffff" d="
  M 33.00 18.63
  Q 33.40 18.63 33.52 18.70
  Q 41.37 23.69 50.65 23.86
  A 0.61 0.61 0.0 0 1 51.25 24.47
  L 51.25 28.30
  A 0.45 0.44 3.9 0 1 50.74 28.74
  Q 49.67 28.60 45.27 29.18
  C 41.09 29.74 37.43 31.77 37.06 36.34
  Q 36.76 40.02 39.14 42.59
  A 3.84 3.68 -1.2 0 0 39.62 43.03
  L 42.13 44.88
  A 0.97 0.95 18.6 0 1 42.52 45.65
  L 42.52 49.49
  A 0.69 0.69 0.0 0 1 41.89 50.18
  Q 41.08 50.24 33.00 50.24
  Q 24.92 50.24 24.11 50.18
  A 0.69 0.69 0.0 0 1 23.48 49.49
  L 23.48 45.65
  A 0.97 0.95 -18.6 0 1 23.87 44.88
  L 26.38 43.03
  A 3.84 3.68 1.2 0 0 26.86 42.59
  Q 29.24 40.02 28.94 36.34
  C 28.57 31.77 24.91 29.74 20.73 29.18
  Q 16.33 28.60 15.26 28.74
  A 0.45 0.44 -3.9 0 1 14.75 28.30
  L 14.75 24.47
  A 0.61 0.61 0.0 0 1 15.35 23.86
  Q 24.63 23.69 32.48 18.70
  Q 32.60 18.63 33.00 18.63
  Z
  M 33.00 30.20
  Q 33.09 30.20 33.17 30.18
  Q 33.33 30.14 33.34 30.13
  Q 36.31 27.71 38.94 26.51
  A 0.32 0.32 0.0 0 0 38.92 25.92
  Q 35.76 24.80 33.13 22.86
  Q 33.09 22.84 32.99 22.84
  Q 32.90 22.84 32.86 22.87
  Q 30.22 24.80 27.07 25.93
  A 0.32 0.32 0.0 0 0 27.05 26.52
  Q 29.68 27.72 32.65 30.13
  Q 32.66 30.14 32.82 30.18
  Q 32.91 30.20 33.00 30.20
  Z
  M 23.82 26.81
  A 0.50 0.50 0.0 0 0 23.68 25.86
  Q 23.13 25.79 22.47 26.26
  A 0.31 0.31 0.0 0 0 22.58 26.82
  Q 23.38 27.00 23.82 26.81
  Z
  M 43.47 26.22
  Q 42.60 25.82 42.36 25.84
  A 0.47 0.44 -31.8 0 0 42.14 26.68
  Q 42.75 27.01 43.44 26.78
  A 0.30 0.30 0.0 0 0 43.47 26.22
  Z
  M 33.01 43.26
  Q 34.65 43.25 34.89 43.20
  A 0.67 0.67 0.0 0 0 35.38 42.33
  L 33.53 36.72
  A 0.78 0.78 0.0 0 0 33.32 36.38
  Q 33.18 36.24 32.99 36.24
  Q 32.81 36.24 32.67 36.38
  A 0.78 0.78 0.0 0 0 32.46 36.72
  L 30.63 42.34
  A 0.67 0.67 0.0 0 0 31.13 43.21
  Q 31.36 43.26 33.01 43.26
  Z"
/>
<path fill="#44569c" d="
  M 32.99 22.84
  Q 33.09 22.84 33.13 22.86
  Q 35.76 24.80 38.92 25.92
  A 0.32 0.32 0.0 0 1 38.94 26.51
  Q 36.31 27.71 33.34 30.13
  Q 33.33 30.14 33.17 30.18
  Q 33.09 30.20 33.00 30.20
  Q 32.91 30.20 32.82 30.18
  Q 32.66 30.14 32.65 30.13
  Q 29.68 27.72 27.05 26.52
  A 0.32 0.32 0.0 0 1 27.07 25.93
  Q 30.22 24.80 32.86 22.87
  Q 32.90 22.84 32.99 22.84
  Z"
/>
<path fill="#44569c" d="
  M 23.82 26.81
  Q 23.38 27.00 22.58 26.82
  A 0.31 0.31 0.0 0 1 22.47 26.26
  Q 23.13 25.79 23.68 25.86
  A 0.50 0.50 0.0 0 1 23.82 26.81
  Z"
/>
<path fill="#44569c" d="
  M 43.44 26.78
  Q 42.75 27.01 42.14 26.68
  A 0.47 0.44 -31.8 0 1 42.36 25.84
  Q 42.60 25.82 43.47 26.22
  A 0.30 0.30 0.0 0 1 43.44 26.78
  Z"
/>
<path fill="#44569c" d="
  M 32.99 36.24
  Q 33.18 36.24 33.32 36.38
  A 0.78 0.78 0.0 0 1 33.53 36.72
  L 35.38 42.33
  A 0.67 0.67 0.0 0 1 34.89 43.20
  Q 34.65 43.25 33.01 43.26
  Q 31.36 43.26 31.13 43.21
  A 0.67 0.67 0.0 0 1 30.63 42.34
  L 32.46 36.72
  A 0.78 0.78 0.0 0 1 32.67 36.38
  Q 32.81 36.24 32.99 36.24
  Z"
/>
</svg>
