<?xml version="1.0" encoding="UTF-8" standalone="no"?>
<!DOCTYPE svg PUBLIC "-//W3C//DTD SVG 1.1//EN" "http://www.w3.org/Graphics/SVG/1.1/DTD/svg11.dtd">
<svg xmlns="http://www.w3.org/2000/svg" version="1.1" viewBox="0.00 0.00 66.00 88.00">
<g stroke-width="2.00" fill="none" stroke-linecap="butt">
<path stroke="#353846" vector-effect="non-scaling-stroke" d="
  M 33.42 86.60
  C 33.89 86.60 33.62 86.63 33.79 86.47
  Q 43.53 77.34 51.10 66.88
  C 60.42 53.99 69.20 35.13 61.09 19.39
  Q 55.60 8.75 44.31 4.50
  Q 38.97 2.49 33.51 2.48
  Q 28.05 2.48 22.71 4.47
  Q 11.41 8.70 5.90 19.33
  C -2.25 35.05 6.49 53.93 15.78 66.84
  Q 23.33 77.32 33.05 86.47
  C 33.22 86.63 32.95 86.60 33.42 86.60"
/>
<path stroke="#a3a4ae" vector-effect="non-scaling-stroke" d="
  M 37.60 35.47
  Q 38.04 35.65 38.36 35.73
  A 0.66 0.65 -72.5 0 0 39.11 35.33
  L 42.30 27.42
  A 1.12 1.12 0.0 0 1 43.24 26.73
  L 43.93 26.67
  A 1.05 1.04 -81.4 0 0 44.82 26.01
  L 47.70 18.94
  A 1.48 1.47 28.8 0 0 47.19 17.17
  Q 46.87 16.94 45.45 16.36
  Q 44.03 15.77 43.65 15.72
  A 1.48 1.47 15.9 0 0 42.04 16.61
  L 39.11 23.67
  A 1.05 1.04 -53.9 0 0 39.28 24.76
  L 39.73 25.29
  A 1.12 1.12 0.0 0 1 39.91 26.44
  L 36.62 34.31
  A 0.66 0.65 -62.8 0 0 36.88 35.12
  Q 37.16 35.29 37.60 35.47"
/>
<path stroke="#a3a4ae" vector-effect="non-scaling-stroke" d="
  M 32.61 45.00
  Q 41.41 45.00 42.12 44.88
  A 0.48 0.48 0.0 0 0 42.49 44.22
  C 40.79 40.28 37.05 37.49 32.60 37.49
  C 28.16 37.49 24.42 40.29 22.72 44.23
  A 0.48 0.48 0.0 0 0 23.09 44.89
  Q 23.80 45.00 32.61 45.00"
/>
<path stroke="#a3a4ae" vector-effect="non-scaling-stroke" d="
  M 47.82 48.43
  A 0.36 0.36 0.0 0 0 47.46 48.07
  L 17.78 48.07
  A 0.36 0.36 0.0 0 0 17.42 48.43
  L 17.42 51.97
  A 0.36 0.36 0.0 0 0 17.78 52.33
  L 47.46 52.33
  A 0.36 0.36 0.0 0 0 47.82 51.97
  L 47.82 48.43"
/>
</g>
<path fill="#232630" d="
  M 33.79 88.00
  L 33.04 88.00
  C 21.79 77.78 12.04 65.61 5.64 51.56
  Q 2.17 43.93 1.59 34.88
  Q 1.01 25.83 5.12 18.25
  C 17.84 -5.20 51.93 -4.04 62.92 20.44
  C 66.91 29.31 65.82 40.18 62.33 49.06
  C 56.51 63.87 45.52 77.36 33.79 88.00
  Z
  M 33.42 86.60
  C 33.89 86.60 33.62 86.63 33.79 86.47
  Q 43.53 77.34 51.10 66.88
  C 60.42 53.99 69.20 35.13 61.09 19.39
  Q 55.60 8.75 44.31 4.50
  Q 38.97 2.49 33.51 2.48
  Q 28.05 2.48 22.71 4.47
  Q 11.41 8.70 5.90 19.33
  C -2.25 35.05 6.49 53.93 15.78 66.84
  Q 23.33 77.32 33.05 86.47
  C 33.22 86.63 32.95 86.60 33.42 86.60
  Z"
/>
<path fill="#46495c" d="
  M 33.51 2.48
  Q 38.97 2.49 44.31 4.50
  Q 55.60 8.75 61.09 19.39
  C 69.20 35.13 60.42 53.99 51.10 66.88
  Q 43.53 77.34 33.79 86.47
  C 33.62 86.63 33.89 86.60 33.42 86.60
  C 32.95 86.60 33.22 86.63 33.05 86.47
  Q 23.33 77.32 15.78 66.84
  C 6.49 53.93 -2.25 35.05 5.90 19.33
  Q 11.41 8.70 22.71 4.47
  Q 28.05 2.48 33.51 2.48
  Z
  M 37.60 35.47
  Q 38.04 35.65 38.36 35.73
  A 0.66 0.65 -72.5 0 0 39.11 35.33
  L 42.30 27.42
  A 1.12 1.12 0.0 0 1 43.24 26.73
  L 43.93 26.67
  A 1.05 1.04 -81.4 0 0 44.82 26.01
  L 47.70 18.94
  A 1.48 1.47 28.8 0 0 47.19 17.17
  Q 46.87 16.94 45.45 16.36
  Q 44.03 15.77 43.65 15.72
  A 1.48 1.47 15.9 0 0 42.04 16.61
  L 39.11 23.67
  A 1.05 1.04 -53.9 0 0 39.28 24.76
  L 39.73 25.29
  A 1.12 1.12 0.0 0 1 39.91 26.44
  L 36.62 34.31
  A 0.66 0.65 -62.8 0 0 36.88 35.12
  Q 37.16 35.29 37.60 35.47
  Z
  M 32.61 45.00
  Q 41.41 45.00 42.12 44.88
  A 0.48 0.48 0.0 0 0 42.49 44.22
  C 40.79 40.28 37.05 37.49 32.60 37.49
  C 28.16 37.49 24.42 40.29 22.72 44.23
  A 0.48 0.48 0.0 0 0 23.09 44.89
  Q 23.80 45.00 32.61 45.00
  Z
  M 47.82 48.43
  A 0.36 0.36 0.0 0 0 47.46 48.07
  L 17.78 48.07
  A 0.36 0.36 0.0 0 0 17.42 48.43
  L 17.42 51.97
  A 0.36 0.36 0.0 0 0 17.78 52.33
  L 47.46 52.33
  A 0.36 0.36 0.0 0 0 47.82 51.97
  L 47.82 48.43
  Z"
/>
<path fill="#ffffff" d="
  M 45.45 16.36
  Q 46.87 16.94 47.19 17.17
  A 1.48 1.47 28.8 0 1 47.70 18.94
  L 44.82 26.01
  A 1.05 1.04 -81.4 0 1 43.93 26.67
  L 43.24 26.73
  A 1.12 1.12 0.0 0 0 42.30 27.42
  L 39.11 35.33
  A 0.66 0.65 -72.5 0 1 38.36 35.73
  Q 38.04 35.65 37.60 35.47
  Q 37.16 35.29 36.88 35.12
  A 0.66 0.65 -62.8 0 1 36.62 34.31
  L 39.91 26.44
  A 1.12 1.12 0.0 0 0 39.73 25.29
  L 39.28 24.76
  A 1.05 1.04 -53.9 0 1 39.11 23.67
  L 42.04 16.61
  A 1.48 1.47 15.9 0 1 43.65 15.72
  Q 44.03 15.77 45.45 16.36
  Z"
/>
<path fill="#ffffff" d="
  M 32.60 37.49
  C 37.05 37.49 40.79 40.28 42.49 44.22
  A 0.48 0.48 0.0 0 1 42.12 44.88
  Q 41.41 45.00 32.61 45.00
  Q 23.80 45.00 23.09 44.89
  A 0.48 0.48 0.0 0 1 22.72 44.23
  C 24.42 40.29 28.16 37.49 32.60 37.49
  Z"
/>
<rect fill="#ffffff" x="17.42" y="48.07" width="30.40" height="4.26" rx="0.36"/>
</svg>
