<?xml version="1.0" encoding="UTF-8" standalone="no"?>
<!DOCTYPE svg PUBLIC "-//W3C//DTD SVG 1.1//EN" "http://www.w3.org/Graphics/SVG/1.1/DTD/svg11.dtd">
<svg xmlns="http://www.w3.org/2000/svg" version="1.1" viewBox="0.00 0.00 66.00 88.00">
<g stroke-width="2.00" fill="none" stroke-linecap="butt">
<path stroke="#353846" vector-effect="non-scaling-stroke" d="
  M 33.42 86.58
  C 33.76 86.58 33.65 86.60 33.81 86.45
  Q 48.42 73.13 57.53 56.50
  Q 62.72 47.01 63.83 38.71
  Q 66.70 17.19 48.26 6.28
  Q 41.96 2.54 33.51 2.54
  Q 25.06 2.53 18.75 6.25
  Q 0.29 17.12 3.12 38.65
  Q 4.21 46.95 9.38 56.45
  Q 18.46 73.10 33.04 86.45
  C 33.20 86.60 33.09 86.58 33.42 86.58"
/>
<path stroke="#a3a4ae" vector-effect="non-scaling-stroke" d="
  M 40.21 23.87
  Q 42.64 25.28 49.08 29.00
  A 0.26 0.26 0.0 0 0 49.46 28.77
  C 49.40 24.48 48.21 19.08 44.29 16.81
  C 40.37 14.55 35.10 16.21 31.34 18.29
  A 0.26 0.26 0.0 0 0 31.34 18.74
  Q 37.78 22.46 40.21 23.87"
/>
<path stroke="#a3a4ae" vector-effect="non-scaling-stroke" d="
  M 46.98 40.56
  L 39.26 42.62
  A 1.02 1.01 74.7 0 1 38.02 41.91
  L 37.73 40.80
  A 0.82 0.81 76.0 0 1 38.33 39.79
  Q 41.18 39.11 46.52 37.57
  Q 47.35 37.33 47.55 38.64
  A 0.18 0.18 0.0 0 0 47.88 38.70
  L 48.41 37.80
  A 0.56 0.56 0.0 0 0 48.41 37.24
  Q 47.01 34.76 44.49 34.02
  A 1.22 1.22 0.0 0 1 43.65 33.17
  L 43.20 31.45
  A 0.46 0.45 -3.7 0 1 43.71 30.88
  Q 46.92 31.38 48.94 33.26
  A 0.27 0.27 0.0 0 0 49.38 32.99
  L 49.01 31.62
  A 0.48 0.47 -83.0 0 0 48.77 31.31
  L 28.96 19.89
  A 0.62 0.61 32.3 0 0 28.15 20.07
  L 28.14 20.09
  A 0.62 0.61 -55.2 0 0 28.29 20.95
  Q 33.44 24.50 33.87 31.57
  A 0.22 0.21 -13.5 0 1 33.73 31.78
  Q 32.56 32.19 31.42 32.17
  A 0.28 0.27 81.3 0 1 31.16 31.97
  C 30.08 27.89 29.83 24.29 25.29 23.07
  A 0.83 0.83 0.0 0 0 24.28 24.08
  L 24.69 25.59
  A 0.76 0.75 -21.1 0 1 24.30 26.46
  Q 22.68 27.27 21.71 26.67
  A 0.41 0.40 31.1 0 0 21.14 26.81
  L 20.27 28.32
  A 0.23 0.23 0.0 0 0 20.52 28.66
  L 28.04 26.64
  A 0.52 0.51 -14.7 0 1 28.67 27.00
  L 29.20 28.98
  A 0.40 0.39 75.1 0 1 28.93 29.46
  L 20.67 31.67
  A 1.90 1.87 -36.9 0 1 19.24 31.48
  L 18.95 31.31
  A 0.41 0.41 0.0 0 0 18.39 31.87
  Q 19.89 34.42 22.09 34.92
  A 1.45 1.43 88.5 0 1 23.16 35.95
  L 23.57 37.47
  A 0.60 0.59 87.0 0 1 22.91 38.21
  Q 20.48 37.83 18.06 36.16
  A 0.42 0.42 0.0 0 0 17.41 36.45
  L 17.37 36.78
  A 1.16 1.16 0.0 0 0 17.93 37.93
  L 38.90 50.03
  A 1.39 1.35 -36.4 0 0 39.93 50.17
  L 41.15 49.84
  A 0.44 0.43 -45.2 0 0 41.15 49.00
  Q 35.17 47.49 33.69 41.57
  Q 33.09 39.18 32.79 38.38
  A 0.86 0.85 72.5 0 1 33.37 37.26
  L 34.73 36.90
  A 0.82 0.82 0.0 0 1 35.76 37.56
  C 36.32 40.98 37.16 44.46 40.77 45.80
  C 42.09 46.28 42.01 46.99 42.28 48.11
  A 0.36 0.36 0.0 0 0 42.73 48.38
  L 43.03 48.30
  A 0.35 0.35 0.0 0 0 43.28 47.87
  L 42.16 43.71
  A 0.63 0.63 0.0 0 1 42.53 42.97
  Q 43.83 42.46 44.03 42.41
  Q 44.80 42.18 45.05 42.79
  Q 45.14 43.01 45.21 44.03
  A 0.28 0.28 0.0 0 0 45.74 44.15
  L 47.46 41.18
  A 0.43 0.42 7.5 0 0 46.98 40.56"
/>
<path stroke="#a3a4ae" vector-effect="non-scaling-stroke" d="
  M 24.93 50.24
  Q 30.04 53.21 36.58 51.81
  A 0.27 0.27 0.0 0 0 36.67 51.32
  Q 35.78 50.76 27.45 45.91
  Q 19.11 41.07 18.19 40.57
  A 0.27 0.27 0.0 0 0 17.80 40.89
  Q 19.82 47.27 24.93 50.24"
/>
<path stroke="#a3a4ae" vector-effect="non-scaling-stroke" d="
  M 34.28 27.78
  A 1.51 1.50 2.0 0 0 35.25 28.81
  C 39.07 30.10 39.64 33.38 40.54 37.42
  A 0.56 0.56 0.0 0 0 41.23 37.84
  L 42.98 37.37
  A 0.56 0.54 -12.1 0 0 43.38 36.75
  C 42.46 31.12 40.31 26.47 34.46 25.62
  A 0.53 0.53 0.0 0 0 33.88 26.27
  L 34.28 27.78"
/>
<path stroke="#a3a4ae" vector-effect="non-scaling-stroke" d="
  M 32.59 41.60
  A 1.52 1.50 1.9 0 0 31.62 40.57
  C 27.77 39.28 27.20 35.98 26.29 31.92
  A 0.56 0.56 0.0 0 0 25.60 31.50
  L 23.84 31.97
  A 0.56 0.55 -12.1 0 0 23.43 32.59
  C 24.36 38.25 26.53 42.93 32.41 43.78
  A 0.53 0.53 0.0 0 0 33.00 43.12
  L 32.59 41.60"
/>
<path stroke="#a3a4ae" vector-effect="non-scaling-stroke" d="
  M 38.0928 32.4814
  A 0.73 0.73 0.0 0 0 37.1960 31.9699
  L 28.8429 34.2550
  A 0.73 0.73 0.0 0 0 28.3314 35.1518
  L 28.7272 36.5986
  A 0.73 0.73 0.0 0 0 29.6240 37.1101
  L 37.9771 34.8250
  A 0.73 0.73 0.0 0 0 38.4886 33.9282
  L 38.0928 32.4814"
/>
</g>
<path fill="#242630" d="
  M 33.78 88.00
  L 33.03 88.00
  C 21.87 77.84 12.07 65.67 5.74 51.77
  Q 2.86 45.45 1.94 38.72
  Q -0.14 23.58 8.51 13.15
  Q 17.60 2.22 32.00 1.35
  C 40.46 0.84 49.71 4.22 55.88 10.34
  C 80.49 34.74 52.61 70.95 33.78 88.00
  Z
  M 33.42 86.58
  C 33.76 86.58 33.65 86.60 33.81 86.45
  Q 48.42 73.13 57.53 56.50
  Q 62.72 47.01 63.83 38.71
  Q 66.70 17.19 48.26 6.28
  Q 41.96 2.54 33.51 2.54
  Q 25.06 2.53 18.75 6.25
  Q 0.29 17.12 3.12 38.65
  Q 4.21 46.95 9.38 56.45
  Q 18.46 73.10 33.04 86.45
  C 33.20 86.60 33.09 86.58 33.42 86.58
  Z"
/>
<path fill="#46495c" d="
  M 33.51 2.54
  Q 41.96 2.54 48.26 6.28
  Q 66.70 17.19 63.83 38.71
  Q 62.72 47.01 57.53 56.50
  Q 48.42 73.13 33.81 86.45
  C 33.65 86.60 33.76 86.58 33.42 86.58
  C 33.09 86.58 33.20 86.60 33.04 86.45
  Q 18.46 73.10 9.38 56.45
  Q 4.21 46.95 3.12 38.65
  Q 0.29 17.12 18.75 6.25
  Q 25.06 2.53 33.51 2.54
  Z
  M 40.21 23.87
  Q 42.64 25.28 49.08 29.00
  A 0.26 0.26 0.0 0 0 49.46 28.77
  C 49.40 24.48 48.21 19.08 44.29 16.81
  C 40.37 14.55 35.10 16.21 31.34 18.29
  A 0.26 0.26 0.0 0 0 31.34 18.74
  Q 37.78 22.46 40.21 23.87
  Z
  M 46.98 40.56
  L 39.26 42.62
  A 1.02 1.01 74.7 0 1 38.02 41.91
  L 37.73 40.80
  A 0.82 0.81 76.0 0 1 38.33 39.79
  Q 41.18 39.11 46.52 37.57
  Q 47.35 37.33 47.55 38.64
  A 0.18 0.18 0.0 0 0 47.88 38.70
  L 48.41 37.80
  A 0.56 0.56 0.0 0 0 48.41 37.24
  Q 47.01 34.76 44.49 34.02
  A 1.22 1.22 0.0 0 1 43.65 33.17
  L 43.20 31.45
  A 0.46 0.45 -3.7 0 1 43.71 30.88
  Q 46.92 31.38 48.94 33.26
  A 0.27 0.27 0.0 0 0 49.38 32.99
  L 49.01 31.62
  A 0.48 0.47 -83.0 0 0 48.77 31.31
  L 28.96 19.89
  A 0.62 0.61 32.3 0 0 28.15 20.07
  L 28.14 20.09
  A 0.62 0.61 -55.2 0 0 28.29 20.95
  Q 33.44 24.50 33.87 31.57
  A 0.22 0.21 -13.5 0 1 33.73 31.78
  Q 32.56 32.19 31.42 32.17
  A 0.28 0.27 81.3 0 1 31.16 31.97
  C 30.08 27.89 29.83 24.29 25.29 23.07
  A 0.83 0.83 0.0 0 0 24.28 24.08
  L 24.69 25.59
  A 0.76 0.75 -21.1 0 1 24.30 26.46
  Q 22.68 27.27 21.71 26.67
  A 0.41 0.40 31.1 0 0 21.14 26.81
  L 20.27 28.32
  A 0.23 0.23 0.0 0 0 20.52 28.66
  L 28.04 26.64
  A 0.52 0.51 -14.7 0 1 28.67 27.00
  L 29.20 28.98
  A 0.40 0.39 75.1 0 1 28.93 29.46
  L 20.67 31.67
  A 1.90 1.87 -36.9 0 1 19.24 31.48
  L 18.95 31.31
  A 0.41 0.41 0.0 0 0 18.39 31.87
  Q 19.89 34.42 22.09 34.92
  A 1.45 1.43 88.5 0 1 23.16 35.95
  L 23.57 37.47
  A 0.60 0.59 87.0 0 1 22.91 38.21
  Q 20.48 37.83 18.06 36.16
  A 0.42 0.42 0.0 0 0 17.41 36.45
  L 17.37 36.78
  A 1.16 1.16 0.0 0 0 17.93 37.93
  L 38.90 50.03
  A 1.39 1.35 -36.4 0 0 39.93 50.17
  L 41.15 49.84
  A 0.44 0.43 -45.2 0 0 41.15 49.00
  Q 35.17 47.49 33.69 41.57
  Q 33.09 39.18 32.79 38.38
  A 0.86 0.85 72.5 0 1 33.37 37.26
  L 34.73 36.90
  A 0.82 0.82 0.0 0 1 35.76 37.56
  C 36.32 40.98 37.16 44.46 40.77 45.80
  C 42.09 46.28 42.01 46.99 42.28 48.11
  A 0.36 0.36 0.0 0 0 42.73 48.38
  L 43.03 48.30
  A 0.35 0.35 0.0 0 0 43.28 47.87
  L 42.16 43.71
  A 0.63 0.63 0.0 0 1 42.53 42.97
  Q 43.83 42.46 44.03 42.41
  Q 44.80 42.18 45.05 42.79
  Q 45.14 43.01 45.21 44.03
  A 0.28 0.28 0.0 0 0 45.74 44.15
  L 47.46 41.18
  A 0.43 0.42 7.5 0 0 46.98 40.56
  Z
  M 24.93 50.24
  Q 30.04 53.21 36.58 51.81
  A 0.27 0.27 0.0 0 0 36.67 51.32
  Q 35.78 50.76 27.45 45.91
  Q 19.11 41.07 18.19 40.57
  A 0.27 0.27 0.0 0 0 17.80 40.89
  Q 19.82 47.27 24.93 50.24
  Z"
/>
<path fill="#ffffff" d="
  M 44.29 16.81
  C 48.21 19.08 49.40 24.48 49.46 28.77
  A 0.26 0.26 0.0 0 1 49.08 29.00
  Q 42.64 25.28 40.21 23.87
  Q 37.78 22.46 31.34 18.74
  A 0.26 0.26 0.0 0 1 31.34 18.29
  C 35.10 16.21 40.37 14.55 44.29 16.81
  Z"
/>
<path fill="#ffffff" d="
  M 47.46 41.18
  L 45.74 44.15
  A 0.28 0.28 0.0 0 1 45.21 44.03
  Q 45.14 43.01 45.05 42.79
  Q 44.80 42.18 44.03 42.41
  Q 43.83 42.46 42.53 42.97
  A 0.63 0.63 0.0 0 0 42.16 43.71
  L 43.28 47.87
  A 0.35 0.35 0.0 0 1 43.03 48.30
  L 42.73 48.38
  A 0.36 0.36 0.0 0 1 42.28 48.11
  C 42.01 46.99 42.09 46.28 40.77 45.80
  C 37.16 44.46 36.32 40.98 35.76 37.56
  A 0.82 0.82 0.0 0 0 34.73 36.90
  L 33.37 37.26
  A 0.86 0.85 72.5 0 0 32.79 38.38
  Q 33.09 39.18 33.69 41.57
  Q 35.17 47.49 41.15 49.00
  A 0.44 0.43 -45.2 0 1 41.15 49.84
  L 39.93 50.17
  A 1.39 1.35 -36.4 0 1 38.90 50.03
  L 17.93 37.93
  A 1.16 1.16 0.0 0 1 17.37 36.78
  L 17.41 36.45
  A 0.42 0.42 0.0 0 1 18.06 36.16
  Q 20.48 37.83 22.91 38.21
  A 0.60 0.59 87.0 0 0 23.57 37.47
  L 23.16 35.95
  A 1.45 1.43 88.5 0 0 22.09 34.92
  Q 19.89 34.42 18.39 31.87
  A 0.41 0.41 0.0 0 1 18.95 31.31
  L 19.24 31.48
  A 1.90 1.87 -36.9 0 0 20.67 31.67
  L 28.93 29.46
  A 0.40 0.39 75.1 0 0 29.20 28.98
  L 28.67 27.00
  A 0.52 0.51 -14.7 0 0 28.04 26.64
  L 20.52 28.66
  A 0.23 0.23 0.0 0 1 20.27 28.32
  L 21.14 26.81
  A 0.41 0.40 31.1 0 1 21.71 26.67
  Q 22.68 27.27 24.30 26.46
  A 0.76 0.75 -21.1 0 0 24.69 25.59
  L 24.28 24.08
  A 0.83 0.83 0.0 0 1 25.29 23.07
  C 29.83 24.29 30.08 27.89 31.16 31.97
  A 0.28 0.27 81.3 0 0 31.42 32.17
  Q 32.56 32.19 33.73 31.78
  A 0.22 0.21 -13.5 0 0 33.87 31.57
  Q 33.44 24.50 28.29 20.95
  A 0.62 0.61 -55.2 0 1 28.14 20.09
  L 28.15 20.07
  A 0.62 0.61 32.3 0 1 28.96 19.89
  L 48.77 31.31
  A 0.48 0.47 -83.0 0 1 49.01 31.62
  L 49.38 32.99
  A 0.27 0.27 0.0 0 1 48.94 33.26
  Q 46.92 31.38 43.71 30.88
  A 0.46 0.45 -3.7 0 0 43.20 31.45
  L 43.65 33.17
  A 1.22 1.22 0.0 0 0 44.49 34.02
  Q 47.01 34.76 48.41 37.24
  A 0.56 0.56 0.0 0 1 48.41 37.80
  L 47.88 38.70
  A 0.18 0.18 0.0 0 1 47.55 38.64
  Q 47.35 37.33 46.52 37.57
  Q 41.18 39.11 38.33 39.79
  A 0.82 0.81 76.0 0 0 37.73 40.80
  L 38.02 41.91
  A 1.02 1.01 74.7 0 0 39.26 42.62
  L 46.98 40.56
  A 0.43 0.42 7.5 0 1 47.46 41.18
  Z
  M 34.28 27.78
  A 1.51 1.50 2.0 0 0 35.25 28.81
  C 39.07 30.10 39.64 33.38 40.54 37.42
  A 0.56 0.56 0.0 0 0 41.23 37.84
  L 42.98 37.37
  A 0.56 0.54 -12.1 0 0 43.38 36.75
  C 42.46 31.12 40.31 26.47 34.46 25.62
  A 0.53 0.53 0.0 0 0 33.88 26.27
  L 34.28 27.78
  Z
  M 32.59 41.60
  A 1.52 1.50 1.9 0 0 31.62 40.57
  C 27.77 39.28 27.20 35.98 26.29 31.92
  A 0.56 0.56 0.0 0 0 25.60 31.50
  L 23.84 31.97
  A 0.56 0.55 -12.1 0 0 23.43 32.59
  C 24.36 38.25 26.53 42.93 32.41 43.78
  A 0.53 0.53 0.0 0 0 33.00 43.12
  L 32.59 41.60
  Z
  M 38.0928 32.4814
  A 0.73 0.73 0.0 0 0 37.1960 31.9699
  L 28.8429 34.2550
  A 0.73 0.73 0.0 0 0 28.3314 35.1518
  L 28.7272 36.5986
  A 0.73 0.73 0.0 0 0 29.6240 37.1101
  L 37.9771 34.8250
  A 0.73 0.73 0.0 0 0 38.4886 33.9282
  L 38.0928 32.4814
  Z"
/>
<path fill="#46495c" d="
  M 34.28 27.78
  L 33.88 26.27
  A 0.53 0.53 0.0 0 1 34.46 25.62
  C 40.31 26.47 42.46 31.12 43.38 36.75
  A 0.56 0.54 -12.1 0 1 42.98 37.37
  L 41.23 37.84
  A 0.56 0.56 0.0 0 1 40.54 37.42
  C 39.64 33.38 39.07 30.10 35.25 28.81
  A 1.51 1.50 2.0 0 1 34.28 27.78
  Z"
/>
<path fill="#46495c" d="
  M 32.41 43.78
  C 26.53 42.93 24.36 38.25 23.43 32.59
  A 0.56 0.55 -12.1 0 1 23.84 31.97
  L 25.60 31.50
  A 0.56 0.56 0.0 0 1 26.29 31.92
  C 27.20 35.98 27.77 39.28 31.62 40.57
  A 1.52 1.50 1.9 0 1 32.59 41.60
  L 33.00 43.12
  A 0.53 0.53 0.0 0 1 32.41 43.78
  Z"
/>
<rect fill="#46495c" x="-5.06" y="-1.48" transform="translate(33.41,34.54) rotate(-15.3)" width="10.12" height="2.96" rx="0.73"/>
<path fill="#ffffff" d="
  M 27.45 45.91
  Q 35.78 50.76 36.67 51.32
  A 0.27 0.27 0.0 0 1 36.58 51.81
  Q 30.04 53.21 24.93 50.24
  Q 19.82 47.27 17.80 40.89
  A 0.27 0.27 0.0 0 1 18.19 40.57
  Q 19.11 41.07 27.45 45.91
  Z"
/>
</svg>
