<?xml version="1.0" encoding="UTF-8" standalone="no"?>
<!DOCTYPE svg PUBLIC "-//W3C//DTD SVG 1.1//EN" "http://www.w3.org/Graphics/SVG/1.1/DTD/svg11.dtd">
<svg xmlns="http://www.w3.org/2000/svg" version="1.1" viewBox="0.00 0.00 66.00 88.00">
<g stroke-width="2.00" fill="none" stroke-linecap="butt">
<path stroke="#2b5d6e" vector-effect="non-scaling-stroke" d="
  M 33.41 86.71
  Q 33.51 86.71 33.62 86.69
  Q 33.67 86.68 33.77 86.58
  C 45.85 74.90 57.90 60.61 62.57 44.49
  C 67.14 28.74 62.43 14.58 48.72 6.53
  Q 41.82 2.48 33.52 2.47
  Q 25.23 2.46 18.31 6.49
  C 4.59 14.50 -0.16 28.65 4.36 44.41
  C 8.99 60.54 21.00 74.87 33.05 86.58
  Q 33.15 86.68 33.20 86.69
  Q 33.31 86.71 33.41 86.71"
/>
<path stroke="#9dbdc8" vector-effect="non-scaling-stroke" d="
  M 33.00 35.01
  Q 47.24 35.01 47.83 34.99
  A 0.57 0.56 -85.9 0 0 48.36 34.52
  Q 49.27 29.30 51.10 24.86
  C 51.90 22.93 50.80 21.84 48.76 22.20
  Q 45.38 22.79 45.29 22.73
  A 0.42 0.42 0.0 0 0 44.75 23.37
  Q 45.48 24.19 47.87 23.98
  A 0.55 0.55 0.0 0 1 48.47 24.52
  Q 48.50 26.21 47.71 27.00
  A 0.83 0.82 34.9 0 1 46.80 27.16
  C 42.71 25.30 37.64 23.90 33.00 23.90
  C 28.37 23.90 23.29 25.30 19.20 27.16
  A 0.83 0.82 -34.8 0 1 18.29 27.00
  Q 17.50 26.21 17.53 24.52
  A 0.55 0.55 0.0 0 1 18.13 23.98
  Q 20.52 24.19 21.25 23.37
  A 0.42 0.42 0.0 0 0 20.71 22.73
  Q 20.62 22.79 17.24 22.20
  C 15.20 21.84 14.10 22.93 14.90 24.86
  Q 16.73 29.30 17.64 34.52
  A 0.57 0.56 86.0 0 0 18.17 34.98
  Q 18.76 35.00 33.00 35.01"
/>
<path stroke="#9dbdc8" vector-effect="non-scaling-stroke" d="
  M 20.18 45.98
  A 0.33 0.33 0.0 0 0 20.51 46.24
  L 45.46 46.24
  A 0.33 0.33 0.0 0 0 45.79 45.98
  L 47.34 38.92
  A 0.33 0.33 0.0 0 0 47.02 38.52
  L 18.95 38.52
  A 0.33 0.33 0.0 0 0 18.63 38.92
  L 20.18 45.98"
/>
</g>
<path fill="#1b404b" d="
  M 33.79 88.00
  L 33.04 88.00
  C 21.94 77.91 11.93 65.51 5.64 51.57
  Q 2.23 44.01 1.60 34.90
  C 0.49 18.91 11.38 5.50 26.73 2.05
  C 41.21 -1.20 56.13 6.11 62.69 19.93
  C 66.94 28.88 65.90 40.01 62.33 49.05
  C 56.49 63.87 45.54 77.35 33.79 88.00
  Z
  M 33.41 86.71
  Q 33.51 86.71 33.62 86.69
  Q 33.67 86.68 33.77 86.58
  C 45.85 74.90 57.90 60.61 62.57 44.49
  C 67.14 28.74 62.43 14.58 48.72 6.53
  Q 41.82 2.48 33.52 2.47
  Q 25.23 2.46 18.31 6.49
  C 4.59 14.50 -0.16 28.65 4.36 44.41
  C 8.99 60.54 21.00 74.87 33.05 86.58
  Q 33.15 86.68 33.20 86.69
  Q 33.31 86.71 33.41 86.71
  Z"
/>
<path fill="#3a7a91" d="
  M 33.52 2.47
  Q 41.82 2.48 48.72 6.53
  C 62.43 14.58 67.14 28.74 62.57 44.49
  C 57.90 60.61 45.85 74.90 33.77 86.58
  Q 33.67 86.68 33.62 86.69
  Q 33.51 86.71 33.41 86.71
  Q 33.31 86.71 33.20 86.69
  Q 33.15 86.68 33.05 86.58
  C 21.00 74.87 8.99 60.54 4.36 44.41
  C -0.16 28.65 4.59 14.50 18.31 6.49
  Q 25.23 2.46 33.52 2.47
  Z
  M 33.00 35.01
  Q 47.24 35.01 47.83 34.99
  A 0.57 0.56 -85.9 0 0 48.36 34.52
  Q 49.27 29.30 51.10 24.86
  C 51.90 22.93 50.80 21.84 48.76 22.20
  Q 45.38 22.79 45.29 22.73
  A 0.42 0.42 0.0 0 0 44.75 23.37
  Q 45.48 24.19 47.87 23.98
  A 0.55 0.55 0.0 0 1 48.47 24.52
  Q 48.50 26.21 47.71 27.00
  A 0.83 0.82 34.9 0 1 46.80 27.16
  C 42.71 25.30 37.64 23.90 33.00 23.90
  C 28.37 23.90 23.29 25.30 19.20 27.16
  A 0.83 0.82 -34.8 0 1 18.29 27.00
  Q 17.50 26.21 17.53 24.52
  A 0.55 0.55 0.0 0 1 18.13 23.98
  Q 20.52 24.19 21.25 23.37
  A 0.42 0.42 0.0 0 0 20.71 22.73
  Q 20.62 22.79 17.24 22.20
  C 15.20 21.84 14.10 22.93 14.90 24.86
  Q 16.73 29.30 17.64 34.52
  A 0.57 0.56 86.0 0 0 18.17 34.98
  Q 18.76 35.00 33.00 35.01
  Z
  M 20.18 45.98
  A 0.33 0.33 0.0 0 0 20.51 46.24
  L 45.46 46.24
  A 0.33 0.33 0.0 0 0 45.79 45.98
  L 47.34 38.92
  A 0.33 0.33 0.0 0 0 47.02 38.52
  L 18.95 38.52
  A 0.33 0.33 0.0 0 0 18.63 38.92
  L 20.18 45.98
  Z"
/>
<path fill="#ffffff" d="
  M 33.00 23.90
  C 37.64 23.90 42.71 25.30 46.80 27.16
  A 0.83 0.82 34.9 0 0 47.71 27.00
  Q 48.50 26.21 48.47 24.52
  A 0.55 0.55 0.0 0 0 47.87 23.98
  Q 45.48 24.19 44.75 23.37
  A 0.42 0.42 0.0 0 1 45.29 22.73
  Q 45.38 22.79 48.76 22.20
  C 50.80 21.84 51.90 22.93 51.10 24.86
  Q 49.27 29.30 48.36 34.52
  A 0.57 0.56 -85.9 0 1 47.83 34.99
  Q 47.24 35.01 33.00 35.01
  Q 18.76 35.00 18.17 34.98
  A 0.57 0.56 86.0 0 1 17.64 34.52
  Q 16.73 29.30 14.90 24.86
  C 14.10 22.93 15.20 21.84 17.24 22.20
  Q 20.62 22.79 20.71 22.73
  A 0.42 0.42 0.0 0 1 21.25 23.37
  Q 20.52 24.19 18.13 23.98
  A 0.55 0.55 0.0 0 0 17.53 24.52
  Q 17.50 26.21 18.29 27.00
  A 0.83 0.82 -34.8 0 0 19.20 27.16
  C 23.29 25.30 28.37 23.90 33.00 23.90
  Z"
/>
<path fill="#ffffff" d="
  M 20.18 45.98
  L 18.63 38.92
  A 0.33 0.33 0.0 0 1 18.95 38.52
  L 47.02 38.52
  A 0.33 0.33 0.0 0 1 47.34 38.92
  L 45.79 45.98
  A 0.33 0.33 0.0 0 1 45.46 46.24
  L 20.51 46.24
  A 0.33 0.33 0.0 0 1 20.18 45.98
  Z"
/>
</svg>
