<?xml version="1.0" encoding="UTF-8" standalone="no"?>
<!DOCTYPE svg PUBLIC "-//W3C//DTD SVG 1.1//EN" "http://www.w3.org/Graphics/SVG/1.1/DTD/svg11.dtd">
<svg xmlns="http://www.w3.org/2000/svg" version="1.1" viewBox="0.00 0.00 66.00 88.00">
<g stroke-width="2.00" fill="none" stroke-linecap="butt">
<path stroke="#353846" vector-effect="non-scaling-stroke" d="
  M 33.42 86.59
  C 33.71 86.59 33.67 86.60 33.81 86.47
  Q 47.33 74.03 56.38 58.63
  C 63.94 45.76 68.35 28.94 58.83 15.68
  Q 49.98 3.36 34.50 2.50
  Q 34.01 2.48 33.51 2.48
  Q 33.02 2.48 32.52 2.50
  Q 17.04 3.32 8.17 15.62
  C -1.38 28.86 2.99 45.69 10.52 58.58
  Q 19.54 74.00 33.03 86.46
  C 33.17 86.60 33.13 86.59 33.42 86.59"
/>
<path stroke="#a3a4ae" vector-effect="non-scaling-stroke" d="
  M 33.08 15.74
  Q 27.12 15.73 21.81 19.70
  Q 21.25 20.12 21.43 20.55
  A 0.77 0.77 0.0 0 0 22.60 20.87
  Q 27.56 17.08 33.07 17.09
  Q 38.58 17.09 43.53 20.90
  A 0.77 0.77 0.0 0 0 44.71 20.59
  Q 44.89 20.16 44.33 19.73
  Q 39.03 15.75 33.08 15.74"
/>
<path stroke="#a3a4ae" vector-effect="non-scaling-stroke" d="
  M 32.57 31.27
  L 38.21 24.89
  A 1.24 1.20 76.2 0 0 38.45 24.48
  L 38.79 23.44
  A 0.60 0.60 0.0 0 1 39.75 23.18
  L 41.10 24.37
  A 0.38 0.38 0.0 0 0 41.63 24.34
  L 41.84 24.10
  A 0.54 0.54 0.0 0 0 41.80 23.34
  C 35.24 17.42 25.78 19.40 21.27 26.81
  A 1.34 1.31 -81.6 0 1 20.52 27.38
  C 17.02 28.39 16.09 23.91 19.24 23.01
  Q 19.72 22.88 20.22 23.12
  Q 20.67 23.34 21.08 23.83
  A 0.44 0.43 45.4 0 0 21.74 23.84
  L 21.92 23.64
  A 0.79 0.79 0.0 0 0 21.97 22.66
  Q 21.48 21.98 20.21 21.80
  C 17.52 21.42 15.45 23.58 16.11 26.25
  C 16.81 29.09 20.82 30.10 22.50 27.46
  Q 23.99 25.11 26.26 23.21
  A 0.54 0.54 0.0 0 1 27.10 23.41
  Q 28.33 26.22 31.13 28.30
  A 0.36 0.35 -51.2 0 0 31.61 28.24
  L 31.78 28.05
  A 0.27 0.27 0.0 0 0 31.80 27.71
  L 28.68 23.40
  A 0.97 0.97 0.0 0 1 29.16 21.91
  Q 32.82 20.67 36.51 21.72
  A 1.51 1.51 0.0 0 1 37.11 24.30
  Q 33.10 27.89 32.01 30.28
  A 0.73 0.71 39.1 0 0 32.09 31.00
  L 32.27 31.26
  A 0.20 0.19 -42.5 0 0 32.57 31.27"
/>
<path stroke="#a3a4ae" vector-effect="non-scaling-stroke" d="
  M 36.81 45.36
  A 0.99 0.98 -36.8 0 0 37.90 45.51
  Q 47.59 40.86 46.05 30.19
  C 45.87 28.95 44.79 27.13 44.39 25.83
  A 2.22 2.14 -17.8 0 1 45.83 23.16
  Q 47.20 22.69 48.33 24.05
  A 1.99 1.98 45.1 0 1 48.33 26.58
  Q 47.85 27.15 47.06 27.73
  A 0.56 0.56 0.0 0 0 46.95 28.52
  L 46.97 28.56
  A 0.64 0.64 0.0 0 0 47.78 28.73
  Q 51.52 26.71 49.41 23.31
  C 47.14 19.64 41.36 22.82 43.31 26.93
  Q 47.65 36.11 40.43 42.45
  C 39.60 43.18 37.73 44.09 36.61 44.42
  A 0.37 0.37 0.0 0 0 36.47 45.05
  L 36.81 45.36"
/>
<path stroke="#a3a4ae" vector-effect="non-scaling-stroke" d="
  M 30.76 35.14
  L 26.15 31.07
  A 0.80 0.79 -48.3 0 0 25.03 31.14
  L 24.76 31.46
  A 0.65 0.65 0.0 0 0 24.95 32.47
  Q 29.18 34.58 31.68 38.28
  A 1.59 1.59 0.0 0 0 34.29 38.32
  Q 36.96 34.60 41.22 32.40
  A 0.51 0.50 -31.6 0 0 41.40 31.66
  L 41.22 31.41
  A 0.80 0.78 53.8 0 0 40.12 31.23
  L 35.71 34.42
  A 0.45 0.45 0.0 0 1 35.00 34.06
  L 35.00 32.11
  A 0.44 0.44 0.0 0 0 34.16 31.94
  Q 33.51 33.53 34.06 36.51
  A 0.16 0.15 -4.5 0 1 33.90 36.69
  L 33.52 36.69
  A 0.33 0.33 0.0 0 1 33.20 36.45
  Q 31.58 30.70 26.37 26.84
  A 0.44 0.43 -51.0 0 0 25.78 26.91
  L 25.58 27.13
  A 0.61 0.60 38.7 0 0 25.69 28.03
  Q 29.74 30.94 31.15 34.88
  A 0.24 0.24 0.0 0 1 30.76 35.14"
/>
<path stroke="#a3a4ae" vector-effect="non-scaling-stroke" d="
  M 36.43 31.76
  L 40.83 27.42
  A 0.14 0.14 0.0 0 0 40.83 27.22
  L 40.78 27.17
  A 2.39 1.21 -44.6 0 0 38.23 27.98
  L 37.03 29.16
  A 2.39 1.21 -44.6 0 0 36.18 31.70
  L 36.23 31.75
  A 0.14 0.14 0.0 0 0 36.43 31.76"
/>
<path stroke="#a3a4ae" vector-effect="non-scaling-stroke" d="
  M 17.95 41.80
  Q 20.92 46.93 26.99 49.54
  Q 27.64 49.81 27.92 49.44
  A 0.77 0.77 0.0 0 0 27.61 48.27
  Q 21.86 45.88 19.11 41.12
  Q 16.37 36.37 17.18 30.19
  A 0.77 0.77 0.0 0 0 16.32 29.34
  Q 15.86 29.39 15.77 30.09
  Q 14.99 36.66 17.95 41.80"
/>
<path stroke="#a3a4ae" vector-effect="non-scaling-stroke" d="
  M 48.09 41.81
  Q 51.06 36.66 50.27 30.08
  Q 50.19 29.38 49.73 29.33
  A 0.77 0.77 0.0 0 0 48.87 30.19
  Q 49.68 36.37 46.93 41.14
  Q 44.18 45.90 38.42 48.29
  A 0.77 0.77 0.0 0 0 38.11 49.47
  Q 38.39 49.84 39.04 49.56
  Q 45.12 46.95 48.09 41.81"
/>
<path stroke="#a3a4ae" vector-effect="non-scaling-stroke" d="
  M 20.53 30.20
  A 1.00 0.98 83.3 0 0 19.85 31.07
  Q 19.01 41.81 29.04 45.83
  C 30.20 46.30 32.32 46.28 33.65 46.58
  A 2.23 2.14 -77.7 0 1 35.24 49.17
  Q 34.96 50.60 33.22 50.89
  A 1.99 1.98 -14.8 0 1 31.02 49.62
  Q 30.77 48.92 30.66 47.94
  A 0.56 0.56 0.0 0 0 30.03 47.45
  L 29.99 47.45
  A 0.64 0.64 0.0 0 0 29.44 48.07
  Q 29.31 52.32 33.32 52.20
  C 37.64 52.08 37.79 45.47 33.24 45.10
  Q 23.10 44.25 21.23 34.80
  C 21.02 33.71 21.17 31.64 21.44 30.50
  A 0.37 0.37 0.0 0 0 20.97 30.06
  L 20.53 30.20"
/>
<path stroke="#a3a4ae" vector-effect="non-scaling-stroke" d="
  M 33.0429 40.2500
  A 1.65 1.32 -89.9 0 0 31.7200 41.8977
  A 1.65 1.32 -89.9 0 0 33.0371 43.5500
  A 1.65 1.32 -89.9 0 0 34.3600 41.9023
  A 1.65 1.32 -89.9 0 0 33.0429 40.2500"
/>
</g>
<path fill="#232630" d="
  M 33.79 88.00
  L 33.04 88.00
  C 21.76 77.75 12.11 65.67 5.65 51.56
  Q 2.20 44.03 1.60 34.89
  C 0.55 18.86 11.32 5.54 26.73 2.05
  Q 36.74 -0.21 46.82 4.21
  Q 57.20 8.76 62.58 19.69
  C 66.97 28.60 65.91 39.71 62.38 48.91
  C 56.73 63.70 45.45 77.43 33.79 88.00
  Z
  M 33.42 86.59
  C 33.71 86.59 33.67 86.60 33.81 86.47
  Q 47.33 74.03 56.38 58.63
  C 63.94 45.76 68.35 28.94 58.83 15.68
  Q 49.98 3.36 34.50 2.50
  Q 34.01 2.48 33.51 2.48
  Q 33.02 2.48 32.52 2.50
  Q 17.04 3.32 8.17 15.62
  C -1.38 28.86 2.99 45.69 10.52 58.58
  Q 19.54 74.00 33.03 86.46
  C 33.17 86.60 33.13 86.59 33.42 86.59
  Z"
/>
<path fill="#46495c" d="
  M 33.51 2.48
  Q 34.01 2.48 34.50 2.50
  Q 49.98 3.36 58.83 15.68
  C 68.35 28.94 63.94 45.76 56.38 58.63
  Q 47.33 74.03 33.81 86.47
  C 33.67 86.60 33.71 86.59 33.42 86.59
  C 33.13 86.59 33.17 86.60 33.03 86.46
  Q 19.54 74.00 10.52 58.58
  C 2.99 45.69 -1.38 28.86 8.17 15.62
  Q 17.04 3.32 32.52 2.50
  Q 33.02 2.48 33.51 2.48
  Z
  M 33.08 15.74
  Q 27.12 15.73 21.81 19.70
  Q 21.25 20.12 21.43 20.55
  A 0.77 0.77 0.0 0 0 22.60 20.87
  Q 27.56 17.08 33.07 17.09
  Q 38.58 17.09 43.53 20.90
  A 0.77 0.77 0.0 0 0 44.71 20.59
  Q 44.89 20.16 44.33 19.73
  Q 39.03 15.75 33.08 15.74
  Z
  M 32.57 31.27
  L 38.21 24.89
  A 1.24 1.20 76.2 0 0 38.45 24.48
  L 38.79 23.44
  A 0.60 0.60 0.0 0 1 39.75 23.18
  L 41.10 24.37
  A 0.38 0.38 0.0 0 0 41.63 24.34
  L 41.84 24.10
  A 0.54 0.54 0.0 0 0 41.80 23.34
  C 35.24 17.42 25.78 19.40 21.27 26.81
  A 1.34 1.31 -81.6 0 1 20.52 27.38
  C 17.02 28.39 16.09 23.91 19.24 23.01
  Q 19.72 22.88 20.22 23.12
  Q 20.67 23.34 21.08 23.83
  A 0.44 0.43 45.4 0 0 21.74 23.84
  L 21.92 23.64
  A 0.79 0.79 0.0 0 0 21.97 22.66
  Q 21.48 21.98 20.21 21.80
  C 17.52 21.42 15.45 23.58 16.11 26.25
  C 16.81 29.09 20.82 30.10 22.50 27.46
  Q 23.99 25.11 26.26 23.21
  A 0.54 0.54 0.0 0 1 27.10 23.41
  Q 28.33 26.22 31.13 28.30
  A 0.36 0.35 -51.2 0 0 31.61 28.24
  L 31.78 28.05
  A 0.27 0.27 0.0 0 0 31.80 27.71
  L 28.68 23.40
  A 0.97 0.97 0.0 0 1 29.16 21.91
  Q 32.82 20.67 36.51 21.72
  A 1.51 1.51 0.0 0 1 37.11 24.30
  Q 33.10 27.89 32.01 30.28
  A 0.73 0.71 39.1 0 0 32.09 31.00
  L 32.27 31.26
  A 0.20 0.19 -42.5 0 0 32.57 31.27
  Z
  M 36.81 45.36
  A 0.99 0.98 -36.8 0 0 37.90 45.51
  Q 47.59 40.86 46.05 30.19
  C 45.87 28.95 44.79 27.13 44.39 25.83
  A 2.22 2.14 -17.8 0 1 45.83 23.16
  Q 47.20 22.69 48.33 24.05
  A 1.99 1.98 45.1 0 1 48.33 26.58
  Q 47.85 27.15 47.06 27.73
  A 0.56 0.56 0.0 0 0 46.95 28.52
  L 46.97 28.56
  A 0.64 0.64 0.0 0 0 47.78 28.73
  Q 51.52 26.71 49.41 23.31
  C 47.14 19.64 41.36 22.82 43.31 26.93
  Q 47.65 36.11 40.43 42.45
  C 39.60 43.18 37.73 44.09 36.61 44.42
  A 0.37 0.37 0.0 0 0 36.47 45.05
  L 36.81 45.36
  Z
  M 30.76 35.14
  L 26.15 31.07
  A 0.80 0.79 -48.3 0 0 25.03 31.14
  L 24.76 31.46
  A 0.65 0.65 0.0 0 0 24.95 32.47
  Q 29.18 34.58 31.68 38.28
  A 1.59 1.59 0.0 0 0 34.29 38.32
  Q 36.96 34.60 41.22 32.40
  A 0.51 0.50 -31.6 0 0 41.40 31.66
  L 41.22 31.41
  A 0.80 0.78 53.8 0 0 40.12 31.23
  L 35.71 34.42
  A 0.45 0.45 0.0 0 1 35.00 34.06
  L 35.00 32.11
  A 0.44 0.44 0.0 0 0 34.16 31.94
  Q 33.51 33.53 34.06 36.51
  A 0.16 0.15 -4.5 0 1 33.90 36.69
  L 33.52 36.69
  A 0.33 0.33 0.0 0 1 33.20 36.45
  Q 31.58 30.70 26.37 26.84
  A 0.44 0.43 -51.0 0 0 25.78 26.91
  L 25.58 27.13
  A 0.61 0.60 38.7 0 0 25.69 28.03
  Q 29.74 30.94 31.15 34.88
  A 0.24 0.24 0.0 0 1 30.76 35.14
  Z
  M 36.43 31.76
  L 40.83 27.42
  A 0.14 0.14 0.0 0 0 40.83 27.22
  L 40.78 27.17
  A 2.39 1.21 -44.6 0 0 38.23 27.98
  L 37.03 29.16
  A 2.39 1.21 -44.6 0 0 36.18 31.70
  L 36.23 31.75
  A 0.14 0.14 0.0 0 0 36.43 31.76
  Z
  M 17.95 41.80
  Q 20.92 46.93 26.99 49.54
  Q 27.64 49.81 27.92 49.44
  A 0.77 0.77 0.0 0 0 27.61 48.27
  Q 21.86 45.88 19.11 41.12
  Q 16.37 36.37 17.18 30.19
  A 0.77 0.77 0.0 0 0 16.32 29.34
  Q 15.86 29.39 15.77 30.09
  Q 14.99 36.66 17.95 41.80
  Z
  M 48.09 41.81
  Q 51.06 36.66 50.27 30.08
  Q 50.19 29.38 49.73 29.33
  A 0.77 0.77 0.0 0 0 48.87 30.19
  Q 49.68 36.37 46.93 41.14
  Q 44.18 45.90 38.42 48.29
  A 0.77 0.77 0.0 0 0 38.11 49.47
  Q 38.39 49.84 39.04 49.56
  Q 45.12 46.95 48.09 41.81
  Z
  M 20.53 30.20
  A 1.00 0.98 83.3 0 0 19.85 31.07
  Q 19.01 41.81 29.04 45.83
  C 30.20 46.30 32.32 46.28 33.65 46.58
  A 2.23 2.14 -77.7 0 1 35.24 49.17
  Q 34.96 50.60 33.22 50.89
  A 1.99 1.98 -14.8 0 1 31.02 49.62
  Q 30.77 48.92 30.66 47.94
  A 0.56 0.56 0.0 0 0 30.03 47.45
  L 29.99 47.45
  A 0.64 0.64 0.0 0 0 29.44 48.07
  Q 29.31 52.32 33.32 52.20
  C 37.64 52.08 37.79 45.47 33.24 45.10
  Q 23.10 44.25 21.23 34.80
  C 21.02 33.71 21.17 31.64 21.44 30.50
  A 0.37 0.37 0.0 0 0 20.97 30.06
  L 20.53 30.20
  Z
  M 33.0429 40.2500
  A 1.65 1.32 -89.9 0 0 31.7200 41.8977
  A 1.65 1.32 -89.9 0 0 33.0371 43.5500
  A 1.65 1.32 -89.9 0 0 34.3600 41.9023
  A 1.65 1.32 -89.9 0 0 33.0429 40.2500
  Z"
/>
<path fill="#ffffff" d="
  M 33.08 15.74
  Q 39.03 15.75 44.33 19.73
  Q 44.89 20.16 44.71 20.59
  A 0.77 0.77 0.0 0 1 43.53 20.90
  Q 38.58 17.09 33.07 17.09
  Q 27.56 17.08 22.60 20.87
  A 0.77 0.77 0.0 0 1 21.43 20.55
  Q 21.25 20.12 21.81 19.70
  Q 27.12 15.73 33.08 15.74
  Z"
/>
<path fill="#ffffff" d="
  M 32.57 31.27
  A 0.20 0.19 -42.5 0 1 32.27 31.26
  L 32.09 31.00
  A 0.73 0.71 39.1 0 1 32.01 30.28
  Q 33.10 27.89 37.11 24.30
  A 1.51 1.51 0.0 0 0 36.51 21.72
  Q 32.82 20.67 29.16 21.91
  A 0.97 0.97 0.0 0 0 28.68 23.40
  L 31.80 27.71
  A 0.27 0.27 0.0 0 1 31.78 28.05
  L 31.61 28.24
  A 0.36 0.35 -51.2 0 1 31.13 28.30
  Q 28.33 26.22 27.10 23.41
  A 0.54 0.54 0.0 0 0 26.26 23.21
  Q 23.99 25.11 22.50 27.46
  C 20.82 30.10 16.81 29.09 16.11 26.25
  C 15.45 23.58 17.52 21.42 20.21 21.80
  Q 21.48 21.98 21.97 22.66
  A 0.79 0.79 0.0 0 1 21.92 23.64
  L 21.74 23.84
  A 0.44 0.43 45.4 0 1 21.08 23.83
  Q 20.67 23.34 20.22 23.12
  Q 19.72 22.88 19.24 23.01
  C 16.09 23.91 17.02 28.39 20.52 27.38
  A 1.34 1.31 -81.6 0 0 21.27 26.81
  C 25.78 19.40 35.24 17.42 41.80 23.34
  A 0.54 0.54 0.0 0 1 41.84 24.10
  L 41.63 24.34
  A 0.38 0.38 0.0 0 1 41.10 24.37
  L 39.75 23.18
  A 0.60 0.60 0.0 0 0 38.79 23.44
  L 38.45 24.48
  A 1.24 1.20 76.2 0 1 38.21 24.89
  L 32.57 31.27
  Z"
/>
<path fill="#ffffff" d="
  M 36.61 44.42
  C 37.73 44.09 39.60 43.18 40.43 42.45
  Q 47.65 36.11 43.31 26.93
  C 41.36 22.82 47.14 19.64 49.41 23.31
  Q 51.52 26.71 47.78 28.73
  A 0.64 0.64 0.0 0 1 46.97 28.56
  L 46.95 28.52
  A 0.56 0.56 0.0 0 1 47.06 27.73
  Q 47.85 27.15 48.33 26.58
  A 1.99 1.98 45.1 0 0 48.33 24.05
  Q 47.20 22.69 45.83 23.16
  A 2.22 2.14 -17.8 0 0 44.39 25.83
  C 44.79 27.13 45.87 28.95 46.05 30.19
  Q 47.59 40.86 37.90 45.51
  A 0.99 0.98 -36.8 0 1 36.81 45.36
  L 36.47 45.05
  A 0.37 0.37 0.0 0 1 36.61 44.42
  Z"
/>
<path fill="#ffffff" d="
  M 31.15 34.88
  Q 29.74 30.94 25.69 28.03
  A 0.61 0.60 38.7 0 1 25.58 27.13
  L 25.78 26.91
  A 0.44 0.43 -51.0 0 1 26.37 26.84
  Q 31.58 30.70 33.20 36.45
  A 0.33 0.33 0.0 0 0 33.52 36.69
  L 33.90 36.69
  A 0.16 0.15 -4.5 0 0 34.06 36.51
  Q 33.51 33.53 34.16 31.94
  A 0.44 0.44 0.0 0 1 35.00 32.11
  L 35.00 34.06
  A 0.45 0.45 0.0 0 0 35.71 34.42
  L 40.12 31.23
  A 0.80 0.78 53.8 0 1 41.22 31.41
  L 41.40 31.66
  A 0.51 0.50 -31.6 0 1 41.22 32.40
  Q 36.96 34.60 34.29 38.32
  A 1.59 1.59 0.0 0 1 31.68 38.28
  Q 29.18 34.58 24.95 32.47
  A 0.65 0.65 0.0 0 1 24.76 31.46
  L 25.03 31.14
  A 0.80 0.79 -48.3 0 1 26.15 31.07
  L 30.76 35.14
  A 0.24 0.24 0.0 0 0 31.15 34.88
  Z"
/>
<path fill="#ffffff" d="
  M 36.43 31.76
  A 0.14 0.14 0.0 0 1 36.23 31.75
  L 36.18 31.70
  A 2.39 1.21 -44.6 0 1 37.03 29.16
  L 38.23 27.98
  A 2.39 1.21 -44.6 0 1 40.78 27.17
  L 40.83 27.22
  A 0.14 0.14 0.0 0 1 40.83 27.42
  L 36.43 31.76
  Z"
/>
<path fill="#ffffff" d="
  M 19.11 41.12
  Q 21.86 45.88 27.61 48.27
  A 0.77 0.77 0.0 0 1 27.92 49.44
  Q 27.64 49.81 26.99 49.54
  Q 20.92 46.93 17.95 41.80
  Q 14.99 36.66 15.77 30.09
  Q 15.86 29.39 16.32 29.34
  A 0.77 0.77 0.0 0 1 17.18 30.19
  Q 16.37 36.37 19.11 41.12
  Z"
/>
<path fill="#ffffff" d="
  M 48.09 41.81
  Q 45.12 46.95 39.04 49.56
  Q 38.39 49.84 38.11 49.47
  A 0.77 0.77 0.0 0 1 38.42 48.29
  Q 44.18 45.90 46.93 41.14
  Q 49.68 36.37 48.87 30.19
  A 0.77 0.77 0.0 0 1 49.73 29.33
  Q 50.19 29.38 50.27 30.08
  Q 51.06 36.66 48.09 41.81
  Z"
/>
<path fill="#ffffff" d="
  M 20.53 30.20
  L 20.97 30.06
  A 0.37 0.37 0.0 0 1 21.44 30.50
  C 21.17 31.64 21.02 33.71 21.23 34.80
  Q 23.10 44.25 33.24 45.10
  C 37.79 45.47 37.64 52.08 33.32 52.20
  Q 29.31 52.32 29.44 48.07
  A 0.64 0.64 0.0 0 1 29.99 47.45
  L 30.03 47.45
  A 0.56 0.56 0.0 0 1 30.66 47.94
  Q 30.77 48.92 31.02 49.62
  A 1.99 1.98 -14.8 0 0 33.22 50.89
  Q 34.96 50.60 35.24 49.17
  A 2.23 2.14 -77.7 0 0 33.65 46.58
  C 32.32 46.28 30.20 46.30 29.04 45.83
  Q 19.01 41.81 19.85 31.07
  A 1.00 0.98 83.3 0 1 20.53 30.20
  Z"
/>
<ellipse fill="#ffffff" cx="0.00" cy="0.00" transform="translate(33.04,41.90) rotate(-89.9)" rx="1.65" ry="1.32"/>
</svg>
