<?xml version="1.0" encoding="UTF-8" standalone="no"?>
<!DOCTYPE svg PUBLIC "-//W3C//DTD SVG 1.1//EN" "http://www.w3.org/Graphics/SVG/1.1/DTD/svg11.dtd">
<svg xmlns="http://www.w3.org/2000/svg" version="1.1" viewBox="0.00 0.00 66.00 88.00">
<g stroke-width="2.00" fill="none" stroke-linecap="butt">
<path stroke="#353846" vector-effect="non-scaling-stroke" d="
  M 33.42 86.59
  C 34.16 86.59 33.56 86.64 33.78 86.44
  Q 49.63 71.76 58.61 54.58
  Q 62.83 46.49 64.01 36.83
  C 65.77 22.35 57.67 9.45 44.14 4.43
  Q 38.90 2.48 33.51 2.48
  Q 28.12 2.47 22.88 4.40
  C 9.34 9.40 1.21 22.28 2.94 36.76
  Q 4.10 46.43 8.30 54.52
  Q 17.25 71.72 33.06 86.44
  C 33.28 86.64 32.68 86.59 33.42 86.59"
/>
<path stroke="#a3a4ae" vector-effect="non-scaling-stroke" d="
  M 32.84 24.68
  Q 33.41 24.68 34.31 25.89
  A 0.38 0.38 0.0 0 0 34.98 25.60
  Q 34.67 23.93 33.15 22.21
  A 0.35 0.26 67.6 0 0 32.97 22.10
  Q 32.91 22.09 32.87 22.09
  Q 32.82 22.09 32.76 22.10
  A 0.35 0.26 -66.5 0 0 32.58 22.20
  Q 31.03 23.90 30.69 25.56
  A 0.38 0.38 0.0 0 0 31.36 25.86
  Q 32.27 24.67 32.84 24.68"
/>
<path stroke="#a3a4ae" vector-effect="non-scaling-stroke" d="
  M 27.92 24.25
  Q 27.52 24.70 27.83 25.49
  Q 28.08 26.11 28.63 25.86
  Q 29.41 25.51 29.34 24.65
  A 0.83 0.78 -27.4 0 0 27.92 24.25"
/>
<path stroke="#a3a4ae" vector-effect="non-scaling-stroke" d="
  M 37.12 26.17
  Q 38.28 25.38 37.97 24.47
  A 0.84 0.83 42.7 0 0 36.36 24.53
  Q 36.33 24.68 36.51 25.91
  A 0.40 0.39 -21.7 0 0 37.12 26.17"
/>
<path stroke="#a3a4ae" vector-effect="non-scaling-stroke" d="
  M 32.86 33.04
  Q 35.66 33.02 34.79 29.24
  Q 34.19 26.63 32.82 26.64
  Q 31.45 26.64 30.88 29.26
  Q 30.05 33.05 32.86 33.04"
/>
<path stroke="#a3a4ae" vector-effect="non-scaling-stroke" d="
  M 24.75 27.30
  L 24.73 28.89
  A 0.56 0.56 0.0 0 0 25.43 29.44
  Q 26.80 29.07 28.23 29.70
  A 0.86 0.86 0.0 0 0 29.12 28.24
  Q 27.21 26.74 25.31 26.74
  A 0.57 0.56 -89.4 0 0 24.75 27.30"
/>
<path stroke="#a3a4ae" vector-effect="non-scaling-stroke" d="
  M 41.20 27.31
  A 0.59 0.58 -90.0 0 0 40.62 26.72
  Q 38.65 26.70 36.65 28.24
  A 0.89 0.89 0.0 0 0 37.55 29.76
  Q 39.05 29.12 40.46 29.52
  A 0.58 0.58 0.0 0 0 41.20 28.96
  L 41.20 27.31"
/>
<path stroke="#a3a4ae" vector-effect="non-scaling-stroke" d="
  M 28.53 35.30
  L 28.70 32.12
  A 0.92 0.92 0.0 0 0 27.83 31.15
  L 27.46 31.13
  A 5.31 2.44 3.1 0 0 22.03 33.28
  L 22.02 33.42
  A 5.31 2.44 3.1 0 0 27.19 36.15
  L 27.56 36.17
  A 0.92 0.92 0.0 0 0 28.53 35.30"
/>
<path stroke="#a3a4ae" vector-effect="non-scaling-stroke" d="
  M 37.00 32.38
  L 37.30 35.33
  A 1.06 1.06 0.0 0 0 38.46 36.27
  L 38.87 36.23
  A 5.09 2.44 -5.9 0 0 43.68 33.28
  L 43.66 33.08
  A 5.09 2.44 -5.9 0 0 38.35 31.18
  L 37.94 31.22
  A 1.06 1.06 0.0 0 0 37.00 32.38"
/>
<path stroke="#a3a4ae" vector-effect="non-scaling-stroke" d="
  M 32.78 39.93
  C 33.36 39.94 32.85 39.97 33.02 39.85
  Q 35.29 38.21 35.78 34.64
  A 0.55 0.55 0.0 0 0 34.98 34.07
  Q 33.75 34.69 32.84 34.67
  Q 31.92 34.66 30.71 34.02
  A 0.55 0.55 0.0 0 0 29.90 34.57
  Q 30.31 38.15 32.54 39.84
  C 32.71 39.97 32.20 39.93 32.78 39.93"
/>
<path stroke="#a3a4ae" vector-effect="non-scaling-stroke" d="
  M 25.27 39.57
  L 21.13 43.72
  A 0.42 0.42 0.0 0 0 21.32 44.42
  Q 34.10 47.67 46.31 43.88
  C 47.61 43.48 49.86 42.22 50.76 40.90
  A 2.59 2.30 -47.6 0 0 50.80 38.00
  Q 49.24 35.96 46.23 34.99
  A 0.78 0.78 0.0 0 0 45.38 35.24
  Q 42.38 38.92 37.66 38.08
  A 0.70 0.70 0.0 0 0 36.93 38.41
  Q 35.58 40.71 33.22 42.45
  A 0.68 0.67 -45.4 0 1 32.42 42.46
  Q 30.12 40.80 28.83 38.56
  A 0.88 0.87 70.7 0 0 27.94 38.12
  Q 23.43 38.81 20.38 35.25
  A 0.77 0.76 59.3 0 0 19.53 35.03
  C 17.01 36.03 13.14 38.20 15.44 41.27
  A 0.90 0.90 0.0 0 0 16.39 41.59
  L 25.09 39.26
  A 0.19 0.19 0.0 0 1 25.27 39.57"
/>
</g>
<path fill="#232630" d="
  M 33.78 88.00
  L 33.04 88.00
  C 21.76 77.76 11.95 65.52 5.58 51.41
  Q 2.15 43.81 1.59 34.82
  C 0.36 15.12 17.19 -0.29 36.46 1.46
  C 45.36 2.26 53.84 6.86 59.19 14.04
  C 77.64 38.83 51.57 71.91 33.78 88.00
  Z
  M 33.42 86.59
  C 34.16 86.59 33.56 86.64 33.78 86.44
  Q 49.63 71.76 58.61 54.58
  Q 62.83 46.49 64.01 36.83
  C 65.77 22.35 57.67 9.45 44.14 4.43
  Q 38.90 2.48 33.51 2.48
  Q 28.12 2.47 22.88 4.40
  C 9.34 9.40 1.21 22.28 2.94 36.76
  Q 4.10 46.43 8.30 54.52
  Q 17.25 71.72 33.06 86.44
  C 33.28 86.64 32.68 86.59 33.42 86.59
  Z"
/>
<path fill="#46495c" d="
  M 33.51 2.48
  Q 38.90 2.48 44.14 4.43
  C 57.67 9.45 65.77 22.35 64.01 36.83
  Q 62.83 46.49 58.61 54.58
  Q 49.63 71.76 33.78 86.44
  C 33.56 86.64 34.16 86.59 33.42 86.59
  C 32.68 86.59 33.28 86.64 33.06 86.44
  Q 17.25 71.72 8.30 54.52
  Q 4.10 46.43 2.94 36.76
  C 1.21 22.28 9.34 9.40 22.88 4.40
  Q 28.12 2.47 33.51 2.48
  Z
  M 32.84 24.68
  Q 33.41 24.68 34.31 25.89
  A 0.38 0.38 0.0 0 0 34.98 25.60
  Q 34.67 23.93 33.15 22.21
  A 0.35 0.26 67.6 0 0 32.97 22.10
  Q 32.91 22.09 32.87 22.09
  Q 32.82 22.09 32.76 22.10
  A 0.35 0.26 -66.5 0 0 32.58 22.20
  Q 31.03 23.90 30.69 25.56
  A 0.38 0.38 0.0 0 0 31.36 25.86
  Q 32.27 24.67 32.84 24.68
  Z
  M 27.92 24.25
  Q 27.52 24.70 27.83 25.49
  Q 28.08 26.11 28.63 25.86
  Q 29.41 25.51 29.34 24.65
  A 0.83 0.78 -27.4 0 0 27.92 24.25
  Z
  M 37.12 26.17
  Q 38.28 25.38 37.97 24.47
  A 0.84 0.83 42.7 0 0 36.36 24.53
  Q 36.33 24.68 36.51 25.91
  A 0.40 0.39 -21.7 0 0 37.12 26.17
  Z
  M 32.86 33.04
  Q 35.66 33.02 34.79 29.24
  Q 34.19 26.63 32.82 26.64
  Q 31.45 26.64 30.88 29.26
  Q 30.05 33.05 32.86 33.04
  Z
  M 24.75 27.30
  L 24.73 28.89
  A 0.56 0.56 0.0 0 0 25.43 29.44
  Q 26.80 29.07 28.23 29.70
  A 0.86 0.86 0.0 0 0 29.12 28.24
  Q 27.21 26.74 25.31 26.74
  A 0.57 0.56 -89.4 0 0 24.75 27.30
  Z
  M 41.20 27.31
  A 0.59 0.58 -90.0 0 0 40.62 26.72
  Q 38.65 26.70 36.65 28.24
  A 0.89 0.89 0.0 0 0 37.55 29.76
  Q 39.05 29.12 40.46 29.52
  A 0.58 0.58 0.0 0 0 41.20 28.96
  L 41.20 27.31
  Z
  M 28.53 35.30
  L 28.70 32.12
  A 0.92 0.92 0.0 0 0 27.83 31.15
  L 27.46 31.13
  A 5.31 2.44 3.1 0 0 22.03 33.28
  L 22.02 33.42
  A 5.31 2.44 3.1 0 0 27.19 36.15
  L 27.56 36.17
  A 0.92 0.92 0.0 0 0 28.53 35.30
  Z
  M 37.00 32.38
  L 37.30 35.33
  A 1.06 1.06 0.0 0 0 38.46 36.27
  L 38.87 36.23
  A 5.09 2.44 -5.9 0 0 43.68 33.28
  L 43.66 33.08
  A 5.09 2.44 -5.9 0 0 38.35 31.18
  L 37.94 31.22
  A 1.06 1.06 0.0 0 0 37.00 32.38
  Z
  M 32.78 39.93
  C 33.36 39.94 32.85 39.97 33.02 39.85
  Q 35.29 38.21 35.78 34.64
  A 0.55 0.55 0.0 0 0 34.98 34.07
  Q 33.75 34.69 32.84 34.67
  Q 31.92 34.66 30.71 34.02
  A 0.55 0.55 0.0 0 0 29.90 34.57
  Q 30.31 38.15 32.54 39.84
  C 32.71 39.97 32.20 39.93 32.78 39.93
  Z
  M 25.27 39.57
  L 21.13 43.72
  A 0.42 0.42 0.0 0 0 21.32 44.42
  Q 34.10 47.67 46.31 43.88
  C 47.61 43.48 49.86 42.22 50.76 40.90
  A 2.59 2.30 -47.6 0 0 50.80 38.00
  Q 49.24 35.96 46.23 34.99
  A 0.78 0.78 0.0 0 0 45.38 35.24
  Q 42.38 38.92 37.66 38.08
  A 0.70 0.70 0.0 0 0 36.93 38.41
  Q 35.58 40.71 33.22 42.45
  A 0.68 0.67 -45.4 0 1 32.42 42.46
  Q 30.12 40.80 28.83 38.56
  A 0.88 0.87 70.7 0 0 27.94 38.12
  Q 23.43 38.81 20.38 35.25
  A 0.77 0.76 59.3 0 0 19.53 35.03
  C 17.01 36.03 13.14 38.20 15.44 41.27
  A 0.90 0.90 0.0 0 0 16.39 41.59
  L 25.09 39.26
  A 0.19 0.19 0.0 0 1 25.27 39.57
  Z"
/>
<path fill="#ffffff" d="
  M 32.87 22.09
  Q 32.91 22.09 32.97 22.10
  A 0.35 0.26 67.6 0 1 33.15 22.21
  Q 34.67 23.93 34.98 25.60
  A 0.38 0.38 0.0 0 1 34.31 25.89
  Q 33.41 24.68 32.84 24.68
  Q 32.27 24.67 31.36 25.86
  A 0.38 0.38 0.0 0 1 30.69 25.56
  Q 31.03 23.90 32.58 22.20
  A 0.35 0.26 -66.5 0 1 32.76 22.10
  Q 32.82 22.09 32.87 22.09
  Z"
/>
<path fill="#ffffff" d="
  M 27.92 24.25
  A 0.83 0.78 -27.4 0 1 29.34 24.65
  Q 29.41 25.51 28.63 25.86
  Q 28.08 26.11 27.83 25.49
  Q 27.52 24.70 27.92 24.25
  Z"
/>
<path fill="#ffffff" d="
  M 36.51 25.91
  Q 36.33 24.68 36.36 24.53
  A 0.84 0.83 42.7 0 1 37.97 24.47
  Q 38.28 25.38 37.12 26.17
  A 0.40 0.39 -21.7 0 1 36.51 25.91
  Z"
/>
<path fill="#ffffff" d="
  M 32.82 26.64
  Q 34.19 26.63 34.79 29.24
  Q 35.66 33.02 32.86 33.04
  Q 30.05 33.05 30.88 29.26
  Q 31.45 26.64 32.82 26.64
  Z"
/>
<path fill="#ffffff" d="
  M 24.75 27.30
  A 0.57 0.56 -89.4 0 1 25.31 26.74
  Q 27.21 26.74 29.12 28.24
  A 0.86 0.86 0.0 0 1 28.23 29.70
  Q 26.80 29.07 25.43 29.44
  A 0.56 0.56 0.0 0 1 24.73 28.89
  L 24.75 27.30
  Z"
/>
<path fill="#ffffff" d="
  M 40.46 29.52
  Q 39.05 29.12 37.55 29.76
  A 0.89 0.89 0.0 0 1 36.65 28.24
  Q 38.65 26.70 40.62 26.72
  A 0.59 0.58 90.0 0 1 41.20 27.31
  L 41.20 28.96
  A 0.58 0.58 0.0 0 1 40.46 29.52
  Z"
/>
<path fill="#ffffff" d="
  M 28.53 35.30
  A 0.92 0.92 0.0 0 1 27.56 36.17
  L 27.19 36.15
  A 5.31 2.44 3.1 0 1 22.02 33.42
  L 22.03 33.28
  A 5.31 2.44 3.1 0 1 27.46 31.13
  L 27.83 31.15
  A 0.92 0.92 0.0 0 1 28.70 32.12
  L 28.53 35.30
  Z"
/>
<path fill="#ffffff" d="
  M 37.00 32.38
  A 1.06 1.06 0.0 0 1 37.94 31.22
  L 38.35 31.18
  A 5.09 2.44 -5.9 0 1 43.66 33.08
  L 43.68 33.28
  A 5.09 2.44 -5.9 0 1 38.87 36.23
  L 38.46 36.27
  A 1.06 1.06 0.0 0 1 37.30 35.33
  L 37.00 32.38
  Z"
/>
<path fill="#ffffff" d="
  M 32.84 34.67
  Q 33.75 34.69 34.98 34.07
  A 0.55 0.55 0.0 0 1 35.78 34.64
  Q 35.29 38.21 33.02 39.85
  C 32.85 39.97 33.36 39.94 32.78 39.93
  C 32.20 39.93 32.71 39.97 32.54 39.84
  Q 30.31 38.15 29.90 34.57
  A 0.55 0.55 0.0 0 1 30.71 34.02
  Q 31.92 34.66 32.84 34.67
  Z"
/>
<path fill="#ffffff" d="
  M 25.27 39.57
  A 0.19 0.19 0.0 0 0 25.09 39.26
  L 16.39 41.59
  A 0.90 0.90 0.0 0 1 15.44 41.27
  C 13.14 38.20 17.01 36.03 19.53 35.03
  A 0.77 0.76 59.3 0 1 20.38 35.25
  Q 23.43 38.81 27.94 38.12
  A 0.88 0.87 70.7 0 1 28.83 38.56
  Q 30.12 40.80 32.42 42.46
  A 0.68 0.67 -45.4 0 0 33.22 42.45
  Q 35.58 40.71 36.93 38.41
  A 0.70 0.70 0.0 0 1 37.66 38.08
  Q 42.38 38.92 45.38 35.24
  A 0.78 0.78 0.0 0 1 46.23 34.99
  Q 49.24 35.96 50.80 38.00
  A 2.59 2.30 -47.6 0 1 50.76 40.90
  C 49.86 42.22 47.61 43.48 46.31 43.88
  Q 34.10 47.67 21.32 44.42
  A 0.42 0.42 0.0 0 1 21.13 43.72
  L 25.27 39.57
  Z"
/>
</svg>
