<?xml version="1.0" encoding="UTF-8" standalone="no"?>
<!DOCTYPE svg PUBLIC "-//W3C//DTD SVG 1.1//EN" "http://www.w3.org/Graphics/SVG/1.1/DTD/svg11.dtd">
<svg xmlns="http://www.w3.org/2000/svg" version="1.1" viewBox="0.00 0.00 66.00 88.00">
<g stroke-width="2.00" fill="none" stroke-linecap="butt">
<path stroke="#6f562b" vector-effect="non-scaling-stroke" d="
  M 33.39 86.69
  Q 33.54 86.69 33.67 86.65
  A 0.32 0.19 -59.9 0 0 33.75 86.61
  C 47.05 74.17 60.81 56.91 63.82 38.76
  C 66.98 19.63 53.54 3.30 34.25 2.49
  Q 33.74 2.47 33.55 2.47
  Q 33.36 2.46 32.85 2.48
  C 13.56 3.22 0.06 19.50 3.15 38.65
  C 6.09 56.81 19.78 74.12 33.04 86.61
  A 0.32 0.19 60.1 0 0 33.12 86.65
  Q 33.24 86.69 33.39 86.69"
/>
<path stroke="#c9b99d" vector-effect="non-scaling-stroke" d="
  M 46.51 15.76
  L 23.92 15.76
  A 2.08 2.07 31.8 0 0 23.01 15.97
  Q 20.28 17.28 20.14 20.21
  A 0.76 0.76 0.0 0 0 20.98 21.00
  Q 21.53 20.95 21.83 21.08
  A 0.43 0.43 0.0 0 1 21.75 21.89
  Q 21.45 21.95 21.24 22.01
  A 0.55 0.55 0.0 0 0 21.12 23.02
  L 21.53 23.25
  A 0.29 0.29 0.0 0 1 21.46 23.78
  Q 21.21 23.84 21.03 23.81
  A 0.67 0.67 0.0 0 0 20.24 24.47
  L 20.25 30.62
  A 0.87 0.86 -82.0 0 0 20.87 31.45
  L 22.94 32.07
  A 0.31 0.31 0.0 0 1 22.86 32.68
  L 21.09 32.68
  A 0.85 0.85 0.0 0 0 20.24 33.53
  L 20.24 41.55
  A 0.74 0.74 0.0 0 0 20.98 42.29
  Q 31.60 42.30 34.27 42.22
  C 38.81 42.06 38.68 44.71 38.75 48.02
  A 2.78 2.51 -1.6 0 0 41.62 50.47
  Q 42.18 50.45 43.11 49.76
  Q 43.79 49.26 43.90 48.33
  Q 44.12 46.48 43.94 43.55
  A 0.74 0.74 0.0 0 0 43.20 42.85
  L 40.64 42.85
  A 0.37 0.36 -51.5 0 1 40.56 42.13
  L 43.41 41.45
  A 0.74 0.74 0.0 0 0 43.97 40.73
  L 43.97 32.75
  A 0.85 0.83 -70.1 0 0 43.68 32.11
  Q 43.37 31.86 42.96 31.55
  Q 42.82 31.45 43.38 30.81
  Q 43.98 30.13 43.84 29.72
  A 0.80 0.78 -7.2 0 0 43.15 29.20
  Q 42.16 29.12 41.19 28.71
  A 0.34 0.34 0.0 0 1 41.32 28.06
  L 43.11 28.06
  A 0.86 0.86 0.0 0 0 43.97 27.23
  C 44.11 22.91 42.91 18.11 46.60 16.12
  A 0.19 0.19 0.0 0 0 46.51 15.76"
/>
<path stroke="#c9b99d" vector-effect="non-scaling-stroke" d="
  M 46.88 24.02
  L 50.12 24.00
  A 0.91 0.91 0.0 0 0 51.03 23.09
  L 51.02 20.51
  A 2.95 2.36 89.8 0 0 48.65 17.57
  L 48.31 17.57
  A 2.95 2.36 89.8 0 0 45.96 20.53
  L 45.97 23.11
  A 0.91 0.91 0.0 0 0 46.88 24.02"
/>
<path stroke="#c9b99d" vector-effect="non-scaling-stroke" d="
  M 39.60 52.04
  Q 37.80 51.02 37.14 49.60
  C 36.49 48.21 36.91 46.37 36.75 45.32
  A 1.56 1.56 0.0 0 0 35.22 43.98
  L 16.20 43.94
  A 1.70 1.70 0.0 0 0 14.51 45.87
  L 14.97 49.06
  A 3.71 3.71 0.0 0 0 18.64 52.24
  L 39.55 52.24
  A 0.11 0.11 0.0 0 0 39.60 52.04"
/>
<path stroke="#c9b99d" vector-effect="non-scaling-stroke" d="
  M 37.6208 26.2997
  A 0.53 0.53 0.0 0 0 37.0918 25.7688
  L 27.0118 25.7512
  A 0.53 0.53 0.0 0 0 26.4808 26.2803
  L 26.4792 27.2403
  A 0.53 0.53 0.0 0 0 27.0082 27.7712
  L 37.0882 27.7888
  A 0.53 0.53 0.0 0 0 37.6192 27.2597
  L 37.6208 26.2997"
/>
<path stroke="#c9b99d" vector-effect="non-scaling-stroke" d="
  M 33.9487 30.0070
  A 0.53 0.53 0.0 0 0 33.4169 29.4788
  L 27.0169 29.5012
  A 0.53 0.53 0.0 0 0 26.4888 30.0330
  L 26.4913 30.7530
  A 0.53 0.53 0.0 0 0 27.0231 31.2812
  L 33.4231 31.2588
  A 0.53 0.53 0.0 0 0 33.9512 30.7270
  L 33.9487 30.0070"
/>
<path stroke="#c9b99d" vector-effect="non-scaling-stroke" d="
  M 37.7200 33.9899
  A 0.91 0.91 0.0 0 0 36.8116 33.0783
  L 27.2516 33.0617
  A 0.91 0.91 0.0 0 0 26.3401 33.9701
  L 26.3400 34.0301
  A 0.91 0.91 0.0 0 0 27.2484 34.9417
  L 36.8084 34.9583
  A 0.91 0.91 0.0 0 0 37.7199 34.0499
  L 37.7200 33.9899"
/>
<path stroke="#c9b99d" vector-effect="non-scaling-stroke" d="
  M 33.9809 37.2365
  A 0.50 0.50 0.0 0 0 33.4818 36.7357
  L 26.9818 36.7243
  A 0.50 0.50 0.0 0 0 26.4809 37.2235
  L 26.4791 38.2635
  A 0.50 0.50 0.0 0 0 26.9782 38.7643
  L 33.4782 38.7757
  A 0.50 0.50 0.0 0 0 33.9791 38.2765
  L 33.9809 37.2365"
/>
</g>
<path fill="#4b3a1c" d="
  M 33.80 88.00
  L 33.14 88.00
  Q 15.61 72.48 6.00 52.51
  Q 2.23 44.68 1.62 34.99
  Q 1.03 25.70 5.17 18.15
  C 17.95 -5.17 51.90 -4.02 62.90 20.39
  C 66.91 29.29 65.83 40.17 62.33 49.05
  C 56.48 63.89 45.55 77.33 33.80 88.00
  Z
  M 33.39 86.69
  Q 33.54 86.69 33.67 86.65
  A 0.32 0.19 -59.9 0 0 33.75 86.61
  C 47.05 74.17 60.81 56.91 63.82 38.76
  C 66.98 19.63 53.54 3.30 34.25 2.49
  Q 33.74 2.47 33.55 2.47
  Q 33.36 2.46 32.85 2.48
  C 13.56 3.22 0.06 19.50 3.15 38.65
  C 6.09 56.81 19.78 74.12 33.04 86.61
  A 0.32 0.19 60.1 0 0 33.12 86.65
  Q 33.24 86.69 33.39 86.69
  Z"
/>
<path fill="#92723a" d="
  M 33.55 2.47
  Q 33.74 2.47 34.25 2.49
  C 53.54 3.30 66.98 19.63 63.82 38.76
  C 60.81 56.91 47.05 74.17 33.75 86.61
  A 0.32 0.19 -59.9 0 1 33.67 86.65
  Q 33.54 86.69 33.39 86.69
  Q 33.24 86.69 33.12 86.65
  A 0.32 0.19 60.1 0 1 33.04 86.61
  C 19.78 74.12 6.09 56.81 3.15 38.65
  C 0.06 19.50 13.56 3.22 32.85 2.48
  Q 33.36 2.46 33.55 2.47
  Z
  M 46.51 15.76
  L 23.92 15.76
  A 2.08 2.07 31.8 0 0 23.01 15.97
  Q 20.28 17.28 20.14 20.21
  A 0.76 0.76 0.0 0 0 20.98 21.00
  Q 21.53 20.95 21.83 21.08
  A 0.43 0.43 0.0 0 1 21.75 21.89
  Q 21.45 21.95 21.24 22.01
  A 0.55 0.55 0.0 0 0 21.12 23.02
  L 21.53 23.25
  A 0.29 0.29 0.0 0 1 21.46 23.78
  Q 21.21 23.84 21.03 23.81
  A 0.67 0.67 0.0 0 0 20.24 24.47
  L 20.25 30.62
  A 0.87 0.86 -82.0 0 0 20.87 31.45
  L 22.94 32.07
  A 0.31 0.31 0.0 0 1 22.86 32.68
  L 21.09 32.68
  A 0.85 0.85 0.0 0 0 20.24 33.53
  L 20.24 41.55
  A 0.74 0.74 0.0 0 0 20.98 42.29
  Q 31.60 42.30 34.27 42.22
  C 38.81 42.06 38.68 44.71 38.75 48.02
  A 2.78 2.51 -1.6 0 0 41.62 50.47
  Q 42.18 50.45 43.11 49.76
  Q 43.79 49.26 43.90 48.33
  Q 44.12 46.48 43.94 43.55
  A 0.74 0.74 0.0 0 0 43.20 42.85
  L 40.64 42.85
  A 0.37 0.36 -51.5 0 1 40.56 42.13
  L 43.41 41.45
  A 0.74 0.74 0.0 0 0 43.97 40.73
  L 43.97 32.75
  A 0.85 0.83 -70.1 0 0 43.68 32.11
  Q 43.37 31.86 42.96 31.55
  Q 42.82 31.45 43.38 30.81
  Q 43.98 30.13 43.84 29.72
  A 0.80 0.78 -7.2 0 0 43.15 29.20
  Q 42.16 29.12 41.19 28.71
  A 0.34 0.34 0.0 0 1 41.32 28.06
  L 43.11 28.06
  A 0.86 0.86 0.0 0 0 43.97 27.23
  C 44.11 22.91 42.91 18.11 46.60 16.12
  A 0.19 0.19 0.0 0 0 46.51 15.76
  Z
  M 46.88 24.02
  L 50.12 24.00
  A 0.91 0.91 0.0 0 0 51.03 23.09
  L 51.02 20.51
  A 2.95 2.36 89.8 0 0 48.65 17.57
  L 48.31 17.57
  A 2.95 2.36 89.8 0 0 45.96 20.53
  L 45.97 23.11
  A 0.91 0.91 0.0 0 0 46.88 24.02
  Z
  M 39.60 52.04
  Q 37.80 51.02 37.14 49.60
  C 36.49 48.21 36.91 46.37 36.75 45.32
  A 1.56 1.56 0.0 0 0 35.22 43.98
  L 16.20 43.94
  A 1.70 1.70 0.0 0 0 14.51 45.87
  L 14.97 49.06
  A 3.71 3.71 0.0 0 0 18.64 52.24
  L 39.55 52.24
  A 0.11 0.11 0.0 0 0 39.60 52.04
  Z"
/>
<path fill="#ffffff" d="
  M 46.60 16.12
  C 42.91 18.11 44.11 22.91 43.97 27.23
  A 0.86 0.86 0.0 0 1 43.11 28.06
  L 41.32 28.06
  A 0.34 0.34 0.0 0 0 41.19 28.71
  Q 42.16 29.12 43.15 29.20
  A 0.80 0.78 -7.2 0 1 43.84 29.72
  Q 43.98 30.13 43.38 30.81
  Q 42.82 31.45 42.96 31.55
  Q 43.37 31.86 43.68 32.11
  A 0.85 0.83 -70.1 0 1 43.97 32.75
  L 43.97 40.73
  A 0.74 0.74 0.0 0 1 43.41 41.45
  L 40.56 42.13
  A 0.37 0.36 -51.5 0 0 40.64 42.85
  L 43.20 42.85
  A 0.74 0.74 0.0 0 1 43.94 43.55
  Q 44.12 46.48 43.90 48.33
  Q 43.79 49.26 43.11 49.76
  Q 42.18 50.45 41.62 50.47
  A 2.78 2.51 -1.6 0 1 38.75 48.02
  C 38.68 44.71 38.81 42.06 34.27 42.22
  Q 31.60 42.30 20.98 42.29
  A 0.74 0.74 0.0 0 1 20.24 41.55
  L 20.24 33.53
  A 0.85 0.85 0.0 0 1 21.09 32.68
  L 22.86 32.68
  A 0.31 0.31 0.0 0 0 22.94 32.07
  L 20.87 31.45
  A 0.87 0.86 -82.0 0 1 20.25 30.62
  L 20.24 24.47
  A 0.67 0.67 0.0 0 1 21.03 23.81
  Q 21.21 23.84 21.46 23.78
  A 0.29 0.29 0.0 0 0 21.53 23.25
  L 21.12 23.02
  A 0.55 0.55 0.0 0 1 21.24 22.01
  Q 21.45 21.95 21.75 21.89
  A 0.43 0.43 0.0 0 0 21.83 21.08
  Q 21.53 20.95 20.98 21.00
  A 0.76 0.76 0.0 0 1 20.14 20.21
  Q 20.28 17.28 23.01 15.97
  A 2.08 2.07 31.8 0 1 23.92 15.76
  L 46.51 15.76
  A 0.19 0.19 0.0 0 1 46.60 16.12
  Z
  M 37.6208 26.2997
  A 0.53 0.53 0.0 0 0 37.0918 25.7688
  L 27.0118 25.7512
  A 0.53 0.53 0.0 0 0 26.4808 26.2803
  L 26.4792 27.2403
  A 0.53 0.53 0.0 0 0 27.0082 27.7712
  L 37.0882 27.7888
  A 0.53 0.53 0.0 0 0 37.6192 27.2597
  L 37.6208 26.2997
  Z
  M 33.9487 30.0070
  A 0.53 0.53 0.0 0 0 33.4169 29.4788
  L 27.0169 29.5012
  A 0.53 0.53 0.0 0 0 26.4888 30.0330
  L 26.4913 30.7530
  A 0.53 0.53 0.0 0 0 27.0231 31.2812
  L 33.4231 31.2588
  A 0.53 0.53 0.0 0 0 33.9512 30.7270
  L 33.9487 30.0070
  Z
  M 37.7200 33.9899
  A 0.91 0.91 0.0 0 0 36.8116 33.0783
  L 27.2516 33.0617
  A 0.91 0.91 0.0 0 0 26.3401 33.9701
  L 26.3400 34.0301
  A 0.91 0.91 0.0 0 0 27.2484 34.9417
  L 36.8084 34.9583
  A 0.91 0.91 0.0 0 0 37.7199 34.0499
  L 37.7200 33.9899
  Z
  M 33.9809 37.2365
  A 0.50 0.50 0.0 0 0 33.4818 36.7357
  L 26.9818 36.7243
  A 0.50 0.50 0.0 0 0 26.4809 37.2235
  L 26.4791 38.2635
  A 0.50 0.50 0.0 0 0 26.9782 38.7643
  L 33.4782 38.7757
  A 0.50 0.50 0.0 0 0 33.9791 38.2765
  L 33.9809 37.2365
  Z"
/>
<path fill="#ffffff" d="
  M 46.88 24.02
  A 0.91 0.91 0.0 0 1 45.97 23.11
  L 45.96 20.53
  A 2.95 2.36 89.8 0 1 48.31 17.57
  L 48.65 17.57
  A 2.95 2.36 89.8 0 1 51.02 20.51
  L 51.03 23.09
  A 0.91 0.91 0.0 0 1 50.12 24.00
  L 46.88 24.02
  Z"
/>
<rect fill="#92723a" x="-5.57" y="-1.01" transform="translate(32.05,26.77) rotate(0.1)" width="11.14" height="2.02" rx="0.53"/>
<rect fill="#92723a" x="-3.73" y="-0.89" transform="translate(30.22,30.38) rotate(-0.2)" width="7.46" height="1.78" rx="0.53"/>
<rect fill="#92723a" x="-5.69" y="-0.94" transform="translate(32.03,34.01) rotate(0.1)" width="11.38" height="1.88" rx="0.91"/>
<rect fill="#92723a" x="-3.75" y="-1.02" transform="translate(30.23,37.75) rotate(0.1)" width="7.50" height="2.04" rx="0.50"/>
<path fill="#ffffff" d="
  M 39.60 52.04
  A 0.11 0.11 0.0 0 1 39.55 52.24
  L 18.64 52.24
  A 3.71 3.71 0.0 0 1 14.97 49.06
  L 14.51 45.87
  A 1.70 1.70 0.0 0 1 16.20 43.94
  L 35.22 43.98
  A 1.56 1.56 0.0 0 1 36.75 45.32
  C 36.91 46.37 36.49 48.21 37.14 49.60
  Q 37.80 51.02 39.60 52.04
  Z"
/>
</svg>
