<?xml version="1.0" encoding="UTF-8" standalone="no"?>
<!DOCTYPE svg PUBLIC "-//W3C//DTD SVG 1.1//EN" "http://www.w3.org/Graphics/SVG/1.1/DTD/svg11.dtd">
<svg xmlns="http://www.w3.org/2000/svg" version="1.1" viewBox="0.00 0.00 66.00 88.00">
<g stroke-width="2.00" fill="none" stroke-linecap="butt">
<path stroke="#353846" vector-effect="non-scaling-stroke" d="
  M 33.42 86.58
  C 34.07 86.58 33.57 86.60 33.77 86.42
  C 51.00 70.74 77.51 36.46 56.74 13.03
  C 50.85 6.39 42.57 2.51 33.52 2.50
  C 24.46 2.49 16.18 6.35 10.27 12.98
  C -10.55 36.36 15.88 70.70 33.08 86.42
  C 33.27 86.60 32.78 86.58 33.42 86.58"
/>
<path stroke="#a3a4ae" vector-effect="non-scaling-stroke" d="
  M 23.75 34.00
  Q 23.75 51.88 23.75 51.90
  A 0.32 0.32 0.0 0 0 24.20 52.16
  L 33.59 47.98
  A 0.81 0.80 52.7 0 1 34.44 48.10
  L 38.57 51.64
  A 0.45 0.45 0.0 0 0 39.20 51.59
  L 41.17 49.30
  A 0.65 0.64 -49.8 0 0 41.10 48.40
  L 35.18 43.32
  A 0.88 0.87 -36.7 0 0 34.25 43.19
  L 28.51 45.75
  A 0.33 0.33 0.0 0 1 28.05 45.47
  Q 28.00 44.70 28.00 34.00
  Q 28.00 23.30 28.05 22.53
  A 0.33 0.33 0.0 0 1 28.51 22.25
  L 34.25 24.81
  A 0.88 0.87 36.7 0 0 35.18 24.68
  L 41.10 19.60
  A 0.65 0.64 49.8 0 0 41.17 18.70
  L 39.20 16.41
  A 0.45 0.45 0.0 0 0 38.57 16.36
  L 34.44 19.90
  A 0.81 0.80 -52.7 0 1 33.59 20.02
  L 24.20 15.84
  A 0.32 0.32 0.0 0 0 23.75 16.10
  Q 23.75 16.12 23.75 34.00"
/>
</g>
<path fill="#232630" d="
  M 33.81 88.00
  L 33.04 88.00
  C 22.18 78.19 12.05 65.64 5.73 51.77
  C 1.05 41.48 -0.50 28.47 5.15 18.22
  C 18.01 -5.12 51.85 -4.20 62.97 20.58
  C 66.66 28.79 65.91 38.71 63.04 47.01
  C 57.65 62.62 45.95 76.92 33.81 88.00
  Z
  M 33.42 86.58
  C 34.07 86.58 33.57 86.60 33.77 86.42
  C 51.00 70.74 77.51 36.46 56.74 13.03
  C 50.85 6.39 42.57 2.51 33.52 2.50
  C 24.46 2.49 16.18 6.35 10.27 12.98
  C -10.55 36.36 15.88 70.70 33.08 86.42
  C 33.27 86.60 32.78 86.58 33.42 86.58
  Z"
/>
<path fill="#46495c" d="
  M 33.52 2.50
  C 42.57 2.51 50.85 6.39 56.74 13.03
  C 77.51 36.46 51.00 70.74 33.77 86.42
  C 33.57 86.60 34.07 86.58 33.42 86.58
  C 32.78 86.58 33.27 86.60 33.08 86.42
  C 15.88 70.70 -10.55 36.36 10.27 12.98
  C 16.18 6.35 24.46 2.49 33.52 2.50
  Z
  M 23.75 34.00
  Q 23.75 51.88 23.75 51.90
  A 0.32 0.32 0.0 0 0 24.20 52.16
  L 33.59 47.98
  A 0.81 0.80 52.7 0 1 34.44 48.10
  L 38.57 51.64
  A 0.45 0.45 0.0 0 0 39.20 51.59
  L 41.17 49.30
  A 0.65 0.64 -49.8 0 0 41.10 48.40
  L 35.18 43.32
  A 0.88 0.87 -36.7 0 0 34.25 43.19
  L 28.51 45.75
  A 0.33 0.33 0.0 0 1 28.05 45.47
  Q 28.00 44.70 28.00 34.00
  Q 28.00 23.30 28.05 22.53
  A 0.33 0.33 0.0 0 1 28.51 22.25
  L 34.25 24.81
  A 0.88 0.87 36.7 0 0 35.18 24.68
  L 41.10 19.60
  A 0.65 0.64 49.8 0 0 41.17 18.70
  L 39.20 16.41
  A 0.45 0.45 0.0 0 0 38.57 16.36
  L 34.44 19.90
  A 0.81 0.80 -52.7 0 1 33.59 20.02
  L 24.20 15.84
  A 0.32 0.32 0.0 0 0 23.75 16.10
  Q 23.75 16.12 23.75 34.00
  Z"
/>
<path fill="#ffffff" d="
  M 28.00 34.00
  Q 28.00 44.70 28.05 45.47
  A 0.33 0.33 0.0 0 0 28.51 45.75
  L 34.25 43.19
  A 0.88 0.87 -36.7 0 1 35.18 43.32
  L 41.10 48.40
  A 0.65 0.64 -49.8 0 1 41.17 49.30
  L 39.20 51.59
  A 0.45 0.45 0.0 0 1 38.57 51.64
  L 34.44 48.10
  A 0.81 0.80 52.7 0 0 33.59 47.98
  L 24.20 52.16
  A 0.32 0.32 0.0 0 1 23.75 51.90
  Q 23.75 51.88 23.75 34.00
  Q 23.75 16.12 23.75 16.10
  A 0.32 0.32 0.0 0 1 24.20 15.84
  L 33.59 20.02
  A 0.81 0.80 -52.7 0 0 34.44 19.90
  L 38.57 16.36
  A 0.45 0.45 0.0 0 1 39.20 16.41
  L 41.17 18.70
  A 0.65 0.64 49.8 0 1 41.10 19.60
  L 35.18 24.68
  A 0.88 0.87 36.7 0 1 34.25 24.81
  L 28.51 22.25
  A 0.33 0.33 0.0 0 0 28.05 22.53
  Q 28.00 23.30 28.00 34.00
  Z"
/>
</svg>
