<?xml version="1.0" encoding="UTF-8" standalone="no"?>
<!DOCTYPE svg PUBLIC "-//W3C//DTD SVG 1.1//EN" "http://www.w3.org/Graphics/SVG/1.1/DTD/svg11.dtd">
<svg xmlns="http://www.w3.org/2000/svg" version="1.1" viewBox="0.00 0.00 66.00 88.00">
<g stroke-width="2.00" fill="none" stroke-linecap="butt">
<path stroke="#324277" vector-effect="non-scaling-stroke" d="
  M 33.40 86.70
  Q 33.52 86.70 33.61 86.68
  Q 33.70 86.66 33.78 86.58
  Q 48.06 73.17 57.04 57.54
  C 64.10 45.25 67.96 28.78 59.28 16.26
  C 53.29 7.62 44.24 2.59 33.53 2.57
  C 22.81 2.56 13.75 7.56 7.74 16.18
  C -0.98 28.68 2.83 45.16 9.85 57.47
  Q 18.79 73.13 33.03 86.58
  Q 33.11 86.66 33.20 86.68
  Q 33.29 86.70 33.40 86.70"
/>
<path stroke="#a2abce" vector-effect="non-scaling-stroke" d="
  M 33.76 27.92
  C 33.41 25.14 35.02 21.90 35.81 19.18
  A 2.02 1.97 -44.2 0 0 35.84 18.16
  C 34.73 13.63 28.01 15.78 30.35 20.93
  Q 31.79 24.12 32.03 26.96
  A 1.05 1.04 -20.9 0 1 31.61 27.89
  Q 30.46 28.75 31.09 30.04
  A 0.23 0.23 0.0 0 1 30.98 30.36
  L 30.97 30.37
  A 0.15 0.15 0.0 0 1 30.77 30.29
  Q 29.00 26.19 25.18 24.34
  A 0.16 0.15 -61.8 0 1 25.12 24.12
  L 25.29 23.82
  A 0.36 0.35 23.4 0 1 25.71 23.66
  Q 29.25 24.86 30.58 27.90
  A 0.39 0.39 0.0 0 0 31.08 28.11
  L 31.10 28.11
  A 0.36 0.36 0.0 0 0 31.31 27.68
  Q 30.73 25.65 29.29 24.42
  A 0.95 0.93 34.5 0 1 29.07 23.28
  Q 29.46 22.53 29.30 22.19
  A 0.44 0.44 0.0 0 0 28.56 22.10
  Q 28.14 22.60 28.16 23.11
  A 0.49 0.49 0.0 0 1 27.42 23.55
  L 25.87 22.66
  A 0.59 0.55 11.1 0 1 25.61 22.30
  C 24.61 18.08 17.89 20.08 20.32 24.58
  A 1.97 1.97 0.0 0 0 21.87 25.61
  Q 28.45 26.26 29.92 33.22
  A 0.34 0.34 0.0 0 1 29.42 33.59
  Q 25.68 31.58 23.29 27.85
  A 0.26 0.25 -31.4 0 0 22.95 27.77
  L 22.62 27.96
  A 0.29 0.28 60.3 0 0 22.52 28.35
  L 23.12 29.39
  A 0.38 0.38 0.0 0 1 22.84 29.96
  Q 22.25 30.04 21.81 30.37
  A 0.41 0.40 -73.5 0 0 22.19 31.08
  Q 23.33 30.65 24.54 30.78
  A 0.54 0.54 0.0 0 1 24.71 31.81
  L 22.16 32.99
  A 0.62 0.61 -22.5 0 1 21.33 32.65
  Q 21.24 32.42 21.18 32.06
  C 20.72 29.27 15.78 29.69 15.69 33.03
  C 15.61 36.04 18.58 36.45 20.87 35.65
  Q 21.76 35.33 24.14 34.05
  A 2.39 2.39 0.0 0 1 26.42 34.05
  Q 29.24 35.57 29.93 37.68
  A 0.51 0.51 0.0 0 1 29.47 38.34
  Q 24.94 38.52 21.62 36.63
  A 0.21 0.21 0.0 0 0 21.34 36.70
  Q 21.27 36.80 21.23 36.97
  A 0.33 0.32 24.9 0 0 21.36 37.31
  Q 22.70 38.21 21.32 39.78
  A 0.14 0.14 0.0 0 0 21.50 39.99
  Q 23.88 38.39 24.22 38.57
  A 0.69 0.69 0.0 0 1 24.38 39.66
  C 23.27 40.77 21.00 40.78 20.19 42.14
  C 19.07 44.01 20.35 46.57 22.46 46.57
  Q 26.31 46.58 25.26 42.17
  A 1.79 1.79 0.0 0 1 27.00 39.96
  L 28.05 39.96
  A 1.95 1.95 0.0 0 1 30.00 41.91
  L 30.00 51.15
  A 1.05 1.04 0.0 0 0 31.05 52.19
  L 34.53 52.19
  A 0.97 0.96 0.0 0 0 35.50 51.23
  L 35.50 42.15
  A 2.14 2.14 0.0 0 1 37.64 40.01
  L 38.45 40.01
  A 1.99 1.99 0.0 0 1 40.37 42.51
  Q 39.28 46.54 43.47 46.50
  C 45.66 46.49 46.31 43.69 45.41 42.02
  C 44.84 40.95 42.40 40.70 41.19 39.66
  A 0.42 0.42 0.0 0 1 41.25 38.97
  L 41.68 38.72
  A 0.81 0.80 -29.9 0 1 42.78 39.01
  L 43.26 39.83
  A 0.32 0.32 0.0 0 0 43.70 39.95
  L 43.94 39.81
  A 0.44 0.44 0.0 0 0 43.94 39.05
  L 43.72 38.92
  A 0.66 0.65 -45.7 0 1 43.71 37.79
  Q 44.19 37.50 44.32 37.16
  A 0.46 0.46 0.0 0 0 43.59 36.65
  C 41.72 38.33 38.55 38.34 35.89 38.42
  A 0.35 0.35 0.0 0 1 35.56 37.91
  Q 38.49 32.01 42.97 34.75
  C 51.16 39.75 52.03 28.82 46.05 30.39
  A 1.46 1.44 -78.9 0 0 45.27 30.92
  Q 44.30 32.19 44.24 32.92
  A 0.41 0.40 17.9 0 1 43.63 33.23
  L 40.96 31.69
  A 0.43 0.43 0.0 0 1 40.95 30.95
  Q 41.22 30.79 41.73 30.57
  A 0.74 0.72 -36.1 0 1 42.49 30.68
  Q 42.91 31.03 43.76 31.14
  A 0.32 0.32 0.0 0 0 44.06 30.64
  Q 43.64 30.00 42.79 29.91
  A 0.38 0.37 -72.1 0 1 42.51 29.35
  L 43.15 28.25
  A 0.23 0.21 47.0 0 0 43.15 28.02
  L 43.01 27.78
  A 0.32 0.31 46.7 0 0 42.47 27.76
  Q 40.07 31.54 36.28 33.56
  A 0.37 0.36 -7.7 0 1 35.75 33.16
  Q 37.18 26.78 42.69 25.81
  C 48.25 24.82 45.74 18.70 41.86 20.15
  Q 40.27 20.75 40.06 22.80
  A 0.56 0.55 -87.1 0 1 39.51 23.30
  L 38.07 23.30
  A 0.52 0.51 29.5 0 0 37.81 23.37
  Q 35.16 25.04 34.18 27.96
  A 0.22 0.22 0.0 0 1 33.76 27.92"
/>
<path stroke="#a2abce" vector-effect="non-scaling-stroke" d="
  M 37.0029 22.1746
  A 0.63 0.56 -68.3 0 0 36.2497 22.5529
  A 0.63 0.56 -68.3 0 0 36.5371 23.3454
  A 0.63 0.56 -68.3 0 0 37.2903 22.9671
  A 0.63 0.56 -68.3 0 0 37.0029 22.1746"
/>
<path stroke="#a2abce" vector-effect="non-scaling-stroke" d="
  M 33.67 17.68
  L 32.15 17.63
  A 0.27 0.27 0.0 0 0 31.87 17.89
  L 31.87 18.07
  A 3.95 1.03 -88.1 0 0 32.77 22.05
  A 3.95 1.03 -88.1 0 0 33.93 18.14
  L 33.93 17.96
  A 0.27 0.27 0.0 0 0 33.67 17.68"
/>
<path stroke="#a2abce" vector-effect="non-scaling-stroke" d="
  M 23.81 22.83
  A 1.14 1.14 0.0 0 0 22.67 21.69
  A 1.14 1.14 0.0 0 0 21.53 22.83
  A 1.14 1.14 0.0 0 0 22.67 23.97
  A 1.14 1.14 0.0 0 0 23.81 22.83"
/>
<path stroke="#a2abce" vector-effect="non-scaling-stroke" d="
  M 44.11 22.80
  A 1.11 1.11 0.0 0 0 43.00 21.69
  A 1.11 1.11 0.0 0 0 41.89 22.80
  A 1.11 1.11 0.0 0 0 43.00 23.91
  A 1.11 1.11 0.0 0 0 44.11 22.80"
/>
<path stroke="#a2abce" vector-effect="non-scaling-stroke" d="
  M 39.70 23.72
  Q 35.32 25.58 34.51 30.19
  A 0.19 0.18 -28.4 0 0 34.86 30.29
  Q 36.65 26.28 40.01 24.76
  A 0.58 0.57 -24.6 0 0 40.30 24.00
  L 40.27 23.93
  A 0.44 0.43 -24.4 0 0 39.70 23.72"
/>
<path stroke="#a2abce" vector-effect="non-scaling-stroke" d="
  M 19.77 33.11
  A 1.12 1.12 0.0 0 0 18.65 31.99
  A 1.12 1.12 0.0 0 0 17.53 33.11
  A 1.12 1.12 0.0 0 0 18.65 34.23
  A 1.12 1.12 0.0 0 0 19.77 33.11"
/>
<path stroke="#a2abce" vector-effect="non-scaling-stroke" d="
  M 48.26 33.13
  A 1.14 1.14 0.0 0 0 47.12 31.99
  A 1.14 1.14 0.0 0 0 45.98 33.13
  A 1.14 1.14 0.0 0 0 47.12 34.27
  A 1.14 1.14 0.0 0 0 48.26 33.13"
/>
<path stroke="#a2abce" vector-effect="non-scaling-stroke" d="
  M 34.62 36.53
  A 1.76 1.76 0.0 0 0 32.86 34.77
  A 1.76 1.76 0.0 0 0 31.10 36.53
  A 1.76 1.76 0.0 0 0 32.86 38.29
  A 1.76 1.76 0.0 0 0 34.62 36.53"
/>
<path stroke="#a2abce" vector-effect="non-scaling-stroke" d="
  M 23.81 43.64
  A 1.12 1.12 0.0 0 0 22.69 42.52
  A 1.12 1.12 0.0 0 0 21.57 43.64
  A 1.12 1.12 0.0 0 0 22.69 44.76
  A 1.12 1.12 0.0 0 0 23.81 43.64"
/>
<path stroke="#a2abce" vector-effect="non-scaling-stroke" d="
  M 44.14 43.65
  A 1.14 1.14 0.0 0 0 43.00 42.51
  A 1.14 1.14 0.0 0 0 41.86 43.65
  A 1.14 1.14 0.0 0 0 43.00 44.79
  A 1.14 1.14 0.0 0 0 44.14 43.65"
/>
<path stroke="#a2abce" vector-effect="non-scaling-stroke" d="
  M 34.60 48.13
  A 1.74 1.74 0.0 0 0 32.86 46.39
  A 1.74 1.74 0.0 0 0 31.12 48.13
  A 1.74 1.74 0.0 0 0 32.86 49.87
  A 1.74 1.74 0.0 0 0 34.60 48.13"
/>
</g>
<path fill="#202d52" d="
  M 33.80 88.00
  L 33.15 88.00
  Q 15.61 72.48 6.00 52.51
  Q 2.33 44.88 1.62 35.22
  C 0.44 19.13 11.12 5.63 26.53 2.10
  C 39.44 -0.86 53.29 4.69 60.52 15.96
  Q 67.19 26.35 64.87 39.52
  Q 62.62 52.24 54.58 64.08
  Q 45.68 77.20 33.80 88.00
  Z
  M 33.40 86.70
  Q 33.52 86.70 33.61 86.68
  Q 33.70 86.66 33.78 86.58
  Q 48.06 73.17 57.04 57.54
  C 64.10 45.25 67.96 28.78 59.28 16.26
  C 53.29 7.62 44.24 2.59 33.53 2.57
  C 22.81 2.56 13.75 7.56 7.74 16.18
  C -0.98 28.68 2.83 45.16 9.85 57.47
  Q 18.79 73.13 33.03 86.58
  Q 33.11 86.66 33.20 86.68
  Q 33.29 86.70 33.40 86.70
  Z"
/>
<path fill="#44569c" d="
  M 33.53 2.57
  C 44.24 2.59 53.29 7.62 59.28 16.26
  C 67.96 28.78 64.10 45.25 57.04 57.54
  Q 48.06 73.17 33.78 86.58
  Q 33.70 86.66 33.61 86.68
  Q 33.52 86.70 33.40 86.70
  Q 33.29 86.70 33.20 86.68
  Q 33.11 86.66 33.03 86.58
  Q 18.79 73.13 9.85 57.47
  C 2.83 45.16 -0.98 28.68 7.74 16.18
  C 13.75 7.56 22.81 2.56 33.53 2.57
  Z
  M 33.76 27.92
  C 33.41 25.14 35.02 21.90 35.81 19.18
  A 2.02 1.97 -44.2 0 0 35.84 18.16
  C 34.73 13.63 28.01 15.78 30.35 20.93
  Q 31.79 24.12 32.03 26.96
  A 1.05 1.04 -20.9 0 1 31.61 27.89
  Q 30.46 28.75 31.09 30.04
  A 0.23 0.23 0.0 0 1 30.98 30.36
  L 30.97 30.37
  A 0.15 0.15 0.0 0 1 30.77 30.29
  Q 29.00 26.19 25.18 24.34
  A 0.16 0.15 -61.8 0 1 25.12 24.12
  L 25.29 23.82
  A 0.36 0.35 23.4 0 1 25.71 23.66
  Q 29.25 24.86 30.58 27.90
  A 0.39 0.39 0.0 0 0 31.08 28.11
  L 31.10 28.11
  A 0.36 0.36 0.0 0 0 31.31 27.68
  Q 30.73 25.65 29.29 24.42
  A 0.95 0.93 34.5 0 1 29.07 23.28
  Q 29.46 22.53 29.30 22.19
  A 0.44 0.44 0.0 0 0 28.56 22.10
  Q 28.14 22.60 28.16 23.11
  A 0.49 0.49 0.0 0 1 27.42 23.55
  L 25.87 22.66
  A 0.59 0.55 11.1 0 1 25.61 22.30
  C 24.61 18.08 17.89 20.08 20.32 24.58
  A 1.97 1.97 0.0 0 0 21.87 25.61
  Q 28.45 26.26 29.92 33.22
  A 0.34 0.34 0.0 0 1 29.42 33.59
  Q 25.68 31.58 23.29 27.85
  A 0.26 0.25 -31.4 0 0 22.95 27.77
  L 22.62 27.96
  A 0.29 0.28 60.3 0 0 22.52 28.35
  L 23.12 29.39
  A 0.38 0.38 0.0 0 1 22.84 29.96
  Q 22.25 30.04 21.81 30.37
  A 0.41 0.40 -73.5 0 0 22.19 31.08
  Q 23.33 30.65 24.54 30.78
  A 0.54 0.54 0.0 0 1 24.71 31.81
  L 22.16 32.99
  A 0.62 0.61 -22.5 0 1 21.33 32.65
  Q 21.24 32.42 21.18 32.06
  C 20.72 29.27 15.78 29.69 15.69 33.03
  C 15.61 36.04 18.58 36.45 20.87 35.65
  Q 21.76 35.33 24.14 34.05
  A 2.39 2.39 0.0 0 1 26.42 34.05
  Q 29.24 35.57 29.93 37.68
  A 0.51 0.51 0.0 0 1 29.47 38.34
  Q 24.94 38.52 21.62 36.63
  A 0.21 0.21 0.0 0 0 21.34 36.70
  Q 21.27 36.80 21.23 36.97
  A 0.33 0.32 24.9 0 0 21.36 37.31
  Q 22.70 38.21 21.32 39.78
  A 0.14 0.14 0.0 0 0 21.50 39.99
  Q 23.88 38.39 24.22 38.57
  A 0.69 0.69 0.0 0 1 24.38 39.66
  C 23.27 40.77 21.00 40.78 20.19 42.14
  C 19.07 44.01 20.35 46.57 22.46 46.57
  Q 26.31 46.58 25.26 42.17
  A 1.79 1.79 0.0 0 1 27.00 39.96
  L 28.05 39.96
  A 1.95 1.95 0.0 0 1 30.00 41.91
  L 30.00 51.15
  A 1.05 1.04 0.0 0 0 31.05 52.19
  L 34.53 52.19
  A 0.97 0.96 0.0 0 0 35.50 51.23
  L 35.50 42.15
  A 2.14 2.14 0.0 0 1 37.64 40.01
  L 38.45 40.01
  A 1.99 1.99 0.0 0 1 40.37 42.51
  Q 39.28 46.54 43.47 46.50
  C 45.66 46.49 46.31 43.69 45.41 42.02
  C 44.84 40.95 42.40 40.70 41.19 39.66
  A 0.42 0.42 0.0 0 1 41.25 38.97
  L 41.68 38.72
  A 0.81 0.80 -29.9 0 1 42.78 39.01
  L 43.26 39.83
  A 0.32 0.32 0.0 0 0 43.70 39.95
  L 43.94 39.81
  A 0.44 0.44 0.0 0 0 43.94 39.05
  L 43.72 38.92
  A 0.66 0.65 -45.7 0 1 43.71 37.79
  Q 44.19 37.50 44.32 37.16
  A 0.46 0.46 0.0 0 0 43.59 36.65
  C 41.72 38.33 38.55 38.34 35.89 38.42
  A 0.35 0.35 0.0 0 1 35.56 37.91
  Q 38.49 32.01 42.97 34.75
  C 51.16 39.75 52.03 28.82 46.05 30.39
  A 1.46 1.44 -78.9 0 0 45.27 30.92
  Q 44.30 32.19 44.24 32.92
  A 0.41 0.40 17.9 0 1 43.63 33.23
  L 40.96 31.69
  A 0.43 0.43 0.0 0 1 40.95 30.95
  Q 41.22 30.79 41.73 30.57
  A 0.74 0.72 -36.1 0 1 42.49 30.68
  Q 42.91 31.03 43.76 31.14
  A 0.32 0.32 0.0 0 0 44.06 30.64
  Q 43.64 30.00 42.79 29.91
  A 0.38 0.37 -72.1 0 1 42.51 29.35
  L 43.15 28.25
  A 0.23 0.21 47.0 0 0 43.15 28.02
  L 43.01 27.78
  A 0.32 0.31 46.7 0 0 42.47 27.76
  Q 40.07 31.54 36.28 33.56
  A 0.37 0.36 -7.7 0 1 35.75 33.16
  Q 37.18 26.78 42.69 25.81
  C 48.25 24.82 45.74 18.70 41.86 20.15
  Q 40.27 20.75 40.06 22.80
  A 0.56 0.55 -87.1 0 1 39.51 23.30
  L 38.07 23.30
  A 0.52 0.51 29.5 0 0 37.81 23.37
  Q 35.16 25.04 34.18 27.96
  A 0.22 0.22 0.0 0 1 33.76 27.92
  Z
  M 37.0029 22.1746
  A 0.63 0.56 -68.3 0 0 36.2497 22.5529
  A 0.63 0.56 -68.3 0 0 36.5371 23.3454
  A 0.63 0.56 -68.3 0 0 37.2903 22.9671
  A 0.63 0.56 -68.3 0 0 37.0029 22.1746
  Z"
/>
<path fill="#ffffff" d="
  M 34.18 27.96
  Q 35.16 25.04 37.81 23.37
  A 0.52 0.51 29.5 0 1 38.07 23.30
  L 39.51 23.30
  A 0.56 0.55 -87.1 0 0 40.06 22.80
  Q 40.27 20.75 41.86 20.15
  C 45.74 18.70 48.25 24.82 42.69 25.81
  Q 37.18 26.78 35.75 33.16
  A 0.37 0.36 -7.7 0 0 36.28 33.56
  Q 40.07 31.54 42.47 27.76
  A 0.32 0.31 46.7 0 1 43.01 27.78
  L 43.15 28.02
  A 0.23 0.21 47.0 0 1 43.15 28.25
  L 42.51 29.35
  A 0.38 0.37 -72.1 0 0 42.79 29.91
  Q 43.64 30.00 44.06 30.64
  A 0.32 0.32 0.0 0 1 43.76 31.14
  Q 42.91 31.03 42.49 30.68
  A 0.74 0.72 -36.1 0 0 41.73 30.57
  Q 41.22 30.79 40.95 30.95
  A 0.43 0.43 0.0 0 0 40.96 31.69
  L 43.63 33.23
  A 0.41 0.40 17.9 0 0 44.24 32.92
  Q 44.30 32.19 45.27 30.92
  A 1.46 1.44 -78.9 0 1 46.05 30.39
  C 52.03 28.82 51.16 39.75 42.97 34.75
  Q 38.49 32.01 35.56 37.91
  A 0.35 0.35 0.0 0 0 35.89 38.42
  C 38.55 38.34 41.72 38.33 43.59 36.65
  A 0.46 0.46 0.0 0 1 44.32 37.16
  Q 44.19 37.50 43.71 37.79
  A 0.66 0.65 -45.7 0 0 43.72 38.92
  L 43.94 39.05
  A 0.44 0.44 0.0 0 1 43.94 39.81
  L 43.70 39.95
  A 0.32 0.32 0.0 0 1 43.26 39.83
  L 42.78 39.01
  A 0.81 0.80 -29.9 0 0 41.68 38.72
  L 41.25 38.97
  A 0.42 0.42 0.0 0 0 41.19 39.66
  C 42.40 40.70 44.84 40.95 45.41 42.02
  C 46.31 43.69 45.66 46.49 43.47 46.50
  Q 39.28 46.54 40.37 42.51
  A 1.99 1.99 0.0 0 0 38.45 40.01
  L 37.64 40.01
  A 2.14 2.14 0.0 0 0 35.50 42.15
  L 35.50 51.23
  A 0.97 0.96 -0.0 0 1 34.53 52.19
  L 31.05 52.19
  A 1.05 1.04 0.0 0 1 30.00 51.15
  L 30.00 41.91
  A 1.95 1.95 0.0 0 0 28.05 39.96
  L 27.00 39.96
  A 1.79 1.79 0.0 0 0 25.26 42.17
  Q 26.31 46.58 22.46 46.57
  C 20.35 46.57 19.07 44.01 20.19 42.14
  C 21.00 40.78 23.27 40.77 24.38 39.66
  A 0.69 0.69 0.0 0 0 24.22 38.57
  Q 23.88 38.39 21.50 39.99
  A 0.14 0.14 0.0 0 1 21.32 39.78
  Q 22.70 38.21 21.36 37.31
  A 0.33 0.32 24.9 0 1 21.23 36.97
  Q 21.27 36.80 21.34 36.70
  A 0.21 0.21 0.0 0 1 21.62 36.63
  Q 24.94 38.52 29.47 38.34
  A 0.51 0.51 0.0 0 0 29.93 37.68
  Q 29.24 35.57 26.42 34.05
  A 2.39 2.39 0.0 0 0 24.14 34.05
  Q 21.76 35.33 20.87 35.65
  C 18.58 36.45 15.61 36.04 15.69 33.03
  C 15.78 29.69 20.72 29.27 21.18 32.06
  Q 21.24 32.42 21.33 32.65
  A 0.62 0.61 -22.5 0 0 22.16 32.99
  L 24.71 31.81
  A 0.54 0.54 0.0 0 0 24.54 30.78
  Q 23.33 30.65 22.19 31.08
  A 0.41 0.40 -73.5 0 1 21.81 30.37
  Q 22.25 30.04 22.84 29.96
  A 0.38 0.38 0.0 0 0 23.12 29.39
  L 22.52 28.35
  A 0.29 0.28 60.3 0 1 22.62 27.96
  L 22.95 27.77
  A 0.26 0.25 -31.4 0 1 23.29 27.85
  Q 25.68 31.58 29.42 33.59
  A 0.34 0.34 0.0 0 0 29.92 33.22
  Q 28.45 26.26 21.87 25.61
  A 1.97 1.97 0.0 0 1 20.32 24.58
  C 17.89 20.08 24.61 18.08 25.61 22.30
  A 0.59 0.55 11.1 0 0 25.87 22.66
  L 27.42 23.55
  A 0.49 0.49 0.0 0 0 28.16 23.11
  Q 28.14 22.60 28.56 22.10
  A 0.44 0.44 0.0 0 1 29.30 22.19
  Q 29.46 22.53 29.07 23.28
  A 0.95 0.93 34.5 0 0 29.29 24.42
  Q 30.73 25.65 31.31 27.68
  A 0.36 0.36 0.0 0 1 31.10 28.11
  L 31.08 28.11
  A 0.39 0.39 0.0 0 1 30.58 27.90
  Q 29.25 24.86 25.71 23.66
  A 0.36 0.35 23.4 0 0 25.29 23.82
  L 25.12 24.12
  A 0.16 0.15 -61.8 0 0 25.18 24.34
  Q 29.00 26.19 30.77 30.29
  A 0.15 0.15 0.0 0 0 30.97 30.37
  L 30.98 30.36
  A 0.23 0.23 0.0 0 0 31.09 30.04
  Q 30.46 28.75 31.61 27.89
  A 1.05 1.04 -20.9 0 0 32.03 26.96
  Q 31.79 24.12 30.35 20.93
  C 28.01 15.78 34.73 13.63 35.84 18.16
  A 2.02 1.97 -44.2 0 1 35.81 19.18
  C 35.02 21.90 33.41 25.14 33.76 27.92
  A 0.22 0.22 0.0 0 0 34.18 27.96
  Z
  M 33.67 17.68
  L 32.15 17.63
  A 0.27 0.27 0.0 0 0 31.87 17.89
  L 31.87 18.07
  A 3.95 1.03 -88.1 0 0 32.77 22.05
  A 3.95 1.03 -88.1 0 0 33.93 18.14
  L 33.93 17.96
  A 0.27 0.27 0.0 0 0 33.67 17.68
  Z
  M 23.81 22.83
  A 1.14 1.14 0.0 0 0 22.67 21.69
  A 1.14 1.14 0.0 0 0 21.53 22.83
  A 1.14 1.14 0.0 0 0 22.67 23.97
  A 1.14 1.14 0.0 0 0 23.81 22.83
  Z
  M 44.11 22.80
  A 1.11 1.11 0.0 0 0 43.00 21.69
  A 1.11 1.11 0.0 0 0 41.89 22.80
  A 1.11 1.11 0.0 0 0 43.00 23.91
  A 1.11 1.11 0.0 0 0 44.11 22.80
  Z
  M 39.70 23.72
  Q 35.32 25.58 34.51 30.19
  A 0.19 0.18 -28.4 0 0 34.86 30.29
  Q 36.65 26.28 40.01 24.76
  A 0.58 0.57 -24.6 0 0 40.30 24.00
  L 40.27 23.93
  A 0.44 0.43 -24.4 0 0 39.70 23.72
  Z
  M 19.77 33.11
  A 1.12 1.12 0.0 0 0 18.65 31.99
  A 1.12 1.12 0.0 0 0 17.53 33.11
  A 1.12 1.12 0.0 0 0 18.65 34.23
  A 1.12 1.12 0.0 0 0 19.77 33.11
  Z
  M 48.26 33.13
  A 1.14 1.14 0.0 0 0 47.12 31.99
  A 1.14 1.14 0.0 0 0 45.98 33.13
  A 1.14 1.14 0.0 0 0 47.12 34.27
  A 1.14 1.14 0.0 0 0 48.26 33.13
  Z
  M 34.62 36.53
  A 1.76 1.76 0.0 0 0 32.86 34.77
  A 1.76 1.76 0.0 0 0 31.10 36.53
  A 1.76 1.76 0.0 0 0 32.86 38.29
  A 1.76 1.76 0.0 0 0 34.62 36.53
  Z
  M 23.81 43.64
  A 1.12 1.12 0.0 0 0 22.69 42.52
  A 1.12 1.12 0.0 0 0 21.57 43.64
  A 1.12 1.12 0.0 0 0 22.69 44.76
  A 1.12 1.12 0.0 0 0 23.81 43.64
  Z
  M 44.14 43.65
  A 1.14 1.14 0.0 0 0 43.00 42.51
  A 1.14 1.14 0.0 0 0 41.86 43.65
  A 1.14 1.14 0.0 0 0 43.00 44.79
  A 1.14 1.14 0.0 0 0 44.14 43.65
  Z
  M 34.60 48.13
  A 1.74 1.74 0.0 0 0 32.86 46.39
  A 1.74 1.74 0.0 0 0 31.12 48.13
  A 1.74 1.74 0.0 0 0 32.86 49.87
  A 1.74 1.74 0.0 0 0 34.60 48.13
  Z"
/>
<path fill="#44569c" d="
  M 33.67 17.68
  A 0.27 0.27 0.0 0 1 33.93 17.96
  L 33.93 18.14
  A 3.95 1.03 -88.1 0 1 32.77 22.05
  A 3.95 1.03 -88.1 0 1 31.87 18.07
  L 31.87 17.89
  A 0.27 0.27 0.0 0 1 32.15 17.63
  L 33.67 17.68
  Z"
/>
<circle fill="#44569c" cx="22.67" cy="22.83" r="1.14"/>
<circle fill="#44569c" cx="43.00" cy="22.80" r="1.11"/>
<ellipse fill="#ffffff" cx="0.00" cy="0.00" transform="translate(36.77,22.76) rotate(-68.3)" rx="0.63" ry="0.56"/>
<path fill="#44569c" d="
  M 39.70 23.72
  A 0.44 0.43 -24.4 0 1 40.27 23.93
  L 40.30 24.00
  A 0.58 0.57 -24.6 0 1 40.01 24.76
  Q 36.65 26.28 34.86 30.29
  A 0.19 0.18 -28.4 0 1 34.51 30.19
  Q 35.32 25.58 39.70 23.72
  Z"
/>
<circle fill="#44569c" cx="18.65" cy="33.11" r="1.12"/>
<circle fill="#44569c" cx="47.12" cy="33.13" r="1.14"/>
<circle fill="#44569c" cx="32.86" cy="36.53" r="1.76"/>
<circle fill="#44569c" cx="22.69" cy="43.64" r="1.12"/>
<circle fill="#44569c" cx="43.00" cy="43.65" r="1.14"/>
<circle fill="#44569c" cx="32.86" cy="48.13" r="1.74"/>
</svg>
