<?xml version="1.0" encoding="UTF-8" standalone="no"?>
<!DOCTYPE svg PUBLIC "-//W3C//DTD SVG 1.1//EN" "http://www.w3.org/Graphics/SVG/1.1/DTD/svg11.dtd">
<svg xmlns="http://www.w3.org/2000/svg" version="1.1" viewBox="0.00 0.00 66.00 88.00">
<g stroke-width="2.00" fill="none" stroke-linecap="butt">
<path stroke="#353846" vector-effect="non-scaling-stroke" d="
  M 33.42 86.59
  C 34.19 86.59 33.55 86.65 33.78 86.44
  C 47.02 74.25 61.61 56.03 63.87 38.06
  Q 66.49 17.39 48.75 6.53
  Q 42.14 2.49 33.51 2.48
  Q 24.88 2.47 18.26 6.50
  Q 0.50 17.32 3.08 38.00
  C 5.30 55.97 19.85 74.22 33.07 86.44
  C 33.29 86.65 32.65 86.58 33.42 86.59"
/>
<path stroke="#a3a4ae" vector-effect="non-scaling-stroke" d="
  M 18.03 28.85
  L 19.07 31.86
  A 1.65 1.65 0.0 0 1 19.00 33.13
  Q 18.29 34.59 18.19 35.76
  A 0.69 0.68 78.9 0 1 17.85 36.28
  L 15.34 37.73
  A 0.35 0.35 0.0 0 0 15.38 38.36
  L 18.02 39.50
  A 1.06 1.04 89.1 0 1 18.57 40.04
  L 19.90 43.14
  A 1.07 1.05 77.2 0 0 20.90 43.78
  L 22.63 43.74
  A 0.37 0.36 -18.5 0 0 22.92 43.16
  C 20.47 39.82 18.72 32.26 25.01 31.57
  Q 30.68 30.95 35.06 35.83
  A 2.19 2.19 0.0 0 1 35.17 38.60
  L 35.12 38.67
  A 1.63 1.63 0.0 0 1 32.61 38.86
  L 29.82 35.98
  A 0.65 0.65 0.0 0 0 28.70 36.45
  C 28.91 42.33 37.56 44.12 38.13 37.77
  C 38.33 35.65 36.57 33.62 34.84 31.99
  A 0.51 0.51 0.0 0 1 34.92 31.19
  C 39.31 28.39 43.97 29.75 44.92 35.02
  Q 45.67 39.20 42.90 43.25
  A 0.49 0.49 0.0 0 0 43.31 44.02
  L 44.70 44.01
  A 1.36 1.35 -76.2 0 0 45.90 43.28
  Q 47.46 40.27 47.60 37.29
  A 0.79 0.78 -21.7 0 1 47.83 36.76
  L 50.71 33.89
  A 0.23 0.23 0.0 0 0 50.60 33.50
  L 47.29 32.73
  A 1.13 1.13 0.0 0 1 46.48 32.04
  Q 45.41 29.37 42.53 27.93
  A 1.23 1.21 -82.3 0 1 41.87 27.05
  L 41.43 24.64
  A 0.38 0.37 -30.4 0 0 40.77 24.47
  L 38.95 26.76
  A 1.35 1.30 13.2 0 1 38.13 27.25
  Q 35.07 27.81 32.69 29.92
  A 1.05 1.04 28.6 0 1 31.80 30.18
  Q 30.54 29.96 29.49 29.38
  A 1.08 1.04 5.9 0 1 29.00 28.80
  L 27.99 25.99
  A 0.40 0.40 0.0 0 0 27.23 26.01
  Q 26.08 29.78 21.93 29.65
  C 20.80 29.61 19.41 28.75 18.38 28.47
  A 0.29 0.29 0.0 0 0 18.03 28.85"
/>
</g>
<path fill="#232630" d="
  M 33.81 88.00
  L 33.04 88.00
  C 22.17 78.19 12.05 65.64 5.74 51.77
  Q 2.19 43.96 1.59 34.97
  C 0.53 18.93 11.30 5.51 26.72 2.05
  C 41.46 -1.26 56.66 6.37 62.97 20.58
  C 66.64 28.86 65.93 38.66 63.04 47.01
  C 57.65 62.62 45.95 76.92 33.81 88.00
  Z
  M 33.42 86.59
  C 34.19 86.59 33.55 86.65 33.78 86.44
  C 47.02 74.25 61.61 56.03 63.87 38.06
  Q 66.49 17.39 48.75 6.53
  Q 42.14 2.49 33.51 2.48
  Q 24.88 2.47 18.26 6.50
  Q 0.50 17.32 3.08 38.00
  C 5.30 55.97 19.85 74.22 33.07 86.44
  C 33.29 86.65 32.65 86.58 33.42 86.59
  Z"
/>
<path fill="#46495c" d="
  M 33.51 2.48
  Q 42.14 2.49 48.75 6.53
  Q 66.49 17.39 63.87 38.06
  C 61.61 56.03 47.02 74.25 33.78 86.44
  C 33.55 86.65 34.19 86.59 33.42 86.59
  C 32.65 86.58 33.29 86.65 33.07 86.44
  C 19.85 74.22 5.30 55.97 3.08 38.00
  Q 0.50 17.32 18.26 6.50
  Q 24.88 2.47 33.51 2.48
  Z
  M 18.03 28.85
  L 19.07 31.86
  A 1.65 1.65 0.0 0 1 19.00 33.13
  Q 18.29 34.59 18.19 35.76
  A 0.69 0.68 78.9 0 1 17.85 36.28
  L 15.34 37.73
  A 0.35 0.35 0.0 0 0 15.38 38.36
  L 18.02 39.50
  A 1.06 1.04 89.1 0 1 18.57 40.04
  L 19.90 43.14
  A 1.07 1.05 77.2 0 0 20.90 43.78
  L 22.63 43.74
  A 0.37 0.36 -18.5 0 0 22.92 43.16
  C 20.47 39.82 18.72 32.26 25.01 31.57
  Q 30.68 30.95 35.06 35.83
  A 2.19 2.19 0.0 0 1 35.17 38.60
  L 35.12 38.67
  A 1.63 1.63 0.0 0 1 32.61 38.86
  L 29.82 35.98
  A 0.65 0.65 0.0 0 0 28.70 36.45
  C 28.91 42.33 37.56 44.12 38.13 37.77
  C 38.33 35.65 36.57 33.62 34.84 31.99
  A 0.51 0.51 0.0 0 1 34.92 31.19
  C 39.31 28.39 43.97 29.75 44.92 35.02
  Q 45.67 39.20 42.90 43.25
  A 0.49 0.49 0.0 0 0 43.31 44.02
  L 44.70 44.01
  A 1.36 1.35 -76.2 0 0 45.90 43.28
  Q 47.46 40.27 47.60 37.29
  A 0.79 0.78 -21.7 0 1 47.83 36.76
  L 50.71 33.89
  A 0.23 0.23 0.0 0 0 50.60 33.50
  L 47.29 32.73
  A 1.13 1.13 0.0 0 1 46.48 32.04
  Q 45.41 29.37 42.53 27.93
  A 1.23 1.21 -82.3 0 1 41.87 27.05
  L 41.43 24.64
  A 0.38 0.37 -30.4 0 0 40.77 24.47
  L 38.95 26.76
  A 1.35 1.30 13.2 0 1 38.13 27.25
  Q 35.07 27.81 32.69 29.92
  A 1.05 1.04 28.6 0 1 31.80 30.18
  Q 30.54 29.96 29.49 29.38
  A 1.08 1.04 5.9 0 1 29.00 28.80
  L 27.99 25.99
  A 0.40 0.40 0.0 0 0 27.23 26.01
  Q 26.08 29.78 21.93 29.65
  C 20.80 29.61 19.41 28.75 18.38 28.47
  A 0.29 0.29 0.0 0 0 18.03 28.85
  Z"
/>
<path fill="#ffffff" d="
  M 18.38 28.47
  C 19.41 28.75 20.80 29.61 21.93 29.65
  Q 26.08 29.78 27.23 26.01
  A 0.40 0.40 0.0 0 1 27.99 25.99
  L 29.00 28.80
  A 1.08 1.04 5.9 0 0 29.49 29.38
  Q 30.54 29.96 31.80 30.18
  A 1.05 1.04 28.6 0 0 32.69 29.92
  Q 35.07 27.81 38.13 27.25
  A 1.35 1.30 13.2 0 0 38.95 26.76
  L 40.77 24.47
  A 0.38 0.37 -30.4 0 1 41.43 24.64
  L 41.87 27.05
  A 1.23 1.21 -82.3 0 0 42.53 27.93
  Q 45.41 29.37 46.48 32.04
  A 1.13 1.13 0.0 0 0 47.29 32.73
  L 50.60 33.50
  A 0.23 0.23 0.0 0 1 50.71 33.89
  L 47.83 36.76
  A 0.79 0.78 -21.7 0 0 47.60 37.29
  Q 47.46 40.27 45.90 43.28
  A 1.36 1.35 -76.2 0 1 44.70 44.01
  L 43.31 44.02
  A 0.49 0.49 0.0 0 1 42.90 43.25
  Q 45.67 39.20 44.92 35.02
  C 43.97 29.75 39.31 28.39 34.92 31.19
  A 0.51 0.51 0.0 0 0 34.84 31.99
  C 36.57 33.62 38.33 35.65 38.13 37.77
  C 37.56 44.12 28.91 42.33 28.70 36.45
  A 0.65 0.65 0.0 0 1 29.82 35.98
  L 32.61 38.86
  A 1.63 1.63 0.0 0 0 35.12 38.67
  L 35.17 38.60
  A 2.19 2.19 0.0 0 0 35.06 35.83
  Q 30.68 30.95 25.01 31.57
  C 18.72 32.26 20.47 39.82 22.92 43.16
  A 0.37 0.36 -18.5 0 1 22.63 43.74
  L 20.90 43.78
  A 1.07 1.05 77.2 0 1 19.90 43.14
  L 18.57 40.04
  A 1.06 1.04 89.1 0 0 18.02 39.50
  L 15.38 38.36
  A 0.35 0.35 0.0 0 1 15.34 37.73
  L 17.85 36.28
  A 0.69 0.68 78.9 0 0 18.19 35.76
  Q 18.29 34.59 19.00 33.13
  A 1.65 1.65 0.0 0 0 19.07 31.86
  L 18.03 28.85
  A 0.29 0.29 0.0 0 1 18.38 28.47
  Z"
/>
</svg>
