<?xml version="1.0" encoding="UTF-8" standalone="no"?>
<!DOCTYPE svg PUBLIC "-//W3C//DTD SVG 1.1//EN" "http://www.w3.org/Graphics/SVG/1.1/DTD/svg11.dtd">
<svg xmlns="http://www.w3.org/2000/svg" version="1.1" viewBox="0.00 0.00 66.00 88.00">
<g stroke-width="2.00" fill="none" stroke-linecap="butt">
<path stroke="#353846" vector-effect="non-scaling-stroke" d="
  M 33.42 86.58
  C 34.21 86.58 33.54 86.64 33.78 86.43
  Q 47.56 73.77 56.68 58.16
  C 65.56 42.97 68.57 24.17 54.77 10.98
  C 49.08 5.54 41.57 2.56 33.53 2.55
  C 25.49 2.54 17.97 5.50 12.27 10.92
  C -1.57 24.08 1.39 42.88 10.23 58.10
  Q 19.30 73.73 33.05 86.43
  C 33.29 86.64 32.62 86.58 33.42 86.58"
/>
<path stroke="#a3a4ae" vector-effect="non-scaling-stroke" d="
  M 28.67 15.85
  A 0.58 0.58 0.0 0 0 28.35 15.93
  L 25.14 17.78
  A 0.58 0.58 0.0 0 0 24.93 18.57
  L 29.12 25.83
  A 0.58 0.58 0.0 0 0 29.91 26.04
  L 37.46 21.68
  A 0.58 0.58 0.0 0 0 37.73 21.03
  L 36.52 16.66
  A 0.58 0.58 0.0 0 0 35.99 16.24
  L 28.67 15.85"
/>
<path stroke="#a3a4ae" vector-effect="non-scaling-stroke" d="
  M 46.51 26.40
  A 0.64 0.64 0.0 0 0 46.74 25.53
  L 41.81 16.98
  A 0.89 0.89 0.0 0 0 40.18 17.66
  L 43.00 27.85
  A 0.40 0.39 67.0 0 0 43.58 28.09
  L 46.51 26.40"
/>
<path stroke="#a3a4ae" vector-effect="non-scaling-stroke" d="
  M 19.36 31.16
  A 0.54 0.53 -50.1 0 0 19.40 31.62
  L 30.24 50.40
  A 0.19 0.19 0.0 0 0 30.59 50.28
  L 27.94 30.38
  A 4.41 4.37 -65.6 0 0 27.26 28.54
  L 22.89 21.89
  A 0.07 0.07 0.0 0 0 22.76 21.91
  L 19.36 31.16"
/>
<path stroke="#a3a4ae" vector-effect="non-scaling-stroke" d="
  M 34.33 50.65
  L 40.26 31.53
  A 2.29 2.27 46.2 0 0 40.28 30.24
  L 39.03 25.69
  A 0.79 0.79 0.0 0 0 37.88 25.22
  L 32.33 28.42
  A 2.22 2.21 71.2 0 0 31.25 30.62
  L 33.91 50.62
  A 0.22 0.21 -40.5 0 0 34.33 50.65"
/>
<path stroke="#a3a4ae" vector-effect="non-scaling-stroke" d="
  M 37.72 51.78
  L 46.59 41.81
  A 1.74 1.70 67.7 0 0 47.02 40.75
  L 47.57 30.34
  A 0.41 0.40 -13.7 0 0 46.96 29.97
  L 43.92 31.73
  A 1.09 1.07 84.5 0 0 43.41 32.36
  L 37.44 51.61
  A 0.17 0.16 75.4 0 0 37.72 51.78"
/>
</g>
<path fill="#232630" d="
  M 33.79 88.00
  L 33.03 88.00
  C 21.86 77.84 12.09 65.68 5.74 51.77
  Q 2.83 45.39 1.95 38.76
  Q -0.12 23.24 8.72 12.91
  Q 17.96 2.11 32.02 1.37
  C 44.78 0.69 57.24 8.04 62.60 19.67
  C 73.74 43.81 50.37 72.97 33.79 88.00
  Z
  M 33.42 86.58
  C 34.21 86.58 33.54 86.64 33.78 86.43
  Q 47.56 73.77 56.68 58.16
  C 65.56 42.97 68.57 24.17 54.77 10.98
  C 49.08 5.54 41.57 2.56 33.53 2.55
  C 25.49 2.54 17.97 5.50 12.27 10.92
  C -1.57 24.08 1.39 42.88 10.23 58.10
  Q 19.30 73.73 33.05 86.43
  C 33.29 86.64 32.62 86.58 33.42 86.58
  Z"
/>
<path fill="#46495c" d="
  M 33.53 2.55
  C 41.57 2.56 49.08 5.54 54.77 10.98
  C 68.57 24.17 65.56 42.97 56.68 58.16
  Q 47.56 73.77 33.78 86.43
  C 33.54 86.64 34.21 86.58 33.42 86.58
  C 32.62 86.58 33.29 86.64 33.05 86.43
  Q 19.30 73.73 10.23 58.10
  C 1.39 42.88 -1.57 24.08 12.27 10.92
  C 17.97 5.50 25.49 2.54 33.53 2.55
  Z
  M 28.67 15.85
  A 0.58 0.58 0.0 0 0 28.35 15.93
  L 25.14 17.78
  A 0.58 0.58 0.0 0 0 24.93 18.57
  L 29.12 25.83
  A 0.58 0.58 0.0 0 0 29.91 26.04
  L 37.46 21.68
  A 0.58 0.58 0.0 0 0 37.73 21.03
  L 36.52 16.66
  A 0.58 0.58 0.0 0 0 35.99 16.24
  L 28.67 15.85
  Z
  M 46.51 26.40
  A 0.64 0.64 0.0 0 0 46.74 25.53
  L 41.81 16.98
  A 0.89 0.89 0.0 0 0 40.18 17.66
  L 43.00 27.85
  A 0.40 0.39 67.0 0 0 43.58 28.09
  L 46.51 26.40
  Z
  M 19.36 31.16
  A 0.54 0.53 -50.1 0 0 19.40 31.62
  L 30.24 50.40
  A 0.19 0.19 0.0 0 0 30.59 50.28
  L 27.94 30.38
  A 4.41 4.37 -65.6 0 0 27.26 28.54
  L 22.89 21.89
  A 0.07 0.07 0.0 0 0 22.76 21.91
  L 19.36 31.16
  Z
  M 34.33 50.65
  L 40.26 31.53
  A 2.29 2.27 46.2 0 0 40.28 30.24
  L 39.03 25.69
  A 0.79 0.79 0.0 0 0 37.88 25.22
  L 32.33 28.42
  A 2.22 2.21 71.2 0 0 31.25 30.62
  L 33.91 50.62
  A 0.22 0.21 -40.5 0 0 34.33 50.65
  Z
  M 37.72 51.78
  L 46.59 41.81
  A 1.74 1.70 67.7 0 0 47.02 40.75
  L 47.57 30.34
  A 0.41 0.40 -13.7 0 0 46.96 29.97
  L 43.92 31.73
  A 1.09 1.07 84.5 0 0 43.41 32.36
  L 37.44 51.61
  A 0.17 0.16 75.4 0 0 37.72 51.78
  Z"
/>
<path fill="#ffffff" d="
  M 28.67 15.85
  L 35.99 16.24
  A 0.58 0.58 0.0 0 1 36.52 16.66
  L 37.73 21.03
  A 0.58 0.58 0.0 0 1 37.46 21.68
  L 29.91 26.04
  A 0.58 0.58 0.0 0 1 29.12 25.83
  L 24.93 18.57
  A 0.58 0.58 0.0 0 1 25.14 17.78
  L 28.35 15.93
  A 0.58 0.58 0.0 0 1 28.67 15.85
  Z"
/>
<path fill="#ffffff" d="
  M 43.00 27.85
  L 40.18 17.66
  A 0.89 0.89 0.0 0 1 41.81 16.98
  L 46.74 25.53
  A 0.64 0.64 0.0 0 1 46.51 26.40
  L 43.58 28.09
  A 0.40 0.39 67.0 0 1 43.00 27.85
  Z"
/>
<path fill="#ffffff" d="
  M 22.89 21.89
  L 27.26 28.54
  A 4.41 4.37 -65.6 0 1 27.94 30.38
  L 30.59 50.28
  A 0.19 0.19 0.0 0 1 30.24 50.40
  L 19.40 31.62
  A 0.54 0.53 -50.1 0 1 19.36 31.16
  L 22.76 21.91
  A 0.07 0.07 0.0 0 1 22.89 21.89
  Z"
/>
<path fill="#ffffff" d="
  M 34.33 50.65
  A 0.22 0.21 -40.5 0 1 33.91 50.62
  L 31.25 30.62
  A 2.22 2.21 71.2 0 1 32.33 28.42
  L 37.88 25.22
  A 0.79 0.79 0.0 0 1 39.03 25.69
  L 40.28 30.24
  A 2.29 2.27 46.2 0 1 40.26 31.53
  L 34.33 50.65
  Z"
/>
<path fill="#ffffff" d="
  M 37.72 51.78
  A 0.17 0.16 75.4 0 1 37.44 51.61
  L 43.41 32.36
  A 1.09 1.07 84.5 0 1 43.92 31.73
  L 46.96 29.97
  A 0.41 0.40 -13.7 0 1 47.57 30.34
  L 47.02 40.75
  A 1.74 1.70 67.7 0 1 46.59 41.81
  L 37.72 51.78
  Z"
/>
</svg>
