<?xml version="1.0" encoding="UTF-8" standalone="no"?>
<!DOCTYPE svg PUBLIC "-//W3C//DTD SVG 1.1//EN" "http://www.w3.org/Graphics/SVG/1.1/DTD/svg11.dtd">
<svg xmlns="http://www.w3.org/2000/svg" version="1.1" viewBox="0.00 0.00 66.00 88.00">
<g stroke-width="2.00" fill="none" stroke-linecap="butt">
<path stroke="#324277" vector-effect="non-scaling-stroke" d="
  M 33.40 86.69
  Q 33.51 86.69 33.61 86.67
  Q 33.63 86.67 33.76 86.55
  Q 47.68 73.44 56.49 58.51
  C 63.88 45.97 68.28 28.96 59.16 16.07
  C 53.20 7.65 44.09 2.50 33.52 2.49
  C 22.96 2.47 13.83 7.60 7.85 16.00
  C -1.31 28.86 3.04 45.88 10.39 58.44
  Q 19.16 73.40 33.04 86.55
  Q 33.17 86.67 33.19 86.67
  Q 33.30 86.69 33.40 86.69"
/>
<path stroke="#a2abce" vector-effect="non-scaling-stroke" d="
  M 16.67 18.29
  L 16.62 28.36
  A 1.43 1.41 22.7 0 0 17.04 29.37
  L 18.66 30.98
  A 0.64 0.63 44.1 0 0 19.57 30.97
  L 21.36 29.09
  A 0.56 0.56 0.0 0 0 21.39 28.35
  L 20.77 27.59
  A 1.57 1.54 -64.9 0 1 20.43 26.61
  L 20.40 21.97
  A 0.59 0.59 0.0 0 1 21.00 21.38
  L 25.85 21.43
  A 1.23 1.21 -21.9 0 1 26.72 21.80
  L 35.63 30.80
  A 0.96 0.95 44.8 0 0 36.99 30.80
  L 38.39 29.38
  A 0.96 0.96 0.0 0 0 38.39 28.03
  L 28.46 18.13
  A 1.46 1.45 67.8 0 0 27.46 17.70
  L 17.38 17.58
  A 0.72 0.71 -89.2 0 0 16.67 18.29"
/>
<path stroke="#a2abce" vector-effect="non-scaling-stroke" d="
  M 49.36 17.79
  L 39.31 17.66
  A 1.42 1.41 -66.8 0 0 38.30 18.06
  L 36.68 19.66
  A 0.64 0.63 -45.4 0 0 36.68 20.58
  L 38.54 22.38
  A 0.56 0.56 0.0 0 0 39.28 22.41
  L 40.04 21.81
  A 1.57 1.54 25.6 0 1 41.03 21.47
  L 45.66 21.48
  A 0.59 0.59 0.0 0 1 46.24 22.08
  L 46.14 26.92
  A 1.22 1.21 68.6 0 1 45.77 27.79
  L 36.71 36.60
  A 0.95 0.95 0.0 0 0 36.70 37.96
  L 38.11 39.37
  A 0.95 0.95 0.0 0 0 39.46 39.38
  L 49.42 29.56
  A 1.46 1.44 -21.7 0 0 49.86 28.56
  L 50.06 18.51
  A 0.71 0.70 1.3 0 0 49.36 17.79"
/>
<path stroke="#a2abce" vector-effect="non-scaling-stroke" d="
  M 17.38 50.97
  L 27.44 50.96
  A 1.42 1.41 -67.6 0 0 28.44 50.54
  L 30.04 48.92
  A 0.64 0.63 -46.2 0 0 30.02 48.01
  L 28.14 46.23
  A 0.56 0.56 0.0 0 0 27.40 46.20
  L 26.65 46.82
  A 1.57 1.54 24.8 0 1 25.67 47.17
  L 21.03 47.22
  A 0.59 0.59 0.0 0 1 20.45 46.63
  L 20.48 41.79
  A 1.22 1.21 67.8 0 1 20.84 40.92
  L 29.77 31.98
  A 0.95 0.95 0.0 0 0 29.77 30.63
  L 28.34 29.23
  A 0.95 0.95 0.0 0 0 26.99 29.24
  L 17.16 39.20
  A 1.46 1.44 -22.5 0 0 16.74 40.20
  L 16.68 50.26
  A 0.71 0.70 0.6 0 0 17.38 50.97"
/>
<path stroke="#a2abce" vector-effect="non-scaling-stroke" d="
  M 38.38 50.78
  A 0.72 0.72 0.0 0 0 38.89 50.99
  L 49.29 50.99
  A 0.72 0.72 0.0 0 0 50.01 50.27
  L 50.01 39.89
  A 0.72 0.72 0.0 0 0 49.80 39.38
  L 48.06 37.64
  A 0.72 0.72 0.0 0 0 47.04 37.64
  L 45.30 39.38
  A 0.72 0.72 0.0 0 0 45.30 40.40
  L 46.01 41.12
  A 0.72 0.72 0.0 0 1 46.22 41.63
  L 46.22 46.48
  A 0.72 0.72 0.0 0 1 45.50 47.20
  L 40.61 47.20
  A 0.72 0.72 0.0 0 1 40.10 46.99
  L 30.74 37.62
  A 0.72 0.72 0.0 0 0 29.72 37.62
  L 27.98 39.36
  A 0.72 0.72 0.0 0 0 27.98 40.38
  L 38.38 50.78"
/>
</g>
<path fill="#202d51" d="
  M 33.79 88.00
  L 33.04 88.00
  C 22.11 78.15 12.07 65.65 5.83 51.96
  Q 2.17 43.93 1.59 35.02
  C 0.01 10.67 25.12 -5.68 46.98 4.31
  C 58.78 9.70 66.00 21.29 65.42 34.31
  Q 65.08 42.05 62.33 49.05
  C 56.50 63.88 45.53 77.35 33.79 88.00
  Z
  M 33.40 86.69
  Q 33.51 86.69 33.61 86.67
  Q 33.63 86.67 33.76 86.55
  Q 47.68 73.44 56.49 58.51
  C 63.88 45.97 68.28 28.96 59.16 16.07
  C 53.20 7.65 44.09 2.50 33.52 2.49
  C 22.96 2.47 13.83 7.60 7.85 16.00
  C -1.31 28.86 3.04 45.88 10.39 58.44
  Q 19.16 73.40 33.04 86.55
  Q 33.17 86.67 33.19 86.67
  Q 33.30 86.69 33.40 86.69
  Z"
/>
<path fill="#44569c" d="
  M 33.52 2.49
  C 44.09 2.50 53.20 7.65 59.16 16.07
  C 68.28 28.96 63.88 45.97 56.49 58.51
  Q 47.68 73.44 33.76 86.55
  Q 33.63 86.67 33.61 86.67
  Q 33.51 86.69 33.40 86.69
  Q 33.30 86.69 33.19 86.67
  Q 33.17 86.67 33.04 86.55
  Q 19.16 73.40 10.39 58.44
  C 3.04 45.88 -1.31 28.86 7.85 16.00
  C 13.83 7.60 22.96 2.47 33.52 2.49
  Z
  M 16.67 18.29
  L 16.62 28.36
  A 1.43 1.41 22.7 0 0 17.04 29.37
  L 18.66 30.98
  A 0.64 0.63 44.1 0 0 19.57 30.97
  L 21.36 29.09
  A 0.56 0.56 0.0 0 0 21.39 28.35
  L 20.77 27.59
  A 1.57 1.54 -64.9 0 1 20.43 26.61
  L 20.40 21.97
  A 0.59 0.59 0.0 0 1 21.00 21.38
  L 25.85 21.43
  A 1.23 1.21 -21.9 0 1 26.72 21.80
  L 35.63 30.80
  A 0.96 0.95 44.8 0 0 36.99 30.80
  L 38.39 29.38
  A 0.96 0.96 0.0 0 0 38.39 28.03
  L 28.46 18.13
  A 1.46 1.45 67.8 0 0 27.46 17.70
  L 17.38 17.58
  A 0.72 0.71 -89.2 0 0 16.67 18.29
  Z
  M 49.36 17.79
  L 39.31 17.66
  A 1.42 1.41 -66.8 0 0 38.30 18.06
  L 36.68 19.66
  A 0.64 0.63 -45.4 0 0 36.68 20.58
  L 38.54 22.38
  A 0.56 0.56 0.0 0 0 39.28 22.41
  L 40.04 21.81
  A 1.57 1.54 25.6 0 1 41.03 21.47
  L 45.66 21.48
  A 0.59 0.59 0.0 0 1 46.24 22.08
  L 46.14 26.92
  A 1.22 1.21 68.6 0 1 45.77 27.79
  L 36.71 36.60
  A 0.95 0.95 0.0 0 0 36.70 37.96
  L 38.11 39.37
  A 0.95 0.95 0.0 0 0 39.46 39.38
  L 49.42 29.56
  A 1.46 1.44 -21.7 0 0 49.86 28.56
  L 50.06 18.51
  A 0.71 0.70 1.3 0 0 49.36 17.79
  Z
  M 17.38 50.97
  L 27.44 50.96
  A 1.42 1.41 -67.6 0 0 28.44 50.54
  L 30.04 48.92
  A 0.64 0.63 -46.2 0 0 30.02 48.01
  L 28.14 46.23
  A 0.56 0.56 0.0 0 0 27.40 46.20
  L 26.65 46.82
  A 1.57 1.54 24.8 0 1 25.67 47.17
  L 21.03 47.22
  A 0.59 0.59 0.0 0 1 20.45 46.63
  L 20.48 41.79
  A 1.22 1.21 67.8 0 1 20.84 40.92
  L 29.77 31.98
  A 0.95 0.95 0.0 0 0 29.77 30.63
  L 28.34 29.23
  A 0.95 0.95 0.0 0 0 26.99 29.24
  L 17.16 39.20
  A 1.46 1.44 -22.5 0 0 16.74 40.20
  L 16.68 50.26
  A 0.71 0.70 0.6 0 0 17.38 50.97
  Z
  M 38.38 50.78
  A 0.72 0.72 0.0 0 0 38.89 50.99
  L 49.29 50.99
  A 0.72 0.72 0.0 0 0 50.01 50.27
  L 50.01 39.89
  A 0.72 0.72 0.0 0 0 49.80 39.38
  L 48.06 37.64
  A 0.72 0.72 0.0 0 0 47.04 37.64
  L 45.30 39.38
  A 0.72 0.72 0.0 0 0 45.30 40.40
  L 46.01 41.12
  A 0.72 0.72 0.0 0 1 46.22 41.63
  L 46.22 46.48
  A 0.72 0.72 0.0 0 1 45.50 47.20
  L 40.61 47.20
  A 0.72 0.72 0.0 0 1 40.10 46.99
  L 30.74 37.62
  A 0.72 0.72 0.0 0 0 29.72 37.62
  L 27.98 39.36
  A 0.72 0.72 0.0 0 0 27.98 40.38
  L 38.38 50.78
  Z"
/>
<path fill="#ffffff" d="
  M 16.67 18.29
  A 0.72 0.71 -89.2 0 1 17.38 17.58
  L 27.46 17.70
  A 1.46 1.45 67.8 0 1 28.46 18.13
  L 38.39 28.03
  A 0.96 0.96 0.0 0 1 38.39 29.38
  L 36.99 30.80
  A 0.96 0.95 44.8 0 1 35.63 30.80
  L 26.72 21.80
  A 1.23 1.21 -21.9 0 0 25.85 21.43
  L 21.00 21.38
  A 0.59 0.59 0.0 0 0 20.40 21.97
  L 20.43 26.61
  A 1.57 1.54 -64.9 0 0 20.77 27.59
  L 21.39 28.35
  A 0.56 0.56 0.0 0 1 21.36 29.09
  L 19.57 30.97
  A 0.64 0.63 44.1 0 1 18.66 30.98
  L 17.04 29.37
  A 1.43 1.41 22.7 0 1 16.62 28.36
  L 16.67 18.29
  Z"
/>
<path fill="#ffffff" d="
  M 49.36 17.79
  A 0.71 0.70 1.3 0 1 50.06 18.51
  L 49.86 28.56
  A 1.46 1.44 -21.7 0 1 49.42 29.56
  L 39.46 39.38
  A 0.95 0.95 0.0 0 1 38.11 39.37
  L 36.70 37.96
  A 0.95 0.95 0.0 0 1 36.71 36.60
  L 45.77 27.79
  A 1.22 1.21 68.6 0 0 46.14 26.92
  L 46.24 22.08
  A 0.59 0.59 0.0 0 0 45.66 21.48
  L 41.03 21.47
  A 1.57 1.54 25.6 0 0 40.04 21.81
  L 39.28 22.41
  A 0.56 0.56 0.0 0 1 38.54 22.38
  L 36.68 20.58
  A 0.64 0.63 -45.4 0 1 36.68 19.66
  L 38.30 18.06
  A 1.42 1.41 -66.8 0 1 39.31 17.66
  L 49.36 17.79
  Z"
/>
<path fill="#ffffff" d="
  M 17.38 50.97
  A 0.71 0.70 0.6 0 1 16.68 50.26
  L 16.74 40.20
  A 1.46 1.44 -22.5 0 1 17.16 39.20
  L 26.99 29.24
  A 0.95 0.95 0.0 0 1 28.34 29.23
  L 29.77 30.63
  A 0.95 0.95 0.0 0 1 29.77 31.98
  L 20.84 40.92
  A 1.22 1.21 67.8 0 0 20.48 41.79
  L 20.45 46.63
  A 0.59 0.59 0.0 0 0 21.03 47.22
  L 25.67 47.17
  A 1.57 1.54 24.8 0 0 26.65 46.82
  L 27.40 46.20
  A 0.56 0.56 0.0 0 1 28.14 46.23
  L 30.02 48.01
  A 0.64 0.63 -46.2 0 1 30.04 48.92
  L 28.44 50.54
  A 1.42 1.41 -67.6 0 1 27.44 50.96
  L 17.38 50.97
  Z"
/>
<path fill="#ffffff" d="
  M 38.38 50.78
  L 27.98 40.38
  A 0.72 0.72 0.0 0 1 27.98 39.36
  L 29.72 37.62
  A 0.72 0.72 0.0 0 1 30.74 37.62
  L 40.10 46.99
  A 0.72 0.72 0.0 0 0 40.61 47.20
  L 45.50 47.20
  A 0.72 0.72 0.0 0 0 46.22 46.48
  L 46.22 41.63
  A 0.72 0.72 0.0 0 0 46.01 41.12
  L 45.30 40.40
  A 0.72 0.72 0.0 0 1 45.30 39.38
  L 47.04 37.64
  A 0.72 0.72 0.0 0 1 48.06 37.64
  L 49.80 39.38
  A 0.72 0.72 0.0 0 1 50.01 39.89
  L 50.01 50.27
  A 0.72 0.72 0.0 0 1 49.29 50.99
  L 38.89 50.99
  A 0.72 0.72 0.0 0 1 38.38 50.78
  Z"
/>
</svg>
