<?xml version="1.0" encoding="UTF-8" standalone="no"?>
<!DOCTYPE svg PUBLIC "-//W3C//DTD SVG 1.1//EN" "http://www.w3.org/Graphics/SVG/1.1/DTD/svg11.dtd">
<svg xmlns="http://www.w3.org/2000/svg" version="1.1" viewBox="0.00 0.00 66.00 88.00">
<g stroke-width="2.00" fill="none" stroke-linecap="butt">
<path stroke="#2b5d6e" vector-effect="non-scaling-stroke" d="
  M 33.41 86.71
  Q 33.51 86.71 33.62 86.69
  Q 33.70 86.67 33.79 86.59
  Q 47.52 73.61 56.33 58.81
  C 63.93 46.04 68.35 28.77 58.85 15.65
  C 52.92 7.45 43.91 2.52 33.52 2.50
  C 23.13 2.49 14.11 7.40 8.15 15.58
  C -1.38 28.68 3.00 45.96 10.56 58.75
  Q 19.33 73.57 33.03 86.59
  Q 33.12 86.67 33.20 86.69
  Q 33.31 86.71 33.41 86.71"
/>
<path stroke="#9dbdc8" vector-effect="non-scaling-stroke" d="
  M 27.4817 21.8164
  A 0.56 0.56 0.0 0 0 26.8500 21.3387
  L 19.2033 22.3997
  A 0.56 0.56 0.0 0 0 18.7256 23.0314
  L 18.8383 23.8436
  A 0.56 0.56 0.0 0 0 19.4700 24.3213
  L 27.1167 23.2603
  A 0.56 0.56 0.0 0 0 27.5944 22.6286
  L 27.4817 21.8164"
/>
<path stroke="#9dbdc8" vector-effect="non-scaling-stroke" d="
  M 47.2761 22.9276
  A 0.47 0.47 0.0 0 0 46.8724 22.3995
  L 39.0616 21.3573
  A 0.47 0.47 0.0 0 0 38.5335 21.7611
  L 38.4039 22.7324
  A 0.47 0.47 0.0 0 0 38.8076 23.2605
  L 46.6184 24.3027
  A 0.47 0.47 0.0 0 0 47.1465 23.8989
  L 47.2761 22.9276"
/>
<path stroke="#9dbdc8" vector-effect="non-scaling-stroke" d="
  M 32.99 27.07
  Q 33.40 27.07 33.53 27.20
  Q 35.68 29.33 37.17 30.83
  A 1.40 1.37 67.0 0 0 38.15 31.24
  L 48.42 31.24
  A 0.26 0.25 81.4 0 0 48.66 30.91
  L 47.57 27.49
  A 0.56 0.54 -3.5 0 0 47.14 27.12
  Q 40.23 25.98 32.99 26.04
  Q 25.74 25.99 18.83 27.13
  A 0.56 0.54 3.5 0 0 18.40 27.50
  L 17.31 30.92
  A 0.26 0.25 -81.5 0 0 17.55 31.25
  L 27.82 31.24
  A 1.40 1.37 -67.0 0 0 28.80 30.83
  Q 30.29 29.33 32.44 27.20
  Q 32.57 27.07 32.99 27.07"
/>
<path stroke="#9dbdc8" vector-effect="non-scaling-stroke" d="
  M 34.6431 33.2372
  A 0.75 0.75 0.0 0 0 34.6172 32.1768
  L 33.4730 31.0872
  A 0.75 0.75 0.0 0 0 32.4127 31.1131
  L 31.3369 32.2428
  A 0.75 0.75 0.0 0 0 31.3628 33.3032
  L 32.5070 34.3928
  A 0.75 0.75 0.0 0 0 33.5673 34.3669
  L 34.6431 33.2372"
/>
<path stroke="#9dbdc8" vector-effect="non-scaling-stroke" d="
  M 33.00 40.03
  Q 41.87 40.03 42.63 40.07
  A 0.66 0.66 0.0 0 1 43.26 40.73
  L 43.26 46.98
  A 0.55 0.54 0.0 0 0 43.81 47.52
  L 50.29 47.50
  A 1.13 1.13 0.0 0 0 50.97 45.47
  Q 50.91 45.42 50.51 45.30
  A 1.01 1.01 0.0 0 1 49.81 44.55
  Q 48.57 39.14 49.29 34.59
  A 0.52 0.52 0.0 0 0 48.78 33.99
  L 38.27 33.99
  A 1.12 1.10 20.6 0 0 37.44 34.36
  Q 36.65 35.26 33.44 38.46
  Q 33.31 38.59 33.00 38.59
  Q 32.70 38.59 32.56 38.46
  Q 29.36 35.26 28.57 34.36
  A 1.12 1.10 -20.6 0 0 27.74 33.99
  L 17.23 33.98
  A 0.52 0.52 0.0 0 0 16.72 34.57
  Q 17.44 39.13 16.19 44.53
  A 1.01 1.01 0.0 0 1 15.49 45.28
  Q 15.09 45.40 15.03 45.45
  A 1.13 1.13 0.0 0 0 15.71 47.48
  L 22.19 47.51
  A 0.55 0.54 0.1 0 0 22.74 46.97
  L 22.75 40.72
  A 0.66 0.66 0.0 0 1 23.38 40.06
  Q 24.14 40.02 33.00 40.03"
/>
<path stroke="#9dbdc8" vector-effect="non-scaling-stroke" d="
  M 40.43 43.07
  A 0.40 0.40 0.0 0 0 40.03 42.67
  L 25.95 42.67
  A 0.40 0.40 0.0 0 0 25.55 43.07
  L 25.55 44.91
  A 0.40 0.40 0.0 0 0 25.95 45.31
  L 40.03 45.31
  A 0.40 0.40 0.0 0 0 40.43 44.91
  L 40.43 43.07"
/>
</g>
<path fill="#1b404b" d="
  M 33.81 88.00
  L 33.04 88.00
  C 21.94 77.91 11.93 65.51 5.64 51.57
  Q 2.23 44.00 1.60 34.90
  C 0.49 18.89 11.36 5.52 26.74 2.05
  C 40.77 -1.11 55.30 5.69 62.17 18.85
  C 67.41 28.89 65.85 41.27 61.31 51.54
  C 55.18 65.40 44.96 77.81 33.81 88.00
  Z
  M 33.41 86.71
  Q 33.51 86.71 33.62 86.69
  Q 33.70 86.67 33.79 86.59
  Q 47.52 73.61 56.33 58.81
  C 63.93 46.04 68.35 28.77 58.85 15.65
  C 52.92 7.45 43.91 2.52 33.52 2.50
  C 23.13 2.49 14.11 7.40 8.15 15.58
  C -1.38 28.68 3.00 45.96 10.56 58.75
  Q 19.33 73.57 33.03 86.59
  Q 33.12 86.67 33.20 86.69
  Q 33.31 86.71 33.41 86.71
  Z"
/>
<path fill="#3a7a91" d="
  M 33.52 2.50
  C 43.91 2.52 52.92 7.45 58.85 15.65
  C 68.35 28.77 63.93 46.04 56.33 58.81
  Q 47.52 73.61 33.79 86.59
  Q 33.70 86.67 33.62 86.69
  Q 33.51 86.71 33.41 86.71
  Q 33.31 86.71 33.20 86.69
  Q 33.12 86.67 33.03 86.59
  Q 19.33 73.57 10.56 58.75
  C 3.00 45.96 -1.38 28.68 8.15 15.58
  C 14.11 7.40 23.13 2.49 33.52 2.50
  Z
  M 27.4817 21.8164
  A 0.56 0.56 0.0 0 0 26.8500 21.3387
  L 19.2033 22.3997
  A 0.56 0.56 0.0 0 0 18.7256 23.0314
  L 18.8383 23.8436
  A 0.56 0.56 0.0 0 0 19.4700 24.3213
  L 27.1167 23.2603
  A 0.56 0.56 0.0 0 0 27.5944 22.6286
  L 27.4817 21.8164
  Z
  M 47.2761 22.9276
  A 0.47 0.47 0.0 0 0 46.8724 22.3995
  L 39.0616 21.3573
  A 0.47 0.47 0.0 0 0 38.5335 21.7611
  L 38.4039 22.7324
  A 0.47 0.47 0.0 0 0 38.8076 23.2605
  L 46.6184 24.3027
  A 0.47 0.47 0.0 0 0 47.1465 23.8989
  L 47.2761 22.9276
  Z
  M 32.99 27.07
  Q 33.40 27.07 33.53 27.20
  Q 35.68 29.33 37.17 30.83
  A 1.40 1.37 67.0 0 0 38.15 31.24
  L 48.42 31.24
  A 0.26 0.25 81.4 0 0 48.66 30.91
  L 47.57 27.49
  A 0.56 0.54 -3.5 0 0 47.14 27.12
  Q 40.23 25.98 32.99 26.04
  Q 25.74 25.99 18.83 27.13
  A 0.56 0.54 3.5 0 0 18.40 27.50
  L 17.31 30.92
  A 0.26 0.25 -81.5 0 0 17.55 31.25
  L 27.82 31.24
  A 1.40 1.37 -67.0 0 0 28.80 30.83
  Q 30.29 29.33 32.44 27.20
  Q 32.57 27.07 32.99 27.07
  Z
  M 34.6431 33.2372
  A 0.75 0.75 0.0 0 0 34.6172 32.1768
  L 33.4730 31.0872
  A 0.75 0.75 0.0 0 0 32.4127 31.1131
  L 31.3369 32.2428
  A 0.75 0.75 0.0 0 0 31.3628 33.3032
  L 32.5070 34.3928
  A 0.75 0.75 0.0 0 0 33.5673 34.3669
  L 34.6431 33.2372
  Z
  M 33.00 40.03
  Q 41.87 40.03 42.63 40.07
  A 0.66 0.66 0.0 0 1 43.26 40.73
  L 43.26 46.98
  A 0.55 0.54 0.0 0 0 43.81 47.52
  L 50.29 47.50
  A 1.13 1.13 0.0 0 0 50.97 45.47
  Q 50.91 45.42 50.51 45.30
  A 1.01 1.01 0.0 0 1 49.81 44.55
  Q 48.57 39.14 49.29 34.59
  A 0.52 0.52 0.0 0 0 48.78 33.99
  L 38.27 33.99
  A 1.12 1.10 20.6 0 0 37.44 34.36
  Q 36.65 35.26 33.44 38.46
  Q 33.31 38.59 33.00 38.59
  Q 32.70 38.59 32.56 38.46
  Q 29.36 35.26 28.57 34.36
  A 1.12 1.10 -20.6 0 0 27.74 33.99
  L 17.23 33.98
  A 0.52 0.52 0.0 0 0 16.72 34.57
  Q 17.44 39.13 16.19 44.53
  A 1.01 1.01 0.0 0 1 15.49 45.28
  Q 15.09 45.40 15.03 45.45
  A 1.13 1.13 0.0 0 0 15.71 47.48
  L 22.19 47.51
  A 0.55 0.54 0.1 0 0 22.74 46.97
  L 22.75 40.72
  A 0.66 0.66 0.0 0 1 23.38 40.06
  Q 24.14 40.02 33.00 40.03
  Z
  M 40.43 43.07
  A 0.40 0.40 0.0 0 0 40.03 42.67
  L 25.95 42.67
  A 0.40 0.40 0.0 0 0 25.55 43.07
  L 25.55 44.91
  A 0.40 0.40 0.0 0 0 25.95 45.31
  L 40.03 45.31
  A 0.40 0.40 0.0 0 0 40.43 44.91
  L 40.43 43.07
  Z"
/>
<rect fill="#ffffff" x="-4.42" y="-0.97" transform="translate(23.16,22.83) rotate(-7.9)" width="8.84" height="1.94" rx="0.56"/>
<rect fill="#ffffff" x="-4.41" y="-0.96" transform="translate(42.84,22.83) rotate(7.6)" width="8.82" height="1.92" rx="0.47"/>
<path fill="#ffffff" d="
  M 32.99 26.04
  Q 40.23 25.98 47.14 27.12
  A 0.56 0.54 -3.5 0 1 47.57 27.49
  L 48.66 30.91
  A 0.26 0.25 81.4 0 1 48.42 31.24
  L 38.15 31.24
  A 1.40 1.37 67.0 0 1 37.17 30.83
  Q 35.68 29.33 33.53 27.20
  Q 33.40 27.07 32.99 27.07
  Q 32.57 27.07 32.44 27.20
  Q 30.29 29.33 28.80 30.83
  A 1.40 1.37 -67.0 0 1 27.82 31.24
  L 17.55 31.25
  A 0.26 0.25 -81.5 0 1 17.31 30.92
  L 18.40 27.50
  A 0.56 0.54 3.5 0 1 18.83 27.13
  Q 25.74 25.99 32.99 26.04
  Z"
/>
<rect fill="#ffffff" x="-1.54" y="-1.53" transform="translate(32.99,32.74) rotate(43.6)" width="3.08" height="3.06" rx="0.75"/>
<path fill="#ffffff" d="
  M 33.00 38.59
  Q 33.31 38.59 33.44 38.46
  Q 36.65 35.26 37.44 34.36
  A 1.12 1.10 20.6 0 1 38.27 33.99
  L 48.78 33.99
  A 0.52 0.52 0.0 0 1 49.29 34.59
  Q 48.57 39.14 49.81 44.55
  A 1.01 1.01 0.0 0 0 50.51 45.30
  Q 50.91 45.42 50.97 45.47
  A 1.13 1.13 0.0 0 1 50.29 47.50
  L 43.81 47.52
  A 0.55 0.54 -0.0 0 1 43.26 46.98
  L 43.26 40.73
  A 0.66 0.66 0.0 0 0 42.63 40.07
  Q 41.87 40.03 33.00 40.03
  Q 24.14 40.02 23.38 40.06
  A 0.66 0.66 0.0 0 0 22.75 40.72
  L 22.74 46.97
  A 0.55 0.54 0.1 0 1 22.19 47.51
  L 15.71 47.48
  A 1.13 1.13 0.0 0 1 15.03 45.45
  Q 15.09 45.40 15.49 45.28
  A 1.01 1.01 0.0 0 0 16.19 44.53
  Q 17.44 39.13 16.72 34.57
  A 0.52 0.52 0.0 0 1 17.23 33.98
  L 27.74 33.99
  A 1.12 1.10 -20.6 0 1 28.57 34.36
  Q 29.36 35.26 32.56 38.46
  Q 32.70 38.59 33.00 38.59
  Z"
/>
<rect fill="#ffffff" x="25.55" y="42.67" width="14.88" height="2.64" rx="0.40"/>
</svg>
