<?xml version="1.0" encoding="UTF-8" standalone="no"?>
<!DOCTYPE svg PUBLIC "-//W3C//DTD SVG 1.1//EN" "http://www.w3.org/Graphics/SVG/1.1/DTD/svg11.dtd">
<svg xmlns="http://www.w3.org/2000/svg" version="1.1" viewBox="0.00 0.00 66.00 88.00">
<g stroke-width="2.00" fill="none" stroke-linecap="butt">
<path stroke="#324277" vector-effect="non-scaling-stroke" d="
  M 33.40 86.70
  Q 33.58 86.70 33.61 86.68
  Q 33.65 86.65 33.76 86.55
  C 46.00 74.99 57.45 60.77 62.45 44.95
  C 65.36 35.73 65.09 25.16 59.55 16.74
  C 53.74 7.92 44.44 2.54 33.52 2.52
  C 22.60 2.51 13.28 7.86 7.45 16.67
  C 1.88 25.07 1.59 35.64 4.47 44.87
  C 9.43 60.71 20.84 74.96 33.05 86.55
  Q 33.16 86.65 33.20 86.67
  Q 33.23 86.70 33.40 86.70"
/>
<path stroke="#a2abce" vector-effect="non-scaling-stroke" d="
  M 16.42 23.47
  A 0.47 0.47 0.0 0 0 15.95 23.00
  L 15.13 23.00
  A 0.47 0.47 0.0 0 0 14.66 23.47
  L 14.66 45.17
  A 0.47 0.47 0.0 0 0 15.13 45.64
  L 15.95 45.64
  A 0.47 0.47 0.0 0 0 16.42 45.17
  L 16.42 23.47"
/>
<path stroke="#a2abce" vector-effect="non-scaling-stroke" d="
  M 20.74 27.24
  Q 20.92 27.69 20.71 28.14
  C 20.56 28.47 19.90 28.45 19.72 28.46
  Q 19.50 28.48 19.32 29.08
  Q 18.64 31.22 20.34 31.41
  A 0.67 0.66 9.1 0 1 20.92 32.20
  Q 20.73 33.20 19.86 33.18
  A 0.67 0.66 0.8 0 0 19.17 33.84
  L 19.17 35.23
  A 0.50 0.50 0.0 0 0 19.72 35.73
  Q 20.57 35.65 20.86 36.84
  A 0.63 0.63 0.0 0 1 20.40 37.59
  Q 18.82 37.97 19.24 39.59
  A 0.60 0.59 76.2 0 0 19.94 40.02
  Q 26.52 38.58 30.02 39.00
  C 35.85 39.71 43.47 41.75 50.74 39.90
  A 0.41 0.40 -24.9 0 0 50.97 39.28
  L 47.37 34.13
  A 0.95 0.93 42.7 0 1 47.32 33.13
  L 50.90 26.93
  A 0.45 0.45 0.0 0 0 50.47 26.26
  C 43.64 26.90 38.98 25.54 31.46 23.61
  Q 26.34 22.29 19.85 23.95
  A 0.88 0.88 0.0 0 0 19.19 24.85
  L 19.25 26.29
  A 0.56 0.56 0.0 0 0 19.82 26.82
  Q 19.87 26.82 20.01 26.80
  A 0.70 0.68 75.4 0 1 20.74 27.24"
/>
</g>
<path fill="#202d52" d="
  M 33.81 88.00
  L 33.04 88.00
  C 21.78 77.77 12.07 65.64 5.64 51.57
  C 1.02 41.45 -0.44 28.45 5.12 18.27
  Q 12.18 5.36 26.64 2.09
  Q 37.20 -0.30 46.86 4.26
  Q 61.63 11.23 64.87 26.80
  Q 66.63 35.27 63.49 45.52
  C 58.57 61.59 46.21 76.68 33.81 88.00
  Z
  M 33.40 86.70
  Q 33.58 86.70 33.61 86.68
  Q 33.65 86.65 33.76 86.55
  C 46.00 74.99 57.45 60.77 62.45 44.95
  C 65.36 35.73 65.09 25.16 59.55 16.74
  C 53.74 7.92 44.44 2.54 33.52 2.52
  C 22.60 2.51 13.28 7.86 7.45 16.67
  C 1.88 25.07 1.59 35.64 4.47 44.87
  C 9.43 60.71 20.84 74.96 33.05 86.55
  Q 33.16 86.65 33.20 86.67
  Q 33.23 86.70 33.40 86.70
  Z"
/>
<path fill="#44569c" d="
  M 33.52 2.52
  C 44.44 2.54 53.74 7.92 59.55 16.74
  C 65.09 25.16 65.36 35.73 62.45 44.95
  C 57.45 60.77 46.00 74.99 33.76 86.55
  Q 33.65 86.65 33.61 86.68
  Q 33.58 86.70 33.40 86.70
  Q 33.23 86.70 33.20 86.67
  Q 33.16 86.65 33.05 86.55
  C 20.84 74.96 9.43 60.71 4.47 44.87
  C 1.59 35.64 1.88 25.07 7.45 16.67
  C 13.28 7.86 22.60 2.51 33.52 2.52
  Z
  M 16.42 23.47
  A 0.47 0.47 0.0 0 0 15.95 23.00
  L 15.13 23.00
  A 0.47 0.47 0.0 0 0 14.66 23.47
  L 14.66 45.17
  A 0.47 0.47 0.0 0 0 15.13 45.64
  L 15.95 45.64
  A 0.47 0.47 0.0 0 0 16.42 45.17
  L 16.42 23.47
  Z
  M 20.74 27.24
  Q 20.92 27.69 20.71 28.14
  C 20.56 28.47 19.90 28.45 19.72 28.46
  Q 19.50 28.48 19.32 29.08
  Q 18.64 31.22 20.34 31.41
  A 0.67 0.66 9.1 0 1 20.92 32.20
  Q 20.73 33.20 19.86 33.18
  A 0.67 0.66 0.8 0 0 19.17 33.84
  L 19.17 35.23
  A 0.50 0.50 0.0 0 0 19.72 35.73
  Q 20.57 35.65 20.86 36.84
  A 0.63 0.63 0.0 0 1 20.40 37.59
  Q 18.82 37.97 19.24 39.59
  A 0.60 0.59 76.2 0 0 19.94 40.02
  Q 26.52 38.58 30.02 39.00
  C 35.85 39.71 43.47 41.75 50.74 39.90
  A 0.41 0.40 -24.9 0 0 50.97 39.28
  L 47.37 34.13
  A 0.95 0.93 42.7 0 1 47.32 33.13
  L 50.90 26.93
  A 0.45 0.45 0.0 0 0 50.47 26.26
  C 43.64 26.90 38.98 25.54 31.46 23.61
  Q 26.34 22.29 19.85 23.95
  A 0.88 0.88 0.0 0 0 19.19 24.85
  L 19.25 26.29
  A 0.56 0.56 0.0 0 0 19.82 26.82
  Q 19.87 26.82 20.01 26.80
  A 0.70 0.68 75.4 0 1 20.74 27.24
  Z"
/>
<rect fill="#ffffff" x="14.66" y="23.00" width="1.76" height="22.64" rx="0.47"/>
<path fill="#ffffff" d="
  M 20.01 26.80
  Q 19.87 26.82 19.82 26.82
  A 0.56 0.56 0.0 0 1 19.25 26.29
  L 19.19 24.85
  A 0.88 0.88 0.0 0 1 19.85 23.95
  Q 26.34 22.29 31.46 23.61
  C 38.98 25.54 43.64 26.90 50.47 26.26
  A 0.45 0.45 0.0 0 1 50.90 26.93
  L 47.32 33.13
  A 0.95 0.93 42.7 0 0 47.37 34.13
  L 50.97 39.28
  A 0.41 0.40 -24.9 0 1 50.74 39.90
  C 43.47 41.75 35.85 39.71 30.02 39.00
  Q 26.52 38.58 19.94 40.02
  A 0.60 0.59 76.2 0 1 19.24 39.59
  Q 18.82 37.97 20.40 37.59
  A 0.63 0.63 0.0 0 0 20.86 36.84
  Q 20.57 35.65 19.72 35.73
  A 0.50 0.50 0.0 0 1 19.17 35.23
  L 19.17 33.84
  A 0.67 0.66 0.8 0 1 19.86 33.18
  Q 20.73 33.20 20.92 32.20
  A 0.67 0.66 9.1 0 0 20.34 31.41
  Q 18.64 31.22 19.32 29.08
  Q 19.50 28.48 19.72 28.46
  C 19.90 28.45 20.56 28.47 20.71 28.14
  Q 20.92 27.69 20.74 27.24
  A 0.70 0.68 75.4 0 0 20.01 26.80
  Z"
/>
</svg>
