<?xml version="1.0" encoding="UTF-8" standalone="no"?>
<!DOCTYPE svg PUBLIC "-//W3C//DTD SVG 1.1//EN" "http://www.w3.org/Graphics/SVG/1.1/DTD/svg11.dtd">
<svg xmlns="http://www.w3.org/2000/svg" version="1.1" viewBox="0.00 0.00 66.00 88.00">
<g stroke-width="2.00" fill="none" stroke-linecap="butt">
<path stroke="#353846" vector-effect="non-scaling-stroke" d="
  M 33.43 86.58
  C 34.08 86.58 33.58 86.63 33.79 86.44
  C 46.92 74.37 61.52 56.11 63.84 38.31
  Q 66.63 17.03 48.10 6.19
  Q 41.85 2.54 33.49 2.53
  Q 25.14 2.53 18.88 6.17
  Q 0.34 16.98 3.10 38.27
  C 5.39 56.07 19.97 74.35 33.08 86.44
  C 33.29 86.63 32.79 86.58 33.43 86.58"
/>
<path stroke="#a3a4ae" vector-effect="non-scaling-stroke" d="
  M 33.64 21.27
  L 33.98 21.80
  A 0.59 0.59 0.0 0 0 34.94 21.84
  Q 35.23 21.53 35.11 20.29
  A 0.34 0.34 0.0 0 0 34.66 20.00
  L 27.90 22.36
  A 0.23 0.23 0.0 0 1 27.62 22.02
  L 28.17 21.06
  A 0.39 0.38 -56.8 0 0 28.07 20.57
  L 28.05 20.56
  A 0.29 0.29 0.0 0 0 27.66 20.66
  Q 26.48 22.66 24.43 23.81
  A 0.50 0.50 0.0 0 0 24.35 24.62
  Q 24.99 25.20 25.92 25.52
  A 0.51 0.49 -75.2 0 1 26.24 26.09
  L 26.20 26.28
  A 0.51 0.51 0.0 0 1 25.63 26.69
  Q 23.95 26.45 23.74 25.12
  A 0.39 0.39 0.0 0 0 23.03 24.97
  L 21.51 27.30
  A 0.33 0.32 -38.5 0 1 20.93 27.24
  Q 20.91 27.20 20.88 27.12
  A 0.53 0.53 0.0 0 0 19.99 26.96
  Q 19.61 27.40 19.41 28.15
  A 1.30 1.27 -53.2 0 0 19.54 29.11
  Q 19.73 29.44 19.50 29.75
  A 1.23 1.23 0.0 0 0 19.39 31.06
  Q 19.92 32.06 20.65 32.61
  A 2.26 1.85 -60.8 0 0 23.64 31.43
  Q 26.13 25.94 32.31 24.35
  A 1.38 1.38 0.0 0 0 33.34 22.95
  L 33.26 21.39
  A 0.21 0.21 0.0 0 1 33.64 21.27"
/>
<path stroke="#a3a4ae" vector-effect="non-scaling-stroke" d="
  M 42.44 26.13
  Q 41.35 25.97 41.09 25.48
  A 0.44 0.44 0.0 0 1 41.46 24.83
  Q 41.86 24.81 42.70 25.16
  A 0.54 0.54 0.0 0 0 43.44 24.78
  Q 43.55 24.26 43.33 23.67
  A 1.20 1.19 -88.8 0 0 42.69 23.00
  L 36.78 20.44
  A 0.54 0.53 15.5 0 0 36.03 20.86
  L 35.73 23.11
  A 0.66 0.65 17.1 0 0 36.09 23.78
  L 42.32 26.88
  A 0.27 0.26 32.1 0 0 42.64 26.81
  Q 42.73 26.71 42.78 26.50
  Q 42.85 26.19 42.44 26.13"
/>
<path stroke="#a3a4ae" vector-effect="non-scaling-stroke" d="
  M 33.57 23.38
  A 0.39 0.27 13.7 0 0 33.96 23.82
  Q 34.73 23.85 34.71 23.51
  Q 34.68 23.06 34.31 23.09
  Q 33.74 23.14 33.57 23.38"
/>
<path stroke="#a3a4ae" vector-effect="non-scaling-stroke" d="
  M 46.22 33.76
  Q 45.84 33.12 45.20 32.71
  A 0.37 0.36 38.7 0 1 45.13 32.14
  L 45.38 31.90
  A 0.31 0.31 0.0 0 1 45.82 31.90
  L 46.32 32.40
  A 0.93 0.93 0.0 0 0 47.86 31.44
  L 46.23 26.78
  A 1.29 1.28 -32.1 0 0 44.11 26.30
  L 43.30 27.10
  A 1.67 1.67 0.0 0 0 43.12 29.25
  Q 43.90 30.33 43.88 31.91
  A 1.41 1.41 0.0 0 0 44.42 33.04
  Q 44.72 33.27 45.29 34.47
  A 0.35 0.34 -35.4 0 0 45.85 34.56
  L 46.15 34.26
  A 0.41 0.41 0.0 0 0 46.22 33.76"
/>
<path stroke="#a3a4ae" vector-effect="non-scaling-stroke" d="
  M 19.81 34.25
  Q 20.47 33.93 20.54 33.67
  A 0.74 0.68 -13.0 0 0 19.38 33.01
  Q 19.07 33.24 19.26 33.92
  Q 19.41 34.44 19.81 34.25"
/>
<path stroke="#a3a4ae" vector-effect="non-scaling-stroke" d="
  M 22.64 33.30
  A 0.60 0.54 5.7 0 0 23.35 34.08
  Q 23.67 34.00 23.61 33.41
  Q 23.55 32.91 23.13 33.02
  Q 22.74 33.12 22.64 33.30"
/>
<path stroke="#a3a4ae" vector-effect="non-scaling-stroke" d="
  M 48.57 33.45
  Q 48.31 33.33 48.06 33.36
  A 0.37 0.22 -20.6 0 0 47.71 33.79
  Q 48.29 34.20 48.50 34.15
  A 0.38 0.37 50.8 0 0 48.57 33.45"
/>
<path stroke="#a3a4ae" vector-effect="non-scaling-stroke" d="
  M 21.18 34.38
  A 1.68 1.68 0.0 0 0 19.81 36.64
  L 22.17 42.96
  A 0.40 0.40 0.0 0 0 22.83 43.10
  L 25.66 40.27
  A 0.44 0.43 -41.8 0 0 25.70 39.71
  Q 24.31 37.90 23.74 35.98
  A 2.28 2.27 78.2 0 0 21.29 34.37
  L 21.18 34.38"
/>
<path stroke="#a3a4ae" vector-effect="non-scaling-stroke" d="
  M 43.58 34.82
  Q 43.41 36.62 41.26 40.27
  A 1.47 1.47 0.0 0 0 42.37 42.47
  L 42.78 42.46
  A 3.68 3.68 0.0 0 0 46.21 40.07
  L 47.88 35.60
  A 0.58 0.57 -9.3 0 0 46.98 34.96
  Q 45.41 36.23 44.32 34.63
  A 0.41 0.40 30.4 0 0 43.58 34.82"
/>
<path stroke="#a3a4ae" vector-effect="non-scaling-stroke" d="
  M 21.31 48.13
  Q 21.00 47.76 21.21 47.49
  A 0.32 0.32 0.0 0 1 21.77 47.60
  Q 22.02 48.36 22.66 48.28
  C 23.47 48.17 24.53 49.18 25.78 49.19
  Q 28.53 49.20 32.00 48.28
  A 0.72 0.72 0.0 0 0 32.52 47.53
  Q 32.30 45.35 32.57 44.96
  A 0.44 0.44 0.0 0 0 32.42 44.33
  L 27.16 41.41
  A 0.29 0.29 0.0 0 0 26.73 41.67
  Q 26.77 43.10 26.06 43.54
  A 0.53 0.52 73.0 0 1 25.26 43.11
  Q 25.25 42.90 25.25 42.87
  A 0.59 0.59 0.0 0 0 24.48 42.33
  Q 24.09 42.45 23.59 43.05
  A 0.52 0.52 0.0 0 0 23.73 43.83
  L 26.25 45.28
  A 0.14 0.13 30.6 0 1 26.30 45.46
  L 26.13 45.76
  A 0.39 0.39 0.0 0 1 25.66 45.93
  C 24.27 45.42 23.53 46.24 22.13 46.14
  Q 17.65 45.81 16.05 45.32
  A 0.39 0.39 0.0 0 0 15.73 46.02
  Q 16.53 46.52 17.42 46.33
  A 0.51 0.50 -5.1 0 1 18.03 46.83
  Q 18.01 47.97 19.13 47.48
  A 0.58 0.58 0.0 0 1 19.88 47.75
  Q 20.33 48.64 21.07 48.64
  A 0.31 0.31 0.0 0 0 21.31 48.13"
/>
<path stroke="#a3a4ae" vector-effect="non-scaling-stroke" d="
  M 49.05 48.11
  L 45.30 46.90
  A 0.30 0.30 0.0 0 1 45.42 46.32
  C 47.36 46.52 49.03 48.11 50.80 46.06
  A 0.33 0.33 0.0 0 0 50.39 45.56
  Q 49.39 46.11 48.21 45.74
  Q 44.62 44.63 41.60 45.71
  A 0.39 0.37 -18.9 0 1 41.11 45.48
  L 41.00 45.17
  A 0.57 0.57 0.0 0 1 41.35 44.44
  Q 42.06 44.20 42.57 43.74
  A 0.49 0.49 0.0 0 0 42.08 42.92
  L 41.17 43.23
  A 0.50 0.50 0.0 0 1 40.50 42.74
  Q 40.55 41.61 40.52 41.58
  A 0.74 0.72 -44.4 0 0 39.52 41.58
  Q 37.12 43.83 34.27 44.40
  Q 33.88 44.48 33.57 44.89
  Q 33.18 45.42 33.12 45.62
  A 0.32 0.32 0.0 0 0 33.34 46.01
  L 33.40 46.03
  A 0.36 0.36 0.0 0 0 33.83 45.85
  Q 34.34 44.79 35.16 45.23
  A 0.51 0.49 -39.3 0 1 35.05 46.14
  Q 34.23 46.41 34.09 46.95
  A 0.64 0.63 26.3 0 0 34.32 47.62
  Q 36.17 49.02 38.35 48.68
  A 3.30 3.26 -41.2 0 1 39.69 48.76
  Q 43.59 49.87 49.04 48.47
  A 0.19 0.19 0.0 0 0 49.05 48.11"
/>
<path stroke="#a3a4ae" vector-effect="non-scaling-stroke" d="
  M 32.93 48.33
  Q 32.99 48.45 33.22 48.61
  A 0.30 0.30 0.0 0 0 33.70 48.35
  Q 33.69 48.19 33.30 47.98
  A 0.27 0.27 0.0 0 0 32.93 48.33"
/>
</g>
<path fill="#232630" d="
  M 33.78 88.00
  L 33.03 88.00
  C 21.86 77.84 12.08 65.68 5.74 51.77
  Q 2.83 45.39 1.95 38.76
  Q -0.12 23.24 8.72 12.91
  Q 17.96 2.11 32.02 1.37
  C 44.79 0.69 57.24 8.04 62.60 19.67
  C 73.74 43.80 50.36 72.98 33.78 88.00
  Z
  M 33.43 86.58
  C 34.08 86.58 33.58 86.63 33.79 86.44
  C 46.92 74.37 61.52 56.11 63.84 38.31
  Q 66.63 17.03 48.10 6.19
  Q 41.85 2.54 33.49 2.53
  Q 25.14 2.53 18.88 6.17
  Q 0.34 16.98 3.10 38.27
  C 5.39 56.07 19.97 74.35 33.08 86.44
  C 33.29 86.63 32.79 86.58 33.43 86.58
  Z"
/>
<path fill="#46495c" d="
  M 33.49 2.53
  Q 41.85 2.54 48.10 6.19
  Q 66.63 17.03 63.84 38.31
  C 61.52 56.11 46.92 74.37 33.79 86.44
  C 33.58 86.63 34.08 86.58 33.43 86.58
  C 32.79 86.58 33.29 86.63 33.08 86.44
  C 19.97 74.35 5.39 56.07 3.10 38.27
  Q 0.34 16.98 18.88 6.17
  Q 25.14 2.53 33.49 2.53
  Z
  M 33.64 21.27
  L 33.98 21.80
  A 0.59 0.59 0.0 0 0 34.94 21.84
  Q 35.23 21.53 35.11 20.29
  A 0.34 0.34 0.0 0 0 34.66 20.00
  L 27.90 22.36
  A 0.23 0.23 0.0 0 1 27.62 22.02
  L 28.17 21.06
  A 0.39 0.38 -56.8 0 0 28.07 20.57
  L 28.05 20.56
  A 0.29 0.29 0.0 0 0 27.66 20.66
  Q 26.48 22.66 24.43 23.81
  A 0.50 0.50 0.0 0 0 24.35 24.62
  Q 24.99 25.20 25.92 25.52
  A 0.51 0.49 -75.2 0 1 26.24 26.09
  L 26.20 26.28
  A 0.51 0.51 0.0 0 1 25.63 26.69
  Q 23.95 26.45 23.74 25.12
  A 0.39 0.39 0.0 0 0 23.03 24.97
  L 21.51 27.30
  A 0.33 0.32 -38.5 0 1 20.93 27.24
  Q 20.91 27.20 20.88 27.12
  A 0.53 0.53 0.0 0 0 19.99 26.96
  Q 19.61 27.40 19.41 28.15
  A 1.30 1.27 -53.2 0 0 19.54 29.11
  Q 19.73 29.44 19.50 29.75
  A 1.23 1.23 0.0 0 0 19.39 31.06
  Q 19.92 32.06 20.65 32.61
  A 2.26 1.85 -60.8 0 0 23.64 31.43
  Q 26.13 25.94 32.31 24.35
  A 1.38 1.38 0.0 0 0 33.34 22.95
  L 33.26 21.39
  A 0.21 0.21 0.0 0 1 33.64 21.27
  Z
  M 42.44 26.13
  Q 41.35 25.97 41.09 25.48
  A 0.44 0.44 0.0 0 1 41.46 24.83
  Q 41.86 24.81 42.70 25.16
  A 0.54 0.54 0.0 0 0 43.44 24.78
  Q 43.55 24.26 43.33 23.67
  A 1.20 1.19 -88.8 0 0 42.69 23.00
  L 36.78 20.44
  A 0.54 0.53 15.5 0 0 36.03 20.86
  L 35.73 23.11
  A 0.66 0.65 17.1 0 0 36.09 23.78
  L 42.32 26.88
  A 0.27 0.26 32.1 0 0 42.64 26.81
  Q 42.73 26.71 42.78 26.50
  Q 42.85 26.19 42.44 26.13
  Z
  M 33.57 23.38
  A 0.39 0.27 13.7 0 0 33.96 23.82
  Q 34.73 23.85 34.71 23.51
  Q 34.68 23.06 34.31 23.09
  Q 33.74 23.14 33.57 23.38
  Z
  M 46.22 33.76
  Q 45.84 33.12 45.20 32.71
  A 0.37 0.36 38.7 0 1 45.13 32.14
  L 45.38 31.90
  A 0.31 0.31 0.0 0 1 45.82 31.90
  L 46.32 32.40
  A 0.93 0.93 0.0 0 0 47.86 31.44
  L 46.23 26.78
  A 1.29 1.28 -32.1 0 0 44.11 26.30
  L 43.30 27.10
  A 1.67 1.67 0.0 0 0 43.12 29.25
  Q 43.90 30.33 43.88 31.91
  A 1.41 1.41 0.0 0 0 44.42 33.04
  Q 44.72 33.27 45.29 34.47
  A 0.35 0.34 -35.4 0 0 45.85 34.56
  L 46.15 34.26
  A 0.41 0.41 0.0 0 0 46.22 33.76
  Z
  M 19.81 34.25
  Q 20.47 33.93 20.54 33.67
  A 0.74 0.68 -13.0 0 0 19.38 33.01
  Q 19.07 33.24 19.26 33.92
  Q 19.41 34.44 19.81 34.25
  Z
  M 22.64 33.30
  A 0.60 0.54 5.7 0 0 23.35 34.08
  Q 23.67 34.00 23.61 33.41
  Q 23.55 32.91 23.13 33.02
  Q 22.74 33.12 22.64 33.30
  Z
  M 48.57 33.45
  Q 48.31 33.33 48.06 33.36
  A 0.37 0.22 -20.6 0 0 47.71 33.79
  Q 48.29 34.20 48.50 34.15
  A 0.38 0.37 50.8 0 0 48.57 33.45
  Z
  M 21.18 34.38
  A 1.68 1.68 0.0 0 0 19.81 36.64
  L 22.17 42.96
  A 0.40 0.40 0.0 0 0 22.83 43.10
  L 25.66 40.27
  A 0.44 0.43 -41.8 0 0 25.70 39.71
  Q 24.31 37.90 23.74 35.98
  A 2.28 2.27 78.2 0 0 21.29 34.37
  L 21.18 34.38
  Z
  M 43.58 34.82
  Q 43.41 36.62 41.26 40.27
  A 1.47 1.47 0.0 0 0 42.37 42.47
  L 42.78 42.46
  A 3.68 3.68 0.0 0 0 46.21 40.07
  L 47.88 35.60
  A 0.58 0.57 -9.3 0 0 46.98 34.96
  Q 45.41 36.23 44.32 34.63
  A 0.41 0.40 30.4 0 0 43.58 34.82
  Z
  M 21.31 48.13
  Q 21.00 47.76 21.21 47.49
  A 0.32 0.32 0.0 0 1 21.77 47.60
  Q 22.02 48.36 22.66 48.28
  C 23.47 48.17 24.53 49.18 25.78 49.19
  Q 28.53 49.20 32.00 48.28
  A 0.72 0.72 0.0 0 0 32.52 47.53
  Q 32.30 45.35 32.57 44.96
  A 0.44 0.44 0.0 0 0 32.42 44.33
  L 27.16 41.41
  A 0.29 0.29 0.0 0 0 26.73 41.67
  Q 26.77 43.10 26.06 43.54
  A 0.53 0.52 73.0 0 1 25.26 43.11
  Q 25.25 42.90 25.25 42.87
  A 0.59 0.59 0.0 0 0 24.48 42.33
  Q 24.09 42.45 23.59 43.05
  A 0.52 0.52 0.0 0 0 23.73 43.83
  L 26.25 45.28
  A 0.14 0.13 30.6 0 1 26.30 45.46
  L 26.13 45.76
  A 0.39 0.39 0.0 0 1 25.66 45.93
  C 24.27 45.42 23.53 46.24 22.13 46.14
  Q 17.65 45.81 16.05 45.32
  A 0.39 0.39 0.0 0 0 15.73 46.02
  Q 16.53 46.52 17.42 46.33
  A 0.51 0.50 -5.1 0 1 18.03 46.83
  Q 18.01 47.97 19.13 47.48
  A 0.58 0.58 0.0 0 1 19.88 47.75
  Q 20.33 48.64 21.07 48.64
  A 0.31 0.31 0.0 0 0 21.31 48.13
  Z
  M 49.05 48.11
  L 45.30 46.90
  A 0.30 0.30 0.0 0 1 45.42 46.32
  C 47.36 46.52 49.03 48.11 50.80 46.06
  A 0.33 0.33 0.0 0 0 50.39 45.56
  Q 49.39 46.11 48.21 45.74
  Q 44.62 44.63 41.60 45.71
  A 0.39 0.37 -18.9 0 1 41.11 45.48
  L 41.00 45.17
  A 0.57 0.57 0.0 0 1 41.35 44.44
  Q 42.06 44.20 42.57 43.74
  A 0.49 0.49 0.0 0 0 42.08 42.92
  L 41.17 43.23
  A 0.50 0.50 0.0 0 1 40.50 42.74
  Q 40.55 41.61 40.52 41.58
  A 0.74 0.72 -44.4 0 0 39.52 41.58
  Q 37.12 43.83 34.27 44.40
  Q 33.88 44.48 33.57 44.89
  Q 33.18 45.42 33.12 45.62
  A 0.32 0.32 0.0 0 0 33.34 46.01
  L 33.40 46.03
  A 0.36 0.36 0.0 0 0 33.83 45.85
  Q 34.34 44.79 35.16 45.23
  A 0.51 0.49 -39.3 0 1 35.05 46.14
  Q 34.23 46.41 34.09 46.95
  A 0.64 0.63 26.3 0 0 34.32 47.62
  Q 36.17 49.02 38.35 48.68
  A 3.30 3.26 -41.2 0 1 39.69 48.76
  Q 43.59 49.87 49.04 48.47
  A 0.19 0.19 0.0 0 0 49.05 48.11
  Z
  M 32.93 48.33
  Q 32.99 48.45 33.22 48.61
  A 0.30 0.30 0.0 0 0 33.70 48.35
  Q 33.69 48.19 33.30 47.98
  A 0.27 0.27 0.0 0 0 32.93 48.33
  Z"
/>
<path fill="#ffffff" d="
  M 33.26 21.39
  L 33.34 22.95
  A 1.38 1.38 0.0 0 1 32.31 24.35
  Q 26.13 25.94 23.64 31.43
  A 2.26 1.85 -60.8 0 1 20.65 32.61
  Q 19.92 32.06 19.39 31.06
  A 1.23 1.23 0.0 0 1 19.50 29.75
  Q 19.73 29.44 19.54 29.11
  A 1.30 1.27 -53.2 0 1 19.41 28.15
  Q 19.61 27.40 19.99 26.96
  A 0.53 0.53 0.0 0 1 20.88 27.12
  Q 20.91 27.20 20.93 27.24
  A 0.33 0.32 -38.5 0 0 21.51 27.30
  L 23.03 24.97
  A 0.39 0.39 0.0 0 1 23.74 25.12
  Q 23.95 26.45 25.63 26.69
  A 0.51 0.51 0.0 0 0 26.20 26.28
  L 26.24 26.09
  A 0.51 0.49 -75.2 0 0 25.92 25.52
  Q 24.99 25.20 24.35 24.62
  A 0.50 0.50 0.0 0 1 24.43 23.81
  Q 26.48 22.66 27.66 20.66
  A 0.29 0.29 0.0 0 1 28.05 20.56
  L 28.07 20.57
  A 0.39 0.38 -56.8 0 1 28.17 21.06
  L 27.62 22.02
  A 0.23 0.23 0.0 0 0 27.90 22.36
  L 34.66 20.00
  A 0.34 0.34 0.0 0 1 35.11 20.29
  Q 35.23 21.53 34.94 21.84
  A 0.59 0.59 0.0 0 1 33.98 21.80
  L 33.64 21.27
  A 0.21 0.21 0.0 0 0 33.26 21.39
  Z"
/>
<path fill="#ffffff" d="
  M 42.78 26.50
  Q 42.73 26.71 42.64 26.81
  A 0.27 0.26 32.1 0 1 42.32 26.88
  L 36.09 23.78
  A 0.66 0.65 17.1 0 1 35.73 23.11
  L 36.03 20.86
  A 0.54 0.53 15.5 0 1 36.78 20.44
  L 42.69 23.00
  A 1.20 1.19 -88.8 0 1 43.33 23.67
  Q 43.55 24.26 43.44 24.78
  A 0.54 0.54 0.0 0 1 42.70 25.16
  Q 41.86 24.81 41.46 24.83
  A 0.44 0.44 0.0 0 0 41.09 25.48
  Q 41.35 25.97 42.44 26.13
  Q 42.85 26.19 42.78 26.50
  Z"
/>
<path fill="#ffffff" d="
  M 33.57 23.38
  Q 33.74 23.14 34.31 23.09
  Q 34.68 23.06 34.71 23.51
  Q 34.73 23.85 33.96 23.82
  A 0.39 0.27 13.7 0 1 33.57 23.38
  Z"
/>
<path fill="#ffffff" d="
  M 46.22 33.76
  A 0.41 0.41 0.0 0 1 46.15 34.26
  L 45.85 34.56
  A 0.35 0.34 -35.4 0 1 45.29 34.47
  Q 44.72 33.27 44.42 33.04
  A 1.41 1.41 0.0 0 1 43.88 31.91
  Q 43.90 30.33 43.12 29.25
  A 1.67 1.67 0.0 0 1 43.30 27.10
  L 44.11 26.30
  A 1.29 1.28 -32.1 0 1 46.23 26.78
  L 47.86 31.44
  A 0.93 0.93 0.0 0 1 46.32 32.40
  L 45.82 31.90
  A 0.31 0.31 0.0 0 0 45.38 31.90
  L 45.13 32.14
  A 0.37 0.36 38.7 0 0 45.20 32.71
  Q 45.84 33.12 46.22 33.76
  Z"
/>
<path fill="#ffffff" d="
  M 19.81 34.25
  Q 19.41 34.44 19.26 33.92
  Q 19.07 33.24 19.38 33.01
  A 0.74 0.68 -13.0 0 1 20.54 33.67
  Q 20.47 33.93 19.81 34.25
  Z"
/>
<path fill="#ffffff" d="
  M 22.64 33.30
  Q 22.74 33.12 23.13 33.02
  Q 23.55 32.91 23.61 33.41
  Q 23.67 34.00 23.35 34.08
  A 0.60 0.54 5.7 0 1 22.64 33.30
  Z"
/>
<path fill="#ffffff" d="
  M 48.50 34.15
  Q 48.29 34.20 47.71 33.79
  A 0.37 0.22 -20.6 0 1 48.06 33.36
  Q 48.31 33.33 48.57 33.45
  A 0.38 0.37 50.8 0 1 48.50 34.15
  Z"
/>
<path fill="#ffffff" d="
  M 21.18 34.38
  L 21.29 34.37
  A 2.28 2.27 78.2 0 1 23.74 35.98
  Q 24.31 37.90 25.70 39.71
  A 0.44 0.43 -41.8 0 1 25.66 40.27
  L 22.83 43.10
  A 0.40 0.40 0.0 0 1 22.17 42.96
  L 19.81 36.64
  A 1.68 1.68 0.0 0 1 21.18 34.38
  Z"
/>
<path fill="#ffffff" d="
  M 44.32 34.63
  Q 45.41 36.23 46.98 34.96
  A 0.58 0.57 -9.3 0 1 47.88 35.60
  L 46.21 40.07
  A 3.68 3.68 0.0 0 1 42.78 42.46
  L 42.37 42.47
  A 1.47 1.47 0.0 0 1 41.26 40.27
  Q 43.41 36.62 43.58 34.82
  A 0.41 0.40 30.4 0 1 44.32 34.63
  Z"
/>
<path fill="#ffffff" d="
  M 21.07 48.64
  Q 20.33 48.64 19.88 47.75
  A 0.58 0.58 0.0 0 0 19.13 47.48
  Q 18.01 47.97 18.03 46.83
  A 0.51 0.50 -5.1 0 0 17.42 46.33
  Q 16.53 46.52 15.73 46.02
  A 0.39 0.39 0.0 0 1 16.05 45.32
  Q 17.65 45.81 22.13 46.14
  C 23.53 46.24 24.27 45.42 25.66 45.93
  A 0.39 0.39 0.0 0 0 26.13 45.76
  L 26.30 45.46
  A 0.14 0.13 30.6 0 0 26.25 45.28
  L 23.73 43.83
  A 0.52 0.52 0.0 0 1 23.59 43.05
  Q 24.09 42.45 24.48 42.33
  A 0.59 0.59 0.0 0 1 25.25 42.87
  Q 25.25 42.90 25.26 43.11
  A 0.53 0.52 73.0 0 0 26.06 43.54
  Q 26.77 43.10 26.73 41.67
  A 0.29 0.29 0.0 0 1 27.16 41.41
  L 32.42 44.33
  A 0.44 0.44 0.0 0 1 32.57 44.96
  Q 32.30 45.35 32.52 47.53
  A 0.72 0.72 0.0 0 1 32.00 48.28
  Q 28.53 49.20 25.78 49.19
  C 24.53 49.18 23.47 48.17 22.66 48.28
  Q 22.02 48.36 21.77 47.60
  A 0.32 0.32 0.0 0 0 21.21 47.49
  Q 21.00 47.76 21.31 48.13
  A 0.31 0.31 0.0 0 1 21.07 48.64
  Z"
/>
<path fill="#ffffff" d="
  M 49.05 48.11
  A 0.19 0.19 0.0 0 1 49.04 48.47
  Q 43.59 49.87 39.69 48.76
  A 3.30 3.26 -41.2 0 0 38.35 48.68
  Q 36.17 49.02 34.32 47.62
  A 0.64 0.63 26.3 0 1 34.09 46.95
  Q 34.23 46.41 35.05 46.14
  A 0.51 0.49 -39.3 0 0 35.16 45.23
  Q 34.34 44.79 33.83 45.85
  A 0.36 0.36 0.0 0 1 33.40 46.03
  L 33.34 46.01
  A 0.32 0.32 0.0 0 1 33.12 45.62
  Q 33.18 45.42 33.57 44.89
  Q 33.88 44.48 34.27 44.40
  Q 37.12 43.83 39.52 41.58
  A 0.74 0.72 -44.4 0 1 40.52 41.58
  Q 40.55 41.61 40.50 42.74
  A 0.50 0.50 0.0 0 0 41.17 43.23
  L 42.08 42.92
  A 0.49 0.49 0.0 0 1 42.57 43.74
  Q 42.06 44.20 41.35 44.44
  A 0.57 0.57 0.0 0 0 41.00 45.17
  L 41.11 45.48
  A 0.39 0.37 -18.9 0 0 41.60 45.71
  Q 44.62 44.63 48.21 45.74
  Q 49.39 46.11 50.39 45.56
  A 0.33 0.33 0.0 0 1 50.80 46.06
  C 49.03 48.11 47.36 46.52 45.42 46.32
  A 0.30 0.30 0.0 0 0 45.30 46.90
  L 49.05 48.11
  Z"
/>
<path fill="#ffffff" d="
  M 32.93 48.33
  A 0.27 0.27 0.0 0 1 33.30 47.98
  Q 33.69 48.19 33.70 48.35
  A 0.30 0.30 0.0 0 1 33.22 48.61
  Q 32.99 48.45 32.93 48.33
  Z"
/>
</svg>
