<?xml version="1.0" encoding="UTF-8" standalone="no"?>
<!DOCTYPE svg PUBLIC "-//W3C//DTD SVG 1.1//EN" "http://www.w3.org/Graphics/SVG/1.1/DTD/svg11.dtd">
<svg xmlns="http://www.w3.org/2000/svg" version="1.1" viewBox="0.00 0.00 66.00 88.00">
<g stroke-width="2.00" fill="none" stroke-linecap="butt">
<path stroke="#6f562b" vector-effect="non-scaling-stroke" d="
  M 33.40 86.69
  Q 33.54 86.69 33.67 86.66
  A 0.17 0.10 -54.0 0 0 33.73 86.63
  Q 47.42 73.87 56.59 58.31
  C 65.20 43.71 68.52 25.27 55.93 12.10
  Q 47.51 3.28 35.00 2.52
  Q 34.18 2.47 33.55 2.47
  Q 32.92 2.47 32.10 2.52
  Q 19.59 3.23 11.13 12.02
  C -1.50 25.14 1.75 43.59 10.31 58.23
  Q 19.42 73.82 33.06 86.63
  A 0.17 0.10 54.2 0 0 33.12 86.65
  Q 33.26 86.69 33.40 86.69"
/>
<path stroke="#c9b99d" vector-effect="non-scaling-stroke" d="
  M 15.64 34.00
  C 15.64 40.02 19.60 47.45 25.56 49.46
  Q 30.23 51.03 31.49 51.83
  A 0.20 0.19 -85.0 0 0 31.77 51.59
  L 31.14 50.07
  A 0.82 0.78 -46.6 0 1 31.14 49.48
  Q 31.81 47.71 32.70 47.71
  Q 33.58 47.70 34.26 49.48
  A 0.82 0.78 46.6 0 1 34.25 50.07
  L 33.63 51.59
  A 0.20 0.19 84.9 0 0 33.91 51.83
  Q 35.17 51.03 39.83 49.45
  C 45.79 47.44 49.74 40.00 49.74 33.98
  C 49.74 27.96 45.77 20.53 39.81 18.53
  Q 35.14 16.95 33.88 16.15
  A 0.20 0.19 -85.0 0 0 33.60 16.39
  L 34.23 17.91
  A 0.82 0.78 -46.6 0 1 34.24 18.50
  Q 33.56 20.28 32.68 20.28
  Q 31.79 20.28 31.12 18.51
  A 0.82 0.78 46.6 0 1 31.12 17.91
  L 31.75 16.39
  A 0.20 0.19 84.9 0 0 31.47 16.15
  Q 30.21 16.96 25.54 18.53
  C 19.59 20.55 15.63 27.99 15.64 34.00"
/>
<path stroke="#c9b99d" vector-effect="non-scaling-stroke" d="
  M 38.69 20.17
  Q 37.55 19.43 37.19 19.44
  A 3.93 3.60 -86.3 0 0 33.77 22.72
  Q 33.46 24.56 33.86 26.95
  A 0.84 0.84 0.0 0 0 35.42 27.23
  L 38.92 21.16
  A 0.75 0.74 -58.5 0 0 38.69 20.17"
/>
<path stroke="#c9b99d" vector-effect="non-scaling-stroke" d="
  M 26.71 20.17
  A 0.75 0.74 58.7 0 0 26.47 21.17
  L 29.98 27.31
  A 0.85 0.85 0.0 0 0 31.56 27.03
  Q 31.97 24.62 31.66 22.76
  A 3.97 3.64 86.5 0 0 28.22 19.44
  Q 27.86 19.43 26.71 20.17"
/>
<path stroke="#c9b99d" vector-effect="non-scaling-stroke" d="
  M 22.06 23.38
  Q 21.09 24.35 20.60 25.20
  A 0.60 0.60 0.0 0 0 20.82 26.01
  Q 25.00 28.44 27.00 29.50
  Q 27.53 29.78 28.03 29.29
  Q 28.47 28.84 28.19 28.31
  Q 27.13 26.31 24.69 22.13
  A 0.60 0.60 0.0 0 0 23.88 21.92
  Q 23.03 22.40 22.06 23.38"
/>
<path stroke="#c9b99d" vector-effect="non-scaling-stroke" d="
  M 43.31 23.37
  Q 42.34 22.40 41.49 21.92
  A 0.60 0.60 0.0 0 0 40.68 22.13
  Q 38.25 26.31 37.20 28.30
  Q 36.91 28.84 37.41 29.33
  Q 37.85 29.78 38.39 29.49
  Q 40.38 28.44 44.56 26.00
  A 0.60 0.60 0.0 0 0 44.77 25.20
  Q 44.28 24.34 43.31 23.37"
/>
<path stroke="#c9b99d" vector-effect="non-scaling-stroke" d="
  M 18.18 30.14
  Q 17.83 31.46 17.84 32.44
  A 0.60 0.60 0.0 0 0 18.42 33.03
  Q 23.25 33.04 25.49 32.95
  Q 26.10 32.93 26.26 32.32
  Q 26.44 31.65 25.93 31.33
  Q 24.02 30.14 19.83 27.75
  A 0.60 0.60 0.0 0 0 19.03 27.97
  Q 18.53 28.82 18.18 30.14"
/>
<path stroke="#c9b99d" vector-effect="non-scaling-stroke" d="
  M 47.18 30.10
  Q 46.83 28.78 46.33 27.93
  A 0.60 0.60 0.0 0 0 45.53 27.71
  Q 41.34 30.11 39.43 31.30
  Q 38.91 31.62 39.08 32.23
  Q 39.26 32.91 39.86 32.93
  Q 42.11 33.01 46.94 33.00
  A 0.60 0.60 0.0 0 0 47.53 32.41
  Q 47.54 31.42 47.18 30.10"
/>
<path stroke="#c9b99d" vector-effect="non-scaling-stroke" d="
  M 36.19 34.00
  A 3.51 3.51 0.0 0 0 32.68 30.49
  A 3.51 3.51 0.0 0 0 29.17 34.00
  A 3.51 3.51 0.0 0 0 32.68 37.51
  A 3.51 3.51 0.0 0 0 36.19 34.00"
/>
<path stroke="#c9b99d" vector-effect="non-scaling-stroke" d="
  M 18.17 37.91
  Q 18.53 39.24 19.02 40.09
  A 0.60 0.60 0.0 0 0 19.83 40.30
  Q 24.03 37.91 25.94 36.71
  Q 26.45 36.39 26.29 35.78
  Q 26.11 35.11 25.51 35.09
  Q 23.25 35.00 18.42 35.02
  A 0.60 0.60 0.0 0 0 17.83 35.60
  Q 17.82 36.59 18.17 37.91"
/>
<path stroke="#c9b99d" vector-effect="non-scaling-stroke" d="
  M 47.19 37.89
  Q 47.55 36.57 47.54 35.59
  A 0.60 0.60 0.0 0 0 46.96 34.99
  Q 42.12 34.95 39.86 35.02
  Q 39.26 35.04 39.09 35.65
  Q 38.91 36.33 39.42 36.65
  Q 41.33 37.86 45.52 40.28
  A 0.60 0.60 0.0 0 0 46.32 40.07
  Q 46.83 39.22 47.19 37.89"
/>
<path stroke="#c9b99d" vector-effect="non-scaling-stroke" d="
  M 22.06 44.62
  Q 23.03 45.59 23.88 46.08
  A 0.60 0.60 0.0 0 0 24.69 45.87
  Q 27.14 41.69 28.20 39.69
  Q 28.49 39.16 27.99 38.66
  Q 27.55 38.21 27.01 38.50
  Q 25.01 39.55 20.82 41.98
  A 0.60 0.60 0.0 0 0 20.60 42.79
  Q 21.09 43.65 22.06 44.62"
/>
<path stroke="#c9b99d" vector-effect="non-scaling-stroke" d="
  M 43.31 44.60
  Q 44.27 43.63 44.75 42.78
  A 0.60 0.60 0.0 0 0 44.53 41.98
  Q 40.37 39.57 38.38 38.52
  Q 37.84 38.24 37.40 38.68
  Q 36.91 39.18 37.20 39.71
  Q 38.25 41.69 40.69 45.85
  A 0.60 0.60 0.0 0 0 41.49 46.06
  Q 42.35 45.57 43.31 44.60"
/>
<path stroke="#c9b99d" vector-effect="non-scaling-stroke" d="
  M 26.71 47.83
  Q 27.87 48.57 28.23 48.56
  A 3.97 3.64 -86.6 0 0 31.66 45.23
  Q 31.97 43.37 31.55 40.97
  A 0.85 0.85 0.0 0 0 29.98 40.69
  L 26.48 46.83
  A 0.75 0.74 -58.8 0 0 26.71 47.83"
/>
<path stroke="#c9b99d" vector-effect="non-scaling-stroke" d="
  M 38.69 47.84
  A 0.75 0.74 58.8 0 0 38.92 46.84
  L 35.43 40.73
  A 0.85 0.85 0.0 0 0 33.86 41.00
  Q 33.45 43.40 33.75 45.25
  A 3.95 3.62 86.6 0 0 37.17 48.56
  Q 37.54 48.57 38.69 47.84"
/>
<path stroke="#c9b99d" vector-effect="non-scaling-stroke" d="
  M 34.20 33.99
  A 1.49 1.49 0.0 0 0 32.71 32.50
  A 1.49 1.49 0.0 0 0 31.22 33.99
  A 1.49 1.49 0.0 0 0 32.71 35.48
  A 1.49 1.49 0.0 0 0 34.20 33.99"
/>
</g>
<path fill="#4b3a1c" d="
  M 33.79 88.00
  L 33.14 88.00
  Q 15.61 72.48 6.00 52.51
  Q 2.23 44.67 1.62 34.99
  Q 1.03 25.69 5.17 18.15
  C 11.46 6.69 23.60 0.28 36.51 1.46
  C 45.41 2.28 54.01 6.94 59.27 14.17
  Q 67.40 25.32 64.93 39.27
  Q 62.70 51.85 55.07 63.31
  Q 46.03 76.90 33.79 88.00
  Z
  M 33.40 86.69
  Q 33.54 86.69 33.67 86.66
  A 0.17 0.10 -54.0 0 0 33.73 86.63
  Q 47.42 73.87 56.59 58.31
  C 65.20 43.71 68.52 25.27 55.93 12.10
  Q 47.51 3.28 35.00 2.52
  Q 34.18 2.47 33.55 2.47
  Q 32.92 2.47 32.10 2.52
  Q 19.59 3.23 11.13 12.02
  C -1.50 25.14 1.75 43.59 10.31 58.23
  Q 19.42 73.82 33.06 86.63
  A 0.17 0.10 54.2 0 0 33.12 86.65
  Q 33.26 86.69 33.40 86.69
  Z"
/>
<path fill="#92723a" d="
  M 33.55 2.47
  Q 34.18 2.47 35.00 2.52
  Q 47.51 3.28 55.93 12.10
  C 68.52 25.27 65.20 43.71 56.59 58.31
  Q 47.42 73.87 33.73 86.63
  A 0.17 0.10 -54.0 0 1 33.67 86.66
  Q 33.54 86.69 33.40 86.69
  Q 33.26 86.69 33.12 86.65
  A 0.17 0.10 54.2 0 1 33.06 86.63
  Q 19.42 73.82 10.31 58.23
  C 1.75 43.59 -1.50 25.14 11.13 12.02
  Q 19.59 3.23 32.10 2.52
  Q 32.92 2.47 33.55 2.47
  Z
  M 15.64 34.00
  C 15.64 40.02 19.60 47.45 25.56 49.46
  Q 30.23 51.03 31.49 51.83
  A 0.20 0.19 -85.0 0 0 31.77 51.59
  L 31.14 50.07
  A 0.82 0.78 -46.6 0 1 31.14 49.48
  Q 31.81 47.71 32.70 47.71
  Q 33.58 47.70 34.26 49.48
  A 0.82 0.78 46.6 0 1 34.25 50.07
  L 33.63 51.59
  A 0.20 0.19 84.9 0 0 33.91 51.83
  Q 35.17 51.03 39.83 49.45
  C 45.79 47.44 49.74 40.00 49.74 33.98
  C 49.74 27.96 45.77 20.53 39.81 18.53
  Q 35.14 16.95 33.88 16.15
  A 0.20 0.19 -85.0 0 0 33.60 16.39
  L 34.23 17.91
  A 0.82 0.78 -46.6 0 1 34.24 18.50
  Q 33.56 20.28 32.68 20.28
  Q 31.79 20.28 31.12 18.51
  A 0.82 0.78 46.6 0 1 31.12 17.91
  L 31.75 16.39
  A 0.20 0.19 84.9 0 0 31.47 16.15
  Q 30.21 16.96 25.54 18.53
  C 19.59 20.55 15.63 27.99 15.64 34.00
  Z"
/>
<path fill="#ffffff" d="
  M 32.68 20.28
  Q 33.56 20.28 34.24 18.50
  A 0.82 0.78 -46.6 0 0 34.23 17.91
  L 33.60 16.39
  A 0.20 0.19 -85.0 0 1 33.88 16.15
  Q 35.14 16.95 39.81 18.53
  C 45.77 20.53 49.74 27.96 49.74 33.98
  C 49.74 40.00 45.79 47.44 39.83 49.45
  Q 35.17 51.03 33.91 51.83
  A 0.20 0.19 84.9 0 1 33.63 51.59
  L 34.25 50.07
  A 0.82 0.78 46.6 0 0 34.26 49.48
  Q 33.58 47.70 32.70 47.71
  Q 31.81 47.71 31.14 49.48
  A 0.82 0.78 -46.6 0 0 31.14 50.07
  L 31.77 51.59
  A 0.20 0.19 -85.0 0 1 31.49 51.83
  Q 30.23 51.03 25.56 49.46
  C 19.60 47.45 15.64 40.02 15.64 34.00
  C 15.63 27.99 19.59 20.55 25.54 18.53
  Q 30.21 16.96 31.47 16.15
  A 0.20 0.19 84.9 0 1 31.75 16.39
  L 31.12 17.91
  A 0.82 0.78 46.6 0 0 31.12 18.51
  Q 31.79 20.28 32.68 20.28
  Z
  M 38.69 20.17
  Q 37.55 19.43 37.19 19.44
  A 3.93 3.60 -86.3 0 0 33.77 22.72
  Q 33.46 24.56 33.86 26.95
  A 0.84 0.84 0.0 0 0 35.42 27.23
  L 38.92 21.16
  A 0.75 0.74 -58.5 0 0 38.69 20.17
  Z
  M 26.71 20.17
  A 0.75 0.74 58.7 0 0 26.47 21.17
  L 29.98 27.31
  A 0.85 0.85 0.0 0 0 31.56 27.03
  Q 31.97 24.62 31.66 22.76
  A 3.97 3.64 86.5 0 0 28.22 19.44
  Q 27.86 19.43 26.71 20.17
  Z
  M 22.06 23.38
  Q 21.09 24.35 20.60 25.20
  A 0.60 0.60 0.0 0 0 20.82 26.01
  Q 25.00 28.44 27.00 29.50
  Q 27.53 29.78 28.03 29.29
  Q 28.47 28.84 28.19 28.31
  Q 27.13 26.31 24.69 22.13
  A 0.60 0.60 0.0 0 0 23.88 21.92
  Q 23.03 22.40 22.06 23.38
  Z
  M 43.31 23.37
  Q 42.34 22.40 41.49 21.92
  A 0.60 0.60 0.0 0 0 40.68 22.13
  Q 38.25 26.31 37.20 28.30
  Q 36.91 28.84 37.41 29.33
  Q 37.85 29.78 38.39 29.49
  Q 40.38 28.44 44.56 26.00
  A 0.60 0.60 0.0 0 0 44.77 25.20
  Q 44.28 24.34 43.31 23.37
  Z
  M 18.18 30.14
  Q 17.83 31.46 17.84 32.44
  A 0.60 0.60 0.0 0 0 18.42 33.03
  Q 23.25 33.04 25.49 32.95
  Q 26.10 32.93 26.26 32.32
  Q 26.44 31.65 25.93 31.33
  Q 24.02 30.14 19.83 27.75
  A 0.60 0.60 0.0 0 0 19.03 27.97
  Q 18.53 28.82 18.18 30.14
  Z
  M 47.18 30.10
  Q 46.83 28.78 46.33 27.93
  A 0.60 0.60 0.0 0 0 45.53 27.71
  Q 41.34 30.11 39.43 31.30
  Q 38.91 31.62 39.08 32.23
  Q 39.26 32.91 39.86 32.93
  Q 42.11 33.01 46.94 33.00
  A 0.60 0.60 0.0 0 0 47.53 32.41
  Q 47.54 31.42 47.18 30.10
  Z
  M 36.19 34.00
  A 3.51 3.51 0.0 0 0 32.68 30.49
  A 3.51 3.51 0.0 0 0 29.17 34.00
  A 3.51 3.51 0.0 0 0 32.68 37.51
  A 3.51 3.51 0.0 0 0 36.19 34.00
  Z
  M 18.17 37.91
  Q 18.53 39.24 19.02 40.09
  A 0.60 0.60 0.0 0 0 19.83 40.30
  Q 24.03 37.91 25.94 36.71
  Q 26.45 36.39 26.29 35.78
  Q 26.11 35.11 25.51 35.09
  Q 23.25 35.00 18.42 35.02
  A 0.60 0.60 0.0 0 0 17.83 35.60
  Q 17.82 36.59 18.17 37.91
  Z
  M 47.19 37.89
  Q 47.55 36.57 47.54 35.59
  A 0.60 0.60 0.0 0 0 46.96 34.99
  Q 42.12 34.95 39.86 35.02
  Q 39.26 35.04 39.09 35.65
  Q 38.91 36.33 39.42 36.65
  Q 41.33 37.86 45.52 40.28
  A 0.60 0.60 0.0 0 0 46.32 40.07
  Q 46.83 39.22 47.19 37.89
  Z
  M 22.06 44.62
  Q 23.03 45.59 23.88 46.08
  A 0.60 0.60 0.0 0 0 24.69 45.87
  Q 27.14 41.69 28.20 39.69
  Q 28.49 39.16 27.99 38.66
  Q 27.55 38.21 27.01 38.50
  Q 25.01 39.55 20.82 41.98
  A 0.60 0.60 0.0 0 0 20.60 42.79
  Q 21.09 43.65 22.06 44.62
  Z
  M 43.31 44.60
  Q 44.27 43.63 44.75 42.78
  A 0.60 0.60 0.0 0 0 44.53 41.98
  Q 40.37 39.57 38.38 38.52
  Q 37.84 38.24 37.40 38.68
  Q 36.91 39.18 37.20 39.71
  Q 38.25 41.69 40.69 45.85
  A 0.60 0.60 0.0 0 0 41.49 46.06
  Q 42.35 45.57 43.31 44.60
  Z
  M 26.71 47.83
  Q 27.87 48.57 28.23 48.56
  A 3.97 3.64 -86.6 0 0 31.66 45.23
  Q 31.97 43.37 31.55 40.97
  A 0.85 0.85 0.0 0 0 29.98 40.69
  L 26.48 46.83
  A 0.75 0.74 -58.8 0 0 26.71 47.83
  Z
  M 38.69 47.84
  A 0.75 0.74 58.8 0 0 38.92 46.84
  L 35.43 40.73
  A 0.85 0.85 0.0 0 0 33.86 41.00
  Q 33.45 43.40 33.75 45.25
  A 3.95 3.62 86.6 0 0 37.17 48.56
  Q 37.54 48.57 38.69 47.84
  Z"
/>
<path fill="#92723a" d="
  M 38.92 21.16
  L 35.42 27.23
  A 0.84 0.84 0.0 0 1 33.86 26.95
  Q 33.46 24.56 33.77 22.72
  A 3.93 3.60 -86.3 0 1 37.19 19.44
  Q 37.55 19.43 38.69 20.17
  A 0.75 0.74 -58.5 0 1 38.92 21.16
  Z"
/>
<path fill="#92723a" d="
  M 26.71 20.17
  Q 27.86 19.43 28.22 19.44
  A 3.97 3.64 86.5 0 1 31.66 22.76
  Q 31.97 24.62 31.56 27.03
  A 0.85 0.85 0.0 0 1 29.98 27.31
  L 26.47 21.17
  A 0.75 0.74 58.7 0 1 26.71 20.17
  Z"
/>
<path fill="#92723a" d="
  M 22.06 23.38
  Q 23.03 22.40 23.88 21.92
  A 0.60 0.60 0.0 0 1 24.69 22.13
  Q 27.13 26.31 28.19 28.31
  Q 28.47 28.84 28.03 29.29
  Q 27.53 29.78 27.00 29.50
  Q 25.00 28.44 20.82 26.01
  A 0.60 0.60 0.0 0 1 20.60 25.20
  Q 21.09 24.35 22.06 23.38
  Z"
/>
<path fill="#92723a" d="
  M 43.31 23.37
  Q 44.28 24.34 44.77 25.20
  A 0.60 0.60 0.0 0 1 44.56 26.00
  Q 40.38 28.44 38.39 29.49
  Q 37.85 29.78 37.41 29.33
  Q 36.91 28.84 37.20 28.30
  Q 38.25 26.31 40.68 22.13
  A 0.60 0.60 0.0 0 1 41.49 21.92
  Q 42.34 22.40 43.31 23.37
  Z"
/>
<path fill="#92723a" d="
  M 18.18 30.14
  Q 18.53 28.82 19.03 27.97
  A 0.60 0.60 0.0 0 1 19.83 27.75
  Q 24.02 30.14 25.93 31.33
  Q 26.44 31.65 26.26 32.32
  Q 26.10 32.93 25.49 32.95
  Q 23.25 33.04 18.42 33.03
  A 0.60 0.60 0.0 0 1 17.84 32.44
  Q 17.83 31.46 18.18 30.14
  Z"
/>
<path fill="#92723a" d="
  M 47.18 30.10
  Q 47.54 31.42 47.53 32.41
  A 0.60 0.60 0.0 0 1 46.94 33.00
  Q 42.11 33.01 39.86 32.93
  Q 39.26 32.91 39.08 32.23
  Q 38.91 31.62 39.43 31.30
  Q 41.34 30.11 45.53 27.71
  A 0.60 0.60 0.0 0 1 46.33 27.93
  Q 46.83 28.78 47.18 30.10
  Z"
/>
<path fill="#92723a" d="
  M 36.19 34.00
  A 3.51 3.51 0.0 0 1 32.68 37.51
  A 3.51 3.51 0.0 0 1 29.17 34.00
  A 3.51 3.51 0.0 0 1 32.68 30.49
  A 3.51 3.51 0.0 0 1 36.19 34.00
  Z
  M 34.20 33.99
  A 1.49 1.49 0.0 0 0 32.71 32.50
  A 1.49 1.49 0.0 0 0 31.22 33.99
  A 1.49 1.49 0.0 0 0 32.71 35.48
  A 1.49 1.49 0.0 0 0 34.20 33.99
  Z"
/>
<circle fill="#ffffff" cx="32.71" cy="33.99" r="1.49"/>
<path fill="#92723a" d="
  M 18.17 37.91
  Q 17.82 36.59 17.83 35.60
  A 0.60 0.60 0.0 0 1 18.42 35.02
  Q 23.25 35.00 25.51 35.09
  Q 26.11 35.11 26.29 35.78
  Q 26.45 36.39 25.94 36.71
  Q 24.03 37.91 19.83 40.30
  A 0.60 0.60 0.0 0 1 19.02 40.09
  Q 18.53 39.24 18.17 37.91
  Z"
/>
<path fill="#92723a" d="
  M 47.19 37.89
  Q 46.83 39.22 46.32 40.07
  A 0.60 0.60 0.0 0 1 45.52 40.28
  Q 41.33 37.86 39.42 36.65
  Q 38.91 36.33 39.09 35.65
  Q 39.26 35.04 39.86 35.02
  Q 42.12 34.95 46.96 34.99
  A 0.60 0.60 0.0 0 1 47.54 35.59
  Q 47.55 36.57 47.19 37.89
  Z"
/>
<path fill="#92723a" d="
  M 27.99 38.66
  Q 28.49 39.16 28.20 39.69
  Q 27.14 41.69 24.69 45.87
  A 0.60 0.60 0.0 0 1 23.88 46.08
  Q 23.03 45.59 22.06 44.62
  Q 21.09 43.65 20.60 42.79
  A 0.60 0.60 0.0 0 1 20.82 41.98
  Q 25.01 39.55 27.01 38.50
  Q 27.55 38.21 27.99 38.66
  Z"
/>
<path fill="#92723a" d="
  M 43.31 44.60
  Q 42.35 45.57 41.49 46.06
  A 0.60 0.60 0.0 0 1 40.69 45.85
  Q 38.25 41.69 37.20 39.71
  Q 36.91 39.18 37.40 38.68
  Q 37.84 38.24 38.38 38.52
  Q 40.37 39.57 44.53 41.98
  A 0.60 0.60 0.0 0 1 44.75 42.78
  Q 44.27 43.63 43.31 44.60
  Z"
/>
<path fill="#92723a" d="
  M 26.71 47.83
  A 0.75 0.74 -58.8 0 1 26.48 46.83
  L 29.98 40.69
  A 0.85 0.85 0.0 0 1 31.55 40.97
  Q 31.97 43.37 31.66 45.23
  A 3.97 3.64 -86.6 0 1 28.23 48.56
  Q 27.87 48.57 26.71 47.83
  Z"
/>
<path fill="#92723a" d="
  M 38.69 47.84
  Q 37.54 48.57 37.17 48.56
  A 3.95 3.62 86.6 0 1 33.75 45.25
  Q 33.45 43.40 33.86 41.00
  A 0.85 0.85 0.0 0 1 35.43 40.73
  L 38.92 46.84
  A 0.75 0.74 58.8 0 1 38.69 47.84
  Z"
/>
</svg>
