<?xml version="1.0" encoding="UTF-8" standalone="no"?>
<!DOCTYPE svg PUBLIC "-//W3C//DTD SVG 1.1//EN" "http://www.w3.org/Graphics/SVG/1.1/DTD/svg11.dtd">
<svg xmlns="http://www.w3.org/2000/svg" version="1.1" viewBox="0.00 0.00 66.00 88.00">
<g stroke-width="2.00" fill="none" stroke-linecap="butt">
<path stroke="#2a5d6e" vector-effect="non-scaling-stroke" d="
  M 33.40 86.71
  Q 33.51 86.71 33.61 86.69
  Q 33.68 86.67 33.76 86.59
  C 45.10 75.84 55.96 62.51 61.40 47.98
  Q 65.55 36.88 63.80 27.56
  C 61.05 12.98 48.52 2.53 33.53 2.51
  C 18.53 2.49 5.98 12.89 3.18 27.47
  Q 1.40 36.78 5.52 47.89
  C 10.92 62.44 21.74 75.80 33.04 86.59
  Q 33.12 86.67 33.19 86.69
  Q 33.29 86.71 33.40 86.71"
/>
<path stroke="#9dbdc8" vector-effect="non-scaling-stroke" d="
  M 31.94 17.81
  Q 31.86 17.27 30.25 16.21
  A 0.61 0.60 -73.2 0 0 29.31 16.72
  L 29.31 17.99
  A 0.37 0.37 0.0 0 1 28.75 18.31
  Q 26.37 16.95 23.21 17.85
  A 0.32 0.31 -39.3 0 0 23.15 18.43
  Q 26.59 20.25 27.98 23.11
  A 1.15 1.12 -4.5 0 0 28.70 23.71
  Q 32.01 24.61 35.10 23.65
  A 0.96 0.94 -1.8 0 0 35.74 22.98
  Q 36.72 19.17 39.38 16.55
  A 0.27 0.26 17.1 0 0 39.14 16.10
  Q 36.72 16.60 35.70 17.80
  A 0.35 0.35 0.0 0 1 35.09 17.64
  Q 34.89 16.71 34.48 16.08
  A 0.61 0.61 0.0 0 0 33.63 15.91
  Q 33.14 16.23 32.57 17.87
  A 0.33 0.33 0.0 0 1 31.94 17.81"
/>
<path stroke="#9dbdc8" vector-effect="non-scaling-stroke" d="
  M 45.26 50.18
  L 44.36 49.28
  A 2.12 2.11 22.3 0 1 43.74 47.81
  C 43.64 39.11 43.43 32.60 37.10 25.93
  A 0.58 0.57 65.9 0 0 36.67 25.76
  L 28.18 25.97
  A 0.61 0.61 0.0 0 0 27.79 26.11
  C 22.09 30.55 21.29 37.22 22.01 44.00
  Q 22.39 47.48 20.32 49.89
  A 0.43 0.43 0.0 0 0 20.57 50.59
  Q 26.73 51.65 31.50 52.28
  Q 33.81 52.58 45.02 50.93
  A 0.44 0.44 0.0 0 0 45.26 50.18"
/>
<path stroke="#9dbdc8" vector-effect="non-scaling-stroke" d="
  M 32.29 42.80
  Q 32.44 42.79 32.50 42.85
  Q 36.13 46.28 36.94 47.29
  A 0.63 0.63 0.0 0 0 37.88 47.34
  L 38.29 46.93
  A 0.66 0.65 -45.3 0 0 38.29 46.00
  L 33.93 41.64
  A 0.51 0.50 45.4 0 1 33.93 40.93
  L 38.57 36.29
  A 0.44 0.44 0.0 0 0 38.57 35.67
  Q 38.14 35.23 32.49 29.66
  Q 32.42 29.59 32.22 29.59
  Q 32.02 29.59 31.95 29.66
  Q 26.36 35.30 25.94 35.74
  A 0.44 0.44 0.0 0 0 25.94 36.36
  L 30.64 40.95
  A 0.51 0.50 -46.0 0 1 30.64 41.66
  L 26.33 46.07
  A 0.66 0.65 44.7 0 0 26.34 47.00
  L 26.76 47.40
  A 0.63 0.63 0.0 0 0 27.70 47.34
  Q 28.50 46.32 32.09 42.85
  Q 32.15 42.80 32.29 42.80"
/>
<path stroke="#9dbdc8" vector-effect="non-scaling-stroke" d="
  M 32.5761 32.4192
  A 0.44 0.44 0.0 0 0 31.9538 32.4171
  L 28.6898 35.6584
  A 0.44 0.44 0.0 0 0 28.6876 36.2806
  L 32.0839 39.7008
  A 0.44 0.44 0.0 0 0 32.7062 39.7029
  L 35.9702 36.4616
  A 0.44 0.44 0.0 0 0 35.9724 35.8394
  L 32.5761 32.4192"
/>
</g>
<path fill="#1a404b" d="
  M 33.79 88.00
  L 33.04 88.00
  C 21.94 77.91 11.93 65.51 5.64 51.57
  Q 2.23 44.00 1.60 34.90
  C 0.50 18.91 11.37 5.50 26.73 2.05
  C 41.21 -1.21 56.12 6.11 62.69 19.93
  C 66.94 28.88 65.90 40.02 62.34 49.05
  C 56.50 63.87 45.53 77.35 33.79 88.00
  Z
  M 33.40 86.71
  Q 33.51 86.71 33.61 86.69
  Q 33.68 86.67 33.76 86.59
  C 45.10 75.84 55.96 62.51 61.40 47.98
  Q 65.55 36.88 63.80 27.56
  C 61.05 12.98 48.52 2.53 33.53 2.51
  C 18.53 2.49 5.98 12.89 3.18 27.47
  Q 1.40 36.78 5.52 47.89
  C 10.92 62.44 21.74 75.80 33.04 86.59
  Q 33.12 86.67 33.19 86.69
  Q 33.29 86.71 33.40 86.71
  Z"
/>
<path fill="#3a7a91" d="
  M 33.53 2.51
  C 48.52 2.53 61.05 12.98 63.80 27.56
  Q 65.55 36.88 61.40 47.98
  C 55.96 62.51 45.10 75.84 33.76 86.59
  Q 33.68 86.67 33.61 86.69
  Q 33.51 86.71 33.40 86.71
  Q 33.29 86.71 33.19 86.69
  Q 33.12 86.67 33.04 86.59
  C 21.74 75.80 10.92 62.44 5.52 47.89
  Q 1.40 36.78 3.18 27.47
  C 5.98 12.89 18.53 2.49 33.53 2.51
  Z
  M 31.94 17.81
  Q 31.86 17.27 30.25 16.21
  A 0.61 0.60 -73.2 0 0 29.31 16.72
  L 29.31 17.99
  A 0.37 0.37 0.0 0 1 28.75 18.31
  Q 26.37 16.95 23.21 17.85
  A 0.32 0.31 -39.3 0 0 23.15 18.43
  Q 26.59 20.25 27.98 23.11
  A 1.15 1.12 -4.5 0 0 28.70 23.71
  Q 32.01 24.61 35.10 23.65
  A 0.96 0.94 -1.8 0 0 35.74 22.98
  Q 36.72 19.17 39.38 16.55
  A 0.27 0.26 17.1 0 0 39.14 16.10
  Q 36.72 16.60 35.70 17.80
  A 0.35 0.35 0.0 0 1 35.09 17.64
  Q 34.89 16.71 34.48 16.08
  A 0.61 0.61 0.0 0 0 33.63 15.91
  Q 33.14 16.23 32.57 17.87
  A 0.33 0.33 0.0 0 1 31.94 17.81
  Z
  M 45.26 50.18
  L 44.36 49.28
  A 2.12 2.11 22.3 0 1 43.74 47.81
  C 43.64 39.11 43.43 32.60 37.10 25.93
  A 0.58 0.57 65.9 0 0 36.67 25.76
  L 28.18 25.97
  A 0.61 0.61 0.0 0 0 27.79 26.11
  C 22.09 30.55 21.29 37.22 22.01 44.00
  Q 22.39 47.48 20.32 49.89
  A 0.43 0.43 0.0 0 0 20.57 50.59
  Q 26.73 51.65 31.50 52.28
  Q 33.81 52.58 45.02 50.93
  A 0.44 0.44 0.0 0 0 45.26 50.18
  Z"
/>
<path fill="#ffffff" d="
  M 31.94 17.81
  A 0.33 0.33 0.0 0 0 32.57 17.87
  Q 33.14 16.23 33.63 15.91
  A 0.61 0.61 0.0 0 1 34.48 16.08
  Q 34.89 16.71 35.09 17.64
  A 0.35 0.35 0.0 0 0 35.70 17.80
  Q 36.72 16.60 39.14 16.10
  A 0.27 0.26 17.1 0 1 39.38 16.55
  Q 36.72 19.17 35.74 22.98
  A 0.96 0.94 -1.8 0 1 35.10 23.65
  Q 32.01 24.61 28.70 23.71
  A 1.15 1.12 -4.5 0 1 27.98 23.11
  Q 26.59 20.25 23.15 18.43
  A 0.32 0.31 -39.3 0 1 23.21 17.85
  Q 26.37 16.95 28.75 18.31
  A 0.37 0.37 0.0 0 0 29.31 17.99
  L 29.31 16.72
  A 0.61 0.60 -73.2 0 1 30.25 16.21
  Q 31.86 17.27 31.94 17.81
  Z"
/>
<path fill="#ffffff" d="
  M 45.02 50.93
  Q 33.81 52.58 31.50 52.28
  Q 26.73 51.65 20.57 50.59
  A 0.43 0.43 0.0 0 1 20.32 49.89
  Q 22.39 47.48 22.01 44.00
  C 21.29 37.22 22.09 30.55 27.79 26.11
  A 0.61 0.61 0.0 0 1 28.18 25.97
  L 36.67 25.76
  A 0.58 0.57 65.9 0 1 37.10 25.93
  C 43.43 32.60 43.64 39.11 43.74 47.81
  A 2.12 2.11 22.3 0 0 44.36 49.28
  L 45.26 50.18
  A 0.44 0.44 0.0 0 1 45.02 50.93
  Z
  M 32.29 42.80
  Q 32.44 42.79 32.50 42.85
  Q 36.13 46.28 36.94 47.29
  A 0.63 0.63 0.0 0 0 37.88 47.34
  L 38.29 46.93
  A 0.66 0.65 -45.3 0 0 38.29 46.00
  L 33.93 41.64
  A 0.51 0.50 45.4 0 1 33.93 40.93
  L 38.57 36.29
  A 0.44 0.44 0.0 0 0 38.57 35.67
  Q 38.14 35.23 32.49 29.66
  Q 32.42 29.59 32.22 29.59
  Q 32.02 29.59 31.95 29.66
  Q 26.36 35.30 25.94 35.74
  A 0.44 0.44 0.0 0 0 25.94 36.36
  L 30.64 40.95
  A 0.51 0.50 -46.0 0 1 30.64 41.66
  L 26.33 46.07
  A 0.66 0.65 44.7 0 0 26.34 47.00
  L 26.76 47.40
  A 0.63 0.63 0.0 0 0 27.70 47.34
  Q 28.50 46.32 32.09 42.85
  Q 32.15 42.80 32.29 42.80
  Z"
/>
<path fill="#3a7a91" d="
  M 32.22 29.59
  Q 32.42 29.59 32.49 29.66
  Q 38.14 35.23 38.57 35.67
  A 0.44 0.44 0.0 0 1 38.57 36.29
  L 33.93 40.93
  A 0.51 0.50 45.4 0 0 33.93 41.64
  L 38.29 46.00
  A 0.66 0.65 -45.3 0 1 38.29 46.93
  L 37.88 47.34
  A 0.63 0.63 0.0 0 1 36.94 47.29
  Q 36.13 46.28 32.50 42.85
  Q 32.44 42.79 32.29 42.80
  Q 32.15 42.80 32.09 42.85
  Q 28.50 46.32 27.70 47.34
  A 0.63 0.63 0.0 0 1 26.76 47.40
  L 26.34 47.00
  A 0.66 0.65 44.7 0 1 26.33 46.07
  L 30.64 41.66
  A 0.51 0.50 -46.0 0 0 30.64 40.95
  L 25.94 36.36
  A 0.44 0.44 0.0 0 1 25.94 35.74
  Q 26.36 35.30 31.95 29.66
  Q 32.02 29.59 32.22 29.59
  Z
  M 32.5761 32.4192
  A 0.44 0.44 0.0 0 0 31.9538 32.4171
  L 28.6898 35.6584
  A 0.44 0.44 0.0 0 0 28.6876 36.2806
  L 32.0839 39.7008
  A 0.44 0.44 0.0 0 0 32.7062 39.7029
  L 35.9702 36.4616
  A 0.44 0.44 0.0 0 0 35.9724 35.8394
  L 32.5761 32.4192
  Z"
/>
<rect fill="#ffffff" x="-2.74" y="-2.85" transform="translate(32.33,36.06) rotate(-44.8)" width="5.48" height="5.70" rx="0.44"/>
</svg>
