<?xml version="1.0" encoding="UTF-8" standalone="no"?>
<!DOCTYPE svg PUBLIC "-//W3C//DTD SVG 1.1//EN" "http://www.w3.org/Graphics/SVG/1.1/DTD/svg11.dtd">
<svg xmlns="http://www.w3.org/2000/svg" version="1.1" viewBox="0.00 0.00 66.00 88.00">
<g stroke-width="2.00" fill="none" stroke-linecap="butt">
<path stroke="#353846" vector-effect="non-scaling-stroke" d="
  M 33.42 86.58
  C 34.18 86.58 33.55 86.64 33.78 86.43
  C 46.88 74.37 61.30 56.42 63.79 38.69
  Q 66.74 17.73 48.96 6.65
  Q 42.29 2.50 33.52 2.49
  Q 24.74 2.48 18.07 6.61
  Q 0.26 17.65 3.16 38.62
  C 5.61 56.36 19.99 74.34 33.06 86.43
  C 33.29 86.64 32.66 86.58 33.42 86.58"
/>
<path stroke="#a3a4ae" vector-effect="non-scaling-stroke" d="
  M 32.70 33.43
  Q 23.22 42.93 23.03 43.09
  A 1.71 1.68 22.6 0 1 21.89 43.55
  L 17.61 43.57
  A 0.61 0.61 0.0 0 0 17.01 44.18
  L 17.03 49.97
  A 0.20 0.05 52.9 0 0 17.08 50.09
  Q 17.10 50.12 17.13 50.15
  Q 17.15 50.17 17.18 50.19
  A 0.20 0.05 37.0 0 0 17.30 50.24
  L 23.09 50.25
  A 0.61 0.61 0.0 0 0 23.70 49.64
  L 23.71 45.36
  A 1.71 1.68 67.2 0 1 24.16 44.23
  Q 24.33 44.03 33.80 34.53
  Q 43.28 25.03 43.48 24.87
  A 1.71 1.68 22.6 0 1 44.61 24.41
  L 48.89 24.39
  A 0.61 0.61 0.0 0 0 49.49 23.78
  L 49.47 17.99
  A 0.20 0.05 52.9 0 0 49.42 17.87
  Q 49.40 17.84 49.38 17.82
  Q 49.35 17.79 49.32 17.77
  A 0.20 0.05 37.0 0 0 49.20 17.72
  L 43.41 17.71
  A 0.61 0.61 0.0 0 0 42.80 18.32
  L 42.79 22.60
  A 1.71 1.68 67.2 0 1 42.34 23.73
  Q 42.17 23.93 32.70 33.43"
/>
</g>
<path fill="#232630" d="
  M 33.81 88.00
  L 33.03 88.00
  C 19.68 75.91 4.48 57.16 1.96 38.77
  Q -0.15 23.33 8.73 12.89
  C 19.20 0.59 36.66 -2.37 50.56 6.21
  C 60.38 12.28 65.96 22.85 65.42 34.46
  Q 65.05 42.32 62.13 49.56
  C 56.19 64.24 45.43 77.38 33.81 88.00
  Z
  M 33.42 86.58
  C 34.18 86.58 33.55 86.64 33.78 86.43
  C 46.88 74.37 61.30 56.42 63.79 38.69
  Q 66.74 17.73 48.96 6.65
  Q 42.29 2.50 33.52 2.49
  Q 24.74 2.48 18.07 6.61
  Q 0.26 17.65 3.16 38.62
  C 5.61 56.36 19.99 74.34 33.06 86.43
  C 33.29 86.64 32.66 86.58 33.42 86.58
  Z"
/>
<path fill="#46495c" d="
  M 33.52 2.49
  Q 42.29 2.50 48.96 6.65
  Q 66.74 17.73 63.79 38.69
  C 61.30 56.42 46.88 74.37 33.78 86.43
  C 33.55 86.64 34.18 86.58 33.42 86.58
  C 32.66 86.58 33.29 86.64 33.06 86.43
  C 19.99 74.34 5.61 56.36 3.16 38.62
  Q 0.26 17.65 18.07 6.61
  Q 24.74 2.48 33.52 2.49
  Z
  M 32.70 33.43
  Q 23.22 42.93 23.03 43.09
  A 1.71 1.68 22.6 0 1 21.89 43.55
  L 17.61 43.57
  A 0.61 0.61 0.0 0 0 17.01 44.18
  L 17.03 49.97
  A 0.20 0.05 52.9 0 0 17.08 50.09
  Q 17.10 50.12 17.13 50.15
  Q 17.15 50.17 17.18 50.19
  A 0.20 0.05 37.0 0 0 17.30 50.24
  L 23.09 50.25
  A 0.61 0.61 0.0 0 0 23.70 49.64
  L 23.71 45.36
  A 1.71 1.68 67.2 0 1 24.16 44.23
  Q 24.33 44.03 33.80 34.53
  Q 43.28 25.03 43.48 24.87
  A 1.71 1.68 22.6 0 1 44.61 24.41
  L 48.89 24.39
  A 0.61 0.61 0.0 0 0 49.49 23.78
  L 49.47 17.99
  A 0.20 0.05 52.9 0 0 49.42 17.87
  Q 49.40 17.84 49.38 17.82
  Q 49.35 17.79 49.32 17.77
  A 0.20 0.05 37.0 0 0 49.20 17.72
  L 43.41 17.71
  A 0.61 0.61 0.0 0 0 42.80 18.32
  L 42.79 22.60
  A 1.71 1.68 67.2 0 1 42.34 23.73
  Q 42.17 23.93 32.70 33.43
  Z"
/>
<path fill="#ffffff" d="
  M 49.38 17.82
  Q 49.40 17.84 49.42 17.87
  A 0.20 0.05 52.9 0 1 49.47 17.99
  L 49.49 23.78
  A 0.61 0.61 0.0 0 1 48.89 24.39
  L 44.61 24.41
  A 1.71 1.68 22.6 0 0 43.48 24.87
  Q 43.28 25.03 33.80 34.53
  Q 24.33 44.03 24.16 44.23
  A 1.71 1.68 67.2 0 0 23.71 45.36
  L 23.70 49.64
  A 0.61 0.61 0.0 0 1 23.09 50.25
  L 17.30 50.24
  A 0.20 0.05 37.0 0 1 17.18 50.19
  Q 17.15 50.17 17.13 50.15
  Q 17.10 50.12 17.08 50.09
  A 0.20 0.05 52.9 0 1 17.03 49.97
  L 17.01 44.18
  A 0.61 0.61 0.0 0 1 17.61 43.57
  L 21.89 43.55
  A 1.71 1.68 22.6 0 0 23.03 43.09
  Q 23.22 42.93 32.70 33.43
  Q 42.17 23.93 42.34 23.73
  A 1.71 1.68 67.2 0 0 42.79 22.60
  L 42.80 18.32
  A 0.61 0.61 0.0 0 1 43.41 17.71
  L 49.20 17.72
  A 0.20 0.05 37.0 0 1 49.32 17.77
  Q 49.35 17.79 49.38 17.82
  Z"
/>
</svg>
