<?xml version="1.0" encoding="UTF-8" standalone="no"?>
<!DOCTYPE svg PUBLIC "-//W3C//DTD SVG 1.1//EN" "http://www.w3.org/Graphics/SVG/1.1/DTD/svg11.dtd">
<svg xmlns="http://www.w3.org/2000/svg" version="1.1" viewBox="0.00 0.00 66.00 88.00">
<g stroke-width="2.00" fill="none" stroke-linecap="butt">
<path stroke="#80242a" vector-effect="non-scaling-stroke" d="
  M 33.40 86.68
  Q 33.50 86.68 33.61 86.66
  Q 33.68 86.65 33.76 86.57
  Q 45.15 75.81 53.39 63.55
  C 64.04 47.68 70.31 26.94 55.67 11.86
  C 49.94 5.96 41.95 2.48 33.53 2.47
  C 25.10 2.45 17.11 5.91 11.36 11.80
  C -3.33 26.83 2.88 47.59 13.49 63.49
  Q 21.69 75.78 33.05 86.57
  Q 33.13 86.65 33.20 86.66
  Q 33.30 86.68 33.40 86.68"
/>
<path stroke="#d4989c" vector-effect="non-scaling-stroke" d="
  M 31.15 24.50
  L 25.90 27.53
  A 1.24 1.19 88.8 0 0 25.44 28.03
  L 19.54 40.22
  A 1.20 1.13 84.4 0 1 19.24 40.61
  Q 18.69 41.07 18.00 41.17
  A 1.20 1.18 8.4 0 0 17.13 41.81
  L 14.82 46.59
  A 0.45 0.45 0.0 0 0 15.23 47.24
  L 29.57 47.24
  A 0.94 0.94 0.0 0 0 30.39 46.76
  L 33.44 41.37
  A 2.84 2.82 57.5 0 0 33.79 39.76
  L 33.20 33.00
  A 1.88 1.84 59.9 0 1 33.50 31.83
  L 39.36 23.17
  A 0.51 0.51 0.0 0 0 39.16 22.43
  L 36.88 21.33
  A 0.51 0.51 0.0 0 0 36.24 21.50
  L 27.62 34.26
  A 0.13 0.13 0.0 0 1 27.46 34.31
  L 27.45 34.31
  A 0.15 0.15 0.0 0 1 27.41 34.14
  L 31.34 24.67
  A 0.14 0.13 86.3 0 0 31.15 24.50"
/>
<path stroke="#d4989c" vector-effect="non-scaling-stroke" d="
  M 41.24 40.13
  L 44.61 33.16
  A 0.99 0.99 0.0 0 0 44.37 31.97
  L 42.96 30.76
  A 1.02 1.00 -58.7 0 1 42.69 29.61
  L 44.28 25.80
  A 1.16 1.15 -17.8 0 0 42.23 24.75
  L 37.01 33.14
  A 1.44 1.40 -31.7 0 0 36.80 33.98
  L 37.35 41.00
  A 1.75 1.68 -33.5 0 1 37.12 42.02
  L 34.38 46.72
  A 0.35 0.34 15.3 0 0 34.68 47.24
  L 50.84 47.24
  A 0.32 0.32 0.0 0 0 51.05 46.68
  L 50.04 45.81
  A 1.70 1.69 -71.0 0 1 49.45 44.59
  L 49.18 36.29
  A 1.00 0.92 28.4 0 0 49.00 35.77
  L 47.68 33.94
  A 0.51 0.51 0.0 0 0 46.88 33.91
  L 41.43 40.26
  A 0.12 0.12 0.0 0 1 41.24 40.13"
/>
</g>
<path fill="#58171a" d="
  M 33.81 88.00
  L 33.04 88.00
  C 21.77 77.76 12.09 65.65 5.65 51.57
  Q 2.21 44.05 1.60 34.90
  C 0.54 18.97 11.19 5.68 26.50 2.10
  C 40.95 -1.27 55.90 5.94 62.58 19.69
  C 66.92 28.64 65.94 39.77 62.41 48.85
  C 56.63 63.75 45.56 77.31 33.81 88.00
  Z
  M 33.40 86.68
  Q 33.50 86.68 33.61 86.66
  Q 33.68 86.65 33.76 86.57
  Q 45.15 75.81 53.39 63.55
  C 64.04 47.68 70.31 26.94 55.67 11.86
  C 49.94 5.96 41.95 2.48 33.53 2.47
  C 25.10 2.45 17.11 5.91 11.36 11.80
  C -3.33 26.83 2.88 47.59 13.49 63.49
  Q 21.69 75.78 33.05 86.57
  Q 33.13 86.65 33.20 86.66
  Q 33.30 86.68 33.40 86.68
  Z"
/>
<path fill="#a83139" d="
  M 33.53 2.47
  C 41.95 2.48 49.94 5.96 55.67 11.86
  C 70.31 26.94 64.04 47.68 53.39 63.55
  Q 45.15 75.81 33.76 86.57
  Q 33.68 86.65 33.61 86.66
  Q 33.50 86.68 33.40 86.68
  Q 33.30 86.68 33.20 86.66
  Q 33.13 86.65 33.05 86.57
  Q 21.69 75.78 13.49 63.49
  C 2.88 47.59 -3.33 26.83 11.36 11.80
  C 17.11 5.91 25.10 2.45 33.53 2.47
  Z
  M 31.15 24.50
  L 25.90 27.53
  A 1.24 1.19 88.8 0 0 25.44 28.03
  L 19.54 40.22
  A 1.20 1.13 84.4 0 1 19.24 40.61
  Q 18.69 41.07 18.00 41.17
  A 1.20 1.18 8.4 0 0 17.13 41.81
  L 14.82 46.59
  A 0.45 0.45 0.0 0 0 15.23 47.24
  L 29.57 47.24
  A 0.94 0.94 0.0 0 0 30.39 46.76
  L 33.44 41.37
  A 2.84 2.82 57.5 0 0 33.79 39.76
  L 33.20 33.00
  A 1.88 1.84 59.9 0 1 33.50 31.83
  L 39.36 23.17
  A 0.51 0.51 0.0 0 0 39.16 22.43
  L 36.88 21.33
  A 0.51 0.51 0.0 0 0 36.24 21.50
  L 27.62 34.26
  A 0.13 0.13 0.0 0 1 27.46 34.31
  L 27.45 34.31
  A 0.15 0.15 0.0 0 1 27.41 34.14
  L 31.34 24.67
  A 0.14 0.13 86.3 0 0 31.15 24.50
  Z
  M 41.24 40.13
  L 44.61 33.16
  A 0.99 0.99 0.0 0 0 44.37 31.97
  L 42.96 30.76
  A 1.02 1.00 -58.7 0 1 42.69 29.61
  L 44.28 25.80
  A 1.16 1.15 -17.8 0 0 42.23 24.75
  L 37.01 33.14
  A 1.44 1.40 -31.7 0 0 36.80 33.98
  L 37.35 41.00
  A 1.75 1.68 -33.5 0 1 37.12 42.02
  L 34.38 46.72
  A 0.35 0.34 15.3 0 0 34.68 47.24
  L 50.84 47.24
  A 0.32 0.32 0.0 0 0 51.05 46.68
  L 50.04 45.81
  A 1.70 1.69 -71.0 0 1 49.45 44.59
  L 49.18 36.29
  A 1.00 0.92 28.4 0 0 49.00 35.77
  L 47.68 33.94
  A 0.51 0.51 0.0 0 0 46.88 33.91
  L 41.43 40.26
  A 0.12 0.12 0.0 0 1 41.24 40.13
  Z"
/>
<path fill="#ffffff" d="
  M 31.34 24.67
  L 27.41 34.14
  A 0.15 0.15 0.0 0 0 27.45 34.31
  L 27.46 34.31
  A 0.13 0.13 0.0 0 0 27.62 34.26
  L 36.24 21.50
  A 0.51 0.51 0.0 0 1 36.88 21.33
  L 39.16 22.43
  A 0.51 0.51 0.0 0 1 39.36 23.17
  L 33.50 31.83
  A 1.88 1.84 59.9 0 0 33.20 33.00
  L 33.79 39.76
  A 2.84 2.82 57.5 0 1 33.44 41.37
  L 30.39 46.76
  A 0.94 0.94 0.0 0 1 29.57 47.24
  L 15.23 47.24
  A 0.45 0.45 0.0 0 1 14.82 46.59
  L 17.13 41.81
  A 1.20 1.18 8.4 0 1 18.00 41.17
  Q 18.69 41.07 19.24 40.61
  A 1.20 1.13 84.4 0 0 19.54 40.22
  L 25.44 28.03
  A 1.24 1.19 88.8 0 1 25.90 27.53
  L 31.15 24.50
  A 0.14 0.13 86.3 0 1 31.34 24.67
  Z"
/>
<path fill="#ffffff" d="
  M 41.24 40.13
  A 0.12 0.12 0.0 0 0 41.43 40.26
  L 46.88 33.91
  A 0.51 0.51 0.0 0 1 47.68 33.94
  L 49.00 35.77
  A 1.00 0.92 28.4 0 1 49.18 36.29
  L 49.45 44.59
  A 1.70 1.69 -71.0 0 0 50.04 45.81
  L 51.05 46.68
  A 0.32 0.32 0.0 0 1 50.84 47.24
  L 34.68 47.24
  A 0.35 0.34 15.3 0 1 34.38 46.72
  L 37.12 42.02
  A 1.75 1.68 -33.5 0 0 37.35 41.00
  L 36.80 33.98
  A 1.44 1.40 -31.7 0 1 37.01 33.14
  L 42.23 24.75
  A 1.16 1.15 -17.8 0 1 44.28 25.80
  L 42.69 29.61
  A 1.02 1.00 -58.7 0 0 42.96 30.76
  L 44.37 31.97
  A 0.99 0.99 0.0 0 1 44.61 33.16
  L 41.24 40.13
  Z"
/>
</svg>
