<?xml version="1.0" encoding="UTF-8" standalone="no"?>
<!DOCTYPE svg PUBLIC "-//W3C//DTD SVG 1.1//EN" "http://www.w3.org/Graphics/SVG/1.1/DTD/svg11.dtd">
<svg xmlns="http://www.w3.org/2000/svg" version="1.1" viewBox="0.00 0.00 66.00 88.00">
<g stroke-width="2.00" fill="none" stroke-linecap="butt">
<path stroke="#80242a" vector-effect="non-scaling-stroke" d="
  M 33.41 86.68
  Q 33.58 86.68 33.61 86.66
  Q 33.64 86.65 33.75 86.54
  C 50.03 71.49 73.52 41.77 60.52 18.30
  C 55.18 8.68 44.66 2.48 33.51 2.46
  C 22.36 2.45 11.82 8.63 6.47 18.24
  C -6.59 41.68 16.83 71.45 33.08 86.54
  Q 33.19 86.65 33.21 86.66
  Q 33.25 86.68 33.41 86.68"
/>
<path stroke="#d4989c" vector-effect="non-scaling-stroke" d="
  M 31.07 33.99
  Q 31.07 32.38 30.67 31.52
  A 2.04 1.99 -78.7 0 0 30.40 31.11
  L 21.39 21.10
  A 1.68 1.63 -66.9 0 1 20.96 19.98
  L 20.96 16.16
  A 0.39 0.39 0.0 0 0 20.57 15.77
  L 17.95 15.77
  A 0.47 0.47 0.0 0 0 17.48 16.24
  L 17.48 21.58
  A 1.60 1.59 23.9 0 0 17.90 22.65
  Q 22.29 27.45 26.51 32.16
  Q 27.39 33.14 27.40 34.00
  Q 27.40 34.84 26.51 35.82
  Q 22.30 40.54 17.92 45.34
  A 1.60 1.59 -24.0 0 0 17.50 46.41
  L 17.50 51.75
  A 0.47 0.47 0.0 0 0 17.97 52.22
  L 20.59 52.22
  A 0.39 0.39 0.0 0 0 20.98 51.83
  L 20.98 48.01
  A 1.68 1.63 66.8 0 1 21.41 46.89
  L 30.41 36.87
  A 2.04 1.99 78.7 0 0 30.67 36.46
  Q 31.07 35.60 31.07 33.99"
/>
<path stroke="#d4989c" vector-effect="non-scaling-stroke" d="
  M 34.34 34.00
  Q 34.34 35.62 34.74 36.48
  A 2.04 2.00 -78.7 0 0 35.01 36.89
  L 44.04 46.93
  A 1.68 1.63 -66.9 0 1 44.47 48.05
  L 44.47 51.88
  A 0.39 0.39 0.0 0 0 44.86 52.27
  L 47.49 52.27
  A 0.47 0.47 0.0 0 0 47.96 51.80
  L 47.96 46.45
  A 1.61 1.60 23.9 0 0 47.54 45.37
  Q 43.14 40.56 38.91 35.84
  Q 38.03 34.85 38.03 34.00
  Q 38.03 33.15 38.91 32.16
  Q 43.14 27.44 47.54 22.63
  A 1.61 1.60 -24.0 0 0 47.96 21.55
  L 47.95 16.20
  A 0.47 0.47 0.0 0 0 47.48 15.73
  L 44.85 15.73
  A 0.39 0.39 0.0 0 0 44.46 16.12
  L 44.47 19.95
  A 1.68 1.63 66.8 0 1 44.04 21.07
  L 35.01 31.11
  A 2.04 2.00 78.7 0 0 34.74 31.53
  Q 34.34 32.39 34.34 34.00"
/>
<path stroke="#d4989c" vector-effect="non-scaling-stroke" d="
  M 37.85 22.55
  A 0.34 0.34 0.0 0 0 37.60 21.98
  L 27.78 21.98
  A 0.34 0.34 0.0 0 0 27.53 22.55
  L 32.44 27.99
  A 0.34 0.34 0.0 0 0 32.94 27.99
  L 37.85 22.55"
/>
<path stroke="#d4989c" vector-effect="non-scaling-stroke" d="
  M 32.71 52.23
  Q 38.86 52.23 40.12 52.28
  A 0.56 0.56 0.0 0 0 40.70 51.72
  L 40.70 48.85
  A 0.63 0.63 0.0 0 0 40.54 48.43
  Q 35.65 42.98 33.02 40.09
  C 32.95 40.01 32.78 39.98 32.70 39.98
  C 32.62 39.98 32.45 40.02 32.39 40.09
  Q 29.76 42.98 24.88 48.44
  A 0.63 0.63 0.0 0 0 24.72 48.86
  L 24.72 51.73
  A 0.56 0.56 0.0 0 0 25.31 52.29
  Q 26.56 52.24 32.71 52.23"
/>
</g>
<path fill="#58171b" d="
  M 33.81 88.00
  L 33.04 88.00
  C 21.69 77.69 12.12 65.67 5.62 51.40
  Q 2.12 43.71 1.57 34.83
  C 0.17 12.27 21.92 -3.67 43.25 2.82
  Q 51.50 5.34 57.32 11.84
  Q 67.80 23.57 64.84 39.76
  Q 62.54 52.31 54.57 64.07
  Q 45.68 77.20 33.81 88.00
  Z
  M 33.41 86.68
  Q 33.58 86.68 33.61 86.66
  Q 33.64 86.65 33.75 86.54
  C 50.03 71.49 73.52 41.77 60.52 18.30
  C 55.18 8.68 44.66 2.48 33.51 2.46
  C 22.36 2.45 11.82 8.63 6.47 18.24
  C -6.59 41.68 16.83 71.45 33.08 86.54
  Q 33.19 86.65 33.21 86.66
  Q 33.25 86.68 33.41 86.68
  Z"
/>
<path fill="#a83139" d="
  M 33.51 2.46
  C 44.66 2.48 55.18 8.68 60.52 18.30
  C 73.52 41.77 50.03 71.49 33.75 86.54
  Q 33.64 86.65 33.61 86.66
  Q 33.58 86.68 33.41 86.68
  Q 33.25 86.68 33.21 86.66
  Q 33.19 86.65 33.08 86.54
  C 16.83 71.45 -6.59 41.68 6.47 18.24
  C 11.82 8.63 22.36 2.45 33.51 2.46
  Z
  M 31.07 33.99
  Q 31.07 32.38 30.67 31.52
  A 2.04 1.99 -78.7 0 0 30.40 31.11
  L 21.39 21.10
  A 1.68 1.63 -66.9 0 1 20.96 19.98
  L 20.96 16.16
  A 0.39 0.39 0.0 0 0 20.57 15.77
  L 17.95 15.77
  A 0.47 0.47 0.0 0 0 17.48 16.24
  L 17.48 21.58
  A 1.60 1.59 23.9 0 0 17.90 22.65
  Q 22.29 27.45 26.51 32.16
  Q 27.39 33.14 27.40 34.00
  Q 27.40 34.84 26.51 35.82
  Q 22.30 40.54 17.92 45.34
  A 1.60 1.59 -24.0 0 0 17.50 46.41
  L 17.50 51.75
  A 0.47 0.47 0.0 0 0 17.97 52.22
  L 20.59 52.22
  A 0.39 0.39 0.0 0 0 20.98 51.83
  L 20.98 48.01
  A 1.68 1.63 66.8 0 1 21.41 46.89
  L 30.41 36.87
  A 2.04 1.99 78.7 0 0 30.67 36.46
  Q 31.07 35.60 31.07 33.99
  Z
  M 34.34 34.00
  Q 34.34 35.62 34.74 36.48
  A 2.04 2.00 -78.7 0 0 35.01 36.89
  L 44.04 46.93
  A 1.68 1.63 -66.9 0 1 44.47 48.05
  L 44.47 51.88
  A 0.39 0.39 0.0 0 0 44.86 52.27
  L 47.49 52.27
  A 0.47 0.47 0.0 0 0 47.96 51.80
  L 47.96 46.45
  A 1.61 1.60 23.9 0 0 47.54 45.37
  Q 43.14 40.56 38.91 35.84
  Q 38.03 34.85 38.03 34.00
  Q 38.03 33.15 38.91 32.16
  Q 43.14 27.44 47.54 22.63
  A 1.61 1.60 -24.0 0 0 47.96 21.55
  L 47.95 16.20
  A 0.47 0.47 0.0 0 0 47.48 15.73
  L 44.85 15.73
  A 0.39 0.39 0.0 0 0 44.46 16.12
  L 44.47 19.95
  A 1.68 1.63 66.8 0 1 44.04 21.07
  L 35.01 31.11
  A 2.04 2.00 78.7 0 0 34.74 31.53
  Q 34.34 32.39 34.34 34.00
  Z
  M 37.85 22.55
  A 0.34 0.34 0.0 0 0 37.60 21.98
  L 27.78 21.98
  A 0.34 0.34 0.0 0 0 27.53 22.55
  L 32.44 27.99
  A 0.34 0.34 0.0 0 0 32.94 27.99
  L 37.85 22.55
  Z
  M 32.71 52.23
  Q 38.86 52.23 40.12 52.28
  A 0.56 0.56 0.0 0 0 40.70 51.72
  L 40.70 48.85
  A 0.63 0.63 0.0 0 0 40.54 48.43
  Q 35.65 42.98 33.02 40.09
  C 32.95 40.01 32.78 39.98 32.70 39.98
  C 32.62 39.98 32.45 40.02 32.39 40.09
  Q 29.76 42.98 24.88 48.44
  A 0.63 0.63 0.0 0 0 24.72 48.86
  L 24.72 51.73
  A 0.56 0.56 0.0 0 0 25.31 52.29
  Q 26.56 52.24 32.71 52.23
  Z"
/>
<path fill="#ffffff" d="
  M 31.07 33.99
  Q 31.07 35.60 30.67 36.46
  A 2.04 1.99 78.7 0 1 30.41 36.87
  L 21.41 46.89
  A 1.68 1.63 66.8 0 0 20.98 48.01
  L 20.98 51.83
  A 0.39 0.39 0.0 0 1 20.59 52.22
  L 17.97 52.22
  A 0.47 0.47 0.0 0 1 17.50 51.75
  L 17.50 46.41
  A 1.60 1.59 -24.0 0 1 17.92 45.34
  Q 22.30 40.54 26.51 35.82
  Q 27.40 34.84 27.40 34.00
  Q 27.39 33.14 26.51 32.16
  Q 22.29 27.45 17.90 22.65
  A 1.60 1.59 23.9 0 1 17.48 21.58
  L 17.48 16.24
  A 0.47 0.47 0.0 0 1 17.95 15.77
  L 20.57 15.77
  A 0.39 0.39 0.0 0 1 20.96 16.16
  L 20.96 19.98
  A 1.68 1.63 -66.9 0 0 21.39 21.10
  L 30.40 31.11
  A 2.04 1.99 -78.7 0 1 30.67 31.52
  Q 31.07 32.38 31.07 33.99
  Z"
/>
<path fill="#ffffff" d="
  M 38.03 34.00
  Q 38.03 34.85 38.91 35.84
  Q 43.14 40.56 47.54 45.37
  A 1.61 1.60 23.9 0 1 47.96 46.45
  L 47.96 51.80
  A 0.47 0.47 0.0 0 1 47.49 52.27
  L 44.86 52.27
  A 0.39 0.39 0.0 0 1 44.47 51.88
  L 44.47 48.05
  A 1.68 1.63 -66.9 0 0 44.04 46.93
  L 35.01 36.89
  A 2.04 2.00 -78.7 0 1 34.74 36.48
  Q 34.34 35.62 34.34 34.00
  Q 34.34 32.39 34.74 31.53
  A 2.04 2.00 78.7 0 1 35.01 31.11
  L 44.04 21.07
  A 1.68 1.63 66.8 0 0 44.47 19.95
  L 44.46 16.12
  A 0.39 0.39 0.0 0 1 44.85 15.73
  L 47.48 15.73
  A 0.47 0.47 0.0 0 1 47.95 16.20
  L 47.96 21.55
  A 1.61 1.60 -24.0 0 1 47.54 22.63
  Q 43.14 27.44 38.91 32.16
  Q 38.03 33.15 38.03 34.00
  Z"
/>
<path fill="#ffffff" d="
  M 37.85 22.55
  L 32.94 27.99
  A 0.34 0.34 0.0 0 1 32.44 27.99
  L 27.53 22.55
  A 0.34 0.34 0.0 0 1 27.78 21.98
  L 37.60 21.98
  A 0.34 0.34 0.0 0 1 37.85 22.55
  Z"
/>
<path fill="#ffffff" d="
  M 32.70 39.98
  C 32.78 39.98 32.95 40.01 33.02 40.09
  Q 35.65 42.98 40.54 48.43
  A 0.63 0.63 0.0 0 1 40.70 48.85
  L 40.70 51.72
  A 0.56 0.56 0.0 0 1 40.12 52.28
  Q 38.86 52.23 32.71 52.23
  Q 26.56 52.24 25.31 52.29
  A 0.56 0.56 0.0 0 1 24.72 51.73
  L 24.72 48.86
  A 0.63 0.63 0.0 0 1 24.88 48.44
  Q 29.76 42.98 32.39 40.09
  C 32.45 40.02 32.62 39.98 32.70 39.98
  Z"
/>
</svg>
