<?xml version="1.0" encoding="UTF-8" standalone="no"?>
<!DOCTYPE svg PUBLIC "-//W3C//DTD SVG 1.1//EN" "http://www.w3.org/Graphics/SVG/1.1/DTD/svg11.dtd">
<svg xmlns="http://www.w3.org/2000/svg" version="1.1" viewBox="0.00 0.00 66.00 88.00">
<g stroke-width="2.00" fill="none" stroke-linecap="butt">
<path stroke="#80242a" vector-effect="non-scaling-stroke" d="
  M 33.42 86.68
  Q 33.52 86.68 33.62 86.66
  Q 33.63 86.66 33.75 86.55
  Q 47.48 73.81 56.58 58.33
  C 63.94 45.79 67.81 29.80 59.84 17.13
  C 54.15 8.09 44.27 2.47 33.51 2.46
  C 22.76 2.45 12.87 8.05 7.16 17.07
  C -0.84 29.72 2.99 45.72 10.32 58.28
  Q 19.39 73.78 33.09 86.55
  Q 33.21 86.66 33.22 86.66
  Q 33.32 86.68 33.42 86.68"
/>
<path stroke="#d4989c" vector-effect="non-scaling-stroke" d="
  M 20.44 16.42
  Q 17.46 21.75 17.45 22.51
  Q 17.43 26.28 19.96 27.62
  A 1.69 1.52 81.5 0 0 21.70 25.00
  Q 21.19 24.37 20.83 23.60
  A 1.80 1.76 -49.3 0 1 20.75 22.36
  C 21.52 19.79 22.22 18.35 21.15 16.42
  A 0.41 0.40 -44.8 0 0 20.44 16.42"
/>
<path stroke="#d4989c" vector-effect="non-scaling-stroke" d="
  M 23.98 30.25
  Q 24.78 29.90 24.80 29.91
  A 0.76 0.75 -68.6 0 1 25.19 30.81
  Q 24.10 34.27 27.16 35.78
  A 1.10 1.10 0.0 0 1 27.76 36.71
  C 27.87 39.19 27.35 40.24 29.25 42.78
  A 0.39 0.39 0.0 0 0 29.93 42.65
  Q 30.23 41.55 29.19 40.31
  A 0.47 0.46 61.7 0 1 29.41 39.56
  Q 29.65 39.49 29.98 39.67
  Q 30.42 39.92 30.98 39.44
  Q 31.72 38.81 32.56 37.34
  A 0.64 0.63 -59.5 0 0 32.34 36.48
  Q 30.60 35.41 31.00 33.29
  A 0.39 0.39 0.0 0 0 30.42 32.88
  Q 28.24 34.17 27.10 33.43
  A 2.00 1.87 -32.1 0 1 28.02 29.95
  Q 28.74 29.82 29.70 29.74
  A 1.35 1.34 73.8 0 0 30.77 27.78
  Q 29.44 25.24 31.39 23.99
  A 0.52 0.52 0.0 0 0 31.52 23.22
  Q 30.72 22.24 30.18 19.66
  A 0.23 0.23 0.0 0 0 29.73 19.70
  Q 29.71 21.20 28.39 20.89
  A 1.25 1.25 0.0 0 0 27.12 21.34
  L 24.78 24.32
  A 1.02 0.98 -26.3 0 0 24.57 24.90
  Q 24.43 27.59 23.56 29.84
  A 0.32 0.32 0.0 0 0 23.98 30.25"
/>
<path stroke="#d4989c" vector-effect="non-scaling-stroke" d="
  M 47.21 20.54
  Q 46.72 22.71 46.70 25.48
  C 46.69 26.96 44.83 27.97 44.90 29.21
  Q 44.98 30.47 45.11 31.35
  A 0.43 0.43 0.0 0 0 45.70 31.69
  C 50.52 29.69 49.44 24.07 47.74 20.48
  A 0.28 0.28 0.0 0 0 47.21 20.54"
/>
<path stroke="#d4989c" vector-effect="non-scaling-stroke" d="
  M 36.70 29.89
  Q 36.71 30.43 37.09 30.89
  Q 37.40 31.26 38.06 31.05
  Q 40.03 30.43 42.21 32.79
  A 0.19 0.18 22.1 0 0 42.53 32.66
  L 42.00 25.71
  A 1.71 1.71 0.0 0 0 41.49 24.62
  L 37.89 21.01
  A 0.32 0.32 0.0 0 0 37.34 21.26
  L 37.69 25.76
  A 0.43 0.42 -62.5 0 1 36.90 26.01
  Q 36.64 25.57 36.55 25.01
  A 0.73 0.72 -19.9 0 0 35.47 24.51
  L 33.32 25.75
  A 1.18 1.17 76.6 0 0 32.73 26.72
  Q 32.51 31.54 34.49 35.37
  A 0.42 0.42 0.0 0 0 35.26 35.31
  Q 36.22 32.61 36.11 29.73
  A 0.04 0.04 0.0 0 1 36.14 29.69
  L 36.45 29.67
  A 0.23 0.23 0.0 0 1 36.70 29.89"
/>
<path stroke="#d4989c" vector-effect="non-scaling-stroke" d="
  M 41.41 34.92
  L 37.68 34.67
  A 0.17 0.17 0.0 0 0 37.50 34.83
  L 37.49 34.98
  A 3.84 1.96 -86.2 0 0 39.19 38.94
  L 39.35 38.95
  A 3.84 1.96 -86.2 0 0 41.56 35.25
  L 41.57 35.10
  A 0.17 0.17 0.0 0 0 41.41 34.92"
/>
<path stroke="#d4989c" vector-effect="non-scaling-stroke" d="
  M 34.55 51.38
  Q 34.58 51.38 36.72 44.00
  A 1.24 1.23 -55.1 0 0 36.53 42.92
  Q 35.60 41.64 34.92 40.04
  Q 34.69 39.48 34.56 39.48
  Q 34.43 39.48 34.20 40.04
  Q 33.52 41.64 32.58 42.92
  A 1.24 1.23 55.3 0 0 32.39 43.99
  Q 34.51 51.38 34.55 51.38"
/>
<path stroke="#d4989c" vector-effect="non-scaling-stroke" d="
  M 42.09 39.57
  L 40.66 41.40
  A 0.68 0.68 0.0 0 1 39.70 41.51
  L 39.36 41.24
  A 0.45 0.45 0.0 0 0 38.66 41.74
  Q 39.68 44.68 38.47 47.61
  A 0.24 0.24 0.0 0 0 38.88 47.86
  L 41.85 44.08
  A 1.50 1.47 -24.6 0 0 42.16 43.27
  L 42.42 39.70
  A 0.19 0.18 66.2 0 0 42.09 39.57"
/>
</g>
<path fill="#58171b" d="
  M 33.84 88.00
  L 33.15 88.00
  Q 15.61 72.48 6.00 52.51
  Q 2.31 44.84 1.62 35.22
  C -0.26 8.82 28.70 -7.34 50.53 6.25
  Q 62.28 13.57 64.85 26.88
  Q 67.07 38.33 61.38 51.36
  C 55.36 65.13 44.92 77.81 33.84 88.00
  Z
  M 33.42 86.68
  Q 33.52 86.68 33.62 86.66
  Q 33.63 86.66 33.75 86.55
  Q 47.48 73.81 56.58 58.33
  C 63.94 45.79 67.81 29.80 59.84 17.13
  C 54.15 8.09 44.27 2.47 33.51 2.46
  C 22.76 2.45 12.87 8.05 7.16 17.07
  C -0.84 29.72 2.99 45.72 10.32 58.28
  Q 19.39 73.78 33.09 86.55
  Q 33.21 86.66 33.22 86.66
  Q 33.32 86.68 33.42 86.68
  Z"
/>
<path fill="#a83139" d="
  M 33.51 2.46
  C 44.27 2.47 54.15 8.09 59.84 17.13
  C 67.81 29.80 63.94 45.79 56.58 58.33
  Q 47.48 73.81 33.75 86.55
  Q 33.63 86.66 33.62 86.66
  Q 33.52 86.68 33.42 86.68
  Q 33.32 86.68 33.22 86.66
  Q 33.21 86.66 33.09 86.55
  Q 19.39 73.78 10.32 58.28
  C 2.99 45.72 -0.84 29.72 7.16 17.07
  C 12.87 8.05 22.76 2.45 33.51 2.46
  Z
  M 20.44 16.42
  Q 17.46 21.75 17.45 22.51
  Q 17.43 26.28 19.96 27.62
  A 1.69 1.52 81.5 0 0 21.70 25.00
  Q 21.19 24.37 20.83 23.60
  A 1.80 1.76 -49.3 0 1 20.75 22.36
  C 21.52 19.79 22.22 18.35 21.15 16.42
  A 0.41 0.40 -44.8 0 0 20.44 16.42
  Z
  M 23.98 30.25
  Q 24.78 29.90 24.80 29.91
  A 0.76 0.75 -68.6 0 1 25.19 30.81
  Q 24.10 34.27 27.16 35.78
  A 1.10 1.10 0.0 0 1 27.76 36.71
  C 27.87 39.19 27.35 40.24 29.25 42.78
  A 0.39 0.39 0.0 0 0 29.93 42.65
  Q 30.23 41.55 29.19 40.31
  A 0.47 0.46 61.7 0 1 29.41 39.56
  Q 29.65 39.49 29.98 39.67
  Q 30.42 39.92 30.98 39.44
  Q 31.72 38.81 32.56 37.34
  A 0.64 0.63 -59.5 0 0 32.34 36.48
  Q 30.60 35.41 31.00 33.29
  A 0.39 0.39 0.0 0 0 30.42 32.88
  Q 28.24 34.17 27.10 33.43
  A 2.00 1.87 -32.1 0 1 28.02 29.95
  Q 28.74 29.82 29.70 29.74
  A 1.35 1.34 73.8 0 0 30.77 27.78
  Q 29.44 25.24 31.39 23.99
  A 0.52 0.52 0.0 0 0 31.52 23.22
  Q 30.72 22.24 30.18 19.66
  A 0.23 0.23 0.0 0 0 29.73 19.70
  Q 29.71 21.20 28.39 20.89
  A 1.25 1.25 0.0 0 0 27.12 21.34
  L 24.78 24.32
  A 1.02 0.98 -26.3 0 0 24.57 24.90
  Q 24.43 27.59 23.56 29.84
  A 0.32 0.32 0.0 0 0 23.98 30.25
  Z
  M 47.21 20.54
  Q 46.72 22.71 46.70 25.48
  C 46.69 26.96 44.83 27.97 44.90 29.21
  Q 44.98 30.47 45.11 31.35
  A 0.43 0.43 0.0 0 0 45.70 31.69
  C 50.52 29.69 49.44 24.07 47.74 20.48
  A 0.28 0.28 0.0 0 0 47.21 20.54
  Z
  M 36.70 29.89
  Q 36.71 30.43 37.09 30.89
  Q 37.40 31.26 38.06 31.05
  Q 40.03 30.43 42.21 32.79
  A 0.19 0.18 22.1 0 0 42.53 32.66
  L 42.00 25.71
  A 1.71 1.71 0.0 0 0 41.49 24.62
  L 37.89 21.01
  A 0.32 0.32 0.0 0 0 37.34 21.26
  L 37.69 25.76
  A 0.43 0.42 -62.5 0 1 36.90 26.01
  Q 36.64 25.57 36.55 25.01
  A 0.73 0.72 -19.9 0 0 35.47 24.51
  L 33.32 25.75
  A 1.18 1.17 76.6 0 0 32.73 26.72
  Q 32.51 31.54 34.49 35.37
  A 0.42 0.42 0.0 0 0 35.26 35.31
  Q 36.22 32.61 36.11 29.73
  A 0.04 0.04 0.0 0 1 36.14 29.69
  L 36.45 29.67
  A 0.23 0.23 0.0 0 1 36.70 29.89
  Z
  M 41.41 34.92
  L 37.68 34.67
  A 0.17 0.17 0.0 0 0 37.50 34.83
  L 37.49 34.98
  A 3.84 1.96 -86.2 0 0 39.19 38.94
  L 39.35 38.95
  A 3.84 1.96 -86.2 0 0 41.56 35.25
  L 41.57 35.10
  A 0.17 0.17 0.0 0 0 41.41 34.92
  Z
  M 34.55 51.38
  Q 34.58 51.38 36.72 44.00
  A 1.24 1.23 -55.1 0 0 36.53 42.92
  Q 35.60 41.64 34.92 40.04
  Q 34.69 39.48 34.56 39.48
  Q 34.43 39.48 34.20 40.04
  Q 33.52 41.64 32.58 42.92
  A 1.24 1.23 55.3 0 0 32.39 43.99
  Q 34.51 51.38 34.55 51.38
  Z
  M 42.09 39.57
  L 40.66 41.40
  A 0.68 0.68 0.0 0 1 39.70 41.51
  L 39.36 41.24
  A 0.45 0.45 0.0 0 0 38.66 41.74
  Q 39.68 44.68 38.47 47.61
  A 0.24 0.24 0.0 0 0 38.88 47.86
  L 41.85 44.08
  A 1.50 1.47 -24.6 0 0 42.16 43.27
  L 42.42 39.70
  A 0.19 0.18 66.2 0 0 42.09 39.57
  Z"
/>
<path fill="#ffffff" d="
  M 21.15 16.42
  C 22.22 18.35 21.52 19.79 20.75 22.36
  A 1.80 1.76 -49.3 0 0 20.83 23.60
  Q 21.19 24.37 21.70 25.00
  A 1.69 1.52 81.5 0 1 19.96 27.62
  Q 17.43 26.28 17.45 22.51
  Q 17.46 21.75 20.44 16.42
  A 0.41 0.40 -44.8 0 1 21.15 16.42
  Z"
/>
<path fill="#ffffff" d="
  M 23.56 29.84
  Q 24.43 27.59 24.57 24.90
  A 1.02 0.98 -26.3 0 1 24.78 24.32
  L 27.12 21.34
  A 1.25 1.25 0.0 0 1 28.39 20.89
  Q 29.71 21.20 29.73 19.70
  A 0.23 0.23 0.0 0 1 30.18 19.66
  Q 30.72 22.24 31.52 23.22
  A 0.52 0.52 0.0 0 1 31.39 23.99
  Q 29.44 25.24 30.77 27.78
  A 1.35 1.34 73.8 0 1 29.70 29.74
  Q 28.74 29.82 28.02 29.95
  A 2.00 1.87 -32.1 0 0 27.10 33.43
  Q 28.24 34.17 30.42 32.88
  A 0.39 0.39 0.0 0 1 31.00 33.29
  Q 30.60 35.41 32.34 36.48
  A 0.64 0.63 -59.5 0 1 32.56 37.34
  Q 31.72 38.81 30.98 39.44
  Q 30.42 39.92 29.98 39.67
  Q 29.65 39.49 29.41 39.56
  A 0.47 0.46 61.7 0 0 29.19 40.31
  Q 30.23 41.55 29.93 42.65
  A 0.39 0.39 0.0 0 1 29.25 42.78
  C 27.35 40.24 27.87 39.19 27.76 36.71
  A 1.10 1.10 0.0 0 0 27.16 35.78
  Q 24.10 34.27 25.19 30.81
  A 0.76 0.75 -68.6 0 0 24.80 29.91
  Q 24.78 29.90 23.98 30.25
  A 0.32 0.32 0.0 0 1 23.56 29.84
  Z"
/>
<path fill="#ffffff" d="
  M 47.21 20.54
  A 0.28 0.28 0.0 0 1 47.74 20.48
  C 49.44 24.07 50.52 29.69 45.70 31.69
  A 0.43 0.43 0.0 0 1 45.11 31.35
  Q 44.98 30.47 44.90 29.21
  C 44.83 27.97 46.69 26.96 46.70 25.48
  Q 46.72 22.71 47.21 20.54
  Z"
/>
<path fill="#ffffff" d="
  M 36.70 29.89
  A 0.23 0.23 0.0 0 0 36.45 29.67
  L 36.14 29.69
  A 0.04 0.04 0.0 0 0 36.11 29.73
  Q 36.22 32.61 35.26 35.31
  A 0.42 0.42 0.0 0 1 34.49 35.37
  Q 32.51 31.54 32.73 26.72
  A 1.18 1.17 76.6 0 1 33.32 25.75
  L 35.47 24.51
  A 0.73 0.72 -19.9 0 1 36.55 25.01
  Q 36.64 25.57 36.90 26.01
  A 0.43 0.42 -62.5 0 0 37.69 25.76
  L 37.34 21.26
  A 0.32 0.32 0.0 0 1 37.89 21.01
  L 41.49 24.62
  A 1.71 1.71 0.0 0 1 42.00 25.71
  L 42.53 32.66
  A 0.19 0.18 22.1 0 1 42.21 32.79
  Q 40.03 30.43 38.06 31.05
  Q 37.40 31.26 37.09 30.89
  Q 36.71 30.43 36.70 29.89
  Z"
/>
<path fill="#ffffff" d="
  M 41.41 34.92
  A 0.17 0.17 0.0 0 1 41.57 35.10
  L 41.56 35.25
  A 3.84 1.96 -86.2 0 1 39.35 38.95
  L 39.19 38.94
  A 3.84 1.96 -86.2 0 1 37.49 34.98
  L 37.50 34.83
  A 0.17 0.17 0.0 0 1 37.68 34.67
  L 41.41 34.92
  Z"
/>
<path fill="#ffffff" d="
  M 34.56 39.48
  Q 34.69 39.48 34.92 40.04
  Q 35.60 41.64 36.53 42.92
  A 1.24 1.23 -55.1 0 1 36.72 44.00
  Q 34.58 51.38 34.55 51.38
  Q 34.51 51.38 32.39 43.99
  A 1.24 1.23 55.3 0 1 32.58 42.92
  Q 33.52 41.64 34.20 40.04
  Q 34.43 39.48 34.56 39.48
  Z"
/>
<path fill="#ffffff" d="
  M 42.42 39.70
  L 42.16 43.27
  A 1.50 1.47 -24.6 0 1 41.85 44.08
  L 38.88 47.86
  A 0.24 0.24 0.0 0 1 38.47 47.61
  Q 39.68 44.68 38.66 41.74
  A 0.45 0.45 0.0 0 1 39.36 41.24
  L 39.70 41.51
  A 0.68 0.68 0.0 0 0 40.66 41.40
  L 42.09 39.57
  A 0.19 0.18 66.2 0 1 42.42 39.70
  Z"
/>
</svg>
