<?xml version="1.0" encoding="UTF-8" standalone="no"?>
<!DOCTYPE svg PUBLIC "-//W3C//DTD SVG 1.1//EN" "http://www.w3.org/Graphics/SVG/1.1/DTD/svg11.dtd">
<svg xmlns="http://www.w3.org/2000/svg" version="1.1" viewBox="0.00 0.00 66.00 88.00">
<g stroke-width="2.00" fill="none" stroke-linecap="butt">
<path stroke="#2a5d6e" vector-effect="non-scaling-stroke" d="
  M 33.41 86.72
  Q 33.52 86.72 33.62 86.69
  Q 33.70 86.67 33.78 86.60
  Q 48.28 73.08 57.36 56.90
  C 64.57 44.05 67.80 27.88 58.74 15.51
  C 52.78 7.38 43.82 2.49 33.52 2.48
  C 23.23 2.46 14.26 7.33 8.27 15.44
  C -0.82 27.79 2.36 43.97 9.54 56.83
  Q 18.57 73.04 33.04 86.60
  Q 33.12 86.67 33.20 86.69
  Q 33.30 86.72 33.41 86.72"
/>
<path stroke="#9dbdc8" vector-effect="non-scaling-stroke" d="
  M 33.00 46.71
  Q 50.47 46.70 50.58 46.70
  A 0.57 0.57 0.0 0 0 51.10 45.97
  L 47.79 34.66
  A 0.91 0.90 81.9 0 0 46.92 34.00
  L 42.76 34.00
  A 0.80 0.79 -8.4 0 1 42.00 33.44
  L 38.62 21.90
  A 0.89 0.88 84.5 0 0 37.86 21.27
  Q 37.81 21.27 33.00 21.27
  Q 28.18 21.27 28.13 21.27
  A 0.89 0.88 -84.5 0 0 27.37 21.90
  L 23.99 33.44
  A 0.80 0.79 8.4 0 1 23.23 34.00
  L 19.07 34.00
  A 0.91 0.90 -81.9 0 0 18.20 34.66
  L 14.89 45.97
  A 0.57 0.57 0.0 0 0 15.41 46.70
  Q 15.52 46.71 33.00 46.71"
/>
<path stroke="#9dbdc8" vector-effect="non-scaling-stroke" d="
  M 36.09 24.74
  A 0.35 0.35 0.0 0 0 35.76 24.49
  L 30.21 24.49
  A 0.35 0.35 0.0 0 0 29.88 24.74
  L 28.27 30.31
  A 0.35 0.35 0.0 0 0 28.61 30.76
  L 37.39 30.76
  A 0.35 0.35 0.0 0 0 37.73 30.31
  L 36.09 24.74"
/>
<path stroke="#9dbdc8" vector-effect="non-scaling-stroke" d="
  M 36.65 34.43
  A 0.32 0.32 0.0 0 0 36.34 34.02
  L 29.68 34.00
  A 0.32 0.32 0.0 0 0 29.37 34.41
  L 32.68 45.72
  A 0.32 0.32 0.0 0 0 33.29 45.72
  L 36.65 34.43"
/>
<path stroke="#9dbdc8" vector-effect="non-scaling-stroke" d="
  M 26.92 37.47
  A 0.32 0.32 0.0 0 0 26.61 37.24
  L 21.04 37.24
  A 0.32 0.32 0.0 0 0 20.73 37.47
  L 19.11 43.10
  A 0.32 0.32 0.0 0 0 19.42 43.51
  L 28.26 43.51
  A 0.32 0.32 0.0 0 0 28.57 43.10
  L 26.92 37.47"
/>
<path stroke="#9dbdc8" vector-effect="non-scaling-stroke" d="
  M 45.26 37.48
  A 0.34 0.34 0.0 0 0 44.94 37.24
  L 39.38 37.24
  A 0.34 0.34 0.0 0 0 39.05 37.49
  L 37.44 43.09
  A 0.34 0.34 0.0 0 0 37.76 43.52
  L 46.58 43.52
  A 0.34 0.34 0.0 0 0 46.90 43.08
  L 45.26 37.48"
/>
</g>
<path fill="#1a3f4b" d="
  M 33.80 88.00
  L 33.04 88.00
  C 21.90 77.88 11.89 65.45 5.58 51.45
  Q 0.19 39.48 2.09 26.67
  Q 2.87 21.39 6.48 15.99
  C 15.53 2.44 32.43 -2.54 47.35 4.45
  Q 54.57 7.83 59.27 14.17
  Q 67.40 25.12 64.87 39.53
  Q 62.64 52.22 54.58 64.08
  Q 45.68 77.20 33.80 88.00
  Z
  M 33.41 86.72
  Q 33.52 86.72 33.62 86.69
  Q 33.70 86.67 33.78 86.60
  Q 48.28 73.08 57.36 56.90
  C 64.57 44.05 67.80 27.88 58.74 15.51
  C 52.78 7.38 43.82 2.49 33.52 2.48
  C 23.23 2.46 14.26 7.33 8.27 15.44
  C -0.82 27.79 2.36 43.97 9.54 56.83
  Q 18.57 73.04 33.04 86.60
  Q 33.12 86.67 33.20 86.69
  Q 33.30 86.72 33.41 86.72
  Z"
/>
<path fill="#3a7a91" d="
  M 33.52 2.48
  C 43.82 2.49 52.78 7.38 58.74 15.51
  C 67.80 27.88 64.57 44.05 57.36 56.90
  Q 48.28 73.08 33.78 86.60
  Q 33.70 86.67 33.62 86.69
  Q 33.52 86.72 33.41 86.72
  Q 33.30 86.72 33.20 86.69
  Q 33.12 86.67 33.04 86.60
  Q 18.57 73.04 9.54 56.83
  C 2.36 43.97 -0.82 27.79 8.27 15.44
  C 14.26 7.33 23.23 2.46 33.52 2.48
  Z
  M 33.00 46.71
  Q 50.47 46.70 50.58 46.70
  A 0.57 0.57 0.0 0 0 51.10 45.97
  L 47.79 34.66
  A 0.91 0.90 81.9 0 0 46.92 34.00
  L 42.76 34.00
  A 0.80 0.79 -8.4 0 1 42.00 33.44
  L 38.62 21.90
  A 0.89 0.88 84.5 0 0 37.86 21.27
  Q 37.81 21.27 33.00 21.27
  Q 28.18 21.27 28.13 21.27
  A 0.89 0.88 -84.5 0 0 27.37 21.90
  L 23.99 33.44
  A 0.80 0.79 8.4 0 1 23.23 34.00
  L 19.07 34.00
  A 0.91 0.90 -81.9 0 0 18.20 34.66
  L 14.89 45.97
  A 0.57 0.57 0.0 0 0 15.41 46.70
  Q 15.52 46.71 33.00 46.71
  Z"
/>
<path fill="#ffffff" d="
  M 33.00 21.27
  Q 37.81 21.27 37.86 21.27
  A 0.89 0.88 84.5 0 1 38.62 21.90
  L 42.00 33.44
  A 0.80 0.79 -8.4 0 0 42.76 34.00
  L 46.92 34.00
  A 0.91 0.90 81.9 0 1 47.79 34.66
  L 51.10 45.97
  A 0.57 0.57 0.0 0 1 50.58 46.70
  Q 50.47 46.70 33.00 46.71
  Q 15.52 46.71 15.41 46.70
  A 0.57 0.57 0.0 0 1 14.89 45.97
  L 18.20 34.66
  A 0.91 0.90 -81.9 0 1 19.07 34.00
  L 23.23 34.00
  A 0.80 0.79 8.4 0 0 23.99 33.44
  L 27.37 21.90
  A 0.89 0.88 -84.5 0 1 28.13 21.27
  Q 28.18 21.27 33.00 21.27
  Z
  M 36.09 24.74
  A 0.35 0.35 0.0 0 0 35.76 24.49
  L 30.21 24.49
  A 0.35 0.35 0.0 0 0 29.88 24.74
  L 28.27 30.31
  A 0.35 0.35 0.0 0 0 28.61 30.76
  L 37.39 30.76
  A 0.35 0.35 0.0 0 0 37.73 30.31
  L 36.09 24.74
  Z
  M 36.65 34.43
  A 0.32 0.32 0.0 0 0 36.34 34.02
  L 29.68 34.00
  A 0.32 0.32 0.0 0 0 29.37 34.41
  L 32.68 45.72
  A 0.32 0.32 0.0 0 0 33.29 45.72
  L 36.65 34.43
  Z
  M 26.92 37.47
  A 0.32 0.32 0.0 0 0 26.61 37.24
  L 21.04 37.24
  A 0.32 0.32 0.0 0 0 20.73 37.47
  L 19.11 43.10
  A 0.32 0.32 0.0 0 0 19.42 43.51
  L 28.26 43.51
  A 0.32 0.32 0.0 0 0 28.57 43.10
  L 26.92 37.47
  Z
  M 45.26 37.48
  A 0.34 0.34 0.0 0 0 44.94 37.24
  L 39.38 37.24
  A 0.34 0.34 0.0 0 0 39.05 37.49
  L 37.44 43.09
  A 0.34 0.34 0.0 0 0 37.76 43.52
  L 46.58 43.52
  A 0.34 0.34 0.0 0 0 46.90 43.08
  L 45.26 37.48
  Z"
/>
<path fill="#3a7a91" d="
  M 36.09 24.74
  L 37.73 30.31
  A 0.35 0.35 0.0 0 1 37.39 30.76
  L 28.61 30.76
  A 0.35 0.35 0.0 0 1 28.27 30.31
  L 29.88 24.74
  A 0.35 0.35 0.0 0 1 30.21 24.49
  L 35.76 24.49
  A 0.35 0.35 0.0 0 1 36.09 24.74
  Z"
/>
<path fill="#3a7a91" d="
  M 36.65 34.43
  L 33.29 45.72
  A 0.32 0.32 0.0 0 1 32.68 45.72
  L 29.37 34.41
  A 0.32 0.32 0.0 0 1 29.68 34.00
  L 36.34 34.02
  A 0.32 0.32 0.0 0 1 36.65 34.43
  Z"
/>
<path fill="#3a7a91" d="
  M 26.92 37.47
  L 28.57 43.10
  A 0.32 0.32 0.0 0 1 28.26 43.51
  L 19.42 43.51
  A 0.32 0.32 0.0 0 1 19.11 43.10
  L 20.73 37.47
  A 0.32 0.32 0.0 0 1 21.04 37.24
  L 26.61 37.24
  A 0.32 0.32 0.0 0 1 26.92 37.47
  Z"
/>
<path fill="#3a7a91" d="
  M 45.26 37.48
  L 46.90 43.08
  A 0.34 0.34 0.0 0 1 46.58 43.52
  L 37.76 43.52
  A 0.34 0.34 0.0 0 1 37.44 43.09
  L 39.05 37.49
  A 0.34 0.34 0.0 0 1 39.38 37.24
  L 44.94 37.24
  A 0.34 0.34 0.0 0 1 45.26 37.48
  Z"
/>
</svg>
