<?xml version="1.0" encoding="UTF-8" standalone="no"?>
<!DOCTYPE svg PUBLIC "-//W3C//DTD SVG 1.1//EN" "http://www.w3.org/Graphics/SVG/1.1/DTD/svg11.dtd">
<svg xmlns="http://www.w3.org/2000/svg" version="1.1" viewBox="0.00 0.00 66.00 88.00">
<g stroke-width="2.00" fill="none" stroke-linecap="butt">
<path stroke="#6f562b" vector-effect="non-scaling-stroke" d="
  M 33.39 86.69
  Q 33.53 86.69 33.67 86.65
  A 0.06 0.03 3.1 0 0 33.70 86.64
  C 49.68 71.95 73.41 41.85 60.74 18.63
  C 55.36 8.78 44.94 2.48 33.56 2.46
  C 22.17 2.44 11.73 8.70 6.31 18.53
  C -6.45 41.70 17.17 71.89 33.09 86.64
  A 0.06 0.03 -2.9 0 0 33.12 86.65
  Q 33.25 86.69 33.39 86.69"
/>
<path stroke="#c9b99d" vector-effect="non-scaling-stroke" d="
  M 32.85 52.19
  Q 33.33 52.19 34.13 51.64
  Q 36.36 50.12 37.32 48.40
  A 0.91 0.89 40.4 0 0 37.23 47.39
  Q 34.95 44.58 36.93 40.67
  A 0.91 0.90 13.3 0 1 37.74 40.17
  L 39.73 40.17
  A 1.83 1.75 -60.8 0 0 40.73 39.86
  L 41.99 38.99
  A 0.58 0.57 37.5 0 0 41.85 37.98
  Q 40.60 37.54 38.36 37.77
  A 0.24 0.24 0.0 0 1 38.18 37.35
  C 42.51 33.60 47.31 36.27 50.53 30.86
  A 0.28 0.28 0.0 0 0 50.17 30.47
  Q 48.72 31.15 48.05 31.01
  A 0.37 0.36 35.1 0 1 47.93 30.34
  Q 50.95 28.50 50.99 24.33
  A 0.31 0.30 -30.0 0 0 50.42 24.18
  L 49.11 26.45
  A 0.46 0.46 0.0 0 1 48.25 26.20
  Q 48.30 24.88 48.19 23.74
  C 47.93 20.99 45.44 19.24 46.40 16.49
  A 0.23 0.23 0.0 0 0 46.03 16.24
  C 44.26 17.73 45.20 21.77 45.72 24.53
  A 0.41 0.41 0.0 0 1 45.44 24.99
  L 45.43 24.99
  A 0.53 0.53 0.0 0 1 44.79 24.70
  Q 43.60 22.03 41.15 20.91
  A 0.28 0.27 -3.6 0 0 40.80 21.30
  Q 45.83 29.14 38.07 33.77
  A 0.70 0.70 0.0 0 1 37.22 33.68
  Q 35.59 32.14 36.05 29.81
  A 0.33 0.33 0.0 0 0 35.44 29.58
  Q 33.60 32.88 34.84 35.00
  A 0.62 0.61 -28.8 0 1 34.59 35.86
  Q 33.90 36.21 32.86 36.21
  Q 31.82 36.21 31.13 35.86
  A 0.62 0.61 28.8 0 1 30.88 35.00
  Q 32.12 32.88 30.28 29.58
  A 0.33 0.33 0.0 0 0 29.67 29.81
  Q 30.13 32.14 28.50 33.68
  A 0.70 0.70 0.0 0 1 27.65 33.77
  Q 19.89 29.14 24.92 21.30
  A 0.28 0.27 3.6 0 0 24.57 20.91
  Q 22.12 22.03 20.93 24.70
  A 0.53 0.53 0.0 0 1 20.29 24.99
  L 20.28 24.99
  A 0.41 0.41 0.0 0 1 20.00 24.53
  C 20.52 21.77 21.46 17.73 19.69 16.24
  A 0.23 0.23 0.0 0 0 19.32 16.49
  C 20.28 19.24 17.79 20.98 17.53 23.73
  Q 17.42 24.87 17.47 26.19
  A 0.46 0.46 0.0 0 1 16.61 26.44
  L 15.30 24.17
  A 0.31 0.30 30.0 0 0 14.73 24.32
  Q 14.77 28.49 17.79 30.33
  A 0.37 0.36 -35.1 0 1 17.67 31.00
  Q 17.00 31.14 15.55 30.46
  A 0.28 0.28 0.0 0 0 15.19 30.85
  C 18.41 36.27 23.21 33.60 27.53 37.35
  A 0.24 0.24 0.0 0 1 27.35 37.77
  Q 25.11 37.54 23.86 37.98
  A 0.58 0.57 -37.4 0 0 23.72 38.99
  L 24.98 39.86
  A 1.83 1.75 60.9 0 0 25.98 40.17
  L 27.97 40.17
  A 0.91 0.90 -13.2 0 1 28.78 40.67
  Q 30.76 44.58 28.48 47.39
  A 0.91 0.89 -40.4 0 0 28.39 48.40
  Q 29.35 50.12 31.58 51.64
  Q 32.38 52.19 32.85 52.19"
/>
<path stroke="#c9b99d" vector-effect="non-scaling-stroke" d="
  M 32.76 44.19
  Q 33.17 44.21 34.06 42.92
  A 0.46 0.46 0.0 0 0 33.84 42.23
  Q 33.83 42.22 32.89 42.17
  Q 31.94 42.11 31.93 42.11
  A 0.46 0.46 0.0 0 0 31.63 42.77
  Q 32.35 44.16 32.76 44.19"
/>
</g>
<path fill="#4b3a1c" d="
  M 33.80 88.00
  L 33.14 88.00
  Q 15.61 72.48 6.00 52.51
  Q 2.23 44.67 1.62 34.99
  Q 1.03 25.70 5.17 18.16
  C 11.46 6.69 23.61 0.28 36.52 1.46
  C 45.39 2.28 54.05 6.95 59.28 14.19
  Q 67.39 25.38 64.94 39.29
  Q 62.62 52.43 54.19 64.44
  Q 44.45 78.33 33.80 88.00
  Z
  M 33.39 86.69
  Q 33.53 86.69 33.67 86.65
  A 0.06 0.03 3.1 0 0 33.70 86.64
  C 49.68 71.95 73.41 41.85 60.74 18.63
  C 55.36 8.78 44.94 2.48 33.56 2.46
  C 22.17 2.44 11.73 8.70 6.31 18.53
  C -6.45 41.70 17.17 71.89 33.09 86.64
  A 0.06 0.03 -2.9 0 0 33.12 86.65
  Q 33.25 86.69 33.39 86.69
  Z"
/>
<path fill="#92723a" d="
  M 33.56 2.46
  C 44.94 2.48 55.36 8.78 60.74 18.63
  C 73.41 41.85 49.68 71.95 33.70 86.64
  A 0.06 0.03 3.1 0 1 33.67 86.65
  Q 33.53 86.69 33.39 86.69
  Q 33.25 86.69 33.12 86.65
  A 0.06 0.03 -2.9 0 1 33.09 86.64
  C 17.17 71.89 -6.45 41.70 6.31 18.53
  C 11.73 8.70 22.17 2.44 33.56 2.46
  Z
  M 32.85 52.19
  Q 33.33 52.19 34.13 51.64
  Q 36.36 50.12 37.32 48.40
  A 0.91 0.89 40.4 0 0 37.23 47.39
  Q 34.95 44.58 36.93 40.67
  A 0.91 0.90 13.3 0 1 37.74 40.17
  L 39.73 40.17
  A 1.83 1.75 -60.8 0 0 40.73 39.86
  L 41.99 38.99
  A 0.58 0.57 37.5 0 0 41.85 37.98
  Q 40.60 37.54 38.36 37.77
  A 0.24 0.24 0.0 0 1 38.18 37.35
  C 42.51 33.60 47.31 36.27 50.53 30.86
  A 0.28 0.28 0.0 0 0 50.17 30.47
  Q 48.72 31.15 48.05 31.01
  A 0.37 0.36 35.1 0 1 47.93 30.34
  Q 50.95 28.50 50.99 24.33
  A 0.31 0.30 -30.0 0 0 50.42 24.18
  L 49.11 26.45
  A 0.46 0.46 0.0 0 1 48.25 26.20
  Q 48.30 24.88 48.19 23.74
  C 47.93 20.99 45.44 19.24 46.40 16.49
  A 0.23 0.23 0.0 0 0 46.03 16.24
  C 44.26 17.73 45.20 21.77 45.72 24.53
  A 0.41 0.41 0.0 0 1 45.44 24.99
  L 45.43 24.99
  A 0.53 0.53 0.0 0 1 44.79 24.70
  Q 43.60 22.03 41.15 20.91
  A 0.28 0.27 -3.6 0 0 40.80 21.30
  Q 45.83 29.14 38.07 33.77
  A 0.70 0.70 0.0 0 1 37.22 33.68
  Q 35.59 32.14 36.05 29.81
  A 0.33 0.33 0.0 0 0 35.44 29.58
  Q 33.60 32.88 34.84 35.00
  A 0.62 0.61 -28.8 0 1 34.59 35.86
  Q 33.90 36.21 32.86 36.21
  Q 31.82 36.21 31.13 35.86
  A 0.62 0.61 28.8 0 1 30.88 35.00
  Q 32.12 32.88 30.28 29.58
  A 0.33 0.33 0.0 0 0 29.67 29.81
  Q 30.13 32.14 28.50 33.68
  A 0.70 0.70 0.0 0 1 27.65 33.77
  Q 19.89 29.14 24.92 21.30
  A 0.28 0.27 3.6 0 0 24.57 20.91
  Q 22.12 22.03 20.93 24.70
  A 0.53 0.53 0.0 0 1 20.29 24.99
  L 20.28 24.99
  A 0.41 0.41 0.0 0 1 20.00 24.53
  C 20.52 21.77 21.46 17.73 19.69 16.24
  A 0.23 0.23 0.0 0 0 19.32 16.49
  C 20.28 19.24 17.79 20.98 17.53 23.73
  Q 17.42 24.87 17.47 26.19
  A 0.46 0.46 0.0 0 1 16.61 26.44
  L 15.30 24.17
  A 0.31 0.30 30.0 0 0 14.73 24.32
  Q 14.77 28.49 17.79 30.33
  A 0.37 0.36 -35.1 0 1 17.67 31.00
  Q 17.00 31.14 15.55 30.46
  A 0.28 0.28 0.0 0 0 15.19 30.85
  C 18.41 36.27 23.21 33.60 27.53 37.35
  A 0.24 0.24 0.0 0 1 27.35 37.77
  Q 25.11 37.54 23.86 37.98
  A 0.58 0.57 -37.4 0 0 23.72 38.99
  L 24.98 39.86
  A 1.83 1.75 60.9 0 0 25.98 40.17
  L 27.97 40.17
  A 0.91 0.90 -13.2 0 1 28.78 40.67
  Q 30.76 44.58 28.48 47.39
  A 0.91 0.89 -40.4 0 0 28.39 48.40
  Q 29.35 50.12 31.58 51.64
  Q 32.38 52.19 32.85 52.19
  Z"
/>
<path fill="#ffffff" d="
  M 32.86 36.21
  Q 33.90 36.21 34.59 35.86
  A 0.62 0.61 -28.8 0 0 34.84 35.00
  Q 33.60 32.88 35.44 29.58
  A 0.33 0.33 0.0 0 1 36.05 29.81
  Q 35.59 32.14 37.22 33.68
  A 0.70 0.70 0.0 0 0 38.07 33.77
  Q 45.83 29.14 40.80 21.30
  A 0.28 0.27 -3.6 0 1 41.15 20.91
  Q 43.60 22.03 44.79 24.70
  A 0.53 0.53 0.0 0 0 45.43 24.99
  L 45.44 24.99
  A 0.41 0.41 0.0 0 0 45.72 24.53
  C 45.20 21.77 44.26 17.73 46.03 16.24
  A 0.23 0.23 0.0 0 1 46.40 16.49
  C 45.44 19.24 47.93 20.99 48.19 23.74
  Q 48.30 24.88 48.25 26.20
  A 0.46 0.46 0.0 0 0 49.11 26.45
  L 50.42 24.18
  A 0.31 0.30 -30.0 0 1 50.99 24.33
  Q 50.95 28.50 47.93 30.34
  A 0.37 0.36 35.1 0 0 48.05 31.01
  Q 48.72 31.15 50.17 30.47
  A 0.28 0.28 0.0 0 1 50.53 30.86
  C 47.31 36.27 42.51 33.60 38.18 37.35
  A 0.24 0.24 0.0 0 0 38.36 37.77
  Q 40.60 37.54 41.85 37.98
  A 0.58 0.57 37.5 0 1 41.99 38.99
  L 40.73 39.86
  A 1.83 1.75 -60.8 0 1 39.73 40.17
  L 37.74 40.17
  A 0.91 0.90 13.3 0 0 36.93 40.67
  Q 34.95 44.58 37.23 47.39
  A 0.91 0.89 40.4 0 1 37.32 48.40
  Q 36.36 50.12 34.13 51.64
  Q 33.33 52.19 32.85 52.19
  Q 32.38 52.19 31.58 51.64
  Q 29.35 50.12 28.39 48.40
  A 0.91 0.89 -40.4 0 1 28.48 47.39
  Q 30.76 44.58 28.78 40.67
  A 0.91 0.90 -13.2 0 0 27.97 40.17
  L 25.98 40.17
  A 1.83 1.75 60.9 0 1 24.98 39.86
  L 23.72 38.99
  A 0.58 0.57 -37.4 0 1 23.86 37.98
  Q 25.11 37.54 27.35 37.77
  A 0.24 0.24 0.0 0 0 27.53 37.35
  C 23.21 33.60 18.41 36.27 15.19 30.85
  A 0.28 0.28 0.0 0 1 15.55 30.46
  Q 17.00 31.14 17.67 31.00
  A 0.37 0.36 -35.1 0 0 17.79 30.33
  Q 14.77 28.49 14.73 24.32
  A 0.31 0.30 30.0 0 1 15.30 24.17
  L 16.61 26.44
  A 0.46 0.46 0.0 0 0 17.47 26.19
  Q 17.42 24.87 17.53 23.73
  C 17.79 20.98 20.28 19.24 19.32 16.49
  A 0.23 0.23 0.0 0 1 19.69 16.24
  C 21.46 17.73 20.52 21.77 20.00 24.53
  A 0.41 0.41 0.0 0 0 20.28 24.99
  L 20.29 24.99
  A 0.53 0.53 0.0 0 0 20.93 24.70
  Q 22.12 22.03 24.57 20.91
  A 0.28 0.27 3.6 0 1 24.92 21.30
  Q 19.89 29.14 27.65 33.77
  A 0.70 0.70 0.0 0 0 28.50 33.68
  Q 30.13 32.14 29.67 29.81
  A 0.33 0.33 0.0 0 1 30.28 29.58
  Q 32.12 32.88 30.88 35.00
  A 0.62 0.61 28.8 0 0 31.13 35.86
  Q 31.82 36.21 32.86 36.21
  Z
  M 32.76 44.19
  Q 33.17 44.21 34.06 42.92
  A 0.46 0.46 0.0 0 0 33.84 42.23
  Q 33.83 42.22 32.89 42.17
  Q 31.94 42.11 31.93 42.11
  A 0.46 0.46 0.0 0 0 31.63 42.77
  Q 32.35 44.16 32.76 44.19
  Z"
/>
<path fill="#92723a" d="
  M 32.89 42.17
  Q 33.83 42.22 33.84 42.23
  A 0.46 0.46 0.0 0 1 34.06 42.92
  Q 33.17 44.21 32.76 44.19
  Q 32.35 44.16 31.63 42.77
  A 0.46 0.46 0.0 0 1 31.93 42.11
  Q 31.94 42.11 32.89 42.17
  Z"
/>
</svg>
