<?xml version="1.0" encoding="UTF-8" standalone="no"?>
<!DOCTYPE svg PUBLIC "-//W3C//DTD SVG 1.1//EN" "http://www.w3.org/Graphics/SVG/1.1/DTD/svg11.dtd">
<svg xmlns="http://www.w3.org/2000/svg" version="1.1" viewBox="0.00 0.00 66.00 88.00">
<g stroke-width="2.00" fill="none" stroke-linecap="butt">
<path stroke="#6f562b" vector-effect="non-scaling-stroke" d="
  M 33.40 86.69
  Q 33.53 86.69 33.67 86.65
  A 0.12 0.07 -59.2 0 0 33.73 86.62
  Q 47.42 73.88 56.59 58.31
  C 65.21 43.69 68.53 25.30 55.93 12.09
  C 50.16 6.05 42.12 2.48 33.56 2.47
  C 25.00 2.45 16.94 5.99 11.15 12.01
  C -1.50 25.16 1.75 43.57 10.31 58.22
  Q 19.42 73.83 33.06 86.62
  A 0.12 0.07 59.4 0 0 33.12 86.65
  Q 33.26 86.69 33.40 86.69"
/>
<path stroke="#c9b99d" vector-effect="non-scaling-stroke" d="
  M 40.68 25.13
  A 0.23 0.23 0.0 0 0 41.13 25.16
  L 42.81 17.83
  A 1.00 0.98 -56.5 0 0 42.66 17.06
  Q 42.19 16.38 42.16 16.37
  A 1.51 1.51 0.0 0 0 39.94 17.85
  L 40.68 25.13"
/>
<path stroke="#c9b99d" vector-effect="non-scaling-stroke" d="
  M 44.55 23.59
  L 47.75 19.10
  A 0.23 0.23 0.0 0 0 47.57 18.74
  L 45.77 18.74
  A 0.66 0.65 6.0 0 0 45.13 19.25
  L 44.17 23.42
  A 0.21 0.21 0.0 0 0 44.55 23.59"
/>
<path stroke="#c9b99d" vector-effect="non-scaling-stroke" d="
  M 29.3232 21.7135
  A 0.59 0.59 0.0 0 0 28.9931 20.9472
  L 27.2835 20.2668
  A 0.59 0.59 0.0 0 0 26.5172 20.5969
  L 25.8368 22.3065
  A 0.59 0.59 0.0 0 0 26.1669 23.0728
  L 27.8765 23.7532
  A 0.59 0.59 0.0 0 0 28.6428 23.4231
  L 29.3232 21.7135"
/>
<path stroke="#c9b99d" vector-effect="non-scaling-stroke" d="
  M 34.13 21.99
  A 0.62 0.61 0.3 0 0 33.41 21.28
  L 31.85 21.55
  A 1.15 1.12 6.9 0 0 31.02 22.19
  Q 30.30 23.76 30.24 24.04
  A 1.52 1.52 0.0 0 0 33.06 25.08
  Q 33.79 23.80 34.13 21.99"
/>
<path stroke="#c9b99d" vector-effect="non-scaling-stroke" d="
  M 38.50 28.35
  L 38.50 22.92
  A 1.28 1.28 0.0 0 0 36.03 22.46
  L 34.36 26.74
  A 0.26 0.25 -69.1 0 0 34.50 27.07
  L 38.24 28.53
  A 0.19 0.19 0.0 0 0 38.50 28.35"
/>
<path stroke="#c9b99d" vector-effect="non-scaling-stroke" d="
  M 22.61 26.24
  Q 24.03 27.40 25.41 27.91
  A 1.52 1.52 0.0 0 0 26.90 25.31
  Q 26.68 25.13 25.12 24.39
  A 1.15 1.12 -46.9 0 0 24.07 24.44
  L 22.70 25.23
  A 0.62 0.61 -40.3 0 0 22.61 26.24"
/>
<path stroke="#c9b99d" vector-effect="non-scaling-stroke" d="
  M 31.5990 28.3156
  A 0.48 0.48 0.0 0 0 31.3469 27.6853
  L 29.6925 26.9762
  A 0.48 0.48 0.0 0 0 29.0622 27.2283
  L 28.3610 28.8644
  A 0.48 0.48 0.0 0 0 28.6131 29.4947
  L 30.2675 30.2038
  A 0.48 0.48 0.0 0 0 30.8978 29.9517
  L 31.5990 28.3156"
/>
<path stroke="#c9b99d" vector-effect="non-scaling-stroke" d="
  M 23.64 47.97
  Q 19.69 49.10 18.70 44.71
  Q 17.75 40.51 20.75 37.44
  Q 23.09 35.03 23.44 34.33
  Q 25.32 30.58 25.43 30.49
  A 0.30 0.30 0.0 0 0 25.39 30.00
  L 21.08 27.58
  A 0.68 0.68 0.0 0 0 20.20 27.76
  Q 14.60 35.36 17.51 44.22
  C 18.35 46.78 20.73 49.04 21.10 51.72
  A 0.44 0.43 -6.0 0 0 21.58 52.10
  L 24.32 51.82
  A 0.48 0.48 0.0 0 0 24.75 51.29
  L 24.47 48.53
  A 0.65 0.65 0.0 0 0 23.64 47.97"
/>
<path stroke="#c9b99d" vector-effect="non-scaling-stroke" d="
  M 36.80 30.09
  Q 35.40 29.28 34.14 29.03
  A 1.34 1.33 65.8 0 0 33.21 31.50
  Q 33.42 31.62 34.88 32.05
  A 1.01 0.98 -56.0 0 0 35.78 31.86
  L 36.86 30.98
  A 0.54 0.54 0.0 0 0 36.80 30.09"
/>
<path stroke="#c9b99d" vector-effect="non-scaling-stroke" d="
  M 44.81 29.36
  L 42.24 33.80
  A 1.15 1.14 29.2 0 0 42.69 35.38
  C 46.71 37.51 49.27 40.65 48.24 45.51
  Q 47.60 48.51 44.57 47.96
  A 0.59 0.58 -78.0 0 0 43.90 48.40
  L 43.35 50.80
  A 0.63 0.62 12.8 0 0 43.83 51.55
  L 46.44 52.15
  A 0.84 0.83 -83.0 0 0 47.46 51.35
  L 47.49 49.74
  A 2.57 2.54 58.8 0 1 47.75 48.66
  Q 52.69 38.57 45.86 29.30
  A 0.63 0.63 0.0 0 0 44.81 29.36"
/>
<path stroke="#c9b99d" vector-effect="non-scaling-stroke" d="
  M 25.70 34.11
  A 0.54 0.53 10.1 0 0 26.21 34.84
  L 27.60 34.83
  A 1.01 0.98 16.6 0 0 28.41 34.41
  Q 29.26 33.16 29.35 32.92
  A 1.33 1.33 0.0 0 0 27.08 31.62
  Q 26.26 32.61 25.70 34.11"
/>
<path stroke="#c9b99d" vector-effect="non-scaling-stroke" d="
  M 31.77 37.60
  Q 32.16 38.65 31.85 39.60
  A 0.64 0.64 0.0 0 0 32.20 40.39
  L 34.50 41.38
  A 0.11 0.03 -19.7 0 0 34.59 41.37
  Q 34.61 41.36 34.63 41.35
  Q 34.65 41.35 34.68 41.34
  A 0.11 0.03 -20.5 0 0 34.75 41.29
  L 35.87 39.05
  A 0.64 0.64 0.0 0 0 35.63 38.22
  Q 34.78 37.69 34.39 36.64
  Q 34.01 35.58 34.32 34.63
  A 0.64 0.64 0.0 0 0 33.97 33.84
  L 31.67 32.85
  A 0.11 0.03 -19.7 0 0 31.58 32.87
  Q 31.55 32.87 31.53 32.88
  Q 31.51 32.89 31.49 32.90
  A 0.11 0.03 -20.5 0 0 31.41 32.95
  L 30.30 35.19
  A 0.64 0.64 0.0 0 0 30.53 36.02
  Q 31.39 36.54 31.77 37.60"
/>
</g>
<path fill="#4b3a1c" d="
  M 33.81 88.00
  L 33.03 88.00
  C 16.64 73.15 -6.44 44.04 4.16 20.21
  C 11.76 3.13 32.58 -3.69 49.00 5.29
  Q 57.67 10.02 62.19 18.87
  C 67.03 28.36 66.06 39.90 62.11 49.59
  C 56.13 64.27 45.47 77.37 33.81 88.00
  Z
  M 33.40 86.69
  Q 33.53 86.69 33.67 86.65
  A 0.12 0.07 -59.2 0 0 33.73 86.62
  Q 47.42 73.88 56.59 58.31
  C 65.21 43.69 68.53 25.30 55.93 12.09
  C 50.16 6.05 42.12 2.48 33.56 2.47
  C 25.00 2.45 16.94 5.99 11.15 12.01
  C -1.50 25.16 1.75 43.57 10.31 58.22
  Q 19.42 73.83 33.06 86.62
  A 0.12 0.07 59.4 0 0 33.12 86.65
  Q 33.26 86.69 33.40 86.69
  Z"
/>
<path fill="#92723a" d="
  M 33.56 2.47
  C 42.12 2.48 50.16 6.05 55.93 12.09
  C 68.53 25.30 65.21 43.69 56.59 58.31
  Q 47.42 73.88 33.73 86.62
  A 0.12 0.07 -59.2 0 1 33.67 86.65
  Q 33.53 86.69 33.40 86.69
  Q 33.26 86.69 33.12 86.65
  A 0.12 0.07 59.4 0 1 33.06 86.62
  Q 19.42 73.83 10.31 58.22
  C 1.75 43.57 -1.50 25.16 11.15 12.01
  C 16.94 5.99 25.00 2.45 33.56 2.47
  Z
  M 40.68 25.13
  A 0.23 0.23 0.0 0 0 41.13 25.16
  L 42.81 17.83
  A 1.00 0.98 -56.5 0 0 42.66 17.06
  Q 42.19 16.38 42.16 16.37
  A 1.51 1.51 0.0 0 0 39.94 17.85
  L 40.68 25.13
  Z
  M 44.55 23.59
  L 47.75 19.10
  A 0.23 0.23 0.0 0 0 47.57 18.74
  L 45.77 18.74
  A 0.66 0.65 6.0 0 0 45.13 19.25
  L 44.17 23.42
  A 0.21 0.21 0.0 0 0 44.55 23.59
  Z
  M 29.3232 21.7135
  A 0.59 0.59 0.0 0 0 28.9931 20.9472
  L 27.2835 20.2668
  A 0.59 0.59 0.0 0 0 26.5172 20.5969
  L 25.8368 22.3065
  A 0.59 0.59 0.0 0 0 26.1669 23.0728
  L 27.8765 23.7532
  A 0.59 0.59 0.0 0 0 28.6428 23.4231
  L 29.3232 21.7135
  Z
  M 34.13 21.99
  A 0.62 0.61 0.3 0 0 33.41 21.28
  L 31.85 21.55
  A 1.15 1.12 6.9 0 0 31.02 22.19
  Q 30.30 23.76 30.24 24.04
  A 1.52 1.52 0.0 0 0 33.06 25.08
  Q 33.79 23.80 34.13 21.99
  Z
  M 38.50 28.35
  L 38.50 22.92
  A 1.28 1.28 0.0 0 0 36.03 22.46
  L 34.36 26.74
  A 0.26 0.25 -69.1 0 0 34.50 27.07
  L 38.24 28.53
  A 0.19 0.19 0.0 0 0 38.50 28.35
  Z
  M 22.61 26.24
  Q 24.03 27.40 25.41 27.91
  A 1.52 1.52 0.0 0 0 26.90 25.31
  Q 26.68 25.13 25.12 24.39
  A 1.15 1.12 -46.9 0 0 24.07 24.44
  L 22.70 25.23
  A 0.62 0.61 -40.3 0 0 22.61 26.24
  Z
  M 31.5990 28.3156
  A 0.48 0.48 0.0 0 0 31.3469 27.6853
  L 29.6925 26.9762
  A 0.48 0.48 0.0 0 0 29.0622 27.2283
  L 28.3610 28.8644
  A 0.48 0.48 0.0 0 0 28.6131 29.4947
  L 30.2675 30.2038
  A 0.48 0.48 0.0 0 0 30.8978 29.9517
  L 31.5990 28.3156
  Z
  M 23.64 47.97
  Q 19.69 49.10 18.70 44.71
  Q 17.75 40.51 20.75 37.44
  Q 23.09 35.03 23.44 34.33
  Q 25.32 30.58 25.43 30.49
  A 0.30 0.30 0.0 0 0 25.39 30.00
  L 21.08 27.58
  A 0.68 0.68 0.0 0 0 20.20 27.76
  Q 14.60 35.36 17.51 44.22
  C 18.35 46.78 20.73 49.04 21.10 51.72
  A 0.44 0.43 -6.0 0 0 21.58 52.10
  L 24.32 51.82
  A 0.48 0.48 0.0 0 0 24.75 51.29
  L 24.47 48.53
  A 0.65 0.65 0.0 0 0 23.64 47.97
  Z
  M 36.80 30.09
  Q 35.40 29.28 34.14 29.03
  A 1.34 1.33 65.8 0 0 33.21 31.50
  Q 33.42 31.62 34.88 32.05
  A 1.01 0.98 -56.0 0 0 35.78 31.86
  L 36.86 30.98
  A 0.54 0.54 0.0 0 0 36.80 30.09
  Z
  M 44.81 29.36
  L 42.24 33.80
  A 1.15 1.14 29.2 0 0 42.69 35.38
  C 46.71 37.51 49.27 40.65 48.24 45.51
  Q 47.60 48.51 44.57 47.96
  A 0.59 0.58 -78.0 0 0 43.90 48.40
  L 43.35 50.80
  A 0.63 0.62 12.8 0 0 43.83 51.55
  L 46.44 52.15
  A 0.84 0.83 -83.0 0 0 47.46 51.35
  L 47.49 49.74
  A 2.57 2.54 58.8 0 1 47.75 48.66
  Q 52.69 38.57 45.86 29.30
  A 0.63 0.63 0.0 0 0 44.81 29.36
  Z
  M 25.70 34.11
  A 0.54 0.53 10.1 0 0 26.21 34.84
  L 27.60 34.83
  A 1.01 0.98 16.6 0 0 28.41 34.41
  Q 29.26 33.16 29.35 32.92
  A 1.33 1.33 0.0 0 0 27.08 31.62
  Q 26.26 32.61 25.70 34.11
  Z
  M 31.77 37.60
  Q 32.16 38.65 31.85 39.60
  A 0.64 0.64 0.0 0 0 32.20 40.39
  L 34.50 41.38
  A 0.11 0.03 -19.7 0 0 34.59 41.37
  Q 34.61 41.36 34.63 41.35
  Q 34.65 41.35 34.68 41.34
  A 0.11 0.03 -20.5 0 0 34.75 41.29
  L 35.87 39.05
  A 0.64 0.64 0.0 0 0 35.63 38.22
  Q 34.78 37.69 34.39 36.64
  Q 34.01 35.58 34.32 34.63
  A 0.64 0.64 0.0 0 0 33.97 33.84
  L 31.67 32.85
  A 0.11 0.03 -19.7 0 0 31.58 32.87
  Q 31.55 32.87 31.53 32.88
  Q 31.51 32.89 31.49 32.90
  A 0.11 0.03 -20.5 0 0 31.41 32.95
  L 30.30 35.19
  A 0.64 0.64 0.0 0 0 30.53 36.02
  Q 31.39 36.54 31.77 37.60
  Z"
/>
<path fill="#ffffff" d="
  M 40.68 25.13
  L 39.94 17.85
  A 1.51 1.51 0.0 0 1 42.16 16.37
  Q 42.19 16.38 42.66 17.06
  A 1.00 0.98 -56.5 0 1 42.81 17.83
  L 41.13 25.16
  A 0.23 0.23 0.0 0 1 40.68 25.13
  Z"
/>
<path fill="#ffffff" d="
  M 44.55 23.59
  A 0.21 0.21 0.0 0 1 44.17 23.42
  L 45.13 19.25
  A 0.66 0.65 6.0 0 1 45.77 18.74
  L 47.57 18.74
  A 0.23 0.23 0.0 0 1 47.75 19.10
  L 44.55 23.59
  Z"
/>
<rect fill="#ffffff" x="-1.51" y="-1.51" transform="translate(27.58,22.01) rotate(21.7)" width="3.02" height="3.02" rx="0.59"/>
<path fill="#ffffff" d="
  M 34.13 21.99
  Q 33.79 23.80 33.06 25.08
  A 1.52 1.52 0.0 0 1 30.24 24.04
  Q 30.30 23.76 31.02 22.19
  A 1.15 1.12 6.9 0 1 31.85 21.55
  L 33.41 21.28
  A 0.62 0.61 0.3 0 1 34.13 21.99
  Z"
/>
<path fill="#ffffff" d="
  M 38.50 28.35
  A 0.19 0.19 0.0 0 1 38.24 28.53
  L 34.50 27.07
  A 0.26 0.25 -69.1 0 1 34.36 26.74
  L 36.03 22.46
  A 1.28 1.28 0.0 0 1 38.50 22.92
  L 38.50 28.35
  Z"
/>
<path fill="#ffffff" d="
  M 22.70 25.23
  L 24.07 24.44
  A 1.15 1.12 -46.9 0 1 25.12 24.39
  Q 26.68 25.13 26.90 25.31
  A 1.52 1.52 0.0 0 1 25.41 27.91
  Q 24.03 27.40 22.61 26.24
  A 0.62 0.61 -40.3 0 1 22.70 25.23
  Z"
/>
<rect fill="#ffffff" x="-1.38" y="-1.37" transform="translate(29.98,28.59) rotate(23.2)" width="2.76" height="2.74" rx="0.48"/>
<path fill="#ffffff" d="
  M 24.47 48.53
  L 24.75 51.29
  A 0.48 0.48 0.0 0 1 24.32 51.82
  L 21.58 52.10
  A 0.44 0.43 -6.0 0 1 21.10 51.72
  C 20.73 49.04 18.35 46.78 17.51 44.22
  Q 14.60 35.36 20.20 27.76
  A 0.68 0.68 0.0 0 1 21.08 27.58
  L 25.39 30.00
  A 0.30 0.30 0.0 0 1 25.43 30.49
  Q 25.32 30.58 23.44 34.33
  Q 23.09 35.03 20.75 37.44
  Q 17.75 40.51 18.70 44.71
  Q 19.69 49.10 23.64 47.97
  A 0.65 0.65 0.0 0 1 24.47 48.53
  Z"
/>
<path fill="#ffffff" d="
  M 36.80 30.09
  A 0.54 0.54 0.0 0 1 36.86 30.98
  L 35.78 31.86
  A 1.01 0.98 -56.0 0 1 34.88 32.05
  Q 33.42 31.62 33.21 31.50
  A 1.34 1.33 65.8 0 1 34.14 29.03
  Q 35.40 29.28 36.80 30.09
  Z"
/>
<path fill="#ffffff" d="
  M 44.81 29.36
  A 0.63 0.63 0.0 0 1 45.86 29.30
  Q 52.69 38.57 47.75 48.66
  A 2.57 2.54 58.8 0 0 47.49 49.74
  L 47.46 51.35
  A 0.84 0.83 -83.0 0 1 46.44 52.15
  L 43.83 51.55
  A 0.63 0.62 12.8 0 1 43.35 50.80
  L 43.90 48.40
  A 0.59 0.58 -78.0 0 1 44.57 47.96
  Q 47.60 48.51 48.24 45.51
  C 49.27 40.65 46.71 37.51 42.69 35.38
  A 1.15 1.14 29.2 0 1 42.24 33.80
  L 44.81 29.36
  Z"
/>
<path fill="#ffffff" d="
  M 25.70 34.11
  Q 26.26 32.61 27.08 31.62
  A 1.33 1.33 0.0 0 1 29.35 32.92
  Q 29.26 33.16 28.41 34.41
  A 1.01 0.98 16.6 0 1 27.60 34.83
  L 26.21 34.84
  A 0.54 0.53 10.1 0 1 25.70 34.11
  Z"
/>
<path fill="#ffffff" d="
  M 34.39 36.64
  Q 34.78 37.69 35.63 38.22
  A 0.64 0.64 0.0 0 1 35.87 39.05
  L 34.75 41.29
  A 0.11 0.03 -20.5 0 1 34.68 41.34
  Q 34.65 41.35 34.63 41.35
  Q 34.61 41.36 34.59 41.37
  A 0.11 0.03 -19.7 0 1 34.50 41.38
  L 32.20 40.39
  A 0.64 0.64 0.0 0 1 31.85 39.60
  Q 32.16 38.65 31.77 37.60
  Q 31.39 36.54 30.53 36.02
  A 0.64 0.64 0.0 0 1 30.30 35.19
  L 31.41 32.95
  A 0.11 0.03 -20.5 0 1 31.49 32.90
  Q 31.51 32.89 31.53 32.88
  Q 31.55 32.87 31.58 32.87
  A 0.11 0.03 -19.7 0 1 31.67 32.85
  L 33.97 33.84
  A 0.64 0.64 0.0 0 1 34.32 34.63
  Q 34.01 35.58 34.39 36.64
  Z"
/>
</svg>
