<?xml version="1.0" encoding="UTF-8" standalone="no"?>
<!DOCTYPE svg PUBLIC "-//W3C//DTD SVG 1.1//EN" "http://www.w3.org/Graphics/SVG/1.1/DTD/svg11.dtd">
<svg xmlns="http://www.w3.org/2000/svg" version="1.1" viewBox="0.00 0.00 66.00 88.00">
<g stroke-width="2.00" fill="none" stroke-linecap="butt">
<path stroke="#324277" vector-effect="non-scaling-stroke" d="
  M 33.42 86.70
  Q 33.52 86.70 33.62 86.68
  Q 33.71 86.66 33.79 86.58
  Q 47.74 73.42 56.60 58.33
  C 63.95 45.81 68.21 28.76 59.06 15.94
  C 53.07 7.55 44.05 2.54 33.50 2.53
  C 22.96 2.52 13.92 7.51 7.92 15.89
  C -1.26 28.69 2.97 45.75 10.29 58.28
  Q 19.12 73.39 33.05 86.58
  Q 33.13 86.66 33.21 86.68
  Q 33.31 86.70 33.42 86.70"
/>
<path stroke="#a2abce" vector-effect="non-scaling-stroke" d="
  M 14.74 24.73
  Q 14.74 25.20 14.80 25.67
  A 0.70 0.69 85.8 0 0 15.49 26.27
  L 44.94 26.27
  A 0.25 0.25 0.0 0 1 45.12 26.69
  L 40.43 31.38
  A 0.61 0.61 0.0 0 0 40.43 32.24
  L 41.72 33.53
  A 0.62 0.61 45.3 0 0 42.58 33.54
  Q 47.94 28.34 51.15 24.91
  C 51.19 24.87 51.18 24.89 51.18 24.80
  C 51.18 24.73 51.19 24.75 51.15 24.71
  Q 47.96 21.27 42.62 16.05
  A 0.62 0.61 -45.1 0 0 41.76 16.05
  L 40.46 17.34
  A 0.61 0.61 0.0 0 0 40.46 18.20
  L 45.13 22.91
  A 0.25 0.25 0.0 0 1 44.95 23.33
  L 15.50 23.20
  A 0.70 0.69 -85.6 0 0 14.81 23.80
  Q 14.74 24.26 14.74 24.73"
/>
<path stroke="#a2abce" vector-effect="non-scaling-stroke" d="
  M 51.25 43.29
  Q 51.25 42.82 51.18 42.36
  A 0.70 0.69 85.9 0 0 50.50 41.76
  L 21.12 41.70
  A 0.25 0.24 22.3 0 1 20.94 41.28
  L 25.63 36.61
  A 0.61 0.61 0.0 0 0 25.63 35.75
  L 24.34 34.46
  A 0.61 0.61 0.0 0 0 23.49 34.45
  Q 18.13 39.63 14.92 43.04
  C 14.88 43.08 14.89 43.06 14.89 43.15
  C 14.89 43.22 14.88 43.20 14.92 43.24
  Q 18.10 46.68 23.41 51.90
  A 0.61 0.61 0.0 0 0 24.27 51.90
  L 25.57 50.62
  A 0.61 0.61 0.0 0 0 25.57 49.76
  L 20.92 45.05
  A 0.25 0.24 -21.8 0 1 21.10 44.63
  L 50.49 44.82
  A 0.70 0.69 -85.5 0 0 51.18 44.22
  Q 51.24 43.76 51.25 43.29"
/>
</g>
<path fill="#202d52" d="
  M 33.80 88.00
  L 33.04 88.00
  C 21.69 77.68 12.11 65.67 5.62 51.40
  Q 2.10 43.68 1.57 34.83
  C 0.59 18.80 11.14 5.81 26.69 2.03
  Q 34.24 0.19 42.97 2.76
  Q 51.07 5.14 56.80 11.28
  Q 67.88 23.15 64.84 39.76
  Q 62.54 52.30 54.57 64.07
  Q 45.67 77.20 33.80 88.00
  Z
  M 33.42 86.70
  Q 33.52 86.70 33.62 86.68
  Q 33.71 86.66 33.79 86.58
  Q 47.74 73.42 56.60 58.33
  C 63.95 45.81 68.21 28.76 59.06 15.94
  C 53.07 7.55 44.05 2.54 33.50 2.53
  C 22.96 2.52 13.92 7.51 7.92 15.89
  C -1.26 28.69 2.97 45.75 10.29 58.28
  Q 19.12 73.39 33.05 86.58
  Q 33.13 86.66 33.21 86.68
  Q 33.31 86.70 33.42 86.70
  Z"
/>
<path fill="#44569c" d="
  M 33.50 2.53
  C 44.05 2.54 53.07 7.55 59.06 15.94
  C 68.21 28.76 63.95 45.81 56.60 58.33
  Q 47.74 73.42 33.79 86.58
  Q 33.71 86.66 33.62 86.68
  Q 33.52 86.70 33.42 86.70
  Q 33.31 86.70 33.21 86.68
  Q 33.13 86.66 33.05 86.58
  Q 19.12 73.39 10.29 58.28
  C 2.97 45.75 -1.26 28.69 7.92 15.89
  C 13.92 7.51 22.96 2.52 33.50 2.53
  Z
  M 14.74 24.73
  Q 14.74 25.20 14.80 25.67
  A 0.70 0.69 85.8 0 0 15.49 26.27
  L 44.94 26.27
  A 0.25 0.25 0.0 0 1 45.12 26.69
  L 40.43 31.38
  A 0.61 0.61 0.0 0 0 40.43 32.24
  L 41.72 33.53
  A 0.62 0.61 45.3 0 0 42.58 33.54
  Q 47.94 28.34 51.15 24.91
  C 51.19 24.87 51.18 24.89 51.18 24.80
  C 51.18 24.73 51.19 24.75 51.15 24.71
  Q 47.96 21.27 42.62 16.05
  A 0.62 0.61 -45.1 0 0 41.76 16.05
  L 40.46 17.34
  A 0.61 0.61 0.0 0 0 40.46 18.20
  L 45.13 22.91
  A 0.25 0.25 0.0 0 1 44.95 23.33
  L 15.50 23.20
  A 0.70 0.69 -85.6 0 0 14.81 23.80
  Q 14.74 24.26 14.74 24.73
  Z
  M 51.25 43.29
  Q 51.25 42.82 51.18 42.36
  A 0.70 0.69 85.9 0 0 50.50 41.76
  L 21.12 41.70
  A 0.25 0.24 22.3 0 1 20.94 41.28
  L 25.63 36.61
  A 0.61 0.61 0.0 0 0 25.63 35.75
  L 24.34 34.46
  A 0.61 0.61 0.0 0 0 23.49 34.45
  Q 18.13 39.63 14.92 43.04
  C 14.88 43.08 14.89 43.06 14.89 43.15
  C 14.89 43.22 14.88 43.20 14.92 43.24
  Q 18.10 46.68 23.41 51.90
  A 0.61 0.61 0.0 0 0 24.27 51.90
  L 25.57 50.62
  A 0.61 0.61 0.0 0 0 25.57 49.76
  L 20.92 45.05
  A 0.25 0.24 -21.8 0 1 21.10 44.63
  L 50.49 44.82
  A 0.70 0.69 -85.5 0 0 51.18 44.22
  Q 51.24 43.76 51.25 43.29
  Z"
/>
<path fill="#ffffff" d="
  M 51.18 24.80
  C 51.18 24.89 51.19 24.87 51.15 24.91
  Q 47.94 28.34 42.58 33.54
  A 0.62 0.61 45.3 0 1 41.72 33.53
  L 40.43 32.24
  A 0.61 0.61 0.0 0 1 40.43 31.38
  L 45.12 26.69
  A 0.25 0.25 0.0 0 0 44.94 26.27
  L 15.49 26.27
  A 0.70 0.69 85.8 0 1 14.80 25.67
  Q 14.74 25.20 14.74 24.73
  Q 14.74 24.26 14.81 23.80
  A 0.70 0.69 -85.6 0 1 15.50 23.20
  L 44.95 23.33
  A 0.25 0.25 0.0 0 0 45.13 22.91
  L 40.46 18.20
  A 0.61 0.61 0.0 0 1 40.46 17.34
  L 41.76 16.05
  A 0.62 0.61 -45.1 0 1 42.62 16.05
  Q 47.96 21.27 51.15 24.71
  C 51.19 24.75 51.18 24.73 51.18 24.80
  Z"
/>
<path fill="#ffffff" d="
  M 51.25 43.29
  Q 51.24 43.76 51.18 44.22
  A 0.70 0.69 -85.5 0 1 50.49 44.82
  L 21.10 44.63
  A 0.25 0.24 -21.8 0 0 20.92 45.05
  L 25.57 49.76
  A 0.61 0.61 0.0 0 1 25.57 50.62
  L 24.27 51.90
  A 0.61 0.61 0.0 0 1 23.41 51.90
  Q 18.10 46.68 14.92 43.24
  C 14.88 43.20 14.89 43.22 14.89 43.15
  C 14.89 43.06 14.88 43.08 14.92 43.04
  Q 18.13 39.63 23.49 34.45
  A 0.61 0.61 0.0 0 1 24.34 34.46
  L 25.63 35.75
  A 0.61 0.61 0.0 0 1 25.63 36.61
  L 20.94 41.28
  A 0.25 0.24 22.3 0 0 21.12 41.70
  L 50.50 41.76
  A 0.70 0.69 85.9 0 1 51.18 42.36
  Q 51.25 42.82 51.25 43.29
  Z"
/>
</svg>
