<?xml version="1.0" encoding="UTF-8" standalone="no"?>
<!DOCTYPE svg PUBLIC "-//W3C//DTD SVG 1.1//EN" "http://www.w3.org/Graphics/SVG/1.1/DTD/svg11.dtd">
<svg xmlns="http://www.w3.org/2000/svg" version="1.1" viewBox="0.00 0.00 66.00 88.00">
<g stroke-width="2.00" fill="none" stroke-linecap="butt">
<path stroke="#2a5d6e" vector-effect="non-scaling-stroke" d="
  M 33.41 86.72
  Q 33.52 86.72 33.62 86.69
  Q 33.70 86.67 33.78 86.60
  Q 48.21 73.22 57.58 56.53
  C 66.22 41.14 68.11 21.95 53.22 9.56
  C 47.96 5.18 40.87 2.49 33.52 2.48
  C 26.18 2.47 19.08 5.14 13.81 9.51
  C -1.12 21.86 0.72 41.05 9.32 56.47
  Q 18.65 73.18 33.04 86.60
  Q 33.12 86.67 33.20 86.69
  Q 33.30 86.72 33.41 86.72"
/>
<path stroke="#9dbdc8" vector-effect="non-scaling-stroke" d="
  M 20.53 32.50
  A 0.49 0.49 0.0 0 0 21.02 32.01
  L 21.02 20.38
  A 1.12 1.12 0.0 0 0 19.90 19.26
  L 17.07 19.26
  A 2.32 2.31 90.0 0 0 14.76 21.58
  L 14.76 32.04
  A 0.46 0.45 -90.0 0 0 15.21 32.50
  L 20.53 32.50"
/>
<path stroke="#9dbdc8" vector-effect="non-scaling-stroke" d="
  M 33.00 27.70
  Q 36.39 27.70 37.14 32.01
  A 0.62 0.62 0.0 0 0 37.75 32.52
  L 41.62 32.52
  A 0.63 0.63 0.0 0 0 42.25 31.89
  L 42.25 19.96
  A 0.69 0.69 0.0 0 0 41.56 19.27
  Q 40.85 19.27 33.00 19.26
  Q 25.16 19.26 24.44 19.26
  A 0.69 0.69 0.0 0 0 23.75 19.95
  L 23.74 31.88
  A 0.63 0.63 0.0 0 0 24.37 32.51
  L 28.24 32.51
  A 0.62 0.62 0.0 0 0 28.85 32.01
  Q 29.61 27.69 33.00 27.70"
/>
<path stroke="#9dbdc8" vector-effect="non-scaling-stroke" d="
  M 45.47 32.50
  L 50.79 32.51
  A 0.46 0.45 -90.0 0 0 51.24 32.05
  L 51.25 21.59
  A 2.32 2.31 -90.0 0 0 48.94 19.26
  L 46.11 19.26
  A 1.12 1.12 0.0 0 0 44.99 20.38
  L 44.98 32.01
  A 0.49 0.49 0.0 0 0 45.47 32.50"
/>
<path stroke="#9dbdc8" vector-effect="non-scaling-stroke" d="
  M 33.01 37.10
  Q 33.56 37.09 33.80 36.83
  Q 34.09 36.51 34.03 36.03
  Q 33.78 34.05 34.99 32.69
  A 1.18 1.17 59.0 0 0 35.25 31.63
  Q 34.73 29.54 32.96 29.56
  Q 31.19 29.57 30.70 31.66
  A 1.18 1.17 -59.8 0 0 30.97 32.72
  Q 32.20 34.06 31.97 36.04
  Q 31.92 36.52 32.21 36.84
  Q 32.45 37.10 33.01 37.10"
/>
<path stroke="#9dbdc8" vector-effect="non-scaling-stroke" d="
  M 33.00 38.74
  Q 30.78 38.74 30.75 38.73
  A 0.81 0.80 87.7 0 1 30.04 38.07
  L 29.90 37.26
  A 1.22 1.21 40.0 0 0 27.49 37.47
  L 27.49 47.79
  A 0.68 0.67 -87.5 0 0 28.10 48.46
  Q 28.60 48.51 32.99 48.51
  Q 37.39 48.52 37.88 48.47
  A 0.68 0.67 87.6 0 0 38.49 47.80
  L 38.51 37.48
  A 1.22 1.21 -39.9 0 0 36.10 37.27
  L 35.96 38.07
  A 0.81 0.80 -87.6 0 1 35.25 38.74
  Q 35.21 38.74 33.00 38.74"
/>
<path stroke="#9dbdc8" vector-effect="non-scaling-stroke" d="
  M 17.3998 36.9724
  A 0.40 0.40 0.0 0 0 17.0005 36.5717
  L 15.0805 36.5683
  A 0.40 0.40 0.0 0 0 14.6798 36.9676
  L 14.6602 48.1476
  A 0.40 0.40 0.0 0 0 15.0595 48.5483
  L 16.9795 48.5517
  A 0.40 0.40 0.0 0 0 17.3802 48.1524
  L 17.3998 36.9724"
/>
<path stroke="#9dbdc8" vector-effect="non-scaling-stroke" d="
  M 24.8297 37.0241
  A 0.45 0.45 0.0 0 0 24.3805 36.5733
  L 20.5805 36.5667
  A 0.45 0.45 0.0 0 0 20.1297 37.0159
  L 20.1103 48.0959
  A 0.45 0.45 0.0 0 0 20.5595 48.5467
  L 24.3595 48.5533
  A 0.45 0.45 0.0 0 0 24.8103 48.1041
  L 24.8297 37.0241"
/>
<path stroke="#9dbdc8" vector-effect="non-scaling-stroke" d="
  M 45.85 36.97
  A 0.39 0.39 0.0 0 0 45.46 36.58
  L 41.58 36.58
  A 0.39 0.39 0.0 0 0 41.19 36.97
  L 41.19 48.19
  A 0.39 0.39 0.0 0 0 41.58 48.58
  L 45.46 48.58
  A 0.39 0.39 0.0 0 0 45.85 48.19
  L 45.85 36.97"
/>
<path stroke="#9dbdc8" vector-effect="non-scaling-stroke" d="
  M 51.3398 36.9524
  A 0.37 0.37 0.0 0 0 50.9705 36.5817
  L 48.9905 36.5783
  A 0.37 0.37 0.0 0 0 48.6198 36.9476
  L 48.6002 48.1876
  A 0.37 0.37 0.0 0 0 48.9695 48.5583
  L 50.9495 48.5617
  A 0.37 0.37 0.0 0 0 51.3202 48.1924
  L 51.3398 36.9524"
/>
</g>
<path fill="#1a3f4b" d="
  M 33.81 88.00
  L 33.04 88.00
  C 17.18 73.58 -4.60 46.36 3.05 23.10
  C 7.15 10.64 18.44 2.28 31.48 1.40
  C 44.41 0.52 57.15 7.83 62.61 19.67
  C 73.76 43.86 50.33 72.91 33.81 88.00
  Z
  M 33.41 86.72
  Q 33.52 86.72 33.62 86.69
  Q 33.70 86.67 33.78 86.60
  Q 48.21 73.22 57.58 56.53
  C 66.22 41.14 68.11 21.95 53.22 9.56
  C 47.96 5.18 40.87 2.49 33.52 2.48
  C 26.18 2.47 19.08 5.14 13.81 9.51
  C -1.12 21.86 0.72 41.05 9.32 56.47
  Q 18.65 73.18 33.04 86.60
  Q 33.12 86.67 33.20 86.69
  Q 33.30 86.72 33.41 86.72
  Z"
/>
<path fill="#3a7a91" d="
  M 33.52 2.48
  C 40.87 2.49 47.96 5.18 53.22 9.56
  C 68.11 21.95 66.22 41.14 57.58 56.53
  Q 48.21 73.22 33.78 86.60
  Q 33.70 86.67 33.62 86.69
  Q 33.52 86.72 33.41 86.72
  Q 33.30 86.72 33.20 86.69
  Q 33.12 86.67 33.04 86.60
  Q 18.65 73.18 9.32 56.47
  C 0.72 41.05 -1.12 21.86 13.81 9.51
  C 19.08 5.14 26.18 2.47 33.52 2.48
  Z
  M 20.53 32.50
  A 0.49 0.49 0.0 0 0 21.02 32.01
  L 21.02 20.38
  A 1.12 1.12 0.0 0 0 19.90 19.26
  L 17.07 19.26
  A 2.32 2.31 90.0 0 0 14.76 21.58
  L 14.76 32.04
  A 0.46 0.45 -90.0 0 0 15.21 32.50
  L 20.53 32.50
  Z
  M 33.00 27.70
  Q 36.39 27.70 37.14 32.01
  A 0.62 0.62 0.0 0 0 37.75 32.52
  L 41.62 32.52
  A 0.63 0.63 0.0 0 0 42.25 31.89
  L 42.25 19.96
  A 0.69 0.69 0.0 0 0 41.56 19.27
  Q 40.85 19.27 33.00 19.26
  Q 25.16 19.26 24.44 19.26
  A 0.69 0.69 0.0 0 0 23.75 19.95
  L 23.74 31.88
  A 0.63 0.63 0.0 0 0 24.37 32.51
  L 28.24 32.51
  A 0.62 0.62 0.0 0 0 28.85 32.01
  Q 29.61 27.69 33.00 27.70
  Z
  M 45.47 32.50
  L 50.79 32.51
  A 0.46 0.45 -90.0 0 0 51.24 32.05
  L 51.25 21.59
  A 2.32 2.31 -90.0 0 0 48.94 19.26
  L 46.11 19.26
  A 1.12 1.12 0.0 0 0 44.99 20.38
  L 44.98 32.01
  A 0.49 0.49 0.0 0 0 45.47 32.50
  Z
  M 33.01 37.10
  Q 33.56 37.09 33.80 36.83
  Q 34.09 36.51 34.03 36.03
  Q 33.78 34.05 34.99 32.69
  A 1.18 1.17 59.0 0 0 35.25 31.63
  Q 34.73 29.54 32.96 29.56
  Q 31.19 29.57 30.70 31.66
  A 1.18 1.17 -59.8 0 0 30.97 32.72
  Q 32.20 34.06 31.97 36.04
  Q 31.92 36.52 32.21 36.84
  Q 32.45 37.10 33.01 37.10
  Z
  M 33.00 38.74
  Q 30.78 38.74 30.75 38.73
  A 0.81 0.80 87.7 0 1 30.04 38.07
  L 29.90 37.26
  A 1.22 1.21 40.0 0 0 27.49 37.47
  L 27.49 47.79
  A 0.68 0.67 -87.5 0 0 28.10 48.46
  Q 28.60 48.51 32.99 48.51
  Q 37.39 48.52 37.88 48.47
  A 0.68 0.67 87.6 0 0 38.49 47.80
  L 38.51 37.48
  A 1.22 1.21 -39.9 0 0 36.10 37.27
  L 35.96 38.07
  A 0.81 0.80 -87.6 0 1 35.25 38.74
  Q 35.21 38.74 33.00 38.74
  Z
  M 17.3998 36.9724
  A 0.40 0.40 0.0 0 0 17.0005 36.5717
  L 15.0805 36.5683
  A 0.40 0.40 0.0 0 0 14.6798 36.9676
  L 14.6602 48.1476
  A 0.40 0.40 0.0 0 0 15.0595 48.5483
  L 16.9795 48.5517
  A 0.40 0.40 0.0 0 0 17.3802 48.1524
  L 17.3998 36.9724
  Z
  M 24.8297 37.0241
  A 0.45 0.45 0.0 0 0 24.3805 36.5733
  L 20.5805 36.5667
  A 0.45 0.45 0.0 0 0 20.1297 37.0159
  L 20.1103 48.0959
  A 0.45 0.45 0.0 0 0 20.5595 48.5467
  L 24.3595 48.5533
  A 0.45 0.45 0.0 0 0 24.8103 48.1041
  L 24.8297 37.0241
  Z
  M 45.85 36.97
  A 0.39 0.39 0.0 0 0 45.46 36.58
  L 41.58 36.58
  A 0.39 0.39 0.0 0 0 41.19 36.97
  L 41.19 48.19
  A 0.39 0.39 0.0 0 0 41.58 48.58
  L 45.46 48.58
  A 0.39 0.39 0.0 0 0 45.85 48.19
  L 45.85 36.97
  Z
  M 51.3398 36.9524
  A 0.37 0.37 0.0 0 0 50.9705 36.5817
  L 48.9905 36.5783
  A 0.37 0.37 0.0 0 0 48.6198 36.9476
  L 48.6002 48.1876
  A 0.37 0.37 0.0 0 0 48.9695 48.5583
  L 50.9495 48.5617
  A 0.37 0.37 0.0 0 0 51.3202 48.1924
  L 51.3398 36.9524
  Z"
/>
<path fill="#ffffff" d="
  M 14.76 32.04
  L 14.76 21.58
  A 2.32 2.31 -90.0 0 1 17.07 19.26
  L 19.90 19.26
  A 1.12 1.12 0.0 0 1 21.02 20.38
  L 21.02 32.01
  A 0.49 0.49 0.0 0 1 20.53 32.50
  L 15.21 32.50
  A 0.46 0.45 -90.0 0 1 14.76 32.04
  Z"
/>
<path fill="#ffffff" d="
  M 33.00 19.26
  Q 40.85 19.27 41.56 19.27
  A 0.69 0.69 0.0 0 1 42.25 19.96
  L 42.25 31.89
  A 0.63 0.63 0.0 0 1 41.62 32.52
  L 37.75 32.52
  A 0.62 0.62 0.0 0 1 37.14 32.01
  Q 36.39 27.70 33.00 27.70
  Q 29.61 27.69 28.85 32.01
  A 0.62 0.62 0.0 0 1 28.24 32.51
  L 24.37 32.51
  A 0.63 0.63 0.0 0 1 23.74 31.88
  L 23.75 19.95
  A 0.69 0.69 0.0 0 1 24.44 19.26
  Q 25.16 19.26 33.00 19.26
  Z"
/>
<path fill="#ffffff" d="
  M 45.47 32.50
  A 0.49 0.49 0.0 0 1 44.98 32.01
  L 44.99 20.38
  A 1.12 1.12 0.0 0 1 46.11 19.26
  L 48.94 19.26
  A 2.32 2.31 -90.0 0 1 51.25 21.59
  L 51.24 32.05
  A 0.46 0.45 -90.0 0 1 50.79 32.51
  L 45.47 32.50
  Z"
/>
<path fill="#ffffff" d="
  M 32.96 29.56
  Q 34.73 29.54 35.25 31.63
  A 1.18 1.17 59.0 0 1 34.99 32.69
  Q 33.78 34.05 34.03 36.03
  Q 34.09 36.51 33.80 36.83
  Q 33.56 37.09 33.01 37.10
  Q 32.45 37.10 32.21 36.84
  Q 31.92 36.52 31.97 36.04
  Q 32.20 34.06 30.97 32.72
  A 1.18 1.17 -59.8 0 1 30.70 31.66
  Q 31.19 29.57 32.96 29.56
  Z"
/>
<path fill="#ffffff" d="
  M 32.99 48.51
  Q 28.60 48.51 28.10 48.46
  A 0.68 0.67 -87.5 0 1 27.49 47.79
  L 27.49 37.47
  A 1.22 1.21 40.0 0 1 29.90 37.26
  L 30.04 38.07
  A 0.81 0.80 87.7 0 0 30.75 38.73
  Q 30.78 38.74 33.00 38.74
  Q 35.21 38.74 35.25 38.74
  A 0.81 0.80 -87.6 0 0 35.96 38.07
  L 36.10 37.27
  A 1.22 1.21 -39.9 0 1 38.51 37.48
  L 38.49 47.80
  A 0.68 0.67 87.6 0 1 37.88 48.47
  Q 37.39 48.52 32.99 48.51
  Z"
/>
<rect fill="#ffffff" x="-1.36" y="-5.99" transform="translate(16.03,42.56) rotate(0.1)" width="2.72" height="11.98" rx="0.40"/>
<rect fill="#ffffff" x="-2.35" y="-5.99" transform="translate(22.47,42.56) rotate(0.1)" width="4.70" height="11.98" rx="0.45"/>
<rect fill="#ffffff" x="41.19" y="36.58" width="4.66" height="12.00" rx="0.39"/>
<rect fill="#ffffff" x="-1.36" y="-5.99" transform="translate(49.97,42.57) rotate(0.1)" width="2.72" height="11.98" rx="0.37"/>
</svg>
