<?xml version="1.0" encoding="UTF-8" standalone="no"?>
<!DOCTYPE svg PUBLIC "-//W3C//DTD SVG 1.1//EN" "http://www.w3.org/Graphics/SVG/1.1/DTD/svg11.dtd">
<svg xmlns="http://www.w3.org/2000/svg" version="1.1" viewBox="0.00 0.00 66.00 88.00">
<g stroke-width="2.00" fill="none" stroke-linecap="butt">
<path stroke="#7f5666" vector-effect="non-scaling-stroke" d="
  M 33.41 86.69
  Q 33.54 86.69 33.68 86.66
  A 0.22 0.11 -51.7 0 0 33.74 86.63
  C 45.47 75.33 56.28 62.15 61.58 47.55
  C 67.08 32.41 64.31 17.41 51.36 8.19
  Q 43.32 2.47 33.53 2.46
  Q 23.74 2.44 15.68 8.14
  C 2.70 17.32 -0.11 32.31 5.35 47.47
  C 10.60 62.08 21.37 75.29 33.07 86.63
  A 0.22 0.11 51.8 0 0 33.13 86.66
  Q 33.27 86.69 33.41 86.69"
/>
<path stroke="#d3b9c3" vector-effect="non-scaling-stroke" d="
  M 29.23 31.36
  C 27.14 36.00 26.25 41.66 31.45 44.56
  A 0.81 0.80 23.2 0 1 31.83 45.50
  Q 31.35 47.06 31.72 49.73
  C 31.80 50.30 31.55 51.04 31.12 51.56
  A 0.39 0.39 0.0 0 0 31.38 52.20
  Q 39.31 53.03 39.47 45.88
  A 1.07 1.06 77.9 0 1 40.06 44.96
  C 48.50 40.71 44.20 30.76 38.95 25.88
  A 0.64 0.64 0.0 0 1 38.93 24.96
  C 44.98 18.80 34.42 11.26 30.69 19.14
  A 0.55 0.55 0.0 0 1 30.00 19.42
  Q 29.22 19.13 28.50 18.99
  Q 27.26 18.76 27.28 19.99
  Q 27.30 20.82 26.60 20.89
  C 17.68 21.79 20.57 34.07 28.79 30.90
  A 0.35 0.34 -88.8 0 1 29.23 31.36"
/>
</g>
<path fill="#563944" d="
  M 33.80 88.00
  L 33.03 88.00
  C 16.74 73.25 -5.88 44.73 3.83 20.99
  C 12.01 0.99 37.27 -4.72 53.83 8.52
  Q 62.21 15.22 64.89 26.47
  Q 65.56 29.30 65.35 35.50
  C 65.04 44.93 60.13 55.61 55.04 63.28
  Q 46.01 76.90 33.80 88.00
  Z
  M 33.41 86.69
  Q 33.54 86.69 33.68 86.66
  A 0.22 0.11 -51.7 0 0 33.74 86.63
  C 45.47 75.33 56.28 62.15 61.58 47.55
  C 67.08 32.41 64.31 17.41 51.36 8.19
  Q 43.32 2.47 33.53 2.46
  Q 23.74 2.44 15.68 8.14
  C 2.70 17.32 -0.11 32.31 5.35 47.47
  C 10.60 62.08 21.37 75.29 33.07 86.63
  A 0.22 0.11 51.8 0 0 33.13 86.66
  Q 33.27 86.69 33.41 86.69
  Z"
/>
<path fill="#a77387" d="
  M 33.53 2.46
  Q 43.32 2.47 51.36 8.19
  C 64.31 17.41 67.08 32.41 61.58 47.55
  C 56.28 62.15 45.47 75.33 33.74 86.63
  A 0.22 0.11 -51.7 0 1 33.68 86.66
  Q 33.54 86.69 33.41 86.69
  Q 33.27 86.69 33.13 86.66
  A 0.22 0.11 51.8 0 1 33.07 86.63
  C 21.37 75.29 10.60 62.08 5.35 47.47
  C -0.11 32.31 2.70 17.32 15.68 8.14
  Q 23.74 2.44 33.53 2.46
  Z
  M 29.23 31.36
  C 27.14 36.00 26.25 41.66 31.45 44.56
  A 0.81 0.80 23.2 0 1 31.83 45.50
  Q 31.35 47.06 31.72 49.73
  C 31.80 50.30 31.55 51.04 31.12 51.56
  A 0.39 0.39 0.0 0 0 31.38 52.20
  Q 39.31 53.03 39.47 45.88
  A 1.07 1.06 77.9 0 1 40.06 44.96
  C 48.50 40.71 44.20 30.76 38.95 25.88
  A 0.64 0.64 0.0 0 1 38.93 24.96
  C 44.98 18.80 34.42 11.26 30.69 19.14
  A 0.55 0.55 0.0 0 1 30.00 19.42
  Q 29.22 19.13 28.50 18.99
  Q 27.26 18.76 27.28 19.99
  Q 27.30 20.82 26.60 20.89
  C 17.68 21.79 20.57 34.07 28.79 30.90
  A 0.35 0.34 -88.8 0 1 29.23 31.36
  Z"
/>
<path fill="#ffffff" d="
  M 28.79 30.90
  C 20.57 34.07 17.68 21.79 26.60 20.89
  Q 27.30 20.82 27.28 19.99
  Q 27.26 18.76 28.50 18.99
  Q 29.22 19.13 30.00 19.42
  A 0.55 0.55 0.0 0 0 30.69 19.14
  C 34.42 11.26 44.98 18.80 38.93 24.96
  A 0.64 0.64 0.0 0 0 38.95 25.88
  C 44.20 30.76 48.50 40.71 40.06 44.96
  A 1.07 1.06 77.9 0 0 39.47 45.88
  Q 39.31 53.03 31.38 52.20
  A 0.39 0.39 0.0 0 1 31.12 51.56
  C 31.55 51.04 31.80 50.30 31.72 49.73
  Q 31.35 47.06 31.83 45.50
  A 0.81 0.80 23.2 0 0 31.45 44.56
  C 26.25 41.66 27.14 36.00 29.23 31.36
  A 0.35 0.34 -88.8 0 0 28.79 30.90
  Z"
/>
</svg>
