<?xml version="1.0" encoding="UTF-8" standalone="no"?>
<!DOCTYPE svg PUBLIC "-//W3C//DTD SVG 1.1//EN" "http://www.w3.org/Graphics/SVG/1.1/DTD/svg11.dtd">
<svg xmlns="http://www.w3.org/2000/svg" version="1.1" viewBox="0.00 0.00 66.00 88.00">
<g stroke-width="2.00" fill="none" stroke-linecap="butt">
<path stroke="#425a74" vector-effect="non-scaling-stroke" d="
  M 33.40 86.69
  Q 33.51 86.69 33.61 86.67
  Q 33.70 86.66 33.78 86.58
  Q 48.56 72.84 57.71 56.24
  C 64.59 43.75 67.57 28.00 59.04 15.94
  Q 50.15 3.38 34.50 2.53
  Q 33.56 2.48 33.53 2.48
  Q 33.51 2.48 32.56 2.53
  Q 16.92 3.33 7.99 15.86
  C -0.58 27.89 2.35 43.65 9.19 56.16
  Q 18.29 72.79 33.02 86.58
  Q 33.10 86.66 33.19 86.67
  Q 33.29 86.69 33.40 86.69"
/>
<path stroke="#acbbcc" vector-effect="non-scaling-stroke" d="
  M 49.44 34.00
  A 16.47 16.47 0.0 0 0 32.97 17.53
  A 16.47 16.47 0.0 0 0 16.50 34.00
  A 16.47 16.47 0.0 0 0 32.97 50.47
  A 16.47 16.47 0.0 0 0 49.44 34.00"
/>
<path stroke="#acbbcc" vector-effect="non-scaling-stroke" d="
  M 21.4190 36.8645
  A 5.37 4.04 -132.4 0 0 22.0566 43.5542
  A 5.37 4.04 -132.4 0 0 28.6610 44.7955
  A 5.37 4.04 -132.4 0 0 28.0234 38.1058
  A 5.37 4.04 -132.4 0 0 21.4190 36.8645"
/>
<path stroke="#acbbcc" vector-effect="non-scaling-stroke" d="
  M 44.6341 36.8582
  A 5.37 4.03 -47.7 0 0 38.0393 38.1178
  A 5.37 4.03 -47.7 0 0 37.4059 44.8018
  A 5.37 4.03 -47.7 0 0 44.0007 43.5422
  A 5.37 4.03 -47.7 0 0 44.6341 36.8582"
/>
</g>
<path fill="#2a3d50" d="
  M 33.78 88.00
  L 33.04 88.00
  C 21.94 77.92 11.92 65.50 5.64 51.57
  Q 2.22 43.99 1.60 34.89
  C 0.50 18.90 11.35 5.53 26.73 2.05
  Q 36.84 -0.23 46.98 4.28
  Q 57.21 8.83 62.55 19.62
  C 66.99 28.61 65.91 39.84 62.30 49.12
  C 56.58 63.85 45.43 77.45 33.78 88.00
  Z
  M 33.40 86.69
  Q 33.51 86.69 33.61 86.67
  Q 33.70 86.66 33.78 86.58
  Q 48.56 72.84 57.71 56.24
  C 64.59 43.75 67.57 28.00 59.04 15.94
  Q 50.15 3.38 34.50 2.53
  Q 33.56 2.48 33.53 2.48
  Q 33.51 2.48 32.56 2.53
  Q 16.92 3.33 7.99 15.86
  C -0.58 27.89 2.35 43.65 9.19 56.16
  Q 18.29 72.79 33.02 86.58
  Q 33.10 86.66 33.19 86.67
  Q 33.29 86.69 33.40 86.69
  Z"
/>
<path fill="#597698" d="
  M 33.53 2.48
  Q 33.56 2.48 34.50 2.53
  Q 50.15 3.38 59.04 15.94
  C 67.57 28.00 64.59 43.75 57.71 56.24
  Q 48.56 72.84 33.78 86.58
  Q 33.70 86.66 33.61 86.67
  Q 33.51 86.69 33.40 86.69
  Q 33.29 86.69 33.19 86.67
  Q 33.10 86.66 33.02 86.58
  Q 18.29 72.79 9.19 56.16
  C 2.35 43.65 -0.58 27.89 7.99 15.86
  Q 16.92 3.33 32.56 2.53
  Q 33.51 2.48 33.53 2.48
  Z
  M 49.44 34.00
  A 16.47 16.47 0.0 0 0 32.97 17.53
  A 16.47 16.47 0.0 0 0 16.50 34.00
  A 16.47 16.47 0.0 0 0 32.97 50.47
  A 16.47 16.47 0.0 0 0 49.44 34.00
  Z"
/>
<path fill="#ffffff" d="
  M 49.44 34.00
  A 16.47 16.47 0.0 0 1 32.97 50.47
  A 16.47 16.47 0.0 0 1 16.50 34.00
  A 16.47 16.47 0.0 0 1 32.97 17.53
  A 16.47 16.47 0.0 0 1 49.44 34.00
  Z
  M 21.4190 36.8645
  A 5.37 4.04 -132.4 0 0 22.0566 43.5542
  A 5.37 4.04 -132.4 0 0 28.6610 44.7955
  A 5.37 4.04 -132.4 0 0 28.0234 38.1058
  A 5.37 4.04 -132.4 0 0 21.4190 36.8645
  Z
  M 44.6341 36.8582
  A 5.37 4.03 -47.7 0 0 38.0393 38.1178
  A 5.37 4.03 -47.7 0 0 37.4059 44.8018
  A 5.37 4.03 -47.7 0 0 44.0007 43.5422
  A 5.37 4.03 -47.7 0 0 44.6341 36.8582
  Z"
/>
<ellipse fill="#597698" cx="0.00" cy="0.00" transform="translate(25.04,40.83) rotate(-132.4)" rx="5.37" ry="4.04"/>
<ellipse fill="#597698" cx="0.00" cy="0.00" transform="translate(41.02,40.83) rotate(-47.7)" rx="5.37" ry="4.03"/>
</svg>
