<?xml version="1.0" encoding="UTF-8" standalone="no"?>
<!DOCTYPE svg PUBLIC "-//W3C//DTD SVG 1.1//EN" "http://www.w3.org/Graphics/SVG/1.1/DTD/svg11.dtd">
<svg xmlns="http://www.w3.org/2000/svg" version="1.1" viewBox="0.00 0.00 66.00 88.00">
<g stroke-width="2.00" fill="none" stroke-linecap="butt">
<path stroke="#7f5666" vector-effect="non-scaling-stroke" d="
  M 33.40 86.69
  Q 33.54 86.69 33.68 86.66
  A 0.12 0.10 9.7 0 0 33.73 86.63
  C 47.59 73.40 64.08 53.49 64.28 33.31
  C 64.45 15.85 50.84 3.12 33.75 2.46
  Q 33.64 2.46 33.53 2.46
  Q 33.42 2.46 33.30 2.46
  C 16.21 3.07 2.56 15.76 2.68 33.22
  C 2.82 53.40 19.26 73.36 33.08 86.63
  A 0.12 0.10 -9.5 0 0 33.13 86.66
  Q 33.26 86.69 33.40 86.69"
/>
<path stroke="#d3b9c3" vector-effect="non-scaling-stroke" d="
  M 47.23 36.02
  L 41.89 40.28
  A 2.60 2.45 86.2 0 0 41.27 41.03
  L 38.43 46.33
  A 0.28 0.28 0.0 0 0 38.67 46.74
  L 41.80 46.74
  A 1.45 1.44 22.7 0 0 42.81 46.33
  Q 46.92 42.32 48.52 40.57
  Q 49.53 39.46 51.01 35.10
  A 0.74 0.74 0.0 0 0 50.79 34.29
  L 43.99 28.41
  A 1.68 1.65 64.8 0 0 42.91 28.01
  L 38.21 28.01
  A 1.17 1.13 65.0 0 1 37.45 27.72
  L 31.21 22.33
  A 0.85 0.85 0.0 0 0 30.29 22.21
  Q 25.18 24.73 20.32 24.63
  A 1.22 1.22 0.0 0 0 19.30 25.15
  L 14.96 31.31
  A 1.30 1.26 59.0 0 0 14.74 32.25
  L 16.34 43.22
  A 1.00 0.99 7.6 0 0 16.94 43.99
  L 23.18 46.62
  A 1.89 1.69 -31.0 0 0 23.86 46.75
  L 33.39 46.75
  A 0.52 0.52 0.0 0 0 33.84 46.49
  L 38.08 39.14
  A 0.84 0.81 5.0 0 1 38.51 38.79
  L 47.09 35.76
  A 0.15 0.15 0.0 0 1 47.23 36.02"
/>
<path stroke="#d3b9c3" vector-effect="non-scaling-stroke" d="
  M 29.23 42.45
  L 31.11 36.42
  A 1.92 1.86 -6.8 0 1 31.97 35.36
  L 40.59 30.38
  A 0.41 0.41 0.0 0 0 40.32 29.62
  L 36.59 30.16
  A 1.32 1.31 61.1 0 1 35.53 29.85
  L 31.49 26.36
  A 0.33 0.32 10.8 0 0 30.97 26.71
  L 32.55 31.21
  A 0.59 0.58 65.6 0 1 32.29 31.91
  L 28.40 34.16
  A 0.90 0.89 71.2 0 0 27.96 35.07
  L 29.03 42.44
  A 0.10 0.10 0.0 0 0 29.23 42.45"
/>
<path stroke="#d3b9c3" vector-effect="non-scaling-stroke" d="
  M 22.59 43.97
  L 20.67 36.20
  A 4.96 4.92 -43.9 0 1 20.73 33.69
  Q 22.07 29.10 22.18 28.32
  A 0.10 0.10 0.0 0 0 22.00 28.24
  L 17.34 33.63
  A 1.11 1.10 -39.8 0 0 17.22 34.91
  L 22.47 44.02
  A 0.07 0.07 0.0 0 0 22.59 43.97"
/>
</g>
<path fill="#563944" d="
  M 33.78 88.00
  L 33.03 88.00
  C 16.61 73.13 -6.54 43.91 4.23 20.06
  C 15.41 -4.71 50.63 -4.86 62.54 19.61
  C 66.95 28.66 65.95 39.84 62.33 49.06
  C 56.50 63.87 45.52 77.37 33.78 88.00
  Z
  M 33.40 86.69
  Q 33.54 86.69 33.68 86.66
  A 0.12 0.10 9.7 0 0 33.73 86.63
  C 47.59 73.40 64.08 53.49 64.28 33.31
  C 64.45 15.85 50.84 3.12 33.75 2.46
  Q 33.64 2.46 33.53 2.46
  Q 33.42 2.46 33.30 2.46
  C 16.21 3.07 2.56 15.76 2.68 33.22
  C 2.82 53.40 19.26 73.36 33.08 86.63
  A 0.12 0.10 -9.5 0 0 33.13 86.66
  Q 33.26 86.69 33.40 86.69
  Z"
/>
<path fill="#a77387" d="
  M 33.53 2.46
  Q 33.64 2.46 33.75 2.46
  C 50.84 3.12 64.45 15.85 64.28 33.31
  C 64.08 53.49 47.59 73.40 33.73 86.63
  A 0.12 0.10 9.7 0 1 33.68 86.66
  Q 33.54 86.69 33.40 86.69
  Q 33.26 86.69 33.13 86.66
  A 0.12 0.10 -9.5 0 1 33.08 86.63
  C 19.26 73.36 2.82 53.40 2.68 33.22
  C 2.56 15.76 16.21 3.07 33.30 2.46
  Q 33.42 2.46 33.53 2.46
  Z
  M 47.23 36.02
  L 41.89 40.28
  A 2.60 2.45 86.2 0 0 41.27 41.03
  L 38.43 46.33
  A 0.28 0.28 0.0 0 0 38.67 46.74
  L 41.80 46.74
  A 1.45 1.44 22.7 0 0 42.81 46.33
  Q 46.92 42.32 48.52 40.57
  Q 49.53 39.46 51.01 35.10
  A 0.74 0.74 0.0 0 0 50.79 34.29
  L 43.99 28.41
  A 1.68 1.65 64.8 0 0 42.91 28.01
  L 38.21 28.01
  A 1.17 1.13 65.0 0 1 37.45 27.72
  L 31.21 22.33
  A 0.85 0.85 0.0 0 0 30.29 22.21
  Q 25.18 24.73 20.32 24.63
  A 1.22 1.22 0.0 0 0 19.30 25.15
  L 14.96 31.31
  A 1.30 1.26 59.0 0 0 14.74 32.25
  L 16.34 43.22
  A 1.00 0.99 7.6 0 0 16.94 43.99
  L 23.18 46.62
  A 1.89 1.69 -31.0 0 0 23.86 46.75
  L 33.39 46.75
  A 0.52 0.52 0.0 0 0 33.84 46.49
  L 38.08 39.14
  A 0.84 0.81 5.0 0 1 38.51 38.79
  L 47.09 35.76
  A 0.15 0.15 0.0 0 1 47.23 36.02
  Z"
/>
<path fill="#ffffff" d="
  M 47.09 35.76
  L 38.51 38.79
  A 0.84 0.81 5.0 0 0 38.08 39.14
  L 33.84 46.49
  A 0.52 0.52 0.0 0 1 33.39 46.75
  L 23.86 46.75
  A 1.89 1.69 -31.0 0 1 23.18 46.62
  L 16.94 43.99
  A 1.00 0.99 7.6 0 1 16.34 43.22
  L 14.74 32.25
  A 1.30 1.26 59.0 0 1 14.96 31.31
  L 19.30 25.15
  A 1.22 1.22 0.0 0 1 20.32 24.63
  Q 25.18 24.73 30.29 22.21
  A 0.85 0.85 0.0 0 1 31.21 22.33
  L 37.45 27.72
  A 1.17 1.13 65.0 0 0 38.21 28.01
  L 42.91 28.01
  A 1.68 1.65 64.8 0 1 43.99 28.41
  L 50.79 34.29
  A 0.74 0.74 0.0 0 1 51.01 35.10
  Q 49.53 39.46 48.52 40.57
  Q 46.92 42.32 42.81 46.33
  A 1.45 1.44 22.7 0 1 41.80 46.74
  L 38.67 46.74
  A 0.28 0.28 0.0 0 1 38.43 46.33
  L 41.27 41.03
  A 2.60 2.45 86.2 0 1 41.89 40.28
  L 47.23 36.02
  A 0.15 0.15 0.0 0 0 47.09 35.76
  Z
  M 29.23 42.45
  L 31.11 36.42
  A 1.92 1.86 -6.8 0 1 31.97 35.36
  L 40.59 30.38
  A 0.41 0.41 0.0 0 0 40.32 29.62
  L 36.59 30.16
  A 1.32 1.31 61.1 0 1 35.53 29.85
  L 31.49 26.36
  A 0.33 0.32 10.8 0 0 30.97 26.71
  L 32.55 31.21
  A 0.59 0.58 65.6 0 1 32.29 31.91
  L 28.40 34.16
  A 0.90 0.89 71.2 0 0 27.96 35.07
  L 29.03 42.44
  A 0.10 0.10 0.0 0 0 29.23 42.45
  Z
  M 22.59 43.97
  L 20.67 36.20
  A 4.96 4.92 -43.9 0 1 20.73 33.69
  Q 22.07 29.10 22.18 28.32
  A 0.10 0.10 0.0 0 0 22.00 28.24
  L 17.34 33.63
  A 1.11 1.10 -39.8 0 0 17.22 34.91
  L 22.47 44.02
  A 0.07 0.07 0.0 0 0 22.59 43.97
  Z"
/>
<path fill="#a77387" d="
  M 29.03 42.44
  L 27.96 35.07
  A 0.90 0.89 71.2 0 1 28.40 34.16
  L 32.29 31.91
  A 0.59 0.58 65.6 0 0 32.55 31.21
  L 30.97 26.71
  A 0.33 0.32 10.8 0 1 31.49 26.36
  L 35.53 29.85
  A 1.32 1.31 61.1 0 0 36.59 30.16
  L 40.32 29.62
  A 0.41 0.41 0.0 0 1 40.59 30.38
  L 31.97 35.36
  A 1.92 1.86 -6.8 0 0 31.11 36.42
  L 29.23 42.45
  A 0.10 0.10 0.0 0 1 29.03 42.44
  Z"
/>
<path fill="#a77387" d="
  M 22.47 44.02
  L 17.22 34.91
  A 1.11 1.10 -39.8 0 1 17.34 33.63
  L 22.00 28.24
  A 0.10 0.10 0.0 0 1 22.18 28.32
  Q 22.07 29.10 20.73 33.69
  A 4.96 4.92 -43.9 0 0 20.67 36.20
  L 22.59 43.97
  A 0.07 0.07 0.0 0 1 22.47 44.02
  Z"
/>
</svg>
