<?xml version="1.0" encoding="UTF-8" standalone="no"?>
<!DOCTYPE svg PUBLIC "-//W3C//DTD SVG 1.1//EN" "http://www.w3.org/Graphics/SVG/1.1/DTD/svg11.dtd">
<svg xmlns="http://www.w3.org/2000/svg" version="1.1" viewBox="0.00 0.00 66.00 88.00">
<g stroke-width="2.00" fill="none" stroke-linecap="butt">
<path stroke="#395b67" vector-effect="non-scaling-stroke" d="
  M 33.41 86.69
  Q 33.53 86.69 33.61 86.67
  Q 33.70 86.65 33.78 86.58
  C 46.82 74.42 61.37 56.28 63.82 38.57
  Q 66.74 17.52 48.77 6.52
  Q 42.19 2.50 33.53 2.49
  Q 24.88 2.47 18.29 6.48
  Q 0.28 17.42 3.14 38.48
  C 5.54 56.20 20.04 74.38 33.04 86.58
  Q 33.12 86.65 33.21 86.67
  Q 33.29 86.69 33.41 86.69"
/>
<path stroke="#a6bbc3" vector-effect="non-scaling-stroke" d="
  M 33.29 52.14
  Q 33.36 52.14 33.46 52.09
  C 42.54 46.97 49.84 37.21 46.47 26.28
  C 44.65 20.35 39.67 15.80 33.29 15.80
  C 26.91 15.80 21.93 20.35 20.10 26.28
  C 16.73 37.21 24.03 46.97 33.11 52.09
  Q 33.21 52.14 33.29 52.14"
/>
<path stroke="#a6bbc3" vector-effect="non-scaling-stroke" d="
  M 24.2720 24.8197
  A 4.68 1.90 -135.5 0 0 26.2783 29.4552
  A 4.68 1.90 -135.5 0 0 30.9480 31.3803
  A 4.68 1.90 -135.5 0 0 28.9417 26.7448
  A 4.68 1.90 -135.5 0 0 24.2720 24.8197"
/>
<path stroke="#a6bbc3" vector-effect="non-scaling-stroke" d="
  M 42.3909 24.8005
  A 4.71 1.90 -44.3 0 0 37.6930 26.7302
  A 4.71 1.90 -44.3 0 0 35.6491 31.3795
  A 4.71 1.90 -44.3 0 0 40.3470 29.4498
  A 4.71 1.90 -44.3 0 0 42.3909 24.8005"
/>
<path stroke="#a6bbc3" vector-effect="non-scaling-stroke" d="
  M 22.5376 31.4872
  A 4.76 1.96 -139.0 0 0 24.8441 36.0892
  A 4.76 1.96 -139.0 0 0 29.7224 37.7328
  A 4.76 1.96 -139.0 0 0 27.4159 33.1308
  A 4.76 1.96 -139.0 0 0 22.5376 31.4872"
/>
<path stroke="#a6bbc3" vector-effect="non-scaling-stroke" d="
  M 44.1084 31.4866
  A 4.78 1.95 -40.8 0 0 39.2158 33.1339
  A 4.78 1.95 -40.8 0 0 36.8716 37.7334
  A 4.78 1.95 -40.8 0 0 41.7642 36.0861
  A 4.78 1.95 -40.8 0 0 44.1084 31.4866"
/>
<path stroke="#a6bbc3" vector-effect="non-scaling-stroke" d="
  M 24.2596 39.7735
  A 4.40 1.80 -140.2 0 0 26.4878 43.9729
  A 4.40 1.80 -140.2 0 0 31.0204 45.4065
  A 4.40 1.80 -140.2 0 0 28.7922 41.2071
  A 4.40 1.80 -140.2 0 0 24.2596 39.7735"
/>
<path stroke="#a6bbc3" vector-effect="non-scaling-stroke" d="
  M 42.4051 39.7513
  A 4.40 1.81 -39.5 0 0 37.8587 41.1534
  A 4.40 1.81 -39.5 0 0 35.6149 45.3487
  A 4.40 1.81 -39.5 0 0 40.1613 43.9466
  A 4.40 1.81 -39.5 0 0 42.4051 39.7513"
/>
</g>
<path fill="#243e46" d="
  M 33.80 88.00
  L 33.04 88.00
  C 22.21 78.22 11.92 65.54 5.75 51.76
  Q 2.15 43.71 1.56 34.96
  Q 0.96 26.13 5.13 18.25
  Q 11.78 5.67 26.70 2.03
  C 36.97 -0.47 49.13 3.20 56.59 11.06
  Q 67.91 22.98 64.84 39.75
  Q 62.55 52.30 54.57 64.07
  Q 45.67 77.20 33.80 88.00
  Z
  M 33.41 86.69
  Q 33.53 86.69 33.61 86.67
  Q 33.70 86.65 33.78 86.58
  C 46.82 74.42 61.37 56.28 63.82 38.57
  Q 66.74 17.52 48.77 6.52
  Q 42.19 2.50 33.53 2.49
  Q 24.88 2.47 18.29 6.48
  Q 0.28 17.42 3.14 38.48
  C 5.54 56.20 20.04 74.38 33.04 86.58
  Q 33.12 86.65 33.21 86.67
  Q 33.29 86.69 33.41 86.69
  Z"
/>
<path fill="#4d7787" d="
  M 33.53 2.49
  Q 42.19 2.50 48.77 6.52
  Q 66.74 17.52 63.82 38.57
  C 61.37 56.28 46.82 74.42 33.78 86.58
  Q 33.70 86.65 33.61 86.67
  Q 33.53 86.69 33.41 86.69
  Q 33.29 86.69 33.21 86.67
  Q 33.12 86.65 33.04 86.58
  C 20.04 74.38 5.54 56.20 3.14 38.48
  Q 0.28 17.42 18.29 6.48
  Q 24.88 2.47 33.53 2.49
  Z
  M 33.29 52.14
  Q 33.36 52.14 33.46 52.09
  C 42.54 46.97 49.84 37.21 46.47 26.28
  C 44.65 20.35 39.67 15.80 33.29 15.80
  C 26.91 15.80 21.93 20.35 20.10 26.28
  C 16.73 37.21 24.03 46.97 33.11 52.09
  Q 33.21 52.14 33.29 52.14
  Z"
/>
<path fill="#ffffff" d="
  M 33.29 15.80
  C 39.67 15.80 44.65 20.35 46.47 26.28
  C 49.84 37.21 42.54 46.97 33.46 52.09
  Q 33.36 52.14 33.29 52.14
  Q 33.21 52.14 33.11 52.09
  C 24.03 46.97 16.73 37.21 20.10 26.28
  C 21.93 20.35 26.91 15.80 33.29 15.80
  Z
  M 24.2720 24.8197
  A 4.68 1.90 -135.5 0 0 26.2783 29.4552
  A 4.68 1.90 -135.5 0 0 30.9480 31.3803
  A 4.68 1.90 -135.5 0 0 28.9417 26.7448
  A 4.68 1.90 -135.5 0 0 24.2720 24.8197
  Z
  M 42.3909 24.8005
  A 4.71 1.90 -44.3 0 0 37.6930 26.7302
  A 4.71 1.90 -44.3 0 0 35.6491 31.3795
  A 4.71 1.90 -44.3 0 0 40.3470 29.4498
  A 4.71 1.90 -44.3 0 0 42.3909 24.8005
  Z
  M 22.5376 31.4872
  A 4.76 1.96 -139.0 0 0 24.8441 36.0892
  A 4.76 1.96 -139.0 0 0 29.7224 37.7328
  A 4.76 1.96 -139.0 0 0 27.4159 33.1308
  A 4.76 1.96 -139.0 0 0 22.5376 31.4872
  Z
  M 44.1084 31.4866
  A 4.78 1.95 -40.8 0 0 39.2158 33.1339
  A 4.78 1.95 -40.8 0 0 36.8716 37.7334
  A 4.78 1.95 -40.8 0 0 41.7642 36.0861
  A 4.78 1.95 -40.8 0 0 44.1084 31.4866
  Z
  M 24.2596 39.7735
  A 4.40 1.80 -140.2 0 0 26.4878 43.9729
  A 4.40 1.80 -140.2 0 0 31.0204 45.4065
  A 4.40 1.80 -140.2 0 0 28.7922 41.2071
  A 4.40 1.80 -140.2 0 0 24.2596 39.7735
  Z
  M 42.4051 39.7513
  A 4.40 1.81 -39.5 0 0 37.8587 41.1534
  A 4.40 1.81 -39.5 0 0 35.6149 45.3487
  A 4.40 1.81 -39.5 0 0 40.1613 43.9466
  A 4.40 1.81 -39.5 0 0 42.4051 39.7513
  Z"
/>
<ellipse fill="#4d7787" cx="0.00" cy="0.00" transform="translate(27.61,28.10) rotate(-135.5)" rx="4.68" ry="1.90"/>
<ellipse fill="#4d7787" cx="0.00" cy="0.00" transform="translate(39.02,28.09) rotate(-44.3)" rx="4.71" ry="1.90"/>
<ellipse fill="#4d7787" cx="0.00" cy="0.00" transform="translate(26.13,34.61) rotate(-139.0)" rx="4.76" ry="1.96"/>
<ellipse fill="#4d7787" cx="0.00" cy="0.00" transform="translate(40.49,34.61) rotate(-40.8)" rx="4.78" ry="1.95"/>
<ellipse fill="#4d7787" cx="0.00" cy="0.00" transform="translate(27.64,42.59) rotate(-140.2)" rx="4.40" ry="1.80"/>
<ellipse fill="#4d7787" cx="0.00" cy="0.00" transform="translate(39.01,42.55) rotate(-39.5)" rx="4.40" ry="1.81"/>
</svg>
