<?xml version="1.0" encoding="UTF-8" standalone="no"?>
<!DOCTYPE svg PUBLIC "-//W3C//DTD SVG 1.1//EN" "http://www.w3.org/Graphics/SVG/1.1/DTD/svg11.dtd">
<svg xmlns="http://www.w3.org/2000/svg" version="1.1" viewBox="0.00 0.00 66.00 88.00">
<g stroke-width="2.00" fill="none" stroke-linecap="butt">
<path stroke="#6c427b" vector-effect="non-scaling-stroke" d="
  M 33.41 86.70
  Q 33.53 86.70 33.63 86.68
  Q 33.72 86.66 33.80 86.58
  C 50.50 71.09 75.73 38.79 58.61 15.38
  Q 49.89 3.44 34.75 2.52
  Q 34.06 2.48 33.53 2.48
  Q 32.99 2.48 32.30 2.52
  Q 17.16 3.40 8.41 15.31
  C -8.77 38.68 16.37 71.04 33.03 86.58
  Q 33.11 86.66 33.20 86.67
  Q 33.30 86.70 33.41 86.70"
/>
<path stroke="#c7acd0" vector-effect="non-scaling-stroke" d="
  M 32.97 51.70
  Q 33.05 51.70 33.07 51.69
  A 0.28 0.14 -87.0 0 0 33.18 51.51
  L 35.64 42.75
  A 0.64 0.63 -67.9 0 0 35.34 42.03
  Q 35.15 41.92 35.07 41.88
  A 1.12 1.12 0.0 0 1 34.97 40.04
  C 38.98 36.93 41.90 35.35 43.72 29.99
  A 1.34 1.31 -44.3 0 0 43.74 29.15
  Q 41.36 20.91 34.73 16.20
  A 0.28 0.28 0.0 0 0 34.30 16.49
  L 34.98 19.66
  A 1.62 1.60 12.1 0 0 35.60 20.61
  Q 40.67 24.28 36.13 29.22
  A 1.49 1.48 10.1 0 1 35.64 29.56
  L 34.04 30.25
  A 0.61 0.61 0.0 0 0 33.70 31.00
  Q 34.05 32.06 33.52 34.28
  C 33.17 35.76 33.65 36.83 33.81 38.12
  A 2.43 2.42 49.3 0 1 33.74 39.12
  Q 33.44 40.18 32.98 40.18
  Q 32.52 40.18 32.21 39.12
  A 2.43 2.42 -49.3 0 1 32.14 38.12
  C 32.30 36.83 32.78 35.76 32.43 34.28
  Q 31.91 32.06 32.26 31.00
  A 0.61 0.61 0.0 0 0 31.92 30.25
  L 30.32 29.56
  A 1.49 1.48 -10.1 0 1 29.83 29.22
  Q 25.29 24.28 30.36 20.61
  A 1.62 1.60 -12.1 0 0 30.98 19.66
  L 31.66 16.49
  A 0.28 0.28 0.0 0 0 31.23 16.20
  Q 24.60 20.91 22.22 29.15
  A 1.34 1.31 44.3 0 0 22.24 29.99
  C 24.05 35.35 26.97 36.93 30.98 40.04
  A 1.12 1.12 0.0 0 1 30.88 41.88
  Q 30.80 41.92 30.61 42.03
  A 0.64 0.63 67.9 0 0 30.31 42.75
  L 32.77 51.51
  A 0.28 0.14 87.0 0 0 32.87 51.69
  Q 32.90 51.70 32.97 51.70"
/>
<path stroke="#c7acd0" vector-effect="non-scaling-stroke" d="
  M 25.39 28.12
  Q 25.02 34.73 30.04 37.14
  A 0.65 0.65 0.0 0 0 30.97 36.52
  Q 30.71 31.30 25.93 27.86
  A 0.34 0.34 0.0 0 0 25.39 28.12"
/>
<path stroke="#c7acd0" vector-effect="non-scaling-stroke" d="
  M 40.58 28.14
  A 0.34 0.34 0.0 0 0 40.04 27.88
  Q 35.28 31.27 34.99 36.46
  A 0.65 0.64 -10.9 0 0 35.91 37.08
  Q 40.91 34.71 40.58 28.14"
/>
</g>
<path fill="#492b55" d="
  M 33.80 88.00
  L 33.15 88.00
  Q 15.61 72.48 6.00 52.51
  Q 2.24 44.69 1.63 35.22
  Q 1.01 25.71 5.26 17.97
  C 11.81 6.03 25.19 -0.50 38.97 1.80
  C 54.63 4.43 66.09 18.17 65.46 34.06
  C 64.64 54.60 48.38 74.72 33.80 88.00
  Z
  M 33.41 86.70
  Q 33.53 86.70 33.63 86.68
  Q 33.72 86.66 33.80 86.58
  C 50.50 71.09 75.73 38.79 58.61 15.38
  Q 49.89 3.44 34.75 2.52
  Q 34.06 2.48 33.53 2.48
  Q 32.99 2.48 32.30 2.52
  Q 17.16 3.40 8.41 15.31
  C -8.77 38.68 16.37 71.04 33.03 86.58
  Q 33.11 86.66 33.20 86.67
  Q 33.30 86.70 33.41 86.70
  Z"
/>
<path fill="#8e58a1" d="
  M 33.53 2.48
  Q 34.06 2.48 34.75 2.52
  Q 49.89 3.44 58.61 15.38
  C 75.73 38.79 50.50 71.09 33.80 86.58
  Q 33.72 86.66 33.63 86.68
  Q 33.53 86.70 33.41 86.70
  Q 33.30 86.70 33.20 86.67
  Q 33.11 86.66 33.03 86.58
  C 16.37 71.04 -8.77 38.68 8.41 15.31
  Q 17.16 3.40 32.30 2.52
  Q 32.99 2.48 33.53 2.48
  Z
  M 32.97 51.70
  Q 33.05 51.70 33.07 51.69
  A 0.28 0.14 -87.0 0 0 33.18 51.51
  L 35.64 42.75
  A 0.64 0.63 -67.9 0 0 35.34 42.03
  Q 35.15 41.92 35.07 41.88
  A 1.12 1.12 0.0 0 1 34.97 40.04
  C 38.98 36.93 41.90 35.35 43.72 29.99
  A 1.34 1.31 -44.3 0 0 43.74 29.15
  Q 41.36 20.91 34.73 16.20
  A 0.28 0.28 0.0 0 0 34.30 16.49
  L 34.98 19.66
  A 1.62 1.60 12.1 0 0 35.60 20.61
  Q 40.67 24.28 36.13 29.22
  A 1.49 1.48 10.1 0 1 35.64 29.56
  L 34.04 30.25
  A 0.61 0.61 0.0 0 0 33.70 31.00
  Q 34.05 32.06 33.52 34.28
  C 33.17 35.76 33.65 36.83 33.81 38.12
  A 2.43 2.42 49.3 0 1 33.74 39.12
  Q 33.44 40.18 32.98 40.18
  Q 32.52 40.18 32.21 39.12
  A 2.43 2.42 -49.3 0 1 32.14 38.12
  C 32.30 36.83 32.78 35.76 32.43 34.28
  Q 31.91 32.06 32.26 31.00
  A 0.61 0.61 0.0 0 0 31.92 30.25
  L 30.32 29.56
  A 1.49 1.48 -10.1 0 1 29.83 29.22
  Q 25.29 24.28 30.36 20.61
  A 1.62 1.60 -12.1 0 0 30.98 19.66
  L 31.66 16.49
  A 0.28 0.28 0.0 0 0 31.23 16.20
  Q 24.60 20.91 22.22 29.15
  A 1.34 1.31 44.3 0 0 22.24 29.99
  C 24.05 35.35 26.97 36.93 30.98 40.04
  A 1.12 1.12 0.0 0 1 30.88 41.88
  Q 30.80 41.92 30.61 42.03
  A 0.64 0.63 67.9 0 0 30.31 42.75
  L 32.77 51.51
  A 0.28 0.14 87.0 0 0 32.87 51.69
  Q 32.90 51.70 32.97 51.70
  Z"
/>
<path fill="#ffffff" d="
  M 32.98 40.18
  Q 33.44 40.18 33.74 39.12
  A 2.43 2.42 49.3 0 0 33.81 38.12
  C 33.65 36.83 33.17 35.76 33.52 34.28
  Q 34.05 32.06 33.70 31.00
  A 0.61 0.61 0.0 0 1 34.04 30.25
  L 35.64 29.56
  A 1.49 1.48 10.1 0 0 36.13 29.22
  Q 40.67 24.28 35.60 20.61
  A 1.62 1.60 12.1 0 1 34.98 19.66
  L 34.30 16.49
  A 0.28 0.28 0.0 0 1 34.73 16.20
  Q 41.36 20.91 43.74 29.15
  A 1.34 1.31 -44.3 0 1 43.72 29.99
  C 41.90 35.35 38.98 36.93 34.97 40.04
  A 1.12 1.12 0.0 0 0 35.07 41.88
  Q 35.15 41.92 35.34 42.03
  A 0.64 0.63 -67.9 0 1 35.64 42.75
  L 33.18 51.51
  A 0.28 0.14 -87.0 0 1 33.07 51.69
  Q 33.05 51.70 32.97 51.70
  Q 32.90 51.70 32.87 51.69
  A 0.28 0.14 87.0 0 1 32.77 51.51
  L 30.31 42.75
  A 0.64 0.63 67.9 0 1 30.61 42.03
  Q 30.80 41.92 30.88 41.88
  A 1.12 1.12 0.0 0 0 30.98 40.04
  C 26.97 36.93 24.05 35.35 22.24 29.99
  A 1.34 1.31 44.3 0 1 22.22 29.15
  Q 24.60 20.91 31.23 16.20
  A 0.28 0.28 0.0 0 1 31.66 16.49
  L 30.98 19.66
  A 1.62 1.60 -12.1 0 1 30.36 20.61
  Q 25.29 24.28 29.83 29.22
  A 1.49 1.48 -10.1 0 0 30.32 29.56
  L 31.92 30.25
  A 0.61 0.61 0.0 0 1 32.26 31.00
  Q 31.91 32.06 32.43 34.28
  C 32.78 35.76 32.30 36.83 32.14 38.12
  A 2.43 2.42 -49.3 0 0 32.21 39.12
  Q 32.52 40.18 32.98 40.18
  Z
  M 25.39 28.12
  Q 25.02 34.73 30.04 37.14
  A 0.65 0.65 0.0 0 0 30.97 36.52
  Q 30.71 31.30 25.93 27.86
  A 0.34 0.34 0.0 0 0 25.39 28.12
  Z
  M 40.58 28.14
  A 0.34 0.34 0.0 0 0 40.04 27.88
  Q 35.28 31.27 34.99 36.46
  A 0.65 0.64 -10.9 0 0 35.91 37.08
  Q 40.91 34.71 40.58 28.14
  Z"
/>
<path fill="#8e58a1" d="
  M 25.93 27.86
  Q 30.71 31.30 30.97 36.52
  A 0.65 0.65 0.0 0 1 30.04 37.14
  Q 25.02 34.73 25.39 28.12
  A 0.34 0.34 0.0 0 1 25.93 27.86
  Z"
/>
<path fill="#8e58a1" d="
  M 40.58 28.14
  Q 40.91 34.71 35.91 37.08
  A 0.65 0.64 -10.9 0 1 34.99 36.46
  Q 35.28 31.27 40.04 27.88
  A 0.34 0.34 0.0 0 1 40.58 28.14
  Z"
/>
</svg>
