<?xml version="1.0" encoding="UTF-8" standalone="no"?>
<!DOCTYPE svg PUBLIC "-//W3C//DTD SVG 1.1//EN" "http://www.w3.org/Graphics/SVG/1.1/DTD/svg11.dtd">
<svg xmlns="http://www.w3.org/2000/svg" version="1.1" viewBox="0.00 0.00 66.00 88.00">
<g stroke-width="2.00" fill="none" stroke-linecap="butt">
<path stroke="#395a66" vector-effect="non-scaling-stroke" d="
  M 33.40 86.69
  Q 33.53 86.69 33.67 86.66
  A 0.10 0.08 12.4 0 0 33.72 86.63
  Q 48.56 72.86 57.71 56.25
  C 64.49 43.94 67.53 28.44 59.37 16.41
  Q 50.57 3.44 34.50 2.53
  Q 33.58 2.48 33.54 2.48
  Q 33.50 2.48 32.57 2.52
  Q 16.50 3.38 7.66 16.32
  C -0.54 28.33 2.45 43.84 9.19 56.17
  Q 18.28 72.81 33.08 86.63
  A 0.10 0.08 -12.2 0 0 33.13 86.65
  Q 33.26 86.69 33.40 86.69"
/>
<path stroke="#a6bbc3" vector-effect="non-scaling-stroke" d="
  M 32.99 52.24
  Q 42.13 52.24 42.27 52.23
  C 46.57 51.84 46.14 49.01 46.16 45.16
  Q 46.20 36.62 46.06 33.72
  A 3.66 3.43 14.3 0 0 44.21 30.82
  Q 43.77 30.57 43.45 30.31
  A 1.19 1.16 18.9 0 1 43.01 29.44
  Q 42.97 28.75 42.84 24.96
  C 42.65 19.37 38.51 15.78 33.01 15.77
  C 27.51 15.77 23.36 19.36 23.16 24.95
  Q 23.03 28.74 22.99 29.43
  A 1.19 1.16 -18.8 0 1 22.55 30.30
  Q 22.23 30.56 21.79 30.81
  A 3.66 3.43 -14.3 0 0 19.94 33.71
  Q 19.79 36.61 19.83 45.15
  C 19.84 49.00 19.41 51.83 23.71 52.22
  Q 23.85 52.23 32.99 52.24"
/>
<path stroke="#a6bbc3" vector-effect="non-scaling-stroke" d="
  M 27.88 30.01
  L 38.18 29.97
  A 0.88 0.88 0.0 0 0 39.06 29.09
  L 39.04 25.27
  A 5.82 5.70 89.8 0 0 33.32 19.47
  L 32.66 19.47
  A 5.82 5.70 89.8 0 0 26.98 25.31
  L 27.00 29.13
  A 0.88 0.88 0.0 0 0 27.88 30.01"
/>
<path stroke="#a6bbc3" vector-effect="non-scaling-stroke" d="
  M 32.98 46.49
  Q 35.34 46.49 35.45 46.48
  A 0.54 0.54 0.0 0 0 35.88 45.75
  L 34.77 42.85
  A 1.11 1.10 54.2 0 1 34.94 41.77
  C 36.73 39.53 36.47 36.13 33.01 36.12
  C 29.55 36.11 29.27 39.51 31.04 41.76
  A 1.11 1.10 -53.9 0 1 31.21 42.84
  L 30.09 45.73
  A 0.54 0.54 0.0 0 0 30.51 46.46
  Q 30.62 46.48 32.98 46.49"
/>
</g>
<path fill="#243d45" d="
  M 33.81 88.00
  L 33.04 88.00
  C 22.18 78.19 12.04 65.64 5.74 51.77
  Q 2.16 43.89 1.59 34.95
  Q 1.01 25.85 5.15 18.20
  C 17.51 -4.64 50.36 -4.09 62.16 18.82
  C 67.39 28.97 65.87 41.19 61.31 51.54
  C 55.21 65.39 44.94 77.83 33.81 88.00
  Z
  M 33.40 86.69
  Q 33.53 86.69 33.67 86.66
  A 0.10 0.08 12.4 0 0 33.72 86.63
  Q 48.56 72.86 57.71 56.25
  C 64.49 43.94 67.53 28.44 59.37 16.41
  Q 50.57 3.44 34.50 2.53
  Q 33.58 2.48 33.54 2.48
  Q 33.50 2.48 32.57 2.52
  Q 16.50 3.38 7.66 16.32
  C -0.54 28.33 2.45 43.84 9.19 56.17
  Q 18.28 72.81 33.08 86.63
  A 0.10 0.08 -12.2 0 0 33.13 86.65
  Q 33.26 86.69 33.40 86.69
  Z"
/>
<path fill="#4d7787" d="
  M 33.54 2.48
  Q 33.58 2.48 34.50 2.53
  Q 50.57 3.44 59.37 16.41
  C 67.53 28.44 64.49 43.94 57.71 56.25
  Q 48.56 72.86 33.72 86.63
  A 0.10 0.08 12.4 0 1 33.67 86.66
  Q 33.53 86.69 33.40 86.69
  Q 33.26 86.69 33.13 86.65
  A 0.10 0.08 -12.2 0 1 33.08 86.63
  Q 18.28 72.81 9.19 56.17
  C 2.45 43.84 -0.54 28.33 7.66 16.32
  Q 16.50 3.38 32.57 2.52
  Q 33.50 2.48 33.54 2.48
  Z
  M 32.99 52.24
  Q 42.13 52.24 42.27 52.23
  C 46.57 51.84 46.14 49.01 46.16 45.16
  Q 46.20 36.62 46.06 33.72
  A 3.66 3.43 14.3 0 0 44.21 30.82
  Q 43.77 30.57 43.45 30.31
  A 1.19 1.16 18.9 0 1 43.01 29.44
  Q 42.97 28.75 42.84 24.96
  C 42.65 19.37 38.51 15.78 33.01 15.77
  C 27.51 15.77 23.36 19.36 23.16 24.95
  Q 23.03 28.74 22.99 29.43
  A 1.19 1.16 -18.8 0 1 22.55 30.30
  Q 22.23 30.56 21.79 30.81
  A 3.66 3.43 -14.3 0 0 19.94 33.71
  Q 19.79 36.61 19.83 45.15
  C 19.84 49.00 19.41 51.83 23.71 52.22
  Q 23.85 52.23 32.99 52.24
  Z"
/>
<path fill="#ffffff" d="
  M 33.01 15.77
  C 38.51 15.78 42.65 19.37 42.84 24.96
  Q 42.97 28.75 43.01 29.44
  A 1.19 1.16 18.9 0 0 43.45 30.31
  Q 43.77 30.57 44.21 30.82
  A 3.66 3.43 14.3 0 1 46.06 33.72
  Q 46.20 36.62 46.16 45.16
  C 46.14 49.01 46.57 51.84 42.27 52.23
  Q 42.13 52.24 32.99 52.24
  Q 23.85 52.23 23.71 52.22
  C 19.41 51.83 19.84 49.00 19.83 45.15
  Q 19.79 36.61 19.94 33.71
  A 3.66 3.43 -14.3 0 1 21.79 30.81
  Q 22.23 30.56 22.55 30.30
  A 1.19 1.16 -18.8 0 0 22.99 29.43
  Q 23.03 28.74 23.16 24.95
  C 23.36 19.36 27.51 15.77 33.01 15.77
  Z
  M 27.88 30.01
  L 38.18 29.97
  A 0.88 0.88 0.0 0 0 39.06 29.09
  L 39.04 25.27
  A 5.82 5.70 89.8 0 0 33.32 19.47
  L 32.66 19.47
  A 5.82 5.70 89.8 0 0 26.98 25.31
  L 27.00 29.13
  A 0.88 0.88 0.0 0 0 27.88 30.01
  Z
  M 32.98 46.49
  Q 35.34 46.49 35.45 46.48
  A 0.54 0.54 0.0 0 0 35.88 45.75
  L 34.77 42.85
  A 1.11 1.10 54.2 0 1 34.94 41.77
  C 36.73 39.53 36.47 36.13 33.01 36.12
  C 29.55 36.11 29.27 39.51 31.04 41.76
  A 1.11 1.10 -53.9 0 1 31.21 42.84
  L 30.09 45.73
  A 0.54 0.54 0.0 0 0 30.51 46.46
  Q 30.62 46.48 32.98 46.49
  Z"
/>
<path fill="#4d7787" d="
  M 27.88 30.01
  A 0.88 0.88 0.0 0 1 27.00 29.13
  L 26.98 25.31
  A 5.82 5.70 89.8 0 1 32.66 19.47
  L 33.32 19.47
  A 5.82 5.70 89.8 0 1 39.04 25.27
  L 39.06 29.09
  A 0.88 0.88 0.0 0 1 38.18 29.97
  L 27.88 30.01
  Z"
/>
<path fill="#4d7787" d="
  M 33.01 36.12
  C 36.47 36.13 36.73 39.53 34.94 41.77
  A 1.11 1.10 54.2 0 0 34.77 42.85
  L 35.88 45.75
  A 0.54 0.54 0.0 0 1 35.45 46.48
  Q 35.34 46.49 32.98 46.49
  Q 30.62 46.48 30.51 46.46
  A 0.54 0.54 0.0 0 1 30.09 45.73
  L 31.21 42.84
  A 1.11 1.10 -53.9 0 0 31.04 41.76
  C 29.27 39.51 29.55 36.11 33.01 36.12
  Z"
/>
</svg>
