<?xml version="1.0" encoding="UTF-8" standalone="no"?>
<!DOCTYPE svg PUBLIC "-//W3C//DTD SVG 1.1//EN" "http://www.w3.org/Graphics/SVG/1.1/DTD/svg11.dtd">
<svg xmlns="http://www.w3.org/2000/svg" version="1.1" viewBox="0.00 0.00 66.00 88.00">
<g stroke-width="2.00" fill="none" stroke-linecap="butt">
<path stroke="#171b2a" vector-effect="non-scaling-stroke" d="
  M 33.25 85.79
  Q 33.35 85.79 33.48 85.71
  C 36.76 83.55 39.38 80.59 42.23 77.48
  Q 51.24 67.64 57.41 56.40
  Q 63.90 44.58 64.01 31.64
  Q 64.05 27.52 62.88 24.14
  Q 57.12 7.47 39.97 3.19
  Q 37.29 2.52 33.57 2.51
  Q 29.85 2.49 27.16 3.14
  Q 9.98 7.29 4.10 23.92
  Q 2.90 27.29 2.91 31.41
  Q 2.92 44.35 9.32 56.22
  Q 15.41 67.50 24.34 77.41
  C 27.17 80.54 29.77 83.52 33.03 85.70
  Q 33.16 85.79 33.25 85.79"
/>
<path stroke="#8e9099" vector-effect="non-scaling-stroke" d="
  M 23.52 34.00
  Q 23.52 45.34 23.49 46.04
  A 0.77 0.77 0.0 0 1 22.82 46.78
  L 22.24 46.86
  A 1.31 1.31 0.0 0 0 22.25 49.46
  L 23.33 49.59
  A 2.95 2.90 63.8 0 1 24.45 49.98
  Q 28.11 52.19 32.81 52.19
  Q 37.51 52.19 41.16 49.98
  A 2.95 2.90 -63.9 0 1 42.28 49.59
  L 43.36 49.46
  A 1.31 1.31 0.0 0 0 43.37 46.86
  L 42.79 46.78
  A 0.77 0.77 0.0 0 1 42.12 46.04
  Q 42.09 45.33 42.09 33.99
  Q 42.09 22.66 42.11 21.95
  A 0.77 0.77 0.0 0 1 42.79 21.21
  L 43.37 21.13
  A 1.31 1.31 0.0 0 0 43.36 18.53
  L 42.28 18.40
  A 2.95 2.90 63.8 0 1 41.15 18.01
  Q 37.50 15.80 32.80 15.80
  Q 28.10 15.80 24.45 18.01
  A 2.95 2.90 -63.9 0 1 23.33 18.40
  L 22.25 18.53
  A 1.31 1.31 0.0 0 0 22.24 21.13
  L 22.82 21.21
  A 0.77 0.77 0.0 0 1 23.49 21.95
  Q 23.52 22.66 23.52 34.00"
/>
<path stroke="#8e9099" vector-effect="non-scaling-stroke" d="
  M 32.78 29.36
  Q 35.91 29.35 38.81 31.56
  A 0.35 0.35 0.0 0 0 39.37 31.27
  C 39.26 27.27 36.96 24.00 32.76 24.02
  C 28.56 24.04 26.28 27.32 26.20 31.32
  A 0.35 0.35 0.0 0 0 26.77 31.61
  Q 29.65 29.38 32.78 29.36"
/>
<path stroke="#8e9099" vector-effect="non-scaling-stroke" d="
  M 32.80 37.49
  Q 35.95 37.49 38.85 39.73
  A 0.35 0.35 0.0 0 0 39.42 39.44
  C 39.33 35.42 37.03 32.12 32.81 32.12
  C 28.58 32.12 26.28 35.41 26.19 39.43
  A 0.35 0.35 0.0 0 0 26.75 39.72
  Q 29.66 37.49 32.80 37.49"
/>
<path stroke="#8e9099" vector-effect="non-scaling-stroke" d="
  M 27.38 44.01
  L 38.16 43.97
  A 0.11 0.11 0.0 0 0 38.27 43.86
  L 38.27 43.84
  A 5.39 3.35 -0.2 0 0 32.86 40.51
  L 32.64 40.51
  A 5.39 3.35 -0.2 0 0 27.27 43.88
  L 27.27 43.90
  A 0.11 0.11 0.0 0 0 27.38 44.01"
/>
</g>
<path fill="#121521" d="
  M 33.82 88.00
  L 33.04 88.00
  C 21.78 77.76 12.09 65.66 5.65 51.57
  Q 2.18 43.97 1.60 34.88
  C 0.40 16.30 15.49 0.99 33.97 1.34
  C 51.53 1.67 66.05 15.84 65.46 33.75
  Q 65.23 40.66 63.04 47.01
  C 57.65 62.62 45.95 76.92 33.82 88.00
  Z
  M 33.25 85.79
  Q 33.35 85.79 33.48 85.71
  C 36.76 83.55 39.38 80.59 42.23 77.48
  Q 51.24 67.64 57.41 56.40
  Q 63.90 44.58 64.01 31.64
  Q 64.05 27.52 62.88 24.14
  Q 57.12 7.47 39.97 3.19
  Q 37.29 2.52 33.57 2.51
  Q 29.85 2.49 27.16 3.14
  Q 9.98 7.29 4.10 23.92
  Q 2.90 27.29 2.91 31.41
  Q 2.92 44.35 9.32 56.22
  Q 15.41 67.50 24.34 77.41
  C 27.17 80.54 29.77 83.52 33.03 85.70
  Q 33.16 85.79 33.25 85.79
  Z"
/>
<path fill="#1c2133" d="
  M 33.57 2.51
  Q 37.29 2.52 39.97 3.19
  Q 57.12 7.47 62.88 24.14
  Q 64.05 27.52 64.01 31.64
  Q 63.90 44.58 57.41 56.40
  Q 51.24 67.64 42.23 77.48
  C 39.38 80.59 36.76 83.55 33.48 85.71
  Q 33.35 85.79 33.25 85.79
  Q 33.16 85.79 33.03 85.70
  C 29.77 83.52 27.17 80.54 24.34 77.41
  Q 15.41 67.50 9.32 56.22
  Q 2.92 44.35 2.91 31.41
  Q 2.90 27.29 4.10 23.92
  Q 9.98 7.29 27.16 3.14
  Q 29.85 2.49 33.57 2.51
  Z
  M 23.52 34.00
  Q 23.52 45.34 23.49 46.04
  A 0.77 0.77 0.0 0 1 22.82 46.78
  L 22.24 46.86
  A 1.31 1.31 0.0 0 0 22.25 49.46
  L 23.33 49.59
  A 2.95 2.90 63.8 0 1 24.45 49.98
  Q 28.11 52.19 32.81 52.19
  Q 37.51 52.19 41.16 49.98
  A 2.95 2.90 -63.9 0 1 42.28 49.59
  L 43.36 49.46
  A 1.31 1.31 0.0 0 0 43.37 46.86
  L 42.79 46.78
  A 0.77 0.77 0.0 0 1 42.12 46.04
  Q 42.09 45.33 42.09 33.99
  Q 42.09 22.66 42.11 21.95
  A 0.77 0.77 0.0 0 1 42.79 21.21
  L 43.37 21.13
  A 1.31 1.31 0.0 0 0 43.36 18.53
  L 42.28 18.40
  A 2.95 2.90 63.8 0 1 41.15 18.01
  Q 37.50 15.80 32.80 15.80
  Q 28.10 15.80 24.45 18.01
  A 2.95 2.90 -63.9 0 1 23.33 18.40
  L 22.25 18.53
  A 1.31 1.31 0.0 0 0 22.24 21.13
  L 22.82 21.21
  A 0.77 0.77 0.0 0 1 23.49 21.95
  Q 23.52 22.66 23.52 34.00
  Z"
/>
<path fill="#ffffff" d="
  M 32.80 15.80
  Q 37.50 15.80 41.15 18.01
  A 2.95 2.90 63.8 0 0 42.28 18.40
  L 43.36 18.53
  A 1.31 1.31 0.0 0 1 43.37 21.13
  L 42.79 21.21
  A 0.77 0.77 0.0 0 0 42.11 21.95
  Q 42.09 22.66 42.09 33.99
  Q 42.09 45.33 42.12 46.04
  A 0.77 0.77 0.0 0 0 42.79 46.78
  L 43.37 46.86
  A 1.31 1.31 0.0 0 1 43.36 49.46
  L 42.28 49.59
  A 2.95 2.90 -63.9 0 0 41.16 49.98
  Q 37.51 52.19 32.81 52.19
  Q 28.11 52.19 24.45 49.98
  A 2.95 2.90 63.8 0 0 23.33 49.59
  L 22.25 49.46
  A 1.31 1.31 0.0 0 1 22.24 46.86
  L 22.82 46.78
  A 0.77 0.77 0.0 0 0 23.49 46.04
  Q 23.52 45.34 23.52 34.00
  Q 23.52 22.66 23.49 21.95
  A 0.77 0.77 0.0 0 0 22.82 21.21
  L 22.24 21.13
  A 1.31 1.31 0.0 0 1 22.25 18.53
  L 23.33 18.40
  A 2.95 2.90 -63.9 0 0 24.45 18.01
  Q 28.10 15.80 32.80 15.80
  Z
  M 32.78 29.36
  Q 35.91 29.35 38.81 31.56
  A 0.35 0.35 0.0 0 0 39.37 31.27
  C 39.26 27.27 36.96 24.00 32.76 24.02
  C 28.56 24.04 26.28 27.32 26.20 31.32
  A 0.35 0.35 0.0 0 0 26.77 31.61
  Q 29.65 29.38 32.78 29.36
  Z
  M 32.80 37.49
  Q 35.95 37.49 38.85 39.73
  A 0.35 0.35 0.0 0 0 39.42 39.44
  C 39.33 35.42 37.03 32.12 32.81 32.12
  C 28.58 32.12 26.28 35.41 26.19 39.43
  A 0.35 0.35 0.0 0 0 26.75 39.72
  Q 29.66 37.49 32.80 37.49
  Z
  M 27.38 44.01
  L 38.16 43.97
  A 0.11 0.11 0.0 0 0 38.27 43.86
  L 38.27 43.84
  A 5.39 3.35 -0.2 0 0 32.86 40.51
  L 32.64 40.51
  A 5.39 3.35 -0.2 0 0 27.27 43.88
  L 27.27 43.90
  A 0.11 0.11 0.0 0 0 27.38 44.01
  Z"
/>
<path fill="#1c2133" d="
  M 32.76 24.02
  C 36.96 24.00 39.26 27.27 39.37 31.27
  A 0.35 0.35 0.0 0 1 38.81 31.56
  Q 35.91 29.35 32.78 29.36
  Q 29.65 29.38 26.77 31.61
  A 0.35 0.35 0.0 0 1 26.20 31.32
  C 26.28 27.32 28.56 24.04 32.76 24.02
  Z"
/>
<path fill="#1c2133" d="
  M 32.80 37.49
  Q 29.66 37.49 26.75 39.72
  A 0.35 0.35 0.0 0 1 26.19 39.43
  C 26.28 35.41 28.58 32.12 32.81 32.12
  C 37.03 32.12 39.33 35.42 39.42 39.44
  A 0.35 0.35 0.0 0 1 38.85 39.73
  Q 35.95 37.49 32.80 37.49
  Z"
/>
<path fill="#1c2133" d="
  M 27.38 44.01
  A 0.11 0.11 0.0 0 1 27.27 43.90
  L 27.27 43.88
  A 5.39 3.35 -0.2 0 1 32.64 40.51
  L 32.86 40.51
  A 5.39 3.35 -0.2 0 1 38.27 43.84
  L 38.27 43.86
  A 0.11 0.11 0.0 0 1 38.16 43.97
  L 27.38 44.01
  Z"
/>
</svg>
