<?xml version="1.0" encoding="UTF-8" standalone="no"?>
<!DOCTYPE svg PUBLIC "-//W3C//DTD SVG 1.1//EN" "http://www.w3.org/Graphics/SVG/1.1/DTD/svg11.dtd">
<svg xmlns="http://www.w3.org/2000/svg" version="1.1" viewBox="0.00 0.00 66.00 88.00">
<g stroke-width="2.00" fill="none" stroke-linecap="butt">
<path stroke="#395b66" vector-effect="non-scaling-stroke" d="
  M 33.39 86.69
  Q 33.53 86.69 33.67 86.66
  A 0.11 0.08 10.9 0 0 33.72 86.63
  C 44.96 76.04 55.52 63.13 60.95 49.23
  C 67.52 32.38 64.64 16.12 48.75 6.52
  Q 42.05 2.47 33.54 2.46
  Q 25.03 2.44 18.32 6.47
  C 2.39 16.01 -0.54 32.26 5.97 49.13
  C 11.35 63.05 21.87 76.00 33.07 86.63
  A 0.11 0.08 -10.7 0 0 33.12 86.65
  Q 33.26 86.69 33.39 86.69"
/>
<path stroke="#a6bbc3" vector-effect="non-scaling-stroke" d="
  M 37.59 35.51
  Q 38.14 35.73 38.30 35.78
  A 0.66 0.66 0.0 0 0 39.08 35.39
  L 42.35 27.35
  A 0.80 0.80 0.0 0 1 43.09 26.85
  Q 44.38 26.85 44.76 25.99
  Q 46.45 22.15 47.75 18.71
  A 1.26 1.26 0.0 0 0 47.45 17.37
  Q 46.92 16.84 45.49 16.25
  Q 44.05 15.66 43.30 15.66
  A 1.26 1.26 0.0 0 0 42.15 16.41
  Q 40.66 19.78 39.17 23.70
  Q 38.83 24.58 39.75 25.48
  A 0.80 0.80 0.0 0 1 39.93 26.36
  L 36.62 34.38
  A 0.66 0.66 0.0 0 0 36.90 35.20
  Q 37.05 35.29 37.59 35.51"
/>
<path stroke="#a6bbc3" vector-effect="non-scaling-stroke" d="
  M 32.61 45.00
  Q 41.52 44.99 42.45 44.90
  A 0.23 0.23 0.0 0 0 42.64 44.59
  C 40.97 40.37 37.25 37.53 32.60 37.54
  C 27.96 37.54 24.24 40.38 22.58 44.61
  A 0.23 0.23 0.0 0 0 22.77 44.92
  Q 23.71 45.01 32.61 45.00"
/>
<path stroke="#a6bbc3" vector-effect="non-scaling-stroke" d="
  M 47.82 48.42
  A 0.36 0.36 0.0 0 0 47.46 48.06
  L 17.78 48.06
  A 0.36 0.36 0.0 0 0 17.42 48.42
  L 17.42 51.96
  A 0.36 0.36 0.0 0 0 17.78 52.32
  L 47.46 52.32
  A 0.36 0.36 0.0 0 0 47.82 51.96
  L 47.82 48.42"
/>
</g>
<path fill="#243e45" d="
  M 33.81 88.00
  L 33.15 88.00
  Q 15.61 72.49 6.00 52.51
  Q 2.31 44.84 1.62 35.22
  Q 0.94 25.66 5.27 17.98
  C 18.00 -4.59 50.63 -4.33 62.46 19.45
  C 67.05 28.66 65.93 40.28 62.13 49.57
  C 56.13 64.27 45.47 77.35 33.81 88.00
  Z
  M 33.39 86.69
  Q 33.53 86.69 33.67 86.66
  A 0.11 0.08 10.9 0 0 33.72 86.63
  C 44.96 76.04 55.52 63.13 60.95 49.23
  C 67.52 32.38 64.64 16.12 48.75 6.52
  Q 42.05 2.47 33.54 2.46
  Q 25.03 2.44 18.32 6.47
  C 2.39 16.01 -0.54 32.26 5.97 49.13
  C 11.35 63.05 21.87 76.00 33.07 86.63
  A 0.11 0.08 -10.7 0 0 33.12 86.65
  Q 33.26 86.69 33.39 86.69
  Z"
/>
<path fill="#4d7787" d="
  M 33.54 2.46
  Q 42.05 2.47 48.75 6.52
  C 64.64 16.12 67.52 32.38 60.95 49.23
  C 55.52 63.13 44.96 76.04 33.72 86.63
  A 0.11 0.08 10.9 0 1 33.67 86.66
  Q 33.53 86.69 33.39 86.69
  Q 33.26 86.69 33.12 86.65
  A 0.11 0.08 -10.7 0 1 33.07 86.63
  C 21.87 76.00 11.35 63.05 5.97 49.13
  C -0.54 32.26 2.39 16.01 18.32 6.47
  Q 25.03 2.44 33.54 2.46
  Z
  M 37.59 35.51
  Q 38.14 35.73 38.30 35.78
  A 0.66 0.66 0.0 0 0 39.08 35.39
  L 42.35 27.35
  A 0.80 0.80 0.0 0 1 43.09 26.85
  Q 44.38 26.85 44.76 25.99
  Q 46.45 22.15 47.75 18.71
  A 1.26 1.26 0.0 0 0 47.45 17.37
  Q 46.92 16.84 45.49 16.25
  Q 44.05 15.66 43.30 15.66
  A 1.26 1.26 0.0 0 0 42.15 16.41
  Q 40.66 19.78 39.17 23.70
  Q 38.83 24.58 39.75 25.48
  A 0.80 0.80 0.0 0 1 39.93 26.36
  L 36.62 34.38
  A 0.66 0.66 0.0 0 0 36.90 35.20
  Q 37.05 35.29 37.59 35.51
  Z
  M 32.61 45.00
  Q 41.52 44.99 42.45 44.90
  A 0.23 0.23 0.0 0 0 42.64 44.59
  C 40.97 40.37 37.25 37.53 32.60 37.54
  C 27.96 37.54 24.24 40.38 22.58 44.61
  A 0.23 0.23 0.0 0 0 22.77 44.92
  Q 23.71 45.01 32.61 45.00
  Z
  M 47.82 48.42
  A 0.36 0.36 0.0 0 0 47.46 48.06
  L 17.78 48.06
  A 0.36 0.36 0.0 0 0 17.42 48.42
  L 17.42 51.96
  A 0.36 0.36 0.0 0 0 17.78 52.32
  L 47.46 52.32
  A 0.36 0.36 0.0 0 0 47.82 51.96
  L 47.82 48.42
  Z"
/>
<path fill="#ffffff" d="
  M 45.49 16.25
  Q 46.92 16.84 47.45 17.37
  A 1.26 1.26 0.0 0 1 47.75 18.71
  Q 46.45 22.15 44.76 25.99
  Q 44.38 26.85 43.09 26.85
  A 0.80 0.80 0.0 0 0 42.35 27.35
  L 39.08 35.39
  A 0.66 0.66 0.0 0 1 38.30 35.78
  Q 38.14 35.73 37.59 35.51
  Q 37.05 35.29 36.90 35.20
  A 0.66 0.66 0.0 0 1 36.62 34.38
  L 39.93 26.36
  A 0.80 0.80 0.0 0 0 39.75 25.48
  Q 38.83 24.58 39.17 23.70
  Q 40.66 19.78 42.15 16.41
  A 1.26 1.26 0.0 0 1 43.30 15.66
  Q 44.05 15.66 45.49 16.25
  Z"
/>
<path fill="#ffffff" d="
  M 32.60 37.54
  C 37.25 37.53 40.97 40.37 42.64 44.59
  A 0.23 0.23 0.0 0 1 42.45 44.90
  Q 41.52 44.99 32.61 45.00
  Q 23.71 45.01 22.77 44.92
  A 0.23 0.23 0.0 0 1 22.58 44.61
  C 24.24 40.38 27.96 37.54 32.60 37.54
  Z"
/>
<rect fill="#ffffff" x="17.42" y="48.06" width="30.40" height="4.26" rx="0.36"/>
</svg>
