<?xml version="1.0" encoding="UTF-8" standalone="no"?>
<!DOCTYPE svg PUBLIC "-//W3C//DTD SVG 1.1//EN" "http://www.w3.org/Graphics/SVG/1.1/DTD/svg11.dtd">
<svg xmlns="http://www.w3.org/2000/svg" version="1.1" viewBox="0.00 0.00 66.00 88.00">
<g stroke-width="2.00" fill="none" stroke-linecap="butt">
<path stroke="#7e5665" vector-effect="non-scaling-stroke" d="
  M 33.41 86.70
  Q 33.52 86.70 33.62 86.68
  Q 33.65 86.67 33.77 86.56
  C 50.25 71.18 75.31 39.60 59.13 16.13
  Q 50.14 3.07 33.75 2.46
  Q 33.64 2.46 33.53 2.46
  Q 33.42 2.46 33.30 2.46
  Q 16.91 3.02 7.88 16.06
  C -8.36 39.48 16.61 71.13 33.04 86.56
  Q 33.16 86.67 33.19 86.68
  Q 33.29 86.70 33.41 86.70"
/>
<path stroke="#d3b9c3" vector-effect="non-scaling-stroke" d="
  M 39.79 47.81
  L 39.79 19.37
  A 1.12 1.11 -75.3 0 0 39.23 18.40
  L 35.22 16.08
  A 0.65 0.64 -35.6 0 0 34.77 16.01
  Q 29.21 17.23 26.01 21.72
  A 1.84 1.81 62.9 0 0 25.68 22.77
  L 25.68 47.84
  A 0.87 0.86 -75.0 0 0 26.11 48.59
  L 32.14 52.07
  A 1.18 1.18 0.0 0 0 33.32 52.07
  L 39.35 48.59
  A 0.91 0.89 75.0 0 0 39.79 47.81"
/>
<path stroke="#d3b9c3" vector-effect="non-scaling-stroke" d="
  M 22.95 46.13
  L 22.93 29.85
  A 0.29 0.29 0.0 0 0 22.64 29.56
  L 22.30 29.56
  A 4.01 3.86 -0.1 0 0 18.29 33.42
  L 18.31 42.56
  A 4.01 3.86 -0.1 0 0 22.32 46.42
  L 22.66 46.42
  A 0.29 0.29 0.0 0 0 22.95 46.13"
/>
<path stroke="#d3b9c3" vector-effect="non-scaling-stroke" d="
  M 42.87 29.75
  A 0.33 0.33 0.0 0 0 42.54 30.08
  L 42.54 46.52
  A 0.33 0.33 0.0 0 0 43.04 46.80
  L 46.97 44.53
  A 0.33 0.33 0.0 0 0 47.13 44.24
  L 47.13 30.08
  A 0.33 0.33 0.0 0 0 46.80 29.75
  L 42.87 29.75"
/>
<path stroke="#d3b9c3" vector-effect="non-scaling-stroke" d="
  M 36.85 46.83
  A 0.35 0.35 0.0 0 0 37.02 46.53
  L 37.02 22.82
  A 0.35 0.35 0.0 0 0 36.49 22.51
  L 34.46 23.69
  A 0.35 0.35 0.0 0 0 34.29 23.99
  L 34.29 47.70
  A 0.35 0.35 0.0 0 0 34.82 48.01
  L 36.85 46.83"
/>
</g>
<path fill="#553943" d="
  M 33.79 88.00
  L 33.04 88.00
  C 16.60 73.17 -6.47 43.97 4.21 20.12
  Q 8.17 11.25 16.63 6.07
  C 38.14 -7.11 66.40 8.57 65.44 34.06
  Q 65.15 41.77 62.41 48.85
  C 56.66 63.72 45.54 77.36 33.79 88.00
  Z
  M 33.41 86.70
  Q 33.52 86.70 33.62 86.68
  Q 33.65 86.67 33.77 86.56
  C 50.25 71.18 75.31 39.60 59.13 16.13
  Q 50.14 3.07 33.75 2.46
  Q 33.64 2.46 33.53 2.46
  Q 33.42 2.46 33.30 2.46
  Q 16.91 3.02 7.88 16.06
  C -8.36 39.48 16.61 71.13 33.04 86.56
  Q 33.16 86.67 33.19 86.68
  Q 33.29 86.70 33.41 86.70
  Z"
/>
<path fill="#a77387" d="
  M 33.53 2.46
  Q 33.64 2.46 33.75 2.46
  Q 50.14 3.07 59.13 16.13
  C 75.31 39.60 50.25 71.18 33.77 86.56
  Q 33.65 86.67 33.62 86.68
  Q 33.52 86.70 33.41 86.70
  Q 33.29 86.70 33.19 86.68
  Q 33.16 86.67 33.04 86.56
  C 16.61 71.13 -8.36 39.48 7.88 16.06
  Q 16.91 3.02 33.30 2.46
  Q 33.42 2.46 33.53 2.46
  Z
  M 39.79 47.81
  L 39.79 19.37
  A 1.12 1.11 -75.3 0 0 39.23 18.40
  L 35.22 16.08
  A 0.65 0.64 -35.6 0 0 34.77 16.01
  Q 29.21 17.23 26.01 21.72
  A 1.84 1.81 62.9 0 0 25.68 22.77
  L 25.68 47.84
  A 0.87 0.86 -75.0 0 0 26.11 48.59
  L 32.14 52.07
  A 1.18 1.18 0.0 0 0 33.32 52.07
  L 39.35 48.59
  A 0.91 0.89 75.0 0 0 39.79 47.81
  Z
  M 22.95 46.13
  L 22.93 29.85
  A 0.29 0.29 0.0 0 0 22.64 29.56
  L 22.30 29.56
  A 4.01 3.86 -0.1 0 0 18.29 33.42
  L 18.31 42.56
  A 4.01 3.86 -0.1 0 0 22.32 46.42
  L 22.66 46.42
  A 0.29 0.29 0.0 0 0 22.95 46.13
  Z
  M 42.87 29.75
  A 0.33 0.33 0.0 0 0 42.54 30.08
  L 42.54 46.52
  A 0.33 0.33 0.0 0 0 43.04 46.80
  L 46.97 44.53
  A 0.33 0.33 0.0 0 0 47.13 44.24
  L 47.13 30.08
  A 0.33 0.33 0.0 0 0 46.80 29.75
  L 42.87 29.75
  Z"
/>
<path fill="#ffffff" d="
  M 39.35 48.59
  L 33.32 52.07
  A 1.18 1.18 0.0 0 1 32.14 52.07
  L 26.11 48.59
  A 0.87 0.86 -75.0 0 1 25.68 47.84
  L 25.68 22.77
  A 1.84 1.81 62.9 0 1 26.01 21.72
  Q 29.21 17.23 34.77 16.01
  A 0.65 0.64 -35.6 0 1 35.22 16.08
  L 39.23 18.40
  A 1.12 1.11 -75.3 0 1 39.79 19.37
  L 39.79 47.81
  A 0.91 0.89 75.0 0 1 39.35 48.59
  Z
  M 36.85 46.83
  A 0.35 0.35 0.0 0 0 37.02 46.53
  L 37.02 22.82
  A 0.35 0.35 0.0 0 0 36.49 22.51
  L 34.46 23.69
  A 0.35 0.35 0.0 0 0 34.29 23.99
  L 34.29 47.70
  A 0.35 0.35 0.0 0 0 34.82 48.01
  L 36.85 46.83
  Z"
/>
<path fill="#a77387" d="
  M 36.85 46.83
  L 34.82 48.01
  A 0.35 0.35 0.0 0 1 34.29 47.70
  L 34.29 23.99
  A 0.35 0.35 0.0 0 1 34.46 23.69
  L 36.49 22.51
  A 0.35 0.35 0.0 0 1 37.02 22.82
  L 37.02 46.53
  A 0.35 0.35 0.0 0 1 36.85 46.83
  Z"
/>
<path fill="#ffffff" d="
  M 22.95 46.13
  A 0.29 0.29 0.0 0 1 22.66 46.42
  L 22.32 46.42
  A 4.01 3.86 -0.1 0 1 18.31 42.56
  L 18.29 33.42
  A 4.01 3.86 -0.1 0 1 22.30 29.56
  L 22.64 29.56
  A 0.29 0.29 0.0 0 1 22.93 29.85
  L 22.95 46.13
  Z"
/>
<path fill="#ffffff" d="
  M 42.87 29.75
  L 46.80 29.75
  A 0.33 0.33 0.0 0 1 47.13 30.08
  L 47.13 44.24
  A 0.33 0.33 0.0 0 1 46.97 44.53
  L 43.04 46.80
  A 0.33 0.33 0.0 0 1 42.54 46.52
  L 42.54 30.08
  A 0.33 0.33 0.0 0 1 42.87 29.75
  Z"
/>
</svg>
