<?xml version="1.0" encoding="UTF-8" standalone="no"?>
<!DOCTYPE svg PUBLIC "-//W3C//DTD SVG 1.1//EN" "http://www.w3.org/Graphics/SVG/1.1/DTD/svg11.dtd">
<svg xmlns="http://www.w3.org/2000/svg" version="1.1" viewBox="0.00 0.00 66.00 88.00">
<g stroke-width="2.00" fill="none" stroke-linecap="butt">
<path stroke="#802436" vector-effect="non-scaling-stroke" d="
  M 33.42 86.69
  Q 33.53 86.69 33.62 86.67
  Q 33.67 86.66 33.77 86.57
  C 48.66 72.79 67.48 49.07 63.77 27.46
  C 61.30 13.03 48.13 2.48 33.51 2.47
  C 18.89 2.45 5.70 12.97 3.19 27.40
  C -0.56 49.00 18.21 72.76 33.07 86.57
  Q 33.17 86.66 33.22 86.67
  Q 33.32 86.69 33.42 86.69"
/>
<path stroke="#d498a4" vector-effect="non-scaling-stroke" d="
  M 39.75 16.42
  L 41.28 19.50
  A 0.30 0.30 0.0 0 0 41.68 19.64
  L 41.85 19.55
  A 2.07 2.01 -26.4 0 0 42.81 16.83
  L 42.80 16.81
  A 2.07 2.01 -26.4 0 0 40.05 15.93
  L 39.88 16.02
  A 0.30 0.30 0.0 0 0 39.75 16.42"
/>
<path stroke="#d498a4" vector-effect="non-scaling-stroke" d="
  M 37.6763 18.4753
  A 0.53 0.53 0.0 0 0 36.9720 18.2189
  L 19.6253 26.3078
  A 0.53 0.53 0.0 0 0 19.3689 27.0122
  L 19.9437 28.2447
  A 0.53 0.53 0.0 0 0 20.6480 28.5011
  L 37.9947 20.4122
  A 0.53 0.53 0.0 0 0 38.2511 19.7078
  L 37.6763 18.4753"
/>
<path stroke="#d498a4" vector-effect="non-scaling-stroke" d="
  M 23.68 30.76
  Q 25.64 33.17 25.69 34.57
  Q 25.84 38.77 26.91 43.02
  A 1.55 1.55 0.0 0 0 29.07 44.05
  L 41.74 38.12
  A 0.27 0.27 0.0 0 0 41.81 37.68
  Q 39.78 35.73 39.66 32.83
  Q 39.39 26.56 39.11 24.63
  A 1.28 1.28 0.0 0 0 37.30 23.66
  L 23.86 29.94
  A 0.54 0.53 57.7 0 0 23.68 30.76"
/>
<path stroke="#d498a4" vector-effect="non-scaling-stroke" d="
  M 17.94 30.47
  L 16.48 27.16
  A 0.25 0.25 0.0 0 0 16.16 27.03
  L 16.04 27.08
  A 2.18 2.03 -23.7 0 0 14.86 29.82
  L 14.88 29.87
  A 2.18 2.03 -23.7 0 0 17.69 30.85
  L 17.81 30.80
  A 0.25 0.25 0.0 0 0 17.94 30.47"
/>
<path stroke="#d498a4" vector-effect="non-scaling-stroke" d="
  M 47.96 37.58
  L 49.40 40.84
  A 0.25 0.25 0.0 0 0 49.72 40.97
  L 49.87 40.91
  A 2.19 2.01 -23.7 0 0 51.07 38.19
  L 51.05 38.15
  A 2.19 2.01 -23.7 0 0 48.24 37.19
  L 48.09 37.25
  A 0.25 0.25 0.0 0 0 47.96 37.58"
/>
<path stroke="#d498a4" vector-effect="non-scaling-stroke" d="
  M 45.8805 39.7105
  A 0.50 0.50 0.0 0 0 45.2165 39.4675
  L 27.8194 47.5430
  A 0.50 0.50 0.0 0 0 27.5764 48.2070
  L 28.1995 49.5495
  A 0.50 0.50 0.0 0 0 28.8635 49.7925
  L 46.2606 41.7170
  A 0.50 0.50 0.0 0 0 46.5036 41.0530
  L 45.8805 39.7105"
/>
<path stroke="#d498a4" vector-effect="non-scaling-stroke" d="
  M 26.10 51.66
  L 24.59 48.46
  A 0.26 0.26 0.0 0 0 24.24 48.34
  L 24.09 48.41
  A 2.19 2.02 -25.3 0 0 22.97 51.17
  L 22.98 51.19
  A 2.19 2.02 -25.3 0 0 25.82 52.08
  L 25.98 52.01
  A 0.26 0.26 0.0 0 0 26.10 51.66"
/>
</g>
<path fill="#581723" d="
  M 33.82 88.00
  L 33.04 88.00
  C 21.77 77.77 12.08 65.65 5.65 51.57
  Q 2.21 44.05 1.60 34.90
  C 0.54 18.98 11.21 5.66 26.49 2.10
  C 40.57 -1.18 55.22 5.59 62.14 18.80
  C 67.44 28.92 65.84 41.38 61.23 51.71
  C 55.09 65.51 44.93 77.84 33.82 88.00
  Z
  M 33.42 86.69
  Q 33.53 86.69 33.62 86.67
  Q 33.67 86.66 33.77 86.57
  C 48.66 72.79 67.48 49.07 63.77 27.46
  C 61.30 13.03 48.13 2.48 33.51 2.47
  C 18.89 2.45 5.70 12.97 3.19 27.40
  C -0.56 49.00 18.21 72.76 33.07 86.57
  Q 33.17 86.66 33.22 86.67
  Q 33.32 86.69 33.42 86.69
  Z"
/>
<path fill="#a83148" d="
  M 33.51 2.47
  C 48.13 2.48 61.30 13.03 63.77 27.46
  C 67.48 49.07 48.66 72.79 33.77 86.57
  Q 33.67 86.66 33.62 86.67
  Q 33.53 86.69 33.42 86.69
  Q 33.32 86.69 33.22 86.67
  Q 33.17 86.66 33.07 86.57
  C 18.21 72.76 -0.56 49.00 3.19 27.40
  C 5.70 12.97 18.89 2.45 33.51 2.47
  Z
  M 39.75 16.42
  L 41.28 19.50
  A 0.30 0.30 0.0 0 0 41.68 19.64
  L 41.85 19.55
  A 2.07 2.01 -26.4 0 0 42.81 16.83
  L 42.80 16.81
  A 2.07 2.01 -26.4 0 0 40.05 15.93
  L 39.88 16.02
  A 0.30 0.30 0.0 0 0 39.75 16.42
  Z
  M 37.6763 18.4753
  A 0.53 0.53 0.0 0 0 36.9720 18.2189
  L 19.6253 26.3078
  A 0.53 0.53 0.0 0 0 19.3689 27.0122
  L 19.9437 28.2447
  A 0.53 0.53 0.0 0 0 20.6480 28.5011
  L 37.9947 20.4122
  A 0.53 0.53 0.0 0 0 38.2511 19.7078
  L 37.6763 18.4753
  Z
  M 23.68 30.76
  Q 25.64 33.17 25.69 34.57
  Q 25.84 38.77 26.91 43.02
  A 1.55 1.55 0.0 0 0 29.07 44.05
  L 41.74 38.12
  A 0.27 0.27 0.0 0 0 41.81 37.68
  Q 39.78 35.73 39.66 32.83
  Q 39.39 26.56 39.11 24.63
  A 1.28 1.28 0.0 0 0 37.30 23.66
  L 23.86 29.94
  A 0.54 0.53 57.7 0 0 23.68 30.76
  Z
  M 17.94 30.47
  L 16.48 27.16
  A 0.25 0.25 0.0 0 0 16.16 27.03
  L 16.04 27.08
  A 2.18 2.03 -23.7 0 0 14.86 29.82
  L 14.88 29.87
  A 2.18 2.03 -23.7 0 0 17.69 30.85
  L 17.81 30.80
  A 0.25 0.25 0.0 0 0 17.94 30.47
  Z
  M 47.96 37.58
  L 49.40 40.84
  A 0.25 0.25 0.0 0 0 49.72 40.97
  L 49.87 40.91
  A 2.19 2.01 -23.7 0 0 51.07 38.19
  L 51.05 38.15
  A 2.19 2.01 -23.7 0 0 48.24 37.19
  L 48.09 37.25
  A 0.25 0.25 0.0 0 0 47.96 37.58
  Z
  M 45.8805 39.7105
  A 0.50 0.50 0.0 0 0 45.2165 39.4675
  L 27.8194 47.5430
  A 0.50 0.50 0.0 0 0 27.5764 48.2070
  L 28.1995 49.5495
  A 0.50 0.50 0.0 0 0 28.8635 49.7925
  L 46.2606 41.7170
  A 0.50 0.50 0.0 0 0 46.5036 41.0530
  L 45.8805 39.7105
  Z
  M 26.10 51.66
  L 24.59 48.46
  A 0.26 0.26 0.0 0 0 24.24 48.34
  L 24.09 48.41
  A 2.19 2.02 -25.3 0 0 22.97 51.17
  L 22.98 51.19
  A 2.19 2.02 -25.3 0 0 25.82 52.08
  L 25.98 52.01
  A 0.26 0.26 0.0 0 0 26.10 51.66
  Z"
/>
<path fill="#ffffff" d="
  M 39.75 16.42
  A 0.30 0.30 0.0 0 1 39.88 16.02
  L 40.05 15.93
  A 2.07 2.01 -26.4 0 1 42.80 16.81
  L 42.81 16.83
  A 2.07 2.01 -26.4 0 1 41.85 19.55
  L 41.68 19.64
  A 0.30 0.30 0.0 0 1 41.28 19.50
  L 39.75 16.42
  Z"
/>
<rect fill="#ffffff" x="-10.10" y="-1.21" transform="translate(28.81,23.36) rotate(-25.0)" width="20.20" height="2.42" rx="0.53"/>
<path fill="#ffffff" d="
  M 23.86 29.94
  L 37.30 23.66
  A 1.28 1.28 0.0 0 1 39.11 24.63
  Q 39.39 26.56 39.66 32.83
  Q 39.78 35.73 41.81 37.68
  A 0.27 0.27 0.0 0 1 41.74 38.12
  L 29.07 44.05
  A 1.55 1.55 0.0 0 1 26.91 43.02
  Q 25.84 38.77 25.69 34.57
  Q 25.64 33.17 23.68 30.76
  A 0.54 0.53 57.7 0 1 23.86 29.94
  Z"
/>
<path fill="#ffffff" d="
  M 17.94 30.47
  A 0.25 0.25 0.0 0 1 17.81 30.80
  L 17.69 30.85
  A 2.18 2.03 -23.7 0 1 14.88 29.87
  L 14.86 29.82
  A 2.18 2.03 -23.7 0 1 16.04 27.08
  L 16.16 27.03
  A 0.25 0.25 0.0 0 1 16.48 27.16
  L 17.94 30.47
  Z"
/>
<path fill="#ffffff" d="
  M 47.96 37.58
  A 0.25 0.25 0.0 0 1 48.09 37.25
  L 48.24 37.19
  A 2.19 2.01 -23.7 0 1 51.05 38.15
  L 51.07 38.19
  A 2.19 2.01 -23.7 0 1 49.87 40.91
  L 49.72 40.97
  A 0.25 0.25 0.0 0 1 49.40 40.84
  L 47.96 37.58
  Z"
/>
<rect fill="#ffffff" x="-10.09" y="-1.24" transform="translate(37.04,44.63) rotate(-24.9)" width="20.18" height="2.48" rx="0.50"/>
<path fill="#ffffff" d="
  M 26.10 51.66
  A 0.26 0.26 0.0 0 1 25.98 52.01
  L 25.82 52.08
  A 2.19 2.02 -25.3 0 1 22.98 51.19
  L 22.97 51.17
  A 2.19 2.02 -25.3 0 1 24.09 48.41
  L 24.24 48.34
  A 0.26 0.26 0.0 0 1 24.59 48.46
  L 26.10 51.66
  Z"
/>
</svg>
