<?xml version="1.0" encoding="UTF-8" standalone="no"?>
<!DOCTYPE svg PUBLIC "-//W3C//DTD SVG 1.1//EN" "http://www.w3.org/Graphics/SVG/1.1/DTD/svg11.dtd">
<svg xmlns="http://www.w3.org/2000/svg" version="1.1" viewBox="0.00 0.00 66.00 88.00">
<g stroke-width="2.00" fill="none" stroke-linecap="butt">
<path stroke="#802436" vector-effect="non-scaling-stroke" d="
  M 33.42 86.69
  Q 33.53 86.69 33.62 86.67
  Q 33.68 86.66 33.77 86.57
  C 45.16 76.08 56.18 62.05 61.67 47.44
  Q 63.86 41.61 64.22 34.09
  C 64.85 20.90 56.84 9.45 44.73 4.62
  Q 39.32 2.47 33.51 2.46
  Q 27.70 2.45 22.29 4.60
  C 10.17 9.40 2.13 20.83 2.73 34.02
  Q 3.08 41.55 5.26 47.38
  C 10.71 62.00 21.70 76.05 33.07 86.57
  Q 33.16 86.66 33.22 86.67
  Q 33.32 86.69 33.42 86.69"
/>
<path stroke="#d498a4" vector-effect="non-scaling-stroke" d="
  M 33.19 19.99
  Q 28.06 19.98 27.51 19.93
  A 1.36 1.35 71.3 0 1 26.50 19.43
  L 23.86 16.17
  A 0.56 0.56 0.0 0 0 23.03 16.13
  L 18.85 20.30
  A 0.88 0.88 0.0 0 0 18.85 21.54
  L 21.15 23.83
  A 0.68 0.68 0.0 0 0 22.11 23.83
  L 23.98 21.96
  A 0.45 0.44 -42.5 0 0 24.01 21.36
  Q 23.42 20.63 21.94 21.50
  A 0.43 0.43 0.0 0 1 21.37 20.88
  Q 22.20 19.70 22.36 19.63
  A 2.17 2.02 85.5 0 1 25.12 22.16
  Q 23.53 29.32 19.58 36.07
  A 1.15 1.15 0.0 0 0 19.52 37.12
  Q 23.50 45.97 24.63 47.86
  C 26.66 51.24 29.27 52.20 33.14 52.20
  C 37.00 52.21 39.62 51.26 41.65 47.89
  Q 42.79 46.00 46.80 37.17
  A 1.15 1.15 0.0 0 0 46.75 36.12
  Q 42.82 29.35 41.25 22.19
  A 2.17 2.02 -85.3 0 1 44.02 19.67
  Q 44.18 19.74 45.01 20.92
  A 0.43 0.43 0.0 0 1 44.44 21.54
  Q 42.96 20.66 42.37 21.39
  A 0.45 0.44 42.7 0 0 42.39 21.99
  L 44.26 23.87
  A 0.68 0.68 0.0 0 0 45.22 23.87
  L 47.53 21.59
  A 0.88 0.88 0.0 0 0 47.53 20.35
  L 43.36 16.16
  A 0.56 0.56 0.0 0 0 42.53 16.20
  L 39.88 19.45
  A 1.36 1.35 -71.1 0 1 38.87 19.95
  Q 38.32 20.00 33.19 19.99"
/>
<path stroke="#d498a4" vector-effect="non-scaling-stroke" d="
  M 37.16 45.41
  A 0.44 0.44 0.0 0 0 37.98 45.63
  L 42.69 37.47
  A 1.60 1.59 52.8 0 0 42.85 36.26
  L 39.02 22.11
  A 1.27 1.26 2.3 0 0 38.20 21.23
  L 37.91 21.18
  A 0.63 0.63 0.0 0 0 37.16 21.80
  L 37.16 45.41"
/>
<path stroke="#d498a4" vector-effect="non-scaling-stroke" d="
  M 29.13 45.33
  L 29.21 21.84
  A 0.63 0.62 84.6 0 0 28.46 21.22
  L 28.18 21.27
  A 1.26 1.25 -2.1 0 0 27.36 22.14
  L 23.50 36.21
  A 1.59 1.58 -52.6 0 0 23.66 37.41
  L 28.31 45.55
  A 0.44 0.44 0.0 0 0 29.13 45.33"
/>
<path stroke="#d498a4" vector-effect="non-scaling-stroke" d="
  M 32.66 21.80
  A 0.55 0.55 0.0 0 0 32.11 21.25
  L 30.77 21.25
  A 0.55 0.55 0.0 0 0 30.22 21.80
  L 30.22 46.92
  A 0.55 0.55 0.0 0 0 30.77 47.47
  L 32.11 47.47
  A 0.55 0.55 0.0 0 0 32.66 46.92
  L 32.66 21.80"
/>
<path stroke="#d498a4" vector-effect="non-scaling-stroke" d="
  M 36.12 21.95
  A 0.73 0.73 0.0 0 0 35.39 21.22
  L 34.41 21.22
  A 0.73 0.73 0.0 0 0 33.68 21.95
  L 33.68 46.73
  A 0.73 0.73 0.0 0 0 34.41 47.46
  L 35.39 47.46
  A 0.73 0.73 0.0 0 0 36.12 46.73
  L 36.12 21.95"
/>
</g>
<path fill="#581723" d="
  M 33.79 88.00
  L 33.04 88.00
  C 17.13 73.53 -4.67 46.26 3.08 22.97
  Q 5.60 15.40 11.69 9.77
  C 23.77 -1.39 43.87 -1.75 55.97 10.40
  C 80.29 34.84 52.80 70.78 33.79 88.00
  Z
  M 33.42 86.69
  Q 33.53 86.69 33.62 86.67
  Q 33.68 86.66 33.77 86.57
  C 45.16 76.08 56.18 62.05 61.67 47.44
  Q 63.86 41.61 64.22 34.09
  C 64.85 20.90 56.84 9.45 44.73 4.62
  Q 39.32 2.47 33.51 2.46
  Q 27.70 2.45 22.29 4.60
  C 10.17 9.40 2.13 20.83 2.73 34.02
  Q 3.08 41.55 5.26 47.38
  C 10.71 62.00 21.70 76.05 33.07 86.57
  Q 33.16 86.66 33.22 86.67
  Q 33.32 86.69 33.42 86.69
  Z"
/>
<path fill="#a83148" d="
  M 33.51 2.46
  Q 39.32 2.47 44.73 4.62
  C 56.84 9.45 64.85 20.90 64.22 34.09
  Q 63.86 41.61 61.67 47.44
  C 56.18 62.05 45.16 76.08 33.77 86.57
  Q 33.68 86.66 33.62 86.67
  Q 33.53 86.69 33.42 86.69
  Q 33.32 86.69 33.22 86.67
  Q 33.16 86.66 33.07 86.57
  C 21.70 76.05 10.71 62.00 5.26 47.38
  Q 3.08 41.55 2.73 34.02
  C 2.13 20.83 10.17 9.40 22.29 4.60
  Q 27.70 2.45 33.51 2.46
  Z
  M 33.19 19.99
  Q 28.06 19.98 27.51 19.93
  A 1.36 1.35 71.3 0 1 26.50 19.43
  L 23.86 16.17
  A 0.56 0.56 0.0 0 0 23.03 16.13
  L 18.85 20.30
  A 0.88 0.88 0.0 0 0 18.85 21.54
  L 21.15 23.83
  A 0.68 0.68 0.0 0 0 22.11 23.83
  L 23.98 21.96
  A 0.45 0.44 -42.5 0 0 24.01 21.36
  Q 23.42 20.63 21.94 21.50
  A 0.43 0.43 0.0 0 1 21.37 20.88
  Q 22.20 19.70 22.36 19.63
  A 2.17 2.02 85.5 0 1 25.12 22.16
  Q 23.53 29.32 19.58 36.07
  A 1.15 1.15 0.0 0 0 19.52 37.12
  Q 23.50 45.97 24.63 47.86
  C 26.66 51.24 29.27 52.20 33.14 52.20
  C 37.00 52.21 39.62 51.26 41.65 47.89
  Q 42.79 46.00 46.80 37.17
  A 1.15 1.15 0.0 0 0 46.75 36.12
  Q 42.82 29.35 41.25 22.19
  A 2.17 2.02 -85.3 0 1 44.02 19.67
  Q 44.18 19.74 45.01 20.92
  A 0.43 0.43 0.0 0 1 44.44 21.54
  Q 42.96 20.66 42.37 21.39
  A 0.45 0.44 42.7 0 0 42.39 21.99
  L 44.26 23.87
  A 0.68 0.68 0.0 0 0 45.22 23.87
  L 47.53 21.59
  A 0.88 0.88 0.0 0 0 47.53 20.35
  L 43.36 16.16
  A 0.56 0.56 0.0 0 0 42.53 16.20
  L 39.88 19.45
  A 1.36 1.35 -71.1 0 1 38.87 19.95
  Q 38.32 20.00 33.19 19.99
  Z"
/>
<path fill="#ffffff" d="
  M 33.14 52.20
  C 29.27 52.20 26.66 51.24 24.63 47.86
  Q 23.50 45.97 19.52 37.12
  A 1.15 1.15 0.0 0 1 19.58 36.07
  Q 23.53 29.32 25.12 22.16
  A 2.17 2.02 85.5 0 0 22.36 19.63
  Q 22.20 19.70 21.37 20.88
  A 0.43 0.43 0.0 0 0 21.94 21.50
  Q 23.42 20.63 24.01 21.36
  A 0.45 0.44 -42.5 0 1 23.98 21.96
  L 22.11 23.83
  A 0.68 0.68 0.0 0 1 21.15 23.83
  L 18.85 21.54
  A 0.88 0.88 0.0 0 1 18.85 20.30
  L 23.03 16.13
  A 0.56 0.56 0.0 0 1 23.86 16.17
  L 26.50 19.43
  A 1.36 1.35 71.3 0 0 27.51 19.93
  Q 28.06 19.98 33.19 19.99
  Q 38.32 20.00 38.87 19.95
  A 1.36 1.35 -71.1 0 0 39.88 19.45
  L 42.53 16.20
  A 0.56 0.56 0.0 0 1 43.36 16.16
  L 47.53 20.35
  A 0.88 0.88 0.0 0 1 47.53 21.59
  L 45.22 23.87
  A 0.68 0.68 0.0 0 1 44.26 23.87
  L 42.39 21.99
  A 0.45 0.44 42.7 0 1 42.37 21.39
  Q 42.96 20.66 44.44 21.54
  A 0.43 0.43 0.0 0 0 45.01 20.92
  Q 44.18 19.74 44.02 19.67
  A 2.17 2.02 -85.3 0 0 41.25 22.19
  Q 42.82 29.35 46.75 36.12
  A 1.15 1.15 0.0 0 1 46.80 37.17
  Q 42.79 46.00 41.65 47.89
  C 39.62 51.26 37.00 52.21 33.14 52.20
  Z
  M 37.16 45.41
  A 0.44 0.44 0.0 0 0 37.98 45.63
  L 42.69 37.47
  A 1.60 1.59 52.8 0 0 42.85 36.26
  L 39.02 22.11
  A 1.27 1.26 2.3 0 0 38.20 21.23
  L 37.91 21.18
  A 0.63 0.63 0.0 0 0 37.16 21.80
  L 37.16 45.41
  Z
  M 29.13 45.33
  L 29.21 21.84
  A 0.63 0.62 84.6 0 0 28.46 21.22
  L 28.18 21.27
  A 1.26 1.25 -2.1 0 0 27.36 22.14
  L 23.50 36.21
  A 1.59 1.58 -52.6 0 0 23.66 37.41
  L 28.31 45.55
  A 0.44 0.44 0.0 0 0 29.13 45.33
  Z
  M 32.66 21.80
  A 0.55 0.55 0.0 0 0 32.11 21.25
  L 30.77 21.25
  A 0.55 0.55 0.0 0 0 30.22 21.80
  L 30.22 46.92
  A 0.55 0.55 0.0 0 0 30.77 47.47
  L 32.11 47.47
  A 0.55 0.55 0.0 0 0 32.66 46.92
  L 32.66 21.80
  Z
  M 36.12 21.95
  A 0.73 0.73 0.0 0 0 35.39 21.22
  L 34.41 21.22
  A 0.73 0.73 0.0 0 0 33.68 21.95
  L 33.68 46.73
  A 0.73 0.73 0.0 0 0 34.41 47.46
  L 35.39 47.46
  A 0.73 0.73 0.0 0 0 36.12 46.73
  L 36.12 21.95
  Z"
/>
<path fill="#a83148" d="
  M 37.16 45.41
  L 37.16 21.80
  A 0.63 0.63 0.0 0 1 37.91 21.18
  L 38.20 21.23
  A 1.27 1.26 2.3 0 1 39.02 22.11
  L 42.85 36.26
  A 1.60 1.59 52.8 0 1 42.69 37.47
  L 37.98 45.63
  A 0.44 0.44 0.0 0 1 37.16 45.41
  Z"
/>
<path fill="#a83148" d="
  M 29.13 45.33
  A 0.44 0.44 0.0 0 1 28.31 45.55
  L 23.66 37.41
  A 1.59 1.58 -52.6 0 1 23.50 36.21
  L 27.36 22.14
  A 1.26 1.25 -2.1 0 1 28.18 21.27
  L 28.46 21.22
  A 0.63 0.62 84.6 0 1 29.21 21.84
  L 29.13 45.33
  Z"
/>
<rect fill="#a83148" x="30.22" y="21.25" width="2.44" height="26.22" rx="0.55"/>
<rect fill="#a83148" x="33.68" y="21.22" width="2.44" height="26.24" rx="0.73"/>
</svg>
