<?xml version="1.0" encoding="UTF-8" standalone="no"?>
<!DOCTYPE svg PUBLIC "-//W3C//DTD SVG 1.1//EN" "http://www.w3.org/Graphics/SVG/1.1/DTD/svg11.dtd">
<svg xmlns="http://www.w3.org/2000/svg" version="1.1" viewBox="0.00 0.00 66.00 88.00">
<g stroke-width="2.00" fill="none" stroke-linecap="butt">
<path stroke="#425a74" vector-effect="non-scaling-stroke" d="
  M 33.41 86.69
  Q 33.52 86.69 33.62 86.67
  Q 33.70 86.66 33.78 86.59
  Q 48.56 72.85 57.71 56.24
  C 64.55 43.82 67.57 28.06 59.15 16.07
  C 53.23 7.64 44.12 2.51 33.53 2.50
  C 22.95 2.48 13.83 7.58 7.88 16.00
  C -0.58 27.96 2.39 43.73 9.20 56.17
  Q 18.30 72.81 33.04 86.59
  Q 33.12 86.66 33.20 86.67
  Q 33.30 86.69 33.41 86.69"
/>
<path stroke="#acbbcc" vector-effect="non-scaling-stroke" d="
  M 26.66 34.59
  Q 27.02 34.91 27.06 34.91
  A 0.78 0.77 -60.4 0 0 27.52 34.78
  L 33.16 30.92
  A 0.58 0.58 0.0 0 1 33.99 31.11
  Q 35.87 34.45 38.63 33.62
  C 45.39 31.60 49.68 23.33 50.83 16.85
  A 0.28 0.28 0.0 0 0 50.41 16.56
  Q 44.68 20.08 39.03 21.40
  A 2.14 2.14 0.0 0 1 37.64 21.26
  C 34.65 19.91 32.13 14.46 28.29 16.01
  Q 24.90 17.38 20.44 20.82
  A 0.35 0.35 0.0 0 1 19.91 20.70
  L 18.55 17.76
  A 0.58 0.57 64.3 0 0 17.79 17.49
  L 16.12 18.27
  A 0.59 0.58 65.4 0 0 15.84 19.04
  L 31.11 51.74
  A 0.60 0.59 -25.0 0 0 31.90 52.02
  L 33.61 51.22
  A 0.55 0.55 0.0 0 0 33.88 50.49
  L 26.51 34.71
  A 0.10 0.10 0.0 0 1 26.66 34.59"
/>
<path stroke="#acbbcc" vector-effect="non-scaling-stroke" d="
  M 21.52 24.20
  L 25.21 31.97
  A 0.13 0.13 0.0 0 0 25.38 32.03
  L 25.46 32.00
  A 4.26 3.65 64.6 0 0 26.93 26.59
  L 26.78 26.28
  A 4.26 3.65 64.6 0 0 21.66 24.00
  L 21.58 24.03
  A 0.13 0.13 0.0 0 0 21.52 24.20"
/>
</g>
<path fill="#2a3d50" d="
  M 33.78 88.00
  L 33.04 88.00
  C 22.18 78.19 12.07 65.67 5.75 51.79
  Q 0.15 39.52 2.08 26.61
  Q 2.86 21.44 6.59 15.83
  C 15.42 2.59 32.32 -2.50 47.01 4.31
  C 58.77 9.75 65.99 21.26 65.44 34.27
  Q 65.11 41.90 62.34 49.05
  C 56.61 63.81 45.45 77.43 33.78 88.00
  Z
  M 33.41 86.69
  Q 33.52 86.69 33.62 86.67
  Q 33.70 86.66 33.78 86.59
  Q 48.56 72.85 57.71 56.24
  C 64.55 43.82 67.57 28.06 59.15 16.07
  C 53.23 7.64 44.12 2.51 33.53 2.50
  C 22.95 2.48 13.83 7.58 7.88 16.00
  C -0.58 27.96 2.39 43.73 9.20 56.17
  Q 18.30 72.81 33.04 86.59
  Q 33.12 86.66 33.20 86.67
  Q 33.30 86.69 33.41 86.69
  Z"
/>
<path fill="#597698" d="
  M 33.53 2.50
  C 44.12 2.51 53.23 7.64 59.15 16.07
  C 67.57 28.06 64.55 43.82 57.71 56.24
  Q 48.56 72.85 33.78 86.59
  Q 33.70 86.66 33.62 86.67
  Q 33.52 86.69 33.41 86.69
  Q 33.30 86.69 33.20 86.67
  Q 33.12 86.66 33.04 86.59
  Q 18.30 72.81 9.20 56.17
  C 2.39 43.73 -0.58 27.96 7.88 16.00
  C 13.83 7.58 22.95 2.48 33.53 2.50
  Z
  M 26.66 34.59
  Q 27.02 34.91 27.06 34.91
  A 0.78 0.77 -60.4 0 0 27.52 34.78
  L 33.16 30.92
  A 0.58 0.58 0.0 0 1 33.99 31.11
  Q 35.87 34.45 38.63 33.62
  C 45.39 31.60 49.68 23.33 50.83 16.85
  A 0.28 0.28 0.0 0 0 50.41 16.56
  Q 44.68 20.08 39.03 21.40
  A 2.14 2.14 0.0 0 1 37.64 21.26
  C 34.65 19.91 32.13 14.46 28.29 16.01
  Q 24.90 17.38 20.44 20.82
  A 0.35 0.35 0.0 0 1 19.91 20.70
  L 18.55 17.76
  A 0.58 0.57 64.3 0 0 17.79 17.49
  L 16.12 18.27
  A 0.59 0.58 65.4 0 0 15.84 19.04
  L 31.11 51.74
  A 0.60 0.59 -25.0 0 0 31.90 52.02
  L 33.61 51.22
  A 0.55 0.55 0.0 0 0 33.88 50.49
  L 26.51 34.71
  A 0.10 0.10 0.0 0 1 26.66 34.59
  Z"
/>
<path fill="#ffffff" d="
  M 26.51 34.71
  L 33.88 50.49
  A 0.55 0.55 0.0 0 1 33.61 51.22
  L 31.90 52.02
  A 0.60 0.59 -25.0 0 1 31.11 51.74
  L 15.84 19.04
  A 0.59 0.58 65.4 0 1 16.12 18.27
  L 17.79 17.49
  A 0.58 0.57 64.3 0 1 18.55 17.76
  L 19.91 20.70
  A 0.35 0.35 0.0 0 0 20.44 20.82
  Q 24.90 17.38 28.29 16.01
  C 32.13 14.46 34.65 19.91 37.64 21.26
  A 2.14 2.14 0.0 0 0 39.03 21.40
  Q 44.68 20.08 50.41 16.56
  A 0.28 0.28 0.0 0 1 50.83 16.85
  C 49.68 23.33 45.39 31.60 38.63 33.62
  Q 35.87 34.45 33.99 31.11
  A 0.58 0.58 0.0 0 0 33.16 30.92
  L 27.52 34.78
  A 0.78 0.77 -60.4 0 1 27.06 34.91
  Q 27.02 34.91 26.66 34.59
  A 0.10 0.10 0.0 0 0 26.51 34.71
  Z
  M 21.52 24.20
  L 25.21 31.97
  A 0.13 0.13 0.0 0 0 25.38 32.03
  L 25.46 32.00
  A 4.26 3.65 64.6 0 0 26.93 26.59
  L 26.78 26.28
  A 4.26 3.65 64.6 0 0 21.66 24.00
  L 21.58 24.03
  A 0.13 0.13 0.0 0 0 21.52 24.20
  Z"
/>
<path fill="#597698" d="
  M 21.52 24.20
  A 0.13 0.13 0.0 0 1 21.58 24.03
  L 21.66 24.00
  A 4.26 3.65 64.6 0 1 26.78 26.28
  L 26.93 26.59
  A 4.26 3.65 64.6 0 1 25.46 32.00
  L 25.38 32.03
  A 0.13 0.13 0.0 0 1 25.21 31.97
  L 21.52 24.20
  Z"
/>
</svg>
