<?xml version="1.0" encoding="UTF-8" standalone="no"?>
<!DOCTYPE svg PUBLIC "-//W3C//DTD SVG 1.1//EN" "http://www.w3.org/Graphics/SVG/1.1/DTD/svg11.dtd">
<svg xmlns="http://www.w3.org/2000/svg" version="1.1" viewBox="0.00 0.00 66.00 88.00">
<g stroke-width="2.00" fill="none" stroke-linecap="butt">
<path stroke="#802436" vector-effect="non-scaling-stroke" d="
  M 33.42 86.69
  Q 33.52 86.69 33.62 86.67
  Q 33.71 86.65 33.79 86.57
  C 46.16 74.81 57.40 60.80 62.54 44.75
  C 69.20 23.97 56.53 3.71 34.50 2.52
  Q 33.58 2.47 33.51 2.47
  Q 33.44 2.47 32.52 2.52
  C 10.48 3.66 -2.23 23.90 4.39 44.69
  C 9.49 60.75 20.71 74.78 33.05 86.57
  Q 33.13 86.65 33.22 86.67
  Q 33.32 86.69 33.42 86.69"
/>
<path stroke="#d498a4" vector-effect="non-scaling-stroke" d="
  M 32.55 52.06
  C 36.94 52.03 41.89 49.37 45.28 46.68
  A 2.29 2.24 -4.9 0 0 45.82 46.06
  C 46.93 44.12 50.05 42.70 48.74 39.85
  A 0.89 0.88 -37.9 0 1 48.86 38.92
  C 49.92 37.59 50.89 36.98 49.84 34.97
  Q 49.35 34.02 47.21 33.64
  C 44.48 33.16 42.66 32.08 40.91 30.06
  Q 38.66 27.49 36.38 26.75
  A 0.38 0.38 0.0 0 1 36.29 26.07
  Q 36.62 25.85 38.10 24.99
  C 40.83 23.41 43.99 16.51 38.66 15.80
  A 2.89 2.70 -75.7 0 0 35.72 17.68
  Q 35.36 18.64 35.17 21.18
  Q 35.02 23.04 33.48 25.22
  Q 32.90 26.03 32.38 26.04
  Q 31.87 26.04 31.28 25.24
  Q 29.71 23.07 29.54 21.22
  Q 29.32 18.68 28.94 17.72
  A 2.89 2.70 75.0 0 0 25.98 15.88
  C 20.66 16.66 23.91 23.52 26.66 25.06
  Q 28.15 25.90 28.48 26.12
  A 0.38 0.38 0.0 0 1 28.40 26.80
  Q 26.13 27.57 23.91 30.17
  C 22.19 32.21 20.38 33.31 17.66 33.83
  Q 15.52 34.23 15.04 35.19
  C 14.02 37.21 15.00 37.81 16.07 39.13
  A 0.89 0.88 37.2 0 1 16.21 40.06
  C 14.93 42.92 18.07 44.30 19.20 46.23
  A 2.29 2.24 4.1 0 0 19.75 46.84
  C 23.18 49.49 28.16 52.09 32.55 52.06"
/>
<path stroke="#d498a4" vector-effect="non-scaling-stroke" d="
  M 31.97 47.79
  Q 36.07 47.79 37.68 43.08
  A 1.34 1.33 -5.1 0 1 38.31 42.34
  Q 39.86 41.51 40.30 41.23
  C 44.30 38.72 40.56 32.52 37.65 34.40
  A 0.69 0.68 58.7 0 0 37.43 35.32
  L 38.98 38.00
  A 0.92 0.92 0.0 0 1 38.35 39.37
  C 35.17 39.98 34.38 37.12 31.97 37.12
  C 29.56 37.13 28.77 39.98 25.59 39.37
  A 0.92 0.92 0.0 0 1 24.96 38.00
  L 26.51 35.32
  A 0.69 0.68 -58.8 0 0 26.29 34.40
  C 23.37 32.52 19.64 38.73 23.64 41.23
  Q 24.08 41.51 25.63 42.34
  A 1.34 1.33 5.1 0 1 26.26 43.08
  Q 27.87 47.79 31.97 47.79"
/>
<path stroke="#d498a4" vector-effect="non-scaling-stroke" d="
  M 31.98 45.07
  Q 34.06 45.06 34.77 42.71
  A 0.82 0.81 28.8 0 0 34.51 41.84
  Q 32.89 40.48 31.96 40.48
  Q 31.03 40.49 29.42 41.86
  A 0.82 0.81 -29.3 0 0 29.17 42.73
  Q 29.91 45.08 31.98 45.07"
/>
</g>
<path fill="#581723" d="
  M 33.80 88.00
  L 33.04 88.00
  C 21.78 77.77 12.07 65.64 5.64 51.57
  Q 2.21 44.04 1.60 34.89
  C 0.54 18.97 11.20 5.68 26.50 2.10
  C 40.94 -1.27 55.91 5.94 62.58 19.69
  C 66.92 28.64 65.94 39.77 62.41 48.85
  C 56.62 63.75 45.56 77.30 33.80 88.00
  Z
  M 33.42 86.69
  Q 33.52 86.69 33.62 86.67
  Q 33.71 86.65 33.79 86.57
  C 46.16 74.81 57.40 60.80 62.54 44.75
  C 69.20 23.97 56.53 3.71 34.50 2.52
  Q 33.58 2.47 33.51 2.47
  Q 33.44 2.47 32.52 2.52
  C 10.48 3.66 -2.23 23.90 4.39 44.69
  C 9.49 60.75 20.71 74.78 33.05 86.57
  Q 33.13 86.65 33.22 86.67
  Q 33.32 86.69 33.42 86.69
  Z"
/>
<path fill="#a83148" d="
  M 33.51 2.47
  Q 33.58 2.47 34.50 2.52
  C 56.53 3.71 69.20 23.97 62.54 44.75
  C 57.40 60.80 46.16 74.81 33.79 86.57
  Q 33.71 86.65 33.62 86.67
  Q 33.52 86.69 33.42 86.69
  Q 33.32 86.69 33.22 86.67
  Q 33.13 86.65 33.05 86.57
  C 20.71 74.78 9.49 60.75 4.39 44.69
  C -2.23 23.90 10.48 3.66 32.52 2.52
  Q 33.44 2.47 33.51 2.47
  Z
  M 32.55 52.06
  C 36.94 52.03 41.89 49.37 45.28 46.68
  A 2.29 2.24 -4.9 0 0 45.82 46.06
  C 46.93 44.12 50.05 42.70 48.74 39.85
  A 0.89 0.88 -37.9 0 1 48.86 38.92
  C 49.92 37.59 50.89 36.98 49.84 34.97
  Q 49.35 34.02 47.21 33.64
  C 44.48 33.16 42.66 32.08 40.91 30.06
  Q 38.66 27.49 36.38 26.75
  A 0.38 0.38 0.0 0 1 36.29 26.07
  Q 36.62 25.85 38.10 24.99
  C 40.83 23.41 43.99 16.51 38.66 15.80
  A 2.89 2.70 -75.7 0 0 35.72 17.68
  Q 35.36 18.64 35.17 21.18
  Q 35.02 23.04 33.48 25.22
  Q 32.90 26.03 32.38 26.04
  Q 31.87 26.04 31.28 25.24
  Q 29.71 23.07 29.54 21.22
  Q 29.32 18.68 28.94 17.72
  A 2.89 2.70 75.0 0 0 25.98 15.88
  C 20.66 16.66 23.91 23.52 26.66 25.06
  Q 28.15 25.90 28.48 26.12
  A 0.38 0.38 0.0 0 1 28.40 26.80
  Q 26.13 27.57 23.91 30.17
  C 22.19 32.21 20.38 33.31 17.66 33.83
  Q 15.52 34.23 15.04 35.19
  C 14.02 37.21 15.00 37.81 16.07 39.13
  A 0.89 0.88 37.2 0 1 16.21 40.06
  C 14.93 42.92 18.07 44.30 19.20 46.23
  A 2.29 2.24 4.1 0 0 19.75 46.84
  C 23.18 49.49 28.16 52.09 32.55 52.06
  Z"
/>
<path fill="#ffffff" d="
  M 32.38 26.04
  Q 32.90 26.03 33.48 25.22
  Q 35.02 23.04 35.17 21.18
  Q 35.36 18.64 35.72 17.68
  A 2.89 2.70 -75.7 0 1 38.66 15.80
  C 43.99 16.51 40.83 23.41 38.10 24.99
  Q 36.62 25.85 36.29 26.07
  A 0.38 0.38 0.0 0 0 36.38 26.75
  Q 38.66 27.49 40.91 30.06
  C 42.66 32.08 44.48 33.16 47.21 33.64
  Q 49.35 34.02 49.84 34.97
  C 50.89 36.98 49.92 37.59 48.86 38.92
  A 0.89 0.88 -37.9 0 0 48.74 39.85
  C 50.05 42.70 46.93 44.12 45.82 46.06
  A 2.29 2.24 -4.9 0 1 45.28 46.68
  C 41.89 49.37 36.94 52.03 32.55 52.06
  C 28.16 52.09 23.18 49.49 19.75 46.84
  A 2.29 2.24 4.1 0 1 19.20 46.23
  C 18.07 44.30 14.93 42.92 16.21 40.06
  A 0.89 0.88 37.2 0 0 16.07 39.13
  C 15.00 37.81 14.02 37.21 15.04 35.19
  Q 15.52 34.23 17.66 33.83
  C 20.38 33.31 22.19 32.21 23.91 30.17
  Q 26.13 27.57 28.40 26.80
  A 0.38 0.38 0.0 0 0 28.48 26.12
  Q 28.15 25.90 26.66 25.06
  C 23.91 23.52 20.66 16.66 25.98 15.88
  A 2.89 2.70 75.0 0 1 28.94 17.72
  Q 29.32 18.68 29.54 21.22
  Q 29.71 23.07 31.28 25.24
  Q 31.87 26.04 32.38 26.04
  Z
  M 31.97 47.79
  Q 36.07 47.79 37.68 43.08
  A 1.34 1.33 -5.1 0 1 38.31 42.34
  Q 39.86 41.51 40.30 41.23
  C 44.30 38.72 40.56 32.52 37.65 34.40
  A 0.69 0.68 58.7 0 0 37.43 35.32
  L 38.98 38.00
  A 0.92 0.92 0.0 0 1 38.35 39.37
  C 35.17 39.98 34.38 37.12 31.97 37.12
  C 29.56 37.13 28.77 39.98 25.59 39.37
  A 0.92 0.92 0.0 0 1 24.96 38.00
  L 26.51 35.32
  A 0.69 0.68 -58.8 0 0 26.29 34.40
  C 23.37 32.52 19.64 38.73 23.64 41.23
  Q 24.08 41.51 25.63 42.34
  A 1.34 1.33 5.1 0 1 26.26 43.08
  Q 27.87 47.79 31.97 47.79
  Z"
/>
<path fill="#a83148" d="
  M 31.97 37.12
  C 34.38 37.12 35.17 39.98 38.35 39.37
  A 0.92 0.92 0.0 0 0 38.98 38.00
  L 37.43 35.32
  A 0.69 0.68 58.7 0 1 37.65 34.40
  C 40.56 32.52 44.30 38.72 40.30 41.23
  Q 39.86 41.51 38.31 42.34
  A 1.34 1.33 -5.1 0 0 37.68 43.08
  Q 36.07 47.79 31.97 47.79
  Q 27.87 47.79 26.26 43.08
  A 1.34 1.33 5.1 0 0 25.63 42.34
  Q 24.08 41.51 23.64 41.23
  C 19.64 38.73 23.37 32.52 26.29 34.40
  A 0.69 0.68 -58.8 0 1 26.51 35.32
  L 24.96 38.00
  A 0.92 0.92 0.0 0 0 25.59 39.37
  C 28.77 39.98 29.56 37.13 31.97 37.12
  Z
  M 31.98 45.07
  Q 34.06 45.06 34.77 42.71
  A 0.82 0.81 28.8 0 0 34.51 41.84
  Q 32.89 40.48 31.96 40.48
  Q 31.03 40.49 29.42 41.86
  A 0.82 0.81 -29.3 0 0 29.17 42.73
  Q 29.91 45.08 31.98 45.07
  Z"
/>
<path fill="#ffffff" d="
  M 31.96 40.48
  Q 32.89 40.48 34.51 41.84
  A 0.82 0.81 28.8 0 1 34.77 42.71
  Q 34.06 45.06 31.98 45.07
  Q 29.91 45.08 29.17 42.73
  A 0.82 0.81 -29.3 0 1 29.42 41.86
  Q 31.03 40.49 31.96 40.48
  Z"
/>
</svg>
