<?xml version="1.0" encoding="UTF-8" standalone="no"?>
<!DOCTYPE svg PUBLIC "-//W3C//DTD SVG 1.1//EN" "http://www.w3.org/Graphics/SVG/1.1/DTD/svg11.dtd">
<svg xmlns="http://www.w3.org/2000/svg" version="1.1" viewBox="0.00 0.00 66.00 88.00">
<g stroke-width="2.00" fill="none" stroke-linecap="butt">
<path stroke="#7e5666" vector-effect="non-scaling-stroke" d="
  M 33.41 86.70
  Q 33.52 86.70 33.62 86.68
  Q 33.68 86.66 33.78 86.57
  Q 47.34 74.00 56.37 58.64
  C 65.26 43.51 68.90 24.66 55.05 11.22
  C 49.36 5.69 41.64 2.47 33.53 2.46
  C 25.42 2.45 17.69 5.65 11.98 11.16
  C -1.91 24.56 1.67 43.42 10.52 58.57
  Q 19.51 73.96 33.03 86.57
  Q 33.13 86.66 33.19 86.68
  Q 33.29 86.70 33.41 86.70"
/>
<path stroke="#d3b9c3" vector-effect="non-scaling-stroke" d="
  M 29.71 19.30
  C 28.45 22.86 30.95 26.23 34.74 26.43
  A 0.57 0.57 0.0 0 0 35.33 25.76
  Q 34.90 23.37 35.60 21.39
  Q 36.31 19.41 38.14 17.82
  A 0.57 0.57 0.0 0 0 38.10 16.93
  C 35.03 14.70 30.97 15.74 29.71 19.30"
/>
<path stroke="#d3b9c3" vector-effect="non-scaling-stroke" d="
  M 23.10 19.67
  L 22.77 19.49
  A 0.98 0.98 0.0 0 0 21.33 20.58
  L 21.82 22.53
  A 0.97 0.95 59.5 0 1 21.60 23.42
  Q 17.49 27.95 17.52 34.33
  A 0.59 0.58 15.0 0 0 17.82 34.84
  L 18.17 35.05
  A 0.70 0.70 0.0 0 0 19.22 34.46
  Q 19.37 29.25 22.33 25.16
  A 0.66 0.65 -56.6 0 1 23.18 24.98
  L 23.45 25.14
  A 0.30 0.30 0.0 0 1 23.56 25.55
  L 21.11 29.88
  A 0.91 0.90 -55.7 0 0 21.32 31.03
  L 21.35 31.05
  A 0.88 0.88 0.0 0 0 22.58 30.90
  Q 24.29 28.72 24.66 27.46
  A 0.61 0.61 0.0 0 1 25.37 27.04
  Q 27.03 27.41 27.58 26.79
  Q 28.12 26.20 27.45 24.74
  Q 26.32 22.29 26.58 19.68
  A 1.26 1.26 0.0 0 0 24.23 18.93
  L 23.93 19.45
  A 0.61 0.60 29.9 0 1 23.10 19.67"
/>
<path stroke="#d3b9c3" vector-effect="non-scaling-stroke" d="
  M 43.47 18.68
  C 39.72 18.50 37.23 21.85 38.12 25.52
  A 0.57 0.57 0.0 0 0 38.93 25.89
  Q 41.09 24.80 43.17 24.90
  Q 45.26 25.00 47.30 26.29
  A 0.57 0.57 0.0 0 0 48.14 26.00
  C 49.38 22.43 47.23 18.86 43.47 18.68"
/>
<path stroke="#d3b9c3" vector-effect="non-scaling-stroke" d="
  M 48.17 32.93
  A 5.35 5.35 0.0 0 0 42.82 27.58
  A 5.35 5.35 0.0 0 0 37.47 32.93
  A 5.35 5.35 0.0 0 0 42.82 38.28
  A 5.35 5.35 0.0 0 0 48.17 32.93"
/>
<path stroke="#d3b9c3" vector-effect="non-scaling-stroke" d="
  M 38.74 39.83
  L 37.68 39.22
  A 0.91 0.90 -31.5 0 0 37.16 39.10
  C 32.83 39.50 31.73 35.82 28.18 34.62
  Q 25.76 33.81 24.96 34.01
  Q 19.74 35.36 20.05 40.82
  A 0.71 0.71 0.0 0 0 21.43 41.02
  Q 21.84 39.82 21.98 38.98
  C 22.48 35.95 25.58 35.46 28.09 36.71
  C 31.42 38.36 33.03 41.98 38.63 40.59
  A 0.41 0.41 0.0 0 0 38.74 39.83"
/>
<path stroke="#d3b9c3" vector-effect="non-scaling-stroke" d="
  M 31.91 47.05
  A 5.30 5.30 0.0 0 0 26.61 41.75
  A 5.30 5.30 0.0 0 0 21.31 47.05
  A 5.30 5.30 0.0 0 0 26.61 52.35
  A 5.30 5.30 0.0 0 0 31.91 47.05"
/>
<path stroke="#d3b9c3" vector-effect="non-scaling-stroke" d="
  M 39.55 46.49
  Q 39.56 46.41 39.76 45.70
  Q 39.92 45.15 39.42 44.47
  Q 38.88 43.73 37.92 44.29
  A 0.65 0.65 0.0 0 1 37.03 44.05
  Q 36.83 43.70 36.18 43.39
  A 1.21 1.21 0.0 0 0 34.48 44.79
  Q 35.22 47.62 34.10 50.48
  A 1.32 1.31 -3.2 0 0 35.94 52.12
  Q 36.75 51.69 37.61 50.64
  A 0.85 0.84 -63.4 0 1 38.47 50.35
  Q 41.07 50.98 44.53 50.68
  A 0.79 0.79 0.0 0 0 44.65 49.13
  Q 43.80 48.92 41.63 48.88
  A 0.27 0.27 0.0 0 1 41.55 48.36
  Q 44.15 47.49 46.76 45.00
  A 1.42 1.41 -34.0 0 0 47.08 43.38
  L 47.04 43.31
  A 0.68 0.68 0.0 0 0 45.94 43.11
  Q 43.10 45.95 40.20 47.00
  A 0.49 0.48 82.9 0 1 39.55 46.49"
/>
</g>
<path fill="#553944" d="
  M 33.79 88.00
  L 33.04 88.00
  C 22.21 78.22 11.92 65.53 5.75 51.76
  Q 2.14 43.71 1.56 34.97
  C 0.25 15.49 17.05 -0.51 36.67 1.49
  C 53.37 3.19 66.02 17.10 65.44 33.91
  Q 65.17 41.70 62.41 48.85
  C 56.63 63.75 45.55 77.33 33.79 88.00
  Z
  M 33.41 86.70
  Q 33.52 86.70 33.62 86.68
  Q 33.68 86.66 33.78 86.57
  Q 47.34 74.00 56.37 58.64
  C 65.26 43.51 68.90 24.66 55.05 11.22
  C 49.36 5.69 41.64 2.47 33.53 2.46
  C 25.42 2.45 17.69 5.65 11.98 11.16
  C -1.91 24.56 1.67 43.42 10.52 58.57
  Q 19.51 73.96 33.03 86.57
  Q 33.13 86.66 33.19 86.68
  Q 33.29 86.70 33.41 86.70
  Z"
/>
<path fill="#a77387" d="
  M 33.53 2.46
  C 41.64 2.47 49.36 5.69 55.05 11.22
  C 68.90 24.66 65.26 43.51 56.37 58.64
  Q 47.34 74.00 33.78 86.57
  Q 33.68 86.66 33.62 86.68
  Q 33.52 86.70 33.41 86.70
  Q 33.29 86.70 33.19 86.68
  Q 33.13 86.66 33.03 86.57
  Q 19.51 73.96 10.52 58.57
  C 1.67 43.42 -1.91 24.56 11.98 11.16
  C 17.69 5.65 25.42 2.45 33.53 2.46
  Z
  M 29.71 19.30
  C 28.45 22.86 30.95 26.23 34.74 26.43
  A 0.57 0.57 0.0 0 0 35.33 25.76
  Q 34.90 23.37 35.60 21.39
  Q 36.31 19.41 38.14 17.82
  A 0.57 0.57 0.0 0 0 38.10 16.93
  C 35.03 14.70 30.97 15.74 29.71 19.30
  Z
  M 23.10 19.67
  L 22.77 19.49
  A 0.98 0.98 0.0 0 0 21.33 20.58
  L 21.82 22.53
  A 0.97 0.95 59.5 0 1 21.60 23.42
  Q 17.49 27.95 17.52 34.33
  A 0.59 0.58 15.0 0 0 17.82 34.84
  L 18.17 35.05
  A 0.70 0.70 0.0 0 0 19.22 34.46
  Q 19.37 29.25 22.33 25.16
  A 0.66 0.65 -56.6 0 1 23.18 24.98
  L 23.45 25.14
  A 0.30 0.30 0.0 0 1 23.56 25.55
  L 21.11 29.88
  A 0.91 0.90 -55.7 0 0 21.32 31.03
  L 21.35 31.05
  A 0.88 0.88 0.0 0 0 22.58 30.90
  Q 24.29 28.72 24.66 27.46
  A 0.61 0.61 0.0 0 1 25.37 27.04
  Q 27.03 27.41 27.58 26.79
  Q 28.12 26.20 27.45 24.74
  Q 26.32 22.29 26.58 19.68
  A 1.26 1.26 0.0 0 0 24.23 18.93
  L 23.93 19.45
  A 0.61 0.60 29.9 0 1 23.10 19.67
  Z
  M 43.47 18.68
  C 39.72 18.50 37.23 21.85 38.12 25.52
  A 0.57 0.57 0.0 0 0 38.93 25.89
  Q 41.09 24.80 43.17 24.90
  Q 45.26 25.00 47.30 26.29
  A 0.57 0.57 0.0 0 0 48.14 26.00
  C 49.38 22.43 47.23 18.86 43.47 18.68
  Z
  M 48.17 32.93
  A 5.35 5.35 0.0 0 0 42.82 27.58
  A 5.35 5.35 0.0 0 0 37.47 32.93
  A 5.35 5.35 0.0 0 0 42.82 38.28
  A 5.35 5.35 0.0 0 0 48.17 32.93
  Z
  M 38.74 39.83
  L 37.68 39.22
  A 0.91 0.90 -31.5 0 0 37.16 39.10
  C 32.83 39.50 31.73 35.82 28.18 34.62
  Q 25.76 33.81 24.96 34.01
  Q 19.74 35.36 20.05 40.82
  A 0.71 0.71 0.0 0 0 21.43 41.02
  Q 21.84 39.82 21.98 38.98
  C 22.48 35.95 25.58 35.46 28.09 36.71
  C 31.42 38.36 33.03 41.98 38.63 40.59
  A 0.41 0.41 0.0 0 0 38.74 39.83
  Z
  M 31.91 47.05
  A 5.30 5.30 0.0 0 0 26.61 41.75
  A 5.30 5.30 0.0 0 0 21.31 47.05
  A 5.30 5.30 0.0 0 0 26.61 52.35
  A 5.30 5.30 0.0 0 0 31.91 47.05
  Z
  M 39.55 46.49
  Q 39.56 46.41 39.76 45.70
  Q 39.92 45.15 39.42 44.47
  Q 38.88 43.73 37.92 44.29
  A 0.65 0.65 0.0 0 1 37.03 44.05
  Q 36.83 43.70 36.18 43.39
  A 1.21 1.21 0.0 0 0 34.48 44.79
  Q 35.22 47.62 34.10 50.48
  A 1.32 1.31 -3.2 0 0 35.94 52.12
  Q 36.75 51.69 37.61 50.64
  A 0.85 0.84 -63.4 0 1 38.47 50.35
  Q 41.07 50.98 44.53 50.68
  A 0.79 0.79 0.0 0 0 44.65 49.13
  Q 43.80 48.92 41.63 48.88
  A 0.27 0.27 0.0 0 1 41.55 48.36
  Q 44.15 47.49 46.76 45.00
  A 1.42 1.41 -34.0 0 0 47.08 43.38
  L 47.04 43.31
  A 0.68 0.68 0.0 0 0 45.94 43.11
  Q 43.10 45.95 40.20 47.00
  A 0.49 0.48 82.9 0 1 39.55 46.49
  Z"
/>
<path fill="#ffffff" d="
  M 35.60 21.39
  Q 34.90 23.37 35.33 25.76
  A 0.57 0.57 0.0 0 1 34.74 26.43
  C 30.95 26.23 28.45 22.86 29.71 19.30
  C 30.97 15.74 35.03 14.70 38.10 16.93
  A 0.57 0.57 0.0 0 1 38.14 17.82
  Q 36.31 19.41 35.60 21.39
  Z"
/>
<path fill="#ffffff" d="
  M 23.93 19.45
  L 24.23 18.93
  A 1.26 1.26 0.0 0 1 26.58 19.68
  Q 26.32 22.29 27.45 24.74
  Q 28.12 26.20 27.58 26.79
  Q 27.03 27.41 25.37 27.04
  A 0.61 0.61 0.0 0 0 24.66 27.46
  Q 24.29 28.72 22.58 30.90
  A 0.88 0.88 0.0 0 1 21.35 31.05
  L 21.32 31.03
  A 0.91 0.90 -55.7 0 1 21.11 29.88
  L 23.56 25.55
  A 0.30 0.30 0.0 0 0 23.45 25.14
  L 23.18 24.98
  A 0.66 0.65 -56.6 0 0 22.33 25.16
  Q 19.37 29.25 19.22 34.46
  A 0.70 0.70 0.0 0 1 18.17 35.05
  L 17.82 34.84
  A 0.59 0.58 15.0 0 1 17.52 34.33
  Q 17.49 27.95 21.60 23.42
  A 0.97 0.95 59.5 0 0 21.82 22.53
  L 21.33 20.58
  A 0.98 0.98 0.0 0 1 22.77 19.49
  L 23.10 19.67
  A 0.61 0.60 29.9 0 0 23.93 19.45
  Z"
/>
<path fill="#ffffff" d="
  M 43.47 18.68
  C 47.23 18.86 49.38 22.43 48.14 26.00
  A 0.57 0.57 0.0 0 1 47.30 26.29
  Q 45.26 25.00 43.17 24.90
  Q 41.09 24.80 38.93 25.89
  A 0.57 0.57 0.0 0 1 38.12 25.52
  C 37.23 21.85 39.72 18.50 43.47 18.68
  Z"
/>
<circle fill="#ffffff" cx="42.82" cy="32.93" r="5.35"/>
<path fill="#ffffff" d="
  M 38.63 40.59
  C 33.03 41.98 31.42 38.36 28.09 36.71
  C 25.58 35.46 22.48 35.95 21.98 38.98
  Q 21.84 39.82 21.43 41.02
  A 0.71 0.71 0.0 0 1 20.05 40.82
  Q 19.74 35.36 24.96 34.01
  Q 25.76 33.81 28.18 34.62
  C 31.73 35.82 32.83 39.50 37.16 39.10
  A 0.91 0.90 -31.5 0 1 37.68 39.22
  L 38.74 39.83
  A 0.41 0.41 0.0 0 1 38.63 40.59
  Z"
/>
<circle fill="#ffffff" cx="26.61" cy="47.05" r="5.30"/>
<path fill="#ffffff" d="
  M 40.20 47.00
  Q 43.10 45.95 45.94 43.11
  A 0.68 0.68 0.0 0 1 47.04 43.31
  L 47.08 43.38
  A 1.42 1.41 -34.0 0 1 46.76 45.00
  Q 44.15 47.49 41.55 48.36
  A 0.27 0.27 0.0 0 0 41.63 48.88
  Q 43.80 48.92 44.65 49.13
  A 0.79 0.79 0.0 0 1 44.53 50.68
  Q 41.07 50.98 38.47 50.35
  A 0.85 0.84 -63.4 0 0 37.61 50.64
  Q 36.75 51.69 35.94 52.12
  A 1.32 1.31 -3.2 0 1 34.10 50.48
  Q 35.22 47.62 34.48 44.79
  A 1.21 1.21 0.0 0 1 36.18 43.39
  Q 36.83 43.70 37.03 44.05
  A 0.65 0.65 0.0 0 0 37.92 44.29
  Q 38.88 43.73 39.42 44.47
  Q 39.92 45.15 39.76 45.70
  Q 39.56 46.41 39.55 46.49
  A 0.49 0.48 82.9 0 0 40.20 47.00
  Z"
/>
</svg>
