<?xml version="1.0" encoding="UTF-8" standalone="no"?>
<!DOCTYPE svg PUBLIC "-//W3C//DTD SVG 1.1//EN" "http://www.w3.org/Graphics/SVG/1.1/DTD/svg11.dtd">
<svg xmlns="http://www.w3.org/2000/svg" version="1.1" viewBox="0.00 0.00 66.00 88.00">
<g stroke-width="2.00" fill="none" stroke-linecap="butt">
<path stroke="#6c427b" vector-effect="non-scaling-stroke" d="
  M 33.41 86.70
  Q 33.52 86.70 33.62 86.68
  Q 33.71 86.66 33.80 86.58
  C 51.49 70.07 78.93 34.58 55.03 11.23
  C 49.41 5.73 41.63 2.48 33.53 2.47
  C 25.44 2.46 17.65 5.68 12.00 11.17
  C -11.96 34.45 15.38 70.02 33.02 86.58
  Q 33.11 86.66 33.20 86.68
  Q 33.30 86.70 33.41 86.70"
/>
<path stroke="#c7acd0" vector-effect="non-scaling-stroke" d="
  M 33.00 51.54
  Q 33.07 51.54 33.13 51.51
  A 0.37 0.29 87.6 0 0 33.28 51.30
  L 40.24 24.57
  A 0.28 0.28 0.0 0 0 39.73 24.37
  C 36.97 29.44 31.49 23.86 35.99 21.43
  A 0.69 0.69 0.0 0 0 36.32 20.62
  Q 35.37 17.73 33.10 15.91
  C 33.06 15.88 33.06 15.88 32.98 15.88
  C 32.90 15.88 32.91 15.88 32.87 15.91
  Q 30.59 17.73 29.65 20.62
  A 0.69 0.69 0.0 0 0 29.98 21.43
  C 34.48 23.86 29.01 29.44 26.24 24.38
  A 0.28 0.28 0.0 0 0 25.73 24.58
  L 32.72 51.30
  A 0.37 0.29 -87.7 0 0 32.88 51.51
  Q 32.93 51.54 33.00 51.54"
/>
<path stroke="#c7acd0" vector-effect="non-scaling-stroke" d="
  M 30.10 51.75
  Q 30.13 51.72 30.15 51.70
  A 0.17 0.07 -46.2 0 0 30.20 51.56
  L 22.66 35.68
  A 0.19 0.19 0.0 0 0 22.30 35.73
  Q 21.79 38.36 20.26 38.00
  C 18.93 37.68 18.74 36.83 18.97 35.68
  A 0.92 0.92 0.0 0 0 18.64 34.78
  Q 17.13 33.59 15.19 33.87
  C 15.13 33.88 15.18 33.87 15.09 33.94
  C 15.06 33.97 15.08 33.91 15.06 33.98
  Q 14.45 35.84 15.37 37.53
  A 0.92 0.92 0.0 0 0 16.20 38.01
  C 17.37 37.98 18.17 38.32 18.26 39.68
  Q 18.35 41.25 15.67 41.30
  A 0.19 0.19 0.0 0 0 15.56 41.65
  L 29.91 51.80
  A 0.17 0.07 -33.9 0 0 30.06 51.77
  Q 30.09 51.76 30.10 51.75"
/>
<path stroke="#c7acd0" vector-effect="non-scaling-stroke" d="
  M 35.90 51.73
  Q 35.91 51.74 35.94 51.76
  A 0.17 0.07 33.9 0 0 36.09 51.79
  L 50.42 41.64
  A 0.19 0.19 0.0 0 0 50.31 41.30
  Q 47.63 41.25 47.72 39.68
  C 47.81 38.31 48.61 37.98 49.78 38.01
  A 0.92 0.92 0.0 0 0 50.61 37.53
  Q 51.53 35.84 50.92 33.98
  C 50.90 33.92 50.92 33.97 50.89 33.94
  C 50.80 33.87 50.85 33.88 50.79 33.87
  Q 48.85 33.59 47.34 34.78
  A 0.92 0.92 0.0 0 0 47.01 35.68
  C 47.24 36.83 47.05 37.68 45.73 38.00
  Q 44.20 38.36 43.69 35.73
  A 0.19 0.19 0.0 0 0 43.33 35.68
  L 35.80 51.55
  A 0.17 0.07 46.2 0 0 35.85 51.69
  Q 35.87 51.71 35.90 51.73"
/>
<path stroke="#c7acd0" vector-effect="non-scaling-stroke" d="
  M 32.9900 18.6800
  A 1.36 1.04 -90.0 0 0 31.9500 20.0400
  A 1.36 1.04 -90.0 0 0 32.9900 21.4000
  A 1.36 1.04 -90.0 0 0 34.0300 20.0400
  A 1.36 1.04 -90.0 0 0 32.9900 18.6800"
/>
<path stroke="#c7acd0" vector-effect="non-scaling-stroke" d="
  M 16.1789 35.2578
  A 0.95 0.71 -134.1 0 0 16.3301 36.4341
  A 0.95 0.71 -134.1 0 0 17.5011 36.6222
  A 0.95 0.71 -134.1 0 0 17.3499 35.4459
  A 0.95 0.71 -134.1 0 0 16.1789 35.2578"
/>
<path stroke="#c7acd0" vector-effect="non-scaling-stroke" d="
  M 49.8510 35.4418
  A 0.86 0.72 -35.4 0 0 48.7329 35.3531
  A 0.86 0.72 -35.4 0 0 48.4490 36.4382
  A 0.86 0.72 -35.4 0 0 49.5671 36.5269
  A 0.86 0.72 -35.4 0 0 49.8510 35.4418"
/>
</g>
<path fill="#492b54" d="
  M 33.80 88.00
  L 33.05 88.00
  C 16.65 73.30 -6.44 43.89 4.15 20.23
  C 11.80 3.14 32.48 -3.68 48.96 5.27
  Q 61.25 11.94 64.80 26.21
  C 66.12 31.51 65.45 38.68 63.91 44.14
  C 59.21 60.81 46.42 76.52 33.80 88.00
  Z
  M 33.41 86.70
  Q 33.52 86.70 33.62 86.68
  Q 33.71 86.66 33.80 86.58
  C 51.49 70.07 78.93 34.58 55.03 11.23
  C 49.41 5.73 41.63 2.48 33.53 2.47
  C 25.44 2.46 17.65 5.68 12.00 11.17
  C -11.96 34.45 15.38 70.02 33.02 86.58
  Q 33.11 86.66 33.20 86.68
  Q 33.30 86.70 33.41 86.70
  Z"
/>
<path fill="#8e58a1" d="
  M 33.53 2.47
  C 41.63 2.48 49.41 5.73 55.03 11.23
  C 78.93 34.58 51.49 70.07 33.80 86.58
  Q 33.71 86.66 33.62 86.68
  Q 33.52 86.70 33.41 86.70
  Q 33.30 86.70 33.20 86.68
  Q 33.11 86.66 33.02 86.58
  C 15.38 70.02 -11.96 34.45 12.00 11.17
  C 17.65 5.68 25.44 2.46 33.53 2.47
  Z
  M 33.00 51.54
  Q 33.07 51.54 33.13 51.51
  A 0.37 0.29 87.6 0 0 33.28 51.30
  L 40.24 24.57
  A 0.28 0.28 0.0 0 0 39.73 24.37
  C 36.97 29.44 31.49 23.86 35.99 21.43
  A 0.69 0.69 0.0 0 0 36.32 20.62
  Q 35.37 17.73 33.10 15.91
  C 33.06 15.88 33.06 15.88 32.98 15.88
  C 32.90 15.88 32.91 15.88 32.87 15.91
  Q 30.59 17.73 29.65 20.62
  A 0.69 0.69 0.0 0 0 29.98 21.43
  C 34.48 23.86 29.01 29.44 26.24 24.38
  A 0.28 0.28 0.0 0 0 25.73 24.58
  L 32.72 51.30
  A 0.37 0.29 -87.7 0 0 32.88 51.51
  Q 32.93 51.54 33.00 51.54
  Z
  M 30.10 51.75
  Q 30.13 51.72 30.15 51.70
  A 0.17 0.07 -46.2 0 0 30.20 51.56
  L 22.66 35.68
  A 0.19 0.19 0.0 0 0 22.30 35.73
  Q 21.79 38.36 20.26 38.00
  C 18.93 37.68 18.74 36.83 18.97 35.68
  A 0.92 0.92 0.0 0 0 18.64 34.78
  Q 17.13 33.59 15.19 33.87
  C 15.13 33.88 15.18 33.87 15.09 33.94
  C 15.06 33.97 15.08 33.91 15.06 33.98
  Q 14.45 35.84 15.37 37.53
  A 0.92 0.92 0.0 0 0 16.20 38.01
  C 17.37 37.98 18.17 38.32 18.26 39.68
  Q 18.35 41.25 15.67 41.30
  A 0.19 0.19 0.0 0 0 15.56 41.65
  L 29.91 51.80
  A 0.17 0.07 -33.9 0 0 30.06 51.77
  Q 30.09 51.76 30.10 51.75
  Z
  M 35.90 51.73
  Q 35.91 51.74 35.94 51.76
  A 0.17 0.07 33.9 0 0 36.09 51.79
  L 50.42 41.64
  A 0.19 0.19 0.0 0 0 50.31 41.30
  Q 47.63 41.25 47.72 39.68
  C 47.81 38.31 48.61 37.98 49.78 38.01
  A 0.92 0.92 0.0 0 0 50.61 37.53
  Q 51.53 35.84 50.92 33.98
  C 50.90 33.92 50.92 33.97 50.89 33.94
  C 50.80 33.87 50.85 33.88 50.79 33.87
  Q 48.85 33.59 47.34 34.78
  A 0.92 0.92 0.0 0 0 47.01 35.68
  C 47.24 36.83 47.05 37.68 45.73 38.00
  Q 44.20 38.36 43.69 35.73
  A 0.19 0.19 0.0 0 0 43.33 35.68
  L 35.80 51.55
  A 0.17 0.07 46.2 0 0 35.85 51.69
  Q 35.87 51.71 35.90 51.73
  Z"
/>
<path fill="#ffffff" d="
  M 33.00 51.54
  Q 32.93 51.54 32.88 51.51
  A 0.37 0.29 -87.7 0 1 32.72 51.30
  L 25.73 24.58
  A 0.28 0.28 0.0 0 1 26.24 24.38
  C 29.01 29.44 34.48 23.86 29.98 21.43
  A 0.69 0.69 0.0 0 1 29.65 20.62
  Q 30.59 17.73 32.87 15.91
  C 32.91 15.88 32.90 15.88 32.98 15.88
  C 33.06 15.88 33.06 15.88 33.10 15.91
  Q 35.37 17.73 36.32 20.62
  A 0.69 0.69 0.0 0 1 35.99 21.43
  C 31.49 23.86 36.97 29.44 39.73 24.37
  A 0.28 0.28 0.0 0 1 40.24 24.57
  L 33.28 51.30
  A 0.37 0.29 87.6 0 1 33.13 51.51
  Q 33.07 51.54 33.00 51.54
  Z
  M 32.9900 18.6800
  A 1.36 1.04 -90.0 0 0 31.9500 20.0400
  A 1.36 1.04 -90.0 0 0 32.9900 21.4000
  A 1.36 1.04 -90.0 0 0 34.0300 20.0400
  A 1.36 1.04 -90.0 0 0 32.9900 18.6800
  Z"
/>
<ellipse fill="#8e58a1" cx="0.00" cy="0.00" transform="translate(32.99,20.04) rotate(-90.0)" rx="1.36" ry="1.04"/>
<path fill="#ffffff" d="
  M 30.10 51.75
  Q 30.09 51.76 30.06 51.77
  A 0.17 0.07 -33.9 0 1 29.91 51.80
  L 15.56 41.65
  A 0.19 0.19 0.0 0 1 15.67 41.30
  Q 18.35 41.25 18.26 39.68
  C 18.17 38.32 17.37 37.98 16.20 38.01
  A 0.92 0.92 0.0 0 1 15.37 37.53
  Q 14.45 35.84 15.06 33.98
  C 15.08 33.91 15.06 33.97 15.09 33.94
  C 15.18 33.87 15.13 33.88 15.19 33.87
  Q 17.13 33.59 18.64 34.78
  A 0.92 0.92 0.0 0 1 18.97 35.68
  C 18.74 36.83 18.93 37.68 20.26 38.00
  Q 21.79 38.36 22.30 35.73
  A 0.19 0.19 0.0 0 1 22.66 35.68
  L 30.20 51.56
  A 0.17 0.07 -46.2 0 1 30.15 51.70
  Q 30.13 51.72 30.10 51.75
  Z
  M 16.1789 35.2578
  A 0.95 0.71 -134.1 0 0 16.3301 36.4341
  A 0.95 0.71 -134.1 0 0 17.5011 36.6222
  A 0.95 0.71 -134.1 0 0 17.3499 35.4459
  A 0.95 0.71 -134.1 0 0 16.1789 35.2578
  Z"
/>
<path fill="#ffffff" d="
  M 35.90 51.73
  Q 35.87 51.71 35.85 51.69
  A 0.17 0.07 46.2 0 1 35.80 51.55
  L 43.33 35.68
  A 0.19 0.19 0.0 0 1 43.69 35.73
  Q 44.20 38.36 45.73 38.00
  C 47.05 37.68 47.24 36.83 47.01 35.68
  A 0.92 0.92 0.0 0 1 47.34 34.78
  Q 48.85 33.59 50.79 33.87
  C 50.85 33.88 50.80 33.87 50.89 33.94
  C 50.92 33.97 50.90 33.92 50.92 33.98
  Q 51.53 35.84 50.61 37.53
  A 0.92 0.92 0.0 0 1 49.78 38.01
  C 48.61 37.98 47.81 38.31 47.72 39.68
  Q 47.63 41.25 50.31 41.30
  A 0.19 0.19 0.0 0 1 50.42 41.64
  L 36.09 51.79
  A 0.17 0.07 33.9 0 1 35.94 51.76
  Q 35.91 51.74 35.90 51.73
  Z
  M 49.8510 35.4418
  A 0.86 0.72 -35.4 0 0 48.7329 35.3531
  A 0.86 0.72 -35.4 0 0 48.4490 36.4382
  A 0.86 0.72 -35.4 0 0 49.5671 36.5269
  A 0.86 0.72 -35.4 0 0 49.8510 35.4418
  Z"
/>
<ellipse fill="#8e58a1" cx="0.00" cy="0.00" transform="translate(16.84,35.94) rotate(-134.1)" rx="0.95" ry="0.71"/>
<ellipse fill="#8e58a1" cx="0.00" cy="0.00" transform="translate(49.15,35.94) rotate(-35.4)" rx="0.86" ry="0.72"/>
</svg>
