<?xml version="1.0" encoding="UTF-8" standalone="no"?>
<!DOCTYPE svg PUBLIC "-//W3C//DTD SVG 1.1//EN" "http://www.w3.org/Graphics/SVG/1.1/DTD/svg11.dtd">
<svg xmlns="http://www.w3.org/2000/svg" version="1.1" viewBox="0.00 0.00 66.00 88.00">
<g stroke-width="2.00" fill="none" stroke-linecap="butt">
<path stroke="#7e5666" vector-effect="non-scaling-stroke" d="
  M 33.41 86.69
  Q 33.55 86.69 33.68 86.66
  A 0.23 0.09 -49.2 0 0 33.74 86.63
  Q 48.86 72.38 57.74 56.26
  C 65.69 41.83 68.06 23.71 54.97 11.11
  C 49.33 5.69 41.58 2.47 33.52 2.46
  C 25.46 2.45 17.70 5.65 12.04 11.06
  C -1.08 23.62 1.24 41.74 9.15 56.19
  Q 17.99 72.34 33.07 86.63
  A 0.23 0.09 49.4 0 0 33.13 86.66
  Q 33.27 86.69 33.41 86.69"
/>
<path stroke="#d3b9c3" vector-effect="non-scaling-stroke" d="
  M 44.45 20.36
  C 43.22 21.60 42.13 25.18 41.75 26.88
  Q 41.74 26.96 41.82 27.05
  Q 41.90 27.13 41.98 27.11
  C 43.69 26.72 47.25 25.59 48.48 24.35
  C 49.71 23.11 50.80 19.53 51.18 17.83
  Q 51.20 17.75 51.12 17.67
  Q 51.03 17.58 50.95 17.60
  C 49.25 17.99 45.68 19.12 44.45 20.36"
/>
<path stroke="#d3b9c3" vector-effect="non-scaling-stroke" d="
  M 18.73 31.96
  Q 18.63 32.11 18.62 32.13
  Q 15.23 40.45 14.77 49.43
  Q 14.76 49.52 14.84 49.57
  Q 14.98 49.67 15.05 49.63
  Q 23.32 46.08 29.95 40.01
  Q 29.96 40.00 30.07 39.85
  Q 30.17 39.70 30.18 39.68
  Q 33.57 31.36 34.03 22.37
  Q 34.03 22.29 33.95 22.24
  Q 33.82 22.14 33.74 22.18
  Q 25.48 25.73 18.85 31.80
  Q 18.84 31.81 18.73 31.96"
/>
<path stroke="#d3b9c3" vector-effect="non-scaling-stroke" d="
  M 36.68 34.40
  Q 36.57 34.51 36.56 34.53
  Q 32.38 41.11 30.59 48.71
  Q 30.57 48.78 30.63 48.84
  Q 30.73 48.94 30.80 48.93
  Q 38.41 47.17 45.01 43.01
  Q 45.03 43.01 45.14 42.89
  Q 45.25 42.78 45.26 42.77
  Q 49.44 36.19 51.23 28.59
  Q 51.24 28.51 51.19 28.46
  Q 51.09 28.36 51.01 28.37
  Q 43.41 30.13 36.81 34.28
  Q 36.79 34.29 36.68 34.40"
/>
</g>
<path fill="#553944" d="
  M 33.79 88.00
  L 33.12 88.00
  Q 15.43 72.27 5.96 52.53
  Q 3.46 47.30 2.05 39.24
  C 0.12 28.23 3.31 17.64 11.49 9.96
  Q 20.10 1.88 33.01 1.26
  C 36.18 1.11 41.36 2.02 44.49 3.22
  C 57.47 8.19 65.93 19.93 65.44 33.90
  Q 65.17 41.70 62.41 48.85
  C 56.64 63.74 45.55 77.33 33.79 88.00
  Z
  M 33.41 86.69
  Q 33.55 86.69 33.68 86.66
  A 0.23 0.09 -49.2 0 0 33.74 86.63
  Q 48.86 72.38 57.74 56.26
  C 65.69 41.83 68.06 23.71 54.97 11.11
  C 49.33 5.69 41.58 2.47 33.52 2.46
  C 25.46 2.45 17.70 5.65 12.04 11.06
  C -1.08 23.62 1.24 41.74 9.15 56.19
  Q 17.99 72.34 33.07 86.63
  A 0.23 0.09 49.4 0 0 33.13 86.66
  Q 33.27 86.69 33.41 86.69
  Z"
/>
<path fill="#a77387" d="
  M 33.52 2.46
  C 41.58 2.47 49.33 5.69 54.97 11.11
  C 68.06 23.71 65.69 41.83 57.74 56.26
  Q 48.86 72.38 33.74 86.63
  A 0.23 0.09 -49.2 0 1 33.68 86.66
  Q 33.55 86.69 33.41 86.69
  Q 33.27 86.69 33.13 86.66
  A 0.23 0.09 49.4 0 1 33.07 86.63
  Q 17.99 72.34 9.15 56.19
  C 1.24 41.74 -1.08 23.62 12.04 11.06
  C 17.70 5.65 25.46 2.45 33.52 2.46
  Z
  M 44.45 20.36
  C 43.22 21.60 42.13 25.18 41.75 26.88
  Q 41.74 26.96 41.82 27.05
  Q 41.90 27.13 41.98 27.11
  C 43.69 26.72 47.25 25.59 48.48 24.35
  C 49.71 23.11 50.80 19.53 51.18 17.83
  Q 51.20 17.75 51.12 17.67
  Q 51.03 17.58 50.95 17.60
  C 49.25 17.99 45.68 19.12 44.45 20.36
  Z
  M 18.73 31.96
  Q 18.63 32.11 18.62 32.13
  Q 15.23 40.45 14.77 49.43
  Q 14.76 49.52 14.84 49.57
  Q 14.98 49.67 15.05 49.63
  Q 23.32 46.08 29.95 40.01
  Q 29.96 40.00 30.07 39.85
  Q 30.17 39.70 30.18 39.68
  Q 33.57 31.36 34.03 22.37
  Q 34.03 22.29 33.95 22.24
  Q 33.82 22.14 33.74 22.18
  Q 25.48 25.73 18.85 31.80
  Q 18.84 31.81 18.73 31.96
  Z
  M 36.68 34.40
  Q 36.57 34.51 36.56 34.53
  Q 32.38 41.11 30.59 48.71
  Q 30.57 48.78 30.63 48.84
  Q 30.73 48.94 30.80 48.93
  Q 38.41 47.17 45.01 43.01
  Q 45.03 43.01 45.14 42.89
  Q 45.25 42.78 45.26 42.77
  Q 49.44 36.19 51.23 28.59
  Q 51.24 28.51 51.19 28.46
  Q 51.09 28.36 51.01 28.37
  Q 43.41 30.13 36.81 34.28
  Q 36.79 34.29 36.68 34.40
  Z"
/>
<path fill="#ffffff" d="
  M 51.12 17.67
  Q 51.20 17.75 51.18 17.83
  C 50.80 19.53 49.71 23.11 48.48 24.35
  C 47.25 25.59 43.69 26.72 41.98 27.11
  Q 41.90 27.13 41.82 27.05
  Q 41.74 26.96 41.75 26.88
  C 42.13 25.18 43.22 21.60 44.45 20.36
  C 45.68 19.12 49.25 17.99 50.95 17.60
  Q 51.03 17.58 51.12 17.67
  Z"
/>
<path fill="#ffffff" d="
  M 33.95 22.24
  Q 34.03 22.29 34.03 22.37
  Q 33.57 31.36 30.18 39.68
  Q 30.17 39.70 30.07 39.85
  Q 29.96 40.00 29.95 40.01
  Q 23.32 46.08 15.05 49.63
  Q 14.98 49.67 14.84 49.57
  Q 14.76 49.52 14.77 49.43
  Q 15.23 40.45 18.62 32.13
  Q 18.63 32.11 18.73 31.96
  Q 18.84 31.81 18.85 31.80
  Q 25.48 25.73 33.74 22.18
  Q 33.82 22.14 33.95 22.24
  Z"
/>
<path fill="#ffffff" d="
  M 36.68 34.40
  Q 36.79 34.29 36.81 34.28
  Q 43.41 30.13 51.01 28.37
  Q 51.09 28.36 51.19 28.46
  Q 51.24 28.51 51.23 28.59
  Q 49.44 36.19 45.26 42.77
  Q 45.25 42.78 45.14 42.89
  Q 45.03 43.01 45.01 43.01
  Q 38.41 47.17 30.80 48.93
  Q 30.73 48.94 30.63 48.84
  Q 30.57 48.78 30.59 48.71
  Q 32.38 41.11 36.56 34.53
  Q 36.57 34.51 36.68 34.40
  Z"
/>
</svg>
