<?xml version="1.0" encoding="UTF-8" standalone="no"?>
<!DOCTYPE svg PUBLIC "-//W3C//DTD SVG 1.1//EN" "http://www.w3.org/Graphics/SVG/1.1/DTD/svg11.dtd">
<svg xmlns="http://www.w3.org/2000/svg" version="1.1" viewBox="0.00 0.00 66.00 88.00">
<g stroke-width="2.00" fill="none" stroke-linecap="butt">
<path stroke="#171b2a" vector-effect="non-scaling-stroke" d="
  M 33.31 85.83
  Q 33.46 85.83 33.66 85.68
  Q 36.95 83.30 40.33 79.63
  C 53.36 65.48 66.90 46.29 63.46 26.89
  C 60.96 12.82 47.66 2.47 33.49 2.44
  C 19.32 2.41 5.98 12.70 3.42 26.76
  C -0.11 46.14 13.34 65.39 26.31 79.60
  Q 29.67 83.28 32.95 85.68
  Q 33.15 85.83 33.31 85.83"
/>
<path stroke="#8e9099" vector-effect="non-scaling-stroke" d="
  M 36.71 23.19
  A 0.65 0.64 21.4 0 1 37.18 22.99
  L 46.69 22.99
  A 0.14 0.13 67.0 0 0 46.78 22.76
  L 43.46 19.44
  A 0.65 0.65 0.0 0 0 43.00 19.25
  L 23.37 19.25
  A 1.65 1.64 -67.1 0 0 22.22 19.72
  L 19.41 22.54
  A 0.28 0.28 0.0 0 0 19.61 23.02
  L 31.54 23.02
  A 0.08 0.07 20.8 0 1 31.60 23.14
  L 27.48 27.26
  A 0.70 0.68 21.8 0 1 26.99 27.46
  Q 18.68 27.47 17.55 27.56
  Q 14.83 27.78 14.73 29.82
  Q 14.58 33.00 14.72 46.37
  A 2.16 2.16 0.0 0 0 16.88 48.51
  Q 46.31 48.46 48.19 48.54
  C 50.60 48.63 51.30 47.54 51.32 45.24
  Q 51.34 43.55 51.34 31.13
  C 51.34 28.78 50.62 27.52 48.24 27.50
  Q 41.42 27.46 32.59 27.50
  A 0.08 0.08 0.0 0 1 32.53 27.37
  L 36.71 23.19"
/>
<path stroke="#8e9099" vector-effect="non-scaling-stroke" d="
  M 47.67 31.62
  A 0.37 0.37 0.0 0 0 47.30 31.25
  L 18.70 31.25
  A 0.37 0.37 0.0 0 0 18.33 31.62
  L 18.33 44.62
  A 0.37 0.37 0.0 0 0 18.70 44.99
  L 47.30 44.99
  A 0.37 0.37 0.0 0 0 47.67 44.62
  L 47.67 31.62"
/>
<path stroke="#8e9099" vector-effect="non-scaling-stroke" d="
  M 24.3926 34.0302
  A 3.57 2.70 -90.6 0 0 21.7301 37.6283
  A 3.57 2.70 -90.6 0 0 24.4674 41.1698
  A 3.57 2.70 -90.6 0 0 27.1299 37.5717
  A 3.57 2.70 -90.6 0 0 24.3926 34.0302"
/>
<path stroke="#8e9099" vector-effect="non-scaling-stroke" d="
  M 32.9588 34.0401
  A 3.57 2.71 -90.5 0 0 30.2801 37.6336
  A 3.57 2.71 -90.5 0 0 33.0212 41.1799
  A 3.57 2.71 -90.5 0 0 35.6999 37.5864
  A 3.57 2.71 -90.5 0 0 32.9588 34.0401"
/>
<path stroke="#8e9099" vector-effect="non-scaling-stroke" d="
  M 41.5600 34.0300
  A 3.57 2.71 -90.0 0 0 38.8500 37.6000
  A 3.57 2.71 -90.0 0 0 41.5600 41.1700
  A 3.57 2.71 -90.0 0 0 44.2700 37.6000
  A 3.57 2.71 -90.0 0 0 41.5600 34.0300"
/>
</g>
<path fill="#121520" d="
  M 33.79 88.00
  L 33.04 88.00
  C 21.72 77.71 12.19 65.74 5.68 51.55
  Q 2.14 43.84 1.57 34.90
  C 0.12 12.29 21.97 -3.74 43.33 2.85
  Q 51.46 5.36 57.30 11.81
  Q 67.68 23.26 64.87 39.81
  C 61.80 57.89 47.15 75.91 33.79 88.00
  Z
  M 33.31 85.83
  Q 33.46 85.83 33.66 85.68
  Q 36.95 83.30 40.33 79.63
  C 53.36 65.48 66.90 46.29 63.46 26.89
  C 60.96 12.82 47.66 2.47 33.49 2.44
  C 19.32 2.41 5.98 12.70 3.42 26.76
  C -0.11 46.14 13.34 65.39 26.31 79.60
  Q 29.67 83.28 32.95 85.68
  Q 33.15 85.83 33.31 85.83
  Z"
/>
<path fill="#1c2133" d="
  M 33.49 2.44
  C 47.66 2.47 60.96 12.82 63.46 26.89
  C 66.90 46.29 53.36 65.48 40.33 79.63
  Q 36.95 83.30 33.66 85.68
  Q 33.46 85.83 33.31 85.83
  Q 33.15 85.83 32.95 85.68
  Q 29.67 83.28 26.31 79.60
  C 13.34 65.39 -0.11 46.14 3.42 26.76
  C 5.98 12.70 19.32 2.41 33.49 2.44
  Z
  M 36.71 23.19
  A 0.65 0.64 21.4 0 1 37.18 22.99
  L 46.69 22.99
  A 0.14 0.13 67.0 0 0 46.78 22.76
  L 43.46 19.44
  A 0.65 0.65 0.0 0 0 43.00 19.25
  L 23.37 19.25
  A 1.65 1.64 -67.1 0 0 22.22 19.72
  L 19.41 22.54
  A 0.28 0.28 0.0 0 0 19.61 23.02
  L 31.54 23.02
  A 0.08 0.07 20.8 0 1 31.60 23.14
  L 27.48 27.26
  A 0.70 0.68 21.8 0 1 26.99 27.46
  Q 18.68 27.47 17.55 27.56
  Q 14.83 27.78 14.73 29.82
  Q 14.58 33.00 14.72 46.37
  A 2.16 2.16 0.0 0 0 16.88 48.51
  Q 46.31 48.46 48.19 48.54
  C 50.60 48.63 51.30 47.54 51.32 45.24
  Q 51.34 43.55 51.34 31.13
  C 51.34 28.78 50.62 27.52 48.24 27.50
  Q 41.42 27.46 32.59 27.50
  A 0.08 0.08 0.0 0 1 32.53 27.37
  L 36.71 23.19
  Z"
/>
<path fill="#ffffff" d="
  M 36.71 23.19
  L 32.53 27.37
  A 0.08 0.08 0.0 0 0 32.59 27.50
  Q 41.42 27.46 48.24 27.50
  C 50.62 27.52 51.34 28.78 51.34 31.13
  Q 51.34 43.55 51.32 45.24
  C 51.30 47.54 50.60 48.63 48.19 48.54
  Q 46.31 48.46 16.88 48.51
  A 2.16 2.16 0.0 0 1 14.72 46.37
  Q 14.58 33.00 14.73 29.82
  Q 14.83 27.78 17.55 27.56
  Q 18.68 27.47 26.99 27.46
  A 0.70 0.68 21.8 0 0 27.48 27.26
  L 31.60 23.14
  A 0.08 0.07 20.8 0 0 31.54 23.02
  L 19.61 23.02
  A 0.28 0.28 0.0 0 1 19.41 22.54
  L 22.22 19.72
  A 1.65 1.64 -67.1 0 1 23.37 19.25
  L 43.00 19.25
  A 0.65 0.65 0.0 0 1 43.46 19.44
  L 46.78 22.76
  A 0.14 0.13 67.0 0 1 46.69 22.99
  L 37.18 22.99
  A 0.65 0.64 21.4 0 0 36.71 23.19
  Z
  M 47.67 31.62
  A 0.37 0.37 0.0 0 0 47.30 31.25
  L 18.70 31.25
  A 0.37 0.37 0.0 0 0 18.33 31.62
  L 18.33 44.62
  A 0.37 0.37 0.0 0 0 18.70 44.99
  L 47.30 44.99
  A 0.37 0.37 0.0 0 0 47.67 44.62
  L 47.67 31.62
  Z"
/>
<path fill="#1c2133" d="
  M 47.67 44.62
  A 0.37 0.37 0.0 0 1 47.30 44.99
  L 18.70 44.99
  A 0.37 0.37 0.0 0 1 18.33 44.62
  L 18.33 31.62
  A 0.37 0.37 0.0 0 1 18.70 31.25
  L 47.30 31.25
  A 0.37 0.37 0.0 0 1 47.67 31.62
  L 47.67 44.62
  Z
  M 24.3926 34.0302
  A 3.57 2.70 -90.6 0 0 21.7301 37.6283
  A 3.57 2.70 -90.6 0 0 24.4674 41.1698
  A 3.57 2.70 -90.6 0 0 27.1299 37.5717
  A 3.57 2.70 -90.6 0 0 24.3926 34.0302
  Z
  M 32.9588 34.0401
  A 3.57 2.71 -90.5 0 0 30.2801 37.6336
  A 3.57 2.71 -90.5 0 0 33.0212 41.1799
  A 3.57 2.71 -90.5 0 0 35.6999 37.5864
  A 3.57 2.71 -90.5 0 0 32.9588 34.0401
  Z
  M 41.5600 34.0300
  A 3.57 2.71 -90.0 0 0 38.8500 37.6000
  A 3.57 2.71 -90.0 0 0 41.5600 41.1700
  A 3.57 2.71 -90.0 0 0 44.2700 37.6000
  A 3.57 2.71 -90.0 0 0 41.5600 34.0300
  Z"
/>
<ellipse fill="#ffffff" cx="0.00" cy="0.00" transform="translate(24.43,37.60) rotate(-90.6)" rx="3.57" ry="2.70"/>
<ellipse fill="#ffffff" cx="0.00" cy="0.00" transform="translate(32.99,37.61) rotate(-90.5)" rx="3.57" ry="2.71"/>
<ellipse fill="#ffffff" cx="0.00" cy="0.00" transform="translate(41.56,37.60) rotate(-90.0)" rx="3.57" ry="2.71"/>
</svg>
