<?xml version="1.0" encoding="UTF-8" standalone="no"?>
<!DOCTYPE svg PUBLIC "-//W3C//DTD SVG 1.1//EN" "http://www.w3.org/Graphics/SVG/1.1/DTD/svg11.dtd">
<svg xmlns="http://www.w3.org/2000/svg" version="1.1" viewBox="0.00 0.00 66.00 88.00">
<g stroke-width="2.00" fill="none" stroke-linecap="butt">
<path stroke="#802436" vector-effect="non-scaling-stroke" d="
  M 33.42 86.69
  Q 33.53 86.69 33.62 86.67
  Q 33.64 86.67 33.77 86.55
  C 48.88 72.55 69.49 46.81 63.09 24.45
  C 59.43 11.67 47.20 2.48 33.51 2.47
  C 19.82 2.46 7.57 11.61 3.88 24.38
  C -2.56 46.73 17.99 72.52 33.07 86.55
  Q 33.20 86.67 33.22 86.67
  Q 33.32 86.69 33.42 86.69"
/>
<path stroke="#d498a4" vector-effect="non-scaling-stroke" d="
  M 25.36 39.53
  C 19.74 33.43 22.62 24.05 30.88 22.62
  A 0.35 0.34 85.0 0 0 31.16 22.28
  L 31.17 15.98
  A 0.18 0.18 0.0 0 0 30.96 15.80
  C 18.28 17.54 11.90 29.81 17.92 41.08
  A 0.39 0.38 -20.9 0 0 18.35 41.27
  L 25.30 39.73
  A 0.12 0.12 0.0 0 0 25.36 39.53"
/>
<path stroke="#d498a4" vector-effect="non-scaling-stroke" d="
  M 49.27 32.66
  A 0.38 0.37 77.0 0 0 49.51 32.27
  Q 48.11 18.32 34.15 15.68
  A 0.18 0.17 5.5 0 0 33.94 15.85
  L 33.89 22.15
  A 0.35 0.34 -83.8 0 0 34.15 22.49
  Q 43.52 24.82 42.42 35.06
  A 0.14 0.13 82.1 0 0 42.60 35.20
  L 49.27 32.66"
/>
<path stroke="#d498a4" vector-effect="non-scaling-stroke" d="
  M 31.16 37.78
  L 31.18 27.20
  A 0.12 0.12 0.0 0 0 31.06 27.08
  L 30.97 27.08
  A 5.26 4.21 -89.9 0 0 26.75 32.34
  L 26.75 32.64
  A 5.26 4.21 -89.9 0 0 30.95 37.90
  L 31.04 37.90
  A 0.12 0.12 0.0 0 0 31.16 37.78"
/>
<path stroke="#d498a4" vector-effect="non-scaling-stroke" d="
  M 33.94 27.25
  L 33.92 37.77
  A 0.12 0.12 0.0 0 0 34.04 37.89
  L 34.13 37.89
  A 5.23 4.19 -89.9 0 0 38.33 32.66
  L 38.33 32.36
  A 5.23 4.19 -89.9 0 0 34.15 27.13
  L 34.06 27.13
  A 0.12 0.12 0.0 0 0 33.94 27.25"
/>
<path stroke="#d498a4" vector-effect="non-scaling-stroke" d="
  M 39.47 42.85
  Q 41.10 42.01 42.95 41.71
  Q 43.18 41.67 50.49 39.03
  A 1.14 1.14 0.0 0 0 51.24 37.85
  L 51.03 35.44
  A 0.42 0.42 0.0 0 0 50.46 35.09
  Q 34.55 41.58 17.86 44.10
  A 0.15 0.14 -21.7 0 0 17.76 44.33
  L 19.79 47.16
  A 0.42 0.41 68.9 0 0 20.16 47.33
  Q 24.13 46.88 28.53 47.36
  A 0.17 0.17 0.0 0 1 28.53 47.70
  L 22.12 48.28
  A 0.48 0.48 0.0 0 0 21.92 49.17
  L 26.08 51.57
  A 1.06 1.03 -35.9 0 0 26.83 51.68
  L 33.97 50.10
  A 0.28 0.28 0.0 0 1 34.13 50.64
  L 30.96 51.85
  A 0.24 0.24 0.0 0 0 31.05 52.32
  L 37.38 52.20
  A 1.54 1.54 0.0 0 0 38.39 51.80
  L 44.47 46.33
  A 1.07 1.01 16.3 0 1 44.94 46.09
  L 45.82 45.90
  A 0.72 0.70 0.6 0 0 46.34 45.40
  L 47.00 42.86
  A 0.33 0.32 -84.9 0 0 46.66 42.45
  L 39.54 43.09
  A 0.13 0.13 0.0 0 1 39.47 42.85"
/>
</g>
<path fill="#581723" d="
  M 33.79 88.00
  L 33.15 88.00
  Q 15.61 72.49 6.00 52.51
  Q 2.32 44.86 1.62 35.22
  C 0.46 19.09 11.06 5.71 26.54 2.07
  C 37.26 -0.45 49.39 3.21 57.06 11.53
  Q 69.00 24.51 63.99 43.82
  Q 62.14 50.96 57.63 58.69
  Q 48.04 75.10 33.79 88.00
  Z
  M 33.42 86.69
  Q 33.53 86.69 33.62 86.67
  Q 33.64 86.67 33.77 86.55
  C 48.88 72.55 69.49 46.81 63.09 24.45
  C 59.43 11.67 47.20 2.48 33.51 2.47
  C 19.82 2.46 7.57 11.61 3.88 24.38
  C -2.56 46.73 17.99 72.52 33.07 86.55
  Q 33.20 86.67 33.22 86.67
  Q 33.32 86.69 33.42 86.69
  Z"
/>
<path fill="#a83148" d="
  M 33.51 2.47
  C 47.20 2.48 59.43 11.67 63.09 24.45
  C 69.49 46.81 48.88 72.55 33.77 86.55
  Q 33.64 86.67 33.62 86.67
  Q 33.53 86.69 33.42 86.69
  Q 33.32 86.69 33.22 86.67
  Q 33.20 86.67 33.07 86.55
  C 17.99 72.52 -2.56 46.73 3.88 24.38
  C 7.57 11.61 19.82 2.46 33.51 2.47
  Z
  M 25.36 39.53
  C 19.74 33.43 22.62 24.05 30.88 22.62
  A 0.35 0.34 85.0 0 0 31.16 22.28
  L 31.17 15.98
  A 0.18 0.18 0.0 0 0 30.96 15.80
  C 18.28 17.54 11.90 29.81 17.92 41.08
  A 0.39 0.38 -20.9 0 0 18.35 41.27
  L 25.30 39.73
  A 0.12 0.12 0.0 0 0 25.36 39.53
  Z
  M 49.27 32.66
  A 0.38 0.37 77.0 0 0 49.51 32.27
  Q 48.11 18.32 34.15 15.68
  A 0.18 0.17 5.5 0 0 33.94 15.85
  L 33.89 22.15
  A 0.35 0.34 -83.8 0 0 34.15 22.49
  Q 43.52 24.82 42.42 35.06
  A 0.14 0.13 82.1 0 0 42.60 35.20
  L 49.27 32.66
  Z
  M 31.16 37.78
  L 31.18 27.20
  A 0.12 0.12 0.0 0 0 31.06 27.08
  L 30.97 27.08
  A 5.26 4.21 -89.9 0 0 26.75 32.34
  L 26.75 32.64
  A 5.26 4.21 -89.9 0 0 30.95 37.90
  L 31.04 37.90
  A 0.12 0.12 0.0 0 0 31.16 37.78
  Z
  M 33.94 27.25
  L 33.92 37.77
  A 0.12 0.12 0.0 0 0 34.04 37.89
  L 34.13 37.89
  A 5.23 4.19 -89.9 0 0 38.33 32.66
  L 38.33 32.36
  A 5.23 4.19 -89.9 0 0 34.15 27.13
  L 34.06 27.13
  A 0.12 0.12 0.0 0 0 33.94 27.25
  Z
  M 39.47 42.85
  Q 41.10 42.01 42.95 41.71
  Q 43.18 41.67 50.49 39.03
  A 1.14 1.14 0.0 0 0 51.24 37.85
  L 51.03 35.44
  A 0.42 0.42 0.0 0 0 50.46 35.09
  Q 34.55 41.58 17.86 44.10
  A 0.15 0.14 -21.7 0 0 17.76 44.33
  L 19.79 47.16
  A 0.42 0.41 68.9 0 0 20.16 47.33
  Q 24.13 46.88 28.53 47.36
  A 0.17 0.17 0.0 0 1 28.53 47.70
  L 22.12 48.28
  A 0.48 0.48 0.0 0 0 21.92 49.17
  L 26.08 51.57
  A 1.06 1.03 -35.9 0 0 26.83 51.68
  L 33.97 50.10
  A 0.28 0.28 0.0 0 1 34.13 50.64
  L 30.96 51.85
  A 0.24 0.24 0.0 0 0 31.05 52.32
  L 37.38 52.20
  A 1.54 1.54 0.0 0 0 38.39 51.80
  L 44.47 46.33
  A 1.07 1.01 16.3 0 1 44.94 46.09
  L 45.82 45.90
  A 0.72 0.70 0.6 0 0 46.34 45.40
  L 47.00 42.86
  A 0.33 0.32 -84.9 0 0 46.66 42.45
  L 39.54 43.09
  A 0.13 0.13 0.0 0 1 39.47 42.85
  Z"
/>
<path fill="#ffffff" d="
  M 25.36 39.53
  A 0.12 0.12 0.0 0 1 25.30 39.73
  L 18.35 41.27
  A 0.39 0.38 -20.9 0 1 17.92 41.08
  C 11.90 29.81 18.28 17.54 30.96 15.80
  A 0.18 0.18 0.0 0 1 31.17 15.98
  L 31.16 22.28
  A 0.35 0.34 85.0 0 1 30.88 22.62
  C 22.62 24.05 19.74 33.43 25.36 39.53
  Z"
/>
<path fill="#ffffff" d="
  M 42.42 35.06
  Q 43.52 24.82 34.15 22.49
  A 0.35 0.34 -83.8 0 1 33.89 22.15
  L 33.94 15.85
  A 0.18 0.17 5.5 0 1 34.15 15.68
  Q 48.11 18.32 49.51 32.27
  A 0.38 0.37 77.0 0 1 49.27 32.66
  L 42.60 35.20
  A 0.14 0.13 82.1 0 1 42.42 35.06
  Z"
/>
<path fill="#ffffff" d="
  M 31.16 37.78
  A 0.12 0.12 0.0 0 1 31.04 37.90
  L 30.95 37.90
  A 5.26 4.21 -89.9 0 1 26.75 32.64
  L 26.75 32.34
  A 5.26 4.21 -89.9 0 1 30.97 27.08
  L 31.06 27.08
  A 0.12 0.12 0.0 0 1 31.18 27.20
  L 31.16 37.78
  Z"
/>
<path fill="#ffffff" d="
  M 33.94 27.25
  A 0.12 0.12 0.0 0 1 34.06 27.13
  L 34.15 27.13
  A 5.23 4.19 -89.9 0 1 38.33 32.36
  L 38.33 32.66
  A 5.23 4.19 -89.9 0 1 34.13 37.89
  L 34.04 37.89
  A 0.12 0.12 0.0 0 1 33.92 37.77
  L 33.94 27.25
  Z"
/>
<path fill="#ffffff" d="
  M 39.54 43.09
  L 46.66 42.45
  A 0.33 0.32 -84.9 0 1 47.00 42.86
  L 46.34 45.40
  A 0.72 0.70 0.6 0 1 45.82 45.90
  L 44.94 46.09
  A 1.07 1.01 16.3 0 0 44.47 46.33
  L 38.39 51.80
  A 1.54 1.54 0.0 0 1 37.38 52.20
  L 31.05 52.32
  A 0.24 0.24 0.0 0 1 30.96 51.85
  L 34.13 50.64
  A 0.28 0.28 0.0 0 0 33.97 50.10
  L 26.83 51.68
  A 1.06 1.03 -35.9 0 1 26.08 51.57
  L 21.92 49.17
  A 0.48 0.48 0.0 0 1 22.12 48.28
  L 28.53 47.70
  A 0.17 0.17 0.0 0 0 28.53 47.36
  Q 24.13 46.88 20.16 47.33
  A 0.42 0.41 68.9 0 1 19.79 47.16
  L 17.76 44.33
  A 0.15 0.14 -21.7 0 1 17.86 44.10
  Q 34.55 41.58 50.46 35.09
  A 0.42 0.42 0.0 0 1 51.03 35.44
  L 51.24 37.85
  A 1.14 1.14 0.0 0 1 50.49 39.03
  Q 43.18 41.67 42.95 41.71
  Q 41.10 42.01 39.47 42.85
  A 0.13 0.13 0.0 0 0 39.54 43.09
  Z"
/>
</svg>
