<?xml version="1.0" encoding="UTF-8" standalone="no"?>
<!DOCTYPE svg PUBLIC "-//W3C//DTD SVG 1.1//EN" "http://www.w3.org/Graphics/SVG/1.1/DTD/svg11.dtd">
<svg xmlns="http://www.w3.org/2000/svg" version="1.1" viewBox="0.00 0.00 66.00 88.00">
<g stroke-width="2.00" fill="none" stroke-linecap="butt">
<path stroke="#7f5666" vector-effect="non-scaling-stroke" d="
  M 33.40 86.69
  Q 33.54 86.69 33.68 86.66
  A 0.13 0.11 8.8 0 0 33.73 86.63
  C 45.28 75.54 55.64 62.90 61.32 48.30
  C 66.28 35.52 65.48 21.15 55.07 11.21
  C 49.30 5.70 41.69 2.47 33.53 2.46
  C 25.37 2.45 17.75 5.65 11.96 11.15
  C 1.52 21.05 0.68 35.42 5.60 48.22
  C 11.24 62.83 21.56 75.50 33.08 86.63
  A 0.13 0.11 -8.6 0 0 33.13 86.66
  Q 33.26 86.69 33.40 86.69"
/>
<path stroke="#d3b9c3" vector-effect="non-scaling-stroke" d="
  M 32.97 27.56
  Q 35.91 27.56 38.04 31.47
  A 0.47 0.47 0.0 0 0 38.82 31.53
  C 41.90 27.48 44.47 28.85 48.43 30.05
  A 0.38 0.38 0.0 0 0 48.90 29.58
  C 46.88 22.41 40.48 17.56 32.97 17.56
  C 25.47 17.56 19.07 22.40 17.04 29.57
  A 0.38 0.38 0.0 0 0 17.51 30.04
  C 21.47 28.84 24.04 27.47 27.12 31.53
  A 0.47 0.47 0.0 0 0 27.90 31.47
  Q 30.03 27.56 32.97 27.56"
/>
<path stroke="#d3b9c3" vector-effect="non-scaling-stroke" d="
  M 32.9900 30.2600
  A 5.44 2.92 -90.0 0 0 30.0700 35.7000
  A 5.44 2.92 -90.0 0 0 32.9900 41.1400
  A 5.44 2.92 -90.0 0 0 35.9100 35.7000
  A 5.44 2.92 -90.0 0 0 32.9900 30.2600"
/>
<path stroke="#d3b9c3" vector-effect="non-scaling-stroke" d="
  M 22.3714 31.5672
  A 5.31 2.89 -100.4 0 0 20.4875 37.3117
  A 5.31 2.89 -100.4 0 0 24.2886 42.0128
  A 5.31 2.89 -100.4 0 0 26.1725 36.2683
  A 5.31 2.89 -100.4 0 0 22.3714 31.5672"
/>
<path stroke="#d3b9c3" vector-effect="non-scaling-stroke" d="
  M 43.5794 31.5556
  A 5.31 2.89 -79.7 0 0 39.7866 36.2633
  A 5.31 2.89 -79.7 0 0 41.6806 42.0044
  A 5.31 2.89 -79.7 0 0 45.4734 37.2967
  A 5.31 2.89 -79.7 0 0 43.5794 31.5556"
/>
<path stroke="#d3b9c3" vector-effect="non-scaling-stroke" d="
  M 17.10 38.73
  Q 16.33 36.09 16.46 34.11
  A 0.54 0.54 0.0 0 0 15.45 33.82
  Q 14.14 36.15 15.07 39.33
  Q 16.00 42.50 18.36 43.76
  A 0.54 0.54 0.0 0 0 19.05 42.96
  Q 17.87 41.37 17.10 38.73"
/>
<path stroke="#d3b9c3" vector-effect="non-scaling-stroke" d="
  M 48.88 38.73
  Q 48.12 41.35 46.95 42.95
  A 0.54 0.54 0.0 0 0 47.63 43.74
  Q 49.98 42.48 50.90 39.32
  Q 51.82 36.16 50.52 33.84
  A 0.54 0.54 0.0 0 0 49.52 34.13
  Q 49.65 36.10 48.88 38.73"
/>
<path stroke="#d3b9c3" vector-effect="non-scaling-stroke" d="
  M 32.98 50.71
  Q 39.34 50.71 44.22 46.42
  A 0.38 0.38 0.0 0 0 44.09 45.78
  L 39.74 44.34
  A 0.20 0.04 10.9 0 1 39.69 44.32
  Q 38.64 43.89 37.76 41.89
  A 0.40 0.40 0.0 0 0 37.09 41.80
  Q 35.30 43.92 32.98 43.92
  Q 30.67 43.92 28.88 41.80
  A 0.40 0.40 0.0 0 0 28.21 41.89
  Q 27.33 43.89 26.28 44.32
  A 0.20 0.04 -10.9 0 1 26.23 44.34
  L 21.88 45.78
  A 0.38 0.38 0.0 0 0 21.75 46.42
  Q 26.63 50.71 32.98 50.71"
/>
</g>
<path fill="#563944" d="
  M 33.79 88.00
  L 33.14 88.00
  Q 16.03 72.84 6.33 53.20
  Q 2.33 45.11 1.64 35.45
  Q 0.94 25.73 5.38 17.74
  C 11.54 6.67 23.79 0.19 36.85 1.51
  C 53.46 3.18 66.10 17.36 65.46 33.99
  Q 65.17 41.67 62.33 49.05
  C 56.69 63.76 45.40 77.48 33.79 88.00
  Z
  M 33.40 86.69
  Q 33.54 86.69 33.68 86.66
  A 0.13 0.11 8.8 0 0 33.73 86.63
  C 45.28 75.54 55.64 62.90 61.32 48.30
  C 66.28 35.52 65.48 21.15 55.07 11.21
  C 49.30 5.70 41.69 2.47 33.53 2.46
  C 25.37 2.45 17.75 5.65 11.96 11.15
  C 1.52 21.05 0.68 35.42 5.60 48.22
  C 11.24 62.83 21.56 75.50 33.08 86.63
  A 0.13 0.11 -8.6 0 0 33.13 86.66
  Q 33.26 86.69 33.40 86.69
  Z"
/>
<path fill="#a77387" d="
  M 33.53 2.46
  C 41.69 2.47 49.30 5.70 55.07 11.21
  C 65.48 21.15 66.28 35.52 61.32 48.30
  C 55.64 62.90 45.28 75.54 33.73 86.63
  A 0.13 0.11 8.8 0 1 33.68 86.66
  Q 33.54 86.69 33.40 86.69
  Q 33.26 86.69 33.13 86.66
  A 0.13 0.11 -8.6 0 1 33.08 86.63
  C 21.56 75.50 11.24 62.83 5.60 48.22
  C 0.68 35.42 1.52 21.05 11.96 11.15
  C 17.75 5.65 25.37 2.45 33.53 2.46
  Z
  M 32.97 27.56
  Q 35.91 27.56 38.04 31.47
  A 0.47 0.47 0.0 0 0 38.82 31.53
  C 41.90 27.48 44.47 28.85 48.43 30.05
  A 0.38 0.38 0.0 0 0 48.90 29.58
  C 46.88 22.41 40.48 17.56 32.97 17.56
  C 25.47 17.56 19.07 22.40 17.04 29.57
  A 0.38 0.38 0.0 0 0 17.51 30.04
  C 21.47 28.84 24.04 27.47 27.12 31.53
  A 0.47 0.47 0.0 0 0 27.90 31.47
  Q 30.03 27.56 32.97 27.56
  Z
  M 32.9900 30.2600
  A 5.44 2.92 -90.0 0 0 30.0700 35.7000
  A 5.44 2.92 -90.0 0 0 32.9900 41.1400
  A 5.44 2.92 -90.0 0 0 35.9100 35.7000
  A 5.44 2.92 -90.0 0 0 32.9900 30.2600
  Z
  M 22.3714 31.5672
  A 5.31 2.89 -100.4 0 0 20.4875 37.3117
  A 5.31 2.89 -100.4 0 0 24.2886 42.0128
  A 5.31 2.89 -100.4 0 0 26.1725 36.2683
  A 5.31 2.89 -100.4 0 0 22.3714 31.5672
  Z
  M 43.5794 31.5556
  A 5.31 2.89 -79.7 0 0 39.7866 36.2633
  A 5.31 2.89 -79.7 0 0 41.6806 42.0044
  A 5.31 2.89 -79.7 0 0 45.4734 37.2967
  A 5.31 2.89 -79.7 0 0 43.5794 31.5556
  Z
  M 17.10 38.73
  Q 16.33 36.09 16.46 34.11
  A 0.54 0.54 0.0 0 0 15.45 33.82
  Q 14.14 36.15 15.07 39.33
  Q 16.00 42.50 18.36 43.76
  A 0.54 0.54 0.0 0 0 19.05 42.96
  Q 17.87 41.37 17.10 38.73
  Z
  M 48.88 38.73
  Q 48.12 41.35 46.95 42.95
  A 0.54 0.54 0.0 0 0 47.63 43.74
  Q 49.98 42.48 50.90 39.32
  Q 51.82 36.16 50.52 33.84
  A 0.54 0.54 0.0 0 0 49.52 34.13
  Q 49.65 36.10 48.88 38.73
  Z
  M 32.98 50.71
  Q 39.34 50.71 44.22 46.42
  A 0.38 0.38 0.0 0 0 44.09 45.78
  L 39.74 44.34
  A 0.20 0.04 10.9 0 1 39.69 44.32
  Q 38.64 43.89 37.76 41.89
  A 0.40 0.40 0.0 0 0 37.09 41.80
  Q 35.30 43.92 32.98 43.92
  Q 30.67 43.92 28.88 41.80
  A 0.40 0.40 0.0 0 0 28.21 41.89
  Q 27.33 43.89 26.28 44.32
  A 0.20 0.04 -10.9 0 1 26.23 44.34
  L 21.88 45.78
  A 0.38 0.38 0.0 0 0 21.75 46.42
  Q 26.63 50.71 32.98 50.71
  Z"
/>
<path fill="#ffffff" d="
  M 32.97 17.56
  C 40.48 17.56 46.88 22.41 48.90 29.58
  A 0.38 0.38 0.0 0 1 48.43 30.05
  C 44.47 28.85 41.90 27.48 38.82 31.53
  A 0.47 0.47 0.0 0 1 38.04 31.47
  Q 35.91 27.56 32.97 27.56
  Q 30.03 27.56 27.90 31.47
  A 0.47 0.47 0.0 0 1 27.12 31.53
  C 24.04 27.47 21.47 28.84 17.51 30.04
  A 0.38 0.38 0.0 0 1 17.04 29.57
  C 19.07 22.40 25.47 17.56 32.97 17.56
  Z"
/>
<ellipse fill="#ffffff" cx="0.00" cy="0.00" transform="translate(32.99,35.70) rotate(-90.0)" rx="5.44" ry="2.92"/>
<ellipse fill="#ffffff" cx="0.00" cy="0.00" transform="translate(23.33,36.79) rotate(-100.4)" rx="5.31" ry="2.89"/>
<ellipse fill="#ffffff" cx="0.00" cy="0.00" transform="translate(42.63,36.78) rotate(-79.7)" rx="5.31" ry="2.89"/>
<path fill="#ffffff" d="
  M 17.10 38.73
  Q 17.87 41.37 19.05 42.96
  A 0.54 0.54 0.0 0 1 18.36 43.76
  Q 16.00 42.50 15.07 39.33
  Q 14.14 36.15 15.45 33.82
  A 0.54 0.54 0.0 0 1 16.46 34.11
  Q 16.33 36.09 17.10 38.73
  Z"
/>
<path fill="#ffffff" d="
  M 50.90 39.32
  Q 49.98 42.48 47.63 43.74
  A 0.54 0.54 0.0 0 1 46.95 42.95
  Q 48.12 41.35 48.88 38.73
  Q 49.65 36.10 49.52 34.13
  A 0.54 0.54 0.0 0 1 50.52 33.84
  Q 51.82 36.16 50.90 39.32
  Z"
/>
<path fill="#ffffff" d="
  M 32.98 43.92
  Q 35.30 43.92 37.09 41.80
  A 0.40 0.40 0.0 0 1 37.76 41.89
  Q 38.64 43.89 39.69 44.32
  A 0.20 0.04 10.9 0 0 39.74 44.34
  L 44.09 45.78
  A 0.38 0.38 0.0 0 1 44.22 46.42
  Q 39.34 50.71 32.98 50.71
  Q 26.63 50.71 21.75 46.42
  A 0.38 0.38 0.0 0 1 21.88 45.78
  L 26.23 44.34
  A 0.20 0.04 -10.9 0 0 26.28 44.32
  Q 27.33 43.89 28.21 41.89
  A 0.40 0.40 0.0 0 1 28.88 41.80
  Q 30.67 43.92 32.98 43.92
  Z"
/>
</svg>
