<?xml version="1.0" encoding="UTF-8" standalone="no"?>
<!DOCTYPE svg PUBLIC "-//W3C//DTD SVG 1.1//EN" "http://www.w3.org/Graphics/SVG/1.1/DTD/svg11.dtd">
<svg xmlns="http://www.w3.org/2000/svg" version="1.1" viewBox="0.00 0.00 66.00 88.00">
<g stroke-width="2.00" fill="none" stroke-linecap="butt">
<path stroke="#7f5666" vector-effect="non-scaling-stroke" d="
  M 33.41 86.69
  Q 33.55 86.69 33.68 86.66
  A 0.24 0.10 -50.0 0 0 33.74 86.63
  Q 47.67 73.51 56.60 58.33
  C 63.96 45.80 68.18 29.00 59.15 16.07
  Q 50.05 3.07 33.75 2.46
  Q 33.64 2.46 33.53 2.46
  Q 33.42 2.46 33.31 2.46
  Q 17.00 3.02 7.87 16.00
  C -1.20 28.90 2.97 45.71 10.29 58.26
  Q 19.18 73.47 33.07 86.63
  A 0.24 0.10 50.2 0 0 33.13 86.66
  Q 33.27 86.69 33.41 86.69"
/>
<path stroke="#d3b9c3" vector-effect="non-scaling-stroke" d="
  M 31.64 50.35
  C 33.09 53.41 35.53 52.48 37.21 50.31
  Q 38.22 49.02 40.14 48.08
  C 49.66 43.45 46.99 29.50 42.64 22.37
  C 34.89 9.67 24.82 17.79 21.63 27.63
  C 19.36 34.61 19.01 42.60 25.21 47.36
  C 26.66 48.48 27.15 49.48 28.17 50.79
  A 0.93 0.93 0.0 0 0 29.62 50.81
  Q 29.98 50.36 30.77 50.02
  A 0.67 0.66 65.4 0 1 31.64 50.35"
/>
<path stroke="#d3b9c3" vector-effect="non-scaling-stroke" d="
  M 33.43 46.69
  C 39.62 46.68 43.52 43.15 43.84 36.98
  Q 44.22 29.70 39.37 22.40
  C 38.22 20.68 35.57 18.55 33.36 18.55
  C 31.16 18.56 28.52 20.70 27.38 22.43
  Q 22.56 29.75 22.97 37.03
  C 23.32 43.19 27.24 46.71 33.43 46.69"
/>
<path stroke="#d3b9c3" vector-effect="non-scaling-stroke" d="
  M 29.15 25.71
  C 31.42 25.71 33.21 23.89 34.45 22.76
  A 0.96 0.96 0.0 0 0 33.43 21.16
  Q 30.54 22.41 28.85 25.18
  A 0.35 0.35 0.0 0 0 29.15 25.71"
/>
<path stroke="#d3b9c3" vector-effect="non-scaling-stroke" d="
  M 32.61 29.41
  A 2.01 2.01 0.0 0 0 36.08 29.49
  L 38.20 26.04
  A 0.82 0.82 0.0 0 0 38.08 25.03
  L 36.68 23.63
  A 0.37 0.37 0.0 0 0 36.18 23.61
  L 33.08 26.25
  A 1.21 1.21 0.0 0 0 32.67 26.98
  Q 32.33 28.90 32.61 29.41"
/>
<path stroke="#d3b9c3" vector-effect="non-scaling-stroke" d="
  M 26.11 36.58
  L 30.14 35.00
  A 1.01 1.01 0.0 0 0 30.73 34.33
  Q 31.54 31.13 30.74 27.80
  A 0.67 0.66 77.5 0 0 29.96 27.30
  L 27.90 27.73
  A 1.07 1.04 3.8 0 0 27.12 28.39
  Q 25.75 31.98 25.63 36.24
  A 0.35 0.35 0.0 0 0 26.11 36.58"
/>
<path stroke="#d3b9c3" vector-effect="non-scaling-stroke" d="
  M 36.47 31.76
  A 0.90 0.89 -31.5 0 0 36.18 32.93
  L 37.61 35.61
  A 0.86 0.81 0.9 0 0 37.96 35.95
  Q 39.71 36.85 40.69 36.66
  A 0.86 0.86 0.0 0 0 41.37 35.65
  L 39.92 28.66
  A 0.59 0.59 0.0 0 0 38.81 28.53
  Q 37.70 30.94 36.47 31.76"
/>
<path stroke="#d3b9c3" vector-effect="non-scaling-stroke" d="
  M 28.43 38.49
  L 30.00 39.39
  A 0.78 0.75 -81.5 0 1 30.36 39.90
  L 31.07 43.32
  A 1.01 1.01 0.0 0 0 32.27 44.11
  L 34.44 43.67
  A 0.74 0.73 -1.8 0 0 35.01 43.07
  L 35.90 37.17
  A 1.58 1.56 35.9 0 0 35.74 36.20
  L 33.88 32.51
  A 0.54 0.54 0.0 0 0 32.87 32.67
  L 32.43 35.54
  A 0.93 0.90 84.0 0 1 31.86 36.26
  L 28.50 37.58
  A 0.51 0.51 0.0 0 0 28.43 38.49"
/>
<path stroke="#d3b9c3" vector-effect="non-scaling-stroke" d="
  M 40.43 38.62
  Q 39.41 38.90 38.30 38.25
  A 0.50 0.50 0.0 0 0 37.55 38.60
  L 36.93 42.70
  A 0.44 0.44 0.0 0 0 37.56 43.16
  Q 40.00 41.96 40.82 39.01
  A 0.32 0.32 0.0 0 0 40.43 38.62"
/>
<path stroke="#d3b9c3" vector-effect="non-scaling-stroke" d="
  M 28.94 42.33
  Q 29.16 40.38 26.47 39.41
  A 0.27 0.27 0.0 0 0 26.14 39.80
  Q 27.36 42.04 28.26 42.64
  A 0.44 0.44 0.0 0 0 28.94 42.33"
/>
</g>
<path fill="#563944" d="
  M 33.78 88.00
  L 33.14 88.00
  Q 15.61 72.48 6.00 52.51
  Q 2.24 44.69 1.62 35.22
  Q 1.00 25.74 5.26 17.99
  C 11.42 6.75 23.68 0.18 36.86 1.51
  C 53.45 3.18 66.05 17.31 65.46 33.93
  C 64.74 54.38 48.43 74.74 33.78 88.00
  Z
  M 33.41 86.69
  Q 33.55 86.69 33.68 86.66
  A 0.24 0.10 -50.0 0 0 33.74 86.63
  Q 47.67 73.51 56.60 58.33
  C 63.96 45.80 68.18 29.00 59.15 16.07
  Q 50.05 3.07 33.75 2.46
  Q 33.64 2.46 33.53 2.46
  Q 33.42 2.46 33.31 2.46
  Q 17.00 3.02 7.87 16.00
  C -1.20 28.90 2.97 45.71 10.29 58.26
  Q 19.18 73.47 33.07 86.63
  A 0.24 0.10 50.2 0 0 33.13 86.66
  Q 33.27 86.69 33.41 86.69
  Z"
/>
<path fill="#a77387" d="
  M 33.53 2.46
  Q 33.64 2.46 33.75 2.46
  Q 50.05 3.07 59.15 16.07
  C 68.18 29.00 63.96 45.80 56.60 58.33
  Q 47.67 73.51 33.74 86.63
  A 0.24 0.10 -50.0 0 1 33.68 86.66
  Q 33.55 86.69 33.41 86.69
  Q 33.27 86.69 33.13 86.66
  A 0.24 0.10 50.2 0 1 33.07 86.63
  Q 19.18 73.47 10.29 58.26
  C 2.97 45.71 -1.20 28.90 7.87 16.00
  Q 17.00 3.02 33.31 2.46
  Q 33.42 2.46 33.53 2.46
  Z
  M 31.64 50.35
  C 33.09 53.41 35.53 52.48 37.21 50.31
  Q 38.22 49.02 40.14 48.08
  C 49.66 43.45 46.99 29.50 42.64 22.37
  C 34.89 9.67 24.82 17.79 21.63 27.63
  C 19.36 34.61 19.01 42.60 25.21 47.36
  C 26.66 48.48 27.15 49.48 28.17 50.79
  A 0.93 0.93 0.0 0 0 29.62 50.81
  Q 29.98 50.36 30.77 50.02
  A 0.67 0.66 65.4 0 1 31.64 50.35
  Z"
/>
<path fill="#ffffff" d="
  M 30.77 50.02
  Q 29.98 50.36 29.62 50.81
  A 0.93 0.93 0.0 0 1 28.17 50.79
  C 27.15 49.48 26.66 48.48 25.21 47.36
  C 19.01 42.60 19.36 34.61 21.63 27.63
  C 24.82 17.79 34.89 9.67 42.64 22.37
  C 46.99 29.50 49.66 43.45 40.14 48.08
  Q 38.22 49.02 37.21 50.31
  C 35.53 52.48 33.09 53.41 31.64 50.35
  A 0.67 0.66 65.4 0 0 30.77 50.02
  Z
  M 33.43 46.69
  C 39.62 46.68 43.52 43.15 43.84 36.98
  Q 44.22 29.70 39.37 22.40
  C 38.22 20.68 35.57 18.55 33.36 18.55
  C 31.16 18.56 28.52 20.70 27.38 22.43
  Q 22.56 29.75 22.97 37.03
  C 23.32 43.19 27.24 46.71 33.43 46.69
  Z"
/>
<path fill="#a77387" d="
  M 33.36 18.55
  C 35.57 18.55 38.22 20.68 39.37 22.40
  Q 44.22 29.70 43.84 36.98
  C 43.52 43.15 39.62 46.68 33.43 46.69
  C 27.24 46.71 23.32 43.19 22.97 37.03
  Q 22.56 29.75 27.38 22.43
  C 28.52 20.70 31.16 18.56 33.36 18.55
  Z
  M 29.15 25.71
  C 31.42 25.71 33.21 23.89 34.45 22.76
  A 0.96 0.96 0.0 0 0 33.43 21.16
  Q 30.54 22.41 28.85 25.18
  A 0.35 0.35 0.0 0 0 29.15 25.71
  Z
  M 32.61 29.41
  A 2.01 2.01 0.0 0 0 36.08 29.49
  L 38.20 26.04
  A 0.82 0.82 0.0 0 0 38.08 25.03
  L 36.68 23.63
  A 0.37 0.37 0.0 0 0 36.18 23.61
  L 33.08 26.25
  A 1.21 1.21 0.0 0 0 32.67 26.98
  Q 32.33 28.90 32.61 29.41
  Z
  M 26.11 36.58
  L 30.14 35.00
  A 1.01 1.01 0.0 0 0 30.73 34.33
  Q 31.54 31.13 30.74 27.80
  A 0.67 0.66 77.5 0 0 29.96 27.30
  L 27.90 27.73
  A 1.07 1.04 3.8 0 0 27.12 28.39
  Q 25.75 31.98 25.63 36.24
  A 0.35 0.35 0.0 0 0 26.11 36.58
  Z
  M 36.47 31.76
  A 0.90 0.89 -31.5 0 0 36.18 32.93
  L 37.61 35.61
  A 0.86 0.81 0.9 0 0 37.96 35.95
  Q 39.71 36.85 40.69 36.66
  A 0.86 0.86 0.0 0 0 41.37 35.65
  L 39.92 28.66
  A 0.59 0.59 0.0 0 0 38.81 28.53
  Q 37.70 30.94 36.47 31.76
  Z
  M 28.43 38.49
  L 30.00 39.39
  A 0.78 0.75 -81.5 0 1 30.36 39.90
  L 31.07 43.32
  A 1.01 1.01 0.0 0 0 32.27 44.11
  L 34.44 43.67
  A 0.74 0.73 -1.8 0 0 35.01 43.07
  L 35.90 37.17
  A 1.58 1.56 35.9 0 0 35.74 36.20
  L 33.88 32.51
  A 0.54 0.54 0.0 0 0 32.87 32.67
  L 32.43 35.54
  A 0.93 0.90 84.0 0 1 31.86 36.26
  L 28.50 37.58
  A 0.51 0.51 0.0 0 0 28.43 38.49
  Z
  M 40.43 38.62
  Q 39.41 38.90 38.30 38.25
  A 0.50 0.50 0.0 0 0 37.55 38.60
  L 36.93 42.70
  A 0.44 0.44 0.0 0 0 37.56 43.16
  Q 40.00 41.96 40.82 39.01
  A 0.32 0.32 0.0 0 0 40.43 38.62
  Z
  M 28.94 42.33
  Q 29.16 40.38 26.47 39.41
  A 0.27 0.27 0.0 0 0 26.14 39.80
  Q 27.36 42.04 28.26 42.64
  A 0.44 0.44 0.0 0 0 28.94 42.33
  Z"
/>
<path fill="#ffffff" d="
  M 28.85 25.18
  Q 30.54 22.41 33.43 21.16
  A 0.96 0.96 0.0 0 1 34.45 22.76
  C 33.21 23.89 31.42 25.71 29.15 25.71
  A 0.35 0.35 0.0 0 1 28.85 25.18
  Z"
/>
<path fill="#ffffff" d="
  M 32.61 29.41
  Q 32.33 28.90 32.67 26.98
  A 1.21 1.21 0.0 0 1 33.08 26.25
  L 36.18 23.61
  A 0.37 0.37 0.0 0 1 36.68 23.63
  L 38.08 25.03
  A 0.82 0.82 0.0 0 1 38.20 26.04
  L 36.08 29.49
  A 2.01 2.01 0.0 0 1 32.61 29.41
  Z"
/>
<path fill="#ffffff" d="
  M 26.11 36.58
  A 0.35 0.35 0.0 0 1 25.63 36.24
  Q 25.75 31.98 27.12 28.39
  A 1.07 1.04 3.8 0 1 27.90 27.73
  L 29.96 27.30
  A 0.67 0.66 77.5 0 1 30.74 27.80
  Q 31.54 31.13 30.73 34.33
  A 1.01 1.01 0.0 0 1 30.14 35.00
  L 26.11 36.58
  Z"
/>
<path fill="#ffffff" d="
  M 39.92 28.66
  L 41.37 35.65
  A 0.86 0.86 0.0 0 1 40.69 36.66
  Q 39.71 36.85 37.96 35.95
  A 0.86 0.81 0.9 0 1 37.61 35.61
  L 36.18 32.93
  A 0.90 0.89 -31.5 0 1 36.47 31.76
  Q 37.70 30.94 38.81 28.53
  A 0.59 0.59 0.0 0 1 39.92 28.66
  Z"
/>
<path fill="#ffffff" d="
  M 28.43 38.49
  A 0.51 0.51 0.0 0 1 28.50 37.58
  L 31.86 36.26
  A 0.93 0.90 84.0 0 0 32.43 35.54
  L 32.87 32.67
  A 0.54 0.54 0.0 0 1 33.88 32.51
  L 35.74 36.20
  A 1.58 1.56 35.9 0 1 35.90 37.17
  L 35.01 43.07
  A 0.74 0.73 -1.8 0 1 34.44 43.67
  L 32.27 44.11
  A 1.01 1.01 0.0 0 1 31.07 43.32
  L 30.36 39.90
  A 0.78 0.75 -81.5 0 0 30.00 39.39
  L 28.43 38.49
  Z"
/>
<path fill="#ffffff" d="
  M 40.82 39.01
  Q 40.00 41.96 37.56 43.16
  A 0.44 0.44 0.0 0 1 36.93 42.70
  L 37.55 38.60
  A 0.50 0.50 0.0 0 1 38.30 38.25
  Q 39.41 38.90 40.43 38.62
  A 0.32 0.32 0.0 0 1 40.82 39.01
  Z"
/>
<path fill="#ffffff" d="
  M 28.26 42.64
  Q 27.36 42.04 26.14 39.80
  A 0.27 0.27 0.0 0 1 26.47 39.41
  Q 29.16 40.38 28.94 42.33
  A 0.44 0.44 0.0 0 1 28.26 42.64
  Z"
/>
</svg>
