<?xml version="1.0" encoding="UTF-8" standalone="no"?>
<!DOCTYPE svg PUBLIC "-//W3C//DTD SVG 1.1//EN" "http://www.w3.org/Graphics/SVG/1.1/DTD/svg11.dtd">
<svg xmlns="http://www.w3.org/2000/svg" version="1.1" viewBox="0.00 0.00 66.00 88.00">
<g stroke-width="2.00" fill="none" stroke-linecap="butt">
<path stroke="#802436" vector-effect="non-scaling-stroke" d="
  M 33.42 86.69
  Q 33.55 86.69 33.62 86.67
  Q 33.68 86.65 33.78 86.57
  C 49.57 71.91 72.31 43.21 61.54 20.31
  Q 55.41 7.28 40.56 3.30
  Q 37.47 2.47 33.51 2.46
  Q 29.55 2.46 26.47 3.28
  Q 11.61 7.23 5.45 20.25
  C -5.37 43.13 17.31 71.88 33.07 86.57
  Q 33.17 86.65 33.22 86.67
  Q 33.30 86.69 33.42 86.69"
/>
<path stroke="#d498a4" vector-effect="non-scaling-stroke" d="
  M 20.81 27.42
  A 0.53 0.52 61.2 0 0 21.38 27.59
  Q 28.63 25.27 37.47 20.66
  A 1.12 1.12 0.0 0 0 37.51 18.69
  L 36.16 17.92
  A 3.49 3.48 -45.9 0 0 32.57 17.98
  Q 27.72 20.99 26.04 21.33
  Q 19.56 22.62 17.67 23.08
  A 0.16 0.16 0.0 0 0 17.58 23.34
  L 20.81 27.42"
/>
<path stroke="#d498a4" vector-effect="non-scaling-stroke" d="
  M 50.71 35.29
  Q 46.15 35.03 44.79 33.90
  Q 40.47 30.31 37.35 25.11
  A 0.91 0.90 -29.4 0 0 36.15 24.78
  Q 28.29 28.87 19.36 31.58
  A 0.67 0.67 0.0 0 1 18.52 31.11
  Q 17.64 27.77 16.13 26.50
  A 0.82 0.82 0.0 0 0 14.79 27.03
  C 14.39 30.67 16.87 32.96 19.47 35.14
  A 1.06 1.06 0.0 0 0 20.48 35.34
  Q 21.24 35.09 21.30 35.08
  A 0.58 0.57 -77.8 0 1 21.84 35.93
  L 21.61 36.35
  A 0.94 0.94 0.0 0 0 21.61 37.29
  L 26.42 45.62
  A 1.02 1.01 -29.7 0 0 27.80 45.99
  L 28.68 45.48
  A 0.34 0.34 0.0 0 1 29.15 45.95
  L 28.56 46.98
  A 0.78 0.77 30.0 0 0 28.85 48.04
  L 31.22 49.41
  A 0.57 0.56 -47.1 0 0 31.83 49.38
  L 34.30 47.59
  A 0.55 0.31 -61.0 0 1 34.38 47.54
  Q 36.33 46.31 44.80 42.92
  C 48.58 41.41 50.74 39.65 51.22 35.90
  A 0.55 0.54 -85.1 0 0 50.71 35.29"
/>
<path stroke="#d498a4" vector-effect="non-scaling-stroke" d="
  M 37.0597 30.8503
  A 1.05 1.05 0.0 0 0 35.6781 30.3061
  L 26.1406 34.4531
  A 1.05 1.05 0.0 0 0 25.5964 35.8347
  L 25.6203 35.8897
  A 1.05 1.05 0.0 0 0 27.0019 36.4339
  L 36.5394 32.2869
  A 1.05 1.05 0.0 0 0 37.0836 30.9053
  L 37.0597 30.8503"
/>
<path stroke="#d498a4" vector-effect="non-scaling-stroke" d="
  M 40.7370 35.3334
  A 1.06 1.06 0.0 0 0 39.3394 34.7913
  L 29.7689 39.0124
  A 1.06 1.06 0.0 0 0 29.2268 40.4100
  L 29.2430 40.4466
  A 1.06 1.06 0.0 0 0 30.6406 40.9887
  L 40.2111 36.7676
  A 1.06 1.06 0.0 0 0 40.7532 35.3700
  L 40.7370 35.3334"
/>
</g>
<path fill="#581723" d="
  M 33.81 88.00
  L 33.15 88.00
  Q 15.61 72.48 6.00 52.51
  Q 2.24 44.70 1.62 35.22
  Q 1.00 25.73 5.25 17.98
  C 11.41 6.75 23.69 0.17 36.86 1.51
  C 53.43 3.19 66.07 17.31 65.46 33.91
  C 64.72 54.44 48.44 74.68 33.81 88.00
  Z
  M 33.42 86.69
  Q 33.55 86.69 33.62 86.67
  Q 33.68 86.65 33.78 86.57
  C 49.57 71.91 72.31 43.21 61.54 20.31
  Q 55.41 7.28 40.56 3.30
  Q 37.47 2.47 33.51 2.46
  Q 29.55 2.46 26.47 3.28
  Q 11.61 7.23 5.45 20.25
  C -5.37 43.13 17.31 71.88 33.07 86.57
  Q 33.17 86.65 33.22 86.67
  Q 33.30 86.69 33.42 86.69
  Z"
/>
<path fill="#a83148" d="
  M 33.51 2.46
  Q 37.47 2.47 40.56 3.30
  Q 55.41 7.28 61.54 20.31
  C 72.31 43.21 49.57 71.91 33.78 86.57
  Q 33.68 86.65 33.62 86.67
  Q 33.55 86.69 33.42 86.69
  Q 33.30 86.69 33.22 86.67
  Q 33.17 86.65 33.07 86.57
  C 17.31 71.88 -5.37 43.13 5.45 20.25
  Q 11.61 7.23 26.47 3.28
  Q 29.55 2.46 33.51 2.46
  Z
  M 20.81 27.42
  A 0.53 0.52 61.2 0 0 21.38 27.59
  Q 28.63 25.27 37.47 20.66
  A 1.12 1.12 0.0 0 0 37.51 18.69
  L 36.16 17.92
  A 3.49 3.48 -45.9 0 0 32.57 17.98
  Q 27.72 20.99 26.04 21.33
  Q 19.56 22.62 17.67 23.08
  A 0.16 0.16 0.0 0 0 17.58 23.34
  L 20.81 27.42
  Z
  M 50.71 35.29
  Q 46.15 35.03 44.79 33.90
  Q 40.47 30.31 37.35 25.11
  A 0.91 0.90 -29.4 0 0 36.15 24.78
  Q 28.29 28.87 19.36 31.58
  A 0.67 0.67 0.0 0 1 18.52 31.11
  Q 17.64 27.77 16.13 26.50
  A 0.82 0.82 0.0 0 0 14.79 27.03
  C 14.39 30.67 16.87 32.96 19.47 35.14
  A 1.06 1.06 0.0 0 0 20.48 35.34
  Q 21.24 35.09 21.30 35.08
  A 0.58 0.57 -77.8 0 1 21.84 35.93
  L 21.61 36.35
  A 0.94 0.94 0.0 0 0 21.61 37.29
  L 26.42 45.62
  A 1.02 1.01 -29.7 0 0 27.80 45.99
  L 28.68 45.48
  A 0.34 0.34 0.0 0 1 29.15 45.95
  L 28.56 46.98
  A 0.78 0.77 30.0 0 0 28.85 48.04
  L 31.22 49.41
  A 0.57 0.56 -47.1 0 0 31.83 49.38
  L 34.30 47.59
  A 0.55 0.31 -61.0 0 1 34.38 47.54
  Q 36.33 46.31 44.80 42.92
  C 48.58 41.41 50.74 39.65 51.22 35.90
  A 0.55 0.54 -85.1 0 0 50.71 35.29
  Z"
/>
<path fill="#ffffff" d="
  M 20.81 27.42
  L 17.58 23.34
  A 0.16 0.16 0.0 0 1 17.67 23.08
  Q 19.56 22.62 26.04 21.33
  Q 27.72 20.99 32.57 17.98
  A 3.49 3.48 -45.9 0 1 36.16 17.92
  L 37.51 18.69
  A 1.12 1.12 0.0 0 1 37.47 20.66
  Q 28.63 25.27 21.38 27.59
  A 0.53 0.52 61.2 0 1 20.81 27.42
  Z"
/>
<path fill="#ffffff" d="
  M 51.22 35.90
  C 50.74 39.65 48.58 41.41 44.80 42.92
  Q 36.33 46.31 34.38 47.54
  A 0.55 0.31 -61.0 0 0 34.30 47.59
  L 31.83 49.38
  A 0.57 0.56 -47.1 0 1 31.22 49.41
  L 28.85 48.04
  A 0.78 0.77 30.0 0 1 28.56 46.98
  L 29.15 45.95
  A 0.34 0.34 0.0 0 0 28.68 45.48
  L 27.80 45.99
  A 1.02 1.01 -29.7 0 1 26.42 45.62
  L 21.61 37.29
  A 0.94 0.94 0.0 0 1 21.61 36.35
  L 21.84 35.93
  A 0.58 0.57 -77.8 0 0 21.30 35.08
  Q 21.24 35.09 20.48 35.34
  A 1.06 1.06 0.0 0 1 19.47 35.14
  C 16.87 32.96 14.39 30.67 14.79 27.03
  A 0.82 0.82 0.0 0 1 16.13 26.50
  Q 17.64 27.77 18.52 31.11
  A 0.67 0.67 0.0 0 0 19.36 31.58
  Q 28.29 28.87 36.15 24.78
  A 0.91 0.90 -29.4 0 1 37.35 25.11
  Q 40.47 30.31 44.79 33.90
  Q 46.15 35.03 50.71 35.29
  A 0.55 0.54 -85.1 0 1 51.22 35.90
  Z
  M 37.0597 30.8503
  A 1.05 1.05 0.0 0 0 35.6781 30.3061
  L 26.1406 34.4531
  A 1.05 1.05 0.0 0 0 25.5964 35.8347
  L 25.6203 35.8897
  A 1.05 1.05 0.0 0 0 27.0019 36.4339
  L 36.5394 32.2869
  A 1.05 1.05 0.0 0 0 37.0836 30.9053
  L 37.0597 30.8503
  Z
  M 40.7370 35.3334
  A 1.06 1.06 0.0 0 0 39.3394 34.7913
  L 29.7689 39.0124
  A 1.06 1.06 0.0 0 0 29.2268 40.4100
  L 29.2430 40.4466
  A 1.06 1.06 0.0 0 0 30.6406 40.9887
  L 40.2111 36.7676
  A 1.06 1.06 0.0 0 0 40.7532 35.3700
  L 40.7370 35.3334
  Z"
/>
<rect fill="#a83148" x="-6.25" y="-1.08" transform="translate(31.34,33.37) rotate(-23.5)" width="12.50" height="2.16" rx="1.05"/>
<rect fill="#a83148" x="-6.29" y="-1.08" transform="translate(34.99,37.89) rotate(-23.8)" width="12.58" height="2.16" rx="1.06"/>
</svg>
