<?xml version="1.0" encoding="UTF-8" standalone="no"?>
<!DOCTYPE svg PUBLIC "-//W3C//DTD SVG 1.1//EN" "http://www.w3.org/Graphics/SVG/1.1/DTD/svg11.dtd">
<svg xmlns="http://www.w3.org/2000/svg" version="1.1" viewBox="0.00 0.00 66.00 88.00">
<g stroke-width="2.00" fill="none" stroke-linecap="butt">
<path stroke="#425a74" vector-effect="non-scaling-stroke" d="
  M 33.40 86.69
  Q 33.54 86.69 33.67 86.66
  A 0.12 0.10 11.7 0 0 33.72 86.63
  C 43.94 76.86 53.06 65.94 59.15 53.41
  C 64.73 41.94 66.88 27.90 59.76 17.01
  Q 50.69 3.13 33.75 2.49
  Q 33.64 2.48 33.54 2.48
  Q 33.44 2.48 33.33 2.49
  Q 16.39 3.07 7.27 16.92
  C 0.12 27.78 2.22 41.83 7.76 53.32
  C 13.80 65.87 22.89 76.82 33.07 86.63
  A 0.12 0.10 -11.5 0 0 33.12 86.66
  Q 33.26 86.69 33.40 86.69"
/>
<path stroke="#acbbcc" vector-effect="non-scaling-stroke" d="
  M 29.51 25.74
  L 31.62 29.40
  A 0.46 0.46 0.0 0 1 31.12 30.08
  Q 29.00 29.58 26.81 27.81
  A 0.24 0.24 0.0 0 0 26.43 28.08
  Q 27.96 32.19 31.36 33.02
  A 0.77 0.77 0.0 0 1 31.92 33.95
  L 31.48 35.80
  A 0.84 0.84 0.0 0 1 30.69 36.44
  C 22.06 36.70 18.92 28.50 23.43 21.89
  A 0.20 0.20 0.0 0 0 23.16 21.60
  C 16.92 25.36 16.61 33.97 22.53 38.24
  Q 25.24 40.19 28.05 40.83
  A 0.69 0.69 0.0 0 1 28.58 41.59
  Q 28.15 45.02 27.13 46.13
  Q 25.27 48.16 24.31 50.14
  A 0.26 0.26 0.0 0 0 24.60 50.50
  Q 28.11 49.64 29.37 48.62
  A 0.33 0.33 0.0 0 1 29.91 48.91
  Q 29.81 49.91 30.68 51.65
  A 0.48 0.48 0.0 0 0 31.45 51.78
  L 34.61 48.62
  A 0.57 0.56 44.6 0 1 35.40 48.62
  L 36.23 49.45
  A 0.32 0.30 73.5 0 0 36.40 49.55
  L 40.79 50.60
  A 0.15 0.15 0.0 0 0 40.95 50.38
  C 39.78 48.40 37.52 45.69 37.32 41.75
  A 0.75 0.74 81.5 0 1 37.88 40.99
  Q 43.81 39.50 46.61 34.56
  C 48.96 30.42 48.83 25.33 44.91 22.09
  Q 40.38 18.33 39.61 16.62
  A 0.25 0.25 0.0 0 0 39.14 16.68
  C 38.63 19.68 42.19 22.69 42.86 24.13
  A 0.39 0.39 0.0 0 1 42.39 24.66
  Q 37.66 23.17 35.55 17.99
  A 0.30 0.30 0.0 0 0 34.99 18.00
  Q 34.29 20.02 35.11 21.42
  C 37.83 26.10 42.55 32.52 36.47 35.57
  A 0.41 0.41 0.0 0 1 35.88 35.18
  Q 36.37 28.37 29.99 25.22
  A 0.37 0.37 0.0 0 0 29.51 25.74"
/>
</g>
<path fill="#2a3d50" d="
  M 33.80 88.00
  L 33.14 88.00
  Q 16.03 72.84 6.33 53.20
  Q 2.33 45.11 1.64 35.45
  Q 0.93 25.62 5.39 17.74
  C 18.17 -4.83 50.86 -3.86 62.37 19.22
  C 66.39 27.28 66.20 36.95 63.52 45.52
  C 58.47 61.69 46.23 76.68 33.80 88.00
  Z
  M 33.40 86.69
  Q 33.54 86.69 33.67 86.66
  A 0.12 0.10 11.7 0 0 33.72 86.63
  C 43.94 76.86 53.06 65.94 59.15 53.41
  C 64.73 41.94 66.88 27.90 59.76 17.01
  Q 50.69 3.13 33.75 2.49
  Q 33.64 2.48 33.54 2.48
  Q 33.44 2.48 33.33 2.49
  Q 16.39 3.07 7.27 16.92
  C 0.12 27.78 2.22 41.83 7.76 53.32
  C 13.80 65.87 22.89 76.82 33.07 86.63
  A 0.12 0.10 -11.5 0 0 33.12 86.66
  Q 33.26 86.69 33.40 86.69
  Z"
/>
<path fill="#597698" d="
  M 33.54 2.48
  Q 33.64 2.48 33.75 2.49
  Q 50.69 3.13 59.76 17.01
  C 66.88 27.90 64.73 41.94 59.15 53.41
  C 53.06 65.94 43.94 76.86 33.72 86.63
  A 0.12 0.10 11.7 0 1 33.67 86.66
  Q 33.54 86.69 33.40 86.69
  Q 33.26 86.69 33.12 86.66
  A 0.12 0.10 -11.5 0 1 33.07 86.63
  C 22.89 76.82 13.80 65.87 7.76 53.32
  C 2.22 41.83 0.12 27.78 7.27 16.92
  Q 16.39 3.07 33.33 2.49
  Q 33.44 2.48 33.54 2.48
  Z
  M 29.51 25.74
  L 31.62 29.40
  A 0.46 0.46 0.0 0 1 31.12 30.08
  Q 29.00 29.58 26.81 27.81
  A 0.24 0.24 0.0 0 0 26.43 28.08
  Q 27.96 32.19 31.36 33.02
  A 0.77 0.77 0.0 0 1 31.92 33.95
  L 31.48 35.80
  A 0.84 0.84 0.0 0 1 30.69 36.44
  C 22.06 36.70 18.92 28.50 23.43 21.89
  A 0.20 0.20 0.0 0 0 23.16 21.60
  C 16.92 25.36 16.61 33.97 22.53 38.24
  Q 25.24 40.19 28.05 40.83
  A 0.69 0.69 0.0 0 1 28.58 41.59
  Q 28.15 45.02 27.13 46.13
  Q 25.27 48.16 24.31 50.14
  A 0.26 0.26 0.0 0 0 24.60 50.50
  Q 28.11 49.64 29.37 48.62
  A 0.33 0.33 0.0 0 1 29.91 48.91
  Q 29.81 49.91 30.68 51.65
  A 0.48 0.48 0.0 0 0 31.45 51.78
  L 34.61 48.62
  A 0.57 0.56 44.6 0 1 35.40 48.62
  L 36.23 49.45
  A 0.32 0.30 73.5 0 0 36.40 49.55
  L 40.79 50.60
  A 0.15 0.15 0.0 0 0 40.95 50.38
  C 39.78 48.40 37.52 45.69 37.32 41.75
  A 0.75 0.74 81.5 0 1 37.88 40.99
  Q 43.81 39.50 46.61 34.56
  C 48.96 30.42 48.83 25.33 44.91 22.09
  Q 40.38 18.33 39.61 16.62
  A 0.25 0.25 0.0 0 0 39.14 16.68
  C 38.63 19.68 42.19 22.69 42.86 24.13
  A 0.39 0.39 0.0 0 1 42.39 24.66
  Q 37.66 23.17 35.55 17.99
  A 0.30 0.30 0.0 0 0 34.99 18.00
  Q 34.29 20.02 35.11 21.42
  C 37.83 26.10 42.55 32.52 36.47 35.57
  A 0.41 0.41 0.0 0 1 35.88 35.18
  Q 36.37 28.37 29.99 25.22
  A 0.37 0.37 0.0 0 0 29.51 25.74
  Z"
/>
<path fill="#ffffff" d="
  M 29.99 25.22
  Q 36.37 28.37 35.88 35.18
  A 0.41 0.41 0.0 0 0 36.47 35.57
  C 42.55 32.52 37.83 26.10 35.11 21.42
  Q 34.29 20.02 34.99 18.00
  A 0.30 0.30 0.0 0 1 35.55 17.99
  Q 37.66 23.17 42.39 24.66
  A 0.39 0.39 0.0 0 0 42.86 24.13
  C 42.19 22.69 38.63 19.68 39.14 16.68
  A 0.25 0.25 0.0 0 1 39.61 16.62
  Q 40.38 18.33 44.91 22.09
  C 48.83 25.33 48.96 30.42 46.61 34.56
  Q 43.81 39.50 37.88 40.99
  A 0.75 0.74 81.5 0 0 37.32 41.75
  C 37.52 45.69 39.78 48.40 40.95 50.38
  A 0.15 0.15 0.0 0 1 40.79 50.60
  L 36.40 49.55
  A 0.32 0.30 73.5 0 1 36.23 49.45
  L 35.40 48.62
  A 0.57 0.56 44.6 0 0 34.61 48.62
  L 31.45 51.78
  A 0.48 0.48 0.0 0 1 30.68 51.65
  Q 29.81 49.91 29.91 48.91
  A 0.33 0.33 0.0 0 0 29.37 48.62
  Q 28.11 49.64 24.60 50.50
  A 0.26 0.26 0.0 0 1 24.31 50.14
  Q 25.27 48.16 27.13 46.13
  Q 28.15 45.02 28.58 41.59
  A 0.69 0.69 0.0 0 0 28.05 40.83
  Q 25.24 40.19 22.53 38.24
  C 16.61 33.97 16.92 25.36 23.16 21.60
  A 0.20 0.20 0.0 0 1 23.43 21.89
  C 18.92 28.50 22.06 36.70 30.69 36.44
  A 0.84 0.84 0.0 0 0 31.48 35.80
  L 31.92 33.95
  A 0.77 0.77 0.0 0 0 31.36 33.02
  Q 27.96 32.19 26.43 28.08
  A 0.24 0.24 0.0 0 1 26.81 27.81
  Q 29.00 29.58 31.12 30.08
  A 0.46 0.46 0.0 0 0 31.62 29.40
  L 29.51 25.74
  A 0.37 0.37 0.0 0 1 29.99 25.22
  Z"
/>
</svg>
