<?xml version="1.0" encoding="UTF-8" standalone="no"?>
<!DOCTYPE svg PUBLIC "-//W3C//DTD SVG 1.1//EN" "http://www.w3.org/Graphics/SVG/1.1/DTD/svg11.dtd">
<svg xmlns="http://www.w3.org/2000/svg" version="1.1" viewBox="0.00 0.00 66.00 88.00">
<g stroke-width="2.00" fill="none" stroke-linecap="butt">
<path stroke="#7f5766" vector-effect="non-scaling-stroke" d="
  M 33.40 86.69
  Q 33.54 86.69 33.68 86.66
  A 0.12 0.10 10.5 0 0 33.73 86.63
  Q 48.39 72.87 57.24 57.14
  C 66.74 40.25 68.29 20.20 50.95 7.91
  Q 43.28 2.48 33.53 2.46
  Q 23.78 2.45 16.09 7.86
  C -1.29 20.10 0.20 40.15 9.65 57.07
  Q 18.46 72.83 33.08 86.63
  A 0.12 0.10 -10.3 0 0 33.13 86.66
  Q 33.26 86.69 33.40 86.69"
/>
<path stroke="#d3b9c3" vector-effect="non-scaling-stroke" d="
  M 41.76 23.77
  L 43.35 22.86
  A 1.00 1.00 0.0 0 0 43.84 22.00
  L 43.84 16.39
  A 0.49 0.49 0.0 0 0 43.10 15.97
  L 37.61 19.14
  A 1.06 1.04 75.5 0 0 37.08 20.06
  L 37.08 21.57
  A 0.48 0.48 0.0 0 0 37.80 21.98
  L 40.45 20.45
  A 0.51 0.51 0.0 0 1 41.21 20.89
  L 41.21 23.45
  A 0.37 0.37 0.0 0 0 41.76 23.77"
/>
<path stroke="#d3b9c3" vector-effect="non-scaling-stroke" d="
  M 33.28 16.55
  L 27.27 20.92
  A 0.59 0.58 56.9 0 0 27.11 21.69
  L 29.84 26.41
  A 0.15 0.15 0.0 0 0 30.06 26.46
  L 34.30 23.37
  A 0.78 0.78 0.0 0 0 34.63 22.63
  L 34.01 16.87
  A 0.46 0.46 0.0 0 0 33.28 16.55"
/>
<path stroke="#d3b9c3" vector-effect="non-scaling-stroke" d="
  M 29.46 41.17
  Q 23.00 33.98 23.11 23.25
  A 0.31 0.31 0.0 0 0 22.59 23.02
  Q 15.93 29.40 17.75 38.91
  A 0.89 0.88 -86.7 0 0 18.35 39.59
  Q 23.75 41.40 29.25 41.63
  A 0.28 0.27 70.0 0 0 29.46 41.17"
/>
<path stroke="#d3b9c3" vector-effect="non-scaling-stroke" d="
  M 48.57 24.49
  A 0.49 0.49 0.0 0 0 47.87 24.00
  L 42.23 26.60
  A 0.84 0.84 0.0 0 0 41.73 27.31
  L 41.22 32.92
  A 0.16 0.16 0.0 0 0 41.39 33.09
  L 47.24 33.00
  A 0.63 0.62 2.2 0 0 47.86 32.43
  L 48.57 24.49"
/>
<path stroke="#d3b9c3" vector-effect="non-scaling-stroke" d="
  M 34.35 31.98
  Q 36.07 32.95 38.26 33.39
  A 0.34 0.34 0.0 0 0 38.67 33.09
  Q 39.09 28.91 38.76 24.53
  Q 38.75 24.46 38.62 24.38
  Q 38.49 24.31 38.43 24.34
  Q 34.51 26.34 31.16 28.87
  A 0.34 0.34 0.0 0 0 31.12 29.37
  Q 32.63 31.02 34.35 31.98"
/>
<path stroke="#d3b9c3" vector-effect="non-scaling-stroke" d="
  M 25.78 25.62
  Q 26.38 35.45 33.47 41.10
  A 1.37 1.37 0.0 0 0 34.38 41.40
  Q 38.86 41.28 46.36 38.33
  Q 48.39 37.53 48.66 35.95
  A 0.50 0.50 0.0 0 0 48.13 35.37
  Q 42.86 35.83 42.30 35.91
  C 37.01 36.68 31.68 34.62 28.64 30.27
  C 27.47 28.60 26.93 26.68 26.21 25.48
  A 0.23 0.23 0.0 0 0 25.78 25.62"
/>
<path stroke="#d3b9c3" vector-effect="non-scaling-stroke" d="
  M 46.16 41.38
  Q 46.03 41.39 39.94 43.12
  C 33.78 44.87 27.42 44.47 20.85 43.15
  A 0.24 0.24 0.0 0 0 20.63 43.55
  C 24.83 48.09 28.25 48.87 34.69 50.59
  A 1.38 1.38 0.0 0 0 35.70 50.47
  Q 37.70 49.40 40.97 47.73
  Q 43.50 46.43 46.45 41.88
  A 0.33 0.32 14.9 0 0 46.16 41.38"
/>
<path stroke="#d3b9c3" vector-effect="non-scaling-stroke" d="
  M 22.67 51.98
  Q 23.29 52.36 25.12 51.01
  A 0.29 0.29 0.0 0 0 25.08 50.52
  Q 24.53 50.22 23.95 49.86
  Q 23.36 49.51 22.84 49.16
  A 0.29 0.29 0.0 0 0 22.38 49.36
  Q 22.04 51.61 22.67 51.98"
/>
</g>
<path fill="#563a44" d="
  M 33.79 88.00
  L 33.14 88.00
  Q 16.03 72.84 6.33 53.20
  Q 2.34 45.12 1.64 35.45
  Q 0.94 25.73 5.38 17.74
  C 11.54 6.68 23.79 0.19 36.85 1.51
  C 53.40 3.18 66.09 17.31 65.46 33.91
  Q 65.18 41.54 62.40 48.84
  C 56.77 63.66 45.45 77.41 33.79 88.00
  Z
  M 33.40 86.69
  Q 33.54 86.69 33.68 86.66
  A 0.12 0.10 10.5 0 0 33.73 86.63
  Q 48.39 72.87 57.24 57.14
  C 66.74 40.25 68.29 20.20 50.95 7.91
  Q 43.28 2.48 33.53 2.46
  Q 23.78 2.45 16.09 7.86
  C -1.29 20.10 0.20 40.15 9.65 57.07
  Q 18.46 72.83 33.08 86.63
  A 0.12 0.10 -10.3 0 0 33.13 86.66
  Q 33.26 86.69 33.40 86.69
  Z"
/>
<path fill="#a77387" d="
  M 33.53 2.46
  Q 43.28 2.48 50.95 7.91
  C 68.29 20.20 66.74 40.25 57.24 57.14
  Q 48.39 72.87 33.73 86.63
  A 0.12 0.10 10.5 0 1 33.68 86.66
  Q 33.54 86.69 33.40 86.69
  Q 33.26 86.69 33.13 86.66
  A 0.12 0.10 -10.3 0 1 33.08 86.63
  Q 18.46 72.83 9.65 57.07
  C 0.20 40.15 -1.29 20.10 16.09 7.86
  Q 23.78 2.45 33.53 2.46
  Z
  M 41.76 23.77
  L 43.35 22.86
  A 1.00 1.00 0.0 0 0 43.84 22.00
  L 43.84 16.39
  A 0.49 0.49 0.0 0 0 43.10 15.97
  L 37.61 19.14
  A 1.06 1.04 75.5 0 0 37.08 20.06
  L 37.08 21.57
  A 0.48 0.48 0.0 0 0 37.80 21.98
  L 40.45 20.45
  A 0.51 0.51 0.0 0 1 41.21 20.89
  L 41.21 23.45
  A 0.37 0.37 0.0 0 0 41.76 23.77
  Z
  M 33.28 16.55
  L 27.27 20.92
  A 0.59 0.58 56.9 0 0 27.11 21.69
  L 29.84 26.41
  A 0.15 0.15 0.0 0 0 30.06 26.46
  L 34.30 23.37
  A 0.78 0.78 0.0 0 0 34.63 22.63
  L 34.01 16.87
  A 0.46 0.46 0.0 0 0 33.28 16.55
  Z
  M 29.46 41.17
  Q 23.00 33.98 23.11 23.25
  A 0.31 0.31 0.0 0 0 22.59 23.02
  Q 15.93 29.40 17.75 38.91
  A 0.89 0.88 -86.7 0 0 18.35 39.59
  Q 23.75 41.40 29.25 41.63
  A 0.28 0.27 70.0 0 0 29.46 41.17
  Z
  M 48.57 24.49
  A 0.49 0.49 0.0 0 0 47.87 24.00
  L 42.23 26.60
  A 0.84 0.84 0.0 0 0 41.73 27.31
  L 41.22 32.92
  A 0.16 0.16 0.0 0 0 41.39 33.09
  L 47.24 33.00
  A 0.63 0.62 2.2 0 0 47.86 32.43
  L 48.57 24.49
  Z
  M 34.35 31.98
  Q 36.07 32.95 38.26 33.39
  A 0.34 0.34 0.0 0 0 38.67 33.09
  Q 39.09 28.91 38.76 24.53
  Q 38.75 24.46 38.62 24.38
  Q 38.49 24.31 38.43 24.34
  Q 34.51 26.34 31.16 28.87
  A 0.34 0.34 0.0 0 0 31.12 29.37
  Q 32.63 31.02 34.35 31.98
  Z
  M 25.78 25.62
  Q 26.38 35.45 33.47 41.10
  A 1.37 1.37 0.0 0 0 34.38 41.40
  Q 38.86 41.28 46.36 38.33
  Q 48.39 37.53 48.66 35.95
  A 0.50 0.50 0.0 0 0 48.13 35.37
  Q 42.86 35.83 42.30 35.91
  C 37.01 36.68 31.68 34.62 28.64 30.27
  C 27.47 28.60 26.93 26.68 26.21 25.48
  A 0.23 0.23 0.0 0 0 25.78 25.62
  Z
  M 46.16 41.38
  Q 46.03 41.39 39.94 43.12
  C 33.78 44.87 27.42 44.47 20.85 43.15
  A 0.24 0.24 0.0 0 0 20.63 43.55
  C 24.83 48.09 28.25 48.87 34.69 50.59
  A 1.38 1.38 0.0 0 0 35.70 50.47
  Q 37.70 49.40 40.97 47.73
  Q 43.50 46.43 46.45 41.88
  A 0.33 0.32 14.9 0 0 46.16 41.38
  Z
  M 22.67 51.98
  Q 23.29 52.36 25.12 51.01
  A 0.29 0.29 0.0 0 0 25.08 50.52
  Q 24.53 50.22 23.95 49.86
  Q 23.36 49.51 22.84 49.16
  A 0.29 0.29 0.0 0 0 22.38 49.36
  Q 22.04 51.61 22.67 51.98
  Z"
/>
<path fill="#ffffff" d="
  M 41.21 23.45
  L 41.21 20.89
  A 0.51 0.51 0.0 0 0 40.45 20.45
  L 37.80 21.98
  A 0.48 0.48 0.0 0 1 37.08 21.57
  L 37.08 20.06
  A 1.06 1.04 75.5 0 1 37.61 19.14
  L 43.10 15.97
  A 0.49 0.49 0.0 0 1 43.84 16.39
  L 43.84 22.00
  A 1.00 1.00 0.0 0 1 43.35 22.86
  L 41.76 23.77
  A 0.37 0.37 0.0 0 1 41.21 23.45
  Z"
/>
<path fill="#ffffff" d="
  M 33.28 16.55
  A 0.46 0.46 0.0 0 1 34.01 16.87
  L 34.63 22.63
  A 0.78 0.78 0.0 0 1 34.30 23.37
  L 30.06 26.46
  A 0.15 0.15 0.0 0 1 29.84 26.41
  L 27.11 21.69
  A 0.59 0.58 56.9 0 1 27.27 20.92
  L 33.28 16.55
  Z"
/>
<path fill="#ffffff" d="
  M 29.25 41.63
  Q 23.75 41.40 18.35 39.59
  A 0.89 0.88 -86.7 0 1 17.75 38.91
  Q 15.93 29.40 22.59 23.02
  A 0.31 0.31 0.0 0 1 23.11 23.25
  Q 23.00 33.98 29.46 41.17
  A 0.28 0.27 70.0 0 1 29.25 41.63
  Z"
/>
<path fill="#ffffff" d="
  M 48.57 24.49
  L 47.86 32.43
  A 0.63 0.62 2.2 0 1 47.24 33.00
  L 41.39 33.09
  A 0.16 0.16 0.0 0 1 41.22 32.92
  L 41.73 27.31
  A 0.84 0.84 0.0 0 1 42.23 26.60
  L 47.87 24.00
  A 0.49 0.49 0.0 0 1 48.57 24.49
  Z"
/>
<path fill="#ffffff" d="
  M 38.62 24.38
  Q 38.75 24.46 38.76 24.53
  Q 39.09 28.91 38.67 33.09
  A 0.34 0.34 0.0 0 1 38.26 33.39
  Q 36.07 32.95 34.35 31.98
  Q 32.63 31.02 31.12 29.37
  A 0.34 0.34 0.0 0 1 31.16 28.87
  Q 34.51 26.34 38.43 24.34
  Q 38.49 24.31 38.62 24.38
  Z"
/>
<path fill="#ffffff" d="
  M 26.21 25.48
  C 26.93 26.68 27.47 28.60 28.64 30.27
  C 31.68 34.62 37.01 36.68 42.30 35.91
  Q 42.86 35.83 48.13 35.37
  A 0.50 0.50 0.0 0 1 48.66 35.95
  Q 48.39 37.53 46.36 38.33
  Q 38.86 41.28 34.38 41.40
  A 1.37 1.37 0.0 0 1 33.47 41.10
  Q 26.38 35.45 25.78 25.62
  A 0.23 0.23 0.0 0 1 26.21 25.48
  Z"
/>
<path fill="#ffffff" d="
  M 46.45 41.88
  Q 43.50 46.43 40.97 47.73
  Q 37.70 49.40 35.70 50.47
  A 1.38 1.38 0.0 0 1 34.69 50.59
  C 28.25 48.87 24.83 48.09 20.63 43.55
  A 0.24 0.24 0.0 0 1 20.85 43.15
  C 27.42 44.47 33.78 44.87 39.94 43.12
  Q 46.03 41.39 46.16 41.38
  A 0.33 0.32 14.9 0 1 46.45 41.88
  Z"
/>
<path fill="#ffffff" d="
  M 23.95 49.86
  Q 24.53 50.22 25.08 50.52
  A 0.29 0.29 0.0 0 1 25.12 51.01
  Q 23.29 52.36 22.67 51.98
  Q 22.04 51.61 22.38 49.36
  A 0.29 0.29 0.0 0 1 22.84 49.16
  Q 23.36 49.51 23.95 49.86
  Z"
/>
</svg>
