<?xml version="1.0" encoding="UTF-8" standalone="no"?>
<!DOCTYPE svg PUBLIC "-//W3C//DTD SVG 1.1//EN" "http://www.w3.org/Graphics/SVG/1.1/DTD/svg11.dtd">
<svg xmlns="http://www.w3.org/2000/svg" version="1.1" viewBox="0.00 0.00 66.00 88.00">
<g stroke-width="2.00" fill="none" stroke-linecap="butt">
<path stroke="#6c427b" vector-effect="non-scaling-stroke" d="
  M 33.41 86.70
  Q 33.52 86.70 33.62 86.68
  Q 33.70 86.66 33.79 86.57
  C 51.42 70.23 78.12 35.49 55.91 12.11
  Q 47.52 3.29 35.00 2.52
  Q 34.26 2.47 33.53 2.47
  Q 32.79 2.47 32.06 2.51
  Q 19.54 3.25 11.12 12.05
  C -11.15 35.37 15.45 70.18 33.03 86.57
  Q 33.12 86.66 33.20 86.67
  Q 33.30 86.70 33.41 86.70"
/>
<path stroke="#c7acd0" vector-effect="non-scaling-stroke" d="
  M 33.37 51.62
  Q 33.43 51.62 33.48 51.60
  A 0.42 0.18 -69.1 0 0 33.64 51.43
  Q 34.87 49.42 35.67 48.89
  C 44.68 42.94 52.60 38.45 48.20 25.52
  A 0.22 0.22 0.0 0 0 47.77 25.60
  Q 47.80 27.07 47.09 29.35
  A 2.61 1.98 -69.2 0 1 44.11 31.22
  C 42.84 30.58 42.88 28.37 43.81 27.21
  A 1.02 1.01 -37.3 0 0 43.95 26.19
  Q 41.32 19.82 36.06 16.22
  A 0.32 0.31 -89.2 0 0 35.62 16.65
  C 37.66 19.90 39.42 25.40 37.88 29.08
  Q 36.54 32.28 33.42 32.27
  Q 30.31 32.26 28.99 29.06
  C 27.47 25.36 29.26 19.88 31.32 16.64
  A 0.32 0.31 89.5 0 0 30.88 16.20
  Q 25.60 19.77 22.93 26.13
  A 1.02 1.01 37.6 0 0 23.07 27.15
  C 23.99 28.31 24.02 30.52 22.74 31.16
  A 2.61 1.98 69.6 0 1 19.77 29.27
  Q 19.08 26.99 19.11 25.52
  A 0.22 0.22 0.0 0 0 18.69 25.43
  C 14.21 38.34 22.10 42.87 31.08 48.88
  Q 31.87 49.41 33.09 51.43
  A 0.42 0.18 69.5 0 0 33.26 51.60
  Q 33.30 51.62 33.37 51.62"
/>
<path stroke="#c7acd0" vector-effect="non-scaling-stroke" d="
  M 38.45 40.29
  A 5.02 5.02 0.0 0 0 33.43 35.27
  A 5.02 5.02 0.0 0 0 28.41 40.29
  A 5.02 5.02 0.0 0 0 33.43 45.31
  A 5.02 5.02 0.0 0 0 38.45 40.29"
/>
</g>
<path fill="#492b55" d="
  M 33.78 88.00
  L 33.13 88.00
  C 16.32 73.08 -8.16 41.71 5.34 17.86
  C 18.18 -4.83 50.90 -4.07 62.54 19.60
  C 68.76 32.25 64.30 47.36 57.55 58.84
  Q 47.95 75.16 33.78 88.00
  Z
  M 33.41 86.70
  Q 33.52 86.70 33.62 86.68
  Q 33.70 86.66 33.79 86.57
  C 51.42 70.23 78.12 35.49 55.91 12.11
  Q 47.52 3.29 35.00 2.52
  Q 34.26 2.47 33.53 2.47
  Q 32.79 2.47 32.06 2.51
  Q 19.54 3.25 11.12 12.05
  C -11.15 35.37 15.45 70.18 33.03 86.57
  Q 33.12 86.66 33.20 86.67
  Q 33.30 86.70 33.41 86.70
  Z"
/>
<path fill="#8e58a1" d="
  M 33.53 2.47
  Q 34.26 2.47 35.00 2.52
  Q 47.52 3.29 55.91 12.11
  C 78.12 35.49 51.42 70.23 33.79 86.57
  Q 33.70 86.66 33.62 86.68
  Q 33.52 86.70 33.41 86.70
  Q 33.30 86.70 33.20 86.67
  Q 33.12 86.66 33.03 86.57
  C 15.45 70.18 -11.15 35.37 11.12 12.05
  Q 19.54 3.25 32.06 2.51
  Q 32.79 2.47 33.53 2.47
  Z
  M 33.37 51.62
  Q 33.43 51.62 33.48 51.60
  A 0.42 0.18 -69.1 0 0 33.64 51.43
  Q 34.87 49.42 35.67 48.89
  C 44.68 42.94 52.60 38.45 48.20 25.52
  A 0.22 0.22 0.0 0 0 47.77 25.60
  Q 47.80 27.07 47.09 29.35
  A 2.61 1.98 -69.2 0 1 44.11 31.22
  C 42.84 30.58 42.88 28.37 43.81 27.21
  A 1.02 1.01 -37.3 0 0 43.95 26.19
  Q 41.32 19.82 36.06 16.22
  A 0.32 0.31 -89.2 0 0 35.62 16.65
  C 37.66 19.90 39.42 25.40 37.88 29.08
  Q 36.54 32.28 33.42 32.27
  Q 30.31 32.26 28.99 29.06
  C 27.47 25.36 29.26 19.88 31.32 16.64
  A 0.32 0.31 89.5 0 0 30.88 16.20
  Q 25.60 19.77 22.93 26.13
  A 1.02 1.01 37.6 0 0 23.07 27.15
  C 23.99 28.31 24.02 30.52 22.74 31.16
  A 2.61 1.98 69.6 0 1 19.77 29.27
  Q 19.08 26.99 19.11 25.52
  A 0.22 0.22 0.0 0 0 18.69 25.43
  C 14.21 38.34 22.10 42.87 31.08 48.88
  Q 31.87 49.41 33.09 51.43
  A 0.42 0.18 69.5 0 0 33.26 51.60
  Q 33.30 51.62 33.37 51.62
  Z"
/>
<path fill="#ffffff" d="
  M 33.42 32.27
  Q 36.54 32.28 37.88 29.08
  C 39.42 25.40 37.66 19.90 35.62 16.65
  A 0.32 0.31 -89.2 0 1 36.06 16.22
  Q 41.32 19.82 43.95 26.19
  A 1.02 1.01 -37.3 0 1 43.81 27.21
  C 42.88 28.37 42.84 30.58 44.11 31.22
  A 2.61 1.98 -69.2 0 0 47.09 29.35
  Q 47.80 27.07 47.77 25.60
  A 0.22 0.22 0.0 0 1 48.20 25.52
  C 52.60 38.45 44.68 42.94 35.67 48.89
  Q 34.87 49.42 33.64 51.43
  A 0.42 0.18 -69.1 0 1 33.48 51.60
  Q 33.43 51.62 33.37 51.62
  Q 33.30 51.62 33.26 51.60
  A 0.42 0.18 69.5 0 1 33.09 51.43
  Q 31.87 49.41 31.08 48.88
  C 22.10 42.87 14.21 38.34 18.69 25.43
  A 0.22 0.22 0.0 0 1 19.11 25.52
  Q 19.08 26.99 19.77 29.27
  A 2.61 1.98 69.6 0 0 22.74 31.16
  C 24.02 30.52 23.99 28.31 23.07 27.15
  A 1.02 1.01 37.6 0 1 22.93 26.13
  Q 25.60 19.77 30.88 16.20
  A 0.32 0.31 89.5 0 1 31.32 16.64
  C 29.26 19.88 27.47 25.36 28.99 29.06
  Q 30.31 32.26 33.42 32.27
  Z
  M 38.45 40.29
  A 5.02 5.02 0.0 0 0 33.43 35.27
  A 5.02 5.02 0.0 0 0 28.41 40.29
  A 5.02 5.02 0.0 0 0 33.43 45.31
  A 5.02 5.02 0.0 0 0 38.45 40.29
  Z"
/>
<circle fill="#8e58a1" cx="33.43" cy="40.29" r="5.02"/>
</svg>
