<?xml version="1.0" encoding="UTF-8" standalone="no"?>
<!DOCTYPE svg PUBLIC "-//W3C//DTD SVG 1.1//EN" "http://www.w3.org/Graphics/SVG/1.1/DTD/svg11.dtd">
<svg xmlns="http://www.w3.org/2000/svg" version="1.1" viewBox="0.00 0.00 66.00 88.00">
<g stroke-width="2.00" fill="none" stroke-linecap="butt">
<path stroke="#9e3c35" vector-effect="non-scaling-stroke" d="
  M 33.41 86.71
  Q 33.52 86.71 33.62 86.69
  Q 33.66 86.68 33.78 86.57
  Q 47.56 73.49 56.14 59.15
  C 60.29 52.21 63.82 43.52 64.19 35.10
  Q 64.43 29.55 63.86 27.24
  Q 59.27 8.31 40.50 3.29
  Q 37.42 2.47 33.52 2.46
  Q 29.62 2.46 26.54 3.27
  Q 7.76 8.24 3.12 27.16
  Q 2.54 29.47 2.77 35.02
  C 3.12 43.44 6.62 52.14 10.76 59.09
  Q 19.30 73.45 33.04 86.57
  Q 33.16 86.68 33.20 86.69
  Q 33.30 86.71 33.41 86.71"
/>
<path stroke="#e8a8a4" vector-effect="non-scaling-stroke" d="
  M 32.68 31.76
  C 37.42 31.76 39.64 31.16 43.87 29.56
  A 0.83 0.82 73.1 0 0 44.38 28.60
  Q 44.36 28.52 44.35 28.49
  A 1.17 1.16 70.5 0 1 44.88 27.38
  Q 46.78 26.18 47.99 24.06
  A 1.22 1.21 -52.5 0 0 47.80 22.59
  L 47.51 22.30
  A 0.93 0.92 44.8 0 0 46.20 22.30
  L 43.59 24.91
  A 0.59 0.59 0.0 0 1 42.66 24.79
  Q 40.85 21.73 37.98 20.00
  A 0.60 0.60 0.0 0 1 37.87 19.06
  L 39.03 17.89
  A 1.13 1.13 0.0 0 0 39.10 16.35
  L 38.90 16.11
  A 1.31 1.30 -43.2 0 0 37.08 16.06
  Q 35.85 17.18 35.49 17.99
  A 1.00 1.00 0.0 0 1 34.52 18.56
  Q 33.60 18.49 32.69 18.49
  Q 31.78 18.49 30.86 18.56
  A 1.00 1.00 0.0 0 1 29.89 17.99
  Q 29.53 17.18 28.30 16.06
  A 1.31 1.30 43.3 0 0 26.48 16.11
  L 26.28 16.34
  A 1.13 1.13 0.0 0 0 26.35 17.89
  L 27.51 19.06
  A 0.60 0.60 0.0 0 1 27.40 20.00
  Q 24.52 21.72 22.71 24.78
  A 0.59 0.59 0.0 0 1 21.78 24.90
  L 19.17 22.29
  A 0.93 0.92 -44.7 0 0 17.86 22.29
  L 17.57 22.58
  A 1.22 1.21 52.5 0 0 17.38 24.05
  Q 18.59 26.17 20.49 27.37
  A 1.17 1.16 -70.5 0 1 21.02 28.48
  Q 21.01 28.51 20.99 28.59
  A 0.83 0.82 -73.0 0 0 21.50 29.55
  C 25.73 31.16 27.94 31.76 32.68 31.76"
/>
<path stroke="#e8a8a4" vector-effect="non-scaling-stroke" d="
  M 32.70 34.45
  C 28.69 34.46 23.65 33.49 20.62 31.92
  A 0.43 0.43 0.0 0 0 19.99 32.30
  L 19.99 34.31
  A 0.63 0.63 0.0 0 1 18.92 34.75
  L 17.15 32.98
  A 1.29 1.28 -44.8 0 0 15.34 32.98
  L 15.13 33.20
  A 1.35 1.35 0.0 0 0 15.10 35.09
  Q 17.23 37.35 19.50 37.80
  A 0.82 0.81 5.6 0 1 20.16 38.60
  L 20.16 39.06
  A 0.90 0.90 0.0 0 0 20.52 39.78
  C 24.10 42.49 28.19 43.77 32.71 43.77
  C 37.23 43.76 41.31 42.48 44.89 39.76
  A 0.90 0.90 0.0 0 0 45.25 39.04
  L 45.25 38.58
  A 0.82 0.81 -5.7 0 1 45.91 37.78
  Q 48.18 37.33 50.31 35.06
  A 1.35 1.35 0.0 0 0 50.27 33.17
  L 50.06 32.95
  A 1.29 1.28 44.8 0 0 48.25 32.96
  L 46.48 34.73
  A 0.63 0.63 0.0 0 1 45.41 34.29
  L 45.41 32.28
  A 0.43 0.43 0.0 0 0 44.78 31.90
  C 41.75 33.48 36.71 34.45 32.70 34.45"
/>
<path stroke="#e8a8a4" vector-effect="non-scaling-stroke" d="
  M 32.69 52.20
  Q 37.46 52.21 40.82 48.44
  A 0.84 0.83 -61.2 0 1 41.67 48.19
  Q 44.37 48.90 46.61 48.25
  A 1.26 1.25 -8.4 0 0 47.51 47.05
  L 47.51 46.60
  A 0.92 0.92 0.0 0 0 46.59 45.68
  L 43.85 45.68
  A 0.44 0.43 90.0 0 1 43.42 45.24
  L 43.42 44.45
  A 0.37 0.37 0.0 0 0 42.90 44.12
  Q 37.55 46.47 32.70 46.46
  Q 27.84 46.45 22.50 44.07
  A 0.37 0.37 0.0 0 0 21.98 44.41
  L 21.98 45.20
  A 0.44 0.43 -89.8 0 1 21.55 45.64
  L 18.81 45.62
  A 0.92 0.92 0.0 0 0 17.89 46.54
  L 17.88 46.99
  A 1.26 1.25 8.7 0 0 18.78 48.19
  Q 21.02 48.85 23.72 48.15
  A 0.84 0.83 61.5 0 1 24.57 48.41
  Q 27.91 52.19 32.69 52.20"
/>
</g>
<path fill="#6c2722" d="
  M 33.80 88.00
  L 33.04 88.00
  C 22.18 78.20 12.04 65.63 5.74 51.77
  Q 2.19 43.97 1.59 34.97
  C 0.54 19.03 11.18 5.63 26.48 2.12
  C 46.02 -2.35 66.28 12.67 65.46 33.76
  Q 65.19 40.71 63.05 47.02
  C 57.78 62.54 45.81 77.09 33.80 88.00
  Z
  M 33.41 86.71
  Q 33.52 86.71 33.62 86.69
  Q 33.66 86.68 33.78 86.57
  Q 47.56 73.49 56.14 59.15
  C 60.29 52.21 63.82 43.52 64.19 35.10
  Q 64.43 29.55 63.86 27.24
  Q 59.27 8.31 40.50 3.29
  Q 37.42 2.47 33.52 2.46
  Q 29.62 2.46 26.54 3.27
  Q 7.76 8.24 3.12 27.16
  Q 2.54 29.47 2.77 35.02
  C 3.12 43.44 6.62 52.14 10.76 59.09
  Q 19.30 73.45 33.04 86.57
  Q 33.16 86.68 33.20 86.69
  Q 33.30 86.71 33.41 86.71
  Z"
/>
<path fill="#d05148" d="
  M 33.52 2.46
  Q 37.42 2.47 40.50 3.29
  Q 59.27 8.31 63.86 27.24
  Q 64.43 29.55 64.19 35.10
  C 63.82 43.52 60.29 52.21 56.14 59.15
  Q 47.56 73.49 33.78 86.57
  Q 33.66 86.68 33.62 86.69
  Q 33.52 86.71 33.41 86.71
  Q 33.30 86.71 33.20 86.69
  Q 33.16 86.68 33.04 86.57
  Q 19.30 73.45 10.76 59.09
  C 6.62 52.14 3.12 43.44 2.77 35.02
  Q 2.54 29.47 3.12 27.16
  Q 7.76 8.24 26.54 3.27
  Q 29.62 2.46 33.52 2.46
  Z
  M 32.68 31.76
  C 37.42 31.76 39.64 31.16 43.87 29.56
  A 0.83 0.82 73.1 0 0 44.38 28.60
  Q 44.36 28.52 44.35 28.49
  A 1.17 1.16 70.5 0 1 44.88 27.38
  Q 46.78 26.18 47.99 24.06
  A 1.22 1.21 -52.5 0 0 47.80 22.59
  L 47.51 22.30
  A 0.93 0.92 44.8 0 0 46.20 22.30
  L 43.59 24.91
  A 0.59 0.59 0.0 0 1 42.66 24.79
  Q 40.85 21.73 37.98 20.00
  A 0.60 0.60 0.0 0 1 37.87 19.06
  L 39.03 17.89
  A 1.13 1.13 0.0 0 0 39.10 16.35
  L 38.90 16.11
  A 1.31 1.30 -43.2 0 0 37.08 16.06
  Q 35.85 17.18 35.49 17.99
  A 1.00 1.00 0.0 0 1 34.52 18.56
  Q 33.60 18.49 32.69 18.49
  Q 31.78 18.49 30.86 18.56
  A 1.00 1.00 0.0 0 1 29.89 17.99
  Q 29.53 17.18 28.30 16.06
  A 1.31 1.30 43.3 0 0 26.48 16.11
  L 26.28 16.34
  A 1.13 1.13 0.0 0 0 26.35 17.89
  L 27.51 19.06
  A 0.60 0.60 0.0 0 1 27.40 20.00
  Q 24.52 21.72 22.71 24.78
  A 0.59 0.59 0.0 0 1 21.78 24.90
  L 19.17 22.29
  A 0.93 0.92 -44.7 0 0 17.86 22.29
  L 17.57 22.58
  A 1.22 1.21 52.5 0 0 17.38 24.05
  Q 18.59 26.17 20.49 27.37
  A 1.17 1.16 -70.5 0 1 21.02 28.48
  Q 21.01 28.51 20.99 28.59
  A 0.83 0.82 -73.0 0 0 21.50 29.55
  C 25.73 31.16 27.94 31.76 32.68 31.76
  Z
  M 32.70 34.45
  C 28.69 34.46 23.65 33.49 20.62 31.92
  A 0.43 0.43 0.0 0 0 19.99 32.30
  L 19.99 34.31
  A 0.63 0.63 0.0 0 1 18.92 34.75
  L 17.15 32.98
  A 1.29 1.28 -44.8 0 0 15.34 32.98
  L 15.13 33.20
  A 1.35 1.35 0.0 0 0 15.10 35.09
  Q 17.23 37.35 19.50 37.80
  A 0.82 0.81 5.6 0 1 20.16 38.60
  L 20.16 39.06
  A 0.90 0.90 0.0 0 0 20.52 39.78
  C 24.10 42.49 28.19 43.77 32.71 43.77
  C 37.23 43.76 41.31 42.48 44.89 39.76
  A 0.90 0.90 0.0 0 0 45.25 39.04
  L 45.25 38.58
  A 0.82 0.81 -5.7 0 1 45.91 37.78
  Q 48.18 37.33 50.31 35.06
  A 1.35 1.35 0.0 0 0 50.27 33.17
  L 50.06 32.95
  A 1.29 1.28 44.8 0 0 48.25 32.96
  L 46.48 34.73
  A 0.63 0.63 0.0 0 1 45.41 34.29
  L 45.41 32.28
  A 0.43 0.43 0.0 0 0 44.78 31.90
  C 41.75 33.48 36.71 34.45 32.70 34.45
  Z
  M 32.69 52.20
  Q 37.46 52.21 40.82 48.44
  A 0.84 0.83 -61.2 0 1 41.67 48.19
  Q 44.37 48.90 46.61 48.25
  A 1.26 1.25 -8.4 0 0 47.51 47.05
  L 47.51 46.60
  A 0.92 0.92 0.0 0 0 46.59 45.68
  L 43.85 45.68
  A 0.44 0.43 90.0 0 1 43.42 45.24
  L 43.42 44.45
  A 0.37 0.37 0.0 0 0 42.90 44.12
  Q 37.55 46.47 32.70 46.46
  Q 27.84 46.45 22.50 44.07
  A 0.37 0.37 0.0 0 0 21.98 44.41
  L 21.98 45.20
  A 0.44 0.43 -89.8 0 1 21.55 45.64
  L 18.81 45.62
  A 0.92 0.92 0.0 0 0 17.89 46.54
  L 17.88 46.99
  A 1.26 1.25 8.7 0 0 18.78 48.19
  Q 21.02 48.85 23.72 48.15
  A 0.84 0.83 61.5 0 1 24.57 48.41
  Q 27.91 52.19 32.69 52.20
  Z"
/>
<path fill="#ffffff" d="
  M 32.69 18.49
  Q 33.60 18.49 34.52 18.56
  A 1.00 1.00 0.0 0 0 35.49 17.99
  Q 35.85 17.18 37.08 16.06
  A 1.31 1.30 -43.2 0 1 38.90 16.11
  L 39.10 16.35
  A 1.13 1.13 0.0 0 1 39.03 17.89
  L 37.87 19.06
  A 0.60 0.60 0.0 0 0 37.98 20.00
  Q 40.85 21.73 42.66 24.79
  A 0.59 0.59 0.0 0 0 43.59 24.91
  L 46.20 22.30
  A 0.93 0.92 44.8 0 1 47.51 22.30
  L 47.80 22.59
  A 1.22 1.21 -52.5 0 1 47.99 24.06
  Q 46.78 26.18 44.88 27.38
  A 1.17 1.16 70.5 0 0 44.35 28.49
  Q 44.36 28.52 44.38 28.60
  A 0.83 0.82 73.1 0 1 43.87 29.56
  C 39.64 31.16 37.42 31.76 32.68 31.76
  C 27.94 31.76 25.73 31.16 21.50 29.55
  A 0.83 0.82 -73.0 0 1 20.99 28.59
  Q 21.01 28.51 21.02 28.48
  A 1.17 1.16 -70.5 0 0 20.49 27.37
  Q 18.59 26.17 17.38 24.05
  A 1.22 1.21 52.5 0 1 17.57 22.58
  L 17.86 22.29
  A 0.93 0.92 -44.7 0 1 19.17 22.29
  L 21.78 24.90
  A 0.59 0.59 0.0 0 0 22.71 24.78
  Q 24.52 21.72 27.40 20.00
  A 0.60 0.60 0.0 0 0 27.51 19.06
  L 26.35 17.89
  A 1.13 1.13 0.0 0 1 26.28 16.34
  L 26.48 16.11
  A 1.31 1.30 43.3 0 1 28.30 16.06
  Q 29.53 17.18 29.89 17.99
  A 1.00 1.00 0.0 0 0 30.86 18.56
  Q 31.78 18.49 32.69 18.49
  Z"
/>
<path fill="#ffffff" d="
  M 32.71 43.77
  C 28.19 43.77 24.10 42.49 20.52 39.78
  A 0.90 0.90 0.0 0 1 20.16 39.06
  L 20.16 38.60
  A 0.82 0.81 5.6 0 0 19.50 37.80
  Q 17.23 37.35 15.10 35.09
  A 1.35 1.35 0.0 0 1 15.13 33.20
  L 15.34 32.98
  A 1.29 1.28 -44.8 0 1 17.15 32.98
  L 18.92 34.75
  A 0.63 0.63 0.0 0 0 19.99 34.31
  L 19.99 32.30
  A 0.43 0.43 0.0 0 1 20.62 31.92
  C 23.65 33.49 28.69 34.46 32.70 34.45
  C 36.71 34.45 41.75 33.48 44.78 31.90
  A 0.43 0.43 0.0 0 1 45.41 32.28
  L 45.41 34.29
  A 0.63 0.63 0.0 0 0 46.48 34.73
  L 48.25 32.96
  A 1.29 1.28 44.8 0 1 50.06 32.95
  L 50.27 33.17
  A 1.35 1.35 0.0 0 1 50.31 35.06
  Q 48.18 37.33 45.91 37.78
  A 0.82 0.81 -5.7 0 0 45.25 38.58
  L 45.25 39.04
  A 0.90 0.90 0.0 0 1 44.89 39.76
  C 41.31 42.48 37.23 43.76 32.71 43.77
  Z"
/>
<path fill="#ffffff" d="
  M 32.70 46.46
  Q 37.55 46.47 42.90 44.12
  A 0.37 0.37 0.0 0 1 43.42 44.45
  L 43.42 45.24
  A 0.44 0.43 -90.0 0 0 43.85 45.68
  L 46.59 45.68
  A 0.92 0.92 0.0 0 1 47.51 46.60
  L 47.51 47.05
  A 1.26 1.25 -8.4 0 1 46.61 48.25
  Q 44.37 48.90 41.67 48.19
  A 0.84 0.83 -61.2 0 0 40.82 48.44
  Q 37.46 52.21 32.69 52.20
  Q 27.91 52.19 24.57 48.41
  A 0.84 0.83 61.5 0 0 23.72 48.15
  Q 21.02 48.85 18.78 48.19
  A 1.26 1.25 8.7 0 1 17.88 46.99
  L 17.89 46.54
  A 0.92 0.92 0.0 0 1 18.81 45.62
  L 21.55 45.64
  A 0.44 0.43 -89.8 0 0 21.98 45.20
  L 21.98 44.41
  A 0.37 0.37 0.0 0 1 22.50 44.07
  Q 27.84 46.45 32.70 46.46
  Z"
/>
</svg>
