<?xml version="1.0" encoding="UTF-8" standalone="no"?>
<!DOCTYPE svg PUBLIC "-//W3C//DTD SVG 1.1//EN" "http://www.w3.org/Graphics/SVG/1.1/DTD/svg11.dtd">
<svg xmlns="http://www.w3.org/2000/svg" version="1.1" viewBox="0.00 0.00 66.00 88.00">
<g stroke-width="2.00" fill="none" stroke-linecap="butt">
<path stroke="#425a74" vector-effect="non-scaling-stroke" d="
  M 33.40 86.69
  Q 33.51 86.69 33.61 86.67
  Q 33.70 86.66 33.77 86.58
  Q 48.56 72.85 57.70 56.24
  C 64.68 43.57 67.63 27.62 58.75 15.51
  Q 49.89 3.44 34.75 2.51
  Q 34.03 2.46 33.53 2.46
  Q 33.03 2.46 32.31 2.50
  Q 17.16 3.39 8.27 15.43
  C -0.65 27.52 2.25 43.48 9.19 56.17
  Q 18.28 72.80 33.03 86.58
  Q 33.10 86.66 33.19 86.67
  Q 33.29 86.69 33.40 86.69"
/>
<path stroke="#acbbcc" vector-effect="non-scaling-stroke" d="
  M 30.00 48.54
  L 30.00 43.16
  A 0.63 0.63 0.0 0 1 30.61 42.53
  Q 34.73 42.41 46.33 42.57
  Q 51.49 42.64 51.38 37.56
  Q 51.24 31.16 51.36 23.12
  C 51.39 20.79 50.58 18.57 47.99 18.54
  Q 34.96 18.40 18.26 18.55
  Q 14.62 18.58 14.65 22.51
  Q 14.69 26.17 14.65 37.13
  C 14.64 40.24 15.16 42.30 18.56 42.44
  Q 21.20 42.54 23.65 42.53
  A 1.32 1.30 -19.9 0 1 24.65 42.99
  L 29.52 48.72
  A 0.27 0.27 0.0 0 0 30.00 48.54"
/>
<path stroke="#acbbcc" vector-effect="non-scaling-stroke" d="
  M 26.05 30.51
  A 2.20 2.20 0.0 0 0 23.85 28.31
  A 2.20 2.20 0.0 0 0 21.65 30.51
  A 2.20 2.20 0.0 0 0 23.85 32.71
  A 2.20 2.20 0.0 0 0 26.05 30.51"
/>
<path stroke="#acbbcc" vector-effect="non-scaling-stroke" d="
  M 35.18 30.51
  A 2.19 2.19 0.0 0 0 32.99 28.32
  A 2.19 2.19 0.0 0 0 30.80 30.51
  A 2.19 2.19 0.0 0 0 32.99 32.70
  A 2.19 2.19 0.0 0 0 35.18 30.51"
/>
<path stroke="#acbbcc" vector-effect="non-scaling-stroke" d="
  M 44.32 30.51
  A 2.20 2.20 0.0 0 0 42.12 28.31
  A 2.20 2.20 0.0 0 0 39.92 30.51
  A 2.20 2.20 0.0 0 0 42.12 32.71
  A 2.20 2.20 0.0 0 0 44.32 30.51"
/>
</g>
<path fill="#2a3d50" d="
  M 33.80 88.00
  L 33.14 88.00
  Q 16.04 72.85 6.33 53.20
  Q 2.29 45.01 1.63 35.35
  Q 0.97 25.51 5.49 17.55
  C 17.86 -4.25 50.29 -4.12 62.03 18.55
  C 74.57 42.79 50.56 72.72 33.80 88.00
  Z
  M 33.40 86.69
  Q 33.51 86.69 33.61 86.67
  Q 33.70 86.66 33.77 86.58
  Q 48.56 72.85 57.70 56.24
  C 64.68 43.57 67.63 27.62 58.75 15.51
  Q 49.89 3.44 34.75 2.51
  Q 34.03 2.46 33.53 2.46
  Q 33.03 2.46 32.31 2.50
  Q 17.16 3.39 8.27 15.43
  C -0.65 27.52 2.25 43.48 9.19 56.17
  Q 18.28 72.80 33.03 86.58
  Q 33.10 86.66 33.19 86.67
  Q 33.29 86.69 33.40 86.69
  Z"
/>
<path fill="#597698" d="
  M 33.53 2.46
  Q 34.03 2.46 34.75 2.51
  Q 49.89 3.44 58.75 15.51
  C 67.63 27.62 64.68 43.57 57.70 56.24
  Q 48.56 72.85 33.77 86.58
  Q 33.70 86.66 33.61 86.67
  Q 33.51 86.69 33.40 86.69
  Q 33.29 86.69 33.19 86.67
  Q 33.10 86.66 33.03 86.58
  Q 18.28 72.80 9.19 56.17
  C 2.25 43.48 -0.65 27.52 8.27 15.43
  Q 17.16 3.39 32.31 2.50
  Q 33.03 2.46 33.53 2.46
  Z
  M 30.00 48.54
  L 30.00 43.16
  A 0.63 0.63 0.0 0 1 30.61 42.53
  Q 34.73 42.41 46.33 42.57
  Q 51.49 42.64 51.38 37.56
  Q 51.24 31.16 51.36 23.12
  C 51.39 20.79 50.58 18.57 47.99 18.54
  Q 34.96 18.40 18.26 18.55
  Q 14.62 18.58 14.65 22.51
  Q 14.69 26.17 14.65 37.13
  C 14.64 40.24 15.16 42.30 18.56 42.44
  Q 21.20 42.54 23.65 42.53
  A 1.32 1.30 -19.9 0 1 24.65 42.99
  L 29.52 48.72
  A 0.27 0.27 0.0 0 0 30.00 48.54
  Z"
/>
<path fill="#ffffff" d="
  M 30.00 48.54
  A 0.27 0.27 0.0 0 1 29.52 48.72
  L 24.65 42.99
  A 1.32 1.30 -19.9 0 0 23.65 42.53
  Q 21.20 42.54 18.56 42.44
  C 15.16 42.30 14.64 40.24 14.65 37.13
  Q 14.69 26.17 14.65 22.51
  Q 14.62 18.58 18.26 18.55
  Q 34.96 18.40 47.99 18.54
  C 50.58 18.57 51.39 20.79 51.36 23.12
  Q 51.24 31.16 51.38 37.56
  Q 51.49 42.64 46.33 42.57
  Q 34.73 42.41 30.61 42.53
  A 0.63 0.63 0.0 0 0 30.00 43.16
  L 30.00 48.54
  Z
  M 26.05 30.51
  A 2.20 2.20 0.0 0 0 23.85 28.31
  A 2.20 2.20 0.0 0 0 21.65 30.51
  A 2.20 2.20 0.0 0 0 23.85 32.71
  A 2.20 2.20 0.0 0 0 26.05 30.51
  Z
  M 35.18 30.51
  A 2.19 2.19 0.0 0 0 32.99 28.32
  A 2.19 2.19 0.0 0 0 30.80 30.51
  A 2.19 2.19 0.0 0 0 32.99 32.70
  A 2.19 2.19 0.0 0 0 35.18 30.51
  Z
  M 44.32 30.51
  A 2.20 2.20 0.0 0 0 42.12 28.31
  A 2.20 2.20 0.0 0 0 39.92 30.51
  A 2.20 2.20 0.0 0 0 42.12 32.71
  A 2.20 2.20 0.0 0 0 44.32 30.51
  Z"
/>
<circle fill="#597698" cx="23.85" cy="30.51" r="2.20"/>
<circle fill="#597698" cx="32.99" cy="30.51" r="2.19"/>
<circle fill="#597698" cx="42.12" cy="30.51" r="2.20"/>
</svg>
