<?xml version="1.0" encoding="UTF-8" standalone="no"?>
<!DOCTYPE svg PUBLIC "-//W3C//DTD SVG 1.1//EN" "http://www.w3.org/Graphics/SVG/1.1/DTD/svg11.dtd">
<svg xmlns="http://www.w3.org/2000/svg" version="1.1" viewBox="0.00 0.00 66.00 88.00">
<g stroke-width="2.00" fill="none" stroke-linecap="butt">
<path stroke="#395b67" vector-effect="non-scaling-stroke" d="
  M 33.40 86.69
  Q 33.53 86.69 33.67 86.65
  A 0.10 0.07 11.2 0 0 33.72 86.63
  Q 48.55 72.86 57.71 56.24
  C 64.62 43.69 67.58 27.95 58.95 15.81
  Q 50.12 3.39 34.50 2.53
  Q 33.59 2.48 33.54 2.47
  Q 33.49 2.47 32.57 2.52
  Q 16.95 3.33 8.08 15.73
  C -0.59 27.84 2.32 43.59 9.18 56.16
  Q 18.29 72.81 33.07 86.63
  A 0.10 0.07 -11.0 0 0 33.13 86.65
  Q 33.26 86.69 33.40 86.69"
/>
<path stroke="#a6bbc3" vector-effect="non-scaling-stroke" d="
  M 26.14 26.97
  L 24.48 24.10
  A 0.68 0.68 0.0 0 0 23.40 23.97
  C 15.27 32.48 15.50 46.28 27.83 50.36
  Q 37.48 53.55 44.11 45.99
  A 0.39 0.39 0.0 0 0 43.87 45.35
  L 39.66 44.69
  A 0.13 0.13 0.0 0 1 39.63 44.44
  L 45.43 41.89
  A 3.45 3.44 82.5 0 0 47.44 39.27
  L 48.53 32.29
  A 0.90 0.90 0.0 0 0 47.10 31.44
  Q 43.53 34.19 38.47 34.66
  C 35.33 34.95 32.74 34.61 30.06 35.83
  C 27.47 37.01 27.53 39.80 29.52 41.74
  Q 32.42 44.59 34.74 44.87
  A 0.05 0.04 12.4 0 1 34.78 44.92
  L 34.73 45.26
  A 0.12 0.12 0.0 0 1 34.59 45.36
  C 30.04 44.76 22.18 42.06 24.96 35.96
  Q 26.28 33.07 29.34 33.32
  Q 33.31 33.64 37.77 34.16
  A 5.05 5.04 -50.9 0 0 39.96 33.93
  Q 45.08 32.23 47.56 26.48
  A 1.81 1.81 0.0 0 0 47.64 25.23
  C 45.68 18.30 39.64 14.18 32.64 17.44
  A 0.38 0.38 0.0 0 0 32.65 18.13
  Q 36.44 19.78 38.49 20.84
  A 3.22 3.21 -72.5 0 1 40.19 24.12
  C 39.62 28.24 33.84 26.64 31.53 25.38
  A 0.22 0.22 0.0 0 1 31.65 24.96
  C 33.46 25.06 37.83 24.91 36.09 21.67
  C 35.16 19.92 34.07 19.51 32.01 18.32
  A 0.91 0.91 0.0 0 0 31.09 18.32
  L 25.41 21.60
  A 1.26 1.26 0.0 0 0 25.00 23.41
  Q 26.01 24.86 26.48 26.83
  A 0.19 0.18 -67.0 0 1 26.14 26.97"
/>
</g>
<path fill="#243e46" d="
  M 33.81 88.00
  L 33.15 88.00
  Q 15.62 72.49 6.00 52.51
  Q 2.23 44.67 1.62 35.01
  Q 1.03 25.68 5.18 18.12
  Q 9.60 10.07 17.26 5.69
  C 38.91 -6.70 66.48 8.81 65.43 34.22
  Q 65.11 41.92 62.40 48.84
  C 56.55 63.82 45.61 77.22 33.81 88.00
  Z
  M 33.40 86.69
  Q 33.53 86.69 33.67 86.65
  A 0.10 0.07 11.2 0 0 33.72 86.63
  Q 48.55 72.86 57.71 56.24
  C 64.62 43.69 67.58 27.95 58.95 15.81
  Q 50.12 3.39 34.50 2.53
  Q 33.59 2.48 33.54 2.47
  Q 33.49 2.47 32.57 2.52
  Q 16.95 3.33 8.08 15.73
  C -0.59 27.84 2.32 43.59 9.18 56.16
  Q 18.29 72.81 33.07 86.63
  A 0.10 0.07 -11.0 0 0 33.13 86.65
  Q 33.26 86.69 33.40 86.69
  Z"
/>
<path fill="#4d7787" d="
  M 33.54 2.47
  Q 33.59 2.48 34.50 2.53
  Q 50.12 3.39 58.95 15.81
  C 67.58 27.95 64.62 43.69 57.71 56.24
  Q 48.55 72.86 33.72 86.63
  A 0.10 0.07 11.2 0 1 33.67 86.65
  Q 33.53 86.69 33.40 86.69
  Q 33.26 86.69 33.13 86.65
  A 0.10 0.07 -11.0 0 1 33.07 86.63
  Q 18.29 72.81 9.18 56.16
  C 2.32 43.59 -0.59 27.84 8.08 15.73
  Q 16.95 3.33 32.57 2.52
  Q 33.49 2.47 33.54 2.47
  Z
  M 26.14 26.97
  L 24.48 24.10
  A 0.68 0.68 0.0 0 0 23.40 23.97
  C 15.27 32.48 15.50 46.28 27.83 50.36
  Q 37.48 53.55 44.11 45.99
  A 0.39 0.39 0.0 0 0 43.87 45.35
  L 39.66 44.69
  A 0.13 0.13 0.0 0 1 39.63 44.44
  L 45.43 41.89
  A 3.45 3.44 82.5 0 0 47.44 39.27
  L 48.53 32.29
  A 0.90 0.90 0.0 0 0 47.10 31.44
  Q 43.53 34.19 38.47 34.66
  C 35.33 34.95 32.74 34.61 30.06 35.83
  C 27.47 37.01 27.53 39.80 29.52 41.74
  Q 32.42 44.59 34.74 44.87
  A 0.05 0.04 12.4 0 1 34.78 44.92
  L 34.73 45.26
  A 0.12 0.12 0.0 0 1 34.59 45.36
  C 30.04 44.76 22.18 42.06 24.96 35.96
  Q 26.28 33.07 29.34 33.32
  Q 33.31 33.64 37.77 34.16
  A 5.05 5.04 -50.9 0 0 39.96 33.93
  Q 45.08 32.23 47.56 26.48
  A 1.81 1.81 0.0 0 0 47.64 25.23
  C 45.68 18.30 39.64 14.18 32.64 17.44
  A 0.38 0.38 0.0 0 0 32.65 18.13
  Q 36.44 19.78 38.49 20.84
  A 3.22 3.21 -72.5 0 1 40.19 24.12
  C 39.62 28.24 33.84 26.64 31.53 25.38
  A 0.22 0.22 0.0 0 1 31.65 24.96
  C 33.46 25.06 37.83 24.91 36.09 21.67
  C 35.16 19.92 34.07 19.51 32.01 18.32
  A 0.91 0.91 0.0 0 0 31.09 18.32
  L 25.41 21.60
  A 1.26 1.26 0.0 0 0 25.00 23.41
  Q 26.01 24.86 26.48 26.83
  A 0.19 0.18 -67.0 0 1 26.14 26.97
  Z"
/>
<path fill="#ffffff" d="
  M 26.48 26.83
  Q 26.01 24.86 25.00 23.41
  A 1.26 1.26 0.0 0 1 25.41 21.60
  L 31.09 18.32
  A 0.91 0.91 0.0 0 1 32.01 18.32
  C 34.07 19.51 35.16 19.92 36.09 21.67
  C 37.83 24.91 33.46 25.06 31.65 24.96
  A 0.22 0.22 0.0 0 0 31.53 25.38
  C 33.84 26.64 39.62 28.24 40.19 24.12
  A 3.22 3.21 -72.5 0 0 38.49 20.84
  Q 36.44 19.78 32.65 18.13
  A 0.38 0.38 0.0 0 1 32.64 17.44
  C 39.64 14.18 45.68 18.30 47.64 25.23
  A 1.81 1.81 0.0 0 1 47.56 26.48
  Q 45.08 32.23 39.96 33.93
  A 5.05 5.04 -50.9 0 1 37.77 34.16
  Q 33.31 33.64 29.34 33.32
  Q 26.28 33.07 24.96 35.96
  C 22.18 42.06 30.04 44.76 34.59 45.36
  A 0.12 0.12 0.0 0 0 34.73 45.26
  L 34.78 44.92
  A 0.05 0.04 12.4 0 0 34.74 44.87
  Q 32.42 44.59 29.52 41.74
  C 27.53 39.80 27.47 37.01 30.06 35.83
  C 32.74 34.61 35.33 34.95 38.47 34.66
  Q 43.53 34.19 47.10 31.44
  A 0.90 0.90 0.0 0 1 48.53 32.29
  L 47.44 39.27
  A 3.45 3.44 82.5 0 1 45.43 41.89
  L 39.63 44.44
  A 0.13 0.13 0.0 0 0 39.66 44.69
  L 43.87 45.35
  A 0.39 0.39 0.0 0 1 44.11 45.99
  Q 37.48 53.55 27.83 50.36
  C 15.50 46.28 15.27 32.48 23.40 23.97
  A 0.68 0.68 0.0 0 1 24.48 24.10
  L 26.14 26.97
  A 0.19 0.18 -67.0 0 0 26.48 26.83
  Z"
/>
</svg>
