<?xml version="1.0" encoding="UTF-8" standalone="no"?>
<!DOCTYPE svg PUBLIC "-//W3C//DTD SVG 1.1//EN" "http://www.w3.org/Graphics/SVG/1.1/DTD/svg11.dtd">
<svg xmlns="http://www.w3.org/2000/svg" version="1.1" viewBox="0.00 0.00 66.00 88.00">
<g stroke-width="2.00" fill="none" stroke-linecap="butt">
<path stroke="#7f5666" vector-effect="non-scaling-stroke" d="
  M 33.41 86.69
  Q 33.55 86.69 33.68 86.66
  A 0.18 0.17 -71.6 0 0 33.78 86.61
  Q 47.34 74.00 56.58 58.32
  Q 62.18 48.82 63.84 38.74
  C 67.02 19.44 53.22 3.01 33.75 2.46
  Q 33.64 2.46 33.53 2.46
  Q 33.41 2.46 33.30 2.46
  C 13.83 2.95 -0.02 19.35 3.11 38.66
  Q 4.74 48.74 10.31 58.26
  Q 19.51 73.96 33.04 86.61
  A 0.18 0.17 71.8 0 0 33.13 86.66
  Q 33.27 86.69 33.41 86.69"
/>
<path stroke="#d3b9c3" vector-effect="non-scaling-stroke" d="
  M 19.61 31.97
  Q 17.89 40.83 26.05 43.21
  A 0.80 0.80 0.0 0 1 26.05 44.75
  Q 24.94 45.06 23.47 44.21
  A 0.39 0.38 -89.2 0 0 22.94 44.73
  Q 25.84 50.08 31.45 51.53
  C 33.54 52.08 35.30 52.60 37.11 51.64
  Q 41.33 49.41 42.91 44.54
  A 0.42 0.41 84.0 0 0 42.31 44.05
  L 40.18 45.28
  A 0.84 0.84 0.0 0 1 39.03 44.97
  L 38.80 44.56
  A 0.91 0.91 0.0 0 1 39.29 43.24
  Q 46.11 40.91 45.79 34.40
  A 0.41 0.41 0.0 0 0 45.10 34.11
  Q 44.23 34.87 43.61 34.86
  A 0.92 0.91 26.0 0 1 43.05 33.24
  C 50.31 27.30 45.26 18.23 37.64 16.36
  C 32.06 14.98 24.47 15.89 21.64 21.39
  C 19.23 26.08 21.08 30.24 25.00 33.57
  A 0.99 0.98 -47.5 0 1 25.06 35.02
  L 24.79 35.29
  A 0.70 0.69 44.7 0 1 23.80 35.29
  L 20.28 31.77
  A 0.40 0.39 28.1 0 0 19.61 31.97"
/>
<path stroke="#d3b9c3" vector-effect="non-scaling-stroke" d="
  M 41.31 28.42
  A 6.73 6.73 0.0 0 0 34.58 21.69
  A 6.73 6.73 0.0 0 0 27.85 28.42
  A 6.73 6.73 0.0 0 0 34.58 35.15
  A 6.73 6.73 0.0 0 0 41.31 28.42"
/>
<path stroke="#d3b9c3" vector-effect="non-scaling-stroke" d="
  M 38.66 30.00
  A 2.70 2.70 0.0 0 0 35.96 27.30
  A 2.70 2.70 0.0 0 0 33.26 30.00
  A 2.70 2.70 0.0 0 0 35.96 32.70
  A 2.70 2.70 0.0 0 0 38.66 30.00"
/>
</g>
<path fill="#563944" d="
  M 33.78 88.00
  L 33.04 88.00
  C 22.21 78.22 11.92 65.53 5.75 51.76
  Q 2.14 43.71 1.56 34.97
  C 0.25 15.52 17.02 -0.52 36.67 1.49
  C 53.36 3.19 66.03 17.10 65.44 33.91
  Q 65.18 41.69 62.41 48.85
  C 56.68 63.70 45.52 77.38 33.78 88.00
  Z
  M 33.41 86.69
  Q 33.55 86.69 33.68 86.66
  A 0.18 0.17 -71.6 0 0 33.78 86.61
  Q 47.34 74.00 56.58 58.32
  Q 62.18 48.82 63.84 38.74
  C 67.02 19.44 53.22 3.01 33.75 2.46
  Q 33.64 2.46 33.53 2.46
  Q 33.41 2.46 33.30 2.46
  C 13.83 2.95 -0.02 19.35 3.11 38.66
  Q 4.74 48.74 10.31 58.26
  Q 19.51 73.96 33.04 86.61
  A 0.18 0.17 71.8 0 0 33.13 86.66
  Q 33.27 86.69 33.41 86.69
  Z"
/>
<path fill="#a77387" d="
  M 33.53 2.46
  Q 33.64 2.46 33.75 2.46
  C 53.22 3.01 67.02 19.44 63.84 38.74
  Q 62.18 48.82 56.58 58.32
  Q 47.34 74.00 33.78 86.61
  A 0.18 0.17 -71.6 0 1 33.68 86.66
  Q 33.55 86.69 33.41 86.69
  Q 33.27 86.69 33.13 86.66
  A 0.18 0.17 71.8 0 1 33.04 86.61
  Q 19.51 73.96 10.31 58.26
  Q 4.74 48.74 3.11 38.66
  C -0.02 19.35 13.83 2.95 33.30 2.46
  Q 33.41 2.46 33.53 2.46
  Z
  M 19.61 31.97
  Q 17.89 40.83 26.05 43.21
  A 0.80 0.80 0.0 0 1 26.05 44.75
  Q 24.94 45.06 23.47 44.21
  A 0.39 0.38 -89.2 0 0 22.94 44.73
  Q 25.84 50.08 31.45 51.53
  C 33.54 52.08 35.30 52.60 37.11 51.64
  Q 41.33 49.41 42.91 44.54
  A 0.42 0.41 84.0 0 0 42.31 44.05
  L 40.18 45.28
  A 0.84 0.84 0.0 0 1 39.03 44.97
  L 38.80 44.56
  A 0.91 0.91 0.0 0 1 39.29 43.24
  Q 46.11 40.91 45.79 34.40
  A 0.41 0.41 0.0 0 0 45.10 34.11
  Q 44.23 34.87 43.61 34.86
  A 0.92 0.91 26.0 0 1 43.05 33.24
  C 50.31 27.30 45.26 18.23 37.64 16.36
  C 32.06 14.98 24.47 15.89 21.64 21.39
  C 19.23 26.08 21.08 30.24 25.00 33.57
  A 0.99 0.98 -47.5 0 1 25.06 35.02
  L 24.79 35.29
  A 0.70 0.69 44.7 0 1 23.80 35.29
  L 20.28 31.77
  A 0.40 0.39 28.1 0 0 19.61 31.97
  Z"
/>
<path fill="#ffffff" d="
  M 20.28 31.77
  L 23.80 35.29
  A 0.70 0.69 44.7 0 0 24.79 35.29
  L 25.06 35.02
  A 0.99 0.98 -47.5 0 0 25.00 33.57
  C 21.08 30.24 19.23 26.08 21.64 21.39
  C 24.47 15.89 32.06 14.98 37.64 16.36
  C 45.26 18.23 50.31 27.30 43.05 33.24
  A 0.92 0.91 26.0 0 0 43.61 34.86
  Q 44.23 34.87 45.10 34.11
  A 0.41 0.41 0.0 0 1 45.79 34.40
  Q 46.11 40.91 39.29 43.24
  A 0.91 0.91 0.0 0 0 38.80 44.56
  L 39.03 44.97
  A 0.84 0.84 0.0 0 0 40.18 45.28
  L 42.31 44.05
  A 0.42 0.41 84.0 0 1 42.91 44.54
  Q 41.33 49.41 37.11 51.64
  C 35.30 52.60 33.54 52.08 31.45 51.53
  Q 25.84 50.08 22.94 44.73
  A 0.39 0.38 -89.2 0 1 23.47 44.21
  Q 24.94 45.06 26.05 44.75
  A 0.80 0.80 0.0 0 0 26.05 43.21
  Q 17.89 40.83 19.61 31.97
  A 0.40 0.39 28.1 0 1 20.28 31.77
  Z
  M 41.31 28.42
  A 6.73 6.73 0.0 0 0 34.58 21.69
  A 6.73 6.73 0.0 0 0 27.85 28.42
  A 6.73 6.73 0.0 0 0 34.58 35.15
  A 6.73 6.73 0.0 0 0 41.31 28.42
  Z"
/>
<path fill="#a77387" d="
  M 41.31 28.42
  A 6.73 6.73 0.0 0 1 34.58 35.15
  A 6.73 6.73 0.0 0 1 27.85 28.42
  A 6.73 6.73 0.0 0 1 34.58 21.69
  A 6.73 6.73 0.0 0 1 41.31 28.42
  Z
  M 38.66 30.00
  A 2.70 2.70 0.0 0 0 35.96 27.30
  A 2.70 2.70 0.0 0 0 33.26 30.00
  A 2.70 2.70 0.0 0 0 35.96 32.70
  A 2.70 2.70 0.0 0 0 38.66 30.00
  Z"
/>
<circle fill="#ffffff" cx="35.96" cy="30.00" r="2.70"/>
</svg>
