<?xml version="1.0" encoding="UTF-8" standalone="no"?>
<!DOCTYPE svg PUBLIC "-//W3C//DTD SVG 1.1//EN" "http://www.w3.org/Graphics/SVG/1.1/DTD/svg11.dtd">
<svg xmlns="http://www.w3.org/2000/svg" version="1.1" viewBox="0.00 0.00 66.00 88.00">
<g stroke-width="2.00" fill="none" stroke-linecap="butt">
<path stroke="#b67862" vector-effect="non-scaling-stroke" d="
  M 33.36 86.74
  Q 33.39 86.74 33.42 86.74
  A 0.12 0.02 -46.4 0 0 33.50 86.68
  Q 48.30 73.11 57.57 56.55
  C 64.55 44.08 67.80 27.88 58.76 15.50
  C 52.87 7.43 43.85 2.48 33.56 2.45
  C 23.28 2.43 14.24 7.33 8.30 15.38
  C -0.79 27.71 2.38 43.93 9.29 56.43
  Q 18.48 73.04 33.22 86.68
  A 0.12 0.02 46.7 0 0 33.30 86.74
  Q 33.33 86.74 33.36 86.74"
/>
<path stroke="#f8d0c2" vector-effect="non-scaling-stroke" d="
  M 24.67 39.98
  Q 26.51 41.89 30.18 42.01
  A 0.37 0.36 5.0 0 1 30.53 42.42
  L 30.23 44.88
  A 0.73 0.72 6.7 0 1 29.42 45.51
  Q 25.62 45.03 21.83 43.03
  A 0.13 0.13 0.0 0 0 21.67 43.24
  Q 24.75 46.69 29.53 47.38
  A 0.86 0.85 -3.0 0 1 30.24 48.01
  L 31.12 51.43
  A 0.24 0.23 -13.7 0 0 31.39 51.59
  L 31.40 51.59
  A 0.38 0.37 83.5 0 0 31.63 51.29
  L 32.05 48.14
  A 1.00 1.00 0.0 0 1 32.81 47.30
  Q 40.33 45.45 43.41 39.49
  C 47.65 31.28 43.75 21.36 34.37 19.11
  Q 32.26 18.61 31.16 17.11
  A 0.30 0.29 22.3 0 0 30.63 17.33
  Q 30.89 18.94 32.76 19.85
  C 38.02 22.39 41.91 24.85 42.96 30.30
  C 44.28 37.15 40.22 43.26 33.53 45.28
  A 1.00 1.00 0.0 0 1 32.25 44.49
  L 31.96 42.75
  A 0.93 0.93 0.0 0 1 32.77 41.67
  Q 34.09 41.52 34.45 41.05
  A 0.29 0.29 0.0 0 0 34.20 40.58
  Q 30.00 40.91 24.92 39.55
  A 0.26 0.26 0.0 0 0 24.67 39.98"
/>
<path stroke="#f8d0c2" vector-effect="non-scaling-stroke" d="
  M 23.79 27.59
  L 35.08 25.40
  A 0.10 0.10 0.0 0 0 35.16 25.28
  L 35.14 25.21
  A 5.74 2.27 -11.0 0 0 29.08 24.08
  L 28.86 24.12
  A 5.74 2.27 -11.0 0 0 23.66 27.45
  L 23.67 27.52
  A 0.10 0.10 0.0 0 0 23.79 27.59"
/>
<path stroke="#f8d0c2" vector-effect="non-scaling-stroke" d="
  M 24.92 29.00
  A 0.58 0.57 43.6 0 0 24.95 30.14
  L 39.06 31.84
  A 0.83 0.83 0.0 0 0 39.87 30.60
  L 38.17 27.64
  A 1.29 1.29 0.0 0 0 36.84 27.02
  L 24.92 29.00"
/>
<path stroke="#f8d0c2" vector-effect="non-scaling-stroke" d="
  M 39.13 33.57
  Q 29.75 33.18 22.25 30.99
  A 0.53 0.53 0.0 0 0 21.58 31.45
  Q 21.37 33.83 22.04 36.13
  A 1.04 1.04 0.0 0 0 23.21 36.86
  L 39.17 34.20
  A 0.32 0.32 0.0 0 0 39.13 33.57"
/>
<path stroke="#f8d0c2" vector-effect="non-scaling-stroke" d="
  M 38.71 36.32
  L 28.68 37.99
  A 0.38 0.38 0.0 0 0 28.74 38.74
  L 37.22 38.74
  A 1.06 1.06 0.0 0 0 38.12 38.24
  L 39.03 36.81
  A 0.32 0.32 0.0 0 0 38.71 36.32"
/>
</g>
<path fill="#7c4f40" d="
  M 33.81 88.00
  L 33.03 88.00
  C 22.19 78.20 11.94 65.55 5.75 51.76
  Q 2.13 43.69 1.56 34.97
  C 0.31 15.83 16.23 0.23 35.58 1.40
  C 53.15 2.45 66.53 17.47 65.43 34.91
  C 64.15 55.22 48.19 74.89 33.81 88.00
  Z
  M 33.36 86.74
  Q 33.39 86.74 33.42 86.74
  A 0.12 0.02 -46.4 0 0 33.50 86.68
  Q 48.30 73.11 57.57 56.55
  C 64.55 44.08 67.80 27.88 58.76 15.50
  C 52.87 7.43 43.85 2.48 33.56 2.45
  C 23.28 2.43 14.24 7.33 8.30 15.38
  C -0.79 27.71 2.38 43.93 9.29 56.43
  Q 18.48 73.04 33.22 86.68
  A 0.12 0.02 46.7 0 0 33.30 86.74
  Q 33.33 86.74 33.36 86.74
  Z"
/>
<path fill="#f0a084" d="
  M 33.56 2.45
  C 43.85 2.48 52.87 7.43 58.76 15.50
  C 67.80 27.88 64.55 44.08 57.57 56.55
  Q 48.30 73.11 33.50 86.68
  A 0.12 0.02 -46.4 0 1 33.42 86.74
  Q 33.39 86.74 33.36 86.74
  Q 33.33 86.74 33.30 86.74
  A 0.12 0.02 46.7 0 1 33.22 86.68
  Q 18.48 73.04 9.29 56.43
  C 2.38 43.93 -0.79 27.71 8.30 15.38
  C 14.24 7.33 23.28 2.43 33.56 2.45
  Z
  M 24.67 39.98
  Q 26.51 41.89 30.18 42.01
  A 0.37 0.36 5.0 0 1 30.53 42.42
  L 30.23 44.88
  A 0.73 0.72 6.7 0 1 29.42 45.51
  Q 25.62 45.03 21.83 43.03
  A 0.13 0.13 0.0 0 0 21.67 43.24
  Q 24.75 46.69 29.53 47.38
  A 0.86 0.85 -3.0 0 1 30.24 48.01
  L 31.12 51.43
  A 0.24 0.23 -13.7 0 0 31.39 51.59
  L 31.40 51.59
  A 0.38 0.37 83.5 0 0 31.63 51.29
  L 32.05 48.14
  A 1.00 1.00 0.0 0 1 32.81 47.30
  Q 40.33 45.45 43.41 39.49
  C 47.65 31.28 43.75 21.36 34.37 19.11
  Q 32.26 18.61 31.16 17.11
  A 0.30 0.29 22.3 0 0 30.63 17.33
  Q 30.89 18.94 32.76 19.85
  C 38.02 22.39 41.91 24.85 42.96 30.30
  C 44.28 37.15 40.22 43.26 33.53 45.28
  A 1.00 1.00 0.0 0 1 32.25 44.49
  L 31.96 42.75
  A 0.93 0.93 0.0 0 1 32.77 41.67
  Q 34.09 41.52 34.45 41.05
  A 0.29 0.29 0.0 0 0 34.20 40.58
  Q 30.00 40.91 24.92 39.55
  A 0.26 0.26 0.0 0 0 24.67 39.98
  Z
  M 23.79 27.59
  L 35.08 25.40
  A 0.10 0.10 0.0 0 0 35.16 25.28
  L 35.14 25.21
  A 5.74 2.27 -11.0 0 0 29.08 24.08
  L 28.86 24.12
  A 5.74 2.27 -11.0 0 0 23.66 27.45
  L 23.67 27.52
  A 0.10 0.10 0.0 0 0 23.79 27.59
  Z
  M 24.92 29.00
  A 0.58 0.57 43.6 0 0 24.95 30.14
  L 39.06 31.84
  A 0.83 0.83 0.0 0 0 39.87 30.60
  L 38.17 27.64
  A 1.29 1.29 0.0 0 0 36.84 27.02
  L 24.92 29.00
  Z
  M 39.13 33.57
  Q 29.75 33.18 22.25 30.99
  A 0.53 0.53 0.0 0 0 21.58 31.45
  Q 21.37 33.83 22.04 36.13
  A 1.04 1.04 0.0 0 0 23.21 36.86
  L 39.17 34.20
  A 0.32 0.32 0.0 0 0 39.13 33.57
  Z
  M 38.71 36.32
  L 28.68 37.99
  A 0.38 0.38 0.0 0 0 28.74 38.74
  L 37.22 38.74
  A 1.06 1.06 0.0 0 0 38.12 38.24
  L 39.03 36.81
  A 0.32 0.32 0.0 0 0 38.71 36.32
  Z"
/>
<path fill="#ffffff" d="
  M 24.92 39.55
  Q 30.00 40.91 34.20 40.58
  A 0.29 0.29 0.0 0 1 34.45 41.05
  Q 34.09 41.52 32.77 41.67
  A 0.93 0.93 0.0 0 0 31.96 42.75
  L 32.25 44.49
  A 1.00 1.00 0.0 0 0 33.53 45.28
  C 40.22 43.26 44.28 37.15 42.96 30.30
  C 41.91 24.85 38.02 22.39 32.76 19.85
  Q 30.89 18.94 30.63 17.33
  A 0.30 0.29 22.3 0 1 31.16 17.11
  Q 32.26 18.61 34.37 19.11
  C 43.75 21.36 47.65 31.28 43.41 39.49
  Q 40.33 45.45 32.81 47.30
  A 1.00 1.00 0.0 0 0 32.05 48.14
  L 31.63 51.29
  A 0.38 0.37 83.5 0 1 31.40 51.59
  L 31.39 51.59
  A 0.24 0.23 -13.7 0 1 31.12 51.43
  L 30.24 48.01
  A 0.86 0.85 -3.0 0 0 29.53 47.38
  Q 24.75 46.69 21.67 43.24
  A 0.13 0.13 0.0 0 1 21.83 43.03
  Q 25.62 45.03 29.42 45.51
  A 0.73 0.72 6.7 0 0 30.23 44.88
  L 30.53 42.42
  A 0.37 0.36 5.0 0 0 30.18 42.01
  Q 26.51 41.89 24.67 39.98
  A 0.26 0.26 0.0 0 1 24.92 39.55
  Z"
/>
<path fill="#ffffff" d="
  M 23.79 27.59
  A 0.10 0.10 0.0 0 1 23.67 27.52
  L 23.66 27.45
  A 5.74 2.27 -11.0 0 1 28.86 24.12
  L 29.08 24.08
  A 5.74 2.27 -11.0 0 1 35.14 25.21
  L 35.16 25.28
  A 0.10 0.10 0.0 0 1 35.08 25.40
  L 23.79 27.59
  Z"
/>
<path fill="#ffffff" d="
  M 24.92 29.00
  L 36.84 27.02
  A 1.29 1.29 0.0 0 1 38.17 27.64
  L 39.87 30.60
  A 0.83 0.83 0.0 0 1 39.06 31.84
  L 24.95 30.14
  A 0.58 0.57 43.6 0 1 24.92 29.00
  Z"
/>
<path fill="#ffffff" d="
  M 39.13 33.57
  A 0.32 0.32 0.0 0 1 39.17 34.20
  L 23.21 36.86
  A 1.04 1.04 0.0 0 1 22.04 36.13
  Q 21.37 33.83 21.58 31.45
  A 0.53 0.53 0.0 0 1 22.25 30.99
  Q 29.75 33.18 39.13 33.57
  Z"
/>
<path fill="#ffffff" d="
  M 38.71 36.32
  A 0.32 0.32 0.0 0 1 39.03 36.81
  L 38.12 38.24
  A 1.06 1.06 0.0 0 1 37.22 38.74
  L 28.74 38.74
  A 0.38 0.38 0.0 0 1 28.68 37.99
  L 38.71 36.32
  Z"
/>
</svg>
