<?xml version="1.0" encoding="UTF-8" standalone="no"?>
<!DOCTYPE svg PUBLIC "-//W3C//DTD SVG 1.1//EN" "http://www.w3.org/Graphics/SVG/1.1/DTD/svg11.dtd">
<svg xmlns="http://www.w3.org/2000/svg" version="1.1" viewBox="0.00 0.00 66.00 88.00">
<g stroke-width="2.00" fill="none" stroke-linecap="butt">
<path stroke="#395b67" vector-effect="non-scaling-stroke" d="
  M 33.40 86.69
  Q 33.54 86.69 33.67 86.65
  A 0.08 0.07 -68.8 0 0 33.72 86.63
  C 47.46 73.75 63.35 54.06 64.21 34.76
  C 64.81 20.98 57.38 9.86 45.00 4.72
  Q 39.60 2.48 33.54 2.47
  Q 27.48 2.46 22.07 4.69
  C 9.67 9.78 2.21 20.88 2.76 34.66
  C 3.56 53.96 19.38 73.70 33.08 86.63
  A 0.08 0.07 69.0 0 0 33.12 86.65
  Q 33.26 86.69 33.40 86.69"
/>
<path stroke="#a6bbc3" vector-effect="non-scaling-stroke" d="
  M 25.58 24.25
  A 0.30 0.30 0.0 0 0 26.16 24.19
  Q 26.93 18.12 32.19 18.34
  C 38.31 18.59 37.83 25.90 35.66 29.74
  Q 33.96 32.76 30.32 36.80
  C 28.11 39.24 30.41 41.79 32.40 43.07
  A 0.37 0.37 0.0 0 0 32.89 42.53
  Q 30.61 39.67 32.93 36.95
  C 37.26 31.86 43.33 26.40 40.14 20.25
  C 37.71 15.56 29.99 16.48 26.01 18.42
  A 1.07 1.07 0.0 0 0 25.40 19.32
  Q 25.19 23.13 25.58 24.25"
/>
<path stroke="#a6bbc3" vector-effect="non-scaling-stroke" d="
  M 34.35 48.98
  A 2.21 2.21 0.0 0 0 32.14 46.77
  A 2.21 2.21 0.0 0 0 29.93 48.98
  A 2.21 2.21 0.0 0 0 32.14 51.19
  A 2.21 2.21 0.0 0 0 34.35 48.98"
/>
</g>
<path fill="#243e46" d="
  M 33.80 88.00
  L 33.15 88.00
  Q 15.61 72.49 6.00 52.51
  Q 2.26 44.74 1.63 35.22
  Q 1.00 25.76 5.24 18.02
  C 12.61 4.59 28.11 -1.70 43.12 2.81
  Q 51.44 5.32 57.18 11.68
  C 79.39 36.32 52.36 71.09 33.80 88.00
  Z
  M 33.40 86.69
  Q 33.54 86.69 33.67 86.65
  A 0.08 0.07 -68.8 0 0 33.72 86.63
  C 47.46 73.75 63.35 54.06 64.21 34.76
  C 64.81 20.98 57.38 9.86 45.00 4.72
  Q 39.60 2.48 33.54 2.47
  Q 27.48 2.46 22.07 4.69
  C 9.67 9.78 2.21 20.88 2.76 34.66
  C 3.56 53.96 19.38 73.70 33.08 86.63
  A 0.08 0.07 69.0 0 0 33.12 86.65
  Q 33.26 86.69 33.40 86.69
  Z"
/>
<path fill="#4d7787" d="
  M 33.54 2.47
  Q 39.60 2.48 45.00 4.72
  C 57.38 9.86 64.81 20.98 64.21 34.76
  C 63.35 54.06 47.46 73.75 33.72 86.63
  A 0.08 0.07 -68.8 0 1 33.67 86.65
  Q 33.54 86.69 33.40 86.69
  Q 33.26 86.69 33.12 86.65
  A 0.08 0.07 69.0 0 1 33.08 86.63
  C 19.38 73.70 3.56 53.96 2.76 34.66
  C 2.21 20.88 9.67 9.78 22.07 4.69
  Q 27.48 2.46 33.54 2.47
  Z
  M 25.58 24.25
  A 0.30 0.30 0.0 0 0 26.16 24.19
  Q 26.93 18.12 32.19 18.34
  C 38.31 18.59 37.83 25.90 35.66 29.74
  Q 33.96 32.76 30.32 36.80
  C 28.11 39.24 30.41 41.79 32.40 43.07
  A 0.37 0.37 0.0 0 0 32.89 42.53
  Q 30.61 39.67 32.93 36.95
  C 37.26 31.86 43.33 26.40 40.14 20.25
  C 37.71 15.56 29.99 16.48 26.01 18.42
  A 1.07 1.07 0.0 0 0 25.40 19.32
  Q 25.19 23.13 25.58 24.25
  Z
  M 34.35 48.98
  A 2.21 2.21 0.0 0 0 32.14 46.77
  A 2.21 2.21 0.0 0 0 29.93 48.98
  A 2.21 2.21 0.0 0 0 32.14 51.19
  A 2.21 2.21 0.0 0 0 34.35 48.98
  Z"
/>
<path fill="#ffffff" d="
  M 25.58 24.25
  Q 25.19 23.13 25.40 19.32
  A 1.07 1.07 0.0 0 1 26.01 18.42
  C 29.99 16.48 37.71 15.56 40.14 20.25
  C 43.33 26.40 37.26 31.86 32.93 36.95
  Q 30.61 39.67 32.89 42.53
  A 0.37 0.37 0.0 0 1 32.40 43.07
  C 30.41 41.79 28.11 39.24 30.32 36.80
  Q 33.96 32.76 35.66 29.74
  C 37.83 25.90 38.31 18.59 32.19 18.34
  Q 26.93 18.12 26.16 24.19
  A 0.30 0.30 0.0 0 1 25.58 24.25
  Z"
/>
<circle fill="#ffffff" cx="32.14" cy="48.98" r="2.21"/>
</svg>
