<?xml version="1.0" encoding="UTF-8" standalone="no"?>
<!DOCTYPE svg PUBLIC "-//W3C//DTD SVG 1.1//EN" "http://www.w3.org/Graphics/SVG/1.1/DTD/svg11.dtd">
<svg xmlns="http://www.w3.org/2000/svg" version="1.1" viewBox="0.00 0.00 66.00 88.00">
<g stroke-width="2.00" fill="none" stroke-linecap="butt">
<path stroke="#425a74" vector-effect="non-scaling-stroke" d="
  M 33.39 86.69
  Q 33.53 86.69 33.67 86.66
  A 0.19 0.05 -43.2 0 0 33.72 86.63
  C 45.20 75.75 56.31 62.03 61.51 47.78
  C 66.39 34.41 65.16 20.95 54.90 11.09
  Q 46.72 3.21 35.00 2.53
  Q 34.13 2.48 33.54 2.48
  Q 32.95 2.48 32.08 2.52
  Q 20.36 3.16 12.15 11.01
  C 1.86 20.84 0.58 34.29 5.41 47.68
  C 10.56 61.95 21.62 75.71 33.06 86.63
  A 0.19 0.05 43.4 0 0 33.12 86.66
  Q 33.25 86.69 33.39 86.69"
/>
<path stroke="#acbbcc" vector-effect="non-scaling-stroke" d="
  M 51.23 34.05
  A 18.26 18.26 0.0 0 0 32.97 15.79
  A 18.26 18.26 0.0 0 0 14.71 34.05
  A 18.26 18.26 0.0 0 0 32.97 52.31
  A 18.26 18.26 0.0 0 0 51.23 34.05"
/>
<path stroke="#acbbcc" vector-effect="non-scaling-stroke" d="
  M 27.2177 21.9561
  A 8.25 4.31 -64.3 0 0 19.7564 27.5209
  A 8.25 4.31 -64.3 0 0 20.0623 36.8239
  A 8.25 4.31 -64.3 0 0 27.5236 31.2591
  A 8.25 4.31 -64.3 0 0 27.2177 21.9561"
/>
<path stroke="#acbbcc" vector-effect="non-scaling-stroke" d="
  M 39.2839 21.9579
  A 8.23 4.32 -115.6 0 0 38.9441 31.2466
  A 8.23 4.32 -115.6 0 0 46.3961 36.8021
  A 8.23 4.32 -115.6 0 0 46.7359 27.5134
  A 8.23 4.32 -115.6 0 0 39.2839 21.9579"
/>
<path stroke="#acbbcc" vector-effect="non-scaling-stroke" d="
  M 32.99 47.01
  Q 36.02 47.01 38.76 45.47
  A 0.42 0.41 42.5 0 0 38.73 44.73
  Q 35.07 43.07 33.20 39.66
  A 0.20 0.20 0.0 0 0 33.05 39.56
  Q 33.02 39.56 33.00 39.56
  Q 32.97 39.56 32.95 39.56
  A 0.20 0.20 0.0 0 0 32.79 39.66
  Q 30.92 43.07 27.25 44.72
  A 0.42 0.41 -42.4 0 0 27.22 45.46
  Q 29.96 47.01 32.99 47.01"
/>
</g>
<path fill="#2a3d50" d="
  M 33.79 88.00
  L 33.04 88.00
  C 17.07 73.55 -4.71 46.14 3.13 22.86
  Q 5.69 15.25 11.88 9.60
  C 23.65 -1.14 43.18 -1.76 55.32 9.81
  Q 68.03 21.91 64.83 39.76
  Q 62.66 51.89 54.96 63.44
  Q 45.95 76.96 33.79 88.00
  Z
  M 33.39 86.69
  Q 33.53 86.69 33.67 86.66
  A 0.19 0.05 -43.2 0 0 33.72 86.63
  C 45.20 75.75 56.31 62.03 61.51 47.78
  C 66.39 34.41 65.16 20.95 54.90 11.09
  Q 46.72 3.21 35.00 2.53
  Q 34.13 2.48 33.54 2.48
  Q 32.95 2.48 32.08 2.52
  Q 20.36 3.16 12.15 11.01
  C 1.86 20.84 0.58 34.29 5.41 47.68
  C 10.56 61.95 21.62 75.71 33.06 86.63
  A 0.19 0.05 43.4 0 0 33.12 86.66
  Q 33.25 86.69 33.39 86.69
  Z"
/>
<path fill="#597698" d="
  M 33.54 2.48
  Q 34.13 2.48 35.00 2.53
  Q 46.72 3.21 54.90 11.09
  C 65.16 20.95 66.39 34.41 61.51 47.78
  C 56.31 62.03 45.20 75.75 33.72 86.63
  A 0.19 0.05 -43.2 0 1 33.67 86.66
  Q 33.53 86.69 33.39 86.69
  Q 33.25 86.69 33.12 86.66
  A 0.19 0.05 43.4 0 1 33.06 86.63
  C 21.62 75.71 10.56 61.95 5.41 47.68
  C 0.58 34.29 1.86 20.84 12.15 11.01
  Q 20.36 3.16 32.08 2.52
  Q 32.95 2.48 33.54 2.48
  Z
  M 51.23 34.05
  A 18.26 18.26 0.0 0 0 32.97 15.79
  A 18.26 18.26 0.0 0 0 14.71 34.05
  A 18.26 18.26 0.0 0 0 32.97 52.31
  A 18.26 18.26 0.0 0 0 51.23 34.05
  Z"
/>
<path fill="#ffffff" d="
  M 51.23 34.05
  A 18.26 18.26 0.0 0 1 32.97 52.31
  A 18.26 18.26 0.0 0 1 14.71 34.05
  A 18.26 18.26 0.0 0 1 32.97 15.79
  A 18.26 18.26 0.0 0 1 51.23 34.05
  Z
  M 27.2177 21.9561
  A 8.25 4.31 -64.3 0 0 19.7564 27.5209
  A 8.25 4.31 -64.3 0 0 20.0623 36.8239
  A 8.25 4.31 -64.3 0 0 27.5236 31.2591
  A 8.25 4.31 -64.3 0 0 27.2177 21.9561
  Z
  M 39.2839 21.9579
  A 8.23 4.32 -115.6 0 0 38.9441 31.2466
  A 8.23 4.32 -115.6 0 0 46.3961 36.8021
  A 8.23 4.32 -115.6 0 0 46.7359 27.5134
  A 8.23 4.32 -115.6 0 0 39.2839 21.9579
  Z
  M 32.99 47.01
  Q 36.02 47.01 38.76 45.47
  A 0.42 0.41 42.5 0 0 38.73 44.73
  Q 35.07 43.07 33.20 39.66
  A 0.20 0.20 0.0 0 0 33.05 39.56
  Q 33.02 39.56 33.00 39.56
  Q 32.97 39.56 32.95 39.56
  A 0.20 0.20 0.0 0 0 32.79 39.66
  Q 30.92 43.07 27.25 44.72
  A 0.42 0.41 -42.4 0 0 27.22 45.46
  Q 29.96 47.01 32.99 47.01
  Z"
/>
<ellipse fill="#597698" cx="0.00" cy="0.00" transform="translate(23.64,29.39) rotate(-64.3)" rx="8.25" ry="4.31"/>
<ellipse fill="#597698" cx="0.00" cy="0.00" transform="translate(42.84,29.38) rotate(-115.6)" rx="8.23" ry="4.32"/>
<path fill="#597698" d="
  M 33.00 39.56
  Q 33.02 39.56 33.05 39.56
  A 0.20 0.20 0.0 0 1 33.20 39.66
  Q 35.07 43.07 38.73 44.73
  A 0.42 0.41 42.5 0 1 38.76 45.47
  Q 36.02 47.01 32.99 47.01
  Q 29.96 47.01 27.22 45.46
  A 0.42 0.41 -42.4 0 1 27.25 44.72
  Q 30.92 43.07 32.79 39.66
  A 0.20 0.20 0.0 0 1 32.95 39.56
  Q 32.97 39.56 33.00 39.56
  Z"
/>
</svg>
