<?xml version="1.0" encoding="UTF-8" standalone="no"?>
<!DOCTYPE svg PUBLIC "-//W3C//DTD SVG 1.1//EN" "http://www.w3.org/Graphics/SVG/1.1/DTD/svg11.dtd">
<svg xmlns="http://www.w3.org/2000/svg" version="1.1" viewBox="0.00 0.00 66.00 88.00">
<g stroke-width="2.00" fill="none" stroke-linecap="butt">
<path stroke="#395b67" vector-effect="non-scaling-stroke" d="
  M 33.40 86.69
  Q 33.54 86.69 33.68 86.65
  A 0.09 0.07 -66.9 0 0 33.72 86.63
  Q 47.27 74.09 56.38 58.63
  C 64.71 44.49 68.71 26.48 56.76 13.02
  Q 48.07 3.24 34.75 2.51
  Q 33.90 2.46 33.53 2.46
  Q 33.17 2.46 32.32 2.51
  Q 19.00 3.19 10.28 12.95
  C -1.72 26.37 2.23 44.39 10.51 58.56
  Q 19.57 74.05 33.08 86.63
  A 0.09 0.07 67.1 0 0 33.13 86.65
  Q 33.26 86.69 33.40 86.69"
/>
<path stroke="#a6bbc3" vector-effect="non-scaling-stroke" d="
  M 32.51 22.87
  Q 22.94 27.81 19.79 29.58
  A 0.05 0.05 0.0 0 0 19.82 29.67
  Q 29.85 27.26 34.11 26.13
  Q 34.15 26.12 34.18 26.10
  Q 34.21 26.09 34.24 26.06
  Q 37.63 23.24 45.40 16.46
  A 0.05 0.05 0.0 0 0 45.34 16.38
  Q 42.07 17.93 32.51 22.87"
/>
<path stroke="#a6bbc3" vector-effect="non-scaling-stroke" d="
  M 15.36 34.00
  Q 15.36 34.22 15.53 34.26
  Q 24.15 36.44 42.33 41.24
  A 0.28 0.28 0.0 0 0 42.64 40.81
  Q 42.56 40.70 42.03 40.31
  C 37.68 37.11 43.92 32.81 45.64 37.05
  A 0.59 0.59 0.0 0 0 46.39 37.38
  Q 49.43 36.27 51.12 34.16
  C 51.16 34.12 51.16 34.04 51.16 33.99
  C 51.16 33.93 51.16 33.86 51.12 33.82
  Q 49.43 31.71 46.39 30.60
  A 0.59 0.59 0.0 0 0 45.64 30.93
  C 43.92 35.17 37.68 30.88 42.03 27.67
  Q 42.56 27.28 42.64 27.17
  A 0.28 0.28 0.0 0 0 42.33 26.74
  Q 24.15 31.56 15.53 33.74
  Q 15.36 33.78 15.36 34.00"
/>
<path stroke="#a6bbc3" vector-effect="non-scaling-stroke" d="
  M 32.51 45.11
  Q 42.01 50.02 45.26 51.56
  A 0.05 0.05 0.0 0 0 45.31 51.48
  Q 37.60 44.74 34.23 41.94
  Q 34.20 41.91 34.18 41.90
  Q 34.14 41.88 34.11 41.87
  Q 29.88 40.75 19.92 38.35
  A 0.05 0.05 0.0 0 0 19.88 38.45
  Q 23.02 40.21 32.51 45.11"
/>
<path stroke="#a6bbc3" vector-effect="non-scaling-stroke" d="
  M 31.58 34.01
  Q 31.58 34.03 31.61 34.12
  A 0.26 0.22 89.2 0 0 31.73 34.25
  L 37.15 36.42
  A 0.86 0.85 -51.8 0 0 37.96 36.32
  L 40.91 34.26
  A 0.46 0.27 -19.2 0 0 41.08 34.06
  Q 41.09 34.03 41.09 33.93
  Q 41.08 33.82 41.08 33.79
  A 0.46 0.27 18.2 0 0 40.90 33.60
  L 37.92 31.59
  A 0.86 0.85 50.7 0 0 37.10 31.51
  L 31.73 33.78
  A 0.26 0.22 89.7 0 0 31.61 33.91
  Q 31.58 34.00 31.58 34.01"
/>
<path stroke="#a6bbc3" vector-effect="non-scaling-stroke" d="
  M 45.7515 33.9364
  A 1.35 1.03 -177.3 0 0 47.0515 35.0289
  A 1.35 1.03 -177.3 0 0 48.4485 34.0636
  A 1.35 1.03 -177.3 0 0 47.1485 32.9711
  A 1.35 1.03 -177.3 0 0 45.7515 33.9364"
/>
</g>
<path fill="#243e46" d="
  M 33.81 88.00
  L 33.04 88.00
  C 22.21 78.22 11.92 65.54 5.75 51.76
  Q 2.15 43.71 1.56 34.96
  C 0.49 19.06 11.03 5.92 26.40 2.11
  C 37.08 -0.54 49.46 3.24 57.02 11.52
  C 79.52 36.14 52.40 71.05 33.81 88.00
  Z
  M 33.40 86.69
  Q 33.54 86.69 33.68 86.65
  A 0.09 0.07 -66.9 0 0 33.72 86.63
  Q 47.27 74.09 56.38 58.63
  C 64.71 44.49 68.71 26.48 56.76 13.02
  Q 48.07 3.24 34.75 2.51
  Q 33.90 2.46 33.53 2.46
  Q 33.17 2.46 32.32 2.51
  Q 19.00 3.19 10.28 12.95
  C -1.72 26.37 2.23 44.39 10.51 58.56
  Q 19.57 74.05 33.08 86.63
  A 0.09 0.07 67.1 0 0 33.13 86.65
  Q 33.26 86.69 33.40 86.69
  Z"
/>
<path fill="#4d7787" d="
  M 33.53 2.46
  Q 33.90 2.46 34.75 2.51
  Q 48.07 3.24 56.76 13.02
  C 68.71 26.48 64.71 44.49 56.38 58.63
  Q 47.27 74.09 33.72 86.63
  A 0.09 0.07 -66.9 0 1 33.68 86.65
  Q 33.54 86.69 33.40 86.69
  Q 33.26 86.69 33.13 86.65
  A 0.09 0.07 67.1 0 1 33.08 86.63
  Q 19.57 74.05 10.51 58.56
  C 2.23 44.39 -1.72 26.37 10.28 12.95
  Q 19.00 3.19 32.32 2.51
  Q 33.17 2.46 33.53 2.46
  Z
  M 32.51 22.87
  Q 22.94 27.81 19.79 29.58
  A 0.05 0.05 0.0 0 0 19.82 29.67
  Q 29.85 27.26 34.11 26.13
  Q 34.15 26.12 34.18 26.10
  Q 34.21 26.09 34.24 26.06
  Q 37.63 23.24 45.40 16.46
  A 0.05 0.05 0.0 0 0 45.34 16.38
  Q 42.07 17.93 32.51 22.87
  Z
  M 15.36 34.00
  Q 15.36 34.22 15.53 34.26
  Q 24.15 36.44 42.33 41.24
  A 0.28 0.28 0.0 0 0 42.64 40.81
  Q 42.56 40.70 42.03 40.31
  C 37.68 37.11 43.92 32.81 45.64 37.05
  A 0.59 0.59 0.0 0 0 46.39 37.38
  Q 49.43 36.27 51.12 34.16
  C 51.16 34.12 51.16 34.04 51.16 33.99
  C 51.16 33.93 51.16 33.86 51.12 33.82
  Q 49.43 31.71 46.39 30.60
  A 0.59 0.59 0.0 0 0 45.64 30.93
  C 43.92 35.17 37.68 30.88 42.03 27.67
  Q 42.56 27.28 42.64 27.17
  A 0.28 0.28 0.0 0 0 42.33 26.74
  Q 24.15 31.56 15.53 33.74
  Q 15.36 33.78 15.36 34.00
  Z
  M 32.51 45.11
  Q 42.01 50.02 45.26 51.56
  A 0.05 0.05 0.0 0 0 45.31 51.48
  Q 37.60 44.74 34.23 41.94
  Q 34.20 41.91 34.18 41.90
  Q 34.14 41.88 34.11 41.87
  Q 29.88 40.75 19.92 38.35
  A 0.05 0.05 0.0 0 0 19.88 38.45
  Q 23.02 40.21 32.51 45.11
  Z"
/>
<path fill="#ffffff" d="
  M 34.18 26.10
  Q 34.15 26.12 34.11 26.13
  Q 29.85 27.26 19.82 29.67
  A 0.05 0.05 0.0 0 1 19.79 29.58
  Q 22.94 27.81 32.51 22.87
  Q 42.07 17.93 45.34 16.38
  A 0.05 0.05 0.0 0 1 45.40 16.46
  Q 37.63 23.24 34.24 26.06
  Q 34.21 26.09 34.18 26.10
  Z"
/>
<path fill="#ffffff" d="
  M 51.16 33.99
  C 51.16 34.04 51.16 34.12 51.12 34.16
  Q 49.43 36.27 46.39 37.38
  A 0.59 0.59 0.0 0 1 45.64 37.05
  C 43.92 32.81 37.68 37.11 42.03 40.31
  Q 42.56 40.70 42.64 40.81
  A 0.28 0.28 0.0 0 1 42.33 41.24
  Q 24.15 36.44 15.53 34.26
  Q 15.36 34.22 15.36 34.00
  Q 15.36 33.78 15.53 33.74
  Q 24.15 31.56 42.33 26.74
  A 0.28 0.28 0.0 0 1 42.64 27.17
  Q 42.56 27.28 42.03 27.67
  C 37.68 30.88 43.92 35.17 45.64 30.93
  A 0.59 0.59 0.0 0 1 46.39 30.60
  Q 49.43 31.71 51.12 33.82
  C 51.16 33.86 51.16 33.93 51.16 33.99
  Z
  M 31.58 34.01
  Q 31.58 34.03 31.61 34.12
  A 0.26 0.22 89.2 0 0 31.73 34.25
  L 37.15 36.42
  A 0.86 0.85 -51.8 0 0 37.96 36.32
  L 40.91 34.26
  A 0.46 0.27 -19.2 0 0 41.08 34.06
  Q 41.09 34.03 41.09 33.93
  Q 41.08 33.82 41.08 33.79
  A 0.46 0.27 18.2 0 0 40.90 33.60
  L 37.92 31.59
  A 0.86 0.85 50.7 0 0 37.10 31.51
  L 31.73 33.78
  A 0.26 0.22 89.7 0 0 31.61 33.91
  Q 31.58 34.00 31.58 34.01
  Z
  M 45.7515 33.9364
  A 1.35 1.03 -177.3 0 0 47.0515 35.0289
  A 1.35 1.03 -177.3 0 0 48.4485 34.0636
  A 1.35 1.03 -177.3 0 0 47.1485 32.9711
  A 1.35 1.03 -177.3 0 0 45.7515 33.9364
  Z"
/>
<path fill="#4d7787" d="
  M 41.09 33.93
  Q 41.09 34.03 41.08 34.06
  A 0.46 0.27 -19.2 0 1 40.91 34.26
  L 37.96 36.32
  A 0.86 0.85 -51.8 0 1 37.15 36.42
  L 31.73 34.25
  A 0.26 0.22 89.2 0 1 31.61 34.12
  Q 31.58 34.03 31.58 34.01
  Q 31.58 34.00 31.61 33.91
  A 0.26 0.22 89.7 0 1 31.73 33.78
  L 37.10 31.51
  A 0.86 0.85 50.7 0 1 37.92 31.59
  L 40.90 33.60
  A 0.46 0.27 18.2 0 1 41.08 33.79
  Q 41.08 33.82 41.09 33.93
  Z"
/>
<ellipse fill="#4d7787" cx="0.00" cy="0.00" transform="translate(47.10,34.00) rotate(-177.3)" rx="1.35" ry="1.03"/>
<path fill="#ffffff" d="
  M 32.51 45.11
  Q 23.02 40.21 19.88 38.45
  A 0.05 0.05 0.0 0 1 19.92 38.35
  Q 29.88 40.75 34.11 41.87
  Q 34.14 41.88 34.18 41.90
  Q 34.20 41.91 34.23 41.94
  Q 37.60 44.74 45.31 51.48
  A 0.05 0.05 0.0 0 1 45.26 51.56
  Q 42.01 50.02 32.51 45.11
  Z"
/>
</svg>
