<?xml version="1.0" encoding="UTF-8" standalone="no"?>
<!DOCTYPE svg PUBLIC "-//W3C//DTD SVG 1.1//EN" "http://www.w3.org/Graphics/SVG/1.1/DTD/svg11.dtd">
<svg xmlns="http://www.w3.org/2000/svg" version="1.1" viewBox="0.00 0.00 66.00 88.00">
<g stroke-width="2.00" fill="none" stroke-linecap="butt">
<path stroke="#171b29" vector-effect="non-scaling-stroke" d="
  M 33.43 85.81
  Q 33.75 85.81 34.19 85.49
  Q 36.55 83.72 39.55 80.54
  C 49.76 69.72 58.20 58.18 62.28 44.97
  C 64.51 37.77 64.92 28.51 61.88 21.41
  C 57.09 10.21 46.27 2.51 33.45 2.51
  C 20.62 2.51 9.79 10.21 5.00 21.40
  C 1.96 28.50 2.37 37.76 4.60 44.96
  C 8.68 58.17 17.11 69.72 27.32 80.54
  Q 30.32 83.72 32.68 85.49
  Q 33.12 85.81 33.43 85.81"
/>
<path stroke="#8e9099" vector-effect="non-scaling-stroke" d="
  M 32.98 38.76
  Q 42.91 38.76 43.46 38.78
  Q 45.02 38.83 45.53 40.75
  A 1.65 1.60 46.6 0 1 45.52 41.60
  C 44.92 43.78 43.18 48.45 47.17 48.74
  A 1.37 1.33 -8.7 0 0 48.55 46.91
  Q 48.40 46.54 47.76 45.86
  A 0.86 0.85 36.0 0 1 47.61 44.92
  Q 49.01 41.76 48.15 39.21
  A 0.84 0.84 0.0 0 1 48.36 38.34
  L 50.91 35.79
  A 1.19 1.19 0.0 0 0 50.07 33.76
  L 46.78 33.76
  A 0.69 0.69 0.0 0 1 46.09 33.11
  C 45.91 30.46 45.57 27.83 44.38 25.47
  A 1.18 1.16 82.7 0 0 43.59 24.85
  C 42.14 24.53 40.27 24.59 38.66 23.84
  Q 35.45 22.33 33.41 19.31
  Q 33.37 19.25 32.98 19.25
  Q 32.58 19.25 32.54 19.31
  Q 30.50 22.33 27.29 23.84
  C 25.68 24.59 23.81 24.53 22.36 24.85
  A 1.18 1.16 -82.8 0 0 21.58 25.47
  C 20.39 27.83 20.05 30.46 19.87 33.11
  A 0.69 0.69 0.0 0 1 19.18 33.76
  L 15.89 33.77
  A 1.19 1.19 0.0 0 0 15.05 35.80
  L 17.60 38.35
  A 0.84 0.84 0.0 0 1 17.81 39.22
  Q 16.95 41.77 18.35 44.93
  A 0.86 0.85 -36.0 0 1 18.20 45.87
  Q 17.56 46.55 17.41 46.92
  A 1.37 1.33 8.7 0 0 18.79 48.74
  C 22.78 48.45 21.04 43.78 20.44 41.60
  A 1.65 1.60 -46.6 0 1 20.43 40.75
  Q 20.94 38.83 22.50 38.78
  Q 23.05 38.76 32.98 38.76"
/>
<path stroke="#8e9099" vector-effect="non-scaling-stroke" d="
  M 32.01 23.81
  A 0.43 0.42 69.1 0 0 31.30 23.49
  Q 27.93 26.55 24.08 26.60
  A 1.51 1.51 0.0 0 0 22.62 27.84
  L 21.73 32.68
  A 0.91 0.91 0.0 0 0 22.62 33.75
  L 26.06 33.75
  A 0.81 0.80 -80.3 0 0 26.82 33.21
  Q 28.24 29.19 31.33 27.06
  A 1.55 1.54 -17.1 0 0 32.01 25.78
  L 32.01 23.81"
/>
<path stroke="#8e9099" vector-effect="non-scaling-stroke" d="
  M 33.97 23.81
  L 33.97 25.78
  A 1.55 1.54 17.1 0 0 34.65 27.06
  Q 37.74 29.20 39.15 33.22
  A 0.81 0.80 80.3 0 0 39.91 33.76
  L 43.35 33.77
  A 0.91 0.91 0.0 0 0 44.24 32.70
  L 43.36 27.85
  A 1.51 1.51 0.0 0 0 41.90 26.61
  Q 38.05 26.56 34.68 23.49
  A 0.43 0.42 -69.0 0 0 33.97 23.81"
/>
<path stroke="#8e9099" vector-effect="non-scaling-stroke" d="
  M 32.96 33.75
  Q 35.65 33.77 36.70 33.80
  A 0.40 0.39 -12.5 0 0 37.07 33.23
  Q 35.67 30.58 33.21 28.50
  Q 33.12 28.43 32.99 28.43
  Q 32.87 28.43 32.78 28.50
  Q 30.29 30.54 28.85 33.17
  A 0.40 0.39 13.3 0 0 29.21 33.75
  Q 30.26 33.73 32.96 33.75"
/>
</g>
<path fill="#11141f" d="
  M 33.81 88.00
  L 33.04 88.00
  C 21.69 77.68 12.11 65.67 5.62 51.40
  Q 2.12 43.71 1.56 34.83
  C 0.57 18.83 11.25 5.67 26.71 2.05
  C 37.50 -0.48 49.70 3.36 57.26 11.77
  Q 67.82 23.52 64.84 39.76
  Q 62.53 52.32 54.57 64.07
  Q 45.68 77.20 33.81 88.00
  Z
  M 33.43 85.81
  Q 33.75 85.81 34.19 85.49
  Q 36.55 83.72 39.55 80.54
  C 49.76 69.72 58.20 58.18 62.28 44.97
  C 64.51 37.77 64.92 28.51 61.88 21.41
  C 57.09 10.21 46.27 2.51 33.45 2.51
  C 20.62 2.51 9.79 10.21 5.00 21.40
  C 1.96 28.50 2.37 37.76 4.60 44.96
  C 8.68 58.17 17.11 69.72 27.32 80.54
  Q 30.32 83.72 32.68 85.49
  Q 33.12 85.81 33.43 85.81
  Z"
/>
<path fill="#1c2133" d="
  M 33.45 2.51
  C 46.27 2.51 57.09 10.21 61.88 21.41
  C 64.92 28.51 64.51 37.77 62.28 44.97
  C 58.20 58.18 49.76 69.72 39.55 80.54
  Q 36.55 83.72 34.19 85.49
  Q 33.75 85.81 33.43 85.81
  Q 33.12 85.81 32.68 85.49
  Q 30.32 83.72 27.32 80.54
  C 17.11 69.72 8.68 58.17 4.60 44.96
  C 2.37 37.76 1.96 28.50 5.00 21.40
  C 9.79 10.21 20.62 2.51 33.45 2.51
  Z
  M 32.98 38.76
  Q 42.91 38.76 43.46 38.78
  Q 45.02 38.83 45.53 40.75
  A 1.65 1.60 46.6 0 1 45.52 41.60
  C 44.92 43.78 43.18 48.45 47.17 48.74
  A 1.37 1.33 -8.7 0 0 48.55 46.91
  Q 48.40 46.54 47.76 45.86
  A 0.86 0.85 36.0 0 1 47.61 44.92
  Q 49.01 41.76 48.15 39.21
  A 0.84 0.84 0.0 0 1 48.36 38.34
  L 50.91 35.79
  A 1.19 1.19 0.0 0 0 50.07 33.76
  L 46.78 33.76
  A 0.69 0.69 0.0 0 1 46.09 33.11
  C 45.91 30.46 45.57 27.83 44.38 25.47
  A 1.18 1.16 82.7 0 0 43.59 24.85
  C 42.14 24.53 40.27 24.59 38.66 23.84
  Q 35.45 22.33 33.41 19.31
  Q 33.37 19.25 32.98 19.25
  Q 32.58 19.25 32.54 19.31
  Q 30.50 22.33 27.29 23.84
  C 25.68 24.59 23.81 24.53 22.36 24.85
  A 1.18 1.16 -82.8 0 0 21.58 25.47
  C 20.39 27.83 20.05 30.46 19.87 33.11
  A 0.69 0.69 0.0 0 1 19.18 33.76
  L 15.89 33.77
  A 1.19 1.19 0.0 0 0 15.05 35.80
  L 17.60 38.35
  A 0.84 0.84 0.0 0 1 17.81 39.22
  Q 16.95 41.77 18.35 44.93
  A 0.86 0.85 -36.0 0 1 18.20 45.87
  Q 17.56 46.55 17.41 46.92
  A 1.37 1.33 8.7 0 0 18.79 48.74
  C 22.78 48.45 21.04 43.78 20.44 41.60
  A 1.65 1.60 -46.6 0 1 20.43 40.75
  Q 20.94 38.83 22.50 38.78
  Q 23.05 38.76 32.98 38.76
  Z"
/>
<path fill="#ffffff" d="
  M 32.98 19.25
  Q 33.37 19.25 33.41 19.31
  Q 35.45 22.33 38.66 23.84
  C 40.27 24.59 42.14 24.53 43.59 24.85
  A 1.18 1.16 82.7 0 1 44.38 25.47
  C 45.57 27.83 45.91 30.46 46.09 33.11
  A 0.69 0.69 0.0 0 0 46.78 33.76
  L 50.07 33.76
  A 1.19 1.19 0.0 0 1 50.91 35.79
  L 48.36 38.34
  A 0.84 0.84 0.0 0 0 48.15 39.21
  Q 49.01 41.76 47.61 44.92
  A 0.86 0.85 36.0 0 0 47.76 45.86
  Q 48.40 46.54 48.55 46.91
  A 1.37 1.33 -8.7 0 1 47.17 48.74
  C 43.18 48.45 44.92 43.78 45.52 41.60
  A 1.65 1.60 46.6 0 0 45.53 40.75
  Q 45.02 38.83 43.46 38.78
  Q 42.91 38.76 32.98 38.76
  Q 23.05 38.76 22.50 38.78
  Q 20.94 38.83 20.43 40.75
  A 1.65 1.60 -46.6 0 0 20.44 41.60
  C 21.04 43.78 22.78 48.45 18.79 48.74
  A 1.37 1.33 8.7 0 1 17.41 46.92
  Q 17.56 46.55 18.20 45.87
  A 0.86 0.85 -36.0 0 0 18.35 44.93
  Q 16.95 41.77 17.81 39.22
  A 0.84 0.84 0.0 0 0 17.60 38.35
  L 15.05 35.80
  A 1.19 1.19 0.0 0 1 15.89 33.77
  L 19.18 33.76
  A 0.69 0.69 0.0 0 0 19.87 33.11
  C 20.05 30.46 20.39 27.83 21.58 25.47
  A 1.18 1.16 -82.8 0 1 22.36 24.85
  C 23.81 24.53 25.68 24.59 27.29 23.84
  Q 30.50 22.33 32.54 19.31
  Q 32.58 19.25 32.98 19.25
  Z
  M 32.01 23.81
  A 0.43 0.42 69.1 0 0 31.30 23.49
  Q 27.93 26.55 24.08 26.60
  A 1.51 1.51 0.0 0 0 22.62 27.84
  L 21.73 32.68
  A 0.91 0.91 0.0 0 0 22.62 33.75
  L 26.06 33.75
  A 0.81 0.80 -80.3 0 0 26.82 33.21
  Q 28.24 29.19 31.33 27.06
  A 1.55 1.54 -17.1 0 0 32.01 25.78
  L 32.01 23.81
  Z
  M 33.97 23.81
  L 33.97 25.78
  A 1.55 1.54 17.1 0 0 34.65 27.06
  Q 37.74 29.20 39.15 33.22
  A 0.81 0.80 80.3 0 0 39.91 33.76
  L 43.35 33.77
  A 0.91 0.91 0.0 0 0 44.24 32.70
  L 43.36 27.85
  A 1.51 1.51 0.0 0 0 41.90 26.61
  Q 38.05 26.56 34.68 23.49
  A 0.43 0.42 -69.0 0 0 33.97 23.81
  Z
  M 32.96 33.75
  Q 35.65 33.77 36.70 33.80
  A 0.40 0.39 -12.5 0 0 37.07 33.23
  Q 35.67 30.58 33.21 28.50
  Q 33.12 28.43 32.99 28.43
  Q 32.87 28.43 32.78 28.50
  Q 30.29 30.54 28.85 33.17
  A 0.40 0.39 13.3 0 0 29.21 33.75
  Q 30.26 33.73 32.96 33.75
  Z"
/>
<path fill="#1c2133" d="
  M 32.01 23.81
  L 32.01 25.78
  A 1.55 1.54 -17.1 0 1 31.33 27.06
  Q 28.24 29.19 26.82 33.21
  A 0.81 0.80 -80.3 0 1 26.06 33.75
  L 22.62 33.75
  A 0.91 0.91 0.0 0 1 21.73 32.68
  L 22.62 27.84
  A 1.51 1.51 0.0 0 1 24.08 26.60
  Q 27.93 26.55 31.30 23.49
  A 0.43 0.42 69.1 0 1 32.01 23.81
  Z"
/>
<path fill="#1c2133" d="
  M 33.97 23.81
  A 0.43 0.42 -69.0 0 1 34.68 23.49
  Q 38.05 26.56 41.90 26.61
  A 1.51 1.51 0.0 0 1 43.36 27.85
  L 44.24 32.70
  A 0.91 0.91 0.0 0 1 43.35 33.77
  L 39.91 33.76
  A 0.81 0.80 80.3 0 1 39.15 33.22
  Q 37.74 29.20 34.65 27.06
  A 1.55 1.54 17.1 0 1 33.97 25.78
  L 33.97 23.81
  Z"
/>
<path fill="#1c2133" d="
  M 32.99 28.43
  Q 33.12 28.43 33.21 28.50
  Q 35.67 30.58 37.07 33.23
  A 0.40 0.39 -12.5 0 1 36.70 33.80
  Q 35.65 33.77 32.96 33.75
  Q 30.26 33.73 29.21 33.75
  A 0.40 0.39 13.3 0 1 28.85 33.17
  Q 30.29 30.54 32.78 28.50
  Q 32.87 28.43 32.99 28.43
  Z"
/>
</svg>
