<?xml version="1.0" encoding="UTF-8" standalone="no"?>
<!DOCTYPE svg PUBLIC "-//W3C//DTD SVG 1.1//EN" "http://www.w3.org/Graphics/SVG/1.1/DTD/svg11.dtd">
<svg xmlns="http://www.w3.org/2000/svg" version="1.1" viewBox="0.00 0.00 66.00 88.00">
<g stroke-width="2.00" fill="none" stroke-linecap="butt">
<path stroke="#6c427b" vector-effect="non-scaling-stroke" d="
  M 33.41 86.69
  Q 33.55 86.69 33.63 86.67
  Q 33.65 86.67 33.77 86.55
  C 50.51 70.98 75.89 38.74 58.51 15.24
  Q 49.48 3.03 33.75 2.47
  Q 33.64 2.47 33.53 2.47
  Q 33.42 2.47 33.31 2.47
  Q 17.58 2.99 8.51 15.17
  C -8.93 38.62 16.36 70.93 33.06 86.55
  Q 33.18 86.67 33.20 86.67
  Q 33.28 86.69 33.41 86.69"
/>
<path stroke="#c7acd0" vector-effect="non-scaling-stroke" d="
  M 23.48 24.50
  Q 20.28 27.69 19.51 32.89
  A 0.51 0.50 -1.2 0 1 19.09 33.31
  Q 15.54 33.90 15.54 33.99
  Q 15.54 34.08 19.09 34.68
  A 0.51 0.50 1.3 0 1 19.51 35.10
  Q 20.27 40.30 23.47 43.50
  Q 26.66 46.70 31.86 47.47
  A 0.51 0.50 88.8 0 1 32.28 47.88
  Q 32.87 51.44 32.96 51.44
  Q 33.05 51.44 33.65 47.89
  A 0.51 0.50 -88.7 0 1 34.07 47.47
  Q 39.27 46.71 42.47 43.51
  Q 45.67 40.32 46.44 35.12
  A 0.51 0.50 -1.2 0 1 46.85 34.70
  Q 50.40 34.10 50.40 34.02
  Q 50.40 33.93 46.85 33.33
  A 0.51 0.50 1.3 0 1 46.44 32.91
  Q 45.67 27.71 42.48 24.51
  Q 39.29 21.31 34.09 20.54
  A 0.51 0.50 88.8 0 1 33.66 20.12
  Q 33.07 16.57 32.99 16.57
  Q 32.90 16.57 32.30 20.12
  A 0.51 0.50 -88.7 0 1 31.88 20.54
  Q 26.68 21.30 23.48 24.50"
/>
<path stroke="#c7acd0" vector-effect="non-scaling-stroke" d="
  M 30.43 31.43
  Q 31.51 30.35 29.88 29.08
  A 0.66 0.66 0.0 0 1 29.66 28.33
  L 31.64 23.02
  A 0.44 0.43 6.5 0 0 31.17 22.43
  Q 27.36 22.96 24.65 25.65
  Q 21.94 28.34 21.38 32.15
  A 0.44 0.43 83.9 0 0 21.97 32.62
  L 27.30 30.68
  A 0.66 0.66 0.0 0 1 28.04 30.90
  Q 29.30 32.55 30.43 31.43"
/>
<path stroke="#c7acd0" vector-effect="non-scaling-stroke" d="
  M 35.57 31.40
  Q 36.69 32.51 37.93 30.89
  A 0.66 0.65 28.2 0 1 38.68 30.67
  L 43.96 32.60
  A 0.43 0.43 0.0 0 0 44.53 32.13
  Q 43.99 28.35 41.31 25.68
  Q 38.63 23.02 34.85 22.48
  A 0.43 0.43 0.0 0 0 34.38 23.06
  L 36.34 28.34
  A 0.66 0.65 61.6 0 1 36.12 29.08
  Q 34.50 30.33 35.57 31.40"
/>
<path stroke="#c7acd0" vector-effect="non-scaling-stroke" d="
  M 33.02 29.76
  Q 34.33 29.76 33.93 27.94
  Q 33.37 25.37 33.04 25.37
  Q 32.65 25.36 32.06 27.93
  Q 31.65 29.75 33.02 29.76"
/>
<path stroke="#c7acd0" vector-effect="non-scaling-stroke" d="
  M 34.81 33.97
  A 1.82 1.82 0.0 0 0 32.99 32.15
  A 1.82 1.82 0.0 0 0 31.17 33.97
  A 1.82 1.82 0.0 0 0 32.99 35.79
  A 1.82 1.82 0.0 0 0 34.81 33.97"
/>
<path stroke="#c7acd0" vector-effect="non-scaling-stroke" d="
  M 28.57 34.06
  Q 28.56 32.74 26.80 33.13
  Q 24.34 33.69 24.34 34.07
  Q 24.34 34.39 26.81 34.94
  Q 28.57 35.33 28.57 34.06"
/>
<path stroke="#c7acd0" vector-effect="non-scaling-stroke" d="
  M 37.41 34.05
  Q 37.40 35.31 39.15 34.94
  Q 41.60 34.42 41.60 34.10
  Q 41.61 33.73 39.17 33.16
  Q 37.43 32.75 37.41 34.05"
/>
<path stroke="#c7acd0" vector-effect="non-scaling-stroke" d="
  M 30.45 36.58
  Q 29.34 35.46 28.09 37.08
  A 0.66 0.65 28.4 0 1 27.35 37.30
  L 22.09 35.35
  A 0.43 0.43 0.0 0 0 21.51 35.82
  Q 22.05 39.59 24.71 42.26
  Q 27.37 44.93 31.14 45.47
  A 0.43 0.43 0.0 0 0 31.61 44.89
  L 29.67 39.63
  A 0.66 0.65 61.7 0 1 29.89 38.89
  Q 31.51 37.65 30.45 36.58"
/>
<path stroke="#c7acd0" vector-effect="non-scaling-stroke" d="
  M 35.55 36.56
  Q 34.48 37.62 36.09 38.87
  A 0.66 0.65 -61.5 0 1 36.31 39.61
  L 34.36 44.86
  A 0.43 0.43 0.0 0 0 34.82 45.44
  Q 38.59 44.91 41.26 42.25
  Q 43.93 39.60 44.48 35.83
  A 0.43 0.43 0.0 0 0 43.90 35.36
  L 38.64 37.29
  A 0.66 0.65 -28.2 0 1 37.90 37.07
  Q 36.66 35.45 35.55 36.56"
/>
<path stroke="#c7acd0" vector-effect="non-scaling-stroke" d="
  M 33.00 38.32
  Q 31.66 38.32 32.05 40.12
  Q 32.61 42.64 32.99 42.64
  Q 33.32 42.64 33.89 40.12
  Q 34.30 38.33 33.00 38.32"
/>
</g>
<path fill="#492c55" d="
  M 33.81 88.00
  L 33.15 88.00
  Q 15.61 72.49 6.00 52.51
  Q 2.30 44.83 1.62 35.22
  Q 0.95 25.69 5.27 17.98
  C 17.74 -4.26 49.75 -4.35 61.99 18.52
  C 67.43 28.68 65.91 41.14 61.31 51.54
  C 55.18 65.40 44.96 77.82 33.81 88.00
  Z
  M 33.41 86.69
  Q 33.55 86.69 33.63 86.67
  Q 33.65 86.67 33.77 86.55
  C 50.51 70.98 75.89 38.74 58.51 15.24
  Q 49.48 3.03 33.75 2.47
  Q 33.64 2.47 33.53 2.47
  Q 33.42 2.47 33.31 2.47
  Q 17.58 2.99 8.51 15.17
  C -8.93 38.62 16.36 70.93 33.06 86.55
  Q 33.18 86.67 33.20 86.67
  Q 33.28 86.69 33.41 86.69
  Z"
/>
<path fill="#8e58a1" d="
  M 33.53 2.47
  Q 33.64 2.47 33.75 2.47
  Q 49.48 3.03 58.51 15.24
  C 75.89 38.74 50.51 70.98 33.77 86.55
  Q 33.65 86.67 33.63 86.67
  Q 33.55 86.69 33.41 86.69
  Q 33.28 86.69 33.20 86.67
  Q 33.18 86.67 33.06 86.55
  C 16.36 70.93 -8.93 38.62 8.51 15.17
  Q 17.58 2.99 33.31 2.47
  Q 33.42 2.47 33.53 2.47
  Z
  M 23.48 24.50
  Q 20.28 27.69 19.51 32.89
  A 0.51 0.50 -1.2 0 1 19.09 33.31
  Q 15.54 33.90 15.54 33.99
  Q 15.54 34.08 19.09 34.68
  A 0.51 0.50 1.3 0 1 19.51 35.10
  Q 20.27 40.30 23.47 43.50
  Q 26.66 46.70 31.86 47.47
  A 0.51 0.50 88.8 0 1 32.28 47.88
  Q 32.87 51.44 32.96 51.44
  Q 33.05 51.44 33.65 47.89
  A 0.51 0.50 -88.7 0 1 34.07 47.47
  Q 39.27 46.71 42.47 43.51
  Q 45.67 40.32 46.44 35.12
  A 0.51 0.50 -1.2 0 1 46.85 34.70
  Q 50.40 34.10 50.40 34.02
  Q 50.40 33.93 46.85 33.33
  A 0.51 0.50 1.3 0 1 46.44 32.91
  Q 45.67 27.71 42.48 24.51
  Q 39.29 21.31 34.09 20.54
  A 0.51 0.50 88.8 0 1 33.66 20.12
  Q 33.07 16.57 32.99 16.57
  Q 32.90 16.57 32.30 20.12
  A 0.51 0.50 -88.7 0 1 31.88 20.54
  Q 26.68 21.30 23.48 24.50
  Z"
/>
<path fill="#ffffff" d="
  M 32.99 16.57
  Q 33.07 16.57 33.66 20.12
  A 0.51 0.50 88.8 0 0 34.09 20.54
  Q 39.29 21.31 42.48 24.51
  Q 45.67 27.71 46.44 32.91
  A 0.51 0.50 1.3 0 0 46.85 33.33
  Q 50.40 33.93 50.40 34.02
  Q 50.40 34.10 46.85 34.70
  A 0.51 0.50 -1.2 0 0 46.44 35.12
  Q 45.67 40.32 42.47 43.51
  Q 39.27 46.71 34.07 47.47
  A 0.51 0.50 -88.7 0 0 33.65 47.89
  Q 33.05 51.44 32.96 51.44
  Q 32.87 51.44 32.28 47.88
  A 0.51 0.50 88.8 0 0 31.86 47.47
  Q 26.66 46.70 23.47 43.50
  Q 20.27 40.30 19.51 35.10
  A 0.51 0.50 1.3 0 0 19.09 34.68
  Q 15.54 34.08 15.54 33.99
  Q 15.54 33.90 19.09 33.31
  A 0.51 0.50 -1.2 0 0 19.51 32.89
  Q 20.28 27.69 23.48 24.50
  Q 26.68 21.30 31.88 20.54
  A 0.51 0.50 -88.7 0 0 32.30 20.12
  Q 32.90 16.57 32.99 16.57
  Z
  M 30.43 31.43
  Q 31.51 30.35 29.88 29.08
  A 0.66 0.66 0.0 0 1 29.66 28.33
  L 31.64 23.02
  A 0.44 0.43 6.5 0 0 31.17 22.43
  Q 27.36 22.96 24.65 25.65
  Q 21.94 28.34 21.38 32.15
  A 0.44 0.43 83.9 0 0 21.97 32.62
  L 27.30 30.68
  A 0.66 0.66 0.0 0 1 28.04 30.90
  Q 29.30 32.55 30.43 31.43
  Z
  M 35.57 31.40
  Q 36.69 32.51 37.93 30.89
  A 0.66 0.65 28.2 0 1 38.68 30.67
  L 43.96 32.60
  A 0.43 0.43 0.0 0 0 44.53 32.13
  Q 43.99 28.35 41.31 25.68
  Q 38.63 23.02 34.85 22.48
  A 0.43 0.43 0.0 0 0 34.38 23.06
  L 36.34 28.34
  A 0.66 0.65 61.6 0 1 36.12 29.08
  Q 34.50 30.33 35.57 31.40
  Z
  M 33.02 29.76
  Q 34.33 29.76 33.93 27.94
  Q 33.37 25.37 33.04 25.37
  Q 32.65 25.36 32.06 27.93
  Q 31.65 29.75 33.02 29.76
  Z
  M 34.81 33.97
  A 1.82 1.82 0.0 0 0 32.99 32.15
  A 1.82 1.82 0.0 0 0 31.17 33.97
  A 1.82 1.82 0.0 0 0 32.99 35.79
  A 1.82 1.82 0.0 0 0 34.81 33.97
  Z
  M 28.57 34.06
  Q 28.56 32.74 26.80 33.13
  Q 24.34 33.69 24.34 34.07
  Q 24.34 34.39 26.81 34.94
  Q 28.57 35.33 28.57 34.06
  Z
  M 37.41 34.05
  Q 37.40 35.31 39.15 34.94
  Q 41.60 34.42 41.60 34.10
  Q 41.61 33.73 39.17 33.16
  Q 37.43 32.75 37.41 34.05
  Z
  M 30.45 36.58
  Q 29.34 35.46 28.09 37.08
  A 0.66 0.65 28.4 0 1 27.35 37.30
  L 22.09 35.35
  A 0.43 0.43 0.0 0 0 21.51 35.82
  Q 22.05 39.59 24.71 42.26
  Q 27.37 44.93 31.14 45.47
  A 0.43 0.43 0.0 0 0 31.61 44.89
  L 29.67 39.63
  A 0.66 0.65 61.7 0 1 29.89 38.89
  Q 31.51 37.65 30.45 36.58
  Z
  M 35.55 36.56
  Q 34.48 37.62 36.09 38.87
  A 0.66 0.65 -61.5 0 1 36.31 39.61
  L 34.36 44.86
  A 0.43 0.43 0.0 0 0 34.82 45.44
  Q 38.59 44.91 41.26 42.25
  Q 43.93 39.60 44.48 35.83
  A 0.43 0.43 0.0 0 0 43.90 35.36
  L 38.64 37.29
  A 0.66 0.65 -28.2 0 1 37.90 37.07
  Q 36.66 35.45 35.55 36.56
  Z
  M 33.00 38.32
  Q 31.66 38.32 32.05 40.12
  Q 32.61 42.64 32.99 42.64
  Q 33.32 42.64 33.89 40.12
  Q 34.30 38.33 33.00 38.32
  Z"
/>
<path fill="#8e58a1" d="
  M 30.43 31.43
  Q 29.30 32.55 28.04 30.90
  A 0.66 0.66 0.0 0 0 27.30 30.68
  L 21.97 32.62
  A 0.44 0.43 83.9 0 1 21.38 32.15
  Q 21.94 28.34 24.65 25.65
  Q 27.36 22.96 31.17 22.43
  A 0.44 0.43 6.5 0 1 31.64 23.02
  L 29.66 28.33
  A 0.66 0.66 0.0 0 0 29.88 29.08
  Q 31.51 30.35 30.43 31.43
  Z"
/>
<path fill="#8e58a1" d="
  M 35.57 31.40
  Q 34.50 30.33 36.12 29.08
  A 0.66 0.65 61.6 0 0 36.34 28.34
  L 34.38 23.06
  A 0.43 0.43 0.0 0 1 34.85 22.48
  Q 38.63 23.02 41.31 25.68
  Q 43.99 28.35 44.53 32.13
  A 0.43 0.43 0.0 0 1 43.96 32.60
  L 38.68 30.67
  A 0.66 0.65 28.2 0 0 37.93 30.89
  Q 36.69 32.51 35.57 31.40
  Z"
/>
<path fill="#8e58a1" d="
  M 33.04 25.37
  Q 33.37 25.37 33.93 27.94
  Q 34.33 29.76 33.02 29.76
  Q 31.65 29.75 32.06 27.93
  Q 32.65 25.36 33.04 25.37
  Z"
/>
<circle fill="#8e58a1" cx="32.99" cy="33.97" r="1.82"/>
<path fill="#8e58a1" d="
  M 28.57 34.06
  Q 28.57 35.33 26.81 34.94
  Q 24.34 34.39 24.34 34.07
  Q 24.34 33.69 26.80 33.13
  Q 28.56 32.74 28.57 34.06
  Z"
/>
<path fill="#8e58a1" d="
  M 37.41 34.05
  Q 37.43 32.75 39.17 33.16
  Q 41.61 33.73 41.60 34.10
  Q 41.60 34.42 39.15 34.94
  Q 37.40 35.31 37.41 34.05
  Z"
/>
<path fill="#8e58a1" d="
  M 30.45 36.58
  Q 31.51 37.65 29.89 38.89
  A 0.66 0.65 61.7 0 0 29.67 39.63
  L 31.61 44.89
  A 0.43 0.43 0.0 0 1 31.14 45.47
  Q 27.37 44.93 24.71 42.26
  Q 22.05 39.59 21.51 35.82
  A 0.43 0.43 0.0 0 1 22.09 35.35
  L 27.35 37.30
  A 0.66 0.65 28.4 0 0 28.09 37.08
  Q 29.34 35.46 30.45 36.58
  Z"
/>
<path fill="#8e58a1" d="
  M 41.26 42.25
  Q 38.59 44.91 34.82 45.44
  A 0.43 0.43 0.0 0 1 34.36 44.86
  L 36.31 39.61
  A 0.66 0.65 -61.5 0 0 36.09 38.87
  Q 34.48 37.62 35.55 36.56
  Q 36.66 35.45 37.90 37.07
  A 0.66 0.65 -28.2 0 0 38.64 37.29
  L 43.90 35.36
  A 0.43 0.43 0.0 0 1 44.48 35.83
  Q 43.93 39.60 41.26 42.25
  Z"
/>
<path fill="#8e58a1" d="
  M 33.00 38.32
  Q 34.30 38.33 33.89 40.12
  Q 33.32 42.64 32.99 42.64
  Q 32.61 42.64 32.05 40.12
  Q 31.66 38.32 33.00 38.32
  Z"
/>
</svg>
