<?xml version="1.0" encoding="UTF-8" standalone="no"?>
<!DOCTYPE svg PUBLIC "-//W3C//DTD SVG 1.1//EN" "http://www.w3.org/Graphics/SVG/1.1/DTD/svg11.dtd">
<svg xmlns="http://www.w3.org/2000/svg" version="1.1" viewBox="0.00 0.00 66.00 88.00">
<g stroke-width="2.00" fill="none" stroke-linecap="butt">
<path stroke="#171b29" vector-effect="non-scaling-stroke" d="
  M 33.36 86.37
  Q 33.96 86.38 34.65 85.66
  C 48.77 70.97 65.24 52.33 63.95 30.36
  C 63.02 14.62 48.99 2.59 33.50 2.56
  C 18.01 2.54 3.95 14.53 2.97 30.26
  C 1.60 52.23 18.01 70.92 32.09 85.66
  Q 32.77 86.37 33.36 86.37"
/>
<path stroke="#8e9099" vector-effect="non-scaling-stroke" d="
  M 40.64 32.84
  Q 38.82 30.07 35.79 27.84
  A 1.95 1.94 -60.0 0 1 35.17 25.49
  Q 36.56 22.33 38.96 20.29
  A 0.45 0.45 0.0 0 0 38.82 19.52
  L 29.91 16.48
  A 1.60 1.52 50.6 0 0 29.26 16.40
  Q 24.15 16.96 23.02 17.78
  Q 16.85 22.27 16.58 22.33
  A 0.25 0.25 0.0 0 0 16.48 22.77
  L 21.73 26.91
  A 0.50 0.49 46.2 0 1 21.72 27.70
  C 18.26 30.23 14.28 34.74 14.66 39.29
  Q 15.09 44.39 20.19 44.88
  A 0.46 0.45 80.2 0 0 20.64 44.23
  Q 19.58 41.98 19.79 40.57
  A 0.27 0.26 35.8 0 1 20.29 40.49
  C 22.18 44.16 24.86 47.10 29.32 46.77
  A 0.64 0.64 0.0 0 0 29.91 46.13
  L 29.91 37.91
  A 2.81 2.78 61.0 0 1 30.32 36.45
  C 32.41 33.02 36.39 33.20 40.35 33.34
  A 0.33 0.32 -15.4 0 0 40.64 32.84"
/>
<path stroke="#8e9099" vector-effect="non-scaling-stroke" d="
  M 32.7300 38.1809
  A 5.23 2.10 -179.9 0 0 37.9563 40.2900
  A 5.23 2.10 -179.9 0 0 43.1900 38.1991
  A 5.23 2.10 -179.9 0 0 37.9637 36.0900
  A 5.23 2.10 -179.9 0 0 32.7300 38.1809"
/>
<path stroke="#8e9099" vector-effect="non-scaling-stroke" d="
  M 46.02 38.96
  L 46.00 42.42
  A 0.32 0.32 0.0 0 0 46.32 42.74
  L 46.49 42.74
  A 4.71 1.99 0.2 0 0 51.21 40.77
  L 51.21 40.65
  A 4.71 1.99 0.2 0 0 46.51 38.64
  L 46.34 38.64
  A 0.32 0.32 0.0 0 0 46.02 38.96"
/>
<path stroke="#8e9099" vector-effect="non-scaling-stroke" d="
  M 37.94 45.53
  C 39.92 45.53 42.41 45.36 43.38 43.03
  A 0.52 0.52 0.0 0 0 42.76 42.33
  Q 40.45 42.99 37.95 42.98
  Q 35.44 42.97 33.14 42.30
  A 0.52 0.52 0.0 0 0 32.51 42.99
  C 33.47 45.33 35.95 45.52 37.94 45.53"
/>
<path stroke="#8e9099" vector-effect="non-scaling-stroke" d="
  M 49.92 44.83
  Q 48.99 45.30 46.57 45.41
  A 0.60 0.60 0.0 0 0 45.99 46.01
  L 45.99 47.46
  A 0.53 0.53 0.0 0 0 46.51 47.99
  Q 49.17 48.08 51.05 46.62
  A 1.06 1.06 0.0 0 0 49.92 44.83"
/>
<path stroke="#8e9099" vector-effect="non-scaling-stroke" d="
  M 37.96 50.69
  C 39.92 50.69 42.37 50.51 43.32 48.20
  A 0.51 0.51 0.0 0 0 42.71 47.52
  Q 40.43 48.18 37.96 48.18
  Q 35.49 48.18 33.21 47.52
  A 0.51 0.51 0.0 0 0 32.60 48.21
  C 33.55 50.52 36.01 50.69 37.96 50.69"
/>
<path stroke="#8e9099" vector-effect="non-scaling-stroke" d="
  M 28.08 22.74
  Q 32.31 22.20 35.37 20.75
  A 0.27 0.27 0.0 0 0 35.35 20.25
  C 33.03 19.36 29.97 18.57 27.59 18.87
  C 25.21 19.18 22.43 20.70 20.41 22.15
  A 0.27 0.27 0.0 0 0 20.52 22.63
  Q 23.85 23.27 28.08 22.74"
/>
<path stroke="#8e9099" vector-effect="non-scaling-stroke" d="
  M 32.47 26.50
  A 0.26 0.26 0.0 0 0 32.13 26.40
  Q 28.58 28.18 24.90 26.33
  A 0.43 0.43 0.0 0 0 24.29 26.84
  Q 24.59 27.78 23.65 28.20
  A 0.39 0.39 0.0 0 0 23.66 28.91
  Q 28.51 30.88 33.34 28.72
  A 0.32 0.32 0.0 0 0 33.48 28.26
  L 32.47 26.50"
/>
</g>
<path fill="#11141f" d="
  M 33.79 88.00
  L 33.04 88.00
  C 22.21 78.21 11.92 65.54 5.75 51.76
  Q 2.15 43.72 1.56 34.96
  C 0.47 18.97 11.16 5.77 26.65 2.05
  C 37.37 -0.51 49.54 3.34 57.14 11.63
  C 79.55 36.11 52.15 71.38 33.79 88.00
  Z
  M 33.36 86.37
  Q 33.96 86.38 34.65 85.66
  C 48.77 70.97 65.24 52.33 63.95 30.36
  C 63.02 14.62 48.99 2.59 33.50 2.56
  C 18.01 2.54 3.95 14.53 2.97 30.26
  C 1.60 52.23 18.01 70.92 32.09 85.66
  Q 32.77 86.37 33.36 86.37
  Z"
/>
<path fill="#1c2133" d="
  M 33.50 2.56
  C 48.99 2.59 63.02 14.62 63.95 30.36
  C 65.24 52.33 48.77 70.97 34.65 85.66
  Q 33.96 86.38 33.36 86.37
  Q 32.77 86.37 32.09 85.66
  C 18.01 70.92 1.60 52.23 2.97 30.26
  C 3.95 14.53 18.01 2.54 33.50 2.56
  Z
  M 40.64 32.84
  Q 38.82 30.07 35.79 27.84
  A 1.95 1.94 -60.0 0 1 35.17 25.49
  Q 36.56 22.33 38.96 20.29
  A 0.45 0.45 0.0 0 0 38.82 19.52
  L 29.91 16.48
  A 1.60 1.52 50.6 0 0 29.26 16.40
  Q 24.15 16.96 23.02 17.78
  Q 16.85 22.27 16.58 22.33
  A 0.25 0.25 0.0 0 0 16.48 22.77
  L 21.73 26.91
  A 0.50 0.49 46.2 0 1 21.72 27.70
  C 18.26 30.23 14.28 34.74 14.66 39.29
  Q 15.09 44.39 20.19 44.88
  A 0.46 0.45 80.2 0 0 20.64 44.23
  Q 19.58 41.98 19.79 40.57
  A 0.27 0.26 35.8 0 1 20.29 40.49
  C 22.18 44.16 24.86 47.10 29.32 46.77
  A 0.64 0.64 0.0 0 0 29.91 46.13
  L 29.91 37.91
  A 2.81 2.78 61.0 0 1 30.32 36.45
  C 32.41 33.02 36.39 33.20 40.35 33.34
  A 0.33 0.32 -15.4 0 0 40.64 32.84
  Z
  M 32.7300 38.1809
  A 5.23 2.10 -179.9 0 0 37.9563 40.2900
  A 5.23 2.10 -179.9 0 0 43.1900 38.1991
  A 5.23 2.10 -179.9 0 0 37.9637 36.0900
  A 5.23 2.10 -179.9 0 0 32.7300 38.1809
  Z
  M 46.02 38.96
  L 46.00 42.42
  A 0.32 0.32 0.0 0 0 46.32 42.74
  L 46.49 42.74
  A 4.71 1.99 0.2 0 0 51.21 40.77
  L 51.21 40.65
  A 4.71 1.99 0.2 0 0 46.51 38.64
  L 46.34 38.64
  A 0.32 0.32 0.0 0 0 46.02 38.96
  Z
  M 37.94 45.53
  C 39.92 45.53 42.41 45.36 43.38 43.03
  A 0.52 0.52 0.0 0 0 42.76 42.33
  Q 40.45 42.99 37.95 42.98
  Q 35.44 42.97 33.14 42.30
  A 0.52 0.52 0.0 0 0 32.51 42.99
  C 33.47 45.33 35.95 45.52 37.94 45.53
  Z
  M 49.92 44.83
  Q 48.99 45.30 46.57 45.41
  A 0.60 0.60 0.0 0 0 45.99 46.01
  L 45.99 47.46
  A 0.53 0.53 0.0 0 0 46.51 47.99
  Q 49.17 48.08 51.05 46.62
  A 1.06 1.06 0.0 0 0 49.92 44.83
  Z
  M 37.96 50.69
  C 39.92 50.69 42.37 50.51 43.32 48.20
  A 0.51 0.51 0.0 0 0 42.71 47.52
  Q 40.43 48.18 37.96 48.18
  Q 35.49 48.18 33.21 47.52
  A 0.51 0.51 0.0 0 0 32.60 48.21
  C 33.55 50.52 36.01 50.69 37.96 50.69
  Z"
/>
<path fill="#ffffff" d="
  M 40.35 33.34
  C 36.39 33.20 32.41 33.02 30.32 36.45
  A 2.81 2.78 61.0 0 0 29.91 37.91
  L 29.91 46.13
  A 0.64 0.64 0.0 0 1 29.32 46.77
  C 24.86 47.10 22.18 44.16 20.29 40.49
  A 0.27 0.26 35.8 0 0 19.79 40.57
  Q 19.58 41.98 20.64 44.23
  A 0.46 0.45 80.2 0 1 20.19 44.88
  Q 15.09 44.39 14.66 39.29
  C 14.28 34.74 18.26 30.23 21.72 27.70
  A 0.50 0.49 46.2 0 0 21.73 26.91
  L 16.48 22.77
  A 0.25 0.25 0.0 0 1 16.58 22.33
  Q 16.85 22.27 23.02 17.78
  Q 24.15 16.96 29.26 16.40
  A 1.60 1.52 50.6 0 1 29.91 16.48
  L 38.82 19.52
  A 0.45 0.45 0.0 0 1 38.96 20.29
  Q 36.56 22.33 35.17 25.49
  A 1.95 1.94 -60.0 0 0 35.79 27.84
  Q 38.82 30.07 40.64 32.84
  A 0.33 0.32 -15.4 0 1 40.35 33.34
  Z
  M 28.08 22.74
  Q 32.31 22.20 35.37 20.75
  A 0.27 0.27 0.0 0 0 35.35 20.25
  C 33.03 19.36 29.97 18.57 27.59 18.87
  C 25.21 19.18 22.43 20.70 20.41 22.15
  A 0.27 0.27 0.0 0 0 20.52 22.63
  Q 23.85 23.27 28.08 22.74
  Z
  M 32.47 26.50
  A 0.26 0.26 0.0 0 0 32.13 26.40
  Q 28.58 28.18 24.90 26.33
  A 0.43 0.43 0.0 0 0 24.29 26.84
  Q 24.59 27.78 23.65 28.20
  A 0.39 0.39 0.0 0 0 23.66 28.91
  Q 28.51 30.88 33.34 28.72
  A 0.32 0.32 0.0 0 0 33.48 28.26
  L 32.47 26.50
  Z"
/>
<path fill="#1c2133" d="
  M 28.08 22.74
  Q 23.85 23.27 20.52 22.63
  A 0.27 0.27 0.0 0 1 20.41 22.15
  C 22.43 20.70 25.21 19.18 27.59 18.87
  C 29.97 18.57 33.03 19.36 35.35 20.25
  A 0.27 0.27 0.0 0 1 35.37 20.75
  Q 32.31 22.20 28.08 22.74
  Z"
/>
<path fill="#1c2133" d="
  M 33.34 28.72
  Q 28.51 30.88 23.66 28.91
  A 0.39 0.39 0.0 0 1 23.65 28.20
  Q 24.59 27.78 24.29 26.84
  A 0.43 0.43 0.0 0 1 24.90 26.33
  Q 28.58 28.18 32.13 26.40
  A 0.26 0.26 0.0 0 1 32.47 26.50
  L 33.48 28.26
  A 0.32 0.32 0.0 0 1 33.34 28.72
  Z"
/>
<ellipse fill="#ffffff" cx="0.00" cy="0.00" transform="translate(37.96,38.19) rotate(-179.9)" rx="5.23" ry="2.10"/>
<path fill="#ffffff" d="
  M 46.02 38.96
  A 0.32 0.32 0.0 0 1 46.34 38.64
  L 46.51 38.64
  A 4.71 1.99 0.2 0 1 51.21 40.65
  L 51.21 40.77
  A 4.71 1.99 0.2 0 1 46.49 42.74
  L 46.32 42.74
  A 0.32 0.32 0.0 0 1 46.00 42.42
  L 46.02 38.96
  Z"
/>
<path fill="#ffffff" d="
  M 37.94 45.53
  C 35.95 45.52 33.47 45.33 32.51 42.99
  A 0.52 0.52 0.0 0 1 33.14 42.30
  Q 35.44 42.97 37.95 42.98
  Q 40.45 42.99 42.76 42.33
  A 0.52 0.52 0.0 0 1 43.38 43.03
  C 42.41 45.36 39.92 45.53 37.94 45.53
  Z"
/>
<path fill="#ffffff" d="
  M 49.92 44.83
  A 1.06 1.06 0.0 0 1 51.05 46.62
  Q 49.17 48.08 46.51 47.99
  A 0.53 0.53 0.0 0 1 45.99 47.46
  L 45.99 46.01
  A 0.60 0.60 0.0 0 1 46.57 45.41
  Q 48.99 45.30 49.92 44.83
  Z"
/>
<path fill="#ffffff" d="
  M 37.96 48.18
  Q 40.43 48.18 42.71 47.52
  A 0.51 0.51 0.0 0 1 43.32 48.20
  C 42.37 50.51 39.92 50.69 37.96 50.69
  C 36.01 50.69 33.55 50.52 32.60 48.21
  A 0.51 0.51 0.0 0 1 33.21 47.52
  Q 35.49 48.18 37.96 48.18
  Z"
/>
</svg>
