<?xml version="1.0" encoding="UTF-8" standalone="no"?>
<!DOCTYPE svg PUBLIC "-//W3C//DTD SVG 1.1//EN" "http://www.w3.org/Graphics/SVG/1.1/DTD/svg11.dtd">
<svg xmlns="http://www.w3.org/2000/svg" version="1.1" viewBox="0.00 0.00 66.00 88.00">
<g stroke-width="2.00" fill="none" stroke-linecap="butt">
<path stroke="#802436" vector-effect="non-scaling-stroke" d="
  M 33.42 86.69
  Q 33.52 86.69 33.62 86.67
  Q 33.64 86.67 33.76 86.55
  Q 47.32 73.98 56.29 58.80
  Q 62.30 48.63 63.69 39.49
  Q 64.85 31.85 63.78 27.20
  Q 60.00 10.76 44.67 4.62
  Q 39.32 2.47 33.51 2.47
  Q 27.71 2.46 22.35 4.59
  Q 7.01 10.70 3.19 27.13
  Q 2.11 31.78 3.25 39.42
  Q 4.62 48.56 10.61 58.75
  Q 19.54 73.95 33.07 86.55
  Q 33.19 86.67 33.21 86.67
  Q 33.31 86.69 33.42 86.69"
/>
<path stroke="#d498a4" vector-effect="non-scaling-stroke" d="
  M 33.38 37.71
  Q 33.40 37.71 33.45 37.71
  A 0.17 0.01 2.7 0 1 33.61 37.73
  C 37.92 41.80 36.23 45.83 37.58 50.22
  A 1.75 1.67 48.3 0 1 37.54 51.33
  Q 37.48 51.49 37.44 51.57
  A 0.50 0.50 0.0 0 0 37.89 52.27
  Q 40.25 52.31 44.16 52.19
  A 2.15 2.15 0.0 0 0 45.64 48.55
  Q 45.09 47.98 45.44 45.96
  A 2.80 2.77 44.7 0 0 45.43 44.94
  Q 44.97 42.57 44.99 41.77
  C 45.25 34.19 44.87 29.60 38.75 24.95
  A 0.71 0.69 30.1 0 1 38.52 24.13
  C 40.09 20.25 37.92 15.73 33.38 15.73
  C 28.83 15.73 26.67 20.25 28.24 24.13
  A 0.71 0.69 -30.1 0 1 28.01 24.95
  C 21.89 29.61 21.51 34.20 21.78 41.78
  Q 21.80 42.58 21.34 44.95
  A 2.80 2.77 -44.7 0 0 21.33 45.97
  Q 21.68 47.99 21.13 48.56
  A 2.15 2.15 0.0 0 0 22.61 52.19
  Q 26.52 52.31 28.88 52.27
  A 0.50 0.50 0.0 0 0 29.33 51.57
  Q 29.29 51.49 29.23 51.33
  A 1.75 1.67 -48.3 0 1 29.19 50.22
  C 30.54 45.83 28.85 41.80 33.15 37.73
  A 0.17 0.01 -2.7 0 1 33.31 37.71
  Q 33.36 37.71 33.38 37.71"
/>
<path stroke="#d498a4" vector-effect="non-scaling-stroke" d="
  M 33.40 22.76
  C 34.35 22.76 35.63 23.45 35.92 23.52
  A 1.08 1.08 0.0 0 0 37.26 22.55
  C 37.45 19.93 36.17 17.56 33.40 17.56
  C 30.64 17.56 29.35 19.93 29.53 22.55
  A 1.08 1.08 0.0 0 0 30.88 23.52
  C 31.17 23.44 32.45 22.76 33.40 22.76"
/>
</g>
<path fill="#581723" d="
  M 33.81 88.00
  L 33.14 88.00
  C 16.30 73.06 -8.35 41.49 5.48 17.61
  C 18.47 -4.83 50.94 -4.02 62.57 19.69
  C 66.93 28.58 65.93 39.80 62.41 48.85
  C 56.63 63.75 45.56 77.31 33.81 88.00
  Z
  M 33.42 86.69
  Q 33.52 86.69 33.62 86.67
  Q 33.64 86.67 33.76 86.55
  Q 47.32 73.98 56.29 58.80
  Q 62.30 48.63 63.69 39.49
  Q 64.85 31.85 63.78 27.20
  Q 60.00 10.76 44.67 4.62
  Q 39.32 2.47 33.51 2.47
  Q 27.71 2.46 22.35 4.59
  Q 7.01 10.70 3.19 27.13
  Q 2.11 31.78 3.25 39.42
  Q 4.62 48.56 10.61 58.75
  Q 19.54 73.95 33.07 86.55
  Q 33.19 86.67 33.21 86.67
  Q 33.31 86.69 33.42 86.69
  Z"
/>
<path fill="#a83148" d="
  M 33.51 2.47
  Q 39.32 2.47 44.67 4.62
  Q 60.00 10.76 63.78 27.20
  Q 64.85 31.85 63.69 39.49
  Q 62.30 48.63 56.29 58.80
  Q 47.32 73.98 33.76 86.55
  Q 33.64 86.67 33.62 86.67
  Q 33.52 86.69 33.42 86.69
  Q 33.31 86.69 33.21 86.67
  Q 33.19 86.67 33.07 86.55
  Q 19.54 73.95 10.61 58.75
  Q 4.62 48.56 3.25 39.42
  Q 2.11 31.78 3.19 27.13
  Q 7.01 10.70 22.35 4.59
  Q 27.71 2.46 33.51 2.47
  Z
  M 33.38 37.71
  Q 33.40 37.71 33.45 37.71
  A 0.17 0.01 2.7 0 1 33.61 37.73
  C 37.92 41.80 36.23 45.83 37.58 50.22
  A 1.75 1.67 48.3 0 1 37.54 51.33
  Q 37.48 51.49 37.44 51.57
  A 0.50 0.50 0.0 0 0 37.89 52.27
  Q 40.25 52.31 44.16 52.19
  A 2.15 2.15 0.0 0 0 45.64 48.55
  Q 45.09 47.98 45.44 45.96
  A 2.80 2.77 44.7 0 0 45.43 44.94
  Q 44.97 42.57 44.99 41.77
  C 45.25 34.19 44.87 29.60 38.75 24.95
  A 0.71 0.69 30.1 0 1 38.52 24.13
  C 40.09 20.25 37.92 15.73 33.38 15.73
  C 28.83 15.73 26.67 20.25 28.24 24.13
  A 0.71 0.69 -30.1 0 1 28.01 24.95
  C 21.89 29.61 21.51 34.20 21.78 41.78
  Q 21.80 42.58 21.34 44.95
  A 2.80 2.77 -44.7 0 0 21.33 45.97
  Q 21.68 47.99 21.13 48.56
  A 2.15 2.15 0.0 0 0 22.61 52.19
  Q 26.52 52.31 28.88 52.27
  A 0.50 0.50 0.0 0 0 29.33 51.57
  Q 29.29 51.49 29.23 51.33
  A 1.75 1.67 -48.3 0 1 29.19 50.22
  C 30.54 45.83 28.85 41.80 33.15 37.73
  A 0.17 0.01 -2.7 0 1 33.31 37.71
  Q 33.36 37.71 33.38 37.71
  Z"
/>
<path fill="#ffffff" d="
  M 33.38 15.73
  C 37.92 15.73 40.09 20.25 38.52 24.13
  A 0.71 0.69 30.1 0 0 38.75 24.95
  C 44.87 29.60 45.25 34.19 44.99 41.77
  Q 44.97 42.57 45.43 44.94
  A 2.80 2.77 44.7 0 1 45.44 45.96
  Q 45.09 47.98 45.64 48.55
  A 2.15 2.15 0.0 0 1 44.16 52.19
  Q 40.25 52.31 37.89 52.27
  A 0.50 0.50 0.0 0 1 37.44 51.57
  Q 37.48 51.49 37.54 51.33
  A 1.75 1.67 48.3 0 0 37.58 50.22
  C 36.23 45.83 37.92 41.80 33.61 37.73
  A 0.17 0.01 2.7 0 0 33.45 37.71
  Q 33.40 37.71 33.38 37.71
  Q 33.36 37.71 33.31 37.71
  A 0.17 0.01 -2.7 0 0 33.15 37.73
  C 28.85 41.80 30.54 45.83 29.19 50.22
  A 1.75 1.67 -48.3 0 0 29.23 51.33
  Q 29.29 51.49 29.33 51.57
  A 0.50 0.50 0.0 0 1 28.88 52.27
  Q 26.52 52.31 22.61 52.19
  A 2.15 2.15 0.0 0 1 21.13 48.56
  Q 21.68 47.99 21.33 45.97
  A 2.80 2.77 -44.7 0 1 21.34 44.95
  Q 21.80 42.58 21.78 41.78
  C 21.51 34.20 21.89 29.61 28.01 24.95
  A 0.71 0.69 -30.1 0 0 28.24 24.13
  C 26.67 20.25 28.83 15.73 33.38 15.73
  Z
  M 33.40 22.76
  C 34.35 22.76 35.63 23.45 35.92 23.52
  A 1.08 1.08 0.0 0 0 37.26 22.55
  C 37.45 19.93 36.17 17.56 33.40 17.56
  C 30.64 17.56 29.35 19.93 29.53 22.55
  A 1.08 1.08 0.0 0 0 30.88 23.52
  C 31.17 23.44 32.45 22.76 33.40 22.76
  Z"
/>
<path fill="#a83148" d="
  M 33.40 17.56
  C 36.17 17.56 37.45 19.93 37.26 22.55
  A 1.08 1.08 0.0 0 1 35.92 23.52
  C 35.63 23.45 34.35 22.76 33.40 22.76
  C 32.45 22.76 31.17 23.44 30.88 23.52
  A 1.08 1.08 0.0 0 1 29.53 22.55
  C 29.35 19.93 30.64 17.56 33.40 17.56
  Z"
/>
</svg>
