<?xml version="1.0" encoding="UTF-8" standalone="no"?>
<!DOCTYPE svg PUBLIC "-//W3C//DTD SVG 1.1//EN" "http://www.w3.org/Graphics/SVG/1.1/DTD/svg11.dtd">
<svg xmlns="http://www.w3.org/2000/svg" version="1.1" viewBox="0.00 0.00 66.00 88.00">
<g stroke-width="2.00" fill="none" stroke-linecap="butt">
<path stroke="#7f5666" vector-effect="non-scaling-stroke" d="
  M 33.39 86.69
  Q 33.53 86.69 33.67 86.66
  A 0.19 0.12 -55.9 0 0 33.73 86.63
  C 51.04 70.59 77.50 36.48 56.76 13.03
  Q 47.77 2.87 33.75 2.46
  Q 33.64 2.46 33.54 2.46
  Q 33.43 2.46 33.32 2.46
  Q 19.30 2.82 10.28 12.95
  C -10.54 36.33 15.80 70.53 33.05 86.63
  A 0.19 0.12 56.1 0 0 33.11 86.66
  Q 33.25 86.69 33.39 86.69"
/>
<path stroke="#d3b9c3" vector-effect="non-scaling-stroke" d="
  M 15.65 19.03
  Q 17.76 21.12 20.23 22.05
  A 1.01 1.00 45.4 0 0 20.89 22.06
  L 26.77 20.12
  A 2.99 2.90 7.6 0 0 28.24 19.03
  L 28.77 18.26
  A 0.60 0.59 -80.3 0 0 28.12 17.34
  Q 21.84 19.24 20.23 19.52
  Q 19.62 19.63 15.97 18.49
  A 0.32 0.32 0.0 0 0 15.65 19.03"
/>
<path stroke="#d3b9c3" vector-effect="non-scaling-stroke" d="
  M 29.96 22.36
  L 35.80 23.90
  A 0.26 0.26 0.0 0 0 36.12 23.71
  L 36.16 23.55
  A 3.21 3.19 -75.3 0 0 33.89 19.63
  L 33.71 19.59
  A 3.21 3.19 -75.3 0 0 29.81 21.88
  L 29.77 22.05
  A 0.26 0.26 0.0 0 0 29.96 22.36"
/>
<path stroke="#d3b9c3" vector-effect="non-scaling-stroke" d="
  M 49.79 28.05
  A 0.32 0.32 0.0 0 0 49.78 27.42
  Q 46.06 26.64 45.58 26.25
  Q 44.32 25.22 39.79 20.53
  A 0.59 0.59 0.0 0 0 38.78 21.01
  L 38.87 21.94
  A 2.97 2.89 21.6 0 0 39.62 23.60
  L 43.78 28.13
  A 1.00 0.99 -16.2 0 0 44.35 28.44
  Q 46.95 28.84 49.79 28.05"
/>
<path stroke="#d3b9c3" vector-effect="non-scaling-stroke" d="
  M 25.63 50.48
  C 39.73 54.14 49.00 36.70 38.82 26.65
  A 1.70 1.68 63.0 0 0 37.40 26.18
  Q 34.22 26.61 31.97 26.03
  Q 29.72 25.44 27.16 23.52
  A 1.70 1.68 -33.9 0 0 25.69 23.24
  C 11.91 27.07 11.53 46.82 25.63 50.48"
/>
</g>
<path fill="#563944" d="
  M 33.78 88.00
  L 33.14 88.00
  Q 15.61 72.48 6.00 52.51
  Q 2.24 44.69 1.63 35.22
  Q 1.01 25.71 5.26 17.97
  C 11.80 6.03 25.19 -0.51 38.97 1.80
  C 54.63 4.43 66.10 18.18 65.46 34.06
  Q 65.15 41.63 62.41 48.84
  C 56.79 63.64 45.44 77.44 33.78 88.00
  Z
  M 33.39 86.69
  Q 33.53 86.69 33.67 86.66
  A 0.19 0.12 -55.9 0 0 33.73 86.63
  C 51.04 70.59 77.50 36.48 56.76 13.03
  Q 47.77 2.87 33.75 2.46
  Q 33.64 2.46 33.54 2.46
  Q 33.43 2.46 33.32 2.46
  Q 19.30 2.82 10.28 12.95
  C -10.54 36.33 15.80 70.53 33.05 86.63
  A 0.19 0.12 56.1 0 0 33.11 86.66
  Q 33.25 86.69 33.39 86.69
  Z"
/>
<path fill="#a77387" d="
  M 33.54 2.46
  Q 33.64 2.46 33.75 2.46
  Q 47.77 2.87 56.76 13.03
  C 77.50 36.48 51.04 70.59 33.73 86.63
  A 0.19 0.12 -55.9 0 1 33.67 86.66
  Q 33.53 86.69 33.39 86.69
  Q 33.25 86.69 33.11 86.66
  A 0.19 0.12 56.1 0 1 33.05 86.63
  C 15.80 70.53 -10.54 36.33 10.28 12.95
  Q 19.30 2.82 33.32 2.46
  Q 33.43 2.46 33.54 2.46
  Z
  M 15.65 19.03
  Q 17.76 21.12 20.23 22.05
  A 1.01 1.00 45.4 0 0 20.89 22.06
  L 26.77 20.12
  A 2.99 2.90 7.6 0 0 28.24 19.03
  L 28.77 18.26
  A 0.60 0.59 -80.3 0 0 28.12 17.34
  Q 21.84 19.24 20.23 19.52
  Q 19.62 19.63 15.97 18.49
  A 0.32 0.32 0.0 0 0 15.65 19.03
  Z
  M 29.96 22.36
  L 35.80 23.90
  A 0.26 0.26 0.0 0 0 36.12 23.71
  L 36.16 23.55
  A 3.21 3.19 -75.3 0 0 33.89 19.63
  L 33.71 19.59
  A 3.21 3.19 -75.3 0 0 29.81 21.88
  L 29.77 22.05
  A 0.26 0.26 0.0 0 0 29.96 22.36
  Z
  M 49.79 28.05
  A 0.32 0.32 0.0 0 0 49.78 27.42
  Q 46.06 26.64 45.58 26.25
  Q 44.32 25.22 39.79 20.53
  A 0.59 0.59 0.0 0 0 38.78 21.01
  L 38.87 21.94
  A 2.97 2.89 21.6 0 0 39.62 23.60
  L 43.78 28.13
  A 1.00 0.99 -16.2 0 0 44.35 28.44
  Q 46.95 28.84 49.79 28.05
  Z
  M 25.63 50.48
  C 39.73 54.14 49.00 36.70 38.82 26.65
  A 1.70 1.68 63.0 0 0 37.40 26.18
  Q 34.22 26.61 31.97 26.03
  Q 29.72 25.44 27.16 23.52
  A 1.70 1.68 -33.9 0 0 25.69 23.24
  C 11.91 27.07 11.53 46.82 25.63 50.48
  Z"
/>
<path fill="#ffffff" d="
  M 15.97 18.49
  Q 19.62 19.63 20.23 19.52
  Q 21.84 19.24 28.12 17.34
  A 0.60 0.59 -80.3 0 1 28.77 18.26
  L 28.24 19.03
  A 2.99 2.90 7.6 0 1 26.77 20.12
  L 20.89 22.06
  A 1.01 1.00 45.4 0 1 20.23 22.05
  Q 17.76 21.12 15.65 19.03
  A 0.32 0.32 0.0 0 1 15.97 18.49
  Z"
/>
<path fill="#ffffff" d="
  M 29.96 22.36
  A 0.26 0.26 0.0 0 1 29.77 22.05
  L 29.81 21.88
  A 3.21 3.19 -75.3 0 1 33.71 19.59
  L 33.89 19.63
  A 3.21 3.19 -75.3 0 1 36.16 23.55
  L 36.12 23.71
  A 0.26 0.26 0.0 0 1 35.80 23.90
  L 29.96 22.36
  Z"
/>
<path fill="#ffffff" d="
  M 49.79 28.05
  Q 46.95 28.84 44.35 28.44
  A 1.00 0.99 -16.2 0 1 43.78 28.13
  L 39.62 23.60
  A 2.97 2.89 21.6 0 1 38.87 21.94
  L 38.78 21.01
  A 0.59 0.59 0.0 0 1 39.79 20.53
  Q 44.32 25.22 45.58 26.25
  Q 46.06 26.64 49.78 27.42
  A 0.32 0.32 0.0 0 1 49.79 28.05
  Z"
/>
<path fill="#ffffff" d="
  M 31.97 26.03
  Q 34.22 26.61 37.40 26.18
  A 1.70 1.68 63.0 0 1 38.82 26.65
  C 49.00 36.70 39.73 54.14 25.63 50.48
  C 11.53 46.82 11.91 27.07 25.69 23.24
  A 1.70 1.68 -33.9 0 1 27.16 23.52
  Q 29.72 25.44 31.97 26.03
  Z"
/>
</svg>
