<?xml version="1.0" encoding="UTF-8" standalone="no"?>
<!DOCTYPE svg PUBLIC "-//W3C//DTD SVG 1.1//EN" "http://www.w3.org/Graphics/SVG/1.1/DTD/svg11.dtd">
<svg xmlns="http://www.w3.org/2000/svg" version="1.1" viewBox="0.00 0.00 66.00 88.00">
<g stroke-width="2.00" fill="none" stroke-linecap="butt">
<path stroke="#9f3c35" vector-effect="non-scaling-stroke" d="
  M 33.41 86.71
  Q 33.52 86.71 33.62 86.69
  Q 33.68 86.67 33.78 86.58
  C 50.00 71.37 73.60 41.81 60.50 18.24
  C 55.17 8.65 44.67 2.48 33.53 2.46
  C 22.39 2.45 11.88 8.59 6.52 18.16
  C -6.65 41.69 16.86 71.32 33.04 86.58
  Q 33.14 86.67 33.19 86.69
  Q 33.30 86.71 33.41 86.71"
/>
<path stroke="#e8a8a4" vector-effect="non-scaling-stroke" d="
  M 33.40 51.62
  Q 33.46 51.62 33.49 51.61
  A 0.17 0.03 -79.0 0 0 33.55 51.46
  C 35.85 42.26 41.36 36.43 48.95 30.99
  A 0.27 0.27 0.0 0 0 48.84 30.51
  Q 42.69 29.34 38.35 26.05
  C 35.81 24.12 33.71 20.67 37.81 18.88
  A 2.76 2.75 55.7 0 1 40.86 19.46
  L 42.68 21.28
  A 1.10 1.10 0.0 0 0 44.24 21.28
  L 44.53 20.99
  A 1.52 1.52 0.0 0 0 44.60 18.91
  C 41.81 15.74 36.55 14.06 33.67 18.24
  Q 33.62 18.33 33.43 18.33
  Q 33.24 18.32 33.18 18.24
  C 30.32 14.05 25.05 15.72 22.26 18.89
  A 1.52 1.52 0.0 0 0 22.32 20.97
  L 22.61 21.26
  A 1.10 1.10 0.0 0 0 24.17 21.26
  L 26.00 19.45
  A 2.76 2.75 -55.6 0 1 29.05 18.87
  C 33.14 20.67 31.04 24.12 28.49 26.04
  Q 24.15 29.32 18.00 30.48
  A 0.27 0.27 0.0 0 0 17.89 30.96
  C 25.47 36.42 30.96 42.26 33.25 51.46
  A 0.17 0.03 79.1 0 0 33.31 51.61
  Q 33.34 51.62 33.40 51.62"
/>
<path stroke="#e8a8a4" vector-effect="non-scaling-stroke" d="
  M 33.44 37.15
  Q 33.46 37.15 33.48 37.15
  A 0.09 0.08 -62.9 0 0 33.55 37.12
  L 41.04 31.62
  A 0.37 0.37 0.0 0 0 40.97 30.98
  Q 36.51 29.07 33.69 25.40
  A 0.28 0.04 54.6 0 0 33.55 25.25
  Q 33.50 25.24 33.44 25.24
  Q 33.39 25.24 33.34 25.25
  A 0.28 0.04 -54.6 0 0 33.20 25.40
  Q 30.38 29.07 25.91 30.97
  A 0.37 0.37 0.0 0 0 25.84 31.61
  L 33.33 37.12
  A 0.09 0.08 62.9 0 0 33.40 37.15
  Q 33.42 37.15 33.44 37.15"
/>
</g>
<path fill="#6d2722" d="
  M 33.80 88.00
  L 33.04 88.00
  C 17.02 73.51 -4.93 45.86 3.25 22.52
  C 6.52 13.17 14.06 5.96 23.53 2.90
  C 41.60 -2.94 61.72 8.27 64.91 27.08
  C 68.77 49.85 49.37 73.85 33.80 88.00
  Z
  M 33.41 86.71
  Q 33.52 86.71 33.62 86.69
  Q 33.68 86.67 33.78 86.58
  C 50.00 71.37 73.60 41.81 60.50 18.24
  C 55.17 8.65 44.67 2.48 33.53 2.46
  C 22.39 2.45 11.88 8.59 6.52 18.16
  C -6.65 41.69 16.86 71.32 33.04 86.58
  Q 33.14 86.67 33.19 86.69
  Q 33.30 86.71 33.41 86.71
  Z"
/>
<path fill="#d05148" d="
  M 33.53 2.46
  C 44.67 2.48 55.17 8.65 60.50 18.24
  C 73.60 41.81 50.00 71.37 33.78 86.58
  Q 33.68 86.67 33.62 86.69
  Q 33.52 86.71 33.41 86.71
  Q 33.30 86.71 33.19 86.69
  Q 33.14 86.67 33.04 86.58
  C 16.86 71.32 -6.65 41.69 6.52 18.16
  C 11.88 8.59 22.39 2.45 33.53 2.46
  Z
  M 33.40 51.62
  Q 33.46 51.62 33.49 51.61
  A 0.17 0.03 -79.0 0 0 33.55 51.46
  C 35.85 42.26 41.36 36.43 48.95 30.99
  A 0.27 0.27 0.0 0 0 48.84 30.51
  Q 42.69 29.34 38.35 26.05
  C 35.81 24.12 33.71 20.67 37.81 18.88
  A 2.76 2.75 55.7 0 1 40.86 19.46
  L 42.68 21.28
  A 1.10 1.10 0.0 0 0 44.24 21.28
  L 44.53 20.99
  A 1.52 1.52 0.0 0 0 44.60 18.91
  C 41.81 15.74 36.55 14.06 33.67 18.24
  Q 33.62 18.33 33.43 18.33
  Q 33.24 18.32 33.18 18.24
  C 30.32 14.05 25.05 15.72 22.26 18.89
  A 1.52 1.52 0.0 0 0 22.32 20.97
  L 22.61 21.26
  A 1.10 1.10 0.0 0 0 24.17 21.26
  L 26.00 19.45
  A 2.76 2.75 -55.6 0 1 29.05 18.87
  C 33.14 20.67 31.04 24.12 28.49 26.04
  Q 24.15 29.32 18.00 30.48
  A 0.27 0.27 0.0 0 0 17.89 30.96
  C 25.47 36.42 30.96 42.26 33.25 51.46
  A 0.17 0.03 79.1 0 0 33.31 51.61
  Q 33.34 51.62 33.40 51.62
  Z"
/>
<path fill="#ffffff" d="
  M 33.43 18.33
  Q 33.62 18.33 33.67 18.24
  C 36.55 14.06 41.81 15.74 44.60 18.91
  A 1.52 1.52 0.0 0 1 44.53 20.99
  L 44.24 21.28
  A 1.10 1.10 0.0 0 1 42.68 21.28
  L 40.86 19.46
  A 2.76 2.75 55.7 0 0 37.81 18.88
  C 33.71 20.67 35.81 24.12 38.35 26.05
  Q 42.69 29.34 48.84 30.51
  A 0.27 0.27 0.0 0 1 48.95 30.99
  C 41.36 36.43 35.85 42.26 33.55 51.46
  A 0.17 0.03 -79.0 0 1 33.49 51.61
  Q 33.46 51.62 33.40 51.62
  Q 33.34 51.62 33.31 51.61
  A 0.17 0.03 79.1 0 1 33.25 51.46
  C 30.96 42.26 25.47 36.42 17.89 30.96
  A 0.27 0.27 0.0 0 1 18.00 30.48
  Q 24.15 29.32 28.49 26.04
  C 31.04 24.12 33.14 20.67 29.05 18.87
  A 2.76 2.75 -55.6 0 0 26.00 19.45
  L 24.17 21.26
  A 1.10 1.10 0.0 0 1 22.61 21.26
  L 22.32 20.97
  A 1.52 1.52 0.0 0 1 22.26 18.89
  C 25.05 15.72 30.32 14.05 33.18 18.24
  Q 33.24 18.32 33.43 18.33
  Z
  M 33.44 37.15
  Q 33.46 37.15 33.48 37.15
  A 0.09 0.08 -62.9 0 0 33.55 37.12
  L 41.04 31.62
  A 0.37 0.37 0.0 0 0 40.97 30.98
  Q 36.51 29.07 33.69 25.40
  A 0.28 0.04 54.6 0 0 33.55 25.25
  Q 33.50 25.24 33.44 25.24
  Q 33.39 25.24 33.34 25.25
  A 0.28 0.04 -54.6 0 0 33.20 25.40
  Q 30.38 29.07 25.91 30.97
  A 0.37 0.37 0.0 0 0 25.84 31.61
  L 33.33 37.12
  A 0.09 0.08 62.9 0 0 33.40 37.15
  Q 33.42 37.15 33.44 37.15
  Z"
/>
<path fill="#d05148" d="
  M 33.44 25.24
  Q 33.50 25.24 33.55 25.25
  A 0.28 0.04 54.6 0 1 33.69 25.40
  Q 36.51 29.07 40.97 30.98
  A 0.37 0.37 0.0 0 1 41.04 31.62
  L 33.55 37.12
  A 0.09 0.08 -62.9 0 1 33.48 37.15
  Q 33.46 37.15 33.44 37.15
  Q 33.42 37.15 33.40 37.15
  A 0.09 0.08 62.9 0 1 33.33 37.12
  L 25.84 31.61
  A 0.37 0.37 0.0 0 1 25.91 30.97
  Q 30.38 29.07 33.20 25.40
  A 0.28 0.04 -54.6 0 1 33.34 25.25
  Q 33.39 25.24 33.44 25.24
  Z"
/>
</svg>
