<?xml version="1.0" encoding="UTF-8" standalone="no"?>
<!DOCTYPE svg PUBLIC "-//W3C//DTD SVG 1.1//EN" "http://www.w3.org/Graphics/SVG/1.1/DTD/svg11.dtd">
<svg xmlns="http://www.w3.org/2000/svg" version="1.1" viewBox="0.00 0.00 66.00 88.00">
<g stroke-width="2.00" fill="none" stroke-linecap="butt">
<path stroke="#395b67" vector-effect="non-scaling-stroke" d="
  M 33.40 86.69
  Q 33.54 86.69 33.67 86.65
  A 0.05 0.04 6.0 0 0 33.71 86.63
  Q 48.35 73.11 57.63 56.38
  C 65.84 41.60 67.97 23.67 54.90 11.09
  Q 46.62 3.12 34.76 2.51
  Q 33.99 2.47 33.53 2.46
  Q 33.07 2.46 32.31 2.50
  Q 20.44 3.08 12.14 11.02
  C -0.97 23.56 1.10 41.50 9.26 56.30
  Q 18.49 73.06 33.08 86.63
  A 0.05 0.04 -5.8 0 0 33.12 86.65
  Q 33.25 86.69 33.40 86.69"
/>
<path stroke="#a6bbc3" vector-effect="non-scaling-stroke" d="
  M 24.69 32.47
  L 29.95 16.35
  A 0.38 0.38 0.0 0 0 29.61 15.85
  L 25.56 15.66
  A 0.49 0.48 -86.5 0 0 25.05 16.12
  L 24.29 32.39
  A 0.21 0.20 55.9 0 0 24.69 32.47"
/>
<path stroke="#a6bbc3" vector-effect="non-scaling-stroke" d="
  M 32.61 25.81
  L 40.24 16.14
  A 0.18 0.18 0.0 0 0 40.10 15.85
  L 36.18 15.67
  A 0.84 0.83 -79.4 0 0 35.35 16.25
  L 32.28 25.64
  A 0.19 0.19 0.0 0 0 32.61 25.81"
/>
<path stroke="#a6bbc3" vector-effect="non-scaling-stroke" d="
  M 30.45 37.04
  Q 30.60 37.18 50.94 20.98
  A 1.19 1.18 70.6 0 0 51.39 20.03
  L 51.35 16.04
  A 0.16 0.06 37.5 0 0 51.29 15.94
  Q 51.27 15.92 51.25 15.90
  Q 51.23 15.88 51.20 15.86
  A 0.16 0.06 51.6 0 0 51.11 15.80
  L 47.12 15.83
  A 1.19 1.18 18.5 0 0 46.17 16.29
  Q 30.30 36.89 30.45 37.04"
/>
<path stroke="#a6bbc3" vector-effect="non-scaling-stroke" d="
  M 19.46 29.71
  A 0.12 0.12 0.0 0 0 19.66 29.70
  L 21.90 25.82
  A 1.51 1.51 0.0 0 0 19.40 24.13
  L 17.57 26.47
  A 0.39 0.38 -43.0 0 0 17.55 26.94
  L 19.46 29.71"
/>
<path stroke="#a6bbc3" vector-effect="non-scaling-stroke" d="
  M 33.77 39.53
  L 50.83 29.68
  A 0.87 0.86 -14.1 0 0 51.26 28.97
  L 51.39 26.26
  A 0.38 0.38 0.0 0 0 50.77 25.94
  L 33.69 39.40
  A 0.08 0.07 -77.8 0 0 33.77 39.53"
/>
<path stroke="#a6bbc3" vector-effect="non-scaling-stroke" d="
  M 29.09 29.00
  L 26.45 33.58
  A 1.04 1.03 -4.1 0 0 27.99 34.91
  L 30.89 32.63
  A 0.93 0.92 -34.3 0 0 31.12 31.44
  L 29.72 29.00
  A 0.37 0.36 44.7 0 0 29.09 29.00"
/>
<path stroke="#a6bbc3" vector-effect="non-scaling-stroke" d="
  M 35.84 42.46
  L 50.66 37.90
  A 0.75 0.74 83.0 0 0 51.19 37.21
  L 51.45 31.71
  A 0.26 0.26 0.0 0 0 51.04 31.48
  L 35.67 42.11
  A 0.20 0.20 0.0 0 0 35.84 42.46"
/>
<path stroke="#a6bbc3" vector-effect="non-scaling-stroke" d="
  M 30.81 45.06
  A 1.08 1.07 -73.5 0 0 29.83 45.60
  L 29.15 46.77
  A 0.50 0.50 0.0 0 1 28.32 46.83
  L 27.20 45.41
  A 0.98 0.97 -27.3 0 0 26.14 45.08
  L 23.42 45.91
  A 0.57 0.57 0.0 0 1 22.68 45.38
  C 22.60 42.02 22.97 41.09 24.00 38.86
  A 0.42 0.41 13.5 0 0 23.64 38.28
  L 21.66 38.19
  A 0.59 0.59 0.0 0 1 21.10 37.57
  L 21.25 34.37
  A 0.53 0.53 0.0 0 0 20.47 33.88
  C 14.34 37.13 12.58 44.34 17.52 49.48
  C 22.43 54.58 30.73 52.21 33.25 45.97
  A 0.60 0.59 -77.5 0 0 32.73 45.15
  L 30.81 45.06"
/>
<path stroke="#a6bbc3" vector-effect="non-scaling-stroke" d="
  M 37.86 46.69
  L 40.64 48.88
  A 1.45 1.45 0.0 0 0 42.98 47.81
  L 43.08 45.68
  A 0.56 0.56 0.0 0 0 42.43 45.10
  L 38.07 45.85
  A 0.48 0.47 59.2 0 0 37.86 46.69"
/>
</g>
<path fill="#243e46" d="
  M 33.80 88.00
  L 33.04 88.00
  C 16.68 73.24 -6.30 44.17 4.07 20.42
  Q 7.85 11.74 16.07 6.40
  C 27.42 -0.99 44.03 -0.45 54.65 9.20
  Q 68.13 21.45 64.83 39.76
  Q 62.57 52.26 54.57 64.07
  Q 45.67 77.20 33.80 88.00
  Z
  M 33.40 86.69
  Q 33.54 86.69 33.67 86.65
  A 0.05 0.04 6.0 0 0 33.71 86.63
  Q 48.35 73.11 57.63 56.38
  C 65.84 41.60 67.97 23.67 54.90 11.09
  Q 46.62 3.12 34.76 2.51
  Q 33.99 2.47 33.53 2.46
  Q 33.07 2.46 32.31 2.50
  Q 20.44 3.08 12.14 11.02
  C -0.97 23.56 1.10 41.50 9.26 56.30
  Q 18.49 73.06 33.08 86.63
  A 0.05 0.04 -5.8 0 0 33.12 86.65
  Q 33.25 86.69 33.40 86.69
  Z"
/>
<path fill="#4d7787" d="
  M 33.53 2.46
  Q 33.99 2.47 34.76 2.51
  Q 46.62 3.12 54.90 11.09
  C 67.97 23.67 65.84 41.60 57.63 56.38
  Q 48.35 73.11 33.71 86.63
  A 0.05 0.04 6.0 0 1 33.67 86.65
  Q 33.54 86.69 33.40 86.69
  Q 33.25 86.69 33.12 86.65
  A 0.05 0.04 -5.8 0 1 33.08 86.63
  Q 18.49 73.06 9.26 56.30
  C 1.10 41.50 -0.97 23.56 12.14 11.02
  Q 20.44 3.08 32.31 2.50
  Q 33.07 2.46 33.53 2.46
  Z
  M 24.69 32.47
  L 29.95 16.35
  A 0.38 0.38 0.0 0 0 29.61 15.85
  L 25.56 15.66
  A 0.49 0.48 -86.5 0 0 25.05 16.12
  L 24.29 32.39
  A 0.21 0.20 55.9 0 0 24.69 32.47
  Z
  M 32.61 25.81
  L 40.24 16.14
  A 0.18 0.18 0.0 0 0 40.10 15.85
  L 36.18 15.67
  A 0.84 0.83 -79.4 0 0 35.35 16.25
  L 32.28 25.64
  A 0.19 0.19 0.0 0 0 32.61 25.81
  Z
  M 30.45 37.04
  Q 30.60 37.18 50.94 20.98
  A 1.19 1.18 70.6 0 0 51.39 20.03
  L 51.35 16.04
  A 0.16 0.06 37.5 0 0 51.29 15.94
  Q 51.27 15.92 51.25 15.90
  Q 51.23 15.88 51.20 15.86
  A 0.16 0.06 51.6 0 0 51.11 15.80
  L 47.12 15.83
  A 1.19 1.18 18.5 0 0 46.17 16.29
  Q 30.30 36.89 30.45 37.04
  Z
  M 19.46 29.71
  A 0.12 0.12 0.0 0 0 19.66 29.70
  L 21.90 25.82
  A 1.51 1.51 0.0 0 0 19.40 24.13
  L 17.57 26.47
  A 0.39 0.38 -43.0 0 0 17.55 26.94
  L 19.46 29.71
  Z
  M 33.77 39.53
  L 50.83 29.68
  A 0.87 0.86 -14.1 0 0 51.26 28.97
  L 51.39 26.26
  A 0.38 0.38 0.0 0 0 50.77 25.94
  L 33.69 39.40
  A 0.08 0.07 -77.8 0 0 33.77 39.53
  Z
  M 29.09 29.00
  L 26.45 33.58
  A 1.04 1.03 -4.1 0 0 27.99 34.91
  L 30.89 32.63
  A 0.93 0.92 -34.3 0 0 31.12 31.44
  L 29.72 29.00
  A 0.37 0.36 44.7 0 0 29.09 29.00
  Z
  M 35.84 42.46
  L 50.66 37.90
  A 0.75 0.74 83.0 0 0 51.19 37.21
  L 51.45 31.71
  A 0.26 0.26 0.0 0 0 51.04 31.48
  L 35.67 42.11
  A 0.20 0.20 0.0 0 0 35.84 42.46
  Z
  M 30.81 45.06
  A 1.08 1.07 -73.5 0 0 29.83 45.60
  L 29.15 46.77
  A 0.50 0.50 0.0 0 1 28.32 46.83
  L 27.20 45.41
  A 0.98 0.97 -27.3 0 0 26.14 45.08
  L 23.42 45.91
  A 0.57 0.57 0.0 0 1 22.68 45.38
  C 22.60 42.02 22.97 41.09 24.00 38.86
  A 0.42 0.41 13.5 0 0 23.64 38.28
  L 21.66 38.19
  A 0.59 0.59 0.0 0 1 21.10 37.57
  L 21.25 34.37
  A 0.53 0.53 0.0 0 0 20.47 33.88
  C 14.34 37.13 12.58 44.34 17.52 49.48
  C 22.43 54.58 30.73 52.21 33.25 45.97
  A 0.60 0.59 -77.5 0 0 32.73 45.15
  L 30.81 45.06
  Z
  M 37.86 46.69
  L 40.64 48.88
  A 1.45 1.45 0.0 0 0 42.98 47.81
  L 43.08 45.68
  A 0.56 0.56 0.0 0 0 42.43 45.10
  L 38.07 45.85
  A 0.48 0.47 59.2 0 0 37.86 46.69
  Z"
/>
<path fill="#ffffff" d="
  M 24.29 32.39
  L 25.05 16.12
  A 0.49 0.48 -86.5 0 1 25.56 15.66
  L 29.61 15.85
  A 0.38 0.38 0.0 0 1 29.95 16.35
  L 24.69 32.47
  A 0.21 0.20 55.9 0 1 24.29 32.39
  Z"
/>
<path fill="#ffffff" d="
  M 32.61 25.81
  A 0.19 0.19 0.0 0 1 32.28 25.64
  L 35.35 16.25
  A 0.84 0.83 -79.4 0 1 36.18 15.67
  L 40.10 15.85
  A 0.18 0.18 0.0 0 1 40.24 16.14
  L 32.61 25.81
  Z"
/>
<path fill="#ffffff" d="
  M 51.25 15.90
  Q 51.27 15.92 51.29 15.94
  A 0.16 0.06 37.5 0 1 51.35 16.04
  L 51.39 20.03
  A 1.19 1.18 70.6 0 1 50.94 20.98
  Q 30.60 37.18 30.45 37.04
  Q 30.30 36.89 46.17 16.29
  A 1.19 1.18 18.5 0 1 47.12 15.83
  L 51.11 15.80
  A 0.16 0.06 51.6 0 1 51.20 15.86
  Q 51.23 15.88 51.25 15.90
  Z"
/>
<path fill="#ffffff" d="
  M 17.57 26.47
  L 19.40 24.13
  A 1.51 1.51 0.0 0 1 21.90 25.82
  L 19.66 29.70
  A 0.12 0.12 0.0 0 1 19.46 29.71
  L 17.55 26.94
  A 0.39 0.38 -43.0 0 1 17.57 26.47
  Z"
/>
<path fill="#ffffff" d="
  M 33.69 39.40
  L 50.77 25.94
  A 0.38 0.38 0.0 0 1 51.39 26.26
  L 51.26 28.97
  A 0.87 0.86 -14.1 0 1 50.83 29.68
  L 33.77 39.53
  A 0.08 0.07 -77.8 0 1 33.69 39.40
  Z"
/>
<path fill="#ffffff" d="
  M 29.09 29.00
  A 0.37 0.36 44.7 0 1 29.72 29.00
  L 31.12 31.44
  A 0.93 0.92 -34.3 0 1 30.89 32.63
  L 27.99 34.91
  A 1.04 1.03 -4.1 0 1 26.45 33.58
  L 29.09 29.00
  Z"
/>
<path fill="#ffffff" d="
  M 35.67 42.11
  L 51.04 31.48
  A 0.26 0.26 0.0 0 1 51.45 31.71
  L 51.19 37.21
  A 0.75 0.74 83.0 0 1 50.66 37.90
  L 35.84 42.46
  A 0.20 0.20 0.0 0 1 35.67 42.11
  Z"
/>
<path fill="#ffffff" d="
  M 33.25 45.97
  C 30.73 52.21 22.43 54.58 17.52 49.48
  C 12.58 44.34 14.34 37.13 20.47 33.88
  A 0.53 0.53 0.0 0 1 21.25 34.37
  L 21.10 37.57
  A 0.59 0.59 0.0 0 0 21.66 38.19
  L 23.64 38.28
  A 0.42 0.41 13.5 0 1 24.00 38.86
  C 22.97 41.09 22.60 42.02 22.68 45.38
  A 0.57 0.57 0.0 0 0 23.42 45.91
  L 26.14 45.08
  A 0.98 0.97 -27.3 0 1 27.20 45.41
  L 28.32 46.83
  A 0.50 0.50 0.0 0 0 29.15 46.77
  L 29.83 45.60
  A 1.08 1.07 -73.5 0 1 30.81 45.06
  L 32.73 45.15
  A 0.60 0.59 -77.5 0 1 33.25 45.97
  Z"
/>
<path fill="#ffffff" d="
  M 38.07 45.85
  L 42.43 45.10
  A 0.56 0.56 0.0 0 1 43.08 45.68
  L 42.98 47.81
  A 1.45 1.45 0.0 0 1 40.64 48.88
  L 37.86 46.69
  A 0.48 0.47 59.2 0 1 38.07 45.85
  Z"
/>
</svg>
