<?xml version="1.0" encoding="UTF-8" standalone="no"?>
<!DOCTYPE svg PUBLIC "-//W3C//DTD SVG 1.1//EN" "http://www.w3.org/Graphics/SVG/1.1/DTD/svg11.dtd">
<svg xmlns="http://www.w3.org/2000/svg" version="1.1" viewBox="0.00 0.00 66.00 88.00">
<g stroke-width="2.00" fill="none" stroke-linecap="butt">
<path stroke="#395b67" vector-effect="non-scaling-stroke" d="
  M 33.40 86.69
  Q 33.53 86.69 33.67 86.65
  A 0.09 0.07 -66.7 0 0 33.71 86.63
  Q 44.50 76.30 52.25 65.27
  C 63.91 48.67 71.74 24.78 53.03 9.41
  C 47.82 5.13 40.76 2.49 33.54 2.47
  C 26.33 2.46 19.26 5.08 14.03 9.34
  C -4.73 24.65 3.01 48.57 14.62 65.21
  Q 22.33 76.26 33.08 86.63
  A 0.09 0.07 66.9 0 0 33.13 86.65
  Q 33.26 86.69 33.40 86.69"
/>
<path stroke="#a6bbc3" vector-effect="non-scaling-stroke" d="
  M 51.23 34.05
  A 18.26 18.26 0.0 0 0 32.97 15.79
  A 18.26 18.26 0.0 0 0 14.71 34.05
  A 18.26 18.26 0.0 0 0 32.97 52.31
  A 18.26 18.26 0.0 0 0 51.23 34.05"
/>
<path stroke="#a6bbc3" vector-effect="non-scaling-stroke" d="
  M 49.45 34.00
  A 16.48 16.48 0.0 0 0 32.97 17.52
  A 16.48 16.48 0.0 0 0 16.49 34.00
  A 16.48 16.48 0.0 0 0 32.97 50.48
  A 16.48 16.48 0.0 0 0 49.45 34.00"
/>
<path stroke="#a6bbc3" vector-effect="non-scaling-stroke" d="
  M 35.96 30.51
  A 0.33 0.33 0.0 0 1 35.64 30.28
  L 33.30 23.06
  A 0.33 0.33 0.0 0 0 32.68 23.06
  L 30.34 30.28
  A 0.33 0.33 0.0 0 1 30.02 30.51
  L 22.43 30.50
  A 0.33 0.33 0.0 0 0 22.24 31.10
  L 28.38 35.55
  A 0.33 0.33 0.0 0 1 28.50 35.92
  L 26.15 43.14
  A 0.33 0.33 0.0 0 0 26.66 43.51
  L 32.80 39.04
  A 0.33 0.33 0.0 0 1 33.18 39.04
  L 39.32 43.51
  A 0.33 0.33 0.0 0 0 39.83 43.14
  L 37.48 35.92
  A 0.33 0.33 0.0 0 1 37.60 35.55
  L 43.74 31.10
  A 0.33 0.33 0.0 0 0 43.55 30.50
  L 35.96 30.51"
/>
</g>
<path fill="#243e46" d="
  M 33.80 88.00
  L 33.14 88.00
  Q 16.04 72.85 6.33 53.20
  Q 2.31 45.06 1.64 35.47
  Q 0.96 25.70 5.36 17.80
  C 12.67 4.70 27.85 -1.55 42.61 2.66
  Q 51.35 5.15 57.31 11.82
  C 79.30 36.45 52.30 71.14 33.80 88.00
  Z
  M 33.40 86.69
  Q 33.53 86.69 33.67 86.65
  A 0.09 0.07 -66.7 0 0 33.71 86.63
  Q 44.50 76.30 52.25 65.27
  C 63.91 48.67 71.74 24.78 53.03 9.41
  C 47.82 5.13 40.76 2.49 33.54 2.47
  C 26.33 2.46 19.26 5.08 14.03 9.34
  C -4.73 24.65 3.01 48.57 14.62 65.21
  Q 22.33 76.26 33.08 86.63
  A 0.09 0.07 66.9 0 0 33.13 86.65
  Q 33.26 86.69 33.40 86.69
  Z"
/>
<path fill="#4d7787" d="
  M 33.54 2.47
  C 40.76 2.49 47.82 5.13 53.03 9.41
  C 71.74 24.78 63.91 48.67 52.25 65.27
  Q 44.50 76.30 33.71 86.63
  A 0.09 0.07 -66.7 0 1 33.67 86.65
  Q 33.53 86.69 33.40 86.69
  Q 33.26 86.69 33.13 86.65
  A 0.09 0.07 66.9 0 1 33.08 86.63
  Q 22.33 76.26 14.62 65.21
  C 3.01 48.57 -4.73 24.65 14.03 9.34
  C 19.26 5.08 26.33 2.46 33.54 2.47
  Z
  M 51.23 34.05
  A 18.26 18.26 0.0 0 0 32.97 15.79
  A 18.26 18.26 0.0 0 0 14.71 34.05
  A 18.26 18.26 0.0 0 0 32.97 52.31
  A 18.26 18.26 0.0 0 0 51.23 34.05
  Z"
/>
<path fill="#ffffff" d="
  M 51.23 34.05
  A 18.26 18.26 0.0 0 1 32.97 52.31
  A 18.26 18.26 0.0 0 1 14.71 34.05
  A 18.26 18.26 0.0 0 1 32.97 15.79
  A 18.26 18.26 0.0 0 1 51.23 34.05
  Z
  M 49.45 34.00
  A 16.48 16.48 0.0 0 0 32.97 17.52
  A 16.48 16.48 0.0 0 0 16.49 34.00
  A 16.48 16.48 0.0 0 0 32.97 50.48
  A 16.48 16.48 0.0 0 0 49.45 34.00
  Z"
/>
<path fill="#4d7787" d="
  M 49.45 34.00
  A 16.48 16.48 0.0 0 1 32.97 50.48
  A 16.48 16.48 0.0 0 1 16.49 34.00
  A 16.48 16.48 0.0 0 1 32.97 17.52
  A 16.48 16.48 0.0 0 1 49.45 34.00
  Z
  M 35.96 30.51
  A 0.33 0.33 0.0 0 1 35.64 30.28
  L 33.30 23.06
  A 0.33 0.33 0.0 0 0 32.68 23.06
  L 30.34 30.28
  A 0.33 0.33 0.0 0 1 30.02 30.51
  L 22.43 30.50
  A 0.33 0.33 0.0 0 0 22.24 31.10
  L 28.38 35.55
  A 0.33 0.33 0.0 0 1 28.50 35.92
  L 26.15 43.14
  A 0.33 0.33 0.0 0 0 26.66 43.51
  L 32.80 39.04
  A 0.33 0.33 0.0 0 1 33.18 39.04
  L 39.32 43.51
  A 0.33 0.33 0.0 0 0 39.83 43.14
  L 37.48 35.92
  A 0.33 0.33 0.0 0 1 37.60 35.55
  L 43.74 31.10
  A 0.33 0.33 0.0 0 0 43.55 30.50
  L 35.96 30.51
  Z"
/>
<path fill="#ffffff" d="
  M 35.96 30.51
  L 43.55 30.50
  A 0.33 0.33 0.0 0 1 43.74 31.10
  L 37.60 35.55
  A 0.33 0.33 0.0 0 0 37.48 35.92
  L 39.83 43.14
  A 0.33 0.33 0.0 0 1 39.32 43.51
  L 33.18 39.04
  A 0.33 0.33 0.0 0 0 32.80 39.04
  L 26.66 43.51
  A 0.33 0.33 0.0 0 1 26.15 43.14
  L 28.50 35.92
  A 0.33 0.33 0.0 0 0 28.38 35.55
  L 22.24 31.10
  A 0.33 0.33 0.0 0 1 22.43 30.50
  L 30.02 30.51
  A 0.33 0.33 0.0 0 0 30.34 30.28
  L 32.68 23.06
  A 0.33 0.33 0.0 0 1 33.30 23.06
  L 35.64 30.28
  A 0.33 0.33 0.0 0 0 35.96 30.51
  Z"
/>
</svg>
