<?xml version="1.0" encoding="UTF-8" standalone="no"?>
<!DOCTYPE svg PUBLIC "-//W3C//DTD SVG 1.1//EN" "http://www.w3.org/Graphics/SVG/1.1/DTD/svg11.dtd">
<svg xmlns="http://www.w3.org/2000/svg" version="1.1" viewBox="0.00 0.00 66.00 88.00">
<g stroke-width="2.00" fill="none" stroke-linecap="butt">
<path stroke="#7f5666" vector-effect="non-scaling-stroke" d="
  M 33.41 86.69
  Q 33.55 86.69 33.68 86.66
  A 0.02 0.01 -50.7 0 0 33.70 86.65
  Q 47.29 74.04 56.59 58.33
  Q 61.96 49.27 63.78 39.05
  C 67.24 19.66 53.30 3.04 33.75 2.46
  Q 33.59 2.46 33.52 2.46
  Q 33.46 2.46 33.30 2.46
  C 13.75 2.98 -0.24 19.57 3.17 38.96
  Q 4.96 49.19 10.30 58.26
  Q 19.56 74.00 33.11 86.65
  A 0.02 0.01 50.8 0 0 33.13 86.66
  Q 33.27 86.69 33.41 86.69"
/>
<path stroke="#d3b9c3" vector-effect="non-scaling-stroke" d="
  M 31.01 43.03
  L 30.13 45.93
  A 0.54 0.54 0.0 0 0 30.53 46.62
  L 43.09 49.37
  A 0.64 0.63 14.7 0 0 43.84 48.94
  L 48.04 35.21
  A 0.57 0.57 0.0 0 0 47.54 34.47
  Q 46.48 34.37 45.11 34.84
  A 0.24 0.24 0.0 0 1 44.90 34.41
  Q 45.38 34.10 48.38 33.13
  A 0.97 0.97 0.0 0 0 49.04 32.37
  L 51.24 19.15
  A 0.44 0.44 0.0 0 0 50.70 18.66
  L 36.49 22.10
  A 1.00 1.00 0.0 0 0 35.73 22.91
  L 35.17 26.05
  A 0.16 0.06 -20.8 0 1 35.08 26.13
  Q 35.05 26.15 35.00 26.18
  A 0.17 0.08 77.7 0 1 34.87 26.01
  Q 34.55 23.49 34.55 22.95
  A 0.82 0.81 4.9 0 0 33.86 22.14
  L 21.83 20.14
  A 0.47 0.47 0.0 0 0 21.28 20.63
  L 21.78 30.19
  A 1.20 1.18 12.8 0 0 22.42 31.19
  L 24.69 32.36
  A 0.15 0.14 24.6 0 1 24.76 32.53
  L 24.68 32.79
  A 0.26 0.25 17.1 0 1 24.35 32.96
  Q 23.53 32.70 22.47 32.75
  A 0.83 0.81 11.4 0 0 21.79 33.19
  L 14.87 46.58
  A 0.27 0.26 12.7 0 0 15.12 46.97
  L 28.12 46.30
  A 1.36 1.35 -77.6 0 0 29.25 45.57
  L 30.64 42.88
  A 0.20 0.20 0.0 0 1 31.01 43.03"
/>
<path stroke="#d3b9c3" vector-effect="non-scaling-stroke" d="
  M 32.84 37.76
  Q 33.47 36.93 34.04 35.35
  A 1.31 1.31 0.0 0 1 35.11 34.49
  L 38.49 34.11
  A 0.10 0.10 0.0 0 0 38.58 34.02
  L 38.58 34.01
  A 0.17 0.17 0.0 0 0 38.44 33.87
  L 35.37 33.52
  A 0.92 0.91 8.0 0 1 34.57 32.46
  L 34.77 31.23
  A 0.19 0.19 0.0 0 0 34.41 31.11
  L 33.54 32.79
  A 1.31 1.28 -84.6 0 1 32.78 33.43
  Q 31.90 33.72 30.94 33.31
  A 0.28 0.27 -1.1 0 0 30.58 33.68
  Q 30.74 34.01 32.37 34.31
  A 0.80 0.80 0.0 0 1 33.01 35.26
  L 32.49 37.60
  A 0.20 0.20 0.0 0 0 32.84 37.76"
/>
</g>
<path fill="#563944" d="
  M 33.78 88.00
  L 33.03 88.00
  C 16.74 73.25 -6.20 44.33 3.98 20.63
  C 10.21 6.12 26.08 -1.58 41.70 2.38
  C 53.73 5.44 62.39 15.00 64.90 26.76
  C 67.14 37.23 63.29 49.08 57.56 58.84
  Q 47.97 75.17 33.78 88.00
  Z
  M 33.41 86.69
  Q 33.55 86.69 33.68 86.66
  A 0.02 0.01 -50.7 0 0 33.70 86.65
  Q 47.29 74.04 56.59 58.33
  Q 61.96 49.27 63.78 39.05
  C 67.24 19.66 53.30 3.04 33.75 2.46
  Q 33.59 2.46 33.52 2.46
  Q 33.46 2.46 33.30 2.46
  C 13.75 2.98 -0.24 19.57 3.17 38.96
  Q 4.96 49.19 10.30 58.26
  Q 19.56 74.00 33.11 86.65
  A 0.02 0.01 50.8 0 0 33.13 86.66
  Q 33.27 86.69 33.41 86.69
  Z"
/>
<path fill="#a77387" d="
  M 33.52 2.46
  Q 33.59 2.46 33.75 2.46
  C 53.30 3.04 67.24 19.66 63.78 39.05
  Q 61.96 49.27 56.59 58.33
  Q 47.29 74.04 33.70 86.65
  A 0.02 0.01 -50.7 0 1 33.68 86.66
  Q 33.55 86.69 33.41 86.69
  Q 33.27 86.69 33.13 86.66
  A 0.02 0.01 50.8 0 1 33.11 86.65
  Q 19.56 74.00 10.30 58.26
  Q 4.96 49.19 3.17 38.96
  C -0.24 19.57 13.75 2.98 33.30 2.46
  Q 33.46 2.46 33.52 2.46
  Z
  M 31.01 43.03
  L 30.13 45.93
  A 0.54 0.54 0.0 0 0 30.53 46.62
  L 43.09 49.37
  A 0.64 0.63 14.7 0 0 43.84 48.94
  L 48.04 35.21
  A 0.57 0.57 0.0 0 0 47.54 34.47
  Q 46.48 34.37 45.11 34.84
  A 0.24 0.24 0.0 0 1 44.90 34.41
  Q 45.38 34.10 48.38 33.13
  A 0.97 0.97 0.0 0 0 49.04 32.37
  L 51.24 19.15
  A 0.44 0.44 0.0 0 0 50.70 18.66
  L 36.49 22.10
  A 1.00 1.00 0.0 0 0 35.73 22.91
  L 35.17 26.05
  A 0.16 0.06 -20.8 0 1 35.08 26.13
  Q 35.05 26.15 35.00 26.18
  A 0.17 0.08 77.7 0 1 34.87 26.01
  Q 34.55 23.49 34.55 22.95
  A 0.82 0.81 4.9 0 0 33.86 22.14
  L 21.83 20.14
  A 0.47 0.47 0.0 0 0 21.28 20.63
  L 21.78 30.19
  A 1.20 1.18 12.8 0 0 22.42 31.19
  L 24.69 32.36
  A 0.15 0.14 24.6 0 1 24.76 32.53
  L 24.68 32.79
  A 0.26 0.25 17.1 0 1 24.35 32.96
  Q 23.53 32.70 22.47 32.75
  A 0.83 0.81 11.4 0 0 21.79 33.19
  L 14.87 46.58
  A 0.27 0.26 12.7 0 0 15.12 46.97
  L 28.12 46.30
  A 1.36 1.35 -77.6 0 0 29.25 45.57
  L 30.64 42.88
  A 0.20 0.20 0.0 0 1 31.01 43.03
  Z"
/>
<path fill="#ffffff" d="
  M 30.64 42.88
  L 29.25 45.57
  A 1.36 1.35 -77.6 0 1 28.12 46.30
  L 15.12 46.97
  A 0.27 0.26 12.7 0 1 14.87 46.58
  L 21.79 33.19
  A 0.83 0.81 11.4 0 1 22.47 32.75
  Q 23.53 32.70 24.35 32.96
  A 0.26 0.25 17.1 0 0 24.68 32.79
  L 24.76 32.53
  A 0.15 0.14 24.6 0 0 24.69 32.36
  L 22.42 31.19
  A 1.20 1.18 12.8 0 1 21.78 30.19
  L 21.28 20.63
  A 0.47 0.47 0.0 0 1 21.83 20.14
  L 33.86 22.14
  A 0.82 0.81 4.9 0 1 34.55 22.95
  Q 34.55 23.49 34.87 26.01
  A 0.17 0.08 77.7 0 0 35.00 26.18
  Q 35.05 26.15 35.08 26.13
  A 0.16 0.06 -20.8 0 0 35.17 26.05
  L 35.73 22.91
  A 1.00 1.00 0.0 0 1 36.49 22.10
  L 50.70 18.66
  A 0.44 0.44 0.0 0 1 51.24 19.15
  L 49.04 32.37
  A 0.97 0.97 0.0 0 1 48.38 33.13
  Q 45.38 34.10 44.90 34.41
  A 0.24 0.24 0.0 0 0 45.11 34.84
  Q 46.48 34.37 47.54 34.47
  A 0.57 0.57 0.0 0 1 48.04 35.21
  L 43.84 48.94
  A 0.64 0.63 14.7 0 1 43.09 49.37
  L 30.53 46.62
  A 0.54 0.54 0.0 0 1 30.13 45.93
  L 31.01 43.03
  A 0.20 0.20 0.0 0 0 30.64 42.88
  Z
  M 32.84 37.76
  Q 33.47 36.93 34.04 35.35
  A 1.31 1.31 0.0 0 1 35.11 34.49
  L 38.49 34.11
  A 0.10 0.10 0.0 0 0 38.58 34.02
  L 38.58 34.01
  A 0.17 0.17 0.0 0 0 38.44 33.87
  L 35.37 33.52
  A 0.92 0.91 8.0 0 1 34.57 32.46
  L 34.77 31.23
  A 0.19 0.19 0.0 0 0 34.41 31.11
  L 33.54 32.79
  A 1.31 1.28 -84.6 0 1 32.78 33.43
  Q 31.90 33.72 30.94 33.31
  A 0.28 0.27 -1.1 0 0 30.58 33.68
  Q 30.74 34.01 32.37 34.31
  A 0.80 0.80 0.0 0 1 33.01 35.26
  L 32.49 37.60
  A 0.20 0.20 0.0 0 0 32.84 37.76
  Z"
/>
<path fill="#a77387" d="
  M 32.49 37.60
  L 33.01 35.26
  A 0.80 0.80 0.0 0 0 32.37 34.31
  Q 30.74 34.01 30.58 33.68
  A 0.28 0.27 -1.1 0 1 30.94 33.31
  Q 31.90 33.72 32.78 33.43
  A 1.31 1.28 -84.6 0 0 33.54 32.79
  L 34.41 31.11
  A 0.19 0.19 0.0 0 1 34.77 31.23
  L 34.57 32.46
  A 0.92 0.91 8.0 0 0 35.37 33.52
  L 38.44 33.87
  A 0.17 0.17 0.0 0 1 38.58 34.01
  L 38.58 34.02
  A 0.10 0.10 0.0 0 1 38.49 34.11
  L 35.11 34.49
  A 1.31 1.31 0.0 0 0 34.04 35.35
  Q 33.47 36.93 32.84 37.76
  A 0.20 0.20 0.0 0 1 32.49 37.60
  Z"
/>
</svg>
