<?xml version="1.0" encoding="UTF-8" standalone="no"?>
<!DOCTYPE svg PUBLIC "-//W3C//DTD SVG 1.1//EN" "http://www.w3.org/Graphics/SVG/1.1/DTD/svg11.dtd">
<svg xmlns="http://www.w3.org/2000/svg" version="1.1" viewBox="0.00 0.00 66.00 88.00">
<g stroke-width="2.00" fill="none" stroke-linecap="butt">
<path stroke="#802436" vector-effect="non-scaling-stroke" d="
  M 33.43 86.69
  Q 33.53 86.69 33.63 86.67
  Q 33.71 86.65 33.80 86.57
  C 49.19 72.34 71.33 44.37 62.21 21.81
  C 57.58 10.35 46.83 3.07 34.50 2.50
  Q 33.55 2.46 33.50 2.46
  Q 33.46 2.46 32.51 2.50
  C 20.18 3.05 9.41 10.31 4.76 21.76
  C -4.40 44.30 17.69 72.31 33.05 86.57
  Q 33.14 86.65 33.23 86.67
  Q 33.32 86.69 33.43 86.69"
/>
<path stroke="#d498a4" vector-effect="non-scaling-stroke" d="
  M 28.50 24.43
  Q 28.69 24.31 30.31 24.57
  A 0.18 0.18 0.0 0 0 30.52 24.35
  Q 29.93 21.69 30.75 19.87
  A 0.76 0.75 31.7 0 0 30.53 18.97
  Q 27.45 16.49 24.50 15.98
  Q 23.61 15.83 23.51 15.89
  Q 23.41 15.95 23.11 16.80
  Q 22.10 19.62 22.75 23.52
  A 0.76 0.75 87.7 0 0 23.43 24.15
  Q 25.42 24.33 27.45 26.15
  A 0.18 0.18 0.0 0 0 27.74 26.07
  Q 28.31 24.54 28.50 24.43"
/>
<path stroke="#d498a4" vector-effect="non-scaling-stroke" d="
  M 40.67 20.04
  Q 39.08 24.13 34.22 24.47
  A 0.50 0.50 0.0 0 0 34.01 25.40
  L 38.70 28.11
  A 0.84 0.83 -45.3 0 0 39.54 28.10
  Q 42.95 26.04 47.75 25.98
  A 0.47 0.47 0.0 0 0 48.18 25.33
  Q 46.25 20.79 41.37 19.67
  A 0.60 0.60 0.0 0 0 40.67 20.04"
/>
<path stroke="#d498a4" vector-effect="non-scaling-stroke" d="
  M 35.46 36.42
  Q 35.54 36.37 35.56 36.34
  Q 36.97 34.43 37.31 31.80
  A 0.99 0.99 0.0 0 0 36.99 30.93
  Q 35.18 29.29 32.24 28.27
  Q 31.06 27.86 30.70 28.07
  Q 30.34 28.27 30.09 29.50
  Q 29.47 32.54 29.96 34.94
  A 0.99 0.99 0.0 0 0 30.54 35.66
  Q 32.98 36.71 35.34 36.47
  Q 35.37 36.46 35.46 36.42"
/>
<path stroke="#d498a4" vector-effect="non-scaling-stroke" d="
  M 18.68 32.65
  A 0.60 0.60 0.0 0 0 18.01 33.07
  Q 16.51 37.83 19.44 41.78
  A 0.47 0.47 0.0 0 0 20.22 41.73
  Q 22.69 37.64 26.18 35.75
  A 0.84 0.83 -14.3 0 0 26.61 35.03
  L 26.65 29.63
  A 0.50 0.50 0.0 0 0 25.74 29.34
  Q 23.00 33.35 18.68 32.65"
/>
<path stroke="#d498a4" vector-effect="non-scaling-stroke" d="
  M 37.22 39.42
  C 35.40 40.47 30.10 39.00 28.26 38.22
  A 0.59 0.59 0.0 0 0 27.63 39.21
  Q 32.23 43.40 34.44 48.56
  A 2.09 2.04 -87.6 0 0 35.33 49.55
  Q 39.42 51.82 44.02 52.12
  Q 44.53 52.16 44.56 52.14
  Q 44.58 52.13 44.81 51.66
  Q 46.85 47.53 46.93 42.86
  A 2.09 2.04 27.6 0 0 46.52 41.59
  Q 43.16 37.10 41.83 31.02
  A 0.59 0.59 0.0 0 0 40.66 31.07
  C 40.42 33.05 39.04 38.37 37.22 39.42"
/>
</g>
<path fill="#581723" d="
  M 33.79 88.00
  L 33.04 88.00
  C 21.74 77.74 12.00 65.56 5.58 51.41
  Q 2.18 43.94 1.59 34.83
  C 0.56 18.91 11.27 5.65 26.52 2.08
  C 37.36 -0.46 49.52 3.24 57.20 11.69
  C 79.42 36.12 52.31 71.22 33.79 88.00
  Z
  M 33.43 86.69
  Q 33.53 86.69 33.63 86.67
  Q 33.71 86.65 33.80 86.57
  C 49.19 72.34 71.33 44.37 62.21 21.81
  C 57.58 10.35 46.83 3.07 34.50 2.50
  Q 33.55 2.46 33.50 2.46
  Q 33.46 2.46 32.51 2.50
  C 20.18 3.05 9.41 10.31 4.76 21.76
  C -4.40 44.30 17.69 72.31 33.05 86.57
  Q 33.14 86.65 33.23 86.67
  Q 33.32 86.69 33.43 86.69
  Z"
/>
<path fill="#a83148" d="
  M 33.50 2.46
  Q 33.55 2.46 34.50 2.50
  C 46.83 3.07 57.58 10.35 62.21 21.81
  C 71.33 44.37 49.19 72.34 33.80 86.57
  Q 33.71 86.65 33.63 86.67
  Q 33.53 86.69 33.43 86.69
  Q 33.32 86.69 33.23 86.67
  Q 33.14 86.65 33.05 86.57
  C 17.69 72.31 -4.40 44.30 4.76 21.76
  C 9.41 10.31 20.18 3.05 32.51 2.50
  Q 33.46 2.46 33.50 2.46
  Z
  M 28.50 24.43
  Q 28.69 24.31 30.31 24.57
  A 0.18 0.18 0.0 0 0 30.52 24.35
  Q 29.93 21.69 30.75 19.87
  A 0.76 0.75 31.7 0 0 30.53 18.97
  Q 27.45 16.49 24.50 15.98
  Q 23.61 15.83 23.51 15.89
  Q 23.41 15.95 23.11 16.80
  Q 22.10 19.62 22.75 23.52
  A 0.76 0.75 87.7 0 0 23.43 24.15
  Q 25.42 24.33 27.45 26.15
  A 0.18 0.18 0.0 0 0 27.74 26.07
  Q 28.31 24.54 28.50 24.43
  Z
  M 40.67 20.04
  Q 39.08 24.13 34.22 24.47
  A 0.50 0.50 0.0 0 0 34.01 25.40
  L 38.70 28.11
  A 0.84 0.83 -45.3 0 0 39.54 28.10
  Q 42.95 26.04 47.75 25.98
  A 0.47 0.47 0.0 0 0 48.18 25.33
  Q 46.25 20.79 41.37 19.67
  A 0.60 0.60 0.0 0 0 40.67 20.04
  Z
  M 35.46 36.42
  Q 35.54 36.37 35.56 36.34
  Q 36.97 34.43 37.31 31.80
  A 0.99 0.99 0.0 0 0 36.99 30.93
  Q 35.18 29.29 32.24 28.27
  Q 31.06 27.86 30.70 28.07
  Q 30.34 28.27 30.09 29.50
  Q 29.47 32.54 29.96 34.94
  A 0.99 0.99 0.0 0 0 30.54 35.66
  Q 32.98 36.71 35.34 36.47
  Q 35.37 36.46 35.46 36.42
  Z
  M 18.68 32.65
  A 0.60 0.60 0.0 0 0 18.01 33.07
  Q 16.51 37.83 19.44 41.78
  A 0.47 0.47 0.0 0 0 20.22 41.73
  Q 22.69 37.64 26.18 35.75
  A 0.84 0.83 -14.3 0 0 26.61 35.03
  L 26.65 29.63
  A 0.50 0.50 0.0 0 0 25.74 29.34
  Q 23.00 33.35 18.68 32.65
  Z
  M 37.22 39.42
  C 35.40 40.47 30.10 39.00 28.26 38.22
  A 0.59 0.59 0.0 0 0 27.63 39.21
  Q 32.23 43.40 34.44 48.56
  A 2.09 2.04 -87.6 0 0 35.33 49.55
  Q 39.42 51.82 44.02 52.12
  Q 44.53 52.16 44.56 52.14
  Q 44.58 52.13 44.81 51.66
  Q 46.85 47.53 46.93 42.86
  A 2.09 2.04 27.6 0 0 46.52 41.59
  Q 43.16 37.10 41.83 31.02
  A 0.59 0.59 0.0 0 0 40.66 31.07
  C 40.42 33.05 39.04 38.37 37.22 39.42
  Z"
/>
<path fill="#ffffff" d="
  M 28.50 24.43
  Q 28.31 24.54 27.74 26.07
  A 0.18 0.18 0.0 0 1 27.45 26.15
  Q 25.42 24.33 23.43 24.15
  A 0.76 0.75 87.7 0 1 22.75 23.52
  Q 22.10 19.62 23.11 16.80
  Q 23.41 15.95 23.51 15.89
  Q 23.61 15.83 24.50 15.98
  Q 27.45 16.49 30.53 18.97
  A 0.76 0.75 31.7 0 1 30.75 19.87
  Q 29.93 21.69 30.52 24.35
  A 0.18 0.18 0.0 0 1 30.31 24.57
  Q 28.69 24.31 28.50 24.43
  Z"
/>
<path fill="#ffffff" d="
  M 41.37 19.67
  Q 46.25 20.79 48.18 25.33
  A 0.47 0.47 0.0 0 1 47.75 25.98
  Q 42.95 26.04 39.54 28.10
  A 0.84 0.83 -45.3 0 1 38.70 28.11
  L 34.01 25.40
  A 0.50 0.50 0.0 0 1 34.22 24.47
  Q 39.08 24.13 40.67 20.04
  A 0.60 0.60 0.0 0 1 41.37 19.67
  Z"
/>
<path fill="#ffffff" d="
  M 30.70 28.07
  Q 31.06 27.86 32.24 28.27
  Q 35.18 29.29 36.99 30.93
  A 0.99 0.99 0.0 0 1 37.31 31.80
  Q 36.97 34.43 35.56 36.34
  Q 35.54 36.37 35.46 36.42
  Q 35.37 36.46 35.34 36.47
  Q 32.98 36.71 30.54 35.66
  A 0.99 0.99 0.0 0 1 29.96 34.94
  Q 29.47 32.54 30.09 29.50
  Q 30.34 28.27 30.70 28.07
  Z"
/>
<path fill="#ffffff" d="
  M 18.68 32.65
  Q 23.00 33.35 25.74 29.34
  A 0.50 0.50 0.0 0 1 26.65 29.63
  L 26.61 35.03
  A 0.84 0.83 -14.3 0 1 26.18 35.75
  Q 22.69 37.64 20.22 41.73
  A 0.47 0.47 0.0 0 1 19.44 41.78
  Q 16.51 37.83 18.01 33.07
  A 0.60 0.60 0.0 0 1 18.68 32.65
  Z"
/>
<path fill="#ffffff" d="
  M 44.56 52.14
  Q 44.53 52.16 44.02 52.12
  Q 39.42 51.82 35.33 49.55
  A 2.09 2.04 -87.6 0 1 34.44 48.56
  Q 32.23 43.40 27.63 39.21
  A 0.59 0.59 0.0 0 1 28.26 38.22
  C 30.10 39.00 35.40 40.47 37.22 39.42
  C 39.04 38.37 40.42 33.05 40.66 31.07
  A 0.59 0.59 0.0 0 1 41.83 31.02
  Q 43.16 37.10 46.52 41.59
  A 2.09 2.04 27.6 0 1 46.93 42.86
  Q 46.85 47.53 44.81 51.66
  Q 44.58 52.13 44.56 52.14
  Z"
/>
</svg>
