<?xml version="1.0" encoding="UTF-8" standalone="no"?>
<!DOCTYPE svg PUBLIC "-//W3C//DTD SVG 1.1//EN" "http://www.w3.org/Graphics/SVG/1.1/DTD/svg11.dtd">
<svg xmlns="http://www.w3.org/2000/svg" version="1.1" viewBox="0.00 0.00 66.00 88.00">
<g stroke-width="2.00" fill="none" stroke-linecap="butt">
<path stroke="#802436" vector-effect="non-scaling-stroke" d="
  M 33.42 86.69
  Q 33.53 86.69 33.62 86.67
  Q 33.63 86.67 33.76 86.55
  Q 47.30 74.07 56.48 58.48
  C 64.06 45.61 68.33 28.71 58.74 15.53
  Q 49.89 3.36 34.50 2.52
  Q 33.56 2.47 33.51 2.47
  Q 33.46 2.47 32.52 2.52
  Q 17.13 3.33 8.25 15.48
  C -1.37 28.64 2.87 45.55 10.42 58.43
  Q 19.57 74.04 33.08 86.55
  Q 33.21 86.67 33.22 86.67
  Q 33.31 86.69 33.42 86.69"
/>
<path stroke="#d498a4" vector-effect="non-scaling-stroke" d="
  M 31.62 17.24
  A 0.17 0.17 0.0 0 0 31.40 17.08
  Q 23.58 19.60 21.69 20.59
  C 19.23 21.87 17.94 25.43 15.39 26.19
  A 0.86 0.85 74.6 0 0 14.81 27.23
  Q 16.93 35.21 14.71 43.31
  A 0.50 0.50 0.0 0 0 15.03 43.91
  Q 23.56 46.78 30.79 51.76
  A 0.55 0.54 -72.7 0 0 31.64 51.31
  L 31.64 47.97
  A 1.66 1.66 0.0 0 0 30.82 46.54
  L 28.66 45.29
  A 0.83 0.82 21.0 0 1 28.26 44.41
  C 29.71 37.50 25.55 36.24 20.94 33.13
  A 1.14 1.12 14.2 0 1 20.46 32.34
  L 19.97 28.36
  A 1.13 1.11 -27.8 0 1 20.25 27.48
  Q 24.80 22.40 31.31 22.50
  A 0.31 0.30 -89.1 0 0 31.62 22.18
  L 31.62 17.24"
/>
<path stroke="#d498a4" vector-effect="non-scaling-stroke" d="
  M 34.37 17.26
  L 34.37 22.20
  A 0.31 0.30 89.1 0 0 34.68 22.51
  Q 41.18 22.41 45.73 27.49
  A 1.13 1.11 27.8 0 1 46.01 28.37
  L 45.52 32.34
  A 1.13 1.11 -14.2 0 1 45.04 33.13
  C 40.43 36.24 36.28 37.50 37.73 44.40
  A 0.83 0.82 -21.0 0 1 37.33 45.28
  L 35.17 46.53
  A 1.66 1.66 0.0 0 0 34.35 47.96
  L 34.35 51.29
  A 0.54 0.54 0.0 0 0 35.20 51.74
  Q 42.42 46.77 50.94 43.90
  A 0.50 0.50 0.0 0 0 51.26 43.30
  Q 49.04 35.21 51.16 27.24
  A 0.86 0.85 -74.6 0 0 50.58 26.20
  C 48.03 25.44 46.75 21.88 44.29 20.61
  Q 42.40 19.62 34.59 17.10
  A 0.17 0.17 0.0 0 0 34.37 17.26"
/>
<path stroke="#d498a4" vector-effect="non-scaling-stroke" d="
  M 25.47 42.74
  C 25.42 39.39 23.80 38.02 20.66 37.04
  A 0.34 0.34 0.0 0 0 20.22 37.36
  L 20.22 41.19
  A 0.20 0.19 -12.0 0 0 20.34 41.37
  L 24.81 43.19
  A 0.48 0.48 0.0 0 0 25.47 42.74"
/>
<path stroke="#d498a4" vector-effect="non-scaling-stroke" d="
  M 40.45 42.74
  A 0.48 0.48 0.0 0 0 41.11 43.20
  L 45.63 41.40
  A 0.20 0.20 0.0 0 0 45.75 41.22
  L 45.79 37.36
  A 0.34 0.34 0.0 0 0 45.35 37.03
  C 42.17 37.99 40.53 39.36 40.45 42.74"
/>
</g>
<path fill="#581723" d="
  M 33.79 88.00
  L 33.04 88.00
  C 21.78 77.78 12.06 65.63 5.64 51.56
  Q 2.20 44.01 1.60 34.89
  C 0.24 14.30 18.70 -1.65 38.97 1.79
  C 53.89 4.33 65.48 17.18 65.44 32.53
  Q 65.43 38.74 63.98 44.01
  C 59.43 60.64 46.40 76.58 33.79 88.00
  Z
  M 33.42 86.69
  Q 33.53 86.69 33.62 86.67
  Q 33.63 86.67 33.76 86.55
  Q 47.30 74.07 56.48 58.48
  C 64.06 45.61 68.33 28.71 58.74 15.53
  Q 49.89 3.36 34.50 2.52
  Q 33.56 2.47 33.51 2.47
  Q 33.46 2.47 32.52 2.52
  Q 17.13 3.33 8.25 15.48
  C -1.37 28.64 2.87 45.55 10.42 58.43
  Q 19.57 74.04 33.08 86.55
  Q 33.21 86.67 33.22 86.67
  Q 33.31 86.69 33.42 86.69
  Z"
/>
<path fill="#a83148" d="
  M 33.51 2.47
  Q 33.56 2.47 34.50 2.52
  Q 49.89 3.36 58.74 15.53
  C 68.33 28.71 64.06 45.61 56.48 58.48
  Q 47.30 74.07 33.76 86.55
  Q 33.63 86.67 33.62 86.67
  Q 33.53 86.69 33.42 86.69
  Q 33.31 86.69 33.22 86.67
  Q 33.21 86.67 33.08 86.55
  Q 19.57 74.04 10.42 58.43
  C 2.87 45.55 -1.37 28.64 8.25 15.48
  Q 17.13 3.33 32.52 2.52
  Q 33.46 2.47 33.51 2.47
  Z
  M 31.62 17.24
  A 0.17 0.17 0.0 0 0 31.40 17.08
  Q 23.58 19.60 21.69 20.59
  C 19.23 21.87 17.94 25.43 15.39 26.19
  A 0.86 0.85 74.6 0 0 14.81 27.23
  Q 16.93 35.21 14.71 43.31
  A 0.50 0.50 0.0 0 0 15.03 43.91
  Q 23.56 46.78 30.79 51.76
  A 0.55 0.54 -72.7 0 0 31.64 51.31
  L 31.64 47.97
  A 1.66 1.66 0.0 0 0 30.82 46.54
  L 28.66 45.29
  A 0.83 0.82 21.0 0 1 28.26 44.41
  C 29.71 37.50 25.55 36.24 20.94 33.13
  A 1.14 1.12 14.2 0 1 20.46 32.34
  L 19.97 28.36
  A 1.13 1.11 -27.8 0 1 20.25 27.48
  Q 24.80 22.40 31.31 22.50
  A 0.31 0.30 -89.1 0 0 31.62 22.18
  L 31.62 17.24
  Z
  M 34.37 17.26
  L 34.37 22.20
  A 0.31 0.30 89.1 0 0 34.68 22.51
  Q 41.18 22.41 45.73 27.49
  A 1.13 1.11 27.8 0 1 46.01 28.37
  L 45.52 32.34
  A 1.13 1.11 -14.2 0 1 45.04 33.13
  C 40.43 36.24 36.28 37.50 37.73 44.40
  A 0.83 0.82 -21.0 0 1 37.33 45.28
  L 35.17 46.53
  A 1.66 1.66 0.0 0 0 34.35 47.96
  L 34.35 51.29
  A 0.54 0.54 0.0 0 0 35.20 51.74
  Q 42.42 46.77 50.94 43.90
  A 0.50 0.50 0.0 0 0 51.26 43.30
  Q 49.04 35.21 51.16 27.24
  A 0.86 0.85 -74.6 0 0 50.58 26.20
  C 48.03 25.44 46.75 21.88 44.29 20.61
  Q 42.40 19.62 34.59 17.10
  A 0.17 0.17 0.0 0 0 34.37 17.26
  Z"
/>
<path fill="#ffffff" d="
  M 31.62 17.24
  L 31.62 22.18
  A 0.31 0.30 -89.1 0 1 31.31 22.50
  Q 24.80 22.40 20.25 27.48
  A 1.13 1.11 -27.8 0 0 19.97 28.36
  L 20.46 32.34
  A 1.14 1.12 14.2 0 0 20.94 33.13
  C 25.55 36.24 29.71 37.50 28.26 44.41
  A 0.83 0.82 21.0 0 0 28.66 45.29
  L 30.82 46.54
  A 1.66 1.66 0.0 0 1 31.64 47.97
  L 31.64 51.31
  A 0.55 0.54 -72.7 0 1 30.79 51.76
  Q 23.56 46.78 15.03 43.91
  A 0.50 0.50 0.0 0 1 14.71 43.31
  Q 16.93 35.21 14.81 27.23
  A 0.86 0.85 74.6 0 1 15.39 26.19
  C 17.94 25.43 19.23 21.87 21.69 20.59
  Q 23.58 19.60 31.40 17.08
  A 0.17 0.17 0.0 0 1 31.62 17.24
  Z
  M 25.47 42.74
  C 25.42 39.39 23.80 38.02 20.66 37.04
  A 0.34 0.34 0.0 0 0 20.22 37.36
  L 20.22 41.19
  A 0.20 0.19 -12.0 0 0 20.34 41.37
  L 24.81 43.19
  A 0.48 0.48 0.0 0 0 25.47 42.74
  Z"
/>
<path fill="#ffffff" d="
  M 34.37 17.26
  A 0.17 0.17 0.0 0 1 34.59 17.10
  Q 42.40 19.62 44.29 20.61
  C 46.75 21.88 48.03 25.44 50.58 26.20
  A 0.86 0.85 -74.6 0 1 51.16 27.24
  Q 49.04 35.21 51.26 43.30
  A 0.50 0.50 0.0 0 1 50.94 43.90
  Q 42.42 46.77 35.20 51.74
  A 0.54 0.54 0.0 0 1 34.35 51.29
  L 34.35 47.96
  A 1.66 1.66 0.0 0 1 35.17 46.53
  L 37.33 45.28
  A 0.83 0.82 -21.0 0 0 37.73 44.40
  C 36.28 37.50 40.43 36.24 45.04 33.13
  A 1.13 1.11 -14.2 0 0 45.52 32.34
  L 46.01 28.37
  A 1.13 1.11 27.8 0 0 45.73 27.49
  Q 41.18 22.41 34.68 22.51
  A 0.31 0.30 89.1 0 1 34.37 22.20
  L 34.37 17.26
  Z
  M 40.45 42.74
  A 0.48 0.48 0.0 0 0 41.11 43.20
  L 45.63 41.40
  A 0.20 0.20 0.0 0 0 45.75 41.22
  L 45.79 37.36
  A 0.34 0.34 0.0 0 0 45.35 37.03
  C 42.17 37.99 40.53 39.36 40.45 42.74
  Z"
/>
<path fill="#a83148" d="
  M 24.81 43.19
  L 20.34 41.37
  A 0.20 0.19 51.1 0 1 20.22 41.19
  L 20.22 37.36
  A 0.34 0.34 0.0 0 1 20.66 37.04
  C 23.80 38.02 25.42 39.39 25.47 42.74
  A 0.48 0.48 0.0 0 1 24.81 43.19
  Z"
/>
<path fill="#a83148" d="
  M 40.45 42.74
  C 40.53 39.36 42.17 37.99 45.35 37.03
  A 0.34 0.34 0.0 0 1 45.79 37.36
  L 45.75 41.22
  A 0.20 0.20 0.0 0 1 45.63 41.40
  L 41.11 43.20
  A 0.48 0.48 0.0 0 1 40.45 42.74
  Z"
/>
</svg>
