<?xml version="1.0" encoding="UTF-8" standalone="no"?>
<!DOCTYPE svg PUBLIC "-//W3C//DTD SVG 1.1//EN" "http://www.w3.org/Graphics/SVG/1.1/DTD/svg11.dtd">
<svg xmlns="http://www.w3.org/2000/svg" version="1.1" viewBox="0.00 0.00 66.00 88.00">
<g stroke-width="2.00" fill="none" stroke-linecap="butt">
<path stroke="#395b67" vector-effect="non-scaling-stroke" d="
  M 33.40 86.69
  Q 33.54 86.69 33.67 86.65
  A 0.08 0.07 -67.2 0 0 33.72 86.63
  C 51.00 70.66 77.62 36.36 56.63 12.88
  Q 48.17 3.41 35.22 2.54
  Q 34.22 2.47 33.53 2.47
  Q 32.84 2.47 31.84 2.53
  Q 18.89 3.36 10.40 12.81
  C -10.66 36.22 15.85 70.61 33.08 86.63
  A 0.08 0.07 67.4 0 0 33.13 86.65
  Q 33.26 86.69 33.40 86.69"
/>
<path stroke="#a6bbc3" vector-effect="non-scaling-stroke" d="
  M 32.59 33.58
  Q 32.59 33.93 32.63 42.93
  A 0.65 0.65 0.0 0 1 31.98 43.58
  L 25.43 43.58
  A 0.58 0.58 0.0 0 1 24.85 43.00
  L 24.85 39.45
  A 0.49 0.49 0.0 0 0 24.36 38.96
  L 22.88 38.96
  A 0.48 0.48 0.0 0 0 22.40 39.44
  L 22.40 44.75
  A 1.21 1.21 0.0 0 0 23.62 45.96
  L 34.16 45.93
  A 0.85 0.84 -88.8 0 0 35.00 45.11
  Q 35.06 44.29 35.06 33.58
  Q 35.06 22.86 35.00 22.04
  A 0.85 0.84 88.8 0 0 34.15 21.23
  L 23.61 21.20
  A 1.21 1.21 0.0 0 0 22.40 22.41
  L 22.40 27.72
  A 0.48 0.48 0.0 0 0 22.88 28.20
  L 24.36 28.20
  A 0.49 0.49 0.0 0 0 24.85 27.71
  L 24.85 24.16
  A 0.58 0.58 0.0 0 1 25.43 23.58
  L 31.98 23.58
  A 0.65 0.65 0.0 0 1 32.63 24.22
  Q 32.59 33.23 32.59 33.58"
/>
<path stroke="#a6bbc3" vector-effect="non-scaling-stroke" d="
  M 39.18 33.58
  Q 39.18 34.48 39.19 34.62
  A 0.64 0.63 87.6 0 0 39.82 35.21
  L 45.39 35.23
  A 0.33 0.33 0.0 0 1 45.62 35.80
  L 40.41 41.01
  A 0.34 0.34 0.0 0 0 40.65 41.59
  L 43.39 41.59
  A 1.61 1.60 -69.1 0 0 44.59 41.05
  Q 47.70 37.57 51.07 33.82
  C 51.10 33.78 51.12 33.65 51.12 33.60
  C 51.12 33.56 51.10 33.43 51.07 33.39
  Q 47.72 29.62 44.62 26.13
  A 1.61 1.60 69.4 0 0 43.43 25.58
  L 40.69 25.57
  A 0.34 0.34 0.0 0 0 40.44 26.15
  L 45.63 31.38
  A 0.33 0.33 0.0 0 1 45.40 31.95
  L 39.83 31.95
  A 0.64 0.63 -87.3 0 0 39.20 32.53
  Q 39.18 32.68 39.18 33.58"
/>
<path stroke="#a6bbc3" vector-effect="non-scaling-stroke" d="
  M 28.53 32.44
  A 0.40 0.40 0.0 0 0 28.13 32.04
  L 15.07 32.04
  A 0.40 0.40 0.0 0 0 14.67 32.44
  L 14.67 34.72
  A 0.40 0.40 0.0 0 0 15.07 35.12
  L 28.13 35.12
  A 0.40 0.40 0.0 0 0 28.53 34.72
  L 28.53 32.44"
/>
</g>
<path fill="#243e46" d="
  M 33.81 88.00
  L 33.15 88.00
  Q 15.62 72.49 6.00 52.51
  Q 2.12 44.44 1.60 34.54
  Q 1.13 25.75 4.97 18.54
  C 17.53 -5.09 51.74 -4.24 62.88 20.34
  C 66.91 29.23 65.85 40.14 62.32 49.05
  C 56.42 63.96 45.58 77.25 33.81 88.00
  Z
  M 33.40 86.69
  Q 33.54 86.69 33.67 86.65
  A 0.08 0.07 -67.2 0 0 33.72 86.63
  C 51.00 70.66 77.62 36.36 56.63 12.88
  Q 48.17 3.41 35.22 2.54
  Q 34.22 2.47 33.53 2.47
  Q 32.84 2.47 31.84 2.53
  Q 18.89 3.36 10.40 12.81
  C -10.66 36.22 15.85 70.61 33.08 86.63
  A 0.08 0.07 67.4 0 0 33.13 86.65
  Q 33.26 86.69 33.40 86.69
  Z"
/>
<path fill="#4d7787" d="
  M 33.53 2.47
  Q 34.22 2.47 35.22 2.54
  Q 48.17 3.41 56.63 12.88
  C 77.62 36.36 51.00 70.66 33.72 86.63
  A 0.08 0.07 -67.2 0 1 33.67 86.65
  Q 33.54 86.69 33.40 86.69
  Q 33.26 86.69 33.13 86.65
  A 0.08 0.07 67.4 0 1 33.08 86.63
  C 15.85 70.61 -10.66 36.22 10.40 12.81
  Q 18.89 3.36 31.84 2.53
  Q 32.84 2.47 33.53 2.47
  Z
  M 32.59 33.58
  Q 32.59 33.93 32.63 42.93
  A 0.65 0.65 0.0 0 1 31.98 43.58
  L 25.43 43.58
  A 0.58 0.58 0.0 0 1 24.85 43.00
  L 24.85 39.45
  A 0.49 0.49 0.0 0 0 24.36 38.96
  L 22.88 38.96
  A 0.48 0.48 0.0 0 0 22.40 39.44
  L 22.40 44.75
  A 1.21 1.21 0.0 0 0 23.62 45.96
  L 34.16 45.93
  A 0.85 0.84 -88.8 0 0 35.00 45.11
  Q 35.06 44.29 35.06 33.58
  Q 35.06 22.86 35.00 22.04
  A 0.85 0.84 88.8 0 0 34.15 21.23
  L 23.61 21.20
  A 1.21 1.21 0.0 0 0 22.40 22.41
  L 22.40 27.72
  A 0.48 0.48 0.0 0 0 22.88 28.20
  L 24.36 28.20
  A 0.49 0.49 0.0 0 0 24.85 27.71
  L 24.85 24.16
  A 0.58 0.58 0.0 0 1 25.43 23.58
  L 31.98 23.58
  A 0.65 0.65 0.0 0 1 32.63 24.22
  Q 32.59 33.23 32.59 33.58
  Z
  M 39.18 33.58
  Q 39.18 34.48 39.19 34.62
  A 0.64 0.63 87.6 0 0 39.82 35.21
  L 45.39 35.23
  A 0.33 0.33 0.0 0 1 45.62 35.80
  L 40.41 41.01
  A 0.34 0.34 0.0 0 0 40.65 41.59
  L 43.39 41.59
  A 1.61 1.60 -69.1 0 0 44.59 41.05
  Q 47.70 37.57 51.07 33.82
  C 51.10 33.78 51.12 33.65 51.12 33.60
  C 51.12 33.56 51.10 33.43 51.07 33.39
  Q 47.72 29.62 44.62 26.13
  A 1.61 1.60 69.4 0 0 43.43 25.58
  L 40.69 25.57
  A 0.34 0.34 0.0 0 0 40.44 26.15
  L 45.63 31.38
  A 0.33 0.33 0.0 0 1 45.40 31.95
  L 39.83 31.95
  A 0.64 0.63 -87.3 0 0 39.20 32.53
  Q 39.18 32.68 39.18 33.58
  Z
  M 28.53 32.44
  A 0.40 0.40 0.0 0 0 28.13 32.04
  L 15.07 32.04
  A 0.40 0.40 0.0 0 0 14.67 32.44
  L 14.67 34.72
  A 0.40 0.40 0.0 0 0 15.07 35.12
  L 28.13 35.12
  A 0.40 0.40 0.0 0 0 28.53 34.72
  L 28.53 32.44
  Z"
/>
<path fill="#ffffff" d="
  M 35.06 33.58
  Q 35.06 44.29 35.00 45.11
  A 0.85 0.84 -88.8 0 1 34.16 45.93
  L 23.62 45.96
  A 1.21 1.21 0.0 0 1 22.40 44.75
  L 22.40 39.44
  A 0.48 0.48 0.0 0 1 22.88 38.96
  L 24.36 38.96
  A 0.49 0.49 0.0 0 1 24.85 39.45
  L 24.85 43.00
  A 0.58 0.58 0.0 0 0 25.43 43.58
  L 31.98 43.58
  A 0.65 0.65 0.0 0 0 32.63 42.93
  Q 32.59 33.93 32.59 33.58
  Q 32.59 33.23 32.63 24.22
  A 0.65 0.65 0.0 0 0 31.98 23.58
  L 25.43 23.58
  A 0.58 0.58 0.0 0 0 24.85 24.16
  L 24.85 27.71
  A 0.49 0.49 0.0 0 1 24.36 28.20
  L 22.88 28.20
  A 0.48 0.48 0.0 0 1 22.40 27.72
  L 22.40 22.41
  A 1.21 1.21 0.0 0 1 23.61 21.20
  L 34.15 21.23
  A 0.85 0.84 88.8 0 1 35.00 22.04
  Q 35.06 22.86 35.06 33.58
  Z"
/>
<path fill="#ffffff" d="
  M 51.12 33.60
  C 51.12 33.65 51.10 33.78 51.07 33.82
  Q 47.70 37.57 44.59 41.05
  A 1.61 1.60 -69.1 0 1 43.39 41.59
  L 40.65 41.59
  A 0.34 0.34 0.0 0 1 40.41 41.01
  L 45.62 35.80
  A 0.33 0.33 0.0 0 0 45.39 35.23
  L 39.82 35.21
  A 0.64 0.63 87.6 0 1 39.19 34.62
  Q 39.18 34.48 39.18 33.58
  Q 39.18 32.68 39.20 32.53
  A 0.64 0.63 -87.3 0 1 39.83 31.95
  L 45.40 31.95
  A 0.33 0.33 0.0 0 0 45.63 31.38
  L 40.44 26.15
  A 0.34 0.34 0.0 0 1 40.69 25.57
  L 43.43 25.58
  A 1.61 1.60 69.4 0 1 44.62 26.13
  Q 47.72 29.62 51.07 33.39
  C 51.10 33.43 51.12 33.56 51.12 33.60
  Z"
/>
<rect fill="#ffffff" x="14.67" y="32.04" width="13.86" height="3.08" rx="0.40"/>
</svg>
