<?xml version="1.0" encoding="UTF-8" standalone="no"?>
<!DOCTYPE svg PUBLIC "-//W3C//DTD SVG 1.1//EN" "http://www.w3.org/Graphics/SVG/1.1/DTD/svg11.dtd">
<svg xmlns="http://www.w3.org/2000/svg" version="1.1" viewBox="0.00 0.00 66.00 88.00">
<g stroke-width="2.00" fill="none" stroke-linecap="butt">
<path stroke="#181c2b" vector-effect="non-scaling-stroke" d="
  M 33.53 86.35
  Q 35.55 84.87 37.28 83.06
  C 48.24 71.53 58.95 57.84 62.71 42.30
  Q 66.93 24.81 57.17 13.62
  C 42.00 -3.77 14.33 0.02 5.06 21.37
  C 0.86 31.04 3.12 43.90 7.68 53.12
  Q 16.85 71.65 33.29 86.34
  A 0.20 0.19 -40.8 0 0 33.53 86.35"
/>
<path stroke="#8e9099" vector-effect="non-scaling-stroke" d="
  M 38.30 34.01
  Q 38.30 34.23 38.12 34.36
  C 33.26 37.95 27.49 45.31 30.42 51.53
  A 0.48 0.48 0.0 0 0 31.30 51.51
  C 34.51 43.85 41.13 37.68 48.48 34.48
  Q 49.42 34.07 49.42 34.03
  Q 49.42 33.99 48.48 33.57
  C 41.14 30.36 34.54 24.17 31.35 16.50
  A 0.48 0.48 0.0 0 0 30.47 16.48
  C 27.52 22.69 33.27 30.07 38.12 33.67
  Q 38.30 33.80 38.30 34.01"
/>
<path stroke="#8e9099" vector-effect="non-scaling-stroke" d="
  M 25.79 34.00
  Q 25.79 34.24 25.74 34.28
  Q 21.81 37.74 23.05 42.90
  A 0.36 0.36 0.0 0 0 23.74 42.92
  Q 25.72 36.81 31.54 34.24
  Q 31.67 34.18 31.67 34.00
  Q 31.67 33.83 31.54 33.77
  Q 25.72 31.19 23.75 25.08
  A 0.36 0.36 0.0 0 0 23.06 25.10
  Q 21.81 30.26 25.74 33.72
  Q 25.79 33.76 25.79 34.00"
/>
<path stroke="#8e9099" vector-effect="non-scaling-stroke" d="
  M 17.62 33.96
  Q 17.62 34.00 17.60 34.04
  Q 15.76 36.62 16.91 39.64
  A 0.24 0.23 39.8 0 0 17.36 39.60
  Q 18.00 36.17 20.91 34.22
  A 0.27 0.12 -22.5 0 0 21.05 34.08
  Q 21.06 34.05 21.06 33.98
  Q 21.06 33.91 21.05 33.88
  A 0.27 0.12 23.3 0 0 20.91 33.74
  Q 18.03 31.75 17.43 28.32
  A 0.24 0.23 -39.1 0 0 16.98 28.27
  Q 15.79 31.28 17.60 33.88
  Q 17.62 33.92 17.62 33.96"
/>
</g>
<path fill="#131622" d="
  M 33.81 88.00
  L 33.04 88.00
  C 21.78 77.76 12.08 65.65 5.65 51.57
  Q 2.21 44.05 1.60 34.90
  C 0.53 18.88 11.35 5.50 26.72 2.05
  C 41.45 -1.25 56.67 6.37 62.97 20.58
  C 66.64 28.86 65.93 38.66 63.04 47.01
  C 57.65 62.62 45.95 76.92 33.81 88.00
  Z
  M 33.53 86.35
  Q 35.55 84.87 37.28 83.06
  C 48.24 71.53 58.95 57.84 62.71 42.30
  Q 66.93 24.81 57.17 13.62
  C 42.00 -3.77 14.33 0.02 5.06 21.37
  C 0.86 31.04 3.12 43.90 7.68 53.12
  Q 16.85 71.65 33.29 86.34
  A 0.20 0.19 -40.8 0 0 33.53 86.35
  Z"
/>
<path fill="#1c2133" d="
  M 33.53 86.35
  A 0.20 0.19 -40.8 0 1 33.29 86.34
  Q 16.85 71.65 7.68 53.12
  C 3.12 43.90 0.86 31.04 5.06 21.37
  C 14.33 0.02 42.00 -3.77 57.17 13.62
  Q 66.93 24.81 62.71 42.30
  C 58.95 57.84 48.24 71.53 37.28 83.06
  Q 35.55 84.87 33.53 86.35
  Z
  M 38.30 34.01
  Q 38.30 34.23 38.12 34.36
  C 33.26 37.95 27.49 45.31 30.42 51.53
  A 0.48 0.48 0.0 0 0 31.30 51.51
  C 34.51 43.85 41.13 37.68 48.48 34.48
  Q 49.42 34.07 49.42 34.03
  Q 49.42 33.99 48.48 33.57
  C 41.14 30.36 34.54 24.17 31.35 16.50
  A 0.48 0.48 0.0 0 0 30.47 16.48
  C 27.52 22.69 33.27 30.07 38.12 33.67
  Q 38.30 33.80 38.30 34.01
  Z
  M 25.79 34.00
  Q 25.79 34.24 25.74 34.28
  Q 21.81 37.74 23.05 42.90
  A 0.36 0.36 0.0 0 0 23.74 42.92
  Q 25.72 36.81 31.54 34.24
  Q 31.67 34.18 31.67 34.00
  Q 31.67 33.83 31.54 33.77
  Q 25.72 31.19 23.75 25.08
  A 0.36 0.36 0.0 0 0 23.06 25.10
  Q 21.81 30.26 25.74 33.72
  Q 25.79 33.76 25.79 34.00
  Z
  M 17.62 33.96
  Q 17.62 34.00 17.60 34.04
  Q 15.76 36.62 16.91 39.64
  A 0.24 0.23 39.8 0 0 17.36 39.60
  Q 18.00 36.17 20.91 34.22
  A 0.27 0.12 -22.5 0 0 21.05 34.08
  Q 21.06 34.05 21.06 33.98
  Q 21.06 33.91 21.05 33.88
  A 0.27 0.12 23.3 0 0 20.91 33.74
  Q 18.03 31.75 17.43 28.32
  A 0.24 0.23 -39.1 0 0 16.98 28.27
  Q 15.79 31.28 17.60 33.88
  Q 17.62 33.92 17.62 33.96
  Z"
/>
<path fill="#ffffff" d="
  M 49.42 34.03
  Q 49.42 34.07 48.48 34.48
  C 41.13 37.68 34.51 43.85 31.30 51.51
  A 0.48 0.48 0.0 0 1 30.42 51.53
  C 27.49 45.31 33.26 37.95 38.12 34.36
  Q 38.30 34.23 38.30 34.01
  Q 38.30 33.80 38.12 33.67
  C 33.27 30.07 27.52 22.69 30.47 16.48
  A 0.48 0.48 0.0 0 1 31.35 16.50
  C 34.54 24.17 41.14 30.36 48.48 33.57
  Q 49.42 33.99 49.42 34.03
  Z"
/>
<path fill="#ffffff" d="
  M 31.67 34.00
  Q 31.67 34.18 31.54 34.24
  Q 25.72 36.81 23.74 42.92
  A 0.36 0.36 0.0 0 1 23.05 42.90
  Q 21.81 37.74 25.74 34.28
  Q 25.79 34.24 25.79 34.00
  Q 25.79 33.76 25.74 33.72
  Q 21.81 30.26 23.06 25.10
  A 0.36 0.36 0.0 0 1 23.75 25.08
  Q 25.72 31.19 31.54 33.77
  Q 31.67 33.83 31.67 34.00
  Z"
/>
<path fill="#ffffff" d="
  M 21.06 33.98
  Q 21.06 34.05 21.05 34.08
  A 0.27 0.12 -22.5 0 1 20.91 34.22
  Q 18.00 36.17 17.36 39.60
  A 0.24 0.23 39.8 0 1 16.91 39.64
  Q 15.76 36.62 17.60 34.04
  Q 17.62 34.00 17.62 33.96
  Q 17.62 33.92 17.60 33.88
  Q 15.79 31.28 16.98 28.27
  A 0.24 0.23 -39.1 0 1 17.43 28.32
  Q 18.03 31.75 20.91 33.74
  A 0.27 0.12 23.3 0 1 21.05 33.88
  Q 21.06 33.91 21.06 33.98
  Z"
/>
</svg>
