<?xml version="1.0" encoding="UTF-8" standalone="no"?>
<!DOCTYPE svg PUBLIC "-//W3C//DTD SVG 1.1//EN" "http://www.w3.org/Graphics/SVG/1.1/DTD/svg11.dtd">
<svg xmlns="http://www.w3.org/2000/svg" version="1.1" viewBox="0.00 0.00 66.00 88.00">
<g stroke-width="2.00" fill="none" stroke-linecap="butt">
<path stroke="#802436" vector-effect="non-scaling-stroke" d="
  M 33.43 86.69
  Q 33.53 86.69 33.63 86.67
  Q 33.71 86.65 33.79 86.57
  C 50.42 71.22 75.91 38.62 58.52 15.24
  Q 49.44 3.03 33.75 2.47
  Q 33.59 2.46 33.51 2.46
  Q 33.43 2.46 33.27 2.47
  Q 17.57 3.00 8.47 15.19
  C -8.97 38.54 16.46 71.19 33.06 86.57
  Q 33.14 86.65 33.23 86.67
  Q 33.32 86.69 33.43 86.69"
/>
<path stroke="#d498a4" vector-effect="non-scaling-stroke" d="
  M 29.03 16.50
  C 24.11 16.27 17.56 18.40 14.96 23.03
  A 2.11 2.07 61.4 0 0 14.69 23.98
  C 13.92 43.57 31.18 56.34 49.77 50.15
  A 2.07 2.07 0.0 0 0 51.19 48.23
  Q 51.33 41.96 46.71 37.76
  A 1.84 1.83 -20.0 0 0 45.67 37.28
  C 36.18 36.07 37.88 21.94 29.92 16.78
  A 1.81 1.71 -26.0 0 0 29.03 16.50"
/>
<path stroke="#d498a4" vector-effect="non-scaling-stroke" d="
  M 19.26 23.01
  Q 21.87 24.40 23.07 27.38
  C 24.63 31.28 26.56 30.79 30.42 30.30
  A 1.31 1.30 0.5 0 1 31.88 31.78
  Q 30.68 40.13 39.60 42.10
  A 2.95 2.93 36.2 0 0 41.71 41.78
  L 43.23 40.90
  A 0.80 0.79 -53.4 0 0 43.02 39.44
  C 34.75 37.52 35.11 24.63 29.34 19.66
  A 1.27 1.25 -23.9 0 0 28.55 19.36
  Q 23.13 19.29 19.20 22.22
  A 0.47 0.47 0.0 0 0 19.26 23.01"
/>
</g>
<path fill="#581723" d="
  M 33.80 88.00
  L 33.13 88.00
  C 16.34 73.10 -7.91 42.02 5.16 18.17
  C 17.93 -5.15 51.89 -4.05 62.90 20.39
  C 66.90 29.28 65.83 40.15 62.32 49.06
  C 56.49 63.88 45.54 77.35 33.80 88.00
  Z
  M 33.43 86.69
  Q 33.53 86.69 33.63 86.67
  Q 33.71 86.65 33.79 86.57
  C 50.42 71.22 75.91 38.62 58.52 15.24
  Q 49.44 3.03 33.75 2.47
  Q 33.59 2.46 33.51 2.46
  Q 33.43 2.46 33.27 2.47
  Q 17.57 3.00 8.47 15.19
  C -8.97 38.54 16.46 71.19 33.06 86.57
  Q 33.14 86.65 33.23 86.67
  Q 33.32 86.69 33.43 86.69
  Z"
/>
<path fill="#a83148" d="
  M 33.51 2.46
  Q 33.59 2.46 33.75 2.47
  Q 49.44 3.03 58.52 15.24
  C 75.91 38.62 50.42 71.22 33.79 86.57
  Q 33.71 86.65 33.63 86.67
  Q 33.53 86.69 33.43 86.69
  Q 33.32 86.69 33.23 86.67
  Q 33.14 86.65 33.06 86.57
  C 16.46 71.19 -8.97 38.54 8.47 15.19
  Q 17.57 3.00 33.27 2.47
  Q 33.43 2.46 33.51 2.46
  Z
  M 29.03 16.50
  C 24.11 16.27 17.56 18.40 14.96 23.03
  A 2.11 2.07 61.4 0 0 14.69 23.98
  C 13.92 43.57 31.18 56.34 49.77 50.15
  A 2.07 2.07 0.0 0 0 51.19 48.23
  Q 51.33 41.96 46.71 37.76
  A 1.84 1.83 -20.0 0 0 45.67 37.28
  C 36.18 36.07 37.88 21.94 29.92 16.78
  A 1.81 1.71 -26.0 0 0 29.03 16.50
  Z"
/>
<path fill="#ffffff" d="
  M 29.92 16.78
  C 37.88 21.94 36.18 36.07 45.67 37.28
  A 1.84 1.83 -20.0 0 1 46.71 37.76
  Q 51.33 41.96 51.19 48.23
  A 2.07 2.07 0.0 0 1 49.77 50.15
  C 31.18 56.34 13.92 43.57 14.69 23.98
  A 2.11 2.07 61.4 0 1 14.96 23.03
  C 17.56 18.40 24.11 16.27 29.03 16.50
  A 1.81 1.71 -26.0 0 1 29.92 16.78
  Z
  M 19.26 23.01
  Q 21.87 24.40 23.07 27.38
  C 24.63 31.28 26.56 30.79 30.42 30.30
  A 1.31 1.30 0.5 0 1 31.88 31.78
  Q 30.68 40.13 39.60 42.10
  A 2.95 2.93 36.2 0 0 41.71 41.78
  L 43.23 40.90
  A 0.80 0.79 -53.4 0 0 43.02 39.44
  C 34.75 37.52 35.11 24.63 29.34 19.66
  A 1.27 1.25 -23.9 0 0 28.55 19.36
  Q 23.13 19.29 19.20 22.22
  A 0.47 0.47 0.0 0 0 19.26 23.01
  Z"
/>
<path fill="#a83148" d="
  M 19.26 23.01
  A 0.47 0.47 0.0 0 1 19.20 22.22
  Q 23.13 19.29 28.55 19.36
  A 1.27 1.25 -23.9 0 1 29.34 19.66
  C 35.11 24.63 34.75 37.52 43.02 39.44
  A 0.80 0.79 -53.4 0 1 43.23 40.90
  L 41.71 41.78
  A 2.95 2.93 36.2 0 1 39.60 42.10
  Q 30.68 40.13 31.88 31.78
  A 1.31 1.30 0.5 0 0 30.42 30.30
  C 26.56 30.79 24.63 31.28 23.07 27.38
  Q 21.87 24.40 19.26 23.01
  Z"
/>
</svg>
