<?xml version="1.0" encoding="UTF-8" standalone="no"?>
<!DOCTYPE svg PUBLIC "-//W3C//DTD SVG 1.1//EN" "http://www.w3.org/Graphics/SVG/1.1/DTD/svg11.dtd">
<svg xmlns="http://www.w3.org/2000/svg" version="1.1" viewBox="0.00 0.00 66.00 88.00">
<g stroke-width="2.00" fill="none" stroke-linecap="butt">
<path stroke="#7f5766" vector-effect="non-scaling-stroke" d="
  M 33.40 86.69
  Q 33.54 86.69 33.68 86.66
  A 0.12 0.10 9.8 0 0 33.73 86.63
  Q 48.48 72.79 57.36 56.92
  C 66.78 40.09 68.19 20.16 50.96 7.92
  Q 43.29 2.47 33.53 2.46
  Q 23.77 2.44 16.08 7.87
  C -1.19 20.06 0.16 39.99 9.53 56.85
  Q 18.37 72.75 33.08 86.63
  A 0.12 0.10 -9.6 0 0 33.13 86.66
  Q 33.26 86.69 33.40 86.69"
/>
<path stroke="#d3b9c3" vector-effect="non-scaling-stroke" d="
  M 30.96 15.82
  Q 28.50 15.71 23.16 17.63
  Q 16.25 20.12 14.76 26.49
  A 0.95 0.95 0.0 0 0 15.04 27.41
  Q 19.69 31.68 26.31 33.08
  A 0.60 0.60 0.0 0 0 27.03 32.54
  Q 27.32 28.35 30.97 26.61
  A 1.03 1.03 0.0 0 0 31.56 25.68
  L 31.56 16.44
  A 0.63 0.62 1.5 0 0 30.96 15.82"
/>
<path stroke="#d3b9c3" vector-effect="non-scaling-stroke" d="
  M 34.93 15.82
  A 0.63 0.62 -1.2 0 0 34.33 16.44
  L 34.28 25.65
  A 1.03 1.03 0.0 0 0 34.87 26.58
  Q 38.50 28.34 38.77 32.52
  A 0.60 0.60 0.0 0 0 39.48 33.06
  Q 46.10 31.70 50.75 27.46
  A 0.95 0.95 0.0 0 0 51.04 26.54
  Q 49.58 20.18 42.70 17.66
  Q 37.38 15.72 34.93 15.82"
/>
<path stroke="#d3b9c3" vector-effect="non-scaling-stroke" d="
  M 32.8816 29.0301
  A 4.07 3.14 -90.4 0 0 29.7701 33.1219
  A 4.07 3.14 -90.4 0 0 32.9384 37.1699
  A 4.07 3.14 -90.4 0 0 36.0499 33.0781
  A 4.07 3.14 -90.4 0 0 32.8816 29.0301"
/>
<path stroke="#d3b9c3" vector-effect="non-scaling-stroke" d="
  M 32.89 42.05
  Q 38.18 42.05 43.58 44.63
  A 0.78 0.78 0.0 0 0 44.50 44.45
  Q 49.56 38.81 50.91 31.33
  A 0.23 0.23 0.0 0 0 50.55 31.10
  Q 45.26 34.84 38.92 35.86
  A 1.20 1.18 -76.9 0 0 38.13 36.36
  C 36.90 38.15 35.10 39.88 32.89 39.88
  C 30.68 39.87 28.89 38.14 27.66 36.35
  A 1.20 1.18 77.0 0 0 26.87 35.85
  Q 20.53 34.81 15.25 31.06
  A 0.23 0.23 0.0 0 0 14.89 31.29
  Q 16.23 38.77 21.27 44.42
  A 0.78 0.78 0.0 0 0 22.19 44.61
  Q 27.60 42.04 32.89 42.05"
/>
<path stroke="#d3b9c3" vector-effect="non-scaling-stroke" d="
  M 32.93 52.14
  C 34.87 52.14 40.04 48.71 41.60 47.51
  A 0.44 0.44 0.0 0 0 41.57 46.79
  C 39.20 45.29 35.59 44.79 32.93 44.79
  C 30.27 44.79 26.65 45.30 24.29 46.80
  A 0.44 0.44 0.0 0 0 24.26 47.52
  C 25.82 48.72 31.00 52.14 32.93 52.14"
/>
</g>
<path fill="#563a44" d="
  M 33.81 88.00
  L 33.03 88.00
  C 19.69 75.92 4.49 57.17 1.96 38.76
  Q -0.22 22.87 9.29 12.24
  C 24.39 -4.63 51.67 -1.54 62.17 18.83
  C 67.39 28.97 65.87 41.20 61.31 51.54
  C 55.21 65.38 44.94 77.85 33.81 88.00
  Z
  M 33.40 86.69
  Q 33.54 86.69 33.68 86.66
  A 0.12 0.10 9.8 0 0 33.73 86.63
  Q 48.48 72.79 57.36 56.92
  C 66.78 40.09 68.19 20.16 50.96 7.92
  Q 43.29 2.47 33.53 2.46
  Q 23.77 2.44 16.08 7.87
  C -1.19 20.06 0.16 39.99 9.53 56.85
  Q 18.37 72.75 33.08 86.63
  A 0.12 0.10 -9.6 0 0 33.13 86.66
  Q 33.26 86.69 33.40 86.69
  Z"
/>
<path fill="#a77387" d="
  M 33.53 2.46
  Q 43.29 2.47 50.96 7.92
  C 68.19 20.16 66.78 40.09 57.36 56.92
  Q 48.48 72.79 33.73 86.63
  A 0.12 0.10 9.8 0 1 33.68 86.66
  Q 33.54 86.69 33.40 86.69
  Q 33.26 86.69 33.13 86.66
  A 0.12 0.10 -9.6 0 1 33.08 86.63
  Q 18.37 72.75 9.53 56.85
  C 0.16 39.99 -1.19 20.06 16.08 7.87
  Q 23.77 2.44 33.53 2.46
  Z
  M 30.96 15.82
  Q 28.50 15.71 23.16 17.63
  Q 16.25 20.12 14.76 26.49
  A 0.95 0.95 0.0 0 0 15.04 27.41
  Q 19.69 31.68 26.31 33.08
  A 0.60 0.60 0.0 0 0 27.03 32.54
  Q 27.32 28.35 30.97 26.61
  A 1.03 1.03 0.0 0 0 31.56 25.68
  L 31.56 16.44
  A 0.63 0.62 1.5 0 0 30.96 15.82
  Z
  M 34.93 15.82
  A 0.63 0.62 -1.2 0 0 34.33 16.44
  L 34.28 25.65
  A 1.03 1.03 0.0 0 0 34.87 26.58
  Q 38.50 28.34 38.77 32.52
  A 0.60 0.60 0.0 0 0 39.48 33.06
  Q 46.10 31.70 50.75 27.46
  A 0.95 0.95 0.0 0 0 51.04 26.54
  Q 49.58 20.18 42.70 17.66
  Q 37.38 15.72 34.93 15.82
  Z
  M 32.8816 29.0301
  A 4.07 3.14 -90.4 0 0 29.7701 33.1219
  A 4.07 3.14 -90.4 0 0 32.9384 37.1699
  A 4.07 3.14 -90.4 0 0 36.0499 33.0781
  A 4.07 3.14 -90.4 0 0 32.8816 29.0301
  Z
  M 32.89 42.05
  Q 38.18 42.05 43.58 44.63
  A 0.78 0.78 0.0 0 0 44.50 44.45
  Q 49.56 38.81 50.91 31.33
  A 0.23 0.23 0.0 0 0 50.55 31.10
  Q 45.26 34.84 38.92 35.86
  A 1.20 1.18 -76.9 0 0 38.13 36.36
  C 36.90 38.15 35.10 39.88 32.89 39.88
  C 30.68 39.87 28.89 38.14 27.66 36.35
  A 1.20 1.18 77.0 0 0 26.87 35.85
  Q 20.53 34.81 15.25 31.06
  A 0.23 0.23 0.0 0 0 14.89 31.29
  Q 16.23 38.77 21.27 44.42
  A 0.78 0.78 0.0 0 0 22.19 44.61
  Q 27.60 42.04 32.89 42.05
  Z
  M 32.93 52.14
  C 34.87 52.14 40.04 48.71 41.60 47.51
  A 0.44 0.44 0.0 0 0 41.57 46.79
  C 39.20 45.29 35.59 44.79 32.93 44.79
  C 30.27 44.79 26.65 45.30 24.29 46.80
  A 0.44 0.44 0.0 0 0 24.26 47.52
  C 25.82 48.72 31.00 52.14 32.93 52.14
  Z"
/>
<path fill="#ffffff" d="
  M 31.56 16.44
  L 31.56 25.68
  A 1.03 1.03 0.0 0 1 30.97 26.61
  Q 27.32 28.35 27.03 32.54
  A 0.60 0.60 0.0 0 1 26.31 33.08
  Q 19.69 31.68 15.04 27.41
  A 0.95 0.95 0.0 0 1 14.76 26.49
  Q 16.25 20.12 23.16 17.63
  Q 28.50 15.71 30.96 15.82
  A 0.63 0.62 1.5 0 1 31.56 16.44
  Z"
/>
<path fill="#ffffff" d="
  M 34.93 15.82
  Q 37.38 15.72 42.70 17.66
  Q 49.58 20.18 51.04 26.54
  A 0.95 0.95 0.0 0 1 50.75 27.46
  Q 46.10 31.70 39.48 33.06
  A 0.60 0.60 0.0 0 1 38.77 32.52
  Q 38.50 28.34 34.87 26.58
  A 1.03 1.03 0.0 0 1 34.28 25.65
  L 34.33 16.44
  A 0.63 0.62 -1.2 0 1 34.93 15.82
  Z"
/>
<ellipse fill="#ffffff" cx="0.00" cy="0.00" transform="translate(32.91,33.10) rotate(-90.4)" rx="4.07" ry="3.14"/>
<path fill="#ffffff" d="
  M 32.89 39.88
  C 35.10 39.88 36.90 38.15 38.13 36.36
  A 1.20 1.18 -76.9 0 1 38.92 35.86
  Q 45.26 34.84 50.55 31.10
  A 0.23 0.23 0.0 0 1 50.91 31.33
  Q 49.56 38.81 44.50 44.45
  A 0.78 0.78 0.0 0 1 43.58 44.63
  Q 38.18 42.05 32.89 42.05
  Q 27.60 42.04 22.19 44.61
  A 0.78 0.78 0.0 0 1 21.27 44.42
  Q 16.23 38.77 14.89 31.29
  A 0.23 0.23 0.0 0 1 15.25 31.06
  Q 20.53 34.81 26.87 35.85
  A 1.20 1.18 77.0 0 1 27.66 36.35
  C 28.89 38.14 30.68 39.87 32.89 39.88
  Z"
/>
<path fill="#ffffff" d="
  M 32.93 44.79
  C 35.59 44.79 39.20 45.29 41.57 46.79
  A 0.44 0.44 0.0 0 1 41.60 47.51
  C 40.04 48.71 34.87 52.14 32.93 52.14
  C 31.00 52.14 25.82 48.72 24.26 47.52
  A 0.44 0.44 0.0 0 1 24.29 46.80
  C 26.65 45.30 30.27 44.79 32.93 44.79
  Z"
/>
</svg>
