<?xml version="1.0" encoding="UTF-8" standalone="no"?>
<!DOCTYPE svg PUBLIC "-//W3C//DTD SVG 1.1//EN" "http://www.w3.org/Graphics/SVG/1.1/DTD/svg11.dtd">
<svg xmlns="http://www.w3.org/2000/svg" version="1.1" viewBox="0.00 0.00 66.00 88.00">
<g stroke-width="2.00" fill="none" stroke-linecap="butt">
<path stroke="#b67862" vector-effect="non-scaling-stroke" d="
  M 33.36 86.74
  Q 33.39 86.74 33.42 86.74
  A 0.15 0.03 -43.4 0 0 33.52 86.68
  C 49.84 71.71 73.46 41.98 60.66 18.53
  C 55.30 8.71 44.90 2.49 33.56 2.46
  C 22.23 2.43 11.80 8.60 6.39 18.40
  C -6.52 41.78 16.95 71.63 33.20 86.68
  A 0.15 0.03 43.7 0 0 33.30 86.74
  Q 33.33 86.74 33.36 86.74"
/>
<path stroke="#f8d0c2" vector-effect="non-scaling-stroke" d="
  M 44.00 36.94
  Q 46.74 37.53 50.40 36.03
  A 0.26 0.26 0.0 0 0 50.41 35.55
  L 49.41 35.01
  A 1.69 1.65 79.3 0 1 49.01 34.73
  L 43.90 30.20
  A 0.30 0.30 0.0 0 1 43.96 29.71
  Q 46.94 28.09 48.46 25.21
  A 0.28 0.28 0.0 0 0 48.09 24.82
  Q 46.32 25.64 43.24 24.57
  Q 42.38 24.27 39.80 24.65
  A 0.34 0.34 0.0 0 1 39.44 24.17
  Q 40.92 21.02 40.60 17.84
  A 0.33 0.33 0.0 0 0 40.01 17.66
  Q 38.51 19.53 35.54 20.43
  A 3.02 2.95 13.3 0 0 34.31 21.17
  L 33.20 22.28
  A 0.37 0.37 0.0 0 1 32.57 22.09
  Q 31.90 18.77 29.90 16.49
  A 0.37 0.37 0.0 0 0 29.29 16.58
  C 29.07 17.04 29.20 18.29 28.65 19.22
  Q 26.90 22.19 26.43 24.38
  A 0.33 0.33 0.0 0 1 25.86 24.53
  Q 23.99 22.52 20.24 21.38
  A 0.27 0.27 0.0 0 0 19.95 21.81
  Q 20.87 22.95 20.86 23.90
  Q 20.85 26.38 22.20 29.95
  A 0.33 0.33 0.0 0 1 21.84 30.39
  Q 19.15 29.93 15.77 31.19
  A 0.44 0.44 0.0 0 0 15.60 31.89
  Q 15.63 31.92 16.62 32.32
  C 18.45 33.07 20.25 36.64 21.86 36.80
  A 0.43 0.43 0.0 0 1 22.02 37.61
  Q 19.20 39.07 17.48 42.16
  A 0.30 0.30 0.0 0 0 17.88 42.57
  Q 19.72 41.68 22.83 42.83
  Q 23.69 43.15 26.14 42.70
  A 0.34 0.34 0.0 0 1 26.51 43.18
  Q 25.01 46.31 25.34 49.48
  A 0.34 0.34 0.0 0 0 25.93 49.67
  Q 27.61 47.76 30.75 46.76
  A 1.89 1.89 0.0 0 0 31.50 46.30
  L 32.70 45.10
  A 0.40 0.40 0.0 0 1 33.38 45.30
  Q 34.04 48.53 36.02 50.86
  A 0.17 0.17 0.0 0 0 36.31 50.82
  L 39.59 42.97
  A 0.33 0.33 0.0 0 1 40.13 42.86
  Q 42.39 45.12 45.49 45.90
  A 0.40 0.40 0.0 0 0 45.97 45.41
  C 45.80 44.80 45.09 44.23 45.02 43.04
  Q 44.83 39.40 43.67 37.39
  A 0.31 0.31 0.0 0 1 44.00 36.94"
/>
<path stroke="#f8d0c2" vector-effect="non-scaling-stroke" d="
  M 39.92 33.75
  A 6.95 6.95 0.0 0 0 32.97 26.80
  A 6.95 6.95 0.0 0 0 26.02 33.75
  A 6.95 6.95 0.0 0 0 32.97 40.70
  A 6.95 6.95 0.0 0 0 39.92 33.75"
/>
<path stroke="#f8d0c2" vector-effect="non-scaling-stroke" d="
  M 35.18 37.29
  Q 35.42 36.27 36.76 35.17
  A 0.78 0.77 58.4 0 0 36.97 34.26
  Q 36.30 32.73 36.37 31.63
  A 0.62 0.61 -86.9 0 0 35.78 30.96
  Q 34.47 30.90 33.48 29.57
  A 0.60 0.60 0.0 0 0 32.50 29.59
  Q 31.60 30.95 30.17 30.91
  A 0.60 0.59 -2.9 0 0 29.56 31.58
  Q 29.74 33.01 29.00 34.21
  A 0.68 0.66 -54.6 0 0 29.14 35.09
  Q 30.33 36.08 30.89 37.33
  A 0.59 0.59 0.0 0 0 31.69 37.62
  Q 32.85 37.06 34.39 37.69
  A 0.59 0.58 17.8 0 0 35.18 37.29"
/>
</g>
<path fill="#7c4f40" d="
  M 33.82 88.00
  L 33.03 88.00
  C 22.04 78.01 11.69 65.34 5.65 51.57
  Q 2.13 43.53 1.55 34.89
  C 0.18 14.50 18.64 -1.65 38.88 1.78
  C 48.86 3.47 57.37 9.62 62.02 18.53
  C 74.64 42.72 50.51 72.75 33.82 88.00
  Z
  M 33.36 86.74
  Q 33.39 86.74 33.42 86.74
  A 0.15 0.03 -43.4 0 0 33.52 86.68
  C 49.84 71.71 73.46 41.98 60.66 18.53
  C 55.30 8.71 44.90 2.49 33.56 2.46
  C 22.23 2.43 11.80 8.60 6.39 18.40
  C -6.52 41.78 16.95 71.63 33.20 86.68
  A 0.15 0.03 43.7 0 0 33.30 86.74
  Q 33.33 86.74 33.36 86.74
  Z"
/>
<path fill="#f0a084" d="
  M 33.56 2.46
  C 44.90 2.49 55.30 8.71 60.66 18.53
  C 73.46 41.98 49.84 71.71 33.52 86.68
  A 0.15 0.03 -43.4 0 1 33.42 86.74
  Q 33.39 86.74 33.36 86.74
  Q 33.33 86.74 33.30 86.74
  A 0.15 0.03 43.7 0 1 33.20 86.68
  C 16.95 71.63 -6.52 41.78 6.39 18.40
  C 11.80 8.60 22.23 2.43 33.56 2.46
  Z
  M 44.00 36.94
  Q 46.74 37.53 50.40 36.03
  A 0.26 0.26 0.0 0 0 50.41 35.55
  L 49.41 35.01
  A 1.69 1.65 79.3 0 1 49.01 34.73
  L 43.90 30.20
  A 0.30 0.30 0.0 0 1 43.96 29.71
  Q 46.94 28.09 48.46 25.21
  A 0.28 0.28 0.0 0 0 48.09 24.82
  Q 46.32 25.64 43.24 24.57
  Q 42.38 24.27 39.80 24.65
  A 0.34 0.34 0.0 0 1 39.44 24.17
  Q 40.92 21.02 40.60 17.84
  A 0.33 0.33 0.0 0 0 40.01 17.66
  Q 38.51 19.53 35.54 20.43
  A 3.02 2.95 13.3 0 0 34.31 21.17
  L 33.20 22.28
  A 0.37 0.37 0.0 0 1 32.57 22.09
  Q 31.90 18.77 29.90 16.49
  A 0.37 0.37 0.0 0 0 29.29 16.58
  C 29.07 17.04 29.20 18.29 28.65 19.22
  Q 26.90 22.19 26.43 24.38
  A 0.33 0.33 0.0 0 1 25.86 24.53
  Q 23.99 22.52 20.24 21.38
  A 0.27 0.27 0.0 0 0 19.95 21.81
  Q 20.87 22.95 20.86 23.90
  Q 20.85 26.38 22.20 29.95
  A 0.33 0.33 0.0 0 1 21.84 30.39
  Q 19.15 29.93 15.77 31.19
  A 0.44 0.44 0.0 0 0 15.60 31.89
  Q 15.63 31.92 16.62 32.32
  C 18.45 33.07 20.25 36.64 21.86 36.80
  A 0.43 0.43 0.0 0 1 22.02 37.61
  Q 19.20 39.07 17.48 42.16
  A 0.30 0.30 0.0 0 0 17.88 42.57
  Q 19.72 41.68 22.83 42.83
  Q 23.69 43.15 26.14 42.70
  A 0.34 0.34 0.0 0 1 26.51 43.18
  Q 25.01 46.31 25.34 49.48
  A 0.34 0.34 0.0 0 0 25.93 49.67
  Q 27.61 47.76 30.75 46.76
  A 1.89 1.89 0.0 0 0 31.50 46.30
  L 32.70 45.10
  A 0.40 0.40 0.0 0 1 33.38 45.30
  Q 34.04 48.53 36.02 50.86
  A 0.17 0.17 0.0 0 0 36.31 50.82
  L 39.59 42.97
  A 0.33 0.33 0.0 0 1 40.13 42.86
  Q 42.39 45.12 45.49 45.90
  A 0.40 0.40 0.0 0 0 45.97 45.41
  C 45.80 44.80 45.09 44.23 45.02 43.04
  Q 44.83 39.40 43.67 37.39
  A 0.31 0.31 0.0 0 1 44.00 36.94
  Z"
/>
<path fill="#ffffff" d="
  M 43.67 37.39
  Q 44.83 39.40 45.02 43.04
  C 45.09 44.23 45.80 44.80 45.97 45.41
  A 0.40 0.40 0.0 0 1 45.49 45.90
  Q 42.39 45.12 40.13 42.86
  A 0.33 0.33 0.0 0 0 39.59 42.97
  L 36.31 50.82
  A 0.17 0.17 0.0 0 1 36.02 50.86
  Q 34.04 48.53 33.38 45.30
  A 0.40 0.40 0.0 0 0 32.70 45.10
  L 31.50 46.30
  A 1.89 1.89 0.0 0 1 30.75 46.76
  Q 27.61 47.76 25.93 49.67
  A 0.34 0.34 0.0 0 1 25.34 49.48
  Q 25.01 46.31 26.51 43.18
  A 0.34 0.34 0.0 0 0 26.14 42.70
  Q 23.69 43.15 22.83 42.83
  Q 19.72 41.68 17.88 42.57
  A 0.30 0.30 0.0 0 1 17.48 42.16
  Q 19.20 39.07 22.02 37.61
  A 0.43 0.43 0.0 0 0 21.86 36.80
  C 20.25 36.64 18.45 33.07 16.62 32.32
  Q 15.63 31.92 15.60 31.89
  A 0.44 0.44 0.0 0 1 15.77 31.19
  Q 19.15 29.93 21.84 30.39
  A 0.33 0.33 0.0 0 0 22.20 29.95
  Q 20.85 26.38 20.86 23.90
  Q 20.87 22.95 19.95 21.81
  A 0.27 0.27 0.0 0 1 20.24 21.38
  Q 23.99 22.52 25.86 24.53
  A 0.33 0.33 0.0 0 0 26.43 24.38
  Q 26.90 22.19 28.65 19.22
  C 29.20 18.29 29.07 17.04 29.29 16.58
  A 0.37 0.37 0.0 0 1 29.90 16.49
  Q 31.90 18.77 32.57 22.09
  A 0.37 0.37 0.0 0 0 33.20 22.28
  L 34.31 21.17
  A 3.02 2.95 13.3 0 1 35.54 20.43
  Q 38.51 19.53 40.01 17.66
  A 0.33 0.33 0.0 0 1 40.60 17.84
  Q 40.92 21.02 39.44 24.17
  A 0.34 0.34 0.0 0 0 39.80 24.65
  Q 42.38 24.27 43.24 24.57
  Q 46.32 25.64 48.09 24.82
  A 0.28 0.28 0.0 0 1 48.46 25.21
  Q 46.94 28.09 43.96 29.71
  A 0.30 0.30 0.0 0 0 43.90 30.20
  L 49.01 34.73
  A 1.69 1.65 79.3 0 0 49.41 35.01
  L 50.41 35.55
  A 0.26 0.26 0.0 0 1 50.40 36.03
  Q 46.74 37.53 44.00 36.94
  A 0.31 0.31 0.0 0 0 43.67 37.39
  Z
  M 39.92 33.75
  A 6.95 6.95 0.0 0 0 32.97 26.80
  A 6.95 6.95 0.0 0 0 26.02 33.75
  A 6.95 6.95 0.0 0 0 32.97 40.70
  A 6.95 6.95 0.0 0 0 39.92 33.75
  Z"
/>
<path fill="#f0a084" d="
  M 39.92 33.75
  A 6.95 6.95 0.0 0 1 32.97 40.70
  A 6.95 6.95 0.0 0 1 26.02 33.75
  A 6.95 6.95 0.0 0 1 32.97 26.80
  A 6.95 6.95 0.0 0 1 39.92 33.75
  Z
  M 35.18 37.29
  Q 35.42 36.27 36.76 35.17
  A 0.78 0.77 58.4 0 0 36.97 34.26
  Q 36.30 32.73 36.37 31.63
  A 0.62 0.61 -86.9 0 0 35.78 30.96
  Q 34.47 30.90 33.48 29.57
  A 0.60 0.60 0.0 0 0 32.50 29.59
  Q 31.60 30.95 30.17 30.91
  A 0.60 0.59 -2.9 0 0 29.56 31.58
  Q 29.74 33.01 29.00 34.21
  A 0.68 0.66 -54.6 0 0 29.14 35.09
  Q 30.33 36.08 30.89 37.33
  A 0.59 0.59 0.0 0 0 31.69 37.62
  Q 32.85 37.06 34.39 37.69
  A 0.59 0.58 17.8 0 0 35.18 37.29
  Z"
/>
<path fill="#ffffff" d="
  M 34.39 37.69
  Q 32.85 37.06 31.69 37.62
  A 0.59 0.59 0.0 0 1 30.89 37.33
  Q 30.33 36.08 29.14 35.09
  A 0.68 0.66 -54.6 0 1 29.00 34.21
  Q 29.74 33.01 29.56 31.58
  A 0.60 0.59 -2.9 0 1 30.17 30.91
  Q 31.60 30.95 32.50 29.59
  A 0.60 0.60 0.0 0 1 33.48 29.57
  Q 34.47 30.90 35.78 30.96
  A 0.62 0.61 -86.9 0 1 36.37 31.63
  Q 36.30 32.73 36.97 34.26
  A 0.78 0.77 58.4 0 1 36.76 35.17
  Q 35.42 36.27 35.18 37.29
  A 0.59 0.58 17.8 0 1 34.39 37.69
  Z"
/>
</svg>
