<?xml version="1.0" encoding="UTF-8" standalone="no"?>
<!DOCTYPE svg PUBLIC "-//W3C//DTD SVG 1.1//EN" "http://www.w3.org/Graphics/SVG/1.1/DTD/svg11.dtd">
<svg xmlns="http://www.w3.org/2000/svg" version="1.1" viewBox="0.00 0.00 66.00 88.00">
<g stroke-width="2.00" fill="none" stroke-linecap="butt">
<path stroke="#425a74" vector-effect="non-scaling-stroke" d="
  M 33.40 86.69
  Q 33.54 86.69 33.67 86.66
  A 0.12 0.11 10.8 0 0 33.72 86.63
  C 50.44 71.12 75.35 39.19 59.05 15.96
  Q 50.25 3.41 34.50 2.53
  Q 33.56 2.48 33.54 2.48
  Q 33.51 2.48 32.57 2.53
  Q 16.82 3.35 7.98 15.88
  C -8.40 39.05 16.40 71.06 33.07 86.63
  A 0.12 0.11 -10.6 0 0 33.12 86.66
  Q 33.26 86.69 33.40 86.69"
/>
<path stroke="#acbbcc" vector-effect="non-scaling-stroke" d="
  M 38.81 43.84
  L 39.78 50.72
  A 1.11 1.11 0.0 0 0 41.04 51.67
  L 41.53 51.60
  A 2.07 2.06 -8.1 0 0 43.29 49.27
  L 42.57 44.19
  A 0.24 0.24 0.0 0 1 42.87 43.93
  L 48.81 45.67
  A 1.86 1.85 -71.9 0 0 51.08 44.51
  L 51.22 44.09
  A 1.32 1.32 0.0 0 0 50.34 42.40
  L 46.84 41.38
  A 0.39 0.38 20.9 0 1 46.60 40.86
  Q 49.44 34.70 43.99 31.52
  C 43.72 31.37 42.14 31.18 41.52 31.00
  A 0.75 0.74 -81.0 0 1 40.99 30.26
  C 41.29 22.84 36.69 15.09 28.14 16.78
  C 17.30 18.93 10.69 33.69 17.18 42.70
  C 21.45 48.63 28.32 47.82 33.64 44.07
  A 0.30 0.30 0.0 0 1 34.11 44.35
  Q 33.92 45.84 32.09 48.67
  A 1.90 1.90 0.0 0 0 32.54 51.20
  L 32.59 51.24
  A 1.74 1.73 35.5 0 0 35.08 50.83
  Q 37.12 47.80 38.15 43.81
  A 0.34 0.33 -42.0 0 1 38.81 43.84"
/>
</g>
<path fill="#2a3d50" d="
  M 33.79 88.00
  L 33.13 88.00
  Q 16.68 73.40 6.79 53.99
  Q 2.28 45.13 1.62 35.57
  Q 0.94 25.67 5.39 17.75
  C 12.81 4.55 28.05 -1.59 42.89 2.73
  Q 51.03 5.10 56.88 11.36
  Q 67.85 23.09 64.82 40.03
  C 61.58 58.09 47.25 75.79 33.79 88.00
  Z
  M 33.40 86.69
  Q 33.54 86.69 33.67 86.66
  A 0.12 0.11 10.8 0 0 33.72 86.63
  C 50.44 71.12 75.35 39.19 59.05 15.96
  Q 50.25 3.41 34.50 2.53
  Q 33.56 2.48 33.54 2.48
  Q 33.51 2.48 32.57 2.53
  Q 16.82 3.35 7.98 15.88
  C -8.40 39.05 16.40 71.06 33.07 86.63
  A 0.12 0.11 -10.6 0 0 33.12 86.66
  Q 33.26 86.69 33.40 86.69
  Z"
/>
<path fill="#597698" d="
  M 33.54 2.48
  Q 33.56 2.48 34.50 2.53
  Q 50.25 3.41 59.05 15.96
  C 75.35 39.19 50.44 71.12 33.72 86.63
  A 0.12 0.11 10.8 0 1 33.67 86.66
  Q 33.54 86.69 33.40 86.69
  Q 33.26 86.69 33.12 86.66
  A 0.12 0.11 -10.6 0 1 33.07 86.63
  C 16.40 71.06 -8.40 39.05 7.98 15.88
  Q 16.82 3.35 32.57 2.53
  Q 33.51 2.48 33.54 2.48
  Z
  M 38.81 43.84
  L 39.78 50.72
  A 1.11 1.11 0.0 0 0 41.04 51.67
  L 41.53 51.60
  A 2.07 2.06 -8.1 0 0 43.29 49.27
  L 42.57 44.19
  A 0.24 0.24 0.0 0 1 42.87 43.93
  L 48.81 45.67
  A 1.86 1.85 -71.9 0 0 51.08 44.51
  L 51.22 44.09
  A 1.32 1.32 0.0 0 0 50.34 42.40
  L 46.84 41.38
  A 0.39 0.38 20.9 0 1 46.60 40.86
  Q 49.44 34.70 43.99 31.52
  C 43.72 31.37 42.14 31.18 41.52 31.00
  A 0.75 0.74 -81.0 0 1 40.99 30.26
  C 41.29 22.84 36.69 15.09 28.14 16.78
  C 17.30 18.93 10.69 33.69 17.18 42.70
  C 21.45 48.63 28.32 47.82 33.64 44.07
  A 0.30 0.30 0.0 0 1 34.11 44.35
  Q 33.92 45.84 32.09 48.67
  A 1.90 1.90 0.0 0 0 32.54 51.20
  L 32.59 51.24
  A 1.74 1.73 35.5 0 0 35.08 50.83
  Q 37.12 47.80 38.15 43.81
  A 0.34 0.33 -42.0 0 1 38.81 43.84
  Z"
/>
<path fill="#ffffff" d="
  M 38.81 43.84
  A 0.34 0.33 -42.0 0 0 38.15 43.81
  Q 37.12 47.80 35.08 50.83
  A 1.74 1.73 35.5 0 1 32.59 51.24
  L 32.54 51.20
  A 1.90 1.90 0.0 0 1 32.09 48.67
  Q 33.92 45.84 34.11 44.35
  A 0.30 0.30 0.0 0 0 33.64 44.07
  C 28.32 47.82 21.45 48.63 17.18 42.70
  C 10.69 33.69 17.30 18.93 28.14 16.78
  C 36.69 15.09 41.29 22.84 40.99 30.26
  A 0.75 0.74 -81.0 0 0 41.52 31.00
  C 42.14 31.18 43.72 31.37 43.99 31.52
  Q 49.44 34.70 46.60 40.86
  A 0.39 0.38 20.9 0 0 46.84 41.38
  L 50.34 42.40
  A 1.32 1.32 0.0 0 1 51.22 44.09
  L 51.08 44.51
  A 1.86 1.85 -71.9 0 1 48.81 45.67
  L 42.87 43.93
  A 0.24 0.24 0.0 0 0 42.57 44.19
  L 43.29 49.27
  A 2.07 2.06 -8.1 0 1 41.53 51.60
  L 41.04 51.67
  A 1.11 1.11 0.0 0 1 39.78 50.72
  L 38.81 43.84
  Z"
/>
</svg>
