<?xml version="1.0" encoding="UTF-8" standalone="no"?>
<!DOCTYPE svg PUBLIC "-//W3C//DTD SVG 1.1//EN" "http://www.w3.org/Graphics/SVG/1.1/DTD/svg11.dtd">
<svg xmlns="http://www.w3.org/2000/svg" version="1.1" viewBox="0.00 0.00 66.00 88.00">
<g stroke-width="2.00" fill="none" stroke-linecap="butt">
<path stroke="#b67862" vector-effect="non-scaling-stroke" d="
  M 33.36 86.74
  Q 33.54 86.74 33.65 86.64
  Q 44.23 76.69 52.57 64.79
  C 60.63 53.28 67.81 36.70 62.50 22.57
  C 57.97 10.52 46.54 2.49 33.56 2.46
  C 20.59 2.42 9.12 10.40 4.53 22.43
  C -0.85 36.53 6.25 53.15 14.26 64.70
  Q 22.54 76.64 33.07 86.64
  Q 33.18 86.74 33.36 86.74"
/>
<path stroke="#f8d0c2" vector-effect="non-scaling-stroke" d="
  M 46.15 44.81
  A 0.26 0.26 0.0 0 1 45.79 44.45
  L 46.98 42.40
  A 0.26 0.26 0.0 0 0 46.62 42.05
  L 42.96 44.16
  A 0.26 0.26 0.0 0 1 42.70 44.16
  L 37.45 41.13
  A 0.26 0.26 0.0 0 1 37.35 40.77
  L 41.65 33.35
  A 0.26 0.26 0.0 0 0 41.63 33.05
  L 29.04 17.69
  A 0.26 0.26 0.0 0 0 28.71 17.63
  L 14.96 25.56
  A 0.26 0.26 0.0 0 0 14.92 25.98
  L 26.58 36.93
  A 0.26 0.26 0.0 0 0 26.94 36.92
  L 33.84 30.02
  A 0.26 0.26 0.0 0 1 34.22 30.04
  L 36.97 33.38
  A 0.26 0.26 0.0 0 1 36.99 33.68
  L 32.08 42.17
  A 0.26 0.26 0.0 0 0 32.18 42.53
  L 46.27 50.67
  A 0.26 0.26 0.0 0 0 46.63 50.57
  L 51.38 42.35
  A 0.26 0.26 0.0 0 0 51.02 41.99
  L 46.15 44.81"
/>
<path stroke="#f8d0c2" vector-effect="non-scaling-stroke" d="
  M 26.35 31.49
  A 0.51 0.51 0.0 0 0 27.06 31.48
  L 31.12 27.42
  A 0.81 0.80 -42.2 0 0 31.18 26.34
  L 28.40 22.95
  A 0.72 0.71 55.1 0 0 27.49 22.78
  L 21.34 26.33
  A 0.27 0.26 -38.5 0 0 21.29 26.75
  L 26.35 31.49"
/>
</g>
<path fill="#7c4f40" d="
  M 33.81 88.00
  L 33.03 88.00
  C 22.19 78.20 11.95 65.56 5.75 51.76
  Q 2.13 43.69 1.56 34.97
  C 0.31 15.84 16.22 0.23 35.59 1.40
  C 53.15 2.45 66.53 17.47 65.43 34.91
  C 64.15 55.22 48.19 74.89 33.81 88.00
  Z
  M 33.36 86.74
  Q 33.54 86.74 33.65 86.64
  Q 44.23 76.69 52.57 64.79
  C 60.63 53.28 67.81 36.70 62.50 22.57
  C 57.97 10.52 46.54 2.49 33.56 2.46
  C 20.59 2.42 9.12 10.40 4.53 22.43
  C -0.85 36.53 6.25 53.15 14.26 64.70
  Q 22.54 76.64 33.07 86.64
  Q 33.18 86.74 33.36 86.74
  Z"
/>
<path fill="#f0a084" d="
  M 33.56 2.46
  C 46.54 2.49 57.97 10.52 62.50 22.57
  C 67.81 36.70 60.63 53.28 52.57 64.79
  Q 44.23 76.69 33.65 86.64
  Q 33.54 86.74 33.36 86.74
  Q 33.18 86.74 33.07 86.64
  Q 22.54 76.64 14.26 64.70
  C 6.25 53.15 -0.85 36.53 4.53 22.43
  C 9.12 10.40 20.59 2.42 33.56 2.46
  Z
  M 46.15 44.81
  A 0.26 0.26 0.0 0 1 45.79 44.45
  L 46.98 42.40
  A 0.26 0.26 0.0 0 0 46.62 42.05
  L 42.96 44.16
  A 0.26 0.26 0.0 0 1 42.70 44.16
  L 37.45 41.13
  A 0.26 0.26 0.0 0 1 37.35 40.77
  L 41.65 33.35
  A 0.26 0.26 0.0 0 0 41.63 33.05
  L 29.04 17.69
  A 0.26 0.26 0.0 0 0 28.71 17.63
  L 14.96 25.56
  A 0.26 0.26 0.0 0 0 14.92 25.98
  L 26.58 36.93
  A 0.26 0.26 0.0 0 0 26.94 36.92
  L 33.84 30.02
  A 0.26 0.26 0.0 0 1 34.22 30.04
  L 36.97 33.38
  A 0.26 0.26 0.0 0 1 36.99 33.68
  L 32.08 42.17
  A 0.26 0.26 0.0 0 0 32.18 42.53
  L 46.27 50.67
  A 0.26 0.26 0.0 0 0 46.63 50.57
  L 51.38 42.35
  A 0.26 0.26 0.0 0 0 51.02 41.99
  L 46.15 44.81
  Z"
/>
<path fill="#ffffff" d="
  M 46.15 44.81
  L 51.02 41.99
  A 0.26 0.26 0.0 0 1 51.38 42.35
  L 46.63 50.57
  A 0.26 0.26 0.0 0 1 46.27 50.67
  L 32.18 42.53
  A 0.26 0.26 0.0 0 1 32.08 42.17
  L 36.99 33.68
  A 0.26 0.26 0.0 0 0 36.97 33.38
  L 34.22 30.04
  A 0.26 0.26 0.0 0 0 33.84 30.02
  L 26.94 36.92
  A 0.26 0.26 0.0 0 1 26.58 36.93
  L 14.92 25.98
  A 0.26 0.26 0.0 0 1 14.96 25.56
  L 28.71 17.63
  A 0.26 0.26 0.0 0 1 29.04 17.69
  L 41.63 33.05
  A 0.26 0.26 0.0 0 1 41.65 33.35
  L 37.35 40.77
  A 0.26 0.26 0.0 0 0 37.45 41.13
  L 42.70 44.16
  A 0.26 0.26 0.0 0 0 42.96 44.16
  L 46.62 42.05
  A 0.26 0.26 0.0 0 1 46.98 42.40
  L 45.79 44.45
  A 0.26 0.26 0.0 0 0 46.15 44.81
  Z
  M 26.35 31.49
  A 0.51 0.51 0.0 0 0 27.06 31.48
  L 31.12 27.42
  A 0.81 0.80 -42.2 0 0 31.18 26.34
  L 28.40 22.95
  A 0.72 0.71 55.1 0 0 27.49 22.78
  L 21.34 26.33
  A 0.27 0.26 -38.5 0 0 21.29 26.75
  L 26.35 31.49
  Z"
/>
<path fill="#f0a084" d="
  M 26.35 31.49
  L 21.29 26.75
  A 0.27 0.26 -38.5 0 1 21.34 26.33
  L 27.49 22.78
  A 0.72 0.71 55.1 0 1 28.40 22.95
  L 31.18 26.34
  A 0.81 0.80 -42.2 0 1 31.12 27.42
  L 27.06 31.48
  A 0.51 0.51 0.0 0 1 26.35 31.49
  Z"
/>
</svg>
