<?xml version="1.0" encoding="UTF-8" standalone="no"?>
<!DOCTYPE svg PUBLIC "-//W3C//DTD SVG 1.1//EN" "http://www.w3.org/Graphics/SVG/1.1/DTD/svg11.dtd">
<svg xmlns="http://www.w3.org/2000/svg" version="1.1" viewBox="0.00 0.00 66.00 88.00">
<g stroke-width="2.00" fill="none" stroke-linecap="butt">
<path stroke="#802436" vector-effect="non-scaling-stroke" d="
  M 33.43 86.69
  Q 33.53 86.69 33.63 86.67
  Q 33.69 86.66 33.78 86.57
  C 47.40 73.68 62.83 54.86 64.20 35.39
  C 65.16 21.60 57.43 9.66 44.72 4.63
  Q 39.24 2.47 33.50 2.46
  Q 27.76 2.46 22.28 4.61
  C 9.56 9.62 1.81 21.54 2.75 35.33
  C 4.08 54.81 19.48 73.65 33.07 86.57
  Q 33.16 86.66 33.23 86.67
  Q 33.32 86.69 33.43 86.69"
/>
<path stroke="#d498a4" vector-effect="non-scaling-stroke" d="
  M 51.31 34.04
  A 18.29 18.29 0.0 0 0 33.02 15.75
  A 18.29 18.29 0.0 0 0 14.73 34.04
  A 18.29 18.29 0.0 0 0 33.02 52.33
  A 18.29 18.29 0.0 0 0 51.31 34.04"
/>
<path stroke="#d498a4" vector-effect="non-scaling-stroke" d="
  M 25.69 20.52
  Q 21.78 22.63 19.37 26.60
  A 0.20 0.20 0.0 0 0 19.66 26.87
  Q 23.14 24.46 26.76 22.50
  Q 30.39 20.54 34.30 18.94
  A 0.20 0.20 0.0 0 0 34.23 18.55
  Q 29.60 18.40 25.69 20.52"
/>
<path stroke="#d498a4" vector-effect="non-scaling-stroke" d="
  M 22.27 28.47
  A 0.05 0.04 62.9 0 0 22.32 28.49
  L 42.08 21.65
  A 0.15 0.15 0.0 0 0 42.11 21.38
  L 39.35 19.78
  A 0.39 0.36 -40.8 0 0 39.01 19.77
  L 22.20 28.10
  A 0.11 0.09 -28.0 0 0 22.15 28.23
  L 22.27 28.47"
/>
<path stroke="#d498a4" vector-effect="non-scaling-stroke" d="
  M 26.80 30.09
  Q 38.33 28.20 47.06 28.23
  A 0.35 0.34 73.6 0 0 47.35 27.69
  L 45.15 24.29
  A 0.99 0.99 0.0 0 0 44.00 23.89
  L 26.74 29.87
  A 0.12 0.11 30.3 0 0 26.80 30.09"
/>
<path stroke="#d498a4" vector-effect="non-scaling-stroke" d="
  M 22.16 42.33
  Q 35.65 39.51 48.24 31.97
  A 0.49 0.49 0.0 0 0 47.99 31.06
  L 41.14 31.06
  A 0.75 0.72 -55.6 0 0 40.85 31.12
  Q 30.08 35.78 21.97 41.93
  A 0.23 0.23 0.0 0 0 22.16 42.33"
/>
<path stroke="#d498a4" vector-effect="non-scaling-stroke" d="
  M 31.19 32.11
  L 18.19 34.74
  A 0.81 0.81 0.0 0 0 17.56 35.69
  L 18.44 40.04
  A 0.50 0.50 0.0 0 0 19.20 40.36
  L 31.35 32.49
  A 0.21 0.21 0.0 0 0 31.19 32.11"
/>
<path stroke="#d498a4" vector-effect="non-scaling-stroke" d="
  M 23.64 45.20
  Q 35.35 45.56 46.45 41.35
  A 1.21 1.20 -2.1 0 0 47.19 40.56
  L 48.59 35.88
  A 0.51 0.50 83.9 0 0 47.86 35.29
  Q 36.34 41.85 23.61 44.95
  A 0.13 0.13 0.0 0 0 23.64 45.20"
/>
<path stroke="#d498a4" vector-effect="non-scaling-stroke" d="
  M 35.39 49.37
  Q 39.60 48.70 43.04 45.88
  A 0.20 0.19 -72.5 0 0 42.86 45.54
  Q 38.96 46.61 35.05 47.23
  Q 31.15 47.85 27.11 48.05
  A 0.20 0.19 54.4 0 0 27.05 48.42
  Q 31.18 50.04 35.39 49.37"
/>
</g>
<path fill="#581723" d="
  M 33.79 88.00
  L 33.04 88.00
  C 21.72 77.71 12.19 65.74 5.68 51.55
  C 1.00 41.36 -0.42 28.57 5.06 18.37
  C 12.40 4.72 27.88 -1.72 43.01 2.77
  Q 51.20 5.20 57.05 11.54
  C 69.86 25.40 66.40 43.94 57.38 59.17
  Q 47.83 75.28 33.79 88.00
  Z
  M 33.43 86.69
  Q 33.53 86.69 33.63 86.67
  Q 33.69 86.66 33.78 86.57
  C 47.40 73.68 62.83 54.86 64.20 35.39
  C 65.16 21.60 57.43 9.66 44.72 4.63
  Q 39.24 2.47 33.50 2.46
  Q 27.76 2.46 22.28 4.61
  C 9.56 9.62 1.81 21.54 2.75 35.33
  C 4.08 54.81 19.48 73.65 33.07 86.57
  Q 33.16 86.66 33.23 86.67
  Q 33.32 86.69 33.43 86.69
  Z"
/>
<path fill="#a83148" d="
  M 33.50 2.46
  Q 39.24 2.47 44.72 4.63
  C 57.43 9.66 65.16 21.60 64.20 35.39
  C 62.83 54.86 47.40 73.68 33.78 86.57
  Q 33.69 86.66 33.63 86.67
  Q 33.53 86.69 33.43 86.69
  Q 33.32 86.69 33.23 86.67
  Q 33.16 86.66 33.07 86.57
  C 19.48 73.65 4.08 54.81 2.75 35.33
  C 1.81 21.54 9.56 9.62 22.28 4.61
  Q 27.76 2.46 33.50 2.46
  Z
  M 51.31 34.04
  A 18.29 18.29 0.0 0 0 33.02 15.75
  A 18.29 18.29 0.0 0 0 14.73 34.04
  A 18.29 18.29 0.0 0 0 33.02 52.33
  A 18.29 18.29 0.0 0 0 51.31 34.04
  Z"
/>
<path fill="#ffffff" d="
  M 51.31 34.04
  A 18.29 18.29 0.0 0 1 33.02 52.33
  A 18.29 18.29 0.0 0 1 14.73 34.04
  A 18.29 18.29 0.0 0 1 33.02 15.75
  A 18.29 18.29 0.0 0 1 51.31 34.04
  Z
  M 25.69 20.52
  Q 21.78 22.63 19.37 26.60
  A 0.20 0.20 0.0 0 0 19.66 26.87
  Q 23.14 24.46 26.76 22.50
  Q 30.39 20.54 34.30 18.94
  A 0.20 0.20 0.0 0 0 34.23 18.55
  Q 29.60 18.40 25.69 20.52
  Z
  M 22.27 28.47
  A 0.05 0.04 62.9 0 0 22.32 28.49
  L 42.08 21.65
  A 0.15 0.15 0.0 0 0 42.11 21.38
  L 39.35 19.78
  A 0.39 0.36 -40.8 0 0 39.01 19.77
  L 22.20 28.10
  A 0.11 0.09 -28.0 0 0 22.15 28.23
  L 22.27 28.47
  Z
  M 26.80 30.09
  Q 38.33 28.20 47.06 28.23
  A 0.35 0.34 73.6 0 0 47.35 27.69
  L 45.15 24.29
  A 0.99 0.99 0.0 0 0 44.00 23.89
  L 26.74 29.87
  A 0.12 0.11 30.3 0 0 26.80 30.09
  Z
  M 22.16 42.33
  Q 35.65 39.51 48.24 31.97
  A 0.49 0.49 0.0 0 0 47.99 31.06
  L 41.14 31.06
  A 0.75 0.72 -55.6 0 0 40.85 31.12
  Q 30.08 35.78 21.97 41.93
  A 0.23 0.23 0.0 0 0 22.16 42.33
  Z
  M 31.19 32.11
  L 18.19 34.74
  A 0.81 0.81 0.0 0 0 17.56 35.69
  L 18.44 40.04
  A 0.50 0.50 0.0 0 0 19.20 40.36
  L 31.35 32.49
  A 0.21 0.21 0.0 0 0 31.19 32.11
  Z
  M 23.64 45.20
  Q 35.35 45.56 46.45 41.35
  A 1.21 1.20 -2.1 0 0 47.19 40.56
  L 48.59 35.88
  A 0.51 0.50 83.9 0 0 47.86 35.29
  Q 36.34 41.85 23.61 44.95
  A 0.13 0.13 0.0 0 0 23.64 45.20
  Z
  M 35.39 49.37
  Q 39.60 48.70 43.04 45.88
  A 0.20 0.19 -72.5 0 0 42.86 45.54
  Q 38.96 46.61 35.05 47.23
  Q 31.15 47.85 27.11 48.05
  A 0.20 0.19 54.4 0 0 27.05 48.42
  Q 31.18 50.04 35.39 49.37
  Z"
/>
<path fill="#a83148" d="
  M 26.76 22.50
  Q 23.14 24.46 19.66 26.87
  A 0.20 0.20 0.0 0 1 19.37 26.60
  Q 21.78 22.63 25.69 20.52
  Q 29.60 18.40 34.23 18.55
  A 0.20 0.20 0.0 0 1 34.30 18.94
  Q 30.39 20.54 26.76 22.50
  Z"
/>
<path fill="#a83148" d="
  M 22.20 28.10
  L 39.01 19.77
  A 0.39 0.36 -40.8 0 1 39.35 19.78
  L 42.11 21.38
  A 0.15 0.15 0.0 0 1 42.08 21.65
  L 22.32 28.49
  A 0.05 0.04 62.9 0 1 22.27 28.47
  L 22.15 28.23
  A 0.11 0.09 -28.0 0 1 22.20 28.10
  Z"
/>
<path fill="#a83148" d="
  M 26.80 30.09
  A 0.12 0.11 30.3 0 1 26.74 29.87
  L 44.00 23.89
  A 0.99 0.99 0.0 0 1 45.15 24.29
  L 47.35 27.69
  A 0.35 0.34 73.6 0 1 47.06 28.23
  Q 38.33 28.20 26.80 30.09
  Z"
/>
<path fill="#a83148" d="
  M 21.97 41.93
  Q 30.08 35.78 40.85 31.12
  A 0.75 0.72 -55.6 0 1 41.14 31.06
  L 47.99 31.06
  A 0.49 0.49 0.0 0 1 48.24 31.97
  Q 35.65 39.51 22.16 42.33
  A 0.23 0.23 0.0 0 1 21.97 41.93
  Z"
/>
<path fill="#a83148" d="
  M 31.35 32.49
  L 19.20 40.36
  A 0.50 0.50 0.0 0 1 18.44 40.04
  L 17.56 35.69
  A 0.81 0.81 0.0 0 1 18.19 34.74
  L 31.19 32.11
  A 0.21 0.21 0.0 0 1 31.35 32.49
  Z"
/>
<path fill="#a83148" d="
  M 23.61 44.95
  Q 36.34 41.85 47.86 35.29
  A 0.51 0.50 83.9 0 1 48.59 35.88
  L 47.19 40.56
  A 1.21 1.20 -2.1 0 1 46.45 41.35
  Q 35.35 45.56 23.64 45.20
  A 0.13 0.13 0.0 0 1 23.61 44.95
  Z"
/>
<path fill="#a83148" d="
  M 35.39 49.37
  Q 31.18 50.04 27.05 48.42
  A 0.20 0.19 54.4 0 1 27.11 48.05
  Q 31.15 47.85 35.05 47.23
  Q 38.96 46.61 42.86 45.54
  A 0.20 0.19 -72.5 0 1 43.04 45.88
  Q 39.60 48.70 35.39 49.37
  Z"
/>
</svg>
