<?xml version="1.0" encoding="UTF-8" standalone="no"?>
<!DOCTYPE svg PUBLIC "-//W3C//DTD SVG 1.1//EN" "http://www.w3.org/Graphics/SVG/1.1/DTD/svg11.dtd">
<svg xmlns="http://www.w3.org/2000/svg" version="1.1" viewBox="0.00 0.00 66.00 88.00">
<g stroke-width="2.00" fill="none" stroke-linecap="butt">
<path stroke="#7f5666" vector-effect="non-scaling-stroke" d="
  M 33.39 86.69
  Q 33.53 86.69 33.67 86.66
  A 0.22 0.12 -54.4 0 0 33.73 86.63
  Q 48.76 72.46 57.66 56.42
  C 64.12 44.78 67.61 29.04 59.76 17.01
  Q 50.70 3.12 33.75 2.46
  Q 33.64 2.46 33.53 2.46
  Q 33.43 2.46 33.32 2.46
  Q 16.37 3.06 7.26 16.92
  C -0.63 28.93 2.81 44.68 9.23 56.34
  Q 18.07 72.41 33.06 86.63
  A 0.22 0.12 54.6 0 0 33.11 86.66
  Q 33.25 86.69 33.39 86.69"
/>
<path stroke="#d3b9c3" vector-effect="non-scaling-stroke" d="
  M 47.49 21.42
  A 0.32 0.32 0.0 0 0 47.22 21.26
  L 18.75 21.26
  A 0.32 0.32 0.0 0 0 18.48 21.42
  L 14.95 27.53
  A 0.32 0.32 0.0 0 0 15.22 28.01
  L 50.75 28.01
  A 0.32 0.32 0.0 0 0 51.02 27.53
  L 47.49 21.42"
/>
<path stroke="#d3b9c3" vector-effect="non-scaling-stroke" d="
  M 19.07 46.98
  A 0.37 0.37 0.0 0 0 19.43 47.25
  L 46.58 47.25
  A 0.37 0.37 0.0 0 0 46.94 46.98
  L 51.18 32.23
  A 0.37 0.37 0.0 0 0 50.83 31.76
  L 15.17 31.76
  A 0.37 0.37 0.0 0 0 14.82 32.23
  L 19.07 46.98"
/>
<path stroke="#d3b9c3" vector-effect="non-scaling-stroke" d="
  M 33.01 44.51
  Q 34.54 44.50 34.83 44.49
  A 0.56 0.55 -9.3 0 0 35.34 43.78
  L 34.59 41.19
  A 0.98 0.95 61.4 0 1 34.87 40.20
  L 35.55 39.60
  A 1.47 1.44 -16.5 0 0 36.02 38.76
  C 36.39 36.68 35.31 34.57 32.95 34.58
  C 30.60 34.59 29.54 36.72 29.94 38.80
  A 1.47 1.44 15.9 0 0 30.42 39.63
  L 31.10 40.22
  A 0.98 0.95 -62.1 0 1 31.39 41.21
  L 30.67 43.81
  A 0.56 0.55 8.7 0 0 31.19 44.51
  Q 31.48 44.52 33.01 44.51"
/>
</g>
<path fill="#563944" d="
  M 33.79 88.00
  L 33.12 88.00
  Q 15.43 72.27 5.96 52.53
  Q 3.46 47.30 2.05 39.24
  C 0.12 28.23 3.31 17.63 11.48 9.97
  Q 20.10 1.87 33.01 1.26
  C 36.20 1.11 41.36 2.02 44.49 3.22
  C 57.47 8.18 65.93 19.93 65.44 33.90
  Q 65.17 41.70 62.41 48.85
  C 56.64 63.74 45.55 77.33 33.79 88.00
  Z
  M 33.39 86.69
  Q 33.53 86.69 33.67 86.66
  A 0.22 0.12 -54.4 0 0 33.73 86.63
  Q 48.76 72.46 57.66 56.42
  C 64.12 44.78 67.61 29.04 59.76 17.01
  Q 50.70 3.12 33.75 2.46
  Q 33.64 2.46 33.53 2.46
  Q 33.43 2.46 33.32 2.46
  Q 16.37 3.06 7.26 16.92
  C -0.63 28.93 2.81 44.68 9.23 56.34
  Q 18.07 72.41 33.06 86.63
  A 0.22 0.12 54.6 0 0 33.11 86.66
  Q 33.25 86.69 33.39 86.69
  Z"
/>
<path fill="#a77387" d="
  M 33.53 2.46
  Q 33.64 2.46 33.75 2.46
  Q 50.70 3.12 59.76 17.01
  C 67.61 29.04 64.12 44.78 57.66 56.42
  Q 48.76 72.46 33.73 86.63
  A 0.22 0.12 -54.4 0 1 33.67 86.66
  Q 33.53 86.69 33.39 86.69
  Q 33.25 86.69 33.11 86.66
  A 0.22 0.12 54.6 0 1 33.06 86.63
  Q 18.07 72.41 9.23 56.34
  C 2.81 44.68 -0.63 28.93 7.26 16.92
  Q 16.37 3.06 33.32 2.46
  Q 33.43 2.46 33.53 2.46
  Z
  M 47.49 21.42
  A 0.32 0.32 0.0 0 0 47.22 21.26
  L 18.75 21.26
  A 0.32 0.32 0.0 0 0 18.48 21.42
  L 14.95 27.53
  A 0.32 0.32 0.0 0 0 15.22 28.01
  L 50.75 28.01
  A 0.32 0.32 0.0 0 0 51.02 27.53
  L 47.49 21.42
  Z
  M 19.07 46.98
  A 0.37 0.37 0.0 0 0 19.43 47.25
  L 46.58 47.25
  A 0.37 0.37 0.0 0 0 46.94 46.98
  L 51.18 32.23
  A 0.37 0.37 0.0 0 0 50.83 31.76
  L 15.17 31.76
  A 0.37 0.37 0.0 0 0 14.82 32.23
  L 19.07 46.98
  Z"
/>
<path fill="#ffffff" d="
  M 47.49 21.42
  L 51.02 27.53
  A 0.32 0.32 0.0 0 1 50.75 28.01
  L 15.22 28.01
  A 0.32 0.32 0.0 0 1 14.95 27.53
  L 18.48 21.42
  A 0.32 0.32 0.0 0 1 18.75 21.26
  L 47.22 21.26
  A 0.32 0.32 0.0 0 1 47.49 21.42
  Z"
/>
<path fill="#ffffff" d="
  M 19.07 46.98
  L 14.82 32.23
  A 0.37 0.37 0.0 0 1 15.17 31.76
  L 50.83 31.76
  A 0.37 0.37 0.0 0 1 51.18 32.23
  L 46.94 46.98
  A 0.37 0.37 0.0 0 1 46.58 47.25
  L 19.43 47.25
  A 0.37 0.37 0.0 0 1 19.07 46.98
  Z
  M 33.01 44.51
  Q 34.54 44.50 34.83 44.49
  A 0.56 0.55 -9.3 0 0 35.34 43.78
  L 34.59 41.19
  A 0.98 0.95 61.4 0 1 34.87 40.20
  L 35.55 39.60
  A 1.47 1.44 -16.5 0 0 36.02 38.76
  C 36.39 36.68 35.31 34.57 32.95 34.58
  C 30.60 34.59 29.54 36.72 29.94 38.80
  A 1.47 1.44 15.9 0 0 30.42 39.63
  L 31.10 40.22
  A 0.98 0.95 -62.1 0 1 31.39 41.21
  L 30.67 43.81
  A 0.56 0.55 8.7 0 0 31.19 44.51
  Q 31.48 44.52 33.01 44.51
  Z"
/>
<path fill="#a77387" d="
  M 32.95 34.58
  C 35.31 34.57 36.39 36.68 36.02 38.76
  A 1.47 1.44 -16.5 0 1 35.55 39.60
  L 34.87 40.20
  A 0.98 0.95 61.4 0 0 34.59 41.19
  L 35.34 43.78
  A 0.56 0.55 -9.3 0 1 34.83 44.49
  Q 34.54 44.50 33.01 44.51
  Q 31.48 44.52 31.19 44.51
  A 0.56 0.55 8.7 0 1 30.67 43.81
  L 31.39 41.21
  A 0.98 0.95 -62.1 0 0 31.10 40.22
  L 30.42 39.63
  A 1.47 1.44 15.9 0 1 29.94 38.80
  C 29.54 36.72 30.60 34.59 32.95 34.58
  Z"
/>
</svg>
