<?xml version="1.0" encoding="UTF-8" standalone="no"?>
<!DOCTYPE svg PUBLIC "-//W3C//DTD SVG 1.1//EN" "http://www.w3.org/Graphics/SVG/1.1/DTD/svg11.dtd">
<svg xmlns="http://www.w3.org/2000/svg" version="1.1" viewBox="0.00 0.00 66.00 88.00">
<g stroke-width="2.00" fill="none" stroke-linecap="butt">
<path stroke="#802436" vector-effect="non-scaling-stroke" d="
  M 33.42 86.69
  Q 33.55 86.69 33.63 86.67
  Q 33.68 86.66 33.78 86.56
  C 50.24 71.28 74.37 40.71 59.84 17.15
  C 54.28 8.12 44.21 2.47 33.51 2.46
  C 22.82 2.45 12.74 8.08 7.15 17.09
  C -7.43 40.62 16.64 71.24 33.07 86.56
  Q 33.17 86.66 33.22 86.67
  Q 33.30 86.69 33.42 86.69"
/>
<path stroke="#d498a4" vector-effect="non-scaling-stroke" d="
  M 23.39 16.23
  C 20.70 31.04 29.10 45.48 42.42 52.00
  A 0.52 0.51 -70.9 0 0 43.15 51.64
  L 43.55 49.79
  A 2.40 2.37 40.3 0 0 43.43 48.44
  Q 41.72 44.27 42.11 39.16
  A 3.34 3.30 34.7 0 0 41.79 37.46
  Q 39.99 33.77 39.82 29.83
  A 0.97 0.95 10.6 0 0 39.24 29.00
  Q 36.23 27.70 33.35 24.42
  C 30.08 20.72 27.40 18.22 23.84 16.03
  A 0.30 0.30 0.0 0 0 23.39 16.23"
/>
<path stroke="#d498a4" vector-effect="non-scaling-stroke" d="
  M 30.7096 29.3547
  A 7.21 3.73 -119.5 0 0 31.0136 37.4667
  A 7.21 3.73 -119.5 0 0 37.8104 41.9053
  A 7.21 3.73 -119.5 0 0 37.5064 33.7933
  A 7.21 3.73 -119.5 0 0 30.7096 29.3547"
/>
</g>
<path fill="#581723" d="
  M 33.82 88.00
  L 33.13 88.00
  C 16.32 73.08 -8.30 41.55 5.44 17.69
  C 18.17 -4.44 50.03 -4.20 62.16 18.84
  C 67.42 28.82 65.84 41.30 61.31 51.53
  C 55.17 65.41 44.98 77.80 33.82 88.00
  Z
  M 33.42 86.69
  Q 33.55 86.69 33.63 86.67
  Q 33.68 86.66 33.78 86.56
  C 50.24 71.28 74.37 40.71 59.84 17.15
  C 54.28 8.12 44.21 2.47 33.51 2.46
  C 22.82 2.45 12.74 8.08 7.15 17.09
  C -7.43 40.62 16.64 71.24 33.07 86.56
  Q 33.17 86.66 33.22 86.67
  Q 33.30 86.69 33.42 86.69
  Z"
/>
<path fill="#a83148" d="
  M 33.51 2.46
  C 44.21 2.47 54.28 8.12 59.84 17.15
  C 74.37 40.71 50.24 71.28 33.78 86.56
  Q 33.68 86.66 33.63 86.67
  Q 33.55 86.69 33.42 86.69
  Q 33.30 86.69 33.22 86.67
  Q 33.17 86.66 33.07 86.56
  C 16.64 71.24 -7.43 40.62 7.15 17.09
  C 12.74 8.08 22.82 2.45 33.51 2.46
  Z
  M 23.39 16.23
  C 20.70 31.04 29.10 45.48 42.42 52.00
  A 0.52 0.51 -70.9 0 0 43.15 51.64
  L 43.55 49.79
  A 2.40 2.37 40.3 0 0 43.43 48.44
  Q 41.72 44.27 42.11 39.16
  A 3.34 3.30 34.7 0 0 41.79 37.46
  Q 39.99 33.77 39.82 29.83
  A 0.97 0.95 10.6 0 0 39.24 29.00
  Q 36.23 27.70 33.35 24.42
  C 30.08 20.72 27.40 18.22 23.84 16.03
  A 0.30 0.30 0.0 0 0 23.39 16.23
  Z"
/>
<path fill="#ffffff" d="
  M 23.39 16.23
  A 0.30 0.30 0.0 0 1 23.84 16.03
  C 27.40 18.22 30.08 20.72 33.35 24.42
  Q 36.23 27.70 39.24 29.00
  A 0.97 0.95 10.6 0 1 39.82 29.83
  Q 39.99 33.77 41.79 37.46
  A 3.34 3.30 34.7 0 1 42.11 39.16
  Q 41.72 44.27 43.43 48.44
  A 2.40 2.37 40.3 0 1 43.55 49.79
  L 43.15 51.64
  A 0.52 0.51 -70.9 0 1 42.42 52.00
  C 29.10 45.48 20.70 31.04 23.39 16.23
  Z
  M 30.7096 29.3547
  A 7.21 3.73 -119.5 0 0 31.0136 37.4667
  A 7.21 3.73 -119.5 0 0 37.8104 41.9053
  A 7.21 3.73 -119.5 0 0 37.5064 33.7933
  A 7.21 3.73 -119.5 0 0 30.7096 29.3547
  Z"
/>
<ellipse fill="#a83148" cx="0.00" cy="0.00" transform="translate(34.26,35.63) rotate(-119.5)" rx="7.21" ry="3.73"/>
</svg>
