<?xml version="1.0" encoding="UTF-8" standalone="no"?>
<!DOCTYPE svg PUBLIC "-//W3C//DTD SVG 1.1//EN" "http://www.w3.org/Graphics/SVG/1.1/DTD/svg11.dtd">
<svg xmlns="http://www.w3.org/2000/svg" version="1.1" viewBox="0.00 0.00 66.00 88.00">
<g stroke-width="2.00" fill="none" stroke-linecap="butt">
<path stroke="#802436" vector-effect="non-scaling-stroke" d="
  M 33.42 86.69
  Q 33.52 86.69 33.62 86.67
  Q 33.67 86.66 33.76 86.57
  Q 47.96 73.17 56.60 58.36
  C 60.56 51.56 63.94 42.98 64.18 34.74
  Q 64.34 29.33 63.85 27.23
  Q 59.97 10.77 44.69 4.61
  Q 39.36 2.46 33.51 2.46
  Q 27.67 2.45 22.33 4.59
  Q 7.03 10.71 3.12 27.16
  Q 2.62 29.26 2.77 34.67
  C 2.99 42.91 6.36 51.50 10.30 58.31
  Q 18.91 73.14 33.08 86.57
  Q 33.17 86.66 33.22 86.67
  Q 33.32 86.69 33.42 86.69"
/>
<path stroke="#d498a4" vector-effect="non-scaling-stroke" d="
  M 22.7133 21.3318
  A 0.40 0.40 0.0 0 0 22.6709 20.7677
  L 19.2138 17.7941
  A 0.40 0.40 0.0 0 0 18.6497 17.8365
  L 14.9067 22.1882
  A 0.40 0.40 0.0 0 0 14.9491 22.7523
  L 18.4062 25.7259
  A 0.40 0.40 0.0 0 0 18.9703 25.6835
  L 22.7133 21.3318"
/>
<path stroke="#d498a4" vector-effect="non-scaling-stroke" d="
  M 33.8477 30.4965
  A 0.40 0.40 0.0 0 0 33.7974 29.9331
  L 25.2818 22.8130
  A 0.40 0.40 0.0 0 0 24.7184 22.8633
  L 20.9723 27.3435
  A 0.40 0.40 0.0 0 0 21.0226 27.9069
  L 29.5382 35.0270
  A 0.40 0.40 0.0 0 0 30.1016 34.9767
  L 33.8477 30.4965"
/>
<path stroke="#d498a4" vector-effect="non-scaling-stroke" d="
  M 44.9230 39.9679
  A 0.51 0.51 0.0 0 0 44.8601 39.2494
  L 36.5409 32.2687
  A 0.51 0.51 0.0 0 0 35.8224 32.3316
  L 32.1970 36.6521
  A 0.51 0.51 0.0 0 0 32.2599 37.3706
  L 40.5791 44.3513
  A 0.51 0.51 0.0 0 0 41.2976 44.2884
  L 44.9230 39.9679"
/>
<path stroke="#d498a4" vector-effect="non-scaling-stroke" d="
  M 45.14 43.76
  Q 43.49 45.69 43.38 45.87
  A 0.63 0.63 0.0 0 0 43.49 46.69
  Q 46.46 49.27 46.88 49.45
  A 0.64 0.64 0.0 0 0 47.64 48.49
  Q 46.77 47.30 47.83 46.06
  Q 48.90 44.81 50.20 45.49
  A 0.64 0.64 0.0 0 0 51.03 44.59
  Q 50.79 44.20 47.78 41.67
  A 0.63 0.63 0.0 0 0 46.95 41.68
  Q 46.79 41.83 45.14 43.76"
/>
<path stroke="#d498a4" vector-effect="non-scaling-stroke" d="
  M 26.83 27.35
  A 1.30 1.30 0.0 0 0 25.53 26.05
  A 1.30 1.30 0.0 0 0 24.23 27.35
  A 1.30 1.30 0.0 0 0 25.53 28.65
  A 1.30 1.30 0.0 0 0 26.83 27.35"
/>
<path stroke="#d498a4" vector-effect="non-scaling-stroke" d="
  M 30.51 30.48
  A 1.26 1.26 0.0 0 0 29.25 29.22
  A 1.26 1.26 0.0 0 0 27.99 30.48
  A 1.26 1.26 0.0 0 0 29.25 31.74
  A 1.26 1.26 0.0 0 0 30.51 30.48"
/>
<path stroke="#d498a4" vector-effect="non-scaling-stroke" d="
  M 37.91 36.72
  A 1.24 1.24 0.0 0 0 36.67 35.48
  A 1.24 1.24 0.0 0 0 35.43 36.72
  A 1.24 1.24 0.0 0 0 36.67 37.96
  A 1.24 1.24 0.0 0 0 37.91 36.72"
/>
<path stroke="#d498a4" vector-effect="non-scaling-stroke" d="
  M 41.72 39.85
  A 1.32 1.32 0.0 0 0 40.40 38.53
  A 1.32 1.32 0.0 0 0 39.08 39.85
  A 1.32 1.32 0.0 0 0 40.40 41.17
  A 1.32 1.32 0.0 0 0 41.72 39.85"
/>
</g>
<path fill="#581723" d="
  M 33.81 88.00
  L 33.13 88.00
  Q 15.43 72.27 5.96 52.53
  Q 3.46 47.32 2.05 39.24
  C 0.18 28.62 3.06 18.38 10.74 10.69
  C 26.29 -4.88 52.93 -0.48 62.57 19.67
  C 66.90 28.71 65.96 39.66 62.41 48.85
  C 56.64 63.74 45.55 77.31 33.81 88.00
  Z
  M 33.42 86.69
  Q 33.52 86.69 33.62 86.67
  Q 33.67 86.66 33.76 86.57
  Q 47.96 73.17 56.60 58.36
  C 60.56 51.56 63.94 42.98 64.18 34.74
  Q 64.34 29.33 63.85 27.23
  Q 59.97 10.77 44.69 4.61
  Q 39.36 2.46 33.51 2.46
  Q 27.67 2.45 22.33 4.59
  Q 7.03 10.71 3.12 27.16
  Q 2.62 29.26 2.77 34.67
  C 2.99 42.91 6.36 51.50 10.30 58.31
  Q 18.91 73.14 33.08 86.57
  Q 33.17 86.66 33.22 86.67
  Q 33.32 86.69 33.42 86.69
  Z"
/>
<path fill="#a83148" d="
  M 33.51 2.46
  Q 39.36 2.46 44.69 4.61
  Q 59.97 10.77 63.85 27.23
  Q 64.34 29.33 64.18 34.74
  C 63.94 42.98 60.56 51.56 56.60 58.36
  Q 47.96 73.17 33.76 86.57
  Q 33.67 86.66 33.62 86.67
  Q 33.52 86.69 33.42 86.69
  Q 33.32 86.69 33.22 86.67
  Q 33.17 86.66 33.08 86.57
  Q 18.91 73.14 10.30 58.31
  C 6.36 51.50 2.99 42.91 2.77 34.67
  Q 2.62 29.26 3.12 27.16
  Q 7.03 10.71 22.33 4.59
  Q 27.67 2.45 33.51 2.46
  Z
  M 22.7133 21.3318
  A 0.40 0.40 0.0 0 0 22.6709 20.7677
  L 19.2138 17.7941
  A 0.40 0.40 0.0 0 0 18.6497 17.8365
  L 14.9067 22.1882
  A 0.40 0.40 0.0 0 0 14.9491 22.7523
  L 18.4062 25.7259
  A 0.40 0.40 0.0 0 0 18.9703 25.6835
  L 22.7133 21.3318
  Z
  M 33.8477 30.4965
  A 0.40 0.40 0.0 0 0 33.7974 29.9331
  L 25.2818 22.8130
  A 0.40 0.40 0.0 0 0 24.7184 22.8633
  L 20.9723 27.3435
  A 0.40 0.40 0.0 0 0 21.0226 27.9069
  L 29.5382 35.0270
  A 0.40 0.40 0.0 0 0 30.1016 34.9767
  L 33.8477 30.4965
  Z
  M 44.9230 39.9679
  A 0.51 0.51 0.0 0 0 44.8601 39.2494
  L 36.5409 32.2687
  A 0.51 0.51 0.0 0 0 35.8224 32.3316
  L 32.1970 36.6521
  A 0.51 0.51 0.0 0 0 32.2599 37.3706
  L 40.5791 44.3513
  A 0.51 0.51 0.0 0 0 41.2976 44.2884
  L 44.9230 39.9679
  Z
  M 45.14 43.76
  Q 43.49 45.69 43.38 45.87
  A 0.63 0.63 0.0 0 0 43.49 46.69
  Q 46.46 49.27 46.88 49.45
  A 0.64 0.64 0.0 0 0 47.64 48.49
  Q 46.77 47.30 47.83 46.06
  Q 48.90 44.81 50.20 45.49
  A 0.64 0.64 0.0 0 0 51.03 44.59
  Q 50.79 44.20 47.78 41.67
  A 0.63 0.63 0.0 0 0 46.95 41.68
  Q 46.79 41.83 45.14 43.76
  Z"
/>
<rect fill="#ffffff" x="-2.68" y="-3.27" transform="translate(18.81,21.76) rotate(40.7)" width="5.36" height="6.54" rx="0.40"/>
<path fill="#ffffff" d="
  M 30.1016 34.9767
  A 0.40 0.40 0.0 0 1 29.5382 35.0270
  L 21.0226 27.9069
  A 0.40 0.40 0.0 0 1 20.9723 27.3435
  L 24.7184 22.8633
  A 0.40 0.40 0.0 0 1 25.2818 22.8130
  L 33.7974 29.9331
  A 0.40 0.40 0.0 0 1 33.8477 30.4965
  L 30.1016 34.9767
  Z
  M 26.83 27.35
  A 1.30 1.30 0.0 0 0 25.53 26.05
  A 1.30 1.30 0.0 0 0 24.23 27.35
  A 1.30 1.30 0.0 0 0 25.53 28.65
  A 1.30 1.30 0.0 0 0 26.83 27.35
  Z
  M 30.51 30.48
  A 1.26 1.26 0.0 0 0 29.25 29.22
  A 1.26 1.26 0.0 0 0 27.99 30.48
  A 1.26 1.26 0.0 0 0 29.25 31.74
  A 1.26 1.26 0.0 0 0 30.51 30.48
  Z"
/>
<circle fill="#a83148" cx="25.53" cy="27.35" r="1.30"/>
<circle fill="#a83148" cx="29.25" cy="30.48" r="1.26"/>
<path fill="#ffffff" d="
  M 41.2976 44.2884
  A 0.51 0.51 0.0 0 1 40.5791 44.3513
  L 32.2599 37.3706
  A 0.51 0.51 0.0 0 1 32.1970 36.6521
  L 35.8224 32.3316
  A 0.51 0.51 0.0 0 1 36.5409 32.2687
  L 44.8601 39.2494
  A 0.51 0.51 0.0 0 1 44.9230 39.9679
  L 41.2976 44.2884
  Z
  M 37.91 36.72
  A 1.24 1.24 0.0 0 0 36.67 35.48
  A 1.24 1.24 0.0 0 0 35.43 36.72
  A 1.24 1.24 0.0 0 0 36.67 37.96
  A 1.24 1.24 0.0 0 0 37.91 36.72
  Z
  M 41.72 39.85
  A 1.32 1.32 0.0 0 0 40.40 38.53
  A 1.32 1.32 0.0 0 0 39.08 39.85
  A 1.32 1.32 0.0 0 0 40.40 41.17
  A 1.32 1.32 0.0 0 0 41.72 39.85
  Z"
/>
<circle fill="#a83148" cx="36.67" cy="36.72" r="1.24"/>
<circle fill="#a83148" cx="40.40" cy="39.85" r="1.32"/>
<path fill="#ffffff" d="
  M 47.83 46.06
  Q 46.77 47.30 47.64 48.49
  A 0.64 0.64 0.0 0 1 46.88 49.45
  Q 46.46 49.27 43.49 46.69
  A 0.63 0.63 0.0 0 1 43.38 45.87
  Q 43.49 45.69 45.14 43.76
  Q 46.79 41.83 46.95 41.68
  A 0.63 0.63 0.0 0 1 47.78 41.67
  Q 50.79 44.20 51.03 44.59
  A 0.64 0.64 0.0 0 1 50.20 45.49
  Q 48.90 44.81 47.83 46.06
  Z"
/>
</svg>
