<?xml version="1.0" encoding="UTF-8" standalone="no"?>
<!DOCTYPE svg PUBLIC "-//W3C//DTD SVG 1.1//EN" "http://www.w3.org/Graphics/SVG/1.1/DTD/svg11.dtd">
<svg xmlns="http://www.w3.org/2000/svg" version="1.1" viewBox="0.00 0.00 66.00 88.00">
<g stroke-width="2.00" fill="none" stroke-linecap="butt">
<path stroke="#802436" vector-effect="non-scaling-stroke" d="
  M 33.42 86.69
  Q 33.54 86.69 33.62 86.67
  Q 33.67 86.66 33.78 86.56
  Q 47.43 73.87 56.49 58.49
  C 65.73 42.83 68.93 23.04 53.48 9.79
  C 48.24 5.30 40.98 2.47 33.51 2.46
  C 26.05 2.45 18.78 5.27 13.53 9.75
  C -1.95 22.96 1.21 42.76 10.42 58.44
  Q 19.44 73.84 33.07 86.56
  Q 33.18 86.66 33.22 86.67
  Q 33.30 86.69 33.42 86.69"
/>
<path stroke="#d498a4" vector-effect="non-scaling-stroke" d="
  M 28.52 17.03
  C 29.87 19.54 31.87 19.70 33.85 21.33
  C 38.67 25.33 38.78 31.79 33.64 35.57
  A 3.09 2.89 -68.2 0 1 32.55 36.08
  Q 26.53 37.49 22.16 33.93
  A 2.56 2.49 6.6 0 1 21.59 33.23
  Q 18.75 27.76 22.47 22.54
  Q 24.71 19.40 24.97 19.37
  A 0.08 0.08 0.0 0 0 25.03 19.26
  L 24.91 18.98
  A 0.21 0.21 0.0 0 0 24.61 18.89
  Q 16.51 24.25 20.67 32.42
  A 1.32 1.30 -40.6 0 1 20.56 33.78
  L 20.33 34.10
  A 0.88 0.88 0.0 0 0 20.48 35.29
  Q 24.95 39.01 31.20 38.11
  A 0.53 0.52 -8.4 0 1 31.79 38.54
  Q 31.79 38.60 31.64 39.02
  A 0.90 0.89 28.2 0 0 31.96 40.05
  L 33.79 41.37
  A 0.46 0.46 0.0 0 0 34.46 41.21
  Q 35.66 38.92 34.49 37.76
  A 0.46 0.46 0.0 0 1 34.59 37.03
  Q 37.01 35.68 39.75 30.77
  A 0.81 0.81 0.0 0 0 39.21 29.58
  Q 38.21 29.38 38.41 28.45
  C 39.33 24.11 36.24 19.28 31.97 18.32
  Q 30.38 17.97 28.84 16.76
  A 0.21 0.21 0.0 0 0 28.52 17.03"
/>
<path stroke="#d498a4" vector-effect="non-scaling-stroke" d="
  M 24.88 23.14
  Q 22.52 24.90 22.12 28.17
  A 0.21 0.21 0.0 0 0 22.46 28.35
  Q 24.32 26.60 26.34 25.11
  Q 28.36 23.61 30.57 22.34
  A 0.21 0.21 0.0 0 0 30.50 21.95
  Q 27.25 21.39 24.88 23.14"
/>
<path stroke="#d498a4" vector-effect="non-scaling-stroke" d="
  M 34.53 25.10
  L 33.59 23.18
  A 0.16 0.16 0.0 0 0 33.38 23.10
  L 33.24 23.17
  A 9.07 1.23 -25.9 0 0 25.62 28.24
  A 9.07 1.23 -25.9 0 0 34.32 25.38
  L 34.45 25.32
  A 0.16 0.16 0.0 0 0 34.53 25.10"
/>
<path stroke="#d498a4" vector-effect="non-scaling-stroke" d="
  M 34.70 27.27
  Q 29.20 30.14 23.33 30.59
  A 0.46 0.46 0.0 0 0 22.93 30.93
  L 22.84 31.24
  A 0.79 0.79 0.0 0 0 23.62 32.24
  Q 29.20 32.09 34.50 30.49
  A 1.31 1.30 -0.9 0 0 35.38 29.59
  L 35.78 28.14
  A 0.76 0.75 -6.0 0 0 34.70 27.27"
/>
<path stroke="#d498a4" vector-effect="non-scaling-stroke" d="
  M 29.56 33.47
  Q 27.97 33.74 25.71 33.88
  A 0.31 0.31 0.0 0 0 25.58 34.46
  Q 27.46 35.49 29.83 35.09
  Q 32.20 34.70 33.66 33.12
  A 0.31 0.31 0.0 0 0 33.35 32.61
  Q 31.16 33.21 29.56 33.47"
/>
<path stroke="#d498a4" vector-effect="non-scaling-stroke" d="
  M 22.59 39.35
  Q 23.83 42.70 26.69 44.75
  Q 30.18 47.26 30.19 49.07
  A 0.33 0.33 0.0 0 0 30.83 49.16
  L 31.04 48.40
  A 0.36 0.36 0.0 0 1 31.70 48.31
  L 33.64 51.66
  A 0.42 0.42 0.0 0 0 34.34 51.70
  L 35.22 50.48
  A 0.58 0.58 0.0 0 1 36.03 50.35
  L 36.83 50.92
  A 0.59 0.59 0.0 0 0 37.65 50.78
  L 38.02 50.27
  A 0.62 0.62 0.0 0 1 39.09 50.37
  Q 39.68 51.61 40.20 51.81
  A 0.57 0.57 0.0 0 0 40.97 51.35
  Q 41.26 48.90 43.00 49.39
  A 0.73 0.72 16.4 0 0 43.88 48.92
  Q 44.22 47.91 44.63 46.89
  Q 44.83 46.41 45.16 46.27
  Q 45.46 46.13 45.83 46.17
  A 0.59 0.59 0.0 0 0 46.47 45.57
  Q 46.38 41.45 42.88 39.04
  A 1.20 1.18 15.2 0 1 42.37 38.17
  Q 42.36 38.00 42.35 37.97
  A 0.92 0.91 3.6 0 0 41.65 37.18
  Q 40.58 36.92 39.69 36.20
  A 1.30 1.30 0.0 0 0 37.63 36.87
  L 35.60 44.22
  A 0.42 0.41 26.0 0 1 34.95 44.44
  L 29.53 40.54
  A 2.60 2.54 -25.6 0 0 28.14 40.07
  Q 25.97 40.01 23.06 38.89
  A 0.36 0.36 0.0 0 0 22.59 39.35"
/>
</g>
<path fill="#581723" d="
  M 33.81 88.00
  L 33.04 88.00
  C 21.78 77.77 12.08 65.64 5.65 51.57
  Q 2.21 44.05 1.60 34.90
  C 0.54 18.97 11.20 5.68 26.50 2.10
  C 40.95 -1.27 55.90 5.94 62.58 19.69
  C 66.92 28.65 65.94 39.77 62.41 48.85
  C 56.63 63.75 45.56 77.31 33.81 88.00
  Z
  M 33.42 86.69
  Q 33.54 86.69 33.62 86.67
  Q 33.67 86.66 33.78 86.56
  Q 47.43 73.87 56.49 58.49
  C 65.73 42.83 68.93 23.04 53.48 9.79
  C 48.24 5.30 40.98 2.47 33.51 2.46
  C 26.05 2.45 18.78 5.27 13.53 9.75
  C -1.95 22.96 1.21 42.76 10.42 58.44
  Q 19.44 73.84 33.07 86.56
  Q 33.18 86.66 33.22 86.67
  Q 33.30 86.69 33.42 86.69
  Z"
/>
<path fill="#a83148" d="
  M 33.51 2.46
  C 40.98 2.47 48.24 5.30 53.48 9.79
  C 68.93 23.04 65.73 42.83 56.49 58.49
  Q 47.43 73.87 33.78 86.56
  Q 33.67 86.66 33.62 86.67
  Q 33.54 86.69 33.42 86.69
  Q 33.30 86.69 33.22 86.67
  Q 33.18 86.66 33.07 86.56
  Q 19.44 73.84 10.42 58.44
  C 1.21 42.76 -1.95 22.96 13.53 9.75
  C 18.78 5.27 26.05 2.45 33.51 2.46
  Z
  M 28.52 17.03
  C 29.87 19.54 31.87 19.70 33.85 21.33
  C 38.67 25.33 38.78 31.79 33.64 35.57
  A 3.09 2.89 -68.2 0 1 32.55 36.08
  Q 26.53 37.49 22.16 33.93
  A 2.56 2.49 6.6 0 1 21.59 33.23
  Q 18.75 27.76 22.47 22.54
  Q 24.71 19.40 24.97 19.37
  A 0.08 0.08 0.0 0 0 25.03 19.26
  L 24.91 18.98
  A 0.21 0.21 0.0 0 0 24.61 18.89
  Q 16.51 24.25 20.67 32.42
  A 1.32 1.30 -40.6 0 1 20.56 33.78
  L 20.33 34.10
  A 0.88 0.88 0.0 0 0 20.48 35.29
  Q 24.95 39.01 31.20 38.11
  A 0.53 0.52 -8.4 0 1 31.79 38.54
  Q 31.79 38.60 31.64 39.02
  A 0.90 0.89 28.2 0 0 31.96 40.05
  L 33.79 41.37
  A 0.46 0.46 0.0 0 0 34.46 41.21
  Q 35.66 38.92 34.49 37.76
  A 0.46 0.46 0.0 0 1 34.59 37.03
  Q 37.01 35.68 39.75 30.77
  A 0.81 0.81 0.0 0 0 39.21 29.58
  Q 38.21 29.38 38.41 28.45
  C 39.33 24.11 36.24 19.28 31.97 18.32
  Q 30.38 17.97 28.84 16.76
  A 0.21 0.21 0.0 0 0 28.52 17.03
  Z
  M 24.88 23.14
  Q 22.52 24.90 22.12 28.17
  A 0.21 0.21 0.0 0 0 22.46 28.35
  Q 24.32 26.60 26.34 25.11
  Q 28.36 23.61 30.57 22.34
  A 0.21 0.21 0.0 0 0 30.50 21.95
  Q 27.25 21.39 24.88 23.14
  Z
  M 34.53 25.10
  L 33.59 23.18
  A 0.16 0.16 0.0 0 0 33.38 23.10
  L 33.24 23.17
  A 9.07 1.23 -25.9 0 0 25.62 28.24
  A 9.07 1.23 -25.9 0 0 34.32 25.38
  L 34.45 25.32
  A 0.16 0.16 0.0 0 0 34.53 25.10
  Z
  M 34.70 27.27
  Q 29.20 30.14 23.33 30.59
  A 0.46 0.46 0.0 0 0 22.93 30.93
  L 22.84 31.24
  A 0.79 0.79 0.0 0 0 23.62 32.24
  Q 29.20 32.09 34.50 30.49
  A 1.31 1.30 -0.9 0 0 35.38 29.59
  L 35.78 28.14
  A 0.76 0.75 -6.0 0 0 34.70 27.27
  Z
  M 29.56 33.47
  Q 27.97 33.74 25.71 33.88
  A 0.31 0.31 0.0 0 0 25.58 34.46
  Q 27.46 35.49 29.83 35.09
  Q 32.20 34.70 33.66 33.12
  A 0.31 0.31 0.0 0 0 33.35 32.61
  Q 31.16 33.21 29.56 33.47
  Z
  M 22.59 39.35
  Q 23.83 42.70 26.69 44.75
  Q 30.18 47.26 30.19 49.07
  A 0.33 0.33 0.0 0 0 30.83 49.16
  L 31.04 48.40
  A 0.36 0.36 0.0 0 1 31.70 48.31
  L 33.64 51.66
  A 0.42 0.42 0.0 0 0 34.34 51.70
  L 35.22 50.48
  A 0.58 0.58 0.0 0 1 36.03 50.35
  L 36.83 50.92
  A 0.59 0.59 0.0 0 0 37.65 50.78
  L 38.02 50.27
  A 0.62 0.62 0.0 0 1 39.09 50.37
  Q 39.68 51.61 40.20 51.81
  A 0.57 0.57 0.0 0 0 40.97 51.35
  Q 41.26 48.90 43.00 49.39
  A 0.73 0.72 16.4 0 0 43.88 48.92
  Q 44.22 47.91 44.63 46.89
  Q 44.83 46.41 45.16 46.27
  Q 45.46 46.13 45.83 46.17
  A 0.59 0.59 0.0 0 0 46.47 45.57
  Q 46.38 41.45 42.88 39.04
  A 1.20 1.18 15.2 0 1 42.37 38.17
  Q 42.36 38.00 42.35 37.97
  A 0.92 0.91 3.6 0 0 41.65 37.18
  Q 40.58 36.92 39.69 36.20
  A 1.30 1.30 0.0 0 0 37.63 36.87
  L 35.60 44.22
  A 0.42 0.41 26.0 0 1 34.95 44.44
  L 29.53 40.54
  A 2.60 2.54 -25.6 0 0 28.14 40.07
  Q 25.97 40.01 23.06 38.89
  A 0.36 0.36 0.0 0 0 22.59 39.35
  Z"
/>
<path fill="#ffffff" d="
  M 28.84 16.76
  Q 30.38 17.97 31.97 18.32
  C 36.24 19.28 39.33 24.11 38.41 28.45
  Q 38.21 29.38 39.21 29.58
  A 0.81 0.81 0.0 0 1 39.75 30.77
  Q 37.01 35.68 34.59 37.03
  A 0.46 0.46 0.0 0 0 34.49 37.76
  Q 35.66 38.92 34.46 41.21
  A 0.46 0.46 0.0 0 1 33.79 41.37
  L 31.96 40.05
  A 0.90 0.89 28.2 0 1 31.64 39.02
  Q 31.79 38.60 31.79 38.54
  A 0.53 0.52 -8.4 0 0 31.20 38.11
  Q 24.95 39.01 20.48 35.29
  A 0.88 0.88 0.0 0 1 20.33 34.10
  L 20.56 33.78
  A 1.32 1.30 -40.6 0 0 20.67 32.42
  Q 16.51 24.25 24.61 18.89
  A 0.21 0.21 0.0 0 1 24.91 18.98
  L 25.03 19.26
  A 0.08 0.08 0.0 0 1 24.97 19.37
  Q 24.71 19.40 22.47 22.54
  Q 18.75 27.76 21.59 33.23
  A 2.56 2.49 6.6 0 0 22.16 33.93
  Q 26.53 37.49 32.55 36.08
  A 3.09 2.89 -68.2 0 0 33.64 35.57
  C 38.78 31.79 38.67 25.33 33.85 21.33
  C 31.87 19.70 29.87 19.54 28.52 17.03
  A 0.21 0.21 0.0 0 1 28.84 16.76
  Z"
/>
<path fill="#ffffff" d="
  M 26.34 25.11
  Q 24.32 26.60 22.46 28.35
  A 0.21 0.21 0.0 0 1 22.12 28.17
  Q 22.52 24.90 24.88 23.14
  Q 27.25 21.39 30.50 21.95
  A 0.21 0.21 0.0 0 1 30.57 22.34
  Q 28.36 23.61 26.34 25.11
  Z"
/>
<path fill="#ffffff" d="
  M 34.53 25.10
  A 0.16 0.16 0.0 0 1 34.45 25.32
  L 34.32 25.38
  A 9.07 1.23 -25.9 0 1 25.62 28.24
  A 9.07 1.23 -25.9 0 1 33.24 23.17
  L 33.38 23.10
  A 0.16 0.16 0.0 0 1 33.59 23.18
  L 34.53 25.10
  Z"
/>
<path fill="#ffffff" d="
  M 34.70 27.27
  A 0.76 0.75 -6.0 0 1 35.78 28.14
  L 35.38 29.59
  A 1.31 1.30 -0.9 0 1 34.50 30.49
  Q 29.20 32.09 23.62 32.24
  A 0.79 0.79 0.0 0 1 22.84 31.24
  L 22.93 30.93
  A 0.46 0.46 0.0 0 1 23.33 30.59
  Q 29.20 30.14 34.70 27.27
  Z"
/>
<path fill="#ffffff" d="
  M 29.83 35.09
  Q 27.46 35.49 25.58 34.46
  A 0.31 0.31 0.0 0 1 25.71 33.88
  Q 27.97 33.74 29.56 33.47
  Q 31.16 33.21 33.35 32.61
  A 0.31 0.31 0.0 0 1 33.66 33.12
  Q 32.20 34.70 29.83 35.09
  Z"
/>
<path fill="#ffffff" d="
  M 23.06 38.89
  Q 25.97 40.01 28.14 40.07
  A 2.60 2.54 -25.6 0 1 29.53 40.54
  L 34.95 44.44
  A 0.42 0.41 26.0 0 0 35.60 44.22
  L 37.63 36.87
  A 1.30 1.30 0.0 0 1 39.69 36.20
  Q 40.58 36.92 41.65 37.18
  A 0.92 0.91 3.6 0 1 42.35 37.97
  Q 42.36 38.00 42.37 38.17
  A 1.20 1.18 15.2 0 0 42.88 39.04
  Q 46.38 41.45 46.47 45.57
  A 0.59 0.59 0.0 0 1 45.83 46.17
  Q 45.46 46.13 45.16 46.27
  Q 44.83 46.41 44.63 46.89
  Q 44.22 47.91 43.88 48.92
  A 0.73 0.72 16.4 0 1 43.00 49.39
  Q 41.26 48.90 40.97 51.35
  A 0.57 0.57 0.0 0 1 40.20 51.81
  Q 39.68 51.61 39.09 50.37
  A 0.62 0.62 0.0 0 0 38.02 50.27
  L 37.65 50.78
  A 0.59 0.59 0.0 0 1 36.83 50.92
  L 36.03 50.35
  A 0.58 0.58 0.0 0 0 35.22 50.48
  L 34.34 51.70
  A 0.42 0.42 0.0 0 1 33.64 51.66
  L 31.70 48.31
  A 0.36 0.36 0.0 0 0 31.04 48.40
  L 30.83 49.16
  A 0.33 0.33 0.0 0 1 30.19 49.07
  Q 30.18 47.26 26.69 44.75
  Q 23.83 42.70 22.59 39.35
  A 0.36 0.36 0.0 0 1 23.06 38.89
  Z"
/>
</svg>
