<?xml version="1.0" encoding="UTF-8" standalone="no"?>
<!DOCTYPE svg PUBLIC "-//W3C//DTD SVG 1.1//EN" "http://www.w3.org/Graphics/SVG/1.1/DTD/svg11.dtd">
<svg xmlns="http://www.w3.org/2000/svg" version="1.1" viewBox="0.00 0.00 66.00 88.00">
<g stroke-width="2.00" fill="none" stroke-linecap="butt">
<path stroke="#395b66" vector-effect="non-scaling-stroke" d="
  M 33.40 86.69
  Q 33.54 86.69 33.67 86.65
  A 0.09 0.08 -68.8 0 0 33.72 86.63
  Q 47.29 73.86 55.87 59.53
  C 59.74 53.07 62.93 45.65 63.86 38.49
  Q 64.81 31.13 63.68 26.55
  Q 59.76 10.67 44.49 4.52
  Q 39.43 2.48 33.54 2.47
  Q 27.65 2.46 22.58 4.48
  Q 7.29 10.58 3.32 26.45
  Q 2.17 31.03 3.10 38.39
  C 4.00 45.55 7.17 52.98 11.02 59.46
  Q 19.55 73.81 33.08 86.63
  A 0.09 0.08 69.0 0 0 33.12 86.65
  Q 33.26 86.69 33.40 86.69"
/>
<path stroke="#a6bbc3" vector-effect="non-scaling-stroke" d="
  M 43.71 37.00
  Q 44.55 31.64 42.78 25.72
  C 41.53 21.51 38.21 16.18 33.65 15.79
  Q 30.83 15.54 28.55 17.42
  C 22.66 22.27 21.38 30.59 22.32 38.01
  A 0.15 0.15 0.0 0 0 22.62 38.03
  Q 24.39 30.33 31.47 27.34
  A 0.30 0.30 0.0 0 0 31.36 26.76
  Q 28.05 26.62 25.12 28.67
  A 0.30 0.30 0.0 0 1 24.66 28.35
  C 25.97 23.43 31.95 16.10 37.41 21.68
  C 41.08 25.42 42.37 31.32 43.34 37.00
  A 0.19 0.19 0.0 0 0 43.71 37.00"
/>
<path stroke="#a6bbc3" vector-effect="non-scaling-stroke" d="
  M 35.41 44.05
  Q 36.21 44.54 39.35 44.40
  A 0.35 0.35 0.0 0 1 39.65 44.97
  C 33.49 53.04 26.77 46.38 23.06 40.81
  A 0.11 0.10 -67.8 0 0 22.87 40.89
  Q 24.10 46.81 28.47 50.60
  C 29.86 51.81 33.02 52.64 34.65 52.12
  Q 39.66 50.51 41.97 44.67
  Q 43.31 41.32 43.32 40.56
  A 0.34 0.34 0.0 0 0 42.72 40.33
  Q 40.51 42.86 35.53 43.47
  A 0.31 0.31 0.0 0 0 35.41 44.05"
/>
</g>
<path fill="#243e45" d="
  M 33.80 88.00
  L 33.15 88.00
  Q 15.61 72.48 6.00 52.51
  Q 2.25 44.72 1.63 35.22
  Q 1.01 25.74 5.24 18.03
  C 12.64 4.57 28.05 -1.66 43.07 2.79
  Q 51.20 5.19 56.95 11.44
  C 79.65 36.08 52.26 71.19 33.80 88.00
  Z
  M 33.40 86.69
  Q 33.54 86.69 33.67 86.65
  A 0.09 0.08 -68.8 0 0 33.72 86.63
  Q 47.29 73.86 55.87 59.53
  C 59.74 53.07 62.93 45.65 63.86 38.49
  Q 64.81 31.13 63.68 26.55
  Q 59.76 10.67 44.49 4.52
  Q 39.43 2.48 33.54 2.47
  Q 27.65 2.46 22.58 4.48
  Q 7.29 10.58 3.32 26.45
  Q 2.17 31.03 3.10 38.39
  C 4.00 45.55 7.17 52.98 11.02 59.46
  Q 19.55 73.81 33.08 86.63
  A 0.09 0.08 69.0 0 0 33.12 86.65
  Q 33.26 86.69 33.40 86.69
  Z"
/>
<path fill="#4d7787" d="
  M 33.54 2.47
  Q 39.43 2.48 44.49 4.52
  Q 59.76 10.67 63.68 26.55
  Q 64.81 31.13 63.86 38.49
  C 62.93 45.65 59.74 53.07 55.87 59.53
  Q 47.29 73.86 33.72 86.63
  A 0.09 0.08 -68.8 0 1 33.67 86.65
  Q 33.54 86.69 33.40 86.69
  Q 33.26 86.69 33.12 86.65
  A 0.09 0.08 69.0 0 1 33.08 86.63
  Q 19.55 73.81 11.02 59.46
  C 7.17 52.98 4.00 45.55 3.10 38.39
  Q 2.17 31.03 3.32 26.45
  Q 7.29 10.58 22.58 4.48
  Q 27.65 2.46 33.54 2.47
  Z
  M 43.71 37.00
  Q 44.55 31.64 42.78 25.72
  C 41.53 21.51 38.21 16.18 33.65 15.79
  Q 30.83 15.54 28.55 17.42
  C 22.66 22.27 21.38 30.59 22.32 38.01
  A 0.15 0.15 0.0 0 0 22.62 38.03
  Q 24.39 30.33 31.47 27.34
  A 0.30 0.30 0.0 0 0 31.36 26.76
  Q 28.05 26.62 25.12 28.67
  A 0.30 0.30 0.0 0 1 24.66 28.35
  C 25.97 23.43 31.95 16.10 37.41 21.68
  C 41.08 25.42 42.37 31.32 43.34 37.00
  A 0.19 0.19 0.0 0 0 43.71 37.00
  Z
  M 35.41 44.05
  Q 36.21 44.54 39.35 44.40
  A 0.35 0.35 0.0 0 1 39.65 44.97
  C 33.49 53.04 26.77 46.38 23.06 40.81
  A 0.11 0.10 -67.8 0 0 22.87 40.89
  Q 24.10 46.81 28.47 50.60
  C 29.86 51.81 33.02 52.64 34.65 52.12
  Q 39.66 50.51 41.97 44.67
  Q 43.31 41.32 43.32 40.56
  A 0.34 0.34 0.0 0 0 42.72 40.33
  Q 40.51 42.86 35.53 43.47
  A 0.31 0.31 0.0 0 0 35.41 44.05
  Z"
/>
<path fill="#ffffff" d="
  M 43.34 37.00
  C 42.37 31.32 41.08 25.42 37.41 21.68
  C 31.95 16.10 25.97 23.43 24.66 28.35
  A 0.30 0.30 0.0 0 0 25.12 28.67
  Q 28.05 26.62 31.36 26.76
  A 0.30 0.30 0.0 0 1 31.47 27.34
  Q 24.39 30.33 22.62 38.03
  A 0.15 0.15 0.0 0 1 22.32 38.01
  C 21.38 30.59 22.66 22.27 28.55 17.42
  Q 30.83 15.54 33.65 15.79
  C 38.21 16.18 41.53 21.51 42.78 25.72
  Q 44.55 31.64 43.71 37.00
  A 0.19 0.19 0.0 0 1 43.34 37.00
  Z"
/>
<path fill="#ffffff" d="
  M 35.53 43.47
  Q 40.51 42.86 42.72 40.33
  A 0.34 0.34 0.0 0 1 43.32 40.56
  Q 43.31 41.32 41.97 44.67
  Q 39.66 50.51 34.65 52.12
  C 33.02 52.64 29.86 51.81 28.47 50.60
  Q 24.10 46.81 22.87 40.89
  A 0.11 0.10 -67.8 0 1 23.06 40.81
  C 26.77 46.38 33.49 53.04 39.65 44.97
  A 0.35 0.35 0.0 0 0 39.35 44.40
  Q 36.21 44.54 35.41 44.05
  A 0.31 0.31 0.0 0 1 35.53 43.47
  Z"
/>
</svg>
