<?xml version="1.0" encoding="UTF-8" standalone="no"?>
<!DOCTYPE svg PUBLIC "-//W3C//DTD SVG 1.1//EN" "http://www.w3.org/Graphics/SVG/1.1/DTD/svg11.dtd">
<svg xmlns="http://www.w3.org/2000/svg" version="1.1" viewBox="0.00 0.00 66.00 88.00">
<g stroke-width="2.00" fill="none" stroke-linecap="butt">
<path stroke="#26433a" vector-effect="non-scaling-stroke" d="
  M 33.43 86.61
  C 33.86 86.61 33.63 86.64 33.79 86.50
  Q 48.34 73.12 57.57 56.53
  C 65.48 42.31 67.98 24.70 55.96 12.15
  C 50.00 5.92 42.17 2.57 33.52 2.56
  C 24.88 2.55 17.04 5.89 11.07 12.09
  C -0.98 24.62 1.48 42.23 9.35 56.47
  Q 18.54 73.08 33.06 86.49
  C 33.22 86.64 33.00 86.61 33.43 86.61"
/>
<path stroke="#99a89d" vector-effect="non-scaling-stroke" d="
  M 32.76 49.66
  Q 34.35 49.66 35.70 49.47
  A 1.74 1.73 20.5 0 0 36.60 49.06
  L 38.60 47.34
  A 0.69 0.69 0.0 0 0 38.81 46.63
  L 37.53 42.13
  A 3.72 3.72 0.0 0 1 38.12 38.90
  L 42.85 32.49
  A 1.86 1.85 -41.9 0 0 42.97 30.44
  L 40.34 25.88
  A 0.48 0.44 38.5 0 1 40.29 25.55
  Q 40.48 24.64 41.81 24.78
  A 0.61 0.61 0.0 0 0 42.48 24.09
  L 42.07 21.23
  A 0.45 0.45 0.0 0 0 41.52 20.86
  Q 38.60 21.59 36.78 24.19
  A 0.85 0.84 -18.7 0 1 35.28 23.45
  L 36.51 19.64
  A 0.44 0.43 27.1 0 0 36.34 19.14
  Q 35.48 18.53 34.38 20.15
  A 0.37 0.37 0.0 0 1 33.72 20.02
  Q 33.33 18.37 32.75 18.37
  Q 32.17 18.38 31.78 20.02
  A 0.37 0.37 0.0 0 1 31.12 20.15
  Q 30.02 18.53 29.16 19.14
  A 0.44 0.43 -27.1 0 0 28.99 19.64
  L 30.22 23.45
  A 0.85 0.84 18.6 0 1 28.72 24.19
  Q 26.90 21.59 23.98 20.86
  A 0.45 0.45 0.0 0 0 23.43 21.23
  L 23.02 24.09
  A 0.61 0.61 0.0 0 0 23.69 24.78
  Q 25.02 24.64 25.21 25.55
  A 0.48 0.44 -38.5 0 1 25.16 25.88
  L 22.54 30.44
  A 1.86 1.85 41.8 0 0 22.66 32.49
  L 27.39 38.90
  A 3.72 3.72 0.0 0 1 27.98 42.13
  L 26.70 46.63
  A 0.69 0.69 0.0 0 0 26.91 47.34
  L 28.91 49.06
  A 1.74 1.73 -20.5 0 0 29.82 49.47
  Q 31.17 49.66 32.76 49.66"
/>
<path stroke="#99a89d" vector-effect="non-scaling-stroke" d="
  M 19.39 25.84
  A 0.33 0.33 0.0 0 1 19.18 25.63
  L 18.51 23.59
  A 0.33 0.33 0.0 0 0 17.89 23.59
  L 17.22 25.63
  A 0.33 0.33 0.0 0 1 17.01 25.84
  L 14.97 26.51
  A 0.33 0.33 0.0 0 0 14.97 27.13
  L 17.01 27.80
  A 0.33 0.33 0.0 0 1 17.22 28.01
  L 17.89 30.05
  A 0.33 0.33 0.0 0 0 18.51 30.05
  L 19.18 28.01
  A 0.33 0.33 0.0 0 1 19.39 27.80
  L 21.43 27.13
  A 0.33 0.33 0.0 0 0 21.43 26.51
  L 19.39 25.84"
/>
<path stroke="#99a89d" vector-effect="non-scaling-stroke" d="
  M 47.59 39.09
  A 0.38 0.38 0.0 0 1 47.36 38.86
  L 46.19 35.56
  A 0.38 0.38 0.0 0 0 45.47 35.56
  L 44.31 38.87
  A 0.38 0.38 0.0 0 1 44.08 39.10
  L 40.78 40.27
  A 0.38 0.38 0.0 0 0 40.78 40.99
  L 44.09 42.15
  A 0.38 0.38 0.0 0 1 44.32 42.38
  L 45.49 45.68
  A 0.38 0.38 0.0 0 0 46.21 45.68
  L 47.37 42.37
  A 0.38 0.38 0.0 0 1 47.60 42.14
  L 50.90 40.97
  A 0.38 0.38 0.0 0 0 50.90 40.25
  L 47.59 39.09"
/>
<path stroke="#99a89d" vector-effect="non-scaling-stroke" d="
  M 32.93 39.39
  L 34.40 30.47
  A 2.12 2.12 0.0 0 1 35.01 29.29
  L 35.74 28.57
  A 0.97 0.96 -51.8 0 0 35.56 27.05
  Q 34.32 26.33 33.58 25.15
  A 1.17 1.17 0.0 0 0 31.65 25.08
  L 29.71 27.70
  A 0.70 0.69 -53.5 0 0 29.85 28.67
  Q 30.86 29.44 31.16 30.81
  A 0.03 0.02 31.7 0 0 31.17 30.83
  L 32.40 39.39
  A 0.27 0.27 0.0 0 0 32.93 39.39"
/>
<path stroke="#99a89d" vector-effect="non-scaling-stroke" d="
  M 25.3115 30.2753
  A 2.31 1.39 -137.7 0 0 26.0845 32.8581
  A 2.31 1.39 -137.7 0 0 28.7285 33.3847
  A 2.31 1.39 -137.7 0 0 27.9555 30.8019
  A 2.31 1.39 -137.7 0 0 25.3115 30.2753"
/>
<path stroke="#99a89d" vector-effect="non-scaling-stroke" d="
  M 40.1544 30.3044
  A 2.28 1.37 -42.0 0 0 37.5433 30.8119
  A 2.28 1.37 -42.0 0 0 36.7656 33.3556
  A 2.28 1.37 -42.0 0 0 39.3767 32.8481
  A 2.28 1.37 -42.0 0 0 40.1544 30.3044"
/>
<path stroke="#99a89d" vector-effect="non-scaling-stroke" d="
  M 32.76 47.99
  C 33.33 47.99 34.35 47.36 35.45 46.74
  A 0.39 0.39 0.0 0 0 35.42 46.04
  Q 33.72 45.23 32.89 42.76
  A 0.18 0.12 78.4 0 0 32.76 42.63
  Q 32.74 42.63 32.72 42.63
  Q 32.71 42.63 32.69 42.63
  A 0.18 0.12 -79.3 0 0 32.56 42.76
  Q 31.77 45.24 30.08 46.08
  A 0.39 0.39 0.0 0 0 30.07 46.78
  C 31.17 47.38 32.20 48.00 32.76 47.99"
/>
</g>
<path fill="#192e27" d="
  M 33.78 88.00
  L 33.04 88.00
  C 21.69 77.69 12.11 65.67 5.62 51.40
  Q 2.10 43.68 1.56 34.83
  Q 1.03 26.01 5.08 18.32
  C 11.80 5.56 26.11 -0.89 40.46 2.09
  Q 47.25 3.49 52.84 7.78
  Q 68.49 19.77 64.68 40.86
  Q 63.18 49.19 57.69 58.92
  Q 49.11 74.12 33.78 88.00
  Z
  M 33.43 86.61
  C 33.86 86.61 33.63 86.64 33.79 86.50
  Q 48.34 73.12 57.57 56.53
  C 65.48 42.31 67.98 24.70 55.96 12.15
  C 50.00 5.92 42.17 2.57 33.52 2.56
  C 24.88 2.55 17.04 5.89 11.07 12.09
  C -0.98 24.62 1.48 42.23 9.35 56.47
  Q 18.54 73.08 33.06 86.49
  C 33.22 86.64 33.00 86.61 33.43 86.61
  Z"
/>
<path fill="#32574d" d="
  M 33.52 2.56
  C 42.17 2.57 50.00 5.92 55.96 12.15
  C 67.98 24.70 65.48 42.31 57.57 56.53
  Q 48.34 73.12 33.79 86.50
  C 33.63 86.64 33.86 86.61 33.43 86.61
  C 33.00 86.61 33.22 86.64 33.06 86.49
  Q 18.54 73.08 9.35 56.47
  C 1.48 42.23 -0.98 24.62 11.07 12.09
  C 17.04 5.89 24.88 2.55 33.52 2.56
  Z
  M 32.76 49.66
  Q 34.35 49.66 35.70 49.47
  A 1.74 1.73 20.5 0 0 36.60 49.06
  L 38.60 47.34
  A 0.69 0.69 0.0 0 0 38.81 46.63
  L 37.53 42.13
  A 3.72 3.72 0.0 0 1 38.12 38.90
  L 42.85 32.49
  A 1.86 1.85 -41.9 0 0 42.97 30.44
  L 40.34 25.88
  A 0.48 0.44 38.5 0 1 40.29 25.55
  Q 40.48 24.64 41.81 24.78
  A 0.61 0.61 0.0 0 0 42.48 24.09
  L 42.07 21.23
  A 0.45 0.45 0.0 0 0 41.52 20.86
  Q 38.60 21.59 36.78 24.19
  A 0.85 0.84 -18.7 0 1 35.28 23.45
  L 36.51 19.64
  A 0.44 0.43 27.1 0 0 36.34 19.14
  Q 35.48 18.53 34.38 20.15
  A 0.37 0.37 0.0 0 1 33.72 20.02
  Q 33.33 18.37 32.75 18.37
  Q 32.17 18.38 31.78 20.02
  A 0.37 0.37 0.0 0 1 31.12 20.15
  Q 30.02 18.53 29.16 19.14
  A 0.44 0.43 -27.1 0 0 28.99 19.64
  L 30.22 23.45
  A 0.85 0.84 18.6 0 1 28.72 24.19
  Q 26.90 21.59 23.98 20.86
  A 0.45 0.45 0.0 0 0 23.43 21.23
  L 23.02 24.09
  A 0.61 0.61 0.0 0 0 23.69 24.78
  Q 25.02 24.64 25.21 25.55
  A 0.48 0.44 -38.5 0 1 25.16 25.88
  L 22.54 30.44
  A 1.86 1.85 41.8 0 0 22.66 32.49
  L 27.39 38.90
  A 3.72 3.72 0.0 0 1 27.98 42.13
  L 26.70 46.63
  A 0.69 0.69 0.0 0 0 26.91 47.34
  L 28.91 49.06
  A 1.74 1.73 -20.5 0 0 29.82 49.47
  Q 31.17 49.66 32.76 49.66
  Z
  M 19.39 25.84
  A 0.33 0.33 0.0 0 1 19.18 25.63
  L 18.51 23.59
  A 0.33 0.33 0.0 0 0 17.89 23.59
  L 17.22 25.63
  A 0.33 0.33 0.0 0 1 17.01 25.84
  L 14.97 26.51
  A 0.33 0.33 0.0 0 0 14.97 27.13
  L 17.01 27.80
  A 0.33 0.33 0.0 0 1 17.22 28.01
  L 17.89 30.05
  A 0.33 0.33 0.0 0 0 18.51 30.05
  L 19.18 28.01
  A 0.33 0.33 0.0 0 1 19.39 27.80
  L 21.43 27.13
  A 0.33 0.33 0.0 0 0 21.43 26.51
  L 19.39 25.84
  Z
  M 47.59 39.09
  A 0.38 0.38 0.0 0 1 47.36 38.86
  L 46.19 35.56
  A 0.38 0.38 0.0 0 0 45.47 35.56
  L 44.31 38.87
  A 0.38 0.38 0.0 0 1 44.08 39.10
  L 40.78 40.27
  A 0.38 0.38 0.0 0 0 40.78 40.99
  L 44.09 42.15
  A 0.38 0.38 0.0 0 1 44.32 42.38
  L 45.49 45.68
  A 0.38 0.38 0.0 0 0 46.21 45.68
  L 47.37 42.37
  A 0.38 0.38 0.0 0 1 47.60 42.14
  L 50.90 40.97
  A 0.38 0.38 0.0 0 0 50.90 40.25
  L 47.59 39.09
  Z"
/>
<path fill="#fff8ec" d="
  M 32.76 49.66
  Q 31.17 49.66 29.82 49.47
  A 1.74 1.73 -20.5 0 1 28.91 49.06
  L 26.91 47.34
  A 0.69 0.69 0.0 0 1 26.70 46.63
  L 27.98 42.13
  A 3.72 3.72 0.0 0 0 27.39 38.90
  L 22.66 32.49
  A 1.86 1.85 41.8 0 1 22.54 30.44
  L 25.16 25.88
  A 0.48 0.44 -38.5 0 0 25.21 25.55
  Q 25.02 24.64 23.69 24.78
  A 0.61 0.61 0.0 0 1 23.02 24.09
  L 23.43 21.23
  A 0.45 0.45 0.0 0 1 23.98 20.86
  Q 26.90 21.59 28.72 24.19
  A 0.85 0.84 18.6 0 0 30.22 23.45
  L 28.99 19.64
  A 0.44 0.43 -27.1 0 1 29.16 19.14
  Q 30.02 18.53 31.12 20.15
  A 0.37 0.37 0.0 0 0 31.78 20.02
  Q 32.17 18.38 32.75 18.37
  Q 33.33 18.37 33.72 20.02
  A 0.37 0.37 0.0 0 0 34.38 20.15
  Q 35.48 18.53 36.34 19.14
  A 0.44 0.43 27.1 0 1 36.51 19.64
  L 35.28 23.45
  A 0.85 0.84 -18.7 0 0 36.78 24.19
  Q 38.60 21.59 41.52 20.86
  A 0.45 0.45 0.0 0 1 42.07 21.23
  L 42.48 24.09
  A 0.61 0.61 0.0 0 1 41.81 24.78
  Q 40.48 24.64 40.29 25.55
  A 0.48 0.44 38.5 0 0 40.34 25.88
  L 42.97 30.44
  A 1.86 1.85 -41.9 0 1 42.85 32.49
  L 38.12 38.90
  A 3.72 3.72 0.0 0 0 37.53 42.13
  L 38.81 46.63
  A 0.69 0.69 0.0 0 1 38.60 47.34
  L 36.60 49.06
  A 1.74 1.73 20.5 0 1 35.70 49.47
  Q 34.35 49.66 32.76 49.66
  Z
  M 32.93 39.39
  L 34.40 30.47
  A 2.12 2.12 0.0 0 1 35.01 29.29
  L 35.74 28.57
  A 0.97 0.96 -51.8 0 0 35.56 27.05
  Q 34.32 26.33 33.58 25.15
  A 1.17 1.17 0.0 0 0 31.65 25.08
  L 29.71 27.70
  A 0.70 0.69 -53.5 0 0 29.85 28.67
  Q 30.86 29.44 31.16 30.81
  A 0.03 0.02 31.7 0 0 31.17 30.83
  L 32.40 39.39
  A 0.27 0.27 0.0 0 0 32.93 39.39
  Z
  M 25.3115 30.2753
  A 2.31 1.39 -137.7 0 0 26.0845 32.8581
  A 2.31 1.39 -137.7 0 0 28.7285 33.3847
  A 2.31 1.39 -137.7 0 0 27.9555 30.8019
  A 2.31 1.39 -137.7 0 0 25.3115 30.2753
  Z
  M 40.1544 30.3044
  A 2.28 1.37 -42.0 0 0 37.5433 30.8119
  A 2.28 1.37 -42.0 0 0 36.7656 33.3556
  A 2.28 1.37 -42.0 0 0 39.3767 32.8481
  A 2.28 1.37 -42.0 0 0 40.1544 30.3044
  Z
  M 32.76 47.99
  C 33.33 47.99 34.35 47.36 35.45 46.74
  A 0.39 0.39 0.0 0 0 35.42 46.04
  Q 33.72 45.23 32.89 42.76
  A 0.18 0.12 78.4 0 0 32.76 42.63
  Q 32.74 42.63 32.72 42.63
  Q 32.71 42.63 32.69 42.63
  A 0.18 0.12 -79.3 0 0 32.56 42.76
  Q 31.77 45.24 30.08 46.08
  A 0.39 0.39 0.0 0 0 30.07 46.78
  C 31.17 47.38 32.20 48.00 32.76 47.99
  Z"
/>
<path fill="#fff8ec" d="
  M 19.39 25.84
  L 21.43 26.51
  A 0.33 0.33 0.0 0 1 21.43 27.13
  L 19.39 27.80
  A 0.33 0.33 0.0 0 0 19.18 28.01
  L 18.51 30.05
  A 0.33 0.33 0.0 0 1 17.89 30.05
  L 17.22 28.01
  A 0.33 0.33 0.0 0 0 17.01 27.80
  L 14.97 27.13
  A 0.33 0.33 0.0 0 1 14.97 26.51
  L 17.01 25.84
  A 0.33 0.33 0.0 0 0 17.22 25.63
  L 17.89 23.59
  A 0.33 0.33 0.0 0 1 18.51 23.59
  L 19.18 25.63
  A 0.33 0.33 0.0 0 0 19.39 25.84
  Z"
/>
<path fill="#32574d" d="
  M 32.40 39.39
  L 31.17 30.83
  A 0.03 0.02 31.7 0 1 31.16 30.81
  Q 30.86 29.44 29.85 28.67
  A 0.70 0.69 -53.5 0 1 29.71 27.70
  L 31.65 25.08
  A 1.17 1.17 0.0 0 1 33.58 25.15
  Q 34.32 26.33 35.56 27.05
  A 0.97 0.96 -51.8 0 1 35.74 28.57
  L 35.01 29.29
  A 2.12 2.12 0.0 0 0 34.40 30.47
  L 32.93 39.39
  A 0.27 0.27 0.0 0 1 32.40 39.39
  Z"
/>
<ellipse fill="#32574d" cx="0.00" cy="0.00" transform="translate(27.02,31.83) rotate(-137.7)" rx="2.31" ry="1.39"/>
<ellipse fill="#32574d" cx="0.00" cy="0.00" transform="translate(38.46,31.83) rotate(-42.0)" rx="2.28" ry="1.37"/>
<path fill="#fff8ec" d="
  M 47.59 39.09
  L 50.90 40.25
  A 0.38 0.38 0.0 0 1 50.90 40.97
  L 47.60 42.14
  A 0.38 0.38 0.0 0 0 47.37 42.37
  L 46.21 45.68
  A 0.38 0.38 0.0 0 1 45.49 45.68
  L 44.32 42.38
  A 0.38 0.38 0.0 0 0 44.09 42.15
  L 40.78 40.99
  A 0.38 0.38 0.0 0 1 40.78 40.27
  L 44.08 39.10
  A 0.38 0.38 0.0 0 0 44.31 38.87
  L 45.47 35.56
  A 0.38 0.38 0.0 0 1 46.19 35.56
  L 47.36 38.86
  A 0.38 0.38 0.0 0 0 47.59 39.09
  Z"
/>
<path fill="#32574d" d="
  M 32.72 42.63
  Q 32.74 42.63 32.76 42.63
  A 0.18 0.12 78.4 0 1 32.89 42.76
  Q 33.72 45.23 35.42 46.04
  A 0.39 0.39 0.0 0 1 35.45 46.74
  C 34.35 47.36 33.33 47.99 32.76 47.99
  C 32.20 48.00 31.17 47.38 30.07 46.78
  A 0.39 0.39 0.0 0 1 30.08 46.08
  Q 31.77 45.24 32.56 42.76
  A 0.18 0.12 -79.3 0 1 32.69 42.63
  Q 32.71 42.63 32.72 42.63
  Z"
/>
</svg>
