<?xml version="1.0" encoding="UTF-8" standalone="no"?>
<!DOCTYPE svg PUBLIC "-//W3C//DTD SVG 1.1//EN" "http://www.w3.org/Graphics/SVG/1.1/DTD/svg11.dtd">
<svg xmlns="http://www.w3.org/2000/svg" version="1.1" viewBox="0.00 0.00 66.00 88.00">
<g stroke-width="2.00" fill="none" stroke-linecap="butt">
<path stroke="#5a6c6e" vector-effect="non-scaling-stroke" d="
  M 33.40 86.66
  Q 33.48 86.66 33.56 86.65
  Q 33.65 86.63 33.70 86.59
  Q 45.43 75.56 53.83 62.86
  C 65.55 45.12 70.80 22.27 50.95 7.90
  Q 43.48 2.49 33.54 2.47
  Q 23.60 2.45 16.11 7.84
  C -3.79 22.15 1.38 45.01 13.04 62.79
  Q 21.40 75.52 33.09 86.59
  Q 33.14 86.63 33.23 86.65
  Q 33.32 86.66 33.40 86.66"
/>
<path stroke="#bcc3bf" vector-effect="non-scaling-stroke" d="
  M 47.35 35.93
  L 41.82 40.34
  A 2.04 1.97 -6.5 0 0 41.31 40.96
  L 38.47 46.23
  A 0.35 0.34 -75.6 0 0 38.76 46.74
  L 41.86 46.74
  A 1.37 1.35 -67.2 0 0 42.82 46.34
  L 48.29 40.87
  A 4.68 4.62 -10.9 0 0 49.21 39.53
  L 51.12 35.21
  A 0.69 0.68 32.3 0 0 50.94 34.42
  L 43.96 28.39
  A 1.54 1.51 -23.9 0 0 42.95 28.01
  L 38.11 28.01
  A 0.91 0.88 -23.7 0 1 37.52 27.79
  L 31.22 22.34
  A 0.87 0.87 0.0 0 0 30.26 22.22
  Q 25.51 24.64 20.21 24.66
  A 1.08 1.07 17.1 0 0 19.32 25.13
  L 14.92 31.37
  A 1.12 1.10 -32.4 0 0 14.73 32.18
  L 16.33 43.14
  A 1.13 1.12 7.7 0 0 17.00 44.01
  L 22.86 46.49
  A 3.44 3.42 56.1 0 0 24.17 46.75
  L 33.37 46.75
  A 0.56 0.55 -75.0 0 0 33.85 46.47
  L 38.07 39.17
  A 0.89 0.86 4.4 0 1 38.54 38.78
  L 47.23 35.70
  A 0.13 0.13 0.0 0 1 47.35 35.93"
/>
<path stroke="#bcc3bf" vector-effect="non-scaling-stroke" d="
  M 40.33 29.63
  L 36.76 30.15
  A 1.11 1.09 -29.9 0 1 35.92 29.93
  L 31.50 26.56
  A 0.33 0.33 0.0 0 0 30.99 26.92
  Q 31.04 27.10 32.56 31.04
  A 0.74 0.73 64.9 0 1 32.24 31.94
  L 28.38 34.17
  A 0.86 0.86 0.0 0 0 27.96 35.03
  L 29.05 42.47
  A 0.14 0.14 0.0 0 0 29.33 42.49
  L 30.77 37.15
  A 3.32 3.30 82.8 0 1 32.31 35.15
  L 40.58 30.37
  A 0.40 0.40 0.0 0 0 40.33 29.63"
/>
<path stroke="#bcc3bf" vector-effect="non-scaling-stroke" d="
  M 22.59 43.95
  L 20.72 36.36
  A 5.43 5.41 45.7 0 1 20.75 33.63
  L 22.18 28.30
  A 0.10 0.09 73.8 0 0 22.02 28.21
  L 17.21 33.77
  A 0.86 0.85 -39.9 0 0 17.12 34.75
  L 22.46 44.00
  A 0.07 0.07 0.0 0 0 22.59 43.95"
/>
</g>
<path fill="#3b4a4a" d="
  M 33.79 88.00
  L 33.04 88.00
  C 21.92 77.91 11.80 65.38 5.58 51.42
  Q 2.17 43.78 1.59 34.82
  C 0.31 15.17 17.18 -0.25 36.40 1.45
  C 45.19 2.23 53.73 6.76 59.03 13.85
  Q 67.46 25.13 64.92 39.27
  Q 62.56 52.42 54.50 64.23
  Q 45.61 77.27 33.79 88.00
  Z
  M 33.40 86.66
  Q 33.48 86.66 33.56 86.65
  Q 33.65 86.63 33.70 86.59
  Q 45.43 75.56 53.83 62.86
  C 65.55 45.12 70.80 22.27 50.95 7.90
  Q 43.48 2.49 33.54 2.47
  Q 23.60 2.45 16.11 7.84
  C -3.79 22.15 1.38 45.01 13.04 62.79
  Q 21.40 75.52 33.09 86.59
  Q 33.14 86.63 33.23 86.65
  Q 33.32 86.66 33.40 86.66
  Z"
/>
<path fill="#798e91" d="
  M 33.54 2.47
  Q 43.48 2.49 50.95 7.90
  C 70.80 22.27 65.55 45.12 53.83 62.86
  Q 45.43 75.56 33.70 86.59
  Q 33.65 86.63 33.56 86.65
  Q 33.48 86.66 33.40 86.66
  Q 33.32 86.66 33.23 86.65
  Q 33.14 86.63 33.09 86.59
  Q 21.40 75.52 13.04 62.79
  C 1.38 45.01 -3.79 22.15 16.11 7.84
  Q 23.60 2.45 33.54 2.47
  Z
  M 47.35 35.93
  L 41.82 40.34
  A 2.04 1.97 -6.5 0 0 41.31 40.96
  L 38.47 46.23
  A 0.35 0.34 -75.6 0 0 38.76 46.74
  L 41.86 46.74
  A 1.37 1.35 -67.2 0 0 42.82 46.34
  L 48.29 40.87
  A 4.68 4.62 -10.9 0 0 49.21 39.53
  L 51.12 35.21
  A 0.69 0.68 32.3 0 0 50.94 34.42
  L 43.96 28.39
  A 1.54 1.51 -23.9 0 0 42.95 28.01
  L 38.11 28.01
  A 0.91 0.88 -23.7 0 1 37.52 27.79
  L 31.22 22.34
  A 0.87 0.87 0.0 0 0 30.26 22.22
  Q 25.51 24.64 20.21 24.66
  A 1.08 1.07 17.1 0 0 19.32 25.13
  L 14.92 31.37
  A 1.12 1.10 -32.4 0 0 14.73 32.18
  L 16.33 43.14
  A 1.13 1.12 7.7 0 0 17.00 44.01
  L 22.86 46.49
  A 3.44 3.42 56.1 0 0 24.17 46.75
  L 33.37 46.75
  A 0.56 0.55 -75.0 0 0 33.85 46.47
  L 38.07 39.17
  A 0.89 0.86 4.4 0 1 38.54 38.78
  L 47.23 35.70
  A 0.13 0.13 0.0 0 1 47.35 35.93
  Z"
/>
<path fill="#fff8ec" d="
  M 47.23 35.70
  L 38.54 38.78
  A 0.89 0.86 4.4 0 0 38.07 39.17
  L 33.85 46.47
  A 0.56 0.55 -75.0 0 1 33.37 46.75
  L 24.17 46.75
  A 3.44 3.42 56.1 0 1 22.86 46.49
  L 17.00 44.01
  A 1.13 1.12 7.7 0 1 16.33 43.14
  L 14.73 32.18
  A 1.12 1.10 -32.4 0 1 14.92 31.37
  L 19.32 25.13
  A 1.08 1.07 17.1 0 1 20.21 24.66
  Q 25.51 24.64 30.26 22.22
  A 0.87 0.87 0.0 0 1 31.22 22.34
  L 37.52 27.79
  A 0.91 0.88 -23.7 0 0 38.11 28.01
  L 42.95 28.01
  A 1.54 1.51 -23.9 0 1 43.96 28.39
  L 50.94 34.42
  A 0.69 0.68 32.3 0 1 51.12 35.21
  L 49.21 39.53
  A 4.68 4.62 -10.9 0 1 48.29 40.87
  L 42.82 46.34
  A 1.37 1.35 -67.2 0 1 41.86 46.74
  L 38.76 46.74
  A 0.35 0.34 -75.6 0 1 38.47 46.23
  L 41.31 40.96
  A 2.04 1.97 -6.5 0 1 41.82 40.34
  L 47.35 35.93
  A 0.13 0.13 0.0 0 0 47.23 35.70
  Z
  M 40.33 29.63
  L 36.76 30.15
  A 1.11 1.09 -29.9 0 1 35.92 29.93
  L 31.50 26.56
  A 0.33 0.33 0.0 0 0 30.99 26.92
  Q 31.04 27.10 32.56 31.04
  A 0.74 0.73 64.9 0 1 32.24 31.94
  L 28.38 34.17
  A 0.86 0.86 0.0 0 0 27.96 35.03
  L 29.05 42.47
  A 0.14 0.14 0.0 0 0 29.33 42.49
  L 30.77 37.15
  A 3.32 3.30 82.8 0 1 32.31 35.15
  L 40.58 30.37
  A 0.40 0.40 0.0 0 0 40.33 29.63
  Z
  M 22.59 43.95
  L 20.72 36.36
  A 5.43 5.41 45.7 0 1 20.75 33.63
  L 22.18 28.30
  A 0.10 0.09 73.8 0 0 22.02 28.21
  L 17.21 33.77
  A 0.86 0.85 -39.9 0 0 17.12 34.75
  L 22.46 44.00
  A 0.07 0.07 0.0 0 0 22.59 43.95
  Z"
/>
<path fill="#798e91" d="
  M 40.58 30.37
  L 32.31 35.15
  A 3.32 3.30 82.8 0 0 30.77 37.15
  L 29.33 42.49
  A 0.14 0.14 0.0 0 1 29.05 42.47
  L 27.96 35.03
  A 0.86 0.86 0.0 0 1 28.38 34.17
  L 32.24 31.94
  A 0.74 0.73 64.9 0 0 32.56 31.04
  Q 31.04 27.10 30.99 26.92
  A 0.33 0.33 0.0 0 1 31.50 26.56
  L 35.92 29.93
  A 1.11 1.09 -29.9 0 0 36.76 30.15
  L 40.33 29.63
  A 0.40 0.40 0.0 0 1 40.58 30.37
  Z"
/>
<path fill="#798e91" d="
  M 22.46 44.00
  L 17.12 34.75
  A 0.86 0.85 -39.9 0 1 17.21 33.77
  L 22.02 28.21
  A 0.10 0.09 73.8 0 1 22.18 28.30
  L 20.75 33.63
  A 5.43 5.41 45.7 0 0 20.72 36.36
  L 22.59 43.95
  A 0.07 0.07 0.0 0 1 22.46 44.00
  Z"
/>
</svg>
