<?xml version="1.0" encoding="UTF-8" standalone="no"?>
<!DOCTYPE svg PUBLIC "-//W3C//DTD SVG 1.1//EN" "http://www.w3.org/Graphics/SVG/1.1/DTD/svg11.dtd">
<svg xmlns="http://www.w3.org/2000/svg" version="1.1" viewBox="0.00 0.00 66.00 88.00">
<g stroke-width="2.00" fill="none" stroke-linecap="butt">
<path stroke="#21303f" vector-effect="non-scaling-stroke" d="
  M 33.40 86.59
  C 33.96 86.59 33.59 86.62 33.79 86.44
  C 47.03 74.26 61.41 56.12 63.86 38.22
  Q 66.32 20.24 52.53 9.05
  Q 48.72 5.96 44.28 4.47
  C 40.74 3.28 36.92 2.49 33.51 2.48
  C 30.11 2.48 26.29 3.26 22.74 4.44
  Q 18.30 5.92 14.48 9.00
  Q 0.66 20.15 3.08 38.14
  C 5.48 56.05 19.81 74.22 33.02 86.44
  C 33.21 86.62 32.85 86.59 33.40 86.59"
/>
<path stroke="#969c9f" vector-effect="non-scaling-stroke" d="
  M 33.24 32.08
  C 37.84 32.08 39.83 35.72 39.80 39.94
  Q 39.77 45.52 39.84 51.48
  A 0.74 0.74 0.0 0 0 40.58 52.21
  L 49.23 52.21
  A 0.78 0.78 0.0 0 0 50.01 51.44
  Q 50.07 41.93 49.98 33.51
  C 49.88 23.63 43.11 15.76 33.21 15.77
  C 23.30 15.79 16.56 23.69 16.50 33.57
  Q 16.44 41.99 16.53 51.50
  A 0.78 0.78 0.0 0 0 17.31 52.27
  L 25.96 52.24
  A 0.74 0.74 0.0 0 0 26.70 51.50
  Q 26.75 45.54 26.70 39.96
  C 26.65 35.74 28.63 32.09 33.24 32.08"
/>
</g>
<path fill="#16212b" d="
  M 33.80 88.00
  L 33.04 88.00
  C 21.76 77.75 12.11 65.67 5.65 51.56
  Q 2.21 44.05 1.60 34.89
  C 0.54 18.90 11.36 5.47 26.73 2.07
  C 46.20 -2.24 66.28 12.77 65.46 33.76
  Q 65.19 40.71 63.05 47.02
  C 57.79 62.54 45.81 77.08 33.80 88.00
  Z
  M 33.40 86.59
  C 33.96 86.59 33.59 86.62 33.79 86.44
  C 47.03 74.26 61.41 56.12 63.86 38.22
  Q 66.32 20.24 52.53 9.05
  Q 48.72 5.96 44.28 4.47
  C 40.74 3.28 36.92 2.49 33.51 2.48
  C 30.11 2.48 26.29 3.26 22.74 4.44
  Q 18.30 5.92 14.48 9.00
  Q 0.66 20.15 3.08 38.14
  C 5.48 56.05 19.81 74.22 33.02 86.44
  C 33.21 86.62 32.85 86.59 33.40 86.59
  Z"
/>
<path fill="#2c3f52" d="
  M 33.51 2.48
  C 36.92 2.49 40.74 3.28 44.28 4.47
  Q 48.72 5.96 52.53 9.05
  Q 66.32 20.24 63.86 38.22
  C 61.41 56.12 47.03 74.26 33.79 86.44
  C 33.59 86.62 33.96 86.59 33.40 86.59
  C 32.85 86.59 33.21 86.62 33.02 86.44
  C 19.81 74.22 5.48 56.05 3.08 38.14
  Q 0.66 20.15 14.48 9.00
  Q 18.30 5.92 22.74 4.44
  C 26.29 3.26 30.11 2.48 33.51 2.48
  Z
  M 33.24 32.08
  C 37.84 32.08 39.83 35.72 39.80 39.94
  Q 39.77 45.52 39.84 51.48
  A 0.74 0.74 0.0 0 0 40.58 52.21
  L 49.23 52.21
  A 0.78 0.78 0.0 0 0 50.01 51.44
  Q 50.07 41.93 49.98 33.51
  C 49.88 23.63 43.11 15.76 33.21 15.77
  C 23.30 15.79 16.56 23.69 16.50 33.57
  Q 16.44 41.99 16.53 51.50
  A 0.78 0.78 0.0 0 0 17.31 52.27
  L 25.96 52.24
  A 0.74 0.74 0.0 0 0 26.70 51.50
  Q 26.75 45.54 26.70 39.96
  C 26.65 35.74 28.63 32.09 33.24 32.08
  Z"
/>
<path fill="#fff8ec" d="
  M 33.21 15.77
  C 43.11 15.76 49.88 23.63 49.98 33.51
  Q 50.07 41.93 50.01 51.44
  A 0.78 0.78 0.0 0 1 49.23 52.21
  L 40.58 52.21
  A 0.74 0.74 0.0 0 1 39.84 51.48
  Q 39.77 45.52 39.80 39.94
  C 39.83 35.72 37.84 32.08 33.24 32.08
  C 28.63 32.09 26.65 35.74 26.70 39.96
  Q 26.75 45.54 26.70 51.50
  A 0.74 0.74 0.0 0 1 25.96 52.24
  L 17.31 52.27
  A 0.78 0.78 0.0 0 1 16.53 51.50
  Q 16.44 41.99 16.50 33.57
  C 16.56 23.69 23.30 15.79 33.21 15.77
  Z"
/>
</svg>
