<?xml version="1.0" encoding="UTF-8" standalone="no"?>
<!DOCTYPE svg PUBLIC "-//W3C//DTD SVG 1.1//EN" "http://www.w3.org/Graphics/SVG/1.1/DTD/svg11.dtd">
<svg xmlns="http://www.w3.org/2000/svg" version="1.1" viewBox="0.00 0.00 66.00 88.00">
<g stroke-width="2.00" fill="none" stroke-linecap="butt">
<path stroke="#428270" vector-effect="non-scaling-stroke" d="
  M 33.40 86.73
  Q 33.52 86.73 33.65 86.61
  C 46.98 74.29 60.74 56.88 63.80 39.08
  C 67.14 19.66 53.44 3.01 33.75 2.46
  Q 33.64 2.46 33.54 2.46
  Q 33.43 2.46 33.32 2.46
  C 13.63 2.94 -0.12 19.55 3.15 38.98
  C 6.15 56.79 19.86 74.25 33.15 86.61
  Q 33.28 86.73 33.40 86.73"
/>
<path stroke="#add2c1" vector-effect="non-scaling-stroke" d="
  M 32.97 40.39
  Q 35.04 40.39 34.70 36.76
  A 0.49 0.49 0.0 0 1 35.18 36.23
  L 43.16 36.23
  A 0.88 0.87 -87.9 0 1 44.03 37.18
  Q 43.73 41.05 46.35 40.24
  Q 47.82 39.78 47.30 37.32
  A 0.90 0.89 -5.8 0 1 48.18 36.25
  L 50.21 36.25
  A 1.13 1.13 0.0 0 0 51.34 35.10
  Q 51.05 21.62 39.12 16.89
  Q 36.36 15.79 32.98 15.79
  Q 29.60 15.79 26.84 16.88
  Q 14.90 21.60 14.60 35.08
  A 1.13 1.13 0.0 0 0 15.73 36.23
  L 17.76 36.23
  A 0.90 0.89 5.8 0 1 18.64 37.31
  Q 18.11 39.76 19.58 40.23
  Q 22.20 41.04 21.91 37.17
  A 0.88 0.87 87.9 0 1 22.78 36.22
  L 30.76 36.23
  A 0.49 0.49 0.0 0 1 31.24 36.76
  Q 30.89 40.39 32.97 40.39"
/>
<path stroke="#add2c1" vector-effect="non-scaling-stroke" d="
  M 32.97 52.23
  C 38.79 52.24 43.92 49.86 47.45 45.32
  A 0.35 0.35 0.0 0 0 47.18 44.76
  L 41.51 44.76
  A 0.49 0.49 0.0 0 1 41.02 44.23
  Q 41.16 42.48 40.90 41.68
  A 1.79 1.61 -22.4 0 0 38.47 40.81
  Q 37.43 41.33 37.65 44.14
  A 0.59 0.58 88.1 0 1 37.06 44.77
  Q 36.03 44.76 32.97 44.76
  Q 29.92 44.76 28.88 44.77
  A 0.59 0.58 -88.1 0 1 28.30 44.14
  Q 28.52 41.33 27.48 40.81
  A 1.79 1.61 22.4 0 0 25.05 41.68
  Q 24.79 42.48 24.93 44.23
  A 0.49 0.49 0.0 0 1 24.44 44.76
  L 18.77 44.76
  A 0.35 0.35 0.0 0 0 18.49 45.31
  C 22.03 49.86 27.16 52.23 32.97 52.23"
/>
</g>
<path fill="#2a584b" d="
  M 33.80 88.00
  L 33.13 88.00
  Q 16.53 73.26 6.73 54.02
  Q 2.46 45.63 1.67 35.92
  Q 0.86 25.87 5.37 17.77
  C 11.49 6.78 23.48 0.39 36.30 1.45
  C 53.05 2.84 66.10 17.10 65.46 33.90
  Q 65.17 41.59 62.40 48.84
  C 56.71 63.72 45.50 77.35 33.80 88.00
  Z
  M 33.40 86.73
  Q 33.52 86.73 33.65 86.61
  C 46.98 74.29 60.74 56.88 63.80 39.08
  C 67.14 19.66 53.44 3.01 33.75 2.46
  Q 33.64 2.46 33.54 2.46
  Q 33.43 2.46 33.32 2.46
  C 13.63 2.94 -0.12 19.55 3.15 38.98
  C 6.15 56.79 19.86 74.25 33.15 86.61
  Q 33.28 86.73 33.40 86.73
  Z"
/>
<path fill="#5aab95" d="
  M 33.54 2.46
  Q 33.64 2.46 33.75 2.46
  C 53.44 3.01 67.14 19.66 63.80 39.08
  C 60.74 56.88 46.98 74.29 33.65 86.61
  Q 33.52 86.73 33.40 86.73
  Q 33.28 86.73 33.15 86.61
  C 19.86 74.25 6.15 56.79 3.15 38.98
  C -0.12 19.55 13.63 2.94 33.32 2.46
  Q 33.43 2.46 33.54 2.46
  Z
  M 32.97 40.39
  Q 35.04 40.39 34.70 36.76
  A 0.49 0.49 0.0 0 1 35.18 36.23
  L 43.16 36.23
  A 0.88 0.87 -87.9 0 1 44.03 37.18
  Q 43.73 41.05 46.35 40.24
  Q 47.82 39.78 47.30 37.32
  A 0.90 0.89 -5.8 0 1 48.18 36.25
  L 50.21 36.25
  A 1.13 1.13 0.0 0 0 51.34 35.10
  Q 51.05 21.62 39.12 16.89
  Q 36.36 15.79 32.98 15.79
  Q 29.60 15.79 26.84 16.88
  Q 14.90 21.60 14.60 35.08
  A 1.13 1.13 0.0 0 0 15.73 36.23
  L 17.76 36.23
  A 0.90 0.89 5.8 0 1 18.64 37.31
  Q 18.11 39.76 19.58 40.23
  Q 22.20 41.04 21.91 37.17
  A 0.88 0.87 87.9 0 1 22.78 36.22
  L 30.76 36.23
  A 0.49 0.49 0.0 0 1 31.24 36.76
  Q 30.89 40.39 32.97 40.39
  Z
  M 32.97 52.23
  C 38.79 52.24 43.92 49.86 47.45 45.32
  A 0.35 0.35 0.0 0 0 47.18 44.76
  L 41.51 44.76
  A 0.49 0.49 0.0 0 1 41.02 44.23
  Q 41.16 42.48 40.90 41.68
  A 1.79 1.61 -22.4 0 0 38.47 40.81
  Q 37.43 41.33 37.65 44.14
  A 0.59 0.58 88.1 0 1 37.06 44.77
  Q 36.03 44.76 32.97 44.76
  Q 29.92 44.76 28.88 44.77
  A 0.59 0.58 -88.1 0 1 28.30 44.14
  Q 28.52 41.33 27.48 40.81
  A 1.79 1.61 22.4 0 0 25.05 41.68
  Q 24.79 42.48 24.93 44.23
  A 0.49 0.49 0.0 0 1 24.44 44.76
  L 18.77 44.76
  A 0.35 0.35 0.0 0 0 18.49 45.31
  C 22.03 49.86 27.16 52.23 32.97 52.23
  Z"
/>
<path fill="#fff8ec" d="
  M 32.98 15.79
  Q 36.36 15.79 39.12 16.89
  Q 51.05 21.62 51.34 35.10
  A 1.13 1.13 0.0 0 1 50.21 36.25
  L 48.18 36.25
  A 0.90 0.89 -5.8 0 0 47.30 37.32
  Q 47.82 39.78 46.35 40.24
  Q 43.73 41.05 44.03 37.18
  A 0.88 0.87 -87.9 0 0 43.16 36.23
  L 35.18 36.23
  A 0.49 0.49 0.0 0 0 34.70 36.76
  Q 35.04 40.39 32.97 40.39
  Q 30.89 40.39 31.24 36.76
  A 0.49 0.49 0.0 0 0 30.76 36.23
  L 22.78 36.22
  A 0.88 0.87 87.9 0 0 21.91 37.17
  Q 22.20 41.04 19.58 40.23
  Q 18.11 39.76 18.64 37.31
  A 0.90 0.89 5.8 0 0 17.76 36.23
  L 15.73 36.23
  A 1.13 1.13 0.0 0 1 14.60 35.08
  Q 14.90 21.60 26.84 16.88
  Q 29.60 15.79 32.98 15.79
  Z"
/>
<path fill="#fff8ec" d="
  M 32.97 44.76
  Q 36.03 44.76 37.06 44.77
  A 0.59 0.58 88.1 0 0 37.65 44.14
  Q 37.43 41.33 38.47 40.81
  A 1.79 1.61 -22.4 0 1 40.90 41.68
  Q 41.16 42.48 41.02 44.23
  A 0.49 0.49 0.0 0 0 41.51 44.76
  L 47.18 44.76
  A 0.35 0.35 0.0 0 1 47.45 45.32
  C 43.92 49.86 38.79 52.24 32.97 52.23
  C 27.16 52.23 22.03 49.86 18.49 45.31
  A 0.35 0.35 0.0 0 1 18.77 44.76
  L 24.44 44.76
  A 0.49 0.49 0.0 0 0 24.93 44.23
  Q 24.79 42.48 25.05 41.68
  A 1.79 1.61 22.4 0 1 27.48 40.81
  Q 28.52 41.33 28.30 44.14
  A 0.59 0.58 -88.1 0 0 28.88 44.77
  Q 29.92 44.76 32.97 44.76
  Z"
/>
</svg>
