<?xml version="1.0" encoding="UTF-8" standalone="no"?>
<!DOCTYPE svg PUBLIC "-//W3C//DTD SVG 1.1//EN" "http://www.w3.org/Graphics/SVG/1.1/DTD/svg11.dtd">
<svg xmlns="http://www.w3.org/2000/svg" version="1.1" viewBox="0.00 0.00 66.00 88.00">
<g stroke-width="2.00" fill="none" stroke-linecap="butt">
<path stroke="#26433a" vector-effect="non-scaling-stroke" d="
  M 33.42 86.64
  C 34.02 86.64 33.47 86.71 33.64 86.55
  Q 47.41 73.93 56.47 58.49
  Q 62.62 48.00 63.88 37.98
  Q 64.79 30.77 63.64 26.34
  Q 59.49 10.42 44.47 4.53
  Q 39.36 2.52 33.52 2.51
  Q 27.69 2.51 22.57 4.50
  Q 7.54 10.36 3.35 26.27
  Q 2.19 30.69 3.08 37.91
  Q 4.32 47.93 10.44 58.43
  Q 19.46 73.90 33.20 86.55
  C 33.37 86.71 32.82 86.64 33.42 86.64"
/>
<path stroke="#99a89d" vector-effect="non-scaling-stroke" d="
  M 37.59 35.50
  Q 38.23 35.76 38.30 35.78
  A 0.66 0.65 -71.4 0 0 39.08 35.39
  L 42.34 27.35
  A 1.06 1.05 -80.7 0 1 43.23 26.70
  L 43.95 26.65
  A 0.99 0.98 8.8 0 0 44.78 26.05
  L 47.86 18.47
  A 1.17 1.17 0.0 0 0 47.21 16.94
  Q 45.78 16.37 45.49 16.25
  Q 45.20 16.13 43.77 15.53
  A 1.17 1.17 0.0 0 0 42.24 16.16
  L 39.11 23.73
  A 0.99 0.98 35.8 0 0 39.28 24.74
  L 39.76 25.28
  A 1.06 1.05 -54.7 0 1 39.94 26.36
  L 36.61 34.38
  A 0.66 0.65 -64.0 0 0 36.89 35.20
  Q 36.95 35.24 37.59 35.50"
/>
<path stroke="#99a89d" vector-effect="non-scaling-stroke" d="
  M 32.62 45.01
  Q 41.22 45.00 42.40 44.90
  A 0.28 0.28 0.0 0 0 42.64 44.52
  C 40.90 40.31 37.23 37.53 32.61 37.53
  C 28.00 37.54 24.33 40.32 22.60 44.54
  A 0.28 0.28 0.0 0 0 22.84 44.92
  Q 24.02 45.02 32.62 45.01"
/>
<path stroke="#99a89d" vector-effect="non-scaling-stroke" d="
  M 47.82 48.43
  A 0.37 0.37 0.0 0 0 47.45 48.06
  L 17.79 48.06
  A 0.37 0.37 0.0 0 0 17.42 48.43
  L 17.42 51.95
  A 0.37 0.37 0.0 0 0 17.79 52.32
  L 47.45 52.32
  A 0.37 0.37 0.0 0 0 47.82 51.95
  L 47.82 48.43"
/>
</g>
<path fill="#192e27" d="
  M 33.81 88.00
  L 33.04 88.00
  C 21.72 77.72 12.19 65.74 5.67 51.56
  Q 0.16 39.60 2.09 26.83
  Q 3.23 19.26 9.07 12.55
  C 19.58 0.45 36.97 -2.29 50.72 6.30
  Q 58.20 10.97 62.17 18.84
  C 74.39 43.02 50.50 72.74 33.81 88.00
  Z
  M 33.42 86.64
  C 34.02 86.64 33.47 86.71 33.64 86.55
  Q 47.41 73.93 56.47 58.49
  Q 62.62 48.00 63.88 37.98
  Q 64.79 30.77 63.64 26.34
  Q 59.49 10.42 44.47 4.53
  Q 39.36 2.52 33.52 2.51
  Q 27.69 2.51 22.57 4.50
  Q 7.54 10.36 3.35 26.27
  Q 2.19 30.69 3.08 37.91
  Q 4.32 47.93 10.44 58.43
  Q 19.46 73.90 33.20 86.55
  C 33.37 86.71 32.82 86.64 33.42 86.64
  Z"
/>
<path fill="#32574d" d="
  M 33.52 2.51
  Q 39.36 2.52 44.47 4.53
  Q 59.49 10.42 63.64 26.34
  Q 64.79 30.77 63.88 37.98
  Q 62.62 48.00 56.47 58.49
  Q 47.41 73.93 33.64 86.55
  C 33.47 86.71 34.02 86.64 33.42 86.64
  C 32.82 86.64 33.37 86.71 33.20 86.55
  Q 19.46 73.90 10.44 58.43
  Q 4.32 47.93 3.08 37.91
  Q 2.19 30.69 3.35 26.27
  Q 7.54 10.36 22.57 4.50
  Q 27.69 2.51 33.52 2.51
  Z
  M 37.59 35.50
  Q 38.23 35.76 38.30 35.78
  A 0.66 0.65 -71.4 0 0 39.08 35.39
  L 42.34 27.35
  A 1.06 1.05 -80.7 0 1 43.23 26.70
  L 43.95 26.65
  A 0.99 0.98 8.8 0 0 44.78 26.05
  L 47.86 18.47
  A 1.17 1.17 0.0 0 0 47.21 16.94
  Q 45.78 16.37 45.49 16.25
  Q 45.20 16.13 43.77 15.53
  A 1.17 1.17 0.0 0 0 42.24 16.16
  L 39.11 23.73
  A 0.99 0.98 35.8 0 0 39.28 24.74
  L 39.76 25.28
  A 1.06 1.05 -54.7 0 1 39.94 26.36
  L 36.61 34.38
  A 0.66 0.65 -64.0 0 0 36.89 35.20
  Q 36.95 35.24 37.59 35.50
  Z
  M 32.62 45.01
  Q 41.22 45.00 42.40 44.90
  A 0.28 0.28 0.0 0 0 42.64 44.52
  C 40.90 40.31 37.23 37.53 32.61 37.53
  C 28.00 37.54 24.33 40.32 22.60 44.54
  A 0.28 0.28 0.0 0 0 22.84 44.92
  Q 24.02 45.02 32.62 45.01
  Z
  M 47.82 48.43
  A 0.37 0.37 0.0 0 0 47.45 48.06
  L 17.79 48.06
  A 0.37 0.37 0.0 0 0 17.42 48.43
  L 17.42 51.95
  A 0.37 0.37 0.0 0 0 17.79 52.32
  L 47.45 52.32
  A 0.37 0.37 0.0 0 0 47.82 51.95
  L 47.82 48.43
  Z"
/>
<path fill="#fff8ec" d="
  M 45.49 16.25
  Q 45.78 16.37 47.21 16.94
  A 1.17 1.17 0.0 0 1 47.86 18.47
  L 44.78 26.05
  A 0.99 0.98 8.8 0 1 43.95 26.65
  L 43.23 26.70
  A 1.06 1.05 -80.7 0 0 42.34 27.35
  L 39.08 35.39
  A 0.66 0.65 -71.4 0 1 38.30 35.78
  Q 38.23 35.76 37.59 35.50
  Q 36.95 35.24 36.89 35.20
  A 0.66 0.65 -64.0 0 1 36.61 34.38
  L 39.94 26.36
  A 1.06 1.05 -54.7 0 0 39.76 25.28
  L 39.28 24.74
  A 0.99 0.98 35.8 0 1 39.11 23.73
  L 42.24 16.16
  A 1.17 1.17 0.0 0 1 43.77 15.53
  Q 45.20 16.13 45.49 16.25
  Z"
/>
<path fill="#fff8ec" d="
  M 32.61 37.53
  C 37.23 37.53 40.90 40.31 42.64 44.52
  A 0.28 0.28 0.0 0 1 42.40 44.90
  Q 41.22 45.00 32.62 45.01
  Q 24.02 45.02 22.84 44.92
  A 0.28 0.28 0.0 0 1 22.60 44.54
  C 24.33 40.32 28.00 37.54 32.61 37.53
  Z"
/>
<rect fill="#fff8ec" x="17.42" y="48.06" width="30.40" height="4.26" rx="0.37"/>
</svg>
