<?xml version="1.0" encoding="UTF-8" standalone="no"?>
<!DOCTYPE svg PUBLIC "-//W3C//DTD SVG 1.1//EN" "http://www.w3.org/Graphics/SVG/1.1/DTD/svg11.dtd">
<svg xmlns="http://www.w3.org/2000/svg" version="1.1" viewBox="0.00 0.00 66.00 88.00">
<g stroke-width="2.00" fill="none" stroke-linecap="butt">
<path stroke="#26433a" vector-effect="non-scaling-stroke" d="
  M 33.42 86.61
  C 33.72 86.61 33.66 86.63 33.80 86.50
  Q 48.35 73.12 57.57 56.52
  Q 62.37 47.86 63.81 38.75
  Q 66.42 22.20 54.80 10.98
  C 49.20 5.57 41.45 2.54 33.53 2.53
  C 25.61 2.52 17.86 5.53 12.24 10.93
  Q 0.59 22.11 3.16 38.67
  Q 4.58 47.78 9.35 56.46
  Q 18.53 73.08 33.05 86.50
  C 33.18 86.63 33.13 86.61 33.42 86.61"
/>
<path stroke="#99a89d" vector-effect="non-scaling-stroke" d="
  M 26.57 20.23
  L 28.71 20.25
  A 0.43 0.43 0.0 0 0 29.14 19.83
  L 29.16 17.94
  A 2.18 1.36 -89.4 0 0 27.82 15.74
  L 27.54 15.74
  A 2.18 1.36 -89.4 0 0 26.16 17.90
  L 26.14 19.79
  A 0.43 0.43 0.0 0 0 26.57 20.23"
/>
<path stroke="#99a89d" vector-effect="non-scaling-stroke" d="
  M 42.12 28.44
  Q 43.34 28.68 44.95 28.27
  A 0.94 0.94 0.0 0 0 45.61 27.61
  Q 45.91 26.53 45.75 24.58
  A 1.45 1.44 87.6 0 0 44.31 23.25
  L 22.81 23.25
  A 1.74 1.73 -90.0 0 0 21.08 24.99
  L 21.08 31.21
  A 1.79 1.78 90.0 0 0 22.86 33.00
  L 39.75 33.00
  A 1.71 1.71 0.0 0 0 41.46 31.29
  L 41.46 28.98
  A 0.55 0.55 0.0 0 1 42.12 28.44"
/>
<path stroke="#99a89d" vector-effect="non-scaling-stroke" d="
  M 28.59 35.99
  L 26.75 35.99
  A 0.54 0.54 0.0 0 0 26.21 36.53
  L 26.21 50.29
  A 1.86 1.36 90.0 0 0 27.57 52.15
  L 27.77 52.15
  A 1.86 1.36 -90.0 0 0 29.13 50.29
  L 29.13 36.53
  A 0.54 0.54 0.0 0 0 28.59 35.99"
/>
</g>
<path fill="#192e27" d="
  M 33.81 88.00
  L 33.04 88.00
  C 21.77 77.76 12.09 65.65 5.65 51.57
  Q 2.21 44.05 1.60 34.90
  C 0.54 18.87 11.34 5.51 26.73 2.05
  C 40.76 -1.11 55.32 5.70 62.17 18.85
  C 67.40 28.89 65.86 41.27 61.31 51.54
  C 55.19 65.40 44.96 77.81 33.81 88.00
  Z
  M 33.42 86.61
  C 33.72 86.61 33.66 86.63 33.80 86.50
  Q 48.35 73.12 57.57 56.52
  Q 62.37 47.86 63.81 38.75
  Q 66.42 22.20 54.80 10.98
  C 49.20 5.57 41.45 2.54 33.53 2.53
  C 25.61 2.52 17.86 5.53 12.24 10.93
  Q 0.59 22.11 3.16 38.67
  Q 4.58 47.78 9.35 56.46
  Q 18.53 73.08 33.05 86.50
  C 33.18 86.63 33.13 86.61 33.42 86.61
  Z"
/>
<path fill="#32574d" d="
  M 33.53 2.53
  C 41.45 2.54 49.20 5.57 54.80 10.98
  Q 66.42 22.20 63.81 38.75
  Q 62.37 47.86 57.57 56.52
  Q 48.35 73.12 33.80 86.50
  C 33.66 86.63 33.72 86.61 33.42 86.61
  C 33.13 86.61 33.18 86.63 33.05 86.50
  Q 18.53 73.08 9.35 56.46
  Q 4.58 47.78 3.16 38.67
  Q 0.59 22.11 12.24 10.93
  C 17.86 5.53 25.61 2.52 33.53 2.53
  Z
  M 26.57 20.23
  L 28.71 20.25
  A 0.43 0.43 0.0 0 0 29.14 19.83
  L 29.16 17.94
  A 2.18 1.36 -89.4 0 0 27.82 15.74
  L 27.54 15.74
  A 2.18 1.36 -89.4 0 0 26.16 17.90
  L 26.14 19.79
  A 0.43 0.43 0.0 0 0 26.57 20.23
  Z
  M 42.12 28.44
  Q 43.34 28.68 44.95 28.27
  A 0.94 0.94 0.0 0 0 45.61 27.61
  Q 45.91 26.53 45.75 24.58
  A 1.45 1.44 87.6 0 0 44.31 23.25
  L 22.81 23.25
  A 1.74 1.73 -90.0 0 0 21.08 24.99
  L 21.08 31.21
  A 1.79 1.78 90.0 0 0 22.86 33.00
  L 39.75 33.00
  A 1.71 1.71 0.0 0 0 41.46 31.29
  L 41.46 28.98
  A 0.55 0.55 0.0 0 1 42.12 28.44
  Z
  M 28.59 35.99
  L 26.75 35.99
  A 0.54 0.54 0.0 0 0 26.21 36.53
  L 26.21 50.29
  A 1.86 1.36 90.0 0 0 27.57 52.15
  L 27.77 52.15
  A 1.86 1.36 -90.0 0 0 29.13 50.29
  L 29.13 36.53
  A 0.54 0.54 0.0 0 0 28.59 35.99
  Z"
/>
<path fill="#fff8ec" d="
  M 26.57 20.23
  A 0.43 0.43 0.0 0 1 26.14 19.79
  L 26.16 17.90
  A 2.18 1.36 -89.4 0 1 27.54 15.74
  L 27.82 15.74
  A 2.18 1.36 -89.4 0 1 29.16 17.94
  L 29.14 19.83
  A 0.43 0.43 0.0 0 1 28.71 20.25
  L 26.57 20.23
  Z"
/>
<path fill="#fff8ec" d="
  M 41.46 28.98
  L 41.46 31.29
  A 1.71 1.71 0.0 0 1 39.75 33.00
  L 22.86 33.00
  A 1.79 1.78 90.0 0 1 21.08 31.21
  L 21.08 24.99
  A 1.74 1.73 90.0 0 1 22.81 23.25
  L 44.31 23.25
  A 1.45 1.44 87.6 0 1 45.75 24.58
  Q 45.91 26.53 45.61 27.61
  A 0.94 0.94 0.0 0 1 44.95 28.27
  Q 43.34 28.68 42.12 28.44
  A 0.55 0.55 0.0 0 0 41.46 28.98
  Z"
/>
<path fill="#fff8ec" d="
  M 28.59 35.99
  A 0.54 0.54 0.0 0 1 29.13 36.53
  L 29.13 50.29
  A 1.86 1.36 -90.0 0 1 27.77 52.15
  L 27.57 52.15
  A 1.86 1.36 90.0 0 1 26.21 50.29
  L 26.21 36.53
  A 0.54 0.54 0.0 0 1 26.75 35.99
  L 28.59 35.99
  Z"
/>
</svg>
