<?xml version="1.0" encoding="UTF-8" standalone="no"?>
<!DOCTYPE svg PUBLIC "-//W3C//DTD SVG 1.1//EN" "http://www.w3.org/Graphics/SVG/1.1/DTD/svg11.dtd">
<svg xmlns="http://www.w3.org/2000/svg" version="1.1" viewBox="0.00 0.00 66.00 88.00">
<g stroke-width="2.00" fill="none" stroke-linecap="butt">
<path stroke="#26433a" vector-effect="non-scaling-stroke" d="
  M 33.43 86.61
  C 33.95 86.61 33.61 86.65 33.79 86.49
  Q 48.17 73.26 57.58 56.53
  Q 62.41 47.95 63.83 38.49
  Q 66.09 23.51 56.75 13.01
  C 50.78 6.30 42.64 2.56 33.52 2.55
  C 24.41 2.54 16.26 6.26 10.27 12.96
  Q 0.91 23.43 3.13 38.42
  Q 4.53 47.88 9.34 56.47
  Q 18.71 73.23 33.07 86.49
  C 33.24 86.65 32.90 86.61 33.43 86.61"
/>
<path stroke="#99a89d" vector-effect="non-scaling-stroke" d="
  M 28.70 18.66
  A 0.23 0.22 -75.8 0 0 28.39 18.85
  Q 27.77 26.39 33.81 30.62
  A 0.69 0.68 -49.9 0 0 34.69 30.54
  Q 39.15 26.04 36.16 20.39
  A 0.84 0.84 0.0 0 0 34.69 20.37
  L 33.76 21.96
  A 0.50 0.50 0.0 0 1 32.89 21.96
  Q 31.73 19.95 28.70 18.66"
/>
<path stroke="#99a89d" vector-effect="non-scaling-stroke" d="
  M 46.07 28.85
  Q 46.45 26.55 45.87 24.60
  A 0.98 0.97 -21.6 0 0 44.49 24.01
  Q 39.68 26.41 37.31 32.06
  A 0.50 0.50 0.0 0 0 37.54 32.69
  Q 43.21 35.73 49.33 32.33
  A 1.15 1.15 0.0 0 0 49.47 30.41
  Q 48.45 29.63 46.55 29.47
  A 0.53 0.52 -83.1 0 1 46.07 28.85"
/>
<path stroke="#99a89d" vector-effect="non-scaling-stroke" d="
  M 20.06 30.48
  Q 17.28 31.10 15.15 33.44
  A 0.63 0.63 0.0 0 0 15.41 34.46
  Q 23.50 37.42 31.47 32.91
  A 0.52 0.52 0.0 0 0 31.62 32.14
  Q 26.95 26.24 19.48 24.80
  A 0.51 0.50 0.4 0 0 18.89 25.38
  Q 19.35 28.10 20.37 29.75
  A 0.49 0.49 0.0 0 1 20.06 30.48"
/>
<path stroke="#99a89d" vector-effect="non-scaling-stroke" d="
  M 29.47 44.63
  Q 29.50 47.67 31.15 49.70
  A 0.54 0.54 0.0 0 0 31.97 49.72
  Q 37.70 43.35 34.90 34.96
  A 0.47 0.46 77.2 0 0 34.40 34.64
  Q 25.91 35.62 22.08 43.08
  A 0.64 0.64 0.0 0 0 22.37 43.96
  Q 25.08 45.27 28.86 44.18
  A 0.48 0.47 -8.3 0 1 29.47 44.63"
/>
<path stroke="#99a89d" vector-effect="non-scaling-stroke" d="
  M 44.62 48.04
  Q 45.36 45.61 45.16 43.85
  A 0.37 0.37 0.0 0 1 45.53 43.44
  L 50.74 43.44
  A 0.42 0.41 -10.1 0 0 51.14 42.88
  C 49.45 38.28 42.32 35.21 37.93 34.62
  A 0.50 0.49 3.6 0 0 37.37 35.11
  Q 37.38 43.28 44.20 48.18
  A 0.27 0.27 0.0 0 0 44.62 48.04"
/>
</g>
<path fill="#192e27" d="
  M 33.81 88.00
  L 33.04 88.00
  C 21.86 77.84 12.08 65.68 5.74 51.77
  Q 2.85 45.44 1.95 38.75
  Q -0.16 23.20 8.83 12.76
  C 19.30 0.61 36.99 -2.44 50.67 6.29
  Q 62.35 13.75 64.91 27.02
  C 69.20 49.27 49.12 74.02 33.81 88.00
  Z
  M 33.43 86.61
  C 33.95 86.61 33.61 86.65 33.79 86.49
  Q 48.17 73.26 57.58 56.53
  Q 62.41 47.95 63.83 38.49
  Q 66.09 23.51 56.75 13.01
  C 50.78 6.30 42.64 2.56 33.52 2.55
  C 24.41 2.54 16.26 6.26 10.27 12.96
  Q 0.91 23.43 3.13 38.42
  Q 4.53 47.88 9.34 56.47
  Q 18.71 73.23 33.07 86.49
  C 33.24 86.65 32.90 86.61 33.43 86.61
  Z"
/>
<path fill="#32574d" d="
  M 33.52 2.55
  C 42.64 2.56 50.78 6.30 56.75 13.01
  Q 66.09 23.51 63.83 38.49
  Q 62.41 47.95 57.58 56.53
  Q 48.17 73.26 33.79 86.49
  C 33.61 86.65 33.95 86.61 33.43 86.61
  C 32.90 86.61 33.24 86.65 33.07 86.49
  Q 18.71 73.23 9.34 56.47
  Q 4.53 47.88 3.13 38.42
  Q 0.91 23.43 10.27 12.96
  C 16.26 6.26 24.41 2.54 33.52 2.55
  Z
  M 28.70 18.66
  A 0.23 0.22 -75.8 0 0 28.39 18.85
  Q 27.77 26.39 33.81 30.62
  A 0.69 0.68 -49.9 0 0 34.69 30.54
  Q 39.15 26.04 36.16 20.39
  A 0.84 0.84 0.0 0 0 34.69 20.37
  L 33.76 21.96
  A 0.50 0.50 0.0 0 1 32.89 21.96
  Q 31.73 19.95 28.70 18.66
  Z
  M 46.07 28.85
  Q 46.45 26.55 45.87 24.60
  A 0.98 0.97 -21.6 0 0 44.49 24.01
  Q 39.68 26.41 37.31 32.06
  A 0.50 0.50 0.0 0 0 37.54 32.69
  Q 43.21 35.73 49.33 32.33
  A 1.15 1.15 0.0 0 0 49.47 30.41
  Q 48.45 29.63 46.55 29.47
  A 0.53 0.52 -83.1 0 1 46.07 28.85
  Z
  M 20.06 30.48
  Q 17.28 31.10 15.15 33.44
  A 0.63 0.63 0.0 0 0 15.41 34.46
  Q 23.50 37.42 31.47 32.91
  A 0.52 0.52 0.0 0 0 31.62 32.14
  Q 26.95 26.24 19.48 24.80
  A 0.51 0.50 0.4 0 0 18.89 25.38
  Q 19.35 28.10 20.37 29.75
  A 0.49 0.49 0.0 0 1 20.06 30.48
  Z
  M 29.47 44.63
  Q 29.50 47.67 31.15 49.70
  A 0.54 0.54 0.0 0 0 31.97 49.72
  Q 37.70 43.35 34.90 34.96
  A 0.47 0.46 77.2 0 0 34.40 34.64
  Q 25.91 35.62 22.08 43.08
  A 0.64 0.64 0.0 0 0 22.37 43.96
  Q 25.08 45.27 28.86 44.18
  A 0.48 0.47 -8.3 0 1 29.47 44.63
  Z
  M 44.62 48.04
  Q 45.36 45.61 45.16 43.85
  A 0.37 0.37 0.0 0 1 45.53 43.44
  L 50.74 43.44
  A 0.42 0.41 -10.1 0 0 51.14 42.88
  C 49.45 38.28 42.32 35.21 37.93 34.62
  A 0.50 0.49 3.6 0 0 37.37 35.11
  Q 37.38 43.28 44.20 48.18
  A 0.27 0.27 0.0 0 0 44.62 48.04
  Z"
/>
<path fill="#fff8ec" d="
  M 28.70 18.66
  Q 31.73 19.95 32.89 21.96
  A 0.50 0.50 0.0 0 0 33.76 21.96
  L 34.69 20.37
  A 0.84 0.84 0.0 0 1 36.16 20.39
  Q 39.15 26.04 34.69 30.54
  A 0.69 0.68 -49.9 0 1 33.81 30.62
  Q 27.77 26.39 28.39 18.85
  A 0.23 0.22 -75.8 0 1 28.70 18.66
  Z"
/>
<path fill="#fff8ec" d="
  M 46.55 29.47
  Q 48.45 29.63 49.47 30.41
  A 1.15 1.15 0.0 0 1 49.33 32.33
  Q 43.21 35.73 37.54 32.69
  A 0.50 0.50 0.0 0 1 37.31 32.06
  Q 39.68 26.41 44.49 24.01
  A 0.98 0.97 -21.6 0 1 45.87 24.60
  Q 46.45 26.55 46.07 28.85
  A 0.53 0.52 -83.1 0 0 46.55 29.47
  Z"
/>
<path fill="#fff8ec" d="
  M 20.37 29.75
  Q 19.35 28.10 18.89 25.38
  A 0.51 0.50 0.4 0 1 19.48 24.80
  Q 26.95 26.24 31.62 32.14
  A 0.52 0.52 0.0 0 1 31.47 32.91
  Q 23.50 37.42 15.41 34.46
  A 0.63 0.63 0.0 0 1 15.15 33.44
  Q 17.28 31.10 20.06 30.48
  A 0.49 0.49 0.0 0 0 20.37 29.75
  Z"
/>
<path fill="#fff8ec" d="
  M 29.47 44.63
  A 0.48 0.47 -8.3 0 0 28.86 44.18
  Q 25.08 45.27 22.37 43.96
  A 0.64 0.64 0.0 0 1 22.08 43.08
  Q 25.91 35.62 34.40 34.64
  A 0.47 0.46 77.2 0 1 34.90 34.96
  Q 37.70 43.35 31.97 49.72
  A 0.54 0.54 0.0 0 1 31.15 49.70
  Q 29.50 47.67 29.47 44.63
  Z"
/>
<path fill="#fff8ec" d="
  M 44.62 48.04
  A 0.27 0.27 0.0 0 1 44.20 48.18
  Q 37.38 43.28 37.37 35.11
  A 0.50 0.49 3.6 0 1 37.93 34.62
  C 42.32 35.21 49.45 38.28 51.14 42.88
  A 0.42 0.41 -10.1 0 1 50.74 43.44
  L 45.53 43.44
  A 0.37 0.37 0.0 0 0 45.16 43.85
  Q 45.36 45.61 44.62 48.04
  Z"
/>
</svg>
