<?xml version="1.0" encoding="UTF-8" standalone="no"?>
<!DOCTYPE svg PUBLIC "-//W3C//DTD SVG 1.1//EN" "http://www.w3.org/Graphics/SVG/1.1/DTD/svg11.dtd">
<svg xmlns="http://www.w3.org/2000/svg" version="1.1" viewBox="0.00 0.00 66.00 88.00">
<g stroke-width="2.00" fill="none" stroke-linecap="butt">
<path stroke="#38728d" vector-effect="non-scaling-stroke" d="
  M 33.41 86.72
  Q 33.52 86.72 33.62 86.69
  Q 33.70 86.67 33.79 86.60
  Q 46.72 74.42 55.57 60.05
  C 66.86 41.73 69.55 19.12 48.63 6.44
  Q 42.09 2.48 33.53 2.47
  Q 24.97 2.46 18.42 6.40
  C -2.54 19.01 0.08 41.63 11.32 59.98
  Q 20.13 74.38 33.02 86.60
  Q 33.11 86.67 33.19 86.69
  Q 33.29 86.72 33.41 86.72"
/>
<path stroke="#a6c7d3" vector-effect="non-scaling-stroke" d="
  M 33.00 49.01
  Q 42.98 49.01 43.94 48.97
  A 0.86 0.86 0.0 0 0 44.75 47.99
  L 42.39 30.66
  A 0.36 0.36 0.0 0 1 42.96 30.32
  L 44.97 31.82
  A 1.37 1.37 0.0 0 0 46.76 31.69
  L 51.02 27.43
  A 1.29 1.29 0.0 0 0 50.88 25.49
  L 41.60 18.57
  A 0.73 0.73 0.0 0 0 40.64 18.64
  Q 37.07 22.22 33.00 22.21
  Q 28.93 22.21 25.36 18.64
  A 0.73 0.73 0.0 0 0 24.40 18.57
  L 15.12 25.49
  A 1.29 1.29 0.0 0 0 14.98 27.43
  L 19.24 31.69
  A 1.37 1.37 0.0 0 0 21.03 31.82
  L 23.04 30.32
  A 0.36 0.36 0.0 0 1 23.61 30.66
  L 21.25 47.99
  A 0.86 0.86 0.0 0 0 22.05 48.97
  Q 23.02 49.01 33.00 49.01"
/>
<path stroke="#a6c7d3" vector-effect="non-scaling-stroke" d="
  M 35.17 29.01
  A 2.17 2.17 0.0 0 0 33.00 26.84
  A 2.17 2.17 0.0 0 0 30.83 29.01
  A 2.17 2.17 0.0 0 0 33.00 31.18
  A 2.17 2.17 0.0 0 0 35.17 29.01"
/>
<path stroke="#a6c7d3" vector-effect="non-scaling-stroke" d="
  M 35.15 36.25
  A 2.16 2.16 0.0 0 0 32.99 34.09
  A 2.16 2.16 0.0 0 0 30.83 36.25
  A 2.16 2.16 0.0 0 0 32.99 38.41
  A 2.16 2.16 0.0 0 0 35.15 36.25"
/>
</g>
<path fill="#234d60" d="
  M 33.81 88.00
  L 33.04 88.00
  C 21.78 77.76 12.09 65.65 5.65 51.57
  Q 2.20 44.03 1.60 34.90
  C 0.54 18.86 11.32 5.55 26.73 2.05
  C 40.74 -1.12 55.10 5.68 61.99 18.51
  C 67.44 28.64 65.91 41.14 61.31 51.54
  C 55.19 65.40 44.96 77.83 33.81 88.00
  Z
  M 33.41 86.72
  Q 33.52 86.72 33.62 86.69
  Q 33.70 86.67 33.79 86.60
  Q 46.72 74.42 55.57 60.05
  C 66.86 41.73 69.55 19.12 48.63 6.44
  Q 42.09 2.48 33.53 2.47
  Q 24.97 2.46 18.42 6.40
  C -2.54 19.01 0.08 41.63 11.32 59.98
  Q 20.13 74.38 33.02 86.60
  Q 33.11 86.67 33.19 86.69
  Q 33.29 86.72 33.41 86.72
  Z"
/>
<path fill="#4d96b9" d="
  M 33.53 2.47
  Q 42.09 2.48 48.63 6.44
  C 69.55 19.12 66.86 41.73 55.57 60.05
  Q 46.72 74.42 33.79 86.60
  Q 33.70 86.67 33.62 86.69
  Q 33.52 86.72 33.41 86.72
  Q 33.29 86.72 33.19 86.69
  Q 33.11 86.67 33.02 86.60
  Q 20.13 74.38 11.32 59.98
  C 0.08 41.63 -2.54 19.01 18.42 6.40
  Q 24.97 2.46 33.53 2.47
  Z
  M 33.00 49.01
  Q 42.98 49.01 43.94 48.97
  A 0.86 0.86 0.0 0 0 44.75 47.99
  L 42.39 30.66
  A 0.36 0.36 0.0 0 1 42.96 30.32
  L 44.97 31.82
  A 1.37 1.37 0.0 0 0 46.76 31.69
  L 51.02 27.43
  A 1.29 1.29 0.0 0 0 50.88 25.49
  L 41.60 18.57
  A 0.73 0.73 0.0 0 0 40.64 18.64
  Q 37.07 22.22 33.00 22.21
  Q 28.93 22.21 25.36 18.64
  A 0.73 0.73 0.0 0 0 24.40 18.57
  L 15.12 25.49
  A 1.29 1.29 0.0 0 0 14.98 27.43
  L 19.24 31.69
  A 1.37 1.37 0.0 0 0 21.03 31.82
  L 23.04 30.32
  A 0.36 0.36 0.0 0 1 23.61 30.66
  L 21.25 47.99
  A 0.86 0.86 0.0 0 0 22.05 48.97
  Q 23.02 49.01 33.00 49.01
  Z"
/>
<path fill="#fff8ec" d="
  M 33.00 22.21
  Q 37.07 22.22 40.64 18.64
  A 0.73 0.73 0.0 0 1 41.60 18.57
  L 50.88 25.49
  A 1.29 1.29 0.0 0 1 51.02 27.43
  L 46.76 31.69
  A 1.37 1.37 0.0 0 1 44.97 31.82
  L 42.96 30.32
  A 0.36 0.36 0.0 0 0 42.39 30.66
  L 44.75 47.99
  A 0.86 0.86 0.0 0 1 43.94 48.97
  Q 42.98 49.01 33.00 49.01
  Q 23.02 49.01 22.05 48.97
  A 0.86 0.86 0.0 0 1 21.25 47.99
  L 23.61 30.66
  A 0.36 0.36 0.0 0 0 23.04 30.32
  L 21.03 31.82
  A 1.37 1.37 0.0 0 1 19.24 31.69
  L 14.98 27.43
  A 1.29 1.29 0.0 0 1 15.12 25.49
  L 24.40 18.57
  A 0.73 0.73 0.0 0 1 25.36 18.64
  Q 28.93 22.21 33.00 22.21
  Z
  M 35.17 29.01
  A 2.17 2.17 0.0 0 0 33.00 26.84
  A 2.17 2.17 0.0 0 0 30.83 29.01
  A 2.17 2.17 0.0 0 0 33.00 31.18
  A 2.17 2.17 0.0 0 0 35.17 29.01
  Z
  M 35.15 36.25
  A 2.16 2.16 0.0 0 0 32.99 34.09
  A 2.16 2.16 0.0 0 0 30.83 36.25
  A 2.16 2.16 0.0 0 0 32.99 38.41
  A 2.16 2.16 0.0 0 0 35.15 36.25
  Z"
/>
<circle fill="#4d96b9" cx="33.00" cy="29.01" r="2.17"/>
<circle fill="#4d96b9" cx="32.99" cy="36.25" r="2.16"/>
</svg>
