<?xml version="1.0" encoding="UTF-8" standalone="no"?>
<!DOCTYPE svg PUBLIC "-//W3C//DTD SVG 1.1//EN" "http://www.w3.org/Graphics/SVG/1.1/DTD/svg11.dtd">
<svg xmlns="http://www.w3.org/2000/svg" version="1.1" viewBox="0.00 0.00 66.00 88.00">
<g stroke-width="2.00" fill="none" stroke-linecap="butt">
<path stroke="#356b73" vector-effect="non-scaling-stroke" d="
  M 33.40 86.72
  Q 33.51 86.72 33.61 86.69
  Q 33.63 86.69 33.75 86.57
  Q 48.90 72.27 57.73 56.26
  C 64.25 44.45 67.68 28.40 59.39 16.38
  Q 50.21 3.08 33.75 2.49
  Q 33.62 2.48 33.53 2.48
  Q 33.44 2.48 33.31 2.48
  Q 16.85 3.03 7.63 16.30
  C -0.69 28.30 2.69 44.36 9.17 56.19
  Q 17.95 72.22 33.06 86.57
  Q 33.18 86.69 33.19 86.69
  Q 33.30 86.72 33.40 86.72"
/>
<path stroke="#a4c2c2" vector-effect="non-scaling-stroke" d="
  M 32.97 31.23
  Q 38.40 31.23 39.81 31.92
  C 41.84 32.90 49.57 35.62 49.64 31.52
  C 49.82 22.02 42.09 15.80 32.97 15.80
  C 23.85 15.79 16.13 22.01 16.30 31.51
  C 16.37 35.61 24.10 32.90 26.13 31.91
  Q 27.55 31.23 32.97 31.23"
/>
<path stroke="#a4c2c2" vector-effect="non-scaling-stroke" d="
  M 32.98 52.23
  C 35.27 52.23 39.52 51.60 37.29 48.15
  Q 36.56 47.03 36.45 46.77
  A 4.16 4.10 -58.3 0 1 36.06 45.06
  L 35.97 35.66
  A 0.56 0.56 0.0 0 0 35.48 35.10
  Q 34.63 34.98 32.97 34.98
  Q 31.31 34.98 30.46 35.10
  A 0.56 0.56 0.0 0 0 29.97 35.66
  L 29.89 45.06
  A 4.16 4.10 58.2 0 1 29.50 46.77
  Q 29.39 47.03 28.66 48.15
  C 26.43 51.60 30.68 52.24 32.98 52.23"
/>
<path stroke="#a4c2c2" vector-effect="non-scaling-stroke" d="
  M 43.86 24.01
  A 1.69 1.69 0.0 0 0 42.17 22.32
  A 1.69 1.69 0.0 0 0 40.48 24.01
  A 1.69 1.69 0.0 0 0 42.17 25.70
  A 1.69 1.69 0.0 0 0 43.86 24.01"
/>
<path stroke="#a4c2c2" vector-effect="non-scaling-stroke" d="
  M 39.48 26.53
  A 1.67 1.67 0.0 0 0 37.81 24.86
  A 1.67 1.67 0.0 0 0 36.14 26.53
  A 1.67 1.67 0.0 0 0 37.81 28.20
  A 1.67 1.67 0.0 0 0 39.48 26.53"
/>
</g>
<path fill="#21494e" d="
  M 33.79 88.00
  L 33.04 88.00
  C 21.96 77.93 11.89 65.48 5.64 51.57
  Q 2.20 43.91 1.60 34.88
  C 0.79 22.90 6.89 11.71 17.11 5.77
  C 33.72 -3.88 54.95 2.67 62.92 20.44
  C 66.91 29.32 65.82 40.18 62.34 49.06
  C 56.52 63.86 45.51 77.38 33.79 88.00
  Z
  M 33.40 86.72
  Q 33.51 86.72 33.61 86.69
  Q 33.63 86.69 33.75 86.57
  Q 48.90 72.27 57.73 56.26
  C 64.25 44.45 67.68 28.40 59.39 16.38
  Q 50.21 3.08 33.75 2.49
  Q 33.62 2.48 33.53 2.48
  Q 33.44 2.48 33.31 2.48
  Q 16.85 3.03 7.63 16.30
  C -0.69 28.30 2.69 44.36 9.17 56.19
  Q 17.95 72.22 33.06 86.57
  Q 33.18 86.69 33.19 86.69
  Q 33.30 86.72 33.40 86.72
  Z"
/>
<path fill="#498c97" d="
  M 33.53 2.48
  Q 33.62 2.48 33.75 2.49
  Q 50.21 3.08 59.39 16.38
  C 67.68 28.40 64.25 44.45 57.73 56.26
  Q 48.90 72.27 33.75 86.57
  Q 33.63 86.69 33.61 86.69
  Q 33.51 86.72 33.40 86.72
  Q 33.30 86.72 33.19 86.69
  Q 33.18 86.69 33.06 86.57
  Q 17.95 72.22 9.17 56.19
  C 2.69 44.36 -0.69 28.30 7.63 16.30
  Q 16.85 3.03 33.31 2.48
  Q 33.44 2.48 33.53 2.48
  Z
  M 32.97 31.23
  Q 38.40 31.23 39.81 31.92
  C 41.84 32.90 49.57 35.62 49.64 31.52
  C 49.82 22.02 42.09 15.80 32.97 15.80
  C 23.85 15.79 16.13 22.01 16.30 31.51
  C 16.37 35.61 24.10 32.90 26.13 31.91
  Q 27.55 31.23 32.97 31.23
  Z
  M 32.98 52.23
  C 35.27 52.23 39.52 51.60 37.29 48.15
  Q 36.56 47.03 36.45 46.77
  A 4.16 4.10 -58.3 0 1 36.06 45.06
  L 35.97 35.66
  A 0.56 0.56 0.0 0 0 35.48 35.10
  Q 34.63 34.98 32.97 34.98
  Q 31.31 34.98 30.46 35.10
  A 0.56 0.56 0.0 0 0 29.97 35.66
  L 29.89 45.06
  A 4.16 4.10 58.2 0 1 29.50 46.77
  Q 29.39 47.03 28.66 48.15
  C 26.43 51.60 30.68 52.24 32.98 52.23
  Z"
/>
<path fill="#fff8ec" d="
  M 32.97 15.80
  C 42.09 15.80 49.82 22.02 49.64 31.52
  C 49.57 35.62 41.84 32.90 39.81 31.92
  Q 38.40 31.23 32.97 31.23
  Q 27.55 31.23 26.13 31.91
  C 24.10 32.90 16.37 35.61 16.30 31.51
  C 16.13 22.01 23.85 15.79 32.97 15.80
  Z
  M 43.86 24.01
  A 1.69 1.69 0.0 0 0 42.17 22.32
  A 1.69 1.69 0.0 0 0 40.48 24.01
  A 1.69 1.69 0.0 0 0 42.17 25.70
  A 1.69 1.69 0.0 0 0 43.86 24.01
  Z
  M 39.48 26.53
  A 1.67 1.67 0.0 0 0 37.81 24.86
  A 1.67 1.67 0.0 0 0 36.14 26.53
  A 1.67 1.67 0.0 0 0 37.81 28.20
  A 1.67 1.67 0.0 0 0 39.48 26.53
  Z"
/>
<circle fill="#498c97" cx="42.17" cy="24.01" r="1.69"/>
<circle fill="#498c97" cx="37.81" cy="26.53" r="1.67"/>
<path fill="#fff8ec" d="
  M 32.97 34.98
  Q 34.63 34.98 35.48 35.10
  A 0.56 0.56 0.0 0 1 35.97 35.66
  L 36.06 45.06
  A 4.16 4.10 -58.3 0 0 36.45 46.77
  Q 36.56 47.03 37.29 48.15
  C 39.52 51.60 35.27 52.23 32.98 52.23
  C 30.68 52.24 26.43 51.60 28.66 48.15
  Q 29.39 47.03 29.50 46.77
  A 4.16 4.10 58.2 0 0 29.89 45.06
  L 29.97 35.66
  A 0.56 0.56 0.0 0 1 30.46 35.10
  Q 31.31 34.98 32.97 34.98
  Z"
/>
</svg>
