<?xml version="1.0" encoding="UTF-8" standalone="no"?>
<!DOCTYPE svg PUBLIC "-//W3C//DTD SVG 1.1//EN" "http://www.w3.org/Graphics/SVG/1.1/DTD/svg11.dtd">
<svg xmlns="http://www.w3.org/2000/svg" version="1.1" viewBox="0.00 0.00 66.00 88.00">
<g stroke-width="2.00" fill="none" stroke-linecap="butt">
<path stroke="#574f7b" vector-effect="non-scaling-stroke" d="
  M 33.40 86.66
  Q 33.47 86.66 33.52 86.65
  A 0.23 0.02 -41.0 0 0 33.68 86.53
  C 51.68 70.46 78.74 34.42 54.95 11.17
  C 49.30 5.64 41.57 2.50 33.54 2.49
  C 25.50 2.48 17.76 5.59 12.10 11.10
  C -11.77 34.27 15.18 70.40 33.12 86.53
  A 0.23 0.02 41.2 0 0 33.29 86.65
  Q 33.34 86.66 33.40 86.66"
/>
<path stroke="#bab0c7" vector-effect="non-scaling-stroke" d="
  M 28.86 17.07
  C 22.70 22.63 10.49 33.97 16.26 42.43
  C 21.68 50.36 32.71 52.56 41.80 49.81
  C 47.43 48.11 52.66 43.32 50.79 36.91
  C 49.79 33.47 45.75 30.69 42.76 28.98
  Q 35.54 24.86 33.83 23.75
  Q 30.93 21.87 29.47 17.23
  A 0.38 0.37 -29.6 0 0 28.86 17.07"
/>
<path stroke="#bab0c7" vector-effect="non-scaling-stroke" d="
  M 28.14 23.33
  A 0.28 0.28 0.0 0 0 27.67 23.13
  C 24.83 25.70 16.28 33.80 20.86 37.66
  C 24.51 40.73 35.68 41.25 38.91 37.53
  C 42.28 33.66 34.97 30.98 31.93 29.34
  Q 28.17 27.32 28.14 23.33"
/>
</g>
<path fill="#3a3555" d="
  M 33.80 88.00
  L 33.12 88.00
  Q 15.80 72.58 6.29 53.22
  Q 3.39 47.31 2.01 39.01
  Q 0.33 28.85 4.13 20.29
  C 15.34 -4.94 51.30 -4.93 62.84 20.26
  C 66.61 28.49 66.00 38.52 63.05 47.02
  C 57.63 62.64 45.92 76.96 33.80 88.00
  Z
  M 33.40 86.66
  Q 33.47 86.66 33.52 86.65
  A 0.23 0.02 -41.0 0 0 33.68 86.53
  C 51.68 70.46 78.74 34.42 54.95 11.17
  C 49.30 5.64 41.57 2.50 33.54 2.49
  C 25.50 2.48 17.76 5.59 12.10 11.10
  C -11.77 34.27 15.18 70.40 33.12 86.53
  A 0.23 0.02 41.2 0 0 33.29 86.65
  Q 33.34 86.66 33.40 86.66
  Z"
/>
<path fill="#7468a1" d="
  M 33.54 2.49
  C 41.57 2.50 49.30 5.64 54.95 11.17
  C 78.74 34.42 51.68 70.46 33.68 86.53
  A 0.23 0.02 -41.0 0 1 33.52 86.65
  Q 33.47 86.66 33.40 86.66
  Q 33.34 86.66 33.29 86.65
  A 0.23 0.02 41.2 0 1 33.12 86.53
  C 15.18 70.40 -11.77 34.27 12.10 11.10
  C 17.76 5.59 25.50 2.48 33.54 2.49
  Z
  M 28.86 17.07
  C 22.70 22.63 10.49 33.97 16.26 42.43
  C 21.68 50.36 32.71 52.56 41.80 49.81
  C 47.43 48.11 52.66 43.32 50.79 36.91
  C 49.79 33.47 45.75 30.69 42.76 28.98
  Q 35.54 24.86 33.83 23.75
  Q 30.93 21.87 29.47 17.23
  A 0.38 0.37 -29.6 0 0 28.86 17.07
  Z"
/>
<path fill="#fff8ec" d="
  M 29.47 17.23
  Q 30.93 21.87 33.83 23.75
  Q 35.54 24.86 42.76 28.98
  C 45.75 30.69 49.79 33.47 50.79 36.91
  C 52.66 43.32 47.43 48.11 41.80 49.81
  C 32.71 52.56 21.68 50.36 16.26 42.43
  C 10.49 33.97 22.70 22.63 28.86 17.07
  A 0.38 0.37 -29.6 0 1 29.47 17.23
  Z
  M 28.14 23.33
  A 0.28 0.28 0.0 0 0 27.67 23.13
  C 24.83 25.70 16.28 33.80 20.86 37.66
  C 24.51 40.73 35.68 41.25 38.91 37.53
  C 42.28 33.66 34.97 30.98 31.93 29.34
  Q 28.17 27.32 28.14 23.33
  Z"
/>
<path fill="#7468a1" d="
  M 28.14 23.33
  Q 28.17 27.32 31.93 29.34
  C 34.97 30.98 42.28 33.66 38.91 37.53
  C 35.68 41.25 24.51 40.73 20.86 37.66
  C 16.28 33.80 24.83 25.70 27.67 23.13
  A 0.28 0.28 0.0 0 1 28.14 23.33
  Z"
/>
</svg>
