<?xml version="1.0" encoding="UTF-8" standalone="no"?>
<!DOCTYPE svg PUBLIC "-//W3C//DTD SVG 1.1//EN" "http://www.w3.org/Graphics/SVG/1.1/DTD/svg11.dtd">
<svg xmlns="http://www.w3.org/2000/svg" version="1.1" viewBox="0.00 0.00 66.00 88.00">
<g stroke-width="2.00" fill="none" stroke-linecap="butt">
<path stroke="#21303f" vector-effect="non-scaling-stroke" d="
  M 33.41 86.58
  Q 33.55 86.58 33.69 86.54
  A 0.05 0.02 -58.4 0 0 33.71 86.53
  Q 47.34 73.96 56.37 58.63
  C 62.69 47.90 67.51 32.54 61.77 20.76
  Q 53.41 3.62 34.00 2.49
  Q 33.69 2.47 33.52 2.47
  Q 33.35 2.47 33.03 2.49
  Q 13.62 3.57 5.22 20.69
  C -0.55 32.45 4.23 47.83 10.52 58.57
  Q 19.51 73.93 33.11 86.53
  A 0.05 0.02 58.6 0 0 33.13 86.54
  Q 33.27 86.58 33.41 86.58"
/>
<path stroke="#969c9f" vector-effect="non-scaling-stroke" d="
  M 27.58 25.74
  A 2.74 2.73 -67.2 0 0 29.50 24.95
  L 31.56 22.89
  A 0.59 0.58 -44.7 0 1 32.39 22.89
  L 36.76 27.26
  A 2.74 2.73 67.2 0 0 38.68 28.05
  L 41.43 28.05
  A 0.36 0.36 0.0 0 0 41.68 27.44
  L 33.15 18.92
  A 1.68 1.67 -44.9 0 0 30.78 18.92
  L 24.52 25.17
  A 0.33 0.33 0.0 0 0 24.75 25.74
  L 27.58 25.74"
/>
<path stroke="#969c9f" vector-effect="non-scaling-stroke" d="
  M 14.67 34.38
  Q 14.67 38.95 14.75 40.48
  A 0.53 0.52 -1.4 0 0 15.27 40.98
  L 17.75 40.98
  A 0.88 0.86 26.2 0 0 18.27 40.81
  L 19.92 39.54
  A 1.08 1.05 -64.2 0 1 20.55 39.31
  Q 24.48 39.22 31.19 39.24
  Q 32.09 39.24 32.52 38.53
  Q 33.43 37.02 35.50 37.02
  Q 39.91 37.03 41.90 36.87
  A 1.90 1.88 27.8 0 0 42.72 36.62
  Q 47.00 34.17 49.56 37.94
  A 0.97 0.97 0.0 0 0 51.34 37.42
  Q 51.34 37.40 51.34 34.37
  Q 51.34 31.33 51.34 31.31
  A 0.97 0.97 0.0 0 0 49.56 30.79
  Q 47.00 34.57 42.72 32.12
  A 1.90 1.88 -27.8 0 0 41.90 31.87
  Q 39.91 31.71 35.50 31.72
  Q 33.43 31.72 32.52 30.21
  Q 32.09 29.51 31.19 29.51
  Q 24.48 29.53 20.55 29.44
  A 1.08 1.05 64.2 0 1 19.92 29.21
  L 18.27 27.94
  A 0.88 0.86 -26.3 0 0 17.75 27.77
  L 15.27 27.78
  A 0.53 0.52 1.4 0 0 14.74 28.27
  Q 14.66 29.81 14.67 34.38"
/>
<path stroke="#969c9f" vector-effect="non-scaling-stroke" d="
  M 27.57 42.97
  L 24.74 42.96
  A 0.33 0.33 0.0 0 0 24.50 43.53
  L 30.75 49.81
  A 1.68 1.67 45.1 0 0 33.12 49.83
  L 41.70 41.33
  A 0.36 0.36 0.0 0 0 41.45 40.72
  L 38.70 40.71
  A 2.74 2.73 -67.0 0 0 36.77 41.49
  L 32.38 45.85
  A 0.59 0.58 44.9 0 1 31.54 45.84
  L 29.49 43.77
  A 2.74 2.73 67.5 0 0 27.57 42.97"
/>
</g>
<path fill="#16212b" d="
  M 33.80 88.00
  L 33.04 88.00
  C 16.46 72.93 -7.56 42.72 4.90 18.69
  Q 11.65 5.66 26.64 2.06
  C 37.38 -0.52 49.75 3.38 57.27 11.78
  Q 67.82 23.56 64.84 39.76
  Q 62.53 52.33 54.57 64.07
  Q 45.67 77.20 33.80 88.00
  Z
  M 33.41 86.58
  Q 33.55 86.58 33.69 86.54
  A 0.05 0.02 -58.4 0 0 33.71 86.53
  Q 47.34 73.96 56.37 58.63
  C 62.69 47.90 67.51 32.54 61.77 20.76
  Q 53.41 3.62 34.00 2.49
  Q 33.69 2.47 33.52 2.47
  Q 33.35 2.47 33.03 2.49
  Q 13.62 3.57 5.22 20.69
  C -0.55 32.45 4.23 47.83 10.52 58.57
  Q 19.51 73.93 33.11 86.53
  A 0.05 0.02 58.6 0 0 33.13 86.54
  Q 33.27 86.58 33.41 86.58
  Z"
/>
<path fill="#2c3f52" d="
  M 33.52 2.47
  Q 33.69 2.47 34.00 2.49
  Q 53.41 3.62 61.77 20.76
  C 67.51 32.54 62.69 47.90 56.37 58.63
  Q 47.34 73.96 33.71 86.53
  A 0.05 0.02 -58.4 0 1 33.69 86.54
  Q 33.55 86.58 33.41 86.58
  Q 33.27 86.58 33.13 86.54
  A 0.05 0.02 58.6 0 1 33.11 86.53
  Q 19.51 73.93 10.52 58.57
  C 4.23 47.83 -0.55 32.45 5.22 20.69
  Q 13.62 3.57 33.03 2.49
  Q 33.35 2.47 33.52 2.47
  Z
  M 27.58 25.74
  A 2.74 2.73 -67.2 0 0 29.50 24.95
  L 31.56 22.89
  A 0.59 0.58 -44.7 0 1 32.39 22.89
  L 36.76 27.26
  A 2.74 2.73 67.2 0 0 38.68 28.05
  L 41.43 28.05
  A 0.36 0.36 0.0 0 0 41.68 27.44
  L 33.15 18.92
  A 1.68 1.67 -44.9 0 0 30.78 18.92
  L 24.52 25.17
  A 0.33 0.33 0.0 0 0 24.75 25.74
  L 27.58 25.74
  Z
  M 14.67 34.38
  Q 14.67 38.95 14.75 40.48
  A 0.53 0.52 -1.4 0 0 15.27 40.98
  L 17.75 40.98
  A 0.88 0.86 26.2 0 0 18.27 40.81
  L 19.92 39.54
  A 1.08 1.05 -64.2 0 1 20.55 39.31
  Q 24.48 39.22 31.19 39.24
  Q 32.09 39.24 32.52 38.53
  Q 33.43 37.02 35.50 37.02
  Q 39.91 37.03 41.90 36.87
  A 1.90 1.88 27.8 0 0 42.72 36.62
  Q 47.00 34.17 49.56 37.94
  A 0.97 0.97 0.0 0 0 51.34 37.42
  Q 51.34 37.40 51.34 34.37
  Q 51.34 31.33 51.34 31.31
  A 0.97 0.97 0.0 0 0 49.56 30.79
  Q 47.00 34.57 42.72 32.12
  A 1.90 1.88 -27.8 0 0 41.90 31.87
  Q 39.91 31.71 35.50 31.72
  Q 33.43 31.72 32.52 30.21
  Q 32.09 29.51 31.19 29.51
  Q 24.48 29.53 20.55 29.44
  A 1.08 1.05 64.2 0 1 19.92 29.21
  L 18.27 27.94
  A 0.88 0.86 -26.3 0 0 17.75 27.77
  L 15.27 27.78
  A 0.53 0.52 1.4 0 0 14.74 28.27
  Q 14.66 29.81 14.67 34.38
  Z
  M 27.57 42.97
  L 24.74 42.96
  A 0.33 0.33 0.0 0 0 24.50 43.53
  L 30.75 49.81
  A 1.68 1.67 45.1 0 0 33.12 49.83
  L 41.70 41.33
  A 0.36 0.36 0.0 0 0 41.45 40.72
  L 38.70 40.71
  A 2.74 2.73 -67.0 0 0 36.77 41.49
  L 32.38 45.85
  A 0.59 0.58 44.9 0 1 31.54 45.84
  L 29.49 43.77
  A 2.74 2.73 67.5 0 0 27.57 42.97
  Z"
/>
<path fill="#fff8ec" d="
  M 27.58 25.74
  L 24.75 25.74
  A 0.33 0.33 0.0 0 1 24.52 25.17
  L 30.78 18.92
  A 1.68 1.67 -44.9 0 1 33.15 18.92
  L 41.68 27.44
  A 0.36 0.36 0.0 0 1 41.43 28.05
  L 38.68 28.05
  A 2.74 2.73 67.2 0 1 36.76 27.26
  L 32.39 22.89
  A 0.59 0.58 -44.7 0 0 31.56 22.89
  L 29.50 24.95
  A 2.74 2.73 -67.2 0 1 27.58 25.74
  Z"
/>
<path fill="#fff8ec" d="
  M 51.34 34.37
  Q 51.34 37.40 51.34 37.42
  A 0.97 0.97 0.0 0 1 49.56 37.94
  Q 47.00 34.17 42.72 36.62
  A 1.90 1.88 27.8 0 1 41.90 36.87
  Q 39.91 37.03 35.50 37.02
  Q 33.43 37.02 32.52 38.53
  Q 32.09 39.24 31.19 39.24
  Q 24.48 39.22 20.55 39.31
  A 1.08 1.05 -64.2 0 0 19.92 39.54
  L 18.27 40.81
  A 0.88 0.86 26.2 0 1 17.75 40.98
  L 15.27 40.98
  A 0.53 0.52 -1.4 0 1 14.75 40.48
  Q 14.67 38.95 14.67 34.38
  Q 14.66 29.81 14.74 28.27
  A 0.53 0.52 1.4 0 1 15.27 27.78
  L 17.75 27.77
  A 0.88 0.86 -26.3 0 1 18.27 27.94
  L 19.92 29.21
  A 1.08 1.05 64.2 0 0 20.55 29.44
  Q 24.48 29.53 31.19 29.51
  Q 32.09 29.51 32.52 30.21
  Q 33.43 31.72 35.50 31.72
  Q 39.91 31.71 41.90 31.87
  A 1.90 1.88 -27.8 0 1 42.72 32.12
  Q 47.00 34.57 49.56 30.79
  A 0.97 0.97 0.0 0 1 51.34 31.31
  Q 51.34 31.33 51.34 34.37
  Z"
/>
<path fill="#fff8ec" d="
  M 27.57 42.97
  A 2.74 2.73 67.5 0 1 29.49 43.77
  L 31.54 45.84
  A 0.59 0.58 44.9 0 0 32.38 45.85
  L 36.77 41.49
  A 2.74 2.73 -67.0 0 1 38.70 40.71
  L 41.45 40.72
  A 0.36 0.36 0.0 0 1 41.70 41.33
  L 33.12 49.83
  A 1.68 1.67 45.1 0 1 30.75 49.81
  L 24.50 43.53
  A 0.33 0.33 0.0 0 1 24.74 42.96
  L 27.57 42.97
  Z"
/>
</svg>
