<?xml version="1.0" encoding="UTF-8" standalone="no"?>
<!DOCTYPE svg PUBLIC "-//W3C//DTD SVG 1.1//EN" "http://www.w3.org/Graphics/SVG/1.1/DTD/svg11.dtd">
<svg xmlns="http://www.w3.org/2000/svg" version="1.1" viewBox="0.00 0.00 66.00 88.00">
<g stroke-width="2.00" fill="none" stroke-linecap="butt">
<path stroke="#574f7b" vector-effect="non-scaling-stroke" d="
  M 33.41 86.66
  Q 33.47 86.66 33.52 86.65
  A 0.27 0.06 -45.3 0 0 33.69 86.54
  C 47.38 74.02 63.53 53.76 64.21 34.51
  C 64.72 20.10 56.44 8.68 43.22 4.08
  Q 38.75 2.53 33.54 2.52
  Q 28.33 2.51 23.85 4.05
  C 10.62 8.61 2.30 20.00 2.76 34.41
  C 3.38 53.67 19.47 73.98 33.12 86.54
  A 0.27 0.06 45.5 0 0 33.29 86.65
  Q 33.34 86.66 33.41 86.66"
/>
<path stroke="#bab0c7" vector-effect="non-scaling-stroke" d="
  M 28.47 41.56
  L 33.35 36.67
  A 1.20 1.20 0.0 0 1 34.36 36.33
  L 41.96 37.29
  A 1.85 1.85 0.0 0 0 43.51 36.74
  L 50.41 29.69
  A 1.69 1.64 76.9 0 0 50.79 29.06
  Q 51.43 27.07 49.79 25.45
  Q 45.52 21.24 41.26 17.02
  Q 38.63 14.41 35.92 17.10
  Q 32.56 20.46 29.87 23.09
  A 1.90 1.89 -26.4 0 0 29.32 24.70
  L 30.35 32.31
  A 1.11 1.09 64.1 0 1 30.04 33.23
  L 16.04 47.23
  A 1.22 1.21 -45.2 0 0 16.04 48.94
  L 17.72 50.62
  A 1.12 1.12 0.0 0 0 19.30 50.62
  L 20.57 49.35
  A 0.49 0.48 44.6 0 1 21.26 49.35
  L 23.87 51.96
  A 0.93 0.93 0.0 0 0 25.19 51.96
  L 26.66 50.49
  A 0.94 0.93 45.2 0 0 26.66 49.16
  L 24.17 46.67
  A 0.64 0.63 45.3 0 1 24.17 45.78
  L 24.75 45.20
  A 0.64 0.64 0.0 0 1 25.65 45.20
  L 27.37 46.92
  A 0.66 0.66 0.0 0 0 28.31 46.92
  L 29.99 45.24
  A 0.91 0.91 0.0 0 0 29.99 43.96
  L 28.47 42.44
  A 0.62 0.62 0.0 0 1 28.47 41.56"
/>
<path stroke="#bab0c7" vector-effect="non-scaling-stroke" d="
  M 35.17 31.37
  Q 35.25 31.45 35.28 31.46
  Q 37.02 31.90 40.59 32.40
  A 1.09 1.06 25.8 0 0 41.49 32.10
  L 45.19 28.40
  A 0.58 0.57 45.4 0 0 45.19 27.59
  Q 45.02 27.42 42.18 24.51
  Q 39.35 21.61 39.17 21.43
  A 0.58 0.57 46.0 0 0 38.37 21.42
  L 34.58 25.03
  A 1.09 1.06 65.5 0 0 34.26 25.92
  Q 34.68 29.50 35.08 31.25
  Q 35.08 31.28 35.17 31.37"
/>
</g>
<path fill="#3a3554" d="
  M 33.77 88.00
  L 33.14 88.00
  Q 15.61 72.49 6.00 52.51
  Q 2.24 44.69 1.62 35.22
  Q 1.01 25.78 5.26 17.99
  C 11.40 6.75 23.67 0.19 36.85 1.51
  C 50.92 2.92 61.60 12.86 64.84 26.39
  Q 66.12 31.72 64.76 40.37
  Q 63.42 48.83 57.55 58.84
  Q 47.97 75.17 33.77 88.00
  Z
  M 33.41 86.66
  Q 33.47 86.66 33.52 86.65
  A 0.27 0.06 -45.3 0 0 33.69 86.54
  C 47.38 74.02 63.53 53.76 64.21 34.51
  C 64.72 20.10 56.44 8.68 43.22 4.08
  Q 38.75 2.53 33.54 2.52
  Q 28.33 2.51 23.85 4.05
  C 10.62 8.61 2.30 20.00 2.76 34.41
  C 3.38 53.67 19.47 73.98 33.12 86.54
  A 0.27 0.06 45.5 0 0 33.29 86.65
  Q 33.34 86.66 33.41 86.66
  Z"
/>
<path fill="#7468a1" d="
  M 33.54 2.52
  Q 38.75 2.53 43.22 4.08
  C 56.44 8.68 64.72 20.10 64.21 34.51
  C 63.53 53.76 47.38 74.02 33.69 86.54
  A 0.27 0.06 -45.3 0 1 33.52 86.65
  Q 33.47 86.66 33.41 86.66
  Q 33.34 86.66 33.29 86.65
  A 0.27 0.06 45.5 0 1 33.12 86.54
  C 19.47 73.98 3.38 53.67 2.76 34.41
  C 2.30 20.00 10.62 8.61 23.85 4.05
  Q 28.33 2.51 33.54 2.52
  Z
  M 28.47 41.56
  L 33.35 36.67
  A 1.20 1.20 0.0 0 1 34.36 36.33
  L 41.96 37.29
  A 1.85 1.85 0.0 0 0 43.51 36.74
  L 50.41 29.69
  A 1.69 1.64 76.9 0 0 50.79 29.06
  Q 51.43 27.07 49.79 25.45
  Q 45.52 21.24 41.26 17.02
  Q 38.63 14.41 35.92 17.10
  Q 32.56 20.46 29.87 23.09
  A 1.90 1.89 -26.4 0 0 29.32 24.70
  L 30.35 32.31
  A 1.11 1.09 64.1 0 1 30.04 33.23
  L 16.04 47.23
  A 1.22 1.21 -45.2 0 0 16.04 48.94
  L 17.72 50.62
  A 1.12 1.12 0.0 0 0 19.30 50.62
  L 20.57 49.35
  A 0.49 0.48 44.6 0 1 21.26 49.35
  L 23.87 51.96
  A 0.93 0.93 0.0 0 0 25.19 51.96
  L 26.66 50.49
  A 0.94 0.93 45.2 0 0 26.66 49.16
  L 24.17 46.67
  A 0.64 0.63 45.3 0 1 24.17 45.78
  L 24.75 45.20
  A 0.64 0.64 0.0 0 1 25.65 45.20
  L 27.37 46.92
  A 0.66 0.66 0.0 0 0 28.31 46.92
  L 29.99 45.24
  A 0.91 0.91 0.0 0 0 29.99 43.96
  L 28.47 42.44
  A 0.62 0.62 0.0 0 1 28.47 41.56
  Z"
/>
<path fill="#fff8ec" d="
  M 28.47 42.44
  L 29.99 43.96
  A 0.91 0.91 0.0 0 1 29.99 45.24
  L 28.31 46.92
  A 0.66 0.66 0.0 0 1 27.37 46.92
  L 25.65 45.20
  A 0.64 0.64 0.0 0 0 24.75 45.20
  L 24.17 45.78
  A 0.64 0.63 45.3 0 0 24.17 46.67
  L 26.66 49.16
  A 0.94 0.93 45.2 0 1 26.66 50.49
  L 25.19 51.96
  A 0.93 0.93 0.0 0 1 23.87 51.96
  L 21.26 49.35
  A 0.49 0.48 44.6 0 0 20.57 49.35
  L 19.30 50.62
  A 1.12 1.12 0.0 0 1 17.72 50.62
  L 16.04 48.94
  A 1.22 1.21 -45.2 0 1 16.04 47.23
  L 30.04 33.23
  A 1.11 1.09 64.1 0 0 30.35 32.31
  L 29.32 24.70
  A 1.90 1.89 -26.4 0 1 29.87 23.09
  Q 32.56 20.46 35.92 17.10
  Q 38.63 14.41 41.26 17.02
  Q 45.52 21.24 49.79 25.45
  Q 51.43 27.07 50.79 29.06
  A 1.69 1.64 76.9 0 1 50.41 29.69
  L 43.51 36.74
  A 1.85 1.85 0.0 0 1 41.96 37.29
  L 34.36 36.33
  A 1.20 1.20 0.0 0 0 33.35 36.67
  L 28.47 41.56
  A 0.62 0.62 0.0 0 0 28.47 42.44
  Z
  M 35.17 31.37
  Q 35.25 31.45 35.28 31.46
  Q 37.02 31.90 40.59 32.40
  A 1.09 1.06 25.8 0 0 41.49 32.10
  L 45.19 28.40
  A 0.58 0.57 45.4 0 0 45.19 27.59
  Q 45.02 27.42 42.18 24.51
  Q 39.35 21.61 39.17 21.43
  A 0.58 0.57 46.0 0 0 38.37 21.42
  L 34.58 25.03
  A 1.09 1.06 65.5 0 0 34.26 25.92
  Q 34.68 29.50 35.08 31.25
  Q 35.08 31.28 35.17 31.37
  Z"
/>
<path fill="#7468a1" d="
  M 42.18 24.51
  Q 45.02 27.42 45.19 27.59
  A 0.58 0.57 45.4 0 1 45.19 28.40
  L 41.49 32.10
  A 1.09 1.06 25.8 0 1 40.59 32.40
  Q 37.02 31.90 35.28 31.46
  Q 35.25 31.45 35.17 31.37
  Q 35.08 31.28 35.08 31.25
  Q 34.68 29.50 34.26 25.92
  A 1.09 1.06 65.5 0 1 34.58 25.03
  L 38.37 21.42
  A 0.58 0.57 46.0 0 1 39.17 21.43
  Q 39.35 21.61 42.18 24.51
  Z"
/>
</svg>
