<?xml version="1.0" encoding="UTF-8" standalone="no"?>
<!DOCTYPE svg PUBLIC "-//W3C//DTD SVG 1.1//EN" "http://www.w3.org/Graphics/SVG/1.1/DTD/svg11.dtd">
<svg xmlns="http://www.w3.org/2000/svg" version="1.1" viewBox="0.00 0.00 66.00 88.00">
<g stroke-width="2.00" fill="none" stroke-linecap="butt">
<path stroke="#816c3e" vector-effect="non-scaling-stroke" d="
  M 33.38 86.69
  Q 33.50 86.69 33.60 86.67
  Q 33.66 86.65 33.76 86.56
  C 46.25 74.76 58.25 59.91 62.82 43.51
  C 66.43 30.58 63.48 17.86 52.91 9.31
  C 47.70 5.10 40.73 2.47 33.55 2.45
  C 26.38 2.44 19.40 5.04 14.17 9.23
  C 3.57 17.74 0.56 30.45 4.12 43.39
  C 8.63 59.81 20.56 74.71 33.01 86.56
  Q 33.11 86.65 33.17 86.67
  Q 33.26 86.69 33.38 86.69"
/>
<path stroke="#d5c4a0" vector-effect="non-scaling-stroke" d="
  M 20.92 40.64
  L 17.91 42.38
  A 1.00 0.99 -15.3 0 0 17.41 43.24
  L 17.41 51.65
  A 0.59 0.58 0.0 0 0 18.00 52.23
  L 48.65 52.23
  A 0.46 0.46 0.0 0 0 49.11 51.77
  L 49.11 30.61
  A 0.97 0.96 15.3 0 0 48.63 29.78
  L 45.55 28.00
  A 0.29 0.29 0.0 0 1 45.55 27.49
  L 48.67 25.69
  A 0.94 0.94 0.0 0 0 48.67 24.06
  L 45.56 22.27
  A 0.38 0.37 45.3 0 1 45.56 21.62
  L 48.59 19.87
  A 1.05 1.04 75.3 0 0 49.12 18.96
  L 49.12 16.41
  A 0.65 0.64 -90.0 0 0 48.48 15.76
  L 18.06 15.76
  A 0.66 0.65 90.0 0 0 17.41 16.42
  L 17.41 37.36
  A 1.01 1.01 0.0 0 0 17.92 38.24
  L 20.92 39.97
  A 0.39 0.39 0.0 0 1 20.92 40.64"
/>
<path stroke="#d5c4a0" vector-effect="non-scaling-stroke" d="
  M 30.97 22.74
  Q 30.97 22.93 31.02 23.01
  Q 32.17 24.74 33.00 25.93
  A 0.25 0.10 -1.2 0 0 33.16 25.99
  Q 33.20 26.00 33.24 26.00
  Q 33.28 26.00 33.32 25.99
  A 0.25 0.10 1.9 0 0 33.49 25.93
  Q 34.33 24.75 35.50 23.04
  Q 35.56 22.96 35.56 22.77
  Q 35.56 22.58 35.51 22.50
  Q 34.36 20.77 33.53 19.58
  A 0.25 0.10 -1.2 0 0 33.36 19.51
  Q 33.33 19.51 33.28 19.51
  Q 33.24 19.51 33.20 19.51
  A 0.25 0.10 1.9 0 0 33.04 19.58
  Q 32.19 20.76 31.02 22.47
  Q 30.97 22.55 30.97 22.74"
/>
<path stroke="#d5c4a0" vector-effect="non-scaling-stroke" d="
  M 31.58 30.26
  A 0.52 0.52 0.0 0 0 31.06 29.74
  L 24.38 29.74
  A 0.52 0.52 0.0 0 0 23.86 30.26
  L 23.86 33.00
  A 0.52 0.52 0.0 0 0 24.38 33.52
  L 31.06 33.52
  A 0.52 0.52 0.0 0 0 31.58 33.00
  L 31.58 30.26"
/>
<path stroke="#d5c4a0" vector-effect="non-scaling-stroke" d="
  M 42.6474 30.2094
  A 0.45 0.45 0.0 0 0 42.1998 29.7570
  L 35.6999 29.7230
  A 0.45 0.45 0.0 0 0 35.2475 30.1706
  L 35.2326 33.0306
  A 0.45 0.45 0.0 0 0 35.6802 33.4830
  L 42.1801 33.5170
  A 0.45 0.45 0.0 0 0 42.6325 33.0694
  L 42.6474 30.2094"
/>
<path stroke="#d5c4a0" vector-effect="non-scaling-stroke" d="
  M 27.6348 35.9698
  A 0.46 0.46 0.0 0 0 27.1796 35.5050
  L 24.3398 35.4752
  A 0.46 0.46 0.0 0 0 23.8750 35.9304
  L 23.8452 38.7702
  A 0.46 0.46 0.0 0 0 24.3004 39.2350
  L 27.1402 39.2648
  A 0.46 0.46 0.0 0 0 27.6050 38.8096
  L 27.6348 35.9698"
/>
<path stroke="#d5c4a0" vector-effect="non-scaling-stroke" d="
  M 42.62 35.98
  A 0.49 0.49 0.0 0 0 42.13 35.49
  L 31.79 35.49
  A 0.49 0.49 0.0 0 0 31.30 35.98
  L 31.30 38.76
  A 0.49 0.49 0.0 0 0 31.79 39.25
  L 42.13 39.25
  A 0.49 0.49 0.0 0 0 42.62 38.76
  L 42.62 35.98"
/>
<path stroke="#d5c4a0" vector-effect="non-scaling-stroke" d="
  M 35.5223 41.7002
  A 0.45 0.45 0.0 0 0 35.0731 41.2494
  L 24.3131 41.2306
  A 0.45 0.45 0.0 0 0 23.8623 41.6798
  L 23.8577 44.2998
  A 0.45 0.45 0.0 0 0 24.3069 44.7506
  L 35.0669 44.7694
  A 0.45 0.45 0.0 0 0 35.5177 44.3202
  L 35.5223 41.7002"
/>
<path stroke="#d5c4a0" vector-effect="non-scaling-stroke" d="
  M 42.6446 41.6860
  A 0.41 0.41 0.0 0 0 42.2360 41.2746
  L 39.5960 41.2654
  A 0.41 0.41 0.0 0 0 39.1846 41.6740
  L 39.1754 44.3140
  A 0.41 0.41 0.0 0 0 39.5840 44.7254
  L 42.2240 44.7346
  A 0.41 0.41 0.0 0 0 42.6354 44.3260
  L 42.6446 41.6860"
/>
</g>
<path fill="#574828" d="
  M 33.78 88.00
  L 32.99 88.00
  C 21.74 77.67 12.29 65.86 5.78 51.77
  Q 2.15 43.93 1.57 34.97
  C 0.23 14.35 18.44 -1.50 38.96 1.80
  C 51.94 3.89 62.11 13.86 64.85 26.52
  C 67.14 37.11 63.38 48.91 57.55 58.84
  Q 47.97 75.17 33.78 88.00
  Z
  M 33.38 86.69
  Q 33.50 86.69 33.60 86.67
  Q 33.66 86.65 33.76 86.56
  C 46.25 74.76 58.25 59.91 62.82 43.51
  C 66.43 30.58 63.48 17.86 52.91 9.31
  C 47.70 5.10 40.73 2.47 33.55 2.45
  C 26.38 2.44 19.40 5.04 14.17 9.23
  C 3.57 17.74 0.56 30.45 4.12 43.39
  C 8.63 59.81 20.56 74.71 33.01 86.56
  Q 33.11 86.65 33.17 86.67
  Q 33.26 86.69 33.38 86.69
  Z"
/>
<path fill="#aa8f54" d="
  M 33.55 2.45
  C 40.73 2.47 47.70 5.10 52.91 9.31
  C 63.48 17.86 66.43 30.58 62.82 43.51
  C 58.25 59.91 46.25 74.76 33.76 86.56
  Q 33.66 86.65 33.60 86.67
  Q 33.50 86.69 33.38 86.69
  Q 33.26 86.69 33.17 86.67
  Q 33.11 86.65 33.01 86.56
  C 20.56 74.71 8.63 59.81 4.12 43.39
  C 0.56 30.45 3.57 17.74 14.17 9.23
  C 19.40 5.04 26.38 2.44 33.55 2.45
  Z
  M 20.92 40.64
  L 17.91 42.38
  A 1.00 0.99 -15.3 0 0 17.41 43.24
  L 17.41 51.65
  A 0.59 0.58 0.0 0 0 18.00 52.23
  L 48.65 52.23
  A 0.46 0.46 0.0 0 0 49.11 51.77
  L 49.11 30.61
  A 0.97 0.96 15.3 0 0 48.63 29.78
  L 45.55 28.00
  A 0.29 0.29 0.0 0 1 45.55 27.49
  L 48.67 25.69
  A 0.94 0.94 0.0 0 0 48.67 24.06
  L 45.56 22.27
  A 0.38 0.37 45.3 0 1 45.56 21.62
  L 48.59 19.87
  A 1.05 1.04 75.3 0 0 49.12 18.96
  L 49.12 16.41
  A 0.65 0.64 -90.0 0 0 48.48 15.76
  L 18.06 15.76
  A 0.66 0.65 90.0 0 0 17.41 16.42
  L 17.41 37.36
  A 1.01 1.01 0.0 0 0 17.92 38.24
  L 20.92 39.97
  A 0.39 0.39 0.0 0 1 20.92 40.64
  Z"
/>
<path fill="#fff8ec" d="
  M 20.92 39.97
  L 17.92 38.24
  A 1.01 1.01 0.0 0 1 17.41 37.36
  L 17.41 16.42
  A 0.66 0.65 -90.0 0 1 18.06 15.76
  L 48.48 15.76
  A 0.65 0.64 -90.0 0 1 49.12 16.41
  L 49.12 18.96
  A 1.05 1.04 75.3 0 1 48.59 19.87
  L 45.56 21.62
  A 0.38 0.37 45.3 0 0 45.56 22.27
  L 48.67 24.06
  A 0.94 0.94 0.0 0 1 48.67 25.69
  L 45.55 27.49
  A 0.29 0.29 0.0 0 0 45.55 28.00
  L 48.63 29.78
  A 0.97 0.96 15.3 0 1 49.11 30.61
  L 49.11 51.77
  A 0.46 0.46 0.0 0 1 48.65 52.23
  L 18.00 52.23
  A 0.59 0.58 -0.0 0 1 17.41 51.65
  L 17.41 43.24
  A 1.00 0.99 -15.3 0 1 17.91 42.38
  L 20.92 40.64
  A 0.39 0.39 0.0 0 0 20.92 39.97
  Z
  M 30.97 22.74
  Q 30.97 22.93 31.02 23.01
  Q 32.17 24.74 33.00 25.93
  A 0.25 0.10 -1.2 0 0 33.16 25.99
  Q 33.20 26.00 33.24 26.00
  Q 33.28 26.00 33.32 25.99
  A 0.25 0.10 1.9 0 0 33.49 25.93
  Q 34.33 24.75 35.50 23.04
  Q 35.56 22.96 35.56 22.77
  Q 35.56 22.58 35.51 22.50
  Q 34.36 20.77 33.53 19.58
  A 0.25 0.10 -1.2 0 0 33.36 19.51
  Q 33.33 19.51 33.28 19.51
  Q 33.24 19.51 33.20 19.51
  A 0.25 0.10 1.9 0 0 33.04 19.58
  Q 32.19 20.76 31.02 22.47
  Q 30.97 22.55 30.97 22.74
  Z
  M 31.58 30.26
  A 0.52 0.52 0.0 0 0 31.06 29.74
  L 24.38 29.74
  A 0.52 0.52 0.0 0 0 23.86 30.26
  L 23.86 33.00
  A 0.52 0.52 0.0 0 0 24.38 33.52
  L 31.06 33.52
  A 0.52 0.52 0.0 0 0 31.58 33.00
  L 31.58 30.26
  Z
  M 42.6474 30.2094
  A 0.45 0.45 0.0 0 0 42.1998 29.7570
  L 35.6999 29.7230
  A 0.45 0.45 0.0 0 0 35.2475 30.1706
  L 35.2326 33.0306
  A 0.45 0.45 0.0 0 0 35.6802 33.4830
  L 42.1801 33.5170
  A 0.45 0.45 0.0 0 0 42.6325 33.0694
  L 42.6474 30.2094
  Z
  M 27.6348 35.9698
  A 0.46 0.46 0.0 0 0 27.1796 35.5050
  L 24.3398 35.4752
  A 0.46 0.46 0.0 0 0 23.8750 35.9304
  L 23.8452 38.7702
  A 0.46 0.46 0.0 0 0 24.3004 39.2350
  L 27.1402 39.2648
  A 0.46 0.46 0.0 0 0 27.6050 38.8096
  L 27.6348 35.9698
  Z
  M 42.62 35.98
  A 0.49 0.49 0.0 0 0 42.13 35.49
  L 31.79 35.49
  A 0.49 0.49 0.0 0 0 31.30 35.98
  L 31.30 38.76
  A 0.49 0.49 0.0 0 0 31.79 39.25
  L 42.13 39.25
  A 0.49 0.49 0.0 0 0 42.62 38.76
  L 42.62 35.98
  Z
  M 35.5223 41.7002
  A 0.45 0.45 0.0 0 0 35.0731 41.2494
  L 24.3131 41.2306
  A 0.45 0.45 0.0 0 0 23.8623 41.6798
  L 23.8577 44.2998
  A 0.45 0.45 0.0 0 0 24.3069 44.7506
  L 35.0669 44.7694
  A 0.45 0.45 0.0 0 0 35.5177 44.3202
  L 35.5223 41.7002
  Z
  M 42.6446 41.6860
  A 0.41 0.41 0.0 0 0 42.2360 41.2746
  L 39.5960 41.2654
  A 0.41 0.41 0.0 0 0 39.1846 41.6740
  L 39.1754 44.3140
  A 0.41 0.41 0.0 0 0 39.5840 44.7254
  L 42.2240 44.7346
  A 0.41 0.41 0.0 0 0 42.6354 44.3260
  L 42.6446 41.6860
  Z"
/>
<path fill="#aa8f54" d="
  M 33.28 19.51
  Q 33.33 19.51 33.36 19.51
  A 0.25 0.10 -1.2 0 1 33.53 19.58
  Q 34.36 20.77 35.51 22.50
  Q 35.56 22.58 35.56 22.77
  Q 35.56 22.96 35.50 23.04
  Q 34.33 24.75 33.49 25.93
  A 0.25 0.10 1.9 0 1 33.32 25.99
  Q 33.28 26.00 33.24 26.00
  Q 33.20 26.00 33.16 25.99
  A 0.25 0.10 -1.2 0 1 33.00 25.93
  Q 32.17 24.74 31.02 23.01
  Q 30.97 22.93 30.97 22.74
  Q 30.97 22.55 31.02 22.47
  Q 32.19 20.76 33.04 19.58
  A 0.25 0.10 1.9 0 1 33.20 19.51
  Q 33.24 19.51 33.28 19.51
  Z"
/>
<rect fill="#aa8f54" x="23.86" y="29.74" width="7.72" height="3.78" rx="0.52"/>
<rect fill="#aa8f54" x="-3.70" y="-1.88" transform="translate(38.94,31.62) rotate(0.3)" width="7.40" height="3.76" rx="0.45"/>
<rect fill="#aa8f54" x="-1.88" y="-1.88" transform="translate(25.74,37.37) rotate(0.6)" width="3.76" height="3.76" rx="0.46"/>
<rect fill="#aa8f54" x="31.30" y="35.49" width="11.32" height="3.76" rx="0.49"/>
<rect fill="#aa8f54" x="-5.83" y="-1.76" transform="translate(29.69,43.00) rotate(0.1)" width="11.66" height="3.52" rx="0.45"/>
<rect fill="#aa8f54" x="-1.73" y="-1.73" transform="translate(40.91,43.00) rotate(0.2)" width="3.46" height="3.46" rx="0.41"/>
</svg>
