<?xml version="1.0" encoding="UTF-8" standalone="no"?>
<!DOCTYPE svg PUBLIC "-//W3C//DTD SVG 1.1//EN" "http://www.w3.org/Graphics/SVG/1.1/DTD/svg11.dtd">
<svg xmlns="http://www.w3.org/2000/svg" version="1.1" viewBox="0.00 0.00 66.00 88.00">
<g stroke-width="2.00" fill="none" stroke-linecap="butt">
<path stroke="#816c3e" vector-effect="non-scaling-stroke" d="
  M 33.38 86.69
  Q 33.50 86.69 33.60 86.67
  Q 33.62 86.66 33.75 86.55
  C 44.46 76.53 54.22 64.52 60.23 51.01
  C 64.21 42.05 65.92 31.27 62.33 22.10
  C 57.83 10.59 47.29 3.28 35.00 2.54
  Q 33.60 2.46 33.56 2.46
  Q 33.51 2.46 32.11 2.54
  C 19.82 3.22 9.25 10.49 4.70 21.98
  C 1.07 31.14 2.74 41.92 6.68 50.90
  C 12.64 64.43 22.35 76.48 33.02 86.55
  Q 33.15 86.66 33.17 86.67
  Q 33.26 86.69 33.38 86.69"
/>
<path stroke="#d5c4a0" vector-effect="non-scaling-stroke" d="
  M 24.70 30.91
  A 1.39 1.39 0.0 0 0 25.90 33.00
  L 40.54 33.02
  A 1.39 1.39 0.0 0 0 41.75 30.94
  L 34.45 18.24
  A 1.39 1.39 0.0 0 0 32.04 18.23
  L 24.70 30.91"
/>
<path stroke="#d5c4a0" vector-effect="non-scaling-stroke" d="
  M 30.71 50.00
  A 1.42 1.42 0.0 0 0 31.94 47.87
  L 24.67 35.29
  A 1.42 1.42 0.0 0 0 22.21 35.29
  L 14.94 47.88
  A 1.42 1.42 0.0 0 0 16.17 50.01
  L 30.71 50.00"
/>
<path stroke="#d5c4a0" vector-effect="non-scaling-stroke" d="
  M 50.33 50.02
  A 1.39 1.39 0.0 0 0 51.54 47.94
  L 44.24 35.24
  A 1.39 1.39 0.0 0 0 41.83 35.24
  L 34.49 47.91
  A 1.39 1.39 0.0 0 0 35.69 49.99
  L 50.33 50.02"
/>
</g>
<path fill="#574828" d="
  M 33.81 88.00
  L 32.99 88.00
  C 21.92 77.83 12.27 65.89 5.89 52.12
  Q 2.25 44.25 1.60 35.08
  C 0.20 15.41 17.01 -0.50 36.85 1.51
  C 53.55 3.19 66.17 17.47 65.46 34.17
  C 64.58 54.68 48.34 74.75 33.81 88.00
  Z
  M 33.38 86.69
  Q 33.50 86.69 33.60 86.67
  Q 33.62 86.66 33.75 86.55
  C 44.46 76.53 54.22 64.52 60.23 51.01
  C 64.21 42.05 65.92 31.27 62.33 22.10
  C 57.83 10.59 47.29 3.28 35.00 2.54
  Q 33.60 2.46 33.56 2.46
  Q 33.51 2.46 32.11 2.54
  C 19.82 3.22 9.25 10.49 4.70 21.98
  C 1.07 31.14 2.74 41.92 6.68 50.90
  C 12.64 64.43 22.35 76.48 33.02 86.55
  Q 33.15 86.66 33.17 86.67
  Q 33.26 86.69 33.38 86.69
  Z"
/>
<path fill="#aa8f54" d="
  M 33.56 2.46
  Q 33.60 2.46 35.00 2.54
  C 47.29 3.28 57.83 10.59 62.33 22.10
  C 65.92 31.27 64.21 42.05 60.23 51.01
  C 54.22 64.52 44.46 76.53 33.75 86.55
  Q 33.62 86.66 33.60 86.67
  Q 33.50 86.69 33.38 86.69
  Q 33.26 86.69 33.17 86.67
  Q 33.15 86.66 33.02 86.55
  C 22.35 76.48 12.64 64.43 6.68 50.90
  C 2.74 41.92 1.07 31.14 4.70 21.98
  C 9.25 10.49 19.82 3.22 32.11 2.54
  Q 33.51 2.46 33.56 2.46
  Z
  M 24.70 30.91
  A 1.39 1.39 0.0 0 0 25.90 33.00
  L 40.54 33.02
  A 1.39 1.39 0.0 0 0 41.75 30.94
  L 34.45 18.24
  A 1.39 1.39 0.0 0 0 32.04 18.23
  L 24.70 30.91
  Z
  M 30.71 50.00
  A 1.42 1.42 0.0 0 0 31.94 47.87
  L 24.67 35.29
  A 1.42 1.42 0.0 0 0 22.21 35.29
  L 14.94 47.88
  A 1.42 1.42 0.0 0 0 16.17 50.01
  L 30.71 50.00
  Z
  M 50.33 50.02
  A 1.39 1.39 0.0 0 0 51.54 47.94
  L 44.24 35.24
  A 1.39 1.39 0.0 0 0 41.83 35.24
  L 34.49 47.91
  A 1.39 1.39 0.0 0 0 35.69 49.99
  L 50.33 50.02
  Z"
/>
<path fill="#fff8ec" d="
  M 24.70 30.91
  L 32.04 18.23
  A 1.39 1.39 0.0 0 1 34.45 18.24
  L 41.75 30.94
  A 1.39 1.39 0.0 0 1 40.54 33.02
  L 25.90 33.00
  A 1.39 1.39 0.0 0 1 24.70 30.91
  Z"
/>
<path fill="#fff8ec" d="
  M 30.71 50.00
  L 16.17 50.01
  A 1.42 1.42 0.0 0 1 14.94 47.88
  L 22.21 35.29
  A 1.42 1.42 0.0 0 1 24.67 35.29
  L 31.94 47.87
  A 1.42 1.42 0.0 0 1 30.71 50.00
  Z"
/>
<path fill="#fff8ec" d="
  M 50.33 50.02
  L 35.69 49.99
  A 1.39 1.39 0.0 0 1 34.49 47.91
  L 41.83 35.24
  A 1.39 1.39 0.0 0 1 44.24 35.24
  L 51.54 47.94
  A 1.39 1.39 0.0 0 1 50.33 50.02
  Z"
/>
</svg>
