<?xml version="1.0" encoding="UTF-8" standalone="no"?>
<!DOCTYPE svg PUBLIC "-//W3C//DTD SVG 1.1//EN" "http://www.w3.org/Graphics/SVG/1.1/DTD/svg11.dtd">
<svg xmlns="http://www.w3.org/2000/svg" version="1.1" viewBox="0.00 0.00 66.00 88.00">
<g stroke-width="2.00" fill="none" stroke-linecap="butt">
<path stroke="#26433a" vector-effect="non-scaling-stroke" d="
  M 33.40 86.61
  C 33.57 86.61 33.70 86.61 33.81 86.50
  Q 49.99 70.89 57.65 56.39
  Q 62.58 47.07 63.79 38.82
  Q 66.90 17.61 48.59 6.42
  Q 42.40 2.63 33.53 2.62
  Q 24.67 2.61 18.47 6.37
  Q 0.12 17.51 3.17 38.73
  Q 4.35 46.98 9.25 56.32
  Q 16.87 70.84 33.00 86.50
  C 33.11 86.61 33.24 86.61 33.40 86.61"
/>
<path stroke="#99a89d" vector-effect="non-scaling-stroke" d="
  M 51.32 16.61
  A 1.84 1.84 0.0 0 0 49.48 14.77
  L 16.50 14.77
  A 1.84 1.84 0.0 0 0 14.66 16.61
  L 14.66 25.65
  A 1.84 1.84 0.0 0 0 16.50 27.49
  L 49.48 27.49
  A 1.84 1.84 0.0 0 0 51.32 25.65
  L 51.32 16.61"
/>
<path stroke="#99a89d" vector-effect="non-scaling-stroke" d="
  M 33.93 53.30
  L 40.70 46.58
  A 1.66 1.66 0.0 0 0 40.86 44.40
  L 40.75 44.26
  A 1.28 1.28 0.0 0 0 38.76 44.06
  L 35.58 47.27
  A 0.32 0.32 0.0 0 1 35.04 47.04
  L 35.03 34.41
  A 1.58 1.57 0.7 0 0 33.49 32.84
  L 33.43 32.84
  A 1.47 1.47 0.0 0 0 31.91 34.31
  L 31.87 47.11
  A 0.25 0.25 0.0 0 1 31.44 47.29
  L 27.71 43.56
  A 1.28 1.27 -44.8 0 0 25.90 43.56
  L 25.72 43.74
  A 1.60 1.60 0.0 0 0 25.72 46.00
  L 32.99 53.30
  A 0.66 0.66 0.0 0 0 33.93 53.30"
/>
</g>
<path fill="#192e27" d="
  M 33.80 88.00
  L 33.04 88.00
  C 21.86 77.84 12.08 65.68 5.74 51.77
  Q 2.83 45.39 1.95 38.76
  Q -0.12 23.24 8.72 12.91
  Q 17.96 2.11 32.02 1.37
  C 44.78 0.69 57.25 8.04 62.60 19.66
  C 73.74 43.85 50.37 72.93 33.80 88.00
  Z
  M 33.40 86.61
  C 33.57 86.61 33.70 86.61 33.81 86.50
  Q 49.99 70.89 57.65 56.39
  Q 62.58 47.07 63.79 38.82
  Q 66.90 17.61 48.59 6.42
  Q 42.40 2.63 33.53 2.62
  Q 24.67 2.61 18.47 6.37
  Q 0.12 17.51 3.17 38.73
  Q 4.35 46.98 9.25 56.32
  Q 16.87 70.84 33.00 86.50
  C 33.11 86.61 33.24 86.61 33.40 86.61
  Z"
/>
<path fill="#32574d" d="
  M 33.40 86.61
  C 33.24 86.61 33.11 86.61 33.00 86.50
  Q 16.87 70.84 9.25 56.32
  Q 4.35 46.98 3.17 38.73
  Q 0.12 17.51 18.47 6.37
  Q 24.67 2.61 33.53 2.62
  Q 42.40 2.63 48.59 6.42
  Q 66.90 17.61 63.79 38.82
  Q 62.58 47.07 57.65 56.39
  Q 49.99 70.89 33.81 86.50
  C 33.70 86.61 33.57 86.61 33.40 86.61
  Z
  M 51.32 16.61
  A 1.84 1.84 0.0 0 0 49.48 14.77
  L 16.50 14.77
  A 1.84 1.84 0.0 0 0 14.66 16.61
  L 14.66 25.65
  A 1.84 1.84 0.0 0 0 16.50 27.49
  L 49.48 27.49
  A 1.84 1.84 0.0 0 0 51.32 25.65
  L 51.32 16.61
  Z
  M 33.93 53.30
  L 40.70 46.58
  A 1.66 1.66 0.0 0 0 40.86 44.40
  L 40.75 44.26
  A 1.28 1.28 0.0 0 0 38.76 44.06
  L 35.58 47.27
  A 0.32 0.32 0.0 0 1 35.04 47.04
  L 35.03 34.41
  A 1.58 1.57 0.7 0 0 33.49 32.84
  L 33.43 32.84
  A 1.47 1.47 0.0 0 0 31.91 34.31
  L 31.87 47.11
  A 0.25 0.25 0.0 0 1 31.44 47.29
  L 27.71 43.56
  A 1.28 1.27 -44.8 0 0 25.90 43.56
  L 25.72 43.74
  A 1.60 1.60 0.0 0 0 25.72 46.00
  L 32.99 53.30
  A 0.66 0.66 0.0 0 0 33.93 53.30
  Z"
/>
<rect fill="#fff8ec" x="14.66" y="14.77" width="36.66" height="12.72" rx="1.84"/>
<path fill="#fff8ec" d="
  M 32.99 53.30
  L 25.72 46.00
  A 1.60 1.60 0.0 0 1 25.72 43.74
  L 25.90 43.56
  A 1.28 1.27 -44.8 0 1 27.71 43.56
  L 31.44 47.29
  A 0.25 0.25 0.0 0 0 31.87 47.11
  L 31.91 34.31
  A 1.47 1.47 0.0 0 1 33.43 32.84
  L 33.49 32.84
  A 1.58 1.57 0.7 0 1 35.03 34.41
  L 35.04 47.04
  A 0.32 0.32 0.0 0 0 35.58 47.27
  L 38.76 44.06
  A 1.28 1.28 0.0 0 1 40.75 44.26
  L 40.86 44.40
  A 1.66 1.66 0.0 0 1 40.70 46.58
  L 33.93 53.30
  A 0.66 0.66 0.0 0 1 32.99 53.30
  Z"
/>
</svg>
