<?xml version="1.0" encoding="UTF-8" standalone="no"?>
<!DOCTYPE svg PUBLIC "-//W3C//DTD SVG 1.1//EN" "http://www.w3.org/Graphics/SVG/1.1/DTD/svg11.dtd">
<svg xmlns="http://www.w3.org/2000/svg" version="1.1" viewBox="0.00 0.00 66.00 88.00">
<g stroke-width="2.00" fill="none" stroke-linecap="butt">
<path stroke="#574f7b" vector-effect="non-scaling-stroke" d="
  M 33.41 86.66
  Q 33.47 86.66 33.52 86.65
  A 0.38 0.26 -59.4 0 0 33.73 86.56
  Q 45.30 75.73 53.74 63.02
  C 64.38 46.99 70.68 25.09 53.91 10.17
  C 48.53 5.39 41.24 2.53 33.53 2.52
  C 25.81 2.51 18.51 5.35 13.13 10.11
  C -3.69 24.99 2.55 46.90 13.15 62.96
  Q 21.55 75.70 33.09 86.56
  A 0.38 0.26 59.5 0 0 33.30 86.65
  Q 33.35 86.66 33.41 86.66"
/>
<path stroke="#bab0c7" vector-effect="non-scaling-stroke" d="
  M 43.32 21.09
  A 1.40 1.40 0.0 0 0 41.95 22.80
  Q 43.24 28.49 48.27 30.53
  A 1.77 1.76 -67.1 0 0 50.55 29.60
  Q 51.67 27.07 51.08 23.00
  A 2.23 2.22 85.8 0 0 48.88 21.09
  L 43.32 21.09"
/>
<path stroke="#bab0c7" vector-effect="non-scaling-stroke" d="
  M 41.17 29.72
  L 38.66 23.27
  A 3.16 3.16 0.0 0 0 35.71 21.25
  L 16.06 21.25
  A 1.29 1.29 0.0 0 0 14.77 22.54
  L 14.77 23.04
  A 1.46 1.45 0.0 0 0 16.23 24.49
  L 33.44 24.49
  A 1.43 1.42 90.0 0 1 34.86 25.92
  L 34.86 28.50
  A 2.27 2.27 0.0 0 0 37.13 30.77
  L 40.46 30.77
  A 0.77 0.76 79.3 0 0 41.17 29.72"
/>
<path stroke="#bab0c7" vector-effect="non-scaling-stroke" d="
  M 27.74 33.09
  L 25.87 36.32
  A 1.16 1.16 0.0 0 0 26.44 37.98
  Q 26.98 38.19 28.02 38.15
  Q 35.95 37.81 44.63 38.39
  Q 46.97 38.55 46.65 45.11
  A 1.56 1.55 84.1 0 0 48.59 46.69
  L 48.72 46.66
  A 2.86 2.86 0.0 0 0 50.85 43.99
  Q 51.06 37.37 51.01 36.71
  Q 50.82 34.39 48.23 34.29
  Q 46.80 34.24 33.81 34.25
  A 1.71 1.71 0.0 0 1 32.10 32.54
  L 32.10 30.21
  A 2.21 2.21 0.0 0 0 29.89 28.00
  L 16.33 28.00
  A 0.91 0.91 0.0 0 0 15.46 28.64
  Q 13.93 33.49 15.51 37.41
  A 1.52 1.52 0.0 0 0 16.60 38.33
  Q 17.93 38.63 20.25 38.18
  C 22.83 37.69 23.99 33.80 25.26 32.20
  A 1.43 1.43 0.0 0 1 26.38 31.66
  L 26.92 31.66
  A 0.95 0.95 0.0 0 1 27.74 33.09"
/>
<path stroke="#bab0c7" vector-effect="non-scaling-stroke" d="
  M 21.53 46.36
  Q 21.41 43.09 18.24 41.92
  Q 16.86 41.42 16.04 41.94
  A 3.34 2.77 59.3 0 0 15.38 46.11
  Q 15.82 46.89 17.38 46.92
  Q 19.84 46.95 20.98 46.94
  A 0.56 0.55 89.0 0 0 21.53 46.36"
/>
<path stroke="#bab0c7" vector-effect="non-scaling-stroke" d="
  M 23.18 42.61
  L 24.42 45.80
  A 1.88 1.88 0.0 0 0 26.17 46.99
  L 41.08 46.99
  A 2.39 2.38 0.0 0 0 43.47 44.61
  L 43.47 44.17
  A 2.42 2.42 0.0 0 0 41.05 41.75
  L 23.77 41.75
  A 0.63 0.63 0.0 0 0 23.18 42.61"
/>
</g>
<path fill="#3a3555" d="
  M 33.80 88.00
  L 33.04 88.00
  C 21.74 77.74 12.14 65.70 5.66 51.55
  Q 0.19 39.60 2.07 26.55
  Q 2.42 24.12 4.26 20.06
  C 10.23 6.91 24.26 -0.64 38.81 1.79
  C 54.21 4.37 65.69 17.50 65.47 33.04
  Q 65.37 40.23 63.04 47.02
  C 57.71 62.58 45.88 77.00 33.80 88.00
  Z
  M 33.41 86.66
  Q 33.47 86.66 33.52 86.65
  A 0.38 0.26 -59.4 0 0 33.73 86.56
  Q 45.30 75.73 53.74 63.02
  C 64.38 46.99 70.68 25.09 53.91 10.17
  C 48.53 5.39 41.24 2.53 33.53 2.52
  C 25.81 2.51 18.51 5.35 13.13 10.11
  C -3.69 24.99 2.55 46.90 13.15 62.96
  Q 21.55 75.70 33.09 86.56
  A 0.38 0.26 59.5 0 0 33.30 86.65
  Q 33.35 86.66 33.41 86.66
  Z"
/>
<path fill="#7468a1" d="
  M 33.53 2.52
  C 41.24 2.53 48.53 5.39 53.91 10.17
  C 70.68 25.09 64.38 46.99 53.74 63.02
  Q 45.30 75.73 33.73 86.56
  A 0.38 0.26 -59.4 0 1 33.52 86.65
  Q 33.47 86.66 33.41 86.66
  Q 33.35 86.66 33.30 86.65
  A 0.38 0.26 59.5 0 1 33.09 86.56
  Q 21.55 75.70 13.15 62.96
  C 2.55 46.90 -3.69 24.99 13.13 10.11
  C 18.51 5.35 25.81 2.51 33.53 2.52
  Z
  M 43.32 21.09
  A 1.40 1.40 0.0 0 0 41.95 22.80
  Q 43.24 28.49 48.27 30.53
  A 1.77 1.76 -67.1 0 0 50.55 29.60
  Q 51.67 27.07 51.08 23.00
  A 2.23 2.22 85.8 0 0 48.88 21.09
  L 43.32 21.09
  Z
  M 41.17 29.72
  L 38.66 23.27
  A 3.16 3.16 0.0 0 0 35.71 21.25
  L 16.06 21.25
  A 1.29 1.29 0.0 0 0 14.77 22.54
  L 14.77 23.04
  A 1.46 1.45 0.0 0 0 16.23 24.49
  L 33.44 24.49
  A 1.43 1.42 90.0 0 1 34.86 25.92
  L 34.86 28.50
  A 2.27 2.27 0.0 0 0 37.13 30.77
  L 40.46 30.77
  A 0.77 0.76 79.3 0 0 41.17 29.72
  Z
  M 27.74 33.09
  L 25.87 36.32
  A 1.16 1.16 0.0 0 0 26.44 37.98
  Q 26.98 38.19 28.02 38.15
  Q 35.95 37.81 44.63 38.39
  Q 46.97 38.55 46.65 45.11
  A 1.56 1.55 84.1 0 0 48.59 46.69
  L 48.72 46.66
  A 2.86 2.86 0.0 0 0 50.85 43.99
  Q 51.06 37.37 51.01 36.71
  Q 50.82 34.39 48.23 34.29
  Q 46.80 34.24 33.81 34.25
  A 1.71 1.71 0.0 0 1 32.10 32.54
  L 32.10 30.21
  A 2.21 2.21 0.0 0 0 29.89 28.00
  L 16.33 28.00
  A 0.91 0.91 0.0 0 0 15.46 28.64
  Q 13.93 33.49 15.51 37.41
  A 1.52 1.52 0.0 0 0 16.60 38.33
  Q 17.93 38.63 20.25 38.18
  C 22.83 37.69 23.99 33.80 25.26 32.20
  A 1.43 1.43 0.0 0 1 26.38 31.66
  L 26.92 31.66
  A 0.95 0.95 0.0 0 1 27.74 33.09
  Z
  M 21.53 46.36
  Q 21.41 43.09 18.24 41.92
  Q 16.86 41.42 16.04 41.94
  A 3.34 2.77 59.3 0 0 15.38 46.11
  Q 15.82 46.89 17.38 46.92
  Q 19.84 46.95 20.98 46.94
  A 0.56 0.55 89.0 0 0 21.53 46.36
  Z
  M 23.18 42.61
  L 24.42 45.80
  A 1.88 1.88 0.0 0 0 26.17 46.99
  L 41.08 46.99
  A 2.39 2.38 0.0 0 0 43.47 44.61
  L 43.47 44.17
  A 2.42 2.42 0.0 0 0 41.05 41.75
  L 23.77 41.75
  A 0.63 0.63 0.0 0 0 23.18 42.61
  Z"
/>
<path fill="#fff8ec" d="
  M 43.32 21.09
  L 48.88 21.09
  A 2.23 2.22 85.8 0 1 51.08 23.00
  Q 51.67 27.07 50.55 29.60
  A 1.77 1.76 -67.1 0 1 48.27 30.53
  Q 43.24 28.49 41.95 22.80
  A 1.40 1.40 0.0 0 1 43.32 21.09
  Z"
/>
<path fill="#fff8ec" d="
  M 41.17 29.72
  A 0.77 0.76 79.3 0 1 40.46 30.77
  L 37.13 30.77
  A 2.27 2.27 0.0 0 1 34.86 28.50
  L 34.86 25.92
  A 1.43 1.42 90.0 0 0 33.44 24.49
  L 16.23 24.49
  A 1.46 1.45 0.0 0 1 14.77 23.04
  L 14.77 22.54
  A 1.29 1.29 0.0 0 1 16.06 21.25
  L 35.71 21.25
  A 3.16 3.16 0.0 0 1 38.66 23.27
  L 41.17 29.72
  Z"
/>
<path fill="#fff8ec" d="
  M 27.74 33.09
  A 0.95 0.95 0.0 0 0 26.92 31.66
  L 26.38 31.66
  A 1.43 1.43 0.0 0 0 25.26 32.20
  C 23.99 33.80 22.83 37.69 20.25 38.18
  Q 17.93 38.63 16.60 38.33
  A 1.52 1.52 0.0 0 1 15.51 37.41
  Q 13.93 33.49 15.46 28.64
  A 0.91 0.91 0.0 0 1 16.33 28.00
  L 29.89 28.00
  A 2.21 2.21 0.0 0 1 32.10 30.21
  L 32.10 32.54
  A 1.71 1.71 0.0 0 0 33.81 34.25
  Q 46.80 34.24 48.23 34.29
  Q 50.82 34.39 51.01 36.71
  Q 51.06 37.37 50.85 43.99
  A 2.86 2.86 0.0 0 1 48.72 46.66
  L 48.59 46.69
  A 1.56 1.55 84.1 0 1 46.65 45.11
  Q 46.97 38.55 44.63 38.39
  Q 35.95 37.81 28.02 38.15
  Q 26.98 38.19 26.44 37.98
  A 1.16 1.16 0.0 0 1 25.87 36.32
  L 27.74 33.09
  Z"
/>
<path fill="#fff8ec" d="
  M 20.98 46.94
  Q 19.84 46.95 17.38 46.92
  Q 15.82 46.89 15.38 46.11
  A 3.34 2.77 59.3 0 1 16.04 41.94
  Q 16.86 41.42 18.24 41.92
  Q 21.41 43.09 21.53 46.36
  A 0.56 0.55 89.0 0 1 20.98 46.94
  Z"
/>
<path fill="#fff8ec" d="
  M 23.77 41.75
  L 41.05 41.75
  A 2.42 2.42 0.0 0 1 43.47 44.17
  L 43.47 44.61
  A 2.39 2.38 -0.0 0 1 41.08 46.99
  L 26.17 46.99
  A 1.88 1.88 0.0 0 1 24.42 45.80
  L 23.18 42.61
  A 0.63 0.63 0.0 0 1 23.77 41.75
  Z"
/>
</svg>
