<?xml version="1.0" encoding="UTF-8" standalone="no"?>
<!DOCTYPE svg PUBLIC "-//W3C//DTD SVG 1.1//EN" "http://www.w3.org/Graphics/SVG/1.1/DTD/svg11.dtd">
<svg xmlns="http://www.w3.org/2000/svg" version="1.1" viewBox="0.00 0.00 66.00 88.00">
<g stroke-width="2.00" fill="none" stroke-linecap="butt">
<path stroke="#802436" vector-effect="non-scaling-stroke" d="
  M 33.43 86.69
  Q 33.53 86.69 33.63 86.67
  Q 33.70 86.66 33.79 86.57
  C 47.75 73.34 63.87 53.64 64.27 33.47
  C 64.61 16.51 51.18 3.26 34.50 2.50
  Q 33.64 2.46 33.51 2.46
  Q 33.37 2.46 32.51 2.50
  C 15.83 3.23 2.38 16.45 2.68 33.41
  C 3.04 53.58 19.13 73.31 33.06 86.57
  Q 33.15 86.66 33.22 86.67
  Q 33.32 86.69 33.43 86.69"
/>
<path stroke="#d4959a" vector-effect="non-scaling-stroke" d="
  M 32.97 41.24
  Q 35.30 41.23 35.42 41.22
  A 3.38 3.38 0.0 0 0 37.96 39.25
  L 39.20 36.45
  A 1.50 1.47 -1.5 0 1 39.92 35.71
  C 47.92 31.93 47.32 21.44 41.10 16.23
  A 0.43 0.42 11.3 0 0 40.42 16.68
  C 41.94 21.33 41.79 27.78 37.58 30.83
  C 35.83 32.10 35.03 31.51 32.97 31.51
  C 30.90 31.51 30.11 32.10 28.36 30.84
  C 24.14 27.79 23.98 21.34 25.49 16.69
  A 0.43 0.42 -11.4 0 0 24.81 16.24
  C 18.60 21.46 18.02 31.95 26.02 35.72
  A 1.50 1.47 1.4 0 1 26.74 36.46
  L 27.99 39.26
  A 3.38 3.38 0.0 0 0 30.53 41.22
  Q 30.65 41.24 32.97 41.24"
/>
<path stroke="#d4959a" vector-effect="non-scaling-stroke" d="
  M 32.94 28.77
  Q 34.52 28.78 34.82 28.79
  A 1.35 1.34 26.7 0 0 35.71 28.50
  Q 37.88 26.75 38.28 24.24
  A 0.41 0.41 0.0 0 0 37.52 23.97
  L 37.08 24.75
  A 0.64 0.63 49.4 0 1 35.94 24.66
  Q 34.91 22.06 33.33 19.71
  Q 33.18 19.49 32.99 19.48
  Q 32.81 19.48 32.65 19.71
  Q 31.05 22.04 29.99 24.63
  A 0.64 0.63 -48.8 0 1 28.85 24.71
  L 28.42 23.92
  A 0.41 0.41 0.0 0 0 27.66 24.18
  Q 28.03 26.70 30.18 28.47
  A 1.35 1.34 -26.1 0 0 31.07 28.77
  Q 31.37 28.76 32.94 28.77"
/>
<path stroke="#d4959a" vector-effect="non-scaling-stroke" d="
  M 32.98 51.78
  Q 33.36 51.78 33.50 51.66
  Q 35.64 49.73 36.09 47.07
  A 0.43 0.43 0.0 0 1 36.88 46.92
  Q 37.98 48.76 40.07 50.37
  A 0.67 0.66 29.4 0 0 41.09 50.09
  Q 41.99 47.85 41.62 45.85
  A 0.30 0.29 -70.9 0 1 42.13 45.60
  Q 43.71 47.40 45.79 47.71
  A 0.43 0.42 -89.0 0 0 46.27 47.24
  Q 45.81 43.48 43.40 40.91
  A 0.22 0.22 0.0 0 1 43.56 40.54
  Q 47.12 40.47 50.39 38.77
  A 0.85 0.84 -44.3 0 0 50.41 37.28
  L 46.82 35.33
  A 1.71 1.70 32.0 0 0 44.63 35.83
  Q 43.97 36.63 42.25 37.60
  A 2.15 2.14 87.0 0 0 41.31 38.65
  C 39.51 42.87 37.36 44.19 32.98 44.19
  C 28.59 44.19 26.44 42.87 24.64 38.65
  A 2.15 2.14 -87.0 0 0 23.70 37.60
  Q 21.98 36.63 21.32 35.83
  A 1.71 1.70 -32.0 0 0 19.13 35.33
  L 15.54 37.28
  A 0.85 0.84 44.3 0 0 15.56 38.77
  Q 18.83 40.47 22.39 40.54
  A 0.22 0.22 0.0 0 1 22.55 40.91
  Q 20.14 43.48 19.68 47.24
  A 0.43 0.42 89.0 0 0 20.16 47.71
  Q 22.24 47.40 23.82 45.60
  A 0.30 0.29 70.9 0 1 24.33 45.85
  Q 23.96 47.85 24.86 50.09
  A 0.67 0.66 -29.4 0 0 25.88 50.37
  Q 27.97 48.76 29.07 46.92
  A 0.43 0.43 0.0 0 1 29.86 47.07
  Q 30.31 49.73 32.45 51.66
  Q 32.59 51.78 32.98 51.78"
/>
</g>
<path fill="#581723" d="
  M 33.79 88.00
  L 33.04 88.00
  C 21.72 77.72 12.04 65.60 5.60 51.41
  Q 0.20 39.50 2.06 26.55
  Q 2.42 24.06 4.28 19.96
  C 9.48 8.52 20.49 1.79 32.75 1.31
  C 40.65 1.00 49.67 4.29 55.57 10.02
  C 80.61 34.36 52.90 70.69 33.79 88.00
  Z
  M 33.43 86.69
  Q 33.53 86.69 33.63 86.67
  Q 33.70 86.66 33.79 86.57
  C 47.75 73.34 63.87 53.64 64.27 33.47
  C 64.61 16.51 51.18 3.26 34.50 2.50
  Q 33.64 2.46 33.51 2.46
  Q 33.37 2.46 32.51 2.50
  C 15.83 3.23 2.38 16.45 2.68 33.41
  C 3.04 53.58 19.13 73.31 33.06 86.57
  Q 33.15 86.66 33.22 86.67
  Q 33.32 86.69 33.43 86.69
  Z"
/>
<path fill="#a83148" d="
  M 33.51 2.46
  Q 33.64 2.46 34.50 2.50
  C 51.18 3.26 64.61 16.51 64.27 33.47
  C 63.87 53.64 47.75 73.34 33.79 86.57
  Q 33.70 86.66 33.63 86.67
  Q 33.53 86.69 33.43 86.69
  Q 33.32 86.69 33.22 86.67
  Q 33.15 86.66 33.06 86.57
  C 19.13 73.31 3.04 53.58 2.68 33.41
  C 2.38 16.45 15.83 3.23 32.51 2.50
  Q 33.37 2.46 33.51 2.46
  Z
  M 32.97 41.24
  Q 35.30 41.23 35.42 41.22
  A 3.38 3.38 0.0 0 0 37.96 39.25
  L 39.20 36.45
  A 1.50 1.47 -1.5 0 1 39.92 35.71
  C 47.92 31.93 47.32 21.44 41.10 16.23
  A 0.43 0.42 11.3 0 0 40.42 16.68
  C 41.94 21.33 41.79 27.78 37.58 30.83
  C 35.83 32.10 35.03 31.51 32.97 31.51
  C 30.90 31.51 30.11 32.10 28.36 30.84
  C 24.14 27.79 23.98 21.34 25.49 16.69
  A 0.43 0.42 -11.4 0 0 24.81 16.24
  C 18.60 21.46 18.02 31.95 26.02 35.72
  A 1.50 1.47 1.4 0 1 26.74 36.46
  L 27.99 39.26
  A 3.38 3.38 0.0 0 0 30.53 41.22
  Q 30.65 41.24 32.97 41.24
  Z
  M 32.94 28.77
  Q 34.52 28.78 34.82 28.79
  A 1.35 1.34 26.7 0 0 35.71 28.50
  Q 37.88 26.75 38.28 24.24
  A 0.41 0.41 0.0 0 0 37.52 23.97
  L 37.08 24.75
  A 0.64 0.63 49.4 0 1 35.94 24.66
  Q 34.91 22.06 33.33 19.71
  Q 33.18 19.49 32.99 19.48
  Q 32.81 19.48 32.65 19.71
  Q 31.05 22.04 29.99 24.63
  A 0.64 0.63 -48.8 0 1 28.85 24.71
  L 28.42 23.92
  A 0.41 0.41 0.0 0 0 27.66 24.18
  Q 28.03 26.70 30.18 28.47
  A 1.35 1.34 -26.1 0 0 31.07 28.77
  Q 31.37 28.76 32.94 28.77
  Z
  M 32.98 51.78
  Q 33.36 51.78 33.50 51.66
  Q 35.64 49.73 36.09 47.07
  A 0.43 0.43 0.0 0 1 36.88 46.92
  Q 37.98 48.76 40.07 50.37
  A 0.67 0.66 29.4 0 0 41.09 50.09
  Q 41.99 47.85 41.62 45.85
  A 0.30 0.29 -70.9 0 1 42.13 45.60
  Q 43.71 47.40 45.79 47.71
  A 0.43 0.42 -89.0 0 0 46.27 47.24
  Q 45.81 43.48 43.40 40.91
  A 0.22 0.22 0.0 0 1 43.56 40.54
  Q 47.12 40.47 50.39 38.77
  A 0.85 0.84 -44.3 0 0 50.41 37.28
  L 46.82 35.33
  A 1.71 1.70 32.0 0 0 44.63 35.83
  Q 43.97 36.63 42.25 37.60
  A 2.15 2.14 87.0 0 0 41.31 38.65
  C 39.51 42.87 37.36 44.19 32.98 44.19
  C 28.59 44.19 26.44 42.87 24.64 38.65
  A 2.15 2.14 -87.0 0 0 23.70 37.60
  Q 21.98 36.63 21.32 35.83
  A 1.71 1.70 -32.0 0 0 19.13 35.33
  L 15.54 37.28
  A 0.85 0.84 44.3 0 0 15.56 38.77
  Q 18.83 40.47 22.39 40.54
  A 0.22 0.22 0.0 0 1 22.55 40.91
  Q 20.14 43.48 19.68 47.24
  A 0.43 0.42 89.0 0 0 20.16 47.71
  Q 22.24 47.40 23.82 45.60
  A 0.30 0.29 70.9 0 1 24.33 45.85
  Q 23.96 47.85 24.86 50.09
  A 0.67 0.66 -29.4 0 0 25.88 50.37
  Q 27.97 48.76 29.07 46.92
  A 0.43 0.43 0.0 0 1 29.86 47.07
  Q 30.31 49.73 32.45 51.66
  Q 32.59 51.78 32.98 51.78
  Z"
/>
<path fill="#fff8ec" d="
  M 32.97 31.51
  C 35.03 31.51 35.83 32.10 37.58 30.83
  C 41.79 27.78 41.94 21.33 40.42 16.68
  A 0.43 0.42 11.3 0 1 41.10 16.23
  C 47.32 21.44 47.92 31.93 39.92 35.71
  A 1.50 1.47 -1.5 0 0 39.20 36.45
  L 37.96 39.25
  A 3.38 3.38 0.0 0 1 35.42 41.22
  Q 35.30 41.23 32.97 41.24
  Q 30.65 41.24 30.53 41.22
  A 3.38 3.38 0.0 0 1 27.99 39.26
  L 26.74 36.46
  A 1.50 1.47 1.4 0 0 26.02 35.72
  C 18.02 31.95 18.60 21.46 24.81 16.24
  A 0.43 0.42 -11.4 0 1 25.49 16.69
  C 23.98 21.34 24.14 27.79 28.36 30.84
  C 30.11 32.10 30.90 31.51 32.97 31.51
  Z"
/>
<path fill="#fff8ec" d="
  M 32.99 19.48
  Q 33.18 19.49 33.33 19.71
  Q 34.91 22.06 35.94 24.66
  A 0.64 0.63 49.4 0 0 37.08 24.75
  L 37.52 23.97
  A 0.41 0.41 0.0 0 1 38.28 24.24
  Q 37.88 26.75 35.71 28.50
  A 1.35 1.34 26.7 0 1 34.82 28.79
  Q 34.52 28.78 32.94 28.77
  Q 31.37 28.76 31.07 28.77
  A 1.35 1.34 -26.1 0 1 30.18 28.47
  Q 28.03 26.70 27.66 24.18
  A 0.41 0.41 0.0 0 1 28.42 23.92
  L 28.85 24.71
  A 0.64 0.63 -48.8 0 0 29.99 24.63
  Q 31.05 22.04 32.65 19.71
  Q 32.81 19.48 32.99 19.48
  Z"
/>
<path fill="#fff8ec" d="
  M 32.98 44.19
  C 37.36 44.19 39.51 42.87 41.31 38.65
  A 2.15 2.14 87.0 0 1 42.25 37.60
  Q 43.97 36.63 44.63 35.83
  A 1.71 1.70 32.0 0 1 46.82 35.33
  L 50.41 37.28
  A 0.85 0.84 -44.3 0 1 50.39 38.77
  Q 47.12 40.47 43.56 40.54
  A 0.22 0.22 0.0 0 0 43.40 40.91
  Q 45.81 43.48 46.27 47.24
  A 0.43 0.42 -89.0 0 1 45.79 47.71
  Q 43.71 47.40 42.13 45.60
  A 0.30 0.29 -70.9 0 0 41.62 45.85
  Q 41.99 47.85 41.09 50.09
  A 0.67 0.66 29.4 0 1 40.07 50.37
  Q 37.98 48.76 36.88 46.92
  A 0.43 0.43 0.0 0 0 36.09 47.07
  Q 35.64 49.73 33.50 51.66
  Q 33.36 51.78 32.98 51.78
  Q 32.59 51.78 32.45 51.66
  Q 30.31 49.73 29.86 47.07
  A 0.43 0.43 0.0 0 0 29.07 46.92
  Q 27.97 48.76 25.88 50.37
  A 0.67 0.66 -29.4 0 1 24.86 50.09
  Q 23.96 47.85 24.33 45.85
  A 0.30 0.29 70.9 0 0 23.82 45.60
  Q 22.24 47.40 20.16 47.71
  A 0.43 0.42 89.0 0 1 19.68 47.24
  Q 20.14 43.48 22.55 40.91
  A 0.22 0.22 0.0 0 0 22.39 40.54
  Q 18.83 40.47 15.56 38.77
  A 0.85 0.84 44.3 0 1 15.54 37.28
  L 19.13 35.33
  A 1.71 1.70 -32.0 0 1 21.32 35.83
  Q 21.98 36.63 23.70 37.60
  A 2.15 2.14 -87.0 0 1 24.64 38.65
  C 26.44 42.87 28.59 44.19 32.98 44.19
  Z"
/>
</svg>
