<?xml version="1.0" encoding="UTF-8" standalone="no"?>
<!DOCTYPE svg PUBLIC "-//W3C//DTD SVG 1.1//EN" "http://www.w3.org/Graphics/SVG/1.1/DTD/svg11.dtd">
<svg xmlns="http://www.w3.org/2000/svg" version="1.1" viewBox="0.00 0.00 66.00 88.00">
<g stroke-width="2.00" fill="none" stroke-linecap="butt">
<path stroke="#574f7b" vector-effect="non-scaling-stroke" d="
  M 33.40 86.66
  Q 33.49 86.66 33.52 86.65
  A 0.33 0.08 -47.2 0 0 33.69 86.54
  C 47.44 73.92 63.50 53.81 64.21 34.50
  C 64.73 20.11 56.43 8.69 43.22 4.08
  Q 38.73 2.52 33.53 2.51
  Q 28.33 2.50 23.84 4.05
  C 10.61 8.62 2.28 20.02 2.75 34.41
  C 3.40 53.72 19.40 73.88 33.12 86.54
  A 0.33 0.08 47.4 0 0 33.29 86.65
  Q 33.31 86.66 33.40 86.66"
/>
<path stroke="#bab0c7" vector-effect="non-scaling-stroke" d="
  M 17.90 33.36
  A 0.36 0.36 0.0 0 1 18.26 33.00
  L 24.97 33.00
  A 1.69 1.69 0.0 0 0 26.66 31.31
  L 26.66 21.83
  A 1.55 1.55 0.0 0 0 25.11 20.28
  L 19.31 20.29
  A 1.26 1.26 0.0 0 0 18.05 21.55
  L 18.05 21.90
  A 1.58 1.57 -90.0 0 0 19.62 23.48
  L 22.95 23.48
  A 0.48 0.48 0.0 0 1 23.43 23.96
  L 23.43 29.29
  A 0.46 0.46 0.0 0 1 22.97 29.75
  L 16.22 29.75
  A 1.54 1.54 0.0 0 0 14.68 31.29
  L 14.68 47.44
  A 1.05 1.05 0.0 0 0 15.73 48.49
  L 25.41 48.49
  A 1.20 1.20 0.0 0 0 26.61 47.29
  L 26.61 46.93
  A 1.67 1.67 0.0 0 0 24.94 45.26
  L 18.39 45.26
  A 0.50 0.49 0.0 0 1 17.89 44.77
  L 17.89 41.52
  A 0.53 0.52 -90.0 0 1 18.41 40.99
  L 25.22 40.99
  A 1.31 1.31 0.0 0 0 26.53 39.68
  L 26.53 39.33
  A 1.58 1.58 0.0 0 0 24.95 37.75
  L 18.27 37.75
  A 0.37 0.37 0.0 0 1 17.90 37.38
  L 17.90 33.36"
/>
<path stroke="#bab0c7" vector-effect="non-scaling-stroke" d="
  M 35.03 32.78
  A 0.54 0.54 0.0 0 1 35.57 32.24
  L 42.63 32.24
  A 0.87 0.86 0.0 0 0 43.50 31.38
  L 43.50 30.32
  A 0.80 0.79 -90.0 0 1 44.29 29.52
  L 47.47 29.52
  A 0.63 0.63 0.0 0 1 48.10 30.15
  L 48.10 35.20
  A 1.28 1.28 0.0 0 0 49.38 36.48
  L 49.95 36.48
  A 1.36 1.36 0.0 0 0 51.31 35.12
  L 51.31 28.01
  A 1.74 1.74 0.0 0 0 49.57 26.27
  L 44.08 26.27
  A 0.50 0.50 0.0 0 1 43.58 25.77
  L 43.58 21.85
  A 1.50 1.50 0.0 0 0 42.22 20.36
  Q 39.23 20.06 37.01 20.42
  A 1.55 1.22 -8.9 0 0 35.67 21.87
  Q 35.93 23.50 38.02 23.49
  Q 38.21 23.49 39.78 23.56
  A 0.61 0.61 0.0 0 1 40.37 24.17
  L 40.37 28.35
  A 0.64 0.64 0.0 0 1 39.73 28.99
  L 33.42 28.99
  A 1.62 1.62 0.0 0 0 31.80 30.61
  L 31.80 47.16
  A 1.33 1.33 0.0 0 0 33.13 48.49
  L 33.69 48.49
  A 1.35 1.35 0.0 0 0 35.04 47.14
  L 35.04 40.26
  A 0.53 0.53 0.0 0 1 35.57 39.73
  L 39.06 39.73
  A 0.48 0.48 0.0 0 1 39.54 40.21
  L 39.54 44.35
  A 1.49 1.49 0.0 0 0 40.99 45.84
  L 41.13 45.85
  A 1.54 1.54 0.0 0 0 42.76 44.31
  L 42.76 38.15
  A 1.65 1.64 0.0 0 0 41.11 36.51
  L 35.51 36.51
  A 0.48 0.48 0.0 0 1 35.03 36.03
  L 35.03 32.78"
/>
</g>
<path fill="#3a3554" d="
  M 33.80 88.00
  L 33.04 88.00
  C 22.21 78.22 11.94 65.55 5.75 51.76
  Q 2.13 43.69 1.56 34.97
  C 0.29 15.44 16.64 -0.04 36.31 1.46
  C 50.32 2.53 61.51 12.63 64.71 25.96
  C 67.77 38.70 61.69 53.55 54.15 64.60
  Q 45.39 77.44 33.80 88.00
  Z
  M 33.40 86.66
  Q 33.49 86.66 33.52 86.65
  A 0.33 0.08 -47.2 0 0 33.69 86.54
  C 47.44 73.92 63.50 53.81 64.21 34.50
  C 64.73 20.11 56.43 8.69 43.22 4.08
  Q 38.73 2.52 33.53 2.51
  Q 28.33 2.50 23.84 4.05
  C 10.61 8.62 2.28 20.02 2.75 34.41
  C 3.40 53.72 19.40 73.88 33.12 86.54
  A 0.33 0.08 47.4 0 0 33.29 86.65
  Q 33.31 86.66 33.40 86.66
  Z"
/>
<path fill="#7468a1" d="
  M 33.53 2.51
  Q 38.73 2.52 43.22 4.08
  C 56.43 8.69 64.73 20.11 64.21 34.50
  C 63.50 53.81 47.44 73.92 33.69 86.54
  A 0.33 0.08 -47.2 0 1 33.52 86.65
  Q 33.49 86.66 33.40 86.66
  Q 33.31 86.66 33.29 86.65
  A 0.33 0.08 47.4 0 1 33.12 86.54
  C 19.40 73.88 3.40 53.72 2.75 34.41
  C 2.28 20.02 10.61 8.62 23.84 4.05
  Q 28.33 2.50 33.53 2.51
  Z
  M 17.90 33.36
  A 0.36 0.36 0.0 0 1 18.26 33.00
  L 24.97 33.00
  A 1.69 1.69 0.0 0 0 26.66 31.31
  L 26.66 21.83
  A 1.55 1.55 0.0 0 0 25.11 20.28
  L 19.31 20.29
  A 1.26 1.26 0.0 0 0 18.05 21.55
  L 18.05 21.90
  A 1.58 1.57 -90.0 0 0 19.62 23.48
  L 22.95 23.48
  A 0.48 0.48 0.0 0 1 23.43 23.96
  L 23.43 29.29
  A 0.46 0.46 0.0 0 1 22.97 29.75
  L 16.22 29.75
  A 1.54 1.54 0.0 0 0 14.68 31.29
  L 14.68 47.44
  A 1.05 1.05 0.0 0 0 15.73 48.49
  L 25.41 48.49
  A 1.20 1.20 0.0 0 0 26.61 47.29
  L 26.61 46.93
  A 1.67 1.67 0.0 0 0 24.94 45.26
  L 18.39 45.26
  A 0.50 0.49 0.0 0 1 17.89 44.77
  L 17.89 41.52
  A 0.53 0.52 -90.0 0 1 18.41 40.99
  L 25.22 40.99
  A 1.31 1.31 0.0 0 0 26.53 39.68
  L 26.53 39.33
  A 1.58 1.58 0.0 0 0 24.95 37.75
  L 18.27 37.75
  A 0.37 0.37 0.0 0 1 17.90 37.38
  L 17.90 33.36
  Z
  M 35.03 32.78
  A 0.54 0.54 0.0 0 1 35.57 32.24
  L 42.63 32.24
  A 0.87 0.86 0.0 0 0 43.50 31.38
  L 43.50 30.32
  A 0.80 0.79 -90.0 0 1 44.29 29.52
  L 47.47 29.52
  A 0.63 0.63 0.0 0 1 48.10 30.15
  L 48.10 35.20
  A 1.28 1.28 0.0 0 0 49.38 36.48
  L 49.95 36.48
  A 1.36 1.36 0.0 0 0 51.31 35.12
  L 51.31 28.01
  A 1.74 1.74 0.0 0 0 49.57 26.27
  L 44.08 26.27
  A 0.50 0.50 0.0 0 1 43.58 25.77
  L 43.58 21.85
  A 1.50 1.50 0.0 0 0 42.22 20.36
  Q 39.23 20.06 37.01 20.42
  A 1.55 1.22 -8.9 0 0 35.67 21.87
  Q 35.93 23.50 38.02 23.49
  Q 38.21 23.49 39.78 23.56
  A 0.61 0.61 0.0 0 1 40.37 24.17
  L 40.37 28.35
  A 0.64 0.64 0.0 0 1 39.73 28.99
  L 33.42 28.99
  A 1.62 1.62 0.0 0 0 31.80 30.61
  L 31.80 47.16
  A 1.33 1.33 0.0 0 0 33.13 48.49
  L 33.69 48.49
  A 1.35 1.35 0.0 0 0 35.04 47.14
  L 35.04 40.26
  A 0.53 0.53 0.0 0 1 35.57 39.73
  L 39.06 39.73
  A 0.48 0.48 0.0 0 1 39.54 40.21
  L 39.54 44.35
  A 1.49 1.49 0.0 0 0 40.99 45.84
  L 41.13 45.85
  A 1.54 1.54 0.0 0 0 42.76 44.31
  L 42.76 38.15
  A 1.65 1.64 0.0 0 0 41.11 36.51
  L 35.51 36.51
  A 0.48 0.48 0.0 0 1 35.03 36.03
  L 35.03 32.78
  Z"
/>
<path fill="#fff8ec" d="
  M 18.27 37.75
  L 24.95 37.75
  A 1.58 1.58 0.0 0 1 26.53 39.33
  L 26.53 39.68
  A 1.31 1.31 0.0 0 1 25.22 40.99
  L 18.41 40.99
  A 0.53 0.52 -90.0 0 0 17.89 41.52
  L 17.89 44.77
  A 0.50 0.49 0.0 0 0 18.39 45.26
  L 24.94 45.26
  A 1.67 1.67 0.0 0 1 26.61 46.93
  L 26.61 47.29
  A 1.20 1.20 0.0 0 1 25.41 48.49
  L 15.73 48.49
  A 1.05 1.05 0.0 0 1 14.68 47.44
  L 14.68 31.29
  A 1.54 1.54 0.0 0 1 16.22 29.75
  L 22.97 29.75
  A 0.46 0.46 0.0 0 0 23.43 29.29
  L 23.43 23.96
  A 0.48 0.48 0.0 0 0 22.95 23.48
  L 19.62 23.48
  A 1.58 1.57 -90.0 0 1 18.05 21.90
  L 18.05 21.55
  A 1.26 1.26 0.0 0 1 19.31 20.29
  L 25.11 20.28
  A 1.55 1.55 0.0 0 1 26.66 21.83
  L 26.66 31.31
  A 1.69 1.69 0.0 0 1 24.97 33.00
  L 18.26 33.00
  A 0.36 0.36 0.0 0 0 17.90 33.36
  L 17.90 37.38
  A 0.37 0.37 0.0 0 0 18.27 37.75
  Z"
/>
<path fill="#fff8ec" d="
  M 35.51 36.51
  L 41.11 36.51
  A 1.65 1.64 -0.0 0 1 42.76 38.15
  L 42.76 44.31
  A 1.54 1.54 0.0 0 1 41.13 45.85
  L 40.99 45.84
  A 1.49 1.49 0.0 0 1 39.54 44.35
  L 39.54 40.21
  A 0.48 0.48 0.0 0 0 39.06 39.73
  L 35.57 39.73
  A 0.53 0.53 0.0 0 0 35.04 40.26
  L 35.04 47.14
  A 1.35 1.35 0.0 0 1 33.69 48.49
  L 33.13 48.49
  A 1.33 1.33 0.0 0 1 31.80 47.16
  L 31.80 30.61
  A 1.62 1.62 0.0 0 1 33.42 28.99
  L 39.73 28.99
  A 0.64 0.64 0.0 0 0 40.37 28.35
  L 40.37 24.17
  A 0.61 0.61 0.0 0 0 39.78 23.56
  Q 38.21 23.49 38.02 23.49
  Q 35.93 23.50 35.67 21.87
  A 1.55 1.22 -8.9 0 1 37.01 20.42
  Q 39.23 20.06 42.22 20.36
  A 1.50 1.50 0.0 0 1 43.58 21.85
  L 43.58 25.77
  A 0.50 0.50 0.0 0 0 44.08 26.27
  L 49.57 26.27
  A 1.74 1.74 0.0 0 1 51.31 28.01
  L 51.31 35.12
  A 1.36 1.36 0.0 0 1 49.95 36.48
  L 49.38 36.48
  A 1.28 1.28 0.0 0 1 48.10 35.20
  L 48.10 30.15
  A 0.63 0.63 0.0 0 0 47.47 29.52
  L 44.29 29.52
  A 0.80 0.79 -90.0 0 0 43.50 30.32
  L 43.50 31.38
  A 0.87 0.86 0.0 0 1 42.63 32.24
  L 35.57 32.24
  A 0.54 0.54 0.0 0 0 35.03 32.78
  L 35.03 36.03
  A 0.48 0.48 0.0 0 0 35.51 36.51
  Z"
/>
</svg>
