<?xml version="1.0" encoding="UTF-8" standalone="no"?>
<!DOCTYPE svg PUBLIC "-//W3C//DTD SVG 1.1//EN" "http://www.w3.org/Graphics/SVG/1.1/DTD/svg11.dtd">
<svg xmlns="http://www.w3.org/2000/svg" version="1.1" viewBox="0.00 0.00 66.00 88.00">
<g stroke-width="2.00" fill="none" stroke-linecap="butt">
<path stroke="#428270" vector-effect="non-scaling-stroke" d="
  M 33.40 86.73
  Q 33.51 86.73 33.65 86.61
  C 46.82 74.39 61.52 56.16 63.87 38.50
  Q 66.67 17.42 48.73 6.50
  Q 42.10 2.47 33.54 2.46
  Q 24.98 2.44 18.34 6.45
  Q 0.36 17.31 3.09 38.40
  C 5.38 56.07 20.02 74.35 33.15 86.61
  Q 33.29 86.73 33.40 86.73"
/>
<path stroke="#add2c1" vector-effect="non-scaling-stroke" d="
  M 32.64 29.45
  Q 33.44 29.45 34.01 28.75
  Q 37.24 24.78 40.38 20.65
  A 2.86 2.84 71.3 0 0 40.82 19.75
  Q 41.34 17.92 39.26 16.12
  A 1.56 1.55 -21.8 0 0 38.43 15.77
  Q 38.34 15.76 32.63 15.76
  Q 26.93 15.77 26.84 15.78
  A 1.56 1.55 21.7 0 0 26.01 16.13
  Q 23.93 17.93 24.45 19.76
  A 2.86 2.84 -71.4 0 0 24.89 20.66
  Q 28.04 24.79 31.27 28.75
  Q 31.84 29.45 32.64 29.45"
/>
<path stroke="#add2c1" vector-effect="non-scaling-stroke" d="
  M 32.65 52.21
  C 46.73 52.18 51.83 35.02 41.00 26.41
  A 0.19 0.19 0.0 0 0 40.75 26.42
  L 38.57 28.60
  A 0.35 0.34 40.9 0 0 38.61 29.12
  C 44.31 33.45 45.03 40.82 39.86 45.92
  C 38.00 47.75 35.56 48.69 32.65 48.70
  C 29.74 48.70 27.29 47.76 25.43 45.94
  C 20.24 40.86 20.94 33.49 26.62 29.14
  A 0.35 0.34 -41.1 0 0 26.66 28.62
  L 24.47 26.45
  A 0.19 0.19 0.0 0 0 24.22 26.44
  C 13.43 35.08 18.57 52.23 32.65 52.21"
/>
</g>
<path fill="#2a584b" d="
  M 33.78 88.00
  L 33.04 88.00
  C 17.07 73.48 -5.15 45.67 3.32 22.30
  C 8.79 7.20 24.72 -1.30 40.32 2.05
  C 50.35 4.21 58.72 10.94 62.91 20.38
  C 66.91 29.39 65.83 40.06 62.32 49.06
  C 56.57 63.84 45.47 77.42 33.78 88.00
  Z
  M 33.40 86.73
  Q 33.51 86.73 33.65 86.61
  C 46.82 74.39 61.52 56.16 63.87 38.50
  Q 66.67 17.42 48.73 6.50
  Q 42.10 2.47 33.54 2.46
  Q 24.98 2.44 18.34 6.45
  Q 0.36 17.31 3.09 38.40
  C 5.38 56.07 20.02 74.35 33.15 86.61
  Q 33.29 86.73 33.40 86.73
  Z"
/>
<path fill="#5aab95" d="
  M 33.54 2.46
  Q 42.10 2.47 48.73 6.50
  Q 66.67 17.42 63.87 38.50
  C 61.52 56.16 46.82 74.39 33.65 86.61
  Q 33.51 86.73 33.40 86.73
  Q 33.29 86.73 33.15 86.61
  C 20.02 74.35 5.38 56.07 3.09 38.40
  Q 0.36 17.31 18.34 6.45
  Q 24.98 2.44 33.54 2.46
  Z
  M 32.64 29.45
  Q 33.44 29.45 34.01 28.75
  Q 37.24 24.78 40.38 20.65
  A 2.86 2.84 71.3 0 0 40.82 19.75
  Q 41.34 17.92 39.26 16.12
  A 1.56 1.55 -21.8 0 0 38.43 15.77
  Q 38.34 15.76 32.63 15.76
  Q 26.93 15.77 26.84 15.78
  A 1.56 1.55 21.7 0 0 26.01 16.13
  Q 23.93 17.93 24.45 19.76
  A 2.86 2.84 -71.4 0 0 24.89 20.66
  Q 28.04 24.79 31.27 28.75
  Q 31.84 29.45 32.64 29.45
  Z
  M 32.65 52.21
  C 46.73 52.18 51.83 35.02 41.00 26.41
  A 0.19 0.19 0.0 0 0 40.75 26.42
  L 38.57 28.60
  A 0.35 0.34 40.9 0 0 38.61 29.12
  C 44.31 33.45 45.03 40.82 39.86 45.92
  C 38.00 47.75 35.56 48.69 32.65 48.70
  C 29.74 48.70 27.29 47.76 25.43 45.94
  C 20.24 40.86 20.94 33.49 26.62 29.14
  A 0.35 0.34 -41.1 0 0 26.66 28.62
  L 24.47 26.45
  A 0.19 0.19 0.0 0 0 24.22 26.44
  C 13.43 35.08 18.57 52.23 32.65 52.21
  Z"
/>
<path fill="#fff8ec" d="
  M 32.63 15.76
  Q 38.34 15.76 38.43 15.77
  A 1.56 1.55 -21.8 0 1 39.26 16.12
  Q 41.34 17.92 40.82 19.75
  A 2.86 2.84 71.3 0 1 40.38 20.65
  Q 37.24 24.78 34.01 28.75
  Q 33.44 29.45 32.64 29.45
  Q 31.84 29.45 31.27 28.75
  Q 28.04 24.79 24.89 20.66
  A 2.86 2.84 -71.4 0 1 24.45 19.76
  Q 23.93 17.93 26.01 16.13
  A 1.56 1.55 21.7 0 1 26.84 15.78
  Q 26.93 15.77 32.63 15.76
  Z"
/>
<path fill="#fff8ec" d="
  M 32.65 48.70
  C 35.56 48.69 38.00 47.75 39.86 45.92
  C 45.03 40.82 44.31 33.45 38.61 29.12
  A 0.35 0.34 40.9 0 1 38.57 28.60
  L 40.75 26.42
  A 0.19 0.19 0.0 0 1 41.00 26.41
  C 51.83 35.02 46.73 52.18 32.65 52.21
  C 18.57 52.23 13.43 35.08 24.22 26.44
  A 0.19 0.19 0.0 0 1 24.47 26.45
  L 26.66 28.62
  A 0.35 0.34 -41.1 0 1 26.62 29.14
  C 20.94 33.49 20.24 40.86 25.43 45.94
  C 27.29 47.76 29.74 48.70 32.65 48.70
  Z"
/>
</svg>
