<?xml version="1.0" encoding="UTF-8" standalone="no"?>
<!DOCTYPE svg PUBLIC "-//W3C//DTD SVG 1.1//EN" "http://www.w3.org/Graphics/SVG/1.1/DTD/svg11.dtd">
<svg xmlns="http://www.w3.org/2000/svg" version="1.1" viewBox="0.00 0.00 66.00 88.00">
<g stroke-width="2.00" fill="none" stroke-linecap="butt">
<path stroke="#428270" vector-effect="non-scaling-stroke" d="
  M 33.40 86.73
  Q 33.50 86.73 33.64 86.60
  Q 48.47 72.90 57.58 56.54
  C 66.19 41.08 68.17 22.04 53.23 9.55
  C 47.98 5.17 40.83 2.47 33.54 2.45
  C 26.24 2.44 19.08 5.12 13.83 9.49
  C -1.16 21.93 0.76 40.97 9.32 56.46
  Q 18.38 72.85 33.16 86.60
  Q 33.30 86.73 33.40 86.73"
/>
<path stroke="#add2c1" vector-effect="non-scaling-stroke" d="
  M 33.27 52.23
  Q 37.25 52.23 37.39 52.22
  A 1.67 1.66 20.7 0 0 38.33 51.80
  Q 38.69 51.49 45.11 44.44
  Q 48.28 40.97 48.77 38.31
  C 49.50 34.40 49.50 29.86 46.38 27.42
  Q 42.28 24.21 37.32 23.11
  A 0.48 0.48 0.0 0 1 36.96 22.49
  Q 38.75 17.06 44.38 16.60
  A 0.36 0.36 0.0 0 0 44.71 16.23
  L 44.71 16.15
  A 0.33 0.33 0.0 0 0 44.39 15.83
  Q 38.82 15.69 33.26 15.76
  Q 27.69 15.70 22.13 15.84
  A 0.33 0.33 0.0 0 0 21.81 16.15
  L 21.81 16.23
  A 0.36 0.36 0.0 0 0 22.14 16.60
  Q 27.77 17.06 29.56 22.49
  A 0.48 0.48 0.0 0 1 29.20 23.11
  Q 24.24 24.21 20.14 27.43
  C 17.02 29.87 17.02 34.41 17.76 38.32
  Q 18.25 40.98 21.42 44.45
  Q 27.84 51.49 28.20 51.80
  A 1.67 1.66 -20.8 0 0 29.14 52.22
  Q 29.28 52.23 33.27 52.23"
/>
</g>
<path fill="#2a584b" d="
  M 33.78 88.00
  L 33.04 88.00
  C 21.76 77.75 12.07 65.61 5.65 51.56
  Q 2.15 43.88 1.59 34.88
  C 0.36 15.33 16.94 -0.39 36.66 1.49
  C 53.30 3.07 66.15 17.29 65.46 33.99
  Q 65.13 41.75 62.33 49.05
  C 56.69 63.76 45.39 77.49 33.78 88.00
  Z
  M 33.40 86.73
  Q 33.50 86.73 33.64 86.60
  Q 48.47 72.90 57.58 56.54
  C 66.19 41.08 68.17 22.04 53.23 9.55
  C 47.98 5.17 40.83 2.47 33.54 2.45
  C 26.24 2.44 19.08 5.12 13.83 9.49
  C -1.16 21.93 0.76 40.97 9.32 56.46
  Q 18.38 72.85 33.16 86.60
  Q 33.30 86.73 33.40 86.73
  Z"
/>
<path fill="#5aab95" d="
  M 33.54 2.45
  C 40.83 2.47 47.98 5.17 53.23 9.55
  C 68.17 22.04 66.19 41.08 57.58 56.54
  Q 48.47 72.90 33.64 86.60
  Q 33.50 86.73 33.40 86.73
  Q 33.30 86.73 33.16 86.60
  Q 18.38 72.85 9.32 56.46
  C 0.76 40.97 -1.16 21.93 13.83 9.49
  C 19.08 5.12 26.24 2.44 33.54 2.45
  Z
  M 33.27 52.23
  Q 37.25 52.23 37.39 52.22
  A 1.67 1.66 20.7 0 0 38.33 51.80
  Q 38.69 51.49 45.11 44.44
  Q 48.28 40.97 48.77 38.31
  C 49.50 34.40 49.50 29.86 46.38 27.42
  Q 42.28 24.21 37.32 23.11
  A 0.48 0.48 0.0 0 1 36.96 22.49
  Q 38.75 17.06 44.38 16.60
  A 0.36 0.36 0.0 0 0 44.71 16.23
  L 44.71 16.15
  A 0.33 0.33 0.0 0 0 44.39 15.83
  Q 38.82 15.69 33.26 15.76
  Q 27.69 15.70 22.13 15.84
  A 0.33 0.33 0.0 0 0 21.81 16.15
  L 21.81 16.23
  A 0.36 0.36 0.0 0 0 22.14 16.60
  Q 27.77 17.06 29.56 22.49
  A 0.48 0.48 0.0 0 1 29.20 23.11
  Q 24.24 24.21 20.14 27.43
  C 17.02 29.87 17.02 34.41 17.76 38.32
  Q 18.25 40.98 21.42 44.45
  Q 27.84 51.49 28.20 51.80
  A 1.67 1.66 -20.8 0 0 29.14 52.22
  Q 29.28 52.23 33.27 52.23
  Z"
/>
<path fill="#fff8ec" d="
  M 33.26 15.76
  Q 38.82 15.69 44.39 15.83
  A 0.33 0.33 0.0 0 1 44.71 16.15
  L 44.71 16.23
  A 0.36 0.36 0.0 0 1 44.38 16.60
  Q 38.75 17.06 36.96 22.49
  A 0.48 0.48 0.0 0 0 37.32 23.11
  Q 42.28 24.21 46.38 27.42
  C 49.50 29.86 49.50 34.40 48.77 38.31
  Q 48.28 40.97 45.11 44.44
  Q 38.69 51.49 38.33 51.80
  A 1.67 1.66 20.7 0 1 37.39 52.22
  Q 37.25 52.23 33.27 52.23
  Q 29.28 52.23 29.14 52.22
  A 1.67 1.66 -20.8 0 1 28.20 51.80
  Q 27.84 51.49 21.42 44.45
  Q 18.25 40.98 17.76 38.32
  C 17.02 34.41 17.02 29.87 20.14 27.43
  Q 24.24 24.21 29.20 23.11
  A 0.48 0.48 0.0 0 0 29.56 22.49
  Q 27.77 17.06 22.14 16.60
  A 0.36 0.36 0.0 0 1 21.81 16.23
  L 21.81 16.15
  A 0.33 0.33 0.0 0 1 22.13 15.84
  Q 27.69 15.70 33.26 15.76
  Z"
/>
</svg>
