<?xml version="1.0" encoding="UTF-8" standalone="no"?>
<!DOCTYPE svg PUBLIC "-//W3C//DTD SVG 1.1//EN" "http://www.w3.org/Graphics/SVG/1.1/DTD/svg11.dtd">
<svg xmlns="http://www.w3.org/2000/svg" version="1.1" viewBox="0.00 0.00 66.00 88.00">
<g stroke-width="2.00" fill="none" stroke-linecap="butt">
<path stroke="#177b60" vector-effect="non-scaling-stroke" d="
  M 33.41 86.74
  Q 33.51 86.74 33.65 86.62
  Q 47.50 73.78 56.29 58.81
  C 66.94 40.66 69.07 19.00 48.92 6.61
  Q 42.17 2.46 33.53 2.45
  Q 24.89 2.44 18.13 6.57
  C -2.06 18.90 0.01 40.57 10.61 58.75
  Q 19.36 73.74 33.17 86.62
  Q 33.31 86.74 33.41 86.74"
/>
<path stroke="#8fceb6" vector-effect="non-scaling-stroke" d="
  M 35.70 16.23
  L 35.70 19.31
  A 0.50 0.50 0.0 0 0 36.20 19.81
  L 37.08 19.81
  A 0.51 0.51 0.0 0 0 37.59 19.24
  Q 37.34 17.27 35.97 16.10
  A 0.17 0.16 -70.2 0 0 35.70 16.23"
/>
<path stroke="#8fceb6" vector-effect="non-scaling-stroke" d="
  M 29.77 16.43
  A 0.18 0.18 0.0 0 0 29.47 16.30
  Q 28.08 17.63 27.80 19.39
  A 0.58 0.57 4.3 0 0 28.37 20.05
  L 29.35 20.05
  A 0.42 0.42 0.0 0 0 29.77 19.63
  L 29.77 16.43"
/>
<path stroke="#8fceb6" vector-effect="non-scaling-stroke" d="
  M 38.00 21.50
  A 1.14 1.13 -53.0 0 0 36.39 21.73
  Q 33.04 26.29 34.49 30.68
  A 2.86 2.63 69.7 0 0 38.07 32.51
  Q 38.74 32.23 39.63 30.84
  Q 43.11 25.37 38.00 21.50"
/>
<path stroke="#8fceb6" vector-effect="non-scaling-stroke" d="
  M 27.46 21.78
  Q 22.35 25.62 25.80 31.09
  Q 26.68 32.48 27.35 32.76
  A 2.85 2.62 -69.5 0 0 30.93 30.95
  Q 32.39 26.58 29.07 22.02
  A 1.14 1.13 53.3 0 0 27.46 21.78"
/>
<path stroke="#8fceb6" vector-effect="non-scaling-stroke" d="
  M 44.58 30.83
  Q 44.64 28.96 43.58 27.73
  A 0.44 0.44 0.0 0 0 42.81 28.02
  L 42.81 30.52
  A 0.63 0.63 0.0 0 0 43.44 31.15
  L 44.25 31.15
  A 0.33 0.33 0.0 0 0 44.58 30.83"
/>
<path stroke="#8fceb6" vector-effect="non-scaling-stroke" d="
  M 21.90 28.02
  Q 20.56 29.70 20.83 31.23
  A 0.51 0.50 -14.3 0 0 21.49 31.62
  Q 23.14 31.04 22.63 29.57
  Q 22.52 29.24 22.60 28.87
  Q 22.72 28.37 22.63 28.14
  A 0.42 0.42 0.0 0 0 21.90 28.02"
/>
<path stroke="#8fceb6" vector-effect="non-scaling-stroke" d="
  M 40.12 40.91
  A 2.15 2.14 -46.7 0 0 43.25 40.81
  Q 47.12 36.40 43.23 32.66
  A 0.66 0.66 0.0 0 0 42.30 32.67
  L 38.54 36.44
  A 2.04 2.04 0.0 0 0 38.54 39.33
  L 40.12 40.91"
/>
<path stroke="#8fceb6" vector-effect="non-scaling-stroke" d="
  M 25.29 41.17
  L 26.91 39.62
  A 2.05 2.04 46.2 0 0 26.96 36.73
  L 23.27 32.88
  A 0.67 0.67 0.0 0 0 22.33 32.86
  Q 18.37 36.53 22.16 41.02
  A 2.15 2.14 47.8 0 0 25.29 41.17"
/>
<path stroke="#8fceb6" vector-effect="non-scaling-stroke" d="
  M 32.73 52.25
  Q 38.05 52.24 40.59 46.05
  A 1.19 1.18 -62.3 0 0 40.15 44.62
  Q 37.12 42.62 34.27 39.78
  Q 33.78 39.30 32.70 39.30
  Q 31.62 39.30 31.14 39.79
  Q 28.29 42.64 25.27 44.65
  A 1.19 1.18 62.1 0 0 24.84 46.08
  Q 27.40 52.26 32.73 52.25"
/>
</g>
<path fill="#0e5340" d="
  M 33.81 88.00
  L 33.05 88.00
  C 21.76 77.75 12.03 65.55 5.65 51.56
  Q 2.18 43.97 1.58 34.89
  C 0.54 18.96 11.06 5.92 26.43 2.08
  Q 34.13 0.15 42.99 2.77
  Q 51.23 5.19 57.01 11.50
  Q 68.00 23.49 64.76 40.23
  Q 62.37 52.57 54.47 64.21
  Q 45.61 77.26 33.81 88.00
  Z
  M 33.41 86.74
  Q 33.51 86.74 33.65 86.62
  Q 47.50 73.78 56.29 58.81
  C 66.94 40.66 69.07 19.00 48.92 6.61
  Q 42.17 2.46 33.53 2.45
  Q 24.89 2.44 18.13 6.57
  C -2.06 18.90 0.01 40.57 10.61 58.75
  Q 19.36 73.74 33.17 86.62
  Q 33.31 86.74 33.41 86.74
  Z"
/>
<path fill="#1fa37f" d="
  M 33.53 2.45
  Q 42.17 2.46 48.92 6.61
  C 69.07 19.00 66.94 40.66 56.29 58.81
  Q 47.50 73.78 33.65 86.62
  Q 33.51 86.74 33.41 86.74
  Q 33.31 86.74 33.17 86.62
  Q 19.36 73.74 10.61 58.75
  C 0.01 40.57 -2.06 18.90 18.13 6.57
  Q 24.89 2.44 33.53 2.45
  Z
  M 35.70 16.23
  L 35.70 19.31
  A 0.50 0.50 0.0 0 0 36.20 19.81
  L 37.08 19.81
  A 0.51 0.51 0.0 0 0 37.59 19.24
  Q 37.34 17.27 35.97 16.10
  A 0.17 0.16 -70.2 0 0 35.70 16.23
  Z
  M 29.77 16.43
  A 0.18 0.18 0.0 0 0 29.47 16.30
  Q 28.08 17.63 27.80 19.39
  A 0.58 0.57 4.3 0 0 28.37 20.05
  L 29.35 20.05
  A 0.42 0.42 0.0 0 0 29.77 19.63
  L 29.77 16.43
  Z
  M 38.00 21.50
  A 1.14 1.13 -53.0 0 0 36.39 21.73
  Q 33.04 26.29 34.49 30.68
  A 2.86 2.63 69.7 0 0 38.07 32.51
  Q 38.74 32.23 39.63 30.84
  Q 43.11 25.37 38.00 21.50
  Z
  M 27.46 21.78
  Q 22.35 25.62 25.80 31.09
  Q 26.68 32.48 27.35 32.76
  A 2.85 2.62 -69.5 0 0 30.93 30.95
  Q 32.39 26.58 29.07 22.02
  A 1.14 1.13 53.3 0 0 27.46 21.78
  Z
  M 44.58 30.83
  Q 44.64 28.96 43.58 27.73
  A 0.44 0.44 0.0 0 0 42.81 28.02
  L 42.81 30.52
  A 0.63 0.63 0.0 0 0 43.44 31.15
  L 44.25 31.15
  A 0.33 0.33 0.0 0 0 44.58 30.83
  Z
  M 21.90 28.02
  Q 20.56 29.70 20.83 31.23
  A 0.51 0.50 -14.3 0 0 21.49 31.62
  Q 23.14 31.04 22.63 29.57
  Q 22.52 29.24 22.60 28.87
  Q 22.72 28.37 22.63 28.14
  A 0.42 0.42 0.0 0 0 21.90 28.02
  Z
  M 40.12 40.91
  A 2.15 2.14 -46.7 0 0 43.25 40.81
  Q 47.12 36.40 43.23 32.66
  A 0.66 0.66 0.0 0 0 42.30 32.67
  L 38.54 36.44
  A 2.04 2.04 0.0 0 0 38.54 39.33
  L 40.12 40.91
  Z
  M 25.29 41.17
  L 26.91 39.62
  A 2.05 2.04 46.2 0 0 26.96 36.73
  L 23.27 32.88
  A 0.67 0.67 0.0 0 0 22.33 32.86
  Q 18.37 36.53 22.16 41.02
  A 2.15 2.14 47.8 0 0 25.29 41.17
  Z
  M 32.73 52.25
  Q 38.05 52.24 40.59 46.05
  A 1.19 1.18 -62.3 0 0 40.15 44.62
  Q 37.12 42.62 34.27 39.78
  Q 33.78 39.30 32.70 39.30
  Q 31.62 39.30 31.14 39.79
  Q 28.29 42.64 25.27 44.65
  A 1.19 1.18 62.1 0 0 24.84 46.08
  Q 27.40 52.26 32.73 52.25
  Z"
/>
<path fill="#fff8ec" d="
  M 35.97 16.10
  Q 37.34 17.27 37.59 19.24
  A 0.51 0.51 0.0 0 1 37.08 19.81
  L 36.20 19.81
  A 0.50 0.50 0.0 0 1 35.70 19.31
  L 35.70 16.23
  A 0.17 0.16 -70.2 0 1 35.97 16.10
  Z"
/>
<path fill="#fff8ec" d="
  M 29.77 16.43
  L 29.77 19.63
  A 0.42 0.42 0.0 0 1 29.35 20.05
  L 28.37 20.05
  A 0.58 0.57 4.3 0 1 27.80 19.39
  Q 28.08 17.63 29.47 16.30
  A 0.18 0.18 0.0 0 1 29.77 16.43
  Z"
/>
<path fill="#fff8ec" d="
  M 38.00 21.50
  Q 43.11 25.37 39.63 30.84
  Q 38.74 32.23 38.07 32.51
  A 2.86 2.63 69.7 0 1 34.49 30.68
  Q 33.04 26.29 36.39 21.73
  A 1.14 1.13 -53.0 0 1 38.00 21.50
  Z"
/>
<path fill="#fff8ec" d="
  M 27.46 21.78
  A 1.14 1.13 53.3 0 1 29.07 22.02
  Q 32.39 26.58 30.93 30.95
  A 2.85 2.62 -69.5 0 1 27.35 32.76
  Q 26.68 32.48 25.80 31.09
  Q 22.35 25.62 27.46 21.78
  Z"
/>
<path fill="#fff8ec" d="
  M 44.58 30.83
  A 0.33 0.33 0.0 0 1 44.25 31.15
  L 43.44 31.15
  A 0.63 0.63 0.0 0 1 42.81 30.52
  L 42.81 28.02
  A 0.44 0.44 0.0 0 1 43.58 27.73
  Q 44.64 28.96 44.58 30.83
  Z"
/>
<path fill="#fff8ec" d="
  M 22.63 28.14
  Q 22.72 28.37 22.60 28.87
  Q 22.52 29.24 22.63 29.57
  Q 23.14 31.04 21.49 31.62
  A 0.51 0.50 -14.3 0 1 20.83 31.23
  Q 20.56 29.70 21.90 28.02
  A 0.42 0.42 0.0 0 1 22.63 28.14
  Z"
/>
<path fill="#fff8ec" d="
  M 40.12 40.91
  L 38.54 39.33
  A 2.04 2.04 0.0 0 1 38.54 36.44
  L 42.30 32.67
  A 0.66 0.66 0.0 0 1 43.23 32.66
  Q 47.12 36.40 43.25 40.81
  A 2.15 2.14 -46.7 0 1 40.12 40.91
  Z"
/>
<path fill="#fff8ec" d="
  M 25.29 41.17
  A 2.15 2.14 47.8 0 1 22.16 41.02
  Q 18.37 36.53 22.33 32.86
  A 0.67 0.67 0.0 0 1 23.27 32.88
  L 26.96 36.73
  A 2.05 2.04 46.2 0 1 26.91 39.62
  L 25.29 41.17
  Z"
/>
<path fill="#fff8ec" d="
  M 32.70 39.30
  Q 33.78 39.30 34.27 39.78
  Q 37.12 42.62 40.15 44.62
  A 1.19 1.18 -62.3 0 1 40.59 46.05
  Q 38.05 52.24 32.73 52.25
  Q 27.40 52.26 24.84 46.08
  A 1.19 1.18 62.1 0 1 25.27 44.65
  Q 28.29 42.64 31.14 39.79
  Q 31.62 39.30 32.70 39.30
  Z"
/>
</svg>
