<?xml version="1.0" encoding="UTF-8" standalone="no"?>
<!DOCTYPE svg PUBLIC "-//W3C//DTD SVG 1.1//EN" "http://www.w3.org/Graphics/SVG/1.1/DTD/svg11.dtd">
<svg xmlns="http://www.w3.org/2000/svg" version="1.1" viewBox="0.00 0.00 66.00 88.00">
<g stroke-width="2.00" fill="none" stroke-linecap="butt">
<path stroke="#26433a" vector-effect="non-scaling-stroke" d="
  M 33.42 86.64
  C 33.93 86.64 33.48 86.70 33.63 86.55
  Q 47.22 74.12 56.30 58.80
  C 65.06 44.03 68.73 25.54 55.94 12.13
  C 50.01 5.92 42.18 2.58 33.53 2.57
  C 24.88 2.56 17.04 5.87 11.10 12.07
  C -1.73 25.44 1.89 43.94 10.61 58.74
  Q 19.65 74.08 33.20 86.55
  C 33.36 86.70 32.91 86.63 33.42 86.64"
/>
<path stroke="#99a89d" vector-effect="non-scaling-stroke" d="
  M 41.51 24.37
  A 8.59 8.59 0.0 0 0 32.92 15.78
  A 8.59 8.59 0.0 0 0 24.33 24.37
  A 8.59 8.59 0.0 0 0 32.92 32.96
  A 8.59 8.59 0.0 0 0 41.51 24.37"
/>
<path stroke="#99a89d" vector-effect="non-scaling-stroke" d="
  M 15.83 52.24
  L 50.01 52.24
  A 0.29 0.29 0.0 0 0 50.30 51.95
  L 50.30 50.86
  A 13.86 13.53 -90.0 0 0 36.77 37.00
  L 29.07 37.00
  A 13.86 13.53 90.0 0 0 15.54 50.86
  L 15.54 51.95
  A 0.29 0.29 0.0 0 0 15.83 52.24"
/>
</g>
<path fill="#192e27" d="
  M 33.78 88.00
  L 33.04 88.00
  C 21.80 77.79 12.02 65.61 5.64 51.56
  Q 2.17 43.93 1.59 34.88
  C 0.32 15.13 17.19 -0.32 36.52 1.46
  C 45.47 2.29 53.99 6.95 59.32 14.22
  C 77.49 39.03 51.56 71.92 33.78 88.00
  Z
  M 33.42 86.64
  C 33.93 86.64 33.48 86.70 33.63 86.55
  Q 47.22 74.12 56.30 58.80
  C 65.06 44.03 68.73 25.54 55.94 12.13
  C 50.01 5.92 42.18 2.58 33.53 2.57
  C 24.88 2.56 17.04 5.87 11.10 12.07
  C -1.73 25.44 1.89 43.94 10.61 58.74
  Q 19.65 74.08 33.20 86.55
  C 33.36 86.70 32.91 86.63 33.42 86.64
  Z"
/>
<path fill="#32574d" d="
  M 33.53 2.57
  C 42.18 2.58 50.01 5.92 55.94 12.13
  C 68.73 25.54 65.06 44.03 56.30 58.80
  Q 47.22 74.12 33.63 86.55
  C 33.48 86.70 33.93 86.64 33.42 86.64
  C 32.91 86.63 33.36 86.70 33.20 86.55
  Q 19.65 74.08 10.61 58.74
  C 1.89 43.94 -1.73 25.44 11.10 12.07
  C 17.04 5.87 24.88 2.56 33.53 2.57
  Z
  M 41.51 24.37
  A 8.59 8.59 0.0 0 0 32.92 15.78
  A 8.59 8.59 0.0 0 0 24.33 24.37
  A 8.59 8.59 0.0 0 0 32.92 32.96
  A 8.59 8.59 0.0 0 0 41.51 24.37
  Z
  M 15.83 52.24
  L 50.01 52.24
  A 0.29 0.29 0.0 0 0 50.30 51.95
  L 50.30 50.86
  A 13.86 13.53 -90.0 0 0 36.77 37.00
  L 29.07 37.00
  A 13.86 13.53 90.0 0 0 15.54 50.86
  L 15.54 51.95
  A 0.29 0.29 0.0 0 0 15.83 52.24
  Z"
/>
<circle fill="#fff8ec" cx="32.92" cy="24.37" r="8.59"/>
<path fill="#fff8ec" d="
  M 15.83 52.24
  A 0.29 0.29 0.0 0 1 15.54 51.95
  L 15.54 50.86
  A 13.86 13.53 -90.0 0 1 29.07 37.00
  L 36.77 37.00
  A 13.86 13.53 90.0 0 1 50.30 50.86
  L 50.30 51.95
  A 0.29 0.29 0.0 0 1 50.01 52.24
  L 15.83 52.24
  Z"
/>
</svg>
