<?xml version="1.0" encoding="UTF-8" standalone="no"?>
<!DOCTYPE svg PUBLIC "-//W3C//DTD SVG 1.1//EN" "http://www.w3.org/Graphics/SVG/1.1/DTD/svg11.dtd">
<svg xmlns="http://www.w3.org/2000/svg" version="1.1" viewBox="0.00 0.00 66.00 88.00">
<g stroke-width="2.00" fill="none" stroke-linecap="butt">
<path stroke="#21303f" vector-effect="non-scaling-stroke" d="
  M 33.41 86.58
  Q 33.55 86.58 33.69 86.54
  A 0.34 0.21 5.0 0 0 33.76 86.51
  C 46.73 74.50 60.81 56.91 63.68 39.48
  Q 66.77 20.71 52.68 9.16
  C 47.36 4.80 40.52 2.74 33.75 2.48
  Q 33.63 2.48 33.51 2.48
  Q 33.40 2.48 33.28 2.48
  C 26.51 2.72 19.66 4.77 14.33 9.11
  Q 0.22 20.63 3.26 39.41
  C 6.09 56.84 20.13 74.47 33.07 86.51
  A 0.34 0.21 -4.9 0 0 33.13 86.54
  Q 33.27 86.58 33.41 86.58"
/>
<path stroke="#969c9f" vector-effect="non-scaling-stroke" d="
  M 20.72 51.64
  C 17.40 45.36 28.45 42.03 27.17 36.10
  Q 25.98 30.61 27.47 27.13
  A 3.71 3.40 13.0 0 1 31.07 25.09
  Q 33.25 25.25 35.90 26.63
  A 0.40 0.40 0.0 0 0 36.48 26.30
  C 36.90 17.57 27.62 12.40 20.67 18.60
  C 16.30 22.50 13.10 27.66 15.67 33.60
  C 16.88 36.38 17.19 38.71 16.62 40.85
  C 15.50 45.10 14.68 50.87 20.36 52.11
  A 0.33 0.33 0.0 0 0 20.72 51.64"
/>
<path stroke="#969c9f" vector-effect="non-scaling-stroke" d="
  M 47.84 17.89
  Q 43.24 19.54 39.72 23.05
  A 1.40 1.39 68.0 0 0 39.30 24.05
  L 39.30 27.85
  A 0.38 0.37 -15.5 0 0 39.87 28.17
  Q 42.38 26.65 44.10 26.56
  A 1.81 1.81 0.0 0 0 45.69 25.42
  L 48.47 18.55
  A 0.50 0.50 0.0 0 0 47.84 17.89"
/>
<path stroke="#969c9f" vector-effect="non-scaling-stroke" d="
  M 37.10 32.46
  L 36.87 30.94
  A 1.19 1.17 11.6 0 0 36.31 30.10
  Q 33.57 28.43 30.75 28.02
  A 0.68 0.68 0.0 0 0 30.00 28.53
  Q 29.23 31.55 29.62 33.16
  C 30.88 38.31 29.78 41.50 25.86 44.78
  A 1.12 1.12 0.0 0 0 26.16 46.68
  L 28.03 47.43
  A 3.02 3.01 -50.3 0 0 30.80 47.17
  C 33.67 45.31 37.39 41.90 37.80 38.31
  A 0.56 0.55 4.9 0 1 38.39 37.82
  C 41.34 37.97 44.21 32.41 45.41 30.03
  A 0.45 0.45 0.0 0 0 44.92 29.38
  C 42.70 29.79 38.87 31.77 37.77 32.71
  A 0.41 0.41 0.0 0 1 37.10 32.46"
/>
<path stroke="#969c9f" vector-effect="non-scaling-stroke" d="
  M 43.25 40.34
  Q 47.16 40.63 50.82 38.76
  A 0.32 0.31 53.3 0 0 50.89 38.25
  Q 48.86 36.32 45.97 35.64
  A 0.84 0.84 0.0 0 0 45.10 35.98
  Q 43.13 38.85 40.48 40.52
  A 1.00 0.98 85.3 0 0 40.09 40.99
  L 39.44 42.59
  A 0.73 0.72 25.0 0 0 39.78 43.51
  Q 42.40 44.90 45.99 45.31
  A 0.40 0.39 86.4 0 0 46.42 44.82
  Q 45.79 42.32 43.12 40.75
  A 0.22 0.22 0.0 0 1 43.25 40.34"
/>
</g>
<path fill="#16212b" d="
  M 33.81 88.00
  L 33.14 88.00
  Q 15.91 72.74 6.24 53.02
  Q 2.41 45.21 1.64 35.55
  C -0.46 9.14 28.42 -7.36 50.25 6.05
  Q 62.28 13.44 64.92 27.03
  C 69.22 49.25 49.10 74.04 33.81 88.00
  Z
  M 33.41 86.58
  Q 33.55 86.58 33.69 86.54
  A 0.34 0.21 5.0 0 0 33.76 86.51
  C 46.73 74.50 60.81 56.91 63.68 39.48
  Q 66.77 20.71 52.68 9.16
  C 47.36 4.80 40.52 2.74 33.75 2.48
  Q 33.63 2.48 33.51 2.48
  Q 33.40 2.48 33.28 2.48
  C 26.51 2.72 19.66 4.77 14.33 9.11
  Q 0.22 20.63 3.26 39.41
  C 6.09 56.84 20.13 74.47 33.07 86.51
  A 0.34 0.21 -4.9 0 0 33.13 86.54
  Q 33.27 86.58 33.41 86.58
  Z"
/>
<path fill="#2c3f52" d="
  M 33.51 2.48
  Q 33.63 2.48 33.75 2.48
  C 40.52 2.74 47.36 4.80 52.68 9.16
  Q 66.77 20.71 63.68 39.48
  C 60.81 56.91 46.73 74.50 33.76 86.51
  A 0.34 0.21 5.0 0 1 33.69 86.54
  Q 33.55 86.58 33.41 86.58
  Q 33.27 86.58 33.13 86.54
  A 0.34 0.21 -4.9 0 1 33.07 86.51
  C 20.13 74.47 6.09 56.84 3.26 39.41
  Q 0.22 20.63 14.33 9.11
  C 19.66 4.77 26.51 2.72 33.28 2.48
  Q 33.40 2.48 33.51 2.48
  Z
  M 20.72 51.64
  C 17.40 45.36 28.45 42.03 27.17 36.10
  Q 25.98 30.61 27.47 27.13
  A 3.71 3.40 13.0 0 1 31.07 25.09
  Q 33.25 25.25 35.90 26.63
  A 0.40 0.40 0.0 0 0 36.48 26.30
  C 36.90 17.57 27.62 12.40 20.67 18.60
  C 16.30 22.50 13.10 27.66 15.67 33.60
  C 16.88 36.38 17.19 38.71 16.62 40.85
  C 15.50 45.10 14.68 50.87 20.36 52.11
  A 0.33 0.33 0.0 0 0 20.72 51.64
  Z
  M 47.84 17.89
  Q 43.24 19.54 39.72 23.05
  A 1.40 1.39 68.0 0 0 39.30 24.05
  L 39.30 27.85
  A 0.38 0.37 -15.5 0 0 39.87 28.17
  Q 42.38 26.65 44.10 26.56
  A 1.81 1.81 0.0 0 0 45.69 25.42
  L 48.47 18.55
  A 0.50 0.50 0.0 0 0 47.84 17.89
  Z
  M 37.10 32.46
  L 36.87 30.94
  A 1.19 1.17 11.6 0 0 36.31 30.10
  Q 33.57 28.43 30.75 28.02
  A 0.68 0.68 0.0 0 0 30.00 28.53
  Q 29.23 31.55 29.62 33.16
  C 30.88 38.31 29.78 41.50 25.86 44.78
  A 1.12 1.12 0.0 0 0 26.16 46.68
  L 28.03 47.43
  A 3.02 3.01 -50.3 0 0 30.80 47.17
  C 33.67 45.31 37.39 41.90 37.80 38.31
  A 0.56 0.55 4.9 0 1 38.39 37.82
  C 41.34 37.97 44.21 32.41 45.41 30.03
  A 0.45 0.45 0.0 0 0 44.92 29.38
  C 42.70 29.79 38.87 31.77 37.77 32.71
  A 0.41 0.41 0.0 0 1 37.10 32.46
  Z
  M 43.25 40.34
  Q 47.16 40.63 50.82 38.76
  A 0.32 0.31 53.3 0 0 50.89 38.25
  Q 48.86 36.32 45.97 35.64
  A 0.84 0.84 0.0 0 0 45.10 35.98
  Q 43.13 38.85 40.48 40.52
  A 1.00 0.98 85.3 0 0 40.09 40.99
  L 39.44 42.59
  A 0.73 0.72 25.0 0 0 39.78 43.51
  Q 42.40 44.90 45.99 45.31
  A 0.40 0.39 86.4 0 0 46.42 44.82
  Q 45.79 42.32 43.12 40.75
  A 0.22 0.22 0.0 0 1 43.25 40.34
  Z"
/>
<path fill="#fff8ec" d="
  M 20.36 52.11
  C 14.68 50.87 15.50 45.10 16.62 40.85
  C 17.19 38.71 16.88 36.38 15.67 33.60
  C 13.10 27.66 16.30 22.50 20.67 18.60
  C 27.62 12.40 36.90 17.57 36.48 26.30
  A 0.40 0.40 0.0 0 1 35.90 26.63
  Q 33.25 25.25 31.07 25.09
  A 3.71 3.40 13.0 0 0 27.47 27.13
  Q 25.98 30.61 27.17 36.10
  C 28.45 42.03 17.40 45.36 20.72 51.64
  A 0.33 0.33 0.0 0 1 20.36 52.11
  Z"
/>
<path fill="#fff8ec" d="
  M 47.84 17.89
  A 0.50 0.50 0.0 0 1 48.47 18.55
  L 45.69 25.42
  A 1.81 1.81 0.0 0 1 44.10 26.56
  Q 42.38 26.65 39.87 28.17
  A 0.38 0.37 -15.5 0 1 39.30 27.85
  L 39.30 24.05
  A 1.40 1.39 68.0 0 1 39.72 23.05
  Q 43.24 19.54 47.84 17.89
  Z"
/>
<path fill="#fff8ec" d="
  M 37.77 32.71
  C 38.87 31.77 42.70 29.79 44.92 29.38
  A 0.45 0.45 0.0 0 1 45.41 30.03
  C 44.21 32.41 41.34 37.97 38.39 37.82
  A 0.56 0.55 4.9 0 0 37.80 38.31
  C 37.39 41.90 33.67 45.31 30.80 47.17
  A 3.02 3.01 -50.3 0 1 28.03 47.43
  L 26.16 46.68
  A 1.12 1.12 0.0 0 1 25.86 44.78
  C 29.78 41.50 30.88 38.31 29.62 33.16
  Q 29.23 31.55 30.00 28.53
  A 0.68 0.68 0.0 0 1 30.75 28.02
  Q 33.57 28.43 36.31 30.10
  A 1.19 1.17 11.6 0 1 36.87 30.94
  L 37.10 32.46
  A 0.41 0.41 0.0 0 0 37.77 32.71
  Z"
/>
<path fill="#fff8ec" d="
  M 43.12 40.75
  Q 45.79 42.32 46.42 44.82
  A 0.40 0.39 86.4 0 1 45.99 45.31
  Q 42.40 44.90 39.78 43.51
  A 0.73 0.72 25.0 0 1 39.44 42.59
  L 40.09 40.99
  A 1.00 0.98 85.3 0 1 40.48 40.52
  Q 43.13 38.85 45.10 35.98
  A 0.84 0.84 0.0 0 1 45.97 35.64
  Q 48.86 36.32 50.89 38.25
  A 0.32 0.31 53.3 0 1 50.82 38.76
  Q 47.16 40.63 43.25 40.34
  A 0.22 0.22 0.0 0 0 43.12 40.75
  Z"
/>
</svg>
