<?xml version="1.0" encoding="UTF-8" standalone="no"?>
<!DOCTYPE svg PUBLIC "-//W3C//DTD SVG 1.1//EN" "http://www.w3.org/Graphics/SVG/1.1/DTD/svg11.dtd">
<svg xmlns="http://www.w3.org/2000/svg" version="1.1" viewBox="0.00 0.00 66.00 88.00">
<g stroke-width="2.00" fill="none" stroke-linecap="butt">
<path stroke="#428270" vector-effect="non-scaling-stroke" d="
  M 33.40 86.73
  Q 33.52 86.73 33.65 86.61
  Q 47.33 73.92 56.20 58.99
  C 65.32 43.64 68.92 24.87 55.05 11.21
  C 49.46 5.71 41.64 2.48 33.54 2.46
  C 25.44 2.45 17.61 5.65 12.00 11.14
  C -1.91 24.75 1.62 43.53 10.69 58.91
  Q 19.51 73.87 33.15 86.61
  Q 33.28 86.73 33.40 86.73"
/>
<path stroke="#add2c1" vector-effect="non-scaling-stroke" d="
  M 51.03 31.19
  Q 51.27 31.01 51.10 30.64
  A 0.45 0.45 0.0 0 0 50.77 30.39
  L 49.03 30.07
  A 0.71 0.70 5.5 0 1 48.45 29.38
  L 48.45 23.70
  A 0.71 0.71 0.0 0 0 47.74 22.99
  L 15.14 22.99
  A 0.47 0.47 0.0 0 0 14.67 23.46
  L 14.67 44.87
  A 0.37 0.37 0.0 0 0 15.04 45.24
  L 47.98 45.24
  A 0.46 0.45 0.0 0 0 48.44 44.79
  L 48.44 39.06
  A 0.79 0.78 -90.0 0 1 49.22 38.27
  L 50.81 38.27
  A 0.48 0.48 0.0 0 0 51.29 37.77
  L 50.97 31.32
  A 0.14 0.13 -22.3 0 1 51.03 31.19"
/>
<path stroke="#add2c1" vector-effect="non-scaling-stroke" d="
  M 45.38 26.63
  A 0.57 0.57 0.0 0 0 44.81 26.06
  L 18.21 26.06
  A 0.57 0.57 0.0 0 0 17.64 26.63
  L 17.64 41.65
  A 0.57 0.57 0.0 0 0 18.21 42.22
  L 44.81 42.22
  A 0.57 0.57 0.0 0 0 45.38 41.65
  L 45.38 26.63"
/>
<path stroke="#add2c1" vector-effect="non-scaling-stroke" d="
  M 41.70 30.24
  A 0.60 0.60 0.0 0 0 41.10 29.64
  L 21.90 29.64
  A 0.60 0.60 0.0 0 0 21.30 30.24
  L 21.30 38.02
  A 0.60 0.60 0.0 0 0 21.90 38.62
  L 41.10 38.62
  A 0.60 0.60 0.0 0 0 41.70 38.02
  L 41.70 30.24"
/>
</g>
<path fill="#2a584b" d="
  M 33.81 88.00
  L 33.04 88.00
  C 22.05 78.01 11.69 65.34 5.65 51.56
  Q 2.12 43.51 1.56 34.89
  C 0.30 15.62 16.63 -0.08 36.10 1.44
  C 53.49 2.80 66.53 17.66 65.42 34.97
  C 64.11 55.29 48.18 74.86 33.81 88.00
  Z
  M 33.40 86.73
  Q 33.52 86.73 33.65 86.61
  Q 47.33 73.92 56.20 58.99
  C 65.32 43.64 68.92 24.87 55.05 11.21
  C 49.46 5.71 41.64 2.48 33.54 2.46
  C 25.44 2.45 17.61 5.65 12.00 11.14
  C -1.91 24.75 1.62 43.53 10.69 58.91
  Q 19.51 73.87 33.15 86.61
  Q 33.28 86.73 33.40 86.73
  Z"
/>
<path fill="#5aab95" d="
  M 33.54 2.46
  C 41.64 2.48 49.46 5.71 55.05 11.21
  C 68.92 24.87 65.32 43.64 56.20 58.99
  Q 47.33 73.92 33.65 86.61
  Q 33.52 86.73 33.40 86.73
  Q 33.28 86.73 33.15 86.61
  Q 19.51 73.87 10.69 58.91
  C 1.62 43.53 -1.91 24.75 12.00 11.14
  C 17.61 5.65 25.44 2.45 33.54 2.46
  Z
  M 51.03 31.19
  Q 51.27 31.01 51.10 30.64
  A 0.45 0.45 0.0 0 0 50.77 30.39
  L 49.03 30.07
  A 0.71 0.70 5.5 0 1 48.45 29.38
  L 48.45 23.70
  A 0.71 0.71 0.0 0 0 47.74 22.99
  L 15.14 22.99
  A 0.47 0.47 0.0 0 0 14.67 23.46
  L 14.67 44.87
  A 0.37 0.37 0.0 0 0 15.04 45.24
  L 47.98 45.24
  A 0.46 0.45 0.0 0 0 48.44 44.79
  L 48.44 39.06
  A 0.79 0.78 -90.0 0 1 49.22 38.27
  L 50.81 38.27
  A 0.48 0.48 0.0 0 0 51.29 37.77
  L 50.97 31.32
  A 0.14 0.13 -22.3 0 1 51.03 31.19
  Z"
/>
<path fill="#fff8ec" d="
  M 50.97 31.32
  L 51.29 37.77
  A 0.48 0.48 0.0 0 1 50.81 38.27
  L 49.22 38.27
  A 0.79 0.78 90.0 0 0 48.44 39.06
  L 48.44 44.79
  A 0.46 0.45 0.0 0 1 47.98 45.24
  L 15.04 45.24
  A 0.37 0.37 0.0 0 1 14.67 44.87
  L 14.67 23.46
  A 0.47 0.47 0.0 0 1 15.14 22.99
  L 47.74 22.99
  A 0.71 0.71 0.0 0 1 48.45 23.70
  L 48.45 29.38
  A 0.71 0.70 5.5 0 0 49.03 30.07
  L 50.77 30.39
  A 0.45 0.45 0.0 0 1 51.10 30.64
  Q 51.27 31.01 51.03 31.19
  A 0.14 0.13 -22.3 0 0 50.97 31.32
  Z
  M 45.38 26.63
  A 0.57 0.57 0.0 0 0 44.81 26.06
  L 18.21 26.06
  A 0.57 0.57 0.0 0 0 17.64 26.63
  L 17.64 41.65
  A 0.57 0.57 0.0 0 0 18.21 42.22
  L 44.81 42.22
  A 0.57 0.57 0.0 0 0 45.38 41.65
  L 45.38 26.63
  Z"
/>
<path fill="#5aab95" d="
  M 45.38 41.65
  A 0.57 0.57 0.0 0 1 44.81 42.22
  L 18.21 42.22
  A 0.57 0.57 0.0 0 1 17.64 41.65
  L 17.64 26.63
  A 0.57 0.57 0.0 0 1 18.21 26.06
  L 44.81 26.06
  A 0.57 0.57 0.0 0 1 45.38 26.63
  L 45.38 41.65
  Z
  M 41.70 30.24
  A 0.60 0.60 0.0 0 0 41.10 29.64
  L 21.90 29.64
  A 0.60 0.60 0.0 0 0 21.30 30.24
  L 21.30 38.02
  A 0.60 0.60 0.0 0 0 21.90 38.62
  L 41.10 38.62
  A 0.60 0.60 0.0 0 0 41.70 38.02
  L 41.70 30.24
  Z"
/>
<rect fill="#fff8ec" x="21.30" y="29.64" width="20.40" height="8.98" rx="0.60"/>
</svg>
