<?xml version="1.0" encoding="UTF-8" standalone="no"?>
<!DOCTYPE svg PUBLIC "-//W3C//DTD SVG 1.1//EN" "http://www.w3.org/Graphics/SVG/1.1/DTD/svg11.dtd">
<svg xmlns="http://www.w3.org/2000/svg" version="1.1" viewBox="0.00 0.00 66.00 88.00">
<g stroke-width="2.00" fill="none" stroke-linecap="butt">
<path stroke="#26433a" vector-effect="non-scaling-stroke" d="
  M 33.42 86.61
  C 34.16 86.61 33.56 86.68 33.78 86.48
  Q 46.69 74.46 55.47 60.24
  Q 62.42 48.99 63.85 38.06
  Q 66.63 16.98 48.10 6.18
  Q 41.89 2.56 33.53 2.55
  Q 25.17 2.54 18.95 6.14
  Q 0.39 16.90 3.12 37.99
  Q 4.52 48.92 11.44 60.19
  Q 20.19 74.43 33.07 86.48
  C 33.29 86.68 32.68 86.61 33.42 86.61"
/>
<path stroke="#99a89d" vector-effect="non-scaling-stroke" d="
  M 19.64 46.32
  A 3.09 3.09 0.0 0 1 22.71 43.26
  Q 31.40 43.22 39.25 43.25
  C 41.35 43.26 42.36 42.32 42.36 40.25
  Q 42.35 18.82 42.34 17.54
  A 1.79 1.79 0.0 0 0 40.54 15.77
  Q 26.25 15.78 24.88 15.72
  C 19.88 15.50 16.43 17.29 16.48 22.47
  Q 16.54 30.61 16.49 44.57
  C 16.47 48.65 17.44 51.12 21.34 52.17
  A 1.90 1.89 -37.0 0 0 21.85 52.24
  L 45.26 52.24
  A 1.88 1.85 33.4 0 0 45.97 52.10
  Q 50.02 50.41 50.03 46.51
  Q 50.07 32.38 50.04 22.86
  A 1.48 1.48 0.0 0 0 48.60 21.39
  L 48.54 21.38
  A 1.43 1.42 -89.4 0 0 47.08 22.82
  Q 47.15 34.44 47.03 45.94
  Q 47.00 48.19 44.23 49.37
  A 1.50 1.44 -55.6 0 1 43.65 49.49
  L 22.49 49.48
  A 2.86 2.86 0.0 0 1 19.63 46.56
  L 19.64 46.32"
/>
</g>
<path fill="#192e27" d="
  M 33.80 88.00
  L 33.04 88.00
  C 21.77 77.76 12.09 65.65 5.65 51.57
  Q 2.21 44.05 1.60 34.90
  C 0.54 18.97 11.20 5.67 26.50 2.10
  C 40.96 -1.27 55.89 5.94 62.59 19.70
  C 66.96 28.67 65.93 39.59 62.35 48.95
  C 56.70 63.76 45.45 77.41 33.80 88.00
  Z
  M 33.42 86.61
  C 34.16 86.61 33.56 86.68 33.78 86.48
  Q 46.69 74.46 55.47 60.24
  Q 62.42 48.99 63.85 38.06
  Q 66.63 16.98 48.10 6.18
  Q 41.89 2.56 33.53 2.55
  Q 25.17 2.54 18.95 6.14
  Q 0.39 16.90 3.12 37.99
  Q 4.52 48.92 11.44 60.19
  Q 20.19 74.43 33.07 86.48
  C 33.29 86.68 32.68 86.61 33.42 86.61
  Z"
/>
<path fill="#32574d" d="
  M 33.53 2.55
  Q 41.89 2.56 48.10 6.18
  Q 66.63 16.98 63.85 38.06
  Q 62.42 48.99 55.47 60.24
  Q 46.69 74.46 33.78 86.48
  C 33.56 86.68 34.16 86.61 33.42 86.61
  C 32.68 86.61 33.29 86.68 33.07 86.48
  Q 20.19 74.43 11.44 60.19
  Q 4.52 48.92 3.12 37.99
  Q 0.39 16.90 18.95 6.14
  Q 25.17 2.54 33.53 2.55
  Z
  M 19.64 46.32
  A 3.09 3.09 0.0 0 1 22.71 43.26
  Q 31.40 43.22 39.25 43.25
  C 41.35 43.26 42.36 42.32 42.36 40.25
  Q 42.35 18.82 42.34 17.54
  A 1.79 1.79 0.0 0 0 40.54 15.77
  Q 26.25 15.78 24.88 15.72
  C 19.88 15.50 16.43 17.29 16.48 22.47
  Q 16.54 30.61 16.49 44.57
  C 16.47 48.65 17.44 51.12 21.34 52.17
  A 1.90 1.89 -37.0 0 0 21.85 52.24
  L 45.26 52.24
  A 1.88 1.85 33.4 0 0 45.97 52.10
  Q 50.02 50.41 50.03 46.51
  Q 50.07 32.38 50.04 22.86
  A 1.48 1.48 0.0 0 0 48.60 21.39
  L 48.54 21.38
  A 1.43 1.42 -89.4 0 0 47.08 22.82
  Q 47.15 34.44 47.03 45.94
  Q 47.00 48.19 44.23 49.37
  A 1.50 1.44 -55.6 0 1 43.65 49.49
  L 22.49 49.48
  A 2.86 2.86 0.0 0 1 19.63 46.56
  L 19.64 46.32
  Z"
/>
<path fill="#fff8ec" d="
  M 19.64 46.32
  L 19.63 46.56
  A 2.86 2.86 0.0 0 0 22.49 49.48
  L 43.65 49.49
  A 1.50 1.44 -55.6 0 0 44.23 49.37
  Q 47.00 48.19 47.03 45.94
  Q 47.15 34.44 47.08 22.82
  A 1.43 1.42 -89.4 0 1 48.54 21.38
  L 48.60 21.39
  A 1.48 1.48 0.0 0 1 50.04 22.86
  Q 50.07 32.38 50.03 46.51
  Q 50.02 50.41 45.97 52.10
  A 1.88 1.85 33.4 0 1 45.26 52.24
  L 21.85 52.24
  A 1.90 1.89 -37.0 0 1 21.34 52.17
  C 17.44 51.12 16.47 48.65 16.49 44.57
  Q 16.54 30.61 16.48 22.47
  C 16.43 17.29 19.88 15.50 24.88 15.72
  Q 26.25 15.78 40.54 15.77
  A 1.79 1.79 0.0 0 1 42.34 17.54
  Q 42.35 18.82 42.36 40.25
  C 42.36 42.32 41.35 43.26 39.25 43.25
  Q 31.40 43.22 22.71 43.26
  A 3.09 3.09 0.0 0 0 19.64 46.32
  Z"
/>
</svg>
