<?xml version="1.0" encoding="UTF-8" standalone="no"?>
<!DOCTYPE svg PUBLIC "-//W3C//DTD SVG 1.1//EN" "http://www.w3.org/Graphics/SVG/1.1/DTD/svg11.dtd">
<svg xmlns="http://www.w3.org/2000/svg" version="1.1" viewBox="0.00 0.00 66.00 88.00">
<g stroke-width="2.00" fill="none" stroke-linecap="butt">
<path stroke="#428270" vector-effect="non-scaling-stroke" d="
  M 33.40 86.73
  Q 33.56 86.73 33.67 86.63
  C 45.13 75.86 55.77 62.75 61.34 48.13
  C 67.95 30.78 63.39 13.25 46.10 5.18
  Q 40.31 2.47 33.54 2.46
  Q 26.76 2.45 20.96 5.14
  C 3.65 13.15 -0.97 30.67 5.59 48.04
  C 11.11 62.68 21.71 75.82 33.13 86.63
  Q 33.24 86.73 33.40 86.73"
/>
<path stroke="#add2c1" vector-effect="non-scaling-stroke" d="
  M 32.85 52.24
  Q 38.46 52.23 38.61 52.21
  A 0.90 0.90 0.0 0 0 39.37 51.43
  L 42.77 24.09
  A 1.19 1.18 -86.5 0 0 41.60 22.76
  L 36.99 22.76
  A 0.41 0.41 0.0 0 1 36.58 22.36
  L 36.43 16.63
  A 0.87 0.86 -86.7 0 0 35.69 15.80
  Q 35.57 15.76 32.84 15.76
  Q 30.11 15.76 29.99 15.80
  A 0.87 0.86 86.7 0 0 29.25 16.63
  L 29.10 22.36
  A 0.41 0.41 0.0 0 1 28.69 22.76
  L 24.08 22.76
  A 1.19 1.18 86.5 0 0 22.91 24.09
  L 26.32 51.43
  A 0.90 0.90 0.0 0 0 27.08 52.21
  Q 27.23 52.24 32.85 52.24"
/>
</g>
<path fill="#2a584b" d="
  M 33.80 88.00
  L 33.15 88.00
  Q 15.61 72.48 6.00 52.51
  Q 2.23 44.67 1.61 34.99
  Q 1.03 25.70 5.17 18.15
  C 17.95 -5.17 51.91 -4.01 62.90 20.39
  C 66.91 29.29 65.83 40.16 62.33 49.05
  C 56.46 63.92 45.56 77.30 33.80 88.00
  Z
  M 33.40 86.73
  Q 33.56 86.73 33.67 86.63
  C 45.13 75.86 55.77 62.75 61.34 48.13
  C 67.95 30.78 63.39 13.25 46.10 5.18
  Q 40.31 2.47 33.54 2.46
  Q 26.76 2.45 20.96 5.14
  C 3.65 13.15 -0.97 30.67 5.59 48.04
  C 11.11 62.68 21.71 75.82 33.13 86.63
  Q 33.24 86.73 33.40 86.73
  Z"
/>
<path fill="#5aab95" d="
  M 33.54 2.46
  Q 40.31 2.47 46.10 5.18
  C 63.39 13.25 67.95 30.78 61.34 48.13
  C 55.77 62.75 45.13 75.86 33.67 86.63
  Q 33.56 86.73 33.40 86.73
  Q 33.24 86.73 33.13 86.63
  C 21.71 75.82 11.11 62.68 5.59 48.04
  C -0.97 30.67 3.65 13.15 20.96 5.14
  Q 26.76 2.45 33.54 2.46
  Z
  M 32.85 52.24
  Q 38.46 52.23 38.61 52.21
  A 0.90 0.90 0.0 0 0 39.37 51.43
  L 42.77 24.09
  A 1.19 1.18 -86.5 0 0 41.60 22.76
  L 36.99 22.76
  A 0.41 0.41 0.0 0 1 36.58 22.36
  L 36.43 16.63
  A 0.87 0.86 -86.7 0 0 35.69 15.80
  Q 35.57 15.76 32.84 15.76
  Q 30.11 15.76 29.99 15.80
  A 0.87 0.86 86.7 0 0 29.25 16.63
  L 29.10 22.36
  A 0.41 0.41 0.0 0 1 28.69 22.76
  L 24.08 22.76
  A 1.19 1.18 86.5 0 0 22.91 24.09
  L 26.32 51.43
  A 0.90 0.90 0.0 0 0 27.08 52.21
  Q 27.23 52.24 32.85 52.24
  Z"
/>
<path fill="#fff8ec" d="
  M 32.84 15.76
  Q 35.57 15.76 35.69 15.80
  A 0.87 0.86 -86.7 0 1 36.43 16.63
  L 36.58 22.36
  A 0.41 0.41 0.0 0 0 36.99 22.76
  L 41.60 22.76
  A 1.19 1.18 -86.5 0 1 42.77 24.09
  L 39.37 51.43
  A 0.90 0.90 0.0 0 1 38.61 52.21
  Q 38.46 52.23 32.85 52.24
  Q 27.23 52.24 27.08 52.21
  A 0.90 0.90 0.0 0 1 26.32 51.43
  L 22.91 24.09
  A 1.19 1.18 86.5 0 1 24.08 22.76
  L 28.69 22.76
  A 0.41 0.41 0.0 0 0 29.10 22.36
  L 29.25 16.63
  A 0.87 0.86 86.7 0 1 29.99 15.80
  Q 30.11 15.76 32.84 15.76
  Z"
/>
</svg>
