<?xml version="1.0" encoding="UTF-8" standalone="no"?>
<!DOCTYPE svg PUBLIC "-//W3C//DTD SVG 1.1//EN" "http://www.w3.org/Graphics/SVG/1.1/DTD/svg11.dtd">
<svg xmlns="http://www.w3.org/2000/svg" version="1.1" viewBox="0.00 0.00 66.00 88.00">
<g stroke-width="2.00" fill="none" stroke-linecap="butt">
<path stroke="#428270" vector-effect="non-scaling-stroke" d="
  M 33.40 86.73
  Q 33.56 86.73 33.67 86.63
  C 45.65 75.37 57.81 60.59 62.54 44.64
  C 67.23 28.80 62.41 14.46 48.59 6.44
  Q 41.74 2.47 33.54 2.46
  Q 25.33 2.44 18.47 6.39
  C 4.63 14.36 -0.24 28.69 4.40 44.54
  C 9.07 60.51 21.19 75.33 33.13 86.63
  Q 33.23 86.73 33.40 86.73"
/>
<path stroke="#add2c1" vector-effect="non-scaling-stroke" d="
  M 35.87 36.91
  C 30.04 42.74 20.98 42.12 15.28 36.16
  A 0.23 0.23 0.0 0 0 14.89 36.33
  Q 14.98 38.89 15.74 40.48
  Q 22.06 53.72 36.02 52.00
  Q 41.51 51.32 45.89 46.94
  Q 50.28 42.55 50.96 37.06
  Q 52.68 23.10 39.44 16.78
  Q 37.85 16.02 35.29 15.93
  A 0.23 0.23 0.0 0 0 35.12 16.32
  C 41.08 22.02 41.69 31.09 35.87 36.91"
/>
</g>
<path fill="#2a584b" d="
  M 33.80 88.00
  L 33.15 88.00
  Q 15.61 72.48 6.00 52.51
  Q 2.28 44.78 1.63 35.37
  Q 0.99 25.96 5.11 18.25
  C 11.15 6.97 23.27 0.37 36.31 1.45
  C 53.05 2.84 66.10 17.10 65.46 33.90
  Q 65.17 41.58 62.40 48.84
  C 56.71 63.72 45.50 77.35 33.80 88.00
  Z
  M 33.40 86.73
  Q 33.56 86.73 33.67 86.63
  C 45.65 75.37 57.81 60.59 62.54 44.64
  C 67.23 28.80 62.41 14.46 48.59 6.44
  Q 41.74 2.47 33.54 2.46
  Q 25.33 2.44 18.47 6.39
  C 4.63 14.36 -0.24 28.69 4.40 44.54
  C 9.07 60.51 21.19 75.33 33.13 86.63
  Q 33.23 86.73 33.40 86.73
  Z"
/>
<path fill="#5aab95" d="
  M 33.54 2.46
  Q 41.74 2.47 48.59 6.44
  C 62.41 14.46 67.23 28.80 62.54 44.64
  C 57.81 60.59 45.65 75.37 33.67 86.63
  Q 33.56 86.73 33.40 86.73
  Q 33.23 86.73 33.13 86.63
  C 21.19 75.33 9.07 60.51 4.40 44.54
  C -0.24 28.69 4.63 14.36 18.47 6.39
  Q 25.33 2.44 33.54 2.46
  Z
  M 35.87 36.91
  C 30.04 42.74 20.98 42.12 15.28 36.16
  A 0.23 0.23 0.0 0 0 14.89 36.33
  Q 14.98 38.89 15.74 40.48
  Q 22.06 53.72 36.02 52.00
  Q 41.51 51.32 45.89 46.94
  Q 50.28 42.55 50.96 37.06
  Q 52.68 23.10 39.44 16.78
  Q 37.85 16.02 35.29 15.93
  A 0.23 0.23 0.0 0 0 35.12 16.32
  C 41.08 22.02 41.69 31.09 35.87 36.91
  Z"
/>
<path fill="#fff8ec" d="
  M 45.89 46.94
  Q 41.51 51.32 36.02 52.00
  Q 22.06 53.72 15.74 40.48
  Q 14.98 38.89 14.89 36.33
  A 0.23 0.23 0.0 0 1 15.28 36.16
  C 20.98 42.12 30.04 42.74 35.87 36.91
  C 41.69 31.09 41.08 22.02 35.12 16.32
  A 0.23 0.23 0.0 0 1 35.29 15.93
  Q 37.85 16.02 39.44 16.78
  Q 52.68 23.10 50.96 37.06
  Q 50.28 42.55 45.89 46.94
  Z"
/>
</svg>
