<?xml version="1.0" encoding="UTF-8" standalone="no"?>
<!DOCTYPE svg PUBLIC "-//W3C//DTD SVG 1.1//EN" "http://www.w3.org/Graphics/SVG/1.1/DTD/svg11.dtd">
<svg xmlns="http://www.w3.org/2000/svg" version="1.1" viewBox="0.00 0.00 66.00 88.00">
<g stroke-width="2.00" fill="none" stroke-linecap="butt">
<path stroke="#802436" vector-effect="non-scaling-stroke" d="
  M 33.42 86.69
  Q 33.52 86.69 33.62 86.67
  Q 33.68 86.66 33.78 86.57
  C 47.35 73.73 62.76 54.94 64.18 35.55
  C 65.20 21.75 57.59 9.80 44.88 4.70
  Q 39.34 2.47 33.51 2.46
  Q 27.68 2.46 22.13 4.67
  C 9.41 9.75 1.78 21.68 2.77 35.48
  C 4.15 54.88 19.52 73.70 33.06 86.57
  Q 33.16 86.66 33.22 86.67
  Q 33.31 86.69 33.42 86.69"
/>
<path stroke="#d4959a" vector-effect="non-scaling-stroke" d="
  M 32.75 28.24
  Q 34.03 28.24 35.24 28.97
  A 1.37 1.37 0.0 0 1 35.89 29.98
  L 35.97 30.59
  A 0.55 0.54 -24.4 0 0 36.88 30.93
  Q 37.27 30.58 37.59 30.04
  A 0.91 0.91 0.0 0 1 38.54 29.62
  C 40.44 30.01 43.19 30.71 42.96 33.07
  A 0.76 0.76 0.0 0 0 43.56 33.88
  L 44.91 34.17
  A 0.45 0.45 0.0 0 0 45.46 33.72
  L 45.40 29.82
  A 3.03 2.99 -57.4 0 0 45.16 28.69
  L 43.04 23.74
  A 0.58 0.58 0.0 0 1 43.34 22.98
  L 46.42 21.66
  A 0.31 0.31 0.0 0 0 46.26 21.06
  L 43.24 21.43
  A 0.44 0.44 0.0 0 1 42.77 20.86
  L 43.54 18.37
  A 0.12 0.12 0.0 0 0 43.38 18.22
  L 40.57 19.43
  A 0.54 0.53 75.0 0 1 39.84 19.00
  L 39.54 16.53
  A 0.37 0.37 0.0 0 0 38.84 16.40
  L 37.69 18.60
  A 1.23 1.22 -76.3 0 1 36.63 19.25
  Q 35.90 19.26 32.75 19.26
  Q 29.60 19.26 28.87 19.25
  A 1.23 1.22 76.3 0 1 27.81 18.60
  L 26.66 16.40
  A 0.37 0.37 0.0 0 0 25.96 16.53
  L 25.66 19.00
  A 0.54 0.53 -75.1 0 1 24.93 19.43
  L 22.12 18.22
  A 0.12 0.12 0.0 0 0 21.96 18.37
  L 22.73 20.86
  A 0.44 0.44 0.0 0 1 22.26 21.43
  L 19.24 21.07
  A 0.31 0.31 0.0 0 0 19.08 21.67
  L 22.16 22.98
  A 0.58 0.58 0.0 0 1 22.46 23.74
  L 20.35 28.70
  A 3.03 2.99 57.4 0 0 20.11 29.83
  L 20.05 33.73
  A 0.45 0.45 0.0 0 0 20.60 34.18
  L 21.95 33.88
  A 0.76 0.76 0.0 0 0 22.55 33.07
  C 22.32 30.71 25.07 30.01 26.97 29.62
  A 0.91 0.91 0.0 0 1 27.92 30.04
  Q 28.24 30.58 28.63 30.93
  A 0.55 0.54 24.4 0 0 29.54 30.59
  L 29.62 29.98
  A 1.37 1.37 0.0 0 1 30.26 28.98
  Q 31.47 28.24 32.75 28.24"
/>
<path stroke="#d4959a" vector-effect="non-scaling-stroke" d="
  M 32.74 52.24
  Q 35.74 52.23 36.22 52.17
  A 0.59 0.59 0.0 0 0 36.73 51.52
  L 36.13 46.62
  A 0.23 0.23 0.0 0 1 36.55 46.47
  L 39.99 51.60
  A 1.37 1.36 -10.6 0 0 40.81 52.16
  Q 45.40 53.17 46.81 48.87
  A 0.87 0.87 0.0 0 0 46.58 47.97
  Q 42.26 43.92 42.19 43.71
  A 0.18 0.18 0.0 0 1 42.41 43.47
  L 48.43 45.34
  A 0.71 0.70 -63.9 0 0 49.23 45.06
  C 50.73 42.81 51.69 40.87 49.28 39.07
  A 1.82 1.74 -19.7 0 0 48.56 38.75
  L 40.61 37.06
  A 0.82 0.81 -87.5 0 1 39.97 36.36
  L 39.67 33.91
  A 0.44 0.43 -25.8 0 0 38.93 33.66
  L 36.68 35.91
  A 1.01 1.00 26.2 0 1 35.84 36.19
  Q 34.44 36.00 32.74 36.00
  Q 31.03 36.00 29.64 36.20
  A 1.01 1.00 -26.2 0 1 28.79 35.91
  L 26.54 33.67
  A 0.44 0.43 25.8 0 0 25.80 33.92
  L 25.50 36.37
  A 0.82 0.81 87.5 0 1 24.86 37.07
  L 16.92 38.76
  A 1.82 1.74 19.7 0 0 16.20 39.09
  C 13.79 40.89 14.75 42.83 16.25 45.08
  A 0.71 0.70 63.8 0 0 17.05 45.35
  L 23.07 43.48
  A 0.18 0.18 0.0 0 1 23.29 43.72
  Q 23.22 43.93 18.90 47.98
  A 0.87 0.87 0.0 0 0 18.68 48.88
  Q 20.09 53.18 24.68 52.17
  A 1.37 1.36 10.5 0 0 25.50 51.61
  L 28.93 46.47
  A 0.23 0.23 0.0 0 1 29.35 46.62
  L 28.76 51.52
  A 0.59 0.59 0.0 0 0 29.27 52.18
  Q 29.75 52.24 32.74 52.24"
/>
</g>
<path fill="#581723" d="
  M 33.79 88.00
  L 33.14 88.00
  Q 16.68 73.40 6.79 53.99
  Q 2.29 45.15 1.63 35.63
  Q 0.93 25.65 5.42 17.69
  C 15.90 -0.91 42.22 -4.71 57.20 11.70
  C 69.79 25.49 66.39 43.88 57.47 59.00
  Q 47.91 75.22 33.79 88.00
  Z
  M 33.42 86.69
  Q 33.52 86.69 33.62 86.67
  Q 33.68 86.66 33.78 86.57
  C 47.35 73.73 62.76 54.94 64.18 35.55
  C 65.20 21.75 57.59 9.80 44.88 4.70
  Q 39.34 2.47 33.51 2.46
  Q 27.68 2.46 22.13 4.67
  C 9.41 9.75 1.78 21.68 2.77 35.48
  C 4.15 54.88 19.52 73.70 33.06 86.57
  Q 33.16 86.66 33.22 86.67
  Q 33.31 86.69 33.42 86.69
  Z"
/>
<path fill="#a83148" d="
  M 33.51 2.46
  Q 39.34 2.47 44.88 4.70
  C 57.59 9.80 65.20 21.75 64.18 35.55
  C 62.76 54.94 47.35 73.73 33.78 86.57
  Q 33.68 86.66 33.62 86.67
  Q 33.52 86.69 33.42 86.69
  Q 33.31 86.69 33.22 86.67
  Q 33.16 86.66 33.06 86.57
  C 19.52 73.70 4.15 54.88 2.77 35.48
  C 1.78 21.68 9.41 9.75 22.13 4.67
  Q 27.68 2.46 33.51 2.46
  Z
  M 32.75 28.24
  Q 34.03 28.24 35.24 28.97
  A 1.37 1.37 0.0 0 1 35.89 29.98
  L 35.97 30.59
  A 0.55 0.54 -24.4 0 0 36.88 30.93
  Q 37.27 30.58 37.59 30.04
  A 0.91 0.91 0.0 0 1 38.54 29.62
  C 40.44 30.01 43.19 30.71 42.96 33.07
  A 0.76 0.76 0.0 0 0 43.56 33.88
  L 44.91 34.17
  A 0.45 0.45 0.0 0 0 45.46 33.72
  L 45.40 29.82
  A 3.03 2.99 -57.4 0 0 45.16 28.69
  L 43.04 23.74
  A 0.58 0.58 0.0 0 1 43.34 22.98
  L 46.42 21.66
  A 0.31 0.31 0.0 0 0 46.26 21.06
  L 43.24 21.43
  A 0.44 0.44 0.0 0 1 42.77 20.86
  L 43.54 18.37
  A 0.12 0.12 0.0 0 0 43.38 18.22
  L 40.57 19.43
  A 0.54 0.53 75.0 0 1 39.84 19.00
  L 39.54 16.53
  A 0.37 0.37 0.0 0 0 38.84 16.40
  L 37.69 18.60
  A 1.23 1.22 -76.3 0 1 36.63 19.25
  Q 35.90 19.26 32.75 19.26
  Q 29.60 19.26 28.87 19.25
  A 1.23 1.22 76.3 0 1 27.81 18.60
  L 26.66 16.40
  A 0.37 0.37 0.0 0 0 25.96 16.53
  L 25.66 19.00
  A 0.54 0.53 -75.1 0 1 24.93 19.43
  L 22.12 18.22
  A 0.12 0.12 0.0 0 0 21.96 18.37
  L 22.73 20.86
  A 0.44 0.44 0.0 0 1 22.26 21.43
  L 19.24 21.07
  A 0.31 0.31 0.0 0 0 19.08 21.67
  L 22.16 22.98
  A 0.58 0.58 0.0 0 1 22.46 23.74
  L 20.35 28.70
  A 3.03 2.99 57.4 0 0 20.11 29.83
  L 20.05 33.73
  A 0.45 0.45 0.0 0 0 20.60 34.18
  L 21.95 33.88
  A 0.76 0.76 0.0 0 0 22.55 33.07
  C 22.32 30.71 25.07 30.01 26.97 29.62
  A 0.91 0.91 0.0 0 1 27.92 30.04
  Q 28.24 30.58 28.63 30.93
  A 0.55 0.54 24.4 0 0 29.54 30.59
  L 29.62 29.98
  A 1.37 1.37 0.0 0 1 30.26 28.98
  Q 31.47 28.24 32.75 28.24
  Z
  M 32.74 52.24
  Q 35.74 52.23 36.22 52.17
  A 0.59 0.59 0.0 0 0 36.73 51.52
  L 36.13 46.62
  A 0.23 0.23 0.0 0 1 36.55 46.47
  L 39.99 51.60
  A 1.37 1.36 -10.6 0 0 40.81 52.16
  Q 45.40 53.17 46.81 48.87
  A 0.87 0.87 0.0 0 0 46.58 47.97
  Q 42.26 43.92 42.19 43.71
  A 0.18 0.18 0.0 0 1 42.41 43.47
  L 48.43 45.34
  A 0.71 0.70 -63.9 0 0 49.23 45.06
  C 50.73 42.81 51.69 40.87 49.28 39.07
  A 1.82 1.74 -19.7 0 0 48.56 38.75
  L 40.61 37.06
  A 0.82 0.81 -87.5 0 1 39.97 36.36
  L 39.67 33.91
  A 0.44 0.43 -25.8 0 0 38.93 33.66
  L 36.68 35.91
  A 1.01 1.00 26.2 0 1 35.84 36.19
  Q 34.44 36.00 32.74 36.00
  Q 31.03 36.00 29.64 36.20
  A 1.01 1.00 -26.2 0 1 28.79 35.91
  L 26.54 33.67
  A 0.44 0.43 25.8 0 0 25.80 33.92
  L 25.50 36.37
  A 0.82 0.81 87.5 0 1 24.86 37.07
  L 16.92 38.76
  A 1.82 1.74 19.7 0 0 16.20 39.09
  C 13.79 40.89 14.75 42.83 16.25 45.08
  A 0.71 0.70 63.8 0 0 17.05 45.35
  L 23.07 43.48
  A 0.18 0.18 0.0 0 1 23.29 43.72
  Q 23.22 43.93 18.90 47.98
  A 0.87 0.87 0.0 0 0 18.68 48.88
  Q 20.09 53.18 24.68 52.17
  A 1.37 1.36 10.5 0 0 25.50 51.61
  L 28.93 46.47
  A 0.23 0.23 0.0 0 1 29.35 46.62
  L 28.76 51.52
  A 0.59 0.59 0.0 0 0 29.27 52.18
  Q 29.75 52.24 32.74 52.24
  Z"
/>
<path fill="#fff8ec" d="
  M 32.75 19.26
  Q 35.90 19.26 36.63 19.25
  A 1.23 1.22 -76.3 0 0 37.69 18.60
  L 38.84 16.40
  A 0.37 0.37 0.0 0 1 39.54 16.53
  L 39.84 19.00
  A 0.54 0.53 75.0 0 0 40.57 19.43
  L 43.38 18.22
  A 0.12 0.12 0.0 0 1 43.54 18.37
  L 42.77 20.86
  A 0.44 0.44 0.0 0 0 43.24 21.43
  L 46.26 21.06
  A 0.31 0.31 0.0 0 1 46.42 21.66
  L 43.34 22.98
  A 0.58 0.58 0.0 0 0 43.04 23.74
  L 45.16 28.69
  A 3.03 2.99 -57.4 0 1 45.40 29.82
  L 45.46 33.72
  A 0.45 0.45 0.0 0 1 44.91 34.17
  L 43.56 33.88
  A 0.76 0.76 0.0 0 1 42.96 33.07
  C 43.19 30.71 40.44 30.01 38.54 29.62
  A 0.91 0.91 0.0 0 0 37.59 30.04
  Q 37.27 30.58 36.88 30.93
  A 0.55 0.54 -24.4 0 1 35.97 30.59
  L 35.89 29.98
  A 1.37 1.37 0.0 0 0 35.24 28.97
  Q 34.03 28.24 32.75 28.24
  Q 31.47 28.24 30.26 28.98
  A 1.37 1.37 0.0 0 0 29.62 29.98
  L 29.54 30.59
  A 0.55 0.54 24.4 0 1 28.63 30.93
  Q 28.24 30.58 27.92 30.04
  A 0.91 0.91 0.0 0 0 26.97 29.62
  C 25.07 30.01 22.32 30.71 22.55 33.07
  A 0.76 0.76 0.0 0 1 21.95 33.88
  L 20.60 34.18
  A 0.45 0.45 0.0 0 1 20.05 33.73
  L 20.11 29.83
  A 3.03 2.99 57.4 0 1 20.35 28.70
  L 22.46 23.74
  A 0.58 0.58 0.0 0 0 22.16 22.98
  L 19.08 21.67
  A 0.31 0.31 0.0 0 1 19.24 21.07
  L 22.26 21.43
  A 0.44 0.44 0.0 0 0 22.73 20.86
  L 21.96 18.37
  A 0.12 0.12 0.0 0 1 22.12 18.22
  L 24.93 19.43
  A 0.54 0.53 -75.1 0 0 25.66 19.00
  L 25.96 16.53
  A 0.37 0.37 0.0 0 1 26.66 16.40
  L 27.81 18.60
  A 1.23 1.22 76.3 0 0 28.87 19.25
  Q 29.60 19.26 32.75 19.26
  Z"
/>
<path fill="#fff8ec" d="
  M 32.74 36.00
  Q 34.44 36.00 35.84 36.19
  A 1.01 1.00 26.2 0 0 36.68 35.91
  L 38.93 33.66
  A 0.44 0.43 -25.8 0 1 39.67 33.91
  L 39.97 36.36
  A 0.82 0.81 -87.5 0 0 40.61 37.06
  L 48.56 38.75
  A 1.82 1.74 -19.7 0 1 49.28 39.07
  C 51.69 40.87 50.73 42.81 49.23 45.06
  A 0.71 0.70 -63.9 0 1 48.43 45.34
  L 42.41 43.47
  A 0.18 0.18 0.0 0 0 42.19 43.71
  Q 42.26 43.92 46.58 47.97
  A 0.87 0.87 0.0 0 1 46.81 48.87
  Q 45.40 53.17 40.81 52.16
  A 1.37 1.36 -10.6 0 1 39.99 51.60
  L 36.55 46.47
  A 0.23 0.23 0.0 0 0 36.13 46.62
  L 36.73 51.52
  A 0.59 0.59 0.0 0 1 36.22 52.17
  Q 35.74 52.23 32.74 52.24
  Q 29.75 52.24 29.27 52.18
  A 0.59 0.59 0.0 0 1 28.76 51.52
  L 29.35 46.62
  A 0.23 0.23 0.0 0 0 28.93 46.47
  L 25.50 51.61
  A 1.37 1.36 10.5 0 1 24.68 52.17
  Q 20.09 53.18 18.68 48.88
  A 0.87 0.87 0.0 0 1 18.90 47.98
  Q 23.22 43.93 23.29 43.72
  A 0.18 0.18 0.0 0 0 23.07 43.48
  L 17.05 45.35
  A 0.71 0.70 63.8 0 1 16.25 45.08
  C 14.75 42.83 13.79 40.89 16.20 39.09
  A 1.82 1.74 19.7 0 1 16.92 38.76
  L 24.86 37.07
  A 0.82 0.81 87.5 0 0 25.50 36.37
  L 25.80 33.92
  A 0.44 0.43 25.8 0 1 26.54 33.67
  L 28.79 35.91
  A 1.01 1.00 -26.2 0 0 29.64 36.20
  Q 31.03 36.00 32.74 36.00
  Z"
/>
</svg>
