<?xml version="1.0" encoding="UTF-8" standalone="no"?>
<!DOCTYPE svg PUBLIC "-//W3C//DTD SVG 1.1//EN" "http://www.w3.org/Graphics/SVG/1.1/DTD/svg11.dtd">
<svg xmlns="http://www.w3.org/2000/svg" version="1.1" viewBox="0.00 0.00 66.00 88.00">
<g stroke-width="2.00" fill="none" stroke-linecap="butt">
<path stroke="#21303f" vector-effect="non-scaling-stroke" d="
  M 33.41 86.57
  Q 33.55 86.57 33.69 86.54
  A 0.13 0.13 0.0 0 0 33.76 86.50
  Q 47.32 74.03 56.36 58.63
  C 63.97 45.66 68.41 28.64 58.61 15.39
  Q 49.70 3.33 34.50 2.53
  Q 33.93 2.50 33.51 2.50
  Q 33.09 2.50 32.52 2.52
  Q 17.32 3.29 8.38 15.33
  C -1.45 28.56 2.95 45.59 10.53 58.58
  Q 19.53 74.00 33.06 86.50
  A 0.13 0.13 0.0 0 0 33.13 86.54
  Q 33.27 86.57 33.41 86.57"
/>
<path stroke="#969c9f" vector-effect="non-scaling-stroke" d="
  M 33.00 40.50
  Q 35.28 40.50 35.63 40.56
  A 0.65 0.65 0.0 0 1 36.17 41.20
  L 36.15 50.16
  A 0.60 0.59 -90.0 0 0 36.74 50.76
  L 50.93 50.76
  A 0.41 0.41 0.0 0 0 51.34 50.35
  L 51.34 30.34
  A 1.17 1.14 19.3 0 0 50.89 29.43
  Q 39.26 20.36 34.90 17.10
  Q 34.18 16.56 33.01 16.55
  Q 31.83 16.55 31.11 17.09
  Q 26.75 20.36 15.11 29.42
  A 1.17 1.14 -19.3 0 0 14.66 30.33
  L 14.65 50.34
  A 0.41 0.41 0.0 0 0 15.06 50.75
  L 29.25 50.76
  A 0.60 0.59 -90.0 0 0 29.84 50.16
  L 29.83 41.20
  A 0.65 0.65 0.0 0 1 30.37 40.56
  Q 30.72 40.50 33.00 40.50"
/>
<path stroke="#969c9f" vector-effect="non-scaling-stroke" d="
  M 24.9951 34.6644
  A 0.38 0.38 0.0 0 0 24.6144 34.2851
  L 18.9744 34.2949
  A 0.38 0.38 0.0 0 0 18.5951 34.6756
  L 18.6049 40.3356
  A 0.38 0.38 0.0 0 0 18.9856 40.7149
  L 24.6256 40.7051
  A 0.38 0.38 0.0 0 0 25.0049 40.3244
  L 24.9951 34.6644"
/>
<path stroke="#969c9f" vector-effect="non-scaling-stroke" d="
  M 47.3851 34.6432
  A 0.37 0.37 0.0 0 0 47.0132 34.2752
  L 41.3332 34.3049
  A 0.37 0.37 0.0 0 0 40.9652 34.6768
  L 40.9949 40.3568
  A 0.37 0.37 0.0 0 0 41.3668 40.7248
  L 47.0468 40.6951
  A 0.37 0.37 0.0 0 0 47.4148 40.3232
  L 47.3851 34.6432"
/>
</g>
<path fill="#16212b" d="
  M 33.80 88.00
  L 33.04 88.00
  C 16.71 73.17 -6.74 43.71 4.28 19.97
  C 12.49 2.28 34.31 -4.07 50.66 6.30
  Q 62.35 13.71 64.91 27.03
  C 69.19 49.26 49.13 74.03 33.80 88.00
  Z
  M 33.41 86.57
  Q 33.55 86.57 33.69 86.54
  A 0.13 0.13 0.0 0 0 33.76 86.50
  Q 47.32 74.03 56.36 58.63
  C 63.97 45.66 68.41 28.64 58.61 15.39
  Q 49.70 3.33 34.50 2.53
  Q 33.93 2.50 33.51 2.50
  Q 33.09 2.50 32.52 2.52
  Q 17.32 3.29 8.38 15.33
  C -1.45 28.56 2.95 45.59 10.53 58.58
  Q 19.53 74.00 33.06 86.50
  A 0.13 0.13 0.0 0 0 33.13 86.54
  Q 33.27 86.57 33.41 86.57
  Z"
/>
<path fill="#2c3f52" d="
  M 33.51 2.50
  Q 33.93 2.50 34.50 2.53
  Q 49.70 3.33 58.61 15.39
  C 68.41 28.64 63.97 45.66 56.36 58.63
  Q 47.32 74.03 33.76 86.50
  A 0.13 0.13 0.0 0 1 33.69 86.54
  Q 33.55 86.57 33.41 86.57
  Q 33.27 86.57 33.13 86.54
  A 0.13 0.13 0.0 0 1 33.06 86.50
  Q 19.53 74.00 10.53 58.58
  C 2.95 45.59 -1.45 28.56 8.38 15.33
  Q 17.32 3.29 32.52 2.52
  Q 33.09 2.50 33.51 2.50
  Z
  M 33.00 40.50
  Q 35.28 40.50 35.63 40.56
  A 0.65 0.65 0.0 0 1 36.17 41.20
  L 36.15 50.16
  A 0.60 0.59 -90.0 0 0 36.74 50.76
  L 50.93 50.76
  A 0.41 0.41 0.0 0 0 51.34 50.35
  L 51.34 30.34
  A 1.17 1.14 19.3 0 0 50.89 29.43
  Q 39.26 20.36 34.90 17.10
  Q 34.18 16.56 33.01 16.55
  Q 31.83 16.55 31.11 17.09
  Q 26.75 20.36 15.11 29.42
  A 1.17 1.14 -19.3 0 0 14.66 30.33
  L 14.65 50.34
  A 0.41 0.41 0.0 0 0 15.06 50.75
  L 29.25 50.76
  A 0.60 0.59 -90.0 0 0 29.84 50.16
  L 29.83 41.20
  A 0.65 0.65 0.0 0 1 30.37 40.56
  Q 30.72 40.50 33.00 40.50
  Z"
/>
<path fill="#fff8ec" d="
  M 33.01 16.55
  Q 34.18 16.56 34.90 17.10
  Q 39.26 20.36 50.89 29.43
  A 1.17 1.14 19.3 0 1 51.34 30.34
  L 51.34 50.35
  A 0.41 0.41 0.0 0 1 50.93 50.76
  L 36.74 50.76
  A 0.60 0.59 -90.0 0 1 36.15 50.16
  L 36.17 41.20
  A 0.65 0.65 0.0 0 0 35.63 40.56
  Q 35.28 40.50 33.00 40.50
  Q 30.72 40.50 30.37 40.56
  A 0.65 0.65 0.0 0 0 29.83 41.20
  L 29.84 50.16
  A 0.60 0.59 -90.0 0 1 29.25 50.76
  L 15.06 50.75
  A 0.41 0.41 0.0 0 1 14.65 50.34
  L 14.66 30.33
  A 1.17 1.14 -19.3 0 1 15.11 29.42
  Q 26.75 20.36 31.11 17.09
  Q 31.83 16.55 33.01 16.55
  Z
  M 24.9951 34.6644
  A 0.38 0.38 0.0 0 0 24.6144 34.2851
  L 18.9744 34.2949
  A 0.38 0.38 0.0 0 0 18.5951 34.6756
  L 18.6049 40.3356
  A 0.38 0.38 0.0 0 0 18.9856 40.7149
  L 24.6256 40.7051
  A 0.38 0.38 0.0 0 0 25.0049 40.3244
  L 24.9951 34.6644
  Z
  M 47.3851 34.6432
  A 0.37 0.37 0.0 0 0 47.0132 34.2752
  L 41.3332 34.3049
  A 0.37 0.37 0.0 0 0 40.9652 34.6768
  L 40.9949 40.3568
  A 0.37 0.37 0.0 0 0 41.3668 40.7248
  L 47.0468 40.6951
  A 0.37 0.37 0.0 0 0 47.4148 40.3232
  L 47.3851 34.6432
  Z"
/>
<rect fill="#2c3f52" x="-3.20" y="-3.21" transform="translate(21.80,37.50) rotate(-0.1)" width="6.40" height="6.42" rx="0.38"/>
<rect fill="#2c3f52" x="-3.21" y="-3.21" transform="translate(44.19,37.50) rotate(-0.3)" width="6.42" height="6.42" rx="0.37"/>
</svg>
