<?xml version="1.0" encoding="UTF-8" standalone="no"?>
<!DOCTYPE svg PUBLIC "-//W3C//DTD SVG 1.1//EN" "http://www.w3.org/Graphics/SVG/1.1/DTD/svg11.dtd">
<svg xmlns="http://www.w3.org/2000/svg" version="1.1" viewBox="0.00 0.00 66.00 88.00">
<g stroke-width="2.00" fill="none" stroke-linecap="butt">
<path stroke="#802436" vector-effect="non-scaling-stroke" d="
  M 33.41 86.69
  Q 33.52 86.69 33.62 86.67
  Q 33.70 86.65 33.78 86.58
  Q 48.46 72.92 57.63 56.43
  C 64.63 43.86 67.64 27.73 58.84 15.65
  Q 49.96 3.44 34.73 2.54
  Q 33.54 2.47 33.52 2.47
  Q 33.50 2.47 32.30 2.54
  Q 17.07 3.40 8.16 15.59
  C -0.67 27.65 2.30 43.78 9.27 56.37
  Q 18.40 72.88 33.05 86.58
  Q 33.13 86.65 33.21 86.67
  Q 33.31 86.69 33.41 86.69"
/>
<path stroke="#d4959a" vector-effect="non-scaling-stroke" d="
  M 35.67 40.78
  Q 43.57 38.92 42.10 31.03
  Q 41.24 26.39 39.31 23.02
  A 0.50 0.50 0.0 0 0 38.38 23.22
  Q 38.05 26.47 36.95 28.67
  A 0.63 0.63 0.0 0 1 35.75 28.39
  Q 35.68 21.68 30.41 16.04
  A 0.81 0.81 0.0 0 0 29.01 16.49
  C 28.05 23.83 20.49 28.19 22.88 35.12
  C 23.99 38.33 27.21 40.09 30.36 40.70
  A 0.48 0.47 76.5 0 0 30.82 39.94
  Q 26.50 34.45 31.37 29.42
  A 0.46 0.46 0.0 0 1 32.16 29.70
  Q 32.38 32.37 33.89 34.52
  C 35.41 36.66 35.53 37.57 35.01 40.14
  A 0.55 0.54 89.0 0 0 35.67 40.78"
/>
<path stroke="#d4959a" vector-effect="non-scaling-stroke" d="
  M 25.53 47.67
  Q 25.53 47.77 21.72 48.88
  Q 20.10 49.35 20.31 50.90
  A 1.62 1.57 78.6 0 0 22.30 52.27
  Q 27.44 50.82 32.26 49.72
  Q 32.42 49.69 32.72 49.69
  Q 33.01 49.69 33.17 49.72
  Q 37.99 50.81 43.13 52.26
  A 1.62 1.57 -78.7 0 0 45.12 50.89
  Q 45.33 49.34 43.71 48.87
  Q 39.90 47.76 39.90 47.67
  Q 39.90 47.57 43.71 46.46
  Q 45.33 45.99 45.12 44.44
  A 1.62 1.57 78.6 0 0 43.13 43.07
  Q 37.99 44.52 33.17 45.62
  Q 33.01 45.65 32.71 45.65
  Q 32.42 45.65 32.25 45.62
  Q 27.44 44.52 22.30 43.08
  A 1.62 1.57 -78.7 0 0 20.31 44.45
  Q 20.10 46.00 21.72 46.47
  Q 25.53 47.58 25.53 47.67"
/>
</g>
<path fill="#581723" d="
  M 33.79 88.00
  L 33.04 88.00
  C 21.72 77.72 12.19 65.74 5.68 51.55
  C 1.00 41.36 -0.42 28.56 5.06 18.37
  C 12.40 4.72 27.88 -1.72 43.01 2.77
  Q 51.19 5.20 57.05 11.54
  C 69.86 25.40 66.40 43.94 57.38 59.17
  Q 47.83 75.28 33.79 88.00
  Z
  M 33.41 86.69
  Q 33.52 86.69 33.62 86.67
  Q 33.70 86.65 33.78 86.58
  Q 48.46 72.92 57.63 56.43
  C 64.63 43.86 67.64 27.73 58.84 15.65
  Q 49.96 3.44 34.73 2.54
  Q 33.54 2.47 33.52 2.47
  Q 33.50 2.47 32.30 2.54
  Q 17.07 3.40 8.16 15.59
  C -0.67 27.65 2.30 43.78 9.27 56.37
  Q 18.40 72.88 33.05 86.58
  Q 33.13 86.65 33.21 86.67
  Q 33.31 86.69 33.41 86.69
  Z"
/>
<path fill="#a83148" d="
  M 33.52 2.47
  Q 33.54 2.47 34.73 2.54
  Q 49.96 3.44 58.84 15.65
  C 67.64 27.73 64.63 43.86 57.63 56.43
  Q 48.46 72.92 33.78 86.58
  Q 33.70 86.65 33.62 86.67
  Q 33.52 86.69 33.41 86.69
  Q 33.31 86.69 33.21 86.67
  Q 33.13 86.65 33.05 86.58
  Q 18.40 72.88 9.27 56.37
  C 2.30 43.78 -0.67 27.65 8.16 15.59
  Q 17.07 3.40 32.30 2.54
  Q 33.50 2.47 33.52 2.47
  Z
  M 35.67 40.78
  Q 43.57 38.92 42.10 31.03
  Q 41.24 26.39 39.31 23.02
  A 0.50 0.50 0.0 0 0 38.38 23.22
  Q 38.05 26.47 36.95 28.67
  A 0.63 0.63 0.0 0 1 35.75 28.39
  Q 35.68 21.68 30.41 16.04
  A 0.81 0.81 0.0 0 0 29.01 16.49
  C 28.05 23.83 20.49 28.19 22.88 35.12
  C 23.99 38.33 27.21 40.09 30.36 40.70
  A 0.48 0.47 76.5 0 0 30.82 39.94
  Q 26.50 34.45 31.37 29.42
  A 0.46 0.46 0.0 0 1 32.16 29.70
  Q 32.38 32.37 33.89 34.52
  C 35.41 36.66 35.53 37.57 35.01 40.14
  A 0.55 0.54 89.0 0 0 35.67 40.78
  Z
  M 25.53 47.67
  Q 25.53 47.77 21.72 48.88
  Q 20.10 49.35 20.31 50.90
  A 1.62 1.57 78.6 0 0 22.30 52.27
  Q 27.44 50.82 32.26 49.72
  Q 32.42 49.69 32.72 49.69
  Q 33.01 49.69 33.17 49.72
  Q 37.99 50.81 43.13 52.26
  A 1.62 1.57 -78.7 0 0 45.12 50.89
  Q 45.33 49.34 43.71 48.87
  Q 39.90 47.76 39.90 47.67
  Q 39.90 47.57 43.71 46.46
  Q 45.33 45.99 45.12 44.44
  A 1.62 1.57 78.6 0 0 43.13 43.07
  Q 37.99 44.52 33.17 45.62
  Q 33.01 45.65 32.71 45.65
  Q 32.42 45.65 32.25 45.62
  Q 27.44 44.52 22.30 43.08
  A 1.62 1.57 -78.7 0 0 20.31 44.45
  Q 20.10 46.00 21.72 46.47
  Q 25.53 47.58 25.53 47.67
  Z"
/>
<path fill="#fff8ec" d="
  M 35.67 40.78
  A 0.55 0.54 89.0 0 1 35.01 40.14
  C 35.53 37.57 35.41 36.66 33.89 34.52
  Q 32.38 32.37 32.16 29.70
  A 0.46 0.46 0.0 0 0 31.37 29.42
  Q 26.50 34.45 30.82 39.94
  A 0.48 0.47 76.5 0 1 30.36 40.70
  C 27.21 40.09 23.99 38.33 22.88 35.12
  C 20.49 28.19 28.05 23.83 29.01 16.49
  A 0.81 0.81 0.0 0 1 30.41 16.04
  Q 35.68 21.68 35.75 28.39
  A 0.63 0.63 0.0 0 0 36.95 28.67
  Q 38.05 26.47 38.38 23.22
  A 0.50 0.50 0.0 0 1 39.31 23.02
  Q 41.24 26.39 42.10 31.03
  Q 43.57 38.92 35.67 40.78
  Z"
/>
<path fill="#fff8ec" d="
  M 32.71 45.65
  Q 33.01 45.65 33.17 45.62
  Q 37.99 44.52 43.13 43.07
  A 1.62 1.57 78.6 0 1 45.12 44.44
  Q 45.33 45.99 43.71 46.46
  Q 39.90 47.57 39.90 47.67
  Q 39.90 47.76 43.71 48.87
  Q 45.33 49.34 45.12 50.89
  A 1.62 1.57 -78.7 0 1 43.13 52.26
  Q 37.99 50.81 33.17 49.72
  Q 33.01 49.69 32.72 49.69
  Q 32.42 49.69 32.26 49.72
  Q 27.44 50.82 22.30 52.27
  A 1.62 1.57 78.6 0 1 20.31 50.90
  Q 20.10 49.35 21.72 48.88
  Q 25.53 47.77 25.53 47.67
  Q 25.53 47.58 21.72 46.47
  Q 20.10 46.00 20.31 44.45
  A 1.62 1.57 -78.7 0 1 22.30 43.08
  Q 27.44 44.52 32.25 45.62
  Q 32.42 45.65 32.71 45.65
  Z"
/>
</svg>
