<?xml version="1.0" encoding="UTF-8" standalone="no"?>
<!DOCTYPE svg PUBLIC "-//W3C//DTD SVG 1.1//EN" "http://www.w3.org/Graphics/SVG/1.1/DTD/svg11.dtd">
<svg xmlns="http://www.w3.org/2000/svg" version="1.1" viewBox="0.00 0.00 66.00 88.00">
<g stroke-width="2.00" fill="none" stroke-linecap="butt">
<path stroke="#816c3e" vector-effect="non-scaling-stroke" d="
  M 33.39 86.69
  Q 33.53 86.69 33.61 86.67
  Q 33.68 86.65 33.77 86.56
  C 47.05 74.17 60.94 56.77 63.84 38.75
  C 66.96 19.37 53.31 3.04 33.75 2.46
  Q 33.65 2.46 33.56 2.46
  Q 33.46 2.46 33.36 2.46
  C 13.80 2.96 0.09 19.24 3.13 38.63
  C 5.96 56.66 19.78 74.12 33.01 86.56
  Q 33.10 86.65 33.17 86.67
  Q 33.25 86.69 33.39 86.69"
/>
<path stroke="#d5c4a0" vector-effect="non-scaling-stroke" d="
  M 33.34 20.70
  C 33.37 20.70 33.56 20.71 33.58 20.73
  Q 38.74 25.76 45.08 32.07
  A 0.64 0.64 0.0 0 1 45.08 32.97
  L 37.28 40.77
  A 1.47 1.44 -22.9 0 0 36.85 41.80
  L 36.85 50.90
  A 0.23 0.23 0.0 0 0 37.24 51.06
  L 39.09 49.22
  A 1.58 1.57 -23.0 0 0 39.54 48.12
  L 39.54 42.80
  A 1.37 1.35 -22.8 0 1 39.94 41.84
  L 49.02 32.76
  A 0.40 0.39 -45.5 0 0 49.02 32.21
  Q 44.90 28.07 33.65 16.82
  Q 33.53 16.71 33.34 16.71
  Q 33.15 16.71 33.03 16.82
  Q 21.80 28.09 17.68 32.23
  A 0.40 0.39 45.5 0 0 17.68 32.78
  L 26.77 41.85
  A 1.37 1.35 22.7 0 1 27.18 42.81
  L 27.18 48.13
  A 1.58 1.57 22.9 0 0 27.63 49.23
  L 29.49 51.07
  A 0.23 0.23 0.0 0 0 29.88 50.90
  L 29.86 41.80
  A 1.47 1.44 22.8 0 0 29.43 40.78
  L 21.62 32.99
  A 0.64 0.64 0.0 0 1 21.62 32.09
  Q 27.95 25.77 33.11 20.73
  C 33.13 20.71 33.32 20.70 33.34 20.70"
/>
<path stroke="#d5c4a0" vector-effect="non-scaling-stroke" d="
  M 33.32 35.05
  Q 35.79 35.06 36.62 37.35
  A 0.43 0.43 0.0 0 0 37.32 37.50
  L 38.89 35.93
  A 0.95 0.94 -30.3 0 0 39.14 35.01
  C 38.34 32.05 36.70 25.04 33.35 25.03
  C 30.01 25.02 28.31 32.01 27.50 34.97
  A 0.95 0.94 30.7 0 0 27.73 35.89
  L 29.29 37.47
  A 0.43 0.43 0.0 0 0 30.00 37.32
  Q 30.85 35.04 33.32 35.05"
/>
<path stroke="#d5c4a0" vector-effect="non-scaling-stroke" d="
  M 22.40 46.42
  L 24.58 46.58
  A 0.32 0.32 0.0 0 0 24.92 46.29
  L 24.94 46.04
  A 3.81 1.28 -85.8 0 0 23.94 42.15
  L 23.68 42.13
  A 3.81 1.28 -85.8 0 0 22.13 45.83
  L 22.11 46.08
  A 0.32 0.32 0.0 0 0 22.40 46.42"
/>
<path stroke="#d5c4a0" vector-effect="non-scaling-stroke" d="
  M 42.16 46.57
  L 44.36 46.40
  A 0.32 0.32 0.0 0 0 44.65 46.06
  L 44.63 45.81
  A 3.73 1.29 85.7 0 0 43.07 42.19
  L 42.81 42.21
  A 3.73 1.29 85.7 0 0 41.80 46.02
  L 41.82 46.27
  A 0.32 0.32 0.0 0 0 42.16 46.57"
/>
<path stroke="#d5c4a0" vector-effect="non-scaling-stroke" d="
  M 34.6123 44.2871
  A 0.53 0.53 0.0 0 0 34.0898 43.7498
  L 32.7099 43.7305
  A 0.53 0.53 0.0 0 0 32.1725 44.2531
  L 32.1477 46.0329
  A 0.53 0.53 0.0 0 0 32.6702 46.5702
  L 34.0501 46.5895
  A 0.53 0.53 0.0 0 0 34.5875 46.0669
  L 34.6123 44.2871"
/>
</g>
<path fill="#574828" d="
  M 33.81 88.00
  L 33.10 88.00
  Q 15.72 72.51 6.14 52.86
  Q 2.33 45.04 1.64 35.49
  Q 0.95 25.96 5.17 18.14
  C 11.56 6.31 24.65 -0.31 38.33 1.70
  C 54.41 4.06 66.22 18.12 65.45 34.32
  C 64.48 54.79 48.33 74.76 33.81 88.00
  Z
  M 33.39 86.69
  Q 33.53 86.69 33.61 86.67
  Q 33.68 86.65 33.77 86.56
  C 47.05 74.17 60.94 56.77 63.84 38.75
  C 66.96 19.37 53.31 3.04 33.75 2.46
  Q 33.65 2.46 33.56 2.46
  Q 33.46 2.46 33.36 2.46
  C 13.80 2.96 0.09 19.24 3.13 38.63
  C 5.96 56.66 19.78 74.12 33.01 86.56
  Q 33.10 86.65 33.17 86.67
  Q 33.25 86.69 33.39 86.69
  Z"
/>
<path fill="#aa8f54" d="
  M 33.56 2.46
  Q 33.65 2.46 33.75 2.46
  C 53.31 3.04 66.96 19.37 63.84 38.75
  C 60.94 56.77 47.05 74.17 33.77 86.56
  Q 33.68 86.65 33.61 86.67
  Q 33.53 86.69 33.39 86.69
  Q 33.25 86.69 33.17 86.67
  Q 33.10 86.65 33.01 86.56
  C 19.78 74.12 5.96 56.66 3.13 38.63
  C 0.09 19.24 13.80 2.96 33.36 2.46
  Q 33.46 2.46 33.56 2.46
  Z
  M 33.34 20.70
  C 33.37 20.70 33.56 20.71 33.58 20.73
  Q 38.74 25.76 45.08 32.07
  A 0.64 0.64 0.0 0 1 45.08 32.97
  L 37.28 40.77
  A 1.47 1.44 -22.9 0 0 36.85 41.80
  L 36.85 50.90
  A 0.23 0.23 0.0 0 0 37.24 51.06
  L 39.09 49.22
  A 1.58 1.57 -23.0 0 0 39.54 48.12
  L 39.54 42.80
  A 1.37 1.35 -22.8 0 1 39.94 41.84
  L 49.02 32.76
  A 0.40 0.39 -45.5 0 0 49.02 32.21
  Q 44.90 28.07 33.65 16.82
  Q 33.53 16.71 33.34 16.71
  Q 33.15 16.71 33.03 16.82
  Q 21.80 28.09 17.68 32.23
  A 0.40 0.39 45.5 0 0 17.68 32.78
  L 26.77 41.85
  A 1.37 1.35 22.7 0 1 27.18 42.81
  L 27.18 48.13
  A 1.58 1.57 22.9 0 0 27.63 49.23
  L 29.49 51.07
  A 0.23 0.23 0.0 0 0 29.88 50.90
  L 29.86 41.80
  A 1.47 1.44 22.8 0 0 29.43 40.78
  L 21.62 32.99
  A 0.64 0.64 0.0 0 1 21.62 32.09
  Q 27.95 25.77 33.11 20.73
  C 33.13 20.71 33.32 20.70 33.34 20.70
  Z
  M 33.32 35.05
  Q 35.79 35.06 36.62 37.35
  A 0.43 0.43 0.0 0 0 37.32 37.50
  L 38.89 35.93
  A 0.95 0.94 -30.3 0 0 39.14 35.01
  C 38.34 32.05 36.70 25.04 33.35 25.03
  C 30.01 25.02 28.31 32.01 27.50 34.97
  A 0.95 0.94 30.7 0 0 27.73 35.89
  L 29.29 37.47
  A 0.43 0.43 0.0 0 0 30.00 37.32
  Q 30.85 35.04 33.32 35.05
  Z
  M 22.40 46.42
  L 24.58 46.58
  A 0.32 0.32 0.0 0 0 24.92 46.29
  L 24.94 46.04
  A 3.81 1.28 -85.8 0 0 23.94 42.15
  L 23.68 42.13
  A 3.81 1.28 -85.8 0 0 22.13 45.83
  L 22.11 46.08
  A 0.32 0.32 0.0 0 0 22.40 46.42
  Z
  M 42.16 46.57
  L 44.36 46.40
  A 0.32 0.32 0.0 0 0 44.65 46.06
  L 44.63 45.81
  A 3.73 1.29 85.7 0 0 43.07 42.19
  L 42.81 42.21
  A 3.73 1.29 85.7 0 0 41.80 46.02
  L 41.82 46.27
  A 0.32 0.32 0.0 0 0 42.16 46.57
  Z
  M 34.6123 44.2871
  A 0.53 0.53 0.0 0 0 34.0898 43.7498
  L 32.7099 43.7305
  A 0.53 0.53 0.0 0 0 32.1725 44.2531
  L 32.1477 46.0329
  A 0.53 0.53 0.0 0 0 32.6702 46.5702
  L 34.0501 46.5895
  A 0.53 0.53 0.0 0 0 34.5875 46.0669
  L 34.6123 44.2871
  Z"
/>
<path fill="#fff8ec" d="
  M 33.34 16.71
  Q 33.53 16.71 33.65 16.82
  Q 44.90 28.07 49.02 32.21
  A 0.40 0.39 -45.5 0 1 49.02 32.76
  L 39.94 41.84
  A 1.37 1.35 -22.8 0 0 39.54 42.80
  L 39.54 48.12
  A 1.58 1.57 -23.0 0 1 39.09 49.22
  L 37.24 51.06
  A 0.23 0.23 0.0 0 1 36.85 50.90
  L 36.85 41.80
  A 1.47 1.44 -22.9 0 1 37.28 40.77
  L 45.08 32.97
  A 0.64 0.64 0.0 0 0 45.08 32.07
  Q 38.74 25.76 33.58 20.73
  C 33.56 20.71 33.37 20.70 33.34 20.70
  C 33.32 20.70 33.13 20.71 33.11 20.73
  Q 27.95 25.77 21.62 32.09
  A 0.64 0.64 0.0 0 0 21.62 32.99
  L 29.43 40.78
  A 1.47 1.44 22.8 0 1 29.86 41.80
  L 29.88 50.90
  A 0.23 0.23 0.0 0 1 29.49 51.07
  L 27.63 49.23
  A 1.58 1.57 22.9 0 1 27.18 48.13
  L 27.18 42.81
  A 1.37 1.35 22.7 0 0 26.77 41.85
  L 17.68 32.78
  A 0.40 0.39 45.5 0 1 17.68 32.23
  Q 21.80 28.09 33.03 16.82
  Q 33.15 16.71 33.34 16.71
  Z"
/>
<path fill="#fff8ec" d="
  M 33.35 25.03
  C 36.70 25.04 38.34 32.05 39.14 35.01
  A 0.95 0.94 -30.3 0 1 38.89 35.93
  L 37.32 37.50
  A 0.43 0.43 0.0 0 1 36.62 37.35
  Q 35.79 35.06 33.32 35.05
  Q 30.85 35.04 30.00 37.32
  A 0.43 0.43 0.0 0 1 29.29 37.47
  L 27.73 35.89
  A 0.95 0.94 30.7 0 1 27.50 34.97
  C 28.31 32.01 30.01 25.02 33.35 25.03
  Z"
/>
<path fill="#fff8ec" d="
  M 22.40 46.42
  A 0.32 0.32 0.0 0 1 22.11 46.08
  L 22.13 45.83
  A 3.81 1.28 -85.8 0 1 23.68 42.13
  L 23.94 42.15
  A 3.81 1.28 -85.8 0 1 24.94 46.04
  L 24.92 46.29
  A 0.32 0.32 0.0 0 1 24.58 46.58
  L 22.40 46.42
  Z"
/>
<path fill="#fff8ec" d="
  M 42.16 46.57
  A 0.32 0.32 0.0 0 1 41.82 46.27
  L 41.80 46.02
  A 3.73 1.29 85.7 0 1 42.81 42.21
  L 43.07 42.19
  A 3.73 1.29 85.7 0 1 44.63 45.81
  L 44.65 46.06
  A 0.32 0.32 0.0 0 1 44.36 46.40
  L 42.16 46.57
  Z"
/>
<rect fill="#fff8ec" x="-1.22" y="-1.42" transform="translate(33.38,45.16) rotate(0.8)" width="2.44" height="2.84" rx="0.53"/>
</svg>
