<?xml version="1.0" encoding="UTF-8" standalone="no"?>
<!DOCTYPE svg PUBLIC "-//W3C//DTD SVG 1.1//EN" "http://www.w3.org/Graphics/SVG/1.1/DTD/svg11.dtd">
<svg xmlns="http://www.w3.org/2000/svg" version="1.1" viewBox="0.00 0.00 66.00 88.00">
<g stroke-width="2.00" fill="none" stroke-linecap="butt">
<path stroke="#21303f" vector-effect="non-scaling-stroke" d="
  M 33.41 86.58
  Q 33.55 86.58 33.69 86.55
  A 0.13 0.10 8.4 0 0 33.74 86.52
  Q 43.93 77.28 53.42 63.43
  Q 61.79 51.19 63.81 38.53
  Q 66.16 23.73 56.74 13.04
  Q 48.04 3.16 34.51 2.51
  Q 33.72 2.47 33.52 2.47
  Q 33.32 2.47 32.53 2.50
  Q 19.00 3.12 10.27 12.98
  Q 0.82 23.64 3.13 38.45
  Q 5.12 51.12 13.46 63.38
  Q 22.91 77.25 33.08 86.52
  A 0.13 0.10 -8.3 0 0 33.13 86.55
  Q 33.26 86.58 33.41 86.58"
/>
<path stroke="#969c9f" vector-effect="non-scaling-stroke" d="
  M 34.47 51.70
  L 31.37 49.91
  A 1.14 1.14 0.0 0 1 30.80 48.92
  L 30.80 37.64
  A 0.69 0.68 -88.1 0 1 31.53 36.95
  C 37.10 37.30 45.15 36.28 47.03 29.96
  C 49.57 21.39 43.13 16.63 35.47 16.07
  Q 28.69 15.57 19.27 15.79
  A 0.39 0.39 0.0 0 0 19.08 16.52
  L 21.85 18.13
  A 1.18 1.18 0.0 0 1 22.45 19.16
  L 22.45 48.85
  A 1.28 1.26 -15.2 0 1 21.81 49.95
  L 18.75 51.72
  A 0.28 0.28 0.0 0 0 18.89 52.25
  L 34.32 52.25
  A 0.30 0.30 0.0 0 0 34.47 51.70"
/>
<path stroke="#969c9f" vector-effect="non-scaling-stroke" d="
  M 30.81 19.92
  L 30.81 32.70
  A 0.32 0.32 0.0 0 0 31.13 33.02
  L 32.86 33.02
  A 6.97 6.42 0.0 0 0 39.83 26.60
  L 39.83 26.02
  A 6.97 6.42 -0.0 0 0 32.86 19.60
  L 31.13 19.60
  A 0.32 0.32 0.0 0 0 30.81 19.92"
/>
<path stroke="#969c9f" vector-effect="non-scaling-stroke" d="
  M 26.32 20.84
  Q 26.16 21.90 25.67 28.23
  Q 25.59 29.14 26.00 29.52
  A 0.90 0.90 0.0 0 0 27.52 28.85
  Q 27.41 22.72 26.73 20.80
  A 0.21 0.21 0.0 0 0 26.32 20.84"
/>
<path stroke="#969c9f" vector-effect="non-scaling-stroke" d="
  M 26.4835 32.6323
  A 1.29 0.92 -93.4 0 0 25.6416 33.9746
  A 1.29 0.92 -93.4 0 0 26.6365 35.2077
  A 1.29 0.92 -93.4 0 0 27.4784 33.8654
  A 1.29 0.92 -93.4 0 0 26.4835 32.6323"
/>
<path stroke="#969c9f" vector-effect="non-scaling-stroke" d="
  M 27.38 38.28
  L 25.98 38.26
  A 0.13 0.13 0.0 0 0 25.85 38.39
  L 25.85 38.54
  A 8.96 0.83 -89.1 0 0 26.54 47.51
  A 8.96 0.83 -89.1 0 0 27.51 38.56
  L 27.51 38.41
  A 0.13 0.13 0.0 0 0 27.38 38.28"
/>
</g>
<path fill="#16212b" d="
  M 33.80 88.00
  L 33.04 88.00
  C 21.68 77.68 12.11 65.67 5.62 51.40
  Q 2.10 43.68 1.57 34.83
  C 0.60 18.82 11.18 5.76 26.65 2.05
  C 37.33 -0.50 49.61 3.33 57.12 11.62
  C 79.45 36.24 52.36 71.08 33.80 88.00
  Z
  M 33.41 86.58
  Q 33.55 86.58 33.69 86.55
  A 0.13 0.10 8.4 0 0 33.74 86.52
  Q 43.93 77.28 53.42 63.43
  Q 61.79 51.19 63.81 38.53
  Q 66.16 23.73 56.74 13.04
  Q 48.04 3.16 34.51 2.51
  Q 33.72 2.47 33.52 2.47
  Q 33.32 2.47 32.53 2.50
  Q 19.00 3.12 10.27 12.98
  Q 0.82 23.64 3.13 38.45
  Q 5.12 51.12 13.46 63.38
  Q 22.91 77.25 33.08 86.52
  A 0.13 0.10 -8.3 0 0 33.13 86.55
  Q 33.26 86.58 33.41 86.58
  Z"
/>
<path fill="#2c3f52" d="
  M 33.52 2.47
  Q 33.72 2.47 34.51 2.51
  Q 48.04 3.16 56.74 13.04
  Q 66.16 23.73 63.81 38.53
  Q 61.79 51.19 53.42 63.43
  Q 43.93 77.28 33.74 86.52
  A 0.13 0.10 8.4 0 1 33.69 86.55
  Q 33.55 86.58 33.41 86.58
  Q 33.26 86.58 33.13 86.55
  A 0.13 0.10 -8.3 0 1 33.08 86.52
  Q 22.91 77.25 13.46 63.38
  Q 5.12 51.12 3.13 38.45
  Q 0.82 23.64 10.27 12.98
  Q 19.00 3.12 32.53 2.50
  Q 33.32 2.47 33.52 2.47
  Z
  M 34.47 51.70
  L 31.37 49.91
  A 1.14 1.14 0.0 0 1 30.80 48.92
  L 30.80 37.64
  A 0.69 0.68 -88.1 0 1 31.53 36.95
  C 37.10 37.30 45.15 36.28 47.03 29.96
  C 49.57 21.39 43.13 16.63 35.47 16.07
  Q 28.69 15.57 19.27 15.79
  A 0.39 0.39 0.0 0 0 19.08 16.52
  L 21.85 18.13
  A 1.18 1.18 0.0 0 1 22.45 19.16
  L 22.45 48.85
  A 1.28 1.26 -15.2 0 1 21.81 49.95
  L 18.75 51.72
  A 0.28 0.28 0.0 0 0 18.89 52.25
  L 34.32 52.25
  A 0.30 0.30 0.0 0 0 34.47 51.70
  Z"
/>
<path fill="#fff8ec" d="
  M 34.47 51.70
  A 0.30 0.30 0.0 0 1 34.32 52.25
  L 18.89 52.25
  A 0.28 0.28 0.0 0 1 18.75 51.72
  L 21.81 49.95
  A 1.28 1.26 -15.2 0 0 22.45 48.85
  L 22.45 19.16
  A 1.18 1.18 0.0 0 0 21.85 18.13
  L 19.08 16.52
  A 0.39 0.39 0.0 0 1 19.27 15.79
  Q 28.69 15.57 35.47 16.07
  C 43.13 16.63 49.57 21.39 47.03 29.96
  C 45.15 36.28 37.10 37.30 31.53 36.95
  A 0.69 0.68 -88.1 0 0 30.80 37.64
  L 30.80 48.92
  A 1.14 1.14 0.0 0 0 31.37 49.91
  L 34.47 51.70
  Z
  M 30.81 19.92
  L 30.81 32.70
  A 0.32 0.32 0.0 0 0 31.13 33.02
  L 32.86 33.02
  A 6.97 6.42 0.0 0 0 39.83 26.60
  L 39.83 26.02
  A 6.97 6.42 -0.0 0 0 32.86 19.60
  L 31.13 19.60
  A 0.32 0.32 0.0 0 0 30.81 19.92
  Z
  M 26.32 20.84
  Q 26.16 21.90 25.67 28.23
  Q 25.59 29.14 26.00 29.52
  A 0.90 0.90 0.0 0 0 27.52 28.85
  Q 27.41 22.72 26.73 20.80
  A 0.21 0.21 0.0 0 0 26.32 20.84
  Z
  M 26.4835 32.6323
  A 1.29 0.92 -93.4 0 0 25.6416 33.9746
  A 1.29 0.92 -93.4 0 0 26.6365 35.2077
  A 1.29 0.92 -93.4 0 0 27.4784 33.8654
  A 1.29 0.92 -93.4 0 0 26.4835 32.6323
  Z
  M 27.38 38.28
  L 25.98 38.26
  A 0.13 0.13 0.0 0 0 25.85 38.39
  L 25.85 38.54
  A 8.96 0.83 -89.1 0 0 26.54 47.51
  A 8.96 0.83 -89.1 0 0 27.51 38.56
  L 27.51 38.41
  A 0.13 0.13 0.0 0 0 27.38 38.28
  Z"
/>
<path fill="#2c3f52" d="
  M 30.81 19.92
  A 0.32 0.32 0.0 0 1 31.13 19.60
  L 32.86 19.60
  A 6.97 6.42 -0.0 0 1 39.83 26.02
  L 39.83 26.60
  A 6.97 6.42 -0.0 0 1 32.86 33.02
  L 31.13 33.02
  A 0.32 0.32 0.0 0 1 30.81 32.70
  L 30.81 19.92
  Z"
/>
<path fill="#2c3f52" d="
  M 26.73 20.80
  Q 27.41 22.72 27.52 28.85
  A 0.90 0.90 0.0 0 1 26.00 29.52
  Q 25.59 29.14 25.67 28.23
  Q 26.16 21.90 26.32 20.84
  A 0.21 0.21 0.0 0 1 26.73 20.80
  Z"
/>
<ellipse fill="#2c3f52" cx="0.00" cy="0.00" transform="translate(26.56,33.92) rotate(-93.4)" rx="1.29" ry="0.92"/>
<path fill="#2c3f52" d="
  M 27.38 38.28
  A 0.13 0.13 0.0 0 1 27.51 38.41
  L 27.51 38.56
  A 8.96 0.83 -89.1 0 1 26.54 47.51
  A 8.96 0.83 -89.1 0 1 25.85 38.54
  L 25.85 38.39
  A 0.13 0.13 0.0 0 1 25.98 38.26
  L 27.38 38.28
  Z"
/>
</svg>
