<?xml version="1.0" encoding="UTF-8" standalone="no"?>
<!DOCTYPE svg PUBLIC "-//W3C//DTD SVG 1.1//EN" "http://www.w3.org/Graphics/SVG/1.1/DTD/svg11.dtd">
<svg xmlns="http://www.w3.org/2000/svg" version="1.1" viewBox="0.00 0.00 66.00 88.00">
<g stroke-width="2.00" fill="none" stroke-linecap="butt">
<path stroke="#428270" vector-effect="non-scaling-stroke" d="
  M 33.40 86.73
  Q 33.51 86.73 33.64 86.61
  Q 47.86 73.41 56.65 58.17
  Q 62.51 48.03 63.83 38.71
  Q 64.83 31.68 63.88 27.46
  Q 60.15 10.81 44.70 4.59
  Q 39.42 2.47 33.54 2.46
  Q 27.67 2.45 22.37 4.56
  Q 6.91 10.72 3.12 27.35
  Q 2.15 31.57 3.13 38.60
  Q 4.42 47.93 10.24 58.09
  Q 18.98 73.36 33.15 86.60
  Q 33.29 86.73 33.40 86.73"
/>
<path stroke="#add2c1" vector-effect="non-scaling-stroke" d="
  M 33.14 16.22
  A 0.42 0.42 0.0 0 0 32.42 15.93
  L 23.84 24.51
  A 0.42 0.42 0.0 0 0 23.92 25.17
  L 28.15 27.62
  A 0.42 0.42 0.0 0 0 28.66 27.55
  L 33.02 23.18
  A 0.42 0.42 0.0 0 0 33.14 22.89
  L 33.14 16.22"
/>
<path stroke="#add2c1" vector-effect="non-scaling-stroke" d="
  M 43.12 24.30
  A 0.39 0.39 0.0 0 0 43.13 23.68
  L 34.33 16.40
  A 0.39 0.39 0.0 0 0 33.69 16.70
  L 33.69 23.47
  A 0.39 0.39 0.0 0 0 33.83 23.77
  L 38.30 27.47
  A 0.39 0.39 0.0 0 0 38.78 27.48
  L 43.12 24.30"
/>
<path stroke="#add2c1" vector-effect="non-scaling-stroke" d="
  M 29.12 34.02
  Q 29.13 39.00 29.13 39.03
  A 1.71 1.65 18.5 0 0 29.60 39.93
  Q 31.35 41.66 33.06 43.08
  Q 33.08 43.10 33.23 43.10
  Q 33.38 43.10 33.41 43.08
  Q 35.11 41.66 36.86 39.92
  A 1.71 1.65 -18.5 0 0 37.33 39.03
  Q 37.33 39.00 37.33 34.01
  Q 37.32 29.02 37.32 28.99
  A 1.71 1.65 18.5 0 0 36.85 28.09
  Q 35.10 26.36 33.39 24.94
  Q 33.37 24.92 33.22 24.92
  Q 33.07 24.92 33.04 24.94
  Q 31.34 26.37 29.59 28.10
  A 1.71 1.65 -18.5 0 0 29.12 29.00
  Q 29.12 29.03 29.12 34.02"
/>
<path stroke="#add2c1" vector-effect="non-scaling-stroke" d="
  M 39.04 28.50
  A 0.36 0.36 0.0 0 0 38.89 28.79
  L 38.89 39.64
  A 0.36 0.36 0.0 0 0 39.07 39.95
  L 43.22 42.35
  A 0.36 0.36 0.0 0 0 43.76 42.04
  L 43.76 25.75
  A 0.36 0.36 0.0 0 0 43.19 25.46
  L 39.04 28.50"
/>
<path stroke="#add2c1" vector-effect="non-scaling-stroke" d="
  M 23.60 25.85
  A 0.46 0.46 0.0 0 0 22.91 26.25
  L 22.91 42.16
  A 0.46 0.46 0.0 0 0 23.64 42.53
  L 27.65 39.59
  A 0.46 0.46 0.0 0 0 27.84 39.22
  L 27.84 28.57
  A 0.46 0.46 0.0 0 0 27.61 28.17
  L 23.60 25.85"
/>
<path stroke="#add2c1" vector-effect="non-scaling-stroke" d="
  M 38.83 40.56
  A 0.74 0.74 0.0 0 0 37.94 40.66
  L 34.38 44.05
  A 2.09 2.08 68.5 0 0 33.73 45.54
  L 33.67 51.13
  A 0.42 0.42 0.0 0 0 34.37 51.44
  L 42.81 43.58
  A 0.42 0.42 0.0 0 0 42.74 42.91
  L 38.83 40.56"
/>
<path stroke="#add2c1" vector-effect="non-scaling-stroke" d="
  M 27.85 40.54
  L 23.80 42.96
  A 0.43 0.43 0.0 0 0 23.72 43.65
  L 32.43 51.79
  A 0.43 0.43 0.0 0 0 33.16 51.47
  L 33.11 45.70
  A 2.15 2.15 0.0 0 0 32.44 44.15
  L 28.76 40.64
  A 0.76 0.76 0.0 0 0 27.85 40.54"
/>
</g>
<path fill="#2a584b" d="
  M 33.80 88.00
  L 33.04 88.00
  C 22.21 78.22 11.93 65.54 5.75 51.76
  Q 2.14 43.71 1.56 34.96
  C 0.25 15.42 16.96 -0.38 36.66 1.49
  C 53.28 3.07 66.10 17.25 65.46 33.91
  Q 65.17 41.59 62.40 48.84
  C 56.71 63.72 45.50 77.34 33.80 88.00
  Z
  M 33.40 86.73
  Q 33.51 86.73 33.64 86.61
  Q 47.86 73.41 56.65 58.17
  Q 62.51 48.03 63.83 38.71
  Q 64.83 31.68 63.88 27.46
  Q 60.15 10.81 44.70 4.59
  Q 39.42 2.47 33.54 2.46
  Q 27.67 2.45 22.37 4.56
  Q 6.91 10.72 3.12 27.35
  Q 2.15 31.57 3.13 38.60
  Q 4.42 47.93 10.24 58.09
  Q 18.98 73.36 33.15 86.60
  Q 33.29 86.73 33.40 86.73
  Z"
/>
<path fill="#5aab95" d="
  M 33.54 2.46
  Q 39.42 2.47 44.70 4.59
  Q 60.15 10.81 63.88 27.46
  Q 64.83 31.68 63.83 38.71
  Q 62.51 48.03 56.65 58.17
  Q 47.86 73.41 33.64 86.61
  Q 33.51 86.73 33.40 86.73
  Q 33.29 86.73 33.15 86.60
  Q 18.98 73.36 10.24 58.09
  Q 4.42 47.93 3.13 38.60
  Q 2.15 31.57 3.12 27.35
  Q 6.91 10.72 22.37 4.56
  Q 27.67 2.45 33.54 2.46
  Z
  M 33.14 16.22
  A 0.42 0.42 0.0 0 0 32.42 15.93
  L 23.84 24.51
  A 0.42 0.42 0.0 0 0 23.92 25.17
  L 28.15 27.62
  A 0.42 0.42 0.0 0 0 28.66 27.55
  L 33.02 23.18
  A 0.42 0.42 0.0 0 0 33.14 22.89
  L 33.14 16.22
  Z
  M 43.12 24.30
  A 0.39 0.39 0.0 0 0 43.13 23.68
  L 34.33 16.40
  A 0.39 0.39 0.0 0 0 33.69 16.70
  L 33.69 23.47
  A 0.39 0.39 0.0 0 0 33.83 23.77
  L 38.30 27.47
  A 0.39 0.39 0.0 0 0 38.78 27.48
  L 43.12 24.30
  Z
  M 29.12 34.02
  Q 29.13 39.00 29.13 39.03
  A 1.71 1.65 18.5 0 0 29.60 39.93
  Q 31.35 41.66 33.06 43.08
  Q 33.08 43.10 33.23 43.10
  Q 33.38 43.10 33.41 43.08
  Q 35.11 41.66 36.86 39.92
  A 1.71 1.65 -18.5 0 0 37.33 39.03
  Q 37.33 39.00 37.33 34.01
  Q 37.32 29.02 37.32 28.99
  A 1.71 1.65 18.5 0 0 36.85 28.09
  Q 35.10 26.36 33.39 24.94
  Q 33.37 24.92 33.22 24.92
  Q 33.07 24.92 33.04 24.94
  Q 31.34 26.37 29.59 28.10
  A 1.71 1.65 -18.5 0 0 29.12 29.00
  Q 29.12 29.03 29.12 34.02
  Z
  M 39.04 28.50
  A 0.36 0.36 0.0 0 0 38.89 28.79
  L 38.89 39.64
  A 0.36 0.36 0.0 0 0 39.07 39.95
  L 43.22 42.35
  A 0.36 0.36 0.0 0 0 43.76 42.04
  L 43.76 25.75
  A 0.36 0.36 0.0 0 0 43.19 25.46
  L 39.04 28.50
  Z
  M 23.60 25.85
  A 0.46 0.46 0.0 0 0 22.91 26.25
  L 22.91 42.16
  A 0.46 0.46 0.0 0 0 23.64 42.53
  L 27.65 39.59
  A 0.46 0.46 0.0 0 0 27.84 39.22
  L 27.84 28.57
  A 0.46 0.46 0.0 0 0 27.61 28.17
  L 23.60 25.85
  Z
  M 38.83 40.56
  A 0.74 0.74 0.0 0 0 37.94 40.66
  L 34.38 44.05
  A 2.09 2.08 68.5 0 0 33.73 45.54
  L 33.67 51.13
  A 0.42 0.42 0.0 0 0 34.37 51.44
  L 42.81 43.58
  A 0.42 0.42 0.0 0 0 42.74 42.91
  L 38.83 40.56
  Z
  M 27.85 40.54
  L 23.80 42.96
  A 0.43 0.43 0.0 0 0 23.72 43.65
  L 32.43 51.79
  A 0.43 0.43 0.0 0 0 33.16 51.47
  L 33.11 45.70
  A 2.15 2.15 0.0 0 0 32.44 44.15
  L 28.76 40.64
  A 0.76 0.76 0.0 0 0 27.85 40.54
  Z"
/>
<path fill="#fff8ec" d="
  M 33.14 16.22
  L 33.14 22.89
  A 0.42 0.42 0.0 0 1 33.02 23.18
  L 28.66 27.55
  A 0.42 0.42 0.0 0 1 28.15 27.62
  L 23.92 25.17
  A 0.42 0.42 0.0 0 1 23.84 24.51
  L 32.42 15.93
  A 0.42 0.42 0.0 0 1 33.14 16.22
  Z"
/>
<path fill="#fff8ec" d="
  M 43.12 24.30
  L 38.78 27.48
  A 0.39 0.39 0.0 0 1 38.30 27.47
  L 33.83 23.77
  A 0.39 0.39 0.0 0 1 33.69 23.47
  L 33.69 16.70
  A 0.39 0.39 0.0 0 1 34.33 16.40
  L 43.13 23.68
  A 0.39 0.39 0.0 0 1 43.12 24.30
  Z"
/>
<path fill="#fff8ec" d="
  M 33.22 24.92
  Q 33.37 24.92 33.39 24.94
  Q 35.10 26.36 36.85 28.09
  A 1.71 1.65 18.5 0 1 37.32 28.99
  Q 37.32 29.02 37.33 34.01
  Q 37.33 39.00 37.33 39.03
  A 1.71 1.65 -18.5 0 1 36.86 39.92
  Q 35.11 41.66 33.41 43.08
  Q 33.38 43.10 33.23 43.10
  Q 33.08 43.10 33.06 43.08
  Q 31.35 41.66 29.60 39.93
  A 1.71 1.65 18.5 0 1 29.13 39.03
  Q 29.13 39.00 29.12 34.02
  Q 29.12 29.03 29.12 29.00
  A 1.71 1.65 -18.5 0 1 29.59 28.10
  Q 31.34 26.37 33.04 24.94
  Q 33.07 24.92 33.22 24.92
  Z"
/>
<path fill="#fff8ec" d="
  M 39.04 28.50
  L 43.19 25.46
  A 0.36 0.36 0.0 0 1 43.76 25.75
  L 43.76 42.04
  A 0.36 0.36 0.0 0 1 43.22 42.35
  L 39.07 39.95
  A 0.36 0.36 0.0 0 1 38.89 39.64
  L 38.89 28.79
  A 0.36 0.36 0.0 0 1 39.04 28.50
  Z"
/>
<path fill="#fff8ec" d="
  M 23.60 25.85
  L 27.61 28.17
  A 0.46 0.46 0.0 0 1 27.84 28.57
  L 27.84 39.22
  A 0.46 0.46 0.0 0 1 27.65 39.59
  L 23.64 42.53
  A 0.46 0.46 0.0 0 1 22.91 42.16
  L 22.91 26.25
  A 0.46 0.46 0.0 0 1 23.60 25.85
  Z"
/>
<path fill="#fff8ec" d="
  M 38.83 40.56
  L 42.74 42.91
  A 0.42 0.42 0.0 0 1 42.81 43.58
  L 34.37 51.44
  A 0.42 0.42 0.0 0 1 33.67 51.13
  L 33.73 45.54
  A 2.09 2.08 68.5 0 1 34.38 44.05
  L 37.94 40.66
  A 0.74 0.74 0.0 0 1 38.83 40.56
  Z"
/>
<path fill="#fff8ec" d="
  M 27.85 40.54
  A 0.76 0.76 0.0 0 1 28.76 40.64
  L 32.44 44.15
  A 2.15 2.15 0.0 0 1 33.11 45.70
  L 33.16 51.47
  A 0.43 0.43 0.0 0 1 32.43 51.79
  L 23.72 43.65
  A 0.43 0.43 0.0 0 1 23.80 42.96
  L 27.85 40.54
  Z"
/>
</svg>
