<?xml version="1.0" encoding="UTF-8" standalone="no"?>
<!DOCTYPE svg PUBLIC "-//W3C//DTD SVG 1.1//EN" "http://www.w3.org/Graphics/SVG/1.1/DTD/svg11.dtd">
<svg xmlns="http://www.w3.org/2000/svg" version="1.1" viewBox="0.00 0.00 66.00 88.00">
<g stroke-width="2.00" fill="none" stroke-linecap="butt">
<path stroke="#802436" vector-effect="non-scaling-stroke" d="
  M 33.42 86.69
  Q 33.53 86.69 33.62 86.67
  Q 33.64 86.67 33.77 86.55
  Q 43.38 77.86 52.90 64.23
  C 64.21 48.03 70.63 26.20 54.77 10.99
  C 49.18 5.63 41.48 2.48 33.51 2.47
  C 25.54 2.46 17.84 5.59 12.23 10.95
  C -3.66 26.12 2.72 47.96 13.99 64.19
  Q 23.48 77.84 33.07 86.55
  Q 33.20 86.67 33.22 86.67
  Q 33.31 86.69 33.42 86.69"
/>
<path stroke="#d4959a" vector-effect="non-scaling-stroke" d="
  M 29.48 21.62
  L 30.76 20.77
  A 0.46 0.46 0.0 0 0 30.89 20.13
  L 30.70 19.85
  A 2.22 1.12 56.3 0 0 28.53 18.62
  L 28.35 18.74
  A 2.22 1.12 56.3 0 0 28.65 21.21
  L 28.84 21.50
  A 0.46 0.46 0.0 0 0 29.48 21.62"
/>
<path stroke="#d4959a" vector-effect="non-scaling-stroke" d="
  M 35.21 20.81
  L 36.60 21.65
  A 0.42 0.42 0.0 0 0 37.18 21.51
  L 37.30 21.30
  A 2.36 1.12 -58.8 0 0 37.57 18.71
  L 37.38 18.59
  A 2.36 1.12 -58.8 0 0 35.20 20.03
  L 35.07 20.24
  A 0.42 0.42 0.0 0 0 35.21 20.81"
/>
<path stroke="#d4959a" vector-effect="non-scaling-stroke" d="
  M 27.8703 23.1560
  A 0.93 0.93 0.0 0 0 27.7809 21.8438
  L 26.7711 20.9630
  A 0.93 0.93 0.0 0 0 25.4589 21.0524
  L 25.1697 21.3840
  A 0.93 0.93 0.0 0 0 25.2591 22.6962
  L 26.2689 23.5770
  A 0.93 0.93 0.0 0 0 27.5811 23.4876
  L 27.8703 23.1560"
/>
<path stroke="#d4959a" vector-effect="non-scaling-stroke" d="
  M 40.4277 20.9766
  A 0.88 0.88 0.0 0 0 39.1832 20.9614
  L 38.1383 21.9811
  A 0.88 0.88 0.0 0 0 38.1231 23.2255
  L 38.4723 23.5834
  A 0.88 0.88 0.0 0 0 39.7168 23.5986
  L 40.7617 22.5789
  A 0.88 0.88 0.0 0 0 40.7769 21.3345
  L 40.4277 20.9766"
/>
<path stroke="#d4959a" vector-effect="non-scaling-stroke" d="
  M 29.00 31.49
  L 37.00 31.49
  A 0.31 0.31 0.0 0 0 37.31 31.18
  L 37.31 27.75
  A 4.88 4.13 90.0 0 0 33.18 22.87
  L 32.82 22.87
  A 4.88 4.13 90.0 0 0 28.69 27.75
  L 28.69 31.18
  A 0.31 0.31 0.0 0 0 29.00 31.49"
/>
<path stroke="#d4959a" vector-effect="non-scaling-stroke" d="
  M 24.76 33.91
  A 0.89 0.88 47.1 0 0 24.79 32.92
  Q 23.53 30.90 20.89 30.74
  A 1.58 1.57 30.2 0 0 19.90 31.00
  C 17.09 32.83 17.38 35.36 16.09 37.76
  A 0.38 0.38 0.0 0 0 16.34 38.31
  Q 18.44 38.77 19.86 38.39
  A 0.63 0.63 0.0 0 0 20.22 37.44
  Q 18.73 35.12 20.37 33.50
  Q 21.33 32.56 22.13 33.36
  Q 22.87 34.09 23.19 35.17
  A 0.34 0.34 0.0 0 0 23.80 35.27
  L 24.76 33.91"
/>
<path stroke="#d4959a" vector-effect="non-scaling-stroke" d="
  M 41.22 33.91
  L 42.18 35.27
  A 0.34 0.34 0.0 0 0 42.79 35.17
  Q 43.11 34.09 43.85 33.36
  Q 44.65 32.56 45.61 33.50
  Q 47.24 35.12 45.75 37.44
  A 0.63 0.63 0.0 0 0 46.11 38.39
  Q 47.53 38.77 49.63 38.31
  A 0.38 0.38 0.0 0 0 49.88 37.76
  C 48.59 35.36 48.88 32.84 46.08 31.00
  A 1.57 1.57 0.0 0 0 45.09 30.74
  Q 42.45 30.90 41.19 32.92
  A 0.89 0.88 -47.1 0 0 41.22 33.91"
/>
<path stroke="#d4959a" vector-effect="non-scaling-stroke" d="
  M 33.01 45.73
  Q 35.67 45.73 35.70 45.73
  A 0.41 0.41 0.0 0 0 35.94 45.04
  C 32.42 41.44 36.08 36.11 40.40 39.58
  A 0.33 0.33 0.0 0 0 40.93 39.38
  C 41.33 36.67 39.79 35.58 37.91 34.15
  A 1.85 1.81 -23.8 0 0 36.91 33.77
  Q 36.81 33.77 33.01 33.77
  Q 29.21 33.77 29.10 33.77
  A 1.85 1.81 23.9 0 0 28.10 34.15
  C 26.22 35.58 24.68 36.67 25.08 39.38
  A 0.33 0.33 0.0 0 0 25.61 39.58
  C 29.93 36.11 33.59 41.44 30.07 45.04
  A 0.41 0.41 0.0 0 0 30.31 45.73
  Q 30.34 45.73 33.01 45.73"
/>
<path stroke="#d4959a" vector-effect="non-scaling-stroke" d="
  M 15.13 49.72
  L 18.40 49.71
  A 0.49 0.48 -16.9 0 0 18.80 48.95
  Q 17.14 46.49 19.26 44.25
  A 1.45 1.44 21.2 0 1 20.29 43.80
  C 22.06 43.79 24.02 45.21 25.54 45.00
  Q 28.34 44.62 29.18 41.97
  A 0.97 0.97 0.0 0 0 27.52 41.04
  L 26.44 42.28
  A 1.35 1.34 -68.1 0 1 25.37 42.74
  Q 24.73 42.71 23.02 41.92
  C 19.33 40.21 16.40 42.60 15.83 46.25
  Q 15.63 47.53 14.77 49.11
  A 0.41 0.41 0.0 0 0 15.13 49.72"
/>
<path stroke="#d4959a" vector-effect="non-scaling-stroke" d="
  M 50.88 49.70
  A 0.41 0.41 0.0 0 0 51.24 49.09
  Q 50.37 47.50 50.17 46.21
  C 49.59 42.54 46.64 40.14 42.92 41.86
  Q 41.20 42.66 40.56 42.69
  A 1.36 1.35 68.0 0 1 39.48 42.23
  L 38.39 40.99
  A 0.98 0.98 0.0 0 0 36.72 41.93
  Q 37.57 44.59 40.39 44.97
  C 41.92 45.18 43.89 43.75 45.68 43.75
  A 1.46 1.45 -21.3 0 1 46.71 44.20
  Q 48.85 46.46 47.18 48.94
  A 0.49 0.49 0.0 0 0 47.59 49.70
  L 50.88 49.70"
/>
<path stroke="#d4959a" vector-effect="non-scaling-stroke" d="
  M 34.53 27.61
  A 1.53 1.53 0.0 0 0 33.00 26.08
  A 1.53 1.53 0.0 0 0 31.47 27.61
  A 1.53 1.53 0.0 0 0 33.00 29.14
  A 1.53 1.53 0.0 0 0 34.53 27.61"
/>
</g>
<path fill="#581723" d="
  M 33.79 88.00
  L 33.15 88.00
  Q 15.61 72.48 6.00 52.51
  Q 2.32 44.86 1.62 35.22
  C 0.46 19.09 11.06 5.71 26.54 2.07
  C 37.36 -0.47 49.52 3.25 57.20 11.69
  C 79.42 36.10 52.31 71.23 33.79 88.00
  Z
  M 33.42 86.69
  Q 33.53 86.69 33.62 86.67
  Q 33.64 86.67 33.77 86.55
  Q 43.38 77.86 52.90 64.23
  C 64.21 48.03 70.63 26.20 54.77 10.99
  C 49.18 5.63 41.48 2.48 33.51 2.47
  C 25.54 2.46 17.84 5.59 12.23 10.95
  C -3.66 26.12 2.72 47.96 13.99 64.19
  Q 23.48 77.84 33.07 86.55
  Q 33.20 86.67 33.22 86.67
  Q 33.31 86.69 33.42 86.69
  Z"
/>
<path fill="#a83148" d="
  M 33.51 2.47
  C 41.48 2.48 49.18 5.63 54.77 10.99
  C 70.63 26.20 64.21 48.03 52.90 64.23
  Q 43.38 77.86 33.77 86.55
  Q 33.64 86.67 33.62 86.67
  Q 33.53 86.69 33.42 86.69
  Q 33.31 86.69 33.22 86.67
  Q 33.20 86.67 33.07 86.55
  Q 23.48 77.84 13.99 64.19
  C 2.72 47.96 -3.66 26.12 12.23 10.95
  C 17.84 5.59 25.54 2.46 33.51 2.47
  Z
  M 29.48 21.62
  L 30.76 20.77
  A 0.46 0.46 0.0 0 0 30.89 20.13
  L 30.70 19.85
  A 2.22 1.12 56.3 0 0 28.53 18.62
  L 28.35 18.74
  A 2.22 1.12 56.3 0 0 28.65 21.21
  L 28.84 21.50
  A 0.46 0.46 0.0 0 0 29.48 21.62
  Z
  M 35.21 20.81
  L 36.60 21.65
  A 0.42 0.42 0.0 0 0 37.18 21.51
  L 37.30 21.30
  A 2.36 1.12 -58.8 0 0 37.57 18.71
  L 37.38 18.59
  A 2.36 1.12 -58.8 0 0 35.20 20.03
  L 35.07 20.24
  A 0.42 0.42 0.0 0 0 35.21 20.81
  Z
  M 27.8703 23.1560
  A 0.93 0.93 0.0 0 0 27.7809 21.8438
  L 26.7711 20.9630
  A 0.93 0.93 0.0 0 0 25.4589 21.0524
  L 25.1697 21.3840
  A 0.93 0.93 0.0 0 0 25.2591 22.6962
  L 26.2689 23.5770
  A 0.93 0.93 0.0 0 0 27.5811 23.4876
  L 27.8703 23.1560
  Z
  M 40.4277 20.9766
  A 0.88 0.88 0.0 0 0 39.1832 20.9614
  L 38.1383 21.9811
  A 0.88 0.88 0.0 0 0 38.1231 23.2255
  L 38.4723 23.5834
  A 0.88 0.88 0.0 0 0 39.7168 23.5986
  L 40.7617 22.5789
  A 0.88 0.88 0.0 0 0 40.7769 21.3345
  L 40.4277 20.9766
  Z
  M 29.00 31.49
  L 37.00 31.49
  A 0.31 0.31 0.0 0 0 37.31 31.18
  L 37.31 27.75
  A 4.88 4.13 90.0 0 0 33.18 22.87
  L 32.82 22.87
  A 4.88 4.13 90.0 0 0 28.69 27.75
  L 28.69 31.18
  A 0.31 0.31 0.0 0 0 29.00 31.49
  Z
  M 24.76 33.91
  A 0.89 0.88 47.1 0 0 24.79 32.92
  Q 23.53 30.90 20.89 30.74
  A 1.58 1.57 30.2 0 0 19.90 31.00
  C 17.09 32.83 17.38 35.36 16.09 37.76
  A 0.38 0.38 0.0 0 0 16.34 38.31
  Q 18.44 38.77 19.86 38.39
  A 0.63 0.63 0.0 0 0 20.22 37.44
  Q 18.73 35.12 20.37 33.50
  Q 21.33 32.56 22.13 33.36
  Q 22.87 34.09 23.19 35.17
  A 0.34 0.34 0.0 0 0 23.80 35.27
  L 24.76 33.91
  Z
  M 41.22 33.91
  L 42.18 35.27
  A 0.34 0.34 0.0 0 0 42.79 35.17
  Q 43.11 34.09 43.85 33.36
  Q 44.65 32.56 45.61 33.50
  Q 47.24 35.12 45.75 37.44
  A 0.63 0.63 0.0 0 0 46.11 38.39
  Q 47.53 38.77 49.63 38.31
  A 0.38 0.38 0.0 0 0 49.88 37.76
  C 48.59 35.36 48.88 32.84 46.08 31.00
  A 1.57 1.57 0.0 0 0 45.09 30.74
  Q 42.45 30.90 41.19 32.92
  A 0.89 0.88 -47.1 0 0 41.22 33.91
  Z
  M 33.01 45.73
  Q 35.67 45.73 35.70 45.73
  A 0.41 0.41 0.0 0 0 35.94 45.04
  C 32.42 41.44 36.08 36.11 40.40 39.58
  A 0.33 0.33 0.0 0 0 40.93 39.38
  C 41.33 36.67 39.79 35.58 37.91 34.15
  A 1.85 1.81 -23.8 0 0 36.91 33.77
  Q 36.81 33.77 33.01 33.77
  Q 29.21 33.77 29.10 33.77
  A 1.85 1.81 23.9 0 0 28.10 34.15
  C 26.22 35.58 24.68 36.67 25.08 39.38
  A 0.33 0.33 0.0 0 0 25.61 39.58
  C 29.93 36.11 33.59 41.44 30.07 45.04
  A 0.41 0.41 0.0 0 0 30.31 45.73
  Q 30.34 45.73 33.01 45.73
  Z
  M 15.13 49.72
  L 18.40 49.71
  A 0.49 0.48 -16.9 0 0 18.80 48.95
  Q 17.14 46.49 19.26 44.25
  A 1.45 1.44 21.2 0 1 20.29 43.80
  C 22.06 43.79 24.02 45.21 25.54 45.00
  Q 28.34 44.62 29.18 41.97
  A 0.97 0.97 0.0 0 0 27.52 41.04
  L 26.44 42.28
  A 1.35 1.34 -68.1 0 1 25.37 42.74
  Q 24.73 42.71 23.02 41.92
  C 19.33 40.21 16.40 42.60 15.83 46.25
  Q 15.63 47.53 14.77 49.11
  A 0.41 0.41 0.0 0 0 15.13 49.72
  Z
  M 50.88 49.70
  A 0.41 0.41 0.0 0 0 51.24 49.09
  Q 50.37 47.50 50.17 46.21
  C 49.59 42.54 46.64 40.14 42.92 41.86
  Q 41.20 42.66 40.56 42.69
  A 1.36 1.35 68.0 0 1 39.48 42.23
  L 38.39 40.99
  A 0.98 0.98 0.0 0 0 36.72 41.93
  Q 37.57 44.59 40.39 44.97
  C 41.92 45.18 43.89 43.75 45.68 43.75
  A 1.46 1.45 -21.3 0 1 46.71 44.20
  Q 48.85 46.46 47.18 48.94
  A 0.49 0.49 0.0 0 0 47.59 49.70
  L 50.88 49.70
  Z"
/>
<path fill="#fff8ec" d="
  M 29.48 21.62
  A 0.46 0.46 0.0 0 1 28.84 21.50
  L 28.65 21.21
  A 2.22 1.12 56.3 0 1 28.35 18.74
  L 28.53 18.62
  A 2.22 1.12 56.3 0 1 30.70 19.85
  L 30.89 20.13
  A 0.46 0.46 0.0 0 1 30.76 20.77
  L 29.48 21.62
  Z"
/>
<path fill="#fff8ec" d="
  M 35.21 20.81
  A 0.42 0.42 0.0 0 1 35.07 20.24
  L 35.20 20.03
  A 2.36 1.12 -58.8 0 1 37.38 18.59
  L 37.57 18.71
  A 2.36 1.12 -58.8 0 1 37.30 21.30
  L 37.18 21.51
  A 0.42 0.42 0.0 0 1 36.60 21.65
  L 35.21 20.81
  Z"
/>
<rect fill="#fff8ec" x="-1.60" y="-1.15" transform="translate(26.52,22.27) rotate(41.1)" width="3.20" height="2.30" rx="0.93"/>
<rect fill="#fff8ec" x="-1.61" y="-1.13" transform="translate(39.45,22.28) rotate(-44.3)" width="3.22" height="2.26" rx="0.88"/>
<path fill="#fff8ec" d="
  M 29.00 31.49
  A 0.31 0.31 0.0 0 1 28.69 31.18
  L 28.69 27.75
  A 4.88 4.13 90.0 0 1 32.82 22.87
  L 33.18 22.87
  A 4.88 4.13 -90.0 0 1 37.31 27.75
  L 37.31 31.18
  A 0.31 0.31 0.0 0 1 37.00 31.49
  L 29.00 31.49
  Z
  M 34.53 27.61
  A 1.53 1.53 0.0 0 0 33.00 26.08
  A 1.53 1.53 0.0 0 0 31.47 27.61
  A 1.53 1.53 0.0 0 0 33.00 29.14
  A 1.53 1.53 0.0 0 0 34.53 27.61
  Z"
/>
<circle fill="#a83148" cx="33.00" cy="27.61" r="1.53"/>
<path fill="#fff8ec" d="
  M 23.19 35.17
  Q 22.87 34.09 22.13 33.36
  Q 21.33 32.56 20.37 33.50
  Q 18.73 35.12 20.22 37.44
  A 0.63 0.63 0.0 0 1 19.86 38.39
  Q 18.44 38.77 16.34 38.31
  A 0.38 0.38 0.0 0 1 16.09 37.76
  C 17.38 35.36 17.09 32.83 19.90 31.00
  A 1.58 1.57 30.2 0 1 20.89 30.74
  Q 23.53 30.90 24.79 32.92
  A 0.89 0.88 47.1 0 1 24.76 33.91
  L 23.80 35.27
  A 0.34 0.34 0.0 0 1 23.19 35.17
  Z"
/>
<path fill="#fff8ec" d="
  M 41.22 33.91
  A 0.89 0.88 -47.1 0 1 41.19 32.92
  Q 42.45 30.90 45.09 30.74
  A 1.57 1.57 0.0 0 1 46.08 31.00
  C 48.88 32.84 48.59 35.36 49.88 37.76
  A 0.38 0.38 0.0 0 1 49.63 38.31
  Q 47.53 38.77 46.11 38.39
  A 0.63 0.63 0.0 0 1 45.75 37.44
  Q 47.24 35.12 45.61 33.50
  Q 44.65 32.56 43.85 33.36
  Q 43.11 34.09 42.79 35.17
  A 0.34 0.34 0.0 0 1 42.18 35.27
  L 41.22 33.91
  Z"
/>
<path fill="#fff8ec" d="
  M 33.01 33.77
  Q 36.81 33.77 36.91 33.77
  A 1.85 1.81 -23.8 0 1 37.91 34.15
  C 39.79 35.58 41.33 36.67 40.93 39.38
  A 0.33 0.33 0.0 0 1 40.40 39.58
  C 36.08 36.11 32.42 41.44 35.94 45.04
  A 0.41 0.41 0.0 0 1 35.70 45.73
  Q 35.67 45.73 33.01 45.73
  Q 30.34 45.73 30.31 45.73
  A 0.41 0.41 0.0 0 1 30.07 45.04
  C 33.59 41.44 29.93 36.11 25.61 39.58
  A 0.33 0.33 0.0 0 1 25.08 39.38
  C 24.68 36.67 26.22 35.58 28.10 34.15
  A 1.85 1.81 23.9 0 1 29.10 33.77
  Q 29.21 33.77 33.01 33.77
  Z"
/>
<path fill="#fff8ec" d="
  M 15.13 49.72
  A 0.41 0.41 0.0 0 1 14.77 49.11
  Q 15.63 47.53 15.83 46.25
  C 16.40 42.60 19.33 40.21 23.02 41.92
  Q 24.73 42.71 25.37 42.74
  A 1.35 1.34 -68.1 0 0 26.44 42.28
  L 27.52 41.04
  A 0.97 0.97 0.0 0 1 29.18 41.97
  Q 28.34 44.62 25.54 45.00
  C 24.02 45.21 22.06 43.79 20.29 43.80
  A 1.45 1.44 21.2 0 0 19.26 44.25
  Q 17.14 46.49 18.80 48.95
  A 0.49 0.48 -16.9 0 1 18.40 49.71
  L 15.13 49.72
  Z"
/>
<path fill="#fff8ec" d="
  M 50.88 49.70
  L 47.59 49.70
  A 0.49 0.49 0.0 0 1 47.18 48.94
  Q 48.85 46.46 46.71 44.20
  A 1.46 1.45 -21.3 0 0 45.68 43.75
  C 43.89 43.75 41.92 45.18 40.39 44.97
  Q 37.57 44.59 36.72 41.93
  A 0.98 0.98 0.0 0 1 38.39 40.99
  L 39.48 42.23
  A 1.36 1.35 68.0 0 0 40.56 42.69
  Q 41.20 42.66 42.92 41.86
  C 46.64 40.14 49.59 42.54 50.17 46.21
  Q 50.37 47.50 51.24 49.09
  A 0.41 0.41 0.0 0 1 50.88 49.70
  Z"
/>
</svg>
