<?xml version="1.0" encoding="UTF-8" standalone="no"?>
<!DOCTYPE svg PUBLIC "-//W3C//DTD SVG 1.1//EN" "http://www.w3.org/Graphics/SVG/1.1/DTD/svg11.dtd">
<svg xmlns="http://www.w3.org/2000/svg" version="1.1" viewBox="0.00 0.00 66.00 88.00">
<g stroke-width="2.00" fill="none" stroke-linecap="butt">
<path stroke="#26433a" vector-effect="non-scaling-stroke" d="
  M 33.42 86.61
  C 33.74 86.61 33.66 86.63 33.80 86.50
  Q 48.21 73.22 57.59 56.53
  C 65.54 42.38 67.90 24.71 55.94 12.12
  C 49.99 5.86 42.18 2.62 33.53 2.61
  C 24.88 2.60 17.06 5.82 11.10 12.06
  C -0.90 24.62 1.41 42.30 9.33 56.47
  Q 18.66 73.18 33.04 86.50
  C 33.18 86.63 33.10 86.61 33.42 86.61"
/>
<path stroke="#99a89d" vector-effect="non-scaling-stroke" d="
  M 38.33 28.75
  Q 39.74 30.14 40.51 30.55
  Q 44.96 32.88 47.08 34.45
  A 0.32 0.32 0.0 0 0 47.58 34.15
  Q 47.03 30.34 44.88 26.90
  A 0.37 0.37 0.0 0 1 45.19 26.33
  Q 51.54 26.27 51.16 19.96
  Q 51.08 18.65 49.72 17.30
  Q 48.36 15.95 47.05 15.88
  Q 40.74 15.53 40.71 21.88
  A 0.37 0.37 0.0 0 1 40.15 22.19
  Q 36.69 20.06 32.88 19.54
  A 0.32 0.32 0.0 0 0 32.58 20.04
  Q 34.17 22.15 36.52 26.58
  Q 36.93 27.36 38.33 28.75"
/>
<path stroke="#99a89d" vector-effect="non-scaling-stroke" d="
  M 19.51 47.46
  C 28.29 56.20 42.82 52.23 46.76 40.99
  A 0.99 0.97 -55.7 0 0 46.59 40.05
  Q 44.12 37.03 41.96 36.06
  Q 37.70 34.15 35.22 31.68
  Q 32.75 29.22 30.81 24.96
  Q 29.84 22.81 26.81 20.36
  A 0.99 0.97 -34.5 0 0 25.86 20.19
  C 14.64 24.18 10.74 38.73 19.51 47.46"
/>
<path stroke="#99a89d" vector-effect="non-scaling-stroke" d="
  M 48.14 21.02
  A 2.16 2.16 0.0 0 0 45.98 18.86
  A 2.16 2.16 0.0 0 0 43.82 21.02
  A 2.16 2.16 0.0 0 0 45.98 23.18
  A 2.16 2.16 0.0 0 0 48.14 21.02"
/>
</g>
<path fill="#192e27" d="
  M 33.80 88.00
  L 33.04 88.00
  C 16.71 73.17 -6.74 43.71 4.28 19.97
  C 9.44 8.86 19.78 2.13 31.75 1.39
  C 44.61 0.59 57.21 7.96 62.60 19.67
  C 73.74 43.83 50.37 72.93 33.80 88.00
  Z
  M 33.42 86.61
  C 33.74 86.61 33.66 86.63 33.80 86.50
  Q 48.21 73.22 57.59 56.53
  C 65.54 42.38 67.90 24.71 55.94 12.12
  C 49.99 5.86 42.18 2.62 33.53 2.61
  C 24.88 2.60 17.06 5.82 11.10 12.06
  C -0.90 24.62 1.41 42.30 9.33 56.47
  Q 18.66 73.18 33.04 86.50
  C 33.18 86.63 33.10 86.61 33.42 86.61
  Z"
/>
<path fill="#32574d" d="
  M 33.53 2.61
  C 42.18 2.62 49.99 5.86 55.94 12.12
  C 67.90 24.71 65.54 42.38 57.59 56.53
  Q 48.21 73.22 33.80 86.50
  C 33.66 86.63 33.74 86.61 33.42 86.61
  C 33.10 86.61 33.18 86.63 33.04 86.50
  Q 18.66 73.18 9.33 56.47
  C 1.41 42.30 -0.90 24.62 11.10 12.06
  C 17.06 5.82 24.88 2.60 33.53 2.61
  Z
  M 38.33 28.75
  Q 39.74 30.14 40.51 30.55
  Q 44.96 32.88 47.08 34.45
  A 0.32 0.32 0.0 0 0 47.58 34.15
  Q 47.03 30.34 44.88 26.90
  A 0.37 0.37 0.0 0 1 45.19 26.33
  Q 51.54 26.27 51.16 19.96
  Q 51.08 18.65 49.72 17.30
  Q 48.36 15.95 47.05 15.88
  Q 40.74 15.53 40.71 21.88
  A 0.37 0.37 0.0 0 1 40.15 22.19
  Q 36.69 20.06 32.88 19.54
  A 0.32 0.32 0.0 0 0 32.58 20.04
  Q 34.17 22.15 36.52 26.58
  Q 36.93 27.36 38.33 28.75
  Z
  M 19.51 47.46
  C 28.29 56.20 42.82 52.23 46.76 40.99
  A 0.99 0.97 -55.7 0 0 46.59 40.05
  Q 44.12 37.03 41.96 36.06
  Q 37.70 34.15 35.22 31.68
  Q 32.75 29.22 30.81 24.96
  Q 29.84 22.81 26.81 20.36
  A 0.99 0.97 -34.5 0 0 25.86 20.19
  C 14.64 24.18 10.74 38.73 19.51 47.46
  Z"
/>
<path fill="#fff8ec" d="
  M 49.72 17.30
  Q 51.08 18.65 51.16 19.96
  Q 51.54 26.27 45.19 26.33
  A 0.37 0.37 0.0 0 0 44.88 26.90
  Q 47.03 30.34 47.58 34.15
  A 0.32 0.32 0.0 0 1 47.08 34.45
  Q 44.96 32.88 40.51 30.55
  Q 39.74 30.14 38.33 28.75
  Q 36.93 27.36 36.52 26.58
  Q 34.17 22.15 32.58 20.04
  A 0.32 0.32 0.0 0 1 32.88 19.54
  Q 36.69 20.06 40.15 22.19
  A 0.37 0.37 0.0 0 0 40.71 21.88
  Q 40.74 15.53 47.05 15.88
  Q 48.36 15.95 49.72 17.30
  Z
  M 48.14 21.02
  A 2.16 2.16 0.0 0 0 45.98 18.86
  A 2.16 2.16 0.0 0 0 43.82 21.02
  A 2.16 2.16 0.0 0 0 45.98 23.18
  A 2.16 2.16 0.0 0 0 48.14 21.02
  Z"
/>
<circle fill="#32574d" cx="45.98" cy="21.02" r="2.16"/>
<path fill="#fff8ec" d="
  M 35.22 31.68
  Q 37.70 34.15 41.96 36.06
  Q 44.12 37.03 46.59 40.05
  A 0.99 0.97 -55.7 0 1 46.76 40.99
  C 42.82 52.23 28.29 56.20 19.51 47.46
  C 10.74 38.73 14.64 24.18 25.86 20.19
  A 0.99 0.97 -34.5 0 1 26.81 20.36
  Q 29.84 22.81 30.81 24.96
  Q 32.75 29.22 35.22 31.68
  Z"
/>
</svg>
