<?xml version="1.0" encoding="UTF-8" standalone="no"?>
<!DOCTYPE svg PUBLIC "-//W3C//DTD SVG 1.1//EN" "http://www.w3.org/Graphics/SVG/1.1/DTD/svg11.dtd">
<svg xmlns="http://www.w3.org/2000/svg" version="1.1" viewBox="0.00 0.00 66.00 88.00">
<g stroke-width="2.00" fill="none" stroke-linecap="butt">
<path stroke="#38728d" vector-effect="non-scaling-stroke" d="
  M 33.40 86.72
  Q 33.52 86.72 33.62 86.69
  Q 33.65 86.68 33.76 86.58
  Q 46.51 74.54 55.17 60.69
  C 65.00 44.97 69.49 25.26 54.91 11.10
  C 49.29 5.64 41.59 2.50 33.53 2.49
  C 25.47 2.48 17.76 5.59 12.12 11.04
  C -2.50 25.15 1.93 44.88 11.72 60.63
  Q 20.34 74.50 33.05 86.58
  Q 33.16 86.68 33.19 86.69
  Q 33.29 86.72 33.40 86.72"
/>
<path stroke="#a6c7d3" vector-effect="non-scaling-stroke" d="
  M 36.99 16.58
  L 34.70 23.63
  A 0.22 0.22 0.0 0 0 35.07 23.85
  C 37.42 21.36 39.98 19.32 37.14 16.55
  A 0.09 0.09 0.0 0 0 36.99 16.58"
/>
<path stroke="#a6c7d3" vector-effect="non-scaling-stroke" d="
  M 38.77 34.80
  A 0.36 0.36 0.0 0 1 38.06 34.81
  Q 37.22 30.76 38.26 26.98
  A 0.30 0.29 82.1 0 0 37.82 26.64
  Q 34.91 28.47 34.61 31.46
  A 0.23 0.22 35.4 0 1 34.18 31.53
  Q 31.67 26.30 32.42 20.83
  A 0.20 0.19 64.6 0 0 32.06 20.70
  Q 28.93 26.05 28.44 32.03
  A 0.32 0.32 0.0 0 1 27.88 32.22
  Q 26.42 30.53 25.57 30.08
  A 0.45 0.45 0.0 0 0 24.99 30.74
  C 26.50 32.85 25.61 39.20 25.31 42.22
  C 23.94 55.84 43.51 55.35 41.96 42.48
  Q 41.41 37.93 41.41 31.26
  A 0.27 0.27 0.0 0 0 40.95 31.07
  Q 39.13 32.90 38.77 34.80"
/>
<path stroke="#a6c7d3" vector-effect="non-scaling-stroke" d="
  M 36.15 36.09
  Q 35.84 38.75 34.71 40.41
  A 0.49 0.49 0.0 0 1 33.81 40.15
  Q 33.67 36.82 31.86 33.22
  A 0.28 0.28 0.0 0 0 31.34 33.30
  C 30.50 38.06 25.80 42.47 29.00 47.07
  C 31.20 50.21 35.78 50.13 38.15 47.14
  C 40.51 44.15 38.59 38.80 36.78 35.94
  A 0.34 0.34 0.0 0 0 36.15 36.09"
/>
</g>
<path fill="#234e61" d="
  M 33.78 88.00
  L 33.04 88.00
  C 21.72 77.71 12.19 65.75 5.68 51.55
  Q 2.13 43.82 1.58 34.90
  C 0.37 15.37 16.90 -0.39 36.66 1.49
  C 53.31 3.07 66.15 17.30 65.46 33.98
  Q 65.14 41.72 62.33 49.05
  C 56.69 63.76 45.40 77.48 33.78 88.00
  Z
  M 33.40 86.72
  Q 33.52 86.72 33.62 86.69
  Q 33.65 86.68 33.76 86.58
  Q 46.51 74.54 55.17 60.69
  C 65.00 44.97 69.49 25.26 54.91 11.10
  C 49.29 5.64 41.59 2.50 33.53 2.49
  C 25.47 2.48 17.76 5.59 12.12 11.04
  C -2.50 25.15 1.93 44.88 11.72 60.63
  Q 20.34 74.50 33.05 86.58
  Q 33.16 86.68 33.19 86.69
  Q 33.29 86.72 33.40 86.72
  Z"
/>
<path fill="#4d96b9" d="
  M 33.53 2.49
  C 41.59 2.50 49.29 5.64 54.91 11.10
  C 69.49 25.26 65.00 44.97 55.17 60.69
  Q 46.51 74.54 33.76 86.58
  Q 33.65 86.68 33.62 86.69
  Q 33.52 86.72 33.40 86.72
  Q 33.29 86.72 33.19 86.69
  Q 33.16 86.68 33.05 86.58
  Q 20.34 74.50 11.72 60.63
  C 1.93 44.88 -2.50 25.15 12.12 11.04
  C 17.76 5.59 25.47 2.48 33.53 2.49
  Z
  M 36.99 16.58
  L 34.70 23.63
  A 0.22 0.22 0.0 0 0 35.07 23.85
  C 37.42 21.36 39.98 19.32 37.14 16.55
  A 0.09 0.09 0.0 0 0 36.99 16.58
  Z
  M 38.77 34.80
  A 0.36 0.36 0.0 0 1 38.06 34.81
  Q 37.22 30.76 38.26 26.98
  A 0.30 0.29 82.1 0 0 37.82 26.64
  Q 34.91 28.47 34.61 31.46
  A 0.23 0.22 35.4 0 1 34.18 31.53
  Q 31.67 26.30 32.42 20.83
  A 0.20 0.19 64.6 0 0 32.06 20.70
  Q 28.93 26.05 28.44 32.03
  A 0.32 0.32 0.0 0 1 27.88 32.22
  Q 26.42 30.53 25.57 30.08
  A 0.45 0.45 0.0 0 0 24.99 30.74
  C 26.50 32.85 25.61 39.20 25.31 42.22
  C 23.94 55.84 43.51 55.35 41.96 42.48
  Q 41.41 37.93 41.41 31.26
  A 0.27 0.27 0.0 0 0 40.95 31.07
  Q 39.13 32.90 38.77 34.80
  Z"
/>
<path fill="#fff8ec" d="
  M 37.14 16.55
  C 39.98 19.32 37.42 21.36 35.07 23.85
  A 0.22 0.22 0.0 0 1 34.70 23.63
  L 36.99 16.58
  A 0.09 0.09 0.0 0 1 37.14 16.55
  Z"
/>
<path fill="#fff8ec" d="
  M 38.77 34.80
  Q 39.13 32.90 40.95 31.07
  A 0.27 0.27 0.0 0 1 41.41 31.26
  Q 41.41 37.93 41.96 42.48
  C 43.51 55.35 23.94 55.84 25.31 42.22
  C 25.61 39.20 26.50 32.85 24.99 30.74
  A 0.45 0.45 0.0 0 1 25.57 30.08
  Q 26.42 30.53 27.88 32.22
  A 0.32 0.32 0.0 0 0 28.44 32.03
  Q 28.93 26.05 32.06 20.70
  A 0.20 0.19 64.6 0 1 32.42 20.83
  Q 31.67 26.30 34.18 31.53
  A 0.23 0.22 35.4 0 0 34.61 31.46
  Q 34.91 28.47 37.82 26.64
  A 0.30 0.29 82.1 0 1 38.26 26.98
  Q 37.22 30.76 38.06 34.81
  A 0.36 0.36 0.0 0 0 38.77 34.80
  Z
  M 36.15 36.09
  Q 35.84 38.75 34.71 40.41
  A 0.49 0.49 0.0 0 1 33.81 40.15
  Q 33.67 36.82 31.86 33.22
  A 0.28 0.28 0.0 0 0 31.34 33.30
  C 30.50 38.06 25.80 42.47 29.00 47.07
  C 31.20 50.21 35.78 50.13 38.15 47.14
  C 40.51 44.15 38.59 38.80 36.78 35.94
  A 0.34 0.34 0.0 0 0 36.15 36.09
  Z"
/>
<path fill="#4d96b9" d="
  M 36.78 35.94
  C 38.59 38.80 40.51 44.15 38.15 47.14
  C 35.78 50.13 31.20 50.21 29.00 47.07
  C 25.80 42.47 30.50 38.06 31.34 33.30
  A 0.28 0.28 0.0 0 1 31.86 33.22
  Q 33.67 36.82 33.81 40.15
  A 0.49 0.49 0.0 0 0 34.71 40.41
  Q 35.84 38.75 36.15 36.09
  A 0.34 0.34 0.0 0 1 36.78 35.94
  Z"
/>
</svg>
