<?xml version="1.0" encoding="UTF-8" standalone="no"?>
<!DOCTYPE svg PUBLIC "-//W3C//DTD SVG 1.1//EN" "http://www.w3.org/Graphics/SVG/1.1/DTD/svg11.dtd">
<svg xmlns="http://www.w3.org/2000/svg" version="1.1" viewBox="0.00 0.00 66.00 88.00">
<g stroke-width="2.00" fill="none" stroke-linecap="butt">
<path stroke="#574f7b" vector-effect="non-scaling-stroke" d="
  M 33.40 86.66
  Q 33.47 86.66 33.52 86.65
  A 0.22 0.00 -41.0 0 0 33.68 86.52
  Q 48.51 72.95 57.70 56.25
  C 64.57 43.77 67.58 27.95 59.04 15.94
  C 53.10 7.57 44.05 2.53 33.53 2.51
  C 23.01 2.50 13.94 7.51 7.98 15.86
  C -0.60 27.85 2.37 43.68 9.20 56.18
  Q 18.34 72.91 33.13 86.52
  A 0.22 0.00 41.2 0 0 33.29 86.65
  Q 33.34 86.66 33.40 86.66"
/>
<path stroke="#bab0c7" vector-effect="non-scaling-stroke" d="
  M 35.72 15.71
  Q 28.84 15.70 26.45 22.48
  C 24.33 28.49 32.37 31.75 34.55 26.27
  Q 35.74 23.28 32.81 20.99
  A 0.80 0.80 0.0 0 1 32.58 20.00
  C 33.27 18.57 34.36 17.57 35.93 16.35
  A 0.36 0.35 -63.5 0 0 35.72 15.71"
/>
<path stroke="#bab0c7" vector-effect="non-scaling-stroke" d="
  M 15.25 25.11
  Q 13.13 31.70 18.89 36.07
  C 24.00 39.95 29.60 33.25 25.01 29.47
  Q 22.51 27.41 19.42 29.52
  A 0.81 0.81 0.0 0 1 18.40 29.43
  C 17.24 28.33 16.62 26.98 15.93 25.10
  A 0.36 0.36 0.0 0 0 15.25 25.11"
/>
<path stroke="#bab0c7" vector-effect="non-scaling-stroke" d="
  M 50.99 32.24
  Q 48.86 25.65 41.63 25.47
  C 35.22 25.31 34.60 34.02 40.52 34.40
  Q 43.75 34.61 45.03 31.10
  A 0.81 0.81 0.0 0 1 45.91 30.57
  C 47.49 30.78 48.79 31.52 50.44 32.64
  A 0.36 0.36 0.0 0 0 50.99 32.24"
/>
<path stroke="#bab0c7" vector-effect="non-scaling-stroke" d="
  M 40.06 51.85
  Q 45.64 47.75 43.53 40.82
  C 41.66 34.68 33.19 36.84 34.69 42.59
  Q 35.51 45.72 39.26 45.83
  A 0.81 0.81 0.0 0 1 40.04 46.50
  C 40.33 48.07 40.05 49.53 39.50 51.46
  A 0.36 0.36 0.0 0 0 40.06 51.85"
/>
<path stroke="#bab0c7" vector-effect="non-scaling-stroke" d="
  M 17.95 47.45
  Q 23.57 51.46 29.46 47.31
  C 34.69 43.63 30.02 36.29 25.05 39.50
  Q 22.34 41.25 23.40 44.82
  A 0.81 0.80 -22.7 0 1 23.01 45.77
  C 21.61 46.53 20.14 46.72 18.15 46.80
  A 0.36 0.35 -28.1 0 0 17.95 47.45"
/>
<path stroke="#bab0c7" vector-effect="non-scaling-stroke" d="
  M 32.26 24.81
  A 1.73 1.73 0.0 0 0 30.53 23.08
  A 1.73 1.73 0.0 0 0 28.80 24.81
  A 1.73 1.73 0.0 0 0 30.53 26.54
  A 1.73 1.73 0.0 0 0 32.26 24.81"
/>
<path stroke="#bab0c7" vector-effect="non-scaling-stroke" d="
  M 24.07 32.78
  A 1.79 1.79 0.0 0 0 22.28 30.99
  A 1.79 1.79 0.0 0 0 20.49 32.78
  A 1.79 1.79 0.0 0 0 22.28 34.57
  A 1.79 1.79 0.0 0 0 24.07 32.78"
/>
<path stroke="#bab0c7" vector-effect="non-scaling-stroke" d="
  M 42.56 30.00
  A 1.77 1.77 0.0 0 0 40.79 28.23
  A 1.77 1.77 0.0 0 0 39.02 30.00
  A 1.77 1.77 0.0 0 0 40.79 31.77
  A 1.77 1.77 0.0 0 0 42.56 30.00"
/>
<path stroke="#bab0c7" vector-effect="non-scaling-stroke" d="
  M 40.61 41.49
  A 1.73 1.73 0.0 0 0 38.88 39.76
  A 1.73 1.73 0.0 0 0 37.15 41.49
  A 1.73 1.73 0.0 0 0 38.88 43.22
  A 1.73 1.73 0.0 0 0 40.61 41.49"
/>
<path stroke="#bab0c7" vector-effect="non-scaling-stroke" d="
  M 29.19 43.25
  A 1.73 1.73 0.0 0 0 27.46 41.52
  A 1.73 1.73 0.0 0 0 25.73 43.25
  A 1.73 1.73 0.0 0 0 27.46 44.98
  A 1.73 1.73 0.0 0 0 29.19 43.25"
/>
</g>
<path fill="#3a3555" d="
  M 33.78 88.00
  L 33.12 88.00
  Q 15.61 72.42 6.12 52.87
  Q 4.11 48.73 2.45 41.43
  C -0.60 28.01 3.71 15.31 14.87 7.19
  C 23.01 1.28 34.99 -0.50 44.71 3.35
  Q 61.04 9.82 64.85 26.56
  C 67.22 37.01 63.31 49.02 57.55 58.84
  Q 47.97 75.17 33.78 88.00
  Z
  M 33.40 86.66
  Q 33.47 86.66 33.52 86.65
  A 0.22 0.00 -41.0 0 0 33.68 86.52
  Q 48.51 72.95 57.70 56.25
  C 64.57 43.77 67.58 27.95 59.04 15.94
  C 53.10 7.57 44.05 2.53 33.53 2.51
  C 23.01 2.50 13.94 7.51 7.98 15.86
  C -0.60 27.85 2.37 43.68 9.20 56.18
  Q 18.34 72.91 33.13 86.52
  A 0.22 0.00 41.2 0 0 33.29 86.65
  Q 33.34 86.66 33.40 86.66
  Z"
/>
<path fill="#7468a1" d="
  M 33.53 2.51
  C 44.05 2.53 53.10 7.57 59.04 15.94
  C 67.58 27.95 64.57 43.77 57.70 56.25
  Q 48.51 72.95 33.68 86.52
  A 0.22 0.00 -41.0 0 1 33.52 86.65
  Q 33.47 86.66 33.40 86.66
  Q 33.34 86.66 33.29 86.65
  A 0.22 0.00 41.2 0 1 33.13 86.52
  Q 18.34 72.91 9.20 56.18
  C 2.37 43.68 -0.60 27.85 7.98 15.86
  C 13.94 7.51 23.01 2.50 33.53 2.51
  Z
  M 35.72 15.71
  Q 28.84 15.70 26.45 22.48
  C 24.33 28.49 32.37 31.75 34.55 26.27
  Q 35.74 23.28 32.81 20.99
  A 0.80 0.80 0.0 0 1 32.58 20.00
  C 33.27 18.57 34.36 17.57 35.93 16.35
  A 0.36 0.35 -63.5 0 0 35.72 15.71
  Z
  M 15.25 25.11
  Q 13.13 31.70 18.89 36.07
  C 24.00 39.95 29.60 33.25 25.01 29.47
  Q 22.51 27.41 19.42 29.52
  A 0.81 0.81 0.0 0 1 18.40 29.43
  C 17.24 28.33 16.62 26.98 15.93 25.10
  A 0.36 0.36 0.0 0 0 15.25 25.11
  Z
  M 50.99 32.24
  Q 48.86 25.65 41.63 25.47
  C 35.22 25.31 34.60 34.02 40.52 34.40
  Q 43.75 34.61 45.03 31.10
  A 0.81 0.81 0.0 0 1 45.91 30.57
  C 47.49 30.78 48.79 31.52 50.44 32.64
  A 0.36 0.36 0.0 0 0 50.99 32.24
  Z
  M 40.06 51.85
  Q 45.64 47.75 43.53 40.82
  C 41.66 34.68 33.19 36.84 34.69 42.59
  Q 35.51 45.72 39.26 45.83
  A 0.81 0.81 0.0 0 1 40.04 46.50
  C 40.33 48.07 40.05 49.53 39.50 51.46
  A 0.36 0.36 0.0 0 0 40.06 51.85
  Z
  M 17.95 47.45
  Q 23.57 51.46 29.46 47.31
  C 34.69 43.63 30.02 36.29 25.05 39.50
  Q 22.34 41.25 23.40 44.82
  A 0.81 0.80 -22.7 0 1 23.01 45.77
  C 21.61 46.53 20.14 46.72 18.15 46.80
  A 0.36 0.35 -28.1 0 0 17.95 47.45
  Z"
/>
<path fill="#fff8ec" d="
  M 35.93 16.35
  C 34.36 17.57 33.27 18.57 32.58 20.00
  A 0.80 0.80 0.0 0 0 32.81 20.99
  Q 35.74 23.28 34.55 26.27
  C 32.37 31.75 24.33 28.49 26.45 22.48
  Q 28.84 15.70 35.72 15.71
  A 0.36 0.35 -63.5 0 1 35.93 16.35
  Z
  M 32.26 24.81
  A 1.73 1.73 0.0 0 0 30.53 23.08
  A 1.73 1.73 0.0 0 0 28.80 24.81
  A 1.73 1.73 0.0 0 0 30.53 26.54
  A 1.73 1.73 0.0 0 0 32.26 24.81
  Z"
/>
<circle fill="#7468a1" cx="30.53" cy="24.81" r="1.73"/>
<path fill="#fff8ec" d="
  M 15.25 25.11
  A 0.36 0.36 0.0 0 1 15.93 25.10
  C 16.62 26.98 17.24 28.33 18.40 29.43
  A 0.81 0.81 0.0 0 0 19.42 29.52
  Q 22.51 27.41 25.01 29.47
  C 29.60 33.25 24.00 39.95 18.89 36.07
  Q 13.13 31.70 15.25 25.11
  Z
  M 24.07 32.78
  A 1.79 1.79 0.0 0 0 22.28 30.99
  A 1.79 1.79 0.0 0 0 20.49 32.78
  A 1.79 1.79 0.0 0 0 22.28 34.57
  A 1.79 1.79 0.0 0 0 24.07 32.78
  Z"
/>
<path fill="#fff8ec" d="
  M 50.99 32.24
  A 0.36 0.36 0.0 0 1 50.44 32.64
  C 48.79 31.52 47.49 30.78 45.91 30.57
  A 0.81 0.81 0.0 0 0 45.03 31.10
  Q 43.75 34.61 40.52 34.40
  C 34.60 34.02 35.22 25.31 41.63 25.47
  Q 48.86 25.65 50.99 32.24
  Z
  M 42.56 30.00
  A 1.77 1.77 0.0 0 0 40.79 28.23
  A 1.77 1.77 0.0 0 0 39.02 30.00
  A 1.77 1.77 0.0 0 0 40.79 31.77
  A 1.77 1.77 0.0 0 0 42.56 30.00
  Z"
/>
<circle fill="#7468a1" cx="40.79" cy="30.00" r="1.77"/>
<circle fill="#7468a1" cx="22.28" cy="32.78" r="1.79"/>
<path fill="#fff8ec" d="
  M 40.06 51.85
  A 0.36 0.36 0.0 0 1 39.50 51.46
  C 40.05 49.53 40.33 48.07 40.04 46.50
  A 0.81 0.81 0.0 0 0 39.26 45.83
  Q 35.51 45.72 34.69 42.59
  C 33.19 36.84 41.66 34.68 43.53 40.82
  Q 45.64 47.75 40.06 51.85
  Z
  M 40.61 41.49
  A 1.73 1.73 0.0 0 0 38.88 39.76
  A 1.73 1.73 0.0 0 0 37.15 41.49
  A 1.73 1.73 0.0 0 0 38.88 43.22
  A 1.73 1.73 0.0 0 0 40.61 41.49
  Z"
/>
<path fill="#fff8ec" d="
  M 17.95 47.45
  A 0.36 0.35 -28.1 0 1 18.15 46.80
  C 20.14 46.72 21.61 46.53 23.01 45.77
  A 0.81 0.80 -22.7 0 0 23.40 44.82
  Q 22.34 41.25 25.05 39.50
  C 30.02 36.29 34.69 43.63 29.46 47.31
  Q 23.57 51.46 17.95 47.45
  Z
  M 29.19 43.25
  A 1.73 1.73 0.0 0 0 27.46 41.52
  A 1.73 1.73 0.0 0 0 25.73 43.25
  A 1.73 1.73 0.0 0 0 27.46 44.98
  A 1.73 1.73 0.0 0 0 29.19 43.25
  Z"
/>
<circle fill="#7468a1" cx="38.88" cy="41.49" r="1.73"/>
<circle fill="#7468a1" cx="27.46" cy="43.25" r="1.73"/>
</svg>
