<?xml version="1.0" encoding="UTF-8" standalone="no"?>
<!DOCTYPE svg PUBLIC "-//W3C//DTD SVG 1.1//EN" "http://www.w3.org/Graphics/SVG/1.1/DTD/svg11.dtd">
<svg xmlns="http://www.w3.org/2000/svg" version="1.1" viewBox="0.00 0.00 66.00 88.00">
<g stroke-width="2.00" fill="none" stroke-linecap="butt">
<path stroke="#38728d" vector-effect="non-scaling-stroke" d="
  M 33.40 86.72
  Q 33.51 86.72 33.62 86.69
  Q 33.63 86.69 33.76 86.56
  Q 47.66 73.47 56.48 58.51
  C 63.76 46.17 68.20 29.35 59.48 16.53
  C 53.56 7.82 44.31 2.51 33.53 2.50
  C 22.76 2.48 13.50 7.76 7.55 16.45
  C -1.21 29.24 3.17 46.08 10.42 58.44
  Q 19.19 73.43 33.05 86.56
  Q 33.18 86.69 33.19 86.69
  Q 33.30 86.72 33.40 86.72"
/>
<path stroke="#a6c7d3" vector-effect="non-scaling-stroke" d="
  M 21.38 19.25
  A 0.33 0.33 0.0 0 0 21.12 19.38
  L 15.07 27.20
  A 0.33 0.33 0.0 0 0 15.33 27.73
  L 22.06 27.73
  A 0.33 0.33 0.0 0 0 22.35 27.57
  L 26.86 19.75
  A 0.33 0.33 0.0 0 0 26.58 19.25
  L 21.38 19.25"
/>
<path stroke="#a6c7d3" vector-effect="non-scaling-stroke" d="
  M 36.15 19.41
  A 0.31 0.31 0.0 0 0 35.88 19.25
  L 30.55 19.25
  A 0.31 0.31 0.0 0 0 30.28 19.41
  L 25.75 27.27
  A 0.31 0.31 0.0 0 0 26.02 27.73
  L 40.41 27.73
  A 0.31 0.31 0.0 0 0 40.68 27.27
  L 36.15 19.41"
/>
<path stroke="#a6c7d3" vector-effect="non-scaling-stroke" d="
  M 39.63 19.26
  A 0.33 0.33 0.0 0 0 39.35 19.75
  L 43.85 27.56
  A 0.33 0.33 0.0 0 0 44.14 27.73
  L 50.67 27.73
  A 0.33 0.33 0.0 0 0 50.94 27.21
  L 45.34 19.40
  A 0.33 0.33 0.0 0 0 45.07 19.26
  L 39.63 19.26"
/>
<path stroke="#a6c7d3" vector-effect="non-scaling-stroke" d="
  M 28.92 44.59
  L 22.64 30.81
  A 0.94 0.93 77.7 0 0 21.79 30.26
  L 15.97 30.26
  A 0.30 0.30 0.0 0 0 15.75 30.77
  L 28.62 44.79
  A 0.18 0.18 0.0 0 0 28.92 44.59"
/>
<path stroke="#a6c7d3" vector-effect="non-scaling-stroke" d="
  M 40.90 30.74
  A 0.34 0.34 0.0 0 0 40.59 30.27
  L 25.93 30.27
  A 0.34 0.34 0.0 0 0 25.62 30.74
  L 32.95 47.76
  A 0.34 0.34 0.0 0 0 33.57 47.76
  L 40.90 30.74"
/>
<path stroke="#a6c7d3" vector-effect="non-scaling-stroke" d="
  M 37.41 44.63
  A 0.18 0.18 0.0 0 0 37.71 44.83
  L 50.66 30.79
  A 0.30 0.30 0.0 0 0 50.44 30.28
  L 44.60 30.26
  A 0.94 0.93 -77.5 0 0 43.74 30.81
  L 37.41 44.63"
/>
</g>
<path fill="#234e61" d="
  M 33.80 88.00
  L 33.04 88.00
  C 21.80 77.79 12.03 65.61 5.65 51.56
  Q 2.10 43.76 1.57 34.55
  C 0.92 23.13 6.56 12.42 16.06 6.41
  C 32.31 -3.86 53.81 1.88 62.47 19.42
  C 66.64 27.85 66.10 38.24 63.04 47.02
  C 57.61 62.66 45.94 76.95 33.80 88.00
  Z
  M 33.40 86.72
  Q 33.51 86.72 33.62 86.69
  Q 33.63 86.69 33.76 86.56
  Q 47.66 73.47 56.48 58.51
  C 63.76 46.17 68.20 29.35 59.48 16.53
  C 53.56 7.82 44.31 2.51 33.53 2.50
  C 22.76 2.48 13.50 7.76 7.55 16.45
  C -1.21 29.24 3.17 46.08 10.42 58.44
  Q 19.19 73.43 33.05 86.56
  Q 33.18 86.69 33.19 86.69
  Q 33.30 86.72 33.40 86.72
  Z"
/>
<path fill="#4d96b9" d="
  M 33.53 2.50
  C 44.31 2.51 53.56 7.82 59.48 16.53
  C 68.20 29.35 63.76 46.17 56.48 58.51
  Q 47.66 73.47 33.76 86.56
  Q 33.63 86.69 33.62 86.69
  Q 33.51 86.72 33.40 86.72
  Q 33.30 86.72 33.19 86.69
  Q 33.18 86.69 33.05 86.56
  Q 19.19 73.43 10.42 58.44
  C 3.17 46.08 -1.21 29.24 7.55 16.45
  C 13.50 7.76 22.76 2.48 33.53 2.50
  Z
  M 21.38 19.25
  A 0.33 0.33 0.0 0 0 21.12 19.38
  L 15.07 27.20
  A 0.33 0.33 0.0 0 0 15.33 27.73
  L 22.06 27.73
  A 0.33 0.33 0.0 0 0 22.35 27.57
  L 26.86 19.75
  A 0.33 0.33 0.0 0 0 26.58 19.25
  L 21.38 19.25
  Z
  M 36.15 19.41
  A 0.31 0.31 0.0 0 0 35.88 19.25
  L 30.55 19.25
  A 0.31 0.31 0.0 0 0 30.28 19.41
  L 25.75 27.27
  A 0.31 0.31 0.0 0 0 26.02 27.73
  L 40.41 27.73
  A 0.31 0.31 0.0 0 0 40.68 27.27
  L 36.15 19.41
  Z
  M 39.63 19.26
  A 0.33 0.33 0.0 0 0 39.35 19.75
  L 43.85 27.56
  A 0.33 0.33 0.0 0 0 44.14 27.73
  L 50.67 27.73
  A 0.33 0.33 0.0 0 0 50.94 27.21
  L 45.34 19.40
  A 0.33 0.33 0.0 0 0 45.07 19.26
  L 39.63 19.26
  Z
  M 28.92 44.59
  L 22.64 30.81
  A 0.94 0.93 77.7 0 0 21.79 30.26
  L 15.97 30.26
  A 0.30 0.30 0.0 0 0 15.75 30.77
  L 28.62 44.79
  A 0.18 0.18 0.0 0 0 28.92 44.59
  Z
  M 40.90 30.74
  A 0.34 0.34 0.0 0 0 40.59 30.27
  L 25.93 30.27
  A 0.34 0.34 0.0 0 0 25.62 30.74
  L 32.95 47.76
  A 0.34 0.34 0.0 0 0 33.57 47.76
  L 40.90 30.74
  Z
  M 37.41 44.63
  A 0.18 0.18 0.0 0 0 37.71 44.83
  L 50.66 30.79
  A 0.30 0.30 0.0 0 0 50.44 30.28
  L 44.60 30.26
  A 0.94 0.93 -77.5 0 0 43.74 30.81
  L 37.41 44.63
  Z"
/>
<path fill="#fff8ec" d="
  M 21.38 19.25
  L 26.58 19.25
  A 0.33 0.33 0.0 0 1 26.86 19.75
  L 22.35 27.57
  A 0.33 0.33 0.0 0 1 22.06 27.73
  L 15.33 27.73
  A 0.33 0.33 0.0 0 1 15.07 27.20
  L 21.12 19.38
  A 0.33 0.33 0.0 0 1 21.38 19.25
  Z"
/>
<path fill="#fff8ec" d="
  M 36.15 19.41
  L 40.68 27.27
  A 0.31 0.31 0.0 0 1 40.41 27.73
  L 26.02 27.73
  A 0.31 0.31 0.0 0 1 25.75 27.27
  L 30.28 19.41
  A 0.31 0.31 0.0 0 1 30.55 19.25
  L 35.88 19.25
  A 0.31 0.31 0.0 0 1 36.15 19.41
  Z"
/>
<path fill="#fff8ec" d="
  M 39.63 19.26
  L 45.07 19.26
  A 0.33 0.33 0.0 0 1 45.34 19.40
  L 50.94 27.21
  A 0.33 0.33 0.0 0 1 50.67 27.73
  L 44.14 27.73
  A 0.33 0.33 0.0 0 1 43.85 27.56
  L 39.35 19.75
  A 0.33 0.33 0.0 0 1 39.63 19.26
  Z"
/>
<path fill="#fff8ec" d="
  M 28.62 44.79
  L 15.75 30.77
  A 0.30 0.30 0.0 0 1 15.97 30.26
  L 21.79 30.26
  A 0.94 0.93 77.7 0 1 22.64 30.81
  L 28.92 44.59
  A 0.18 0.18 0.0 0 1 28.62 44.79
  Z"
/>
<path fill="#fff8ec" d="
  M 40.90 30.74
  L 33.57 47.76
  A 0.34 0.34 0.0 0 1 32.95 47.76
  L 25.62 30.74
  A 0.34 0.34 0.0 0 1 25.93 30.27
  L 40.59 30.27
  A 0.34 0.34 0.0 0 1 40.90 30.74
  Z"
/>
<path fill="#fff8ec" d="
  M 37.41 44.63
  L 43.74 30.81
  A 0.94 0.93 -77.5 0 1 44.60 30.26
  L 50.44 30.28
  A 0.30 0.30 0.0 0 1 50.66 30.79
  L 37.71 44.83
  A 0.18 0.18 0.0 0 1 37.41 44.63
  Z"
/>
</svg>
