<?xml version="1.0" encoding="UTF-8" standalone="no"?>
<!DOCTYPE svg PUBLIC "-//W3C//DTD SVG 1.1//EN" "http://www.w3.org/Graphics/SVG/1.1/DTD/svg11.dtd">
<svg xmlns="http://www.w3.org/2000/svg" version="1.1" viewBox="0.00 0.00 66.00 88.00">
<g stroke-width="2.00" fill="none" stroke-linecap="butt">
<path stroke="#802436" vector-effect="non-scaling-stroke" d="
  M 33.42 86.69
  Q 33.53 86.69 33.62 86.67
  Q 33.71 86.65 33.79 86.57
  C 50.44 71.19 75.91 38.66 58.52 15.24
  Q 49.45 3.03 33.75 2.47
  Q 33.63 2.46 33.51 2.46
  Q 33.39 2.46 33.27 2.47
  Q 17.57 3.00 8.47 15.19
  C -8.97 38.57 16.44 71.15 33.05 86.57
  Q 33.13 86.65 33.22 86.67
  Q 33.32 86.69 33.42 86.69"
/>
<path stroke="#d4959a" vector-effect="non-scaling-stroke" d="
  M 32.70 52.27
  Q 33.02 52.27 33.31 52.20
  A 0.76 0.76 0.0 0 0 33.89 51.46
  L 33.89 45.90
  A 0.26 0.25 90.0 0 1 34.14 45.64
  L 34.55 45.64
  A 0.43 0.42 -90.0 0 1 34.97 46.07
  L 34.97 51.30
  A 0.63 0.62 -15.0 0 0 35.91 51.84
  L 36.76 51.35
  A 1.31 1.31 0.0 0 0 37.41 50.22
  L 37.41 44.59
  A 0.26 0.26 0.0 0 1 37.67 44.33
  L 37.98 44.33
  A 0.56 0.56 0.0 0 1 38.54 44.89
  L 38.54 49.80
  A 0.36 0.35 -15.0 0 0 39.07 50.10
  L 39.70 49.74
  A 1.80 1.78 -15.3 0 0 40.59 48.20
  L 40.59 43.83
  A 0.21 0.21 0.0 0 1 40.80 43.62
  L 44.39 43.62
  A 1.23 1.20 17.7 0 0 45.37 43.13
  Q 53.25 32.49 47.20 23.23
  C 44.15 18.58 38.21 15.79 32.70 15.79
  C 27.19 15.79 21.25 18.58 18.20 23.23
  Q 12.15 32.49 20.03 43.13
  A 1.23 1.20 -17.7 0 0 21.01 43.62
  L 24.60 43.62
  A 0.21 0.21 0.0 0 1 24.81 43.83
  L 24.81 48.20
  A 1.80 1.78 15.3 0 0 25.70 49.74
  L 26.33 50.10
  A 0.36 0.35 15.0 0 0 26.86 49.80
  L 26.86 44.89
  A 0.56 0.56 0.0 0 1 27.42 44.33
  L 27.73 44.33
  A 0.26 0.26 0.0 0 1 27.99 44.59
  L 27.99 50.22
  A 1.31 1.31 0.0 0 0 28.64 51.35
  L 29.49 51.84
  A 0.63 0.62 15.0 0 0 30.43 51.30
  L 30.43 46.07
  A 0.43 0.42 90.0 0 1 30.85 45.64
  L 31.26 45.64
  A 0.26 0.25 90.0 0 1 31.51 45.90
  L 31.51 51.46
  A 0.76 0.76 0.0 0 0 32.10 52.20
  Q 32.39 52.27 32.70 52.27"
/>
<path stroke="#d4959a" vector-effect="non-scaling-stroke" d="
  M 23.67 37.04
  L 28.43 36.83
  A 2.04 2.04 0.0 0 0 30.37 34.70
  L 30.34 34.09
  A 6.13 4.40 87.4 0 0 25.67 28.16
  L 25.63 28.17
  A 6.13 4.40 87.4 0 0 21.51 34.49
  L 21.54 35.10
  A 2.04 2.04 0.0 0 0 23.67 37.04"
/>
<path stroke="#d4959a" vector-effect="non-scaling-stroke" d="
  M 36.96 36.88
  L 41.84 37.05
  A 1.89 1.89 0.0 0 0 43.79 35.23
  L 43.82 34.53
  A 5.99 4.28 -88.0 0 0 39.75 28.39
  L 39.65 28.39
  A 5.99 4.28 -88.0 0 0 35.16 34.23
  L 35.14 34.93
  A 1.89 1.89 0.0 0 0 36.96 36.88"
/>
</g>
<path fill="#581723" d="
  M 33.81 88.00
  L 33.11 88.00
  Q 16.24 72.96 6.69 54.04
  Q 3.53 47.78 2.04 39.24
  C 0.13 28.31 3.31 17.56 11.47 9.99
  C 27.06 -4.48 52.48 -0.32 62.20 18.89
  C 74.40 43.02 50.38 72.92 33.81 88.00
  Z
  M 33.42 86.69
  Q 33.53 86.69 33.62 86.67
  Q 33.71 86.65 33.79 86.57
  C 50.44 71.19 75.91 38.66 58.52 15.24
  Q 49.45 3.03 33.75 2.47
  Q 33.63 2.46 33.51 2.46
  Q 33.39 2.46 33.27 2.47
  Q 17.57 3.00 8.47 15.19
  C -8.97 38.57 16.44 71.15 33.05 86.57
  Q 33.13 86.65 33.22 86.67
  Q 33.32 86.69 33.42 86.69
  Z"
/>
<path fill="#a83148" d="
  M 33.51 2.46
  Q 33.63 2.46 33.75 2.47
  Q 49.45 3.03 58.52 15.24
  C 75.91 38.66 50.44 71.19 33.79 86.57
  Q 33.71 86.65 33.62 86.67
  Q 33.53 86.69 33.42 86.69
  Q 33.32 86.69 33.22 86.67
  Q 33.13 86.65 33.05 86.57
  C 16.44 71.15 -8.97 38.57 8.47 15.19
  Q 17.57 3.00 33.27 2.47
  Q 33.39 2.46 33.51 2.46
  Z
  M 32.70 52.27
  Q 33.02 52.27 33.31 52.20
  A 0.76 0.76 0.0 0 0 33.89 51.46
  L 33.89 45.90
  A 0.26 0.25 90.0 0 1 34.14 45.64
  L 34.55 45.64
  A 0.43 0.42 -90.0 0 1 34.97 46.07
  L 34.97 51.30
  A 0.63 0.62 -15.0 0 0 35.91 51.84
  L 36.76 51.35
  A 1.31 1.31 0.0 0 0 37.41 50.22
  L 37.41 44.59
  A 0.26 0.26 0.0 0 1 37.67 44.33
  L 37.98 44.33
  A 0.56 0.56 0.0 0 1 38.54 44.89
  L 38.54 49.80
  A 0.36 0.35 -15.0 0 0 39.07 50.10
  L 39.70 49.74
  A 1.80 1.78 -15.3 0 0 40.59 48.20
  L 40.59 43.83
  A 0.21 0.21 0.0 0 1 40.80 43.62
  L 44.39 43.62
  A 1.23 1.20 17.7 0 0 45.37 43.13
  Q 53.25 32.49 47.20 23.23
  C 44.15 18.58 38.21 15.79 32.70 15.79
  C 27.19 15.79 21.25 18.58 18.20 23.23
  Q 12.15 32.49 20.03 43.13
  A 1.23 1.20 -17.7 0 0 21.01 43.62
  L 24.60 43.62
  A 0.21 0.21 0.0 0 1 24.81 43.83
  L 24.81 48.20
  A 1.80 1.78 15.3 0 0 25.70 49.74
  L 26.33 50.10
  A 0.36 0.35 15.0 0 0 26.86 49.80
  L 26.86 44.89
  A 0.56 0.56 0.0 0 1 27.42 44.33
  L 27.73 44.33
  A 0.26 0.26 0.0 0 1 27.99 44.59
  L 27.99 50.22
  A 1.31 1.31 0.0 0 0 28.64 51.35
  L 29.49 51.84
  A 0.63 0.62 15.0 0 0 30.43 51.30
  L 30.43 46.07
  A 0.43 0.42 90.0 0 1 30.85 45.64
  L 31.26 45.64
  A 0.26 0.25 90.0 0 1 31.51 45.90
  L 31.51 51.46
  A 0.76 0.76 0.0 0 0 32.10 52.20
  Q 32.39 52.27 32.70 52.27
  Z"
/>
<path fill="#fff8ec" d="
  M 32.70 15.79
  C 38.21 15.79 44.15 18.58 47.20 23.23
  Q 53.25 32.49 45.37 43.13
  A 1.23 1.20 17.7 0 1 44.39 43.62
  L 40.80 43.62
  A 0.21 0.21 0.0 0 0 40.59 43.83
  L 40.59 48.20
  A 1.80 1.78 -15.3 0 1 39.70 49.74
  L 39.07 50.10
  A 0.36 0.35 -15.0 0 1 38.54 49.80
  L 38.54 44.89
  A 0.56 0.56 0.0 0 0 37.98 44.33
  L 37.67 44.33
  A 0.26 0.26 0.0 0 0 37.41 44.59
  L 37.41 50.22
  A 1.31 1.31 0.0 0 1 36.76 51.35
  L 35.91 51.84
  A 0.63 0.62 -15.0 0 1 34.97 51.30
  L 34.97 46.07
  A 0.43 0.42 -90.0 0 0 34.55 45.64
  L 34.14 45.64
  A 0.26 0.25 -90.0 0 0 33.89 45.90
  L 33.89 51.46
  A 0.76 0.76 0.0 0 1 33.31 52.20
  Q 33.02 52.27 32.70 52.27
  Q 32.39 52.27 32.10 52.20
  A 0.76 0.76 0.0 0 1 31.51 51.46
  L 31.51 45.90
  A 0.26 0.25 90.0 0 0 31.26 45.64
  L 30.85 45.64
  A 0.43 0.42 90.0 0 0 30.43 46.07
  L 30.43 51.30
  A 0.63 0.62 15.0 0 1 29.49 51.84
  L 28.64 51.35
  A 1.31 1.31 0.0 0 1 27.99 50.22
  L 27.99 44.59
  A 0.26 0.26 0.0 0 0 27.73 44.33
  L 27.42 44.33
  A 0.56 0.56 0.0 0 0 26.86 44.89
  L 26.86 49.80
  A 0.36 0.35 15.0 0 1 26.33 50.10
  L 25.70 49.74
  A 1.80 1.78 15.3 0 1 24.81 48.20
  L 24.81 43.83
  A 0.21 0.21 0.0 0 0 24.60 43.62
  L 21.01 43.62
  A 1.23 1.20 -17.7 0 1 20.03 43.13
  Q 12.15 32.49 18.20 23.23
  C 21.25 18.58 27.19 15.79 32.70 15.79
  Z
  M 23.67 37.04
  L 28.43 36.83
  A 2.04 2.04 0.0 0 0 30.37 34.70
  L 30.34 34.09
  A 6.13 4.40 87.4 0 0 25.67 28.16
  L 25.63 28.17
  A 6.13 4.40 87.4 0 0 21.51 34.49
  L 21.54 35.10
  A 2.04 2.04 0.0 0 0 23.67 37.04
  Z
  M 36.96 36.88
  L 41.84 37.05
  A 1.89 1.89 0.0 0 0 43.79 35.23
  L 43.82 34.53
  A 5.99 4.28 -88.0 0 0 39.75 28.39
  L 39.65 28.39
  A 5.99 4.28 -88.0 0 0 35.16 34.23
  L 35.14 34.93
  A 1.89 1.89 0.0 0 0 36.96 36.88
  Z"
/>
<path fill="#a83148" d="
  M 23.67 37.04
  A 2.04 2.04 0.0 0 1 21.54 35.10
  L 21.51 34.49
  A 6.13 4.40 87.4 0 1 25.63 28.17
  L 25.67 28.16
  A 6.13 4.40 87.4 0 1 30.34 34.09
  L 30.37 34.70
  A 2.04 2.04 0.0 0 1 28.43 36.83
  L 23.67 37.04
  Z"
/>
<path fill="#a83148" d="
  M 36.96 36.88
  A 1.89 1.89 0.0 0 1 35.14 34.93
  L 35.16 34.23
  A 5.99 4.28 -88.0 0 1 39.65 28.39
  L 39.75 28.39
  A 5.99 4.28 -88.0 0 1 43.82 34.53
  L 43.79 35.23
  A 1.89 1.89 0.0 0 1 41.84 37.05
  L 36.96 36.88
  Z"
/>
</svg>
