<?xml version="1.0" encoding="UTF-8" standalone="no"?>
<!DOCTYPE svg PUBLIC "-//W3C//DTD SVG 1.1//EN" "http://www.w3.org/Graphics/SVG/1.1/DTD/svg11.dtd">
<svg xmlns="http://www.w3.org/2000/svg" version="1.1" viewBox="0.00 0.00 66.00 88.00">
<g stroke-width="2.00" fill="none" stroke-linecap="butt">
<path stroke="#816c3e" vector-effect="non-scaling-stroke" d="
  M 33.39 86.69
  Q 33.54 86.69 33.60 86.67
  Q 33.69 86.64 33.78 86.55
  Q 48.66 72.70 57.72 56.25
  C 64.47 43.98 67.56 28.29 59.38 16.38
  Q 50.25 3.09 33.75 2.46
  Q 33.65 2.46 33.56 2.46
  Q 33.47 2.46 33.37 2.46
  Q 16.87 3.02 7.68 16.27
  C -0.55 28.15 2.48 43.85 9.18 56.15
  Q 18.17 72.64 32.99 86.55
  Q 33.08 86.64 33.17 86.67
  Q 33.24 86.69 33.39 86.69"
/>
<path stroke="#d5c4a0" vector-effect="non-scaling-stroke" d="
  M 26.75 43.57
  Q 26.53 44.89 25.32 46.86
  A 0.55 0.55 0.0 0 0 25.83 47.70
  Q 30.39 47.39 32.20 43.23
  A 0.86 0.85 -78.7 0 1 32.97 42.71
  C 39.50 42.52 45.68 43.89 49.57 37.38
  Q 52.45 32.56 50.54 27.77
  C 46.73 18.18 37.02 20.46 28.67 20.22
  Q 23.92 20.08 21.22 21.37
  C 14.99 24.34 12.89 31.37 16.41 37.37
  Q 19.22 42.15 26.07 42.69
  A 0.76 0.75 7.3 0 1 26.75 43.57"
/>
<path stroke="#d5c4a0" vector-effect="non-scaling-stroke" d="
  M 26.73 31.50
  A 2.40 2.40 0.0 0 0 24.33 29.10
  A 2.40 2.40 0.0 0 0 21.93 31.50
  A 2.40 2.40 0.0 0 0 24.33 33.90
  A 2.40 2.40 0.0 0 0 26.73 31.50"
/>
<path stroke="#d5c4a0" vector-effect="non-scaling-stroke" d="
  M 35.27 31.50
  A 2.40 2.40 0.0 0 0 32.87 29.10
  A 2.40 2.40 0.0 0 0 30.47 31.50
  A 2.40 2.40 0.0 0 0 32.87 33.90
  A 2.40 2.40 0.0 0 0 35.27 31.50"
/>
<path stroke="#d5c4a0" vector-effect="non-scaling-stroke" d="
  M 44.05 31.50
  A 2.41 2.41 0.0 0 0 41.64 29.09
  A 2.41 2.41 0.0 0 0 39.23 31.50
  A 2.41 2.41 0.0 0 0 41.64 33.91
  A 2.41 2.41 0.0 0 0 44.05 31.50"
/>
</g>
<path fill="#574828" d="
  M 33.79 88.00
  L 32.98 88.00
  C 17.26 73.55 -4.49 46.63 3.00 23.27
  C 7.08 10.54 18.70 2.09 31.97 1.36
  C 43.00 0.75 54.01 6.18 60.18 15.46
  C 76.63 40.19 51.26 72.16 33.79 88.00
  Z
  M 33.39 86.69
  Q 33.54 86.69 33.60 86.67
  Q 33.69 86.64 33.78 86.55
  Q 48.66 72.70 57.72 56.25
  C 64.47 43.98 67.56 28.29 59.38 16.38
  Q 50.25 3.09 33.75 2.46
  Q 33.65 2.46 33.56 2.46
  Q 33.47 2.46 33.37 2.46
  Q 16.87 3.02 7.68 16.27
  C -0.55 28.15 2.48 43.85 9.18 56.15
  Q 18.17 72.64 32.99 86.55
  Q 33.08 86.64 33.17 86.67
  Q 33.24 86.69 33.39 86.69
  Z"
/>
<path fill="#aa8f54" d="
  M 33.56 2.46
  Q 33.65 2.46 33.75 2.46
  Q 50.25 3.09 59.38 16.38
  C 67.56 28.29 64.47 43.98 57.72 56.25
  Q 48.66 72.70 33.78 86.55
  Q 33.69 86.64 33.60 86.67
  Q 33.54 86.69 33.39 86.69
  Q 33.24 86.69 33.17 86.67
  Q 33.08 86.64 32.99 86.55
  Q 18.17 72.64 9.18 56.15
  C 2.48 43.85 -0.55 28.15 7.68 16.27
  Q 16.87 3.02 33.37 2.46
  Q 33.47 2.46 33.56 2.46
  Z
  M 26.75 43.57
  Q 26.53 44.89 25.32 46.86
  A 0.55 0.55 0.0 0 0 25.83 47.70
  Q 30.39 47.39 32.20 43.23
  A 0.86 0.85 -78.7 0 1 32.97 42.71
  C 39.50 42.52 45.68 43.89 49.57 37.38
  Q 52.45 32.56 50.54 27.77
  C 46.73 18.18 37.02 20.46 28.67 20.22
  Q 23.92 20.08 21.22 21.37
  C 14.99 24.34 12.89 31.37 16.41 37.37
  Q 19.22 42.15 26.07 42.69
  A 0.76 0.75 7.3 0 1 26.75 43.57
  Z"
/>
<path fill="#fff8ec" d="
  M 26.75 43.57
  A 0.76 0.75 7.3 0 0 26.07 42.69
  Q 19.22 42.15 16.41 37.37
  C 12.89 31.37 14.99 24.34 21.22 21.37
  Q 23.92 20.08 28.67 20.22
  C 37.02 20.46 46.73 18.18 50.54 27.77
  Q 52.45 32.56 49.57 37.38
  C 45.68 43.89 39.50 42.52 32.97 42.71
  A 0.86 0.85 -78.7 0 0 32.20 43.23
  Q 30.39 47.39 25.83 47.70
  A 0.55 0.55 0.0 0 1 25.32 46.86
  Q 26.53 44.89 26.75 43.57
  Z
  M 26.73 31.50
  A 2.40 2.40 0.0 0 0 24.33 29.10
  A 2.40 2.40 0.0 0 0 21.93 31.50
  A 2.40 2.40 0.0 0 0 24.33 33.90
  A 2.40 2.40 0.0 0 0 26.73 31.50
  Z
  M 35.27 31.50
  A 2.40 2.40 0.0 0 0 32.87 29.10
  A 2.40 2.40 0.0 0 0 30.47 31.50
  A 2.40 2.40 0.0 0 0 32.87 33.90
  A 2.40 2.40 0.0 0 0 35.27 31.50
  Z
  M 44.05 31.50
  A 2.41 2.41 0.0 0 0 41.64 29.09
  A 2.41 2.41 0.0 0 0 39.23 31.50
  A 2.41 2.41 0.0 0 0 41.64 33.91
  A 2.41 2.41 0.0 0 0 44.05 31.50
  Z"
/>
<circle fill="#aa8f54" cx="24.33" cy="31.50" r="2.40"/>
<circle fill="#aa8f54" cx="32.87" cy="31.50" r="2.40"/>
<circle fill="#aa8f54" cx="41.64" cy="31.50" r="2.41"/>
</svg>
