<?xml version="1.0" encoding="UTF-8" standalone="no"?>
<!DOCTYPE svg PUBLIC "-//W3C//DTD SVG 1.1//EN" "http://www.w3.org/Graphics/SVG/1.1/DTD/svg11.dtd">
<svg xmlns="http://www.w3.org/2000/svg" version="1.1" viewBox="0.00 0.00 66.00 88.00">
<g stroke-width="2.00" fill="none" stroke-linecap="butt">
<path stroke="#802436" vector-effect="non-scaling-stroke" d="
  M 33.42 86.69
  Q 33.53 86.69 33.62 86.67
  Q 33.67 86.66 33.77 86.57
  C 48.63 72.79 67.52 49.07 63.77 27.46
  C 61.26 13.00 48.13 2.47 33.51 2.46
  C 18.90 2.44 5.75 12.94 3.20 27.39
  C -0.60 48.99 18.24 72.76 33.07 86.57
  Q 33.17 86.66 33.22 86.67
  Q 33.31 86.69 33.42 86.69"
/>
<path stroke="#d4959a" vector-effect="non-scaling-stroke" d="
  M 32.99 47.03
  C 36.41 47.03 38.00 45.75 41.56 43.11
  A 1.33 1.32 -9.4 0 0 42.03 42.46
  L 42.70 40.30
  A 0.95 0.94 5.1 0 1 43.50 39.64
  Q 48.62 39.09 51.26 34.61
  A 0.04 0.04 0.0 0 0 51.24 34.55
  L 40.48 28.91
  A 0.47 0.44 86.6 0 1 40.29 28.73
  Q 39.06 26.89 36.52 26.39
  A 1.40 1.38 81.4 0 1 35.58 25.69
  Q 34.63 23.91 33.46 21.52
  Q 33.33 21.26 32.99 21.26
  Q 32.65 21.26 32.52 21.52
  Q 31.35 23.91 30.40 25.69
  A 1.40 1.38 -81.4 0 1 29.46 26.39
  Q 26.92 26.89 25.69 28.73
  A 0.47 0.44 -86.6 0 1 25.50 28.91
  L 14.75 34.55
  A 0.04 0.04 0.0 0 0 14.73 34.61
  Q 17.37 39.09 22.49 39.64
  A 0.95 0.94 -5.1 0 1 23.29 40.30
  L 23.96 42.46
  A 1.33 1.32 9.4 0 0 24.43 43.11
  C 27.98 45.75 29.58 47.03 32.99 47.03"
/>
<path stroke="#d4959a" vector-effect="non-scaling-stroke" d="
  M 38.45 34.49
  A 5.49 5.49 0.0 0 0 32.96 29.00
  A 5.49 5.49 0.0 0 0 27.47 34.49
  A 5.49 5.49 0.0 0 0 32.96 39.98
  A 5.49 5.49 0.0 0 0 38.45 34.49"
/>
<path stroke="#d4959a" vector-effect="non-scaling-stroke" d="
  M 23.67 32.76
  Q 21.67 33.43 19.40 35.32
  A 0.51 0.51 0.0 0 0 19.49 36.16
  Q 20.60 36.73 22.06 36.92
  A 0.38 0.36 -70.3 0 0 22.44 36.73
  L 24.29 33.52
  A 0.52 0.52 0.0 0 0 23.67 32.76"
/>
<path stroke="#d4959a" vector-effect="non-scaling-stroke" d="
  M 42.33 32.78
  A 0.52 0.52 0.0 0 0 41.71 33.53
  L 43.54 36.73
  A 0.38 0.36 70.4 0 0 43.92 36.92
  Q 45.37 36.73 46.48 36.17
  A 0.50 0.50 0.0 0 0 46.57 35.33
  Q 44.31 33.45 42.33 32.78"
/>
<path stroke="#d4959a" vector-effect="non-scaling-stroke" d="
  M 35.58 34.42
  A 2.59 2.59 0.0 0 0 32.99 31.83
  A 2.59 2.59 0.0 0 0 30.40 34.42
  A 2.59 2.59 0.0 0 0 32.99 37.01
  A 2.59 2.59 0.0 0 0 35.58 34.42"
/>
</g>
<path fill="#581723" d="
  M 33.81 88.00
  L 33.11 88.00
  Q 16.24 72.96 6.69 54.04
  Q 3.54 47.79 2.04 39.24
  C 0.10 28.18 3.36 17.47 11.63 9.83
  C 27.44 -4.78 53.16 0.00 62.57 19.67
  C 66.90 28.71 65.96 39.66 62.40 48.85
  C 56.64 63.75 45.55 77.31 33.81 88.00
  Z
  M 33.42 86.69
  Q 33.53 86.69 33.62 86.67
  Q 33.67 86.66 33.77 86.57
  C 48.63 72.79 67.52 49.07 63.77 27.46
  C 61.26 13.00 48.13 2.47 33.51 2.46
  C 18.90 2.44 5.75 12.94 3.20 27.39
  C -0.60 48.99 18.24 72.76 33.07 86.57
  Q 33.17 86.66 33.22 86.67
  Q 33.31 86.69 33.42 86.69
  Z"
/>
<path fill="#a83148" d="
  M 33.51 2.46
  C 48.13 2.47 61.26 13.00 63.77 27.46
  C 67.52 49.07 48.63 72.79 33.77 86.57
  Q 33.67 86.66 33.62 86.67
  Q 33.53 86.69 33.42 86.69
  Q 33.31 86.69 33.22 86.67
  Q 33.17 86.66 33.07 86.57
  C 18.24 72.76 -0.60 48.99 3.20 27.39
  C 5.75 12.94 18.90 2.44 33.51 2.46
  Z
  M 32.99 47.03
  C 36.41 47.03 38.00 45.75 41.56 43.11
  A 1.33 1.32 -9.4 0 0 42.03 42.46
  L 42.70 40.30
  A 0.95 0.94 5.1 0 1 43.50 39.64
  Q 48.62 39.09 51.26 34.61
  A 0.04 0.04 0.0 0 0 51.24 34.55
  L 40.48 28.91
  A 0.47 0.44 86.6 0 1 40.29 28.73
  Q 39.06 26.89 36.52 26.39
  A 1.40 1.38 81.4 0 1 35.58 25.69
  Q 34.63 23.91 33.46 21.52
  Q 33.33 21.26 32.99 21.26
  Q 32.65 21.26 32.52 21.52
  Q 31.35 23.91 30.40 25.69
  A 1.40 1.38 -81.4 0 1 29.46 26.39
  Q 26.92 26.89 25.69 28.73
  A 0.47 0.44 -86.6 0 1 25.50 28.91
  L 14.75 34.55
  A 0.04 0.04 0.0 0 0 14.73 34.61
  Q 17.37 39.09 22.49 39.64
  A 0.95 0.94 -5.1 0 1 23.29 40.30
  L 23.96 42.46
  A 1.33 1.32 9.4 0 0 24.43 43.11
  C 27.98 45.75 29.58 47.03 32.99 47.03
  Z"
/>
<path fill="#fff8ec" d="
  M 32.99 21.26
  Q 33.33 21.26 33.46 21.52
  Q 34.63 23.91 35.58 25.69
  A 1.40 1.38 81.4 0 0 36.52 26.39
  Q 39.06 26.89 40.29 28.73
  A 0.47 0.44 86.6 0 0 40.48 28.91
  L 51.24 34.55
  A 0.04 0.04 0.0 0 1 51.26 34.61
  Q 48.62 39.09 43.50 39.64
  A 0.95 0.94 5.1 0 0 42.70 40.30
  L 42.03 42.46
  A 1.33 1.32 -9.4 0 1 41.56 43.11
  C 38.00 45.75 36.41 47.03 32.99 47.03
  C 29.58 47.03 27.98 45.75 24.43 43.11
  A 1.33 1.32 9.4 0 1 23.96 42.46
  L 23.29 40.30
  A 0.95 0.94 -5.1 0 0 22.49 39.64
  Q 17.37 39.09 14.73 34.61
  A 0.04 0.04 0.0 0 1 14.75 34.55
  L 25.50 28.91
  A 0.47 0.44 -86.6 0 0 25.69 28.73
  Q 26.92 26.89 29.46 26.39
  A 1.40 1.38 -81.4 0 0 30.40 25.69
  Q 31.35 23.91 32.52 21.52
  Q 32.65 21.26 32.99 21.26
  Z
  M 38.45 34.49
  A 5.49 5.49 0.0 0 0 32.96 29.00
  A 5.49 5.49 0.0 0 0 27.47 34.49
  A 5.49 5.49 0.0 0 0 32.96 39.98
  A 5.49 5.49 0.0 0 0 38.45 34.49
  Z
  M 23.67 32.76
  Q 21.67 33.43 19.40 35.32
  A 0.51 0.51 0.0 0 0 19.49 36.16
  Q 20.60 36.73 22.06 36.92
  A 0.38 0.36 -70.3 0 0 22.44 36.73
  L 24.29 33.52
  A 0.52 0.52 0.0 0 0 23.67 32.76
  Z
  M 42.33 32.78
  A 0.52 0.52 0.0 0 0 41.71 33.53
  L 43.54 36.73
  A 0.38 0.36 70.4 0 0 43.92 36.92
  Q 45.37 36.73 46.48 36.17
  A 0.50 0.50 0.0 0 0 46.57 35.33
  Q 44.31 33.45 42.33 32.78
  Z"
/>
<path fill="#a83148" d="
  M 38.45 34.49
  A 5.49 5.49 0.0 0 1 32.96 39.98
  A 5.49 5.49 0.0 0 1 27.47 34.49
  A 5.49 5.49 0.0 0 1 32.96 29.00
  A 5.49 5.49 0.0 0 1 38.45 34.49
  Z
  M 35.58 34.42
  A 2.59 2.59 0.0 0 0 32.99 31.83
  A 2.59 2.59 0.0 0 0 30.40 34.42
  A 2.59 2.59 0.0 0 0 32.99 37.01
  A 2.59 2.59 0.0 0 0 35.58 34.42
  Z"
/>
<circle fill="#fff8ec" cx="32.99" cy="34.42" r="2.59"/>
<path fill="#a83148" d="
  M 24.29 33.52
  L 22.44 36.73
  A 0.38 0.36 -70.3 0 1 22.06 36.92
  Q 20.60 36.73 19.49 36.16
  A 0.51 0.51 0.0 0 1 19.40 35.32
  Q 21.67 33.43 23.67 32.76
  A 0.52 0.52 0.0 0 1 24.29 33.52
  Z"
/>
<path fill="#a83148" d="
  M 42.33 32.78
  Q 44.31 33.45 46.57 35.33
  A 0.50 0.50 0.0 0 1 46.48 36.17
  Q 45.37 36.73 43.92 36.92
  A 0.38 0.36 70.4 0 1 43.54 36.73
  L 41.71 33.53
  A 0.52 0.52 0.0 0 1 42.33 32.78
  Z"
/>
</svg>
