<?xml version="1.0" encoding="UTF-8" standalone="no"?>
<!DOCTYPE svg PUBLIC "-//W3C//DTD SVG 1.1//EN" "http://www.w3.org/Graphics/SVG/1.1/DTD/svg11.dtd">
<svg xmlns="http://www.w3.org/2000/svg" version="1.1" viewBox="0.00 0.00 66.00 88.00">
<g stroke-width="2.00" fill="none" stroke-linecap="butt">
<path stroke="#574f7b" vector-effect="non-scaling-stroke" d="
  M 33.40 86.66
  Q 33.46 86.66 33.52 86.65
  A 0.40 0.38 19.7 0 0 33.73 86.56
  C 50.45 70.83 74.46 40.77 59.68 16.90
  C 54.15 7.98 44.10 2.52 33.54 2.51
  C 22.97 2.49 12.91 7.91 7.35 16.82
  C -7.51 40.64 16.40 70.78 33.07 86.56
  A 0.40 0.38 -19.5 0 0 33.29 86.65
  Q 33.35 86.66 33.40 86.66"
/>
<path stroke="#bab0c7" vector-effect="non-scaling-stroke" d="
  M 32.98 50.12
  Q 33.07 50.12 33.13 50.09
  C 40.88 45.27 54.86 34.69 50.28 23.85
  C 48.69 20.07 43.70 17.77 39.96 18.72
  Q 34.96 19.99 33.30 25.32
  Q 33.21 25.61 32.97 25.62
  Q 32.73 25.62 32.63 25.32
  Q 30.97 19.99 25.97 18.73
  C 22.23 17.78 17.24 20.09 15.65 23.87
  C 11.09 34.71 25.08 45.28 32.83 50.09
  Q 32.89 50.12 32.98 50.12"
/>
<path stroke="#bab0c7" vector-effect="non-scaling-stroke" d="
  M 32.96 45.62
  Q 33.07 45.62 33.10 45.60
  C 38.23 42.19 46.04 35.81 46.30 29.53
  C 46.49 24.85 42.17 23.05 38.24 25.08
  Q 35.78 26.35 34.27 29.26
  Q 33.04 31.64 32.97 31.64
  Q 32.90 31.64 31.67 29.26
  Q 30.16 26.35 27.70 25.07
  C 23.78 23.04 19.45 24.83 19.64 29.51
  C 19.89 35.80 27.69 42.18 32.82 45.60
  Q 32.85 45.62 32.96 45.62"
/>
</g>
<path fill="#3a3554" d="
  M 33.79 88.00
  L 33.12 88.00
  Q 15.69 72.49 6.20 53.04
  Q 3.46 47.42 2.05 39.26
  C -0.18 26.43 4.50 14.62 15.02 7.09
  C 23.01 1.37 34.62 -0.42 44.18 3.15
  Q 60.76 9.35 64.90 26.55
  C 66.05 31.34 65.49 38.58 63.93 44.07
  C 59.20 60.82 46.49 76.46 33.79 88.00
  Z
  M 33.40 86.66
  Q 33.46 86.66 33.52 86.65
  A 0.40 0.38 19.7 0 0 33.73 86.56
  C 50.45 70.83 74.46 40.77 59.68 16.90
  C 54.15 7.98 44.10 2.52 33.54 2.51
  C 22.97 2.49 12.91 7.91 7.35 16.82
  C -7.51 40.64 16.40 70.78 33.07 86.56
  A 0.40 0.38 -19.5 0 0 33.29 86.65
  Q 33.35 86.66 33.40 86.66
  Z"
/>
<path fill="#7468a1" d="
  M 33.54 2.51
  C 44.10 2.52 54.15 7.98 59.68 16.90
  C 74.46 40.77 50.45 70.83 33.73 86.56
  A 0.40 0.38 19.7 0 1 33.52 86.65
  Q 33.46 86.66 33.40 86.66
  Q 33.35 86.66 33.29 86.65
  A 0.40 0.38 -19.5 0 1 33.07 86.56
  C 16.40 70.78 -7.51 40.64 7.35 16.82
  C 12.91 7.91 22.97 2.49 33.54 2.51
  Z
  M 32.98 50.12
  Q 33.07 50.12 33.13 50.09
  C 40.88 45.27 54.86 34.69 50.28 23.85
  C 48.69 20.07 43.70 17.77 39.96 18.72
  Q 34.96 19.99 33.30 25.32
  Q 33.21 25.61 32.97 25.62
  Q 32.73 25.62 32.63 25.32
  Q 30.97 19.99 25.97 18.73
  C 22.23 17.78 17.24 20.09 15.65 23.87
  C 11.09 34.71 25.08 45.28 32.83 50.09
  Q 32.89 50.12 32.98 50.12
  Z"
/>
<path fill="#fff8ec" d="
  M 32.97 25.62
  Q 33.21 25.61 33.30 25.32
  Q 34.96 19.99 39.96 18.72
  C 43.70 17.77 48.69 20.07 50.28 23.85
  C 54.86 34.69 40.88 45.27 33.13 50.09
  Q 33.07 50.12 32.98 50.12
  Q 32.89 50.12 32.83 50.09
  C 25.08 45.28 11.09 34.71 15.65 23.87
  C 17.24 20.09 22.23 17.78 25.97 18.73
  Q 30.97 19.99 32.63 25.32
  Q 32.73 25.62 32.97 25.62
  Z
  M 32.96 45.62
  Q 33.07 45.62 33.10 45.60
  C 38.23 42.19 46.04 35.81 46.30 29.53
  C 46.49 24.85 42.17 23.05 38.24 25.08
  Q 35.78 26.35 34.27 29.26
  Q 33.04 31.64 32.97 31.64
  Q 32.90 31.64 31.67 29.26
  Q 30.16 26.35 27.70 25.07
  C 23.78 23.04 19.45 24.83 19.64 29.51
  C 19.89 35.80 27.69 42.18 32.82 45.60
  Q 32.85 45.62 32.96 45.62
  Z"
/>
<path fill="#7468a1" d="
  M 32.97 31.64
  Q 33.04 31.64 34.27 29.26
  Q 35.78 26.35 38.24 25.08
  C 42.17 23.05 46.49 24.85 46.30 29.53
  C 46.04 35.81 38.23 42.19 33.10 45.60
  Q 33.07 45.62 32.96 45.62
  Q 32.85 45.62 32.82 45.60
  C 27.69 42.18 19.89 35.80 19.64 29.51
  C 19.45 24.83 23.78 23.04 27.70 25.07
  Q 30.16 26.35 31.67 29.26
  Q 32.90 31.64 32.97 31.64
  Z"
/>
</svg>
