<?xml version="1.0" encoding="UTF-8" standalone="no"?>
<!DOCTYPE svg PUBLIC "-//W3C//DTD SVG 1.1//EN" "http://www.w3.org/Graphics/SVG/1.1/DTD/svg11.dtd">
<svg xmlns="http://www.w3.org/2000/svg" version="1.1" viewBox="0.00 0.00 66.00 88.00">
<g stroke-width="2.00" fill="none" stroke-linecap="butt">
<path stroke="#816c3e" vector-effect="non-scaling-stroke" d="
  M 33.38 86.69
  Q 33.49 86.69 33.60 86.67
  Q 33.66 86.66 33.77 86.55
  C 48.97 72.17 69.31 47.10 63.17 24.73
  C 59.52 11.44 47.61 2.98 33.75 2.46
  Q 33.59 2.46 33.55 2.46
  Q 33.51 2.46 33.35 2.46
  C 19.49 2.92 7.54 11.34 3.84 24.61
  C -2.39 46.96 17.85 72.11 33.00 86.55
  Q 33.11 86.66 33.17 86.67
  Q 33.27 86.69 33.38 86.69"
/>
<path stroke="#d5c4a0" vector-effect="non-scaling-stroke" d="
  M 14.65 34.10
  Q 14.66 48.47 14.67 49.66
  A 2.07 2.06 -0.3 0 0 16.74 51.70
  L 24.17 51.70
  A 1.96 1.95 -88.1 0 0 26.12 49.87
  L 26.21 48.52
  A 0.75 0.75 0.0 0 1 26.92 47.81
  Q 27.60 47.78 33.01 47.78
  Q 38.41 47.78 39.09 47.81
  A 0.75 0.75 0.0 0 1 39.80 48.52
  L 39.89 49.87
  A 1.96 1.95 88.1 0 0 41.84 51.70
  L 49.27 51.70
  A 2.07 2.06 0.3 0 0 51.34 49.65
  Q 51.35 48.46 51.35 34.09
  Q 51.35 19.72 51.34 18.53
  A 2.07 2.06 -0.3 0 0 49.27 16.49
  L 41.84 16.49
  A 1.96 1.95 -88.1 0 0 39.89 18.32
  L 39.80 19.67
  A 0.75 0.75 0.0 0 1 39.09 20.37
  Q 38.41 20.41 33.00 20.41
  Q 27.60 20.41 26.92 20.38
  A 0.75 0.75 0.0 0 1 26.21 19.67
  L 26.12 18.32
  A 1.96 1.95 88.1 0 0 24.17 16.49
  L 16.74 16.49
  A 2.07 2.06 0.3 0 0 14.67 18.54
  Q 14.65 19.73 14.65 34.10"
/>
<path stroke="#d5c4a0" vector-effect="non-scaling-stroke" d="
  M 22.49 20.71
  A 0.46 0.46 0.0 0 0 22.03 20.25
  L 18.79 20.25
  A 0.46 0.46 0.0 0 0 18.33 20.71
  L 18.33 24.03
  A 0.46 0.46 0.0 0 0 18.79 24.49
  L 22.03 24.49
  A 0.46 0.46 0.0 0 0 22.49 24.03
  L 22.49 20.71"
/>
<path stroke="#d5c4a0" vector-effect="non-scaling-stroke" d="
  M 47.6416 20.7691
  A 0.54 0.54 0.0 0 0 47.0988 20.2320
  L 44.0189 20.2481
  A 0.54 0.54 0.0 0 0 43.4817 20.7909
  L 43.4984 23.9709
  A 0.54 0.54 0.0 0 0 44.0412 24.5080
  L 47.1211 24.4919
  A 0.54 0.54 0.0 0 0 47.6583 23.9491
  L 47.6416 20.7691"
/>
<path stroke="#d5c4a0" vector-effect="non-scaling-stroke" d="
  M 39.78 24.83
  A 0.56 0.56 0.0 0 0 39.22 24.27
  L 26.76 24.27
  A 0.56 0.56 0.0 0 0 26.20 24.83
  L 26.20 31.67
  A 0.56 0.56 0.0 0 0 26.76 32.23
  L 39.22 32.23
  A 0.56 0.56 0.0 0 0 39.78 31.67
  L 39.78 24.83"
/>
<path stroke="#d5c4a0" vector-effect="non-scaling-stroke" d="
  M 22.4960 28.4273
  A 0.39 0.39 0.0 0 0 22.1073 28.0359
  L 18.7273 28.0241
  A 0.39 0.39 0.0 0 0 18.3360 28.4127
  L 18.3240 31.8327
  A 0.39 0.39 0.0 0 0 18.7127 32.2241
  L 22.0927 32.2359
  A 0.39 0.39 0.0 0 0 22.4840 31.8473
  L 22.4960 28.4273"
/>
<path stroke="#d5c4a0" vector-effect="non-scaling-stroke" d="
  M 47.6472 28.5464
  A 0.52 0.52 0.0 0 0 47.1263 28.0273
  L 43.9863 28.0327
  A 0.52 0.52 0.0 0 0 43.4672 28.5537
  L 43.4728 31.7336
  A 0.52 0.52 0.0 0 0 43.9937 32.2527
  L 47.1337 32.2473
  A 0.52 0.52 0.0 0 0 47.6528 31.7263
  L 47.6472 28.5464"
/>
<path stroke="#d5c4a0" vector-effect="non-scaling-stroke" d="
  M 22.5310 36.4257
  A 0.38 0.38 0.0 0 0 22.1557 36.0410
  L 18.7359 35.9993
  A 0.38 0.38 0.0 0 0 18.3513 36.3746
  L 18.3090 39.8343
  A 0.38 0.38 0.0 0 0 18.6843 40.2190
  L 22.1041 40.2607
  A 0.38 0.38 0.0 0 0 22.4887 39.8854
  L 22.5310 36.4257"
/>
<path stroke="#d5c4a0" vector-effect="non-scaling-stroke" d="
  M 39.7941 36.5781
  A 0.59 0.59 0.0 0 0 39.2030 35.9892
  L 26.7630 36.0109
  A 0.59 0.59 0.0 0 0 26.1741 36.6019
  L 26.1859 43.4019
  A 0.59 0.59 0.0 0 0 26.7770 43.9908
  L 39.2170 43.9691
  A 0.59 0.59 0.0 0 0 39.8059 43.3781
  L 39.7941 36.5781"
/>
<path stroke="#d5c4a0" vector-effect="non-scaling-stroke" d="
  M 47.6315 36.5091
  A 0.49 0.49 0.0 0 0 47.1389 36.0217
  L 43.9390 36.0384
  A 0.49 0.49 0.0 0 0 43.4515 36.5310
  L 43.4685 39.7709
  A 0.49 0.49 0.0 0 0 43.9611 40.2583
  L 47.1610 40.2416
  A 0.49 0.49 0.0 0 0 47.6485 39.7490
  L 47.6315 36.5091"
/>
<path stroke="#d5c4a0" vector-effect="non-scaling-stroke" d="
  M 22.5089 44.1610
  A 0.40 0.40 0.0 0 0 22.1110 43.7589
  L 18.7311 43.7412
  A 0.40 0.40 0.0 0 0 18.3290 44.1391
  L 18.3111 47.5590
  A 0.40 0.40 0.0 0 0 18.7090 47.9611
  L 22.0889 47.9788
  A 0.40 0.40 0.0 0 0 22.4910 47.5809
  L 22.5089 44.1610"
/>
<path stroke="#d5c4a0" vector-effect="non-scaling-stroke" d="
  M 47.6586 44.2210
  A 0.46 0.46 0.0 0 0 47.2010 43.7586
  L 43.9411 43.7415
  A 0.46 0.46 0.0 0 0 43.4787 44.1991
  L 43.4614 47.4990
  A 0.46 0.46 0.0 0 0 43.9190 47.9614
  L 47.1789 47.9785
  A 0.46 0.46 0.0 0 0 47.6413 47.5209
  L 47.6586 44.2210"
/>
</g>
<path fill="#574828" d="
  M 33.81 88.00
  L 32.98 88.00
  C 22.43 78.30 12.86 66.53 6.50 53.54
  Q 2.49 45.35 1.66 35.61
  Q 0.81 25.74 5.46 17.64
  C 18.64 -5.31 51.60 -3.71 62.85 20.27
  C 66.64 28.34 65.97 38.65 63.05 47.02
  C 57.60 62.66 45.96 76.93 33.81 88.00
  Z
  M 33.38 86.69
  Q 33.49 86.69 33.60 86.67
  Q 33.66 86.66 33.77 86.55
  C 48.97 72.17 69.31 47.10 63.17 24.73
  C 59.52 11.44 47.61 2.98 33.75 2.46
  Q 33.59 2.46 33.55 2.46
  Q 33.51 2.46 33.35 2.46
  C 19.49 2.92 7.54 11.34 3.84 24.61
  C -2.39 46.96 17.85 72.11 33.00 86.55
  Q 33.11 86.66 33.17 86.67
  Q 33.27 86.69 33.38 86.69
  Z"
/>
<path fill="#aa8f54" d="
  M 33.55 2.46
  Q 33.59 2.46 33.75 2.46
  C 47.61 2.98 59.52 11.44 63.17 24.73
  C 69.31 47.10 48.97 72.17 33.77 86.55
  Q 33.66 86.66 33.60 86.67
  Q 33.49 86.69 33.38 86.69
  Q 33.27 86.69 33.17 86.67
  Q 33.11 86.66 33.00 86.55
  C 17.85 72.11 -2.39 46.96 3.84 24.61
  C 7.54 11.34 19.49 2.92 33.35 2.46
  Q 33.51 2.46 33.55 2.46
  Z
  M 14.65 34.10
  Q 14.66 48.47 14.67 49.66
  A 2.07 2.06 -0.3 0 0 16.74 51.70
  L 24.17 51.70
  A 1.96 1.95 -88.1 0 0 26.12 49.87
  L 26.21 48.52
  A 0.75 0.75 0.0 0 1 26.92 47.81
  Q 27.60 47.78 33.01 47.78
  Q 38.41 47.78 39.09 47.81
  A 0.75 0.75 0.0 0 1 39.80 48.52
  L 39.89 49.87
  A 1.96 1.95 88.1 0 0 41.84 51.70
  L 49.27 51.70
  A 2.07 2.06 0.3 0 0 51.34 49.65
  Q 51.35 48.46 51.35 34.09
  Q 51.35 19.72 51.34 18.53
  A 2.07 2.06 -0.3 0 0 49.27 16.49
  L 41.84 16.49
  A 1.96 1.95 -88.1 0 0 39.89 18.32
  L 39.80 19.67
  A 0.75 0.75 0.0 0 1 39.09 20.37
  Q 38.41 20.41 33.00 20.41
  Q 27.60 20.41 26.92 20.38
  A 0.75 0.75 0.0 0 1 26.21 19.67
  L 26.12 18.32
  A 1.96 1.95 88.1 0 0 24.17 16.49
  L 16.74 16.49
  A 2.07 2.06 0.3 0 0 14.67 18.54
  Q 14.65 19.73 14.65 34.10
  Z"
/>
<path fill="#fff8ec" d="
  M 33.00 20.41
  Q 38.41 20.41 39.09 20.37
  A 0.75 0.75 0.0 0 0 39.80 19.67
  L 39.89 18.32
  A 1.96 1.95 -88.1 0 1 41.84 16.49
  L 49.27 16.49
  A 2.07 2.06 -0.3 0 1 51.34 18.53
  Q 51.35 19.72 51.35 34.09
  Q 51.35 48.46 51.34 49.65
  A 2.07 2.06 0.3 0 1 49.27 51.70
  L 41.84 51.70
  A 1.96 1.95 88.1 0 1 39.89 49.87
  L 39.80 48.52
  A 0.75 0.75 0.0 0 0 39.09 47.81
  Q 38.41 47.78 33.01 47.78
  Q 27.60 47.78 26.92 47.81
  A 0.75 0.75 0.0 0 0 26.21 48.52
  L 26.12 49.87
  A 1.96 1.95 -88.1 0 1 24.17 51.70
  L 16.74 51.70
  A 2.07 2.06 -0.3 0 1 14.67 49.66
  Q 14.66 48.47 14.65 34.10
  Q 14.65 19.73 14.67 18.54
  A 2.07 2.06 0.3 0 1 16.74 16.49
  L 24.17 16.49
  A 1.96 1.95 88.1 0 1 26.12 18.32
  L 26.21 19.67
  A 0.75 0.75 0.0 0 0 26.92 20.38
  Q 27.60 20.41 33.00 20.41
  Z
  M 22.49 20.71
  A 0.46 0.46 0.0 0 0 22.03 20.25
  L 18.79 20.25
  A 0.46 0.46 0.0 0 0 18.33 20.71
  L 18.33 24.03
  A 0.46 0.46 0.0 0 0 18.79 24.49
  L 22.03 24.49
  A 0.46 0.46 0.0 0 0 22.49 24.03
  L 22.49 20.71
  Z
  M 47.6416 20.7691
  A 0.54 0.54 0.0 0 0 47.0988 20.2320
  L 44.0189 20.2481
  A 0.54 0.54 0.0 0 0 43.4817 20.7909
  L 43.4984 23.9709
  A 0.54 0.54 0.0 0 0 44.0412 24.5080
  L 47.1211 24.4919
  A 0.54 0.54 0.0 0 0 47.6583 23.9491
  L 47.6416 20.7691
  Z
  M 39.78 24.83
  A 0.56 0.56 0.0 0 0 39.22 24.27
  L 26.76 24.27
  A 0.56 0.56 0.0 0 0 26.20 24.83
  L 26.20 31.67
  A 0.56 0.56 0.0 0 0 26.76 32.23
  L 39.22 32.23
  A 0.56 0.56 0.0 0 0 39.78 31.67
  L 39.78 24.83
  Z
  M 22.4960 28.4273
  A 0.39 0.39 0.0 0 0 22.1073 28.0359
  L 18.7273 28.0241
  A 0.39 0.39 0.0 0 0 18.3360 28.4127
  L 18.3240 31.8327
  A 0.39 0.39 0.0 0 0 18.7127 32.2241
  L 22.0927 32.2359
  A 0.39 0.39 0.0 0 0 22.4840 31.8473
  L 22.4960 28.4273
  Z
  M 47.6472 28.5464
  A 0.52 0.52 0.0 0 0 47.1263 28.0273
  L 43.9863 28.0327
  A 0.52 0.52 0.0 0 0 43.4672 28.5537
  L 43.4728 31.7336
  A 0.52 0.52 0.0 0 0 43.9937 32.2527
  L 47.1337 32.2473
  A 0.52 0.52 0.0 0 0 47.6528 31.7263
  L 47.6472 28.5464
  Z
  M 22.5310 36.4257
  A 0.38 0.38 0.0 0 0 22.1557 36.0410
  L 18.7359 35.9993
  A 0.38 0.38 0.0 0 0 18.3513 36.3746
  L 18.3090 39.8343
  A 0.38 0.38 0.0 0 0 18.6843 40.2190
  L 22.1041 40.2607
  A 0.38 0.38 0.0 0 0 22.4887 39.8854
  L 22.5310 36.4257
  Z
  M 39.7941 36.5781
  A 0.59 0.59 0.0 0 0 39.2030 35.9892
  L 26.7630 36.0109
  A 0.59 0.59 0.0 0 0 26.1741 36.6019
  L 26.1859 43.4019
  A 0.59 0.59 0.0 0 0 26.7770 43.9908
  L 39.2170 43.9691
  A 0.59 0.59 0.0 0 0 39.8059 43.3781
  L 39.7941 36.5781
  Z
  M 47.6315 36.5091
  A 0.49 0.49 0.0 0 0 47.1389 36.0217
  L 43.9390 36.0384
  A 0.49 0.49 0.0 0 0 43.4515 36.5310
  L 43.4685 39.7709
  A 0.49 0.49 0.0 0 0 43.9611 40.2583
  L 47.1610 40.2416
  A 0.49 0.49 0.0 0 0 47.6485 39.7490
  L 47.6315 36.5091
  Z
  M 22.5089 44.1610
  A 0.40 0.40 0.0 0 0 22.1110 43.7589
  L 18.7311 43.7412
  A 0.40 0.40 0.0 0 0 18.3290 44.1391
  L 18.3111 47.5590
  A 0.40 0.40 0.0 0 0 18.7090 47.9611
  L 22.0889 47.9788
  A 0.40 0.40 0.0 0 0 22.4910 47.5809
  L 22.5089 44.1610
  Z
  M 47.6586 44.2210
  A 0.46 0.46 0.0 0 0 47.2010 43.7586
  L 43.9411 43.7415
  A 0.46 0.46 0.0 0 0 43.4787 44.1991
  L 43.4614 47.4990
  A 0.46 0.46 0.0 0 0 43.9190 47.9614
  L 47.1789 47.9785
  A 0.46 0.46 0.0 0 0 47.6413 47.5209
  L 47.6586 44.2210
  Z"
/>
<rect fill="#aa8f54" x="18.33" y="20.25" width="4.16" height="4.24" rx="0.46"/>
<rect fill="#aa8f54" x="-2.08" y="-2.13" transform="translate(45.57,22.37) rotate(-0.3)" width="4.16" height="4.26" rx="0.54"/>
<rect fill="#aa8f54" x="26.20" y="24.27" width="13.58" height="7.96" rx="0.56"/>
<rect fill="#aa8f54" x="-2.08" y="-2.10" transform="translate(20.41,30.13) rotate(0.2)" width="4.16" height="4.20" rx="0.39"/>
<rect fill="#aa8f54" x="-2.09" y="-2.11" transform="translate(45.56,30.14) rotate(-0.1)" width="4.18" height="4.22" rx="0.52"/>
<rect fill="#aa8f54" x="-2.09" y="-2.11" transform="translate(20.42,38.13) rotate(0.7)" width="4.18" height="4.22" rx="0.38"/>
<rect fill="#aa8f54" x="-6.81" y="-3.99" transform="translate(32.99,39.99) rotate(-0.1)" width="13.62" height="7.98" rx="0.59"/>
<rect fill="#aa8f54" x="-2.09" y="-2.11" transform="translate(45.55,38.14) rotate(-0.3)" width="4.18" height="4.22" rx="0.49"/>
<rect fill="#aa8f54" x="-2.09" y="-2.11" transform="translate(20.41,45.86) rotate(0.3)" width="4.18" height="4.22" rx="0.40"/>
<rect fill="#aa8f54" x="-2.09" y="-2.11" transform="translate(45.56,45.86) rotate(0.3)" width="4.18" height="4.22" rx="0.46"/>
</svg>
