<?xml version="1.0" encoding="UTF-8" standalone="no"?>
<!DOCTYPE svg PUBLIC "-//W3C//DTD SVG 1.1//EN" "http://www.w3.org/Graphics/SVG/1.1/DTD/svg11.dtd">
<svg xmlns="http://www.w3.org/2000/svg" version="1.1" viewBox="0.00 0.00 66.00 88.00">
<g stroke-width="2.00" fill="none" stroke-linecap="butt">
<path stroke="#38728d" vector-effect="non-scaling-stroke" d="
  M 33.40 86.72
  Q 33.52 86.72 33.62 86.69
  Q 33.68 86.68 33.77 86.59
  Q 48.62 72.75 57.71 56.24
  C 64.70 43.53 67.63 27.63 58.75 15.50
  C 52.80 7.39 43.82 2.50 33.53 2.48
  C 23.24 2.47 14.24 7.33 8.27 15.43
  C -0.65 27.53 2.24 43.44 9.19 56.17
  Q 18.23 72.70 33.04 86.59
  Q 33.13 86.68 33.19 86.69
  Q 33.29 86.72 33.40 86.72"
/>
<path stroke="#a6c7d3" vector-effect="non-scaling-stroke" d="
  M 32.98 48.23
  Q 41.42 48.23 43.59 48.20
  C 46.25 48.16 48.03 47.48 48.60 44.85
  Q 49.94 38.71 50.46 35.91
  A 0.55 0.54 5.2 0 0 49.92 35.27
  L 40.68 35.27
  A 0.29 0.28 5.8 0 1 40.40 34.93
  L 41.05 31.64
  A 0.50 0.50 0.0 0 1 41.54 31.24
  L 50.82 31.24
  A 0.53 0.53 0.0 0 0 51.35 30.67
  Q 50.71 22.13 43.28 19.78
  C 40.58 18.93 37.16 19.26 32.99 19.26
  C 28.82 19.26 25.40 18.93 22.70 19.78
  Q 15.27 22.12 14.62 30.65
  A 0.53 0.53 0.0 0 0 15.15 31.23
  L 24.43 31.23
  A 0.50 0.50 0.0 0 1 24.92 31.63
  L 25.56 34.92
  A 0.29 0.28 -5.7 0 1 25.28 35.26
  L 16.04 35.26
  A 0.55 0.54 -5.2 0 0 15.50 35.90
  Q 16.02 38.70 17.36 44.84
  C 17.92 47.47 19.70 48.15 22.37 48.19
  Q 24.53 48.23 32.98 48.23"
/>
<path stroke="#a6c7d3" vector-effect="non-scaling-stroke" d="
  M 33.00 41.27
  Q 34.92 41.27 35.14 41.26
  A 0.45 0.45 0.0 0 0 35.57 40.75
  L 34.94 36.08
  A 1.03 1.03 0.0 0 1 35.26 35.17
  Q 38.82 31.78 35.16 28.67
  Q 34.07 27.75 32.98 27.75
  Q 31.90 27.75 30.82 28.67
  Q 27.16 31.79 30.73 35.18
  A 1.03 1.03 0.0 0 1 31.05 36.08
  L 30.43 40.76
  A 0.45 0.45 0.0 0 0 30.87 41.27
  Q 31.08 41.27 33.00 41.27"
/>
</g>
<path fill="#234e60" d="
  M 33.80 88.00
  L 33.04 88.00
  C 22.18 78.19 12.04 65.63 5.74 51.77
  Q 2.18 43.95 1.59 34.96
  C 0.55 19.01 11.15 5.69 26.49 2.11
  Q 36.72 -0.28 46.98 4.28
  Q 57.56 9.00 62.85 20.27
  C 66.64 28.35 65.97 38.65 63.05 47.02
  C 57.59 62.67 45.96 76.93 33.80 88.00
  Z
  M 33.40 86.72
  Q 33.52 86.72 33.62 86.69
  Q 33.68 86.68 33.77 86.59
  Q 48.62 72.75 57.71 56.24
  C 64.70 43.53 67.63 27.63 58.75 15.50
  C 52.80 7.39 43.82 2.50 33.53 2.48
  C 23.24 2.47 14.24 7.33 8.27 15.43
  C -0.65 27.53 2.24 43.44 9.19 56.17
  Q 18.23 72.70 33.04 86.59
  Q 33.13 86.68 33.19 86.69
  Q 33.29 86.72 33.40 86.72
  Z"
/>
<path fill="#4d96b9" d="
  M 33.53 2.48
  C 43.82 2.50 52.80 7.39 58.75 15.50
  C 67.63 27.63 64.70 43.53 57.71 56.24
  Q 48.62 72.75 33.77 86.59
  Q 33.68 86.68 33.62 86.69
  Q 33.52 86.72 33.40 86.72
  Q 33.29 86.72 33.19 86.69
  Q 33.13 86.68 33.04 86.59
  Q 18.23 72.70 9.19 56.17
  C 2.24 43.44 -0.65 27.53 8.27 15.43
  C 14.24 7.33 23.24 2.47 33.53 2.48
  Z
  M 32.98 48.23
  Q 41.42 48.23 43.59 48.20
  C 46.25 48.16 48.03 47.48 48.60 44.85
  Q 49.94 38.71 50.46 35.91
  A 0.55 0.54 5.2 0 0 49.92 35.27
  L 40.68 35.27
  A 0.29 0.28 5.8 0 1 40.40 34.93
  L 41.05 31.64
  A 0.50 0.50 0.0 0 1 41.54 31.24
  L 50.82 31.24
  A 0.53 0.53 0.0 0 0 51.35 30.67
  Q 50.71 22.13 43.28 19.78
  C 40.58 18.93 37.16 19.26 32.99 19.26
  C 28.82 19.26 25.40 18.93 22.70 19.78
  Q 15.27 22.12 14.62 30.65
  A 0.53 0.53 0.0 0 0 15.15 31.23
  L 24.43 31.23
  A 0.50 0.50 0.0 0 1 24.92 31.63
  L 25.56 34.92
  A 0.29 0.28 -5.7 0 1 25.28 35.26
  L 16.04 35.26
  A 0.55 0.54 -5.2 0 0 15.50 35.90
  Q 16.02 38.70 17.36 44.84
  C 17.92 47.47 19.70 48.15 22.37 48.19
  Q 24.53 48.23 32.98 48.23
  Z"
/>
<path fill="#fff8ec" d="
  M 32.99 19.26
  C 37.16 19.26 40.58 18.93 43.28 19.78
  Q 50.71 22.13 51.35 30.67
  A 0.53 0.53 0.0 0 1 50.82 31.24
  L 41.54 31.24
  A 0.50 0.50 0.0 0 0 41.05 31.64
  L 40.40 34.93
  A 0.29 0.28 5.8 0 0 40.68 35.27
  L 49.92 35.27
  A 0.55 0.54 5.2 0 1 50.46 35.91
  Q 49.94 38.71 48.60 44.85
  C 48.03 47.48 46.25 48.16 43.59 48.20
  Q 41.42 48.23 32.98 48.23
  Q 24.53 48.23 22.37 48.19
  C 19.70 48.15 17.92 47.47 17.36 44.84
  Q 16.02 38.70 15.50 35.90
  A 0.55 0.54 -5.2 0 1 16.04 35.26
  L 25.28 35.26
  A 0.29 0.28 -5.7 0 0 25.56 34.92
  L 24.92 31.63
  A 0.50 0.50 0.0 0 0 24.43 31.23
  L 15.15 31.23
  A 0.53 0.53 0.0 0 1 14.62 30.65
  Q 15.27 22.12 22.70 19.78
  C 25.40 18.93 28.82 19.26 32.99 19.26
  Z
  M 33.00 41.27
  Q 34.92 41.27 35.14 41.26
  A 0.45 0.45 0.0 0 0 35.57 40.75
  L 34.94 36.08
  A 1.03 1.03 0.0 0 1 35.26 35.17
  Q 38.82 31.78 35.16 28.67
  Q 34.07 27.75 32.98 27.75
  Q 31.90 27.75 30.82 28.67
  Q 27.16 31.79 30.73 35.18
  A 1.03 1.03 0.0 0 1 31.05 36.08
  L 30.43 40.76
  A 0.45 0.45 0.0 0 0 30.87 41.27
  Q 31.08 41.27 33.00 41.27
  Z"
/>
<path fill="#4d96b9" d="
  M 32.98 27.75
  Q 34.07 27.75 35.16 28.67
  Q 38.82 31.78 35.26 35.17
  A 1.03 1.03 0.0 0 0 34.94 36.08
  L 35.57 40.75
  A 0.45 0.45 0.0 0 1 35.14 41.26
  Q 34.92 41.27 33.00 41.27
  Q 31.08 41.27 30.87 41.27
  A 0.45 0.45 0.0 0 1 30.43 40.76
  L 31.05 36.08
  A 1.03 1.03 0.0 0 0 30.73 35.18
  Q 27.16 31.79 30.82 28.67
  Q 31.90 27.75 32.98 27.75
  Z"
/>
</svg>
