<?xml version="1.0" encoding="UTF-8" standalone="no"?>
<!DOCTYPE svg PUBLIC "-//W3C//DTD SVG 1.1//EN" "http://www.w3.org/Graphics/SVG/1.1/DTD/svg11.dtd">
<svg xmlns="http://www.w3.org/2000/svg" version="1.1" viewBox="0.00 0.00 66.00 88.00">
<g stroke-width="2.00" fill="none" stroke-linecap="butt">
<path stroke="#21303f" vector-effect="non-scaling-stroke" d="
  M 33.41 86.58
  Q 33.55 86.58 33.69 86.54
  A 0.08 0.05 -60.6 0 0 33.73 86.52
  Q 43.87 77.33 53.34 63.55
  Q 61.87 51.13 63.82 38.53
  Q 66.35 22.17 54.76 10.98
  C 49.11 5.54 41.58 2.59 33.52 2.58
  C 25.46 2.56 17.92 5.49 12.26 10.93
  Q 0.64 22.08 3.12 38.45
  Q 5.04 51.05 13.53 63.49
  Q 22.97 77.30 33.08 86.52
  A 0.08 0.05 60.8 0 0 33.12 86.54
  Q 33.26 86.58 33.41 86.58"
/>
<path stroke="#969c9f" vector-effect="non-scaling-stroke" d="
  M 33.40 52.31
  Q 34.09 52.31 34.81 51.57
  Q 45.51 40.69 46.25 39.99
  Q 47.59 38.73 43.98 35.91
  A 0.98 0.98 0.0 0 0 42.69 35.99
  L 42.27 36.41
  A 1.12 1.12 0.0 0 0 42.27 37.99
  L 42.84 38.56
  A 0.64 0.64 0.0 0 1 42.84 39.46
  L 36.28 46.02
  A 0.26 0.26 0.0 0 1 35.84 45.84
  L 35.84 39.36
  A 0.67 0.67 0.0 0 1 36.51 38.69
  L 37.74 38.69
  A 0.97 0.97 0.0 0 0 38.67 38.00
  L 39.65 34.82
  A 1.79 1.76 -6.2 0 1 40.50 33.78
  L 45.02 31.30
  A 1.36 1.36 0.0 0 0 44.37 28.75
  L 41.88 28.75
  A 1.21 1.20 72.3 0 1 40.90 28.24
  L 36.23 21.53
  A 5.87 5.85 -72.6 0 1 35.50 20.13
  Q 35.25 19.48 34.93 17.29
  C 34.81 16.44 34.20 15.83 33.39 15.83
  C 32.58 15.83 31.97 16.44 31.85 17.29
  Q 31.54 19.48 31.29 20.13
  A 5.87 5.85 72.6 0 1 30.56 21.53
  L 25.89 28.24
  A 1.21 1.20 -72.3 0 1 24.91 28.75
  L 22.42 28.76
  A 1.36 1.36 0.0 0 0 21.77 31.31
  L 26.29 33.78
  A 1.79 1.76 6.2 0 1 27.15 34.82
  L 28.13 38.00
  A 0.97 0.97 0.0 0 0 29.06 38.69
  L 30.29 38.69
  A 0.67 0.67 0.0 0 1 30.96 39.36
  L 30.96 45.84
  A 0.26 0.26 0.0 0 1 30.52 46.02
  L 23.96 39.47
  A 0.64 0.64 0.0 0 1 23.96 38.57
  L 24.53 38.00
  A 1.12 1.12 0.0 0 0 24.53 36.42
  L 24.11 36.00
  A 0.98 0.98 0.0 0 0 22.82 35.92
  Q 19.21 38.74 20.55 40.00
  Q 21.29 40.70 31.99 51.57
  Q 32.72 52.31 33.40 52.31"
/>
<path stroke="#969c9f" vector-effect="non-scaling-stroke" d="
  M 31.37 28.77
  L 35.53 28.73
  A 0.37 0.37 0.0 0 0 35.90 28.35
  L 35.88 27.25
  A 2.45 2.28 89.4 0 0 33.58 24.83
  L 33.24 24.83
  A 2.45 2.28 89.4 0 0 30.99 27.31
  L 31.00 28.41
  A 0.37 0.37 0.0 0 0 31.37 28.77"
/>
</g>
<path fill="#16212b" d="
  M 33.80 88.00
  L 33.04 88.00
  C 21.72 77.71 12.19 65.74 5.68 51.55
  Q 2.14 43.84 1.58 34.89
  C 0.28 14.39 18.51 -1.61 38.97 1.80
  C 54.42 4.37 65.88 17.88 65.47 33.58
  C 65.20 43.35 61.69 52.29 56.47 60.73
  Q 47.11 75.89 33.80 88.00
  Z
  M 33.41 86.58
  Q 33.55 86.58 33.69 86.54
  A 0.08 0.05 -60.6 0 0 33.73 86.52
  Q 43.87 77.33 53.34 63.55
  Q 61.87 51.13 63.82 38.53
  Q 66.35 22.17 54.76 10.98
  C 49.11 5.54 41.58 2.59 33.52 2.58
  C 25.46 2.56 17.92 5.49 12.26 10.93
  Q 0.64 22.08 3.12 38.45
  Q 5.04 51.05 13.53 63.49
  Q 22.97 77.30 33.08 86.52
  A 0.08 0.05 60.8 0 0 33.12 86.54
  Q 33.26 86.58 33.41 86.58
  Z"
/>
<path fill="#2c3f52" d="
  M 33.52 2.58
  C 41.58 2.59 49.11 5.54 54.76 10.98
  Q 66.35 22.17 63.82 38.53
  Q 61.87 51.13 53.34 63.55
  Q 43.87 77.33 33.73 86.52
  A 0.08 0.05 -60.6 0 1 33.69 86.54
  Q 33.55 86.58 33.41 86.58
  Q 33.26 86.58 33.12 86.54
  A 0.08 0.05 60.8 0 1 33.08 86.52
  Q 22.97 77.30 13.53 63.49
  Q 5.04 51.05 3.12 38.45
  Q 0.64 22.08 12.26 10.93
  C 17.92 5.49 25.46 2.56 33.52 2.58
  Z
  M 33.40 52.31
  Q 34.09 52.31 34.81 51.57
  Q 45.51 40.69 46.25 39.99
  Q 47.59 38.73 43.98 35.91
  A 0.98 0.98 0.0 0 0 42.69 35.99
  L 42.27 36.41
  A 1.12 1.12 0.0 0 0 42.27 37.99
  L 42.84 38.56
  A 0.64 0.64 0.0 0 1 42.84 39.46
  L 36.28 46.02
  A 0.26 0.26 0.0 0 1 35.84 45.84
  L 35.84 39.36
  A 0.67 0.67 0.0 0 1 36.51 38.69
  L 37.74 38.69
  A 0.97 0.97 0.0 0 0 38.67 38.00
  L 39.65 34.82
  A 1.79 1.76 -6.2 0 1 40.50 33.78
  L 45.02 31.30
  A 1.36 1.36 0.0 0 0 44.37 28.75
  L 41.88 28.75
  A 1.21 1.20 72.3 0 1 40.90 28.24
  L 36.23 21.53
  A 5.87 5.85 -72.6 0 1 35.50 20.13
  Q 35.25 19.48 34.93 17.29
  C 34.81 16.44 34.20 15.83 33.39 15.83
  C 32.58 15.83 31.97 16.44 31.85 17.29
  Q 31.54 19.48 31.29 20.13
  A 5.87 5.85 72.6 0 1 30.56 21.53
  L 25.89 28.24
  A 1.21 1.20 -72.3 0 1 24.91 28.75
  L 22.42 28.76
  A 1.36 1.36 0.0 0 0 21.77 31.31
  L 26.29 33.78
  A 1.79 1.76 6.2 0 1 27.15 34.82
  L 28.13 38.00
  A 0.97 0.97 0.0 0 0 29.06 38.69
  L 30.29 38.69
  A 0.67 0.67 0.0 0 1 30.96 39.36
  L 30.96 45.84
  A 0.26 0.26 0.0 0 1 30.52 46.02
  L 23.96 39.47
  A 0.64 0.64 0.0 0 1 23.96 38.57
  L 24.53 38.00
  A 1.12 1.12 0.0 0 0 24.53 36.42
  L 24.11 36.00
  A 0.98 0.98 0.0 0 0 22.82 35.92
  Q 19.21 38.74 20.55 40.00
  Q 21.29 40.70 31.99 51.57
  Q 32.72 52.31 33.40 52.31
  Z"
/>
<path fill="#fff8ec" d="
  M 33.39 15.83
  C 34.20 15.83 34.81 16.44 34.93 17.29
  Q 35.25 19.48 35.50 20.13
  A 5.87 5.85 -72.6 0 0 36.23 21.53
  L 40.90 28.24
  A 1.21 1.20 72.3 0 0 41.88 28.75
  L 44.37 28.75
  A 1.36 1.36 0.0 0 1 45.02 31.30
  L 40.50 33.78
  A 1.79 1.76 -6.2 0 0 39.65 34.82
  L 38.67 38.00
  A 0.97 0.97 0.0 0 1 37.74 38.69
  L 36.51 38.69
  A 0.67 0.67 0.0 0 0 35.84 39.36
  L 35.84 45.84
  A 0.26 0.26 0.0 0 0 36.28 46.02
  L 42.84 39.46
  A 0.64 0.64 0.0 0 0 42.84 38.56
  L 42.27 37.99
  A 1.12 1.12 0.0 0 1 42.27 36.41
  L 42.69 35.99
  A 0.98 0.98 0.0 0 1 43.98 35.91
  Q 47.59 38.73 46.25 39.99
  Q 45.51 40.69 34.81 51.57
  Q 34.09 52.31 33.40 52.31
  Q 32.72 52.31 31.99 51.57
  Q 21.29 40.70 20.55 40.00
  Q 19.21 38.74 22.82 35.92
  A 0.98 0.98 0.0 0 1 24.11 36.00
  L 24.53 36.42
  A 1.12 1.12 0.0 0 1 24.53 38.00
  L 23.96 38.57
  A 0.64 0.64 0.0 0 0 23.96 39.47
  L 30.52 46.02
  A 0.26 0.26 0.0 0 0 30.96 45.84
  L 30.96 39.36
  A 0.67 0.67 0.0 0 0 30.29 38.69
  L 29.06 38.69
  A 0.97 0.97 0.0 0 1 28.13 38.00
  L 27.15 34.82
  A 1.79 1.76 6.2 0 0 26.29 33.78
  L 21.77 31.31
  A 1.36 1.36 0.0 0 1 22.42 28.76
  L 24.91 28.75
  A 1.21 1.20 -72.3 0 0 25.89 28.24
  L 30.56 21.53
  A 5.87 5.85 72.6 0 0 31.29 20.13
  Q 31.54 19.48 31.85 17.29
  C 31.97 16.44 32.58 15.83 33.39 15.83
  Z
  M 31.37 28.77
  L 35.53 28.73
  A 0.37 0.37 0.0 0 0 35.90 28.35
  L 35.88 27.25
  A 2.45 2.28 89.4 0 0 33.58 24.83
  L 33.24 24.83
  A 2.45 2.28 89.4 0 0 30.99 27.31
  L 31.00 28.41
  A 0.37 0.37 0.0 0 0 31.37 28.77
  Z"
/>
<path fill="#2c3f52" d="
  M 31.37 28.77
  A 0.37 0.37 0.0 0 1 31.00 28.41
  L 30.99 27.31
  A 2.45 2.28 89.4 0 1 33.24 24.83
  L 33.58 24.83
  A 2.45 2.28 89.4 0 1 35.88 27.25
  L 35.90 28.35
  A 0.37 0.37 0.0 0 1 35.53 28.73
  L 31.37 28.77
  Z"
/>
</svg>
