<?xml version="1.0" encoding="UTF-8" standalone="no"?>
<!DOCTYPE svg PUBLIC "-//W3C//DTD SVG 1.1//EN" "http://www.w3.org/Graphics/SVG/1.1/DTD/svg11.dtd">
<svg xmlns="http://www.w3.org/2000/svg" version="1.1" viewBox="0.00 0.00 66.00 88.00">
<g stroke-width="2.00" fill="none" stroke-linecap="butt">
<path stroke="#38728d" vector-effect="non-scaling-stroke" d="
  M 33.40 86.72
  Q 33.51 86.72 33.61 86.69
  Q 33.70 86.67 33.79 86.59
  Q 47.65 73.49 56.49 58.52
  C 64.01 45.80 68.35 28.50 58.77 15.50
  C 52.79 7.39 43.82 2.50 33.53 2.48
  C 23.24 2.47 14.26 7.33 8.25 15.42
  C -1.37 28.39 2.92 45.71 10.40 58.45
  Q 19.19 73.45 33.01 86.59
  Q 33.10 86.67 33.19 86.69
  Q 33.29 86.72 33.40 86.72"
/>
<path stroke="#a6c7d3" vector-effect="non-scaling-stroke" d="
  M 32.97 40.39
  Q 35.04 40.39 34.68 36.77
  A 0.49 0.49 0.0 0 1 35.17 36.23
  L 43.24 36.23
  A 0.83 0.83 0.0 0 1 44.06 37.20
  Q 43.71 39.22 44.48 39.87
  Q 45.81 41.01 46.98 39.82
  Q 47.67 39.11 47.31 37.21
  A 0.83 0.81 85.0 0 1 48.11 36.24
  L 50.44 36.24
  A 0.93 0.92 -0.9 0 0 51.37 35.29
  Q 50.95 20.43 37.25 16.26
  Q 35.70 15.79 32.98 15.79
  Q 30.26 15.79 28.72 16.26
  Q 15.01 20.41 14.57 35.27
  A 0.93 0.92 1.0 0 0 15.50 36.22
  L 17.83 36.22
  A 0.83 0.81 -84.9 0 1 18.63 37.19
  Q 18.26 39.09 18.95 39.80
  Q 20.12 40.99 21.45 39.86
  Q 22.22 39.21 21.88 37.19
  A 0.83 0.83 0.0 0 1 22.70 36.22
  L 30.77 36.23
  A 0.49 0.49 0.0 0 1 31.25 36.76
  Q 30.89 40.39 32.97 40.39"
/>
<path stroke="#a6c7d3" vector-effect="non-scaling-stroke" d="
  M 32.98 52.23
  C 38.78 52.23 44.07 49.81 47.46 45.29
  A 0.34 0.33 -71.4 0 0 47.20 44.75
  L 41.63 44.75
  A 0.56 0.56 0.0 0 1 41.07 44.20
  L 41.02 42.16
  A 1.61 1.60 -2.6 0 0 39.31 40.60
  L 39.18 40.61
  A 1.60 1.60 0.0 0 0 37.66 42.21
  L 37.66 44.25
  A 0.53 0.53 0.0 0 1 37.04 44.77
  Q 36.98 44.76 32.98 44.76
  Q 28.98 44.76 28.93 44.77
  A 0.53 0.53 0.0 0 1 28.30 44.25
  L 28.30 42.21
  A 1.60 1.60 0.0 0 0 26.78 40.61
  L 26.65 40.60
  A 1.61 1.60 2.5 0 0 24.94 42.16
  L 24.89 44.20
  A 0.56 0.56 0.0 0 1 24.33 44.75
  L 18.76 44.76
  A 0.34 0.33 71.4 0 0 18.50 45.29
  C 21.90 49.82 27.19 52.23 32.98 52.23"
/>
</g>
<path fill="#234d60" d="
  M 33.80 88.00
  L 33.04 88.00
  C 21.89 77.86 12.25 65.84 5.82 51.96
  Q 2.90 45.65 2.04 39.51
  Q -1.06 17.33 16.78 5.97
  Q 23.49 1.70 32.35 1.36
  C 45.07 0.86 56.74 7.86 62.39 19.28
  C 66.63 27.84 66.14 38.11 63.05 47.02
  C 57.63 62.65 45.93 76.96 33.80 88.00
  Z
  M 33.40 86.72
  Q 33.51 86.72 33.61 86.69
  Q 33.70 86.67 33.79 86.59
  Q 47.65 73.49 56.49 58.52
  C 64.01 45.80 68.35 28.50 58.77 15.50
  C 52.79 7.39 43.82 2.50 33.53 2.48
  C 23.24 2.47 14.26 7.33 8.25 15.42
  C -1.37 28.39 2.92 45.71 10.40 58.45
  Q 19.19 73.45 33.01 86.59
  Q 33.10 86.67 33.19 86.69
  Q 33.29 86.72 33.40 86.72
  Z"
/>
<path fill="#4d96b9" d="
  M 33.53 2.48
  C 43.82 2.50 52.79 7.39 58.77 15.50
  C 68.35 28.50 64.01 45.80 56.49 58.52
  Q 47.65 73.49 33.79 86.59
  Q 33.70 86.67 33.61 86.69
  Q 33.51 86.72 33.40 86.72
  Q 33.29 86.72 33.19 86.69
  Q 33.10 86.67 33.01 86.59
  Q 19.19 73.45 10.40 58.45
  C 2.92 45.71 -1.37 28.39 8.25 15.42
  C 14.26 7.33 23.24 2.47 33.53 2.48
  Z
  M 32.97 40.39
  Q 35.04 40.39 34.68 36.77
  A 0.49 0.49 0.0 0 1 35.17 36.23
  L 43.24 36.23
  A 0.83 0.83 0.0 0 1 44.06 37.20
  Q 43.71 39.22 44.48 39.87
  Q 45.81 41.01 46.98 39.82
  Q 47.67 39.11 47.31 37.21
  A 0.83 0.81 85.0 0 1 48.11 36.24
  L 50.44 36.24
  A 0.93 0.92 -0.9 0 0 51.37 35.29
  Q 50.95 20.43 37.25 16.26
  Q 35.70 15.79 32.98 15.79
  Q 30.26 15.79 28.72 16.26
  Q 15.01 20.41 14.57 35.27
  A 0.93 0.92 1.0 0 0 15.50 36.22
  L 17.83 36.22
  A 0.83 0.81 -84.9 0 1 18.63 37.19
  Q 18.26 39.09 18.95 39.80
  Q 20.12 40.99 21.45 39.86
  Q 22.22 39.21 21.88 37.19
  A 0.83 0.83 0.0 0 1 22.70 36.22
  L 30.77 36.23
  A 0.49 0.49 0.0 0 1 31.25 36.76
  Q 30.89 40.39 32.97 40.39
  Z
  M 32.98 52.23
  C 38.78 52.23 44.07 49.81 47.46 45.29
  A 0.34 0.33 -71.4 0 0 47.20 44.75
  L 41.63 44.75
  A 0.56 0.56 0.0 0 1 41.07 44.20
  L 41.02 42.16
  A 1.61 1.60 -2.6 0 0 39.31 40.60
  L 39.18 40.61
  A 1.60 1.60 0.0 0 0 37.66 42.21
  L 37.66 44.25
  A 0.53 0.53 0.0 0 1 37.04 44.77
  Q 36.98 44.76 32.98 44.76
  Q 28.98 44.76 28.93 44.77
  A 0.53 0.53 0.0 0 1 28.30 44.25
  L 28.30 42.21
  A 1.60 1.60 0.0 0 0 26.78 40.61
  L 26.65 40.60
  A 1.61 1.60 2.5 0 0 24.94 42.16
  L 24.89 44.20
  A 0.56 0.56 0.0 0 1 24.33 44.75
  L 18.76 44.76
  A 0.34 0.33 71.4 0 0 18.50 45.29
  C 21.90 49.82 27.19 52.23 32.98 52.23
  Z"
/>
<path fill="#fff8ec" d="
  M 32.98 15.79
  Q 35.70 15.79 37.25 16.26
  Q 50.95 20.43 51.37 35.29
  A 0.93 0.92 -0.9 0 1 50.44 36.24
  L 48.11 36.24
  A 0.83 0.81 85.0 0 0 47.31 37.21
  Q 47.67 39.11 46.98 39.82
  Q 45.81 41.01 44.48 39.87
  Q 43.71 39.22 44.06 37.20
  A 0.83 0.83 0.0 0 0 43.24 36.23
  L 35.17 36.23
  A 0.49 0.49 0.0 0 0 34.68 36.77
  Q 35.04 40.39 32.97 40.39
  Q 30.89 40.39 31.25 36.76
  A 0.49 0.49 0.0 0 0 30.77 36.23
  L 22.70 36.22
  A 0.83 0.83 0.0 0 0 21.88 37.19
  Q 22.22 39.21 21.45 39.86
  Q 20.12 40.99 18.95 39.80
  Q 18.26 39.09 18.63 37.19
  A 0.83 0.81 -84.9 0 0 17.83 36.22
  L 15.50 36.22
  A 0.93 0.92 1.0 0 1 14.57 35.27
  Q 15.01 20.41 28.72 16.26
  Q 30.26 15.79 32.98 15.79
  Z"
/>
<path fill="#fff8ec" d="
  M 32.98 44.76
  Q 36.98 44.76 37.04 44.77
  A 0.53 0.53 0.0 0 0 37.66 44.25
  L 37.66 42.21
  A 1.60 1.60 0.0 0 1 39.18 40.61
  L 39.31 40.60
  A 1.61 1.60 -2.6 0 1 41.02 42.16
  L 41.07 44.20
  A 0.56 0.56 0.0 0 0 41.63 44.75
  L 47.20 44.75
  A 0.34 0.33 -71.4 0 1 47.46 45.29
  C 44.07 49.81 38.78 52.23 32.98 52.23
  C 27.19 52.23 21.90 49.82 18.50 45.29
  A 0.34 0.33 71.4 0 1 18.76 44.76
  L 24.33 44.75
  A 0.56 0.56 0.0 0 0 24.89 44.20
  L 24.94 42.16
  A 1.61 1.60 2.5 0 1 26.65 40.60
  L 26.78 40.61
  A 1.60 1.60 0.0 0 1 28.30 42.21
  L 28.30 44.25
  A 0.53 0.53 0.0 0 0 28.93 44.77
  Q 28.98 44.76 32.98 44.76
  Z"
/>
</svg>
