<?xml version="1.0" encoding="UTF-8" standalone="no"?>
<!DOCTYPE svg PUBLIC "-//W3C//DTD SVG 1.1//EN" "http://www.w3.org/Graphics/SVG/1.1/DTD/svg11.dtd">
<svg xmlns="http://www.w3.org/2000/svg" version="1.1" viewBox="0.00 0.00 66.00 88.00">
<g stroke-width="2.00" fill="none" stroke-linecap="butt">
<path stroke="#38728d" vector-effect="non-scaling-stroke" d="
  M 33.41 86.72
  Q 33.54 86.72 33.62 86.70
  Q 33.64 86.69 33.76 86.57
  Q 46.75 74.33 55.36 60.38
  Q 62.37 49.03 63.85 38.35
  Q 66.72 17.53 48.76 6.53
  Q 42.17 2.50 33.53 2.49
  Q 24.89 2.48 18.30 6.49
  Q 0.30 17.43 3.11 38.26
  Q 4.56 48.94 11.53 60.31
  Q 20.10 74.29 33.05 86.57
  Q 33.17 86.69 33.20 86.69
  Q 33.27 86.72 33.41 86.72"
/>
<path stroke="#a6c7d3" vector-effect="non-scaling-stroke" d="
  M 26.10 20.01
  L 39.22 19.99
  A 0.58 0.58 0.0 0 0 39.80 19.41
  L 39.80 18.47
  A 2.75 2.72 -0.1 0 0 37.05 15.75
  L 28.27 15.77
  A 2.75 2.72 -0.1 0 0 25.52 18.49
  L 25.52 19.43
  A 0.58 0.58 0.0 0 0 26.10 20.01"
/>
<path stroke="#a6c7d3" vector-effect="non-scaling-stroke" d="
  M 32.53 52.23
  Q 40.94 52.25 41.31 52.22
  A 2.57 2.56 -60.9 0 0 42.26 51.95
  Q 45.99 50.06 45.85 46.01
  Q 45.64 40.21 45.01 32.26
  Q 44.76 29.21 42.70 27.36
  A 1.65 1.64 -69.3 0 1 42.15 26.13
  L 42.15 23.81
  A 0.75 0.74 1.8 0 0 41.45 23.07
  Q 40.39 23.01 32.62 22.99
  Q 24.85 22.96 23.79 23.02
  A 0.75 0.74 -1.4 0 0 23.08 23.75
  L 23.07 26.07
  A 1.65 1.64 69.6 0 1 22.51 27.30
  Q 20.44 29.14 20.17 32.19
  Q 19.50 40.13 19.25 45.93
  Q 19.09 49.98 22.81 51.89
  A 2.57 2.56 61.2 0 0 23.76 52.17
  Q 24.13 52.21 32.53 52.23"
/>
<path stroke="#a6c7d3" vector-effect="non-scaling-stroke" d="
  M 32.56 49.26
  Q 40.24 49.28 40.50 49.24
  Q 42.83 48.93 42.84 46.58
  Q 42.87 40.96 41.93 32.06
  C 41.66 29.54 38.94 29.43 39.11 26.87
  A 0.82 0.82 0.0 0 0 38.50 26.03
  Q 38.43 26.01 32.60 26.00
  Q 26.78 25.99 26.70 26.01
  A 0.82 0.82 0.0 0 0 26.09 26.85
  C 26.25 29.41 23.53 29.51 23.25 32.03
  Q 22.28 40.93 22.30 46.55
  Q 22.30 48.90 24.62 49.21
  Q 24.89 49.25 32.56 49.26"
/>
</g>
<path fill="#224d60" d="
  M 33.80 88.00
  L 33.04 88.00
  C 16.58 73.03 -6.93 43.51 4.46 19.55
  C 12.64 2.35 33.88 -3.73 50.12 5.93
  C 59.27 11.38 65.27 21.20 65.43 32.00
  Q 65.53 38.68 63.97 44.00
  C 59.01 60.94 46.74 76.21 33.80 88.00
  Z
  M 33.41 86.72
  Q 33.54 86.72 33.62 86.70
  Q 33.64 86.69 33.76 86.57
  Q 46.75 74.33 55.36 60.38
  Q 62.37 49.03 63.85 38.35
  Q 66.72 17.53 48.76 6.53
  Q 42.17 2.50 33.53 2.49
  Q 24.89 2.48 18.30 6.49
  Q 0.30 17.43 3.11 38.26
  Q 4.56 48.94 11.53 60.31
  Q 20.10 74.29 33.05 86.57
  Q 33.17 86.69 33.20 86.69
  Q 33.27 86.72 33.41 86.72
  Z"
/>
<path fill="#4d96b9" d="
  M 33.53 2.49
  Q 42.17 2.50 48.76 6.53
  Q 66.72 17.53 63.85 38.35
  Q 62.37 49.03 55.36 60.38
  Q 46.75 74.33 33.76 86.57
  Q 33.64 86.69 33.62 86.70
  Q 33.54 86.72 33.41 86.72
  Q 33.27 86.72 33.20 86.69
  Q 33.17 86.69 33.05 86.57
  Q 20.10 74.29 11.53 60.31
  Q 4.56 48.94 3.11 38.26
  Q 0.30 17.43 18.30 6.49
  Q 24.89 2.48 33.53 2.49
  Z
  M 26.10 20.01
  L 39.22 19.99
  A 0.58 0.58 0.0 0 0 39.80 19.41
  L 39.80 18.47
  A 2.75 2.72 -0.1 0 0 37.05 15.75
  L 28.27 15.77
  A 2.75 2.72 -0.1 0 0 25.52 18.49
  L 25.52 19.43
  A 0.58 0.58 0.0 0 0 26.10 20.01
  Z
  M 32.53 52.23
  Q 40.94 52.25 41.31 52.22
  A 2.57 2.56 -60.9 0 0 42.26 51.95
  Q 45.99 50.06 45.85 46.01
  Q 45.64 40.21 45.01 32.26
  Q 44.76 29.21 42.70 27.36
  A 1.65 1.64 -69.3 0 1 42.15 26.13
  L 42.15 23.81
  A 0.75 0.74 1.8 0 0 41.45 23.07
  Q 40.39 23.01 32.62 22.99
  Q 24.85 22.96 23.79 23.02
  A 0.75 0.74 -1.4 0 0 23.08 23.75
  L 23.07 26.07
  A 1.65 1.64 69.6 0 1 22.51 27.30
  Q 20.44 29.14 20.17 32.19
  Q 19.50 40.13 19.25 45.93
  Q 19.09 49.98 22.81 51.89
  A 2.57 2.56 61.2 0 0 23.76 52.17
  Q 24.13 52.21 32.53 52.23
  Z"
/>
<path fill="#fff8ec" d="
  M 26.10 20.01
  A 0.58 0.58 0.0 0 1 25.52 19.43
  L 25.52 18.49
  A 2.75 2.72 -0.1 0 1 28.27 15.77
  L 37.05 15.75
  A 2.75 2.72 -0.1 0 1 39.80 18.47
  L 39.80 19.41
  A 0.58 0.58 0.0 0 1 39.22 19.99
  L 26.10 20.01
  Z"
/>
<path fill="#fff8ec" d="
  M 32.62 22.99
  Q 40.39 23.01 41.45 23.07
  A 0.75 0.74 1.8 0 1 42.15 23.81
  L 42.15 26.13
  A 1.65 1.64 -69.3 0 0 42.70 27.36
  Q 44.76 29.21 45.01 32.26
  Q 45.64 40.21 45.85 46.01
  Q 45.99 50.06 42.26 51.95
  A 2.57 2.56 -60.9 0 1 41.31 52.22
  Q 40.94 52.25 32.53 52.23
  Q 24.13 52.21 23.76 52.17
  A 2.57 2.56 61.2 0 1 22.81 51.89
  Q 19.09 49.98 19.25 45.93
  Q 19.50 40.13 20.17 32.19
  Q 20.44 29.14 22.51 27.30
  A 1.65 1.64 69.6 0 0 23.07 26.07
  L 23.08 23.75
  A 0.75 0.74 -1.4 0 1 23.79 23.02
  Q 24.85 22.96 32.62 22.99
  Z
  M 32.56 49.26
  Q 40.24 49.28 40.50 49.24
  Q 42.83 48.93 42.84 46.58
  Q 42.87 40.96 41.93 32.06
  C 41.66 29.54 38.94 29.43 39.11 26.87
  A 0.82 0.82 0.0 0 0 38.50 26.03
  Q 38.43 26.01 32.60 26.00
  Q 26.78 25.99 26.70 26.01
  A 0.82 0.82 0.0 0 0 26.09 26.85
  C 26.25 29.41 23.53 29.51 23.25 32.03
  Q 22.28 40.93 22.30 46.55
  Q 22.30 48.90 24.62 49.21
  Q 24.89 49.25 32.56 49.26
  Z"
/>
<path fill="#4d96b9" d="
  M 32.60 26.00
  Q 38.43 26.01 38.50 26.03
  A 0.82 0.82 0.0 0 1 39.11 26.87
  C 38.94 29.43 41.66 29.54 41.93 32.06
  Q 42.87 40.96 42.84 46.58
  Q 42.83 48.93 40.50 49.24
  Q 40.24 49.28 32.56 49.26
  Q 24.89 49.25 24.62 49.21
  Q 22.30 48.90 22.30 46.55
  Q 22.28 40.93 23.25 32.03
  C 23.53 29.51 26.25 29.41 26.09 26.85
  A 0.82 0.82 0.0 0 1 26.70 26.01
  Q 26.78 25.99 32.60 26.00
  Z"
/>
</svg>
