<?xml version="1.0" encoding="UTF-8" standalone="no"?>
<!DOCTYPE svg PUBLIC "-//W3C//DTD SVG 1.1//EN" "http://www.w3.org/Graphics/SVG/1.1/DTD/svg11.dtd">
<svg xmlns="http://www.w3.org/2000/svg" version="1.1" viewBox="0.00 0.00 66.00 88.00">
<g stroke-width="2.00" fill="none" stroke-linecap="butt">
<path stroke="#26433a" vector-effect="non-scaling-stroke" d="
  M 33.43 86.60
  C 34.19 86.60 33.55 86.67 33.78 86.46
  Q 47.49 73.78 56.38 58.65
  Q 62.41 48.38 63.78 38.86
  Q 66.86 17.55 48.63 6.44
  Q 42.24 2.55 33.52 2.54
  Q 24.80 2.53 18.40 6.41
  Q 0.14 17.48 3.18 38.79
  Q 4.53 48.32 10.53 58.60
  Q 19.39 73.75 33.08 86.46
  C 33.30 86.67 32.66 86.60 33.43 86.60"
/>
<path stroke="#99a89d" vector-effect="non-scaling-stroke" d="
  M 32.97 28.00
  Q 46.48 28.01 46.97 27.97
  A 0.54 0.53 -6.0 0 0 47.46 27.37
  Q 47.07 24.20 44.49 22.82
  C 42.51 21.77 39.68 22.48 38.20 22.29
  A 0.72 0.71 -1.4 0 1 37.59 21.72
  Q 36.77 17.47 32.97 17.47
  Q 29.17 17.47 28.34 21.71
  A 0.72 0.71 1.5 0 1 27.73 22.29
  C 26.25 22.48 23.42 21.76 21.44 22.81
  Q 18.86 24.19 18.47 27.36
  A 0.54 0.53 6.0 0 0 18.96 27.96
  Q 19.45 28.00 32.97 28.00"
/>
<path stroke="#99a89d" vector-effect="non-scaling-stroke" d="
  M 32.99 51.00
  C 37.64 51.00 43.58 51.71 45.60 49.97
  Q 47.35 48.46 47.37 45.73
  Q 47.45 38.87 47.39 35.69
  Q 47.38 35.48 49.23 35.48
  A 1.91 1.90 2.1 0 0 51.13 33.72
  L 51.14 33.62
  A 1.67 1.67 0.0 0 0 49.50 31.84
  Q 41.12 31.69 32.98 31.76
  Q 24.85 31.69 16.46 31.84
  A 1.67 1.67 0.0 0 0 14.82 33.63
  L 14.83 33.73
  A 1.91 1.90 -2.1 0 0 16.74 35.49
  Q 18.59 35.49 18.58 35.70
  Q 18.52 38.88 18.60 45.74
  Q 18.62 48.47 20.37 49.97
  C 22.39 51.72 28.33 51.00 32.99 51.00"
/>
<path stroke="#99a89d" vector-effect="non-scaling-stroke" d="
  M 31.43 22.28
  L 34.51 22.26
  A 0.21 0.21 0.0 0 0 34.72 22.05
  L 34.71 21.94
  A 1.63 1.60 -0.4 0 0 33.07 20.35
  L 32.83 20.35
  A 1.63 1.60 -0.4 0 0 31.21 21.96
  L 31.22 22.07
  A 0.21 0.21 0.0 0 0 31.43 22.28"
/>
</g>
<path fill="#192e27" d="
  M 33.80 88.00
  L 33.15 88.00
  Q 15.61 72.48 6.00 52.51
  Q 2.24 44.70 1.63 35.22
  Q 1.01 25.70 5.26 17.96
  C 11.81 6.02 25.19 -0.50 38.97 1.80
  C 54.69 4.43 66.17 18.28 65.45 34.22
  Q 65.11 41.72 62.41 48.84
  C 56.78 63.66 45.45 77.40 33.80 88.00
  Z
  M 33.43 86.60
  C 34.19 86.60 33.55 86.67 33.78 86.46
  Q 47.49 73.78 56.38 58.65
  Q 62.41 48.38 63.78 38.86
  Q 66.86 17.55 48.63 6.44
  Q 42.24 2.55 33.52 2.54
  Q 24.80 2.53 18.40 6.41
  Q 0.14 17.48 3.18 38.79
  Q 4.53 48.32 10.53 58.60
  Q 19.39 73.75 33.08 86.46
  C 33.30 86.67 32.66 86.60 33.43 86.60
  Z"
/>
<path fill="#32574d" d="
  M 33.52 2.54
  Q 42.24 2.55 48.63 6.44
  Q 66.86 17.55 63.78 38.86
  Q 62.41 48.38 56.38 58.65
  Q 47.49 73.78 33.78 86.46
  C 33.55 86.67 34.19 86.60 33.43 86.60
  C 32.66 86.60 33.30 86.67 33.08 86.46
  Q 19.39 73.75 10.53 58.60
  Q 4.53 48.32 3.18 38.79
  Q 0.14 17.48 18.40 6.41
  Q 24.80 2.53 33.52 2.54
  Z
  M 32.97 28.00
  Q 46.48 28.01 46.97 27.97
  A 0.54 0.53 -6.0 0 0 47.46 27.37
  Q 47.07 24.20 44.49 22.82
  C 42.51 21.77 39.68 22.48 38.20 22.29
  A 0.72 0.71 -1.4 0 1 37.59 21.72
  Q 36.77 17.47 32.97 17.47
  Q 29.17 17.47 28.34 21.71
  A 0.72 0.71 1.5 0 1 27.73 22.29
  C 26.25 22.48 23.42 21.76 21.44 22.81
  Q 18.86 24.19 18.47 27.36
  A 0.54 0.53 6.0 0 0 18.96 27.96
  Q 19.45 28.00 32.97 28.00
  Z
  M 32.99 51.00
  C 37.64 51.00 43.58 51.71 45.60 49.97
  Q 47.35 48.46 47.37 45.73
  Q 47.45 38.87 47.39 35.69
  Q 47.38 35.48 49.23 35.48
  A 1.91 1.90 2.1 0 0 51.13 33.72
  L 51.14 33.62
  A 1.67 1.67 0.0 0 0 49.50 31.84
  Q 41.12 31.69 32.98 31.76
  Q 24.85 31.69 16.46 31.84
  A 1.67 1.67 0.0 0 0 14.82 33.63
  L 14.83 33.73
  A 1.91 1.90 -2.1 0 0 16.74 35.49
  Q 18.59 35.49 18.58 35.70
  Q 18.52 38.88 18.60 45.74
  Q 18.62 48.47 20.37 49.97
  C 22.39 51.72 28.33 51.00 32.99 51.00
  Z"
/>
<path fill="#fff8ec" d="
  M 32.97 17.47
  Q 36.77 17.47 37.59 21.72
  A 0.72 0.71 -1.4 0 0 38.20 22.29
  C 39.68 22.48 42.51 21.77 44.49 22.82
  Q 47.07 24.20 47.46 27.37
  A 0.54 0.53 -6.0 0 1 46.97 27.97
  Q 46.48 28.01 32.97 28.00
  Q 19.45 28.00 18.96 27.96
  A 0.54 0.53 6.0 0 1 18.47 27.36
  Q 18.86 24.19 21.44 22.81
  C 23.42 21.76 26.25 22.48 27.73 22.29
  A 0.72 0.71 1.5 0 0 28.34 21.71
  Q 29.17 17.47 32.97 17.47
  Z
  M 31.43 22.28
  L 34.51 22.26
  A 0.21 0.21 0.0 0 0 34.72 22.05
  L 34.71 21.94
  A 1.63 1.60 -0.4 0 0 33.07 20.35
  L 32.83 20.35
  A 1.63 1.60 -0.4 0 0 31.21 21.96
  L 31.22 22.07
  A 0.21 0.21 0.0 0 0 31.43 22.28
  Z"
/>
<path fill="#32574d" d="
  M 31.43 22.28
  A 0.21 0.21 0.0 0 1 31.22 22.07
  L 31.21 21.96
  A 1.63 1.60 -0.4 0 1 32.83 20.35
  L 33.07 20.35
  A 1.63 1.60 -0.4 0 1 34.71 21.94
  L 34.72 22.05
  A 0.21 0.21 0.0 0 1 34.51 22.26
  L 31.43 22.28
  Z"
/>
<path fill="#fff8ec" d="
  M 32.98 31.76
  Q 41.12 31.69 49.50 31.84
  A 1.67 1.67 0.0 0 1 51.14 33.62
  L 51.13 33.72
  A 1.91 1.90 2.1 0 1 49.23 35.48
  Q 47.38 35.48 47.39 35.69
  Q 47.45 38.87 47.37 45.73
  Q 47.35 48.46 45.60 49.97
  C 43.58 51.71 37.64 51.00 32.99 51.00
  C 28.33 51.00 22.39 51.72 20.37 49.97
  Q 18.62 48.47 18.60 45.74
  Q 18.52 38.88 18.58 35.70
  Q 18.59 35.49 16.74 35.49
  A 1.91 1.90 -2.1 0 1 14.83 33.73
  L 14.82 33.63
  A 1.67 1.67 0.0 0 1 16.46 31.84
  Q 24.85 31.69 32.98 31.76
  Z"
/>
</svg>
