<?xml version="1.0" encoding="UTF-8" standalone="no"?>
<!DOCTYPE svg PUBLIC "-//W3C//DTD SVG 1.1//EN" "http://www.w3.org/Graphics/SVG/1.1/DTD/svg11.dtd">
<svg xmlns="http://www.w3.org/2000/svg" version="1.1" viewBox="0.00 0.00 66.00 88.00">
<g stroke-width="2.00" fill="none" stroke-linecap="butt">
<path stroke="#38728d" vector-effect="non-scaling-stroke" d="
  M 33.40 86.72
  Q 33.51 86.72 33.61 86.69
  Q 33.65 86.68 33.77 86.57
  C 45.29 75.52 55.72 62.85 61.28 48.29
  C 68.06 30.53 63.25 12.61 45.20 4.80
  Q 39.83 2.48 33.54 2.47
  Q 27.24 2.46 21.86 4.76
  C 3.79 12.51 -1.08 30.42 5.65 48.20
  C 11.16 62.78 21.55 75.48 33.03 86.57
  Q 33.15 86.68 33.19 86.69
  Q 33.29 86.72 33.40 86.72"
/>
<path stroke="#a6c7d3" vector-effect="non-scaling-stroke" d="
  M 32.60 52.26
  C 35.63 52.26 40.41 47.85 42.11 45.69
  C 44.42 42.76 46.79 38.76 46.91 35.25
  Q 46.92 34.95 46.91 17.40
  A 1.57 1.57 0.0 0 0 45.35 15.83
  Q 38.97 15.77 32.63 15.77
  Q 26.29 15.76 19.91 15.80
  A 1.57 1.57 0.0 0 0 18.35 17.37
  Q 18.31 34.92 18.32 35.22
  C 18.43 38.73 20.80 42.74 23.10 45.68
  C 24.80 47.83 29.57 52.26 32.60 52.26"
/>
<path stroke="#a6c7d3" vector-effect="non-scaling-stroke" d="
  M 32.59 47.15
  Q 33.05 47.15 33.27 47.03
  Q 38.33 44.23 41.00 38.80
  Q 42.35 36.05 42.20 30.52
  Q 42.09 26.72 42.14 21.35
  A 0.74 0.74 0.0 0 0 41.43 20.60
  Q 38.93 20.49 32.65 20.48
  Q 26.37 20.47 23.86 20.56
  A 0.74 0.74 0.0 0 0 23.15 21.31
  Q 23.18 26.68 23.05 30.48
  Q 22.88 36.01 24.22 38.76
  Q 26.87 44.21 31.91 47.02
  Q 32.14 47.15 32.59 47.15"
/>
<path stroke="#a6c7d3" vector-effect="non-scaling-stroke" d="
  M 37.65 24.52
  L 27.63 24.50
  A 0.44 0.44 0.0 0 0 27.18 24.94
  L 27.18 29.82
  A 12.08 5.32 -89.9 0 0 32.47 41.91
  L 32.73 41.91
  A 12.08 5.32 -89.9 0 0 38.08 29.84
  L 38.08 24.96
  A 0.44 0.44 0.0 0 0 37.65 24.52"
/>
</g>
<path fill="#224d60" d="
  M 33.81 88.00
  L 33.04 88.00
  C 21.91 77.89 11.83 65.40 5.58 51.42
  Q 2.20 43.86 1.59 34.83
  C 0.57 19.52 10.58 6.47 25.12 2.43
  Q 35.64 -0.49 46.64 4.14
  Q 56.40 8.25 61.98 18.50
  C 67.49 28.62 65.88 41.33 61.23 51.73
  C 55.07 65.52 44.92 77.85 33.81 88.00
  Z
  M 33.40 86.72
  Q 33.51 86.72 33.61 86.69
  Q 33.65 86.68 33.77 86.57
  C 45.29 75.52 55.72 62.85 61.28 48.29
  C 68.06 30.53 63.25 12.61 45.20 4.80
  Q 39.83 2.48 33.54 2.47
  Q 27.24 2.46 21.86 4.76
  C 3.79 12.51 -1.08 30.42 5.65 48.20
  C 11.16 62.78 21.55 75.48 33.03 86.57
  Q 33.15 86.68 33.19 86.69
  Q 33.29 86.72 33.40 86.72
  Z"
/>
<path fill="#4d96b9" d="
  M 33.54 2.47
  Q 39.83 2.48 45.20 4.80
  C 63.25 12.61 68.06 30.53 61.28 48.29
  C 55.72 62.85 45.29 75.52 33.77 86.57
  Q 33.65 86.68 33.61 86.69
  Q 33.51 86.72 33.40 86.72
  Q 33.29 86.72 33.19 86.69
  Q 33.15 86.68 33.03 86.57
  C 21.55 75.48 11.16 62.78 5.65 48.20
  C -1.08 30.42 3.79 12.51 21.86 4.76
  Q 27.24 2.46 33.54 2.47
  Z
  M 32.60 52.26
  C 35.63 52.26 40.41 47.85 42.11 45.69
  C 44.42 42.76 46.79 38.76 46.91 35.25
  Q 46.92 34.95 46.91 17.40
  A 1.57 1.57 0.0 0 0 45.35 15.83
  Q 38.97 15.77 32.63 15.77
  Q 26.29 15.76 19.91 15.80
  A 1.57 1.57 0.0 0 0 18.35 17.37
  Q 18.31 34.92 18.32 35.22
  C 18.43 38.73 20.80 42.74 23.10 45.68
  C 24.80 47.83 29.57 52.26 32.60 52.26
  Z"
/>
<path fill="#fff8ec" d="
  M 32.63 15.77
  Q 38.97 15.77 45.35 15.83
  A 1.57 1.57 0.0 0 1 46.91 17.40
  Q 46.92 34.95 46.91 35.25
  C 46.79 38.76 44.42 42.76 42.11 45.69
  C 40.41 47.85 35.63 52.26 32.60 52.26
  C 29.57 52.26 24.80 47.83 23.10 45.68
  C 20.80 42.74 18.43 38.73 18.32 35.22
  Q 18.31 34.92 18.35 17.37
  A 1.57 1.57 0.0 0 1 19.91 15.80
  Q 26.29 15.76 32.63 15.77
  Z
  M 32.59 47.15
  Q 33.05 47.15 33.27 47.03
  Q 38.33 44.23 41.00 38.80
  Q 42.35 36.05 42.20 30.52
  Q 42.09 26.72 42.14 21.35
  A 0.74 0.74 0.0 0 0 41.43 20.60
  Q 38.93 20.49 32.65 20.48
  Q 26.37 20.47 23.86 20.56
  A 0.74 0.74 0.0 0 0 23.15 21.31
  Q 23.18 26.68 23.05 30.48
  Q 22.88 36.01 24.22 38.76
  Q 26.87 44.21 31.91 47.02
  Q 32.14 47.15 32.59 47.15
  Z"
/>
<path fill="#4d96b9" d="
  M 32.65 20.48
  Q 38.93 20.49 41.43 20.60
  A 0.74 0.74 0.0 0 1 42.14 21.35
  Q 42.09 26.72 42.20 30.52
  Q 42.35 36.05 41.00 38.80
  Q 38.33 44.23 33.27 47.03
  Q 33.05 47.15 32.59 47.15
  Q 32.14 47.15 31.91 47.02
  Q 26.87 44.21 24.22 38.76
  Q 22.88 36.01 23.05 30.48
  Q 23.18 26.68 23.15 21.31
  A 0.74 0.74 0.0 0 1 23.86 20.56
  Q 26.37 20.47 32.65 20.48
  Z
  M 37.65 24.52
  L 27.63 24.50
  A 0.44 0.44 0.0 0 0 27.18 24.94
  L 27.18 29.82
  A 12.08 5.32 -89.9 0 0 32.47 41.91
  L 32.73 41.91
  A 12.08 5.32 -89.9 0 0 38.08 29.84
  L 38.08 24.96
  A 0.44 0.44 0.0 0 0 37.65 24.52
  Z"
/>
<path fill="#fff8ec" d="
  M 37.65 24.52
  A 0.44 0.44 0.0 0 1 38.08 24.96
  L 38.08 29.84
  A 12.08 5.32 -89.9 0 1 32.73 41.91
  L 32.47 41.91
  A 12.08 5.32 -89.9 0 1 27.18 29.82
  L 27.18 24.94
  A 0.44 0.44 0.0 0 1 27.63 24.50
  L 37.65 24.52
  Z"
/>
</svg>
