<?xml version="1.0" encoding="UTF-8" standalone="no"?>
<!DOCTYPE svg PUBLIC "-//W3C//DTD SVG 1.1//EN" "http://www.w3.org/Graphics/SVG/1.1/DTD/svg11.dtd">
<svg xmlns="http://www.w3.org/2000/svg" version="1.1" viewBox="0.00 0.00 66.00 88.00">
<g stroke-width="2.00" fill="none" stroke-linecap="butt">
<path stroke="#21303f" vector-effect="non-scaling-stroke" d="
  M 33.39 86.57
  Q 33.60 86.57 33.96 86.24
  Q 47.92 73.16 56.37 58.63
  C 63.90 45.70 68.40 28.84 58.72 15.55
  Q 49.83 3.35 34.51 2.50
  Q 33.94 2.47 33.51 2.47
  Q 33.09 2.47 32.52 2.50
  Q 17.19 3.30 8.27 15.48
  C -1.45 28.74 3.00 45.61 10.50 58.56
  Q 18.91 73.12 32.83 86.24
  Q 33.18 86.57 33.39 86.57"
/>
<path stroke="#969c9f" vector-effect="non-scaling-stroke" d="
  M 33.00 32.50
  Q 36.23 32.50 36.57 32.54
  A 1.22 1.22 0.0 0 1 37.63 33.75
  L 37.65 47.91
  A 0.59 0.58 -90.0 0 0 38.23 48.50
  L 47.96 48.50
  A 0.64 0.63 -90.0 0 0 48.59 47.86
  L 48.59 20.19
  A 0.63 0.62 1.2 0 0 47.99 19.57
  Q 46.04 19.48 33.00 19.49
  Q 19.95 19.49 18.01 19.57
  A 0.63 0.62 -1.2 0 0 17.40 20.19
  L 17.41 47.86
  A 0.64 0.63 90.0 0 0 18.04 48.50
  L 27.77 48.50
  A 0.59 0.58 90.0 0 0 28.35 47.91
  L 28.36 33.75
  A 1.22 1.22 0.0 0 1 29.43 32.54
  Q 29.76 32.50 33.00 32.50"
/>
</g>
<path fill="#16212b" d="
  M 33.80 88.00
  L 33.04 88.00
  C 21.72 77.71 12.19 65.74 5.68 51.55
  Q 2.14 43.84 1.57 34.89
  C 0.28 14.44 18.43 -1.55 38.84 1.78
  C 54.57 4.34 66.10 18.13 65.46 34.06
  C 64.63 54.56 48.42 74.70 33.80 88.00
  Z
  M 33.39 86.57
  Q 33.60 86.57 33.96 86.24
  Q 47.92 73.16 56.37 58.63
  C 63.90 45.70 68.40 28.84 58.72 15.55
  Q 49.83 3.35 34.51 2.50
  Q 33.94 2.47 33.51 2.47
  Q 33.09 2.47 32.52 2.50
  Q 17.19 3.30 8.27 15.48
  C -1.45 28.74 3.00 45.61 10.50 58.56
  Q 18.91 73.12 32.83 86.24
  Q 33.18 86.57 33.39 86.57
  Z"
/>
<path fill="#2c3f52" d="
  M 33.51 2.47
  Q 33.94 2.47 34.51 2.50
  Q 49.83 3.35 58.72 15.55
  C 68.40 28.84 63.90 45.70 56.37 58.63
  Q 47.92 73.16 33.96 86.24
  Q 33.60 86.57 33.39 86.57
  Q 33.18 86.57 32.83 86.24
  Q 18.91 73.12 10.50 58.56
  C 3.00 45.61 -1.45 28.74 8.27 15.48
  Q 17.19 3.30 32.52 2.50
  Q 33.09 2.47 33.51 2.47
  Z
  M 33.00 32.50
  Q 36.23 32.50 36.57 32.54
  A 1.22 1.22 0.0 0 1 37.63 33.75
  L 37.65 47.91
  A 0.59 0.58 -90.0 0 0 38.23 48.50
  L 47.96 48.50
  A 0.64 0.63 -90.0 0 0 48.59 47.86
  L 48.59 20.19
  A 0.63 0.62 1.2 0 0 47.99 19.57
  Q 46.04 19.48 33.00 19.49
  Q 19.95 19.49 18.01 19.57
  A 0.63 0.62 -1.2 0 0 17.40 20.19
  L 17.41 47.86
  A 0.64 0.63 90.0 0 0 18.04 48.50
  L 27.77 48.50
  A 0.59 0.58 90.0 0 0 28.35 47.91
  L 28.36 33.75
  A 1.22 1.22 0.0 0 1 29.43 32.54
  Q 29.76 32.50 33.00 32.50
  Z"
/>
<path fill="#fff8ec" d="
  M 33.00 19.49
  Q 46.04 19.48 47.99 19.57
  A 0.63 0.62 1.2 0 1 48.59 20.19
  L 48.59 47.86
  A 0.64 0.63 -90.0 0 1 47.96 48.50
  L 38.23 48.50
  A 0.59 0.58 -90.0 0 1 37.65 47.91
  L 37.63 33.75
  A 1.22 1.22 0.0 0 0 36.57 32.54
  Q 36.23 32.50 33.00 32.50
  Q 29.76 32.50 29.43 32.54
  A 1.22 1.22 0.0 0 0 28.36 33.75
  L 28.35 47.91
  A 0.59 0.58 90.0 0 1 27.77 48.50
  L 18.04 48.50
  A 0.64 0.63 90.0 0 1 17.41 47.86
  L 17.40 20.19
  A 0.63 0.62 -1.2 0 1 18.01 19.57
  Q 19.95 19.49 33.00 19.49
  Z"
/>
</svg>
