<?xml version="1.0" encoding="UTF-8" standalone="no"?>
<!DOCTYPE svg PUBLIC "-//W3C//DTD SVG 1.1//EN" "http://www.w3.org/Graphics/SVG/1.1/DTD/svg11.dtd">
<svg xmlns="http://www.w3.org/2000/svg" version="1.1" viewBox="0.00 0.00 66.00 88.00">
<g stroke-width="2.00" fill="none" stroke-linecap="butt">
<path stroke="#574f7b" vector-effect="non-scaling-stroke" d="
  M 33.41 86.66
  Q 33.47 86.66 33.52 86.65
  A 0.29 0.07 -46.4 0 0 33.70 86.54
  Q 46.70 74.52 55.57 60.05
  C 66.06 42.93 69.54 21.81 51.54 8.32
  Q 43.81 2.53 33.53 2.51
  Q 23.25 2.50 15.51 8.27
  C -2.53 21.70 0.88 42.83 11.32 59.98
  Q 20.15 74.48 33.11 86.54
  A 0.29 0.07 46.5 0 0 33.29 86.65
  Q 33.34 86.66 33.41 86.66"
/>
<path stroke="#bab0c7" vector-effect="non-scaling-stroke" d="
  M 33.20 26.23
  Q 33.59 26.23 33.98 26.19
  A 0.69 0.68 -3.2 0 0 34.59 25.51
  L 34.59 19.35
  A 0.51 0.51 0.0 0 1 35.25 18.86
  Q 36.70 19.29 36.96 19.80
  A 0.27 0.26 53.8 0 0 37.39 19.87
  L 38.57 18.69
  A 0.96 0.95 -52.7 0 0 38.37 17.19
  Q 36.09 15.89 33.16 15.82
  Q 30.23 15.91 27.96 17.23
  A 0.96 0.95 52.3 0 0 27.77 18.73
  L 28.96 19.90
  A 0.27 0.26 -54.3 0 0 29.39 19.83
  Q 29.65 19.32 31.09 18.88
  A 0.51 0.51 0.0 0 1 31.76 19.36
  L 31.81 25.52
  A 0.69 0.68 2.8 0 0 32.42 26.19
  Q 32.81 26.23 33.20 26.23"
/>
<path stroke="#bab0c7" vector-effect="non-scaling-stroke" d="
  M 43.10 30.34
  A 1.32 1.32 0.0 0 0 41.78 29.02
  L 24.56 29.02
  A 1.32 1.32 0.0 0 0 23.24 30.34
  L 23.24 30.40
  A 1.32 1.32 0.0 0 0 24.56 31.72
  L 41.78 31.72
  A 1.32 1.32 0.0 0 0 43.10 30.40
  L 43.10 30.34"
/>
<path stroke="#bab0c7" vector-effect="non-scaling-stroke" d="
  M 30.01 51.78
  L 32.04 49.75
  A 1.39 1.39 0.0 0 1 32.90 49.36
  Q 34.73 49.21 36.54 46.65
  A 1.23 1.21 -27.6 0 0 36.77 45.94
  L 36.77 34.80
  A 0.32 0.31 -0.0 0 0 36.45 34.49
  L 29.91 34.49
  A 0.33 0.33 0.0 0 0 29.58 34.82
  L 29.58 51.60
  A 0.25 0.25 0.0 0 0 30.01 51.78"
/>
<path stroke="#bab0c7" vector-effect="non-scaling-stroke" d="
  M 35.18 50.44
  Q 34.43 51.28 34.07 51.76
  A 0.34 0.34 0.0 0 0 34.35 52.31
  Q 35.25 52.27 36.13 51.28
  Q 37.01 50.28 36.93 49.39
  A 0.34 0.34 0.0 0 0 36.35 49.17
  Q 35.92 49.59 35.18 50.44"
/>
</g>
<path fill="#3a3554" d="
  M 33.79 88.00
  L 33.14 88.00
  Q 15.91 72.74 6.24 53.02
  Q 2.20 44.79 1.61 34.87
  C 0.08 9.49 27.06 -6.47 48.93 5.25
  Q 55.23 8.62 59.28 14.19
  Q 67.49 25.46 64.88 39.52
  Q 62.48 52.51 54.50 64.23
  Q 45.61 77.27 33.79 88.00
  Z
  M 33.41 86.66
  Q 33.47 86.66 33.52 86.65
  A 0.29 0.07 -46.4 0 0 33.70 86.54
  Q 46.70 74.52 55.57 60.05
  C 66.06 42.93 69.54 21.81 51.54 8.32
  Q 43.81 2.53 33.53 2.51
  Q 23.25 2.50 15.51 8.27
  C -2.53 21.70 0.88 42.83 11.32 59.98
  Q 20.15 74.48 33.11 86.54
  A 0.29 0.07 46.5 0 0 33.29 86.65
  Q 33.34 86.66 33.41 86.66
  Z"
/>
<path fill="#7468a1" d="
  M 33.53 2.51
  Q 43.81 2.53 51.54 8.32
  C 69.54 21.81 66.06 42.93 55.57 60.05
  Q 46.70 74.52 33.70 86.54
  A 0.29 0.07 -46.4 0 1 33.52 86.65
  Q 33.47 86.66 33.41 86.66
  Q 33.34 86.66 33.29 86.65
  A 0.29 0.07 46.5 0 1 33.11 86.54
  Q 20.15 74.48 11.32 59.98
  C 0.88 42.83 -2.53 21.70 15.51 8.27
  Q 23.25 2.50 33.53 2.51
  Z
  M 33.20 26.23
  Q 33.59 26.23 33.98 26.19
  A 0.69 0.68 -3.2 0 0 34.59 25.51
  L 34.59 19.35
  A 0.51 0.51 0.0 0 1 35.25 18.86
  Q 36.70 19.29 36.96 19.80
  A 0.27 0.26 53.8 0 0 37.39 19.87
  L 38.57 18.69
  A 0.96 0.95 -52.7 0 0 38.37 17.19
  Q 36.09 15.89 33.16 15.82
  Q 30.23 15.91 27.96 17.23
  A 0.96 0.95 52.3 0 0 27.77 18.73
  L 28.96 19.90
  A 0.27 0.26 -54.3 0 0 29.39 19.83
  Q 29.65 19.32 31.09 18.88
  A 0.51 0.51 0.0 0 1 31.76 19.36
  L 31.81 25.52
  A 0.69 0.68 2.8 0 0 32.42 26.19
  Q 32.81 26.23 33.20 26.23
  Z
  M 43.10 30.34
  A 1.32 1.32 0.0 0 0 41.78 29.02
  L 24.56 29.02
  A 1.32 1.32 0.0 0 0 23.24 30.34
  L 23.24 30.40
  A 1.32 1.32 0.0 0 0 24.56 31.72
  L 41.78 31.72
  A 1.32 1.32 0.0 0 0 43.10 30.40
  L 43.10 30.34
  Z
  M 30.01 51.78
  L 32.04 49.75
  A 1.39 1.39 0.0 0 1 32.90 49.36
  Q 34.73 49.21 36.54 46.65
  A 1.23 1.21 -27.6 0 0 36.77 45.94
  L 36.77 34.80
  A 0.32 0.31 -0.0 0 0 36.45 34.49
  L 29.91 34.49
  A 0.33 0.33 0.0 0 0 29.58 34.82
  L 29.58 51.60
  A 0.25 0.25 0.0 0 0 30.01 51.78
  Z
  M 35.18 50.44
  Q 34.43 51.28 34.07 51.76
  A 0.34 0.34 0.0 0 0 34.35 52.31
  Q 35.25 52.27 36.13 51.28
  Q 37.01 50.28 36.93 49.39
  A 0.34 0.34 0.0 0 0 36.35 49.17
  Q 35.92 49.59 35.18 50.44
  Z"
/>
<path fill="#fff8ec" d="
  M 33.16 15.82
  Q 36.09 15.89 38.37 17.19
  A 0.96 0.95 -52.7 0 1 38.57 18.69
  L 37.39 19.87
  A 0.27 0.26 53.8 0 1 36.96 19.80
  Q 36.70 19.29 35.25 18.86
  A 0.51 0.51 0.0 0 0 34.59 19.35
  L 34.59 25.51
  A 0.69 0.68 -3.2 0 1 33.98 26.19
  Q 33.59 26.23 33.20 26.23
  Q 32.81 26.23 32.42 26.19
  A 0.69 0.68 2.8 0 1 31.81 25.52
  L 31.76 19.36
  A 0.51 0.51 0.0 0 0 31.09 18.88
  Q 29.65 19.32 29.39 19.83
  A 0.27 0.26 -54.3 0 1 28.96 19.90
  L 27.77 18.73
  A 0.96 0.95 52.3 0 1 27.96 17.23
  Q 30.23 15.91 33.16 15.82
  Z"
/>
<rect fill="#fff8ec" x="23.24" y="29.02" width="19.86" height="2.70" rx="1.32"/>
<path fill="#fff8ec" d="
  M 29.58 51.60
  L 29.58 34.82
  A 0.33 0.33 0.0 0 1 29.91 34.49
  L 36.45 34.49
  A 0.32 0.31 0.0 0 1 36.77 34.80
  L 36.77 45.94
  A 1.23 1.21 -27.6 0 1 36.54 46.65
  Q 34.73 49.21 32.90 49.36
  A 1.39 1.39 0.0 0 0 32.04 49.75
  L 30.01 51.78
  A 0.25 0.25 0.0 0 1 29.58 51.60
  Z"
/>
<path fill="#fff8ec" d="
  M 36.13 51.28
  Q 35.25 52.27 34.35 52.31
  A 0.34 0.34 0.0 0 1 34.07 51.76
  Q 34.43 51.28 35.18 50.44
  Q 35.92 49.59 36.35 49.17
  A 0.34 0.34 0.0 0 1 36.93 49.39
  Q 37.01 50.28 36.13 51.28
  Z"
/>
</svg>
