<?xml version="1.0" encoding="UTF-8" standalone="no"?>
<!DOCTYPE svg PUBLIC "-//W3C//DTD SVG 1.1//EN" "http://www.w3.org/Graphics/SVG/1.1/DTD/svg11.dtd">
<svg xmlns="http://www.w3.org/2000/svg" version="1.1" viewBox="0.00 0.00 66.00 88.00">
<g stroke-width="2.00" fill="none" stroke-linecap="butt">
<path stroke="#574f7b" vector-effect="non-scaling-stroke" d="
  M 33.41 86.66
  Q 33.47 86.66 33.52 86.66
  A 0.23 0.02 -41.0 0 0 33.68 86.54
  C 49.65 71.89 72.66 42.89 61.23 19.67
  C 56.23 9.51 46.37 3.24 34.99 2.57
  Q 33.62 2.49 33.53 2.49
  Q 33.44 2.49 32.08 2.57
  C 20.69 3.20 10.81 9.44 5.78 19.59
  C -5.72 42.77 17.21 71.84 33.13 86.54
  A 0.23 0.02 41.2 0 0 33.29 86.65
  Q 33.34 86.66 33.41 86.66"
/>
<path stroke="#bab0c7" vector-effect="non-scaling-stroke" d="
  M 23.58 32.44
  A 0.46 0.46 0.0 0 0 24.17 32.00
  Q 24.16 27.08 26.35 25.04
  Q 26.85 24.57 27.36 23.79
  A 0.62 0.62 0.0 0 0 27.00 22.87
  L 19.71 20.80
  A 0.60 0.59 -73.8 0 0 18.98 21.21
  L 18.75 22.04
  A 0.75 0.75 0.0 0 0 19.35 22.99
  Q 20.18 23.14 21.52 23.83
  A 1.00 1.00 0.0 0 1 20.82 25.68
  Q 20.69 25.65 19.65 25.27
  A 0.81 0.81 0.0 0 0 18.77 26.57
  Q 19.61 27.54 20.59 27.74
  A 0.72 0.72 0.0 0 1 20.64 29.14
  L 19.74 29.38
  A 1.02 1.02 0.0 0 0 19.74 31.35
  L 23.58 32.44"
/>
<path stroke="#bab0c7" vector-effect="non-scaling-stroke" d="
  M 30.19 38.00
  Q 33.96 40.13 37.84 37.98
  Q 43.71 34.74 41.54 27.69
  A 0.28 0.27 35.2 0 0 41.00 27.78
  Q 41.28 32.64 37.63 34.77
  A 1.53 1.53 0.0 0 1 35.50 34.15
  Q 34.37 31.96 35.15 29.72
  Q 35.25 29.44 35.09 29.35
  Q 34.93 29.26 34.74 29.48
  Q 33.22 31.31 30.76 31.47
  A 1.53 1.53 0.0 0 1 29.13 29.96
  Q 29.08 25.74 33.39 23.47
  A 0.28 0.27 23.8 0 0 33.19 22.96
  Q 26.03 24.73 26.26 31.43
  Q 26.43 35.87 30.19 38.00"
/>
<path stroke="#bab0c7" vector-effect="non-scaling-stroke" d="
  M 38.25 40.78
  L 41.05 43.58
  A 1.01 1.01 0.0 0 0 42.75 42.63
  L 42.53 41.73
  A 0.71 0.71 0.0 0 1 43.76 41.10
  Q 44.41 41.85 45.65 42.11
  A 0.80 0.80 0.0 0 0 46.35 40.72
  Q 45.52 40.01 45.43 39.91
  A 0.99 0.99 0.0 0 1 46.70 38.41
  Q 47.94 39.23 48.47 39.88
  A 0.75 0.75 0.0 0 0 49.58 39.94
  L 50.19 39.34
  A 0.59 0.59 0.0 0 0 50.19 38.51
  L 44.88 33.20
  A 0.61 0.61 0.0 0 0 43.91 33.34
  Q 43.48 34.16 43.32 34.81
  Q 42.61 37.69 38.35 40.06
  A 0.46 0.46 0.0 0 0 38.25 40.78"
/>
<path stroke="#bab0c7" vector-effect="non-scaling-stroke" d="
  M 23.93 39.52
  Q 24.17 40.42 24.99 40.06
  Q 26.99 39.19 26.87 38.73
  Q 26.74 38.26 24.57 38.51
  Q 23.68 38.62 23.93 39.52"
/>
<path stroke="#bab0c7" vector-effect="non-scaling-stroke" d="
  M 27.07 43.35
  Q 27.89 43.81 28.63 43.01
  A 1.01 0.99 -21.4 0 0 28.90 42.42
  Q 29.10 40.28 28.85 40.15
  Q 28.61 40.01 26.89 41.30
  A 1.01 0.99 79.7 0 0 26.53 41.84
  Q 26.24 42.89 27.07 43.35"
/>
<path stroke="#bab0c7" vector-effect="non-scaling-stroke" d="
  M 31.82 44.04
  Q 32.17 43.96 32.35 43.80
  A 0.56 0.56 0.0 0 0 32.49 43.17
  Q 31.62 41.01 31.14 41.12
  Q 30.66 41.24 30.84 43.56
  A 0.56 0.56 0.0 0 0 31.25 44.06
  Q 31.47 44.12 31.82 44.04"
/>
</g>
<path fill="#3a3555" d="
  M 33.78 88.00
  L 33.15 88.00
  Q 15.61 72.49 6.00 52.51
  Q 2.24 44.69 1.62 35.22
  Q 1.01 25.78 5.26 17.99
  C 11.40 6.75 23.67 0.18 36.85 1.51
  C 53.44 3.18 66.12 17.36 65.46 33.99
  Q 65.15 41.70 62.33 49.05
  C 56.69 63.77 45.39 77.48 33.78 88.00
  Z
  M 33.41 86.66
  Q 33.47 86.66 33.52 86.66
  A 0.23 0.02 -41.0 0 0 33.68 86.54
  C 49.65 71.89 72.66 42.89 61.23 19.67
  C 56.23 9.51 46.37 3.24 34.99 2.57
  Q 33.62 2.49 33.53 2.49
  Q 33.44 2.49 32.08 2.57
  C 20.69 3.20 10.81 9.44 5.78 19.59
  C -5.72 42.77 17.21 71.84 33.13 86.54
  A 0.23 0.02 41.2 0 0 33.29 86.65
  Q 33.34 86.66 33.41 86.66
  Z"
/>
<path fill="#7468a1" d="
  M 33.53 2.49
  Q 33.62 2.49 34.99 2.57
  C 46.37 3.24 56.23 9.51 61.23 19.67
  C 72.66 42.89 49.65 71.89 33.68 86.54
  A 0.23 0.02 -41.0 0 1 33.52 86.66
  Q 33.47 86.66 33.41 86.66
  Q 33.34 86.66 33.29 86.65
  A 0.23 0.02 41.2 0 1 33.13 86.54
  C 17.21 71.84 -5.72 42.77 5.78 19.59
  C 10.81 9.44 20.69 3.20 32.08 2.57
  Q 33.44 2.49 33.53 2.49
  Z
  M 23.58 32.44
  A 0.46 0.46 0.0 0 0 24.17 32.00
  Q 24.16 27.08 26.35 25.04
  Q 26.85 24.57 27.36 23.79
  A 0.62 0.62 0.0 0 0 27.00 22.87
  L 19.71 20.80
  A 0.60 0.59 -73.8 0 0 18.98 21.21
  L 18.75 22.04
  A 0.75 0.75 0.0 0 0 19.35 22.99
  Q 20.18 23.14 21.52 23.83
  A 1.00 1.00 0.0 0 1 20.82 25.68
  Q 20.69 25.65 19.65 25.27
  A 0.81 0.81 0.0 0 0 18.77 26.57
  Q 19.61 27.54 20.59 27.74
  A 0.72 0.72 0.0 0 1 20.64 29.14
  L 19.74 29.38
  A 1.02 1.02 0.0 0 0 19.74 31.35
  L 23.58 32.44
  Z
  M 30.19 38.00
  Q 33.96 40.13 37.84 37.98
  Q 43.71 34.74 41.54 27.69
  A 0.28 0.27 35.2 0 0 41.00 27.78
  Q 41.28 32.64 37.63 34.77
  A 1.53 1.53 0.0 0 1 35.50 34.15
  Q 34.37 31.96 35.15 29.72
  Q 35.25 29.44 35.09 29.35
  Q 34.93 29.26 34.74 29.48
  Q 33.22 31.31 30.76 31.47
  A 1.53 1.53 0.0 0 1 29.13 29.96
  Q 29.08 25.74 33.39 23.47
  A 0.28 0.27 23.8 0 0 33.19 22.96
  Q 26.03 24.73 26.26 31.43
  Q 26.43 35.87 30.19 38.00
  Z
  M 38.25 40.78
  L 41.05 43.58
  A 1.01 1.01 0.0 0 0 42.75 42.63
  L 42.53 41.73
  A 0.71 0.71 0.0 0 1 43.76 41.10
  Q 44.41 41.85 45.65 42.11
  A 0.80 0.80 0.0 0 0 46.35 40.72
  Q 45.52 40.01 45.43 39.91
  A 0.99 0.99 0.0 0 1 46.70 38.41
  Q 47.94 39.23 48.47 39.88
  A 0.75 0.75 0.0 0 0 49.58 39.94
  L 50.19 39.34
  A 0.59 0.59 0.0 0 0 50.19 38.51
  L 44.88 33.20
  A 0.61 0.61 0.0 0 0 43.91 33.34
  Q 43.48 34.16 43.32 34.81
  Q 42.61 37.69 38.35 40.06
  A 0.46 0.46 0.0 0 0 38.25 40.78
  Z
  M 23.93 39.52
  Q 24.17 40.42 24.99 40.06
  Q 26.99 39.19 26.87 38.73
  Q 26.74 38.26 24.57 38.51
  Q 23.68 38.62 23.93 39.52
  Z
  M 27.07 43.35
  Q 27.89 43.81 28.63 43.01
  A 1.01 0.99 -21.4 0 0 28.90 42.42
  Q 29.10 40.28 28.85 40.15
  Q 28.61 40.01 26.89 41.30
  A 1.01 0.99 79.7 0 0 26.53 41.84
  Q 26.24 42.89 27.07 43.35
  Z
  M 31.82 44.04
  Q 32.17 43.96 32.35 43.80
  A 0.56 0.56 0.0 0 0 32.49 43.17
  Q 31.62 41.01 31.14 41.12
  Q 30.66 41.24 30.84 43.56
  A 0.56 0.56 0.0 0 0 31.25 44.06
  Q 31.47 44.12 31.82 44.04
  Z"
/>
<path fill="#fff8ec" d="
  M 23.58 32.44
  L 19.74 31.35
  A 1.02 1.02 0.0 0 1 19.74 29.38
  L 20.64 29.14
  A 0.72 0.72 0.0 0 0 20.59 27.74
  Q 19.61 27.54 18.77 26.57
  A 0.81 0.81 0.0 0 1 19.65 25.27
  Q 20.69 25.65 20.82 25.68
  A 1.00 1.00 0.0 0 0 21.52 23.83
  Q 20.18 23.14 19.35 22.99
  A 0.75 0.75 0.0 0 1 18.75 22.04
  L 18.98 21.21
  A 0.60 0.59 -73.8 0 1 19.71 20.80
  L 27.00 22.87
  A 0.62 0.62 0.0 0 1 27.36 23.79
  Q 26.85 24.57 26.35 25.04
  Q 24.16 27.08 24.17 32.00
  A 0.46 0.46 0.0 0 1 23.58 32.44
  Z"
/>
<path fill="#fff8ec" d="
  M 35.09 29.35
  Q 35.25 29.44 35.15 29.72
  Q 34.37 31.96 35.50 34.15
  A 1.53 1.53 0.0 0 0 37.63 34.77
  Q 41.28 32.64 41.00 27.78
  A 0.28 0.27 35.2 0 1 41.54 27.69
  Q 43.71 34.74 37.84 37.98
  Q 33.96 40.13 30.19 38.00
  Q 26.43 35.87 26.26 31.43
  Q 26.03 24.73 33.19 22.96
  A 0.28 0.27 23.8 0 1 33.39 23.47
  Q 29.08 25.74 29.13 29.96
  A 1.53 1.53 0.0 0 0 30.76 31.47
  Q 33.22 31.31 34.74 29.48
  Q 34.93 29.26 35.09 29.35
  Z"
/>
<path fill="#fff8ec" d="
  M 38.35 40.06
  Q 42.61 37.69 43.32 34.81
  Q 43.48 34.16 43.91 33.34
  A 0.61 0.61 0.0 0 1 44.88 33.20
  L 50.19 38.51
  A 0.59 0.59 0.0 0 1 50.19 39.34
  L 49.58 39.94
  A 0.75 0.75 0.0 0 1 48.47 39.88
  Q 47.94 39.23 46.70 38.41
  A 0.99 0.99 0.0 0 0 45.43 39.91
  Q 45.52 40.01 46.35 40.72
  A 0.80 0.80 0.0 0 1 45.65 42.11
  Q 44.41 41.85 43.76 41.10
  A 0.71 0.71 0.0 0 0 42.53 41.73
  L 42.75 42.63
  A 1.01 1.01 0.0 0 1 41.05 43.58
  L 38.25 40.78
  A 0.46 0.46 0.0 0 1 38.35 40.06
  Z"
/>
<path fill="#fff8ec" d="
  M 26.87 38.73
  Q 26.99 39.19 24.99 40.06
  Q 24.17 40.42 23.93 39.52
  Q 23.68 38.62 24.57 38.51
  Q 26.74 38.26 26.87 38.73
  Z"
/>
<path fill="#fff8ec" d="
  M 28.85 40.15
  Q 29.10 40.28 28.90 42.42
  A 1.01 0.99 -21.4 0 1 28.63 43.01
  Q 27.89 43.81 27.07 43.35
  Q 26.24 42.89 26.53 41.84
  A 1.01 0.99 79.7 0 1 26.89 41.30
  Q 28.61 40.01 28.85 40.15
  Z"
/>
<path fill="#fff8ec" d="
  M 31.14 41.12
  Q 31.62 41.01 32.49 43.17
  A 0.56 0.56 0.0 0 1 32.35 43.80
  Q 32.17 43.96 31.82 44.04
  Q 31.47 44.12 31.25 44.06
  A 0.56 0.56 0.0 0 1 30.84 43.56
  Q 30.66 41.24 31.14 41.12
  Z"
/>
</svg>
