<?xml version="1.0" encoding="UTF-8" standalone="no"?>
<!DOCTYPE svg PUBLIC "-//W3C//DTD SVG 1.1//EN" "http://www.w3.org/Graphics/SVG/1.1/DTD/svg11.dtd">
<svg xmlns="http://www.w3.org/2000/svg" version="1.1" viewBox="0.00 0.00 66.00 88.00">
<g stroke-width="2.00" fill="none" stroke-linecap="butt">
<path stroke="#26433a" vector-effect="non-scaling-stroke" d="
  M 33.42 86.61
  C 34.00 86.61 33.59 86.66 33.79 86.48
  C 47.68 73.41 63.03 54.56 64.20 34.80
  C 65.26 17.05 51.16 2.54 33.53 2.51
  C 15.91 2.49 1.77 16.96 2.78 34.72
  C 3.90 54.48 19.20 73.37 33.06 86.48
  C 33.25 86.66 32.85 86.61 33.42 86.61"
/>
<path stroke="#99a89d" vector-effect="non-scaling-stroke" d="
  M 14.67 34.01
  Q 14.68 49.50 14.70 50.46
  A 1.83 1.82 89.4 0 0 16.52 52.24
  L 31.68 52.24
  A 1.68 1.68 0.0 0 0 33.36 50.56
  L 33.36 42.28
  A 0.41 0.41 0.0 0 0 32.95 41.87
  L 30.12 41.87
  A 0.42 0.41 -90.0 0 0 29.71 42.29
  L 29.71 48.19
  A 0.59 0.59 0.0 0 1 29.12 48.78
  L 19.02 48.76
  A 0.66 0.66 0.0 0 1 18.36 48.09
  Q 18.34 47.50 18.33 34.00
  Q 18.32 20.51 18.35 19.92
  A 0.66 0.66 0.0 0 1 19.00 19.25
  L 29.10 19.22
  A 0.59 0.59 0.0 0 1 29.70 19.81
  L 29.70 25.71
  A 0.42 0.41 89.9 0 0 30.11 26.13
  L 32.94 26.12
  A 0.41 0.41 0.0 0 0 33.35 25.71
  L 33.34 17.43
  A 1.68 1.68 0.0 0 0 31.66 15.76
  L 16.50 15.77
  A 1.83 1.82 -89.4 0 0 14.68 17.56
  Q 14.66 18.51 14.67 34.01"
/>
<path stroke="#99a89d" vector-effect="non-scaling-stroke" d="
  M 24.14 34.00
  Q 24.14 35.21 24.15 35.57
  A 0.68 0.68 0.0 0 0 24.83 36.23
  L 42.63 36.23
  A 0.31 0.31 0.0 0 1 42.86 36.75
  L 34.95 45.54
  A 0.12 0.11 20.4 0 0 35.04 45.73
  L 40.36 45.73
  A 0.71 0.70 -67.8 0 0 40.87 45.51
  Q 45.29 40.73 51.13 34.16
  C 51.16 34.13 51.17 33.99 51.17 33.97
  C 51.17 33.96 51.16 33.82 51.13 33.79
  Q 45.28 27.23 40.85 22.46
  A 0.71 0.70 67.7 0 0 40.34 22.24
  L 35.02 22.24
  A 0.12 0.11 -20.5 0 0 34.93 22.43
  L 42.86 31.21
  A 0.31 0.31 0.0 0 1 42.63 31.73
  L 24.83 31.76
  A 0.68 0.68 0.0 0 0 24.15 32.42
  Q 24.14 32.78 24.14 34.00"
/>
</g>
<path fill="#192e27" d="
  M 33.78 88.00
  L 33.04 88.00
  C 21.72 77.72 12.18 65.74 5.68 51.55
  Q 2.14 43.83 1.57 34.90
  C 0.13 12.29 21.97 -3.74 43.33 2.85
  Q 51.49 5.37 57.29 11.79
  Q 67.69 23.29 64.87 39.79
  C 61.78 57.91 47.17 75.88 33.78 88.00
  Z
  M 33.42 86.61
  C 34.00 86.61 33.59 86.66 33.79 86.48
  C 47.68 73.41 63.03 54.56 64.20 34.80
  C 65.26 17.05 51.16 2.54 33.53 2.51
  C 15.91 2.49 1.77 16.96 2.78 34.72
  C 3.90 54.48 19.20 73.37 33.06 86.48
  C 33.25 86.66 32.85 86.61 33.42 86.61
  Z"
/>
<path fill="#32574d" d="
  M 33.53 2.51
  C 51.16 2.54 65.26 17.05 64.20 34.80
  C 63.03 54.56 47.68 73.41 33.79 86.48
  C 33.59 86.66 34.00 86.61 33.42 86.61
  C 32.85 86.61 33.25 86.66 33.06 86.48
  C 19.20 73.37 3.90 54.48 2.78 34.72
  C 1.77 16.96 15.91 2.49 33.53 2.51
  Z
  M 14.67 34.01
  Q 14.68 49.50 14.70 50.46
  A 1.83 1.82 89.4 0 0 16.52 52.24
  L 31.68 52.24
  A 1.68 1.68 0.0 0 0 33.36 50.56
  L 33.36 42.28
  A 0.41 0.41 0.0 0 0 32.95 41.87
  L 30.12 41.87
  A 0.42 0.41 -90.0 0 0 29.71 42.29
  L 29.71 48.19
  A 0.59 0.59 0.0 0 1 29.12 48.78
  L 19.02 48.76
  A 0.66 0.66 0.0 0 1 18.36 48.09
  Q 18.34 47.50 18.33 34.00
  Q 18.32 20.51 18.35 19.92
  A 0.66 0.66 0.0 0 1 19.00 19.25
  L 29.10 19.22
  A 0.59 0.59 0.0 0 1 29.70 19.81
  L 29.70 25.71
  A 0.42 0.41 89.9 0 0 30.11 26.13
  L 32.94 26.12
  A 0.41 0.41 0.0 0 0 33.35 25.71
  L 33.34 17.43
  A 1.68 1.68 0.0 0 0 31.66 15.76
  L 16.50 15.77
  A 1.83 1.82 -89.4 0 0 14.68 17.56
  Q 14.66 18.51 14.67 34.01
  Z
  M 24.14 34.00
  Q 24.14 35.21 24.15 35.57
  A 0.68 0.68 0.0 0 0 24.83 36.23
  L 42.63 36.23
  A 0.31 0.31 0.0 0 1 42.86 36.75
  L 34.95 45.54
  A 0.12 0.11 20.4 0 0 35.04 45.73
  L 40.36 45.73
  A 0.71 0.70 -67.8 0 0 40.87 45.51
  Q 45.29 40.73 51.13 34.16
  C 51.16 34.13 51.17 33.99 51.17 33.97
  C 51.17 33.96 51.16 33.82 51.13 33.79
  Q 45.28 27.23 40.85 22.46
  A 0.71 0.70 67.7 0 0 40.34 22.24
  L 35.02 22.24
  A 0.12 0.11 -20.5 0 0 34.93 22.43
  L 42.86 31.21
  A 0.31 0.31 0.0 0 1 42.63 31.73
  L 24.83 31.76
  A 0.68 0.68 0.0 0 0 24.15 32.42
  Q 24.14 32.78 24.14 34.00
  Z"
/>
<path fill="#fff8ec" d="
  M 18.33 34.00
  Q 18.34 47.50 18.36 48.09
  A 0.66 0.66 0.0 0 0 19.02 48.76
  L 29.12 48.78
  A 0.59 0.59 0.0 0 0 29.71 48.19
  L 29.71 42.29
  A 0.42 0.41 -90.0 0 1 30.12 41.87
  L 32.95 41.87
  A 0.41 0.41 0.0 0 1 33.36 42.28
  L 33.36 50.56
  A 1.68 1.68 0.0 0 1 31.68 52.24
  L 16.52 52.24
  A 1.83 1.82 89.4 0 1 14.70 50.46
  Q 14.68 49.50 14.67 34.01
  Q 14.66 18.51 14.68 17.56
  A 1.83 1.82 -89.4 0 1 16.50 15.77
  L 31.66 15.76
  A 1.68 1.68 0.0 0 1 33.34 17.43
  L 33.35 25.71
  A 0.41 0.41 0.0 0 1 32.94 26.12
  L 30.11 26.13
  A 0.42 0.41 89.9 0 1 29.70 25.71
  L 29.70 19.81
  A 0.59 0.59 0.0 0 0 29.10 19.22
  L 19.00 19.25
  A 0.66 0.66 0.0 0 0 18.35 19.92
  Q 18.32 20.51 18.33 34.00
  Z"
/>
<path fill="#fff8ec" d="
  M 51.17 33.97
  C 51.17 33.99 51.16 34.13 51.13 34.16
  Q 45.29 40.73 40.87 45.51
  A 0.71 0.70 -67.8 0 1 40.36 45.73
  L 35.04 45.73
  A 0.12 0.11 20.4 0 1 34.95 45.54
  L 42.86 36.75
  A 0.31 0.31 0.0 0 0 42.63 36.23
  L 24.83 36.23
  A 0.68 0.68 0.0 0 1 24.15 35.57
  Q 24.14 35.21 24.14 34.00
  Q 24.14 32.78 24.15 32.42
  A 0.68 0.68 0.0 0 1 24.83 31.76
  L 42.63 31.73
  A 0.31 0.31 0.0 0 0 42.86 31.21
  L 34.93 22.43
  A 0.12 0.11 -20.5 0 1 35.02 22.24
  L 40.34 22.24
  A 0.71 0.70 67.7 0 1 40.85 22.46
  Q 45.28 27.23 51.13 33.79
  C 51.16 33.82 51.17 33.96 51.17 33.97
  Z"
/>
</svg>
