<?xml version="1.0" encoding="UTF-8" standalone="no"?>
<!DOCTYPE svg PUBLIC "-//W3C//DTD SVG 1.1//EN" "http://www.w3.org/Graphics/SVG/1.1/DTD/svg11.dtd">
<svg xmlns="http://www.w3.org/2000/svg" version="1.1" viewBox="0.00 0.00 66.00 88.00">
<g stroke-width="2.00" fill="none" stroke-linecap="butt">
<path stroke="#574f7b" vector-effect="non-scaling-stroke" d="
  M 33.40 86.66
  Q 33.46 86.66 33.52 86.65
  A 0.34 0.19 -57.3 0 0 33.71 86.55
  C 49.25 72.03 70.24 45.92 62.69 23.20
  C 58.64 11.00 46.73 2.52 33.54 2.50
  C 20.35 2.48 8.42 10.91 4.32 23.11
  C -3.30 45.80 17.60 71.98 33.09 86.55
  A 0.34 0.19 57.5 0 0 33.29 86.65
  Q 33.34 86.66 33.40 86.66"
/>
<path stroke="#bab0c7" vector-effect="non-scaling-stroke" d="
  M 32.88 52.20
  Q 37.00 52.19 39.93 49.37
  Q 46.62 42.90 41.46 33.83
  C 38.17 28.05 34.62 23.48 32.95 16.92
  A 0.05 0.03 79.8 0 0 32.91 16.88
  Q 32.90 16.88 32.88 16.88
  Q 32.86 16.88 32.85 16.88
  A 0.05 0.03 -79.8 0 0 32.81 16.92
  C 31.14 23.48 27.59 28.05 24.30 33.83
  Q 19.15 42.90 25.84 49.37
  Q 28.76 52.20 32.88 52.20"
/>
<path stroke="#bab0c7" vector-effect="non-scaling-stroke" d="
  M 37.05 48.10
  Q 43.51 43.34 39.46 35.86
  Q 36.11 29.68 33.55 25.47
  A 0.25 0.25 0.0 0 0 33.09 25.60
  C 33.14 33.10 41.19 40.71 36.88 47.95
  A 0.12 0.12 0.0 0 0 37.05 48.10"
/>
<path stroke="#bab0c7" vector-effect="non-scaling-stroke" d="
  M 25.34 44.02
  Q 26.68 47.64 30.82 49.29
  A 0.18 0.18 0.0 0 0 31.01 49.00
  Q 28.50 46.61 27.28 43.30
  Q 26.05 40.00 26.40 36.55
  A 0.18 0.18 0.0 0 0 26.06 36.45
  Q 24.00 40.40 25.34 44.02"
/>
</g>
<path fill="#3a3555" d="
  M 33.79 88.00
  L 33.12 88.00
  Q 15.87 72.65 6.36 53.36
  Q 3.39 47.33 2.01 39.01
  Q 0.36 28.99 4.03 20.51
  C 11.54 3.20 32.56 -3.78 49.09 5.34
  Q 61.24 12.03 64.85 26.24
  Q 65.59 29.17 65.36 35.26
  Q 65.20 39.64 63.91 44.16
  C 59.15 60.87 46.47 76.48 33.79 88.00
  Z
  M 33.40 86.66
  Q 33.46 86.66 33.52 86.65
  A 0.34 0.19 -57.3 0 0 33.71 86.55
  C 49.25 72.03 70.24 45.92 62.69 23.20
  C 58.64 11.00 46.73 2.52 33.54 2.50
  C 20.35 2.48 8.42 10.91 4.32 23.11
  C -3.30 45.80 17.60 71.98 33.09 86.55
  A 0.34 0.19 57.5 0 0 33.29 86.65
  Q 33.34 86.66 33.40 86.66
  Z"
/>
<path fill="#7468a1" d="
  M 33.54 2.50
  C 46.73 2.52 58.64 11.00 62.69 23.20
  C 70.24 45.92 49.25 72.03 33.71 86.55
  A 0.34 0.19 -57.3 0 1 33.52 86.65
  Q 33.46 86.66 33.40 86.66
  Q 33.34 86.66 33.29 86.65
  A 0.34 0.19 57.5 0 1 33.09 86.55
  C 17.60 71.98 -3.30 45.80 4.32 23.11
  C 8.42 10.91 20.35 2.48 33.54 2.50
  Z
  M 32.88 52.20
  Q 37.00 52.19 39.93 49.37
  Q 46.62 42.90 41.46 33.83
  C 38.17 28.05 34.62 23.48 32.95 16.92
  A 0.05 0.03 79.8 0 0 32.91 16.88
  Q 32.90 16.88 32.88 16.88
  Q 32.86 16.88 32.85 16.88
  A 0.05 0.03 -79.8 0 0 32.81 16.92
  C 31.14 23.48 27.59 28.05 24.30 33.83
  Q 19.15 42.90 25.84 49.37
  Q 28.76 52.20 32.88 52.20
  Z"
/>
<path fill="#fff8ec" d="
  M 32.88 16.88
  Q 32.90 16.88 32.91 16.88
  A 0.05 0.03 79.8 0 1 32.95 16.92
  C 34.62 23.48 38.17 28.05 41.46 33.83
  Q 46.62 42.90 39.93 49.37
  Q 37.00 52.19 32.88 52.20
  Q 28.76 52.20 25.84 49.37
  Q 19.15 42.90 24.30 33.83
  C 27.59 28.05 31.14 23.48 32.81 16.92
  A 0.05 0.03 -79.8 0 1 32.85 16.88
  Q 32.86 16.88 32.88 16.88
  Z
  M 37.05 48.10
  Q 43.51 43.34 39.46 35.86
  Q 36.11 29.68 33.55 25.47
  A 0.25 0.25 0.0 0 0 33.09 25.60
  C 33.14 33.10 41.19 40.71 36.88 47.95
  A 0.12 0.12 0.0 0 0 37.05 48.10
  Z
  M 25.34 44.02
  Q 26.68 47.64 30.82 49.29
  A 0.18 0.18 0.0 0 0 31.01 49.00
  Q 28.50 46.61 27.28 43.30
  Q 26.05 40.00 26.40 36.55
  A 0.18 0.18 0.0 0 0 26.06 36.45
  Q 24.00 40.40 25.34 44.02
  Z"
/>
<path fill="#7468a1" d="
  M 36.88 47.95
  C 41.19 40.71 33.14 33.10 33.09 25.60
  A 0.25 0.25 0.0 0 1 33.55 25.47
  Q 36.11 29.68 39.46 35.86
  Q 43.51 43.34 37.05 48.10
  A 0.12 0.12 0.0 0 1 36.88 47.95
  Z"
/>
<path fill="#7468a1" d="
  M 27.28 43.30
  Q 28.50 46.61 31.01 49.00
  A 0.18 0.18 0.0 0 1 30.82 49.29
  Q 26.68 47.64 25.34 44.02
  Q 24.00 40.40 26.06 36.45
  A 0.18 0.18 0.0 0 1 26.40 36.55
  Q 26.05 40.00 27.28 43.30
  Z"
/>
</svg>
