<?xml version="1.0" encoding="UTF-8" standalone="no"?>
<!DOCTYPE svg PUBLIC "-//W3C//DTD SVG 1.1//EN" "http://www.w3.org/Graphics/SVG/1.1/DTD/svg11.dtd">
<svg xmlns="http://www.w3.org/2000/svg" version="1.1" viewBox="0.00 0.00 66.00 88.00">
<g stroke-width="2.00" fill="none" stroke-linecap="butt">
<path stroke="#38728d" vector-effect="non-scaling-stroke" d="
  M 33.40 86.72
  Q 33.52 86.72 33.61 86.69
  Q 33.69 86.67 33.78 86.59
  Q 47.33 73.86 56.32 58.80
  C 65.11 44.07 68.70 25.53 55.93 12.11
  C 50.14 6.04 42.11 2.48 33.53 2.47
  C 24.95 2.46 16.91 5.99 11.11 12.04
  C -1.71 25.42 1.83 43.97 10.57 58.73
  Q 19.51 73.82 33.02 86.59
  Q 33.11 86.67 33.19 86.69
  Q 33.28 86.72 33.40 86.72"
/>
<path stroke="#a6c7d3" vector-effect="non-scaling-stroke" d="
  M 20.95 45.35
  Q 26.26 50.64 26.77 51.02
  A 2.34 1.62 16.1 0 0 27.04 51.19
  Q 28.79 52.17 30.24 50.74
  Q 32.90 48.11 49.97 30.91
  A 2.25 2.24 -45.1 0 0 49.97 27.74
  L 47.33 25.10
  A 0.60 0.60 0.0 0 1 47.40 24.19
  Q 48.37 23.49 48.93 22.48
  A 1.09 1.09 0.0 0 0 48.86 21.33
  Q 48.42 20.73 46.94 19.25
  Q 45.45 17.77 44.85 17.34
  A 1.09 1.09 0.0 0 0 43.70 17.27
  Q 42.69 17.83 41.99 18.81
  A 0.60 0.60 0.0 0 1 41.08 18.88
  L 38.43 16.25
  A 2.25 2.24 -45.2 0 0 35.26 16.27
  Q 18.14 33.42 15.52 36.09
  Q 14.10 37.55 15.09 39.29
  A 2.34 1.62 73.6 0 0 15.26 39.56
  Q 15.64 40.07 20.95 45.35"
/>
<path stroke="#a6c7d3" vector-effect="non-scaling-stroke" d="
  M 30.91 44.75
  L 36.51 31.86
  A 0.45 0.44 11.7 0 0 36.10 31.24
  L 32.77 31.24
  A 0.39 0.38 -82.9 0 1 32.40 30.76
  L 34.54 22.46
  A 0.07 0.07 0.0 0 0 34.41 22.40
  L 27.48 34.40
  A 0.38 0.38 0.0 0 0 27.81 34.97
  L 31.51 34.97
  A 0.55 0.54 4.5 0 1 32.05 35.60
  L 30.61 44.66
  A 0.16 0.16 0.0 0 0 30.91 44.75"
/>
</g>
<path fill="#234e61" d="
  M 33.78 88.00
  L 33.15 88.00
  Q 15.61 72.48 6.00 52.51
  Q 2.31 44.83 1.62 35.22
  Q 0.95 25.67 5.27 17.99
  C 18.59 -5.71 52.39 -3.72 63.27 21.24
  C 66.23 28.04 65.93 37.06 63.99 44.01
  C 59.32 60.72 46.48 76.51 33.78 88.00
  Z
  M 33.40 86.72
  Q 33.52 86.72 33.61 86.69
  Q 33.69 86.67 33.78 86.59
  Q 47.33 73.86 56.32 58.80
  C 65.11 44.07 68.70 25.53 55.93 12.11
  C 50.14 6.04 42.11 2.48 33.53 2.47
  C 24.95 2.46 16.91 5.99 11.11 12.04
  C -1.71 25.42 1.83 43.97 10.57 58.73
  Q 19.51 73.82 33.02 86.59
  Q 33.11 86.67 33.19 86.69
  Q 33.28 86.72 33.40 86.72
  Z"
/>
<path fill="#4d96b9" d="
  M 33.53 2.47
  C 42.11 2.48 50.14 6.04 55.93 12.11
  C 68.70 25.53 65.11 44.07 56.32 58.80
  Q 47.33 73.86 33.78 86.59
  Q 33.69 86.67 33.61 86.69
  Q 33.52 86.72 33.40 86.72
  Q 33.28 86.72 33.19 86.69
  Q 33.11 86.67 33.02 86.59
  Q 19.51 73.82 10.57 58.73
  C 1.83 43.97 -1.71 25.42 11.11 12.04
  C 16.91 5.99 24.95 2.46 33.53 2.47
  Z
  M 20.95 45.35
  Q 26.26 50.64 26.77 51.02
  A 2.34 1.62 16.1 0 0 27.04 51.19
  Q 28.79 52.17 30.24 50.74
  Q 32.90 48.11 49.97 30.91
  A 2.25 2.24 -45.1 0 0 49.97 27.74
  L 47.33 25.10
  A 0.60 0.60 0.0 0 1 47.40 24.19
  Q 48.37 23.49 48.93 22.48
  A 1.09 1.09 0.0 0 0 48.86 21.33
  Q 48.42 20.73 46.94 19.25
  Q 45.45 17.77 44.85 17.34
  A 1.09 1.09 0.0 0 0 43.70 17.27
  Q 42.69 17.83 41.99 18.81
  A 0.60 0.60 0.0 0 1 41.08 18.88
  L 38.43 16.25
  A 2.25 2.24 -45.2 0 0 35.26 16.27
  Q 18.14 33.42 15.52 36.09
  Q 14.10 37.55 15.09 39.29
  A 2.34 1.62 73.6 0 0 15.26 39.56
  Q 15.64 40.07 20.95 45.35
  Z"
/>
<path fill="#fff8ec" d="
  M 46.94 19.25
  Q 48.42 20.73 48.86 21.33
  A 1.09 1.09 0.0 0 1 48.93 22.48
  Q 48.37 23.49 47.40 24.19
  A 0.60 0.60 0.0 0 0 47.33 25.10
  L 49.97 27.74
  A 2.25 2.24 -45.1 0 1 49.97 30.91
  Q 32.90 48.11 30.24 50.74
  Q 28.79 52.17 27.04 51.19
  A 2.34 1.62 16.1 0 1 26.77 51.02
  Q 26.26 50.64 20.95 45.35
  Q 15.64 40.07 15.26 39.56
  A 2.34 1.62 73.6 0 1 15.09 39.29
  Q 14.10 37.55 15.52 36.09
  Q 18.14 33.42 35.26 16.27
  A 2.25 2.24 -45.2 0 1 38.43 16.25
  L 41.08 18.88
  A 0.60 0.60 0.0 0 0 41.99 18.81
  Q 42.69 17.83 43.70 17.27
  A 1.09 1.09 0.0 0 1 44.85 17.34
  Q 45.45 17.77 46.94 19.25
  Z
  M 30.91 44.75
  L 36.51 31.86
  A 0.45 0.44 11.7 0 0 36.10 31.24
  L 32.77 31.24
  A 0.39 0.38 -82.9 0 1 32.40 30.76
  L 34.54 22.46
  A 0.07 0.07 0.0 0 0 34.41 22.40
  L 27.48 34.40
  A 0.38 0.38 0.0 0 0 27.81 34.97
  L 31.51 34.97
  A 0.55 0.54 4.5 0 1 32.05 35.60
  L 30.61 44.66
  A 0.16 0.16 0.0 0 0 30.91 44.75
  Z"
/>
<path fill="#4d96b9" d="
  M 30.61 44.66
  L 32.05 35.60
  A 0.55 0.54 4.5 0 0 31.51 34.97
  L 27.81 34.97
  A 0.38 0.38 0.0 0 1 27.48 34.40
  L 34.41 22.40
  A 0.07 0.07 0.0 0 1 34.54 22.46
  L 32.40 30.76
  A 0.39 0.38 -82.9 0 0 32.77 31.24
  L 36.10 31.24
  A 0.45 0.44 11.7 0 1 36.51 31.86
  L 30.91 44.75
  A 0.16 0.16 0.0 0 1 30.61 44.66
  Z"
/>
</svg>
