<?xml version="1.0" encoding="UTF-8" standalone="no"?>
<!DOCTYPE svg PUBLIC "-//W3C//DTD SVG 1.1//EN" "http://www.w3.org/Graphics/SVG/1.1/DTD/svg11.dtd">
<svg xmlns="http://www.w3.org/2000/svg" version="1.1" viewBox="0.00 0.00 66.00 88.00">
<g stroke-width="2.00" fill="none" stroke-linecap="butt">
<path stroke="#574f7b" vector-effect="non-scaling-stroke" d="
  M 33.41 86.66
  Q 33.46 86.66 33.52 86.65
  A 0.41 0.30 13.6 0 0 33.73 86.57
  Q 45.44 75.55 53.71 63.03
  C 64.42 46.82 70.30 25.92 54.85 11.06
  C 49.16 5.60 41.54 2.50 33.53 2.49
  C 25.52 2.48 17.89 5.55 12.19 11.00
  C -3.31 25.81 2.51 46.73 13.17 62.97
  Q 21.41 75.52 33.09 86.57
  A 0.41 0.30 -13.4 0 0 33.29 86.65
  Q 33.35 86.66 33.41 86.66"
/>
<path stroke="#bab0c7" vector-effect="non-scaling-stroke" d="
  M 31.67 32.66
  Q 27.27 37.05 26.71 37.57
  A 1.10 1.09 -60.8 0 1 25.75 37.85
  Q 17.77 36.28 15.67 44.26
  Q 15.37 45.40 15.84 47.19
  A 0.32 0.32 0.0 0 0 16.37 47.34
  L 20.98 42.72
  A 0.65 0.65 0.0 0 1 21.86 42.69
  Q 22.16 42.94 23.99 44.77
  Q 25.82 46.61 26.07 46.91
  A 0.65 0.65 0.0 0 1 26.04 47.79
  L 21.41 52.39
  A 0.32 0.32 0.0 0 0 21.56 52.92
  Q 23.35 53.39 24.49 53.10
  Q 32.47 51.01 30.92 43.03
  A 1.10 1.09 -29.1 0 1 31.20 42.07
  Q 31.72 41.51 36.12 37.12
  Q 40.52 32.73 41.08 32.21
  A 1.10 1.09 -60.8 0 1 42.04 31.93
  Q 50.02 33.50 52.12 25.52
  Q 52.42 24.38 51.95 22.59
  A 0.32 0.32 0.0 0 0 51.42 22.44
  L 46.81 27.06
  A 0.65 0.65 0.0 0 1 45.93 27.10
  Q 45.63 26.85 43.80 25.01
  Q 41.96 23.17 41.71 22.87
  A 0.65 0.65 0.0 0 1 41.75 21.99
  L 46.38 17.39
  A 0.32 0.32 0.0 0 0 46.23 16.86
  Q 44.44 16.39 43.30 16.69
  Q 35.32 18.77 36.87 26.75
  A 1.10 1.09 -29.1 0 1 36.59 27.71
  Q 36.07 28.27 31.67 32.66"
/>
</g>
<path fill="#3a3555" d="
  M 33.80 88.00
  L 33.04 88.00
  C 21.72 77.72 12.12 65.66 5.66 51.55
  C 1.31 42.05 -0.32 29.85 4.25 20.06
  C 9.64 8.48 20.08 1.93 33.00 1.25
  Q 34.57 1.16 38.83 1.80
  C 54.55 4.13 66.04 18.34 65.46 33.90
  Q 65.18 41.59 62.39 48.84
  C 56.68 63.73 45.53 77.30 33.80 88.00
  Z
  M 33.41 86.66
  Q 33.46 86.66 33.52 86.65
  A 0.41 0.30 13.6 0 0 33.73 86.57
  Q 45.44 75.55 53.71 63.03
  C 64.42 46.82 70.30 25.92 54.85 11.06
  C 49.16 5.60 41.54 2.50 33.53 2.49
  C 25.52 2.48 17.89 5.55 12.19 11.00
  C -3.31 25.81 2.51 46.73 13.17 62.97
  Q 21.41 75.52 33.09 86.57
  A 0.41 0.30 -13.4 0 0 33.29 86.65
  Q 33.35 86.66 33.41 86.66
  Z"
/>
<path fill="#7468a1" d="
  M 33.53 2.49
  C 41.54 2.50 49.16 5.60 54.85 11.06
  C 70.30 25.92 64.42 46.82 53.71 63.03
  Q 45.44 75.55 33.73 86.57
  A 0.41 0.30 13.6 0 1 33.52 86.65
  Q 33.46 86.66 33.41 86.66
  Q 33.35 86.66 33.29 86.65
  A 0.41 0.30 -13.4 0 1 33.09 86.57
  Q 21.41 75.52 13.17 62.97
  C 2.51 46.73 -3.31 25.81 12.19 11.00
  C 17.89 5.55 25.52 2.48 33.53 2.49
  Z
  M 31.67 32.66
  Q 27.27 37.05 26.71 37.57
  A 1.10 1.09 -60.8 0 1 25.75 37.85
  Q 17.77 36.28 15.67 44.26
  Q 15.37 45.40 15.84 47.19
  A 0.32 0.32 0.0 0 0 16.37 47.34
  L 20.98 42.72
  A 0.65 0.65 0.0 0 1 21.86 42.69
  Q 22.16 42.94 23.99 44.77
  Q 25.82 46.61 26.07 46.91
  A 0.65 0.65 0.0 0 1 26.04 47.79
  L 21.41 52.39
  A 0.32 0.32 0.0 0 0 21.56 52.92
  Q 23.35 53.39 24.49 53.10
  Q 32.47 51.01 30.92 43.03
  A 1.10 1.09 -29.1 0 1 31.20 42.07
  Q 31.72 41.51 36.12 37.12
  Q 40.52 32.73 41.08 32.21
  A 1.10 1.09 -60.8 0 1 42.04 31.93
  Q 50.02 33.50 52.12 25.52
  Q 52.42 24.38 51.95 22.59
  A 0.32 0.32 0.0 0 0 51.42 22.44
  L 46.81 27.06
  A 0.65 0.65 0.0 0 1 45.93 27.10
  Q 45.63 26.85 43.80 25.01
  Q 41.96 23.17 41.71 22.87
  A 0.65 0.65 0.0 0 1 41.75 21.99
  L 46.38 17.39
  A 0.32 0.32 0.0 0 0 46.23 16.86
  Q 44.44 16.39 43.30 16.69
  Q 35.32 18.77 36.87 26.75
  A 1.10 1.09 -29.1 0 1 36.59 27.71
  Q 36.07 28.27 31.67 32.66
  Z"
/>
<path fill="#fff8ec" d="
  M 43.80 25.01
  Q 45.63 26.85 45.93 27.10
  A 0.65 0.65 0.0 0 0 46.81 27.06
  L 51.42 22.44
  A 0.32 0.32 0.0 0 1 51.95 22.59
  Q 52.42 24.38 52.12 25.52
  Q 50.02 33.50 42.04 31.93
  A 1.10 1.09 -60.8 0 0 41.08 32.21
  Q 40.52 32.73 36.12 37.12
  Q 31.72 41.51 31.20 42.07
  A 1.10 1.09 -29.1 0 0 30.92 43.03
  Q 32.47 51.01 24.49 53.10
  Q 23.35 53.39 21.56 52.92
  A 0.32 0.32 0.0 0 1 21.41 52.39
  L 26.04 47.79
  A 0.65 0.65 0.0 0 0 26.07 46.91
  Q 25.82 46.61 23.99 44.77
  Q 22.16 42.94 21.86 42.69
  A 0.65 0.65 0.0 0 0 20.98 42.72
  L 16.37 47.34
  A 0.32 0.32 0.0 0 1 15.84 47.19
  Q 15.37 45.40 15.67 44.26
  Q 17.77 36.28 25.75 37.85
  A 1.10 1.09 -60.8 0 0 26.71 37.57
  Q 27.27 37.05 31.67 32.66
  Q 36.07 28.27 36.59 27.71
  A 1.10 1.09 -29.1 0 0 36.87 26.75
  Q 35.32 18.77 43.30 16.69
  Q 44.44 16.39 46.23 16.86
  A 0.32 0.32 0.0 0 1 46.38 17.39
  L 41.75 21.99
  A 0.65 0.65 0.0 0 0 41.71 22.87
  Q 41.96 23.17 43.80 25.01
  Z"
/>
</svg>
