<?xml version="1.0" encoding="UTF-8" standalone="no"?>
<!DOCTYPE svg PUBLIC "-//W3C//DTD SVG 1.1//EN" "http://www.w3.org/Graphics/SVG/1.1/DTD/svg11.dtd">
<svg xmlns="http://www.w3.org/2000/svg" version="1.1" viewBox="0.00 0.00 66.00 88.00">
<g stroke-width="2.00" fill="none" stroke-linecap="butt">
<path stroke="#428270" vector-effect="non-scaling-stroke" d="
  M 33.40 86.73
  Q 33.51 86.73 33.65 86.60
  Q 47.84 73.44 56.65 58.17
  Q 62.50 48.04 63.82 38.71
  Q 64.82 31.65 63.81 27.21
  Q 60.07 10.85 44.85 4.66
  Q 39.46 2.46 33.54 2.45
  Q 27.62 2.44 22.22 4.62
  Q 6.98 10.76 3.18 27.11
  Q 2.16 31.55 3.14 38.61
  Q 4.43 47.95 10.24 58.09
  Q 19.00 73.39 33.15 86.60
  Q 33.29 86.73 33.40 86.73"
/>
<path stroke="#add2c1" vector-effect="non-scaling-stroke" d="
  M 33.00 49.00
  Q 43.41 49.00 43.77 48.99
  A 1.04 1.03 84.8 0 0 44.74 47.81
  L 42.39 30.67
  A 0.34 0.34 0.0 0 1 42.94 30.35
  L 44.78 31.72
  A 1.62 1.62 0.0 0 0 46.89 31.56
  L 50.95 27.51
  A 1.39 1.39 0.0 0 0 50.80 25.42
  L 41.60 18.58
  A 0.79 0.78 -49.1 0 0 40.56 18.66
  Q 37.07 22.21 33.00 22.22
  Q 28.93 22.22 25.44 18.66
  A 0.79 0.78 49.1 0 0 24.40 18.58
  L 15.20 25.42
  A 1.39 1.39 0.0 0 0 15.05 27.51
  L 19.11 31.56
  A 1.62 1.62 0.0 0 0 21.22 31.72
  L 23.06 30.35
  A 0.34 0.34 0.0 0 1 23.61 30.67
  L 21.27 47.81
  A 1.04 1.03 -84.8 0 0 22.24 48.99
  Q 22.59 49.01 33.00 49.00"
/>
<path stroke="#add2c1" vector-effect="non-scaling-stroke" d="
  M 35.17 29.01
  A 2.17 2.17 0.0 0 0 33.00 26.84
  A 2.17 2.17 0.0 0 0 30.83 29.01
  A 2.17 2.17 0.0 0 0 33.00 31.18
  A 2.17 2.17 0.0 0 0 35.17 29.01"
/>
<path stroke="#add2c1" vector-effect="non-scaling-stroke" d="
  M 35.15 36.25
  A 2.16 2.16 0.0 0 0 32.99 34.09
  A 2.16 2.16 0.0 0 0 30.83 36.25
  A 2.16 2.16 0.0 0 0 32.99 38.41
  A 2.16 2.16 0.0 0 0 35.15 36.25"
/>
</g>
<path fill="#2a584b" d="
  M 33.80 88.00
  L 33.04 88.00
  C 21.86 77.84 11.74 65.36 5.60 51.42
  Q 2.11 43.49 1.55 34.84
  C 0.30 15.40 17.13 -0.50 36.67 1.49
  C 53.31 3.18 66.11 17.15 65.46 33.91
  Q 65.17 41.59 62.40 48.84
  C 56.71 63.72 45.50 77.34 33.80 88.00
  Z
  M 33.40 86.73
  Q 33.51 86.73 33.65 86.60
  Q 47.84 73.44 56.65 58.17
  Q 62.50 48.04 63.82 38.71
  Q 64.82 31.65 63.81 27.21
  Q 60.07 10.85 44.85 4.66
  Q 39.46 2.46 33.54 2.45
  Q 27.62 2.44 22.22 4.62
  Q 6.98 10.76 3.18 27.11
  Q 2.16 31.55 3.14 38.61
  Q 4.43 47.95 10.24 58.09
  Q 19.00 73.39 33.15 86.60
  Q 33.29 86.73 33.40 86.73
  Z"
/>
<path fill="#5aab95" d="
  M 33.54 2.45
  Q 39.46 2.46 44.85 4.66
  Q 60.07 10.85 63.81 27.21
  Q 64.82 31.65 63.82 38.71
  Q 62.50 48.04 56.65 58.17
  Q 47.84 73.44 33.65 86.60
  Q 33.51 86.73 33.40 86.73
  Q 33.29 86.73 33.15 86.60
  Q 19.00 73.39 10.24 58.09
  Q 4.43 47.95 3.14 38.61
  Q 2.16 31.55 3.18 27.11
  Q 6.98 10.76 22.22 4.62
  Q 27.62 2.44 33.54 2.45
  Z
  M 33.00 49.00
  Q 43.41 49.00 43.77 48.99
  A 1.04 1.03 84.8 0 0 44.74 47.81
  L 42.39 30.67
  A 0.34 0.34 0.0 0 1 42.94 30.35
  L 44.78 31.72
  A 1.62 1.62 0.0 0 0 46.89 31.56
  L 50.95 27.51
  A 1.39 1.39 0.0 0 0 50.80 25.42
  L 41.60 18.58
  A 0.79 0.78 -49.1 0 0 40.56 18.66
  Q 37.07 22.21 33.00 22.22
  Q 28.93 22.22 25.44 18.66
  A 0.79 0.78 49.1 0 0 24.40 18.58
  L 15.20 25.42
  A 1.39 1.39 0.0 0 0 15.05 27.51
  L 19.11 31.56
  A 1.62 1.62 0.0 0 0 21.22 31.72
  L 23.06 30.35
  A 0.34 0.34 0.0 0 1 23.61 30.67
  L 21.27 47.81
  A 1.04 1.03 -84.8 0 0 22.24 48.99
  Q 22.59 49.01 33.00 49.00
  Z"
/>
<path fill="#fff8ec" d="
  M 33.00 22.22
  Q 37.07 22.21 40.56 18.66
  A 0.79 0.78 -49.1 0 1 41.60 18.58
  L 50.80 25.42
  A 1.39 1.39 0.0 0 1 50.95 27.51
  L 46.89 31.56
  A 1.62 1.62 0.0 0 1 44.78 31.72
  L 42.94 30.35
  A 0.34 0.34 0.0 0 0 42.39 30.67
  L 44.74 47.81
  A 1.04 1.03 84.8 0 1 43.77 48.99
  Q 43.41 49.00 33.00 49.00
  Q 22.59 49.01 22.24 48.99
  A 1.04 1.03 -84.8 0 1 21.27 47.81
  L 23.61 30.67
  A 0.34 0.34 0.0 0 0 23.06 30.35
  L 21.22 31.72
  A 1.62 1.62 0.0 0 1 19.11 31.56
  L 15.05 27.51
  A 1.39 1.39 0.0 0 1 15.20 25.42
  L 24.40 18.58
  A 0.79 0.78 49.1 0 1 25.44 18.66
  Q 28.93 22.22 33.00 22.22
  Z
  M 35.17 29.01
  A 2.17 2.17 0.0 0 0 33.00 26.84
  A 2.17 2.17 0.0 0 0 30.83 29.01
  A 2.17 2.17 0.0 0 0 33.00 31.18
  A 2.17 2.17 0.0 0 0 35.17 29.01
  Z
  M 35.15 36.25
  A 2.16 2.16 0.0 0 0 32.99 34.09
  A 2.16 2.16 0.0 0 0 30.83 36.25
  A 2.16 2.16 0.0 0 0 32.99 38.41
  A 2.16 2.16 0.0 0 0 35.15 36.25
  Z"
/>
<circle fill="#5aab95" cx="33.00" cy="29.01" r="2.17"/>
<circle fill="#5aab95" cx="32.99" cy="36.25" r="2.16"/>
</svg>
