<?xml version="1.0" encoding="UTF-8" standalone="no"?>
<!DOCTYPE svg PUBLIC "-//W3C//DTD SVG 1.1//EN" "http://www.w3.org/Graphics/SVG/1.1/DTD/svg11.dtd">
<svg xmlns="http://www.w3.org/2000/svg" version="1.1" viewBox="0.00 0.00 66.00 88.00">
<g stroke-width="2.00" fill="none" stroke-linecap="butt">
<path stroke="#26433a" vector-effect="non-scaling-stroke" d="
  M 33.42 86.61
  C 34.26 86.61 33.54 86.68 33.77 86.47
  Q 49.60 71.75 58.60 54.59
  Q 63.14 45.92 64.11 35.83
  C 65.85 17.78 51.63 2.54 33.53 2.51
  C 15.43 2.49 1.17 17.69 2.86 35.75
  Q 3.81 45.84 8.33 54.53
  Q 17.28 71.71 33.07 86.47
  C 33.30 86.68 32.58 86.61 33.42 86.61"
/>
<path stroke="#99a89d" vector-effect="non-scaling-stroke" d="
  M 23.57 25.71
  Q 24.67 22.85 26.70 21.00
  C 32.20 16.00 39.36 21.44 34.08 27.66
  C 30.42 31.97 28.33 34.64 28.76 39.98
  A 0.28 0.28 0.0 0 0 29.04 40.24
  L 33.97 40.24
  A 0.21 0.21 0.0 0 0 34.18 40.01
  Q 33.94 36.91 34.96 34.42
  A 3.40 3.33 -8.2 0 1 36.01 33.05
  Q 38.16 31.38 39.96 29.73
  C 43.61 26.40 43.84 20.30 39.51 17.45
  C 35.65 14.91 29.99 15.60 25.81 17.07
  A 1.12 1.11 52.8 0 1 24.80 16.93
  L 23.57 16.06
  A 0.43 0.43 0.0 0 0 22.90 16.41
  L 22.90 25.59
  A 0.35 0.34 -34.7 0 0 23.57 25.71"
/>
<path stroke="#99a89d" vector-effect="non-scaling-stroke" d="
  M 31.8412 45.1319
  A 0.49 0.49 0.0 0 0 31.1483 45.1283
  L 28.0919 48.1529
  A 0.49 0.49 0.0 0 0 28.0882 48.8459
  L 31.0988 51.8881
  A 0.49 0.49 0.0 0 0 31.7917 51.8917
  L 34.8481 48.8671
  A 0.49 0.49 0.0 0 0 34.8518 48.1741
  L 31.8412 45.1319"
/>
</g>
<path fill="#192e27" d="
  M 33.80 88.00
  L 33.04 88.00
  C 16.71 73.16 -6.74 43.71 4.28 19.97
  C 9.44 8.86 19.78 2.13 31.75 1.39
  C 44.60 0.59 57.21 7.96 62.60 19.67
  C 73.74 43.83 50.37 72.93 33.80 88.00
  Z
  M 33.42 86.61
  C 34.26 86.61 33.54 86.68 33.77 86.47
  Q 49.60 71.75 58.60 54.59
  Q 63.14 45.92 64.11 35.83
  C 65.85 17.78 51.63 2.54 33.53 2.51
  C 15.43 2.49 1.17 17.69 2.86 35.75
  Q 3.81 45.84 8.33 54.53
  Q 17.28 71.71 33.07 86.47
  C 33.30 86.68 32.58 86.61 33.42 86.61
  Z"
/>
<path fill="#32574d" d="
  M 33.53 2.51
  C 51.63 2.54 65.85 17.78 64.11 35.83
  Q 63.14 45.92 58.60 54.59
  Q 49.60 71.75 33.77 86.47
  C 33.54 86.68 34.26 86.61 33.42 86.61
  C 32.58 86.61 33.30 86.68 33.07 86.47
  Q 17.28 71.71 8.33 54.53
  Q 3.81 45.84 2.86 35.75
  C 1.17 17.69 15.43 2.49 33.53 2.51
  Z
  M 23.57 25.71
  Q 24.67 22.85 26.70 21.00
  C 32.20 16.00 39.36 21.44 34.08 27.66
  C 30.42 31.97 28.33 34.64 28.76 39.98
  A 0.28 0.28 0.0 0 0 29.04 40.24
  L 33.97 40.24
  A 0.21 0.21 0.0 0 0 34.18 40.01
  Q 33.94 36.91 34.96 34.42
  A 3.40 3.33 -8.2 0 1 36.01 33.05
  Q 38.16 31.38 39.96 29.73
  C 43.61 26.40 43.84 20.30 39.51 17.45
  C 35.65 14.91 29.99 15.60 25.81 17.07
  A 1.12 1.11 52.8 0 1 24.80 16.93
  L 23.57 16.06
  A 0.43 0.43 0.0 0 0 22.90 16.41
  L 22.90 25.59
  A 0.35 0.34 -34.7 0 0 23.57 25.71
  Z
  M 31.8412 45.1319
  A 0.49 0.49 0.0 0 0 31.1483 45.1283
  L 28.0919 48.1529
  A 0.49 0.49 0.0 0 0 28.0882 48.8459
  L 31.0988 51.8881
  A 0.49 0.49 0.0 0 0 31.7917 51.8917
  L 34.8481 48.8671
  A 0.49 0.49 0.0 0 0 34.8518 48.1741
  L 31.8412 45.1319
  Z"
/>
<path fill="#fff8ec" d="
  M 22.90 25.59
  L 22.90 16.41
  A 0.43 0.43 0.0 0 1 23.57 16.06
  L 24.80 16.93
  A 1.12 1.11 52.8 0 0 25.81 17.07
  C 29.99 15.60 35.65 14.91 39.51 17.45
  C 43.84 20.30 43.61 26.40 39.96 29.73
  Q 38.16 31.38 36.01 33.05
  A 3.40 3.33 -8.2 0 0 34.96 34.42
  Q 33.94 36.91 34.18 40.01
  A 0.21 0.21 0.0 0 1 33.97 40.24
  L 29.04 40.24
  A 0.28 0.28 0.0 0 1 28.76 39.98
  C 28.33 34.64 30.42 31.97 34.08 27.66
  C 39.36 21.44 32.20 16.00 26.70 21.00
  Q 24.67 22.85 23.57 25.71
  A 0.35 0.34 -34.7 0 1 22.90 25.59
  Z"
/>
<rect fill="#fff8ec" x="-2.64" y="-2.63" transform="translate(31.47,48.51) rotate(-44.7)" width="5.28" height="5.26" rx="0.49"/>
</svg>
