<?xml version="1.0" encoding="UTF-8" standalone="no"?>
<!DOCTYPE svg PUBLIC "-//W3C//DTD SVG 1.1//EN" "http://www.w3.org/Graphics/SVG/1.1/DTD/svg11.dtd">
<svg xmlns="http://www.w3.org/2000/svg" version="1.1" viewBox="0.00 0.00 66.00 88.00">
<g stroke-width="2.00" fill="none" stroke-linecap="butt">
<path stroke="#38728d" vector-effect="non-scaling-stroke" d="
  M 33.40 86.72
  Q 33.51 86.72 33.61 86.69
  Q 33.69 86.68 33.78 86.59
  Q 47.36 73.89 56.39 58.65
  C 65.90 42.59 69.11 21.93 52.41 8.91
  C 47.28 4.91 40.47 2.49 33.53 2.48
  C 26.58 2.47 19.77 4.87 14.63 8.85
  C -2.11 21.82 1.04 42.49 10.50 58.58
  Q 19.48 73.85 33.02 86.59
  Q 33.11 86.68 33.19 86.69
  Q 33.29 86.72 33.40 86.72"
/>
<path stroke="#a6c7d3" vector-effect="non-scaling-stroke" d="
  M 14.91 15.90
  Q 14.66 16.16 14.95 17.27
  Q 17.40 26.53 17.50 26.89
  A 0.58 0.57 60.0 0 0 18.46 27.15
  L 20.70 24.91
  A 0.58 0.58 0.0 0 1 21.52 24.91
  L 40.31 43.70
  A 1.28 1.26 -67.9 0 1 40.68 44.60
  L 40.70 48.73
  A 1.55 1.54 1.0 0 0 42.20 50.27
  L 42.39 50.28
  A 1.49 1.49 0.0 0 0 43.99 48.83
  L 44.07 45.28
  A 0.11 0.08 75.3 0 1 44.10 45.20
  Q 44.11 45.19 44.13 45.17
  Q 44.14 45.16 44.16 45.15
  A 0.11 0.08 14.8 0 1 44.23 45.12
  L 47.78 45.04
  A 1.49 1.49 0.0 0 0 49.24 43.45
  L 49.23 43.26
  A 1.55 1.54 89.1 0 0 47.69 41.75
  L 43.56 41.73
  A 1.28 1.26 -22.0 0 1 42.66 41.35
  L 23.90 22.53
  A 0.58 0.58 0.0 0 1 23.90 21.71
  L 26.15 19.47
  A 0.58 0.57 30.1 0 0 25.89 18.51
  Q 25.53 18.41 16.28 15.95
  Q 15.16 15.65 14.91 15.90"
/>
<path stroke="#a6c7d3" vector-effect="non-scaling-stroke" d="
  M 43.66 28.58
  L 39.80 32.44
  A 0.48 0.47 -45.4 0 0 39.80 33.11
  L 41.55 34.86
  A 0.57 0.57 0.0 0 0 42.35 34.86
  L 50.89 26.21
  A 1.50 1.50 0.0 0 0 50.83 24.05
  L 50.70 23.92
  A 1.56 1.55 44.9 0 0 48.53 23.92
  L 47.08 25.34
  A 0.72 0.71 41.1 0 1 46.14 25.40
  Q 39.53 20.49 31.04 23.27
  A 0.54 0.53 58.4 0 0 30.83 24.16
  L 32.45 25.79
  A 1.39 1.38 -28.8 0 0 33.74 26.16
  Q 39.04 24.99 43.55 27.65
  A 0.59 0.59 0.0 0 1 43.66 28.58"
/>
<path stroke="#a6c7d3" vector-effect="non-scaling-stroke" d="
  M 27.66 44.65
  A 0.59 0.58 -37.9 0 1 26.74 44.54
  Q 24.12 40.06 25.30 34.81
  A 1.38 1.37 -61.0 0 0 24.93 33.53
  L 23.32 31.91
  A 0.53 0.53 0.0 0 0 22.44 32.12
  Q 19.65 40.53 24.50 47.10
  A 0.71 0.71 0.0 0 1 24.43 48.03
  L 23.02 49.46
  A 1.54 1.54 0.0 0 0 23.01 51.62
  L 23.14 51.75
  A 1.49 1.49 0.0 0 0 25.28 51.81
  L 33.89 43.38
  A 0.56 0.56 0.0 0 0 33.89 42.58
  L 32.17 40.84
  A 0.48 0.47 -44.4 0 0 31.50 40.84
  L 27.66 44.65"
/>
</g>
<path fill="#224d60" d="
  M 33.81 88.00
  L 33.04 88.00
  C 22.05 78.01 11.69 65.34 5.65 51.56
  Q 2.12 43.52 1.55 34.89
  C 0.25 15.34 17.10 -0.44 36.78 1.50
  C 53.96 3.20 66.52 17.99 65.42 35.06
  C 64.13 55.26 48.11 74.96 33.81 88.00
  Z
  M 33.40 86.72
  Q 33.51 86.72 33.61 86.69
  Q 33.69 86.68 33.78 86.59
  Q 47.36 73.89 56.39 58.65
  C 65.90 42.59 69.11 21.93 52.41 8.91
  C 47.28 4.91 40.47 2.49 33.53 2.48
  C 26.58 2.47 19.77 4.87 14.63 8.85
  C -2.11 21.82 1.04 42.49 10.50 58.58
  Q 19.48 73.85 33.02 86.59
  Q 33.11 86.68 33.19 86.69
  Q 33.29 86.72 33.40 86.72
  Z"
/>
<path fill="#4d96b9" d="
  M 33.53 2.48
  C 40.47 2.49 47.28 4.91 52.41 8.91
  C 69.11 21.93 65.90 42.59 56.39 58.65
  Q 47.36 73.89 33.78 86.59
  Q 33.69 86.68 33.61 86.69
  Q 33.51 86.72 33.40 86.72
  Q 33.29 86.72 33.19 86.69
  Q 33.11 86.68 33.02 86.59
  Q 19.48 73.85 10.50 58.58
  C 1.04 42.49 -2.11 21.82 14.63 8.85
  C 19.77 4.87 26.58 2.47 33.53 2.48
  Z
  M 14.91 15.90
  Q 14.66 16.16 14.95 17.27
  Q 17.40 26.53 17.50 26.89
  A 0.58 0.57 60.0 0 0 18.46 27.15
  L 20.70 24.91
  A 0.58 0.58 0.0 0 1 21.52 24.91
  L 40.31 43.70
  A 1.28 1.26 -67.9 0 1 40.68 44.60
  L 40.70 48.73
  A 1.55 1.54 1.0 0 0 42.20 50.27
  L 42.39 50.28
  A 1.49 1.49 0.0 0 0 43.99 48.83
  L 44.07 45.28
  A 0.11 0.08 75.3 0 1 44.10 45.20
  Q 44.11 45.19 44.13 45.17
  Q 44.14 45.16 44.16 45.15
  A 0.11 0.08 14.8 0 1 44.23 45.12
  L 47.78 45.04
  A 1.49 1.49 0.0 0 0 49.24 43.45
  L 49.23 43.26
  A 1.55 1.54 89.1 0 0 47.69 41.75
  L 43.56 41.73
  A 1.28 1.26 -22.0 0 1 42.66 41.35
  L 23.90 22.53
  A 0.58 0.58 0.0 0 1 23.90 21.71
  L 26.15 19.47
  A 0.58 0.57 30.1 0 0 25.89 18.51
  Q 25.53 18.41 16.28 15.95
  Q 15.16 15.65 14.91 15.90
  Z
  M 43.66 28.58
  L 39.80 32.44
  A 0.48 0.47 -45.4 0 0 39.80 33.11
  L 41.55 34.86
  A 0.57 0.57 0.0 0 0 42.35 34.86
  L 50.89 26.21
  A 1.50 1.50 0.0 0 0 50.83 24.05
  L 50.70 23.92
  A 1.56 1.55 44.9 0 0 48.53 23.92
  L 47.08 25.34
  A 0.72 0.71 41.1 0 1 46.14 25.40
  Q 39.53 20.49 31.04 23.27
  A 0.54 0.53 58.4 0 0 30.83 24.16
  L 32.45 25.79
  A 1.39 1.38 -28.8 0 0 33.74 26.16
  Q 39.04 24.99 43.55 27.65
  A 0.59 0.59 0.0 0 1 43.66 28.58
  Z
  M 27.66 44.65
  A 0.59 0.58 -37.9 0 1 26.74 44.54
  Q 24.12 40.06 25.30 34.81
  A 1.38 1.37 -61.0 0 0 24.93 33.53
  L 23.32 31.91
  A 0.53 0.53 0.0 0 0 22.44 32.12
  Q 19.65 40.53 24.50 47.10
  A 0.71 0.71 0.0 0 1 24.43 48.03
  L 23.02 49.46
  A 1.54 1.54 0.0 0 0 23.01 51.62
  L 23.14 51.75
  A 1.49 1.49 0.0 0 0 25.28 51.81
  L 33.89 43.38
  A 0.56 0.56 0.0 0 0 33.89 42.58
  L 32.17 40.84
  A 0.48 0.47 -44.4 0 0 31.50 40.84
  L 27.66 44.65
  Z"
/>
<path fill="#fff8ec" d="
  M 44.13 45.17
  Q 44.11 45.19 44.10 45.20
  A 0.11 0.08 75.3 0 0 44.07 45.28
  L 43.99 48.83
  A 1.49 1.49 0.0 0 1 42.39 50.28
  L 42.20 50.27
  A 1.55 1.54 1.0 0 1 40.70 48.73
  L 40.68 44.60
  A 1.28 1.26 -67.9 0 0 40.31 43.70
  L 21.52 24.91
  A 0.58 0.58 0.0 0 0 20.70 24.91
  L 18.46 27.15
  A 0.58 0.57 60.0 0 1 17.50 26.89
  Q 17.40 26.53 14.95 17.27
  Q 14.66 16.16 14.91 15.90
  Q 15.16 15.65 16.28 15.95
  Q 25.53 18.41 25.89 18.51
  A 0.58 0.57 30.1 0 1 26.15 19.47
  L 23.90 21.71
  A 0.58 0.58 0.0 0 0 23.90 22.53
  L 42.66 41.35
  A 1.28 1.26 -22.0 0 0 43.56 41.73
  L 47.69 41.75
  A 1.55 1.54 89.1 0 1 49.23 43.26
  L 49.24 43.45
  A 1.49 1.49 0.0 0 1 47.78 45.04
  L 44.23 45.12
  A 0.11 0.08 14.8 0 0 44.16 45.15
  Q 44.14 45.16 44.13 45.17
  Z"
/>
<path fill="#fff8ec" d="
  M 43.55 27.65
  Q 39.04 24.99 33.74 26.16
  A 1.39 1.38 -28.8 0 1 32.45 25.79
  L 30.83 24.16
  A 0.54 0.53 58.4 0 1 31.04 23.27
  Q 39.53 20.49 46.14 25.40
  A 0.72 0.71 41.1 0 0 47.08 25.34
  L 48.53 23.92
  A 1.56 1.55 44.9 0 1 50.70 23.92
  L 50.83 24.05
  A 1.50 1.50 0.0 0 1 50.89 26.21
  L 42.35 34.86
  A 0.57 0.57 0.0 0 1 41.55 34.86
  L 39.80 33.11
  A 0.48 0.47 -45.4 0 1 39.80 32.44
  L 43.66 28.58
  A 0.59 0.59 0.0 0 0 43.55 27.65
  Z"
/>
<path fill="#fff8ec" d="
  M 27.66 44.65
  L 31.50 40.84
  A 0.48 0.47 -44.4 0 1 32.17 40.84
  L 33.89 42.58
  A 0.56 0.56 0.0 0 1 33.89 43.38
  L 25.28 51.81
  A 1.49 1.49 0.0 0 1 23.14 51.75
  L 23.01 51.62
  A 1.54 1.54 0.0 0 1 23.02 49.46
  L 24.43 48.03
  A 0.71 0.71 0.0 0 0 24.50 47.10
  Q 19.65 40.53 22.44 32.12
  A 0.53 0.53 0.0 0 1 23.32 31.91
  L 24.93 33.53
  A 1.38 1.37 -61.0 0 1 25.30 34.81
  Q 24.12 40.06 26.74 44.54
  A 0.59 0.58 -37.9 0 0 27.66 44.65
  Z"
/>
</svg>
