<?xml version="1.0" encoding="UTF-8" standalone="no"?>
<!DOCTYPE svg PUBLIC "-//W3C//DTD SVG 1.1//EN" "http://www.w3.org/Graphics/SVG/1.1/DTD/svg11.dtd">
<svg xmlns="http://www.w3.org/2000/svg" version="1.1" viewBox="0.00 0.00 66.00 88.00">
<g stroke-width="2.00" fill="none" stroke-linecap="butt">
<path stroke="#21303f" vector-effect="non-scaling-stroke" d="
  M 33.43 86.58
  Q 33.57 86.58 33.71 86.55
  A 0.11 0.09 10.4 0 0 33.76 86.52
  Q 47.32 74.03 56.36 58.62
  C 64.13 45.36 68.49 28.18 58.18 14.81
  C 52.22 7.08 43.44 2.53 33.48 2.52
  C 23.52 2.52 14.74 7.06 8.78 14.78
  C -1.55 28.14 2.79 45.32 10.54 58.59
  Q 19.56 74.01 33.11 86.52
  A 0.11 0.09 -10.4 0 0 33.16 86.55
  Q 33.29 86.58 33.43 86.58"
/>
<path stroke="#969c9f" vector-effect="non-scaling-stroke" d="
  M 51.19 17.62
  A 1.35 1.35 0.0 0 0 49.40 15.83
  L 26.11 26.44
  A 1.35 1.35 0.0 0 0 25.44 27.11
  L 14.81 50.38
  A 1.35 1.35 0.0 0 0 16.60 52.17
  L 39.89 41.56
  A 1.35 1.35 0.0 0 0 40.56 40.89
  L 51.19 17.62"
/>
<path stroke="#969c9f" vector-effect="non-scaling-stroke" d="
  M 18.86 48.16
  Q 18.90 48.20 18.95 48.22
  A 0.34 0.19 -34.7 0 0 19.18 48.20
  L 37.85 39.78
  A 0.26 0.26 0.0 0 0 37.98 39.43
  L 37.44 38.24
  A 0.63 0.63 0.0 0 0 36.46 38.01
  C 34.18 39.87 31.25 39.73 29.27 37.75
  C 27.30 35.78 27.16 32.85 29.02 30.57
  A 0.63 0.63 0.0 0 0 28.80 29.59
  L 27.61 29.05
  A 0.26 0.26 0.0 0 0 27.26 29.18
  L 18.82 47.84
  A 0.34 0.19 -55.3 0 0 18.80 48.07
  Q 18.82 48.13 18.86 48.16"
/>
<path stroke="#969c9f" vector-effect="non-scaling-stroke" d="
  M 35.70 34.00
  A 2.71 2.71 0.0 0 0 32.99 31.29
  A 2.71 2.71 0.0 0 0 30.28 34.00
  A 2.71 2.71 0.0 0 0 32.99 36.71
  A 2.71 2.71 0.0 0 0 35.70 34.00"
/>
</g>
<path fill="#16212b" d="
  M 33.82 88.00
  L 33.04 88.00
  C 21.73 77.72 12.19 65.74 5.67 51.57
  Q 0.16 39.60 2.09 26.84
  Q 3.24 19.19 9.17 12.43
  C 19.62 0.52 37.13 -2.34 50.68 6.31
  Q 62.32 13.74 64.85 26.80
  C 69.23 49.36 49.19 73.90 33.82 88.00
  Z
  M 33.43 86.58
  Q 33.57 86.58 33.71 86.55
  A 0.11 0.09 10.4 0 0 33.76 86.52
  Q 47.32 74.03 56.36 58.62
  C 64.13 45.36 68.49 28.18 58.18 14.81
  C 52.22 7.08 43.44 2.53 33.48 2.52
  C 23.52 2.52 14.74 7.06 8.78 14.78
  C -1.55 28.14 2.79 45.32 10.54 58.59
  Q 19.56 74.01 33.11 86.52
  A 0.11 0.09 -10.4 0 0 33.16 86.55
  Q 33.29 86.58 33.43 86.58
  Z"
/>
<path fill="#2c3f52" d="
  M 33.48 2.52
  C 43.44 2.53 52.22 7.08 58.18 14.81
  C 68.49 28.18 64.13 45.36 56.36 58.62
  Q 47.32 74.03 33.76 86.52
  A 0.11 0.09 10.4 0 1 33.71 86.55
  Q 33.57 86.58 33.43 86.58
  Q 33.29 86.58 33.16 86.55
  A 0.11 0.09 -10.4 0 1 33.11 86.52
  Q 19.56 74.01 10.54 58.59
  C 2.79 45.32 -1.55 28.14 8.78 14.78
  C 14.74 7.06 23.52 2.52 33.48 2.52
  Z
  M 51.19 17.62
  A 1.35 1.35 0.0 0 0 49.40 15.83
  L 26.11 26.44
  A 1.35 1.35 0.0 0 0 25.44 27.11
  L 14.81 50.38
  A 1.35 1.35 0.0 0 0 16.60 52.17
  L 39.89 41.56
  A 1.35 1.35 0.0 0 0 40.56 40.89
  L 51.19 17.62
  Z"
/>
<path fill="#fff8ec" d="
  M 51.19 17.62
  L 40.56 40.89
  A 1.35 1.35 0.0 0 1 39.89 41.56
  L 16.60 52.17
  A 1.35 1.35 0.0 0 1 14.81 50.38
  L 25.44 27.11
  A 1.35 1.35 0.0 0 1 26.11 26.44
  L 49.40 15.83
  A 1.35 1.35 0.0 0 1 51.19 17.62
  Z
  M 18.86 48.16
  Q 18.90 48.20 18.95 48.22
  A 0.34 0.19 -34.7 0 0 19.18 48.20
  L 37.85 39.78
  A 0.26 0.26 0.0 0 0 37.98 39.43
  L 37.44 38.24
  A 0.63 0.63 0.0 0 0 36.46 38.01
  C 34.18 39.87 31.25 39.73 29.27 37.75
  C 27.30 35.78 27.16 32.85 29.02 30.57
  A 0.63 0.63 0.0 0 0 28.80 29.59
  L 27.61 29.05
  A 0.26 0.26 0.0 0 0 27.26 29.18
  L 18.82 47.84
  A 0.34 0.19 -55.3 0 0 18.80 48.07
  Q 18.82 48.13 18.86 48.16
  Z
  M 35.70 34.00
  A 2.71 2.71 0.0 0 0 32.99 31.29
  A 2.71 2.71 0.0 0 0 30.28 34.00
  A 2.71 2.71 0.0 0 0 32.99 36.71
  A 2.71 2.71 0.0 0 0 35.70 34.00
  Z"
/>
<path fill="#2c3f52" d="
  M 29.27 37.75
  C 31.25 39.73 34.18 39.87 36.46 38.01
  A 0.63 0.63 0.0 0 1 37.44 38.24
  L 37.98 39.43
  A 0.26 0.26 0.0 0 1 37.85 39.78
  L 19.18 48.20
  A 0.34 0.19 -34.7 0 1 18.95 48.22
  Q 18.90 48.20 18.86 48.16
  Q 18.82 48.13 18.80 48.07
  A 0.34 0.19 -55.3 0 1 18.82 47.84
  L 27.26 29.18
  A 0.26 0.26 0.0 0 1 27.61 29.05
  L 28.80 29.59
  A 0.63 0.63 0.0 0 1 29.02 30.57
  C 27.16 32.85 27.30 35.78 29.27 37.75
  Z"
/>
<circle fill="#2c3f52" cx="32.99" cy="34.00" r="2.71"/>
</svg>
