<?xml version="1.0" encoding="UTF-8" standalone="no"?>
<!DOCTYPE svg PUBLIC "-//W3C//DTD SVG 1.1//EN" "http://www.w3.org/Graphics/SVG/1.1/DTD/svg11.dtd">
<svg xmlns="http://www.w3.org/2000/svg" version="1.1" viewBox="0.00 0.00 66.00 88.00">
<g stroke-width="2.00" fill="none" stroke-linecap="butt">
<path stroke="#574f7b" vector-effect="non-scaling-stroke" d="
  M 33.41 86.66
  C 33.66 86.66 33.66 86.66 33.83 86.50
  C 47.34 73.68 60.79 56.83 63.81 38.92
  C 67.05 19.76 53.16 2.55 33.53 2.53
  C 13.90 2.50 -0.04 19.67 3.14 38.83
  C 6.12 56.76 19.52 73.64 33.00 86.50
  C 33.17 86.66 33.17 86.66 33.41 86.66"
/>
<path stroke="#bab0c7" vector-effect="non-scaling-stroke" d="
  M 28.35 22.78
  Q 27.39 23.18 26.65 23.55
  A 1.04 1.03 -35.8 0 1 25.47 23.37
  L 22.21 20.17
  A 0.87 0.87 0.0 0 0 21.23 20.00
  Q 21.07 20.06 20.07 21.07
  Q 19.07 22.07 19.00 22.23
  A 0.87 0.87 0.0 0 0 19.17 23.21
  L 22.37 26.47
  A 1.04 1.03 -54.2 0 1 22.56 27.65
  Q 22.18 28.39 21.79 29.35
  Q 21.39 30.31 21.13 31.10
  A 1.04 1.03 -80.8 0 1 20.16 31.80
  L 15.59 31.84
  A 0.87 0.87 0.0 0 0 14.78 32.41
  Q 14.71 32.57 14.71 33.99
  Q 14.71 35.41 14.78 35.57
  A 0.87 0.87 0.0 0 0 15.59 36.14
  L 20.16 36.18
  A 1.04 1.03 80.8 0 1 21.13 36.88
  Q 21.39 37.67 21.78 38.63
  Q 22.18 39.59 22.56 40.34
  A 1.04 1.03 54.2 0 1 22.37 41.52
  L 19.17 44.78
  A 0.87 0.87 0.0 0 0 19.00 45.76
  Q 19.06 45.91 20.07 46.92
  Q 21.07 47.92 21.23 47.99
  A 0.87 0.87 0.0 0 0 22.21 47.81
  L 25.47 44.61
  A 1.04 1.03 35.8 0 1 26.65 44.43
  Q 27.39 44.80 28.35 45.20
  Q 29.31 45.60 30.10 45.86
  A 1.04 1.03 9.2 0 1 30.80 46.82
  L 30.84 51.39
  A 0.87 0.87 0.0 0 0 31.41 52.21
  Q 31.57 52.27 32.99 52.27
  Q 34.41 52.27 34.57 52.21
  A 0.87 0.87 0.0 0 0 35.14 51.39
  L 35.18 46.82
  A 1.04 1.03 -9.2 0 1 35.89 45.86
  Q 36.68 45.60 37.63 45.20
  Q 38.59 44.80 39.34 44.43
  A 1.04 1.03 -35.8 0 1 40.52 44.62
  L 43.78 47.82
  A 0.87 0.87 0.0 0 0 44.76 47.99
  Q 44.91 47.92 45.92 46.92
  Q 46.92 45.92 46.99 45.76
  A 0.87 0.87 0.0 0 0 46.81 44.78
  L 43.61 41.52
  A 1.04 1.03 -54.2 0 1 43.43 40.34
  Q 43.80 39.60 44.20 38.64
  Q 44.60 37.68 44.86 36.89
  A 1.04 1.03 -80.8 0 1 45.82 36.18
  L 50.39 36.14
  A 0.87 0.87 0.0 0 0 51.21 35.57
  Q 51.27 35.41 51.27 34.00
  Q 51.27 32.58 51.21 32.42
  A 0.87 0.87 0.0 0 0 50.39 31.85
  L 45.83 31.80
  A 1.04 1.03 80.8 0 1 44.86 31.10
  Q 44.60 30.31 44.20 29.35
  Q 43.81 28.39 43.43 27.65
  A 1.04 1.03 54.2 0 1 43.62 26.47
  L 46.82 23.21
  A 0.87 0.87 0.0 0 0 46.99 22.23
  Q 46.92 22.07 45.92 21.07
  Q 44.92 20.07 44.76 20.00
  A 0.87 0.87 0.0 0 0 43.78 20.17
  L 40.52 23.37
  A 1.04 1.03 35.8 0 1 39.34 23.56
  Q 38.60 23.18 37.64 22.79
  Q 36.68 22.39 35.89 22.13
  A 1.04 1.03 9.2 0 1 35.19 21.16
  L 35.14 16.59
  A 0.87 0.87 0.0 0 0 34.57 15.78
  Q 34.41 15.71 33.00 15.71
  Q 31.58 15.71 31.42 15.78
  A 0.87 0.87 0.0 0 0 30.85 16.59
  L 30.81 21.16
  A 1.04 1.03 -9.2 0 1 30.10 22.13
  Q 29.31 22.39 28.35 22.78"
/>
<path stroke="#bab0c7" vector-effect="non-scaling-stroke" d="
  M 40.76 34.00
  A 7.77 7.77 0.0 0 0 32.99 26.23
  A 7.77 7.77 0.0 0 0 25.22 34.00
  A 7.77 7.77 0.0 0 0 32.99 41.77
  A 7.77 7.77 0.0 0 0 40.76 34.00"
/>
<path stroke="#bab0c7" vector-effect="non-scaling-stroke" d="
  M 32.99 38.29
  Q 33.13 38.29 33.37 38.10
  Q 34.02 37.57 35.44 36.13
  A 0.87 0.84 -35.7 0 0 35.61 35.17
  L 33.15 29.88
  A 0.16 0.05 4.7 0 0 33.04 29.84
  Q 33.02 29.83 33.00 29.83
  Q 32.98 29.83 32.96 29.84
  A 0.16 0.05 -4.6 0 0 32.85 29.88
  L 30.38 35.17
  A 0.87 0.84 35.8 0 0 30.55 36.13
  Q 31.97 37.57 32.62 38.10
  Q 32.85 38.29 32.99 38.29"
/>
</g>
<path fill="#3a3555" d="
  M 33.80 88.00
  L 33.04 88.00
  C 16.84 73.34 -5.76 44.86 3.71 21.28
  C 10.11 5.36 28.37 -2.77 44.69 3.34
  Q 57.08 7.98 62.72 19.98
  C 66.62 28.28 66.03 38.42 63.05 47.02
  C 57.62 62.65 45.93 76.95 33.80 88.00
  Z
  M 33.41 86.66
  C 33.66 86.66 33.66 86.66 33.83 86.50
  C 47.34 73.68 60.79 56.83 63.81 38.92
  C 67.05 19.76 53.16 2.55 33.53 2.53
  C 13.90 2.50 -0.04 19.67 3.14 38.83
  C 6.12 56.76 19.52 73.64 33.00 86.50
  C 33.17 86.66 33.17 86.66 33.41 86.66
  Z"
/>
<path fill="#7468a1" d="
  M 33.53 2.53
  C 53.16 2.55 67.05 19.76 63.81 38.92
  C 60.79 56.83 47.34 73.68 33.83 86.50
  C 33.66 86.66 33.66 86.66 33.41 86.66
  C 33.17 86.66 33.17 86.66 33.00 86.50
  C 19.52 73.64 6.12 56.76 3.14 38.83
  C -0.04 19.67 13.90 2.50 33.53 2.53
  Z
  M 28.35 22.78
  Q 27.39 23.18 26.65 23.55
  A 1.04 1.03 -35.8 0 1 25.47 23.37
  L 22.21 20.17
  A 0.87 0.87 0.0 0 0 21.23 20.00
  Q 21.07 20.06 20.07 21.07
  Q 19.07 22.07 19.00 22.23
  A 0.87 0.87 0.0 0 0 19.17 23.21
  L 22.37 26.47
  A 1.04 1.03 -54.2 0 1 22.56 27.65
  Q 22.18 28.39 21.79 29.35
  Q 21.39 30.31 21.13 31.10
  A 1.04 1.03 -80.8 0 1 20.16 31.80
  L 15.59 31.84
  A 0.87 0.87 0.0 0 0 14.78 32.41
  Q 14.71 32.57 14.71 33.99
  Q 14.71 35.41 14.78 35.57
  A 0.87 0.87 0.0 0 0 15.59 36.14
  L 20.16 36.18
  A 1.04 1.03 80.8 0 1 21.13 36.88
  Q 21.39 37.67 21.78 38.63
  Q 22.18 39.59 22.56 40.34
  A 1.04 1.03 54.2 0 1 22.37 41.52
  L 19.17 44.78
  A 0.87 0.87 0.0 0 0 19.00 45.76
  Q 19.06 45.91 20.07 46.92
  Q 21.07 47.92 21.23 47.99
  A 0.87 0.87 0.0 0 0 22.21 47.81
  L 25.47 44.61
  A 1.04 1.03 35.8 0 1 26.65 44.43
  Q 27.39 44.80 28.35 45.20
  Q 29.31 45.60 30.10 45.86
  A 1.04 1.03 9.2 0 1 30.80 46.82
  L 30.84 51.39
  A 0.87 0.87 0.0 0 0 31.41 52.21
  Q 31.57 52.27 32.99 52.27
  Q 34.41 52.27 34.57 52.21
  A 0.87 0.87 0.0 0 0 35.14 51.39
  L 35.18 46.82
  A 1.04 1.03 -9.2 0 1 35.89 45.86
  Q 36.68 45.60 37.63 45.20
  Q 38.59 44.80 39.34 44.43
  A 1.04 1.03 -35.8 0 1 40.52 44.62
  L 43.78 47.82
  A 0.87 0.87 0.0 0 0 44.76 47.99
  Q 44.91 47.92 45.92 46.92
  Q 46.92 45.92 46.99 45.76
  A 0.87 0.87 0.0 0 0 46.81 44.78
  L 43.61 41.52
  A 1.04 1.03 -54.2 0 1 43.43 40.34
  Q 43.80 39.60 44.20 38.64
  Q 44.60 37.68 44.86 36.89
  A 1.04 1.03 -80.8 0 1 45.82 36.18
  L 50.39 36.14
  A 0.87 0.87 0.0 0 0 51.21 35.57
  Q 51.27 35.41 51.27 34.00
  Q 51.27 32.58 51.21 32.42
  A 0.87 0.87 0.0 0 0 50.39 31.85
  L 45.83 31.80
  A 1.04 1.03 80.8 0 1 44.86 31.10
  Q 44.60 30.31 44.20 29.35
  Q 43.81 28.39 43.43 27.65
  A 1.04 1.03 54.2 0 1 43.62 26.47
  L 46.82 23.21
  A 0.87 0.87 0.0 0 0 46.99 22.23
  Q 46.92 22.07 45.92 21.07
  Q 44.92 20.07 44.76 20.00
  A 0.87 0.87 0.0 0 0 43.78 20.17
  L 40.52 23.37
  A 1.04 1.03 35.8 0 1 39.34 23.56
  Q 38.60 23.18 37.64 22.79
  Q 36.68 22.39 35.89 22.13
  A 1.04 1.03 9.2 0 1 35.19 21.16
  L 35.14 16.59
  A 0.87 0.87 0.0 0 0 34.57 15.78
  Q 34.41 15.71 33.00 15.71
  Q 31.58 15.71 31.42 15.78
  A 0.87 0.87 0.0 0 0 30.85 16.59
  L 30.81 21.16
  A 1.04 1.03 -9.2 0 1 30.10 22.13
  Q 29.31 22.39 28.35 22.78
  Z"
/>
<path fill="#fff8ec" d="
  M 33.00 15.71
  Q 34.41 15.71 34.57 15.78
  A 0.87 0.87 0.0 0 1 35.14 16.59
  L 35.19 21.16
  A 1.04 1.03 9.2 0 0 35.89 22.13
  Q 36.68 22.39 37.64 22.79
  Q 38.60 23.18 39.34 23.56
  A 1.04 1.03 35.8 0 0 40.52 23.37
  L 43.78 20.17
  A 0.87 0.87 0.0 0 1 44.76 20.00
  Q 44.92 20.07 45.92 21.07
  Q 46.92 22.07 46.99 22.23
  A 0.87 0.87 0.0 0 1 46.82 23.21
  L 43.62 26.47
  A 1.04 1.03 54.2 0 0 43.43 27.65
  Q 43.81 28.39 44.20 29.35
  Q 44.60 30.31 44.86 31.10
  A 1.04 1.03 80.8 0 0 45.83 31.80
  L 50.39 31.85
  A 0.87 0.87 0.0 0 1 51.21 32.42
  Q 51.27 32.58 51.27 34.00
  Q 51.27 35.41 51.21 35.57
  A 0.87 0.87 0.0 0 1 50.39 36.14
  L 45.82 36.18
  A 1.04 1.03 -80.8 0 0 44.86 36.89
  Q 44.60 37.68 44.20 38.64
  Q 43.80 39.60 43.43 40.34
  A 1.04 1.03 -54.2 0 0 43.61 41.52
  L 46.81 44.78
  A 0.87 0.87 0.0 0 1 46.99 45.76
  Q 46.92 45.92 45.92 46.92
  Q 44.91 47.92 44.76 47.99
  A 0.87 0.87 0.0 0 1 43.78 47.82
  L 40.52 44.62
  A 1.04 1.03 -35.8 0 0 39.34 44.43
  Q 38.59 44.80 37.63 45.20
  Q 36.68 45.60 35.89 45.86
  A 1.04 1.03 -9.2 0 0 35.18 46.82
  L 35.14 51.39
  A 0.87 0.87 0.0 0 1 34.57 52.21
  Q 34.41 52.27 32.99 52.27
  Q 31.57 52.27 31.41 52.21
  A 0.87 0.87 0.0 0 1 30.84 51.39
  L 30.80 46.82
  A 1.04 1.03 9.2 0 0 30.10 45.86
  Q 29.31 45.60 28.35 45.20
  Q 27.39 44.80 26.65 44.43
  A 1.04 1.03 35.8 0 0 25.47 44.61
  L 22.21 47.81
  A 0.87 0.87 0.0 0 1 21.23 47.99
  Q 21.07 47.92 20.07 46.92
  Q 19.06 45.91 19.00 45.76
  A 0.87 0.87 0.0 0 1 19.17 44.78
  L 22.37 41.52
  A 1.04 1.03 54.2 0 0 22.56 40.34
  Q 22.18 39.59 21.78 38.63
  Q 21.39 37.67 21.13 36.88
  A 1.04 1.03 80.8 0 0 20.16 36.18
  L 15.59 36.14
  A 0.87 0.87 0.0 0 1 14.78 35.57
  Q 14.71 35.41 14.71 33.99
  Q 14.71 32.57 14.78 32.41
  A 0.87 0.87 0.0 0 1 15.59 31.84
  L 20.16 31.80
  A 1.04 1.03 -80.8 0 0 21.13 31.10
  Q 21.39 30.31 21.79 29.35
  Q 22.18 28.39 22.56 27.65
  A 1.04 1.03 -54.2 0 0 22.37 26.47
  L 19.17 23.21
  A 0.87 0.87 0.0 0 1 19.00 22.23
  Q 19.07 22.07 20.07 21.07
  Q 21.07 20.06 21.23 20.00
  A 0.87 0.87 0.0 0 1 22.21 20.17
  L 25.47 23.37
  A 1.04 1.03 -35.8 0 0 26.65 23.55
  Q 27.39 23.18 28.35 22.78
  Q 29.31 22.39 30.10 22.13
  A 1.04 1.03 -9.2 0 0 30.81 21.16
  L 30.85 16.59
  A 0.87 0.87 0.0 0 1 31.42 15.78
  Q 31.58 15.71 33.00 15.71
  Z
  M 40.76 34.00
  A 7.77 7.77 0.0 0 0 32.99 26.23
  A 7.77 7.77 0.0 0 0 25.22 34.00
  A 7.77 7.77 0.0 0 0 32.99 41.77
  A 7.77 7.77 0.0 0 0 40.76 34.00
  Z"
/>
<path fill="#7468a1" d="
  M 40.76 34.00
  A 7.77 7.77 0.0 0 1 32.99 41.77
  A 7.77 7.77 0.0 0 1 25.22 34.00
  A 7.77 7.77 0.0 0 1 32.99 26.23
  A 7.77 7.77 0.0 0 1 40.76 34.00
  Z
  M 32.99 38.29
  Q 33.13 38.29 33.37 38.10
  Q 34.02 37.57 35.44 36.13
  A 0.87 0.84 -35.7 0 0 35.61 35.17
  L 33.15 29.88
  A 0.16 0.05 4.7 0 0 33.04 29.84
  Q 33.02 29.83 33.00 29.83
  Q 32.98 29.83 32.96 29.84
  A 0.16 0.05 -4.6 0 0 32.85 29.88
  L 30.38 35.17
  A 0.87 0.84 35.8 0 0 30.55 36.13
  Q 31.97 37.57 32.62 38.10
  Q 32.85 38.29 32.99 38.29
  Z"
/>
<path fill="#fff8ec" d="
  M 33.00 29.83
  Q 33.02 29.83 33.04 29.84
  A 0.16 0.05 4.7 0 1 33.15 29.88
  L 35.61 35.17
  A 0.87 0.84 -35.7 0 1 35.44 36.13
  Q 34.02 37.57 33.37 38.10
  Q 33.13 38.29 32.99 38.29
  Q 32.85 38.29 32.62 38.10
  Q 31.97 37.57 30.55 36.13
  A 0.87 0.84 35.8 0 1 30.38 35.17
  L 32.85 29.88
  A 0.16 0.05 -4.6 0 1 32.96 29.84
  Q 32.98 29.83 33.00 29.83
  Z"
/>
</svg>
