<?xml version="1.0" encoding="UTF-8" standalone="no"?>
<!DOCTYPE svg PUBLIC "-//W3C//DTD SVG 1.1//EN" "http://www.w3.org/Graphics/SVG/1.1/DTD/svg11.dtd">
<svg xmlns="http://www.w3.org/2000/svg" version="1.1" viewBox="0.00 0.00 66.00 88.00">
<g stroke-width="2.00" fill="none" stroke-linecap="butt">
<path stroke="#21303f" vector-effect="non-scaling-stroke" d="
  M 33.43 86.58
  Q 33.56 86.58 33.70 86.55
  A 0.15 0.14 14.6 0 0 33.77 86.51
  Q 47.37 73.98 56.36 58.62
  C 64.00 45.59 68.39 28.68 58.61 15.39
  C 52.67 7.32 43.74 2.54 33.49 2.53
  C 23.24 2.52 14.30 7.29 8.35 15.35
  C -1.45 28.63 2.91 45.54 10.53 58.58
  Q 19.50 73.96 33.08 86.51
  A 0.15 0.14 -14.6 0 0 33.15 86.55
  Q 33.29 86.58 33.43 86.58"
/>
<path stroke="#969c9f" vector-effect="non-scaling-stroke" d="
  M 33.01 52.24
  C 37.06 52.24 41.59 53.06 41.63 47.23
  Q 41.68 39.83 41.56 33.75
  Q 41.50 30.73 37.93 28.52
  A 0.52 0.52 0.0 0 1 37.76 27.80
  Q 41.66 21.45 36.08 16.67
  Q 35.11 15.83 32.97 15.83
  Q 30.82 15.84 29.85 16.68
  Q 24.28 21.47 28.20 27.81
  A 0.52 0.52 0.0 0 1 28.03 28.53
  Q 24.46 30.75 24.41 33.77
  Q 24.30 39.85 24.37 47.25
  C 24.42 53.08 28.95 52.24 33.01 52.24"
/>
<path stroke="#969c9f" vector-effect="non-scaling-stroke" d="
  M 23.75 27.57
  L 16.65 26.21
  A 1.57 1.57 0.0 0 0 14.82 27.45
  Q 14.10 31.05 17.50 31.98
  A 1.16 1.15 -89.2 0 1 18.31 32.82
  Q 18.67 34.34 20.89 34.97
  A 0.55 0.55 0.0 0 0 21.59 34.44
  Q 21.57 31.00 24.00 28.30
  A 0.45 0.44 26.3 0 0 23.75 27.57"
/>
<path stroke="#969c9f" vector-effect="non-scaling-stroke" d="
  M 42.21 27.56
  A 0.45 0.44 -26.1 0 0 41.96 28.29
  Q 44.38 31.00 44.35 34.44
  A 0.55 0.55 0.0 0 0 45.05 34.97
  Q 47.27 34.35 47.63 32.83
  A 1.16 1.15 89.4 0 1 48.45 31.99
  Q 51.85 31.07 51.14 27.47
  A 1.57 1.57 0.0 0 0 49.32 26.22
  L 42.21 27.56"
/>
<path stroke="#969c9f" vector-effect="non-scaling-stroke" d="
  M 32.9646 18.5100
  A 4.40 3.53 -90.2 0 0 29.4500 22.9223
  A 4.40 3.53 -90.2 0 0 32.9954 27.3100
  A 4.40 3.53 -90.2 0 0 36.5100 22.8977
  A 4.40 3.53 -90.2 0 0 32.9646 18.5100"
/>
</g>
<path fill="#16212b" d="
  M 33.80 88.00
  L 33.03 88.00
  C 21.86 77.84 12.08 65.68 5.74 51.77
  Q 2.83 45.39 1.95 38.76
  Q -0.09 23.44 8.49 13.19
  Q 17.75 2.13 32.02 1.37
  C 44.77 0.69 57.25 8.05 62.60 19.66
  C 73.74 43.85 50.37 72.93 33.80 88.00
  Z
  M 33.43 86.58
  Q 33.56 86.58 33.70 86.55
  A 0.15 0.14 14.6 0 0 33.77 86.51
  Q 47.37 73.98 56.36 58.62
  C 64.00 45.59 68.39 28.68 58.61 15.39
  C 52.67 7.32 43.74 2.54 33.49 2.53
  C 23.24 2.52 14.30 7.29 8.35 15.35
  C -1.45 28.63 2.91 45.54 10.53 58.58
  Q 19.50 73.96 33.08 86.51
  A 0.15 0.14 -14.6 0 0 33.15 86.55
  Q 33.29 86.58 33.43 86.58
  Z"
/>
<path fill="#2c3f52" d="
  M 33.49 2.53
  C 43.74 2.54 52.67 7.32 58.61 15.39
  C 68.39 28.68 64.00 45.59 56.36 58.62
  Q 47.37 73.98 33.77 86.51
  A 0.15 0.14 14.6 0 1 33.70 86.55
  Q 33.56 86.58 33.43 86.58
  Q 33.29 86.58 33.15 86.55
  A 0.15 0.14 -14.6 0 1 33.08 86.51
  Q 19.50 73.96 10.53 58.58
  C 2.91 45.54 -1.45 28.63 8.35 15.35
  C 14.30 7.29 23.24 2.52 33.49 2.53
  Z
  M 33.01 52.24
  C 37.06 52.24 41.59 53.06 41.63 47.23
  Q 41.68 39.83 41.56 33.75
  Q 41.50 30.73 37.93 28.52
  A 0.52 0.52 0.0 0 1 37.76 27.80
  Q 41.66 21.45 36.08 16.67
  Q 35.11 15.83 32.97 15.83
  Q 30.82 15.84 29.85 16.68
  Q 24.28 21.47 28.20 27.81
  A 0.52 0.52 0.0 0 1 28.03 28.53
  Q 24.46 30.75 24.41 33.77
  Q 24.30 39.85 24.37 47.25
  C 24.42 53.08 28.95 52.24 33.01 52.24
  Z
  M 23.75 27.57
  L 16.65 26.21
  A 1.57 1.57 0.0 0 0 14.82 27.45
  Q 14.10 31.05 17.50 31.98
  A 1.16 1.15 -89.2 0 1 18.31 32.82
  Q 18.67 34.34 20.89 34.97
  A 0.55 0.55 0.0 0 0 21.59 34.44
  Q 21.57 31.00 24.00 28.30
  A 0.45 0.44 26.3 0 0 23.75 27.57
  Z
  M 42.21 27.56
  A 0.45 0.44 -26.1 0 0 41.96 28.29
  Q 44.38 31.00 44.35 34.44
  A 0.55 0.55 0.0 0 0 45.05 34.97
  Q 47.27 34.35 47.63 32.83
  A 1.16 1.15 89.4 0 1 48.45 31.99
  Q 51.85 31.07 51.14 27.47
  A 1.57 1.57 0.0 0 0 49.32 26.22
  L 42.21 27.56
  Z"
/>
<path fill="#fff8ec" d="
  M 32.97 15.83
  Q 35.11 15.83 36.08 16.67
  Q 41.66 21.45 37.76 27.80
  A 0.52 0.52 0.0 0 0 37.93 28.52
  Q 41.50 30.73 41.56 33.75
  Q 41.68 39.83 41.63 47.23
  C 41.59 53.06 37.06 52.24 33.01 52.24
  C 28.95 52.24 24.42 53.08 24.37 47.25
  Q 24.30 39.85 24.41 33.77
  Q 24.46 30.75 28.03 28.53
  A 0.52 0.52 0.0 0 0 28.20 27.81
  Q 24.28 21.47 29.85 16.68
  Q 30.82 15.84 32.97 15.83
  Z
  M 32.9646 18.5100
  A 4.40 3.53 -90.2 0 0 29.4500 22.9223
  A 4.40 3.53 -90.2 0 0 32.9954 27.3100
  A 4.40 3.53 -90.2 0 0 36.5100 22.8977
  A 4.40 3.53 -90.2 0 0 32.9646 18.5100
  Z"
/>
<ellipse fill="#2c3f52" cx="0.00" cy="0.00" transform="translate(32.98,22.91) rotate(-90.2)" rx="4.40" ry="3.53"/>
<path fill="#fff8ec" d="
  M 24.00 28.30
  Q 21.57 31.00 21.59 34.44
  A 0.55 0.55 0.0 0 1 20.89 34.97
  Q 18.67 34.34 18.31 32.82
  A 1.16 1.15 -89.2 0 0 17.50 31.98
  Q 14.10 31.05 14.82 27.45
  A 1.57 1.57 0.0 0 1 16.65 26.21
  L 23.75 27.57
  A 0.45 0.44 26.3 0 1 24.00 28.30
  Z"
/>
<path fill="#fff8ec" d="
  M 42.21 27.56
  L 49.32 26.22
  A 1.57 1.57 0.0 0 1 51.14 27.47
  Q 51.85 31.07 48.45 31.99
  A 1.16 1.15 89.4 0 0 47.63 32.83
  Q 47.27 34.35 45.05 34.97
  A 0.55 0.55 0.0 0 1 44.35 34.44
  Q 44.38 31.00 41.96 28.29
  A 0.45 0.44 -26.1 0 1 42.21 27.56
  Z"
/>
</svg>
