<?xml version="1.0" encoding="UTF-8" standalone="no"?>
<!DOCTYPE svg PUBLIC "-//W3C//DTD SVG 1.1//EN" "http://www.w3.org/Graphics/SVG/1.1/DTD/svg11.dtd">
<svg xmlns="http://www.w3.org/2000/svg" version="1.1" viewBox="0.00 0.00 66.00 88.00">
<g stroke-width="2.00" fill="none" stroke-linecap="butt">
<path stroke="#21303f" vector-effect="non-scaling-stroke" d="
  M 33.40 86.58
  Q 33.54 86.58 33.67 86.54
  A 0.04 0.04 0.0 0 0 33.70 86.53
  Q 44.98 75.98 53.24 63.75
  C 61.43 51.61 68.46 34.30 61.36 19.94
  Q 56.72 10.54 47.34 5.75
  C 43.36 3.72 37.94 2.48 33.52 2.47
  C 29.11 2.47 23.68 3.69 19.70 5.71
  Q 10.30 10.47 5.64 19.86
  C -1.51 34.19 5.47 51.53 13.62 63.69
  Q 21.85 75.95 33.09 86.53
  A 0.04 0.04 0.0 0 0 33.12 86.54
  Q 33.26 86.58 33.40 86.58"
/>
<path stroke="#969c9f" vector-effect="non-scaling-stroke" d="
  M 28.17 15.88
  Q 28.07 15.88 28.05 15.90
  Q 21.78 21.41 19.92 23.12
  A 2.05 2.03 -21.3 0 0 19.25 24.63
  L 19.25 27.58
  A 0.41 0.41 0.0 0 0 19.95 27.87
  L 25.76 22.06
  A 0.39 0.39 0.0 0 1 26.43 22.34
  L 26.43 35.48
  A 0.67 0.67 0.0 0 0 26.98 36.14
  Q 27.55 36.24 28.15 36.24
  Q 28.74 36.24 29.31 36.14
  A 0.67 0.67 0.0 0 0 29.86 35.48
  L 29.88 22.35
  A 0.39 0.39 0.0 0 1 30.55 22.07
  L 36.35 27.88
  A 0.41 0.41 0.0 0 0 37.05 27.59
  L 37.05 24.64
  A 2.05 2.03 21.4 0 0 36.39 23.13
  Q 34.53 21.42 28.27 15.90
  Q 28.24 15.88 28.17 15.88"
/>
<path stroke="#969c9f" vector-effect="non-scaling-stroke" d="
  M 37.04 52.12
  Q 37.11 52.12 37.14 52.09
  Q 43.41 46.58 45.27 44.87
  A 2.05 2.03 -21.3 0 0 45.94 43.36
  L 45.94 40.41
  A 0.41 0.41 0.0 0 0 45.24 40.12
  L 39.43 45.93
  A 0.39 0.39 0.0 0 1 38.76 45.65
  L 38.76 32.51
  A 0.67 0.67 0.0 0 0 38.20 31.85
  Q 37.64 31.75 37.05 31.75
  Q 36.44 31.75 35.88 31.85
  A 0.67 0.67 0.0 0 0 35.32 32.51
  L 35.31 45.65
  A 0.39 0.39 0.0 0 1 34.64 45.93
  L 28.83 40.11
  A 0.41 0.41 0.0 0 0 28.13 40.40
  L 28.13 43.35
  A 2.05 2.03 21.4 0 0 28.80 44.86
  Q 30.66 46.57 36.92 52.09
  Q 36.95 52.12 37.04 52.12"
/>
</g>
<path fill="#16212b" d="
  M 33.80 88.00
  L 33.04 88.00
  C 21.75 77.74 12.13 65.68 5.65 51.56
  Q 2.20 44.05 1.60 34.89
  C 0.54 18.88 11.35 5.50 26.73 2.05
  C 41.12 -1.18 55.95 6.01 62.58 19.70
  C 66.92 28.67 65.94 39.74 62.41 48.87
  C 56.66 63.73 45.52 77.34 33.80 88.00
  Z
  M 33.40 86.58
  Q 33.54 86.58 33.67 86.54
  A 0.04 0.04 0.0 0 0 33.70 86.53
  Q 44.98 75.98 53.24 63.75
  C 61.43 51.61 68.46 34.30 61.36 19.94
  Q 56.72 10.54 47.34 5.75
  C 43.36 3.72 37.94 2.48 33.52 2.47
  C 29.11 2.47 23.68 3.69 19.70 5.71
  Q 10.30 10.47 5.64 19.86
  C -1.51 34.19 5.47 51.53 13.62 63.69
  Q 21.85 75.95 33.09 86.53
  A 0.04 0.04 0.0 0 0 33.12 86.54
  Q 33.26 86.58 33.40 86.58
  Z"
/>
<path fill="#2c3f52" d="
  M 33.52 2.47
  C 37.94 2.48 43.36 3.72 47.34 5.75
  Q 56.72 10.54 61.36 19.94
  C 68.46 34.30 61.43 51.61 53.24 63.75
  Q 44.98 75.98 33.70 86.53
  A 0.04 0.04 0.0 0 1 33.67 86.54
  Q 33.54 86.58 33.40 86.58
  Q 33.26 86.58 33.12 86.54
  A 0.04 0.04 0.0 0 1 33.09 86.53
  Q 21.85 75.95 13.62 63.69
  C 5.47 51.53 -1.51 34.19 5.64 19.86
  Q 10.30 10.47 19.70 5.71
  C 23.68 3.69 29.11 2.47 33.52 2.47
  Z
  M 28.17 15.88
  Q 28.07 15.88 28.05 15.90
  Q 21.78 21.41 19.92 23.12
  A 2.05 2.03 -21.3 0 0 19.25 24.63
  L 19.25 27.58
  A 0.41 0.41 0.0 0 0 19.95 27.87
  L 25.76 22.06
  A 0.39 0.39 0.0 0 1 26.43 22.34
  L 26.43 35.48
  A 0.67 0.67 0.0 0 0 26.98 36.14
  Q 27.55 36.24 28.15 36.24
  Q 28.74 36.24 29.31 36.14
  A 0.67 0.67 0.0 0 0 29.86 35.48
  L 29.88 22.35
  A 0.39 0.39 0.0 0 1 30.55 22.07
  L 36.35 27.88
  A 0.41 0.41 0.0 0 0 37.05 27.59
  L 37.05 24.64
  A 2.05 2.03 21.4 0 0 36.39 23.13
  Q 34.53 21.42 28.27 15.90
  Q 28.24 15.88 28.17 15.88
  Z
  M 37.04 52.12
  Q 37.11 52.12 37.14 52.09
  Q 43.41 46.58 45.27 44.87
  A 2.05 2.03 -21.3 0 0 45.94 43.36
  L 45.94 40.41
  A 0.41 0.41 0.0 0 0 45.24 40.12
  L 39.43 45.93
  A 0.39 0.39 0.0 0 1 38.76 45.65
  L 38.76 32.51
  A 0.67 0.67 0.0 0 0 38.20 31.85
  Q 37.64 31.75 37.05 31.75
  Q 36.44 31.75 35.88 31.85
  A 0.67 0.67 0.0 0 0 35.32 32.51
  L 35.31 45.65
  A 0.39 0.39 0.0 0 1 34.64 45.93
  L 28.83 40.11
  A 0.41 0.41 0.0 0 0 28.13 40.40
  L 28.13 43.35
  A 2.05 2.03 21.4 0 0 28.80 44.86
  Q 30.66 46.57 36.92 52.09
  Q 36.95 52.12 37.04 52.12
  Z"
/>
<path fill="#fff8ec" d="
  M 28.17 15.88
  Q 28.24 15.88 28.27 15.90
  Q 34.53 21.42 36.39 23.13
  A 2.05 2.03 21.4 0 1 37.05 24.64
  L 37.05 27.59
  A 0.41 0.41 0.0 0 1 36.35 27.88
  L 30.55 22.07
  A 0.39 0.39 0.0 0 0 29.88 22.35
  L 29.86 35.48
  A 0.67 0.67 0.0 0 1 29.31 36.14
  Q 28.74 36.24 28.15 36.24
  Q 27.55 36.24 26.98 36.14
  A 0.67 0.67 0.0 0 1 26.43 35.48
  L 26.43 22.34
  A 0.39 0.39 0.0 0 0 25.76 22.06
  L 19.95 27.87
  A 0.41 0.41 0.0 0 1 19.25 27.58
  L 19.25 24.63
  A 2.05 2.03 -21.3 0 1 19.92 23.12
  Q 21.78 21.41 28.05 15.90
  Q 28.07 15.88 28.17 15.88
  Z"
/>
<path fill="#fff8ec" d="
  M 37.05 31.75
  Q 37.64 31.75 38.20 31.85
  A 0.67 0.67 0.0 0 1 38.76 32.51
  L 38.76 45.65
  A 0.39 0.39 0.0 0 0 39.43 45.93
  L 45.24 40.12
  A 0.41 0.41 0.0 0 1 45.94 40.41
  L 45.94 43.36
  A 2.05 2.03 -21.3 0 1 45.27 44.87
  Q 43.41 46.58 37.14 52.09
  Q 37.11 52.12 37.04 52.12
  Q 36.95 52.12 36.92 52.09
  Q 30.66 46.57 28.80 44.86
  A 2.05 2.03 21.4 0 1 28.13 43.35
  L 28.13 40.40
  A 0.41 0.41 0.0 0 1 28.83 40.11
  L 34.64 45.93
  A 0.39 0.39 0.0 0 0 35.31 45.65
  L 35.32 32.51
  A 0.67 0.67 0.0 0 1 35.88 31.85
  Q 36.44 31.75 37.05 31.75
  Z"
/>
</svg>
