<?xml version="1.0" encoding="UTF-8" standalone="no"?>
<!DOCTYPE svg PUBLIC "-//W3C//DTD SVG 1.1//EN" "http://www.w3.org/Graphics/SVG/1.1/DTD/svg11.dtd">
<svg xmlns="http://www.w3.org/2000/svg" version="1.1" viewBox="0.00 0.00 66.00 88.00">
<g stroke-width="2.00" fill="none" stroke-linecap="butt">
<path stroke="#21303f" vector-effect="non-scaling-stroke" d="
  M 33.42 86.59
  C 34.02 86.59 33.59 86.60 33.78 86.43
  Q 47.14 74.31 56.45 58.48
  Q 62.55 48.11 63.84 38.29
  Q 66.58 17.38 48.60 6.46
  Q 42.08 2.50 33.50 2.49
  Q 24.92 2.49 18.39 6.43
  Q 0.39 17.32 3.10 38.24
  Q 4.37 48.06 10.45 58.44
  Q 19.73 74.29 33.07 86.43
  C 33.26 86.60 32.83 86.59 33.42 86.59"
/>
<path stroke="#969c9f" vector-effect="non-scaling-stroke" d="
  M 48.81 52.26
  A 0.31 0.31 0.0 0 0 48.99 51.70
  L 45.73 49.35
  A 0.31 0.31 0.0 0 1 45.61 49.17
  L 37.18 16.01
  A 0.31 0.31 0.0 0 0 36.88 15.78
  L 25.83 15.71
  A 0.31 0.31 0.0 0 0 25.65 16.27
  L 28.93 18.60
  A 0.31 0.31 0.0 0 1 29.05 18.94
  L 20.54 49.19
  A 0.31 0.31 0.0 0 1 20.42 49.36
  L 17.11 51.72
  A 0.31 0.31 0.0 0 0 17.29 52.28
  L 27.39 52.26
  A 0.31 0.31 0.0 0 0 27.60 51.72
  L 25.33 49.65
  A 0.31 0.31 0.0 0 1 25.24 49.34
  L 27.57 41.23
  A 0.31 0.31 0.0 0 1 27.86 41.01
  L 34.60 41.01
  A 0.31 0.31 0.0 0 1 34.91 41.25
  L 36.81 49.31
  A 0.31 0.31 0.0 0 1 36.69 49.63
  L 33.80 51.69
  A 0.31 0.31 0.0 0 0 33.98 52.25
  L 48.81 52.26"
/>
<path stroke="#969c9f" vector-effect="non-scaling-stroke" d="
  M 36.68 29.89
  Q 37.80 29.62 37.25 28.01
  Q 34.70 20.51 34.39 20.59
  Q 34.07 20.67 35.29 28.49
  Q 35.55 30.17 36.68 29.89"
/>
<path stroke="#969c9f" vector-effect="non-scaling-stroke" d="
  M 31.39 37.25
  Q 32.81 37.28 33.36 37.27
  A 0.54 0.54 0.0 0 0 33.88 36.60
  L 31.84 28.01
  A 0.28 0.26 8.1 0 0 31.70 27.84
  Q 31.61 27.79 31.58 27.79
  Q 31.55 27.79 31.46 27.84
  A 0.28 0.26 -5.7 0 0 31.31 28.00
  L 28.92 36.50
  A 0.54 0.54 0.0 0 0 29.41 37.18
  Q 29.96 37.22 31.39 37.25"
/>
<path stroke="#969c9f" vector-effect="non-scaling-stroke" d="
  M 37.4315 32.7983
  A 1.31 0.94 -99.6 0 0 36.7232 34.2468
  A 1.31 0.94 -99.6 0 0 37.8685 35.3817
  A 1.31 0.94 -99.6 0 0 38.5768 33.9332
  A 1.31 0.94 -99.6 0 0 37.4315 32.7983"
/>
<path stroke="#969c9f" vector-effect="non-scaling-stroke" d="
  M 41.16 47.64
  L 39.96 39.26
  A 1.12 1.12 0.0 0 0 37.84 38.94
  Q 37.77 39.06 38.01 39.77
  Q 39.32 43.73 40.92 47.70
  A 0.13 0.12 30.5 0 0 41.16 47.64"
/>
</g>
<path fill="#16212b" d="
  M 33.81 88.00
  L 33.04 88.00
  C 16.71 73.16 -6.74 43.71 4.28 19.97
  C 12.49 2.28 34.31 -4.07 50.66 6.29
  Q 62.34 13.70 64.91 27.02
  C 69.20 49.27 49.12 74.02 33.81 88.00
  Z
  M 33.42 86.59
  C 34.02 86.59 33.59 86.60 33.78 86.43
  Q 47.14 74.31 56.45 58.48
  Q 62.55 48.11 63.84 38.29
  Q 66.58 17.38 48.60 6.46
  Q 42.08 2.50 33.50 2.49
  Q 24.92 2.49 18.39 6.43
  Q 0.39 17.32 3.10 38.24
  Q 4.37 48.06 10.45 58.44
  Q 19.73 74.29 33.07 86.43
  C 33.26 86.60 32.83 86.59 33.42 86.59
  Z"
/>
<path fill="#2c3f52" d="
  M 33.50 2.49
  Q 42.08 2.50 48.60 6.46
  Q 66.58 17.38 63.84 38.29
  Q 62.55 48.11 56.45 58.48
  Q 47.14 74.31 33.78 86.43
  C 33.59 86.60 34.02 86.59 33.42 86.59
  C 32.83 86.59 33.26 86.60 33.07 86.43
  Q 19.73 74.29 10.45 58.44
  Q 4.37 48.06 3.10 38.24
  Q 0.39 17.32 18.39 6.43
  Q 24.92 2.49 33.50 2.49
  Z
  M 48.81 52.26
  A 0.31 0.31 0.0 0 0 48.99 51.70
  L 45.73 49.35
  A 0.31 0.31 0.0 0 1 45.61 49.17
  L 37.18 16.01
  A 0.31 0.31 0.0 0 0 36.88 15.78
  L 25.83 15.71
  A 0.31 0.31 0.0 0 0 25.65 16.27
  L 28.93 18.60
  A 0.31 0.31 0.0 0 1 29.05 18.94
  L 20.54 49.19
  A 0.31 0.31 0.0 0 1 20.42 49.36
  L 17.11 51.72
  A 0.31 0.31 0.0 0 0 17.29 52.28
  L 27.39 52.26
  A 0.31 0.31 0.0 0 0 27.60 51.72
  L 25.33 49.65
  A 0.31 0.31 0.0 0 1 25.24 49.34
  L 27.57 41.23
  A 0.31 0.31 0.0 0 1 27.86 41.01
  L 34.60 41.01
  A 0.31 0.31 0.0 0 1 34.91 41.25
  L 36.81 49.31
  A 0.31 0.31 0.0 0 1 36.69 49.63
  L 33.80 51.69
  A 0.31 0.31 0.0 0 0 33.98 52.25
  L 48.81 52.26
  Z"
/>
<path fill="#fff8ec" d="
  M 48.81 52.26
  L 33.98 52.25
  A 0.31 0.31 0.0 0 1 33.80 51.69
  L 36.69 49.63
  A 0.31 0.31 0.0 0 0 36.81 49.31
  L 34.91 41.25
  A 0.31 0.31 0.0 0 0 34.60 41.01
  L 27.86 41.01
  A 0.31 0.31 0.0 0 0 27.57 41.23
  L 25.24 49.34
  A 0.31 0.31 0.0 0 0 25.33 49.65
  L 27.60 51.72
  A 0.31 0.31 0.0 0 1 27.39 52.26
  L 17.29 52.28
  A 0.31 0.31 0.0 0 1 17.11 51.72
  L 20.42 49.36
  A 0.31 0.31 0.0 0 0 20.54 49.19
  L 29.05 18.94
  A 0.31 0.31 0.0 0 0 28.93 18.60
  L 25.65 16.27
  A 0.31 0.31 0.0 0 1 25.83 15.71
  L 36.88 15.78
  A 0.31 0.31 0.0 0 1 37.18 16.01
  L 45.61 49.17
  A 0.31 0.31 0.0 0 0 45.73 49.35
  L 48.99 51.70
  A 0.31 0.31 0.0 0 1 48.81 52.26
  Z
  M 36.68 29.89
  Q 37.80 29.62 37.25 28.01
  Q 34.70 20.51 34.39 20.59
  Q 34.07 20.67 35.29 28.49
  Q 35.55 30.17 36.68 29.89
  Z
  M 31.39 37.25
  Q 32.81 37.28 33.36 37.27
  A 0.54 0.54 0.0 0 0 33.88 36.60
  L 31.84 28.01
  A 0.28 0.26 8.1 0 0 31.70 27.84
  Q 31.61 27.79 31.58 27.79
  Q 31.55 27.79 31.46 27.84
  A 0.28 0.26 -5.7 0 0 31.31 28.00
  L 28.92 36.50
  A 0.54 0.54 0.0 0 0 29.41 37.18
  Q 29.96 37.22 31.39 37.25
  Z
  M 37.4315 32.7983
  A 1.31 0.94 -99.6 0 0 36.7232 34.2468
  A 1.31 0.94 -99.6 0 0 37.8685 35.3817
  A 1.31 0.94 -99.6 0 0 38.5768 33.9332
  A 1.31 0.94 -99.6 0 0 37.4315 32.7983
  Z
  M 41.16 47.64
  L 39.96 39.26
  A 1.12 1.12 0.0 0 0 37.84 38.94
  Q 37.77 39.06 38.01 39.77
  Q 39.32 43.73 40.92 47.70
  A 0.13 0.12 30.5 0 0 41.16 47.64
  Z"
/>
<path fill="#2c3f52" d="
  M 34.39 20.59
  Q 34.70 20.51 37.25 28.01
  Q 37.80 29.62 36.68 29.89
  Q 35.55 30.17 35.29 28.49
  Q 34.07 20.67 34.39 20.59
  Z"
/>
<path fill="#2c3f52" d="
  M 31.58 27.79
  Q 31.61 27.79 31.70 27.84
  A 0.28 0.26 8.1 0 1 31.84 28.01
  L 33.88 36.60
  A 0.54 0.54 0.0 0 1 33.36 37.27
  Q 32.81 37.28 31.39 37.25
  Q 29.96 37.22 29.41 37.18
  A 0.54 0.54 0.0 0 1 28.92 36.50
  L 31.31 28.00
  A 0.28 0.26 -5.7 0 1 31.46 27.84
  Q 31.55 27.79 31.58 27.79
  Z"
/>
<ellipse fill="#2c3f52" cx="0.00" cy="0.00" transform="translate(37.65,34.09) rotate(-99.6)" rx="1.31" ry="0.94"/>
<path fill="#2c3f52" d="
  M 40.92 47.70
  Q 39.32 43.73 38.01 39.77
  Q 37.77 39.06 37.84 38.94
  A 1.12 1.12 0.0 0 1 39.96 39.26
  L 41.16 47.64
  A 0.13 0.12 30.5 0 1 40.92 47.70
  Z"
/>
</svg>
