<?xml version="1.0" encoding="UTF-8" standalone="no"?>
<!DOCTYPE svg PUBLIC "-//W3C//DTD SVG 1.1//EN" "http://www.w3.org/Graphics/SVG/1.1/DTD/svg11.dtd">
<svg xmlns="http://www.w3.org/2000/svg" version="1.1" viewBox="0.00 0.00 66.00 88.00">
<g stroke-width="2.00" fill="none" stroke-linecap="butt">
<path stroke="#428270" vector-effect="non-scaling-stroke" d="
  M 33.40 86.73
  Q 33.52 86.73 33.65 86.61
  Q 47.54 73.74 56.68 58.19
  C 67.69 39.48 68.39 16.28 46.62 5.41
  Q 40.75 2.47 33.53 2.46
  Q 26.31 2.45 20.43 5.37
  C -1.37 16.17 -0.74 39.38 10.21 58.12
  Q 19.31 73.70 33.15 86.61
  Q 33.29 86.73 33.40 86.73"
/>
<path stroke="#add2c1" vector-effect="non-scaling-stroke" d="
  M 28.14 19.48
  L 37.78 19.50
  A 0.52 0.52 0.0 0 0 38.30 18.98
  L 38.30 18.47
  A 2.71 2.63 -89.9 0 0 35.67 15.75
  L 30.25 15.75
  A 2.71 2.63 -89.9 0 0 27.62 18.45
  L 27.62 18.96
  A 0.52 0.52 0.0 0 0 28.14 19.48"
/>
<path stroke="#add2c1" vector-effect="non-scaling-stroke" d="
  M 32.98 52.24
  C 36.25 52.24 38.76 49.99 39.02 46.97
  Q 39.03 46.84 39.16 27.16
  A 1.32 1.29 -23.3 0 1 39.52 26.29
  Q 39.86 25.93 40.40 25.74
  A 1.30 1.25 54.0 0 0 40.71 23.54
  C 39.66 22.70 36.50 22.99 32.99 22.99
  C 29.48 22.99 26.31 22.69 25.26 23.53
  A 1.30 1.25 -53.9 0 0 25.57 25.74
  Q 26.11 25.93 26.45 26.29
  A 1.32 1.29 23.3 0 1 26.81 27.16
  Q 26.93 46.84 26.94 46.97
  C 27.20 49.99 29.70 52.24 32.98 52.24"
/>
</g>
<path fill="#2a584b" d="
  M 33.80 88.00
  L 33.15 88.00
  Q 15.61 72.48 6.00 52.51
  Q 2.24 44.69 1.62 35.22
  Q 1.01 25.77 5.27 17.98
  C 11.40 6.75 23.69 0.18 36.86 1.51
  C 53.44 3.18 66.05 17.30 65.46 33.92
  C 64.73 54.49 48.40 74.70 33.80 88.00
  Z
  M 33.40 86.73
  Q 33.52 86.73 33.65 86.61
  Q 47.54 73.74 56.68 58.19
  C 67.69 39.48 68.39 16.28 46.62 5.41
  Q 40.75 2.47 33.53 2.46
  Q 26.31 2.45 20.43 5.37
  C -1.37 16.17 -0.74 39.38 10.21 58.12
  Q 19.31 73.70 33.15 86.61
  Q 33.29 86.73 33.40 86.73
  Z"
/>
<path fill="#5aab95" d="
  M 33.53 2.46
  Q 40.75 2.47 46.62 5.41
  C 68.39 16.28 67.69 39.48 56.68 58.19
  Q 47.54 73.74 33.65 86.61
  Q 33.52 86.73 33.40 86.73
  Q 33.29 86.73 33.15 86.61
  Q 19.31 73.70 10.21 58.12
  C -0.74 39.38 -1.37 16.17 20.43 5.37
  Q 26.31 2.45 33.53 2.46
  Z
  M 28.14 19.48
  L 37.78 19.50
  A 0.52 0.52 0.0 0 0 38.30 18.98
  L 38.30 18.47
  A 2.71 2.63 -89.9 0 0 35.67 15.75
  L 30.25 15.75
  A 2.71 2.63 -89.9 0 0 27.62 18.45
  L 27.62 18.96
  A 0.52 0.52 0.0 0 0 28.14 19.48
  Z
  M 32.98 52.24
  C 36.25 52.24 38.76 49.99 39.02 46.97
  Q 39.03 46.84 39.16 27.16
  A 1.32 1.29 -23.3 0 1 39.52 26.29
  Q 39.86 25.93 40.40 25.74
  A 1.30 1.25 54.0 0 0 40.71 23.54
  C 39.66 22.70 36.50 22.99 32.99 22.99
  C 29.48 22.99 26.31 22.69 25.26 23.53
  A 1.30 1.25 -53.9 0 0 25.57 25.74
  Q 26.11 25.93 26.45 26.29
  A 1.32 1.29 23.3 0 1 26.81 27.16
  Q 26.93 46.84 26.94 46.97
  C 27.20 49.99 29.70 52.24 32.98 52.24
  Z"
/>
<path fill="#fff8ec" d="
  M 28.14 19.48
  A 0.52 0.52 0.0 0 1 27.62 18.96
  L 27.62 18.45
  A 2.71 2.63 -89.9 0 1 30.25 15.75
  L 35.67 15.75
  A 2.71 2.63 -89.9 0 1 38.30 18.47
  L 38.30 18.98
  A 0.52 0.52 0.0 0 1 37.78 19.50
  L 28.14 19.48
  Z"
/>
<path fill="#fff8ec" d="
  M 32.99 22.99
  C 36.50 22.99 39.66 22.70 40.71 23.54
  A 1.30 1.25 54.0 0 1 40.40 25.74
  Q 39.86 25.93 39.52 26.29
  A 1.32 1.29 -23.3 0 0 39.16 27.16
  Q 39.03 46.84 39.02 46.97
  C 38.76 49.99 36.25 52.24 32.98 52.24
  C 29.70 52.24 27.20 49.99 26.94 46.97
  Q 26.93 46.84 26.81 27.16
  A 1.32 1.29 23.3 0 0 26.45 26.29
  Q 26.11 25.93 25.57 25.74
  A 1.30 1.25 -53.9 0 1 25.26 23.53
  C 26.31 22.69 29.48 22.99 32.99 22.99
  Z"
/>
</svg>
