<?xml version="1.0" encoding="UTF-8" standalone="no"?>
<!DOCTYPE svg PUBLIC "-//W3C//DTD SVG 1.1//EN" "http://www.w3.org/Graphics/SVG/1.1/DTD/svg11.dtd">
<svg xmlns="http://www.w3.org/2000/svg" version="1.1" viewBox="0.00 0.00 66.00 88.00">
<g stroke-width="2.00" fill="none" stroke-linecap="butt">
<path stroke="#26433a" vector-effect="non-scaling-stroke" d="
  M 33.42 86.61
  C 34.07 86.61 33.58 86.67 33.78 86.48
  C 48.17 73.00 64.88 52.40 64.22 31.53
  C 63.70 15.14 49.74 2.58 33.53 2.56
  C 17.32 2.54 3.33 15.06 2.77 31.45
  C 2.05 52.32 18.71 72.96 33.06 86.47
  C 33.27 86.67 32.77 86.61 33.42 86.61"
/>
<path stroke="#99a89d" vector-effect="non-scaling-stroke" d="
  M 33.23 23.18
  Q 33.30 23.18 33.34 23.17
  A 0.40 0.29 7.1 0 0 33.53 23.06
  L 38.07 18.08
  A 0.40 0.40 0.0 0 0 38.00 17.48
  Q 35.64 15.84 33.27 15.83
  Q 30.90 15.82 28.52 17.44
  A 0.40 0.40 0.0 0 0 28.44 18.04
  L 32.94 23.06
  A 0.40 0.29 -6.6 0 0 33.13 23.17
  Q 33.17 23.18 33.23 23.18"
/>
<path stroke="#99a89d" vector-effect="non-scaling-stroke" d="
  M 25.11 34.03
  Q 26.52 29.74 29.51 26.51
  A 1.03 1.02 44.0 0 0 29.48 25.09
  L 25.69 21.30
  A 0.64 0.64 0.0 0 0 24.71 21.38
  Q 21.26 26.16 19.86 32.38
  A 0.38 0.38 0.0 0 0 20.12 32.82
  L 24.72 34.24
  A 0.32 0.31 -72.1 0 0 25.11 34.03"
/>
<path stroke="#99a89d" vector-effect="non-scaling-stroke" d="
  M 41.32 34.02
  A 0.32 0.31 72.2 0 0 41.71 34.23
  L 46.33 32.81
  A 0.38 0.38 0.0 0 0 46.60 32.36
  Q 45.19 26.12 41.73 21.31
  A 0.65 0.64 -40.2 0 0 40.74 21.23
  L 36.94 25.04
  A 1.03 1.02 -44.0 0 0 36.91 26.46
  Q 39.91 29.71 41.32 34.02"
/>
<path stroke="#99a89d" vector-effect="non-scaling-stroke" d="
  M 33.24 42.25
  Q 33.35 42.25 33.54 41.99
  Q 35.71 39.03 37.42 37.41
  A 0.98 0.98 0.0 0 0 37.70 36.49
  Q 36.68 31.95 33.50 29.03
  Q 33.49 29.02 33.37 29.00
  Q 33.32 28.99 33.27 28.99
  Q 33.22 28.99 33.16 29.00
  Q 33.04 29.02 33.03 29.03
  Q 29.84 31.93 28.80 36.47
  A 0.98 0.98 0.0 0 0 29.08 37.39
  Q 30.78 39.02 32.93 41.99
  Q 33.12 42.25 33.24 42.25"
/>
<path stroke="#99a89d" vector-effect="non-scaling-stroke" d="
  M 38.19 42.65
  Q 35.01 46.60 34.64 51.98
  A 0.40 0.40 0.0 0 0 35.09 52.41
  Q 41.16 51.70 44.41 47.65
  Q 47.66 43.61 47.06 37.54
  A 0.40 0.40 0.0 0 0 46.55 37.19
  Q 41.37 38.70 38.19 42.65"
/>
<path stroke="#99a89d" vector-effect="non-scaling-stroke" d="
  M 28.28 42.63
  Q 25.09 38.67 19.89 37.16
  A 0.41 0.40 10.8 0 0 19.38 37.51
  Q 18.78 43.60 22.05 47.65
  Q 25.31 51.70 31.39 52.41
  A 0.41 0.40 -88.6 0 0 31.84 51.98
  Q 31.47 46.58 28.28 42.63"
/>
</g>
<path fill="#192e27" d="
  M 33.80 88.00
  L 33.04 88.00
  C 21.76 77.76 12.10 65.67 5.65 51.56
  Q 2.21 44.05 1.60 34.89
  C 0.54 18.97 11.20 5.67 26.50 2.10
  C 40.96 -1.27 55.89 5.94 62.59 19.70
  C 66.96 28.70 65.92 39.55 62.34 48.97
  C 56.73 63.74 45.41 77.44 33.80 88.00
  Z
  M 33.42 86.61
  C 34.07 86.61 33.58 86.67 33.78 86.48
  C 48.17 73.00 64.88 52.40 64.22 31.53
  C 63.70 15.14 49.74 2.58 33.53 2.56
  C 17.32 2.54 3.33 15.06 2.77 31.45
  C 2.05 52.32 18.71 72.96 33.06 86.47
  C 33.27 86.67 32.77 86.61 33.42 86.61
  Z"
/>
<path fill="#32574d" d="
  M 33.53 2.56
  C 49.74 2.58 63.70 15.14 64.22 31.53
  C 64.88 52.40 48.17 73.00 33.78 86.48
  C 33.58 86.67 34.07 86.61 33.42 86.61
  C 32.77 86.61 33.27 86.67 33.06 86.47
  C 18.71 72.96 2.05 52.32 2.77 31.45
  C 3.33 15.06 17.32 2.54 33.53 2.56
  Z
  M 33.23 23.18
  Q 33.30 23.18 33.34 23.17
  A 0.40 0.29 7.1 0 0 33.53 23.06
  L 38.07 18.08
  A 0.40 0.40 0.0 0 0 38.00 17.48
  Q 35.64 15.84 33.27 15.83
  Q 30.90 15.82 28.52 17.44
  A 0.40 0.40 0.0 0 0 28.44 18.04
  L 32.94 23.06
  A 0.40 0.29 -6.6 0 0 33.13 23.17
  Q 33.17 23.18 33.23 23.18
  Z
  M 25.11 34.03
  Q 26.52 29.74 29.51 26.51
  A 1.03 1.02 44.0 0 0 29.48 25.09
  L 25.69 21.30
  A 0.64 0.64 0.0 0 0 24.71 21.38
  Q 21.26 26.16 19.86 32.38
  A 0.38 0.38 0.0 0 0 20.12 32.82
  L 24.72 34.24
  A 0.32 0.31 -72.1 0 0 25.11 34.03
  Z
  M 41.32 34.02
  A 0.32 0.31 72.2 0 0 41.71 34.23
  L 46.33 32.81
  A 0.38 0.38 0.0 0 0 46.60 32.36
  Q 45.19 26.12 41.73 21.31
  A 0.65 0.64 -40.2 0 0 40.74 21.23
  L 36.94 25.04
  A 1.03 1.02 -44.0 0 0 36.91 26.46
  Q 39.91 29.71 41.32 34.02
  Z
  M 33.24 42.25
  Q 33.35 42.25 33.54 41.99
  Q 35.71 39.03 37.42 37.41
  A 0.98 0.98 0.0 0 0 37.70 36.49
  Q 36.68 31.95 33.50 29.03
  Q 33.49 29.02 33.37 29.00
  Q 33.32 28.99 33.27 28.99
  Q 33.22 28.99 33.16 29.00
  Q 33.04 29.02 33.03 29.03
  Q 29.84 31.93 28.80 36.47
  A 0.98 0.98 0.0 0 0 29.08 37.39
  Q 30.78 39.02 32.93 41.99
  Q 33.12 42.25 33.24 42.25
  Z
  M 38.19 42.65
  Q 35.01 46.60 34.64 51.98
  A 0.40 0.40 0.0 0 0 35.09 52.41
  Q 41.16 51.70 44.41 47.65
  Q 47.66 43.61 47.06 37.54
  A 0.40 0.40 0.0 0 0 46.55 37.19
  Q 41.37 38.70 38.19 42.65
  Z
  M 28.28 42.63
  Q 25.09 38.67 19.89 37.16
  A 0.41 0.40 10.8 0 0 19.38 37.51
  Q 18.78 43.60 22.05 47.65
  Q 25.31 51.70 31.39 52.41
  A 0.41 0.40 -88.6 0 0 31.84 51.98
  Q 31.47 46.58 28.28 42.63
  Z"
/>
<path fill="#fff8ec" d="
  M 33.27 15.83
  Q 35.64 15.84 38.00 17.48
  A 0.40 0.40 0.0 0 1 38.07 18.08
  L 33.53 23.06
  A 0.40 0.29 7.1 0 1 33.34 23.17
  Q 33.30 23.18 33.23 23.18
  Q 33.17 23.18 33.13 23.17
  A 0.40 0.29 -6.6 0 1 32.94 23.06
  L 28.44 18.04
  A 0.40 0.40 0.0 0 1 28.52 17.44
  Q 30.90 15.82 33.27 15.83
  Z"
/>
<path fill="#fff8ec" d="
  M 25.11 34.03
  A 0.32 0.31 -72.1 0 1 24.72 34.24
  L 20.12 32.82
  A 0.38 0.38 0.0 0 1 19.86 32.38
  Q 21.26 26.16 24.71 21.38
  A 0.64 0.64 0.0 0 1 25.69 21.30
  L 29.48 25.09
  A 1.03 1.02 44.0 0 1 29.51 26.51
  Q 26.52 29.74 25.11 34.03
  Z"
/>
<path fill="#fff8ec" d="
  M 41.32 34.02
  Q 39.91 29.71 36.91 26.46
  A 1.03 1.02 -44.0 0 1 36.94 25.04
  L 40.74 21.23
  A 0.65 0.64 -40.2 0 1 41.73 21.31
  Q 45.19 26.12 46.60 32.36
  A 0.38 0.38 0.0 0 1 46.33 32.81
  L 41.71 34.23
  A 0.32 0.31 72.2 0 1 41.32 34.02
  Z"
/>
<path fill="#fff8ec" d="
  M 33.27 28.99
  Q 33.32 28.99 33.37 29.00
  Q 33.49 29.02 33.50 29.03
  Q 36.68 31.95 37.70 36.49
  A 0.98 0.98 0.0 0 1 37.42 37.41
  Q 35.71 39.03 33.54 41.99
  Q 33.35 42.25 33.24 42.25
  Q 33.12 42.25 32.93 41.99
  Q 30.78 39.02 29.08 37.39
  A 0.98 0.98 0.0 0 1 28.80 36.47
  Q 29.84 31.93 33.03 29.03
  Q 33.04 29.02 33.16 29.00
  Q 33.22 28.99 33.27 28.99
  Z"
/>
<path fill="#fff8ec" d="
  M 44.41 47.65
  Q 41.16 51.70 35.09 52.41
  A 0.40 0.40 0.0 0 1 34.64 51.98
  Q 35.01 46.60 38.19 42.65
  Q 41.37 38.70 46.55 37.19
  A 0.40 0.40 0.0 0 1 47.06 37.54
  Q 47.66 43.61 44.41 47.65
  Z"
/>
<path fill="#fff8ec" d="
  M 28.28 42.63
  Q 31.47 46.58 31.84 51.98
  A 0.41 0.40 -88.6 0 1 31.39 52.41
  Q 25.31 51.70 22.05 47.65
  Q 18.78 43.60 19.38 37.51
  A 0.41 0.40 10.8 0 1 19.89 37.16
  Q 25.09 38.67 28.28 42.63
  Z"
/>
</svg>
