<?xml version="1.0" encoding="UTF-8" standalone="no"?>
<!DOCTYPE svg PUBLIC "-//W3C//DTD SVG 1.1//EN" "http://www.w3.org/Graphics/SVG/1.1/DTD/svg11.dtd">
<svg xmlns="http://www.w3.org/2000/svg" version="1.1" viewBox="0.00 0.00 66.00 88.00">
<g stroke-width="2.00" fill="none" stroke-linecap="butt">
<path stroke="#26433a" vector-effect="non-scaling-stroke" d="
  M 33.42 86.61
  C 33.73 86.61 33.66 86.63 33.80 86.50
  Q 48.34 73.12 57.57 56.53
  C 65.24 42.76 67.92 25.59 56.78 13.05
  C 50.77 6.27 42.66 2.57 33.53 2.56
  C 24.40 2.55 16.28 6.23 10.25 12.99
  C -0.92 25.50 1.72 42.68 9.35 56.47
  Q 18.54 73.08 33.05 86.50
  C 33.19 86.63 33.12 86.61 33.42 86.61"
/>
<path stroke="#99a89d" vector-effect="non-scaling-stroke" d="
  M 14.65 34.14
  C 14.65 36.56 14.22 41.24 15.43 42.84
  C 18.76 47.25 27.57 48.02 32.98 48.03
  C 38.38 48.03 47.19 47.27 50.53 42.87
  C 51.75 41.27 51.32 36.60 51.32 34.17
  C 51.32 31.74 51.76 27.07 50.55 25.47
  C 47.22 21.06 38.41 20.28 33.00 20.28
  C 27.59 20.27 18.78 21.04 15.44 25.44
  C 14.23 27.04 14.66 31.71 14.65 34.14"
/>
<path stroke="#99a89d" vector-effect="non-scaling-stroke" d="
  M 17.7500 27.7900
  A 15.25 4.48 -180.0 0 0 33.0000 32.2700
  A 15.25 4.48 -180.0 0 0 48.2500 27.7900
  A 15.25 4.48 -180.0 0 0 33.0000 23.3100
  A 15.25 4.48 -180.0 0 0 17.7500 27.7900"
/>
</g>
<path fill="#192e27" d="
  M 33.78 88.00
  L 33.04 88.00
  C 17.13 73.54 -4.68 46.24 3.08 22.96
  Q 5.61 15.40 11.72 9.74
  C 23.77 -1.42 43.77 -1.73 55.96 10.41
  Q 68.40 22.80 64.56 41.40
  C 60.94 58.94 46.82 76.20 33.78 88.00
  Z
  M 33.42 86.61
  C 33.73 86.61 33.66 86.63 33.80 86.50
  Q 48.34 73.12 57.57 56.53
  C 65.24 42.76 67.92 25.59 56.78 13.05
  C 50.77 6.27 42.66 2.57 33.53 2.56
  C 24.40 2.55 16.28 6.23 10.25 12.99
  C -0.92 25.50 1.72 42.68 9.35 56.47
  Q 18.54 73.08 33.05 86.50
  C 33.19 86.63 33.12 86.61 33.42 86.61
  Z"
/>
<path fill="#32574d" d="
  M 33.53 2.56
  C 42.66 2.57 50.77 6.27 56.78 13.05
  C 67.92 25.59 65.24 42.76 57.57 56.53
  Q 48.34 73.12 33.80 86.50
  C 33.66 86.63 33.73 86.61 33.42 86.61
  C 33.12 86.61 33.19 86.63 33.05 86.50
  Q 18.54 73.08 9.35 56.47
  C 1.72 42.68 -0.92 25.50 10.25 12.99
  C 16.28 6.23 24.40 2.55 33.53 2.56
  Z
  M 14.65 34.14
  C 14.65 36.56 14.22 41.24 15.43 42.84
  C 18.76 47.25 27.57 48.02 32.98 48.03
  C 38.38 48.03 47.19 47.27 50.53 42.87
  C 51.75 41.27 51.32 36.60 51.32 34.17
  C 51.32 31.74 51.76 27.07 50.55 25.47
  C 47.22 21.06 38.41 20.28 33.00 20.28
  C 27.59 20.27 18.78 21.04 15.44 25.44
  C 14.23 27.04 14.66 31.71 14.65 34.14
  Z"
/>
<path fill="#fff8ec" d="
  M 33.00 20.28
  C 38.41 20.28 47.22 21.06 50.55 25.47
  C 51.76 27.07 51.32 31.74 51.32 34.17
  C 51.32 36.60 51.75 41.27 50.53 42.87
  C 47.19 47.27 38.38 48.03 32.98 48.03
  C 27.57 48.02 18.76 47.25 15.43 42.84
  C 14.22 41.24 14.65 36.56 14.65 34.14
  C 14.66 31.71 14.23 27.04 15.44 25.44
  C 18.78 21.04 27.59 20.27 33.00 20.28
  Z
  M 17.7500 27.7900
  A 15.25 4.48 -180.0 0 0 33.0000 32.2700
  A 15.25 4.48 -180.0 0 0 48.2500 27.7900
  A 15.25 4.48 -180.0 0 0 33.0000 23.3100
  A 15.25 4.48 -180.0 0 0 17.7500 27.7900
  Z"
/>
<ellipse fill="#32574d" cx="0.00" cy="0.00" transform="translate(33.00,27.79) rotate(-180.0)" rx="15.25" ry="4.48"/>
</svg>
