<?xml version="1.0" encoding="UTF-8" standalone="no"?>
<!DOCTYPE svg PUBLIC "-//W3C//DTD SVG 1.1//EN" "http://www.w3.org/Graphics/SVG/1.1/DTD/svg11.dtd">
<svg xmlns="http://www.w3.org/2000/svg" version="1.1" viewBox="0.00 0.00 66.00 88.00">
<g stroke-width="2.00" fill="none" stroke-linecap="butt">
<path stroke="#428270" vector-effect="non-scaling-stroke" d="
  M 33.39 86.73
  Q 33.55 86.73 33.66 86.62
  C 45.27 75.77 56.15 62.25 61.60 47.56
  C 65.33 37.48 65.52 26.33 59.98 17.33
  C 54.28 8.06 44.70 2.75 33.75 2.46
  Q 33.64 2.46 33.54 2.46
  Q 33.44 2.46 33.33 2.46
  C 22.38 2.71 12.78 7.99 7.05 17.24
  C 1.48 26.22 1.63 37.37 5.33 47.46
  C 10.72 62.17 21.56 75.73 33.13 86.62
  Q 33.24 86.73 33.39 86.73"
/>
<path stroke="#add2c1" vector-effect="non-scaling-stroke" d="
  M 33.11 38.01
  Q 36.47 38.00 36.92 37.96
  A 0.55 0.55 0.0 0 0 37.30 37.09
  Q 36.44 35.93 35.25 35.31
  A 1.11 1.10 -76.2 0 1 34.66 34.33
  L 34.66 28.89
  A 0.96 0.95 78.3 0 1 35.23 28.01
  C 41.36 25.30 40.59 17.72 34.37 15.88
  Q 33.82 15.72 33.07 15.72
  Q 32.31 15.73 31.76 15.89
  C 25.55 17.75 24.81 25.33 30.96 28.02
  A 0.96 0.95 -78.5 0 1 31.53 28.90
  L 31.55 34.34
  A 1.11 1.10 76.0 0 1 30.97 35.32
  Q 29.78 35.94 28.92 37.11
  A 0.55 0.55 0.0 0 0 29.31 37.97
  Q 29.76 38.02 33.11 38.01"
/>
<path stroke="#add2c1" vector-effect="non-scaling-stroke" d="
  M 19.17 38.02
  L 24.85 37.98
  A 0.27 0.27 0.0 0 0 25.12 37.71
  L 25.12 37.54
  A 3.06 3.06 0.0 0 0 22.04 34.50
  L 21.94 34.50
  A 3.06 3.06 0.0 0 0 18.90 37.58
  L 18.90 37.75
  A 0.27 0.27 0.0 0 0 19.17 38.02"
/>
<path stroke="#add2c1" vector-effect="non-scaling-stroke" d="
  M 50.63 43.64
  A 2.39 2.39 0.0 0 0 48.24 41.25
  L 17.96 41.25
  A 2.39 2.39 0.0 0 0 15.57 43.64
  L 15.57 49.84
  A 2.39 2.39 0.0 0 0 17.96 52.23
  L 48.24 52.23
  A 2.39 2.39 0.0 0 0 50.63 49.84
  L 50.63 43.64"
/>
</g>
<path fill="#2a584b" d="
  M 33.78 88.00
  L 33.04 88.00
  C 22.01 77.98 11.61 65.24 5.59 51.41
  Q 2.10 43.41 1.55 34.82
  C 0.28 15.34 17.07 -0.37 36.66 1.49
  C 52.92 3.04 65.78 16.78 65.47 33.15
  Q 65.34 40.24 63.06 47.03
  C 57.86 62.47 45.75 77.17 33.78 88.00
  Z
  M 33.39 86.73
  Q 33.55 86.73 33.66 86.62
  C 45.27 75.77 56.15 62.25 61.60 47.56
  C 65.33 37.48 65.52 26.33 59.98 17.33
  C 54.28 8.06 44.70 2.75 33.75 2.46
  Q 33.64 2.46 33.54 2.46
  Q 33.44 2.46 33.33 2.46
  C 22.38 2.71 12.78 7.99 7.05 17.24
  C 1.48 26.22 1.63 37.37 5.33 47.46
  C 10.72 62.17 21.56 75.73 33.13 86.62
  Q 33.24 86.73 33.39 86.73
  Z"
/>
<path fill="#5aab95" d="
  M 33.54 2.46
  Q 33.64 2.46 33.75 2.46
  C 44.70 2.75 54.28 8.06 59.98 17.33
  C 65.52 26.33 65.33 37.48 61.60 47.56
  C 56.15 62.25 45.27 75.77 33.66 86.62
  Q 33.55 86.73 33.39 86.73
  Q 33.24 86.73 33.13 86.62
  C 21.56 75.73 10.72 62.17 5.33 47.46
  C 1.63 37.37 1.48 26.22 7.05 17.24
  C 12.78 7.99 22.38 2.71 33.33 2.46
  Q 33.44 2.46 33.54 2.46
  Z
  M 33.11 38.01
  Q 36.47 38.00 36.92 37.96
  A 0.55 0.55 0.0 0 0 37.30 37.09
  Q 36.44 35.93 35.25 35.31
  A 1.11 1.10 -76.2 0 1 34.66 34.33
  L 34.66 28.89
  A 0.96 0.95 78.3 0 1 35.23 28.01
  C 41.36 25.30 40.59 17.72 34.37 15.88
  Q 33.82 15.72 33.07 15.72
  Q 32.31 15.73 31.76 15.89
  C 25.55 17.75 24.81 25.33 30.96 28.02
  A 0.96 0.95 -78.5 0 1 31.53 28.90
  L 31.55 34.34
  A 1.11 1.10 76.0 0 1 30.97 35.32
  Q 29.78 35.94 28.92 37.11
  A 0.55 0.55 0.0 0 0 29.31 37.97
  Q 29.76 38.02 33.11 38.01
  Z
  M 19.17 38.02
  L 24.85 37.98
  A 0.27 0.27 0.0 0 0 25.12 37.71
  L 25.12 37.54
  A 3.06 3.06 0.0 0 0 22.04 34.50
  L 21.94 34.50
  A 3.06 3.06 0.0 0 0 18.90 37.58
  L 18.90 37.75
  A 0.27 0.27 0.0 0 0 19.17 38.02
  Z
  M 50.63 43.64
  A 2.39 2.39 0.0 0 0 48.24 41.25
  L 17.96 41.25
  A 2.39 2.39 0.0 0 0 15.57 43.64
  L 15.57 49.84
  A 2.39 2.39 0.0 0 0 17.96 52.23
  L 48.24 52.23
  A 2.39 2.39 0.0 0 0 50.63 49.84
  L 50.63 43.64
  Z"
/>
<path fill="#fff8ec" d="
  M 33.07 15.72
  Q 33.82 15.72 34.37 15.88
  C 40.59 17.72 41.36 25.30 35.23 28.01
  A 0.96 0.95 78.3 0 0 34.66 28.89
  L 34.66 34.33
  A 1.11 1.10 -76.2 0 0 35.25 35.31
  Q 36.44 35.93 37.30 37.09
  A 0.55 0.55 0.0 0 1 36.92 37.96
  Q 36.47 38.00 33.11 38.01
  Q 29.76 38.02 29.31 37.97
  A 0.55 0.55 0.0 0 1 28.92 37.11
  Q 29.78 35.94 30.97 35.32
  A 1.11 1.10 76.0 0 0 31.55 34.34
  L 31.53 28.90
  A 0.96 0.95 -78.5 0 0 30.96 28.02
  C 24.81 25.33 25.55 17.75 31.76 15.89
  Q 32.31 15.73 33.07 15.72
  Z"
/>
<path fill="#fff8ec" d="
  M 19.17 38.02
  A 0.27 0.27 0.0 0 1 18.90 37.75
  L 18.90 37.58
  A 3.06 3.06 0.0 0 1 21.94 34.50
  L 22.04 34.50
  A 3.06 3.06 0.0 0 1 25.12 37.54
  L 25.12 37.71
  A 0.27 0.27 0.0 0 1 24.85 37.98
  L 19.17 38.02
  Z"
/>
<rect fill="#fff8ec" x="15.57" y="41.25" width="35.06" height="10.98" rx="2.39"/>
</svg>
