<?xml version="1.0" encoding="UTF-8" standalone="no"?>
<!DOCTYPE svg PUBLIC "-//W3C//DTD SVG 1.1//EN" "http://www.w3.org/Graphics/SVG/1.1/DTD/svg11.dtd">
<svg xmlns="http://www.w3.org/2000/svg" version="1.1" viewBox="0.00 0.00 66.00 88.00">
<g stroke-width="2.00" fill="none" stroke-linecap="butt">
<path stroke="#177b60" vector-effect="non-scaling-stroke" d="
  M 33.41 86.74
  Q 33.51 86.74 33.65 86.62
  Q 47.63 73.67 56.59 58.32
  C 63.62 46.27 67.76 30.61 60.50 18.25
  C 54.84 8.62 45.09 2.47 33.53 2.45
  C 21.96 2.44 12.20 8.57 6.52 18.17
  C -0.78 30.51 3.31 46.19 10.31 58.26
  Q 19.23 73.63 33.17 86.62
  Q 33.31 86.74 33.41 86.74"
/>
<path stroke="#8fceb6" vector-effect="non-scaling-stroke" d="
  M 47.55 27.32
  L 50.14 25.26
  A 1.24 1.24 0.0 0 0 49.78 23.12
  Q 43.53 20.97 37.97 23.05
  A 1.50 1.47 38.8 0 1 37.27 23.12
  L 31.27 22.17
  A 1.15 1.13 29.9 0 0 30.38 22.40
  L 25.57 26.22
  A 0.81 0.81 0.0 0 0 25.74 27.60
  L 27.98 28.58
  A 0.53 0.53 0.0 0 1 28.14 29.44
  Q 25.72 31.82 23.93 35.48
  A 0.72 0.71 17.2 0 1 23.16 35.88
  C 21.01 35.55 17.91 34.89 15.48 35.57
  A 1.08 1.07 49.0 0 0 15.34 37.59
  L 20.65 39.92
  A 0.11 0.10 27.7 0 1 20.70 40.06
  Q 19.34 42.62 19.24 45.09
  A 0.90 0.90 0.0 0 0 20.68 45.85
  Q 23.89 43.46 25.87 39.85
  A 0.72 0.71 44.4 0 1 27.12 39.84
  L 28.75 42.67
  A 1.02 1.02 0.0 0 0 30.64 42.32
  L 30.94 40.38
  A 0.74 0.73 -1.9 0 1 31.50 39.79
  L 39.32 37.95
  A 0.63 0.63 0.0 0 1 40.08 38.42
  L 41.02 42.43
  A 1.08 1.08 0.0 0 0 42.88 42.89
  Q 45.78 39.57 45.21 35.71
  A 1.00 1.00 0.0 0 1 45.53 34.82
  C 48.17 32.38 50.34 31.05 51.27 28.52
  A 0.90 0.90 0.0 0 0 50.22 27.33
  L 47.82 27.89
  A 0.32 0.32 0.0 0 1 47.55 27.32"
/>
<path stroke="#8fceb6" vector-effect="non-scaling-stroke" d="
  M 42.7420 26.0249
  A 1.15 0.95 -154.5 0 0 43.3710 27.3775
  A 1.15 0.95 -154.5 0 0 44.8180 27.0151
  A 1.15 0.95 -154.5 0 0 44.1890 25.6625
  A 1.15 0.95 -154.5 0 0 42.7420 26.0249"
/>
</g>
<path fill="#0e5340" d="
  M 33.79 88.00
  L 33.05 88.00
  C 21.71 77.71 11.96 65.45 5.58 51.41
  Q 2.17 43.92 1.59 34.82
  Q 1.01 25.97 5.09 18.34
  C 17.35 -4.61 51.43 -4.49 62.70 19.94
  C 73.73 43.83 50.16 73.16 33.79 88.00
  Z
  M 33.41 86.74
  Q 33.51 86.74 33.65 86.62
  Q 47.63 73.67 56.59 58.32
  C 63.62 46.27 67.76 30.61 60.50 18.25
  C 54.84 8.62 45.09 2.47 33.53 2.45
  C 21.96 2.44 12.20 8.57 6.52 18.17
  C -0.78 30.51 3.31 46.19 10.31 58.26
  Q 19.23 73.63 33.17 86.62
  Q 33.31 86.74 33.41 86.74
  Z"
/>
<path fill="#1fa37f" d="
  M 33.53 2.45
  C 45.09 2.47 54.84 8.62 60.50 18.25
  C 67.76 30.61 63.62 46.27 56.59 58.32
  Q 47.63 73.67 33.65 86.62
  Q 33.51 86.74 33.41 86.74
  Q 33.31 86.74 33.17 86.62
  Q 19.23 73.63 10.31 58.26
  C 3.31 46.19 -0.78 30.51 6.52 18.17
  C 12.20 8.57 21.96 2.44 33.53 2.45
  Z
  M 47.55 27.32
  L 50.14 25.26
  A 1.24 1.24 0.0 0 0 49.78 23.12
  Q 43.53 20.97 37.97 23.05
  A 1.50 1.47 38.8 0 1 37.27 23.12
  L 31.27 22.17
  A 1.15 1.13 29.9 0 0 30.38 22.40
  L 25.57 26.22
  A 0.81 0.81 0.0 0 0 25.74 27.60
  L 27.98 28.58
  A 0.53 0.53 0.0 0 1 28.14 29.44
  Q 25.72 31.82 23.93 35.48
  A 0.72 0.71 17.2 0 1 23.16 35.88
  C 21.01 35.55 17.91 34.89 15.48 35.57
  A 1.08 1.07 49.0 0 0 15.34 37.59
  L 20.65 39.92
  A 0.11 0.10 27.7 0 1 20.70 40.06
  Q 19.34 42.62 19.24 45.09
  A 0.90 0.90 0.0 0 0 20.68 45.85
  Q 23.89 43.46 25.87 39.85
  A 0.72 0.71 44.4 0 1 27.12 39.84
  L 28.75 42.67
  A 1.02 1.02 0.0 0 0 30.64 42.32
  L 30.94 40.38
  A 0.74 0.73 -1.9 0 1 31.50 39.79
  L 39.32 37.95
  A 0.63 0.63 0.0 0 1 40.08 38.42
  L 41.02 42.43
  A 1.08 1.08 0.0 0 0 42.88 42.89
  Q 45.78 39.57 45.21 35.71
  A 1.00 1.00 0.0 0 1 45.53 34.82
  C 48.17 32.38 50.34 31.05 51.27 28.52
  A 0.90 0.90 0.0 0 0 50.22 27.33
  L 47.82 27.89
  A 0.32 0.32 0.0 0 1 47.55 27.32
  Z"
/>
<path fill="#fff8ec" d="
  M 47.82 27.89
  L 50.22 27.33
  A 0.90 0.90 0.0 0 1 51.27 28.52
  C 50.34 31.05 48.17 32.38 45.53 34.82
  A 1.00 1.00 0.0 0 0 45.21 35.71
  Q 45.78 39.57 42.88 42.89
  A 1.08 1.08 0.0 0 1 41.02 42.43
  L 40.08 38.42
  A 0.63 0.63 0.0 0 0 39.32 37.95
  L 31.50 39.79
  A 0.74 0.73 -1.9 0 0 30.94 40.38
  L 30.64 42.32
  A 1.02 1.02 0.0 0 1 28.75 42.67
  L 27.12 39.84
  A 0.72 0.71 44.4 0 0 25.87 39.85
  Q 23.89 43.46 20.68 45.85
  A 0.90 0.90 0.0 0 1 19.24 45.09
  Q 19.34 42.62 20.70 40.06
  A 0.11 0.10 27.7 0 0 20.65 39.92
  L 15.34 37.59
  A 1.08 1.07 49.0 0 1 15.48 35.57
  C 17.91 34.89 21.01 35.55 23.16 35.88
  A 0.72 0.71 17.2 0 0 23.93 35.48
  Q 25.72 31.82 28.14 29.44
  A 0.53 0.53 0.0 0 0 27.98 28.58
  L 25.74 27.60
  A 0.81 0.81 0.0 0 1 25.57 26.22
  L 30.38 22.40
  A 1.15 1.13 29.9 0 1 31.27 22.17
  L 37.27 23.12
  A 1.50 1.47 38.8 0 0 37.97 23.05
  Q 43.53 20.97 49.78 23.12
  A 1.24 1.24 0.0 0 1 50.14 25.26
  L 47.55 27.32
  A 0.32 0.32 0.0 0 0 47.82 27.89
  Z
  M 42.7420 26.0249
  A 1.15 0.95 -154.5 0 0 43.3710 27.3775
  A 1.15 0.95 -154.5 0 0 44.8180 27.0151
  A 1.15 0.95 -154.5 0 0 44.1890 25.6625
  A 1.15 0.95 -154.5 0 0 42.7420 26.0249
  Z"
/>
<ellipse fill="#1fa37f" cx="0.00" cy="0.00" transform="translate(43.78,26.52) rotate(-154.5)" rx="1.15" ry="0.95"/>
</svg>
