<?xml version="1.0" encoding="UTF-8" standalone="no"?>
<!DOCTYPE svg PUBLIC "-//W3C//DTD SVG 1.1//EN" "http://www.w3.org/Graphics/SVG/1.1/DTD/svg11.dtd">
<svg xmlns="http://www.w3.org/2000/svg" version="1.1" viewBox="0.00 0.00 66.00 88.00">
<g stroke-width="2.00" fill="none" stroke-linecap="butt">
<path stroke="#802436" vector-effect="non-scaling-stroke" d="
  M 33.42 86.69
  Q 33.53 86.69 33.62 86.67
  Q 33.69 86.66 33.78 86.57
  C 47.71 73.37 64.05 53.50 64.26 33.19
  C 64.45 15.89 50.57 2.94 33.75 2.46
  Q 33.63 2.46 33.51 2.46
  Q 33.39 2.46 33.27 2.46
  C 16.45 2.90 2.54 15.83 2.70 33.13
  C 2.86 53.44 19.16 73.34 33.06 86.57
  Q 33.15 86.66 33.22 86.67
  Q 33.32 86.69 33.42 86.69"
/>
<path stroke="#d4959a" vector-effect="non-scaling-stroke" d="
  M 26.86 39.36
  Q 26.48 39.48 26.13 39.73
  A 1.26 1.24 -19.0 0 0 25.61 40.78
  Q 25.63 41.98 25.17 42.24
  A 2.06 1.94 -49.8 0 0 25.37 45.87
  Q 25.45 45.90 26.51 45.75
  A 1.88 1.86 71.2 0 0 27.85 42.98
  Q 27.84 42.96 27.63 42.83
  A 1.08 1.08 0.0 0 1 27.91 40.86
  Q 31.12 40.03 33.62 40.89
  A 1.04 0.83 42.7 0 1 33.90 42.68
  Q 33.27 42.82 33.39 43.77
  Q 33.67 46.05 36.53 45.47
  A 0.82 0.81 -88.8 0 0 37.17 44.85
  Q 37.59 43.11 36.34 42.15
  A 1.15 1.14 -69.5 0 1 35.90 41.17
  Q 35.99 39.81 35.25 39.62
  A 1.30 1.19 -43.6 0 1 35.42 37.22
  Q 37.92 36.49 40.22 35.17
  A 0.58 0.58 0.0 0 1 41.06 35.87
  L 39.82 39.15
  A 1.03 1.02 -50.3 0 0 39.90 40.03
  L 41.59 42.96
  A 0.56 0.54 67.9 0 0 42.20 43.23
  L 48.91 41.64
  A 0.96 0.96 0.0 0 0 49.61 40.94
  L 51.24 34.05
  A 0.69 0.69 0.0 0 0 50.87 33.27
  Q 47.85 31.81 45.63 32.70
  A 0.49 0.48 85.9 0 1 44.98 32.13
  L 45.38 30.44
  A 0.75 0.74 24.5 0 0 45.09 29.67
  L 44.24 29.06
  A 0.67 0.67 0.0 0 1 44.09 28.13
  L 44.35 27.77
  A 0.65 0.65 0.0 0 0 44.20 26.87
  L 39.28 23.34
  A 1.50 1.47 -33.1 0 0 38.08 23.10
  L 23.13 26.65
  A 0.82 0.81 10.8 0 0 22.64 26.98
  L 20.66 29.73
  A 1.18 1.16 48.1 0 0 20.60 31.00
  L 21.89 33.23
  A 0.88 0.88 0.0 0 1 21.84 34.18
  Q 19.66 37.21 16.83 36.20
  A 0.72 0.72 0.0 0 0 15.88 36.71
  L 14.90 40.85
  A 0.78 0.77 33.2 0 0 15.04 41.49
  Q 17.31 44.48 20.46 43.27
  A 1.30 1.26 6.4 0 0 21.04 42.82
  L 22.96 40.16
  A 0.85 0.85 0.0 0 0 22.76 38.98
  L 21.86 38.33
  A 0.76 0.75 -42.1 0 1 21.93 37.06
  L 22.80 36.56
  A 0.59 0.58 -22.7 0 1 23.66 36.91
  Q 23.97 38.06 26.72 38.22
  A 0.58 0.58 0.0 0 1 26.86 39.36"
/>
<path stroke="#d4959a" vector-effect="non-scaling-stroke" d="
  M 28.12 27.49
  C 26.82 27.71 24.89 27.99 24.22 28.97
  Q 23.83 29.53 23.83 29.65
  A 0.40 0.40 0.0 0 0 24.41 29.98
  Q 28.01 28.11 28.29 27.83
  A 0.20 0.20 0.0 0 0 28.12 27.49"
/>
</g>
<path fill="#581723" d="
  M 33.81 88.00
  L 33.15 88.00
  Q 15.61 72.49 6.00 52.51
  Q 2.31 44.84 1.62 35.22
  Q 0.94 25.67 5.27 17.98
  C 18.07 -4.77 50.85 -4.22 62.57 19.69
  C 66.93 28.58 65.93 39.80 62.41 48.85
  C 56.62 63.75 45.56 77.30 33.81 88.00
  Z
  M 33.42 86.69
  Q 33.53 86.69 33.62 86.67
  Q 33.69 86.66 33.78 86.57
  C 47.71 73.37 64.05 53.50 64.26 33.19
  C 64.45 15.89 50.57 2.94 33.75 2.46
  Q 33.63 2.46 33.51 2.46
  Q 33.39 2.46 33.27 2.46
  C 16.45 2.90 2.54 15.83 2.70 33.13
  C 2.86 53.44 19.16 73.34 33.06 86.57
  Q 33.15 86.66 33.22 86.67
  Q 33.32 86.69 33.42 86.69
  Z"
/>
<path fill="#a83148" d="
  M 33.51 2.46
  Q 33.63 2.46 33.75 2.46
  C 50.57 2.94 64.45 15.89 64.26 33.19
  C 64.05 53.50 47.71 73.37 33.78 86.57
  Q 33.69 86.66 33.62 86.67
  Q 33.53 86.69 33.42 86.69
  Q 33.32 86.69 33.22 86.67
  Q 33.15 86.66 33.06 86.57
  C 19.16 73.34 2.86 53.44 2.70 33.13
  C 2.54 15.83 16.45 2.90 33.27 2.46
  Q 33.39 2.46 33.51 2.46
  Z
  M 26.86 39.36
  Q 26.48 39.48 26.13 39.73
  A 1.26 1.24 -19.0 0 0 25.61 40.78
  Q 25.63 41.98 25.17 42.24
  A 2.06 1.94 -49.8 0 0 25.37 45.87
  Q 25.45 45.90 26.51 45.75
  A 1.88 1.86 71.2 0 0 27.85 42.98
  Q 27.84 42.96 27.63 42.83
  A 1.08 1.08 0.0 0 1 27.91 40.86
  Q 31.12 40.03 33.62 40.89
  A 1.04 0.83 42.7 0 1 33.90 42.68
  Q 33.27 42.82 33.39 43.77
  Q 33.67 46.05 36.53 45.47
  A 0.82 0.81 -88.8 0 0 37.17 44.85
  Q 37.59 43.11 36.34 42.15
  A 1.15 1.14 -69.5 0 1 35.90 41.17
  Q 35.99 39.81 35.25 39.62
  A 1.30 1.19 -43.6 0 1 35.42 37.22
  Q 37.92 36.49 40.22 35.17
  A 0.58 0.58 0.0 0 1 41.06 35.87
  L 39.82 39.15
  A 1.03 1.02 -50.3 0 0 39.90 40.03
  L 41.59 42.96
  A 0.56 0.54 67.9 0 0 42.20 43.23
  L 48.91 41.64
  A 0.96 0.96 0.0 0 0 49.61 40.94
  L 51.24 34.05
  A 0.69 0.69 0.0 0 0 50.87 33.27
  Q 47.85 31.81 45.63 32.70
  A 0.49 0.48 85.9 0 1 44.98 32.13
  L 45.38 30.44
  A 0.75 0.74 24.5 0 0 45.09 29.67
  L 44.24 29.06
  A 0.67 0.67 0.0 0 1 44.09 28.13
  L 44.35 27.77
  A 0.65 0.65 0.0 0 0 44.20 26.87
  L 39.28 23.34
  A 1.50 1.47 -33.1 0 0 38.08 23.10
  L 23.13 26.65
  A 0.82 0.81 10.8 0 0 22.64 26.98
  L 20.66 29.73
  A 1.18 1.16 48.1 0 0 20.60 31.00
  L 21.89 33.23
  A 0.88 0.88 0.0 0 1 21.84 34.18
  Q 19.66 37.21 16.83 36.20
  A 0.72 0.72 0.0 0 0 15.88 36.71
  L 14.90 40.85
  A 0.78 0.77 33.2 0 0 15.04 41.49
  Q 17.31 44.48 20.46 43.27
  A 1.30 1.26 6.4 0 0 21.04 42.82
  L 22.96 40.16
  A 0.85 0.85 0.0 0 0 22.76 38.98
  L 21.86 38.33
  A 0.76 0.75 -42.1 0 1 21.93 37.06
  L 22.80 36.56
  A 0.59 0.58 -22.7 0 1 23.66 36.91
  Q 23.97 38.06 26.72 38.22
  A 0.58 0.58 0.0 0 1 26.86 39.36
  Z"
/>
<path fill="#fff8ec" d="
  M 26.86 39.36
  A 0.58 0.58 0.0 0 0 26.72 38.22
  Q 23.97 38.06 23.66 36.91
  A 0.59 0.58 -22.7 0 0 22.80 36.56
  L 21.93 37.06
  A 0.76 0.75 -42.1 0 0 21.86 38.33
  L 22.76 38.98
  A 0.85 0.85 0.0 0 1 22.96 40.16
  L 21.04 42.82
  A 1.30 1.26 6.4 0 1 20.46 43.27
  Q 17.31 44.48 15.04 41.49
  A 0.78 0.77 33.2 0 1 14.90 40.85
  L 15.88 36.71
  A 0.72 0.72 0.0 0 1 16.83 36.20
  Q 19.66 37.21 21.84 34.18
  A 0.88 0.88 0.0 0 0 21.89 33.23
  L 20.60 31.00
  A 1.18 1.16 48.1 0 1 20.66 29.73
  L 22.64 26.98
  A 0.82 0.81 10.8 0 1 23.13 26.65
  L 38.08 23.10
  A 1.50 1.47 -33.1 0 1 39.28 23.34
  L 44.20 26.87
  A 0.65 0.65 0.0 0 1 44.35 27.77
  L 44.09 28.13
  A 0.67 0.67 0.0 0 0 44.24 29.06
  L 45.09 29.67
  A 0.75 0.74 24.5 0 1 45.38 30.44
  L 44.98 32.13
  A 0.49 0.48 85.9 0 0 45.63 32.70
  Q 47.85 31.81 50.87 33.27
  A 0.69 0.69 0.0 0 1 51.24 34.05
  L 49.61 40.94
  A 0.96 0.96 0.0 0 1 48.91 41.64
  L 42.20 43.23
  A 0.56 0.54 67.9 0 1 41.59 42.96
  L 39.90 40.03
  A 1.03 1.02 -50.3 0 1 39.82 39.15
  L 41.06 35.87
  A 0.58 0.58 0.0 0 0 40.22 35.17
  Q 37.92 36.49 35.42 37.22
  A 1.30 1.19 -43.6 0 0 35.25 39.62
  Q 35.99 39.81 35.90 41.17
  A 1.15 1.14 -69.5 0 0 36.34 42.15
  Q 37.59 43.11 37.17 44.85
  A 0.82 0.81 -88.8 0 1 36.53 45.47
  Q 33.67 46.05 33.39 43.77
  Q 33.27 42.82 33.90 42.68
  A 1.04 0.83 42.7 0 0 33.62 40.89
  Q 31.12 40.03 27.91 40.86
  A 1.08 1.08 0.0 0 0 27.63 42.83
  Q 27.84 42.96 27.85 42.98
  A 1.88 1.86 71.2 0 1 26.51 45.75
  Q 25.45 45.90 25.37 45.87
  A 2.06 1.94 -49.8 0 1 25.17 42.24
  Q 25.63 41.98 25.61 40.78
  A 1.26 1.24 -19.0 0 1 26.13 39.73
  Q 26.48 39.48 26.86 39.36
  Z
  M 28.12 27.49
  C 26.82 27.71 24.89 27.99 24.22 28.97
  Q 23.83 29.53 23.83 29.65
  A 0.40 0.40 0.0 0 0 24.41 29.98
  Q 28.01 28.11 28.29 27.83
  A 0.20 0.20 0.0 0 0 28.12 27.49
  Z"
/>
<path fill="#a83148" d="
  M 28.29 27.83
  Q 28.01 28.11 24.41 29.98
  A 0.40 0.40 0.0 0 1 23.83 29.65
  Q 23.83 29.53 24.22 28.97
  C 24.89 27.99 26.82 27.71 28.12 27.49
  A 0.20 0.20 0.0 0 1 28.29 27.83
  Z"
/>
</svg>
