<?xml version="1.0" encoding="UTF-8" standalone="no"?>
<!DOCTYPE svg PUBLIC "-//W3C//DTD SVG 1.1//EN" "http://www.w3.org/Graphics/SVG/1.1/DTD/svg11.dtd">
<svg xmlns="http://www.w3.org/2000/svg" version="1.1" viewBox="0.00 0.00 66.00 88.00">
<g stroke-width="2.00" fill="none" stroke-linecap="butt">
<path stroke="#21303f" vector-effect="non-scaling-stroke" d="
  M 33.41 86.58
  Q 33.55 86.58 33.69 86.54
  A 0.08 0.04 -58.9 0 0 33.73 86.52
  Q 48.51 72.83 57.62 56.40
  C 63.40 45.97 67.04 31.47 61.65 20.56
  Q 53.28 3.60 33.99 2.50
  Q 33.63 2.48 33.50 2.48
  Q 33.37 2.48 33.01 2.50
  Q 13.72 3.56 5.32 20.50
  C -0.10 31.40 3.51 45.91 9.27 56.35
  Q 18.34 72.80 33.09 86.52
  A 0.08 0.04 59.0 0 0 33.13 86.54
  Q 33.27 86.58 33.41 86.58"
/>
<path stroke="#969c9f" vector-effect="non-scaling-stroke" d="
  M 28.94 51.97
  Q 35.19 51.25 37.35 45.22
  A 0.31 0.30 43.9 0 1 37.92 45.21
  Q 39.20 48.30 39.32 50.96
  A 0.31 0.31 0.0 0 0 39.84 51.17
  Q 44.77 46.69 42.95 40.38
  A 0.47 0.47 0.0 0 1 43.73 39.92
  L 47.66 43.86
  A 0.48 0.48 0.0 0 0 48.47 43.60
  Q 49.60 37.18 44.60 33.33
  A 0.38 0.37 -23.2 0 1 44.87 32.66
  L 50.86 33.31
  A 0.24 0.24 0.0 0 0 51.10 32.98
  Q 48.40 27.01 42.07 26.76
  A 0.37 0.37 0.0 0 1 41.83 26.11
  Q 43.77 24.35 46.69 23.11
  A 0.41 0.41 0.0 0 0 46.72 22.37
  Q 41.06 19.41 35.78 22.80
  A 0.40 0.40 0.0 0 1 35.20 22.31
  L 37.49 16.85
  A 0.26 0.26 0.0 0 0 37.21 16.49
  Q 30.39 17.51 28.56 23.40
  A 0.26 0.26 0.0 0 1 28.08 23.43
  Q 26.82 20.79 26.60 17.61
  A 0.32 0.32 0.0 0 0 26.07 17.40
  Q 21.16 21.88 22.98 28.16
  A 0.48 0.48 0.0 0 1 22.18 28.63
  L 18.22 24.68
  A 0.44 0.44 0.0 0 0 17.48 24.90
  Q 16.24 31.21 21.33 35.23
  A 0.37 0.37 0.0 0 1 21.06 35.89
  L 15.17 35.26
  A 0.30 0.29 -9.5 0 0 14.87 35.68
  Q 17.75 41.72 24.09 41.79
  A 0.43 0.43 0.0 0 1 24.30 42.60
  L 19.16 45.57
  A 0.33 0.33 0.0 0 0 19.16 46.14
  Q 24.63 49.18 30.14 45.77
  A 0.40 0.39 85.6 0 1 30.71 46.26
  L 28.53 51.44
  A 0.39 0.38 7.9 0 0 28.94 51.97"
/>
<path stroke="#969c9f" vector-effect="non-scaling-stroke" d="
  M 34.32 39.58
  L 34.13 41.34
  A 0.49 0.49 0.0 0 0 34.88 41.81
  Q 36.67 40.72 36.59 38.13
  A 0.34 0.34 0.0 0 1 37.13 37.84
  Q 37.84 38.35 38.15 39.28
  A 0.47 0.47 0.0 0 0 39.06 39.23
  Q 39.55 36.77 38.28 35.34
  A 0.38 0.37 67.4 0 1 38.53 34.72
  Q 39.14 34.67 40.28 35.28
  A 0.42 0.41 -88.3 0 0 40.85 34.74
  Q 39.75 32.29 37.90 31.92
  A 0.35 0.35 0.0 0 1 37.75 31.31
  Q 38.27 30.88 39.18 30.89
  A 0.54 0.54 0.0 0 0 39.47 29.89
  Q 37.72 28.76 35.74 29.68
  A 0.45 0.45 0.0 0 1 35.11 29.22
  Q 35.15 28.84 36.20 27.80
  A 0.42 0.42 0.0 0 0 35.91 27.09
  Q 33.45 27.04 32.26 29.08
  A 0.38 0.38 0.0 0 1 31.55 28.84
  L 31.75 26.94
  A 0.39 0.39 0.0 0 0 31.12 26.59
  Q 29.08 28.24 29.33 30.41
  A 0.31 0.31 0.0 0 1 28.85 30.70
  Q 28.01 30.10 27.84 29.34
  A 0.51 0.51 0.0 0 0 26.84 29.38
  Q 26.44 31.92 27.70 33.26
  A 0.33 0.32 68.2 0 1 27.47 33.81
  Q 26.71 33.81 25.76 33.25
  A 0.44 0.44 0.0 0 0 25.12 33.78
  Q 25.86 35.92 28.01 36.60
  A 0.37 0.36 35.6 0 1 28.12 37.24
  Q 27.71 37.54 26.57 37.70
  A 0.47 0.47 0.0 0 0 26.37 38.56
  Q 28.21 39.83 30.36 38.78
  A 0.33 0.32 85.9 0 1 30.81 39.17
  Q 30.59 39.91 29.64 40.87
  A 0.36 0.36 0.0 0 0 29.91 41.48
  Q 32.69 41.36 33.70 39.40
  A 0.33 0.33 0.0 0 1 34.32 39.58"
/>
</g>
<path fill="#16212b" d="
  M 33.81 88.00
  L 33.04 88.00
  C 21.74 77.74 12.09 65.62 5.64 51.56
  Q 2.20 44.06 1.59 34.89
  C 0.57 19.51 10.62 6.35 25.26 2.41
  C 40.48 -1.69 56.38 5.82 62.97 20.59
  C 66.65 28.83 65.91 38.69 63.04 47.01
  C 57.65 62.62 45.95 76.92 33.81 88.00
  Z
  M 33.41 86.58
  Q 33.55 86.58 33.69 86.54
  A 0.08 0.04 -58.9 0 0 33.73 86.52
  Q 48.51 72.83 57.62 56.40
  C 63.40 45.97 67.04 31.47 61.65 20.56
  Q 53.28 3.60 33.99 2.50
  Q 33.63 2.48 33.50 2.48
  Q 33.37 2.48 33.01 2.50
  Q 13.72 3.56 5.32 20.50
  C -0.10 31.40 3.51 45.91 9.27 56.35
  Q 18.34 72.80 33.09 86.52
  A 0.08 0.04 59.0 0 0 33.13 86.54
  Q 33.27 86.58 33.41 86.58
  Z"
/>
<path fill="#2c3f52" d="
  M 33.50 2.48
  Q 33.63 2.48 33.99 2.50
  Q 53.28 3.60 61.65 20.56
  C 67.04 31.47 63.40 45.97 57.62 56.40
  Q 48.51 72.83 33.73 86.52
  A 0.08 0.04 -58.9 0 1 33.69 86.54
  Q 33.55 86.58 33.41 86.58
  Q 33.27 86.58 33.13 86.54
  A 0.08 0.04 59.0 0 1 33.09 86.52
  Q 18.34 72.80 9.27 56.35
  C 3.51 45.91 -0.10 31.40 5.32 20.50
  Q 13.72 3.56 33.01 2.50
  Q 33.37 2.48 33.50 2.48
  Z
  M 28.94 51.97
  Q 35.19 51.25 37.35 45.22
  A 0.31 0.30 43.9 0 1 37.92 45.21
  Q 39.20 48.30 39.32 50.96
  A 0.31 0.31 0.0 0 0 39.84 51.17
  Q 44.77 46.69 42.95 40.38
  A 0.47 0.47 0.0 0 1 43.73 39.92
  L 47.66 43.86
  A 0.48 0.48 0.0 0 0 48.47 43.60
  Q 49.60 37.18 44.60 33.33
  A 0.38 0.37 -23.2 0 1 44.87 32.66
  L 50.86 33.31
  A 0.24 0.24 0.0 0 0 51.10 32.98
  Q 48.40 27.01 42.07 26.76
  A 0.37 0.37 0.0 0 1 41.83 26.11
  Q 43.77 24.35 46.69 23.11
  A 0.41 0.41 0.0 0 0 46.72 22.37
  Q 41.06 19.41 35.78 22.80
  A 0.40 0.40 0.0 0 1 35.20 22.31
  L 37.49 16.85
  A 0.26 0.26 0.0 0 0 37.21 16.49
  Q 30.39 17.51 28.56 23.40
  A 0.26 0.26 0.0 0 1 28.08 23.43
  Q 26.82 20.79 26.60 17.61
  A 0.32 0.32 0.0 0 0 26.07 17.40
  Q 21.16 21.88 22.98 28.16
  A 0.48 0.48 0.0 0 1 22.18 28.63
  L 18.22 24.68
  A 0.44 0.44 0.0 0 0 17.48 24.90
  Q 16.24 31.21 21.33 35.23
  A 0.37 0.37 0.0 0 1 21.06 35.89
  L 15.17 35.26
  A 0.30 0.29 -9.5 0 0 14.87 35.68
  Q 17.75 41.72 24.09 41.79
  A 0.43 0.43 0.0 0 1 24.30 42.60
  L 19.16 45.57
  A 0.33 0.33 0.0 0 0 19.16 46.14
  Q 24.63 49.18 30.14 45.77
  A 0.40 0.39 85.6 0 1 30.71 46.26
  L 28.53 51.44
  A 0.39 0.38 7.9 0 0 28.94 51.97
  Z"
/>
<path fill="#fff8ec" d="
  M 28.53 51.44
  L 30.71 46.26
  A 0.40 0.39 85.6 0 0 30.14 45.77
  Q 24.63 49.18 19.16 46.14
  A 0.33 0.33 0.0 0 1 19.16 45.57
  L 24.30 42.60
  A 0.43 0.43 0.0 0 0 24.09 41.79
  Q 17.75 41.72 14.87 35.68
  A 0.30 0.29 -9.5 0 1 15.17 35.26
  L 21.06 35.89
  A 0.37 0.37 0.0 0 0 21.33 35.23
  Q 16.24 31.21 17.48 24.90
  A 0.44 0.44 0.0 0 1 18.22 24.68
  L 22.18 28.63
  A 0.48 0.48 0.0 0 0 22.98 28.16
  Q 21.16 21.88 26.07 17.40
  A 0.32 0.32 0.0 0 1 26.60 17.61
  Q 26.82 20.79 28.08 23.43
  A 0.26 0.26 0.0 0 0 28.56 23.40
  Q 30.39 17.51 37.21 16.49
  A 0.26 0.26 0.0 0 1 37.49 16.85
  L 35.20 22.31
  A 0.40 0.40 0.0 0 0 35.78 22.80
  Q 41.06 19.41 46.72 22.37
  A 0.41 0.41 0.0 0 1 46.69 23.11
  Q 43.77 24.35 41.83 26.11
  A 0.37 0.37 0.0 0 0 42.07 26.76
  Q 48.40 27.01 51.10 32.98
  A 0.24 0.24 0.0 0 1 50.86 33.31
  L 44.87 32.66
  A 0.38 0.37 -23.2 0 0 44.60 33.33
  Q 49.60 37.18 48.47 43.60
  A 0.48 0.48 0.0 0 1 47.66 43.86
  L 43.73 39.92
  A 0.47 0.47 0.0 0 0 42.95 40.38
  Q 44.77 46.69 39.84 51.17
  A 0.31 0.31 0.0 0 1 39.32 50.96
  Q 39.20 48.30 37.92 45.21
  A 0.31 0.30 43.9 0 0 37.35 45.22
  Q 35.19 51.25 28.94 51.97
  A 0.39 0.38 7.9 0 1 28.53 51.44
  Z
  M 34.32 39.58
  L 34.13 41.34
  A 0.49 0.49 0.0 0 0 34.88 41.81
  Q 36.67 40.72 36.59 38.13
  A 0.34 0.34 0.0 0 1 37.13 37.84
  Q 37.84 38.35 38.15 39.28
  A 0.47 0.47 0.0 0 0 39.06 39.23
  Q 39.55 36.77 38.28 35.34
  A 0.38 0.37 67.4 0 1 38.53 34.72
  Q 39.14 34.67 40.28 35.28
  A 0.42 0.41 -88.3 0 0 40.85 34.74
  Q 39.75 32.29 37.90 31.92
  A 0.35 0.35 0.0 0 1 37.75 31.31
  Q 38.27 30.88 39.18 30.89
  A 0.54 0.54 0.0 0 0 39.47 29.89
  Q 37.72 28.76 35.74 29.68
  A 0.45 0.45 0.0 0 1 35.11 29.22
  Q 35.15 28.84 36.20 27.80
  A 0.42 0.42 0.0 0 0 35.91 27.09
  Q 33.45 27.04 32.26 29.08
  A 0.38 0.38 0.0 0 1 31.55 28.84
  L 31.75 26.94
  A 0.39 0.39 0.0 0 0 31.12 26.59
  Q 29.08 28.24 29.33 30.41
  A 0.31 0.31 0.0 0 1 28.85 30.70
  Q 28.01 30.10 27.84 29.34
  A 0.51 0.51 0.0 0 0 26.84 29.38
  Q 26.44 31.92 27.70 33.26
  A 0.33 0.32 68.2 0 1 27.47 33.81
  Q 26.71 33.81 25.76 33.25
  A 0.44 0.44 0.0 0 0 25.12 33.78
  Q 25.86 35.92 28.01 36.60
  A 0.37 0.36 35.6 0 1 28.12 37.24
  Q 27.71 37.54 26.57 37.70
  A 0.47 0.47 0.0 0 0 26.37 38.56
  Q 28.21 39.83 30.36 38.78
  A 0.33 0.32 85.9 0 1 30.81 39.17
  Q 30.59 39.91 29.64 40.87
  A 0.36 0.36 0.0 0 0 29.91 41.48
  Q 32.69 41.36 33.70 39.40
  A 0.33 0.33 0.0 0 1 34.32 39.58
  Z"
/>
<path fill="#2c3f52" d="
  M 33.70 39.40
  Q 32.69 41.36 29.91 41.48
  A 0.36 0.36 0.0 0 1 29.64 40.87
  Q 30.59 39.91 30.81 39.17
  A 0.33 0.32 85.9 0 0 30.36 38.78
  Q 28.21 39.83 26.37 38.56
  A 0.47 0.47 0.0 0 1 26.57 37.70
  Q 27.71 37.54 28.12 37.24
  A 0.37 0.36 35.6 0 0 28.01 36.60
  Q 25.86 35.92 25.12 33.78
  A 0.44 0.44 0.0 0 1 25.76 33.25
  Q 26.71 33.81 27.47 33.81
  A 0.33 0.32 68.2 0 0 27.70 33.26
  Q 26.44 31.92 26.84 29.38
  A 0.51 0.51 0.0 0 1 27.84 29.34
  Q 28.01 30.10 28.85 30.70
  A 0.31 0.31 0.0 0 0 29.33 30.41
  Q 29.08 28.24 31.12 26.59
  A 0.39 0.39 0.0 0 1 31.75 26.94
  L 31.55 28.84
  A 0.38 0.38 0.0 0 0 32.26 29.08
  Q 33.45 27.04 35.91 27.09
  A 0.42 0.42 0.0 0 1 36.20 27.80
  Q 35.15 28.84 35.11 29.22
  A 0.45 0.45 0.0 0 0 35.74 29.68
  Q 37.72 28.76 39.47 29.89
  A 0.54 0.54 0.0 0 1 39.18 30.89
  Q 38.27 30.88 37.75 31.31
  A 0.35 0.35 0.0 0 0 37.90 31.92
  Q 39.75 32.29 40.85 34.74
  A 0.42 0.41 -88.3 0 1 40.28 35.28
  Q 39.14 34.67 38.53 34.72
  A 0.38 0.37 67.4 0 0 38.28 35.34
  Q 39.55 36.77 39.06 39.23
  A 0.47 0.47 0.0 0 1 38.15 39.28
  Q 37.84 38.35 37.13 37.84
  A 0.34 0.34 0.0 0 0 36.59 38.13
  Q 36.67 40.72 34.88 41.81
  A 0.49 0.49 0.0 0 1 34.13 41.34
  L 34.32 39.58
  A 0.33 0.33 0.0 0 0 33.70 39.40
  Z"
/>
</svg>
