<?xml version="1.0" encoding="UTF-8" standalone="no"?>
<!DOCTYPE svg PUBLIC "-//W3C//DTD SVG 1.1//EN" "http://www.w3.org/Graphics/SVG/1.1/DTD/svg11.dtd">
<svg xmlns="http://www.w3.org/2000/svg" version="1.1" viewBox="0.00 0.00 66.00 88.00">
<g stroke-width="2.00" fill="none" stroke-linecap="butt">
<path stroke="#356b73" vector-effect="non-scaling-stroke" d="
  M 33.40 86.72
  Q 33.51 86.72 33.61 86.70
  Q 33.64 86.69 33.76 86.57
  Q 47.62 73.53 56.48 58.51
  C 63.93 45.90 68.32 28.73 58.98 15.79
  Q 50.01 3.36 34.51 2.49
  Q 33.95 2.46 33.54 2.46
  Q 33.13 2.46 32.57 2.49
  Q 17.06 3.31 8.05 15.71
  C -1.33 28.62 3.00 45.80 10.41 58.43
  Q 19.22 73.48 33.04 86.57
  Q 33.16 86.69 33.19 86.69
  Q 33.29 86.72 33.40 86.72"
/>
<path stroke="#a4c2c2" vector-effect="non-scaling-stroke" d="
  M 23.15 22.46
  Q 25.41 25.01 29.08 25.72
  Q 29.26 25.75 29.37 25.66
  Q 29.49 25.56 29.47 25.37
  Q 29.20 21.64 26.94 19.10
  Q 24.69 16.55 21.01 15.84
  Q 20.83 15.80 20.72 15.90
  Q 20.61 16.00 20.62 16.19
  Q 20.89 19.92 23.15 22.46"
/>
<path stroke="#a4c2c2" vector-effect="non-scaling-stroke" d="
  M 32.01 25.20
  A 1.28 1.28 0.0 0 0 34.06 26.72
  Q 35.86 24.79 35.98 22.92
  A 1.21 1.21 0.0 0 0 33.72 22.24
  L 32.01 25.20"
/>
<path stroke="#a4c2c2" vector-effect="non-scaling-stroke" d="
  M 32.96 51.36
  Q 33.09 51.36 33.16 51.39
  C 39.94 54.86 44.95 47.69 47.06 42.40
  C 51.55 31.12 44.30 23.76 33.25 29.09
  Q 33.23 29.10 32.98 29.10
  Q 32.72 29.10 32.70 29.09
  C 21.66 23.74 14.40 31.09 18.87 42.38
  C 20.97 47.67 25.97 54.85 32.76 51.39
  Q 32.83 51.36 32.96 51.36"
/>
</g>
<path fill="#21494e" d="
  M 33.79 88.00
  L 33.15 88.00
  Q 15.61 72.48 6.00 52.51
  Q 2.23 44.67 1.62 34.99
  Q 1.03 25.70 5.17 18.15
  C 17.95 -5.17 51.91 -4.02 62.90 20.39
  C 66.91 29.29 65.83 40.16 62.34 49.06
  C 56.53 63.85 45.51 77.38 33.79 88.00
  Z
  M 33.40 86.72
  Q 33.51 86.72 33.61 86.70
  Q 33.64 86.69 33.76 86.57
  Q 47.62 73.53 56.48 58.51
  C 63.93 45.90 68.32 28.73 58.98 15.79
  Q 50.01 3.36 34.51 2.49
  Q 33.95 2.46 33.54 2.46
  Q 33.13 2.46 32.57 2.49
  Q 17.06 3.31 8.05 15.71
  C -1.33 28.62 3.00 45.80 10.41 58.43
  Q 19.22 73.48 33.04 86.57
  Q 33.16 86.69 33.19 86.69
  Q 33.29 86.72 33.40 86.72
  Z"
/>
<path fill="#498c97" d="
  M 33.54 2.46
  Q 33.95 2.46 34.51 2.49
  Q 50.01 3.36 58.98 15.79
  C 68.32 28.73 63.93 45.90 56.48 58.51
  Q 47.62 73.53 33.76 86.57
  Q 33.64 86.69 33.61 86.70
  Q 33.51 86.72 33.40 86.72
  Q 33.29 86.72 33.19 86.69
  Q 33.16 86.69 33.04 86.57
  Q 19.22 73.48 10.41 58.43
  C 3.00 45.80 -1.33 28.62 8.05 15.71
  Q 17.06 3.31 32.57 2.49
  Q 33.13 2.46 33.54 2.46
  Z
  M 23.15 22.46
  Q 25.41 25.01 29.08 25.72
  Q 29.26 25.75 29.37 25.66
  Q 29.49 25.56 29.47 25.37
  Q 29.20 21.64 26.94 19.10
  Q 24.69 16.55 21.01 15.84
  Q 20.83 15.80 20.72 15.90
  Q 20.61 16.00 20.62 16.19
  Q 20.89 19.92 23.15 22.46
  Z
  M 32.01 25.20
  A 1.28 1.28 0.0 0 0 34.06 26.72
  Q 35.86 24.79 35.98 22.92
  A 1.21 1.21 0.0 0 0 33.72 22.24
  L 32.01 25.20
  Z
  M 32.96 51.36
  Q 33.09 51.36 33.16 51.39
  C 39.94 54.86 44.95 47.69 47.06 42.40
  C 51.55 31.12 44.30 23.76 33.25 29.09
  Q 33.23 29.10 32.98 29.10
  Q 32.72 29.10 32.70 29.09
  C 21.66 23.74 14.40 31.09 18.87 42.38
  C 20.97 47.67 25.97 54.85 32.76 51.39
  Q 32.83 51.36 32.96 51.36
  Z"
/>
<path fill="#fff8ec" d="
  M 26.94 19.10
  Q 29.20 21.64 29.47 25.37
  Q 29.49 25.56 29.37 25.66
  Q 29.26 25.75 29.08 25.72
  Q 25.41 25.01 23.15 22.46
  Q 20.89 19.92 20.62 16.19
  Q 20.61 16.00 20.72 15.90
  Q 20.83 15.80 21.01 15.84
  Q 24.69 16.55 26.94 19.10
  Z"
/>
<path fill="#fff8ec" d="
  M 32.01 25.20
  L 33.72 22.24
  A 1.21 1.21 0.0 0 1 35.98 22.92
  Q 35.86 24.79 34.06 26.72
  A 1.28 1.28 0.0 0 1 32.01 25.20
  Z"
/>
<path fill="#fff8ec" d="
  M 32.98 29.10
  Q 33.23 29.10 33.25 29.09
  C 44.30 23.76 51.55 31.12 47.06 42.40
  C 44.95 47.69 39.94 54.86 33.16 51.39
  Q 33.09 51.36 32.96 51.36
  Q 32.83 51.36 32.76 51.39
  C 25.97 54.85 20.97 47.67 18.87 42.38
  C 14.40 31.09 21.66 23.74 32.70 29.09
  Q 32.72 29.10 32.98 29.10
  Z"
/>
</svg>
