<?xml version="1.0" encoding="UTF-8" standalone="no"?>
<!DOCTYPE svg PUBLIC "-//W3C//DTD SVG 1.1//EN" "http://www.w3.org/Graphics/SVG/1.1/DTD/svg11.dtd">
<svg xmlns="http://www.w3.org/2000/svg" version="1.1" viewBox="0.00 0.00 66.00 88.00">
<g stroke-width="2.00" fill="none" stroke-linecap="butt">
<path stroke="#38728d" vector-effect="non-scaling-stroke" d="
  M 33.40 86.72
  Q 33.51 86.72 33.61 86.69
  Q 33.70 86.67 33.79 86.59
  C 50.43 71.13 75.66 38.91 58.75 15.53
  C 52.88 7.42 43.83 2.50 33.53 2.48
  C 23.24 2.47 14.17 7.36 8.28 15.45
  C -8.71 38.78 16.42 71.08 33.01 86.59
  Q 33.10 86.67 33.19 86.69
  Q 33.29 86.72 33.40 86.72"
/>
<path stroke="#a6c7d3" vector-effect="non-scaling-stroke" d="
  M 23.74 24.99
  L 27.83 27.45
  A 0.75 0.75 0.0 0 0 28.74 27.35
  L 32.64 23.64
  A 1.49 1.48 -21.3 0 0 33.11 22.60
  L 33.16 16.10
  A 0.25 0.24 -20.7 0 0 32.75 15.92
  L 23.67 24.34
  A 0.41 0.41 0.0 0 0 23.74 24.99"
/>
<path stroke="#a6c7d3" vector-effect="non-scaling-stroke" d="
  M 43.11 24.29
  A 0.38 0.38 0.0 0 0 43.13 23.69
  L 34.30 16.38
  A 0.38 0.38 0.0 0 0 33.68 16.68
  L 33.68 23.10
  A 0.38 0.38 0.0 0 0 33.79 23.37
  L 38.02 27.60
  A 0.38 0.38 0.0 0 0 38.51 27.64
  L 43.11 24.29"
/>
<path stroke="#a6c7d3" vector-effect="non-scaling-stroke" d="
  M 29.13 34.02
  Q 29.12 38.52 29.18 39.02
  A 1.60 1.57 20.5 0 0 29.62 39.97
  Q 30.92 41.27 33.00 43.06
  C 33.03 43.09 33.19 43.11 33.22 43.11
  C 33.24 43.11 33.40 43.09 33.43 43.06
  Q 35.52 41.28 36.82 39.98
  A 1.60 1.57 -20.3 0 0 37.27 39.03
  Q 37.32 38.53 37.33 34.03
  Q 37.33 29.53 37.28 29.03
  A 1.60 1.57 20.5 0 0 36.83 28.08
  Q 35.53 26.78 33.45 24.99
  C 33.42 24.96 33.27 24.94 33.24 24.94
  C 33.21 24.94 33.06 24.96 33.02 24.99
  Q 30.94 26.77 29.64 28.07
  A 1.60 1.57 -20.3 0 0 29.19 29.02
  Q 29.13 29.52 29.13 34.02"
/>
<path stroke="#a6c7d3" vector-effect="non-scaling-stroke" d="
  M 39.04 28.50
  A 0.36 0.36 0.0 0 0 38.89 28.79
  L 38.89 39.63
  A 0.36 0.36 0.0 0 0 39.07 39.94
  L 43.22 42.34
  A 0.36 0.36 0.0 0 0 43.76 42.03
  L 43.76 25.77
  A 0.36 0.36 0.0 0 0 43.19 25.48
  L 39.04 28.50"
/>
<path stroke="#a6c7d3" vector-effect="non-scaling-stroke" d="
  M 23.60 25.86
  A 0.46 0.46 0.0 0 0 22.91 26.26
  L 22.91 42.16
  A 0.46 0.46 0.0 0 0 23.64 42.53
  L 27.67 39.59
  A 0.46 0.46 0.0 0 0 27.86 39.22
  L 27.86 28.59
  A 0.46 0.46 0.0 0 0 27.63 28.19
  L 23.60 25.86"
/>
<path stroke="#a6c7d3" vector-effect="non-scaling-stroke" d="
  M 33.14 45.11
  A 0.42 0.42 0.0 0 0 33.02 44.82
  L 28.47 40.27
  A 0.42 0.42 0.0 0 0 27.93 40.23
  L 24.07 43.05
  A 0.42 0.42 0.0 0 0 24.02 43.69
  L 32.42 52.09
  A 0.42 0.42 0.0 0 0 33.14 51.80
  L 33.14 45.11"
/>
<path stroke="#a6c7d3" vector-effect="non-scaling-stroke" d="
  M 42.78 42.89
  L 38.83 40.53
  A 0.73 0.72 -50.9 0 0 37.95 40.62
  L 34.19 44.20
  A 1.44 1.43 -21.4 0 0 33.75 45.21
  L 33.70 51.47
  A 0.24 0.23 -20.8 0 0 34.09 51.65
  L 42.84 43.52
  A 0.39 0.39 0.0 0 0 42.78 42.89"
/>
</g>
<path fill="#234d60" d="
  M 33.81 88.00
  L 33.04 88.00
  C 21.94 77.92 11.92 65.50 5.64 51.57
  Q 2.22 43.99 1.60 34.89
  C 0.50 19.00 11.23 5.67 26.49 2.11
  C 40.56 -1.18 55.07 5.59 61.98 18.49
  C 67.44 28.66 65.91 41.11 61.31 51.55
  C 55.19 65.40 44.95 77.84 33.81 88.00
  Z
  M 33.40 86.72
  Q 33.51 86.72 33.61 86.69
  Q 33.70 86.67 33.79 86.59
  C 50.43 71.13 75.66 38.91 58.75 15.53
  C 52.88 7.42 43.83 2.50 33.53 2.48
  C 23.24 2.47 14.17 7.36 8.28 15.45
  C -8.71 38.78 16.42 71.08 33.01 86.59
  Q 33.10 86.67 33.19 86.69
  Q 33.29 86.72 33.40 86.72
  Z"
/>
<path fill="#4d96b9" d="
  M 33.53 2.48
  C 43.83 2.50 52.88 7.42 58.75 15.53
  C 75.66 38.91 50.43 71.13 33.79 86.59
  Q 33.70 86.67 33.61 86.69
  Q 33.51 86.72 33.40 86.72
  Q 33.29 86.72 33.19 86.69
  Q 33.10 86.67 33.01 86.59
  C 16.42 71.08 -8.71 38.78 8.28 15.45
  C 14.17 7.36 23.24 2.47 33.53 2.48
  Z
  M 23.74 24.99
  L 27.83 27.45
  A 0.75 0.75 0.0 0 0 28.74 27.35
  L 32.64 23.64
  A 1.49 1.48 -21.3 0 0 33.11 22.60
  L 33.16 16.10
  A 0.25 0.24 -20.7 0 0 32.75 15.92
  L 23.67 24.34
  A 0.41 0.41 0.0 0 0 23.74 24.99
  Z
  M 43.11 24.29
  A 0.38 0.38 0.0 0 0 43.13 23.69
  L 34.30 16.38
  A 0.38 0.38 0.0 0 0 33.68 16.68
  L 33.68 23.10
  A 0.38 0.38 0.0 0 0 33.79 23.37
  L 38.02 27.60
  A 0.38 0.38 0.0 0 0 38.51 27.64
  L 43.11 24.29
  Z
  M 29.13 34.02
  Q 29.12 38.52 29.18 39.02
  A 1.60 1.57 20.5 0 0 29.62 39.97
  Q 30.92 41.27 33.00 43.06
  C 33.03 43.09 33.19 43.11 33.22 43.11
  C 33.24 43.11 33.40 43.09 33.43 43.06
  Q 35.52 41.28 36.82 39.98
  A 1.60 1.57 -20.3 0 0 37.27 39.03
  Q 37.32 38.53 37.33 34.03
  Q 37.33 29.53 37.28 29.03
  A 1.60 1.57 20.5 0 0 36.83 28.08
  Q 35.53 26.78 33.45 24.99
  C 33.42 24.96 33.27 24.94 33.24 24.94
  C 33.21 24.94 33.06 24.96 33.02 24.99
  Q 30.94 26.77 29.64 28.07
  A 1.60 1.57 -20.3 0 0 29.19 29.02
  Q 29.13 29.52 29.13 34.02
  Z
  M 39.04 28.50
  A 0.36 0.36 0.0 0 0 38.89 28.79
  L 38.89 39.63
  A 0.36 0.36 0.0 0 0 39.07 39.94
  L 43.22 42.34
  A 0.36 0.36 0.0 0 0 43.76 42.03
  L 43.76 25.77
  A 0.36 0.36 0.0 0 0 43.19 25.48
  L 39.04 28.50
  Z
  M 23.60 25.86
  A 0.46 0.46 0.0 0 0 22.91 26.26
  L 22.91 42.16
  A 0.46 0.46 0.0 0 0 23.64 42.53
  L 27.67 39.59
  A 0.46 0.46 0.0 0 0 27.86 39.22
  L 27.86 28.59
  A 0.46 0.46 0.0 0 0 27.63 28.19
  L 23.60 25.86
  Z
  M 33.14 45.11
  A 0.42 0.42 0.0 0 0 33.02 44.82
  L 28.47 40.27
  A 0.42 0.42 0.0 0 0 27.93 40.23
  L 24.07 43.05
  A 0.42 0.42 0.0 0 0 24.02 43.69
  L 32.42 52.09
  A 0.42 0.42 0.0 0 0 33.14 51.80
  L 33.14 45.11
  Z
  M 42.78 42.89
  L 38.83 40.53
  A 0.73 0.72 -50.9 0 0 37.95 40.62
  L 34.19 44.20
  A 1.44 1.43 -21.4 0 0 33.75 45.21
  L 33.70 51.47
  A 0.24 0.23 -20.8 0 0 34.09 51.65
  L 42.84 43.52
  A 0.39 0.39 0.0 0 0 42.78 42.89
  Z"
/>
<path fill="#fff8ec" d="
  M 23.74 24.99
  A 0.41 0.41 0.0 0 1 23.67 24.34
  L 32.75 15.92
  A 0.25 0.24 -20.7 0 1 33.16 16.10
  L 33.11 22.60
  A 1.49 1.48 -21.3 0 1 32.64 23.64
  L 28.74 27.35
  A 0.75 0.75 0.0 0 1 27.83 27.45
  L 23.74 24.99
  Z"
/>
<path fill="#fff8ec" d="
  M 43.11 24.29
  L 38.51 27.64
  A 0.38 0.38 0.0 0 1 38.02 27.60
  L 33.79 23.37
  A 0.38 0.38 0.0 0 1 33.68 23.10
  L 33.68 16.68
  A 0.38 0.38 0.0 0 1 34.30 16.38
  L 43.13 23.69
  A 0.38 0.38 0.0 0 1 43.11 24.29
  Z"
/>
<path fill="#fff8ec" d="
  M 33.24 24.94
  C 33.27 24.94 33.42 24.96 33.45 24.99
  Q 35.53 26.78 36.83 28.08
  A 1.60 1.57 20.5 0 1 37.28 29.03
  Q 37.33 29.53 37.33 34.03
  Q 37.32 38.53 37.27 39.03
  A 1.60 1.57 -20.3 0 1 36.82 39.98
  Q 35.52 41.28 33.43 43.06
  C 33.40 43.09 33.24 43.11 33.22 43.11
  C 33.19 43.11 33.03 43.09 33.00 43.06
  Q 30.92 41.27 29.62 39.97
  A 1.60 1.57 20.5 0 1 29.18 39.02
  Q 29.12 38.52 29.13 34.02
  Q 29.13 29.52 29.19 29.02
  A 1.60 1.57 -20.3 0 1 29.64 28.07
  Q 30.94 26.77 33.02 24.99
  C 33.06 24.96 33.21 24.94 33.24 24.94
  Z"
/>
<path fill="#fff8ec" d="
  M 39.04 28.50
  L 43.19 25.48
  A 0.36 0.36 0.0 0 1 43.76 25.77
  L 43.76 42.03
  A 0.36 0.36 0.0 0 1 43.22 42.34
  L 39.07 39.94
  A 0.36 0.36 0.0 0 1 38.89 39.63
  L 38.89 28.79
  A 0.36 0.36 0.0 0 1 39.04 28.50
  Z"
/>
<path fill="#fff8ec" d="
  M 23.60 25.86
  L 27.63 28.19
  A 0.46 0.46 0.0 0 1 27.86 28.59
  L 27.86 39.22
  A 0.46 0.46 0.0 0 1 27.67 39.59
  L 23.64 42.53
  A 0.46 0.46 0.0 0 1 22.91 42.16
  L 22.91 26.26
  A 0.46 0.46 0.0 0 1 23.60 25.86
  Z"
/>
<path fill="#fff8ec" d="
  M 33.14 45.11
  L 33.14 51.80
  A 0.42 0.42 0.0 0 1 32.42 52.09
  L 24.02 43.69
  A 0.42 0.42 0.0 0 1 24.07 43.05
  L 27.93 40.23
  A 0.42 0.42 0.0 0 1 28.47 40.27
  L 33.02 44.82
  A 0.42 0.42 0.0 0 1 33.14 45.11
  Z"
/>
<path fill="#fff8ec" d="
  M 42.78 42.89
  A 0.39 0.39 0.0 0 1 42.84 43.52
  L 34.09 51.65
  A 0.24 0.23 -20.8 0 1 33.70 51.47
  L 33.75 45.21
  A 1.44 1.43 -21.4 0 1 34.19 44.20
  L 37.95 40.62
  A 0.73 0.72 -50.9 0 1 38.83 40.53
  L 42.78 42.89
  Z"
/>
</svg>
