<?xml version="1.0" encoding="UTF-8" standalone="no"?>
<!DOCTYPE svg PUBLIC "-//W3C//DTD SVG 1.1//EN" "http://www.w3.org/Graphics/SVG/1.1/DTD/svg11.dtd">
<svg xmlns="http://www.w3.org/2000/svg" version="1.1" viewBox="0.00 0.00 66.00 88.00">
<g stroke-width="2.00" fill="none" stroke-linecap="butt">
<path stroke="#21303f" vector-effect="non-scaling-stroke" d="
  M 33.41 86.58
  Q 33.55 86.58 33.69 86.54
  A 0.08 0.04 -58.7 0 0 33.73 86.52
  C 47.02 74.17 60.96 56.77 63.79 38.66
  Q 66.25 22.99 55.90 12.13
  C 50.07 6.01 42.11 2.51 33.52 2.50
  C 24.93 2.49 16.96 5.97 11.12 12.07
  Q 0.74 22.90 3.16 38.58
  C 5.94 56.70 19.83 74.13 33.09 86.52
  A 0.08 0.04 58.9 0 0 33.13 86.54
  Q 33.27 86.58 33.41 86.58"
/>
<path stroke="#969c9f" vector-effect="non-scaling-stroke" d="
  M 33.00 18.87
  Q 33.03 18.87 33.07 18.88
  A 0.34 0.26 -13.5 0 1 33.22 18.94
  L 48.00 33.72
  A 0.40 0.40 0.0 0 1 48.00 34.28
  L 41.74 40.55
  A 1.01 1.01 0.0 0 0 41.74 41.99
  L 42.23 42.49
  A 0.44 0.43 -44.5 0 0 42.84 42.49
  L 51.08 34.24
  A 0.34 0.33 -45.3 0 0 51.08 33.76
  C 43.14 25.85 33.44 15.94 33.00 15.94
  C 32.56 15.94 22.85 25.85 14.91 33.76
  A 0.34 0.33 45.3 0 0 14.91 34.24
  L 23.15 42.49
  A 0.44 0.43 44.5 0 0 23.76 42.49
  L 24.25 41.99
  A 1.01 1.01 0.0 0 0 24.25 40.55
  L 17.99 34.28
  A 0.40 0.40 0.0 0 1 17.99 33.72
  L 32.78 18.94
  A 0.34 0.26 13.5 0 1 32.92 18.88
  Q 32.96 18.87 33.00 18.87"
/>
<path stroke="#969c9f" vector-effect="non-scaling-stroke" d="
  M 33.00 29.07
  Q 33.29 29.07 33.54 28.99
  A 0.82 0.82 0.0 0 0 34.10 28.07
  Q 34.00 27.54 34.09 26.32
  A 0.22 0.22 0.0 0 1 34.47 26.18
  L 41.93 33.63
  A 0.50 0.50 0.0 0 1 41.93 34.33
  L 38.48 37.77
  A 0.35 0.34 38.0 0 0 38.55 38.31
  L 39.41 38.80
  A 1.02 1.02 0.0 0 0 40.64 38.64
  L 44.90 34.38
  A 0.53 0.52 -45.4 0 0 44.90 33.63
  Q 38.93 27.65 33.29 22.03
  C 33.22 21.96 33.11 21.93 33.00 21.93
  C 32.89 21.93 32.78 21.96 32.71 22.03
  Q 27.07 27.65 21.10 33.63
  A 0.53 0.52 45.4 0 0 21.10 34.38
  L 25.36 38.64
  A 1.02 1.02 0.0 0 0 26.59 38.80
  L 27.45 38.31
  A 0.35 0.34 -38.0 0 0 27.52 37.77
  L 24.07 34.33
  A 0.50 0.50 0.0 0 1 24.07 33.63
  L 31.53 26.18
  A 0.22 0.22 0.0 0 1 31.91 26.32
  Q 32.00 27.54 31.90 28.07
  A 0.82 0.82 0.0 0 0 32.46 28.99
  Q 32.71 29.07 33.00 29.07"
/>
<path stroke="#969c9f" vector-effect="non-scaling-stroke" d="
  M 37.10 34.47
  A 4.11 4.11 0.0 0 0 32.99 30.36
  A 4.11 4.11 0.0 0 0 28.88 34.47
  A 4.11 4.11 0.0 0 0 32.99 38.58
  A 4.11 4.11 0.0 0 0 37.10 34.47"
/>
<path stroke="#969c9f" vector-effect="non-scaling-stroke" d="
  M 32.99 39.99
  Q 31.70 39.99 31.52 39.91
  Q 29.60 39.00 27.26 39.92
  A 1.26 1.25 4.3 0 0 26.63 40.46
  L 24.98 43.31
  A 0.47 0.47 0.0 0 0 25.39 44.01
  L 26.63 44.01
  A 1.06 1.06 0.0 0 0 27.63 43.30
  Q 27.97 42.34 28.83 41.64
  A 0.59 0.59 0.0 0 1 29.79 42.15
  Q 29.71 42.94 29.47 43.35
  A 0.42 0.42 0.0 0 0 29.83 43.98
  L 31.09 43.98
  A 0.70 0.69 -87.3 0 0 31.78 43.35
  Q 31.97 41.34 32.99 41.42
  Q 34.01 41.34 34.21 43.34
  A 0.70 0.69 87.2 0 0 34.90 43.98
  L 36.16 43.97
  A 0.42 0.42 0.0 0 0 36.52 43.34
  Q 36.27 42.93 36.19 42.14
  A 0.59 0.59 0.0 0 1 37.15 41.63
  Q 38.01 42.33 38.36 43.29
  A 1.06 1.06 0.0 0 0 39.36 44.00
  L 40.60 44.00
  A 0.47 0.47 0.0 0 0 41.01 43.30
  L 39.35 40.45
  A 1.26 1.25 -4.4 0 0 38.72 39.91
  Q 36.38 38.99 34.46 39.91
  Q 34.28 39.99 32.99 39.99"
/>
<path stroke="#969c9f" vector-effect="non-scaling-stroke" d="
  M 32.99 52.13
  Q 33.03 52.13 33.07 52.12
  A 0.36 0.31 -68.3 0 0 33.20 52.05
  L 39.44 45.94
  A 0.28 0.27 -67.3 0 0 39.25 45.47
  L 37.53 45.47
  A 1.80 1.79 -67.9 0 0 36.24 46.02
  Q 34.93 47.39 33.22 49.03
  Q 33.15 49.10 33.00 49.10
  Q 32.84 49.10 32.77 49.03
  Q 31.07 47.39 29.76 46.01
  A 1.80 1.79 68.0 0 0 28.47 45.46
  L 26.75 45.45
  A 0.28 0.27 67.4 0 0 26.56 45.92
  L 32.79 52.05
  A 0.36 0.31 68.5 0 0 32.92 52.12
  Q 32.95 52.13 32.99 52.13"
/>
</g>
<path fill="#16212b" d="
  M 33.80 88.00
  L 33.04 88.00
  C 21.76 77.75 12.11 65.67 5.65 51.56
  Q 2.21 44.05 1.60 34.89
  C 0.54 18.88 11.35 5.50 26.72 2.05
  C 41.12 -1.18 55.95 6.01 62.58 19.70
  C 66.93 28.68 65.94 39.72 62.41 48.88
  C 56.68 63.73 45.50 77.35 33.80 88.00
  Z
  M 33.41 86.58
  Q 33.55 86.58 33.69 86.54
  A 0.08 0.04 -58.7 0 0 33.73 86.52
  C 47.02 74.17 60.96 56.77 63.79 38.66
  Q 66.25 22.99 55.90 12.13
  C 50.07 6.01 42.11 2.51 33.52 2.50
  C 24.93 2.49 16.96 5.97 11.12 12.07
  Q 0.74 22.90 3.16 38.58
  C 5.94 56.70 19.83 74.13 33.09 86.52
  A 0.08 0.04 58.9 0 0 33.13 86.54
  Q 33.27 86.58 33.41 86.58
  Z"
/>
<path fill="#2c3f52" d="
  M 33.52 2.50
  C 42.11 2.51 50.07 6.01 55.90 12.13
  Q 66.25 22.99 63.79 38.66
  C 60.96 56.77 47.02 74.17 33.73 86.52
  A 0.08 0.04 -58.7 0 1 33.69 86.54
  Q 33.55 86.58 33.41 86.58
  Q 33.27 86.58 33.13 86.54
  A 0.08 0.04 58.9 0 1 33.09 86.52
  C 19.83 74.13 5.94 56.70 3.16 38.58
  Q 0.74 22.90 11.12 12.07
  C 16.96 5.97 24.93 2.49 33.52 2.50
  Z
  M 33.00 18.87
  Q 33.03 18.87 33.07 18.88
  A 0.34 0.26 -13.5 0 1 33.22 18.94
  L 48.00 33.72
  A 0.40 0.40 0.0 0 1 48.00 34.28
  L 41.74 40.55
  A 1.01 1.01 0.0 0 0 41.74 41.99
  L 42.23 42.49
  A 0.44 0.43 -44.5 0 0 42.84 42.49
  L 51.08 34.24
  A 0.34 0.33 -45.3 0 0 51.08 33.76
  C 43.14 25.85 33.44 15.94 33.00 15.94
  C 32.56 15.94 22.85 25.85 14.91 33.76
  A 0.34 0.33 45.3 0 0 14.91 34.24
  L 23.15 42.49
  A 0.44 0.43 44.5 0 0 23.76 42.49
  L 24.25 41.99
  A 1.01 1.01 0.0 0 0 24.25 40.55
  L 17.99 34.28
  A 0.40 0.40 0.0 0 1 17.99 33.72
  L 32.78 18.94
  A 0.34 0.26 13.5 0 1 32.92 18.88
  Q 32.96 18.87 33.00 18.87
  Z
  M 33.00 29.07
  Q 33.29 29.07 33.54 28.99
  A 0.82 0.82 0.0 0 0 34.10 28.07
  Q 34.00 27.54 34.09 26.32
  A 0.22 0.22 0.0 0 1 34.47 26.18
  L 41.93 33.63
  A 0.50 0.50 0.0 0 1 41.93 34.33
  L 38.48 37.77
  A 0.35 0.34 38.0 0 0 38.55 38.31
  L 39.41 38.80
  A 1.02 1.02 0.0 0 0 40.64 38.64
  L 44.90 34.38
  A 0.53 0.52 -45.4 0 0 44.90 33.63
  Q 38.93 27.65 33.29 22.03
  C 33.22 21.96 33.11 21.93 33.00 21.93
  C 32.89 21.93 32.78 21.96 32.71 22.03
  Q 27.07 27.65 21.10 33.63
  A 0.53 0.52 45.4 0 0 21.10 34.38
  L 25.36 38.64
  A 1.02 1.02 0.0 0 0 26.59 38.80
  L 27.45 38.31
  A 0.35 0.34 -38.0 0 0 27.52 37.77
  L 24.07 34.33
  A 0.50 0.50 0.0 0 1 24.07 33.63
  L 31.53 26.18
  A 0.22 0.22 0.0 0 1 31.91 26.32
  Q 32.00 27.54 31.90 28.07
  A 0.82 0.82 0.0 0 0 32.46 28.99
  Q 32.71 29.07 33.00 29.07
  Z
  M 37.10 34.47
  A 4.11 4.11 0.0 0 0 32.99 30.36
  A 4.11 4.11 0.0 0 0 28.88 34.47
  A 4.11 4.11 0.0 0 0 32.99 38.58
  A 4.11 4.11 0.0 0 0 37.10 34.47
  Z
  M 32.99 39.99
  Q 31.70 39.99 31.52 39.91
  Q 29.60 39.00 27.26 39.92
  A 1.26 1.25 4.3 0 0 26.63 40.46
  L 24.98 43.31
  A 0.47 0.47 0.0 0 0 25.39 44.01
  L 26.63 44.01
  A 1.06 1.06 0.0 0 0 27.63 43.30
  Q 27.97 42.34 28.83 41.64
  A 0.59 0.59 0.0 0 1 29.79 42.15
  Q 29.71 42.94 29.47 43.35
  A 0.42 0.42 0.0 0 0 29.83 43.98
  L 31.09 43.98
  A 0.70 0.69 -87.3 0 0 31.78 43.35
  Q 31.97 41.34 32.99 41.42
  Q 34.01 41.34 34.21 43.34
  A 0.70 0.69 87.2 0 0 34.90 43.98
  L 36.16 43.97
  A 0.42 0.42 0.0 0 0 36.52 43.34
  Q 36.27 42.93 36.19 42.14
  A 0.59 0.59 0.0 0 1 37.15 41.63
  Q 38.01 42.33 38.36 43.29
  A 1.06 1.06 0.0 0 0 39.36 44.00
  L 40.60 44.00
  A 0.47 0.47 0.0 0 0 41.01 43.30
  L 39.35 40.45
  A 1.26 1.25 -4.4 0 0 38.72 39.91
  Q 36.38 38.99 34.46 39.91
  Q 34.28 39.99 32.99 39.99
  Z
  M 32.99 52.13
  Q 33.03 52.13 33.07 52.12
  A 0.36 0.31 -68.3 0 0 33.20 52.05
  L 39.44 45.94
  A 0.28 0.27 -67.3 0 0 39.25 45.47
  L 37.53 45.47
  A 1.80 1.79 -67.9 0 0 36.24 46.02
  Q 34.93 47.39 33.22 49.03
  Q 33.15 49.10 33.00 49.10
  Q 32.84 49.10 32.77 49.03
  Q 31.07 47.39 29.76 46.01
  A 1.80 1.79 68.0 0 0 28.47 45.46
  L 26.75 45.45
  A 0.28 0.27 67.4 0 0 26.56 45.92
  L 32.79 52.05
  A 0.36 0.31 68.5 0 0 32.92 52.12
  Q 32.95 52.13 32.99 52.13
  Z"
/>
<path fill="#fff8ec" d="
  M 33.00 15.94
  C 33.44 15.94 43.14 25.85 51.08 33.76
  A 0.34 0.33 -45.3 0 1 51.08 34.24
  L 42.84 42.49
  A 0.44 0.43 -44.5 0 1 42.23 42.49
  L 41.74 41.99
  A 1.01 1.01 0.0 0 1 41.74 40.55
  L 48.00 34.28
  A 0.40 0.40 0.0 0 0 48.00 33.72
  L 33.22 18.94
  A 0.34 0.26 -13.5 0 0 33.07 18.88
  Q 33.03 18.87 33.00 18.87
  Q 32.96 18.87 32.92 18.88
  A 0.34 0.26 13.5 0 0 32.78 18.94
  L 17.99 33.72
  A 0.40 0.40 0.0 0 0 17.99 34.28
  L 24.25 40.55
  A 1.01 1.01 0.0 0 1 24.25 41.99
  L 23.76 42.49
  A 0.44 0.43 44.5 0 1 23.15 42.49
  L 14.91 34.24
  A 0.34 0.33 45.3 0 1 14.91 33.76
  C 22.85 25.85 32.56 15.94 33.00 15.94
  Z"
/>
<path fill="#fff8ec" d="
  M 33.00 21.93
  C 33.11 21.93 33.22 21.96 33.29 22.03
  Q 38.93 27.65 44.90 33.63
  A 0.53 0.52 -45.4 0 1 44.90 34.38
  L 40.64 38.64
  A 1.02 1.02 0.0 0 1 39.41 38.80
  L 38.55 38.31
  A 0.35 0.34 38.0 0 1 38.48 37.77
  L 41.93 34.33
  A 0.50 0.50 0.0 0 0 41.93 33.63
  L 34.47 26.18
  A 0.22 0.22 0.0 0 0 34.09 26.32
  Q 34.00 27.54 34.10 28.07
  A 0.82 0.82 0.0 0 1 33.54 28.99
  Q 33.29 29.07 33.00 29.07
  Q 32.71 29.07 32.46 28.99
  A 0.82 0.82 0.0 0 1 31.90 28.07
  Q 32.00 27.54 31.91 26.32
  A 0.22 0.22 0.0 0 0 31.53 26.18
  L 24.07 33.63
  A 0.50 0.50 0.0 0 0 24.07 34.33
  L 27.52 37.77
  A 0.35 0.34 -38.0 0 1 27.45 38.31
  L 26.59 38.80
  A 1.02 1.02 0.0 0 1 25.36 38.64
  L 21.10 34.38
  A 0.53 0.52 45.4 0 1 21.10 33.63
  Q 27.07 27.65 32.71 22.03
  C 32.78 21.96 32.89 21.93 33.00 21.93
  Z"
/>
<circle fill="#fff8ec" cx="32.99" cy="34.47" r="4.11"/>
<path fill="#fff8ec" d="
  M 32.99 41.42
  Q 31.97 41.34 31.78 43.35
  A 0.70 0.69 -87.3 0 1 31.09 43.98
  L 29.83 43.98
  A 0.42 0.42 0.0 0 1 29.47 43.35
  Q 29.71 42.94 29.79 42.15
  A 0.59 0.59 0.0 0 0 28.83 41.64
  Q 27.97 42.34 27.63 43.30
  A 1.06 1.06 0.0 0 1 26.63 44.01
  L 25.39 44.01
  A 0.47 0.47 0.0 0 1 24.98 43.31
  L 26.63 40.46
  A 1.26 1.25 4.3 0 1 27.26 39.92
  Q 29.60 39.00 31.52 39.91
  Q 31.70 39.99 32.99 39.99
  Q 34.28 39.99 34.46 39.91
  Q 36.38 38.99 38.72 39.91
  A 1.26 1.25 -4.4 0 1 39.35 40.45
  L 41.01 43.30
  A 0.47 0.47 0.0 0 1 40.60 44.00
  L 39.36 44.00
  A 1.06 1.06 0.0 0 1 38.36 43.29
  Q 38.01 42.33 37.15 41.63
  A 0.59 0.59 0.0 0 0 36.19 42.14
  Q 36.27 42.93 36.52 43.34
  A 0.42 0.42 0.0 0 1 36.16 43.97
  L 34.90 43.98
  A 0.70 0.69 87.2 0 1 34.21 43.34
  Q 34.01 41.34 32.99 41.42
  Z"
/>
<path fill="#fff8ec" d="
  M 33.00 49.10
  Q 33.15 49.10 33.22 49.03
  Q 34.93 47.39 36.24 46.02
  A 1.80 1.79 -67.9 0 1 37.53 45.47
  L 39.25 45.47
  A 0.28 0.27 -67.3 0 1 39.44 45.94
  L 33.20 52.05
  A 0.36 0.31 -68.3 0 1 33.07 52.12
  Q 33.03 52.13 32.99 52.13
  Q 32.95 52.13 32.92 52.12
  A 0.36 0.31 68.5 0 1 32.79 52.05
  L 26.56 45.92
  A 0.28 0.27 67.4 0 1 26.75 45.45
  L 28.47 45.46
  A 1.80 1.79 68.0 0 1 29.76 46.01
  Q 31.07 47.39 32.77 49.03
  Q 32.84 49.10 33.00 49.10
  Z"
/>
</svg>
