<?xml version="1.0" encoding="UTF-8" standalone="no"?>
<!DOCTYPE svg PUBLIC "-//W3C//DTD SVG 1.1//EN" "http://www.w3.org/Graphics/SVG/1.1/DTD/svg11.dtd">
<svg xmlns="http://www.w3.org/2000/svg" version="1.1" viewBox="0.00 0.00 66.00 88.00">
<g stroke-width="2.00" fill="none" stroke-linecap="butt">
<path stroke="#21303f" vector-effect="non-scaling-stroke" d="
  M 33.39 86.57
  Q 33.53 86.57 33.67 86.54
  A 0.17 0.12 9.9 0 0 33.75 86.50
  Q 44.78 76.19 53.05 64.02
  C 63.00 49.37 70.42 28.47 56.85 13.16
  Q 48.06 3.25 34.76 2.50
  Q 34.13 2.47 33.51 2.47
  Q 32.90 2.47 32.27 2.50
  Q 18.97 3.21 10.15 13.09
  C -3.47 28.36 3.89 49.28 13.80 63.96
  Q 22.04 76.16 33.04 86.50
  A 0.17 0.12 -9.7 0 0 33.11 86.54
  Q 33.25 86.57 33.39 86.57"
/>
<path stroke="#969c9f" vector-effect="non-scaling-stroke" d="
  M 33.00 32.50
  Q 36.23 32.50 36.57 32.54
  A 1.22 1.22 0.0 0 1 37.63 33.75
  L 37.65 47.91
  A 0.59 0.58 -90.0 0 0 38.23 48.50
  L 47.96 48.50
  A 0.63 0.63 0.0 0 0 48.59 47.87
  L 48.59 20.19
  A 0.63 0.62 1.2 0 0 47.99 19.57
  Q 46.05 19.48 33.00 19.49
  Q 19.94 19.49 18.00 19.57
  A 0.63 0.62 -1.2 0 0 17.40 20.19
  L 17.41 47.87
  A 0.63 0.63 0.0 0 0 18.04 48.50
  L 27.77 48.50
  A 0.59 0.58 90.0 0 0 28.35 47.91
  L 28.36 33.75
  A 1.22 1.22 0.0 0 1 29.43 32.54
  Q 29.76 32.50 33.00 32.50"
/>
</g>
<path fill="#16212b" d="
  M 33.81 88.00
  L 33.04 88.00
  C 21.72 77.71 12.19 65.74 5.68 51.55
  Q 2.14 43.84 1.58 34.89
  C 0.28 14.39 18.51 -1.61 38.96 1.80
  C 48.84 3.45 57.42 9.68 61.99 18.48
  C 74.61 42.76 50.59 72.67 33.81 88.00
  Z
  M 33.39 86.57
  Q 33.53 86.57 33.67 86.54
  A 0.17 0.12 9.9 0 0 33.75 86.50
  Q 44.78 76.19 53.05 64.02
  C 63.00 49.37 70.42 28.47 56.85 13.16
  Q 48.06 3.25 34.76 2.50
  Q 34.13 2.47 33.51 2.47
  Q 32.90 2.47 32.27 2.50
  Q 18.97 3.21 10.15 13.09
  C -3.47 28.36 3.89 49.28 13.80 63.96
  Q 22.04 76.16 33.04 86.50
  A 0.17 0.12 -9.7 0 0 33.11 86.54
  Q 33.25 86.57 33.39 86.57
  Z"
/>
<path fill="#2c3f52" d="
  M 33.51 2.47
  Q 34.13 2.47 34.76 2.50
  Q 48.06 3.25 56.85 13.16
  C 70.42 28.47 63.00 49.37 53.05 64.02
  Q 44.78 76.19 33.75 86.50
  A 0.17 0.12 9.9 0 1 33.67 86.54
  Q 33.53 86.57 33.39 86.57
  Q 33.25 86.57 33.11 86.54
  A 0.17 0.12 -9.7 0 1 33.04 86.50
  Q 22.04 76.16 13.80 63.96
  C 3.89 49.28 -3.47 28.36 10.15 13.09
  Q 18.97 3.21 32.27 2.50
  Q 32.90 2.47 33.51 2.47
  Z
  M 33.00 32.50
  Q 36.23 32.50 36.57 32.54
  A 1.22 1.22 0.0 0 1 37.63 33.75
  L 37.65 47.91
  A 0.59 0.58 -90.0 0 0 38.23 48.50
  L 47.96 48.50
  A 0.63 0.63 0.0 0 0 48.59 47.87
  L 48.59 20.19
  A 0.63 0.62 1.2 0 0 47.99 19.57
  Q 46.05 19.48 33.00 19.49
  Q 19.94 19.49 18.00 19.57
  A 0.63 0.62 -1.2 0 0 17.40 20.19
  L 17.41 47.87
  A 0.63 0.63 0.0 0 0 18.04 48.50
  L 27.77 48.50
  A 0.59 0.58 90.0 0 0 28.35 47.91
  L 28.36 33.75
  A 1.22 1.22 0.0 0 1 29.43 32.54
  Q 29.76 32.50 33.00 32.50
  Z"
/>
<path fill="#fff8ec" d="
  M 33.00 19.49
  Q 46.05 19.48 47.99 19.57
  A 0.63 0.62 1.2 0 1 48.59 20.19
  L 48.59 47.87
  A 0.63 0.63 0.0 0 1 47.96 48.50
  L 38.23 48.50
  A 0.59 0.58 -90.0 0 1 37.65 47.91
  L 37.63 33.75
  A 1.22 1.22 0.0 0 0 36.57 32.54
  Q 36.23 32.50 33.00 32.50
  Q 29.76 32.50 29.43 32.54
  A 1.22 1.22 0.0 0 0 28.36 33.75
  L 28.35 47.91
  A 0.59 0.58 90.0 0 1 27.77 48.50
  L 18.04 48.50
  A 0.63 0.63 0.0 0 1 17.41 47.87
  L 17.40 20.19
  A 0.63 0.62 -1.2 0 1 18.00 19.57
  Q 19.94 19.49 33.00 19.49
  Z"
/>
</svg>
