<?xml version="1.0" encoding="UTF-8" standalone="no"?>
<!DOCTYPE svg PUBLIC "-//W3C//DTD SVG 1.1//EN" "http://www.w3.org/Graphics/SVG/1.1/DTD/svg11.dtd">
<svg xmlns="http://www.w3.org/2000/svg" version="1.1" viewBox="0.00 0.00 66.00 88.00">
<g stroke-width="2.00" fill="none" stroke-linecap="butt">
<path stroke="#26433a" vector-effect="non-scaling-stroke" d="
  M 33.42 86.61
  C 34.13 86.61 33.56 86.67 33.78 86.47
  C 47.72 73.64 63.44 53.76 64.23 34.29
  C 64.78 20.82 56.95 9.36 44.52 4.56
  Q 39.17 2.49 33.52 2.48
  Q 27.88 2.48 22.52 4.53
  C 10.08 9.30 2.22 20.75 2.74 34.22
  C 3.48 53.69 19.16 73.61 33.07 86.47
  C 33.28 86.67 32.72 86.60 33.42 86.61"
/>
<path stroke="#99a89d" vector-effect="non-scaling-stroke" d="
  M 51.20 34.07
  A 18.24 18.24 0.0 0 0 32.96 15.83
  A 18.24 18.24 0.0 0 0 14.72 34.07
  A 18.24 18.24 0.0 0 0 32.96 52.31
  A 18.24 18.24 0.0 0 0 51.20 34.07"
/>
<path stroke="#99a89d" vector-effect="non-scaling-stroke" d="
  M 45.16 34.01
  A 12.18 12.18 0.0 0 0 32.98 21.83
  A 12.18 12.18 0.0 0 0 20.80 34.01
  A 12.18 12.18 0.0 0 0 32.98 46.19
  A 12.18 12.18 0.0 0 0 45.16 34.01"
/>
<path stroke="#99a89d" vector-effect="non-scaling-stroke" d="
  M 39.06 34.06
  A 6.08 6.08 0.0 0 0 32.98 27.98
  A 6.08 6.08 0.0 0 0 26.90 34.06
  A 6.08 6.08 0.0 0 0 32.98 40.14
  A 6.08 6.08 0.0 0 0 39.06 34.06"
/>
</g>
<path fill="#192e27" d="
  M 33.80 88.00
  L 33.04 88.00
  C 21.75 77.74 12.13 65.70 5.66 51.56
  Q 0.19 39.60 2.06 26.55
  Q 2.41 24.09 4.28 19.97
  C 9.32 8.88 19.89 2.12 31.75 1.39
  C 44.60 0.59 57.21 7.96 62.60 19.66
  C 73.73 43.85 50.37 72.93 33.80 88.00
  Z
  M 33.42 86.61
  C 34.13 86.61 33.56 86.67 33.78 86.47
  C 47.72 73.64 63.44 53.76 64.23 34.29
  C 64.78 20.82 56.95 9.36 44.52 4.56
  Q 39.17 2.49 33.52 2.48
  Q 27.88 2.48 22.52 4.53
  C 10.08 9.30 2.22 20.75 2.74 34.22
  C 3.48 53.69 19.16 73.61 33.07 86.47
  C 33.28 86.67 32.72 86.60 33.42 86.61
  Z"
/>
<path fill="#32574d" d="
  M 33.52 2.48
  Q 39.17 2.49 44.52 4.56
  C 56.95 9.36 64.78 20.82 64.23 34.29
  C 63.44 53.76 47.72 73.64 33.78 86.47
  C 33.56 86.67 34.13 86.61 33.42 86.61
  C 32.72 86.60 33.28 86.67 33.07 86.47
  C 19.16 73.61 3.48 53.69 2.74 34.22
  C 2.22 20.75 10.08 9.30 22.52 4.53
  Q 27.88 2.48 33.52 2.48
  Z
  M 51.20 34.07
  A 18.24 18.24 0.0 0 0 32.96 15.83
  A 18.24 18.24 0.0 0 0 14.72 34.07
  A 18.24 18.24 0.0 0 0 32.96 52.31
  A 18.24 18.24 0.0 0 0 51.20 34.07
  Z"
/>
<path fill="#fff8ec" d="
  M 51.20 34.07
  A 18.24 18.24 0.0 0 1 32.96 52.31
  A 18.24 18.24 0.0 0 1 14.72 34.07
  A 18.24 18.24 0.0 0 1 32.96 15.83
  A 18.24 18.24 0.0 0 1 51.20 34.07
  Z
  M 45.16 34.01
  A 12.18 12.18 0.0 0 0 32.98 21.83
  A 12.18 12.18 0.0 0 0 20.80 34.01
  A 12.18 12.18 0.0 0 0 32.98 46.19
  A 12.18 12.18 0.0 0 0 45.16 34.01
  Z"
/>
<path fill="#32574d" d="
  M 45.16 34.01
  A 12.18 12.18 0.0 0 1 32.98 46.19
  A 12.18 12.18 0.0 0 1 20.80 34.01
  A 12.18 12.18 0.0 0 1 32.98 21.83
  A 12.18 12.18 0.0 0 1 45.16 34.01
  Z
  M 39.06 34.06
  A 6.08 6.08 0.0 0 0 32.98 27.98
  A 6.08 6.08 0.0 0 0 26.90 34.06
  A 6.08 6.08 0.0 0 0 32.98 40.14
  A 6.08 6.08 0.0 0 0 39.06 34.06
  Z"
/>
<circle fill="#fff8ec" cx="32.98" cy="34.06" r="6.08"/>
</svg>
