<?xml version="1.0" encoding="UTF-8" standalone="no"?>
<!DOCTYPE svg PUBLIC "-//W3C//DTD SVG 1.1//EN" "http://www.w3.org/Graphics/SVG/1.1/DTD/svg11.dtd">
<svg xmlns="http://www.w3.org/2000/svg" version="1.1" viewBox="0.00 0.00 66.00 88.00">
<g stroke-width="2.00" fill="none" stroke-linecap="butt">
<path stroke="#4a4b57" vector-effect="non-scaling-stroke" d="
  M 33.42 86.62
  C 33.54 86.62 33.74 86.61 33.83 86.51
  Q 49.81 71.13 57.58 56.54
  Q 62.84 46.65 63.91 38.07
  Q 66.49 17.29 48.61 6.46
  Q 42.05 2.49 33.51 2.48
  Q 24.97 2.47 18.41 6.43
  Q 0.50 17.22 3.04 38.01
  Q 4.09 46.59 9.33 56.49
  Q 17.07 71.10 33.01 86.51
  C 33.11 86.61 33.30 86.62 33.42 86.62"
/>
<path stroke="#545363" vector-effect="non-scaling-stroke" d="
  M 21.30 27.87
  A 1.17 1.17 0.0 0 0 19.62 28.90
  L 19.31 41.47
  A 2.36 2.33 21.3 0 0 20.13 43.31
  L 28.23 50.30
  A 0.58 0.58 0.0 0 0 29.17 49.72
  Q 28.95 48.91 28.98 48.89
  A 0.59 0.59 0.0 0 1 29.86 49.52
  Q 28.99 53.40 29.60 55.07
  A 0.94 0.93 87.0 0 0 30.26 55.67
  Q 32.10 56.11 34.17 55.69
  A 1.04 1.03 84.6 0 0 35.01 54.67
  L 35.01 51.69
  A 1.00 1.00 0.0 0 1 35.37 50.92
  L 43.90 43.98
  A 3.13 3.12 -19.6 0 0 45.06 41.55
  L 45.06 28.63
  A 0.81 0.81 0.0 0 0 44.25 27.82
  L 43.50 27.82
  A 1.38 1.38 0.0 0 0 42.13 29.03
  L 40.79 40.14
  A 1.48 1.46 -18.8 0 1 40.34 41.04
  L 35.92 45.22
  A 0.32 0.32 0.0 0 1 35.38 44.99
  L 35.38 41.18
  A 1.00 0.99 -86.4 0 0 34.51 40.19
  L 34.09 40.14
  A 0.61 0.61 0.0 0 1 33.77 39.06
  Q 35.06 37.96 35.48 36.32
  C 35.96 34.43 37.43 33.79 38.49 32.74
  C 40.12 31.12 40.31 27.73 40.13 25.58
  A 1.41 1.39 64.5 0 1 40.50 24.51
  C 42.78 22.05 43.48 19.76 41.77 16.49
  Q 41.44 15.87 40.76 15.84
  Q 40.06 15.81 39.87 16.45
  A 0.39 0.38 43.7 0 1 39.14 16.46
  Q 38.30 14.03 37.18 13.00
  A 1.31 1.31 0.0 0 0 35.01 14.24
  Q 35.67 17.42 32.57 20.66
  A 0.59 0.59 0.0 0 1 31.76 20.69
  Q 28.66 17.89 29.29 14.36
  A 1.37 1.37 0.0 0 0 26.90 13.22
  L 24.69 15.78
  A 0.79 0.77 26.1 0 1 23.93 16.03
  Q 22.75 15.78 22.28 16.56
  C 21.20 18.36 21.24 21.70 23.09 23.58
  C 23.95 24.47 24.26 24.86 24.00 26.48
  Q 23.62 28.82 25.00 31.55
  A 1.25 1.23 9.2 0 0 25.27 31.92
  L 27.68 34.17
  A 2.93 2.86 13.1 0 1 28.47 35.41
  Q 29.35 38.26 30.61 39.23
  A 0.39 0.39 0.0 0 1 30.55 39.88
  Q 28.51 40.95 29.35 43.61
  A 0.90 0.90 0.0 0 1 28.04 44.66
  Q 26.00 43.50 24.78 41.90
  A 2.75 2.70 19.2 0 1 24.31 40.95
  Q 22.66 35.06 23.27 31.52
  A 3.37 3.36 17.7 0 0 21.41 27.92
  L 21.30 27.87"
/>
<path stroke="#a2a1a9" vector-effect="non-scaling-stroke" d="
  M 41.24 18.18
  A 0.31 0.31 0.0 0 0 40.63 18.19
  Q 40.13 21.89 37.14 22.69
  A 0.52 0.51 4.2 0 1 36.53 21.99
  Q 38.58 17.36 36.69 14.31
  A 0.24 0.24 0.0 0 0 36.34 14.25
  L 36.33 14.25
  A 0.27 0.26 54.7 0 0 36.27 14.61
  Q 37.08 15.76 36.37 17.09
  Q 35.35 19.00 32.38 23.04
  A 0.31 0.31 0.0 0 1 31.89 23.04
  C 30.13 20.75 27.29 17.72 27.78 14.62
  A 0.27 0.26 11.8 0 0 27.58 14.32
  L 27.55 14.31
  A 0.29 0.29 0.0 0 0 27.21 14.50
  Q 25.97 18.33 27.81 22.03
  A 0.51 0.51 0.0 0 1 27.22 22.75
  Q 24.07 21.89 23.55 17.94
  A 0.20 0.20 0.0 0 0 23.16 17.92
  Q 22.28 21.62 24.86 23.81
  A 2.65 2.08 -65.4 0 1 25.46 26.29
  Q 24.87 28.56 25.28 29.03
  A 0.24 0.24 0.0 0 0 25.69 28.83
  Q 25.60 28.39 25.78 27.74
  A 0.91 0.91 0.0 0 1 27.12 27.20
  L 31.00 29.43
  A 0.69 0.68 -26.4 0 1 30.57 30.70
  L 25.95 30.14
  A 0.17 0.16 87.4 0 0 25.77 30.34
  L 25.90 31.00
  A 1.42 1.40 -83.3 0 0 26.68 32.00
  Q 29.32 33.25 30.54 37.16
  A 1.62 1.62 0.0 0 0 33.57 37.32
  L 34.73 34.66
  A 3.40 3.38 -4.4 0 1 36.05 33.13
  Q 39.92 30.73 38.67 25.23
  A 1.12 1.12 0.0 0 1 39.11 24.08
  Q 41.92 22.08 41.24 18.18"
/>
<path stroke="#a2a1a9" vector-effect="non-scaling-stroke" d="
  M 43.99 29.37
  A 0.43 0.43 0.0 0 0 43.14 29.32
  L 41.83 40.11
  A 3.35 3.35 0.0 0 1 40.71 42.24
  Q 38.24 44.40 36.45 46.95
  A 0.56 0.56 0.0 0 0 37.26 47.70
  L 43.35 42.75
  A 1.73 1.72 -19.7 0 0 43.99 41.41
  L 43.99 29.37"
/>
<path stroke="#a2a1a9" vector-effect="non-scaling-stroke" d="
  M 20.58 29.67
  L 20.65 41.58
  A 1.72 1.70 19.3 0 0 21.29 42.90
  L 27.34 47.76
  A 0.55 0.55 0.0 0 0 28.14 47.02
  Q 26.35 44.50 23.90 42.38
  A 3.32 3.31 17.0 0 1 22.78 40.28
  L 21.42 29.62
  A 0.42 0.42 0.0 0 0 20.58 29.67"
/>
<path stroke="#a2a1a9" vector-effect="non-scaling-stroke" d="
  M 33.67 41.25
  L 30.79 41.28
  A 0.43 0.43 0.0 0 0 30.37 41.71
  L 30.37 41.91
  A 8.11 1.04 89.4 0 0 31.50 50.01
  L 33.16 49.99
  A 8.11 1.04 89.4 0 0 34.11 41.87
  L 34.11 41.67
  A 0.43 0.43 0.0 0 0 33.67 41.25"
/>
<path stroke="#a2a1a9" vector-effect="non-scaling-stroke" d="
  M 34.0161 51.9879
  A 0.72 0.72 0.0 0 0 33.3075 51.2567
  L 31.2078 51.2237
  A 0.72 0.72 0.0 0 0 30.4766 51.9323
  L 30.4439 54.0121
  A 0.72 0.72 0.0 0 0 31.1525 54.7433
  L 33.2522 54.7763
  A 0.72 0.72 0.0 0 0 33.9834 54.0677
  L 34.0161 51.9879"
/>
<path stroke="#a2a1a9" vector-effect="non-scaling-stroke" d="
  M 33.82 30.87
  L 37.22 30.20
  A 1.47 1.46 79.0 0 0 38.37 28.48
  L 38.22 27.76
  A 0.85 0.84 -14.2 0 0 37.14 27.12
  Q 34.80 27.86 33.12 29.58
  A 0.77 0.77 0.0 0 0 33.82 30.87"
/>
</g>
<path fill="#31333a" d="
  M 33.80 88.00
  L 33.04 88.00
  C 21.79 77.79 12.04 65.61 5.64 51.56
  Q 2.17 43.93 1.59 34.88
  C -0.23 6.51 33.54 -9.08 54.61 9.19
  Q 62.94 16.42 64.91 27.01
  C 69.08 49.39 49.24 73.94 33.80 88.00
  Z
  M 33.42 86.62
  C 33.54 86.62 33.74 86.61 33.83 86.51
  Q 49.81 71.13 57.58 56.54
  Q 62.84 46.65 63.91 38.07
  Q 66.49 17.29 48.61 6.46
  Q 42.05 2.49 33.51 2.48
  Q 24.97 2.47 18.41 6.43
  Q 0.50 17.22 3.04 38.01
  Q 4.09 46.59 9.33 56.49
  Q 17.07 71.10 33.01 86.51
  C 33.11 86.61 33.30 86.62 33.42 86.62
  Z"
/>
<path fill="#636373" d="
  M 33.51 2.48
  Q 42.05 2.49 48.61 6.46
  Q 66.49 17.29 63.91 38.07
  Q 62.84 46.65 57.58 56.54
  Q 49.81 71.13 33.83 86.51
  C 33.74 86.61 33.54 86.62 33.42 86.62
  C 33.30 86.62 33.11 86.61 33.01 86.51
  Q 17.07 71.10 9.33 56.49
  Q 4.09 46.59 3.04 38.01
  Q 0.50 17.22 18.41 6.43
  Q 24.97 2.47 33.51 2.48
  Z
  M 21.30 27.87
  A 1.17 1.17 0.0 0 0 19.62 28.90
  L 19.31 41.47
  A 2.36 2.33 21.3 0 0 20.13 43.31
  L 28.23 50.30
  A 0.58 0.58 0.0 0 0 29.17 49.72
  Q 28.95 48.91 28.98 48.89
  A 0.59 0.59 0.0 0 1 29.86 49.52
  Q 28.99 53.40 29.60 55.07
  A 0.94 0.93 87.0 0 0 30.26 55.67
  Q 32.10 56.11 34.17 55.69
  A 1.04 1.03 84.6 0 0 35.01 54.67
  L 35.01 51.69
  A 1.00 1.00 0.0 0 1 35.37 50.92
  L 43.90 43.98
  A 3.13 3.12 -19.6 0 0 45.06 41.55
  L 45.06 28.63
  A 0.81 0.81 0.0 0 0 44.25 27.82
  L 43.50 27.82
  A 1.38 1.38 0.0 0 0 42.13 29.03
  L 40.79 40.14
  A 1.48 1.46 -18.8 0 1 40.34 41.04
  L 35.92 45.22
  A 0.32 0.32 0.0 0 1 35.38 44.99
  L 35.38 41.18
  A 1.00 0.99 -86.4 0 0 34.51 40.19
  L 34.09 40.14
  A 0.61 0.61 0.0 0 1 33.77 39.06
  Q 35.06 37.96 35.48 36.32
  C 35.96 34.43 37.43 33.79 38.49 32.74
  C 40.12 31.12 40.31 27.73 40.13 25.58
  A 1.41 1.39 64.5 0 1 40.50 24.51
  C 42.78 22.05 43.48 19.76 41.77 16.49
  Q 41.44 15.87 40.76 15.84
  Q 40.06 15.81 39.87 16.45
  A 0.39 0.38 43.7 0 1 39.14 16.46
  Q 38.30 14.03 37.18 13.00
  A 1.31 1.31 0.0 0 0 35.01 14.24
  Q 35.67 17.42 32.57 20.66
  A 0.59 0.59 0.0 0 1 31.76 20.69
  Q 28.66 17.89 29.29 14.36
  A 1.37 1.37 0.0 0 0 26.90 13.22
  L 24.69 15.78
  A 0.79 0.77 26.1 0 1 23.93 16.03
  Q 22.75 15.78 22.28 16.56
  C 21.20 18.36 21.24 21.70 23.09 23.58
  C 23.95 24.47 24.26 24.86 24.00 26.48
  Q 23.62 28.82 25.00 31.55
  A 1.25 1.23 9.2 0 0 25.27 31.92
  L 27.68 34.17
  A 2.93 2.86 13.1 0 1 28.47 35.41
  Q 29.35 38.26 30.61 39.23
  A 0.39 0.39 0.0 0 1 30.55 39.88
  Q 28.51 40.95 29.35 43.61
  A 0.90 0.90 0.0 0 1 28.04 44.66
  Q 26.00 43.50 24.78 41.90
  A 2.75 2.70 19.2 0 1 24.31 40.95
  Q 22.66 35.06 23.27 31.52
  A 3.37 3.36 17.7 0 0 21.41 27.92
  L 21.30 27.87
  Z"
/>
<path fill="#444353" d="
  M 21.30 27.87
  L 21.41 27.92
  A 3.37 3.36 17.7 0 1 23.27 31.52
  Q 22.66 35.06 24.31 40.95
  A 2.75 2.70 19.2 0 0 24.78 41.90
  Q 26.00 43.50 28.04 44.66
  A 0.90 0.90 0.0 0 0 29.35 43.61
  Q 28.51 40.95 30.55 39.88
  A 0.39 0.39 0.0 0 0 30.61 39.23
  Q 29.35 38.26 28.47 35.41
  A 2.93 2.86 13.1 0 0 27.68 34.17
  L 25.27 31.92
  A 1.25 1.23 9.2 0 1 25.00 31.55
  Q 23.62 28.82 24.00 26.48
  C 24.26 24.86 23.95 24.47 23.09 23.58
  C 21.24 21.70 21.20 18.36 22.28 16.56
  Q 22.75 15.78 23.93 16.03
  A 0.79 0.77 26.1 0 0 24.69 15.78
  L 26.90 13.22
  A 1.37 1.37 0.0 0 1 29.29 14.36
  Q 28.66 17.89 31.76 20.69
  A 0.59 0.59 0.0 0 0 32.57 20.66
  Q 35.67 17.42 35.01 14.24
  A 1.31 1.31 0.0 0 1 37.18 13.00
  Q 38.30 14.03 39.14 16.46
  A 0.39 0.38 43.7 0 0 39.87 16.45
  Q 40.06 15.81 40.76 15.84
  Q 41.44 15.87 41.77 16.49
  C 43.48 19.76 42.78 22.05 40.50 24.51
  A 1.41 1.39 64.5 0 0 40.13 25.58
  C 40.31 27.73 40.12 31.12 38.49 32.74
  C 37.43 33.79 35.96 34.43 35.48 36.32
  Q 35.06 37.96 33.77 39.06
  A 0.61 0.61 0.0 0 0 34.09 40.14
  L 34.51 40.19
  A 1.00 0.99 -86.4 0 1 35.38 41.18
  L 35.38 44.99
  A 0.32 0.32 0.0 0 0 35.92 45.22
  L 40.34 41.04
  A 1.48 1.46 -18.8 0 0 40.79 40.14
  L 42.13 29.03
  A 1.38 1.38 0.0 0 1 43.50 27.82
  L 44.25 27.82
  A 0.81 0.81 0.0 0 1 45.06 28.63
  L 45.06 41.55
  A 3.13 3.12 -19.6 0 1 43.90 43.98
  L 35.37 50.92
  A 1.00 1.00 0.0 0 0 35.01 51.69
  L 35.01 54.67
  A 1.04 1.03 84.6 0 1 34.17 55.69
  Q 32.10 56.11 30.26 55.67
  A 0.94 0.93 87.0 0 1 29.60 55.07
  Q 28.99 53.40 29.86 49.52
  A 0.59 0.59 0.0 0 0 28.98 48.89
  Q 28.95 48.91 29.17 49.72
  A 0.58 0.58 0.0 0 1 28.23 50.30
  L 20.13 43.31
  A 2.36 2.33 21.3 0 1 19.31 41.47
  L 19.62 28.90
  A 1.17 1.17 0.0 0 1 21.30 27.87
  Z
  M 41.24 18.18
  A 0.31 0.31 0.0 0 0 40.63 18.19
  Q 40.13 21.89 37.14 22.69
  A 0.52 0.51 4.2 0 1 36.53 21.99
  Q 38.58 17.36 36.69 14.31
  A 0.24 0.24 0.0 0 0 36.34 14.25
  L 36.33 14.25
  A 0.27 0.26 54.7 0 0 36.27 14.61
  Q 37.08 15.76 36.37 17.09
  Q 35.35 19.00 32.38 23.04
  A 0.31 0.31 0.0 0 1 31.89 23.04
  C 30.13 20.75 27.29 17.72 27.78 14.62
  A 0.27 0.26 11.8 0 0 27.58 14.32
  L 27.55 14.31
  A 0.29 0.29 0.0 0 0 27.21 14.50
  Q 25.97 18.33 27.81 22.03
  A 0.51 0.51 0.0 0 1 27.22 22.75
  Q 24.07 21.89 23.55 17.94
  A 0.20 0.20 0.0 0 0 23.16 17.92
  Q 22.28 21.62 24.86 23.81
  A 2.65 2.08 -65.4 0 1 25.46 26.29
  Q 24.87 28.56 25.28 29.03
  A 0.24 0.24 0.0 0 0 25.69 28.83
  Q 25.60 28.39 25.78 27.74
  A 0.91 0.91 0.0 0 1 27.12 27.20
  L 31.00 29.43
  A 0.69 0.68 -26.4 0 1 30.57 30.70
  L 25.95 30.14
  A 0.17 0.16 87.4 0 0 25.77 30.34
  L 25.90 31.00
  A 1.42 1.40 -83.3 0 0 26.68 32.00
  Q 29.32 33.25 30.54 37.16
  A 1.62 1.62 0.0 0 0 33.57 37.32
  L 34.73 34.66
  A 3.40 3.38 -4.4 0 1 36.05 33.13
  Q 39.92 30.73 38.67 25.23
  A 1.12 1.12 0.0 0 1 39.11 24.08
  Q 41.92 22.08 41.24 18.18
  Z
  M 43.99 29.37
  A 0.43 0.43 0.0 0 0 43.14 29.32
  L 41.83 40.11
  A 3.35 3.35 0.0 0 1 40.71 42.24
  Q 38.24 44.40 36.45 46.95
  A 0.56 0.56 0.0 0 0 37.26 47.70
  L 43.35 42.75
  A 1.73 1.72 -19.7 0 0 43.99 41.41
  L 43.99 29.37
  Z
  M 20.58 29.67
  L 20.65 41.58
  A 1.72 1.70 19.3 0 0 21.29 42.90
  L 27.34 47.76
  A 0.55 0.55 0.0 0 0 28.14 47.02
  Q 26.35 44.50 23.90 42.38
  A 3.32 3.31 17.0 0 1 22.78 40.28
  L 21.42 29.62
  A 0.42 0.42 0.0 0 0 20.58 29.67
  Z
  M 33.67 41.25
  L 30.79 41.28
  A 0.43 0.43 0.0 0 0 30.37 41.71
  L 30.37 41.91
  A 8.11 1.04 89.4 0 0 31.50 50.01
  L 33.16 49.99
  A 8.11 1.04 89.4 0 0 34.11 41.87
  L 34.11 41.67
  A 0.43 0.43 0.0 0 0 33.67 41.25
  Z
  M 34.0161 51.9879
  A 0.72 0.72 0.0 0 0 33.3075 51.2567
  L 31.2078 51.2237
  A 0.72 0.72 0.0 0 0 30.4766 51.9323
  L 30.4439 54.0121
  A 0.72 0.72 0.0 0 0 31.1525 54.7433
  L 33.2522 54.7763
  A 0.72 0.72 0.0 0 0 33.9834 54.0677
  L 34.0161 51.9879
  Z"
/>
<path fill="#ffffff" d="
  M 41.24 18.18
  Q 41.92 22.08 39.11 24.08
  A 1.12 1.12 0.0 0 0 38.67 25.23
  Q 39.92 30.73 36.05 33.13
  A 3.40 3.38 -4.4 0 0 34.73 34.66
  L 33.57 37.32
  A 1.62 1.62 0.0 0 1 30.54 37.16
  Q 29.32 33.25 26.68 32.00
  A 1.42 1.40 -83.3 0 1 25.90 31.00
  L 25.77 30.34
  A 0.17 0.16 87.4 0 1 25.95 30.14
  L 30.57 30.70
  A 0.69 0.68 -26.4 0 0 31.00 29.43
  L 27.12 27.20
  A 0.91 0.91 0.0 0 0 25.78 27.74
  Q 25.60 28.39 25.69 28.83
  A 0.24 0.24 0.0 0 1 25.28 29.03
  Q 24.87 28.56 25.46 26.29
  A 2.65 2.08 -65.4 0 0 24.86 23.81
  Q 22.28 21.62 23.16 17.92
  A 0.20 0.20 0.0 0 1 23.55 17.94
  Q 24.07 21.89 27.22 22.75
  A 0.51 0.51 0.0 0 0 27.81 22.03
  Q 25.97 18.33 27.21 14.50
  A 0.29 0.29 0.0 0 1 27.55 14.31
  L 27.58 14.32
  A 0.27 0.26 11.8 0 1 27.78 14.62
  C 27.29 17.72 30.13 20.75 31.89 23.04
  A 0.31 0.31 0.0 0 0 32.38 23.04
  Q 35.35 19.00 36.37 17.09
  Q 37.08 15.76 36.27 14.61
  A 0.27 0.26 54.7 0 1 36.33 14.25
  L 36.34 14.25
  A 0.24 0.24 0.0 0 1 36.69 14.31
  Q 38.58 17.36 36.53 21.99
  A 0.52 0.51 4.2 0 0 37.14 22.69
  Q 40.13 21.89 40.63 18.19
  A 0.31 0.31 0.0 0 1 41.24 18.18
  Z
  M 33.82 30.87
  L 37.22 30.20
  A 1.47 1.46 79.0 0 0 38.37 28.48
  L 38.22 27.76
  A 0.85 0.84 -14.2 0 0 37.14 27.12
  Q 34.80 27.86 33.12 29.58
  A 0.77 0.77 0.0 0 0 33.82 30.87
  Z"
/>
<path fill="#444353" d="
  M 33.82 30.87
  A 0.77 0.77 0.0 0 1 33.12 29.58
  Q 34.80 27.86 37.14 27.12
  A 0.85 0.84 -14.2 0 1 38.22 27.76
  L 38.37 28.48
  A 1.47 1.46 79.0 0 1 37.22 30.20
  L 33.82 30.87
  Z"
/>
<path fill="#ffffff" d="
  M 43.99 29.37
  L 43.99 41.41
  A 1.73 1.72 -19.7 0 1 43.35 42.75
  L 37.26 47.70
  A 0.56 0.56 0.0 0 1 36.45 46.95
  Q 38.24 44.40 40.71 42.24
  A 3.35 3.35 0.0 0 0 41.83 40.11
  L 43.14 29.32
  A 0.43 0.43 0.0 0 1 43.99 29.37
  Z"
/>
<path fill="#ffffff" d="
  M 20.58 29.67
  A 0.42 0.42 0.0 0 1 21.42 29.62
  L 22.78 40.28
  A 3.32 3.31 17.0 0 0 23.90 42.38
  Q 26.35 44.50 28.14 47.02
  A 0.55 0.55 0.0 0 1 27.34 47.76
  L 21.29 42.90
  A 1.72 1.70 19.3 0 1 20.65 41.58
  L 20.58 29.67
  Z"
/>
<path fill="#ffffff" d="
  M 33.67 41.25
  A 0.43 0.43 0.0 0 1 34.11 41.67
  L 34.11 41.87
  A 8.11 1.04 89.4 0 1 33.16 49.99
  L 31.50 50.01
  A 8.11 1.04 89.4 0 1 30.37 41.91
  L 30.37 41.71
  A 0.43 0.43 0.0 0 1 30.79 41.28
  L 33.67 41.25
  Z"
/>
<rect fill="#ffffff" x="-1.77" y="-1.76" transform="translate(32.23,53.00) rotate(0.9)" width="3.54" height="3.52" rx="0.72"/>
</svg>
