<?xml version="1.0" encoding="UTF-8" standalone="no"?>
<!DOCTYPE svg PUBLIC "-//W3C//DTD SVG 1.1//EN" "http://www.w3.org/Graphics/SVG/1.1/DTD/svg11.dtd">
<svg xmlns="http://www.w3.org/2000/svg" version="1.1" viewBox="0.00 0.00 66.00 88.00">
<g stroke-width="2.00" fill="none" stroke-linecap="butt">
<path stroke="#4a4b57" vector-effect="non-scaling-stroke" d="
  M 33.43 86.62
  C 34.23 86.62 33.57 86.69 33.79 86.48
  Q 47.08 74.10 55.67 59.90
  C 65.08 44.36 69.28 25.00 54.88 11.08
  C 49.28 5.66 41.58 2.46 33.50 2.45
  C 25.41 2.44 17.71 5.64 12.09 11.04
  C -2.33 24.94 1.84 44.31 11.23 59.86
  Q 19.79 74.08 33.06 86.48
  C 33.28 86.69 32.63 86.62 33.43 86.62"
/>
<path stroke="#4c4b53" vector-effect="non-scaling-stroke" d="
  M 21.23 16.90
  A 0.57 0.57 0.0 0 1 20.66 17.47
  L 16.29 17.47
  A 0.57 0.57 0.0 0 0 15.72 18.04
  L 15.72 30.91
  A 0.57 0.57 0.0 0 0 16.29 31.48
  L 20.68 31.48
  A 0.57 0.57 0.0 0 1 21.25 32.05
  L 21.25 55.17
  A 0.57 0.57 0.0 0 0 21.82 55.74
  L 30.17 55.74
  A 0.57 0.57 0.0 0 0 30.74 55.17
  L 30.74 32.00
  A 0.57 0.57 0.0 0 1 31.31 31.43
  L 42.65 31.43
  A 0.57 0.57 0.0 0 0 43.03 31.29
  L 50.35 24.77
  A 0.57 0.57 0.0 0 0 50.34 23.91
  L 42.76 17.64
  A 0.57 0.57 0.0 0 0 42.39 17.51
  L 31.33 17.51
  A 0.57 0.57 0.0 0 1 30.76 16.94
  L 30.76 12.81
  A 0.57 0.57 0.0 0 0 30.19 12.24
  L 21.80 12.24
  A 0.57 0.57 0.0 0 0 21.23 12.81
  L 21.23 16.90"
/>
<path stroke="#5f865e" vector-effect="non-scaling-stroke" d="
  M 27.93 18.71
  Q 29.04 17.30 28.74 14.98
  A 0.58 0.58 0.0 0 0 28.16 14.47
  L 24.08 14.47
  A 0.64 0.64 0.0 0 0 23.44 15.06
  Q 23.19 17.75 24.45 19.02
  A 0.28 0.27 67.5 0 1 24.26 19.49
  L 18.59 19.49
  A 1.11 1.11 0.0 0 0 17.48 20.60
  L 17.48 28.03
  A 1.21 1.21 0.0 0 0 18.69 29.24
  L 24.17 29.24
  A 0.33 0.33 0.0 0 1 24.46 29.72
  L 23.59 31.38
  A 0.90 0.88 59.8 0 0 23.48 31.81
  L 23.48 53.55
  A 0.48 0.47 -0.0 0 0 23.96 54.02
  L 28.28 54.02
  A 0.47 0.47 0.0 0 0 28.75 53.55
  L 28.75 31.97
  A 1.99 1.93 -61.5 0 0 28.46 30.94
  L 27.75 29.80
  A 0.35 0.34 73.9 0 1 28.04 29.27
  L 41.81 29.27
  A 1.13 1.09 23.8 0 0 42.54 29.00
  L 47.18 24.88
  A 0.77 0.77 0.0 0 0 47.16 23.72
  L 42.22 19.64
  A 0.66 0.59 62.7 0 0 41.82 19.49
  L 28.31 19.49
  A 0.48 0.48 0.0 0 1 27.93 18.71"
/>
</g>
<path fill="#30323a" d="
  M 33.78 88.00
  L 33.03 88.00
  C 16.93 73.36 -5.84 44.84 3.70 21.28
  Q 7.13 12.83 14.73 7.29
  C 22.95 1.29 34.90 -0.52 44.70 3.34
  Q 60.98 9.75 64.85 26.54
  C 67.25 36.97 63.28 49.07 57.55 58.84
  Q 47.97 75.16 33.78 88.00
  Z
  M 33.43 86.62
  C 34.23 86.62 33.57 86.69 33.79 86.48
  Q 47.08 74.10 55.67 59.90
  C 65.08 44.36 69.28 25.00 54.88 11.08
  C 49.28 5.66 41.58 2.46 33.50 2.45
  C 25.41 2.44 17.71 5.64 12.09 11.04
  C -2.33 24.94 1.84 44.31 11.23 59.86
  Q 19.79 74.08 33.06 86.48
  C 33.28 86.69 32.63 86.62 33.43 86.62
  Z"
/>
<path fill="#636373" d="
  M 33.50 2.45
  C 41.58 2.46 49.28 5.66 54.88 11.08
  C 69.28 25.00 65.08 44.36 55.67 59.90
  Q 47.08 74.10 33.79 86.48
  C 33.57 86.69 34.23 86.62 33.43 86.62
  C 32.63 86.62 33.28 86.69 33.06 86.48
  Q 19.79 74.08 11.23 59.86
  C 1.84 44.31 -2.33 24.94 12.09 11.04
  C 17.71 5.64 25.41 2.44 33.50 2.45
  Z
  M 21.23 16.90
  A 0.57 0.57 0.0 0 1 20.66 17.47
  L 16.29 17.47
  A 0.57 0.57 0.0 0 0 15.72 18.04
  L 15.72 30.91
  A 0.57 0.57 0.0 0 0 16.29 31.48
  L 20.68 31.48
  A 0.57 0.57 0.0 0 1 21.25 32.05
  L 21.25 55.17
  A 0.57 0.57 0.0 0 0 21.82 55.74
  L 30.17 55.74
  A 0.57 0.57 0.0 0 0 30.74 55.17
  L 30.74 32.00
  A 0.57 0.57 0.0 0 1 31.31 31.43
  L 42.65 31.43
  A 0.57 0.57 0.0 0 0 43.03 31.29
  L 50.35 24.77
  A 0.57 0.57 0.0 0 0 50.34 23.91
  L 42.76 17.64
  A 0.57 0.57 0.0 0 0 42.39 17.51
  L 31.33 17.51
  A 0.57 0.57 0.0 0 1 30.76 16.94
  L 30.76 12.81
  A 0.57 0.57 0.0 0 0 30.19 12.24
  L 21.80 12.24
  A 0.57 0.57 0.0 0 0 21.23 12.81
  L 21.23 16.90
  Z"
/>
<path fill="#343332" d="
  M 21.23 16.90
  L 21.23 12.81
  A 0.57 0.57 0.0 0 1 21.80 12.24
  L 30.19 12.24
  A 0.57 0.57 0.0 0 1 30.76 12.81
  L 30.76 16.94
  A 0.57 0.57 0.0 0 0 31.33 17.51
  L 42.39 17.51
  A 0.57 0.57 0.0 0 1 42.76 17.64
  L 50.34 23.91
  A 0.57 0.57 0.0 0 1 50.35 24.77
  L 43.03 31.29
  A 0.57 0.57 0.0 0 1 42.65 31.43
  L 31.31 31.43
  A 0.57 0.57 0.0 0 0 30.74 32.00
  L 30.74 55.17
  A 0.57 0.57 0.0 0 1 30.17 55.74
  L 21.82 55.74
  A 0.57 0.57 0.0 0 1 21.25 55.17
  L 21.25 32.05
  A 0.57 0.57 0.0 0 0 20.68 31.48
  L 16.29 31.48
  A 0.57 0.57 0.0 0 1 15.72 30.91
  L 15.72 18.04
  A 0.57 0.57 0.0 0 1 16.29 17.47
  L 20.66 17.47
  A 0.57 0.57 0.0 0 0 21.23 16.90
  Z
  M 27.93 18.71
  Q 29.04 17.30 28.74 14.98
  A 0.58 0.58 0.0 0 0 28.16 14.47
  L 24.08 14.47
  A 0.64 0.64 0.0 0 0 23.44 15.06
  Q 23.19 17.75 24.45 19.02
  A 0.28 0.27 67.5 0 1 24.26 19.49
  L 18.59 19.49
  A 1.11 1.11 0.0 0 0 17.48 20.60
  L 17.48 28.03
  A 1.21 1.21 0.0 0 0 18.69 29.24
  L 24.17 29.24
  A 0.33 0.33 0.0 0 1 24.46 29.72
  L 23.59 31.38
  A 0.90 0.88 59.8 0 0 23.48 31.81
  L 23.48 53.55
  A 0.48 0.47 -0.0 0 0 23.96 54.02
  L 28.28 54.02
  A 0.47 0.47 0.0 0 0 28.75 53.55
  L 28.75 31.97
  A 1.99 1.93 -61.5 0 0 28.46 30.94
  L 27.75 29.80
  A 0.35 0.34 73.9 0 1 28.04 29.27
  L 41.81 29.27
  A 1.13 1.09 23.8 0 0 42.54 29.00
  L 47.18 24.88
  A 0.77 0.77 0.0 0 0 47.16 23.72
  L 42.22 19.64
  A 0.66 0.59 62.7 0 0 41.82 19.49
  L 28.31 19.49
  A 0.48 0.48 0.0 0 1 27.93 18.71
  Z"
/>
<path fill="#89d889" d="
  M 28.31 19.49
  L 41.82 19.49
  A 0.66 0.59 62.7 0 1 42.22 19.64
  L 47.16 23.72
  A 0.77 0.77 0.0 0 1 47.18 24.88
  L 42.54 29.00
  A 1.13 1.09 23.8 0 1 41.81 29.27
  L 28.04 29.27
  A 0.35 0.34 73.9 0 0 27.75 29.80
  L 28.46 30.94
  A 1.99 1.93 -61.5 0 1 28.75 31.97
  L 28.75 53.55
  A 0.47 0.47 0.0 0 1 28.28 54.02
  L 23.96 54.02
  A 0.48 0.47 -0.0 0 1 23.48 53.55
  L 23.48 31.81
  A 0.90 0.88 59.8 0 1 23.59 31.38
  L 24.46 29.72
  A 0.33 0.33 0.0 0 0 24.17 29.24
  L 18.69 29.24
  A 1.21 1.21 0.0 0 1 17.48 28.03
  L 17.48 20.60
  A 1.11 1.11 0.0 0 1 18.59 19.49
  L 24.26 19.49
  A 0.28 0.27 67.5 0 0 24.45 19.02
  Q 23.19 17.75 23.44 15.06
  A 0.64 0.64 0.0 0 1 24.08 14.47
  L 28.16 14.47
  A 0.58 0.58 0.0 0 1 28.74 14.98
  Q 29.04 17.30 27.93 18.71
  A 0.48 0.48 0.0 0 0 28.31 19.49
  Z"
/>
</svg>
