<?xml version="1.0" encoding="UTF-8" standalone="no"?>
<!DOCTYPE svg PUBLIC "-//W3C//DTD SVG 1.1//EN" "http://www.w3.org/Graphics/SVG/1.1/DTD/svg11.dtd">
<svg xmlns="http://www.w3.org/2000/svg" version="1.1" viewBox="0.00 0.00 66.00 88.00">
<g stroke-width="2.00" fill="none" stroke-linecap="butt">
<path stroke="#4b4c5b" vector-effect="non-scaling-stroke" d="
  M 33.42 86.62
  C 33.69 86.62 33.68 86.63 33.82 86.50
  Q 50.48 70.61 58.50 54.78
  C 64.73 42.49 67.28 27.72 59.13 16.08
  Q 50.24 3.39 34.50 2.50
  Q 33.59 2.45 33.49 2.45
  Q 33.39 2.45 32.48 2.50
  Q 16.74 3.36 7.83 16.04
  C -0.34 27.67 2.19 42.44 8.40 54.74
  Q 16.39 70.58 33.02 86.50
  C 33.16 86.63 33.15 86.62 33.42 86.62"
/>
<path stroke="#4b4c5b" vector-effect="non-scaling-stroke" d="
  M 33.21 44.28
  Q 35.37 44.28 35.58 44.29
  A 0.52 0.52 0.0 0 1 36.10 44.81
  L 36.10 53.92
  A 0.67 0.67 0.0 0 0 36.77 54.59
  L 45.61 54.59
  A 0.67 0.67 0.0 0 0 46.28 53.92
  L 46.28 38.85
  A 0.55 0.55 0.0 0 1 46.83 38.30
  L 50.05 38.30
  A 0.84 0.83 -17.3 0 0 50.74 36.99
  L 45.89 30.00
  A 0.89 0.87 -17.2 0 0 45.17 29.63
  L 41.65 29.63
  A 0.41 0.40 -67.5 0 1 41.37 28.94
  L 43.55 26.76
  A 0.58 0.58 0.0 0 1 44.37 26.76
  L 47.55 29.95
  A 1.05 1.05 0.0 0 0 49.02 29.96
  Q 52.93 26.17 48.39 23.21
  A 0.63 0.63 0.0 0 1 48.26 22.26
  Q 50.31 19.93 51.49 19.12
  C 53.66 17.62 54.12 16.30 53.91 13.91
  A 0.82 0.82 0.0 0 0 53.27 13.19
  C 50.93 12.71 49.43 13.06 47.77 15.24
  Q 46.67 16.69 44.69 18.09
  A 0.65 0.64 -35.3 0 1 43.80 17.94
  C 41.58 14.93 39.09 14.01 36.64 17.49
  A 0.75 0.74 40.5 0 0 36.72 18.45
  L 39.80 21.53
  A 0.57 0.57 0.0 0 1 39.78 22.35
  Q 37.29 24.71 33.53 28.56
  C 33.49 28.61 33.32 28.64 33.23 28.64
  C 33.15 28.63 32.98 28.61 32.94 28.56
  Q 29.19 24.70 26.71 22.33
  A 0.57 0.57 0.0 0 1 26.69 21.51
  L 29.78 18.44
  A 0.75 0.74 -40.3 0 0 29.87 17.48
  C 27.43 13.99 24.94 14.90 22.71 17.90
  A 0.65 0.64 35.5 0 1 21.82 18.05
  Q 19.84 16.64 18.75 15.19
  C 17.09 13.00 15.59 12.65 13.25 13.12
  A 0.82 0.82 0.0 0 0 12.61 13.84
  C 12.39 16.23 12.85 17.55 15.01 19.06
  Q 16.19 19.87 18.23 22.21
  A 0.63 0.63 0.0 0 1 18.10 23.16
  Q 13.55 26.10 17.45 29.91
  A 1.05 1.05 0.0 0 0 18.92 29.90
  L 22.11 26.72
  A 0.58 0.58 0.0 0 1 22.93 26.72
  L 25.10 28.91
  A 0.41 0.40 67.6 0 1 24.82 29.60
  L 21.30 29.59
  A 0.89 0.87 17.4 0 0 20.58 29.96
  L 15.70 36.93
  A 0.84 0.83 17.5 0 0 16.39 38.24
  L 19.61 38.25
  A 0.55 0.55 0.0 0 1 20.15 38.81
  L 20.10 53.88
  A 0.67 0.67 0.0 0 0 20.77 54.55
  L 29.61 54.58
  A 0.67 0.67 0.0 0 0 30.28 53.91
  L 30.31 44.80
  A 0.52 0.52 0.0 0 1 30.83 44.28
  Q 31.05 44.28 33.21 44.28"
/>
<path stroke="#999aa1" vector-effect="non-scaling-stroke" d="
  M 28.84 29.75
  L 31.32 29.75
  A 0.36 0.36 0.0 0 0 31.58 29.14
  L 24.92 22.48
  A 0.74 0.74 0.0 0 1 24.92 21.44
  L 27.75 18.61
  A 1.08 1.08 0.0 0 0 27.39 16.84
  L 27.05 16.71
  A 1.74 1.73 -61.7 0 0 24.97 17.34
  L 23.15 19.95
  A 0.64 0.64 0.0 0 1 22.27 20.12
  Q 18.85 17.82 16.57 14.73
  A 1.04 1.04 0.0 0 0 15.73 14.30
  L 14.20 14.30
  A 0.42 0.42 0.0 0 0 13.79 14.80
  Q 14.13 16.54 14.47 16.79
  Q 17.53 19.02 20.09 22.22
  A 0.72 0.71 48.2 0 1 20.04 23.17
  L 17.35 25.86
  A 1.30 1.29 45.2 0 0 17.35 27.69
  L 17.93 28.27
  A 0.49 0.48 44.6 0 0 18.62 28.27
  L 22.06 24.83
  A 0.61 0.61 0.0 0 1 22.92 24.83
  L 27.13 29.04
  A 2.43 2.41 67.4 0 0 28.84 29.75"
/>
<path stroke="#999aa1" vector-effect="non-scaling-stroke" d="
  M 37.70 29.78
  A 2.43 2.41 -67.4 0 0 39.41 29.07
  L 43.62 24.86
  A 0.61 0.61 0.0 0 1 44.48 24.86
  L 47.92 28.30
  A 0.49 0.48 -44.6 0 0 48.61 28.30
  L 49.19 27.72
  A 1.30 1.29 -45.2 0 0 49.19 25.89
  L 46.50 23.20
  A 0.72 0.71 -48.2 0 1 46.45 22.25
  Q 49.01 19.06 52.07 16.83
  Q 52.41 16.58 52.75 14.84
  A 0.42 0.42 0.0 0 0 52.34 14.34
  L 50.81 14.34
  A 1.04 1.04 0.0 0 0 49.97 14.77
  Q 47.69 17.86 44.27 20.15
  A 0.64 0.64 0.0 0 1 43.39 19.98
  L 41.57 17.37
  A 1.74 1.73 61.8 0 0 39.49 16.74
  L 39.15 16.87
  A 1.08 1.08 0.0 0 0 38.79 18.64
  L 41.62 21.47
  A 0.74 0.74 0.0 0 1 41.62 22.51
  L 34.96 29.17
  A 0.36 0.36 0.0 0 0 35.22 29.78
  L 37.70 29.78"
/>
<path stroke="#999aa1" vector-effect="non-scaling-stroke" d="
  M 44.85 31.14
  A 0.37 0.37 0.0 0 0 44.55 30.98
  L 21.72 30.98
  A 0.37 0.37 0.0 0 0 21.40 31.16
  L 18.48 36.22
  A 0.37 0.37 0.0 0 0 18.80 36.78
  L 48.05 36.78
  A 0.37 0.37 0.0 0 0 48.36 36.20
  L 44.85 31.14"
/>
<path stroke="#999aa1" vector-effect="non-scaling-stroke" d="
  M 33.39 42.77
  Q 36.55 42.77 37.15 42.83
  A 0.68 0.67 2.9 0 1 37.76 43.50
  L 37.76 52.73
  A 0.50 0.49 90.0 0 0 38.25 53.23
  L 44.51 53.23
  A 0.53 0.52 -90.0 0 0 45.03 52.70
  L 45.03 38.61
  A 0.33 0.33 0.0 0 0 44.71 38.28
  Q 43.82 38.25 33.39 38.25
  Q 22.97 38.25 22.08 38.27
  A 0.33 0.33 0.0 0 0 21.76 38.60
  L 21.75 52.69
  A 0.53 0.52 -90.0 0 0 22.27 53.22
  L 28.53 53.23
  A 0.50 0.49 -90.0 0 0 29.02 52.73
  L 29.03 43.50
  A 0.68 0.67 -2.8 0 1 29.64 42.83
  Q 30.24 42.76 33.39 42.77"
/>
</g>
<path fill="#333443" d="
  M 33.81 88.00
  L 33.04 88.00
  C 21.75 77.75 12.13 65.68 5.65 51.56
  Q 2.19 44.03 1.60 34.89
  C 0.55 18.96 11.20 5.68 26.49 2.10
  Q 36.67 -0.28 46.95 4.27
  Q 57.15 8.79 62.45 19.42
  C 67.05 28.67 65.93 40.25 62.13 49.58
  C 56.15 64.26 45.45 77.37 33.81 88.00
  Z
  M 33.42 86.62
  C 33.69 86.62 33.68 86.63 33.82 86.50
  Q 50.48 70.61 58.50 54.78
  C 64.73 42.49 67.28 27.72 59.13 16.08
  Q 50.24 3.39 34.50 2.50
  Q 33.59 2.45 33.49 2.45
  Q 33.39 2.45 32.48 2.50
  Q 16.74 3.36 7.83 16.04
  C -0.34 27.67 2.19 42.44 8.40 54.74
  Q 16.39 70.58 33.02 86.50
  C 33.16 86.63 33.15 86.62 33.42 86.62
  Z"
/>
<path fill="#636373" d="
  M 33.49 2.45
  Q 33.59 2.45 34.50 2.50
  Q 50.24 3.39 59.13 16.08
  C 67.28 27.72 64.73 42.49 58.50 54.78
  Q 50.48 70.61 33.82 86.50
  C 33.68 86.63 33.69 86.62 33.42 86.62
  C 33.15 86.62 33.16 86.63 33.02 86.50
  Q 16.39 70.58 8.40 54.74
  C 2.19 42.44 -0.34 27.67 7.83 16.04
  Q 16.74 3.36 32.48 2.50
  Q 33.39 2.45 33.49 2.45
  Z
  M 33.21 44.28
  Q 35.37 44.28 35.58 44.29
  A 0.52 0.52 0.0 0 1 36.10 44.81
  L 36.10 53.92
  A 0.67 0.67 0.0 0 0 36.77 54.59
  L 45.61 54.59
  A 0.67 0.67 0.0 0 0 46.28 53.92
  L 46.28 38.85
  A 0.55 0.55 0.0 0 1 46.83 38.30
  L 50.05 38.30
  A 0.84 0.83 -17.3 0 0 50.74 36.99
  L 45.89 30.00
  A 0.89 0.87 -17.2 0 0 45.17 29.63
  L 41.65 29.63
  A 0.41 0.40 -67.5 0 1 41.37 28.94
  L 43.55 26.76
  A 0.58 0.58 0.0 0 1 44.37 26.76
  L 47.55 29.95
  A 1.05 1.05 0.0 0 0 49.02 29.96
  Q 52.93 26.17 48.39 23.21
  A 0.63 0.63 0.0 0 1 48.26 22.26
  Q 50.31 19.93 51.49 19.12
  C 53.66 17.62 54.12 16.30 53.91 13.91
  A 0.82 0.82 0.0 0 0 53.27 13.19
  C 50.93 12.71 49.43 13.06 47.77 15.24
  Q 46.67 16.69 44.69 18.09
  A 0.65 0.64 -35.3 0 1 43.80 17.94
  C 41.58 14.93 39.09 14.01 36.64 17.49
  A 0.75 0.74 40.5 0 0 36.72 18.45
  L 39.80 21.53
  A 0.57 0.57 0.0 0 1 39.78 22.35
  Q 37.29 24.71 33.53 28.56
  C 33.49 28.61 33.32 28.64 33.23 28.64
  C 33.15 28.63 32.98 28.61 32.94 28.56
  Q 29.19 24.70 26.71 22.33
  A 0.57 0.57 0.0 0 1 26.69 21.51
  L 29.78 18.44
  A 0.75 0.74 -40.3 0 0 29.87 17.48
  C 27.43 13.99 24.94 14.90 22.71 17.90
  A 0.65 0.64 35.5 0 1 21.82 18.05
  Q 19.84 16.64 18.75 15.19
  C 17.09 13.00 15.59 12.65 13.25 13.12
  A 0.82 0.82 0.0 0 0 12.61 13.84
  C 12.39 16.23 12.85 17.55 15.01 19.06
  Q 16.19 19.87 18.23 22.21
  A 0.63 0.63 0.0 0 1 18.10 23.16
  Q 13.55 26.10 17.45 29.91
  A 1.05 1.05 0.0 0 0 18.92 29.90
  L 22.11 26.72
  A 0.58 0.58 0.0 0 1 22.93 26.72
  L 25.10 28.91
  A 0.41 0.40 67.6 0 1 24.82 29.60
  L 21.30 29.59
  A 0.89 0.87 17.4 0 0 20.58 29.96
  L 15.70 36.93
  A 0.84 0.83 17.5 0 0 16.39 38.24
  L 19.61 38.25
  A 0.55 0.55 0.0 0 1 20.15 38.81
  L 20.10 53.88
  A 0.67 0.67 0.0 0 0 20.77 54.55
  L 29.61 54.58
  A 0.67 0.67 0.0 0 0 30.28 53.91
  L 30.31 44.80
  A 0.52 0.52 0.0 0 1 30.83 44.28
  Q 31.05 44.28 33.21 44.28
  Z"
/>
<path fill="#333443" d="
  M 33.23 28.64
  C 33.32 28.64 33.49 28.61 33.53 28.56
  Q 37.29 24.71 39.78 22.35
  A 0.57 0.57 0.0 0 0 39.80 21.53
  L 36.72 18.45
  A 0.75 0.74 40.5 0 1 36.64 17.49
  C 39.09 14.01 41.58 14.93 43.80 17.94
  A 0.65 0.64 -35.3 0 0 44.69 18.09
  Q 46.67 16.69 47.77 15.24
  C 49.43 13.06 50.93 12.71 53.27 13.19
  A 0.82 0.82 0.0 0 1 53.91 13.91
  C 54.12 16.30 53.66 17.62 51.49 19.12
  Q 50.31 19.93 48.26 22.26
  A 0.63 0.63 0.0 0 0 48.39 23.21
  Q 52.93 26.17 49.02 29.96
  A 1.05 1.05 0.0 0 1 47.55 29.95
  L 44.37 26.76
  A 0.58 0.58 0.0 0 0 43.55 26.76
  L 41.37 28.94
  A 0.41 0.40 -67.5 0 0 41.65 29.63
  L 45.17 29.63
  A 0.89 0.87 -17.2 0 1 45.89 30.00
  L 50.74 36.99
  A 0.84 0.83 -17.3 0 1 50.05 38.30
  L 46.83 38.30
  A 0.55 0.55 0.0 0 0 46.28 38.85
  L 46.28 53.92
  A 0.67 0.67 0.0 0 1 45.61 54.59
  L 36.77 54.59
  A 0.67 0.67 0.0 0 1 36.10 53.92
  L 36.10 44.81
  A 0.52 0.52 0.0 0 0 35.58 44.29
  Q 35.37 44.28 33.21 44.28
  Q 31.05 44.28 30.83 44.28
  A 0.52 0.52 0.0 0 0 30.31 44.80
  L 30.28 53.91
  A 0.67 0.67 0.0 0 1 29.61 54.58
  L 20.77 54.55
  A 0.67 0.67 0.0 0 1 20.10 53.88
  L 20.15 38.81
  A 0.55 0.55 0.0 0 0 19.61 38.25
  L 16.39 38.24
  A 0.84 0.83 17.5 0 1 15.70 36.93
  L 20.58 29.96
  A 0.89 0.87 17.4 0 1 21.30 29.59
  L 24.82 29.60
  A 0.41 0.40 67.6 0 0 25.10 28.91
  L 22.93 26.72
  A 0.58 0.58 0.0 0 0 22.11 26.72
  L 18.92 29.90
  A 1.05 1.05 0.0 0 1 17.45 29.91
  Q 13.55 26.10 18.10 23.16
  A 0.63 0.63 0.0 0 0 18.23 22.21
  Q 16.19 19.87 15.01 19.06
  C 12.85 17.55 12.39 16.23 12.61 13.84
  A 0.82 0.82 0.0 0 1 13.25 13.12
  C 15.59 12.65 17.09 13.00 18.75 15.19
  Q 19.84 16.64 21.82 18.05
  A 0.65 0.64 35.5 0 0 22.71 17.90
  C 24.94 14.90 27.43 13.99 29.87 17.48
  A 0.75 0.74 -40.3 0 1 29.78 18.44
  L 26.69 21.51
  A 0.57 0.57 0.0 0 0 26.71 22.33
  Q 29.19 24.70 32.94 28.56
  C 32.98 28.61 33.15 28.63 33.23 28.64
  Z
  M 28.84 29.75
  L 31.32 29.75
  A 0.36 0.36 0.0 0 0 31.58 29.14
  L 24.92 22.48
  A 0.74 0.74 0.0 0 1 24.92 21.44
  L 27.75 18.61
  A 1.08 1.08 0.0 0 0 27.39 16.84
  L 27.05 16.71
  A 1.74 1.73 -61.7 0 0 24.97 17.34
  L 23.15 19.95
  A 0.64 0.64 0.0 0 1 22.27 20.12
  Q 18.85 17.82 16.57 14.73
  A 1.04 1.04 0.0 0 0 15.73 14.30
  L 14.20 14.30
  A 0.42 0.42 0.0 0 0 13.79 14.80
  Q 14.13 16.54 14.47 16.79
  Q 17.53 19.02 20.09 22.22
  A 0.72 0.71 48.2 0 1 20.04 23.17
  L 17.35 25.86
  A 1.30 1.29 45.2 0 0 17.35 27.69
  L 17.93 28.27
  A 0.49 0.48 44.6 0 0 18.62 28.27
  L 22.06 24.83
  A 0.61 0.61 0.0 0 1 22.92 24.83
  L 27.13 29.04
  A 2.43 2.41 67.4 0 0 28.84 29.75
  Z
  M 37.70 29.78
  A 2.43 2.41 -67.4 0 0 39.41 29.07
  L 43.62 24.86
  A 0.61 0.61 0.0 0 1 44.48 24.86
  L 47.92 28.30
  A 0.49 0.48 -44.6 0 0 48.61 28.30
  L 49.19 27.72
  A 1.30 1.29 -45.2 0 0 49.19 25.89
  L 46.50 23.20
  A 0.72 0.71 -48.2 0 1 46.45 22.25
  Q 49.01 19.06 52.07 16.83
  Q 52.41 16.58 52.75 14.84
  A 0.42 0.42 0.0 0 0 52.34 14.34
  L 50.81 14.34
  A 1.04 1.04 0.0 0 0 49.97 14.77
  Q 47.69 17.86 44.27 20.15
  A 0.64 0.64 0.0 0 1 43.39 19.98
  L 41.57 17.37
  A 1.74 1.73 61.8 0 0 39.49 16.74
  L 39.15 16.87
  A 1.08 1.08 0.0 0 0 38.79 18.64
  L 41.62 21.47
  A 0.74 0.74 0.0 0 1 41.62 22.51
  L 34.96 29.17
  A 0.36 0.36 0.0 0 0 35.22 29.78
  L 37.70 29.78
  Z
  M 44.85 31.14
  A 0.37 0.37 0.0 0 0 44.55 30.98
  L 21.72 30.98
  A 0.37 0.37 0.0 0 0 21.40 31.16
  L 18.48 36.22
  A 0.37 0.37 0.0 0 0 18.80 36.78
  L 48.05 36.78
  A 0.37 0.37 0.0 0 0 48.36 36.20
  L 44.85 31.14
  Z
  M 33.39 42.77
  Q 36.55 42.77 37.15 42.83
  A 0.68 0.67 2.9 0 1 37.76 43.50
  L 37.76 52.73
  A 0.50 0.49 90.0 0 0 38.25 53.23
  L 44.51 53.23
  A 0.53 0.52 -90.0 0 0 45.03 52.70
  L 45.03 38.61
  A 0.33 0.33 0.0 0 0 44.71 38.28
  Q 43.82 38.25 33.39 38.25
  Q 22.97 38.25 22.08 38.27
  A 0.33 0.33 0.0 0 0 21.76 38.60
  L 21.75 52.69
  A 0.53 0.52 -90.0 0 0 22.27 53.22
  L 28.53 53.23
  A 0.50 0.49 -90.0 0 0 29.02 52.73
  L 29.03 43.50
  A 0.68 0.67 -2.8 0 1 29.64 42.83
  Q 30.24 42.76 33.39 42.77
  Z"
/>
<path fill="#ffffff" d="
  M 28.84 29.75
  A 2.43 2.41 67.4 0 1 27.13 29.04
  L 22.92 24.83
  A 0.61 0.61 0.0 0 0 22.06 24.83
  L 18.62 28.27
  A 0.49 0.48 44.6 0 1 17.93 28.27
  L 17.35 27.69
  A 1.30 1.29 45.2 0 1 17.35 25.86
  L 20.04 23.17
  A 0.72 0.71 48.2 0 0 20.09 22.22
  Q 17.53 19.02 14.47 16.79
  Q 14.13 16.54 13.79 14.80
  A 0.42 0.42 0.0 0 1 14.20 14.30
  L 15.73 14.30
  A 1.04 1.04 0.0 0 1 16.57 14.73
  Q 18.85 17.82 22.27 20.12
  A 0.64 0.64 0.0 0 0 23.15 19.95
  L 24.97 17.34
  A 1.74 1.73 -61.7 0 1 27.05 16.71
  L 27.39 16.84
  A 1.08 1.08 0.0 0 1 27.75 18.61
  L 24.92 21.44
  A 0.74 0.74 0.0 0 0 24.92 22.48
  L 31.58 29.14
  A 0.36 0.36 0.0 0 1 31.32 29.75
  L 28.84 29.75
  Z"
/>
<path fill="#ffffff" d="
  M 34.96 29.17
  L 41.62 22.51
  A 0.74 0.74 0.0 0 0 41.62 21.47
  L 38.79 18.64
  A 1.08 1.08 0.0 0 1 39.15 16.87
  L 39.49 16.74
  A 1.74 1.73 61.8 0 1 41.57 17.37
  L 43.39 19.98
  A 0.64 0.64 0.0 0 0 44.27 20.15
  Q 47.69 17.86 49.97 14.77
  A 1.04 1.04 0.0 0 1 50.81 14.34
  L 52.34 14.34
  A 0.42 0.42 0.0 0 1 52.75 14.84
  Q 52.41 16.58 52.07 16.83
  Q 49.01 19.06 46.45 22.25
  A 0.72 0.71 -48.2 0 0 46.50 23.20
  L 49.19 25.89
  A 1.30 1.29 -45.2 0 1 49.19 27.72
  L 48.61 28.30
  A 0.49 0.48 -44.6 0 1 47.92 28.30
  L 44.48 24.86
  A 0.61 0.61 0.0 0 0 43.62 24.86
  L 39.41 29.07
  A 2.43 2.41 -67.4 0 1 37.70 29.78
  L 35.22 29.78
  A 0.36 0.36 0.0 0 1 34.96 29.17
  Z"
/>
<path fill="#ffffff" d="
  M 44.85 31.14
  L 48.36 36.20
  A 0.37 0.37 0.0 0 1 48.05 36.78
  L 18.80 36.78
  A 0.37 0.37 0.0 0 1 18.48 36.22
  L 21.40 31.16
  A 0.37 0.37 0.0 0 1 21.72 30.98
  L 44.55 30.98
  A 0.37 0.37 0.0 0 1 44.85 31.14
  Z"
/>
<path fill="#ffffff" d="
  M 33.39 38.25
  Q 43.82 38.25 44.71 38.28
  A 0.33 0.33 0.0 0 1 45.03 38.61
  L 45.03 52.70
  A 0.53 0.52 90.0 0 1 44.51 53.23
  L 38.25 53.23
  A 0.50 0.49 -90.0 0 1 37.76 52.73
  L 37.76 43.50
  A 0.68 0.67 2.9 0 0 37.15 42.83
  Q 36.55 42.77 33.39 42.77
  Q 30.24 42.76 29.64 42.83
  A 0.68 0.67 -2.8 0 0 29.03 43.50
  L 29.02 52.73
  A 0.50 0.49 -90.0 0 1 28.53 53.23
  L 22.27 53.22
  A 0.53 0.52 -90.0 0 1 21.75 52.69
  L 21.76 38.60
  A 0.33 0.33 0.0 0 1 22.08 38.27
  Q 22.97 38.25 33.39 38.25
  Z"
/>
</svg>
