<?xml version="1.0" encoding="UTF-8" standalone="no"?>
<!DOCTYPE svg PUBLIC "-//W3C//DTD SVG 1.1//EN" "http://www.w3.org/Graphics/SVG/1.1/DTD/svg11.dtd">
<svg xmlns="http://www.w3.org/2000/svg" version="1.1" viewBox="0.00 0.00 66.00 88.00">
<g stroke-width="2.00" fill="none" stroke-linecap="butt">
<path stroke="#496d97" vector-effect="non-scaling-stroke" d="
  M 33.40 86.73
  Q 33.51 86.73 33.65 86.60
  Q 47.47 73.79 56.49 58.51
  C 63.84 46.06 68.24 29.12 59.30 16.26
  C 53.38 7.73 44.17 2.46 33.52 2.45
  C 22.86 2.43 13.64 7.67 7.69 16.19
  C -1.28 29.02 3.07 45.98 10.39 58.45
  Q 19.36 73.75 33.15 86.60
  Q 33.29 86.73 33.40 86.73"
/>
<path stroke="#4b6385" vector-effect="non-scaling-stroke" d="
  M 34.15 19.33
  L 38.88 26.74
  A 4.19 4.18 -40.3 0 1 38.46 31.79
  C 35.96 34.78 33.22 36.65 32.63 42.03
  A 0.77 0.76 -58.4 0 0 32.75 42.56
  L 35.65 47.15
  A 1.50 1.49 83.1 0 0 36.42 47.76
  L 42.01 49.74
  A 2.52 2.52 0.0 0 0 43.67 49.74
  L 48.97 47.88
  A 2.72 2.70 5.9 0 0 50.37 46.75
  L 52.85 42.76
  A 1.43 1.40 55.7 0 0 53.03 41.74
  C 51.97 36.21 50.10 34.71 46.65 31.06
  A 1.17 1.14 -59.4 0 1 46.38 29.95
  Q 46.60 29.16 46.44 27.29
  A 1.85 1.84 61.6 0 1 46.83 25.97
  L 51.68 19.81
  A 0.33 0.33 0.0 0 0 51.39 19.28
  L 45.79 19.92
  A 1.12 1.12 0.0 0 1 44.82 19.53
  Q 43.90 18.43 42.78 17.78
  A 0.58 0.57 -60.1 0 0 41.99 18.00
  C 40.39 20.82 37.07 19.04 34.46 18.82
  A 0.33 0.33 0.0 0 0 34.15 19.33"
/>
<path stroke="#4b6385" vector-effect="non-scaling-stroke" d="
  M 34.66 26.98
  L 29.75 24.88
  A 1.22 1.21 -76.4 0 1 29.01 23.66
  Q 29.26 20.24 26.03 20.12
  Q 22.14 19.97 15.77 20.10
  Q 12.83 20.16 12.81 22.81
  Q 12.74 35.23 12.74 40.74
  Q 12.74 43.07 15.12 44.12
  Q 24.45 48.25 25.44 48.60
  Q 27.63 49.38 28.71 46.96
  Q 33.74 35.65 35.98 30.22
  A 2.49 2.49 0.0 0 0 34.66 26.98"
/>
<path stroke="#989aa1" vector-effect="non-scaling-stroke" d="
  M 48.27 20.92
  Q 46.51 20.81 45.84 21.28
  A 0.63 0.62 -43.2 0 1 45.10 21.26
  L 43.06 19.65
  A 0.68 0.67 -50.9 0 0 42.13 19.75
  Q 40.37 21.83 36.94 20.47
  A 0.10 0.10 0.0 0 0 36.82 20.61
  L 39.63 25.49
  A 1.08 1.07 75.0 0 0 40.56 26.03
  L 44.62 26.03
  A 1.17 1.17 0.0 0 0 45.54 25.58
  L 48.61 21.68
  A 0.47 0.47 0.0 0 0 48.27 20.92"
/>
<path stroke="#989aa1" vector-effect="non-scaling-stroke" d="
  M 45.1708 28.2723
  A 0.63 0.63 0.0 0 0 44.5496 27.6335
  L 41.1899 27.5866
  A 0.63 0.63 0.0 0 0 40.5512 28.2078
  L 40.5492 28.3477
  A 0.63 0.63 0.0 0 0 41.1704 28.9865
  L 44.5301 29.0334
  A 0.63 0.63 0.0 0 0 45.1688 28.4122
  L 45.1708 28.2723"
/>
<path stroke="#989aa1" vector-effect="non-scaling-stroke" d="
  M 42.81 48.53
  Q 43.00 48.53 43.01 48.53
  Q 45.62 47.67 48.23 46.73
  A 1.87 1.87 0.0 0 0 49.17 45.97
  L 51.48 42.31
  A 1.15 1.15 0.0 0 0 51.64 41.42
  C 50.53 36.50 48.39 34.95 45.34 31.54
  A 1.57 1.55 -17.4 0 0 44.37 31.04
  Q 43.68 30.96 42.97 30.96
  Q 42.27 30.95 41.57 31.02
  A 1.57 1.55 18.4 0 0 40.59 31.50
  C 37.48 34.85 35.32 36.36 34.12 41.26
  A 1.15 1.15 0.0 0 0 34.26 42.15
  L 36.50 45.86
  A 1.87 1.87 0.0 0 0 37.43 46.63
  Q 40.02 47.62 42.62 48.52
  Q 42.63 48.53 42.81 48.53"
/>
<path stroke="#989aa1" vector-effect="non-scaling-stroke" d="
  M 14.17 40.13
  L 21.07 24.01
  A 2.61 2.60 16.2 0 1 23.90 22.46
  Q 25.36 22.71 27.25 23.89
  A 0.47 0.47 0.0 0 0 27.97 23.57
  C 28.27 21.79 27.58 20.90 25.69 20.88
  Q 21.47 20.84 15.34 20.91
  A 1.52 1.51 89.8 0 0 13.84 22.43
  L 13.84 40.06
  A 0.17 0.17 0.0 0 0 14.17 40.13"
/>
<path stroke="#989aa1" vector-effect="non-scaling-stroke" d="
  M 35.1576 30.0562
  A 1.63 1.63 0.0 0 0 34.3239 27.9070
  L 24.5888 23.6133
  A 1.63 1.63 0.0 0 0 22.4396 24.4469
  L 15.0224 41.2638
  A 1.63 1.63 0.0 0 0 15.8561 43.4130
  L 25.5912 47.7067
  A 1.63 1.63 0.0 0 0 27.7404 46.8731
  L 35.1576 30.0562"
/>
</g>
<path fill="#2d4966" d="
  M 33.80 88.00
  L 33.03 88.00
  C 21.72 77.71 12.19 65.75 5.68 51.55
  Q 2.14 43.84 1.58 34.90
  C 0.37 15.47 16.96 -0.52 36.67 1.49
  C 53.31 3.18 66.10 17.15 65.46 33.91
  Q 65.17 41.59 62.40 48.84
  C 56.70 63.73 45.50 77.34 33.80 88.00
  Z
  M 33.40 86.73
  Q 33.51 86.73 33.65 86.60
  Q 47.47 73.79 56.49 58.51
  C 63.84 46.06 68.24 29.12 59.30 16.26
  C 53.38 7.73 44.17 2.46 33.52 2.45
  C 22.86 2.43 13.64 7.67 7.69 16.19
  C -1.28 29.02 3.07 45.98 10.39 58.45
  Q 19.36 73.75 33.15 86.60
  Q 33.29 86.73 33.40 86.73
  Z"
/>
<path fill="#6591c7" d="
  M 33.52 2.45
  C 44.17 2.46 53.38 7.73 59.30 16.26
  C 68.24 29.12 63.84 46.06 56.49 58.51
  Q 47.47 73.79 33.65 86.60
  Q 33.51 86.73 33.40 86.73
  Q 33.29 86.73 33.15 86.60
  Q 19.36 73.75 10.39 58.45
  C 3.07 45.98 -1.28 29.02 7.69 16.19
  C 13.64 7.67 22.86 2.43 33.52 2.45
  Z
  M 34.15 19.33
  L 38.88 26.74
  A 4.19 4.18 -40.3 0 1 38.46 31.79
  C 35.96 34.78 33.22 36.65 32.63 42.03
  A 0.77 0.76 -58.4 0 0 32.75 42.56
  L 35.65 47.15
  A 1.50 1.49 83.1 0 0 36.42 47.76
  L 42.01 49.74
  A 2.52 2.52 0.0 0 0 43.67 49.74
  L 48.97 47.88
  A 2.72 2.70 5.9 0 0 50.37 46.75
  L 52.85 42.76
  A 1.43 1.40 55.7 0 0 53.03 41.74
  C 51.97 36.21 50.10 34.71 46.65 31.06
  A 1.17 1.14 -59.4 0 1 46.38 29.95
  Q 46.60 29.16 46.44 27.29
  A 1.85 1.84 61.6 0 1 46.83 25.97
  L 51.68 19.81
  A 0.33 0.33 0.0 0 0 51.39 19.28
  L 45.79 19.92
  A 1.12 1.12 0.0 0 1 44.82 19.53
  Q 43.90 18.43 42.78 17.78
  A 0.58 0.57 -60.1 0 0 41.99 18.00
  C 40.39 20.82 37.07 19.04 34.46 18.82
  A 0.33 0.33 0.0 0 0 34.15 19.33
  Z
  M 34.66 26.98
  L 29.75 24.88
  A 1.22 1.21 -76.4 0 1 29.01 23.66
  Q 29.26 20.24 26.03 20.12
  Q 22.14 19.97 15.77 20.10
  Q 12.83 20.16 12.81 22.81
  Q 12.74 35.23 12.74 40.74
  Q 12.74 43.07 15.12 44.12
  Q 24.45 48.25 25.44 48.60
  Q 27.63 49.38 28.71 46.96
  Q 33.74 35.65 35.98 30.22
  A 2.49 2.49 0.0 0 0 34.66 26.98
  Z"
/>
<path fill="#313443" d="
  M 34.46 18.82
  C 37.07 19.04 40.39 20.82 41.99 18.00
  A 0.58 0.57 -60.1 0 1 42.78 17.78
  Q 43.90 18.43 44.82 19.53
  A 1.12 1.12 0.0 0 0 45.79 19.92
  L 51.39 19.28
  A 0.33 0.33 0.0 0 1 51.68 19.81
  L 46.83 25.97
  A 1.85 1.84 61.6 0 0 46.44 27.29
  Q 46.60 29.16 46.38 29.95
  A 1.17 1.14 -59.4 0 0 46.65 31.06
  C 50.10 34.71 51.97 36.21 53.03 41.74
  A 1.43 1.40 55.7 0 1 52.85 42.76
  L 50.37 46.75
  A 2.72 2.70 5.9 0 1 48.97 47.88
  L 43.67 49.74
  A 2.52 2.52 0.0 0 1 42.01 49.74
  L 36.42 47.76
  A 1.50 1.49 83.1 0 1 35.65 47.15
  L 32.75 42.56
  A 0.77 0.76 -58.4 0 1 32.63 42.03
  C 33.22 36.65 35.96 34.78 38.46 31.79
  A 4.19 4.18 -40.3 0 0 38.88 26.74
  L 34.15 19.33
  A 0.33 0.33 0.0 0 1 34.46 18.82
  Z
  M 48.27 20.92
  Q 46.51 20.81 45.84 21.28
  A 0.63 0.62 -43.2 0 1 45.10 21.26
  L 43.06 19.65
  A 0.68 0.67 -50.9 0 0 42.13 19.75
  Q 40.37 21.83 36.94 20.47
  A 0.10 0.10 0.0 0 0 36.82 20.61
  L 39.63 25.49
  A 1.08 1.07 75.0 0 0 40.56 26.03
  L 44.62 26.03
  A 1.17 1.17 0.0 0 0 45.54 25.58
  L 48.61 21.68
  A 0.47 0.47 0.0 0 0 48.27 20.92
  Z
  M 45.1708 28.2723
  A 0.63 0.63 0.0 0 0 44.5496 27.6335
  L 41.1899 27.5866
  A 0.63 0.63 0.0 0 0 40.5512 28.2078
  L 40.5492 28.3477
  A 0.63 0.63 0.0 0 0 41.1704 28.9865
  L 44.5301 29.0334
  A 0.63 0.63 0.0 0 0 45.1688 28.4122
  L 45.1708 28.2723
  Z
  M 42.81 48.53
  Q 43.00 48.53 43.01 48.53
  Q 45.62 47.67 48.23 46.73
  A 1.87 1.87 0.0 0 0 49.17 45.97
  L 51.48 42.31
  A 1.15 1.15 0.0 0 0 51.64 41.42
  C 50.53 36.50 48.39 34.95 45.34 31.54
  A 1.57 1.55 -17.4 0 0 44.37 31.04
  Q 43.68 30.96 42.97 30.96
  Q 42.27 30.95 41.57 31.02
  A 1.57 1.55 18.4 0 0 40.59 31.50
  C 37.48 34.85 35.32 36.36 34.12 41.26
  A 1.15 1.15 0.0 0 0 34.26 42.15
  L 36.50 45.86
  A 1.87 1.87 0.0 0 0 37.43 46.63
  Q 40.02 47.62 42.62 48.52
  Q 42.63 48.53 42.81 48.53
  Z"
/>
<path fill="#ffffff" d="
  M 48.61 21.68
  L 45.54 25.58
  A 1.17 1.17 0.0 0 1 44.62 26.03
  L 40.56 26.03
  A 1.08 1.07 75.0 0 1 39.63 25.49
  L 36.82 20.61
  A 0.10 0.10 0.0 0 1 36.94 20.47
  Q 40.37 21.83 42.13 19.75
  A 0.68 0.67 -50.9 0 1 43.06 19.65
  L 45.10 21.26
  A 0.63 0.62 -43.2 0 0 45.84 21.28
  Q 46.51 20.81 48.27 20.92
  A 0.47 0.47 0.0 0 1 48.61 21.68
  Z"
/>
<path fill="#313443" d="
  M 34.66 26.98
  A 2.49 2.49 0.0 0 1 35.98 30.22
  Q 33.74 35.65 28.71 46.96
  Q 27.63 49.38 25.44 48.60
  Q 24.45 48.25 15.12 44.12
  Q 12.74 43.07 12.74 40.74
  Q 12.74 35.23 12.81 22.81
  Q 12.83 20.16 15.77 20.10
  Q 22.14 19.97 26.03 20.12
  Q 29.26 20.24 29.01 23.66
  A 1.22 1.21 -76.4 0 0 29.75 24.88
  L 34.66 26.98
  Z
  M 14.17 40.13
  L 21.07 24.01
  A 2.61 2.60 16.2 0 1 23.90 22.46
  Q 25.36 22.71 27.25 23.89
  A 0.47 0.47 0.0 0 0 27.97 23.57
  C 28.27 21.79 27.58 20.90 25.69 20.88
  Q 21.47 20.84 15.34 20.91
  A 1.52 1.51 89.8 0 0 13.84 22.43
  L 13.84 40.06
  A 0.17 0.17 0.0 0 0 14.17 40.13
  Z
  M 35.1576 30.0562
  A 1.63 1.63 0.0 0 0 34.3239 27.9070
  L 24.5888 23.6133
  A 1.63 1.63 0.0 0 0 22.4396 24.4469
  L 15.0224 41.2638
  A 1.63 1.63 0.0 0 0 15.8561 43.4130
  L 25.5912 47.7067
  A 1.63 1.63 0.0 0 0 27.7404 46.8731
  L 35.1576 30.0562
  Z"
/>
<path fill="#ffffff" d="
  M 13.84 40.06
  L 13.84 22.43
  A 1.52 1.51 89.8 0 1 15.34 20.91
  Q 21.47 20.84 25.69 20.88
  C 27.58 20.90 28.27 21.79 27.97 23.57
  A 0.47 0.47 0.0 0 1 27.25 23.89
  Q 25.36 22.71 23.90 22.46
  A 2.61 2.60 16.2 0 0 21.07 24.01
  L 14.17 40.13
  A 0.17 0.17 0.0 0 1 13.84 40.06
  Z"
/>
<rect fill="#ffffff" x="-6.95" y="-10.82" transform="translate(25.09,35.66) rotate(23.8)" width="13.90" height="21.64" rx="1.63"/>
<rect fill="#ffffff" x="-2.31" y="-0.70" transform="translate(42.86,28.31) rotate(0.8)" width="4.62" height="1.40" rx="0.63"/>
<path fill="#ffffff" d="
  M 42.97 30.96
  Q 43.68 30.96 44.37 31.04
  A 1.57 1.55 -17.4 0 1 45.34 31.54
  C 48.39 34.95 50.53 36.50 51.64 41.42
  A 1.15 1.15 0.0 0 1 51.48 42.31
  L 49.17 45.97
  A 1.87 1.87 0.0 0 1 48.23 46.73
  Q 45.62 47.67 43.01 48.53
  Q 43.00 48.53 42.81 48.53
  Q 42.63 48.53 42.62 48.52
  Q 40.02 47.62 37.43 46.63
  A 1.87 1.87 0.0 0 1 36.50 45.86
  L 34.26 42.15
  A 1.15 1.15 0.0 0 1 34.12 41.26
  C 35.32 36.36 37.48 34.85 40.59 31.50
  A 1.57 1.55 18.4 0 1 41.57 31.02
  Q 42.27 30.95 42.97 30.96
  Z"
/>
</svg>
