<?xml version="1.0" encoding="UTF-8" standalone="no"?>
<!DOCTYPE svg PUBLIC "-//W3C//DTD SVG 1.1//EN" "http://www.w3.org/Graphics/SVG/1.1/DTD/svg11.dtd">
<svg xmlns="http://www.w3.org/2000/svg" version="1.1" viewBox="0.00 0.00 66.00 88.00">
<g stroke-width="2.00" fill="none" stroke-linecap="butt">
<path stroke="#87352b" vector-effect="non-scaling-stroke" d="
  M 33.40 86.71
  Q 33.52 86.71 33.62 86.69
  Q 33.64 86.68 33.76 86.56
  C 44.44 76.53 54.14 64.63 60.16 51.17
  C 65.96 38.21 66.44 23.00 56.06 12.22
  C 50.16 6.09 42.19 2.46 33.52 2.45
  C 24.84 2.44 16.87 6.05 10.94 12.16
  C 0.54 22.91 0.98 38.12 6.74 51.10
  C 12.73 64.57 22.40 76.50 33.05 86.56
  Q 33.17 86.68 33.19 86.69
  Q 33.29 86.71 33.40 86.71"
/>
<path stroke="#763e40" vector-effect="non-scaling-stroke" d="
  M 24.09 24.71
  Q 23.80 24.47 23.67 24.44
  Q 19.17 23.48 12.74 24.49
  A 0.22 0.22 0.0 0 0 12.74 24.92
  Q 16.62 25.63 19.55 28.03
  A 0.50 0.50 0.0 0 1 19.47 28.86
  Q 15.88 30.74 12.36 34.97
  A 0.41 0.41 0.0 0 0 12.78 35.63
  L 17.64 34.36
  A 0.56 0.55 -76.3 0 1 18.19 35.27
  Q 14.86 38.92 12.53 44.26
  A 0.14 0.14 0.0 0 0 12.69 44.46
  L 20.50 42.42
  A 0.37 0.37 0.0 0 1 20.92 42.95
  Q 18.64 47.24 18.41 52.28
  A 0.39 0.39 0.0 0 0 19.08 52.57
  L 24.99 46.67
  A 0.38 0.37 52.2 0 1 25.58 46.75
  L 29.32 53.23
  A 0.25 0.25 0.0 0 0 29.79 53.12
  Q 30.27 46.27 33.22 39.85
  A 1.18 1.15 2.7 0 1 33.92 39.23
  Q 40.46 37.02 48.82 36.62
  A 1.27 1.27 0.0 0 0 49.64 36.25
  Q 52.11 33.69 51.09 31.40
  A 1.76 1.76 0.0 0 1 51.36 29.53
  Q 54.82 25.53 54.17 22.79
  A 0.59 0.59 0.0 0 0 53.55 22.33
  L 41.25 23.32
  A 1.72 1.69 54.9 0 1 40.37 23.16
  Q 36.35 21.29 31.45 21.77
  A 0.98 0.98 0.0 0 1 30.44 21.17
  L 27.74 14.73
  A 0.70 0.70 0.0 0 0 26.49 14.66
  Q 23.95 19.11 24.49 24.50
  A 0.24 0.24 0.0 0 1 24.09 24.71"
/>
<path stroke="#9c9aa2" vector-effect="non-scaling-stroke" d="
  M 40.02 24.77
  Q 38.85 23.34 37.41 23.23
  Q 35.23 23.07 35.11 23.04
  Q 32.83 22.56 30.92 23.10
  A 0.52 0.52 0.0 0 1 30.33 22.86
  L 27.03 17.14
  A 0.21 0.21 0.0 0 0 26.66 17.16
  Q 24.44 22.56 26.73 27.13
  A 0.53 0.53 0.0 0 1 26.53 27.83
  L 25.03 28.70
  A 0.50 0.49 59.7 0 1 24.36 28.52
  L 22.84 25.88
  A 1.22 1.19 74.8 0 0 21.80 25.27
  L 18.29 25.27
  A 0.17 0.17 0.0 0 0 18.19 25.57
  L 21.68 28.22
  A 0.66 0.65 53.6 0 1 21.51 29.36
  Q 18.18 30.59 15.79 33.07
  A 0.30 0.30 0.0 0 0 16.05 33.57
  Q 19.88 32.99 21.95 33.69
  A 0.31 0.31 0.0 0 1 22.01 34.25
  Q 17.31 37.00 15.15 41.83
  A 0.35 0.35 0.0 0 0 15.55 42.31
  Q 19.81 41.26 22.59 41.53
  A 0.44 0.43 -70.6 0 1 22.91 42.20
  Q 20.49 45.87 20.02 49.17
  A 0.30 0.30 0.0 0 0 20.55 49.41
  Q 23.29 46.19 26.52 44.23
  A 1.60 1.59 -8.7 0 0 27.24 43.26
  L 28.66 37.71
  A 0.66 0.66 0.0 0 0 27.69 36.97
  L 23.97 39.12
  A 0.44 0.44 0.0 0 1 23.35 38.54
  L 27.95 29.34
  A 0.68 0.68 0.0 0 1 28.87 29.03
  L 30.14 29.66
  A 0.74 0.73 -63.3 0 1 30.46 30.64
  L 29.01 33.53
  A 0.50 0.50 0.0 0 0 29.46 34.25
  L 31.35 34.25
  A 0.74 0.74 0.0 0 1 32.07 35.17
  L 31.25 38.35
  A 0.30 0.30 0.0 0 0 31.65 38.71
  Q 39.50 35.80 47.93 35.49
  A 1.56 1.55 -62.9 0 0 48.72 35.23
  Q 49.83 34.47 50.00 33.28
  A 0.17 0.16 4.3 0 0 49.83 33.09
  L 49.55 33.09
  A 0.35 0.34 5.0 0 0 49.21 33.37
  Q 49.08 34.02 48.82 34.26
  Q 48.36 34.70 48.06 33.98
  Q 47.85 33.46 47.82 33.44
  A 0.80 0.80 0.0 0 0 46.78 33.54
  L 46.01 34.33
  A 0.52 0.52 0.0 0 1 45.14 34.11
  Q 44.83 33.07 44.27 33.38
  A 0.27 0.19 -9.2 0 0 44.17 33.48
  L 43.57 34.69
  A 0.47 0.47 0.0 0 1 42.95 34.90
  Q 42.50 34.69 42.55 34.11
  A 0.46 0.46 0.0 0 0 41.72 33.79
  L 40.28 35.69
  A 0.31 0.31 0.0 0 1 39.73 35.48
  L 40.13 30.66
  A 1.39 1.37 61.7 0 1 40.30 30.08
  L 42.33 26.40
  A 0.35 0.35 0.0 0 1 42.99 26.57
  L 42.99 27.55
  A 0.43 0.43 0.0 0 0 43.76 27.82
  L 44.89 26.40
  A 0.57 0.56 36.7 0 1 45.66 26.29
  Q 45.83 26.45 45.85 27.28
  A 0.48 0.47 57.4 0 0 46.75 27.48
  L 47.31 26.31
  A 0.48 0.48 0.0 0 1 48.22 26.56
  Q 48.20 26.68 48.37 27.27
  A 0.34 0.33 -34.2 0 0 48.96 27.38
  L 50.10 25.87
  A 0.39 0.39 0.0 0 1 50.75 25.91
  L 51.32 26.88
  A 0.32 0.31 -41.7 0 0 51.85 26.91
  Q 52.79 25.60 52.82 24.34
  A 0.54 0.54 0.0 0 0 52.24 23.78
  L 40.02 24.77"
/>
<path stroke="#9c9aa2" vector-effect="non-scaling-stroke" d="
  M 40.02 24.77
  Q 37.32 23.30 34.32 23.67
  A 0.64 0.64 0.0 0 0 33.84 24.63
  C 35.33 27.19 38.99 29.11 40.02 24.77"
/>
<path stroke="#763e40" vector-effect="non-scaling-stroke" d="
  M 50.4121 28.5188
  A 1.88 0.80 -55.6 0 0 48.6899 29.6180
  A 1.88 0.80 -55.6 0 0 48.2879 31.6212
  A 1.88 0.80 -55.6 0 0 50.0101 30.5220
  A 1.88 0.80 -55.6 0 0 50.4121 28.5188"
/>
<path stroke="#763e40" vector-effect="non-scaling-stroke" d="
  M 44.8397 28.9118
  A 1.83 0.73 -66.5 0 0 43.4405 30.2989
  A 1.83 0.73 -66.5 0 0 43.3803 32.2682
  A 1.83 0.73 -66.5 0 0 44.7795 30.8811
  A 1.83 0.73 -66.5 0 0 44.8397 28.9118"
/>
<path stroke="#763e40" vector-effect="non-scaling-stroke" d="
  M 47.5999 28.9355
  A 1.64 0.69 -59.6 0 0 46.1749 30.0008
  A 1.64 0.69 -59.6 0 0 45.9401 31.7645
  A 1.64 0.69 -59.6 0 0 47.3651 30.6992
  A 1.64 0.69 -59.6 0 0 47.5999 28.9355"
/>
<path stroke="#763e40" vector-effect="non-scaling-stroke" d="
  M 42.6123 29.3948
  A 1.41 0.57 -62.9 0 0 41.4626 30.3903
  A 1.41 0.57 -62.9 0 0 41.3277 31.9052
  A 1.41 0.57 -62.9 0 0 42.4774 30.9097
  A 1.41 0.57 -62.9 0 0 42.6123 29.3948"
/>
<path stroke="#763e40" vector-effect="non-scaling-stroke" d="
  M 29.25 41.24
  A 0.44 0.44 0.0 0 0 29.84 41.72
  Q 30.20 41.57 30.07 41.02
  Q 29.98 40.63 29.58 40.73
  Q 29.32 40.80 29.25 41.24"
/>
<path stroke="#9c9aa2" vector-effect="non-scaling-stroke" d="
  M 28.85 49.47
  L 30.57 42.77
  A 0.10 0.10 0.0 0 0 30.42 42.66
  L 27.80 44.17
  A 1.30 1.29 67.8 0 0 27.20 45.62
  L 28.20 49.47
  A 0.34 0.33 44.9 0 0 28.85 49.47"
/>
<path stroke="#763e40" vector-effect="non-scaling-stroke" d="
  M 37.70 25.17
  Q 37.53 25.10 36.57 25.09
  A 0.28 0.28 0.0 0 0 36.41 25.61
  Q 36.87 25.91 37.59 25.85
  A 0.36 0.35 54.5 0 0 37.70 25.17"
/>
</g>
<path fill="#5b221b" d="
  M 33.82 88.00
  L 33.15 88.00
  Q 15.61 72.48 6.00 52.51
  Q 2.31 44.84 1.62 35.22
  Q 0.94 25.66 5.27 17.98
  C 18.00 -4.60 50.63 -4.33 62.46 19.46
  C 67.04 28.65 65.92 40.28 62.13 49.57
  C 56.13 64.27 45.47 77.35 33.82 88.00
  Z
  M 33.40 86.71
  Q 33.52 86.71 33.62 86.69
  Q 33.64 86.68 33.76 86.56
  C 44.44 76.53 54.14 64.63 60.16 51.17
  C 65.96 38.21 66.44 23.00 56.06 12.22
  C 50.16 6.09 42.19 2.46 33.52 2.45
  C 24.84 2.44 16.87 6.05 10.94 12.16
  C 0.54 22.91 0.98 38.12 6.74 51.10
  C 12.73 64.57 22.40 76.50 33.05 86.56
  Q 33.17 86.68 33.19 86.69
  Q 33.29 86.71 33.40 86.71
  Z"
/>
<path fill="#b3473b" d="
  M 33.52 2.45
  C 42.19 2.46 50.16 6.09 56.06 12.22
  C 66.44 23.00 65.96 38.21 60.16 51.17
  C 54.14 64.63 44.44 76.53 33.76 86.56
  Q 33.64 86.68 33.62 86.69
  Q 33.52 86.71 33.40 86.71
  Q 33.29 86.71 33.19 86.69
  Q 33.17 86.68 33.05 86.56
  C 22.40 76.50 12.73 64.57 6.74 51.10
  C 0.98 38.12 0.54 22.91 10.94 12.16
  C 16.87 6.05 24.84 2.44 33.52 2.45
  Z
  M 24.09 24.71
  Q 23.80 24.47 23.67 24.44
  Q 19.17 23.48 12.74 24.49
  A 0.22 0.22 0.0 0 0 12.74 24.92
  Q 16.62 25.63 19.55 28.03
  A 0.50 0.50 0.0 0 1 19.47 28.86
  Q 15.88 30.74 12.36 34.97
  A 0.41 0.41 0.0 0 0 12.78 35.63
  L 17.64 34.36
  A 0.56 0.55 -76.3 0 1 18.19 35.27
  Q 14.86 38.92 12.53 44.26
  A 0.14 0.14 0.0 0 0 12.69 44.46
  L 20.50 42.42
  A 0.37 0.37 0.0 0 1 20.92 42.95
  Q 18.64 47.24 18.41 52.28
  A 0.39 0.39 0.0 0 0 19.08 52.57
  L 24.99 46.67
  A 0.38 0.37 52.2 0 1 25.58 46.75
  L 29.32 53.23
  A 0.25 0.25 0.0 0 0 29.79 53.12
  Q 30.27 46.27 33.22 39.85
  A 1.18 1.15 2.7 0 1 33.92 39.23
  Q 40.46 37.02 48.82 36.62
  A 1.27 1.27 0.0 0 0 49.64 36.25
  Q 52.11 33.69 51.09 31.40
  A 1.76 1.76 0.0 0 1 51.36 29.53
  Q 54.82 25.53 54.17 22.79
  A 0.59 0.59 0.0 0 0 53.55 22.33
  L 41.25 23.32
  A 1.72 1.69 54.9 0 1 40.37 23.16
  Q 36.35 21.29 31.45 21.77
  A 0.98 0.98 0.0 0 1 30.44 21.17
  L 27.74 14.73
  A 0.70 0.70 0.0 0 0 26.49 14.66
  Q 23.95 19.11 24.49 24.50
  A 0.24 0.24 0.0 0 1 24.09 24.71
  Z"
/>
<path fill="#383544" d="
  M 24.49 24.50
  Q 23.95 19.11 26.49 14.66
  A 0.70 0.70 0.0 0 1 27.74 14.73
  L 30.44 21.17
  A 0.98 0.98 0.0 0 0 31.45 21.77
  Q 36.35 21.29 40.37 23.16
  A 1.72 1.69 54.9 0 0 41.25 23.32
  L 53.55 22.33
  A 0.59 0.59 0.0 0 1 54.17 22.79
  Q 54.82 25.53 51.36 29.53
  A 1.76 1.76 0.0 0 0 51.09 31.40
  Q 52.11 33.69 49.64 36.25
  A 1.27 1.27 0.0 0 1 48.82 36.62
  Q 40.46 37.02 33.92 39.23
  A 1.18 1.15 2.7 0 0 33.22 39.85
  Q 30.27 46.27 29.79 53.12
  A 0.25 0.25 0.0 0 1 29.32 53.23
  L 25.58 46.75
  A 0.38 0.37 52.2 0 0 24.99 46.67
  L 19.08 52.57
  A 0.39 0.39 0.0 0 1 18.41 52.28
  Q 18.64 47.24 20.92 42.95
  A 0.37 0.37 0.0 0 0 20.50 42.42
  L 12.69 44.46
  A 0.14 0.14 0.0 0 1 12.53 44.26
  Q 14.86 38.92 18.19 35.27
  A 0.56 0.55 -76.3 0 0 17.64 34.36
  L 12.78 35.63
  A 0.41 0.41 0.0 0 1 12.36 34.97
  Q 15.88 30.74 19.47 28.86
  A 0.50 0.50 0.0 0 0 19.55 28.03
  Q 16.62 25.63 12.74 24.92
  A 0.22 0.22 0.0 0 1 12.74 24.49
  Q 19.17 23.48 23.67 24.44
  Q 23.80 24.47 24.09 24.71
  A 0.24 0.24 0.0 0 0 24.49 24.50
  Z
  M 40.02 24.77
  Q 38.85 23.34 37.41 23.23
  Q 35.23 23.07 35.11 23.04
  Q 32.83 22.56 30.92 23.10
  A 0.52 0.52 0.0 0 1 30.33 22.86
  L 27.03 17.14
  A 0.21 0.21 0.0 0 0 26.66 17.16
  Q 24.44 22.56 26.73 27.13
  A 0.53 0.53 0.0 0 1 26.53 27.83
  L 25.03 28.70
  A 0.50 0.49 59.7 0 1 24.36 28.52
  L 22.84 25.88
  A 1.22 1.19 74.8 0 0 21.80 25.27
  L 18.29 25.27
  A 0.17 0.17 0.0 0 0 18.19 25.57
  L 21.68 28.22
  A 0.66 0.65 53.6 0 1 21.51 29.36
  Q 18.18 30.59 15.79 33.07
  A 0.30 0.30 0.0 0 0 16.05 33.57
  Q 19.88 32.99 21.95 33.69
  A 0.31 0.31 0.0 0 1 22.01 34.25
  Q 17.31 37.00 15.15 41.83
  A 0.35 0.35 0.0 0 0 15.55 42.31
  Q 19.81 41.26 22.59 41.53
  A 0.44 0.43 -70.6 0 1 22.91 42.20
  Q 20.49 45.87 20.02 49.17
  A 0.30 0.30 0.0 0 0 20.55 49.41
  Q 23.29 46.19 26.52 44.23
  A 1.60 1.59 -8.7 0 0 27.24 43.26
  L 28.66 37.71
  A 0.66 0.66 0.0 0 0 27.69 36.97
  L 23.97 39.12
  A 0.44 0.44 0.0 0 1 23.35 38.54
  L 27.95 29.34
  A 0.68 0.68 0.0 0 1 28.87 29.03
  L 30.14 29.66
  A 0.74 0.73 -63.3 0 1 30.46 30.64
  L 29.01 33.53
  A 0.50 0.50 0.0 0 0 29.46 34.25
  L 31.35 34.25
  A 0.74 0.74 0.0 0 1 32.07 35.17
  L 31.25 38.35
  A 0.30 0.30 0.0 0 0 31.65 38.71
  Q 39.50 35.80 47.93 35.49
  A 1.56 1.55 -62.9 0 0 48.72 35.23
  Q 49.83 34.47 50.00 33.28
  A 0.17 0.16 4.3 0 0 49.83 33.09
  L 49.55 33.09
  A 0.35 0.34 5.0 0 0 49.21 33.37
  Q 49.08 34.02 48.82 34.26
  Q 48.36 34.70 48.06 33.98
  Q 47.85 33.46 47.82 33.44
  A 0.80 0.80 0.0 0 0 46.78 33.54
  L 46.01 34.33
  A 0.52 0.52 0.0 0 1 45.14 34.11
  Q 44.83 33.07 44.27 33.38
  A 0.27 0.19 -9.2 0 0 44.17 33.48
  L 43.57 34.69
  A 0.47 0.47 0.0 0 1 42.95 34.90
  Q 42.50 34.69 42.55 34.11
  A 0.46 0.46 0.0 0 0 41.72 33.79
  L 40.28 35.69
  A 0.31 0.31 0.0 0 1 39.73 35.48
  L 40.13 30.66
  A 1.39 1.37 61.7 0 1 40.30 30.08
  L 42.33 26.40
  A 0.35 0.35 0.0 0 1 42.99 26.57
  L 42.99 27.55
  A 0.43 0.43 0.0 0 0 43.76 27.82
  L 44.89 26.40
  A 0.57 0.56 36.7 0 1 45.66 26.29
  Q 45.83 26.45 45.85 27.28
  A 0.48 0.47 57.4 0 0 46.75 27.48
  L 47.31 26.31
  A 0.48 0.48 0.0 0 1 48.22 26.56
  Q 48.20 26.68 48.37 27.27
  A 0.34 0.33 -34.2 0 0 48.96 27.38
  L 50.10 25.87
  A 0.39 0.39 0.0 0 1 50.75 25.91
  L 51.32 26.88
  A 0.32 0.31 -41.7 0 0 51.85 26.91
  Q 52.79 25.60 52.82 24.34
  A 0.54 0.54 0.0 0 0 52.24 23.78
  L 40.02 24.77
  Z
  M 50.4121 28.5188
  A 1.88 0.80 -55.6 0 0 48.6899 29.6180
  A 1.88 0.80 -55.6 0 0 48.2879 31.6212
  A 1.88 0.80 -55.6 0 0 50.0101 30.5220
  A 1.88 0.80 -55.6 0 0 50.4121 28.5188
  Z
  M 44.8397 28.9118
  A 1.83 0.73 -66.5 0 0 43.4405 30.2989
  A 1.83 0.73 -66.5 0 0 43.3803 32.2682
  A 1.83 0.73 -66.5 0 0 44.7795 30.8811
  A 1.83 0.73 -66.5 0 0 44.8397 28.9118
  Z
  M 47.5999 28.9355
  A 1.64 0.69 -59.6 0 0 46.1749 30.0008
  A 1.64 0.69 -59.6 0 0 45.9401 31.7645
  A 1.64 0.69 -59.6 0 0 47.3651 30.6992
  A 1.64 0.69 -59.6 0 0 47.5999 28.9355
  Z
  M 42.6123 29.3948
  A 1.41 0.57 -62.9 0 0 41.4626 30.3903
  A 1.41 0.57 -62.9 0 0 41.3277 31.9052
  A 1.41 0.57 -62.9 0 0 42.4774 30.9097
  A 1.41 0.57 -62.9 0 0 42.6123 29.3948
  Z
  M 29.25 41.24
  A 0.44 0.44 0.0 0 0 29.84 41.72
  Q 30.20 41.57 30.07 41.02
  Q 29.98 40.63 29.58 40.73
  Q 29.32 40.80 29.25 41.24
  Z
  M 28.85 49.47
  L 30.57 42.77
  A 0.10 0.10 0.0 0 0 30.42 42.66
  L 27.80 44.17
  A 1.30 1.29 67.8 0 0 27.20 45.62
  L 28.20 49.47
  A 0.34 0.33 44.9 0 0 28.85 49.47
  Z"
/>
<path fill="#ffffff" d="
  M 40.02 24.77
  Q 37.32 23.30 34.32 23.67
  A 0.64 0.64 0.0 0 0 33.84 24.63
  C 35.33 27.19 38.99 29.11 40.02 24.77
  L 52.24 23.78
  A 0.54 0.54 0.0 0 1 52.82 24.34
  Q 52.79 25.60 51.85 26.91
  A 0.32 0.31 -41.7 0 1 51.32 26.88
  L 50.75 25.91
  A 0.39 0.39 0.0 0 0 50.10 25.87
  L 48.96 27.38
  A 0.34 0.33 -34.2 0 1 48.37 27.27
  Q 48.20 26.68 48.22 26.56
  A 0.48 0.48 0.0 0 0 47.31 26.31
  L 46.75 27.48
  A 0.48 0.47 57.4 0 1 45.85 27.28
  Q 45.83 26.45 45.66 26.29
  A 0.57 0.56 36.7 0 0 44.89 26.40
  L 43.76 27.82
  A 0.43 0.43 0.0 0 1 42.99 27.55
  L 42.99 26.57
  A 0.35 0.35 0.0 0 0 42.33 26.40
  L 40.30 30.08
  A 1.39 1.37 61.7 0 0 40.13 30.66
  L 39.73 35.48
  A 0.31 0.31 0.0 0 0 40.28 35.69
  L 41.72 33.79
  A 0.46 0.46 0.0 0 1 42.55 34.11
  Q 42.50 34.69 42.95 34.90
  A 0.47 0.47 0.0 0 0 43.57 34.69
  L 44.17 33.48
  A 0.27 0.19 -9.2 0 1 44.27 33.38
  Q 44.83 33.07 45.14 34.11
  A 0.52 0.52 0.0 0 0 46.01 34.33
  L 46.78 33.54
  A 0.80 0.80 0.0 0 1 47.82 33.44
  Q 47.85 33.46 48.06 33.98
  Q 48.36 34.70 48.82 34.26
  Q 49.08 34.02 49.21 33.37
  A 0.35 0.34 5.0 0 1 49.55 33.09
  L 49.83 33.09
  A 0.17 0.16 4.3 0 1 50.00 33.28
  Q 49.83 34.47 48.72 35.23
  A 1.56 1.55 -62.9 0 1 47.93 35.49
  Q 39.50 35.80 31.65 38.71
  A 0.30 0.30 0.0 0 1 31.25 38.35
  L 32.07 35.17
  A 0.74 0.74 0.0 0 0 31.35 34.25
  L 29.46 34.25
  A 0.50 0.50 0.0 0 1 29.01 33.53
  L 30.46 30.64
  A 0.74 0.73 -63.3 0 0 30.14 29.66
  L 28.87 29.03
  A 0.68 0.68 0.0 0 0 27.95 29.34
  L 23.35 38.54
  A 0.44 0.44 0.0 0 0 23.97 39.12
  L 27.69 36.97
  A 0.66 0.66 0.0 0 1 28.66 37.71
  L 27.24 43.26
  A 1.60 1.59 -8.7 0 1 26.52 44.23
  Q 23.29 46.19 20.55 49.41
  A 0.30 0.30 0.0 0 1 20.02 49.17
  Q 20.49 45.87 22.91 42.20
  A 0.44 0.43 -70.6 0 0 22.59 41.53
  Q 19.81 41.26 15.55 42.31
  A 0.35 0.35 0.0 0 1 15.15 41.83
  Q 17.31 37.00 22.01 34.25
  A 0.31 0.31 0.0 0 0 21.95 33.69
  Q 19.88 32.99 16.05 33.57
  A 0.30 0.30 0.0 0 1 15.79 33.07
  Q 18.18 30.59 21.51 29.36
  A 0.66 0.65 53.6 0 0 21.68 28.22
  L 18.19 25.57
  A 0.17 0.17 0.0 0 1 18.29 25.27
  L 21.80 25.27
  A 1.22 1.19 74.8 0 1 22.84 25.88
  L 24.36 28.52
  A 0.50 0.49 59.7 0 0 25.03 28.70
  L 26.53 27.83
  A 0.53 0.53 0.0 0 0 26.73 27.13
  Q 24.44 22.56 26.66 17.16
  A 0.21 0.21 0.0 0 1 27.03 17.14
  L 30.33 22.86
  A 0.52 0.52 0.0 0 0 30.92 23.10
  Q 32.83 22.56 35.11 23.04
  Q 35.23 23.07 37.41 23.23
  Q 38.85 23.34 40.02 24.77
  Z"
/>
<path fill="#383544" d="
  M 40.02 24.77
  C 38.99 29.11 35.33 27.19 33.84 24.63
  A 0.64 0.64 0.0 0 1 34.32 23.67
  Q 37.32 23.30 40.02 24.77
  Z
  M 37.70 25.17
  Q 37.53 25.10 36.57 25.09
  A 0.28 0.28 0.0 0 0 36.41 25.61
  Q 36.87 25.91 37.59 25.85
  A 0.36 0.35 54.5 0 0 37.70 25.17
  Z"
/>
<path fill="#b3473b" d="
  M 37.70 25.17
  A 0.36 0.35 54.5 0 1 37.59 25.85
  Q 36.87 25.91 36.41 25.61
  A 0.28 0.28 0.0 0 1 36.57 25.09
  Q 37.53 25.10 37.70 25.17
  Z"
/>
<ellipse fill="#b3473b" cx="0.00" cy="0.00" transform="translate(49.35,30.07) rotate(-55.6)" rx="1.88" ry="0.80"/>
<ellipse fill="#b3473b" cx="0.00" cy="0.00" transform="translate(44.11,30.59) rotate(-66.5)" rx="1.83" ry="0.73"/>
<ellipse fill="#b3473b" cx="0.00" cy="0.00" transform="translate(46.77,30.35) rotate(-59.6)" rx="1.64" ry="0.69"/>
<ellipse fill="#b3473b" cx="0.00" cy="0.00" transform="translate(41.97,30.65) rotate(-62.9)" rx="1.41" ry="0.57"/>
<path fill="#b3473b" d="
  M 29.25 41.24
  Q 29.32 40.80 29.58 40.73
  Q 29.98 40.63 30.07 41.02
  Q 30.20 41.57 29.84 41.72
  A 0.44 0.44 0.0 0 1 29.25 41.24
  Z"
/>
<path fill="#ffffff" d="
  M 28.20 49.47
  L 27.20 45.62
  A 1.30 1.29 67.8 0 1 27.80 44.17
  L 30.42 42.66
  A 0.10 0.10 0.0 0 1 30.57 42.77
  L 28.85 49.47
  A 0.34 0.33 44.9 0 1 28.20 49.47
  Z"
/>
</svg>
