<?xml version="1.0" encoding="UTF-8" standalone="no"?>
<!DOCTYPE svg PUBLIC "-//W3C//DTD SVG 1.1//EN" "http://www.w3.org/Graphics/SVG/1.1/DTD/svg11.dtd">
<svg xmlns="http://www.w3.org/2000/svg" version="1.1" viewBox="0.00 0.00 66.00 88.00">
<g stroke-width="2.00" fill="none" stroke-linecap="butt">
<path stroke="#496d97" vector-effect="non-scaling-stroke" d="
  M 33.39 86.73
  Q 33.50 86.73 33.60 86.70
  Q 33.62 86.70 33.75 86.58
  Q 48.95 72.19 57.75 56.26
  C 64.62 43.83 67.78 27.56 58.54 15.20
  C 52.63 7.30 43.68 2.46 33.52 2.44
  C 23.37 2.43 14.40 7.24 8.47 15.12
  C -0.81 27.45 2.30 43.73 9.13 56.18
  Q 17.87 72.14 33.03 86.58
  Q 33.16 86.70 33.17 86.70
  Q 33.28 86.73 33.39 86.73"
/>
<path stroke="#4c6284" vector-effect="non-scaling-stroke" d="
  M 31.96 25.62
  Q 31.34 27.64 32.40 29.29
  A 1.84 1.83 -12.5 0 0 33.71 30.12
  C 36.70 30.51 40.49 31.55 40.90 27.87
  Q 40.96 27.31 41.92 16.82
  C 42.26 13.16 37.56 13.72 34.42 13.81
  A 1.29 1.28 -69.2 0 0 33.54 14.21
  Q 32.58 15.22 32.61 17.17
  A 0.74 0.73 -86.6 0 1 31.78 17.91
  L 19.09 16.26
  A 0.47 0.47 0.0 0 0 18.57 16.67
  L 17.81 22.52
  A 0.65 0.65 0.0 0 0 18.38 23.25
  L 31.53 24.96
  A 0.52 0.52 0.0 0 1 31.96 25.62"
/>
<path stroke="#4c6284" vector-effect="non-scaling-stroke" d="
  M 52.34 54.00
  L 46.32 47.97
  A 2.05 2.04 -67.9 0 1 45.71 46.51
  L 45.71 42.15
  A 0.65 0.65 0.0 0 1 46.36 41.50
  L 50.54 41.50
  A 0.96 0.96 0.0 0 0 51.50 40.54
  L 51.50 34.18
  A 1.16 1.16 0.0 0 0 50.34 33.02
  L 14.95 33.02
  A 0.33 0.33 0.0 0 0 14.62 33.37
  Q 14.78 36.47 15.91 39.07
  C 17.88 43.64 21.30 43.23 25.70 43.33
  A 1.00 0.99 20.1 0 1 26.46 44.95
  L 19.12 53.96
  A 0.33 0.33 0.0 0 0 19.38 54.50
  L 29.12 54.50
  A 1.91 1.91 0.0 0 0 30.47 53.94
  L 32.21 52.20
  A 1.55 1.53 22.3 0 1 33.30 51.75
  L 37.09 51.75
  A 2.47 2.43 67.0 0 1 38.81 52.46
  L 40.48 54.13
  A 1.28 1.26 -22.1 0 0 41.38 54.50
  L 52.13 54.50
  A 0.29 0.29 0.0 0 0 52.34 54.00"
/>
<path stroke="#9999a0" vector-effect="non-scaling-stroke" d="
  M 33.42 19.94
  L 20.33 18.25
  A 0.21 0.20 6.7 0 0 20.09 18.43
  L 19.67 21.64
  A 0.33 0.33 0.0 0 0 19.95 22.01
  Q 28.60 23.50 33.26 22.87
  A 0.52 0.52 0.0 0 1 33.84 23.45
  L 33.38 26.98
  A 1.40 1.40 0.0 0 0 34.59 28.54
  L 38.10 28.99
  A 0.85 0.85 0.0 0 0 39.05 28.26
  L 40.53 16.89
  A 1.30 1.29 -82.9 0 0 39.41 15.44
  L 36.57 15.07
  A 2.11 2.11 0.0 0 0 34.21 16.89
  L 33.85 19.61
  A 0.38 0.38 0.0 0 1 33.42 19.94"
/>
<path stroke="#9999a0" vector-effect="non-scaling-stroke" d="
  M 48.64 52.19
  L 44.68 48.97
  A 1.84 1.83 -70.4 0 1 44.01 47.55
  L 44.01 40.63
  A 0.61 0.60 0.0 0 1 44.62 40.03
  L 49.55 40.03
  A 0.49 0.48 90.0 0 0 50.03 39.54
  L 50.03 35.00
  A 0.51 0.51 0.0 0 0 49.52 34.49
  L 17.33 34.49
  A 1.18 1.17 -15.0 0 0 16.31 36.25
  L 18.53 40.09
  A 3.35 3.33 -14.8 0 0 21.43 41.76
  L 26.19 41.76
  A 1.18 1.16 74.8 0 1 27.20 42.35
  L 28.43 44.48
  A 0.83 0.83 0.0 0 1 28.36 45.41
  L 22.65 52.42
  A 0.21 0.21 0.0 0 0 22.81 52.77
  L 28.48 52.77
  A 1.99 1.96 19.2 0 0 30.02 52.04
  L 31.47 50.26
  A 1.37 1.35 -70.1 0 1 32.52 49.76
  L 38.12 49.76
  A 1.31 1.28 -21.4 0 1 39.06 50.16
  L 41.08 52.29
  A 1.52 1.52 0.0 0 0 42.18 52.76
  L 48.44 52.76
  A 0.32 0.32 0.0 0 0 48.64 52.19"
/>
</g>
<path fill="#2d4966" d="
  M 33.80 88.00
  L 33.04 88.00
  C 22.18 78.20 12.04 65.64 5.73 51.77
  C 1.04 41.45 -0.49 28.50 5.15 18.21
  C 17.60 -4.51 49.93 -4.29 62.14 18.83
  C 67.43 28.84 65.85 41.29 61.31 51.54
  C 55.17 65.40 44.96 77.82 33.80 88.00
  Z
  M 33.39 86.73
  Q 33.50 86.73 33.60 86.70
  Q 33.62 86.70 33.75 86.58
  Q 48.95 72.19 57.75 56.26
  C 64.62 43.83 67.78 27.56 58.54 15.20
  C 52.63 7.30 43.68 2.46 33.52 2.44
  C 23.37 2.43 14.40 7.24 8.47 15.12
  C -0.81 27.45 2.30 43.73 9.13 56.18
  Q 17.87 72.14 33.03 86.58
  Q 33.16 86.70 33.17 86.70
  Q 33.28 86.73 33.39 86.73
  Z"
/>
<path fill="#6591c7" d="
  M 33.52 2.44
  C 43.68 2.46 52.63 7.30 58.54 15.20
  C 67.78 27.56 64.62 43.83 57.75 56.26
  Q 48.95 72.19 33.75 86.58
  Q 33.62 86.70 33.60 86.70
  Q 33.50 86.73 33.39 86.73
  Q 33.28 86.73 33.17 86.70
  Q 33.16 86.70 33.03 86.58
  Q 17.87 72.14 9.13 56.18
  C 2.30 43.73 -0.81 27.45 8.47 15.12
  C 14.40 7.24 23.37 2.43 33.52 2.44
  Z
  M 31.96 25.62
  Q 31.34 27.64 32.40 29.29
  A 1.84 1.83 -12.5 0 0 33.71 30.12
  C 36.70 30.51 40.49 31.55 40.90 27.87
  Q 40.96 27.31 41.92 16.82
  C 42.26 13.16 37.56 13.72 34.42 13.81
  A 1.29 1.28 -69.2 0 0 33.54 14.21
  Q 32.58 15.22 32.61 17.17
  A 0.74 0.73 -86.6 0 1 31.78 17.91
  L 19.09 16.26
  A 0.47 0.47 0.0 0 0 18.57 16.67
  L 17.81 22.52
  A 0.65 0.65 0.0 0 0 18.38 23.25
  L 31.53 24.96
  A 0.52 0.52 0.0 0 1 31.96 25.62
  Z
  M 52.34 54.00
  L 46.32 47.97
  A 2.05 2.04 -67.9 0 1 45.71 46.51
  L 45.71 42.15
  A 0.65 0.65 0.0 0 1 46.36 41.50
  L 50.54 41.50
  A 0.96 0.96 0.0 0 0 51.50 40.54
  L 51.50 34.18
  A 1.16 1.16 0.0 0 0 50.34 33.02
  L 14.95 33.02
  A 0.33 0.33 0.0 0 0 14.62 33.37
  Q 14.78 36.47 15.91 39.07
  C 17.88 43.64 21.30 43.23 25.70 43.33
  A 1.00 0.99 20.1 0 1 26.46 44.95
  L 19.12 53.96
  A 0.33 0.33 0.0 0 0 19.38 54.50
  L 29.12 54.50
  A 1.91 1.91 0.0 0 0 30.47 53.94
  L 32.21 52.20
  A 1.55 1.53 22.3 0 1 33.30 51.75
  L 37.09 51.75
  A 2.47 2.43 67.0 0 1 38.81 52.46
  L 40.48 54.13
  A 1.28 1.26 -22.1 0 0 41.38 54.50
  L 52.13 54.50
  A 0.29 0.29 0.0 0 0 52.34 54.00
  Z"
/>
<path fill="#323341" d="
  M 31.53 24.96
  L 18.38 23.25
  A 0.65 0.65 0.0 0 1 17.81 22.52
  L 18.57 16.67
  A 0.47 0.47 0.0 0 1 19.09 16.26
  L 31.78 17.91
  A 0.74 0.73 -86.6 0 0 32.61 17.17
  Q 32.58 15.22 33.54 14.21
  A 1.29 1.28 -69.2 0 1 34.42 13.81
  C 37.56 13.72 42.26 13.16 41.92 16.82
  Q 40.96 27.31 40.90 27.87
  C 40.49 31.55 36.70 30.51 33.71 30.12
  A 1.84 1.83 -12.5 0 1 32.40 29.29
  Q 31.34 27.64 31.96 25.62
  A 0.52 0.52 0.0 0 0 31.53 24.96
  Z
  M 33.42 19.94
  L 20.33 18.25
  A 0.21 0.20 6.7 0 0 20.09 18.43
  L 19.67 21.64
  A 0.33 0.33 0.0 0 0 19.95 22.01
  Q 28.60 23.50 33.26 22.87
  A 0.52 0.52 0.0 0 1 33.84 23.45
  L 33.38 26.98
  A 1.40 1.40 0.0 0 0 34.59 28.54
  L 38.10 28.99
  A 0.85 0.85 0.0 0 0 39.05 28.26
  L 40.53 16.89
  A 1.30 1.29 -82.9 0 0 39.41 15.44
  L 36.57 15.07
  A 2.11 2.11 0.0 0 0 34.21 16.89
  L 33.85 19.61
  A 0.38 0.38 0.0 0 1 33.42 19.94
  Z"
/>
<path fill="#ffffff" d="
  M 33.85 19.61
  L 34.21 16.89
  A 2.11 2.11 0.0 0 1 36.57 15.07
  L 39.41 15.44
  A 1.30 1.29 -82.9 0 1 40.53 16.89
  L 39.05 28.26
  A 0.85 0.85 0.0 0 1 38.10 28.99
  L 34.59 28.54
  A 1.40 1.40 0.0 0 1 33.38 26.98
  L 33.84 23.45
  A 0.52 0.52 0.0 0 0 33.26 22.87
  Q 28.60 23.50 19.95 22.01
  A 0.33 0.33 0.0 0 1 19.67 21.64
  L 20.09 18.43
  A 0.21 0.20 6.7 0 1 20.33 18.25
  L 33.42 19.94
  A 0.38 0.38 0.0 0 0 33.85 19.61
  Z"
/>
<path fill="#323341" d="
  M 52.13 54.50
  L 41.38 54.50
  A 1.28 1.26 -22.1 0 1 40.48 54.13
  L 38.81 52.46
  A 2.47 2.43 67.0 0 0 37.09 51.75
  L 33.30 51.75
  A 1.55 1.53 22.3 0 0 32.21 52.20
  L 30.47 53.94
  A 1.91 1.91 0.0 0 1 29.12 54.50
  L 19.38 54.50
  A 0.33 0.33 0.0 0 1 19.12 53.96
  L 26.46 44.95
  A 1.00 0.99 20.1 0 0 25.70 43.33
  C 21.30 43.23 17.88 43.64 15.91 39.07
  Q 14.78 36.47 14.62 33.37
  A 0.33 0.33 0.0 0 1 14.95 33.02
  L 50.34 33.02
  A 1.16 1.16 0.0 0 1 51.50 34.18
  L 51.50 40.54
  A 0.96 0.96 0.0 0 1 50.54 41.50
  L 46.36 41.50
  A 0.65 0.65 0.0 0 0 45.71 42.15
  L 45.71 46.51
  A 2.05 2.04 -67.9 0 0 46.32 47.97
  L 52.34 54.00
  A 0.29 0.29 0.0 0 1 52.13 54.50
  Z
  M 48.64 52.19
  L 44.68 48.97
  A 1.84 1.83 -70.4 0 1 44.01 47.55
  L 44.01 40.63
  A 0.61 0.60 0.0 0 1 44.62 40.03
  L 49.55 40.03
  A 0.49 0.48 90.0 0 0 50.03 39.54
  L 50.03 35.00
  A 0.51 0.51 0.0 0 0 49.52 34.49
  L 17.33 34.49
  A 1.18 1.17 -15.0 0 0 16.31 36.25
  L 18.53 40.09
  A 3.35 3.33 -14.8 0 0 21.43 41.76
  L 26.19 41.76
  A 1.18 1.16 74.8 0 1 27.20 42.35
  L 28.43 44.48
  A 0.83 0.83 0.0 0 1 28.36 45.41
  L 22.65 52.42
  A 0.21 0.21 0.0 0 0 22.81 52.77
  L 28.48 52.77
  A 1.99 1.96 19.2 0 0 30.02 52.04
  L 31.47 50.26
  A 1.37 1.35 -70.1 0 1 32.52 49.76
  L 38.12 49.76
  A 1.31 1.28 -21.4 0 1 39.06 50.16
  L 41.08 52.29
  A 1.52 1.52 0.0 0 0 42.18 52.76
  L 48.44 52.76
  A 0.32 0.32 0.0 0 0 48.64 52.19
  Z"
/>
<path fill="#ffffff" d="
  M 48.44 52.76
  L 42.18 52.76
  A 1.52 1.52 0.0 0 1 41.08 52.29
  L 39.06 50.16
  A 1.31 1.28 -21.4 0 0 38.12 49.76
  L 32.52 49.76
  A 1.37 1.35 -70.1 0 0 31.47 50.26
  L 30.02 52.04
  A 1.99 1.96 19.2 0 1 28.48 52.77
  L 22.81 52.77
  A 0.21 0.21 0.0 0 1 22.65 52.42
  L 28.36 45.41
  A 0.83 0.83 0.0 0 0 28.43 44.48
  L 27.20 42.35
  A 1.18 1.16 74.8 0 0 26.19 41.76
  L 21.43 41.76
  A 3.35 3.33 -14.8 0 1 18.53 40.09
  L 16.31 36.25
  A 1.18 1.17 -15.0 0 1 17.33 34.49
  L 49.52 34.49
  A 0.51 0.51 0.0 0 1 50.03 35.00
  L 50.03 39.54
  A 0.49 0.48 -90.0 0 1 49.55 40.03
  L 44.62 40.03
  A 0.61 0.60 -0.0 0 0 44.01 40.63
  L 44.01 47.55
  A 1.84 1.83 -70.4 0 0 44.68 48.97
  L 48.64 52.19
  A 0.32 0.32 0.0 0 1 48.44 52.76
  Z"
/>
</svg>
