<?xml version="1.0" encoding="UTF-8" standalone="no"?>
<!DOCTYPE svg PUBLIC "-//W3C//DTD SVG 1.1//EN" "http://www.w3.org/Graphics/SVG/1.1/DTD/svg11.dtd">
<svg xmlns="http://www.w3.org/2000/svg" version="1.1" viewBox="0.00 0.00 66.00 88.00">
<g stroke-width="2.00" fill="none" stroke-linecap="butt">
<path stroke="#4a4b57" vector-effect="non-scaling-stroke" d="
  M 33.42 86.62
  C 33.76 86.62 33.67 86.64 33.82 86.49
  Q 48.56 72.89 57.72 56.25
  C 64.47 43.99 67.52 28.30 59.35 16.39
  Q 50.23 3.10 33.75 2.46
  Q 33.60 2.46 33.50 2.46
  Q 33.40 2.46 33.25 2.46
  Q 16.77 3.07 7.63 16.34
  C -0.57 28.24 2.46 43.93 9.18 56.21
  Q 18.31 72.86 33.03 86.49
  C 33.18 86.64 33.09 86.62 33.42 86.62"
/>
<path stroke="#4d4c5c" vector-effect="non-scaling-stroke" d="
  M 53.46 52.29
  L 48.98 33.73
  A 3.42 3.39 -77.4 0 0 47.83 31.90
  L 42.74 27.72
  A 4.79 4.76 6.4 0 1 41.48 26.15
  L 36.69 16.51
  A 1.07 1.06 89.0 0 0 36.16 15.99
  L 32.11 14.12
  A 1.11 1.11 0.0 0 0 30.63 14.66
  L 26.11 24.44
  A 1.59 1.59 0.0 0 1 25.39 25.19
  Q 24.44 25.67 23.12 25.88
  A 2.01 2.00 -85.4 0 0 21.52 27.25
  L 17.67 39.38
  A 2.18 2.11 80.4 0 1 16.97 40.40
  L 13.07 43.53
  A 2.57 2.53 -19.8 0 0 12.12 45.51
  L 12.12 52.34
  A 1.28 1.28 0.0 0 0 13.40 53.62
  L 24.98 53.62
  A 0.90 0.90 0.0 0 0 25.86 52.89
  Q 26.31 50.63 26.35 47.09
  C 26.37 45.04 26.92 43.63 27.52 41.88
  A 1.21 1.20 -4.0 0 1 28.12 41.20
  L 32.11 39.21
  A 1.30 1.28 -48.7 0 1 33.05 39.14
  Q 35.20 39.82 36.43 41.06
  A 2.09 1.94 -77.9 0 1 36.93 41.90
  Q 38.32 46.49 38.33 51.99
  A 1.63 1.63 0.0 0 0 39.96 53.62
  L 52.42 53.62
  A 1.07 1.07 0.0 0 0 53.46 52.29"
/>
<path stroke="#9b9aa2" vector-effect="non-scaling-stroke" d="
  M 51.89 51.75
  Q 49.93 44.07 47.93 35.28
  C 47.31 32.53 44.37 30.89 41.49 28.49
  A 4.36 4.19 7.6 0 1 40.39 27.11
  L 35.57 17.41
  A 0.66 0.59 87.1 0 0 35.28 17.12
  L 32.65 15.91
  A 0.93 0.93 0.0 0 0 31.42 16.36
  L 27.03 25.84
  A 1.30 1.29 5.3 0 1 26.16 26.56
  L 23.47 27.21
  A 0.92 0.92 0.0 0 0 22.81 27.82
  L 19.03 39.74
  A 1.81 1.80 -13.8 0 1 18.62 40.41
  L 13.84 45.19
  A 0.51 0.51 0.0 0 0 13.69 45.55
  L 13.69 51.41
  A 0.68 0.67 0.0 0 0 14.37 52.08
  L 23.41 52.08
  A 1.57 1.57 0.0 0 0 24.98 50.43
  Q 24.70 44.57 26.53 40.59
  A 0.85 0.83 -1.5 0 1 26.90 40.21
  L 32.07 37.64
  A 1.21 1.20 44.2 0 1 33.12 37.63
  L 37.08 39.46
  A 1.37 1.36 1.8 0 1 37.77 40.19
  Q 39.75 45.25 39.81 51.28
  A 0.79 0.79 0.0 0 0 40.60 52.07
  L 51.65 52.07
  A 0.26 0.25 82.8 0 0 51.89 51.75"
/>
</g>
<path fill="#30333b" d="
  M 33.78 88.00
  L 33.03 88.00
  C 21.86 77.84 12.08 65.68 5.74 51.77
  Q 2.86 45.46 1.94 38.73
  Q -0.16 23.33 8.74 12.89
  Q 17.85 2.20 32.01 1.35
  C 40.28 0.85 49.42 4.10 55.55 10.02
  Q 67.98 22.03 64.84 40.02
  C 61.70 58.03 47.08 75.97 33.78 88.00
  Z
  M 33.42 86.62
  C 33.76 86.62 33.67 86.64 33.82 86.49
  Q 48.56 72.89 57.72 56.25
  C 64.47 43.99 67.52 28.30 59.35 16.39
  Q 50.23 3.10 33.75 2.46
  Q 33.60 2.46 33.50 2.46
  Q 33.40 2.46 33.25 2.46
  Q 16.77 3.07 7.63 16.34
  C -0.57 28.24 2.46 43.93 9.18 56.21
  Q 18.31 72.86 33.03 86.49
  C 33.18 86.64 33.09 86.62 33.42 86.62
  Z"
/>
<path fill="#636373" d="
  M 33.50 2.46
  Q 33.60 2.46 33.75 2.46
  Q 50.23 3.10 59.35 16.39
  C 67.52 28.30 64.47 43.99 57.72 56.25
  Q 48.56 72.89 33.82 86.49
  C 33.67 86.64 33.76 86.62 33.42 86.62
  C 33.09 86.62 33.18 86.64 33.03 86.49
  Q 18.31 72.86 9.18 56.21
  C 2.46 43.93 -0.57 28.24 7.63 16.34
  Q 16.77 3.07 33.25 2.46
  Q 33.40 2.46 33.50 2.46
  Z
  M 53.46 52.29
  L 48.98 33.73
  A 3.42 3.39 -77.4 0 0 47.83 31.90
  L 42.74 27.72
  A 4.79 4.76 6.4 0 1 41.48 26.15
  L 36.69 16.51
  A 1.07 1.06 89.0 0 0 36.16 15.99
  L 32.11 14.12
  A 1.11 1.11 0.0 0 0 30.63 14.66
  L 26.11 24.44
  A 1.59 1.59 0.0 0 1 25.39 25.19
  Q 24.44 25.67 23.12 25.88
  A 2.01 2.00 -85.4 0 0 21.52 27.25
  L 17.67 39.38
  A 2.18 2.11 80.4 0 1 16.97 40.40
  L 13.07 43.53
  A 2.57 2.53 -19.8 0 0 12.12 45.51
  L 12.12 52.34
  A 1.28 1.28 0.0 0 0 13.40 53.62
  L 24.98 53.62
  A 0.90 0.90 0.0 0 0 25.86 52.89
  Q 26.31 50.63 26.35 47.09
  C 26.37 45.04 26.92 43.63 27.52 41.88
  A 1.21 1.20 -4.0 0 1 28.12 41.20
  L 32.11 39.21
  A 1.30 1.28 -48.7 0 1 33.05 39.14
  Q 35.20 39.82 36.43 41.06
  A 2.09 1.94 -77.9 0 1 36.93 41.90
  Q 38.32 46.49 38.33 51.99
  A 1.63 1.63 0.0 0 0 39.96 53.62
  L 52.42 53.62
  A 1.07 1.07 0.0 0 0 53.46 52.29
  Z"
/>
<path fill="#363545" d="
  M 53.46 52.29
  A 1.07 1.07 0.0 0 1 52.42 53.62
  L 39.96 53.62
  A 1.63 1.63 0.0 0 1 38.33 51.99
  Q 38.32 46.49 36.93 41.90
  A 2.09 1.94 -77.9 0 0 36.43 41.06
  Q 35.20 39.82 33.05 39.14
  A 1.30 1.28 -48.7 0 0 32.11 39.21
  L 28.12 41.20
  A 1.21 1.20 -4.0 0 0 27.52 41.88
  C 26.92 43.63 26.37 45.04 26.35 47.09
  Q 26.31 50.63 25.86 52.89
  A 0.90 0.90 0.0 0 1 24.98 53.62
  L 13.40 53.62
  A 1.28 1.28 0.0 0 1 12.12 52.34
  L 12.12 45.51
  A 2.57 2.53 -19.8 0 1 13.07 43.53
  L 16.97 40.40
  A 2.18 2.11 80.4 0 0 17.67 39.38
  L 21.52 27.25
  A 2.01 2.00 -85.4 0 1 23.12 25.88
  Q 24.44 25.67 25.39 25.19
  A 1.59 1.59 0.0 0 0 26.11 24.44
  L 30.63 14.66
  A 1.11 1.11 0.0 0 1 32.11 14.12
  L 36.16 15.99
  A 1.07 1.06 89.0 0 1 36.69 16.51
  L 41.48 26.15
  A 4.79 4.76 6.4 0 0 42.74 27.72
  L 47.83 31.90
  A 3.42 3.39 -77.4 0 1 48.98 33.73
  L 53.46 52.29
  Z
  M 51.89 51.75
  Q 49.93 44.07 47.93 35.28
  C 47.31 32.53 44.37 30.89 41.49 28.49
  A 4.36 4.19 7.6 0 1 40.39 27.11
  L 35.57 17.41
  A 0.66 0.59 87.1 0 0 35.28 17.12
  L 32.65 15.91
  A 0.93 0.93 0.0 0 0 31.42 16.36
  L 27.03 25.84
  A 1.30 1.29 5.3 0 1 26.16 26.56
  L 23.47 27.21
  A 0.92 0.92 0.0 0 0 22.81 27.82
  L 19.03 39.74
  A 1.81 1.80 -13.8 0 1 18.62 40.41
  L 13.84 45.19
  A 0.51 0.51 0.0 0 0 13.69 45.55
  L 13.69 51.41
  A 0.68 0.67 0.0 0 0 14.37 52.08
  L 23.41 52.08
  A 1.57 1.57 0.0 0 0 24.98 50.43
  Q 24.70 44.57 26.53 40.59
  A 0.85 0.83 -1.5 0 1 26.90 40.21
  L 32.07 37.64
  A 1.21 1.20 44.2 0 1 33.12 37.63
  L 37.08 39.46
  A 1.37 1.36 1.8 0 1 37.77 40.19
  Q 39.75 45.25 39.81 51.28
  A 0.79 0.79 0.0 0 0 40.60 52.07
  L 51.65 52.07
  A 0.26 0.25 82.8 0 0 51.89 51.75
  Z"
/>
<path fill="#ffffff" d="
  M 51.89 51.75
  A 0.26 0.25 82.8 0 1 51.65 52.07
  L 40.60 52.07
  A 0.79 0.79 0.0 0 1 39.81 51.28
  Q 39.75 45.25 37.77 40.19
  A 1.37 1.36 1.8 0 0 37.08 39.46
  L 33.12 37.63
  A 1.21 1.20 44.2 0 0 32.07 37.64
  L 26.90 40.21
  A 0.85 0.83 -1.5 0 0 26.53 40.59
  Q 24.70 44.57 24.98 50.43
  A 1.57 1.57 0.0 0 1 23.41 52.08
  L 14.37 52.08
  A 0.68 0.67 -0.0 0 1 13.69 51.41
  L 13.69 45.55
  A 0.51 0.51 0.0 0 1 13.84 45.19
  L 18.62 40.41
  A 1.81 1.80 -13.8 0 0 19.03 39.74
  L 22.81 27.82
  A 0.92 0.92 0.0 0 1 23.47 27.21
  L 26.16 26.56
  A 1.30 1.29 5.3 0 0 27.03 25.84
  L 31.42 16.36
  A 0.93 0.93 0.0 0 1 32.65 15.91
  L 35.28 17.12
  A 0.66 0.59 87.1 0 1 35.57 17.41
  L 40.39 27.11
  A 4.36 4.19 7.6 0 0 41.49 28.49
  C 44.37 30.89 47.31 32.53 47.93 35.28
  Q 49.93 44.07 51.89 51.75
  Z"
/>
</svg>
