<?xml version="1.0" encoding="UTF-8" standalone="no"?>
<!DOCTYPE svg PUBLIC "-//W3C//DTD SVG 1.1//EN" "http://www.w3.org/Graphics/SVG/1.1/DTD/svg11.dtd">
<svg xmlns="http://www.w3.org/2000/svg" version="1.1" viewBox="0.00 0.00 66.00 88.00">
<g stroke-width="2.00" fill="none" stroke-linecap="butt">
<path stroke="#4a4b57" vector-effect="non-scaling-stroke" d="
  M 33.41 86.62
  C 33.72 86.62 33.67 86.63 33.82 86.50
  Q 47.44 73.90 56.47 58.49
  Q 62.60 48.04 63.86 38.33
  Q 66.58 17.34 48.63 6.45
  Q 42.06 2.46 33.50 2.45
  Q 24.94 2.44 18.36 6.42
  Q 0.39 17.27 3.07 38.27
  Q 4.31 47.98 10.42 58.44
  Q 19.42 73.87 33.01 86.50
  C 33.16 86.63 33.11 86.62 33.41 86.62"
/>
<path stroke="#4c4c5c" vector-effect="non-scaling-stroke" d="
  M 15.38 44.20
  L 30.07 53.87
  A 0.73 0.73 0.0 0 0 30.87 53.87
  L 49.49 41.46
  A 1.12 1.11 73.3 0 0 49.99 40.53
  L 49.99 25.63
  A 2.46 2.43 -63.8 0 0 49.50 24.16
  L 45.49 18.78
  A 1.35 1.32 -0.8 0 0 45.12 18.43
  L 37.40 13.35
  A 1.12 1.12 0.0 0 0 36.49 13.20
  Q 33.84 13.92 32.96 14.49
  Q 28.39 17.41 18.37 24.13
  Q 17.46 24.75 15.10 27.85
  A 1.95 1.95 0.0 0 0 14.71 29.02
  L 14.71 42.96
  A 1.49 1.48 16.7 0 0 15.38 44.20"
/>
<path stroke="#9a9aa2" vector-effect="non-scaling-stroke" d="
  M 46.45 25.59
  L 42.74 19.48
  A 2.17 2.10 0.5 0 0 41.98 18.73
  L 37.27 15.95
  A 1.40 1.39 -37.4 0 0 36.21 15.81
  Q 34.70 16.21 33.34 17.10
  Q 25.27 22.36 20.32 25.85
  A 0.53 0.53 0.0 0 0 20.36 26.74
  L 25.30 29.58
  A 4.02 3.97 87.7 0 1 26.66 30.85
  L 30.10 36.02
  A 0.77 0.76 -33.5 0 0 31.16 36.23
  L 46.33 26.12
  A 0.40 0.40 0.0 0 0 46.45 25.59"
/>
<path stroke="#9a9aa2" vector-effect="non-scaling-stroke" d="
  M 28.97 36.40
  L 25.66 31.44
  A 3.27 3.26 87.9 0 0 24.52 30.38
  L 19.83 27.75
  A 0.72 0.72 0.0 0 0 18.88 27.98
  L 18.04 29.26
  A 0.31 0.31 0.0 0 0 18.13 29.69
  L 28.72 36.66
  A 0.19 0.18 89.6 0 0 28.97 36.40"
/>
<path stroke="#9a9aa2" vector-effect="non-scaling-stroke" d="
  M 46.90 28.59
  L 43.35 30.95
  A 1.71 1.70 -13.3 0 0 42.61 32.14
  Q 42.13 35.74 40.82 37.92
  A 0.83 0.83 0.0 0 1 39.42 37.95
  L 37.70 35.37
  A 0.54 0.53 56.0 0 0 36.96 35.22
  L 32.98 37.86
  A 2.90 2.90 0.0 0 0 31.69 40.27
  L 31.69 49.16
  A 0.64 0.64 0.0 0 0 32.68 49.69
  L 47.02 40.13
  A 1.21 1.21 0.0 0 0 47.56 39.12
  L 47.56 28.94
  A 0.42 0.42 0.0 0 0 46.90 28.59"
/>
<path stroke="#9a9aa2" vector-effect="non-scaling-stroke" d="
  M 28.81 38.87
  A 0.35 0.35 0.0 0 0 28.65 38.58
  L 17.74 31.40
  A 0.35 0.35 0.0 0 0 17.20 31.69
  L 17.20 42.36
  A 0.35 0.35 0.0 0 0 17.36 42.65
  L 28.27 49.83
  A 0.35 0.35 0.0 0 0 28.81 49.54
  L 28.81 38.87"
/>
</g>
<path fill="#30333b" d="
  M 33.79 88.00
  L 33.04 88.00
  C 21.76 77.75 12.11 65.67 5.65 51.56
  Q 2.20 44.03 1.60 34.89
  C 0.55 18.87 11.32 5.54 26.73 2.05
  Q 36.83 -0.23 46.98 4.28
  Q 57.24 8.84 62.57 19.68
  C 66.97 28.61 65.92 39.65 62.36 48.95
  C 56.72 63.74 45.43 77.43 33.79 88.00
  Z
  M 33.41 86.62
  C 33.72 86.62 33.67 86.63 33.82 86.50
  Q 47.44 73.90 56.47 58.49
  Q 62.60 48.04 63.86 38.33
  Q 66.58 17.34 48.63 6.45
  Q 42.06 2.46 33.50 2.45
  Q 24.94 2.44 18.36 6.42
  Q 0.39 17.27 3.07 38.27
  Q 4.31 47.98 10.42 58.44
  Q 19.42 73.87 33.01 86.50
  C 33.16 86.63 33.11 86.62 33.41 86.62
  Z"
/>
<path fill="#636373" d="
  M 33.50 2.45
  Q 42.06 2.46 48.63 6.45
  Q 66.58 17.34 63.86 38.33
  Q 62.60 48.04 56.47 58.49
  Q 47.44 73.90 33.82 86.50
  C 33.67 86.63 33.72 86.62 33.41 86.62
  C 33.11 86.62 33.16 86.63 33.01 86.50
  Q 19.42 73.87 10.42 58.44
  Q 4.31 47.98 3.07 38.27
  Q 0.39 17.27 18.36 6.42
  Q 24.94 2.44 33.50 2.45
  Z
  M 15.38 44.20
  L 30.07 53.87
  A 0.73 0.73 0.0 0 0 30.87 53.87
  L 49.49 41.46
  A 1.12 1.11 73.3 0 0 49.99 40.53
  L 49.99 25.63
  A 2.46 2.43 -63.8 0 0 49.50 24.16
  L 45.49 18.78
  A 1.35 1.32 -0.8 0 0 45.12 18.43
  L 37.40 13.35
  A 1.12 1.12 0.0 0 0 36.49 13.20
  Q 33.84 13.92 32.96 14.49
  Q 28.39 17.41 18.37 24.13
  Q 17.46 24.75 15.10 27.85
  A 1.95 1.95 0.0 0 0 14.71 29.02
  L 14.71 42.96
  A 1.49 1.48 16.7 0 0 15.38 44.20
  Z"
/>
<path fill="#343444" d="
  M 14.71 42.96
  L 14.71 29.02
  A 1.95 1.95 0.0 0 1 15.10 27.85
  Q 17.46 24.75 18.37 24.13
  Q 28.39 17.41 32.96 14.49
  Q 33.84 13.92 36.49 13.20
  A 1.12 1.12 0.0 0 1 37.40 13.35
  L 45.12 18.43
  A 1.35 1.32 -0.8 0 1 45.49 18.78
  L 49.50 24.16
  A 2.46 2.43 -63.8 0 1 49.99 25.63
  L 49.99 40.53
  A 1.12 1.11 73.3 0 1 49.49 41.46
  L 30.87 53.87
  A 0.73 0.73 0.0 0 1 30.07 53.87
  L 15.38 44.20
  A 1.49 1.48 16.7 0 1 14.71 42.96
  Z
  M 46.45 25.59
  L 42.74 19.48
  A 2.17 2.10 0.5 0 0 41.98 18.73
  L 37.27 15.95
  A 1.40 1.39 -37.4 0 0 36.21 15.81
  Q 34.70 16.21 33.34 17.10
  Q 25.27 22.36 20.32 25.85
  A 0.53 0.53 0.0 0 0 20.36 26.74
  L 25.30 29.58
  A 4.02 3.97 87.7 0 1 26.66 30.85
  L 30.10 36.02
  A 0.77 0.76 -33.5 0 0 31.16 36.23
  L 46.33 26.12
  A 0.40 0.40 0.0 0 0 46.45 25.59
  Z
  M 28.97 36.40
  L 25.66 31.44
  A 3.27 3.26 87.9 0 0 24.52 30.38
  L 19.83 27.75
  A 0.72 0.72 0.0 0 0 18.88 27.98
  L 18.04 29.26
  A 0.31 0.31 0.0 0 0 18.13 29.69
  L 28.72 36.66
  A 0.19 0.18 89.6 0 0 28.97 36.40
  Z
  M 46.90 28.59
  L 43.35 30.95
  A 1.71 1.70 -13.3 0 0 42.61 32.14
  Q 42.13 35.74 40.82 37.92
  A 0.83 0.83 0.0 0 1 39.42 37.95
  L 37.70 35.37
  A 0.54 0.53 56.0 0 0 36.96 35.22
  L 32.98 37.86
  A 2.90 2.90 0.0 0 0 31.69 40.27
  L 31.69 49.16
  A 0.64 0.64 0.0 0 0 32.68 49.69
  L 47.02 40.13
  A 1.21 1.21 0.0 0 0 47.56 39.12
  L 47.56 28.94
  A 0.42 0.42 0.0 0 0 46.90 28.59
  Z
  M 28.81 38.87
  A 0.35 0.35 0.0 0 0 28.65 38.58
  L 17.74 31.40
  A 0.35 0.35 0.0 0 0 17.20 31.69
  L 17.20 42.36
  A 0.35 0.35 0.0 0 0 17.36 42.65
  L 28.27 49.83
  A 0.35 0.35 0.0 0 0 28.81 49.54
  L 28.81 38.87
  Z"
/>
<path fill="#ffffff" d="
  M 46.45 25.59
  A 0.40 0.40 0.0 0 1 46.33 26.12
  L 31.16 36.23
  A 0.77 0.76 -33.5 0 1 30.10 36.02
  L 26.66 30.85
  A 4.02 3.97 87.7 0 0 25.30 29.58
  L 20.36 26.74
  A 0.53 0.53 0.0 0 1 20.32 25.85
  Q 25.27 22.36 33.34 17.10
  Q 34.70 16.21 36.21 15.81
  A 1.40 1.39 -37.4 0 1 37.27 15.95
  L 41.98 18.73
  A 2.17 2.10 0.5 0 1 42.74 19.48
  L 46.45 25.59
  Z"
/>
<path fill="#ffffff" d="
  M 28.97 36.40
  A 0.19 0.18 89.6 0 1 28.72 36.66
  L 18.13 29.69
  A 0.31 0.31 0.0 0 1 18.04 29.26
  L 18.88 27.98
  A 0.72 0.72 0.0 0 1 19.83 27.75
  L 24.52 30.38
  A 3.27 3.26 87.9 0 1 25.66 31.44
  L 28.97 36.40
  Z"
/>
<path fill="#ffffff" d="
  M 47.56 28.94
  L 47.56 39.12
  A 1.21 1.21 0.0 0 1 47.02 40.13
  L 32.68 49.69
  A 0.64 0.64 0.0 0 1 31.69 49.16
  L 31.69 40.27
  A 2.90 2.90 0.0 0 1 32.98 37.86
  L 36.96 35.22
  A 0.54 0.53 56.0 0 1 37.70 35.37
  L 39.42 37.95
  A 0.83 0.83 0.0 0 0 40.82 37.92
  Q 42.13 35.74 42.61 32.14
  A 1.71 1.70 -13.3 0 1 43.35 30.95
  L 46.90 28.59
  A 0.42 0.42 0.0 0 1 47.56 28.94
  Z"
/>
<path fill="#ffffff" d="
  M 28.81 38.87
  L 28.81 49.54
  A 0.35 0.35 0.0 0 1 28.27 49.83
  L 17.36 42.65
  A 0.35 0.35 0.0 0 1 17.20 42.36
  L 17.20 31.69
  A 0.35 0.35 0.0 0 1 17.74 31.40
  L 28.65 38.58
  A 0.35 0.35 0.0 0 1 28.81 38.87
  Z"
/>
</svg>
