<?xml version="1.0" encoding="UTF-8" standalone="no"?>
<!DOCTYPE svg PUBLIC "-//W3C//DTD SVG 1.1//EN" "http://www.w3.org/Graphics/SVG/1.1/DTD/svg11.dtd">
<svg xmlns="http://www.w3.org/2000/svg" version="1.1" viewBox="0.00 0.00 66.00 88.00">
<g stroke-width="2.00" fill="none" stroke-linecap="butt">
<path stroke="#4b4b5a" vector-effect="non-scaling-stroke" d="
  M 33.40 86.62
  C 34.27 86.62 33.55 86.68 33.78 86.47
  C 46.99 74.24 61.46 56.21 63.84 38.33
  Q 66.64 17.37 48.62 6.45
  Q 42.05 2.47 33.52 2.45
  Q 24.98 2.44 18.40 6.40
  Q 0.36 17.28 3.10 38.25
  C 5.43 56.13 19.85 74.20 33.03 86.47
  C 33.26 86.68 32.54 86.62 33.40 86.62"
/>
<path stroke="#4b4b5a" vector-effect="non-scaling-stroke" d="
  M 48.81 31.95
  L 51.46 31.95
  A 0.81 0.80 0.0 0 0 52.27 31.15
  L 52.27 16.02
  A 0.94 0.94 0.0 0 0 51.33 15.08
  L 44.59 15.08
  A 0.95 0.95 0.0 0 0 43.64 16.03
  L 43.64 18.11
  A 0.33 0.33 0.0 0 1 43.31 18.44
  L 42.86 18.44
  A 0.23 0.23 0.0 0 1 42.63 18.21
  L 42.63 15.85
  A 0.77 0.77 0.0 0 0 41.86 15.08
  L 35.26 15.08
  A 0.84 0.83 1.4 0 0 34.42 15.87
  L 34.31 18.28
  A 0.15 0.12 83.0 0 1 34.25 18.38
  L 34.02 18.52
  A 0.28 0.28 0.0 0 1 33.61 18.34
  L 33.00 15.76
  A 0.87 0.87 0.0 0 0 32.15 15.09
  L 25.76 15.09
  A 0.92 0.91 6.8 0 0 24.87 15.78
  Q 24.65 16.64 24.80 17.69
  A 0.76 0.75 -63.6 0 1 23.40 18.17
  Q 22.92 17.29 23.26 16.18
  A 0.86 0.85 8.7 0 0 22.44 15.07
  L 15.90 15.07
  A 0.85 0.84 90.0 0 0 15.06 15.92
  L 15.06 31.12
  A 0.85 0.84 8.3 0 0 15.67 31.93
  Q 16.25 32.09 17.04 31.87
  A 0.79 0.78 -7.9 0 1 18.04 32.62
  L 18.04 51.78
  A 0.69 0.69 0.0 0 0 18.73 52.47
  L 30.51 52.47
  A 0.39 0.38 -90.0 0 0 30.89 52.08
  L 30.89 48.22
  A 1.10 1.10 0.0 0 1 32.22 47.15
  Q 33.84 47.51 35.03 47.09
  A 0.87 0.87 0.0 0 1 36.19 47.91
  L 36.19 51.92
  A 0.56 0.55 0.0 0 0 36.75 52.47
  L 47.70 52.47
  A 0.57 0.57 0.0 0 0 48.27 51.90
  L 48.27 32.49
  A 0.54 0.54 0.0 0 1 48.81 31.95"
/>
<path stroke="#9999a0" vector-effect="non-scaling-stroke" d="
  M 33.65 21.79
  C 37.53 21.79 41.08 25.03 42.74 28.38
  A 0.80 0.79 -58.1 0 1 42.82 28.72
  L 42.82 29.83
  A 0.51 0.51 0.0 0 0 43.33 30.34
  L 50.14 30.34
  A 0.48 0.48 0.0 0 0 50.62 29.86
  L 50.62 17.36
  A 0.67 0.67 0.0 0 0 49.95 16.69
  L 46.27 16.69
  A 0.64 0.63 0.0 0 0 45.63 17.32
  L 45.63 19.06
  A 0.93 0.93 0.0 0 1 44.70 19.99
  L 41.73 19.99
  A 0.73 0.73 0.0 0 1 41.00 19.26
  L 41.00 17.28
  A 0.60 0.60 0.0 0 0 40.40 16.68
  L 36.59 16.68
  A 0.61 0.61 0.0 0 0 35.98 17.29
  L 35.98 19.13
  A 0.78 0.78 0.0 0 1 35.28 19.91
  Q 34.47 19.99 33.65 19.99
  Q 32.83 19.99 32.02 19.90
  A 0.78 0.78 0.0 0 1 31.32 19.13
  L 31.32 17.29
  A 0.61 0.61 0.0 0 0 30.71 16.67
  L 26.90 16.67
  A 0.60 0.60 0.0 0 0 26.30 17.27
  L 26.30 19.25
  A 0.73 0.73 0.0 0 1 25.57 19.98
  L 22.60 19.97
  A 0.93 0.93 0.0 0 1 21.67 19.04
  L 21.67 17.30
  A 0.64 0.63 0.1 0 0 21.03 16.67
  L 17.35 16.66
  A 0.67 0.67 0.0 0 0 16.68 17.33
  L 16.66 29.83
  A 0.48 0.48 0.0 0 0 17.14 30.31
  L 23.95 30.32
  A 0.51 0.51 0.0 0 0 24.46 29.81
  L 24.46 28.70
  A 0.80 0.79 58.2 0 1 24.54 28.36
  C 26.21 25.02 29.77 21.79 33.65 21.79"
/>
<path stroke="#9999a0" vector-effect="non-scaling-stroke" d="
  M 33.62 43.07
  Q 34.89 43.07 36.17 42.71
  A 1.29 1.28 6.7 0 0 36.94 42.11
  L 38.01 40.25
  A 0.78 0.77 -77.2 0 1 38.59 39.88
  Q 39.14 39.83 39.73 40.14
  A 1.57 1.32 -84.7 0 0 41.59 38.30
  Q 41.30 36.77 41.44 35.29
  Q 41.65 33.14 40.77 32.87
  Q 40.44 32.77 37.69 33.26
  A 0.56 0.56 0.0 0 1 37.33 32.22
  Q 39.09 31.27 40.65 31.57
  A 0.46 0.45 9.2 0 0 41.18 31.19
  C 41.79 27.07 37.17 23.32 33.61 23.33
  C 30.04 23.33 25.42 27.08 26.05 31.20
  A 0.46 0.45 -9.2 0 0 26.57 31.58
  Q 28.13 31.28 29.89 32.23
  A 0.56 0.56 0.0 0 1 29.54 33.27
  Q 26.79 32.78 26.46 32.88
  Q 25.58 33.15 25.79 35.30
  Q 25.93 36.78 25.64 38.31
  A 1.57 1.32 84.6 0 0 27.51 40.15
  Q 28.10 39.84 28.65 39.89
  A 0.78 0.77 77.1 0 1 29.23 40.26
  L 30.30 42.11
  A 1.29 1.28 -6.8 0 0 31.07 42.72
  Q 32.35 43.07 33.62 43.07"
/>
<path stroke="#9999a0" vector-effect="non-scaling-stroke" d="
  M 27.87 41.51
  L 26.48 42.31
  A 0.67 0.67 0.0 0 1 25.54 42.02
  L 24.24 39.28
  A 1.54 1.49 -58.9 0 1 24.09 38.62
  L 24.09 32.13
  A 0.16 0.16 0.0 0 0 23.93 31.97
  L 19.99 31.97
  A 0.31 0.31 0.0 0 0 19.68 32.28
  L 19.68 49.99
  A 1.06 1.06 0.0 0 0 20.74 51.05
  L 28.45 51.05
  A 0.89 0.88 -0.0 0 0 29.34 50.17
  L 29.34 46.60
  A 0.97 0.96 -67.1 0 0 29.07 45.93
  Q 27.95 44.76 28.42 41.88
  A 0.37 0.37 0.0 0 0 27.87 41.51"
/>
<path stroke="#9999a0" vector-effect="non-scaling-stroke" d="
  M 40.86 42.12
  Q 39.89 41.72 39.40 41.74
  A 0.62 0.62 0.0 0 0 38.83 42.48
  Q 39.29 44.85 38.12 45.92
  A 0.78 0.75 -22.1 0 0 37.87 46.48
  L 37.87 50.13
  A 0.91 0.91 0.0 0 0 38.78 51.04
  L 45.69 51.04
  A 0.93 0.93 0.0 0 0 46.62 50.11
  L 46.62 32.59
  A 0.62 0.62 0.0 0 0 46.00 31.97
  L 43.35 31.97
  A 0.52 0.51 -2.0 0 0 42.83 32.52
  L 43.19 38.63
  A 0.82 0.78 -36.6 0 1 43.13 38.98
  L 41.82 41.74
  A 0.75 0.75 0.0 0 1 40.86 42.12"
/>
<path stroke="#9999a0" vector-effect="non-scaling-stroke" d="
  M 30.07 44.24
  Q 29.91 44.65 32.56 45.89
  A 0.44 0.43 -54.4 0 0 33.04 45.80
  Q 33.19 45.65 33.28 45.43
  Q 33.36 45.21 33.34 45.00
  A 0.44 0.43 -84.7 0 0 33.04 44.62
  Q 30.22 43.82 30.07 44.24"
/>
<path stroke="#9999a0" vector-effect="non-scaling-stroke" d="
  M 33.55 45.27
  Q 33.86 45.87 34.34 45.97
  A 0.62 0.61 -70.0 0 0 35.03 45.64
  Q 35.37 44.93 36.65 44.89
  A 0.26 0.26 0.0 0 0 36.68 44.37
  Q 34.77 44.06 33.79 44.55
  A 0.53 0.53 0.0 0 0 33.55 45.27"
/>
<path stroke="#b1b1b9" vector-effect="non-scaling-stroke" d="
  M 33.58 34.69
  Q 34.20 34.70 34.65 33.76
  A 0.22 0.22 0.0 0 0 34.39 33.45
  Q 33.98 33.57 33.60 33.57
  Q 33.22 33.57 32.80 33.44
  A 0.22 0.22 0.0 0 0 32.53 33.74
  Q 32.97 34.69 33.58 34.69"
/>
<path stroke="#9999a0" vector-effect="non-scaling-stroke" d="
  M 40.00 37.55
  L 40.00 34.65
  A 0.55 0.55 0.0 0 0 39.19 34.16
  Q 37.35 35.12 35.45 35.16
  A 0.62 0.62 0.0 0 0 35.10 36.28
  Q 37.09 37.68 39.47 38.02
  A 0.47 0.47 0.0 0 0 40.00 37.55"
/>
<path stroke="#9999a0" vector-effect="non-scaling-stroke" d="
  M 27.34 36.15
  Q 27.35 36.25 27.34 37.63
  A 0.50 0.50 0.0 0 0 28.09 38.07
  Q 30.07 36.95 31.48 36.83
  Q 31.77 36.80 31.99 36.52
  Q 32.19 36.27 32.17 35.95
  Q 32.16 35.64 31.94 35.41
  Q 31.70 35.14 31.41 35.14
  Q 29.99 35.13 27.93 34.18
  A 0.50 0.50 0.0 0 0 27.22 34.68
  Q 27.34 36.06 27.34 36.15"
/>
<path stroke="#9999a0" vector-effect="non-scaling-stroke" d="
  M 33.55 40.05
  Q 33.68 40.05 33.80 40.09
  Q 33.98 40.15 33.99 40.22
  Q 34.02 40.54 34.33 40.69
  A 0.49 0.49 0.0 0 0 35.02 40.08
  Q 34.18 37.87 33.67 37.84
  Q 33.15 37.82 32.09 39.93
  A 0.49 0.49 0.0 0 0 32.71 40.61
  Q 33.03 40.49 33.10 40.17
  Q 33.11 40.10 33.30 40.07
  Q 33.43 40.04 33.55 40.05"
/>
</g>
<path fill="#323241" d="
  M 33.81 88.00
  L 33.04 88.00
  C 21.72 77.72 12.19 65.74 5.68 51.55
  Q 2.14 43.84 1.57 34.90
  C 0.28 14.40 18.51 -1.62 38.97 1.80
  C 54.82 4.46 66.26 18.43 65.44 34.48
  C 64.40 54.91 48.30 74.77 33.81 88.00
  Z
  M 33.40 86.62
  C 34.27 86.62 33.55 86.68 33.78 86.47
  C 46.99 74.24 61.46 56.21 63.84 38.33
  Q 66.64 17.37 48.62 6.45
  Q 42.05 2.47 33.52 2.45
  Q 24.98 2.44 18.40 6.40
  Q 0.36 17.28 3.10 38.25
  C 5.43 56.13 19.85 74.20 33.03 86.47
  C 33.26 86.68 32.54 86.62 33.40 86.62
  Z"
/>
<path fill="#636373" d="
  M 33.52 2.45
  Q 42.05 2.47 48.62 6.45
  Q 66.64 17.37 63.84 38.33
  C 61.46 56.21 46.99 74.24 33.78 86.47
  C 33.55 86.68 34.27 86.62 33.40 86.62
  C 32.54 86.62 33.26 86.68 33.03 86.47
  C 19.85 74.20 5.43 56.13 3.10 38.25
  Q 0.36 17.28 18.40 6.40
  Q 24.98 2.44 33.52 2.45
  Z
  M 48.81 31.95
  L 51.46 31.95
  A 0.81 0.80 0.0 0 0 52.27 31.15
  L 52.27 16.02
  A 0.94 0.94 0.0 0 0 51.33 15.08
  L 44.59 15.08
  A 0.95 0.95 0.0 0 0 43.64 16.03
  L 43.64 18.11
  A 0.33 0.33 0.0 0 1 43.31 18.44
  L 42.86 18.44
  A 0.23 0.23 0.0 0 1 42.63 18.21
  L 42.63 15.85
  A 0.77 0.77 0.0 0 0 41.86 15.08
  L 35.26 15.08
  A 0.84 0.83 1.4 0 0 34.42 15.87
  L 34.31 18.28
  A 0.15 0.12 83.0 0 1 34.25 18.38
  L 34.02 18.52
  A 0.28 0.28 0.0 0 1 33.61 18.34
  L 33.00 15.76
  A 0.87 0.87 0.0 0 0 32.15 15.09
  L 25.76 15.09
  A 0.92 0.91 6.8 0 0 24.87 15.78
  Q 24.65 16.64 24.80 17.69
  A 0.76 0.75 -63.6 0 1 23.40 18.17
  Q 22.92 17.29 23.26 16.18
  A 0.86 0.85 8.7 0 0 22.44 15.07
  L 15.90 15.07
  A 0.85 0.84 90.0 0 0 15.06 15.92
  L 15.06 31.12
  A 0.85 0.84 8.3 0 0 15.67 31.93
  Q 16.25 32.09 17.04 31.87
  A 0.79 0.78 -7.9 0 1 18.04 32.62
  L 18.04 51.78
  A 0.69 0.69 0.0 0 0 18.73 52.47
  L 30.51 52.47
  A 0.39 0.38 -90.0 0 0 30.89 52.08
  L 30.89 48.22
  A 1.10 1.10 0.0 0 1 32.22 47.15
  Q 33.84 47.51 35.03 47.09
  A 0.87 0.87 0.0 0 1 36.19 47.91
  L 36.19 51.92
  A 0.56 0.55 0.0 0 0 36.75 52.47
  L 47.70 52.47
  A 0.57 0.57 0.0 0 0 48.27 51.90
  L 48.27 32.49
  A 0.54 0.54 0.0 0 1 48.81 31.95
  Z"
/>
<path fill="#323241" d="
  M 48.27 32.49
  L 48.27 51.90
  A 0.57 0.57 0.0 0 1 47.70 52.47
  L 36.75 52.47
  A 0.56 0.55 0.0 0 1 36.19 51.92
  L 36.19 47.91
  A 0.87 0.87 0.0 0 0 35.03 47.09
  Q 33.84 47.51 32.22 47.15
  A 1.10 1.10 0.0 0 0 30.89 48.22
  L 30.89 52.08
  A 0.39 0.38 -90.0 0 1 30.51 52.47
  L 18.73 52.47
  A 0.69 0.69 0.0 0 1 18.04 51.78
  L 18.04 32.62
  A 0.79 0.78 -7.9 0 0 17.04 31.87
  Q 16.25 32.09 15.67 31.93
  A 0.85 0.84 8.3 0 1 15.06 31.12
  L 15.06 15.92
  A 0.85 0.84 -90.0 0 1 15.90 15.07
  L 22.44 15.07
  A 0.86 0.85 8.7 0 1 23.26 16.18
  Q 22.92 17.29 23.40 18.17
  A 0.76 0.75 -63.6 0 0 24.80 17.69
  Q 24.65 16.64 24.87 15.78
  A 0.92 0.91 6.8 0 1 25.76 15.09
  L 32.15 15.09
  A 0.87 0.87 0.0 0 1 33.00 15.76
  L 33.61 18.34
  A 0.28 0.28 0.0 0 0 34.02 18.52
  L 34.25 18.38
  A 0.15 0.12 83.0 0 0 34.31 18.28
  L 34.42 15.87
  A 0.84 0.83 1.4 0 1 35.26 15.08
  L 41.86 15.08
  A 0.77 0.77 0.0 0 1 42.63 15.85
  L 42.63 18.21
  A 0.23 0.23 0.0 0 0 42.86 18.44
  L 43.31 18.44
  A 0.33 0.33 0.0 0 0 43.64 18.11
  L 43.64 16.03
  A 0.95 0.95 0.0 0 1 44.59 15.08
  L 51.33 15.08
  A 0.94 0.94 0.0 0 1 52.27 16.02
  L 52.27 31.15
  A 0.81 0.80 -0.0 0 1 51.46 31.95
  L 48.81 31.95
  A 0.54 0.54 0.0 0 0 48.27 32.49
  Z
  M 33.65 21.79
  C 37.53 21.79 41.08 25.03 42.74 28.38
  A 0.80 0.79 -58.1 0 1 42.82 28.72
  L 42.82 29.83
  A 0.51 0.51 0.0 0 0 43.33 30.34
  L 50.14 30.34
  A 0.48 0.48 0.0 0 0 50.62 29.86
  L 50.62 17.36
  A 0.67 0.67 0.0 0 0 49.95 16.69
  L 46.27 16.69
  A 0.64 0.63 0.0 0 0 45.63 17.32
  L 45.63 19.06
  A 0.93 0.93 0.0 0 1 44.70 19.99
  L 41.73 19.99
  A 0.73 0.73 0.0 0 1 41.00 19.26
  L 41.00 17.28
  A 0.60 0.60 0.0 0 0 40.40 16.68
  L 36.59 16.68
  A 0.61 0.61 0.0 0 0 35.98 17.29
  L 35.98 19.13
  A 0.78 0.78 0.0 0 1 35.28 19.91
  Q 34.47 19.99 33.65 19.99
  Q 32.83 19.99 32.02 19.90
  A 0.78 0.78 0.0 0 1 31.32 19.13
  L 31.32 17.29
  A 0.61 0.61 0.0 0 0 30.71 16.67
  L 26.90 16.67
  A 0.60 0.60 0.0 0 0 26.30 17.27
  L 26.30 19.25
  A 0.73 0.73 0.0 0 1 25.57 19.98
  L 22.60 19.97
  A 0.93 0.93 0.0 0 1 21.67 19.04
  L 21.67 17.30
  A 0.64 0.63 0.1 0 0 21.03 16.67
  L 17.35 16.66
  A 0.67 0.67 0.0 0 0 16.68 17.33
  L 16.66 29.83
  A 0.48 0.48 0.0 0 0 17.14 30.31
  L 23.95 30.32
  A 0.51 0.51 0.0 0 0 24.46 29.81
  L 24.46 28.70
  A 0.80 0.79 58.2 0 1 24.54 28.36
  C 26.21 25.02 29.77 21.79 33.65 21.79
  Z
  M 33.62 43.07
  Q 34.89 43.07 36.17 42.71
  A 1.29 1.28 6.7 0 0 36.94 42.11
  L 38.01 40.25
  A 0.78 0.77 -77.2 0 1 38.59 39.88
  Q 39.14 39.83 39.73 40.14
  A 1.57 1.32 -84.7 0 0 41.59 38.30
  Q 41.30 36.77 41.44 35.29
  Q 41.65 33.14 40.77 32.87
  Q 40.44 32.77 37.69 33.26
  A 0.56 0.56 0.0 0 1 37.33 32.22
  Q 39.09 31.27 40.65 31.57
  A 0.46 0.45 9.2 0 0 41.18 31.19
  C 41.79 27.07 37.17 23.32 33.61 23.33
  C 30.04 23.33 25.42 27.08 26.05 31.20
  A 0.46 0.45 -9.2 0 0 26.57 31.58
  Q 28.13 31.28 29.89 32.23
  A 0.56 0.56 0.0 0 1 29.54 33.27
  Q 26.79 32.78 26.46 32.88
  Q 25.58 33.15 25.79 35.30
  Q 25.93 36.78 25.64 38.31
  A 1.57 1.32 84.6 0 0 27.51 40.15
  Q 28.10 39.84 28.65 39.89
  A 0.78 0.77 77.1 0 1 29.23 40.26
  L 30.30 42.11
  A 1.29 1.28 -6.8 0 0 31.07 42.72
  Q 32.35 43.07 33.62 43.07
  Z
  M 27.87 41.51
  L 26.48 42.31
  A 0.67 0.67 0.0 0 1 25.54 42.02
  L 24.24 39.28
  A 1.54 1.49 -58.9 0 1 24.09 38.62
  L 24.09 32.13
  A 0.16 0.16 0.0 0 0 23.93 31.97
  L 19.99 31.97
  A 0.31 0.31 0.0 0 0 19.68 32.28
  L 19.68 49.99
  A 1.06 1.06 0.0 0 0 20.74 51.05
  L 28.45 51.05
  A 0.89 0.88 -0.0 0 0 29.34 50.17
  L 29.34 46.60
  A 0.97 0.96 -67.1 0 0 29.07 45.93
  Q 27.95 44.76 28.42 41.88
  A 0.37 0.37 0.0 0 0 27.87 41.51
  Z
  M 40.86 42.12
  Q 39.89 41.72 39.40 41.74
  A 0.62 0.62 0.0 0 0 38.83 42.48
  Q 39.29 44.85 38.12 45.92
  A 0.78 0.75 -22.1 0 0 37.87 46.48
  L 37.87 50.13
  A 0.91 0.91 0.0 0 0 38.78 51.04
  L 45.69 51.04
  A 0.93 0.93 0.0 0 0 46.62 50.11
  L 46.62 32.59
  A 0.62 0.62 0.0 0 0 46.00 31.97
  L 43.35 31.97
  A 0.52 0.51 -2.0 0 0 42.83 32.52
  L 43.19 38.63
  A 0.82 0.78 -36.6 0 1 43.13 38.98
  L 41.82 41.74
  A 0.75 0.75 0.0 0 1 40.86 42.12
  Z
  M 30.07 44.24
  Q 29.91 44.65 32.56 45.89
  A 0.44 0.43 -54.4 0 0 33.04 45.80
  Q 33.19 45.65 33.28 45.43
  Q 33.36 45.21 33.34 45.00
  A 0.44 0.43 -84.7 0 0 33.04 44.62
  Q 30.22 43.82 30.07 44.24
  Z
  M 33.55 45.27
  Q 33.86 45.87 34.34 45.97
  A 0.62 0.61 -70.0 0 0 35.03 45.64
  Q 35.37 44.93 36.65 44.89
  A 0.26 0.26 0.0 0 0 36.68 44.37
  Q 34.77 44.06 33.79 44.55
  A 0.53 0.53 0.0 0 0 33.55 45.27
  Z"
/>
<path fill="#ffffff" d="
  M 33.65 19.99
  Q 34.47 19.99 35.28 19.91
  A 0.78 0.78 0.0 0 0 35.98 19.13
  L 35.98 17.29
  A 0.61 0.61 0.0 0 1 36.59 16.68
  L 40.40 16.68
  A 0.60 0.60 0.0 0 1 41.00 17.28
  L 41.00 19.26
  A 0.73 0.73 0.0 0 0 41.73 19.99
  L 44.70 19.99
  A 0.93 0.93 0.0 0 0 45.63 19.06
  L 45.63 17.32
  A 0.64 0.63 -0.0 0 1 46.27 16.69
  L 49.95 16.69
  A 0.67 0.67 0.0 0 1 50.62 17.36
  L 50.62 29.86
  A 0.48 0.48 0.0 0 1 50.14 30.34
  L 43.33 30.34
  A 0.51 0.51 0.0 0 1 42.82 29.83
  L 42.82 28.72
  A 0.80 0.79 -58.1 0 0 42.74 28.38
  C 41.08 25.03 37.53 21.79 33.65 21.79
  C 29.77 21.79 26.21 25.02 24.54 28.36
  A 0.80 0.79 58.2 0 0 24.46 28.70
  L 24.46 29.81
  A 0.51 0.51 0.0 0 1 23.95 30.32
  L 17.14 30.31
  A 0.48 0.48 0.0 0 1 16.66 29.83
  L 16.68 17.33
  A 0.67 0.67 0.0 0 1 17.35 16.66
  L 21.03 16.67
  A 0.64 0.63 0.1 0 1 21.67 17.30
  L 21.67 19.04
  A 0.93 0.93 0.0 0 0 22.60 19.97
  L 25.57 19.98
  A 0.73 0.73 0.0 0 0 26.30 19.25
  L 26.30 17.27
  A 0.60 0.60 0.0 0 1 26.90 16.67
  L 30.71 16.67
  A 0.61 0.61 0.0 0 1 31.32 17.29
  L 31.32 19.13
  A 0.78 0.78 0.0 0 0 32.02 19.90
  Q 32.83 19.99 33.65 19.99
  Z"
/>
<path fill="#ffffff" d="
  M 33.61 23.33
  C 37.17 23.32 41.79 27.07 41.18 31.19
  A 0.46 0.45 9.2 0 1 40.65 31.57
  Q 39.09 31.27 37.33 32.22
  A 0.56 0.56 0.0 0 0 37.69 33.26
  Q 40.44 32.77 40.77 32.87
  Q 41.65 33.14 41.44 35.29
  Q 41.30 36.77 41.59 38.30
  A 1.57 1.32 -84.7 0 1 39.73 40.14
  Q 39.14 39.83 38.59 39.88
  A 0.78 0.77 -77.2 0 0 38.01 40.25
  L 36.94 42.11
  A 1.29 1.28 6.7 0 1 36.17 42.71
  Q 34.89 43.07 33.62 43.07
  Q 32.35 43.07 31.07 42.72
  A 1.29 1.28 -6.8 0 1 30.30 42.11
  L 29.23 40.26
  A 0.78 0.77 77.1 0 0 28.65 39.89
  Q 28.10 39.84 27.51 40.15
  A 1.57 1.32 84.6 0 1 25.64 38.31
  Q 25.93 36.78 25.79 35.30
  Q 25.58 33.15 26.46 32.88
  Q 26.79 32.78 29.54 33.27
  A 0.56 0.56 0.0 0 0 29.89 32.23
  Q 28.13 31.28 26.57 31.58
  A 0.46 0.45 -9.2 0 1 26.05 31.20
  C 25.42 27.08 30.04 23.33 33.61 23.33
  Z
  M 33.58 34.69
  Q 34.20 34.70 34.65 33.76
  A 0.22 0.22 0.0 0 0 34.39 33.45
  Q 33.98 33.57 33.60 33.57
  Q 33.22 33.57 32.80 33.44
  A 0.22 0.22 0.0 0 0 32.53 33.74
  Q 32.97 34.69 33.58 34.69
  Z
  M 40.00 37.55
  L 40.00 34.65
  A 0.55 0.55 0.0 0 0 39.19 34.16
  Q 37.35 35.12 35.45 35.16
  A 0.62 0.62 0.0 0 0 35.10 36.28
  Q 37.09 37.68 39.47 38.02
  A 0.47 0.47 0.0 0 0 40.00 37.55
  Z
  M 27.34 36.15
  Q 27.35 36.25 27.34 37.63
  A 0.50 0.50 0.0 0 0 28.09 38.07
  Q 30.07 36.95 31.48 36.83
  Q 31.77 36.80 31.99 36.52
  Q 32.19 36.27 32.17 35.95
  Q 32.16 35.64 31.94 35.41
  Q 31.70 35.14 31.41 35.14
  Q 29.99 35.13 27.93 34.18
  A 0.50 0.50 0.0 0 0 27.22 34.68
  Q 27.34 36.06 27.34 36.15
  Z
  M 33.55 40.05
  Q 33.68 40.05 33.80 40.09
  Q 33.98 40.15 33.99 40.22
  Q 34.02 40.54 34.33 40.69
  A 0.49 0.49 0.0 0 0 35.02 40.08
  Q 34.18 37.87 33.67 37.84
  Q 33.15 37.82 32.09 39.93
  A 0.49 0.49 0.0 0 0 32.71 40.61
  Q 33.03 40.49 33.10 40.17
  Q 33.11 40.10 33.30 40.07
  Q 33.43 40.04 33.55 40.05
  Z"
/>
<path fill="#ffffff" d="
  M 27.87 41.51
  A 0.37 0.37 0.0 0 1 28.42 41.88
  Q 27.95 44.76 29.07 45.93
  A 0.97 0.96 -67.1 0 1 29.34 46.60
  L 29.34 50.17
  A 0.89 0.88 0.0 0 1 28.45 51.05
  L 20.74 51.05
  A 1.06 1.06 0.0 0 1 19.68 49.99
  L 19.68 32.28
  A 0.31 0.31 0.0 0 1 19.99 31.97
  L 23.93 31.97
  A 0.16 0.16 0.0 0 1 24.09 32.13
  L 24.09 38.62
  A 1.54 1.49 -58.9 0 0 24.24 39.28
  L 25.54 42.02
  A 0.67 0.67 0.0 0 0 26.48 42.31
  L 27.87 41.51
  Z"
/>
<path fill="#ffffff" d="
  M 41.82 41.74
  L 43.13 38.98
  A 0.82 0.78 -36.6 0 0 43.19 38.63
  L 42.83 32.52
  A 0.52 0.51 -2.0 0 1 43.35 31.97
  L 46.00 31.97
  A 0.62 0.62 0.0 0 1 46.62 32.59
  L 46.62 50.11
  A 0.93 0.93 0.0 0 1 45.69 51.04
  L 38.78 51.04
  A 0.91 0.91 0.0 0 1 37.87 50.13
  L 37.87 46.48
  A 0.78 0.75 -22.1 0 1 38.12 45.92
  Q 39.29 44.85 38.83 42.48
  A 0.62 0.62 0.0 0 1 39.40 41.74
  Q 39.89 41.72 40.86 42.12
  A 0.75 0.75 0.0 0 0 41.82 41.74
  Z"
/>
<path fill="#636373" d="
  M 33.60 33.57
  Q 33.98 33.57 34.39 33.45
  A 0.22 0.22 0.0 0 1 34.65 33.76
  Q 34.20 34.70 33.58 34.69
  Q 32.97 34.69 32.53 33.74
  A 0.22 0.22 0.0 0 1 32.80 33.44
  Q 33.22 33.57 33.60 33.57
  Z"
/>
<path fill="#323241" d="
  M 39.47 38.02
  Q 37.09 37.68 35.10 36.28
  A 0.62 0.62 0.0 0 1 35.45 35.16
  Q 37.35 35.12 39.19 34.16
  A 0.55 0.55 0.0 0 1 40.00 34.65
  L 40.00 37.55
  A 0.47 0.47 0.0 0 1 39.47 38.02
  Z"
/>
<path fill="#323241" d="
  M 32.17 35.95
  Q 32.19 36.27 31.99 36.52
  Q 31.77 36.80 31.48 36.83
  Q 30.07 36.95 28.09 38.07
  A 0.50 0.50 0.0 0 1 27.34 37.63
  Q 27.35 36.25 27.34 36.15
  Q 27.34 36.06 27.22 34.68
  A 0.50 0.50 0.0 0 1 27.93 34.18
  Q 29.99 35.13 31.41 35.14
  Q 31.70 35.14 31.94 35.41
  Q 32.16 35.64 32.17 35.95
  Z"
/>
<path fill="#323241" d="
  M 33.67 37.84
  Q 34.18 37.87 35.02 40.08
  A 0.49 0.49 0.0 0 1 34.33 40.69
  Q 34.02 40.54 33.99 40.22
  Q 33.98 40.15 33.80 40.09
  Q 33.68 40.05 33.55 40.05
  Q 33.43 40.04 33.30 40.07
  Q 33.11 40.10 33.10 40.17
  Q 33.03 40.49 32.71 40.61
  A 0.49 0.49 0.0 0 1 32.09 39.93
  Q 33.15 37.82 33.67 37.84
  Z"
/>
<path fill="#ffffff" d="
  M 33.28 45.43
  Q 33.19 45.65 33.04 45.80
  A 0.44 0.43 -54.4 0 1 32.56 45.89
  Q 29.91 44.65 30.07 44.24
  Q 30.22 43.82 33.04 44.62
  A 0.44 0.43 -84.7 0 1 33.34 45.00
  Q 33.36 45.21 33.28 45.43
  Z"
/>
<path fill="#ffffff" d="
  M 33.79 44.55
  Q 34.77 44.06 36.68 44.37
  A 0.26 0.26 0.0 0 1 36.65 44.89
  Q 35.37 44.93 35.03 45.64
  A 0.62 0.61 -70.0 0 1 34.34 45.97
  Q 33.86 45.87 33.55 45.27
  A 0.53 0.53 0.0 0 1 33.79 44.55
  Z"
/>
</svg>
