<?xml version="1.0" encoding="UTF-8" standalone="no"?>
<!DOCTYPE svg PUBLIC "-//W3C//DTD SVG 1.1//EN" "http://www.w3.org/Graphics/SVG/1.1/DTD/svg11.dtd">
<svg xmlns="http://www.w3.org/2000/svg" version="1.1" viewBox="0.00 0.00 66.00 88.00">
<g stroke-width="2.00" fill="none" stroke-linecap="butt">
<path stroke="#4a4b57" vector-effect="non-scaling-stroke" d="
  M 33.43 86.62
  C 34.17 86.62 33.57 86.68 33.79 86.47
  Q 47.58 73.67 56.60 58.35
  C 64.76 44.47 68.57 26.32 56.75 13.02
  Q 48.05 3.24 34.75 2.49
  Q 34.13 2.46 33.50 2.46
  Q 32.87 2.46 32.24 2.49
  Q 18.94 3.22 10.23 12.98
  C -1.61 26.26 2.16 44.42 10.30 58.31
  Q 19.30 73.65 33.06 86.47
  C 33.28 86.68 32.69 86.62 33.43 86.62"
/>
<path stroke="#4c4c5c" vector-effect="non-scaling-stroke" d="
  M 33.29 54.28
  Q 39.68 54.30 39.70 54.30
  A 0.67 0.66 -89.5 0 0 40.30 53.71
  Q 40.77 49.48 39.92 47.75
  A 0.73 0.73 0.0 0 1 39.90 47.12
  L 44.58 36.72
  A 1.07 1.07 0.0 0 0 44.47 35.66
  L 39.97 29.31
  A 0.71 0.70 49.8 0 1 40.04 28.40
  L 46.60 21.84
  A 0.50 0.49 45.4 0 0 46.60 21.15
  L 39.51 14.08
  A 1.77 1.76 -20.6 0 0 38.34 13.55
  Q 37.68 13.49 33.40 13.47
  Q 29.13 13.46 28.46 13.53
  A 1.77 1.76 20.9 0 0 27.29 14.05
  L 20.16 21.08
  A 0.50 0.49 -45.1 0 0 20.16 21.77
  L 26.68 28.36
  A 0.71 0.70 -49.5 0 1 26.75 29.27
  L 22.21 35.60
  A 1.07 1.07 0.0 0 0 22.10 36.66
  L 26.72 47.08
  A 0.73 0.73 0.0 0 1 26.70 47.71
  Q 25.84 49.44 26.28 53.67
  A 0.67 0.66 89.8 0 0 26.88 54.27
  Q 26.90 54.27 33.29 54.28"
/>
<path stroke="#9a9aa2" vector-effect="non-scaling-stroke" d="
  M 33.27 17.81
  Q 36.49 17.80 36.54 17.81
  A 1.78 1.78 0.0 0 1 37.67 18.26
  L 40.78 21.10
  A 0.63 0.62 -46.5 0 1 40.80 22.01
  L 39.43 23.38
  A 1.92 1.85 -23.3 0 0 38.87 24.71
  L 38.87 26.46
  A 0.32 0.32 0.0 0 0 39.42 26.68
  L 44.05 22.06
  A 0.70 0.69 -45.3 0 0 44.05 21.07
  L 38.64 15.69
  A 1.51 1.50 69.2 0 0 37.68 15.25
  Q 37.15 15.20 33.26 15.20
  Q 29.38 15.21 28.85 15.26
  A 1.51 1.50 -69.4 0 0 27.89 15.70
  L 22.49 21.10
  A 0.70 0.69 45.1 0 0 22.50 22.09
  L 27.14 26.70
  A 0.32 0.32 0.0 0 0 27.69 26.47
  L 27.68 24.72
  A 1.92 1.85 23.2 0 0 27.12 23.40
  L 25.75 22.03
  A 0.63 0.62 46.4 0 1 25.76 21.12
  L 28.87 18.27
  A 1.78 1.78 0.0 0 1 29.99 17.82
  Q 30.05 17.81 33.27 17.81"
/>
<path stroke="#4c4c5c" vector-effect="non-scaling-stroke" d="
  M 38.04 20.70
  L 36.83 19.49
  A 1.86 1.84 -22.3 0 0 35.52 18.95
  L 30.59 18.95
  A 1.30 1.30 0.0 0 0 29.67 19.33
  L 28.66 20.34
  A 1.67 1.67 0.0 0 0 29.84 23.19
  L 37.01 23.19
  A 1.46 1.46 0.0 0 0 38.04 20.70"
/>
<path stroke="#9a9aa2" vector-effect="non-scaling-stroke" d="
  M 36.7847 25.2492
  A 0.52 0.52 0.0 0 0 36.2674 24.7265
  L 29.9675 24.6935
  A 0.52 0.52 0.0 0 0 29.4448 25.2108
  L 29.4353 27.0308
  A 0.52 0.52 0.0 0 0 29.9526 27.5535
  L 36.2525 27.5865
  A 0.52 0.52 0.0 0 0 36.7752 27.0692
  L 36.7847 25.2492"
/>
<path stroke="#9a9aa2" vector-effect="non-scaling-stroke" d="
  M 24.82 35.21
  A 0.40 0.40 0.0 0 0 25.16 35.81
  L 41.78 35.81
  A 0.40 0.40 0.0 0 0 42.11 35.18
  L 38.15 29.61
  A 0.40 0.40 0.0 0 0 37.82 29.44
  L 28.38 29.44
  A 0.40 0.40 0.0 0 0 28.03 29.64
  L 24.82 35.21"
/>
<path stroke="#9a9aa2" vector-effect="non-scaling-stroke" d="
  M 42.67 37.27
  A 0.33 0.33 0.0 0 0 42.37 36.80
  L 24.44 36.80
  A 0.33 0.33 0.0 0 0 24.14 37.26
  L 28.31 47.37
  A 0.33 0.33 0.0 0 0 28.61 47.57
  L 37.83 47.57
  A 0.33 0.33 0.0 0 0 38.13 47.38
  L 42.67 37.27"
/>
<path stroke="#9a9aa2" vector-effect="non-scaling-stroke" d="
  M 39.0319 50.1799
  A 0.46 0.46 0.0 0 0 38.5727 49.7191
  L 28.1727 49.7009
  A 0.46 0.46 0.0 0 0 27.7119 50.1601
  L 27.7081 52.3401
  A 0.46 0.46 0.0 0 0 28.1673 52.8009
  L 38.5673 52.8191
  A 0.46 0.46 0.0 0 0 39.0281 52.3599
  L 39.0319 50.1799"
/>
</g>
<path fill="#31333b" d="
  M 33.80 88.00
  L 33.04 88.00
  C 21.89 77.87 11.86 65.43 5.57 51.42
  Q 2.20 43.90 1.59 34.83
  C 0.57 19.44 10.67 6.37 25.29 2.37
  C 36.37 -0.66 48.95 2.81 56.94 11.44
  Q 67.86 23.24 64.84 39.75
  Q 62.54 52.31 54.57 64.07
  Q 45.67 77.20 33.80 88.00
  Z
  M 33.43 86.62
  C 34.17 86.62 33.57 86.68 33.79 86.47
  Q 47.58 73.67 56.60 58.35
  C 64.76 44.47 68.57 26.32 56.75 13.02
  Q 48.05 3.24 34.75 2.49
  Q 34.13 2.46 33.50 2.46
  Q 32.87 2.46 32.24 2.49
  Q 18.94 3.22 10.23 12.98
  C -1.61 26.26 2.16 44.42 10.30 58.31
  Q 19.30 73.65 33.06 86.47
  C 33.28 86.68 32.69 86.62 33.43 86.62
  Z"
/>
<path fill="#636373" d="
  M 33.50 2.46
  Q 34.13 2.46 34.75 2.49
  Q 48.05 3.24 56.75 13.02
  C 68.57 26.32 64.76 44.47 56.60 58.35
  Q 47.58 73.67 33.79 86.47
  C 33.57 86.68 34.17 86.62 33.43 86.62
  C 32.69 86.62 33.28 86.68 33.06 86.47
  Q 19.30 73.65 10.30 58.31
  C 2.16 44.42 -1.61 26.26 10.23 12.98
  Q 18.94 3.22 32.24 2.49
  Q 32.87 2.46 33.50 2.46
  Z
  M 33.29 54.28
  Q 39.68 54.30 39.70 54.30
  A 0.67 0.66 -89.5 0 0 40.30 53.71
  Q 40.77 49.48 39.92 47.75
  A 0.73 0.73 0.0 0 1 39.90 47.12
  L 44.58 36.72
  A 1.07 1.07 0.0 0 0 44.47 35.66
  L 39.97 29.31
  A 0.71 0.70 49.8 0 1 40.04 28.40
  L 46.60 21.84
  A 0.50 0.49 45.4 0 0 46.60 21.15
  L 39.51 14.08
  A 1.77 1.76 -20.6 0 0 38.34 13.55
  Q 37.68 13.49 33.40 13.47
  Q 29.13 13.46 28.46 13.53
  A 1.77 1.76 20.9 0 0 27.29 14.05
  L 20.16 21.08
  A 0.50 0.49 -45.1 0 0 20.16 21.77
  L 26.68 28.36
  A 0.71 0.70 -49.5 0 1 26.75 29.27
  L 22.21 35.60
  A 1.07 1.07 0.0 0 0 22.10 36.66
  L 26.72 47.08
  A 0.73 0.73 0.0 0 1 26.70 47.71
  Q 25.84 49.44 26.28 53.67
  A 0.67 0.66 89.8 0 0 26.88 54.27
  Q 26.90 54.27 33.29 54.28
  Z"
/>
<path fill="#343444" d="
  M 33.40 13.47
  Q 37.68 13.49 38.34 13.55
  A 1.77 1.76 -20.6 0 1 39.51 14.08
  L 46.60 21.15
  A 0.50 0.49 45.4 0 1 46.60 21.84
  L 40.04 28.40
  A 0.71 0.70 49.8 0 0 39.97 29.31
  L 44.47 35.66
  A 1.07 1.07 0.0 0 1 44.58 36.72
  L 39.90 47.12
  A 0.73 0.73 0.0 0 0 39.92 47.75
  Q 40.77 49.48 40.30 53.71
  A 0.67 0.66 -89.5 0 1 39.70 54.30
  Q 39.68 54.30 33.29 54.28
  Q 26.90 54.27 26.88 54.27
  A 0.67 0.66 89.8 0 1 26.28 53.67
  Q 25.84 49.44 26.70 47.71
  A 0.73 0.73 0.0 0 0 26.72 47.08
  L 22.10 36.66
  A 1.07 1.07 0.0 0 1 22.21 35.60
  L 26.75 29.27
  A 0.71 0.70 -49.5 0 0 26.68 28.36
  L 20.16 21.77
  A 0.50 0.49 -45.1 0 1 20.16 21.08
  L 27.29 14.05
  A 1.77 1.76 20.9 0 1 28.46 13.53
  Q 29.13 13.46 33.40 13.47
  Z
  M 33.27 17.81
  Q 36.49 17.80 36.54 17.81
  A 1.78 1.78 0.0 0 1 37.67 18.26
  L 40.78 21.10
  A 0.63 0.62 -46.5 0 1 40.80 22.01
  L 39.43 23.38
  A 1.92 1.85 -23.3 0 0 38.87 24.71
  L 38.87 26.46
  A 0.32 0.32 0.0 0 0 39.42 26.68
  L 44.05 22.06
  A 0.70 0.69 -45.3 0 0 44.05 21.07
  L 38.64 15.69
  A 1.51 1.50 69.2 0 0 37.68 15.25
  Q 37.15 15.20 33.26 15.20
  Q 29.38 15.21 28.85 15.26
  A 1.51 1.50 -69.4 0 0 27.89 15.70
  L 22.49 21.10
  A 0.70 0.69 45.1 0 0 22.50 22.09
  L 27.14 26.70
  A 0.32 0.32 0.0 0 0 27.69 26.47
  L 27.68 24.72
  A 1.92 1.85 23.2 0 0 27.12 23.40
  L 25.75 22.03
  A 0.63 0.62 46.4 0 1 25.76 21.12
  L 28.87 18.27
  A 1.78 1.78 0.0 0 1 29.99 17.82
  Q 30.05 17.81 33.27 17.81
  Z
  M 38.04 20.70
  L 36.83 19.49
  A 1.86 1.84 -22.3 0 0 35.52 18.95
  L 30.59 18.95
  A 1.30 1.30 0.0 0 0 29.67 19.33
  L 28.66 20.34
  A 1.67 1.67 0.0 0 0 29.84 23.19
  L 37.01 23.19
  A 1.46 1.46 0.0 0 0 38.04 20.70
  Z
  M 36.7847 25.2492
  A 0.52 0.52 0.0 0 0 36.2674 24.7265
  L 29.9675 24.6935
  A 0.52 0.52 0.0 0 0 29.4448 25.2108
  L 29.4353 27.0308
  A 0.52 0.52 0.0 0 0 29.9526 27.5535
  L 36.2525 27.5865
  A 0.52 0.52 0.0 0 0 36.7752 27.0692
  L 36.7847 25.2492
  Z
  M 24.82 35.21
  A 0.40 0.40 0.0 0 0 25.16 35.81
  L 41.78 35.81
  A 0.40 0.40 0.0 0 0 42.11 35.18
  L 38.15 29.61
  A 0.40 0.40 0.0 0 0 37.82 29.44
  L 28.38 29.44
  A 0.40 0.40 0.0 0 0 28.03 29.64
  L 24.82 35.21
  Z
  M 42.67 37.27
  A 0.33 0.33 0.0 0 0 42.37 36.80
  L 24.44 36.80
  A 0.33 0.33 0.0 0 0 24.14 37.26
  L 28.31 47.37
  A 0.33 0.33 0.0 0 0 28.61 47.57
  L 37.83 47.57
  A 0.33 0.33 0.0 0 0 38.13 47.38
  L 42.67 37.27
  Z
  M 39.0319 50.1799
  A 0.46 0.46 0.0 0 0 38.5727 49.7191
  L 28.1727 49.7009
  A 0.46 0.46 0.0 0 0 27.7119 50.1601
  L 27.7081 52.3401
  A 0.46 0.46 0.0 0 0 28.1673 52.8009
  L 38.5673 52.8191
  A 0.46 0.46 0.0 0 0 39.0281 52.3599
  L 39.0319 50.1799
  Z"
/>
<path fill="#ffffff" d="
  M 33.26 15.20
  Q 37.15 15.20 37.68 15.25
  A 1.51 1.50 69.2 0 1 38.64 15.69
  L 44.05 21.07
  A 0.70 0.69 -45.3 0 1 44.05 22.06
  L 39.42 26.68
  A 0.32 0.32 0.0 0 1 38.87 26.46
  L 38.87 24.71
  A 1.92 1.85 -23.3 0 1 39.43 23.38
  L 40.80 22.01
  A 0.63 0.62 -46.5 0 0 40.78 21.10
  L 37.67 18.26
  A 1.78 1.78 0.0 0 0 36.54 17.81
  Q 36.49 17.80 33.27 17.81
  Q 30.05 17.81 29.99 17.82
  A 1.78 1.78 0.0 0 0 28.87 18.27
  L 25.76 21.12
  A 0.63 0.62 46.4 0 0 25.75 22.03
  L 27.12 23.40
  A 1.92 1.85 23.2 0 1 27.68 24.72
  L 27.69 26.47
  A 0.32 0.32 0.0 0 1 27.14 26.70
  L 22.50 22.09
  A 0.70 0.69 45.1 0 1 22.49 21.10
  L 27.89 15.70
  A 1.51 1.50 -69.4 0 1 28.85 15.26
  Q 29.38 15.21 33.26 15.20
  Z"
/>
<path fill="#636373" d="
  M 38.04 20.70
  A 1.46 1.46 0.0 0 1 37.01 23.19
  L 29.84 23.19
  A 1.67 1.67 0.0 0 1 28.66 20.34
  L 29.67 19.33
  A 1.30 1.30 0.0 0 1 30.59 18.95
  L 35.52 18.95
  A 1.86 1.84 -22.3 0 1 36.83 19.49
  L 38.04 20.70
  Z"
/>
<rect fill="#ffffff" x="-3.67" y="-1.43" transform="translate(33.11,26.14) rotate(0.3)" width="7.34" height="2.86" rx="0.52"/>
<path fill="#ffffff" d="
  M 24.82 35.21
  L 28.03 29.64
  A 0.40 0.40 0.0 0 1 28.38 29.44
  L 37.82 29.44
  A 0.40 0.40 0.0 0 1 38.15 29.61
  L 42.11 35.18
  A 0.40 0.40 0.0 0 1 41.78 35.81
  L 25.16 35.81
  A 0.40 0.40 0.0 0 1 24.82 35.21
  Z"
/>
<path fill="#ffffff" d="
  M 42.67 37.27
  L 38.13 47.38
  A 0.33 0.33 0.0 0 1 37.83 47.57
  L 28.61 47.57
  A 0.33 0.33 0.0 0 1 28.31 47.37
  L 24.14 37.26
  A 0.33 0.33 0.0 0 1 24.44 36.80
  L 42.37 36.80
  A 0.33 0.33 0.0 0 1 42.67 37.27
  Z"
/>
<rect fill="#ffffff" x="-5.66" y="-1.55" transform="translate(33.37,51.26) rotate(0.1)" width="11.32" height="3.10" rx="0.46"/>
</svg>
