<?xml version="1.0" encoding="UTF-8" standalone="no"?>
<!DOCTYPE svg PUBLIC "-//W3C//DTD SVG 1.1//EN" "http://www.w3.org/Graphics/SVG/1.1/DTD/svg11.dtd">
<svg xmlns="http://www.w3.org/2000/svg" version="1.1" viewBox="0.00 0.00 66.00 88.00">
<g stroke-width="2.00" fill="none" stroke-linecap="butt">
<path stroke="#4a4b57" vector-effect="non-scaling-stroke" d="
  M 33.41 86.62
  C 34.16 86.62 33.56 86.68 33.79 86.46
  Q 47.27 73.89 55.94 59.46
  C 63.60 46.72 68.11 30.29 59.83 17.11
  C 54.16 8.09 44.31 2.47 33.51 2.45
  C 22.71 2.44 12.85 8.04 7.16 17.05
  C -1.15 30.21 3.32 46.65 10.94 59.41
  Q 19.58 73.86 33.02 86.46
  C 33.26 86.68 32.66 86.62 33.41 86.62"
/>
<path stroke="#4c4c5b" vector-effect="non-scaling-stroke" d="
  M 33.06 55.40
  Q 33.11 55.40 33.15 55.39
  A 0.28 0.26 21.7 0 0 33.32 55.33
  L 37.52 51.52
  A 0.97 0.89 -17.6 0 0 37.79 51.05
  L 38.58 47.81
  A 2.11 2.00 72.8 0 1 38.96 47.04
  C 40.21 45.47 42.23 45.00 43.39 43.40
  C 45.21 40.88 45.40 35.70 45.23 32.81
  A 1.79 1.75 62.8 0 1 45.59 31.65
  Q 45.79 31.39 47.03 30.07
  Q 51.03 25.82 48.04 18.79
  A 1.38 1.38 0.0 0 0 45.80 18.35
  L 44.92 19.24
  A 0.80 0.79 69.8 0 0 44.69 19.75
  Q 44.57 22.05 43.34 24.78
  A 0.09 0.08 -70.3 0 1 43.24 24.83
  L 42.99 24.77
  A 0.27 0.26 15.8 0 1 42.80 24.44
  Q 44.81 18.09 40.92 13.20
  A 1.03 1.01 62.4 0 0 39.84 12.85
  Q 39.05 13.08 38.05 13.81
  A 0.99 0.99 0.0 0 0 37.68 14.92
  C 39.18 19.74 36.28 22.32 33.42 25.84
  C 33.37 25.91 33.22 25.91 33.14 25.91
  C 33.06 25.91 32.91 25.91 32.86 25.84
  C 30.02 22.30 27.13 19.71 28.66 14.90
  A 0.99 0.99 0.0 0 0 28.29 13.78
  Q 27.29 13.05 26.51 12.82
  A 1.03 1.01 -62.1 0 0 25.42 13.16
  Q 21.51 18.03 23.49 24.39
  A 0.27 0.26 -15.5 0 1 23.29 24.72
  L 23.04 24.78
  A 0.09 0.08 70.6 0 1 22.94 24.73
  Q 21.73 21.99 21.62 19.69
  A 0.80 0.79 -69.5 0 0 21.39 19.18
  L 20.52 18.28
  A 1.38 1.38 0.0 0 0 18.28 18.71
  Q 15.25 25.73 19.23 30.00
  Q 20.46 31.32 20.66 31.59
  A 1.79 1.75 -62.5 0 1 21.01 32.75
  C 20.83 35.64 20.99 40.82 22.80 43.35
  C 23.95 44.95 25.97 45.43 27.21 47.01
  A 2.11 2.00 -72.5 0 1 27.58 47.78
  L 28.36 51.03
  A 0.97 0.89 17.9 0 0 28.62 51.50
  L 32.80 55.33
  A 0.28 0.26 -21.4 0 0 32.97 55.39
  Q 33.02 55.40 33.06 55.40"
/>
<path stroke="#9a9aa1" vector-effect="non-scaling-stroke" d="
  M 33.07 53.15
  Q 33.11 53.15 33.16 53.14
  A 0.27 0.27 0.0 0 0 33.32 53.08
  L 35.87 50.64
  A 1.59 1.56 73.5 0 0 36.32 49.79
  Q 36.82 47.04 38.10 45.20
  A 1.08 0.98 -1.7 0 1 38.41 44.90
  L 41.15 43.18
  A 3.63 3.61 -8.8 0 0 42.75 41.00
  Q 44.04 35.94 43.22 31.98
  A 0.93 0.92 -27.2 0 1 43.51 31.10
  L 45.75 29.03
  A 1.66 0.60 -59.2 0 0 45.89 28.88
  Q 48.69 25.39 46.88 20.45
  A 0.33 0.32 35.8 0 0 46.25 20.55
  Q 46.08 27.00 40.02 28.75
  A 0.26 0.26 0.0 0 1 39.70 28.41
  C 41.10 24.54 42.35 21.02 41.24 17.34
  Q 40.69 15.51 39.97 15.10
  A 0.24 0.24 0.0 0 0 39.62 15.39
  Q 40.78 18.75 38.25 22.26
  Q 33.86 28.35 33.35 29.07
  C 33.30 29.14 33.22 29.16 33.12 29.16
  C 33.03 29.16 32.95 29.14 32.90 29.07
  Q 32.39 28.35 28.03 22.24
  Q 25.52 18.72 26.69 15.36
  A 0.24 0.24 0.0 0 0 26.34 15.07
  Q 25.62 15.48 25.06 17.30
  C 23.93 20.98 25.17 24.50 26.55 28.38
  A 0.26 0.26 0.0 0 1 26.23 28.72
  Q 20.18 26.94 20.04 20.49
  A 0.33 0.32 -35.5 0 0 19.41 20.39
  Q 17.58 25.32 20.36 28.82
  A 1.66 0.60 59.5 0 0 20.50 28.97
  L 22.73 31.05
  A 0.93 0.92 27.4 0 1 23.02 31.93
  Q 22.18 35.89 23.45 40.96
  A 3.63 3.61 9.1 0 0 25.04 43.14
  L 27.77 44.88
  A 1.08 0.98 2.0 0 1 28.08 45.18
  Q 29.35 47.02 29.84 49.78
  A 1.59 1.56 -73.2 0 0 30.28 50.63
  L 32.82 53.08
  A 0.27 0.27 0.0 0 0 32.98 53.14
  Q 33.03 53.15 33.07 53.15"
/>
<path stroke="#9a9aa1" vector-effect="non-scaling-stroke" d="
  M 30.89 41.00
  A 0.86 0.86 0.0 0 0 31.67 39.55
  Q 29.02 36.82 24.71 35.16
  A 0.86 0.86 0.0 0 0 23.57 36.15
  L 24.31 39.36
  A 0.67 0.66 88.2 0 0 24.83 39.86
  L 30.89 41.00"
/>
<path stroke="#9a9aa1" vector-effect="non-scaling-stroke" d="
  M 35.08 40.94
  L 41.29 39.88
  A 0.69 0.67 -87.3 0 0 41.84 39.37
  L 42.64 36.10
  A 0.88 0.87 -3.1 0 0 41.49 35.07
  Q 37.06 36.70 34.31 39.45
  A 0.88 0.88 0.0 0 0 35.08 40.94"
/>
</g>
<path fill="#31333b" d="
  M 33.81 88.00
  L 33.03 88.00
  C 16.92 73.35 -5.83 44.85 3.70 21.28
  C 10.15 5.34 28.33 -2.76 44.70 3.34
  Q 56.59 7.78 62.33 19.16
  C 67.04 28.53 65.99 40.06 62.13 49.56
  C 56.15 64.26 45.46 77.36 33.81 88.00
  Z
  M 33.41 86.62
  C 34.16 86.62 33.56 86.68 33.79 86.46
  Q 47.27 73.89 55.94 59.46
  C 63.60 46.72 68.11 30.29 59.83 17.11
  C 54.16 8.09 44.31 2.47 33.51 2.45
  C 22.71 2.44 12.85 8.04 7.16 17.05
  C -1.15 30.21 3.32 46.65 10.94 59.41
  Q 19.58 73.86 33.02 86.46
  C 33.26 86.68 32.66 86.62 33.41 86.62
  Z"
/>
<path fill="#636373" d="
  M 33.51 2.45
  C 44.31 2.47 54.16 8.09 59.83 17.11
  C 68.11 30.29 63.60 46.72 55.94 59.46
  Q 47.27 73.89 33.79 86.46
  C 33.56 86.68 34.16 86.62 33.41 86.62
  C 32.66 86.62 33.26 86.68 33.02 86.46
  Q 19.58 73.86 10.94 59.41
  C 3.32 46.65 -1.15 30.21 7.16 17.05
  C 12.85 8.04 22.71 2.44 33.51 2.45
  Z
  M 33.06 55.40
  Q 33.11 55.40 33.15 55.39
  A 0.28 0.26 21.7 0 0 33.32 55.33
  L 37.52 51.52
  A 0.97 0.89 -17.6 0 0 37.79 51.05
  L 38.58 47.81
  A 2.11 2.00 72.8 0 1 38.96 47.04
  C 40.21 45.47 42.23 45.00 43.39 43.40
  C 45.21 40.88 45.40 35.70 45.23 32.81
  A 1.79 1.75 62.8 0 1 45.59 31.65
  Q 45.79 31.39 47.03 30.07
  Q 51.03 25.82 48.04 18.79
  A 1.38 1.38 0.0 0 0 45.80 18.35
  L 44.92 19.24
  A 0.80 0.79 69.8 0 0 44.69 19.75
  Q 44.57 22.05 43.34 24.78
  A 0.09 0.08 -70.3 0 1 43.24 24.83
  L 42.99 24.77
  A 0.27 0.26 15.8 0 1 42.80 24.44
  Q 44.81 18.09 40.92 13.20
  A 1.03 1.01 62.4 0 0 39.84 12.85
  Q 39.05 13.08 38.05 13.81
  A 0.99 0.99 0.0 0 0 37.68 14.92
  C 39.18 19.74 36.28 22.32 33.42 25.84
  C 33.37 25.91 33.22 25.91 33.14 25.91
  C 33.06 25.91 32.91 25.91 32.86 25.84
  C 30.02 22.30 27.13 19.71 28.66 14.90
  A 0.99 0.99 0.0 0 0 28.29 13.78
  Q 27.29 13.05 26.51 12.82
  A 1.03 1.01 -62.1 0 0 25.42 13.16
  Q 21.51 18.03 23.49 24.39
  A 0.27 0.26 -15.5 0 1 23.29 24.72
  L 23.04 24.78
  A 0.09 0.08 70.6 0 1 22.94 24.73
  Q 21.73 21.99 21.62 19.69
  A 0.80 0.79 -69.5 0 0 21.39 19.18
  L 20.52 18.28
  A 1.38 1.38 0.0 0 0 18.28 18.71
  Q 15.25 25.73 19.23 30.00
  Q 20.46 31.32 20.66 31.59
  A 1.79 1.75 -62.5 0 1 21.01 32.75
  C 20.83 35.64 20.99 40.82 22.80 43.35
  C 23.95 44.95 25.97 45.43 27.21 47.01
  A 2.11 2.00 -72.5 0 1 27.58 47.78
  L 28.36 51.03
  A 0.97 0.89 17.9 0 0 28.62 51.50
  L 32.80 55.33
  A 0.28 0.26 -21.4 0 0 32.97 55.39
  Q 33.02 55.40 33.06 55.40
  Z"
/>
<path fill="#343443" d="
  M 33.14 25.91
  C 33.22 25.91 33.37 25.91 33.42 25.84
  C 36.28 22.32 39.18 19.74 37.68 14.92
  A 0.99 0.99 0.0 0 1 38.05 13.81
  Q 39.05 13.08 39.84 12.85
  A 1.03 1.01 62.4 0 1 40.92 13.20
  Q 44.81 18.09 42.80 24.44
  A 0.27 0.26 15.8 0 0 42.99 24.77
  L 43.24 24.83
  A 0.09 0.08 -70.3 0 0 43.34 24.78
  Q 44.57 22.05 44.69 19.75
  A 0.80 0.79 69.8 0 1 44.92 19.24
  L 45.80 18.35
  A 1.38 1.38 0.0 0 1 48.04 18.79
  Q 51.03 25.82 47.03 30.07
  Q 45.79 31.39 45.59 31.65
  A 1.79 1.75 62.8 0 0 45.23 32.81
  C 45.40 35.70 45.21 40.88 43.39 43.40
  C 42.23 45.00 40.21 45.47 38.96 47.04
  A 2.11 2.00 72.8 0 0 38.58 47.81
  L 37.79 51.05
  A 0.97 0.89 -17.6 0 1 37.52 51.52
  L 33.32 55.33
  A 0.28 0.26 21.7 0 1 33.15 55.39
  Q 33.11 55.40 33.06 55.40
  Q 33.02 55.40 32.97 55.39
  A 0.28 0.26 -21.4 0 1 32.80 55.33
  L 28.62 51.50
  A 0.97 0.89 17.9 0 1 28.36 51.03
  L 27.58 47.78
  A 2.11 2.00 -72.5 0 0 27.21 47.01
  C 25.97 45.43 23.95 44.95 22.80 43.35
  C 20.99 40.82 20.83 35.64 21.01 32.75
  A 1.79 1.75 -62.5 0 0 20.66 31.59
  Q 20.46 31.32 19.23 30.00
  Q 15.25 25.73 18.28 18.71
  A 1.38 1.38 0.0 0 1 20.52 18.28
  L 21.39 19.18
  A 0.80 0.79 -69.5 0 1 21.62 19.69
  Q 21.73 21.99 22.94 24.73
  A 0.09 0.08 70.6 0 0 23.04 24.78
  L 23.29 24.72
  A 0.27 0.26 -15.5 0 0 23.49 24.39
  Q 21.51 18.03 25.42 13.16
  A 1.03 1.01 -62.1 0 1 26.51 12.82
  Q 27.29 13.05 28.29 13.78
  A 0.99 0.99 0.0 0 1 28.66 14.90
  C 27.13 19.71 30.02 22.30 32.86 25.84
  C 32.91 25.91 33.06 25.91 33.14 25.91
  Z
  M 33.07 53.15
  Q 33.11 53.15 33.16 53.14
  A 0.27 0.27 0.0 0 0 33.32 53.08
  L 35.87 50.64
  A 1.59 1.56 73.5 0 0 36.32 49.79
  Q 36.82 47.04 38.10 45.20
  A 1.08 0.98 -1.7 0 1 38.41 44.90
  L 41.15 43.18
  A 3.63 3.61 -8.8 0 0 42.75 41.00
  Q 44.04 35.94 43.22 31.98
  A 0.93 0.92 -27.2 0 1 43.51 31.10
  L 45.75 29.03
  A 1.66 0.60 -59.2 0 0 45.89 28.88
  Q 48.69 25.39 46.88 20.45
  A 0.33 0.32 35.8 0 0 46.25 20.55
  Q 46.08 27.00 40.02 28.75
  A 0.26 0.26 0.0 0 1 39.70 28.41
  C 41.10 24.54 42.35 21.02 41.24 17.34
  Q 40.69 15.51 39.97 15.10
  A 0.24 0.24 0.0 0 0 39.62 15.39
  Q 40.78 18.75 38.25 22.26
  Q 33.86 28.35 33.35 29.07
  C 33.30 29.14 33.22 29.16 33.12 29.16
  C 33.03 29.16 32.95 29.14 32.90 29.07
  Q 32.39 28.35 28.03 22.24
  Q 25.52 18.72 26.69 15.36
  A 0.24 0.24 0.0 0 0 26.34 15.07
  Q 25.62 15.48 25.06 17.30
  C 23.93 20.98 25.17 24.50 26.55 28.38
  A 0.26 0.26 0.0 0 1 26.23 28.72
  Q 20.18 26.94 20.04 20.49
  A 0.33 0.32 -35.5 0 0 19.41 20.39
  Q 17.58 25.32 20.36 28.82
  A 1.66 0.60 59.5 0 0 20.50 28.97
  L 22.73 31.05
  A 0.93 0.92 27.4 0 1 23.02 31.93
  Q 22.18 35.89 23.45 40.96
  A 3.63 3.61 9.1 0 0 25.04 43.14
  L 27.77 44.88
  A 1.08 0.98 2.0 0 1 28.08 45.18
  Q 29.35 47.02 29.84 49.78
  A 1.59 1.56 -73.2 0 0 30.28 50.63
  L 32.82 53.08
  A 0.27 0.27 0.0 0 0 32.98 53.14
  Q 33.03 53.15 33.07 53.15
  Z"
/>
<path fill="#ffffff" d="
  M 33.12 29.16
  C 33.22 29.16 33.30 29.14 33.35 29.07
  Q 33.86 28.35 38.25 22.26
  Q 40.78 18.75 39.62 15.39
  A 0.24 0.24 0.0 0 1 39.97 15.10
  Q 40.69 15.51 41.24 17.34
  C 42.35 21.02 41.10 24.54 39.70 28.41
  A 0.26 0.26 0.0 0 0 40.02 28.75
  Q 46.08 27.00 46.25 20.55
  A 0.33 0.32 35.8 0 1 46.88 20.45
  Q 48.69 25.39 45.89 28.88
  A 1.66 0.60 -59.2 0 1 45.75 29.03
  L 43.51 31.10
  A 0.93 0.92 -27.2 0 0 43.22 31.98
  Q 44.04 35.94 42.75 41.00
  A 3.63 3.61 -8.8 0 1 41.15 43.18
  L 38.41 44.90
  A 1.08 0.98 -1.7 0 0 38.10 45.20
  Q 36.82 47.04 36.32 49.79
  A 1.59 1.56 73.5 0 1 35.87 50.64
  L 33.32 53.08
  A 0.27 0.27 0.0 0 1 33.16 53.14
  Q 33.11 53.15 33.07 53.15
  Q 33.03 53.15 32.98 53.14
  A 0.27 0.27 0.0 0 1 32.82 53.08
  L 30.28 50.63
  A 1.59 1.56 -73.2 0 1 29.84 49.78
  Q 29.35 47.02 28.08 45.18
  A 1.08 0.98 2.0 0 0 27.77 44.88
  L 25.04 43.14
  A 3.63 3.61 9.1 0 1 23.45 40.96
  Q 22.18 35.89 23.02 31.93
  A 0.93 0.92 27.4 0 0 22.73 31.05
  L 20.50 28.97
  A 1.66 0.60 59.5 0 1 20.36 28.82
  Q 17.58 25.32 19.41 20.39
  A 0.33 0.32 -35.5 0 1 20.04 20.49
  Q 20.18 26.94 26.23 28.72
  A 0.26 0.26 0.0 0 0 26.55 28.38
  C 25.17 24.50 23.93 20.98 25.06 17.30
  Q 25.62 15.48 26.34 15.07
  A 0.24 0.24 0.0 0 1 26.69 15.36
  Q 25.52 18.72 28.03 22.24
  Q 32.39 28.35 32.90 29.07
  C 32.95 29.14 33.03 29.16 33.12 29.16
  Z
  M 30.89 41.00
  A 0.86 0.86 0.0 0 0 31.67 39.55
  Q 29.02 36.82 24.71 35.16
  A 0.86 0.86 0.0 0 0 23.57 36.15
  L 24.31 39.36
  A 0.67 0.66 88.2 0 0 24.83 39.86
  L 30.89 41.00
  Z
  M 35.08 40.94
  L 41.29 39.88
  A 0.69 0.67 -87.3 0 0 41.84 39.37
  L 42.64 36.10
  A 0.88 0.87 -3.1 0 0 41.49 35.07
  Q 37.06 36.70 34.31 39.45
  A 0.88 0.88 0.0 0 0 35.08 40.94
  Z"
/>
<path fill="#343443" d="
  M 30.89 41.00
  L 24.83 39.86
  A 0.67 0.66 88.2 0 1 24.31 39.36
  L 23.57 36.15
  A 0.86 0.86 0.0 0 1 24.71 35.16
  Q 29.02 36.82 31.67 39.55
  A 0.86 0.86 0.0 0 1 30.89 41.00
  Z"
/>
<path fill="#343443" d="
  M 35.08 40.94
  A 0.88 0.88 0.0 0 1 34.31 39.45
  Q 37.06 36.70 41.49 35.07
  A 0.88 0.87 -3.1 0 1 42.64 36.10
  L 41.84 39.37
  A 0.69 0.67 -87.3 0 1 41.29 39.88
  L 35.08 40.94
  Z"
/>
</svg>
