<?xml version="1.0" encoding="UTF-8" standalone="no"?>
<!DOCTYPE svg PUBLIC "-//W3C//DTD SVG 1.1//EN" "http://www.w3.org/Graphics/SVG/1.1/DTD/svg11.dtd">
<svg xmlns="http://www.w3.org/2000/svg" version="1.1" viewBox="0.00 0.00 66.00 88.00">
<g stroke-width="2.00" fill="none" stroke-linecap="butt">
<path stroke="#4a6d97" vector-effect="non-scaling-stroke" d="
  M 33.39 86.73
  Q 33.50 86.73 33.60 86.70
  Q 33.69 86.68 33.78 86.59
  Q 47.60 73.55 56.50 58.51
  C 63.92 45.97 68.27 28.83 59.07 15.93
  C 53.13 7.60 44.02 2.47 33.53 2.45
  C 23.04 2.44 13.92 7.53 7.95 15.85
  C -1.29 28.71 3.00 45.87 10.38 58.43
  Q 19.23 73.50 33.00 86.59
  Q 33.09 86.68 33.18 86.70
  Q 33.28 86.73 33.39 86.73"
/>
<path stroke="#4e6588" vector-effect="non-scaling-stroke" d="
  M 32.74 53.88
  C 36.74 53.89 44.04 52.27 44.82 47.78
  C 45.96 41.23 41.71 36.89 37.16 32.72
  A 1.55 1.55 0.0 0 1 36.66 31.58
  L 36.66 18.84
  A 0.79 0.78 74.2 0 1 37.03 18.17
  Q 38.46 17.24 37.72 14.73
  A 0.82 0.81 84.1 0 0 37.01 14.15
  Q 36.98 14.15 32.90 14.13
  Q 28.82 14.11 28.79 14.12
  A 0.82 0.81 -83.6 0 0 28.08 14.69
  Q 27.32 17.19 28.74 18.14
  A 0.79 0.78 -73.8 0 1 29.11 18.81
  L 29.00 31.55
  A 1.55 1.55 0.0 0 1 28.49 32.68
  C 23.91 36.82 19.62 41.12 20.71 47.68
  C 21.45 52.18 28.74 53.86 32.74 53.88"
/>
<path stroke="#9b9ca4" vector-effect="non-scaling-stroke" d="
  M 32.74 52.48
  C 37.67 52.48 44.85 51.00 43.60 44.30
  C 42.70 39.42 39.55 36.75 35.59 33.08
  A 1.25 1.23 21.6 0 1 35.19 32.17
  L 35.19 17.76
  A 1.06 1.05 75.8 0 1 35.74 16.83
  Q 36.24 16.55 36.34 16.37
  A 0.59 0.58 -67.0 0 0 36.01 15.54
  Q 35.99 15.53 32.74 15.53
  Q 29.49 15.53 29.47 15.54
  A 0.59 0.58 67.0 0 0 29.14 16.37
  Q 29.24 16.55 29.74 16.83
  A 1.06 1.05 -75.8 0 1 30.29 17.76
  L 30.29 32.17
  A 1.25 1.23 -21.6 0 1 29.89 33.08
  C 25.92 36.75 22.77 39.42 21.87 44.30
  C 20.62 51.00 27.80 52.48 32.74 52.48"
/>
</g>
<path fill="#2e4967" d="
  M 33.80 88.00
  L 33.04 88.00
  C 21.75 77.74 12.13 65.68 5.65 51.56
  Q 2.20 44.04 1.60 34.89
  C 0.55 18.86 11.32 5.54 26.73 2.05
  Q 36.75 -0.21 46.82 4.21
  Q 57.53 8.92 62.85 20.27
  C 66.64 28.35 65.97 38.65 63.05 47.02
  C 57.59 62.67 45.96 76.93 33.80 88.00
  Z
  M 33.39 86.73
  Q 33.50 86.73 33.60 86.70
  Q 33.69 86.68 33.78 86.59
  Q 47.60 73.55 56.50 58.51
  C 63.92 45.97 68.27 28.83 59.07 15.93
  C 53.13 7.60 44.02 2.47 33.53 2.45
  C 23.04 2.44 13.92 7.53 7.95 15.85
  C -1.29 28.71 3.00 45.87 10.38 58.43
  Q 19.23 73.50 33.00 86.59
  Q 33.09 86.68 33.18 86.70
  Q 33.28 86.73 33.39 86.73
  Z"
/>
<path fill="#6591c7" d="
  M 33.53 2.45
  C 44.02 2.47 53.13 7.60 59.07 15.93
  C 68.27 28.83 63.92 45.97 56.50 58.51
  Q 47.60 73.55 33.78 86.59
  Q 33.69 86.68 33.60 86.70
  Q 33.50 86.73 33.39 86.73
  Q 33.28 86.73 33.18 86.70
  Q 33.09 86.68 33.00 86.59
  Q 19.23 73.50 10.38 58.43
  C 3.00 45.87 -1.29 28.71 7.95 15.85
  C 13.92 7.53 23.04 2.44 33.53 2.45
  Z
  M 32.74 53.88
  C 36.74 53.89 44.04 52.27 44.82 47.78
  C 45.96 41.23 41.71 36.89 37.16 32.72
  A 1.55 1.55 0.0 0 1 36.66 31.58
  L 36.66 18.84
  A 0.79 0.78 74.2 0 1 37.03 18.17
  Q 38.46 17.24 37.72 14.73
  A 0.82 0.81 84.1 0 0 37.01 14.15
  Q 36.98 14.15 32.90 14.13
  Q 28.82 14.11 28.79 14.12
  A 0.82 0.81 -83.6 0 0 28.08 14.69
  Q 27.32 17.19 28.74 18.14
  A 0.79 0.78 -73.8 0 1 29.11 18.81
  L 29.00 31.55
  A 1.55 1.55 0.0 0 1 28.49 32.68
  C 23.91 36.82 19.62 41.12 20.71 47.68
  C 21.45 52.18 28.74 53.86 32.74 53.88
  Z"
/>
<path fill="#363848" d="
  M 32.90 14.13
  Q 36.98 14.15 37.01 14.15
  A 0.82 0.81 84.1 0 1 37.72 14.73
  Q 38.46 17.24 37.03 18.17
  A 0.79 0.78 74.2 0 0 36.66 18.84
  L 36.66 31.58
  A 1.55 1.55 0.0 0 0 37.16 32.72
  C 41.71 36.89 45.96 41.23 44.82 47.78
  C 44.04 52.27 36.74 53.89 32.74 53.88
  C 28.74 53.86 21.45 52.18 20.71 47.68
  C 19.62 41.12 23.91 36.82 28.49 32.68
  A 1.55 1.55 0.0 0 0 29.00 31.55
  L 29.11 18.81
  A 0.79 0.78 -73.8 0 0 28.74 18.14
  Q 27.32 17.19 28.08 14.69
  A 0.82 0.81 -83.6 0 1 28.79 14.12
  Q 28.82 14.11 32.90 14.13
  Z
  M 32.74 52.48
  C 37.67 52.48 44.85 51.00 43.60 44.30
  C 42.70 39.42 39.55 36.75 35.59 33.08
  A 1.25 1.23 21.6 0 1 35.19 32.17
  L 35.19 17.76
  A 1.06 1.05 75.8 0 1 35.74 16.83
  Q 36.24 16.55 36.34 16.37
  A 0.59 0.58 -67.0 0 0 36.01 15.54
  Q 35.99 15.53 32.74 15.53
  Q 29.49 15.53 29.47 15.54
  A 0.59 0.58 67.0 0 0 29.14 16.37
  Q 29.24 16.55 29.74 16.83
  A 1.06 1.05 -75.8 0 1 30.29 17.76
  L 30.29 32.17
  A 1.25 1.23 -21.6 0 1 29.89 33.08
  C 25.92 36.75 22.77 39.42 21.87 44.30
  C 20.62 51.00 27.80 52.48 32.74 52.48
  Z"
/>
<path fill="#ffffff" d="
  M 32.74 15.53
  Q 35.99 15.53 36.01 15.54
  A 0.59 0.58 -67.0 0 1 36.34 16.37
  Q 36.24 16.55 35.74 16.83
  A 1.06 1.05 75.8 0 0 35.19 17.76
  L 35.19 32.17
  A 1.25 1.23 21.6 0 0 35.59 33.08
  C 39.55 36.75 42.70 39.42 43.60 44.30
  C 44.85 51.00 37.67 52.48 32.74 52.48
  C 27.80 52.48 20.62 51.00 21.87 44.30
  C 22.77 39.42 25.92 36.75 29.89 33.08
  A 1.25 1.23 -21.6 0 0 30.29 32.17
  L 30.29 17.76
  A 1.06 1.05 -75.8 0 0 29.74 16.83
  Q 29.24 16.55 29.14 16.37
  A 0.59 0.58 67.0 0 1 29.47 15.54
  Q 29.49 15.53 32.74 15.53
  Z"
/>
</svg>
