<?xml version="1.0" encoding="UTF-8" standalone="no"?>
<!DOCTYPE svg PUBLIC "-//W3C//DTD SVG 1.1//EN" "http://www.w3.org/Graphics/SVG/1.1/DTD/svg11.dtd">
<svg xmlns="http://www.w3.org/2000/svg" version="1.1" viewBox="0.00 0.00 66.00 88.00">
<g stroke-width="2.00" fill="none" stroke-linecap="butt">
<path stroke="#795531" vector-effect="non-scaling-stroke" d="
  M 33.40 86.69
  Q 33.51 86.69 33.62 86.67
  Q 33.71 86.65 33.79 86.57
  C 50.52 71.08 75.87 38.67 58.53 15.23
  C 52.69 7.33 43.69 2.46 33.53 2.45
  C 23.36 2.43 14.35 7.27 8.49 15.15
  C -8.92 38.54 16.33 71.03 33.01 86.57
  Q 33.09 86.65 33.19 86.67
  Q 33.29 86.69 33.40 86.69"
/>
<path stroke="#6b5243" vector-effect="non-scaling-stroke" d="
  M 17.09 43.79
  Q 16.70 45.45 15.67 48.73
  C 15.03 50.79 17.00 51.94 18.88 51.61
  Q 23.03 50.87 26.97 49.37
  A 3.53 3.46 38.3 0 1 28.75 49.18
  Q 38.36 50.71 45.45 45.77
  C 56.80 37.85 55.26 21.44 42.32 15.89
  Q 30.47 10.80 19.93 18.11
  C 12.20 23.47 10.34 34.81 16.73 42.27
  A 1.72 1.71 31.8 0 1 17.09 43.79"
/>
<path stroke="#9a99a1" vector-effect="non-scaling-stroke" d="
  M 17.90 49.83
  Q 22.50 49.38 27.11 47.32
  A 1.41 1.39 -51.1 0 1 28.00 47.22
  Q 36.71 49.09 43.70 44.72
  C 54.18 38.17 53.63 24.54 43.11 18.36
  Q 36.35 14.39 28.23 16.25
  C 16.26 18.99 10.09 31.77 18.71 41.82
  A 1.77 1.76 -57.4 0 1 19.06 43.43
  L 17.40 49.22
  A 0.48 0.47 -84.6 0 0 17.90 49.83"
/>
<path stroke="#9a99a1" vector-effect="non-scaling-stroke" d="
  M 26.09 31.70
  A 2.26 2.26 0.0 0 0 23.83 29.44
  A 2.26 2.26 0.0 0 0 21.57 31.70
  A 2.26 2.26 0.0 0 0 23.83 33.96
  A 2.26 2.26 0.0 0 0 26.09 31.70"
/>
<path stroke="#9a99a1" vector-effect="non-scaling-stroke" d="
  M 35.25 31.69
  A 2.25 2.25 0.0 0 0 33.00 29.44
  A 2.25 2.25 0.0 0 0 30.75 31.69
  A 2.25 2.25 0.0 0 0 33.00 33.94
  A 2.25 2.25 0.0 0 0 35.25 31.69"
/>
<path stroke="#9a99a1" vector-effect="non-scaling-stroke" d="
  M 44.41 31.70
  A 2.25 2.25 0.0 0 0 42.16 29.45
  A 2.25 2.25 0.0 0 0 39.91 31.70
  A 2.25 2.25 0.0 0 0 42.16 33.95
  A 2.25 2.25 0.0 0 0 44.41 31.70"
/>
<path stroke="#6b5243" vector-effect="non-scaling-stroke" d="
  M 23.35 32.12
  A 0.50 0.49 -83.8 0 0 23.83 32.72
  Q 24.85 32.73 24.69 31.79
  Q 24.52 30.74 23.85 30.58
  A 0.32 0.32 0.0 0 0 23.46 30.94
  Q 23.53 31.36 23.35 32.12"
/>
<path stroke="#6b5243" vector-effect="non-scaling-stroke" d="
  M 33.0422 30.4800
  A 1.24 0.80 -89.9 0 0 32.2400 31.7186
  A 1.24 0.80 -89.9 0 0 33.0378 32.9600
  A 1.24 0.80 -89.9 0 0 33.8400 31.7214
  A 1.24 0.80 -89.9 0 0 33.0422 30.4800"
/>
<path stroke="#6b5243" vector-effect="non-scaling-stroke" d="
  M 42.3397 30.4650
  A 1.21 1.03 -84.8 0 0 41.2042 31.5766
  A 1.21 1.03 -84.8 0 0 42.1203 32.8750
  A 1.21 1.03 -84.8 0 0 43.2558 31.7634
  A 1.21 1.03 -84.8 0 0 42.3397 30.4650"
/>
</g>
<path fill="#51381f" d="
  M 33.81 88.00
  L 33.03 88.00
  C 21.72 77.71 12.18 65.74 5.68 51.55
  Q 2.13 43.81 1.57 34.90
  C 0.35 15.30 17.03 -0.49 36.85 1.51
  C 53.54 3.19 66.18 17.47 65.46 34.17
  C 64.57 54.69 48.35 74.74 33.81 88.00
  Z
  M 33.40 86.69
  Q 33.51 86.69 33.62 86.67
  Q 33.71 86.65 33.79 86.57
  C 50.52 71.08 75.87 38.67 58.53 15.23
  C 52.69 7.33 43.69 2.46 33.53 2.45
  C 23.36 2.43 14.35 7.27 8.49 15.15
  C -8.92 38.54 16.33 71.03 33.01 86.57
  Q 33.09 86.65 33.19 86.67
  Q 33.29 86.69 33.40 86.69
  Z"
/>
<path fill="#a17142" d="
  M 33.53 2.45
  C 43.69 2.46 52.69 7.33 58.53 15.23
  C 75.87 38.67 50.52 71.08 33.79 86.57
  Q 33.71 86.65 33.62 86.67
  Q 33.51 86.69 33.40 86.69
  Q 33.29 86.69 33.19 86.67
  Q 33.09 86.65 33.01 86.57
  C 16.33 71.03 -8.92 38.54 8.49 15.15
  C 14.35 7.27 23.36 2.43 33.53 2.45
  Z
  M 17.09 43.79
  Q 16.70 45.45 15.67 48.73
  C 15.03 50.79 17.00 51.94 18.88 51.61
  Q 23.03 50.87 26.97 49.37
  A 3.53 3.46 38.3 0 1 28.75 49.18
  Q 38.36 50.71 45.45 45.77
  C 56.80 37.85 55.26 21.44 42.32 15.89
  Q 30.47 10.80 19.93 18.11
  C 12.20 23.47 10.34 34.81 16.73 42.27
  A 1.72 1.71 31.8 0 1 17.09 43.79
  Z"
/>
<path fill="#343343" d="
  M 17.09 43.79
  A 1.72 1.71 31.8 0 0 16.73 42.27
  C 10.34 34.81 12.20 23.47 19.93 18.11
  Q 30.47 10.80 42.32 15.89
  C 55.26 21.44 56.80 37.85 45.45 45.77
  Q 38.36 50.71 28.75 49.18
  A 3.53 3.46 38.3 0 0 26.97 49.37
  Q 23.03 50.87 18.88 51.61
  C 17.00 51.94 15.03 50.79 15.67 48.73
  Q 16.70 45.45 17.09 43.79
  Z
  M 17.90 49.83
  Q 22.50 49.38 27.11 47.32
  A 1.41 1.39 -51.1 0 1 28.00 47.22
  Q 36.71 49.09 43.70 44.72
  C 54.18 38.17 53.63 24.54 43.11 18.36
  Q 36.35 14.39 28.23 16.25
  C 16.26 18.99 10.09 31.77 18.71 41.82
  A 1.77 1.76 -57.4 0 1 19.06 43.43
  L 17.40 49.22
  A 0.48 0.47 -84.6 0 0 17.90 49.83
  Z"
/>
<path fill="#ffffff" d="
  M 17.90 49.83
  A 0.48 0.47 -84.6 0 1 17.40 49.22
  L 19.06 43.43
  A 1.77 1.76 -57.4 0 0 18.71 41.82
  C 10.09 31.77 16.26 18.99 28.23 16.25
  Q 36.35 14.39 43.11 18.36
  C 53.63 24.54 54.18 38.17 43.70 44.72
  Q 36.71 49.09 28.00 47.22
  A 1.41 1.39 -51.1 0 0 27.11 47.32
  Q 22.50 49.38 17.90 49.83
  Z
  M 26.09 31.70
  A 2.26 2.26 0.0 0 0 23.83 29.44
  A 2.26 2.26 0.0 0 0 21.57 31.70
  A 2.26 2.26 0.0 0 0 23.83 33.96
  A 2.26 2.26 0.0 0 0 26.09 31.70
  Z
  M 35.25 31.69
  A 2.25 2.25 0.0 0 0 33.00 29.44
  A 2.25 2.25 0.0 0 0 30.75 31.69
  A 2.25 2.25 0.0 0 0 33.00 33.94
  A 2.25 2.25 0.0 0 0 35.25 31.69
  Z
  M 44.41 31.70
  A 2.25 2.25 0.0 0 0 42.16 29.45
  A 2.25 2.25 0.0 0 0 39.91 31.70
  A 2.25 2.25 0.0 0 0 42.16 33.95
  A 2.25 2.25 0.0 0 0 44.41 31.70
  Z"
/>
<path fill="#343343" d="
  M 26.09 31.70
  A 2.26 2.26 0.0 0 1 23.83 33.96
  A 2.26 2.26 0.0 0 1 21.57 31.70
  A 2.26 2.26 0.0 0 1 23.83 29.44
  A 2.26 2.26 0.0 0 1 26.09 31.70
  Z
  M 23.35 32.12
  A 0.50 0.49 -83.8 0 0 23.83 32.72
  Q 24.85 32.73 24.69 31.79
  Q 24.52 30.74 23.85 30.58
  A 0.32 0.32 0.0 0 0 23.46 30.94
  Q 23.53 31.36 23.35 32.12
  Z"
/>
<path fill="#343343" d="
  M 35.25 31.69
  A 2.25 2.25 0.0 0 1 33.00 33.94
  A 2.25 2.25 0.0 0 1 30.75 31.69
  A 2.25 2.25 0.0 0 1 33.00 29.44
  A 2.25 2.25 0.0 0 1 35.25 31.69
  Z
  M 33.0422 30.4800
  A 1.24 0.80 -89.9 0 0 32.2400 31.7186
  A 1.24 0.80 -89.9 0 0 33.0378 32.9600
  A 1.24 0.80 -89.9 0 0 33.8400 31.7214
  A 1.24 0.80 -89.9 0 0 33.0422 30.4800
  Z"
/>
<path fill="#343343" d="
  M 44.41 31.70
  A 2.25 2.25 0.0 0 1 42.16 33.95
  A 2.25 2.25 0.0 0 1 39.91 31.70
  A 2.25 2.25 0.0 0 1 42.16 29.45
  A 2.25 2.25 0.0 0 1 44.41 31.70
  Z
  M 42.3397 30.4650
  A 1.21 1.03 -84.8 0 0 41.2042 31.5766
  A 1.21 1.03 -84.8 0 0 42.1203 32.8750
  A 1.21 1.03 -84.8 0 0 43.2558 31.7634
  A 1.21 1.03 -84.8 0 0 42.3397 30.4650
  Z"
/>
<path fill="#a17142" d="
  M 23.35 32.12
  Q 23.53 31.36 23.46 30.94
  A 0.32 0.32 0.0 0 1 23.85 30.58
  Q 24.52 30.74 24.69 31.79
  Q 24.85 32.73 23.83 32.72
  A 0.50 0.49 -83.8 0 1 23.35 32.12
  Z"
/>
<ellipse fill="#a17142" cx="0.00" cy="0.00" transform="translate(33.04,31.72) rotate(-89.9)" rx="1.24" ry="0.80"/>
<ellipse fill="#a17142" cx="0.00" cy="0.00" transform="translate(42.23,31.67) rotate(-84.8)" rx="1.21" ry="1.03"/>
</svg>
