<?xml version="1.0" encoding="UTF-8" standalone="no"?>
<!DOCTYPE svg PUBLIC "-//W3C//DTD SVG 1.1//EN" "http://www.w3.org/Graphics/SVG/1.1/DTD/svg11.dtd">
<svg xmlns="http://www.w3.org/2000/svg" version="1.1" viewBox="0.00 0.00 66.00 88.00">
<g stroke-width="2.00" fill="none" stroke-linecap="butt">
<path stroke="#87352b" vector-effect="non-scaling-stroke" d="
  M 33.41 86.71
  Q 33.52 86.71 33.62 86.69
  Q 33.67 86.68 33.78 86.57
  C 47.26 73.81 60.59 57.15 63.79 39.05
  C 67.22 19.67 53.33 3.03 33.75 2.44
  Q 33.63 2.44 33.51 2.44
  Q 33.40 2.44 33.28 2.44
  C 13.70 2.98 -0.23 19.59 3.15 38.98
  C 6.31 57.08 19.60 73.78 33.04 86.57
  Q 33.15 86.68 33.20 86.69
  Q 33.30 86.71 33.41 86.71"
/>
<path stroke="#743e40" vector-effect="non-scaling-stroke" d="
  M 31.13 53.69
  L 49.30 41.58
  A 1.52 1.51 -16.9 0 0 49.98 40.32
  L 49.98 25.57
  A 2.32 2.28 26.8 0 0 49.51 24.18
  L 45.45 18.77
  A 1.17 1.14 -0.9 0 0 45.13 18.47
  L 37.40 13.36
  A 1.21 1.18 52.7 0 0 36.38 13.21
  Q 33.76 14.02 32.67 14.69
  Q 29.27 16.78 18.15 24.35
  Q 17.18 25.00 15.03 28.06
  A 1.69 1.66 62.9 0 0 14.73 29.02
  L 14.73 43.10
  A 1.21 1.21 0.0 0 0 15.26 44.10
  L 29.79 53.70
  A 1.22 1.21 -45.2 0 0 31.13 53.69"
/>
<path stroke="#9a9aa2" vector-effect="non-scaling-stroke" d="
  M 46.33 25.39
  L 42.89 19.69
  A 1.97 1.94 -89.5 0 0 42.33 19.11
  L 38.00 16.25
  A 3.08 3.06 44.7 0 0 34.60 16.25
  L 20.24 25.82
  A 0.50 0.50 0.0 0 0 20.27 26.67
  L 25.10 29.46
  A 3.71 3.60 -2.1 0 1 26.22 30.47
  L 30.41 36.20
  A 0.46 0.46 0.0 0 0 31.03 36.31
  L 46.14 26.24
  A 0.63 0.63 0.0 0 0 46.33 25.39"
/>
<path stroke="#9a9aa2" vector-effect="non-scaling-stroke" d="
  M 29.02 36.36
  L 25.25 31.00
  A 1.53 1.39 0.6 0 0 24.82 30.60
  L 19.80 27.72
  A 0.66 0.66 0.0 0 0 18.93 27.93
  L 18.02 29.30
  A 0.25 0.25 0.0 0 0 18.10 29.64
  L 28.72 36.66
  A 0.22 0.21 -0.4 0 0 29.02 36.36"
/>
<path stroke="#9a9aa2" vector-effect="non-scaling-stroke" d="
  M 43.30 30.99
  A 1.62 1.62 0.0 0 0 42.59 32.19
  Q 42.31 35.12 40.86 37.87
  A 0.85 0.84 42.1 0 1 39.41 37.94
  L 37.68 35.34
  A 0.50 0.49 56.0 0 0 36.99 35.20
  L 32.93 37.90
  A 2.76 2.76 0.0 0 0 31.71 40.19
  L 31.71 49.39
  A 0.51 0.51 0.0 0 0 32.50 49.81
  L 47.06 40.11
  A 1.18 1.16 -17.5 0 0 47.57 39.15
  L 47.57 28.92
  A 0.42 0.41 -17.0 0 0 46.92 28.58
  L 43.30 30.99"
/>
<path stroke="#9a9aa2" vector-effect="non-scaling-stroke" d="
  M 28.80 38.90
  A 0.35 0.35 0.0 0 0 28.64 38.61
  L 17.74 31.41
  A 0.35 0.35 0.0 0 0 17.20 31.70
  L 17.20 42.35
  A 0.35 0.35 0.0 0 0 17.36 42.64
  L 28.26 49.85
  A 0.35 0.35 0.0 0 0 28.80 49.56
  L 28.80 38.90"
/>
</g>
<path fill="#5a231b" d="
  M 33.82 88.00
  L 33.15 88.00
  Q 15.61 72.49 6.00 52.51
  Q 2.23 44.69 1.62 35.23
  Q 1.00 25.70 5.27 17.95
  C 17.46 -4.20 49.78 -4.26 61.88 18.29
  C 67.41 28.58 65.97 41.00 61.31 51.54
  C 55.18 65.40 44.97 77.81 33.82 88.00
  Z
  M 33.41 86.71
  Q 33.52 86.71 33.62 86.69
  Q 33.67 86.68 33.78 86.57
  C 47.26 73.81 60.59 57.15 63.79 39.05
  C 67.22 19.67 53.33 3.03 33.75 2.44
  Q 33.63 2.44 33.51 2.44
  Q 33.40 2.44 33.28 2.44
  C 13.70 2.98 -0.23 19.59 3.15 38.98
  C 6.31 57.08 19.60 73.78 33.04 86.57
  Q 33.15 86.68 33.20 86.69
  Q 33.30 86.71 33.41 86.71
  Z"
/>
<path fill="#b3473b" d="
  M 33.51 2.44
  Q 33.63 2.44 33.75 2.44
  C 53.33 3.03 67.22 19.67 63.79 39.05
  C 60.59 57.15 47.26 73.81 33.78 86.57
  Q 33.67 86.68 33.62 86.69
  Q 33.52 86.71 33.41 86.71
  Q 33.30 86.71 33.20 86.69
  Q 33.15 86.68 33.04 86.57
  C 19.60 73.78 6.31 57.08 3.15 38.98
  C -0.23 19.59 13.70 2.98 33.28 2.44
  Q 33.40 2.44 33.51 2.44
  Z
  M 31.13 53.69
  L 49.30 41.58
  A 1.52 1.51 -16.9 0 0 49.98 40.32
  L 49.98 25.57
  A 2.32 2.28 26.8 0 0 49.51 24.18
  L 45.45 18.77
  A 1.17 1.14 -0.9 0 0 45.13 18.47
  L 37.40 13.36
  A 1.21 1.18 52.7 0 0 36.38 13.21
  Q 33.76 14.02 32.67 14.69
  Q 29.27 16.78 18.15 24.35
  Q 17.18 25.00 15.03 28.06
  A 1.69 1.66 62.9 0 0 14.73 29.02
  L 14.73 43.10
  A 1.21 1.21 0.0 0 0 15.26 44.10
  L 29.79 53.70
  A 1.22 1.21 -45.2 0 0 31.13 53.69
  Z"
/>
<path fill="#343444" d="
  M 29.79 53.70
  L 15.26 44.10
  A 1.21 1.21 0.0 0 1 14.73 43.10
  L 14.73 29.02
  A 1.69 1.66 62.9 0 1 15.03 28.06
  Q 17.18 25.00 18.15 24.35
  Q 29.27 16.78 32.67 14.69
  Q 33.76 14.02 36.38 13.21
  A 1.21 1.18 52.7 0 1 37.40 13.36
  L 45.13 18.47
  A 1.17 1.14 -0.9 0 1 45.45 18.77
  L 49.51 24.18
  A 2.32 2.28 26.8 0 1 49.98 25.57
  L 49.98 40.32
  A 1.52 1.51 -16.9 0 1 49.30 41.58
  L 31.13 53.69
  A 1.22 1.21 -45.2 0 1 29.79 53.70
  Z
  M 46.33 25.39
  L 42.89 19.69
  A 1.97 1.94 -89.5 0 0 42.33 19.11
  L 38.00 16.25
  A 3.08 3.06 44.7 0 0 34.60 16.25
  L 20.24 25.82
  A 0.50 0.50 0.0 0 0 20.27 26.67
  L 25.10 29.46
  A 3.71 3.60 -2.1 0 1 26.22 30.47
  L 30.41 36.20
  A 0.46 0.46 0.0 0 0 31.03 36.31
  L 46.14 26.24
  A 0.63 0.63 0.0 0 0 46.33 25.39
  Z
  M 29.02 36.36
  L 25.25 31.00
  A 1.53 1.39 0.6 0 0 24.82 30.60
  L 19.80 27.72
  A 0.66 0.66 0.0 0 0 18.93 27.93
  L 18.02 29.30
  A 0.25 0.25 0.0 0 0 18.10 29.64
  L 28.72 36.66
  A 0.22 0.21 -0.4 0 0 29.02 36.36
  Z
  M 43.30 30.99
  A 1.62 1.62 0.0 0 0 42.59 32.19
  Q 42.31 35.12 40.86 37.87
  A 0.85 0.84 42.1 0 1 39.41 37.94
  L 37.68 35.34
  A 0.50 0.49 56.0 0 0 36.99 35.20
  L 32.93 37.90
  A 2.76 2.76 0.0 0 0 31.71 40.19
  L 31.71 49.39
  A 0.51 0.51 0.0 0 0 32.50 49.81
  L 47.06 40.11
  A 1.18 1.16 -17.5 0 0 47.57 39.15
  L 47.57 28.92
  A 0.42 0.41 -17.0 0 0 46.92 28.58
  L 43.30 30.99
  Z
  M 28.80 38.90
  A 0.35 0.35 0.0 0 0 28.64 38.61
  L 17.74 31.41
  A 0.35 0.35 0.0 0 0 17.20 31.70
  L 17.20 42.35
  A 0.35 0.35 0.0 0 0 17.36 42.64
  L 28.26 49.85
  A 0.35 0.35 0.0 0 0 28.80 49.56
  L 28.80 38.90
  Z"
/>
<path fill="#ffffff" d="
  M 46.14 26.24
  L 31.03 36.31
  A 0.46 0.46 0.0 0 1 30.41 36.20
  L 26.22 30.47
  A 3.71 3.60 -2.1 0 0 25.10 29.46
  L 20.27 26.67
  A 0.50 0.50 0.0 0 1 20.24 25.82
  L 34.60 16.25
  A 3.08 3.06 44.7 0 1 38.00 16.25
  L 42.33 19.11
  A 1.97 1.94 -89.5 0 1 42.89 19.69
  L 46.33 25.39
  A 0.63 0.63 0.0 0 1 46.14 26.24
  Z"
/>
<path fill="#ffffff" d="
  M 29.02 36.36
  A 0.22 0.21 -0.4 0 1 28.72 36.66
  L 18.10 29.64
  A 0.25 0.25 0.0 0 1 18.02 29.30
  L 18.93 27.93
  A 0.66 0.66 0.0 0 1 19.80 27.72
  L 24.82 30.60
  A 1.53 1.39 0.6 0 1 25.25 31.00
  L 29.02 36.36
  Z"
/>
<path fill="#ffffff" d="
  M 43.30 30.99
  L 46.92 28.58
  A 0.42 0.41 -17.0 0 1 47.57 28.92
  L 47.57 39.15
  A 1.18 1.16 -17.5 0 1 47.06 40.11
  L 32.50 49.81
  A 0.51 0.51 0.0 0 1 31.71 49.39
  L 31.71 40.19
  A 2.76 2.76 0.0 0 1 32.93 37.90
  L 36.99 35.20
  A 0.50 0.49 56.0 0 1 37.68 35.34
  L 39.41 37.94
  A 0.85 0.84 42.1 0 0 40.86 37.87
  Q 42.31 35.12 42.59 32.19
  A 1.62 1.62 0.0 0 1 43.30 30.99
  Z"
/>
<path fill="#ffffff" d="
  M 28.80 38.90
  L 28.80 49.56
  A 0.35 0.35 0.0 0 1 28.26 49.85
  L 17.36 42.64
  A 0.35 0.35 0.0 0 1 17.20 42.35
  L 17.20 31.70
  A 0.35 0.35 0.0 0 1 17.74 31.41
  L 28.64 38.61
  A 0.35 0.35 0.0 0 1 28.80 38.90
  Z"
/>
</svg>
