<?xml version="1.0" encoding="UTF-8" standalone="no"?>
<!DOCTYPE svg PUBLIC "-//W3C//DTD SVG 1.1//EN" "http://www.w3.org/Graphics/SVG/1.1/DTD/svg11.dtd">
<svg xmlns="http://www.w3.org/2000/svg" version="1.1" viewBox="0.00 0.00 66.00 88.00">
<g stroke-width="2.00" fill="none" stroke-linecap="butt">
<path stroke="#87352b" vector-effect="non-scaling-stroke" d="
  M 33.41 86.71
  Q 33.52 86.71 33.62 86.69
  Q 33.69 86.68 33.79 86.58
  C 50.10 71.09 73.38 42.17 60.63 18.54
  C 55.35 8.75 44.77 2.46 33.51 2.45
  C 22.25 2.44 11.66 8.70 6.35 18.48
  C -6.45 42.08 16.76 71.05 33.04 86.58
  Q 33.14 86.68 33.20 86.69
  Q 33.31 86.71 33.41 86.71"
/>
<path stroke="#7a4040" vector-effect="non-scaling-stroke" d="
  M 20.97 37.20
  L 18.58 37.62
  A 1.05 1.05 0.0 0 0 17.77 38.29
  C 14.94 45.71 15.11 56.74 26.77 53.44
  A 1.59 1.57 47.2 0 1 27.72 53.48
  Q 29.31 54.05 29.51 54.05
  Q 43.51 53.88 46.64 53.98
  C 50.68 54.10 52.92 53.17 52.71 48.90
  A 0.85 0.84 8.4 0 0 52.15 48.15
  Q 50.68 47.64 49.52 47.74
  A 0.36 0.35 -66.8 0 1 49.27 47.11
  Q 49.47 46.95 50.12 46.73
  A 0.58 0.58 0.0 0 0 50.07 45.62
  Q 46.88 44.81 42.75 45.25
  A 0.96 0.96 0.0 0 1 41.69 44.23
  C 41.96 39.92 43.41 37.14 46.31 33.36
  Q 48.88 30.02 49.79 26.99
  Q 50.09 25.98 49.82 25.60
  Q 49.45 25.08 48.59 24.82
  A 0.40 0.40 0.0 0 1 48.64 24.04
  L 50.12 23.78
  A 0.35 0.35 0.0 0 0 50.24 23.13
  L 48.38 22.06
  A 0.39 0.39 0.0 0 1 48.58 21.33
  Q 49.22 21.33 50.00 21.06
  A 0.81 0.80 77.6 0 0 50.53 20.22
  C 49.95 14.95 45.81 13.93 40.80 14.53
  Q 34.58 15.26 26.36 14.79
  C 24.15 14.66 22.56 13.98 20.89 13.77
  A 4.21 3.81 -41.5 0 0 20.04 13.76
  C 13.94 14.41 11.21 21.72 16.99 25.08
  C 18.99 26.25 21.14 25.97 23.49 26.10
  A 0.53 0.53 0.0 0 1 23.92 26.89
  L 19.67 34.26
  A 0.77 0.76 -55.6 0 0 19.85 35.24
  Q 20.74 35.97 21.20 36.67
  A 0.35 0.35 0.0 0 1 20.97 37.20"
/>
<path stroke="#a09ca2" vector-effect="non-scaling-stroke" d="
  M 17.89 17.51
  Q 16.72 18.08 16.68 19.75
  Q 16.61 22.67 19.78 23.13
  A 0.77 0.77 0.0 0 0 20.54 21.96
  L 18.07 18.02"
/>
<path stroke="#6f6b74" vector-effect="non-scaling-stroke" d="
  M 18.07 18.02
  Q 18.68 17.71 19.16 17.85
  Q 19.57 17.96 19.88 18.64
  Q 20.83 20.68 21.75 22.64
  A 0.28 0.28 0.0 0 0 22.27 22.57
  Q 22.38 21.97 21.13 19.68
  A 0.41 0.41 0.0 0 1 21.46 19.08
  L 25.90 18.73"
/>
<path stroke="#a09ca2" vector-effect="non-scaling-stroke" d="
  M 25.90 18.73
  Q 26.70 26.57 21.15 33.87
  A 0.72 0.71 41.1 0 0 21.22 34.80
  L 23.82 37.41
  A 0.33 0.32 -27.0 0 1 23.64 37.96
  L 19.59 38.67
  A 1.42 1.41 -84.3 0 0 18.53 39.54
  Q 17.26 42.79 17.39 46.67
  Q 17.60 53.26 24.46 52.85
  A 0.34 0.34 0.0 0 0 24.58 52.20
  Q 20.86 50.44 21.87 46.79
  A 4.39 4.14 69.9 0 1 22.29 45.81
  Q 23.74 43.41 28.50 43.43
  Q 38.66 43.49 40.06 43.45
  A 0.63 0.61 -86.0 0 0 40.65 42.92
  Q 41.48 37.53 43.55 35.03
  Q 47.95 29.72 48.62 26.70
  A 0.79 0.78 -68.6 0 0 48.25 25.84
  L 45.07 24.01
  A 0.34 0.33 55.3 0 1 45.18 23.39
  L 46.30 23.19
  A 0.54 0.54 0.0 0 0 46.59 22.28
  Q 46.31 22.00 45.63 21.64
  A 0.57 0.57 0.0 0 1 45.80 20.58
  L 48.62 20.09
  A 0.59 0.59 0.0 0 0 49.07 19.30
  Q 47.54 15.16 43.26 15.52
  Q 33.12 16.39 24.32 15.80"
/>
<path stroke="#6f6b74" vector-effect="non-scaling-stroke" d="
  M 24.32 15.80
  Q 22.48 14.52 20.89 15.30
  A 1.16 1.15 42.5 0 1 19.93 15.34
  C 17.30 14.27 15.03 17.13 14.99 19.53
  C 14.88 25.42 20.00 24.92 24.83 24.85
  A 0.17 0.17 0.0 0 0 25.00 24.70
  L 25.04 24.38
  A 0.17 0.17 0.0 0 0 24.89 24.20
  L 21.54 23.83
  A 0.91 0.87 32.5 0 0 21.02 23.93
  Q 18.95 25.03 16.74 22.79
  C 14.91 20.95 15.58 15.95 18.69 15.90
  A 0.36 0.36 0.0 0 1 19.00 16.46
  Q 18.63 17.02 17.89 17.51"
/>
<path stroke="#ceced1" vector-effect="non-scaling-stroke" d="
  M 24.32 15.80
  Q 24.39 15.59 23.75 15.97"
/>
<path stroke="#6f6b74" vector-effect="non-scaling-stroke" d="
  M 23.75 15.97
  Q 22.85 15.63 22.00 16.19
  A 0.33 0.33 0.0 0 0 22.04 16.77
  L 25.24 18.23"
/>
<path stroke="#ceced1" vector-effect="non-scaling-stroke" d="
  M 25.24 18.23
  Q 25.57 18.48 25.90 18.73"
/>
<path stroke="#ceced1" vector-effect="non-scaling-stroke" d="
  M 18.07 18.02
  Q 18.43 17.98 17.89 17.51"
/>
<path stroke="#a09ca2" vector-effect="non-scaling-stroke" d="
  M 25.24 18.23
  Q 25.16 17.00 23.75 15.97"
/>
<path stroke="#a09ca2" vector-effect="non-scaling-stroke" d="
  M 22.89 20.15
  L 23.35 22.75
  A 0.82 0.82 0.0 0 0 24.95 22.79
  Q 25.15 21.91 24.98 20.38
  A 0.47 0.47 0.0 0 0 24.51 19.97
  L 23.05 19.97
  A 0.16 0.15 -4.5 0 0 22.89 20.15"
/>
<path stroke="#7a4040" vector-effect="non-scaling-stroke" d="
  M 27.97 45.26
  Q 29.00 46.18 29.38 46.34
  A 0.34 0.34 0.0 0 0 29.80 45.85
  Q 29.42 45.23 28.16 44.92
  A 0.20 0.20 0.0 0 0 27.97 45.26"
/>
<path stroke="#a09ca2" vector-effect="non-scaling-stroke" d="
  M 45.04 47.87
  L 47.57 46.41
  A 0.11 0.11 0.0 0 0 47.51 46.20
  L 32.05 46.28
  A 0.39 0.39 0.0 0 0 31.76 46.93
  Q 32.35 47.54 31.24 52.58
  A 0.37 0.36 -84.1 0 0 31.59 53.02
  L 48.15 53.02
  A 3.62 3.61 14.4 0 0 51.32 51.15
  L 51.56 50.71
  A 1.11 1.11 0.0 0 0 50.78 48.96
  L 45.14 48.34
  A 0.25 0.25 0.0 0 1 45.04 47.87"
/>
<path stroke="#a09ca2" vector-effect="non-scaling-stroke" d="
  M 28.26 49.50
  A 0.86 0.85 74.2 0 0 28.96 48.24
  Q 27.89 46.23 26.18 46.33
  A 1.23 1.22 -69.6 0 0 25.38 46.70
  L 24.56 47.52
  A 1.01 1.00 -58.9 0 0 24.97 49.19
  Q 26.34 49.61 28.26 49.50"
/>
</g>
<path fill="#5b221b" d="
  M 33.82 88.00
  L 33.04 88.00
  C 17.14 73.54 -4.58 46.38 3.05 23.10
  Q 5.54 15.49 11.53 9.91
  Q 20.55 1.53 34.00 1.23
  Q 34.74 1.21 39.01 1.84
  C 49.14 3.33 57.80 10.19 62.19 18.90
  C 74.39 43.08 50.41 72.82 33.82 88.00
  Z
  M 33.41 86.71
  Q 33.52 86.71 33.62 86.69
  Q 33.69 86.68 33.79 86.58
  C 50.10 71.09 73.38 42.17 60.63 18.54
  C 55.35 8.75 44.77 2.46 33.51 2.45
  C 22.25 2.44 11.66 8.70 6.35 18.48
  C -6.45 42.08 16.76 71.05 33.04 86.58
  Q 33.14 86.68 33.20 86.69
  Q 33.31 86.71 33.41 86.71
  Z"
/>
<path fill="#b3473b" d="
  M 33.51 2.45
  C 44.77 2.46 55.35 8.75 60.63 18.54
  C 73.38 42.17 50.10 71.09 33.79 86.58
  Q 33.69 86.68 33.62 86.69
  Q 33.52 86.71 33.41 86.71
  Q 33.31 86.71 33.20 86.69
  Q 33.14 86.68 33.04 86.58
  C 16.76 71.05 -6.45 42.08 6.35 18.48
  C 11.66 8.70 22.25 2.44 33.51 2.45
  Z
  M 20.97 37.20
  L 18.58 37.62
  A 1.05 1.05 0.0 0 0 17.77 38.29
  C 14.94 45.71 15.11 56.74 26.77 53.44
  A 1.59 1.57 47.2 0 1 27.72 53.48
  Q 29.31 54.05 29.51 54.05
  Q 43.51 53.88 46.64 53.98
  C 50.68 54.10 52.92 53.17 52.71 48.90
  A 0.85 0.84 8.4 0 0 52.15 48.15
  Q 50.68 47.64 49.52 47.74
  A 0.36 0.35 -66.8 0 1 49.27 47.11
  Q 49.47 46.95 50.12 46.73
  A 0.58 0.58 0.0 0 0 50.07 45.62
  Q 46.88 44.81 42.75 45.25
  A 0.96 0.96 0.0 0 1 41.69 44.23
  C 41.96 39.92 43.41 37.14 46.31 33.36
  Q 48.88 30.02 49.79 26.99
  Q 50.09 25.98 49.82 25.60
  Q 49.45 25.08 48.59 24.82
  A 0.40 0.40 0.0 0 1 48.64 24.04
  L 50.12 23.78
  A 0.35 0.35 0.0 0 0 50.24 23.13
  L 48.38 22.06
  A 0.39 0.39 0.0 0 1 48.58 21.33
  Q 49.22 21.33 50.00 21.06
  A 0.81 0.80 77.6 0 0 50.53 20.22
  C 49.95 14.95 45.81 13.93 40.80 14.53
  Q 34.58 15.26 26.36 14.79
  C 24.15 14.66 22.56 13.98 20.89 13.77
  A 4.21 3.81 -41.5 0 0 20.04 13.76
  C 13.94 14.41 11.21 21.72 16.99 25.08
  C 18.99 26.25 21.14 25.97 23.49 26.10
  A 0.53 0.53 0.0 0 1 23.92 26.89
  L 19.67 34.26
  A 0.77 0.76 -55.6 0 0 19.85 35.24
  Q 20.74 35.97 21.20 36.67
  A 0.35 0.35 0.0 0 1 20.97 37.20
  Z"
/>
<path fill="#413945" d="
  M 21.20 36.67
  Q 20.74 35.97 19.85 35.24
  A 0.77 0.76 -55.6 0 1 19.67 34.26
  L 23.92 26.89
  A 0.53 0.53 0.0 0 0 23.49 26.10
  C 21.14 25.97 18.99 26.25 16.99 25.08
  C 11.21 21.72 13.94 14.41 20.04 13.76
  A 4.21 3.81 -41.5 0 1 20.89 13.77
  C 22.56 13.98 24.15 14.66 26.36 14.79
  Q 34.58 15.26 40.80 14.53
  C 45.81 13.93 49.95 14.95 50.53 20.22
  A 0.81 0.80 77.6 0 1 50.00 21.06
  Q 49.22 21.33 48.58 21.33
  A 0.39 0.39 0.0 0 0 48.38 22.06
  L 50.24 23.13
  A 0.35 0.35 0.0 0 1 50.12 23.78
  L 48.64 24.04
  A 0.40 0.40 0.0 0 0 48.59 24.82
  Q 49.45 25.08 49.82 25.60
  Q 50.09 25.98 49.79 26.99
  Q 48.88 30.02 46.31 33.36
  C 43.41 37.14 41.96 39.92 41.69 44.23
  A 0.96 0.96 0.0 0 0 42.75 45.25
  Q 46.88 44.81 50.07 45.62
  A 0.58 0.58 0.0 0 1 50.12 46.73
  Q 49.47 46.95 49.27 47.11
  A 0.36 0.35 -66.8 0 0 49.52 47.74
  Q 50.68 47.64 52.15 48.15
  A 0.85 0.84 8.4 0 1 52.71 48.90
  C 52.92 53.17 50.68 54.10 46.64 53.98
  Q 43.51 53.88 29.51 54.05
  Q 29.31 54.05 27.72 53.48
  A 1.59 1.57 47.2 0 0 26.77 53.44
  C 15.11 56.74 14.94 45.71 17.77 38.29
  A 1.05 1.05 0.0 0 1 18.58 37.62
  L 20.97 37.20
  A 0.35 0.35 0.0 0 0 21.20 36.67
  Z
  M 17.89 17.51
  Q 16.72 18.08 16.68 19.75
  Q 16.61 22.67 19.78 23.13
  A 0.77 0.77 0.0 0 0 20.54 21.96
  L 18.07 18.02
  Q 18.68 17.71 19.16 17.85
  Q 19.57 17.96 19.88 18.64
  Q 20.83 20.68 21.75 22.64
  A 0.28 0.28 0.0 0 0 22.27 22.57
  Q 22.38 21.97 21.13 19.68
  A 0.41 0.41 0.0 0 1 21.46 19.08
  L 25.90 18.73
  Q 26.70 26.57 21.15 33.87
  A 0.72 0.71 41.1 0 0 21.22 34.80
  L 23.82 37.41
  A 0.33 0.32 -27.0 0 1 23.64 37.96
  L 19.59 38.67
  A 1.42 1.41 -84.3 0 0 18.53 39.54
  Q 17.26 42.79 17.39 46.67
  Q 17.60 53.26 24.46 52.85
  A 0.34 0.34 0.0 0 0 24.58 52.20
  Q 20.86 50.44 21.87 46.79
  A 4.39 4.14 69.9 0 1 22.29 45.81
  Q 23.74 43.41 28.50 43.43
  Q 38.66 43.49 40.06 43.45
  A 0.63 0.61 -86.0 0 0 40.65 42.92
  Q 41.48 37.53 43.55 35.03
  Q 47.95 29.72 48.62 26.70
  A 0.79 0.78 -68.6 0 0 48.25 25.84
  L 45.07 24.01
  A 0.34 0.33 55.3 0 1 45.18 23.39
  L 46.30 23.19
  A 0.54 0.54 0.0 0 0 46.59 22.28
  Q 46.31 22.00 45.63 21.64
  A 0.57 0.57 0.0 0 1 45.80 20.58
  L 48.62 20.09
  A 0.59 0.59 0.0 0 0 49.07 19.30
  Q 47.54 15.16 43.26 15.52
  Q 33.12 16.39 24.32 15.80
  Q 22.48 14.52 20.89 15.30
  A 1.16 1.15 42.5 0 1 19.93 15.34
  C 17.30 14.27 15.03 17.13 14.99 19.53
  C 14.88 25.42 20.00 24.92 24.83 24.85
  A 0.17 0.17 0.0 0 0 25.00 24.70
  L 25.04 24.38
  A 0.17 0.17 0.0 0 0 24.89 24.20
  L 21.54 23.83
  A 0.91 0.87 32.5 0 0 21.02 23.93
  Q 18.95 25.03 16.74 22.79
  C 14.91 20.95 15.58 15.95 18.69 15.90
  A 0.36 0.36 0.0 0 1 19.00 16.46
  Q 18.63 17.02 17.89 17.51
  Z
  M 22.89 20.15
  L 23.35 22.75
  A 0.82 0.82 0.0 0 0 24.95 22.79
  Q 25.15 21.91 24.98 20.38
  A 0.47 0.47 0.0 0 0 24.51 19.97
  L 23.05 19.97
  A 0.16 0.15 -4.5 0 0 22.89 20.15
  Z
  M 27.97 45.26
  Q 29.00 46.18 29.38 46.34
  A 0.34 0.34 0.0 0 0 29.80 45.85
  Q 29.42 45.23 28.16 44.92
  A 0.20 0.20 0.0 0 0 27.97 45.26
  Z
  M 45.04 47.87
  L 47.57 46.41
  A 0.11 0.11 0.0 0 0 47.51 46.20
  L 32.05 46.28
  A 0.39 0.39 0.0 0 0 31.76 46.93
  Q 32.35 47.54 31.24 52.58
  A 0.37 0.36 -84.1 0 0 31.59 53.02
  L 48.15 53.02
  A 3.62 3.61 14.4 0 0 51.32 51.15
  L 51.56 50.71
  A 1.11 1.11 0.0 0 0 50.78 48.96
  L 45.14 48.34
  A 0.25 0.25 0.0 0 1 45.04 47.87
  Z
  M 28.26 49.50
  A 0.86 0.85 74.2 0 0 28.96 48.24
  Q 27.89 46.23 26.18 46.33
  A 1.23 1.22 -69.6 0 0 25.38 46.70
  L 24.56 47.52
  A 1.01 1.00 -58.9 0 0 24.97 49.19
  Q 26.34 49.61 28.26 49.50
  Z"
/>
<path fill="#9c9ca3" d="
  M 24.32 15.80
  Q 24.39 15.59 23.75 15.97
  Q 22.85 15.63 22.00 16.19
  A 0.33 0.33 0.0 0 0 22.04 16.77
  L 25.24 18.23
  Q 25.57 18.48 25.90 18.73
  L 21.46 19.08
  A 0.41 0.41 0.0 0 0 21.13 19.68
  Q 22.38 21.97 22.27 22.57
  A 0.28 0.28 0.0 0 1 21.75 22.64
  Q 20.83 20.68 19.88 18.64
  Q 19.57 17.96 19.16 17.85
  Q 18.68 17.71 18.07 18.02
  Q 18.43 17.98 17.89 17.51
  Q 18.63 17.02 19.00 16.46
  A 0.36 0.36 0.0 0 0 18.69 15.90
  C 15.58 15.95 14.91 20.95 16.74 22.79
  Q 18.95 25.03 21.02 23.93
  A 0.91 0.87 32.5 0 1 21.54 23.83
  L 24.89 24.20
  A 0.17 0.17 0.0 0 1 25.04 24.38
  L 25.00 24.70
  A 0.17 0.17 0.0 0 1 24.83 24.85
  C 20.00 24.92 14.88 25.42 14.99 19.53
  C 15.03 17.13 17.30 14.27 19.93 15.34
  A 1.16 1.15 42.5 0 0 20.89 15.30
  Q 22.48 14.52 24.32 15.80
  Z"
/>
<path fill="#ffffff" d="
  M 25.90 18.73
  Q 25.57 18.48 25.24 18.23
  Q 25.16 17.00 23.75 15.97
  Q 24.39 15.59 24.32 15.80
  Q 33.12 16.39 43.26 15.52
  Q 47.54 15.16 49.07 19.30
  A 0.59 0.59 0.0 0 1 48.62 20.09
  L 45.80 20.58
  A 0.57 0.57 0.0 0 0 45.63 21.64
  Q 46.31 22.00 46.59 22.28
  A 0.54 0.54 0.0 0 1 46.30 23.19
  L 45.18 23.39
  A 0.34 0.33 55.3 0 0 45.07 24.01
  L 48.25 25.84
  A 0.79 0.78 -68.6 0 1 48.62 26.70
  Q 47.95 29.72 43.55 35.03
  Q 41.48 37.53 40.65 42.92
  A 0.63 0.61 -86.0 0 1 40.06 43.45
  Q 38.66 43.49 28.50 43.43
  Q 23.74 43.41 22.29 45.81
  A 4.39 4.14 69.9 0 0 21.87 46.79
  Q 20.86 50.44 24.58 52.20
  A 0.34 0.34 0.0 0 1 24.46 52.85
  Q 17.60 53.26 17.39 46.67
  Q 17.26 42.79 18.53 39.54
  A 1.42 1.41 -84.3 0 1 19.59 38.67
  L 23.64 37.96
  A 0.33 0.32 -27.0 0 0 23.82 37.41
  L 21.22 34.80
  A 0.72 0.71 41.1 0 1 21.15 33.87
  Q 26.70 26.57 25.90 18.73
  Z"
/>
<path fill="#413945" d="
  M 23.75 15.97
  Q 25.16 17.00 25.24 18.23
  L 22.04 16.77
  A 0.33 0.33 0.0 0 1 22.00 16.19
  Q 22.85 15.63 23.75 15.97
  Z"
/>
<path fill="#ffffff" d="
  M 17.89 17.51
  Q 18.43 17.98 18.07 18.02
  L 20.54 21.96
  A 0.77 0.77 0.0 0 1 19.78 23.13
  Q 16.61 22.67 16.68 19.75
  Q 16.72 18.08 17.89 17.51
  Z"
/>
<path fill="#ffffff" d="
  M 22.89 20.15
  A 0.16 0.15 -4.5 0 1 23.05 19.97
  L 24.51 19.97
  A 0.47 0.47 0.0 0 1 24.98 20.38
  Q 25.15 21.91 24.95 22.79
  A 0.82 0.82 0.0 0 1 23.35 22.75
  L 22.89 20.15
  Z"
/>
<path fill="#b3473b" d="
  M 28.16 44.92
  Q 29.42 45.23 29.80 45.85
  A 0.34 0.34 0.0 0 1 29.38 46.34
  Q 29.00 46.18 27.97 45.26
  A 0.20 0.20 0.0 0 1 28.16 44.92
  Z"
/>
<path fill="#ffffff" d="
  M 45.14 48.34
  L 50.78 48.96
  A 1.11 1.11 0.0 0 1 51.56 50.71
  L 51.32 51.15
  A 3.62 3.61 14.4 0 1 48.15 53.02
  L 31.59 53.02
  A 0.37 0.36 -84.1 0 1 31.24 52.58
  Q 32.35 47.54 31.76 46.93
  A 0.39 0.39 0.0 0 1 32.05 46.28
  L 47.51 46.20
  A 0.11 0.11 0.0 0 1 47.57 46.41
  L 45.04 47.87
  A 0.25 0.25 0.0 0 0 45.14 48.34
  Z"
/>
<path fill="#ffffff" d="
  M 28.26 49.50
  Q 26.34 49.61 24.97 49.19
  A 1.01 1.00 -58.9 0 1 24.56 47.52
  L 25.38 46.70
  A 1.23 1.22 -69.6 0 1 26.18 46.33
  Q 27.89 46.23 28.96 48.24
  A 0.86 0.85 74.2 0 1 28.26 49.50
  Z"
/>
</svg>
