<?xml version="1.0" encoding="UTF-8" standalone="no"?>
<!DOCTYPE svg PUBLIC "-//W3C//DTD SVG 1.1//EN" "http://www.w3.org/Graphics/SVG/1.1/DTD/svg11.dtd">
<svg xmlns="http://www.w3.org/2000/svg" version="1.1" viewBox="0.00 0.00 66.00 88.00">
<g stroke-width="2.00" fill="none" stroke-linecap="butt">
<path stroke="#496d97" vector-effect="non-scaling-stroke" d="
  M 33.40 86.73
  Q 33.48 86.73 33.63 86.60
  Q 48.71 72.66 57.72 56.26
  C 64.49 43.92 67.54 28.35 59.36 16.39
  C 53.47 7.79 44.23 2.46 33.52 2.44
  C 22.81 2.43 13.55 7.73 7.64 16.32
  C -0.58 28.25 2.43 43.83 9.16 56.19
  Q 18.12 72.62 33.16 86.60
  Q 33.31 86.73 33.40 86.73"
/>
<path stroke="#4c6285" vector-effect="non-scaling-stroke" d="
  M 52.55 25.25
  L 52.94 22.52
  A 1.84 1.84 0.0 0 0 51.38 20.44
  L 41.72 19.07
  A 3.48 3.46 -51.4 0 0 39.97 19.27
  L 33.72 21.72
  A 0.98 0.97 51.3 0 1 32.83 21.62
  C 27.76 18.26 21.25 18.22 16.91 23.05
  A 2.08 1.98 -17.1 0 0 16.45 23.87
  L 11.81 39.64
  A 2.04 1.98 -44.2 0 0 11.78 40.70
  Q 12.13 42.12 11.75 43.74
  A 2.20 2.20 0.0 0 0 13.82 46.43
  L 25.38 46.83
  A 1.18 1.15 -23.8 0 1 26.10 47.10
  Q 29.84 50.16 33.95 47.62
  A 2.19 2.13 -59.5 0 1 35.16 47.29
  Q 40.90 47.42 49.74 47.76
  Q 51.99 47.85 52.27 46.02
  Q 53.58 37.25 54.77 29.02
  Q 55.18 26.18 52.96 25.81
  A 0.50 0.50 0.0 0 1 52.55 25.25"
/>
<path stroke="#9999a1" vector-effect="non-scaling-stroke" d="
  M 14.37 39.91
  C 17.57 38.80 21.39 38.34 24.87 39.94
  Q 26.67 40.77 29.13 41.15
  A 0.49 0.48 10.0 0 0 29.68 40.77
  L 32.99 24.18
  A 0.68 0.67 -73.2 0 0 32.59 23.42
  L 27.96 21.45
  A 4.34 4.05 -26.5 0 0 27.15 21.21
  Q 22.37 20.33 18.64 24.07
  A 2.18 2.15 -15.2 0 0 18.11 24.98
  L 13.86 39.42
  A 0.40 0.40 0.0 0 0 14.37 39.91"
/>
<path stroke="#9999a1" vector-effect="non-scaling-stroke" d="
  M 31.88 41.04
  Q 34.55 39.65 38.01 39.50
  Q 38.05 39.50 38.10 39.50
  L 47.73 41.27
  A 0.60 0.60 0.0 0 0 48.43 40.77
  L 50.98 22.77
  A 0.51 0.50 -85.5 0 0 50.49 22.19
  Q 47.56 22.12 45.22 21.63
  C 40.94 20.72 38.38 21.18 35.38 23.31
  A 1.54 1.51 -12.4 0 0 34.77 24.24
  L 31.48 40.74
  A 0.28 0.28 0.0 0 0 31.88 41.04"
/>
<path stroke="#9999a1" vector-effect="non-scaling-stroke" d="
  M 48.72 44.20
  Q 41.17 44.37 34.74 43.93
  Q 32.95 43.80 32.30 44.32
  Q 29.59 46.51 28.37 44.19
  A 1.21 1.19 -12.5 0 0 27.36 43.56
  L 13.95 43.11
  A 0.48 0.48 0.0 0 0 13.45 43.52
  L 13.39 43.93
  A 0.49 0.49 0.0 0 0 13.86 44.48
  L 25.85 44.82
  A 2.51 2.45 58.6 0 1 26.95 45.10
  C 27.72 45.60 28.15 46.50 29.21 46.70
  Q 31.65 47.16 33.07 45.64
  A 1.16 1.15 -67.0 0 1 33.95 45.28
  L 49.95 45.83
  A 0.59 0.58 5.1 0 0 50.54 45.34
  L 52.97 28.20
  A 0.63 0.62 5.4 0 0 52.37 27.49
  L 52.10 27.48
  A 0.45 0.44 -84.9 0 0 51.65 27.86
  L 49.42 43.58
  A 0.72 0.71 3.2 0 1 48.72 44.20"
/>
<path stroke="#9999a1" vector-effect="non-scaling-stroke" d="
  M 16.00 41.61
  L 24.13 41.87
  A 0.12 0.12 0.0 0 0 24.26 41.75
  L 24.26 41.67
  A 4.10 1.28 1.8 0 0 20.20 40.26
  L 20.02 40.26
  A 4.10 1.28 1.8 0 0 15.89 41.41
  L 15.88 41.49
  A 0.12 0.12 0.0 0 0 16.00 41.61"
/>
<path stroke="#9999a1" vector-effect="non-scaling-stroke" d="
  M 33.78 42.50
  L 43.70 42.78
  A 0.16 0.16 0.0 0 0 43.86 42.62
  L 43.86 42.51
  A 5.03 1.21 1.6 0 0 38.87 41.16
  L 38.69 41.16
  A 5.03 1.21 1.6 0 0 33.63 42.23
  L 33.63 42.34
  A 0.16 0.16 0.0 0 0 33.78 42.50"
/>
<path stroke="#9999a1" vector-effect="non-scaling-stroke" d="
  M 37.26 34.47
  C 43.63 38.96 50.24 26.42 43.43 24.86
  Q 39.95 24.06 37.80 27.66
  A 1.77 1.71 -31.6 0 0 37.54 28.67
  Q 37.69 31.43 39.58 31.84
  A 3.03 3.02 16.9 0 0 43.04 30.00
  Q 43.39 29.13 42.64 28.25
  A 0.38 0.37 18.0 0 0 41.99 28.58
  Q 42.02 28.70 42.32 28.93
  A 0.74 0.74 0.0 0 1 42.36 30.06
  Q 41.26 31.05 40.54 30.93
  A 2.21 2.19 -68.9 0 1 39.07 27.57
  C 40.06 26.01 42.67 25.28 44.15 26.98
  Q 45.98 29.10 44.30 31.88
  Q 42.13 35.48 37.36 34.26
  A 0.12 0.12 0.0 0 0 37.26 34.47"
/>
</g>
<path fill="#2d4966" d="
  M 33.79 88.00
  L 33.03 88.00
  C 21.71 77.71 12.21 65.76 5.68 51.55
  Q 2.12 43.82 1.58 34.90
  C 0.42 15.88 16.11 0.25 35.42 1.38
  C 52.64 2.40 66.03 16.69 65.45 33.91
  Q 65.18 41.70 62.40 48.85
  C 56.62 63.76 45.55 77.32 33.79 88.00
  Z
  M 33.40 86.73
  Q 33.48 86.73 33.63 86.60
  Q 48.71 72.66 57.72 56.26
  C 64.49 43.92 67.54 28.35 59.36 16.39
  C 53.47 7.79 44.23 2.46 33.52 2.44
  C 22.81 2.43 13.55 7.73 7.64 16.32
  C -0.58 28.25 2.43 43.83 9.16 56.19
  Q 18.12 72.62 33.16 86.60
  Q 33.31 86.73 33.40 86.73
  Z"
/>
<path fill="#6591c7" d="
  M 33.52 2.44
  C 44.23 2.46 53.47 7.79 59.36 16.39
  C 67.54 28.35 64.49 43.92 57.72 56.26
  Q 48.71 72.66 33.63 86.60
  Q 33.48 86.73 33.40 86.73
  Q 33.31 86.73 33.16 86.60
  Q 18.12 72.62 9.16 56.19
  C 2.43 43.83 -0.58 28.25 7.64 16.32
  C 13.55 7.73 22.81 2.43 33.52 2.44
  Z
  M 52.55 25.25
  L 52.94 22.52
  A 1.84 1.84 0.0 0 0 51.38 20.44
  L 41.72 19.07
  A 3.48 3.46 -51.4 0 0 39.97 19.27
  L 33.72 21.72
  A 0.98 0.97 51.3 0 1 32.83 21.62
  C 27.76 18.26 21.25 18.22 16.91 23.05
  A 2.08 1.98 -17.1 0 0 16.45 23.87
  L 11.81 39.64
  A 2.04 1.98 -44.2 0 0 11.78 40.70
  Q 12.13 42.12 11.75 43.74
  A 2.20 2.20 0.0 0 0 13.82 46.43
  L 25.38 46.83
  A 1.18 1.15 -23.8 0 1 26.10 47.10
  Q 29.84 50.16 33.95 47.62
  A 2.19 2.13 -59.5 0 1 35.16 47.29
  Q 40.90 47.42 49.74 47.76
  Q 51.99 47.85 52.27 46.02
  Q 53.58 37.25 54.77 29.02
  Q 55.18 26.18 52.96 25.81
  A 0.50 0.50 0.0 0 1 52.55 25.25
  Z"
/>
<path fill="#333343" d="
  M 52.96 25.81
  Q 55.18 26.18 54.77 29.02
  Q 53.58 37.25 52.27 46.02
  Q 51.99 47.85 49.74 47.76
  Q 40.90 47.42 35.16 47.29
  A 2.19 2.13 -59.5 0 0 33.95 47.62
  Q 29.84 50.16 26.10 47.10
  A 1.18 1.15 -23.8 0 0 25.38 46.83
  L 13.82 46.43
  A 2.20 2.20 0.0 0 1 11.75 43.74
  Q 12.13 42.12 11.78 40.70
  A 2.04 1.98 -44.2 0 1 11.81 39.64
  L 16.45 23.87
  A 2.08 1.98 -17.1 0 1 16.91 23.05
  C 21.25 18.22 27.76 18.26 32.83 21.62
  A 0.98 0.97 51.3 0 0 33.72 21.72
  L 39.97 19.27
  A 3.48 3.46 -51.4 0 1 41.72 19.07
  L 51.38 20.44
  A 1.84 1.84 0.0 0 1 52.94 22.52
  L 52.55 25.25
  A 0.50 0.50 0.0 0 0 52.96 25.81
  Z
  M 14.37 39.91
  C 17.57 38.80 21.39 38.34 24.87 39.94
  Q 26.67 40.77 29.13 41.15
  A 0.49 0.48 10.0 0 0 29.68 40.77
  L 32.99 24.18
  A 0.68 0.67 -73.2 0 0 32.59 23.42
  L 27.96 21.45
  A 4.34 4.05 -26.5 0 0 27.15 21.21
  Q 22.37 20.33 18.64 24.07
  A 2.18 2.15 -15.2 0 0 18.11 24.98
  L 13.86 39.42
  A 0.40 0.40 0.0 0 0 14.37 39.91
  Z
  M 31.88 41.04
  Q 34.55 39.65 38.01 39.50
  Q 38.05 39.50 38.10 39.50
  L 47.73 41.27
  A 0.60 0.60 0.0 0 0 48.43 40.77
  L 50.98 22.77
  A 0.51 0.50 -85.5 0 0 50.49 22.19
  Q 47.56 22.12 45.22 21.63
  C 40.94 20.72 38.38 21.18 35.38 23.31
  A 1.54 1.51 -12.4 0 0 34.77 24.24
  L 31.48 40.74
  A 0.28 0.28 0.0 0 0 31.88 41.04
  Z
  M 48.72 44.20
  Q 41.17 44.37 34.74 43.93
  Q 32.95 43.80 32.30 44.32
  Q 29.59 46.51 28.37 44.19
  A 1.21 1.19 -12.5 0 0 27.36 43.56
  L 13.95 43.11
  A 0.48 0.48 0.0 0 0 13.45 43.52
  L 13.39 43.93
  A 0.49 0.49 0.0 0 0 13.86 44.48
  L 25.85 44.82
  A 2.51 2.45 58.6 0 1 26.95 45.10
  C 27.72 45.60 28.15 46.50 29.21 46.70
  Q 31.65 47.16 33.07 45.64
  A 1.16 1.15 -67.0 0 1 33.95 45.28
  L 49.95 45.83
  A 0.59 0.58 5.1 0 0 50.54 45.34
  L 52.97 28.20
  A 0.63 0.62 5.4 0 0 52.37 27.49
  L 52.10 27.48
  A 0.45 0.44 -84.9 0 0 51.65 27.86
  L 49.42 43.58
  A 0.72 0.71 3.2 0 1 48.72 44.20
  Z
  M 16.00 41.61
  L 24.13 41.87
  A 0.12 0.12 0.0 0 0 24.26 41.75
  L 24.26 41.67
  A 4.10 1.28 1.8 0 0 20.20 40.26
  L 20.02 40.26
  A 4.10 1.28 1.8 0 0 15.89 41.41
  L 15.88 41.49
  A 0.12 0.12 0.0 0 0 16.00 41.61
  Z
  M 33.78 42.50
  L 43.70 42.78
  A 0.16 0.16 0.0 0 0 43.86 42.62
  L 43.86 42.51
  A 5.03 1.21 1.6 0 0 38.87 41.16
  L 38.69 41.16
  A 5.03 1.21 1.6 0 0 33.63 42.23
  L 33.63 42.34
  A 0.16 0.16 0.0 0 0 33.78 42.50
  Z"
/>
<path fill="#ffffff" d="
  M 13.86 39.42
  L 18.11 24.98
  A 2.18 2.15 -15.2 0 1 18.64 24.07
  Q 22.37 20.33 27.15 21.21
  A 4.34 4.05 -26.5 0 1 27.96 21.45
  L 32.59 23.42
  A 0.68 0.67 -73.2 0 1 32.99 24.18
  L 29.68 40.77
  A 0.49 0.48 10.0 0 1 29.13 41.15
  Q 26.67 40.77 24.87 39.94
  C 21.39 38.34 17.57 38.80 14.37 39.91
  A 0.40 0.40 0.0 0 1 13.86 39.42
  Z"
/>
<path fill="#ffffff" d="
  M 31.88 41.04
  A 0.28 0.28 0.0 0 1 31.48 40.74
  L 34.77 24.24
  A 1.54 1.51 -12.4 0 1 35.38 23.31
  C 38.38 21.18 40.94 20.72 45.22 21.63
  Q 47.56 22.12 50.49 22.19
  A 0.51 0.50 -85.5 0 1 50.98 22.77
  L 48.43 40.77
  A 0.60 0.60 0.0 0 1 47.73 41.27
  L 38.10 39.50
  Q 38.05 39.50 38.01 39.50
  Q 34.55 39.65 31.88 41.04
  Z
  M 37.26 34.47
  C 43.63 38.96 50.24 26.42 43.43 24.86
  Q 39.95 24.06 37.80 27.66
  A 1.77 1.71 -31.6 0 0 37.54 28.67
  Q 37.69 31.43 39.58 31.84
  A 3.03 3.02 16.9 0 0 43.04 30.00
  Q 43.39 29.13 42.64 28.25
  A 0.38 0.37 18.0 0 0 41.99 28.58
  Q 42.02 28.70 42.32 28.93
  A 0.74 0.74 0.0 0 1 42.36 30.06
  Q 41.26 31.05 40.54 30.93
  A 2.21 2.19 -68.9 0 1 39.07 27.57
  C 40.06 26.01 42.67 25.28 44.15 26.98
  Q 45.98 29.10 44.30 31.88
  Q 42.13 35.48 37.36 34.26
  A 0.12 0.12 0.0 0 0 37.26 34.47
  Z"
/>
<path fill="#333343" d="
  M 37.36 34.26
  Q 42.13 35.48 44.30 31.88
  Q 45.98 29.10 44.15 26.98
  C 42.67 25.28 40.06 26.01 39.07 27.57
  A 2.21 2.19 -68.9 0 0 40.54 30.93
  Q 41.26 31.05 42.36 30.06
  A 0.74 0.74 0.0 0 0 42.32 28.93
  Q 42.02 28.70 41.99 28.58
  A 0.38 0.37 18.0 0 1 42.64 28.25
  Q 43.39 29.13 43.04 30.00
  A 3.03 3.02 16.9 0 1 39.58 31.84
  Q 37.69 31.43 37.54 28.67
  A 1.77 1.71 -31.6 0 1 37.80 27.66
  Q 39.95 24.06 43.43 24.86
  C 50.24 26.42 43.63 38.96 37.26 34.47
  A 0.12 0.12 0.0 0 1 37.36 34.26
  Z"
/>
<path fill="#ffffff" d="
  M 49.42 43.58
  L 51.65 27.86
  A 0.45 0.44 -84.9 0 1 52.10 27.48
  L 52.37 27.49
  A 0.63 0.62 5.4 0 1 52.97 28.20
  L 50.54 45.34
  A 0.59 0.58 5.1 0 1 49.95 45.83
  L 33.95 45.28
  A 1.16 1.15 -67.0 0 0 33.07 45.64
  Q 31.65 47.16 29.21 46.70
  C 28.15 46.50 27.72 45.60 26.95 45.10
  A 2.51 2.45 58.6 0 0 25.85 44.82
  L 13.86 44.48
  A 0.49 0.49 0.0 0 1 13.39 43.93
  L 13.45 43.52
  A 0.48 0.48 0.0 0 1 13.95 43.11
  L 27.36 43.56
  A 1.21 1.19 -12.5 0 1 28.37 44.19
  Q 29.59 46.51 32.30 44.32
  Q 32.95 43.80 34.74 43.93
  Q 41.17 44.37 48.72 44.20
  A 0.72 0.71 3.2 0 0 49.42 43.58
  Z"
/>
<path fill="#ffffff" d="
  M 16.00 41.61
  A 0.12 0.12 0.0 0 1 15.88 41.49
  L 15.89 41.41
  A 4.10 1.28 1.8 0 1 20.02 40.26
  L 20.20 40.26
  A 4.10 1.28 1.8 0 1 24.26 41.67
  L 24.26 41.75
  A 0.12 0.12 0.0 0 1 24.13 41.87
  L 16.00 41.61
  Z"
/>
<path fill="#ffffff" d="
  M 33.78 42.50
  A 0.16 0.16 0.0 0 1 33.63 42.34
  L 33.63 42.23
  A 5.03 1.21 1.6 0 1 38.69 41.16
  L 38.87 41.16
  A 5.03 1.21 1.6 0 1 43.86 42.51
  L 43.86 42.62
  A 0.16 0.16 0.0 0 1 43.70 42.78
  L 33.78 42.50
  Z"
/>
</svg>
