<?xml version="1.0" encoding="UTF-8" standalone="no"?>
<!DOCTYPE svg PUBLIC "-//W3C//DTD SVG 1.1//EN" "http://www.w3.org/Graphics/SVG/1.1/DTD/svg11.dtd">
<svg xmlns="http://www.w3.org/2000/svg" version="1.1" viewBox="0.00 0.00 66.00 88.00">
<g stroke-width="2.00" fill="none" stroke-linecap="butt">
<path stroke="#4a4b57" vector-effect="non-scaling-stroke" d="
  M 33.41 86.62
  C 34.25 86.62 33.55 86.69 33.79 86.46
  Q 47.98 73.31 57.03 57.55
  C 63.61 46.06 67.48 30.74 60.84 18.89
  Q 52.21 3.52 34.25 2.51
  Q 33.67 2.48 33.53 2.48
  Q 33.39 2.48 32.81 2.51
  Q 14.85 3.47 6.17 18.81
  C -0.50 30.64 3.32 45.97 9.87 57.48
  Q 18.87 73.27 33.03 86.46
  C 33.27 86.68 32.57 86.62 33.41 86.62"
/>
<path stroke="#4c4c5c" vector-effect="non-scaling-stroke" d="
  M 34.91 29.32
  L 34.91 30.03
  A 0.48 0.48 0.0 0 1 34.17 30.43
  Q 32.37 29.28 30.34 30.57
  Q 24.17 34.49 20.83 36.81
  A 4.99 4.99 0.0 0 0 18.70 40.90
  L 18.70 47.83
  A 2.09 2.09 0.0 0 0 19.63 49.57
  L 28.13 55.32
  A 0.82 0.82 0.0 0 0 29.05 55.32
  L 40.32 47.86
  A 1.44 1.44 0.0 0 0 40.95 46.67
  L 40.95 37.79
  A 1.99 1.96 -61.9 0 0 40.63 36.71
  L 38.69 33.78
  A 0.25 0.25 0.0 0 1 38.85 33.40
  L 42.79 32.71
  A 1.07 1.06 84.8 0 0 43.66 31.66
  L 43.66 29.43
  A 0.67 0.67 0.0 0 1 44.45 28.77
  Q 46.04 29.04 47.11 26.10
  A 0.54 0.47 -41.1 0 0 47.14 25.88
  L 46.76 18.38
  A 2.30 2.28 -62.6 0 0 46.42 17.29
  Q 43.81 13.12 39.92 12.72
  Q 35.37 12.26 32.34 17.21
  A 2.68 2.60 -27.1 0 0 31.96 18.33
  Q 31.64 21.63 31.61 25.10
  Q 31.59 28.62 34.28 28.69
  A 0.64 0.63 0.5 0 1 34.91 29.32"
/>
<path stroke="#9a9aa2" vector-effect="non-scaling-stroke" d="
  M 39.34 29.44
  Q 40.37 29.44 41.40 29.11
  A 0.96 0.96 0.0 0 0 42.07 28.20
  L 42.07 27.52
  A 0.75 0.75 0.0 0 1 42.82 26.77
  L 44.95 26.77
  A 0.52 0.52 0.0 0 0 45.47 26.25
  Q 45.45 22.35 45.43 22.33
  A 0.79 0.79 0.0 0 1 45.21 21.97
  Q 44.89 20.85 42.75 21.92
  A 0.43 0.42 10.5 0 1 42.27 21.23
  Q 43.04 20.54 43.89 20.71
  A 1.45 1.35 79.1 0 0 45.25 18.55
  Q 42.70 14.19 39.35 14.19
  Q 36.00 14.19 33.44 18.54
  A 1.45 1.35 -79.1 0 0 34.80 20.71
  Q 35.65 20.54 36.42 21.23
  A 0.43 0.42 -10.5 0 1 35.94 21.92
  Q 33.80 20.85 33.48 21.96
  A 0.79 0.79 0.0 0 1 33.26 22.32
  Q 33.24 22.34 33.21 26.24
  A 0.52 0.52 0.0 0 0 33.73 26.76
  L 35.86 26.77
  A 0.75 0.75 0.0 0 1 36.61 27.52
  L 36.61 28.20
  A 0.96 0.96 0.0 0 0 37.28 29.11
  Q 38.31 29.44 39.34 29.44"
/>
<path stroke="#9a9aa2" vector-effect="non-scaling-stroke" d="
  M 42.05 30.15
  L 36.43 30.13
  A 0.10 0.10 0.0 0 0 36.33 30.22
  L 36.33 30.26
  A 2.71 1.16 0.3 0 0 39.04 31.44
  L 39.44 31.44
  A 2.71 1.16 0.3 0 0 42.15 30.30
  L 42.15 30.26
  A 0.10 0.10 0.0 0 0 42.05 30.15"
/>
<path stroke="#9a9aa2" vector-effect="non-scaling-stroke" d="
  M 21.95 38.12
  Q 26.25 39.82 28.35 43.93
  A 0.64 0.64 0.0 0 0 29.27 44.17
  L 38.26 38.20
  A 0.69 0.69 0.0 0 0 38.54 37.39
  Q 36.94 32.85 32.24 31.32
  A 0.27 0.27 0.0 0 0 32.03 31.35
  L 21.93 37.89
  A 0.13 0.13 0.0 0 0 21.95 38.12"
/>
<path stroke="#9a9aa2" vector-effect="non-scaling-stroke" d="
  M 20.77 39.64
  L 27.18 44.55
  A 0.10 0.10 0.0 0 0 27.32 44.54
  L 27.37 44.47
  A 3.93 1.42 37.5 0 0 25.11 40.95
  L 24.78 40.70
  A 3.93 1.42 37.5 0 0 20.80 39.43
  L 20.75 39.50
  A 0.10 0.10 0.0 0 0 20.77 39.64"
/>
<path stroke="#9a9aa2" vector-effect="non-scaling-stroke" d="
  M 39.05 39.48
  L 36.96 40.86
  A 1.27 1.21 81.4 0 0 36.45 41.59
  L 35.64 44.84
  A 0.87 0.87 0.0 0 1 33.95 44.85
  Q 33.89 44.61 33.46 43.82
  A 0.48 0.48 0.0 0 0 32.78 43.65
  L 30.35 45.26
  A 1.95 1.94 -16.9 0 0 29.48 46.88
  L 29.48 52.41
  A 0.37 0.37 0.0 0 0 30.05 52.72
  L 39.01 46.79
  A 1.15 1.14 73.1 0 0 39.51 45.84
  L 39.51 39.73
  A 0.30 0.29 73.2 0 0 39.05 39.48"
/>
<path stroke="#9a9aa2" vector-effect="non-scaling-stroke" d="
  M 22.30 49.42
  Q 26.22 52.11 27.38 52.79
  A 0.26 0.26 0.0 0 0 27.77 52.56
  L 27.73 46.49
  A 1.14 1.13 17.2 0 0 27.23 45.55
  Q 26.92 45.32 25.92 44.63
  Q 21.99 41.94 20.84 41.27
  A 0.26 0.26 0.0 0 0 20.45 41.49
  L 20.49 47.56
  A 1.14 1.13 17.2 0 0 20.99 48.50
  Q 21.29 48.74 22.30 49.42"
/>
<path stroke="#9a9aa2" vector-effect="non-scaling-stroke" d="
  M 39.60 22.35
  Q 39.53 22.34 39.02 22.52
  A 0.15 0.14 -52.0 0 0 39.05 22.80
  Q 39.60 22.85 39.69 22.79
  A 0.25 0.23 -58.2 0 0 39.60 22.35"
/>
<path stroke="#9a9aa2" vector-effect="non-scaling-stroke" d="
  M 38.07 23.15
  Q 36.56 23.38 34.95 22.51
  A 0.46 0.45 -75.9 0 0 34.28 22.92
  L 34.29 25.17
  A 0.47 0.47 0.0 0 0 34.89 25.62
  Q 37.06 25.01 38.43 24.05
  A 0.49 0.49 0.0 0 0 38.07 23.15"
/>
<path stroke="#9a9aa2" vector-effect="non-scaling-stroke" d="
  M 40.69 23.22
  A 0.48 0.48 0.0 0 0 40.35 24.09
  Q 41.68 25.02 43.79 25.61
  A 0.46 0.46 0.0 0 0 44.37 25.17
  L 44.37 22.98
  A 0.44 0.44 0.0 0 0 43.72 22.59
  Q 42.16 23.44 40.69 23.22"
/>
<path stroke="#9a9aa2" vector-effect="non-scaling-stroke" d="
  M 39.94 27.02
  A 0.75 0.73 23.6 0 0 39.39 25.68
  Q 38.74 25.78 38.38 26.48
  A 0.46 0.46 0.0 0 0 38.71 27.14
  Q 39.53 27.28 39.94 27.02"
/>
</g>
<path fill="#31333b" d="
  M 33.80 88.00
  L 33.03 88.00
  C 16.75 73.20 -6.53 43.98 4.15 20.23
  C 11.85 3.11 32.46 -3.66 48.98 5.28
  C 58.92 10.66 65.42 21.03 65.45 32.51
  Q 65.46 39.45 63.53 45.52
  C 58.39 61.74 46.29 76.63 33.80 88.00
  Z
  M 33.41 86.62
  C 34.25 86.62 33.55 86.69 33.79 86.46
  Q 47.98 73.31 57.03 57.55
  C 63.61 46.06 67.48 30.74 60.84 18.89
  Q 52.21 3.52 34.25 2.51
  Q 33.67 2.48 33.53 2.48
  Q 33.39 2.48 32.81 2.51
  Q 14.85 3.47 6.17 18.81
  C -0.50 30.64 3.32 45.97 9.87 57.48
  Q 18.87 73.27 33.03 86.46
  C 33.27 86.68 32.57 86.62 33.41 86.62
  Z"
/>
<path fill="#636373" d="
  M 33.53 2.48
  Q 33.67 2.48 34.25 2.51
  Q 52.21 3.52 60.84 18.89
  C 67.48 30.74 63.61 46.06 57.03 57.55
  Q 47.98 73.31 33.79 86.46
  C 33.55 86.69 34.25 86.62 33.41 86.62
  C 32.57 86.62 33.27 86.68 33.03 86.46
  Q 18.87 73.27 9.87 57.48
  C 3.32 45.97 -0.50 30.64 6.17 18.81
  Q 14.85 3.47 32.81 2.51
  Q 33.39 2.48 33.53 2.48
  Z
  M 34.91 29.32
  L 34.91 30.03
  A 0.48 0.48 0.0 0 1 34.17 30.43
  Q 32.37 29.28 30.34 30.57
  Q 24.17 34.49 20.83 36.81
  A 4.99 4.99 0.0 0 0 18.70 40.90
  L 18.70 47.83
  A 2.09 2.09 0.0 0 0 19.63 49.57
  L 28.13 55.32
  A 0.82 0.82 0.0 0 0 29.05 55.32
  L 40.32 47.86
  A 1.44 1.44 0.0 0 0 40.95 46.67
  L 40.95 37.79
  A 1.99 1.96 -61.9 0 0 40.63 36.71
  L 38.69 33.78
  A 0.25 0.25 0.0 0 1 38.85 33.40
  L 42.79 32.71
  A 1.07 1.06 84.8 0 0 43.66 31.66
  L 43.66 29.43
  A 0.67 0.67 0.0 0 1 44.45 28.77
  Q 46.04 29.04 47.11 26.10
  A 0.54 0.47 -41.1 0 0 47.14 25.88
  L 46.76 18.38
  A 2.30 2.28 -62.6 0 0 46.42 17.29
  Q 43.81 13.12 39.92 12.72
  Q 35.37 12.26 32.34 17.21
  A 2.68 2.60 -27.1 0 0 31.96 18.33
  Q 31.64 21.63 31.61 25.10
  Q 31.59 28.62 34.28 28.69
  A 0.64 0.63 0.5 0 1 34.91 29.32
  Z"
/>
<path fill="#343444" d="
  M 34.28 28.69
  Q 31.59 28.62 31.61 25.10
  Q 31.64 21.63 31.96 18.33
  A 2.68 2.60 -27.1 0 1 32.34 17.21
  Q 35.37 12.26 39.92 12.72
  Q 43.81 13.12 46.42 17.29
  A 2.30 2.28 -62.6 0 1 46.76 18.38
  L 47.14 25.88
  A 0.54 0.47 -41.1 0 1 47.11 26.10
  Q 46.04 29.04 44.45 28.77
  A 0.67 0.67 0.0 0 0 43.66 29.43
  L 43.66 31.66
  A 1.07 1.06 84.8 0 1 42.79 32.71
  L 38.85 33.40
  A 0.25 0.25 0.0 0 0 38.69 33.78
  L 40.63 36.71
  A 1.99 1.96 -61.9 0 1 40.95 37.79
  L 40.95 46.67
  A 1.44 1.44 0.0 0 1 40.32 47.86
  L 29.05 55.32
  A 0.82 0.82 0.0 0 1 28.13 55.32
  L 19.63 49.57
  A 2.09 2.09 0.0 0 1 18.70 47.83
  L 18.70 40.90
  A 4.99 4.99 0.0 0 1 20.83 36.81
  Q 24.17 34.49 30.34 30.57
  Q 32.37 29.28 34.17 30.43
  A 0.48 0.48 0.0 0 0 34.91 30.03
  L 34.91 29.32
  A 0.64 0.63 0.5 0 0 34.28 28.69
  Z
  M 39.34 29.44
  Q 40.37 29.44 41.40 29.11
  A 0.96 0.96 0.0 0 0 42.07 28.20
  L 42.07 27.52
  A 0.75 0.75 0.0 0 1 42.82 26.77
  L 44.95 26.77
  A 0.52 0.52 0.0 0 0 45.47 26.25
  Q 45.45 22.35 45.43 22.33
  A 0.79 0.79 0.0 0 1 45.21 21.97
  Q 44.89 20.85 42.75 21.92
  A 0.43 0.42 10.5 0 1 42.27 21.23
  Q 43.04 20.54 43.89 20.71
  A 1.45 1.35 79.1 0 0 45.25 18.55
  Q 42.70 14.19 39.35 14.19
  Q 36.00 14.19 33.44 18.54
  A 1.45 1.35 -79.1 0 0 34.80 20.71
  Q 35.65 20.54 36.42 21.23
  A 0.43 0.42 -10.5 0 1 35.94 21.92
  Q 33.80 20.85 33.48 21.96
  A 0.79 0.79 0.0 0 1 33.26 22.32
  Q 33.24 22.34 33.21 26.24
  A 0.52 0.52 0.0 0 0 33.73 26.76
  L 35.86 26.77
  A 0.75 0.75 0.0 0 1 36.61 27.52
  L 36.61 28.20
  A 0.96 0.96 0.0 0 0 37.28 29.11
  Q 38.31 29.44 39.34 29.44
  Z
  M 42.05 30.15
  L 36.43 30.13
  A 0.10 0.10 0.0 0 0 36.33 30.22
  L 36.33 30.26
  A 2.71 1.16 0.3 0 0 39.04 31.44
  L 39.44 31.44
  A 2.71 1.16 0.3 0 0 42.15 30.30
  L 42.15 30.26
  A 0.10 0.10 0.0 0 0 42.05 30.15
  Z
  M 21.95 38.12
  Q 26.25 39.82 28.35 43.93
  A 0.64 0.64 0.0 0 0 29.27 44.17
  L 38.26 38.20
  A 0.69 0.69 0.0 0 0 38.54 37.39
  Q 36.94 32.85 32.24 31.32
  A 0.27 0.27 0.0 0 0 32.03 31.35
  L 21.93 37.89
  A 0.13 0.13 0.0 0 0 21.95 38.12
  Z
  M 20.77 39.64
  L 27.18 44.55
  A 0.10 0.10 0.0 0 0 27.32 44.54
  L 27.37 44.47
  A 3.93 1.42 37.5 0 0 25.11 40.95
  L 24.78 40.70
  A 3.93 1.42 37.5 0 0 20.80 39.43
  L 20.75 39.50
  A 0.10 0.10 0.0 0 0 20.77 39.64
  Z
  M 39.05 39.48
  L 36.96 40.86
  A 1.27 1.21 81.4 0 0 36.45 41.59
  L 35.64 44.84
  A 0.87 0.87 0.0 0 1 33.95 44.85
  Q 33.89 44.61 33.46 43.82
  A 0.48 0.48 0.0 0 0 32.78 43.65
  L 30.35 45.26
  A 1.95 1.94 -16.9 0 0 29.48 46.88
  L 29.48 52.41
  A 0.37 0.37 0.0 0 0 30.05 52.72
  L 39.01 46.79
  A 1.15 1.14 73.1 0 0 39.51 45.84
  L 39.51 39.73
  A 0.30 0.29 73.2 0 0 39.05 39.48
  Z
  M 22.30 49.42
  Q 26.22 52.11 27.38 52.79
  A 0.26 0.26 0.0 0 0 27.77 52.56
  L 27.73 46.49
  A 1.14 1.13 17.2 0 0 27.23 45.55
  Q 26.92 45.32 25.92 44.63
  Q 21.99 41.94 20.84 41.27
  A 0.26 0.26 0.0 0 0 20.45 41.49
  L 20.49 47.56
  A 1.14 1.13 17.2 0 0 20.99 48.50
  Q 21.29 48.74 22.30 49.42
  Z"
/>
<path fill="#ffffff" d="
  M 39.35 14.19
  Q 42.70 14.19 45.25 18.55
  A 1.45 1.35 79.1 0 1 43.89 20.71
  Q 43.04 20.54 42.27 21.23
  A 0.43 0.42 10.5 0 0 42.75 21.92
  Q 44.89 20.85 45.21 21.97
  A 0.79 0.79 0.0 0 0 45.43 22.33
  Q 45.45 22.35 45.47 26.25
  A 0.52 0.52 0.0 0 1 44.95 26.77
  L 42.82 26.77
  A 0.75 0.75 0.0 0 0 42.07 27.52
  L 42.07 28.20
  A 0.96 0.96 0.0 0 1 41.40 29.11
  Q 40.37 29.44 39.34 29.44
  Q 38.31 29.44 37.28 29.11
  A 0.96 0.96 0.0 0 1 36.61 28.20
  L 36.61 27.52
  A 0.75 0.75 0.0 0 0 35.86 26.77
  L 33.73 26.76
  A 0.52 0.52 0.0 0 1 33.21 26.24
  Q 33.24 22.34 33.26 22.32
  A 0.79 0.79 0.0 0 0 33.48 21.96
  Q 33.80 20.85 35.94 21.92
  A 0.43 0.42 -10.5 0 0 36.42 21.23
  Q 35.65 20.54 34.80 20.71
  A 1.45 1.35 -79.1 0 1 33.44 18.54
  Q 36.00 14.19 39.35 14.19
  Z
  M 39.60 22.35
  Q 39.53 22.34 39.02 22.52
  A 0.15 0.14 -52.0 0 0 39.05 22.80
  Q 39.60 22.85 39.69 22.79
  A 0.25 0.23 -58.2 0 0 39.60 22.35
  Z
  M 38.07 23.15
  Q 36.56 23.38 34.95 22.51
  A 0.46 0.45 -75.9 0 0 34.28 22.92
  L 34.29 25.17
  A 0.47 0.47 0.0 0 0 34.89 25.62
  Q 37.06 25.01 38.43 24.05
  A 0.49 0.49 0.0 0 0 38.07 23.15
  Z
  M 40.69 23.22
  A 0.48 0.48 0.0 0 0 40.35 24.09
  Q 41.68 25.02 43.79 25.61
  A 0.46 0.46 0.0 0 0 44.37 25.17
  L 44.37 22.98
  A 0.44 0.44 0.0 0 0 43.72 22.59
  Q 42.16 23.44 40.69 23.22
  Z
  M 39.94 27.02
  A 0.75 0.73 23.6 0 0 39.39 25.68
  Q 38.74 25.78 38.38 26.48
  A 0.46 0.46 0.0 0 0 38.71 27.14
  Q 39.53 27.28 39.94 27.02
  Z"
/>
<path fill="#343444" d="
  M 39.60 22.35
  A 0.25 0.23 -58.2 0 1 39.69 22.79
  Q 39.60 22.85 39.05 22.80
  A 0.15 0.14 -52.0 0 1 39.02 22.52
  Q 39.53 22.34 39.60 22.35
  Z"
/>
<path fill="#343444" d="
  M 38.07 23.15
  A 0.49 0.49 0.0 0 1 38.43 24.05
  Q 37.06 25.01 34.89 25.62
  A 0.47 0.47 0.0 0 1 34.29 25.17
  L 34.28 22.92
  A 0.46 0.45 -75.9 0 1 34.95 22.51
  Q 36.56 23.38 38.07 23.15
  Z"
/>
<path fill="#343444" d="
  M 40.69 23.22
  Q 42.16 23.44 43.72 22.59
  A 0.44 0.44 0.0 0 1 44.37 22.98
  L 44.37 25.17
  A 0.46 0.46 0.0 0 1 43.79 25.61
  Q 41.68 25.02 40.35 24.09
  A 0.48 0.48 0.0 0 1 40.69 23.22
  Z"
/>
<path fill="#343444" d="
  M 39.94 27.02
  Q 39.53 27.28 38.71 27.14
  A 0.46 0.46 0.0 0 1 38.38 26.48
  Q 38.74 25.78 39.39 25.68
  A 0.75 0.73 23.6 0 1 39.94 27.02
  Z"
/>
<path fill="#ffffff" d="
  M 42.05 30.15
  A 0.10 0.10 0.0 0 1 42.15 30.26
  L 42.15 30.30
  A 2.71 1.16 0.3 0 1 39.44 31.44
  L 39.04 31.44
  A 2.71 1.16 0.3 0 1 36.33 30.26
  L 36.33 30.22
  A 0.10 0.10 0.0 0 1 36.43 30.13
  L 42.05 30.15
  Z"
/>
<path fill="#ffffff" d="
  M 21.95 38.12
  A 0.13 0.13 0.0 0 1 21.93 37.89
  L 32.03 31.35
  A 0.27 0.27 0.0 0 1 32.24 31.32
  Q 36.94 32.85 38.54 37.39
  A 0.69 0.69 0.0 0 1 38.26 38.20
  L 29.27 44.17
  A 0.64 0.64 0.0 0 1 28.35 43.93
  Q 26.25 39.82 21.95 38.12
  Z"
/>
<path fill="#ffffff" d="
  M 20.77 39.64
  A 0.10 0.10 0.0 0 1 20.75 39.50
  L 20.80 39.43
  A 3.93 1.42 37.5 0 1 24.78 40.70
  L 25.11 40.95
  A 3.93 1.42 37.5 0 1 27.37 44.47
  L 27.32 44.54
  A 0.10 0.10 0.0 0 1 27.18 44.55
  L 20.77 39.64
  Z"
/>
<path fill="#ffffff" d="
  M 39.51 39.73
  L 39.51 45.84
  A 1.15 1.14 73.1 0 1 39.01 46.79
  L 30.05 52.72
  A 0.37 0.37 0.0 0 1 29.48 52.41
  L 29.48 46.88
  A 1.95 1.94 -16.9 0 1 30.35 45.26
  L 32.78 43.65
  A 0.48 0.48 0.0 0 1 33.46 43.82
  Q 33.89 44.61 33.95 44.85
  A 0.87 0.87 0.0 0 0 35.64 44.84
  L 36.45 41.59
  A 1.27 1.21 81.4 0 1 36.96 40.86
  L 39.05 39.48
  A 0.30 0.29 73.2 0 1 39.51 39.73
  Z"
/>
<path fill="#ffffff" d="
  M 22.30 49.42
  Q 21.29 48.74 20.99 48.50
  A 1.14 1.13 17.2 0 1 20.49 47.56
  L 20.45 41.49
  A 0.26 0.26 0.0 0 1 20.84 41.27
  Q 21.99 41.94 25.92 44.63
  Q 26.92 45.32 27.23 45.55
  A 1.14 1.13 17.2 0 1 27.73 46.49
  L 27.77 52.56
  A 0.26 0.26 0.0 0 1 27.38 52.79
  Q 26.22 52.11 22.30 49.42
  Z"
/>
</svg>
