<?xml version="1.0" encoding="UTF-8" standalone="no"?>
<!DOCTYPE svg PUBLIC "-//W3C//DTD SVG 1.1//EN" "http://www.w3.org/Graphics/SVG/1.1/DTD/svg11.dtd">
<svg xmlns="http://www.w3.org/2000/svg" version="1.1" viewBox="0.00 0.00 66.00 88.00">
<g stroke-width="2.00" fill="none" stroke-linecap="butt">
<path stroke="#4a4b57" vector-effect="non-scaling-stroke" d="
  M 33.40 86.67
  Q 33.53 86.67 33.66 86.64
  A 0.06 0.03 -53.7 0 0 33.70 86.62
  Q 47.42 73.85 56.31 58.78
  Q 62.51 48.27 63.86 38.24
  Q 64.82 31.05 63.67 26.53
  Q 59.40 9.83 43.37 4.12
  Q 38.71 2.46 33.52 2.46
  Q 28.33 2.45 23.66 4.10
  Q 7.61 9.76 3.30 26.44
  Q 2.13 30.96 3.07 38.15
  Q 4.39 48.19 10.56 58.71
  Q 19.41 73.81 33.09 86.62
  A 0.06 0.03 53.9 0 0 33.13 86.64
  Q 33.26 86.67 33.40 86.67"
/>
<path stroke="#4c4c5c" vector-effect="non-scaling-stroke" d="
  M 32.77 17.89
  Q 32.38 17.89 32.23 17.76
  C 26.19 12.76 18.46 13.26 12.38 18.19
  A 0.54 0.53 50.6 0 0 12.31 18.95
  C 16.46 23.77 22.54 28.77 28.89 24.89
  Q 31.24 23.44 32.52 22.70
  Q 32.57 22.67 32.79 22.67
  Q 33.02 22.67 33.07 22.70
  Q 34.35 23.43 36.71 24.86
  C 43.10 28.68 49.13 23.63 53.24 18.78
  A 0.54 0.53 -51.1 0 0 53.17 18.02
  C 47.05 13.14 39.31 12.71 33.32 17.76
  Q 33.17 17.89 32.77 17.89"
/>
<path stroke="#4c4c5c" vector-effect="non-scaling-stroke" d="
  M 44.47 39.76
  Q 44.66 39.47 45.68 39.36
  A 1.38 1.36 10.9 0 0 46.73 38.66
  C 49.00 34.48 44.61 29.84 41.04 27.86
  A 1.42 1.37 -29.7 0 0 40.37 27.69
  L 36.78 27.69
  A 0.63 0.61 -75.0 0 0 36.24 28.01
  Q 36.08 28.31 36.03 28.37
  A 0.66 0.66 0.0 0 1 35.16 28.54
  Q 33.98 27.85 32.35 28.87
  Q 26.09 32.79 23.45 36.14
  Q 21.47 38.64 19.95 40.76
  A 3.15 3.07 72.6 0 0 19.52 41.61
  Q 19.34 42.17 18.41 43.92
  A 3.59 3.57 54.4 0 0 18.04 46.19
  Q 18.66 49.96 21.93 53.04
  Q 26.24 57.09 30.96 54.42
  Q 33.22 53.15 33.65 52.94
  Q 35.10 52.26 36.30 51.40
  Q 41.72 47.47 45.91 41.39
  A 0.76 0.76 0.0 0 0 45.08 40.23
  Q 44.93 40.27 44.75 40.27
  A 0.33 0.33 0.0 0 1 44.47 39.76"
/>
<path stroke="#9a9aa2" vector-effect="non-scaling-stroke" d="
  M 32.79 21.46
  C 34.75 21.45 36.61 23.35 37.45 23.84
  A 5.08 4.50 -14.9 0 0 38.10 24.17
  C 42.89 26.20 48.47 22.84 51.22 18.98
  A 0.55 0.55 0.0 0 0 51.07 18.20
  Q 41.40 11.99 33.24 19.74
  Q 33.08 19.89 32.79 19.89
  Q 32.50 19.89 32.33 19.74
  Q 24.14 12.03 14.50 18.28
  A 0.55 0.55 0.0 0 0 14.35 19.06
  C 17.12 22.91 22.71 26.25 27.49 24.19
  A 5.08 4.50 14.6 0 0 28.14 23.87
  C 28.98 23.37 30.83 21.46 32.79 21.46"
/>
<path stroke="#9a9aa2" vector-effect="non-scaling-stroke" d="
  M 16.84 19.40
  C 20.47 23.22 25.78 24.92 29.97 20.62
  A 0.67 0.67 0.0 0 0 29.87 19.61
  C 25.18 16.33 21.51 17.23 17.05 18.58
  A 0.50 0.50 0.0 0 0 16.84 19.40"
/>
<path stroke="#9a9aa2" vector-effect="non-scaling-stroke" d="
  M 48.71 19.47
  A 0.50 0.50 0.0 0 0 48.51 18.65
  C 44.08 17.24 40.43 16.29 35.70 19.50
  A 0.67 0.67 0.0 0 0 35.59 20.51
  C 39.71 24.86 45.03 23.23 48.71 19.47"
/>
<path stroke="#4c4c5c" vector-effect="non-scaling-stroke" d="
  M 23.60 21.85
  Q 25.53 21.99 27.80 20.56
  A 0.31 0.31 0.0 0 0 27.79 20.03
  Q 25.65 18.70 23.84 18.57
  Q 22.03 18.44 19.72 19.44
  A 0.31 0.31 0.0 0 0 19.64 19.97
  Q 21.68 21.71 23.60 21.85"
/>
<path stroke="#4c4c5c" vector-effect="non-scaling-stroke" d="
  M 41.77 21.84
  Q 43.69 21.73 45.75 20.02
  A 0.31 0.31 0.0 0 0 45.68 19.50
  Q 43.39 18.46 41.59 18.56
  Q 39.78 18.66 37.63 19.95
  A 0.31 0.31 0.0 0 0 37.62 20.48
  Q 39.85 21.94 41.77 21.84"
/>
<path stroke="#9a9aa2" vector-effect="non-scaling-stroke" d="
  M 37.0841 29.3050
  A 5.99 3.10 -134.6 0 0 39.0827 35.7467
  A 5.99 3.10 -134.6 0 0 45.4959 37.8350
  A 5.99 3.10 -134.6 0 0 43.4973 31.3933
  A 5.99 3.10 -134.6 0 0 37.0841 29.3050"
/>
<path stroke="#9a9aa2" vector-effect="non-scaling-stroke" d="
  M 31.16 31.32
  Q 30.75 32.05 30.99 33.08
  A 0.55 0.55 0.0 0 0 31.63 33.49
  Q 32.78 33.26 33.22 32.51
  Q 33.66 31.75 33.27 30.64
  A 0.55 0.55 0.0 0 0 32.60 30.29
  Q 31.58 30.59 31.16 31.32"
/>
<path stroke="#9a9aa2" vector-effect="non-scaling-stroke" d="
  M 29.38 33.96
  L 28.57 33.16
  A 0.22 0.22 0.0 0 0 28.26 33.16
  L 28.16 33.26
  A 9.62 0.65 -45.5 0 0 21.88 40.58
  L 22.08 40.78
  A 9.62 0.65 -45.5 0 0 29.29 34.37
  L 29.39 34.27
  A 0.22 0.22 0.0 0 0 29.38 33.96"
/>
<path stroke="#9a9aa2" vector-effect="non-scaling-stroke" d="
  M 34.6299 34.8739
  A 0.55 0.55 0.0 0 0 33.8736 34.6923
  L 32.2535 35.6851
  A 0.55 0.55 0.0 0 0 32.0720 36.4414
  L 33.1901 38.2661
  A 0.55 0.55 0.0 0 0 33.9464 38.4477
  L 35.5665 37.4549
  A 0.55 0.55 0.0 0 0 35.7480 36.6986
  L 34.6299 34.8739"
/>
<path stroke="#9a9aa2" vector-effect="non-scaling-stroke" d="
  M 26.08 40.57
  Q 24.92 41.83 23.64 43.07
  A 0.84 0.84 0.0 0 0 23.50 44.08
  L 24.82 46.36
  A 0.50 0.50 0.0 0 0 25.59 46.48
  Q 28.19 44.09 28.83 43.40
  Q 29.99 42.14 31.26 40.90
  A 0.84 0.84 0.0 0 0 31.40 39.89
  L 30.08 37.61
  A 0.50 0.50 0.0 0 0 29.32 37.49
  Q 26.71 39.88 26.08 40.57"
/>
<path stroke="#4c4c5c" vector-effect="non-scaling-stroke" d="
  M 41.49 39.12
  Q 40.43 38.31 39.82 38.21
  A 0.20 0.20 0.0 0 0 39.65 38.56
  Q 40.81 39.57 41.31 39.60
  A 0.27 0.27 0.0 0 0 41.49 39.12"
/>
<path stroke="#9a9aa2" vector-effect="non-scaling-stroke" d="
  M 39.4045 40.7513
  A 0.26 0.26 0.0 0 0 39.3962 40.3837
  L 37.5165 38.5874
  A 0.26 0.26 0.0 0 0 37.1489 38.5957
  L 35.4355 40.3887
  A 0.26 0.26 0.0 0 0 35.4438 40.7563
  L 37.3235 42.5526
  A 0.26 0.26 0.0 0 0 37.6911 42.5443
  L 39.4045 40.7513"
/>
<path stroke="#9a9aa2" vector-effect="non-scaling-stroke" d="
  M 40.53 43.25
  L 42.98 43.25
  A 0.98 0.97 55.3 0 0 43.32 41.36
  Q 41.12 40.54 40.42 43.10
  A 0.12 0.12 0.0 0 0 40.53 43.25"
/>
<path stroke="#9a9aa2" vector-effect="non-scaling-stroke" d="
  M 33.9692 42.3681
  A 0.53 0.53 0.0 0 0 33.2205 42.3327
  L 27.1555 47.8514
  A 0.53 0.53 0.0 0 0 27.1202 48.6001
  L 28.9508 50.6119
  A 0.53 0.53 0.0 0 0 29.6995 50.6473
  L 35.7645 45.1286
  A 0.53 0.53 0.0 0 0 35.7998 44.3799
  L 33.9692 42.3681"
/>
<path stroke="#4c4c5c" vector-effect="non-scaling-stroke" d="
  M 20.10 44.19
  Q 20.55 43.95 20.76 43.63
  A 0.39 0.34 -84.9 0 0 20.34 43.06
  Q 20.08 43.21 19.76 43.86
  A 0.25 0.25 0.0 0 0 20.10 44.19"
/>
<path stroke="#9a9aa2" vector-effect="non-scaling-stroke" d="
  M 40.14 46.39
  L 39.32 45.39
  A 0.19 0.19 0.0 0 0 39.05 45.36
  L 38.96 45.43
  A 8.64 0.77 -39.3 0 0 32.77 51.50
  L 32.86 51.61
  A 8.64 0.77 -39.3 0 0 40.03 46.73
  L 40.11 46.66
  A 0.19 0.19 0.0 0 0 40.14 46.39"
/>
<path stroke="#9a9aa2" vector-effect="non-scaling-stroke" d="
  M 21.33 50.01
  Q 22.08 50.03 22.72 48.77
  A 0.99 0.98 -47.0 0 0 22.69 47.84
  Q 21.82 46.33 21.44 46.32
  Q 21.03 46.31 20.08 47.77
  A 0.99 0.98 50.0 0 0 20.01 48.70
  Q 20.58 49.99 21.33 50.01"
/>
<path stroke="#9a9aa2" vector-effect="non-scaling-stroke" d="
  M 23.13 51.84
  Q 23.13 52.57 24.38 53.14
  A 0.96 0.95 40.9 0 0 25.28 53.08
  Q 26.71 52.18 26.71 51.82
  Q 26.70 51.41 25.25 50.55
  A 0.96 0.95 -42.2 0 0 24.35 50.51
  Q 23.12 51.11 23.13 51.84"
/>
<path stroke="#4c4c5c" vector-effect="non-scaling-stroke" d="
  M 27.81 54.04
  L 29.58 54.04
  A 0.46 0.46 0.0 0 0 29.63 53.13
  Q 28.63 53.01 27.73 53.86
  A 0.11 0.10 22.7 0 0 27.81 54.04"
/>
</g>
<path fill="#30333b" d="
  M 33.81 88.00
  L 33.04 88.00
  C 21.76 77.76 12.10 65.66 5.64 51.56
  Q 2.20 44.05 1.59 34.89
  C 0.55 19.00 11.24 5.61 26.48 2.12
  C 41.00 -1.21 55.69 5.84 62.46 19.45
  C 67.05 28.66 65.93 40.28 62.13 49.57
  C 56.14 64.27 45.46 77.36 33.81 88.00
  Z
  M 33.40 86.67
  Q 33.53 86.67 33.66 86.64
  A 0.06 0.03 -53.7 0 0 33.70 86.62
  Q 47.42 73.85 56.31 58.78
  Q 62.51 48.27 63.86 38.24
  Q 64.82 31.05 63.67 26.53
  Q 59.40 9.83 43.37 4.12
  Q 38.71 2.46 33.52 2.46
  Q 28.33 2.45 23.66 4.10
  Q 7.61 9.76 3.30 26.44
  Q 2.13 30.96 3.07 38.15
  Q 4.39 48.19 10.56 58.71
  Q 19.41 73.81 33.09 86.62
  A 0.06 0.03 53.9 0 0 33.13 86.64
  Q 33.26 86.67 33.40 86.67
  Z"
/>
<path fill="#636373" d="
  M 33.52 2.46
  Q 38.71 2.46 43.37 4.12
  Q 59.40 9.83 63.67 26.53
  Q 64.82 31.05 63.86 38.24
  Q 62.51 48.27 56.31 58.78
  Q 47.42 73.85 33.70 86.62
  A 0.06 0.03 -53.7 0 1 33.66 86.64
  Q 33.53 86.67 33.40 86.67
  Q 33.26 86.67 33.13 86.64
  A 0.06 0.03 53.9 0 1 33.09 86.62
  Q 19.41 73.81 10.56 58.71
  Q 4.39 48.19 3.07 38.15
  Q 2.13 30.96 3.30 26.44
  Q 7.61 9.76 23.66 4.10
  Q 28.33 2.45 33.52 2.46
  Z
  M 32.77 17.89
  Q 32.38 17.89 32.23 17.76
  C 26.19 12.76 18.46 13.26 12.38 18.19
  A 0.54 0.53 50.6 0 0 12.31 18.95
  C 16.46 23.77 22.54 28.77 28.89 24.89
  Q 31.24 23.44 32.52 22.70
  Q 32.57 22.67 32.79 22.67
  Q 33.02 22.67 33.07 22.70
  Q 34.35 23.43 36.71 24.86
  C 43.10 28.68 49.13 23.63 53.24 18.78
  A 0.54 0.53 -51.1 0 0 53.17 18.02
  C 47.05 13.14 39.31 12.71 33.32 17.76
  Q 33.17 17.89 32.77 17.89
  Z
  M 44.47 39.76
  Q 44.66 39.47 45.68 39.36
  A 1.38 1.36 10.9 0 0 46.73 38.66
  C 49.00 34.48 44.61 29.84 41.04 27.86
  A 1.42 1.37 -29.7 0 0 40.37 27.69
  L 36.78 27.69
  A 0.63 0.61 -75.0 0 0 36.24 28.01
  Q 36.08 28.31 36.03 28.37
  A 0.66 0.66 0.0 0 1 35.16 28.54
  Q 33.98 27.85 32.35 28.87
  Q 26.09 32.79 23.45 36.14
  Q 21.47 38.64 19.95 40.76
  A 3.15 3.07 72.6 0 0 19.52 41.61
  Q 19.34 42.17 18.41 43.92
  A 3.59 3.57 54.4 0 0 18.04 46.19
  Q 18.66 49.96 21.93 53.04
  Q 26.24 57.09 30.96 54.42
  Q 33.22 53.15 33.65 52.94
  Q 35.10 52.26 36.30 51.40
  Q 41.72 47.47 45.91 41.39
  A 0.76 0.76 0.0 0 0 45.08 40.23
  Q 44.93 40.27 44.75 40.27
  A 0.33 0.33 0.0 0 1 44.47 39.76
  Z"
/>
<path fill="#343444" d="
  M 32.79 22.67
  Q 32.57 22.67 32.52 22.70
  Q 31.24 23.44 28.89 24.89
  C 22.54 28.77 16.46 23.77 12.31 18.95
  A 0.54 0.53 50.6 0 1 12.38 18.19
  C 18.46 13.26 26.19 12.76 32.23 17.76
  Q 32.38 17.89 32.77 17.89
  Q 33.17 17.89 33.32 17.76
  C 39.31 12.71 47.05 13.14 53.17 18.02
  A 0.54 0.53 -51.1 0 1 53.24 18.78
  C 49.13 23.63 43.10 28.68 36.71 24.86
  Q 34.35 23.43 33.07 22.70
  Q 33.02 22.67 32.79 22.67
  Z
  M 32.79 21.46
  C 34.75 21.45 36.61 23.35 37.45 23.84
  A 5.08 4.50 -14.9 0 0 38.10 24.17
  C 42.89 26.20 48.47 22.84 51.22 18.98
  A 0.55 0.55 0.0 0 0 51.07 18.20
  Q 41.40 11.99 33.24 19.74
  Q 33.08 19.89 32.79 19.89
  Q 32.50 19.89 32.33 19.74
  Q 24.14 12.03 14.50 18.28
  A 0.55 0.55 0.0 0 0 14.35 19.06
  C 17.12 22.91 22.71 26.25 27.49 24.19
  A 5.08 4.50 14.6 0 0 28.14 23.87
  C 28.98 23.37 30.83 21.46 32.79 21.46
  Z"
/>
<path fill="#ffffff" d="
  M 32.79 19.89
  Q 33.08 19.89 33.24 19.74
  Q 41.40 11.99 51.07 18.20
  A 0.55 0.55 0.0 0 1 51.22 18.98
  C 48.47 22.84 42.89 26.20 38.10 24.17
  A 5.08 4.50 -14.9 0 1 37.45 23.84
  C 36.61 23.35 34.75 21.45 32.79 21.46
  C 30.83 21.46 28.98 23.37 28.14 23.87
  A 5.08 4.50 14.6 0 1 27.49 24.19
  C 22.71 26.25 17.12 22.91 14.35 19.06
  A 0.55 0.55 0.0 0 1 14.50 18.28
  Q 24.14 12.03 32.33 19.74
  Q 32.50 19.89 32.79 19.89
  Z
  M 16.84 19.40
  C 20.47 23.22 25.78 24.92 29.97 20.62
  A 0.67 0.67 0.0 0 0 29.87 19.61
  C 25.18 16.33 21.51 17.23 17.05 18.58
  A 0.50 0.50 0.0 0 0 16.84 19.40
  Z
  M 48.71 19.47
  A 0.50 0.50 0.0 0 0 48.51 18.65
  C 44.08 17.24 40.43 16.29 35.70 19.50
  A 0.67 0.67 0.0 0 0 35.59 20.51
  C 39.71 24.86 45.03 23.23 48.71 19.47
  Z"
/>
<path fill="#343444" d="
  M 16.84 19.40
  A 0.50 0.50 0.0 0 1 17.05 18.58
  C 21.51 17.23 25.18 16.33 29.87 19.61
  A 0.67 0.67 0.0 0 1 29.97 20.62
  C 25.78 24.92 20.47 23.22 16.84 19.40
  Z
  M 23.60 21.85
  Q 25.53 21.99 27.80 20.56
  A 0.31 0.31 0.0 0 0 27.79 20.03
  Q 25.65 18.70 23.84 18.57
  Q 22.03 18.44 19.72 19.44
  A 0.31 0.31 0.0 0 0 19.64 19.97
  Q 21.68 21.71 23.60 21.85
  Z"
/>
<path fill="#343444" d="
  M 48.71 19.47
  C 45.03 23.23 39.71 24.86 35.59 20.51
  A 0.67 0.67 0.0 0 1 35.70 19.50
  C 40.43 16.29 44.08 17.24 48.51 18.65
  A 0.50 0.50 0.0 0 1 48.71 19.47
  Z
  M 41.77 21.84
  Q 43.69 21.73 45.75 20.02
  A 0.31 0.31 0.0 0 0 45.68 19.50
  Q 43.39 18.46 41.59 18.56
  Q 39.78 18.66 37.63 19.95
  A 0.31 0.31 0.0 0 0 37.62 20.48
  Q 39.85 21.94 41.77 21.84
  Z"
/>
<path fill="#636373" d="
  M 23.84 18.57
  Q 25.65 18.70 27.79 20.03
  A 0.31 0.31 0.0 0 1 27.80 20.56
  Q 25.53 21.99 23.60 21.85
  Q 21.68 21.71 19.64 19.97
  A 0.31 0.31 0.0 0 1 19.72 19.44
  Q 22.03 18.44 23.84 18.57
  Z"
/>
<path fill="#636373" d="
  M 41.77 21.84
  Q 39.85 21.94 37.62 20.48
  A 0.31 0.31 0.0 0 1 37.63 19.95
  Q 39.78 18.66 41.59 18.56
  Q 43.39 18.46 45.68 19.50
  A 0.31 0.31 0.0 0 1 45.75 20.02
  Q 43.69 21.73 41.77 21.84
  Z"
/>
<path fill="#343444" d="
  M 44.75 40.27
  Q 44.93 40.27 45.08 40.23
  A 0.76 0.76 0.0 0 1 45.91 41.39
  Q 41.72 47.47 36.30 51.40
  Q 35.10 52.26 33.65 52.94
  Q 33.22 53.15 30.96 54.42
  Q 26.24 57.09 21.93 53.04
  Q 18.66 49.96 18.04 46.19
  A 3.59 3.57 54.4 0 1 18.41 43.92
  Q 19.34 42.17 19.52 41.61
  A 3.15 3.07 72.6 0 1 19.95 40.76
  Q 21.47 38.64 23.45 36.14
  Q 26.09 32.79 32.35 28.87
  Q 33.98 27.85 35.16 28.54
  A 0.66 0.66 0.0 0 0 36.03 28.37
  Q 36.08 28.31 36.24 28.01
  A 0.63 0.61 -75.0 0 1 36.78 27.69
  L 40.37 27.69
  A 1.42 1.37 -29.7 0 1 41.04 27.86
  C 44.61 29.84 49.00 34.48 46.73 38.66
  A 1.38 1.36 10.9 0 1 45.68 39.36
  Q 44.66 39.47 44.47 39.76
  A 0.33 0.33 0.0 0 0 44.75 40.27
  Z
  M 37.0841 29.3050
  A 5.99 3.10 -134.6 0 0 39.0827 35.7467
  A 5.99 3.10 -134.6 0 0 45.4959 37.8350
  A 5.99 3.10 -134.6 0 0 43.4973 31.3933
  A 5.99 3.10 -134.6 0 0 37.0841 29.3050
  Z
  M 31.16 31.32
  Q 30.75 32.05 30.99 33.08
  A 0.55 0.55 0.0 0 0 31.63 33.49
  Q 32.78 33.26 33.22 32.51
  Q 33.66 31.75 33.27 30.64
  A 0.55 0.55 0.0 0 0 32.60 30.29
  Q 31.58 30.59 31.16 31.32
  Z
  M 29.38 33.96
  L 28.57 33.16
  A 0.22 0.22 0.0 0 0 28.26 33.16
  L 28.16 33.26
  A 9.62 0.65 -45.5 0 0 21.88 40.58
  L 22.08 40.78
  A 9.62 0.65 -45.5 0 0 29.29 34.37
  L 29.39 34.27
  A 0.22 0.22 0.0 0 0 29.38 33.96
  Z
  M 34.6299 34.8739
  A 0.55 0.55 0.0 0 0 33.8736 34.6923
  L 32.2535 35.6851
  A 0.55 0.55 0.0 0 0 32.0720 36.4414
  L 33.1901 38.2661
  A 0.55 0.55 0.0 0 0 33.9464 38.4477
  L 35.5665 37.4549
  A 0.55 0.55 0.0 0 0 35.7480 36.6986
  L 34.6299 34.8739
  Z
  M 26.08 40.57
  Q 24.92 41.83 23.64 43.07
  A 0.84 0.84 0.0 0 0 23.50 44.08
  L 24.82 46.36
  A 0.50 0.50 0.0 0 0 25.59 46.48
  Q 28.19 44.09 28.83 43.40
  Q 29.99 42.14 31.26 40.90
  A 0.84 0.84 0.0 0 0 31.40 39.89
  L 30.08 37.61
  A 0.50 0.50 0.0 0 0 29.32 37.49
  Q 26.71 39.88 26.08 40.57
  Z
  M 41.49 39.12
  Q 40.43 38.31 39.82 38.21
  A 0.20 0.20 0.0 0 0 39.65 38.56
  Q 40.81 39.57 41.31 39.60
  A 0.27 0.27 0.0 0 0 41.49 39.12
  Z
  M 39.4045 40.7513
  A 0.26 0.26 0.0 0 0 39.3962 40.3837
  L 37.5165 38.5874
  A 0.26 0.26 0.0 0 0 37.1489 38.5957
  L 35.4355 40.3887
  A 0.26 0.26 0.0 0 0 35.4438 40.7563
  L 37.3235 42.5526
  A 0.26 0.26 0.0 0 0 37.6911 42.5443
  L 39.4045 40.7513
  Z
  M 40.53 43.25
  L 42.98 43.25
  A 0.98 0.97 55.3 0 0 43.32 41.36
  Q 41.12 40.54 40.42 43.10
  A 0.12 0.12 0.0 0 0 40.53 43.25
  Z
  M 33.9692 42.3681
  A 0.53 0.53 0.0 0 0 33.2205 42.3327
  L 27.1555 47.8514
  A 0.53 0.53 0.0 0 0 27.1202 48.6001
  L 28.9508 50.6119
  A 0.53 0.53 0.0 0 0 29.6995 50.6473
  L 35.7645 45.1286
  A 0.53 0.53 0.0 0 0 35.7998 44.3799
  L 33.9692 42.3681
  Z
  M 20.10 44.19
  Q 20.55 43.95 20.76 43.63
  A 0.39 0.34 -84.9 0 0 20.34 43.06
  Q 20.08 43.21 19.76 43.86
  A 0.25 0.25 0.0 0 0 20.10 44.19
  Z
  M 40.14 46.39
  L 39.32 45.39
  A 0.19 0.19 0.0 0 0 39.05 45.36
  L 38.96 45.43
  A 8.64 0.77 -39.3 0 0 32.77 51.50
  L 32.86 51.61
  A 8.64 0.77 -39.3 0 0 40.03 46.73
  L 40.11 46.66
  A 0.19 0.19 0.0 0 0 40.14 46.39
  Z
  M 21.33 50.01
  Q 22.08 50.03 22.72 48.77
  A 0.99 0.98 -47.0 0 0 22.69 47.84
  Q 21.82 46.33 21.44 46.32
  Q 21.03 46.31 20.08 47.77
  A 0.99 0.98 50.0 0 0 20.01 48.70
  Q 20.58 49.99 21.33 50.01
  Z
  M 23.13 51.84
  Q 23.13 52.57 24.38 53.14
  A 0.96 0.95 40.9 0 0 25.28 53.08
  Q 26.71 52.18 26.71 51.82
  Q 26.70 51.41 25.25 50.55
  A 0.96 0.95 -42.2 0 0 24.35 50.51
  Q 23.12 51.11 23.13 51.84
  Z
  M 27.81 54.04
  L 29.58 54.04
  A 0.46 0.46 0.0 0 0 29.63 53.13
  Q 28.63 53.01 27.73 53.86
  A 0.11 0.10 22.7 0 0 27.81 54.04
  Z"
/>
<ellipse fill="#ffffff" cx="0.00" cy="0.00" transform="translate(41.29,33.57) rotate(-134.6)" rx="5.99" ry="3.10"/>
<path fill="#ffffff" d="
  M 33.22 32.51
  Q 32.78 33.26 31.63 33.49
  A 0.55 0.55 0.0 0 1 30.99 33.08
  Q 30.75 32.05 31.16 31.32
  Q 31.58 30.59 32.60 30.29
  A 0.55 0.55 0.0 0 1 33.27 30.64
  Q 33.66 31.75 33.22 32.51
  Z"
/>
<path fill="#ffffff" d="
  M 29.38 33.96
  A 0.22 0.22 0.0 0 1 29.39 34.27
  L 29.29 34.37
  A 9.62 0.65 -45.5 0 1 22.08 40.78
  L 21.88 40.58
  A 9.62 0.65 -45.5 0 1 28.16 33.26
  L 28.26 33.16
  A 0.22 0.22 0.0 0 1 28.57 33.16
  L 29.38 33.96
  Z"
/>
<rect fill="#ffffff" x="-1.50" y="-1.62" transform="translate(33.91,36.57) rotate(-31.5)" width="3.00" height="3.24" rx="0.55"/>
<path fill="#ffffff" d="
  M 26.08 40.57
  Q 26.71 39.88 29.32 37.49
  A 0.50 0.50 0.0 0 1 30.08 37.61
  L 31.40 39.89
  A 0.84 0.84 0.0 0 1 31.26 40.90
  Q 29.99 42.14 28.83 43.40
  Q 28.19 44.09 25.59 46.48
  A 0.50 0.50 0.0 0 1 24.82 46.36
  L 23.50 44.08
  A 0.84 0.84 0.0 0 1 23.64 43.07
  Q 24.92 41.83 26.08 40.57
  Z"
/>
<path fill="#636373" d="
  M 41.31 39.60
  Q 40.81 39.57 39.65 38.56
  A 0.20 0.20 0.0 0 1 39.82 38.21
  Q 40.43 38.31 41.49 39.12
  A 0.27 0.27 0.0 0 1 41.31 39.60
  Z"
/>
<rect fill="#ffffff" x="-1.56" y="-1.50" transform="translate(37.42,40.57) rotate(43.7)" width="3.12" height="3.00" rx="0.26"/>
<path fill="#ffffff" d="
  M 40.53 43.25
  A 0.12 0.12 0.0 0 1 40.42 43.10
  Q 41.12 40.54 43.32 41.36
  A 0.98 0.97 55.3 0 1 42.98 43.25
  L 40.53 43.25
  Z"
/>
<rect fill="#ffffff" x="-4.63" y="-1.89" transform="translate(31.46,46.49) rotate(-42.3)" width="9.26" height="3.78" rx="0.53"/>
<path fill="#636373" d="
  M 19.76 43.86
  Q 20.08 43.21 20.34 43.06
  A 0.39 0.34 -84.9 0 1 20.76 43.63
  Q 20.55 43.95 20.10 44.19
  A 0.25 0.25 0.0 0 1 19.76 43.86
  Z"
/>
<path fill="#ffffff" d="
  M 40.14 46.39
  A 0.19 0.19 0.0 0 1 40.11 46.66
  L 40.03 46.73
  A 8.64 0.77 -39.3 0 1 32.86 51.61
  L 32.77 51.50
  A 8.64 0.77 -39.3 0 1 38.96 45.43
  L 39.05 45.36
  A 0.19 0.19 0.0 0 1 39.32 45.39
  L 40.14 46.39
  Z"
/>
<path fill="#ffffff" d="
  M 21.33 50.01
  Q 20.58 49.99 20.01 48.70
  A 0.99 0.98 50.0 0 1 20.08 47.77
  Q 21.03 46.31 21.44 46.32
  Q 21.82 46.33 22.69 47.84
  A 0.99 0.98 -47.0 0 1 22.72 48.77
  Q 22.08 50.03 21.33 50.01
  Z"
/>
<path fill="#ffffff" d="
  M 26.71 51.82
  Q 26.71 52.18 25.28 53.08
  A 0.96 0.95 40.9 0 1 24.38 53.14
  Q 23.13 52.57 23.13 51.84
  Q 23.12 51.11 24.35 50.51
  A 0.96 0.95 -42.2 0 1 25.25 50.55
  Q 26.70 51.41 26.71 51.82
  Z"
/>
<path fill="#636373" d="
  M 27.73 53.86
  Q 28.63 53.01 29.63 53.13
  A 0.46 0.46 0.0 0 1 29.58 54.04
  L 27.81 54.04
  A 0.11 0.10 22.7 0 1 27.73 53.86
  Z"
/>
</svg>
