<?xml version="1.0" encoding="UTF-8" standalone="no"?>
<!DOCTYPE svg PUBLIC "-//W3C//DTD SVG 1.1//EN" "http://www.w3.org/Graphics/SVG/1.1/DTD/svg11.dtd">
<svg xmlns="http://www.w3.org/2000/svg" version="1.1" viewBox="0.00 0.00 66.00 88.00">
<g stroke-width="2.00" fill="none" stroke-linecap="butt">
<path stroke="#4a4b57" vector-effect="non-scaling-stroke" d="
  M 33.41 86.62
  C 33.72 86.62 33.67 86.63 33.82 86.49
  Q 48.56 72.87 57.72 56.25
  C 65.31 42.47 67.84 25.36 56.76 13.01
  Q 48.00 3.24 34.75 2.50
  Q 34.14 2.47 33.53 2.47
  Q 32.91 2.47 32.30 2.50
  Q 19.05 3.20 10.26 12.95
  C -0.85 25.27 1.63 42.38 9.18 56.18
  Q 18.30 72.83 33.00 86.49
  C 33.15 86.63 33.10 86.62 33.41 86.62"
/>
<path stroke="#4e4e5e" vector-effect="non-scaling-stroke" d="
  M 44.77 16.44
  Q 42.37 12.96 38.08 14.23
  A 2.51 2.49 11.9 0 0 36.89 15.00
  Q 35.07 17.11 34.78 17.40
  C 32.71 19.39 32.55 23.53 35.41 24.77
  A 0.93 0.93 0.0 0 1 35.28 26.52
  L 27.85 28.48
  A 1.28 0.89 -55.3 0 0 27.61 28.57
  L 24.95 29.90
  A 1.31 1.29 49.5 0 1 23.61 29.79
  L 15.31 23.74
  A 1.59 1.59 0.0 0 0 12.78 25.03
  L 12.78 27.19
  A 4.98 4.97 -72.9 0 0 14.95 31.30
  Q 19.54 34.43 22.45 35.72
  C 25.91 37.26 28.10 35.42 30.66 35.10
  A 0.87 0.86 -9.3 0 1 31.62 35.78
  L 32.81 41.64
  A 1.96 1.94 49.9 0 1 32.72 42.75
  L 28.77 52.88
  A 0.27 0.26 14.4 0 0 28.98 53.23
  Q 40.12 55.06 51.04 52.84
  A 0.43 0.42 70.9 0 0 51.33 52.23
  Q 49.56 48.85 49.38 44.04
  A 0.96 0.95 -13.8 0 1 49.92 43.15
  L 52.16 42.09
  A 1.46 1.46 0.0 0 0 52.86 40.17
  L 50.29 34.46
  A 0.01 0.01 0.0 0 1 50.29 34.44
  Q 50.39 34.41 50.52 34.34
  A 0.69 0.69 0.0 0 0 50.89 33.71
  Q 50.87 31.32 49.77 28.94
  A 1.78 1.76 1.8 0 0 48.99 28.12
  Q 46.48 26.79 44.74 26.70
  A 1.91 1.91 0.0 0 1 43.44 23.48
  Q 45.93 20.86 45.28 17.63
  A 3.15 3.12 -68.5 0 0 44.77 16.44"
/>
<path stroke="#9c9ca4" vector-effect="non-scaling-stroke" d="
  M 38.75 24.32
  Q 38.51 24.54 38.16 24.70
  A 2.23 2.11 -43.3 0 0 37.93 28.62
  C 39.80 29.52 42.33 28.30 42.04 25.73
  C 41.69 22.63 44.08 22.07 44.41 19.71
  C 44.92 15.98 40.02 13.14 37.41 15.94
  C 35.43 18.06 33.03 20.97 35.06 23.35
  A 1.27 1.24 69.1 0 0 36.01 23.79
  L 38.54 23.79
  A 0.31 0.31 0.0 0 1 38.75 24.32"
/>
<path stroke="#9c9ca4" vector-effect="non-scaling-stroke" d="
  M 28.92 30.03
  A 0.79 0.78 64.4 0 0 27.88 29.66
  L 25.50 30.79
  A 1.56 1.56 0.0 0 1 24.46 30.90
  Q 20.26 29.85 15.07 24.75
  A 0.70 0.70 0.0 0 0 13.88 25.25
  L 13.88 28.23
  A 2.33 2.33 0.0 0 0 15.05 30.25
  L 23.49 35.13
  A 2.22 2.16 62.2 0 0 24.32 35.40
  Q 26.92 35.67 29.94 34.21
  A 0.87 0.86 64.6 0 0 30.35 33.05
  L 28.92 30.03"
/>
<path stroke="#9c9ca4" vector-effect="non-scaling-stroke" d="
  M 32.45 29.45
  C 35.23 34.25 39.13 35.92 43.91 32.43
  Q 47.41 29.88 48.58 29.59
  A 0.29 0.29 0.0 0 0 48.66 29.07
  Q 46.53 27.71 44.32 27.51
  A 0.99 0.98 21.9 0 0 43.46 27.87
  Q 41.47 30.32 38.83 30.06
  Q 36.07 29.78 35.91 28.06
  A 0.64 0.64 0.0 0 0 35.11 27.50
  L 30.86 28.62
  A 0.99 0.99 0.0 0 0 30.25 30.06
  Q 33.04 35.04 33.84 41.62
  A 3.37 3.29 -38.6 0 1 33.64 43.22
  L 30.32 51.75
  A 0.51 0.51 0.0 0 0 30.73 52.44
  Q 40.26 53.81 49.54 52.01
  A 0.43 0.43 0.0 0 0 49.84 51.40
  Q 48.40 48.38 48.46 45.13
  A 0.52 0.52 0.0 0 0 47.72 44.65
  L 39.64 48.50
  A 0.58 0.57 43.0 0 1 39.17 48.51
  Q 36.13 47.33 36.61 43.77
  A 1.28 1.28 0.0 0 1 38.08 42.68
  Q 42.52 43.41 45.91 39.47
  A 0.79 0.79 0.0 0 0 45.87 38.41
  L 43.14 35.69
  A 0.85 0.84 -30.5 0 0 42.31 35.48
  Q 34.60 37.70 32.17 29.58
  A 0.16 0.15 -69.0 0 1 32.45 29.45"
/>
<path stroke="#9c9ca4" vector-effect="non-scaling-stroke" d="
  M 49.94 33.83
  Q 50.14 33.75 49.70 31.15
  A 0.54 0.53 81.2 0 0 49.10 30.71
  Q 49.04 30.72 48.76 30.83
  Q 48.48 30.94 48.44 30.97
  A 0.54 0.53 55.8 0 0 48.30 31.70
  Q 49.75 33.91 49.94 33.83"
/>
<path stroke="#9c9ca4" vector-effect="non-scaling-stroke" d="
  M 44.26 34.50
  Q 45.52 35.96 46.87 37.68
  C 47.36 38.29 48.13 38.04 48.66 38.56
  A 0.41 0.40 -29.7 0 1 48.47 39.24
  Q 48.09 39.34 45.21 41.96
  Q 42.54 44.38 38.74 43.93
  A 0.70 0.69 8.5 0 0 37.98 44.49
  Q 37.73 45.79 38.99 46.98
  A 0.55 0.55 0.0 0 0 39.61 47.07
  L 51.31 41.50
  A 1.09 1.09 0.0 0 0 51.86 40.11
  Q 50.11 35.74 46.56 32.26
  A 0.29 0.28 44.3 0 0 46.15 32.26
  L 44.28 34.13
  A 0.28 0.27 -42.6 0 0 44.26 34.50"
/>
</g>
<path fill="#31333b" d="
  M 33.80 88.00
  L 33.04 88.00
  C 16.68 73.20 -6.48 43.97 4.15 20.23
  C 11.81 3.11 32.49 -3.66 48.98 5.27
  C 58.73 10.55 65.27 20.73 65.43 32.01
  Q 65.52 38.74 63.97 44.00
  C 59.00 60.95 46.75 76.19 33.80 88.00
  Z
  M 33.41 86.62
  C 33.72 86.62 33.67 86.63 33.82 86.49
  Q 48.56 72.87 57.72 56.25
  C 65.31 42.47 67.84 25.36 56.76 13.01
  Q 48.00 3.24 34.75 2.50
  Q 34.14 2.47 33.53 2.47
  Q 32.91 2.47 32.30 2.50
  Q 19.05 3.20 10.26 12.95
  C -0.85 25.27 1.63 42.38 9.18 56.18
  Q 18.30 72.83 33.00 86.49
  C 33.15 86.63 33.10 86.62 33.41 86.62
  Z"
/>
<path fill="#636373" d="
  M 33.53 2.47
  Q 34.14 2.47 34.75 2.50
  Q 48.00 3.24 56.76 13.01
  C 67.84 25.36 65.31 42.47 57.72 56.25
  Q 48.56 72.87 33.82 86.49
  C 33.67 86.63 33.72 86.62 33.41 86.62
  C 33.10 86.62 33.15 86.63 33.00 86.49
  Q 18.30 72.83 9.18 56.18
  C 1.63 42.38 -0.85 25.27 10.26 12.95
  Q 19.05 3.20 32.30 2.50
  Q 32.91 2.47 33.53 2.47
  Z
  M 44.77 16.44
  Q 42.37 12.96 38.08 14.23
  A 2.51 2.49 11.9 0 0 36.89 15.00
  Q 35.07 17.11 34.78 17.40
  C 32.71 19.39 32.55 23.53 35.41 24.77
  A 0.93 0.93 0.0 0 1 35.28 26.52
  L 27.85 28.48
  A 1.28 0.89 -55.3 0 0 27.61 28.57
  L 24.95 29.90
  A 1.31 1.29 49.5 0 1 23.61 29.79
  L 15.31 23.74
  A 1.59 1.59 0.0 0 0 12.78 25.03
  L 12.78 27.19
  A 4.98 4.97 -72.9 0 0 14.95 31.30
  Q 19.54 34.43 22.45 35.72
  C 25.91 37.26 28.10 35.42 30.66 35.10
  A 0.87 0.86 -9.3 0 1 31.62 35.78
  L 32.81 41.64
  A 1.96 1.94 49.9 0 1 32.72 42.75
  L 28.77 52.88
  A 0.27 0.26 14.4 0 0 28.98 53.23
  Q 40.12 55.06 51.04 52.84
  A 0.43 0.42 70.9 0 0 51.33 52.23
  Q 49.56 48.85 49.38 44.04
  A 0.96 0.95 -13.8 0 1 49.92 43.15
  L 52.16 42.09
  A 1.46 1.46 0.0 0 0 52.86 40.17
  L 50.29 34.46
  A 0.01 0.01 0.0 0 1 50.29 34.44
  Q 50.39 34.41 50.52 34.34
  A 0.69 0.69 0.0 0 0 50.89 33.71
  Q 50.87 31.32 49.77 28.94
  A 1.78 1.76 1.8 0 0 48.99 28.12
  Q 46.48 26.79 44.74 26.70
  A 1.91 1.91 0.0 0 1 43.44 23.48
  Q 45.93 20.86 45.28 17.63
  A 3.15 3.12 -68.5 0 0 44.77 16.44
  Z"
/>
<path fill="#383948" d="
  M 45.28 17.63
  Q 45.93 20.86 43.44 23.48
  A 1.91 1.91 0.0 0 0 44.74 26.70
  Q 46.48 26.79 48.99 28.12
  A 1.78 1.76 1.8 0 1 49.77 28.94
  Q 50.87 31.32 50.89 33.71
  A 0.69 0.69 0.0 0 1 50.52 34.34
  Q 50.39 34.41 50.29 34.44
  A 0.01 0.01 0.0 0 0 50.29 34.46
  L 52.86 40.17
  A 1.46 1.46 0.0 0 1 52.16 42.09
  L 49.92 43.15
  A 0.96 0.95 -13.8 0 0 49.38 44.04
  Q 49.56 48.85 51.33 52.23
  A 0.43 0.42 70.9 0 1 51.04 52.84
  Q 40.12 55.06 28.98 53.23
  A 0.27 0.26 14.4 0 1 28.77 52.88
  L 32.72 42.75
  A 1.96 1.94 49.9 0 0 32.81 41.64
  L 31.62 35.78
  A 0.87 0.86 -9.3 0 0 30.66 35.10
  C 28.10 35.42 25.91 37.26 22.45 35.72
  Q 19.54 34.43 14.95 31.30
  A 4.98 4.97 -72.9 0 1 12.78 27.19
  L 12.78 25.03
  A 1.59 1.59 0.0 0 1 15.31 23.74
  L 23.61 29.79
  A 1.31 1.29 49.5 0 0 24.95 29.90
  L 27.61 28.57
  A 1.28 0.89 -55.3 0 1 27.85 28.48
  L 35.28 26.52
  A 0.93 0.93 0.0 0 0 35.41 24.77
  C 32.55 23.53 32.71 19.39 34.78 17.40
  Q 35.07 17.11 36.89 15.00
  A 2.51 2.49 11.9 0 1 38.08 14.23
  Q 42.37 12.96 44.77 16.44
  A 3.15 3.12 -68.5 0 1 45.28 17.63
  Z
  M 38.75 24.32
  Q 38.51 24.54 38.16 24.70
  A 2.23 2.11 -43.3 0 0 37.93 28.62
  C 39.80 29.52 42.33 28.30 42.04 25.73
  C 41.69 22.63 44.08 22.07 44.41 19.71
  C 44.92 15.98 40.02 13.14 37.41 15.94
  C 35.43 18.06 33.03 20.97 35.06 23.35
  A 1.27 1.24 69.1 0 0 36.01 23.79
  L 38.54 23.79
  A 0.31 0.31 0.0 0 1 38.75 24.32
  Z
  M 28.92 30.03
  A 0.79 0.78 64.4 0 0 27.88 29.66
  L 25.50 30.79
  A 1.56 1.56 0.0 0 1 24.46 30.90
  Q 20.26 29.85 15.07 24.75
  A 0.70 0.70 0.0 0 0 13.88 25.25
  L 13.88 28.23
  A 2.33 2.33 0.0 0 0 15.05 30.25
  L 23.49 35.13
  A 2.22 2.16 62.2 0 0 24.32 35.40
  Q 26.92 35.67 29.94 34.21
  A 0.87 0.86 64.6 0 0 30.35 33.05
  L 28.92 30.03
  Z
  M 32.45 29.45
  C 35.23 34.25 39.13 35.92 43.91 32.43
  Q 47.41 29.88 48.58 29.59
  A 0.29 0.29 0.0 0 0 48.66 29.07
  Q 46.53 27.71 44.32 27.51
  A 0.99 0.98 21.9 0 0 43.46 27.87
  Q 41.47 30.32 38.83 30.06
  Q 36.07 29.78 35.91 28.06
  A 0.64 0.64 0.0 0 0 35.11 27.50
  L 30.86 28.62
  A 0.99 0.99 0.0 0 0 30.25 30.06
  Q 33.04 35.04 33.84 41.62
  A 3.37 3.29 -38.6 0 1 33.64 43.22
  L 30.32 51.75
  A 0.51 0.51 0.0 0 0 30.73 52.44
  Q 40.26 53.81 49.54 52.01
  A 0.43 0.43 0.0 0 0 49.84 51.40
  Q 48.40 48.38 48.46 45.13
  A 0.52 0.52 0.0 0 0 47.72 44.65
  L 39.64 48.50
  A 0.58 0.57 43.0 0 1 39.17 48.51
  Q 36.13 47.33 36.61 43.77
  A 1.28 1.28 0.0 0 1 38.08 42.68
  Q 42.52 43.41 45.91 39.47
  A 0.79 0.79 0.0 0 0 45.87 38.41
  L 43.14 35.69
  A 0.85 0.84 -30.5 0 0 42.31 35.48
  Q 34.60 37.70 32.17 29.58
  A 0.16 0.15 -69.0 0 1 32.45 29.45
  Z
  M 49.94 33.83
  Q 50.14 33.75 49.70 31.15
  A 0.54 0.53 81.2 0 0 49.10 30.71
  Q 49.04 30.72 48.76 30.83
  Q 48.48 30.94 48.44 30.97
  A 0.54 0.53 55.8 0 0 48.30 31.70
  Q 49.75 33.91 49.94 33.83
  Z
  M 44.26 34.50
  Q 45.52 35.96 46.87 37.68
  C 47.36 38.29 48.13 38.04 48.66 38.56
  A 0.41 0.40 -29.7 0 1 48.47 39.24
  Q 48.09 39.34 45.21 41.96
  Q 42.54 44.38 38.74 43.93
  A 0.70 0.69 8.5 0 0 37.98 44.49
  Q 37.73 45.79 38.99 46.98
  A 0.55 0.55 0.0 0 0 39.61 47.07
  L 51.31 41.50
  A 1.09 1.09 0.0 0 0 51.86 40.11
  Q 50.11 35.74 46.56 32.26
  A 0.29 0.28 44.3 0 0 46.15 32.26
  L 44.28 34.13
  A 0.28 0.27 -42.6 0 0 44.26 34.50
  Z"
/>
<path fill="#ffffff" d="
  M 38.54 23.79
  L 36.01 23.79
  A 1.27 1.24 69.1 0 1 35.06 23.35
  C 33.03 20.97 35.43 18.06 37.41 15.94
  C 40.02 13.14 44.92 15.98 44.41 19.71
  C 44.08 22.07 41.69 22.63 42.04 25.73
  C 42.33 28.30 39.80 29.52 37.93 28.62
  A 2.23 2.11 -43.3 0 1 38.16 24.70
  Q 38.51 24.54 38.75 24.32
  A 0.31 0.31 0.0 0 0 38.54 23.79
  Z"
/>
<path fill="#ffffff" d="
  M 29.94 34.21
  Q 26.92 35.67 24.32 35.40
  A 2.22 2.16 62.2 0 1 23.49 35.13
  L 15.05 30.25
  A 2.33 2.33 0.0 0 1 13.88 28.23
  L 13.88 25.25
  A 0.70 0.70 0.0 0 1 15.07 24.75
  Q 20.26 29.85 24.46 30.90
  A 1.56 1.56 0.0 0 0 25.50 30.79
  L 27.88 29.66
  A 0.79 0.78 64.4 0 1 28.92 30.03
  L 30.35 33.05
  A 0.87 0.86 64.6 0 1 29.94 34.21
  Z"
/>
<path fill="#ffffff" d="
  M 32.45 29.45
  A 0.16 0.15 -69.0 0 0 32.17 29.58
  Q 34.60 37.70 42.31 35.48
  A 0.85 0.84 -30.5 0 1 43.14 35.69
  L 45.87 38.41
  A 0.79 0.79 0.0 0 1 45.91 39.47
  Q 42.52 43.41 38.08 42.68
  A 1.28 1.28 0.0 0 0 36.61 43.77
  Q 36.13 47.33 39.17 48.51
  A 0.58 0.57 43.0 0 0 39.64 48.50
  L 47.72 44.65
  A 0.52 0.52 0.0 0 1 48.46 45.13
  Q 48.40 48.38 49.84 51.40
  A 0.43 0.43 0.0 0 1 49.54 52.01
  Q 40.26 53.81 30.73 52.44
  A 0.51 0.51 0.0 0 1 30.32 51.75
  L 33.64 43.22
  A 3.37 3.29 -38.6 0 0 33.84 41.62
  Q 33.04 35.04 30.25 30.06
  A 0.99 0.99 0.0 0 1 30.86 28.62
  L 35.11 27.50
  A 0.64 0.64 0.0 0 1 35.91 28.06
  Q 36.07 29.78 38.83 30.06
  Q 41.47 30.32 43.46 27.87
  A 0.99 0.98 21.9 0 1 44.32 27.51
  Q 46.53 27.71 48.66 29.07
  A 0.29 0.29 0.0 0 1 48.58 29.59
  Q 47.41 29.88 43.91 32.43
  C 39.13 35.92 35.23 34.25 32.45 29.45
  Z"
/>
<path fill="#ffffff" d="
  M 49.94 33.83
  Q 49.75 33.91 48.30 31.70
  A 0.54 0.53 55.8 0 1 48.44 30.97
  Q 48.48 30.94 48.76 30.83
  Q 49.04 30.72 49.10 30.71
  A 0.54 0.53 81.2 0 1 49.70 31.15
  Q 50.14 33.75 49.94 33.83
  Z"
/>
<path fill="#ffffff" d="
  M 44.26 34.50
  A 0.28 0.27 -42.6 0 1 44.28 34.13
  L 46.15 32.26
  A 0.29 0.28 44.3 0 1 46.56 32.26
  Q 50.11 35.74 51.86 40.11
  A 1.09 1.09 0.0 0 1 51.31 41.50
  L 39.61 47.07
  A 0.55 0.55 0.0 0 1 38.99 46.98
  Q 37.73 45.79 37.98 44.49
  A 0.70 0.69 8.5 0 1 38.74 43.93
  Q 42.54 44.38 45.21 41.96
  Q 48.09 39.34 48.47 39.24
  A 0.41 0.40 -29.7 0 0 48.66 38.56
  C 48.13 38.04 47.36 38.29 46.87 37.68
  Q 45.52 35.96 44.26 34.50
  Z"
/>
</svg>
