<?xml version="1.0" encoding="UTF-8" standalone="no"?>
<!DOCTYPE svg PUBLIC "-//W3C//DTD SVG 1.1//EN" "http://www.w3.org/Graphics/SVG/1.1/DTD/svg11.dtd">
<svg xmlns="http://www.w3.org/2000/svg" version="1.1" viewBox="0.00 0.00 66.00 88.00">
<g stroke-width="2.00" fill="none" stroke-linecap="butt">
<path stroke="#4a4b58" vector-effect="non-scaling-stroke" d="
  M 33.42 86.62
  C 34.25 86.62 33.56 86.69 33.79 86.47
  Q 47.04 74.19 55.92 59.47
  C 65.26 44.00 69.03 24.79 54.91 11.09
  C 49.30 5.65 41.54 2.47 33.51 2.46
  C 25.48 2.45 17.71 5.62 12.09 11.05
  C -2.06 24.71 1.67 43.93 10.98 59.42
  Q 19.83 74.16 33.05 86.47
  C 33.29 86.69 32.59 86.62 33.42 86.62"
/>
<path stroke="#4a4b58" vector-effect="non-scaling-stroke" d="
  M 43.20 26.11
  Q 42.54 23.02 40.83 22.53
  A 0.64 0.64 0.0 0 1 40.36 21.91
  L 40.36 16.32
  A 1.63 1.61 -63.1 0 0 40.06 15.38
  Q 38.73 13.49 37.44 13.01
  Q 32.96 11.33 27.60 12.71
  C 23.64 13.73 23.60 19.13 24.66 22.22
  A 0.63 0.62 -18.7 0 1 24.26 23.02
  Q 22.75 23.51 22.12 26.53
  Q 21.29 30.49 22.83 32.96
  A 1.81 1.79 84.8 0 0 23.68 33.68
  C 29.75 36.19 34.02 34.81 39.09 33.60
  C 42.73 32.73 42.78 30.33 43.22 26.53
  A 1.52 1.45 43.6 0 0 43.20 26.11"
/>
<path stroke="#4e4e5e" vector-effect="non-scaling-stroke" d="
  M 32.60 55.89
  Q 33.98 55.89 34.46 55.80
  A 1.14 1.12 -85.2 0 0 35.32 55.06
  Q 36.27 52.41 34.82 50.72
  A 0.48 0.47 -42.0 0 1 34.86 50.05
  Q 36.14 48.90 35.85 46.52
  A 1.19 1.17 73.4 0 1 36.49 45.32
  L 49.05 39.04
  A 0.63 0.63 0.0 0 0 49.41 38.47
  L 49.41 20.45
  A 1.53 1.52 1.0 0 0 47.93 18.93
  L 46.82 18.89
  A 1.49 1.49 0.0 0 0 45.28 20.34
  L 44.82 34.60
  A 2.31 2.30 -12.6 0 1 43.55 36.59
  L 36.75 39.99
  A 0.40 0.40 0.0 0 1 36.18 39.70
  L 35.77 37.17
  A 1.43 1.43 0.0 0 0 35.07 36.16
  Q 34.44 35.76 32.64 35.76
  Q 30.84 35.75 30.22 36.15
  A 1.43 1.43 0.0 0 0 29.51 37.16
  L 29.09 39.68
  A 0.40 0.40 0.0 0 1 28.52 39.97
  L 21.73 36.54
  A 2.31 2.30 12.9 0 1 20.47 34.55
  L 20.08 20.28
  A 1.49 1.49 0.0 0 0 18.54 18.83
  L 17.43 18.86
  A 1.53 1.52 -0.7 0 0 15.95 20.38
  L 15.87 38.40
  A 0.63 0.63 0.0 0 0 16.22 38.97
  L 28.75 45.30
  A 1.19 1.17 -73.1 0 1 29.39 46.51
  Q 29.09 48.88 30.36 50.04
  A 0.48 0.47 42.2 0 1 30.40 50.71
  Q 28.94 52.39 29.88 55.05
  A 1.14 1.12 85.5 0 0 30.73 55.79
  Q 31.21 55.88 32.60 55.89"
/>
<path stroke="#98999e" vector-effect="non-scaling-stroke" d="
  M 35.99 13.71
  Q 34.36 13.20 30.99 13.29
  Q 23.55 13.48 25.58 21.48
  A 1.01 1.00 -13.5 0 0 26.78 22.21
  Q 30.60 21.33 35.27 23.01
  A 0.25 0.25 0.0 0 0 35.58 22.67
  Q 33.71 18.73 36.20 14.23
  A 0.37 0.36 23.6 0 0 35.99 13.71"
/>
<path stroke="#98999e" vector-effect="non-scaling-stroke" d="
  M 37.7532 14.7602
  A 4.13 1.75 -89.4 0 0 35.9601 18.8717
  A 4.13 1.75 -89.4 0 0 37.6668 23.0198
  A 4.13 1.75 -89.4 0 0 39.4599 18.9083
  A 4.13 1.75 -89.4 0 0 37.7532 14.7602"
/>
<path stroke="#98999e" vector-effect="non-scaling-stroke" d="
  M 24.62 27.32
  Q 24.61 27.28 25.95 24.48
  A 0.45 0.45 0.0 0 0 25.35 23.88
  L 24.42 24.34
  A 1.67 1.65 -3.1 0 0 23.61 25.23
  Q 22.11 29.03 23.53 31.80
  A 1.79 1.76 -2.2 0 0 24.45 32.64
  Q 28.89 34.45 33.46 33.75
  A 0.28 0.28 0.0 0 0 33.67 33.34
  Q 31.27 28.83 33.88 24.33
  A 0.48 0.48 0.0 0 0 33.43 23.61
  Q 31.86 23.73 30.29 23.29
  A 4.03 3.08 24.1 0 0 26.34 24.22
  Q 25.44 25.38 25.09 27.33
  A 0.24 0.24 0.0 0 1 24.62 27.32"
/>
<path stroke="#98999e" vector-effect="non-scaling-stroke" d="
  M 40.3997 23.6103
  A 4.07 1.75 -89.3 0 0 38.6001 27.6586
  A 4.07 1.75 -89.3 0 0 40.3003 31.7497
  A 4.07 1.75 -89.3 0 0 42.0999 27.7014
  A 4.07 1.75 -89.3 0 0 40.3997 23.6103"
/>
<path stroke="#98999e" vector-effect="non-scaling-stroke" d="
  M 35.4576 24.7123
  A 4.15 1.72 -88.1 0 0 33.6009 28.8030
  A 4.15 1.72 -88.1 0 0 35.1824 33.0077
  A 4.15 1.72 -88.1 0 0 37.0391 28.9170
  A 4.15 1.72 -88.1 0 0 35.4576 24.7123"
/>
<path stroke="#4a4b58" vector-effect="non-scaling-stroke" d="
  M 37.26 32.28
  A 0.91 0.78 -28.6 0 0 38.87 32.63
  Q 39.29 32.01 38.48 31.30
  A 0.49 0.48 35.8 0 0 37.75 31.41
  Q 37.26 32.25 37.26 32.28"
/>
<path stroke="#b1b1b9" vector-effect="non-scaling-stroke" d="
  M 32.39 16.39
  Q 32.23 17.32 32.42 18.51
  A 0.08 0.08 0.0 0 0 32.59 18.51
  Q 32.73 17.50 32.91 16.48
  Q 33.08 15.45 33.28 14.45
  A 0.08 0.08 0.0 0 0 33.12 14.39
  Q 32.55 15.45 32.39 16.39"
/>
<path stroke="#b1b1b9" vector-effect="non-scaling-stroke" d="
  M 27.5994 16.5018
  A 1.75 0.32 -87.4 0 0 27.2003 18.2355
  A 1.75 0.32 -87.4 0 0 27.4406 19.9982
  A 1.75 0.32 -87.4 0 0 27.8397 18.2645
  A 1.75 0.32 -87.4 0 0 27.5994 16.5018"
/>
<path stroke="#9c9ca4" vector-effect="non-scaling-stroke" d="
  M 16.81 37.72
  A 0.28 0.28 0.0 0 0 16.96 37.98
  L 28.73 44.03
  A 0.28 0.28 0.0 0 0 29.13 43.76
  L 28.98 41.67
  A 0.28 0.28 0.0 0 0 28.83 41.44
  L 19.91 36.85
  A 0.28 0.28 0.0 0 1 19.76 36.62
  L 18.55 20.26
  A 0.28 0.28 0.0 0 0 18.25 20.00
  L 17.61 20.04
  A 0.28 0.28 0.0 0 0 17.35 20.31
  L 16.81 37.72"
/>
<path stroke="#9c9ca4" vector-effect="non-scaling-stroke" d="
  M 36.30 42.04
  L 36.14 43.47
  A 0.45 0.44 -10.6 0 0 36.78 43.91
  L 48.00 38.13
  A 0.79 0.79 0.0 0 0 48.43 37.39
  L 47.93 20.62
  A 0.55 0.54 87.9 0 0 47.37 20.09
  L 47.07 20.10
  A 0.35 0.34 2.6 0 0 46.72 20.42
  L 45.56 36.24
  A 1.14 1.13 -11.2 0 1 44.93 37.16
  L 36.97 41.08
  A 1.20 1.19 -9.7 0 0 36.30 42.04"
/>
<path stroke="#9c9ca4" vector-effect="non-scaling-stroke" d="
  M 31.19 37.19
  A 0.55 0.55 0.0 0 0 30.64 37.74
  L 30.64 48.74
  A 0.55 0.55 0.0 0 0 31.19 49.29
  L 33.93 49.29
  A 0.55 0.55 0.0 0 0 34.48 48.76
  L 34.83 37.76
  A 0.55 0.55 0.0 0 0 34.28 37.19
  L 31.19 37.19"
/>
<path stroke="#9c9ca4" vector-effect="non-scaling-stroke" d="
  M 34.5472 52.5410
  A 0.75 0.75 0.0 0 0 33.8144 51.7742
  L 31.7150 51.7266
  A 0.75 0.75 0.0 0 0 30.9482 52.4594
  L 30.9128 54.0190
  A 0.75 0.75 0.0 0 0 31.6456 54.7858
  L 33.7450 54.8334
  A 0.75 0.75 0.0 0 0 34.5118 54.1006
  L 34.5472 52.5410"
/>
<path stroke="#b1b1b9" vector-effect="non-scaling-stroke" d="
  M 31.0916 24.3674
  A 1.65 0.18 -65.6 0 0 30.2461 25.7956
  A 1.65 0.18 -65.6 0 0 29.7284 27.3726
  A 1.65 0.18 -65.6 0 0 30.5739 25.9444
  A 1.65 0.18 -65.6 0 0 31.0916 24.3674"
/>
<path stroke="#b1b1b9" vector-effect="non-scaling-stroke" d="
  M 24.7075 28.0005
  A 0.75 0.20 -87.9 0 0 24.4801 28.7427
  A 0.75 0.20 -87.9 0 0 24.6525 29.4995
  A 0.75 0.20 -87.9 0 0 24.8799 28.7573
  A 0.75 0.20 -87.9 0 0 24.7075 28.0005"
/>
<path stroke="#b1b1b9" vector-effect="non-scaling-stroke" d="
  M 29.71 31.15
  Q 30.01 32.04 30.55 32.65
  A 0.11 0.11 0.0 0 0 30.72 32.54
  Q 30.31 31.71 30.08 31.02
  Q 29.85 30.34 29.67 29.43
  A 0.11 0.11 0.0 0 0 29.46 29.45
  Q 29.42 30.26 29.71 31.15"
/>
<path stroke="#b1b1b9" vector-effect="non-scaling-stroke" d="
  M 25.24 30.78
  Q 25.21 30.11 25.16 30.01
  A 0.29 0.28 -59.6 0 0 24.63 30.15
  Q 24.62 30.51 24.87 30.90
  A 0.20 0.20 0.0 0 0 25.24 30.78"
/>
</g>
<path fill="#31333c" d="
  M 33.81 88.00
  L 33.04 88.00
  C 22.05 78.02 11.69 65.34 5.65 51.56
  Q 2.13 43.52 1.55 34.89
  C 0.26 15.48 17.05 -0.48 36.66 1.49
  C 53.43 3.17 66.22 17.33 65.45 34.17
  Q 65.09 42.11 62.12 49.56
  C 56.28 64.19 45.37 77.44 33.81 88.00
  Z
  M 33.42 86.62
  C 34.25 86.62 33.56 86.69 33.79 86.47
  Q 47.04 74.19 55.92 59.47
  C 65.26 44.00 69.03 24.79 54.91 11.09
  C 49.30 5.65 41.54 2.47 33.51 2.46
  C 25.48 2.45 17.71 5.62 12.09 11.05
  C -2.06 24.71 1.67 43.93 10.98 59.42
  Q 19.83 74.16 33.05 86.47
  C 33.29 86.69 32.59 86.62 33.42 86.62
  Z"
/>
<path fill="#636373" d="
  M 33.51 2.46
  C 41.54 2.47 49.30 5.65 54.91 11.09
  C 69.03 24.79 65.26 44.00 55.92 59.47
  Q 47.04 74.19 33.79 86.47
  C 33.56 86.69 34.25 86.62 33.42 86.62
  C 32.59 86.62 33.29 86.69 33.05 86.47
  Q 19.83 74.16 10.98 59.42
  C 1.67 43.93 -2.06 24.71 12.09 11.05
  C 17.71 5.62 25.48 2.45 33.51 2.46
  Z
  M 43.20 26.11
  Q 42.54 23.02 40.83 22.53
  A 0.64 0.64 0.0 0 1 40.36 21.91
  L 40.36 16.32
  A 1.63 1.61 -63.1 0 0 40.06 15.38
  Q 38.73 13.49 37.44 13.01
  Q 32.96 11.33 27.60 12.71
  C 23.64 13.73 23.60 19.13 24.66 22.22
  A 0.63 0.62 -18.7 0 1 24.26 23.02
  Q 22.75 23.51 22.12 26.53
  Q 21.29 30.49 22.83 32.96
  A 1.81 1.79 84.8 0 0 23.68 33.68
  C 29.75 36.19 34.02 34.81 39.09 33.60
  C 42.73 32.73 42.78 30.33 43.22 26.53
  A 1.52 1.45 43.6 0 0 43.20 26.11
  Z
  M 32.60 55.89
  Q 33.98 55.89 34.46 55.80
  A 1.14 1.12 -85.2 0 0 35.32 55.06
  Q 36.27 52.41 34.82 50.72
  A 0.48 0.47 -42.0 0 1 34.86 50.05
  Q 36.14 48.90 35.85 46.52
  A 1.19 1.17 73.4 0 1 36.49 45.32
  L 49.05 39.04
  A 0.63 0.63 0.0 0 0 49.41 38.47
  L 49.41 20.45
  A 1.53 1.52 1.0 0 0 47.93 18.93
  L 46.82 18.89
  A 1.49 1.49 0.0 0 0 45.28 20.34
  L 44.82 34.60
  A 2.31 2.30 -12.6 0 1 43.55 36.59
  L 36.75 39.99
  A 0.40 0.40 0.0 0 1 36.18 39.70
  L 35.77 37.17
  A 1.43 1.43 0.0 0 0 35.07 36.16
  Q 34.44 35.76 32.64 35.76
  Q 30.84 35.75 30.22 36.15
  A 1.43 1.43 0.0 0 0 29.51 37.16
  L 29.09 39.68
  A 0.40 0.40 0.0 0 1 28.52 39.97
  L 21.73 36.54
  A 2.31 2.30 12.9 0 1 20.47 34.55
  L 20.08 20.28
  A 1.49 1.49 0.0 0 0 18.54 18.83
  L 17.43 18.86
  A 1.53 1.52 -0.7 0 0 15.95 20.38
  L 15.87 38.40
  A 0.63 0.63 0.0 0 0 16.22 38.97
  L 28.75 45.30
  A 1.19 1.17 -73.1 0 1 29.39 46.51
  Q 29.09 48.88 30.36 50.04
  A 0.48 0.47 42.2 0 1 30.40 50.71
  Q 28.94 52.39 29.88 55.05
  A 1.14 1.12 85.5 0 0 30.73 55.79
  Q 31.21 55.88 32.60 55.89
  Z"
/>
<path fill="#31333c" d="
  M 43.22 26.53
  C 42.78 30.33 42.73 32.73 39.09 33.60
  C 34.02 34.81 29.75 36.19 23.68 33.68
  A 1.81 1.79 84.8 0 1 22.83 32.96
  Q 21.29 30.49 22.12 26.53
  Q 22.75 23.51 24.26 23.02
  A 0.63 0.62 -18.7 0 0 24.66 22.22
  C 23.60 19.13 23.64 13.73 27.60 12.71
  Q 32.96 11.33 37.44 13.01
  Q 38.73 13.49 40.06 15.38
  A 1.63 1.61 -63.1 0 1 40.36 16.32
  L 40.36 21.91
  A 0.64 0.64 0.0 0 0 40.83 22.53
  Q 42.54 23.02 43.20 26.11
  A 1.52 1.45 43.6 0 1 43.22 26.53
  Z
  M 35.99 13.71
  Q 34.36 13.20 30.99 13.29
  Q 23.55 13.48 25.58 21.48
  A 1.01 1.00 -13.5 0 0 26.78 22.21
  Q 30.60 21.33 35.27 23.01
  A 0.25 0.25 0.0 0 0 35.58 22.67
  Q 33.71 18.73 36.20 14.23
  A 0.37 0.36 23.6 0 0 35.99 13.71
  Z
  M 37.7532 14.7602
  A 4.13 1.75 -89.4 0 0 35.9601 18.8717
  A 4.13 1.75 -89.4 0 0 37.6668 23.0198
  A 4.13 1.75 -89.4 0 0 39.4599 18.9083
  A 4.13 1.75 -89.4 0 0 37.7532 14.7602
  Z
  M 24.62 27.32
  Q 24.61 27.28 25.95 24.48
  A 0.45 0.45 0.0 0 0 25.35 23.88
  L 24.42 24.34
  A 1.67 1.65 -3.1 0 0 23.61 25.23
  Q 22.11 29.03 23.53 31.80
  A 1.79 1.76 -2.2 0 0 24.45 32.64
  Q 28.89 34.45 33.46 33.75
  A 0.28 0.28 0.0 0 0 33.67 33.34
  Q 31.27 28.83 33.88 24.33
  A 0.48 0.48 0.0 0 0 33.43 23.61
  Q 31.86 23.73 30.29 23.29
  A 4.03 3.08 24.1 0 0 26.34 24.22
  Q 25.44 25.38 25.09 27.33
  A 0.24 0.24 0.0 0 1 24.62 27.32
  Z
  M 40.3997 23.6103
  A 4.07 1.75 -89.3 0 0 38.6001 27.6586
  A 4.07 1.75 -89.3 0 0 40.3003 31.7497
  A 4.07 1.75 -89.3 0 0 42.0999 27.7014
  A 4.07 1.75 -89.3 0 0 40.3997 23.6103
  Z
  M 35.4576 24.7123
  A 4.15 1.72 -88.1 0 0 33.6009 28.8030
  A 4.15 1.72 -88.1 0 0 35.1824 33.0077
  A 4.15 1.72 -88.1 0 0 37.0391 28.9170
  A 4.15 1.72 -88.1 0 0 35.4576 24.7123
  Z
  M 37.26 32.28
  A 0.91 0.78 -28.6 0 0 38.87 32.63
  Q 39.29 32.01 38.48 31.30
  A 0.49 0.48 35.8 0 0 37.75 31.41
  Q 37.26 32.25 37.26 32.28
  Z"
/>
<path fill="#ffffff" d="
  M 35.99 13.71
  A 0.37 0.36 23.6 0 1 36.20 14.23
  Q 33.71 18.73 35.58 22.67
  A 0.25 0.25 0.0 0 1 35.27 23.01
  Q 30.60 21.33 26.78 22.21
  A 1.01 1.00 -13.5 0 1 25.58 21.48
  Q 23.55 13.48 30.99 13.29
  Q 34.36 13.20 35.99 13.71
  Z
  M 32.39 16.39
  Q 32.23 17.32 32.42 18.51
  A 0.08 0.08 0.0 0 0 32.59 18.51
  Q 32.73 17.50 32.91 16.48
  Q 33.08 15.45 33.28 14.45
  A 0.08 0.08 0.0 0 0 33.12 14.39
  Q 32.55 15.45 32.39 16.39
  Z
  M 27.5994 16.5018
  A 1.75 0.32 -87.4 0 0 27.2003 18.2355
  A 1.75 0.32 -87.4 0 0 27.4406 19.9982
  A 1.75 0.32 -87.4 0 0 27.8397 18.2645
  A 1.75 0.32 -87.4 0 0 27.5994 16.5018
  Z"
/>
<path fill="#636373" d="
  M 32.91 16.48
  Q 32.73 17.50 32.59 18.51
  A 0.08 0.08 0.0 0 1 32.42 18.51
  Q 32.23 17.32 32.39 16.39
  Q 32.55 15.45 33.12 14.39
  A 0.08 0.08 0.0 0 1 33.28 14.45
  Q 33.08 15.45 32.91 16.48
  Z"
/>
<ellipse fill="#ffffff" cx="0.00" cy="0.00" transform="translate(37.71,18.89) rotate(-89.4)" rx="4.13" ry="1.75"/>
<ellipse fill="#636373" cx="0.00" cy="0.00" transform="translate(27.52,18.25) rotate(-87.4)" rx="1.75" ry="0.32"/>
<path fill="#393949" d="
  M 32.64 35.76
  Q 34.44 35.76 35.07 36.16
  A 1.43 1.43 0.0 0 1 35.77 37.17
  L 36.18 39.70
  A 0.40 0.40 0.0 0 0 36.75 39.99
  L 43.55 36.59
  A 2.31 2.30 -12.6 0 0 44.82 34.60
  L 45.28 20.34
  A 1.49 1.49 0.0 0 1 46.82 18.89
  L 47.93 18.93
  A 1.53 1.52 1.0 0 1 49.41 20.45
  L 49.41 38.47
  A 0.63 0.63 0.0 0 1 49.05 39.04
  L 36.49 45.32
  A 1.19 1.17 73.4 0 0 35.85 46.52
  Q 36.14 48.90 34.86 50.05
  A 0.48 0.47 -42.0 0 0 34.82 50.72
  Q 36.27 52.41 35.32 55.06
  A 1.14 1.12 -85.2 0 1 34.46 55.80
  Q 33.98 55.89 32.60 55.89
  Q 31.21 55.88 30.73 55.79
  A 1.14 1.12 85.5 0 1 29.88 55.05
  Q 28.94 52.39 30.40 50.71
  A 0.48 0.47 42.2 0 0 30.36 50.04
  Q 29.09 48.88 29.39 46.51
  A 1.19 1.17 -73.1 0 0 28.75 45.30
  L 16.22 38.97
  A 0.63 0.63 0.0 0 1 15.87 38.40
  L 15.95 20.38
  A 1.53 1.52 -0.7 0 1 17.43 18.86
  L 18.54 18.83
  A 1.49 1.49 0.0 0 1 20.08 20.28
  L 20.47 34.55
  A 2.31 2.30 12.9 0 0 21.73 36.54
  L 28.52 39.97
  A 0.40 0.40 0.0 0 0 29.09 39.68
  L 29.51 37.16
  A 1.43 1.43 0.0 0 1 30.22 36.15
  Q 30.84 35.75 32.64 35.76
  Z
  M 16.81 37.72
  A 0.28 0.28 0.0 0 0 16.96 37.98
  L 28.73 44.03
  A 0.28 0.28 0.0 0 0 29.13 43.76
  L 28.98 41.67
  A 0.28 0.28 0.0 0 0 28.83 41.44
  L 19.91 36.85
  A 0.28 0.28 0.0 0 1 19.76 36.62
  L 18.55 20.26
  A 0.28 0.28 0.0 0 0 18.25 20.00
  L 17.61 20.04
  A 0.28 0.28 0.0 0 0 17.35 20.31
  L 16.81 37.72
  Z
  M 36.30 42.04
  L 36.14 43.47
  A 0.45 0.44 -10.6 0 0 36.78 43.91
  L 48.00 38.13
  A 0.79 0.79 0.0 0 0 48.43 37.39
  L 47.93 20.62
  A 0.55 0.54 87.9 0 0 47.37 20.09
  L 47.07 20.10
  A 0.35 0.34 2.6 0 0 46.72 20.42
  L 45.56 36.24
  A 1.14 1.13 -11.2 0 1 44.93 37.16
  L 36.97 41.08
  A 1.20 1.19 -9.7 0 0 36.30 42.04
  Z
  M 31.19 37.19
  A 0.55 0.55 0.0 0 0 30.64 37.74
  L 30.64 48.74
  A 0.55 0.55 0.0 0 0 31.19 49.29
  L 33.93 49.29
  A 0.55 0.55 0.0 0 0 34.48 48.76
  L 34.83 37.76
  A 0.55 0.55 0.0 0 0 34.28 37.19
  L 31.19 37.19
  Z
  M 34.5472 52.5410
  A 0.75 0.75 0.0 0 0 33.8144 51.7742
  L 31.7150 51.7266
  A 0.75 0.75 0.0 0 0 30.9482 52.4594
  L 30.9128 54.0190
  A 0.75 0.75 0.0 0 0 31.6456 54.7858
  L 33.7450 54.8334
  A 0.75 0.75 0.0 0 0 34.5118 54.1006
  L 34.5472 52.5410
  Z"
/>
<path fill="#ffffff" d="
  M 16.81 37.72
  L 17.35 20.31
  A 0.28 0.28 0.0 0 1 17.61 20.04
  L 18.25 20.00
  A 0.28 0.28 0.0 0 1 18.55 20.26
  L 19.76 36.62
  A 0.28 0.28 0.0 0 0 19.91 36.85
  L 28.83 41.44
  A 0.28 0.28 0.0 0 1 28.98 41.67
  L 29.13 43.76
  A 0.28 0.28 0.0 0 1 28.73 44.03
  L 16.96 37.98
  A 0.28 0.28 0.0 0 1 16.81 37.72
  Z"
/>
<path fill="#ffffff" d="
  M 36.30 42.04
  A 1.20 1.19 -9.7 0 1 36.97 41.08
  L 44.93 37.16
  A 1.14 1.13 -11.2 0 0 45.56 36.24
  L 46.72 20.42
  A 0.35 0.34 2.6 0 1 47.07 20.10
  L 47.37 20.09
  A 0.55 0.54 87.9 0 1 47.93 20.62
  L 48.43 37.39
  A 0.79 0.79 0.0 0 1 48.00 38.13
  L 36.78 43.91
  A 0.45 0.44 -10.6 0 1 36.14 43.47
  L 36.30 42.04
  Z"
/>
<path fill="#ffffff" d="
  M 25.09 27.33
  Q 25.44 25.38 26.34 24.22
  A 4.03 3.08 24.1 0 1 30.29 23.29
  Q 31.86 23.73 33.43 23.61
  A 0.48 0.48 0.0 0 1 33.88 24.33
  Q 31.27 28.83 33.67 33.34
  A 0.28 0.28 0.0 0 1 33.46 33.75
  Q 28.89 34.45 24.45 32.64
  A 1.79 1.76 -2.2 0 1 23.53 31.80
  Q 22.11 29.03 23.61 25.23
  A 1.67 1.65 -3.1 0 1 24.42 24.34
  L 25.35 23.88
  A 0.45 0.45 0.0 0 1 25.95 24.48
  Q 24.61 27.28 24.62 27.32
  A 0.24 0.24 0.0 0 0 25.09 27.33
  Z
  M 31.0916 24.3674
  A 1.65 0.18 -65.6 0 0 30.2461 25.7956
  A 1.65 0.18 -65.6 0 0 29.7284 27.3726
  A 1.65 0.18 -65.6 0 0 30.5739 25.9444
  A 1.65 0.18 -65.6 0 0 31.0916 24.3674
  Z
  M 24.7075 28.0005
  A 0.75 0.20 -87.9 0 0 24.4801 28.7427
  A 0.75 0.20 -87.9 0 0 24.6525 29.4995
  A 0.75 0.20 -87.9 0 0 24.8799 28.7573
  A 0.75 0.20 -87.9 0 0 24.7075 28.0005
  Z
  M 29.71 31.15
  Q 30.01 32.04 30.55 32.65
  A 0.11 0.11 0.0 0 0 30.72 32.54
  Q 30.31 31.71 30.08 31.02
  Q 29.85 30.34 29.67 29.43
  A 0.11 0.11 0.0 0 0 29.46 29.45
  Q 29.42 30.26 29.71 31.15
  Z
  M 25.24 30.78
  Q 25.21 30.11 25.16 30.01
  A 0.29 0.28 -59.6 0 0 24.63 30.15
  Q 24.62 30.51 24.87 30.90
  A 0.20 0.20 0.0 0 0 25.24 30.78
  Z"
/>
<ellipse fill="#ffffff" cx="0.00" cy="0.00" transform="translate(40.35,27.68) rotate(-89.3)" rx="4.07" ry="1.75"/>
<ellipse fill="#636373" cx="0.00" cy="0.00" transform="translate(30.41,25.87) rotate(-65.6)" rx="1.65" ry="0.18"/>
<ellipse fill="#ffffff" cx="0.00" cy="0.00" transform="translate(35.32,28.86) rotate(-88.1)" rx="4.15" ry="1.72"/>
<ellipse fill="#636373" cx="0.00" cy="0.00" transform="translate(24.68,28.75) rotate(-87.9)" rx="0.75" ry="0.20"/>
<path fill="#636373" d="
  M 30.08 31.02
  Q 30.31 31.71 30.72 32.54
  A 0.11 0.11 0.0 0 1 30.55 32.65
  Q 30.01 32.04 29.71 31.15
  Q 29.42 30.26 29.46 29.45
  A 0.11 0.11 0.0 0 1 29.67 29.43
  Q 29.85 30.34 30.08 31.02
  Z"
/>
<path fill="#636373" d="
  M 24.87 30.90
  Q 24.62 30.51 24.63 30.15
  A 0.29 0.28 -59.6 0 1 25.16 30.01
  Q 25.21 30.11 25.24 30.78
  A 0.20 0.20 0.0 0 1 24.87 30.90
  Z"
/>
<path fill="#636373" d="
  M 37.26 32.28
  Q 37.26 32.25 37.75 31.41
  A 0.49 0.48 35.8 0 1 38.48 31.30
  Q 39.29 32.01 38.87 32.63
  A 0.91 0.78 -28.6 0 1 37.26 32.28
  Z"
/>
<path fill="#ffffff" d="
  M 31.19 37.19
  L 34.28 37.19
  A 0.55 0.55 0.0 0 1 34.83 37.76
  L 34.48 48.76
  A 0.55 0.55 0.0 0 1 33.93 49.29
  L 31.19 49.29
  A 0.55 0.55 0.0 0 1 30.64 48.74
  L 30.64 37.74
  A 0.55 0.55 0.0 0 1 31.19 37.19
  Z"
/>
<rect fill="#ffffff" x="-1.80" y="-1.53" transform="translate(32.73,53.28) rotate(1.3)" width="3.60" height="3.06" rx="0.75"/>
</svg>
