<?xml version="1.0" encoding="UTF-8" standalone="no"?>
<!DOCTYPE svg PUBLIC "-//W3C//DTD SVG 1.1//EN" "http://www.w3.org/Graphics/SVG/1.1/DTD/svg11.dtd">
<svg xmlns="http://www.w3.org/2000/svg" version="1.1" viewBox="0.00 0.00 66.00 88.00">
<g stroke-width="2.00" fill="none" stroke-linecap="butt">
<path stroke="#947605" vector-effect="non-scaling-stroke" d="
  M 33.40 86.74
  Q 33.51 86.74 33.65 86.61
  Q 48.35 72.97 57.56 56.56
  C 62.35 48.04 65.88 36.24 63.60 26.37
  C 60.37 12.36 47.97 2.47 33.53 2.45
  C 19.09 2.43 6.66 12.28 3.39 26.28
  C 1.08 36.14 4.58 47.95 9.34 56.49
  Q 18.50 72.92 33.16 86.61
  Q 33.30 86.74 33.40 86.74"
/>
<path stroke="#7d6a24" vector-effect="non-scaling-stroke" d="
  M 17.98 23.57
  L 11.81 25.50
  A 1.05 1.05 0.0 0 0 11.07 26.50
  L 11.07 31.46
  A 1.53 1.49 -68.3 0 0 11.52 32.54
  L 16.06 37.09
  A 1.03 1.03 0.0 0 0 17.51 37.09
  L 22.24 32.35
  A 2.69 2.68 -63.9 0 1 24.44 31.59
  Q 27.39 31.96 30.98 29.74
  A 0.70 0.69 64.9 0 0 31.27 28.92
  Q 31.20 28.71 31.23 28.58
  A 0.71 0.69 2.2 0 1 31.84 28.03
  Q 34.79 27.72 36.56 26.43
  Q 37.39 25.83 37.30 25.09
  Q 37.22 24.41 36.37 23.78
  Q 36.02 23.52 36.03 23.25
  Q 36.04 22.98 36.24 22.60
  C 36.85 21.51 36.71 20.52 35.49 19.92
  A 0.76 0.76 0.0 0 1 35.10 19.00
  Q 35.90 16.58 33.55 16.13
  A 0.60 0.59 -80.0 0 1 33.08 15.45
  C 33.52 12.79 30.85 12.21 29.07 13.45
  A 0.45 0.42 -54.6 0 1 28.73 13.52
  L 21.86 12.01
  A 1.08 1.05 25.8 0 0 20.81 12.36
  Q 18.30 15.32 17.46 18.33
  A 0.88 0.84 49.3 0 0 17.44 18.74
  L 18.26 23.10
  A 0.41 0.41 0.0 0 1 17.98 23.57"
/>
<path stroke="#7d6a24" vector-effect="non-scaling-stroke" d="
  M 48.00 42.35
  A 0.42 0.42 0.0 0 1 47.72 41.88
  L 48.52 37.46
  A 0.89 0.85 -49.6 0 0 48.50 37.05
  Q 47.63 34.01 45.07 31.03
  A 1.09 1.06 -26.1 0 0 44.01 30.68
  L 37.07 32.25
  A 0.45 0.42 54.3 0 1 36.73 32.18
  C 34.92 30.94 32.23 31.54 32.69 34.23
  A 0.61 0.60 79.6 0 1 32.22 34.92
  Q 29.84 35.39 30.67 37.83
  A 0.77 0.76 -22.5 0 1 30.28 38.76
  C 29.05 39.38 28.91 40.38 29.54 41.48
  Q 29.74 41.86 29.75 42.13
  Q 29.76 42.40 29.41 42.67
  Q 28.55 43.31 28.48 44.00
  Q 28.39 44.75 29.23 45.35
  Q 31.03 46.64 34.02 46.94
  A 0.72 0.70 -2.5 0 1 34.64 47.49
  Q 34.67 47.62 34.60 47.84
  A 0.71 0.70 -65.2 0 0 34.90 48.66
  Q 38.54 50.89 41.52 50.50
  A 2.72 2.71 63.6 0 1 43.75 51.25
  L 48.56 56.01
  A 1.04 1.04 0.0 0 0 50.02 56.01
  L 54.59 51.38
  A 1.54 1.51 68.0 0 0 55.03 50.28
  L 55.01 45.27
  A 1.06 1.06 0.0 0 0 54.25 44.26
  L 48.00 42.35"
/>
<path stroke="#9b9aa1" vector-effect="non-scaling-stroke" d="
  M 21.11 15.24
  A 0.13 0.12 -87.7 0 1 21.28 15.08
  Q 24.09 16.56 26.96 15.29
  A 0.52 0.52 0.0 0 0 26.91 14.32
  L 22.75 13.04
  A 1.58 1.57 22.4 0 0 20.89 13.80
  L 18.65 18.06
  A 1.13 1.12 44.6 0 0 18.66 19.13
  Q 18.74 19.26 19.38 22.63
  Q 19.81 24.84 21.83 26.31
  A 0.87 0.86 43.5 0 0 22.87 26.29
  C 23.94 25.44 25.42 24.40 25.18 22.79
  Q 24.77 20.00 22.61 19.47
  A 0.55 0.55 0.0 0 1 22.19 18.90
  Q 22.25 17.96 21.11 15.24"
/>
<path stroke="#9b9aa1" vector-effect="non-scaling-stroke" d="
  M 30.14 15.49
  Q 30.58 16.05 30.77 16.11
  Q 31.26 16.26 31.51 15.84
  Q 32.17 14.70 31.77 14.20
  Q 31.38 13.70 30.12 14.07
  Q 29.65 14.22 29.68 14.73
  Q 29.69 14.93 30.14 15.49"
/>
<path stroke="#9b9aa1" vector-effect="non-scaling-stroke" d="
  M 29.1229 16.8553
  A 1.31 0.81 -31.0 0 0 27.5828 16.8357
  A 1.31 0.81 -31.0 0 0 26.8771 18.2047
  A 1.31 0.81 -31.0 0 0 28.4172 18.2243
  A 1.31 0.81 -31.0 0 0 29.1229 16.8553"
/>
<path stroke="#7d6a24" vector-effect="non-scaling-stroke" d="
  M 26.76 21.36
  Q 26.92 19.89 25.98 19.04
  Q 25.24 18.36 25.41 17.61
  A 0.49 0.49 0.0 0 0 24.93 17.02
  L 23.61 17.02
  A 0.56 0.56 0.0 0 0 23.06 17.65
  Q 23.21 18.70 24.30 18.89
  A 0.73 0.73 0.0 0 1 24.80 19.24
  L 26.10 21.50
  A 0.36 0.35 -56.9 0 0 26.76 21.36"
/>
<path stroke="#9b9aa1" vector-effect="non-scaling-stroke" d="
  M 34.05 18.34
  A 1.15 1.15 0.0 0 0 32.90 17.19
  A 1.15 1.15 0.0 0 0 31.75 18.34
  A 1.15 1.15 0.0 0 0 32.90 19.49
  A 1.15 1.15 0.0 0 0 34.05 18.34"
/>
<path stroke="#9b9aa1" vector-effect="non-scaling-stroke" d="
  M 29.05 19.94
  Q 28.05 20.39 27.90 21.12
  A 0.65 0.65 0.0 0 0 28.85 21.82
  Q 29.54 21.45 29.69 21.38
  Q 29.85 21.32 30.58 21.05
  A 0.65 0.65 0.0 0 0 30.70 19.88
  Q 30.05 19.49 29.05 19.94"
/>
<path stroke="#9b9aa1" vector-effect="non-scaling-stroke" d="
  M 33.60 22.53
  A 0.83 0.68 -44.2 0 0 34.93 22.41
  Q 35.65 21.29 34.96 20.95
  A 1.09 0.98 3.9 0 0 33.43 22.15
  Q 33.48 22.26 33.60 22.53"
/>
<path stroke="#7d6a24" vector-effect="non-scaling-stroke" d="
  M 26.25 22.81
  Q 26.34 23.42 26.33 23.48
  A 0.41 0.41 0.0 0 0 26.81 23.98
  L 27.74 23.78
  A 0.31 0.31 0.0 0 0 27.89 23.26
  L 27.04 22.41
  A 0.47 0.46 18.0 0 0 26.25 22.81"
/>
<path stroke="#9b9aa1" vector-effect="non-scaling-stroke" d="
  M 32.2760 23.1428
  A 1.47 0.76 -20.6 0 0 30.6326 22.9486
  A 1.47 0.76 -20.6 0 0 29.5240 24.1772
  A 1.47 0.76 -20.6 0 0 31.1674 24.3714
  A 1.47 0.76 -20.6 0 0 32.2760 23.1428"
/>
<path stroke="#9b9aa1" vector-effect="non-scaling-stroke" d="
  M 34.65 26.22
  Q 35.43 25.91 35.66 25.75
  A 0.70 0.66 24.5 0 0 35.16 24.54
  Q 34.01 24.60 34.13 25.90
  A 0.38 0.38 0.0 0 0 34.65 26.22"
/>
<path stroke="#9b9aa1" vector-effect="non-scaling-stroke" d="
  M 29.41 29.05
  L 27.62 25.38
  A 0.33 0.33 0.0 0 0 27.18 25.23
  L 26.97 25.33
  A 4.71 2.19 -25.9 0 0 23.69 29.36
  L 23.84 29.69
  A 4.71 2.19 -25.9 0 0 29.04 29.60
  L 29.25 29.49
  A 0.33 0.33 0.0 0 0 29.41 29.05"
/>
<path stroke="#9b9aa1" vector-effect="non-scaling-stroke" d="
  M 17.26 35.89
  L 20.45 32.73
  A 0.44 0.43 -52.5 0 0 20.37 32.05
  Q 17.12 30.16 15.70 26.23
  A 0.66 0.66 0.0 0 0 14.94 25.81
  L 12.64 26.30
  A 0.84 0.83 82.4 0 0 11.98 27.17
  L 12.22 31.48
  A 0.42 0.41 -69.9 0 0 12.34 31.75
  L 16.43 35.89
  A 0.59 0.58 -44.3 0 0 17.26 35.89"
/>
<path stroke="#9b9aa1" vector-effect="non-scaling-stroke" d="
  M 30.40 26.70
  Q 31.31 27.22 32.57 26.84
  A 0.41 0.41 0.0 0 0 32.58 26.05
  Q 32.11 25.89 30.50 26.16
  A 0.29 0.29 0.0 0 0 30.40 26.70"
/>
<path stroke="#7d6a24" vector-effect="non-scaling-stroke" d="
  M 20.01 27.12
  Q 21.34 28.96 21.53 28.99
  A 0.76 0.75 69.0 0 0 22.12 27.66
  Q 20.79 26.56 20.32 26.55
  A 0.36 0.36 0.0 0 0 20.01 27.12"
/>
<path stroke="#9b9aa1" vector-effect="non-scaling-stroke" d="
  M 44.95 34.08
  Q 43.82 36.81 43.88 37.75
  A 0.55 0.55 0.0 0 1 43.46 38.32
  Q 41.30 38.85 40.90 41.65
  C 40.66 43.26 42.15 44.30 43.22 45.14
  A 0.87 0.86 -43.7 0 0 44.26 45.16
  Q 46.28 43.68 46.70 41.47
  Q 47.33 38.10 47.41 37.97
  A 1.13 1.12 -44.7 0 0 47.42 36.89
  L 45.16 32.64
  A 1.58 1.57 -22.6 0 0 43.30 31.88
  L 39.14 33.18
  A 0.52 0.52 0.0 0 0 39.09 34.15
  Q 41.97 35.41 44.78 33.92
  A 0.13 0.12 87.6 0 1 44.95 34.08"
/>
<path stroke="#9b9aa1" vector-effect="non-scaling-stroke" d="
  M 33.86 34.07
  Q 34.06 34.66 34.39 34.86
  A 0.57 0.56 -49.1 0 0 35.04 34.81
  Q 36.29 33.75 36.14 33.30
  Q 35.99 32.85 34.36 32.76
  A 0.57 0.56 12.0 0 0 33.80 33.12
  Q 33.66 33.47 33.86 34.07"
/>
<path stroke="#9b9aa1" vector-effect="non-scaling-stroke" d="
  M 36.72 35.87
  Q 36.58 36.19 36.57 36.23
  A 0.56 0.56 0.0 0 0 36.93 36.87
  Q 38.80 37.52 39.07 36.92
  Q 39.34 36.32 37.61 35.37
  A 0.56 0.56 0.0 0 0 36.89 35.52
  Q 36.86 35.56 36.72 35.87"
/>
<path stroke="#7d6a24" vector-effect="non-scaling-stroke" d="
  M 39.26 40.45
  A 0.37 0.37 0.0 0 0 39.96 40.55
  L 41.16 38.09
  A 0.77 0.77 0.0 0 1 41.66 37.69
  Q 42.79 37.41 42.87 36.30
  A 0.59 0.58 89.7 0 0 42.25 35.68
  L 40.86 35.77
  A 0.51 0.51 0.0 0 0 40.40 36.42
  Q 40.63 37.20 39.91 37.96
  Q 38.98 38.92 39.26 40.45"
/>
<path stroke="#9b9aa1" vector-effect="non-scaling-stroke" d="
  M 31.9516 36.0965
  A 1.27 1.11 -127.8 0 0 31.8529 37.7803
  A 1.27 1.11 -127.8 0 0 33.5084 38.1035
  A 1.27 1.11 -127.8 0 0 33.6071 36.4197
  A 1.27 1.11 -127.8 0 0 31.9516 36.0965"
/>
<path stroke="#9b9aa1" vector-effect="non-scaling-stroke" d="
  M 34.95 38.87
  Q 34.78 39.25 34.86 39.52
  Q 34.94 39.80 35.30 39.95
  Q 37.63 40.92 37.95 40.20
  Q 38.27 39.48 35.99 38.40
  Q 35.63 38.24 35.38 38.36
  Q 35.12 38.48 34.95 38.87"
/>
<path stroke="#9b9aa1" vector-effect="non-scaling-stroke" d="
  M 31.12 41.68
  A 1.03 1.00 -22.0 0 0 31.93 39.85
  Q 31.26 39.43 30.55 39.79
  Q 29.93 40.10 30.36 40.76
  Q 30.92 41.63 31.12 41.68"
/>
<path stroke="#9b9aa1" vector-effect="non-scaling-stroke" d="
  M 36.13 42.54
  Q 35.15 41.58 34.35 41.66
  A 0.84 0.68 -28.6 0 0 33.80 43.01
  Q 34.29 43.28 35.93 43.13
  A 0.34 0.34 0.0 0 0 36.13 42.54"
/>
<path stroke="#7d6a24" vector-effect="non-scaling-stroke" d="
  M 39.89 42.31
  Q 39.30 40.96 37.78 41.53
  A 0.58 0.58 0.0 0 0 37.67 42.57
  Q 37.94 42.74 39.48 42.88
  A 0.41 0.41 0.0 0 0 39.89 42.31"
/>
<path stroke="#9b9aa1" vector-effect="non-scaling-stroke" d="
  M 29.7180 43.6814
  A 1.03 0.81 -154.8 0 0 30.3051 44.8529
  A 1.03 0.81 -154.8 0 0 31.5820 44.5586
  A 1.03 0.81 -154.8 0 0 30.9949 43.3871
  A 1.03 0.81 -154.8 0 0 29.7180 43.6814"
/>
<path stroke="#9b9aa1" vector-effect="non-scaling-stroke" d="
  M 38.22 44.26
  L 36.47 47.79
  A 0.40 0.40 0.0 0 0 36.65 48.32
  L 36.76 48.37
  A 4.74 2.06 26.4 0 0 41.92 48.64
  L 42.19 48.08
  A 4.74 2.06 26.4 0 0 38.86 44.13
  L 38.76 44.08
  A 0.40 0.40 0.0 0 0 38.22 44.26"
/>
<path stroke="#9b9aa1" vector-effect="non-scaling-stroke" d="
  M 46.49 46.87
  Q 45.18 48.64 44.27 49.37
  A 0.16 0.16 0.0 0 0 44.21 49.50
  Q 44.22 49.79 44.50 49.82
  A 0.18 0.18 0.0 0 0 44.64 49.78
  Q 45.97 48.52 46.94 47.20
  Q 47.92 45.89 48.74 44.25
  A 0.18 0.18 0.0 0 0 48.74 44.10
  Q 48.63 43.84 48.35 43.92
  A 0.16 0.16 0.0 0 0 48.24 44.02
  Q 47.81 45.09 46.49 46.87"
/>
<path stroke="#9b9aa1" vector-effect="non-scaling-stroke" d="
  M 48.88 54.75
  A 0.59 0.59 0.0 0 0 49.71 54.75
  L 53.85 50.61
  A 0.43 0.41 70.3 0 0 53.97 50.34
  L 54.24 46.00
  A 0.84 0.83 -82.1 0 0 53.58 45.12
  L 51.27 44.61
  A 0.66 0.66 0.0 0 0 50.50 45.03
  Q 49.05 48.98 45.77 50.86
  A 0.44 0.44 0.0 0 0 45.68 51.55
  L 48.88 54.75"
/>
<path stroke="#9b9aa1" vector-effect="non-scaling-stroke" d="
  M 35.26 45.15
  L 33.57 44.78
  A 0.42 0.42 0.0 0 0 33.22 45.53
  Q 34.11 46.21 35.30 45.83
  A 0.35 0.35 0.0 0 0 35.26 45.15"
/>
<path stroke="#7d6a24" vector-effect="non-scaling-stroke" d="
  M 45.29 45.90
  Q 44.08 46.04 43.91 46.19
  A 0.97 0.75 -71.8 0 0 44.48 47.81
  Q 44.94 47.59 45.64 46.45
  A 0.36 0.36 0.0 0 0 45.29 45.90"
/>
</g>
<path fill="#634e03" d="
  M 33.80 88.00
  L 33.03 88.00
  C 21.74 77.73 12.04 65.62 5.63 51.45
  Q 0.20 39.42 2.06 26.89
  Q 3.05 20.25 7.93 13.93
  C 16.43 2.94 31.42 -1.82 44.70 3.35
  Q 60.51 9.50 64.70 25.82
  C 66.11 31.30 65.50 38.36 63.94 44.01
  C 59.30 60.73 46.45 76.50 33.80 88.00
  Z
  M 33.40 86.74
  Q 33.51 86.74 33.65 86.61
  Q 48.35 72.97 57.56 56.56
  C 62.35 48.04 65.88 36.24 63.60 26.37
  C 60.37 12.36 47.97 2.47 33.53 2.45
  C 19.09 2.43 6.66 12.28 3.39 26.28
  C 1.08 36.14 4.58 47.95 9.34 56.49
  Q 18.50 72.92 33.16 86.61
  Q 33.30 86.74 33.40 86.74
  Z"
/>
<path fill="#c49e06" d="
  M 33.53 2.45
  C 47.97 2.47 60.37 12.36 63.60 26.37
  C 65.88 36.24 62.35 48.04 57.56 56.56
  Q 48.35 72.97 33.65 86.61
  Q 33.51 86.74 33.40 86.74
  Q 33.30 86.74 33.16 86.61
  Q 18.50 72.92 9.34 56.49
  C 4.58 47.95 1.08 36.14 3.39 26.28
  C 6.66 12.28 19.09 2.43 33.53 2.45
  Z
  M 17.98 23.57
  L 11.81 25.50
  A 1.05 1.05 0.0 0 0 11.07 26.50
  L 11.07 31.46
  A 1.53 1.49 -68.3 0 0 11.52 32.54
  L 16.06 37.09
  A 1.03 1.03 0.0 0 0 17.51 37.09
  L 22.24 32.35
  A 2.69 2.68 -63.9 0 1 24.44 31.59
  Q 27.39 31.96 30.98 29.74
  A 0.70 0.69 64.9 0 0 31.27 28.92
  Q 31.20 28.71 31.23 28.58
  A 0.71 0.69 2.2 0 1 31.84 28.03
  Q 34.79 27.72 36.56 26.43
  Q 37.39 25.83 37.30 25.09
  Q 37.22 24.41 36.37 23.78
  Q 36.02 23.52 36.03 23.25
  Q 36.04 22.98 36.24 22.60
  C 36.85 21.51 36.71 20.52 35.49 19.92
  A 0.76 0.76 0.0 0 1 35.10 19.00
  Q 35.90 16.58 33.55 16.13
  A 0.60 0.59 -80.0 0 1 33.08 15.45
  C 33.52 12.79 30.85 12.21 29.07 13.45
  A 0.45 0.42 -54.6 0 1 28.73 13.52
  L 21.86 12.01
  A 1.08 1.05 25.8 0 0 20.81 12.36
  Q 18.30 15.32 17.46 18.33
  A 0.88 0.84 49.3 0 0 17.44 18.74
  L 18.26 23.10
  A 0.41 0.41 0.0 0 1 17.98 23.57
  Z
  M 48.00 42.35
  A 0.42 0.42 0.0 0 1 47.72 41.88
  L 48.52 37.46
  A 0.89 0.85 -49.6 0 0 48.50 37.05
  Q 47.63 34.01 45.07 31.03
  A 1.09 1.06 -26.1 0 0 44.01 30.68
  L 37.07 32.25
  A 0.45 0.42 54.3 0 1 36.73 32.18
  C 34.92 30.94 32.23 31.54 32.69 34.23
  A 0.61 0.60 79.6 0 1 32.22 34.92
  Q 29.84 35.39 30.67 37.83
  A 0.77 0.76 -22.5 0 1 30.28 38.76
  C 29.05 39.38 28.91 40.38 29.54 41.48
  Q 29.74 41.86 29.75 42.13
  Q 29.76 42.40 29.41 42.67
  Q 28.55 43.31 28.48 44.00
  Q 28.39 44.75 29.23 45.35
  Q 31.03 46.64 34.02 46.94
  A 0.72 0.70 -2.5 0 1 34.64 47.49
  Q 34.67 47.62 34.60 47.84
  A 0.71 0.70 -65.2 0 0 34.90 48.66
  Q 38.54 50.89 41.52 50.50
  A 2.72 2.71 63.6 0 1 43.75 51.25
  L 48.56 56.01
  A 1.04 1.04 0.0 0 0 50.02 56.01
  L 54.59 51.38
  A 1.54 1.51 68.0 0 0 55.03 50.28
  L 55.01 45.27
  A 1.06 1.06 0.0 0 0 54.25 44.26
  L 48.00 42.35
  Z"
/>
<path fill="#363542" d="
  M 18.26 23.10
  L 17.44 18.74
  A 0.88 0.84 49.3 0 1 17.46 18.33
  Q 18.30 15.32 20.81 12.36
  A 1.08 1.05 25.8 0 1 21.86 12.01
  L 28.73 13.52
  A 0.45 0.42 -54.6 0 0 29.07 13.45
  C 30.85 12.21 33.52 12.79 33.08 15.45
  A 0.60 0.59 -80.0 0 0 33.55 16.13
  Q 35.90 16.58 35.10 19.00
  A 0.76 0.76 0.0 0 0 35.49 19.92
  C 36.71 20.52 36.85 21.51 36.24 22.60
  Q 36.04 22.98 36.03 23.25
  Q 36.02 23.52 36.37 23.78
  Q 37.22 24.41 37.30 25.09
  Q 37.39 25.83 36.56 26.43
  Q 34.79 27.72 31.84 28.03
  A 0.71 0.69 2.2 0 0 31.23 28.58
  Q 31.20 28.71 31.27 28.92
  A 0.70 0.69 64.9 0 1 30.98 29.74
  Q 27.39 31.96 24.44 31.59
  A 2.69 2.68 -63.9 0 0 22.24 32.35
  L 17.51 37.09
  A 1.03 1.03 0.0 0 1 16.06 37.09
  L 11.52 32.54
  A 1.53 1.49 -68.3 0 1 11.07 31.46
  L 11.07 26.50
  A 1.05 1.05 0.0 0 1 11.81 25.50
  L 17.98 23.57
  A 0.41 0.41 0.0 0 0 18.26 23.10
  Z
  M 21.11 15.24
  A 0.13 0.12 -87.7 0 1 21.28 15.08
  Q 24.09 16.56 26.96 15.29
  A 0.52 0.52 0.0 0 0 26.91 14.32
  L 22.75 13.04
  A 1.58 1.57 22.4 0 0 20.89 13.80
  L 18.65 18.06
  A 1.13 1.12 44.6 0 0 18.66 19.13
  Q 18.74 19.26 19.38 22.63
  Q 19.81 24.84 21.83 26.31
  A 0.87 0.86 43.5 0 0 22.87 26.29
  C 23.94 25.44 25.42 24.40 25.18 22.79
  Q 24.77 20.00 22.61 19.47
  A 0.55 0.55 0.0 0 1 22.19 18.90
  Q 22.25 17.96 21.11 15.24
  Z
  M 30.14 15.49
  Q 30.58 16.05 30.77 16.11
  Q 31.26 16.26 31.51 15.84
  Q 32.17 14.70 31.77 14.20
  Q 31.38 13.70 30.12 14.07
  Q 29.65 14.22 29.68 14.73
  Q 29.69 14.93 30.14 15.49
  Z
  M 29.1229 16.8553
  A 1.31 0.81 -31.0 0 0 27.5828 16.8357
  A 1.31 0.81 -31.0 0 0 26.8771 18.2047
  A 1.31 0.81 -31.0 0 0 28.4172 18.2243
  A 1.31 0.81 -31.0 0 0 29.1229 16.8553
  Z
  M 26.76 21.36
  Q 26.92 19.89 25.98 19.04
  Q 25.24 18.36 25.41 17.61
  A 0.49 0.49 0.0 0 0 24.93 17.02
  L 23.61 17.02
  A 0.56 0.56 0.0 0 0 23.06 17.65
  Q 23.21 18.70 24.30 18.89
  A 0.73 0.73 0.0 0 1 24.80 19.24
  L 26.10 21.50
  A 0.36 0.35 -56.9 0 0 26.76 21.36
  Z
  M 34.05 18.34
  A 1.15 1.15 0.0 0 0 32.90 17.19
  A 1.15 1.15 0.0 0 0 31.75 18.34
  A 1.15 1.15 0.0 0 0 32.90 19.49
  A 1.15 1.15 0.0 0 0 34.05 18.34
  Z
  M 29.05 19.94
  Q 28.05 20.39 27.90 21.12
  A 0.65 0.65 0.0 0 0 28.85 21.82
  Q 29.54 21.45 29.69 21.38
  Q 29.85 21.32 30.58 21.05
  A 0.65 0.65 0.0 0 0 30.70 19.88
  Q 30.05 19.49 29.05 19.94
  Z
  M 33.60 22.53
  A 0.83 0.68 -44.2 0 0 34.93 22.41
  Q 35.65 21.29 34.96 20.95
  A 1.09 0.98 3.9 0 0 33.43 22.15
  Q 33.48 22.26 33.60 22.53
  Z
  M 26.25 22.81
  Q 26.34 23.42 26.33 23.48
  A 0.41 0.41 0.0 0 0 26.81 23.98
  L 27.74 23.78
  A 0.31 0.31 0.0 0 0 27.89 23.26
  L 27.04 22.41
  A 0.47 0.46 18.0 0 0 26.25 22.81
  Z
  M 32.2760 23.1428
  A 1.47 0.76 -20.6 0 0 30.6326 22.9486
  A 1.47 0.76 -20.6 0 0 29.5240 24.1772
  A 1.47 0.76 -20.6 0 0 31.1674 24.3714
  A 1.47 0.76 -20.6 0 0 32.2760 23.1428
  Z
  M 34.65 26.22
  Q 35.43 25.91 35.66 25.75
  A 0.70 0.66 24.5 0 0 35.16 24.54
  Q 34.01 24.60 34.13 25.90
  A 0.38 0.38 0.0 0 0 34.65 26.22
  Z
  M 29.41 29.05
  L 27.62 25.38
  A 0.33 0.33 0.0 0 0 27.18 25.23
  L 26.97 25.33
  A 4.71 2.19 -25.9 0 0 23.69 29.36
  L 23.84 29.69
  A 4.71 2.19 -25.9 0 0 29.04 29.60
  L 29.25 29.49
  A 0.33 0.33 0.0 0 0 29.41 29.05
  Z
  M 17.26 35.89
  L 20.45 32.73
  A 0.44 0.43 -52.5 0 0 20.37 32.05
  Q 17.12 30.16 15.70 26.23
  A 0.66 0.66 0.0 0 0 14.94 25.81
  L 12.64 26.30
  A 0.84 0.83 82.4 0 0 11.98 27.17
  L 12.22 31.48
  A 0.42 0.41 -69.9 0 0 12.34 31.75
  L 16.43 35.89
  A 0.59 0.58 -44.3 0 0 17.26 35.89
  Z
  M 30.40 26.70
  Q 31.31 27.22 32.57 26.84
  A 0.41 0.41 0.0 0 0 32.58 26.05
  Q 32.11 25.89 30.50 26.16
  A 0.29 0.29 0.0 0 0 30.40 26.70
  Z
  M 20.01 27.12
  Q 21.34 28.96 21.53 28.99
  A 0.76 0.75 69.0 0 0 22.12 27.66
  Q 20.79 26.56 20.32 26.55
  A 0.36 0.36 0.0 0 0 20.01 27.12
  Z"
/>
<path fill="#ffffff" d="
  M 21.11 15.24
  Q 22.25 17.96 22.19 18.90
  A 0.55 0.55 0.0 0 0 22.61 19.47
  Q 24.77 20.00 25.18 22.79
  C 25.42 24.40 23.94 25.44 22.87 26.29
  A 0.87 0.86 43.5 0 1 21.83 26.31
  Q 19.81 24.84 19.38 22.63
  Q 18.74 19.26 18.66 19.13
  A 1.13 1.12 44.6 0 1 18.65 18.06
  L 20.89 13.80
  A 1.58 1.57 22.4 0 1 22.75 13.04
  L 26.91 14.32
  A 0.52 0.52 0.0 0 1 26.96 15.29
  Q 24.09 16.56 21.28 15.08
  A 0.13 0.12 -87.7 0 0 21.11 15.24
  Z"
/>
<path fill="#ffffff" d="
  M 31.77 14.20
  Q 32.17 14.70 31.51 15.84
  Q 31.26 16.26 30.77 16.11
  Q 30.58 16.05 30.14 15.49
  Q 29.69 14.93 29.68 14.73
  Q 29.65 14.22 30.12 14.07
  Q 31.38 13.70 31.77 14.20
  Z"
/>
<ellipse fill="#ffffff" cx="0.00" cy="0.00" transform="translate(28.00,17.53) rotate(-31.0)" rx="1.31" ry="0.81"/>
<path fill="#c49e06" d="
  M 26.10 21.50
  L 24.80 19.24
  A 0.73 0.73 0.0 0 0 24.30 18.89
  Q 23.21 18.70 23.06 17.65
  A 0.56 0.56 0.0 0 1 23.61 17.02
  L 24.93 17.02
  A 0.49 0.49 0.0 0 1 25.41 17.61
  Q 25.24 18.36 25.98 19.04
  Q 26.92 19.89 26.76 21.36
  A 0.36 0.35 -56.9 0 1 26.10 21.50
  Z"
/>
<circle fill="#ffffff" cx="32.90" cy="18.34" r="1.15"/>
<path fill="#ffffff" d="
  M 29.69 21.38
  Q 29.54 21.45 28.85 21.82
  A 0.65 0.65 0.0 0 1 27.90 21.12
  Q 28.05 20.39 29.05 19.94
  Q 30.05 19.49 30.70 19.88
  A 0.65 0.65 0.0 0 1 30.58 21.05
  Q 29.85 21.32 29.69 21.38
  Z"
/>
<path fill="#ffffff" d="
  M 33.60 22.53
  Q 33.48 22.26 33.43 22.15
  A 1.09 0.98 3.9 0 1 34.96 20.95
  Q 35.65 21.29 34.93 22.41
  A 0.83 0.68 -44.2 0 1 33.60 22.53
  Z"
/>
<path fill="#c49e06" d="
  M 27.04 22.41
  L 27.89 23.26
  A 0.31 0.31 0.0 0 1 27.74 23.78
  L 26.81 23.98
  A 0.41 0.41 0.0 0 1 26.33 23.48
  Q 26.34 23.42 26.25 22.81
  A 0.47 0.46 18.0 0 1 27.04 22.41
  Z"
/>
<ellipse fill="#ffffff" cx="0.00" cy="0.00" transform="translate(30.90,23.66) rotate(-20.6)" rx="1.47" ry="0.76"/>
<path fill="#ffffff" d="
  M 34.65 26.22
  A 0.38 0.38 0.0 0 1 34.13 25.90
  Q 34.01 24.60 35.16 24.54
  A 0.70 0.66 24.5 0 1 35.66 25.75
  Q 35.43 25.91 34.65 26.22
  Z"
/>
<path fill="#ffffff" d="
  M 29.41 29.05
  A 0.33 0.33 0.0 0 1 29.25 29.49
  L 29.04 29.60
  A 4.71 2.19 -25.9 0 1 23.84 29.69
  L 23.69 29.36
  A 4.71 2.19 -25.9 0 1 26.97 25.33
  L 27.18 25.23
  A 0.33 0.33 0.0 0 1 27.62 25.38
  L 29.41 29.05
  Z"
/>
<path fill="#ffffff" d="
  M 17.26 35.89
  A 0.59 0.58 -44.3 0 1 16.43 35.89
  L 12.34 31.75
  A 0.42 0.41 -69.9 0 1 12.22 31.48
  L 11.98 27.17
  A 0.84 0.83 82.4 0 1 12.64 26.30
  L 14.94 25.81
  A 0.66 0.66 0.0 0 1 15.70 26.23
  Q 17.12 30.16 20.37 32.05
  A 0.44 0.43 -52.5 0 1 20.45 32.73
  L 17.26 35.89
  Z"
/>
<path fill="#ffffff" d="
  M 30.50 26.16
  Q 32.11 25.89 32.58 26.05
  A 0.41 0.41 0.0 0 1 32.57 26.84
  Q 31.31 27.22 30.40 26.70
  A 0.29 0.29 0.0 0 1 30.50 26.16
  Z"
/>
<path fill="#c49e06" d="
  M 20.32 26.55
  Q 20.79 26.56 22.12 27.66
  A 0.76 0.75 69.0 0 1 21.53 28.99
  Q 21.34 28.96 20.01 27.12
  A 0.36 0.36 0.0 0 1 20.32 26.55
  Z"
/>
<path fill="#363542" d="
  M 48.00 42.35
  L 54.25 44.26
  A 1.06 1.06 0.0 0 1 55.01 45.27
  L 55.03 50.28
  A 1.54 1.51 68.0 0 1 54.59 51.38
  L 50.02 56.01
  A 1.04 1.04 0.0 0 1 48.56 56.01
  L 43.75 51.25
  A 2.72 2.71 63.6 0 0 41.52 50.50
  Q 38.54 50.89 34.90 48.66
  A 0.71 0.70 -65.2 0 1 34.60 47.84
  Q 34.67 47.62 34.64 47.49
  A 0.72 0.70 -2.5 0 0 34.02 46.94
  Q 31.03 46.64 29.23 45.35
  Q 28.39 44.75 28.48 44.00
  Q 28.55 43.31 29.41 42.67
  Q 29.76 42.40 29.75 42.13
  Q 29.74 41.86 29.54 41.48
  C 28.91 40.38 29.05 39.38 30.28 38.76
  A 0.77 0.76 -22.5 0 0 30.67 37.83
  Q 29.84 35.39 32.22 34.92
  A 0.61 0.60 79.6 0 0 32.69 34.23
  C 32.23 31.54 34.92 30.94 36.73 32.18
  A 0.45 0.42 54.3 0 0 37.07 32.25
  L 44.01 30.68
  A 1.09 1.06 -26.1 0 1 45.07 31.03
  Q 47.63 34.01 48.50 37.05
  A 0.89 0.85 -49.6 0 1 48.52 37.46
  L 47.72 41.88
  A 0.42 0.42 0.0 0 0 48.00 42.35
  Z
  M 44.95 34.08
  Q 43.82 36.81 43.88 37.75
  A 0.55 0.55 0.0 0 1 43.46 38.32
  Q 41.30 38.85 40.90 41.65
  C 40.66 43.26 42.15 44.30 43.22 45.14
  A 0.87 0.86 -43.7 0 0 44.26 45.16
  Q 46.28 43.68 46.70 41.47
  Q 47.33 38.10 47.41 37.97
  A 1.13 1.12 -44.7 0 0 47.42 36.89
  L 45.16 32.64
  A 1.58 1.57 -22.6 0 0 43.30 31.88
  L 39.14 33.18
  A 0.52 0.52 0.0 0 0 39.09 34.15
  Q 41.97 35.41 44.78 33.92
  A 0.13 0.12 87.6 0 1 44.95 34.08
  Z
  M 33.86 34.07
  Q 34.06 34.66 34.39 34.86
  A 0.57 0.56 -49.1 0 0 35.04 34.81
  Q 36.29 33.75 36.14 33.30
  Q 35.99 32.85 34.36 32.76
  A 0.57 0.56 12.0 0 0 33.80 33.12
  Q 33.66 33.47 33.86 34.07
  Z
  M 36.72 35.87
  Q 36.58 36.19 36.57 36.23
  A 0.56 0.56 0.0 0 0 36.93 36.87
  Q 38.80 37.52 39.07 36.92
  Q 39.34 36.32 37.61 35.37
  A 0.56 0.56 0.0 0 0 36.89 35.52
  Q 36.86 35.56 36.72 35.87
  Z
  M 39.26 40.45
  A 0.37 0.37 0.0 0 0 39.96 40.55
  L 41.16 38.09
  A 0.77 0.77 0.0 0 1 41.66 37.69
  Q 42.79 37.41 42.87 36.30
  A 0.59 0.58 89.7 0 0 42.25 35.68
  L 40.86 35.77
  A 0.51 0.51 0.0 0 0 40.40 36.42
  Q 40.63 37.20 39.91 37.96
  Q 38.98 38.92 39.26 40.45
  Z
  M 31.9516 36.0965
  A 1.27 1.11 -127.8 0 0 31.8529 37.7803
  A 1.27 1.11 -127.8 0 0 33.5084 38.1035
  A 1.27 1.11 -127.8 0 0 33.6071 36.4197
  A 1.27 1.11 -127.8 0 0 31.9516 36.0965
  Z
  M 34.95 38.87
  Q 34.78 39.25 34.86 39.52
  Q 34.94 39.80 35.30 39.95
  Q 37.63 40.92 37.95 40.20
  Q 38.27 39.48 35.99 38.40
  Q 35.63 38.24 35.38 38.36
  Q 35.12 38.48 34.95 38.87
  Z
  M 31.12 41.68
  A 1.03 1.00 -22.0 0 0 31.93 39.85
  Q 31.26 39.43 30.55 39.79
  Q 29.93 40.10 30.36 40.76
  Q 30.92 41.63 31.12 41.68
  Z
  M 36.13 42.54
  Q 35.15 41.58 34.35 41.66
  A 0.84 0.68 -28.6 0 0 33.80 43.01
  Q 34.29 43.28 35.93 43.13
  A 0.34 0.34 0.0 0 0 36.13 42.54
  Z
  M 39.89 42.31
  Q 39.30 40.96 37.78 41.53
  A 0.58 0.58 0.0 0 0 37.67 42.57
  Q 37.94 42.74 39.48 42.88
  A 0.41 0.41 0.0 0 0 39.89 42.31
  Z
  M 29.7180 43.6814
  A 1.03 0.81 -154.8 0 0 30.3051 44.8529
  A 1.03 0.81 -154.8 0 0 31.5820 44.5586
  A 1.03 0.81 -154.8 0 0 30.9949 43.3871
  A 1.03 0.81 -154.8 0 0 29.7180 43.6814
  Z
  M 38.22 44.26
  L 36.47 47.79
  A 0.40 0.40 0.0 0 0 36.65 48.32
  L 36.76 48.37
  A 4.74 2.06 26.4 0 0 41.92 48.64
  L 42.19 48.08
  A 4.74 2.06 26.4 0 0 38.86 44.13
  L 38.76 44.08
  A 0.40 0.40 0.0 0 0 38.22 44.26
  Z
  M 46.49 46.87
  Q 45.18 48.64 44.27 49.37
  A 0.16 0.16 0.0 0 0 44.21 49.50
  Q 44.22 49.79 44.50 49.82
  A 0.18 0.18 0.0 0 0 44.64 49.78
  Q 45.97 48.52 46.94 47.20
  Q 47.92 45.89 48.74 44.25
  A 0.18 0.18 0.0 0 0 48.74 44.10
  Q 48.63 43.84 48.35 43.92
  A 0.16 0.16 0.0 0 0 48.24 44.02
  Q 47.81 45.09 46.49 46.87
  Z
  M 48.88 54.75
  A 0.59 0.59 0.0 0 0 49.71 54.75
  L 53.85 50.61
  A 0.43 0.41 70.3 0 0 53.97 50.34
  L 54.24 46.00
  A 0.84 0.83 -82.1 0 0 53.58 45.12
  L 51.27 44.61
  A 0.66 0.66 0.0 0 0 50.50 45.03
  Q 49.05 48.98 45.77 50.86
  A 0.44 0.44 0.0 0 0 45.68 51.55
  L 48.88 54.75
  Z
  M 35.26 45.15
  L 33.57 44.78
  A 0.42 0.42 0.0 0 0 33.22 45.53
  Q 34.11 46.21 35.30 45.83
  A 0.35 0.35 0.0 0 0 35.26 45.15
  Z
  M 45.29 45.90
  Q 44.08 46.04 43.91 46.19
  A 0.97 0.75 -71.8 0 0 44.48 47.81
  Q 44.94 47.59 45.64 46.45
  A 0.36 0.36 0.0 0 0 45.29 45.90
  Z"
/>
<path fill="#ffffff" d="
  M 44.78 33.92
  Q 41.97 35.41 39.09 34.15
  A 0.52 0.52 0.0 0 1 39.14 33.18
  L 43.30 31.88
  A 1.58 1.57 -22.6 0 1 45.16 32.64
  L 47.42 36.89
  A 1.13 1.12 -44.7 0 1 47.41 37.97
  Q 47.33 38.10 46.70 41.47
  Q 46.28 43.68 44.26 45.16
  A 0.87 0.86 -43.7 0 1 43.22 45.14
  C 42.15 44.30 40.66 43.26 40.90 41.65
  Q 41.30 38.85 43.46 38.32
  A 0.55 0.55 0.0 0 0 43.88 37.75
  Q 43.82 36.81 44.95 34.08
  A 0.13 0.12 87.6 0 0 44.78 33.92
  Z"
/>
<path fill="#ffffff" d="
  M 36.14 33.30
  Q 36.29 33.75 35.04 34.81
  A 0.57 0.56 -49.1 0 1 34.39 34.86
  Q 34.06 34.66 33.86 34.07
  Q 33.66 33.47 33.80 33.12
  A 0.57 0.56 12.0 0 1 34.36 32.76
  Q 35.99 32.85 36.14 33.30
  Z"
/>
<path fill="#ffffff" d="
  M 39.07 36.92
  Q 38.80 37.52 36.93 36.87
  A 0.56 0.56 0.0 0 1 36.57 36.23
  Q 36.58 36.19 36.72 35.87
  Q 36.86 35.56 36.89 35.52
  A 0.56 0.56 0.0 0 1 37.61 35.37
  Q 39.34 36.32 39.07 36.92
  Z"
/>
<path fill="#c49e06" d="
  M 39.26 40.45
  Q 38.98 38.92 39.91 37.96
  Q 40.63 37.20 40.40 36.42
  A 0.51 0.51 0.0 0 1 40.86 35.77
  L 42.25 35.68
  A 0.59 0.58 89.7 0 1 42.87 36.30
  Q 42.79 37.41 41.66 37.69
  A 0.77 0.77 0.0 0 0 41.16 38.09
  L 39.96 40.55
  A 0.37 0.37 0.0 0 1 39.26 40.45
  Z"
/>
<ellipse fill="#ffffff" cx="0.00" cy="0.00" transform="translate(32.73,37.10) rotate(-127.8)" rx="1.27" ry="1.11"/>
<path fill="#ffffff" d="
  M 37.95 40.20
  Q 37.63 40.92 35.30 39.95
  Q 34.94 39.80 34.86 39.52
  Q 34.78 39.25 34.95 38.87
  Q 35.12 38.48 35.38 38.36
  Q 35.63 38.24 35.99 38.40
  Q 38.27 39.48 37.95 40.20
  Z"
/>
<path fill="#ffffff" d="
  M 31.12 41.68
  Q 30.92 41.63 30.36 40.76
  Q 29.93 40.10 30.55 39.79
  Q 31.26 39.43 31.93 39.85
  A 1.03 1.00 -22.0 0 1 31.12 41.68
  Z"
/>
<path fill="#ffffff" d="
  M 35.93 43.13
  Q 34.29 43.28 33.80 43.01
  A 0.84 0.68 -28.6 0 1 34.35 41.66
  Q 35.15 41.58 36.13 42.54
  A 0.34 0.34 0.0 0 1 35.93 43.13
  Z"
/>
<path fill="#c49e06" d="
  M 39.48 42.88
  Q 37.94 42.74 37.67 42.57
  A 0.58 0.58 0.0 0 1 37.78 41.53
  Q 39.30 40.96 39.89 42.31
  A 0.41 0.41 0.0 0 1 39.48 42.88
  Z"
/>
<ellipse fill="#ffffff" cx="0.00" cy="0.00" transform="translate(30.65,44.12) rotate(-154.8)" rx="1.03" ry="0.81"/>
<path fill="#ffffff" d="
  M 38.22 44.26
  A 0.40 0.40 0.0 0 1 38.76 44.08
  L 38.86 44.13
  A 4.74 2.06 26.4 0 1 42.19 48.08
  L 41.92 48.64
  A 4.74 2.06 26.4 0 1 36.76 48.37
  L 36.65 48.32
  A 0.40 0.40 0.0 0 1 36.47 47.79
  L 38.22 44.26
  Z"
/>
<path fill="#ffffff" d="
  M 46.94 47.20
  Q 45.97 48.52 44.64 49.78
  A 0.18 0.18 0.0 0 1 44.50 49.82
  Q 44.22 49.79 44.21 49.50
  A 0.16 0.16 0.0 0 1 44.27 49.37
  Q 45.18 48.64 46.49 46.87
  Q 47.81 45.09 48.24 44.02
  A 0.16 0.16 0.0 0 1 48.35 43.92
  Q 48.63 43.84 48.74 44.10
  A 0.18 0.18 0.0 0 1 48.74 44.25
  Q 47.92 45.89 46.94 47.20
  Z"
/>
<path fill="#ffffff" d="
  M 45.77 50.86
  Q 49.05 48.98 50.50 45.03
  A 0.66 0.66 0.0 0 1 51.27 44.61
  L 53.58 45.12
  A 0.84 0.83 -82.1 0 1 54.24 46.00
  L 53.97 50.34
  A 0.43 0.41 70.3 0 1 53.85 50.61
  L 49.71 54.75
  A 0.59 0.59 0.0 0 1 48.88 54.75
  L 45.68 51.55
  A 0.44 0.44 0.0 0 1 45.77 50.86
  Z"
/>
<path fill="#ffffff" d="
  M 35.30 45.83
  Q 34.11 46.21 33.22 45.53
  A 0.42 0.42 0.0 0 1 33.57 44.78
  L 35.26 45.15
  A 0.35 0.35 0.0 0 1 35.30 45.83
  Z"
/>
<path fill="#c49e06" d="
  M 45.64 46.45
  Q 44.94 47.59 44.48 47.81
  A 0.97 0.75 -71.8 0 1 43.91 46.19
  Q 44.08 46.04 45.29 45.90
  A 0.36 0.36 0.0 0 1 45.64 46.45
  Z"
/>
</svg>
