<?xml version="1.0" encoding="UTF-8" standalone="no"?>
<!DOCTYPE svg PUBLIC "-//W3C//DTD SVG 1.1//EN" "http://www.w3.org/Graphics/SVG/1.1/DTD/svg11.dtd">
<svg xmlns="http://www.w3.org/2000/svg" version="1.1" viewBox="0.00 0.00 66.00 88.00">
<g stroke-width="2.00" fill="none" stroke-linecap="butt">
<path stroke="#496d97" vector-effect="non-scaling-stroke" d="
  M 33.39 86.74
  Q 33.48 86.74 33.63 86.60
  C 46.98 74.28 60.02 57.83 63.63 39.95
  C 67.62 20.17 53.60 2.99 33.75 2.45
  Q 33.61 2.44 33.53 2.44
  Q 33.45 2.44 33.31 2.45
  C 13.46 2.92 -0.62 20.06 3.31 39.85
  C 6.86 57.74 19.84 74.24 33.15 86.60
  Q 33.30 86.74 33.39 86.74"
/>
<path stroke="#4c6385" vector-effect="non-scaling-stroke" d="
  M 12.05 35.72
  Q 13.80 35.76 22.84 35.07
  C 23.55 35.02 24.76 34.36 25.21 34.36
  A 0.26 0.25 26.1 0 1 25.37 34.82
  Q 20.91 38.17 21.13 42.98
  C 21.34 47.58 24.67 51.38 29.29 51.88
  C 42.53 53.29 43.76 33.90 30.34 33.09
  A 0.05 0.05 0.0 0 1 30.32 33.00
  L 40.70 28.95
  A 0.69 0.69 0.0 0 1 41.59 29.34
  L 43.01 32.98
  A 0.55 0.55 0.0 0 0 43.72 33.29
  L 46.88 32.06
  A 0.69 0.68 -21.3 0 0 47.27 31.18
  L 45.83 27.48
  A 0.75 0.74 -24.2 0 1 46.20 26.53
  Q 48.75 25.29 49.46 25.06
  C 50.79 24.63 52.02 25.43 53.54 24.30
  C 56.07 22.43 53.36 17.07 50.07 19.04
  Q 47.36 20.65 44.72 21.59
  A 0.56 0.55 69.2 0 1 44.02 21.27
  L 42.22 16.65
  A 0.44 0.44 0.0 0 0 41.64 16.40
  L 38.05 17.80
  A 0.64 0.64 0.0 0 0 37.68 18.63
  L 38.88 21.70
  A 0.71 0.71 0.0 0 1 38.47 22.62
  Q 30.73 25.51 21.13 29.10
  Q 19.23 29.80 11.90 35.23
  A 0.27 0.27 0.0 0 0 12.05 35.72"
/>
<path stroke="#999aa1" vector-effect="non-scaling-stroke" d="
  M 39.32 19.37
  L 43.90 31.10
  A 0.57 0.57 0.0 0 0 44.64 31.42
  L 45.26 31.18
  A 0.60 0.59 69.3 0 0 45.60 30.41
  L 43.98 26.26
  A 0.53 0.53 0.0 0 1 44.27 25.57
  L 49.19 23.57
  A 1.99 1.96 38.3 0 1 50.29 23.45
  Q 50.52 23.50 50.88 23.67
  Q 51.25 23.84 52.06 23.51
  Q 53.32 22.99 52.85 21.17
  A 1.55 1.54 61.7 0 0 50.32 20.41
  L 49.27 21.36
  A 1.04 1.02 14.6 0 1 48.85 21.60
  L 43.80 23.21
  A 0.66 0.65 69.9 0 1 42.99 22.83
  L 41.39 18.73
  A 0.81 0.80 -21.2 0 0 40.34 18.27
  L 39.70 18.52
  A 0.66 0.66 0.0 0 0 39.32 19.37"
/>
<path stroke="#999aa1" vector-effect="non-scaling-stroke" d="
  M 40.85 27.10
  L 39.76 24.01
  A 0.45 0.45 0.0 0 0 39.18 23.73
  L 31.43 26.48
  A 16.29 2.00 -19.5 0 0 16.75 33.80
  L 16.81 33.97
  A 16.29 2.00 -19.5 0 0 32.83 30.42
  L 40.58 27.67
  A 0.45 0.45 0.0 0 0 40.85 27.10"
/>
<path stroke="#999aa1" vector-effect="non-scaling-stroke" d="
  M 30.4419 34.4000
  A 8.04 7.87 -90.2 0 0 22.6000 42.4675
  A 8.04 7.87 -90.2 0 0 30.4981 50.4800
  A 8.04 7.87 -90.2 0 0 38.3400 42.4125
  A 8.04 7.87 -90.2 0 0 30.4419 34.4000"
/>
<path stroke="#999aa1" vector-effect="non-scaling-stroke" d="
  M 32.6092 41.9263
  A 1.85 1.85 0.0 0 0 30.7560 40.0795
  L 30.1760 40.0805
  A 1.85 1.85 0.0 0 0 28.3292 41.9337
  L 28.3308 42.8537
  A 1.85 1.85 0.0 0 0 30.1840 44.7005
  L 30.7640 44.6995
  A 1.85 1.85 0.0 0 0 32.6108 42.8463
  L 32.6092 41.9263"
/>
<path stroke="#4c6385" vector-effect="non-scaling-stroke" d="
  M 31.23 42.53
  A 0.75 0.75 0.0 0 0 30.48 41.78
  A 0.75 0.75 0.0 0 0 29.73 42.53
  A 0.75 0.75 0.0 0 0 30.48 43.28
  A 0.75 0.75 0.0 0 0 31.23 42.53"
/>
</g>
<path fill="#2d4966" d="
  M 33.80 88.00
  L 33.03 88.00
  C 16.76 73.20 -6.23 44.36 3.98 20.61
  C 10.70 4.98 28.84 -2.76 45.06 3.48
  Q 57.27 8.18 62.84 20.26
  C 66.62 28.45 65.99 38.55 63.05 47.02
  C 57.63 62.64 45.93 76.96 33.80 88.00
  Z
  M 33.39 86.74
  Q 33.48 86.74 33.63 86.60
  C 46.98 74.28 60.02 57.83 63.63 39.95
  C 67.62 20.17 53.60 2.99 33.75 2.45
  Q 33.61 2.44 33.53 2.44
  Q 33.45 2.44 33.31 2.45
  C 13.46 2.92 -0.62 20.06 3.31 39.85
  C 6.86 57.74 19.84 74.24 33.15 86.60
  Q 33.30 86.74 33.39 86.74
  Z"
/>
<path fill="#6591c7" d="
  M 33.53 2.44
  Q 33.61 2.44 33.75 2.45
  C 53.60 2.99 67.62 20.17 63.63 39.95
  C 60.02 57.83 46.98 74.28 33.63 86.60
  Q 33.48 86.74 33.39 86.74
  Q 33.30 86.74 33.15 86.60
  C 19.84 74.24 6.86 57.74 3.31 39.85
  C -0.62 20.06 13.46 2.92 33.31 2.45
  Q 33.45 2.44 33.53 2.44
  Z
  M 12.05 35.72
  Q 13.80 35.76 22.84 35.07
  C 23.55 35.02 24.76 34.36 25.21 34.36
  A 0.26 0.25 26.1 0 1 25.37 34.82
  Q 20.91 38.17 21.13 42.98
  C 21.34 47.58 24.67 51.38 29.29 51.88
  C 42.53 53.29 43.76 33.90 30.34 33.09
  A 0.05 0.05 0.0 0 1 30.32 33.00
  L 40.70 28.95
  A 0.69 0.69 0.0 0 1 41.59 29.34
  L 43.01 32.98
  A 0.55 0.55 0.0 0 0 43.72 33.29
  L 46.88 32.06
  A 0.69 0.68 -21.3 0 0 47.27 31.18
  L 45.83 27.48
  A 0.75 0.74 -24.2 0 1 46.20 26.53
  Q 48.75 25.29 49.46 25.06
  C 50.79 24.63 52.02 25.43 53.54 24.30
  C 56.07 22.43 53.36 17.07 50.07 19.04
  Q 47.36 20.65 44.72 21.59
  A 0.56 0.55 69.2 0 1 44.02 21.27
  L 42.22 16.65
  A 0.44 0.44 0.0 0 0 41.64 16.40
  L 38.05 17.80
  A 0.64 0.64 0.0 0 0 37.68 18.63
  L 38.88 21.70
  A 0.71 0.71 0.0 0 1 38.47 22.62
  Q 30.73 25.51 21.13 29.10
  Q 19.23 29.80 11.90 35.23
  A 0.27 0.27 0.0 0 0 12.05 35.72
  Z"
/>
<path fill="#323443" d="
  M 11.90 35.23
  Q 19.23 29.80 21.13 29.10
  Q 30.73 25.51 38.47 22.62
  A 0.71 0.71 0.0 0 0 38.88 21.70
  L 37.68 18.63
  A 0.64 0.64 0.0 0 1 38.05 17.80
  L 41.64 16.40
  A 0.44 0.44 0.0 0 1 42.22 16.65
  L 44.02 21.27
  A 0.56 0.55 69.2 0 0 44.72 21.59
  Q 47.36 20.65 50.07 19.04
  C 53.36 17.07 56.07 22.43 53.54 24.30
  C 52.02 25.43 50.79 24.63 49.46 25.06
  Q 48.75 25.29 46.20 26.53
  A 0.75 0.74 -24.2 0 0 45.83 27.48
  L 47.27 31.18
  A 0.69 0.68 -21.3 0 1 46.88 32.06
  L 43.72 33.29
  A 0.55 0.55 0.0 0 1 43.01 32.98
  L 41.59 29.34
  A 0.69 0.69 0.0 0 0 40.70 28.95
  L 30.32 33.00
  A 0.05 0.05 0.0 0 0 30.34 33.09
  C 43.76 33.90 42.53 53.29 29.29 51.88
  C 24.67 51.38 21.34 47.58 21.13 42.98
  Q 20.91 38.17 25.37 34.82
  A 0.26 0.25 26.1 0 0 25.21 34.36
  C 24.76 34.36 23.55 35.02 22.84 35.07
  Q 13.80 35.76 12.05 35.72
  A 0.27 0.27 0.0 0 1 11.90 35.23
  Z
  M 39.32 19.37
  L 43.90 31.10
  A 0.57 0.57 0.0 0 0 44.64 31.42
  L 45.26 31.18
  A 0.60 0.59 69.3 0 0 45.60 30.41
  L 43.98 26.26
  A 0.53 0.53 0.0 0 1 44.27 25.57
  L 49.19 23.57
  A 1.99 1.96 38.3 0 1 50.29 23.45
  Q 50.52 23.50 50.88 23.67
  Q 51.25 23.84 52.06 23.51
  Q 53.32 22.99 52.85 21.17
  A 1.55 1.54 61.7 0 0 50.32 20.41
  L 49.27 21.36
  A 1.04 1.02 14.6 0 1 48.85 21.60
  L 43.80 23.21
  A 0.66 0.65 69.9 0 1 42.99 22.83
  L 41.39 18.73
  A 0.81 0.80 -21.2 0 0 40.34 18.27
  L 39.70 18.52
  A 0.66 0.66 0.0 0 0 39.32 19.37
  Z
  M 40.85 27.10
  L 39.76 24.01
  A 0.45 0.45 0.0 0 0 39.18 23.73
  L 31.43 26.48
  A 16.29 2.00 -19.5 0 0 16.75 33.80
  L 16.81 33.97
  A 16.29 2.00 -19.5 0 0 32.83 30.42
  L 40.58 27.67
  A 0.45 0.45 0.0 0 0 40.85 27.10
  Z
  M 30.4419 34.4000
  A 8.04 7.87 -90.2 0 0 22.6000 42.4675
  A 8.04 7.87 -90.2 0 0 30.4981 50.4800
  A 8.04 7.87 -90.2 0 0 38.3400 42.4125
  A 8.04 7.87 -90.2 0 0 30.4419 34.4000
  Z"
/>
<path fill="#ffffff" d="
  M 39.32 19.37
  A 0.66 0.66 0.0 0 1 39.70 18.52
  L 40.34 18.27
  A 0.81 0.80 -21.2 0 1 41.39 18.73
  L 42.99 22.83
  A 0.66 0.65 69.9 0 0 43.80 23.21
  L 48.85 21.60
  A 1.04 1.02 14.6 0 0 49.27 21.36
  L 50.32 20.41
  A 1.55 1.54 61.7 0 1 52.85 21.17
  Q 53.32 22.99 52.06 23.51
  Q 51.25 23.84 50.88 23.67
  Q 50.52 23.50 50.29 23.45
  A 1.99 1.96 38.3 0 0 49.19 23.57
  L 44.27 25.57
  A 0.53 0.53 0.0 0 0 43.98 26.26
  L 45.60 30.41
  A 0.60 0.59 69.3 0 1 45.26 31.18
  L 44.64 31.42
  A 0.57 0.57 0.0 0 1 43.90 31.10
  L 39.32 19.37
  Z"
/>
<path fill="#ffffff" d="
  M 40.85 27.10
  A 0.45 0.45 0.0 0 1 40.58 27.67
  L 32.83 30.42
  A 16.29 2.00 -19.5 0 1 16.81 33.97
  L 16.75 33.80
  A 16.29 2.00 -19.5 0 1 31.43 26.48
  L 39.18 23.73
  A 0.45 0.45 0.0 0 1 39.76 24.01
  L 40.85 27.10
  Z"
/>
<path fill="#ffffff" d="
  M 30.4419 34.4000
  A 8.04 7.87 -90.2 0 1 38.3400 42.4125
  A 8.04 7.87 -90.2 0 1 30.4981 50.4800
  A 8.04 7.87 -90.2 0 1 22.6000 42.4675
  A 8.04 7.87 -90.2 0 1 30.4419 34.4000
  Z
  M 32.6092 41.9263
  A 1.85 1.85 0.0 0 0 30.7560 40.0795
  L 30.1760 40.0805
  A 1.85 1.85 0.0 0 0 28.3292 41.9337
  L 28.3308 42.8537
  A 1.85 1.85 0.0 0 0 30.1840 44.7005
  L 30.7640 44.6995
  A 1.85 1.85 0.0 0 0 32.6108 42.8463
  L 32.6092 41.9263
  Z"
/>
<path fill="#323443" d="
  M 32.6108 42.8463
  A 1.85 1.85 0.0 0 1 30.7640 44.6995
  L 30.1840 44.7005
  A 1.85 1.85 0.0 0 1 28.3308 42.8537
  L 28.3292 41.9337
  A 1.85 1.85 0.0 0 1 30.1760 40.0805
  L 30.7560 40.0795
  A 1.85 1.85 0.0 0 1 32.6092 41.9263
  L 32.6108 42.8463
  Z
  M 31.23 42.53
  A 0.75 0.75 0.0 0 0 30.48 41.78
  A 0.75 0.75 0.0 0 0 29.73 42.53
  A 0.75 0.75 0.0 0 0 30.48 43.28
  A 0.75 0.75 0.0 0 0 31.23 42.53
  Z"
/>
<circle fill="#6591c7" cx="30.48" cy="42.53" r="0.75"/>
</svg>
