<?xml version="1.0" encoding="UTF-8" standalone="no"?>
<!DOCTYPE svg PUBLIC "-//W3C//DTD SVG 1.1//EN" "http://www.w3.org/Graphics/SVG/1.1/DTD/svg11.dtd">
<svg xmlns="http://www.w3.org/2000/svg" version="1.1" viewBox="0.00 0.00 66.00 88.00">
<g stroke-width="2.00" fill="none" stroke-linecap="butt">
<path stroke="#4b4c5b" vector-effect="non-scaling-stroke" d="
  M 33.43 86.62
  C 33.72 86.62 33.68 86.63 33.82 86.50
  Q 47.29 74.04 56.30 58.80
  Q 62.58 48.15 63.86 38.34
  Q 66.59 17.33 48.64 6.47
  Q 42.02 2.46 33.49 2.46
  Q 24.97 2.45 18.34 6.44
  Q 0.37 17.28 3.07 38.29
  Q 4.33 48.10 10.60 58.76
  Q 19.58 74.02 33.03 86.50
  C 33.18 86.63 33.13 86.62 33.43 86.62"
/>
<path stroke="#4b4c5b" vector-effect="non-scaling-stroke" d="
  M 30.58 38.53
  C 23.73 35.86 23.15 29.28 26.37 23.34
  Q 30.56 15.63 39.05 15.33
  A 1.15 1.15 0.0 0 0 40.16 14.18
  L 40.16 14.14
  A 1.16 1.16 0.0 0 0 39.12 12.98
  C 28.40 11.94 16.80 18.94 16.81 30.56
  C 16.83 35.46 19.78 40.46 24.88 41.36
  Q 28.14 41.94 30.70 40.52
  A 1.10 1.10 0.0 0 0 30.58 38.53"
/>
<path stroke="#4b4c5b" vector-effect="non-scaling-stroke" d="
  M 30.65 34.52
  C 35.17 28.63 41.71 29.92 46.57 34.71
  Q 52.87 40.94 50.77 49.26
  A 1.16 1.16 0.0 0 0 51.58 50.66
  L 51.62 50.68
  A 1.17 1.17 0.0 0 0 53.03 49.99
  C 57.06 39.88 53.52 26.66 42.25 23.41
  C 37.49 22.05 31.81 23.51 29.51 28.21
  Q 28.03 31.20 28.68 34.09
  A 1.11 1.11 0.0 0 0 30.65 34.52"
/>
<path stroke="#4b4c5b" vector-effect="non-scaling-stroke" d="
  M 38.00 38.67
  C 37.46 46.02 31.33 48.52 24.69 47.19
  Q 16.07 45.46 13.27 37.41
  A 1.16 1.15 71.6 0 0 11.84 36.69
  L 11.80 36.70
  A 1.16 1.16 0.0 0 0 11.00 38.04
  C 13.17 48.62 23.31 57.66 34.43 54.21
  C 39.12 52.75 43.04 48.44 42.39 43.29
  Q 41.98 40.00 39.87 37.96
  A 1.11 1.10 -65.7 0 0 38.00 38.67"
/>
<path stroke="#999aa1" vector-effect="non-scaling-stroke" d="
  M 32.06 15.14
  Q 26.28 16.12 23.48 19.33
  Q 20.26 23.03 19.28 25.26
  Q 16.48 31.65 20.12 36.64
  C 22.26 39.57 25.31 40.56 28.84 39.85
  A 0.17 0.17 0.0 0 0 28.89 39.53
  Q 20.30 34.46 24.18 24.63
  Q 26.49 18.77 32.17 15.45
  A 0.17 0.17 0.0 0 0 32.06 15.14"
/>
<path stroke="#999aa1" vector-effect="non-scaling-stroke" d="
  M 30.56 32.42
  C 39.62 22.96 53.04 35.44 52.62 45.27
  A 0.22 0.22 0.0 0 0 52.82 45.50
  L 52.84 45.50
  A 0.16 0.16 0.0 0 0 53.01 45.36
  Q 54.42 35.97 48.80 29.23
  C 45.17 24.88 37.96 22.50 33.01 26.20
  Q 30.27 28.25 29.91 32.13
  A 0.38 0.38 0.0 0 0 30.56 32.42"
/>
<path stroke="#999aa1" vector-effect="non-scaling-stroke" d="
  M 39.21 40.30
  C 36.89 53.11 18.92 50.12 13.88 41.74
  A 0.22 0.22 0.0 0 0 13.58 41.66
  L 13.57 41.67
  A 0.16 0.16 0.0 0 0 13.50 41.88
  Q 17.48 50.44 25.84 52.95
  C 31.23 54.56 38.52 52.58 40.59 46.80
  Q 41.74 43.60 39.91 40.18
  A 0.38 0.37 -54.2 0 0 39.21 40.30"
/>
</g>
<path fill="#333443" d="
  M 33.78 88.00
  L 33.04 88.00
  C 21.68 77.69 12.11 65.66 5.62 51.40
  Q 2.10 43.69 1.57 34.83
  Q 1.03 26.00 5.08 18.32
  C 13.98 1.45 36.81 -4.43 52.84 7.77
  Q 68.16 19.44 64.82 40.09
  Q 63.41 48.82 57.68 58.92
  Q 49.00 74.23 33.78 88.00
  Z
  M 33.43 86.62
  C 33.72 86.62 33.68 86.63 33.82 86.50
  Q 47.29 74.04 56.30 58.80
  Q 62.58 48.15 63.86 38.34
  Q 66.59 17.33 48.64 6.47
  Q 42.02 2.46 33.49 2.46
  Q 24.97 2.45 18.34 6.44
  Q 0.37 17.28 3.07 38.29
  Q 4.33 48.10 10.60 58.76
  Q 19.58 74.02 33.03 86.50
  C 33.18 86.63 33.13 86.62 33.43 86.62
  Z"
/>
<path fill="#636373" d="
  M 33.49 2.46
  Q 42.02 2.46 48.64 6.47
  Q 66.59 17.33 63.86 38.34
  Q 62.58 48.15 56.30 58.80
  Q 47.29 74.04 33.82 86.50
  C 33.68 86.63 33.72 86.62 33.43 86.62
  C 33.13 86.62 33.18 86.63 33.03 86.50
  Q 19.58 74.02 10.60 58.76
  Q 4.33 48.10 3.07 38.29
  Q 0.37 17.28 18.34 6.44
  Q 24.97 2.45 33.49 2.46
  Z
  M 30.58 38.53
  C 23.73 35.86 23.15 29.28 26.37 23.34
  Q 30.56 15.63 39.05 15.33
  A 1.15 1.15 0.0 0 0 40.16 14.18
  L 40.16 14.14
  A 1.16 1.16 0.0 0 0 39.12 12.98
  C 28.40 11.94 16.80 18.94 16.81 30.56
  C 16.83 35.46 19.78 40.46 24.88 41.36
  Q 28.14 41.94 30.70 40.52
  A 1.10 1.10 0.0 0 0 30.58 38.53
  Z
  M 30.65 34.52
  C 35.17 28.63 41.71 29.92 46.57 34.71
  Q 52.87 40.94 50.77 49.26
  A 1.16 1.16 0.0 0 0 51.58 50.66
  L 51.62 50.68
  A 1.17 1.17 0.0 0 0 53.03 49.99
  C 57.06 39.88 53.52 26.66 42.25 23.41
  C 37.49 22.05 31.81 23.51 29.51 28.21
  Q 28.03 31.20 28.68 34.09
  A 1.11 1.11 0.0 0 0 30.65 34.52
  Z
  M 38.00 38.67
  C 37.46 46.02 31.33 48.52 24.69 47.19
  Q 16.07 45.46 13.27 37.41
  A 1.16 1.15 71.6 0 0 11.84 36.69
  L 11.80 36.70
  A 1.16 1.16 0.0 0 0 11.00 38.04
  C 13.17 48.62 23.31 57.66 34.43 54.21
  C 39.12 52.75 43.04 48.44 42.39 43.29
  Q 41.98 40.00 39.87 37.96
  A 1.11 1.10 -65.7 0 0 38.00 38.67
  Z"
/>
<path fill="#333443" d="
  M 30.58 38.53
  A 1.10 1.10 0.0 0 1 30.70 40.52
  Q 28.14 41.94 24.88 41.36
  C 19.78 40.46 16.83 35.46 16.81 30.56
  C 16.80 18.94 28.40 11.94 39.12 12.98
  A 1.16 1.16 0.0 0 1 40.16 14.14
  L 40.16 14.18
  A 1.15 1.15 0.0 0 1 39.05 15.33
  Q 30.56 15.63 26.37 23.34
  C 23.15 29.28 23.73 35.86 30.58 38.53
  Z
  M 32.06 15.14
  Q 26.28 16.12 23.48 19.33
  Q 20.26 23.03 19.28 25.26
  Q 16.48 31.65 20.12 36.64
  C 22.26 39.57 25.31 40.56 28.84 39.85
  A 0.17 0.17 0.0 0 0 28.89 39.53
  Q 20.30 34.46 24.18 24.63
  Q 26.49 18.77 32.17 15.45
  A 0.17 0.17 0.0 0 0 32.06 15.14
  Z"
/>
<path fill="#ffffff" d="
  M 32.17 15.45
  Q 26.49 18.77 24.18 24.63
  Q 20.30 34.46 28.89 39.53
  A 0.17 0.17 0.0 0 1 28.84 39.85
  C 25.31 40.56 22.26 39.57 20.12 36.64
  Q 16.48 31.65 19.28 25.26
  Q 20.26 23.03 23.48 19.33
  Q 26.28 16.12 32.06 15.14
  A 0.17 0.17 0.0 0 1 32.17 15.45
  Z"
/>
<path fill="#333443" d="
  M 30.65 34.52
  A 1.11 1.11 0.0 0 1 28.68 34.09
  Q 28.03 31.20 29.51 28.21
  C 31.81 23.51 37.49 22.05 42.25 23.41
  C 53.52 26.66 57.06 39.88 53.03 49.99
  A 1.17 1.17 0.0 0 1 51.62 50.68
  L 51.58 50.66
  A 1.16 1.16 0.0 0 1 50.77 49.26
  Q 52.87 40.94 46.57 34.71
  C 41.71 29.92 35.17 28.63 30.65 34.52
  Z
  M 30.56 32.42
  C 39.62 22.96 53.04 35.44 52.62 45.27
  A 0.22 0.22 0.0 0 0 52.82 45.50
  L 52.84 45.50
  A 0.16 0.16 0.0 0 0 53.01 45.36
  Q 54.42 35.97 48.80 29.23
  C 45.17 24.88 37.96 22.50 33.01 26.20
  Q 30.27 28.25 29.91 32.13
  A 0.38 0.38 0.0 0 0 30.56 32.42
  Z"
/>
<path fill="#ffffff" d="
  M 30.56 32.42
  A 0.38 0.38 0.0 0 1 29.91 32.13
  Q 30.27 28.25 33.01 26.20
  C 37.96 22.50 45.17 24.88 48.80 29.23
  Q 54.42 35.97 53.01 45.36
  A 0.16 0.16 0.0 0 1 52.84 45.50
  L 52.82 45.50
  A 0.22 0.22 0.0 0 1 52.62 45.27
  C 53.04 35.44 39.62 22.96 30.56 32.42
  Z"
/>
<path fill="#333443" d="
  M 38.00 38.67
  A 1.11 1.10 -65.7 0 1 39.87 37.96
  Q 41.98 40.00 42.39 43.29
  C 43.04 48.44 39.12 52.75 34.43 54.21
  C 23.31 57.66 13.17 48.62 11.00 38.04
  A 1.16 1.16 0.0 0 1 11.80 36.70
  L 11.84 36.69
  A 1.16 1.15 71.6 0 1 13.27 37.41
  Q 16.07 45.46 24.69 47.19
  C 31.33 48.52 37.46 46.02 38.00 38.67
  Z
  M 39.21 40.30
  C 36.89 53.11 18.92 50.12 13.88 41.74
  A 0.22 0.22 0.0 0 0 13.58 41.66
  L 13.57 41.67
  A 0.16 0.16 0.0 0 0 13.50 41.88
  Q 17.48 50.44 25.84 52.95
  C 31.23 54.56 38.52 52.58 40.59 46.80
  Q 41.74 43.60 39.91 40.18
  A 0.38 0.37 -54.2 0 0 39.21 40.30
  Z"
/>
<path fill="#ffffff" d="
  M 39.21 40.30
  A 0.38 0.37 -54.2 0 1 39.91 40.18
  Q 41.74 43.60 40.59 46.80
  C 38.52 52.58 31.23 54.56 25.84 52.95
  Q 17.48 50.44 13.50 41.88
  A 0.16 0.16 0.0 0 1 13.57 41.67
  L 13.58 41.66
  A 0.22 0.22 0.0 0 1 13.88 41.74
  C 18.92 50.12 36.89 53.11 39.21 40.30
  Z"
/>
</svg>
