<?xml version="1.0" encoding="UTF-8" standalone="no"?>
<!DOCTYPE svg PUBLIC "-//W3C//DTD SVG 1.1//EN" "http://www.w3.org/Graphics/SVG/1.1/DTD/svg11.dtd">
<svg xmlns="http://www.w3.org/2000/svg" version="1.1" viewBox="0.00 0.00 66.00 88.00">
<g stroke-width="2.00" fill="none" stroke-linecap="butt">
<path stroke="#496d97" vector-effect="non-scaling-stroke" d="
  M 33.39 86.74
  Q 33.51 86.74 33.64 86.61
  Q 46.66 74.47 55.39 60.39
  C 60.78 51.68 65.20 40.34 64.17 30.35
  Q 62.39 13.08 46.25 5.24
  Q 40.52 2.46 33.53 2.44
  Q 26.53 2.43 20.79 5.20
  Q 4.63 12.99 2.79 30.25
  C 1.73 40.24 6.11 51.59 11.47 60.32
  Q 20.16 74.43 33.13 86.61
  Q 33.27 86.74 33.39 86.74"
/>
<path stroke="#4c6285" vector-effect="non-scaling-stroke" d="
  M 40.17 20.15
  A 2.01 2.00 -77.3 0 1 38.94 18.20
  Q 39.18 13.61 35.67 13.33
  Q 32.43 13.08 21.48 13.15
  C 18.70 13.16 16.04 13.75 16.04 17.26
  Q 16.03 30.59 16.02 42.37
  C 16.02 44.56 16.50 45.95 18.34 46.97
  Q 21.86 48.93 33.74 53.87
  Q 37.11 55.28 38.75 51.52
  Q 46.25 34.37 48.40 29.45
  C 49.49 26.95 50.03 24.81 47.36 23.35
  Q 46.01 22.61 40.17 20.15"
/>
<path stroke="#9999a1" vector-effect="non-scaling-stroke" d="
  M 17.76 41.91
  Q 19.78 37.61 26.76 21.28
  Q 28.05 18.27 29.03 17.35
  A 3.20 3.19 35.2 0 1 32.46 16.76
  L 37.07 18.77
  A 0.47 0.47 0.0 0 0 37.73 18.34
  L 37.73 16.40
  A 1.79 1.78 -89.3 0 0 35.99 14.61
  Q 27.15 14.42 20.07 14.59
  Q 17.31 14.65 17.29 17.21
  Q 17.20 28.74 17.29 41.81
  A 0.25 0.25 0.0 0 0 17.76 41.91"
/>
<path stroke="#9999a1" vector-effect="non-scaling-stroke" d="
  M 47.9241 27.3637
  A 2.23 2.23 0.0 0 0 46.7734 24.4274
  L 32.6614 18.2620
  A 2.23 2.23 0.0 0 0 29.7251 19.4127
  L 19.1159 43.6963
  A 2.23 2.23 0.0 0 0 20.2666 46.6326
  L 34.3786 52.7980
  A 2.23 2.23 0.0 0 0 37.3149 51.6473
  L 47.9241 27.3637"
/>
</g>
<path fill="#2d4966" d="
  M 33.77 88.00
  L 33.03 88.00
  C 21.96 77.94 11.77 65.34 5.58 51.43
  C 1.07 41.29 -0.40 28.73 4.97 18.55
  C 15.97 -2.31 45.56 -4.84 59.44 14.40
  C 77.31 39.16 51.64 71.85 33.77 88.00
  Z
  M 33.39 86.74
  Q 33.51 86.74 33.64 86.61
  Q 46.66 74.47 55.39 60.39
  C 60.78 51.68 65.20 40.34 64.17 30.35
  Q 62.39 13.08 46.25 5.24
  Q 40.52 2.46 33.53 2.44
  Q 26.53 2.43 20.79 5.20
  Q 4.63 12.99 2.79 30.25
  C 1.73 40.24 6.11 51.59 11.47 60.32
  Q 20.16 74.43 33.13 86.61
  Q 33.27 86.74 33.39 86.74
  Z"
/>
<path fill="#6591c7" d="
  M 33.53 2.44
  Q 40.52 2.46 46.25 5.24
  Q 62.39 13.08 64.17 30.35
  C 65.20 40.34 60.78 51.68 55.39 60.39
  Q 46.66 74.47 33.64 86.61
  Q 33.51 86.74 33.39 86.74
  Q 33.27 86.74 33.13 86.61
  Q 20.16 74.43 11.47 60.32
  C 6.11 51.59 1.73 40.24 2.79 30.25
  Q 4.63 12.99 20.79 5.20
  Q 26.53 2.43 33.53 2.44
  Z
  M 40.17 20.15
  A 2.01 2.00 -77.3 0 1 38.94 18.20
  Q 39.18 13.61 35.67 13.33
  Q 32.43 13.08 21.48 13.15
  C 18.70 13.16 16.04 13.75 16.04 17.26
  Q 16.03 30.59 16.02 42.37
  C 16.02 44.56 16.50 45.95 18.34 46.97
  Q 21.86 48.93 33.74 53.87
  Q 37.11 55.28 38.75 51.52
  Q 46.25 34.37 48.40 29.45
  C 49.49 26.95 50.03 24.81 47.36 23.35
  Q 46.01 22.61 40.17 20.15
  Z"
/>
<path fill="#333342" d="
  M 40.17 20.15
  Q 46.01 22.61 47.36 23.35
  C 50.03 24.81 49.49 26.95 48.40 29.45
  Q 46.25 34.37 38.75 51.52
  Q 37.11 55.28 33.74 53.87
  Q 21.86 48.93 18.34 46.97
  C 16.50 45.95 16.02 44.56 16.02 42.37
  Q 16.03 30.59 16.04 17.26
  C 16.04 13.75 18.70 13.16 21.48 13.15
  Q 32.43 13.08 35.67 13.33
  Q 39.18 13.61 38.94 18.20
  A 2.01 2.00 -77.3 0 0 40.17 20.15
  Z
  M 17.76 41.91
  Q 19.78 37.61 26.76 21.28
  Q 28.05 18.27 29.03 17.35
  A 3.20 3.19 35.2 0 1 32.46 16.76
  L 37.07 18.77
  A 0.47 0.47 0.0 0 0 37.73 18.34
  L 37.73 16.40
  A 1.79 1.78 -89.3 0 0 35.99 14.61
  Q 27.15 14.42 20.07 14.59
  Q 17.31 14.65 17.29 17.21
  Q 17.20 28.74 17.29 41.81
  A 0.25 0.25 0.0 0 0 17.76 41.91
  Z
  M 47.9241 27.3637
  A 2.23 2.23 0.0 0 0 46.7734 24.4274
  L 32.6614 18.2620
  A 2.23 2.23 0.0 0 0 29.7251 19.4127
  L 19.1159 43.6963
  A 2.23 2.23 0.0 0 0 20.2666 46.6326
  L 34.3786 52.7980
  A 2.23 2.23 0.0 0 0 37.3149 51.6473
  L 47.9241 27.3637
  Z"
/>
<path fill="#ffffff" d="
  M 17.29 41.81
  Q 17.20 28.74 17.29 17.21
  Q 17.31 14.65 20.07 14.59
  Q 27.15 14.42 35.99 14.61
  A 1.79 1.78 -89.3 0 1 37.73 16.40
  L 37.73 18.34
  A 0.47 0.47 0.0 0 1 37.07 18.77
  L 32.46 16.76
  A 3.20 3.19 35.2 0 0 29.03 17.35
  Q 28.05 18.27 26.76 21.28
  Q 19.78 37.61 17.76 41.91
  A 0.25 0.25 0.0 0 1 17.29 41.81
  Z"
/>
<rect fill="#ffffff" x="-9.93" y="-15.48" transform="translate(33.52,35.53) rotate(23.6)" width="19.86" height="30.96" rx="2.23"/>
</svg>
