<?xml version="1.0" encoding="UTF-8" standalone="no"?>
<!DOCTYPE svg PUBLIC "-//W3C//DTD SVG 1.1//EN" "http://www.w3.org/Graphics/SVG/1.1/DTD/svg11.dtd">
<svg xmlns="http://www.w3.org/2000/svg" version="1.1" viewBox="0.00 0.00 66.00 88.00">
<g stroke-width="2.00" fill="none" stroke-linecap="butt">
<path stroke="#947705" vector-effect="non-scaling-stroke" d="
  M 33.40 86.74
  Q 33.57 86.74 33.68 86.64
  C 47.37 73.83 61.65 55.76 64.04 37.31
  C 66.43 18.81 52.40 2.48 33.53 2.45
  C 14.66 2.42 0.59 18.70 2.92 37.21
  C 5.25 55.67 19.48 73.79 33.12 86.64
  Q 33.23 86.74 33.40 86.74"
/>
<path stroke="#7c6925" vector-effect="non-scaling-stroke" d="
  M 48.29 30.73
  A 0.48 0.48 0.0 0 0 48.05 30.31
  L 36.74 23.78
  A 0.48 0.48 0.0 0 1 36.51 23.48
  L 34.22 13.95
  A 0.48 0.48 0.0 0 0 33.47 13.68
  L 16.84 25.63
  A 0.48 0.48 0.0 0 0 16.66 26.18
  L 20.00 36.16
  A 0.48 0.48 0.0 0 1 20.02 36.31
  L 20.02 47.36
  A 0.48 0.48 0.0 0 0 20.24 47.76
  L 31.10 54.85
  A 0.48 0.48 0.0 0 0 31.66 54.82
  L 48.11 41.75
  A 0.48 0.48 0.0 0 0 48.29 41.38
  L 48.29 30.73"
/>
<path stroke="#9999a1" vector-effect="non-scaling-stroke" d="
  M 35.42 24.76
  A 0.48 0.48 0.0 0 1 35.19 24.46
  L 33.38 16.92
  A 0.48 0.48 0.0 0 0 32.63 16.65
  L 19.12 26.36
  A 0.48 0.48 0.0 0 0 18.94 26.91
  L 21.96 35.92
  A 0.48 0.48 0.0 0 1 21.98 36.07
  L 21.98 46.58
  A 0.48 0.48 0.0 0 0 22.22 47.00
  L 31.54 52.39
  A 0.48 0.48 0.0 0 0 32.08 52.35
  L 46.42 40.94
  A 0.48 0.48 0.0 0 0 46.60 40.57
  L 46.60 31.50
  A 0.48 0.48 0.0 0 0 46.36 31.08
  L 35.42 24.76"
/>
<path stroke="#9999a1" vector-effect="non-scaling-stroke" d="
  M 32.12 40.88
  A 0.35 0.35 0.0 0 0 32.52 40.85
  L 43.90 31.80
  A 0.35 0.35 0.0 0 0 43.84 31.22
  L 34.78 26.74
  A 0.35 0.35 0.0 0 0 34.41 26.78
  L 23.57 35.39
  A 0.35 0.35 0.0 0 0 23.62 35.97
  L 32.12 40.88"
/>
<path stroke="#7c6925" vector-effect="non-scaling-stroke" d="
  M 32.21 38.59
  A 0.31 0.31 0.0 0 0 32.54 38.57
  L 41.01 32.48
  A 0.31 0.31 0.0 0 0 40.98 31.96
  L 34.98 28.50
  A 0.31 0.31 0.0 0 0 34.63 28.52
  L 26.64 34.89
  A 0.31 0.31 0.0 0 0 26.67 35.40
  L 32.21 38.59"
/>
</g>
<path fill="#634f04" d="
  M 33.79 88.00
  L 33.03 88.00
  C 21.72 77.71 12.19 65.74 5.68 51.55
  Q 2.13 43.83 1.57 34.90
  C 0.29 14.38 18.32 -1.38 38.76 1.77
  C 51.52 3.74 61.70 13.37 64.68 25.77
  C 67.41 37.09 63.12 49.88 56.78 60.26
  Q 47.34 75.72 33.79 88.00
  Z
  M 33.40 86.74
  Q 33.57 86.74 33.68 86.64
  C 47.37 73.83 61.65 55.76 64.04 37.31
  C 66.43 18.81 52.40 2.48 33.53 2.45
  C 14.66 2.42 0.59 18.70 2.92 37.21
  C 5.25 55.67 19.48 73.79 33.12 86.64
  Q 33.23 86.74 33.40 86.74
  Z"
/>
<path fill="#c49e06" d="
  M 33.53 2.45
  C 52.40 2.48 66.43 18.81 64.04 37.31
  C 61.65 55.76 47.37 73.83 33.68 86.64
  Q 33.57 86.74 33.40 86.74
  Q 33.23 86.74 33.12 86.64
  C 19.48 73.79 5.25 55.67 2.92 37.21
  C 0.59 18.70 14.66 2.42 33.53 2.45
  Z
  M 48.29 30.73
  A 0.48 0.48 0.0 0 0 48.05 30.31
  L 36.74 23.78
  A 0.48 0.48 0.0 0 1 36.51 23.48
  L 34.22 13.95
  A 0.48 0.48 0.0 0 0 33.47 13.68
  L 16.84 25.63
  A 0.48 0.48 0.0 0 0 16.66 26.18
  L 20.00 36.16
  A 0.48 0.48 0.0 0 1 20.02 36.31
  L 20.02 47.36
  A 0.48 0.48 0.0 0 0 20.24 47.76
  L 31.10 54.85
  A 0.48 0.48 0.0 0 0 31.66 54.82
  L 48.11 41.75
  A 0.48 0.48 0.0 0 0 48.29 41.38
  L 48.29 30.73
  Z"
/>
<path fill="#333343" d="
  M 48.29 30.73
  L 48.29 41.38
  A 0.48 0.48 0.0 0 1 48.11 41.75
  L 31.66 54.82
  A 0.48 0.48 0.0 0 1 31.10 54.85
  L 20.24 47.76
  A 0.48 0.48 0.0 0 1 20.02 47.36
  L 20.02 36.31
  A 0.48 0.48 0.0 0 0 20.00 36.16
  L 16.66 26.18
  A 0.48 0.48 0.0 0 1 16.84 25.63
  L 33.47 13.68
  A 0.48 0.48 0.0 0 1 34.22 13.95
  L 36.51 23.48
  A 0.48 0.48 0.0 0 0 36.74 23.78
  L 48.05 30.31
  A 0.48 0.48 0.0 0 1 48.29 30.73
  Z
  M 35.42 24.76
  A 0.48 0.48 0.0 0 1 35.19 24.46
  L 33.38 16.92
  A 0.48 0.48 0.0 0 0 32.63 16.65
  L 19.12 26.36
  A 0.48 0.48 0.0 0 0 18.94 26.91
  L 21.96 35.92
  A 0.48 0.48 0.0 0 1 21.98 36.07
  L 21.98 46.58
  A 0.48 0.48 0.0 0 0 22.22 47.00
  L 31.54 52.39
  A 0.48 0.48 0.0 0 0 32.08 52.35
  L 46.42 40.94
  A 0.48 0.48 0.0 0 0 46.60 40.57
  L 46.60 31.50
  A 0.48 0.48 0.0 0 0 46.36 31.08
  L 35.42 24.76
  Z"
/>
<path fill="#ffffff" d="
  M 35.42 24.76
  L 46.36 31.08
  A 0.48 0.48 0.0 0 1 46.60 31.50
  L 46.60 40.57
  A 0.48 0.48 0.0 0 1 46.42 40.94
  L 32.08 52.35
  A 0.48 0.48 0.0 0 1 31.54 52.39
  L 22.22 47.00
  A 0.48 0.48 0.0 0 1 21.98 46.58
  L 21.98 36.07
  A 0.48 0.48 0.0 0 0 21.96 35.92
  L 18.94 26.91
  A 0.48 0.48 0.0 0 1 19.12 26.36
  L 32.63 16.65
  A 0.48 0.48 0.0 0 1 33.38 16.92
  L 35.19 24.46
  A 0.48 0.48 0.0 0 0 35.42 24.76
  Z
  M 32.12 40.88
  A 0.35 0.35 0.0 0 0 32.52 40.85
  L 43.90 31.80
  A 0.35 0.35 0.0 0 0 43.84 31.22
  L 34.78 26.74
  A 0.35 0.35 0.0 0 0 34.41 26.78
  L 23.57 35.39
  A 0.35 0.35 0.0 0 0 23.62 35.97
  L 32.12 40.88
  Z"
/>
<path fill="#333343" d="
  M 32.12 40.88
  L 23.62 35.97
  A 0.35 0.35 0.0 0 1 23.57 35.39
  L 34.41 26.78
  A 0.35 0.35 0.0 0 1 34.78 26.74
  L 43.84 31.22
  A 0.35 0.35 0.0 0 1 43.90 31.80
  L 32.52 40.85
  A 0.35 0.35 0.0 0 1 32.12 40.88
  Z
  M 32.21 38.59
  A 0.31 0.31 0.0 0 0 32.54 38.57
  L 41.01 32.48
  A 0.31 0.31 0.0 0 0 40.98 31.96
  L 34.98 28.50
  A 0.31 0.31 0.0 0 0 34.63 28.52
  L 26.64 34.89
  A 0.31 0.31 0.0 0 0 26.67 35.40
  L 32.21 38.59
  Z"
/>
<path fill="#c49e06" d="
  M 32.21 38.59
  L 26.67 35.40
  A 0.31 0.31 0.0 0 1 26.64 34.89
  L 34.63 28.52
  A 0.31 0.31 0.0 0 1 34.98 28.50
  L 40.98 31.96
  A 0.31 0.31 0.0 0 1 41.01 32.48
  L 32.54 38.57
  A 0.31 0.31 0.0 0 1 32.21 38.59
  Z"
/>
</svg>
