<?xml version="1.0" encoding="UTF-8" standalone="no"?>
<!DOCTYPE svg PUBLIC "-//W3C//DTD SVG 1.1//EN" "http://www.w3.org/Graphics/SVG/1.1/DTD/svg11.dtd">
<svg xmlns="http://www.w3.org/2000/svg" version="1.1" viewBox="0.00 0.00 66.00 88.00">
<g stroke-width="2.00" fill="none" stroke-linecap="butt">
<path stroke="#4b4b5a" vector-effect="non-scaling-stroke" d="
  M 33.42 86.62
  C 33.84 86.62 33.64 86.65 33.82 86.49
  Q 48.35 73.15 57.56 56.51
  Q 62.81 47.01 63.87 38.24
  Q 64.76 30.84 63.66 26.51
  Q 59.40 9.83 43.38 4.14
  Q 38.68 2.46 33.50 2.46
  Q 28.33 2.45 23.62 4.12
  Q 7.59 9.78 3.30 26.45
  Q 2.19 30.78 3.07 38.18
  Q 4.11 46.96 9.34 56.47
  Q 18.52 73.12 33.03 86.49
  C 33.21 86.65 33.00 86.62 33.42 86.62"
/>
<path stroke="#4b4b5a" vector-effect="non-scaling-stroke" d="
  M 31.43 30.64
  Q 30.28 28.69 27.83 28.79
  A 0.55 0.55 0.0 0 1 27.25 28.21
  Q 27.40 24.14 23.58 23.34
  Q 22.88 23.20 20.34 23.93
  A 1.22 1.19 49.1 0 1 19.48 23.86
  L 15.80 22.08
  A 1.57 1.57 0.0 0 0 13.77 22.71
  L 13.54 23.11
  A 1.53 1.53 0.0 0 0 14.32 25.31
  Q 17.01 26.33 18.09 27.75
  A 2.05 1.99 24.5 0 1 18.46 28.70
  Q 18.92 32.80 21.83 34.70
  A 0.76 0.75 -62.2 0 1 22.11 35.62
  Q 20.66 39.09 24.36 40.86
  A 0.81 0.80 -73.6 0 1 24.80 41.68
  Q 24.44 44.66 27.30 45.67
  A 0.82 0.82 0.0 0 1 27.84 46.51
  Q 27.62 49.34 30.33 50.60
  A 0.98 0.98 0.0 0 1 30.89 51.40
  C 31.33 56.98 38.20 56.33 38.04 51.49
  Q 38.02 50.68 39.27 50.26
  A 1.70 1.62 -77.3 0 0 39.99 49.78
  C 42.13 47.42 41.38 45.20 38.83 43.71
  Q 38.10 43.29 38.07 41.81
  A 0.21 0.20 -73.3 0 1 38.39 41.63
  L 40.82 43.34
  A 0.67 0.66 46.4 0 0 41.55 43.36
  Q 44.52 41.52 44.96 38.35
  A 1.28 1.26 -15.0 0 1 45.45 37.51
  L 48.00 35.55
  A 2.16 2.07 85.3 0 0 48.61 34.80
  Q 50.30 31.27 49.89 27.25
  A 1.19 1.18 -25.7 0 1 50.24 26.26
  Q 54.43 22.14 51.93 16.79
  Q 51.58 16.03 50.84 16.32
  Q 50.19 16.58 50.05 17.11
  Q 49.44 19.44 48.74 21.59
  A 0.32 0.32 0.0 0 1 48.32 21.79
  L 48.30 21.79
  A 0.41 0.40 -69.7 0 1 48.07 21.28
  Q 49.47 17.30 47.19 13.52
  A 1.40 1.40 0.0 0 0 45.75 12.88
  L 45.36 12.95
  A 0.86 0.86 0.0 0 0 44.70 14.08
  Q 45.69 16.91 43.45 19.69
  Q 41.46 22.18 41.45 22.19
  A 0.63 0.62 53.4 0 1 40.59 22.06
  L 37.62 18.19
  A 1.80 1.74 28.4 0 1 37.25 17.03
  L 37.38 14.04
  A 1.17 1.17 0.0 0 0 35.27 13.29
  Q 32.87 16.51 34.07 21.09
  A 0.26 0.26 0.0 0 1 33.91 21.40
  L 33.86 21.41
  A 0.28 0.28 0.0 0 1 33.50 21.23
  Q 33.00 19.80 32.28 17.64
  A 1.22 1.18 65.6 0 0 30.54 16.95
  Q 29.99 17.28 29.77 18.02
  Q 28.27 23.04 32.03 26.24
  A 1.15 1.13 25.9 0 1 32.41 27.31
  L 31.82 30.57
  A 0.21 0.21 0.0 0 1 31.43 30.64"
/>
<path stroke="#9999a0" vector-effect="non-scaling-stroke" d="
  M 48.43 29.67
  Q 48.52 30.72 47.93 32.04
  A 1.14 1.13 -82.4 0 1 47.09 32.69
  L 42.52 33.47
  A 0.72 0.72 0.0 0 1 41.84 32.30
  Q 44.51 29.06 48.68 28.94
  A 0.13 0.13 0.0 0 0 48.80 28.77
  Q 48.05 26.26 48.43 26.01
  Q 52.56 23.25 51.46 18.92
  A 0.33 0.33 0.0 0 0 50.82 18.97
  Q 50.44 23.20 46.39 24.34
  A 0.39 0.39 0.0 0 1 45.92 23.84
  Q 47.16 20.13 47.22 19.35
  Q 47.51 16.14 46.68 14.83
  A 0.29 0.29 0.0 0 0 46.15 14.97
  L 46.08 17.15
  A 2.92 2.91 63.7 0 1 45.55 18.73
  L 41.49 24.50
  A 0.48 0.47 -45.6 0 1 40.72 24.51
  C 37.72 20.44 36.33 19.02 35.84 15.23
  A 0.30 0.27 4.8 0 0 35.62 14.99
  Q 35.41 14.94 35.11 15.38
  A 0.35 0.32 68.6 0 0 35.05 15.54
  Q 34.44 19.60 36.31 23.74
  A 0.40 0.40 0.0 0 1 35.86 24.30
  Q 31.78 23.37 31.49 18.95
  A 0.29 0.29 0.0 0 0 30.96 18.80
  C 29.21 21.21 31.29 23.82 33.49 25.96
  A 0.88 0.87 35.2 0 1 33.67 26.96
  Q 33.32 27.70 33.36 28.13
  A 0.78 0.78 0.0 0 0 34.00 28.82
  Q 36.96 29.31 40.12 32.26
  A 0.70 0.70 0.0 0 1 39.52 33.47
  L 34.18 32.50
  A 0.29 0.28 87.3 0 0 33.86 32.86
  C 34.33 34.48 36.49 35.95 37.25 36.27
  A 1.33 1.32 -86.3 0 1 38.02 37.15
  L 38.82 40.04
  A 2.37 2.36 -22.8 0 0 42.28 41.45
  Q 42.31 41.44 42.99 40.36
  C 44.20 38.46 43.51 37.02 45.83 35.60
  Q 47.57 34.54 48.06 33.46
  Q 49.28 30.82 48.76 29.59
  A 0.17 0.17 0.0 0 0 48.43 29.67"
/>
<path stroke="#9999a0" vector-effect="non-scaling-stroke" d="
  M 21.82 29.68
  Q 25.15 30.75 26.21 28.03
  A 1.53 1.50 -44.4 0 0 26.23 26.99
  Q 25.09 23.71 21.34 24.62
  Q 20.99 24.70 20.74 25.04
  Q 20.49 25.35 20.26 25.53
  A 0.71 0.71 0.0 0 1 19.30 25.42
  Q 17.73 23.58 14.87 23.00
  A 0.40 0.40 0.0 0 0 14.45 23.20
  L 14.29 23.46
  A 0.58 0.58 0.0 0 0 14.62 24.30
  Q 17.04 25.07 18.92 27.04
  A 1.60 1.58 -73.8 0 1 19.30 27.74
  C 20.02 30.91 20.61 34.41 24.25 33.94
  A 0.54 0.53 1.4 0 0 24.71 33.51
  L 24.77 33.17
  A 0.65 0.65 0.0 0 0 23.98 32.42
  Q 22.04 32.87 21.40 30.06
  A 0.33 0.32 2.6 0 1 21.82 29.68"
/>
<path stroke="#9999a0" vector-effect="non-scaling-stroke" d="
  M 34.15 31.67
  L 33.82 29.73
  A 0.39 0.39 0.0 0 0 33.08 29.63
  Q 32.74 30.34 33.84 31.80
  A 0.17 0.17 0.0 0 0 34.15 31.67"
/>
<path stroke="#9999a0" vector-effect="non-scaling-stroke" d="
  M 30.76 32.42
  A 2.42 2.42 0.0 0 0 28.34 30.00
  A 2.42 2.42 0.0 0 0 25.92 32.42
  A 2.42 2.42 0.0 0 0 28.34 34.84
  A 2.42 2.42 0.0 0 0 30.76 32.42"
/>
<path stroke="#4b4b5a" vector-effect="non-scaling-stroke" d="
  M 32.55 33.65
  Q 32.70 33.51 32.75 33.15
  A 0.18 0.18 0.0 0 0 32.49 32.97
  Q 32.16 33.15 32.13 33.36
  A 0.29 0.25 75.8 0 0 32.55 33.65"
/>
<path stroke="#9999a0" vector-effect="non-scaling-stroke" d="
  M 27.70 37.36
  A 2.41 2.41 0.0 0 0 25.29 34.95
  A 2.41 2.41 0.0 0 0 22.88 37.36
  A 2.41 2.41 0.0 0 0 25.29 39.77
  A 2.41 2.41 0.0 0 0 27.70 37.36"
/>
<path stroke="#9999a0" vector-effect="non-scaling-stroke" d="
  M 33.86 37.36
  A 2.41 2.41 0.0 0 0 31.45 34.95
  A 2.41 2.41 0.0 0 0 29.04 37.36
  A 2.41 2.41 0.0 0 0 31.45 39.77
  A 2.41 2.41 0.0 0 0 33.86 37.36"
/>
<path stroke="#4b4b5a" vector-effect="non-scaling-stroke" d="
  M 35.21 36.84
  Q 35.03 38.74 36.58 39.10
  A 0.43 0.43 0.0 0 0 37.09 38.57
  Q 36.81 37.51 35.74 36.62
  A 0.33 0.32 22.1 0 0 35.21 36.84"
/>
<path stroke="#9999a0" vector-effect="non-scaling-stroke" d="
  M 30.75 42.27
  A 2.40 2.40 0.0 0 0 28.35 39.87
  A 2.40 2.40 0.0 0 0 25.95 42.27
  A 2.40 2.40 0.0 0 0 28.35 44.67
  A 2.40 2.40 0.0 0 0 30.75 42.27"
/>
<path stroke="#9999a0" vector-effect="non-scaling-stroke" d="
  M 36.88 42.27
  A 2.39 2.39 0.0 0 0 34.49 39.88
  A 2.39 2.39 0.0 0 0 32.10 42.27
  A 2.39 2.39 0.0 0 0 34.49 44.66
  A 2.39 2.39 0.0 0 0 36.88 42.27"
/>
<path stroke="#9999a0" vector-effect="non-scaling-stroke" d="
  M 33.81 47.10
  A 2.39 2.39 0.0 0 0 31.42 44.71
  A 2.39 2.39 0.0 0 0 29.03 47.10
  A 2.39 2.39 0.0 0 0 31.42 49.49
  A 2.39 2.39 0.0 0 0 33.81 47.10"
/>
<path stroke="#9999a0" vector-effect="non-scaling-stroke" d="
  M 40.01 47.11
  A 2.40 2.40 0.0 0 0 37.61 44.71
  A 2.40 2.40 0.0 0 0 35.21 47.11
  A 2.40 2.40 0.0 0 0 37.61 49.51
  A 2.40 2.40 0.0 0 0 40.01 47.11"
/>
<path stroke="#9999a0" vector-effect="non-scaling-stroke" d="
  M 36.89 51.75
  A 2.40 2.40 0.0 0 0 34.49 49.35
  A 2.40 2.40 0.0 0 0 32.09 51.75
  A 2.40 2.40 0.0 0 0 34.49 54.15
  A 2.40 2.40 0.0 0 0 36.89 51.75"
/>
<path stroke="#9999a0" vector-effect="non-scaling-stroke" d="
  M 21.4078 26.6506
  A 1.70 1.22 -161.5 0 0 22.6329 28.3470
  A 1.70 1.22 -161.5 0 0 24.6322 27.7294
  A 1.70 1.22 -161.5 0 0 23.4071 26.0330
  A 1.70 1.22 -161.5 0 0 21.4078 26.6506"
/>
</g>
<path fill="#323341" d="
  M 33.79 88.00
  L 33.03 88.00
  C 16.80 73.24 -6.21 44.38 3.96 20.67
  C 12.44 0.91 37.23 -4.65 53.83 8.50
  Q 62.04 15.00 64.87 26.50
  Q 66.23 32.00 64.74 40.36
  C 61.58 58.14 47.06 75.96 33.79 88.00
  Z
  M 33.42 86.62
  C 33.84 86.62 33.64 86.65 33.82 86.49
  Q 48.35 73.15 57.56 56.51
  Q 62.81 47.01 63.87 38.24
  Q 64.76 30.84 63.66 26.51
  Q 59.40 9.83 43.38 4.14
  Q 38.68 2.46 33.50 2.46
  Q 28.33 2.45 23.62 4.12
  Q 7.59 9.78 3.30 26.45
  Q 2.19 30.78 3.07 38.18
  Q 4.11 46.96 9.34 56.47
  Q 18.52 73.12 33.03 86.49
  C 33.21 86.65 33.00 86.62 33.42 86.62
  Z"
/>
<path fill="#636373" d="
  M 33.50 2.46
  Q 38.68 2.46 43.38 4.14
  Q 59.40 9.83 63.66 26.51
  Q 64.76 30.84 63.87 38.24
  Q 62.81 47.01 57.56 56.51
  Q 48.35 73.15 33.82 86.49
  C 33.64 86.65 33.84 86.62 33.42 86.62
  C 33.00 86.62 33.21 86.65 33.03 86.49
  Q 18.52 73.12 9.34 56.47
  Q 4.11 46.96 3.07 38.18
  Q 2.19 30.78 3.30 26.45
  Q 7.59 9.78 23.62 4.12
  Q 28.33 2.45 33.50 2.46
  Z
  M 31.43 30.64
  Q 30.28 28.69 27.83 28.79
  A 0.55 0.55 0.0 0 1 27.25 28.21
  Q 27.40 24.14 23.58 23.34
  Q 22.88 23.20 20.34 23.93
  A 1.22 1.19 49.1 0 1 19.48 23.86
  L 15.80 22.08
  A 1.57 1.57 0.0 0 0 13.77 22.71
  L 13.54 23.11
  A 1.53 1.53 0.0 0 0 14.32 25.31
  Q 17.01 26.33 18.09 27.75
  A 2.05 1.99 24.5 0 1 18.46 28.70
  Q 18.92 32.80 21.83 34.70
  A 0.76 0.75 -62.2 0 1 22.11 35.62
  Q 20.66 39.09 24.36 40.86
  A 0.81 0.80 -73.6 0 1 24.80 41.68
  Q 24.44 44.66 27.30 45.67
  A 0.82 0.82 0.0 0 1 27.84 46.51
  Q 27.62 49.34 30.33 50.60
  A 0.98 0.98 0.0 0 1 30.89 51.40
  C 31.33 56.98 38.20 56.33 38.04 51.49
  Q 38.02 50.68 39.27 50.26
  A 1.70 1.62 -77.3 0 0 39.99 49.78
  C 42.13 47.42 41.38 45.20 38.83 43.71
  Q 38.10 43.29 38.07 41.81
  A 0.21 0.20 -73.3 0 1 38.39 41.63
  L 40.82 43.34
  A 0.67 0.66 46.4 0 0 41.55 43.36
  Q 44.52 41.52 44.96 38.35
  A 1.28 1.26 -15.0 0 1 45.45 37.51
  L 48.00 35.55
  A 2.16 2.07 85.3 0 0 48.61 34.80
  Q 50.30 31.27 49.89 27.25
  A 1.19 1.18 -25.7 0 1 50.24 26.26
  Q 54.43 22.14 51.93 16.79
  Q 51.58 16.03 50.84 16.32
  Q 50.19 16.58 50.05 17.11
  Q 49.44 19.44 48.74 21.59
  A 0.32 0.32 0.0 0 1 48.32 21.79
  L 48.30 21.79
  A 0.41 0.40 -69.7 0 1 48.07 21.28
  Q 49.47 17.30 47.19 13.52
  A 1.40 1.40 0.0 0 0 45.75 12.88
  L 45.36 12.95
  A 0.86 0.86 0.0 0 0 44.70 14.08
  Q 45.69 16.91 43.45 19.69
  Q 41.46 22.18 41.45 22.19
  A 0.63 0.62 53.4 0 1 40.59 22.06
  L 37.62 18.19
  A 1.80 1.74 28.4 0 1 37.25 17.03
  L 37.38 14.04
  A 1.17 1.17 0.0 0 0 35.27 13.29
  Q 32.87 16.51 34.07 21.09
  A 0.26 0.26 0.0 0 1 33.91 21.40
  L 33.86 21.41
  A 0.28 0.28 0.0 0 1 33.50 21.23
  Q 33.00 19.80 32.28 17.64
  A 1.22 1.18 65.6 0 0 30.54 16.95
  Q 29.99 17.28 29.77 18.02
  Q 28.27 23.04 32.03 26.24
  A 1.15 1.13 25.9 0 1 32.41 27.31
  L 31.82 30.57
  A 0.21 0.21 0.0 0 1 31.43 30.64
  Z"
/>
<path fill="#323341" d="
  M 31.43 30.64
  A 0.21 0.21 0.0 0 0 31.82 30.57
  L 32.41 27.31
  A 1.15 1.13 25.9 0 0 32.03 26.24
  Q 28.27 23.04 29.77 18.02
  Q 29.99 17.28 30.54 16.95
  A 1.22 1.18 65.6 0 1 32.28 17.64
  Q 33.00 19.80 33.50 21.23
  A 0.28 0.28 0.0 0 0 33.86 21.41
  L 33.91 21.40
  A 0.26 0.26 0.0 0 0 34.07 21.09
  Q 32.87 16.51 35.27 13.29
  A 1.17 1.17 0.0 0 1 37.38 14.04
  L 37.25 17.03
  A 1.80 1.74 28.4 0 0 37.62 18.19
  L 40.59 22.06
  A 0.63 0.62 53.4 0 0 41.45 22.19
  Q 41.46 22.18 43.45 19.69
  Q 45.69 16.91 44.70 14.08
  A 0.86 0.86 0.0 0 1 45.36 12.95
  L 45.75 12.88
  A 1.40 1.40 0.0 0 1 47.19 13.52
  Q 49.47 17.30 48.07 21.28
  A 0.41 0.40 -69.7 0 0 48.30 21.79
  L 48.32 21.79
  A 0.32 0.32 0.0 0 0 48.74 21.59
  Q 49.44 19.44 50.05 17.11
  Q 50.19 16.58 50.84 16.32
  Q 51.58 16.03 51.93 16.79
  Q 54.43 22.14 50.24 26.26
  A 1.19 1.18 -25.7 0 0 49.89 27.25
  Q 50.30 31.27 48.61 34.80
  A 2.16 2.07 85.3 0 1 48.00 35.55
  L 45.45 37.51
  A 1.28 1.26 -15.0 0 0 44.96 38.35
  Q 44.52 41.52 41.55 43.36
  A 0.67 0.66 46.4 0 1 40.82 43.34
  L 38.39 41.63
  A 0.21 0.20 -73.3 0 0 38.07 41.81
  Q 38.10 43.29 38.83 43.71
  C 41.38 45.20 42.13 47.42 39.99 49.78
  A 1.70 1.62 -77.3 0 1 39.27 50.26
  Q 38.02 50.68 38.04 51.49
  C 38.20 56.33 31.33 56.98 30.89 51.40
  A 0.98 0.98 0.0 0 0 30.33 50.60
  Q 27.62 49.34 27.84 46.51
  A 0.82 0.82 0.0 0 0 27.30 45.67
  Q 24.44 44.66 24.80 41.68
  A 0.81 0.80 -73.6 0 0 24.36 40.86
  Q 20.66 39.09 22.11 35.62
  A 0.76 0.75 -62.2 0 0 21.83 34.70
  Q 18.92 32.80 18.46 28.70
  A 2.05 1.99 24.5 0 0 18.09 27.75
  Q 17.01 26.33 14.32 25.31
  A 1.53 1.53 0.0 0 1 13.54 23.11
  L 13.77 22.71
  A 1.57 1.57 0.0 0 1 15.80 22.08
  L 19.48 23.86
  A 1.22 1.19 49.1 0 0 20.34 23.93
  Q 22.88 23.20 23.58 23.34
  Q 27.40 24.14 27.25 28.21
  A 0.55 0.55 0.0 0 0 27.83 28.79
  Q 30.28 28.69 31.43 30.64
  Z
  M 48.43 29.67
  Q 48.52 30.72 47.93 32.04
  A 1.14 1.13 -82.4 0 1 47.09 32.69
  L 42.52 33.47
  A 0.72 0.72 0.0 0 1 41.84 32.30
  Q 44.51 29.06 48.68 28.94
  A 0.13 0.13 0.0 0 0 48.80 28.77
  Q 48.05 26.26 48.43 26.01
  Q 52.56 23.25 51.46 18.92
  A 0.33 0.33 0.0 0 0 50.82 18.97
  Q 50.44 23.20 46.39 24.34
  A 0.39 0.39 0.0 0 1 45.92 23.84
  Q 47.16 20.13 47.22 19.35
  Q 47.51 16.14 46.68 14.83
  A 0.29 0.29 0.0 0 0 46.15 14.97
  L 46.08 17.15
  A 2.92 2.91 63.7 0 1 45.55 18.73
  L 41.49 24.50
  A 0.48 0.47 -45.6 0 1 40.72 24.51
  C 37.72 20.44 36.33 19.02 35.84 15.23
  A 0.30 0.27 4.8 0 0 35.62 14.99
  Q 35.41 14.94 35.11 15.38
  A 0.35 0.32 68.6 0 0 35.05 15.54
  Q 34.44 19.60 36.31 23.74
  A 0.40 0.40 0.0 0 1 35.86 24.30
  Q 31.78 23.37 31.49 18.95
  A 0.29 0.29 0.0 0 0 30.96 18.80
  C 29.21 21.21 31.29 23.82 33.49 25.96
  A 0.88 0.87 35.2 0 1 33.67 26.96
  Q 33.32 27.70 33.36 28.13
  A 0.78 0.78 0.0 0 0 34.00 28.82
  Q 36.96 29.31 40.12 32.26
  A 0.70 0.70 0.0 0 1 39.52 33.47
  L 34.18 32.50
  A 0.29 0.28 87.3 0 0 33.86 32.86
  C 34.33 34.48 36.49 35.95 37.25 36.27
  A 1.33 1.32 -86.3 0 1 38.02 37.15
  L 38.82 40.04
  A 2.37 2.36 -22.8 0 0 42.28 41.45
  Q 42.31 41.44 42.99 40.36
  C 44.20 38.46 43.51 37.02 45.83 35.60
  Q 47.57 34.54 48.06 33.46
  Q 49.28 30.82 48.76 29.59
  A 0.17 0.17 0.0 0 0 48.43 29.67
  Z
  M 21.82 29.68
  Q 25.15 30.75 26.21 28.03
  A 1.53 1.50 -44.4 0 0 26.23 26.99
  Q 25.09 23.71 21.34 24.62
  Q 20.99 24.70 20.74 25.04
  Q 20.49 25.35 20.26 25.53
  A 0.71 0.71 0.0 0 1 19.30 25.42
  Q 17.73 23.58 14.87 23.00
  A 0.40 0.40 0.0 0 0 14.45 23.20
  L 14.29 23.46
  A 0.58 0.58 0.0 0 0 14.62 24.30
  Q 17.04 25.07 18.92 27.04
  A 1.60 1.58 -73.8 0 1 19.30 27.74
  C 20.02 30.91 20.61 34.41 24.25 33.94
  A 0.54 0.53 1.4 0 0 24.71 33.51
  L 24.77 33.17
  A 0.65 0.65 0.0 0 0 23.98 32.42
  Q 22.04 32.87 21.40 30.06
  A 0.33 0.32 2.6 0 1 21.82 29.68
  Z
  M 34.15 31.67
  L 33.82 29.73
  A 0.39 0.39 0.0 0 0 33.08 29.63
  Q 32.74 30.34 33.84 31.80
  A 0.17 0.17 0.0 0 0 34.15 31.67
  Z
  M 30.76 32.42
  A 2.42 2.42 0.0 0 0 28.34 30.00
  A 2.42 2.42 0.0 0 0 25.92 32.42
  A 2.42 2.42 0.0 0 0 28.34 34.84
  A 2.42 2.42 0.0 0 0 30.76 32.42
  Z
  M 32.55 33.65
  Q 32.70 33.51 32.75 33.15
  A 0.18 0.18 0.0 0 0 32.49 32.97
  Q 32.16 33.15 32.13 33.36
  A 0.29 0.25 75.8 0 0 32.55 33.65
  Z
  M 27.70 37.36
  A 2.41 2.41 0.0 0 0 25.29 34.95
  A 2.41 2.41 0.0 0 0 22.88 37.36
  A 2.41 2.41 0.0 0 0 25.29 39.77
  A 2.41 2.41 0.0 0 0 27.70 37.36
  Z
  M 33.86 37.36
  A 2.41 2.41 0.0 0 0 31.45 34.95
  A 2.41 2.41 0.0 0 0 29.04 37.36
  A 2.41 2.41 0.0 0 0 31.45 39.77
  A 2.41 2.41 0.0 0 0 33.86 37.36
  Z
  M 35.21 36.84
  Q 35.03 38.74 36.58 39.10
  A 0.43 0.43 0.0 0 0 37.09 38.57
  Q 36.81 37.51 35.74 36.62
  A 0.33 0.32 22.1 0 0 35.21 36.84
  Z
  M 30.75 42.27
  A 2.40 2.40 0.0 0 0 28.35 39.87
  A 2.40 2.40 0.0 0 0 25.95 42.27
  A 2.40 2.40 0.0 0 0 28.35 44.67
  A 2.40 2.40 0.0 0 0 30.75 42.27
  Z
  M 36.88 42.27
  A 2.39 2.39 0.0 0 0 34.49 39.88
  A 2.39 2.39 0.0 0 0 32.10 42.27
  A 2.39 2.39 0.0 0 0 34.49 44.66
  A 2.39 2.39 0.0 0 0 36.88 42.27
  Z
  M 33.81 47.10
  A 2.39 2.39 0.0 0 0 31.42 44.71
  A 2.39 2.39 0.0 0 0 29.03 47.10
  A 2.39 2.39 0.0 0 0 31.42 49.49
  A 2.39 2.39 0.0 0 0 33.81 47.10
  Z
  M 40.01 47.11
  A 2.40 2.40 0.0 0 0 37.61 44.71
  A 2.40 2.40 0.0 0 0 35.21 47.11
  A 2.40 2.40 0.0 0 0 37.61 49.51
  A 2.40 2.40 0.0 0 0 40.01 47.11
  Z
  M 36.89 51.75
  A 2.40 2.40 0.0 0 0 34.49 49.35
  A 2.40 2.40 0.0 0 0 32.09 51.75
  A 2.40 2.40 0.0 0 0 34.49 54.15
  A 2.40 2.40 0.0 0 0 36.89 51.75
  Z"
/>
<path fill="#ffffff" d="
  M 48.76 29.59
  Q 49.28 30.82 48.06 33.46
  Q 47.57 34.54 45.83 35.60
  C 43.51 37.02 44.20 38.46 42.99 40.36
  Q 42.31 41.44 42.28 41.45
  A 2.37 2.36 -22.8 0 1 38.82 40.04
  L 38.02 37.15
  A 1.33 1.32 -86.3 0 0 37.25 36.27
  C 36.49 35.95 34.33 34.48 33.86 32.86
  A 0.29 0.28 87.3 0 1 34.18 32.50
  L 39.52 33.47
  A 0.70 0.70 0.0 0 0 40.12 32.26
  Q 36.96 29.31 34.00 28.82
  A 0.78 0.78 0.0 0 1 33.36 28.13
  Q 33.32 27.70 33.67 26.96
  A 0.88 0.87 35.2 0 0 33.49 25.96
  C 31.29 23.82 29.21 21.21 30.96 18.80
  A 0.29 0.29 0.0 0 1 31.49 18.95
  Q 31.78 23.37 35.86 24.30
  A 0.40 0.40 0.0 0 0 36.31 23.74
  Q 34.44 19.60 35.05 15.54
  A 0.35 0.32 68.6 0 1 35.11 15.38
  Q 35.41 14.94 35.62 14.99
  A 0.30 0.27 4.8 0 1 35.84 15.23
  C 36.33 19.02 37.72 20.44 40.72 24.51
  A 0.48 0.47 -45.6 0 0 41.49 24.50
  L 45.55 18.73
  A 2.92 2.91 63.7 0 0 46.08 17.15
  L 46.15 14.97
  A 0.29 0.29 0.0 0 1 46.68 14.83
  Q 47.51 16.14 47.22 19.35
  Q 47.16 20.13 45.92 23.84
  A 0.39 0.39 0.0 0 0 46.39 24.34
  Q 50.44 23.20 50.82 18.97
  A 0.33 0.33 0.0 0 1 51.46 18.92
  Q 52.56 23.25 48.43 26.01
  Q 48.05 26.26 48.80 28.77
  A 0.13 0.13 0.0 0 1 48.68 28.94
  Q 44.51 29.06 41.84 32.30
  A 0.72 0.72 0.0 0 0 42.52 33.47
  L 47.09 32.69
  A 1.14 1.13 -82.4 0 0 47.93 32.04
  Q 48.52 30.72 48.43 29.67
  A 0.17 0.17 0.0 0 1 48.76 29.59
  Z"
/>
<path fill="#ffffff" d="
  M 21.82 29.68
  A 0.33 0.32 2.6 0 0 21.40 30.06
  Q 22.04 32.87 23.98 32.42
  A 0.65 0.65 0.0 0 1 24.77 33.17
  L 24.71 33.51
  A 0.54 0.53 1.4 0 1 24.25 33.94
  C 20.61 34.41 20.02 30.91 19.30 27.74
  A 1.60 1.58 -73.8 0 0 18.92 27.04
  Q 17.04 25.07 14.62 24.30
  A 0.58 0.58 0.0 0 1 14.29 23.46
  L 14.45 23.20
  A 0.40 0.40 0.0 0 1 14.87 23.00
  Q 17.73 23.58 19.30 25.42
  A 0.71 0.71 0.0 0 0 20.26 25.53
  Q 20.49 25.35 20.74 25.04
  Q 20.99 24.70 21.34 24.62
  Q 25.09 23.71 26.23 26.99
  A 1.53 1.50 -44.4 0 1 26.21 28.03
  Q 25.15 30.75 21.82 29.68
  Z
  M 21.4078 26.6506
  A 1.70 1.22 -161.5 0 0 22.6329 28.3470
  A 1.70 1.22 -161.5 0 0 24.6322 27.7294
  A 1.70 1.22 -161.5 0 0 23.4071 26.0330
  A 1.70 1.22 -161.5 0 0 21.4078 26.6506
  Z"
/>
<ellipse fill="#323341" cx="0.00" cy="0.00" transform="translate(23.02,27.19) rotate(-161.5)" rx="1.70" ry="1.22"/>
<path fill="#ffffff" d="
  M 33.84 31.80
  Q 32.74 30.34 33.08 29.63
  A 0.39 0.39 0.0 0 1 33.82 29.73
  L 34.15 31.67
  A 0.17 0.17 0.0 0 1 33.84 31.80
  Z"
/>
<circle fill="#ffffff" cx="28.34" cy="32.42" r="2.42"/>
<path fill="#636373" d="
  M 32.55 33.65
  A 0.29 0.25 75.8 0 1 32.13 33.36
  Q 32.16 33.15 32.49 32.97
  A 0.18 0.18 0.0 0 1 32.75 33.15
  Q 32.70 33.51 32.55 33.65
  Z"
/>
<circle fill="#ffffff" cx="25.29" cy="37.36" r="2.41"/>
<circle fill="#ffffff" cx="31.45" cy="37.36" r="2.41"/>
<path fill="#636373" d="
  M 35.74 36.62
  Q 36.81 37.51 37.09 38.57
  A 0.43 0.43 0.0 0 1 36.58 39.10
  Q 35.03 38.74 35.21 36.84
  A 0.33 0.32 22.1 0 1 35.74 36.62
  Z"
/>
<circle fill="#ffffff" cx="28.35" cy="42.27" r="2.40"/>
<circle fill="#ffffff" cx="34.49" cy="42.27" r="2.39"/>
<circle fill="#ffffff" cx="31.42" cy="47.10" r="2.39"/>
<circle fill="#ffffff" cx="37.61" cy="47.11" r="2.40"/>
<circle fill="#ffffff" cx="34.49" cy="51.75" r="2.40"/>
</svg>
