<?xml version="1.0" encoding="UTF-8" standalone="no"?>
<!DOCTYPE svg PUBLIC "-//W3C//DTD SVG 1.1//EN" "http://www.w3.org/Graphics/SVG/1.1/DTD/svg11.dtd">
<svg xmlns="http://www.w3.org/2000/svg" version="1.1" viewBox="0.00 0.00 66.00 88.00">
<g stroke-width="2.00" fill="none" stroke-linecap="butt">
<path stroke="#4a4b57" vector-effect="non-scaling-stroke" d="
  M 33.42 86.62
  C 34.13 86.62 33.55 86.63 33.77 86.43
  Q 48.35 73.18 57.55 56.52
  C 62.44 47.65 65.95 35.94 63.65 26.58
  Q 59.58 9.99 43.38 4.12
  Q 38.81 2.47 33.50 2.46
  Q 28.19 2.45 23.62 4.10
  Q 7.41 9.94 3.31 26.52
  C 0.99 35.88 4.48 47.59 9.35 56.47
  Q 18.52 73.15 33.07 86.43
  C 33.29 86.63 32.71 86.62 33.42 86.62"
/>
<path stroke="#505060" vector-effect="non-scaling-stroke" d="
  M 24.48 44.01
  L 22.29 32.90
  A 0.43 0.43 0.0 0 0 21.45 32.92
  L 20.13 40.94
  A 0.64 0.63 14.1 0 1 19.30 41.43
  L 15.88 40.29
  A 0.72 0.72 0.0 0 0 15.15 41.48
  L 18.78 45.12
  A 0.60 0.59 53.0 0 1 18.65 46.06
  Q 18.04 46.41 16.26 47.27
  A 2.21 1.99 -30.6 0 0 15.29 50.36
  C 17.37 53.18 24.04 53.57 27.08 53.62
  C 29.50 53.67 32.01 54.51 34.75 54.23
  Q 43.93 53.28 45.94 52.94
  Q 49.15 52.39 50.80 50.91
  C 53.28 48.70 49.75 46.68 47.96 46.02
  A 0.59 0.59 0.0 0 1 47.75 45.05
  L 51.39 41.40
  A 0.69 0.69 0.0 0 0 50.66 40.26
  L 46.45 41.80
  A 0.42 0.42 0.0 0 1 45.89 41.43
  L 45.28 32.93
  A 0.56 0.56 0.0 0 0 44.17 32.87
  L 42.78 41.32
  A 0.24 0.24 0.0 0 1 42.59 41.51
  L 42.24 41.58
  A 0.41 0.41 0.0 0 1 41.75 41.17
  L 42.03 29.04
  A 1.60 1.42 -52.9 0 0 42.00 28.65
  C 40.84 22.97 39.19 16.81 34.06 14.37
  A 1.96 1.94 43.4 0 0 32.29 14.41
  Q 27.93 16.77 26.29 21.81
  Q 25.01 25.77 24.61 27.53
  A 10.65 10.58 -41.6 0 0 24.40 30.86
  Q 24.84 35.45 25.06 40.06
  Q 25.18 42.61 24.65 44.03
  A 0.09 0.09 0.0 0 1 24.48 44.01"
/>
<path stroke="#9e9ea6" vector-effect="non-scaling-stroke" d="
  M 33.33 47.82
  Q 36.00 47.81 39.51 46.68
  A 0.65 0.64 82.4 0 0 39.95 46.09
  L 40.78 29.12
  A 4.30 4.09 40.5 0 0 40.65 27.87
  C 39.27 22.69 38.39 19.02 34.77 16.24
  Q 33.84 15.53 33.18 15.54
  Q 32.51 15.54 31.59 16.26
  C 28.00 19.07 27.15 22.75 25.82 27.94
  A 4.30 4.09 -41.1 0 0 25.71 29.19
  L 26.70 46.16
  A 0.65 0.64 -82.9 0 0 27.15 46.74
  Q 30.67 47.84 33.33 47.82"
/>
<path stroke="#9e9ea6" vector-effect="non-scaling-stroke" d="
  M 48.21 42.38
  L 45.70 43.29
  A 0.64 0.64 0.0 0 1 44.84 42.73
  L 44.67 39.73
  A 0.01 0.01 0.0 0 0 44.66 39.72
  L 44.44 39.70
  A 0.21 0.20 6.1 0 0 44.22 39.87
  L 42.72 48.97
  A 1.02 1.02 0.0 0 1 41.96 49.79
  Q 33.26 51.90 24.67 49.88
  A 1.04 1.04 0.0 0 1 23.88 49.03
  L 22.21 38.90
  A 0.03 0.03 0.0 0 0 22.17 38.87
  L 21.84 38.89
  A 0.23 0.23 0.0 0 0 21.64 39.18
  Q 22.08 40.74 21.52 42.82
  A 0.63 0.62 -79.5 0 1 20.86 43.28
  Q 19.67 43.18 18.31 42.32
  A 0.07 0.07 0.0 0 0 18.22 42.33
  Q 18.05 42.50 18.10 42.71
  A 0.52 0.51 17.9 0 0 18.22 42.94
  L 20.74 45.63
  A 0.76 0.76 0.0 0 1 20.35 46.89
  Q 18.33 47.33 16.57 48.57
  A 0.98 0.98 0.0 0 0 16.54 50.16
  C 19.26 52.20 23.41 52.04 28.85 52.68
  Q 33.14 53.18 37.16 52.72
  C 43.05 52.05 46.77 51.97 49.64 50.44
  A 1.17 1.17 0.0 0 0 49.72 48.42
  Q 47.87 47.21 46.40 47.01
  A 0.93 0.93 0.0 0 1 45.87 45.43
  L 48.49 42.81
  A 0.26 0.26 0.0 0 0 48.21 42.38"
/>
<path stroke="#9e9ea6" vector-effect="non-scaling-stroke" d="
  M 33.1103 20.5311
  A 5.24 4.33 -91.2 0 0 28.8909 25.8607
  A 5.24 4.33 -91.2 0 0 33.3297 31.0089
  A 5.24 4.33 -91.2 0 0 37.5491 25.6793
  A 5.24 4.33 -91.2 0 0 33.1103 20.5311"
/>
<path stroke="#505060" vector-effect="non-scaling-stroke" d="
  M 33.0204 21.9226
  A 3.81 2.99 -92.1 0 0 30.1720 25.8396
  A 3.81 2.99 -92.1 0 0 33.2996 29.5374
  A 3.81 2.99 -92.1 0 0 36.1480 25.6204
  A 3.81 2.99 -92.1 0 0 33.0204 21.9226"
/>
</g>
<path fill="#31333b" d="
  M 33.78 88.00
  L 33.04 88.00
  C 17.16 73.57 -4.61 46.33 3.05 23.09
  Q 5.53 15.53 11.53 9.91
  C 23.47 -1.30 43.37 -1.82 55.67 10.15
  Q 67.95 22.10 64.83 40.03
  C 61.70 58.03 47.08 75.97 33.78 88.00
  Z
  M 33.42 86.62
  C 34.13 86.62 33.55 86.63 33.77 86.43
  Q 48.35 73.18 57.55 56.52
  C 62.44 47.65 65.95 35.94 63.65 26.58
  Q 59.58 9.99 43.38 4.12
  Q 38.81 2.47 33.50 2.46
  Q 28.19 2.45 23.62 4.10
  Q 7.41 9.94 3.31 26.52
  C 0.99 35.88 4.48 47.59 9.35 56.47
  Q 18.52 73.15 33.07 86.43
  C 33.29 86.63 32.71 86.62 33.42 86.62
  Z"
/>
<path fill="#636373" d="
  M 33.50 2.46
  Q 38.81 2.47 43.38 4.12
  Q 59.58 9.99 63.65 26.58
  C 65.95 35.94 62.44 47.65 57.55 56.52
  Q 48.35 73.18 33.77 86.43
  C 33.55 86.63 34.13 86.62 33.42 86.62
  C 32.71 86.62 33.29 86.63 33.07 86.43
  Q 18.52 73.15 9.35 56.47
  C 4.48 47.59 0.99 35.88 3.31 26.52
  Q 7.41 9.94 23.62 4.10
  Q 28.19 2.45 33.50 2.46
  Z
  M 24.48 44.01
  L 22.29 32.90
  A 0.43 0.43 0.0 0 0 21.45 32.92
  L 20.13 40.94
  A 0.64 0.63 14.1 0 1 19.30 41.43
  L 15.88 40.29
  A 0.72 0.72 0.0 0 0 15.15 41.48
  L 18.78 45.12
  A 0.60 0.59 53.0 0 1 18.65 46.06
  Q 18.04 46.41 16.26 47.27
  A 2.21 1.99 -30.6 0 0 15.29 50.36
  C 17.37 53.18 24.04 53.57 27.08 53.62
  C 29.50 53.67 32.01 54.51 34.75 54.23
  Q 43.93 53.28 45.94 52.94
  Q 49.15 52.39 50.80 50.91
  C 53.28 48.70 49.75 46.68 47.96 46.02
  A 0.59 0.59 0.0 0 1 47.75 45.05
  L 51.39 41.40
  A 0.69 0.69 0.0 0 0 50.66 40.26
  L 46.45 41.80
  A 0.42 0.42 0.0 0 1 45.89 41.43
  L 45.28 32.93
  A 0.56 0.56 0.0 0 0 44.17 32.87
  L 42.78 41.32
  A 0.24 0.24 0.0 0 1 42.59 41.51
  L 42.24 41.58
  A 0.41 0.41 0.0 0 1 41.75 41.17
  L 42.03 29.04
  A 1.60 1.42 -52.9 0 0 42.00 28.65
  C 40.84 22.97 39.19 16.81 34.06 14.37
  A 1.96 1.94 43.4 0 0 32.29 14.41
  Q 27.93 16.77 26.29 21.81
  Q 25.01 25.77 24.61 27.53
  A 10.65 10.58 -41.6 0 0 24.40 30.86
  Q 24.84 35.45 25.06 40.06
  Q 25.18 42.61 24.65 44.03
  A 0.09 0.09 0.0 0 1 24.48 44.01
  Z"
/>
<path fill="#3c3d4c" d="
  M 24.65 44.03
  Q 25.18 42.61 25.06 40.06
  Q 24.84 35.45 24.40 30.86
  A 10.65 10.58 -41.6 0 1 24.61 27.53
  Q 25.01 25.77 26.29 21.81
  Q 27.93 16.77 32.29 14.41
  A 1.96 1.94 43.4 0 1 34.06 14.37
  C 39.19 16.81 40.84 22.97 42.00 28.65
  A 1.60 1.42 -52.9 0 1 42.03 29.04
  L 41.75 41.17
  A 0.41 0.41 0.0 0 0 42.24 41.58
  L 42.59 41.51
  A 0.24 0.24 0.0 0 0 42.78 41.32
  L 44.17 32.87
  A 0.56 0.56 0.0 0 1 45.28 32.93
  L 45.89 41.43
  A 0.42 0.42 0.0 0 0 46.45 41.80
  L 50.66 40.26
  A 0.69 0.69 0.0 0 1 51.39 41.40
  L 47.75 45.05
  A 0.59 0.59 0.0 0 0 47.96 46.02
  C 49.75 46.68 53.28 48.70 50.80 50.91
  Q 49.15 52.39 45.94 52.94
  Q 43.93 53.28 34.75 54.23
  C 32.01 54.51 29.50 53.67 27.08 53.62
  C 24.04 53.57 17.37 53.18 15.29 50.36
  A 2.21 1.99 -30.6 0 1 16.26 47.27
  Q 18.04 46.41 18.65 46.06
  A 0.60 0.59 53.0 0 0 18.78 45.12
  L 15.15 41.48
  A 0.72 0.72 0.0 0 1 15.88 40.29
  L 19.30 41.43
  A 0.64 0.63 14.1 0 0 20.13 40.94
  L 21.45 32.92
  A 0.43 0.43 0.0 0 1 22.29 32.90
  L 24.48 44.01
  A 0.09 0.09 0.0 0 0 24.65 44.03
  Z
  M 33.33 47.82
  Q 36.00 47.81 39.51 46.68
  A 0.65 0.64 82.4 0 0 39.95 46.09
  L 40.78 29.12
  A 4.30 4.09 40.5 0 0 40.65 27.87
  C 39.27 22.69 38.39 19.02 34.77 16.24
  Q 33.84 15.53 33.18 15.54
  Q 32.51 15.54 31.59 16.26
  C 28.00 19.07 27.15 22.75 25.82 27.94
  A 4.30 4.09 -41.1 0 0 25.71 29.19
  L 26.70 46.16
  A 0.65 0.64 -82.9 0 0 27.15 46.74
  Q 30.67 47.84 33.33 47.82
  Z
  M 48.21 42.38
  L 45.70 43.29
  A 0.64 0.64 0.0 0 1 44.84 42.73
  L 44.67 39.73
  A 0.01 0.01 0.0 0 0 44.66 39.72
  L 44.44 39.70
  A 0.21 0.20 6.1 0 0 44.22 39.87
  L 42.72 48.97
  A 1.02 1.02 0.0 0 1 41.96 49.79
  Q 33.26 51.90 24.67 49.88
  A 1.04 1.04 0.0 0 1 23.88 49.03
  L 22.21 38.90
  A 0.03 0.03 0.0 0 0 22.17 38.87
  L 21.84 38.89
  A 0.23 0.23 0.0 0 0 21.64 39.18
  Q 22.08 40.74 21.52 42.82
  A 0.63 0.62 -79.5 0 1 20.86 43.28
  Q 19.67 43.18 18.31 42.32
  A 0.07 0.07 0.0 0 0 18.22 42.33
  Q 18.05 42.50 18.10 42.71
  A 0.52 0.51 17.9 0 0 18.22 42.94
  L 20.74 45.63
  A 0.76 0.76 0.0 0 1 20.35 46.89
  Q 18.33 47.33 16.57 48.57
  A 0.98 0.98 0.0 0 0 16.54 50.16
  C 19.26 52.20 23.41 52.04 28.85 52.68
  Q 33.14 53.18 37.16 52.72
  C 43.05 52.05 46.77 51.97 49.64 50.44
  A 1.17 1.17 0.0 0 0 49.72 48.42
  Q 47.87 47.21 46.40 47.01
  A 0.93 0.93 0.0 0 1 45.87 45.43
  L 48.49 42.81
  A 0.26 0.26 0.0 0 0 48.21 42.38
  Z"
/>
<path fill="#ffffff" d="
  M 33.18 15.54
  Q 33.84 15.53 34.77 16.24
  C 38.39 19.02 39.27 22.69 40.65 27.87
  A 4.30 4.09 40.5 0 1 40.78 29.12
  L 39.95 46.09
  A 0.65 0.64 82.4 0 1 39.51 46.68
  Q 36.00 47.81 33.33 47.82
  Q 30.67 47.84 27.15 46.74
  A 0.65 0.64 -82.9 0 1 26.70 46.16
  L 25.71 29.19
  A 4.30 4.09 -41.1 0 1 25.82 27.94
  C 27.15 22.75 28.00 19.07 31.59 16.26
  Q 32.51 15.54 33.18 15.54
  Z
  M 33.1103 20.5311
  A 5.24 4.33 -91.2 0 0 28.8909 25.8607
  A 5.24 4.33 -91.2 0 0 33.3297 31.0089
  A 5.24 4.33 -91.2 0 0 37.5491 25.6793
  A 5.24 4.33 -91.2 0 0 33.1103 20.5311
  Z"
/>
<path fill="#3c3d4c" d="
  M 33.1103 20.5311
  A 5.24 4.33 -91.2 0 1 37.5491 25.6793
  A 5.24 4.33 -91.2 0 1 33.3297 31.0089
  A 5.24 4.33 -91.2 0 1 28.8909 25.8607
  A 5.24 4.33 -91.2 0 1 33.1103 20.5311
  Z
  M 33.0204 21.9226
  A 3.81 2.99 -92.1 0 0 30.1720 25.8396
  A 3.81 2.99 -92.1 0 0 33.2996 29.5374
  A 3.81 2.99 -92.1 0 0 36.1480 25.6204
  A 3.81 2.99 -92.1 0 0 33.0204 21.9226
  Z"
/>
<ellipse fill="#636373" cx="0.00" cy="0.00" transform="translate(33.16,25.73) rotate(-92.1)" rx="3.81" ry="2.99"/>
<path fill="#ffffff" d="
  M 48.49 42.81
  L 45.87 45.43
  A 0.93 0.93 0.0 0 0 46.40 47.01
  Q 47.87 47.21 49.72 48.42
  A 1.17 1.17 0.0 0 1 49.64 50.44
  C 46.77 51.97 43.05 52.05 37.16 52.72
  Q 33.14 53.18 28.85 52.68
  C 23.41 52.04 19.26 52.20 16.54 50.16
  A 0.98 0.98 0.0 0 1 16.57 48.57
  Q 18.33 47.33 20.35 46.89
  A 0.76 0.76 0.0 0 0 20.74 45.63
  L 18.22 42.94
  A 0.52 0.51 17.9 0 1 18.10 42.71
  Q 18.05 42.50 18.22 42.33
  A 0.07 0.07 0.0 0 1 18.31 42.32
  Q 19.67 43.18 20.86 43.28
  A 0.63 0.62 -79.5 0 0 21.52 42.82
  Q 22.08 40.74 21.64 39.18
  A 0.23 0.23 0.0 0 1 21.84 38.89
  L 22.17 38.87
  A 0.03 0.03 0.0 0 1 22.21 38.90
  L 23.88 49.03
  A 1.04 1.04 0.0 0 0 24.67 49.88
  Q 33.26 51.90 41.96 49.79
  A 1.02 1.02 0.0 0 0 42.72 48.97
  L 44.22 39.87
  A 0.21 0.20 6.1 0 1 44.44 39.70
  L 44.66 39.72
  A 0.01 0.01 0.0 0 1 44.67 39.73
  L 44.84 42.73
  A 0.64 0.64 0.0 0 0 45.70 43.29
  L 48.21 42.38
  A 0.26 0.26 0.0 0 1 48.49 42.81
  Z"
/>
</svg>
