<?xml version="1.0" encoding="UTF-8" standalone="no"?>
<!DOCTYPE svg PUBLIC "-//W3C//DTD SVG 1.1//EN" "http://www.w3.org/Graphics/SVG/1.1/DTD/svg11.dtd">
<svg xmlns="http://www.w3.org/2000/svg" version="1.1" viewBox="0.00 0.00 66.00 88.00">
<g stroke-width="2.00" fill="none" stroke-linecap="butt">
<path stroke="#88352b" vector-effect="non-scaling-stroke" d="
  M 33.41 86.71
  Q 33.52 86.71 33.62 86.69
  Q 33.71 86.67 33.80 86.59
  C 50.18 71.39 75.17 39.61 59.25 16.29
  C 53.44 7.77 44.17 2.46 33.52 2.45
  C 22.86 2.44 13.59 7.72 7.75 16.22
  C -8.23 39.50 16.68 71.35 33.02 86.59
  Q 33.11 86.67 33.20 86.69
  Q 33.30 86.71 33.41 86.71"
/>
<path stroke="#7d3e3e" vector-effect="non-scaling-stroke" d="
  M 20.77 54.02
  Q 25.83 49.27 26.19 48.67
  Q 30.08 42.05 37.93 28.25
  A 0.34 0.34 0.0 0 1 38.57 28.41
  Q 38.64 30.94 41.39 31.68
  A 0.57 0.57 0.0 0 0 42.09 31.28
  Q 42.70 28.96 41.74 26.90
  C 40.25 23.69 41.73 20.86 44.12 18.73
  Q 45.32 17.65 45.67 16.08
  A 0.77 0.76 -68.4 0 0 45.32 15.26
  L 41.83 13.25
  A 0.89 0.89 0.0 0 0 40.69 13.46
  C 39.12 15.35 39.22 17.59 37.92 19.61
  Q 36.27 22.17 32.81 22.19
  Q 31.63 22.19 29.35 24.13
  A 0.46 0.46 0.0 0 0 29.36 24.84
  Q 31.44 26.52 33.52 26.08
  A 0.39 0.39 0.0 0 1 33.94 26.66
  L 22.32 46.65
  A 1.02 0.99 -22.4 0 0 22.19 46.95
  L 20.34 53.76
  A 0.26 0.26 0.0 0 0 20.77 54.02"
/>
<path stroke="#a39aa0" vector-effect="non-scaling-stroke" d="
  M 22.36 50.88
  Q 22.54 50.99 24.21 49.23
  Q 25.15 48.23 25.74 47.21
  Q 29.47 40.82 37.73 26.52
  A 0.74 0.74 0.0 0 1 39.07 26.66
  L 40.17 29.89
  A 0.48 0.48 0.0 0 0 41.10 29.79
  Q 41.39 27.12 39.43 25.10
  A 0.82 0.81 -53.2 0 1 39.30 24.16
  L 42.23 18.64
  A 0.76 0.74 0.8 0 1 42.60 18.29
  Q 43.55 17.88 44.27 16.87
  A 0.61 0.61 0.0 0 0 44.19 16.06
  Q 43.78 15.68 43.01 15.23
  Q 42.24 14.79 41.70 14.62
  A 0.61 0.61 0.0 0 0 40.96 14.95
  Q 40.44 16.08 40.56 17.11
  A 0.76 0.74 59.4 0 1 40.44 17.60
  L 37.11 22.89
  A 0.82 0.81 -66.7 0 1 36.23 23.24
  Q 33.50 22.55 31.33 24.13
  A 0.48 0.48 0.0 0 0 31.70 24.99
  L 35.05 24.33
  A 0.74 0.74 0.0 0 1 35.84 25.43
  Q 27.55 39.71 23.86 46.12
  Q 23.27 47.14 22.87 48.45
  Q 22.17 50.77 22.36 50.88"
/>
</g>
<path fill="#5c221b" d="
  M 33.81 88.00
  L 33.04 88.00
  C 21.69 77.68 12.11 65.67 5.62 51.40
  Q 2.10 43.69 1.57 34.83
  C 0.60 18.91 11.07 5.90 26.39 2.10
  C 37.12 -0.56 49.58 3.28 57.15 11.65
  Q 67.90 23.53 64.80 40.00
  Q 62.46 52.40 54.57 64.07
  Q 45.67 77.20 33.81 88.00
  Z
  M 33.41 86.71
  Q 33.52 86.71 33.62 86.69
  Q 33.71 86.67 33.80 86.59
  C 50.18 71.39 75.17 39.61 59.25 16.29
  C 53.44 7.77 44.17 2.46 33.52 2.45
  C 22.86 2.44 13.59 7.72 7.75 16.22
  C -8.23 39.50 16.68 71.35 33.02 86.59
  Q 33.11 86.67 33.20 86.69
  Q 33.30 86.71 33.41 86.71
  Z"
/>
<path fill="#b3473b" d="
  M 33.52 2.45
  C 44.17 2.46 53.44 7.77 59.25 16.29
  C 75.17 39.61 50.18 71.39 33.80 86.59
  Q 33.71 86.67 33.62 86.69
  Q 33.52 86.71 33.41 86.71
  Q 33.30 86.71 33.20 86.69
  Q 33.11 86.67 33.02 86.59
  C 16.68 71.35 -8.23 39.50 7.75 16.22
  C 13.59 7.72 22.86 2.44 33.52 2.45
  Z
  M 20.77 54.02
  Q 25.83 49.27 26.19 48.67
  Q 30.08 42.05 37.93 28.25
  A 0.34 0.34 0.0 0 1 38.57 28.41
  Q 38.64 30.94 41.39 31.68
  A 0.57 0.57 0.0 0 0 42.09 31.28
  Q 42.70 28.96 41.74 26.90
  C 40.25 23.69 41.73 20.86 44.12 18.73
  Q 45.32 17.65 45.67 16.08
  A 0.77 0.76 -68.4 0 0 45.32 15.26
  L 41.83 13.25
  A 0.89 0.89 0.0 0 0 40.69 13.46
  C 39.12 15.35 39.22 17.59 37.92 19.61
  Q 36.27 22.17 32.81 22.19
  Q 31.63 22.19 29.35 24.13
  A 0.46 0.46 0.0 0 0 29.36 24.84
  Q 31.44 26.52 33.52 26.08
  A 0.39 0.39 0.0 0 1 33.94 26.66
  L 22.32 46.65
  A 1.02 0.99 -22.4 0 0 22.19 46.95
  L 20.34 53.76
  A 0.26 0.26 0.0 0 0 20.77 54.02
  Z"
/>
<path fill="#463540" d="
  M 20.34 53.76
  L 22.19 46.95
  A 1.02 0.99 -22.4 0 1 22.32 46.65
  L 33.94 26.66
  A 0.39 0.39 0.0 0 0 33.52 26.08
  Q 31.44 26.52 29.36 24.84
  A 0.46 0.46 0.0 0 1 29.35 24.13
  Q 31.63 22.19 32.81 22.19
  Q 36.27 22.17 37.92 19.61
  C 39.22 17.59 39.12 15.35 40.69 13.46
  A 0.89 0.89 0.0 0 1 41.83 13.25
  L 45.32 15.26
  A 0.77 0.76 -68.4 0 1 45.67 16.08
  Q 45.32 17.65 44.12 18.73
  C 41.73 20.86 40.25 23.69 41.74 26.90
  Q 42.70 28.96 42.09 31.28
  A 0.57 0.57 0.0 0 1 41.39 31.68
  Q 38.64 30.94 38.57 28.41
  A 0.34 0.34 0.0 0 0 37.93 28.25
  Q 30.08 42.05 26.19 48.67
  Q 25.83 49.27 20.77 54.02
  A 0.26 0.26 0.0 0 1 20.34 53.76
  Z
  M 22.36 50.88
  Q 22.54 50.99 24.21 49.23
  Q 25.15 48.23 25.74 47.21
  Q 29.47 40.82 37.73 26.52
  A 0.74 0.74 0.0 0 1 39.07 26.66
  L 40.17 29.89
  A 0.48 0.48 0.0 0 0 41.10 29.79
  Q 41.39 27.12 39.43 25.10
  A 0.82 0.81 -53.2 0 1 39.30 24.16
  L 42.23 18.64
  A 0.76 0.74 0.8 0 1 42.60 18.29
  Q 43.55 17.88 44.27 16.87
  A 0.61 0.61 0.0 0 0 44.19 16.06
  Q 43.78 15.68 43.01 15.23
  Q 42.24 14.79 41.70 14.62
  A 0.61 0.61 0.0 0 0 40.96 14.95
  Q 40.44 16.08 40.56 17.11
  A 0.76 0.74 59.4 0 1 40.44 17.60
  L 37.11 22.89
  A 0.82 0.81 -66.7 0 1 36.23 23.24
  Q 33.50 22.55 31.33 24.13
  A 0.48 0.48 0.0 0 0 31.70 24.99
  L 35.05 24.33
  A 0.74 0.74 0.0 0 1 35.84 25.43
  Q 27.55 39.71 23.86 46.12
  Q 23.27 47.14 22.87 48.45
  Q 22.17 50.77 22.36 50.88
  Z"
/>
<path fill="#ffffff" d="
  M 43.01 15.23
  Q 43.78 15.68 44.19 16.06
  A 0.61 0.61 0.0 0 1 44.27 16.87
  Q 43.55 17.88 42.60 18.29
  A 0.76 0.74 0.8 0 0 42.23 18.64
  L 39.30 24.16
  A 0.82 0.81 -53.2 0 0 39.43 25.10
  Q 41.39 27.12 41.10 29.79
  A 0.48 0.48 0.0 0 1 40.17 29.89
  L 39.07 26.66
  A 0.74 0.74 0.0 0 0 37.73 26.52
  Q 29.47 40.82 25.74 47.21
  Q 25.15 48.23 24.21 49.23
  Q 22.54 50.99 22.36 50.88
  Q 22.17 50.77 22.87 48.45
  Q 23.27 47.14 23.86 46.12
  Q 27.55 39.71 35.84 25.43
  A 0.74 0.74 0.0 0 0 35.05 24.33
  L 31.70 24.99
  A 0.48 0.48 0.0 0 1 31.33 24.13
  Q 33.50 22.55 36.23 23.24
  A 0.82 0.81 -66.7 0 0 37.11 22.89
  L 40.44 17.60
  A 0.76 0.74 59.4 0 0 40.56 17.11
  Q 40.44 16.08 40.96 14.95
  A 0.61 0.61 0.0 0 1 41.70 14.62
  Q 42.24 14.79 43.01 15.23
  Z"
/>
</svg>
