<?xml version="1.0" encoding="UTF-8" standalone="no"?>
<!DOCTYPE svg PUBLIC "-//W3C//DTD SVG 1.1//EN" "http://www.w3.org/Graphics/SVG/1.1/DTD/svg11.dtd">
<svg xmlns="http://www.w3.org/2000/svg" version="1.1" viewBox="0.00 0.00 66.00 88.00">
<g stroke-width="2.00" fill="none" stroke-linecap="butt">
<path stroke="#496d97" vector-effect="non-scaling-stroke" d="
  M 33.39 86.74
  Q 33.50 86.74 33.63 86.61
  Q 47.77 73.43 56.40 58.64
  C 64.93 44.04 68.85 25.84 56.06 12.25
  C 50.28 6.10 42.23 2.46 33.53 2.44
  C 24.83 2.43 16.76 6.05 10.96 12.18
  C -1.88 25.72 1.98 43.93 10.46 58.56
  Q 19.05 73.38 33.14 86.61
  Q 33.27 86.74 33.39 86.74"
/>
<path stroke="#4c6285" vector-effect="non-scaling-stroke" d="
  M 25.17 40.03
  L 25.76 33.72
  A 1.04 1.04 0.0 0 0 25.37 32.81
  L 19.28 28.04
  A 0.50 0.49 -53.4 0 0 18.58 28.15
  L 15.03 33.29
  A 1.44 1.42 59.7 0 0 14.78 34.27
  L 15.53 40.68
  A 1.17 1.16 -78.6 0 0 16.10 41.55
  L 18.94 43.19
  A 0.94 0.93 6.2 0 1 19.36 43.71
  Q 19.94 45.37 18.93 46.42
  Q 17.16 48.28 14.75 51.00
  A 0.40 0.40 0.0 0 0 14.77 51.55
  L 17.69 54.47
  A 0.46 0.45 -44.6 0 0 18.34 54.47
  L 28.61 44.20
  A 1.35 1.32 24.8 0 1 29.68 43.82
  L 34.09 44.23
  A 1.20 1.17 -19.2 0 1 34.82 44.57
  L 37.07 46.82
  A 1.27 1.27 0.0 0 0 37.79 47.18
  L 42.27 47.87
  A 1.45 1.40 33.3 0 0 43.18 47.70
  L 50.47 43.49
  A 0.51 0.51 0.0 0 0 50.58 42.69
  L 45.73 37.84
  A 1.36 1.35 -19.4 0 0 44.91 37.45
  L 38.20 36.83
  A 1.25 1.22 -64.1 0 0 37.20 37.19
  L 34.62 39.77
  A 0.48 0.47 -59.6 0 1 34.18 39.89
  L 33.60 39.75
  A 0.26 0.26 0.0 0 1 33.47 39.31
  L 40.04 32.74
  A 1.30 1.28 24.6 0 1 41.06 32.37
  L 43.74 32.62
  A 1.42 1.41 -64.4 0 0 44.86 32.22
  L 48.28 28.80
  A 0.83 0.79 -17.3 0 0 48.50 28.40
  L 50.50 20.10
  A 0.36 0.36 0.0 0 0 50.11 19.66
  L 41.49 20.66
  A 0.95 0.89 17.6 0 0 40.95 20.92
  L 37.16 24.71
  A 1.43 1.43 0.0 0 0 36.77 26.00
  Q 37.49 29.42 33.72 31.51
  A 0.38 0.38 0.0 0 1 33.16 31.14
  L 33.30 29.69
  A 1.01 1.00 70.1 0 1 33.59 29.06
  L 35.30 27.35
  A 1.42 1.39 64.8 0 0 35.70 26.21
  L 34.87 19.12
  A 0.86 0.83 19.8 0 0 34.61 18.59
  L 29.93 13.90
  A 0.68 0.68 0.0 0 0 28.86 14.04
  L 24.60 21.43
  A 0.91 0.90 58.5 0 0 24.48 21.95
  L 24.77 25.94
  A 2.05 2.03 -69.9 0 0 25.36 27.22
  L 28.46 30.32
  A 0.99 0.97 -71.2 0 1 28.74 30.90
  L 29.27 35.50
  A 1.68 1.68 0.0 0 1 28.78 36.90
  L 25.50 40.19
  A 0.20 0.19 70.7 0 1 25.17 40.03"
/>
<path stroke="#9999a1" vector-effect="non-scaling-stroke" d="
  M 22.07 41.88
  A 1.51 1.50 -26.9 0 1 22.48 40.65
  Q 24.55 38.50 23.66 33.73
  A 1.10 1.09 -76.8 0 0 23.26 33.08
  L 19.68 30.28
  A 0.61 0.61 0.0 0 0 18.78 30.45
  L 16.82 33.85
  A 1.50 1.50 0.0 0 0 16.63 34.75
  L 17.21 39.73
  A 1.26 1.25 -78.8 0 0 17.83 40.66
  L 20.40 42.15
  A 1.31 1.28 -79.0 0 1 21.04 43.12
  L 21.35 45.81
  A 1.12 1.11 -25.9 0 1 21.02 46.75
  L 16.89 50.88
  A 0.55 0.55 0.0 0 0 17.01 51.74
  L 17.85 52.23
  A 0.61 0.61 0.0 0 0 18.58 52.14
  L 27.85 42.87
  A 1.49 1.49 0.0 0 1 29.03 42.44
  L 35.00 43.00
  A 1.17 1.13 -14.6 0 1 35.82 43.46
  Q 38.22 46.73 42.61 45.85
  A 2.56 2.46 -64.6 0 0 43.35 45.57
  L 47.68 42.95
  A 0.56 0.55 -38.1 0 0 47.79 42.08
  L 45.06 39.36
  A 1.05 1.02 -18.3 0 0 44.42 39.05
  L 38.48 38.50
  A 1.25 1.25 0.0 0 0 37.39 38.97
  L 35.76 41.05
  A 1.10 1.08 21.2 0 1 34.81 41.46
  L 30.04 41.01
  A 0.24 0.24 0.0 0 1 29.90 40.60
  L 39.39 31.11
  A 1.23 1.21 -61.2 0 1 40.53 30.77
  Q 44.10 31.54 46.97 28.02
  A 0.96 0.92 -19.7 0 0 47.16 27.64
  L 48.35 22.26
  A 0.39 0.39 0.0 0 0 47.93 21.79
  L 42.64 22.41
  A 1.86 1.82 -67.8 0 0 41.63 22.85
  L 38.59 25.49
  A 0.81 0.80 72.3 0 0 38.32 26.02
  L 37.99 29.56
  A 0.78 0.76 71.1 0 1 37.77 30.02
  L 32.66 35.13
  A 0.41 0.41 0.0 0 1 31.96 34.89
  L 31.36 29.72
  A 1.61 1.60 -25.9 0 1 31.82 28.40
  L 33.60 26.62
  A 1.09 1.05 64.8 0 0 33.90 25.74
  L 33.22 19.84
  A 1.16 1.15 19.1 0 0 32.89 19.17
  L 30.22 16.50
  A 0.53 0.53 0.0 0 0 29.38 16.61
  L 26.36 21.83
  A 0.91 0.83 -35.7 0 0 26.25 22.35
  L 26.70 26.25
  A 0.63 0.53 -75.4 0 0 26.86 26.58
  L 29.46 29.18
  A 2.08 2.00 20.1 0 1 30.05 30.39
  L 30.70 35.98
  A 2.62 2.61 -26.0 0 1 29.95 38.14
  L 22.89 45.20
  A 0.27 0.27 0.0 0 1 22.43 45.04
  L 22.07 41.88"
/>
</g>
<path fill="#2d4966" d="
  M 33.80 88.00
  L 33.03 88.00
  C 16.73 73.18 -6.54 43.97 4.16 20.20
  C 11.86 3.11 32.64 -3.75 49.11 5.35
  C 59.87 11.29 66.20 22.61 65.43 34.91
  C 64.15 55.23 48.19 74.88 33.80 88.00
  Z
  M 33.39 86.74
  Q 33.50 86.74 33.63 86.61
  Q 47.77 73.43 56.40 58.64
  C 64.93 44.04 68.85 25.84 56.06 12.25
  C 50.28 6.10 42.23 2.46 33.53 2.44
  C 24.83 2.43 16.76 6.05 10.96 12.18
  C -1.88 25.72 1.98 43.93 10.46 58.56
  Q 19.05 73.38 33.14 86.61
  Q 33.27 86.74 33.39 86.74
  Z"
/>
<path fill="#6591c7" d="
  M 33.53 2.44
  C 42.23 2.46 50.28 6.10 56.06 12.25
  C 68.85 25.84 64.93 44.04 56.40 58.64
  Q 47.77 73.43 33.63 86.61
  Q 33.50 86.74 33.39 86.74
  Q 33.27 86.74 33.14 86.61
  Q 19.05 73.38 10.46 58.56
  C 1.98 43.93 -1.88 25.72 10.96 12.18
  C 16.76 6.05 24.83 2.43 33.53 2.44
  Z
  M 25.17 40.03
  L 25.76 33.72
  A 1.04 1.04 0.0 0 0 25.37 32.81
  L 19.28 28.04
  A 0.50 0.49 -53.4 0 0 18.58 28.15
  L 15.03 33.29
  A 1.44 1.42 59.7 0 0 14.78 34.27
  L 15.53 40.68
  A 1.17 1.16 -78.6 0 0 16.10 41.55
  L 18.94 43.19
  A 0.94 0.93 6.2 0 1 19.36 43.71
  Q 19.94 45.37 18.93 46.42
  Q 17.16 48.28 14.75 51.00
  A 0.40 0.40 0.0 0 0 14.77 51.55
  L 17.69 54.47
  A 0.46 0.45 -44.6 0 0 18.34 54.47
  L 28.61 44.20
  A 1.35 1.32 24.8 0 1 29.68 43.82
  L 34.09 44.23
  A 1.20 1.17 -19.2 0 1 34.82 44.57
  L 37.07 46.82
  A 1.27 1.27 0.0 0 0 37.79 47.18
  L 42.27 47.87
  A 1.45 1.40 33.3 0 0 43.18 47.70
  L 50.47 43.49
  A 0.51 0.51 0.0 0 0 50.58 42.69
  L 45.73 37.84
  A 1.36 1.35 -19.4 0 0 44.91 37.45
  L 38.20 36.83
  A 1.25 1.22 -64.1 0 0 37.20 37.19
  L 34.62 39.77
  A 0.48 0.47 -59.6 0 1 34.18 39.89
  L 33.60 39.75
  A 0.26 0.26 0.0 0 1 33.47 39.31
  L 40.04 32.74
  A 1.30 1.28 24.6 0 1 41.06 32.37
  L 43.74 32.62
  A 1.42 1.41 -64.4 0 0 44.86 32.22
  L 48.28 28.80
  A 0.83 0.79 -17.3 0 0 48.50 28.40
  L 50.50 20.10
  A 0.36 0.36 0.0 0 0 50.11 19.66
  L 41.49 20.66
  A 0.95 0.89 17.6 0 0 40.95 20.92
  L 37.16 24.71
  A 1.43 1.43 0.0 0 0 36.77 26.00
  Q 37.49 29.42 33.72 31.51
  A 0.38 0.38 0.0 0 1 33.16 31.14
  L 33.30 29.69
  A 1.01 1.00 70.1 0 1 33.59 29.06
  L 35.30 27.35
  A 1.42 1.39 64.8 0 0 35.70 26.21
  L 34.87 19.12
  A 0.86 0.83 19.8 0 0 34.61 18.59
  L 29.93 13.90
  A 0.68 0.68 0.0 0 0 28.86 14.04
  L 24.60 21.43
  A 0.91 0.90 58.5 0 0 24.48 21.95
  L 24.77 25.94
  A 2.05 2.03 -69.9 0 0 25.36 27.22
  L 28.46 30.32
  A 0.99 0.97 -71.2 0 1 28.74 30.90
  L 29.27 35.50
  A 1.68 1.68 0.0 0 1 28.78 36.90
  L 25.50 40.19
  A 0.20 0.19 70.7 0 1 25.17 40.03
  Z"
/>
<path fill="#323342" d="
  M 25.17 40.03
  A 0.20 0.19 70.7 0 0 25.50 40.19
  L 28.78 36.90
  A 1.68 1.68 0.0 0 0 29.27 35.50
  L 28.74 30.90
  A 0.99 0.97 -71.2 0 0 28.46 30.32
  L 25.36 27.22
  A 2.05 2.03 -69.9 0 1 24.77 25.94
  L 24.48 21.95
  A 0.91 0.90 58.5 0 1 24.60 21.43
  L 28.86 14.04
  A 0.68 0.68 0.0 0 1 29.93 13.90
  L 34.61 18.59
  A 0.86 0.83 19.8 0 1 34.87 19.12
  L 35.70 26.21
  A 1.42 1.39 64.8 0 1 35.30 27.35
  L 33.59 29.06
  A 1.01 1.00 70.1 0 0 33.30 29.69
  L 33.16 31.14
  A 0.38 0.38 0.0 0 0 33.72 31.51
  Q 37.49 29.42 36.77 26.00
  A 1.43 1.43 0.0 0 1 37.16 24.71
  L 40.95 20.92
  A 0.95 0.89 17.6 0 1 41.49 20.66
  L 50.11 19.66
  A 0.36 0.36 0.0 0 1 50.50 20.10
  L 48.50 28.40
  A 0.83 0.79 -17.3 0 1 48.28 28.80
  L 44.86 32.22
  A 1.42 1.41 -64.4 0 1 43.74 32.62
  L 41.06 32.37
  A 1.30 1.28 24.6 0 0 40.04 32.74
  L 33.47 39.31
  A 0.26 0.26 0.0 0 0 33.60 39.75
  L 34.18 39.89
  A 0.48 0.47 -59.6 0 0 34.62 39.77
  L 37.20 37.19
  A 1.25 1.22 -64.1 0 1 38.20 36.83
  L 44.91 37.45
  A 1.36 1.35 -19.4 0 1 45.73 37.84
  L 50.58 42.69
  A 0.51 0.51 0.0 0 1 50.47 43.49
  L 43.18 47.70
  A 1.45 1.40 33.3 0 1 42.27 47.87
  L 37.79 47.18
  A 1.27 1.27 0.0 0 1 37.07 46.82
  L 34.82 44.57
  A 1.20 1.17 -19.2 0 0 34.09 44.23
  L 29.68 43.82
  A 1.35 1.32 24.8 0 0 28.61 44.20
  L 18.34 54.47
  A 0.46 0.45 -44.6 0 1 17.69 54.47
  L 14.77 51.55
  A 0.40 0.40 0.0 0 1 14.75 51.00
  Q 17.16 48.28 18.93 46.42
  Q 19.94 45.37 19.36 43.71
  A 0.94 0.93 6.2 0 0 18.94 43.19
  L 16.10 41.55
  A 1.17 1.16 -78.6 0 1 15.53 40.68
  L 14.78 34.27
  A 1.44 1.42 59.7 0 1 15.03 33.29
  L 18.58 28.15
  A 0.50 0.49 -53.4 0 1 19.28 28.04
  L 25.37 32.81
  A 1.04 1.04 0.0 0 1 25.76 33.72
  L 25.17 40.03
  Z
  M 22.07 41.88
  A 1.51 1.50 -26.9 0 1 22.48 40.65
  Q 24.55 38.50 23.66 33.73
  A 1.10 1.09 -76.8 0 0 23.26 33.08
  L 19.68 30.28
  A 0.61 0.61 0.0 0 0 18.78 30.45
  L 16.82 33.85
  A 1.50 1.50 0.0 0 0 16.63 34.75
  L 17.21 39.73
  A 1.26 1.25 -78.8 0 0 17.83 40.66
  L 20.40 42.15
  A 1.31 1.28 -79.0 0 1 21.04 43.12
  L 21.35 45.81
  A 1.12 1.11 -25.9 0 1 21.02 46.75
  L 16.89 50.88
  A 0.55 0.55 0.0 0 0 17.01 51.74
  L 17.85 52.23
  A 0.61 0.61 0.0 0 0 18.58 52.14
  L 27.85 42.87
  A 1.49 1.49 0.0 0 1 29.03 42.44
  L 35.00 43.00
  A 1.17 1.13 -14.6 0 1 35.82 43.46
  Q 38.22 46.73 42.61 45.85
  A 2.56 2.46 -64.6 0 0 43.35 45.57
  L 47.68 42.95
  A 0.56 0.55 -38.1 0 0 47.79 42.08
  L 45.06 39.36
  A 1.05 1.02 -18.3 0 0 44.42 39.05
  L 38.48 38.50
  A 1.25 1.25 0.0 0 0 37.39 38.97
  L 35.76 41.05
  A 1.10 1.08 21.2 0 1 34.81 41.46
  L 30.04 41.01
  A 0.24 0.24 0.0 0 1 29.90 40.60
  L 39.39 31.11
  A 1.23 1.21 -61.2 0 1 40.53 30.77
  Q 44.10 31.54 46.97 28.02
  A 0.96 0.92 -19.7 0 0 47.16 27.64
  L 48.35 22.26
  A 0.39 0.39 0.0 0 0 47.93 21.79
  L 42.64 22.41
  A 1.86 1.82 -67.8 0 0 41.63 22.85
  L 38.59 25.49
  A 0.81 0.80 72.3 0 0 38.32 26.02
  L 37.99 29.56
  A 0.78 0.76 71.1 0 1 37.77 30.02
  L 32.66 35.13
  A 0.41 0.41 0.0 0 1 31.96 34.89
  L 31.36 29.72
  A 1.61 1.60 -25.9 0 1 31.82 28.40
  L 33.60 26.62
  A 1.09 1.05 64.8 0 0 33.90 25.74
  L 33.22 19.84
  A 1.16 1.15 19.1 0 0 32.89 19.17
  L 30.22 16.50
  A 0.53 0.53 0.0 0 0 29.38 16.61
  L 26.36 21.83
  A 0.91 0.83 -35.7 0 0 26.25 22.35
  L 26.70 26.25
  A 0.63 0.53 -75.4 0 0 26.86 26.58
  L 29.46 29.18
  A 2.08 2.00 20.1 0 1 30.05 30.39
  L 30.70 35.98
  A 2.62 2.61 -26.0 0 1 29.95 38.14
  L 22.89 45.20
  A 0.27 0.27 0.0 0 1 22.43 45.04
  L 22.07 41.88
  Z"
/>
<path fill="#ffffff" d="
  M 22.89 45.20
  L 29.95 38.14
  A 2.62 2.61 -26.0 0 0 30.70 35.98
  L 30.05 30.39
  A 2.08 2.00 20.1 0 0 29.46 29.18
  L 26.86 26.58
  A 0.63 0.53 -75.4 0 1 26.70 26.25
  L 26.25 22.35
  A 0.91 0.83 -35.7 0 1 26.36 21.83
  L 29.38 16.61
  A 0.53 0.53 0.0 0 1 30.22 16.50
  L 32.89 19.17
  A 1.16 1.15 19.1 0 1 33.22 19.84
  L 33.90 25.74
  A 1.09 1.05 64.8 0 1 33.60 26.62
  L 31.82 28.40
  A 1.61 1.60 -25.9 0 0 31.36 29.72
  L 31.96 34.89
  A 0.41 0.41 0.0 0 0 32.66 35.13
  L 37.77 30.02
  A 0.78 0.76 71.1 0 0 37.99 29.56
  L 38.32 26.02
  A 0.81 0.80 72.3 0 1 38.59 25.49
  L 41.63 22.85
  A 1.86 1.82 -67.8 0 1 42.64 22.41
  L 47.93 21.79
  A 0.39 0.39 0.0 0 1 48.35 22.26
  L 47.16 27.64
  A 0.96 0.92 -19.7 0 1 46.97 28.02
  Q 44.10 31.54 40.53 30.77
  A 1.23 1.21 -61.2 0 0 39.39 31.11
  L 29.90 40.60
  A 0.24 0.24 0.0 0 0 30.04 41.01
  L 34.81 41.46
  A 1.10 1.08 21.2 0 0 35.76 41.05
  L 37.39 38.97
  A 1.25 1.25 0.0 0 1 38.48 38.50
  L 44.42 39.05
  A 1.05 1.02 -18.3 0 1 45.06 39.36
  L 47.79 42.08
  A 0.56 0.55 -38.1 0 1 47.68 42.95
  L 43.35 45.57
  A 2.56 2.46 -64.6 0 1 42.61 45.85
  Q 38.22 46.73 35.82 43.46
  A 1.17 1.13 -14.6 0 0 35.00 43.00
  L 29.03 42.44
  A 1.49 1.49 0.0 0 0 27.85 42.87
  L 18.58 52.14
  A 0.61 0.61 0.0 0 1 17.85 52.23
  L 17.01 51.74
  A 0.55 0.55 0.0 0 1 16.89 50.88
  L 21.02 46.75
  A 1.12 1.11 -25.9 0 0 21.35 45.81
  L 21.04 43.12
  A 1.31 1.28 -79.0 0 0 20.40 42.15
  L 17.83 40.66
  A 1.26 1.25 -78.8 0 1 17.21 39.73
  L 16.63 34.75
  A 1.50 1.50 0.0 0 1 16.82 33.85
  L 18.78 30.45
  A 0.61 0.61 0.0 0 1 19.68 30.28
  L 23.26 33.08
  A 1.10 1.09 -76.8 0 1 23.66 33.73
  Q 24.55 38.50 22.48 40.65
  A 1.51 1.50 -26.9 0 0 22.07 41.88
  L 22.43 45.04
  A 0.27 0.27 0.0 0 0 22.89 45.20
  Z"
/>
</svg>
