<?xml version="1.0" encoding="UTF-8" standalone="no"?>
<!DOCTYPE svg PUBLIC "-//W3C//DTD SVG 1.1//EN" "http://www.w3.org/Graphics/SVG/1.1/DTD/svg11.dtd">
<svg xmlns="http://www.w3.org/2000/svg" version="1.1" viewBox="0.00 0.00 66.00 88.00">
<g stroke-width="2.00" fill="none" stroke-linecap="butt">
<path stroke="#496d97" vector-effect="non-scaling-stroke" d="
  M 33.40 86.73
  Q 33.52 86.73 33.65 86.61
  C 51.26 70.22 78.23 35.89 55.92 12.14
  C 50.17 6.01 42.10 2.46 33.52 2.44
  C 24.94 2.43 16.86 5.96 11.09 12.07
  C -11.29 35.76 15.58 70.17 33.14 86.61
  Q 33.27 86.73 33.40 86.73"
/>
<path stroke="#4c6285" vector-effect="non-scaling-stroke" d="
  M 32.72 52.38
  Q 32.87 52.38 33.05 52.14
  Q 37.02 47.07 40.02 43.29
  A 2.82 2.67 -85.8 0 1 40.67 42.70
  L 47.52 38.20
  A 1.94 1.59 -80.5 0 0 47.92 37.85
  L 52.60 32.41
  A 1.52 1.50 -27.0 0 0 52.96 31.33
  L 52.52 23.16
  A 0.93 0.92 21.1 0 0 52.25 22.56
  L 47.30 17.61
  A 0.91 0.89 69.8 0 0 46.75 17.35
  L 39.45 16.60
  A 1.50 1.50 0.0 0 0 38.27 17.00
  Q 37.66 17.50 33.22 21.24
  Q 33.05 21.37 32.80 21.37
  Q 32.54 21.37 32.38 21.23
  Q 27.96 17.47 27.35 16.97
  A 1.50 1.50 0.0 0 0 26.17 16.57
  L 18.87 17.28
  A 0.91 0.89 -69.5 0 0 18.32 17.53
  L 13.34 22.46
  A 0.93 0.92 -20.8 0 0 13.07 23.06
  L 12.59 31.23
  A 1.52 1.50 27.3 0 0 12.94 32.31
  L 17.59 37.77
  A 1.94 1.59 80.8 0 0 17.99 38.12
  L 24.82 42.66
  A 2.82 2.67 86.1 0 1 25.46 43.25
  Q 28.44 47.05 32.38 52.13
  Q 32.57 52.38 32.72 52.38"
/>
<path stroke="#9999a1" vector-effect="non-scaling-stroke" d="
  M 32.70 49.70
  A 0.25 0.24 -46.3 0 0 33.09 49.69
  L 38.80 42.04
  A 3.64 3.53 0.9 0 1 39.75 41.15
  L 46.45 36.76
  A 1.66 1.56 1.9 0 0 46.77 36.48
  L 50.83 31.78
  A 2.10 2.07 63.9 0 0 51.34 30.26
  L 50.93 23.71
  A 1.00 1.00 0.0 0 0 50.59 23.03
  L 46.27 19.30
  A 1.37 1.34 67.1 0 0 45.46 18.96
  L 39.35 18.50
  A 0.72 0.68 26.4 0 0 38.86 18.65
  L 32.99 23.29
  A 0.50 0.49 -41.8 0 1 32.33 23.26
  L 27.16 18.09
  A 0.96 0.94 62.4 0 0 26.33 17.82
  L 20.08 18.94
  A 0.87 0.84 19.3 0 0 19.69 19.12
  L 15.06 23.10
  A 0.99 0.95 73.8 0 0 14.72 23.75
  L 14.02 30.59
  A 1.26 1.24 -62.9 0 0 14.31 31.52
  Q 18.38 36.32 19.47 37.02
  Q 22.91 39.20 25.92 41.34
  A 3.62 3.53 88.0 0 1 26.66 42.05
  L 32.70 49.70"
/>
</g>
<path fill="#2d4966" d="
  M 33.77 88.00
  L 33.03 88.00
  C 21.76 77.76 11.95 65.52 5.58 51.41
  Q 2.15 43.81 1.59 34.82
  C 0.35 15.10 17.22 -0.31 36.51 1.47
  C 45.47 2.29 53.97 6.94 59.31 14.22
  C 77.52 39.00 51.52 71.97 33.77 88.00
  Z
  M 33.40 86.73
  Q 33.52 86.73 33.65 86.61
  C 51.26 70.22 78.23 35.89 55.92 12.14
  C 50.17 6.01 42.10 2.46 33.52 2.44
  C 24.94 2.43 16.86 5.96 11.09 12.07
  C -11.29 35.76 15.58 70.17 33.14 86.61
  Q 33.27 86.73 33.40 86.73
  Z"
/>
<path fill="#6591c7" d="
  M 33.52 2.44
  C 42.10 2.46 50.17 6.01 55.92 12.14
  C 78.23 35.89 51.26 70.22 33.65 86.61
  Q 33.52 86.73 33.40 86.73
  Q 33.27 86.73 33.14 86.61
  C 15.58 70.17 -11.29 35.76 11.09 12.07
  C 16.86 5.96 24.94 2.43 33.52 2.44
  Z
  M 32.72 52.38
  Q 32.87 52.38 33.05 52.14
  Q 37.02 47.07 40.02 43.29
  A 2.82 2.67 -85.8 0 1 40.67 42.70
  L 47.52 38.20
  A 1.94 1.59 -80.5 0 0 47.92 37.85
  L 52.60 32.41
  A 1.52 1.50 -27.0 0 0 52.96 31.33
  L 52.52 23.16
  A 0.93 0.92 21.1 0 0 52.25 22.56
  L 47.30 17.61
  A 0.91 0.89 69.8 0 0 46.75 17.35
  L 39.45 16.60
  A 1.50 1.50 0.0 0 0 38.27 17.00
  Q 37.66 17.50 33.22 21.24
  Q 33.05 21.37 32.80 21.37
  Q 32.54 21.37 32.38 21.23
  Q 27.96 17.47 27.35 16.97
  A 1.50 1.50 0.0 0 0 26.17 16.57
  L 18.87 17.28
  A 0.91 0.89 -69.5 0 0 18.32 17.53
  L 13.34 22.46
  A 0.93 0.92 -20.8 0 0 13.07 23.06
  L 12.59 31.23
  A 1.52 1.50 27.3 0 0 12.94 32.31
  L 17.59 37.77
  A 1.94 1.59 80.8 0 0 17.99 38.12
  L 24.82 42.66
  A 2.82 2.67 86.1 0 1 25.46 43.25
  Q 28.44 47.05 32.38 52.13
  Q 32.57 52.38 32.72 52.38
  Z"
/>
<path fill="#323343" d="
  M 32.80 21.37
  Q 33.05 21.37 33.22 21.24
  Q 37.66 17.50 38.27 17.00
  A 1.50 1.50 0.0 0 1 39.45 16.60
  L 46.75 17.35
  A 0.91 0.89 69.8 0 1 47.30 17.61
  L 52.25 22.56
  A 0.93 0.92 21.1 0 1 52.52 23.16
  L 52.96 31.33
  A 1.52 1.50 -27.0 0 1 52.60 32.41
  L 47.92 37.85
  A 1.94 1.59 -80.5 0 1 47.52 38.20
  L 40.67 42.70
  A 2.82 2.67 -85.8 0 0 40.02 43.29
  Q 37.02 47.07 33.05 52.14
  Q 32.87 52.38 32.72 52.38
  Q 32.57 52.38 32.38 52.13
  Q 28.44 47.05 25.46 43.25
  A 2.82 2.67 86.1 0 0 24.82 42.66
  L 17.99 38.12
  A 1.94 1.59 80.8 0 1 17.59 37.77
  L 12.94 32.31
  A 1.52 1.50 27.3 0 1 12.59 31.23
  L 13.07 23.06
  A 0.93 0.92 -20.8 0 1 13.34 22.46
  L 18.32 17.53
  A 0.91 0.89 -69.5 0 1 18.87 17.28
  L 26.17 16.57
  A 1.50 1.50 0.0 0 1 27.35 16.97
  Q 27.96 17.47 32.38 21.23
  Q 32.54 21.37 32.80 21.37
  Z
  M 32.70 49.70
  A 0.25 0.24 -46.3 0 0 33.09 49.69
  L 38.80 42.04
  A 3.64 3.53 0.9 0 1 39.75 41.15
  L 46.45 36.76
  A 1.66 1.56 1.9 0 0 46.77 36.48
  L 50.83 31.78
  A 2.10 2.07 63.9 0 0 51.34 30.26
  L 50.93 23.71
  A 1.00 1.00 0.0 0 0 50.59 23.03
  L 46.27 19.30
  A 1.37 1.34 67.1 0 0 45.46 18.96
  L 39.35 18.50
  A 0.72 0.68 26.4 0 0 38.86 18.65
  L 32.99 23.29
  A 0.50 0.49 -41.8 0 1 32.33 23.26
  L 27.16 18.09
  A 0.96 0.94 62.4 0 0 26.33 17.82
  L 20.08 18.94
  A 0.87 0.84 19.3 0 0 19.69 19.12
  L 15.06 23.10
  A 0.99 0.95 73.8 0 0 14.72 23.75
  L 14.02 30.59
  A 1.26 1.24 -62.9 0 0 14.31 31.52
  Q 18.38 36.32 19.47 37.02
  Q 22.91 39.20 25.92 41.34
  A 3.62 3.53 88.0 0 1 26.66 42.05
  L 32.70 49.70
  Z"
/>
<path fill="#ffffff" d="
  M 32.70 49.70
  L 26.66 42.05
  A 3.62 3.53 88.0 0 0 25.92 41.34
  Q 22.91 39.20 19.47 37.02
  Q 18.38 36.32 14.31 31.52
  A 1.26 1.24 -62.9 0 1 14.02 30.59
  L 14.72 23.75
  A 0.99 0.95 73.8 0 1 15.06 23.10
  L 19.69 19.12
  A 0.87 0.84 19.3 0 1 20.08 18.94
  L 26.33 17.82
  A 0.96 0.94 62.4 0 1 27.16 18.09
  L 32.33 23.26
  A 0.50 0.49 -41.8 0 0 32.99 23.29
  L 38.86 18.65
  A 0.72 0.68 26.4 0 1 39.35 18.50
  L 45.46 18.96
  A 1.37 1.34 67.1 0 1 46.27 19.30
  L 50.59 23.03
  A 1.00 1.00 0.0 0 1 50.93 23.71
  L 51.34 30.26
  A 2.10 2.07 63.9 0 1 50.83 31.78
  L 46.77 36.48
  A 1.66 1.56 1.9 0 1 46.45 36.76
  L 39.75 41.15
  A 3.64 3.53 0.9 0 0 38.80 42.04
  L 33.09 49.69
  A 0.25 0.24 -46.3 0 1 32.70 49.70
  Z"
/>
</svg>
