<?xml version="1.0" encoding="UTF-8" standalone="no"?>
<!DOCTYPE svg PUBLIC "-//W3C//DTD SVG 1.1//EN" "http://www.w3.org/Graphics/SVG/1.1/DTD/svg11.dtd">
<svg xmlns="http://www.w3.org/2000/svg" version="1.1" viewBox="0.00 0.00 66.00 88.00">
<g stroke-width="2.00" fill="none" stroke-linecap="butt">
<path stroke="#88352b" vector-effect="non-scaling-stroke" d="
  M 33.41 86.71
  Q 33.52 86.71 33.62 86.68
  Q 33.71 86.66 33.80 86.58
  Q 47.41 73.96 56.47 58.47
  C 64.92 44.02 68.78 25.71 56.08 12.28
  C 50.25 6.12 42.22 2.46 33.51 2.45
  C 24.81 2.44 16.77 6.08 10.93 12.23
  C -1.81 25.62 2.01 43.94 10.42 58.41
  Q 19.45 73.93 33.02 86.58
  Q 33.11 86.66 33.20 86.68
  Q 33.30 86.71 33.41 86.71"
/>
<path stroke="#743e40" vector-effect="non-scaling-stroke" d="
  M 31.32 40.23
  C 38.33 44.63 49.60 43.07 52.73 34.84
  Q 55.76 26.88 49.46 21.45
  Q 41.75 14.82 32.13 19.94
  Q 27.24 22.54 26.10 28.62
  C 25.78 30.28 26.52 32.36 26.65 33.95
  A 0.85 0.85 0.0 0 1 26.28 34.72
  L 12.78 43.93
  A 1.32 1.31 55.7 0 0 12.44 45.76
  L 14.90 49.36
  A 1.24 1.23 55.7 0 0 16.62 49.69
  L 30.45 40.25
  A 0.79 0.78 -46.2 0 1 31.32 40.23"
/>
<path stroke="#9a9aa2" vector-effect="non-scaling-stroke" d="
  M 16.32 47.68
  L 30.24 38.18
  A 1.05 1.04 -45.2 0 1 31.40 38.17
  Q 38.38 42.73 45.42 39.75
  C 50.79 37.47 52.92 32.40 51.28 26.76
  A 3.48 3.23 21.9 0 0 50.87 25.89
  Q 45.29 17.67 36.18 20.11
  C 31.70 21.31 28.12 25.10 27.76 29.65
  A 1.34 1.19 -51.2 0 0 27.78 30.04
  L 28.68 34.70
  A 0.77 0.76 68.1 0 1 28.35 35.49
  L 14.53 44.93
  A 0.37 0.37 0.0 0 0 14.43 45.44
  L 15.91 47.61
  A 0.29 0.29 0.0 0 0 16.32 47.68"
/>
<path stroke="#9a9aa2" vector-effect="non-scaling-stroke" d="
  M 30.6805 30.0849
  A 9.08 8.17 -179.4 0 0 39.6744 38.3496
  A 9.08 8.17 -179.4 0 0 48.8395 30.2751
  A 9.08 8.17 -179.4 0 0 39.8456 22.0104
  A 9.08 8.17 -179.4 0 0 30.6805 30.0849"
/>
<path stroke="#743e40" vector-effect="non-scaling-stroke" d="
  M 46.9398 30.2003
  A 7.20 6.35 0.4 0 0 39.7843 23.8002
  A 7.20 6.35 0.4 0 0 32.5402 30.0997
  A 7.20 6.35 0.4 0 0 39.6957 36.4998
  A 7.20 6.35 0.4 0 0 46.9398 30.2003"
/>
</g>
<path fill="#5c231b" d="
  M 33.82 88.00
  L 33.13 88.00
  C 16.34 73.10 -7.91 42.02 5.16 18.17
  C 17.93 -5.15 51.88 -4.05 62.90 20.39
  C 66.98 29.45 65.79 40.57 62.13 49.56
  C 56.13 64.28 45.47 77.35 33.82 88.00
  Z
  M 33.41 86.71
  Q 33.52 86.71 33.62 86.68
  Q 33.71 86.66 33.80 86.58
  Q 47.41 73.96 56.47 58.47
  C 64.92 44.02 68.78 25.71 56.08 12.28
  C 50.25 6.12 42.22 2.46 33.51 2.45
  C 24.81 2.44 16.77 6.08 10.93 12.23
  C -1.81 25.62 2.01 43.94 10.42 58.41
  Q 19.45 73.93 33.02 86.58
  Q 33.11 86.66 33.20 86.68
  Q 33.30 86.71 33.41 86.71
  Z"
/>
<path fill="#b3473b" d="
  M 33.51 2.45
  C 42.22 2.46 50.25 6.12 56.08 12.28
  C 68.78 25.71 64.92 44.02 56.47 58.47
  Q 47.41 73.96 33.80 86.58
  Q 33.71 86.66 33.62 86.68
  Q 33.52 86.71 33.41 86.71
  Q 33.30 86.71 33.20 86.68
  Q 33.11 86.66 33.02 86.58
  Q 19.45 73.93 10.42 58.41
  C 2.01 43.94 -1.81 25.62 10.93 12.23
  C 16.77 6.08 24.81 2.44 33.51 2.45
  Z
  M 31.32 40.23
  C 38.33 44.63 49.60 43.07 52.73 34.84
  Q 55.76 26.88 49.46 21.45
  Q 41.75 14.82 32.13 19.94
  Q 27.24 22.54 26.10 28.62
  C 25.78 30.28 26.52 32.36 26.65 33.95
  A 0.85 0.85 0.0 0 1 26.28 34.72
  L 12.78 43.93
  A 1.32 1.31 55.7 0 0 12.44 45.76
  L 14.90 49.36
  A 1.24 1.23 55.7 0 0 16.62 49.69
  L 30.45 40.25
  A 0.79 0.78 -46.2 0 1 31.32 40.23
  Z"
/>
<path fill="#343444" d="
  M 31.32 40.23
  A 0.79 0.78 -46.2 0 0 30.45 40.25
  L 16.62 49.69
  A 1.24 1.23 55.7 0 1 14.90 49.36
  L 12.44 45.76
  A 1.32 1.31 55.7 0 1 12.78 43.93
  L 26.28 34.72
  A 0.85 0.85 0.0 0 0 26.65 33.95
  C 26.52 32.36 25.78 30.28 26.10 28.62
  Q 27.24 22.54 32.13 19.94
  Q 41.75 14.82 49.46 21.45
  Q 55.76 26.88 52.73 34.84
  C 49.60 43.07 38.33 44.63 31.32 40.23
  Z
  M 16.32 47.68
  L 30.24 38.18
  A 1.05 1.04 -45.2 0 1 31.40 38.17
  Q 38.38 42.73 45.42 39.75
  C 50.79 37.47 52.92 32.40 51.28 26.76
  A 3.48 3.23 21.9 0 0 50.87 25.89
  Q 45.29 17.67 36.18 20.11
  C 31.70 21.31 28.12 25.10 27.76 29.65
  A 1.34 1.19 -51.2 0 0 27.78 30.04
  L 28.68 34.70
  A 0.77 0.76 68.1 0 1 28.35 35.49
  L 14.53 44.93
  A 0.37 0.37 0.0 0 0 14.43 45.44
  L 15.91 47.61
  A 0.29 0.29 0.0 0 0 16.32 47.68
  Z"
/>
<path fill="#ffffff" d="
  M 16.32 47.68
  A 0.29 0.29 0.0 0 1 15.91 47.61
  L 14.43 45.44
  A 0.37 0.37 0.0 0 1 14.53 44.93
  L 28.35 35.49
  A 0.77 0.76 68.1 0 0 28.68 34.70
  L 27.78 30.04
  A 1.34 1.19 -51.2 0 1 27.76 29.65
  C 28.12 25.10 31.70 21.31 36.18 20.11
  Q 45.29 17.67 50.87 25.89
  A 3.48 3.23 21.9 0 1 51.28 26.76
  C 52.92 32.40 50.79 37.47 45.42 39.75
  Q 38.38 42.73 31.40 38.17
  A 1.05 1.04 -45.2 0 0 30.24 38.18
  L 16.32 47.68
  Z
  M 30.6805 30.0849
  A 9.08 8.17 -179.4 0 0 39.6744 38.3496
  A 9.08 8.17 -179.4 0 0 48.8395 30.2751
  A 9.08 8.17 -179.4 0 0 39.8456 22.0104
  A 9.08 8.17 -179.4 0 0 30.6805 30.0849
  Z"
/>
<path fill="#343444" d="
  M 30.6805 30.0849
  A 9.08 8.17 -179.4 0 1 39.8456 22.0104
  A 9.08 8.17 -179.4 0 1 48.8395 30.2751
  A 9.08 8.17 -179.4 0 1 39.6744 38.3496
  A 9.08 8.17 -179.4 0 1 30.6805 30.0849
  Z
  M 46.9398 30.2003
  A 7.20 6.35 0.4 0 0 39.7843 23.8002
  A 7.20 6.35 0.4 0 0 32.5402 30.0997
  A 7.20 6.35 0.4 0 0 39.6957 36.4998
  A 7.20 6.35 0.4 0 0 46.9398 30.2003
  Z"
/>
<ellipse fill="#b3473b" cx="0.00" cy="0.00" transform="translate(39.74,30.15) rotate(0.4)" rx="7.20" ry="6.35"/>
</svg>
