<?xml version="1.0" encoding="UTF-8" standalone="no"?>
<!DOCTYPE svg PUBLIC "-//W3C//DTD SVG 1.1//EN" "http://www.w3.org/Graphics/SVG/1.1/DTD/svg11.dtd">
<svg xmlns="http://www.w3.org/2000/svg" version="1.1" viewBox="0.00 0.00 66.00 88.00">
<g stroke-width="2.00" fill="none" stroke-linecap="butt">
<path stroke="#4b4b5a" vector-effect="non-scaling-stroke" d="
  M 33.42 86.62
  C 33.72 86.62 33.67 86.63 33.82 86.49
  Q 48.41 73.14 57.54 56.50
  Q 62.91 46.70 63.94 38.10
  Q 66.41 17.28 48.78 6.56
  Q 42.03 2.46 33.49 2.45
  Q 24.96 2.45 18.20 6.54
  Q 0.55 17.22 2.99 38.05
  Q 4.00 46.65 9.36 56.46
  Q 18.46 73.11 33.02 86.49
  C 33.17 86.63 33.12 86.62 33.42 86.62"
/>
<path stroke="#4b4b5a" vector-effect="non-scaling-stroke" d="
  M 23.58 41.92
  L 24.42 43.37
  A 0.70 0.69 -48.2 0 1 24.45 43.99
  L 21.88 50.00
  A 1.06 1.06 0.0 0 0 22.89 51.47
  Q 33.08 51.13 42.31 53.70
  A 0.83 0.82 82.7 0 0 43.24 52.49
  L 40.10 47.06
  A 1.48 1.48 0.0 0 1 41.21 44.85
  C 44.60 44.43 44.23 42.58 46.06 40.73
  Q 48.29 38.47 50.56 35.98
  A 1.14 1.13 -41.2 0 0 50.66 34.57
  C 47.35 29.71 44.77 25.90 39.46 23.25
  A 1.80 1.71 56.4 0 0 38.71 23.08
  L 33.24 23.08
  A 0.69 0.69 0.0 0 1 32.60 22.13
  Q 34.18 18.31 31.96 15.45
  C 29.85 12.72 24.08 14.94 21.56 16.42
  Q 20.05 17.30 18.31 19.47
  C 15.58 22.89 14.46 24.36 14.21 28.36
  A 3.96 3.90 -53.0 0 0 14.40 29.80
  C 15.49 33.07 16.66 36.58 16.75 39.47
  Q 16.81 41.79 14.33 42.72
  A 0.76 0.76 0.0 0 0 14.51 44.18
  Q 19.20 44.69 22.77 41.77
  A 0.54 0.54 0.0 0 1 23.58 41.92"
/>
<path stroke="#9999a0" vector-effect="non-scaling-stroke" d="
  M 18.23 42.53
  L 21.43 40.67
  A 1.19 1.18 70.4 0 0 22.01 39.44
  C 21.10 34.32 20.32 29.92 23.86 25.69
  A 0.71 0.70 -46.0 0 0 23.85 24.77
  Q 23.07 23.90 23.02 23.08
  A 1.19 1.16 66.8 0 1 23.37 22.17
  Q 24.92 20.63 27.25 20.75
  A 0.75 0.72 -11.9 0 1 27.84 21.12
  L 28.83 22.82
  A 0.80 0.80 0.0 0 0 30.14 22.93
  Q 32.70 19.80 31.07 16.90
  A 3.15 2.60 -19.1 0 0 27.86 15.70
  Q 21.46 17.07 17.67 22.41
  Q 14.95 26.22 15.89 29.42
  C 17.39 34.54 18.59 37.89 17.69 42.13
  A 0.37 0.37 0.0 0 0 18.23 42.53"
/>
<path stroke="#9999a0" vector-effect="non-scaling-stroke" d="
  M 27.1361 23.0147
  A 1.17 0.85 -11.6 0 0 25.8191 22.4174
  A 1.17 0.85 -11.6 0 0 24.8439 23.4853
  A 1.17 0.85 -11.6 0 0 26.1609 24.0826
  A 1.17 0.85 -11.6 0 0 27.1361 23.0147"
/>
<path stroke="#9999a0" vector-effect="non-scaling-stroke" d="
  M 43.37 27.55
  C 39.28 23.10 35.01 24.30 29.62 24.63
  C 25.44 24.90 23.18 27.55 22.64 31.35
  Q 21.79 37.44 25.52 42.46
  A 1.43 1.40 77.9 0 0 26.29 42.97
  L 37.91 45.73
  A 0.78 0.77 17.9 0 0 38.80 45.28
  L 39.16 44.46
  A 1.05 1.02 -86.6 0 1 39.81 43.87
  L 43.13 42.83
  A 1.00 1.00 0.0 0 0 43.67 41.34
  Q 43.53 41.12 42.54 40.69
  Q 36.75 38.19 30.69 35.70
  A 1.04 1.04 0.0 0 1 30.06 34.88
  Q 29.92 33.66 30.35 32.09
  A 0.95 0.95 0.0 0 1 31.01 31.44
  L 43.18 28.19
  A 0.39 0.39 0.0 0 0 43.37 27.55"
/>
<path stroke="#9999a0" vector-effect="non-scaling-stroke" d="
  M 49.02 36.10
  A 1.30 1.30 0.0 0 0 49.16 34.42
  L 45.78 29.67
  A 1.30 1.30 0.0 0 0 44.39 29.17
  L 32.21 32.42
  A 1.30 1.30 0.0 0 0 32.03 34.87
  L 43.97 39.98
  A 1.30 1.30 0.0 0 0 45.40 39.71
  L 49.02 36.10"
/>
<path stroke="#9999a0" vector-effect="non-scaling-stroke" d="
  M 39.63 48.67
  A 3.63 3.60 81.6 0 0 37.34 46.96
  L 26.72 44.44
  A 1.17 1.16 -71.5 0 0 25.38 45.11
  L 23.70 49.04
  A 0.83 0.83 0.0 0 0 24.50 50.20
  Q 33.90 49.84 40.22 52.01
  A 0.66 0.66 0.0 0 0 41.01 51.05
  L 39.63 48.67"
/>
<path stroke="#9999a0" vector-effect="non-scaling-stroke" d="
  M 44.30 38.52
  A 0.21 0.21 0.0 0 0 44.61 38.59
  Q 46.32 37.35 47.35 35.79
  A 1.59 1.57 44.3 0 0 47.32 34.00
  L 44.72 30.36
  A 0.07 0.07 0.0 0 0 44.62 30.34
  L 44.40 30.49
  A 0.17 0.16 56.3 0 0 44.36 30.72
  L 47.05 34.50
  A 0.78 0.78 0.0 0 1 47.08 35.36
  Q 45.92 37.22 44.32 38.40
  A 0.10 0.09 -32.8 0 0 44.29 38.52
  L 44.30 38.52"
/>
<path stroke="#b1b1b9" vector-effect="non-scaling-stroke" d="
  M 41.88 32.68
  Q 41.93 32.53 41.81 32.11
  A 0.38 0.37 -86.7 0 0 41.60 31.87
  Q 41.50 31.82 40.60 31.66
  Q 40.09 31.57 40.66 31.65
  Q 40.69 31.65 41.63 32.74
  A 0.15 0.15 0.0 0 0 41.88 32.68"
/>
<path stroke="#9999a0" vector-effect="non-scaling-stroke" d="
  M 45.02 34.25
  Q 45.36 35.03 44.04 36.67
  A 0.14 0.14 0.0 0 0 44.22 36.87
  Q 45.24 36.26 45.72 34.99
  Q 45.82 34.74 45.57 34.50
  Q 45.37 34.30 45.02 34.25"
/>
<path stroke="#9999a0" vector-effect="non-scaling-stroke" d="
  M 45.02 34.25
  Q 44.54 33.07 43.73 32.16
  A 0.15 0.15 0.0 0 0 43.47 32.30
  Q 43.74 33.42 45.02 34.25"
/>
<path stroke="#9999a0" vector-effect="non-scaling-stroke" d="
  M 40.97 35.53
  A 0.29 0.28 79.3 0 0 41.20 35.19
  Q 40.89 33.73 39.71 32.29
  A 0.26 0.26 0.0 0 0 39.34 32.26
  L 39.32 32.27
  A 0.31 0.30 48.4 0 0 39.30 32.70
  Q 40.39 33.95 40.68 35.36
  A 0.22 0.22 0.0 0 0 40.94 35.54
  L 40.97 35.53"
/>
<path stroke="#9999a0" vector-effect="non-scaling-stroke" d="
  M 33.1870 32.8723
  A 0.84 0.74 -99.8 0 0 32.6008 33.8260
  A 0.84 0.74 -99.8 0 0 33.4730 34.5277
  A 0.84 0.74 -99.8 0 0 34.0592 33.5740
  A 0.84 0.74 -99.8 0 0 33.1870 32.8723"
/>
<path stroke="#b1b1b9" vector-effect="non-scaling-stroke" d="
  M 42.94 35.01
  Q 42.94 35.10 42.19 36.35
  A 0.19 0.19 0.0 0 0 42.50 36.58
  Q 43.51 35.44 43.50 35.00
  Q 43.49 34.56 42.44 33.46
  A 0.19 0.19 0.0 0 0 42.14 33.70
  Q 42.94 34.91 42.94 35.01"
/>
<path stroke="#b1b1b9" vector-effect="non-scaling-stroke" d="
  M 39.47 36.66
  Q 39.84 36.97 40.29 36.63
  A 0.23 0.23 0.0 0 0 40.15 36.22
  L 39.63 36.22
  A 0.25 0.25 0.0 0 0 39.47 36.66"
/>
<path stroke="#b1b1b9" vector-effect="non-scaling-stroke" d="
  M 41.47 37.66
  A 0.28 0.26 5.3 0 0 41.87 37.35
  Q 41.80 37.15 41.47 37.06
  A 0.19 0.19 0.0 0 0 41.23 37.27
  Q 41.26 37.55 41.47 37.66"
/>
<path stroke="#9999a0" vector-effect="non-scaling-stroke" d="
  M 43.72 37.74
  L 43.72 37.30
  A 0.19 0.19 0.0 0 0 43.37 37.20
  Q 43.22 37.44 43.32 37.79
  A 0.20 0.20 0.0 0 0 43.72 37.74"
/>
</g>
<path fill="#323340" d="
  M 33.78 88.00
  L 33.04 88.00
  C 16.73 73.18 -6.51 44.01 4.15 20.23
  C 11.78 3.19 32.54 -3.74 48.98 5.27
  Q 61.29 12.03 64.81 26.22
  Q 66.14 31.58 64.75 40.37
  Q 63.41 48.85 57.55 58.84
  Q 47.97 75.16 33.78 88.00
  Z
  M 33.42 86.62
  C 33.72 86.62 33.67 86.63 33.82 86.49
  Q 48.41 73.14 57.54 56.50
  Q 62.91 46.70 63.94 38.10
  Q 66.41 17.28 48.78 6.56
  Q 42.03 2.46 33.49 2.45
  Q 24.96 2.45 18.20 6.54
  Q 0.55 17.22 2.99 38.05
  Q 4.00 46.65 9.36 56.46
  Q 18.46 73.11 33.02 86.49
  C 33.17 86.63 33.12 86.62 33.42 86.62
  Z"
/>
<path fill="#636373" d="
  M 33.49 2.45
  Q 42.03 2.46 48.78 6.56
  Q 66.41 17.28 63.94 38.10
  Q 62.91 46.70 57.54 56.50
  Q 48.41 73.14 33.82 86.49
  C 33.67 86.63 33.72 86.62 33.42 86.62
  C 33.12 86.62 33.17 86.63 33.02 86.49
  Q 18.46 73.11 9.36 56.46
  Q 4.00 46.65 2.99 38.05
  Q 0.55 17.22 18.20 6.54
  Q 24.96 2.45 33.49 2.45
  Z
  M 23.58 41.92
  L 24.42 43.37
  A 0.70 0.69 -48.2 0 1 24.45 43.99
  L 21.88 50.00
  A 1.06 1.06 0.0 0 0 22.89 51.47
  Q 33.08 51.13 42.31 53.70
  A 0.83 0.82 82.7 0 0 43.24 52.49
  L 40.10 47.06
  A 1.48 1.48 0.0 0 1 41.21 44.85
  C 44.60 44.43 44.23 42.58 46.06 40.73
  Q 48.29 38.47 50.56 35.98
  A 1.14 1.13 -41.2 0 0 50.66 34.57
  C 47.35 29.71 44.77 25.90 39.46 23.25
  A 1.80 1.71 56.4 0 0 38.71 23.08
  L 33.24 23.08
  A 0.69 0.69 0.0 0 1 32.60 22.13
  Q 34.18 18.31 31.96 15.45
  C 29.85 12.72 24.08 14.94 21.56 16.42
  Q 20.05 17.30 18.31 19.47
  C 15.58 22.89 14.46 24.36 14.21 28.36
  A 3.96 3.90 -53.0 0 0 14.40 29.80
  C 15.49 33.07 16.66 36.58 16.75 39.47
  Q 16.81 41.79 14.33 42.72
  A 0.76 0.76 0.0 0 0 14.51 44.18
  Q 19.20 44.69 22.77 41.77
  A 0.54 0.54 0.0 0 1 23.58 41.92
  Z"
/>
<path fill="#323340" d="
  M 22.77 41.77
  Q 19.20 44.69 14.51 44.18
  A 0.76 0.76 0.0 0 1 14.33 42.72
  Q 16.81 41.79 16.75 39.47
  C 16.66 36.58 15.49 33.07 14.40 29.80
  A 3.96 3.90 -53.0 0 1 14.21 28.36
  C 14.46 24.36 15.58 22.89 18.31 19.47
  Q 20.05 17.30 21.56 16.42
  C 24.08 14.94 29.85 12.72 31.96 15.45
  Q 34.18 18.31 32.60 22.13
  A 0.69 0.69 0.0 0 0 33.24 23.08
  L 38.71 23.08
  A 1.80 1.71 56.4 0 1 39.46 23.25
  C 44.77 25.90 47.35 29.71 50.66 34.57
  A 1.14 1.13 -41.2 0 1 50.56 35.98
  Q 48.29 38.47 46.06 40.73
  C 44.23 42.58 44.60 44.43 41.21 44.85
  A 1.48 1.48 0.0 0 0 40.10 47.06
  L 43.24 52.49
  A 0.83 0.82 82.7 0 1 42.31 53.70
  Q 33.08 51.13 22.89 51.47
  A 1.06 1.06 0.0 0 1 21.88 50.00
  L 24.45 43.99
  A 0.70 0.69 -48.2 0 0 24.42 43.37
  L 23.58 41.92
  A 0.54 0.54 0.0 0 0 22.77 41.77
  Z
  M 18.23 42.53
  L 21.43 40.67
  A 1.19 1.18 70.4 0 0 22.01 39.44
  C 21.10 34.32 20.32 29.92 23.86 25.69
  A 0.71 0.70 -46.0 0 0 23.85 24.77
  Q 23.07 23.90 23.02 23.08
  A 1.19 1.16 66.8 0 1 23.37 22.17
  Q 24.92 20.63 27.25 20.75
  A 0.75 0.72 -11.9 0 1 27.84 21.12
  L 28.83 22.82
  A 0.80 0.80 0.0 0 0 30.14 22.93
  Q 32.70 19.80 31.07 16.90
  A 3.15 2.60 -19.1 0 0 27.86 15.70
  Q 21.46 17.07 17.67 22.41
  Q 14.95 26.22 15.89 29.42
  C 17.39 34.54 18.59 37.89 17.69 42.13
  A 0.37 0.37 0.0 0 0 18.23 42.53
  Z
  M 27.1361 23.0147
  A 1.17 0.85 -11.6 0 0 25.8191 22.4174
  A 1.17 0.85 -11.6 0 0 24.8439 23.4853
  A 1.17 0.85 -11.6 0 0 26.1609 24.0826
  A 1.17 0.85 -11.6 0 0 27.1361 23.0147
  Z
  M 43.37 27.55
  C 39.28 23.10 35.01 24.30 29.62 24.63
  C 25.44 24.90 23.18 27.55 22.64 31.35
  Q 21.79 37.44 25.52 42.46
  A 1.43 1.40 77.9 0 0 26.29 42.97
  L 37.91 45.73
  A 0.78 0.77 17.9 0 0 38.80 45.28
  L 39.16 44.46
  A 1.05 1.02 -86.6 0 1 39.81 43.87
  L 43.13 42.83
  A 1.00 1.00 0.0 0 0 43.67 41.34
  Q 43.53 41.12 42.54 40.69
  Q 36.75 38.19 30.69 35.70
  A 1.04 1.04 0.0 0 1 30.06 34.88
  Q 29.92 33.66 30.35 32.09
  A 0.95 0.95 0.0 0 1 31.01 31.44
  L 43.18 28.19
  A 0.39 0.39 0.0 0 0 43.37 27.55
  Z
  M 49.02 36.10
  A 1.30 1.30 0.0 0 0 49.16 34.42
  L 45.78 29.67
  A 1.30 1.30 0.0 0 0 44.39 29.17
  L 32.21 32.42
  A 1.30 1.30 0.0 0 0 32.03 34.87
  L 43.97 39.98
  A 1.30 1.30 0.0 0 0 45.40 39.71
  L 49.02 36.10
  Z
  M 39.63 48.67
  A 3.63 3.60 81.6 0 0 37.34 46.96
  L 26.72 44.44
  A 1.17 1.16 -71.5 0 0 25.38 45.11
  L 23.70 49.04
  A 0.83 0.83 0.0 0 0 24.50 50.20
  Q 33.90 49.84 40.22 52.01
  A 0.66 0.66 0.0 0 0 41.01 51.05
  L 39.63 48.67
  Z"
/>
<path fill="#ffffff" d="
  M 17.69 42.13
  C 18.59 37.89 17.39 34.54 15.89 29.42
  Q 14.95 26.22 17.67 22.41
  Q 21.46 17.07 27.86 15.70
  A 3.15 2.60 -19.1 0 1 31.07 16.90
  Q 32.70 19.80 30.14 22.93
  A 0.80 0.80 0.0 0 1 28.83 22.82
  L 27.84 21.12
  A 0.75 0.72 -11.9 0 0 27.25 20.75
  Q 24.92 20.63 23.37 22.17
  A 1.19 1.16 66.8 0 0 23.02 23.08
  Q 23.07 23.90 23.85 24.77
  A 0.71 0.70 -46.0 0 1 23.86 25.69
  C 20.32 29.92 21.10 34.32 22.01 39.44
  A 1.19 1.18 70.4 0 1 21.43 40.67
  L 18.23 42.53
  A 0.37 0.37 0.0 0 1 17.69 42.13
  Z"
/>
<ellipse fill="#ffffff" cx="0.00" cy="0.00" transform="translate(25.99,23.25) rotate(-11.6)" rx="1.17" ry="0.85"/>
<path fill="#ffffff" d="
  M 43.37 27.55
  A 0.39 0.39 0.0 0 1 43.18 28.19
  L 31.01 31.44
  A 0.95 0.95 0.0 0 0 30.35 32.09
  Q 29.92 33.66 30.06 34.88
  A 1.04 1.04 0.0 0 0 30.69 35.70
  Q 36.75 38.19 42.54 40.69
  Q 43.53 41.12 43.67 41.34
  A 1.00 1.00 0.0 0 1 43.13 42.83
  L 39.81 43.87
  A 1.05 1.02 -86.6 0 0 39.16 44.46
  L 38.80 45.28
  A 0.78 0.77 17.9 0 1 37.91 45.73
  L 26.29 42.97
  A 1.43 1.40 77.9 0 1 25.52 42.46
  Q 21.79 37.44 22.64 31.35
  C 23.18 27.55 25.44 24.90 29.62 24.63
  C 35.01 24.30 39.28 23.10 43.37 27.55
  Z"
/>
<path fill="#ffffff" d="
  M 49.02 36.10
  L 45.40 39.71
  A 1.30 1.30 0.0 0 1 43.97 39.98
  L 32.03 34.87
  A 1.30 1.30 0.0 0 1 32.21 32.42
  L 44.39 29.17
  A 1.30 1.30 0.0 0 1 45.78 29.67
  L 49.16 34.42
  A 1.30 1.30 0.0 0 1 49.02 36.10
  Z
  M 44.30 38.52
  A 0.21 0.21 0.0 0 0 44.61 38.59
  Q 46.32 37.35 47.35 35.79
  A 1.59 1.57 44.3 0 0 47.32 34.00
  L 44.72 30.36
  A 0.07 0.07 0.0 0 0 44.62 30.34
  L 44.40 30.49
  A 0.17 0.16 56.3 0 0 44.36 30.72
  L 47.05 34.50
  A 0.78 0.78 0.0 0 1 47.08 35.36
  Q 45.92 37.22 44.32 38.40
  A 0.10 0.09 -32.8 0 0 44.29 38.52
  L 44.30 38.52
  Z
  M 41.88 32.68
  Q 41.93 32.53 41.81 32.11
  A 0.38 0.37 -86.7 0 0 41.60 31.87
  Q 41.50 31.82 40.60 31.66
  Q 40.09 31.57 40.66 31.65
  Q 40.69 31.65 41.63 32.74
  A 0.15 0.15 0.0 0 0 41.88 32.68
  Z
  M 45.02 34.25
  Q 45.36 35.03 44.04 36.67
  A 0.14 0.14 0.0 0 0 44.22 36.87
  Q 45.24 36.26 45.72 34.99
  Q 45.82 34.74 45.57 34.50
  Q 45.37 34.30 45.02 34.25
  Q 44.54 33.07 43.73 32.16
  A 0.15 0.15 0.0 0 0 43.47 32.30
  Q 43.74 33.42 45.02 34.25
  Z
  M 40.97 35.53
  A 0.29 0.28 79.3 0 0 41.20 35.19
  Q 40.89 33.73 39.71 32.29
  A 0.26 0.26 0.0 0 0 39.34 32.26
  L 39.32 32.27
  A 0.31 0.30 48.4 0 0 39.30 32.70
  Q 40.39 33.95 40.68 35.36
  A 0.22 0.22 0.0 0 0 40.94 35.54
  L 40.97 35.53
  Z
  M 33.1870 32.8723
  A 0.84 0.74 -99.8 0 0 32.6008 33.8260
  A 0.84 0.74 -99.8 0 0 33.4730 34.5277
  A 0.84 0.74 -99.8 0 0 34.0592 33.5740
  A 0.84 0.74 -99.8 0 0 33.1870 32.8723
  Z
  M 42.94 35.01
  Q 42.94 35.10 42.19 36.35
  A 0.19 0.19 0.0 0 0 42.50 36.58
  Q 43.51 35.44 43.50 35.00
  Q 43.49 34.56 42.44 33.46
  A 0.19 0.19 0.0 0 0 42.14 33.70
  Q 42.94 34.91 42.94 35.01
  Z
  M 39.47 36.66
  Q 39.84 36.97 40.29 36.63
  A 0.23 0.23 0.0 0 0 40.15 36.22
  L 39.63 36.22
  A 0.25 0.25 0.0 0 0 39.47 36.66
  Z
  M 41.47 37.66
  A 0.28 0.26 5.3 0 0 41.87 37.35
  Q 41.80 37.15 41.47 37.06
  A 0.19 0.19 0.0 0 0 41.23 37.27
  Q 41.26 37.55 41.47 37.66
  Z
  M 43.72 37.74
  L 43.72 37.30
  A 0.19 0.19 0.0 0 0 43.37 37.20
  Q 43.22 37.44 43.32 37.79
  A 0.20 0.20 0.0 0 0 43.72 37.74
  Z"
/>
<path fill="#323340" d="
  M 44.32 38.40
  Q 45.92 37.22 47.08 35.36
  A 0.78 0.78 0.0 0 0 47.05 34.50
  L 44.36 30.72
  A 0.17 0.16 56.3 0 1 44.40 30.49
  L 44.62 30.34
  A 0.07 0.07 0.0 0 1 44.72 30.36
  L 47.32 34.00
  A 1.59 1.57 44.3 0 1 47.35 35.79
  Q 46.32 37.35 44.61 38.59
  A 0.21 0.21 0.0 0 1 44.30 38.52
  L 44.29 38.52
  A 0.10 0.09 -32.8 0 1 44.32 38.40
  Z"
/>
<path fill="#636373" d="
  M 41.63 32.74
  Q 40.69 31.65 40.66 31.65
  Q 40.09 31.57 40.60 31.66
  Q 41.50 31.82 41.60 31.87
  A 0.38 0.37 -86.7 0 1 41.81 32.11
  Q 41.93 32.53 41.88 32.68
  A 0.15 0.15 0.0 0 1 41.63 32.74
  Z"
/>
<path fill="#323340" d="
  M 45.02 34.25
  Q 43.74 33.42 43.47 32.30
  A 0.15 0.15 0.0 0 1 43.73 32.16
  Q 44.54 33.07 45.02 34.25
  Z"
/>
<path fill="#323340" d="
  M 40.68 35.36
  Q 40.39 33.95 39.30 32.70
  A 0.31 0.30 48.4 0 1 39.32 32.27
  L 39.34 32.26
  A 0.26 0.26 0.0 0 1 39.71 32.29
  Q 40.89 33.73 41.20 35.19
  A 0.29 0.28 79.3 0 1 40.97 35.53
  L 40.94 35.54
  A 0.22 0.22 0.0 0 1 40.68 35.36
  Z"
/>
<ellipse fill="#323340" cx="0.00" cy="0.00" transform="translate(33.33,33.70) rotate(-99.8)" rx="0.84" ry="0.74"/>
<path fill="#636373" d="
  M 43.50 35.00
  Q 43.51 35.44 42.50 36.58
  A 0.19 0.19 0.0 0 1 42.19 36.35
  Q 42.94 35.10 42.94 35.01
  Q 42.94 34.91 42.14 33.70
  A 0.19 0.19 0.0 0 1 42.44 33.46
  Q 43.49 34.56 43.50 35.00
  Z"
/>
<path fill="#323340" d="
  M 45.02 34.25
  Q 45.37 34.30 45.57 34.50
  Q 45.82 34.74 45.72 34.99
  Q 45.24 36.26 44.22 36.87
  A 0.14 0.14 0.0 0 1 44.04 36.67
  Q 45.36 35.03 45.02 34.25
  Z"
/>
<path fill="#636373" d="
  M 39.47 36.66
  A 0.25 0.25 0.0 0 1 39.63 36.22
  L 40.15 36.22
  A 0.23 0.23 0.0 0 1 40.29 36.63
  Q 39.84 36.97 39.47 36.66
  Z"
/>
<path fill="#636373" d="
  M 41.47 37.66
  Q 41.26 37.55 41.23 37.27
  A 0.19 0.19 0.0 0 1 41.47 37.06
  Q 41.80 37.15 41.87 37.35
  A 0.28 0.26 5.3 0 1 41.47 37.66
  Z"
/>
<path fill="#323340" d="
  M 43.72 37.74
  A 0.20 0.20 0.0 0 1 43.32 37.79
  Q 43.22 37.44 43.37 37.20
  A 0.19 0.19 0.0 0 1 43.72 37.30
  L 43.72 37.74
  Z"
/>
<path fill="#ffffff" d="
  M 39.63 48.67
  L 41.01 51.05
  A 0.66 0.66 0.0 0 1 40.22 52.01
  Q 33.90 49.84 24.50 50.20
  A 0.83 0.83 0.0 0 1 23.70 49.04
  L 25.38 45.11
  A 1.17 1.16 -71.5 0 1 26.72 44.44
  L 37.34 46.96
  A 3.63 3.60 81.6 0 1 39.63 48.67
  Z"
/>
</svg>
