<?xml version="1.0" encoding="UTF-8" standalone="no"?>
<!DOCTYPE svg PUBLIC "-//W3C//DTD SVG 1.1//EN" "http://www.w3.org/Graphics/SVG/1.1/DTD/svg11.dtd">
<svg xmlns="http://www.w3.org/2000/svg" version="1.1" viewBox="0.00 0.00 66.00 88.00">
<g stroke-width="2.00" fill="none" stroke-linecap="butt">
<path stroke="#4a4b57" vector-effect="non-scaling-stroke" d="
  M 33.42 86.62
  C 34.17 86.62 33.56 86.68 33.80 86.46
  Q 48.86 72.41 57.73 56.26
  C 65.14 42.78 68.01 25.37 56.64 12.87
  Q 47.87 3.22 34.75 2.52
  Q 33.60 2.46 33.50 2.46
  Q 33.40 2.46 32.26 2.52
  Q 19.13 3.19 10.35 12.82
  C -1.05 25.30 1.79 42.72 9.17 56.21
  Q 18.01 72.38 33.04 86.46
  C 33.28 86.68 32.67 86.62 33.42 86.62"
/>
<path stroke="#4c4c5c" vector-effect="non-scaling-stroke" d="
  M 33.41 55.44
  Q 33.60 55.44 33.65 55.37
  Q 37.30 50.67 38.10 49.56
  A 2.16 2.10 -81.0 0 1 39.14 48.78
  Q 45.08 46.68 47.11 40.46
  Q 47.50 39.27 47.91 38.06
  A 0.84 0.82 9.2 0 1 48.70 37.50
  L 52.63 37.50
  A 0.31 0.30 70.3 0 0 52.86 37.00
  L 45.41 27.81
  A 0.36 0.36 0.0 0 0 44.86 27.81
  L 37.25 37.11
  A 0.26 0.26 0.0 0 0 37.45 37.53
  L 41.13 37.53
  A 0.52 0.51 -81.9 0 1 41.62 38.19
  Q 40.57 41.86 37.10 43.15
  A 0.54 0.53 -10.0 0 1 36.38 42.65
  L 36.38 25.57
  A 1.21 1.17 -16.5 0 1 36.94 24.57
  C 42.43 21.13 40.50 12.77 33.45 12.76
  C 26.39 12.75 24.46 21.11 29.93 24.56
  A 1.21 1.17 16.6 0 1 30.49 25.56
  L 30.46 42.64
  A 0.54 0.53 10.1 0 1 29.74 43.14
  Q 26.27 41.85 25.23 38.17
  A 0.52 0.51 82.0 0 1 25.72 37.51
  L 29.40 37.52
  A 0.26 0.26 0.0 0 0 29.60 37.10
  L 22.01 27.79
  A 0.36 0.36 0.0 0 0 21.46 27.79
  L 13.99 36.96
  A 0.31 0.30 -70.2 0 0 14.22 37.46
  L 18.15 37.47
  A 0.84 0.82 -9.1 0 1 18.94 38.03
  Q 19.35 39.24 19.73 40.43
  Q 21.75 46.66 27.69 48.77
  A 2.16 2.10 81.2 0 1 28.72 49.55
  Q 29.52 50.66 33.16 55.37
  Q 33.22 55.44 33.41 55.44"
/>
<path stroke="#9a9aa2" vector-effect="non-scaling-stroke" d="
  M 33.34 52.49
  Q 33.39 52.49 33.40 52.49
  A 0.17 0.01 -3.3 0 0 33.54 52.47
  Q 34.08 51.85 36.74 48.26
  A 3.00 2.95 8.6 0 1 38.17 47.22
  Q 45.56 44.70 46.30 36.76
  A 0.82 0.81 -87.3 0 1 47.11 36.02
  L 49.15 36.02
  A 0.32 0.31 -19.2 0 0 49.40 35.51
  L 45.48 30.67
  A 0.49 0.49 0.0 0 0 44.72 30.67
  L 40.77 35.50
  A 0.31 0.31 0.0 0 0 41.01 36.01
  L 43.00 36.01
  A 0.71 0.71 0.0 0 1 43.70 36.83
  Q 42.50 44.11 35.05 45.64
  A 0.35 0.35 0.0 0 1 34.63 45.30
  L 34.63 24.40
  A 0.83 0.82 -9.4 0 1 35.20 23.62
  Q 37.71 22.78 38.08 20.28
  C 38.61 16.69 37.10 14.25 33.39 14.24
  C 29.68 14.24 28.17 16.67 28.68 20.27
  Q 29.05 22.77 31.55 23.62
  A 0.83 0.82 9.5 0 1 32.12 24.40
  L 32.07 45.30
  A 0.35 0.35 0.0 0 1 31.65 45.64
  Q 24.20 44.09 23.02 36.80
  A 0.71 0.71 0.0 0 1 23.72 35.99
  L 25.71 35.99
  A 0.31 0.31 0.0 0 0 25.96 35.48
  L 22.02 30.64
  A 0.49 0.49 0.0 0 0 21.26 30.64
  L 17.33 35.47
  A 0.32 0.31 19.3 0 0 17.57 35.98
  L 19.61 35.99
  A 0.82 0.81 87.4 0 1 20.42 36.73
  Q 21.14 44.67 28.53 47.21
  A 3.00 2.95 -8.4 0 1 29.95 48.25
  Q 32.61 51.85 33.14 52.47
  A 0.17 0.01 3.5 0 0 33.28 52.49
  Q 33.29 52.49 33.34 52.49"
/>
<path stroke="#9a9aa2" vector-effect="non-scaling-stroke" d="
  M 36.18 19.17
  A 2.81 2.81 0.0 0 0 33.37 16.36
  A 2.81 2.81 0.0 0 0 30.56 19.17
  A 2.81 2.81 0.0 0 0 33.37 21.98
  A 2.81 2.81 0.0 0 0 36.18 19.17"
/>
<path stroke="#4c4c5c" vector-effect="non-scaling-stroke" d="
  M 33.7127 18.0864
  A 1.13 0.98 -77.6 0 0 32.5129 18.9796
  A 1.13 0.98 -77.6 0 0 33.2273 20.2936
  A 1.13 0.98 -77.6 0 0 34.4271 19.4004
  A 1.13 0.98 -77.6 0 0 33.7127 18.0864"
/>
</g>
<path fill="#31333b" d="
  M 33.81 88.00
  L 33.04 88.00
  C 22.05 78.02 11.69 65.34 5.65 51.56
  Q 2.12 43.52 1.56 34.89
  C 0.22 14.55 18.33 -1.37 38.53 1.73
  C 54.15 4.13 65.89 17.67 65.46 33.56
  Q 65.28 40.52 63.04 47.01
  C 57.67 62.60 45.94 76.93 33.81 88.00
  Z
  M 33.42 86.62
  C 34.17 86.62 33.56 86.68 33.80 86.46
  Q 48.86 72.41 57.73 56.26
  C 65.14 42.78 68.01 25.37 56.64 12.87
  Q 47.87 3.22 34.75 2.52
  Q 33.60 2.46 33.50 2.46
  Q 33.40 2.46 32.26 2.52
  Q 19.13 3.19 10.35 12.82
  C -1.05 25.30 1.79 42.72 9.17 56.21
  Q 18.01 72.38 33.04 86.46
  C 33.28 86.68 32.67 86.62 33.42 86.62
  Z"
/>
<path fill="#636373" d="
  M 33.50 2.46
  Q 33.60 2.46 34.75 2.52
  Q 47.87 3.22 56.64 12.87
  C 68.01 25.37 65.14 42.78 57.73 56.26
  Q 48.86 72.41 33.80 86.46
  C 33.56 86.68 34.17 86.62 33.42 86.62
  C 32.67 86.62 33.28 86.68 33.04 86.46
  Q 18.01 72.38 9.17 56.21
  C 1.79 42.72 -1.05 25.30 10.35 12.82
  Q 19.13 3.19 32.26 2.52
  Q 33.40 2.46 33.50 2.46
  Z
  M 33.41 55.44
  Q 33.60 55.44 33.65 55.37
  Q 37.30 50.67 38.10 49.56
  A 2.16 2.10 -81.0 0 1 39.14 48.78
  Q 45.08 46.68 47.11 40.46
  Q 47.50 39.27 47.91 38.06
  A 0.84 0.82 9.2 0 1 48.70 37.50
  L 52.63 37.50
  A 0.31 0.30 70.3 0 0 52.86 37.00
  L 45.41 27.81
  A 0.36 0.36 0.0 0 0 44.86 27.81
  L 37.25 37.11
  A 0.26 0.26 0.0 0 0 37.45 37.53
  L 41.13 37.53
  A 0.52 0.51 -81.9 0 1 41.62 38.19
  Q 40.57 41.86 37.10 43.15
  A 0.54 0.53 -10.0 0 1 36.38 42.65
  L 36.38 25.57
  A 1.21 1.17 -16.5 0 1 36.94 24.57
  C 42.43 21.13 40.50 12.77 33.45 12.76
  C 26.39 12.75 24.46 21.11 29.93 24.56
  A 1.21 1.17 16.6 0 1 30.49 25.56
  L 30.46 42.64
  A 0.54 0.53 10.1 0 1 29.74 43.14
  Q 26.27 41.85 25.23 38.17
  A 0.52 0.51 82.0 0 1 25.72 37.51
  L 29.40 37.52
  A 0.26 0.26 0.0 0 0 29.60 37.10
  L 22.01 27.79
  A 0.36 0.36 0.0 0 0 21.46 27.79
  L 13.99 36.96
  A 0.31 0.30 -70.2 0 0 14.22 37.46
  L 18.15 37.47
  A 0.84 0.82 -9.1 0 1 18.94 38.03
  Q 19.35 39.24 19.73 40.43
  Q 21.75 46.66 27.69 48.77
  A 2.16 2.10 81.2 0 1 28.72 49.55
  Q 29.52 50.66 33.16 55.37
  Q 33.22 55.44 33.41 55.44
  Z"
/>
<path fill="#343444" d="
  M 33.45 12.76
  C 40.50 12.77 42.43 21.13 36.94 24.57
  A 1.21 1.17 -16.5 0 0 36.38 25.57
  L 36.38 42.65
  A 0.54 0.53 -10.0 0 0 37.10 43.15
  Q 40.57 41.86 41.62 38.19
  A 0.52 0.51 -81.9 0 0 41.13 37.53
  L 37.45 37.53
  A 0.26 0.26 0.0 0 1 37.25 37.11
  L 44.86 27.81
  A 0.36 0.36 0.0 0 1 45.41 27.81
  L 52.86 37.00
  A 0.31 0.30 70.3 0 1 52.63 37.50
  L 48.70 37.50
  A 0.84 0.82 9.2 0 0 47.91 38.06
  Q 47.50 39.27 47.11 40.46
  Q 45.08 46.68 39.14 48.78
  A 2.16 2.10 -81.0 0 0 38.10 49.56
  Q 37.30 50.67 33.65 55.37
  Q 33.60 55.44 33.41 55.44
  Q 33.22 55.44 33.16 55.37
  Q 29.52 50.66 28.72 49.55
  A 2.16 2.10 81.2 0 0 27.69 48.77
  Q 21.75 46.66 19.73 40.43
  Q 19.35 39.24 18.94 38.03
  A 0.84 0.82 -9.1 0 0 18.15 37.47
  L 14.22 37.46
  A 0.31 0.30 -70.2 0 1 13.99 36.96
  L 21.46 27.79
  A 0.36 0.36 0.0 0 1 22.01 27.79
  L 29.60 37.10
  A 0.26 0.26 0.0 0 1 29.40 37.52
  L 25.72 37.51
  A 0.52 0.51 82.0 0 0 25.23 38.17
  Q 26.27 41.85 29.74 43.14
  A 0.54 0.53 10.1 0 0 30.46 42.64
  L 30.49 25.56
  A 1.21 1.17 16.6 0 0 29.93 24.56
  C 24.46 21.11 26.39 12.75 33.45 12.76
  Z
  M 33.34 52.49
  Q 33.39 52.49 33.40 52.49
  A 0.17 0.01 -3.3 0 0 33.54 52.47
  Q 34.08 51.85 36.74 48.26
  A 3.00 2.95 8.6 0 1 38.17 47.22
  Q 45.56 44.70 46.30 36.76
  A 0.82 0.81 -87.3 0 1 47.11 36.02
  L 49.15 36.02
  A 0.32 0.31 -19.2 0 0 49.40 35.51
  L 45.48 30.67
  A 0.49 0.49 0.0 0 0 44.72 30.67
  L 40.77 35.50
  A 0.31 0.31 0.0 0 0 41.01 36.01
  L 43.00 36.01
  A 0.71 0.71 0.0 0 1 43.70 36.83
  Q 42.50 44.11 35.05 45.64
  A 0.35 0.35 0.0 0 1 34.63 45.30
  L 34.63 24.40
  A 0.83 0.82 -9.4 0 1 35.20 23.62
  Q 37.71 22.78 38.08 20.28
  C 38.61 16.69 37.10 14.25 33.39 14.24
  C 29.68 14.24 28.17 16.67 28.68 20.27
  Q 29.05 22.77 31.55 23.62
  A 0.83 0.82 9.5 0 1 32.12 24.40
  L 32.07 45.30
  A 0.35 0.35 0.0 0 1 31.65 45.64
  Q 24.20 44.09 23.02 36.80
  A 0.71 0.71 0.0 0 1 23.72 35.99
  L 25.71 35.99
  A 0.31 0.31 0.0 0 0 25.96 35.48
  L 22.02 30.64
  A 0.49 0.49 0.0 0 0 21.26 30.64
  L 17.33 35.47
  A 0.32 0.31 19.3 0 0 17.57 35.98
  L 19.61 35.99
  A 0.82 0.81 87.4 0 1 20.42 36.73
  Q 21.14 44.67 28.53 47.21
  A 3.00 2.95 -8.4 0 1 29.95 48.25
  Q 32.61 51.85 33.14 52.47
  A 0.17 0.01 3.5 0 0 33.28 52.49
  Q 33.29 52.49 33.34 52.49
  Z"
/>
<path fill="#ffffff" d="
  M 33.39 14.24
  C 37.10 14.25 38.61 16.69 38.08 20.28
  Q 37.71 22.78 35.20 23.62
  A 0.83 0.82 -9.4 0 0 34.63 24.40
  L 34.63 45.30
  A 0.35 0.35 0.0 0 0 35.05 45.64
  Q 42.50 44.11 43.70 36.83
  A 0.71 0.71 0.0 0 0 43.00 36.01
  L 41.01 36.01
  A 0.31 0.31 0.0 0 1 40.77 35.50
  L 44.72 30.67
  A 0.49 0.49 0.0 0 1 45.48 30.67
  L 49.40 35.51
  A 0.32 0.31 -19.2 0 1 49.15 36.02
  L 47.11 36.02
  A 0.82 0.81 -87.3 0 0 46.30 36.76
  Q 45.56 44.70 38.17 47.22
  A 3.00 2.95 8.6 0 0 36.74 48.26
  Q 34.08 51.85 33.54 52.47
  A 0.17 0.01 -3.3 0 1 33.40 52.49
  Q 33.39 52.49 33.34 52.49
  Q 33.29 52.49 33.28 52.49
  A 0.17 0.01 3.5 0 1 33.14 52.47
  Q 32.61 51.85 29.95 48.25
  A 3.00 2.95 -8.4 0 0 28.53 47.21
  Q 21.14 44.67 20.42 36.73
  A 0.82 0.81 87.4 0 0 19.61 35.99
  L 17.57 35.98
  A 0.32 0.31 19.3 0 1 17.33 35.47
  L 21.26 30.64
  A 0.49 0.49 0.0 0 1 22.02 30.64
  L 25.96 35.48
  A 0.31 0.31 0.0 0 1 25.71 35.99
  L 23.72 35.99
  A 0.71 0.71 0.0 0 0 23.02 36.80
  Q 24.20 44.09 31.65 45.64
  A 0.35 0.35 0.0 0 0 32.07 45.30
  L 32.12 24.40
  A 0.83 0.82 9.5 0 0 31.55 23.62
  Q 29.05 22.77 28.68 20.27
  C 28.17 16.67 29.68 14.24 33.39 14.24
  Z
  M 36.18 19.17
  A 2.81 2.81 0.0 0 0 33.37 16.36
  A 2.81 2.81 0.0 0 0 30.56 19.17
  A 2.81 2.81 0.0 0 0 33.37 21.98
  A 2.81 2.81 0.0 0 0 36.18 19.17
  Z"
/>
<path fill="#343444" d="
  M 36.18 19.17
  A 2.81 2.81 0.0 0 1 33.37 21.98
  A 2.81 2.81 0.0 0 1 30.56 19.17
  A 2.81 2.81 0.0 0 1 33.37 16.36
  A 2.81 2.81 0.0 0 1 36.18 19.17
  Z
  M 33.7127 18.0864
  A 1.13 0.98 -77.6 0 0 32.5129 18.9796
  A 1.13 0.98 -77.6 0 0 33.2273 20.2936
  A 1.13 0.98 -77.6 0 0 34.4271 19.4004
  A 1.13 0.98 -77.6 0 0 33.7127 18.0864
  Z"
/>
<ellipse fill="#636373" cx="0.00" cy="0.00" transform="translate(33.47,19.19) rotate(-77.6)" rx="1.13" ry="0.98"/>
</svg>
