<?xml version="1.0" encoding="UTF-8" standalone="no"?>
<!DOCTYPE svg PUBLIC "-//W3C//DTD SVG 1.1//EN" "http://www.w3.org/Graphics/SVG/1.1/DTD/svg11.dtd">
<svg xmlns="http://www.w3.org/2000/svg" version="1.1" viewBox="0.00 0.00 66.00 88.00">
<g stroke-width="2.00" fill="none" stroke-linecap="butt">
<path stroke="#4a4b57" vector-effect="non-scaling-stroke" d="
  M 33.42 86.62
  C 34.17 86.62 33.57 86.67 33.79 86.47
  Q 47.27 74.01 56.32 58.83
  C 63.69 46.47 68.30 29.30 59.37 16.39
  Q 50.20 3.10 33.75 2.46
  Q 33.63 2.45 33.50 2.45
  Q 33.38 2.45 33.26 2.46
  Q 16.81 3.07 7.61 16.34
  C -1.35 29.23 3.23 46.41 10.57 58.78
  Q 19.59 73.98 33.05 86.47
  C 33.27 86.67 32.67 86.62 33.42 86.62"
/>
<path stroke="#4c4c5c" vector-effect="non-scaling-stroke" d="
  M 48.4444 15.2053
  A 0.49 0.49 0.0 0 0 47.9527 14.7170
  L 17.5129 14.8232
  A 0.49 0.49 0.0 0 0 17.0246 15.3150
  L 17.1556 52.8347
  A 0.49 0.49 0.0 0 0 17.6473 53.3230
  L 48.0871 53.2168
  A 0.49 0.49 0.0 0 0 48.5754 52.7250
  L 48.4444 15.2053"
/>
<path stroke="#9a9aa2" vector-effect="non-scaling-stroke" d="
  M 47.3206 16.5152
  A 0.48 0.48 0.0 0 0 46.8414 16.0344
  L 18.9615 15.9857
  A 0.48 0.48 0.0 0 0 18.4806 16.4649
  L 18.4194 51.5248
  A 0.48 0.48 0.0 0 0 18.8986 52.0056
  L 46.7785 52.0543
  A 0.48 0.48 0.0 0 0 47.2594 51.5751
  L 47.3206 16.5152"
/>
<path stroke="#9a9aa2" vector-effect="non-scaling-stroke" d="
  M 44.73 20.87
  A 0.81 0.81 0.0 0 0 43.92 20.06
  L 21.86 20.06
  A 0.81 0.81 0.0 0 0 21.05 20.87
  L 21.05 25.15
  A 0.81 0.81 0.0 0 0 21.86 25.96
  L 43.92 25.96
  A 0.81 0.81 0.0 0 0 44.73 25.15
  L 44.73 20.87"
/>
<path stroke="#98999d" vector-effect="non-scaling-stroke" d="
  M 21.32 32.12
  Q 21.13 32.82 21.23 33.42
  A 0.63 0.63 0.0 0 0 21.86 33.93
  L 44.62 33.48"
/>
<path stroke="#b1b1b9" vector-effect="non-scaling-stroke" d="
  M 44.62 33.48
  L 44.49 28.95
  A 0.58 0.58 0.0 0 0 43.91 28.39
  L 21.99 28.39
  A 0.69 0.68 7.8 0 0 21.33 28.89
  Q 20.86 30.53 21.32 32.12"
/>
<path stroke="#4a4b57" vector-effect="non-scaling-stroke" d="
  M 44.62 33.48
  Q 33.73 32.57 25.25 33.06
  Q 22.81 33.20 21.32 32.12"
/>
<path stroke="#9a9aa2" vector-effect="non-scaling-stroke" d="
  M 36.2740 37.2031
  A 0.42 0.42 0.0 0 0 35.8548 36.7824
  L 21.6348 36.7576
  A 0.42 0.42 0.0 0 0 21.2141 37.1769
  L 21.2060 41.8169
  A 0.42 0.42 0.0 0 0 21.6252 42.2376
  L 35.8452 42.2624
  A 0.42 0.42 0.0 0 0 36.2659 41.8431
  L 36.2740 37.2031"
/>
<path stroke="#4c4c5c" vector-effect="non-scaling-stroke" d="
  M 43.3409 22.7156
  A 0.98 0.98 0.0 0 0 42.3643 21.7322
  L 23.9044 21.6678
  A 0.98 0.98 0.0 0 0 22.9210 22.6444
  L 22.9191 23.1844
  A 0.98 0.98 0.0 0 0 23.8957 24.1678
  L 42.3556 24.2322
  A 0.98 0.98 0.0 0 0 43.3390 23.2556
  L 43.3409 22.7156"
/>
<path stroke="#4c4c5c" vector-effect="non-scaling-stroke" d="
  M 35.1126 38.7434
  A 0.80 0.80 0.0 0 0 34.3154 37.9406
  L 22.5155 37.8994
  A 0.80 0.80 0.0 0 0 21.7127 38.6966
  L 21.7074 40.2366
  A 0.80 0.80 0.0 0 0 22.5046 41.0394
  L 34.3045 41.0806
  A 0.80 0.80 0.0 0 0 35.1073 40.2834
  L 35.1126 38.7434"
/>
</g>
<path fill="#30323a" d="
  M 33.80 88.00
  L 33.13 88.00
  Q 15.42 72.27 5.96 52.53
  Q 3.42 47.22 2.05 39.25
  Q 0.37 29.48 3.80 21.04
  Q 7.34 12.31 15.39 6.88
  C 27.30 -1.17 42.64 -0.38 53.85 8.54
  Q 62.36 15.32 64.81 26.53
  Q 66.67 35.01 63.57 45.33
  C 58.73 61.42 46.20 76.70 33.80 88.00
  Z
  M 33.42 86.62
  C 34.17 86.62 33.57 86.67 33.79 86.47
  Q 47.27 74.01 56.32 58.83
  C 63.69 46.47 68.30 29.30 59.37 16.39
  Q 50.20 3.10 33.75 2.46
  Q 33.63 2.45 33.50 2.45
  Q 33.38 2.45 33.26 2.46
  Q 16.81 3.07 7.61 16.34
  C -1.35 29.23 3.23 46.41 10.57 58.78
  Q 19.59 73.98 33.05 86.47
  C 33.27 86.67 32.67 86.62 33.42 86.62
  Z"
/>
<path fill="#636373" d="
  M 33.50 2.45
  Q 33.63 2.45 33.75 2.46
  Q 50.20 3.10 59.37 16.39
  C 68.30 29.30 63.69 46.47 56.32 58.83
  Q 47.27 74.01 33.79 86.47
  C 33.57 86.67 34.17 86.62 33.42 86.62
  C 32.67 86.62 33.27 86.67 33.05 86.47
  Q 19.59 73.98 10.57 58.78
  C 3.23 46.41 -1.35 29.23 7.61 16.34
  Q 16.81 3.07 33.26 2.46
  Q 33.38 2.45 33.50 2.45
  Z
  M 48.4444 15.2053
  A 0.49 0.49 0.0 0 0 47.9527 14.7170
  L 17.5129 14.8232
  A 0.49 0.49 0.0 0 0 17.0246 15.3150
  L 17.1556 52.8347
  A 0.49 0.49 0.0 0 0 17.6473 53.3230
  L 48.0871 53.2168
  A 0.49 0.49 0.0 0 0 48.5754 52.7250
  L 48.4444 15.2053
  Z"
/>
<path fill="#353545" d="
  M 48.5754 52.7250
  A 0.49 0.49 0.0 0 1 48.0871 53.2168
  L 17.6473 53.3230
  A 0.49 0.49 0.0 0 1 17.1556 52.8347
  L 17.0246 15.3150
  A 0.49 0.49 0.0 0 1 17.5129 14.8232
  L 47.9527 14.7170
  A 0.49 0.49 0.0 0 1 48.4444 15.2053
  L 48.5754 52.7250
  Z
  M 47.3206 16.5152
  A 0.48 0.48 0.0 0 0 46.8414 16.0344
  L 18.9615 15.9857
  A 0.48 0.48 0.0 0 0 18.4806 16.4649
  L 18.4194 51.5248
  A 0.48 0.48 0.0 0 0 18.8986 52.0056
  L 46.7785 52.0543
  A 0.48 0.48 0.0 0 0 47.2594 51.5751
  L 47.3206 16.5152
  Z"
/>
<path fill="#ffffff" d="
  M 47.2594 51.5751
  A 0.48 0.48 0.0 0 1 46.7785 52.0543
  L 18.8986 52.0056
  A 0.48 0.48 0.0 0 1 18.4194 51.5248
  L 18.4806 16.4649
  A 0.48 0.48 0.0 0 1 18.9615 15.9857
  L 46.8414 16.0344
  A 0.48 0.48 0.0 0 1 47.3206 16.5152
  L 47.2594 51.5751
  Z
  M 44.73 20.87
  A 0.81 0.81 0.0 0 0 43.92 20.06
  L 21.86 20.06
  A 0.81 0.81 0.0 0 0 21.05 20.87
  L 21.05 25.15
  A 0.81 0.81 0.0 0 0 21.86 25.96
  L 43.92 25.96
  A 0.81 0.81 0.0 0 0 44.73 25.15
  L 44.73 20.87
  Z
  M 21.32 32.12
  Q 21.13 32.82 21.23 33.42
  A 0.63 0.63 0.0 0 0 21.86 33.93
  L 44.62 33.48
  L 44.49 28.95
  A 0.58 0.58 0.0 0 0 43.91 28.39
  L 21.99 28.39
  A 0.69 0.68 7.8 0 0 21.33 28.89
  Q 20.86 30.53 21.32 32.12
  Z
  M 36.2740 37.2031
  A 0.42 0.42 0.0 0 0 35.8548 36.7824
  L 21.6348 36.7576
  A 0.42 0.42 0.0 0 0 21.2141 37.1769
  L 21.2060 41.8169
  A 0.42 0.42 0.0 0 0 21.6252 42.2376
  L 35.8452 42.2624
  A 0.42 0.42 0.0 0 0 36.2659 41.8431
  L 36.2740 37.2031
  Z"
/>
<path fill="#353545" d="
  M 44.73 25.15
  A 0.81 0.81 0.0 0 1 43.92 25.96
  L 21.86 25.96
  A 0.81 0.81 0.0 0 1 21.05 25.15
  L 21.05 20.87
  A 0.81 0.81 0.0 0 1 21.86 20.06
  L 43.92 20.06
  A 0.81 0.81 0.0 0 1 44.73 20.87
  L 44.73 25.15
  Z
  M 43.3409 22.7156
  A 0.98 0.98 0.0 0 0 42.3643 21.7322
  L 23.9044 21.6678
  A 0.98 0.98 0.0 0 0 22.9210 22.6444
  L 22.9191 23.1844
  A 0.98 0.98 0.0 0 0 23.8957 24.1678
  L 42.3556 24.2322
  A 0.98 0.98 0.0 0 0 43.3390 23.2556
  L 43.3409 22.7156
  Z"
/>
<rect fill="#636373" x="-10.21" y="-1.25" transform="translate(33.13,22.95) rotate(0.2)" width="20.42" height="2.50" rx="0.98"/>
<path fill="#636373" d="
  M 44.62 33.48
  Q 33.73 32.57 25.25 33.06
  Q 22.81 33.20 21.32 32.12
  Q 20.86 30.53 21.33 28.89
  A 0.69 0.68 7.8 0 1 21.99 28.39
  L 43.91 28.39
  A 0.58 0.58 0.0 0 1 44.49 28.95
  L 44.62 33.48
  Z"
/>
<path fill="#30323a" d="
  M 44.62 33.48
  L 21.86 33.93
  A 0.63 0.63 0.0 0 1 21.23 33.42
  Q 21.13 32.82 21.32 32.12
  Q 22.81 33.20 25.25 33.06
  Q 33.73 32.57 44.62 33.48
  Z"
/>
<path fill="#353545" d="
  M 36.2659 41.8431
  A 0.42 0.42 0.0 0 1 35.8452 42.2624
  L 21.6252 42.2376
  A 0.42 0.42 0.0 0 1 21.2060 41.8169
  L 21.2141 37.1769
  A 0.42 0.42 0.0 0 1 21.6348 36.7576
  L 35.8548 36.7824
  A 0.42 0.42 0.0 0 1 36.2740 37.2031
  L 36.2659 41.8431
  Z
  M 35.1126 38.7434
  A 0.80 0.80 0.0 0 0 34.3154 37.9406
  L 22.5155 37.8994
  A 0.80 0.80 0.0 0 0 21.7127 38.6966
  L 21.7074 40.2366
  A 0.80 0.80 0.0 0 0 22.5046 41.0394
  L 34.3045 41.0806
  A 0.80 0.80 0.0 0 0 35.1073 40.2834
  L 35.1126 38.7434
  Z"
/>
<rect fill="#636373" x="-6.70" y="-1.57" transform="translate(28.41,39.49) rotate(0.2)" width="13.40" height="3.14" rx="0.80"/>
</svg>
