<?xml version="1.0" encoding="UTF-8" standalone="no"?>
<!DOCTYPE svg PUBLIC "-//W3C//DTD SVG 1.1//EN" "http://www.w3.org/Graphics/SVG/1.1/DTD/svg11.dtd">
<svg xmlns="http://www.w3.org/2000/svg" version="1.1" viewBox="0.00 0.00 66.00 88.00">
<g stroke-width="2.00" fill="none" stroke-linecap="butt">
<path stroke="#87352b" vector-effect="non-scaling-stroke" d="
  M 33.42 86.71
  Q 33.52 86.71 33.63 86.69
  Q 33.64 86.69 33.77 86.57
  C 50.02 71.42 73.75 41.53 60.42 18.11
  C 54.98 8.56 44.66 2.46 33.52 2.45
  C 22.37 2.44 12.03 8.51 6.57 18.05
  C -6.81 41.43 16.85 71.38 33.06 86.57
  Q 33.19 86.69 33.21 86.69
  Q 33.31 86.71 33.42 86.71"
/>
<path stroke="#753d3e" vector-effect="non-scaling-stroke" d="
  M 14.51 30.45
  L 11.85 32.93
  A 1.62 1.59 -17.8 0 0 11.35 33.88
  Q 10.61 38.85 12.08 43.12
  A 1.42 1.41 0.5 0 0 12.94 43.99
  L 41.38 54.05
  A 1.14 1.14 0.0 0 0 42.55 53.81
  L 54.28 42.87
  A 2.75 2.73 65.9 0 0 55.14 40.60
  L 54.25 31.51
  A 1.19 1.15 -44.2 0 1 54.26 31.17
  Q 54.51 29.84 54.21 25.35
  A 1.63 1.61 -69.5 0 0 53.74 24.31
  L 43.92 14.56
  A 1.97 1.96 57.2 0 0 41.86 14.11
  L 16.84 23.11
  A 1.90 1.89 -11.6 0 0 15.59 25.00
  Q 15.73 27.38 15.10 29.49
  A 2.12 2.08 -13.9 0 1 14.51 30.45"
/>
<path stroke="#9b99a0" vector-effect="non-scaling-stroke" d="
  M 26.88 33.73
  A 0.36 0.36 0.0 0 0 27.26 33.82
  L 51.48 25.10
  A 0.36 0.36 0.0 0 0 51.62 24.52
  L 43.16 15.45
  A 0.36 0.36 0.0 0 0 42.78 15.36
  L 18.56 24.08
  A 0.36 0.36 0.0 0 0 18.42 24.66
  L 26.88 33.73"
/>
<path stroke="#9b99a0" vector-effect="non-scaling-stroke" d="
  M 23.53 31.90
  Q 18.65 27.12 17.44 25.93
  A 0.33 0.32 -65.9 0 0 16.89 26.14
  L 16.59 31.37
  A 1.59 1.59 0.0 0 0 17.06 32.60
  Q 17.23 32.77 19.98 35.47
  Q 24.87 40.24 26.08 41.43
  A 0.33 0.32 -65.9 0 0 26.63 41.21
  L 26.93 35.99
  A 1.59 1.59 0.0 0 0 26.46 34.76
  Q 26.29 34.59 23.53 31.90"
/>
<path stroke="#9b99a0" vector-effect="non-scaling-stroke" d="
  M 48.14 33.12
  L 47.90 28.78
  A 0.59 0.59 0.0 0 0 47.11 28.26
  L 32.92 33.37
  A 0.22 0.22 0.0 0 0 32.77 33.58
  L 32.77 39.78
  A 0.10 0.09 -11.3 0 0 32.90 39.86
  L 45.37 35.37
  A 1.18 1.17 -10.0 0 0 46.15 34.27
  L 46.15 29.38
  A 0.15 0.14 82.1 0 1 46.25 29.24
  L 46.54 29.13
  A 0.37 0.36 -9.7 0 1 47.03 29.47
  L 47.03 33.36
  A 1.01 1.01 0.0 0 0 48.38 34.31
  L 52.25 32.92
  A 0.99 0.97 80.4 0 0 52.90 31.99
  L 52.90 26.57
  A 0.31 0.31 0.0 0 0 52.49 26.28
  L 48.78 27.62
  A 0.60 0.60 0.0 0 0 48.40 28.33
  Q 49.03 30.75 48.61 33.23
  A 0.24 0.24 0.0 0 1 48.35 33.43
  L 48.34 33.43
  A 0.38 0.37 12.9 0 1 48.14 33.12"
/>
<path stroke="#9b99a0" vector-effect="non-scaling-stroke" d="
  M 13.99 32.57
  Q 13.73 32.95 13.71 33.00
  A 0.53 0.52 22.3 0 0 14.00 33.70
  Q 16.66 34.73 16.79 34.55
  Q 16.92 34.36 15.05 32.20
  A 0.53 0.52 48.2 0 0 14.30 32.16
  Q 14.26 32.20 13.99 32.57"
/>
<path stroke="#9b99a0" vector-effect="non-scaling-stroke" d="
  M 32.0451 34.1730
  A 0.28 0.28 0.0 0 0 31.7617 33.8964
  L 31.1418 33.9040
  A 0.28 0.28 0.0 0 0 30.8652 34.1874
  L 30.9349 39.8870
  A 0.28 0.28 0.0 0 0 31.2183 40.1636
  L 31.8382 40.1560
  A 0.28 0.28 0.0 0 0 32.1148 39.8726
  L 32.0451 34.1730"
/>
<path stroke="#9b99a0" vector-effect="non-scaling-stroke" d="
  M 28.79 41.40
  C 30.78 40.76 30.52 36.24 30.17 35.18
  A 1.02 1.02 0.0 0 0 28.18 35.50
  L 28.18 40.96
  A 0.47 0.46 -8.8 0 0 28.79 41.40"
/>
<path stroke="#9b99a0" vector-effect="non-scaling-stroke" d="
  M 45.64 41.33
  Q 42.49 44.39 42.30 44.58
  A 1.81 1.81 0.0 0 0 41.76 45.98
  L 42.09 51.92
  A 0.37 0.37 0.0 0 0 42.72 52.16
  Q 44.10 50.81 49.66 45.40
  Q 52.79 42.33 52.99 42.14
  A 1.81 1.81 0.0 0 0 53.52 40.74
  L 53.19 34.80
  A 0.37 0.37 0.0 0 0 52.57 34.56
  Q 51.19 35.91 45.64 41.33"
/>
<path stroke="#9b99a0" vector-effect="non-scaling-stroke" d="
  M 12.81 41.26
  A 1.92 1.91 7.1 0 0 14.07 42.87
  L 17.54 44.09
  A 0.50 0.50 0.0 0 0 18.14 43.38
  Q 16.66 40.78 17.91 37.46
  A 0.82 0.81 20.2 0 0 17.42 36.41
  L 13.26 34.94
  A 0.74 0.74 0.0 0 0 12.27 35.71
  L 12.81 41.26"
/>
<path stroke="#9b99a0" vector-effect="non-scaling-stroke" d="
  M 48.77 35.69
  L 34.91 40.68
  A 0.27 0.26 44.4 0 0 34.92 41.18
  L 40.86 43.28
  A 0.65 0.64 33.1 0 0 41.53 43.14
  L 49.05 36.14
  A 0.27 0.27 0.0 0 0 48.77 35.69"
/>
<path stroke="#9b99a0" vector-effect="non-scaling-stroke" d="
  M 37.48 50.54
  Q 36.62 47.56 37.51 44.32
  A 0.19 0.19 0.0 0 1 37.89 44.37
  L 37.89 49.59
  A 1.52 1.52 0.0 0 0 38.31 50.64
  L 39.71 52.14
  A 0.65 0.65 0.0 0 0 40.83 51.56
  Q 40.16 48.46 40.57 45.10
  A 0.37 0.36 13.8 0 0 40.33 44.71
  L 36.43 43.33
  A 0.35 0.35 0.0 0 0 35.96 43.65
  L 35.87 49.53
  A 0.26 0.24 83.7 0 1 35.70 49.76
  L 35.65 49.78
  A 0.18 0.17 -14.0 0 1 35.43 49.65
  Q 34.64 46.23 35.57 43.54
  A 0.57 0.57 0.0 0 0 35.22 42.81
  L 32.36 41.80
  A 0.92 0.88 -43.7 0 0 31.75 41.80
  L 27.25 43.42
  A 1.00 0.99 56.2 0 1 26.23 43.21
  L 21.66 38.97
  A 2.47 2.43 71.4 0 0 20.42 38.34
  Q 20.09 38.29 19.81 37.43
  A 0.66 0.66 0.0 0 0 18.61 37.30
  Q 17.09 39.96 19.08 44.43
  A 0.49 0.47 68.7 0 0 19.65 44.69
  L 19.67 44.68
  A 0.48 0.47 -16.2 0 0 19.99 44.11
  Q 19.25 41.21 19.69 38.56
  A 0.08 0.07 4.1 0 1 19.77 38.50
  L 20.09 38.50
  A 0.24 0.23 -84.9 0 1 20.32 38.78
  Q 19.77 41.95 20.98 44.77
  A 1.45 1.44 -1.9 0 0 21.82 45.55
  L 37.05 50.94
  A 0.33 0.33 0.0 0 0 37.48 50.54"
/>
<path stroke="#9b99a0" vector-effect="non-scaling-stroke" d="
  M 34.30 27.39
  Q 35.68 27.56 36.06 27.68
  A 1.26 1.24 -54.7 0 0 37.17 27.48
  Q 39.12 26.03 39.17 23.50
  A 1.21 1.19 -79.9 0 0 38.37 22.34
  Q 36.78 21.79 35.14 21.58
  Q 33.77 21.40 33.39 21.29
  A 1.26 1.24 -54.7 0 0 32.27 21.49
  Q 30.32 22.94 30.27 25.47
  A 1.21 1.19 -79.9 0 0 31.08 26.63
  Q 32.66 27.18 34.30 27.39"
/>
<path stroke="#9b99a0" vector-effect="non-scaling-stroke" d="
  M 34.29 26.65
  C 36.40 27.02 37.32 27.50 38.33 24.72
  A 1.53 1.52 17.8 0 0 37.30 22.73
  Q 37.29 22.72 35.09 22.33
  C 32.98 21.96 32.06 21.49 31.04 24.27
  A 1.53 1.52 17.8 0 0 32.07 26.26
  Q 32.08 26.26 34.29 26.65"
/>
</g>
<path fill="#5b221b" d="
  M 33.82 88.00
  L 33.04 88.00
  C 21.78 77.77 12.07 65.63 5.64 51.57
  Q 2.20 44.04 1.59 34.89
  C 0.54 18.98 11.22 5.65 26.48 2.10
  C 40.59 -1.18 55.26 5.60 62.16 18.85
  C 67.40 28.89 65.85 41.27 61.31 51.53
  C 55.18 65.40 44.97 77.81 33.82 88.00
  Z
  M 33.42 86.71
  Q 33.52 86.71 33.63 86.69
  Q 33.64 86.69 33.77 86.57
  C 50.02 71.42 73.75 41.53 60.42 18.11
  C 54.98 8.56 44.66 2.46 33.52 2.45
  C 22.37 2.44 12.03 8.51 6.57 18.05
  C -6.81 41.43 16.85 71.38 33.06 86.57
  Q 33.19 86.69 33.21 86.69
  Q 33.31 86.71 33.42 86.71
  Z"
/>
<path fill="#b3473b" d="
  M 33.52 2.45
  C 44.66 2.46 54.98 8.56 60.42 18.11
  C 73.75 41.53 50.02 71.42 33.77 86.57
  Q 33.64 86.69 33.63 86.69
  Q 33.52 86.71 33.42 86.71
  Q 33.31 86.71 33.21 86.69
  Q 33.19 86.69 33.06 86.57
  C 16.85 71.38 -6.81 41.43 6.57 18.05
  C 12.03 8.51 22.37 2.44 33.52 2.45
  Z
  M 14.51 30.45
  L 11.85 32.93
  A 1.62 1.59 -17.8 0 0 11.35 33.88
  Q 10.61 38.85 12.08 43.12
  A 1.42 1.41 0.5 0 0 12.94 43.99
  L 41.38 54.05
  A 1.14 1.14 0.0 0 0 42.55 53.81
  L 54.28 42.87
  A 2.75 2.73 65.9 0 0 55.14 40.60
  L 54.25 31.51
  A 1.19 1.15 -44.2 0 1 54.26 31.17
  Q 54.51 29.84 54.21 25.35
  A 1.63 1.61 -69.5 0 0 53.74 24.31
  L 43.92 14.56
  A 1.97 1.96 57.2 0 0 41.86 14.11
  L 16.84 23.11
  A 1.90 1.89 -11.6 0 0 15.59 25.00
  Q 15.73 27.38 15.10 29.49
  A 2.12 2.08 -13.9 0 1 14.51 30.45
  Z"
/>
<path fill="#363341" d="
  M 15.10 29.49
  Q 15.73 27.38 15.59 25.00
  A 1.90 1.89 -11.6 0 1 16.84 23.11
  L 41.86 14.11
  A 1.97 1.96 57.2 0 1 43.92 14.56
  L 53.74 24.31
  A 1.63 1.61 -69.5 0 1 54.21 25.35
  Q 54.51 29.84 54.26 31.17
  A 1.19 1.15 -44.2 0 0 54.25 31.51
  L 55.14 40.60
  A 2.75 2.73 65.9 0 1 54.28 42.87
  L 42.55 53.81
  A 1.14 1.14 0.0 0 1 41.38 54.05
  L 12.94 43.99
  A 1.42 1.41 0.5 0 1 12.08 43.12
  Q 10.61 38.85 11.35 33.88
  A 1.62 1.59 -17.8 0 1 11.85 32.93
  L 14.51 30.45
  A 2.12 2.08 -13.9 0 0 15.10 29.49
  Z
  M 26.88 33.73
  A 0.36 0.36 0.0 0 0 27.26 33.82
  L 51.48 25.10
  A 0.36 0.36 0.0 0 0 51.62 24.52
  L 43.16 15.45
  A 0.36 0.36 0.0 0 0 42.78 15.36
  L 18.56 24.08
  A 0.36 0.36 0.0 0 0 18.42 24.66
  L 26.88 33.73
  Z
  M 23.53 31.90
  Q 18.65 27.12 17.44 25.93
  A 0.33 0.32 -65.9 0 0 16.89 26.14
  L 16.59 31.37
  A 1.59 1.59 0.0 0 0 17.06 32.60
  Q 17.23 32.77 19.98 35.47
  Q 24.87 40.24 26.08 41.43
  A 0.33 0.32 -65.9 0 0 26.63 41.21
  L 26.93 35.99
  A 1.59 1.59 0.0 0 0 26.46 34.76
  Q 26.29 34.59 23.53 31.90
  Z
  M 48.14 33.12
  L 47.90 28.78
  A 0.59 0.59 0.0 0 0 47.11 28.26
  L 32.92 33.37
  A 0.22 0.22 0.0 0 0 32.77 33.58
  L 32.77 39.78
  A 0.10 0.09 -11.3 0 0 32.90 39.86
  L 45.37 35.37
  A 1.18 1.17 -10.0 0 0 46.15 34.27
  L 46.15 29.38
  A 0.15 0.14 82.1 0 1 46.25 29.24
  L 46.54 29.13
  A 0.37 0.36 -9.7 0 1 47.03 29.47
  L 47.03 33.36
  A 1.01 1.01 0.0 0 0 48.38 34.31
  L 52.25 32.92
  A 0.99 0.97 80.4 0 0 52.90 31.99
  L 52.90 26.57
  A 0.31 0.31 0.0 0 0 52.49 26.28
  L 48.78 27.62
  A 0.60 0.60 0.0 0 0 48.40 28.33
  Q 49.03 30.75 48.61 33.23
  A 0.24 0.24 0.0 0 1 48.35 33.43
  L 48.34 33.43
  A 0.38 0.37 12.9 0 1 48.14 33.12
  Z
  M 13.99 32.57
  Q 13.73 32.95 13.71 33.00
  A 0.53 0.52 22.3 0 0 14.00 33.70
  Q 16.66 34.73 16.79 34.55
  Q 16.92 34.36 15.05 32.20
  A 0.53 0.52 48.2 0 0 14.30 32.16
  Q 14.26 32.20 13.99 32.57
  Z
  M 32.0451 34.1730
  A 0.28 0.28 0.0 0 0 31.7617 33.8964
  L 31.1418 33.9040
  A 0.28 0.28 0.0 0 0 30.8652 34.1874
  L 30.9349 39.8870
  A 0.28 0.28 0.0 0 0 31.2183 40.1636
  L 31.8382 40.1560
  A 0.28 0.28 0.0 0 0 32.1148 39.8726
  L 32.0451 34.1730
  Z
  M 28.79 41.40
  C 30.78 40.76 30.52 36.24 30.17 35.18
  A 1.02 1.02 0.0 0 0 28.18 35.50
  L 28.18 40.96
  A 0.47 0.46 -8.8 0 0 28.79 41.40
  Z
  M 45.64 41.33
  Q 42.49 44.39 42.30 44.58
  A 1.81 1.81 0.0 0 0 41.76 45.98
  L 42.09 51.92
  A 0.37 0.37 0.0 0 0 42.72 52.16
  Q 44.10 50.81 49.66 45.40
  Q 52.79 42.33 52.99 42.14
  A 1.81 1.81 0.0 0 0 53.52 40.74
  L 53.19 34.80
  A 0.37 0.37 0.0 0 0 52.57 34.56
  Q 51.19 35.91 45.64 41.33
  Z
  M 12.81 41.26
  A 1.92 1.91 7.1 0 0 14.07 42.87
  L 17.54 44.09
  A 0.50 0.50 0.0 0 0 18.14 43.38
  Q 16.66 40.78 17.91 37.46
  A 0.82 0.81 20.2 0 0 17.42 36.41
  L 13.26 34.94
  A 0.74 0.74 0.0 0 0 12.27 35.71
  L 12.81 41.26
  Z
  M 48.77 35.69
  L 34.91 40.68
  A 0.27 0.26 44.4 0 0 34.92 41.18
  L 40.86 43.28
  A 0.65 0.64 33.1 0 0 41.53 43.14
  L 49.05 36.14
  A 0.27 0.27 0.0 0 0 48.77 35.69
  Z
  M 37.48 50.54
  Q 36.62 47.56 37.51 44.32
  A 0.19 0.19 0.0 0 1 37.89 44.37
  L 37.89 49.59
  A 1.52 1.52 0.0 0 0 38.31 50.64
  L 39.71 52.14
  A 0.65 0.65 0.0 0 0 40.83 51.56
  Q 40.16 48.46 40.57 45.10
  A 0.37 0.36 13.8 0 0 40.33 44.71
  L 36.43 43.33
  A 0.35 0.35 0.0 0 0 35.96 43.65
  L 35.87 49.53
  A 0.26 0.24 83.7 0 1 35.70 49.76
  L 35.65 49.78
  A 0.18 0.17 -14.0 0 1 35.43 49.65
  Q 34.64 46.23 35.57 43.54
  A 0.57 0.57 0.0 0 0 35.22 42.81
  L 32.36 41.80
  A 0.92 0.88 -43.7 0 0 31.75 41.80
  L 27.25 43.42
  A 1.00 0.99 56.2 0 1 26.23 43.21
  L 21.66 38.97
  A 2.47 2.43 71.4 0 0 20.42 38.34
  Q 20.09 38.29 19.81 37.43
  A 0.66 0.66 0.0 0 0 18.61 37.30
  Q 17.09 39.96 19.08 44.43
  A 0.49 0.47 68.7 0 0 19.65 44.69
  L 19.67 44.68
  A 0.48 0.47 -16.2 0 0 19.99 44.11
  Q 19.25 41.21 19.69 38.56
  A 0.08 0.07 4.1 0 1 19.77 38.50
  L 20.09 38.50
  A 0.24 0.23 -84.9 0 1 20.32 38.78
  Q 19.77 41.95 20.98 44.77
  A 1.45 1.44 -1.9 0 0 21.82 45.55
  L 37.05 50.94
  A 0.33 0.33 0.0 0 0 37.48 50.54
  Z"
/>
<path fill="#ffffff" d="
  M 26.88 33.73
  L 18.42 24.66
  A 0.36 0.36 0.0 0 1 18.56 24.08
  L 42.78 15.36
  A 0.36 0.36 0.0 0 1 43.16 15.45
  L 51.62 24.52
  A 0.36 0.36 0.0 0 1 51.48 25.10
  L 27.26 33.82
  A 0.36 0.36 0.0 0 1 26.88 33.73
  Z
  M 34.30 27.39
  Q 35.68 27.56 36.06 27.68
  A 1.26 1.24 -54.7 0 0 37.17 27.48
  Q 39.12 26.03 39.17 23.50
  A 1.21 1.19 -79.9 0 0 38.37 22.34
  Q 36.78 21.79 35.14 21.58
  Q 33.77 21.40 33.39 21.29
  A 1.26 1.24 -54.7 0 0 32.27 21.49
  Q 30.32 22.94 30.27 25.47
  A 1.21 1.19 -79.9 0 0 31.08 26.63
  Q 32.66 27.18 34.30 27.39
  Z"
/>
<path fill="#363341" d="
  M 34.30 27.39
  Q 32.66 27.18 31.08 26.63
  A 1.21 1.19 -79.9 0 1 30.27 25.47
  Q 30.32 22.94 32.27 21.49
  A 1.26 1.24 -54.7 0 1 33.39 21.29
  Q 33.77 21.40 35.14 21.58
  Q 36.78 21.79 38.37 22.34
  A 1.21 1.19 -79.9 0 1 39.17 23.50
  Q 39.12 26.03 37.17 27.48
  A 1.26 1.24 -54.7 0 1 36.06 27.68
  Q 35.68 27.56 34.30 27.39
  Z
  M 34.29 26.65
  C 36.40 27.02 37.32 27.50 38.33 24.72
  A 1.53 1.52 17.8 0 0 37.30 22.73
  Q 37.29 22.72 35.09 22.33
  C 32.98 21.96 32.06 21.49 31.04 24.27
  A 1.53 1.52 17.8 0 0 32.07 26.26
  Q 32.08 26.26 34.29 26.65
  Z"
/>
<path fill="#ffffff" d="
  M 34.29 26.65
  Q 32.08 26.26 32.07 26.26
  A 1.53 1.52 17.8 0 1 31.04 24.27
  C 32.06 21.49 32.98 21.96 35.09 22.33
  Q 37.29 22.72 37.30 22.73
  A 1.53 1.52 17.8 0 1 38.33 24.72
  C 37.32 27.50 36.40 27.02 34.29 26.65
  Z"
/>
<path fill="#ffffff" d="
  M 23.53 31.90
  Q 26.29 34.59 26.46 34.76
  A 1.59 1.59 0.0 0 1 26.93 35.99
  L 26.63 41.21
  A 0.33 0.32 -65.9 0 1 26.08 41.43
  Q 24.87 40.24 19.98 35.47
  Q 17.23 32.77 17.06 32.60
  A 1.59 1.59 0.0 0 1 16.59 31.37
  L 16.89 26.14
  A 0.33 0.32 -65.9 0 1 17.44 25.93
  Q 18.65 27.12 23.53 31.90
  Z"
/>
<path fill="#ffffff" d="
  M 48.14 33.12
  A 0.38 0.37 12.9 0 0 48.34 33.43
  L 48.35 33.43
  A 0.24 0.24 0.0 0 0 48.61 33.23
  Q 49.03 30.75 48.40 28.33
  A 0.60 0.60 0.0 0 1 48.78 27.62
  L 52.49 26.28
  A 0.31 0.31 0.0 0 1 52.90 26.57
  L 52.90 31.99
  A 0.99 0.97 80.4 0 1 52.25 32.92
  L 48.38 34.31
  A 1.01 1.01 0.0 0 1 47.03 33.36
  L 47.03 29.47
  A 0.37 0.36 -9.7 0 0 46.54 29.13
  L 46.25 29.24
  A 0.15 0.14 82.1 0 0 46.15 29.38
  L 46.15 34.27
  A 1.18 1.17 -10.0 0 1 45.37 35.37
  L 32.90 39.86
  A 0.10 0.09 -11.3 0 1 32.77 39.78
  L 32.77 33.58
  A 0.22 0.22 0.0 0 1 32.92 33.37
  L 47.11 28.26
  A 0.59 0.59 0.0 0 1 47.90 28.78
  L 48.14 33.12
  Z"
/>
<path fill="#ffffff" d="
  M 16.79 34.55
  Q 16.66 34.73 14.00 33.70
  A 0.53 0.52 22.3 0 1 13.71 33.00
  Q 13.73 32.95 13.99 32.57
  Q 14.26 32.20 14.30 32.16
  A 0.53 0.52 48.2 0 1 15.05 32.20
  Q 16.92 34.36 16.79 34.55
  Z"
/>
<rect fill="#ffffff" x="-0.59" y="-3.13" transform="translate(31.49,37.03) rotate(-0.7)" width="1.18" height="6.26" rx="0.28"/>
<path fill="#ffffff" d="
  M 28.18 40.96
  L 28.18 35.50
  A 1.02 1.02 0.0 0 1 30.17 35.18
  C 30.52 36.24 30.78 40.76 28.79 41.40
  A 0.47 0.46 -8.8 0 1 28.18 40.96
  Z"
/>
<path fill="#ffffff" d="
  M 49.66 45.40
  Q 44.10 50.81 42.72 52.16
  A 0.37 0.37 0.0 0 1 42.09 51.92
  L 41.76 45.98
  A 1.81 1.81 0.0 0 1 42.30 44.58
  Q 42.49 44.39 45.64 41.33
  Q 51.19 35.91 52.57 34.56
  A 0.37 0.37 0.0 0 1 53.19 34.80
  L 53.52 40.74
  A 1.81 1.81 0.0 0 1 52.99 42.14
  Q 52.79 42.33 49.66 45.40
  Z"
/>
<path fill="#ffffff" d="
  M 13.26 34.94
  L 17.42 36.41
  A 0.82 0.81 20.2 0 1 17.91 37.46
  Q 16.66 40.78 18.14 43.38
  A 0.50 0.50 0.0 0 1 17.54 44.09
  L 14.07 42.87
  A 1.92 1.91 7.1 0 1 12.81 41.26
  L 12.27 35.71
  A 0.74 0.74 0.0 0 1 13.26 34.94
  Z"
/>
<path fill="#ffffff" d="
  M 48.77 35.69
  A 0.27 0.27 0.0 0 1 49.05 36.14
  L 41.53 43.14
  A 0.65 0.64 33.1 0 1 40.86 43.28
  L 34.92 41.18
  A 0.27 0.26 44.4 0 1 34.91 40.68
  L 48.77 35.69
  Z"
/>
<path fill="#ffffff" d="
  M 37.48 50.54
  A 0.33 0.33 0.0 0 1 37.05 50.94
  L 21.82 45.55
  A 1.45 1.44 -1.9 0 1 20.98 44.77
  Q 19.77 41.95 20.32 38.78
  A 0.24 0.23 -84.9 0 0 20.09 38.50
  L 19.77 38.50
  A 0.08 0.07 4.1 0 0 19.69 38.56
  Q 19.25 41.21 19.99 44.11
  A 0.48 0.47 -16.2 0 1 19.67 44.68
  L 19.65 44.69
  A 0.49 0.47 68.7 0 1 19.08 44.43
  Q 17.09 39.96 18.61 37.30
  A 0.66 0.66 0.0 0 1 19.81 37.43
  Q 20.09 38.29 20.42 38.34
  A 2.47 2.43 71.4 0 1 21.66 38.97
  L 26.23 43.21
  A 1.00 0.99 56.2 0 0 27.25 43.42
  L 31.75 41.80
  A 0.92 0.88 -43.7 0 1 32.36 41.80
  L 35.22 42.81
  A 0.57 0.57 0.0 0 1 35.57 43.54
  Q 34.64 46.23 35.43 49.65
  A 0.18 0.17 -14.0 0 0 35.65 49.78
  L 35.70 49.76
  A 0.26 0.24 83.7 0 0 35.87 49.53
  L 35.96 43.65
  A 0.35 0.35 0.0 0 1 36.43 43.33
  L 40.33 44.71
  A 0.37 0.36 13.8 0 1 40.57 45.10
  Q 40.16 48.46 40.83 51.56
  A 0.65 0.65 0.0 0 1 39.71 52.14
  L 38.31 50.64
  A 1.52 1.52 0.0 0 1 37.89 49.59
  L 37.89 44.37
  A 0.19 0.19 0.0 0 0 37.51 44.32
  Q 36.62 47.56 37.48 50.54
  Z"
/>
</svg>
