<?xml version="1.0" encoding="UTF-8" standalone="no"?>
<!DOCTYPE svg PUBLIC "-//W3C//DTD SVG 1.1//EN" "http://www.w3.org/Graphics/SVG/1.1/DTD/svg11.dtd">
<svg xmlns="http://www.w3.org/2000/svg" version="1.1" viewBox="0.00 0.00 66.00 88.00">
<g stroke-width="2.00" fill="none" stroke-linecap="butt">
<path stroke="#88352b" vector-effect="non-scaling-stroke" d="
  M 33.41 86.71
  Q 33.52 86.71 33.62 86.69
  Q 33.71 86.67 33.80 86.59
  C 50.36 71.23 75.69 38.95 58.74 15.55
  Q 49.68 3.03 33.75 2.46
  Q 33.64 2.46 33.52 2.46
  Q 33.41 2.46 33.29 2.46
  Q 17.36 2.99 8.27 15.48
  C -8.74 38.84 16.50 71.19 33.02 86.59
  Q 33.11 86.67 33.20 86.69
  Q 33.30 86.71 33.41 86.71"
/>
<path stroke="#d9a29c" vector-effect="non-scaling-stroke" d="
  M 15.54 44.81
  L 22.36 51.83"
/>
<path stroke="#813f3d" vector-effect="non-scaling-stroke" d="
  M 22.36 51.83
  Q 21.68 53.58 22.11 54.37
  A 1.69 1.56 -43.3 0 0 24.89 54.34
  Q 26.49 51.98 26.89 48.90
  A 0.92 0.91 0.4 0 1 27.70 48.11
  Q 35.82 47.27 36.98 38.45
  A 1.10 1.09 89.7 0 1 37.90 37.51
  Q 45.34 36.40 46.78 28.63
  A 1.18 1.17 -88.9 0 1 47.77 27.67
  Q 50.42 27.26 52.87 25.64
  Q 53.83 25.00 53.63 24.03
  A 1.62 1.47 76.9 0 0 51.79 22.75
  Q 51.09 22.94 49.95 23.03"
/>
<path stroke="#d9a29c" vector-effect="non-scaling-stroke" d="
  M 49.95 23.03
  L 43.34 16.44"
/>
<path stroke="#813f3d" vector-effect="non-scaling-stroke" d="
  M 43.34 16.44
  Q 43.83 15.34 43.78 14.21
  A 1.45 1.44 64.3 0 0 41.24 13.31
  Q 39.21 15.69 39.05 19.18
  A 0.73 0.72 88.2 0 1 38.41 19.87
  Q 29.49 20.94 28.94 30.06
  A 0.60 0.60 0.0 0 1 28.39 30.62
  Q 20.41 31.38 19.10 39.48
  A 1.18 1.17 -0.1 0 1 18.11 40.46
  Q 13.99 41.08 12.34 43.03
  A 1.32 1.31 -64.8 0 0 13.10 45.18
  Q 14.25 45.38 15.54 44.81"
/>
<path stroke="#a7999e" vector-effect="non-scaling-stroke" d="
  M 43.34 16.44
  Q 42.34 17.16 43.78 18.41"
/>
<path stroke="#813f3d" vector-effect="non-scaling-stroke" d="
  M 43.78 18.41
  Q 41.57 22.30 47.07 23.77
  A 1.05 1.03 33.7 0 0 47.96 23.60
  L 48.56 23.17"
/>
<path stroke="#a7999e" vector-effect="non-scaling-stroke" d="
  M 48.56 23.17
  Q 48.97 23.66 49.45 23.85
  A 0.45 0.44 14.7 0 0 50.05 23.50
  Q 50.08 23.28 49.95 23.03"
/>
<path stroke="#a7999e" vector-effect="non-scaling-stroke" d="
  M 22.36 51.83
  Q 23.11 51.86 22.85 50.61
  Q 22.79 50.29 22.31 49.79"
/>
<path stroke="#783d3d" vector-effect="non-scaling-stroke" d="
  M 22.31 49.79
  Q 23.39 48.84 22.80 47.45
  Q 21.11 43.49 17.00 44.63"
/>
<path stroke="#a7999e" vector-effect="non-scaling-stroke" d="
  M 17.00 44.63
  Q 16.03 43.88 15.54 44.81"
/>
<path stroke="#d0a09b" vector-effect="non-scaling-stroke" d="
  M 17.00 44.63
  L 22.31 49.79"
/>
<path stroke="#d9a29c" vector-effect="non-scaling-stroke" d="
  M 48.56 23.17
  L 43.78 18.41"
/>
<path stroke="#783d3d" vector-effect="non-scaling-stroke" d="
  M 37.21 34.80
  L 38.83 33.26"
/>
<path stroke="#a7999e" vector-effect="non-scaling-stroke" d="
  M 38.83 33.26
  Q 39.11 33.61 39.43 33.69
  Q 39.80 33.78 39.86 33.43
  Q 39.90 33.18 39.76 32.82"
/>
<path stroke="#783d3d" vector-effect="non-scaling-stroke" d="
  M 39.76 32.82
  Q 42.07 33.30 42.08 31.23"
/>
<path stroke="#a7999e" vector-effect="non-scaling-stroke" d="
  M 42.08 31.23
  Q 42.80 31.18 42.77 30.73
  Q 42.72 30.18 42.30 29.68"
/>
<path stroke="#783d3d" vector-effect="non-scaling-stroke" d="
  M 42.30 29.68
  Q 44.05 27.24 41.05 24.73
  Q 38.97 23.01 36.90 24.42"
/>
<path stroke="#a7999e" vector-effect="non-scaling-stroke" d="
  M 36.90 24.42
  Q 35.69 23.76 35.09 24.41"
/>
<path stroke="#783d3d" vector-effect="non-scaling-stroke" d="
  M 35.09 24.41
  Q 33.59 24.87 33.48 26.52"
/>
<path stroke="#a7999e" vector-effect="non-scaling-stroke" d="
  M 33.48 26.52
  Q 32.99 26.89 33.40 28.10"
/>
<path stroke="#783d3d" vector-effect="non-scaling-stroke" d="
  M 33.40 28.10
  Q 32.10 32.03 36.66 33.98
  A 0.30 0.27 10.3 0 1 36.83 34.20
  Q 36.88 34.51 36.54 34.63"
/>
<path stroke="#a7999e" vector-effect="non-scaling-stroke" d="
  M 36.54 34.63
  Q 36.01 34.51 36.00 34.53
  A 1.33 1.32 11.4 0 0 37.23 36.37
  C 42.60 36.35 46.37 31.65 45.35 26.23
  Q 45.17 25.31 43.04 22.54
  Q 40.30 18.98 42.72 14.60
  A 0.43 0.43 0.0 0 0 42.01 14.11
  Q 39.11 17.57 40.43 21.39
  C 41.10 23.34 42.95 24.85 43.49 26.31
  C 45.12 30.76 42.37 35.75 37.21 34.80"
/>
<path stroke="#d0a09b" vector-effect="non-scaling-stroke" d="
  M 36.54 34.63
  Q 36.92 34.65 37.21 34.80"
/>
<path stroke="#d0a09b" vector-effect="non-scaling-stroke" d="
  M 38.83 33.26
  L 33.40 28.10"
/>
<path stroke="#d0a09b" vector-effect="non-scaling-stroke" d="
  M 39.76 32.82
  L 33.48 26.52"
/>
<path stroke="#d0a09b" vector-effect="non-scaling-stroke" d="
  M 42.08 31.23
  L 35.09 24.41"
/>
<path stroke="#d0a09b" vector-effect="non-scaling-stroke" d="
  M 42.30 29.68
  L 36.90 24.42"
/>
<path stroke="#783d3d" vector-effect="non-scaling-stroke" d="
  M 29.24 45.49
  L 29.22 43.64"
/>
<path stroke="#a7999e" vector-effect="non-scaling-stroke" d="
  M 29.22 43.64
  Q 30.40 44.09 30.48 43.45"
/>
<path stroke="#783d3d" vector-effect="non-scaling-stroke" d="
  M 30.48 43.45
  Q 32.37 43.43 32.14 41.60"
/>
<path stroke="#a7999e" vector-effect="non-scaling-stroke" d="
  M 32.14 41.60
  Q 33.33 42.33 32.70 40.15"
/>
<path stroke="#783d3d" vector-effect="non-scaling-stroke" d="
  M 32.70 40.15
  C 33.94 36.68 31.33 35.61 29.59 33.65"
/>
<path stroke="#a7999e" vector-effect="non-scaling-stroke" d="
  M 29.59 33.65
  Q 30.34 32.05 29.01 31.74
  Q 26.38 31.13 23.68 33.21
  C 19.05 36.79 19.42 41.22 22.71 45.45
  Q 25.42 48.92 23.15 53.38
  A 0.40 0.40 0.0 0 0 23.79 53.83
  Q 26.73 50.69 25.33 46.44
  C 24.72 44.61 22.75 43.23 22.19 41.33
  C 20.85 36.78 23.62 32.47 28.56 33.17"
/>
<path stroke="#783d3d" vector-effect="non-scaling-stroke" d="
  M 28.56 33.17
  L 27.09 34.51"
/>
<path stroke="#a7999e" vector-effect="non-scaling-stroke" d="
  M 27.09 34.51
  Q 25.89 34.03 25.50 34.82"
/>
<path stroke="#783d3d" vector-effect="non-scaling-stroke" d="
  M 25.50 34.82
  Q 23.75 34.92 23.57 36.73"
/>
<path stroke="#a7999e" vector-effect="non-scaling-stroke" d="
  M 23.57 36.73
  Q 23.12 37.19 23.47 38.07"
/>
<path stroke="#783d3d" vector-effect="non-scaling-stroke" d="
  M 23.47 38.07
  Q 21.75 42.82 26.61 44.20
  Q 27.07 44.34 27.12 44.68
  Q 27.18 45.04 26.99 45.43"
/>
<path stroke="#a7999e" vector-effect="non-scaling-stroke" d="
  M 26.99 45.43
  Q 26.55 45.30 26.46 45.33
  A 0.77 0.77 0.0 0 0 26.58 46.84
  Q 30.99 47.38 33.77 43.97
  C 37.10 39.89 35.82 35.67 32.63 32.03
  A 2.43 2.18 -78.7 0 1 32.21 31.32
  C 30.27 25.91 33.58 21.71 39.32 22.66
  A 0.42 0.42 0.0 0 0 39.75 22.04
  L 39.47 21.55
  A 0.94 0.92 78.8 0 0 38.78 21.08
  Q 36.00 20.68 33.88 22.32
  Q 27.90 26.94 31.24 33.33
  A 4.05 3.88 -79.3 0 0 31.69 34.02
  Q 33.72 36.57 33.91 37.58
  Q 35.14 43.95 29.24 45.49"
/>
<path stroke="#d0a09b" vector-effect="non-scaling-stroke" d="
  M 26.99 45.43
  L 29.24 45.49"
/>
<path stroke="#d0a09b" vector-effect="non-scaling-stroke" d="
  M 29.22 43.64
  L 23.47 38.07"
/>
<path stroke="#d0a09b" vector-effect="non-scaling-stroke" d="
  M 30.48 43.45
  L 23.57 36.73"
/>
<path stroke="#d0a09b" vector-effect="non-scaling-stroke" d="
  M 32.14 41.60
  L 25.50 34.82"
/>
<path stroke="#d0a09b" vector-effect="non-scaling-stroke" d="
  M 32.70 40.15
  L 27.09 34.51"
/>
<path stroke="#d0a09b" vector-effect="non-scaling-stroke" d="
  M 29.59 33.65
  Q 29.24 33.38 28.56 33.17"
/>
<path stroke="#a7999e" vector-effect="non-scaling-stroke" d="
  M 46.29 25.99
  A 1.06 1.05 73.2 0 0 47.29 26.53
  Q 50.21 26.33 52.43 24.66
  A 0.37 0.36 56.6 0 0 52.52 24.19
  L 52.39 23.95
  A 0.35 0.34 -29.9 0 0 51.92 23.83
  Q 48.94 25.56 46.38 24.71
  A 0.41 0.41 0.0 0 0 45.89 25.31
  L 46.29 25.99"
/>
<path stroke="#a7999e" vector-effect="non-scaling-stroke" d="
  M 19.46 41.99
  A 1.06 1.06 0.0 0 0 18.45 41.45
  Q 15.52 41.67 13.30 43.35
  A 0.37 0.36 56.3 0 0 13.21 43.83
  L 13.34 44.07
  A 0.35 0.34 -30.2 0 0 13.82 44.18
  Q 16.80 42.43 19.37 43.27
  A 0.42 0.42 0.0 0 0 19.86 42.67
  L 19.46 41.99"
/>
</g>
<path fill="#5c221b" d="
  M 33.80 88.00
  L 33.14 88.00
  Q 15.61 72.49 6.00 52.51
  Q 2.31 44.84 1.62 35.22
  Q 0.94 25.67 5.27 17.99
  C 18.07 -4.77 50.85 -4.22 62.58 19.69
  C 66.93 28.57 65.93 39.80 62.41 48.85
  C 56.62 63.76 45.56 77.30 33.80 88.00
  Z
  M 33.41 86.71
  Q 33.52 86.71 33.62 86.69
  Q 33.71 86.67 33.80 86.59
  C 50.36 71.23 75.69 38.95 58.74 15.55
  Q 49.68 3.03 33.75 2.46
  Q 33.64 2.46 33.52 2.46
  Q 33.41 2.46 33.29 2.46
  Q 17.36 2.99 8.27 15.48
  C -8.74 38.84 16.50 71.19 33.02 86.59
  Q 33.11 86.67 33.20 86.69
  Q 33.30 86.71 33.41 86.71
  Z"
/>
<path fill="#b3473b" d="
  M 33.52 2.46
  Q 33.64 2.46 33.75 2.46
  Q 49.68 3.03 58.74 15.55
  C 75.69 38.95 50.36 71.23 33.80 86.59
  Q 33.71 86.67 33.62 86.69
  Q 33.52 86.71 33.41 86.71
  Q 33.30 86.71 33.20 86.69
  Q 33.11 86.67 33.02 86.59
  C 16.50 71.19 -8.74 38.84 8.27 15.48
  Q 17.36 2.99 33.29 2.46
  Q 33.41 2.46 33.52 2.46
  Z
  M 15.54 44.81
  L 22.36 51.83
  Q 21.68 53.58 22.11 54.37
  A 1.69 1.56 -43.3 0 0 24.89 54.34
  Q 26.49 51.98 26.89 48.90
  A 0.92 0.91 0.4 0 1 27.70 48.11
  Q 35.82 47.27 36.98 38.45
  A 1.10 1.09 89.7 0 1 37.90 37.51
  Q 45.34 36.40 46.78 28.63
  A 1.18 1.17 -88.9 0 1 47.77 27.67
  Q 50.42 27.26 52.87 25.64
  Q 53.83 25.00 53.63 24.03
  A 1.62 1.47 76.9 0 0 51.79 22.75
  Q 51.09 22.94 49.95 23.03
  L 43.34 16.44
  Q 43.83 15.34 43.78 14.21
  A 1.45 1.44 64.3 0 0 41.24 13.31
  Q 39.21 15.69 39.05 19.18
  A 0.73 0.72 88.2 0 1 38.41 19.87
  Q 29.49 20.94 28.94 30.06
  A 0.60 0.60 0.0 0 1 28.39 30.62
  Q 20.41 31.38 19.10 39.48
  A 1.18 1.17 -0.1 0 1 18.11 40.46
  Q 13.99 41.08 12.34 43.03
  A 1.32 1.31 -64.8 0 0 13.10 45.18
  Q 14.25 45.38 15.54 44.81
  Z"
/>
<path fill="#4f363f" d="
  M 43.34 16.44
  Q 42.34 17.16 43.78 18.41
  Q 41.57 22.30 47.07 23.77
  A 1.05 1.03 33.7 0 0 47.96 23.60
  L 48.56 23.17
  Q 48.97 23.66 49.45 23.85
  A 0.45 0.44 14.7 0 0 50.05 23.50
  Q 50.08 23.28 49.95 23.03
  Q 51.09 22.94 51.79 22.75
  A 1.62 1.47 76.9 0 1 53.63 24.03
  Q 53.83 25.00 52.87 25.64
  Q 50.42 27.26 47.77 27.67
  A 1.18 1.17 -88.9 0 0 46.78 28.63
  Q 45.34 36.40 37.90 37.51
  A 1.10 1.09 89.7 0 0 36.98 38.45
  Q 35.82 47.27 27.70 48.11
  A 0.92 0.91 0.4 0 0 26.89 48.90
  Q 26.49 51.98 24.89 54.34
  A 1.69 1.56 -43.3 0 1 22.11 54.37
  Q 21.68 53.58 22.36 51.83
  Q 23.11 51.86 22.85 50.61
  Q 22.79 50.29 22.31 49.79
  Q 23.39 48.84 22.80 47.45
  Q 21.11 43.49 17.00 44.63
  Q 16.03 43.88 15.54 44.81
  Q 14.25 45.38 13.10 45.18
  A 1.32 1.31 -64.8 0 1 12.34 43.03
  Q 13.99 41.08 18.11 40.46
  A 1.18 1.17 -0.1 0 0 19.10 39.48
  Q 20.41 31.38 28.39 30.62
  A 0.60 0.60 0.0 0 0 28.94 30.06
  Q 29.49 20.94 38.41 19.87
  A 0.73 0.72 88.2 0 0 39.05 19.18
  Q 39.21 15.69 41.24 13.31
  A 1.45 1.44 64.3 0 1 43.78 14.21
  Q 43.83 15.34 43.34 16.44
  Z
  M 37.21 34.80
  L 38.83 33.26
  Q 39.11 33.61 39.43 33.69
  Q 39.80 33.78 39.86 33.43
  Q 39.90 33.18 39.76 32.82
  Q 42.07 33.30 42.08 31.23
  Q 42.80 31.18 42.77 30.73
  Q 42.72 30.18 42.30 29.68
  Q 44.05 27.24 41.05 24.73
  Q 38.97 23.01 36.90 24.42
  Q 35.69 23.76 35.09 24.41
  Q 33.59 24.87 33.48 26.52
  Q 32.99 26.89 33.40 28.10
  Q 32.10 32.03 36.66 33.98
  A 0.30 0.27 10.3 0 1 36.83 34.20
  Q 36.88 34.51 36.54 34.63
  Q 36.01 34.51 36.00 34.53
  A 1.33 1.32 11.4 0 0 37.23 36.37
  C 42.60 36.35 46.37 31.65 45.35 26.23
  Q 45.17 25.31 43.04 22.54
  Q 40.30 18.98 42.72 14.60
  A 0.43 0.43 0.0 0 0 42.01 14.11
  Q 39.11 17.57 40.43 21.39
  C 41.10 23.34 42.95 24.85 43.49 26.31
  C 45.12 30.76 42.37 35.75 37.21 34.80
  Z
  M 29.24 45.49
  L 29.22 43.64
  Q 30.40 44.09 30.48 43.45
  Q 32.37 43.43 32.14 41.60
  Q 33.33 42.33 32.70 40.15
  C 33.94 36.68 31.33 35.61 29.59 33.65
  Q 30.34 32.05 29.01 31.74
  Q 26.38 31.13 23.68 33.21
  C 19.05 36.79 19.42 41.22 22.71 45.45
  Q 25.42 48.92 23.15 53.38
  A 0.40 0.40 0.0 0 0 23.79 53.83
  Q 26.73 50.69 25.33 46.44
  C 24.72 44.61 22.75 43.23 22.19 41.33
  C 20.85 36.78 23.62 32.47 28.56 33.17
  L 27.09 34.51
  Q 25.89 34.03 25.50 34.82
  Q 23.75 34.92 23.57 36.73
  Q 23.12 37.19 23.47 38.07
  Q 21.75 42.82 26.61 44.20
  Q 27.07 44.34 27.12 44.68
  Q 27.18 45.04 26.99 45.43
  Q 26.55 45.30 26.46 45.33
  A 0.77 0.77 0.0 0 0 26.58 46.84
  Q 30.99 47.38 33.77 43.97
  C 37.10 39.89 35.82 35.67 32.63 32.03
  A 2.43 2.18 -78.7 0 1 32.21 31.32
  C 30.27 25.91 33.58 21.71 39.32 22.66
  A 0.42 0.42 0.0 0 0 39.75 22.04
  L 39.47 21.55
  A 0.94 0.92 78.8 0 0 38.78 21.08
  Q 36.00 20.68 33.88 22.32
  Q 27.90 26.94 31.24 33.33
  A 4.05 3.88 -79.3 0 0 31.69 34.02
  Q 33.72 36.57 33.91 37.58
  Q 35.14 43.95 29.24 45.49
  Z
  M 46.29 25.99
  A 1.06 1.05 73.2 0 0 47.29 26.53
  Q 50.21 26.33 52.43 24.66
  A 0.37 0.36 56.6 0 0 52.52 24.19
  L 52.39 23.95
  A 0.35 0.34 -29.9 0 0 51.92 23.83
  Q 48.94 25.56 46.38 24.71
  A 0.41 0.41 0.0 0 0 45.89 25.31
  L 46.29 25.99
  Z
  M 19.46 41.99
  A 1.06 1.06 0.0 0 0 18.45 41.45
  Q 15.52 41.67 13.30 43.35
  A 0.37 0.36 56.3 0 0 13.21 43.83
  L 13.34 44.07
  A 0.35 0.34 -30.2 0 0 13.82 44.18
  Q 16.80 42.43 19.37 43.27
  A 0.42 0.42 0.0 0 0 19.86 42.67
  L 19.46 41.99
  Z"
/>
<path fill="#fffcfc" d="
  M 36.54 34.63
  Q 36.92 34.65 37.21 34.80
  C 42.37 35.75 45.12 30.76 43.49 26.31
  C 42.95 24.85 41.10 23.34 40.43 21.39
  Q 39.11 17.57 42.01 14.11
  A 0.43 0.43 0.0 0 1 42.72 14.60
  Q 40.30 18.98 43.04 22.54
  Q 45.17 25.31 45.35 26.23
  C 46.37 31.65 42.60 36.35 37.23 36.37
  A 1.33 1.32 11.4 0 1 36.00 34.53
  Q 36.01 34.51 36.54 34.63
  Z"
/>
<path fill="#fffcfc" d="
  M 43.34 16.44
  L 49.95 23.03
  Q 50.08 23.28 50.05 23.50
  A 0.45 0.44 14.7 0 1 49.45 23.85
  Q 48.97 23.66 48.56 23.17
  L 43.78 18.41
  Q 42.34 17.16 43.34 16.44
  Z"
/>
<path fill="#b3473b" d="
  M 48.56 23.17
  L 47.96 23.60
  A 1.05 1.03 33.7 0 1 47.07 23.77
  Q 41.57 22.30 43.78 18.41
  L 48.56 23.17
  Z"
/>
<path fill="#fffcfc" d="
  M 26.99 45.43
  L 29.24 45.49
  Q 35.14 43.95 33.91 37.58
  Q 33.72 36.57 31.69 34.02
  A 4.05 3.88 -79.3 0 1 31.24 33.33
  Q 27.90 26.94 33.88 22.32
  Q 36.00 20.68 38.78 21.08
  A 0.94 0.92 78.8 0 1 39.47 21.55
  L 39.75 22.04
  A 0.42 0.42 0.0 0 1 39.32 22.66
  C 33.58 21.71 30.27 25.91 32.21 31.32
  A 2.43 2.18 -78.7 0 0 32.63 32.03
  C 35.82 35.67 37.10 39.89 33.77 43.97
  Q 30.99 47.38 26.58 46.84
  A 0.77 0.77 0.0 0 1 26.46 45.33
  Q 26.55 45.30 26.99 45.43
  Z"
/>
<path fill="#a0443a" d="
  M 42.30 29.68
  L 36.90 24.42
  Q 38.97 23.01 41.05 24.73
  Q 44.05 27.24 42.30 29.68
  Z"
/>
<path fill="#fffcfc" d="
  M 36.90 24.42
  L 42.30 29.68
  Q 42.72 30.18 42.77 30.73
  Q 42.80 31.18 42.08 31.23
  L 35.09 24.41
  Q 35.69 23.76 36.90 24.42
  Z"
/>
<path fill="#fffcfc" d="
  M 46.38 24.71
  Q 48.94 25.56 51.92 23.83
  A 0.35 0.34 -29.9 0 1 52.39 23.95
  L 52.52 24.19
  A 0.37 0.36 56.6 0 1 52.43 24.66
  Q 50.21 26.33 47.29 26.53
  A 1.06 1.05 73.2 0 1 46.29 25.99
  L 45.89 25.31
  A 0.41 0.41 0.0 0 1 46.38 24.71
  Z"
/>
<path fill="#a0443a" d="
  M 35.09 24.41
  L 42.08 31.23
  Q 42.07 33.30 39.76 32.82
  L 33.48 26.52
  Q 33.59 24.87 35.09 24.41
  Z"
/>
<path fill="#fffcfc" d="
  M 33.48 26.52
  L 39.76 32.82
  Q 39.90 33.18 39.86 33.43
  Q 39.80 33.78 39.43 33.69
  Q 39.11 33.61 38.83 33.26
  L 33.40 28.10
  Q 32.99 26.89 33.48 26.52
  Z"
/>
<path fill="#a0443a" d="
  M 33.40 28.10
  L 38.83 33.26
  L 37.21 34.80
  Q 36.92 34.65 36.54 34.63
  Q 36.88 34.51 36.83 34.20
  A 0.30 0.27 10.3 0 0 36.66 33.98
  Q 32.10 32.03 33.40 28.10
  Z"
/>
<path fill="#fffcfc" d="
  M 29.59 33.65
  Q 29.24 33.38 28.56 33.17
  C 23.62 32.47 20.85 36.78 22.19 41.33
  C 22.75 43.23 24.72 44.61 25.33 46.44
  Q 26.73 50.69 23.79 53.83
  A 0.40 0.40 0.0 0 1 23.15 53.38
  Q 25.42 48.92 22.71 45.45
  C 19.42 41.22 19.05 36.79 23.68 33.21
  Q 26.38 31.13 29.01 31.74
  Q 30.34 32.05 29.59 33.65
  Z"
/>
<path fill="#a0443a" d="
  M 29.59 33.65
  C 31.33 35.61 33.94 36.68 32.70 40.15
  L 27.09 34.51
  L 28.56 33.17
  Q 29.24 33.38 29.59 33.65
  Z"
/>
<path fill="#fffcfc" d="
  M 27.09 34.51
  L 32.70 40.15
  Q 33.33 42.33 32.14 41.60
  L 25.50 34.82
  Q 25.89 34.03 27.09 34.51
  Z"
/>
<path fill="#a0443a" d="
  M 25.50 34.82
  L 32.14 41.60
  Q 32.37 43.43 30.48 43.45
  L 23.57 36.73
  Q 23.75 34.92 25.50 34.82
  Z"
/>
<path fill="#fffcfc" d="
  M 23.57 36.73
  L 30.48 43.45
  Q 30.40 44.09 29.22 43.64
  L 23.47 38.07
  Q 23.12 37.19 23.57 36.73
  Z"
/>
<path fill="#a0443a" d="
  M 29.22 43.64
  L 29.24 45.49
  L 26.99 45.43
  Q 27.18 45.04 27.12 44.68
  Q 27.07 44.34 26.61 44.20
  Q 21.75 42.82 23.47 38.07
  L 29.22 43.64
  Z"
/>
<path fill="#fffcfc" d="
  M 19.46 41.99
  L 19.86 42.67
  A 0.42 0.42 0.0 0 1 19.37 43.27
  Q 16.80 42.43 13.82 44.18
  A 0.35 0.34 -30.2 0 1 13.34 44.07
  L 13.21 43.83
  A 0.37 0.36 56.3 0 1 13.30 43.35
  Q 15.52 41.67 18.45 41.45
  A 1.06 1.06 0.0 0 1 19.46 41.99
  Z"
/>
<path fill="#fffcfc" d="
  M 17.00 44.63
  L 22.31 49.79
  Q 22.79 50.29 22.85 50.61
  Q 23.11 51.86 22.36 51.83
  L 15.54 44.81
  Q 16.03 43.88 17.00 44.63
  Z"
/>
<path fill="#a0443a" d="
  M 22.31 49.79
  L 17.00 44.63
  Q 21.11 43.49 22.80 47.45
  Q 23.39 48.84 22.31 49.79
  Z"
/>
</svg>
