<?xml version="1.0" encoding="UTF-8" standalone="no"?>
<!DOCTYPE svg PUBLIC "-//W3C//DTD SVG 1.1//EN" "http://www.w3.org/Graphics/SVG/1.1/DTD/svg11.dtd">
<svg xmlns="http://www.w3.org/2000/svg" version="1.1" viewBox="0.00 0.00 66.00 88.00">
<g stroke-width="2.00" fill="none" stroke-linecap="butt">
<path stroke="#4b4b5a" vector-effect="non-scaling-stroke" d="
  M 33.41 86.62
  C 33.81 86.62 33.65 86.64 33.82 86.48
  Q 44.82 76.11 52.95 64.23
  C 64.39 47.52 71.44 23.83 52.43 8.94
  C 47.31 4.93 40.44 2.48 33.53 2.47
  C 26.62 2.47 19.74 4.89 14.61 8.89
  C -4.44 23.72 2.54 47.43 13.94 64.17
  Q 22.03 76.08 33.01 86.48
  C 33.18 86.64 33.01 86.62 33.41 86.62"
/>
<path stroke="#4b4b5a" vector-effect="non-scaling-stroke" d="
  M 18.83 34.68
  Q 18.85 45.17 18.86 45.33
  A 1.60 1.57 -76.1 0 0 19.57 46.52
  L 33.38 55.60
  A 1.37 1.37 0.0 0 0 34.88 55.60
  L 47.34 47.40
  A 0.93 0.91 -15.5 0 0 47.76 46.67
  Q 47.86 45.00 47.84 34.75
  Q 47.82 24.27 47.80 24.11
  A 1.60 1.57 -76.1 0 0 47.10 22.92
  L 33.29 13.84
  A 1.37 1.37 0.0 0 0 31.79 13.84
  L 19.33 22.04
  A 0.93 0.91 -15.5 0 0 18.90 22.76
  Q 18.81 24.44 18.83 34.68"
/>
<path stroke="#98999f" vector-effect="non-scaling-stroke" d="
  M 33.85 53.30
  L 33.85 34.83
  A 1.02 1.02 0.0 0 1 34.32 33.97
  L 45.27 26.76
  A 1.92 1.92 0.0 0 0 45.27 23.56
  L 33.13 15.58
  A 0.81 0.80 44.5 0 0 32.26 15.58
  L 20.94 23.03
  A 1.12 1.12 0.0 0 0 20.43 23.97
  L 20.43 44.28
  A 1.61 1.59 -73.7 0 0 21.15 45.62
  L 33.29 53.60
  A 0.36 0.36 0.0 0 0 33.85 53.30"
/>
<path stroke="#98999f" vector-effect="non-scaling-stroke" d="
  M 45.85 46.71
  A 0.34 0.34 0.0 0 0 46.00 46.43
  L 46.00 28.57
  A 0.34 0.34 0.0 0 0 45.47 28.29
  L 35.08 35.12
  A 0.34 0.34 0.0 0 0 34.93 35.40
  L 34.93 53.26
  A 0.34 0.34 0.0 0 0 35.46 53.54
  L 45.85 46.71"
/>
<path stroke="#b1b1b9" vector-effect="non-scaling-stroke" d="
  M 34.36 17.85
  Q 33.60 17.33 33.27 17.12
  A 1.01 1.01 0.0 0 0 32.16 17.12
  L 28.38 19.56
  A 0.34 0.34 0.0 0 0 28.39 20.14
  Q 28.93 20.46 31.68 22.30
  Q 32.44 22.81 32.77 23.03
  A 1.01 1.01 0.0 0 0 33.88 23.02
  L 37.66 20.58
  A 0.34 0.34 0.0 0 0 37.65 20.00
  Q 37.11 19.69 34.36 17.85"
/>
<path stroke="#b1b1b9" vector-effect="non-scaling-stroke" d="
  M 26.54 27.40
  A 0.52 0.52 0.0 0 0 27.12 27.40
  L 31.50 24.51
  A 0.52 0.52 0.0 0 0 31.50 23.65
  L 27.15 20.78
  A 0.52 0.52 0.0 0 0 26.57 20.78
  L 22.19 23.67
  A 0.52 0.52 0.0 0 0 22.19 24.53
  L 26.54 27.40"
/>
<path stroke="#b1b1b9" vector-effect="non-scaling-stroke" d="
  M 38.14 26.81
  Q 38.94 27.37 39.28 27.60
  A 1.07 1.07 0.0 0 0 40.45 27.63
  L 44.51 25.15
  A 0.36 0.36 0.0 0 0 44.52 24.54
  Q 43.96 24.19 41.10 22.17
  Q 40.31 21.61 39.97 21.37
  A 1.07 1.07 0.0 0 0 38.80 21.34
  L 34.73 23.82
  A 0.36 0.36 0.0 0 0 34.72 24.44
  Q 35.28 24.78 38.14 26.81"
/>
<path stroke="#b1b1b9" vector-effect="non-scaling-stroke" d="
  M 32.02 30.96
  Q 32.86 31.51 33.22 31.74
  A 1.11 1.11 0.0 0 0 34.43 31.73
  L 38.54 29.03
  A 0.38 0.37 -47.1 0 0 38.52 28.40
  Q 37.93 28.06 34.91 26.07
  Q 34.07 25.52 33.71 25.29
  A 1.11 1.11 0.0 0 0 32.50 25.30
  L 28.39 28.00
  A 0.38 0.37 -47.1 0 0 28.41 28.64
  Q 29.00 28.97 32.02 30.96"
/>
<path stroke="#b1b1b9" vector-effect="non-scaling-stroke" d="
  M 25.95 30.10
  Q 25.87 29.41 25.55 28.84
  A 0.97 0.96 89.9 0 0 25.18 28.47
  L 22.43 26.91
  A 0.27 0.26 16.6 0 0 22.03 27.12
  Q 21.90 29.11 22.07 30.58
  Q 22.15 31.26 22.46 31.83
  A 0.97 0.96 89.9 0 0 22.83 32.19
  L 25.58 33.76
  A 0.27 0.26 16.6 0 0 25.98 33.54
  Q 26.11 31.55 25.95 30.10"
/>
<path stroke="#b1b1b9" vector-effect="non-scaling-stroke" d="
  M 28.46 35.84
  Q 29.79 36.80 31.80 37.78
  A 0.30 0.30 0.0 0 0 32.23 37.51
  L 32.23 33.96
  A 1.08 1.07 29.6 0 0 32.07 33.40
  Q 31.69 32.78 31.07 32.33
  Q 29.74 31.36 27.73 30.38
  A 0.30 0.30 0.0 0 0 27.30 30.65
  L 27.30 34.20
  A 1.08 1.07 29.6 0 0 27.45 34.76
  Q 27.83 35.38 28.46 35.84"
/>
<path stroke="#b1b1b9" vector-effect="non-scaling-stroke" d="
  M 26.17 36.97
  Q 26.13 36.20 25.83 35.55
  A 1.07 1.06 -85.7 0 0 25.46 35.11
  L 22.56 33.16
  A 0.29 0.29 0.0 0 0 22.11 33.36
  Q 21.80 35.54 21.86 37.17
  Q 21.89 37.92 22.19 38.58
  A 1.07 1.06 -85.7 0 0 22.56 39.01
  L 25.45 40.96
  A 0.29 0.29 0.0 0 0 25.91 40.76
  Q 26.22 38.58 26.17 36.97"
/>
<path stroke="#b1b1b9" vector-effect="non-scaling-stroke" d="
  M 27.27 41.89
  A 0.36 0.36 0.0 0 0 27.43 42.19
  L 31.66 44.97
  A 0.36 0.36 0.0 0 0 32.22 44.67
  L 32.22 39.63
  A 0.36 0.36 0.0 0 0 32.06 39.33
  L 27.83 36.56
  A 0.36 0.36 0.0 0 0 27.27 36.86
  L 27.27 41.89"
/>
<path stroke="#b1b1b9" vector-effect="non-scaling-stroke" d="
  M 25.15 42.01
  Q 24.07 41.17 22.42 40.29
  A 0.25 0.25 0.0 0 0 22.06 40.50
  L 21.95 43.47
  A 0.90 0.90 0.0 0 0 22.06 43.94
  Q 22.36 44.47 22.86 44.87
  Q 23.95 45.72 25.59 46.60
  A 0.25 0.25 0.0 0 0 25.96 46.39
  L 26.07 43.42
  A 0.90 0.90 0.0 0 0 25.96 42.95
  Q 25.66 42.42 25.15 42.01"
/>
<path stroke="#b1b1b9" vector-effect="non-scaling-stroke" d="
  M 28.60 48.92
  Q 29.88 49.77 31.80 50.60
  A 0.28 0.28 0.0 0 0 32.19 50.33
  L 32.05 47.01
  A 1.01 1.00 27.2 0 0 31.88 46.49
  Q 31.50 45.92 30.90 45.53
  Q 29.61 44.67 27.69 43.84
  A 0.28 0.28 0.0 0 0 27.30 44.11
  L 27.44 47.43
  A 1.01 1.00 27.2 0 0 27.61 47.95
  Q 27.99 48.52 28.60 48.92"
/>
<path stroke="#b1b1b9" vector-effect="non-scaling-stroke" d="
  M 41.49 33.87
  Q 41.39 35.18 41.53 36.50
  A 0.48 0.47 70.3 0 0 42.26 36.85
  L 44.17 35.60
  A 1.14 1.12 -16.7 0 0 44.67 34.69
  Q 44.68 34.21 44.71 33.75
  Q 44.82 32.44 44.69 31.12
  A 0.48 0.47 70.3 0 0 43.95 30.77
  L 42.04 32.02
  A 1.14 1.12 -16.7 0 0 41.54 32.94
  Q 41.53 33.41 41.49 33.87"
/>
<path stroke="#b1b1b9" vector-effect="non-scaling-stroke" d="
  M 36.37 36.69
  Q 36.19 38.12 36.28 40.08
  A 0.26 0.26 0.0 0 0 36.67 40.30
  L 39.41 38.80
  A 0.95 0.94 -89.1 0 0 39.77 38.44
  Q 40.09 37.89 40.17 37.22
  Q 40.36 35.78 40.26 33.82
  A 0.26 0.26 0.0 0 0 39.87 33.61
  L 37.14 35.10
  A 0.95 0.94 -89.1 0 0 36.78 35.46
  Q 36.46 36.02 36.37 36.69"
/>
<path stroke="#b1b1b9" vector-effect="non-scaling-stroke" d="
  M 41.56 39.37
  Q 41.43 40.54 41.53 42.15
  A 0.22 0.21 -16.5 0 0 41.85 42.32
  L 44.08 41.06
  A 0.78 0.77 -89.8 0 0 44.37 40.77
  Q 44.63 40.31 44.69 39.76
  Q 44.83 38.58 44.73 36.98
  A 0.22 0.21 -16.5 0 0 44.41 36.80
  L 42.18 38.06
  A 0.78 0.77 -89.8 0 0 41.89 38.35
  Q 41.63 38.81 41.56 39.37"
/>
<path stroke="#b1b1b9" vector-effect="non-scaling-stroke" d="
  M 37.21 41.28
  Q 36.71 41.65 36.41 42.16
  A 0.87 0.86 -30.0 0 0 36.29 42.61
  L 36.30 45.47
  A 0.24 0.24 0.0 0 0 36.65 45.68
  Q 38.26 44.89 39.34 44.10
  Q 39.83 43.73 40.14 43.23
  A 0.87 0.86 -30.0 0 0 40.26 42.78
  L 40.24 39.92
  A 0.24 0.24 0.0 0 0 39.90 39.70
  Q 38.28 40.50 37.21 41.28"
/>
<path stroke="#b1b1b9" vector-effect="non-scaling-stroke" d="
  M 44.70 45.16
  Q 44.83 43.97 44.72 42.34
  A 0.22 0.22 0.0 0 0 44.39 42.16
  L 42.14 43.45
  A 0.79 0.78 89.9 0 0 41.84 43.75
  Q 41.58 44.22 41.52 44.78
  Q 41.38 45.98 41.49 47.61
  A 0.22 0.22 0.0 0 0 41.82 47.79
  L 44.08 46.50
  A 0.79 0.78 89.9 0 0 44.37 46.20
  Q 44.63 45.73 44.70 45.16"
/>
<path stroke="#b1b1b9" vector-effect="non-scaling-stroke" d="
  M 37.13 46.69
  Q 36.62 47.09 36.33 47.61
  A 0.89 0.88 -31.4 0 0 36.21 48.07
  L 36.30 51.00
  A 0.25 0.24 75.2 0 0 36.66 51.21
  Q 38.29 50.36 39.37 49.52
  Q 39.87 49.13 40.17 48.61
  A 0.89 0.88 -31.4 0 0 40.28 48.14
  L 40.19 45.22
  A 0.25 0.24 75.2 0 0 39.83 45.00
  Q 38.20 45.86 37.13 46.69"
/>
</g>
<path fill="#323340" d="
  M 33.81 88.00
  L 33.04 88.00
  C 16.80 73.25 -6.13 44.49 3.91 20.78
  Q 7.59 12.11 15.45 6.83
  C 36.93 -7.60 66.61 7.94 65.42 34.31
  Q 65.06 42.36 62.13 49.56
  C 56.15 64.27 45.46 77.36 33.81 88.00
  Z
  M 33.41 86.62
  C 33.81 86.62 33.65 86.64 33.82 86.48
  Q 44.82 76.11 52.95 64.23
  C 64.39 47.52 71.44 23.83 52.43 8.94
  C 47.31 4.93 40.44 2.48 33.53 2.47
  C 26.62 2.47 19.74 4.89 14.61 8.89
  C -4.44 23.72 2.54 47.43 13.94 64.17
  Q 22.03 76.08 33.01 86.48
  C 33.18 86.64 33.01 86.62 33.41 86.62
  Z"
/>
<path fill="#636373" d="
  M 33.53 2.47
  C 40.44 2.48 47.31 4.93 52.43 8.94
  C 71.44 23.83 64.39 47.52 52.95 64.23
  Q 44.82 76.11 33.82 86.48
  C 33.65 86.64 33.81 86.62 33.41 86.62
  C 33.01 86.62 33.18 86.64 33.01 86.48
  Q 22.03 76.08 13.94 64.17
  C 2.54 47.43 -4.44 23.72 14.61 8.89
  C 19.74 4.89 26.62 2.47 33.53 2.47
  Z
  M 18.83 34.68
  Q 18.85 45.17 18.86 45.33
  A 1.60 1.57 -76.1 0 0 19.57 46.52
  L 33.38 55.60
  A 1.37 1.37 0.0 0 0 34.88 55.60
  L 47.34 47.40
  A 0.93 0.91 -15.5 0 0 47.76 46.67
  Q 47.86 45.00 47.84 34.75
  Q 47.82 24.27 47.80 24.11
  A 1.60 1.57 -76.1 0 0 47.10 22.92
  L 33.29 13.84
  A 1.37 1.37 0.0 0 0 31.79 13.84
  L 19.33 22.04
  A 0.93 0.91 -15.5 0 0 18.90 22.76
  Q 18.81 24.44 18.83 34.68
  Z"
/>
<path fill="#323340" d="
  M 47.84 34.75
  Q 47.86 45.00 47.76 46.67
  A 0.93 0.91 -15.5 0 1 47.34 47.40
  L 34.88 55.60
  A 1.37 1.37 0.0 0 1 33.38 55.60
  L 19.57 46.52
  A 1.60 1.57 -76.1 0 1 18.86 45.33
  Q 18.85 45.17 18.83 34.68
  Q 18.81 24.44 18.90 22.76
  A 0.93 0.91 -15.5 0 1 19.33 22.04
  L 31.79 13.84
  A 1.37 1.37 0.0 0 1 33.29 13.84
  L 47.10 22.92
  A 1.60 1.57 -76.1 0 1 47.80 24.11
  Q 47.82 24.27 47.84 34.75
  Z
  M 33.85 53.30
  L 33.85 34.83
  A 1.02 1.02 0.0 0 1 34.32 33.97
  L 45.27 26.76
  A 1.92 1.92 0.0 0 0 45.27 23.56
  L 33.13 15.58
  A 0.81 0.80 44.5 0 0 32.26 15.58
  L 20.94 23.03
  A 1.12 1.12 0.0 0 0 20.43 23.97
  L 20.43 44.28
  A 1.61 1.59 -73.7 0 0 21.15 45.62
  L 33.29 53.60
  A 0.36 0.36 0.0 0 0 33.85 53.30
  Z
  M 45.85 46.71
  A 0.34 0.34 0.0 0 0 46.00 46.43
  L 46.00 28.57
  A 0.34 0.34 0.0 0 0 45.47 28.29
  L 35.08 35.12
  A 0.34 0.34 0.0 0 0 34.93 35.40
  L 34.93 53.26
  A 0.34 0.34 0.0 0 0 35.46 53.54
  L 45.85 46.71
  Z"
/>
<path fill="#fefefe" d="
  M 33.85 53.30
  A 0.36 0.36 0.0 0 1 33.29 53.60
  L 21.15 45.62
  A 1.61 1.59 -73.7 0 1 20.43 44.28
  L 20.43 23.97
  A 1.12 1.12 0.0 0 1 20.94 23.03
  L 32.26 15.58
  A 0.81 0.80 44.5 0 1 33.13 15.58
  L 45.27 23.56
  A 1.92 1.92 0.0 0 1 45.27 26.76
  L 34.32 33.97
  A 1.02 1.02 0.0 0 0 33.85 34.83
  L 33.85 53.30
  Z
  M 34.36 17.85
  Q 33.60 17.33 33.27 17.12
  A 1.01 1.01 0.0 0 0 32.16 17.12
  L 28.38 19.56
  A 0.34 0.34 0.0 0 0 28.39 20.14
  Q 28.93 20.46 31.68 22.30
  Q 32.44 22.81 32.77 23.03
  A 1.01 1.01 0.0 0 0 33.88 23.02
  L 37.66 20.58
  A 0.34 0.34 0.0 0 0 37.65 20.00
  Q 37.11 19.69 34.36 17.85
  Z
  M 26.54 27.40
  A 0.52 0.52 0.0 0 0 27.12 27.40
  L 31.50 24.51
  A 0.52 0.52 0.0 0 0 31.50 23.65
  L 27.15 20.78
  A 0.52 0.52 0.0 0 0 26.57 20.78
  L 22.19 23.67
  A 0.52 0.52 0.0 0 0 22.19 24.53
  L 26.54 27.40
  Z
  M 38.14 26.81
  Q 38.94 27.37 39.28 27.60
  A 1.07 1.07 0.0 0 0 40.45 27.63
  L 44.51 25.15
  A 0.36 0.36 0.0 0 0 44.52 24.54
  Q 43.96 24.19 41.10 22.17
  Q 40.31 21.61 39.97 21.37
  A 1.07 1.07 0.0 0 0 38.80 21.34
  L 34.73 23.82
  A 0.36 0.36 0.0 0 0 34.72 24.44
  Q 35.28 24.78 38.14 26.81
  Z
  M 32.02 30.96
  Q 32.86 31.51 33.22 31.74
  A 1.11 1.11 0.0 0 0 34.43 31.73
  L 38.54 29.03
  A 0.38 0.37 -47.1 0 0 38.52 28.40
  Q 37.93 28.06 34.91 26.07
  Q 34.07 25.52 33.71 25.29
  A 1.11 1.11 0.0 0 0 32.50 25.30
  L 28.39 28.00
  A 0.38 0.37 -47.1 0 0 28.41 28.64
  Q 29.00 28.97 32.02 30.96
  Z
  M 25.95 30.10
  Q 25.87 29.41 25.55 28.84
  A 0.97 0.96 89.9 0 0 25.18 28.47
  L 22.43 26.91
  A 0.27 0.26 16.6 0 0 22.03 27.12
  Q 21.90 29.11 22.07 30.58
  Q 22.15 31.26 22.46 31.83
  A 0.97 0.96 89.9 0 0 22.83 32.19
  L 25.58 33.76
  A 0.27 0.26 16.6 0 0 25.98 33.54
  Q 26.11 31.55 25.95 30.10
  Z
  M 28.46 35.84
  Q 29.79 36.80 31.80 37.78
  A 0.30 0.30 0.0 0 0 32.23 37.51
  L 32.23 33.96
  A 1.08 1.07 29.6 0 0 32.07 33.40
  Q 31.69 32.78 31.07 32.33
  Q 29.74 31.36 27.73 30.38
  A 0.30 0.30 0.0 0 0 27.30 30.65
  L 27.30 34.20
  A 1.08 1.07 29.6 0 0 27.45 34.76
  Q 27.83 35.38 28.46 35.84
  Z
  M 26.17 36.97
  Q 26.13 36.20 25.83 35.55
  A 1.07 1.06 -85.7 0 0 25.46 35.11
  L 22.56 33.16
  A 0.29 0.29 0.0 0 0 22.11 33.36
  Q 21.80 35.54 21.86 37.17
  Q 21.89 37.92 22.19 38.58
  A 1.07 1.06 -85.7 0 0 22.56 39.01
  L 25.45 40.96
  A 0.29 0.29 0.0 0 0 25.91 40.76
  Q 26.22 38.58 26.17 36.97
  Z
  M 27.27 41.89
  A 0.36 0.36 0.0 0 0 27.43 42.19
  L 31.66 44.97
  A 0.36 0.36 0.0 0 0 32.22 44.67
  L 32.22 39.63
  A 0.36 0.36 0.0 0 0 32.06 39.33
  L 27.83 36.56
  A 0.36 0.36 0.0 0 0 27.27 36.86
  L 27.27 41.89
  Z
  M 25.15 42.01
  Q 24.07 41.17 22.42 40.29
  A 0.25 0.25 0.0 0 0 22.06 40.50
  L 21.95 43.47
  A 0.90 0.90 0.0 0 0 22.06 43.94
  Q 22.36 44.47 22.86 44.87
  Q 23.95 45.72 25.59 46.60
  A 0.25 0.25 0.0 0 0 25.96 46.39
  L 26.07 43.42
  A 0.90 0.90 0.0 0 0 25.96 42.95
  Q 25.66 42.42 25.15 42.01
  Z
  M 28.60 48.92
  Q 29.88 49.77 31.80 50.60
  A 0.28 0.28 0.0 0 0 32.19 50.33
  L 32.05 47.01
  A 1.01 1.00 27.2 0 0 31.88 46.49
  Q 31.50 45.92 30.90 45.53
  Q 29.61 44.67 27.69 43.84
  A 0.28 0.28 0.0 0 0 27.30 44.11
  L 27.44 47.43
  A 1.01 1.00 27.2 0 0 27.61 47.95
  Q 27.99 48.52 28.60 48.92
  Z"
/>
<path fill="#636373" d="
  M 34.36 17.85
  Q 37.11 19.69 37.65 20.00
  A 0.34 0.34 0.0 0 1 37.66 20.58
  L 33.88 23.02
  A 1.01 1.01 0.0 0 1 32.77 23.03
  Q 32.44 22.81 31.68 22.30
  Q 28.93 20.46 28.39 20.14
  A 0.34 0.34 0.0 0 1 28.38 19.56
  L 32.16 17.12
  A 1.01 1.01 0.0 0 1 33.27 17.12
  Q 33.60 17.33 34.36 17.85
  Z"
/>
<path fill="#636373" d="
  M 26.54 27.40
  L 22.19 24.53
  A 0.52 0.52 0.0 0 1 22.19 23.67
  L 26.57 20.78
  A 0.52 0.52 0.0 0 1 27.15 20.78
  L 31.50 23.65
  A 0.52 0.52 0.0 0 1 31.50 24.51
  L 27.12 27.40
  A 0.52 0.52 0.0 0 1 26.54 27.40
  Z"
/>
<path fill="#636373" d="
  M 38.14 26.81
  Q 35.28 24.78 34.72 24.44
  A 0.36 0.36 0.0 0 1 34.73 23.82
  L 38.80 21.34
  A 1.07 1.07 0.0 0 1 39.97 21.37
  Q 40.31 21.61 41.10 22.17
  Q 43.96 24.19 44.52 24.54
  A 0.36 0.36 0.0 0 1 44.51 25.15
  L 40.45 27.63
  A 1.07 1.07 0.0 0 1 39.28 27.60
  Q 38.94 27.37 38.14 26.81
  Z"
/>
<path fill="#636373" d="
  M 32.02 30.96
  Q 29.00 28.97 28.41 28.64
  A 0.38 0.37 -47.1 0 1 28.39 28.00
  L 32.50 25.30
  A 1.11 1.11 0.0 0 1 33.71 25.29
  Q 34.07 25.52 34.91 26.07
  Q 37.93 28.06 38.52 28.40
  A 0.38 0.37 -47.1 0 1 38.54 29.03
  L 34.43 31.73
  A 1.11 1.11 0.0 0 1 33.22 31.74
  Q 32.86 31.51 32.02 30.96
  Z"
/>
<path fill="#636373" d="
  M 25.95 30.10
  Q 26.11 31.55 25.98 33.54
  A 0.27 0.26 16.6 0 1 25.58 33.76
  L 22.83 32.19
  A 0.97 0.96 89.9 0 1 22.46 31.83
  Q 22.15 31.26 22.07 30.58
  Q 21.90 29.11 22.03 27.12
  A 0.27 0.26 16.6 0 1 22.43 26.91
  L 25.18 28.47
  A 0.97 0.96 89.9 0 1 25.55 28.84
  Q 25.87 29.41 25.95 30.10
  Z"
/>
<path fill="#fefefe" d="
  M 45.85 46.71
  L 35.46 53.54
  A 0.34 0.34 0.0 0 1 34.93 53.26
  L 34.93 35.40
  A 0.34 0.34 0.0 0 1 35.08 35.12
  L 45.47 28.29
  A 0.34 0.34 0.0 0 1 46.00 28.57
  L 46.00 46.43
  A 0.34 0.34 0.0 0 1 45.85 46.71
  Z
  M 41.49 33.87
  Q 41.39 35.18 41.53 36.50
  A 0.48 0.47 70.3 0 0 42.26 36.85
  L 44.17 35.60
  A 1.14 1.12 -16.7 0 0 44.67 34.69
  Q 44.68 34.21 44.71 33.75
  Q 44.82 32.44 44.69 31.12
  A 0.48 0.47 70.3 0 0 43.95 30.77
  L 42.04 32.02
  A 1.14 1.12 -16.7 0 0 41.54 32.94
  Q 41.53 33.41 41.49 33.87
  Z
  M 36.37 36.69
  Q 36.19 38.12 36.28 40.08
  A 0.26 0.26 0.0 0 0 36.67 40.30
  L 39.41 38.80
  A 0.95 0.94 -89.1 0 0 39.77 38.44
  Q 40.09 37.89 40.17 37.22
  Q 40.36 35.78 40.26 33.82
  A 0.26 0.26 0.0 0 0 39.87 33.61
  L 37.14 35.10
  A 0.95 0.94 -89.1 0 0 36.78 35.46
  Q 36.46 36.02 36.37 36.69
  Z
  M 41.56 39.37
  Q 41.43 40.54 41.53 42.15
  A 0.22 0.21 -16.5 0 0 41.85 42.32
  L 44.08 41.06
  A 0.78 0.77 -89.8 0 0 44.37 40.77
  Q 44.63 40.31 44.69 39.76
  Q 44.83 38.58 44.73 36.98
  A 0.22 0.21 -16.5 0 0 44.41 36.80
  L 42.18 38.06
  A 0.78 0.77 -89.8 0 0 41.89 38.35
  Q 41.63 38.81 41.56 39.37
  Z
  M 37.21 41.28
  Q 36.71 41.65 36.41 42.16
  A 0.87 0.86 -30.0 0 0 36.29 42.61
  L 36.30 45.47
  A 0.24 0.24 0.0 0 0 36.65 45.68
  Q 38.26 44.89 39.34 44.10
  Q 39.83 43.73 40.14 43.23
  A 0.87 0.86 -30.0 0 0 40.26 42.78
  L 40.24 39.92
  A 0.24 0.24 0.0 0 0 39.90 39.70
  Q 38.28 40.50 37.21 41.28
  Z
  M 44.70 45.16
  Q 44.83 43.97 44.72 42.34
  A 0.22 0.22 0.0 0 0 44.39 42.16
  L 42.14 43.45
  A 0.79 0.78 89.9 0 0 41.84 43.75
  Q 41.58 44.22 41.52 44.78
  Q 41.38 45.98 41.49 47.61
  A 0.22 0.22 0.0 0 0 41.82 47.79
  L 44.08 46.50
  A 0.79 0.78 89.9 0 0 44.37 46.20
  Q 44.63 45.73 44.70 45.16
  Z
  M 37.13 46.69
  Q 36.62 47.09 36.33 47.61
  A 0.89 0.88 -31.4 0 0 36.21 48.07
  L 36.30 51.00
  A 0.25 0.24 75.2 0 0 36.66 51.21
  Q 38.29 50.36 39.37 49.52
  Q 39.87 49.13 40.17 48.61
  A 0.89 0.88 -31.4 0 0 40.28 48.14
  L 40.19 45.22
  A 0.25 0.24 75.2 0 0 39.83 45.00
  Q 38.20 45.86 37.13 46.69
  Z"
/>
<path fill="#636373" d="
  M 28.46 35.84
  Q 27.83 35.38 27.45 34.76
  A 1.08 1.07 29.6 0 1 27.30 34.20
  L 27.30 30.65
  A 0.30 0.30 0.0 0 1 27.73 30.38
  Q 29.74 31.36 31.07 32.33
  Q 31.69 32.78 32.07 33.40
  A 1.08 1.07 29.6 0 1 32.23 33.96
  L 32.23 37.51
  A 0.30 0.30 0.0 0 1 31.80 37.78
  Q 29.79 36.80 28.46 35.84
  Z"
/>
<path fill="#636373" d="
  M 44.71 33.75
  Q 44.68 34.21 44.67 34.69
  A 1.14 1.12 -16.7 0 1 44.17 35.60
  L 42.26 36.85
  A 0.48 0.47 70.3 0 1 41.53 36.50
  Q 41.39 35.18 41.49 33.87
  Q 41.53 33.41 41.54 32.94
  A 1.14 1.12 -16.7 0 1 42.04 32.02
  L 43.95 30.77
  A 0.48 0.47 70.3 0 1 44.69 31.12
  Q 44.82 32.44 44.71 33.75
  Z"
/>
<path fill="#636373" d="
  M 26.17 36.97
  Q 26.22 38.58 25.91 40.76
  A 0.29 0.29 0.0 0 1 25.45 40.96
  L 22.56 39.01
  A 1.07 1.06 -85.7 0 1 22.19 38.58
  Q 21.89 37.92 21.86 37.17
  Q 21.80 35.54 22.11 33.36
  A 0.29 0.29 0.0 0 1 22.56 33.16
  L 25.46 35.11
  A 1.07 1.06 -85.7 0 1 25.83 35.55
  Q 26.13 36.20 26.17 36.97
  Z"
/>
<path fill="#636373" d="
  M 36.37 36.69
  Q 36.46 36.02 36.78 35.46
  A 0.95 0.94 -89.1 0 1 37.14 35.10
  L 39.87 33.61
  A 0.26 0.26 0.0 0 1 40.26 33.82
  Q 40.36 35.78 40.17 37.22
  Q 40.09 37.89 39.77 38.44
  A 0.95 0.94 -89.1 0 1 39.41 38.80
  L 36.67 40.30
  A 0.26 0.26 0.0 0 1 36.28 40.08
  Q 36.19 38.12 36.37 36.69
  Z"
/>
<path fill="#636373" d="
  M 27.27 41.89
  L 27.27 36.86
  A 0.36 0.36 0.0 0 1 27.83 36.56
  L 32.06 39.33
  A 0.36 0.36 0.0 0 1 32.22 39.63
  L 32.22 44.67
  A 0.36 0.36 0.0 0 1 31.66 44.97
  L 27.43 42.19
  A 0.36 0.36 0.0 0 1 27.27 41.89
  Z"
/>
<path fill="#636373" d="
  M 41.56 39.37
  Q 41.63 38.81 41.89 38.35
  A 0.78 0.77 -89.8 0 1 42.18 38.06
  L 44.41 36.80
  A 0.22 0.21 -16.5 0 1 44.73 36.98
  Q 44.83 38.58 44.69 39.76
  Q 44.63 40.31 44.37 40.77
  A 0.78 0.77 -89.8 0 1 44.08 41.06
  L 41.85 42.32
  A 0.22 0.21 -16.5 0 1 41.53 42.15
  Q 41.43 40.54 41.56 39.37
  Z"
/>
<path fill="#636373" d="
  M 37.21 41.28
  Q 38.28 40.50 39.90 39.70
  A 0.24 0.24 0.0 0 1 40.24 39.92
  L 40.26 42.78
  A 0.87 0.86 -30.0 0 1 40.14 43.23
  Q 39.83 43.73 39.34 44.10
  Q 38.26 44.89 36.65 45.68
  A 0.24 0.24 0.0 0 1 36.30 45.47
  L 36.29 42.61
  A 0.87 0.86 -30.0 0 1 36.41 42.16
  Q 36.71 41.65 37.21 41.28
  Z"
/>
<path fill="#636373" d="
  M 25.15 42.01
  Q 25.66 42.42 25.96 42.95
  A 0.90 0.90 0.0 0 1 26.07 43.42
  L 25.96 46.39
  A 0.25 0.25 0.0 0 1 25.59 46.60
  Q 23.95 45.72 22.86 44.87
  Q 22.36 44.47 22.06 43.94
  A 0.90 0.90 0.0 0 1 21.95 43.47
  L 22.06 40.50
  A 0.25 0.25 0.0 0 1 22.42 40.29
  Q 24.07 41.17 25.15 42.01
  Z"
/>
<path fill="#636373" d="
  M 44.70 45.16
  Q 44.63 45.73 44.37 46.20
  A 0.79 0.78 89.9 0 1 44.08 46.50
  L 41.82 47.79
  A 0.22 0.22 0.0 0 1 41.49 47.61
  Q 41.38 45.98 41.52 44.78
  Q 41.58 44.22 41.84 43.75
  A 0.79 0.78 89.9 0 1 42.14 43.45
  L 44.39 42.16
  A 0.22 0.22 0.0 0 1 44.72 42.34
  Q 44.83 43.97 44.70 45.16
  Z"
/>
<path fill="#636373" d="
  M 28.60 48.92
  Q 27.99 48.52 27.61 47.95
  A 1.01 1.00 27.2 0 1 27.44 47.43
  L 27.30 44.11
  A 0.28 0.28 0.0 0 1 27.69 43.84
  Q 29.61 44.67 30.90 45.53
  Q 31.50 45.92 31.88 46.49
  A 1.01 1.00 27.2 0 1 32.05 47.01
  L 32.19 50.33
  A 0.28 0.28 0.0 0 1 31.80 50.60
  Q 29.88 49.77 28.60 48.92
  Z"
/>
<path fill="#636373" d="
  M 37.13 46.69
  Q 38.20 45.86 39.83 45.00
  A 0.25 0.24 75.2 0 1 40.19 45.22
  L 40.28 48.14
  A 0.89 0.88 -31.4 0 1 40.17 48.61
  Q 39.87 49.13 39.37 49.52
  Q 38.29 50.36 36.66 51.21
  A 0.25 0.24 75.2 0 1 36.30 51.00
  L 36.21 48.07
  A 0.89 0.88 -31.4 0 1 36.33 47.61
  Q 36.62 47.09 37.13 46.69
  Z"
/>
</svg>
