<?xml version="1.0" encoding="UTF-8" standalone="no"?>
<!DOCTYPE svg PUBLIC "-//W3C//DTD SVG 1.1//EN" "http://www.w3.org/Graphics/SVG/1.1/DTD/svg11.dtd">
<svg xmlns="http://www.w3.org/2000/svg" version="1.1" viewBox="0.00 0.00 66.00 88.00">
<g stroke-width="2.00" fill="none" stroke-linecap="butt">
<path stroke="#87352b" vector-effect="non-scaling-stroke" d="
  M 33.41 86.71
  Q 33.52 86.71 33.62 86.69
  Q 33.64 86.68 33.77 86.56
  Q 44.99 76.05 53.58 63.30
  C 63.71 48.27 70.42 26.78 55.80 11.94
  C 49.92 5.98 42.05 2.46 33.52 2.45
  C 24.99 2.44 17.11 5.94 11.22 11.88
  C -3.44 26.69 3.21 48.19 13.31 63.25
  Q 21.86 76.02 33.06 86.56
  Q 33.19 86.68 33.20 86.69
  Q 33.30 86.71 33.41 86.71"
/>
<path stroke="#733e40" vector-effect="non-scaling-stroke" d="
  M 44.7063 20.7008
  A 3.71 3.71 0.0 0 0 40.9448 17.0430
  L 25.3863 17.2603
  A 3.71 3.71 0.0 0 0 21.7285 21.0217
  L 22.0937 47.1792
  A 3.71 3.71 0.0 0 0 25.8552 50.8370
  L 41.4137 50.6197
  A 3.71 3.71 0.0 0 0 45.0715 46.8583
  L 44.7063 20.7008"
/>
<path stroke="#999aa2" vector-effect="non-scaling-stroke" d="
  M 43.4750 20.5478
  A 2.33 2.33 0.0 0 0 41.1127 18.2505
  L 25.2142 18.4725
  A 2.33 2.33 0.0 0 0 22.9170 20.8348
  L 23.2850 47.1922
  A 2.33 2.33 0.0 0 0 25.6473 49.4895
  L 41.5458 49.2675
  A 2.33 2.33 0.0 0 0 43.8430 46.9052
  L 43.4750 20.5478"
/>
<path stroke="#999aa2" vector-effect="non-scaling-stroke" d="
  M 36.11 37.07
  L 36.11 30.85
  A 1.18 1.18 0.0 0 0 35.47 29.80
  Q 34.20 29.15 33.87 28.29
  A 0.51 0.51 0.0 0 0 33.03 28.12
  L 31.19 29.96
  A 1.38 1.36 67.7 0 0 30.79 30.93
  L 30.79 36.90
  A 0.30 0.30 0.0 0 0 31.09 37.20
  L 35.98 37.20
  A 0.13 0.13 0.0 0 0 36.11 37.07"
/>
<path stroke="#999aa2" vector-effect="non-scaling-stroke" d="
  M 27.68 30.78
  A 0.40 0.40 0.0 0 0 27.05 31.08
  Q 26.87 34.78 27.16 36.25
  A 1.32 1.32 0.0 0 0 29.75 36.27
  Q 30.47 32.90 27.68 30.78"
/>
<path stroke="#999aa2" vector-effect="non-scaling-stroke" d="
  M 39.12 30.74
  Q 36.24 32.83 36.89 36.27
  A 1.34 1.34 0.0 0 0 39.52 36.31
  Q 39.85 34.82 39.76 31.06
  A 0.41 0.40 71.4 0 0 39.12 30.74"
/>
<path stroke="#999aa2" vector-effect="non-scaling-stroke" d="
  M 39.0099 39.0501
  A 0.60 0.60 0.0 0 0 38.4088 38.4512
  L 28.3088 38.4688
  A 0.60 0.60 0.0 0 0 27.7099 39.0699
  L 27.7101 39.2299
  A 0.60 0.60 0.0 0 0 28.3112 39.8288
  L 38.4112 39.8112
  A 0.60 0.60 0.0 0 0 39.0101 39.2101
  L 39.0099 39.0501"
/>
</g>
<path fill="#5b221b" d="
  M 33.81 88.00
  L 33.15 88.00
  Q 15.61 72.48 6.00 52.51
  Q 2.29 44.81 1.63 35.22
  Q 0.97 25.76 5.25 18.02
  C 15.70 -0.89 41.82 -4.70 57.03 11.50
  Q 64.43 19.39 65.35 30.29
  C 67.17 51.74 48.53 74.60 33.81 88.00
  Z
  M 33.41 86.71
  Q 33.52 86.71 33.62 86.69
  Q 33.64 86.68 33.77 86.56
  Q 44.99 76.05 53.58 63.30
  C 63.71 48.27 70.42 26.78 55.80 11.94
  C 49.92 5.98 42.05 2.46 33.52 2.45
  C 24.99 2.44 17.11 5.94 11.22 11.88
  C -3.44 26.69 3.21 48.19 13.31 63.25
  Q 21.86 76.02 33.06 86.56
  Q 33.19 86.68 33.20 86.69
  Q 33.30 86.71 33.41 86.71
  Z"
/>
<path fill="#b3473b" d="
  M 33.52 2.45
  C 42.05 2.46 49.92 5.98 55.80 11.94
  C 70.42 26.78 63.71 48.27 53.58 63.30
  Q 44.99 76.05 33.77 86.56
  Q 33.64 86.68 33.62 86.69
  Q 33.52 86.71 33.41 86.71
  Q 33.30 86.71 33.20 86.69
  Q 33.19 86.68 33.06 86.56
  Q 21.86 76.02 13.31 63.25
  C 3.21 48.19 -3.44 26.69 11.22 11.88
  C 17.11 5.94 24.99 2.44 33.52 2.45
  Z
  M 44.7063 20.7008
  A 3.71 3.71 0.0 0 0 40.9448 17.0430
  L 25.3863 17.2603
  A 3.71 3.71 0.0 0 0 21.7285 21.0217
  L 22.0937 47.1792
  A 3.71 3.71 0.0 0 0 25.8552 50.8370
  L 41.4137 50.6197
  A 3.71 3.71 0.0 0 0 45.0715 46.8583
  L 44.7063 20.7008
  Z"
/>
<path fill="#333444" d="
  M 45.0715 46.8583
  A 3.71 3.71 0.0 0 1 41.4137 50.6197
  L 25.8552 50.8370
  A 3.71 3.71 0.0 0 1 22.0937 47.1792
  L 21.7285 21.0217
  A 3.71 3.71 0.0 0 1 25.3863 17.2603
  L 40.9448 17.0430
  A 3.71 3.71 0.0 0 1 44.7063 20.7008
  L 45.0715 46.8583
  Z
  M 43.4750 20.5478
  A 2.33 2.33 0.0 0 0 41.1127 18.2505
  L 25.2142 18.4725
  A 2.33 2.33 0.0 0 0 22.9170 20.8348
  L 23.2850 47.1922
  A 2.33 2.33 0.0 0 0 25.6473 49.4895
  L 41.5458 49.2675
  A 2.33 2.33 0.0 0 0 43.8430 46.9052
  L 43.4750 20.5478
  Z"
/>
<path fill="#ffffff" d="
  M 43.8430 46.9052
  A 2.33 2.33 0.0 0 1 41.5458 49.2675
  L 25.6473 49.4895
  A 2.33 2.33 0.0 0 1 23.2850 47.1922
  L 22.9170 20.8348
  A 2.33 2.33 0.0 0 1 25.2142 18.4725
  L 41.1127 18.2505
  A 2.33 2.33 0.0 0 1 43.4750 20.5478
  L 43.8430 46.9052
  Z
  M 36.11 37.07
  L 36.11 30.85
  A 1.18 1.18 0.0 0 0 35.47 29.80
  Q 34.20 29.15 33.87 28.29
  A 0.51 0.51 0.0 0 0 33.03 28.12
  L 31.19 29.96
  A 1.38 1.36 67.7 0 0 30.79 30.93
  L 30.79 36.90
  A 0.30 0.30 0.0 0 0 31.09 37.20
  L 35.98 37.20
  A 0.13 0.13 0.0 0 0 36.11 37.07
  Z
  M 27.68 30.78
  A 0.40 0.40 0.0 0 0 27.05 31.08
  Q 26.87 34.78 27.16 36.25
  A 1.32 1.32 0.0 0 0 29.75 36.27
  Q 30.47 32.90 27.68 30.78
  Z
  M 39.12 30.74
  Q 36.24 32.83 36.89 36.27
  A 1.34 1.34 0.0 0 0 39.52 36.31
  Q 39.85 34.82 39.76 31.06
  A 0.41 0.40 71.4 0 0 39.12 30.74
  Z
  M 39.0099 39.0501
  A 0.60 0.60 0.0 0 0 38.4088 38.4512
  L 28.3088 38.4688
  A 0.60 0.60 0.0 0 0 27.7099 39.0699
  L 27.7101 39.2299
  A 0.60 0.60 0.0 0 0 28.3112 39.8288
  L 38.4112 39.8112
  A 0.60 0.60 0.0 0 0 39.0101 39.2101
  L 39.0099 39.0501
  Z"
/>
<path fill="#333444" d="
  M 36.11 37.07
  A 0.13 0.13 0.0 0 1 35.98 37.20
  L 31.09 37.20
  A 0.30 0.30 0.0 0 1 30.79 36.90
  L 30.79 30.93
  A 1.38 1.36 67.7 0 1 31.19 29.96
  L 33.03 28.12
  A 0.51 0.51 0.0 0 1 33.87 28.29
  Q 34.20 29.15 35.47 29.80
  A 1.18 1.18 0.0 0 1 36.11 30.85
  L 36.11 37.07
  Z"
/>
<path fill="#333444" d="
  M 27.68 30.78
  Q 30.47 32.90 29.75 36.27
  A 1.32 1.32 0.0 0 1 27.16 36.25
  Q 26.87 34.78 27.05 31.08
  A 0.40 0.40 0.0 0 1 27.68 30.78
  Z"
/>
<path fill="#333444" d="
  M 39.76 31.06
  Q 39.85 34.82 39.52 36.31
  A 1.34 1.34 0.0 0 1 36.89 36.27
  Q 36.24 32.83 39.12 30.74
  A 0.41 0.40 71.4 0 1 39.76 31.06
  Z"
/>
<rect fill="#333444" x="-5.65" y="-0.68" transform="translate(33.36,39.14) rotate(-0.1)" width="11.30" height="1.36" rx="0.60"/>
</svg>
