<?xml version="1.0" encoding="UTF-8" standalone="no"?>
<!DOCTYPE svg PUBLIC "-//W3C//DTD SVG 1.1//EN" "http://www.w3.org/Graphics/SVG/1.1/DTD/svg11.dtd">
<svg xmlns="http://www.w3.org/2000/svg" version="1.1" viewBox="0.00 0.00 66.00 88.00">
<g stroke-width="2.00" fill="none" stroke-linecap="butt">
<path stroke="#4a4b57" vector-effect="non-scaling-stroke" d="
  M 33.42 86.62
  C 34.12 86.62 33.58 86.68 33.79 86.48
  Q 46.57 74.58 55.27 60.57
  C 66.09 43.15 69.76 21.44 51.00 7.94
  Q 43.38 2.47 33.50 2.46
  Q 23.62 2.45 15.99 7.91
  C -2.79 21.37 0.83 43.09 11.62 60.53
  Q 20.29 74.55 33.05 86.48
  C 33.26 86.68 32.71 86.62 33.42 86.62"
/>
<path stroke="#4c4c5c" vector-effect="non-scaling-stroke" d="
  M 39.24 44.32
  L 42.42 40.44
  A 2.40 2.36 -26.3 0 0 42.95 38.92
  L 42.91 33.91
  A 1.31 1.25 -64.7 0 0 42.65 33.13
  L 40.39 30.07
  A 1.67 1.64 30.2 0 1 40.08 28.94
  L 40.64 23.17
  A 0.34 0.33 76.1 0 0 40.12 22.85
  Q 40.06 22.89 39.96 23.34
  A 0.43 0.43 0.0 0 1 39.11 23.27
  L 38.86 18.76
  A 1.87 1.86 -68.9 0 0 38.33 17.56
  L 33.66 12.89
  A 0.44 0.44 0.0 0 0 32.99 12.95
  Q 32.33 13.93 32.48 14.85
  Q 33.09 18.60 32.31 21.49
  A 0.03 0.02 -31.7 0 1 32.30 21.51
  L 31.33 21.79
  A 0.28 0.28 0.0 0 1 30.99 21.44
  L 32.09 17.70
  A 0.32 0.32 0.0 0 0 31.56 17.39
  Q 30.32 18.64 27.01 21.47
  C 24.86 23.31 22.72 26.47 25.32 28.72
  A 0.70 0.69 39.4 0 1 25.42 29.66
  C 24.12 31.35 21.84 33.26 21.67 35.18
  Q 21.62 35.82 21.78 39.78
  A 1.35 1.33 22.1 0 0 22.16 40.66
  L 25.90 44.40
  A 0.23 0.23 0.0 0 1 25.68 44.78
  C 23.36 44.11 20.56 44.81 21.34 47.66
  Q 21.66 48.79 23.44 49.27
  A 0.38 0.37 43.7 0 1 23.46 49.99
  C 19.59 51.18 20.85 56.50 24.43 55.19
  Q 28.13 53.84 31.93 52.48
  A 1.69 1.69 0.0 0 1 32.96 52.45
  L 40.94 54.81
  A 1.86 1.85 -72.8 0 0 43.23 53.60
  Q 44.02 51.18 41.09 50.06
  A 0.39 0.38 -42.9 0 1 41.12 49.33
  C 45.16 48.10 43.23 43.75 39.51 44.74
  A 0.26 0.26 0.0 0 1 39.24 44.32"
/>
<path stroke="#9a9aa2" vector-effect="non-scaling-stroke" d="
  M 34.11 15.66
  Q 35.22 21.06 31.25 24.69
  A 0.79 0.79 0.0 0 0 31.14 25.75
  L 33.20 28.53
  A 0.47 0.47 0.0 0 0 33.94 28.55
  L 37.54 24.14
  A 1.18 1.17 65.3 0 0 37.80 23.43
  L 37.81 20.05
  A 1.65 1.60 27.9 0 0 37.50 19.10
  L 34.75 15.38
  A 0.36 0.36 0.0 0 0 34.11 15.66"
/>
<path stroke="#9a9aa2" vector-effect="non-scaling-stroke" d="
  M 31.85 36.85
  C 33.12 35.62 35.23 33.27 33.98 31.68
  Q 30.69 27.50 29.46 26.10
  A 0.96 0.95 -63.6 0 1 29.22 25.37
  L 29.59 21.56
  A 0.24 0.23 -13.4 0 0 29.23 21.34
  Q 26.23 23.23 25.53 25.84
  A 1.37 1.35 34.8 0 0 25.75 27.02
  L 30.97 34.08
  A 1.73 1.72 33.5 0 1 31.26 35.49
  Q 31.05 36.38 31.16 36.68
  A 0.42 0.42 0.0 0 0 31.85 36.85"
/>
<path stroke="#9a9aa2" vector-effect="non-scaling-stroke" d="
  M 38.54 27.15
  L 35.71 30.61
  A 1.34 1.30 65.0 0 0 35.42 31.44
  Q 35.46 34.12 36.96 36.35
  A 0.97 0.95 -46.1 0 1 36.97 37.39
  Q 35.29 40.05 32.87 41.04
  A 1.33 1.33 0.0 0 1 31.78 41.01
  Q 29.76 40.04 29.00 37.26
  A 1.28 1.28 0.0 0 1 29.10 36.36
  L 29.76 35.13
  A 1.06 1.04 41.1 0 0 29.67 34.01
  L 27.15 30.61
  A 0.52 0.51 46.2 0 0 26.33 30.59
  L 23.13 34.49
  A 1.90 1.90 0.0 0 0 22.71 35.91
  L 23.05 39.20
  A 1.72 1.70 -70.6 0 0 23.54 40.24
  L 28.18 44.87
  A 1.63 1.59 -14.7 0 0 28.92 45.29
  Q 32.55 46.21 36.23 45.40
  A 1.36 1.34 13.2 0 0 37.00 44.93
  L 41.24 39.74
  A 1.53 1.52 -25.5 0 0 41.58 38.78
  L 41.54 34.17
  A 1.54 1.50 -65.4 0 0 41.21 33.25
  Q 39.77 31.47 39.04 30.22
  C 38.44 29.18 39.12 28.11 38.91 27.24
  A 0.21 0.21 0.0 0 0 38.54 27.15"
/>
<path stroke="#4c4c5c" vector-effect="non-scaling-stroke" d="
  M 34.44 35.67
  L 31.59 38.60
  A 0.28 0.28 0.0 0 0 31.60 38.99
  L 31.72 39.11
  A 2.02 1.55 -45.8 0 0 34.24 38.74
  L 34.66 38.31
  A 2.02 1.55 -45.8 0 0 34.95 35.78
  L 34.83 35.66
  A 0.28 0.28 0.0 0 0 34.44 35.67"
/>
<path stroke="#9a9aa2" vector-effect="non-scaling-stroke" d="
  M 41.9810 52.9128
  A 1.04 1.04 0.0 0 0 41.3224 51.5977
  L 24.1667 45.8907
  A 1.04 1.04 0.0 0 0 22.8516 46.5493
  L 22.8390 46.5872
  A 1.04 1.04 0.0 0 0 23.4976 47.9023
  L 40.6533 53.6093
  A 1.04 1.04 0.0 0 0 41.9684 52.9507
  L 41.9810 52.9128"
/>
<path stroke="#9a9aa2" vector-effect="non-scaling-stroke" d="
  M 42.04 47.40
  L 41.69 46.09
  A 0.29 0.29 0.0 0 0 41.33 45.88
  L 39.05 46.49
  A 5.05 0.82 -14.8 0 0 34.38 48.57
  L 34.46 48.86
  A 5.05 0.82 -14.8 0 0 39.55 48.36
  L 41.83 47.76
  A 0.29 0.29 0.0 0 0 42.04 47.40"
/>
<path stroke="#9a9aa2" vector-effect="non-scaling-stroke" d="
  M 24.82 52.96
  Q 24.84 53.02 24.84 53.16
  Q 24.84 53.49 25.59 53.22
  Q 27.72 52.43 30.35 51.80
  A 0.36 0.36 0.0 0 0 30.47 51.15
  C 27.94 49.44 26.12 50.33 23.33 51.75
  A 0.89 0.87 85.5 0 0 22.87 52.30
  Q 22.66 53.05 23.05 53.45
  A 0.62 0.62 0.0 0 0 24.06 53.26
  Q 24.07 53.21 24.15 52.98
  A 0.36 0.36 0.0 0 1 24.82 52.96"
/>
</g>
<path fill="#30333a" d="
  M 33.79 88.00
  L 33.03 88.00
  C 16.95 73.38 -5.76 44.92 3.65 21.40
  C 10.06 5.40 28.28 -2.79 44.70 3.34
  C 57.56 8.15 65.97 20.17 65.44 34.06
  Q 65.14 41.78 62.41 48.85
  C 56.67 63.72 45.53 77.36 33.79 88.00
  Z
  M 33.42 86.62
  C 34.12 86.62 33.58 86.68 33.79 86.48
  Q 46.57 74.58 55.27 60.57
  C 66.09 43.15 69.76 21.44 51.00 7.94
  Q 43.38 2.47 33.50 2.46
  Q 23.62 2.45 15.99 7.91
  C -2.79 21.37 0.83 43.09 11.62 60.53
  Q 20.29 74.55 33.05 86.48
  C 33.26 86.68 32.71 86.62 33.42 86.62
  Z"
/>
<path fill="#636373" d="
  M 33.50 2.46
  Q 43.38 2.47 51.00 7.94
  C 69.76 21.44 66.09 43.15 55.27 60.57
  Q 46.57 74.58 33.79 86.48
  C 33.58 86.68 34.12 86.62 33.42 86.62
  C 32.71 86.62 33.26 86.68 33.05 86.48
  Q 20.29 74.55 11.62 60.53
  C 0.83 43.09 -2.79 21.37 15.99 7.91
  Q 23.62 2.45 33.50 2.46
  Z
  M 39.24 44.32
  L 42.42 40.44
  A 2.40 2.36 -26.3 0 0 42.95 38.92
  L 42.91 33.91
  A 1.31 1.25 -64.7 0 0 42.65 33.13
  L 40.39 30.07
  A 1.67 1.64 30.2 0 1 40.08 28.94
  L 40.64 23.17
  A 0.34 0.33 76.1 0 0 40.12 22.85
  Q 40.06 22.89 39.96 23.34
  A 0.43 0.43 0.0 0 1 39.11 23.27
  L 38.86 18.76
  A 1.87 1.86 -68.9 0 0 38.33 17.56
  L 33.66 12.89
  A 0.44 0.44 0.0 0 0 32.99 12.95
  Q 32.33 13.93 32.48 14.85
  Q 33.09 18.60 32.31 21.49
  A 0.03 0.02 -31.7 0 1 32.30 21.51
  L 31.33 21.79
  A 0.28 0.28 0.0 0 1 30.99 21.44
  L 32.09 17.70
  A 0.32 0.32 0.0 0 0 31.56 17.39
  Q 30.32 18.64 27.01 21.47
  C 24.86 23.31 22.72 26.47 25.32 28.72
  A 0.70 0.69 39.4 0 1 25.42 29.66
  C 24.12 31.35 21.84 33.26 21.67 35.18
  Q 21.62 35.82 21.78 39.78
  A 1.35 1.33 22.1 0 0 22.16 40.66
  L 25.90 44.40
  A 0.23 0.23 0.0 0 1 25.68 44.78
  C 23.36 44.11 20.56 44.81 21.34 47.66
  Q 21.66 48.79 23.44 49.27
  A 0.38 0.37 43.7 0 1 23.46 49.99
  C 19.59 51.18 20.85 56.50 24.43 55.19
  Q 28.13 53.84 31.93 52.48
  A 1.69 1.69 0.0 0 1 32.96 52.45
  L 40.94 54.81
  A 1.86 1.85 -72.8 0 0 43.23 53.60
  Q 44.02 51.18 41.09 50.06
  A 0.39 0.38 -42.9 0 1 41.12 49.33
  C 45.16 48.10 43.23 43.75 39.51 44.74
  A 0.26 0.26 0.0 0 1 39.24 44.32
  Z"
/>
<path fill="#343444" d="
  M 39.24 44.32
  A 0.26 0.26 0.0 0 0 39.51 44.74
  C 43.23 43.75 45.16 48.10 41.12 49.33
  A 0.39 0.38 -42.9 0 0 41.09 50.06
  Q 44.02 51.18 43.23 53.60
  A 1.86 1.85 -72.8 0 1 40.94 54.81
  L 32.96 52.45
  A 1.69 1.69 0.0 0 0 31.93 52.48
  Q 28.13 53.84 24.43 55.19
  C 20.85 56.50 19.59 51.18 23.46 49.99
  A 0.38 0.37 43.7 0 0 23.44 49.27
  Q 21.66 48.79 21.34 47.66
  C 20.56 44.81 23.36 44.11 25.68 44.78
  A 0.23 0.23 0.0 0 0 25.90 44.40
  L 22.16 40.66
  A 1.35 1.33 22.1 0 1 21.78 39.78
  Q 21.62 35.82 21.67 35.18
  C 21.84 33.26 24.12 31.35 25.42 29.66
  A 0.70 0.69 39.4 0 0 25.32 28.72
  C 22.72 26.47 24.86 23.31 27.01 21.47
  Q 30.32 18.64 31.56 17.39
  A 0.32 0.32 0.0 0 1 32.09 17.70
  L 30.99 21.44
  A 0.28 0.28 0.0 0 0 31.33 21.79
  L 32.30 21.51
  A 0.03 0.02 -31.7 0 0 32.31 21.49
  Q 33.09 18.60 32.48 14.85
  Q 32.33 13.93 32.99 12.95
  A 0.44 0.44 0.0 0 1 33.66 12.89
  L 38.33 17.56
  A 1.87 1.86 -68.9 0 1 38.86 18.76
  L 39.11 23.27
  A 0.43 0.43 0.0 0 0 39.96 23.34
  Q 40.06 22.89 40.12 22.85
  A 0.34 0.33 76.1 0 1 40.64 23.17
  L 40.08 28.94
  A 1.67 1.64 30.2 0 0 40.39 30.07
  L 42.65 33.13
  A 1.31 1.25 -64.7 0 1 42.91 33.91
  L 42.95 38.92
  A 2.40 2.36 -26.3 0 1 42.42 40.44
  L 39.24 44.32
  Z
  M 34.11 15.66
  Q 35.22 21.06 31.25 24.69
  A 0.79 0.79 0.0 0 0 31.14 25.75
  L 33.20 28.53
  A 0.47 0.47 0.0 0 0 33.94 28.55
  L 37.54 24.14
  A 1.18 1.17 65.3 0 0 37.80 23.43
  L 37.81 20.05
  A 1.65 1.60 27.9 0 0 37.50 19.10
  L 34.75 15.38
  A 0.36 0.36 0.0 0 0 34.11 15.66
  Z
  M 31.85 36.85
  C 33.12 35.62 35.23 33.27 33.98 31.68
  Q 30.69 27.50 29.46 26.10
  A 0.96 0.95 -63.6 0 1 29.22 25.37
  L 29.59 21.56
  A 0.24 0.23 -13.4 0 0 29.23 21.34
  Q 26.23 23.23 25.53 25.84
  A 1.37 1.35 34.8 0 0 25.75 27.02
  L 30.97 34.08
  A 1.73 1.72 33.5 0 1 31.26 35.49
  Q 31.05 36.38 31.16 36.68
  A 0.42 0.42 0.0 0 0 31.85 36.85
  Z
  M 38.54 27.15
  L 35.71 30.61
  A 1.34 1.30 65.0 0 0 35.42 31.44
  Q 35.46 34.12 36.96 36.35
  A 0.97 0.95 -46.1 0 1 36.97 37.39
  Q 35.29 40.05 32.87 41.04
  A 1.33 1.33 0.0 0 1 31.78 41.01
  Q 29.76 40.04 29.00 37.26
  A 1.28 1.28 0.0 0 1 29.10 36.36
  L 29.76 35.13
  A 1.06 1.04 41.1 0 0 29.67 34.01
  L 27.15 30.61
  A 0.52 0.51 46.2 0 0 26.33 30.59
  L 23.13 34.49
  A 1.90 1.90 0.0 0 0 22.71 35.91
  L 23.05 39.20
  A 1.72 1.70 -70.6 0 0 23.54 40.24
  L 28.18 44.87
  A 1.63 1.59 -14.7 0 0 28.92 45.29
  Q 32.55 46.21 36.23 45.40
  A 1.36 1.34 13.2 0 0 37.00 44.93
  L 41.24 39.74
  A 1.53 1.52 -25.5 0 0 41.58 38.78
  L 41.54 34.17
  A 1.54 1.50 -65.4 0 0 41.21 33.25
  Q 39.77 31.47 39.04 30.22
  C 38.44 29.18 39.12 28.11 38.91 27.24
  A 0.21 0.21 0.0 0 0 38.54 27.15
  Z
  M 34.44 35.67
  L 31.59 38.60
  A 0.28 0.28 0.0 0 0 31.60 38.99
  L 31.72 39.11
  A 2.02 1.55 -45.8 0 0 34.24 38.74
  L 34.66 38.31
  A 2.02 1.55 -45.8 0 0 34.95 35.78
  L 34.83 35.66
  A 0.28 0.28 0.0 0 0 34.44 35.67
  Z
  M 41.9810 52.9128
  A 1.04 1.04 0.0 0 0 41.3224 51.5977
  L 24.1667 45.8907
  A 1.04 1.04 0.0 0 0 22.8516 46.5493
  L 22.8390 46.5872
  A 1.04 1.04 0.0 0 0 23.4976 47.9023
  L 40.6533 53.6093
  A 1.04 1.04 0.0 0 0 41.9684 52.9507
  L 41.9810 52.9128
  Z
  M 42.04 47.40
  L 41.69 46.09
  A 0.29 0.29 0.0 0 0 41.33 45.88
  L 39.05 46.49
  A 5.05 0.82 -14.8 0 0 34.38 48.57
  L 34.46 48.86
  A 5.05 0.82 -14.8 0 0 39.55 48.36
  L 41.83 47.76
  A 0.29 0.29 0.0 0 0 42.04 47.40
  Z
  M 24.82 52.96
  Q 24.84 53.02 24.84 53.16
  Q 24.84 53.49 25.59 53.22
  Q 27.72 52.43 30.35 51.80
  A 0.36 0.36 0.0 0 0 30.47 51.15
  C 27.94 49.44 26.12 50.33 23.33 51.75
  A 0.89 0.87 85.5 0 0 22.87 52.30
  Q 22.66 53.05 23.05 53.45
  A 0.62 0.62 0.0 0 0 24.06 53.26
  Q 24.07 53.21 24.15 52.98
  A 0.36 0.36 0.0 0 1 24.82 52.96
  Z"
/>
<path fill="#ffffff" d="
  M 34.75 15.38
  L 37.50 19.10
  A 1.65 1.60 27.9 0 1 37.81 20.05
  L 37.80 23.43
  A 1.18 1.17 65.3 0 1 37.54 24.14
  L 33.94 28.55
  A 0.47 0.47 0.0 0 1 33.20 28.53
  L 31.14 25.75
  A 0.79 0.79 0.0 0 1 31.25 24.69
  Q 35.22 21.06 34.11 15.66
  A 0.36 0.36 0.0 0 1 34.75 15.38
  Z"
/>
<path fill="#ffffff" d="
  M 31.16 36.68
  Q 31.05 36.38 31.26 35.49
  A 1.73 1.72 33.5 0 0 30.97 34.08
  L 25.75 27.02
  A 1.37 1.35 34.8 0 1 25.53 25.84
  Q 26.23 23.23 29.23 21.34
  A 0.24 0.23 -13.4 0 1 29.59 21.56
  L 29.22 25.37
  A 0.96 0.95 -63.6 0 0 29.46 26.10
  Q 30.69 27.50 33.98 31.68
  C 35.23 33.27 33.12 35.62 31.85 36.85
  A 0.42 0.42 0.0 0 1 31.16 36.68
  Z"
/>
<path fill="#ffffff" d="
  M 38.91 27.24
  C 39.12 28.11 38.44 29.18 39.04 30.22
  Q 39.77 31.47 41.21 33.25
  A 1.54 1.50 -65.4 0 1 41.54 34.17
  L 41.58 38.78
  A 1.53 1.52 -25.5 0 1 41.24 39.74
  L 37.00 44.93
  A 1.36 1.34 13.2 0 1 36.23 45.40
  Q 32.55 46.21 28.92 45.29
  A 1.63 1.59 -14.7 0 1 28.18 44.87
  L 23.54 40.24
  A 1.72 1.70 -70.6 0 1 23.05 39.20
  L 22.71 35.91
  A 1.90 1.90 0.0 0 1 23.13 34.49
  L 26.33 30.59
  A 0.52 0.51 46.2 0 1 27.15 30.61
  L 29.67 34.01
  A 1.06 1.04 41.1 0 1 29.76 35.13
  L 29.10 36.36
  A 1.28 1.28 0.0 0 0 29.00 37.26
  Q 29.76 40.04 31.78 41.01
  A 1.33 1.33 0.0 0 0 32.87 41.04
  Q 35.29 40.05 36.97 37.39
  A 0.97 0.95 -46.1 0 0 36.96 36.35
  Q 35.46 34.12 35.42 31.44
  A 1.34 1.30 65.0 0 1 35.71 30.61
  L 38.54 27.15
  A 0.21 0.21 0.0 0 1 38.91 27.24
  Z"
/>
<path fill="#636373" d="
  M 34.44 35.67
  A 0.28 0.28 0.0 0 1 34.83 35.66
  L 34.95 35.78
  A 2.02 1.55 -45.8 0 1 34.66 38.31
  L 34.24 38.74
  A 2.02 1.55 -45.8 0 1 31.72 39.11
  L 31.60 38.99
  A 0.28 0.28 0.0 0 1 31.59 38.60
  L 34.44 35.67
  Z"
/>
<rect fill="#ffffff" x="-10.08" y="-1.06" transform="translate(32.41,49.75) rotate(18.4)" width="20.16" height="2.12" rx="1.04"/>
<path fill="#ffffff" d="
  M 42.04 47.40
  A 0.29 0.29 0.0 0 1 41.83 47.76
  L 39.55 48.36
  A 5.05 0.82 -14.8 0 1 34.46 48.86
  L 34.38 48.57
  A 5.05 0.82 -14.8 0 1 39.05 46.49
  L 41.33 45.88
  A 0.29 0.29 0.0 0 1 41.69 46.09
  L 42.04 47.40
  Z"
/>
<path fill="#ffffff" d="
  M 24.15 52.98
  Q 24.07 53.21 24.06 53.26
  A 0.62 0.62 0.0 0 1 23.05 53.45
  Q 22.66 53.05 22.87 52.30
  A 0.89 0.87 85.5 0 1 23.33 51.75
  C 26.12 50.33 27.94 49.44 30.47 51.15
  A 0.36 0.36 0.0 0 1 30.35 51.80
  Q 27.72 52.43 25.59 53.22
  Q 24.84 53.49 24.84 53.16
  Q 24.84 53.02 24.82 52.96
  A 0.36 0.36 0.0 0 0 24.15 52.98
  Z"
/>
</svg>
