<?xml version="1.0" encoding="UTF-8" standalone="no"?>
<!DOCTYPE svg PUBLIC "-//W3C//DTD SVG 1.1//EN" "http://www.w3.org/Graphics/SVG/1.1/DTD/svg11.dtd">
<svg xmlns="http://www.w3.org/2000/svg" version="1.1" viewBox="0.00 0.00 66.00 88.00">
<g stroke-width="2.00" fill="none" stroke-linecap="butt">
<path stroke="#4a4b57" vector-effect="non-scaling-stroke" d="
  M 33.43 86.62
  C 33.67 86.62 33.69 86.63 33.82 86.50
  Q 50.37 70.70 58.42 54.93
  C 64.61 42.80 67.29 27.97 59.35 16.39
  Q 50.23 3.10 33.75 2.46
  Q 33.62 2.45 33.49 2.45
  Q 33.36 2.45 33.24 2.46
  Q 16.75 3.07 7.61 16.35
  C -0.34 27.92 2.31 42.75 8.48 54.89
  Q 16.51 70.67 33.03 86.50
  C 33.16 86.63 33.18 86.62 33.43 86.62"
/>
<path stroke="#4a4b57" vector-effect="non-scaling-stroke" d="
  M 26.45 51.73
  L 22.93 37.87
  A 1.02 1.00 -28.2 0 1 23.24 36.87
  Q 26.78 33.72 30.59 33.53
  A 2.73 2.67 58.2 0 1 32.09 33.90
  Q 32.31 34.03 35.84 36.40
  C 39.06 38.55 42.38 36.29 44.62 33.86
  Q 48.77 29.32 52.53 23.68
  A 1.08 1.08 0.0 0 0 51.83 22.01
  Q 51.20 21.89 50.78 22.07
  C 46.23 24.14 39.08 25.81 35.17 21.66
  Q 32.30 18.60 30.49 16.73
  C 27.99 14.13 23.52 15.44 20.80 17.20
  Q 16.73 19.83 13.83 20.62
  A 0.78 0.77 -14.8 0 0 13.28 21.56
  L 20.93 51.67
  A 1.22 1.21 -7.0 0 0 22.11 52.59
  L 25.78 52.59
  A 0.70 0.69 83.1 0 0 26.45 51.73"
/>
<path stroke="#98999d" vector-effect="non-scaling-stroke" d="
  M 50.92 23.17
  Q 45.47 25.75 39.72 25.20
  C 35.90 24.84 33.19 21.64 30.82 18.80
  Q 28.49 16.03 26.47 16.32
  Q 22.92 16.82 19.17 19.58
  C 17.80 20.59 16.31 20.95 15.05 21.47
  A 0.66 0.66 0.0 0 0 14.67 22.24
  L 21.93 50.85
  A 0.90 0.90 0.0 0 0 22.80 51.53
  L 24.48 51.53
  A 0.53 0.53 0.0 0 0 25.00 50.87
  L 21.59 37.47
  A 1.04 1.03 -28.8 0 1 21.89 36.46
  Q 25.61 33.06 30.10 32.23
  A 2.84 2.83 -37.2 0 1 31.86 32.47
  Q 33.80 33.41 35.93 35.05
  C 39.02 37.42 41.81 35.20 44.01 32.75
  Q 48.10 28.20 51.22 23.51
  A 0.24 0.23 4.0 0 0 50.92 23.17"
/>
</g>
<path fill="#30323a" d="
  M 33.78 88.00
  L 33.12 88.00
  Q 15.35 72.20 5.96 52.54
  Q 4.51 49.49 3.01 43.95
  Q 1.63 38.80 1.54 34.99
  Q 1.06 15.81 16.75 6.00
  C 26.11 0.15 38.27 -0.19 48.19 4.86
  Q 57.30 9.48 62.11 18.71
  C 66.94 27.99 66.12 39.28 62.40 48.88
  C 56.65 63.73 45.52 77.37 33.78 88.00
  Z
  M 33.43 86.62
  C 33.67 86.62 33.69 86.63 33.82 86.50
  Q 50.37 70.70 58.42 54.93
  C 64.61 42.80 67.29 27.97 59.35 16.39
  Q 50.23 3.10 33.75 2.46
  Q 33.62 2.45 33.49 2.45
  Q 33.36 2.45 33.24 2.46
  Q 16.75 3.07 7.61 16.35
  C -0.34 27.92 2.31 42.75 8.48 54.89
  Q 16.51 70.67 33.03 86.50
  C 33.16 86.63 33.18 86.62 33.43 86.62
  Z"
/>
<path fill="#636373" d="
  M 33.49 2.45
  Q 33.62 2.45 33.75 2.46
  Q 50.23 3.10 59.35 16.39
  C 67.29 27.97 64.61 42.80 58.42 54.93
  Q 50.37 70.70 33.82 86.50
  C 33.69 86.63 33.67 86.62 33.43 86.62
  C 33.18 86.62 33.16 86.63 33.03 86.50
  Q 16.51 70.67 8.48 54.89
  C 2.31 42.75 -0.34 27.92 7.61 16.35
  Q 16.75 3.07 33.24 2.46
  Q 33.36 2.45 33.49 2.45
  Z
  M 26.45 51.73
  L 22.93 37.87
  A 1.02 1.00 -28.2 0 1 23.24 36.87
  Q 26.78 33.72 30.59 33.53
  A 2.73 2.67 58.2 0 1 32.09 33.90
  Q 32.31 34.03 35.84 36.40
  C 39.06 38.55 42.38 36.29 44.62 33.86
  Q 48.77 29.32 52.53 23.68
  A 1.08 1.08 0.0 0 0 51.83 22.01
  Q 51.20 21.89 50.78 22.07
  C 46.23 24.14 39.08 25.81 35.17 21.66
  Q 32.30 18.60 30.49 16.73
  C 27.99 14.13 23.52 15.44 20.80 17.20
  Q 16.73 19.83 13.83 20.62
  A 0.78 0.77 -14.8 0 0 13.28 21.56
  L 20.93 51.67
  A 1.22 1.21 -7.0 0 0 22.11 52.59
  L 25.78 52.59
  A 0.70 0.69 83.1 0 0 26.45 51.73
  Z"
/>
<path fill="#30323a" d="
  M 26.45 51.73
  A 0.70 0.69 83.1 0 1 25.78 52.59
  L 22.11 52.59
  A 1.22 1.21 -7.0 0 1 20.93 51.67
  L 13.28 21.56
  A 0.78 0.77 -14.8 0 1 13.83 20.62
  Q 16.73 19.83 20.80 17.20
  C 23.52 15.44 27.99 14.13 30.49 16.73
  Q 32.30 18.60 35.17 21.66
  C 39.08 25.81 46.23 24.14 50.78 22.07
  Q 51.20 21.89 51.83 22.01
  A 1.08 1.08 0.0 0 1 52.53 23.68
  Q 48.77 29.32 44.62 33.86
  C 42.38 36.29 39.06 38.55 35.84 36.40
  Q 32.31 34.03 32.09 33.90
  A 2.73 2.67 58.2 0 0 30.59 33.53
  Q 26.78 33.72 23.24 36.87
  A 1.02 1.00 -28.2 0 0 22.93 37.87
  L 26.45 51.73
  Z
  M 50.92 23.17
  Q 45.47 25.75 39.72 25.20
  C 35.90 24.84 33.19 21.64 30.82 18.80
  Q 28.49 16.03 26.47 16.32
  Q 22.92 16.82 19.17 19.58
  C 17.80 20.59 16.31 20.95 15.05 21.47
  A 0.66 0.66 0.0 0 0 14.67 22.24
  L 21.93 50.85
  A 0.90 0.90 0.0 0 0 22.80 51.53
  L 24.48 51.53
  A 0.53 0.53 0.0 0 0 25.00 50.87
  L 21.59 37.47
  A 1.04 1.03 -28.8 0 1 21.89 36.46
  Q 25.61 33.06 30.10 32.23
  A 2.84 2.83 -37.2 0 1 31.86 32.47
  Q 33.80 33.41 35.93 35.05
  C 39.02 37.42 41.81 35.20 44.01 32.75
  Q 48.10 28.20 51.22 23.51
  A 0.24 0.23 4.0 0 0 50.92 23.17
  Z"
/>
<path fill="#ffffff" d="
  M 50.92 23.17
  A 0.24 0.23 4.0 0 1 51.22 23.51
  Q 48.10 28.20 44.01 32.75
  C 41.81 35.20 39.02 37.42 35.93 35.05
  Q 33.80 33.41 31.86 32.47
  A 2.84 2.83 -37.2 0 0 30.10 32.23
  Q 25.61 33.06 21.89 36.46
  A 1.04 1.03 -28.8 0 0 21.59 37.47
  L 25.00 50.87
  A 0.53 0.53 0.0 0 1 24.48 51.53
  L 22.80 51.53
  A 0.90 0.90 0.0 0 1 21.93 50.85
  L 14.67 22.24
  A 0.66 0.66 0.0 0 1 15.05 21.47
  C 16.31 20.95 17.80 20.59 19.17 19.58
  Q 22.92 16.82 26.47 16.32
  Q 28.49 16.03 30.82 18.80
  C 33.19 21.64 35.90 24.84 39.72 25.20
  Q 45.47 25.75 50.92 23.17
  Z"
/>
</svg>
