<?xml version="1.0" encoding="UTF-8" standalone="no"?>
<!DOCTYPE svg PUBLIC "-//W3C//DTD SVG 1.1//EN" "http://www.w3.org/Graphics/SVG/1.1/DTD/svg11.dtd">
<svg xmlns="http://www.w3.org/2000/svg" version="1.1" viewBox="0.00 0.00 66.00 88.00">
<g stroke-width="2.00" fill="none" stroke-linecap="butt">
<path stroke="#496d97" vector-effect="non-scaling-stroke" d="
  M 33.39 86.74
  Q 33.50 86.74 33.64 86.61
  Q 47.60 73.64 56.38 58.66
  C 67.03 40.49 68.94 18.80 48.74 6.50
  Q 42.10 2.46 33.53 2.45
  Q 24.96 2.43 18.30 6.45
  C -1.94 18.68 -0.10 40.38 10.49 58.58
  Q 19.22 73.59 33.14 86.61
  Q 33.28 86.74 33.39 86.74"
/>
<path stroke="#4c6285" vector-effect="non-scaling-stroke" d="
  M 29.24 38.02
  Q 29.84 38.62 28.88 40.22
  A 2.28 2.21 -3.5 0 1 28.28 40.88
  Q 25.00 43.28 24.49 43.98
  Q 21.62 47.86 22.93 52.39
  A 1.16 1.14 -83.6 0 0 23.46 53.07
  L 26.43 54.78
  A 1.08 1.03 -35.9 0 0 27.23 54.89
  Q 34.41 53.05 34.64 45.41
  A 1.61 1.60 29.8 0 0 34.38 44.47
  L 33.49 43.07
  A 1.13 1.11 41.8 0 1 33.42 41.98
  Q 34.31 40.16 34.24 38.23
  A 0.58 0.57 -1.4 0 1 34.82 37.63
  L 37.99 37.63
  A 2.57 2.53 -57.9 0 0 39.13 37.36
  L 50.97 31.52
  A 5.35 5.32 -13.2 0 0 53.95 26.74
  L 53.95 26.18
  A 1.93 1.93 0.0 0 0 51.17 24.45
  Q 44.45 27.72 36.33 31.38
  Q 36.10 31.48 35.94 31.32
  Q 35.79 31.17 35.89 30.94
  Q 39.56 22.82 42.83 16.11
  A 1.93 1.93 0.0 0 0 41.11 13.32
  L 40.55 13.32
  A 5.35 5.32 -76.8 0 0 35.76 16.30
  L 29.91 28.13
  A 2.57 2.53 -32.0 0 0 29.64 29.27
  L 29.64 32.44
  A 0.58 0.57 -88.5 0 1 29.04 33.02
  Q 27.11 32.95 25.29 33.84
  A 1.13 1.11 48.3 0 1 24.20 33.77
  L 22.80 32.87
  A 1.61 1.60 60.3 0 0 21.86 32.61
  Q 14.22 32.83 12.37 40.01
  A 1.08 1.03 -54.0 0 0 12.48 40.81
  L 14.18 43.78
  A 1.16 1.14 -6.4 0 0 14.86 44.32
  Q 19.39 45.63 23.28 42.76
  Q 23.98 42.26 26.38 38.98
  A 2.28 2.21 -86.5 0 1 27.04 38.38
  Q 28.64 37.42 29.24 38.02"
/>
<path stroke="#9999a1" vector-effect="non-scaling-stroke" d="
  M 30.51 36.77
  Q 30.80 37.06 30.81 38.26
  Q 30.83 39.78 29.89 41.45
  A 1.89 1.86 89.6 0 1 29.24 42.12
  Q 26.70 43.65 26.21 44.19
  Q 23.35 47.35 24.17 50.92
  A 3.08 3.07 -15.4 0 0 28.11 53.15
  Q 32.54 51.71 33.20 45.99
  A 1.71 1.69 31.4 0 0 32.92 44.85
  L 31.78 43.18
  A 1.09 1.09 0.0 0 1 31.78 41.96
  Q 33.18 39.89 32.84 37.46
  A 1.20 1.19 -4.0 0 1 34.03 36.10
  L 38.17 36.10
  A 2.23 2.14 30.9 0 0 39.13 35.88
  L 50.25 30.40
  A 2.76 2.72 1.3 0 0 51.40 29.32
  L 52.64 27.17
  A 0.83 0.82 -87.0 0 0 51.59 26.00
  Q 42.50 30.11 33.10 34.42
  Q 33.01 34.46 32.91 34.36
  Q 32.81 34.26 32.85 34.17
  Q 37.18 24.78 41.30 15.70
  A 0.83 0.82 -2.9 0 0 40.13 14.65
  L 37.98 15.88
  A 2.76 2.72 88.8 0 0 36.90 17.03
  L 31.41 28.14
  A 2.23 2.14 59.2 0 0 31.18 29.10
  L 31.18 33.24
  A 1.20 1.19 -86.0 0 1 29.82 34.43
  Q 27.39 34.09 25.32 35.49
  A 1.09 1.09 0.0 0 1 24.10 35.48
  L 22.43 34.34
  A 1.71 1.69 58.7 0 0 21.29 34.06
  Q 15.57 34.71 14.12 39.14
  A 3.08 3.07 -74.5 0 0 16.34 43.08
  Q 19.91 43.91 23.08 41.05
  Q 23.62 40.56 25.15 38.03
  A 1.89 1.86 0.5 0 1 25.82 37.38
  Q 27.49 36.44 29.01 36.46
  Q 30.22 36.48 30.51 36.77"
/>
<path stroke="#9999a1" vector-effect="non-scaling-stroke" d="
  M 22.7425 36.7151
  A 3.86 2.15 -30.6 0 0 18.3256 36.8294
  A 3.86 2.15 -30.6 0 0 16.0975 40.6449
  A 3.86 2.15 -30.6 0 0 20.5144 40.5306
  A 3.86 2.15 -30.6 0 0 22.7425 36.7151"
/>
<path stroke="#9999a1" vector-effect="non-scaling-stroke" d="
  M 30.5701 44.4803
  A 3.85 2.12 -58.7 0 0 26.7585 46.6686
  A 3.85 2.12 -58.7 0 0 26.5699 51.0597
  A 3.85 2.12 -58.7 0 0 30.3815 48.8714
  A 3.85 2.12 -58.7 0 0 30.5701 44.4803"
/>
<path stroke="#4c6285" vector-effect="non-scaling-stroke" d="
  M 20.9837 37.7425
  A 1.91 0.57 -32.9 0 0 19.0704 38.3014
  A 1.91 0.57 -32.9 0 0 17.7763 39.8175
  A 1.91 0.57 -32.9 0 0 19.6896 39.2586
  A 1.91 0.57 -32.9 0 0 20.9837 37.7425"
/>
<path stroke="#4c6285" vector-effect="non-scaling-stroke" d="
  M 29.4902 46.2481
  A 2.01 0.70 -59.5 0 0 27.8669 47.6247
  A 2.01 0.70 -59.5 0 0 27.4498 49.7119
  A 2.01 0.70 -59.5 0 0 29.0731 48.3353
  A 2.01 0.70 -59.5 0 0 29.4902 46.2481"
/>
</g>
<path fill="#2d4966" d="
  M 33.78 88.00
  L 33.03 88.00
  C 16.76 73.21 -6.24 44.35 3.98 20.60
  C 10.69 5.03 28.85 -2.82 45.10 3.50
  C 57.11 8.18 65.46 19.40 65.44 32.53
  Q 65.43 38.75 63.99 44.01
  C 59.39 60.67 46.42 76.57 33.78 88.00
  Z
  M 33.39 86.74
  Q 33.50 86.74 33.64 86.61
  Q 47.60 73.64 56.38 58.66
  C 67.03 40.49 68.94 18.80 48.74 6.50
  Q 42.10 2.46 33.53 2.45
  Q 24.96 2.43 18.30 6.45
  C -1.94 18.68 -0.10 40.38 10.49 58.58
  Q 19.22 73.59 33.14 86.61
  Q 33.28 86.74 33.39 86.74
  Z"
/>
<path fill="#6591c7" d="
  M 33.53 2.45
  Q 42.10 2.46 48.74 6.50
  C 68.94 18.80 67.03 40.49 56.38 58.66
  Q 47.60 73.64 33.64 86.61
  Q 33.50 86.74 33.39 86.74
  Q 33.28 86.74 33.14 86.61
  Q 19.22 73.59 10.49 58.58
  C -0.10 40.38 -1.94 18.68 18.30 6.45
  Q 24.96 2.43 33.53 2.45
  Z
  M 29.24 38.02
  Q 29.84 38.62 28.88 40.22
  A 2.28 2.21 -3.5 0 1 28.28 40.88
  Q 25.00 43.28 24.49 43.98
  Q 21.62 47.86 22.93 52.39
  A 1.16 1.14 -83.6 0 0 23.46 53.07
  L 26.43 54.78
  A 1.08 1.03 -35.9 0 0 27.23 54.89
  Q 34.41 53.05 34.64 45.41
  A 1.61 1.60 29.8 0 0 34.38 44.47
  L 33.49 43.07
  A 1.13 1.11 41.8 0 1 33.42 41.98
  Q 34.31 40.16 34.24 38.23
  A 0.58 0.57 -1.4 0 1 34.82 37.63
  L 37.99 37.63
  A 2.57 2.53 -57.9 0 0 39.13 37.36
  L 50.97 31.52
  A 5.35 5.32 -13.2 0 0 53.95 26.74
  L 53.95 26.18
  A 1.93 1.93 0.0 0 0 51.17 24.45
  Q 44.45 27.72 36.33 31.38
  Q 36.10 31.48 35.94 31.32
  Q 35.79 31.17 35.89 30.94
  Q 39.56 22.82 42.83 16.11
  A 1.93 1.93 0.0 0 0 41.11 13.32
  L 40.55 13.32
  A 5.35 5.32 -76.8 0 0 35.76 16.30
  L 29.91 28.13
  A 2.57 2.53 -32.0 0 0 29.64 29.27
  L 29.64 32.44
  A 0.58 0.57 -88.5 0 1 29.04 33.02
  Q 27.11 32.95 25.29 33.84
  A 1.13 1.11 48.3 0 1 24.20 33.77
  L 22.80 32.87
  A 1.61 1.60 60.3 0 0 21.86 32.61
  Q 14.22 32.83 12.37 40.01
  A 1.08 1.03 -54.0 0 0 12.48 40.81
  L 14.18 43.78
  A 1.16 1.14 -6.4 0 0 14.86 44.32
  Q 19.39 45.63 23.28 42.76
  Q 23.98 42.26 26.38 38.98
  A 2.28 2.21 -86.5 0 1 27.04 38.38
  Q 28.64 37.42 29.24 38.02
  Z"
/>
<path fill="#323343" d="
  M 35.94 31.32
  Q 36.10 31.48 36.33 31.38
  Q 44.45 27.72 51.17 24.45
  A 1.93 1.93 0.0 0 1 53.95 26.18
  L 53.95 26.74
  A 5.35 5.32 -13.2 0 1 50.97 31.52
  L 39.13 37.36
  A 2.57 2.53 -57.9 0 1 37.99 37.63
  L 34.82 37.63
  A 0.58 0.57 -1.4 0 0 34.24 38.23
  Q 34.31 40.16 33.42 41.98
  A 1.13 1.11 41.8 0 0 33.49 43.07
  L 34.38 44.47
  A 1.61 1.60 29.8 0 1 34.64 45.41
  Q 34.41 53.05 27.23 54.89
  A 1.08 1.03 -35.9 0 1 26.43 54.78
  L 23.46 53.07
  A 1.16 1.14 -83.6 0 1 22.93 52.39
  Q 21.62 47.86 24.49 43.98
  Q 25.00 43.28 28.28 40.88
  A 2.28 2.21 -3.5 0 0 28.88 40.22
  Q 29.84 38.62 29.24 38.02
  Q 28.64 37.42 27.04 38.38
  A 2.28 2.21 -86.5 0 0 26.38 38.98
  Q 23.98 42.26 23.28 42.76
  Q 19.39 45.63 14.86 44.32
  A 1.16 1.14 -6.4 0 1 14.18 43.78
  L 12.48 40.81
  A 1.08 1.03 -54.0 0 1 12.37 40.01
  Q 14.22 32.83 21.86 32.61
  A 1.61 1.60 60.3 0 1 22.80 32.87
  L 24.20 33.77
  A 1.13 1.11 48.3 0 0 25.29 33.84
  Q 27.11 32.95 29.04 33.02
  A 0.58 0.57 -88.5 0 0 29.64 32.44
  L 29.64 29.27
  A 2.57 2.53 -32.0 0 1 29.91 28.13
  L 35.76 16.30
  A 5.35 5.32 -76.8 0 1 40.55 13.32
  L 41.11 13.32
  A 1.93 1.93 0.0 0 1 42.83 16.11
  Q 39.56 22.82 35.89 30.94
  Q 35.79 31.17 35.94 31.32
  Z
  M 30.51 36.77
  Q 30.80 37.06 30.81 38.26
  Q 30.83 39.78 29.89 41.45
  A 1.89 1.86 89.6 0 1 29.24 42.12
  Q 26.70 43.65 26.21 44.19
  Q 23.35 47.35 24.17 50.92
  A 3.08 3.07 -15.4 0 0 28.11 53.15
  Q 32.54 51.71 33.20 45.99
  A 1.71 1.69 31.4 0 0 32.92 44.85
  L 31.78 43.18
  A 1.09 1.09 0.0 0 1 31.78 41.96
  Q 33.18 39.89 32.84 37.46
  A 1.20 1.19 -4.0 0 1 34.03 36.10
  L 38.17 36.10
  A 2.23 2.14 30.9 0 0 39.13 35.88
  L 50.25 30.40
  A 2.76 2.72 1.3 0 0 51.40 29.32
  L 52.64 27.17
  A 0.83 0.82 -87.0 0 0 51.59 26.00
  Q 42.50 30.11 33.10 34.42
  Q 33.01 34.46 32.91 34.36
  Q 32.81 34.26 32.85 34.17
  Q 37.18 24.78 41.30 15.70
  A 0.83 0.82 -2.9 0 0 40.13 14.65
  L 37.98 15.88
  A 2.76 2.72 88.8 0 0 36.90 17.03
  L 31.41 28.14
  A 2.23 2.14 59.2 0 0 31.18 29.10
  L 31.18 33.24
  A 1.20 1.19 -86.0 0 1 29.82 34.43
  Q 27.39 34.09 25.32 35.49
  A 1.09 1.09 0.0 0 1 24.10 35.48
  L 22.43 34.34
  A 1.71 1.69 58.7 0 0 21.29 34.06
  Q 15.57 34.71 14.12 39.14
  A 3.08 3.07 -74.5 0 0 16.34 43.08
  Q 19.91 43.91 23.08 41.05
  Q 23.62 40.56 25.15 38.03
  A 1.89 1.86 0.5 0 1 25.82 37.38
  Q 27.49 36.44 29.01 36.46
  Q 30.22 36.48 30.51 36.77
  Z"
/>
<path fill="#ffffff" d="
  M 32.91 34.36
  Q 33.01 34.46 33.10 34.42
  Q 42.50 30.11 51.59 26.00
  A 0.83 0.82 -87.0 0 1 52.64 27.17
  L 51.40 29.32
  A 2.76 2.72 1.3 0 1 50.25 30.40
  L 39.13 35.88
  A 2.23 2.14 30.9 0 1 38.17 36.10
  L 34.03 36.10
  A 1.20 1.19 -4.0 0 0 32.84 37.46
  Q 33.18 39.89 31.78 41.96
  A 1.09 1.09 0.0 0 0 31.78 43.18
  L 32.92 44.85
  A 1.71 1.69 31.4 0 1 33.20 45.99
  Q 32.54 51.71 28.11 53.15
  A 3.08 3.07 -15.4 0 1 24.17 50.92
  Q 23.35 47.35 26.21 44.19
  Q 26.70 43.65 29.24 42.12
  A 1.89 1.86 89.6 0 0 29.89 41.45
  Q 30.83 39.78 30.81 38.26
  Q 30.80 37.06 30.51 36.77
  Q 30.22 36.48 29.01 36.46
  Q 27.49 36.44 25.82 37.38
  A 1.89 1.86 0.5 0 0 25.15 38.03
  Q 23.62 40.56 23.08 41.05
  Q 19.91 43.91 16.34 43.08
  A 3.08 3.07 -74.5 0 1 14.12 39.14
  Q 15.57 34.71 21.29 34.06
  A 1.71 1.69 58.7 0 1 22.43 34.34
  L 24.10 35.48
  A 1.09 1.09 0.0 0 0 25.32 35.49
  Q 27.39 34.09 29.82 34.43
  A 1.20 1.19 -86.0 0 0 31.18 33.24
  L 31.18 29.10
  A 2.23 2.14 59.2 0 1 31.41 28.14
  L 36.90 17.03
  A 2.76 2.72 88.8 0 1 37.98 15.88
  L 40.13 14.65
  A 0.83 0.82 -2.9 0 1 41.30 15.70
  Q 37.18 24.78 32.85 34.17
  Q 32.81 34.26 32.91 34.36
  Z
  M 22.7425 36.7151
  A 3.86 2.15 -30.6 0 0 18.3256 36.8294
  A 3.86 2.15 -30.6 0 0 16.0975 40.6449
  A 3.86 2.15 -30.6 0 0 20.5144 40.5306
  A 3.86 2.15 -30.6 0 0 22.7425 36.7151
  Z
  M 30.5701 44.4803
  A 3.85 2.12 -58.7 0 0 26.7585 46.6686
  A 3.85 2.12 -58.7 0 0 26.5699 51.0597
  A 3.85 2.12 -58.7 0 0 30.3815 48.8714
  A 3.85 2.12 -58.7 0 0 30.5701 44.4803
  Z"
/>
<path fill="#323343" d="
  M 22.7425 36.7151
  A 3.86 2.15 -30.6 0 1 20.5144 40.5306
  A 3.86 2.15 -30.6 0 1 16.0975 40.6449
  A 3.86 2.15 -30.6 0 1 18.3256 36.8294
  A 3.86 2.15 -30.6 0 1 22.7425 36.7151
  Z
  M 20.9837 37.7425
  A 1.91 0.57 -32.9 0 0 19.0704 38.3014
  A 1.91 0.57 -32.9 0 0 17.7763 39.8175
  A 1.91 0.57 -32.9 0 0 19.6896 39.2586
  A 1.91 0.57 -32.9 0 0 20.9837 37.7425
  Z"
/>
<ellipse fill="#6591c7" cx="0.00" cy="0.00" transform="translate(19.38,38.78) rotate(-32.9)" rx="1.91" ry="0.57"/>
<path fill="#323343" d="
  M 30.5701 44.4803
  A 3.85 2.12 -58.7 0 1 30.3815 48.8714
  A 3.85 2.12 -58.7 0 1 26.5699 51.0597
  A 3.85 2.12 -58.7 0 1 26.7585 46.6686
  A 3.85 2.12 -58.7 0 1 30.5701 44.4803
  Z
  M 29.4902 46.2481
  A 2.01 0.70 -59.5 0 0 27.8669 47.6247
  A 2.01 0.70 -59.5 0 0 27.4498 49.7119
  A 2.01 0.70 -59.5 0 0 29.0731 48.3353
  A 2.01 0.70 -59.5 0 0 29.4902 46.2481
  Z"
/>
<ellipse fill="#6591c7" cx="0.00" cy="0.00" transform="translate(28.47,47.98) rotate(-59.5)" rx="2.01" ry="0.70"/>
</svg>
