<?xml version="1.0" encoding="UTF-8" standalone="no"?>
<!DOCTYPE svg PUBLIC "-//W3C//DTD SVG 1.1//EN" "http://www.w3.org/Graphics/SVG/1.1/DTD/svg11.dtd">
<svg xmlns="http://www.w3.org/2000/svg" version="1.1" viewBox="0.00 0.00 66.00 88.00">
<g stroke-width="2.00" fill="none" stroke-linecap="butt">
<path stroke="#7a5531" vector-effect="non-scaling-stroke" d="
  M 33.40 86.69
  Q 33.59 86.69 33.61 86.67
  C 40.03 81.02 46.00 73.90 51.11 66.86
  C 60.75 53.56 69.35 34.63 60.79 18.73
  C 55.47 8.85 44.98 2.47 33.54 2.45
  C 22.10 2.43 11.59 8.77 6.23 18.64
  C -2.38 34.51 6.16 53.47 15.75 66.80
  C 20.84 73.86 26.79 81.00 33.18 86.67
  Q 33.21 86.69 33.40 86.69"
/>
<path stroke="#6b5342" vector-effect="non-scaling-stroke" d="
  M 38.51 39.96
  Q 38.04 35.52 40.78 32.21
  Q 43.17 29.34 43.63 28.28
  Q 47.04 20.42 40.03 14.64
  A 2.60 2.52 -19.3 0 0 38.86 14.10
  L 32.82 13.03
  A 3.21 3.11 42.0 0 0 31.48 13.08
  L 26.32 14.39
  A 1.53 1.50 -75.3 0 0 25.60 14.82
  Q 21.44 19.17 21.65 25.30
  A 0.69 0.69 0.0 0 0 22.34 25.97
  L 28.76 25.97
  A 0.96 0.95 -85.0 0 0 29.70 25.18
  L 30.11 22.88
  A 0.91 0.90 -7.7 0 1 30.63 22.21
  Q 33.66 20.81 35.18 22.83
  A 1.37 1.36 -56.9 0 1 35.42 23.99
  C 35.09 25.28 34.45 26.97 33.20 28.16
  Q 28.39 32.68 29.29 39.98
  A 0.34 0.34 0.0 0 0 29.63 40.27
  L 38.23 40.27
  A 0.28 0.27 -3.6 0 0 38.51 39.96"
/>
<path stroke="#6b5342" vector-effect="non-scaling-stroke" d="
  M 39.15 46.39
  A 2.45 2.45 0.0 0 0 36.70 43.94
  L 31.02 43.94
  A 2.45 2.45 0.0 0 0 28.57 46.39
  L 28.57 52.07
  A 2.45 2.45 0.0 0 0 31.02 54.52
  L 36.70 54.52
  A 2.45 2.45 0.0 0 0 39.15 52.07
  L 39.15 46.39"
/>
<path stroke="#9a9aa1" vector-effect="non-scaling-stroke" d="
  M 24.27 24.23
  L 27.52 24.23
  A 0.65 0.63 -81.3 0 0 28.13 23.77
  L 28.46 22.69
  A 3.62 3.60 3.2 0 1 31.25 20.21
  Q 36.89 19.16 37.15 23.38
  A 3.02 2.81 -43.0 0 1 37.10 24.10
  Q 36.45 27.47 33.14 30.87
  Q 30.58 33.50 30.90 38.03
  A 0.65 0.65 0.0 0 0 31.55 38.64
  L 36.17 38.64
  A 0.63 0.63 0.0 0 0 36.80 38.03
  Q 36.93 34.38 39.18 31.56
  Q 41.74 28.38 42.14 27.45
  Q 44.91 21.10 39.35 16.41
  A 2.17 2.02 73.6 0 0 38.71 16.03
  Q 32.54 13.73 27.33 15.94
  A 2.21 2.17 10.3 0 0 26.55 16.47
  Q 23.44 19.74 23.59 23.57
  A 0.69 0.68 88.7 0 0 24.27 24.23"
/>
<path stroke="#9a9aa1" vector-effect="non-scaling-stroke" d="
  M 37.3549 46.3564
  A 0.69 0.69 0.0 0 0 36.6661 45.6652
  L 30.6661 45.6548
  A 0.69 0.69 0.0 0 0 29.9749 46.3436
  L 29.9651 51.9236
  A 0.69 0.69 0.0 0 0 30.6539 52.6148
  L 36.6539 52.6252
  A 0.69 0.69 0.0 0 0 37.3451 51.9364
  L 37.3549 46.3564"
/>
</g>
<path fill="#52381f" d="
  M 33.81 88.00
  L 33.03 88.00
  C 16.68 73.22 -6.57 43.86 4.21 20.10
  C 12.18 2.55 33.92 -4.05 50.40 6.10
  Q 58.68 11.20 62.70 19.93
  C 66.90 29.02 65.93 39.84 62.33 49.04
  C 56.51 63.90 45.53 77.32 33.81 88.00
  Z
  M 33.40 86.69
  Q 33.59 86.69 33.61 86.67
  C 40.03 81.02 46.00 73.90 51.11 66.86
  C 60.75 53.56 69.35 34.63 60.79 18.73
  C 55.47 8.85 44.98 2.47 33.54 2.45
  C 22.10 2.43 11.59 8.77 6.23 18.64
  C -2.38 34.51 6.16 53.47 15.75 66.80
  C 20.84 73.86 26.79 81.00 33.18 86.67
  Q 33.21 86.69 33.40 86.69
  Z"
/>
<path fill="#a17142" d="
  M 33.54 2.45
  C 44.98 2.47 55.47 8.85 60.79 18.73
  C 69.35 34.63 60.75 53.56 51.11 66.86
  C 46.00 73.90 40.03 81.02 33.61 86.67
  Q 33.59 86.69 33.40 86.69
  Q 33.21 86.69 33.18 86.67
  C 26.79 81.00 20.84 73.86 15.75 66.80
  C 6.16 53.47 -2.38 34.51 6.23 18.64
  C 11.59 8.77 22.10 2.43 33.54 2.45
  Z
  M 38.51 39.96
  Q 38.04 35.52 40.78 32.21
  Q 43.17 29.34 43.63 28.28
  Q 47.04 20.42 40.03 14.64
  A 2.60 2.52 -19.3 0 0 38.86 14.10
  L 32.82 13.03
  A 3.21 3.11 42.0 0 0 31.48 13.08
  L 26.32 14.39
  A 1.53 1.50 -75.3 0 0 25.60 14.82
  Q 21.44 19.17 21.65 25.30
  A 0.69 0.69 0.0 0 0 22.34 25.97
  L 28.76 25.97
  A 0.96 0.95 -85.0 0 0 29.70 25.18
  L 30.11 22.88
  A 0.91 0.90 -7.7 0 1 30.63 22.21
  Q 33.66 20.81 35.18 22.83
  A 1.37 1.36 -56.9 0 1 35.42 23.99
  C 35.09 25.28 34.45 26.97 33.20 28.16
  Q 28.39 32.68 29.29 39.98
  A 0.34 0.34 0.0 0 0 29.63 40.27
  L 38.23 40.27
  A 0.28 0.27 -3.6 0 0 38.51 39.96
  Z
  M 39.15 46.39
  A 2.45 2.45 0.0 0 0 36.70 43.94
  L 31.02 43.94
  A 2.45 2.45 0.0 0 0 28.57 46.39
  L 28.57 52.07
  A 2.45 2.45 0.0 0 0 31.02 54.52
  L 36.70 54.52
  A 2.45 2.45 0.0 0 0 39.15 52.07
  L 39.15 46.39
  Z"
/>
<path fill="#353442" d="
  M 38.51 39.96
  A 0.28 0.27 -3.6 0 1 38.23 40.27
  L 29.63 40.27
  A 0.34 0.34 0.0 0 1 29.29 39.98
  Q 28.39 32.68 33.20 28.16
  C 34.45 26.97 35.09 25.28 35.42 23.99
  A 1.37 1.36 -56.9 0 0 35.18 22.83
  Q 33.66 20.81 30.63 22.21
  A 0.91 0.90 -7.7 0 0 30.11 22.88
  L 29.70 25.18
  A 0.96 0.95 -85.0 0 1 28.76 25.97
  L 22.34 25.97
  A 0.69 0.69 0.0 0 1 21.65 25.30
  Q 21.44 19.17 25.60 14.82
  A 1.53 1.50 -75.3 0 1 26.32 14.39
  L 31.48 13.08
  A 3.21 3.11 42.0 0 1 32.82 13.03
  L 38.86 14.10
  A 2.60 2.52 -19.3 0 1 40.03 14.64
  Q 47.04 20.42 43.63 28.28
  Q 43.17 29.34 40.78 32.21
  Q 38.04 35.52 38.51 39.96
  Z
  M 24.27 24.23
  L 27.52 24.23
  A 0.65 0.63 -81.3 0 0 28.13 23.77
  L 28.46 22.69
  A 3.62 3.60 3.2 0 1 31.25 20.21
  Q 36.89 19.16 37.15 23.38
  A 3.02 2.81 -43.0 0 1 37.10 24.10
  Q 36.45 27.47 33.14 30.87
  Q 30.58 33.50 30.90 38.03
  A 0.65 0.65 0.0 0 0 31.55 38.64
  L 36.17 38.64
  A 0.63 0.63 0.0 0 0 36.80 38.03
  Q 36.93 34.38 39.18 31.56
  Q 41.74 28.38 42.14 27.45
  Q 44.91 21.10 39.35 16.41
  A 2.17 2.02 73.6 0 0 38.71 16.03
  Q 32.54 13.73 27.33 15.94
  A 2.21 2.17 10.3 0 0 26.55 16.47
  Q 23.44 19.74 23.59 23.57
  A 0.69 0.68 88.7 0 0 24.27 24.23
  Z"
/>
<path fill="#ffffff" d="
  M 23.59 23.57
  Q 23.44 19.74 26.55 16.47
  A 2.21 2.17 10.3 0 1 27.33 15.94
  Q 32.54 13.73 38.71 16.03
  A 2.17 2.02 73.6 0 1 39.35 16.41
  Q 44.91 21.10 42.14 27.45
  Q 41.74 28.38 39.18 31.56
  Q 36.93 34.38 36.80 38.03
  A 0.63 0.63 0.0 0 1 36.17 38.64
  L 31.55 38.64
  A 0.65 0.65 0.0 0 1 30.90 38.03
  Q 30.58 33.50 33.14 30.87
  Q 36.45 27.47 37.10 24.10
  A 3.02 2.81 -43.0 0 0 37.15 23.38
  Q 36.89 19.16 31.25 20.21
  A 3.62 3.60 3.2 0 0 28.46 22.69
  L 28.13 23.77
  A 0.65 0.63 -81.3 0 1 27.52 24.23
  L 24.27 24.23
  A 0.69 0.68 88.7 0 1 23.59 23.57
  Z"
/>
<path fill="#353442" d="
  M 39.15 52.07
  A 2.45 2.45 0.0 0 1 36.70 54.52
  L 31.02 54.52
  A 2.45 2.45 0.0 0 1 28.57 52.07
  L 28.57 46.39
  A 2.45 2.45 0.0 0 1 31.02 43.94
  L 36.70 43.94
  A 2.45 2.45 0.0 0 1 39.15 46.39
  L 39.15 52.07
  Z
  M 37.3549 46.3564
  A 0.69 0.69 0.0 0 0 36.6661 45.6652
  L 30.6661 45.6548
  A 0.69 0.69 0.0 0 0 29.9749 46.3436
  L 29.9651 51.9236
  A 0.69 0.69 0.0 0 0 30.6539 52.6148
  L 36.6539 52.6252
  A 0.69 0.69 0.0 0 0 37.3451 51.9364
  L 37.3549 46.3564
  Z"
/>
<rect fill="#ffffff" x="-3.69" y="-3.48" transform="translate(33.66,49.14) rotate(0.1)" width="7.38" height="6.96" rx="0.69"/>
</svg>
