<?xml version="1.0" encoding="UTF-8" standalone="no"?>
<!DOCTYPE svg PUBLIC "-//W3C//DTD SVG 1.1//EN" "http://www.w3.org/Graphics/SVG/1.1/DTD/svg11.dtd">
<svg xmlns="http://www.w3.org/2000/svg" version="1.1" viewBox="0.00 0.00 66.00 88.00">
<g stroke-width="2.00" fill="none" stroke-linecap="butt">
<path stroke="#947705" vector-effect="non-scaling-stroke" d="
  M 33.40 86.73
  Q 33.53 86.73 33.66 86.62
  Q 46.32 74.81 55.15 60.74
  C 64.64 45.58 69.31 26.21 56.01 12.16
  C 50.15 5.98 42.03 2.47 33.55 2.45
  C 25.07 2.44 16.93 5.92 11.06 12.08
  C -2.30 26.08 2.30 45.47 11.74 60.66
  Q 20.52 74.76 33.14 86.62
  Q 33.26 86.73 33.40 86.73"
/>
<path stroke="#7c6924" vector-effect="non-scaling-stroke" d="
  M 29.17 11.85
  A 1.19 1.19 0.0 0 0 27.92 13.10
  L 29.42 42.20
  A 1.19 1.19 0.0 0 0 30.55 43.33
  L 35.91 43.62
  A 1.19 1.19 0.0 0 0 37.16 42.49
  L 38.71 13.56
  A 1.19 1.19 0.0 0 0 37.58 12.31
  L 29.17 11.85"
/>
<path stroke="#7c6924" vector-effect="non-scaling-stroke" d="
  M 38.5087 47.8319
  A 1.67 1.67 0.0 0 0 36.8329 46.1677
  L 29.7730 46.1924
  A 1.67 1.67 0.0 0 0 28.1088 47.8682
  L 28.1313 54.3081
  A 1.67 1.67 0.0 0 0 29.8071 55.9723
  L 36.8670 55.9476
  A 1.67 1.67 0.0 0 0 38.5312 54.2718
  L 38.5087 47.8319"
/>
<path stroke="#9a9aa1" vector-effect="non-scaling-stroke" d="
  M 29.89 12.68
  A 0.58 0.58 0.0 0 0 29.28 13.29
  L 30.73 41.37
  A 0.58 0.58 0.0 0 0 31.28 41.92
  L 35.22 42.13
  A 0.58 0.58 0.0 0 0 35.83 41.58
  L 37.33 13.67
  A 0.58 0.58 0.0 0 0 36.78 13.06
  L 29.89 12.68"
/>
<path stroke="#9a9aa1" vector-effect="non-scaling-stroke" d="
  M 36.9593 48.0771
  A 0.64 0.64 0.0 0 0 36.3171 47.4394
  L 30.2171 47.4607
  A 0.64 0.64 0.0 0 0 29.5794 48.1029
  L 29.6007 54.2029
  A 0.64 0.64 0.0 0 0 30.2429 54.8406
  L 36.3429 54.8193
  A 0.64 0.64 0.0 0 0 36.9806 54.1771
  L 36.9593 48.0771"
/>
</g>
<path fill="#644f03" d="
  M 33.81 88.00
  L 33.04 88.00
  Q 23.99 79.80 14.21 66.58
  C 1.97 50.02 -5.93 25.16 12.36 9.18
  C 28.07 -4.56 52.61 0.31 62.17 18.84
  C 67.39 28.96 65.87 41.20 61.32 51.53
  C 55.22 65.38 44.94 77.84 33.81 88.00
  Z
  M 33.40 86.73
  Q 33.53 86.73 33.66 86.62
  Q 46.32 74.81 55.15 60.74
  C 64.64 45.58 69.31 26.21 56.01 12.16
  C 50.15 5.98 42.03 2.47 33.55 2.45
  C 25.07 2.44 16.93 5.92 11.06 12.08
  C -2.30 26.08 2.30 45.47 11.74 60.66
  Q 20.52 74.76 33.14 86.62
  Q 33.26 86.73 33.40 86.73
  Z"
/>
<path fill="#c49e06" d="
  M 33.55 2.45
  C 42.03 2.47 50.15 5.98 56.01 12.16
  C 69.31 26.21 64.64 45.58 55.15 60.74
  Q 46.32 74.81 33.66 86.62
  Q 33.53 86.73 33.40 86.73
  Q 33.26 86.73 33.14 86.62
  Q 20.52 74.76 11.74 60.66
  C 2.30 45.47 -2.30 26.08 11.06 12.08
  C 16.93 5.92 25.07 2.44 33.55 2.45
  Z
  M 29.17 11.85
  A 1.19 1.19 0.0 0 0 27.92 13.10
  L 29.42 42.20
  A 1.19 1.19 0.0 0 0 30.55 43.33
  L 35.91 43.62
  A 1.19 1.19 0.0 0 0 37.16 42.49
  L 38.71 13.56
  A 1.19 1.19 0.0 0 0 37.58 12.31
  L 29.17 11.85
  Z
  M 38.5087 47.8319
  A 1.67 1.67 0.0 0 0 36.8329 46.1677
  L 29.7730 46.1924
  A 1.67 1.67 0.0 0 0 28.1088 47.8682
  L 28.1313 54.3081
  A 1.67 1.67 0.0 0 0 29.8071 55.9723
  L 36.8670 55.9476
  A 1.67 1.67 0.0 0 0 38.5312 54.2718
  L 38.5087 47.8319
  Z"
/>
<path fill="#343442" d="
  M 29.17 11.85
  L 37.58 12.31
  A 1.19 1.19 0.0 0 1 38.71 13.56
  L 37.16 42.49
  A 1.19 1.19 0.0 0 1 35.91 43.62
  L 30.55 43.33
  A 1.19 1.19 0.0 0 1 29.42 42.20
  L 27.92 13.10
  A 1.19 1.19 0.0 0 1 29.17 11.85
  Z
  M 29.89 12.68
  A 0.58 0.58 0.0 0 0 29.28 13.29
  L 30.73 41.37
  A 0.58 0.58 0.0 0 0 31.28 41.92
  L 35.22 42.13
  A 0.58 0.58 0.0 0 0 35.83 41.58
  L 37.33 13.67
  A 0.58 0.58 0.0 0 0 36.78 13.06
  L 29.89 12.68
  Z"
/>
<path fill="#ffffff" d="
  M 29.89 12.68
  L 36.78 13.06
  A 0.58 0.58 0.0 0 1 37.33 13.67
  L 35.83 41.58
  A 0.58 0.58 0.0 0 1 35.22 42.13
  L 31.28 41.92
  A 0.58 0.58 0.0 0 1 30.73 41.37
  L 29.28 13.29
  A 0.58 0.58 0.0 0 1 29.89 12.68
  Z"
/>
<path fill="#343442" d="
  M 38.5312 54.2718
  A 1.67 1.67 0.0 0 1 36.8670 55.9476
  L 29.8071 55.9723
  A 1.67 1.67 0.0 0 1 28.1313 54.3081
  L 28.1088 47.8682
  A 1.67 1.67 0.0 0 1 29.7730 46.1924
  L 36.8329 46.1677
  A 1.67 1.67 0.0 0 1 38.5087 47.8319
  L 38.5312 54.2718
  Z
  M 36.9593 48.0771
  A 0.64 0.64 0.0 0 0 36.3171 47.4394
  L 30.2171 47.4607
  A 0.64 0.64 0.0 0 0 29.5794 48.1029
  L 29.6007 54.2029
  A 0.64 0.64 0.0 0 0 30.2429 54.8406
  L 36.3429 54.8193
  A 0.64 0.64 0.0 0 0 36.9806 54.1771
  L 36.9593 48.0771
  Z"
/>
<rect fill="#ffffff" x="-3.69" y="-3.69" transform="translate(33.28,51.14) rotate(-0.2)" width="7.38" height="7.38" rx="0.64"/>
</svg>
