<?xml version="1.0" encoding="UTF-8" standalone="no"?>
<!DOCTYPE svg PUBLIC "-//W3C//DTD SVG 1.1//EN" "http://www.w3.org/Graphics/SVG/1.1/DTD/svg11.dtd">
<svg xmlns="http://www.w3.org/2000/svg" version="1.1" viewBox="0.00 0.00 66.00 88.00">
<g stroke-width="2.00" fill="none" stroke-linecap="butt">
<path stroke="#496d97" vector-effect="non-scaling-stroke" d="
  M 33.39 86.73
  Q 33.50 86.73 33.61 86.70
  Q 33.62 86.70 33.75 86.57
  Q 43.59 77.23 51.00 67.01
  C 62.81 50.72 71.95 27.68 54.91 11.09
  C 49.33 5.66 41.58 2.46 33.53 2.45
  C 25.48 2.43 17.71 5.61 12.12 11.02
  C -4.98 27.56 4.09 50.63 15.85 66.95
  Q 23.22 77.20 33.03 86.57
  Q 33.16 86.70 33.18 86.70
  Q 33.28 86.73 33.39 86.73"
/>
<path stroke="#4c6386" vector-effect="non-scaling-stroke" d="
  M 28.76 15.24
  L 19.78 14.10
  A 0.53 0.53 0.0 0 0 19.18 14.56
  L 18.56 19.43
  A 0.73 0.73 0.0 0 0 19.29 20.25
  L 28.41 20.25
  A 0.82 0.82 0.0 0 1 29.22 21.18
  C 28.72 24.82 30.96 25.01 33.82 25.03
  Q 36.17 25.04 36.45 22.32
  Q 36.92 17.73 37.02 14.77
  A 2.36 2.36 0.0 0 0 35.51 12.50
  Q 30.79 10.69 29.67 14.63
  A 0.84 0.84 0.0 0 1 28.76 15.24"
/>
<path stroke="#4c6386" vector-effect="non-scaling-stroke" d="
  M 40.81 42.69
  A 0.12 0.11 12.6 0 1 40.88 42.79
  L 41.37 54.06
  A 0.86 0.86 0.0 0 0 42.23 54.88
  L 45.65 54.88
  A 1.16 1.15 5.0 0 0 46.79 53.93
  C 48.30 45.72 47.88 36.94 43.09 29.75
  A 2.09 2.06 85.9 0 0 42.32 29.07
  Q 37.55 26.55 32.49 26.43
  A 2.57 2.42 38.5 0 0 31.90 26.48
  L 23.86 28.09
  A 1.74 1.70 -78.6 0 0 22.75 28.85
  C 20.49 32.41 18.21 37.09 18.05 41.32
  Q 17.82 47.60 18.68 54.09
  A 0.84 0.84 0.0 0 0 19.41 54.81
  Q 21.90 55.11 23.60 54.65
  A 0.77 0.76 82.6 0 0 24.16 53.91
  L 24.16 43.39
  A 0.43 0.43 0.0 0 1 25.00 43.28
  L 25.76 45.96
  A 2.31 2.19 43.5 0 1 25.81 46.92
  L 24.85 53.00
  A 0.54 0.53 2.5 0 0 25.42 53.62
  Q 27.46 53.45 28.84 54.32
  Q 33.36 57.14 37.68 53.59
  A 0.45 0.42 26.7 0 1 38.01 53.49
  L 40.07 53.76
  A 0.33 0.32 0.8 0 0 40.43 53.42
  L 39.92 46.87
  A 6.14 5.94 49.0 0 1 40.01 45.21
  L 40.49 42.72
  A 0.13 0.13 0.0 0 1 40.67 42.62
  L 40.81 42.69"
/>
<path stroke="#999aa2" vector-effect="non-scaling-stroke" d="
  M 30.96 16.65
  A 0.17 0.17 0.0 0 1 30.77 16.80
  L 21.06 15.56
  A 0.64 0.64 0.0 0 0 20.34 16.12
  L 20.05 18.44
  A 0.63 0.63 0.0 0 0 20.67 19.15
  L 30.13 19.15
  A 0.59 0.58 -86.5 0 1 30.71 19.81
  L 30.46 21.76
  A 1.72 1.72 0.0 0 0 32.17 23.70
  L 33.75 23.70
  A 1.59 1.58 0.0 0 0 35.34 22.12
  L 35.34 14.44
  A 1.04 1.04 0.0 0 0 34.30 13.40
  L 32.17 13.40
  A 0.90 0.89 3.6 0 0 31.28 14.18
  L 30.96 16.65"
/>
<path stroke="#999aa2" vector-effect="non-scaling-stroke" d="
  M 25.41 37.58
  L 26.01 40.62
  A 0.96 0.94 1.6 0 0 26.70 41.34
  Q 28.49 41.81 29.47 41.55
  A 1.58 1.06 11.1 0 0 29.78 41.42
  L 32.23 39.93
  A 1.14 1.10 -45.1 0 1 33.36 39.91
  L 35.99 41.43
  A 2.47 2.47 0.0 0 0 39.68 39.60
  L 39.96 37.43
  A 0.50 0.50 0.0 0 1 40.94 37.40
  L 41.16 38.47
  A 0.49 0.49 0.0 0 0 41.98 38.72
  L 44.39 36.30
  A 1.06 1.06 0.0 0 0 44.56 35.03
  L 42.03 30.64
  A 1.54 1.46 -1.4 0 0 41.38 30.05
  Q 36.66 27.88 32.57 27.63
  A 4.19 4.13 -49.2 0 0 31.46 27.72
  L 24.45 29.33
  A 0.93 0.91 8.3 0 0 23.86 29.76
  L 20.83 35.00
  A 1.23 1.22 37.7 0 0 21.03 36.48
  L 23.74 39.19
  A 0.57 0.57 0.0 0 0 24.71 38.78
  Q 24.71 37.85 24.92 37.50
  A 0.27 0.27 0.0 0 1 25.41 37.58"
/>
<path stroke="#999aa2" vector-effect="non-scaling-stroke" d="
  M 22.68 52.53
  Q 23.08 49.28 22.84 44.82
  Q 22.78 43.80 23.71 41.72
  A 1.43 1.42 34.4 0 0 23.41 40.14
  L 20.96 37.69
  A 0.61 0.61 0.0 0 0 19.93 37.99
  C 18.88 42.93 19.41 47.08 19.44 51.71
  A 2.05 2.05 0.0 0 0 20.88 53.64
  L 20.94 53.66
  A 1.36 1.35 -78.0 0 0 22.68 52.53"
/>
<path stroke="#999aa2" vector-effect="non-scaling-stroke" d="
  M 44.55 37.46
  L 42.38 39.64
  A 1.21 1.18 -27.7 0 0 42.04 40.68
  L 42.66 44.49
  A 2.32 2.28 44.6 0 1 42.67 45.13
  Q 42.19 48.63 42.84 52.68
  A 1.37 1.37 0.0 0 0 45.54 52.70
  Q 46.86 44.94 45.36 37.71
  A 0.48 0.48 0.0 0 0 44.55 37.46"
/>
<path stroke="#999aa2" vector-effect="non-scaling-stroke" d="
  M 32.73 51.85
  C 35.08 51.85 36.62 49.40 38.19 49.65
  A 0.50 0.50 0.0 0 0 38.76 49.06
  Q 38.17 45.93 39.13 42.67
  A 0.45 0.45 0.0 0 0 38.62 42.10
  L 36.76 42.47
  A 1.64 1.63 -37.2 0 1 35.71 42.33
  Q 34.49 41.70 33.25 40.97
  Q 33.20 40.94 32.73 40.94
  Q 32.27 40.94 32.22 40.97
  Q 30.97 41.70 29.75 42.33
  A 1.64 1.63 37.3 0 1 28.70 42.47
  L 26.84 42.09
  A 0.45 0.45 0.0 0 0 26.33 42.66
  Q 27.29 45.92 26.70 49.05
  A 0.50 0.50 0.0 0 0 27.27 49.64
  C 28.84 49.39 30.38 51.85 32.73 51.85"
/>
<path stroke="#999aa2" vector-effect="non-scaling-stroke" d="
  M 26.95 52.25
  Q 28.01 52.21 29.01 52.91
  Q 32.90 55.61 36.88 52.45
  Q 37.57 51.90 38.30 52.02
  A 0.59 0.59 0.0 0 0 38.74 50.95
  Q 38.26 50.60 37.53 50.74
  Q 36.91 50.85 36.36 51.26
  Q 31.78 54.63 27.78 50.40
  A 0.78 0.77 23.4 0 0 26.44 50.93
  L 26.44 51.76
  A 0.49 0.49 0.0 0 0 26.95 52.25"
/>
<path stroke="#999aa2" vector-effect="non-scaling-stroke" d="
  M 37.38 29.24
  L 28.14 29.12
  L 28.14 29.15
  A 4.42 4.01 0.8 0 0 32.50 33.22
  L 32.90 33.22
  A 4.42 4.01 0.8 0 0 37.38 29.27
  L 37.38 29.24"
/>
<path stroke="#4c6386" vector-effect="non-scaling-stroke" d="
  M 35.09 30.25
  L 30.36 30.48
  A 0.11 0.11 0.0 0 0 30.25 30.59
  L 30.25 30.61
  A 2.28 1.39 -2.8 0 0 32.60 31.89
  L 33.00 31.87
  A 2.28 1.39 -2.8 0 0 35.21 30.37
  L 35.21 30.35
  A 0.11 0.11 0.0 0 0 35.09 30.25"
/>
</g>
<path fill="#2d4966" d="
  M 33.80 88.00
  L 33.14 88.00
  Q 15.61 72.48 6.00 52.51
  Q 2.20 44.61 1.61 34.86
  Q 1.07 25.96 4.90 18.67
  C 17.43 -5.19 51.99 -4.24 62.98 20.56
  C 66.60 28.74 65.96 38.63 63.05 47.02
  C 57.62 62.65 45.94 76.95 33.80 88.00
  Z
  M 33.39 86.73
  Q 33.50 86.73 33.61 86.70
  Q 33.62 86.70 33.75 86.57
  Q 43.59 77.23 51.00 67.01
  C 62.81 50.72 71.95 27.68 54.91 11.09
  C 49.33 5.66 41.58 2.46 33.53 2.45
  C 25.48 2.43 17.71 5.61 12.12 11.02
  C -4.98 27.56 4.09 50.63 15.85 66.95
  Q 23.22 77.20 33.03 86.57
  Q 33.16 86.70 33.18 86.70
  Q 33.28 86.73 33.39 86.73
  Z"
/>
<path fill="#6591c7" d="
  M 33.53 2.45
  C 41.58 2.46 49.33 5.66 54.91 11.09
  C 71.95 27.68 62.81 50.72 51.00 67.01
  Q 43.59 77.23 33.75 86.57
  Q 33.62 86.70 33.61 86.70
  Q 33.50 86.73 33.39 86.73
  Q 33.28 86.73 33.18 86.70
  Q 33.16 86.70 33.03 86.57
  Q 23.22 77.20 15.85 66.95
  C 4.09 50.63 -4.98 27.56 12.12 11.02
  C 17.71 5.61 25.48 2.43 33.53 2.45
  Z
  M 28.76 15.24
  L 19.78 14.10
  A 0.53 0.53 0.0 0 0 19.18 14.56
  L 18.56 19.43
  A 0.73 0.73 0.0 0 0 19.29 20.25
  L 28.41 20.25
  A 0.82 0.82 0.0 0 1 29.22 21.18
  C 28.72 24.82 30.96 25.01 33.82 25.03
  Q 36.17 25.04 36.45 22.32
  Q 36.92 17.73 37.02 14.77
  A 2.36 2.36 0.0 0 0 35.51 12.50
  Q 30.79 10.69 29.67 14.63
  A 0.84 0.84 0.0 0 1 28.76 15.24
  Z
  M 40.81 42.69
  A 0.12 0.11 12.6 0 1 40.88 42.79
  L 41.37 54.06
  A 0.86 0.86 0.0 0 0 42.23 54.88
  L 45.65 54.88
  A 1.16 1.15 5.0 0 0 46.79 53.93
  C 48.30 45.72 47.88 36.94 43.09 29.75
  A 2.09 2.06 85.9 0 0 42.32 29.07
  Q 37.55 26.55 32.49 26.43
  A 2.57 2.42 38.5 0 0 31.90 26.48
  L 23.86 28.09
  A 1.74 1.70 -78.6 0 0 22.75 28.85
  C 20.49 32.41 18.21 37.09 18.05 41.32
  Q 17.82 47.60 18.68 54.09
  A 0.84 0.84 0.0 0 0 19.41 54.81
  Q 21.90 55.11 23.60 54.65
  A 0.77 0.76 82.6 0 0 24.16 53.91
  L 24.16 43.39
  A 0.43 0.43 0.0 0 1 25.00 43.28
  L 25.76 45.96
  A 2.31 2.19 43.5 0 1 25.81 46.92
  L 24.85 53.00
  A 0.54 0.53 2.5 0 0 25.42 53.62
  Q 27.46 53.45 28.84 54.32
  Q 33.36 57.14 37.68 53.59
  A 0.45 0.42 26.7 0 1 38.01 53.49
  L 40.07 53.76
  A 0.33 0.32 0.8 0 0 40.43 53.42
  L 39.92 46.87
  A 6.14 5.94 49.0 0 1 40.01 45.21
  L 40.49 42.72
  A 0.13 0.13 0.0 0 1 40.67 42.62
  L 40.81 42.69
  Z"
/>
<path fill="#323445" d="
  M 29.67 14.63
  Q 30.79 10.69 35.51 12.50
  A 2.36 2.36 0.0 0 1 37.02 14.77
  Q 36.92 17.73 36.45 22.32
  Q 36.17 25.04 33.82 25.03
  C 30.96 25.01 28.72 24.82 29.22 21.18
  A 0.82 0.82 0.0 0 0 28.41 20.25
  L 19.29 20.25
  A 0.73 0.73 0.0 0 1 18.56 19.43
  L 19.18 14.56
  A 0.53 0.53 0.0 0 1 19.78 14.10
  L 28.76 15.24
  A 0.84 0.84 0.0 0 0 29.67 14.63
  Z
  M 30.96 16.65
  A 0.17 0.17 0.0 0 1 30.77 16.80
  L 21.06 15.56
  A 0.64 0.64 0.0 0 0 20.34 16.12
  L 20.05 18.44
  A 0.63 0.63 0.0 0 0 20.67 19.15
  L 30.13 19.15
  A 0.59 0.58 -86.5 0 1 30.71 19.81
  L 30.46 21.76
  A 1.72 1.72 0.0 0 0 32.17 23.70
  L 33.75 23.70
  A 1.59 1.58 0.0 0 0 35.34 22.12
  L 35.34 14.44
  A 1.04 1.04 0.0 0 0 34.30 13.40
  L 32.17 13.40
  A 0.90 0.89 3.6 0 0 31.28 14.18
  L 30.96 16.65
  Z"
/>
<path fill="#ffffff" d="
  M 30.96 16.65
  L 31.28 14.18
  A 0.90 0.89 3.6 0 1 32.17 13.40
  L 34.30 13.40
  A 1.04 1.04 0.0 0 1 35.34 14.44
  L 35.34 22.12
  A 1.59 1.58 0.0 0 1 33.75 23.70
  L 32.17 23.70
  A 1.72 1.72 0.0 0 1 30.46 21.76
  L 30.71 19.81
  A 0.59 0.58 -86.5 0 0 30.13 19.15
  L 20.67 19.15
  A 0.63 0.63 0.0 0 1 20.05 18.44
  L 20.34 16.12
  A 0.64 0.64 0.0 0 1 21.06 15.56
  L 30.77 16.80
  A 0.17 0.17 0.0 0 0 30.96 16.65
  Z"
/>
<path fill="#323445" d="
  M 40.49 42.72
  L 40.01 45.21
  A 6.14 5.94 49.0 0 0 39.92 46.87
  L 40.43 53.42
  A 0.33 0.32 0.8 0 1 40.07 53.76
  L 38.01 53.49
  A 0.45 0.42 26.7 0 0 37.68 53.59
  Q 33.36 57.14 28.84 54.32
  Q 27.46 53.45 25.42 53.62
  A 0.54 0.53 2.5 0 1 24.85 53.00
  L 25.81 46.92
  A 2.31 2.19 43.5 0 0 25.76 45.96
  L 25.00 43.28
  A 0.43 0.43 0.0 0 0 24.16 43.39
  L 24.16 53.91
  A 0.77 0.76 82.6 0 1 23.60 54.65
  Q 21.90 55.11 19.41 54.81
  A 0.84 0.84 0.0 0 1 18.68 54.09
  Q 17.82 47.60 18.05 41.32
  C 18.21 37.09 20.49 32.41 22.75 28.85
  A 1.74 1.70 -78.6 0 1 23.86 28.09
  L 31.90 26.48
  A 2.57 2.42 38.5 0 1 32.49 26.43
  Q 37.55 26.55 42.32 29.07
  A 2.09 2.06 85.9 0 1 43.09 29.75
  C 47.88 36.94 48.30 45.72 46.79 53.93
  A 1.16 1.15 5.0 0 1 45.65 54.88
  L 42.23 54.88
  A 0.86 0.86 0.0 0 1 41.37 54.06
  L 40.88 42.79
  A 0.12 0.11 12.6 0 0 40.81 42.69
  L 40.67 42.62
  A 0.13 0.13 0.0 0 0 40.49 42.72
  Z
  M 25.41 37.58
  L 26.01 40.62
  A 0.96 0.94 1.6 0 0 26.70 41.34
  Q 28.49 41.81 29.47 41.55
  A 1.58 1.06 11.1 0 0 29.78 41.42
  L 32.23 39.93
  A 1.14 1.10 -45.1 0 1 33.36 39.91
  L 35.99 41.43
  A 2.47 2.47 0.0 0 0 39.68 39.60
  L 39.96 37.43
  A 0.50 0.50 0.0 0 1 40.94 37.40
  L 41.16 38.47
  A 0.49 0.49 0.0 0 0 41.98 38.72
  L 44.39 36.30
  A 1.06 1.06 0.0 0 0 44.56 35.03
  L 42.03 30.64
  A 1.54 1.46 -1.4 0 0 41.38 30.05
  Q 36.66 27.88 32.57 27.63
  A 4.19 4.13 -49.2 0 0 31.46 27.72
  L 24.45 29.33
  A 0.93 0.91 8.3 0 0 23.86 29.76
  L 20.83 35.00
  A 1.23 1.22 37.7 0 0 21.03 36.48
  L 23.74 39.19
  A 0.57 0.57 0.0 0 0 24.71 38.78
  Q 24.71 37.85 24.92 37.50
  A 0.27 0.27 0.0 0 1 25.41 37.58
  Z
  M 22.68 52.53
  Q 23.08 49.28 22.84 44.82
  Q 22.78 43.80 23.71 41.72
  A 1.43 1.42 34.4 0 0 23.41 40.14
  L 20.96 37.69
  A 0.61 0.61 0.0 0 0 19.93 37.99
  C 18.88 42.93 19.41 47.08 19.44 51.71
  A 2.05 2.05 0.0 0 0 20.88 53.64
  L 20.94 53.66
  A 1.36 1.35 -78.0 0 0 22.68 52.53
  Z
  M 44.55 37.46
  L 42.38 39.64
  A 1.21 1.18 -27.7 0 0 42.04 40.68
  L 42.66 44.49
  A 2.32 2.28 44.6 0 1 42.67 45.13
  Q 42.19 48.63 42.84 52.68
  A 1.37 1.37 0.0 0 0 45.54 52.70
  Q 46.86 44.94 45.36 37.71
  A 0.48 0.48 0.0 0 0 44.55 37.46
  Z
  M 32.73 51.85
  C 35.08 51.85 36.62 49.40 38.19 49.65
  A 0.50 0.50 0.0 0 0 38.76 49.06
  Q 38.17 45.93 39.13 42.67
  A 0.45 0.45 0.0 0 0 38.62 42.10
  L 36.76 42.47
  A 1.64 1.63 -37.2 0 1 35.71 42.33
  Q 34.49 41.70 33.25 40.97
  Q 33.20 40.94 32.73 40.94
  Q 32.27 40.94 32.22 40.97
  Q 30.97 41.70 29.75 42.33
  A 1.64 1.63 37.3 0 1 28.70 42.47
  L 26.84 42.09
  A 0.45 0.45 0.0 0 0 26.33 42.66
  Q 27.29 45.92 26.70 49.05
  A 0.50 0.50 0.0 0 0 27.27 49.64
  C 28.84 49.39 30.38 51.85 32.73 51.85
  Z
  M 26.95 52.25
  Q 28.01 52.21 29.01 52.91
  Q 32.90 55.61 36.88 52.45
  Q 37.57 51.90 38.30 52.02
  A 0.59 0.59 0.0 0 0 38.74 50.95
  Q 38.26 50.60 37.53 50.74
  Q 36.91 50.85 36.36 51.26
  Q 31.78 54.63 27.78 50.40
  A 0.78 0.77 23.4 0 0 26.44 50.93
  L 26.44 51.76
  A 0.49 0.49 0.0 0 0 26.95 52.25
  Z"
/>
<path fill="#ffffff" d="
  M 24.92 37.50
  Q 24.71 37.85 24.71 38.78
  A 0.57 0.57 0.0 0 1 23.74 39.19
  L 21.03 36.48
  A 1.23 1.22 37.7 0 1 20.83 35.00
  L 23.86 29.76
  A 0.93 0.91 8.3 0 1 24.45 29.33
  L 31.46 27.72
  A 4.19 4.13 -49.2 0 1 32.57 27.63
  Q 36.66 27.88 41.38 30.05
  A 1.54 1.46 -1.4 0 1 42.03 30.64
  L 44.56 35.03
  A 1.06 1.06 0.0 0 1 44.39 36.30
  L 41.98 38.72
  A 0.49 0.49 0.0 0 1 41.16 38.47
  L 40.94 37.40
  A 0.50 0.50 0.0 0 0 39.96 37.43
  L 39.68 39.60
  A 2.47 2.47 0.0 0 1 35.99 41.43
  L 33.36 39.91
  A 1.14 1.10 -45.1 0 0 32.23 39.93
  L 29.78 41.42
  A 1.58 1.06 11.1 0 1 29.47 41.55
  Q 28.49 41.81 26.70 41.34
  A 0.96 0.94 1.6 0 1 26.01 40.62
  L 25.41 37.58
  A 0.27 0.27 0.0 0 0 24.92 37.50
  Z
  M 37.38 29.24
  L 28.14 29.12
  L 28.14 29.15
  A 4.42 4.01 0.8 0 0 32.50 33.22
  L 32.90 33.22
  A 4.42 4.01 0.8 0 0 37.38 29.27
  L 37.38 29.24
  Z"
/>
<path fill="#323445" d="
  M 37.38 29.24
  L 37.38 29.27
  A 4.42 4.01 0.8 0 1 32.90 33.22
  L 32.50 33.22
  A 4.42 4.01 0.8 0 1 28.14 29.15
  L 28.14 29.12
  L 37.38 29.24
  Z
  M 35.09 30.25
  L 30.36 30.48
  A 0.11 0.11 0.0 0 0 30.25 30.59
  L 30.25 30.61
  A 2.28 1.39 -2.8 0 0 32.60 31.89
  L 33.00 31.87
  A 2.28 1.39 -2.8 0 0 35.21 30.37
  L 35.21 30.35
  A 0.11 0.11 0.0 0 0 35.09 30.25
  Z"
/>
<path fill="#6591c7" d="
  M 35.09 30.25
  A 0.11 0.11 0.0 0 1 35.21 30.35
  L 35.21 30.37
  A 2.28 1.39 -2.8 0 1 33.00 31.87
  L 32.60 31.89
  A 2.28 1.39 -2.8 0 1 30.25 30.61
  L 30.25 30.59
  A 0.11 0.11 0.0 0 1 30.36 30.48
  L 35.09 30.25
  Z"
/>
<path fill="#ffffff" d="
  M 22.68 52.53
  A 1.36 1.35 -78.0 0 1 20.94 53.66
  L 20.88 53.64
  A 2.05 2.05 0.0 0 1 19.44 51.71
  C 19.41 47.08 18.88 42.93 19.93 37.99
  A 0.61 0.61 0.0 0 1 20.96 37.69
  L 23.41 40.14
  A 1.43 1.42 34.4 0 1 23.71 41.72
  Q 22.78 43.80 22.84 44.82
  Q 23.08 49.28 22.68 52.53
  Z"
/>
<path fill="#ffffff" d="
  M 44.55 37.46
  A 0.48 0.48 0.0 0 1 45.36 37.71
  Q 46.86 44.94 45.54 52.70
  A 1.37 1.37 0.0 0 1 42.84 52.68
  Q 42.19 48.63 42.67 45.13
  A 2.32 2.28 44.6 0 0 42.66 44.49
  L 42.04 40.68
  A 1.21 1.18 -27.7 0 1 42.38 39.64
  L 44.55 37.46
  Z"
/>
<path fill="#ffffff" d="
  M 32.73 40.94
  Q 33.20 40.94 33.25 40.97
  Q 34.49 41.70 35.71 42.33
  A 1.64 1.63 -37.2 0 0 36.76 42.47
  L 38.62 42.10
  A 0.45 0.45 0.0 0 1 39.13 42.67
  Q 38.17 45.93 38.76 49.06
  A 0.50 0.50 0.0 0 1 38.19 49.65
  C 36.62 49.40 35.08 51.85 32.73 51.85
  C 30.38 51.85 28.84 49.39 27.27 49.64
  A 0.50 0.50 0.0 0 1 26.70 49.05
  Q 27.29 45.92 26.33 42.66
  A 0.45 0.45 0.0 0 1 26.84 42.09
  L 28.70 42.47
  A 1.64 1.63 37.3 0 0 29.75 42.33
  Q 30.97 41.70 32.22 40.97
  Q 32.27 40.94 32.73 40.94
  Z"
/>
<path fill="#ffffff" d="
  M 26.44 51.76
  L 26.44 50.93
  A 0.78 0.77 23.4 0 1 27.78 50.40
  Q 31.78 54.63 36.36 51.26
  Q 36.91 50.85 37.53 50.74
  Q 38.26 50.60 38.74 50.95
  A 0.59 0.59 0.0 0 1 38.30 52.02
  Q 37.57 51.90 36.88 52.45
  Q 32.90 55.61 29.01 52.91
  Q 28.01 52.21 26.95 52.25
  A 0.49 0.49 0.0 0 1 26.44 51.76
  Z"
/>
</svg>
