<?xml version="1.0" encoding="UTF-8" standalone="no"?>
<!DOCTYPE svg PUBLIC "-//W3C//DTD SVG 1.1//EN" "http://www.w3.org/Graphics/SVG/1.1/DTD/svg11.dtd">
<svg xmlns="http://www.w3.org/2000/svg" version="1.1" viewBox="0.00 0.00 66.00 88.00">
<g stroke-width="2.00" fill="none" stroke-linecap="butt">
<path stroke="#4a4b57" vector-effect="non-scaling-stroke" d="
  M 33.42 86.62
  C 33.97 86.62 33.61 86.66 33.81 86.48
  Q 48.42 73.09 57.55 56.51
  C 66.73 39.87 68.05 20.58 51.41 8.22
  Q 43.66 2.46 33.50 2.45
  Q 23.33 2.44 15.57 8.19
  C -1.09 20.52 0.20 39.81 9.35 56.47
  Q 18.45 73.06 33.04 86.48
  C 33.24 86.66 32.87 86.62 33.42 86.62"
/>
<path stroke="#4c4b5b" vector-effect="non-scaling-stroke" d="
  M 19.29 13.88
  Q 15.28 13.87 12.18 18.76
  A 2.21 2.19 -27.1 0 0 11.85 19.76
  Q 11.34 26.48 11.58 27.67
  Q 12.02 29.91 14.41 30.17
  A 0.57 0.56 10.2 0 1 14.90 30.87
  Q 14.45 32.66 15.85 33.88
  A 2.26 2.22 -16.1 0 0 16.69 34.34
  Q 17.12 34.46 19.24 34.46
  Q 21.36 34.47 21.79 34.35
  A 2.26 2.22 16.3 0 0 22.63 33.90
  Q 24.04 32.68 23.60 30.89
  A 0.57 0.56 -9.9 0 1 24.09 30.19
  Q 26.48 29.94 26.93 27.71
  Q 27.18 26.52 26.70 19.80
  A 2.21 2.19 27.4 0 0 26.38 18.79
  Q 23.30 13.89 19.29 13.88"
/>
<path stroke="#4c4b5b" vector-effect="non-scaling-stroke" d="
  M 26.87 30.09
  L 23.53 40.46
  A 1.68 1.64 79.9 0 1 23.02 41.21
  L 19.60 44.02
  A 1.44 1.42 -20.0 0 0 19.08 45.12
  L 19.08 52.27
  A 0.58 0.58 0.0 0 0 19.66 52.85
  L 30.50 52.85
  A 0.91 0.91 0.0 0 0 31.41 51.95
  Q 31.44 48.13 31.88 45.26
  Q 32.42 41.75 36.05 41.28
  Q 38.55 40.96 39.30 43.16
  Q 40.56 46.84 40.53 52.17
  A 0.65 0.64 -89.6 0 0 41.17 52.83
  L 53.81 52.83
  A 0.38 0.37 82.8 0 0 54.17 52.36
  L 49.97 35.56
  A 2.34 2.33 -77.6 0 0 49.20 34.35
  L 45.04 30.91
  A 3.86 3.79 -83.9 0 1 44.02 29.62
  Q 41.32 24.03 40.97 23.23
  Q 39.68 20.25 35.16 19.34
  A 0.73 0.72 -72.9 0 0 34.36 19.77
  Q 33.40 22.02 30.59 27.86
  Q 30.15 28.78 28.03 29.10
  A 1.44 1.43 -85.4 0 0 26.87 30.09"
/>
<path stroke="#9a99a1" vector-effect="non-scaling-stroke" d="
  M 19.12 30.87
  Q 20.94 30.88 21.63 30.12
  A 0.38 0.13 -77.7 0 0 21.67 30.05
  L 22.15 28.54
  A 0.76 0.76 0.0 0 1 23.10 28.05
  L 24.06 28.36
  A 1.00 0.99 -81.1 0 0 25.36 27.41
  L 25.36 23.73
  A 0.79 0.79 0.0 0 0 24.70 22.95
  Q 23.72 22.79 22.27 23.14
  A 0.09 0.08 56.0 0 1 22.18 23.12
  L 21.94 22.87
  A 0.41 0.41 0.0 0 1 22.23 22.16
  L 24.38 22.16
  A 0.76 0.75 -88.9 0 0 25.13 21.43
  C 25.24 18.28 22.13 15.58 19.15 15.58
  C 16.18 15.57 13.04 18.25 13.15 21.41
  A 0.76 0.75 89.2 0 0 13.89 22.14
  L 16.04 22.15
  A 0.41 0.41 0.0 0 1 16.33 22.86
  L 16.09 23.11
  A 0.09 0.08 -55.7 0 1 16.00 23.13
  Q 14.55 22.77 13.57 22.92
  A 0.79 0.79 0.0 0 0 12.90 23.70
  L 12.89 27.38
  A 1.00 0.99 81.3 0 0 14.18 28.34
  L 15.14 28.03
  A 0.76 0.76 0.0 0 1 16.09 28.53
  L 16.57 30.04
  A 0.38 0.13 78.0 0 0 16.61 30.11
  Q 17.29 30.87 19.12 30.87"
/>
<path stroke="#9a99a1" vector-effect="non-scaling-stroke" d="
  M 19.03 32.90
  Q 20.17 32.93 21.44 32.34
  Q 22.10 32.03 21.85 31.35
  A 0.26 0.25 -29.4 0 0 21.45 31.25
  Q 21.00 31.60 19.06 31.56
  Q 17.12 31.51 16.69 31.13
  A 0.26 0.25 32.2 0 0 16.28 31.22
  Q 16.00 31.88 16.65 32.22
  Q 17.89 32.87 19.03 32.90"
/>
<path stroke="#b1b1b9" vector-effect="non-scaling-stroke" d="
  M 18.78 23.79
  L 19.51 24.03
  A 0.23 0.23 0.0 0 0 19.78 23.69
  Q 19.69 23.54 19.51 23.46
  Q 19.40 23.41 18.89 23.33
  A 0.24 0.24 0.0 0 0 18.78 23.79"
/>
<path stroke="#98999d" vector-effect="non-scaling-stroke" d="
  M 17.74 24.58
  Q 16.48 24.73 14.87 23.90
  A 0.62 0.62 0.0 0 0 13.97 24.45
  L 13.97 26.45
  A 0.51 0.51 0.0 0 0 14.59 26.95
  Q 17.28 26.34 18.17 25.54
  A 0.55 0.55 0.0 0 0 17.74 24.58"
/>
<path stroke="#9a99a1" vector-effect="non-scaling-stroke" d="
  M 20.59 24.52
  A 0.55 0.55 0.0 0 0 20.13 25.47
  Q 21.00 26.30 23.69 26.99
  A 0.51 0.51 0.0 0 0 24.32 26.50
  L 24.38 24.49
  A 0.62 0.62 0.0 0 0 23.49 23.91
  Q 21.85 24.70 20.59 24.52"
/>
<path stroke="#9a99a1" vector-effect="non-scaling-stroke" d="
  M 18.03 28.12
  A 1.11 0.98 31.1 0 0 20.07 27.74
  Q 20.04 27.59 19.46 27.25
  A 0.68 0.68 0.0 0 0 18.64 27.36
  Q 17.99 28.02 18.03 28.12"
/>
<path stroke="#9a99a1" vector-effect="non-scaling-stroke" d="
  M 52.20 50.60
  L 48.64 36.37
  A 2.30 2.25 13.3 0 0 47.88 35.17
  L 43.61 31.64
  A 2.04 1.97 6.5 0 1 43.10 31.02
  Q 41.14 27.19 39.00 23.06
  Q 38.25 21.62 35.84 21.34
  A 0.69 0.68 -74.2 0 0 35.15 21.73
  L 31.58 29.51
  A 0.79 0.78 -84.1 0 1 31.06 29.94
  L 29.01 30.45
  A 1.41 1.41 0.0 0 0 28.01 31.39
  L 24.76 41.50
  A 1.06 0.97 -12.7 0 1 24.44 41.96
  L 20.98 44.81
  A 1.53 1.52 -19.9 0 0 20.42 45.99
  L 20.42 50.15
  A 1.17 1.17 0.0 0 0 21.59 51.32
  L 28.53 51.32
  A 1.52 1.51 -2.6 0 0 30.04 49.67
  Q 29.72 46.04 31.24 41.97
  A 1.18 1.15 -2.3 0 1 31.86 41.32
  L 36.25 39.40
  A 0.76 0.75 -43.4 0 1 36.84 39.41
  L 40.06 40.89
  A 1.41 1.40 8.3 0 1 40.86 41.96
  L 42.18 50.69
  A 0.72 0.71 -4.2 0 0 42.89 51.30
  L 51.66 51.30
  A 0.56 0.56 0.0 0 0 52.20 50.60"
/>
</g>
<path fill="#30323a" d="
  M 33.81 88.00
  L 33.03 88.00
  C 21.90 77.88 12.18 65.78 5.81 51.96
  Q 2.86 45.55 2.01 39.27
  Q -0.92 17.72 16.15 6.37
  Q 23.05 1.78 32.09 1.36
  C 50.59 0.51 66.22 15.47 65.43 34.17
  Q 65.09 42.29 62.13 49.57
  C 56.17 64.25 45.45 77.37 33.81 88.00
  Z
  M 33.42 86.62
  C 33.97 86.62 33.61 86.66 33.81 86.48
  Q 48.42 73.09 57.55 56.51
  C 66.73 39.87 68.05 20.58 51.41 8.22
  Q 43.66 2.46 33.50 2.45
  Q 23.33 2.44 15.57 8.19
  C -1.09 20.52 0.20 39.81 9.35 56.47
  Q 18.45 73.06 33.04 86.48
  C 33.24 86.66 32.87 86.62 33.42 86.62
  Z"
/>
<path fill="#636373" d="
  M 33.50 2.45
  Q 43.66 2.46 51.41 8.22
  C 68.05 20.58 66.73 39.87 57.55 56.51
  Q 48.42 73.09 33.81 86.48
  C 33.61 86.66 33.97 86.62 33.42 86.62
  C 32.87 86.62 33.24 86.66 33.04 86.48
  Q 18.45 73.06 9.35 56.47
  C 0.20 39.81 -1.09 20.52 15.57 8.19
  Q 23.33 2.44 33.50 2.45
  Z
  M 19.29 13.88
  Q 15.28 13.87 12.18 18.76
  A 2.21 2.19 -27.1 0 0 11.85 19.76
  Q 11.34 26.48 11.58 27.67
  Q 12.02 29.91 14.41 30.17
  A 0.57 0.56 10.2 0 1 14.90 30.87
  Q 14.45 32.66 15.85 33.88
  A 2.26 2.22 -16.1 0 0 16.69 34.34
  Q 17.12 34.46 19.24 34.46
  Q 21.36 34.47 21.79 34.35
  A 2.26 2.22 16.3 0 0 22.63 33.90
  Q 24.04 32.68 23.60 30.89
  A 0.57 0.56 -9.9 0 1 24.09 30.19
  Q 26.48 29.94 26.93 27.71
  Q 27.18 26.52 26.70 19.80
  A 2.21 2.19 27.4 0 0 26.38 18.79
  Q 23.30 13.89 19.29 13.88
  Z
  M 26.87 30.09
  L 23.53 40.46
  A 1.68 1.64 79.9 0 1 23.02 41.21
  L 19.60 44.02
  A 1.44 1.42 -20.0 0 0 19.08 45.12
  L 19.08 52.27
  A 0.58 0.58 0.0 0 0 19.66 52.85
  L 30.50 52.85
  A 0.91 0.91 0.0 0 0 31.41 51.95
  Q 31.44 48.13 31.88 45.26
  Q 32.42 41.75 36.05 41.28
  Q 38.55 40.96 39.30 43.16
  Q 40.56 46.84 40.53 52.17
  A 0.65 0.64 -89.6 0 0 41.17 52.83
  L 53.81 52.83
  A 0.38 0.37 82.8 0 0 54.17 52.36
  L 49.97 35.56
  A 2.34 2.33 -77.6 0 0 49.20 34.35
  L 45.04 30.91
  A 3.86 3.79 -83.9 0 1 44.02 29.62
  Q 41.32 24.03 40.97 23.23
  Q 39.68 20.25 35.16 19.34
  A 0.73 0.72 -72.9 0 0 34.36 19.77
  Q 33.40 22.02 30.59 27.86
  Q 30.15 28.78 28.03 29.10
  A 1.44 1.43 -85.4 0 0 26.87 30.09
  Z"
/>
<path fill="#343343" d="
  M 19.24 34.46
  Q 17.12 34.46 16.69 34.34
  A 2.26 2.22 -16.1 0 1 15.85 33.88
  Q 14.45 32.66 14.90 30.87
  A 0.57 0.56 10.2 0 0 14.41 30.17
  Q 12.02 29.91 11.58 27.67
  Q 11.34 26.48 11.85 19.76
  A 2.21 2.19 -27.1 0 1 12.18 18.76
  Q 15.28 13.87 19.29 13.88
  Q 23.30 13.89 26.38 18.79
  A 2.21 2.19 27.4 0 1 26.70 19.80
  Q 27.18 26.52 26.93 27.71
  Q 26.48 29.94 24.09 30.19
  A 0.57 0.56 -9.9 0 0 23.60 30.89
  Q 24.04 32.68 22.63 33.90
  A 2.26 2.22 16.3 0 1 21.79 34.35
  Q 21.36 34.47 19.24 34.46
  Z
  M 19.12 30.87
  Q 20.94 30.88 21.63 30.12
  A 0.38 0.13 -77.7 0 0 21.67 30.05
  L 22.15 28.54
  A 0.76 0.76 0.0 0 1 23.10 28.05
  L 24.06 28.36
  A 1.00 0.99 -81.1 0 0 25.36 27.41
  L 25.36 23.73
  A 0.79 0.79 0.0 0 0 24.70 22.95
  Q 23.72 22.79 22.27 23.14
  A 0.09 0.08 56.0 0 1 22.18 23.12
  L 21.94 22.87
  A 0.41 0.41 0.0 0 1 22.23 22.16
  L 24.38 22.16
  A 0.76 0.75 -88.9 0 0 25.13 21.43
  C 25.24 18.28 22.13 15.58 19.15 15.58
  C 16.18 15.57 13.04 18.25 13.15 21.41
  A 0.76 0.75 89.2 0 0 13.89 22.14
  L 16.04 22.15
  A 0.41 0.41 0.0 0 1 16.33 22.86
  L 16.09 23.11
  A 0.09 0.08 -55.7 0 1 16.00 23.13
  Q 14.55 22.77 13.57 22.92
  A 0.79 0.79 0.0 0 0 12.90 23.70
  L 12.89 27.38
  A 1.00 0.99 81.3 0 0 14.18 28.34
  L 15.14 28.03
  A 0.76 0.76 0.0 0 1 16.09 28.53
  L 16.57 30.04
  A 0.38 0.13 78.0 0 0 16.61 30.11
  Q 17.29 30.87 19.12 30.87
  Z
  M 19.03 32.90
  Q 20.17 32.93 21.44 32.34
  Q 22.10 32.03 21.85 31.35
  A 0.26 0.25 -29.4 0 0 21.45 31.25
  Q 21.00 31.60 19.06 31.56
  Q 17.12 31.51 16.69 31.13
  A 0.26 0.25 32.2 0 0 16.28 31.22
  Q 16.00 31.88 16.65 32.22
  Q 17.89 32.87 19.03 32.90
  Z"
/>
<path fill="#ffffff" d="
  M 19.15 15.58
  C 22.13 15.58 25.24 18.28 25.13 21.43
  A 0.76 0.75 -88.9 0 1 24.38 22.16
  L 22.23 22.16
  A 0.41 0.41 0.0 0 0 21.94 22.87
  L 22.18 23.12
  A 0.09 0.08 56.0 0 0 22.27 23.14
  Q 23.72 22.79 24.70 22.95
  A 0.79 0.79 0.0 0 1 25.36 23.73
  L 25.36 27.41
  A 1.00 0.99 -81.1 0 1 24.06 28.36
  L 23.10 28.05
  A 0.76 0.76 0.0 0 0 22.15 28.54
  L 21.67 30.05
  A 0.38 0.13 -77.7 0 1 21.63 30.12
  Q 20.94 30.88 19.12 30.87
  Q 17.29 30.87 16.61 30.11
  A 0.38 0.13 78.0 0 1 16.57 30.04
  L 16.09 28.53
  A 0.76 0.76 0.0 0 0 15.14 28.03
  L 14.18 28.34
  A 1.00 0.99 81.3 0 1 12.89 27.38
  L 12.90 23.70
  A 0.79 0.79 0.0 0 1 13.57 22.92
  Q 14.55 22.77 16.00 23.13
  A 0.09 0.08 -55.7 0 0 16.09 23.11
  L 16.33 22.86
  A 0.41 0.41 0.0 0 0 16.04 22.15
  L 13.89 22.14
  A 0.76 0.75 89.2 0 1 13.15 21.41
  C 13.04 18.25 16.18 15.57 19.15 15.58
  Z
  M 18.78 23.79
  L 19.51 24.03
  A 0.23 0.23 0.0 0 0 19.78 23.69
  Q 19.69 23.54 19.51 23.46
  Q 19.40 23.41 18.89 23.33
  A 0.24 0.24 0.0 0 0 18.78 23.79
  Z
  M 17.74 24.58
  Q 16.48 24.73 14.87 23.90
  A 0.62 0.62 0.0 0 0 13.97 24.45
  L 13.97 26.45
  A 0.51 0.51 0.0 0 0 14.59 26.95
  Q 17.28 26.34 18.17 25.54
  A 0.55 0.55 0.0 0 0 17.74 24.58
  Z
  M 20.59 24.52
  A 0.55 0.55 0.0 0 0 20.13 25.47
  Q 21.00 26.30 23.69 26.99
  A 0.51 0.51 0.0 0 0 24.32 26.50
  L 24.38 24.49
  A 0.62 0.62 0.0 0 0 23.49 23.91
  Q 21.85 24.70 20.59 24.52
  Z
  M 18.03 28.12
  A 1.11 0.98 31.1 0 0 20.07 27.74
  Q 20.04 27.59 19.46 27.25
  A 0.68 0.68 0.0 0 0 18.64 27.36
  Q 17.99 28.02 18.03 28.12
  Z"
/>
<path fill="#343343" d="
  M 26.87 30.09
  A 1.44 1.43 -85.4 0 1 28.03 29.10
  Q 30.15 28.78 30.59 27.86
  Q 33.40 22.02 34.36 19.77
  A 0.73 0.72 -72.9 0 1 35.16 19.34
  Q 39.68 20.25 40.97 23.23
  Q 41.32 24.03 44.02 29.62
  A 3.86 3.79 -83.9 0 0 45.04 30.91
  L 49.20 34.35
  A 2.34 2.33 -77.6 0 1 49.97 35.56
  L 54.17 52.36
  A 0.38 0.37 82.8 0 1 53.81 52.83
  L 41.17 52.83
  A 0.65 0.64 -89.6 0 1 40.53 52.17
  Q 40.56 46.84 39.30 43.16
  Q 38.55 40.96 36.05 41.28
  Q 32.42 41.75 31.88 45.26
  Q 31.44 48.13 31.41 51.95
  A 0.91 0.91 0.0 0 1 30.50 52.85
  L 19.66 52.85
  A 0.58 0.58 0.0 0 1 19.08 52.27
  L 19.08 45.12
  A 1.44 1.42 -20.0 0 1 19.60 44.02
  L 23.02 41.21
  A 1.68 1.64 79.9 0 0 23.53 40.46
  L 26.87 30.09
  Z
  M 52.20 50.60
  L 48.64 36.37
  A 2.30 2.25 13.3 0 0 47.88 35.17
  L 43.61 31.64
  A 2.04 1.97 6.5 0 1 43.10 31.02
  Q 41.14 27.19 39.00 23.06
  Q 38.25 21.62 35.84 21.34
  A 0.69 0.68 -74.2 0 0 35.15 21.73
  L 31.58 29.51
  A 0.79 0.78 -84.1 0 1 31.06 29.94
  L 29.01 30.45
  A 1.41 1.41 0.0 0 0 28.01 31.39
  L 24.76 41.50
  A 1.06 0.97 -12.7 0 1 24.44 41.96
  L 20.98 44.81
  A 1.53 1.52 -19.9 0 0 20.42 45.99
  L 20.42 50.15
  A 1.17 1.17 0.0 0 0 21.59 51.32
  L 28.53 51.32
  A 1.52 1.51 -2.6 0 0 30.04 49.67
  Q 29.72 46.04 31.24 41.97
  A 1.18 1.15 -2.3 0 1 31.86 41.32
  L 36.25 39.40
  A 0.76 0.75 -43.4 0 1 36.84 39.41
  L 40.06 40.89
  A 1.41 1.40 8.3 0 1 40.86 41.96
  L 42.18 50.69
  A 0.72 0.71 -4.2 0 0 42.89 51.30
  L 51.66 51.30
  A 0.56 0.56 0.0 0 0 52.20 50.60
  Z"
/>
<path fill="#ffffff" d="
  M 51.66 51.30
  L 42.89 51.30
  A 0.72 0.71 -4.2 0 1 42.18 50.69
  L 40.86 41.96
  A 1.41 1.40 8.3 0 0 40.06 40.89
  L 36.84 39.41
  A 0.76 0.75 -43.4 0 0 36.25 39.40
  L 31.86 41.32
  A 1.18 1.15 -2.3 0 0 31.24 41.97
  Q 29.72 46.04 30.04 49.67
  A 1.52 1.51 -2.6 0 1 28.53 51.32
  L 21.59 51.32
  A 1.17 1.17 0.0 0 1 20.42 50.15
  L 20.42 45.99
  A 1.53 1.52 -19.9 0 1 20.98 44.81
  L 24.44 41.96
  A 1.06 0.97 -12.7 0 0 24.76 41.50
  L 28.01 31.39
  A 1.41 1.41 0.0 0 1 29.01 30.45
  L 31.06 29.94
  A 0.79 0.78 -84.1 0 0 31.58 29.51
  L 35.15 21.73
  A 0.69 0.68 -74.2 0 1 35.84 21.34
  Q 38.25 21.62 39.00 23.06
  Q 41.14 27.19 43.10 31.02
  A 2.04 1.97 6.5 0 0 43.61 31.64
  L 47.88 35.17
  A 2.30 2.25 13.3 0 1 48.64 36.37
  L 52.20 50.60
  A 0.56 0.56 0.0 0 1 51.66 51.30
  Z"
/>
<path fill="#636373" d="
  M 18.89 23.33
  Q 19.40 23.41 19.51 23.46
  Q 19.69 23.54 19.78 23.69
  A 0.23 0.23 0.0 0 1 19.51 24.03
  L 18.78 23.79
  A 0.24 0.24 0.0 0 1 18.89 23.33
  Z"
/>
<path fill="#30323a" d="
  M 17.74 24.58
  A 0.55 0.55 0.0 0 1 18.17 25.54
  Q 17.28 26.34 14.59 26.95
  A 0.51 0.51 0.0 0 1 13.97 26.45
  L 13.97 24.45
  A 0.62 0.62 0.0 0 1 14.87 23.90
  Q 16.48 24.73 17.74 24.58
  Z"
/>
<path fill="#343343" d="
  M 20.59 24.52
  Q 21.85 24.70 23.49 23.91
  A 0.62 0.62 0.0 0 1 24.38 24.49
  L 24.32 26.50
  A 0.51 0.51 0.0 0 1 23.69 26.99
  Q 21.00 26.30 20.13 25.47
  A 0.55 0.55 0.0 0 1 20.59 24.52
  Z"
/>
<path fill="#343343" d="
  M 18.03 28.12
  Q 17.99 28.02 18.64 27.36
  A 0.68 0.68 0.0 0 1 19.46 27.25
  Q 20.04 27.59 20.07 27.74
  A 1.11 0.98 31.1 0 1 18.03 28.12
  Z"
/>
<path fill="#ffffff" d="
  M 19.06 31.56
  Q 21.00 31.60 21.45 31.25
  A 0.26 0.25 -29.4 0 1 21.85 31.35
  Q 22.10 32.03 21.44 32.34
  Q 20.17 32.93 19.03 32.90
  Q 17.89 32.87 16.65 32.22
  Q 16.00 31.88 16.28 31.22
  A 0.26 0.25 32.2 0 1 16.69 31.13
  Q 17.12 31.51 19.06 31.56
  Z"
/>
</svg>
