<?xml version="1.0" encoding="UTF-8" standalone="no"?>
<!DOCTYPE svg PUBLIC "-//W3C//DTD SVG 1.1//EN" "http://www.w3.org/Graphics/SVG/1.1/DTD/svg11.dtd">
<svg xmlns="http://www.w3.org/2000/svg" version="1.1" viewBox="0.00 0.00 66.00 88.00">
<g stroke-width="2.00" fill="none" stroke-linecap="butt">
<path stroke="#496d97" vector-effect="non-scaling-stroke" d="
  M 33.39 86.73
  Q 33.50 86.73 33.64 86.61
  C 50.28 71.09 75.12 39.92 59.34 16.44
  Q 50.38 3.09 33.75 2.45
  Q 33.60 2.45 33.53 2.45
  Q 33.46 2.45 33.31 2.45
  Q 16.68 3.03 7.67 16.35
  C -8.19 39.78 16.55 71.03 33.14 86.61
  Q 33.27 86.73 33.39 86.73"
/>
<path stroke="#4c6285" vector-effect="non-scaling-stroke" d="
  M 22.46 31.97
  Q 23.57 36.78 22.10 42.59
  A 0.96 0.96 0.0 0 0 23.15 43.77
  L 24.65 43.58
  A 0.96 0.92 61.4 0 1 25.38 43.81
  Q 26.75 45.00 29.61 45.58
  A 0.49 0.49 0.0 0 0 30.19 45.04
  Q 30.02 43.72 30.32 43.11
  A 1.71 1.65 -4.2 0 1 30.90 42.46
  C 32.51 41.44 34.24 40.48 34.46 38.68
  Q 35.16 32.96 39.14 31.21
  A 1.47 1.44 35.5 0 1 39.83 31.10
  Q 44.74 31.55 46.30 36.48
  A 0.48 0.48 0.0 0 0 47.23 36.38
  Q 48.16 25.70 42.28 17.05
  A 2.76 2.67 -3.1 0 0 41.23 16.14
  Q 31.25 11.27 20.52 15.61
  A 1.63 1.59 4.9 0 0 19.79 16.21
  Q 15.56 22.53 14.60 29.00
  C 13.94 33.41 14.50 39.81 15.01 44.17
  A 0.96 0.95 -3.4 0 0 15.96 45.01
  L 20.27 45.01
  A 0.65 0.64 2.4 0 0 20.92 44.42
  Q 21.55 37.30 21.46 33.29
  Q 21.45 32.59 21.98 31.87
  A 0.27 0.27 0.0 0 1 22.46 31.97"
/>
<path stroke="#4c6285" vector-effect="non-scaling-stroke" d="
  M 45.84 49.75
  Q 45.75 53.36 49.38 53.94
  A 1.56 1.53 -57.7 0 0 50.52 53.67
  Q 53.85 51.29 51.62 47.43
  Q 49.39 43.59 45.64 43.27
  A 0.45 0.45 0.0 0 1 45.30 42.58
  C 47.77 38.74 44.62 32.61 39.91 32.33
  A 1.81 1.80 31.7 0 0 38.92 32.56
  C 36.10 34.15 35.41 37.13 35.01 39.95
  A 1.66 1.65 76.1 0 1 34.35 41.05
  L 32.23 42.58
  A 3.44 3.43 -26.4 0 0 30.95 46.37
  C 31.89 49.49 34.58 53.48 38.13 54.20
  A 1.23 1.19 -56.4 0 0 39.09 53.99
  L 45.34 49.49
  A 0.32 0.31 72.2 0 1 45.84 49.75"
/>
<path stroke="#9999a1" vector-effect="non-scaling-stroke" d="
  M 22.91 25.56
  L 23.33 28.88
  A 1.11 1.09 1.5 0 0 24.24 29.82
  L 26.62 30.23
  A 0.96 0.94 33.9 0 0 27.27 30.11
  L 30.21 28.42
  A 1.78 1.77 49.2 0 1 32.21 28.57
  Q 34.88 30.70 37.54 29.94
  A 0.91 0.90 86.9 0 0 38.17 29.23
  L 38.81 25.51
  A 0.54 0.54 0.0 0 1 39.39 25.06
  Q 40.29 25.15 40.54 26.57
  A 0.42 0.42 0.0 0 0 41.25 26.79
  L 43.63 24.42
  A 1.21 1.20 -37.6 0 0 43.82 22.98
  L 41.27 18.57
  A 2.52 2.47 -0.6 0 0 40.26 17.60
  Q 31.06 12.82 21.31 17.21
  A 0.72 0.72 0.0 0 0 20.95 17.54
  L 17.81 22.97
  A 1.30 1.29 37.7 0 0 18.02 24.54
  L 20.94 27.46
  A 0.48 0.48 0.0 0 0 21.76 27.09
  Q 21.70 26.17 22.35 25.40
  A 0.32 0.32 0.0 0 1 22.91 25.56"
/>
<path stroke="#9999a1" vector-effect="non-scaling-stroke" d="
  M 19.35 42.50
  Q 20.24 38.50 19.80 33.61
  Q 19.71 32.58 20.81 30.12
  A 1.19 1.19 0.0 0 0 20.57 28.80
  L 17.56 25.79
  A 0.42 0.42 0.0 0 0 16.85 26.00
  Q 15.18 34.16 16.62 42.44
  A 1.39 1.39 0.0 0 0 19.35 42.50"
/>
<path stroke="#9999a1" vector-effect="non-scaling-stroke" d="
  M 45.65 32.38
  L 44.90 26.42
  A 0.57 0.57 0.0 0 0 43.93 26.09
  L 41.67 28.34
  A 1.29 1.28 37.5 0 0 41.94 30.36
  L 45.55 32.45
  A 0.07 0.07 0.0 0 0 45.65 32.38"
/>
<path stroke="#9999a1" vector-effect="non-scaling-stroke" d="
  M 36.20 31.38
  Q 36.15 31.38 35.63 31.63
  A 1.20 1.19 47.3 0 1 34.53 31.58
  L 31.66 29.93
  A 1.28 1.26 -44.6 0 0 30.37 29.93
  L 27.37 31.66
  A 1.45 1.44 44.7 0 1 25.92 31.66
  L 24.58 30.89
  A 0.54 0.53 4.7 0 0 23.81 31.54
  Q 25.15 35.10 24.39 38.39
  A 0.48 0.47 10.9 0 0 24.78 38.96
  L 26.00 39.15
  A 0.72 0.68 73.2 0 1 26.42 39.39
  Q 29.58 43.16 32.88 39.60
  A 1.87 1.80 71.2 0 0 33.35 38.60
  Q 33.91 34.30 36.40 31.85
  A 0.27 0.27 0.0 0 0 36.20 31.38"
/>
<path stroke="#9999a1" vector-effect="non-scaling-stroke" d="
  M 28.66 42.72
  C 27.66 42.25 25.58 40.49 25.00 40.53
  Q 24.47 40.56 24.17 40.81
  A 0.65 0.57 -62.7 0 0 24.45 41.93
  Q 26.15 41.93 28.24 43.68
  A 0.29 0.29 0.0 0 0 28.67 43.61
  L 28.85 43.29
  A 0.41 0.40 27.4 0 0 28.66 42.72"
/>
<path stroke="#9999a1" vector-effect="non-scaling-stroke" d="
  M 30.80 21.33
  C 32.77 21.35 34.99 19.68 36.11 18.09
  A 0.89 0.89 0.0 0 0 35.65 16.72
  Q 33.96 16.17 30.87 16.13
  Q 27.79 16.09 26.08 16.59
  A 0.89 0.89 0.0 0 0 25.58 17.95
  C 26.66 19.57 28.83 21.30 30.80 21.33"
/>
<path stroke="#4c6285" vector-effect="non-scaling-stroke" d="
  M 33.49 17.97
  L 28.31 17.93
  A 0.13 0.13 0.0 0 0 28.18 18.06
  L 28.17 18.11
  A 2.56 1.26 0.5 0 0 30.72 19.39
  L 31.04 19.39
  A 2.56 1.26 0.5 0 0 33.61 18.15
  L 33.62 18.10
  A 0.13 0.13 0.0 0 0 33.49 17.97"
/>
<path stroke="#9999a1" vector-effect="non-scaling-stroke" d="
  M 45.67 46.82
  Q 45.36 44.86 44.08 43.54
  A 1.04 1.03 38.9 0 1 43.94 42.28
  Q 45.93 39.03 43.29 35.70
  C 38.96 30.23 36.51 37.52 36.63 40.78
  A 1.02 1.01 -19.2 0 1 36.21 41.64
  L 33.13 43.86
  A 2.09 2.09 0.0 0 0 32.37 46.22
  Q 33.63 49.92 37.14 52.34
  A 1.65 1.64 44.3 0 0 39.04 52.32
  L 45.24 47.85
  A 1.05 1.05 0.0 0 0 45.67 46.82"
/>
<path stroke="#9999a1" vector-effect="non-scaling-stroke" d="
  M 46.81 45.40
  C 47.16 46.85 48.34 48.02 47.44 49.70
  A 2.02 1.78 19.6 0 0 48.91 52.35
  Q 50.10 52.62 50.79 51.39
  C 52.03 49.17 49.04 46.23 47.40 45.01
  A 0.38 0.38 0.0 0 0 46.81 45.40"
/>
<path stroke="#9999a1" vector-effect="non-scaling-stroke" d="
  M 38.60 39.93
  L 39.34 39.40
  A 1.55 1.55 0.0 0 1 41.60 41.40
  Q 40.80 42.86 41.15 44.52
  A 0.69 0.69 0.0 0 0 41.82 45.06
  L 42.26 45.06
  A 0.69 0.68 -89.6 0 0 42.94 44.38
  C 43.00 41.20 44.71 39.07 41.61 36.13
  A 1.60 1.34 43.1 0 0 39.51 36.01
  Q 38.12 37.50 38.06 39.65
  A 0.34 0.34 0.0 0 0 38.60 39.93"
/>
</g>
<path fill="#2d4967" d="
  M 33.78 88.00
  L 33.15 88.00
  Q 15.62 72.50 6.00 52.51
  Q 2.23 44.68 1.62 35.22
  Q 1.01 25.74 5.26 17.97
  C 11.17 7.15 22.77 0.71 35.42 1.39
  C 52.48 2.31 66.06 16.72 65.47 33.77
  Q 65.19 41.59 62.33 49.05
  C 56.68 63.77 45.40 77.48 33.78 88.00
  Z
  M 33.39 86.73
  Q 33.50 86.73 33.64 86.61
  C 50.28 71.09 75.12 39.92 59.34 16.44
  Q 50.38 3.09 33.75 2.45
  Q 33.60 2.45 33.53 2.45
  Q 33.46 2.45 33.31 2.45
  Q 16.68 3.03 7.67 16.35
  C -8.19 39.78 16.55 71.03 33.14 86.61
  Q 33.27 86.73 33.39 86.73
  Z"
/>
<path fill="#6591c7" d="
  M 33.53 2.45
  Q 33.60 2.45 33.75 2.45
  Q 50.38 3.09 59.34 16.44
  C 75.12 39.92 50.28 71.09 33.64 86.61
  Q 33.50 86.73 33.39 86.73
  Q 33.27 86.73 33.14 86.61
  C 16.55 71.03 -8.19 39.78 7.67 16.35
  Q 16.68 3.03 33.31 2.45
  Q 33.46 2.45 33.53 2.45
  Z
  M 22.46 31.97
  Q 23.57 36.78 22.10 42.59
  A 0.96 0.96 0.0 0 0 23.15 43.77
  L 24.65 43.58
  A 0.96 0.92 61.4 0 1 25.38 43.81
  Q 26.75 45.00 29.61 45.58
  A 0.49 0.49 0.0 0 0 30.19 45.04
  Q 30.02 43.72 30.32 43.11
  A 1.71 1.65 -4.2 0 1 30.90 42.46
  C 32.51 41.44 34.24 40.48 34.46 38.68
  Q 35.16 32.96 39.14 31.21
  A 1.47 1.44 35.5 0 1 39.83 31.10
  Q 44.74 31.55 46.30 36.48
  A 0.48 0.48 0.0 0 0 47.23 36.38
  Q 48.16 25.70 42.28 17.05
  A 2.76 2.67 -3.1 0 0 41.23 16.14
  Q 31.25 11.27 20.52 15.61
  A 1.63 1.59 4.9 0 0 19.79 16.21
  Q 15.56 22.53 14.60 29.00
  C 13.94 33.41 14.50 39.81 15.01 44.17
  A 0.96 0.95 -3.4 0 0 15.96 45.01
  L 20.27 45.01
  A 0.65 0.64 2.4 0 0 20.92 44.42
  Q 21.55 37.30 21.46 33.29
  Q 21.45 32.59 21.98 31.87
  A 0.27 0.27 0.0 0 1 22.46 31.97
  Z
  M 45.84 49.75
  Q 45.75 53.36 49.38 53.94
  A 1.56 1.53 -57.7 0 0 50.52 53.67
  Q 53.85 51.29 51.62 47.43
  Q 49.39 43.59 45.64 43.27
  A 0.45 0.45 0.0 0 1 45.30 42.58
  C 47.77 38.74 44.62 32.61 39.91 32.33
  A 1.81 1.80 31.7 0 0 38.92 32.56
  C 36.10 34.15 35.41 37.13 35.01 39.95
  A 1.66 1.65 76.1 0 1 34.35 41.05
  L 32.23 42.58
  A 3.44 3.43 -26.4 0 0 30.95 46.37
  C 31.89 49.49 34.58 53.48 38.13 54.20
  A 1.23 1.19 -56.4 0 0 39.09 53.99
  L 45.34 49.49
  A 0.32 0.31 72.2 0 1 45.84 49.75
  Z"
/>
<path fill="#323343" d="
  M 21.98 31.87
  Q 21.45 32.59 21.46 33.29
  Q 21.55 37.30 20.92 44.42
  A 0.65 0.64 2.4 0 1 20.27 45.01
  L 15.96 45.01
  A 0.96 0.95 -3.4 0 1 15.01 44.17
  C 14.50 39.81 13.94 33.41 14.60 29.00
  Q 15.56 22.53 19.79 16.21
  A 1.63 1.59 4.9 0 1 20.52 15.61
  Q 31.25 11.27 41.23 16.14
  A 2.76 2.67 -3.1 0 1 42.28 17.05
  Q 48.16 25.70 47.23 36.38
  A 0.48 0.48 0.0 0 1 46.30 36.48
  Q 44.74 31.55 39.83 31.10
  A 1.47 1.44 35.5 0 0 39.14 31.21
  Q 35.16 32.96 34.46 38.68
  C 34.24 40.48 32.51 41.44 30.90 42.46
  A 1.71 1.65 -4.2 0 0 30.32 43.11
  Q 30.02 43.72 30.19 45.04
  A 0.49 0.49 0.0 0 1 29.61 45.58
  Q 26.75 45.00 25.38 43.81
  A 0.96 0.92 61.4 0 0 24.65 43.58
  L 23.15 43.77
  A 0.96 0.96 0.0 0 1 22.10 42.59
  Q 23.57 36.78 22.46 31.97
  A 0.27 0.27 0.0 0 0 21.98 31.87
  Z
  M 22.91 25.56
  L 23.33 28.88
  A 1.11 1.09 1.5 0 0 24.24 29.82
  L 26.62 30.23
  A 0.96 0.94 33.9 0 0 27.27 30.11
  L 30.21 28.42
  A 1.78 1.77 49.2 0 1 32.21 28.57
  Q 34.88 30.70 37.54 29.94
  A 0.91 0.90 86.9 0 0 38.17 29.23
  L 38.81 25.51
  A 0.54 0.54 0.0 0 1 39.39 25.06
  Q 40.29 25.15 40.54 26.57
  A 0.42 0.42 0.0 0 0 41.25 26.79
  L 43.63 24.42
  A 1.21 1.20 -37.6 0 0 43.82 22.98
  L 41.27 18.57
  A 2.52 2.47 -0.6 0 0 40.26 17.60
  Q 31.06 12.82 21.31 17.21
  A 0.72 0.72 0.0 0 0 20.95 17.54
  L 17.81 22.97
  A 1.30 1.29 37.7 0 0 18.02 24.54
  L 20.94 27.46
  A 0.48 0.48 0.0 0 0 21.76 27.09
  Q 21.70 26.17 22.35 25.40
  A 0.32 0.32 0.0 0 1 22.91 25.56
  Z
  M 19.35 42.50
  Q 20.24 38.50 19.80 33.61
  Q 19.71 32.58 20.81 30.12
  A 1.19 1.19 0.0 0 0 20.57 28.80
  L 17.56 25.79
  A 0.42 0.42 0.0 0 0 16.85 26.00
  Q 15.18 34.16 16.62 42.44
  A 1.39 1.39 0.0 0 0 19.35 42.50
  Z
  M 45.65 32.38
  L 44.90 26.42
  A 0.57 0.57 0.0 0 0 43.93 26.09
  L 41.67 28.34
  A 1.29 1.28 37.5 0 0 41.94 30.36
  L 45.55 32.45
  A 0.07 0.07 0.0 0 0 45.65 32.38
  Z
  M 36.20 31.38
  Q 36.15 31.38 35.63 31.63
  A 1.20 1.19 47.3 0 1 34.53 31.58
  L 31.66 29.93
  A 1.28 1.26 -44.6 0 0 30.37 29.93
  L 27.37 31.66
  A 1.45 1.44 44.7 0 1 25.92 31.66
  L 24.58 30.89
  A 0.54 0.53 4.7 0 0 23.81 31.54
  Q 25.15 35.10 24.39 38.39
  A 0.48 0.47 10.9 0 0 24.78 38.96
  L 26.00 39.15
  A 0.72 0.68 73.2 0 1 26.42 39.39
  Q 29.58 43.16 32.88 39.60
  A 1.87 1.80 71.2 0 0 33.35 38.60
  Q 33.91 34.30 36.40 31.85
  A 0.27 0.27 0.0 0 0 36.20 31.38
  Z
  M 28.66 42.72
  C 27.66 42.25 25.58 40.49 25.00 40.53
  Q 24.47 40.56 24.17 40.81
  A 0.65 0.57 -62.7 0 0 24.45 41.93
  Q 26.15 41.93 28.24 43.68
  A 0.29 0.29 0.0 0 0 28.67 43.61
  L 28.85 43.29
  A 0.41 0.40 27.4 0 0 28.66 42.72
  Z"
/>
<path fill="#ffffff" d="
  M 22.35 25.40
  Q 21.70 26.17 21.76 27.09
  A 0.48 0.48 0.0 0 1 20.94 27.46
  L 18.02 24.54
  A 1.30 1.29 37.7 0 1 17.81 22.97
  L 20.95 17.54
  A 0.72 0.72 0.0 0 1 21.31 17.21
  Q 31.06 12.82 40.26 17.60
  A 2.52 2.47 -0.6 0 1 41.27 18.57
  L 43.82 22.98
  A 1.21 1.20 -37.6 0 1 43.63 24.42
  L 41.25 26.79
  A 0.42 0.42 0.0 0 1 40.54 26.57
  Q 40.29 25.15 39.39 25.06
  A 0.54 0.54 0.0 0 0 38.81 25.51
  L 38.17 29.23
  A 0.91 0.90 86.9 0 1 37.54 29.94
  Q 34.88 30.70 32.21 28.57
  A 1.78 1.77 49.2 0 0 30.21 28.42
  L 27.27 30.11
  A 0.96 0.94 33.9 0 1 26.62 30.23
  L 24.24 29.82
  A 1.11 1.09 1.5 0 1 23.33 28.88
  L 22.91 25.56
  A 0.32 0.32 0.0 0 0 22.35 25.40
  Z
  M 30.80 21.33
  C 32.77 21.35 34.99 19.68 36.11 18.09
  A 0.89 0.89 0.0 0 0 35.65 16.72
  Q 33.96 16.17 30.87 16.13
  Q 27.79 16.09 26.08 16.59
  A 0.89 0.89 0.0 0 0 25.58 17.95
  C 26.66 19.57 28.83 21.30 30.80 21.33
  Z"
/>
<path fill="#323343" d="
  M 30.87 16.13
  Q 33.96 16.17 35.65 16.72
  A 0.89 0.89 0.0 0 1 36.11 18.09
  C 34.99 19.68 32.77 21.35 30.80 21.33
  C 28.83 21.30 26.66 19.57 25.58 17.95
  A 0.89 0.89 0.0 0 1 26.08 16.59
  Q 27.79 16.09 30.87 16.13
  Z
  M 33.49 17.97
  L 28.31 17.93
  A 0.13 0.13 0.0 0 0 28.18 18.06
  L 28.17 18.11
  A 2.56 1.26 0.5 0 0 30.72 19.39
  L 31.04 19.39
  A 2.56 1.26 0.5 0 0 33.61 18.15
  L 33.62 18.10
  A 0.13 0.13 0.0 0 0 33.49 17.97
  Z"
/>
<path fill="#6591c7" d="
  M 33.49 17.97
  A 0.13 0.13 0.0 0 1 33.62 18.10
  L 33.61 18.15
  A 2.56 1.26 0.5 0 1 31.04 19.39
  L 30.72 19.39
  A 2.56 1.26 0.5 0 1 28.17 18.11
  L 28.18 18.06
  A 0.13 0.13 0.0 0 1 28.31 17.93
  L 33.49 17.97
  Z"
/>
<path fill="#ffffff" d="
  M 19.35 42.50
  A 1.39 1.39 0.0 0 1 16.62 42.44
  Q 15.18 34.16 16.85 26.00
  A 0.42 0.42 0.0 0 1 17.56 25.79
  L 20.57 28.80
  A 1.19 1.19 0.0 0 1 20.81 30.12
  Q 19.71 32.58 19.80 33.61
  Q 20.24 38.50 19.35 42.50
  Z"
/>
<path fill="#ffffff" d="
  M 45.55 32.45
  L 41.94 30.36
  A 1.29 1.28 37.5 0 1 41.67 28.34
  L 43.93 26.09
  A 0.57 0.57 0.0 0 1 44.90 26.42
  L 45.65 32.38
  A 0.07 0.07 0.0 0 1 45.55 32.45
  Z"
/>
<path fill="#ffffff" d="
  M 36.40 31.85
  Q 33.91 34.30 33.35 38.60
  A 1.87 1.80 71.2 0 1 32.88 39.60
  Q 29.58 43.16 26.42 39.39
  A 0.72 0.68 73.2 0 0 26.00 39.15
  L 24.78 38.96
  A 0.48 0.47 10.9 0 1 24.39 38.39
  Q 25.15 35.10 23.81 31.54
  A 0.54 0.53 4.7 0 1 24.58 30.89
  L 25.92 31.66
  A 1.45 1.44 44.7 0 0 27.37 31.66
  L 30.37 29.93
  A 1.28 1.26 -44.6 0 1 31.66 29.93
  L 34.53 31.58
  A 1.20 1.19 47.3 0 0 35.63 31.63
  Q 36.15 31.38 36.20 31.38
  A 0.27 0.27 0.0 0 1 36.40 31.85
  Z"
/>
<path fill="#323343" d="
  M 45.34 49.49
  L 39.09 53.99
  A 1.23 1.19 -56.4 0 1 38.13 54.20
  C 34.58 53.48 31.89 49.49 30.95 46.37
  A 3.44 3.43 -26.4 0 1 32.23 42.58
  L 34.35 41.05
  A 1.66 1.65 76.1 0 0 35.01 39.95
  C 35.41 37.13 36.10 34.15 38.92 32.56
  A 1.81 1.80 31.7 0 1 39.91 32.33
  C 44.62 32.61 47.77 38.74 45.30 42.58
  A 0.45 0.45 0.0 0 0 45.64 43.27
  Q 49.39 43.59 51.62 47.43
  Q 53.85 51.29 50.52 53.67
  A 1.56 1.53 -57.7 0 1 49.38 53.94
  Q 45.75 53.36 45.84 49.75
  A 0.32 0.31 72.2 0 0 45.34 49.49
  Z
  M 45.67 46.82
  Q 45.36 44.86 44.08 43.54
  A 1.04 1.03 38.9 0 1 43.94 42.28
  Q 45.93 39.03 43.29 35.70
  C 38.96 30.23 36.51 37.52 36.63 40.78
  A 1.02 1.01 -19.2 0 1 36.21 41.64
  L 33.13 43.86
  A 2.09 2.09 0.0 0 0 32.37 46.22
  Q 33.63 49.92 37.14 52.34
  A 1.65 1.64 44.3 0 0 39.04 52.32
  L 45.24 47.85
  A 1.05 1.05 0.0 0 0 45.67 46.82
  Z
  M 46.81 45.40
  C 47.16 46.85 48.34 48.02 47.44 49.70
  A 2.02 1.78 19.6 0 0 48.91 52.35
  Q 50.10 52.62 50.79 51.39
  C 52.03 49.17 49.04 46.23 47.40 45.01
  A 0.38 0.38 0.0 0 0 46.81 45.40
  Z"
/>
<path fill="#ffffff" d="
  M 45.24 47.85
  L 39.04 52.32
  A 1.65 1.64 44.3 0 1 37.14 52.34
  Q 33.63 49.92 32.37 46.22
  A 2.09 2.09 0.0 0 1 33.13 43.86
  L 36.21 41.64
  A 1.02 1.01 -19.2 0 0 36.63 40.78
  C 36.51 37.52 38.96 30.23 43.29 35.70
  Q 45.93 39.03 43.94 42.28
  A 1.04 1.03 38.9 0 0 44.08 43.54
  Q 45.36 44.86 45.67 46.82
  A 1.05 1.05 0.0 0 1 45.24 47.85
  Z
  M 38.60 39.93
  L 39.34 39.40
  A 1.55 1.55 0.0 0 1 41.60 41.40
  Q 40.80 42.86 41.15 44.52
  A 0.69 0.69 0.0 0 0 41.82 45.06
  L 42.26 45.06
  A 0.69 0.68 -89.6 0 0 42.94 44.38
  C 43.00 41.20 44.71 39.07 41.61 36.13
  A 1.60 1.34 43.1 0 0 39.51 36.01
  Q 38.12 37.50 38.06 39.65
  A 0.34 0.34 0.0 0 0 38.60 39.93
  Z"
/>
<path fill="#323343" d="
  M 38.06 39.65
  Q 38.12 37.50 39.51 36.01
  A 1.60 1.34 43.1 0 1 41.61 36.13
  C 44.71 39.07 43.00 41.20 42.94 44.38
  A 0.69 0.68 -89.6 0 1 42.26 45.06
  L 41.82 45.06
  A 0.69 0.69 0.0 0 1 41.15 44.52
  Q 40.80 42.86 41.60 41.40
  A 1.55 1.55 0.0 0 0 39.34 39.40
  L 38.60 39.93
  A 0.34 0.34 0.0 0 1 38.06 39.65
  Z"
/>
<path fill="#ffffff" d="
  M 28.66 42.72
  A 0.41 0.40 27.4 0 1 28.85 43.29
  L 28.67 43.61
  A 0.29 0.29 0.0 0 1 28.24 43.68
  Q 26.15 41.93 24.45 41.93
  A 0.65 0.57 -62.7 0 1 24.17 40.81
  Q 24.47 40.56 25.00 40.53
  C 25.58 40.49 27.66 42.25 28.66 42.72
  Z"
/>
<path fill="#ffffff" d="
  M 46.81 45.40
  A 0.38 0.38 0.0 0 1 47.40 45.01
  C 49.04 46.23 52.03 49.17 50.79 51.39
  Q 50.10 52.62 48.91 52.35
  A 2.02 1.78 19.6 0 1 47.44 49.70
  C 48.34 48.02 47.16 46.85 46.81 45.40
  Z"
/>
</svg>
