<?xml version="1.0" encoding="UTF-8" standalone="no"?>
<!DOCTYPE svg PUBLIC "-//W3C//DTD SVG 1.1//EN" "http://www.w3.org/Graphics/SVG/1.1/DTD/svg11.dtd">
<svg xmlns="http://www.w3.org/2000/svg" version="1.1" viewBox="0.00 0.00 66.00 88.00">
<g stroke-width="2.00" fill="none" stroke-linecap="butt">
<path stroke="#4a4b57" vector-effect="non-scaling-stroke" d="
  M 33.41 86.67
  Q 33.54 86.67 33.67 86.64
  A 0.06 0.03 -55.4 0 0 33.71 86.62
  C 46.95 74.28 61.88 55.75 63.92 37.76
  Q 66.32 16.67 48.11 6.17
  Q 41.68 2.46 33.52 2.45
  Q 25.36 2.44 18.92 6.14
  Q 0.68 16.58 3.02 37.68
  C 5.02 55.67 19.90 74.24 33.10 86.62
  A 0.06 0.03 55.5 0 0 33.14 86.64
  Q 33.27 86.67 33.41 86.67"
/>
<path stroke="#4c4c5b" vector-effect="non-scaling-stroke" d="
  M 43.95 30.26
  L 40.02 29.29
  A 0.11 0.11 0.0 0 1 39.94 29.16
  L 40.03 28.83
  A 0.25 0.25 0.0 0 1 40.33 28.65
  L 50.52 31.19
  A 0.99 0.99 0.0 0 0 51.72 30.47
  L 52.17 28.66
  A 0.87 0.87 0.0 0 0 51.54 27.61
  L 45.65 26.15
  A 0.82 0.82 0.0 0 1 45.05 25.17
  L 46.47 18.95
  A 2.34 2.21 -24.9 0 1 46.75 18.25
  Q 47.28 17.34 47.80 16.68
  A 2.89 2.84 41.4 0 0 47.53 12.87
  C 45.26 10.65 41.78 13.17 42.75 16.44
  A 1.05 1.02 -48.1 0 1 42.77 16.97
  L 41.02 23.97
  A 0.89 0.89 0.0 0 1 39.95 24.62
  L 34.58 23.28
  A 1.49 1.49 0.0 0 0 32.78 24.37
  L 32.45 25.70
  A 1.21 1.21 0.0 0 0 33.36 27.17
  L 38.59 28.33
  A 0.48 0.48 0.0 0 1 38.88 29.07
  Q 38.82 29.15 38.46 29.32
  A 0.79 0.78 -5.7 0 0 38.02 29.85
  L 33.99 46.04
  A 0.29 0.29 0.0 0 1 33.43 46.06
  Q 33.28 45.60 32.77 45.64
  Q 29.21 45.87 19.81 46.91
  Q 15.59 47.37 13.71 49.19
  C 10.45 52.34 16.80 54.47 19.01 54.78
  Q 25.52 55.69 33.77 55.92
  C 38.74 56.06 43.87 55.30 48.55 54.29
  Q 50.01 53.98 52.08 52.50
  A 1.27 1.26 77.6 0 0 52.60 51.68
  Q 53.02 49.10 50.59 48.19
  Q 47.30 46.96 45.88 46.76
  A 1.25 1.25 0.0 0 0 44.86 47.06
  L 40.66 50.71
  A 0.39 0.39 0.0 0 1 40.02 50.32
  L 44.70 31.51
  A 1.03 1.03 0.0 0 0 43.95 30.26"
/>
<path stroke="#9a9aa1" vector-effect="non-scaling-stroke" d="
  M 42.22 27.84
  C 45.93 28.76 50.15 29.92 50.49 29.76
  Q 50.67 29.67 50.78 29.51
  A 0.57 0.55 25.2 0 0 50.45 28.65
  Q 44.53 27.00 44.09 26.83
  A 0.67 0.67 0.0 0 1 43.66 26.06
  L 45.44 17.49
  A 1.18 1.17 78.0 0 1 45.91 16.76
  Q 47.11 15.87 47.06 14.98
  Q 46.99 13.68 45.82 13.39
  Q 44.65 13.10 43.98 14.21
  Q 43.52 14.97 44.16 16.32
  A 1.18 1.17 -50.0 0 1 44.23 17.19
  L 41.78 25.59
  A 0.67 0.67 0.0 0 1 41.03 26.07
  Q 40.57 26.01 34.56 24.68
  A 0.57 0.55 2.8 0 0 33.87 25.29
  Q 33.89 25.48 34.01 25.64
  C 34.23 25.95 38.50 26.91 42.22 27.84"
/>
<path stroke="#9a9aa1" vector-effect="non-scaling-stroke" d="
  M 39.65 30.61
  A 0.46 0.46 0.0 0 0 39.09 30.95
  L 34.50 49.42
  A 0.46 0.46 0.0 0 0 34.95 49.99
  L 38.44 49.99
  A 0.46 0.46 0.0 0 0 38.89 49.64
  L 43.28 31.99
  A 0.46 0.46 0.0 0 0 42.94 31.43
  L 39.65 30.61"
/>
<path stroke="#9a9aa1" vector-effect="non-scaling-stroke" d="
  M 31.68 47.00
  Q 27.61 47.29 19.65 48.19
  Q 16.40 48.55 14.32 50.33
  A 0.74 0.74 0.0 0 0 14.34 51.47
  Q 16.36 53.09 19.43 53.56
  Q 23.43 54.17 33.67 54.85
  Q 38.03 55.14 48.70 52.89
  Q 50.21 52.57 51.10 51.77
  A 1.22 1.22 0.0 0 0 50.87 49.80
  Q 48.40 48.46 46.03 48.09
  A 0.96 0.95 -63.0 0 0 45.19 48.37
  C 43.31 50.28 41.02 52.67 38.00 52.74
  Q 33.77 52.84 31.50 52.65
  A 0.71 0.71 0.0 0 1 30.86 51.77
  L 31.96 47.34
  A 0.28 0.27 -85.2 0 0 31.68 47.00"
/>
</g>
<path fill="#30323a" d="
  M 33.80 88.00
  L 33.04 88.00
  C 21.79 77.79 12.04 65.61 5.64 51.56
  Q 2.17 43.93 1.59 34.88
  C 0.82 22.81 6.84 11.82 17.09 5.77
  C 35.85 -5.29 60.94 5.28 64.92 27.01
  C 69.03 49.45 49.28 73.89 33.80 88.00
  Z
  M 33.41 86.67
  Q 33.54 86.67 33.67 86.64
  A 0.06 0.03 -55.4 0 0 33.71 86.62
  C 46.95 74.28 61.88 55.75 63.92 37.76
  Q 66.32 16.67 48.11 6.17
  Q 41.68 2.46 33.52 2.45
  Q 25.36 2.44 18.92 6.14
  Q 0.68 16.58 3.02 37.68
  C 5.02 55.67 19.90 74.24 33.10 86.62
  A 0.06 0.03 55.5 0 0 33.14 86.64
  Q 33.27 86.67 33.41 86.67
  Z"
/>
<path fill="#636373" d="
  M 33.52 2.45
  Q 41.68 2.46 48.11 6.17
  Q 66.32 16.67 63.92 37.76
  C 61.88 55.75 46.95 74.28 33.71 86.62
  A 0.06 0.03 -55.4 0 1 33.67 86.64
  Q 33.54 86.67 33.41 86.67
  Q 33.27 86.67 33.14 86.64
  A 0.06 0.03 55.5 0 1 33.10 86.62
  C 19.90 74.24 5.02 55.67 3.02 37.68
  Q 0.68 16.58 18.92 6.14
  Q 25.36 2.44 33.52 2.45
  Z
  M 43.95 30.26
  L 40.02 29.29
  A 0.11 0.11 0.0 0 1 39.94 29.16
  L 40.03 28.83
  A 0.25 0.25 0.0 0 1 40.33 28.65
  L 50.52 31.19
  A 0.99 0.99 0.0 0 0 51.72 30.47
  L 52.17 28.66
  A 0.87 0.87 0.0 0 0 51.54 27.61
  L 45.65 26.15
  A 0.82 0.82 0.0 0 1 45.05 25.17
  L 46.47 18.95
  A 2.34 2.21 -24.9 0 1 46.75 18.25
  Q 47.28 17.34 47.80 16.68
  A 2.89 2.84 41.4 0 0 47.53 12.87
  C 45.26 10.65 41.78 13.17 42.75 16.44
  A 1.05 1.02 -48.1 0 1 42.77 16.97
  L 41.02 23.97
  A 0.89 0.89 0.0 0 1 39.95 24.62
  L 34.58 23.28
  A 1.49 1.49 0.0 0 0 32.78 24.37
  L 32.45 25.70
  A 1.21 1.21 0.0 0 0 33.36 27.17
  L 38.59 28.33
  A 0.48 0.48 0.0 0 1 38.88 29.07
  Q 38.82 29.15 38.46 29.32
  A 0.79 0.78 -5.7 0 0 38.02 29.85
  L 33.99 46.04
  A 0.29 0.29 0.0 0 1 33.43 46.06
  Q 33.28 45.60 32.77 45.64
  Q 29.21 45.87 19.81 46.91
  Q 15.59 47.37 13.71 49.19
  C 10.45 52.34 16.80 54.47 19.01 54.78
  Q 25.52 55.69 33.77 55.92
  C 38.74 56.06 43.87 55.30 48.55 54.29
  Q 50.01 53.98 52.08 52.50
  A 1.27 1.26 77.6 0 0 52.60 51.68
  Q 53.02 49.10 50.59 48.19
  Q 47.30 46.96 45.88 46.76
  A 1.25 1.25 0.0 0 0 44.86 47.06
  L 40.66 50.71
  A 0.39 0.39 0.0 0 1 40.02 50.32
  L 44.70 31.51
  A 1.03 1.03 0.0 0 0 43.95 30.26
  Z"
/>
<path fill="#343443" d="
  M 43.95 30.26
  A 1.03 1.03 0.0 0 1 44.70 31.51
  L 40.02 50.32
  A 0.39 0.39 0.0 0 0 40.66 50.71
  L 44.86 47.06
  A 1.25 1.25 0.0 0 1 45.88 46.76
  Q 47.30 46.96 50.59 48.19
  Q 53.02 49.10 52.60 51.68
  A 1.27 1.26 77.6 0 1 52.08 52.50
  Q 50.01 53.98 48.55 54.29
  C 43.87 55.30 38.74 56.06 33.77 55.92
  Q 25.52 55.69 19.01 54.78
  C 16.80 54.47 10.45 52.34 13.71 49.19
  Q 15.59 47.37 19.81 46.91
  Q 29.21 45.87 32.77 45.64
  Q 33.28 45.60 33.43 46.06
  A 0.29 0.29 0.0 0 0 33.99 46.04
  L 38.02 29.85
  A 0.79 0.78 -5.7 0 1 38.46 29.32
  Q 38.82 29.15 38.88 29.07
  A 0.48 0.48 0.0 0 0 38.59 28.33
  L 33.36 27.17
  A 1.21 1.21 0.0 0 1 32.45 25.70
  L 32.78 24.37
  A 1.49 1.49 0.0 0 1 34.58 23.28
  L 39.95 24.62
  A 0.89 0.89 0.0 0 0 41.02 23.97
  L 42.77 16.97
  A 1.05 1.02 -48.1 0 0 42.75 16.44
  C 41.78 13.17 45.26 10.65 47.53 12.87
  A 2.89 2.84 41.4 0 1 47.80 16.68
  Q 47.28 17.34 46.75 18.25
  A 2.34 2.21 -24.9 0 0 46.47 18.95
  L 45.05 25.17
  A 0.82 0.82 0.0 0 0 45.65 26.15
  L 51.54 27.61
  A 0.87 0.87 0.0 0 1 52.17 28.66
  L 51.72 30.47
  A 0.99 0.99 0.0 0 1 50.52 31.19
  L 40.33 28.65
  A 0.25 0.25 0.0 0 0 40.03 28.83
  L 39.94 29.16
  A 0.11 0.11 0.0 0 0 40.02 29.29
  L 43.95 30.26
  Z
  M 42.22 27.84
  C 45.93 28.76 50.15 29.92 50.49 29.76
  Q 50.67 29.67 50.78 29.51
  A 0.57 0.55 25.2 0 0 50.45 28.65
  Q 44.53 27.00 44.09 26.83
  A 0.67 0.67 0.0 0 1 43.66 26.06
  L 45.44 17.49
  A 1.18 1.17 78.0 0 1 45.91 16.76
  Q 47.11 15.87 47.06 14.98
  Q 46.99 13.68 45.82 13.39
  Q 44.65 13.10 43.98 14.21
  Q 43.52 14.97 44.16 16.32
  A 1.18 1.17 -50.0 0 1 44.23 17.19
  L 41.78 25.59
  A 0.67 0.67 0.0 0 1 41.03 26.07
  Q 40.57 26.01 34.56 24.68
  A 0.57 0.55 2.8 0 0 33.87 25.29
  Q 33.89 25.48 34.01 25.64
  C 34.23 25.95 38.50 26.91 42.22 27.84
  Z
  M 39.65 30.61
  A 0.46 0.46 0.0 0 0 39.09 30.95
  L 34.50 49.42
  A 0.46 0.46 0.0 0 0 34.95 49.99
  L 38.44 49.99
  A 0.46 0.46 0.0 0 0 38.89 49.64
  L 43.28 31.99
  A 0.46 0.46 0.0 0 0 42.94 31.43
  L 39.65 30.61
  Z
  M 31.68 47.00
  Q 27.61 47.29 19.65 48.19
  Q 16.40 48.55 14.32 50.33
  A 0.74 0.74 0.0 0 0 14.34 51.47
  Q 16.36 53.09 19.43 53.56
  Q 23.43 54.17 33.67 54.85
  Q 38.03 55.14 48.70 52.89
  Q 50.21 52.57 51.10 51.77
  A 1.22 1.22 0.0 0 0 50.87 49.80
  Q 48.40 48.46 46.03 48.09
  A 0.96 0.95 -63.0 0 0 45.19 48.37
  C 43.31 50.28 41.02 52.67 38.00 52.74
  Q 33.77 52.84 31.50 52.65
  A 0.71 0.71 0.0 0 1 30.86 51.77
  L 31.96 47.34
  A 0.28 0.27 -85.2 0 0 31.68 47.00
  Z"
/>
<path fill="#ffffff" d="
  M 45.82 13.39
  Q 46.99 13.68 47.06 14.98
  Q 47.11 15.87 45.91 16.76
  A 1.18 1.17 78.0 0 0 45.44 17.49
  L 43.66 26.06
  A 0.67 0.67 0.0 0 0 44.09 26.83
  Q 44.53 27.00 50.45 28.65
  A 0.57 0.55 25.2 0 1 50.78 29.51
  Q 50.67 29.67 50.49 29.76
  C 50.15 29.92 45.93 28.76 42.22 27.84
  C 38.50 26.91 34.23 25.95 34.01 25.64
  Q 33.89 25.48 33.87 25.29
  A 0.57 0.55 2.8 0 1 34.56 24.68
  Q 40.57 26.01 41.03 26.07
  A 0.67 0.67 0.0 0 0 41.78 25.59
  L 44.23 17.19
  A 1.18 1.17 -50.0 0 0 44.16 16.32
  Q 43.52 14.97 43.98 14.21
  Q 44.65 13.10 45.82 13.39
  Z"
/>
<path fill="#ffffff" d="
  M 39.65 30.61
  L 42.94 31.43
  A 0.46 0.46 0.0 0 1 43.28 31.99
  L 38.89 49.64
  A 0.46 0.46 0.0 0 1 38.44 49.99
  L 34.95 49.99
  A 0.46 0.46 0.0 0 1 34.50 49.42
  L 39.09 30.95
  A 0.46 0.46 0.0 0 1 39.65 30.61
  Z"
/>
<path fill="#ffffff" d="
  M 31.68 47.00
  A 0.28 0.27 -85.2 0 1 31.96 47.34
  L 30.86 51.77
  A 0.71 0.71 0.0 0 0 31.50 52.65
  Q 33.77 52.84 38.00 52.74
  C 41.02 52.67 43.31 50.28 45.19 48.37
  A 0.96 0.95 -63.0 0 1 46.03 48.09
  Q 48.40 48.46 50.87 49.80
  A 1.22 1.22 0.0 0 1 51.10 51.77
  Q 50.21 52.57 48.70 52.89
  Q 38.03 55.14 33.67 54.85
  Q 23.43 54.17 19.43 53.56
  Q 16.36 53.09 14.34 51.47
  A 0.74 0.74 0.0 0 1 14.32 50.33
  Q 16.40 48.55 19.65 48.19
  Q 27.61 47.29 31.68 47.00
  Z"
/>
</svg>
