<?xml version="1.0" encoding="UTF-8" standalone="no"?>
<!DOCTYPE svg PUBLIC "-//W3C//DTD SVG 1.1//EN" "http://www.w3.org/Graphics/SVG/1.1/DTD/svg11.dtd">
<svg xmlns="http://www.w3.org/2000/svg" version="1.1" viewBox="0.00 0.00 66.00 88.00">
<g stroke-width="2.00" fill="none" stroke-linecap="butt">
<path stroke="#496d97" vector-effect="non-scaling-stroke" d="
  M 33.39 86.73
  Q 33.49 86.73 33.63 86.60
  Q 47.38 74.00 56.59 58.33
  C 65.69 42.84 68.85 23.34 53.89 10.12
  C 48.53 5.38 41.18 2.46 33.53 2.44
  C 25.88 2.43 18.52 5.33 13.14 10.05
  C -1.86 23.22 1.23 42.73 10.28 58.25
  Q 19.44 73.95 33.14 86.60
  Q 33.29 86.73 33.39 86.73"
/>
<path stroke="#4c6285" vector-effect="non-scaling-stroke" d="
  M 27.00 23.53
  L 25.53 23.53
  A 0.50 0.49 -2.6 0 0 25.03 24.07
  Q 25.15 25.36 24.88 26.07
  A 0.93 0.93 0.0 0 1 24.04 26.67
  Q 18.83 26.84 16.51 31.40
  C 15.35 33.69 15.66 38.37 15.77 40.51
  A 3.35 3.10 37.1 0 0 15.91 41.30
  Q 17.85 47.79 24.32 47.74
  A 0.66 0.66 0.0 0 1 24.99 48.37
  C 25.08 50.16 25.41 51.41 27.51 52.58
  Q 28.42 53.09 28.12 54.16
  A 0.65 0.65 0.0 0 0 28.75 54.98
  L 44.01 54.98
  A 0.73 0.72 90.0 0 0 44.73 54.25
  L 44.73 53.01
  A 0.69 0.67 -2.8 0 1 45.35 52.34
  Q 47.98 52.07 47.97 47.75
  Q 47.97 46.03 47.97 36.11
  C 47.97 35.56 48.30 35.23 48.75 34.99
  C 51.46 33.51 51.92 30.64 50.61 27.84
  A 1.53 1.49 -54.0 0 1 50.48 26.93
  Q 50.55 26.52 50.95 25.47
  C 51.75 23.35 51.26 21.48 49.34 20.04
  A 1.34 1.32 16.4 0 1 48.81 19.09
  Q 48.40 14.55 44.31 14.07
  C 41.93 13.80 39.58 14.77 38.95 17.18
  A 2.76 2.66 -70.1 0 1 35.19 19.03
  C 31.45 17.23 28.31 19.00 27.49 23.12
  A 0.51 0.50 -84.4 0 1 27.00 23.53"
/>
<path stroke="#9999a1" vector-effect="non-scaling-stroke" d="
  M 48.03 26.93
  Q 50.55 24.47 48.83 22.13
  C 48.37 21.50 47.73 21.33 47.20 20.93
  A 0.97 0.96 20.6 0 1 46.81 20.08
  C 47.15 14.29 39.68 14.37 39.97 19.89
  A 0.46 0.46 0.0 0 1 39.35 20.35
  Q 37.38 19.62 35.90 21.41
  A 0.53 0.53 0.0 0 1 35.15 21.47
  Q 34.44 20.84 33.26 20.40
  C 30.83 19.50 28.62 21.97 29.19 24.26
  Q 30.02 27.55 33.14 27.02
  A 2.03 2.02 17.3 0 0 34.25 26.44
  L 34.83 25.84
  A 0.75 0.74 41.8 0 1 35.85 25.79
  Q 39.14 28.62 41.91 24.69
  A 0.46 0.46 0.0 0 1 42.72 24.80
  Q 43.19 26.17 44.15 26.87
  A 0.54 0.54 0.0 0 1 44.16 27.74
  Q 41.76 29.48 42.61 31.62
  C 44.78 37.08 52.69 32.14 48.05 27.90
  A 0.67 0.67 0.0 0 1 48.03 26.93"
/>
<path stroke="#9999a1" vector-effect="non-scaling-stroke" d="
  M 40.24 28.22
  Q 37.84 29.14 36.28 28.19
  A 1.57 1.56 44.1 0 0 34.62 28.21
  Q 31.99 29.90 29.29 27.93
  C 28.20 27.14 27.97 26.05 27.15 25.26
  A 0.45 0.45 0.0 0 0 26.39 25.58
  L 26.39 27.59
  A 0.61 0.61 0.0 0 1 25.75 28.20
  Q 16.87 27.72 16.94 36.73
  C 16.97 41.33 17.70 45.38 22.78 46.01
  Q 22.91 46.02 25.86 46.09
  A 0.60 0.59 -89.5 0 1 26.44 46.69
  L 26.44 49.94
  A 1.04 1.03 0.0 0 0 27.48 50.97
  L 29.23 50.97
  A 0.51 0.50 4.4 0 1 29.73 51.55
  Q 29.59 52.49 29.65 52.77
  A 0.73 0.71 83.4 0 0 30.35 53.34
  L 42.20 53.35
  A 0.62 0.61 -0.0 0 0 42.82 52.74
  L 42.82 51.74
  A 0.67 0.66 -90.0 0 1 43.48 51.07
  L 44.33 51.07
  A 1.70 1.70 0.0 0 0 46.03 49.37
  L 46.03 36.76
  A 0.78 0.78 0.0 0 0 45.46 36.01
  Q 40.14 34.51 40.98 28.81
  A 0.55 0.55 0.0 0 0 40.24 28.22"
/>
<path stroke="#9999a1" vector-effect="non-scaling-stroke" d="
  M 26.38 43.11
  L 26.40 31.33
  A 0.31 0.31 0.0 0 0 26.09 31.02
  L 24.46 31.01
  A 4.71 4.62 -89.9 0 0 19.83 35.71
  L 19.83 38.69
  A 4.71 4.62 -89.9 0 0 24.44 43.41
  L 26.07 43.42
  A 0.31 0.31 0.0 0 0 26.38 43.11"
/>
<path stroke="#4c6285" vector-effect="non-scaling-stroke" d="
  M 24.99 41.37
  L 25.07 33.17
  A 0.25 0.25 0.0 0 0 24.83 32.92
  L 24.68 32.91
  A 2.94 2.80 0.6 0 0 21.71 35.68
  L 21.67 38.78
  A 2.94 2.80 0.6 0 0 24.58 41.61
  L 24.73 41.61
  A 0.25 0.25 0.0 0 0 24.99 41.37"
/>
</g>
<path fill="#2d4966" d="
  M 33.78 88.00
  L 33.04 88.00
  C 22.21 78.23 11.93 65.54 5.75 51.76
  Q 2.14 43.71 1.56 34.97
  C 0.25 15.37 17.05 -0.45 36.78 1.50
  C 52.36 3.04 65.21 16.03 65.45 31.84
  C 65.59 41.59 62.59 50.23 57.54 58.84
  Q 47.96 75.17 33.78 88.00
  Z
  M 33.39 86.73
  Q 33.49 86.73 33.63 86.60
  Q 47.38 74.00 56.59 58.33
  C 65.69 42.84 68.85 23.34 53.89 10.12
  C 48.53 5.38 41.18 2.46 33.53 2.44
  C 25.88 2.43 18.52 5.33 13.14 10.05
  C -1.86 23.22 1.23 42.73 10.28 58.25
  Q 19.44 73.95 33.14 86.60
  Q 33.29 86.73 33.39 86.73
  Z"
/>
<path fill="#6591c7" d="
  M 33.53 2.44
  C 41.18 2.46 48.53 5.38 53.89 10.12
  C 68.85 23.34 65.69 42.84 56.59 58.33
  Q 47.38 74.00 33.63 86.60
  Q 33.49 86.73 33.39 86.73
  Q 33.29 86.73 33.14 86.60
  Q 19.44 73.95 10.28 58.25
  C 1.23 42.73 -1.86 23.22 13.14 10.05
  C 18.52 5.33 25.88 2.43 33.53 2.44
  Z
  M 27.00 23.53
  L 25.53 23.53
  A 0.50 0.49 -2.6 0 0 25.03 24.07
  Q 25.15 25.36 24.88 26.07
  A 0.93 0.93 0.0 0 1 24.04 26.67
  Q 18.83 26.84 16.51 31.40
  C 15.35 33.69 15.66 38.37 15.77 40.51
  A 3.35 3.10 37.1 0 0 15.91 41.30
  Q 17.85 47.79 24.32 47.74
  A 0.66 0.66 0.0 0 1 24.99 48.37
  C 25.08 50.16 25.41 51.41 27.51 52.58
  Q 28.42 53.09 28.12 54.16
  A 0.65 0.65 0.0 0 0 28.75 54.98
  L 44.01 54.98
  A 0.73 0.72 90.0 0 0 44.73 54.25
  L 44.73 53.01
  A 0.69 0.67 -2.8 0 1 45.35 52.34
  Q 47.98 52.07 47.97 47.75
  Q 47.97 46.03 47.97 36.11
  C 47.97 35.56 48.30 35.23 48.75 34.99
  C 51.46 33.51 51.92 30.64 50.61 27.84
  A 1.53 1.49 -54.0 0 1 50.48 26.93
  Q 50.55 26.52 50.95 25.47
  C 51.75 23.35 51.26 21.48 49.34 20.04
  A 1.34 1.32 16.4 0 1 48.81 19.09
  Q 48.40 14.55 44.31 14.07
  C 41.93 13.80 39.58 14.77 38.95 17.18
  A 2.76 2.66 -70.1 0 1 35.19 19.03
  C 31.45 17.23 28.31 19.00 27.49 23.12
  A 0.51 0.50 -84.4 0 1 27.00 23.53
  Z"
/>
<path fill="#323242" d="
  M 27.49 23.12
  C 28.31 19.00 31.45 17.23 35.19 19.03
  A 2.76 2.66 -70.1 0 0 38.95 17.18
  C 39.58 14.77 41.93 13.80 44.31 14.07
  Q 48.40 14.55 48.81 19.09
  A 1.34 1.32 16.4 0 0 49.34 20.04
  C 51.26 21.48 51.75 23.35 50.95 25.47
  Q 50.55 26.52 50.48 26.93
  A 1.53 1.49 -54.0 0 0 50.61 27.84
  C 51.92 30.64 51.46 33.51 48.75 34.99
  C 48.30 35.23 47.97 35.56 47.97 36.11
  Q 47.97 46.03 47.97 47.75
  Q 47.98 52.07 45.35 52.34
  A 0.69 0.67 -2.8 0 0 44.73 53.01
  L 44.73 54.25
  A 0.73 0.72 -90.0 0 1 44.01 54.98
  L 28.75 54.98
  A 0.65 0.65 0.0 0 1 28.12 54.16
  Q 28.42 53.09 27.51 52.58
  C 25.41 51.41 25.08 50.16 24.99 48.37
  A 0.66 0.66 0.0 0 0 24.32 47.74
  Q 17.85 47.79 15.91 41.30
  A 3.35 3.10 37.1 0 1 15.77 40.51
  C 15.66 38.37 15.35 33.69 16.51 31.40
  Q 18.83 26.84 24.04 26.67
  A 0.93 0.93 0.0 0 0 24.88 26.07
  Q 25.15 25.36 25.03 24.07
  A 0.50 0.49 -2.6 0 1 25.53 23.53
  L 27.00 23.53
  A 0.51 0.50 -84.4 0 0 27.49 23.12
  Z
  M 48.03 26.93
  Q 50.55 24.47 48.83 22.13
  C 48.37 21.50 47.73 21.33 47.20 20.93
  A 0.97 0.96 20.6 0 1 46.81 20.08
  C 47.15 14.29 39.68 14.37 39.97 19.89
  A 0.46 0.46 0.0 0 1 39.35 20.35
  Q 37.38 19.62 35.90 21.41
  A 0.53 0.53 0.0 0 1 35.15 21.47
  Q 34.44 20.84 33.26 20.40
  C 30.83 19.50 28.62 21.97 29.19 24.26
  Q 30.02 27.55 33.14 27.02
  A 2.03 2.02 17.3 0 0 34.25 26.44
  L 34.83 25.84
  A 0.75 0.74 41.8 0 1 35.85 25.79
  Q 39.14 28.62 41.91 24.69
  A 0.46 0.46 0.0 0 1 42.72 24.80
  Q 43.19 26.17 44.15 26.87
  A 0.54 0.54 0.0 0 1 44.16 27.74
  Q 41.76 29.48 42.61 31.62
  C 44.78 37.08 52.69 32.14 48.05 27.90
  A 0.67 0.67 0.0 0 1 48.03 26.93
  Z
  M 40.24 28.22
  Q 37.84 29.14 36.28 28.19
  A 1.57 1.56 44.1 0 0 34.62 28.21
  Q 31.99 29.90 29.29 27.93
  C 28.20 27.14 27.97 26.05 27.15 25.26
  A 0.45 0.45 0.0 0 0 26.39 25.58
  L 26.39 27.59
  A 0.61 0.61 0.0 0 1 25.75 28.20
  Q 16.87 27.72 16.94 36.73
  C 16.97 41.33 17.70 45.38 22.78 46.01
  Q 22.91 46.02 25.86 46.09
  A 0.60 0.59 -89.5 0 1 26.44 46.69
  L 26.44 49.94
  A 1.04 1.03 0.0 0 0 27.48 50.97
  L 29.23 50.97
  A 0.51 0.50 4.4 0 1 29.73 51.55
  Q 29.59 52.49 29.65 52.77
  A 0.73 0.71 83.4 0 0 30.35 53.34
  L 42.20 53.35
  A 0.62 0.61 -0.0 0 0 42.82 52.74
  L 42.82 51.74
  A 0.67 0.66 -90.0 0 1 43.48 51.07
  L 44.33 51.07
  A 1.70 1.70 0.0 0 0 46.03 49.37
  L 46.03 36.76
  A 0.78 0.78 0.0 0 0 45.46 36.01
  Q 40.14 34.51 40.98 28.81
  A 0.55 0.55 0.0 0 0 40.24 28.22
  Z"
/>
<path fill="#ffffff" d="
  M 48.05 27.90
  C 52.69 32.14 44.78 37.08 42.61 31.62
  Q 41.76 29.48 44.16 27.74
  A 0.54 0.54 0.0 0 0 44.15 26.87
  Q 43.19 26.17 42.72 24.80
  A 0.46 0.46 0.0 0 0 41.91 24.69
  Q 39.14 28.62 35.85 25.79
  A 0.75 0.74 41.8 0 0 34.83 25.84
  L 34.25 26.44
  A 2.03 2.02 17.3 0 1 33.14 27.02
  Q 30.02 27.55 29.19 24.26
  C 28.62 21.97 30.83 19.50 33.26 20.40
  Q 34.44 20.84 35.15 21.47
  A 0.53 0.53 0.0 0 0 35.90 21.41
  Q 37.38 19.62 39.35 20.35
  A 0.46 0.46 0.0 0 0 39.97 19.89
  C 39.68 14.37 47.15 14.29 46.81 20.08
  A 0.97 0.96 20.6 0 0 47.20 20.93
  C 47.73 21.33 48.37 21.50 48.83 22.13
  Q 50.55 24.47 48.03 26.93
  A 0.67 0.67 0.0 0 0 48.05 27.90
  Z"
/>
<path fill="#ffffff" d="
  M 40.98 28.81
  Q 40.14 34.51 45.46 36.01
  A 0.78 0.78 0.0 0 1 46.03 36.76
  L 46.03 49.37
  A 1.70 1.70 0.0 0 1 44.33 51.07
  L 43.48 51.07
  A 0.67 0.66 -90.0 0 0 42.82 51.74
  L 42.82 52.74
  A 0.62 0.61 -0.0 0 1 42.20 53.35
  L 30.35 53.34
  A 0.73 0.71 83.4 0 1 29.65 52.77
  Q 29.59 52.49 29.73 51.55
  A 0.51 0.50 4.4 0 0 29.23 50.97
  L 27.48 50.97
  A 1.04 1.03 0.0 0 1 26.44 49.94
  L 26.44 46.69
  A 0.60 0.59 -89.5 0 0 25.86 46.09
  Q 22.91 46.02 22.78 46.01
  C 17.70 45.38 16.97 41.33 16.94 36.73
  Q 16.87 27.72 25.75 28.20
  A 0.61 0.61 0.0 0 0 26.39 27.59
  L 26.39 25.58
  A 0.45 0.45 0.0 0 1 27.15 25.26
  C 27.97 26.05 28.20 27.14 29.29 27.93
  Q 31.99 29.90 34.62 28.21
  A 1.57 1.56 44.1 0 1 36.28 28.19
  Q 37.84 29.14 40.24 28.22
  A 0.55 0.55 0.0 0 1 40.98 28.81
  Z
  M 26.38 43.11
  L 26.40 31.33
  A 0.31 0.31 0.0 0 0 26.09 31.02
  L 24.46 31.01
  A 4.71 4.62 -89.9 0 0 19.83 35.71
  L 19.83 38.69
  A 4.71 4.62 -89.9 0 0 24.44 43.41
  L 26.07 43.42
  A 0.31 0.31 0.0 0 0 26.38 43.11
  Z"
/>
<path fill="#323242" d="
  M 26.38 43.11
  A 0.31 0.31 0.0 0 1 26.07 43.42
  L 24.44 43.41
  A 4.71 4.62 -89.9 0 1 19.83 38.69
  L 19.83 35.71
  A 4.71 4.62 -89.9 0 1 24.46 31.01
  L 26.09 31.02
  A 0.31 0.31 0.0 0 1 26.40 31.33
  L 26.38 43.11
  Z
  M 24.99 41.37
  L 25.07 33.17
  A 0.25 0.25 0.0 0 0 24.83 32.92
  L 24.68 32.91
  A 2.94 2.80 0.6 0 0 21.71 35.68
  L 21.67 38.78
  A 2.94 2.80 0.6 0 0 24.58 41.61
  L 24.73 41.61
  A 0.25 0.25 0.0 0 0 24.99 41.37
  Z"
/>
<path fill="#6591c7" d="
  M 24.99 41.37
  A 0.25 0.25 0.0 0 1 24.73 41.61
  L 24.58 41.61
  A 2.94 2.80 0.6 0 1 21.67 38.78
  L 21.71 35.68
  A 2.94 2.80 0.6 0 1 24.68 32.91
  L 24.83 32.92
  A 0.25 0.25 0.0 0 1 25.07 33.17
  L 24.99 41.37
  Z"
/>
</svg>
