<?xml version="1.0" encoding="UTF-8" standalone="no"?>
<!DOCTYPE svg PUBLIC "-//W3C//DTD SVG 1.1//EN" "http://www.w3.org/Graphics/SVG/1.1/DTD/svg11.dtd">
<svg xmlns="http://www.w3.org/2000/svg" version="1.1" viewBox="0.00 0.00 66.00 88.00">
<g stroke-width="2.00" fill="none" stroke-linecap="butt">
<path stroke="#496d97" vector-effect="non-scaling-stroke" d="
  M 33.39 86.73
  Q 33.50 86.73 33.60 86.70
  Q 33.69 86.68 33.78 86.60
  Q 47.24 73.98 56.33 58.80
  C 65.15 44.05 68.69 25.52 55.91 12.10
  C 50.13 6.02 42.11 2.46 33.52 2.45
  C 24.93 2.43 16.90 5.97 11.10 12.02
  C -1.72 25.41 1.76 43.95 10.54 58.73
  Q 19.58 73.94 33.00 86.60
  Q 33.09 86.68 33.17 86.70
  Q 33.28 86.73 33.39 86.73"
/>
<path stroke="#4c6285" vector-effect="non-scaling-stroke" d="
  M 32.19 22.71
  L 14.77 21.66
  A 3.07 3.07 0.0 0 0 11.53 24.53
  L 11.43 26.10
  A 2.63 2.63 0.0 0 0 13.90 28.89
  L 31.63 29.95
  A 0.52 0.52 0.0 0 1 32.12 30.48
  L 32.03 35.60
  A 2.78 2.75 -55.5 0 0 32.22 36.66
  C 33.15 39.34 38.35 39.06 40.37 38.10
  A 2.21 2.21 0.0 0 0 41.63 36.24
  L 42.69 18.60
  A 2.61 2.61 0.0 0 0 40.87 15.96
  Q 37.55 14.93 34.87 15.83
  A 2.62 2.62 0.0 0 0 33.09 18.15
  L 32.85 22.12
  A 0.63 0.63 0.0 0 1 32.19 22.71"
/>
<path stroke="#4c6285" vector-effect="non-scaling-stroke" d="
  M 36.44 46.74
  Q 36.66 46.74 36.83 46.90
  Q 43.04 52.59 43.31 52.88
  A 2.03 2.02 -21.5 0 0 44.79 53.52
  L 54.39 53.55
  A 0.56 0.56 0.0 0 0 54.96 52.99
  L 54.96 48.77
  A 0.59 0.59 0.0 0 0 54.37 48.18
  L 46.06 48.18
  A 1.53 1.50 -23.4 0 1 45.04 47.79
  Q 41.41 44.54 37.46 40.78
  Q 36.86 40.21 36.46 40.21
  Q 36.05 40.21 35.45 40.78
  Q 31.48 44.52 27.84 47.75
  A 1.53 1.50 23.6 0 1 26.82 48.14
  L 18.51 48.10
  A 0.59 0.59 0.0 0 0 17.91 48.69
  L 17.90 52.91
  A 0.56 0.56 0.0 0 0 18.46 53.47
  L 28.06 53.48
  A 2.03 2.02 21.8 0 0 29.55 52.85
  Q 29.82 52.56 36.05 46.89
  Q 36.22 46.74 36.44 46.74"
/>
<path stroke="#9999a1" vector-effect="non-scaling-stroke" d="
  M 33.83 28.90
  L 33.47 34.93
  A 2.07 2.07 0.0 0 0 35.41 37.13
  L 37.94 37.28
  A 2.15 2.14 -86.5 0 0 40.21 35.26
  L 41.17 19.24
  A 2.11 2.11 0.0 0 0 39.19 17.00
  L 36.60 16.85
  A 1.96 1.96 0.0 0 0 34.52 18.69
  L 34.22 23.68
  A 0.67 0.67 0.0 0 1 33.51 24.31
  L 14.36 23.16
  A 1.21 1.21 0.0 0 0 13.08 24.30
  L 12.97 26.21
  A 1.06 1.06 0.0 0 0 13.97 27.34
  L 33.48 28.52
  A 0.37 0.36 3.1 0 1 33.83 28.90"
/>
<path stroke="#9999a1" vector-effect="non-scaling-stroke" d="
  M 36.47 44.70
  Q 36.79 44.70 37.02 44.92
  Q 40.71 48.44 44.36 51.70
  A 1.39 1.36 65.1 0 0 45.26 52.04
  L 52.70 52.04
  A 0.85 0.84 90.0 0 0 53.54 51.19
  L 53.54 50.81
  A 0.99 0.98 -90.0 0 0 52.56 49.82
  L 45.59 49.82
  A 1.94 1.93 67.6 0 1 44.21 49.24
  Q 42.91 47.90 36.79 42.17
  Q 36.71 42.09 36.47 42.09
  Q 36.23 42.09 36.15 42.17
  Q 30.01 47.87 28.70 49.20
  A 1.94 1.93 -67.4 0 1 27.32 49.78
  L 20.35 49.74
  A 0.99 0.98 -89.7 0 0 19.36 50.73
  L 19.36 51.11
  A 0.85 0.84 -89.7 0 0 20.20 51.96
  L 27.64 52.00
  A 1.39 1.36 -64.8 0 0 28.54 51.66
  Q 32.20 48.42 35.91 44.91
  Q 36.14 44.70 36.47 44.70"
/>
</g>
<path fill="#2d4966" d="
  M 33.79 88.00
  L 33.04 88.00
  C 21.75 77.75 12.09 65.63 5.64 51.56
  Q 2.20 44.05 1.59 34.89
  C 0.53 18.88 11.34 5.54 26.73 2.05
  Q 36.75 -0.21 46.82 4.21
  Q 57.52 8.91 62.85 20.27
  C 66.64 28.36 65.96 38.65 63.06 47.03
  C 57.65 62.62 45.90 77.01 33.79 88.00
  Z
  M 33.39 86.73
  Q 33.50 86.73 33.60 86.70
  Q 33.69 86.68 33.78 86.60
  Q 47.24 73.98 56.33 58.80
  C 65.15 44.05 68.69 25.52 55.91 12.10
  C 50.13 6.02 42.11 2.46 33.52 2.45
  C 24.93 2.43 16.90 5.97 11.10 12.02
  C -1.72 25.41 1.76 43.95 10.54 58.73
  Q 19.58 73.94 33.00 86.60
  Q 33.09 86.68 33.17 86.70
  Q 33.28 86.73 33.39 86.73
  Z"
/>
<path fill="#6591c7" d="
  M 33.52 2.45
  C 42.11 2.46 50.13 6.02 55.91 12.10
  C 68.69 25.52 65.15 44.05 56.33 58.80
  Q 47.24 73.98 33.78 86.60
  Q 33.69 86.68 33.60 86.70
  Q 33.50 86.73 33.39 86.73
  Q 33.28 86.73 33.17 86.70
  Q 33.09 86.68 33.00 86.60
  Q 19.58 73.94 10.54 58.73
  C 1.76 43.95 -1.72 25.41 11.10 12.02
  C 16.90 5.97 24.93 2.43 33.52 2.45
  Z
  M 32.19 22.71
  L 14.77 21.66
  A 3.07 3.07 0.0 0 0 11.53 24.53
  L 11.43 26.10
  A 2.63 2.63 0.0 0 0 13.90 28.89
  L 31.63 29.95
  A 0.52 0.52 0.0 0 1 32.12 30.48
  L 32.03 35.60
  A 2.78 2.75 -55.5 0 0 32.22 36.66
  C 33.15 39.34 38.35 39.06 40.37 38.10
  A 2.21 2.21 0.0 0 0 41.63 36.24
  L 42.69 18.60
  A 2.61 2.61 0.0 0 0 40.87 15.96
  Q 37.55 14.93 34.87 15.83
  A 2.62 2.62 0.0 0 0 33.09 18.15
  L 32.85 22.12
  A 0.63 0.63 0.0 0 1 32.19 22.71
  Z
  M 36.44 46.74
  Q 36.66 46.74 36.83 46.90
  Q 43.04 52.59 43.31 52.88
  A 2.03 2.02 -21.5 0 0 44.79 53.52
  L 54.39 53.55
  A 0.56 0.56 0.0 0 0 54.96 52.99
  L 54.96 48.77
  A 0.59 0.59 0.0 0 0 54.37 48.18
  L 46.06 48.18
  A 1.53 1.50 -23.4 0 1 45.04 47.79
  Q 41.41 44.54 37.46 40.78
  Q 36.86 40.21 36.46 40.21
  Q 36.05 40.21 35.45 40.78
  Q 31.48 44.52 27.84 47.75
  A 1.53 1.50 23.6 0 1 26.82 48.14
  L 18.51 48.10
  A 0.59 0.59 0.0 0 0 17.91 48.69
  L 17.90 52.91
  A 0.56 0.56 0.0 0 0 18.46 53.47
  L 28.06 53.48
  A 2.03 2.02 21.8 0 0 29.55 52.85
  Q 29.82 52.56 36.05 46.89
  Q 36.22 46.74 36.44 46.74
  Z"
/>
<path fill="#333342" d="
  M 32.85 22.12
  L 33.09 18.15
  A 2.62 2.62 0.0 0 1 34.87 15.83
  Q 37.55 14.93 40.87 15.96
  A 2.61 2.61 0.0 0 1 42.69 18.60
  L 41.63 36.24
  A 2.21 2.21 0.0 0 1 40.37 38.10
  C 38.35 39.06 33.15 39.34 32.22 36.66
  A 2.78 2.75 -55.5 0 1 32.03 35.60
  L 32.12 30.48
  A 0.52 0.52 0.0 0 0 31.63 29.95
  L 13.90 28.89
  A 2.63 2.63 0.0 0 1 11.43 26.10
  L 11.53 24.53
  A 3.07 3.07 0.0 0 1 14.77 21.66
  L 32.19 22.71
  A 0.63 0.63 0.0 0 0 32.85 22.12
  Z
  M 33.83 28.90
  L 33.47 34.93
  A 2.07 2.07 0.0 0 0 35.41 37.13
  L 37.94 37.28
  A 2.15 2.14 -86.5 0 0 40.21 35.26
  L 41.17 19.24
  A 2.11 2.11 0.0 0 0 39.19 17.00
  L 36.60 16.85
  A 1.96 1.96 0.0 0 0 34.52 18.69
  L 34.22 23.68
  A 0.67 0.67 0.0 0 1 33.51 24.31
  L 14.36 23.16
  A 1.21 1.21 0.0 0 0 13.08 24.30
  L 12.97 26.21
  A 1.06 1.06 0.0 0 0 13.97 27.34
  L 33.48 28.52
  A 0.37 0.36 3.1 0 1 33.83 28.90
  Z"
/>
<path fill="#ffffff" d="
  M 33.83 28.90
  A 0.37 0.36 3.1 0 0 33.48 28.52
  L 13.97 27.34
  A 1.06 1.06 0.0 0 1 12.97 26.21
  L 13.08 24.30
  A 1.21 1.21 0.0 0 1 14.36 23.16
  L 33.51 24.31
  A 0.67 0.67 0.0 0 0 34.22 23.68
  L 34.52 18.69
  A 1.96 1.96 0.0 0 1 36.60 16.85
  L 39.19 17.00
  A 2.11 2.11 0.0 0 1 41.17 19.24
  L 40.21 35.26
  A 2.15 2.14 -86.5 0 1 37.94 37.28
  L 35.41 37.13
  A 2.07 2.07 0.0 0 1 33.47 34.93
  L 33.83 28.90
  Z"
/>
<path fill="#333342" d="
  M 36.46 40.21
  Q 36.86 40.21 37.46 40.78
  Q 41.41 44.54 45.04 47.79
  A 1.53 1.50 -23.4 0 0 46.06 48.18
  L 54.37 48.18
  A 0.59 0.59 0.0 0 1 54.96 48.77
  L 54.96 52.99
  A 0.56 0.56 0.0 0 1 54.39 53.55
  L 44.79 53.52
  A 2.03 2.02 -21.5 0 1 43.31 52.88
  Q 43.04 52.59 36.83 46.90
  Q 36.66 46.74 36.44 46.74
  Q 36.22 46.74 36.05 46.89
  Q 29.82 52.56 29.55 52.85
  A 2.03 2.02 21.8 0 1 28.06 53.48
  L 18.46 53.47
  A 0.56 0.56 0.0 0 1 17.90 52.91
  L 17.91 48.69
  A 0.59 0.59 0.0 0 1 18.51 48.10
  L 26.82 48.14
  A 1.53 1.50 23.6 0 0 27.84 47.75
  Q 31.48 44.52 35.45 40.78
  Q 36.05 40.21 36.46 40.21
  Z
  M 36.47 44.70
  Q 36.79 44.70 37.02 44.92
  Q 40.71 48.44 44.36 51.70
  A 1.39 1.36 65.1 0 0 45.26 52.04
  L 52.70 52.04
  A 0.85 0.84 90.0 0 0 53.54 51.19
  L 53.54 50.81
  A 0.99 0.98 -90.0 0 0 52.56 49.82
  L 45.59 49.82
  A 1.94 1.93 67.6 0 1 44.21 49.24
  Q 42.91 47.90 36.79 42.17
  Q 36.71 42.09 36.47 42.09
  Q 36.23 42.09 36.15 42.17
  Q 30.01 47.87 28.70 49.20
  A 1.94 1.93 -67.4 0 1 27.32 49.78
  L 20.35 49.74
  A 0.99 0.98 -89.7 0 0 19.36 50.73
  L 19.36 51.11
  A 0.85 0.84 -89.7 0 0 20.20 51.96
  L 27.64 52.00
  A 1.39 1.36 -64.8 0 0 28.54 51.66
  Q 32.20 48.42 35.91 44.91
  Q 36.14 44.70 36.47 44.70
  Z"
/>
<path fill="#ffffff" d="
  M 36.47 44.70
  Q 36.14 44.70 35.91 44.91
  Q 32.20 48.42 28.54 51.66
  A 1.39 1.36 -64.8 0 1 27.64 52.00
  L 20.20 51.96
  A 0.85 0.84 -89.7 0 1 19.36 51.11
  L 19.36 50.73
  A 0.99 0.98 -89.7 0 1 20.35 49.74
  L 27.32 49.78
  A 1.94 1.93 -67.4 0 0 28.70 49.20
  Q 30.01 47.87 36.15 42.17
  Q 36.23 42.09 36.47 42.09
  Q 36.71 42.09 36.79 42.17
  Q 42.91 47.90 44.21 49.24
  A 1.94 1.93 67.6 0 0 45.59 49.82
  L 52.56 49.82
  A 0.99 0.98 90.0 0 1 53.54 50.81
  L 53.54 51.19
  A 0.85 0.84 -90.0 0 1 52.70 52.04
  L 45.26 52.04
  A 1.39 1.36 65.1 0 1 44.36 51.70
  Q 40.71 48.44 37.02 44.92
  Q 36.79 44.70 36.47 44.70
  Z"
/>
</svg>
