<?xml version="1.0" encoding="UTF-8" standalone="no"?>
<!DOCTYPE svg PUBLIC "-//W3C//DTD SVG 1.1//EN" "http://www.w3.org/Graphics/SVG/1.1/DTD/svg11.dtd">
<svg xmlns="http://www.w3.org/2000/svg" version="1.1" viewBox="0.00 0.00 66.00 88.00">
<g stroke-width="2.00" fill="none" stroke-linecap="butt">
<path stroke="#947705" vector-effect="non-scaling-stroke" d="
  M 33.41 86.74
  Q 33.54 86.74 33.67 86.62
  Q 46.62 74.62 55.72 59.78
  Q 62.05 49.46 63.81 38.76
  C 66.99 19.42 53.29 3.01 33.75 2.46
  Q 33.64 2.45 33.53 2.45
  Q 33.42 2.45 33.30 2.46
  C 13.76 2.96 0.02 19.33 3.14 38.68
  Q 4.87 49.38 11.18 59.72
  Q 20.24 74.58 33.16 86.62
  Q 33.29 86.74 33.41 86.74"
/>
<path stroke="#7c6925" vector-effect="non-scaling-stroke" d="
  M 51.75 54.52
  A 0.54 0.54 0.0 0 0 52.29 53.98
  L 52.29 14.35
  A 0.54 0.54 0.0 0 0 51.75 13.81
  L 23.58 13.81
  A 0.54 0.54 0.0 0 0 23.13 14.05
  L 14.73 26.66
  A 0.54 0.54 0.0 0 0 14.73 27.26
  L 23.23 39.99
  A 0.54 0.54 0.0 0 0 23.68 40.23
  L 45.67 40.23
  A 0.54 0.54 0.0 0 1 46.21 40.77
  L 46.21 53.98
  A 0.54 0.54 0.0 0 0 46.75 54.52
  L 51.75 54.52"
/>
<path stroke="#75757f" vector-effect="non-scaling-stroke" d="
  M 46.55 36.82
  Q 47.11 33.94 46.51 31.20"
/>
<path stroke="#9a9aa2" vector-effect="non-scaling-stroke" d="
  M 46.51 31.20
  L 46.62 16.63
  A 0.87 0.87 0.0 0 0 45.75 15.75
  L 25.11 15.75
  A 1.31 1.29 -72.8 0 0 24.03 16.33
  L 17.58 26.00
  A 1.82 1.80 -45.2 0 0 17.58 28.01
  L 24.48 38.35
  A 1.03 1.01 -16.5 0 0 25.33 38.80
  L 45.74 38.80
  A 0.73 0.71 -81.0 0 0 46.42 38.29
  Q 46.63 37.59 46.55 36.82"
/>
<path stroke="#dbdbdd" vector-effect="non-scaling-stroke" d="
  M 46.51 31.20
  Q 45.91 31.13 45.34 31.28"
/>
<path stroke="#9a9aa2" vector-effect="non-scaling-stroke" d="
  M 45.34 31.28
  Q 45.59 30.80 45.32 30.43
  A 0.39 0.37 -15.8 0 0 45.00 30.26
  L 39.07 30.26
  A 0.31 0.30 0.0 0 0 38.76 30.56
  L 38.76 36.91
  A 0.26 0.26 0.0 0 0 39.02 37.17
  L 45.37 37.08"
/>
<path stroke="#dbdbdd" vector-effect="non-scaling-stroke" d="
  M 45.37 37.08
  Q 45.37 36.73 46.55 36.82"
/>
<path stroke="#75757f" vector-effect="non-scaling-stroke" d="
  M 45.34 31.28
  L 45.37 37.08"
/>
<path stroke="#9a9aa2" vector-effect="non-scaling-stroke" d="
  M 50.79 16.13
  A 0.41 0.41 0.0 0 0 50.38 15.72
  L 48.32 15.72
  A 0.41 0.41 0.0 0 0 47.91 16.13
  L 47.91 51.83
  A 0.41 0.41 0.0 0 0 48.32 52.24
  L 50.38 52.24
  A 0.41 0.41 0.0 0 0 50.79 51.83
  L 50.79 16.13"
/>
<path stroke="#9a9aa2" vector-effect="non-scaling-stroke" d="
  M 25.00 23.47
  L 21.21 23.50
  A 1.30 1.29 -73.1 0 0 20.16 24.07
  L 18.64 26.35
  A 0.90 0.90 0.0 0 0 18.64 27.33
  L 20.24 29.72
  A 1.18 1.18 0.0 0 0 21.22 30.24
  L 24.31 30.24
  A 0.59 0.59 0.0 0 0 24.90 29.66
  L 25.00 23.47"
/>
<path stroke="#9a9aa2" vector-effect="non-scaling-stroke" d="
  M 25.00 23.47
  L 31.40 23.45
  A 0.58 0.58 0.0 0 0 31.98 22.87
  L 31.98 17.30
  A 0.28 0.28 0.0 0 0 31.70 17.02
  L 25.29 17.02
  A 0.29 0.29 0.0 0 0 25.00 17.30
  L 25.00 23.47"
/>
<path stroke="#9a9aa2" vector-effect="non-scaling-stroke" d="
  M 45.4103 17.3116
  A 0.28 0.28 0.0 0 0 45.1313 17.0307
  L 39.0313 17.0094
  A 0.28 0.28 0.0 0 0 38.7504 17.2884
  L 38.7297 23.2084
  A 0.28 0.28 0.0 0 0 39.0087 23.4893
  L 45.1087 23.5106
  A 0.28 0.28 0.0 0 0 45.3896 23.2316
  L 45.4103 17.3116"
/>
<path stroke="#9a9aa2" vector-effect="non-scaling-stroke" d="
  M 38.7249 23.9341
  A 0.42 0.42 0.0 0 0 38.3041 23.5149
  L 32.4241 23.5251
  A 0.42 0.42 0.0 0 0 32.0049 23.9459
  L 32.0151 29.8259
  A 0.42 0.42 0.0 0 0 32.4359 30.2451
  L 38.3159 30.2349
  A 0.42 0.42 0.0 0 0 38.7351 29.8141
  L 38.7249 23.9341"
/>
<path stroke="#9a9aa2" vector-effect="non-scaling-stroke" d="
  M 31.9589 30.5179
  A 0.29 0.29 0.0 0 0 31.6679 30.2289
  L 25.3079 30.2511
  A 0.29 0.29 0.0 0 0 25.0189 30.5421
  L 25.0411 36.9021
  A 0.29 0.29 0.0 0 0 25.3321 37.1911
  L 31.6921 37.1689
  A 0.29 0.29 0.0 0 0 31.9811 36.8779
  L 31.9589 30.5179"
/>
<path stroke="#7c6925" vector-effect="non-scaling-stroke" d="
  M 30.0574 19.2635
  A 0.60 0.60 0.0 0 0 29.4626 18.6583
  L 27.5827 18.6419
  A 0.60 0.60 0.0 0 0 26.9775 19.2366
  L 26.9626 20.9365
  A 0.60 0.60 0.0 0 0 27.5574 21.5417
  L 29.4373 21.5581
  A 0.60 0.60 0.0 0 0 30.0425 20.9634
  L 30.0574 19.2635"
/>
<path stroke="#7c6925" vector-effect="non-scaling-stroke" d="
  M 43.2609 19.4019
  A 0.64 0.64 0.0 0 0 42.6390 18.7443
  L 40.9397 18.6968
  A 0.64 0.64 0.0 0 0 40.2821 19.3187
  L 40.2391 20.8581
  A 0.64 0.64 0.0 0 0 40.8610 21.5157
  L 42.5603 21.5632
  A 0.64 0.64 0.0 0 0 43.2179 20.9413
  L 43.2609 19.4019"
/>
<path stroke="#7c6925" vector-effect="non-scaling-stroke" d="
  M 23.46 28.31
  L 23.56 26.24
  A 0.50 0.50 0.0 0 0 23.08 25.71
  L 22.84 25.70
  A 1.96 1.37 2.8 0 0 20.82 26.97
  L 20.80 27.31
  A 1.96 1.37 2.8 0 0 22.69 28.78
  L 22.93 28.79
  A 0.50 0.50 0.0 0 0 23.46 28.31"
/>
<path stroke="#7c6925" vector-effect="non-scaling-stroke" d="
  M 36.4915 26.4224
  A 0.68 0.68 0.0 0 0 35.8127 25.7413
  L 34.3727 25.7387
  A 0.68 0.68 0.0 0 0 33.6915 26.4176
  L 33.6885 28.1576
  A 0.68 0.68 0.0 0 0 34.3673 28.8387
  L 35.8073 28.8413
  A 0.68 0.68 0.0 0 0 36.4885 28.1624
  L 36.4915 26.4224"
/>
<path stroke="#7c6925" vector-effect="non-scaling-stroke" d="
  M 30.0678 33.1151
  A 0.62 0.62 0.0 0 0 29.4620 32.4812
  L 27.6225 32.4395
  A 0.62 0.62 0.0 0 0 26.9885 33.0453
  L 26.9522 34.6449
  A 0.62 0.62 0.0 0 0 27.5580 35.2788
  L 29.3975 35.3205
  A 0.62 0.62 0.0 0 0 30.0315 34.7147
  L 30.0678 33.1151"
/>
<path stroke="#7c6925" vector-effect="non-scaling-stroke" d="
  M 43.2805 33.1413
  A 0.66 0.66 0.0 0 0 42.6297 32.4721
  L 40.9099 32.4481
  A 0.66 0.66 0.0 0 0 40.2408 33.0989
  L 40.2195 34.6187
  A 0.66 0.66 0.0 0 0 40.8703 35.2879
  L 42.5901 35.3119
  A 0.66 0.66 0.0 0 0 43.2592 34.6611
  L 43.2805 33.1413"
/>
</g>
<path fill="#644f04" d="
  M 33.80 88.00
  L 33.03 88.00
  C 21.71 77.70 12.20 65.75 5.68 51.55
  Q 2.12 43.81 1.58 34.90
  Q 1.04 25.97 5.11 18.28
  C 10.90 7.36 22.68 0.62 35.42 1.38
  C 52.06 2.37 65.70 16.13 65.47 32.90
  Q 65.37 40.16 63.05 47.02
  C 57.80 62.53 45.80 77.10 33.80 88.00
  Z
  M 33.41 86.74
  Q 33.54 86.74 33.67 86.62
  Q 46.62 74.62 55.72 59.78
  Q 62.05 49.46 63.81 38.76
  C 66.99 19.42 53.29 3.01 33.75 2.46
  Q 33.64 2.45 33.53 2.45
  Q 33.42 2.45 33.30 2.46
  C 13.76 2.96 0.02 19.33 3.14 38.68
  Q 4.87 49.38 11.18 59.72
  Q 20.24 74.58 33.16 86.62
  Q 33.29 86.74 33.41 86.74
  Z"
/>
<path fill="#c49e06" d="
  M 33.53 2.45
  Q 33.64 2.45 33.75 2.46
  C 53.29 3.01 66.99 19.42 63.81 38.76
  Q 62.05 49.46 55.72 59.78
  Q 46.62 74.62 33.67 86.62
  Q 33.54 86.74 33.41 86.74
  Q 33.29 86.74 33.16 86.62
  Q 20.24 74.58 11.18 59.72
  Q 4.87 49.38 3.14 38.68
  C 0.02 19.33 13.76 2.96 33.30 2.46
  Q 33.42 2.45 33.53 2.45
  Z
  M 51.75 54.52
  A 0.54 0.54 0.0 0 0 52.29 53.98
  L 52.29 14.35
  A 0.54 0.54 0.0 0 0 51.75 13.81
  L 23.58 13.81
  A 0.54 0.54 0.0 0 0 23.13 14.05
  L 14.73 26.66
  A 0.54 0.54 0.0 0 0 14.73 27.26
  L 23.23 39.99
  A 0.54 0.54 0.0 0 0 23.68 40.23
  L 45.67 40.23
  A 0.54 0.54 0.0 0 1 46.21 40.77
  L 46.21 53.98
  A 0.54 0.54 0.0 0 0 46.75 54.52
  L 51.75 54.52
  Z"
/>
<path fill="#343444" d="
  M 51.75 54.52
  L 46.75 54.52
  A 0.54 0.54 0.0 0 1 46.21 53.98
  L 46.21 40.77
  A 0.54 0.54 0.0 0 0 45.67 40.23
  L 23.68 40.23
  A 0.54 0.54 0.0 0 1 23.23 39.99
  L 14.73 27.26
  A 0.54 0.54 0.0 0 1 14.73 26.66
  L 23.13 14.05
  A 0.54 0.54 0.0 0 1 23.58 13.81
  L 51.75 13.81
  A 0.54 0.54 0.0 0 1 52.29 14.35
  L 52.29 53.98
  A 0.54 0.54 0.0 0 1 51.75 54.52
  Z
  M 46.55 36.82
  Q 47.11 33.94 46.51 31.20
  L 46.62 16.63
  A 0.87 0.87 0.0 0 0 45.75 15.75
  L 25.11 15.75
  A 1.31 1.29 -72.8 0 0 24.03 16.33
  L 17.58 26.00
  A 1.82 1.80 -45.2 0 0 17.58 28.01
  L 24.48 38.35
  A 1.03 1.01 -16.5 0 0 25.33 38.80
  L 45.74 38.80
  A 0.73 0.71 -81.0 0 0 46.42 38.29
  Q 46.63 37.59 46.55 36.82
  Z
  M 50.79 16.13
  A 0.41 0.41 0.0 0 0 50.38 15.72
  L 48.32 15.72
  A 0.41 0.41 0.0 0 0 47.91 16.13
  L 47.91 51.83
  A 0.41 0.41 0.0 0 0 48.32 52.24
  L 50.38 52.24
  A 0.41 0.41 0.0 0 0 50.79 51.83
  L 50.79 16.13
  Z"
/>
<path fill="#ffffff" d="
  M 46.51 31.20
  Q 45.91 31.13 45.34 31.28
  Q 45.59 30.80 45.32 30.43
  A 0.39 0.37 -15.8 0 0 45.00 30.26
  L 39.07 30.26
  A 0.31 0.30 0.0 0 0 38.76 30.56
  L 38.76 36.91
  A 0.26 0.26 0.0 0 0 39.02 37.17
  L 45.37 37.08
  Q 45.37 36.73 46.55 36.82
  Q 46.63 37.59 46.42 38.29
  A 0.73 0.71 -81.0 0 1 45.74 38.80
  L 25.33 38.80
  A 1.03 1.01 -16.5 0 1 24.48 38.35
  L 17.58 28.01
  A 1.82 1.80 -45.2 0 1 17.58 26.00
  L 24.03 16.33
  A 1.31 1.29 -72.8 0 1 25.11 15.75
  L 45.75 15.75
  A 0.87 0.87 0.0 0 1 46.62 16.63
  L 46.51 31.20
  Z
  M 25.00 23.47
  L 21.21 23.50
  A 1.30 1.29 -73.1 0 0 20.16 24.07
  L 18.64 26.35
  A 0.90 0.90 0.0 0 0 18.64 27.33
  L 20.24 29.72
  A 1.18 1.18 0.0 0 0 21.22 30.24
  L 24.31 30.24
  A 0.59 0.59 0.0 0 0 24.90 29.66
  L 25.00 23.47
  L 31.40 23.45
  A 0.58 0.58 0.0 0 0 31.98 22.87
  L 31.98 17.30
  A 0.28 0.28 0.0 0 0 31.70 17.02
  L 25.29 17.02
  A 0.29 0.29 0.0 0 0 25.00 17.30
  L 25.00 23.47
  Z
  M 45.4103 17.3116
  A 0.28 0.28 0.0 0 0 45.1313 17.0307
  L 39.0313 17.0094
  A 0.28 0.28 0.0 0 0 38.7504 17.2884
  L 38.7297 23.2084
  A 0.28 0.28 0.0 0 0 39.0087 23.4893
  L 45.1087 23.5106
  A 0.28 0.28 0.0 0 0 45.3896 23.2316
  L 45.4103 17.3116
  Z
  M 38.7249 23.9341
  A 0.42 0.42 0.0 0 0 38.3041 23.5149
  L 32.4241 23.5251
  A 0.42 0.42 0.0 0 0 32.0049 23.9459
  L 32.0151 29.8259
  A 0.42 0.42 0.0 0 0 32.4359 30.2451
  L 38.3159 30.2349
  A 0.42 0.42 0.0 0 0 38.7351 29.8141
  L 38.7249 23.9341
  Z
  M 31.9589 30.5179
  A 0.29 0.29 0.0 0 0 31.6679 30.2289
  L 25.3079 30.2511
  A 0.29 0.29 0.0 0 0 25.0189 30.5421
  L 25.0411 36.9021
  A 0.29 0.29 0.0 0 0 25.3321 37.1911
  L 31.6921 37.1689
  A 0.29 0.29 0.0 0 0 31.9811 36.8779
  L 31.9589 30.5179
  Z"
/>
<rect fill="#ffffff" x="47.91" y="15.72" width="2.88" height="36.52" rx="0.41"/>
<path fill="#343444" d="
  M 25.00 23.47
  L 25.00 17.30
  A 0.29 0.29 0.0 0 1 25.29 17.02
  L 31.70 17.02
  A 0.28 0.28 0.0 0 1 31.98 17.30
  L 31.98 22.87
  A 0.58 0.58 0.0 0 1 31.40 23.45
  L 25.00 23.47
  Z
  M 30.0574 19.2635
  A 0.60 0.60 0.0 0 0 29.4626 18.6583
  L 27.5827 18.6419
  A 0.60 0.60 0.0 0 0 26.9775 19.2366
  L 26.9626 20.9365
  A 0.60 0.60 0.0 0 0 27.5574 21.5417
  L 29.4373 21.5581
  A 0.60 0.60 0.0 0 0 30.0425 20.9634
  L 30.0574 19.2635
  Z"
/>
<path fill="#343444" d="
  M 45.3896 23.2316
  A 0.28 0.28 0.0 0 1 45.1087 23.5106
  L 39.0087 23.4893
  A 0.28 0.28 0.0 0 1 38.7297 23.2084
  L 38.7504 17.2884
  A 0.28 0.28 0.0 0 1 39.0313 17.0094
  L 45.1313 17.0307
  A 0.28 0.28 0.0 0 1 45.4103 17.3116
  L 45.3896 23.2316
  Z
  M 43.2609 19.4019
  A 0.64 0.64 0.0 0 0 42.6390 18.7443
  L 40.9397 18.6968
  A 0.64 0.64 0.0 0 0 40.2821 19.3187
  L 40.2391 20.8581
  A 0.64 0.64 0.0 0 0 40.8610 21.5157
  L 42.5603 21.5632
  A 0.64 0.64 0.0 0 0 43.2179 20.9413
  L 43.2609 19.4019
  Z"
/>
<rect fill="#c49e06" x="-1.54" y="-1.45" transform="translate(28.51,20.10) rotate(0.5)" width="3.08" height="2.90" rx="0.60"/>
<rect fill="#c49e06" x="-1.49" y="-1.41" transform="translate(41.75,20.13) rotate(1.6)" width="2.98" height="2.82" rx="0.64"/>
<path fill="#343444" d="
  M 25.00 23.47
  L 24.90 29.66
  A 0.59 0.59 0.0 0 1 24.31 30.24
  L 21.22 30.24
  A 1.18 1.18 0.0 0 1 20.24 29.72
  L 18.64 27.33
  A 0.90 0.90 0.0 0 1 18.64 26.35
  L 20.16 24.07
  A 1.30 1.29 -73.1 0 1 21.21 23.50
  L 25.00 23.47
  Z
  M 23.46 28.31
  L 23.56 26.24
  A 0.50 0.50 0.0 0 0 23.08 25.71
  L 22.84 25.70
  A 1.96 1.37 2.8 0 0 20.82 26.97
  L 20.80 27.31
  A 1.96 1.37 2.8 0 0 22.69 28.78
  L 22.93 28.79
  A 0.50 0.50 0.0 0 0 23.46 28.31
  Z"
/>
<path fill="#343444" d="
  M 38.7351 29.8141
  A 0.42 0.42 0.0 0 1 38.3159 30.2349
  L 32.4359 30.2451
  A 0.42 0.42 0.0 0 1 32.0151 29.8259
  L 32.0049 23.9459
  A 0.42 0.42 0.0 0 1 32.4241 23.5251
  L 38.3041 23.5149
  A 0.42 0.42 0.0 0 1 38.7249 23.9341
  L 38.7351 29.8141
  Z
  M 36.4915 26.4224
  A 0.68 0.68 0.0 0 0 35.8127 25.7413
  L 34.3727 25.7387
  A 0.68 0.68 0.0 0 0 33.6915 26.4176
  L 33.6885 28.1576
  A 0.68 0.68 0.0 0 0 34.3673 28.8387
  L 35.8073 28.8413
  A 0.68 0.68 0.0 0 0 36.4885 28.1624
  L 36.4915 26.4224
  Z"
/>
<path fill="#c49e06" d="
  M 23.46 28.31
  A 0.50 0.50 0.0 0 1 22.93 28.79
  L 22.69 28.78
  A 1.96 1.37 2.8 0 1 20.80 27.31
  L 20.82 26.97
  A 1.96 1.37 2.8 0 1 22.84 25.70
  L 23.08 25.71
  A 0.50 0.50 0.0 0 1 23.56 26.24
  L 23.46 28.31
  Z"
/>
<rect fill="#c49e06" x="-1.40" y="-1.55" transform="translate(35.09,27.29) rotate(0.1)" width="2.80" height="3.10" rx="0.68"/>
<path fill="#343444" d="
  M 31.9811 36.8779
  A 0.29 0.29 0.0 0 1 31.6921 37.1689
  L 25.3321 37.1911
  A 0.29 0.29 0.0 0 1 25.0411 36.9021
  L 25.0189 30.5421
  A 0.29 0.29 0.0 0 1 25.3079 30.2511
  L 31.6679 30.2289
  A 0.29 0.29 0.0 0 1 31.9589 30.5179
  L 31.9811 36.8779
  Z
  M 30.0678 33.1151
  A 0.62 0.62 0.0 0 0 29.4620 32.4812
  L 27.6225 32.4395
  A 0.62 0.62 0.0 0 0 26.9885 33.0453
  L 26.9522 34.6449
  A 0.62 0.62 0.0 0 0 27.5580 35.2788
  L 29.3975 35.3205
  A 0.62 0.62 0.0 0 0 30.0315 34.7147
  L 30.0678 33.1151
  Z"
/>
<path fill="#343444" d="
  M 45.34 31.28
  L 45.37 37.08
  L 39.02 37.17
  A 0.26 0.26 0.0 0 1 38.76 36.91
  L 38.76 30.56
  A 0.31 0.30 -0.0 0 1 39.07 30.26
  L 45.00 30.26
  A 0.39 0.37 -15.8 0 1 45.32 30.43
  Q 45.59 30.80 45.34 31.28
  Z
  M 43.2805 33.1413
  A 0.66 0.66 0.0 0 0 42.6297 32.4721
  L 40.9099 32.4481
  A 0.66 0.66 0.0 0 0 40.2408 33.0989
  L 40.2195 34.6187
  A 0.66 0.66 0.0 0 0 40.8703 35.2879
  L 42.5901 35.3119
  A 0.66 0.66 0.0 0 0 43.2592 34.6611
  L 43.2805 33.1413
  Z"
/>
<path fill="#b6b6ba" d="
  M 46.51 31.20
  Q 47.11 33.94 46.55 36.82
  Q 45.37 36.73 45.37 37.08
  L 45.34 31.28
  Q 45.91 31.13 46.51 31.20
  Z"
/>
<rect fill="#c49e06" x="-1.54" y="-1.42" transform="translate(28.51,33.88) rotate(1.3)" width="3.08" height="2.84" rx="0.62"/>
<rect fill="#c49e06" x="-1.52" y="-1.42" transform="translate(41.75,33.88) rotate(0.8)" width="3.04" height="2.84" rx="0.66"/>
</svg>
