<?xml version="1.0" encoding="UTF-8" standalone="no"?>
<!DOCTYPE svg PUBLIC "-//W3C//DTD SVG 1.1//EN" "http://www.w3.org/Graphics/SVG/1.1/DTD/svg11.dtd">
<svg xmlns="http://www.w3.org/2000/svg" version="1.1" viewBox="0.00 0.00 66.00 88.00">
<g stroke-width="2.00" fill="none" stroke-linecap="butt">
<path stroke="#4a4b57" vector-effect="non-scaling-stroke" d="
  M 33.41 86.62
  C 34.11 86.62 33.57 86.67 33.79 86.47
  Q 47.67 73.54 56.50 58.52
  C 64.06 45.67 68.42 28.26 58.55 15.21
  Q 49.57 3.32 34.51 2.50
  Q 33.96 2.47 33.53 2.47
  Q 33.10 2.47 32.55 2.50
  Q 17.48 3.27 8.47 15.14
  C -1.44 28.16 2.87 45.58 10.40 58.45
  Q 19.18 73.50 33.03 86.47
  C 33.24 86.67 32.70 86.62 33.41 86.62"
/>
<path stroke="#555565" vector-effect="non-scaling-stroke" d="
  M 33.46 21.68
  Q 33.19 20.52 33.38 18.65
  A 0.49 0.49 0.0 0 0 32.67 18.16
  Q 26.13 21.43 29.57 27.02
  A 0.87 0.86 55.3 0 1 29.37 28.14
  Q 24.50 32.03 26.65 37.57
  A 2.64 2.63 -76.9 0 0 27.17 38.41
  C 30.34 41.93 32.58 44.88 37.89 43.82
  C 40.91 43.22 42.35 40.39 44.50 37.75
  A 2.08 2.03 -21.9 0 0 44.95 36.73
  Q 45.47 33.17 44.87 31.24
  A 0.80 0.79 -70.9 0 0 44.79 31.07
  L 42.46 27.60
  A 1.35 1.32 -51.7 0 1 42.33 26.38
  Q 42.78 25.18 42.37 24.09
  A 0.77 0.76 -2.9 0 0 41.85 23.63
  Q 40.84 23.38 41.20 21.78
  Q 41.76 19.25 41.09 16.31
  A 1.09 1.07 16.4 0 0 40.80 15.79
  L 37.18 12.17
  A 0.50 0.50 0.0 0 0 36.34 12.66
  Q 37.91 18.02 33.77 21.78
  A 0.19 0.19 0.0 0 1 33.46 21.68"
/>
<path stroke="#555565" vector-effect="non-scaling-stroke" d="
  M 24.07 55.83
  A 1.00 0.99 90.0 0 0 25.06 54.83
  L 25.06 42.29
  A 1.30 1.29 2.2 0 0 23.86 41.00
  L 23.54 40.98
  A 1.26 1.25 -86.3 0 0 22.15 42.21
  L 22.06 46.40
  A 0.76 0.75 -2.6 0 1 21.38 47.14
  Q 17.60 47.53 16.48 47.23
  Q 14.97 46.82 14.10 46.70
  A 2.03 2.03 0.0 0 0 11.81 48.71
  L 11.81 49.06
  A 1.46 1.46 0.0 0 0 13.27 50.52
  L 21.49 50.52
  A 0.57 0.57 0.0 0 1 22.06 51.09
  L 22.06 55.15
  A 0.68 0.68 0.0 0 0 22.74 55.83
  L 24.07 55.83"
/>
<path stroke="#555565" vector-effect="non-scaling-stroke" d="
  M 53.34 48.71
  Q 50.90 47.31 47.04 46.74
  Q 37.80 45.37 26.76 46.28
  A 0.74 0.73 -86.9 0 0 26.09 46.89
  Q 25.74 48.91 26.18 50.97
  A 0.61 0.61 0.0 0 0 26.79 51.45
  Q 37.31 51.29 44.54 51.01
  C 47.68 50.88 49.71 50.27 53.28 49.20
  A 0.27 0.27 0.0 0 0 53.34 48.71"
/>
<path stroke="#a3a3ab" vector-effect="non-scaling-stroke" d="
  M 37.94 15.68
  Q 37.98 18.86 35.35 21.99
  A 1.64 1.63 47.0 0 0 35.28 24.03
  L 35.82 24.75
  A 0.89 0.89 0.0 0 0 37.17 24.85
  Q 40.40 21.58 40.17 18.15
  A 3.10 3.05 -65.7 0 0 39.56 16.50
  L 38.75 15.40
  A 0.45 0.45 0.0 0 0 37.94 15.68"
/>
<path stroke="#a3a3ab" vector-effect="non-scaling-stroke" d="
  M 31.30 20.43
  Q 29.85 21.90 29.41 23.12
  A 1.45 1.44 -53.7 0 0 29.61 24.45
  L 35.47 32.37
  A 0.30 0.30 0.0 0 0 35.99 32.30
  L 36.61 30.67
  A 1.48 1.48 0.0 0 0 36.28 29.10
  Q 34.72 27.52 32.62 24.87
  Q 31.38 23.30 31.77 20.66
  A 0.28 0.27 -18.9 0 0 31.30 20.43"
/>
<path stroke="#a3a3ab" vector-effect="non-scaling-stroke" d="
  M 29.43 29.55
  Q 26.64 32.46 27.41 36.23
  A 2.49 2.46 18.9 0 0 27.98 37.38
  Q 30.75 40.57 31.91 41.37
  C 34.75 43.33 38.37 43.11 40.78 40.45
  C 43.60 37.35 45.48 34.02 42.72 29.99
  Q 41.86 28.75 41.20 27.77
  A 0.99 0.99 0.0 0 0 39.39 28.24
  Q 39.09 31.75 40.44 33.86
  A 1.09 1.09 0.0 0 1 40.52 34.86
  Q 39.10 38.22 36.07 39.05
  A 1.54 1.53 48.3 0 1 35.05 38.99
  Q 32.32 37.87 31.41 35.02
  A 1.28 1.27 48.9 0 1 31.47 34.05
  Q 32.65 31.54 30.17 29.51
  A 0.54 0.54 0.0 0 0 29.43 29.55"
/>
<path stroke="#555565" vector-effect="non-scaling-stroke" d="
  M 35.13 37.37
  A 1.00 1.00 0.0 0 0 36.30 37.55
  Q 40.75 35.27 38.12 32.19
  A 0.60 0.60 0.0 0 0 37.12 32.33
  Q 36.04 34.73 34.02 35.20
  A 0.50 0.49 60.9 0 0 33.79 36.03
  L 35.13 37.37"
/>
<path stroke="#a3a3ab" vector-effect="non-scaling-stroke" d="
  M 12.99 48.71
  Q 12.99 49.13 13.16 49.34
  Q 13.39 49.62 13.71 49.69
  Q 14.53 49.85 15.25 49.38
  A 1.06 0.99 -60.1 0 1 15.81 49.21
  L 22.31 49.21
  A 0.59 0.59 0.0 0 1 22.90 49.77
  L 23.19 54.95
  A 0.06 0.06 0.0 0 0 23.25 55.01
  L 23.51 55.01
  A 0.27 0.27 0.0 0 0 23.78 54.76
  Q 24.07 51.77 24.02 48.75
  Q 24.09 45.73 23.83 42.74
  A 0.27 0.27 0.0 0 0 23.56 42.49
  L 23.30 42.48
  A 0.06 0.06 0.0 0 0 23.24 42.54
  L 22.91 47.72
  A 0.59 0.59 0.0 0 1 22.31 48.28
  L 15.81 48.23
  A 1.06 0.99 60.5 0 1 15.25 48.06
  Q 14.54 47.58 13.72 47.73
  Q 13.40 47.80 13.17 48.08
  Q 12.99 48.29 12.99 48.71"
/>
<path stroke="#a3a3ab" vector-effect="non-scaling-stroke" d="
  M 27.29 47.76
  L 27.27 49.54
  A 0.53 0.53 0.0 0 0 27.80 50.07
  L 37.17 50.14
  A 12.66 1.30 0.4 0 0 49.84 48.93
  L 49.84 48.69
  A 12.66 1.30 0.4 0 0 37.19 47.30
  L 27.82 47.23
  A 0.53 0.53 0.0 0 0 27.29 47.76"
/>
</g>
<path fill="#31333a" d="
  M 33.81 88.00
  L 33.04 88.00
  C 16.74 73.20 -6.53 43.98 4.15 20.23
  C 15.20 -4.37 50.14 -5.08 62.30 19.11
  C 66.92 28.28 66.06 39.46 62.40 48.84
  C 56.56 63.81 45.60 77.23 33.81 88.00
  Z
  M 33.41 86.62
  C 34.11 86.62 33.57 86.67 33.79 86.47
  Q 47.67 73.54 56.50 58.52
  C 64.06 45.67 68.42 28.26 58.55 15.21
  Q 49.57 3.32 34.51 2.50
  Q 33.96 2.47 33.53 2.47
  Q 33.10 2.47 32.55 2.50
  Q 17.48 3.27 8.47 15.14
  C -1.44 28.16 2.87 45.58 10.40 58.45
  Q 19.18 73.50 33.03 86.47
  C 33.24 86.67 32.70 86.62 33.41 86.62
  Z"
/>
<path fill="#636373" d="
  M 33.53 2.47
  Q 33.96 2.47 34.51 2.50
  Q 49.57 3.32 58.55 15.21
  C 68.42 28.26 64.06 45.67 56.50 58.52
  Q 47.67 73.54 33.79 86.47
  C 33.57 86.67 34.11 86.62 33.41 86.62
  C 32.70 86.62 33.24 86.67 33.03 86.47
  Q 19.18 73.50 10.40 58.45
  C 2.87 45.58 -1.44 28.16 8.47 15.14
  Q 17.48 3.27 32.55 2.50
  Q 33.10 2.47 33.53 2.47
  Z
  M 33.46 21.68
  Q 33.19 20.52 33.38 18.65
  A 0.49 0.49 0.0 0 0 32.67 18.16
  Q 26.13 21.43 29.57 27.02
  A 0.87 0.86 55.3 0 1 29.37 28.14
  Q 24.50 32.03 26.65 37.57
  A 2.64 2.63 -76.9 0 0 27.17 38.41
  C 30.34 41.93 32.58 44.88 37.89 43.82
  C 40.91 43.22 42.35 40.39 44.50 37.75
  A 2.08 2.03 -21.9 0 0 44.95 36.73
  Q 45.47 33.17 44.87 31.24
  A 0.80 0.79 -70.9 0 0 44.79 31.07
  L 42.46 27.60
  A 1.35 1.32 -51.7 0 1 42.33 26.38
  Q 42.78 25.18 42.37 24.09
  A 0.77 0.76 -2.9 0 0 41.85 23.63
  Q 40.84 23.38 41.20 21.78
  Q 41.76 19.25 41.09 16.31
  A 1.09 1.07 16.4 0 0 40.80 15.79
  L 37.18 12.17
  A 0.50 0.50 0.0 0 0 36.34 12.66
  Q 37.91 18.02 33.77 21.78
  A 0.19 0.19 0.0 0 1 33.46 21.68
  Z
  M 24.07 55.83
  A 1.00 0.99 90.0 0 0 25.06 54.83
  L 25.06 42.29
  A 1.30 1.29 2.2 0 0 23.86 41.00
  L 23.54 40.98
  A 1.26 1.25 -86.3 0 0 22.15 42.21
  L 22.06 46.40
  A 0.76 0.75 -2.6 0 1 21.38 47.14
  Q 17.60 47.53 16.48 47.23
  Q 14.97 46.82 14.10 46.70
  A 2.03 2.03 0.0 0 0 11.81 48.71
  L 11.81 49.06
  A 1.46 1.46 0.0 0 0 13.27 50.52
  L 21.49 50.52
  A 0.57 0.57 0.0 0 1 22.06 51.09
  L 22.06 55.15
  A 0.68 0.68 0.0 0 0 22.74 55.83
  L 24.07 55.83
  Z
  M 53.34 48.71
  Q 50.90 47.31 47.04 46.74
  Q 37.80 45.37 26.76 46.28
  A 0.74 0.73 -86.9 0 0 26.09 46.89
  Q 25.74 48.91 26.18 50.97
  A 0.61 0.61 0.0 0 0 26.79 51.45
  Q 37.31 51.29 44.54 51.01
  C 47.68 50.88 49.71 50.27 53.28 49.20
  A 0.27 0.27 0.0 0 0 53.34 48.71
  Z"
/>
<path fill="#464656" d="
  M 33.46 21.68
  A 0.19 0.19 0.0 0 0 33.77 21.78
  Q 37.91 18.02 36.34 12.66
  A 0.50 0.50 0.0 0 1 37.18 12.17
  L 40.80 15.79
  A 1.09 1.07 16.4 0 1 41.09 16.31
  Q 41.76 19.25 41.20 21.78
  Q 40.84 23.38 41.85 23.63
  A 0.77 0.76 -2.9 0 1 42.37 24.09
  Q 42.78 25.18 42.33 26.38
  A 1.35 1.32 -51.7 0 0 42.46 27.60
  L 44.79 31.07
  A 0.80 0.79 -70.9 0 1 44.87 31.24
  Q 45.47 33.17 44.95 36.73
  A 2.08 2.03 -21.9 0 1 44.50 37.75
  C 42.35 40.39 40.91 43.22 37.89 43.82
  C 32.58 44.88 30.34 41.93 27.17 38.41
  A 2.64 2.63 -76.9 0 1 26.65 37.57
  Q 24.50 32.03 29.37 28.14
  A 0.87 0.86 55.3 0 0 29.57 27.02
  Q 26.13 21.43 32.67 18.16
  A 0.49 0.49 0.0 0 1 33.38 18.65
  Q 33.19 20.52 33.46 21.68
  Z
  M 37.94 15.68
  Q 37.98 18.86 35.35 21.99
  A 1.64 1.63 47.0 0 0 35.28 24.03
  L 35.82 24.75
  A 0.89 0.89 0.0 0 0 37.17 24.85
  Q 40.40 21.58 40.17 18.15
  A 3.10 3.05 -65.7 0 0 39.56 16.50
  L 38.75 15.40
  A 0.45 0.45 0.0 0 0 37.94 15.68
  Z
  M 31.30 20.43
  Q 29.85 21.90 29.41 23.12
  A 1.45 1.44 -53.7 0 0 29.61 24.45
  L 35.47 32.37
  A 0.30 0.30 0.0 0 0 35.99 32.30
  L 36.61 30.67
  A 1.48 1.48 0.0 0 0 36.28 29.10
  Q 34.72 27.52 32.62 24.87
  Q 31.38 23.30 31.77 20.66
  A 0.28 0.27 -18.9 0 0 31.30 20.43
  Z
  M 29.43 29.55
  Q 26.64 32.46 27.41 36.23
  A 2.49 2.46 18.9 0 0 27.98 37.38
  Q 30.75 40.57 31.91 41.37
  C 34.75 43.33 38.37 43.11 40.78 40.45
  C 43.60 37.35 45.48 34.02 42.72 29.99
  Q 41.86 28.75 41.20 27.77
  A 0.99 0.99 0.0 0 0 39.39 28.24
  Q 39.09 31.75 40.44 33.86
  A 1.09 1.09 0.0 0 1 40.52 34.86
  Q 39.10 38.22 36.07 39.05
  A 1.54 1.53 48.3 0 1 35.05 38.99
  Q 32.32 37.87 31.41 35.02
  A 1.28 1.27 48.9 0 1 31.47 34.05
  Q 32.65 31.54 30.17 29.51
  A 0.54 0.54 0.0 0 0 29.43 29.55
  Z
  M 35.13 37.37
  A 1.00 1.00 0.0 0 0 36.30 37.55
  Q 40.75 35.27 38.12 32.19
  A 0.60 0.60 0.0 0 0 37.12 32.33
  Q 36.04 34.73 34.02 35.20
  A 0.50 0.49 60.9 0 0 33.79 36.03
  L 35.13 37.37
  Z"
/>
<path fill="#ffffff" d="
  M 37.94 15.68
  A 0.45 0.45 0.0 0 1 38.75 15.40
  L 39.56 16.50
  A 3.10 3.05 -65.7 0 1 40.17 18.15
  Q 40.40 21.58 37.17 24.85
  A 0.89 0.89 0.0 0 1 35.82 24.75
  L 35.28 24.03
  A 1.64 1.63 47.0 0 1 35.35 21.99
  Q 37.98 18.86 37.94 15.68
  Z"
/>
<path fill="#ffffff" d="
  M 31.30 20.43
  A 0.28 0.27 -18.9 0 1 31.77 20.66
  Q 31.38 23.30 32.62 24.87
  Q 34.72 27.52 36.28 29.10
  A 1.48 1.48 0.0 0 1 36.61 30.67
  L 35.99 32.30
  A 0.30 0.30 0.0 0 1 35.47 32.37
  L 29.61 24.45
  A 1.45 1.44 -53.7 0 1 29.41 23.12
  Q 29.85 21.90 31.30 20.43
  Z"
/>
<path fill="#ffffff" d="
  M 30.17 29.51
  Q 32.65 31.54 31.47 34.05
  A 1.28 1.27 48.9 0 0 31.41 35.02
  Q 32.32 37.87 35.05 38.99
  A 1.54 1.53 48.3 0 0 36.07 39.05
  Q 39.10 38.22 40.52 34.86
  A 1.09 1.09 0.0 0 0 40.44 33.86
  Q 39.09 31.75 39.39 28.24
  A 0.99 0.99 0.0 0 1 41.20 27.77
  Q 41.86 28.75 42.72 29.99
  C 45.48 34.02 43.60 37.35 40.78 40.45
  C 38.37 43.11 34.75 43.33 31.91 41.37
  Q 30.75 40.57 27.98 37.38
  A 2.49 2.46 18.9 0 1 27.41 36.23
  Q 26.64 32.46 29.43 29.55
  A 0.54 0.54 0.0 0 1 30.17 29.51
  Z"
/>
<path fill="#636373" d="
  M 35.13 37.37
  L 33.79 36.03
  A 0.50 0.49 60.9 0 1 34.02 35.20
  Q 36.04 34.73 37.12 32.33
  A 0.60 0.60 0.0 0 1 38.12 32.19
  Q 40.75 35.27 36.30 37.55
  A 1.00 1.00 0.0 0 1 35.13 37.37
  Z"
/>
<path fill="#464656" d="
  M 24.07 55.83
  L 22.74 55.83
  A 0.68 0.68 0.0 0 1 22.06 55.15
  L 22.06 51.09
  A 0.57 0.57 0.0 0 0 21.49 50.52
  L 13.27 50.52
  A 1.46 1.46 0.0 0 1 11.81 49.06
  L 11.81 48.71
  A 2.03 2.03 0.0 0 1 14.10 46.70
  Q 14.97 46.82 16.48 47.23
  Q 17.60 47.53 21.38 47.14
  A 0.76 0.75 -2.6 0 0 22.06 46.40
  L 22.15 42.21
  A 1.26 1.25 -86.3 0 1 23.54 40.98
  L 23.86 41.00
  A 1.30 1.29 2.2 0 1 25.06 42.29
  L 25.06 54.83
  A 1.00 0.99 90.0 0 1 24.07 55.83
  Z
  M 12.99 48.71
  Q 12.99 49.13 13.16 49.34
  Q 13.39 49.62 13.71 49.69
  Q 14.53 49.85 15.25 49.38
  A 1.06 0.99 -60.1 0 1 15.81 49.21
  L 22.31 49.21
  A 0.59 0.59 0.0 0 1 22.90 49.77
  L 23.19 54.95
  A 0.06 0.06 0.0 0 0 23.25 55.01
  L 23.51 55.01
  A 0.27 0.27 0.0 0 0 23.78 54.76
  Q 24.07 51.77 24.02 48.75
  Q 24.09 45.73 23.83 42.74
  A 0.27 0.27 0.0 0 0 23.56 42.49
  L 23.30 42.48
  A 0.06 0.06 0.0 0 0 23.24 42.54
  L 22.91 47.72
  A 0.59 0.59 0.0 0 1 22.31 48.28
  L 15.81 48.23
  A 1.06 0.99 60.5 0 1 15.25 48.06
  Q 14.54 47.58 13.72 47.73
  Q 13.40 47.80 13.17 48.08
  Q 12.99 48.29 12.99 48.71
  Z"
/>
<path fill="#ffffff" d="
  M 24.02 48.75
  Q 24.07 51.77 23.78 54.76
  A 0.27 0.27 0.0 0 1 23.51 55.01
  L 23.25 55.01
  A 0.06 0.06 0.0 0 1 23.19 54.95
  L 22.90 49.77
  A 0.59 0.59 0.0 0 0 22.31 49.21
  L 15.81 49.21
  A 1.06 0.99 -60.1 0 0 15.25 49.38
  Q 14.53 49.85 13.71 49.69
  Q 13.39 49.62 13.16 49.34
  Q 12.99 49.13 12.99 48.71
  Q 12.99 48.29 13.17 48.08
  Q 13.40 47.80 13.72 47.73
  Q 14.54 47.58 15.25 48.06
  A 1.06 0.99 60.5 0 0 15.81 48.23
  L 22.31 48.28
  A 0.59 0.59 0.0 0 0 22.91 47.72
  L 23.24 42.54
  A 0.06 0.06 0.0 0 1 23.30 42.48
  L 23.56 42.49
  A 0.27 0.27 0.0 0 1 23.83 42.74
  Q 24.09 45.73 24.02 48.75
  Z"
/>
<path fill="#464656" d="
  M 53.34 48.71
  A 0.27 0.27 0.0 0 1 53.28 49.20
  C 49.71 50.27 47.68 50.88 44.54 51.01
  Q 37.31 51.29 26.79 51.45
  A 0.61 0.61 0.0 0 1 26.18 50.97
  Q 25.74 48.91 26.09 46.89
  A 0.74 0.73 -86.9 0 1 26.76 46.28
  Q 37.80 45.37 47.04 46.74
  Q 50.90 47.31 53.34 48.71
  Z
  M 27.29 47.76
  L 27.27 49.54
  A 0.53 0.53 0.0 0 0 27.80 50.07
  L 37.17 50.14
  A 12.66 1.30 0.4 0 0 49.84 48.93
  L 49.84 48.69
  A 12.66 1.30 0.4 0 0 37.19 47.30
  L 27.82 47.23
  A 0.53 0.53 0.0 0 0 27.29 47.76
  Z"
/>
<path fill="#ffffff" d="
  M 27.29 47.76
  A 0.53 0.53 0.0 0 1 27.82 47.23
  L 37.19 47.30
  A 12.66 1.30 0.4 0 1 49.84 48.69
  L 49.84 48.93
  A 12.66 1.30 0.4 0 1 37.17 50.14
  L 27.80 50.07
  A 0.53 0.53 0.0 0 1 27.27 49.54
  L 27.29 47.76
  Z"
/>
</svg>
