<?xml version="1.0" encoding="UTF-8" standalone="no"?>
<!DOCTYPE svg PUBLIC "-//W3C//DTD SVG 1.1//EN" "http://www.w3.org/Graphics/SVG/1.1/DTD/svg11.dtd">
<svg xmlns="http://www.w3.org/2000/svg" version="1.1" viewBox="0.00 0.00 66.00 88.00">
<g stroke-width="2.00" fill="none" stroke-linecap="butt">
<path stroke="#88352b" vector-effect="non-scaling-stroke" d="
  M 33.41 86.71
  Q 33.52 86.71 33.62 86.69
  Q 33.71 86.67 33.79 86.59
  C 50.23 71.34 75.29 39.48 59.13 16.11
  C 53.31 7.70 44.09 2.47 33.52 2.46
  C 22.95 2.44 13.71 7.65 7.88 16.04
  C -8.35 39.37 16.63 71.30 33.03 86.59
  Q 33.11 86.67 33.20 86.69
  Q 33.30 86.71 33.41 86.71"
/>
<path stroke="#763f41" vector-effect="non-scaling-stroke" d="
  M 30.96 14.12
  C 30.16 18.21 29.11 23.39 26.85 26.64
  C 22.72 32.59 18.92 38.69 21.52 46.41
  C 23.04 50.93 27.68 54.61 32.33 54.65
  C 43.00 54.73 48.15 45.93 44.75 36.23
  C 43.38 32.31 39.77 28.41 37.65 24.69
  Q 35.12 20.22 32.02 13.97
  A 0.57 0.56 -52.8 0 0 30.96 14.12"
/>
<path stroke="#9c9ba3" vector-effect="non-scaling-stroke" d="
  M 31.20 16.84
  C 30.47 20.53 29.52 25.20 27.47 28.13
  C 23.73 33.49 20.29 38.98 22.62 45.95
  C 23.98 50.04 28.16 53.36 32.36 53.41
  C 41.98 53.50 46.65 45.57 43.60 36.82
  C 42.37 33.28 39.12 29.75 37.22 26.39
  Q 34.94 22.35 32.16 16.71
  A 0.51 0.51 0.0 0 0 31.20 16.84"
/>
</g>
<path fill="#5c221b" d="
  M 33.82 88.00
  L 33.04 88.00
  C 21.77 77.76 12.09 65.65 5.65 51.57
  Q 2.21 44.05 1.60 34.90
  C 0.54 18.99 11.23 5.62 26.48 2.12
  C 40.99 -1.21 55.70 5.85 62.46 19.45
  C 67.04 28.66 65.93 40.27 62.13 49.57
  C 56.13 64.27 45.47 77.35 33.82 88.00
  Z
  M 33.41 86.71
  Q 33.52 86.71 33.62 86.69
  Q 33.71 86.67 33.79 86.59
  C 50.23 71.34 75.29 39.48 59.13 16.11
  C 53.31 7.70 44.09 2.47 33.52 2.46
  C 22.95 2.44 13.71 7.65 7.88 16.04
  C -8.35 39.37 16.63 71.30 33.03 86.59
  Q 33.11 86.67 33.20 86.69
  Q 33.30 86.71 33.41 86.71
  Z"
/>
<path fill="#b3473b" d="
  M 33.52 2.46
  C 44.09 2.47 53.31 7.70 59.13 16.11
  C 75.29 39.48 50.23 71.34 33.79 86.59
  Q 33.71 86.67 33.62 86.69
  Q 33.52 86.71 33.41 86.71
  Q 33.30 86.71 33.20 86.69
  Q 33.11 86.67 33.03 86.59
  C 16.63 71.30 -8.35 39.37 7.88 16.04
  C 13.71 7.65 22.95 2.44 33.52 2.46
  Z
  M 30.96 14.12
  C 30.16 18.21 29.11 23.39 26.85 26.64
  C 22.72 32.59 18.92 38.69 21.52 46.41
  C 23.04 50.93 27.68 54.61 32.33 54.65
  C 43.00 54.73 48.15 45.93 44.75 36.23
  C 43.38 32.31 39.77 28.41 37.65 24.69
  Q 35.12 20.22 32.02 13.97
  A 0.57 0.56 -52.8 0 0 30.96 14.12
  Z"
/>
<path fill="#383647" d="
  M 30.96 14.12
  A 0.57 0.56 -52.8 0 1 32.02 13.97
  Q 35.12 20.22 37.65 24.69
  C 39.77 28.41 43.38 32.31 44.75 36.23
  C 48.15 45.93 43.00 54.73 32.33 54.65
  C 27.68 54.61 23.04 50.93 21.52 46.41
  C 18.92 38.69 22.72 32.59 26.85 26.64
  C 29.11 23.39 30.16 18.21 30.96 14.12
  Z
  M 31.20 16.84
  C 30.47 20.53 29.52 25.20 27.47 28.13
  C 23.73 33.49 20.29 38.98 22.62 45.95
  C 23.98 50.04 28.16 53.36 32.36 53.41
  C 41.98 53.50 46.65 45.57 43.60 36.82
  C 42.37 33.28 39.12 29.75 37.22 26.39
  Q 34.94 22.35 32.16 16.71
  A 0.51 0.51 0.0 0 0 31.20 16.84
  Z"
/>
<path fill="#ffffff" d="
  M 31.20 16.84
  A 0.51 0.51 0.0 0 1 32.16 16.71
  Q 34.94 22.35 37.22 26.39
  C 39.12 29.75 42.37 33.28 43.60 36.82
  C 46.65 45.57 41.98 53.50 32.36 53.41
  C 28.16 53.36 23.98 50.04 22.62 45.95
  C 20.29 38.98 23.73 33.49 27.47 28.13
  C 29.52 25.20 30.47 20.53 31.20 16.84
  Z"
/>
</svg>
