<?xml version="1.0" encoding="UTF-8" standalone="no"?>
<!DOCTYPE svg PUBLIC "-//W3C//DTD SVG 1.1//EN" "http://www.w3.org/Graphics/SVG/1.1/DTD/svg11.dtd">
<svg xmlns="http://www.w3.org/2000/svg" version="1.1" viewBox="0.00 0.00 66.00 88.00">
<g stroke-width="2.00" fill="none" stroke-linecap="butt">
<path stroke="#947705" vector-effect="non-scaling-stroke" d="
  M 33.40 86.74
  Q 33.51 86.74 33.65 86.61
  Q 48.27 73.02 57.36 56.90
  C 62.34 48.08 65.80 36.59 63.66 26.68
  C 60.60 12.51 48.04 2.48 33.53 2.46
  C 19.03 2.44 6.43 12.43 3.33 26.59
  C 1.16 36.49 4.59 47.99 9.54 56.83
  Q 18.58 72.97 33.16 86.61
  Q 33.29 86.74 33.40 86.74"
/>
<path stroke="#7f6a20" vector-effect="non-scaling-stroke" d="
  M 34.12 37.28
  L 42.25 31.40
  A 1.51 1.50 -17.9 0 0 42.88 30.18
  L 42.88 24.05
  A 0.97 0.96 15.0 0 0 42.39 23.21
  L 35.27 19.10
  A 1.22 1.21 11.3 0 1 34.67 18.21
  L 33.88 12.92
  A 0.59 0.58 -22.2 0 0 32.96 12.54
  L 22.37 20.20
  A 0.58 0.58 0.0 0 0 22.16 20.86
  L 24.10 26.64
  A 2.20 2.04 38.5 0 1 24.21 27.37
  L 24.11 34.20
  A 0.98 0.97 -75.3 0 0 24.60 35.05
  L 28.89 37.53
  A 1.53 1.51 -77.4 0 1 29.65 38.74
  L 30.36 49.09
  A 0.98 0.60 58.3 0 1 30.36 49.28
  L 29.87 54.43
  A 1.00 0.99 15.5 0 0 30.44 55.43
  Q 32.53 56.42 35.48 55.52
  A 1.04 1.02 85.7 0 0 36.20 54.67
  Q 36.55 51.99 35.90 49.80
  A 2.11 2.03 40.7 0 1 35.82 48.95
  L 36.84 38.65
  A 0.61 0.61 0.0 0 0 36.23 37.99
  L 34.35 37.99
  A 0.39 0.39 0.0 0 1 34.12 37.28"
/>
<path stroke="#7f6a20" vector-effect="non-scaling-stroke" d="
  M 18.63 40.61
  A 0.36 0.36 0.0 0 0 18.75 40.88
  L 28.56 49.45
  A 0.36 0.36 0.0 0 0 29.16 49.18
  L 29.16 44.10
  A 0.36 0.36 0.0 0 0 29.04 43.83
  L 24.11 39.53
  A 0.36 0.36 0.0 0 1 23.99 39.31
  L 21.82 24.76
  A 0.36 0.36 0.0 0 0 21.52 24.46
  L 19.04 24.09
  A 0.36 0.36 0.0 0 0 18.63 24.45
  L 18.63 40.61"
/>
<path stroke="#7f6a20" vector-effect="non-scaling-stroke" d="
  M 37.01 45.32
  L 37.07 49.07
  A 0.37 0.37 0.0 0 0 37.68 49.35
  L 47.38 41.11
  A 1.45 1.42 69.9 0 0 47.88 40.01
  L 47.83 24.67
  A 0.80 0.80 0.0 0 0 46.90 23.88
  L 45.82 24.07
  A 1.54 1.53 -0.4 0 0 44.57 25.33
  L 42.55 38.17
  A 2.32 2.28 72.8 0 1 41.88 39.45
  L 37.73 43.55
  A 2.44 2.42 67.3 0 0 37.01 45.32"
/>
<path stroke="#9c9b9c" vector-effect="non-scaling-stroke" d="
  M 32.23 14.62
  L 23.98 20.58
  A 0.95 0.95 0.0 0 0 23.67 21.73
  Q 26.05 27.13 25.32 33.29
  A 1.04 1.03 -71.7 0 0 25.83 34.31
  L 31.35 37.49
  A 0.69 0.68 42.1 0 0 32.10 37.46
  L 41.08 30.96
  A 1.26 1.23 72.7 0 0 41.60 29.94
  L 41.60 24.66
  A 1.33 1.32 -75.2 0 0 40.94 23.51
  L 34.74 19.93
  A 1.93 1.91 -79.4 0 1 33.81 18.56
  L 33.29 15.06
  A 0.67 0.67 0.0 0 0 32.23 14.62"
/>
<path stroke="#9c9b9c" vector-effect="non-scaling-stroke" d="
  M 35.14 39.18
  L 31.08 39.16
  A 0.22 0.22 0.0 0 0 30.86 39.38
  L 30.86 39.56
  A 9.46 1.18 -89.8 0 0 32.00 49.03
  L 34.14 49.03
  A 9.46 1.18 -89.8 0 0 35.36 39.58
  L 35.36 39.40
  A 0.22 0.22 0.0 0 0 35.14 39.18"
/>
<path stroke="#9c9b9c" vector-effect="non-scaling-stroke" d="
  M 35.0654 51.5285
  A 0.83 0.83 0.0 0 0 34.2471 50.6869
  L 31.8473 50.6534
  A 0.83 0.83 0.0 0 0 31.0058 51.4718
  L 30.9746 53.7115
  A 0.83 0.83 0.0 0 0 31.7929 54.5531
  L 34.1927 54.5866
  A 0.83 0.83 0.0 0 0 35.0342 53.7682
  L 35.0654 51.5285"
/>
<path stroke="#9c9b9c" vector-effect="non-scaling-stroke" d="
  M 34.17 21.19
  A 0.33 0.32 39.8 0 0 33.83 21.22
  L 26.46 26.55
  A 0.22 0.22 0.0 0 0 26.48 26.92
  L 31.92 30.06
  A 0.35 0.35 0.0 0 0 32.29 30.05
  L 40.00 24.47
  A 0.23 0.23 0.0 0 0 39.97 24.08
  L 34.17 21.19"
/>
<path stroke="#7f6a20" vector-effect="non-scaling-stroke" d="
  M 31.96 23.69
  Q 28.80 26.14 28.76 26.19
  A 0.37 0.36 -51.8 0 0 28.82 26.76
  L 31.91 28.62
  A 0.81 0.81 0.0 0 0 32.82 28.58
  Q 34.29 27.48 34.52 27.30
  Q 37.68 24.85 37.73 24.80
  A 0.37 0.36 -51.8 0 0 37.66 24.23
  L 34.57 22.37
  A 0.81 0.81 0.0 0 0 33.66 22.41
  Q 32.19 23.51 31.96 23.69"
/>
<path stroke="#9c9b9c" vector-effect="non-scaling-stroke" d="
  M 20.67 25.45
  L 20.29 25.38
  A 0.33 0.33 0.0 0 0 19.90 25.70
  L 19.65 39.29
  A 1.84 1.82 21.2 0 0 20.29 40.70
  L 27.66 47.09
  A 0.41 0.41 0.0 0 0 28.34 46.77
  L 28.33 46.15
  A 2.46 2.45 -67.5 0 0 27.61 44.40
  L 23.12 39.89
  A 1.44 1.42 18.5 0 1 22.70 39.07
  L 20.77 25.55
  A 0.11 0.10 83.2 0 0 20.67 25.45"
/>
<path stroke="#9c9b9c" vector-effect="non-scaling-stroke" d="
  M 46.46 40.79
  A 0.23 0.23 0.0 0 0 46.56 40.60
  L 46.56 25.65
  A 0.23 0.23 0.0 0 0 46.33 25.42
  L 45.82 25.42
  A 0.23 0.23 0.0 0 0 45.59 25.62
  L 43.59 38.93
  A 0.23 0.23 0.0 0 1 43.54 39.05
  L 38.09 45.30
  A 0.23 0.23 0.0 0 0 38.03 45.45
  L 38.03 46.44
  A 0.23 0.23 0.0 0 0 38.39 46.63
  L 46.46 40.79"
/>
</g>
<path fill="#644f04" d="
  M 33.81 88.00
  L 33.14 88.00
  Q 15.91 72.73 6.24 53.01
  Q 2.31 45.01 1.63 35.40
  Q 0.95 25.75 5.34 17.82
  C 11.48 6.72 23.72 0.21 36.78 1.50
  C 53.87 3.19 66.46 17.89 65.43 34.91
  C 64.19 55.19 48.16 74.91 33.81 88.00
  Z
  M 33.40 86.74
  Q 33.51 86.74 33.65 86.61
  Q 48.27 73.02 57.36 56.90
  C 62.34 48.08 65.80 36.59 63.66 26.68
  C 60.60 12.51 48.04 2.48 33.53 2.46
  C 19.03 2.44 6.43 12.43 3.33 26.59
  C 1.16 36.49 4.59 47.99 9.54 56.83
  Q 18.58 72.97 33.16 86.61
  Q 33.29 86.74 33.40 86.74
  Z"
/>
<path fill="#c49e06" d="
  M 33.53 2.46
  C 48.04 2.48 60.60 12.51 63.66 26.68
  C 65.80 36.59 62.34 48.08 57.36 56.90
  Q 48.27 73.02 33.65 86.61
  Q 33.51 86.74 33.40 86.74
  Q 33.29 86.74 33.16 86.61
  Q 18.58 72.97 9.54 56.83
  C 4.59 47.99 1.16 36.49 3.33 26.59
  C 6.43 12.43 19.03 2.44 33.53 2.46
  Z
  M 34.12 37.28
  L 42.25 31.40
  A 1.51 1.50 -17.9 0 0 42.88 30.18
  L 42.88 24.05
  A 0.97 0.96 15.0 0 0 42.39 23.21
  L 35.27 19.10
  A 1.22 1.21 11.3 0 1 34.67 18.21
  L 33.88 12.92
  A 0.59 0.58 -22.2 0 0 32.96 12.54
  L 22.37 20.20
  A 0.58 0.58 0.0 0 0 22.16 20.86
  L 24.10 26.64
  A 2.20 2.04 38.5 0 1 24.21 27.37
  L 24.11 34.20
  A 0.98 0.97 -75.3 0 0 24.60 35.05
  L 28.89 37.53
  A 1.53 1.51 -77.4 0 1 29.65 38.74
  L 30.36 49.09
  A 0.98 0.60 58.3 0 1 30.36 49.28
  L 29.87 54.43
  A 1.00 0.99 15.5 0 0 30.44 55.43
  Q 32.53 56.42 35.48 55.52
  A 1.04 1.02 85.7 0 0 36.20 54.67
  Q 36.55 51.99 35.90 49.80
  A 2.11 2.03 40.7 0 1 35.82 48.95
  L 36.84 38.65
  A 0.61 0.61 0.0 0 0 36.23 37.99
  L 34.35 37.99
  A 0.39 0.39 0.0 0 1 34.12 37.28
  Z
  M 18.63 40.61
  A 0.36 0.36 0.0 0 0 18.75 40.88
  L 28.56 49.45
  A 0.36 0.36 0.0 0 0 29.16 49.18
  L 29.16 44.10
  A 0.36 0.36 0.0 0 0 29.04 43.83
  L 24.11 39.53
  A 0.36 0.36 0.0 0 1 23.99 39.31
  L 21.82 24.76
  A 0.36 0.36 0.0 0 0 21.52 24.46
  L 19.04 24.09
  A 0.36 0.36 0.0 0 0 18.63 24.45
  L 18.63 40.61
  Z
  M 37.01 45.32
  L 37.07 49.07
  A 0.37 0.37 0.0 0 0 37.68 49.35
  L 47.38 41.11
  A 1.45 1.42 69.9 0 0 47.88 40.01
  L 47.83 24.67
  A 0.80 0.80 0.0 0 0 46.90 23.88
  L 45.82 24.07
  A 1.54 1.53 -0.4 0 0 44.57 25.33
  L 42.55 38.17
  A 2.32 2.28 72.8 0 1 41.88 39.45
  L 37.73 43.55
  A 2.44 2.42 67.3 0 0 37.01 45.32
  Z"
/>
<path fill="#393639" d="
  M 34.35 37.99
  L 36.23 37.99
  A 0.61 0.61 0.0 0 1 36.84 38.65
  L 35.82 48.95
  A 2.11 2.03 40.7 0 0 35.90 49.80
  Q 36.55 51.99 36.20 54.67
  A 1.04 1.02 85.7 0 1 35.48 55.52
  Q 32.53 56.42 30.44 55.43
  A 1.00 0.99 15.5 0 1 29.87 54.43
  L 30.36 49.28
  A 0.98 0.60 58.3 0 0 30.36 49.09
  L 29.65 38.74
  A 1.53 1.51 -77.4 0 0 28.89 37.53
  L 24.60 35.05
  A 0.98 0.97 -75.3 0 1 24.11 34.20
  L 24.21 27.37
  A 2.20 2.04 38.5 0 0 24.10 26.64
  L 22.16 20.86
  A 0.58 0.58 0.0 0 1 22.37 20.20
  L 32.96 12.54
  A 0.59 0.58 -22.2 0 1 33.88 12.92
  L 34.67 18.21
  A 1.22 1.21 11.3 0 0 35.27 19.10
  L 42.39 23.21
  A 0.97 0.96 15.0 0 1 42.88 24.05
  L 42.88 30.18
  A 1.51 1.50 -17.9 0 1 42.25 31.40
  L 34.12 37.28
  A 0.39 0.39 0.0 0 0 34.35 37.99
  Z
  M 32.23 14.62
  L 23.98 20.58
  A 0.95 0.95 0.0 0 0 23.67 21.73
  Q 26.05 27.13 25.32 33.29
  A 1.04 1.03 -71.7 0 0 25.83 34.31
  L 31.35 37.49
  A 0.69 0.68 42.1 0 0 32.10 37.46
  L 41.08 30.96
  A 1.26 1.23 72.7 0 0 41.60 29.94
  L 41.60 24.66
  A 1.33 1.32 -75.2 0 0 40.94 23.51
  L 34.74 19.93
  A 1.93 1.91 -79.4 0 1 33.81 18.56
  L 33.29 15.06
  A 0.67 0.67 0.0 0 0 32.23 14.62
  Z
  M 35.14 39.18
  L 31.08 39.16
  A 0.22 0.22 0.0 0 0 30.86 39.38
  L 30.86 39.56
  A 9.46 1.18 -89.8 0 0 32.00 49.03
  L 34.14 49.03
  A 9.46 1.18 -89.8 0 0 35.36 39.58
  L 35.36 39.40
  A 0.22 0.22 0.0 0 0 35.14 39.18
  Z
  M 35.0654 51.5285
  A 0.83 0.83 0.0 0 0 34.2471 50.6869
  L 31.8473 50.6534
  A 0.83 0.83 0.0 0 0 31.0058 51.4718
  L 30.9746 53.7115
  A 0.83 0.83 0.0 0 0 31.7929 54.5531
  L 34.1927 54.5866
  A 0.83 0.83 0.0 0 0 35.0342 53.7682
  L 35.0654 51.5285
  Z"
/>
<path fill="#ffffff" d="
  M 33.29 15.06
  L 33.81 18.56
  A 1.93 1.91 -79.4 0 0 34.74 19.93
  L 40.94 23.51
  A 1.33 1.32 -75.2 0 1 41.60 24.66
  L 41.60 29.94
  A 1.26 1.23 72.7 0 1 41.08 30.96
  L 32.10 37.46
  A 0.69 0.68 42.1 0 1 31.35 37.49
  L 25.83 34.31
  A 1.04 1.03 -71.7 0 1 25.32 33.29
  Q 26.05 27.13 23.67 21.73
  A 0.95 0.95 0.0 0 1 23.98 20.58
  L 32.23 14.62
  A 0.67 0.67 0.0 0 1 33.29 15.06
  Z
  M 34.17 21.19
  A 0.33 0.32 39.8 0 0 33.83 21.22
  L 26.46 26.55
  A 0.22 0.22 0.0 0 0 26.48 26.92
  L 31.92 30.06
  A 0.35 0.35 0.0 0 0 32.29 30.05
  L 40.00 24.47
  A 0.23 0.23 0.0 0 0 39.97 24.08
  L 34.17 21.19
  Z"
/>
<path fill="#393639" d="
  M 40.00 24.47
  L 32.29 30.05
  A 0.35 0.35 0.0 0 1 31.92 30.06
  L 26.48 26.92
  A 0.22 0.22 0.0 0 1 26.46 26.55
  L 33.83 21.22
  A 0.33 0.32 39.8 0 1 34.17 21.19
  L 39.97 24.08
  A 0.23 0.23 0.0 0 1 40.00 24.47
  Z
  M 31.96 23.69
  Q 28.80 26.14 28.76 26.19
  A 0.37 0.36 -51.8 0 0 28.82 26.76
  L 31.91 28.62
  A 0.81 0.81 0.0 0 0 32.82 28.58
  Q 34.29 27.48 34.52 27.30
  Q 37.68 24.85 37.73 24.80
  A 0.37 0.36 -51.8 0 0 37.66 24.23
  L 34.57 22.37
  A 0.81 0.81 0.0 0 0 33.66 22.41
  Q 32.19 23.51 31.96 23.69
  Z"
/>
<path fill="#c49e06" d="
  M 31.96 23.69
  Q 32.19 23.51 33.66 22.41
  A 0.81 0.81 0.0 0 1 34.57 22.37
  L 37.66 24.23
  A 0.37 0.36 -51.8 0 1 37.73 24.80
  Q 37.68 24.85 34.52 27.30
  Q 34.29 27.48 32.82 28.58
  A 0.81 0.81 0.0 0 1 31.91 28.62
  L 28.82 26.76
  A 0.37 0.36 -51.8 0 1 28.76 26.19
  Q 28.80 26.14 31.96 23.69
  Z"
/>
<path fill="#393639" d="
  M 18.63 40.61
  L 18.63 24.45
  A 0.36 0.36 0.0 0 1 19.04 24.09
  L 21.52 24.46
  A 0.36 0.36 0.0 0 1 21.82 24.76
  L 23.99 39.31
  A 0.36 0.36 0.0 0 0 24.11 39.53
  L 29.04 43.83
  A 0.36 0.36 0.0 0 1 29.16 44.10
  L 29.16 49.18
  A 0.36 0.36 0.0 0 1 28.56 49.45
  L 18.75 40.88
  A 0.36 0.36 0.0 0 1 18.63 40.61
  Z
  M 20.67 25.45
  L 20.29 25.38
  A 0.33 0.33 0.0 0 0 19.90 25.70
  L 19.65 39.29
  A 1.84 1.82 21.2 0 0 20.29 40.70
  L 27.66 47.09
  A 0.41 0.41 0.0 0 0 28.34 46.77
  L 28.33 46.15
  A 2.46 2.45 -67.5 0 0 27.61 44.40
  L 23.12 39.89
  A 1.44 1.42 18.5 0 1 22.70 39.07
  L 20.77 25.55
  A 0.11 0.10 83.2 0 0 20.67 25.45
  Z"
/>
<path fill="#393639" d="
  M 37.01 45.32
  A 2.44 2.42 67.3 0 1 37.73 43.55
  L 41.88 39.45
  A 2.32 2.28 72.8 0 0 42.55 38.17
  L 44.57 25.33
  A 1.54 1.53 -0.4 0 1 45.82 24.07
  L 46.90 23.88
  A 0.80 0.80 0.0 0 1 47.83 24.67
  L 47.88 40.01
  A 1.45 1.42 69.9 0 1 47.38 41.11
  L 37.68 49.35
  A 0.37 0.37 0.0 0 1 37.07 49.07
  L 37.01 45.32
  Z
  M 46.46 40.79
  A 0.23 0.23 0.0 0 0 46.56 40.60
  L 46.56 25.65
  A 0.23 0.23 0.0 0 0 46.33 25.42
  L 45.82 25.42
  A 0.23 0.23 0.0 0 0 45.59 25.62
  L 43.59 38.93
  A 0.23 0.23 0.0 0 1 43.54 39.05
  L 38.09 45.30
  A 0.23 0.23 0.0 0 0 38.03 45.45
  L 38.03 46.44
  A 0.23 0.23 0.0 0 0 38.39 46.63
  L 46.46 40.79
  Z"
/>
<path fill="#ffffff" d="
  M 20.67 25.45
  A 0.11 0.10 83.2 0 1 20.77 25.55
  L 22.70 39.07
  A 1.44 1.42 18.5 0 0 23.12 39.89
  L 27.61 44.40
  A 2.46 2.45 -67.5 0 1 28.33 46.15
  L 28.34 46.77
  A 0.41 0.41 0.0 0 1 27.66 47.09
  L 20.29 40.70
  A 1.84 1.82 21.2 0 1 19.65 39.29
  L 19.90 25.70
  A 0.33 0.33 0.0 0 1 20.29 25.38
  L 20.67 25.45
  Z"
/>
<path fill="#ffffff" d="
  M 46.46 40.79
  L 38.39 46.63
  A 0.23 0.23 0.0 0 1 38.03 46.44
  L 38.03 45.45
  A 0.23 0.23 0.0 0 1 38.09 45.30
  L 43.54 39.05
  A 0.23 0.23 0.0 0 0 43.59 38.93
  L 45.59 25.62
  A 0.23 0.23 0.0 0 1 45.82 25.42
  L 46.33 25.42
  A 0.23 0.23 0.0 0 1 46.56 25.65
  L 46.56 40.60
  A 0.23 0.23 0.0 0 1 46.46 40.79
  Z"
/>
<path fill="#ffffff" d="
  M 35.14 39.18
  A 0.22 0.22 0.0 0 1 35.36 39.40
  L 35.36 39.58
  A 9.46 1.18 -89.8 0 1 34.14 49.03
  L 32.00 49.03
  A 9.46 1.18 -89.8 0 1 30.86 39.56
  L 30.86 39.38
  A 0.22 0.22 0.0 0 1 31.08 39.16
  L 35.14 39.18
  Z"
/>
<rect fill="#ffffff" x="-2.03" y="-1.95" transform="translate(33.02,52.62) rotate(0.8)" width="4.06" height="3.90" rx="0.83"/>
</svg>
