<?xml version="1.0" encoding="UTF-8" standalone="no"?>
<!DOCTYPE svg PUBLIC "-//W3C//DTD SVG 1.1//EN" "http://www.w3.org/Graphics/SVG/1.1/DTD/svg11.dtd">
<svg xmlns="http://www.w3.org/2000/svg" version="1.1" viewBox="0.00 0.00 66.00 88.00">
<g stroke-width="2.00" fill="none" stroke-linecap="butt">
<path stroke="#947705" vector-effect="non-scaling-stroke" d="
  M 33.40 86.74
  Q 33.54 86.74 33.66 86.62
  Q 47.65 73.56 56.58 58.30
  C 65.15 43.66 68.54 25.46 56.01 12.18
  C 50.26 6.09 42.21 2.47 33.55 2.46
  C 24.89 2.44 16.82 6.03 11.05 12.10
  C -1.52 25.33 1.80 43.55 10.32 58.22
  Q 19.19 73.51 33.13 86.62
  Q 33.26 86.74 33.40 86.74"
/>
<path stroke="#7d6a25" vector-effect="non-scaling-stroke" d="
  M 29.91 12.29
  A 1.79 1.79 0.0 0 0 28.02 14.17
  L 29.40 41.13
  A 1.79 1.79 0.0 0 0 31.09 42.83
  L 35.05 43.04
  A 1.79 1.79 0.0 0 0 36.94 41.35
  L 38.36 14.54
  A 1.79 1.79 0.0 0 0 36.67 12.65
  L 29.91 12.29"
/>
<path stroke="#7d6a25" vector-effect="non-scaling-stroke" d="
  M 38.00 47.18
  A 1.62 1.62 0.0 0 0 36.38 45.56
  L 29.82 45.56
  A 1.62 1.62 0.0 0 0 28.20 47.18
  L 28.20 53.34
  A 1.62 1.62 0.0 0 0 29.82 54.96
  L 36.38 54.96
  A 1.62 1.62 0.0 0 0 38.00 53.34
  L 38.00 47.18"
/>
<path stroke="#9b9ba1" vector-effect="non-scaling-stroke" d="
  M 30.09 13.64
  A 0.65 0.65 0.0 0 0 29.41 14.32
  L 30.77 41.06
  A 0.65 0.65 0.0 0 0 31.39 41.68
  L 34.92 41.87
  A 0.65 0.65 0.0 0 0 35.60 41.25
  L 37.03 14.66
  A 0.65 0.65 0.0 0 0 36.41 13.98
  L 30.09 13.64"
/>
<path stroke="#9b9ba1" vector-effect="non-scaling-stroke" d="
  M 36.6996 47.3780
  A 0.47 0.47 0.0 0 0 36.2279 46.9096
  L 30.2680 46.9304
  A 0.47 0.47 0.0 0 0 29.7996 47.4021
  L 29.8204 53.3620
  A 0.47 0.47 0.0 0 0 30.2921 53.8304
  L 36.2520 53.8096
  A 0.47 0.47 0.0 0 0 36.7204 53.3379
  L 36.6996 47.3780"
/>
</g>
<path fill="#644f04" d="
  M 33.80 88.00
  L 33.03 88.00
  C 21.75 77.74 12.07 65.62 5.65 51.56
  Q 2.16 43.91 1.59 34.88
  C 0.04 10.58 25.23 -5.62 46.98 4.31
  C 58.73 9.67 65.99 21.26 65.43 34.22
  Q 65.10 41.90 62.41 48.85
  C 56.63 63.75 45.55 77.32 33.80 88.00
  Z
  M 33.40 86.74
  Q 33.54 86.74 33.66 86.62
  Q 47.65 73.56 56.58 58.30
  C 65.15 43.66 68.54 25.46 56.01 12.18
  C 50.26 6.09 42.21 2.47 33.55 2.46
  C 24.89 2.44 16.82 6.03 11.05 12.10
  C -1.52 25.33 1.80 43.55 10.32 58.22
  Q 19.19 73.51 33.13 86.62
  Q 33.26 86.74 33.40 86.74
  Z"
/>
<path fill="#c49e06" d="
  M 33.55 2.46
  C 42.21 2.47 50.26 6.09 56.01 12.18
  C 68.54 25.46 65.15 43.66 56.58 58.30
  Q 47.65 73.56 33.66 86.62
  Q 33.54 86.74 33.40 86.74
  Q 33.26 86.74 33.13 86.62
  Q 19.19 73.51 10.32 58.22
  C 1.80 43.55 -1.52 25.33 11.05 12.10
  C 16.82 6.03 24.89 2.44 33.55 2.46
  Z
  M 29.91 12.29
  A 1.79 1.79 0.0 0 0 28.02 14.17
  L 29.40 41.13
  A 1.79 1.79 0.0 0 0 31.09 42.83
  L 35.05 43.04
  A 1.79 1.79 0.0 0 0 36.94 41.35
  L 38.36 14.54
  A 1.79 1.79 0.0 0 0 36.67 12.65
  L 29.91 12.29
  Z
  M 38.00 47.18
  A 1.62 1.62 0.0 0 0 36.38 45.56
  L 29.82 45.56
  A 1.62 1.62 0.0 0 0 28.20 47.18
  L 28.20 53.34
  A 1.62 1.62 0.0 0 0 29.82 54.96
  L 36.38 54.96
  A 1.62 1.62 0.0 0 0 38.00 53.34
  L 38.00 47.18
  Z"
/>
<path fill="#363643" d="
  M 29.91 12.29
  L 36.67 12.65
  A 1.79 1.79 0.0 0 1 38.36 14.54
  L 36.94 41.35
  A 1.79 1.79 0.0 0 1 35.05 43.04
  L 31.09 42.83
  A 1.79 1.79 0.0 0 1 29.40 41.13
  L 28.02 14.17
  A 1.79 1.79 0.0 0 1 29.91 12.29
  Z
  M 30.09 13.64
  A 0.65 0.65 0.0 0 0 29.41 14.32
  L 30.77 41.06
  A 0.65 0.65 0.0 0 0 31.39 41.68
  L 34.92 41.87
  A 0.65 0.65 0.0 0 0 35.60 41.25
  L 37.03 14.66
  A 0.65 0.65 0.0 0 0 36.41 13.98
  L 30.09 13.64
  Z"
/>
<path fill="#ffffff" d="
  M 30.09 13.64
  L 36.41 13.98
  A 0.65 0.65 0.0 0 1 37.03 14.66
  L 35.60 41.25
  A 0.65 0.65 0.0 0 1 34.92 41.87
  L 31.39 41.68
  A 0.65 0.65 0.0 0 1 30.77 41.06
  L 29.41 14.32
  A 0.65 0.65 0.0 0 1 30.09 13.64
  Z"
/>
<path fill="#363643" d="
  M 38.00 53.34
  A 1.62 1.62 0.0 0 1 36.38 54.96
  L 29.82 54.96
  A 1.62 1.62 0.0 0 1 28.20 53.34
  L 28.20 47.18
  A 1.62 1.62 0.0 0 1 29.82 45.56
  L 36.38 45.56
  A 1.62 1.62 0.0 0 1 38.00 47.18
  L 38.00 53.34
  Z
  M 36.6996 47.3780
  A 0.47 0.47 0.0 0 0 36.2279 46.9096
  L 30.2680 46.9304
  A 0.47 0.47 0.0 0 0 29.7996 47.4021
  L 29.8204 53.3620
  A 0.47 0.47 0.0 0 0 30.2921 53.8304
  L 36.2520 53.8096
  A 0.47 0.47 0.0 0 0 36.7204 53.3379
  L 36.6996 47.3780
  Z"
/>
<rect fill="#ffffff" x="-3.45" y="-3.45" transform="translate(33.26,50.37) rotate(-0.2)" width="6.90" height="6.90" rx="0.47"/>
</svg>
