<?xml version="1.0" encoding="UTF-8" standalone="no"?>
<!DOCTYPE svg PUBLIC "-//W3C//DTD SVG 1.1//EN" "http://www.w3.org/Graphics/SVG/1.1/DTD/svg11.dtd">
<svg xmlns="http://www.w3.org/2000/svg" version="1.1" viewBox="0.00 0.00 66.00 88.00">
<g stroke-width="2.00" fill="none" stroke-linecap="butt">
<path stroke="#496d97" vector-effect="non-scaling-stroke" d="
  M 33.40 86.73
  Q 33.51 86.73 33.64 86.61
  C 46.84 74.34 61.52 56.20 63.87 38.50
  Q 66.67 17.33 48.61 6.42
  Q 42.05 2.46 33.52 2.45
  Q 25.00 2.43 18.43 6.38
  Q 0.33 17.23 3.07 38.41
  C 5.36 56.11 19.99 74.30 33.15 86.61
  Q 33.28 86.73 33.40 86.73"
/>
<path stroke="#4c6285" vector-effect="non-scaling-stroke" d="
  M 44.73 14.96
  L 37.57 15.77
  A 1.37 1.29 -37.2 0 1 37.01 15.71
  Q 35.35 15.17 33.96 13.25
  A 1.04 1.04 0.0 0 0 32.30 13.22
  Q 31.38 14.40 30.07 15.28
  A 1.22 1.21 32.5 0 1 29.19 15.47
  L 22.00 14.25
  A 0.28 0.28 0.0 0 0 21.72 14.68
  L 28.44 24.97
  A 1.38 1.33 -64.3 0 1 28.67 25.66
  L 28.88 29.46
  A 1.01 0.98 67.6 0 1 28.57 30.23
  Q 27.01 31.66 23.55 35.77
  Q 20.36 39.56 20.09 44.67
  A 2.21 2.20 29.9 0 0 20.44 45.96
  L 23.96 51.36
  A 2.38 2.37 82.6 0 0 25.14 52.27
  L 32.82 54.93
  A 1.70 1.65 -44.2 0 0 33.89 54.93
  L 42.01 52.13
  A 1.98 1.95 -84.3 0 0 43.08 51.24
  L 46.52 45.28
  A 1.25 1.24 -34.4 0 0 46.67 44.49
  Q 45.75 38.32 42.80 35.20
  Q 41.10 33.40 38.06 30.20
  A 0.97 0.95 24.7 0 1 37.80 29.52
  L 38.01 24.97
  A 1.56 1.50 -26.0 0 1 38.33 24.10
  L 45.01 15.45
  A 0.31 0.31 0.0 0 0 44.73 14.96"
/>
<path stroke="#9999a1" vector-effect="non-scaling-stroke" d="
  M 33.01 23.83
  Q 35.40 23.92 35.97 23.92
  A 1.06 1.06 0.0 0 0 36.82 23.50
  L 41.47 17.48
  A 0.34 0.34 0.0 0 0 41.16 16.93
  L 36.97 17.40
  A 1.31 1.28 -29.2 0 1 36.04 17.15
  Q 35.10 16.42 33.74 15.14
  Q 33.71 15.11 33.53 15.07
  Q 33.43 15.04 33.32 15.04
  Q 33.21 15.03 33.11 15.05
  Q 32.93 15.08 32.89 15.11
  Q 31.45 16.29 30.46 16.96
  A 1.31 1.28 33.2 0 1 29.51 17.14
  L 25.37 16.38
  A 0.34 0.34 0.0 0 0 25.02 16.91
  L 29.24 23.24
  A 1.06 1.06 0.0 0 0 30.06 23.71
  Q 30.63 23.75 33.01 23.83"
/>
<path stroke="#9999a1" vector-effect="non-scaling-stroke" d="
  M 36.6325 26.2970
  A 0.61 0.61 0.0 0 0 36.0257 25.6838
  L 30.7457 25.6562
  A 0.61 0.61 0.0 0 0 30.1326 26.2630
  L 30.1275 27.2230
  A 0.61 0.61 0.0 0 0 30.7343 27.8362
  L 36.0143 27.8638
  A 0.61 0.61 0.0 0 0 36.6274 27.2570
  L 36.6325 26.2970"
/>
<path stroke="#9999a1" vector-effect="non-scaling-stroke" d="
  M 33.38 53.46
  Q 33.44 53.46 33.50 53.44
  Q 37.44 52.09 41.18 50.69
  A 1.30 1.28 -84.9 0 0 41.83 50.14
  L 44.86 44.88
  A 1.18 1.13 -34.0 0 0 45.01 44.18
  C 44.29 38.30 41.17 35.63 36.69 30.92
  A 1.49 1.49 0.0 0 0 35.74 30.47
  Q 34.69 30.39 33.42 30.39
  Q 32.14 30.39 31.09 30.47
  A 1.49 1.49 0.0 0 0 30.14 30.91
  C 25.64 35.61 22.52 38.27 21.78 44.14
  A 1.18 1.13 34.2 0 0 21.92 44.84
  L 24.94 50.11
  A 1.30 1.28 85.1 0 0 25.59 50.66
  Q 29.32 52.08 33.26 53.44
  Q 33.32 53.46 33.38 53.46"
/>
</g>
<path fill="#2d4966" d="
  M 33.77 88.00
  L 33.04 88.00
  C 21.77 77.76 11.95 65.52 5.58 51.41
  Q 2.15 43.81 1.59 34.82
  C 0.35 15.10 17.22 -0.31 36.51 1.47
  C 45.47 2.29 53.97 6.94 59.31 14.21
  C 77.51 39.00 51.53 71.97 33.77 88.00
  Z
  M 33.40 86.73
  Q 33.51 86.73 33.64 86.61
  C 46.84 74.34 61.52 56.20 63.87 38.50
  Q 66.67 17.33 48.61 6.42
  Q 42.05 2.46 33.52 2.45
  Q 25.00 2.43 18.43 6.38
  Q 0.33 17.23 3.07 38.41
  C 5.36 56.11 19.99 74.30 33.15 86.61
  Q 33.28 86.73 33.40 86.73
  Z"
/>
<path fill="#6591c7" d="
  M 33.52 2.45
  Q 42.05 2.46 48.61 6.42
  Q 66.67 17.33 63.87 38.50
  C 61.52 56.20 46.84 74.34 33.64 86.61
  Q 33.51 86.73 33.40 86.73
  Q 33.28 86.73 33.15 86.61
  C 19.99 74.30 5.36 56.11 3.07 38.41
  Q 0.33 17.23 18.43 6.38
  Q 25.00 2.43 33.52 2.45
  Z
  M 44.73 14.96
  L 37.57 15.77
  A 1.37 1.29 -37.2 0 1 37.01 15.71
  Q 35.35 15.17 33.96 13.25
  A 1.04 1.04 0.0 0 0 32.30 13.22
  Q 31.38 14.40 30.07 15.28
  A 1.22 1.21 32.5 0 1 29.19 15.47
  L 22.00 14.25
  A 0.28 0.28 0.0 0 0 21.72 14.68
  L 28.44 24.97
  A 1.38 1.33 -64.3 0 1 28.67 25.66
  L 28.88 29.46
  A 1.01 0.98 67.6 0 1 28.57 30.23
  Q 27.01 31.66 23.55 35.77
  Q 20.36 39.56 20.09 44.67
  A 2.21 2.20 29.9 0 0 20.44 45.96
  L 23.96 51.36
  A 2.38 2.37 82.6 0 0 25.14 52.27
  L 32.82 54.93
  A 1.70 1.65 -44.2 0 0 33.89 54.93
  L 42.01 52.13
  A 1.98 1.95 -84.3 0 0 43.08 51.24
  L 46.52 45.28
  A 1.25 1.24 -34.4 0 0 46.67 44.49
  Q 45.75 38.32 42.80 35.20
  Q 41.10 33.40 38.06 30.20
  A 0.97 0.95 24.7 0 1 37.80 29.52
  L 38.01 24.97
  A 1.56 1.50 -26.0 0 1 38.33 24.10
  L 45.01 15.45
  A 0.31 0.31 0.0 0 0 44.73 14.96
  Z"
/>
<path fill="#323342" d="
  M 45.01 15.45
  L 38.33 24.10
  A 1.56 1.50 -26.0 0 0 38.01 24.97
  L 37.80 29.52
  A 0.97 0.95 24.7 0 0 38.06 30.20
  Q 41.10 33.40 42.80 35.20
  Q 45.75 38.32 46.67 44.49
  A 1.25 1.24 -34.4 0 1 46.52 45.28
  L 43.08 51.24
  A 1.98 1.95 -84.3 0 1 42.01 52.13
  L 33.89 54.93
  A 1.70 1.65 -44.2 0 1 32.82 54.93
  L 25.14 52.27
  A 2.38 2.37 82.6 0 1 23.96 51.36
  L 20.44 45.96
  A 2.21 2.20 29.9 0 1 20.09 44.67
  Q 20.36 39.56 23.55 35.77
  Q 27.01 31.66 28.57 30.23
  A 1.01 0.98 67.6 0 0 28.88 29.46
  L 28.67 25.66
  A 1.38 1.33 -64.3 0 0 28.44 24.97
  L 21.72 14.68
  A 0.28 0.28 0.0 0 1 22.00 14.25
  L 29.19 15.47
  A 1.22 1.21 32.5 0 0 30.07 15.28
  Q 31.38 14.40 32.30 13.22
  A 1.04 1.04 0.0 0 1 33.96 13.25
  Q 35.35 15.17 37.01 15.71
  A 1.37 1.29 -37.2 0 0 37.57 15.77
  L 44.73 14.96
  A 0.31 0.31 0.0 0 1 45.01 15.45
  Z
  M 33.01 23.83
  Q 35.40 23.92 35.97 23.92
  A 1.06 1.06 0.0 0 0 36.82 23.50
  L 41.47 17.48
  A 0.34 0.34 0.0 0 0 41.16 16.93
  L 36.97 17.40
  A 1.31 1.28 -29.2 0 1 36.04 17.15
  Q 35.10 16.42 33.74 15.14
  Q 33.71 15.11 33.53 15.07
  Q 33.43 15.04 33.32 15.04
  Q 33.21 15.03 33.11 15.05
  Q 32.93 15.08 32.89 15.11
  Q 31.45 16.29 30.46 16.96
  A 1.31 1.28 33.2 0 1 29.51 17.14
  L 25.37 16.38
  A 0.34 0.34 0.0 0 0 25.02 16.91
  L 29.24 23.24
  A 1.06 1.06 0.0 0 0 30.06 23.71
  Q 30.63 23.75 33.01 23.83
  Z
  M 36.6325 26.2970
  A 0.61 0.61 0.0 0 0 36.0257 25.6838
  L 30.7457 25.6562
  A 0.61 0.61 0.0 0 0 30.1326 26.2630
  L 30.1275 27.2230
  A 0.61 0.61 0.0 0 0 30.7343 27.8362
  L 36.0143 27.8638
  A 0.61 0.61 0.0 0 0 36.6274 27.2570
  L 36.6325 26.2970
  Z
  M 33.38 53.46
  Q 33.44 53.46 33.50 53.44
  Q 37.44 52.09 41.18 50.69
  A 1.30 1.28 -84.9 0 0 41.83 50.14
  L 44.86 44.88
  A 1.18 1.13 -34.0 0 0 45.01 44.18
  C 44.29 38.30 41.17 35.63 36.69 30.92
  A 1.49 1.49 0.0 0 0 35.74 30.47
  Q 34.69 30.39 33.42 30.39
  Q 32.14 30.39 31.09 30.47
  A 1.49 1.49 0.0 0 0 30.14 30.91
  C 25.64 35.61 22.52 38.27 21.78 44.14
  A 1.18 1.13 34.2 0 0 21.92 44.84
  L 24.94 50.11
  A 1.30 1.28 85.1 0 0 25.59 50.66
  Q 29.32 52.08 33.26 53.44
  Q 33.32 53.46 33.38 53.46
  Z"
/>
<path fill="#ffffff" d="
  M 33.32 15.04
  Q 33.43 15.04 33.53 15.07
  Q 33.71 15.11 33.74 15.14
  Q 35.10 16.42 36.04 17.15
  A 1.31 1.28 -29.2 0 0 36.97 17.40
  L 41.16 16.93
  A 0.34 0.34 0.0 0 1 41.47 17.48
  L 36.82 23.50
  A 1.06 1.06 0.0 0 1 35.97 23.92
  Q 35.40 23.92 33.01 23.83
  Q 30.63 23.75 30.06 23.71
  A 1.06 1.06 0.0 0 1 29.24 23.24
  L 25.02 16.91
  A 0.34 0.34 0.0 0 1 25.37 16.38
  L 29.51 17.14
  A 1.31 1.28 33.2 0 0 30.46 16.96
  Q 31.45 16.29 32.89 15.11
  Q 32.93 15.08 33.11 15.05
  Q 33.21 15.03 33.32 15.04
  Z"
/>
<rect fill="#ffffff" x="-3.25" y="-1.09" transform="translate(33.38,26.76) rotate(0.3)" width="6.50" height="2.18" rx="0.61"/>
<path fill="#ffffff" d="
  M 33.42 30.39
  Q 34.69 30.39 35.74 30.47
  A 1.49 1.49 0.0 0 1 36.69 30.92
  C 41.17 35.63 44.29 38.30 45.01 44.18
  A 1.18 1.13 -34.0 0 1 44.86 44.88
  L 41.83 50.14
  A 1.30 1.28 -84.9 0 1 41.18 50.69
  Q 37.44 52.09 33.50 53.44
  Q 33.44 53.46 33.38 53.46
  Q 33.32 53.46 33.26 53.44
  Q 29.32 52.08 25.59 50.66
  A 1.30 1.28 85.1 0 1 24.94 50.11
  L 21.92 44.84
  A 1.18 1.13 34.2 0 1 21.78 44.14
  C 22.52 38.27 25.64 35.61 30.14 30.91
  A 1.49 1.49 0.0 0 1 31.09 30.47
  Q 32.14 30.39 33.42 30.39
  Z"
/>
</svg>
