<?xml version="1.0" encoding="UTF-8" standalone="no"?>
<!DOCTYPE svg PUBLIC "-//W3C//DTD SVG 1.1//EN" "http://www.w3.org/Graphics/SVG/1.1/DTD/svg11.dtd">
<svg xmlns="http://www.w3.org/2000/svg" version="1.1" viewBox="0.00 0.00 66.00 88.00">
<g stroke-width="2.00" fill="none" stroke-linecap="butt">
<path stroke="#947705" vector-effect="non-scaling-stroke" d="
  M 33.40 86.74
  Q 33.52 86.74 33.65 86.61
  Q 48.31 73.01 57.56 56.56
  Q 62.19 48.32 63.86 38.32
  C 67.05 19.24 52.50 2.48 33.53 2.45
  C 14.56 2.43 -0.04 19.14 3.09 38.23
  Q 4.73 48.23 9.34 56.49
  Q 18.54 72.97 33.16 86.61
  Q 33.29 86.73 33.40 86.74"
/>
<path stroke="#7e6b25" vector-effect="non-scaling-stroke" d="
  M 45.68 15.36
  A 1.61 1.61 0.0 0 0 44.16 17.06
  L 45.41 40.11
  A 1.61 1.61 0.0 0 0 47.11 41.63
  L 50.45 41.45
  A 1.61 1.61 0.0 0 0 51.97 39.92
  L 53.11 16.73
  A 1.61 1.61 0.0 0 0 51.42 15.05
  L 45.68 15.36"
/>
<path stroke="#7e6b25" vector-effect="non-scaling-stroke" d="
  M 34.16 21.27
  C 34.83 18.03 33.52 16.16 30.08 16.13
  Q 20.41 16.05 17.05 16.12
  Q 13.23 16.20 13.22 19.84
  Q 13.17 39.40 13.11 42.30
  Q 13.03 46.08 16.07 47.44
  Q 24.80 51.34 28.66 53.02
  C 31.32 54.17 32.85 53.83 34.07 51.11
  Q 38.90 40.31 43.39 29.68
  Q 44.66 26.66 42.01 25.43
  Q 35.27 22.30 34.55 22.01
  A 0.65 0.64 17.6 0 1 34.16 21.27"
/>
<path stroke="#7e6b25" vector-effect="non-scaling-stroke" d="
  M 52.8509 45.2754
  A 1.59 1.59 0.0 0 0 51.2554 43.6909
  L 46.0554 43.7091
  A 1.59 1.59 0.0 0 0 44.4709 45.3046
  L 44.4891 50.5046
  A 1.59 1.59 0.0 0 0 46.0846 52.0891
  L 51.2846 52.0709
  A 1.59 1.59 0.0 0 0 52.8691 50.4754
  L 52.8509 45.2754"
/>
<path stroke="#9c9ba1" vector-effect="non-scaling-stroke" d="
  M 46.00 16.65
  A 0.62 0.62 0.0 0 0 45.41 17.30
  L 46.65 40.02
  A 0.62 0.62 0.0 0 0 47.30 40.61
  L 50.21 40.45
  A 0.62 0.62 0.0 0 0 50.80 39.86
  L 51.93 17.01
  A 0.62 0.62 0.0 0 0 51.27 16.36
  L 46.00 16.65"
/>
<path stroke="#9c9ba1" vector-effect="non-scaling-stroke" d="
  M 14.40 42.29
  A 0.23 0.22 58.0 0 0 14.83 42.39
  Q 22.00 26.07 24.23 20.82
  Q 25.64 17.51 32.57 21.19
  A 0.33 0.33 0.0 0 0 33.05 20.88
  L 32.93 18.63
  A 1.37 1.37 0.0 0 0 31.62 17.34
  Q 28.10 17.20 17.23 17.25
  Q 14.36 17.27 14.42 20.46
  Q 14.68 34.05 14.40 42.29"
/>
<path stroke="#9c9ba1" vector-effect="non-scaling-stroke" d="
  M 42.4559 29.0261
  A 1.99 1.99 0.0 0 0 41.4336 26.4040
  L 28.4495 20.7044
  A 1.99 1.99 0.0 0 0 25.8275 21.7267
  L 16.0441 44.0139
  A 1.99 1.99 0.0 0 0 17.0664 46.6360
  L 30.0505 52.3356
  A 1.99 1.99 0.0 0 0 32.6725 51.3133
  L 42.4559 29.0261"
/>
<path stroke="#9c9ba1" vector-effect="non-scaling-stroke" d="
  M 51.7442 45.4854
  A 0.50 0.50 0.0 0 0 51.2451 44.9846
  L 46.0051 44.9754
  A 0.50 0.50 0.0 0 0 45.5042 45.4746
  L 45.4958 50.2746
  A 0.50 0.50 0.0 0 0 45.9949 50.7754
  L 51.2349 50.7846
  A 0.50 0.50 0.0 0 0 51.7358 50.2854
  L 51.7442 45.4854"
/>
</g>
<path fill="#634f04" d="
  M 33.80 88.00
  L 33.03 88.00
  C 21.75 77.74 12.12 65.69 5.65 51.56
  Q 0.20 39.64 2.07 26.78
  Q 2.72 22.26 6.03 16.67
  C 12.30 6.06 24.48 0.39 36.49 1.47
  C 47.69 2.48 57.47 9.21 62.43 19.37
  C 66.90 28.53 66.02 39.54 62.40 48.86
  C 56.62 63.76 45.56 77.31 33.80 88.00
  Z
  M 33.40 86.74
  Q 33.52 86.74 33.65 86.61
  Q 48.31 73.01 57.56 56.56
  Q 62.19 48.32 63.86 38.32
  C 67.05 19.24 52.50 2.48 33.53 2.45
  C 14.56 2.43 -0.04 19.14 3.09 38.23
  Q 4.73 48.23 9.34 56.49
  Q 18.54 72.97 33.16 86.61
  Q 33.29 86.73 33.40 86.74
  Z"
/>
<path fill="#c49e06" d="
  M 33.53 2.45
  C 52.50 2.48 67.05 19.24 63.86 38.32
  Q 62.19 48.32 57.56 56.56
  Q 48.31 73.01 33.65 86.61
  Q 33.52 86.74 33.40 86.74
  Q 33.29 86.73 33.16 86.61
  Q 18.54 72.97 9.34 56.49
  Q 4.73 48.23 3.09 38.23
  C -0.04 19.14 14.56 2.43 33.53 2.45
  Z
  M 45.68 15.36
  A 1.61 1.61 0.0 0 0 44.16 17.06
  L 45.41 40.11
  A 1.61 1.61 0.0 0 0 47.11 41.63
  L 50.45 41.45
  A 1.61 1.61 0.0 0 0 51.97 39.92
  L 53.11 16.73
  A 1.61 1.61 0.0 0 0 51.42 15.05
  L 45.68 15.36
  Z
  M 34.16 21.27
  C 34.83 18.03 33.52 16.16 30.08 16.13
  Q 20.41 16.05 17.05 16.12
  Q 13.23 16.20 13.22 19.84
  Q 13.17 39.40 13.11 42.30
  Q 13.03 46.08 16.07 47.44
  Q 24.80 51.34 28.66 53.02
  C 31.32 54.17 32.85 53.83 34.07 51.11
  Q 38.90 40.31 43.39 29.68
  Q 44.66 26.66 42.01 25.43
  Q 35.27 22.30 34.55 22.01
  A 0.65 0.64 17.6 0 1 34.16 21.27
  Z
  M 52.8509 45.2754
  A 1.59 1.59 0.0 0 0 51.2554 43.6909
  L 46.0554 43.7091
  A 1.59 1.59 0.0 0 0 44.4709 45.3046
  L 44.4891 50.5046
  A 1.59 1.59 0.0 0 0 46.0846 52.0891
  L 51.2846 52.0709
  A 1.59 1.59 0.0 0 0 52.8691 50.4754
  L 52.8509 45.2754
  Z"
/>
<path fill="#383743" d="
  M 45.68 15.36
  L 51.42 15.05
  A 1.61 1.61 0.0 0 1 53.11 16.73
  L 51.97 39.92
  A 1.61 1.61 0.0 0 1 50.45 41.45
  L 47.11 41.63
  A 1.61 1.61 0.0 0 1 45.41 40.11
  L 44.16 17.06
  A 1.61 1.61 0.0 0 1 45.68 15.36
  Z
  M 46.00 16.65
  A 0.62 0.62 0.0 0 0 45.41 17.30
  L 46.65 40.02
  A 0.62 0.62 0.0 0 0 47.30 40.61
  L 50.21 40.45
  A 0.62 0.62 0.0 0 0 50.80 39.86
  L 51.93 17.01
  A 0.62 0.62 0.0 0 0 51.27 16.36
  L 46.00 16.65
  Z"
/>
<path fill="#383743" d="
  M 34.16 21.27
  A 0.65 0.64 17.6 0 0 34.55 22.01
  Q 35.27 22.30 42.01 25.43
  Q 44.66 26.66 43.39 29.68
  Q 38.90 40.31 34.07 51.11
  C 32.85 53.83 31.32 54.17 28.66 53.02
  Q 24.80 51.34 16.07 47.44
  Q 13.03 46.08 13.11 42.30
  Q 13.17 39.40 13.22 19.84
  Q 13.23 16.20 17.05 16.12
  Q 20.41 16.05 30.08 16.13
  C 33.52 16.16 34.83 18.03 34.16 21.27
  Z
  M 14.40 42.29
  A 0.23 0.22 58.0 0 0 14.83 42.39
  Q 22.00 26.07 24.23 20.82
  Q 25.64 17.51 32.57 21.19
  A 0.33 0.33 0.0 0 0 33.05 20.88
  L 32.93 18.63
  A 1.37 1.37 0.0 0 0 31.62 17.34
  Q 28.10 17.20 17.23 17.25
  Q 14.36 17.27 14.42 20.46
  Q 14.68 34.05 14.40 42.29
  Z
  M 42.4559 29.0261
  A 1.99 1.99 0.0 0 0 41.4336 26.4040
  L 28.4495 20.7044
  A 1.99 1.99 0.0 0 0 25.8275 21.7267
  L 16.0441 44.0139
  A 1.99 1.99 0.0 0 0 17.0664 46.6360
  L 30.0505 52.3356
  A 1.99 1.99 0.0 0 0 32.6725 51.3133
  L 42.4559 29.0261
  Z"
/>
<path fill="#ffffff" d="
  M 46.00 16.65
  L 51.27 16.36
  A 0.62 0.62 0.0 0 1 51.93 17.01
  L 50.80 39.86
  A 0.62 0.62 0.0 0 1 50.21 40.45
  L 47.30 40.61
  A 0.62 0.62 0.0 0 1 46.65 40.02
  L 45.41 17.30
  A 0.62 0.62 0.0 0 1 46.00 16.65
  Z"
/>
<path fill="#ffffff" d="
  M 14.40 42.29
  Q 14.68 34.05 14.42 20.46
  Q 14.36 17.27 17.23 17.25
  Q 28.10 17.20 31.62 17.34
  A 1.37 1.37 0.0 0 1 32.93 18.63
  L 33.05 20.88
  A 0.33 0.33 0.0 0 1 32.57 21.19
  Q 25.64 17.51 24.23 20.82
  Q 22.00 26.07 14.83 42.39
  A 0.23 0.22 58.0 0 1 14.40 42.29
  Z"
/>
<rect fill="#ffffff" x="-9.08" y="-14.16" transform="translate(29.25,36.52) rotate(23.7)" width="18.16" height="28.32" rx="1.99"/>
<path fill="#383743" d="
  M 52.8691 50.4754
  A 1.59 1.59 0.0 0 1 51.2846 52.0709
  L 46.0846 52.0891
  A 1.59 1.59 0.0 0 1 44.4891 50.5046
  L 44.4709 45.3046
  A 1.59 1.59 0.0 0 1 46.0554 43.7091
  L 51.2554 43.6909
  A 1.59 1.59 0.0 0 1 52.8509 45.2754
  L 52.8691 50.4754
  Z
  M 51.7442 45.4854
  A 0.50 0.50 0.0 0 0 51.2451 44.9846
  L 46.0051 44.9754
  A 0.50 0.50 0.0 0 0 45.5042 45.4746
  L 45.4958 50.2746
  A 0.50 0.50 0.0 0 0 45.9949 50.7754
  L 51.2349 50.7846
  A 0.50 0.50 0.0 0 0 51.7358 50.2854
  L 51.7442 45.4854
  Z"
/>
<rect fill="#ffffff" x="-3.12" y="-2.90" transform="translate(48.62,47.88) rotate(0.1)" width="6.24" height="5.80" rx="0.50"/>
</svg>
