<?xml version="1.0" encoding="UTF-8" standalone="no"?>
<!DOCTYPE svg PUBLIC "-//W3C//DTD SVG 1.1//EN" "http://www.w3.org/Graphics/SVG/1.1/DTD/svg11.dtd">
<svg xmlns="http://www.w3.org/2000/svg" version="1.1" viewBox="0.00 0.00 66.00 88.00">
<g stroke-width="2.00" fill="none" stroke-linecap="butt">
<path stroke="#282a22" vector-effect="non-scaling-stroke" d="
  M 33.39 86.55
  Q 33.52 86.55 33.62 86.52
  Q 33.64 86.52 33.79 86.38
  C 44.76 76.20 54.84 63.84 60.60 50.07
  C 64.46 40.86 65.95 29.35 61.52 20.30
  C 56.15 9.32 45.78 2.64 33.54 2.62
  C 21.30 2.60 10.91 9.24 5.50 20.20
  C 1.04 29.24 2.49 40.75 6.31 49.97
  C 12.03 63.76 22.06 76.16 33.00 86.38
  Q 33.15 86.52 33.16 86.52
  Q 33.27 86.55 33.39 86.55"
/>
<path stroke="#9a9b96" vector-effect="non-scaling-stroke" d="
  M 33.84 17.00
  Q 35.43 16.95 35.85 17.10
  A 0.34 0.34 0.0 0 0 36.18 16.52
  Q 35.35 15.81 33.80 15.87
  Q 32.25 15.92 31.47 16.68
  A 0.34 0.34 0.0 0 0 31.84 17.24
  Q 32.25 17.06 33.84 17.00"
/>
<path stroke="#9a9b96" vector-effect="non-scaling-stroke" d="
  M 33.39 21.13
  Q 31.09 23.61 31.23 24.27
  A 0.47 0.46 -10.4 0 0 31.76 24.63
  Q 34.50 24.20 36.08 21.50
  A 0.49 0.49 0.0 0 1 37.00 21.75
  L 37.00 24.39
  A 0.39 0.39 0.0 0 0 37.71 24.60
  C 38.76 23.01 39.44 19.85 37.18 18.73
  C 34.34 17.33 28.43 17.58 29.10 22.37
  Q 29.40 24.49 29.54 24.69
  A 0.36 0.36 0.0 0 0 30.17 24.60
  Q 31.26 21.71 33.12 20.78
  A 0.23 0.22 7.7 0 1 33.39 21.13"
/>
<path stroke="#9a9b96" vector-effect="non-scaling-stroke" d="
  M 35.76 23.85
  L 31.03 26.19
  A 0.27 0.27 0.0 0 0 30.90 26.55
  L 30.98 26.71
  A 2.97 2.87 63.7 0 0 34.87 28.10
  L 34.94 28.07
  A 2.97 2.87 63.7 0 0 36.20 24.13
  L 36.12 23.97
  A 0.27 0.27 0.0 0 0 35.76 23.85"
/>
<path stroke="#9a9b96" vector-effect="non-scaling-stroke" d="
  M 36.22 29.46
  Q 33.96 31.18 30.71 29.28
  A 0.31 0.31 0.0 0 0 30.24 29.55
  L 30.24 29.85
  A 0.75 0.74 79.9 0 1 29.76 30.55
  C 25.63 32.10 26.18 36.18 26.49 39.75
  A 0.61 0.60 86.5 0 0 27.11 40.31
  Q 29.46 40.25 30.94 38.29
  Q 33.55 34.85 37.46 32.71
  A 1.13 1.13 0.0 0 0 37.89 31.15
  L 37.01 29.61
  A 0.54 0.54 0.0 0 0 36.22 29.46"
/>
<path stroke="#9a9b96" vector-effect="non-scaling-stroke" d="
  M 37.78 37.66
  Q 37.89 37.92 38.51 39.97
  Q 39.16 42.11 41.58 40.61
  A 0.63 0.63 0.0 0 0 41.72 39.67
  C 40.52 38.28 40.24 35.57 39.72 33.50
  A 0.32 0.32 0.0 0 0 39.17 33.37
  Q 38.11 34.60 35.66 35.98
  A 2.15 1.90 3.5 0 0 35.20 36.34
  L 29.64 42.19
  A 0.89 0.88 37.0 0 0 29.84 43.57
  L 32.30 44.99
  A 1.39 1.39 0.0 0 0 33.70 44.99
  L 36.29 43.50
  A 1.09 1.07 77.7 0 0 36.82 42.66
  L 37.28 37.72
  A 0.26 0.26 0.0 0 1 37.78 37.66"
/>
<path stroke="#9a9b96" vector-effect="non-scaling-stroke" d="
  M 43.23 49.82
  A 2.13 1.88 -5.8 0 0 40.45 47.83
  Q 38.08 48.57 36.82 48.70
  A 2.53 2.51 56.3 0 1 35.35 48.40
  L 23.03 41.63
  A 2.43 2.42 -66.1 0 0 19.57 42.97
  L 19.46 43.28
  A 3.16 3.15 20.7 0 0 21.09 46.89
  C 25.85 49.30 29.84 49.70 36.23 50.50
  Q 37.16 50.62 39.07 51.93
  A 1.83 1.77 -26.9 0 0 40.10 52.25
  Q 42.83 52.25 43.23 49.82"
/>
<path stroke="#9a9b96" vector-effect="non-scaling-stroke" d="
  M 35.88 46.75
  C 38.62 46.36 42.24 45.04 43.76 46.76
  A 0.85 0.84 53.9 0 0 44.81 46.93
  Q 47.93 45.09 46.35 42.45
  A 1.28 1.26 80.8 0 0 45.54 41.86
  Q 43.71 41.44 41.94 42.46
  Q 35.84 45.96 35.61 46.20
  A 0.32 0.32 0.0 0 0 35.88 46.75"
/>
<path stroke="#9a9b96" vector-effect="non-scaling-stroke" d="
  M 25.00 51.60
  Q 25.94 51.91 26.53 51.53
  A 0.41 0.41 0.0 0 0 26.54 50.85
  Q 26.52 50.83 25.37 50.46
  Q 24.23 50.08 24.20 50.08
  A 0.41 0.41 0.0 0 0 23.81 50.63
  Q 24.05 51.29 25.00 51.60"
/>
</g>
<path fill="#1c1e17" d="
  M 33.81 88.00
  L 33.04 88.00
  C 21.94 77.92 11.92 65.50 5.64 51.57
  Q 2.23 44.01 1.60 34.90
  C 0.49 18.90 11.37 5.51 26.73 2.06
  C 41.51 -1.26 56.60 6.36 62.98 20.59
  C 66.61 28.66 65.95 38.70 63.05 47.01
  C 57.58 62.66 45.99 76.88 33.81 88.00
  Z
  M 33.39 86.55
  Q 33.52 86.55 33.62 86.52
  Q 33.64 86.52 33.79 86.38
  C 44.76 76.20 54.84 63.84 60.60 50.07
  C 64.46 40.86 65.95 29.35 61.52 20.30
  C 56.15 9.32 45.78 2.64 33.54 2.62
  C 21.30 2.60 10.91 9.24 5.50 20.20
  C 1.04 29.24 2.49 40.75 6.31 49.97
  C 12.03 63.76 22.06 76.16 33.00 86.38
  Q 33.15 86.52 33.16 86.52
  Q 33.27 86.55 33.39 86.55
  Z"
/>
<path fill="#34362c" d="
  M 33.39 86.55
  Q 33.27 86.55 33.16 86.52
  Q 33.15 86.52 33.00 86.38
  C 22.06 76.16 12.03 63.76 6.31 49.97
  C 2.49 40.75 1.04 29.24 5.50 20.20
  C 10.91 9.24 21.30 2.60 33.54 2.62
  C 45.78 2.64 56.15 9.32 61.52 20.30
  C 65.95 29.35 64.46 40.86 60.60 50.07
  C 54.84 63.84 44.76 76.20 33.79 86.38
  Q 33.64 86.52 33.62 86.52
  Q 33.52 86.55 33.39 86.55
  Z
  M 33.84 17.00
  Q 35.43 16.95 35.85 17.10
  A 0.34 0.34 0.0 0 0 36.18 16.52
  Q 35.35 15.81 33.80 15.87
  Q 32.25 15.92 31.47 16.68
  A 0.34 0.34 0.0 0 0 31.84 17.24
  Q 32.25 17.06 33.84 17.00
  Z
  M 33.39 21.13
  Q 31.09 23.61 31.23 24.27
  A 0.47 0.46 -10.4 0 0 31.76 24.63
  Q 34.50 24.20 36.08 21.50
  A 0.49 0.49 0.0 0 1 37.00 21.75
  L 37.00 24.39
  A 0.39 0.39 0.0 0 0 37.71 24.60
  C 38.76 23.01 39.44 19.85 37.18 18.73
  C 34.34 17.33 28.43 17.58 29.10 22.37
  Q 29.40 24.49 29.54 24.69
  A 0.36 0.36 0.0 0 0 30.17 24.60
  Q 31.26 21.71 33.12 20.78
  A 0.23 0.22 7.7 0 1 33.39 21.13
  Z
  M 35.76 23.85
  L 31.03 26.19
  A 0.27 0.27 0.0 0 0 30.90 26.55
  L 30.98 26.71
  A 2.97 2.87 63.7 0 0 34.87 28.10
  L 34.94 28.07
  A 2.97 2.87 63.7 0 0 36.20 24.13
  L 36.12 23.97
  A 0.27 0.27 0.0 0 0 35.76 23.85
  Z
  M 36.22 29.46
  Q 33.96 31.18 30.71 29.28
  A 0.31 0.31 0.0 0 0 30.24 29.55
  L 30.24 29.85
  A 0.75 0.74 79.9 0 1 29.76 30.55
  C 25.63 32.10 26.18 36.18 26.49 39.75
  A 0.61 0.60 86.5 0 0 27.11 40.31
  Q 29.46 40.25 30.94 38.29
  Q 33.55 34.85 37.46 32.71
  A 1.13 1.13 0.0 0 0 37.89 31.15
  L 37.01 29.61
  A 0.54 0.54 0.0 0 0 36.22 29.46
  Z
  M 37.78 37.66
  Q 37.89 37.92 38.51 39.97
  Q 39.16 42.11 41.58 40.61
  A 0.63 0.63 0.0 0 0 41.72 39.67
  C 40.52 38.28 40.24 35.57 39.72 33.50
  A 0.32 0.32 0.0 0 0 39.17 33.37
  Q 38.11 34.60 35.66 35.98
  A 2.15 1.90 3.5 0 0 35.20 36.34
  L 29.64 42.19
  A 0.89 0.88 37.0 0 0 29.84 43.57
  L 32.30 44.99
  A 1.39 1.39 0.0 0 0 33.70 44.99
  L 36.29 43.50
  A 1.09 1.07 77.7 0 0 36.82 42.66
  L 37.28 37.72
  A 0.26 0.26 0.0 0 1 37.78 37.66
  Z
  M 43.23 49.82
  A 2.13 1.88 -5.8 0 0 40.45 47.83
  Q 38.08 48.57 36.82 48.70
  A 2.53 2.51 56.3 0 1 35.35 48.40
  L 23.03 41.63
  A 2.43 2.42 -66.1 0 0 19.57 42.97
  L 19.46 43.28
  A 3.16 3.15 20.7 0 0 21.09 46.89
  C 25.85 49.30 29.84 49.70 36.23 50.50
  Q 37.16 50.62 39.07 51.93
  A 1.83 1.77 -26.9 0 0 40.10 52.25
  Q 42.83 52.25 43.23 49.82
  Z
  M 35.88 46.75
  C 38.62 46.36 42.24 45.04 43.76 46.76
  A 0.85 0.84 53.9 0 0 44.81 46.93
  Q 47.93 45.09 46.35 42.45
  A 1.28 1.26 80.8 0 0 45.54 41.86
  Q 43.71 41.44 41.94 42.46
  Q 35.84 45.96 35.61 46.20
  A 0.32 0.32 0.0 0 0 35.88 46.75
  Z
  M 25.00 51.60
  Q 25.94 51.91 26.53 51.53
  A 0.41 0.41 0.0 0 0 26.54 50.85
  Q 26.52 50.83 25.37 50.46
  Q 24.23 50.08 24.20 50.08
  A 0.41 0.41 0.0 0 0 23.81 50.63
  Q 24.05 51.29 25.00 51.60
  Z"
/>
<path fill="#ffffff" d="
  M 33.80 15.87
  Q 35.35 15.81 36.18 16.52
  A 0.34 0.34 0.0 0 1 35.85 17.10
  Q 35.43 16.95 33.84 17.00
  Q 32.25 17.06 31.84 17.24
  A 0.34 0.34 0.0 0 1 31.47 16.68
  Q 32.25 15.92 33.80 15.87
  Z"
/>
<path fill="#ffffff" d="
  M 33.12 20.78
  Q 31.26 21.71 30.17 24.60
  A 0.36 0.36 0.0 0 1 29.54 24.69
  Q 29.40 24.49 29.10 22.37
  C 28.43 17.58 34.34 17.33 37.18 18.73
  C 39.44 19.85 38.76 23.01 37.71 24.60
  A 0.39 0.39 0.0 0 1 37.00 24.39
  L 37.00 21.75
  A 0.49 0.49 0.0 0 0 36.08 21.50
  Q 34.50 24.20 31.76 24.63
  A 0.47 0.46 -10.4 0 1 31.23 24.27
  Q 31.09 23.61 33.39 21.13
  A 0.23 0.22 7.7 0 0 33.12 20.78
  Z"
/>
<path fill="#ffffff" d="
  M 35.76 23.85
  A 0.27 0.27 0.0 0 1 36.12 23.97
  L 36.20 24.13
  A 2.97 2.87 63.7 0 1 34.94 28.07
  L 34.87 28.10
  A 2.97 2.87 63.7 0 1 30.98 26.71
  L 30.90 26.55
  A 0.27 0.27 0.0 0 1 31.03 26.19
  L 35.76 23.85
  Z"
/>
<path fill="#ffffff" d="
  M 36.22 29.46
  A 0.54 0.54 0.0 0 1 37.01 29.61
  L 37.89 31.15
  A 1.13 1.13 0.0 0 1 37.46 32.71
  Q 33.55 34.85 30.94 38.29
  Q 29.46 40.25 27.11 40.31
  A 0.61 0.60 86.5 0 1 26.49 39.75
  C 26.18 36.18 25.63 32.10 29.76 30.55
  A 0.75 0.74 79.9 0 0 30.24 29.85
  L 30.24 29.55
  A 0.31 0.31 0.0 0 1 30.71 29.28
  Q 33.96 31.18 36.22 29.46
  Z"
/>
<path fill="#ffffff" d="
  M 37.78 37.66
  A 0.26 0.26 0.0 0 0 37.28 37.72
  L 36.82 42.66
  A 1.09 1.07 77.7 0 1 36.29 43.50
  L 33.70 44.99
  A 1.39 1.39 0.0 0 1 32.30 44.99
  L 29.84 43.57
  A 0.89 0.88 37.0 0 1 29.64 42.19
  L 35.20 36.34
  A 2.15 1.90 3.5 0 1 35.66 35.98
  Q 38.11 34.60 39.17 33.37
  A 0.32 0.32 0.0 0 1 39.72 33.50
  C 40.24 35.57 40.52 38.28 41.72 39.67
  A 0.63 0.63 0.0 0 1 41.58 40.61
  Q 39.16 42.11 38.51 39.97
  Q 37.89 37.92 37.78 37.66
  Z"
/>
<path fill="#ffffff" d="
  M 43.23 49.82
  Q 42.83 52.25 40.10 52.25
  A 1.83 1.77 -26.9 0 1 39.07 51.93
  Q 37.16 50.62 36.23 50.50
  C 29.84 49.70 25.85 49.30 21.09 46.89
  A 3.16 3.15 20.7 0 1 19.46 43.28
  L 19.57 42.97
  A 2.43 2.42 -66.1 0 1 23.03 41.63
  L 35.35 48.40
  A 2.53 2.51 56.3 0 0 36.82 48.70
  Q 38.08 48.57 40.45 47.83
  A 2.13 1.88 -5.8 0 1 43.23 49.82
  Z"
/>
<path fill="#ffffff" d="
  M 35.88 46.75
  A 0.32 0.32 0.0 0 1 35.61 46.20
  Q 35.84 45.96 41.94 42.46
  Q 43.71 41.44 45.54 41.86
  A 1.28 1.26 80.8 0 1 46.35 42.45
  Q 47.93 45.09 44.81 46.93
  A 0.85 0.84 53.9 0 1 43.76 46.76
  C 42.24 45.04 38.62 46.36 35.88 46.75
  Z"
/>
<path fill="#ffffff" d="
  M 25.37 50.46
  Q 26.52 50.83 26.54 50.85
  A 0.41 0.41 0.0 0 1 26.53 51.53
  Q 25.94 51.91 25.00 51.60
  Q 24.05 51.29 23.81 50.63
  A 0.41 0.41 0.0 0 1 24.20 50.08
  Q 24.23 50.08 25.37 50.46
  Z"
/>
</svg>
