<?xml version="1.0" encoding="UTF-8" standalone="no"?>
<!DOCTYPE svg PUBLIC "-//W3C//DTD SVG 1.1//EN" "http://www.w3.org/Graphics/SVG/1.1/DTD/svg11.dtd">
<svg xmlns="http://www.w3.org/2000/svg" version="1.1" viewBox="0.00 0.00 66.00 88.00">
<g stroke-width="2.00" fill="none" stroke-linecap="butt">
<path stroke="#464544" vector-effect="non-scaling-stroke" d="
  M 33.42 86.61
  C 34.17 86.62 33.57 86.67 33.79 86.46
  Q 47.63 73.64 56.69 58.20
  C 64.00 45.73 68.20 28.55 58.97 15.78
  C 52.98 7.48 43.99 2.55 33.54 2.54
  C 23.08 2.52 14.08 7.43 8.07 15.71
  C -1.20 28.45 2.95 45.64 10.23 58.13
  Q 19.24 73.60 33.04 86.46
  C 33.27 86.67 32.67 86.61 33.42 86.61"
/>
<path stroke="#aeadad" vector-effect="non-scaling-stroke" d="
  M 32.52 41.28
  C 30.32 34.21 43.92 33.18 40.44 23.06
  Q 37.72 15.15 27.99 15.96
  A 2.34 2.33 -1.8 0 0 25.85 18.23
  L 25.85 18.26
  A 2.06 2.06 0.0 0 0 27.93 20.38
  C 31.26 20.34 35.69 18.11 37.47 22.73
  C 38.62 25.74 35.23 29.37 33.22 31.12
  C 29.53 34.32 27.43 37.70 30.55 42.23
  A 1.11 1.10 19.2 0 0 32.52 41.28"
/>
<path stroke="#aeadad" vector-effect="non-scaling-stroke" d="
  M 34.86 49.21
  A 3.21 3.21 0.0 0 0 31.65 46.00
  A 3.21 3.21 0.0 0 0 28.44 49.21
  A 3.21 3.21 0.0 0 0 31.65 52.42
  A 3.21 3.21 0.0 0 0 34.86 49.21"
/>
</g>
<path fill="#2f2f2e" d="
  M 33.78 88.00
  L 33.04 88.00
  C 16.67 73.12 -6.59 43.92 4.22 20.07
  Q 8.20 11.29 16.62 6.05
  C 28.08 -1.08 44.43 -0.23 54.88 9.40
  Q 68.06 21.53 64.84 40.02
  C 61.69 58.03 47.09 75.96 33.78 88.00
  Z
  M 33.42 86.61
  C 34.17 86.62 33.57 86.67 33.79 86.46
  Q 47.63 73.64 56.69 58.20
  C 64.00 45.73 68.20 28.55 58.97 15.78
  C 52.98 7.48 43.99 2.55 33.54 2.54
  C 23.08 2.52 14.08 7.43 8.07 15.71
  C -1.20 28.45 2.95 45.64 10.23 58.13
  Q 19.24 73.60 33.04 86.46
  C 33.27 86.67 32.67 86.61 33.42 86.61
  Z"
/>
<path fill="#5c5a5a" d="
  M 33.54 2.54
  C 43.99 2.55 52.98 7.48 58.97 15.78
  C 68.20 28.55 64.00 45.73 56.69 58.20
  Q 47.63 73.64 33.79 86.46
  C 33.57 86.67 34.17 86.62 33.42 86.61
  C 32.67 86.61 33.27 86.67 33.04 86.46
  Q 19.24 73.60 10.23 58.13
  C 2.95 45.64 -1.20 28.45 8.07 15.71
  C 14.08 7.43 23.08 2.52 33.54 2.54
  Z
  M 32.52 41.28
  C 30.32 34.21 43.92 33.18 40.44 23.06
  Q 37.72 15.15 27.99 15.96
  A 2.34 2.33 -1.8 0 0 25.85 18.23
  L 25.85 18.26
  A 2.06 2.06 0.0 0 0 27.93 20.38
  C 31.26 20.34 35.69 18.11 37.47 22.73
  C 38.62 25.74 35.23 29.37 33.22 31.12
  C 29.53 34.32 27.43 37.70 30.55 42.23
  A 1.11 1.10 19.2 0 0 32.52 41.28
  Z
  M 34.86 49.21
  A 3.21 3.21 0.0 0 0 31.65 46.00
  A 3.21 3.21 0.0 0 0 28.44 49.21
  A 3.21 3.21 0.0 0 0 31.65 52.42
  A 3.21 3.21 0.0 0 0 34.86 49.21
  Z"
/>
<path fill="#ffffff" d="
  M 32.52 41.28
  A 1.11 1.10 19.2 0 1 30.55 42.23
  C 27.43 37.70 29.53 34.32 33.22 31.12
  C 35.23 29.37 38.62 25.74 37.47 22.73
  C 35.69 18.11 31.26 20.34 27.93 20.38
  A 2.06 2.06 0.0 0 1 25.85 18.26
  L 25.85 18.23
  A 2.34 2.33 -1.8 0 1 27.99 15.96
  Q 37.72 15.15 40.44 23.06
  C 43.92 33.18 30.32 34.21 32.52 41.28
  Z"
/>
<circle fill="#ffffff" cx="31.65" cy="49.21" r="3.21"/>
</svg>
