<?xml version="1.0" encoding="UTF-8" standalone="no"?>
<!DOCTYPE svg PUBLIC "-//W3C//DTD SVG 1.1//EN" "http://www.w3.org/Graphics/SVG/1.1/DTD/svg11.dtd">
<svg xmlns="http://www.w3.org/2000/svg" version="1.1" viewBox="0.00 0.00 66.00 88.00">
<g stroke-width="2.00" fill="none" stroke-linecap="butt">
<path stroke="#464544" vector-effect="non-scaling-stroke" d="
  M 33.42 86.61
  C 33.71 86.61 33.68 86.62 33.82 86.49
  C 47.08 74.01 60.68 57.10 63.63 39.36
  Q 67.23 17.71 48.46 6.35
  Q 42.13 2.51 33.53 2.50
  Q 24.93 2.49 18.58 6.31
  Q -0.22 17.63 3.33 39.29
  C 6.24 57.03 19.79 73.98 33.02 86.49
  C 33.17 86.62 33.13 86.61 33.42 86.61"
/>
<path stroke="#aeadad" vector-effect="non-scaling-stroke" d="
  M 32.97 23.52
  Q 36.19 23.52 38.12 25.88
  A 0.49 0.49 0.0 0 0 38.93 25.81
  Q 39.22 25.28 41.71 23.95
  A 0.64 0.63 -28.1 0 0 41.97 23.09
  C 40.14 19.69 36.99 15.83 32.97 15.83
  C 28.95 15.83 25.81 19.70 23.97 23.11
  A 0.64 0.63 28.1 0 0 24.24 23.96
  Q 26.73 25.29 27.02 25.82
  A 0.49 0.49 0.0 0 0 27.83 25.89
  Q 29.76 23.52 32.97 23.52"
/>
<path stroke="#aeadad" vector-effect="non-scaling-stroke" d="
  M 32.99 35.99
  Q 33.22 35.99 33.27 36.04
  Q 36.29 39.03 38.12 40.90
  A 0.51 0.51 0.0 0 0 38.84 40.90
  L 43.56 36.18
  A 0.62 0.62 0.0 0 1 44.43 36.18
  L 46.22 37.97
  A 0.26 0.26 0.0 0 0 46.66 37.77
  Q 46.20 32.10 43.84 26.79
  A 0.65 0.65 0.0 0 0 43.06 26.43
  Q 40.49 27.19 40.17 29.05
  A 1.72 1.71 40.4 0 1 36.86 29.30
  Q 35.82 26.30 32.98 26.30
  Q 30.15 26.30 29.11 29.30
  A 1.72 1.71 -40.5 0 1 25.80 29.06
  Q 25.48 27.20 22.91 26.44
  A 0.65 0.65 0.0 0 0 22.13 26.80
  Q 19.77 32.11 19.32 37.78
  A 0.26 0.26 0.0 0 0 19.76 37.98
  L 21.55 36.19
  A 0.62 0.62 0.0 0 1 22.42 36.19
  L 27.14 40.90
  A 0.51 0.51 0.0 0 0 27.86 40.90
  Q 29.69 39.03 32.70 36.04
  Q 32.76 35.99 32.99 35.99"
/>
<path stroke="#aeadad" vector-effect="non-scaling-stroke" d="
  M 33.00 52.25
  C 39.38 52.24 44.14 48.41 46.17 42.54
  A 1.00 1.00 0.0 0 0 45.94 41.52
  L 44.30 39.88
  A 0.48 0.48 0.0 0 0 43.62 39.88
  L 38.93 44.57
  A 0.61 0.60 -46.8 0 1 38.11 44.60
  Q 36.77 43.43 33.88 40.38
  Q 33.15 39.62 32.98 39.62
  Q 32.81 39.62 32.09 40.38
  Q 29.20 43.44 27.87 44.61
  A 0.61 0.60 46.7 0 1 27.05 44.58
  L 22.35 39.90
  A 0.48 0.48 0.0 0 0 21.67 39.91
  L 20.03 41.55
  A 1.00 1.00 0.0 0 0 19.80 42.57
  C 21.85 48.44 26.61 52.25 33.00 52.25"
/>
</g>
<path fill="#2f2f2e" d="
  M 33.80 88.00
  L 33.04 88.00
  C 21.87 77.85 12.07 65.67 5.74 51.77
  Q 2.85 45.44 1.95 38.75
  Q -0.15 23.20 8.83 12.77
  C 19.34 0.58 36.97 -2.43 50.68 6.30
  Q 62.36 13.75 64.91 27.03
  C 69.19 49.26 49.14 74.03 33.80 88.00
  Z
  M 33.42 86.61
  C 33.71 86.61 33.68 86.62 33.82 86.49
  C 47.08 74.01 60.68 57.10 63.63 39.36
  Q 67.23 17.71 48.46 6.35
  Q 42.13 2.51 33.53 2.50
  Q 24.93 2.49 18.58 6.31
  Q -0.22 17.63 3.33 39.29
  C 6.24 57.03 19.79 73.98 33.02 86.49
  C 33.17 86.62 33.13 86.61 33.42 86.61
  Z"
/>
<path fill="#5c5a5a" d="
  M 33.53 2.50
  Q 42.13 2.51 48.46 6.35
  Q 67.23 17.71 63.63 39.36
  C 60.68 57.10 47.08 74.01 33.82 86.49
  C 33.68 86.62 33.71 86.61 33.42 86.61
  C 33.13 86.61 33.17 86.62 33.02 86.49
  C 19.79 73.98 6.24 57.03 3.33 39.29
  Q -0.22 17.63 18.58 6.31
  Q 24.93 2.49 33.53 2.50
  Z
  M 32.97 23.52
  Q 36.19 23.52 38.12 25.88
  A 0.49 0.49 0.0 0 0 38.93 25.81
  Q 39.22 25.28 41.71 23.95
  A 0.64 0.63 -28.1 0 0 41.97 23.09
  C 40.14 19.69 36.99 15.83 32.97 15.83
  C 28.95 15.83 25.81 19.70 23.97 23.11
  A 0.64 0.63 28.1 0 0 24.24 23.96
  Q 26.73 25.29 27.02 25.82
  A 0.49 0.49 0.0 0 0 27.83 25.89
  Q 29.76 23.52 32.97 23.52
  Z
  M 32.99 35.99
  Q 33.22 35.99 33.27 36.04
  Q 36.29 39.03 38.12 40.90
  A 0.51 0.51 0.0 0 0 38.84 40.90
  L 43.56 36.18
  A 0.62 0.62 0.0 0 1 44.43 36.18
  L 46.22 37.97
  A 0.26 0.26 0.0 0 0 46.66 37.77
  Q 46.20 32.10 43.84 26.79
  A 0.65 0.65 0.0 0 0 43.06 26.43
  Q 40.49 27.19 40.17 29.05
  A 1.72 1.71 40.4 0 1 36.86 29.30
  Q 35.82 26.30 32.98 26.30
  Q 30.15 26.30 29.11 29.30
  A 1.72 1.71 -40.5 0 1 25.80 29.06
  Q 25.48 27.20 22.91 26.44
  A 0.65 0.65 0.0 0 0 22.13 26.80
  Q 19.77 32.11 19.32 37.78
  A 0.26 0.26 0.0 0 0 19.76 37.98
  L 21.55 36.19
  A 0.62 0.62 0.0 0 1 22.42 36.19
  L 27.14 40.90
  A 0.51 0.51 0.0 0 0 27.86 40.90
  Q 29.69 39.03 32.70 36.04
  Q 32.76 35.99 32.99 35.99
  Z
  M 33.00 52.25
  C 39.38 52.24 44.14 48.41 46.17 42.54
  A 1.00 1.00 0.0 0 0 45.94 41.52
  L 44.30 39.88
  A 0.48 0.48 0.0 0 0 43.62 39.88
  L 38.93 44.57
  A 0.61 0.60 -46.8 0 1 38.11 44.60
  Q 36.77 43.43 33.88 40.38
  Q 33.15 39.62 32.98 39.62
  Q 32.81 39.62 32.09 40.38
  Q 29.20 43.44 27.87 44.61
  A 0.61 0.60 46.7 0 1 27.05 44.58
  L 22.35 39.90
  A 0.48 0.48 0.0 0 0 21.67 39.91
  L 20.03 41.55
  A 1.00 1.00 0.0 0 0 19.80 42.57
  C 21.85 48.44 26.61 52.25 33.00 52.25
  Z"
/>
<path fill="#ffffff" d="
  M 32.97 15.83
  C 36.99 15.83 40.14 19.69 41.97 23.09
  A 0.64 0.63 -28.1 0 1 41.71 23.95
  Q 39.22 25.28 38.93 25.81
  A 0.49 0.49 0.0 0 1 38.12 25.88
  Q 36.19 23.52 32.97 23.52
  Q 29.76 23.52 27.83 25.89
  A 0.49 0.49 0.0 0 1 27.02 25.82
  Q 26.73 25.29 24.24 23.96
  A 0.64 0.63 28.1 0 1 23.97 23.11
  C 25.81 19.70 28.95 15.83 32.97 15.83
  Z"
/>
<path fill="#ffffff" d="
  M 32.98 26.30
  Q 35.82 26.30 36.86 29.30
  A 1.72 1.71 40.4 0 0 40.17 29.05
  Q 40.49 27.19 43.06 26.43
  A 0.65 0.65 0.0 0 1 43.84 26.79
  Q 46.20 32.10 46.66 37.77
  A 0.26 0.26 0.0 0 1 46.22 37.97
  L 44.43 36.18
  A 0.62 0.62 0.0 0 0 43.56 36.18
  L 38.84 40.90
  A 0.51 0.51 0.0 0 1 38.12 40.90
  Q 36.29 39.03 33.27 36.04
  Q 33.22 35.99 32.99 35.99
  Q 32.76 35.99 32.70 36.04
  Q 29.69 39.03 27.86 40.90
  A 0.51 0.51 0.0 0 1 27.14 40.90
  L 22.42 36.19
  A 0.62 0.62 0.0 0 0 21.55 36.19
  L 19.76 37.98
  A 0.26 0.26 0.0 0 1 19.32 37.78
  Q 19.77 32.11 22.13 26.80
  A 0.65 0.65 0.0 0 1 22.91 26.44
  Q 25.48 27.20 25.80 29.06
  A 1.72 1.71 -40.5 0 0 29.11 29.30
  Q 30.15 26.30 32.98 26.30
  Z"
/>
<path fill="#ffffff" d="
  M 32.98 39.62
  Q 33.15 39.62 33.88 40.38
  Q 36.77 43.43 38.11 44.60
  A 0.61 0.60 -46.8 0 0 38.93 44.57
  L 43.62 39.88
  A 0.48 0.48 0.0 0 1 44.30 39.88
  L 45.94 41.52
  A 1.00 1.00 0.0 0 1 46.17 42.54
  C 44.14 48.41 39.38 52.24 33.00 52.25
  C 26.61 52.25 21.85 48.44 19.80 42.57
  A 1.00 1.00 0.0 0 1 20.03 41.55
  L 21.67 39.91
  A 0.48 0.48 0.0 0 1 22.35 39.90
  L 27.05 44.58
  A 0.61 0.60 46.7 0 0 27.87 44.61
  Q 29.20 43.44 32.09 40.38
  Q 32.81 39.62 32.98 39.62
  Z"
/>
</svg>
