<?xml version="1.0" encoding="UTF-8" standalone="no"?>
<!DOCTYPE svg PUBLIC "-//W3C//DTD SVG 1.1//EN" "http://www.w3.org/Graphics/SVG/1.1/DTD/svg11.dtd">
<svg xmlns="http://www.w3.org/2000/svg" version="1.1" viewBox="0.00 0.00 66.00 88.00">
<g stroke-width="2.00" fill="none" stroke-linecap="butt">
<path stroke="#282a22" vector-effect="non-scaling-stroke" d="
  M 33.38 86.56
  Q 33.60 86.56 34.07 86.11
  C 48.85 72.19 64.81 52.05 64.18 31.50
  C 63.69 15.14 49.65 2.66 33.54 2.63
  C 17.42 2.60 3.34 15.03 2.78 31.39
  C 2.08 51.94 17.97 72.13 32.69 86.11
  Q 33.17 86.56 33.38 86.56"
/>
<path stroke="#9a9b96" vector-effect="non-scaling-stroke" d="
  M 27.79 26.27
  C 27.63 28.93 26.93 29.57 25.45 31.48
  C 23.01 34.66 23.27 38.24 27.49 39.83
  C 33.44 42.07 42.45 40.84 43.12 32.76
  Q 43.38 29.62 42.86 26.58
  A 0.31 0.31 0.0 0 0 42.28 26.48
  Q 40.77 29.05 39.96 29.36
  A 0.30 0.30 0.0 0 1 39.56 28.99
  C 41.33 23.36 32.20 22.62 34.21 16.74
  A 0.28 0.28 0.0 0 0 33.79 16.42
  C 30.91 18.34 29.92 21.23 30.38 24.70
  Q 30.62 26.45 30.70 29.00
  A 0.23 0.22 -9.6 0 1 30.53 29.23
  L 30.26 29.30
  A 0.56 0.56 0.0 0 1 29.57 28.91
  Q 29.19 27.51 28.24 26.14
  A 0.25 0.25 0.0 0 0 27.79 26.27"
/>
<path stroke="#9a9b96" vector-effect="non-scaling-stroke" d="
  M 44.12 35.06
  Q 43.61 36.62 44.87 37.30
  A 0.46 0.46 0.0 0 1 44.98 38.03
  L 33.40 49.61
  A 0.62 0.62 0.0 0 1 32.52 49.61
  L 21.06 38.16
  A 0.60 0.60 0.0 0 1 21.06 37.32
  L 22.00 36.39
  A 1.20 1.20 0.0 0 0 22.31 35.80
  L 22.58 34.35
  A 0.30 0.30 0.0 0 0 22.07 34.08
  L 18.81 37.35
  A 0.54 0.54 0.0 0 0 18.81 38.12
  L 32.55 51.86
  A 0.61 0.61 0.0 0 0 33.41 51.86
  L 47.12 38.15
  A 0.60 0.59 45.3 0 0 47.12 37.30
  L 44.74 34.91
  A 0.38 0.38 0.0 0 0 44.12 35.06"
/>
<path stroke="#9a9b96" vector-effect="non-scaling-stroke" d="
  M 32.94 46.56
  Q 33.13 46.56 33.25 46.45
  Q 37.15 42.69 37.68 42.18
  A 0.29 0.28 -70.5 0 0 37.45 41.69
  Q 34.96 42.02 33.42 44.17
  Q 33.27 44.38 32.97 44.37
  Q 32.68 44.37 32.54 44.16
  Q 31.06 41.96 28.58 41.55
  A 0.29 0.28 72.3 0 0 28.34 42.03
  Q 28.85 42.56 32.63 46.44
  Q 32.75 46.55 32.94 46.56"
/>
<path stroke="#9a9b96" vector-effect="non-scaling-stroke" d="
  M 33.29 36.60
  L 33.96 39.12
  A 0.76 0.75 72.0 0 0 34.95 39.63
  C 38.00 38.46 38.83 35.85 36.37 33.37
  Q 34.85 31.84 34.40 30.29
  A 0.36 0.36 0.0 0 0 33.74 30.22
  Q 32.25 32.93 29.45 35.27
  A 1.43 1.42 71.0 0 0 28.94 36.32
  Q 28.86 38.63 31.31 39.69
  A 0.56 0.56 0.0 0 0 32.09 39.23
  Q 32.19 38.01 32.88 36.56
  A 0.22 0.22 0.0 0 1 33.29 36.60"
/>
</g>
<path fill="#1c1e17" d="
  M 33.80 88.00
  L 33.04 88.00
  C 22.01 77.99 11.60 65.24 5.59 51.41
  Q 2.12 43.44 1.54 34.82
  C 0.48 18.92 11.32 5.65 26.70 2.05
  C 37.49 -0.48 49.70 3.36 57.26 11.77
  Q 67.82 23.53 64.84 39.76
  Q 62.53 52.32 54.57 64.07
  Q 45.67 77.20 33.80 88.00
  Z
  M 33.38 86.56
  Q 33.60 86.56 34.07 86.11
  C 48.85 72.19 64.81 52.05 64.18 31.50
  C 63.69 15.14 49.65 2.66 33.54 2.63
  C 17.42 2.60 3.34 15.03 2.78 31.39
  C 2.08 51.94 17.97 72.13 32.69 86.11
  Q 33.17 86.56 33.38 86.56
  Z"
/>
<path fill="#34362c" d="
  M 33.54 2.63
  C 49.65 2.66 63.69 15.14 64.18 31.50
  C 64.81 52.05 48.85 72.19 34.07 86.11
  Q 33.60 86.56 33.38 86.56
  Q 33.17 86.56 32.69 86.11
  C 17.97 72.13 2.08 51.94 2.78 31.39
  C 3.34 15.03 17.42 2.60 33.54 2.63
  Z
  M 27.79 26.27
  C 27.63 28.93 26.93 29.57 25.45 31.48
  C 23.01 34.66 23.27 38.24 27.49 39.83
  C 33.44 42.07 42.45 40.84 43.12 32.76
  Q 43.38 29.62 42.86 26.58
  A 0.31 0.31 0.0 0 0 42.28 26.48
  Q 40.77 29.05 39.96 29.36
  A 0.30 0.30 0.0 0 1 39.56 28.99
  C 41.33 23.36 32.20 22.62 34.21 16.74
  A 0.28 0.28 0.0 0 0 33.79 16.42
  C 30.91 18.34 29.92 21.23 30.38 24.70
  Q 30.62 26.45 30.70 29.00
  A 0.23 0.22 -9.6 0 1 30.53 29.23
  L 30.26 29.30
  A 0.56 0.56 0.0 0 1 29.57 28.91
  Q 29.19 27.51 28.24 26.14
  A 0.25 0.25 0.0 0 0 27.79 26.27
  Z
  M 44.12 35.06
  Q 43.61 36.62 44.87 37.30
  A 0.46 0.46 0.0 0 1 44.98 38.03
  L 33.40 49.61
  A 0.62 0.62 0.0 0 1 32.52 49.61
  L 21.06 38.16
  A 0.60 0.60 0.0 0 1 21.06 37.32
  L 22.00 36.39
  A 1.20 1.20 0.0 0 0 22.31 35.80
  L 22.58 34.35
  A 0.30 0.30 0.0 0 0 22.07 34.08
  L 18.81 37.35
  A 0.54 0.54 0.0 0 0 18.81 38.12
  L 32.55 51.86
  A 0.61 0.61 0.0 0 0 33.41 51.86
  L 47.12 38.15
  A 0.60 0.59 45.3 0 0 47.12 37.30
  L 44.74 34.91
  A 0.38 0.38 0.0 0 0 44.12 35.06
  Z
  M 32.94 46.56
  Q 33.13 46.56 33.25 46.45
  Q 37.15 42.69 37.68 42.18
  A 0.29 0.28 -70.5 0 0 37.45 41.69
  Q 34.96 42.02 33.42 44.17
  Q 33.27 44.38 32.97 44.37
  Q 32.68 44.37 32.54 44.16
  Q 31.06 41.96 28.58 41.55
  A 0.29 0.28 72.3 0 0 28.34 42.03
  Q 28.85 42.56 32.63 46.44
  Q 32.75 46.55 32.94 46.56
  Z"
/>
<path fill="#ffffff" d="
  M 28.24 26.14
  Q 29.19 27.51 29.57 28.91
  A 0.56 0.56 0.0 0 0 30.26 29.30
  L 30.53 29.23
  A 0.23 0.22 -9.6 0 0 30.70 29.00
  Q 30.62 26.45 30.38 24.70
  C 29.92 21.23 30.91 18.34 33.79 16.42
  A 0.28 0.28 0.0 0 1 34.21 16.74
  C 32.20 22.62 41.33 23.36 39.56 28.99
  A 0.30 0.30 0.0 0 0 39.96 29.36
  Q 40.77 29.05 42.28 26.48
  A 0.31 0.31 0.0 0 1 42.86 26.58
  Q 43.38 29.62 43.12 32.76
  C 42.45 40.84 33.44 42.07 27.49 39.83
  C 23.27 38.24 23.01 34.66 25.45 31.48
  C 26.93 29.57 27.63 28.93 27.79 26.27
  A 0.25 0.25 0.0 0 1 28.24 26.14
  Z
  M 33.29 36.60
  L 33.96 39.12
  A 0.76 0.75 72.0 0 0 34.95 39.63
  C 38.00 38.46 38.83 35.85 36.37 33.37
  Q 34.85 31.84 34.40 30.29
  A 0.36 0.36 0.0 0 0 33.74 30.22
  Q 32.25 32.93 29.45 35.27
  A 1.43 1.42 71.0 0 0 28.94 36.32
  Q 28.86 38.63 31.31 39.69
  A 0.56 0.56 0.0 0 0 32.09 39.23
  Q 32.19 38.01 32.88 36.56
  A 0.22 0.22 0.0 0 1 33.29 36.60
  Z"
/>
<path fill="#34362c" d="
  M 32.88 36.56
  Q 32.19 38.01 32.09 39.23
  A 0.56 0.56 0.0 0 1 31.31 39.69
  Q 28.86 38.63 28.94 36.32
  A 1.43 1.42 71.0 0 1 29.45 35.27
  Q 32.25 32.93 33.74 30.22
  A 0.36 0.36 0.0 0 1 34.40 30.29
  Q 34.85 31.84 36.37 33.37
  C 38.83 35.85 38.00 38.46 34.95 39.63
  A 0.76 0.75 72.0 0 1 33.96 39.12
  L 33.29 36.60
  A 0.22 0.22 0.0 0 0 32.88 36.56
  Z"
/>
<path fill="#ffffff" d="
  M 44.74 34.91
  L 47.12 37.30
  A 0.60 0.59 45.3 0 1 47.12 38.15
  L 33.41 51.86
  A 0.61 0.61 0.0 0 1 32.55 51.86
  L 18.81 38.12
  A 0.54 0.54 0.0 0 1 18.81 37.35
  L 22.07 34.08
  A 0.30 0.30 0.0 0 1 22.58 34.35
  L 22.31 35.80
  A 1.20 1.20 0.0 0 1 22.00 36.39
  L 21.06 37.32
  A 0.60 0.60 0.0 0 0 21.06 38.16
  L 32.52 49.61
  A 0.62 0.62 0.0 0 0 33.40 49.61
  L 44.98 38.03
  A 0.46 0.46 0.0 0 0 44.87 37.30
  Q 43.61 36.62 44.12 35.06
  A 0.38 0.38 0.0 0 1 44.74 34.91
  Z"
/>
<path fill="#ffffff" d="
  M 32.97 44.37
  Q 33.27 44.38 33.42 44.17
  Q 34.96 42.02 37.45 41.69
  A 0.29 0.28 -70.5 0 1 37.68 42.18
  Q 37.15 42.69 33.25 46.45
  Q 33.13 46.56 32.94 46.56
  Q 32.75 46.55 32.63 46.44
  Q 28.85 42.56 28.34 42.03
  A 0.29 0.28 72.3 0 1 28.58 41.55
  Q 31.06 41.96 32.54 44.16
  Q 32.68 44.37 32.97 44.37
  Z"
/>
</svg>
