<?xml version="1.0" encoding="UTF-8" standalone="no"?>
<!DOCTYPE svg PUBLIC "-//W3C//DTD SVG 1.1//EN" "http://www.w3.org/Graphics/SVG/1.1/DTD/svg11.dtd">
<svg xmlns="http://www.w3.org/2000/svg" version="1.1" viewBox="0.00 0.00 66.00 88.00">
<g stroke-width="2.00" fill="none" stroke-linecap="butt">
<path stroke="#2b4c38" vector-effect="non-scaling-stroke" d="
  M 33.42 86.65
  Q 33.48 86.65 33.53 86.65
  A 0.36 0.28 -62.1 0 0 33.72 86.56
  Q 48.34 73.26 57.54 56.51
  Q 62.56 47.39 63.77 39.02
  Q 66.90 17.55 48.75 6.53
  Q 42.16 2.53 33.53 2.52
  Q 24.90 2.51 18.30 6.49
  Q 0.12 17.46 3.20 38.94
  Q 4.38 47.31 9.38 56.45
  Q 18.54 73.22 33.12 86.56
  A 0.36 0.28 62.2 0 0 33.31 86.65
  Q 33.36 86.65 33.42 86.65"
/>
<path stroke="#9cb1a5" vector-effect="non-scaling-stroke" d="
  M 38.65 21.38
  A 5.61 5.61 0.0 0 0 33.04 15.77
  A 5.61 5.61 0.0 0 0 27.43 21.38
  A 5.61 5.61 0.0 0 0 33.04 26.99
  A 5.61 5.61 0.0 0 0 38.65 21.38"
/>
<path stroke="#9cb1a5" vector-effect="non-scaling-stroke" d="
  M 33.02 52.25
  Q 34.66 52.25 35.43 52.07
  A 1.76 1.75 -23.1 0 0 36.50 49.41
  Q 35.12 47.27 36.05 44.65
  A 1.67 1.66 -46.1 0 0 36.03 43.48
  Q 34.12 38.65 34.35 31.83
  A 0.54 0.54 0.0 0 1 35.04 31.33
  Q 37.25 31.96 39.02 34.00
  A 0.81 0.80 -65.7 0 0 40.43 33.46
  L 40.43 26.80
  A 0.90 0.90 0.0 0 0 38.89 26.16
  Q 36.11 28.94 33.06 28.93
  Q 30.01 28.93 27.24 26.14
  A 0.90 0.90 0.0 0 0 25.70 26.77
  L 25.68 33.43
  A 0.81 0.80 65.9 0 0 27.08 33.98
  Q 28.86 31.95 31.07 31.32
  A 0.54 0.54 0.0 0 1 31.76 31.83
  Q 31.97 38.65 30.04 43.47
  A 1.67 1.66 46.3 0 0 30.02 44.64
  Q 30.94 47.26 29.55 49.40
  A 1.76 1.75 23.3 0 0 30.61 52.06
  Q 31.38 52.25 33.02 52.25"
/>
</g>
<path fill="#1c3425" d="
  M 33.78 88.00
  L 33.04 88.00
  C 17.15 73.56 -4.60 46.34 3.05 23.09
  Q 5.52 15.56 11.53 9.92
  C 23.60 -1.43 43.76 -1.79 56.02 10.47
  Q 68.37 22.83 64.57 41.41
  Q 62.91 49.49 57.90 58.20
  Q 48.26 74.91 33.78 88.00
  Z
  M 33.42 86.65
  Q 33.48 86.65 33.53 86.65
  A 0.36 0.28 -62.1 0 0 33.72 86.56
  Q 48.34 73.26 57.54 56.51
  Q 62.56 47.39 63.77 39.02
  Q 66.90 17.55 48.75 6.53
  Q 42.16 2.53 33.53 2.52
  Q 24.90 2.51 18.30 6.49
  Q 0.12 17.46 3.20 38.94
  Q 4.38 47.31 9.38 56.45
  Q 18.54 73.22 33.12 86.56
  A 0.36 0.28 62.2 0 0 33.31 86.65
  Q 33.36 86.65 33.42 86.65
  Z"
/>
<path fill="#39634a" d="
  M 33.53 2.52
  Q 42.16 2.53 48.75 6.53
  Q 66.90 17.55 63.77 39.02
  Q 62.56 47.39 57.54 56.51
  Q 48.34 73.26 33.72 86.56
  A 0.36 0.28 -62.1 0 1 33.53 86.65
  Q 33.48 86.65 33.42 86.65
  Q 33.36 86.65 33.31 86.65
  A 0.36 0.28 62.2 0 1 33.12 86.56
  Q 18.54 73.22 9.38 56.45
  Q 4.38 47.31 3.20 38.94
  Q 0.12 17.46 18.30 6.49
  Q 24.90 2.51 33.53 2.52
  Z
  M 38.65 21.38
  A 5.61 5.61 0.0 0 0 33.04 15.77
  A 5.61 5.61 0.0 0 0 27.43 21.38
  A 5.61 5.61 0.0 0 0 33.04 26.99
  A 5.61 5.61 0.0 0 0 38.65 21.38
  Z
  M 33.02 52.25
  Q 34.66 52.25 35.43 52.07
  A 1.76 1.75 -23.1 0 0 36.50 49.41
  Q 35.12 47.27 36.05 44.65
  A 1.67 1.66 -46.1 0 0 36.03 43.48
  Q 34.12 38.65 34.35 31.83
  A 0.54 0.54 0.0 0 1 35.04 31.33
  Q 37.25 31.96 39.02 34.00
  A 0.81 0.80 -65.7 0 0 40.43 33.46
  L 40.43 26.80
  A 0.90 0.90 0.0 0 0 38.89 26.16
  Q 36.11 28.94 33.06 28.93
  Q 30.01 28.93 27.24 26.14
  A 0.90 0.90 0.0 0 0 25.70 26.77
  L 25.68 33.43
  A 0.81 0.80 65.9 0 0 27.08 33.98
  Q 28.86 31.95 31.07 31.32
  A 0.54 0.54 0.0 0 1 31.76 31.83
  Q 31.97 38.65 30.04 43.47
  A 1.67 1.66 46.3 0 0 30.02 44.64
  Q 30.94 47.26 29.55 49.40
  A 1.76 1.75 23.3 0 0 30.61 52.06
  Q 31.38 52.25 33.02 52.25
  Z"
/>
<circle fill="#ffffff" cx="33.04" cy="21.38" r="5.61"/>
<path fill="#ffffff" d="
  M 33.06 28.93
  Q 36.11 28.94 38.89 26.16
  A 0.90 0.90 0.0 0 1 40.43 26.80
  L 40.43 33.46
  A 0.81 0.80 -65.7 0 1 39.02 34.00
  Q 37.25 31.96 35.04 31.33
  A 0.54 0.54 0.0 0 0 34.35 31.83
  Q 34.12 38.65 36.03 43.48
  A 1.67 1.66 -46.1 0 1 36.05 44.65
  Q 35.12 47.27 36.50 49.41
  A 1.76 1.75 -23.1 0 1 35.43 52.07
  Q 34.66 52.25 33.02 52.25
  Q 31.38 52.25 30.61 52.06
  A 1.76 1.75 23.3 0 1 29.55 49.40
  Q 30.94 47.26 30.02 44.64
  A 1.67 1.66 46.3 0 1 30.04 43.47
  Q 31.97 38.65 31.76 31.83
  A 0.54 0.54 0.0 0 0 31.07 31.32
  Q 28.86 31.95 27.08 33.98
  A 0.81 0.80 65.9 0 1 25.68 33.43
  L 25.70 26.77
  A 0.90 0.90 0.0 0 1 27.24 26.14
  Q 30.01 28.93 33.06 28.93
  Z"
/>
</svg>
