<?xml version="1.0" encoding="UTF-8" standalone="no"?>
<!DOCTYPE svg PUBLIC "-//W3C//DTD SVG 1.1//EN" "http://www.w3.org/Graphics/SVG/1.1/DTD/svg11.dtd">
<svg xmlns="http://www.w3.org/2000/svg" version="1.1" viewBox="0.00 0.00 66.00 88.00">
<g stroke-width="2.00" fill="none" stroke-linecap="butt">
<path stroke="#2b4c38" vector-effect="non-scaling-stroke" d="
  M 33.42 86.65
  Q 33.48 86.65 33.52 86.64
  A 0.31 0.13 -51.1 0 0 33.70 86.55
  Q 45.37 75.70 53.74 63.01
  C 62.84 49.22 69.60 29.98 58.54 15.21
  C 52.58 7.24 43.69 2.54 33.53 2.52
  C 23.36 2.51 14.46 7.20 8.48 15.15
  C -2.62 29.89 4.10 49.15 13.16 62.96
  Q 21.50 75.67 33.14 86.55
  A 0.31 0.13 51.2 0 0 33.32 86.64
  Q 33.37 86.65 33.42 86.65"
/>
<path stroke="#9cb1a5" vector-effect="non-scaling-stroke" d="
  M 38.04 17.45
  A 0.21 0.21 0.0 0 0 38.07 17.04
  C 32.84 15.57 26.25 18.80 23.03 22.52
  Q 18.57 27.64 19.93 33.26
  Q 21.79 41.00 29.99 39.67
  A 0.65 0.64 -36.4 0 0 30.17 38.46
  Q 22.95 34.85 25.72 27.05
  Q 28.84 18.26 38.04 17.45"
/>
<path stroke="#9cb1a5" vector-effect="non-scaling-stroke" d="
  M 48.63 47.25
  A 0.21 0.21 0.0 0 0 49.02 47.39
  C 51.88 42.76 50.59 35.51 47.90 31.37
  Q 44.19 25.65 38.40 25.39
  Q 30.42 25.05 29.42 33.32
  A 0.65 0.65 0.0 0 0 30.54 33.84
  Q 36.02 27.87 42.79 32.70
  Q 50.39 38.15 48.63 47.25"
/>
<path stroke="#9cb1a5" vector-effect="non-scaling-stroke" d="
  M 15.22 37.04
  A 0.21 0.21 0.0 0 0 14.82 37.13
  C 14.91 42.57 19.90 47.97 24.39 50.00
  Q 30.59 52.81 35.60 49.90
  Q 42.49 45.89 38.87 38.40
  A 0.65 0.65 0.0 0 0 37.65 38.57
  Q 36.26 46.54 27.97 46.12
  Q 18.64 45.64 15.22 37.04"
/>
</g>
<path fill="#1c3425" d="
  M 33.81 88.00
  L 33.14 88.00
  Q 15.91 72.74 6.24 53.02
  Q 2.36 45.11 1.64 35.55
  Q 0.92 25.95 5.20 18.08
  C 11.25 6.96 23.34 0.35 36.24 1.44
  C 53.17 2.87 66.22 17.21 65.45 34.16
  Q 65.10 42.09 62.12 49.56
  C 56.29 64.18 45.37 77.44 33.81 88.00
  Z
  M 33.42 86.65
  Q 33.48 86.65 33.52 86.64
  A 0.31 0.13 -51.1 0 0 33.70 86.55
  Q 45.37 75.70 53.74 63.01
  C 62.84 49.22 69.60 29.98 58.54 15.21
  C 52.58 7.24 43.69 2.54 33.53 2.52
  C 23.36 2.51 14.46 7.20 8.48 15.15
  C -2.62 29.89 4.10 49.15 13.16 62.96
  Q 21.50 75.67 33.14 86.55
  A 0.31 0.13 51.2 0 0 33.32 86.64
  Q 33.37 86.65 33.42 86.65
  Z"
/>
<path fill="#39634a" d="
  M 33.53 2.52
  C 43.69 2.54 52.58 7.24 58.54 15.21
  C 69.60 29.98 62.84 49.22 53.74 63.01
  Q 45.37 75.70 33.70 86.55
  A 0.31 0.13 -51.1 0 1 33.52 86.64
  Q 33.48 86.65 33.42 86.65
  Q 33.37 86.65 33.32 86.64
  A 0.31 0.13 51.2 0 1 33.14 86.55
  Q 21.50 75.67 13.16 62.96
  C 4.10 49.15 -2.62 29.89 8.48 15.15
  C 14.46 7.20 23.36 2.51 33.53 2.52
  Z
  M 38.04 17.45
  A 0.21 0.21 0.0 0 0 38.07 17.04
  C 32.84 15.57 26.25 18.80 23.03 22.52
  Q 18.57 27.64 19.93 33.26
  Q 21.79 41.00 29.99 39.67
  A 0.65 0.64 -36.4 0 0 30.17 38.46
  Q 22.95 34.85 25.72 27.05
  Q 28.84 18.26 38.04 17.45
  Z
  M 48.63 47.25
  A 0.21 0.21 0.0 0 0 49.02 47.39
  C 51.88 42.76 50.59 35.51 47.90 31.37
  Q 44.19 25.65 38.40 25.39
  Q 30.42 25.05 29.42 33.32
  A 0.65 0.65 0.0 0 0 30.54 33.84
  Q 36.02 27.87 42.79 32.70
  Q 50.39 38.15 48.63 47.25
  Z
  M 15.22 37.04
  A 0.21 0.21 0.0 0 0 14.82 37.13
  C 14.91 42.57 19.90 47.97 24.39 50.00
  Q 30.59 52.81 35.60 49.90
  Q 42.49 45.89 38.87 38.40
  A 0.65 0.65 0.0 0 0 37.65 38.57
  Q 36.26 46.54 27.97 46.12
  Q 18.64 45.64 15.22 37.04
  Z"
/>
<path fill="#ffffff" d="
  M 38.04 17.45
  Q 28.84 18.26 25.72 27.05
  Q 22.95 34.85 30.17 38.46
  A 0.65 0.64 -36.4 0 1 29.99 39.67
  Q 21.79 41.00 19.93 33.26
  Q 18.57 27.64 23.03 22.52
  C 26.25 18.80 32.84 15.57 38.07 17.04
  A 0.21 0.21 0.0 0 1 38.04 17.45
  Z"
/>
<path fill="#ffffff" d="
  M 48.63 47.25
  Q 50.39 38.15 42.79 32.70
  Q 36.02 27.87 30.54 33.84
  A 0.65 0.65 0.0 0 1 29.42 33.32
  Q 30.42 25.05 38.40 25.39
  Q 44.19 25.65 47.90 31.37
  C 50.59 35.51 51.88 42.76 49.02 47.39
  A 0.21 0.21 0.0 0 1 48.63 47.25
  Z"
/>
<path fill="#ffffff" d="
  M 15.22 37.04
  Q 18.64 45.64 27.97 46.12
  Q 36.26 46.54 37.65 38.57
  A 0.65 0.65 0.0 0 1 38.87 38.40
  Q 42.49 45.89 35.60 49.90
  Q 30.59 52.81 24.39 50.00
  C 19.90 47.97 14.91 42.57 14.82 37.13
  A 0.21 0.21 0.0 0 1 15.22 37.04
  Z"
/>
</svg>
