<?xml version="1.0" encoding="UTF-8" standalone="no"?>
<!DOCTYPE svg PUBLIC "-//W3C//DTD SVG 1.1//EN" "http://www.w3.org/Graphics/SVG/1.1/DTD/svg11.dtd">
<svg xmlns="http://www.w3.org/2000/svg" version="1.1" viewBox="0.00 0.00 66.00 88.00">
<g stroke-width="2.00" fill="none" stroke-linecap="butt">
<path stroke="#431a44" vector-effect="non-scaling-stroke" d="
  M 33.41 86.53
  Q 33.51 86.53 33.61 86.50
  Q 33.76 86.46 33.80 86.43
  C 44.73 76.27 54.83 63.84 60.65 49.96
  C 64.34 41.17 65.82 30.61 62.17 21.75
  C 57.33 10.01 46.44 2.86 33.75 2.46
  Q 33.63 2.46 33.51 2.46
  Q 33.40 2.46 33.28 2.46
  C 20.59 2.83 9.68 9.95 4.81 21.68
  C 1.14 30.53 2.59 41.10 6.26 49.90
  C 12.05 63.79 22.12 76.24 33.03 86.43
  Q 33.07 86.46 33.21 86.50
  Q 33.31 86.53 33.41 86.53"
/>
<path stroke="#ac91ac" vector-effect="non-scaling-stroke" d="
  M 21.85 28.20
  A 0.37 0.37 0.0 0 1 21.73 28.93
  Q 20.76 28.92 19.48 29.52
  Q 18.89 29.80 19.39 30.48
  Q 19.66 30.85 20.28 31.11
  A 0.44 0.42 53.9 0 1 20.17 31.94
  Q 19.70 31.96 19.39 32.31
  A 0.74 0.71 66.1 0 0 19.22 32.78
  L 19.22 40.91
  A 0.79 0.78 -84.1 0 0 19.84 41.68
  L 22.66 42.24
  A 0.40 0.40 0.0 0 1 22.58 43.03
  L 20.20 43.03
  A 0.87 0.87 0.0 0 0 19.34 43.77
  Q 18.93 46.51 19.44 48.81
  A 2.34 2.33 83.4 0 0 21.74 50.65
  Q 23.20 50.62 24.22 49.17
  A 1.67 1.67 0.0 0 0 24.53 48.30
  Q 24.59 47.47 24.61 45.73
  C 24.63 44.00 25.98 42.31 27.50 42.29
  Q 33.46 42.19 42.80 42.26
  A 0.41 0.40 -0.0 0 0 43.21 41.86
  L 43.21 33.87
  A 0.92 0.90 10.2 0 0 42.61 33.02
  Q 41.94 32.77 40.75 32.78
  A 0.36 0.36 0.0 0 1 40.64 32.08
  L 42.67 31.41
  A 0.79 0.79 0.0 0 0 43.21 30.66
  L 43.21 24.63
  A 0.79 0.79 0.0 0 0 42.41 23.84
  Q 41.92 23.85 41.71 23.77
  A 0.34 0.34 0.0 0 1 41.75 23.12
  L 42.43 22.95
  A 0.48 0.48 0.0 0 0 42.32 22.00
  L 41.44 22.00
  A 0.35 0.35 0.0 0 1 41.31 21.33
  Q 41.82 21.13 42.31 21.19
  A 0.83 0.82 -88.6 0 0 43.23 20.31
  C 43.01 17.13 41.02 15.68 37.68 15.72
  Q 31.00 15.81 16.52 15.71
  A 0.08 0.08 0.0 0 0 16.47 15.86
  C 20.53 19.04 19.00 22.49 19.30 27.34
  A 0.77 0.77 0.0 0 0 20.02 28.05
  Q 21.68 28.15 21.85 28.20"
/>
<path stroke="#ac91ac" vector-effect="non-scaling-stroke" d="
  M 23.73 52.51
  L 44.32 52.51
  A 4.34 4.34 0.0 0 0 48.61 48.85
  L 49.04 46.13
  A 1.62 1.61 4.5 0 0 47.44 44.26
  L 27.68 44.26
  A 1.19 1.19 0.0 0 0 26.49 45.45
  L 26.49 49.00
  A 1.61 1.59 -22.7 0 1 26.02 50.13
  L 23.70 52.45
  A 0.04 0.03 20.8 0 0 23.73 52.51"
/>
<path stroke="#ac91ac" vector-effect="non-scaling-stroke" d="
  M 36.7908 26.3198
  A 0.55 0.55 0.0 0 0 36.2417 25.7688
  L 26.1617 25.7512
  A 0.55 0.55 0.0 0 0 25.6108 26.3002
  L 25.6092 27.1802
  A 0.55 0.55 0.0 0 0 26.1583 27.7312
  L 36.2383 27.7488
  A 0.55 0.55 0.0 0 0 36.7892 27.1998
  L 36.7908 26.3198"
/>
<path stroke="#ac91ac" vector-effect="non-scaling-stroke" d="
  M 36.7808 30.0065
  A 0.51 0.51 0.0 0 0 36.2717 29.4956
  L 29.8518 29.4844
  A 0.51 0.51 0.0 0 0 29.3409 29.9935
  L 29.3392 30.9735
  A 0.51 0.51 0.0 0 0 29.8483 31.4844
  L 36.2682 31.4956
  A 0.51 0.51 0.0 0 0 36.7791 30.9865
  L 36.7808 30.0065"
/>
<path stroke="#ac91ac" vector-effect="non-scaling-stroke" d="
  M 36.7908 33.7897
  A 0.54 0.54 0.0 0 0 36.2518 33.2488
  L 26.1718 33.2312
  A 0.54 0.54 0.0 0 0 25.6308 33.7703
  L 25.6292 34.7103
  A 0.54 0.54 0.0 0 0 26.1682 35.2512
  L 36.2482 35.2688
  A 0.54 0.54 0.0 0 0 36.7892 34.7297
  L 36.7908 33.7897"
/>
<path stroke="#ac91ac" vector-effect="non-scaling-stroke" d="
  M 36.9001 37.8434
  A 0.81 0.81 0.0 0 0 36.0929 37.0306
  L 30.0330 37.0094
  A 0.81 0.81 0.0 0 0 29.2202 37.8166
  L 29.2199 37.8966
  A 0.81 0.81 0.0 0 0 30.0271 38.7094
  L 36.0870 38.7306
  A 0.81 0.81 0.0 0 0 36.8998 37.9234
  L 36.9001 37.8434"
/>
</g>
<path fill="#2e112e" d="
  M 33.81 88.00
  L 33.04 88.00
  C 21.75 77.74 12.13 65.70 5.66 51.56
  Q 0.20 39.60 2.06 26.55
  Q 2.40 24.15 4.24 20.05
  C 12.26 2.25 34.39 -4.00 50.66 6.30
  Q 62.33 13.69 64.91 27.03
  C 69.22 49.26 49.10 74.03 33.81 88.00
  Z
  M 33.41 86.53
  Q 33.51 86.53 33.61 86.50
  Q 33.76 86.46 33.80 86.43
  C 44.73 76.27 54.83 63.84 60.65 49.96
  C 64.34 41.17 65.82 30.61 62.17 21.75
  C 57.33 10.01 46.44 2.86 33.75 2.46
  Q 33.63 2.46 33.51 2.46
  Q 33.40 2.46 33.28 2.46
  C 20.59 2.83 9.68 9.95 4.81 21.68
  C 1.14 30.53 2.59 41.10 6.26 49.90
  C 12.05 63.79 22.12 76.24 33.03 86.43
  Q 33.07 86.46 33.21 86.50
  Q 33.31 86.53 33.41 86.53
  Z"
/>
<path fill="#582359" d="
  M 33.51 2.46
  Q 33.63 2.46 33.75 2.46
  C 46.44 2.86 57.33 10.01 62.17 21.75
  C 65.82 30.61 64.34 41.17 60.65 49.96
  C 54.83 63.84 44.73 76.27 33.80 86.43
  Q 33.76 86.46 33.61 86.50
  Q 33.51 86.53 33.41 86.53
  Q 33.31 86.53 33.21 86.50
  Q 33.07 86.46 33.03 86.43
  C 22.12 76.24 12.05 63.79 6.26 49.90
  C 2.59 41.10 1.14 30.53 4.81 21.68
  C 9.68 9.95 20.59 2.83 33.28 2.46
  Q 33.40 2.46 33.51 2.46
  Z
  M 21.85 28.20
  A 0.37 0.37 0.0 0 1 21.73 28.93
  Q 20.76 28.92 19.48 29.52
  Q 18.89 29.80 19.39 30.48
  Q 19.66 30.85 20.28 31.11
  A 0.44 0.42 53.9 0 1 20.17 31.94
  Q 19.70 31.96 19.39 32.31
  A 0.74 0.71 66.1 0 0 19.22 32.78
  L 19.22 40.91
  A 0.79 0.78 -84.1 0 0 19.84 41.68
  L 22.66 42.24
  A 0.40 0.40 0.0 0 1 22.58 43.03
  L 20.20 43.03
  A 0.87 0.87 0.0 0 0 19.34 43.77
  Q 18.93 46.51 19.44 48.81
  A 2.34 2.33 83.4 0 0 21.74 50.65
  Q 23.20 50.62 24.22 49.17
  A 1.67 1.67 0.0 0 0 24.53 48.30
  Q 24.59 47.47 24.61 45.73
  C 24.63 44.00 25.98 42.31 27.50 42.29
  Q 33.46 42.19 42.80 42.26
  A 0.41 0.40 -0.0 0 0 43.21 41.86
  L 43.21 33.87
  A 0.92 0.90 10.2 0 0 42.61 33.02
  Q 41.94 32.77 40.75 32.78
  A 0.36 0.36 0.0 0 1 40.64 32.08
  L 42.67 31.41
  A 0.79 0.79 0.0 0 0 43.21 30.66
  L 43.21 24.63
  A 0.79 0.79 0.0 0 0 42.41 23.84
  Q 41.92 23.85 41.71 23.77
  A 0.34 0.34 0.0 0 1 41.75 23.12
  L 42.43 22.95
  A 0.48 0.48 0.0 0 0 42.32 22.00
  L 41.44 22.00
  A 0.35 0.35 0.0 0 1 41.31 21.33
  Q 41.82 21.13 42.31 21.19
  A 0.83 0.82 -88.6 0 0 43.23 20.31
  C 43.01 17.13 41.02 15.68 37.68 15.72
  Q 31.00 15.81 16.52 15.71
  A 0.08 0.08 0.0 0 0 16.47 15.86
  C 20.53 19.04 19.00 22.49 19.30 27.34
  A 0.77 0.77 0.0 0 0 20.02 28.05
  Q 21.68 28.15 21.85 28.20
  Z
  M 23.73 52.51
  L 44.32 52.51
  A 4.34 4.34 0.0 0 0 48.61 48.85
  L 49.04 46.13
  A 1.62 1.61 4.5 0 0 47.44 44.26
  L 27.68 44.26
  A 1.19 1.19 0.0 0 0 26.49 45.45
  L 26.49 49.00
  A 1.61 1.59 -22.7 0 1 26.02 50.13
  L 23.70 52.45
  A 0.04 0.03 20.8 0 0 23.73 52.51
  Z"
/>
<path fill="#ffffff" d="
  M 21.85 28.20
  Q 21.68 28.15 20.02 28.05
  A 0.77 0.77 0.0 0 1 19.30 27.34
  C 19.00 22.49 20.53 19.04 16.47 15.86
  A 0.08 0.08 0.0 0 1 16.52 15.71
  Q 31.00 15.81 37.68 15.72
  C 41.02 15.68 43.01 17.13 43.23 20.31
  A 0.83 0.82 -88.6 0 1 42.31 21.19
  Q 41.82 21.13 41.31 21.33
  A 0.35 0.35 0.0 0 0 41.44 22.00
  L 42.32 22.00
  A 0.48 0.48 0.0 0 1 42.43 22.95
  L 41.75 23.12
  A 0.34 0.34 0.0 0 0 41.71 23.77
  Q 41.92 23.85 42.41 23.84
  A 0.79 0.79 0.0 0 1 43.21 24.63
  L 43.21 30.66
  A 0.79 0.79 0.0 0 1 42.67 31.41
  L 40.64 32.08
  A 0.36 0.36 0.0 0 0 40.75 32.78
  Q 41.94 32.77 42.61 33.02
  A 0.92 0.90 10.2 0 1 43.21 33.87
  L 43.21 41.86
  A 0.41 0.40 0.0 0 1 42.80 42.26
  Q 33.46 42.19 27.50 42.29
  C 25.98 42.31 24.63 44.00 24.61 45.73
  Q 24.59 47.47 24.53 48.30
  A 1.67 1.67 0.0 0 1 24.22 49.17
  Q 23.20 50.62 21.74 50.65
  A 2.34 2.33 83.4 0 1 19.44 48.81
  Q 18.93 46.51 19.34 43.77
  A 0.87 0.87 0.0 0 1 20.20 43.03
  L 22.58 43.03
  A 0.40 0.40 0.0 0 0 22.66 42.24
  L 19.84 41.68
  A 0.79 0.78 -84.1 0 1 19.22 40.91
  L 19.22 32.78
  A 0.74 0.71 66.1 0 1 19.39 32.31
  Q 19.70 31.96 20.17 31.94
  A 0.44 0.42 53.9 0 0 20.28 31.11
  Q 19.66 30.85 19.39 30.48
  Q 18.89 29.80 19.48 29.52
  Q 20.76 28.92 21.73 28.93
  A 0.37 0.37 0.0 0 0 21.85 28.20
  Z
  M 36.7908 26.3198
  A 0.55 0.55 0.0 0 0 36.2417 25.7688
  L 26.1617 25.7512
  A 0.55 0.55 0.0 0 0 25.6108 26.3002
  L 25.6092 27.1802
  A 0.55 0.55 0.0 0 0 26.1583 27.7312
  L 36.2383 27.7488
  A 0.55 0.55 0.0 0 0 36.7892 27.1998
  L 36.7908 26.3198
  Z
  M 36.7808 30.0065
  A 0.51 0.51 0.0 0 0 36.2717 29.4956
  L 29.8518 29.4844
  A 0.51 0.51 0.0 0 0 29.3409 29.9935
  L 29.3392 30.9735
  A 0.51 0.51 0.0 0 0 29.8483 31.4844
  L 36.2682 31.4956
  A 0.51 0.51 0.0 0 0 36.7791 30.9865
  L 36.7808 30.0065
  Z
  M 36.7908 33.7897
  A 0.54 0.54 0.0 0 0 36.2518 33.2488
  L 26.1718 33.2312
  A 0.54 0.54 0.0 0 0 25.6308 33.7703
  L 25.6292 34.7103
  A 0.54 0.54 0.0 0 0 26.1682 35.2512
  L 36.2482 35.2688
  A 0.54 0.54 0.0 0 0 36.7892 34.7297
  L 36.7908 33.7897
  Z
  M 36.9001 37.8434
  A 0.81 0.81 0.0 0 0 36.0929 37.0306
  L 30.0330 37.0094
  A 0.81 0.81 0.0 0 0 29.2202 37.8166
  L 29.2199 37.8966
  A 0.81 0.81 0.0 0 0 30.0271 38.7094
  L 36.0870 38.7306
  A 0.81 0.81 0.0 0 0 36.8998 37.9234
  L 36.9001 37.8434
  Z"
/>
<rect fill="#582359" x="-5.59" y="-0.99" transform="translate(31.20,26.75) rotate(0.1)" width="11.18" height="1.98" rx="0.55"/>
<rect fill="#582359" x="-3.72" y="-1.00" transform="translate(33.06,30.49) rotate(0.1)" width="7.44" height="2.00" rx="0.51"/>
<rect fill="#582359" x="-5.58" y="-1.01" transform="translate(31.21,34.25) rotate(0.1)" width="11.16" height="2.02" rx="0.54"/>
<rect fill="#582359" x="-3.84" y="-0.85" transform="translate(33.06,37.87) rotate(0.2)" width="7.68" height="1.70" rx="0.81"/>
<path fill="#ffffff" d="
  M 23.70 52.45
  L 26.02 50.13
  A 1.61 1.59 -22.7 0 0 26.49 49.00
  L 26.49 45.45
  A 1.19 1.19 0.0 0 1 27.68 44.26
  L 47.44 44.26
  A 1.62 1.61 4.5 0 1 49.04 46.13
  L 48.61 48.85
  A 4.34 4.34 0.0 0 1 44.32 52.51
  L 23.73 52.51
  A 0.04 0.03 20.8 0 1 23.70 52.45
  Z"
/>
</svg>
