<?xml version="1.0" encoding="UTF-8" standalone="no"?>
<!DOCTYPE svg PUBLIC "-//W3C//DTD SVG 1.1//EN" "http://www.w3.org/Graphics/SVG/1.1/DTD/svg11.dtd">
<svg xmlns="http://www.w3.org/2000/svg" version="1.1" viewBox="0.00 0.00 66.00 88.00">
<g stroke-width="2.00" fill="none" stroke-linecap="butt">
<path stroke="#464544" vector-effect="non-scaling-stroke" d="
  M 33.42 86.61
  C 34.11 86.62 33.58 86.66 33.80 86.47
  Q 47.39 73.97 56.48 58.49
  C 63.81 46.00 68.17 29.50 59.35 16.43
  Q 50.56 3.41 34.50 2.52
  Q 34.02 2.49 33.53 2.49
  Q 33.04 2.49 32.55 2.52
  Q 16.49 3.37 7.67 16.36
  C -1.18 29.41 3.13 45.92 10.43 58.43
  Q 19.48 73.93 33.04 86.46
  C 33.26 86.66 32.72 86.61 33.42 86.61"
/>
<path stroke="#aeadad" vector-effect="non-scaling-stroke" d="
  M 35.27 41.23
  Q 36.60 42.00 37.46 40.63
  Q 40.78 35.29 45.21 27.42
  A 0.35 0.35 0.0 0 1 45.85 27.50
  L 47.15 32.32
  A 1.21 1.21 0.0 0 0 48.63 33.18
  L 49.06 33.06
  A 1.64 1.63 -14.7 0 0 50.22 31.08
  Q 49.11 26.70 47.87 22.18
  Q 47.60 21.20 47.10 20.92
  Q 46.56 20.60 45.58 20.85
  Q 41.04 22.03 36.69 23.24
  A 1.64 1.63 74.9 0 0 35.55 25.24
  L 35.66 25.67
  A 1.21 1.21 0.0 0 0 37.14 26.52
  L 41.97 25.25
  A 0.35 0.35 0.0 0 1 42.36 25.77
  Q 37.74 33.53 34.76 39.07
  Q 33.99 40.49 35.27 41.23"
/>
<path stroke="#aeadad" vector-effect="non-scaling-stroke" d="
  M 30.90 31.14
  Q 29.58 30.36 28.72 31.73
  Q 25.38 37.05 20.94 44.89
  A 0.35 0.35 0.0 0 1 20.30 44.81
  L 19.02 39.99
  A 1.21 1.21 0.0 0 0 17.54 39.13
  L 17.11 39.25
  A 1.63 1.63 0.0 0 0 15.95 41.22
  Q 17.04 45.60 18.27 50.11
  Q 18.53 51.09 19.02 51.37
  Q 19.57 51.69 20.54 51.44
  Q 25.08 50.29 29.43 49.09
  A 1.63 1.63 0.0 0 0 30.57 47.10
  L 30.46 46.67
  A 1.21 1.21 0.0 0 0 28.99 45.81
  L 24.16 47.06
  A 0.35 0.35 0.0 0 1 23.78 46.55
  Q 28.42 38.82 31.41 33.30
  Q 32.18 31.88 30.90 31.14"
/>
</g>
<path fill="#2f2f2e" d="
  M 33.80 88.00
  L 33.04 88.00
  C 21.95 77.92 11.91 65.56 5.75 51.76
  C 1.34 41.88 -0.29 30.05 4.15 20.22
  Q 8.09 11.49 16.43 6.14
  Q 24.09 1.22 34.93 1.33
  Q 40.10 1.39 45.02 3.44
  Q 61.42 10.29 64.87 26.78
  C 67.39 38.84 62.09 52.35 55.18 62.93
  Q 46.13 76.77 33.80 88.00
  Z
  M 33.42 86.61
  C 34.11 86.62 33.58 86.66 33.80 86.47
  Q 47.39 73.97 56.48 58.49
  C 63.81 46.00 68.17 29.50 59.35 16.43
  Q 50.56 3.41 34.50 2.52
  Q 34.02 2.49 33.53 2.49
  Q 33.04 2.49 32.55 2.52
  Q 16.49 3.37 7.67 16.36
  C -1.18 29.41 3.13 45.92 10.43 58.43
  Q 19.48 73.93 33.04 86.46
  C 33.26 86.66 32.72 86.61 33.42 86.61
  Z"
/>
<path fill="#5c5a5a" d="
  M 33.53 2.49
  Q 34.02 2.49 34.50 2.52
  Q 50.56 3.41 59.35 16.43
  C 68.17 29.50 63.81 46.00 56.48 58.49
  Q 47.39 73.97 33.80 86.47
  C 33.58 86.66 34.11 86.62 33.42 86.61
  C 32.72 86.61 33.26 86.66 33.04 86.46
  Q 19.48 73.93 10.43 58.43
  C 3.13 45.92 -1.18 29.41 7.67 16.36
  Q 16.49 3.37 32.55 2.52
  Q 33.04 2.49 33.53 2.49
  Z
  M 35.27 41.23
  Q 36.60 42.00 37.46 40.63
  Q 40.78 35.29 45.21 27.42
  A 0.35 0.35 0.0 0 1 45.85 27.50
  L 47.15 32.32
  A 1.21 1.21 0.0 0 0 48.63 33.18
  L 49.06 33.06
  A 1.64 1.63 -14.7 0 0 50.22 31.08
  Q 49.11 26.70 47.87 22.18
  Q 47.60 21.20 47.10 20.92
  Q 46.56 20.60 45.58 20.85
  Q 41.04 22.03 36.69 23.24
  A 1.64 1.63 74.9 0 0 35.55 25.24
  L 35.66 25.67
  A 1.21 1.21 0.0 0 0 37.14 26.52
  L 41.97 25.25
  A 0.35 0.35 0.0 0 1 42.36 25.77
  Q 37.74 33.53 34.76 39.07
  Q 33.99 40.49 35.27 41.23
  Z
  M 30.90 31.14
  Q 29.58 30.36 28.72 31.73
  Q 25.38 37.05 20.94 44.89
  A 0.35 0.35 0.0 0 1 20.30 44.81
  L 19.02 39.99
  A 1.21 1.21 0.0 0 0 17.54 39.13
  L 17.11 39.25
  A 1.63 1.63 0.0 0 0 15.95 41.22
  Q 17.04 45.60 18.27 50.11
  Q 18.53 51.09 19.02 51.37
  Q 19.57 51.69 20.54 51.44
  Q 25.08 50.29 29.43 49.09
  A 1.63 1.63 0.0 0 0 30.57 47.10
  L 30.46 46.67
  A 1.21 1.21 0.0 0 0 28.99 45.81
  L 24.16 47.06
  A 0.35 0.35 0.0 0 1 23.78 46.55
  Q 28.42 38.82 31.41 33.30
  Q 32.18 31.88 30.90 31.14
  Z"
/>
<path fill="#ffffff" d="
  M 47.10 20.92
  Q 47.60 21.20 47.87 22.18
  Q 49.11 26.70 50.22 31.08
  A 1.64 1.63 -14.7 0 1 49.06 33.06
  L 48.63 33.18
  A 1.21 1.21 0.0 0 1 47.15 32.32
  L 45.85 27.50
  A 0.35 0.35 0.0 0 0 45.21 27.42
  Q 40.78 35.29 37.46 40.63
  Q 36.60 42.00 35.27 41.23
  Q 33.99 40.49 34.76 39.07
  Q 37.74 33.53 42.36 25.77
  A 0.35 0.35 0.0 0 0 41.97 25.25
  L 37.14 26.52
  A 1.21 1.21 0.0 0 1 35.66 25.67
  L 35.55 25.24
  A 1.64 1.63 74.9 0 1 36.69 23.24
  Q 41.04 22.03 45.58 20.85
  Q 46.56 20.60 47.10 20.92
  Z"
/>
<path fill="#ffffff" d="
  M 30.90 31.14
  Q 32.18 31.88 31.41 33.30
  Q 28.42 38.82 23.78 46.55
  A 0.35 0.35 0.0 0 0 24.16 47.06
  L 28.99 45.81
  A 1.21 1.21 0.0 0 1 30.46 46.67
  L 30.57 47.10
  A 1.63 1.63 0.0 0 1 29.43 49.09
  Q 25.08 50.29 20.54 51.44
  Q 19.57 51.69 19.02 51.37
  Q 18.53 51.09 18.27 50.11
  Q 17.04 45.60 15.95 41.22
  A 1.63 1.63 0.0 0 1 17.11 39.25
  L 17.54 39.13
  A 1.21 1.21 0.0 0 1 19.02 39.99
  L 20.30 44.81
  A 0.35 0.35 0.0 0 0 20.94 44.89
  Q 25.38 37.05 28.72 31.73
  Q 29.58 30.36 30.90 31.14
  Z"
/>
</svg>
