<?xml version="1.0" encoding="UTF-8" standalone="no"?>
<!DOCTYPE svg PUBLIC "-//W3C//DTD SVG 1.1//EN" "http://www.w3.org/Graphics/SVG/1.1/DTD/svg11.dtd">
<svg xmlns="http://www.w3.org/2000/svg" version="1.1" viewBox="0.00 0.00 66.00 88.00">
<g stroke-width="2.00" fill="none" stroke-linecap="butt">
<path stroke="#173f51" vector-effect="non-scaling-stroke" d="
  M 33.43 86.61
  C 34.00 86.62 33.59 86.66 33.79 86.47
  Q 47.68 73.56 56.60 58.31
  C 62.09 48.92 66.02 36.70 63.53 26.05
  C 60.27 12.12 47.69 2.59 33.49 2.58
  C 19.30 2.57 6.70 12.08 3.42 26.01
  C 0.91 36.65 4.82 48.88 10.30 58.28
  Q 19.20 73.54 33.07 86.47
  C 33.27 86.66 32.86 86.61 33.43 86.61"
/>
<path stroke="#8fa9b5" vector-effect="non-scaling-stroke" d="
  M 32.48 16.73
  Q 35.43 23.98 33.96 30.90
  A 0.54 0.54 0.0 0 1 33.40 31.32
  Q 25.03 30.84 21.93 37.68
  C 19.58 42.85 21.99 49.00 27.37 51.35
  Q 32.56 53.62 38.08 50.23
  A 3.09 2.98 3.3 0 0 38.86 49.56
  C 48.08 38.54 45.20 23.43 33.01 16.27
  A 0.37 0.37 0.0 0 0 32.48 16.73"
/>
<path stroke="#8fa9b5" vector-effect="non-scaling-stroke" d="
  M 35.89 41.78
  A 4.25 4.25 0.0 0 0 31.64 37.53
  A 4.25 4.25 0.0 0 0 27.39 41.78
  A 4.25 4.25 0.0 0 0 31.64 46.03
  A 4.25 4.25 0.0 0 0 35.89 41.78"
/>
</g>
<path fill="#0e2b37" d="
  M 33.79 88.00
  L 33.04 88.00
  C 21.72 77.72 12.18 65.74 5.68 51.55
  Q 2.13 43.81 1.57 34.90
  C 0.57 18.86 11.15 5.76 26.65 2.06
  C 37.33 -0.50 49.56 3.32 57.12 11.60
  C 79.54 36.19 52.19 71.31 33.79 88.00
  Z
  M 33.43 86.61
  C 34.00 86.62 33.59 86.66 33.79 86.47
  Q 47.68 73.56 56.60 58.31
  C 62.09 48.92 66.02 36.70 63.53 26.05
  C 60.27 12.12 47.69 2.59 33.49 2.58
  C 19.30 2.57 6.70 12.08 3.42 26.01
  C 0.91 36.65 4.82 48.88 10.30 58.28
  Q 19.20 73.54 33.07 86.47
  C 33.27 86.66 32.86 86.61 33.43 86.61
  Z"
/>
<path fill="#1f526b" d="
  M 33.49 2.58
  C 47.69 2.59 60.27 12.12 63.53 26.05
  C 66.02 36.70 62.09 48.92 56.60 58.31
  Q 47.68 73.56 33.79 86.47
  C 33.59 86.66 34.00 86.62 33.43 86.61
  C 32.86 86.61 33.27 86.66 33.07 86.47
  Q 19.20 73.54 10.30 58.28
  C 4.82 48.88 0.91 36.65 3.42 26.01
  C 6.70 12.08 19.30 2.57 33.49 2.58
  Z
  M 32.48 16.73
  Q 35.43 23.98 33.96 30.90
  A 0.54 0.54 0.0 0 1 33.40 31.32
  Q 25.03 30.84 21.93 37.68
  C 19.58 42.85 21.99 49.00 27.37 51.35
  Q 32.56 53.62 38.08 50.23
  A 3.09 2.98 3.3 0 0 38.86 49.56
  C 48.08 38.54 45.20 23.43 33.01 16.27
  A 0.37 0.37 0.0 0 0 32.48 16.73
  Z"
/>
<path fill="#ffffff" d="
  M 33.01 16.27
  C 45.20 23.43 48.08 38.54 38.86 49.56
  A 3.09 2.98 3.3 0 1 38.08 50.23
  Q 32.56 53.62 27.37 51.35
  C 21.99 49.00 19.58 42.85 21.93 37.68
  Q 25.03 30.84 33.40 31.32
  A 0.54 0.54 0.0 0 0 33.96 30.90
  Q 35.43 23.98 32.48 16.73
  A 0.37 0.37 0.0 0 1 33.01 16.27
  Z
  M 35.89 41.78
  A 4.25 4.25 0.0 0 0 31.64 37.53
  A 4.25 4.25 0.0 0 0 27.39 41.78
  A 4.25 4.25 0.0 0 0 31.64 46.03
  A 4.25 4.25 0.0 0 0 35.89 41.78
  Z"
/>
<circle fill="#1f526b" cx="31.64" cy="41.78" r="4.25"/>
</svg>
