<?xml version="1.0" encoding="UTF-8" standalone="no"?>
<!DOCTYPE svg PUBLIC "-//W3C//DTD SVG 1.1//EN" "http://www.w3.org/Graphics/SVG/1.1/DTD/svg11.dtd">
<svg xmlns="http://www.w3.org/2000/svg" version="1.1" viewBox="0.00 0.00 66.00 88.00">
<g stroke-width="2.00" fill="none" stroke-linecap="butt">
<path stroke="#4d120e" vector-effect="non-scaling-stroke" d="
  M 33.43 86.54
  C 33.77 86.54 33.62 86.56 33.75 86.43
  Q 47.34 74.01 56.58 58.27
  C 64.26 45.17 68.34 27.90 58.19 14.81
  C 52.05 6.88 43.46 2.63 33.50 2.62
  C 23.54 2.61 14.94 6.85 8.79 14.77
  C -1.38 27.85 2.67 45.12 10.33 58.23
  Q 19.55 73.99 33.12 86.43
  C 33.25 86.56 33.10 86.54 33.43 86.54"
/>
<path stroke="#b18c89" vector-effect="non-scaling-stroke" d="
  M 32.99 31.18
  C 35.46 31.18 37.73 28.97 39.81 28.42
  A 0.60 0.60 0.0 0 1 40.52 28.77
  Q 40.87 29.64 40.97 29.75
  Q 41.47 30.32 42.39 29.58
  C 45.60 26.98 42.37 23.23 38.88 25.02
  A 0.55 0.54 -17.9 0 1 38.09 24.62
  Q 38.03 24.20 36.87 23.21
  A 0.31 0.31 0.0 0 1 37.09 22.67
  Q 37.17 22.67 37.29 22.70
  A 0.68 0.68 0.0 0 0 38.12 22.15
  Q 38.38 20.67 37.98 18.39
  A 0.58 0.58 0.0 0 0 37.33 17.92
  C 35.96 18.13 34.90 17.48 32.98 17.48
  C 31.06 17.48 30.01 18.14 28.64 17.93
  A 0.58 0.58 0.0 0 0 27.98 18.40
  Q 27.59 20.68 27.85 22.16
  A 0.68 0.68 0.0 0 0 28.68 22.70
  Q 28.80 22.67 28.88 22.67
  A 0.31 0.31 0.0 0 1 29.10 23.21
  Q 27.94 24.21 27.88 24.63
  A 0.55 0.54 17.8 0 1 27.09 25.03
  C 23.60 23.24 20.37 26.99 23.59 29.59
  Q 24.51 30.33 25.01 29.76
  Q 25.11 29.65 25.45 28.78
  A 0.60 0.60 0.0 0 1 26.16 28.42
  C 28.24 28.98 30.51 31.18 32.99 31.18"
/>
<path stroke="#b18c89" vector-effect="non-scaling-stroke" d="
  M 16.66 46.32
  A 0.33 0.33 0.0 0 0 17.19 46.00
  Q 16.96 44.82 18.18 43.18
  C 19.42 41.53 20.31 38.72 18.07 37.55
  A 1.82 1.81 26.0 0 0 15.58 38.40
  Q 13.25 43.49 16.66 46.32"
/>
<path stroke="#b18c89" vector-effect="non-scaling-stroke" d="
  M 49.22 46.33
  Q 52.67 43.54 50.40 38.41
  A 1.82 1.81 -25.3 0 0 47.92 37.53
  C 45.66 38.67 46.52 41.50 47.74 43.17
  Q 48.94 44.82 48.69 46.00
  A 0.33 0.33 0.0 0 0 49.22 46.33"
/>
<path stroke="#b18c89" vector-effect="non-scaling-stroke" d="
  M 22.37 42.50
  Q 22.83 43.45 23.66 44.02
  A 0.32 0.32 0.0 0 0 24.14 43.87
  L 25.08 41.34
  A 0.14 0.06 63.9 0 0 25.08 41.26
  Q 25.07 41.24 25.06 41.22
  Q 25.02 41.13 25.01 41.12
  A 0.14 0.06 63.6 0 0 24.94 41.06
  L 22.36 40.27
  A 0.32 0.32 0.0 0 0 21.96 40.56
  Q 21.91 41.56 22.37 42.50"
/>
<path stroke="#b18c89" vector-effect="non-scaling-stroke" d="
  M 43.60 42.52
  Q 44.05 41.58 44.00 40.60
  A 0.32 0.31 -9.3 0 0 43.60 40.31
  L 41.05 41.10
  A 0.14 0.06 -63.8 0 0 40.99 41.15
  Q 40.98 41.17 40.97 41.19
  Q 40.93 41.28 40.92 41.30
  A 0.14 0.06 -64.1 0 0 40.92 41.37
  L 41.86 43.87
  A 0.32 0.31 61.4 0 0 42.33 44.01
  Q 43.14 43.44 43.60 42.52"
/>
<path stroke="#b18c89" vector-effect="non-scaling-stroke" d="
  M 28.2450 41.7650
  A 1.32 0.96 -5.0 0 0 26.8463 40.9237
  A 1.32 0.96 -5.0 0 0 25.6150 41.9950
  A 1.32 0.96 -5.0 0 0 27.0137 42.8363
  A 1.32 0.96 -5.0 0 0 28.2450 41.7650"
/>
<path stroke="#b18c89" vector-effect="non-scaling-stroke" d="
  M 32.6647 41.8043
  A 0.60 0.60 0.0 0 0 32.1284 41.1467
  L 29.5418 40.8840
  A 0.60 0.60 0.0 0 0 28.8842 41.4202
  L 28.7953 42.2957
  A 0.60 0.60 0.0 0 0 29.3316 42.9533
  L 31.9182 43.2160
  A 0.60 0.60 0.0 0 0 32.5758 42.6798
  L 32.6647 41.8043"
/>
<path stroke="#b18c89" vector-effect="non-scaling-stroke" d="
  M 37.0497 41.3885
  A 0.67 0.67 0.0 0 0 36.2949 40.8156
  L 33.8973 41.1440
  A 0.67 0.67 0.0 0 0 33.3245 41.8988
  L 33.4303 42.6715
  A 0.67 0.67 0.0 0 0 34.1851 43.2444
  L 36.5827 42.9160
  A 0.67 0.67 0.0 0 0 37.1555 42.1612
  L 37.0497 41.3885"
/>
<path stroke="#b18c89" vector-effect="non-scaling-stroke" d="
  M 40.3457 41.7533
  A 1.33 0.94 -4.6 0 0 38.9446 40.9230
  A 1.33 0.94 -4.6 0 0 37.6943 41.9667
  A 1.33 0.94 -4.6 0 0 39.0954 42.7970
  A 1.33 0.94 -4.6 0 0 40.3457 41.7533"
/>
<path stroke="#b18c89" vector-effect="non-scaling-stroke" d="
  M 22.6118 45.3264
  A 2.48 1.64 -116.8 0 0 22.2662 48.2794
  A 2.48 1.64 -116.8 0 0 24.8482 49.7536
  A 2.48 1.64 -116.8 0 0 25.1938 46.8006
  A 2.48 1.64 -116.8 0 0 22.6118 45.3264"
/>
<path stroke="#b18c89" vector-effect="non-scaling-stroke" d="
  M 43.3549 45.3148
  A 2.48 1.65 -63.8 0 0 40.7795 46.8115
  A 2.48 1.65 -63.8 0 0 41.1651 49.7652
  A 2.48 1.65 -63.8 0 0 43.7405 48.2685
  A 2.48 1.65 -63.8 0 0 43.3549 45.3148"
/>
<path stroke="#b18c89" vector-effect="non-scaling-stroke" d="
  M 32.99 47.95
  Q 33.22 47.95 33.57 49.44
  A 1.31 1.26 71.3 0 0 35.33 50.35
  Q 36.40 49.86 36.48 48.36
  A 0.35 0.35 0.0 0 1 37.07 48.13
  Q 37.31 48.37 37.24 49.01
  Q 37.13 49.96 37.79 49.89
  Q 39.04 49.77 39.53 48.30
  A 0.57 0.56 8.4 0 0 38.97 47.55
  Q 37.44 47.61 32.99 47.61
  Q 28.53 47.61 27.00 47.55
  A 0.57 0.56 -8.3 0 0 26.44 48.30
  Q 26.93 49.77 28.18 49.89
  Q 28.84 49.96 28.73 49.01
  Q 28.66 48.37 28.90 48.13
  A 0.35 0.35 0.0 0 1 29.49 48.36
  Q 29.57 49.86 30.64 50.35
  A 1.31 1.26 -71.3 0 0 32.40 49.44
  Q 32.75 47.95 32.99 47.95"
/>
</g>
<path fill="#360b09" d="
  M 33.81 88.00
  L 33.15 88.00
  Q 15.60 72.48 6.00 52.51
  Q 2.25 44.73 1.63 35.22
  Q 1.01 25.74 5.24 18.01
  C 12.60 4.59 28.07 -1.67 43.06 2.79
  Q 51.20 5.20 56.94 11.43
  Q 67.86 23.27 64.84 39.76
  Q 62.53 52.31 54.57 64.07
  Q 45.68 77.20 33.81 88.00
  Z
  M 33.43 86.54
  C 33.77 86.54 33.62 86.56 33.75 86.43
  Q 47.34 74.01 56.58 58.27
  C 64.26 45.17 68.34 27.90 58.19 14.81
  C 52.05 6.88 43.46 2.63 33.50 2.62
  C 23.54 2.61 14.94 6.85 8.79 14.77
  C -1.38 27.85 2.67 45.12 10.33 58.23
  Q 19.55 73.99 33.12 86.43
  C 33.25 86.56 33.10 86.54 33.43 86.54
  Z"
/>
<path fill="#631813" d="
  M 33.50 2.62
  C 43.46 2.63 52.05 6.88 58.19 14.81
  C 68.34 27.90 64.26 45.17 56.58 58.27
  Q 47.34 74.01 33.75 86.43
  C 33.62 86.56 33.77 86.54 33.43 86.54
  C 33.10 86.54 33.25 86.56 33.12 86.43
  Q 19.55 73.99 10.33 58.23
  C 2.67 45.12 -1.38 27.85 8.79 14.77
  C 14.94 6.85 23.54 2.61 33.50 2.62
  Z
  M 32.99 31.18
  C 35.46 31.18 37.73 28.97 39.81 28.42
  A 0.60 0.60 0.0 0 1 40.52 28.77
  Q 40.87 29.64 40.97 29.75
  Q 41.47 30.32 42.39 29.58
  C 45.60 26.98 42.37 23.23 38.88 25.02
  A 0.55 0.54 -17.9 0 1 38.09 24.62
  Q 38.03 24.20 36.87 23.21
  A 0.31 0.31 0.0 0 1 37.09 22.67
  Q 37.17 22.67 37.29 22.70
  A 0.68 0.68 0.0 0 0 38.12 22.15
  Q 38.38 20.67 37.98 18.39
  A 0.58 0.58 0.0 0 0 37.33 17.92
  C 35.96 18.13 34.90 17.48 32.98 17.48
  C 31.06 17.48 30.01 18.14 28.64 17.93
  A 0.58 0.58 0.0 0 0 27.98 18.40
  Q 27.59 20.68 27.85 22.16
  A 0.68 0.68 0.0 0 0 28.68 22.70
  Q 28.80 22.67 28.88 22.67
  A 0.31 0.31 0.0 0 1 29.10 23.21
  Q 27.94 24.21 27.88 24.63
  A 0.55 0.54 17.8 0 1 27.09 25.03
  C 23.60 23.24 20.37 26.99 23.59 29.59
  Q 24.51 30.33 25.01 29.76
  Q 25.11 29.65 25.45 28.78
  A 0.60 0.60 0.0 0 1 26.16 28.42
  C 28.24 28.98 30.51 31.18 32.99 31.18
  Z
  M 16.66 46.32
  A 0.33 0.33 0.0 0 0 17.19 46.00
  Q 16.96 44.82 18.18 43.18
  C 19.42 41.53 20.31 38.72 18.07 37.55
  A 1.82 1.81 26.0 0 0 15.58 38.40
  Q 13.25 43.49 16.66 46.32
  Z
  M 49.22 46.33
  Q 52.67 43.54 50.40 38.41
  A 1.82 1.81 -25.3 0 0 47.92 37.53
  C 45.66 38.67 46.52 41.50 47.74 43.17
  Q 48.94 44.82 48.69 46.00
  A 0.33 0.33 0.0 0 0 49.22 46.33
  Z
  M 22.37 42.50
  Q 22.83 43.45 23.66 44.02
  A 0.32 0.32 0.0 0 0 24.14 43.87
  L 25.08 41.34
  A 0.14 0.06 63.9 0 0 25.08 41.26
  Q 25.07 41.24 25.06 41.22
  Q 25.02 41.13 25.01 41.12
  A 0.14 0.06 63.6 0 0 24.94 41.06
  L 22.36 40.27
  A 0.32 0.32 0.0 0 0 21.96 40.56
  Q 21.91 41.56 22.37 42.50
  Z
  M 43.60 42.52
  Q 44.05 41.58 44.00 40.60
  A 0.32 0.31 -9.3 0 0 43.60 40.31
  L 41.05 41.10
  A 0.14 0.06 -63.8 0 0 40.99 41.15
  Q 40.98 41.17 40.97 41.19
  Q 40.93 41.28 40.92 41.30
  A 0.14 0.06 -64.1 0 0 40.92 41.37
  L 41.86 43.87
  A 0.32 0.31 61.4 0 0 42.33 44.01
  Q 43.14 43.44 43.60 42.52
  Z
  M 28.2450 41.7650
  A 1.32 0.96 -5.0 0 0 26.8463 40.9237
  A 1.32 0.96 -5.0 0 0 25.6150 41.9950
  A 1.32 0.96 -5.0 0 0 27.0137 42.8363
  A 1.32 0.96 -5.0 0 0 28.2450 41.7650
  Z
  M 32.6647 41.8043
  A 0.60 0.60 0.0 0 0 32.1284 41.1467
  L 29.5418 40.8840
  A 0.60 0.60 0.0 0 0 28.8842 41.4202
  L 28.7953 42.2957
  A 0.60 0.60 0.0 0 0 29.3316 42.9533
  L 31.9182 43.2160
  A 0.60 0.60 0.0 0 0 32.5758 42.6798
  L 32.6647 41.8043
  Z
  M 37.0497 41.3885
  A 0.67 0.67 0.0 0 0 36.2949 40.8156
  L 33.8973 41.1440
  A 0.67 0.67 0.0 0 0 33.3245 41.8988
  L 33.4303 42.6715
  A 0.67 0.67 0.0 0 0 34.1851 43.2444
  L 36.5827 42.9160
  A 0.67 0.67 0.0 0 0 37.1555 42.1612
  L 37.0497 41.3885
  Z
  M 40.3457 41.7533
  A 1.33 0.94 -4.6 0 0 38.9446 40.9230
  A 1.33 0.94 -4.6 0 0 37.6943 41.9667
  A 1.33 0.94 -4.6 0 0 39.0954 42.7970
  A 1.33 0.94 -4.6 0 0 40.3457 41.7533
  Z
  M 22.6118 45.3264
  A 2.48 1.64 -116.8 0 0 22.2662 48.2794
  A 2.48 1.64 -116.8 0 0 24.8482 49.7536
  A 2.48 1.64 -116.8 0 0 25.1938 46.8006
  A 2.48 1.64 -116.8 0 0 22.6118 45.3264
  Z
  M 43.3549 45.3148
  A 2.48 1.65 -63.8 0 0 40.7795 46.8115
  A 2.48 1.65 -63.8 0 0 41.1651 49.7652
  A 2.48 1.65 -63.8 0 0 43.7405 48.2685
  A 2.48 1.65 -63.8 0 0 43.3549 45.3148
  Z
  M 32.99 47.95
  Q 33.22 47.95 33.57 49.44
  A 1.31 1.26 71.3 0 0 35.33 50.35
  Q 36.40 49.86 36.48 48.36
  A 0.35 0.35 0.0 0 1 37.07 48.13
  Q 37.31 48.37 37.24 49.01
  Q 37.13 49.96 37.79 49.89
  Q 39.04 49.77 39.53 48.30
  A 0.57 0.56 8.4 0 0 38.97 47.55
  Q 37.44 47.61 32.99 47.61
  Q 28.53 47.61 27.00 47.55
  A 0.57 0.56 -8.3 0 0 26.44 48.30
  Q 26.93 49.77 28.18 49.89
  Q 28.84 49.96 28.73 49.01
  Q 28.66 48.37 28.90 48.13
  A 0.35 0.35 0.0 0 1 29.49 48.36
  Q 29.57 49.86 30.64 50.35
  A 1.31 1.26 -71.3 0 0 32.40 49.44
  Q 32.75 47.95 32.99 47.95
  Z"
/>
<path fill="#ffffff" d="
  M 32.98 17.48
  C 34.90 17.48 35.96 18.13 37.33 17.92
  A 0.58 0.58 0.0 0 1 37.98 18.39
  Q 38.38 20.67 38.12 22.15
  A 0.68 0.68 0.0 0 1 37.29 22.70
  Q 37.17 22.67 37.09 22.67
  A 0.31 0.31 0.0 0 0 36.87 23.21
  Q 38.03 24.20 38.09 24.62
  A 0.55 0.54 -17.9 0 0 38.88 25.02
  C 42.37 23.23 45.60 26.98 42.39 29.58
  Q 41.47 30.32 40.97 29.75
  Q 40.87 29.64 40.52 28.77
  A 0.60 0.60 0.0 0 0 39.81 28.42
  C 37.73 28.97 35.46 31.18 32.99 31.18
  C 30.51 31.18 28.24 28.98 26.16 28.42
  A 0.60 0.60 0.0 0 0 25.45 28.78
  Q 25.11 29.65 25.01 29.76
  Q 24.51 30.33 23.59 29.59
  C 20.37 26.99 23.60 23.24 27.09 25.03
  A 0.55 0.54 17.8 0 0 27.88 24.63
  Q 27.94 24.21 29.10 23.21
  A 0.31 0.31 0.0 0 0 28.88 22.67
  Q 28.80 22.67 28.68 22.70
  A 0.68 0.68 0.0 0 1 27.85 22.16
  Q 27.59 20.68 27.98 18.40
  A 0.58 0.58 0.0 0 1 28.64 17.93
  C 30.01 18.14 31.06 17.48 32.98 17.48
  Z"
/>
<path fill="#ffffff" d="
  M 16.66 46.32
  Q 13.25 43.49 15.58 38.40
  A 1.82 1.81 26.0 0 1 18.07 37.55
  C 20.31 38.72 19.42 41.53 18.18 43.18
  Q 16.96 44.82 17.19 46.00
  A 0.33 0.33 0.0 0 1 16.66 46.32
  Z"
/>
<path fill="#ffffff" d="
  M 48.69 46.00
  Q 48.94 44.82 47.74 43.17
  C 46.52 41.50 45.66 38.67 47.92 37.53
  A 1.82 1.81 -25.3 0 1 50.40 38.41
  Q 52.67 43.54 49.22 46.33
  A 0.33 0.33 0.0 0 1 48.69 46.00
  Z"
/>
<path fill="#ffffff" d="
  M 25.06 41.22
  Q 25.07 41.24 25.08 41.26
  A 0.14 0.06 63.9 0 1 25.08 41.34
  L 24.14 43.87
  A 0.32 0.32 0.0 0 1 23.66 44.02
  Q 22.83 43.45 22.37 42.50
  Q 21.91 41.56 21.96 40.56
  A 0.32 0.32 0.0 0 1 22.36 40.27
  L 24.94 41.06
  A 0.14 0.06 63.6 0 1 25.01 41.12
  Q 25.02 41.13 25.06 41.22
  Z"
/>
<path fill="#ffffff" d="
  M 43.60 42.52
  Q 43.14 43.44 42.33 44.01
  A 0.32 0.31 61.4 0 1 41.86 43.87
  L 40.92 41.37
  A 0.14 0.06 -64.1 0 1 40.92 41.30
  Q 40.93 41.28 40.97 41.19
  Q 40.98 41.17 40.99 41.15
  A 0.14 0.06 -63.8 0 1 41.05 41.10
  L 43.60 40.31
  A 0.32 0.31 -9.3 0 1 44.00 40.60
  Q 44.05 41.58 43.60 42.52
  Z"
/>
<ellipse fill="#ffffff" cx="0.00" cy="0.00" transform="translate(26.93,41.88) rotate(-5.0)" rx="1.32" ry="0.96"/>
<rect fill="#ffffff" x="-1.90" y="-1.04" transform="translate(30.73,42.05) rotate(5.8)" width="3.80" height="2.08" rx="0.60"/>
<rect fill="#ffffff" x="-1.88" y="-1.06" transform="translate(35.24,42.03) rotate(-7.8)" width="3.76" height="2.12" rx="0.67"/>
<ellipse fill="#ffffff" cx="0.00" cy="0.00" transform="translate(39.02,41.86) rotate(-4.6)" rx="1.33" ry="0.94"/>
<ellipse fill="#ffffff" cx="0.00" cy="0.00" transform="translate(23.73,47.54) rotate(-116.8)" rx="2.48" ry="1.64"/>
<ellipse fill="#ffffff" cx="0.00" cy="0.00" transform="translate(42.26,47.54) rotate(-63.8)" rx="2.48" ry="1.65"/>
<path fill="#ffffff" d="
  M 32.99 47.61
  Q 37.44 47.61 38.97 47.55
  A 0.57 0.56 8.4 0 1 39.53 48.30
  Q 39.04 49.77 37.79 49.89
  Q 37.13 49.96 37.24 49.01
  Q 37.31 48.37 37.07 48.13
  A 0.35 0.35 0.0 0 0 36.48 48.36
  Q 36.40 49.86 35.33 50.35
  A 1.31 1.26 71.3 0 1 33.57 49.44
  Q 33.22 47.95 32.99 47.95
  Q 32.75 47.95 32.40 49.44
  A 1.31 1.26 -71.3 0 1 30.64 50.35
  Q 29.57 49.86 29.49 48.36
  A 0.35 0.35 0.0 0 0 28.90 48.13
  Q 28.66 48.37 28.73 49.01
  Q 28.84 49.96 28.18 49.89
  Q 26.93 49.77 26.44 48.30
  A 0.57 0.56 -8.3 0 1 27.00 47.55
  Q 28.53 47.61 32.99 47.61
  Z"
/>
</svg>
