<?xml version="1.0" encoding="UTF-8" standalone="no"?>
<!DOCTYPE svg PUBLIC "-//W3C//DTD SVG 1.1//EN" "http://www.w3.org/Graphics/SVG/1.1/DTD/svg11.dtd">
<svg xmlns="http://www.w3.org/2000/svg" version="1.1" viewBox="0.00 0.00 66.00 88.00">
<g stroke-width="2.00" fill="none" stroke-linecap="butt">
<path stroke="#4d120e" vector-effect="non-scaling-stroke" d="
  M 33.41 86.53
  C 33.59 86.53 33.64 86.52 33.74 86.43
  Q 47.03 74.26 56.18 58.97
  Q 60.93 51.05 62.84 43.41
  Q 68.92 19.18 48.69 6.49
  Q 42.36 2.52 33.54 2.51
  Q 24.72 2.49 18.37 6.45
  Q -1.89 19.07 4.11 43.32
  Q 6.00 50.96 10.72 58.90
  Q 19.82 74.22 33.07 86.43
  C 33.17 86.52 33.23 86.53 33.41 86.53"
/>
<path stroke="#b18c89" vector-effect="non-scaling-stroke" d="
  M 32.97 51.45
  C 35.77 51.45 36.55 45.93 37.00 43.79
  A 2.81 2.76 71.7 0 1 37.60 42.58
  Q 39.62 40.16 42.95 38.37
  A 1.26 1.25 72.1 0 0 43.60 37.09
  L 43.16 34.03
  A 1.29 1.29 0.0 0 1 43.46 32.99
  L 44.52 31.75
  A 1.28 1.27 -28.3 0 0 44.82 30.76
  Q 43.94 23.19 41.57 15.59
  A 0.32 0.32 0.0 0 0 40.96 15.61
  L 38.45 26.14
  A 0.11 0.10 -70.4 0 1 38.30 26.21
  Q 35.27 24.74 32.99 24.74
  Q 30.70 24.74 27.67 26.21
  A 0.11 0.10 70.4 0 1 27.52 26.13
  L 25.02 15.60
  A 0.32 0.32 0.0 0 0 24.41 15.58
  Q 22.04 23.18 21.15 30.75
  A 1.28 1.27 28.4 0 0 21.45 31.74
  L 22.51 32.98
  A 1.29 1.29 0.0 0 1 22.80 34.02
  L 22.36 37.08
  A 1.26 1.25 -72.1 0 0 23.01 38.36
  Q 26.34 40.15 28.36 42.58
  A 2.81 2.76 -71.6 0 1 28.95 43.79
  C 29.40 45.93 30.18 51.45 32.97 51.45"
/>
<path stroke="#b18c89" vector-effect="non-scaling-stroke" d="
  M 27.90 37.60
  Q 29.56 39.11 31.31 40.62
  A 0.27 0.27 0.0 0 0 31.75 40.42
  L 31.74 38.24
  A 1.56 1.53 -66.5 0 0 31.34 37.20
  Q 31.18 37.02 29.67 35.66
  Q 28.00 34.15 26.26 32.64
  A 0.27 0.27 0.0 0 0 25.81 32.84
  L 25.82 35.02
  A 1.56 1.53 -66.5 0 0 26.22 36.06
  Q 26.39 36.24 27.90 37.60"
/>
<path stroke="#b18c89" vector-effect="non-scaling-stroke" d="
  M 38.09 37.60
  Q 39.60 36.24 39.77 36.05
  A 1.56 1.53 66.6 0 0 40.17 35.02
  L 40.18 32.84
  A 0.27 0.27 0.0 0 0 39.73 32.63
  Q 37.99 34.15 36.32 35.65
  Q 34.81 37.01 34.65 37.20
  A 1.56 1.53 66.6 0 0 34.25 38.24
  L 34.24 40.42
  A 0.27 0.27 0.0 0 0 34.68 40.62
  Q 36.42 39.11 38.09 37.60"
/>
</g>
<path fill="#360b09" d="
  M 33.79 88.00
  L 33.04 88.00
  C 21.78 77.77 12.07 65.64 5.65 51.57
  Q 2.21 44.05 1.60 34.90
  C 0.54 18.98 11.22 5.65 26.48 2.10
  C 41.32 -1.34 56.56 6.28 62.98 20.58
  C 66.62 28.71 65.92 38.70 63.06 47.03
  C 57.74 62.54 45.85 77.08 33.79 88.00
  Z
  M 33.41 86.53
  C 33.59 86.53 33.64 86.52 33.74 86.43
  Q 47.03 74.26 56.18 58.97
  Q 60.93 51.05 62.84 43.41
  Q 68.92 19.18 48.69 6.49
  Q 42.36 2.52 33.54 2.51
  Q 24.72 2.49 18.37 6.45
  Q -1.89 19.07 4.11 43.32
  Q 6.00 50.96 10.72 58.90
  Q 19.82 74.22 33.07 86.43
  C 33.17 86.52 33.23 86.53 33.41 86.53
  Z"
/>
<path fill="#631813" d="
  M 33.54 2.51
  Q 42.36 2.52 48.69 6.49
  Q 68.92 19.18 62.84 43.41
  Q 60.93 51.05 56.18 58.97
  Q 47.03 74.26 33.74 86.43
  C 33.64 86.52 33.59 86.53 33.41 86.53
  C 33.23 86.53 33.17 86.52 33.07 86.43
  Q 19.82 74.22 10.72 58.90
  Q 6.00 50.96 4.11 43.32
  Q -1.89 19.07 18.37 6.45
  Q 24.72 2.49 33.54 2.51
  Z
  M 32.97 51.45
  C 35.77 51.45 36.55 45.93 37.00 43.79
  A 2.81 2.76 71.7 0 1 37.60 42.58
  Q 39.62 40.16 42.95 38.37
  A 1.26 1.25 72.1 0 0 43.60 37.09
  L 43.16 34.03
  A 1.29 1.29 0.0 0 1 43.46 32.99
  L 44.52 31.75
  A 1.28 1.27 -28.3 0 0 44.82 30.76
  Q 43.94 23.19 41.57 15.59
  A 0.32 0.32 0.0 0 0 40.96 15.61
  L 38.45 26.14
  A 0.11 0.10 -70.4 0 1 38.30 26.21
  Q 35.27 24.74 32.99 24.74
  Q 30.70 24.74 27.67 26.21
  A 0.11 0.10 70.4 0 1 27.52 26.13
  L 25.02 15.60
  A 0.32 0.32 0.0 0 0 24.41 15.58
  Q 22.04 23.18 21.15 30.75
  A 1.28 1.27 28.4 0 0 21.45 31.74
  L 22.51 32.98
  A 1.29 1.29 0.0 0 1 22.80 34.02
  L 22.36 37.08
  A 1.26 1.25 -72.1 0 0 23.01 38.36
  Q 26.34 40.15 28.36 42.58
  A 2.81 2.76 -71.6 0 1 28.95 43.79
  C 29.40 45.93 30.18 51.45 32.97 51.45
  Z"
/>
<path fill="#ffffff" d="
  M 32.99 24.74
  Q 35.27 24.74 38.30 26.21
  A 0.11 0.10 -70.4 0 0 38.45 26.14
  L 40.96 15.61
  A 0.32 0.32 0.0 0 1 41.57 15.59
  Q 43.94 23.19 44.82 30.76
  A 1.28 1.27 -28.3 0 1 44.52 31.75
  L 43.46 32.99
  A 1.29 1.29 0.0 0 0 43.16 34.03
  L 43.60 37.09
  A 1.26 1.25 72.1 0 1 42.95 38.37
  Q 39.62 40.16 37.60 42.58
  A 2.81 2.76 71.7 0 0 37.00 43.79
  C 36.55 45.93 35.77 51.45 32.97 51.45
  C 30.18 51.45 29.40 45.93 28.95 43.79
  A 2.81 2.76 -71.6 0 0 28.36 42.58
  Q 26.34 40.15 23.01 38.36
  A 1.26 1.25 -72.1 0 1 22.36 37.08
  L 22.80 34.02
  A 1.29 1.29 0.0 0 0 22.51 32.98
  L 21.45 31.74
  A 1.28 1.27 28.4 0 1 21.15 30.75
  Q 22.04 23.18 24.41 15.58
  A 0.32 0.32 0.0 0 1 25.02 15.60
  L 27.52 26.13
  A 0.11 0.10 70.4 0 0 27.67 26.21
  Q 30.70 24.74 32.99 24.74
  Z
  M 27.90 37.60
  Q 29.56 39.11 31.31 40.62
  A 0.27 0.27 0.0 0 0 31.75 40.42
  L 31.74 38.24
  A 1.56 1.53 -66.5 0 0 31.34 37.20
  Q 31.18 37.02 29.67 35.66
  Q 28.00 34.15 26.26 32.64
  A 0.27 0.27 0.0 0 0 25.81 32.84
  L 25.82 35.02
  A 1.56 1.53 -66.5 0 0 26.22 36.06
  Q 26.39 36.24 27.90 37.60
  Z
  M 38.09 37.60
  Q 39.60 36.24 39.77 36.05
  A 1.56 1.53 66.6 0 0 40.17 35.02
  L 40.18 32.84
  A 0.27 0.27 0.0 0 0 39.73 32.63
  Q 37.99 34.15 36.32 35.65
  Q 34.81 37.01 34.65 37.20
  A 1.56 1.53 66.6 0 0 34.25 38.24
  L 34.24 40.42
  A 0.27 0.27 0.0 0 0 34.68 40.62
  Q 36.42 39.11 38.09 37.60
  Z"
/>
<path fill="#631813" d="
  M 27.90 37.60
  Q 26.39 36.24 26.22 36.06
  A 1.56 1.53 -66.5 0 1 25.82 35.02
  L 25.81 32.84
  A 0.27 0.27 0.0 0 1 26.26 32.64
  Q 28.00 34.15 29.67 35.66
  Q 31.18 37.02 31.34 37.20
  A 1.56 1.53 -66.5 0 1 31.74 38.24
  L 31.75 40.42
  A 0.27 0.27 0.0 0 1 31.31 40.62
  Q 29.56 39.11 27.90 37.60
  Z"
/>
<path fill="#631813" d="
  M 38.09 37.60
  Q 36.42 39.11 34.68 40.62
  A 0.27 0.27 0.0 0 1 34.24 40.42
  L 34.25 38.24
  A 1.56 1.53 66.6 0 1 34.65 37.20
  Q 34.81 37.01 36.32 35.65
  Q 37.99 34.15 39.73 32.63
  A 0.27 0.27 0.0 0 1 40.18 32.84
  L 40.17 35.02
  A 1.56 1.53 66.6 0 1 39.77 36.05
  Q 39.60 36.24 38.09 37.60
  Z"
/>
</svg>
