<?xml version="1.0" encoding="UTF-8" standalone="no"?>
<!DOCTYPE svg PUBLIC "-//W3C//DTD SVG 1.1//EN" "http://www.w3.org/Graphics/SVG/1.1/DTD/svg11.dtd">
<svg xmlns="http://www.w3.org/2000/svg" version="1.1" viewBox="0.00 0.00 66.00 88.00">
<g stroke-width="2.00" fill="none" stroke-linecap="butt">
<path stroke="#464544" vector-effect="non-scaling-stroke" d="
  M 33.42 86.61
  C 33.82 86.61 33.65 86.63 33.81 86.48
  Q 47.39 73.99 56.48 58.47
  C 64.03 45.60 68.32 28.72 58.75 15.54
  Q 49.89 3.35 34.50 2.52
  Q 34.01 2.49 33.53 2.49
  Q 33.04 2.49 32.55 2.52
  Q 17.16 3.31 8.27 15.48
  C -1.34 28.63 2.91 45.52 10.43 58.41
  Q 19.48 73.95 33.03 86.48
  C 33.19 86.63 33.02 86.61 33.42 86.61"
/>
<path stroke="#aeadad" vector-effect="non-scaling-stroke" d="
  M 21.20 48.41
  A 0.25 0.24 -22.7 0 0 21.62 48.58
  L 27.56 42.64
  A 1.33 1.29 21.8 0 1 28.49 42.26
  Q 39.12 42.21 43.87 42.28
  C 47.81 42.33 51.33 41.66 51.33 37.29
  Q 51.35 24.19 51.31 23.07
  Q 51.18 19.64 47.86 18.60
  A 2.44 2.29 52.0 0 0 47.15 18.49
  Q 20.69 18.50 19.90 18.48
  C 17.23 18.41 15.55 19.46 14.80 21.84
  A 2.33 2.15 56.7 0 0 14.68 22.57
  Q 14.66 24.62 14.66 37.27
  C 14.66 40.46 17.50 42.84 20.72 42.26
  A 0.41 0.41 0.0 0 1 21.20 42.66
  L 21.20 48.41"
/>
<path stroke="#aeadad" vector-effect="non-scaling-stroke" d="
  M 35.96 30.06
  A 2.96 2.96 0.0 0 0 33.00 27.10
  A 2.96 2.96 0.0 0 0 30.04 30.06
  A 2.96 2.96 0.0 0 0 33.00 33.02
  A 2.96 2.96 0.0 0 0 35.96 30.06"
/>
<path stroke="#aeadad" vector-effect="non-scaling-stroke" d="
  M 44.59 30.09
  A 2.97 2.97 0.0 0 0 41.62 27.12
  A 2.97 2.97 0.0 0 0 38.65 30.09
  A 2.97 2.97 0.0 0 0 41.62 33.06
  A 2.97 2.97 0.0 0 0 44.59 30.09"
/>
<path stroke="#aeadad" vector-effect="non-scaling-stroke" d="
  M 27.29 30.24
  A 2.94 2.94 0.0 0 0 24.35 27.30
  A 2.94 2.94 0.0 0 0 21.41 30.24
  A 2.94 2.94 0.0 0 0 24.35 33.18
  A 2.94 2.94 0.0 0 0 27.29 30.24"
/>
</g>
<path fill="#2f2f2e" d="
  M 33.80 88.00
  L 33.04 88.00
  C 16.83 73.26 -6.16 44.44 3.91 20.79
  C 12.35 0.96 37.19 -4.71 53.83 8.50
  Q 62.16 15.11 64.82 26.55
  Q 66.74 34.78 63.57 45.33
  C 58.72 61.43 46.20 76.69 33.80 88.00
  Z
  M 33.42 86.61
  C 33.82 86.61 33.65 86.63 33.81 86.48
  Q 47.39 73.99 56.48 58.47
  C 64.03 45.60 68.32 28.72 58.75 15.54
  Q 49.89 3.35 34.50 2.52
  Q 34.01 2.49 33.53 2.49
  Q 33.04 2.49 32.55 2.52
  Q 17.16 3.31 8.27 15.48
  C -1.34 28.63 2.91 45.52 10.43 58.41
  Q 19.48 73.95 33.03 86.48
  C 33.19 86.63 33.02 86.61 33.42 86.61
  Z"
/>
<path fill="#5c5a5a" d="
  M 33.53 2.49
  Q 34.01 2.49 34.50 2.52
  Q 49.89 3.35 58.75 15.54
  C 68.32 28.72 64.03 45.60 56.48 58.47
  Q 47.39 73.99 33.81 86.48
  C 33.65 86.63 33.82 86.61 33.42 86.61
  C 33.02 86.61 33.19 86.63 33.03 86.48
  Q 19.48 73.95 10.43 58.41
  C 2.91 45.52 -1.34 28.63 8.27 15.48
  Q 17.16 3.31 32.55 2.52
  Q 33.04 2.49 33.53 2.49
  Z
  M 21.20 48.41
  A 0.25 0.24 -22.7 0 0 21.62 48.58
  L 27.56 42.64
  A 1.33 1.29 21.8 0 1 28.49 42.26
  Q 39.12 42.21 43.87 42.28
  C 47.81 42.33 51.33 41.66 51.33 37.29
  Q 51.35 24.19 51.31 23.07
  Q 51.18 19.64 47.86 18.60
  A 2.44 2.29 52.0 0 0 47.15 18.49
  Q 20.69 18.50 19.90 18.48
  C 17.23 18.41 15.55 19.46 14.80 21.84
  A 2.33 2.15 56.7 0 0 14.68 22.57
  Q 14.66 24.62 14.66 37.27
  C 14.66 40.46 17.50 42.84 20.72 42.26
  A 0.41 0.41 0.0 0 1 21.20 42.66
  L 21.20 48.41
  Z"
/>
<path fill="#ffffff" d="
  M 21.20 48.41
  L 21.20 42.66
  A 0.41 0.41 0.0 0 0 20.72 42.26
  C 17.50 42.84 14.66 40.46 14.66 37.27
  Q 14.66 24.62 14.68 22.57
  A 2.33 2.15 56.7 0 1 14.80 21.84
  C 15.55 19.46 17.23 18.41 19.90 18.48
  Q 20.69 18.50 47.15 18.49
  A 2.44 2.29 52.0 0 1 47.86 18.60
  Q 51.18 19.64 51.31 23.07
  Q 51.35 24.19 51.33 37.29
  C 51.33 41.66 47.81 42.33 43.87 42.28
  Q 39.12 42.21 28.49 42.26
  A 1.33 1.29 21.8 0 0 27.56 42.64
  L 21.62 48.58
  A 0.25 0.24 -22.7 0 1 21.20 48.41
  Z
  M 35.96 30.06
  A 2.96 2.96 0.0 0 0 33.00 27.10
  A 2.96 2.96 0.0 0 0 30.04 30.06
  A 2.96 2.96 0.0 0 0 33.00 33.02
  A 2.96 2.96 0.0 0 0 35.96 30.06
  Z
  M 44.59 30.09
  A 2.97 2.97 0.0 0 0 41.62 27.12
  A 2.97 2.97 0.0 0 0 38.65 30.09
  A 2.97 2.97 0.0 0 0 41.62 33.06
  A 2.97 2.97 0.0 0 0 44.59 30.09
  Z
  M 27.29 30.24
  A 2.94 2.94 0.0 0 0 24.35 27.30
  A 2.94 2.94 0.0 0 0 21.41 30.24
  A 2.94 2.94 0.0 0 0 24.35 33.18
  A 2.94 2.94 0.0 0 0 27.29 30.24
  Z"
/>
<circle fill="#5c5a5a" cx="33.00" cy="30.06" r="2.96"/>
<circle fill="#5c5a5a" cx="41.62" cy="30.09" r="2.97"/>
<circle fill="#5c5a5a" cx="24.35" cy="30.24" r="2.94"/>
</svg>
