<?xml version="1.0" encoding="UTF-8" standalone="no"?>
<!DOCTYPE svg PUBLIC "-//W3C//DTD SVG 1.1//EN" "http://www.w3.org/Graphics/SVG/1.1/DTD/svg11.dtd">
<svg xmlns="http://www.w3.org/2000/svg" version="1.1" viewBox="0.00 0.00 66.00 88.00">
<g stroke-width="2.00" fill="none" stroke-linecap="butt">
<path stroke="#173f51" vector-effect="non-scaling-stroke" d="
  M 33.43 86.62
  C 34.01 86.62 33.59 86.66 33.79 86.47
  C 49.20 72.03 70.19 46.02 62.71 23.29
  C 58.66 10.99 46.80 2.57 33.49 2.56
  C 20.18 2.55 8.31 10.96 4.24 23.25
  C -3.27 45.96 17.68 72.01 33.06 86.47
  C 33.26 86.66 32.85 86.62 33.43 86.62"
/>
<path stroke="#8fa9b5" vector-effect="non-scaling-stroke" d="
  M 32.71 25.51
  Q 34.88 25.51 35.00 25.51
  A 1.59 1.56 -67.1 0 0 35.98 25.10
  Q 37.85 23.39 40.74 23.35
  A 0.63 0.63 0.0 0 0 41.34 22.54
  Q 40.33 19.02 36.33 18.77
  A 0.79 0.78 85.2 0 1 35.63 18.17
  Q 35.08 15.80 32.71 15.80
  Q 30.34 15.80 29.80 18.17
  A 0.79 0.78 -85.3 0 1 29.09 18.77
  Q 25.09 19.02 24.09 22.55
  A 0.63 0.63 0.0 0 0 24.69 23.36
  Q 27.58 23.39 29.45 25.10
  A 1.59 1.56 67.1 0 0 30.43 25.51
  Q 30.55 25.52 32.71 25.51"
/>
<path stroke="#8fa9b5" vector-effect="non-scaling-stroke" d="
  M 35.1156 27.0204
  A 0.57 0.57 0.0 0 0 34.5577 26.4386
  L 30.8985 26.3620
  A 0.57 0.57 0.0 0 0 30.3167 26.9199
  L 30.2844 28.4596
  A 0.57 0.57 0.0 0 0 30.8423 29.0414
  L 34.5015 29.1180
  A 0.57 0.57 0.0 0 0 35.0833 28.5601
  L 35.1156 27.0204"
/>
<path stroke="#8fa9b5" vector-effect="non-scaling-stroke" d="
  M 44.49 33.19
  Q 47.65 36.55 48.24 41.28
  A 0.81 0.81 0.0 0 0 48.49 41.77
  Q 49.08 42.33 49.63 42.01
  A 0.69 0.69 0.0 0 0 49.96 41.36
  Q 49.49 36.09 45.70 32.06
  Q 41.91 28.02 36.68 27.23
  A 0.69 0.69 0.0 0 0 36.01 27.52
  Q 35.66 28.05 36.18 28.67
  A 0.81 0.81 0.0 0 0 36.65 28.95
  Q 41.33 29.83 44.49 33.19"
/>
<path stroke="#8fa9b5" vector-effect="non-scaling-stroke" d="
  M 20.90 33.21
  Q 24.05 29.86 28.72 28.98
  A 0.81 0.81 0.0 0 0 29.19 28.70
  Q 29.71 28.08 29.36 27.55
  A 0.69 0.68 -21.3 0 0 28.69 27.26
  Q 23.48 28.05 19.70 32.07
  Q 15.91 36.09 15.44 41.35
  A 0.69 0.68 -72.2 0 0 15.77 41.99
  Q 16.32 42.31 16.91 41.76
  A 0.81 0.81 0.0 0 0 17.15 41.27
  Q 17.75 36.55 20.90 33.21"
/>
<path stroke="#8fa9b5" vector-effect="non-scaling-stroke" d="
  M 32.68 52.24
  Q 37.40 52.25 38.37 52.19
  A 2.34 2.32 -64.9 0 0 39.65 51.72
  C 44.03 48.46 46.86 40.61 42.87 35.64
  Q 38.28 29.92 32.71 29.91
  Q 27.14 29.90 22.54 35.60
  C 18.53 40.57 21.34 48.42 25.71 51.70
  A 2.34 2.32 65.1 0 0 26.99 52.17
  Q 27.95 52.23 32.68 52.24"
/>
<path stroke="#8fa9b5" vector-effect="non-scaling-stroke" d="
  M 18.15 45.08
  A 1.72 1.72 0.0 0 0 16.43 43.36
  A 1.72 1.72 0.0 0 0 14.71 45.08
  A 1.72 1.72 0.0 0 0 16.43 46.80
  A 1.72 1.72 0.0 0 0 18.15 45.08"
/>
<path stroke="#8fa9b5" vector-effect="non-scaling-stroke" d="
  M 50.73 45.07
  A 1.73 1.73 0.0 0 0 49.00 43.34
  A 1.73 1.73 0.0 0 0 47.27 45.07
  A 1.73 1.73 0.0 0 0 49.00 46.80
  A 1.73 1.73 0.0 0 0 50.73 45.07"
/>
</g>
<path fill="#0e2b37" d="
  M 33.81 88.00
  L 33.04 88.00
  C 21.77 77.76 12.09 65.66 5.65 51.57
  Q 2.21 44.05 1.60 34.90
  C 0.54 18.88 11.35 5.51 26.73 2.05
  C 40.76 -1.11 55.31 5.69 62.17 18.85
  C 67.40 28.90 65.86 41.26 61.31 51.54
  C 55.18 65.40 44.96 77.81 33.81 88.00
  Z
  M 33.43 86.62
  C 34.01 86.62 33.59 86.66 33.79 86.47
  C 49.20 72.03 70.19 46.02 62.71 23.29
  C 58.66 10.99 46.80 2.57 33.49 2.56
  C 20.18 2.55 8.31 10.96 4.24 23.25
  C -3.27 45.96 17.68 72.01 33.06 86.47
  C 33.26 86.66 32.85 86.62 33.43 86.62
  Z"
/>
<path fill="#1f526b" d="
  M 33.49 2.56
  C 46.80 2.57 58.66 10.99 62.71 23.29
  C 70.19 46.02 49.20 72.03 33.79 86.47
  C 33.59 86.66 34.01 86.62 33.43 86.62
  C 32.85 86.62 33.26 86.66 33.06 86.47
  C 17.68 72.01 -3.27 45.96 4.24 23.25
  C 8.31 10.96 20.18 2.55 33.49 2.56
  Z
  M 32.71 25.51
  Q 34.88 25.51 35.00 25.51
  A 1.59 1.56 -67.1 0 0 35.98 25.10
  Q 37.85 23.39 40.74 23.35
  A 0.63 0.63 0.0 0 0 41.34 22.54
  Q 40.33 19.02 36.33 18.77
  A 0.79 0.78 85.2 0 1 35.63 18.17
  Q 35.08 15.80 32.71 15.80
  Q 30.34 15.80 29.80 18.17
  A 0.79 0.78 -85.3 0 1 29.09 18.77
  Q 25.09 19.02 24.09 22.55
  A 0.63 0.63 0.0 0 0 24.69 23.36
  Q 27.58 23.39 29.45 25.10
  A 1.59 1.56 67.1 0 0 30.43 25.51
  Q 30.55 25.52 32.71 25.51
  Z
  M 35.1156 27.0204
  A 0.57 0.57 0.0 0 0 34.5577 26.4386
  L 30.8985 26.3620
  A 0.57 0.57 0.0 0 0 30.3167 26.9199
  L 30.2844 28.4596
  A 0.57 0.57 0.0 0 0 30.8423 29.0414
  L 34.5015 29.1180
  A 0.57 0.57 0.0 0 0 35.0833 28.5601
  L 35.1156 27.0204
  Z
  M 44.49 33.19
  Q 47.65 36.55 48.24 41.28
  A 0.81 0.81 0.0 0 0 48.49 41.77
  Q 49.08 42.33 49.63 42.01
  A 0.69 0.69 0.0 0 0 49.96 41.36
  Q 49.49 36.09 45.70 32.06
  Q 41.91 28.02 36.68 27.23
  A 0.69 0.69 0.0 0 0 36.01 27.52
  Q 35.66 28.05 36.18 28.67
  A 0.81 0.81 0.0 0 0 36.65 28.95
  Q 41.33 29.83 44.49 33.19
  Z
  M 20.90 33.21
  Q 24.05 29.86 28.72 28.98
  A 0.81 0.81 0.0 0 0 29.19 28.70
  Q 29.71 28.08 29.36 27.55
  A 0.69 0.68 -21.3 0 0 28.69 27.26
  Q 23.48 28.05 19.70 32.07
  Q 15.91 36.09 15.44 41.35
  A 0.69 0.68 -72.2 0 0 15.77 41.99
  Q 16.32 42.31 16.91 41.76
  A 0.81 0.81 0.0 0 0 17.15 41.27
  Q 17.75 36.55 20.90 33.21
  Z
  M 32.68 52.24
  Q 37.40 52.25 38.37 52.19
  A 2.34 2.32 -64.9 0 0 39.65 51.72
  C 44.03 48.46 46.86 40.61 42.87 35.64
  Q 38.28 29.92 32.71 29.91
  Q 27.14 29.90 22.54 35.60
  C 18.53 40.57 21.34 48.42 25.71 51.70
  A 2.34 2.32 65.1 0 0 26.99 52.17
  Q 27.95 52.23 32.68 52.24
  Z
  M 18.15 45.08
  A 1.72 1.72 0.0 0 0 16.43 43.36
  A 1.72 1.72 0.0 0 0 14.71 45.08
  A 1.72 1.72 0.0 0 0 16.43 46.80
  A 1.72 1.72 0.0 0 0 18.15 45.08
  Z
  M 50.73 45.07
  A 1.73 1.73 0.0 0 0 49.00 43.34
  A 1.73 1.73 0.0 0 0 47.27 45.07
  A 1.73 1.73 0.0 0 0 49.00 46.80
  A 1.73 1.73 0.0 0 0 50.73 45.07
  Z"
/>
<path fill="#ffffff" d="
  M 32.71 15.80
  Q 35.08 15.80 35.63 18.17
  A 0.79 0.78 85.2 0 0 36.33 18.77
  Q 40.33 19.02 41.34 22.54
  A 0.63 0.63 0.0 0 1 40.74 23.35
  Q 37.85 23.39 35.98 25.10
  A 1.59 1.56 -67.1 0 1 35.00 25.51
  Q 34.88 25.51 32.71 25.51
  Q 30.55 25.52 30.43 25.51
  A 1.59 1.56 67.1 0 1 29.45 25.10
  Q 27.58 23.39 24.69 23.36
  A 0.63 0.63 0.0 0 1 24.09 22.55
  Q 25.09 19.02 29.09 18.77
  A 0.79 0.78 -85.3 0 0 29.80 18.17
  Q 30.34 15.80 32.71 15.80
  Z"
/>
<rect fill="#ffffff" x="-2.40" y="-1.34" transform="translate(32.70,27.74) rotate(1.2)" width="4.80" height="2.68" rx="0.57"/>
<path fill="#ffffff" d="
  M 45.70 32.06
  Q 49.49 36.09 49.96 41.36
  A 0.69 0.69 0.0 0 1 49.63 42.01
  Q 49.08 42.33 48.49 41.77
  A 0.81 0.81 0.0 0 1 48.24 41.28
  Q 47.65 36.55 44.49 33.19
  Q 41.33 29.83 36.65 28.95
  A 0.81 0.81 0.0 0 1 36.18 28.67
  Q 35.66 28.05 36.01 27.52
  A 0.69 0.69 0.0 0 1 36.68 27.23
  Q 41.91 28.02 45.70 32.06
  Z"
/>
<path fill="#ffffff" d="
  M 20.90 33.21
  Q 17.75 36.55 17.15 41.27
  A 0.81 0.81 0.0 0 1 16.91 41.76
  Q 16.32 42.31 15.77 41.99
  A 0.69 0.68 -72.2 0 1 15.44 41.35
  Q 15.91 36.09 19.70 32.07
  Q 23.48 28.05 28.69 27.26
  A 0.69 0.68 -21.3 0 1 29.36 27.55
  Q 29.71 28.08 29.19 28.70
  A 0.81 0.81 0.0 0 1 28.72 28.98
  Q 24.05 29.86 20.90 33.21
  Z"
/>
<path fill="#ffffff" d="
  M 32.71 29.91
  Q 38.28 29.92 42.87 35.64
  C 46.86 40.61 44.03 48.46 39.65 51.72
  A 2.34 2.32 -64.9 0 1 38.37 52.19
  Q 37.40 52.25 32.68 52.24
  Q 27.95 52.23 26.99 52.17
  A 2.34 2.32 65.1 0 1 25.71 51.70
  C 21.34 48.42 18.53 40.57 22.54 35.60
  Q 27.14 29.90 32.71 29.91
  Z"
/>
<circle fill="#ffffff" cx="16.43" cy="45.08" r="1.72"/>
<circle fill="#ffffff" cx="49.00" cy="45.07" r="1.73"/>
</svg>
