<?xml version="1.0" encoding="UTF-8" standalone="no"?>
<!DOCTYPE svg PUBLIC "-//W3C//DTD SVG 1.1//EN" "http://www.w3.org/Graphics/SVG/1.1/DTD/svg11.dtd">
<svg xmlns="http://www.w3.org/2000/svg" version="1.1" viewBox="0.00 0.00 66.00 88.00">
<g stroke-width="2.00" fill="none" stroke-linecap="butt">
<path stroke="#615742" vector-effect="non-scaling-stroke" d="
  M 33.39 86.68
  Q 33.53 86.68 33.66 86.65
  A 0.27 0.14 -54.5 0 0 33.72 86.62
  Q 47.29 74.09 56.37 58.64
  C 63.78 46.06 68.25 29.55 59.35 16.42
  Q 50.33 3.10 33.75 2.48
  Q 33.64 2.47 33.54 2.47
  Q 33.43 2.47 33.33 2.47
  Q 16.74 3.04 7.68 16.33
  C -1.27 29.43 3.15 45.95 10.51 58.56
  Q 19.54 74.04 33.06 86.62
  A 0.27 0.14 54.7 0 0 33.12 86.65
  Q 33.26 86.68 33.39 86.68"
/>
<path stroke="#c0b9ac" vector-effect="non-scaling-stroke" d="
  M 30.42 38.47
  L 33.08 33.87
  A 1.42 1.41 -74.3 0 1 34.34 33.16
  Q 43.26 33.31 44.63 26.19
  A 0.24 0.23 -2.4 0 0 44.33 25.92
  Q 38.88 27.54 34.78 31.50
  A 0.32 0.32 0.0 0 1 34.28 31.12
  L 35.73 28.61
  A 0.67 0.64 88.5 0 1 35.91 28.41
  Q 41.80 23.95 39.04 16.31
  A 0.30 0.30 0.0 0 0 38.54 16.20
  Q 33.33 21.41 34.86 27.98
  A 1.48 1.46 53.7 0 1 34.70 29.07
  L 32.80 32.36
  A 0.19 0.18 57.4 0 1 32.46 32.28
  L 31.79 25.10
  A 0.44 0.44 0.0 0 0 31.00 24.88
  Q 27.31 29.95 31.57 33.24
  A 0.92 0.92 0.0 0 1 31.69 34.58
  L 23.87 43.22
  A 0.23 0.23 0.0 0 1 23.47 43.01
  C 24.59 38.96 24.79 35.68 22.67 31.96
  A 0.29 0.29 0.0 0 0 22.20 31.92
  Q 17.25 38.04 21.90 44.19
  A 0.73 0.73 0.0 0 1 21.74 45.24
  L 16.44 48.97
  A 1.83 1.83 0.0 0 0 15.89 51.37
  L 15.92 51.42
  A 1.56 1.56 0.0 0 0 18.33 51.77
  L 25.60 45.00
  A 0.55 0.54 46.8 0 1 26.38 45.03
  C 29.51 48.41 35.44 46.96 38.37 44.43
  A 0.44 0.44 0.0 0 0 38.28 43.70
  Q 33.14 41.08 27.63 43.22
  A 0.26 0.26 0.0 0 1 27.32 42.84
  Q 27.74 42.19 29.16 40.04
  Q 29.70 39.23 31.07 39.53
  Q 37.13 40.85 42.62 36.14
  A 0.30 0.30 0.0 0 0 42.47 35.62
  Q 37.30 34.86 30.63 38.68
  A 0.15 0.15 0.0 0 1 30.42 38.47"
/>
<path stroke="#c0b9ac" vector-effect="non-scaling-stroke" d="
  M 27.30 38.36
  A 0.45 0.45 0.0 0 0 28.06 38.09
  Q 28.57 33.55 26.66 29.54
  A 0.28 0.28 0.0 0 0 26.15 29.53
  Q 23.54 34.75 27.30 38.36"
/>
</g>
<path fill="#413b2b" d="
  M 33.82 88.00
  L 33.03 88.00
  C 21.72 77.71 12.19 65.74 5.68 51.55
  Q 2.13 43.83 1.58 34.90
  C 0.36 15.44 16.95 -0.49 36.66 1.49
  C 53.48 3.18 66.23 17.37 65.45 34.25
  Q 65.08 42.25 62.04 49.78
  C 56.24 64.15 45.28 77.50 33.82 88.00
  Z
  M 33.39 86.68
  Q 33.53 86.68 33.66 86.65
  A 0.27 0.14 -54.5 0 0 33.72 86.62
  Q 47.29 74.09 56.37 58.64
  C 63.78 46.06 68.25 29.55 59.35 16.42
  Q 50.33 3.10 33.75 2.48
  Q 33.64 2.47 33.54 2.47
  Q 33.43 2.47 33.33 2.47
  Q 16.74 3.04 7.68 16.33
  C -1.27 29.43 3.15 45.95 10.51 58.56
  Q 19.54 74.04 33.06 86.62
  A 0.27 0.14 54.7 0 0 33.12 86.65
  Q 33.26 86.68 33.39 86.68
  Z"
/>
<path fill="#807358" d="
  M 33.54 2.47
  Q 33.64 2.47 33.75 2.48
  Q 50.33 3.10 59.35 16.42
  C 68.25 29.55 63.78 46.06 56.37 58.64
  Q 47.29 74.09 33.72 86.62
  A 0.27 0.14 -54.5 0 1 33.66 86.65
  Q 33.53 86.68 33.39 86.68
  Q 33.26 86.68 33.12 86.65
  A 0.27 0.14 54.7 0 1 33.06 86.62
  Q 19.54 74.04 10.51 58.56
  C 3.15 45.95 -1.27 29.43 7.68 16.33
  Q 16.74 3.04 33.33 2.47
  Q 33.43 2.47 33.54 2.47
  Z
  M 30.42 38.47
  L 33.08 33.87
  A 1.42 1.41 -74.3 0 1 34.34 33.16
  Q 43.26 33.31 44.63 26.19
  A 0.24 0.23 -2.4 0 0 44.33 25.92
  Q 38.88 27.54 34.78 31.50
  A 0.32 0.32 0.0 0 1 34.28 31.12
  L 35.73 28.61
  A 0.67 0.64 88.5 0 1 35.91 28.41
  Q 41.80 23.95 39.04 16.31
  A 0.30 0.30 0.0 0 0 38.54 16.20
  Q 33.33 21.41 34.86 27.98
  A 1.48 1.46 53.7 0 1 34.70 29.07
  L 32.80 32.36
  A 0.19 0.18 57.4 0 1 32.46 32.28
  L 31.79 25.10
  A 0.44 0.44 0.0 0 0 31.00 24.88
  Q 27.31 29.95 31.57 33.24
  A 0.92 0.92 0.0 0 1 31.69 34.58
  L 23.87 43.22
  A 0.23 0.23 0.0 0 1 23.47 43.01
  C 24.59 38.96 24.79 35.68 22.67 31.96
  A 0.29 0.29 0.0 0 0 22.20 31.92
  Q 17.25 38.04 21.90 44.19
  A 0.73 0.73 0.0 0 1 21.74 45.24
  L 16.44 48.97
  A 1.83 1.83 0.0 0 0 15.89 51.37
  L 15.92 51.42
  A 1.56 1.56 0.0 0 0 18.33 51.77
  L 25.60 45.00
  A 0.55 0.54 46.8 0 1 26.38 45.03
  C 29.51 48.41 35.44 46.96 38.37 44.43
  A 0.44 0.44 0.0 0 0 38.28 43.70
  Q 33.14 41.08 27.63 43.22
  A 0.26 0.26 0.0 0 1 27.32 42.84
  Q 27.74 42.19 29.16 40.04
  Q 29.70 39.23 31.07 39.53
  Q 37.13 40.85 42.62 36.14
  A 0.30 0.30 0.0 0 0 42.47 35.62
  Q 37.30 34.86 30.63 38.68
  A 0.15 0.15 0.0 0 1 30.42 38.47
  Z
  M 27.30 38.36
  A 0.45 0.45 0.0 0 0 28.06 38.09
  Q 28.57 33.55 26.66 29.54
  A 0.28 0.28 0.0 0 0 26.15 29.53
  Q 23.54 34.75 27.30 38.36
  Z"
/>
<path fill="#ffffff" d="
  M 30.42 38.47
  A 0.15 0.15 0.0 0 0 30.63 38.68
  Q 37.30 34.86 42.47 35.62
  A 0.30 0.30 0.0 0 1 42.62 36.14
  Q 37.13 40.85 31.07 39.53
  Q 29.70 39.23 29.16 40.04
  Q 27.74 42.19 27.32 42.84
  A 0.26 0.26 0.0 0 0 27.63 43.22
  Q 33.14 41.08 38.28 43.70
  A 0.44 0.44 0.0 0 1 38.37 44.43
  C 35.44 46.96 29.51 48.41 26.38 45.03
  A 0.55 0.54 46.8 0 0 25.60 45.00
  L 18.33 51.77
  A 1.56 1.56 0.0 0 1 15.92 51.42
  L 15.89 51.37
  A 1.83 1.83 0.0 0 1 16.44 48.97
  L 21.74 45.24
  A 0.73 0.73 0.0 0 0 21.90 44.19
  Q 17.25 38.04 22.20 31.92
  A 0.29 0.29 0.0 0 1 22.67 31.96
  C 24.79 35.68 24.59 38.96 23.47 43.01
  A 0.23 0.23 0.0 0 0 23.87 43.22
  L 31.69 34.58
  A 0.92 0.92 0.0 0 0 31.57 33.24
  Q 27.31 29.95 31.00 24.88
  A 0.44 0.44 0.0 0 1 31.79 25.10
  L 32.46 32.28
  A 0.19 0.18 57.4 0 0 32.80 32.36
  L 34.70 29.07
  A 1.48 1.46 53.7 0 0 34.86 27.98
  Q 33.33 21.41 38.54 16.20
  A 0.30 0.30 0.0 0 1 39.04 16.31
  Q 41.80 23.95 35.91 28.41
  A 0.67 0.64 88.5 0 0 35.73 28.61
  L 34.28 31.12
  A 0.32 0.32 0.0 0 0 34.78 31.50
  Q 38.88 27.54 44.33 25.92
  A 0.24 0.23 -2.4 0 1 44.63 26.19
  Q 43.26 33.31 34.34 33.16
  A 1.42 1.41 -74.3 0 0 33.08 33.87
  L 30.42 38.47
  Z"
/>
<path fill="#ffffff" d="
  M 27.30 38.36
  Q 23.54 34.75 26.15 29.53
  A 0.28 0.28 0.0 0 1 26.66 29.54
  Q 28.57 33.55 28.06 38.09
  A 0.45 0.45 0.0 0 1 27.30 38.36
  Z"
/>
</svg>
