<?xml version="1.0" encoding="UTF-8" standalone="no"?>
<!DOCTYPE svg PUBLIC "-//W3C//DTD SVG 1.1//EN" "http://www.w3.org/Graphics/SVG/1.1/DTD/svg11.dtd">
<svg xmlns="http://www.w3.org/2000/svg" version="1.1" viewBox="0.00 0.00 66.00 88.00">
<g stroke-width="2.00" fill="none" stroke-linecap="butt">
<path stroke="#431a44" vector-effect="non-scaling-stroke" d="
  M 33.43 86.53
  Q 33.74 86.53 33.90 86.38
  C 47.98 73.15 63.80 53.55 64.24 33.31
  C 64.61 16.47 51.26 3.57 34.75 2.50
  Q 34.12 2.46 33.48 2.46
  Q 32.85 2.46 32.21 2.50
  C 15.70 3.55 2.33 16.43 2.68 33.27
  C 3.10 53.51 18.89 73.13 32.95 86.38
  Q 33.11 86.53 33.43 86.53"
/>
<path stroke="#ac91ac" vector-effect="non-scaling-stroke" d="
  M 23.27 24.40
  C 16.81 30.87 15.55 41.26 16.85 49.93
  Q 16.85 49.95 16.92 50.01
  Q 16.98 50.08 17.00 50.08
  C 25.67 51.37 36.06 50.10 42.52 43.63
  C 48.98 37.16 50.24 26.77 48.94 18.10
  Q 48.94 18.08 48.88 18.02
  Q 48.81 17.95 48.79 17.95
  C 40.12 16.67 29.73 17.93 23.27 24.40"
/>
<path stroke="#ac91ac" vector-effect="non-scaling-stroke" d="
  M 40.24 25.16
  C 35.76 24.39 30.25 27.79 27.76 31.21
  Q 24.21 36.08 23.66 42.43
  A 0.22 0.22 0.0 0 0 24.07 42.54
  Q 29.50 31.23 40.30 25.56
  A 0.21 0.21 0.0 0 0 40.24 25.16"
/>
</g>
<path fill="#2e112e" d="
  M 33.82 88.00
  L 33.12 88.00
  Q 16.23 72.95 6.69 54.04
  Q 3.53 47.78 2.04 39.25
  C 0.20 28.69 3.05 18.30 10.77 10.68
  C 26.01 -4.38 52.37 -0.82 62.21 18.86
  C 74.33 43.08 50.53 72.71 33.82 88.00
  Z
  M 33.43 86.53
  Q 33.74 86.53 33.90 86.38
  C 47.98 73.15 63.80 53.55 64.24 33.31
  C 64.61 16.47 51.26 3.57 34.75 2.50
  Q 34.12 2.46 33.48 2.46
  Q 32.85 2.46 32.21 2.50
  C 15.70 3.55 2.33 16.43 2.68 33.27
  C 3.10 53.51 18.89 73.13 32.95 86.38
  Q 33.11 86.53 33.43 86.53
  Z"
/>
<path fill="#582359" d="
  M 33.48 2.46
  Q 34.12 2.46 34.75 2.50
  C 51.26 3.57 64.61 16.47 64.24 33.31
  C 63.80 53.55 47.98 73.15 33.90 86.38
  Q 33.74 86.53 33.43 86.53
  Q 33.11 86.53 32.95 86.38
  C 18.89 73.13 3.10 53.51 2.68 33.27
  C 2.33 16.43 15.70 3.55 32.21 2.50
  Q 32.85 2.46 33.48 2.46
  Z
  M 23.27 24.40
  C 16.81 30.87 15.55 41.26 16.85 49.93
  Q 16.85 49.95 16.92 50.01
  Q 16.98 50.08 17.00 50.08
  C 25.67 51.37 36.06 50.10 42.52 43.63
  C 48.98 37.16 50.24 26.77 48.94 18.10
  Q 48.94 18.08 48.88 18.02
  Q 48.81 17.95 48.79 17.95
  C 40.12 16.67 29.73 17.93 23.27 24.40
  Z"
/>
<path fill="#ffffff" d="
  M 48.88 18.02
  Q 48.94 18.08 48.94 18.10
  C 50.24 26.77 48.98 37.16 42.52 43.63
  C 36.06 50.10 25.67 51.37 17.00 50.08
  Q 16.98 50.08 16.92 50.01
  Q 16.85 49.95 16.85 49.93
  C 15.55 41.26 16.81 30.87 23.27 24.40
  C 29.73 17.93 40.12 16.67 48.79 17.95
  Q 48.81 17.95 48.88 18.02
  Z
  M 40.24 25.16
  C 35.76 24.39 30.25 27.79 27.76 31.21
  Q 24.21 36.08 23.66 42.43
  A 0.22 0.22 0.0 0 0 24.07 42.54
  Q 29.50 31.23 40.30 25.56
  A 0.21 0.21 0.0 0 0 40.24 25.16
  Z"
/>
<path fill="#582359" d="
  M 40.30 25.56
  Q 29.50 31.23 24.07 42.54
  A 0.22 0.22 0.0 0 1 23.66 42.43
  Q 24.21 36.08 27.76 31.21
  C 30.25 27.79 35.76 24.39 40.24 25.16
  A 0.21 0.21 0.0 0 1 40.30 25.56
  Z"
/>
</svg>
