<?xml version="1.0" encoding="UTF-8" standalone="no"?>
<!DOCTYPE svg PUBLIC "-//W3C//DTD SVG 1.1//EN" "http://www.w3.org/Graphics/SVG/1.1/DTD/svg11.dtd">
<svg xmlns="http://www.w3.org/2000/svg" version="1.1" viewBox="0.00 0.00 66.00 88.00">
<g stroke-width="2.00" fill="none" stroke-linecap="butt">
<path stroke="#2b4c38" vector-effect="non-scaling-stroke" d="
  M 33.42 86.65
  Q 33.47 86.65 33.52 86.64
  A 0.29 0.23 -63.7 0 0 33.70 86.56
  C 51.59 70.35 78.68 34.61 55.18 11.34
  C 49.41 5.63 41.70 2.58 33.54 2.56
  C 25.38 2.55 17.66 5.59 11.87 11.28
  C -11.69 34.48 15.29 70.30 33.14 86.56
  A 0.29 0.23 63.8 0 0 33.31 86.64
  Q 33.36 86.65 33.42 86.65"
/>
<path stroke="#9cb1a5" vector-effect="non-scaling-stroke" d="
  M 20.08 41.19
  Q 20.09 41.19 21.35 39.64
  Q 22.54 38.18 24.62 39.01
  A 0.37 0.37 0.0 0 1 24.70 39.65
  Q 21.06 42.31 21.68 47.70
  A 0.25 0.25 0.0 0 0 22.18 47.71
  Q 22.84 43.35 27.27 42.06
  A 0.42 0.41 -85.9 0 1 27.76 42.63
  Q 26.50 45.43 28.53 48.12
  A 0.22 0.22 0.0 0 0 28.92 47.96
  Q 28.37 44.58 30.56 43.42
  A 0.40 0.40 0.0 0 1 31.15 43.82
  Q 30.59 48.95 35.00 51.80
  A 0.21 0.20 -3.6 0 0 35.27 51.50
  Q 32.39 48.18 34.53 43.81
  A 0.50 0.50 0.0 0 1 35.45 43.84
  Q 36.51 46.59 39.73 47.16
  A 0.23 0.22 -19.1 0 0 39.92 46.77
  L 38.70 45.69
  A 1.42 1.41 15.6 0 1 38.25 44.90
  L 37.77 42.56
  A 0.46 0.46 0.0 0 1 38.60 42.21
  Q 40.89 45.65 45.47 45.43
  Q 46.51 45.38 46.94 45.08
  A 0.22 0.21 28.1 0 0 46.82 44.69
  Q 42.77 44.53 41.02 40.07
  A 0.55 0.55 0.0 0 1 41.72 39.36
  Q 44.65 40.45 47.36 38.42
  A 0.38 0.38 0.0 0 0 47.24 37.75
  Q 47.20 37.74 46.54 38.06
  C 45.05 38.78 43.40 37.79 42.45 36.42
  A 0.34 0.33 -12.9 0 1 42.78 35.90
  Q 47.64 36.58 50.85 31.93
  A 0.17 0.17 0.0 0 0 50.60 31.70
  Q 46.87 34.74 42.72 32.52
  A 0.48 0.47 -43.2 0 1 42.75 31.67
  Q 45.63 30.37 46.32 26.85
  A 0.19 0.19 0.0 0 0 45.99 26.70
  L 44.72 28.35
  A 1.53 1.52 13.3 0 1 43.81 28.91
  L 41.80 29.32
  A 0.58 0.58 0.0 0 1 41.34 28.29
  Q 44.88 25.59 44.35 20.35
  A 0.28 0.28 0.0 0 0 43.79 20.33
  Q 43.10 24.65 38.74 25.94
  A 0.42 0.42 0.0 0 1 38.24 25.35
  Q 39.46 22.83 37.40 19.72
  A 0.24 0.24 0.0 0 0 36.97 19.91
  Q 37.82 22.93 35.43 24.56
  A 0.41 0.40 76.7 0 1 34.81 24.17
  Q 35.41 19.22 31.06 16.21
  A 0.24 0.24 0.0 0 0 30.74 16.56
  Q 33.73 20.20 31.27 24.38
  A 0.32 0.32 0.0 0 1 30.70 24.34
  Q 29.50 21.50 26.20 20.82
  A 0.30 0.30 0.0 0 0 25.99 21.37
  L 27.08 22.00
  A 1.34 1.33 -80.6 0 1 27.71 22.88
  L 28.24 25.47
  A 0.46 0.46 0.0 0 1 27.41 25.82
  Q 25.05 22.33 20.54 22.57
  Q 19.50 22.63 19.04 22.92
  A 0.21 0.20 -59.0 0 0 19.13 23.30
  Q 23.56 23.62 24.97 28.18
  A 0.39 0.39 0.0 0 1 24.45 28.66
  C 23.10 28.13 19.60 28.12 18.51 29.62
  A 0.35 0.35 0.0 0 0 18.92 30.15
  Q 21.85 29.03 23.45 31.47
  A 0.38 0.38 0.0 0 1 23.10 32.06
  Q 18.13 31.61 15.12 36.08
  A 0.17 0.17 0.0 0 0 15.37 36.30
  Q 19.15 33.24 23.27 35.50
  A 0.44 0.44 0.0 0 1 23.25 36.28
  Q 20.28 37.72 19.73 40.95
  A 0.23 0.23 0.0 0 0 20.08 41.19"
/>
<path stroke="#9cb1a5" vector-effect="non-scaling-stroke" d="
  M 34.23 32.64
  Q 34.80 33.23 34.85 33.25
  A 1.68 1.66 -41.2 0 0 35.75 33.30
  L 40.08 32.42
  A 0.54 0.53 76.3 0 0 40.48 31.74
  Q 39.92 29.89 38.53 28.46
  Q 37.13 27.02 35.30 26.41
  A 0.54 0.53 15.3 0 0 34.61 26.80
  L 33.61 31.10
  A 1.68 1.66 -47.2 0 0 33.64 32.00
  Q 33.65 32.05 34.23 32.64"
/>
<path stroke="#9cb1a5" vector-effect="non-scaling-stroke" d="
  M 31.74 32.64
  Q 32.32 32.04 32.33 32.00
  A 1.69 1.67 47.4 0 0 32.36 31.09
  L 31.37 26.76
  A 0.54 0.53 -15.1 0 0 30.68 26.37
  Q 28.83 26.98 27.43 28.41
  Q 26.02 29.85 25.45 31.71
  A 0.54 0.53 -76.1 0 0 25.85 32.39
  L 30.20 33.29
  A 1.69 1.67 41.4 0 0 31.11 33.24
  Q 31.16 33.23 31.74 32.64"
/>
<path stroke="#9cb1a5" vector-effect="non-scaling-stroke" d="
  M 31.74 35.35
  Q 31.16 34.76 31.11 34.75
  A 1.68 1.66 -41.3 0 0 30.21 34.69
  L 25.88 35.58
  A 0.54 0.53 76.2 0 0 25.48 36.26
  Q 26.05 38.11 27.44 39.54
  Q 28.84 40.97 30.68 41.58
  A 0.54 0.53 15.1 0 0 31.37 41.19
  L 32.35 36.89
  A 1.68 1.66 -47.3 0 0 32.32 35.99
  Q 32.31 35.94 31.74 35.35"
/>
<path stroke="#9cb1a5" vector-effect="non-scaling-stroke" d="
  M 34.27 35.34
  Q 33.69 35.92 33.68 35.97
  A 1.67 1.65 47.7 0 0 33.64 36.87
  L 34.60 41.17
  A 0.53 0.53 0.0 0 0 35.28 41.56
  Q 37.12 40.96 38.52 39.55
  Q 39.92 38.13 40.50 36.29
  A 0.53 0.53 0.0 0 0 40.10 35.61
  L 35.79 34.69
  A 1.67 1.65 41.7 0 0 34.89 34.74
  Q 34.85 34.76 34.27 35.34"
/>
</g>
<path fill="#1c3425" d="
  M 33.81 88.00
  L 33.04 88.00
  C 21.72 77.72 12.19 65.74 5.68 51.55
  Q 2.13 43.83 1.58 34.90
  C 0.29 14.37 18.31 -1.38 38.76 1.77
  C 51.82 3.78 62.15 13.81 64.83 26.54
  C 69.52 48.84 49.20 73.96 33.81 88.00
  Z
  M 33.42 86.65
  Q 33.47 86.65 33.52 86.64
  A 0.29 0.23 -63.7 0 0 33.70 86.56
  C 51.59 70.35 78.68 34.61 55.18 11.34
  C 49.41 5.63 41.70 2.58 33.54 2.56
  C 25.38 2.55 17.66 5.59 11.87 11.28
  C -11.69 34.48 15.29 70.30 33.14 86.56
  A 0.29 0.23 63.8 0 0 33.31 86.64
  Q 33.36 86.65 33.42 86.65
  Z"
/>
<path fill="#39634a" d="
  M 33.54 2.56
  C 41.70 2.58 49.41 5.63 55.18 11.34
  C 78.68 34.61 51.59 70.35 33.70 86.56
  A 0.29 0.23 -63.7 0 1 33.52 86.64
  Q 33.47 86.65 33.42 86.65
  Q 33.36 86.65 33.31 86.64
  A 0.29 0.23 63.8 0 1 33.14 86.56
  C 15.29 70.30 -11.69 34.48 11.87 11.28
  C 17.66 5.59 25.38 2.55 33.54 2.56
  Z
  M 20.08 41.19
  Q 20.09 41.19 21.35 39.64
  Q 22.54 38.18 24.62 39.01
  A 0.37 0.37 0.0 0 1 24.70 39.65
  Q 21.06 42.31 21.68 47.70
  A 0.25 0.25 0.0 0 0 22.18 47.71
  Q 22.84 43.35 27.27 42.06
  A 0.42 0.41 -85.9 0 1 27.76 42.63
  Q 26.50 45.43 28.53 48.12
  A 0.22 0.22 0.0 0 0 28.92 47.96
  Q 28.37 44.58 30.56 43.42
  A 0.40 0.40 0.0 0 1 31.15 43.82
  Q 30.59 48.95 35.00 51.80
  A 0.21 0.20 -3.6 0 0 35.27 51.50
  Q 32.39 48.18 34.53 43.81
  A 0.50 0.50 0.0 0 1 35.45 43.84
  Q 36.51 46.59 39.73 47.16
  A 0.23 0.22 -19.1 0 0 39.92 46.77
  L 38.70 45.69
  A 1.42 1.41 15.6 0 1 38.25 44.90
  L 37.77 42.56
  A 0.46 0.46 0.0 0 1 38.60 42.21
  Q 40.89 45.65 45.47 45.43
  Q 46.51 45.38 46.94 45.08
  A 0.22 0.21 28.1 0 0 46.82 44.69
  Q 42.77 44.53 41.02 40.07
  A 0.55 0.55 0.0 0 1 41.72 39.36
  Q 44.65 40.45 47.36 38.42
  A 0.38 0.38 0.0 0 0 47.24 37.75
  Q 47.20 37.74 46.54 38.06
  C 45.05 38.78 43.40 37.79 42.45 36.42
  A 0.34 0.33 -12.9 0 1 42.78 35.90
  Q 47.64 36.58 50.85 31.93
  A 0.17 0.17 0.0 0 0 50.60 31.70
  Q 46.87 34.74 42.72 32.52
  A 0.48 0.47 -43.2 0 1 42.75 31.67
  Q 45.63 30.37 46.32 26.85
  A 0.19 0.19 0.0 0 0 45.99 26.70
  L 44.72 28.35
  A 1.53 1.52 13.3 0 1 43.81 28.91
  L 41.80 29.32
  A 0.58 0.58 0.0 0 1 41.34 28.29
  Q 44.88 25.59 44.35 20.35
  A 0.28 0.28 0.0 0 0 43.79 20.33
  Q 43.10 24.65 38.74 25.94
  A 0.42 0.42 0.0 0 1 38.24 25.35
  Q 39.46 22.83 37.40 19.72
  A 0.24 0.24 0.0 0 0 36.97 19.91
  Q 37.82 22.93 35.43 24.56
  A 0.41 0.40 76.7 0 1 34.81 24.17
  Q 35.41 19.22 31.06 16.21
  A 0.24 0.24 0.0 0 0 30.74 16.56
  Q 33.73 20.20 31.27 24.38
  A 0.32 0.32 0.0 0 1 30.70 24.34
  Q 29.50 21.50 26.20 20.82
  A 0.30 0.30 0.0 0 0 25.99 21.37
  L 27.08 22.00
  A 1.34 1.33 -80.6 0 1 27.71 22.88
  L 28.24 25.47
  A 0.46 0.46 0.0 0 1 27.41 25.82
  Q 25.05 22.33 20.54 22.57
  Q 19.50 22.63 19.04 22.92
  A 0.21 0.20 -59.0 0 0 19.13 23.30
  Q 23.56 23.62 24.97 28.18
  A 0.39 0.39 0.0 0 1 24.45 28.66
  C 23.10 28.13 19.60 28.12 18.51 29.62
  A 0.35 0.35 0.0 0 0 18.92 30.15
  Q 21.85 29.03 23.45 31.47
  A 0.38 0.38 0.0 0 1 23.10 32.06
  Q 18.13 31.61 15.12 36.08
  A 0.17 0.17 0.0 0 0 15.37 36.30
  Q 19.15 33.24 23.27 35.50
  A 0.44 0.44 0.0 0 1 23.25 36.28
  Q 20.28 37.72 19.73 40.95
  A 0.23 0.23 0.0 0 0 20.08 41.19
  Z"
/>
<path fill="#ffffff" d="
  M 19.73 40.95
  Q 20.28 37.72 23.25 36.28
  A 0.44 0.44 0.0 0 0 23.27 35.50
  Q 19.15 33.24 15.37 36.30
  A 0.17 0.17 0.0 0 1 15.12 36.08
  Q 18.13 31.61 23.10 32.06
  A 0.38 0.38 0.0 0 0 23.45 31.47
  Q 21.85 29.03 18.92 30.15
  A 0.35 0.35 0.0 0 1 18.51 29.62
  C 19.60 28.12 23.10 28.13 24.45 28.66
  A 0.39 0.39 0.0 0 0 24.97 28.18
  Q 23.56 23.62 19.13 23.30
  A 0.21 0.20 -59.0 0 1 19.04 22.92
  Q 19.50 22.63 20.54 22.57
  Q 25.05 22.33 27.41 25.82
  A 0.46 0.46 0.0 0 0 28.24 25.47
  L 27.71 22.88
  A 1.34 1.33 -80.6 0 0 27.08 22.00
  L 25.99 21.37
  A 0.30 0.30 0.0 0 1 26.20 20.82
  Q 29.50 21.50 30.70 24.34
  A 0.32 0.32 0.0 0 0 31.27 24.38
  Q 33.73 20.20 30.74 16.56
  A 0.24 0.24 0.0 0 1 31.06 16.21
  Q 35.41 19.22 34.81 24.17
  A 0.41 0.40 76.7 0 0 35.43 24.56
  Q 37.82 22.93 36.97 19.91
  A 0.24 0.24 0.0 0 1 37.40 19.72
  Q 39.46 22.83 38.24 25.35
  A 0.42 0.42 0.0 0 0 38.74 25.94
  Q 43.10 24.65 43.79 20.33
  A 0.28 0.28 0.0 0 1 44.35 20.35
  Q 44.88 25.59 41.34 28.29
  A 0.58 0.58 0.0 0 0 41.80 29.32
  L 43.81 28.91
  A 1.53 1.52 13.3 0 0 44.72 28.35
  L 45.99 26.70
  A 0.19 0.19 0.0 0 1 46.32 26.85
  Q 45.63 30.37 42.75 31.67
  A 0.48 0.47 -43.2 0 0 42.72 32.52
  Q 46.87 34.74 50.60 31.70
  A 0.17 0.17 0.0 0 1 50.85 31.93
  Q 47.64 36.58 42.78 35.90
  A 0.34 0.33 -12.9 0 0 42.45 36.42
  C 43.40 37.79 45.05 38.78 46.54 38.06
  Q 47.20 37.74 47.24 37.75
  A 0.38 0.38 0.0 0 1 47.36 38.42
  Q 44.65 40.45 41.72 39.36
  A 0.55 0.55 0.0 0 0 41.02 40.07
  Q 42.77 44.53 46.82 44.69
  A 0.22 0.21 28.1 0 1 46.94 45.08
  Q 46.51 45.38 45.47 45.43
  Q 40.89 45.65 38.60 42.21
  A 0.46 0.46 0.0 0 0 37.77 42.56
  L 38.25 44.90
  A 1.42 1.41 15.6 0 0 38.70 45.69
  L 39.92 46.77
  A 0.23 0.22 -19.1 0 1 39.73 47.16
  Q 36.51 46.59 35.45 43.84
  A 0.50 0.50 0.0 0 0 34.53 43.81
  Q 32.39 48.18 35.27 51.50
  A 0.21 0.20 -3.6 0 1 35.00 51.80
  Q 30.59 48.95 31.15 43.82
  A 0.40 0.40 0.0 0 0 30.56 43.42
  Q 28.37 44.58 28.92 47.96
  A 0.22 0.22 0.0 0 1 28.53 48.12
  Q 26.50 45.43 27.76 42.63
  A 0.42 0.41 -85.9 0 0 27.27 42.06
  Q 22.84 43.35 22.18 47.71
  A 0.25 0.25 0.0 0 1 21.68 47.70
  Q 21.06 42.31 24.70 39.65
  A 0.37 0.37 0.0 0 0 24.62 39.01
  Q 22.54 38.18 21.35 39.64
  Q 20.09 41.19 20.08 41.19
  A 0.23 0.23 0.0 0 1 19.73 40.95
  Z
  M 34.23 32.64
  Q 34.80 33.23 34.85 33.25
  A 1.68 1.66 -41.2 0 0 35.75 33.30
  L 40.08 32.42
  A 0.54 0.53 76.3 0 0 40.48 31.74
  Q 39.92 29.89 38.53 28.46
  Q 37.13 27.02 35.30 26.41
  A 0.54 0.53 15.3 0 0 34.61 26.80
  L 33.61 31.10
  A 1.68 1.66 -47.2 0 0 33.64 32.00
  Q 33.65 32.05 34.23 32.64
  Z
  M 31.74 32.64
  Q 32.32 32.04 32.33 32.00
  A 1.69 1.67 47.4 0 0 32.36 31.09
  L 31.37 26.76
  A 0.54 0.53 -15.1 0 0 30.68 26.37
  Q 28.83 26.98 27.43 28.41
  Q 26.02 29.85 25.45 31.71
  A 0.54 0.53 -76.1 0 0 25.85 32.39
  L 30.20 33.29
  A 1.69 1.67 41.4 0 0 31.11 33.24
  Q 31.16 33.23 31.74 32.64
  Z
  M 31.74 35.35
  Q 31.16 34.76 31.11 34.75
  A 1.68 1.66 -41.3 0 0 30.21 34.69
  L 25.88 35.58
  A 0.54 0.53 76.2 0 0 25.48 36.26
  Q 26.05 38.11 27.44 39.54
  Q 28.84 40.97 30.68 41.58
  A 0.54 0.53 15.1 0 0 31.37 41.19
  L 32.35 36.89
  A 1.68 1.66 -47.3 0 0 32.32 35.99
  Q 32.31 35.94 31.74 35.35
  Z
  M 34.27 35.34
  Q 33.69 35.92 33.68 35.97
  A 1.67 1.65 47.7 0 0 33.64 36.87
  L 34.60 41.17
  A 0.53 0.53 0.0 0 0 35.28 41.56
  Q 37.12 40.96 38.52 39.55
  Q 39.92 38.13 40.50 36.29
  A 0.53 0.53 0.0 0 0 40.10 35.61
  L 35.79 34.69
  A 1.67 1.65 41.7 0 0 34.89 34.74
  Q 34.85 34.76 34.27 35.34
  Z"
/>
<path fill="#39634a" d="
  M 38.53 28.46
  Q 39.92 29.89 40.48 31.74
  A 0.54 0.53 76.3 0 1 40.08 32.42
  L 35.75 33.30
  A 1.68 1.66 -41.2 0 1 34.85 33.25
  Q 34.80 33.23 34.23 32.64
  Q 33.65 32.05 33.64 32.00
  A 1.68 1.66 -47.2 0 1 33.61 31.10
  L 34.61 26.80
  A 0.54 0.53 15.3 0 1 35.30 26.41
  Q 37.13 27.02 38.53 28.46
  Z"
/>
<path fill="#39634a" d="
  M 31.74 32.64
  Q 31.16 33.23 31.11 33.24
  A 1.69 1.67 41.4 0 1 30.20 33.29
  L 25.85 32.39
  A 0.54 0.53 -76.1 0 1 25.45 31.71
  Q 26.02 29.85 27.43 28.41
  Q 28.83 26.98 30.68 26.37
  A 0.54 0.53 -15.1 0 1 31.37 26.76
  L 32.36 31.09
  A 1.69 1.67 47.4 0 1 32.33 32.00
  Q 32.32 32.04 31.74 32.64
  Z"
/>
<path fill="#39634a" d="
  M 31.74 35.35
  Q 32.31 35.94 32.32 35.99
  A 1.68 1.66 -47.3 0 1 32.35 36.89
  L 31.37 41.19
  A 0.54 0.53 15.1 0 1 30.68 41.58
  Q 28.84 40.97 27.44 39.54
  Q 26.05 38.11 25.48 36.26
  A 0.54 0.53 76.2 0 1 25.88 35.58
  L 30.21 34.69
  A 1.68 1.66 -41.3 0 1 31.11 34.75
  Q 31.16 34.76 31.74 35.35
  Z"
/>
<path fill="#39634a" d="
  M 34.27 35.34
  Q 34.85 34.76 34.89 34.74
  A 1.67 1.65 41.7 0 1 35.79 34.69
  L 40.10 35.61
  A 0.53 0.53 0.0 0 1 40.50 36.29
  Q 39.92 38.13 38.52 39.55
  Q 37.12 40.96 35.28 41.56
  A 0.53 0.53 0.0 0 1 34.60 41.17
  L 33.64 36.87
  A 1.67 1.65 47.7 0 1 33.68 35.97
  Q 33.69 35.92 34.27 35.34
  Z"
/>
</svg>
