<?xml version="1.0" encoding="UTF-8" standalone="no"?>
<!DOCTYPE svg PUBLIC "-//W3C//DTD SVG 1.1//EN" "http://www.w3.org/Graphics/SVG/1.1/DTD/svg11.dtd">
<svg xmlns="http://www.w3.org/2000/svg" version="1.1" viewBox="0.00 0.00 66.00 88.00">
<g stroke-width="2.00" fill="none" stroke-linecap="butt">
<path stroke="#431a44" vector-effect="non-scaling-stroke" d="
  M 33.43 86.53
  Q 33.72 86.53 33.89 86.37
  C 50.32 71.10 74.59 40.38 59.59 16.78
  C 54.01 8.02 44.76 3.00 34.51 2.47
  Q 34.00 2.44 33.49 2.44
  Q 32.98 2.44 32.47 2.47
  C 22.22 2.98 12.96 7.99 7.37 16.74
  C -7.67 40.32 16.56 71.08 32.96 86.37
  Q 33.14 86.53 33.43 86.53"
/>
<path stroke="#ac91ac" vector-effect="non-scaling-stroke" d="
  M 33.36 28.52
  C 37.44 28.52 41.18 27.77 44.53 25.68
  A 1.05 1.04 76.4 0 0 45.02 24.87
  Q 45.23 22.02 45.02 20.94
  C 44.20 16.66 36.84 15.78 33.37 15.78
  C 29.89 15.78 22.53 16.65 21.70 20.93
  Q 21.50 22.01 21.70 24.86
  A 1.05 1.04 -76.3 0 0 22.19 25.67
  C 25.54 27.77 29.28 28.52 33.36 28.52"
/>
<path stroke="#ac91ac" vector-effect="non-scaling-stroke" d="
  M 33.38 31.81
  C 37.42 31.82 41.68 31.10 45.13 28.95
  A 1.27 1.27 0.0 0 0 45.72 27.88
  L 45.72 27.19
  A 0.42 0.42 0.0 0 0 45.08 26.83
  C 41.53 28.99 37.65 29.52 33.38 29.52
  C 29.12 29.52 25.23 28.97 21.69 26.81
  A 0.42 0.42 0.0 0 0 21.05 27.17
  L 21.05 27.86
  A 1.27 1.27 0.0 0 0 21.64 28.93
  C 25.09 31.08 29.34 31.81 33.38 31.81"
/>
<path stroke="#ac91ac" vector-effect="non-scaling-stroke" d="
  M 33.38 43.72
  C 36.52 43.72 42.00 43.14 44.76 40.65
  A 1.16 1.13 -21.7 0 0 45.13 39.81
  L 45.13 30.92
  A 0.47 0.46 -13.0 0 0 44.46 30.50
  Q 39.39 32.97 33.38 32.97
  Q 27.37 32.97 22.30 30.50
  A 0.47 0.46 13.0 0 0 21.63 30.91
  L 21.62 39.80
  A 1.16 1.13 21.8 0 0 22.00 40.65
  C 24.75 43.14 30.24 43.72 33.38 43.72"
/>
<path stroke="#ac91ac" vector-effect="non-scaling-stroke" d="
  M 33.41 47.25
  C 37.46 47.26 41.73 46.55 45.20 44.41
  A 1.27 1.27 0.0 0 0 45.79 43.34
  L 45.79 42.64
  A 0.42 0.42 0.0 0 0 45.15 42.28
  C 41.59 44.43 37.69 44.96 33.42 44.95
  C 29.14 44.94 25.25 44.38 21.70 42.20
  A 0.42 0.42 0.0 0 0 21.06 42.56
  L 21.05 43.26
  A 1.27 1.27 0.0 0 0 21.64 44.33
  C 25.10 46.50 29.36 47.24 33.41 47.25"
/>
<path stroke="#ac91ac" vector-effect="non-scaling-stroke" d="
  M 33.38 52.19
  Q 37.25 52.19 42.02 50.56
  Q 44.95 49.56 45.18 46.55
  A 0.24 0.24 0.0 0 0 44.84 46.31
  Q 39.58 48.77 33.38 48.78
  Q 27.18 48.78 21.92 46.33
  A 0.24 0.24 0.0 0 0 21.58 46.56
  Q 21.82 49.57 24.75 50.57
  Q 29.51 52.20 33.38 52.19"
/>
<path stroke="#ac91ac" vector-effect="non-scaling-stroke" d="
  M 23.0904 20.8197
  A 10.35 3.85 -179.5 0 0 33.4064 24.7599
  A 10.35 3.85 -179.5 0 0 43.7896 21.0003
  A 10.35 3.85 -179.5 0 0 33.4736 17.0601
  A 10.35 3.85 -179.5 0 0 23.0904 20.8197"
/>
</g>
<path fill="#2e112e" d="
  M 33.80 88.00
  L 33.04 88.00
  C 21.77 77.76 12.09 65.66 5.65 51.57
  Q 2.21 44.05 1.60 34.89
  C 0.53 18.88 11.34 5.51 26.73 2.05
  C 41.11 -1.18 55.95 6.01 62.57 19.69
  C 66.92 28.66 65.94 39.75 62.41 48.86
  C 56.64 63.75 45.55 77.32 33.80 88.00
  Z
  M 33.43 86.53
  Q 33.72 86.53 33.89 86.37
  C 50.32 71.10 74.59 40.38 59.59 16.78
  C 54.01 8.02 44.76 3.00 34.51 2.47
  Q 34.00 2.44 33.49 2.44
  Q 32.98 2.44 32.47 2.47
  C 22.22 2.98 12.96 7.99 7.37 16.74
  C -7.67 40.32 16.56 71.08 32.96 86.37
  Q 33.14 86.53 33.43 86.53
  Z"
/>
<path fill="#582359" d="
  M 33.49 2.44
  Q 34.00 2.44 34.51 2.47
  C 44.76 3.00 54.01 8.02 59.59 16.78
  C 74.59 40.38 50.32 71.10 33.89 86.37
  Q 33.72 86.53 33.43 86.53
  Q 33.14 86.53 32.96 86.37
  C 16.56 71.08 -7.67 40.32 7.37 16.74
  C 12.96 7.99 22.22 2.98 32.47 2.47
  Q 32.98 2.44 33.49 2.44
  Z
  M 33.36 28.52
  C 37.44 28.52 41.18 27.77 44.53 25.68
  A 1.05 1.04 76.4 0 0 45.02 24.87
  Q 45.23 22.02 45.02 20.94
  C 44.20 16.66 36.84 15.78 33.37 15.78
  C 29.89 15.78 22.53 16.65 21.70 20.93
  Q 21.50 22.01 21.70 24.86
  A 1.05 1.04 -76.3 0 0 22.19 25.67
  C 25.54 27.77 29.28 28.52 33.36 28.52
  Z
  M 33.38 31.81
  C 37.42 31.82 41.68 31.10 45.13 28.95
  A 1.27 1.27 0.0 0 0 45.72 27.88
  L 45.72 27.19
  A 0.42 0.42 0.0 0 0 45.08 26.83
  C 41.53 28.99 37.65 29.52 33.38 29.52
  C 29.12 29.52 25.23 28.97 21.69 26.81
  A 0.42 0.42 0.0 0 0 21.05 27.17
  L 21.05 27.86
  A 1.27 1.27 0.0 0 0 21.64 28.93
  C 25.09 31.08 29.34 31.81 33.38 31.81
  Z
  M 33.38 43.72
  C 36.52 43.72 42.00 43.14 44.76 40.65
  A 1.16 1.13 -21.7 0 0 45.13 39.81
  L 45.13 30.92
  A 0.47 0.46 -13.0 0 0 44.46 30.50
  Q 39.39 32.97 33.38 32.97
  Q 27.37 32.97 22.30 30.50
  A 0.47 0.46 13.0 0 0 21.63 30.91
  L 21.62 39.80
  A 1.16 1.13 21.8 0 0 22.00 40.65
  C 24.75 43.14 30.24 43.72 33.38 43.72
  Z
  M 33.41 47.25
  C 37.46 47.26 41.73 46.55 45.20 44.41
  A 1.27 1.27 0.0 0 0 45.79 43.34
  L 45.79 42.64
  A 0.42 0.42 0.0 0 0 45.15 42.28
  C 41.59 44.43 37.69 44.96 33.42 44.95
  C 29.14 44.94 25.25 44.38 21.70 42.20
  A 0.42 0.42 0.0 0 0 21.06 42.56
  L 21.05 43.26
  A 1.27 1.27 0.0 0 0 21.64 44.33
  C 25.10 46.50 29.36 47.24 33.41 47.25
  Z
  M 33.38 52.19
  Q 37.25 52.19 42.02 50.56
  Q 44.95 49.56 45.18 46.55
  A 0.24 0.24 0.0 0 0 44.84 46.31
  Q 39.58 48.77 33.38 48.78
  Q 27.18 48.78 21.92 46.33
  A 0.24 0.24 0.0 0 0 21.58 46.56
  Q 21.82 49.57 24.75 50.57
  Q 29.51 52.20 33.38 52.19
  Z"
/>
<path fill="#ffffff" d="
  M 33.37 15.78
  C 36.84 15.78 44.20 16.66 45.02 20.94
  Q 45.23 22.02 45.02 24.87
  A 1.05 1.04 76.4 0 1 44.53 25.68
  C 41.18 27.77 37.44 28.52 33.36 28.52
  C 29.28 28.52 25.54 27.77 22.19 25.67
  A 1.05 1.04 -76.3 0 1 21.70 24.86
  Q 21.50 22.01 21.70 20.93
  C 22.53 16.65 29.89 15.78 33.37 15.78
  Z
  M 23.0904 20.8197
  A 10.35 3.85 -179.5 0 0 33.4064 24.7599
  A 10.35 3.85 -179.5 0 0 43.7896 21.0003
  A 10.35 3.85 -179.5 0 0 33.4736 17.0601
  A 10.35 3.85 -179.5 0 0 23.0904 20.8197
  Z"
/>
<ellipse fill="#582359" cx="0.00" cy="0.00" transform="translate(33.44,20.91) rotate(-179.5)" rx="10.35" ry="3.85"/>
<path fill="#ffffff" d="
  M 33.38 29.52
  C 37.65 29.52 41.53 28.99 45.08 26.83
  A 0.42 0.42 0.0 0 1 45.72 27.19
  L 45.72 27.88
  A 1.27 1.27 0.0 0 1 45.13 28.95
  C 41.68 31.10 37.42 31.82 33.38 31.81
  C 29.34 31.81 25.09 31.08 21.64 28.93
  A 1.27 1.27 0.0 0 1 21.05 27.86
  L 21.05 27.17
  A 0.42 0.42 0.0 0 1 21.69 26.81
  C 25.23 28.97 29.12 29.52 33.38 29.52
  Z"
/>
<path fill="#ffffff" d="
  M 33.38 32.97
  Q 39.39 32.97 44.46 30.50
  A 0.47 0.46 -13.0 0 1 45.13 30.92
  L 45.13 39.81
  A 1.16 1.13 -21.7 0 1 44.76 40.65
  C 42.00 43.14 36.52 43.72 33.38 43.72
  C 30.24 43.72 24.75 43.14 22.00 40.65
  A 1.16 1.13 21.8 0 1 21.62 39.80
  L 21.63 30.91
  A 0.47 0.46 13.0 0 1 22.30 30.50
  Q 27.37 32.97 33.38 32.97
  Z"
/>
<path fill="#ffffff" d="
  M 33.41 47.25
  C 29.36 47.24 25.10 46.50 21.64 44.33
  A 1.27 1.27 0.0 0 1 21.05 43.26
  L 21.06 42.56
  A 0.42 0.42 0.0 0 1 21.70 42.20
  C 25.25 44.38 29.14 44.94 33.42 44.95
  C 37.69 44.96 41.59 44.43 45.15 42.28
  A 0.42 0.42 0.0 0 1 45.79 42.64
  L 45.79 43.34
  A 1.27 1.27 0.0 0 1 45.20 44.41
  C 41.73 46.55 37.46 47.26 33.41 47.25
  Z"
/>
<path fill="#ffffff" d="
  M 33.38 48.78
  Q 39.58 48.77 44.84 46.31
  A 0.24 0.24 0.0 0 1 45.18 46.55
  Q 44.95 49.56 42.02 50.56
  Q 37.25 52.19 33.38 52.19
  Q 29.51 52.20 24.75 50.57
  Q 21.82 49.57 21.58 46.56
  A 0.24 0.24 0.0 0 1 21.92 46.33
  Q 27.18 48.78 33.38 48.78
  Z"
/>
</svg>
