<?xml version="1.0" encoding="UTF-8" standalone="no"?>
<!DOCTYPE svg PUBLIC "-//W3C//DTD SVG 1.1//EN" "http://www.w3.org/Graphics/SVG/1.1/DTD/svg11.dtd">
<svg xmlns="http://www.w3.org/2000/svg" version="1.1" viewBox="0.00 0.00 66.00 88.00">
<g stroke-width="2.00" fill="none" stroke-linecap="butt">
<path stroke="#173f51" vector-effect="non-scaling-stroke" d="
  M 33.42 86.61
  C 33.87 86.61 33.63 86.63 33.80 86.47
  C 48.18 73.13 63.74 53.33 64.26 33.51
  C 64.71 16.32 50.55 2.57 33.50 2.55
  C 16.45 2.54 2.27 16.27 2.68 33.45
  C 3.17 53.27 18.69 73.10 33.04 86.47
  C 33.22 86.63 32.97 86.61 33.42 86.61"
/>
<path stroke="#8fa9b5" vector-effect="non-scaling-stroke" d="
  M 15.60 23.54
  A 0.34 0.34 0.0 0 0 15.92 24.01
  L 50.06 24.01
  A 0.34 0.34 0.0 0 0 50.37 23.54
  L 48.69 19.47
  A 0.34 0.34 0.0 0 0 48.37 19.26
  L 17.60 19.26
  A 0.34 0.34 0.0 0 0 17.28 19.47
  L 15.60 23.54"
/>
<path stroke="#8fa9b5" vector-effect="non-scaling-stroke" d="
  M 27.1619 27.0209
  A 0.26 0.26 0.0 0 0 26.9024 26.7604
  L 14.9424 26.7396
  A 0.26 0.26 0.0 0 0 14.6819 26.9991
  L 14.6781 29.2191
  A 0.26 0.26 0.0 0 0 14.9376 29.4796
  L 26.8976 29.5004
  A 0.26 0.26 0.0 0 0 27.1581 29.2409
  L 27.1619 27.0209"
/>
<path stroke="#8fa9b5" vector-effect="non-scaling-stroke" d="
  M 51.34 29.10
  L 51.32 27.12
  A 0.39 0.39 0.0 0 0 50.93 26.73
  L 39.65 26.79
  A 1.26 0.99 89.7 0 0 38.67 28.05
  L 38.67 28.29
  A 1.26 0.99 89.7 0 0 39.67 29.55
  L 50.95 29.49
  A 0.39 0.39 0.0 0 0 51.34 29.10"
/>
<path stroke="#8fa9b5" vector-effect="non-scaling-stroke" d="
  M 32.95 32.29
  Q 33.15 32.29 33.34 32.27
  A 0.79 0.79 0.0 0 0 34.03 31.52
  Q 34.08 30.29 34.46 29.79
  C 35.36 28.63 34.35 27.42 33.05 27.40
  C 31.74 27.37 30.68 28.54 31.54 29.73
  Q 31.90 30.25 31.90 31.48
  A 0.79 0.79 0.0 0 0 32.56 32.25
  Q 32.75 32.29 32.95 32.29"
/>
<path stroke="#8fa9b5" vector-effect="non-scaling-stroke" d="
  M 20.41 32.66
  A 0.37 0.37 0.0 0 0 20.04 32.29
  L 15.04 32.29
  A 0.37 0.37 0.0 0 0 14.67 32.66
  L 14.67 43.50
  A 0.37 0.37 0.0 0 0 15.04 43.87
  L 20.04 43.87
  A 0.37 0.37 0.0 0 0 20.41 43.50
  L 20.41 32.66"
/>
<path stroke="#8fa9b5" vector-effect="non-scaling-stroke" d="
  M 32.99 44.03
  Q 40.86 44.03 42.05 44.01
  A 0.80 0.79 89.4 0 0 42.83 43.21
  L 42.83 33.00
  A 0.76 0.76 0.0 0 0 42.07 32.24
  L 38.49 32.24
  A 0.78 0.76 -78.5 0 0 37.78 32.72
  L 36.88 34.89
  A 0.90 0.90 0.0 0 1 36.08 35.45
  Q 34.54 35.49 32.99 35.49
  Q 31.45 35.49 29.91 35.45
  A 0.90 0.90 0.0 0 1 29.11 34.89
  L 28.21 32.72
  A 0.78 0.76 78.5 0 0 27.50 32.24
  L 23.92 32.24
  A 0.76 0.76 0.0 0 0 23.16 33.00
  L 23.16 43.21
  A 0.80 0.79 -89.3 0 0 23.93 44.00
  Q 25.12 44.03 32.99 44.03"
/>
<path stroke="#8fa9b5" vector-effect="non-scaling-stroke" d="
  M 51.33 32.66
  A 0.39 0.39 0.0 0 0 50.94 32.27
  L 45.96 32.27
  A 0.39 0.39 0.0 0 0 45.57 32.66
  L 45.57 43.48
  A 0.39 0.39 0.0 0 0 45.96 43.87
  L 50.94 43.87
  A 0.39 0.39 0.0 0 0 51.33 43.48
  L 51.33 32.66"
/>
<path stroke="#8fa9b5" vector-effect="non-scaling-stroke" d="
  M 51.31 47.17
  A 0.42 0.42 0.0 0 0 50.89 46.75
  L 15.07 46.75
  A 0.42 0.42 0.0 0 0 14.65 47.17
  L 14.65 49.07
  A 0.42 0.42 0.0 0 0 15.07 49.49
  L 50.89 49.49
  A 0.42 0.42 0.0 0 0 51.31 49.07
  L 51.31 47.17"
/>
</g>
<path fill="#0e2b37" d="
  M 33.80 88.00
  L 33.04 88.00
  C 21.77 77.76 12.09 65.65 5.65 51.57
  Q 2.21 44.05 1.60 34.90
  C 0.54 18.88 11.35 5.50 26.72 2.05
  C 41.11 -1.18 55.95 6.01 62.57 19.69
  C 66.92 28.67 65.94 39.73 62.41 48.87
  C 56.66 63.74 45.52 77.34 33.80 88.00
  Z
  M 33.42 86.61
  C 33.87 86.61 33.63 86.63 33.80 86.47
  C 48.18 73.13 63.74 53.33 64.26 33.51
  C 64.71 16.32 50.55 2.57 33.50 2.55
  C 16.45 2.54 2.27 16.27 2.68 33.45
  C 3.17 53.27 18.69 73.10 33.04 86.47
  C 33.22 86.63 32.97 86.61 33.42 86.61
  Z"
/>
<path fill="#1f526b" d="
  M 33.50 2.55
  C 50.55 2.57 64.71 16.32 64.26 33.51
  C 63.74 53.33 48.18 73.13 33.80 86.47
  C 33.63 86.63 33.87 86.61 33.42 86.61
  C 32.97 86.61 33.22 86.63 33.04 86.47
  C 18.69 73.10 3.17 53.27 2.68 33.45
  C 2.27 16.27 16.45 2.54 33.50 2.55
  Z
  M 15.60 23.54
  A 0.34 0.34 0.0 0 0 15.92 24.01
  L 50.06 24.01
  A 0.34 0.34 0.0 0 0 50.37 23.54
  L 48.69 19.47
  A 0.34 0.34 0.0 0 0 48.37 19.26
  L 17.60 19.26
  A 0.34 0.34 0.0 0 0 17.28 19.47
  L 15.60 23.54
  Z
  M 27.1619 27.0209
  A 0.26 0.26 0.0 0 0 26.9024 26.7604
  L 14.9424 26.7396
  A 0.26 0.26 0.0 0 0 14.6819 26.9991
  L 14.6781 29.2191
  A 0.26 0.26 0.0 0 0 14.9376 29.4796
  L 26.8976 29.5004
  A 0.26 0.26 0.0 0 0 27.1581 29.2409
  L 27.1619 27.0209
  Z
  M 51.34 29.10
  L 51.32 27.12
  A 0.39 0.39 0.0 0 0 50.93 26.73
  L 39.65 26.79
  A 1.26 0.99 89.7 0 0 38.67 28.05
  L 38.67 28.29
  A 1.26 0.99 89.7 0 0 39.67 29.55
  L 50.95 29.49
  A 0.39 0.39 0.0 0 0 51.34 29.10
  Z
  M 32.95 32.29
  Q 33.15 32.29 33.34 32.27
  A 0.79 0.79 0.0 0 0 34.03 31.52
  Q 34.08 30.29 34.46 29.79
  C 35.36 28.63 34.35 27.42 33.05 27.40
  C 31.74 27.37 30.68 28.54 31.54 29.73
  Q 31.90 30.25 31.90 31.48
  A 0.79 0.79 0.0 0 0 32.56 32.25
  Q 32.75 32.29 32.95 32.29
  Z
  M 20.41 32.66
  A 0.37 0.37 0.0 0 0 20.04 32.29
  L 15.04 32.29
  A 0.37 0.37 0.0 0 0 14.67 32.66
  L 14.67 43.50
  A 0.37 0.37 0.0 0 0 15.04 43.87
  L 20.04 43.87
  A 0.37 0.37 0.0 0 0 20.41 43.50
  L 20.41 32.66
  Z
  M 32.99 44.03
  Q 40.86 44.03 42.05 44.01
  A 0.80 0.79 89.4 0 0 42.83 43.21
  L 42.83 33.00
  A 0.76 0.76 0.0 0 0 42.07 32.24
  L 38.49 32.24
  A 0.78 0.76 -78.5 0 0 37.78 32.72
  L 36.88 34.89
  A 0.90 0.90 0.0 0 1 36.08 35.45
  Q 34.54 35.49 32.99 35.49
  Q 31.45 35.49 29.91 35.45
  A 0.90 0.90 0.0 0 1 29.11 34.89
  L 28.21 32.72
  A 0.78 0.76 78.5 0 0 27.50 32.24
  L 23.92 32.24
  A 0.76 0.76 0.0 0 0 23.16 33.00
  L 23.16 43.21
  A 0.80 0.79 -89.3 0 0 23.93 44.00
  Q 25.12 44.03 32.99 44.03
  Z
  M 51.33 32.66
  A 0.39 0.39 0.0 0 0 50.94 32.27
  L 45.96 32.27
  A 0.39 0.39 0.0 0 0 45.57 32.66
  L 45.57 43.48
  A 0.39 0.39 0.0 0 0 45.96 43.87
  L 50.94 43.87
  A 0.39 0.39 0.0 0 0 51.33 43.48
  L 51.33 32.66
  Z
  M 51.31 47.17
  A 0.42 0.42 0.0 0 0 50.89 46.75
  L 15.07 46.75
  A 0.42 0.42 0.0 0 0 14.65 47.17
  L 14.65 49.07
  A 0.42 0.42 0.0 0 0 15.07 49.49
  L 50.89 49.49
  A 0.42 0.42 0.0 0 0 51.31 49.07
  L 51.31 47.17
  Z"
/>
<path fill="#ffffff" d="
  M 15.60 23.54
  L 17.28 19.47
  A 0.34 0.34 0.0 0 1 17.60 19.26
  L 48.37 19.26
  A 0.34 0.34 0.0 0 1 48.69 19.47
  L 50.37 23.54
  A 0.34 0.34 0.0 0 1 50.06 24.01
  L 15.92 24.01
  A 0.34 0.34 0.0 0 1 15.60 23.54
  Z"
/>
<rect fill="#ffffff" x="-6.24" y="-1.37" transform="translate(20.92,28.12) rotate(0.1)" width="12.48" height="2.74" rx="0.26"/>
<path fill="#ffffff" d="
  M 51.34 29.10
  A 0.39 0.39 0.0 0 1 50.95 29.49
  L 39.67 29.55
  A 1.26 0.99 89.7 0 1 38.67 28.29
  L 38.67 28.05
  A 1.26 0.99 89.7 0 1 39.65 26.79
  L 50.93 26.73
  A 0.39 0.39 0.0 0 1 51.32 27.12
  L 51.34 29.10
  Z"
/>
<path fill="#ffffff" d="
  M 33.05 27.40
  C 34.35 27.42 35.36 28.63 34.46 29.79
  Q 34.08 30.29 34.03 31.52
  A 0.79 0.79 0.0 0 1 33.34 32.27
  Q 33.15 32.29 32.95 32.29
  Q 32.75 32.29 32.56 32.25
  A 0.79 0.79 0.0 0 1 31.90 31.48
  Q 31.90 30.25 31.54 29.73
  C 30.68 28.54 31.74 27.37 33.05 27.40
  Z"
/>
<rect fill="#ffffff" x="14.67" y="32.29" width="5.74" height="11.58" rx="0.37"/>
<path fill="#ffffff" d="
  M 32.99 35.49
  Q 34.54 35.49 36.08 35.45
  A 0.90 0.90 0.0 0 0 36.88 34.89
  L 37.78 32.72
  A 0.78 0.76 -78.5 0 1 38.49 32.24
  L 42.07 32.24
  A 0.76 0.76 0.0 0 1 42.83 33.00
  L 42.83 43.21
  A 0.80 0.79 89.4 0 1 42.05 44.01
  Q 40.86 44.03 32.99 44.03
  Q 25.12 44.03 23.93 44.00
  A 0.80 0.79 -89.3 0 1 23.16 43.21
  L 23.16 33.00
  A 0.76 0.76 0.0 0 1 23.92 32.24
  L 27.50 32.24
  A 0.78 0.76 78.5 0 1 28.21 32.72
  L 29.11 34.89
  A 0.90 0.90 0.0 0 0 29.91 35.45
  Q 31.45 35.49 32.99 35.49
  Z"
/>
<rect fill="#ffffff" x="45.57" y="32.27" width="5.76" height="11.60" rx="0.39"/>
<rect fill="#ffffff" x="14.65" y="46.75" width="36.66" height="2.74" rx="0.42"/>
</svg>
