<?xml version="1.0" encoding="UTF-8" standalone="no"?>
<!DOCTYPE svg PUBLIC "-//W3C//DTD SVG 1.1//EN" "http://www.w3.org/Graphics/SVG/1.1/DTD/svg11.dtd">
<svg xmlns="http://www.w3.org/2000/svg" version="1.1" viewBox="0.00 0.00 66.00 88.00">
<g stroke-width="2.00" fill="none" stroke-linecap="butt">
<path stroke="#2b4c38" vector-effect="non-scaling-stroke" d="
  M 33.42 86.65
  Q 33.47 86.65 33.52 86.65
  A 0.33 0.14 -51.2 0 0 33.70 86.55
  C 44.86 76.22 55.14 63.52 60.90 49.39
  C 65.85 37.24 66.01 23.25 56.76 12.99
  Q 47.65 2.89 33.75 2.48
  Q 33.64 2.48 33.53 2.48
  Q 33.42 2.48 33.31 2.48
  Q 19.41 2.85 10.27 12.93
  C 1.00 23.16 1.12 37.15 6.03 49.32
  C 11.76 63.46 22.00 76.19 33.13 86.55
  A 0.33 0.14 51.4 0 0 33.31 86.65
  Q 33.36 86.65 33.42 86.65"
/>
<path stroke="#9cb1a5" vector-effect="non-scaling-stroke" d="
  M 29.20 16.35
  A 0.22 0.22 0.0 0 0 28.88 16.06
  Q 26.35 17.73 27.81 19.30
  A 1.39 1.39 0.0 0 1 28.16 20.45
  Q 27.96 21.72 28.33 23.14
  A 0.61 0.60 37.7 0 0 29.52 22.99
  L 29.52 20.73
  A 0.69 0.67 84.3 0 1 30.06 20.06
  Q 30.48 19.97 30.87 20.00
  C 32.81 20.17 33.42 18.37 33.23 16.57
  A 0.39 0.39 0.0 0 0 32.47 16.49
  L 31.84 18.50
  A 0.42 0.42 0.0 0 1 31.08 18.60
  Q 30.97 18.46 30.90 17.16
  A 0.34 0.34 0.0 0 0 30.30 16.95
  Q 29.98 17.32 29.96 18.32
  A 0.71 0.71 0.0 0 1 29.34 19.01
  L 29.25 19.02
  A 0.57 0.57 0.0 0 1 28.61 18.47
  Q 28.58 17.52 29.20 16.35"
/>
<path stroke="#9cb1a5" vector-effect="non-scaling-stroke" d="
  M 27.35 26.03
  L 27.46 25.78
  A 0.26 0.25 -9.0 0 0 27.06 25.49
  Q 25.68 26.63 26.72 27.28
  C 27.54 27.81 28.28 28.14 28.72 29.06
  Q 28.90 29.45 29.17 29.79
  Q 29.47 30.16 30.37 29.96
  Q 30.40 29.95 31.63 29.63
  C 33.27 29.20 34.18 30.31 35.77 28.73
  Q 36.07 28.44 35.93 28.10
  A 0.24 0.23 -28.4 0 0 35.58 28.00
  Q 34.47 28.75 33.55 28.29
  A 0.79 0.75 -40.2 0 1 33.70 26.88
  Q 35.55 26.24 36.80 24.97
  A 0.46 0.46 0.0 0 0 36.31 24.22
  L 33.23 25.38
  A 0.52 0.50 -40.0 0 1 32.81 25.35
  Q 32.33 25.08 32.30 24.66
  A 0.60 0.59 -89.2 0 1 32.94 24.03
  Q 35.59 24.27 35.94 21.94
  A 0.25 0.25 0.0 0 0 35.52 21.72
  Q 34.12 23.06 33.49 22.86
  A 0.46 0.46 0.0 0 1 33.35 22.06
  Q 35.07 20.74 35.30 18.89
  A 0.32 0.32 0.0 0 0 34.82 18.58
  C 32.08 20.26 30.12 21.07 30.54 24.53
  A 1.23 1.20 13.8 0 0 31.07 25.38
  C 32.99 26.66 32.15 29.19 29.74 28.47
  A 0.61 0.45 33.1 0 1 29.40 27.55
  Q 29.62 27.43 30.01 27.55
  A 0.61 0.58 74.5 0 0 30.56 26.53
  Q 29.53 25.52 28.58 26.74
  A 0.72 0.72 0.0 0 1 27.35 26.03"
/>
<path stroke="#9cb1a5" vector-effect="non-scaling-stroke" d="
  M 17.34 28.58
  C 17.32 30.77 15.33 32.92 17.96 34.51
  A 1.06 1.05 -39.7 0 1 17.78 36.40
  L 17.07 36.67
  A 0.79 0.79 0.0 0 1 16.00 35.93
  L 16.00 33.39
  A 0.37 0.37 0.0 0 0 15.27 33.34
  L 14.85 36.46
  A 1.74 1.74 0.0 0 0 17.19 38.32
  L 19.58 37.42
  A 0.81 0.78 -37.2 0 1 20.32 37.51
  Q 21.07 38.04 20.90 39.09
  A 0.51 0.50 18.7 0 1 20.16 39.45
  Q 18.88 38.74 17.54 39.28
  A 2.08 2.08 0.0 0 0 16.49 42.19
  Q 17.54 44.15 19.59 42.79
  A 0.38 0.38 0.0 0 0 19.33 42.10
  Q 18.27 42.23 17.92 42.11
  A 0.67 0.67 0.0 0 1 18.00 40.82
  Q 19.51 40.48 20.61 41.00
  A 1.46 1.42 88.4 0 0 22.45 39.00
  Q 21.59 37.31 22.23 35.88
  A 1.33 1.32 42.8 0 0 22.18 34.70
  Q 21.47 33.42 22.49 32.86
  C 24.30 31.87 24.48 30.34 26.90 29.62
  A 0.35 0.35 0.0 0 0 27.05 29.04
  L 25.36 27.35
  A 0.95 0.95 0.0 0 0 24.02 27.35
  L 21.58 29.75
  A 0.64 0.63 42.7 0 0 21.62 30.69
  C 22.09 31.16 22.27 32.02 21.81 32.64
  Q 21.12 33.58 21.13 35.15
  A 0.40 0.40 0.0 0 1 20.73 35.55
  L 20.42 35.55
  A 0.32 0.31 -0.0 0 1 20.10 35.24
  L 20.10 31.79
  A 0.50 0.50 0.0 0 0 19.11 31.69
  L 18.92 32.63
  A 0.36 0.35 6.0 0 1 18.57 32.91
  L 18.23 32.91
  A 0.32 0.32 0.0 0 1 17.93 32.48
  Q 18.68 30.37 17.78 28.48
  A 0.23 0.23 0.0 0 0 17.34 28.58"
/>
<path stroke="#9cb1a5" vector-effect="non-scaling-stroke" d="
  M 41.27 29.21
  L 38.13 27.18
  A 0.30 0.30 0.0 0 0 37.71 27.27
  L 37.57 27.49
  A 2.42 0.84 -57.2 0 0 36.96 29.98
  L 39.20 31.42
  A 2.42 0.84 -57.2 0 0 41.22 29.84
  L 41.36 29.63
  A 0.30 0.30 0.0 0 0 41.27 29.21"
/>
<path stroke="#9cb1a5" vector-effect="non-scaling-stroke" d="
  M 41.36 41.19
  L 41.80 40.73
  A 0.51 0.51 0.0 0 0 41.47 39.87
  C 38.83 39.66 38.94 43.03 41.79 43.02
  A 1.56 1.54 -64.3 0 0 42.77 42.67
  Q 44.40 41.32 45.43 42.21
  A 1.10 0.91 -52.3 0 0 46.88 41.88
  Q 47.97 40.35 49.37 39.71
  Q 49.83 39.50 50.15 38.92
  Q 50.85 37.68 50.72 37.43
  A 0.25 0.25 0.0 0 0 50.25 37.48
  Q 50.12 38.02 47.07 39.44
  A 1.07 1.01 77.2 0 1 45.64 38.48
  Q 45.61 37.72 46.40 37.20
  Q 46.71 36.99 46.87 36.61
  Q 47.02 36.25 47.09 36.04
  A 0.75 0.75 0.0 0 0 46.01 35.14
  L 44.55 35.98
  A 0.72 0.72 0.0 0 1 43.82 35.97
  Q 43.39 35.71 43.12 35.32
  A 0.57 0.56 -17.5 0 1 43.59 34.43
  L 46.15 34.43
  A 0.87 0.85 -80.4 0 0 46.96 33.84
  Q 47.56 32.00 47.41 30.57
  A 0.26 0.26 0.0 0 0 46.90 30.53
  L 46.33 32.72
  A 0.90 0.89 -2.6 0 1 45.77 33.33
  Q 45.38 33.52 44.48 33.07
  A 0.49 0.48 33.4 0 1 44.32 32.32
  Q 44.74 31.82 45.39 31.63
  A 0.23 0.23 0.0 0 0 45.42 31.20
  Q 44.14 30.65 43.52 31.76
  Q 42.98 32.71 42.67 32.88
  A 0.50 0.50 0.0 0 1 42.08 32.08
  Q 44.46 29.82 44.66 29.33
  A 0.19 0.18 -6.4 0 0 44.38 29.11
  L 40.69 31.69
  A 1.01 1.00 -24.7 0 0 40.29 32.76
  C 40.44 33.63 41.40 34.02 41.09 35.07
  Q 40.59 36.74 42.28 38.40
  C 43.75 39.84 43.70 40.94 41.92 41.91
  A 0.46 0.46 0.0 0 1 41.36 41.19"
/>
<path stroke="#9cb1a5" vector-effect="non-scaling-stroke" d="
  M 33.18 32.23
  L 32.95 30.93
  A 0.41 0.41 0.0 0 0 32.47 30.60
  L 32.25 30.64
  A 2.46 0.89 -10.2 0 0 29.98 31.95
  L 30.05 32.30
  A 2.46 0.89 -10.2 0 0 32.63 32.74
  L 32.85 32.70
  A 0.41 0.41 0.0 0 0 33.18 32.23"
/>
<path stroke="#9cb1a5" vector-effect="non-scaling-stroke" d="
  M 28.1277 34.0323
  A 0.62 0.62 0.0 0 0 28.1094 33.1556
  L 26.5071 31.6191
  A 0.62 0.62 0.0 0 0 25.6304 31.6374
  L 24.4123 32.9077
  A 0.62 0.62 0.0 0 0 24.4306 33.7844
  L 26.0329 35.3209
  A 0.62 0.62 0.0 0 0 26.9096 35.3026
  L 28.1277 34.0323"
/>
<path stroke="#9cb1a5" vector-effect="non-scaling-stroke" d="
  M 37.6122 31.6537
  A 0.69 0.69 0.0 0 0 36.6367 31.6281
  L 35.0844 33.1012
  A 0.69 0.69 0.0 0 0 35.0589 34.0767
  L 36.1878 35.2663
  A 0.69 0.69 0.0 0 0 37.1633 35.2919
  L 38.7156 33.8188
  A 0.69 0.69 0.0 0 0 38.7411 32.8433
  L 37.6122 31.6537"
/>
<path stroke="#9cb1a5" vector-effect="non-scaling-stroke" d="
  M 48.99 33.84
  Q 47.69 34.16 47.57 34.34
  A 0.42 0.41 -72.2 0 0 47.90 34.99
  Q 48.63 35.00 49.24 34.21
  A 0.24 0.24 0.0 0 0 48.99 33.84"
/>
<path stroke="#9cb1a5" vector-effect="non-scaling-stroke" d="
  M 36.36 38.81
  A 4.80 4.80 0.0 0 0 31.56 34.01
  A 4.80 4.80 0.0 0 0 26.76 38.81
  A 4.80 4.80 0.0 0 0 31.56 43.61
  A 4.80 4.80 0.0 0 0 36.36 38.81"
/>
<path stroke="#9cb1a5" vector-effect="non-scaling-stroke" d="
  M 47.71 37.48
  Q 48.53 37.04 48.68 36.78
  A 0.30 0.30 0.0 0 0 48.30 36.36
  Q 47.13 36.85 47.22 37.25
  A 0.34 0.33 70.0 0 0 47.71 37.48"
/>
<path stroke="#9cb1a5" vector-effect="non-scaling-stroke" d="
  M 25.64 39.66
  Q 25.77 39.09 25.57 37.51
  A 0.32 0.31 -3.0 0 0 25.25 37.23
  L 23.54 37.23
  A 0.22 0.22 0.0 0 0 23.33 37.50
  L 23.85 39.67
  A 0.92 0.92 0.0 0 0 25.64 39.66"
/>
<path stroke="#9cb1a5" vector-effect="non-scaling-stroke" d="
  M 37.50 37.67
  L 37.50 39.79
  A 0.48 0.48 0.0 0 0 38.22 40.20
  L 40.51 38.88
  A 0.61 0.60 -33.2 0 0 40.70 38.00
  Q 40.07 37.17 38.00 37.17
  A 0.50 0.50 0.0 0 0 37.50 37.67"
/>
<path stroke="#9cb1a5" vector-effect="non-scaling-stroke" d="
  M 43.58 43.50
  Q 42.32 44.28 41.21 44.17
  A 1.05 1.05 0.0 0 0 40.29 44.57
  Q 35.08 51.40 27.43 48.30
  Q 23.39 46.67 21.77 42.28
  A 0.26 0.26 0.0 0 0 21.29 42.25
  Q 20.65 43.43 19.59 44.20
  A 0.45 0.45 0.0 0 0 19.47 44.79
  C 25.34 54.81 39.11 55.06 44.06 43.92
  A 0.33 0.33 0.0 0 0 43.58 43.50"
/>
<path stroke="#9cb1a5" vector-effect="non-scaling-stroke" d="
  M 26.8685 42.3843
  A 0.71 0.71 0.0 0 0 25.8644 42.3737
  L 24.4926 43.7171
  A 0.71 0.71 0.0 0 0 24.4821 44.7211
  L 25.6715 45.9357
  A 0.71 0.71 0.0 0 0 26.6756 45.9463
  L 28.0474 44.6029
  A 0.71 0.71 0.0 0 0 28.0579 43.5989
  L 26.8685 42.3843"
/>
<path stroke="#9cb1a5" vector-effect="non-scaling-stroke" d="
  M 37.3479 42.4352
  A 0.77 0.77 0.0 0 0 36.2602 42.3820
  L 35.1490 43.3896
  A 0.77 0.77 0.0 0 0 35.0958 44.4773
  L 36.3721 45.8848
  A 0.77 0.77 0.0 0 0 37.4598 45.9380
  L 38.5710 44.9304
  A 0.77 0.77 0.0 0 0 38.6242 43.8427
  L 37.3479 42.4352"
/>
<path stroke="#9cb1a5" vector-effect="non-scaling-stroke" d="
  M 33.0799 45.4757
  A 0.75 0.75 0.0 0 0 32.3378 44.7178
  L 30.8578 44.7023
  A 0.75 0.75 0.0 0 0 30.1000 45.4444
  L 30.0801 47.3443
  A 0.75 0.75 0.0 0 0 30.8222 48.1022
  L 32.3022 48.1177
  A 0.75 0.75 0.0 0 0 33.0600 47.3756
  L 33.0799 45.4757"
/>
</g>
<path fill="#1c3425" d="
  M 33.80 88.00
  L 33.04 88.00
  C 16.81 73.25 -6.18 44.43 3.93 20.73
  C 11.68 2.54 33.73 -4.07 50.56 6.20
  Q 58.30 10.92 62.46 19.44
  C 67.02 28.76 65.95 40.16 62.13 49.57
  C 56.19 64.22 45.44 77.41 33.80 88.00
  Z
  M 33.42 86.65
  Q 33.47 86.65 33.52 86.65
  A 0.33 0.14 -51.2 0 0 33.70 86.55
  C 44.86 76.22 55.14 63.52 60.90 49.39
  C 65.85 37.24 66.01 23.25 56.76 12.99
  Q 47.65 2.89 33.75 2.48
  Q 33.64 2.48 33.53 2.48
  Q 33.42 2.48 33.31 2.48
  Q 19.41 2.85 10.27 12.93
  C 1.00 23.16 1.12 37.15 6.03 49.32
  C 11.76 63.46 22.00 76.19 33.13 86.55
  A 0.33 0.14 51.4 0 0 33.31 86.65
  Q 33.36 86.65 33.42 86.65
  Z"
/>
<path fill="#39634a" d="
  M 33.53 2.48
  Q 33.64 2.48 33.75 2.48
  Q 47.65 2.89 56.76 12.99
  C 66.01 23.25 65.85 37.24 60.90 49.39
  C 55.14 63.52 44.86 76.22 33.70 86.55
  A 0.33 0.14 -51.2 0 1 33.52 86.65
  Q 33.47 86.65 33.42 86.65
  Q 33.36 86.65 33.31 86.65
  A 0.33 0.14 51.4 0 1 33.13 86.55
  C 22.00 76.19 11.76 63.46 6.03 49.32
  C 1.12 37.15 1.00 23.16 10.27 12.93
  Q 19.41 2.85 33.31 2.48
  Q 33.42 2.48 33.53 2.48
  Z
  M 29.20 16.35
  A 0.22 0.22 0.0 0 0 28.88 16.06
  Q 26.35 17.73 27.81 19.30
  A 1.39 1.39 0.0 0 1 28.16 20.45
  Q 27.96 21.72 28.33 23.14
  A 0.61 0.60 37.7 0 0 29.52 22.99
  L 29.52 20.73
  A 0.69 0.67 84.3 0 1 30.06 20.06
  Q 30.48 19.97 30.87 20.00
  C 32.81 20.17 33.42 18.37 33.23 16.57
  A 0.39 0.39 0.0 0 0 32.47 16.49
  L 31.84 18.50
  A 0.42 0.42 0.0 0 1 31.08 18.60
  Q 30.97 18.46 30.90 17.16
  A 0.34 0.34 0.0 0 0 30.30 16.95
  Q 29.98 17.32 29.96 18.32
  A 0.71 0.71 0.0 0 1 29.34 19.01
  L 29.25 19.02
  A 0.57 0.57 0.0 0 1 28.61 18.47
  Q 28.58 17.52 29.20 16.35
  Z
  M 27.35 26.03
  L 27.46 25.78
  A 0.26 0.25 -9.0 0 0 27.06 25.49
  Q 25.68 26.63 26.72 27.28
  C 27.54 27.81 28.28 28.14 28.72 29.06
  Q 28.90 29.45 29.17 29.79
  Q 29.47 30.16 30.37 29.96
  Q 30.40 29.95 31.63 29.63
  C 33.27 29.20 34.18 30.31 35.77 28.73
  Q 36.07 28.44 35.93 28.10
  A 0.24 0.23 -28.4 0 0 35.58 28.00
  Q 34.47 28.75 33.55 28.29
  A 0.79 0.75 -40.2 0 1 33.70 26.88
  Q 35.55 26.24 36.80 24.97
  A 0.46 0.46 0.0 0 0 36.31 24.22
  L 33.23 25.38
  A 0.52 0.50 -40.0 0 1 32.81 25.35
  Q 32.33 25.08 32.30 24.66
  A 0.60 0.59 -89.2 0 1 32.94 24.03
  Q 35.59 24.27 35.94 21.94
  A 0.25 0.25 0.0 0 0 35.52 21.72
  Q 34.12 23.06 33.49 22.86
  A 0.46 0.46 0.0 0 1 33.35 22.06
  Q 35.07 20.74 35.30 18.89
  A 0.32 0.32 0.0 0 0 34.82 18.58
  C 32.08 20.26 30.12 21.07 30.54 24.53
  A 1.23 1.20 13.8 0 0 31.07 25.38
  C 32.99 26.66 32.15 29.19 29.74 28.47
  A 0.61 0.45 33.1 0 1 29.40 27.55
  Q 29.62 27.43 30.01 27.55
  A 0.61 0.58 74.5 0 0 30.56 26.53
  Q 29.53 25.52 28.58 26.74
  A 0.72 0.72 0.0 0 1 27.35 26.03
  Z
  M 17.34 28.58
  C 17.32 30.77 15.33 32.92 17.96 34.51
  A 1.06 1.05 -39.7 0 1 17.78 36.40
  L 17.07 36.67
  A 0.79 0.79 0.0 0 1 16.00 35.93
  L 16.00 33.39
  A 0.37 0.37 0.0 0 0 15.27 33.34
  L 14.85 36.46
  A 1.74 1.74 0.0 0 0 17.19 38.32
  L 19.58 37.42
  A 0.81 0.78 -37.2 0 1 20.32 37.51
  Q 21.07 38.04 20.90 39.09
  A 0.51 0.50 18.7 0 1 20.16 39.45
  Q 18.88 38.74 17.54 39.28
  A 2.08 2.08 0.0 0 0 16.49 42.19
  Q 17.54 44.15 19.59 42.79
  A 0.38 0.38 0.0 0 0 19.33 42.10
  Q 18.27 42.23 17.92 42.11
  A 0.67 0.67 0.0 0 1 18.00 40.82
  Q 19.51 40.48 20.61 41.00
  A 1.46 1.42 88.4 0 0 22.45 39.00
  Q 21.59 37.31 22.23 35.88
  A 1.33 1.32 42.8 0 0 22.18 34.70
  Q 21.47 33.42 22.49 32.86
  C 24.30 31.87 24.48 30.34 26.90 29.62
  A 0.35 0.35 0.0 0 0 27.05 29.04
  L 25.36 27.35
  A 0.95 0.95 0.0 0 0 24.02 27.35
  L 21.58 29.75
  A 0.64 0.63 42.7 0 0 21.62 30.69
  C 22.09 31.16 22.27 32.02 21.81 32.64
  Q 21.12 33.58 21.13 35.15
  A 0.40 0.40 0.0 0 1 20.73 35.55
  L 20.42 35.55
  A 0.32 0.31 -0.0 0 1 20.10 35.24
  L 20.10 31.79
  A 0.50 0.50 0.0 0 0 19.11 31.69
  L 18.92 32.63
  A 0.36 0.35 6.0 0 1 18.57 32.91
  L 18.23 32.91
  A 0.32 0.32 0.0 0 1 17.93 32.48
  Q 18.68 30.37 17.78 28.48
  A 0.23 0.23 0.0 0 0 17.34 28.58
  Z
  M 41.27 29.21
  L 38.13 27.18
  A 0.30 0.30 0.0 0 0 37.71 27.27
  L 37.57 27.49
  A 2.42 0.84 -57.2 0 0 36.96 29.98
  L 39.20 31.42
  A 2.42 0.84 -57.2 0 0 41.22 29.84
  L 41.36 29.63
  A 0.30 0.30 0.0 0 0 41.27 29.21
  Z
  M 41.36 41.19
  L 41.80 40.73
  A 0.51 0.51 0.0 0 0 41.47 39.87
  C 38.83 39.66 38.94 43.03 41.79 43.02
  A 1.56 1.54 -64.3 0 0 42.77 42.67
  Q 44.40 41.32 45.43 42.21
  A 1.10 0.91 -52.3 0 0 46.88 41.88
  Q 47.97 40.35 49.37 39.71
  Q 49.83 39.50 50.15 38.92
  Q 50.85 37.68 50.72 37.43
  A 0.25 0.25 0.0 0 0 50.25 37.48
  Q 50.12 38.02 47.07 39.44
  A 1.07 1.01 77.2 0 1 45.64 38.48
  Q 45.61 37.72 46.40 37.20
  Q 46.71 36.99 46.87 36.61
  Q 47.02 36.25 47.09 36.04
  A 0.75 0.75 0.0 0 0 46.01 35.14
  L 44.55 35.98
  A 0.72 0.72 0.0 0 1 43.82 35.97
  Q 43.39 35.71 43.12 35.32
  A 0.57 0.56 -17.5 0 1 43.59 34.43
  L 46.15 34.43
  A 0.87 0.85 -80.4 0 0 46.96 33.84
  Q 47.56 32.00 47.41 30.57
  A 0.26 0.26 0.0 0 0 46.90 30.53
  L 46.33 32.72
  A 0.90 0.89 -2.6 0 1 45.77 33.33
  Q 45.38 33.52 44.48 33.07
  A 0.49 0.48 33.4 0 1 44.32 32.32
  Q 44.74 31.82 45.39 31.63
  A 0.23 0.23 0.0 0 0 45.42 31.20
  Q 44.14 30.65 43.52 31.76
  Q 42.98 32.71 42.67 32.88
  A 0.50 0.50 0.0 0 1 42.08 32.08
  Q 44.46 29.82 44.66 29.33
  A 0.19 0.18 -6.4 0 0 44.38 29.11
  L 40.69 31.69
  A 1.01 1.00 -24.7 0 0 40.29 32.76
  C 40.44 33.63 41.40 34.02 41.09 35.07
  Q 40.59 36.74 42.28 38.40
  C 43.75 39.84 43.70 40.94 41.92 41.91
  A 0.46 0.46 0.0 0 1 41.36 41.19
  Z
  M 33.18 32.23
  L 32.95 30.93
  A 0.41 0.41 0.0 0 0 32.47 30.60
  L 32.25 30.64
  A 2.46 0.89 -10.2 0 0 29.98 31.95
  L 30.05 32.30
  A 2.46 0.89 -10.2 0 0 32.63 32.74
  L 32.85 32.70
  A 0.41 0.41 0.0 0 0 33.18 32.23
  Z
  M 28.1277 34.0323
  A 0.62 0.62 0.0 0 0 28.1094 33.1556
  L 26.5071 31.6191
  A 0.62 0.62 0.0 0 0 25.6304 31.6374
  L 24.4123 32.9077
  A 0.62 0.62 0.0 0 0 24.4306 33.7844
  L 26.0329 35.3209
  A 0.62 0.62 0.0 0 0 26.9096 35.3026
  L 28.1277 34.0323
  Z
  M 37.6122 31.6537
  A 0.69 0.69 0.0 0 0 36.6367 31.6281
  L 35.0844 33.1012
  A 0.69 0.69 0.0 0 0 35.0589 34.0767
  L 36.1878 35.2663
  A 0.69 0.69 0.0 0 0 37.1633 35.2919
  L 38.7156 33.8188
  A 0.69 0.69 0.0 0 0 38.7411 32.8433
  L 37.6122 31.6537
  Z
  M 48.99 33.84
  Q 47.69 34.16 47.57 34.34
  A 0.42 0.41 -72.2 0 0 47.90 34.99
  Q 48.63 35.00 49.24 34.21
  A 0.24 0.24 0.0 0 0 48.99 33.84
  Z
  M 36.36 38.81
  A 4.80 4.80 0.0 0 0 31.56 34.01
  A 4.80 4.80 0.0 0 0 26.76 38.81
  A 4.80 4.80 0.0 0 0 31.56 43.61
  A 4.80 4.80 0.0 0 0 36.36 38.81
  Z
  M 47.71 37.48
  Q 48.53 37.04 48.68 36.78
  A 0.30 0.30 0.0 0 0 48.30 36.36
  Q 47.13 36.85 47.22 37.25
  A 0.34 0.33 70.0 0 0 47.71 37.48
  Z
  M 25.64 39.66
  Q 25.77 39.09 25.57 37.51
  A 0.32 0.31 -3.0 0 0 25.25 37.23
  L 23.54 37.23
  A 0.22 0.22 0.0 0 0 23.33 37.50
  L 23.85 39.67
  A 0.92 0.92 0.0 0 0 25.64 39.66
  Z
  M 37.50 37.67
  L 37.50 39.79
  A 0.48 0.48 0.0 0 0 38.22 40.20
  L 40.51 38.88
  A 0.61 0.60 -33.2 0 0 40.70 38.00
  Q 40.07 37.17 38.00 37.17
  A 0.50 0.50 0.0 0 0 37.50 37.67
  Z
  M 43.58 43.50
  Q 42.32 44.28 41.21 44.17
  A 1.05 1.05 0.0 0 0 40.29 44.57
  Q 35.08 51.40 27.43 48.30
  Q 23.39 46.67 21.77 42.28
  A 0.26 0.26 0.0 0 0 21.29 42.25
  Q 20.65 43.43 19.59 44.20
  A 0.45 0.45 0.0 0 0 19.47 44.79
  C 25.34 54.81 39.11 55.06 44.06 43.92
  A 0.33 0.33 0.0 0 0 43.58 43.50
  Z
  M 26.8685 42.3843
  A 0.71 0.71 0.0 0 0 25.8644 42.3737
  L 24.4926 43.7171
  A 0.71 0.71 0.0 0 0 24.4821 44.7211
  L 25.6715 45.9357
  A 0.71 0.71 0.0 0 0 26.6756 45.9463
  L 28.0474 44.6029
  A 0.71 0.71 0.0 0 0 28.0579 43.5989
  L 26.8685 42.3843
  Z
  M 37.3479 42.4352
  A 0.77 0.77 0.0 0 0 36.2602 42.3820
  L 35.1490 43.3896
  A 0.77 0.77 0.0 0 0 35.0958 44.4773
  L 36.3721 45.8848
  A 0.77 0.77 0.0 0 0 37.4598 45.9380
  L 38.5710 44.9304
  A 0.77 0.77 0.0 0 0 38.6242 43.8427
  L 37.3479 42.4352
  Z
  M 33.0799 45.4757
  A 0.75 0.75 0.0 0 0 32.3378 44.7178
  L 30.8578 44.7023
  A 0.75 0.75 0.0 0 0 30.1000 45.4444
  L 30.0801 47.3443
  A 0.75 0.75 0.0 0 0 30.8222 48.1022
  L 32.3022 48.1177
  A 0.75 0.75 0.0 0 0 33.0600 47.3756
  L 33.0799 45.4757
  Z"
/>
<path fill="#ffffff" d="
  M 29.20 16.35
  Q 28.58 17.52 28.61 18.47
  A 0.57 0.57 0.0 0 0 29.25 19.02
  L 29.34 19.01
  A 0.71 0.71 0.0 0 0 29.96 18.32
  Q 29.98 17.32 30.30 16.95
  A 0.34 0.34 0.0 0 1 30.90 17.16
  Q 30.97 18.46 31.08 18.60
  A 0.42 0.42 0.0 0 0 31.84 18.50
  L 32.47 16.49
  A 0.39 0.39 0.0 0 1 33.23 16.57
  C 33.42 18.37 32.81 20.17 30.87 20.00
  Q 30.48 19.97 30.06 20.06
  A 0.69 0.67 84.3 0 0 29.52 20.73
  L 29.52 22.99
  A 0.61 0.60 37.7 0 1 28.33 23.14
  Q 27.96 21.72 28.16 20.45
  A 1.39 1.39 0.0 0 0 27.81 19.30
  Q 26.35 17.73 28.88 16.06
  A 0.22 0.22 0.0 0 1 29.20 16.35
  Z"
/>
<path fill="#ffffff" d="
  M 27.35 26.03
  A 0.72 0.72 0.0 0 0 28.58 26.74
  Q 29.53 25.52 30.56 26.53
  A 0.61 0.58 74.5 0 1 30.01 27.55
  Q 29.62 27.43 29.40 27.55
  A 0.61 0.45 33.1 0 0 29.74 28.47
  C 32.15 29.19 32.99 26.66 31.07 25.38
  A 1.23 1.20 13.8 0 1 30.54 24.53
  C 30.12 21.07 32.08 20.26 34.82 18.58
  A 0.32 0.32 0.0 0 1 35.30 18.89
  Q 35.07 20.74 33.35 22.06
  A 0.46 0.46 0.0 0 0 33.49 22.86
  Q 34.12 23.06 35.52 21.72
  A 0.25 0.25 0.0 0 1 35.94 21.94
  Q 35.59 24.27 32.94 24.03
  A 0.60 0.59 -89.2 0 0 32.30 24.66
  Q 32.33 25.08 32.81 25.35
  A 0.52 0.50 -40.0 0 0 33.23 25.38
  L 36.31 24.22
  A 0.46 0.46 0.0 0 1 36.80 24.97
  Q 35.55 26.24 33.70 26.88
  A 0.79 0.75 -40.2 0 0 33.55 28.29
  Q 34.47 28.75 35.58 28.00
  A 0.24 0.23 -28.4 0 1 35.93 28.10
  Q 36.07 28.44 35.77 28.73
  C 34.18 30.31 33.27 29.20 31.63 29.63
  Q 30.40 29.95 30.37 29.96
  Q 29.47 30.16 29.17 29.79
  Q 28.90 29.45 28.72 29.06
  C 28.28 28.14 27.54 27.81 26.72 27.28
  Q 25.68 26.63 27.06 25.49
  A 0.26 0.25 -9.0 0 1 27.46 25.78
  L 27.35 26.03
  Z"
/>
<path fill="#ffffff" d="
  M 17.78 28.48
  Q 18.68 30.37 17.93 32.48
  A 0.32 0.32 0.0 0 0 18.23 32.91
  L 18.57 32.91
  A 0.36 0.35 6.0 0 0 18.92 32.63
  L 19.11 31.69
  A 0.50 0.50 0.0 0 1 20.10 31.79
  L 20.10 35.24
  A 0.32 0.31 -0.0 0 0 20.42 35.55
  L 20.73 35.55
  A 0.40 0.40 0.0 0 0 21.13 35.15
  Q 21.12 33.58 21.81 32.64
  C 22.27 32.02 22.09 31.16 21.62 30.69
  A 0.64 0.63 42.7 0 1 21.58 29.75
  L 24.02 27.35
  A 0.95 0.95 0.0 0 1 25.36 27.35
  L 27.05 29.04
  A 0.35 0.35 0.0 0 1 26.90 29.62
  C 24.48 30.34 24.30 31.87 22.49 32.86
  Q 21.47 33.42 22.18 34.70
  A 1.33 1.32 42.8 0 1 22.23 35.88
  Q 21.59 37.31 22.45 39.00
  A 1.46 1.42 88.4 0 1 20.61 41.00
  Q 19.51 40.48 18.00 40.82
  A 0.67 0.67 0.0 0 0 17.92 42.11
  Q 18.27 42.23 19.33 42.10
  A 0.38 0.38 0.0 0 1 19.59 42.79
  Q 17.54 44.15 16.49 42.19
  A 2.08 2.08 0.0 0 1 17.54 39.28
  Q 18.88 38.74 20.16 39.45
  A 0.51 0.50 18.7 0 0 20.90 39.09
  Q 21.07 38.04 20.32 37.51
  A 0.81 0.78 -37.2 0 0 19.58 37.42
  L 17.19 38.32
  A 1.74 1.74 0.0 0 1 14.85 36.46
  L 15.27 33.34
  A 0.37 0.37 0.0 0 1 16.00 33.39
  L 16.00 35.93
  A 0.79 0.79 0.0 0 0 17.07 36.67
  L 17.78 36.40
  A 1.06 1.05 -39.7 0 0 17.96 34.51
  C 15.33 32.92 17.32 30.77 17.34 28.58
  A 0.23 0.23 0.0 0 1 17.78 28.48
  Z"
/>
<path fill="#ffffff" d="
  M 41.27 29.21
  A 0.30 0.30 0.0 0 1 41.36 29.63
  L 41.22 29.84
  A 2.42 0.84 -57.2 0 1 39.20 31.42
  L 36.96 29.98
  A 2.42 0.84 -57.2 0 1 37.57 27.49
  L 37.71 27.27
  A 0.30 0.30 0.0 0 1 38.13 27.18
  L 41.27 29.21
  Z"
/>
<path fill="#ffffff" d="
  M 41.36 41.19
  A 0.46 0.46 0.0 0 0 41.92 41.91
  C 43.70 40.94 43.75 39.84 42.28 38.40
  Q 40.59 36.74 41.09 35.07
  C 41.40 34.02 40.44 33.63 40.29 32.76
  A 1.01 1.00 -24.7 0 1 40.69 31.69
  L 44.38 29.11
  A 0.19 0.18 -6.4 0 1 44.66 29.33
  Q 44.46 29.82 42.08 32.08
  A 0.50 0.50 0.0 0 0 42.67 32.88
  Q 42.98 32.71 43.52 31.76
  Q 44.14 30.65 45.42 31.20
  A 0.23 0.23 0.0 0 1 45.39 31.63
  Q 44.74 31.82 44.32 32.32
  A 0.49 0.48 33.4 0 0 44.48 33.07
  Q 45.38 33.52 45.77 33.33
  A 0.90 0.89 -2.6 0 0 46.33 32.72
  L 46.90 30.53
  A 0.26 0.26 0.0 0 1 47.41 30.57
  Q 47.56 32.00 46.96 33.84
  A 0.87 0.85 -80.4 0 1 46.15 34.43
  L 43.59 34.43
  A 0.57 0.56 -17.5 0 0 43.12 35.32
  Q 43.39 35.71 43.82 35.97
  A 0.72 0.72 0.0 0 0 44.55 35.98
  L 46.01 35.14
  A 0.75 0.75 0.0 0 1 47.09 36.04
  Q 47.02 36.25 46.87 36.61
  Q 46.71 36.99 46.40 37.20
  Q 45.61 37.72 45.64 38.48
  A 1.07 1.01 77.2 0 0 47.07 39.44
  Q 50.12 38.02 50.25 37.48
  A 0.25 0.25 0.0 0 1 50.72 37.43
  Q 50.85 37.68 50.15 38.92
  Q 49.83 39.50 49.37 39.71
  Q 47.97 40.35 46.88 41.88
  A 1.10 0.91 -52.3 0 1 45.43 42.21
  Q 44.40 41.32 42.77 42.67
  A 1.56 1.54 -64.3 0 1 41.79 43.02
  C 38.94 43.03 38.83 39.66 41.47 39.87
  A 0.51 0.51 0.0 0 1 41.80 40.73
  L 41.36 41.19
  Z"
/>
<path fill="#ffffff" d="
  M 33.18 32.23
  A 0.41 0.41 0.0 0 1 32.85 32.70
  L 32.63 32.74
  A 2.46 0.89 -10.2 0 1 30.05 32.30
  L 29.98 31.95
  A 2.46 0.89 -10.2 0 1 32.25 30.64
  L 32.47 30.60
  A 0.41 0.41 0.0 0 1 32.95 30.93
  L 33.18 32.23
  Z"
/>
<rect fill="#ffffff" x="-1.73" y="-1.50" transform="translate(26.27,33.47) rotate(43.8)" width="3.46" height="3.00" rx="0.62"/>
<rect fill="#ffffff" x="-1.76" y="-1.51" transform="translate(36.90,33.46) rotate(-43.5)" width="3.52" height="3.02" rx="0.69"/>
<path fill="#ffffff" d="
  M 49.24 34.21
  Q 48.63 35.00 47.90 34.99
  A 0.42 0.41 -72.2 0 1 47.57 34.34
  Q 47.69 34.16 48.99 33.84
  A 0.24 0.24 0.0 0 1 49.24 34.21
  Z"
/>
<circle fill="#ffffff" cx="31.56" cy="38.81" r="4.80"/>
<path fill="#ffffff" d="
  M 47.22 37.25
  Q 47.13 36.85 48.30 36.36
  A 0.30 0.30 0.0 0 1 48.68 36.78
  Q 48.53 37.04 47.71 37.48
  A 0.34 0.33 70.0 0 1 47.22 37.25
  Z"
/>
<path fill="#ffffff" d="
  M 25.64 39.66
  A 0.92 0.92 0.0 0 1 23.85 39.67
  L 23.33 37.50
  A 0.22 0.22 0.0 0 1 23.54 37.23
  L 25.25 37.23
  A 0.32 0.31 -3.0 0 1 25.57 37.51
  Q 25.77 39.09 25.64 39.66
  Z"
/>
<path fill="#ffffff" d="
  M 38.00 37.17
  Q 40.07 37.17 40.70 38.00
  A 0.61 0.60 -33.2 0 1 40.51 38.88
  L 38.22 40.20
  A 0.48 0.48 0.0 0 1 37.50 39.79
  L 37.50 37.67
  A 0.50 0.50 0.0 0 1 38.00 37.17
  Z"
/>
<path fill="#ffffff" d="
  M 44.06 43.92
  C 39.11 55.06 25.34 54.81 19.47 44.79
  A 0.45 0.45 0.0 0 1 19.59 44.20
  Q 20.65 43.43 21.29 42.25
  A 0.26 0.26 0.0 0 1 21.77 42.28
  Q 23.39 46.67 27.43 48.30
  Q 35.08 51.40 40.29 44.57
  A 1.05 1.05 0.0 0 1 41.21 44.17
  Q 42.32 44.28 43.58 43.50
  A 0.33 0.33 0.0 0 1 44.06 43.92
  Z"
/>
<rect fill="#ffffff" x="-1.67" y="-1.56" transform="translate(26.27,44.16) rotate(-44.4)" width="3.34" height="3.12" rx="0.71"/>
<rect fill="#ffffff" x="-1.52" y="-1.72" transform="translate(36.86,44.16) rotate(-42.2)" width="3.04" height="3.44" rx="0.77"/>
<rect fill="#ffffff" x="-1.49" y="-1.70" transform="translate(31.58,46.41) rotate(0.6)" width="2.98" height="3.40" rx="0.75"/>
</svg>
