<?xml version="1.0" encoding="UTF-8" standalone="no"?>
<!DOCTYPE svg PUBLIC "-//W3C//DTD SVG 1.1//EN" "http://www.w3.org/Graphics/SVG/1.1/DTD/svg11.dtd">
<svg xmlns="http://www.w3.org/2000/svg" version="1.1" viewBox="0.00 0.00 66.00 88.00">
<g stroke-width="2.00" fill="none" stroke-linecap="butt">
<path stroke="#441a44" vector-effect="non-scaling-stroke" d="
  M 33.42 86.52
  Q 33.69 86.52 33.88 86.35
  C 47.24 74.00 61.08 56.30 63.87 38.44
  C 66.87 19.22 53.07 3.11 33.75 2.46
  Q 33.62 2.46 33.48 2.46
  Q 33.35 2.46 33.22 2.46
  C 13.90 3.08 0.07 19.17 3.05 38.40
  C 5.81 56.26 19.62 73.98 32.97 86.35
  Q 33.15 86.52 33.42 86.52"
/>
<path stroke="#ac91ac" vector-effect="non-scaling-stroke" d="
  M 32.63 18.14
  Q 32.14 22.70 31.09 26.08
  C 29.70 30.53 26.62 32.10 22.40 33.41
  A 0.12 0.12 0.0 0 0 22.41 33.64
  C 26.83 34.42 30.65 37.69 32.23 41.43
  A 0.32 0.31 -44.6 0 0 32.81 41.43
  Q 35.51 35.49 42.35 33.62
  A 0.15 0.14 43.5 0 0 42.34 33.34
  C 34.77 31.72 32.63 25.05 32.63 18.14"
/>
<path stroke="#ac91ac" vector-effect="non-scaling-stroke" d="
  M 32.54 49.22
  Q 36.89 49.22 40.79 48.20
  A 1.02 1.02 0.0 0 1 42.06 49.02
  Q 42.67 52.62 45.28 52.27
  A 0.77 0.77 0.0 0 0 45.48 50.79
  Q 43.71 50.04 43.36 47.88
  A 0.70 0.70 0.0 0 1 43.82 47.11
  C 46.02 46.34 50.11 43.64 49.31 40.87
  Q 49.03 39.88 47.12 39.32
  Q 42.38 37.91 38.09 37.86
  A 0.45 0.45 0.0 0 0 37.63 38.29
  L 37.63 38.31
  A 0.48 0.48 0.0 0 0 38.09 38.82
  C 40.36 38.93 45.37 39.39 47.01 40.62
  A 0.83 0.83 0.0 0 1 46.80 42.06
  C 42.53 43.68 38.43 43.76 32.54 43.76
  C 26.66 43.76 22.56 43.68 18.28 42.06
  A 0.83 0.83 0.0 0 1 18.08 40.61
  C 19.72 39.38 24.73 38.93 27.00 38.82
  A 0.48 0.48 0.0 0 0 27.46 38.31
  L 27.46 38.29
  A 0.45 0.45 0.0 0 0 27.00 37.86
  Q 22.71 37.91 17.97 39.31
  Q 16.06 39.87 15.78 40.86
  C 14.98 43.63 19.07 46.33 21.27 47.10
  A 0.70 0.70 0.0 0 1 21.72 47.88
  Q 21.37 50.03 19.60 50.78
  A 0.77 0.77 0.0 0 0 19.80 52.26
  Q 22.41 52.62 23.02 49.02
  A 1.02 1.02 0.0 0 1 24.30 48.20
  Q 28.19 49.22 32.54 49.22"
/>
</g>
<path fill="#2f112e" d="
  M 33.80 88.00
  L 33.04 88.00
  C 21.87 77.84 12.08 65.68 5.74 51.77
  Q 2.87 45.47 1.95 38.73
  Q -0.16 23.22 8.85 12.74
  Q 18.01 2.09 32.26 1.34
  C 40.52 0.90 49.75 4.24 55.81 10.27
  C 80.50 34.82 52.66 70.83 33.80 88.00
  Z
  M 33.42 86.52
  Q 33.69 86.52 33.88 86.35
  C 47.24 74.00 61.08 56.30 63.87 38.44
  C 66.87 19.22 53.07 3.11 33.75 2.46
  Q 33.62 2.46 33.48 2.46
  Q 33.35 2.46 33.22 2.46
  C 13.90 3.08 0.07 19.17 3.05 38.40
  C 5.81 56.26 19.62 73.98 32.97 86.35
  Q 33.15 86.52 33.42 86.52
  Z"
/>
<path fill="#582359" d="
  M 33.48 2.46
  Q 33.62 2.46 33.75 2.46
  C 53.07 3.11 66.87 19.22 63.87 38.44
  C 61.08 56.30 47.24 74.00 33.88 86.35
  Q 33.69 86.52 33.42 86.52
  Q 33.15 86.52 32.97 86.35
  C 19.62 73.98 5.81 56.26 3.05 38.40
  C 0.07 19.17 13.90 3.08 33.22 2.46
  Q 33.35 2.46 33.48 2.46
  Z
  M 32.63 18.14
  Q 32.14 22.70 31.09 26.08
  C 29.70 30.53 26.62 32.10 22.40 33.41
  A 0.12 0.12 0.0 0 0 22.41 33.64
  C 26.83 34.42 30.65 37.69 32.23 41.43
  A 0.32 0.31 -44.6 0 0 32.81 41.43
  Q 35.51 35.49 42.35 33.62
  A 0.15 0.14 43.5 0 0 42.34 33.34
  C 34.77 31.72 32.63 25.05 32.63 18.14
  Z
  M 32.54 49.22
  Q 36.89 49.22 40.79 48.20
  A 1.02 1.02 0.0 0 1 42.06 49.02
  Q 42.67 52.62 45.28 52.27
  A 0.77 0.77 0.0 0 0 45.48 50.79
  Q 43.71 50.04 43.36 47.88
  A 0.70 0.70 0.0 0 1 43.82 47.11
  C 46.02 46.34 50.11 43.64 49.31 40.87
  Q 49.03 39.88 47.12 39.32
  Q 42.38 37.91 38.09 37.86
  A 0.45 0.45 0.0 0 0 37.63 38.29
  L 37.63 38.31
  A 0.48 0.48 0.0 0 0 38.09 38.82
  C 40.36 38.93 45.37 39.39 47.01 40.62
  A 0.83 0.83 0.0 0 1 46.80 42.06
  C 42.53 43.68 38.43 43.76 32.54 43.76
  C 26.66 43.76 22.56 43.68 18.28 42.06
  A 0.83 0.83 0.0 0 1 18.08 40.61
  C 19.72 39.38 24.73 38.93 27.00 38.82
  A 0.48 0.48 0.0 0 0 27.46 38.31
  L 27.46 38.29
  A 0.45 0.45 0.0 0 0 27.00 37.86
  Q 22.71 37.91 17.97 39.31
  Q 16.06 39.87 15.78 40.86
  C 14.98 43.63 19.07 46.33 21.27 47.10
  A 0.70 0.70 0.0 0 1 21.72 47.88
  Q 21.37 50.03 19.60 50.78
  A 0.77 0.77 0.0 0 0 19.80 52.26
  Q 22.41 52.62 23.02 49.02
  A 1.02 1.02 0.0 0 1 24.30 48.20
  Q 28.19 49.22 32.54 49.22
  Z"
/>
<path fill="#ffffff" d="
  M 32.63 18.14
  C 32.63 25.05 34.77 31.72 42.34 33.34
  A 0.15 0.14 43.5 0 1 42.35 33.62
  Q 35.51 35.49 32.81 41.43
  A 0.32 0.31 -44.6 0 1 32.23 41.43
  C 30.65 37.69 26.83 34.42 22.41 33.64
  A 0.12 0.12 0.0 0 1 22.40 33.41
  C 26.62 32.10 29.70 30.53 31.09 26.08
  Q 32.14 22.70 32.63 18.14
  Z"
/>
<path fill="#ffffff" d="
  M 32.54 43.76
  C 38.43 43.76 42.53 43.68 46.80 42.06
  A 0.83 0.83 0.0 0 0 47.01 40.62
  C 45.37 39.39 40.36 38.93 38.09 38.82
  A 0.48 0.48 0.0 0 1 37.63 38.31
  L 37.63 38.29
  A 0.45 0.45 0.0 0 1 38.09 37.86
  Q 42.38 37.91 47.12 39.32
  Q 49.03 39.88 49.31 40.87
  C 50.11 43.64 46.02 46.34 43.82 47.11
  A 0.70 0.70 0.0 0 0 43.36 47.88
  Q 43.71 50.04 45.48 50.79
  A 0.77 0.77 0.0 0 1 45.28 52.27
  Q 42.67 52.62 42.06 49.02
  A 1.02 1.02 0.0 0 0 40.79 48.20
  Q 36.89 49.22 32.54 49.22
  Q 28.19 49.22 24.30 48.20
  A 1.02 1.02 0.0 0 0 23.02 49.02
  Q 22.41 52.62 19.80 52.26
  A 0.77 0.77 0.0 0 1 19.60 50.78
  Q 21.37 50.03 21.72 47.88
  A 0.70 0.70 0.0 0 0 21.27 47.10
  C 19.07 46.33 14.98 43.63 15.78 40.86
  Q 16.06 39.87 17.97 39.31
  Q 22.71 37.91 27.00 37.86
  A 0.45 0.45 0.0 0 1 27.46 38.29
  L 27.46 38.31
  A 0.48 0.48 0.0 0 1 27.00 38.82
  C 24.73 38.93 19.72 39.38 18.08 40.61
  A 0.83 0.83 0.0 0 0 18.28 42.06
  C 22.56 43.68 26.66 43.76 32.54 43.76
  Z"
/>
</svg>
