<?xml version="1.0" encoding="UTF-8" standalone="no"?>
<!DOCTYPE svg PUBLIC "-//W3C//DTD SVG 1.1//EN" "http://www.w3.org/Graphics/SVG/1.1/DTD/svg11.dtd">
<svg xmlns="http://www.w3.org/2000/svg" version="1.1" viewBox="0.00 0.00 66.00 88.00">
<g stroke-width="2.00" fill="none" stroke-linecap="butt">
<path stroke="#431a44" vector-effect="non-scaling-stroke" d="
  M 33.42 86.53
  C 33.56 86.53 33.70 86.51 33.80 86.42
  C 51.40 70.13 78.15 35.56 55.88 12.09
  Q 47.46 3.23 34.75 2.51
  Q 33.94 2.46 33.49 2.46
  Q 33.03 2.46 32.22 2.51
  Q 19.51 3.21 11.08 12.06
  C -11.23 35.49 15.47 70.10 33.04 86.42
  C 33.14 86.51 33.29 86.53 33.42 86.53"
/>
<path stroke="#ac91ac" vector-effect="non-scaling-stroke" d="
  M 23.93 25.30
  C 20.22 30.27 18.01 37.48 20.09 43.45
  C 22.87 51.46 31.79 54.38 39.21 50.88
  C 50.61 45.51 47.53 32.82 41.60 24.90
  Q 38.13 20.26 33.68 16.19
  A 0.40 0.40 0.0 0 0 33.02 16.42
  Q 31.56 24.62 27.39 30.74
  A 0.58 0.58 0.0 0 1 26.36 30.61
  L 24.55 25.40
  A 0.36 0.35 53.9 0 0 23.93 25.30"
/>
<path stroke="#ac91ac" vector-effect="non-scaling-stroke" d="
  M 29.71 48.44
  Q 26.83 45.95 27.18 43.06
  C 27.61 39.53 30.62 37.02 34.14 37.62
  C 38.87 38.43 41.09 44.60 37.14 47.91
  A 0.31 0.31 0.0 0 0 37.47 48.43
  Q 46.17 44.27 43.13 34.68
  Q 40.81 27.40 35.22 22.25
  A 0.33 0.32 -60.0 0 0 34.69 22.40
  Q 32.21 30.42 26.95 36.81
  A 0.41 0.40 50.0 0 1 26.29 36.75
  L 24.05 32.88
  A 0.34 0.34 0.0 0 0 23.44 32.93
  C 21.06 39.28 22.59 46.48 29.50 48.80
  A 0.21 0.21 0.0 0 0 29.71 48.44"
/>
</g>
<path fill="#2e112e" d="
  M 33.80 88.00
  L 33.04 88.00
  C 16.71 73.16 -6.74 43.72 4.28 19.97
  C 9.44 8.86 19.78 2.13 31.75 1.39
  C 44.60 0.59 57.21 7.96 62.60 19.67
  C 73.73 43.84 50.38 72.92 33.80 88.00
  Z
  M 33.42 86.53
  C 33.56 86.53 33.70 86.51 33.80 86.42
  C 51.40 70.13 78.15 35.56 55.88 12.09
  Q 47.46 3.23 34.75 2.51
  Q 33.94 2.46 33.49 2.46
  Q 33.03 2.46 32.22 2.51
  Q 19.51 3.21 11.08 12.06
  C -11.23 35.49 15.47 70.10 33.04 86.42
  C 33.14 86.51 33.29 86.53 33.42 86.53
  Z"
/>
<path fill="#582359" d="
  M 33.49 2.46
  Q 33.94 2.46 34.75 2.51
  Q 47.46 3.23 55.88 12.09
  C 78.15 35.56 51.40 70.13 33.80 86.42
  C 33.70 86.51 33.56 86.53 33.42 86.53
  C 33.29 86.53 33.14 86.51 33.04 86.42
  C 15.47 70.10 -11.23 35.49 11.08 12.06
  Q 19.51 3.21 32.22 2.51
  Q 33.03 2.46 33.49 2.46
  Z
  M 23.93 25.30
  C 20.22 30.27 18.01 37.48 20.09 43.45
  C 22.87 51.46 31.79 54.38 39.21 50.88
  C 50.61 45.51 47.53 32.82 41.60 24.90
  Q 38.13 20.26 33.68 16.19
  A 0.40 0.40 0.0 0 0 33.02 16.42
  Q 31.56 24.62 27.39 30.74
  A 0.58 0.58 0.0 0 1 26.36 30.61
  L 24.55 25.40
  A 0.36 0.35 53.9 0 0 23.93 25.30
  Z"
/>
<path fill="#ffffff" d="
  M 24.55 25.40
  L 26.36 30.61
  A 0.58 0.58 0.0 0 0 27.39 30.74
  Q 31.56 24.62 33.02 16.42
  A 0.40 0.40 0.0 0 1 33.68 16.19
  Q 38.13 20.26 41.60 24.90
  C 47.53 32.82 50.61 45.51 39.21 50.88
  C 31.79 54.38 22.87 51.46 20.09 43.45
  C 18.01 37.48 20.22 30.27 23.93 25.30
  A 0.36 0.35 53.9 0 1 24.55 25.40
  Z
  M 29.71 48.44
  Q 26.83 45.95 27.18 43.06
  C 27.61 39.53 30.62 37.02 34.14 37.62
  C 38.87 38.43 41.09 44.60 37.14 47.91
  A 0.31 0.31 0.0 0 0 37.47 48.43
  Q 46.17 44.27 43.13 34.68
  Q 40.81 27.40 35.22 22.25
  A 0.33 0.32 -60.0 0 0 34.69 22.40
  Q 32.21 30.42 26.95 36.81
  A 0.41 0.40 50.0 0 1 26.29 36.75
  L 24.05 32.88
  A 0.34 0.34 0.0 0 0 23.44 32.93
  C 21.06 39.28 22.59 46.48 29.50 48.80
  A 0.21 0.21 0.0 0 0 29.71 48.44
  Z"
/>
<path fill="#582359" d="
  M 29.50 48.80
  C 22.59 46.48 21.06 39.28 23.44 32.93
  A 0.34 0.34 0.0 0 1 24.05 32.88
  L 26.29 36.75
  A 0.41 0.40 50.0 0 0 26.95 36.81
  Q 32.21 30.42 34.69 22.40
  A 0.33 0.32 -60.0 0 1 35.22 22.25
  Q 40.81 27.40 43.13 34.68
  Q 46.17 44.27 37.47 48.43
  A 0.31 0.31 0.0 0 1 37.14 47.91
  C 41.09 44.60 38.87 38.43 34.14 37.62
  C 30.62 37.02 27.61 39.53 27.18 43.06
  Q 26.83 45.95 29.71 48.44
  A 0.21 0.21 0.0 0 1 29.50 48.80
  Z"
/>
</svg>
