<?xml version="1.0" encoding="UTF-8" standalone="no"?>
<!DOCTYPE svg PUBLIC "-//W3C//DTD SVG 1.1//EN" "http://www.w3.org/Graphics/SVG/1.1/DTD/svg11.dtd">
<svg xmlns="http://www.w3.org/2000/svg" version="1.1" viewBox="0.00 0.00 66.00 88.00">
<g stroke-width="2.00" fill="none" stroke-linecap="butt">
<path stroke="#441a44" vector-effect="non-scaling-stroke" d="
  M 33.42 86.53
  Q 33.72 86.53 33.89 86.37
  C 49.23 72.08 70.12 45.94 62.71 23.33
  C 58.59 10.78 47.01 2.99 33.75 2.46
  Q 33.62 2.46 33.50 2.46
  Q 33.38 2.46 33.25 2.46
  C 19.99 2.97 8.40 10.73 4.25 23.28
  C -3.20 45.87 17.64 72.05 32.96 86.36
  Q 33.13 86.53 33.42 86.53"
/>
<path stroke="#ac91ac" vector-effect="non-scaling-stroke" d="
  M 30.68 51.08
  Q 30.56 48.34 31.41 46.12
  A 0.42 0.41 -57.6 0 1 32.08 45.96
  Q 33.34 47.14 34.24 49.04
  A 0.91 0.91 0.0 0 0 35.98 48.71
  Q 36.18 45.39 34.32 42.98
  A 0.79 0.77 -41.5 0 1 34.39 41.95
  L 35.43 40.90
  A 0.75 0.75 0.0 0 1 36.53 40.95
  Q 38.43 43.20 41.77 43.63
  A 0.90 0.90 0.0 0 0 42.52 42.10
  L 39.78 39.36
  A 0.60 0.60 0.0 0 1 39.82 38.48
  Q 43.97 35.05 41.98 30.05
  A 0.86 0.85 -33.6 0 1 42.17 29.13
  L 44.97 26.33
  A 0.90 0.90 0.0 0 0 44.26 24.80
  Q 41.64 25.01 39.42 26.84
  A 0.70 0.68 27.6 0 1 38.91 26.99
  L 36.49 26.69
  A 0.65 0.65 0.0 0 1 35.92 25.96
  L 36.43 21.78
  A 0.77 0.77 0.0 0 0 35.18 21.09
  Q 32.44 23.36 32.17 26.97
  A 1.09 1.07 -13.5 0 1 31.64 27.82
  L 29.06 29.31
  A 1.02 1.01 -43.3 0 1 28.00 29.28
  Q 25.40 27.59 21.82 28.16
  A 0.84 0.84 0.0 0 0 21.53 29.71
  L 24.86 31.63
  A 0.60 0.59 -55.0 0 1 25.01 32.53
  Q 24.42 33.24 23.88 33.50
  A 1.55 1.52 35.6 0 1 23.06 33.63
  Q 19.50 33.15 17.10 34.88
  A 0.89 0.89 0.0 0 0 17.51 36.49
  L 20.74 36.89
  A 0.42 0.42 0.0 0 1 21.05 37.51
  L 19.51 40.18
  A 0.65 0.64 -52.5 0 0 19.61 40.96
  L 30.02 51.37
  A 0.39 0.39 0.0 0 0 30.68 51.08"
/>
<path stroke="#ac91ac" vector-effect="non-scaling-stroke" d="
  M 34.49 36.81
  L 35.29 36.15
  A 0.48 0.47 -22.5 0 1 36.07 36.47
  Q 36.14 37.25 36.28 37.36
  A 0.35 0.35 0.0 0 0 36.85 37.10
  Q 36.89 36.02 37.39 35.82
  Q 37.87 35.63 38.00 35.91
  Q 38.25 36.47 38.35 36.47
  A 0.44 0.44 0.0 0 0 38.75 35.78
  Q 38.37 35.22 38.31 34.92
  A 0.65 0.65 0.0 0 1 39.02 34.15
  Q 39.95 34.24 40.01 34.18
  A 0.32 0.32 0.0 0 0 39.87 33.63
  Q 38.90 33.42 38.73 32.90
  A 0.75 0.74 -20.3 0 1 39.17 31.95
  Q 39.48 31.83 39.50 31.81
  A 0.36 0.36 0.0 0 0 39.23 31.19
  Q 38.65 31.22 38.22 31.41
  A 0.32 0.32 0.0 0 1 37.79 31.03
  Q 37.87 30.76 37.79 29.75
  A 0.26 0.26 0.0 0 0 37.31 29.64
  L 36.96 30.25
  A 0.56 0.56 0.0 0 1 35.94 30.15
  Q 35.87 29.92 35.81 29.57
  A 0.33 0.33 0.0 0 0 35.16 29.61
  Q 35.12 30.70 34.62 30.88
  Q 34.08 31.07 33.68 30.64
  Q 33.40 30.33 33.30 30.33
  A 0.38 0.37 74.3 0 0 32.97 30.92
  Q 33.25 31.30 33.29 31.56
  A 0.62 0.62 0.0 0 1 32.54 32.27
  Q 32.20 32.18 32.12 32.20
  A 0.42 0.42 0.0 0 0 31.94 32.95
  Q 32.10 33.07 32.71 32.99
  A 0.35 0.35 0.0 0 1 33.06 33.52
  L 32.22 34.99
  A 0.30 0.30 0.0 0 0 32.59 35.42
  L 33.18 35.18
  A 0.66 0.65 -88.1 0 1 33.98 36.04
  Q 33.89 36.29 33.86 36.41
  A 0.39 0.39 0.0 0 0 34.49 36.81"
/>
</g>
<path fill="#2f112e" d="
  M 33.81 88.00
  L 33.04 88.00
  C 21.72 77.71 12.19 65.75 5.68 51.55
  Q 2.12 43.80 1.58 34.90
  C 0.40 15.68 16.33 0.11 35.84 1.42
  C 52.97 2.57 66.20 17.14 65.46 34.17
  C 64.56 54.71 48.36 74.71 33.81 88.00
  Z
  M 33.42 86.53
  Q 33.72 86.53 33.89 86.37
  C 49.23 72.08 70.12 45.94 62.71 23.33
  C 58.59 10.78 47.01 2.99 33.75 2.46
  Q 33.62 2.46 33.50 2.46
  Q 33.38 2.46 33.25 2.46
  C 19.99 2.97 8.40 10.73 4.25 23.28
  C -3.20 45.87 17.64 72.05 32.96 86.36
  Q 33.13 86.53 33.42 86.53
  Z"
/>
<path fill="#582359" d="
  M 33.50 2.46
  Q 33.62 2.46 33.75 2.46
  C 47.01 2.99 58.59 10.78 62.71 23.33
  C 70.12 45.94 49.23 72.08 33.89 86.37
  Q 33.72 86.53 33.42 86.53
  Q 33.13 86.53 32.96 86.36
  C 17.64 72.05 -3.20 45.87 4.25 23.28
  C 8.40 10.73 19.99 2.97 33.25 2.46
  Q 33.38 2.46 33.50 2.46
  Z
  M 30.68 51.08
  Q 30.56 48.34 31.41 46.12
  A 0.42 0.41 -57.6 0 1 32.08 45.96
  Q 33.34 47.14 34.24 49.04
  A 0.91 0.91 0.0 0 0 35.98 48.71
  Q 36.18 45.39 34.32 42.98
  A 0.79 0.77 -41.5 0 1 34.39 41.95
  L 35.43 40.90
  A 0.75 0.75 0.0 0 1 36.53 40.95
  Q 38.43 43.20 41.77 43.63
  A 0.90 0.90 0.0 0 0 42.52 42.10
  L 39.78 39.36
  A 0.60 0.60 0.0 0 1 39.82 38.48
  Q 43.97 35.05 41.98 30.05
  A 0.86 0.85 -33.6 0 1 42.17 29.13
  L 44.97 26.33
  A 0.90 0.90 0.0 0 0 44.26 24.80
  Q 41.64 25.01 39.42 26.84
  A 0.70 0.68 27.6 0 1 38.91 26.99
  L 36.49 26.69
  A 0.65 0.65 0.0 0 1 35.92 25.96
  L 36.43 21.78
  A 0.77 0.77 0.0 0 0 35.18 21.09
  Q 32.44 23.36 32.17 26.97
  A 1.09 1.07 -13.5 0 1 31.64 27.82
  L 29.06 29.31
  A 1.02 1.01 -43.3 0 1 28.00 29.28
  Q 25.40 27.59 21.82 28.16
  A 0.84 0.84 0.0 0 0 21.53 29.71
  L 24.86 31.63
  A 0.60 0.59 -55.0 0 1 25.01 32.53
  Q 24.42 33.24 23.88 33.50
  A 1.55 1.52 35.6 0 1 23.06 33.63
  Q 19.50 33.15 17.10 34.88
  A 0.89 0.89 0.0 0 0 17.51 36.49
  L 20.74 36.89
  A 0.42 0.42 0.0 0 1 21.05 37.51
  L 19.51 40.18
  A 0.65 0.64 -52.5 0 0 19.61 40.96
  L 30.02 51.37
  A 0.39 0.39 0.0 0 0 30.68 51.08
  Z"
/>
<path fill="#ffffff" d="
  M 30.02 51.37
  L 19.61 40.96
  A 0.65 0.64 -52.5 0 1 19.51 40.18
  L 21.05 37.51
  A 0.42 0.42 0.0 0 0 20.74 36.89
  L 17.51 36.49
  A 0.89 0.89 0.0 0 1 17.10 34.88
  Q 19.50 33.15 23.06 33.63
  A 1.55 1.52 35.6 0 0 23.88 33.50
  Q 24.42 33.24 25.01 32.53
  A 0.60 0.59 -55.0 0 0 24.86 31.63
  L 21.53 29.71
  A 0.84 0.84 0.0 0 1 21.82 28.16
  Q 25.40 27.59 28.00 29.28
  A 1.02 1.01 -43.3 0 0 29.06 29.31
  L 31.64 27.82
  A 1.09 1.07 -13.5 0 0 32.17 26.97
  Q 32.44 23.36 35.18 21.09
  A 0.77 0.77 0.0 0 1 36.43 21.78
  L 35.92 25.96
  A 0.65 0.65 0.0 0 0 36.49 26.69
  L 38.91 26.99
  A 0.70 0.68 27.6 0 0 39.42 26.84
  Q 41.64 25.01 44.26 24.80
  A 0.90 0.90 0.0 0 1 44.97 26.33
  L 42.17 29.13
  A 0.86 0.85 -33.6 0 0 41.98 30.05
  Q 43.97 35.05 39.82 38.48
  A 0.60 0.60 0.0 0 0 39.78 39.36
  L 42.52 42.10
  A 0.90 0.90 0.0 0 1 41.77 43.63
  Q 38.43 43.20 36.53 40.95
  A 0.75 0.75 0.0 0 0 35.43 40.90
  L 34.39 41.95
  A 0.79 0.77 -41.5 0 0 34.32 42.98
  Q 36.18 45.39 35.98 48.71
  A 0.91 0.91 0.0 0 1 34.24 49.04
  Q 33.34 47.14 32.08 45.96
  A 0.42 0.41 -57.6 0 0 31.41 46.12
  Q 30.56 48.34 30.68 51.08
  A 0.39 0.39 0.0 0 1 30.02 51.37
  Z
  M 34.49 36.81
  L 35.29 36.15
  A 0.48 0.47 -22.5 0 1 36.07 36.47
  Q 36.14 37.25 36.28 37.36
  A 0.35 0.35 0.0 0 0 36.85 37.10
  Q 36.89 36.02 37.39 35.82
  Q 37.87 35.63 38.00 35.91
  Q 38.25 36.47 38.35 36.47
  A 0.44 0.44 0.0 0 0 38.75 35.78
  Q 38.37 35.22 38.31 34.92
  A 0.65 0.65 0.0 0 1 39.02 34.15
  Q 39.95 34.24 40.01 34.18
  A 0.32 0.32 0.0 0 0 39.87 33.63
  Q 38.90 33.42 38.73 32.90
  A 0.75 0.74 -20.3 0 1 39.17 31.95
  Q 39.48 31.83 39.50 31.81
  A 0.36 0.36 0.0 0 0 39.23 31.19
  Q 38.65 31.22 38.22 31.41
  A 0.32 0.32 0.0 0 1 37.79 31.03
  Q 37.87 30.76 37.79 29.75
  A 0.26 0.26 0.0 0 0 37.31 29.64
  L 36.96 30.25
  A 0.56 0.56 0.0 0 1 35.94 30.15
  Q 35.87 29.92 35.81 29.57
  A 0.33 0.33 0.0 0 0 35.16 29.61
  Q 35.12 30.70 34.62 30.88
  Q 34.08 31.07 33.68 30.64
  Q 33.40 30.33 33.30 30.33
  A 0.38 0.37 74.3 0 0 32.97 30.92
  Q 33.25 31.30 33.29 31.56
  A 0.62 0.62 0.0 0 1 32.54 32.27
  Q 32.20 32.18 32.12 32.20
  A 0.42 0.42 0.0 0 0 31.94 32.95
  Q 32.10 33.07 32.71 32.99
  A 0.35 0.35 0.0 0 1 33.06 33.52
  L 32.22 34.99
  A 0.30 0.30 0.0 0 0 32.59 35.42
  L 33.18 35.18
  A 0.66 0.65 -88.1 0 1 33.98 36.04
  Q 33.89 36.29 33.86 36.41
  A 0.39 0.39 0.0 0 0 34.49 36.81
  Z"
/>
<path fill="#582359" d="
  M 33.86 36.41
  Q 33.89 36.29 33.98 36.04
  A 0.66 0.65 -88.1 0 0 33.18 35.18
  L 32.59 35.42
  A 0.30 0.30 0.0 0 1 32.22 34.99
  L 33.06 33.52
  A 0.35 0.35 0.0 0 0 32.71 32.99
  Q 32.10 33.07 31.94 32.95
  A 0.42 0.42 0.0 0 1 32.12 32.20
  Q 32.20 32.18 32.54 32.27
  A 0.62 0.62 0.0 0 0 33.29 31.56
  Q 33.25 31.30 32.97 30.92
  A 0.38 0.37 74.3 0 1 33.30 30.33
  Q 33.40 30.33 33.68 30.64
  Q 34.08 31.07 34.62 30.88
  Q 35.12 30.70 35.16 29.61
  A 0.33 0.33 0.0 0 1 35.81 29.57
  Q 35.87 29.92 35.94 30.15
  A 0.56 0.56 0.0 0 0 36.96 30.25
  L 37.31 29.64
  A 0.26 0.26 0.0 0 1 37.79 29.75
  Q 37.87 30.76 37.79 31.03
  A 0.32 0.32 0.0 0 0 38.22 31.41
  Q 38.65 31.22 39.23 31.19
  A 0.36 0.36 0.0 0 1 39.50 31.81
  Q 39.48 31.83 39.17 31.95
  A 0.75 0.74 -20.3 0 0 38.73 32.90
  Q 38.90 33.42 39.87 33.63
  A 0.32 0.32 0.0 0 1 40.01 34.18
  Q 39.95 34.24 39.02 34.15
  A 0.65 0.65 0.0 0 0 38.31 34.92
  Q 38.37 35.22 38.75 35.78
  A 0.44 0.44 0.0 0 1 38.35 36.47
  Q 38.25 36.47 38.00 35.91
  Q 37.87 35.63 37.39 35.82
  Q 36.89 36.02 36.85 37.10
  A 0.35 0.35 0.0 0 1 36.28 37.36
  Q 36.14 37.25 36.07 36.47
  A 0.48 0.47 -22.5 0 0 35.29 36.15
  L 34.49 36.81
  A 0.39 0.39 0.0 0 1 33.86 36.41
  Z"
/>
</svg>
