<?xml version="1.0" encoding="UTF-8" standalone="no"?>
<!DOCTYPE svg PUBLIC "-//W3C//DTD SVG 1.1//EN" "http://www.w3.org/Graphics/SVG/1.1/DTD/svg11.dtd">
<svg xmlns="http://www.w3.org/2000/svg" version="1.1" viewBox="0.00 0.00 66.00 88.00">
<g stroke-width="2.00" fill="none" stroke-linecap="butt">
<path stroke="#2b4c38" vector-effect="non-scaling-stroke" d="
  M 33.42 86.65
  Q 33.47 86.65 33.52 86.64
  A 0.29 0.14 -55.1 0 0 33.69 86.55
  Q 44.95 76.14 53.36 63.61
  C 63.21 48.92 70.36 28.19 56.76 13.00
  C 50.78 6.32 42.59 2.53 33.53 2.52
  C 24.46 2.51 16.27 6.28 10.27 12.94
  C -3.37 28.10 3.73 48.84 13.54 63.56
  Q 21.92 76.11 33.15 86.55
  A 0.29 0.14 55.2 0 0 33.32 86.64
  Q 33.37 86.65 33.42 86.65"
/>
<path stroke="#9cb1a5" vector-effect="non-scaling-stroke" d="
  M 23.35 28.88
  L 24.34 33.18
  A 0.95 0.94 88.5 0 0 25.09 33.90
  L 27.85 34.38
  A 1.47 1.46 -54.4 0 0 28.85 34.21
  L 32.43 32.14
  A 1.17 1.16 -44.6 0 1 33.60 32.14
  L 37.56 34.42
  A 0.53 0.51 -35.3 0 0 37.95 34.48
  L 40.83 33.82
  A 0.72 0.71 -2.0 0 0 41.37 33.25
  L 42.13 28.95
  A 0.60 0.60 0.0 0 1 43.24 28.75
  L 44.29 30.55
  A 0.28 0.27 52.7 0 0 44.73 30.61
  L 47.93 27.42
  A 1.06 1.06 0.0 0 0 48.10 26.15
  L 44.53 19.98
  A 0.66 0.64 -1.0 0 0 44.24 19.71
  Q 37.99 16.74 32.86 16.46
  A 7.19 7.09 -49.4 0 0 30.84 16.63
  L 22.09 18.64
  A 0.80 0.80 0.0 0 0 21.60 19.00
  L 17.43 26.23
  A 0.99 0.98 -52.7 0 0 17.58 27.42
  L 21.35 31.19
  A 0.47 0.46 -52.2 0 0 22.08 31.09
  Q 22.59 30.22 22.73 28.92
  A 0.31 0.31 0.0 0 1 23.35 28.88"
/>
<path stroke="#9cb1a5" vector-effect="non-scaling-stroke" d="
  M 32.83 47.66
  Q 35.60 47.67 37.99 44.91
  A 0.67 0.66 24.7 0 1 38.60 44.69
  L 39.83 44.91
  A 0.62 0.62 0.0 0 0 40.54 44.16
  Q 39.65 40.21 41.09 35.70
  A 0.38 0.37 -87.6 0 0 40.65 35.21
  L 37.69 35.89
  A 0.97 0.96 -35.0 0 1 36.93 35.76
  Q 35.61 34.90 33.20 33.43
  Q 33.15 33.40 32.91 33.40
  Q 32.67 33.40 32.62 33.43
  Q 30.19 34.87 28.86 35.72
  A 0.97 0.96 35.6 0 1 28.10 35.84
  L 25.15 35.13
  A 0.38 0.37 88.2 0 0 24.71 35.61
  Q 26.10 40.14 25.16 44.08
  A 0.62 0.62 0.0 0 0 25.86 44.83
  L 27.10 44.63
  A 0.67 0.66 -24.1 0 1 27.71 44.85
  Q 30.06 47.64 32.83 47.66"
/>
<path stroke="#9cb1a5" vector-effect="non-scaling-stroke" d="
  M 40.30 47.92
  A 0.57 0.57 0.0 0 0 40.75 46.91
  Q 39.64 46.03 38.52 46.34
  A 1.64 1.58 -74.1 0 0 37.85 46.73
  C 34.97 49.50 30.47 49.87 27.56 46.78
  Q 26.65 45.81 25.85 45.87
  A 1.14 1.12 3.6 0 0 24.81 46.77
  L 24.73 47.12
  A 0.66 0.65 2.5 0 0 25.45 47.90
  Q 26.36 47.81 28.74 49.26
  Q 33.79 52.32 38.53 48.04
  A 1.11 1.11 0.0 0 1 39.46 47.77
  L 40.30 47.92"
/>
<path stroke="#9cb1a5" vector-effect="non-scaling-stroke" d="
  M 32.77 24.14
  Q 32.83 24.14 32.89 24.13
  Q 37.06 23.42 39.07 19.96
  A 0.69 0.69 0.0 0 0 38.66 18.94
  Q 35.46 18.05 32.89 18.00
  Q 30.33 17.95 27.10 18.71
  A 0.69 0.69 0.0 0 0 26.65 19.71
  Q 28.52 23.25 32.66 24.13
  Q 32.71 24.14 32.77 24.14"
/>
</g>
<path fill="#1c3425" d="
  M 33.81 88.00
  L 33.04 88.00
  C 16.75 73.20 -6.54 43.98 4.15 20.23
  C 11.85 3.12 32.47 -3.67 48.98 5.28
  C 58.77 10.58 65.31 20.80 65.43 32.12
  Q 65.50 38.75 63.97 44.00
  C 59.03 60.93 46.74 76.21 33.81 88.00
  Z
  M 33.42 86.65
  Q 33.47 86.65 33.52 86.64
  A 0.29 0.14 -55.1 0 0 33.69 86.55
  Q 44.95 76.14 53.36 63.61
  C 63.21 48.92 70.36 28.19 56.76 13.00
  C 50.78 6.32 42.59 2.53 33.53 2.52
  C 24.46 2.51 16.27 6.28 10.27 12.94
  C -3.37 28.10 3.73 48.84 13.54 63.56
  Q 21.92 76.11 33.15 86.55
  A 0.29 0.14 55.2 0 0 33.32 86.64
  Q 33.37 86.65 33.42 86.65
  Z"
/>
<path fill="#39634a" d="
  M 33.53 2.52
  C 42.59 2.53 50.78 6.32 56.76 13.00
  C 70.36 28.19 63.21 48.92 53.36 63.61
  Q 44.95 76.14 33.69 86.55
  A 0.29 0.14 -55.1 0 1 33.52 86.64
  Q 33.47 86.65 33.42 86.65
  Q 33.37 86.65 33.32 86.64
  A 0.29 0.14 55.2 0 1 33.15 86.55
  Q 21.92 76.11 13.54 63.56
  C 3.73 48.84 -3.37 28.10 10.27 12.94
  C 16.27 6.28 24.46 2.51 33.53 2.52
  Z
  M 23.35 28.88
  L 24.34 33.18
  A 0.95 0.94 88.5 0 0 25.09 33.90
  L 27.85 34.38
  A 1.47 1.46 -54.4 0 0 28.85 34.21
  L 32.43 32.14
  A 1.17 1.16 -44.6 0 1 33.60 32.14
  L 37.56 34.42
  A 0.53 0.51 -35.3 0 0 37.95 34.48
  L 40.83 33.82
  A 0.72 0.71 -2.0 0 0 41.37 33.25
  L 42.13 28.95
  A 0.60 0.60 0.0 0 1 43.24 28.75
  L 44.29 30.55
  A 0.28 0.27 52.7 0 0 44.73 30.61
  L 47.93 27.42
  A 1.06 1.06 0.0 0 0 48.10 26.15
  L 44.53 19.98
  A 0.66 0.64 -1.0 0 0 44.24 19.71
  Q 37.99 16.74 32.86 16.46
  A 7.19 7.09 -49.4 0 0 30.84 16.63
  L 22.09 18.64
  A 0.80 0.80 0.0 0 0 21.60 19.00
  L 17.43 26.23
  A 0.99 0.98 -52.7 0 0 17.58 27.42
  L 21.35 31.19
  A 0.47 0.46 -52.2 0 0 22.08 31.09
  Q 22.59 30.22 22.73 28.92
  A 0.31 0.31 0.0 0 1 23.35 28.88
  Z
  M 32.83 47.66
  Q 35.60 47.67 37.99 44.91
  A 0.67 0.66 24.7 0 1 38.60 44.69
  L 39.83 44.91
  A 0.62 0.62 0.0 0 0 40.54 44.16
  Q 39.65 40.21 41.09 35.70
  A 0.38 0.37 -87.6 0 0 40.65 35.21
  L 37.69 35.89
  A 0.97 0.96 -35.0 0 1 36.93 35.76
  Q 35.61 34.90 33.20 33.43
  Q 33.15 33.40 32.91 33.40
  Q 32.67 33.40 32.62 33.43
  Q 30.19 34.87 28.86 35.72
  A 0.97 0.96 35.6 0 1 28.10 35.84
  L 25.15 35.13
  A 0.38 0.37 88.2 0 0 24.71 35.61
  Q 26.10 40.14 25.16 44.08
  A 0.62 0.62 0.0 0 0 25.86 44.83
  L 27.10 44.63
  A 0.67 0.66 -24.1 0 1 27.71 44.85
  Q 30.06 47.64 32.83 47.66
  Z
  M 40.30 47.92
  A 0.57 0.57 0.0 0 0 40.75 46.91
  Q 39.64 46.03 38.52 46.34
  A 1.64 1.58 -74.1 0 0 37.85 46.73
  C 34.97 49.50 30.47 49.87 27.56 46.78
  Q 26.65 45.81 25.85 45.87
  A 1.14 1.12 3.6 0 0 24.81 46.77
  L 24.73 47.12
  A 0.66 0.65 2.5 0 0 25.45 47.90
  Q 26.36 47.81 28.74 49.26
  Q 33.79 52.32 38.53 48.04
  A 1.11 1.11 0.0 0 1 39.46 47.77
  L 40.30 47.92
  Z"
/>
<path fill="#ffffff" d="
  M 23.35 28.88
  A 0.31 0.31 0.0 0 0 22.73 28.92
  Q 22.59 30.22 22.08 31.09
  A 0.47 0.46 -52.2 0 1 21.35 31.19
  L 17.58 27.42
  A 0.99 0.98 -52.7 0 1 17.43 26.23
  L 21.60 19.00
  A 0.80 0.80 0.0 0 1 22.09 18.64
  L 30.84 16.63
  A 7.19 7.09 -49.4 0 1 32.86 16.46
  Q 37.99 16.74 44.24 19.71
  A 0.66 0.64 -1.0 0 1 44.53 19.98
  L 48.10 26.15
  A 1.06 1.06 0.0 0 1 47.93 27.42
  L 44.73 30.61
  A 0.28 0.27 52.7 0 1 44.29 30.55
  L 43.24 28.75
  A 0.60 0.60 0.0 0 0 42.13 28.95
  L 41.37 33.25
  A 0.72 0.71 -2.0 0 1 40.83 33.82
  L 37.95 34.48
  A 0.53 0.51 -35.3 0 1 37.56 34.42
  L 33.60 32.14
  A 1.17 1.16 -44.6 0 0 32.43 32.14
  L 28.85 34.21
  A 1.47 1.46 -54.4 0 1 27.85 34.38
  L 25.09 33.90
  A 0.95 0.94 88.5 0 1 24.34 33.18
  L 23.35 28.88
  Z
  M 32.77 24.14
  Q 32.83 24.14 32.89 24.13
  Q 37.06 23.42 39.07 19.96
  A 0.69 0.69 0.0 0 0 38.66 18.94
  Q 35.46 18.05 32.89 18.00
  Q 30.33 17.95 27.10 18.71
  A 0.69 0.69 0.0 0 0 26.65 19.71
  Q 28.52 23.25 32.66 24.13
  Q 32.71 24.14 32.77 24.14
  Z"
/>
<path fill="#39634a" d="
  M 32.89 18.00
  Q 35.46 18.05 38.66 18.94
  A 0.69 0.69 0.0 0 1 39.07 19.96
  Q 37.06 23.42 32.89 24.13
  Q 32.83 24.14 32.77 24.14
  Q 32.71 24.14 32.66 24.13
  Q 28.52 23.25 26.65 19.71
  A 0.69 0.69 0.0 0 1 27.10 18.71
  Q 30.33 17.95 32.89 18.00
  Z"
/>
<path fill="#ffffff" d="
  M 32.91 33.40
  Q 33.15 33.40 33.20 33.43
  Q 35.61 34.90 36.93 35.76
  A 0.97 0.96 -35.0 0 0 37.69 35.89
  L 40.65 35.21
  A 0.38 0.37 -87.6 0 1 41.09 35.70
  Q 39.65 40.21 40.54 44.16
  A 0.62 0.62 0.0 0 1 39.83 44.91
  L 38.60 44.69
  A 0.67 0.66 24.7 0 0 37.99 44.91
  Q 35.60 47.67 32.83 47.66
  Q 30.06 47.64 27.71 44.85
  A 0.67 0.66 -24.1 0 0 27.10 44.63
  L 25.86 44.83
  A 0.62 0.62 0.0 0 1 25.16 44.08
  Q 26.10 40.14 24.71 35.61
  A 0.38 0.37 88.2 0 1 25.15 35.13
  L 28.10 35.84
  A 0.97 0.96 35.6 0 0 28.86 35.72
  Q 30.19 34.87 32.62 33.43
  Q 32.67 33.40 32.91 33.40
  Z"
/>
<path fill="#ffffff" d="
  M 40.30 47.92
  L 39.46 47.77
  A 1.11 1.11 0.0 0 0 38.53 48.04
  Q 33.79 52.32 28.74 49.26
  Q 26.36 47.81 25.45 47.90
  A 0.66 0.65 2.5 0 1 24.73 47.12
  L 24.81 46.77
  A 1.14 1.12 3.6 0 1 25.85 45.87
  Q 26.65 45.81 27.56 46.78
  C 30.47 49.87 34.97 49.50 37.85 46.73
  A 1.64 1.58 -74.1 0 1 38.52 46.34
  Q 39.64 46.03 40.75 46.91
  A 0.57 0.57 0.0 0 1 40.30 47.92
  Z"
/>
</svg>
