<?xml version="1.0" encoding="UTF-8" standalone="no"?>
<!DOCTYPE svg PUBLIC "-//W3C//DTD SVG 1.1//EN" "http://www.w3.org/Graphics/SVG/1.1/DTD/svg11.dtd">
<svg xmlns="http://www.w3.org/2000/svg" version="1.1" viewBox="0.00 0.00 66.00 88.00">
<g stroke-width="2.00" fill="none" stroke-linecap="butt">
<path stroke="#316b60" vector-effect="non-scaling-stroke" d="
  M 33.41 86.70
  Q 33.51 86.70 33.61 86.68
  Q 33.71 86.66 33.79 86.59
  Q 49.91 70.97 57.57 56.54
  Q 62.74 46.79 63.88 38.31
  Q 66.65 17.62 48.91 6.61
  Q 42.24 2.47 33.53 2.45
  Q 24.83 2.44 18.14 6.56
  Q 0.37 17.52 3.08 38.22
  Q 4.19 46.70 9.33 56.47
  Q 16.95 70.92 33.03 86.59
  Q 33.11 86.66 33.20 86.68
  Q 33.31 86.70 33.41 86.70"
/>
<path stroke="#a0c6bf" vector-effect="non-scaling-stroke" d="
  M 31.54 14.03
  A 0.46 0.45 -67.7 0 0 30.71 14.38
  Q 31.17 16.08 33.22 19.09
  A 0.87 0.86 42.8 0 1 33.26 20.01
  Q 32.34 21.63 30.57 25.55
  C 28.76 29.56 33.81 32.07 36.39 33.70
  C 38.46 35.02 39.47 37.45 38.12 39.56
  A 0.98 0.94 -87.9 0 1 37.78 39.89
  L 35.04 41.48
  A 0.99 0.97 -9.3 0 0 34.56 42.13
  L 34.20 43.75
  A 1.57 1.56 -71.8 0 1 32.03 44.85
  Q 28.09 43.08 29.13 38.29
  A 0.46 0.44 81.8 0 1 29.35 37.98
  L 29.93 37.64
  A 0.34 0.34 0.0 0 1 30.43 37.95
  Q 30.37 39.28 30.74 40.60
  A 0.84 0.83 82.5 0 0 31.53 41.21
  C 36.49 41.25 35.67 30.82 27.87 32.70
  A 2.68 2.60 -68.7 0 0 26.93 33.13
  Q 23.22 35.80 24.01 40.23
  C 24.33 42.06 25.98 44.08 25.23 45.92
  C 23.96 49.07 26.31 52.42 28.84 54.03
  A 0.91 0.91 0.0 0 0 29.95 53.93
  Q 32.45 51.64 35.50 51.21
  A 1.58 1.57 -87.6 0 0 36.82 49.99
  L 37.25 48.02
  A 1.58 1.56 80.1 0 1 37.94 47.03
  Q 41.67 44.66 41.44 40.06
  C 41.28 37.02 41.48 35.96 39.28 33.97
  Q 37.52 32.37 33.66 29.69
  A 2.16 2.15 -66.5 0 1 32.79 27.46
  L 34.47 19.76
  A 1.32 1.27 37.2 0 0 34.33 18.86
  L 31.54 14.03"
/>
<path stroke="#a0c6bf" vector-effect="non-scaling-stroke" d="
  M 31.64 33.99
  L 28.83 33.38
  A 0.65 0.62 33.8 0 0 28.37 33.46
  C 23.06 36.66 25.14 40.75 27.24 44.94
  A 0.87 0.87 0.0 0 1 27.14 45.86
  C 25.08 48.45 25.90 49.68 27.59 51.60
  C 29.01 53.21 31.00 52.78 31.86 50.81
  A 1.18 1.15 1.6 0 1 32.53 50.19
  Q 33.33 49.92 34.87 50.03
  A 1.22 1.22 0.0 0 0 36.17 48.72
  Q 36.00 46.50 37.68 45.48
  C 39.00 44.68 40.39 43.00 40.18 41.65
  A 0.61 0.61 0.0 0 0 39.39 41.16
  Q 36.50 42.10 35.42 44.37
  A 3.13 2.62 -65.0 0 1 31.75 46.08
  Q 27.27 44.06 27.70 39.09
  Q 28.00 35.51 31.63 34.78
  A 0.40 0.40 0.0 0 0 31.64 33.99"
/>
</g>
<path fill="#1f4940" d="
  M 33.81 88.00
  L 33.04 88.00
  C 21.94 77.91 11.93 65.51 5.64 51.57
  Q 2.23 44.01 1.60 34.89
  C 0.50 19.00 11.25 5.65 26.49 2.10
  C 40.59 -1.18 55.26 5.61 62.17 18.85
  C 67.41 28.88 65.86 41.27 61.31 51.54
  C 55.17 65.41 44.97 77.80 33.81 88.00
  Z
  M 33.41 86.70
  Q 33.51 86.70 33.61 86.68
  Q 33.71 86.66 33.79 86.59
  Q 49.91 70.97 57.57 56.54
  Q 62.74 46.79 63.88 38.31
  Q 66.65 17.62 48.91 6.61
  Q 42.24 2.47 33.53 2.45
  Q 24.83 2.44 18.14 6.56
  Q 0.37 17.52 3.08 38.22
  Q 4.19 46.70 9.33 56.47
  Q 16.95 70.92 33.03 86.59
  Q 33.11 86.66 33.20 86.68
  Q 33.31 86.70 33.41 86.70
  Z"
/>
<path fill="#428c7f" d="
  M 33.53 2.45
  Q 42.24 2.47 48.91 6.61
  Q 66.65 17.62 63.88 38.31
  Q 62.74 46.79 57.57 56.54
  Q 49.91 70.97 33.79 86.59
  Q 33.71 86.66 33.61 86.68
  Q 33.51 86.70 33.41 86.70
  Q 33.31 86.70 33.20 86.68
  Q 33.11 86.66 33.03 86.59
  Q 16.95 70.92 9.33 56.47
  Q 4.19 46.70 3.08 38.22
  Q 0.37 17.52 18.14 6.56
  Q 24.83 2.44 33.53 2.45
  Z
  M 31.54 14.03
  A 0.46 0.45 -67.7 0 0 30.71 14.38
  Q 31.17 16.08 33.22 19.09
  A 0.87 0.86 42.8 0 1 33.26 20.01
  Q 32.34 21.63 30.57 25.55
  C 28.76 29.56 33.81 32.07 36.39 33.70
  C 38.46 35.02 39.47 37.45 38.12 39.56
  A 0.98 0.94 -87.9 0 1 37.78 39.89
  L 35.04 41.48
  A 0.99 0.97 -9.3 0 0 34.56 42.13
  L 34.20 43.75
  A 1.57 1.56 -71.8 0 1 32.03 44.85
  Q 28.09 43.08 29.13 38.29
  A 0.46 0.44 81.8 0 1 29.35 37.98
  L 29.93 37.64
  A 0.34 0.34 0.0 0 1 30.43 37.95
  Q 30.37 39.28 30.74 40.60
  A 0.84 0.83 82.5 0 0 31.53 41.21
  C 36.49 41.25 35.67 30.82 27.87 32.70
  A 2.68 2.60 -68.7 0 0 26.93 33.13
  Q 23.22 35.80 24.01 40.23
  C 24.33 42.06 25.98 44.08 25.23 45.92
  C 23.96 49.07 26.31 52.42 28.84 54.03
  A 0.91 0.91 0.0 0 0 29.95 53.93
  Q 32.45 51.64 35.50 51.21
  A 1.58 1.57 -87.6 0 0 36.82 49.99
  L 37.25 48.02
  A 1.58 1.56 80.1 0 1 37.94 47.03
  Q 41.67 44.66 41.44 40.06
  C 41.28 37.02 41.48 35.96 39.28 33.97
  Q 37.52 32.37 33.66 29.69
  A 2.16 2.15 -66.5 0 1 32.79 27.46
  L 34.47 19.76
  A 1.32 1.27 37.2 0 0 34.33 18.86
  L 31.54 14.03
  Z"
/>
<path fill="#feffff" d="
  M 31.54 14.03
  L 34.33 18.86
  A 1.32 1.27 37.2 0 1 34.47 19.76
  L 32.79 27.46
  A 2.16 2.15 -66.5 0 0 33.66 29.69
  Q 37.52 32.37 39.28 33.97
  C 41.48 35.96 41.28 37.02 41.44 40.06
  Q 41.67 44.66 37.94 47.03
  A 1.58 1.56 80.1 0 0 37.25 48.02
  L 36.82 49.99
  A 1.58 1.57 -87.6 0 1 35.50 51.21
  Q 32.45 51.64 29.95 53.93
  A 0.91 0.91 0.0 0 1 28.84 54.03
  C 26.31 52.42 23.96 49.07 25.23 45.92
  C 25.98 44.08 24.33 42.06 24.01 40.23
  Q 23.22 35.80 26.93 33.13
  A 2.68 2.60 -68.7 0 1 27.87 32.70
  C 35.67 30.82 36.49 41.25 31.53 41.21
  A 0.84 0.83 82.5 0 1 30.74 40.60
  Q 30.37 39.28 30.43 37.95
  A 0.34 0.34 0.0 0 0 29.93 37.64
  L 29.35 37.98
  A 0.46 0.44 81.8 0 0 29.13 38.29
  Q 28.09 43.08 32.03 44.85
  A 1.57 1.56 -71.8 0 0 34.20 43.75
  L 34.56 42.13
  A 0.99 0.97 -9.3 0 1 35.04 41.48
  L 37.78 39.89
  A 0.98 0.94 -87.9 0 0 38.12 39.56
  C 39.47 37.45 38.46 35.02 36.39 33.70
  C 33.81 32.07 28.76 29.56 30.57 25.55
  Q 32.34 21.63 33.26 20.01
  A 0.87 0.86 42.8 0 0 33.22 19.09
  Q 31.17 16.08 30.71 14.38
  A 0.46 0.45 -67.7 0 1 31.54 14.03
  Z
  M 31.64 33.99
  L 28.83 33.38
  A 0.65 0.62 33.8 0 0 28.37 33.46
  C 23.06 36.66 25.14 40.75 27.24 44.94
  A 0.87 0.87 0.0 0 1 27.14 45.86
  C 25.08 48.45 25.90 49.68 27.59 51.60
  C 29.01 53.21 31.00 52.78 31.86 50.81
  A 1.18 1.15 1.6 0 1 32.53 50.19
  Q 33.33 49.92 34.87 50.03
  A 1.22 1.22 0.0 0 0 36.17 48.72
  Q 36.00 46.50 37.68 45.48
  C 39.00 44.68 40.39 43.00 40.18 41.65
  A 0.61 0.61 0.0 0 0 39.39 41.16
  Q 36.50 42.10 35.42 44.37
  A 3.13 2.62 -65.0 0 1 31.75 46.08
  Q 27.27 44.06 27.70 39.09
  Q 28.00 35.51 31.63 34.78
  A 0.40 0.40 0.0 0 0 31.64 33.99
  Z"
/>
<path fill="#428c7f" d="
  M 31.63 34.78
  Q 28.00 35.51 27.70 39.09
  Q 27.27 44.06 31.75 46.08
  A 3.13 2.62 -65.0 0 0 35.42 44.37
  Q 36.50 42.10 39.39 41.16
  A 0.61 0.61 0.0 0 1 40.18 41.65
  C 40.39 43.00 39.00 44.68 37.68 45.48
  Q 36.00 46.50 36.17 48.72
  A 1.22 1.22 0.0 0 1 34.87 50.03
  Q 33.33 49.92 32.53 50.19
  A 1.18 1.15 1.6 0 0 31.86 50.81
  C 31.00 52.78 29.01 53.21 27.59 51.60
  C 25.90 49.68 25.08 48.45 27.14 45.86
  A 0.87 0.87 0.0 0 0 27.24 44.94
  C 25.14 40.75 23.06 36.66 28.37 33.46
  A 0.65 0.62 33.8 0 1 28.83 33.38
  L 31.64 33.99
  A 0.40 0.40 0.0 0 1 31.63 34.78
  Z"
/>
</svg>
