<?xml version="1.0" encoding="UTF-8" standalone="no"?>
<!DOCTYPE svg PUBLIC "-//W3C//DTD SVG 1.1//EN" "http://www.w3.org/Graphics/SVG/1.1/DTD/svg11.dtd">
<svg xmlns="http://www.w3.org/2000/svg" version="1.1" viewBox="0.00 0.00 66.00 88.00">
<g stroke-width="2.00" fill="none" stroke-linecap="butt">
<path stroke="#2b4c38" vector-effect="non-scaling-stroke" d="
  M 33.42 86.64
  Q 33.48 86.64 33.52 86.64
  A 0.29 0.12 -50.0 0 0 33.69 86.55
  Q 44.83 76.25 53.26 63.76
  C 58.90 55.39 63.44 45.61 64.18 35.41
  C 65.49 17.39 51.54 2.56 33.54 2.53
  C 15.54 2.51 1.54 17.30 2.80 35.32
  C 3.51 45.52 8.02 55.32 13.64 63.70
  Q 22.03 76.22 33.14 86.55
  A 0.29 0.12 50.2 0 0 33.31 86.64
  Q 33.36 86.64 33.42 86.64"
/>
<path stroke="#9cb1a5" vector-effect="non-scaling-stroke" d="
  M 38.52 21.30
  Q 39.03 21.29 39.13 21.27
  A 0.49 0.49 0.0 0 0 39.53 20.68
  Q 38.76 17.31 38.53 17.31
  Q 38.21 17.32 37.53 20.71
  A 0.49 0.49 0.0 0 0 37.95 21.29
  Q 38.06 21.30 38.52 21.30"
/>
<path stroke="#9cb1a5" vector-effect="non-scaling-stroke" d="
  M 34.60 32.40
  Q 36.92 34.73 40.56 33.70
  A 1.12 1.12 0.0 0 1 41.45 33.81
  L 46.46 36.70
  A 0.19 0.18 89.6 0 0 46.71 36.44
  L 43.82 31.43
  A 1.35 1.33 -51.7 0 1 43.70 30.35
  Q 44.20 28.73 43.72 26.81
  A 1.81 1.80 53.2 0 1 43.91 25.43
  Q 46.90 20.40 46.77 20.28
  Q 46.64 20.15 41.60 23.11
  A 1.81 1.80 37.0 0 1 40.22 23.30
  Q 38.31 22.81 36.68 23.31
  A 1.35 1.33 -38.1 0 1 35.60 23.18
  L 30.61 20.28
  A 0.19 0.18 0.6 0 0 30.34 20.52
  L 33.22 25.54
  A 1.12 1.12 0.0 0 1 33.33 26.43
  Q 32.27 30.07 34.60 32.40"
/>
<path stroke="#9cb1a5" vector-effect="non-scaling-stroke" d="
  M 31.45 28.53
  Q 31.45 28.00 31.43 27.89
  A 0.50 0.50 0.0 0 0 30.83 27.48
  Q 27.37 28.23 27.37 28.47
  Q 27.37 28.79 30.84 29.52
  A 0.50 0.50 0.0 0 0 31.44 29.10
  Q 31.45 28.99 31.45 28.53"
/>
<path stroke="#9cb1a5" vector-effect="non-scaling-stroke" d="
  M 45.64 28.47
  Q 45.63 28.99 45.65 29.10
  A 0.50 0.50 0.0 0 0 46.25 29.52
  Q 49.71 28.80 49.71 28.56
  Q 49.71 28.24 46.26 27.48
  A 0.50 0.50 0.0 0 0 45.65 27.90
  Q 45.64 28.01 45.64 28.47"
/>
<path stroke="#9cb1a5" vector-effect="non-scaling-stroke" d="
  M 17.79 49.25
  Q 19.26 50.72 19.65 51.02
  A 0.66 0.65 -48.5 0 0 20.51 50.96
  L 27.42 44.05
  A 0.91 0.91 0.0 0 0 27.56 42.94
  L 27.36 42.61
  A 0.67 0.67 0.0 0 1 27.46 41.79
  L 34.27 34.98
  A 0.58 0.58 0.0 0 0 34.24 34.13
  Q 33.85 33.80 33.53 33.47
  Q 33.20 33.15 32.86 32.76
  A 0.58 0.58 0.0 0 0 32.02 32.73
  L 25.23 39.56
  A 0.67 0.67 0.0 0 1 24.41 39.67
  L 24.08 39.47
  A 0.91 0.91 0.0 0 0 22.97 39.61
  L 16.08 46.54
  A 0.66 0.65 -41.7 0 0 16.03 47.41
  Q 16.33 47.79 17.79 49.25"
/>
<path stroke="#9cb1a5" vector-effect="non-scaling-stroke" d="
  M 38.49 35.49
  Q 38.00 35.49 37.89 35.51
  A 0.52 0.52 0.0 0 0 37.45 36.13
  Q 38.24 39.74 38.57 39.74
  Q 38.82 39.74 39.58 36.13
  A 0.52 0.52 0.0 0 0 39.14 35.50
  Q 39.03 35.49 38.49 35.49"
/>
</g>
<path fill="#1c3425" d="
  M 33.78 88.00
  L 33.04 88.00
  C 21.71 77.71 12.20 65.75 5.68 51.55
  Q 2.11 43.79 1.58 34.90
  C 0.43 15.70 16.04 0.45 35.43 1.39
  C 49.95 2.08 61.46 12.45 64.77 26.14
  C 67.31 36.62 63.41 48.85 57.55 58.84
  Q 47.97 75.16 33.78 88.00
  Z
  M 33.42 86.64
  Q 33.48 86.64 33.52 86.64
  A 0.29 0.12 -50.0 0 0 33.69 86.55
  Q 44.83 76.25 53.26 63.76
  C 58.90 55.39 63.44 45.61 64.18 35.41
  C 65.49 17.39 51.54 2.56 33.54 2.53
  C 15.54 2.51 1.54 17.30 2.80 35.32
  C 3.51 45.52 8.02 55.32 13.64 63.70
  Q 22.03 76.22 33.14 86.55
  A 0.29 0.12 50.2 0 0 33.31 86.64
  Q 33.36 86.64 33.42 86.64
  Z"
/>
<path fill="#39634a" d="
  M 33.54 2.53
  C 51.54 2.56 65.49 17.39 64.18 35.41
  C 63.44 45.61 58.90 55.39 53.26 63.76
  Q 44.83 76.25 33.69 86.55
  A 0.29 0.12 -50.0 0 1 33.52 86.64
  Q 33.48 86.64 33.42 86.64
  Q 33.36 86.64 33.31 86.64
  A 0.29 0.12 50.2 0 1 33.14 86.55
  Q 22.03 76.22 13.64 63.70
  C 8.02 55.32 3.51 45.52 2.80 35.32
  C 1.54 17.30 15.54 2.51 33.54 2.53
  Z
  M 38.52 21.30
  Q 39.03 21.29 39.13 21.27
  A 0.49 0.49 0.0 0 0 39.53 20.68
  Q 38.76 17.31 38.53 17.31
  Q 38.21 17.32 37.53 20.71
  A 0.49 0.49 0.0 0 0 37.95 21.29
  Q 38.06 21.30 38.52 21.30
  Z
  M 34.60 32.40
  Q 36.92 34.73 40.56 33.70
  A 1.12 1.12 0.0 0 1 41.45 33.81
  L 46.46 36.70
  A 0.19 0.18 89.6 0 0 46.71 36.44
  L 43.82 31.43
  A 1.35 1.33 -51.7 0 1 43.70 30.35
  Q 44.20 28.73 43.72 26.81
  A 1.81 1.80 53.2 0 1 43.91 25.43
  Q 46.90 20.40 46.77 20.28
  Q 46.64 20.15 41.60 23.11
  A 1.81 1.80 37.0 0 1 40.22 23.30
  Q 38.31 22.81 36.68 23.31
  A 1.35 1.33 -38.1 0 1 35.60 23.18
  L 30.61 20.28
  A 0.19 0.18 0.6 0 0 30.34 20.52
  L 33.22 25.54
  A 1.12 1.12 0.0 0 1 33.33 26.43
  Q 32.27 30.07 34.60 32.40
  Z
  M 31.45 28.53
  Q 31.45 28.00 31.43 27.89
  A 0.50 0.50 0.0 0 0 30.83 27.48
  Q 27.37 28.23 27.37 28.47
  Q 27.37 28.79 30.84 29.52
  A 0.50 0.50 0.0 0 0 31.44 29.10
  Q 31.45 28.99 31.45 28.53
  Z
  M 45.64 28.47
  Q 45.63 28.99 45.65 29.10
  A 0.50 0.50 0.0 0 0 46.25 29.52
  Q 49.71 28.80 49.71 28.56
  Q 49.71 28.24 46.26 27.48
  A 0.50 0.50 0.0 0 0 45.65 27.90
  Q 45.64 28.01 45.64 28.47
  Z
  M 17.79 49.25
  Q 19.26 50.72 19.65 51.02
  A 0.66 0.65 -48.5 0 0 20.51 50.96
  L 27.42 44.05
  A 0.91 0.91 0.0 0 0 27.56 42.94
  L 27.36 42.61
  A 0.67 0.67 0.0 0 1 27.46 41.79
  L 34.27 34.98
  A 0.58 0.58 0.0 0 0 34.24 34.13
  Q 33.85 33.80 33.53 33.47
  Q 33.20 33.15 32.86 32.76
  A 0.58 0.58 0.0 0 0 32.02 32.73
  L 25.23 39.56
  A 0.67 0.67 0.0 0 1 24.41 39.67
  L 24.08 39.47
  A 0.91 0.91 0.0 0 0 22.97 39.61
  L 16.08 46.54
  A 0.66 0.65 -41.7 0 0 16.03 47.41
  Q 16.33 47.79 17.79 49.25
  Z
  M 38.49 35.49
  Q 38.00 35.49 37.89 35.51
  A 0.52 0.52 0.0 0 0 37.45 36.13
  Q 38.24 39.74 38.57 39.74
  Q 38.82 39.74 39.58 36.13
  A 0.52 0.52 0.0 0 0 39.14 35.50
  Q 39.03 35.49 38.49 35.49
  Z"
/>
<path fill="#ffffff" d="
  M 38.52 21.30
  Q 38.06 21.30 37.95 21.29
  A 0.49 0.49 0.0 0 1 37.53 20.71
  Q 38.21 17.32 38.53 17.31
  Q 38.76 17.31 39.53 20.68
  A 0.49 0.49 0.0 0 1 39.13 21.27
  Q 39.03 21.29 38.52 21.30
  Z"
/>
<path fill="#ffffff" d="
  M 46.77 20.28
  Q 46.90 20.40 43.91 25.43
  A 1.81 1.80 53.2 0 0 43.72 26.81
  Q 44.20 28.73 43.70 30.35
  A 1.35 1.33 -51.7 0 0 43.82 31.43
  L 46.71 36.44
  A 0.19 0.18 89.6 0 1 46.46 36.70
  L 41.45 33.81
  A 1.12 1.12 0.0 0 0 40.56 33.70
  Q 36.92 34.73 34.60 32.40
  Q 32.27 30.07 33.33 26.43
  A 1.12 1.12 0.0 0 0 33.22 25.54
  L 30.34 20.52
  A 0.19 0.18 0.6 0 1 30.61 20.28
  L 35.60 23.18
  A 1.35 1.33 -38.1 0 0 36.68 23.31
  Q 38.31 22.81 40.22 23.30
  A 1.81 1.80 37.0 0 0 41.60 23.11
  Q 46.64 20.15 46.77 20.28
  Z"
/>
<path fill="#ffffff" d="
  M 31.45 28.53
  Q 31.45 28.99 31.44 29.10
  A 0.50 0.50 0.0 0 1 30.84 29.52
  Q 27.37 28.79 27.37 28.47
  Q 27.37 28.23 30.83 27.48
  A 0.50 0.50 0.0 0 1 31.43 27.89
  Q 31.45 28.00 31.45 28.53
  Z"
/>
<path fill="#ffffff" d="
  M 49.71 28.56
  Q 49.71 28.80 46.25 29.52
  A 0.50 0.50 0.0 0 1 45.65 29.10
  Q 45.63 28.99 45.64 28.47
  Q 45.64 28.01 45.65 27.90
  A 0.50 0.50 0.0 0 1 46.26 27.48
  Q 49.71 28.24 49.71 28.56
  Z"
/>
<path fill="#ffffff" d="
  M 33.53 33.47
  Q 33.85 33.80 34.24 34.13
  A 0.58 0.58 0.0 0 1 34.27 34.98
  L 27.46 41.79
  A 0.67 0.67 0.0 0 0 27.36 42.61
  L 27.56 42.94
  A 0.91 0.91 0.0 0 1 27.42 44.05
  L 20.51 50.96
  A 0.66 0.65 -48.5 0 1 19.65 51.02
  Q 19.26 50.72 17.79 49.25
  Q 16.33 47.79 16.03 47.41
  A 0.66 0.65 -41.7 0 1 16.08 46.54
  L 22.97 39.61
  A 0.91 0.91 0.0 0 1 24.08 39.47
  L 24.41 39.67
  A 0.67 0.67 0.0 0 0 25.23 39.56
  L 32.02 32.73
  A 0.58 0.58 0.0 0 1 32.86 32.76
  Q 33.20 33.15 33.53 33.47
  Z"
/>
<path fill="#ffffff" d="
  M 38.49 35.49
  Q 39.03 35.49 39.14 35.50
  A 0.52 0.52 0.0 0 1 39.58 36.13
  Q 38.82 39.74 38.57 39.74
  Q 38.24 39.74 37.45 36.13
  A 0.52 0.52 0.0 0 1 37.89 35.51
  Q 38.00 35.49 38.49 35.49
  Z"
/>
</svg>
