<?xml version="1.0" encoding="UTF-8" standalone="no"?>
<!DOCTYPE svg PUBLIC "-//W3C//DTD SVG 1.1//EN" "http://www.w3.org/Graphics/SVG/1.1/DTD/svg11.dtd">
<svg xmlns="http://www.w3.org/2000/svg" version="1.1" viewBox="0.00 0.00 66.00 88.00">
<g stroke-width="2.00" fill="none" stroke-linecap="butt">
<path stroke="#431a44" vector-effect="non-scaling-stroke" d="
  M 33.43 86.53
  Q 33.72 86.53 33.89 86.37
  C 46.77 74.35 59.52 58.26 63.41 40.96
  C 67.85 21.24 54.70 3.62 34.50 2.50
  Q 33.99 2.48 33.48 2.48
  Q 32.97 2.47 32.46 2.50
  C 12.26 3.59 -0.91 21.19 3.50 40.92
  C 7.37 58.23 20.10 74.33 32.96 86.37
  Q 33.13 86.53 33.43 86.53"
/>
<path stroke="#ac91ac" vector-effect="non-scaling-stroke" d="
  M 26.88 24.72
  C 28.21 25.26 28.80 25.74 29.22 27.41
  Q 30.37 31.97 35.31 30.58
  A 0.76 0.76 0.0 0 0 35.86 29.85
  Q 35.81 26.23 31.99 24.48
  A 1.36 1.34 -44.4 0 0 30.86 24.48
  Q 28.62 25.49 27.00 23.77
  A 1.11 1.08 24.0 0 1 26.70 23.02
  L 26.70 18.90
  A 0.35 0.34 90.0 0 0 26.36 18.55
  L 26.10 18.55
  A 0.68 0.68 0.0 0 0 25.42 19.21
  L 25.18 28.45
  A 0.89 0.85 69.3 0 1 24.93 29.04
  L 22.07 31.90
  A 1.61 1.59 24.6 0 1 20.81 32.36
  C 16.55 32.01 15.81 34.83 14.83 38.66
  A 0.47 0.47 0.0 0 0 15.29 39.25
  L 17.92 39.25
  A 1.09 1.09 0.0 0 0 18.69 38.93
  L 21.67 35.95
  A 0.89 0.89 0.0 0 0 21.93 35.32
  L 21.93 33.57
  A 1.06 1.05 68.2 0 1 22.25 32.81
  L 24.64 30.41
  A 0.27 0.27 0.0 0 1 25.10 30.60
  L 25.10 40.16
  A 1.10 1.09 -19.3 0 1 24.68 41.02
  Q 22.09 43.04 22.61 45.79
  Q 22.70 46.24 24.41 49.04
  A 0.54 0.54 0.0 0 0 25.22 49.17
  Q 28.20 46.57 28.09 42.89
  A 1.48 1.43 -69.3 0 0 27.67 41.91
  L 26.51 40.75
  A 0.62 0.60 23.0 0 1 26.33 40.32
  L 26.33 25.09
  A 0.40 0.40 0.0 0 1 26.88 24.72"
/>
<path stroke="#ac91ac" vector-effect="non-scaling-stroke" d="
  M 41.08 24.81
  C 42.50 25.70 42.74 25.62 43.24 27.49
  Q 44.44 32.05 49.42 30.53
  A 0.69 0.68 79.5 0 0 49.90 29.82
  Q 49.66 26.23 45.94 24.46
  A 1.16 1.16 0.0 0 0 44.92 24.46
  Q 42.72 25.51 41.01 23.80
  A 1.06 1.05 -68.2 0 1 40.69 23.04
  L 40.69 19.01
  A 0.42 0.41 90.0 0 0 40.28 18.59
  L 39.92 18.59
  A 0.51 0.51 0.0 0 0 39.41 19.09
  L 39.16 28.40
  A 0.96 0.95 -21.9 0 1 38.88 29.05
  L 35.97 31.96
  A 1.31 1.30 -65.4 0 1 34.93 32.35
  C 30.36 32.03 29.71 35.11 28.82 38.64
  A 0.49 0.49 0.0 0 0 29.29 39.25
  L 31.87 39.25
  A 1.19 1.16 22.0 0 0 32.70 38.91
  L 35.66 35.95
  A 0.89 0.89 0.0 0 0 35.92 35.32
  L 35.92 33.59
  A 1.13 1.11 -22.9 0 1 36.25 32.80
  L 38.64 30.41
  A 0.26 0.26 0.0 0 1 39.08 30.60
  L 39.08 40.15
  A 1.17 1.15 74.0 0 1 38.55 41.13
  Q 36.39 42.52 36.53 45.57
  Q 36.56 46.02 38.45 49.09
  A 0.49 0.49 0.0 0 0 39.19 49.20
  Q 40.45 48.12 41.33 46.44
  Q 43.14 42.98 40.81 41.04
  A 1.44 1.43 -70.0 0 1 40.30 39.94
  L 40.30 34.64
  A 0.43 0.43 0.0 0 1 41.04 34.33
  L 44.16 37.46
  A 0.51 0.47 -69.2 0 1 44.30 37.81
  L 44.30 39.32
  A 1.04 1.00 20.6 0 0 44.67 40.10
  L 47.52 42.47
  A 1.28 1.26 -24.8 0 0 48.33 42.76
  L 50.54 42.76
  A 0.58 0.57 89.0 0 0 51.11 42.16
  Q 50.94 37.96 48.03 36.18
  A 0.94 0.85 -28.5 0 0 47.49 36.05
  L 44.95 36.21
  A 1.19 1.18 62.5 0 1 44.13 35.95
  L 40.80 33.29
  A 1.08 1.06 -70.6 0 1 40.41 32.46
  L 40.41 25.19
  A 0.44 0.44 0.0 0 1 41.08 24.81"
/>
</g>
<path fill="#2e112e" d="
  M 33.80 88.00
  L 33.04 88.00
  C 16.72 73.16 -6.74 43.71 4.28 19.97
  C 9.44 8.86 19.73 2.18 31.75 1.35
  C 40.22 0.77 49.72 4.17 55.92 10.38
  C 80.43 34.93 52.62 70.87 33.80 88.00
  Z
  M 33.43 86.53
  Q 33.72 86.53 33.89 86.37
  C 46.77 74.35 59.52 58.26 63.41 40.96
  C 67.85 21.24 54.70 3.62 34.50 2.50
  Q 33.99 2.48 33.48 2.48
  Q 32.97 2.47 32.46 2.50
  C 12.26 3.59 -0.91 21.19 3.50 40.92
  C 7.37 58.23 20.10 74.33 32.96 86.37
  Q 33.13 86.53 33.43 86.53
  Z"
/>
<path fill="#582359" d="
  M 33.48 2.48
  Q 33.99 2.48 34.50 2.50
  C 54.70 3.62 67.85 21.24 63.41 40.96
  C 59.52 58.26 46.77 74.35 33.89 86.37
  Q 33.72 86.53 33.43 86.53
  Q 33.13 86.53 32.96 86.37
  C 20.10 74.33 7.37 58.23 3.50 40.92
  C -0.91 21.19 12.26 3.59 32.46 2.50
  Q 32.97 2.47 33.48 2.48
  Z
  M 26.88 24.72
  C 28.21 25.26 28.80 25.74 29.22 27.41
  Q 30.37 31.97 35.31 30.58
  A 0.76 0.76 0.0 0 0 35.86 29.85
  Q 35.81 26.23 31.99 24.48
  A 1.36 1.34 -44.4 0 0 30.86 24.48
  Q 28.62 25.49 27.00 23.77
  A 1.11 1.08 24.0 0 1 26.70 23.02
  L 26.70 18.90
  A 0.35 0.34 90.0 0 0 26.36 18.55
  L 26.10 18.55
  A 0.68 0.68 0.0 0 0 25.42 19.21
  L 25.18 28.45
  A 0.89 0.85 69.3 0 1 24.93 29.04
  L 22.07 31.90
  A 1.61 1.59 24.6 0 1 20.81 32.36
  C 16.55 32.01 15.81 34.83 14.83 38.66
  A 0.47 0.47 0.0 0 0 15.29 39.25
  L 17.92 39.25
  A 1.09 1.09 0.0 0 0 18.69 38.93
  L 21.67 35.95
  A 0.89 0.89 0.0 0 0 21.93 35.32
  L 21.93 33.57
  A 1.06 1.05 68.2 0 1 22.25 32.81
  L 24.64 30.41
  A 0.27 0.27 0.0 0 1 25.10 30.60
  L 25.10 40.16
  A 1.10 1.09 -19.3 0 1 24.68 41.02
  Q 22.09 43.04 22.61 45.79
  Q 22.70 46.24 24.41 49.04
  A 0.54 0.54 0.0 0 0 25.22 49.17
  Q 28.20 46.57 28.09 42.89
  A 1.48 1.43 -69.3 0 0 27.67 41.91
  L 26.51 40.75
  A 0.62 0.60 23.0 0 1 26.33 40.32
  L 26.33 25.09
  A 0.40 0.40 0.0 0 1 26.88 24.72
  Z
  M 41.08 24.81
  C 42.50 25.70 42.74 25.62 43.24 27.49
  Q 44.44 32.05 49.42 30.53
  A 0.69 0.68 79.5 0 0 49.90 29.82
  Q 49.66 26.23 45.94 24.46
  A 1.16 1.16 0.0 0 0 44.92 24.46
  Q 42.72 25.51 41.01 23.80
  A 1.06 1.05 -68.2 0 1 40.69 23.04
  L 40.69 19.01
  A 0.42 0.41 90.0 0 0 40.28 18.59
  L 39.92 18.59
  A 0.51 0.51 0.0 0 0 39.41 19.09
  L 39.16 28.40
  A 0.96 0.95 -21.9 0 1 38.88 29.05
  L 35.97 31.96
  A 1.31 1.30 -65.4 0 1 34.93 32.35
  C 30.36 32.03 29.71 35.11 28.82 38.64
  A 0.49 0.49 0.0 0 0 29.29 39.25
  L 31.87 39.25
  A 1.19 1.16 22.0 0 0 32.70 38.91
  L 35.66 35.95
  A 0.89 0.89 0.0 0 0 35.92 35.32
  L 35.92 33.59
  A 1.13 1.11 -22.9 0 1 36.25 32.80
  L 38.64 30.41
  A 0.26 0.26 0.0 0 1 39.08 30.60
  L 39.08 40.15
  A 1.17 1.15 74.0 0 1 38.55 41.13
  Q 36.39 42.52 36.53 45.57
  Q 36.56 46.02 38.45 49.09
  A 0.49 0.49 0.0 0 0 39.19 49.20
  Q 40.45 48.12 41.33 46.44
  Q 43.14 42.98 40.81 41.04
  A 1.44 1.43 -70.0 0 1 40.30 39.94
  L 40.30 34.64
  A 0.43 0.43 0.0 0 1 41.04 34.33
  L 44.16 37.46
  A 0.51 0.47 -69.2 0 1 44.30 37.81
  L 44.30 39.32
  A 1.04 1.00 20.6 0 0 44.67 40.10
  L 47.52 42.47
  A 1.28 1.26 -24.8 0 0 48.33 42.76
  L 50.54 42.76
  A 0.58 0.57 89.0 0 0 51.11 42.16
  Q 50.94 37.96 48.03 36.18
  A 0.94 0.85 -28.5 0 0 47.49 36.05
  L 44.95 36.21
  A 1.19 1.18 62.5 0 1 44.13 35.95
  L 40.80 33.29
  A 1.08 1.06 -70.6 0 1 40.41 32.46
  L 40.41 25.19
  A 0.44 0.44 0.0 0 1 41.08 24.81
  Z"
/>
<path fill="#ffffff" d="
  M 26.88 24.72
  A 0.40 0.40 0.0 0 0 26.33 25.09
  L 26.33 40.32
  A 0.62 0.60 23.0 0 0 26.51 40.75
  L 27.67 41.91
  A 1.48 1.43 -69.3 0 1 28.09 42.89
  Q 28.20 46.57 25.22 49.17
  A 0.54 0.54 0.0 0 1 24.41 49.04
  Q 22.70 46.24 22.61 45.79
  Q 22.09 43.04 24.68 41.02
  A 1.10 1.09 -19.3 0 0 25.10 40.16
  L 25.10 30.60
  A 0.27 0.27 0.0 0 0 24.64 30.41
  L 22.25 32.81
  A 1.06 1.05 68.2 0 0 21.93 33.57
  L 21.93 35.32
  A 0.89 0.89 0.0 0 1 21.67 35.95
  L 18.69 38.93
  A 1.09 1.09 0.0 0 1 17.92 39.25
  L 15.29 39.25
  A 0.47 0.47 0.0 0 1 14.83 38.66
  C 15.81 34.83 16.55 32.01 20.81 32.36
  A 1.61 1.59 24.6 0 0 22.07 31.90
  L 24.93 29.04
  A 0.89 0.85 69.3 0 0 25.18 28.45
  L 25.42 19.21
  A 0.68 0.68 0.0 0 1 26.10 18.55
  L 26.36 18.55
  A 0.35 0.34 -90.0 0 1 26.70 18.90
  L 26.70 23.02
  A 1.11 1.08 24.0 0 0 27.00 23.77
  Q 28.62 25.49 30.86 24.48
  A 1.36 1.34 -44.4 0 1 31.99 24.48
  Q 35.81 26.23 35.86 29.85
  A 0.76 0.76 0.0 0 1 35.31 30.58
  Q 30.37 31.97 29.22 27.41
  C 28.80 25.74 28.21 25.26 26.88 24.72
  Z"
/>
<path fill="#ffffff" d="
  M 40.41 25.19
  L 40.41 32.46
  A 1.08 1.06 -70.6 0 0 40.80 33.29
  L 44.13 35.95
  A 1.19 1.18 62.5 0 0 44.95 36.21
  L 47.49 36.05
  A 0.94 0.85 -28.5 0 1 48.03 36.18
  Q 50.94 37.96 51.11 42.16
  A 0.58 0.57 89.0 0 1 50.54 42.76
  L 48.33 42.76
  A 1.28 1.26 -24.8 0 1 47.52 42.47
  L 44.67 40.10
  A 1.04 1.00 20.6 0 1 44.30 39.32
  L 44.30 37.81
  A 0.51 0.47 -69.2 0 0 44.16 37.46
  L 41.04 34.33
  A 0.43 0.43 0.0 0 0 40.30 34.64
  L 40.30 39.94
  A 1.44 1.43 -70.0 0 0 40.81 41.04
  Q 43.14 42.98 41.33 46.44
  Q 40.45 48.12 39.19 49.20
  A 0.49 0.49 0.0 0 1 38.45 49.09
  Q 36.56 46.02 36.53 45.57
  Q 36.39 42.52 38.55 41.13
  A 1.17 1.15 74.0 0 0 39.08 40.15
  L 39.08 30.60
  A 0.26 0.26 0.0 0 0 38.64 30.41
  L 36.25 32.80
  A 1.13 1.11 -22.9 0 0 35.92 33.59
  L 35.92 35.32
  A 0.89 0.89 0.0 0 1 35.66 35.95
  L 32.70 38.91
  A 1.19 1.16 22.0 0 1 31.87 39.25
  L 29.29 39.25
  A 0.49 0.49 0.0 0 1 28.82 38.64
  C 29.71 35.11 30.36 32.03 34.93 32.35
  A 1.31 1.30 -65.4 0 0 35.97 31.96
  L 38.88 29.05
  A 0.96 0.95 -21.9 0 0 39.16 28.40
  L 39.41 19.09
  A 0.51 0.51 0.0 0 1 39.92 18.59
  L 40.28 18.59
  A 0.42 0.41 90.0 0 1 40.69 19.01
  L 40.69 23.04
  A 1.06 1.05 -68.2 0 0 41.01 23.80
  Q 42.72 25.51 44.92 24.46
  A 1.16 1.16 0.0 0 1 45.94 24.46
  Q 49.66 26.23 49.90 29.82
  A 0.69 0.68 79.5 0 1 49.42 30.53
  Q 44.44 32.05 43.24 27.49
  C 42.74 25.62 42.50 25.70 41.08 24.81
  A 0.44 0.44 0.0 0 0 40.41 25.19
  Z"
/>
</svg>
