<?xml version="1.0" encoding="UTF-8" standalone="no"?>
<!DOCTYPE svg PUBLIC "-//W3C//DTD SVG 1.1//EN" "http://www.w3.org/Graphics/SVG/1.1/DTD/svg11.dtd">
<svg xmlns="http://www.w3.org/2000/svg" version="1.1" viewBox="0.00 0.00 66.00 88.00">
<g stroke-width="2.00" fill="none" stroke-linecap="butt">
<path stroke="#282a22" vector-effect="non-scaling-stroke" d="
  M 33.38 86.56
  Q 33.60 86.56 33.83 86.35
  C 47.61 73.47 62.90 54.62 64.12 35.14
  Q 64.66 26.60 61.48 20.20
  C 56.08 9.32 45.72 2.66 33.53 2.64
  C 21.33 2.62 10.95 9.24 5.51 20.10
  Q 2.31 26.49 2.82 35.04
  C 3.98 54.52 19.20 73.42 32.94 86.34
  Q 33.17 86.56 33.38 86.56"
/>
<path stroke="#9a9b96" vector-effect="non-scaling-stroke" d="
  M 32.99 31.00
  Q 40.38 31.00 40.97 31.02
  A 0.40 0.40 0.0 0 1 41.35 31.39
  L 42.49 46.58
  A 0.57 0.57 0.0 0 0 43.10 47.10
  L 45.91 46.88
  A 0.40 0.39 -4.3 0 0 46.28 46.46
  L 45.17 31.70
  A 0.50 0.50 0.0 0 1 45.63 31.16
  L 49.47 30.87
  A 0.63 0.62 -4.6 0 0 50.05 30.20
  L 49.95 28.87
  A 0.59 0.58 85.1 0 0 49.32 28.33
  L 45.28 28.63
  A 0.36 0.36 0.0 0 1 44.89 28.30
  L 44.65 25.15
  A 0.20 0.19 87.1 0 1 44.83 24.94
  L 49.87 24.56
  A 0.22 0.21 -84.1 0 0 50.06 24.40
  L 51.19 20.66
  A 0.16 0.16 0.0 0 0 51.02 20.45
  Q 44.07 21.06 33.25 21.25
  Q 33.12 21.25 32.99 21.25
  Q 32.87 21.25 32.74 21.25
  Q 21.92 21.06 14.97 20.46
  A 0.16 0.16 0.0 0 0 14.80 20.67
  L 15.93 24.41
  A 0.22 0.21 84.1 0 0 16.12 24.57
  L 21.16 24.94
  A 0.20 0.19 -87.1 0 1 21.34 25.15
  L 21.10 28.30
  A 0.36 0.36 0.0 0 1 20.71 28.63
  L 16.67 28.34
  A 0.59 0.58 -85.1 0 0 16.04 28.88
  L 15.94 30.21
  A 0.63 0.62 4.6 0 0 16.52 30.88
  L 20.36 31.16
  A 0.50 0.50 0.0 0 1 20.82 31.70
  L 19.71 46.46
  A 0.40 0.39 4.3 0 0 20.08 46.88
  L 22.89 47.10
  A 0.57 0.57 0.0 0 0 23.50 46.58
  L 24.64 31.39
  A 0.40 0.40 0.0 0 1 25.02 31.03
  Q 25.61 31.00 32.99 31.00"
/>
<path stroke="#9a9b96" vector-effect="non-scaling-stroke" d="
  M 31.7380 25.1077
  A 0.33 0.33 0.0 0 0 31.4097 24.7759
  L 25.3298 24.7441
  A 0.33 0.33 0.0 0 0 24.9981 25.0724
  L 24.9820 28.1323
  A 0.33 0.33 0.0 0 0 25.3103 28.4641
  L 31.3902 28.4959
  A 0.33 0.33 0.0 0 0 31.7219 28.1676
  L 31.7380 25.1077"
/>
<path stroke="#9a9b96" vector-effect="non-scaling-stroke" d="
  M 41.0121 25.1023
  A 0.36 0.36 0.0 0 0 40.6502 24.7442
  L 34.6103 24.7758
  A 0.36 0.36 0.0 0 0 34.2522 25.1377
  L 34.2679 28.1377
  A 0.36 0.36 0.0 0 0 34.6298 28.4958
  L 40.6697 28.4642
  A 0.36 0.36 0.0 0 0 41.0278 28.1023
  L 41.0121 25.1023"
/>
</g>
<path fill="#1c1e17" d="
  M 33.80 88.00
  L 33.04 88.00
  C 22.01 77.99 11.60 65.24 5.59 51.41
  Q 2.12 43.43 1.55 34.82
  C 0.50 18.90 11.24 5.75 26.65 2.05
  C 37.31 -0.51 49.62 3.34 57.12 11.62
  C 79.44 36.25 52.37 71.08 33.80 88.00
  Z
  M 33.38 86.56
  Q 33.60 86.56 33.83 86.35
  C 47.61 73.47 62.90 54.62 64.12 35.14
  Q 64.66 26.60 61.48 20.20
  C 56.08 9.32 45.72 2.66 33.53 2.64
  C 21.33 2.62 10.95 9.24 5.51 20.10
  Q 2.31 26.49 2.82 35.04
  C 3.98 54.52 19.20 73.42 32.94 86.34
  Q 33.17 86.56 33.38 86.56
  Z"
/>
<path fill="#34362c" d="
  M 33.53 2.64
  C 45.72 2.66 56.08 9.32 61.48 20.20
  Q 64.66 26.60 64.12 35.14
  C 62.90 54.62 47.61 73.47 33.83 86.35
  Q 33.60 86.56 33.38 86.56
  Q 33.17 86.56 32.94 86.34
  C 19.20 73.42 3.98 54.52 2.82 35.04
  Q 2.31 26.49 5.51 20.10
  C 10.95 9.24 21.33 2.62 33.53 2.64
  Z
  M 32.99 31.00
  Q 40.38 31.00 40.97 31.02
  A 0.40 0.40 0.0 0 1 41.35 31.39
  L 42.49 46.58
  A 0.57 0.57 0.0 0 0 43.10 47.10
  L 45.91 46.88
  A 0.40 0.39 -4.3 0 0 46.28 46.46
  L 45.17 31.70
  A 0.50 0.50 0.0 0 1 45.63 31.16
  L 49.47 30.87
  A 0.63 0.62 -4.6 0 0 50.05 30.20
  L 49.95 28.87
  A 0.59 0.58 85.1 0 0 49.32 28.33
  L 45.28 28.63
  A 0.36 0.36 0.0 0 1 44.89 28.30
  L 44.65 25.15
  A 0.20 0.19 87.1 0 1 44.83 24.94
  L 49.87 24.56
  A 0.22 0.21 -84.1 0 0 50.06 24.40
  L 51.19 20.66
  A 0.16 0.16 0.0 0 0 51.02 20.45
  Q 44.07 21.06 33.25 21.25
  Q 33.12 21.25 32.99 21.25
  Q 32.87 21.25 32.74 21.25
  Q 21.92 21.06 14.97 20.46
  A 0.16 0.16 0.0 0 0 14.80 20.67
  L 15.93 24.41
  A 0.22 0.21 84.1 0 0 16.12 24.57
  L 21.16 24.94
  A 0.20 0.19 -87.1 0 1 21.34 25.15
  L 21.10 28.30
  A 0.36 0.36 0.0 0 1 20.71 28.63
  L 16.67 28.34
  A 0.59 0.58 -85.1 0 0 16.04 28.88
  L 15.94 30.21
  A 0.63 0.62 4.6 0 0 16.52 30.88
  L 20.36 31.16
  A 0.50 0.50 0.0 0 1 20.82 31.70
  L 19.71 46.46
  A 0.40 0.39 4.3 0 0 20.08 46.88
  L 22.89 47.10
  A 0.57 0.57 0.0 0 0 23.50 46.58
  L 24.64 31.39
  A 0.40 0.40 0.0 0 1 25.02 31.03
  Q 25.61 31.00 32.99 31.00
  Z"
/>
<path fill="#ffffff" d="
  M 32.99 21.25
  Q 33.12 21.25 33.25 21.25
  Q 44.07 21.06 51.02 20.45
  A 0.16 0.16 0.0 0 1 51.19 20.66
  L 50.06 24.40
  A 0.22 0.21 -84.1 0 1 49.87 24.56
  L 44.83 24.94
  A 0.20 0.19 87.1 0 0 44.65 25.15
  L 44.89 28.30
  A 0.36 0.36 0.0 0 0 45.28 28.63
  L 49.32 28.33
  A 0.59 0.58 85.1 0 1 49.95 28.87
  L 50.05 30.20
  A 0.63 0.62 -4.6 0 1 49.47 30.87
  L 45.63 31.16
  A 0.50 0.50 0.0 0 0 45.17 31.70
  L 46.28 46.46
  A 0.40 0.39 -4.3 0 1 45.91 46.88
  L 43.10 47.10
  A 0.57 0.57 0.0 0 1 42.49 46.58
  L 41.35 31.39
  A 0.40 0.40 0.0 0 0 40.97 31.02
  Q 40.38 31.00 32.99 31.00
  Q 25.61 31.00 25.02 31.03
  A 0.40 0.40 0.0 0 0 24.64 31.39
  L 23.50 46.58
  A 0.57 0.57 0.0 0 1 22.89 47.10
  L 20.08 46.88
  A 0.40 0.39 4.3 0 1 19.71 46.46
  L 20.82 31.70
  A 0.50 0.50 0.0 0 0 20.36 31.16
  L 16.52 30.88
  A 0.63 0.62 4.6 0 1 15.94 30.21
  L 16.04 28.88
  A 0.59 0.58 -85.1 0 1 16.67 28.34
  L 20.71 28.63
  A 0.36 0.36 0.0 0 0 21.10 28.30
  L 21.34 25.15
  A 0.20 0.19 -87.1 0 0 21.16 24.94
  L 16.12 24.57
  A 0.22 0.21 84.1 0 1 15.93 24.41
  L 14.80 20.67
  A 0.16 0.16 0.0 0 1 14.97 20.46
  Q 21.92 21.06 32.74 21.25
  Q 32.87 21.25 32.99 21.25
  Z
  M 31.7380 25.1077
  A 0.33 0.33 0.0 0 0 31.4097 24.7759
  L 25.3298 24.7441
  A 0.33 0.33 0.0 0 0 24.9981 25.0724
  L 24.9820 28.1323
  A 0.33 0.33 0.0 0 0 25.3103 28.4641
  L 31.3902 28.4959
  A 0.33 0.33 0.0 0 0 31.7219 28.1676
  L 31.7380 25.1077
  Z
  M 41.0121 25.1023
  A 0.36 0.36 0.0 0 0 40.6502 24.7442
  L 34.6103 24.7758
  A 0.36 0.36 0.0 0 0 34.2522 25.1377
  L 34.2679 28.1377
  A 0.36 0.36 0.0 0 0 34.6298 28.4958
  L 40.6697 28.4642
  A 0.36 0.36 0.0 0 0 41.0278 28.1023
  L 41.0121 25.1023
  Z"
/>
<rect fill="#34362c" x="-3.37" y="-1.86" transform="translate(28.36,26.62) rotate(0.3)" width="6.74" height="3.72" rx="0.33"/>
<rect fill="#34362c" x="-3.38" y="-1.86" transform="translate(37.64,26.62) rotate(-0.3)" width="6.76" height="3.72" rx="0.36"/>
</svg>
