<?xml version="1.0" encoding="UTF-8" standalone="no"?>
<!DOCTYPE svg PUBLIC "-//W3C//DTD SVG 1.1//EN" "http://www.w3.org/Graphics/SVG/1.1/DTD/svg11.dtd">
<svg xmlns="http://www.w3.org/2000/svg" version="1.1" viewBox="0.00 0.00 66.00 88.00">
<g stroke-width="2.00" fill="none" stroke-linecap="butt">
<path stroke="#431a44" vector-effect="non-scaling-stroke" d="
  M 33.42 86.53
  Q 33.72 86.53 33.89 86.37
  C 44.56 76.43 54.26 64.45 60.14 51.16
  C 64.56 41.19 66.14 29.36 61.17 19.55
  C 57.13 11.58 49.60 5.31 40.72 3.40
  C 38.46 2.92 35.77 2.46 33.49 2.46
  C 31.21 2.46 28.51 2.91 26.25 3.39
  C 17.37 5.29 9.83 11.54 5.78 19.51
  C 0.80 29.31 2.36 41.14 6.76 51.12
  C 12.62 64.42 22.30 76.41 32.96 86.37
  Q 33.12 86.53 33.42 86.53"
/>
<path stroke="#ac91ac" vector-effect="non-scaling-stroke" d="
  M 31.74 21.76
  A 1.12 1.12 0.0 0 0 33.90 22.10
  Q 34.90 19.60 36.30 18.01
  A 1.24 1.24 0.0 0 0 35.72 16.00
  L 35.21 15.86
  A 2.28 2.28 0.0 0 0 32.52 17.05
  Q 31.56 19.05 31.74 21.76"
/>
<path stroke="#ac91ac" vector-effect="non-scaling-stroke" d="
  M 19.27 37.33
  C 19.22 42.41 20.49 47.78 25.08 50.26
  A 0.26 0.26 0.0 0 0 25.42 49.90
  C 22.94 45.96 22.36 41.83 22.40 37.36
  C 22.45 32.89 23.11 28.77 25.67 24.89
  A 0.26 0.26 0.0 0 0 25.33 24.51
  C 20.70 26.90 19.32 32.25 19.27 37.33"
/>
<path stroke="#ac91ac" vector-effect="non-scaling-stroke" d="
  M 47.04 37.39
  C 47.01 32.33 45.66 26.99 41.05 24.59
  A 0.26 0.26 0.0 0 0 40.72 24.96
  C 43.25 28.85 43.89 32.95 43.92 37.41
  C 43.94 41.87 43.35 45.98 40.86 49.89
  A 0.26 0.26 0.0 0 0 41.20 50.25
  C 45.77 47.80 47.07 42.45 47.04 37.39"
/>
<path stroke="#ac91ac" vector-effect="non-scaling-stroke" d="
  M 30.14 25.45
  A 0.44 0.44 0.0 0 0 29.55 24.87
  C 24.27 27.42 23.86 33.91 24.16 39.36
  C 24.42 44.13 25.44 48.47 29.34 51.39
  A 0.26 0.26 0.0 0 0 29.75 51.11
  C 27.66 43.78 26.86 32.72 30.14 25.45"
/>
<path stroke="#ac91ac" vector-effect="non-scaling-stroke" d="
  M 33.1637 25.0500
  A 13.60 3.41 -89.9 0 0 29.7300 38.6440
  A 13.60 3.41 -89.9 0 0 33.1163 52.2500
  A 13.60 3.41 -89.9 0 0 36.5500 38.6560
  A 13.60 3.41 -89.9 0 0 33.1637 25.0500"
/>
<path stroke="#ac91ac" vector-effect="non-scaling-stroke" d="
  M 36.18 25.47
  C 39.46 32.74 38.66 43.79 36.57 51.11
  A 0.26 0.26 0.0 0 0 36.98 51.39
  C 40.87 48.48 41.89 44.14 42.16 39.37
  C 42.46 33.93 42.05 27.44 36.77 24.89
  A 0.44 0.44 0.0 0 0 36.18 25.47"
/>
</g>
<path fill="#2e112e" d="
  M 33.80 88.00
  L 33.04 88.00
  C 21.72 77.71 12.19 65.75 5.68 51.55
  Q 2.13 43.81 1.57 34.89
  C 0.57 18.86 11.16 5.76 26.64 2.05
  C 37.29 -0.50 49.59 3.32 57.11 11.61
  C 79.51 36.28 52.21 71.24 33.80 88.00
  Z
  M 33.42 86.53
  Q 33.72 86.53 33.89 86.37
  C 44.56 76.43 54.26 64.45 60.14 51.16
  C 64.56 41.19 66.14 29.36 61.17 19.55
  C 57.13 11.58 49.60 5.31 40.72 3.40
  C 38.46 2.92 35.77 2.46 33.49 2.46
  C 31.21 2.46 28.51 2.91 26.25 3.39
  C 17.37 5.29 9.83 11.54 5.78 19.51
  C 0.80 29.31 2.36 41.14 6.76 51.12
  C 12.62 64.42 22.30 76.41 32.96 86.37
  Q 33.12 86.53 33.42 86.53
  Z"
/>
<path fill="#582359" d="
  M 33.49 2.46
  C 35.77 2.46 38.46 2.92 40.72 3.40
  C 49.60 5.31 57.13 11.58 61.17 19.55
  C 66.14 29.36 64.56 41.19 60.14 51.16
  C 54.26 64.45 44.56 76.43 33.89 86.37
  Q 33.72 86.53 33.42 86.53
  Q 33.12 86.53 32.96 86.37
  C 22.30 76.41 12.62 64.42 6.76 51.12
  C 2.36 41.14 0.80 29.31 5.78 19.51
  C 9.83 11.54 17.37 5.29 26.25 3.39
  C 28.51 2.91 31.21 2.46 33.49 2.46
  Z
  M 31.74 21.76
  A 1.12 1.12 0.0 0 0 33.90 22.10
  Q 34.90 19.60 36.30 18.01
  A 1.24 1.24 0.0 0 0 35.72 16.00
  L 35.21 15.86
  A 2.28 2.28 0.0 0 0 32.52 17.05
  Q 31.56 19.05 31.74 21.76
  Z
  M 19.27 37.33
  C 19.22 42.41 20.49 47.78 25.08 50.26
  A 0.26 0.26 0.0 0 0 25.42 49.90
  C 22.94 45.96 22.36 41.83 22.40 37.36
  C 22.45 32.89 23.11 28.77 25.67 24.89
  A 0.26 0.26 0.0 0 0 25.33 24.51
  C 20.70 26.90 19.32 32.25 19.27 37.33
  Z
  M 47.04 37.39
  C 47.01 32.33 45.66 26.99 41.05 24.59
  A 0.26 0.26 0.0 0 0 40.72 24.96
  C 43.25 28.85 43.89 32.95 43.92 37.41
  C 43.94 41.87 43.35 45.98 40.86 49.89
  A 0.26 0.26 0.0 0 0 41.20 50.25
  C 45.77 47.80 47.07 42.45 47.04 37.39
  Z
  M 30.14 25.45
  A 0.44 0.44 0.0 0 0 29.55 24.87
  C 24.27 27.42 23.86 33.91 24.16 39.36
  C 24.42 44.13 25.44 48.47 29.34 51.39
  A 0.26 0.26 0.0 0 0 29.75 51.11
  C 27.66 43.78 26.86 32.72 30.14 25.45
  Z
  M 33.1637 25.0500
  A 13.60 3.41 -89.9 0 0 29.7300 38.6440
  A 13.60 3.41 -89.9 0 0 33.1163 52.2500
  A 13.60 3.41 -89.9 0 0 36.5500 38.6560
  A 13.60 3.41 -89.9 0 0 33.1637 25.0500
  Z
  M 36.18 25.47
  C 39.46 32.74 38.66 43.79 36.57 51.11
  A 0.26 0.26 0.0 0 0 36.98 51.39
  C 40.87 48.48 41.89 44.14 42.16 39.37
  C 42.46 33.93 42.05 27.44 36.77 24.89
  A 0.44 0.44 0.0 0 0 36.18 25.47
  Z"
/>
<path fill="#ffffff" d="
  M 31.74 21.76
  Q 31.56 19.05 32.52 17.05
  A 2.28 2.28 0.0 0 1 35.21 15.86
  L 35.72 16.00
  A 1.24 1.24 0.0 0 1 36.30 18.01
  Q 34.90 19.60 33.90 22.10
  A 1.12 1.12 0.0 0 1 31.74 21.76
  Z"
/>
<path fill="#ffffff" d="
  M 22.40 37.36
  C 22.36 41.83 22.94 45.96 25.42 49.90
  A 0.26 0.26 0.0 0 1 25.08 50.26
  C 20.49 47.78 19.22 42.41 19.27 37.33
  C 19.32 32.25 20.70 26.90 25.33 24.51
  A 0.26 0.26 0.0 0 1 25.67 24.89
  C 23.11 28.77 22.45 32.89 22.40 37.36
  Z"
/>
<path fill="#ffffff" d="
  M 47.04 37.39
  C 47.07 42.45 45.77 47.80 41.20 50.25
  A 0.26 0.26 0.0 0 1 40.86 49.89
  C 43.35 45.98 43.94 41.87 43.92 37.41
  C 43.89 32.95 43.25 28.85 40.72 24.96
  A 0.26 0.26 0.0 0 1 41.05 24.59
  C 45.66 26.99 47.01 32.33 47.04 37.39
  Z"
/>
<path fill="#ffffff" d="
  M 30.14 25.45
  C 26.86 32.72 27.66 43.78 29.75 51.11
  A 0.26 0.26 0.0 0 1 29.34 51.39
  C 25.44 48.47 24.42 44.13 24.16 39.36
  C 23.86 33.91 24.27 27.42 29.55 24.87
  A 0.44 0.44 0.0 0 1 30.14 25.45
  Z"
/>
<ellipse fill="#ffffff" cx="0.00" cy="0.00" transform="translate(33.14,38.65) rotate(-89.9)" rx="13.60" ry="3.41"/>
<path fill="#ffffff" d="
  M 36.18 25.47
  A 0.44 0.44 0.0 0 1 36.77 24.89
  C 42.05 27.44 42.46 33.93 42.16 39.37
  C 41.89 44.14 40.87 48.48 36.98 51.39
  A 0.26 0.26 0.0 0 1 36.57 51.11
  C 38.66 43.79 39.46 32.74 36.18 25.47
  Z"
/>
</svg>
