<?xml version="1.0" encoding="UTF-8" standalone="no"?>
<!DOCTYPE svg PUBLIC "-//W3C//DTD SVG 1.1//EN" "http://www.w3.org/Graphics/SVG/1.1/DTD/svg11.dtd">
<svg xmlns="http://www.w3.org/2000/svg" version="1.1" viewBox="0.00 0.00 66.00 88.00">
<g stroke-width="2.00" fill="none" stroke-linecap="butt">
<path stroke="#464544" vector-effect="non-scaling-stroke" d="
  M 33.42 86.61
  C 34.13 86.61 33.58 86.67 33.80 86.47
  Q 47.38 73.98 56.48 58.48
  C 64.00 45.68 68.29 28.85 58.84 15.67
  C 52.91 7.40 43.97 2.58 33.53 2.56
  C 23.09 2.55 14.13 7.35 8.18 15.61
  C -1.30 28.76 2.95 45.60 10.44 58.42
  Q 19.50 73.94 33.05 86.46
  C 33.27 86.67 32.71 86.61 33.42 86.61"
/>
<path stroke="#aeadad" vector-effect="non-scaling-stroke" d="
  M 47.09 27.34
  Q 47.98 27.02 47.78 26.15
  Q 46.09 18.67 39.61 17.22
  A 1.06 1.05 87.6 0 1 38.82 16.49
  L 38.68 16.04
  A 0.70 0.70 0.0 0 0 37.80 15.58
  L 33.22 16.98
  A 2.13 2.09 -47.9 0 1 32.23 17.04
  Q 31.98 16.96 29.26 15.96
  Q 27.34 15.25 26.67 16.57
  A 1.27 1.25 -83.4 0 1 25.86 17.22
  Q 19.14 18.95 17.59 26.50
  A 0.59 0.59 0.0 0 0 18.17 27.21
  L 18.55 27.21
  A 0.44 0.43 12.2 0 1 18.95 27.82
  Q 16.44 33.36 18.17 38.11
  C 19.62 42.12 18.75 45.08 22.31 48.38
  A 0.85 0.83 -23.3 0 0 22.88 48.60
  L 23.94 48.60
  A 1.56 1.53 -23.6 0 1 24.98 49.00
  C 30.38 53.91 35.74 52.58 40.97 48.54
  A 0.83 0.82 43.6 0 1 41.95 48.52
  Q 41.97 48.53 41.98 48.54
  A 0.79 0.79 0.0 0 0 43.00 48.54
  C 46.95 45.22 45.87 42.07 47.41 38.00
  Q 48.99 33.85 46.73 28.16
  A 0.63 0.62 69.0 0 1 47.09 27.34"
/>
<path stroke="#aeadad" vector-effect="non-scaling-stroke" d="
  M 37.37 45.09
  C 35.16 44.39 28.98 43.78 27.27 45.56
  A 0.82 0.82 0.0 0 0 27.36 46.78
  Q 32.65 50.80 37.20 47.49
  Q 38.16 46.78 39.44 44.42
  C 41.29 41.01 37.95 37.80 36.10 35.14
  A 0.09 0.09 0.0 0 1 36.23 35.02
  L 37.95 36.52
  A 0.51 0.51 0.0 0 0 38.74 36.37
  C 39.59 34.80 42.40 33.90 43.13 31.92
  C 44.28 28.82 41.46 23.72 37.71 23.99
  C 35.98 24.11 34.42 25.17 33.03 26.01
  A 0.73 0.71 -40.9 0 1 32.20 25.96
  Q 27.02 21.72 23.49 26.44
  C 21.31 29.34 21.67 32.50 24.63 34.43
  Q 26.36 35.54 26.87 36.42
  A 0.58 0.57 52.9 0 0 27.76 36.55
  Q 28.62 35.74 28.85 35.22
  A 0.25 0.25 0.0 0 1 29.20 35.10
  L 29.21 35.10
  A 0.25 0.25 0.0 0 1 29.29 35.46
  C 27.22 38.39 24.21 40.89 26.34 45.08
  A 0.42 0.42 0.0 0 0 26.91 45.26
  Q 31.88 42.68 37.51 44.74
  A 0.18 0.16 19.6 0 1 37.62 44.95
  L 37.61 44.96
  A 0.20 0.20 0.0 0 1 37.37 45.09"
/>
<path stroke="#aeadad" vector-effect="non-scaling-stroke" d="
  M 30.05 26.73
  Q 29.70 26.41 29.14 26.20
  A 0.34 0.17 -17.8 0 0 29.02 26.18
  Q 28.70 26.18 28.36 26.36
  A 0.37 0.37 0.0 0 0 28.53 27.05
  L 29.92 27.05
  A 0.19 0.18 -23.2 0 0 30.05 26.73"
/>
<path stroke="#aeadad" vector-effect="non-scaling-stroke" d="
  M 37.39 26.61
  A 0.28 0.27 1.1 0 0 37.12 26.34
  Q 35.97 26.30 35.30 27.06
  A 0.29 0.29 0.0 0 0 35.69 27.48
  Q 36.45 26.92 37.11 27.14
  A 0.21 0.20 10.1 0 0 37.39 26.95
  L 37.39 26.61"
/>
<path stroke="#aeadad" vector-effect="non-scaling-stroke" d="
  M 38.53 28.83
  A 1.22 1.22 0.0 0 0 37.31 27.61
  A 1.22 1.22 0.0 0 0 36.09 28.83
  A 1.22 1.22 0.0 0 0 37.31 30.05
  A 1.22 1.22 0.0 0 0 38.53 28.83"
/>
<path stroke="#aeadad" vector-effect="non-scaling-stroke" d="
  M 29.47 28.83
  A 1.24 1.24 0.0 0 0 28.23 27.59
  A 1.24 1.24 0.0 0 0 26.99 28.83
  A 1.24 1.24 0.0 0 0 28.23 30.07
  A 1.24 1.24 0.0 0 0 29.47 28.83"
/>
<path stroke="#aeadad" vector-effect="non-scaling-stroke" d="
  M 27.55 31.07
  Q 26.03 30.36 25.91 30.35
  A 0.23 0.23 0.0 0 0 25.72 30.74
  Q 26.81 31.89 27.52 31.67
  A 0.32 0.32 0.0 0 0 27.55 31.07"
/>
<path stroke="#aeadad" vector-effect="non-scaling-stroke" d="
  M 39.56 30.31
  L 38.03 31.25
  A 0.28 0.28 0.0 0 0 38.13 31.76
  Q 38.72 31.86 39.77 30.55
  A 0.16 0.16 0.0 0 0 39.56 30.31"
/>
<path stroke="#aeadad" vector-effect="non-scaling-stroke" d="
  M 32.77 40.62
  Q 33.22 40.63 34.30 39.83
  Q 35.29 39.09 35.59 38.74
  A 0.67 0.67 0.0 0 0 35.61 37.90
  L 35.35 37.56
  A 0.34 0.33 33.9 0 0 34.76 37.67
  Q 34.19 39.71 32.78 39.70
  Q 31.36 39.69 30.82 37.64
  A 0.34 0.33 -33.1 0 0 30.23 37.52
  L 29.97 37.86
  A 0.67 0.67 0.0 0 0 29.98 38.70
  Q 30.27 39.05 31.25 39.80
  Q 32.32 40.62 32.77 40.62"
/>
</g>
<path fill="#2f2f2e" d="
  M 33.80 88.00
  L 33.04 88.00
  C 16.75 73.19 -6.37 44.18 4.06 20.43
  C 11.63 3.19 32.59 -3.80 49.10 5.34
  Q 61.23 12.06 64.85 26.20
  Q 65.65 29.33 65.30 36.24
  Q 65.07 40.85 63.34 46.04
  C 57.92 62.25 46.28 76.64 33.80 88.00
  Z
  M 33.42 86.61
  C 34.13 86.61 33.58 86.67 33.80 86.47
  Q 47.38 73.98 56.48 58.48
  C 64.00 45.68 68.29 28.85 58.84 15.67
  C 52.91 7.40 43.97 2.58 33.53 2.56
  C 23.09 2.55 14.13 7.35 8.18 15.61
  C -1.30 28.76 2.95 45.60 10.44 58.42
  Q 19.50 73.94 33.05 86.46
  C 33.27 86.67 32.71 86.61 33.42 86.61
  Z"
/>
<path fill="#5c5a5a" d="
  M 33.53 2.56
  C 43.97 2.58 52.91 7.40 58.84 15.67
  C 68.29 28.85 64.00 45.68 56.48 58.48
  Q 47.38 73.98 33.80 86.47
  C 33.58 86.67 34.13 86.61 33.42 86.61
  C 32.71 86.61 33.27 86.67 33.05 86.46
  Q 19.50 73.94 10.44 58.42
  C 2.95 45.60 -1.30 28.76 8.18 15.61
  C 14.13 7.35 23.09 2.55 33.53 2.56
  Z
  M 47.09 27.34
  Q 47.98 27.02 47.78 26.15
  Q 46.09 18.67 39.61 17.22
  A 1.06 1.05 87.6 0 1 38.82 16.49
  L 38.68 16.04
  A 0.70 0.70 0.0 0 0 37.80 15.58
  L 33.22 16.98
  A 2.13 2.09 -47.9 0 1 32.23 17.04
  Q 31.98 16.96 29.26 15.96
  Q 27.34 15.25 26.67 16.57
  A 1.27 1.25 -83.4 0 1 25.86 17.22
  Q 19.14 18.95 17.59 26.50
  A 0.59 0.59 0.0 0 0 18.17 27.21
  L 18.55 27.21
  A 0.44 0.43 12.2 0 1 18.95 27.82
  Q 16.44 33.36 18.17 38.11
  C 19.62 42.12 18.75 45.08 22.31 48.38
  A 0.85 0.83 -23.3 0 0 22.88 48.60
  L 23.94 48.60
  A 1.56 1.53 -23.6 0 1 24.98 49.00
  C 30.38 53.91 35.74 52.58 40.97 48.54
  A 0.83 0.82 43.6 0 1 41.95 48.52
  Q 41.97 48.53 41.98 48.54
  A 0.79 0.79 0.0 0 0 43.00 48.54
  C 46.95 45.22 45.87 42.07 47.41 38.00
  Q 48.99 33.85 46.73 28.16
  A 0.63 0.62 69.0 0 1 47.09 27.34
  Z"
/>
<path fill="#ffffff" d="
  M 46.73 28.16
  Q 48.99 33.85 47.41 38.00
  C 45.87 42.07 46.95 45.22 43.00 48.54
  A 0.79 0.79 0.0 0 1 41.98 48.54
  Q 41.97 48.53 41.95 48.52
  A 0.83 0.82 43.6 0 0 40.97 48.54
  C 35.74 52.58 30.38 53.91 24.98 49.00
  A 1.56 1.53 -23.6 0 0 23.94 48.60
  L 22.88 48.60
  A 0.85 0.83 -23.3 0 1 22.31 48.38
  C 18.75 45.08 19.62 42.12 18.17 38.11
  Q 16.44 33.36 18.95 27.82
  A 0.44 0.43 12.2 0 0 18.55 27.21
  L 18.17 27.21
  A 0.59 0.59 0.0 0 1 17.59 26.50
  Q 19.14 18.95 25.86 17.22
  A 1.27 1.25 -83.4 0 0 26.67 16.57
  Q 27.34 15.25 29.26 15.96
  Q 31.98 16.96 32.23 17.04
  A 2.13 2.09 -47.9 0 0 33.22 16.98
  L 37.80 15.58
  A 0.70 0.70 0.0 0 1 38.68 16.04
  L 38.82 16.49
  A 1.06 1.05 87.6 0 0 39.61 17.22
  Q 46.09 18.67 47.78 26.15
  Q 47.98 27.02 47.09 27.34
  A 0.63 0.62 69.0 0 0 46.73 28.16
  Z
  M 37.37 45.09
  C 35.16 44.39 28.98 43.78 27.27 45.56
  A 0.82 0.82 0.0 0 0 27.36 46.78
  Q 32.65 50.80 37.20 47.49
  Q 38.16 46.78 39.44 44.42
  C 41.29 41.01 37.95 37.80 36.10 35.14
  A 0.09 0.09 0.0 0 1 36.23 35.02
  L 37.95 36.52
  A 0.51 0.51 0.0 0 0 38.74 36.37
  C 39.59 34.80 42.40 33.90 43.13 31.92
  C 44.28 28.82 41.46 23.72 37.71 23.99
  C 35.98 24.11 34.42 25.17 33.03 26.01
  A 0.73 0.71 -40.9 0 1 32.20 25.96
  Q 27.02 21.72 23.49 26.44
  C 21.31 29.34 21.67 32.50 24.63 34.43
  Q 26.36 35.54 26.87 36.42
  A 0.58 0.57 52.9 0 0 27.76 36.55
  Q 28.62 35.74 28.85 35.22
  A 0.25 0.25 0.0 0 1 29.20 35.10
  L 29.21 35.10
  A 0.25 0.25 0.0 0 1 29.29 35.46
  C 27.22 38.39 24.21 40.89 26.34 45.08
  A 0.42 0.42 0.0 0 0 26.91 45.26
  Q 31.88 42.68 37.51 44.74
  A 0.18 0.16 19.6 0 1 37.62 44.95
  L 37.61 44.96
  A 0.20 0.20 0.0 0 1 37.37 45.09
  Z"
/>
<path fill="#5c5a5a" d="
  M 37.37 45.09
  A 0.20 0.20 0.0 0 0 37.61 44.96
  L 37.62 44.95
  A 0.18 0.16 19.6 0 0 37.51 44.74
  Q 31.88 42.68 26.91 45.26
  A 0.42 0.42 0.0 0 1 26.34 45.08
  C 24.21 40.89 27.22 38.39 29.29 35.46
  A 0.25 0.25 0.0 0 0 29.21 35.10
  L 29.20 35.10
  A 0.25 0.25 0.0 0 0 28.85 35.22
  Q 28.62 35.74 27.76 36.55
  A 0.58 0.57 52.9 0 1 26.87 36.42
  Q 26.36 35.54 24.63 34.43
  C 21.67 32.50 21.31 29.34 23.49 26.44
  Q 27.02 21.72 32.20 25.96
  A 0.73 0.71 -40.9 0 0 33.03 26.01
  C 34.42 25.17 35.98 24.11 37.71 23.99
  C 41.46 23.72 44.28 28.82 43.13 31.92
  C 42.40 33.90 39.59 34.80 38.74 36.37
  A 0.51 0.51 0.0 0 1 37.95 36.52
  L 36.23 35.02
  A 0.09 0.09 0.0 0 0 36.10 35.14
  C 37.95 37.80 41.29 41.01 39.44 44.42
  Q 38.16 46.78 37.20 47.49
  Q 32.65 50.80 27.36 46.78
  A 0.82 0.82 0.0 0 1 27.27 45.56
  C 28.98 43.78 35.16 44.39 37.37 45.09
  Z
  M 30.05 26.73
  Q 29.70 26.41 29.14 26.20
  A 0.34 0.17 -17.8 0 0 29.02 26.18
  Q 28.70 26.18 28.36 26.36
  A 0.37 0.37 0.0 0 0 28.53 27.05
  L 29.92 27.05
  A 0.19 0.18 -23.2 0 0 30.05 26.73
  Z
  M 37.39 26.61
  A 0.28 0.27 1.1 0 0 37.12 26.34
  Q 35.97 26.30 35.30 27.06
  A 0.29 0.29 0.0 0 0 35.69 27.48
  Q 36.45 26.92 37.11 27.14
  A 0.21 0.20 10.1 0 0 37.39 26.95
  L 37.39 26.61
  Z
  M 38.53 28.83
  A 1.22 1.22 0.0 0 0 37.31 27.61
  A 1.22 1.22 0.0 0 0 36.09 28.83
  A 1.22 1.22 0.0 0 0 37.31 30.05
  A 1.22 1.22 0.0 0 0 38.53 28.83
  Z
  M 29.47 28.83
  A 1.24 1.24 0.0 0 0 28.23 27.59
  A 1.24 1.24 0.0 0 0 26.99 28.83
  A 1.24 1.24 0.0 0 0 28.23 30.07
  A 1.24 1.24 0.0 0 0 29.47 28.83
  Z
  M 27.55 31.07
  Q 26.03 30.36 25.91 30.35
  A 0.23 0.23 0.0 0 0 25.72 30.74
  Q 26.81 31.89 27.52 31.67
  A 0.32 0.32 0.0 0 0 27.55 31.07
  Z
  M 39.56 30.31
  L 38.03 31.25
  A 0.28 0.28 0.0 0 0 38.13 31.76
  Q 38.72 31.86 39.77 30.55
  A 0.16 0.16 0.0 0 0 39.56 30.31
  Z
  M 32.77 40.62
  Q 33.22 40.63 34.30 39.83
  Q 35.29 39.09 35.59 38.74
  A 0.67 0.67 0.0 0 0 35.61 37.90
  L 35.35 37.56
  A 0.34 0.33 33.9 0 0 34.76 37.67
  Q 34.19 39.71 32.78 39.70
  Q 31.36 39.69 30.82 37.64
  A 0.34 0.33 -33.1 0 0 30.23 37.52
  L 29.97 37.86
  A 0.67 0.67 0.0 0 0 29.98 38.70
  Q 30.27 39.05 31.25 39.80
  Q 32.32 40.62 32.77 40.62
  Z"
/>
<path fill="#ffffff" d="
  M 29.92 27.05
  L 28.53 27.05
  A 0.37 0.37 0.0 0 1 28.36 26.36
  Q 28.70 26.18 29.02 26.18
  A 0.34 0.17 -17.8 0 1 29.14 26.20
  Q 29.70 26.41 30.05 26.73
  A 0.19 0.18 -23.2 0 1 29.92 27.05
  Z"
/>
<path fill="#ffffff" d="
  M 37.11 27.14
  Q 36.45 26.92 35.69 27.48
  A 0.29 0.29 0.0 0 1 35.30 27.06
  Q 35.97 26.30 37.12 26.34
  A 0.28 0.27 1.1 0 1 37.39 26.61
  L 37.39 26.95
  A 0.21 0.20 10.1 0 1 37.11 27.14
  Z"
/>
<circle fill="#ffffff" cx="37.31" cy="28.83" r="1.22"/>
<circle fill="#ffffff" cx="28.23" cy="28.83" r="1.24"/>
<path fill="#ffffff" d="
  M 27.52 31.67
  Q 26.81 31.89 25.72 30.74
  A 0.23 0.23 0.0 0 1 25.91 30.35
  Q 26.03 30.36 27.55 31.07
  A 0.32 0.32 0.0 0 1 27.52 31.67
  Z"
/>
<path fill="#ffffff" d="
  M 39.77 30.55
  Q 38.72 31.86 38.13 31.76
  A 0.28 0.28 0.0 0 1 38.03 31.25
  L 39.56 30.31
  A 0.16 0.16 0.0 0 1 39.77 30.55
  Z"
/>
<path fill="#ffffff" d="
  M 32.78 39.70
  Q 34.19 39.71 34.76 37.67
  A 0.34 0.33 33.9 0 1 35.35 37.56
  L 35.61 37.90
  A 0.67 0.67 0.0 0 1 35.59 38.74
  Q 35.29 39.09 34.30 39.83
  Q 33.22 40.63 32.77 40.62
  Q 32.32 40.62 31.25 39.80
  Q 30.27 39.05 29.98 38.70
  A 0.67 0.67 0.0 0 1 29.97 37.86
  L 30.23 37.52
  A 0.34 0.33 -33.1 0 1 30.82 37.64
  Q 31.36 39.69 32.78 39.70
  Z"
/>
</svg>
