<?xml version="1.0" encoding="UTF-8" standalone="no"?>
<!DOCTYPE svg PUBLIC "-//W3C//DTD SVG 1.1//EN" "http://www.w3.org/Graphics/SVG/1.1/DTD/svg11.dtd">
<svg xmlns="http://www.w3.org/2000/svg" version="1.1" viewBox="0.00 0.00 66.00 88.00">
<g stroke-width="2.00" fill="none" stroke-linecap="butt">
<path stroke="#173f51" vector-effect="non-scaling-stroke" d="
  M 33.43 86.61
  C 33.57 86.61 33.72 86.60 33.82 86.51
  Q 49.91 70.98 57.57 56.54
  Q 62.80 46.66 63.89 38.05
  Q 66.53 17.09 48.22 6.23
  Q 42.06 2.57 33.50 2.57
  Q 24.94 2.56 18.77 6.21
  Q 0.44 17.03 3.05 38.00
  Q 4.12 46.61 9.34 56.50
  Q 16.97 70.95 33.03 86.50
  C 33.13 86.60 33.28 86.61 33.43 86.61"
/>
<path stroke="#8fa9b5" vector-effect="non-scaling-stroke" d="
  M 32.60 18.55
  A 0.82 0.82 0.0 0 0 33.89 19.55
  Q 35.24 18.24 35.38 16.77
  A 0.80 0.80 0.0 0 0 33.90 16.29
  L 32.60 18.55"
/>
<path stroke="#8fa9b5" vector-effect="non-scaling-stroke" d="
  M 32.68 52.24
  Q 34.58 52.24 36.11 52.14
  A 3.50 3.37 -58.5 0 0 37.32 51.83
  C 44.30 48.55 44.05 39.81 37.72 36.16
  A 0.78 0.78 0.0 0 1 37.53 34.96
  C 40.85 31.30 39.05 27.44 35.14 25.27
  A 1.10 1.08 -75.8 0 1 34.58 24.31
  L 34.58 22.37
  A 1.11 1.11 0.0 0 0 33.44 21.26
  Q 32.85 21.27 32.70 21.27
  Q 32.54 21.27 31.95 21.26
  A 1.11 1.11 0.0 0 0 30.81 22.37
  L 30.81 24.31
  A 1.10 1.08 75.8 0 1 30.25 25.27
  C 26.34 27.43 24.53 31.29 27.85 34.96
  A 0.78 0.78 0.0 0 1 27.66 36.16
  C 21.33 39.80 21.07 48.54 28.05 51.83
  A 3.50 3.37 58.5 0 0 29.25 52.14
  Q 30.79 52.24 32.68 52.24"
/>
</g>
<path fill="#0e2b37" d="
  M 33.78 88.00
  L 33.14 88.00
  Q 15.91 72.74 6.24 53.02
  Q 2.30 45.00 1.64 35.41
  Q 0.96 25.72 5.33 17.87
  C 15.74 -0.81 42.05 -4.80 57.14 11.63
  C 69.76 25.38 66.44 43.72 57.55 58.85
  Q 47.97 75.16 33.78 88.00
  Z
  M 33.43 86.61
  C 33.57 86.61 33.72 86.60 33.82 86.51
  Q 49.91 70.98 57.57 56.54
  Q 62.80 46.66 63.89 38.05
  Q 66.53 17.09 48.22 6.23
  Q 42.06 2.57 33.50 2.57
  Q 24.94 2.56 18.77 6.21
  Q 0.44 17.03 3.05 38.00
  Q 4.12 46.61 9.34 56.50
  Q 16.97 70.95 33.03 86.50
  C 33.13 86.60 33.28 86.61 33.43 86.61
  Z"
/>
<path fill="#1f526b" d="
  M 33.50 2.57
  Q 42.06 2.57 48.22 6.23
  Q 66.53 17.09 63.89 38.05
  Q 62.80 46.66 57.57 56.54
  Q 49.91 70.98 33.82 86.51
  C 33.72 86.60 33.57 86.61 33.43 86.61
  C 33.28 86.61 33.13 86.60 33.03 86.50
  Q 16.97 70.95 9.34 56.50
  Q 4.12 46.61 3.05 38.00
  Q 0.44 17.03 18.77 6.21
  Q 24.94 2.56 33.50 2.57
  Z
  M 32.60 18.55
  A 0.82 0.82 0.0 0 0 33.89 19.55
  Q 35.24 18.24 35.38 16.77
  A 0.80 0.80 0.0 0 0 33.90 16.29
  L 32.60 18.55
  Z
  M 32.68 52.24
  Q 34.58 52.24 36.11 52.14
  A 3.50 3.37 -58.5 0 0 37.32 51.83
  C 44.30 48.55 44.05 39.81 37.72 36.16
  A 0.78 0.78 0.0 0 1 37.53 34.96
  C 40.85 31.30 39.05 27.44 35.14 25.27
  A 1.10 1.08 -75.8 0 1 34.58 24.31
  L 34.58 22.37
  A 1.11 1.11 0.0 0 0 33.44 21.26
  Q 32.85 21.27 32.70 21.27
  Q 32.54 21.27 31.95 21.26
  A 1.11 1.11 0.0 0 0 30.81 22.37
  L 30.81 24.31
  A 1.10 1.08 75.8 0 1 30.25 25.27
  C 26.34 27.43 24.53 31.29 27.85 34.96
  A 0.78 0.78 0.0 0 1 27.66 36.16
  C 21.33 39.80 21.07 48.54 28.05 51.83
  A 3.50 3.37 58.5 0 0 29.25 52.14
  Q 30.79 52.24 32.68 52.24
  Z"
/>
<path fill="#ffffff" d="
  M 32.60 18.55
  L 33.90 16.29
  A 0.80 0.80 0.0 0 1 35.38 16.77
  Q 35.24 18.24 33.89 19.55
  A 0.82 0.82 0.0 0 1 32.60 18.55
  Z"
/>
<path fill="#ffffff" d="
  M 32.70 21.27
  Q 32.85 21.27 33.44 21.26
  A 1.11 1.11 0.0 0 1 34.58 22.37
  L 34.58 24.31
  A 1.10 1.08 -75.8 0 0 35.14 25.27
  C 39.05 27.44 40.85 31.30 37.53 34.96
  A 0.78 0.78 0.0 0 0 37.72 36.16
  C 44.05 39.81 44.30 48.55 37.32 51.83
  A 3.50 3.37 -58.5 0 1 36.11 52.14
  Q 34.58 52.24 32.68 52.24
  Q 30.79 52.24 29.25 52.14
  A 3.50 3.37 58.5 0 1 28.05 51.83
  C 21.07 48.54 21.33 39.80 27.66 36.16
  A 0.78 0.78 0.0 0 0 27.85 34.96
  C 24.53 31.29 26.34 27.43 30.25 25.27
  A 1.10 1.08 75.8 0 0 30.81 24.31
  L 30.81 22.37
  A 1.11 1.11 0.0 0 1 31.95 21.26
  Q 32.54 21.27 32.70 21.27
  Z"
/>
</svg>
