<?xml version="1.0" encoding="UTF-8" standalone="no"?>
<!DOCTYPE svg PUBLIC "-//W3C//DTD SVG 1.1//EN" "http://www.w3.org/Graphics/SVG/1.1/DTD/svg11.dtd">
<svg xmlns="http://www.w3.org/2000/svg" version="1.1" viewBox="0.00 0.00 66.00 88.00">
<g stroke-width="2.00" fill="none" stroke-linecap="butt">
<path stroke="#431a44" vector-effect="non-scaling-stroke" d="
  M 33.42 86.53
  Q 33.72 86.53 33.89 86.37
  C 47.22 73.98 60.96 56.52 63.84 38.59
  C 66.87 19.74 53.59 3.44 34.50 2.52
  Q 33.65 2.48 33.49 2.48
  Q 33.33 2.48 32.48 2.52
  C 13.39 3.41 0.08 19.69 3.08 38.54
  C 5.93 56.48 19.65 73.96 32.96 86.37
  Q 33.13 86.53 33.42 86.53"
/>
<path stroke="#ac91ac" vector-effect="non-scaling-stroke" d="
  M 32.92 40.45
  C 37.24 40.48 42.20 39.18 46.15 37.65
  Q 51.04 35.75 51.30 30.96
  A 2.04 1.90 83.2 0 0 48.82 28.86
  Q 46.45 29.63 45.16 32.48
  A 0.95 0.94 -77.9 0 1 44.30 33.04
  L 38.43 33.04
  A 0.89 0.89 0.0 0 1 37.61 32.50
  Q 36.12 29.06 32.98 29.05
  Q 29.84 29.03 28.32 32.45
  A 0.89 0.89 0.0 0 1 27.49 32.98
  L 21.62 32.92
  A 0.95 0.94 78.5 0 1 20.77 32.35
  Q 19.51 29.49 17.14 28.70
  A 2.04 1.90 -82.7 0 0 14.64 30.77
  Q 14.85 35.56 19.72 37.51
  C 23.65 39.08 28.60 40.43 32.92 40.45"
/>
<path stroke="#ac91ac" vector-effect="non-scaling-stroke" d="
  M 16.45 32.71
  Q 16.88 33.16 18.97 32.94
  A 0.47 0.47 0.0 0 0 19.35 32.27
  Q 19.18 31.88 18.29 30.95
  Q 17.41 30.03 17.02 29.83
  A 0.47 0.47 0.0 0 0 16.35 30.18
  Q 16.02 32.26 16.45 32.71"
/>
<path stroke="#ac91ac" vector-effect="non-scaling-stroke" d="
  M 46.69 32.19
  A 0.58 0.58 0.0 0 0 47.16 33.04
  Q 51.05 33.32 49.82 30.40
  A 0.67 0.67 0.0 0 0 48.97 30.03
  Q 47.55 30.57 46.69 32.19"
/>
<path stroke="#ac91ac" vector-effect="non-scaling-stroke" d="
  M 29.93 32.94
  L 36.05 32.98
  A 0.17 0.17 0.0 0 0 36.22 32.81
  L 36.22 32.72
  A 3.11 2.30 0.4 0 0 33.13 30.40
  L 32.89 30.40
  A 3.11 2.30 0.4 0 0 29.76 32.68
  L 29.76 32.77
  A 0.17 0.17 0.0 0 0 29.93 32.94"
/>
</g>
<path fill="#2e112e" d="
  M 33.81 88.00
  L 33.15 88.00
  Q 15.60 72.48 6.00 52.51
  Q 2.25 44.72 1.63 35.22
  Q 1.01 25.75 5.24 18.03
  C 12.61 4.56 28.14 -1.70 43.18 2.82
  Q 51.41 5.30 57.11 11.61
  C 79.45 36.34 52.30 71.14 33.81 88.00
  Z
  M 33.42 86.53
  Q 33.72 86.53 33.89 86.37
  C 47.22 73.98 60.96 56.52 63.84 38.59
  C 66.87 19.74 53.59 3.44 34.50 2.52
  Q 33.65 2.48 33.49 2.48
  Q 33.33 2.48 32.48 2.52
  C 13.39 3.41 0.08 19.69 3.08 38.54
  C 5.93 56.48 19.65 73.96 32.96 86.37
  Q 33.13 86.53 33.42 86.53
  Z"
/>
<path fill="#582359" d="
  M 33.49 2.48
  Q 33.65 2.48 34.50 2.52
  C 53.59 3.44 66.87 19.74 63.84 38.59
  C 60.96 56.52 47.22 73.98 33.89 86.37
  Q 33.72 86.53 33.42 86.53
  Q 33.13 86.53 32.96 86.37
  C 19.65 73.96 5.93 56.48 3.08 38.54
  C 0.08 19.69 13.39 3.41 32.48 2.52
  Q 33.33 2.48 33.49 2.48
  Z
  M 32.92 40.45
  C 37.24 40.48 42.20 39.18 46.15 37.65
  Q 51.04 35.75 51.30 30.96
  A 2.04 1.90 83.2 0 0 48.82 28.86
  Q 46.45 29.63 45.16 32.48
  A 0.95 0.94 -77.9 0 1 44.30 33.04
  L 38.43 33.04
  A 0.89 0.89 0.0 0 1 37.61 32.50
  Q 36.12 29.06 32.98 29.05
  Q 29.84 29.03 28.32 32.45
  A 0.89 0.89 0.0 0 1 27.49 32.98
  L 21.62 32.92
  A 0.95 0.94 78.5 0 1 20.77 32.35
  Q 19.51 29.49 17.14 28.70
  A 2.04 1.90 -82.7 0 0 14.64 30.77
  Q 14.85 35.56 19.72 37.51
  C 23.65 39.08 28.60 40.43 32.92 40.45
  Z"
/>
<path fill="#ffffff" d="
  M 32.98 29.05
  Q 36.12 29.06 37.61 32.50
  A 0.89 0.89 0.0 0 0 38.43 33.04
  L 44.30 33.04
  A 0.95 0.94 -77.9 0 0 45.16 32.48
  Q 46.45 29.63 48.82 28.86
  A 2.04 1.90 83.2 0 1 51.30 30.96
  Q 51.04 35.75 46.15 37.65
  C 42.20 39.18 37.24 40.48 32.92 40.45
  C 28.60 40.43 23.65 39.08 19.72 37.51
  Q 14.85 35.56 14.64 30.77
  A 2.04 1.90 -82.7 0 1 17.14 28.70
  Q 19.51 29.49 20.77 32.35
  A 0.95 0.94 78.5 0 0 21.62 32.92
  L 27.49 32.98
  A 0.89 0.89 0.0 0 0 28.32 32.45
  Q 29.84 29.03 32.98 29.05
  Z
  M 16.45 32.71
  Q 16.88 33.16 18.97 32.94
  A 0.47 0.47 0.0 0 0 19.35 32.27
  Q 19.18 31.88 18.29 30.95
  Q 17.41 30.03 17.02 29.83
  A 0.47 0.47 0.0 0 0 16.35 30.18
  Q 16.02 32.26 16.45 32.71
  Z
  M 46.69 32.19
  A 0.58 0.58 0.0 0 0 47.16 33.04
  Q 51.05 33.32 49.82 30.40
  A 0.67 0.67 0.0 0 0 48.97 30.03
  Q 47.55 30.57 46.69 32.19
  Z
  M 29.93 32.94
  L 36.05 32.98
  A 0.17 0.17 0.0 0 0 36.22 32.81
  L 36.22 32.72
  A 3.11 2.30 0.4 0 0 33.13 30.40
  L 32.89 30.40
  A 3.11 2.30 0.4 0 0 29.76 32.68
  L 29.76 32.77
  A 0.17 0.17 0.0 0 0 29.93 32.94
  Z"
/>
<path fill="#582359" d="
  M 18.29 30.95
  Q 19.18 31.88 19.35 32.27
  A 0.47 0.47 0.0 0 1 18.97 32.94
  Q 16.88 33.16 16.45 32.71
  Q 16.02 32.26 16.35 30.18
  A 0.47 0.47 0.0 0 1 17.02 29.83
  Q 17.41 30.03 18.29 30.95
  Z"
/>
<path fill="#582359" d="
  M 46.69 32.19
  Q 47.55 30.57 48.97 30.03
  A 0.67 0.67 0.0 0 1 49.82 30.40
  Q 51.05 33.32 47.16 33.04
  A 0.58 0.58 0.0 0 1 46.69 32.19
  Z"
/>
<path fill="#582359" d="
  M 29.93 32.94
  A 0.17 0.17 0.0 0 1 29.76 32.77
  L 29.76 32.68
  A 3.11 2.30 0.4 0 1 32.89 30.40
  L 33.13 30.40
  A 3.11 2.30 0.4 0 1 36.22 32.72
  L 36.22 32.81
  A 0.17 0.17 0.0 0 1 36.05 32.98
  L 29.93 32.94
  Z"
/>
</svg>
