<?xml version="1.0" encoding="UTF-8" standalone="no"?>
<!DOCTYPE svg PUBLIC "-//W3C//DTD SVG 1.1//EN" "http://www.w3.org/Graphics/SVG/1.1/DTD/svg11.dtd">
<svg xmlns="http://www.w3.org/2000/svg" version="1.1" viewBox="0.00 0.00 66.00 88.00">
<g stroke-width="2.00" fill="none" stroke-linecap="butt">
<path stroke="#4d120e" vector-effect="non-scaling-stroke" d="
  M 33.42 86.53
  Q 33.71 86.53 33.87 86.38
  C 49.24 72.02 71.28 44.51 62.21 21.83
  C 57.55 10.16 46.06 2.56 33.51 2.55
  C 20.96 2.53 9.46 10.11 4.77 21.77
  C -4.35 44.43 17.63 71.99 32.97 86.38
  Q 33.13 86.53 33.42 86.53"
/>
<path stroke="#b18c89" vector-effect="non-scaling-stroke" d="
  M 33.26 52.25
  Q 34.75 52.25 36.70 52.03
  Q 40.08 51.64 39.70 48.95
  A 1.32 1.31 80.2 0 1 40.73 47.48
  C 44.21 46.76 49.47 46.43 47.79 41.18
  Q 45.92 35.32 46.10 33.77
  A 0.19 0.19 0.0 0 1 46.29 33.60
  L 46.73 33.60
  A 0.09 0.08 85.9 0 1 46.81 33.68
  Q 47.03 35.64 47.85 37.13
  A 0.23 0.23 0.0 0 0 48.27 37.06
  Q 49.58 30.70 48.71 25.48
  A 3.85 3.75 26.2 0 0 48.26 24.21
  C 45.30 19.03 39.04 15.81 33.22 15.81
  C 27.41 15.82 21.15 19.05 18.20 24.24
  A 3.85 3.75 -26.3 0 0 17.75 25.51
  Q 16.89 30.73 18.21 37.09
  A 0.23 0.23 0.0 0 0 18.63 37.16
  Q 19.45 35.67 19.67 33.70
  A 0.09 0.08 -86.0 0 1 19.75 33.62
  L 20.19 33.62
  A 0.19 0.19 0.0 0 1 20.38 33.79
  Q 20.56 35.34 18.70 41.21
  C 17.03 46.46 22.29 46.78 25.77 47.49
  A 1.32 1.31 -80.3 0 1 26.81 48.96
  Q 26.43 51.65 29.81 52.03
  Q 31.76 52.25 33.26 52.25"
/>
<path stroke="#b18c89" vector-effect="non-scaling-stroke" d="
  M 35.59 39.76
  Q 37.60 42.98 41.43 42.75
  C 46.87 42.43 46.22 35.69 42.18 35.77
  Q 38.77 35.85 35.75 38.62
  A 0.91 0.90 -37.4 0 0 35.59 39.76"
/>
<path stroke="#b18c89" vector-effect="non-scaling-stroke" d="
  M 30.91 40.00
  A 0.91 0.90 37.2 0 0 30.74 38.86
  Q 27.71 36.10 24.30 36.03
  C 20.26 35.96 19.63 42.71 25.07 43.01
  Q 28.91 43.23 30.91 40.00"
/>
<path stroke="#b18c89" vector-effect="non-scaling-stroke" d="
  M 33.75 46.34
  L 33.75 47.46
  A 0.96 0.96 0.0 0 0 35.41 48.12
  C 37.35 46.06 35.12 42.51 33.64 40.83
  A 0.48 0.48 0.0 0 0 32.95 40.80
  Q 30.80 42.83 30.33 45.80
  A 2.34 1.81 -82.2 0 0 31.84 48.43
  Q 32.31 48.48 33.11 46.23
  A 0.33 0.33 0.0 0 1 33.75 46.34"
/>
</g>
<path fill="#360b09" d="
  M 33.81 88.00
  L 33.05 88.00
  C 21.72 77.72 11.95 65.45 5.58 51.42
  Q 2.17 43.88 1.58 34.82
  Q 1.01 25.98 5.07 18.37
  C 12.37 4.67 28.02 -1.77 43.19 2.84
  Q 51.43 5.34 57.12 11.62
  C 79.44 36.23 52.37 71.08 33.81 88.00
  Z
  M 33.42 86.53
  Q 33.71 86.53 33.87 86.38
  C 49.24 72.02 71.28 44.51 62.21 21.83
  C 57.55 10.16 46.06 2.56 33.51 2.55
  C 20.96 2.53 9.46 10.11 4.77 21.77
  C -4.35 44.43 17.63 71.99 32.97 86.38
  Q 33.13 86.53 33.42 86.53
  Z"
/>
<path fill="#631813" d="
  M 33.51 2.55
  C 46.06 2.56 57.55 10.16 62.21 21.83
  C 71.28 44.51 49.24 72.02 33.87 86.38
  Q 33.71 86.53 33.42 86.53
  Q 33.13 86.53 32.97 86.38
  C 17.63 71.99 -4.35 44.43 4.77 21.77
  C 9.46 10.11 20.96 2.53 33.51 2.55
  Z
  M 33.26 52.25
  Q 34.75 52.25 36.70 52.03
  Q 40.08 51.64 39.70 48.95
  A 1.32 1.31 80.2 0 1 40.73 47.48
  C 44.21 46.76 49.47 46.43 47.79 41.18
  Q 45.92 35.32 46.10 33.77
  A 0.19 0.19 0.0 0 1 46.29 33.60
  L 46.73 33.60
  A 0.09 0.08 85.9 0 1 46.81 33.68
  Q 47.03 35.64 47.85 37.13
  A 0.23 0.23 0.0 0 0 48.27 37.06
  Q 49.58 30.70 48.71 25.48
  A 3.85 3.75 26.2 0 0 48.26 24.21
  C 45.30 19.03 39.04 15.81 33.22 15.81
  C 27.41 15.82 21.15 19.05 18.20 24.24
  A 3.85 3.75 -26.3 0 0 17.75 25.51
  Q 16.89 30.73 18.21 37.09
  A 0.23 0.23 0.0 0 0 18.63 37.16
  Q 19.45 35.67 19.67 33.70
  A 0.09 0.08 -86.0 0 1 19.75 33.62
  L 20.19 33.62
  A 0.19 0.19 0.0 0 1 20.38 33.79
  Q 20.56 35.34 18.70 41.21
  C 17.03 46.46 22.29 46.78 25.77 47.49
  A 1.32 1.31 -80.3 0 1 26.81 48.96
  Q 26.43 51.65 29.81 52.03
  Q 31.76 52.25 33.26 52.25
  Z"
/>
<path fill="#ffffff" d="
  M 33.22 15.81
  C 39.04 15.81 45.30 19.03 48.26 24.21
  A 3.85 3.75 26.2 0 1 48.71 25.48
  Q 49.58 30.70 48.27 37.06
  A 0.23 0.23 0.0 0 1 47.85 37.13
  Q 47.03 35.64 46.81 33.68
  A 0.09 0.08 85.9 0 0 46.73 33.60
  L 46.29 33.60
  A 0.19 0.19 0.0 0 0 46.10 33.77
  Q 45.92 35.32 47.79 41.18
  C 49.47 46.43 44.21 46.76 40.73 47.48
  A 1.32 1.31 80.2 0 0 39.70 48.95
  Q 40.08 51.64 36.70 52.03
  Q 34.75 52.25 33.26 52.25
  Q 31.76 52.25 29.81 52.03
  Q 26.43 51.65 26.81 48.96
  A 1.32 1.31 -80.3 0 0 25.77 47.49
  C 22.29 46.78 17.03 46.46 18.70 41.21
  Q 20.56 35.34 20.38 33.79
  A 0.19 0.19 0.0 0 0 20.19 33.62
  L 19.75 33.62
  A 0.09 0.08 -86.0 0 0 19.67 33.70
  Q 19.45 35.67 18.63 37.16
  A 0.23 0.23 0.0 0 1 18.21 37.09
  Q 16.89 30.73 17.75 25.51
  A 3.85 3.75 -26.3 0 1 18.20 24.24
  C 21.15 19.05 27.41 15.82 33.22 15.81
  Z
  M 35.59 39.76
  Q 37.60 42.98 41.43 42.75
  C 46.87 42.43 46.22 35.69 42.18 35.77
  Q 38.77 35.85 35.75 38.62
  A 0.91 0.90 -37.4 0 0 35.59 39.76
  Z
  M 30.91 40.00
  A 0.91 0.90 37.2 0 0 30.74 38.86
  Q 27.71 36.10 24.30 36.03
  C 20.26 35.96 19.63 42.71 25.07 43.01
  Q 28.91 43.23 30.91 40.00
  Z
  M 33.75 46.34
  L 33.75 47.46
  A 0.96 0.96 0.0 0 0 35.41 48.12
  C 37.35 46.06 35.12 42.51 33.64 40.83
  A 0.48 0.48 0.0 0 0 32.95 40.80
  Q 30.80 42.83 30.33 45.80
  A 2.34 1.81 -82.2 0 0 31.84 48.43
  Q 32.31 48.48 33.11 46.23
  A 0.33 0.33 0.0 0 1 33.75 46.34
  Z"
/>
<path fill="#631813" d="
  M 35.75 38.62
  Q 38.77 35.85 42.18 35.77
  C 46.22 35.69 46.87 42.43 41.43 42.75
  Q 37.60 42.98 35.59 39.76
  A 0.91 0.90 -37.4 0 1 35.75 38.62
  Z"
/>
<path fill="#631813" d="
  M 30.91 40.00
  Q 28.91 43.23 25.07 43.01
  C 19.63 42.71 20.26 35.96 24.30 36.03
  Q 27.71 36.10 30.74 38.86
  A 0.91 0.90 37.2 0 1 30.91 40.00
  Z"
/>
<path fill="#631813" d="
  M 33.75 46.34
  A 0.33 0.33 0.0 0 0 33.11 46.23
  Q 32.31 48.48 31.84 48.43
  A 2.34 1.81 -82.2 0 1 30.33 45.80
  Q 30.80 42.83 32.95 40.80
  A 0.48 0.48 0.0 0 1 33.64 40.83
  C 35.12 42.51 37.35 46.06 35.41 48.12
  A 0.96 0.96 0.0 0 1 33.75 47.46
  L 33.75 46.34
  Z"
/>
</svg>
